<svg id="a84720ab-d943-4bd1-8382-2916eba42850" data-name="Blue" xmlns="http://www.w3.org/2000/svg" viewBox="0 0 260 260"><defs><style>.e17f8572-7482-4588-a286-2c212dc944a6{fill-rule:evenodd;}</style></defs><g id="a0caec28-bef3-4b52-824f-e8aa17a45b56" data-name="Deposit"><path id="ff4309d7-2098-43f9-b305-f36859dc73d8" data-name="Icon" class="e17f8572-7482-4588-a286-2c212dc944a6" d="M70,150V110H90l20-20H70V70H190V190H70V170H90l20-20ZM30,39.92A10,10,0,0,1,39.92,30H220.08A10,10,0,0,1,230,39.92V220.08a10,10,0,0,1-9.92,9.92H39.92A10,10,0,0,1,30,220.08ZM50,50V210H210V50ZM150,150a20,20,0,1,0-20-20A20,20,0,0,0,150,150Z"/></g></svg>