<svg id="f39106cd-a3eb-4353-9afd-45d837c7ac8c" data-name="Blue" xmlns="http://www.w3.org/2000/svg" viewBox="0 0 260 260"><path d="M130.1,78.72a51.33,51.33,0,1,0,51.45,51.33A51.32,51.32,0,0,0,130.1,78.72h0m0,84.65a33.32,33.32,0,1,1,33.33-33.32h0a33.31,33.31,0,0,1-33.33,33.32"/><path d="M195.57,76.62a12,12,0,1,1-12-12,12,12,0,0,1,12,12"/><path d="M130.1,48c26.73,0,29.93.1,40.44.6,9.81.4,15,2.1,18.62,3.4a33.56,33.56,0,0,1,19,19c1.4,3.5,3,8.8,3.4,18.61.5,10.61.6,13.71.6,40.42s-.1,29.91-.6,40.42c-.4,9.81-2.1,15-3.4,18.61a33.56,33.56,0,0,1-19,19c-3.5,1.4-8.81,3-18.62,3.4-10.51.5-13.71.6-40.44.6s-29.93-.1-40.44-.6c-9.81-.4-15-2.1-18.62-3.4a33.56,33.56,0,0,1-19-19c-1.4-3.5-3-8.8-3.4-18.61-.5-10.51-.6-13.71-.6-40.42s.1-29.91.6-40.42c.4-9.81,2.1-15,3.4-18.61A33.56,33.56,0,0,1,71,52c3.5-1.4,8.81-3,18.62-3.4,10.51-.5,13.71-.6,40.44-.6m0-18c-27.23,0-30.63.1-41.24.6s-17.92,2.2-24.33,4.6A51,51,0,0,0,35.31,64.42C32.8,70.82,31.1,78,30.7,88.73s-.7,14.11-.7,41.32.1,30.62.6,41.22,2.2,17.91,4.61,24.31A51,51,0,0,0,64.43,224.8c6.41,2.5,13.62,4.2,24.33,4.6s14.11.6,41.24.6,30.63-.1,41.24-.6,17.92-2.2,24.33-4.6a51,51,0,0,0,29.22-29.22c2.51-6.4,4.21-13.6,4.61-24.31s.6-14.11.6-41.22-.1-30.62-.6-41.22-2.2-17.91-4.61-24.31A51,51,0,0,0,195.57,35.3c-6.41-2.5-13.62-4.2-24.33-4.6S157.33,30,130.1,30"/></svg>