<svg id="b00ceb3b-8c82-433a-9bc2-46c3c22b2ca0" data-name="Blue" xmlns="http://www.w3.org/2000/svg" viewBox="0 0 260 260"><path d="M223.82,205.27A119.61,119.61,0,0,1,130,250C66.73,250,15.45,200.91,10,138.73l27.27-5.46A92.54,92.54,0,0,0,130,221.64c30.55,0,56.73-14.19,74.18-37.09L185.64,166,250,157.27l-8.73,64.37ZM36.18,54.73A119.61,119.61,0,0,1,130,10c63.27,0,114.55,49.09,120,111.27l-27.27,2.18c-3.28-48-43.64-85.09-91.64-85.09-30.54,0-56.73,14.19-74.18,37.09L75.45,94,10,102.73l8.73-64.37Zm85.09,121.09c-7.63-1.09-14.18-3.27-20.72-5.46L102.73,154c7.63,4.36,17.45,7.64,26.18,7.64,7.64,0,14.18-3.28,14.18-10.91,0-6.55-3.27-9.82-16.36-15.28-17.46-7.63-25.09-13.09-25.09-27.27,0-12,7.63-20.73,19.63-24V65.64l18.55,8.72v9.82c6.54,1.09,10.91,2.18,16.36,5.46L154,104.91a39.38,39.38,0,0,0-21.82-6.55c-8.73,0-13.09,4.37-13.09,9.82s3.27,8.73,15.27,14.18c18.55,7.64,26.19,14.19,26.19,28.37s-8.73,22.91-20.73,26.18v19.64l-18.55-8.73Z"/></svg>