<svg id="a3009c1a-01f9-4a9c-8007-cf0a3b459040" data-name="Blue" xmlns="http://www.w3.org/2000/svg" viewBox="0 0 260 260"><defs><style>.e7fcb82e-0bba-49f8-a7e2-5a234852640d{fill-rule:evenodd;}</style></defs><path class="e7fcb82e-0bba-49f8-a7e2-5a234852640d" d="M130,10A120,120,0,1,0,250,130,120,120,0,0,0,130,10ZM99.06,136.38c0,14.52-7,23.62-22.77,23.62s-22.85-9.1-22.85-23.54V100H65.89v36.14c0,8.54,3.14,13.33,10.55,13.33s10.39-4.71,10.39-13.33V100H99.06ZM134.28,160a36.58,36.58,0,0,1-25.22-10.26l6.64-8.5c4.21,4.37,11.71,8.75,18.19,8.75,6.09,0,10.45-2.2,10.45-6.64s-4.15-6.24-11.71-8.35c-10.29-2.95-21.1-5.61-21.1-17.75,0-10.78,8.59-17.25,20.89-17.25,8.9,0,16.79,3.9,22.32,8.35l-5.8,9.07c-4.14-3.6-10.7-7-16.16-7s-8.75,2.33-8.75,5.81c0,4.64,4.29,6.24,11.87,8.35,10.15,2.74,20.89,5.93,20.89,17.88C156.79,151.73,149.58,160,134.28,160Zm58.53-.57V170l-10-5v-5.22a40.46,40.46,0,0,1-13.75-3.86l1.67-10.28c4.85,2.89,10.86,5.18,16.62,5.18,5.1,0,8.61-2.46,8.61-7.14,0-4.33-2-6.12-10.36-9.77-11.19-4.67-15.7-8.41-15.7-17.51,0-8.43,5.18-14,12.91-15.78V90l10,5v5.22a29.3,29.3,0,0,1,10.91,3.35l-1.67,10.2a25.32,25.32,0,0,0-13.61-4.59c-5.51,0-7.94,2.72-7.94,6.29,0,3.74,1.84,5.52,9.86,8.92,11.86,4.93,16.2,9.09,16.2,18.19C206.56,152,201,157.7,192.81,159.43Z"/></svg>