<svg id="b959073f-5722-45b4-8d67-e6c340bd4d0d" data-name="Blue" xmlns="http://www.w3.org/2000/svg" viewBox="0 0 260 260"><defs><style>.aaff8fab-3a77-4b53-a18d-658a2216d582{fill-rule:evenodd;}</style></defs><g id="ab80d2c0-d180-4a0f-9791-4e89fe5141d8" data-name="See-CVV"><path id="e1ec4de3-e27a-4936-a3b3-d05714c44e0c" data-name="Icon" class="aaff8fab-3a77-4b53-a18d-658a2216d582" d="M20,110H90l20-20H20V60A10,10,0,0,1,30,50H230a10,10,0,0,1,10,10V200a10,10,0,0,1-10,10H30a10,10,0,0,1-10-10Zm150,50a40,40,0,1,0-40-40A40,40,0,0,0,170,160Zm-20-50h45l-20,20H150Z"/></g></svg>