<svg id="fb3675d2-9d57-4de2-a340-5943540e23e3" data-name="Blue" xmlns="http://www.w3.org/2000/svg" viewBox="0 0 260 260"><path d="M228,208.78l-50.79-42.6a6.72,6.72,0,0,0-8.9.4l-7.4,7.4-1.5,1.5-15.3,15.3a144.84,144.84,0,0,1-51.79-33.1,140.36,140.36,0,0,1-33.1-51.79l15.3-15.3,1.5-1.5,7.4-7.4a6.83,6.83,0,0,0,.3-8.9L41.22,22a5.38,5.38,0,0,0-8.1-.3L14,40.79c-.4.4-.9.7-1.1,1.1l-2.3,2.3-.1-.1h-.2A184.82,184.82,0,0,0,205.9,239.68l-.1-.2,2.3-2.3,1.1-1.1L228.3,217A5.5,5.5,0,0,0,228,208.78Z"/><polygon points="200 99.99 200 129.99 250 84.99 200 39.99 200 69.99 120.01 69.99 150.01 99.99 200 99.99"/></svg>