<svg id="fb23cd13-e0f0-44cf-9c1c-481f3962dd2c" data-name="Blue" xmlns="http://www.w3.org/2000/svg" viewBox="0 0 260 260"><defs><style>.eb5cfe49-8920-4510-87d3-c76441c0d7d2{fill-rule:evenodd;}</style></defs><path class="eb5cfe49-8920-4510-87d3-c76441c0d7d2" d="M84.2,142H90v25.8a4.14,4.14,0,0,0,4.1,4.2h71.7a4.14,4.14,0,0,0,4.1-4.2h0V142h5.8a4.23,4.23,0,0,0,4.2-4.2h0V97h-10V76.2a4.14,4.14,0,0,0-4.1-4.2H94.1A4.14,4.14,0,0,0,90,76.2h0V97H80v40.8A4.23,4.23,0,0,0,84.2,142ZM100,82h60V97H100Zm0,51.7h60V162H100Z"/><path class="eb5cfe49-8920-4510-87d3-c76441c0d7d2" d="M200,10H60A10,10,0,0,0,50,20V240a10,10,0,0,0,10,10H200a10,10,0,0,0,10-10V20A10,10,0,0,0,200,10ZM130,240a10,10,0,1,1,10-10A10,10,0,0,1,130,240Zm60-30H70V30H190Z"/></svg>