<svg id="a26e8d32-bee6-442d-9b8e-56173a4b130e" data-name="Blue" xmlns="http://www.w3.org/2000/svg" viewBox="0 0 260 260"><defs><style>.e5332669-078e-4dfb-9819-20f0820004ba{fill-rule:evenodd;}</style></defs><path class="e5332669-078e-4dfb-9819-20f0820004ba" d="M250,85.06a15,15,0,1,0-29.94,0h0l-.05-40h0a15,15,0,1,0-29.93,0h0L190,25h0a15,15,0,0,0-30,0h0V45.06a15,15,0,1,0-29.94,0h0v92.52a6,6,0,0,1-9.75,4.57L85,113.76a.56.56,0,0,0-.31-.17,15,15,0,0,0-21.84,20.13L100.73,200h0A80.1,80.1,0,0,0,250,165.63Z"/><polygon class="e5332669-078e-4dfb-9819-20f0820004ba" points="49.99 69.99 49.99 89.99 10 59.99 49.99 30 49.99 49.99 109.99 49.99 89.99 69.99 49.99 69.99"/></svg>