<svg id="a834e900-d5ac-4765-8cf8-fee9014b04b4" data-name="Blue" xmlns="http://www.w3.org/2000/svg" viewBox="0 0 260 260"><path d="M170.28,40A90,90,0,1,0,260,130,89.87,89.87,0,0,0,170.28,40Zm6.58,73.9L164,126.8H138.47c-.1,1.1-.2,2.1-.2,3.2s.1,2.2.2,3.2h38.29L163.9,146.1H142.56a31.81,31.81,0,0,0,43.67,11.8,30.55,30.55,0,0,0,6.68-5.1l9.07,9.1a44.77,44.77,0,0,1-63.41,0,45.47,45.47,0,0,1-13.16-31.8c0-1.1.1-2.2.1-3.2h-.1l.1-.1a45,45,0,0,1,48.16-41.5A44.35,44.35,0,0,1,202,98.4l-9.07,9.1a32,32,0,0,0-45.26,0,32.92,32.92,0,0,0-5.09,6.7h34.3Z"/><path d="M95.51,207.1v-11a108.28,108.28,0,0,1-10-13.4v25A95.51,95.51,0,0,1,52.24,165H76.86c-1.19-3.3-2.29-6.6-3.19-10H49a92.89,92.89,0,0,1-3.29-24.6A94.9,94.9,0,0,1,49.15,105H73.67a91.44,91.44,0,0,1,3.19-10H52.54a95.17,95.17,0,0,1,33-41.9V77.3a93.18,93.18,0,0,1,10-13.4V52.6c2.09,1.5,4.18,3.1,6.18,4.8a96.4,96.4,0,0,1,16.84-12.9,94.68,94.68,0,0,0-23-4.4h-.9c-.7,0-1.4-.1-2.1-.1H87.33a10.69,10.69,0,0,0-1.79.1C36,42.4-2.19,84.6.1,134.2a89.91,89.91,0,0,0,85.44,85.7h.39c.9,0,1.8.1,2.7.1h3.88a7.57,7.57,0,0,0,1.5-.1,5.7,5.7,0,0,0,1.3-.1,86.2,86.2,0,0,0,23-4.4,101.28,101.28,0,0,1-17-13A45.55,45.55,0,0,1,95.51,207.1ZM70.28,52.6A105.78,105.78,0,0,0,41.87,95h-23A80.39,80.39,0,0,1,70.28,52.6ZM10.77,130a79.06,79.06,0,0,1,4-25h24a103.87,103.87,0,0,0-3.19,25.4,102.13,102.13,0,0,0,3,24.6H14.75A79.06,79.06,0,0,1,10.77,130Zm8.07,35H41.67a103.45,103.45,0,0,0,27.42,42A80.16,80.16,0,0,1,18.84,165Z"/></svg>