<svg id="e6f64d8a-0a9e-4392-8a9d-d3a5760b824a" data-name="Blue" xmlns="http://www.w3.org/2000/svg" viewBox="0 0 260 260"><circle cx="110" cy="60" r="50"/><path d="M185,120a65,65,0,1,0,65,65,65,65,0,0,0-65-65Zm5.4,51.5-10.8,10.8H158.1a36.5,36.5,0,0,0,0,5.4h32.4l-10.8,10.8h-18a27,27,0,0,0,37,9.9,28.79,28.79,0,0,0,5.6-4.3l7.7,7.7A37.85,37.85,0,0,1,147.3,185a24.37,24.37,0,0,1,.1-2.7h-.1l.1-.1a37.9,37.9,0,0,1,64.6-24l-7.7,7.7a27,27,0,0,0-38.3,0,28.79,28.79,0,0,0-4.3,5.6Z"/><path d="M121.1,129a59.52,59.52,0,0,1-11.1,1,70,70,0,0,1-31.4-7.4A89.87,89.87,0,0,0,10,210v20H112.9A84.72,84.72,0,0,1,121.1,129Z"/></svg>