<svg id="b90fd837-494c-48d4-9317-55cd4510298f" data-name="Blue" xmlns="http://www.w3.org/2000/svg" viewBox="0 0 260 260"><path d="M200,20H190L180,30H170V20H160L150,30H140V20H130L120,30H110V20H100L90,30H80V20H60c-6,0-10,4-10,10V230c0,6,4,10,10,10H70l10-10H90v10h10l10-10h10v10h10l10-10h10v10h10l10-10h10v10h20c6,0,10-4,10-10V30C210,24,206,20,200,20ZM139.83,178.8V200l-20-10V179.5a72.94,72.94,0,0,1-22.5-6.3l2.9-17.1c8.4,4.8,18.8,8.6,28.8,8.6,8.8,0,14.9-4.1,14.9-11.9,0-7.2-3.5-10.2-18-16.3-19.4-7.8-27.2-14-27.2-29.2,0-13.6,8.4-22.7,21.1-26V60l20,10V80.5a53.48,53.48,0,0,1,17.6,5.4l-2.9,17c-7.2-4.7-15.8-7.6-23.6-7.6-9.6,0-13.8,4.5-13.8,10.5,0,6.2,3.2,9.2,17.1,14.9,20.6,8.2,28.1,15.2,28.1,30.3S153.23,175.6,139.83,178.8Z"/></svg>