<svg id="afab921a-73db-4cd9-baa5-4044e06ede92" data-name="Blue" xmlns="http://www.w3.org/2000/svg" viewBox="0 0 260 260"><defs><style>.b145c3ba-6af4-4426-84d7-9ddb479c55f7{fill-rule:evenodd;}</style></defs><path class="b145c3ba-6af4-4426-84d7-9ddb479c55f7" d="M195.14,129.9A65.05,65.05,0,1,0,260,195a65,65,0,0,0-64.86-65Zm35.12,59.64c0,21.52-35.12,43-35.12,43S160,211.06,160,189.54v-2.7c0-10.41,7.88-18.81,17.56-18.81,8.88,0,16.16,7,17.36,16.11h.4C196.54,175,203.92,168,212.7,168c9.68,0,17.56,8.4,17.56,18.81Z"/><path d="M84.88,109.88c.4-.7,16-8.91,16-8.91L89,150.31l23.45,26.22a85.52,85.52,0,0,1,23.45-42.13l2.89-12,3.4,6.51a84.42,84.42,0,0,1,26.14-14.32l-13.87-42s-6.69,2.3-7.68,2.6a46.85,46.85,0,0,1-16.27.8,35.1,35.1,0,0,1-12.67-4.2c-1.8-1-8.38-6-8.38-6L71.51,85.06,39,124.69l22.35,17.22Z"/><ellipse cx="134.37" cy="37.12" rx="26.84" ry="27.12"/><polygon points="88.17 169.13 84.08 164.62 81.89 170.33 68.52 205.66 35.49 243.79 30 250.19 38.38 250.19 67.02 250.19 68.62 250.19 69.71 248.99 96.26 220.97 96.66 220.47 96.95 219.87 108.33 194.15 109.33 191.84 107.63 189.94 88.17 169.13"/></svg>