<svg id="f4e11759-1b1d-4bc7-9e97-78aed2fcc8c5" data-name="Blue" xmlns="http://www.w3.org/2000/svg" viewBox="0 0 260 260"><defs><style>.e7cc4a97-ec1c-4841-b31a-2ec6b6afd323{fill-rule:evenodd;}</style></defs><path class="e7cc4a97-ec1c-4841-b31a-2ec6b6afd323" d="M130.39,58c15.85,0,31.69-8,31.69-8l15.84-40s-31.68,6.43-47.53,6.43S82.86,10,82.86,10L98.7,50S114.55,58,130.39,58Z"/><path class="e7cc4a97-ec1c-4841-b31a-2ec6b6afd323" d="M173.44,60l-.19.38-4.87,2.5c-1.91,1-19.38,9.5-38.08,9.5s-36.08-8.54-38.09-9.5l-3.91-2C67.78,75.57,25.78,108.5,25,154.29,23.68,230.8,92.4,250,131.44,250c36.94,0,103.46-19.2,103.56-95.71C235.1,107.63,193.39,74.42,173.44,60ZM130.39,211.6a47.43,47.43,0,0,1-35.7-16.32l12-8.06a33.07,33.07,0,0,0,23.67,10,33.6,33.6,0,1,0-29.59-49l.48.29,14,7.49-8.68,4.12-27.3,11.91-6-38.4,14,7.49,1,.48a47.56,47.56,0,0,1,42.19-25.92c26.24,0,47.53,21.5,47.53,48A47.78,47.78,0,0,1,130.39,211.6Z"/></svg>