<svg id="b65802b6-b5cb-4372-a84f-2f070d18c199" data-name="Blue" xmlns="http://www.w3.org/2000/svg" viewBox="0 0 260 260"><path d="M10,192v36a12,12,0,0,0,12,12H50V180H22A12,12,0,0,0,10,192Z"/><rect x="220" y="180" width="30" height="60"/><path d="M198,170H152c-7,0-12,5-12,11v58c0,6,5,11,12,11h46c7,0,12-5,12-11V181C210,175,205,170,198,170Zm-8,60H160V190h30Z"/><path d="M118,190H100L90,170H60v80H90l10-20h18a12,12,0,0,0,12-12V202A12,12,0,0,0,118,190Zm2,30H100V200h20Z"/><polygon points="250 10 180 10 20 170 50 170 50 160 100 160 250 10"/></svg>