<svg id="a9c9760a-8cd2-4c5a-a652-48bce42c63f2" data-name="Blue" xmlns="http://www.w3.org/2000/svg" viewBox="0 0 260 260"><defs><style>.a8f8c53a-5ab0-4c01-af76-9d0d07e5a128{fill-rule:evenodd;}</style></defs><path class="a8f8c53a-5ab0-4c01-af76-9d0d07e5a128" d="M240,60H190V30H100L70,60H20A10,10,0,0,0,10,70V220a10,10,0,0,0,10,10H240a10,10,0,0,0,10-10V70A10,10,0,0,0,240,60ZM180,173v27l-13-13a59.94,59.94,0,0,1-84.3-9.5A58.89,58.89,0,0,1,73,160H94a41,41,0,0,0,55.5,16.8A34,34,0,0,0,154,174l-14-14h40Zm-10-43a42,42,0,0,0-74-14l14,14H70V90l13,13a60,60,0,0,1,106,27Z"/></svg>