<svg id="a5482d94-dbf8-4217-9de5-5c26e5d44d2a" data-name="Blue" xmlns="http://www.w3.org/2000/svg" viewBox="0 0 260 260"><polygon points="50 109.94 76.7 109.94 85.6 250 67.8 250 50 109.94"/><polygon points="94.5 109.94 121.1 109.94 121.1 250 103.4 250 94.5 109.94"/><polygon points="138.9 109.94 165.6 109.94 156.7 250 138.9 250 138.9 109.94"/><polygon points="183.4 109.94 210 109.94 192.2 250 174.5 250 183.4 109.94"/><path d="M200.2,72a28.34,28.34,0,0,0,.9-7.11c0-12.3-8-22.61-18.4-24.61a14,14,0,0,0-8.6-9.6C172.3,18.9,163.2,10,152.2,10S132,19.1,130.3,31a12.12,12.12,0,0,0-9.7.1C119.1,24.71,113.9,20,107.8,20S96.7,24.51,95,30.61a14.27,14.27,0,0,0-8.8,9.7,22.07,22.07,0,0,0-14,9.61c-7.4,0-13.3,6.7-13.3,15a15.79,15.79,0,0,0,1.5,6.81C54.3,74.93,50,81.83,50,89.93H210C210,82.13,206,75.33,200.2,72Z"/></svg>