<svg id="b7b5a2f6-6d86-4097-997e-5dc6505ca42e" data-name="Blue" xmlns="http://www.w3.org/2000/svg" viewBox="0 0 260 260"><defs><style>.e99f9908-b2a2-4738-92b3-85155e86d8f4{fill-rule:evenodd;}</style></defs><path class="e99f9908-b2a2-4738-92b3-85155e86d8f4" d="M130,10A120,120,0,1,0,250,130,120,120,0,0,0,130,10ZM115,195.5A65,65,0,1,1,161,84.6L146.9,98.7A45.4,45.4,0,0,0,115,85.5a44.86,44.86,0,0,0-37.4,20h46l-20,20H70.3a41.82,41.82,0,0,0,0,10h53.3l-20,20h-26a44.94,44.94,0,0,0,69.3,6.7L161,176.3A64.44,64.44,0,0,1,115,195.5Zm72.9-44.4-13.8,13.8-28.4-28.4,14.2-14.2,14.2,14.2,42.4-42.4,14.2,14.2Z"/></svg>