<svg id="a453ed42-4795-45c5-9ec7-6af70e105cd2" data-name="Blue" xmlns="http://www.w3.org/2000/svg" viewBox="0 0 260 260"><path d="M160.24,10H20.3A10.22,10.22,0,0,0,10,20V240a10.29,10.29,0,0,0,10.3,10H160.24a9.7,9.7,0,0,0,9.69-9.7h0V180h-20v30H30V30h120V60h20V20a9.71,9.71,0,0,0-9.39-10Zm-70,210a10,10,0,1,1-10,10,10,10,0,0,1,10-10Z"/><polygon points="209.42 79.7 200.02 89 225.01 113.8 170.43 113.8 170.43 126.4 224.81 126.2 200.32 150.3 209.62 159.5 250 119.8 209.42 79.7"/><polygon points="148.74 112.8 94.36 113 118.86 88.9 109.56 79.7 69.28 119.5 109.86 159.5 119.16 150.2 94.17 125.5 148.74 125.5 148.74 112.8"/></svg>