<svg id="e7f8c6a1-9db7-4d24-a62d-32be09eab2fc" data-name="Blue" xmlns="http://www.w3.org/2000/svg" viewBox="0 0 260 260"><defs><style>.edd2d387-7b46-4a54-be80-aead12d4cc0d{fill-rule:evenodd;}</style></defs><polygon class="edd2d387-7b46-4a54-be80-aead12d4cc0d" points="133.5 150.6 149.9 150.6 160.8 139.7 133.5 139.7 133.5 150.6"/><path class="edd2d387-7b46-4a54-be80-aead12d4cc0d" d="M240,20H20a9.94,9.94,0,0,0-10,9.9V240l40-40H240a9.94,9.94,0,0,0,10-9.9V29.9A9.94,9.94,0,0,0,240,20ZM135.6,50a27.3,27.3,0,1,1-27.3,27.3A27.27,27.27,0,0,1,135.6,50Zm54.5,120H81V159.1a49.2,49.2,0,0,1,37.4-47.7,38.12,38.12,0,0,0,34.2,0A49.09,49.09,0,0,1,190,159.1Z"/></svg>