<svg id="be529d5e-f10d-4477-9e37-febe18bd4a4a" data-name="Blue" xmlns="http://www.w3.org/2000/svg" viewBox="0 0 260 260"><path d="M40,22V238a12,12,0,0,0,12,12H69.8v-7.5a12,12,0,0,1,12-12H178a12,12,0,0,1,12,12V250h18a12,12,0,0,0,12-12V22a12,12,0,0,0-12-12H52A12,12,0,0,0,40,22ZM142.7,178.4a31.66,31.66,0,0,1-4.4,1.2c-4.9-15.9-18.2-29.4-18.2-29.4a90,90,0,0,0-15,21.4,40.91,40.91,0,0,1-15-30.7,39.85,39.85,0,0,1,8.8-24.3l11.2,15.1,15-31.6,5-10.4,5,10.4,15,31.6,11.2-15.1a40.48,40.48,0,0,1,8.8,24.3A40.67,40.67,0,0,1,142.7,178.4ZM180,50H150V30h50Z"/></svg>