<svg id="e1b01ec5-5817-45be-b406-4c3b24e07554" data-name="Blue" xmlns="http://www.w3.org/2000/svg" viewBox="0 0 260 260"><defs><style>.b9c44faa-b36d-4727-83d7-b7d1d2eadd7c{fill-rule:evenodd;}</style></defs><path class="b9c44faa-b36d-4727-83d7-b7d1d2eadd7c" d="M240,26a6,6,0,0,0-6-6H113.9a6,6,0,0,0-6,6V90H26a6,6,0,0,0-6,6V234a6,6,0,0,0,6,6H233.7a6,6,0,0,0,6-6ZM128.8,40h91.9V84.6H128.8V40ZM77,115H97v20H77Zm0,32H97v20H77ZM65,199H45V179H65Zm0-32H45V147H65Zm0-32H45V115H65Zm63.9,64h-52V179h52Zm.1-32H109V147h20Zm0-32H109V115h20Zm79.3,5h0a12.5,12.5,0,1,1,12.5-12.5h0A12.5,12.5,0,0,1,208.3,140Z"/><polygon class="b9c44faa-b36d-4727-83d7-b7d1d2eadd7c" points="188.6 71.8 207.6 52.8 207.6 51.8 144 51.8 144 71.8 188.6 71.8"/></svg>