<svg id="afee758d-7726-415e-84e4-42e47e8f0ac6" data-name="Blue" xmlns="http://www.w3.org/2000/svg" viewBox="0 0 260 260"><defs><style>.b924fb78-50ee-4998-8495-6f552f18cb57{fill-rule:evenodd;}</style></defs><path class="b924fb78-50ee-4998-8495-6f552f18cb57" d="M120,100a10,10,0,0,1,20,0v60a10,10,0,0,1-20,0Z"/><path class="b924fb78-50ee-4998-8495-6f552f18cb57" d="M130,50a50,50,0,0,0-50,50v60a50,50,0,0,0,100,0V100A50,50,0,0,0,130,50Zm30,110a30,30,0,0,1-60,0V100a30,30,0,0,1,60,0Z"/><path class="b924fb78-50ee-4998-8495-6f552f18cb57" d="M220,150v10A90,90,0,0,1,41.8,178.2L60,160h0a70,70,0,0,0,140,0V130Z"/><path class="b924fb78-50ee-4998-8495-6f552f18cb57" d="M220,120V100.1a90,90,0,1,0-180,0V150l20-20V100a70,70,0,0,1,140,0h0Z"/></svg>