<svg id="adba0f9c-625f-44f7-9612-f633a2ded855" data-name="Blue" xmlns="http://www.w3.org/2000/svg" viewBox="0 0 260 260"><path d="M99.55,229.13h-64C29.2,229.13,25,225,25,218.7V20.43C25,14.17,29.2,10,35.5,10H109V93.48h31.5l21-20.87H130V10h10.5L193,62.17V107a68.3,68.3,0,0,0-21-3.13c-46.2,0-84,37.57-84,83.48A80.41,80.41,0,0,0,99.55,229.13ZM109,187.39c0-34.43,28.35-62.61,63-62.61s63,28.18,63,62.61S206.65,250,172,250,109,221.83,109,187.39Zm70.35-12.52h-25.2c4.2-7.3,11.55-11.48,21-11.48,6.3,0,12.6,3.13,16.8,7.31l6.3-6.27c-6.3-6.26-14.7-9.39-24.15-9.39a33.36,33.36,0,0,0-33.6,31.31h0v2.08c0,18.79,14.7,33.4,33.6,33.4,9.45,0,17.85-4.18,24.15-9.4l-6.3-6.26c-4.2,4.18-10.5,7.31-16.8,7.31-8.4,0-16.8-5.22-21-11.48H169.9l9.45-9.39H151v-4.18h18.9Z"/></svg>