<svg id="fc0d74cd-1cfb-4a5e-9bca-990613136f63" data-name="Blue" xmlns="http://www.w3.org/2000/svg" viewBox="0 0 260 260"><ellipse cx="169.96" cy="40.12" rx="20" ry="19.98"/><path d="M55,140.24a55,55,0,1,0,55,54.95A54.94,54.94,0,0,0,55,140.24Zm0,89.92a35,35,0,1,1,35-35,35,35,0,0,1-35,35Z"/><path d="M205,140.24a55,55,0,1,0,55,54.95A54.94,54.94,0,0,0,205,140.24Zm0,89.92a35,35,0,1,1,35-35,35,35,0,0,1-35,35Z"/><path d="M158.86,120.55h41.9a10,10,0,1,0,0-20h-30.5l-16-26.78-7.4-12.89a12,12,0,0,0-16.4-4.49,8.34,8.34,0,0,0-2.1,1.6l-51,46.46a12,12,0,0,0-.8,17,12.27,12.27,0,0,0,2.8,2.3l2.2,1.3L120,148v41.46a10,10,0,0,0,20,0V136.64l-26.3-15.79,28.2-28.77Z"/></svg>