<svg id="a59d1dc3-d906-4455-ae73-0d8d883a162c" data-name="Blue" xmlns="http://www.w3.org/2000/svg" viewBox="0 0 260 260"><path d="M154,122.3l9.4,18.2,42.7,17L215,130l-30-11L169.7,72.4S163,74.7,162,75a47,47,0,0,1-16.3.8A35.25,35.25,0,0,1,133,71.6c-1.8-1-8.4-6-8.4-6l-38,19.3L54,124.5l22.4,17.2,23.7-32c.4-.7,16-8.9,16-8.9l-11.9,49.3,42.5,47.4L164.4,250h40.2l-24.3-60.6-31.7-44,5.4-23.1Z"/><path d="M149.6,64.1a27.05,27.05,0,1,0-26.9-27.2v.2A27,27,0,0,0,149.6,64.1Z"/><polygon points="123.5 194 124.5 191.7 122.8 189.8 103.3 169 99.2 164.6 97 170.2 83.3 206.1 84 205 50.5 243.6 45 250 83.7 250 84.8 248.8 111.4 220.8 111.8 220.3 112.1 219.7 123.5 194"/></svg>