<svg id="e6042129-b84e-44cc-b0db-ab08ebe891af" data-name="Blue" xmlns="http://www.w3.org/2000/svg" viewBox="0 0 260 260"><defs><style>.e38f37fd-0847-4838-9ea5-53c4fae78c14{fill-rule:evenodd;}</style></defs><path class="e38f37fd-0847-4838-9ea5-53c4fae78c14" d="M210,20v-.2a9.82,9.82,0,0,0-9.8-9.8H60a9.82,9.82,0,0,0-10,9.6V180L30,200v30l20-20,20-20L190,70l20-20,20-20V0ZM70,160V30H190V40Z"/><path class="e38f37fd-0847-4838-9ea5-53c4fae78c14" d="M190,210H80.2L50,240.2A10.06,10.06,0,0,0,60,250H200a10.2,10.2,0,0,0,10-10.2V80l-20,20Zm-60,29.8a10,10,0,1,1,10-10A10,10,0,0,1,130,239.8Z"/></svg>