<svg id="f4ebc5fb-1ecb-4bf9-9e79-c2d3becd1c00" data-name="Blue" xmlns="http://www.w3.org/2000/svg" viewBox="0 0 260 260"><path d="M198,105.54c-5.25,0-10.5-1.05-15.75-1.05-43.05,0-78.75,35.91-78.75,79.21,0,15.84,6.3,32.74,17.85,50.69L114,241.78H103.5V231.22H93L82.5,241.78H72V231.22H61.5L51,241.78H40.5c-6.3,0-10.5-4.22-10.5-10.56V30.56C30,24.22,34.2,20,40.5,20h21V30.56H72L82.5,20H93V30.56h10.5L114,20h10.5V30.56H135L145.5,20H156V30.56h10.5L177,20h10.5c6.3,0,10.5,4.22,10.5,10.56ZM61.5,115.05v21.12H93l21-21.12Zm0-42.24V93.93h63l21-21.12ZM188.55,257.62c-4.2,3.17-9.45,3.17-12.6,0-34.65-26.4-51.45-50.69-51.45-73.92,0-31.69,26.25-58.09,57.75-58.09S240,152,240,183.7C240,206.93,223.2,231.22,188.55,257.62Zm-6.3-47.52A26.41,26.41,0,1,0,156,183.7,26.07,26.07,0,0,0,182.25,210.1Z"/></svg>