<svg id="e19e8c78-e599-4dc2-af92-c9f058846872" data-name="Blue" xmlns="http://www.w3.org/2000/svg" viewBox="0 0 260 260"><path d="M249.21,243,184.16,113c-2-4-5-4-7,0L111.09,243c-2,4,0,7,5,7H245.21C249.21,250,251.22,247,249.21,243Zm-74.06-13V210h-20V190h20V170l30,30Z"/><path d="M141.12,140H50V58a6,6,0,0,1,6-5H184.16a6,6,0,0,1,6,5V84l20,40V110h9a11,11,0,0,0,11-11V81a11,11,0,0,0-11-11h-9V20a10,10,0,0,0-10-10H40A10,10,0,0,0,30,20h0V70H21A11,11,0,0,0,10,81h0V99a11,11,0,0,0,11,11h9v80a10,10,0,0,0,10,10h0v21a9,9,0,0,0,9,9h16a9,9,0,0,0,9-9h0V200h37ZM68.05,176a13.4,13.4,0,0,1-6,6c-14,6-27-7-20-20a13.4,13.4,0,0,1,6-6A15,15,0,0,1,68.05,176Z"/></svg>