<svg id="affdeedd-b1e6-4f62-b874-ad369fbdfdfc" data-name="Blue" xmlns="http://www.w3.org/2000/svg" viewBox="0 0 260 260"><path d="M130.1,71c-19.9,0-32.3,16.3-32.3,43.1s12.5,43.8,32.3,43.8,32-17,32-43.8S149.8,71,130.1,71Z"/><path d="M228,20H32A12,12,0,0,0,20,32V228a12,12,0,0,0,12,12H228a12,12,0,0,0,12-12V32A12,12,0,0,0,228,20ZM169.4,190h10.9l-4.1,22.3H156.3c-26,0-41.3-14.4-42-33.9-24.7-5.7-44.5-27.3-44.5-64.4,0-45,29.4-66.4,60.4-66.4,30.8,0,60.2,21.5,60.2,66.4,0,38.6-21.6,60.2-47.6,65.1C146.2,189.5,156.4,190,169.4,190Z"/></svg>