<svg id="bdf456e6-54e1-4437-abfb-8918e351934d" data-name="Blue" xmlns="http://www.w3.org/2000/svg" viewBox="0 0 260 260"><path d="M56.15,74.62A92.29,92.29,0,0,1,217,99.08l27.51-5A120,120,0,0,0,36.4,54.86L19.23,37.69,10,102.31l64.62-9.23Z"/><path d="M185.38,166.92l18.47,18.46a92.29,92.29,0,0,1-160.8-24.46l-27.51,5A120,120,0,0,0,223.6,205.14l17.17,17.17L250,157.69Z"/><path d="M130.55,100.28a29.53,29.53,0,0,1,21,8.67l8.4-8.4a41.6,41.6,0,0,0-70.8,26.31V127c-.09,1-.09,1.94-.09,3a41.51,41.51,0,0,0,70.89,29.35l-8.4-8.4a29.61,29.61,0,0,1-46.62-6.18h19.76l11.9-11.91H101a29.4,29.4,0,0,1-.19-3,27.62,27.62,0,0,1,.19-3h23.63L136.55,115H104.89A29.8,29.8,0,0,1,130.55,100.28Z"/></svg>