<svg id="f5b49e9c-7e2d-427c-9edc-7b89d1fbb87f" data-name="Blue" xmlns="http://www.w3.org/2000/svg" viewBox="0 0 260 260"><defs><style>.a3200252-c3aa-47c0-859d-2a2ef520ea9a{fill-rule:evenodd;}</style></defs><path class="a3200252-c3aa-47c0-859d-2a2ef520ea9a" d="M250,97.5V46.8a6.56,6.56,0,0,0-6.5-6.8H90V80H70V40H16.52A6.68,6.68,0,0,0,10,46.8V97.4c17,0,31.6,14.6,31.6,32.6S27,162.7,10,162.7v50.6a6.59,6.59,0,0,0,6.5,6.7H70V180H90v40h153.5a6.51,6.51,0,0,0,6.5-6.6V162.7c-17.5,0-31.6-14.6-31.6-32.6S232.52,97.5,250,97.5ZM90,150H70V108H90Z"/></svg>