<svg id="bd628c73-5ed3-415b-bbd7-48bb12f266e6" data-name="Blue" xmlns="http://www.w3.org/2000/svg" viewBox="0 0 260 260"><path d="M228.1,19.9H32.1a12,12,0,0,0-12,12v196a12,12,0,0,0,12,12h196a12,12,0,0,0,12-12V31.9A12,12,0,0,0,228.1,19.9Zm-8,200H40.1V39.9h180Z"/><path d="M133.2,156.3h-11V120.9h-.1a93.66,93.66,0,0,1-2.9,11.6l-7.8,23.8H101.3l-7.7-23.8a85.54,85.54,0,0,1-3-12.1h-.2v35.9H80.3V104.5H95.4L107,142.6h.1l10.8-38.1h15.4v51.8Z"/><path d="M140.3,156.3v-1.1c0-7.5,1.8-14.8,15.5-23.5,8.1-5.1,11.2-7.1,11.2-12.3,0-3.8-2.4-6.3-6.8-6.3-4.1,0-8.5,2.7-11.6,7.6l-7.6-6.2c4.3-6.7,10.4-10.8,19.5-10.8,11.1,0,17.5,5.9,17.5,15.1,0,5.7-1.5,10.8-11.5,17.2-7.5,4.8-12.5,8.6-12.7,11.7h23.7l1.7,8.9H140.3Z"/></svg>