<svg id="b74bddea-7557-4869-84f7-2e8a4e1d9755" data-name="Blue" xmlns="http://www.w3.org/2000/svg" viewBox="0 0 260 260"><path d="M108,52A76.9,76.9,0,0,0,90,70a60,60,0,0,0,0,120,76.9,76.9,0,0,0,18,18,110.19,110.19,0,0,1-18,2A80,80,0,0,1,90,50,110.19,110.19,0,0,1,108,52ZM90,130a80,80,0,1,1,80,80A80.24,80.24,0,0,1,90,130Zm87,53V169c11-2,18-10,18-23,0-12-6-18-22-24-11-5-13-7-13-12s3-8,11-8a30,30,0,0,1,18,6l2-14a33.13,33.13,0,0,0-15-4V83l-13-7V90c-10,2-17,10-17,21,0,12,6,17,21,23,11,5,14,7,14,13s-5,10-11,10a41,41,0,0,1-22-7l-2,14c5,3,11,4,18,5v7Z"/></svg>