<svg id="f4c93580-93ac-4312-8d78-f743c135e041" data-name="Blue" xmlns="http://www.w3.org/2000/svg" viewBox="0 0 260 260"><defs><style>.bf4591ae-24b1-415e-b28d-ca1765ef7767{fill-rule:evenodd;}</style></defs><g id="a7f06a00-5114-406e-99db-c4d3eab20538" data-name="ac30a9cb-3d0e-4ec4-9682-4ba894509694"><path class="bf4591ae-24b1-415e-b28d-ca1765ef7767" d="M190,20c-30.2,0-55.2,23.9-59.4,55h-1.3C125.2,43.9,100.2,20,70,20,36.9,20,10,48.7,10,84.2v9.2c0,17,6.48,34.06,16.43,50.17L70,100l50,50,50-50L150,80h60v60l-20-20-70,70L70,140,43.34,166.66C78.85,208.75,130,240,130,240S250,166.7,250,93.3V84.2C250,48.8,223.1,20,190,20Z"/></g></svg>