<svg id="a843bf6a-5a08-4213-a021-8def434fb4ed" data-name="Blue" xmlns="http://www.w3.org/2000/svg" viewBox="0 0 260 260"><defs><style>.ba8e3332-7847-4b36-b221-c92c4c9bfc33{fill-rule:evenodd;}</style></defs><path class="ba8e3332-7847-4b36-b221-c92c4c9bfc33" d="M80,200h50l-30-80h20L75.5,13.54a6,6,0,0,0-7.9-3,6.27,6.27,0,0,0-3,3L20,120H40L10,200H60v30H30L10,250H250V230H80Z"/><path class="ba8e3332-7847-4b36-b221-c92c4c9bfc33" d="M210,160h40l-30-60h20L205.3,13.14a6,6,0,0,0-8.1-2.39,7,7,0,0,0-2.4,2.39L160,100h20l-30,60h40v30H160l-20,20H250V190H210Z"/></svg>