<svg id="bf56e16d-ec44-4d9c-9d11-efdbf9e29b07" data-name="Blue" xmlns="http://www.w3.org/2000/svg" viewBox="0 0 260 260"><defs><style>.a15a3541-223c-42a4-8d4c-4fa69b12e32e{fill-rule:evenodd;}</style></defs><path class="a15a3541-223c-42a4-8d4c-4fa69b12e32e" d="M247.48,99.06,160.91,12.57a8.75,8.75,0,0,0-12.39,0h0L130.12,31a89.24,89.24,0,0,1,14.42,10.26l10.08-10.08,74.18,74.19L117.63,216.54,43.46,142.35l61.87-61.89A36.18,36.18,0,0,0,87,74L12.57,148.55a8.75,8.75,0,0,0,0,12.39h0L99,247.43a8.75,8.75,0,0,0,12.39,0h0l136-136a8.76,8.76,0,0,0,.09-12.39ZM74.72,198.31a9.22,9.22,0,1,1,0-13h0a9.22,9.22,0,0,1,0,13Z"/><path class="a15a3541-223c-42a4-8d4c-4fa69b12e32e" d="M144.08,67.51A73.54,73.54,0,0,0,41.33,51.14,74.35,74.35,0,0,0,28,63.63L40.87,77a54.94,54.94,0,0,1,77.31-10A58.27,58.27,0,0,1,130,79.54L115.13,92.3l42.92,12.31v-49Z"/></svg>