<svg id="f99a57cf-49ee-4344-8025-38149a0068b9" data-name="Blue" xmlns="http://www.w3.org/2000/svg" viewBox="0 0 260 260"><defs><style>.ad26aa2e-fbbb-4907-ab6a-b08fda837a33{fill-rule:evenodd;}</style></defs><path class="ad26aa2e-fbbb-4907-ab6a-b08fda837a33" d="M30,120a20.06,20.06,0,0,0,20-20H10A20.06,20.06,0,0,0,30,120Z"/><path class="ad26aa2e-fbbb-4907-ab6a-b08fda837a33" d="M70,120a20.06,20.06,0,0,0,20-20H50A20.06,20.06,0,0,0,70,120Z"/><path class="ad26aa2e-fbbb-4907-ab6a-b08fda837a33" d="M110,120a20.06,20.06,0,0,0,20-20H90A20.06,20.06,0,0,0,110,120Z"/><path class="ad26aa2e-fbbb-4907-ab6a-b08fda837a33" d="M150,120a20.06,20.06,0,0,0,20-20H130A20.06,20.06,0,0,0,150,120Z"/><path class="ad26aa2e-fbbb-4907-ab6a-b08fda837a33" d="M190,120a20.06,20.06,0,0,0,20-20H170A20.06,20.06,0,0,0,190,120Z"/><path class="ad26aa2e-fbbb-4907-ab6a-b08fda837a33" d="M210,100a20,20,0,0,0,40,0Z"/><polygon class="ad26aa2e-fbbb-4907-ab6a-b08fda837a33" points="210 30 50 30 10 90 250 90 210 30"/><path class="ad26aa2e-fbbb-4907-ab6a-b08fda837a33" d="M209.7,189.9H49.7V130H30v94a6,6,0,0,0,6,6H224a6,6,0,0,0,6-6V130H209.8v59.9Z"/><polygon class="ad26aa2e-fbbb-4907-ab6a-b08fda837a33" points="70 169.9 149.8 169.9 169.8 150.2 70 150.2 70 169.9"/></svg>