<svg id="a519a007-af17-4593-b5d8-dfe05be917d7" data-name="Blue" xmlns="http://www.w3.org/2000/svg" viewBox="0 0 260 260"><path d="M71.65,170.09l12.51,27.4a73.43,73.43,0,0,1,101.58,0L198.25,170a94.42,94.42,0,0,0-126.6.1Z"/><path d="M135,208.57a52.19,52.19,0,0,0-38.23,16.52L103.53,240h62.94l6.76-14.91A52.19,52.19,0,0,0,135,208.57Z"/><path d="M135,20A198.37,198.37,0,0,0,20,56.47L32.41,83.86a178.58,178.58,0,0,1,205.18,0L250,56.47A198.37,198.37,0,0,0,135,20Z"/><path d="M45.72,113.08l12.41,27.3a125.93,125.93,0,0,1,153.64,0L224.18,113a147,147,0,0,0-178.46.1Z"/></svg>