<svg id="a3026ad8-7b33-4de5-a797-c27acecbbae7" data-name="Blue" xmlns="http://www.w3.org/2000/svg" viewBox="0 0 260 260"><path d="M50,30A10,10,0,0,1,60,20h90l60,60V230c0,6-4,10-10,10H60c-6,0-10-4-10-10ZM80,157c16,0,25-8,25-23,0-16-9-23-25-23H65v46Zm-3-10V121h3c9,0,12,4,12,13,0,10-3,13-12,13Zm52,11c13,0,22-9,22-24s-9-24-22-24-22,9-22,24S117,158,129,158Zm0-10c-6,0-10-5-10-14s4-14,10-14,10,5,10,14S135,148,129,148Zm47,10c10,0,16-5,19-13l-1-1-8-4-1,1c-2,5-5,7-9,7-6,0-10-5-10-14s3-14,9-14q6,0,9,6h1l8-4v-1c-3-7-9-11-18-11-12,0-21,9-21,24S163,158,176,158Z"/></svg>