<svg id="a4a3fa6c-fd42-47a0-8250-663be78845de" data-name="Blue" xmlns="http://www.w3.org/2000/svg" viewBox="0 0 260 260"><path d="M176.7,114.7h-5.5v35.4h5.7c12.1,0,16.6-5.4,16.6-18C193.5,120.2,188.9,114.7,176.7,114.7Z"/><path d="M160.2,10H52A12,12,0,0,0,40,22V242a8,8,0,0,0,8,8H212a8,8,0,0,0,8-8V70ZM100.5,160H88.3V136.3H66.5V160H54.3V104.5H66.5V126H88.3V104.5h12.2Zm30.1-19.8h-7.9V160H110.6V104.5h20.2c11.8,0,22.6,3.1,22.6,17.8C153.3,137.2,141.7,140.2,130.6,140.2ZM176.1,160h-17V104.5h17c16.9,0,29.7,7.2,29.7,27.4C205.7,152.8,192.8,160,176.1,160Z"/><path d="M131,114.5h-8.3v16.3H131c7.6,0,10.4-2.9,10.4-8.2S138.7,114.5,131,114.5Z"/></svg>