<svg id="ba89c3d1-56d1-4ef4-acdd-e63f80d1b415" data-name="Blue" xmlns="http://www.w3.org/2000/svg" viewBox="0 0 260 260"><path d="M190.78,144.1c.3-4.6.5-9.3.5-14.1,0-66.2-32.12-110-87.94-110C47.71,20,15,63.8,15,130s32.71,110,88.24,110c40.62,0,68.63-23.1,80.93-61.1a31,31,0,0,1-2.7-13.2A29.66,29.66,0,0,1,190.78,144.1Zm-87.54,59.5c-26.61,0-41.82-25.2-41.82-73.6s14.31-72.8,41.82-72.8c26.61,0,41.82,24.3,41.82,72.8S130.45,203.6,103.24,203.6Z"/><path d="M222,177.1c-12.11-5-14.71-7.2-14.71-12.1,0-5.2,4.2-8.3,11.81-8.3a29.51,29.51,0,0,1,16.4,5.2l1.71,1.2,1.2.8.2-1.3.3-1.9,1.8-10.3.1-.8.1-.5-.5-.3-1-.4A37.16,37.16,0,0,0,226,144.3v-7.4l-13.81-6.8h-.8v14.5c-11.9,2.4-19.9,10.3-19.9,21.3,0,11.2,5.4,16.7,23.11,23.9,12.3,5,14.9,7.3,14.9,13.2s-4.8,9.6-12.9,9.6a41.12,41.12,0,0,1-20.91-6.2l-1.7-1-1.1-.7-.2,1.2-.3,1.8-1.7,10.6-.1.8-.1.5.5.3.8.4a56.49,56.49,0,0,0,19.6,5v7.6l14.11,6.8h.5V224.3c11.91-2.9,19-11.1,19-22.1C245.1,190.2,239.8,184.4,222,177.1Z"/></svg>