<svg id="ab233720-2c13-4ac6-8e7e-056ef6d8455b" data-name="Blue" xmlns="http://www.w3.org/2000/svg" viewBox="0 0 260 260"><defs><style>.beeddef2-b7fe-4e2b-9cdb-0297b87ff634{fill-rule:evenodd;}</style></defs><path class="beeddef2-b7fe-4e2b-9cdb-0297b87ff634" d="M85,195.25v-20h19.7a87.73,87.73,0,0,1,60.3-69V95.17h20v7.31c2-.1,4-.2,6-.2a87.8,87.8,0,0,1,34,6.8V33.72c0-5.4-3.5-8.7-9-8.7H195V5H175V25H55V5H35V25H16c-5.6,0-11,3.2-11,8.7V214.07c0,5.4,5.5,11.21,11,11.21h94.8a86.44,86.44,0,0,1-7.2-30Zm20-40H85v-20h20Zm0-40H85v-20h20Zm40,0H125v-20h20Zm-110-60H196l-20,20H35ZM65,195.25H45v-20H65Zm0-40H45v-20H65Z"/><path class="beeddef2-b7fe-4e2b-9cdb-0297b87ff634" d="M190,124.9a65.05,65.05,0,1,0,65,65A65,65,0,0,0,190,124.9Zm9.9,98.67-7.7-7.7,20.3-20.22-65.8.2,10.8-10.71h55.2L192,164.23l7.7-7.81,33.6,33.73Z"/></svg>