<svg id="a6085b8f-2d94-49c1-9a43-18a26ee4ab57" data-name="Blue" xmlns="http://www.w3.org/2000/svg" viewBox="0 0 260 260"><path d="M250,150.26c-.12,11-9.42,19.77-20.46,19.77H160a69.63,69.63,0,0,1,10,36,71.66,71.66,0,0,1-4.92,25.84A12.86,12.86,0,0,1,153,240a13.05,13.05,0,0,1-13-12.57,70,70,0,0,0-64.38-67.21,6,6,0,0,1-5.58-6V142.78h0V57.23a12,12,0,0,1,6.09-10.45A130.51,130.51,0,0,1,140,30h59.49c11,0,20.28,8.6,20.52,19.56a20,20,0,0,1-5.59,14.28A20,20,0,0,1,230,83.36h0a20,20,0,0,1-5.58,13.84A20,20,0,0,1,240,116.7h0a20,20,0,0,1-5.58,13.84A20,20,0,0,1,250,150.26Z"/><path d="M45.17,160H14.79c-2.64,0-4.79-2.68-4.79-6V56c0-3.31,2.15-6,4.79-6H45.17c2.65,0,4.8,2.69,4.8,6v98C50,157.32,47.82,160,45.17,160Z"/></svg>