<svg id="b993f597-d174-43a5-ac1c-8a19db3d9ed5" data-name="Blue" xmlns="http://www.w3.org/2000/svg" viewBox="0 0 260 260"><path d="M90,216l11,24h58l10-24A58.85,58.85,0,0,0,90,216Z"/><path d="M250,20H220L157,83l-27.6,27.6h0l-35.6,35.6h0L82.3,157.7,30,210H60l27-27a79,79,0,0,1,94,5.9l12-29a109.43,109.43,0,0,0-63.1-19.79l26.6-26.6a131.24,131.24,0,0,1,47.5,20.4l12-28a159.27,159.27,0,0,0-35.1-16.8L204,66a185.69,185.69,0,0,1,24,12.9l12-28c-4.4-2.7-8.8-5.1-13.3-7.5Z"/><path d="M157.7,52.31l25.5-25.5A211.54,211.54,0,0,0,20,50.81l12,28A181.9,181.9,0,0,1,157.7,52.31Z"/><path d="M55,133.91a129.94,129.94,0,0,1,39.6-18.5l34.7-34.7a160.76,160.76,0,0,0-86.4,25.2Z"/></svg>