<svg id="a1044c54-b278-46da-9c28-94e8f4e08cc8" data-name="Blue" xmlns="http://www.w3.org/2000/svg" viewBox="0 0 260 260"><path d="M100,20h10V30h10l10-10h10V30h10l10-10h10V30h10l10-10h10c6,0,10,4,10,10V230c0,6-4,10-10,10H180V230H170l-10,10H150V230H140l-10,10H120V230H110l-10,10H90V230H80L70,240H60c-6,0-10-4-10-10V30c0-6,4-10,10-10H80V30H90Zm40,92H100a38.64,38.64,0,0,1,33-18,42.68,42.68,0,0,1,27,10l11-10c-11-8-24-14-38-14-28,0-51,20-53,46h0v4c0,28,24,50,53,50a52.06,52.06,0,0,0,37-15l-11-10a40.63,40.63,0,0,1-27,10,38.64,38.64,0,0,1-33-18h25l15-14H95v-8h30Z"/></svg>