<svg id="b3c4ebb2-5d6a-4a80-961e-72775b5f5adf" data-name="Blue" xmlns="http://www.w3.org/2000/svg" viewBox="0 0 260 260"><defs><style>.f85f36a7-70c3-4d4a-a50a-969d3387d4e3{fill-rule:evenodd;}</style></defs><g id="a1566de2-ff3a-4309-adc9-c2cff3426bd2" data-name="Communication-and-Multimedia/Digital-handwriting"><path id="bac97098-f60c-4a68-b8ae-d16057ac712a" data-name="Digital-handwriting" class="f85f36a7-70c3-4d4a-a50a-969d3387d4e3" d="M96,57.8A38,38,0,0,1,58,95.7a17.87,17.87,0,0,0-17.91,17.8v16.7H20V113.5A38,38,0,0,1,58,75.6,17.88,17.88,0,0,0,75.85,57.8,37.92,37.92,0,0,1,113,20a34.6,34.6,0,0,0-3.36,15v5.56A17.74,17.74,0,0,0,96,57.8ZM144.66,20a15,15,0,0,1,15.07,15V91.7a12,12,0,0,0,7.83,11.2l64.7,24.2A11.68,11.68,0,0,1,240,138.3v48.4a12.31,12.31,0,0,1-1.71,6.2l-24.92,41.3A12.13,12.13,0,0,1,203,240H156.91a49.4,49.4,0,0,1-42-23.2L71,149.3a12.82,12.82,0,0,1,5.32-18A13.27,13.27,0,0,1,82.1,130a12.71,12.71,0,0,1,8.51,3.23l27.42,22a6.63,6.63,0,0,0,11.56-4.4V35a15,15,0,0,1,15.07-15Z"/></g></svg>