<svg id="bd1c7882-ba60-4145-9624-8ffff814092a" data-name="Blue" xmlns="http://www.w3.org/2000/svg" viewBox="0 0 260 260"><defs><style>.aee4a854-7f87-4f72-addc-82f3cf4a005d{fill-rule:evenodd;}</style></defs><g id="a12bb3e8-0d51-49bd-a39c-d70eb65755e1" data-name="Save-Stock"><path id="e113f51e-47eb-4f73-8922-dd8b130f98e3" data-name="Combined-Shape" class="aee4a854-7f87-4f72-addc-82f3cf4a005d" d="M110,160l70-70,50,50v80a10,10,0,0,1-10,10H40a10,10,0,0,1-10-10V160l40-40Zm0-40L70,80,30,120V40A10,10,0,0,1,40,30H220a10,10,0,0,1,10,10v60L180,50Zm60,90,40-30-40-30v20H140l-20,20h50Z"/></g></svg>