<svg id="e8e1ead0-7770-49c2-89b0-2454b100f11e" data-name="Blue" xmlns="http://www.w3.org/2000/svg" viewBox="0 0 260 260"><path d="M214.9,129.55a65.27,65.27,0,0,1,18.3,2.6,11.24,11.24,0,0,0,6.7-10.31V110.93A10.93,10.93,0,0,0,229,100H217.6L197.8,31.75a3,3,0,0,0-2.8-2.1H45.6a3,3,0,0,0-2.8,2.1L22.1,100H10.9A10.93,10.93,0,0,0,0,110.93v10.91a11.19,11.19,0,0,0,10.9,11.21H20v86.68a10.93,10.93,0,0,0,10.9,10.91H43.5A10.59,10.59,0,0,0,54,219.73v-9.21h97.9a66.72,66.72,0,0,1-1.9-15.61A65.07,65.07,0,0,1,214.9,129.55ZM55,160.28a15.12,15.12,0,1,1,15-15.12A15,15,0,0,1,55,160.28ZM45,99.92,60,49.67H180l15,50.25Z"/><path d="M241.1,176.89,229.9,192l-15-31.43-5-10.31-5,10.31L189.9,192l-11.2-15.12a38.47,38.47,0,0,0,6.3,54.85,88.24,88.24,0,0,1,15-21.32s13.3,13.42,18.2,29.23a31.66,31.66,0,0,0,4.4-1.2A40.34,40.34,0,0,0,250,201,41.45,41.45,0,0,0,241.1,176.89Z"/></svg>