<svg id="a6ce2f17-953f-43f5-b459-207356012d72" data-name="Blue" xmlns="http://www.w3.org/2000/svg" viewBox="0 0 260 260"><path d="M224,170.19l-23.71-150A12,12,0,0,0,188.35,10H150a10,10,0,0,0-10,10,7.57,7.57,0,0,0,.1,1.5A10.14,10.14,0,0,0,150.34,30h31.11l12.7,80.39-50,89.5h-45a60,60,0,0,0-89-42.1l5,8.7a50,50,0,0,1,68.23,18.6,52,52,0,0,1,5.6,14.8H78.81a40.26,40.26,0,1,0-.1,20.09h70.13a12,12,0,0,0,10.5-6.2l39.82-71.69,4.9,31.2a40,40,0,1,0,19.91-3.1ZM40,230A20,20,0,1,1,57.4,200H40a10,10,0,1,0,0,20H57.3A20,20,0,0,1,40,230Zm180.07,0a20,20,0,0,1-12.6-35.49l2.7,17.09a10,10,0,0,0,19.91-1.6,12.25,12.25,0,0,0-.2-1.9l-2.7-16.79a20,20,0,0,1,11.4,25.89A19.61,19.61,0,0,1,220.06,230Z"/></svg>