<svg id="be257987-2009-4b6e-b281-0ce6e9fba727" data-name="Blue" xmlns="http://www.w3.org/2000/svg" viewBox="0 0 260 260"><defs><style>.e48cfa9e-3afe-408d-bfa9-52f36c60e791{fill-rule:evenodd;}</style></defs><polygon class="e48cfa9e-3afe-408d-bfa9-52f36c60e791" points="115.2 149.5 156.6 128 115.2 106.4 115.2 149.5"/><path class="e48cfa9e-3afe-408d-bfa9-52f36c60e791" d="M130,10A120,120,0,1,0,250,130h0A120,120,0,0,0,130,10Zm77.2,125.4a187,187,0,0,1-2,24.8s-1.7,10.6-6.3,15.2c-5.8,6.1-12.5,6.1-15.5,6.5-21.4,1.6-53.7,1.6-53.7,1.6s-39.9-.4-52.1-1.5c-3.4-.6-11.1-.4-16.9-6.6-4.6-4.6-5-15.2-5-15.2s-.5-12.4-.5-24.8V123.8c0-12.4.4-24.8.4-24.8s1-10.6,5.6-15.2a23.8,23.8,0,0,1,15.1-7.5c21.4-1.7,53.3-2.7,53.3-2.7h.1s32.2,1,53.6,2.6c3,.4,9.5.9,15.4,7,4.6,4.7,6.6,15.5,6.6,15.5a191.55,191.55,0,0,1,2,25.1v11.6Z"/></svg>