<svg id="ff202443-5363-44ed-b9d1-9e0ee5eeb9dc" data-name="Blue" xmlns="http://www.w3.org/2000/svg" viewBox="0 0 260 260"><defs><style>.b1e8b07d-1fe1-4c7c-8164-b741998548c3{fill-rule:evenodd;}</style></defs><path class="b1e8b07d-1fe1-4c7c-8164-b741998548c3" d="M240,40V10L220.83,29.17A56.63,56.63,0,0,0,190,20c-30.2,0-55.2,23.9-59.4,55h-1.3C125.2,43.9,100.2,20,70,20,36.9,20,10,48.7,10,84.2v9.2c0,33.67,25.32,67.34,52.7,93.9L30,220v30l48.37-48.37,158-158.06Z"/><path class="b1e8b07d-1fe1-4c7c-8164-b741998548c3" d="M246.71,63.28,94.84,215.16A416.42,416.42,0,0,0,130,240S250,166.7,250,93.3V84.2A68.17,68.17,0,0,0,246.71,63.28Z"/></svg>