<svg id="a20f945d-9030-4044-a9c8-3726c6f5695b" data-name="Blue" xmlns="http://www.w3.org/2000/svg" viewBox="0 0 260 260"><defs><style>.b9e1c71e-5cb0-48d5-8a3e-62a91b6bb3de{fill-rule:evenodd;}</style></defs><path class="b9e1c71e-5cb0-48d5-8a3e-62a91b6bb3de" d="M178,108H82a12,12,0,0,0-12,12v30h50l-20,20H70v20h50l-20,20H70v34a6,6,0,0,0,6,6H184a6,6,0,0,0,6-6V120A12,12,0,0,0,178,108Z"/><path class="b9e1c71e-5cb0-48d5-8a3e-62a91b6bb3de" d="M90,90h80a10,10,0,0,0,0-20h-.2c-1.9-18.8-13.9-34.1-29.9-38.6A6.6,6.6,0,0,0,140,30V20a10,10,0,0,0-20,0V30a6.6,6.6,0,0,0,.1,1.4C104.2,36,92.1,51.2,90.2,70H90a10,10,0,0,0,0,20Z"/></svg>