<svg id="e10d2f27-710a-42b4-bbc8-df06f1a2db10" data-name="Blue" xmlns="http://www.w3.org/2000/svg" viewBox="0 0 260 260"><polygon points="76.84 58 47.91 30 19.98 30 61.87 72 76.84 58"/><polygon points="101.78 34 87.81 20 59.88 20 87.81 48 101.78 34"/><polygon points="51.9 84 37.93 70 10 70 37.93 98 51.9 84"/><path d="M245.42,135l-4-4a12,12,0,0,0-17,0h0l-6,6L148.66,66l6-6a12,12,0,0,0,0-17h0l-4-4a12,12,0,0,0-17,0h0L91.8,80l-3-3a6.06,6.06,0,0,0-8,0h0l-13,13a6.08,6.08,0,0,0,0,8h0l3,3L35.94,165l84.79,85,63.84-35,3,3a6.07,6.07,0,0,0,8,0h0l13-13a6.08,6.08,0,0,0,0-8h0l-3-3,40.9-41a12.12,12.12,0,0,0,.2-17C246.22,135.7,245.82,135.3,245.42,135ZM113.75,87a10,10,0,1,1,.1,14.1l-.1-.1h0A10,10,0,0,1,113.75,87ZM86.81,118l56.86,57H116.74v14H87.81L61.87,163Zm34.92,106-24-25h28.93V185h26.94l13,13Zm75.81-52a10,10,0,1,1-.1-14.1l.1.1h0A10,10,0,0,1,197.54,172Z"/></svg>