<svg id="e00912a1-6aba-4652-b545-be8c914127fc" data-name="Blue" xmlns="http://www.w3.org/2000/svg" viewBox="0 0 260 260"><path d="M202,160h16a12,12,0,0,1,12,12v66a12,12,0,0,1-12,12H202a12,12,0,0,1-12-12V172A12,12,0,0,1,202,160Z"/><path d="M42,160H58a12,12,0,0,1,12,12v66a12,12,0,0,1-12,12H42a12,12,0,0,1-12-12V172A12,12,0,0,1,42,160Z"/><path d="M50,40h50V20H50a10,10,0,0,0,0,20Z"/><path d="M220,30a10,10,0,0,0-10-10H160V40h50A10,10,0,0,0,220,30Z"/><path d="M150,150H140V50a12,12,0,0,0,10-12V22a12,12,0,0,0-12-12H122a12,12,0,0,0-12,12V38a12,12,0,0,0,10,12V150H110v60H80v20H180V210H150Z"/></svg>