<svg id="aa6c1db7-e5e9-45f2-93dc-3ee69185f3b9" data-name="Blue" xmlns="http://www.w3.org/2000/svg" viewBox="0 0 260 260"><path d="M130,151.5V114.8a36.7,36.7,0,1,0,26,10.8Z"/><path d="M160,74V89a25.61,25.61,0,0,1-4.6,14.7,55,55,0,1,1-74.2,23.4A54.26,54.26,0,0,1,89.8,115H41a139.86,139.86,0,0,0-21,37.5S47.5,235,130,235s110-82.5,110-82.5S219.3,90.5,160,74Z"/><path d="M96.2,46.3H90V57.6h6.2c5.3,0,7.8-1.5,7.8-5.7S101.5,46.3,96.2,46.3Z"/><path d="M134,25H26a6,6,0,0,0-6,6V89a6,6,0,0,0,6,6H134a6,6,0,0,0,6-6V31A6,6,0,0,0,134,25ZM62.5,81H53.8l-14-41.1,8.8-1.3L58.3,69h.1l9.8-29.7h8.6Zm42.6.5L95.5,65.1H90.2V80.8h-9V39.2H96.8c10.2,0,16.3,3.7,16.3,12.9,0,6.6-3.1,10.2-8.7,11.9l9.4,16.2Z"/></svg>