<svg id="a916d796-bd88-4aa7-ae02-ef1c22f21919" data-name="Blue" xmlns="http://www.w3.org/2000/svg" viewBox="0 0 260 260"><path d="M173.1,132.6c-6.7,0-9.3,7.1-9.3,18.9,0,12.2,2.7,19.3,9.4,19.3s9.2-7.4,9.2-19.3S179.6,132.6,173.1,132.6Z"/><path d="M88,94.5c-6.8,0-9.4,7.1-9.4,18.9,0,12.2,2.7,19.4,9.4,19.4s9.2-7.4,9.2-19.3S94.4,94.5,88,94.5Z"/><path d="M130,10A120,120,0,1,0,250,130,120,120,0,0,0,130,10ZM60.5,113.6C60.5,93.4,71,80.4,88,80.4s27.2,13,27.2,33S105,146.7,88,146.7C70.8,146.7,60.5,133.6,60.5,113.6Zm49.2,69.8H90.8L151.3,82h18.9Zm63.4,1.4c-17.1,0-27.4-13.3-27.4-33.1,0-20.1,10.5-33.3,27.5-33.3s27.2,13.1,27.2,33.1-10.2,33.3-27.3,33.3Z"/></svg>