<svg id="f3d7204e-527c-4351-ae09-2525fc7f1f79" data-name="Blue" xmlns="http://www.w3.org/2000/svg" viewBox="0 0 260 260"><path d="M87.1,135.17l-20,20.58,13.68,14.1A40.82,40.82,0,0,1,28.5,130c0-22.85,18.37-41.47,41-41.47a40.87,40.87,0,0,1,34.34,18.72c7-7.1,14.48-14.61,20.27-20.47A69.32,69.32,0,0,0,69.53,60.05C31.3,60.05.25,91.33.25,130s31.05,70,69.28,70A68.77,68.77,0,0,0,124,173.14c-1.6-1.64-3.4-3.39-5.1-5.14Z"/><path d="M239.53,80.53a68.31,68.31,0,0,0-97.63,0C129.33,93.29,93.09,130,93.09,130s34.44,34.88,48.81,49.49a68.48,68.48,0,0,0,97.63,0A70.69,70.69,0,0,0,239.53,80.53Zm-48.11,91c-22.56,0-40.83-18.53-40.83-41.47s18.27-41.47,40.83-41.47,40.83,18.52,40.83,41.47S214,171.5,191.42,171.5Z"/></svg>