<svg id="a22c7c24-814f-46e6-8f8a-ef0e5072db25" data-name="Blue" xmlns="http://www.w3.org/2000/svg" viewBox="0 0 260 260"><defs><style>.ab56d8b1-1b0c-4abe-8550-35467ff84dc2{fill-rule:evenodd;}</style></defs><path class="ab56d8b1-1b0c-4abe-8550-35467ff84dc2" d="M220,243.7V70L160,10V73h50.6l-20,17H140V10H46.6A6.53,6.53,0,0,0,40,16.3V243.7a6.6,6.6,0,0,0,6.6,6.3H213.8a6.21,6.21,0,0,0,6.2-6.1ZM100,140a20,20,0,1,1-20,20A20.06,20.06,0,0,1,100,140Zm40,90H60v-4.2A36.72,36.72,0,0,1,87.5,190a27.15,27.15,0,0,0,25.1,0,36.72,36.72,0,0,1,27.5,35.8V230Z"/></svg>