<svg id="ad3d2608-0f6d-4548-9d8b-eacdc6c02a4b" data-name="Blue" xmlns="http://www.w3.org/2000/svg" viewBox="0 0 260 260"><defs><style>.aab7de53-5de1-4839-8de4-bcc67199c84c{fill-rule:evenodd;}</style></defs><ellipse cx="44.9" cy="109.5" rx="24.9" ry="34.2"/><path class="aab7de53-5de1-4839-8de4-bcc67199c84c" d="M94.1,88.3C107.8,88.3,119,73,119,54.1S107.8,20,94.1,20,69.2,35.3,69.2,54.2,80.4,88.3,94.1,88.3Z"/><path class="aab7de53-5de1-4839-8de4-bcc67199c84c" d="M215.1,143.6c13.7,0,24.9-15.3,24.9-34.2s-11.1-34.2-24.9-34.2-24.9,15.3-24.9,34.2,11.2,34.2,24.9,34.2Z"/><path class="aab7de53-5de1-4839-8de4-bcc67199c84c" d="M164.9,88.3c13.7,0,24.9-15.3,24.9-34.2S178.6,20,164.9,20,140,35.3,140,54.2s11.1,34.1,24.9,34.1Z"/><path class="aab7de53-5de1-4839-8de4-bcc67199c84c" d="M129.9,229.6c46,0,83.2,31.3,83.2-14.7s-37.2-104.5-83.2-104.5S46.7,168.9,46.7,214.9s37.2,14.7,83.2,14.7Z"/></svg>