<svg id="a785691e-8194-4ee0-8ce7-fd701c852c74" data-name="Blue" xmlns="http://www.w3.org/2000/svg" viewBox="0 0 260 260"><defs><style>.f26091a2-2783-4507-a856-ab6e9800fa27{fill-rule:evenodd;}</style></defs><path class="f26091a2-2783-4507-a856-ab6e9800fa27" d="M130,10A120,120,0,1,0,250,130h0A120,120,0,0,0,130,10ZM105,185.69a55.69,55.69,0,1,1,37.62-96.83l-16.45,16.06A32.74,32.74,0,1,0,105,162.61c14,0,26-8.23,30.6-21.27H104.31V118.26H159.5a56.78,56.78,0,0,1,1.2,11.64A55.71,55.71,0,0,1,105,185.69Zm100.63-51.28v19.07h-14V134.41H171.54v-14h20.07V100.3h14v20.07h19.07v14Z"/></svg>