<svg id="e2de2496-ce5c-4f75-bbf2-823225b3ee6a" data-name="Blue" xmlns="http://www.w3.org/2000/svg" viewBox="0 0 260 260"><path d="M130,30A100,100,0,1,0,230,130,100,100,0,0,0,130,30Zm45.6,144.1a6.17,6.17,0,0,1-7.8,2.4c-.6-.3-1.1-.6-1.7-.9a92.73,92.73,0,0,0-34.1-12,120.4,120.4,0,0,0-22.5-1.2,164.67,164.67,0,0,0-28.8,3.8,14.46,14.46,0,0,1-2.9.4,6,6,0,0,1-5.9-4.9,6.08,6.08,0,0,1,3.7-6.9,12.09,12.09,0,0,1,1.8-.5,170.39,170.39,0,0,1,23.6-3.7c4.4-.4,8.9-.5,13.3-.8a123,123,0,0,1,38.5,6.1,100.25,100.25,0,0,1,19.7,9,14,14,0,0,1,1.6,1A6.47,6.47,0,0,1,175.6,174.1Zm12.2-27.2a7.73,7.73,0,0,1-10.6,2.6c-2.2-1.2-4.3-2.5-6.5-3.6a119.7,119.7,0,0,0-31.9-10.6,142.44,142.44,0,0,0-26.4-2.4,122,122,0,0,0-34.6,4.9,8.29,8.29,0,0,1-5.6-.1,7.68,7.68,0,0,1-4.8-7.3,7.5,7.5,0,0,1,5.3-7.1c3.2-1,6.5-1.8,9.8-2.6a145.19,145.19,0,0,1,24.6-3.1,149.71,149.71,0,0,1,52.3,7.1,123.25,123.25,0,0,1,24.6,11c.4.2.8.5,1.2.7A7.67,7.67,0,0,1,187.8,146.9Zm1.2-28.3a109,109,0,0,0-13.3-6.5,138,138,0,0,0-28.3-7.8,172.91,172.91,0,0,0-20.3-2.4,189.19,189.19,0,0,0-21.3-.1,152.43,152.43,0,0,0-24.2,3c-2.9.6-5.8,1.4-8.8,2.2a9.55,9.55,0,0,1-5.3,0,9.21,9.21,0,0,1-6.7-8.7A9,9,0,0,1,67,89.4a83.75,83.75,0,0,1,8.6-2.3,143.91,143.91,0,0,1,21.7-3.3,201.51,201.51,0,0,1,23.3-.7,187.13,187.13,0,0,1,56.1,9.6,117,117,0,0,1,21.3,9.7,9.64,9.64,0,0,1,4.7,6.1c.1.7.2,1.3.3,2A9.31,9.31,0,0,1,189,118.6Z"/></svg>