<svg id="a7611668-eecc-400d-830c-4c60e11d2b2f" data-name="Blue" xmlns="http://www.w3.org/2000/svg" viewBox="0 0 260 260"><g id="bab7f9e9-108a-4f22-884c-66269321d34b" data-name="icons"><path d="M180.37,178.75v-3.86c0-14.94-11.42-27-25.3-27-12.64,0-23.35,10-24.93,23.21l-.29.27-.42-.27c-1.75-13-12.29-23.21-24.93-23.21-13.88,0-25.3,12.14-25.3,27v3.86c0,30.94,50.58,61.88,50.58,61.88S180.37,209.69,180.37,178.75Z"/><ellipse cx="129.78" cy="50.03" rx="40.06" ry="40.03"/><path d="M240,175.44c0-38.13-27.05-68.69-65.19-83.39A60.94,60.94,0,0,1,92.2,99a60,60,0,0,1-7.45-6.89C46.62,106.78,20,137.93,20,176c0,29,15.47,56.38,39.67,73.8L83,226.48c-15.85-15.93-23.88-29.56-23.88-45.73v-3.86c0-26,20.34-47.06,45.34-47.06,9.23,0,19.17,3.71,25.28,11.74,6.66-7,15.95-11.74,25.29-11.74,25,0,45.34,21.13,45.34,47.06v3.86c0,16.23-8.08,29.89-24,45.89L199.74,250C224.12,232.52,240,204.55,240,175.44Z"/></g></svg>