<svg id="f7f7bff0-219e-4f3c-824b-9a559068bcfb" data-name="Blue" xmlns="http://www.w3.org/2000/svg" viewBox="0 0 260 260"><path d="M223.8,140.16H220v-50h40l-16.7-33.4a11.87,11.87,0,0,0-10.7-6.6H220L101.6,10.76h-.1a10.3,10.3,0,0,0-3.5-.6H62a12.07,12.07,0,0,0-8.3,3.3h0l-.3.4L13.6,53.66a12,12,0,0,0-3.6,8.5v28H50v140H16a6,6,0,0,0-6,6v14H150v-14a6,6,0,0,0-6-6H110v-140h80v50h-3.8a6,6,0,0,0-6,6,6.22,6.22,0,0,0,2.1,4.6L200,166v14.2a10,10,0,1,1-10,10,10.33,10.33,0,0,1,2.9-7.1l-7.1-7.1a20,20,0,1,0,28.3,0,21.49,21.49,0,0,0-4.1-3.2v-7l17.7-15.2a6,6,0,0,0,.6-8.5A6.81,6.81,0,0,0,223.8,140.16Zm-35.8-90H109.9V23.56Zm-138,0H31l18.9-18.9v18.9Zm40,140H70v-20H90Zm0-40H70v-20H90Zm-20,80v-20H90v20Zm20-120H70v-20H90Zm110,30v-50h10v50Z"/></svg>