<svg id="b2700551-6888-461a-84d2-fa7d36f5abc1" data-name="Blue" xmlns="http://www.w3.org/2000/svg" viewBox="0 0 260 260"><path d="M44,179a59.09,59.09,0,0,0,0-79L20,111a48.26,48.26,0,0,1,10,29,48.26,48.26,0,0,1-10,29Z"/><path d="M233,87l-25,25a181.86,181.86,0,0,1-26,126l28,12A212.09,212.09,0,0,0,233,87Z"/><path d="M177,113l25-25,24-24,14-14V20l-23.4,23.4c-2.4-4.6-4.9-9-7.6-13.4L181,42a186,186,0,0,1,12.9,24.1L171,89a159.83,159.83,0,0,0-17.1-35.9l-28,12a131.46,131.46,0,0,1,20.49,48.5L120,140a109.09,109.09,0,0,0-20-63L71,89a79,79,0,0,1,5.8,94.2L40,220v30l51-51,23-23,35-35Z"/><path d="M126,214l28,12a160.93,160.93,0,0,0,25-85l-35,35A130.05,130.05,0,0,1,126,214Z"/></svg>