<svg id="b8708642-4891-4703-9027-2b64b5a60ba6" data-name="Blue" xmlns="http://www.w3.org/2000/svg" viewBox="0 0 260 260"><path d="M70.69,140.47h9.18l45,106a5.83,5.83,0,0,0,7.59,3.1,5.73,5.73,0,0,0,3.1-3.2l44-105.89h10.09l5-20.5h-129Z"/><path d="M124.32,50.48a49.3,49.3,0,0,1,33.25-15.7,40,40,0,0,0-77,14.2,49.83,49.83,0,0,1,43.75,1.5Z"/><path d="M140.1,94.67a40.05,40.05,0,1,0-80.1,0,39.12,39.12,0,0,0,3,15.1h74.2A40.57,40.57,0,0,0,140.1,94.67Z"/><path d="M150.08,94.67a51.68,51.68,0,0,1-2.3,15.1h43.55a40,40,0,0,0-59.22-53.6A50.13,50.13,0,0,1,150.08,94.67Z"/></svg>