<svg id="b1e2301a-715f-4ee0-85ac-638f9b876eb1" data-name="Blue" xmlns="http://www.w3.org/2000/svg" viewBox="0 0 260 260"><polygon points="240 130 260 110 130 0 0 110 20 130 130 40 240 130"/><path d="M98,170.1A75.13,75.13,0,0,1,173.1,95h.6L130,60,30,140v80a9.94,9.94,0,0,0,9.9,10h87.9A74.93,74.93,0,0,1,98,170.1Z"/><path d="M233.3,170.1a60.33,60.33,0,1,0-24.9,48.6l38.2,38.2L260,243.5l-38.2-38.2A59.08,59.08,0,0,0,233.3,170.1Zm-33.4,0a26.69,26.69,0,0,0-26.7-26.7V130a40.1,40.1,0,0,1,40.1,40.1Z"/></svg>