<svg id="aab0a11c-9b69-45f2-94fe-b8c59c71b094" data-name="Blue" xmlns="http://www.w3.org/2000/svg" viewBox="0 0 260 260"><path d="M231.47,124.79c-.91.59-1.71,1.18-2.62,1.78V41.41c0-11.84-9-21.41-20.21-21.41H51.48c-11.17,0-20.22,9.57-20.22,21.41v85.16c-.9-.6-1.81-1.19-2.71-1.88-6.74-4.64-11.06,1.68-6.94,7.6,8.05,9.57,23.23,21.51,46.46,31-24.64,82.4,60.13,95.52,58.92,53.29,0-.79,0-24.57.1-41.54,2.21.49,4.12,1,5.93,1.48,0,17.46.11,40.85.11,40.06-1.31,42.23,83.56,29.11,58.82-53.29,23.33-9.37,38.51-21.31,46.46-30.88C242.53,126.47,238.1,120.15,231.47,124.79Zm-83.76,21c-10.36-.5-14.18,3.85-14.79,10.56a83.34,83.34,0,0,1-7.64-6.22,13.15,13.15,0,0,0-1.2-1.09c-2.32-2.36-6-3.65-11.87-3.35-13.88.39-39.32,3.16-69-12.14V51.08c0-15,3.92-19.63,17.9-19.63H200.3c13.17,0,17.89,5.62,17.89,19.63V133C187.93,149,161.88,146.2,147.71,145.81Z"/><ellipse cx="162.69" cy="110.88" rx="26.24" ry="24.37"/><ellipse cx="100.65" cy="110.88" rx="26.24" ry="24.37"/></svg>