<svg id="f5b7a469-1438-4b4f-a4cb-03e87f771380" data-name="Blue" xmlns="http://www.w3.org/2000/svg" viewBox="0 0 260 260"><path d="M116.2,147.1A64.8,64.8,0,0,1,99.9,124H86.7A50.44,50.44,0,0,0,116.2,147.1Z"/><path d="M125,74V56.6A54.89,54.89,0,0,0,111,74Z"/><path d="M95,99a69,69,0,0,1,1.7-15H82.3a49.55,49.55,0,0,0,0,30H96.7A69,69,0,0,1,95,99Z"/><path d="M116.2,50.9A50.65,50.65,0,0,0,86.6,74H99.9A66.07,66.07,0,0,1,116.2,50.9Z"/><path d="M155,99a54.34,54.34,0,0,0-2.1-15H135v30h17.9A54.34,54.34,0,0,0,155,99Z"/><path d="M125,141.4V124H111A54.89,54.89,0,0,0,125,141.4Z"/><path d="M105,99a54.24,54.24,0,0,0,2,15h18V84H107A54.24,54.24,0,0,0,105,99Z"/><path d="M149,124H135v17.4A54.89,54.89,0,0,0,149,124Z"/><path d="M143.7,147.1A50.35,50.35,0,0,0,173.3,124H160A66.07,66.07,0,0,1,143.7,147.1Z"/><path d="M165,99a62.83,62.83,0,0,1-1.8,15h14.4a49.55,49.55,0,0,0,0-30H163.1A58.2,58.2,0,0,1,165,99Z"/><path d="M214,10H46a6,6,0,0,0-6,6V244a6,6,0,0,0,6,6H214a6,6,0,0,0,6-6V16A6,6,0,0,0,214,10ZM130,39A60,60,0,1,1,70,99,60,60,0,0,1,130,39ZM70,204.3H63.7v15.8H53.9V175.7H70c9.5,0,18.1,2.5,18.1,14.2.1,12-9.3,14.4-18.1,14.4Zm47.3,16.5-3.5-10.6H98.5l-3.4,9.9h-9l15.7-44.6h9.3l15.5,43.9Zm30.5.2a28.06,28.06,0,0,1-19.5-8l5.1-6.5c3.2,3.4,9,6.7,14,6.7,4.7,0,8-1.7,8-5.1s-3.2-4.8-9-6.4c-7.9-2.2-16.2-4.3-16.2-13.6,0-8.3,6.6-13.3,16-13.3a28.48,28.48,0,0,1,17.2,6.4l-4.5,7c-3.2-2.8-8.2-5.4-12.4-5.4s-6.7,1.8-6.7,4.4c0,3.5,3.3,4.8,9.1,6.4,7.8,2.1,16.1,4.6,16.1,13.7,0,7.3-5.5,13.7-17.2,13.7Zm40.9,0a28.06,28.06,0,0,1-19.5-8l5.1-6.5c3.2,3.4,9,6.7,14,6.7,4.7,0,8-1.7,8-5.1s-3.2-4.8-9-6.4c-7.9-2.2-16.2-4.3-16.2-13.6,0-8.3,6.6-13.3,16-13.3a28.48,28.48,0,0,1,17.2,6.4l-4.5,7c-3.2-2.8-8.2-5.4-12.4-5.4s-6.7,1.8-6.7,4.4c0,3.5,3.3,4.8,9.1,6.4,7.8,2.1,16.1,4.6,16.1,13.7,0,7.3-5.5,13.7-17.2,13.7Z"/><path d="M160,74h13.3a50.35,50.35,0,0,0-29.6-23.1A64.8,64.8,0,0,1,160,74Z"/><path d="M147.9,72a56.83,56.83,0,0,0-13-15.5V74h14A18.65,18.65,0,0,0,147.9,72Z"/><path d="M70.3,183.7H63.6v13.1h6.7c6.1,0,8.3-2.3,8.3-6.6S76.4,183.7,70.3,183.7Z"/><polygon points="106.2 188 100.9 203.1 111.4 203.1 106.3 188 106.2 188"/></svg>