<svg id="bf75ed9c-d7e7-45b3-b1aa-a6cb4d37da2f" data-name="Blue" xmlns="http://www.w3.org/2000/svg" viewBox="0 0 260 260"><defs><style>.f84b574d-a2f3-4a9c-a689-079781dc6469{fill-rule:evenodd;}</style></defs><path class="f84b574d-a2f3-4a9c-a689-079781dc6469" d="M170.1,140l-.3,110h29.8L200,10c-44.6,0-50.4,40-50.4,40v90"/><polygon class="f84b574d-a2f3-4a9c-a689-079781dc6469" points="115 10 115 60 115 61.4 102 70 102 60 102 10 88 10 88 61.4 75 70 75 60 75 10 60 10 60 60 60 80 60 110 80 110 80 250 110 250 110 110 130 110 130 80 130 60 130 10 115 10"/></svg>