<svg id="ba1944d5-e945-4dea-a19b-ed4a63aed751" data-name="Blue" xmlns="http://www.w3.org/2000/svg" viewBox="0 0 260 260"><defs><style>.f8ed9f55-d9ca-4c3e-b482-64b63947619d{fill-rule:evenodd;}</style></defs><g id="b85ebe9e-26ea-4d20-adb0-95c7b8e6f78a" data-name="Ticket"><path id="f9a6a14a-1b8e-4d25-be2c-fcb8948c09c7" data-name="Combined-Shape" class="f8ed9f55-d9ca-4c3e-b482-64b63947619d" d="M100,20h10V30h10l10-10h10V30h10l10-10h10V30h10l10-10h10a10,10,0,0,1,10,10V230a10,10,0,0,1-10,10H180V230H170l-10,10H150V230H140l-10,10H120V230H110l-10,10H90V230H80L70,240H60a10,10,0,0,1-10-10V30A10,10,0,0,1,60,20H80V30H90ZM80,150v20h80l20-20Zm0-40v20h50l20-20Zm0-40V90h80l20-20Z"/></g></svg>