<svg id="ac54664a-7acd-41d8-a0e1-f616b4f5d61e" data-name="Blue" xmlns="http://www.w3.org/2000/svg" viewBox="0 0 260 260"><defs><style>.aaaea50f-0763-421c-9b0d-69dc4ca103ab{fill-rule:evenodd;}</style></defs><path class="aaaea50f-0763-421c-9b0d-69dc4ca103ab" d="M244,56H205.4l.1-30.3c0-3.2-3.3-5.7-6.4-5.7H111.5c-3.1,0-5.8,2-5.9,5H105V56H66a6,6,0,0,0-6,6V184a6,6,0,0,0,6,6H244a6,6,0,0,0,6-6V62A6,6,0,0,0,244,56ZM126,40h60V56H126Zm14.5,66H90V86h70.5Z"/><path class="aaaea50f-0763-421c-9b0d-69dc4ca103ab" d="M260,210H40V28.4A8.16,8.16,0,0,0,32.1,20H0V40H20V221.3a8.77,8.77,0,0,0,8.7,8.7H60a20,20,0,0,0,40,0h90a20,20,0,0,0,40,0h30Z"/></svg>