<svg id="b05e9f06-49a4-4d5c-beac-4ed4d6332619" data-name="Blue" xmlns="http://www.w3.org/2000/svg" viewBox="0 0 260 260"><polygon points="165 110 205 110 205 80 245 120 205 160 205 130 145 130 165 110"/><path d="M155,150v60.8H35V30.1H155V90h20V20a10,10,0,0,0-10-10H25A10,10,0,0,0,15,20V240a10,10,0,0,0,10,10H165a10,10,0,0,0,10-10V150ZM95,241a10,10,0,1,1,10-10A10,10,0,0,1,95,241Z"/><path d="M102,166a47.08,47.08,0,0,0,33-14l-9-9a33.12,33.12,0,0,1-46.7,1.3A32,32,0,0,1,73,136H95l13-13H68v-6H95l13-13H73a33,33,0,0,1,44.7-13.3A34.33,34.33,0,0,1,126,97l9-9a47,47,0,0,0-80,30h0v3A47,47,0,0,0,102,166Z"/></svg>