<svg id="f21e5f24-bda8-4819-8ea6-892a5e1d13a2" data-name="Blue" xmlns="http://www.w3.org/2000/svg" viewBox="0 0 260 260"><polygon points="150.3 180 170.3 180 147.9 123.7 130 130 150.3 180"/><path d="M97,15.8c42.4,5.5,78.5,35,93.5,78.2L230,80.2A104.56,104.56,0,0,0,97,15.8Z"/><path d="M96.5,16a104.57,104.57,0,0,0-64,133.2L72,135.4C56.9,92.2,66.8,46.7,96.5,16Z"/><path d="M96.8,15.9h-.1c-17,26.4-20,69.3-4.9,112.6l79-27.6C155.7,57.7,126.5,25.9,96.8,15.9Z"/><path d="M260,158.7c-11.7-11.7-28.3-10.4-40,1.3l-40,40H22a12,12,0,0,0-12,12v18H26.7L20,250H40l6.7-20H163.4l6.7,20h20l-6.7-20h1.7a12.2,12.2,0,0,0,8.6-3.6Z"/></svg>