<svg id="f460d977-8055-4444-bc97-28bb0a39206c" data-name="Blue" xmlns="http://www.w3.org/2000/svg" viewBox="0 0 260 260"><path d="M202.2,229.63c0-16.48,18.3-29.36,21.4-45.54,3.1,16.28,21.4,29.16,21.4,45.54,0,12.59-9.6,22.78-21.4,22.78S202.2,242.22,202.2,229.63Z"/><path d="M223,143.94l-4.4-5.4L144.5,48.75,110.5,7.5,91.8,23l27.9,33.86L18.5,140.24c-4.3,3.5-4.6,9-1.1,13.28l78.5,95.19c3.5,4.3,9.1,5.09,13.4,1.6l111.5-91.89C225.1,154.92,226.5,148.23,223,143.94ZM43,148.43l91.5-75.31,61.6,75.31Z"/></svg>