<svg id="f04aa26c-a812-4471-9235-86451cb807d1" data-name="Blue" xmlns="http://www.w3.org/2000/svg" viewBox="0 0 260 260"><polygon points="165.65 172 139.54 155 139.54 130 119.46 130 119.46 155 93.35 172 105.4 188 129.5 172 153.6 188 165.65 172"/><path d="M179.71,110a45,45,0,0,0-34.15-44,35.43,35.43,0,0,1-31.12,0,45,45,0,0,0-34.15,44v10h99.42Z"/><ellipse cx="129.5" cy="35" rx="25.1" ry="25"/><path d="M75.27,196a35.45,35.45,0,0,1-31.13,0A45,45,0,0,0,10,240v10h99.41V240A45,45,0,0,0,75.27,196Z"/><ellipse cx="59.21" cy="165" rx="25.1" ry="25"/><path d="M215.86,196a35.45,35.45,0,0,1-31.13,0,45,45,0,0,0-34.14,44v10H250V240A45,45,0,0,0,215.86,196Z"/><ellipse cx="199.79" cy="165" rx="25.1" ry="25"/></svg>