<svg id="b5a21f12-58f8-4901-b4dc-3c5c320ebc18" data-name="Blue" xmlns="http://www.w3.org/2000/svg" viewBox="0 0 260 260"><path d="M55,170a35,35,0,1,0,35,35,35,35,0,0,0-35-35Zm0,50a15,15,0,1,1,15-15,15,15,0,0,1-15,15Z"/><path d="M205,170a35,35,0,1,0,35,35,35,35,0,0,0-35-35Zm0,50a15,15,0,1,1,15-15,15,15,0,0,1-15,15Z"/><path d="M130,170a35,35,0,1,0,35,35,35,35,0,0,0-35-35Zm0,50a15,15,0,1,1,15-15,15,15,0,0,1-15,15Z"/><path d="M60,130h60v30h20V130h60v30h20V116a6,6,0,0,0-6-6H140V80h34a6,6,0,0,0,6-6V26a6,6,0,0,0-6-6H86a6,6,0,0,0-6,6V74a6,6,0,0,0,6,6h34v30H46a6,6,0,0,0-6,6v44H60Zm40-70V40h60L140,60Z"/></svg>