<svg id="e414878b-3f67-4ba7-b2f7-245d30df8c2d" data-name="Blue" xmlns="http://www.w3.org/2000/svg" viewBox="0 0 260 260"><path d="M231.69,186.13c-6.76-2.79-14.43-6-29.75-6-12.44,0-20.7,3-28,5.58a71.83,71.83,0,0,1-13.73,3.9V55.41a24.88,24.88,0,1,1,49.75,0h19.9a44.78,44.78,0,1,0-89.55-1h0v45.9H70.7V55.41c0-13.77,11.14-24.35,24.87-24.95,10.65-.4,17.71,6.09,22.19,10.48a78.79,78.79,0,0,1,8-19.16c-7.16-5-16.12-11.28-30.15-11.28A44.76,44.76,0,0,0,50.8,54.41h0V189.63a43,43,0,0,1-11-3.5c-6.76-2.79-14.43-6-29.75-6V200.1c11.34,0,16.32,2.1,22.09,4.5a59.6,59.6,0,0,0,26.07,5.48c12.44,0,20.7-3,28.06-5.58,6.27-2.2,11.74-4.2,19.9-4.4a47.53,47.53,0,0,1,20.4,4.5,59.6,59.6,0,0,0,26.07,5.48c12.43,0,20.69-3,28-5.58,6.56-2.4,12.34-4.4,21.29-4.4,11.34,0,16.32,2.1,22.09,4.5A59.6,59.6,0,0,0,250,210.08v-20C241.34,190.13,237.06,188.33,231.69,186.13Zm-91.34-65.86v20H70.7v-20Zm-32.74,60h0l-1.49-.1h-1.69v.1c-10.65.5-18.11,3.09-24.78,5.48-3,1.1-5.87,2.1-8.85,2.9V160.19h69.65v28.34c-2.09-.7-4.08-1.5-6.27-2.4A66.09,66.09,0,0,0,107.61,180.25Z"/><path d="M201.94,220.06c-12.44,0-20.7,3-28,5.59-6.57,2.4-12.34,4.39-21.29,4.39s-13.14-1.79-18.51-4a65.83,65.83,0,0,0-26.57-6h-3.18v.1c-10.65.5-18.11,3.1-24.78,5.49S67.31,230,58.26,230s-13.14-1.79-18.51-4c-6.76-2.79-14.43-6-29.75-6v20c11.34,0,16.32,2.1,22.09,4.49A59.44,59.44,0,0,0,58.16,250c12.44,0,20.7-3,28.06-5.59,6.27-2.19,11.74-4.19,19.9-4.39a47.7,47.7,0,0,1,20.4,4.49A59.44,59.44,0,0,0,152.59,250c12.43,0,20.69-3,28-5.59,6.56-2.39,12.34-4.39,21.29-4.39,11.34,0,16.32,2.1,22.09,4.49A59.44,59.44,0,0,0,250,250V230c-9,0-13.13-1.79-18.51-4C224.93,223.26,217.26,220.06,201.94,220.06Z"/></svg>