<svg id="a09d6a02-89f5-443a-a010-f33d05e61aae" data-name="Blue" xmlns="http://www.w3.org/2000/svg" viewBox="0 0 260 260"><defs><style>.b5e9c033-9773-47ce-9559-a9a54ef16394{fill-rule:evenodd;}</style></defs><path class="b5e9c033-9773-47ce-9559-a9a54ef16394" d="M130.05,10A120,120,0,0,0,29.71,195.9l-.5-.5L10,250l52.82-20.5-.1-.1A120,120,0,1,0,130.05,10Zm67.44,167.6c-2.91,8-15.81,13.8-23.22,16.2-6.7,1.9-16.6,1.5-41.31-8.5-35-13.7-57-49.2-58.73-51.5s-14-18.5-14-35.3,8.91-25,12-28.5a11.44,11.44,0,0,1,9.2-4.3H87c2.51,0,5.91-.8,8.81,6s9.8,23.6,10.6,25.3a6.38,6.38,0,0,1,.3,6,23.26,23.26,0,0,1-3.4,5.7c-1.7,2-3.6,4.4-5.2,6s-3.5,3.5-1.5,7a103.33,103.33,0,0,0,19.11,23.6c13.1,11.6,24.21,15.2,27.61,16.9s5.4,1.4,7.4-.9,8.61-10,10.91-13.4,4.6-2.8,7.7-1.7,20.11,9.4,23.51,11.1,5.71,2.6,6.61,4S200.29,169.6,197.49,177.6Z"/></svg>