<svg id="a430064d-916a-42c5-9d59-4ce843cbcf73" data-name="Blue" xmlns="http://www.w3.org/2000/svg" viewBox="0 0 260 260"><path d="M120,10v90c0,50,20,90,70,90s70-40,70-90V10Zm35,30a15,15,0,1,1-15,15A15,15,0,0,1,155,40Zm35,120a50,50,0,0,1-50-50h20a30,30,0,0,0,60,0h20a50,50,0,0,1-50,50Zm35-90a15,15,0,1,1,15-15,15,15,0,0,1-15,15Z"/><path d="M119.8,175.1c-13-18.7-19.8-44.7-19.8-75.1V80H0v90c0,50,20,90,70,90,41.6,0,62.4-27.7,68.2-65.8A81.46,81.46,0,0,1,119.8,175.1ZM35,110a15,15,0,1,1-15,15,15,15,0,0,1,15-15Zm65,110a30,30,0,0,0-60,0H20a50,50,0,0,1,100,0Z"/></svg>