<svg id="fa953999-e448-41c9-be46-d3f8199012f9" data-name="Blue" xmlns="http://www.w3.org/2000/svg" viewBox="0 0 260 260"><path d="M90,190A60,60,0,0,1,90,70a76.9,76.9,0,0,1,18-18,110.19,110.19,0,0,0-18-2,80,80,0,0,0,0,160,110.19,110.19,0,0,0,18-2A76.9,76.9,0,0,1,90,190Z"/><path d="M170,50a80,80,0,1,0,80,80A80.24,80.24,0,0,0,170,50Zm7,66-12,11H142v6h35l-12,11H145c5,9,15,14,25,14,8,0,15-3,21-8l8,8a42.53,42.53,0,0,1-29,12c-23,0-41-18-41-40v-3h0c3-21,20-37,42-37,11,0,22,4,29,12l-8,8c-5-5-13-8-21-8a29.44,29.44,0,0,0-25,14Z"/></svg>