<svg id="b4e5519a-e260-408a-bd18-64b76df991a1" data-name="Blue" xmlns="http://www.w3.org/2000/svg" viewBox="0 0 260 260"><defs><style>.b3fe22bf-10b8-4c86-b3e1-fedabf8dd1f2{fill-rule:evenodd;}</style></defs><path class="b3fe22bf-10b8-4c86-b3e1-fedabf8dd1f2" d="M240,60H190V30a10,10,0,0,0-10-10H80A10,10,0,0,0,70,30V60H20a9.94,9.94,0,0,0-10,9.9V230.1A9.94,9.94,0,0,0,20,240H240a9.94,9.94,0,0,0,10-9.9V69.92A9.94,9.94,0,0,0,240,60ZM90,40h80V60H90Zm90,127.06H147v33H113v-33H80v-34h33V100h34v33h33Z"/></svg>