<svg id="e3b731f7-8b88-472d-81f3-fe4b8f47b411" data-name="Blue" xmlns="http://www.w3.org/2000/svg" viewBox="0 0 260 260"><defs><style>.b051c5dc-1de4-4f41-8f2e-a1f29f6e6a63{fill-rule:evenodd;}</style></defs><path class="b051c5dc-1de4-4f41-8f2e-a1f29f6e6a63" d="M254,60.92a6,6,0,0,0,6-6V46a6,6,0,0,0-6-6H40.5V26a6,6,0,0,0-6-6H26a6,6,0,0,0-6,6V40H6a6,6,0,0,0-6,6v8.91a6,6,0,0,0,6,6H20V240H40.5V60.92Z"/><path class="b051c5dc-1de4-4f41-8f2e-a1f29f6e6a63" d="M59.9,75.93V193.78a6,6,0,0,0,6,6H254a6,6,0,0,0,6-6V75.93ZM140,160H80V140h80Zm40-40H80v-20H200Z"/></svg>