<svg id="ba2e704c-196c-47c0-8b36-fa19fda488e1" data-name="Blue" xmlns="http://www.w3.org/2000/svg" viewBox="0 0 260 260"><defs><style>.ac09011c-aea0-4f18-91fd-d0c0ebc384d1{fill-rule:evenodd;}</style></defs><path class="ac09011c-aea0-4f18-91fd-d0c0ebc384d1" d="M130,10A120,120,0,1,0,250,130,120,120,0,0,0,130,10Zm65,110.1c0,39.7-65,79.4-65,79.4s-65-39.7-65-79.4v-5C65,96,79.6,80.4,97.5,80.4c16.4,0,29.9,12.9,32.2,29.8h.7c2.2-16.8,15.8-29.8,32.2-29.8,17.9,0,32.5,15.6,32.5,34.8C195,116.9,195,118.5,195,120.1Z"/></svg>