<svg id="f2dcfdd0-5f72-4cfd-b5e2-b8ce6db52747" data-name="Blue" xmlns="http://www.w3.org/2000/svg" viewBox="0 0 260 260"><path d="M130,10A120,120,0,1,0,250,130,120,120,0,0,0,130,10ZM230,130a99.83,99.83,0,0,1-19.5,59.3L170,148.8V120H141.2L70.7,49.5A99.94,99.94,0,0,1,230,130ZM30,130A99.83,99.83,0,0,1,49.5,70.7L189.3,210.5A99.94,99.94,0,0,1,30,130Z"/><rect x="180" y="120" width="30" height="30"/><polygon points="50 120 50 150 114.7 150 84.7 120 50 120"/><polygon points="190 80 180 70 180 110 190 110 190 80"/><polygon points="210 100 200 90 200 110 210 110 210 100"/></svg>