<svg id="f6262755-9524-4304-9800-1a8c5eb1b46b" data-name="Blue" xmlns="http://www.w3.org/2000/svg" viewBox="0 0 260 260"><path d="M90,10H22A12,12,0,0,0,10,22V90H30V36a6,6,0,0,1,6-6H90Z"/><path d="M250,90V22a12,12,0,0,0-12-12H170V30h54a6,6,0,0,1,6,6V90Z"/><path d="M170,250h68a12,12,0,0,0,12-12V170H230v54a6,6,0,0,1-6,6H170Z"/><path d="M10,170v68a12,12,0,0,0,12,12H90V230H36a6,6,0,0,1-6-6V170Z"/><path d="M200,130a70,70,0,1,0-70,70h0A70,70,0,0,0,200,130Zm-45-30a10,10,0,1,1-10,10A10,10,0,0,1,155,100Zm-50,0a10,10,0,1,1-10,10A10,10,0,0,1,105,100Zm65,46a42,42,0,0,1-80,0,3.94,3.94,0,0,1,2.8-4.9c.1,0,.2,0,.2-.1h73a4,4,0,0,1,4.1,3.9A4.1,4.1,0,0,1,170,146Z"/></svg>