<svg id="a03ba185-9ff2-4747-ad13-0b2935546719" data-name="Blue" xmlns="http://www.w3.org/2000/svg" viewBox="0 0 260 260"><path d="M110,178v2a20.06,20.06,0,0,0,20,20h1c11-1,19-9,19-20v-3l30-37-9-10-38,30h-3a20.46,20.46,0,0,0-20,18ZM55,230c-22-20-35-48-35-80a110,110,0,0,1,220,0c0,32-13,60-35,80Zm8-20H94a71,71,0,0,1-34-60,69.57,69.57,0,0,1,70-70c23,0,44,11,56,29l15-14A89.84,89.84,0,0,0,40,150,91.25,91.25,0,0,0,63,210Zm147-60c6,0,10-4,10-10s-4-10-10-10-10,4-10,10S204,150,210,150Zm-10,50c6,0,10-4,10-10s-4-10-10-10-10,4-10,10S194,200,200,200Z"/></svg>