<svg id="a9664d8a-2c2c-494f-b863-77ab057a3a4d" data-name="Blue" xmlns="http://www.w3.org/2000/svg" viewBox="0 0 260 260"><circle cx="65" cy="194.83" r="25"/><circle cx="195" cy="194.83" r="25"/><path d="M248,96.75,213.6,45.13a12.08,12.08,0,0,0-10-5.3H172a12,12,0,0,0-12,12v68L83.69,43.51A12,12,0,0,0,75.2,40H30V79.83a10,10,0,0,1-10,10H10v20H20a30,30,0,0,0,30-30V61.08l50,68.75H22a12,12,0,0,0-12,12v38H27.92a40,40,0,0,1,74.16,0h55.84a40,40,0,0,1,74.16,0H244a6,6,0,0,0,6-6V103.45A12.26,12.26,0,0,0,248,96.75Zm-68,3.08v-40h20l26.7,40Z"/></svg>