<svg id="a3063b5c-a17c-472a-9c48-b2e5fae2c989" data-name="Blue" xmlns="http://www.w3.org/2000/svg" viewBox="0 0 260 260"><defs><style>.ba75c1a6-43d9-426b-9e80-3475a1f6ad48{fill-rule:evenodd;}</style></defs><polygon class="ba75c1a6-43d9-426b-9e80-3475a1f6ad48" points="79.87 80 79.87 40 40 40 40 80 79.87 80"/><polygon class="ba75c1a6-43d9-426b-9e80-3475a1f6ad48" points="150.23 80 150.23 40 110.36 40 110.36 80 150.23 80"/><polygon class="ba75c1a6-43d9-426b-9e80-3475a1f6ad48" points="220 80 220 40 180.13 40 180.13 80 220 80"/><polygon class="ba75c1a6-43d9-426b-9e80-3475a1f6ad48" points="150.23 150 150.23 110 110.36 110 110.36 150 150.23 150"/><polygon class="ba75c1a6-43d9-426b-9e80-3475a1f6ad48" points="220 150 220 110 180.13 110 180.13 150 220 150"/><polygon class="ba75c1a6-43d9-426b-9e80-3475a1f6ad48" points="79.87 220 79.87 180 40 180 40 220 79.87 220"/><polygon class="ba75c1a6-43d9-426b-9e80-3475a1f6ad48" points="150.23 220 150.23 180 110.36 180 110.36 220 150.23 220"/><polygon class="ba75c1a6-43d9-426b-9e80-3475a1f6ad48" points="79.87 150 79.87 110 40 110 40 150 79.87 150"/><polygon class="ba75c1a6-43d9-426b-9e80-3475a1f6ad48" points="220 220 220 180 180.13 180 180.13 220 220 220"/></svg>