<svg id="bf68f154-c7b3-47fd-b267-ad97852d3996" data-name="Blue" xmlns="http://www.w3.org/2000/svg" viewBox="0 0 260 260"><g id="be8e0da8-39a6-4699-bbb2-795b6bee57be" data-name="App-Store"><path id="b48a1114-3600-4014-9417-df73e7634cd1" data-name="icon-apple-store" d="M175.94,16.09a54.22,54.22,0,0,1-4.18,19.68,58.39,58.39,0,0,1-13.34,19.77c-5.17,5.2-10.35,8.59-15.53,10.39a78.36,78.36,0,0,1-14.83,2.4c.2-14.19,3.88-26.57,11.15-37S158.42,13.9,175.15,10a15.47,15.47,0,0,1,.69,3.2c0,1.09.1,2,.1,2.89m-43.8,58c4.18,0,11.05-1.6,20.61-4.89s17.72-4.9,24.79-4.9a52.73,52.73,0,0,1,30.66,9.29A75,75,0,0,1,223.13,88.1c-7.47,6.39-12.94,12-16.43,17a50.76,50.76,0,0,0-9.35,29.76,54.87,54.87,0,0,0,10,32.16c6.67,9.59,14.24,15.58,22.7,18.08-3.58,11.49-9.46,23.57-17.62,36.06-12.44,18.77-24.69,28.26-36.93,28.26-4.88,0-11.55-1.6-20.11-4.59s-15.73-4.6-21.61-4.6-12.74,1.6-20.5,4.9S99.09,250,94.21,250c-14.63,0-29.07-12.48-43.1-37.35C37,188.08,30,163.91,30,140.24c0-22,5.38-39.95,16.13-53.74S70.52,65.73,86.94,65.73c7,0,15.43,1.4,25.39,4.39,10,2.6,16.53,4,19.81,4"/></g></svg>