<svg id="b276c39c-1d99-409f-b135-546a5c2c6cdf" data-name="Blue" xmlns="http://www.w3.org/2000/svg" viewBox="0 0 260 260"><defs><style>.e2ff8aa2-9282-4b2a-9a47-2fa7b489c885{fill-rule:evenodd;}</style></defs><path class="e2ff8aa2-9282-4b2a-9a47-2fa7b489c885" d="M247.6,86.72s-2.4-16.71-9.5-24C229,53.1,218.69,53,214.09,52.5c-33.62-2.5-84-2.5-84-2.5H130s-50.42,0-84,2.5c-4.7.5-15,.5-24,10.21-7.2,7.3-9.5,24-9.5,24A365.26,365.26,0,0,0,10,125.84v18.32a365.26,365.26,0,0,0,2.4,39.12s2.3,16.71,9.5,24C31,216.9,43,216.6,48.42,217.6c19.2,1.8,81.63,2.4,81.63,2.4s50.42-.1,84-2.5c4.7-.6,14.9-.6,24-10.21,7.2-7.3,9.5-24,9.5-24a365.26,365.26,0,0,0,2.4-39.12V125.84A365.26,365.26,0,0,0,247.6,86.72ZM105.14,166.47v-68l64.93,34.12Z"/></svg>