<svg id="ad040509-053c-42ee-94cb-2dd6b69bb3db" data-name="Blue" xmlns="http://www.w3.org/2000/svg" viewBox="0 0 260 260"><path d="M195,119.84a65.08,65.08,0,1,0,65,65.08,65,65,0,0,0-65-65.08Zm7,96.22V228h-.8l-10.2-5.3v-5.91A32.69,32.69,0,0,1,177.7,213l-.4-.3-.3-.2.1-.4.1-.6,1.2-8.11.2-1.4.1-.9.8.5,1.2.8a27.71,27.71,0,0,0,14.4,4.71c5.5,0,8.9-2.81,8.9-7.41s-1.8-6.31-10.2-10.12c-12.2-5.6-16.2-9.81-16.2-18.32s5.5-14.52,13.5-16.32v-11h1.1l9.9,5.1v5.71a22,22,0,0,1,9,3.1l.5.31.3.2-.1.4-.1.6-1.3,7.91-.2,1.5-.2,1-.8-.6-1.2-.9a19.11,19.11,0,0,0-11.3-4c-5.2,0-8.1,2.41-8.1,6.31,0,3.71,1.9,5.41,10.2,9.21,12.3,5.61,16.1,10,16.1,19.13C214.9,207.55,210,213.75,202,216.06Z"/><path d="M188.7,100l-.9-4.7,45-45.06a23.59,23.59,0,0,0,0-33.34h0a23.52,23.52,0,0,0-33.3,0h0L154.5,62,29.5,37.83a11.36,11.36,0,0,0-10.2,3.11l-9.1,9.11,97.6,58.57L62.1,154.38,10,155.78a11,11,0,0,0-5.8,3.11L0,163.19l58.6,28.14L86.7,250l4.3-4.21a11,11,0,0,0,3.1-5.8l1.5-52.17L111,172.4A85.14,85.14,0,0,1,188.7,100Z"/></svg>