<svg id="b514206a-a546-49bf-9a68-dc8ba190e9c7" data-name="Blue" xmlns="http://www.w3.org/2000/svg" viewBox="0 0 260 260"><path d="M30,130A98.29,98.29,0,0,1,43.4,79.8,99.29,99.29,0,0,1,79.8,43.4,98.29,98.29,0,0,1,130,30a98.29,98.29,0,0,1,50.2,13.4,99.29,99.29,0,0,1,36.4,36.4A98.29,98.29,0,0,1,230,130a98.29,98.29,0,0,1-13.4,50.2,99.29,99.29,0,0,1-36.4,36.4A98.29,98.29,0,0,1,130,230a98.29,98.29,0,0,1-50.2-13.4,99.29,99.29,0,0,1-36.4-36.4A98.29,98.29,0,0,1,30,130Zm16.6,0q0,31.2,21,55C74,172.5,84.1,160.5,98,149.2s27.4-18.5,40.6-21.4c-2-4.7-3.9-8.9-5.8-12.6q-34.35,11-74.4,11c-5.2,0-9.1-.1-11.6-.2a15.56,15.56,0,0,1-.1,2A15.56,15.56,0,0,0,46.6,130Zm2.6-20.6c2.9.3,7.3.4,13,.4a219.33,219.33,0,0,0,63.4-9c-10.1-18-21.3-33-33.4-45A80.39,80.39,0,0,0,65.1,78,86.41,86.41,0,0,0,49.2,109.4ZM79,195.8a81.73,81.73,0,0,0,80.4,12,296.89,296.89,0,0,0-15.6-66.2c-12.3,2.7-24.6,9.4-37.1,20.2S85,183.9,79,195.8ZM109.6,49.4c11.7,12.1,22.6,27.3,32.6,45.4q27.15-11.4,41-29A81.14,81.14,0,0,0,130,46.6,75.43,75.43,0,0,0,109.6,49.4ZM149.4,109c2,4.3,4.3,9.7,6.8,16.2,9.9-.9,20.6-1.4,32.2-1.4q12.45,0,24.6.6A80.5,80.5,0,0,0,193.4,76C184.7,88.9,170.1,99.9,149.4,109Zm11.8,30.2A286.6,286.6,0,0,1,175,200a83.81,83.81,0,0,0,25.8-26.2,80.06,80.06,0,0,0,12-34.6c-9.7-.7-18.6-1-26.6-1C178.9,138.2,170.5,138.5,161.2,139.2Z"/></svg>