<svg id="a1fd3c8b-5bad-445b-b429-4c2cdeec37df" data-name="Blue" xmlns="http://www.w3.org/2000/svg" viewBox="0 0 260 260"><polygon points="30 30 60 30 60 10 10 10 10 30 10 60 30 60 30 30"/><polygon points="30 200 10 200 10 250 60 250 60 230 30 230 30 200"/><polygon points="230 230 200 230 200 250 250 250 250 200 230 200 230 230"/><polygon points="200 10 200 30 230 30 230 60 250 60 250 10 200 10"/><path d="M137.5,147.5v-35a7.5,7.5,0,0,0-15,0v35a7.5,7.5,0,0,0,15,0Z"/><path d="M130,43C47.5,43,20,130.5,20,130.5S47.5,218,130,218s110-87.5,110-87.5S212.5,43,130,43Zm0,157a52.55,52.55,0,0,1-51-40.2l13.5-13.5v1.3a37.5,37.5,0,1,0,75,0V135.2l14.9,14.9A52.51,52.51,0,0,1,130,200Zm-22.5-52.5v-35a22.5,22.5,0,0,1,45,0v35a22.5,22.5,0,0,1-45,0Zm75-18.6-15-15v-1.4a37.5,37.5,0,0,0-75,0V125l-15,15V112.5a52.5,52.5,0,0,1,105,0Z"/></svg>