<svg id="a614b641-430b-4b56-9e9a-727530adcd81" data-name="Blue" xmlns="http://www.w3.org/2000/svg" viewBox="0 0 260 260"><path d="M160,10H47c-3.5,0-7,2.8-7,6.3V243.7c0,3.5,3.5,6.3,7,6.3H214.3c3.5,0,5.7-2.8,5.7-6.3V70ZM82.26,160c-14,0-24.55-8.93-24.55-27.72,0-18.51,10.73-27.58,23.83-27.58,10.8,0,17.29,4.39,21.25,12.74l-9.87,5c-1.8-4.17-5.47-8-11.38-8-8.21,0-12.09,6.84-12.09,17.86,0,11.23,4.32,18.29,12.81,18.29,6.2,0,10-4,11.81-9.44l10.08,3.53C101,153.81,94.58,160,82.26,160Zm49.4,0a33.77,33.77,0,0,1-23.26-9.5l6.12-7.85c3.89,4,10.8,8.06,16.78,8.06,5.61,0,9.64-2,9.64-6.12s-3.81-5.76-10.8-7.7c-9.5-2.67-19.44-5.12-19.44-16.28,0-9.93,7.92-15.91,19.23-15.91,8.21,0,15.48,3.6,20.59,7.7l-5.4,8.36c-3.82-3.32-9.86-6.48-14.9-6.48-5.19,0-8.07,2.16-8.07,5.32,0,4.25,4,5.77,10.95,7.71,9.36,2.52,19.29,5.47,19.29,16.49C152.39,152.37,145.77,160,131.66,160Zm52.27-.79H172.84l-18.07-52.64,11.3-1.73,12.46,39h.14l12.6-38.09h11Z"/></svg>