<svg id="e70df9a6-14e1-4921-9839-67244aa58bd3" data-name="Blue" xmlns="http://www.w3.org/2000/svg" viewBox="0 0 260 260"><path d="M220,110H199.89v60H220Z"/><path d="M199.89,190v60H220V190Z"/><path d="M179.78,229.9V89.8a13.55,13.55,0,0,0,2,.2H220V22a12.07,12.07,0,0,0-12.07-12H181.79a13.55,13.55,0,0,0-2,.2V10H66.35c-2.92,1-8,1.6-10.76,3C46.23,17.7,40.7,25.5,40,36V222.7c0,13,9,23.6,21.72,26.6,2.41.6-4.22.7-1.71.7H179.78ZM109.39,70A20,20,0,1,1,89.27,90,20.11,20.11,0,0,1,109.39,70Zm40.22,90H69.16v-4.2A36.78,36.78,0,0,1,96.72,120,27.43,27.43,0,0,0,122,120a36.76,36.76,0,0,1,27.65,35.8Z"/></svg>