<svg id="a4c0f8e7-6230-4f87-b2bf-02e601316a7f" data-name="Blue" xmlns="http://www.w3.org/2000/svg" viewBox="0 0 260 260"><defs><style>.a9ac1799-813f-4eca-a1db-3e3d087ee831{fill-rule:evenodd;}</style></defs><path class="a9ac1799-813f-4eca-a1db-3e3d087ee831" d="M229.57,80.13h-8.83V30.3A10.31,10.31,0,0,0,210.4,20H50.5A10.31,10.31,0,0,0,40.16,30.3V80H30.53A10.51,10.51,0,0,0,20,90.53h0v18.91A10.52,10.52,0,0,0,30.53,120h9.63v80a10.06,10.06,0,0,0,10,10V231.4a8.61,8.61,0,0,0,8.62,8.6H75.58a8.68,8.68,0,0,0,8.62-8.6h0V210h91.29V230.9a9.09,9.09,0,0,0,9.13,9.1h15.65a10.31,10.31,0,0,0,10.34-10.3V210a10.06,10.06,0,0,0,10-10V120h8.82A10.53,10.53,0,0,0,240,109.44V90.63a10.37,10.37,0,0,0-10.43-10.5ZM78.29,186.58a12.93,12.93,0,0,1-6.33,6.3c-13.54,6.3-26.78-6.9-20.46-20.41a12.87,12.87,0,0,1,6.32-6.3C71.46,160,84.61,173.07,78.29,186.58ZM60.23,150.16V68.22a5.8,5.8,0,0,1,6-5.5h128.4a5.8,5.8,0,0,1,6,5.5v81.94ZM209.3,186.58a12.87,12.87,0,0,1-6.32,6.3c-13.54,6.3-26.78-6.9-20.46-20.41a12.87,12.87,0,0,1,6.32-6.3c13.64-6.21,26.78,6.9,20.46,20.41Z"/></svg>