<svg id="ab286f99-4c08-4208-a437-fcebe6b77066" data-name="Blue" xmlns="http://www.w3.org/2000/svg" viewBox="0 0 260 260"><g id="ae6a9730-9f98-42fe-9baf-42b9de803eb3" data-name="icons"><polygon points="225 130 185 130 185 160 145 120 185 80 185 110 245 110 225 130"/><path d="M155,150v60H35V30H155V90l20-20V20a10,10,0,0,0-10-10H25A10,10,0,0,0,15,20V240a10,10,0,0,0,10,10H165a10,10,0,0,0,10-10V170ZM95,240a10,10,0,1,1,10-10A10,10,0,0,1,95,240Z"/><path d="M102,166a47,47,0,0,0,33-14l-9-9a33.12,33.12,0,0,1-46.7,1.3A31.91,31.91,0,0,1,73,136H95l13-13H68v-6H95l13-13H73a33,33,0,0,1,44.7-13.3A34.47,34.47,0,0,1,126,97l9-9a47,47,0,0,0-80,30h0v3A47,47,0,0,0,102,166Z"/></g></svg>