<svg id="eb1d83ad-42e0-45fc-9997-a0693772a07a" data-name="Blue" xmlns="http://www.w3.org/2000/svg" viewBox="0 0 260 260"><defs><style>.fee9dbad-ad1b-4746-9ef7-35d88bfcf840{fill-rule:evenodd;}</style></defs><g id="b5ff3285-d4f6-43a2-bd22-a333d4d066a6" data-name="icons"><path class="fee9dbad-ad1b-4746-9ef7-35d88bfcf840" d="M243.35,52.45,187,52.56V27.36c0-3.8-2.75-7.32-6.56-7.32H16.63C12.82,20,10,23.55,10,27.36V242.72c0,3.8,2.86,7.32,6.67,7.32H180.4c3.81,0,6.56-3.51,6.56-7.32v-44l56.39.11a6.56,6.56,0,0,0,6.61-6.28V58.73A6.58,6.58,0,0,0,243.35,52.45ZM62,140h-.7L41,120V51H62Zm157,26H187V83h32Z"/></g></svg>