<svg id="fd307984-57d3-4cfa-b16b-ab5097905fff" data-name="Blue" xmlns="http://www.w3.org/2000/svg" viewBox="0 0 260 260"><path d="M164.36,76.45h-13.3v26.21h13.3c12.1,0,16.7-4.7,16.7-13.2C181.06,81.15,176.66,76.45,164.36,76.45Z"/><path d="M134.66,209.9A61.33,61.33,0,0,1,50,125.27a114.75,114.75,0,0,1-1.5-42.12A91.95,91.95,0,1,0,176.86,211.31,108.75,108.75,0,0,1,134.66,209.9Z"/><path d="M223.07,36.94a91.95,91.95,0,1,0,0,130.05,91.91,91.91,0,0,0,0-130Zm-59.41,80.83h-12.6v31.61h-19.4V60.45H164c19,0,36.21,5,36.21,28.41,0,23.91-18.71,28.91-36.51,28.91Z"/></svg>