<svg id="b7078098-cbde-4427-a450-052172be4d3c" data-name="Blue" xmlns="http://www.w3.org/2000/svg" viewBox="0 0 260 260"><defs><style>.a50cee30-2e5d-4b63-8a37-b189dd65df4d{fill-rule:evenodd;}</style></defs><path class="a50cee30-2e5d-4b63-8a37-b189dd65df4d" d="M130.39,58c15.85,0,31.69-8,31.69-8l15.84-40s-31.69,6.43-47.53,6.43S82.86,10,82.86,10L98.7,50S114.55,58,130.39,58Z"/><path class="a50cee30-2e5d-4b63-8a37-b189dd65df4d" d="M173.44,60l-.19.38-4.87,2.5c-1.91,1-19.38,9.5-38.08,9.5s-36.08-8.54-38.09-9.5l-3.91-2C67.78,75.57,25.78,108.5,25,154.29,23.68,230.8,92.4,250,131.44,250c36.94,0,103.46-19.2,103.56-95.71C235.1,107.63,193.39,74.42,173.44,60Zm-81,105.12,8.5-8.55L123.23,179,123,106.38l11.73,11.91v60.77l22.91-22.85,8.59,8.54-37,37.06Z"/></svg>