<svg id="b4402de3-5314-43c6-9b1a-0a32e5cd5f32" data-name="Blue" xmlns="http://www.w3.org/2000/svg" viewBox="0 0 260 260"><defs><style>.b0ca0791-951b-4735-86eb-f399c8338fd0{fill-rule:evenodd;}</style></defs><polygon points="20 56 120 116.3 120 116.3 20 56"/><path class="b0ca0791-951b-4735-86eb-f399c8338fd0" d="M169.8,104.6a84.27,84.27,0,0,1,35.2,7.7V11a6,6,0,0,0-6-6H31a6,6,0,0,0-6,6V239a6,6,0,0,0,6,6h74.4a85,85,0,0,1,64.4-140.4ZM55,35H173L153,55H55Zm0,40h70L105,95H55Z"/><path class="b0ca0791-951b-4735-86eb-f399c8338fd0" d="M170,125a65,65,0,1,0,65,65,65,65,0,0,0-65-65Zm.8,100c-15.8,0-33.1-8.8-33.1-35,0-26.9,19.1-35.1,33.9-35.1,12,0,23.4,5.4,28.9,17.8l-14.8,7.6c-3.1-7.4-7.3-10.5-14.1-10.5-8.4,0-13.6,6.9-13.6,20.3,0,12,3.8,20.6,13.8,20.6,7.1,0,12-4.4,15.4-12.1l15,7.4C195.8,219.7,183.7,225,170.8,225Z"/></svg>