<svg id="b638f2e4-dfda-4d98-a1f2-d20323277cdd" data-name="Blue" xmlns="http://www.w3.org/2000/svg" viewBox="0 0 260 260"><defs><style>.ee72768b-ba80-462f-8e99-88824bc52947{fill-rule:evenodd;}</style></defs><path class="ee72768b-ba80-462f-8e99-88824bc52947" d="M185,130.1a65,65,0,1,0,65,65,65,65,0,0,0-65-65Zm-8.8,94.43H156V165.58h20.2Zm39.4,0H195.4V165.58h20.2Z"/><polygon class="ee72768b-ba80-462f-8e99-88824bc52947" points="158.1 88.37 153.4 69.98 75.5 69.98 70.8 88.37 67.9 99.93 161 99.93 158.1 88.37"/><path class="ee72768b-ba80-462f-8e99-88824bc52947" d="M145.1,38l-5.3-16.32A16.3,16.3,0,0,0,124.8,10H104A16.53,16.53,0,0,0,88.9,21.69L83.7,38l-3,12h67.5Z"/><path class="ee72768b-ba80-462f-8e99-88824bc52947" d="M113.1,149.78A85.2,85.2,0,0,1,144.7,120h-82l-2,8h0l-2.2,8.38h0L55.5,148h.1l-.5,1.9Z"/><path class="ee72768b-ba80-462f-8e99-88824bc52947" d="M100.2,194.78a81.76,81.76,0,0,1,3.6-24H50l-1.5,6L39.7,210h62A87.22,87.22,0,0,1,100.2,194.78Z"/><path class="ee72768b-ba80-462f-8e99-88824bc52947" d="M98,230H20v20H121a84.32,84.32,0,0,1-12.9-20Z"/></svg>