<svg id="e151cd67-094a-4be3-9b20-dcc87d8692be" data-name="Blue" xmlns="http://www.w3.org/2000/svg" viewBox="0 0 260 260"><path d="M249.56,119A120.06,120.06,0,0,0,63.21,30.32l-.2-.2L54.91,36l.2.2A120.08,120.08,0,0,0,10.5,118.81c-.3,3.7-.5,7.4-.5,11.2a123,123,0,0,0,4.4,32.5l-.3.1,3.1,9.5.3-.1A120,120,0,0,0,124.93,249.9v.1h10v-.1A120,120,0,0,0,250,130,80.34,80.34,0,0,0,249.56,119ZM26,120.51a12.18,12.18,0,0,1-3.8-11.1,105.67,105.67,0,0,1,8.41-25.9,11.87,11.87,0,0,1,9.6-6.8l41.21-4.4L97.22,94a6.16,6.16,0,0,1,.9,5.4l-12,37.1a6.14,6.14,0,0,1-3.8,3.9l-25.21,8.2ZM88.62,225.8a12.09,12.09,0,0,1-11.8.1,105.47,105.47,0,0,1-22-16.1,12,12,0,0,1-3.4-11.2L60,158l28.41-9.3a5.86,5.86,0,0,1,5.4.9l28.71,20.8a5.79,5.79,0,0,1,2.5,4.8l.1,29.49ZM108.83,88.61a5.79,5.79,0,0,1-4.8-2.5L89.72,66.61l17.11-38.39a12,12,0,0,1,9.4-7,111,111,0,0,1,27-.1,12.14,12.14,0,0,1,9.5,7l17,38.19-14.4,19.9a5.84,5.84,0,0,1-4.9,2.5Zm96,121.69a113.34,113.34,0,0,1-21.8,15.8,12.11,12.11,0,0,1-11.81-.1l-36.31-21V175.51a6.11,6.11,0,0,1,2.5-4.9l29-21a6.38,6.38,0,0,1,5.4-.9l27.81,9,8.8,41.39a12.16,12.16,0,0,1-3.6,11.2Zm29.21-90.19-31.21,28.1-25-8.1a6.07,6.07,0,0,1-3.9-3.9l-12.3-37.5a6.13,6.13,0,0,1,.8-5.4l15.2-21L220,76.71a11.87,11.87,0,0,1,9.6,6.8,108.71,108.71,0,0,1,8.3,25.5A11.93,11.93,0,0,1,234.06,120.11Z"/></svg>