<svg id="fc634654-2286-424b-8d3f-a11b42abfd07" data-name="Blue" xmlns="http://www.w3.org/2000/svg" viewBox="0 0 260 260"><path d="M130,10A120,120,0,1,0,250,130,120,120,0,0,0,130,10Zm69.9,90.5q-1.05,21.9-30.6,59.8c-20.4,26.4-37.6,39.7-51.8,39.7-8.7,0-16.1-8.1-22.2-24.2L83.2,131.4c-4.5-16.1-9.3-24.2-14.5-24.2-1.1,0-5,2.4-11.8,7.1l-7.1-9.1q11-9.6,21.9-19.5c9.9-8.5,17.3-13,22.2-13.4,11.7-1.1,18.8,6.8,21.5,23.9,2.9,18.4,4.9,29.8,6.1,34.3,3.4,15.2,7.1,22.9,11.1,22.9,3.1,0,7.8-4.9,14.1-14.8s9.6-17.4,10.1-22.5c.9-8.5-2.5-12.8-10.1-12.8a28.5,28.5,0,0,0-11.1,2.4c7.4-24,21.5-35.6,42.4-35,15.5.3,22.8,10.3,21.9,29.8Z"/></svg>