<svg id="a9fa74f4-b337-4c3d-81ba-8e97de4b5658" data-name="Blue" xmlns="http://www.w3.org/2000/svg" viewBox="0 0 260 260"><defs><style>.a01510c6-9a04-44ed-aca0-9b389e168fc4{fill-rule:evenodd;}</style></defs><g id="a38fbc53-2bfd-433b-942d-d9ed0b2d7221" data-name="TPV"><path id="e8dff40e-2c2f-422f-9f01-ebbef5646536" data-name="Combined-Shape" class="a01510c6-9a04-44ed-aca0-9b389e168fc4" d="M180,220V200H80v20H70a10,10,0,0,1-10-10V30A10,10,0,0,1,70,20H190a10,10,0,0,1,10,10V210a10,10,0,0,1-10,10Zm-20-60v20h20V160Zm-40,0v20h20V160Zm-40,0v20h20V160Zm80-40v20h20V120Zm-40,0v20h20V120Zm-40,0v20h20V120Zm80-40v20h20V80Zm-40,0v20h20V80ZM80,80v20h20V80Zm0-40V60h80l20-20ZM90,210h80v20a10,10,0,0,1-10,10H100a10,10,0,0,1-10-10Z"/></g></svg>