<svg id="a83e46b1-53a9-405d-8bb1-ccf9a758ef7d" data-name="Blue" xmlns="http://www.w3.org/2000/svg" viewBox="0 0 260 260"><circle cx="150.1" cy="30" r="20"/><path d="M190.1,210l-6.8-17-5.1-13h-.1l-8-20-24.8-30,4.5-26.5,7.8,15.1,35.1,14.2,7.4-22.9-24.7-9.2L162.3,57.3a30,30,0,0,1-33.7-6.5L94.3,72.5l-26.9,33,18.4,14.3,19.5-26.6c.4-.6,13.2-7.4,13.2-7.4l-8.4,44.3,20,20,10,10,30,50h20V210Z"/><polygon points="100.1 170 60.1 210 60.2 210 60.1 210.1 74 210.1 74 210 90 210 90 210.1 90.1 210.1 120.2 180 120.1 180 126.6 160.6 107.3 141.3 100.1 170"/><polygon points="76 180 58.5 180 37.1 219 45.9 210.1 76 180"/><polygon points="36.5 220.1 20 250 60 250 70.5 220.1 50.1 220.1 36.5 220.1"/><polygon points="94.2 220.1 92.6 220.1 87.5 220.1 80 250 120 250 122.9 191.4 104.2 210.1 94.2 220.1"/><polygon points="164.5 220 158.5 210 140.5 180 136.5 180 140 250 180 250 172.5 220 164.5 220"/><polygon points="201.5 180 189 180 200.7 210 204.5 220 193.8 220 189.5 220 200 250 240 250 201.5 180"/></svg>