<svg id="a6d4be5c-9c28-4109-aaf8-60db3123f7cf" data-name="Blue" xmlns="http://www.w3.org/2000/svg" viewBox="0 0 260 260"><path d="M193,107a68.3,68.3,0,0,0-21-3.13c-46.2,0-84,37.57-84,83.48a80.41,80.41,0,0,0,11.55,41.74h-64C29.2,229.13,25,225,25,218.7V20.43C25,14.17,29.2,10,35.5,10h147c6.3,0,10.5,4.17,10.5,10.43ZM56.5,83v20.87H88L109,83Zm0-41.74V62.17H130L151,41.3ZM172,250c-34.65,0-63-28.17-63-62.61s28.35-62.61,63-62.61,63,28.18,63,62.61S206.65,250,172,250Zm-16.8-54.26-6.3,23L172,206.17l23.1,12.53-6.3-23,19.95-15.65L182.5,178,172,156.09,161.5,178l-26.25,2.09Z"/></svg>