<svg id="fa11e9b2-74bb-4ba3-9b48-41cbc0ce98e2" data-name="Blue" xmlns="http://www.w3.org/2000/svg" viewBox="0 0 260 260"><path d="M126.56,88h-19.2l0,34.9h19.2c16.3,0,24-4.68,24.08-17.68C150.54,92.7,142.76,88,126.56,88Z"/><path d="M228,20.08,32,20a11.88,11.88,0,0,0-12,11.94L20,228a11.91,11.91,0,0,0,12,12L228,240a11.91,11.91,0,0,0,11.95-12L240,32A11.91,11.91,0,0,0,228,20.08Zm-74.84,175-29.54-50.35-16.3,0,0,48.3-27.69,0,0-128L127.68,65c31.48,0,50.32,11.25,50.28,39.66,0,20.2-9.55,31.35-26.67,36.47l29,49.85Z"/></svg>