<svg id="bfa06e6f-5680-45f1-8646-62a5083eab64" data-name="Blue" xmlns="http://www.w3.org/2000/svg" viewBox="0 0 260 260"><defs><style>.ed0955fe-d91e-44d5-ae88-a849b08c6a56{fill-rule:evenodd;}</style></defs><path class="ed0955fe-d91e-44d5-ae88-a849b08c6a56" d="M220,16a6,6,0,0,0-6-6H46a6,6,0,0,0-6,6V244a6,6,0,0,0,6,6H214a6,6,0,0,0,6-6ZM106.2,196l-5.5,5.3,1.2,7.5v.4c0,.3-.2.8-.5.8h0c-.1,0-.2-.3-.2-.3L94.5,206l-6.8,3.5a.47.47,0,0,1-.6-.1c-.2-.1-.2-.3-.2-.5l1.3-7.6L82.7,196a.48.48,0,0,1,0-.7c.1-.1.2-.1.3-.2l7.6-1.1,3.4-6.9a.43.43,0,0,1,.7-.2c.1.1.2.1.2.2l3.4,6.9,7.6,1.1a.44.44,0,0,1,.4.6c.1.1,0,.2-.1.3Zm34.8,0-5.5,5.3,1.3,7.4v.4c0,.3-.2.8-.5.8h0c-.1,0-.2-.3-.2-.3l-6.7-3.7-6.8,3.5a.47.47,0,0,1-.6-.1c-.2-.1-.2-.3-.2-.5l1.3-7.6-5.5-5.3a.48.48,0,0,1,0-.7c.1-.1.2-.1.3-.2l7.6-1.1,3.4-6.9a.43.43,0,0,1,.7-.2c.1.1.2.1.2.2l3.4,6.9,7.6,1.1a.44.44,0,0,1,.4.6.52.52,0,0,1-.2.4Zm-26-67v41H85V60h30v40h30V60h30V170H145V129Zm61.3,67-5.5,5.3,1.2,7.5v.4c0,.3-.2.8-.5.8h0c-.1,0-.2-.3-.2-.3l-6.7-3.7-6.8,3.5a.47.47,0,0,1-.6-.1c-.2-.1-.2-.3-.2-.5l1.3-7.6-5.5-5.3a.48.48,0,0,1,0-.7c.1-.1.2-.1.3-.2l7.6-1.1,3.4-6.9a.43.43,0,0,1,.7-.2c.1.1.2.1.2.2l3.4,6.9,7.6,1.1a.44.44,0,0,1,.4.6c0,.1-.1.2-.1.3Z"/></svg>