<svg id="a8a45b6d-6b09-4810-80c4-a7c8c81a0d66" data-name="Blue" xmlns="http://www.w3.org/2000/svg" viewBox="0 0 260 260"><path d="M240,20H20A10,10,0,0,0,10,30V240l40-40H240a10,10,0,0,0,10-10V30A10,10,0,0,0,240,20ZM128.8,170a13.6,13.6,0,1,1,13.6-13.6A13.61,13.61,0,0,1,128.8,170Zm20.4-63.8c-12.2,7.2-12.1,10.1-12.1,25.2H119.4a99,99,0,0,1-.5-11c0-11.5,6.3-18.2,14.2-23,7.4-4.7,10.8-8.1,10.8-15.5,0-6.1-4.5-10.3-12.6-10.3-8.9,0-17.8,6.2-23.1,13.2L95,71.1c8.2-10.3,20.6-18.8,38.4-18.8C153.8,52.3,165,64,165,80,165,94.1,157.8,101,149.2,106.2Z"/></svg>