<svg id="aaf83a33-5125-4a4c-b6ff-7e999fec9f2c" data-name="Blue" xmlns="http://www.w3.org/2000/svg" viewBox="0 0 260 260"><path d="M228,20H32A12,12,0,0,0,20,32V228a12,12,0,0,0,12,12H228a12,12,0,0,0,12-12V32A12,12,0,0,0,228,20ZM185.8,159.7c-7.6,22-23,36.9-52.6,36.9-33.6,0-59-21.4-59-66.6v-.2c0-44.5,25.8-66.3,57.3-66.3,26,0,41.5,10.6,51,30.6h-.1c0,.1.1.1.1.2l-23.7,11.9c-4.3-10-13.1-19.2-27.3-19.2-19.8,0-29.1,16.4-29.1,42.8,0,26.9,10.4,43.8,30.8,43.8,14.9,0,24-9.5,28.4-22.7l24.2,8.5c0,.1-.1.2,0,.3Z"/><path d="M133.2,196.4c-33.6,0-59-21.4-59-66.5v.1c0,45.2,25.4,66.6,59,66.6,29.6,0,45-14.9,52.6-36.9h-.1C178.1,181.7,162.7,196.4,133.2,196.4Z"/><path d="M131.5,86.8c-19.7,0-29.1,16.4-29.1,42.9v.1c0-26.4,9.3-42.8,29.1-42.8,14.2,0,23,9.2,27.3,19.2l23.7-11.9c0-.1-.1-.1-.1-.2L158.8,106C154.5,96,145.7,86.8,131.5,86.8Z"/><path d="M131.5,63.7c25.8,0,41.4,10.4,50.9,30.4h.1c-9.5-20-25-30.6-51-30.6-31.5,0-57.3,21.8-57.3,66.3v.1C74.2,85.5,100,63.7,131.5,63.7Z"/><path d="M161.6,150.9c-4.4,13.2-13.5,22.7-28.4,22.7-20.4,0-30.8-16.9-30.8-43.8v.1c0,26.9,10.4,43.9,30.8,43.9,14.9,0,24-9.6,28.4-22.6l24.1,8.5c0-.1.1-.2.1-.3Z"/></svg>