<svg id="a0b12553-5e14-4ae5-a223-29441caf44b2" data-name="Blue" xmlns="http://www.w3.org/2000/svg" viewBox="0 0 260 260"><defs><style>.f5d212d4-65fa-4d53-aa4c-865e42f03f86{fill-rule:evenodd;}</style></defs><path class="f5d212d4-65fa-4d53-aa4c-865e42f03f86" d="M239.19,100h-11.4L208,32.1a3.14,3.14,0,0,0-2.8-2.1H55.62a3.14,3.14,0,0,0-2.8,2.1L32.11,100H20.9A10.93,10.93,0,0,0,10,110.9h0v10.9A11.18,11.18,0,0,0,20.9,133H30v86.1A10.93,10.93,0,0,0,40.91,230H53.52A10.59,10.59,0,0,0,64,219.1V210H195.08v9.1a10.84,10.84,0,0,0,10.8,10.9h10.9c6,0,13.21-4.9,13.21-10.9V207h0V133h9.1A11.12,11.12,0,0,0,250,121.8V110.9A10.78,10.78,0,0,0,239.19,100ZM70,50H190.07l15,50H55ZM65,160a15,15,0,1,1,15-15,15,15,0,0,1-15,15Zm130.06,0a15,15,0,1,1,15-15,15,15,0,0,1-15,15Z"/></svg>