<svg id="b6d534a6-76b5-4495-80ed-5268dd15daa2" data-name="Blue" xmlns="http://www.w3.org/2000/svg" viewBox="0 0 260 260"><path d="M114.2,136.1c-2.7-2.1-6.3-3.1-10.8-3.1H81v26.1h22.1a27.84,27.84,0,0,0,5.8-.6,14.42,14.42,0,0,0,4.9-2,10.47,10.47,0,0,0,3.4-3.8,13.52,13.52,0,0,0,1.2-6.1Q118.25,139.25,114.2,136.1Z"/><path d="M102,119a16.17,16.17,0,0,0,9-3c2.4-1.8,3.5-4.7,3.5-8.7a11.2,11.2,0,0,0-1.2-5.5,9.52,9.52,0,0,0-3.2-3.4,12.65,12.65,0,0,0-4.6-1.8,33.06,33.06,0,0,0-5.4-.6H81v23Z"/><path d="M176.2,117a16.7,16.7,0,0,0-7.5,1.5,14.21,14.21,0,0,0-4.8,3.8,15.19,15.19,0,0,0-2.5,4.9,17.05,17.05,0,0,0-.9,4.7H191c-.9-5-2.4-8.6-4.7-11.1C184.2,118.4,180.7,117,176.2,117Z"/><path d="M130,10A120,120,0,1,0,250,130,120,120,0,0,0,130,10Zm27,75h39V96H157Zm-20.7,75.3a24,24,0,0,1-7.5,8.6,33.49,33.49,0,0,1-10.7,4.7,46.74,46.74,0,0,1-12.4,1.4H60V80h44.4a58.31,58.31,0,0,1,12.3,1.2,26.37,26.37,0,0,1,9.5,3.9,18.16,18.16,0,0,1,6.1,7.3,25.14,25.14,0,0,1,2.2,11.2,21.44,21.44,0,0,1-3.2,12,24.64,24.64,0,0,1-9.6,7.9c5.8,1.7,10.2,4.7,13,8.9s4.3,9.3,4.3,15.3A26.05,26.05,0,0,1,136.3,160.3ZM209.9,144H160.6c.3,6,1.8,10.5,4.6,13.3s6.9,4.1,12.2,4.1a16.14,16.14,0,0,0,9.8-3.1,12.79,12.79,0,0,0,5-6.3h16.5c-2.6,9-6.7,14.4-12.2,17.9s-12.1,5.4-19.8,5.4a37.11,37.11,0,0,1-14.5-2.6,30.1,30.1,0,0,1-11-7.4,32.41,32.41,0,0,1-6.9-11.5,43.59,43.59,0,0,1-2.4-14.7,39.61,39.61,0,0,1,2.5-14.4,35.84,35.84,0,0,1,7.1-11.6,34.14,34.14,0,0,1,11-7.7,34.62,34.62,0,0,1,14.2-2.8,31.86,31.86,0,0,1,15.2,3.4,29.51,29.51,0,0,1,10.6,9.2,37,37,0,0,1,6,13.2A48.82,48.82,0,0,1,209.9,144Z"/></svg>