<svg id="b159a24e-fc34-4a51-a24e-240e964ab40d" data-name="Blue" xmlns="http://www.w3.org/2000/svg" viewBox="0 0 260 260"><polygon points="163.8 60.16 133.8 180.06 153.7 180.06 153.7 250 173.7 250 173.7 180.06 193.7 180.06 193.7 225.62 193.7 250 213.7 250 213.7 180.06 233.8 180.06 203.8 60.16 163.8 60.16"/><polygon points="250 139.39 229 60.16 213.6 60.16 233.8 133.9 250 139.39"/><polygon points="140 133.9 136.9 122.91 154 60.16 138.6 60.16 129.4 96.63 119 60.16 103.6 60.16 121.8 126.8 120 133.9 123.8 133.9 133.9 133.9 140 133.9"/><polygon points="35 60.16 35 140.09 35 150.08 35 250 55 250 55 150.08 75 150.08 75 223.22 75 250 95 250 95 150.08 95 140.09 95 60.16 35 60.16"/><ellipse cx="65" cy="30.08" rx="20" ry="19.98"/><polygon points="10 150.08 25 135.1 25 60.16 10 60.16 10 150.08"/><path d="M170,44.37a19.86,19.86,0,0,0,27.7,0h5.9c0-3.6.4-8.49.2-13.39,0-.3.1-.7.1-1a20.61,20.61,0,0,0-1.1-6.49c-1.9-7.3-6.7-13.29-18.6-13.49h-.6c-24.1,0-20,23.38-20,34.37Z"/></svg>