<svg id="e2447239-4f1a-44b0-b312-7fe715da858f" data-name="Blue" xmlns="http://www.w3.org/2000/svg" viewBox="0 0 260 260"><path d="M61.43,10H198.57C205.43,10,210,14.36,210,20.91V239.09c0,6.55-4.57,10.91-11.43,10.91H61.43C54.57,250,50,245.64,50,239.09V20.91C50,14.36,54.57,10,61.43,10ZM72.86,31.82V206.36H187.14V31.82ZM130,239.09c6.86,0,11.43-4.36,11.43-10.91s-4.57-10.91-11.43-10.91-11.43,4.37-11.43,10.91S123.14,239.09,130,239.09Zm6.86-68.73c13.71-12,24-30.54,24-51.27a65.47,65.47,0,0,0-24-51.27l12.57-8.73c16,14.18,26.28,36,26.28,60s-10.28,45.82-26.28,60Zm-13.72-10.91-12.57-9.81c9.14-7.64,14.86-18.55,14.86-30.55s-5.72-22.91-14.86-30.54l12.57-9.82a56.07,56.07,0,0,1,0,80.72ZM95.71,138.73,84.29,130c3.42-3.27,5.71-6.55,5.71-10.91a13.26,13.26,0,0,0-5.71-10.91l11.42-8.73c5.72,4.37,9.15,12,9.15,19.64S101.43,134.36,95.71,138.73Z"/></svg>