<svg id="b174504c-497d-45e1-9882-862160ce178e" data-name="Blue" xmlns="http://www.w3.org/2000/svg" viewBox="0 0 260 260"><path d="M61.43,10H198.57C205.43,10,210,14.36,210,20.91V239.09c0,6.55-4.57,10.91-11.43,10.91H61.43C54.57,250,50,245.64,50,239.09V20.91C50,14.36,54.57,10,61.43,10ZM72.86,31.82V206.36H187.14V31.82ZM130,239.09c6.86,0,11.43-4.36,11.43-10.91s-4.57-10.91-11.43-10.91-11.43,4.37-11.43,10.91S123.14,239.09,130,239.09ZM84.29,184.55l91.42-87.28v98.18H84.29Zm0-43.64,91.42-87.27V75.45L84.29,162.73Z"/></svg>