<svg id="a866b2c0-9e8e-4f3f-9bde-85422db45088" data-name="Blue" xmlns="http://www.w3.org/2000/svg" viewBox="0 0 260 260"><path d="M228,20H32A12,12,0,0,0,20,32V228a12,12,0,0,0,12,12H228a12,12,0,0,0,12-12V32A12,12,0,0,0,228,20ZM133,196.4c-24.2,0-42.9-10.7-55.9-22.8l14.7-18.9c9.3,9.7,26,19.4,40.3,19.4,13.5,0,23.2-4.8,23.2-14.7,0-9.7-9.2-13.8-26-18.5-22.8-6.4-46.7-12.3-46.7-39.1,0-23.9,19-38.2,46.2-38.2,19.7,0,37.2,8.6,49.5,18.5l-13,20.1c-9.2-8-23.7-15.6-35.8-15.6-12.5,0-19.4,5.2-19.4,12.8,0,10.2,9.5,13.8,26.3,18.5,22.5,6.1,46.4,13.1,46.4,39.6C182.9,178.1,166.9,196.4,133,196.4Z"/></svg>