<svg id="a5ec0978-a807-4c12-950e-16865cfe119f" data-name="Blue" xmlns="http://www.w3.org/2000/svg" viewBox="0 0 260 260"><defs><style>.a99387b7-7b55-4973-894d-1d9a6eaab5e1{fill-rule:evenodd;}</style></defs><polygon class="a99387b7-7b55-4973-894d-1d9a6eaab5e1" points="30 30 60 30 60 10 10 10 10 30 10 60 30 60 30 30"/><polygon class="a99387b7-7b55-4973-894d-1d9a6eaab5e1" points="30 200 10 200 10 250 60 250 60 230 30 230 30 200"/><polygon class="a99387b7-7b55-4973-894d-1d9a6eaab5e1" points="230 230 200 230 200 250 250 250 250 200 230 200 230 230"/><polygon class="a99387b7-7b55-4973-894d-1d9a6eaab5e1" points="200 10 200 30 230 30 230 60 250 60 250 10 200 10"/><path class="a99387b7-7b55-4973-894d-1d9a6eaab5e1" d="M50.5,210h160V194a71.9,71.9,0,0,0-54.9-69.9,56.13,56.13,0,0,1-50.2,0A72.07,72.07,0,0,0,50.5,194Zm79-50h50l-20,20h-30Z"/><circle cx="130.5" cy="75" r="35"/></svg>