<svg id="fc62fe61-f4cb-4067-8d79-159c4beaf63c" data-name="Blue" xmlns="http://www.w3.org/2000/svg" viewBox="0 0 260 260"><path d="M187.29,51a19.27,19.27,0,0,0-27.06,4.33l-90.94,127a19.79,19.79,0,0,0,4.32,27.43,19.29,19.29,0,0,0,27.07-4.32l91-127A20,20,0,0,0,187.29,51Z"/><path d="M75.42,41.07a19.58,19.58,0,1,0-27.36,4.32A19.58,19.58,0,0,0,75.42,41.07Z"/><path d="M83.47,95.73a19.27,19.27,0,0,0,27.06-4.32l22.74-31.75A20,20,0,0,0,129,32.22,19.28,19.28,0,0,0,102,36.54L79.25,68.3A19.74,19.74,0,0,0,83.47,95.73Z"/><path d="M177.43,165a19.28,19.28,0,0,0-27.06,4.32l-22.73,31.76a20,20,0,0,0,4.22,27.43,19.28,19.28,0,0,0,27.06-4.32l22.74-31.76A19.76,19.76,0,0,0,177.43,165Z"/><path d="M211.94,214.61A19.58,19.58,0,1,0,216.26,242,19.62,19.62,0,0,0,211.94,214.61Z"/></svg>