<svg id="ee314123-b396-4331-ac2f-e7602c57de31" data-name="Blue" xmlns="http://www.w3.org/2000/svg" viewBox="0 0 260 260"><path d="M20,223.7a16.2,16.2,0,0,0,16.2,16.2H140.4a16.2,16.2,0,0,0,16.2-16.2v-3.8H20Z"/><path d="M156.7,176.2A16.2,16.2,0,0,0,140.5,160H36.3a16.2,16.2,0,0,0-16.2,16.2h0V180H156.8v-3.8Z"/><path d="M18.1,190H161.8a8.07,8.07,0,0,1,8.1,8.1v3.7a8.07,8.07,0,0,1-8.1,8.1H18.1a8.07,8.07,0,0,1-8.1-8.1v-3.7A8.07,8.07,0,0,1,18.1,190Z"/><polygon points="100 50 100 60 100 70 240 70 240 60 240 50 100 50"/><rect x="180" y="10" width="20" height="30"/><path d="M122.9,100H180l-10,20H125.7l3.3,28h14.7a27.23,27.23,0,0,1,27.2,27.2v5.1a19,19,0,0,1,10,16.8v3.8a19,19,0,0,1-10,16.8v5.1a26.89,26.89,0,0,1-6.2,17.2h35.2l20-160h-100Z"/></svg>