<svg id="bdc6af2f-073b-4e70-92b9-e0f381cf7376" data-name="Blue" xmlns="http://www.w3.org/2000/svg" viewBox="0 0 260 260"><path d="M178,0H82C75,0,70,6,70,14V246c0,8,5,14,12,14h96c7,0,12-6,12-14V14C190,6,185,0,178,0ZM130,240a30,30,0,0,1-29.7-30.3A29.12,29.12,0,0,1,102,200h11a20,20,0,1,0,35,0h11a30.06,30.06,0,0,1-18.3,38.3A29.12,29.12,0,0,1,131,240Zm30-50H96a40,40,0,0,1,54.7-14.3A40.8,40.8,0,0,1,165,190Zm-30-40a20.06,20.06,0,0,0,19.7-20.3A20.81,20.81,0,0,0,147,120h11a30,30,0,1,1-57,.1h11a20,20,0,0,0,7.3,27.3,20.48,20.48,0,0,0,9.7,2.7h1Zm30-40H96a40,40,0,0,1,54.7-14.3A40.8,40.8,0,0,1,165,110ZM130,70a20.06,20.06,0,0,0,19.7-20.3A20.81,20.81,0,0,0,147,40h11a30,30,0,1,1-57,.1h11a20,20,0,0,0,7.3,27.3,20.48,20.48,0,0,0,9.7,2.7h1Zm30-40H96a40,40,0,0,1,54.7-14.3A40.8,40.8,0,0,1,165,30Z"/></svg>