<svg id="bc93cb9e-7b8d-4d91-81c2-69b3d190e541" data-name="Blue" xmlns="http://www.w3.org/2000/svg" viewBox="0 0 260 260"><defs><style>.e01759ff-d326-4ffe-a8b6-a5d8bb74a655{fill-rule:evenodd;}</style></defs><path class="e01759ff-d326-4ffe-a8b6-a5d8bb74a655" d="M223.53,10V47.92a12,12,0,0,1-12,12H202a12,12,0,0,1-12-12V10c-15.49,6.6-26.89,22-26.89,40a43.51,43.51,0,0,0,26.39,40V228a12,12,0,0,0,12,12h10a12,12,0,0,0,12-12V89.93a43.4,43.4,0,0,0,0-79.93Z"/><path class="e01759ff-d326-4ffe-a8b6-a5d8bb74a655" d="M70,59.92h73.88a61.08,61.08,0,0,1,0-20H55.58A3.14,3.14,0,0,0,52.79,42l-20.7,67.93H20.9A10.93,10.93,0,0,0,10,120.85h0v10.9A11.19,11.19,0,0,0,20.9,143H30V229.1A10.93,10.93,0,0,0,40.89,240h12.7a10.59,10.59,0,0,0,10.49-10.9V220h106v-110h-115Zm-5,80a15,15,0,1,1-15,15,15,15,0,0,1,15-15Z"/></svg>