<svg id="be6bd6a0-05a3-405b-8d4e-0721a7d20ee7" data-name="Blue" xmlns="http://www.w3.org/2000/svg" viewBox="0 0 260 260"><defs><style>.b5489c90-21bd-4399-8632-77233bc48479{fill-rule:evenodd;}</style></defs><g id="a242d389-a4ee-4d1f-96b7-66dba37e13b9" data-name="Cash"><path id="e1f4948c-2f41-43e5-97c8-dcdbccf5c8a7" data-name="Combined-Shape" class="b5489c90-21bd-4399-8632-77233bc48479" d="M71.26,100H50L30,120H71.26a40.31,40.31,0,0,1,0-20Zm77.48,0a40.31,40.31,0,0,1,0,20H170l20-20ZM70,190H230V110l20-20V210H50ZM10,50H210V170H10Zm100,80a20,20,0,1,0-20-20A20,20,0,0,0,110,130Z"/></g><g id="a30d7b7a-d0ad-4a9f-a4b2-82b3c5057169" data-name="Cash"><path id="bc5cefd9-2f52-41c9-a8f6-82a56b75994f" data-name="Combined-Shape" class="b5489c90-21bd-4399-8632-77233bc48479" d="M71.26,100H50L30,120H71.26a40.31,40.31,0,0,1,0-20Zm77.48,0a40.31,40.31,0,0,1,0,20H170l20-20ZM70,190H230V110l20-20V210H50ZM10,50H210V170H10Zm100,80a20,20,0,1,0-20-20A20,20,0,0,0,110,130Z"/></g></svg>