<svg id="f696a280-65de-430d-a648-fe670dd6a3f7" data-name="Blue" xmlns="http://www.w3.org/2000/svg" viewBox="0 0 260 260"><defs><style>.ee756fff-efe5-4062-b4bb-c9de79bb1dd5{fill-rule:evenodd;}</style></defs><path class="ee756fff-efe5-4062-b4bb-c9de79bb1dd5" d="M244.6,40H15.5A5.32,5.32,0,0,0,10,45.31h0V214.69A5.38,5.38,0,0,0,15.5,220h229a5.32,5.32,0,0,0,5.5-5.31h0V45.31A5.23,5.23,0,0,0,244.6,40ZM163.36,75.42h22.21V97.63H163.36Zm-44.41,0h22.2V97.63H119Zm44.41,44.52v22.22H141.15V119.94ZM74.43,75.42H96.64V97.63H74.43ZM119,119.94v22.22H96.74V119.94ZM30,75.42H52.22V97.63H30Zm0,44.52H74.43v22.22H30Zm22.21,66.74H30V164.47H52.22Zm133.45,0H74.43V164.47H185.57Zm44.42,0H207.88V164.47h22.21Zm0-66.74v22.22H185.67V119.94h22.21V75.42h22.21Z"/></svg>