<svg id="a76cbe10-79bc-4331-a564-c782edc431fb" data-name="Blue" xmlns="http://www.w3.org/2000/svg" viewBox="0 0 260 260"><defs><style>.a2186675-4642-41a1-a462-6e8c3deb5d8a{fill-rule:evenodd;}</style></defs><path class="a2186675-4642-41a1-a462-6e8c3deb5d8a" d="M240,60H190V30H100L70,60H20A10,10,0,0,0,10,70V220a10,10,0,0,0,10,10H240a10,10,0,0,0,10-10V70A10,10,0,0,0,240,60ZM40,110V90h60L80,110ZM165,210a65,65,0,1,1,65-65A65,65,0,0,1,165,210Z"/><path class="a2186675-4642-41a1-a462-6e8c3deb5d8a" d="M165,99a42.51,42.51,0,0,0-8,.7v20.6A25,25,0,0,1,189.5,149h20.2A44.9,44.9,0,0,0,170,99.3a41.93,41.93,0,0,0-5-.3Z"/></svg>