<svg id="b8be6913-e16d-4356-821c-36a60e7e38d0" data-name="Blue" xmlns="http://www.w3.org/2000/svg" viewBox="0 0 260 260"><defs><style>.a11b0824-3d3d-435d-bd92-549b736e2b47{fill-rule:evenodd;}</style></defs><path class="a11b0824-3d3d-435d-bd92-549b736e2b47" d="M94.72,50a12.39,12.39,0,0,0-8.2,3.2l-73,68.3a12,12,0,0,0,0,17l73,68.3a11.91,11.91,0,0,0,8.2,3.2H238a12,12,0,0,0,12-12V62a12,12,0,0,0-12-12ZM196.21,178.6l-35.4-35.3L124.11,180,110,165.9l36.7-36.7-35.3-35.4,14.2-14.2,35.3,35.3,35.4-35.4L210.4,93.6,175,129l35.39,35.4Z"/></svg>