<svg id="e7770198-1109-46c8-87d9-7dd5bef452ab" data-name="Blue" xmlns="http://www.w3.org/2000/svg" viewBox="0 0 260 260"><path d="M111.4,155.4c-10,8.6-17.4,17.7-22.2,27.2a65.2,65.2,0,0,0,64.3,9.6,233.75,233.75,0,0,0-12.5-53C131.2,141.4,121.3,146.8,111.4,155.4Z"/><path d="M172.6,78.6A65.17,65.17,0,0,0,130,63.3a60.94,60.94,0,0,0-16.3,2.2q14.1,14.55,26.1,36.3C154.3,95.8,165.2,88,172.6,78.6Z"/><path d="M126.5,106.6Q114.35,85,99.8,70.6A65.22,65.22,0,0,0,78.1,88.4a67.77,67.77,0,0,0-12.7,25.1c2.3.2,5.8.3,10.4.3A175.53,175.53,0,0,0,126.5,106.6Z"/><path d="M104.4,145.4c11.1-9.1,21.9-14.8,32.5-17.1-1.6-3.7-3.1-7.1-4.6-10.1C114,124.1,94.1,127,72.8,127c-4.2,0-7.3-.1-9.3-.2a9.74,9.74,0,0,1-.1,1.6,9.74,9.74,0,0,0-.1,1.6q0,24.9,16.8,44C85.2,164,93.3,154.4,104.4,145.4Z"/><path d="M130,10A120,120,0,1,0,250,130,120,120,0,0,0,130,10Zm69.3,160.2A79.69,79.69,0,0,1,130,210a79.69,79.69,0,0,1-80-80,79.69,79.69,0,0,1,80-80,79.69,79.69,0,0,1,80,80A79.06,79.06,0,0,1,199.3,170.2Z"/><path d="M145.5,113.2c1.6,3.4,3.4,7.7,5.4,13,7.9-.7,16.5-1.1,25.8-1.1,6.6,0,13.2.2,19.7.5a64.49,64.49,0,0,0-15.7-38.7Q170.35,102.2,145.5,113.2Z"/><path d="M155,137.4A231.2,231.2,0,0,1,166,186a67,67,0,0,0,30.2-48.7c-7.8-.5-14.9-.8-21.3-.8C169.1,136.6,162.4,136.8,155,137.4Z"/></svg>