<svg id="e6c17bf4-155a-43e8-958a-dd5e3c280e82" data-name="Blue" xmlns="http://www.w3.org/2000/svg" viewBox="0 0 260 260"><path d="M229.31,200a7.87,7.87,0,0,1-6.6-12.28,65.67,65.67,0,0,0,0-73.66,7.82,7.82,0,0,1,2.2-11,8,8,0,0,1,11.1,2.18,81.44,81.44,0,0,1,0,91.28A8.1,8.1,0,0,1,229.31,200Z"/><path d="M206.52,187.13a7.76,7.76,0,0,1-4.5-1.39,7.88,7.88,0,0,1-2.1-11,41.89,41.89,0,0,0,7.4-24,42.43,42.43,0,0,0-7.4-24,7.9,7.9,0,0,1,2.1-11,8.07,8.07,0,0,1,11.1,2.08,58.11,58.11,0,0,1,0,65.74A7.93,7.93,0,0,1,206.52,187.13Z"/><path d="M169.23,116.44c-3.1-31.69-30.18-56.44-63-56.44a63.46,63.46,0,0,0-60,42.38A42.24,42.24,0,0,0,10,144C10,167.13,29.09,186,52.58,186h109a35.17,35.17,0,0,0,7.69-69.6Zm-7.69,53.86h-109a26.29,26.29,0,1,1,18.79-44.85,8.1,8.1,0,0,0,11.3,0,7.89,7.89,0,0,0,0-11.19,42.4,42.4,0,0,0-19.59-11,47.56,47.56,0,0,1,43.08-27.43c26.09,0,47.38,21,47.38,46.83a45.1,45.1,0,0,1-2.4,14.66,7.89,7.89,0,0,0,5.1,10,7.5,7.5,0,0,0,2.5.39,8,8,0,0,0,7.59-5.44,73.49,73.49,0,0,0,2.4-9.51,19.38,19.38,0,0,1-7.19,37.53Z"/></svg>