<svg id="be8c4797-2cfd-4ee1-a5a3-3413eac562c7" data-name="Blue" xmlns="http://www.w3.org/2000/svg" viewBox="0 0 260 260"><defs><style>.b28314ad-9607-48cc-ad88-cb15c0c25256{fill-rule:evenodd;}</style></defs><polygon points="20 56 120 116.3 120 116.3 20 56"/><path d="M234.5,30H5.5A5.55,5.55,0,0,0,0,35.5H0v169A5.55,5.55,0,0,0,5.5,210H122.9a84.94,84.94,0,0,1-8.1-73.1L20,79.9V56l100,60.3h0l3.8,2.3A85,85,0,0,1,240,92.9V35.5A5.55,5.55,0,0,0,234.5,30Z"/><path class="b28314ad-9607-48cc-ad88-cb15c0c25256" d="M260,165a65,65,0,1,0-65,65A65,65,0,0,0,260,165Zm-98.6,9.9,7.7-7.7,20.2,20.3-.2-65.8,10.7,10.8v55.2L220.6,167l7.8,7.7-33.7,33.6Z"/></svg>