<svg id="a676baff-f062-442c-96e1-63e934beb5a5" data-name="Blue" xmlns="http://www.w3.org/2000/svg" viewBox="0 0 260 260"><defs><style>.e0d78981-01ec-42c7-9d97-a7b19269e310{fill-rule:evenodd;}</style></defs><path class="e0d78981-01ec-42c7-9d97-a7b19269e310" d="M250,98.1V47.5c0-3.7-1.4-7.5-5-7.5H18c-3.6,0-8,3.8-8,7.5V98.1c17,0,31.6,14.6,31.6,32.6S27,163.4,10,163.4V214c0,3.7,4.4,6,8,6H245c3.6,0,5-2.3,5-6V163.4c-17,0-31.6-14.6-31.6-32.6S233,98.1,250,98.1ZM91.5,79.9a20.1,20.1,0,1,1-20,20.2V100a20,20,0,0,1,20-20.1Zm80,100.5a20.1,20.1,0,1,1,20-20.2v.1A20,20,0,0,1,171.5,180.4Zm-70-.4h-30l90-101h30Z"/></svg>