<svg id="b1258812-c1ab-48c6-9be9-10091e3592f7" data-name="Blue" xmlns="http://www.w3.org/2000/svg" viewBox="0 0 260 260"><path d="M217.6,80.12c5,8,20.14,12,22.16,20.95s-9.07,20-9.07,28.94c0,10,11.08,21,9.07,28.94-2,9-18.13,13-22.16,21-5,8,0,22.95-7,29.94s-22.15,2-30.2,7-12.09,20-21.15,22-20.14-9-29.2-9-21.15,12-29.2,10c-9.06-2-13.09-18-21.15-22-8.05-5-23.16,0-30.2-7s-2-22-7.05-29.94-20.14-12-22.16-21,9.07-20,9.07-28.94c0-10-11.08-21-9.07-28.94,2-10,17.12-14,22.16-21.95s0-23,7.05-29.94,22.15-2,30.2-7S90.73,23.24,99.79,20.24c9.06-2,20.14,9,29.2,9s21.15-11,30.21-9,13.09,18,21.15,22c8.05,5,23.16,0,30.2,7S212.57,72.13,217.6,80.12ZM49.45,130c0,43.91,36.25,79.83,80.55,79.83s80.55-35.92,80.55-79.83S174.3,50.18,130,50.18,49.45,86.1,49.45,130Zm10.06,0c0-38.92,31.22-69.85,70.49-69.85S200.49,91.09,200.49,130,169.27,199.86,130,199.86,59.51,168.93,59.51,130Zm107.75-15v-8h-28.2V149h9.06V132h15.11l-1-7h-14.1V115ZM130,153h-4c-4,0-8,0-9.06-4C126,147,133,140,133,127c0-15-10.07-22-20.14-22s-20.14,7-20.14,22c0,12,6.05,19,15.11,21,0,7,5,11,14.09,11H129Zm-27.19-25c0-9,4-14,11.08-14,6,0,11.08,5,11.08,14s-4,14-11.08,14C106.84,143,102.81,137,102.81,128Z"/></svg>