<svg id="b25c4c42-7728-4001-ac3b-9b213628352b" data-name="Blue" xmlns="http://www.w3.org/2000/svg" viewBox="0 0 260 260"><path d="M239,100H227.61L207.82,32.1A3.14,3.14,0,0,0,205,30H55.58a3.14,3.14,0,0,0-2.8,2.1L32.09,100H20.9A10.93,10.93,0,0,0,10,110.9h0v10.9A11.18,11.18,0,0,0,20.9,133H30v86.1A10.93,10.93,0,0,0,40.89,230H53.58a10.59,10.59,0,0,0,10.5-10.9V210H195v9.1a10.84,10.84,0,0,0,10.8,10.9h11c6,0,13.2-4.9,13.2-10.9V133h9.09A11.12,11.12,0,0,0,250,121.8V110.9A11.08,11.08,0,0,0,239,100ZM70,50h120l15,50H55ZM65,160a15,15,0,1,1,15-15,15,15,0,0,1-15,15Zm134.44.5a15,15,0,1,1,15-15,15,15,0,0,1-15,15Z"/><polyline points="109.46 84.3 129.25 64.5 77.47 64.5 71.47 84.5"/><polyline points="188.43 84.5 182.43 64.5 149.04 64.5 129.35 84.3"/></svg>