<svg id="b72d01da-a428-4c35-a587-3ec33dde3d27" data-name="Blue" xmlns="http://www.w3.org/2000/svg" viewBox="0 0 260 260"><path d="M195,130a65,65,0,1,0,65,65,65,65,0,0,0-65-65Zm32.7,97.5-11.1,2.1-3-16.2-12.9-7.8v14.6l11.7,11.7-8,7.9-9.3-9.3-9.6,9.5-8-7.9,11.9-11.7V205.6l-12.9,7.8-3,16.2-11.1-2,2.5-13.2L152,212l2.1-11,16.4,3,13.8-8.4L170.2,187,154,190l-2.1-11,12.9-2.4-2.5-13.2,11.1-2.1,3.1,16.4,12.9,7.8V169.8l-11.8-11.7,8-7.9,9.3,9.3,9.6-9.5,8,7.9-11.8,11.7v15.9l12.9-7.8,3.1-16.4,11.1,2-2.5,13.2,12.9,2.4-2.1,11-16.2-3-14.1,8.5,13.8,8.4,16.4-3,2.1,11-12.9,2.4Z"/><path d="M113.3,218.4A89.92,89.92,0,0,1,41.6,113.3c9.3-48.8,56.3-81,105.1-71.7a89.85,89.85,0,0,1,71.7,71.7A84.89,84.89,0,0,1,250,130.2V130A120,120,0,1,0,130,250h.2A84.89,84.89,0,0,1,113.3,218.4Z"/><path d="M110.1,197.1a69.92,69.92,0,0,1-22-11l29-29A30.14,30.14,0,0,1,103,143L74,172a70.76,70.76,0,0,1-13.2-31.9h41a29.85,29.85,0,0,1,0-20h-41A70.31,70.31,0,0,1,74,88.2l29,29a30.14,30.14,0,0,1,14.1-14.1l-29-29A69.23,69.23,0,0,1,120,60.9v41a29.85,29.85,0,0,1,20,0v-41a69.38,69.38,0,0,1,31.9,13.3l-29,29A30.14,30.14,0,0,1,157,117.3l29-29a69.92,69.92,0,0,1,11,22,92.75,92.75,0,0,1,10.6.9,80,80,0,1,0-96.7,96.5A75.64,75.64,0,0,1,110.1,197.1Z"/><path d="M123.6,148.9a85.94,85.94,0,0,1,25.3-25.3,20,20,0,1,0-25.3,25.3Z"/></svg>