<svg id="b921e2eb-7c6b-480b-8d9e-dc844c2e99e1" data-name="Blue" xmlns="http://www.w3.org/2000/svg" viewBox="0 0 260 260"><ellipse cx="129.9" cy="209.93" rx="19.98" ry="20.03"/><path d="M50,199.92V169.86H10V250H50V220h51.65a30.06,30.06,0,0,1,0-20Z"/><polygon points="241.31 109.46 236.31 118.08 219.03 108.06 189.05 160.15 206.34 170.16 201.34 178.78 210.03 183.79 250 114.47 241.31 109.46"/><path d="M95.23,82.72l95.22,55.09,30-52.09L92.33,11.6A12,12,0,0,0,76,16L32,92.33l88.13,51.09v38.16a29.83,29.83,0,0,1,19.78.1V154.84l30.58,17.63,15-26.05L81.64,86.32Zm-11-41.07a10,10,0,1,1,3.7,13.62h0a10,10,0,0,1-3.7-13.62Z"/></svg>