<svg id="f6a34f19-28d8-4c42-80ec-a2b055dff1cf" data-name="Blue" xmlns="http://www.w3.org/2000/svg" viewBox="0 0 260 260"><polygon points="10 10 10 10.3 10 32.3 10 240 30.2 240 30.2 30.3 240 30.3 240 10 10 10"/><polygon points="75 160.5 75 190.4 75 239.3 95 239.3 95 180.3 115 180.3 115 239.3 135 239.3 135 190.4 135 160.5 135 100.4 75 100.4 75 160.5"/><circle cx="105" cy="70.2" r="20"/><polygon points="50.1 179.6 65.1 164.6 65.1 100.4 50.1 100.4 50.1 179.6"/><polygon points="144.5 100.4 144.5 164.6 159.5 179.6 159.5 100.4 144.5 100.4"/><polygon points="201.7 103.4 201.7 129.2 220.9 148.4 220.9 103.4 240 103.4 211.3 69.9 182.6 103.4 201.7 103.4"/><polygon points="220.9 196.4 220.9 170.6 201.7 151.5 201.7 196.4 182.6 196.4 211.3 229.9 240 196.4 220.9 196.4"/></svg>