<svg id="e1d91635-d3fe-4e0e-af3b-7fd0dee46438" data-name="Blue" xmlns="http://www.w3.org/2000/svg" viewBox="0 0 260 260"><defs><style>.a8d92997-716c-4a07-bb30-57604f55754f{fill-rule:evenodd;}</style></defs><path class="a8d92997-716c-4a07-bb30-57604f55754f" d="M97.64,44.6c-3.12-3.1-5.44-2.7-6,1.5L81.81,120l52,52.41,72-9.6c4.23-.6,5.94-4.2,2.82-7.3Z"/><path class="a8d92997-716c-4a07-bb30-57604f55754f" d="M179,104.61h23.7A47.32,47.32,0,0,0,155.42,57.3h-.1V81A23.65,23.65,0,0,1,179,104.61Z"/><path class="a8d92997-716c-4a07-bb30-57604f55754f" d="M155.32,10V33.7a70.91,70.91,0,0,1,71,70.91H250A94.65,94.65,0,0,0,155.32,10Z"/><path class="a8d92997-716c-4a07-bb30-57604f55754f" d="M107.72,197.62l13-13L68.1,132,21.92,178.12c-3.13,3.1-2.12,9.1.8,11.9l41.14,41.1c2.83,2.8,7.56,2.6,10.69-.4l13.31-13.3,29.24,29.2a11.56,11.56,0,0,0,16.34,0h0l3.53-3.5a11.59,11.59,0,0,0,0-16.4Z"/></svg>