<svg id="fefcaccc-46d4-447d-ab6b-f07bf5f6f9a3" data-name="Blue" xmlns="http://www.w3.org/2000/svg" viewBox="0 0 260 260"><defs><style>.ef9a6044-3748-4aa3-bffa-c5c99d6e8f28{fill-rule:evenodd;}</style></defs><path class="ef9a6044-3748-4aa3-bffa-c5c99d6e8f28" d="M206.6,189a20.14,20.14,0,1,0,1.8,3.4A22.11,22.11,0,0,0,206.6,189Z"/><path class="ef9a6044-3748-4aa3-bffa-c5c99d6e8f28" d="M86.6,189a20.14,20.14,0,1,0,1.8,3.4A22.11,22.11,0,0,0,86.6,189Z"/><path class="ef9a6044-3748-4aa3-bffa-c5c99d6e8f28" d="M248,121.5,217.5,75.4a11.89,11.89,0,0,0-9.9-5.3H160V51.2A11.4,11.4,0,0,0,148.7,40H10V70H110L90,90H10v20H70L50,130H10v70.1H30a40,40,0,0,1,80,0h40a40,40,0,0,1,80,0h8.1a12,12,0,0,0,11.9-12V128A11.83,11.83,0,0,0,248,121.5Zm-78,8.6v-40h33.2l26.6,40Z"/></svg>