<svg id="a95c2e60-54f1-4b07-9770-4b3adc3bf9a2" data-name="Blue" xmlns="http://www.w3.org/2000/svg" viewBox="0 0 260 260"><defs><style>.bfb0a793-8a21-4d41-9a0a-73a2837c2c4e{fill-rule:evenodd;}</style></defs><path class="bfb0a793-8a21-4d41-9a0a-73a2837c2c4e" d="M118.21,210.52V141.35A53.56,53.56,0,0,1,78.86,89.77V10h1.79l33.59,33.79V10H116l33.59,33.79V10h1.79L185,44.09V89.47h0v.3a53.31,53.31,0,0,1-40.54,51.88v66.27l74.73-75.37s5.66,58.57-12.72,86.36c-15.7,23.79-52,29.69-62.11,30.89v.1h-1c-1.09.1-1.59.1-1.59.1v-.1H118.21v.1s-46.41-3.3-64.69-31.09S40.8,132.55,40.8,132.55l77.41,78Z"/></svg>