<svg id="bb5d13c1-fabd-4504-a4ca-e8903e40c7c8" data-name="Blue" xmlns="http://www.w3.org/2000/svg" viewBox="0 0 260 260"><polygon points="245 175 239.5 145.6 195.8 153.8 158.9 131.4 196.3 108.7 239.5 116.6 245 87.3 210.4 80.9 217 45.7 187.5 40.2 179.3 84 145 104.8 145 62.3 176.4 31.1 155.1 10 129.7 35.3 104.9 10.6 83.6 31.8 115 63 115 104.8 80.7 84 72.4 40.2 42.9 45.7 49.5 80.9 15 87.3 20.5 116.7 63.6 108.7 101.2 131.4 64.3 153.8 20.5 145.7 15 175.1 49.5 181.5 43 216.7 72.5 222.2 80.6 178.9 115 158 115 197.6 83.6 228.9 104.9 250 130.3 224.7 155.1 249.4 176.4 228.2 145.1 197.1 145.1 158.1 179.4 178.9 187.6 222.1 217.1 216.6 210.5 181.4 245 175"/></svg>