<svg id="afe97023-8a60-41fc-bf39-7a5bdc2ef300" data-name="Blue" xmlns="http://www.w3.org/2000/svg" viewBox="0 0 260 260"><polygon points="130.1 10.1 0.1 120.1 20.1 140.1 130.1 50.1 240.1 140.1 260.1 120.1 130.1 10.1"/><path d="M130.1,70.1l-100,80v80a9.94,9.94,0,0,0,9.9,10H220.2a9.94,9.94,0,0,0,9.9-10v-80Zm2.2,140.2c-22.7,0-39.8-14.5-39.8-45,0-30,17.4-44.7,38.7-44.7,17.5,0,28,7.1,34.4,20.7l-16,8.1c-2.9-6.8-8.9-13-18.4-13-13.3,0-19.6,11.1-19.6,29,0,18.2,7,29.7,20.8,29.7,10,0,16.2-6.4,19.1-15.3l16.4,5.7C162.7,200.2,152.2,210.3,132.3,210.3Z"/></svg>