<svg id="bf6c8402-cc50-4993-b730-e59365278cef" data-name="Blue" xmlns="http://www.w3.org/2000/svg" viewBox="0 0 260 260"><path d="M170,130l-40,40A40,40,0,0,0,170,130Z"/><path d="M222,77.9l-34.58,34.6A59.1,59.1,0,0,1,190,129.9a60,60,0,0,1-60,60,58.49,58.49,0,0,1-17.39-2.6L91.27,208.7a119.9,119.9,0,0,0,38.78,6.2c90,0,120-90,120-90A157.3,157.3,0,0,0,222,77.9Z"/><path d="M189.33,50.6C173.33,41.3,153.74,35,130,35,40,35,10,125,10,125s11.9,35.6,43,62L30,210v30l51.68-51.7,11.1-11.1L148.94,121l13.9-13.9L192,77.9,206.92,63l13-13V20Zm-42.89,43A39.28,39.28,0,0,0,130,90.1a40,40,0,0,0-40,40,41.34,41.34,0,0,0,3.5,16.5l-14.6,14.6a59.36,59.36,0,0,1-8.8-31.2,60,60,0,0,1,60-60,59.32,59.32,0,0,1,31.19,8.8Z"/></svg>