<svg id="bebf6a6c-abe2-4c6e-8060-4433854d16a7" data-name="Blue" xmlns="http://www.w3.org/2000/svg" viewBox="0 0 260 260"><path d="M187.14,64.55V31.82H72.86V206.36H187.14V64.55ZM130,80v40h40a40,40,0,1,1-40-40ZM61.43,10H198.57C205.43,10,210,14.36,210,20.91V239.09c0,6.55-4.57,10.91-11.43,10.91H61.43C54.57,250,50,245.64,50,239.09V20.91C50,14.36,54.57,10,61.43,10ZM130,239.09c6.86,0,11.43-4.36,11.43-10.91s-4.57-10.91-11.43-10.91-11.43,4.37-11.43,10.91S123.14,239.09,130,239.09ZM140,81a42.3,42.3,0,0,1,29,29H140Z"/></svg>