<svg id="f1b30b93-5034-4558-87ce-1794b339c8a1" data-name="Blue" xmlns="http://www.w3.org/2000/svg" viewBox="0 0 260 260"><defs><style>.fadad619-99f6-4bf5-bd65-a057e771d7ec{fill-rule:evenodd;}</style></defs><path class="fadad619-99f6-4bf5-bd65-a057e771d7ec" d="M130.39,58c15.85,0,31.69-8,31.69-8l15.84-40s-31.69,6.43-47.53,6.43S82.86,10,82.86,10L98.7,50S114.55,58,130.39,58Z"/><path class="fadad619-99f6-4bf5-bd65-a057e771d7ec" d="M173.44,60l-.19.38-4.87,2.5c-1.91,1-19.38,9.5-38.08,9.5s-36.08-8.54-38.09-9.5l-3.91-2C67.78,75.57,25.78,108.5,25,154.29,23.68,230.8,92.4,250,131.44,250c36.94,0,103.46-19.2,103.56-95.71C235.1,107.63,193.39,74.42,173.44,60Zm-7.17,83-8.5,8.54-22.33-22.37.19,72.58L123.89,189.9V129.14L101,152l-8.59-8.54,37-37.06Z"/></svg>