<svg id="f56eb61f-f29f-4969-889d-65113109b254" data-name="Blue" xmlns="http://www.w3.org/2000/svg" viewBox="0 0 260 260"><path d="M175.2,104.8a83.74,83.74,0,0,1,24.8,3.7V15a9.94,9.94,0,0,0-9.9-10H180L170,15H160V5H150L140,15H130V5H120L110,15H100V5H90L80,15H70V5H60L50,15H40V5H29.9A9.94,9.94,0,0,0,20,15V235a9.94,9.94,0,0,0,9.9,10H40l10-10H60v10H70l10-10H90v10h10l6-6a84.88,84.88,0,0,1,69.2-134.2ZM50,55H160L140,75H50Zm0,60V95h80l-20,20Z"/><path d="M175,125a65,65,0,1,0,65,65,65,65,0,0,0-65-65Zm33.3,73.1H183.1V230H166.9V198.1H135V181.9h31.9V150h16.2v31.9H215Z"/></svg>