<svg id="ef1bf607-9c4f-476b-9ee3-55069458b15f" data-name="Blue" xmlns="http://www.w3.org/2000/svg" viewBox="0 0 260 260"><path d="M10,130.6C10,61.2,58.69,10,130.59,10,202.2,10,250,58.8,250,126.9c0,41.9-21.75,71.2-60.34,71.2-24.2,0-35.46-11.2-40.75-27.8-11,11.9-25.67,23.8-48.1,23.8-25.08,0-41.05-17.2-41.05-48.1,0-51.6,26.65-83.8,58.48-83.8,19.6,0,28.51,7.2,35.56,15.9L156,64.7h37.32l-15,93.1c-2.45,12.8,2.45,19.7,16.85,19.7,19.3,0,33.11-17.8,33.11-49.4,0-57.2-38.59-96.6-98-96.6-59.65,0-97.07,40.9-97.07,99.1,0,57.8,36.14,100,95.51,100,22.63,0,41.63-5,57.6-15.9L196.71,230c-17.73,12.8-42.51,20-69.45,20C55,250,10,199.7,10,130.6Zm132,21.9,7.64-48.1c-6.76-7.5-12.54-10.6-22-10.6-20.18,0-30,24.1-30,48.1,0,14.7,4.6,23.1,19.59,23.1,8.81,0,17.73-5.3,24.78-12.5Z"/></svg>