<svg id="b290515c-9bb1-4333-b21c-df2e2da69541" data-name="Blue" xmlns="http://www.w3.org/2000/svg" viewBox="0 0 260 260"><path d="M239.9,217.9,141.3,119l14.1-14.1L91.8,41.2,42.3,90.7,106,154.3l14.1-14.1,98.7,98.7s10.4,3.8,17.2-3S239.9,217.9,239.9,217.9Z"/><path d="M175.5,84.8a11.86,11.86,0,0,0-.2-16.8L128.7,21.4a11.86,11.86,0,0,0-16.8-.2L106,27.1l63.6,63.6Z"/><path d="M69.1,174a12,12,0,0,0,17,.3h0l5.8-5.8L28.3,104.9l-3.5,3.5c-5.9,5.9-6.2,15-.9,20.3Z"/><rect x="20" y="210" width="130" height="30"/></svg>