<svg id="b6e5ad63-214a-4ebe-b771-2b0e7b1bb436" data-name="Blue" xmlns="http://www.w3.org/2000/svg" viewBox="0 0 260 260"><defs><style>.a11896f3-84f5-4326-9fd1-cb895d8d9aad{fill-rule:evenodd;}</style></defs><polygon class="a11896f3-84f5-4326-9fd1-cb895d8d9aad" points="166.2 20.2 155.9 10 155.3 10 155.3 44.9 166.2 44.9 166.2 20.2"/><polygon class="a11896f3-84f5-4326-9fd1-cb895d8d9aad" points="106 37.9 91.4 37.9 91 38.3 115.9 63 123.6 55.4 106 37.9"/><polygon class="a11896f3-84f5-4326-9fd1-cb895d8d9aad" points="249.7 115.3 260 105.1 260 104.6 224.8 104.6 224.8 115.3 249.7 115.3"/><polygon class="a11896f3-84f5-4326-9fd1-cb895d8d9aad" points="225.9 46.6 225.9 32.1 225.5 31.7 200.5 56.4 208.2 64 225.9 46.6"/><path class="a11896f3-84f5-4326-9fd1-cb895d8d9aad" d="M213.9,108.7c0-29-23.8-52.5-53.1-52.5a53.33,53.33,0,0,0-48.1,30.2c-.2.4-.5,1.3-.7,1.8,18.6,6.8,35,20.5,41.7,37.3a36.58,36.58,0,0,1,11.9-.7c14.6,1,27,7.1,36.2,17.4a52.38,52.38,0,0,0,12.1-33.5Z"/><path class="a11896f3-84f5-4326-9fd1-cb895d8d9aad" d="M160.5,240c27.7,0,50.2-22.7,50.2-50.8s-22.5-50.8-50.2-50.8A52.88,52.88,0,0,0,148,140,71.66,71.66,0,0,0,81.7,94.8C42.1,94.8,10,127.3,10,167.3S42.1,240,81.7,240Z"/></svg>