<svg id="e9aae172-1cdd-4737-aa69-747c9aac81ac" data-name="Blue" xmlns="http://www.w3.org/2000/svg" viewBox="0 0 260 260"><ellipse cx="55" cy="214.96" rx="25" ry="25.04"/><ellipse cx="195" cy="214.96" rx="25" ry="25.04"/><path d="M250,149.87V123.43a12.29,12.29,0,0,0-2-6.71L213.6,65.05a12.07,12.07,0,0,0-10-5.31H172a12,12,0,0,0-12,12h0v78.11H110v-10h13.9L150,97.1,122.3,45.32,86.2,105.41,82.8,91.69l29-48.27L38.6,30,12.5,72.76l17.5,22v55.08H22a12,12,0,0,0-12,12v38.05H23.4a35,35,0,0,1,63.2,0h76.7a35,35,0,0,1,63.2,0H238a12,12,0,0,0,12-12v-28H230l10-10Zm-200,0V120l15.6,19.73H90v10Zm130-30V79.77h20l26.7,40.06Z"/></svg>