<svg id="b293870c-3571-4b54-a387-55b41b5c585f" data-name="Blue" xmlns="http://www.w3.org/2000/svg" viewBox="0 0 260 260"><path d="M220,80V220H80L60,240H230.1a9.86,9.86,0,0,0,9.9-9.9V60Z"/><path d="M200,188V32a12,12,0,0,0-12-12H32A12,12,0,0,0,20,32V188a12,12,0,0,0,12,12H188A12,12,0,0,0,200,188Zm-90-18a60,60,0,1,1,60-60A60,60,0,0,1,110,170Z"/><path d="M80,135H66.7a50.44,50.44,0,0,0,29.5,23.1A65.8,65.8,0,0,1,80,135Z"/><path d="M105,152.4V135H91A54.89,54.89,0,0,0,105,152.4Z"/><path d="M85,110a54.34,54.34,0,0,0,2.1,15H105V95H87.1A54.34,54.34,0,0,0,85,110Z"/><path d="M75,110a62.83,62.83,0,0,1,1.8-15H62.3a49.55,49.55,0,0,0,0,30H76.7A68.3,68.3,0,0,1,75,110Z"/><path d="M91,85h14V67.6A54.89,54.89,0,0,0,91,85Z"/><path d="M96.3,61.9A50.35,50.35,0,0,0,66.7,85H80A64.8,64.8,0,0,1,96.3,61.9Z"/><path d="M145,110a62.83,62.83,0,0,1-1.8,15h14.4a49.55,49.55,0,0,0,0-30H143.2A62.83,62.83,0,0,1,145,110Z"/><path d="M123.7,158.1A50.65,50.65,0,0,0,153.3,135H140A64.8,64.8,0,0,1,123.7,158.1Z"/><path d="M123.7,61.9A66.07,66.07,0,0,1,140,85h13.3A50.35,50.35,0,0,0,123.7,61.9Z"/><path d="M127.9,83a56.83,56.83,0,0,0-13-15.5V85h14A18.65,18.65,0,0,0,127.9,83Z"/><path d="M115,135v17.4A54.89,54.89,0,0,0,129,135Z"/><path d="M135,110a54.34,54.34,0,0,0-2.1-15H115v30h17.9A54.34,54.34,0,0,0,135,110Z"/></svg>