<svg id="a62f4a4e-8b8b-4032-8c7e-fcaa54e0d8ca" data-name="Blue" xmlns="http://www.w3.org/2000/svg" viewBox="0 0 260 260"><path d="M213.14,216.6a32,32,0,0,1-27.76-16.1h21.37l12.88-12.9H181.28c-.1-1.1-.2-2.1-.2-3.2s.1-2.2.2-3.2h25.57l12.88-12.9H185.48a32,32,0,0,1,50.43-6.7l9.09-9.1a44.92,44.92,0,0,0-76.6,28.4v.1c-.1,1.1-.1,2.1-.1,3.2A44.9,44.9,0,0,0,245,216l-9.09-9.1A31.18,31.18,0,0,1,213.14,216.6Z"/><path d="M190.87,134.2V130c0-66.2-32.06-110-87.78-110C47.56,20,15,63.8,15,130s32.66,110,88.09,110c26.56,0,47.63-9.9,62.61-27.4a55,55,0,0,1,25.17-78.4Zm-87.78,69.4c-26.57,0-41.75-25.2-41.75-73.6s14.28-72.8,41.75-72.8c26.56,0,41.74,24.3,41.74,72.8S130.25,203.6,103.09,203.6Z"/></svg>