<svg id="a014e75f-d042-419c-a1f1-0b76441e59be" data-name="Blue" xmlns="http://www.w3.org/2000/svg" viewBox="0 0 260 260"><circle cx="192.5" cy="27.5" r="17.5"/><circle cx="225" cy="65" r="15"/><circle cx="227.5" cy="107.5" r="12.5"/><circle cx="217.5" cy="147.5" r="12.5"/><g id="b5a86f85-5efb-48a2-8758-bd83919e85d6" data-name="bed48ca4-efe2-4442-b7e8-6e543ca28319"><path d="M99.18,86.28c-20.22,47.85,15.65,98,15.65,98h0s61-9.55,81-57.48c11.37-27.22-2-59-20.5-71.42h0a30.31,30.31,0,0,0-10.76-4.5h0C142.77,46.4,110.65,59.13,99.18,86.28Z"/></g><g id="f5bb7384-5c88-4efd-98a5-97a98d5e1da2" data-name="ec7b4bbb-166e-41ad-8884-63cfe67850c2"><path d="M86.52,233.53c20-28.74,2.22-67.62,2.22-67.62h0s-42.52-3-62.34,25.83c-11.26,16.36-6.35,39.59,4.54,50.67h0a22,22,0,0,0,6.69,4.64h0C51.79,253.37,75.21,249.83,86.52,233.53Z"/></g></svg>