<svg id="e9c96e80-ecab-47be-a814-5dc5154f3aa4" data-name="Blue" xmlns="http://www.w3.org/2000/svg" viewBox="0 0 260 260"><path d="M100.7,136.26c-2.33-2.33-6.27-3.14-8.59-.81-19.91,19.92-37.59,6.37-59.41,28.21a45,45,0,0,0,63.55,63.6c21.82-21.84,8.28-39.44,28.19-59.46,2.32-2.32,1.51-6.26-.81-8.59Z"/><path d="M223.56,116a56.25,56.25,0,1,0-92.05-19.21L120.2,108.05,79.68,67.5a10.07,10.07,0,0,0-14.25,0l-1.61,1.62a10.07,10.07,0,0,0,0,14.25l112.86,113a10.06,10.06,0,0,0,14.24,0l1.62-1.62a10.08,10.08,0,0,0,0-14.26L152,140l11.22-11.23A56.74,56.74,0,0,0,223.56,116ZM159.9,52.33a33.74,33.74,0,1,1,0,47.73,33.77,33.77,0,0,1,0-47.73Z"/></svg>