<svg id="b1f5c3c8-39c4-48cc-a4d7-e686e86325b8" data-name="Blue" xmlns="http://www.w3.org/2000/svg" viewBox="0 0 260 260"><defs><style>.a14416d2-3ad7-4a18-8690-38ac52e91799{fill-rule:evenodd;}</style></defs><path class="a14416d2-3ad7-4a18-8690-38ac52e91799" d="M201.28,15.34a17.58,17.58,0,0,1,18.12-4.42,15.17,15.17,0,0,1,6.2,3.81,15.7,15.7,0,0,1,3.71,6A16.72,16.72,0,0,1,225,37.34l-64.26,64.51L138.31,78.34Z"/><path d="M34.2,182.83a14.61,14.61,0,0,0,0,20.5L90.66,260l102-102.39L126,90.7Zm17.32,1.11a12.91,12.91,0,1,1,0,18.29A12.89,12.89,0,0,1,51.52,183.94Z"/></svg>