<svg id="bb77520a-9342-4cef-9be8-63249f14def8" data-name="Blue" xmlns="http://www.w3.org/2000/svg" viewBox="0 0 260 260"><defs><style>.b46e80c3-9726-4bcc-b54c-e8a1f4a73404{fill-rule:evenodd;}</style></defs><g id="f5ce59c7-83e4-439e-9053-086560b40c8c" data-name="Portfolio"><path id="aabb2077-f0c9-459d-a8b1-f450291199eb" data-name="Combined-Shape" class="b46e80c3-9726-4bcc-b54c-e8a1f4a73404" d="M80,70V40A10,10,0,0,1,90,30h80a10,10,0,0,1,10,10V70h50a10,10,0,0,1,10,10V220a10,10,0,0,1-10,10H30a10,10,0,0,1-10-10V80A10,10,0,0,1,30,70Zm20-20V70h60V50ZM50,100v20h60l20-20Z"/></g></svg>