<svg id="aae26756-1863-4363-ae15-f5e2a2743399" data-name="Blue" xmlns="http://www.w3.org/2000/svg" viewBox="0 0 260 260"><g id="a82b5e15-529b-4043-a5c5-ce74922094b6" data-name="icons"><polygon points="225 130 185 130 185 160 145 120 185 80 185 110 245 110 225 130"/><path d="M155,150v60H35V30H155V90l20-20V20a10,10,0,0,0-10-10H25A10,10,0,0,0,15,20V240a10,10,0,0,0,10,10H165a10,10,0,0,0,10-10V170ZM95,240a10,10,0,1,1,10-10A10,10,0,0,1,95,240Z"/><path d="M94,156.1c-9.77,0-19.55-4.34-27.15-8.68L64.69,163.7a63.87,63.87,0,0,0,21.72,6.51v10.85L106,190.83V170.21c13-3.26,21.73-13,21.73-27.13,0-15.2-7.61-21.71-27.16-30.39-13-5.43-16.29-8.68-16.29-15.19,0-5.43,4.34-10.86,13-10.86,7.61,0,15.21,3.26,22.81,7.6l1.09-17.36c-5.43-2.17-9.78-4.35-16.29-5.43V60.6L85.32,50.83v21.7c-11.94,3.26-19.55,13-19.55,26.05,0,15.19,7.61,21.71,26.07,29.3,14.12,6.52,17.38,8.69,17.38,16.28C108.13,151.76,102.7,156.1,94,156.1Z"/></g></svg>