<svg id="b1f51a30-d55a-4dda-8722-5b572466b8a5" data-name="Blue" xmlns="http://www.w3.org/2000/svg" viewBox="0 0 260 260"><path d="M228,20H32A12,12,0,0,0,20,32V228a12,12,0,0,0,12,12H228a12,12,0,0,0,12-12V32A12,12,0,0,0,228,20Zm-8,200H40V40H220Z"/><path d="M200,60H60V200H200Zm-66.9,96.4h-11V121H122a93.66,93.66,0,0,1-2.9,11.6l-7.8,23.8H101.2l-7.7-23.8a85.54,85.54,0,0,1-3-12.1h-.2v35.9H80.2V104.6H95.3l11.6,38.1h.1l10.8-38.1h15.4v51.8Zm7.1,0v-1.1c0-7.5,1.8-14.8,15.5-23.5,8.1-5.1,11.2-7.1,11.2-12.3,0-3.8-2.4-6.3-6.8-6.3-4.1,0-8.5,2.7-11.6,7.6l-7.6-6.2c4.3-6.7,10.4-10.8,19.5-10.8,11.1,0,17.5,5.9,17.5,15.1,0,5.7-1.5,10.8-11.5,17.2-7.5,4.8-12.5,8.6-12.7,11.7h23.7l1.7,8.9H140.2Z"/></svg>