<svg id="ae5b365f-ec9b-4683-93c2-1be5af19052d" data-name="Blue" xmlns="http://www.w3.org/2000/svg" viewBox="0 0 260 260"><path d="M119.64,21.3c0-6.6.1-11.3-6.5-11.3H22.4C15.8,10,10,14.7,10,21.3V70.1H119.64Z"/><path d="M10,249.9H119.64V90.4H10ZM60,110.4H99.84L80,130.2H60Z"/><rect x="169.86" y="20.1" width="40.02" height="24.9"/><polygon points="239.9 90.5 239.9 90.5 209.88 60.5 169.86 60.5 139.85 90.5 129.95 90.5 129.95 111 250 111 250 90.5 239.9 90.5"/><path d="M140.25,250H239.9V150.2H140.25Zm20.41-59.9h60v39.1h-60Z"/></svg>