<svg id="a514b91b-5036-4504-af24-132462b91a56" data-name="Blue" xmlns="http://www.w3.org/2000/svg" viewBox="0 0 260 260"><defs><style>.eae7cdcc-b332-45ad-885c-09215ca9955b{fill-rule:evenodd;}</style></defs><g id="b014b539-0e3d-4c27-8cd8-e6e4667ff556" data-name="No-Draw"><path id="acf3a16b-e4c4-4602-91db-b6d19ba42494" data-name="icon-nodraw" class="eae7cdcc-b332-45ad-885c-09215ca9955b" d="M178.78,96.57A82.28,82.28,0,0,1,198.52,99L226.66,70.7a9.53,9.53,0,0,0,0-13.53L192.52,22.85a9.46,9.46,0,0,0-13.47,0l-15.2,16.29,33.33,33.48H168.61l-19-19.14L20,182.65v47.82H67.61L99,198.94A82.28,82.28,0,0,1,178.78,96.57m32.5,103-11.81,11.8-21.64-22.14-22.18,22.17-11.3-11.3,22.17-22.18L144.35,155.7l11.3-11.3,22.18,22.17L200,144.4l11.3,11.3-22.17,22.17ZM177.83,115.7A62.18,62.18,0,1,0,240,177.87a62.18,62.18,0,0,0-62.17-62.17Z"/></g></svg>