<svg id="b58eabcd-715d-4c7a-b62a-32fe3fe324c6" data-name="Blue" xmlns="http://www.w3.org/2000/svg" viewBox="0 0 260 260"><path d="M250,119.77c-.12-11-9.42-19.77-20.46-19.77H160a69.63,69.63,0,0,0,10-36,71.66,71.66,0,0,0-4.92-25.84A12.85,12.85,0,0,0,153,30a13.06,13.06,0,0,0-13,12.57,70,70,0,0,1-64.42,67.21,6,6,0,0,0-5.58,6v11.49h0V212.8a12,12,0,0,0,6.09,10.45A130.52,130.52,0,0,0,140,240h59.49c11,0,20.27-8.6,20.51-19.56a19.94,19.94,0,0,0-5.58-14.28A20,20,0,0,0,230,186.67h0a20,20,0,0,0-5.58-13.84A20,20,0,0,0,240,153.33h0a20,20,0,0,0-5.58-13.84A20,20,0,0,0,250,119.77Z"/><path d="M45.2,110H14.82c-2.64,0-4.82,2.71-4.82,6v98c0,3.31,2.15,6,4.79,6H45.2c2.65,0,4.8-2.69,4.8-6V116C50,112.71,47.85,110,45.2,110Z"/></svg>