<svg id="f62c5a64-97bf-4084-8ddb-13b9c8e5e4d3" data-name="Blue" xmlns="http://www.w3.org/2000/svg" viewBox="0 0 260 260"><path d="M90.09,201.52V181.38h19.69a88.06,88.06,0,0,1,60.39-69.45V100.8h20v7.42c2-.1,4-.2,6-.2a86.3,86.3,0,0,1,34,6.91V38.86c0-5.41-3.5-8.72-9-8.72h-21V10h-20V30.14H60V10H40V30.14H21c-5.6,0-11,3.21-11,8.72V220.47c0,5.41,5.5,11.22,11,11.22h94.78a88.15,88.15,0,0,1-7.2-30.27Zm20-40.29h-20V141.09h20Zm0-40.28h-20V100.8h20Zm40,0h-20V100.8h20ZM40,60.41H201.16l-20,20.15H40ZM70,201.52H50V181.38H70Zm0-40.29H50V141.09H70Z"/><path d="M229.56,139.59A64.72,64.72,0,0,0,148,149.71,65.92,65.92,0,0,0,129.88,195c0,1.8.1,3.61.2,5.41a65.08,65.08,0,1,0,99.48-60.83Zm-40.09,11.72,10.79,10.93V189.5h27.1l-10.8,10.92H189.47Z"/></svg>