<svg id="a149644c-ebb5-4a58-9acc-5a8849ae418e" data-name="Blue" xmlns="http://www.w3.org/2000/svg" viewBox="0 0 260 260"><path d="M180,125a65,65,0,1,0,65,65A65,65,0,0,0,180,125Zm0,100.1a34.93,34.93,0,0,1-34.9-34.9,20.9,20.9,0,0,1,.1-2.5h-.1l.1-.1a34.78,34.78,0,0,1,59.3-22.1l-7,7a25,25,0,0,0-39.2,5.1H185v.2l-10,10H155.2a20.08,20.08,0,0,0-.1,2.5,20.9,20.9,0,0,0,.1,2.5H185l-10,10H158.4a25,25,0,0,0,39.2,5.1l7,7A34.69,34.69,0,0,1,180,225.1Z"/><path d="M172.9,5H27A12,12,0,0,0,15,17V233a12,12,0,0,0,12,12h88.2a85.4,85.4,0,0,1-16.5-30H35l20-20H95.2c-.1-1.7-.2-3.3-.2-5a93,93,0,0,1,1.3-15H65l20-20h17.5a86.18,86.18,0,0,1,22.7-30H55v-9.1A40.71,40.71,0,0,1,85.9,76.2a30.94,30.94,0,0,0,28.2,0,40.77,40.77,0,0,1,30.7,36.4,84.11,84.11,0,0,1,35.1-7.6c1.7,0,3.3.1,5,.2V17A12,12,0,0,0,172.9,5ZM100,70.2a22.5,22.5,0,1,1,22.5-22.5A22.47,22.47,0,0,1,100,70.2Z"/></svg>