<svg id="bd8d7dba-ccdc-443a-956b-b2485aad5bb3" data-name="Blue" xmlns="http://www.w3.org/2000/svg" viewBox="0 0 260 260"><g id="e1626601-764b-4429-8d99-ed36a57d89e7" data-name="settings"><path id="a026aaa8-ab3b-4ccd-a64a-570c7b0e1618" data-name="icon-settings" d="M130,179.93a50,50,0,1,1,50-50,50,50,0,0,1-50,50m118.5-55.68L193.41,26.3a11.89,11.89,0,0,0-10.5-6.3H77.1a11.89,11.89,0,0,0-10.5,6.3l-55.1,98a11.77,11.77,0,0,0,0,11.5L66.6,233.7A11.89,11.89,0,0,0,77.1,240H182.81a11.89,11.89,0,0,0,10.5-6.3l55.1-97.95a11.52,11.52,0,0,0,.1-11.5"/></g></svg>