<svg id="b48ffd4e-dcee-4c3a-a7f2-5e64351d41b5" data-name="Blue" xmlns="http://www.w3.org/2000/svg" viewBox="0 0 260 260"><path d="M230,102.27S216.8,89,182.8,78.6l-6.3-1.81a25,25,0,1,1-49.8-4.21c.1-.9.2-1.7.3-2.5l-7-.71-88.2,66.5a6.23,6.23,0,0,0-1.8,4.41v103.4A6.26,6.26,0,0,0,36.2,250a6.75,6.75,0,0,0,1.4-.2l187.5-43.13a6.32,6.32,0,0,0,4.9-6.11V102.27Zm-20.7,91.27L47.2,230.74V210l171.6-39.41Zm0-41.53L47.2,189.32V168.56l171.6-39.41Z"/><path d="M151.6,89.73a15,15,0,1,1,15-15h0A15,15,0,0,1,151.6,89.73Z"/><path d="M155.2,59.24l-.1.2s14.2-2.4,24.4-6.92,15.8-22.66,15.8-22.66-22.2,4.51-29.5,11.73l-.4.4a47.44,47.44,0,0,0,2-4.71C171.5,27,162.6,10,162.6,10S150,29,150,39.29s5.1,20.15,5.1,20.15Z"/></svg>