<svg id="e6435e17-9ce7-43a8-a3ce-a68dc5ee64ac" data-name="Blue" xmlns="http://www.w3.org/2000/svg" viewBox="0 0 260 260"><path d="M222.6,165.91c36-36.16,36.63-94.18,1.2-129.64s-93.33-35-129.36,1.1C80.27,51.65,72,72.32,68.59,93.7c0,0-12,90-18.57,96.68L10,228.83,31.16,250S70.69,212.05,71,211.75c6.89-6.89,95.12-19.68,95.32-19.78C187.66,188.58,208.42,180.19,222.6,165.91Zm-6-73.31a10,10,0,1,1-14.07,0h0A9.92,9.92,0,0,1,216.61,92.6ZM192.55,68.53a10,10,0,1,1-14.07,0h0A9.92,9.92,0,0,1,192.55,68.53Zm-49,63.12a10,10,0,1,1,0-14.08h0a10,10,0,0,1,0,14.08ZM168.4,44.36a10,10,0,1,1-14.07,0h0A9.92,9.92,0,0,1,168.4,44.36ZM117.9,56.84a10,10,0,1,1,0,14.09h0A10,10,0,0,1,117.9,56.84Zm-12.58,50.74a10,10,0,1,1,14.07,0h0A9.92,9.92,0,0,1,105.32,107.58ZM142,81a10,10,0,1,1,0,14.09h0A10,10,0,0,1,142,81ZM79.07,181.69l6.49-39.45,32.93,32.95ZM166,119.17a10,10,0,1,1,14.08,0h0a10,10,0,0,1-14.08,0Zm-12.47,36.65a10,10,0,1,1,14.07,0h0a9.94,9.94,0,0,1-14.07,0Zm36.53-12.59a10,10,0,1,1,14.07,0h0a9.92,9.92,0,0,1-14.07,0Z"/></svg>