<svg id="a825634f-b3d9-4064-b16c-9e760b481d89" data-name="Blue" xmlns="http://www.w3.org/2000/svg" viewBox="0 0 260 260"><defs><style>.b982648a-276c-4bc6-aaad-e33ae0b697ca{fill-rule:evenodd;}</style></defs><g id="a348d78c-38a6-4432-b361-246436e5bcb0" data-name="Mobile"><path id="a12f573b-8645-42ac-b3eb-33f9489928b4" data-name="Combined-Shape" class="b982648a-276c-4bc6-aaad-e33ae0b697ca" d="M70,20H190a10,10,0,0,1,10,10V230a10,10,0,0,1-10,10H70a10,10,0,0,1-10-10V30A10,10,0,0,1,70,20ZM80,40V200H180V40Zm20,20h60v50l-60,60Zm30,170a10,10,0,1,0-10-10A10,10,0,0,0,130,230Z"/></g></svg>