<svg id="e537db16-22ba-4338-8fcc-8f221ff67e6b" data-name="Blue" xmlns="http://www.w3.org/2000/svg" viewBox="0 0 260 260"><path d="M30,104.64c0,71.91,100.21,155.2,100.21,155.2s58.71-49,86.41-104.27l.62-1.2c.83-1.59,1.45-3.09,2.18-4.69l.62-1.3c.73-1.6,1.35-3.29,2.08-4.89l.41-1,1.25-3.4h0A107.8,107.8,0,0,0,230,113.63H129.69C124.61,121,114.34,136.3,114,137s10.48,16,15.67,23.37h30C155,167,150,173.75,144.21,180.54c-4.67,5.69-9.44,11-13.9,15.88-4.36-4.5-8.71-9.59-13.28-14.88-25.31-30.16-39.93-58.22-39.93-77,.72-28.36,25.1-50.73,54.56-50,23.55.5,43.88,15.88,50.1,37.65h47.93c-7.16-47.44-49.59-82.39-99.38-82C75.54,9.57,30.62,51.91,30,104.64"/></svg>