<svg id="b04c36a5-4453-4a90-84ec-ab2049aaa711" data-name="Blue" xmlns="http://www.w3.org/2000/svg" viewBox="0 0 260 260"><polygon points="218.3 150.8 172.5 227.6 186.8 227.6 232.6 150.8 218.3 150.8"/><path d="M234.8,178.3c-12.8,0-20.8,10-20.8,25.2,0,15,7.8,25.1,20.7,25.1s20.7-10.2,20.7-25.2S247.6,178.3,234.8,178.3Zm0,39.7c-5.1,0-7.1-5.4-7.1-14.6,0-8.9,2-14.3,7-14.3s7,5.2,7,14.3S239.8,218,234.8,218Z"/><path d="M139.7,174.7c0-21,12.4-35.1,30.8-35.1a31.19,31.19,0,0,1,8.8,1.2q.3-5.25.3-10.8c0-66.2-31.9-110-87.4-110C37,20,4.6,63.8,4.6,130S37,240,92.2,240c28.9,0,51.3-11.9,66.2-32.5C146.9,202.7,139.7,190.7,139.7,174.7ZM92.2,203.6c-26.5,0-41.5-25.2-41.5-73.6S64.9,57.2,92.2,57.2c26.5,0,41.5,24.3,41.5,72.8S119.3,203.6,92.2,203.6Z"/><path d="M191.1,174.6c0-15.1-7.9-25-20.6-25s-20.8,9.9-20.8,25.1,7.8,25.1,20.8,25.1C183.3,199.8,191.1,189.7,191.1,174.6Zm-20.6,14.7c-5.1,0-7.1-5.5-7.1-14.7,0-8.9,2-14.3,7.1-14.3,4.9,0,6.9,5.3,6.9,14.4S175.4,189.3,170.5,189.3Z"/></svg>