<svg id="ac7d53c1-24d6-4c3e-a20f-47d34abf6bc7" data-name="Blue" xmlns="http://www.w3.org/2000/svg" viewBox="0 0 260 260"><path d="M129.64,137c-4.2-6.2-10.6-10.5-19.1-13a34.94,34.94,0,0,0,14.1-11.59c3.2-4.69,4.8-10.49,4.8-17.58,0-6.6-1.1-12.1-3.2-16.49a26.17,26.17,0,0,0-9-10.7,39.51,39.51,0,0,0-14-5.79,83.13,83.13,0,0,0-18-1.8L20,60.1V200H87a69.22,69.22,0,0,0,18.1-2.4,48.34,48.34,0,0,0,15.71-7.29,34.63,34.63,0,0,0,11-12.59,38.62,38.62,0,0,0,4.1-18.29Q136,146.24,129.64,137ZM50.41,83.88H78.92a41.49,41.49,0,0,1,7.91.7,19.83,19.83,0,0,1,6.7,2.5,13,13,0,0,1,4.7,4.9,16.91,16.91,0,0,1,1.7,8c0,5.8-1.7,10.09-5.2,12.69s-8,3.9-13.4,3.9H50.41Zm53.22,82.64a14.06,14.06,0,0,1-4.9,5.6,23.14,23.14,0,0,1-7.2,2.9,38.86,38.86,0,0,1-8.5.9H50.41V137.54H83.53c6.6,0,11.9,1.5,15.9,4.6s6,8.2,6,15.39A20,20,0,0,1,103.63,166.52Z"/><path d="M237.89,130.75a54.38,54.38,0,0,0-8.8-19.19,45.15,45.15,0,0,0-15.61-13.39c-6.3-3.29-13.81-5-22.31-5a52.38,52.38,0,0,0-20.81,4.09,49.34,49.34,0,0,0-16.21,11.3,50.06,50.06,0,0,0-10.5,17,59,59,0,0,0-3.7,21.19,61.84,61.84,0,0,0,3.6,21.58,48.65,48.65,0,0,0,10.2,16.89,44.28,44.28,0,0,0,16.11,10.89,57.39,57.39,0,0,0,21.31,3.8q17.1,0,29.11-7.79c8-5.2,13.91-13.89,17.81-26.09H213.88c-.9,3.1-3.4,6.1-7.4,8.9a24.2,24.2,0,0,1-14.31,4.19c-7.7,0-13.71-2-17.81-6.09s-6.4-10.59-6.9-19.79h72.33A69.92,69.92,0,0,0,237.89,130.75ZM167.46,136a39.16,39.16,0,0,1,1.3-6.7,20.89,20.89,0,0,1,3.7-7.09,21.85,21.85,0,0,1,7-5.6,24.2,24.2,0,0,1,11-2.3c6.7,0,11.7,1.8,15,5.5s5.6,9,6.8,16.19Z"/><rect x="160.03" y="67.09" width="60" height="15.69"/></svg>