<svg id="f35b13ee-c717-4dbb-8f21-6e69ef5527c8" data-name="Blue" xmlns="http://www.w3.org/2000/svg" viewBox="0 0 260 260"><defs><style>.f5f0aa4d-0e1e-4810-856b-9d8e79791459{fill-rule:evenodd;}</style></defs><polygon class="f5f0aa4d-0e1e-4810-856b-9d8e79791459" points="110.9 112.2 78.8 144.3 107.4 144.2 130.6 121 131 121 131 50.4 110.9 70.6 110.9 112.2"/><path class="f5f0aa4d-0e1e-4810-856b-9d8e79791459" d="M21.7,120a98.32,98.32,0,0,1,196.4-6.8,86,86,0,0,1,21.9,9.7V120A120,120,0,1,0,120,240h2.9a84.51,84.51,0,0,1-9.7-21.9A98.36,98.36,0,0,1,21.7,120Z"/><path class="f5f0aa4d-0e1e-4810-856b-9d8e79791459" d="M195,130a65,65,0,1,0,65,65A65,65,0,0,0,195,130Zm5,52.8-10,10H170.2a20.08,20.08,0,0,0-.1,2.5,20.9,20.9,0,0,0,.1,2.5H200l-10,10H173.4a25,25,0,0,0,39.2,5.1l7,7a34.86,34.86,0,0,1-59.5-24.7,20.9,20.9,0,0,1,.1-2.5h-.1l.1-.1a34.78,34.78,0,0,1,59.3-22.1l-7,7a25,25,0,0,0-39.2,5.1H200Z"/></svg>