<svg id="b5d6b768-9204-4415-875d-05457b537838" data-name="Blue" xmlns="http://www.w3.org/2000/svg" viewBox="0 0 260 260"><defs><style>.ba7114e0-1cd1-45e3-9928-0ebb8f706a92{fill-rule:evenodd;}</style></defs><path class="ba7114e0-1cd1-45e3-9928-0ebb8f706a92" d="M210,164.6V19c0-5-4.9-9-9.9-9H9a9,9,0,0,0-9,9V210l37.4-38H200.1C205.1,172,210,169.6,210,164.6ZM120,110H40V90H140Zm40-40H40V50H180Z"/><path class="ba7114e0-1cd1-45e3-9928-0ebb8f706a92" d="M253.8,100H230v65.7A24.54,24.54,0,0,1,205.3,190H100v21.8c0,3.5,3.1,8.2,6.7,8.2H230.4L260,250V106.5a6.36,6.36,0,0,0-6.2-6.5Z"/></svg>