<svg id="bab153be-43a2-43d2-87c4-76160a43f04d" data-name="Blue" xmlns="http://www.w3.org/2000/svg" viewBox="0 0 260 260"><defs><style>.f03ba9df-c4a1-4517-9d90-b2f8aeabdb2b{fill-rule:evenodd;}</style></defs><path class="f03ba9df-c4a1-4517-9d90-b2f8aeabdb2b" d="M228,20H32A12,12,0,0,0,20,32V228a12,12,0,0,0,12,12H228a12,12,0,0,0,12-12V32A12,12,0,0,0,228,20ZM136,154.5H125V119.2h-.1a93.66,93.66,0,0,1-2.9,11.6l-7.8,23.8H104.1l-7.7-23.8a85.54,85.54,0,0,1-3-12.1h-.1v35.9H83V102.8H98l11.6,38.1h.1l10.8-38.1h15.4Zm7.1,0v-1.1c0-7.5,1.8-14.8,15.5-23.5,8.1-5.1,11.2-7.1,11.2-12.3,0-3.8-2.4-6.3-6.8-6.3-4.1,0-8.5,2.7-11.6,7.6l-7.6-6.2c4.3-6.7,10.4-10.8,19.5-10.8,11.1,0,17.5,5.9,17.5,15.1,0,5.7-1.5,10.8-11.5,17.2-7.5,4.8-12.5,8.6-12.7,11.7h23.7l1.7,8.9H143.1Z"/></svg>