<svg id="Capa_1" data-name="Capa 1" xmlns="http://www.w3.org/2000/svg" viewBox="0 0 260 260"><path d="M120.14,225.3a31.83,31.83,0,0,1,0-45.25L183,117.62A26.06,26.06,0,0,1,201.52,110H250C240.41,53.25,190.72,10,130.84,10,64.1,10,10,63.73,10,130S64.1,250,130.84,250a123.88,123.88,0,0,0,13.42-.74Z"/><path d="M254,130H200.19a6,6,0,0,0-4.24,1.76l-62.44,62.43a12,12,0,0,0,0,17l45.33,45.33a12,12,0,0,0,17,0l62.43-62.44a6,6,0,0,0,1.76-4.24V136A6,6,0,0,0,254,130Zm-29,50a15,15,0,1,1,15-15A15,15,0,0,1,225,180Z"/></svg>