<svg id="b74c7ca2-270d-4d28-b321-6cfee17793eb" data-name="Blue" xmlns="http://www.w3.org/2000/svg" viewBox="0 0 260 260"><polygon points="110 60.24 80 180.09 99.8 180.09 99.8 250 119.8 250 119.8 180.09 139.8 180.09 139.8 235.72 139.8 250 159.8 250 159.8 180.09 180 180.09 150 60.24 110 60.24"/><polygon points="196.2 139.44 175.2 60.24 159.8 60.24 179.9 133.94 196.2 139.44"/><polygon points="100.2 60.24 84.8 60.24 63.8 139.44 80.1 133.94 100.2 60.24"/><path d="M115.9,44.36a20,20,0,0,0,28.1,0h5.9c0-11,4.1-34.36-20-34.36s-20,23.37-20,34.36Z"/></svg>