<svg id="e7c9b637-e3a2-44dd-aadf-8febed47aa04" data-name="Blue" xmlns="http://www.w3.org/2000/svg" viewBox="0 0 260 260"><path d="M238,208.9l-50.79-42.6a6.72,6.72,0,0,0-8.9.4l-7.4,7.4-1.5,1.5-15.3,15.3a145.33,145.33,0,0,1-51.8-33.1A141,141,0,0,1,69.23,106l15.3-15.3,1.4-1.5,7.4-7.39a6.83,6.83,0,0,0,.3-8.9L51.23,22a5.39,5.39,0,0,0-7.59-.8,1.21,1.21,0,0,0-.5.5L24,40.81a5.73,5.73,0,0,0-1.1,1.1l-2.3,2.3h-.3C14.24,146,91.83,233.5,193.63,239.7a207.35,207.35,0,0,0,22.3,0l-.1-.2h0l2.3-2.3,1.1-1.1,19.09-19a5.5,5.5,0,0,0,.2-7.7A1.21,1.21,0,0,0,238,208.9Z"/></svg>