<svg id="b39842fb-c05f-4d11-8a8e-71d9bfac956a" data-name="Blue" xmlns="http://www.w3.org/2000/svg" viewBox="0 0 260 260"><path d="M80.05,10l20,40.07,6,2a75.35,75.35,0,0,0,47.9,0l6-2L180,10l-16.7,3.31a170.17,170.17,0,0,1-66.7,0Z"/><path d="M130,60.08c.3.1-.2-.2,0,0Z"/><path d="M130,60.08c.2-.2-.3.1,0,0Z"/><path d="M170,60.08l-5.3,2.31-6,2A90.1,90.1,0,0,1,130,69.1a90.1,90.1,0,0,1-28.7-4.71l-6-2L90,60.08c-40,27.15-70,67.22-70,105C20,211.94,69.2,250,130,250s110-38.06,110-84.94C240,127.3,210,87.23,170,60.08ZM146.6,191a27.24,27.24,0,0,1-9,5v14.32l-15-8.11v-5.61a60.1,60.1,0,0,1-17.7-6.21l2.4-16.13c6.2,4.51,15.5,7.92,22,7.92,3.7,0,10.6-2.11,10.6-10.12,0-3.51-1.2-5.61-12.8-10.92-9.3-4.31-22.1-10.22-22.1-25.44,0-10.42,7.5-19.23,17.6-21.84V100.15l15,8V114a48.8,48.8,0,0,1,12.4,4.11l-2.5,15.63c-6.5-3.81-12.6-5.61-18.8-5.61-4.9,0-8.7,3.3-8.7,7.61,0,5.11,4.1,7.61,13.4,11.92,9.1,4.21,21.5,9.92,21.5,24.54A24.06,24.06,0,0,1,146.6,191Z"/></svg>