<svg id="bdca7fda-7eaf-4616-b1e2-9c589b9a418f" data-name="Blue" xmlns="http://www.w3.org/2000/svg" viewBox="0 0 260 260"><polygon points="159.82 99.98 99.72 99.98 89.72 219.98 169.82 219.98 159.82 99.98"/><rect x="69.62" y="229.98" width="120.3" height="20"/><path d="M129.72,10a30,30,0,0,0-30.1,30h60.1A29.83,29.83,0,0,0,129.72,10Z"/><path d="M59.62,70a5,5,0,0,0-5-5H25a5,5,0,1,0,0,10h29.6A5,5,0,0,0,59.62,70Z"/><path d="M68.92,102.08a4.93,4.93,0,0,0-6.8-1.8l-20.5,11.8a5,5,0,0,0,2.5,9.3,4.75,4.75,0,0,0,2.5-.7L67.12,109A5.05,5.05,0,0,0,68.92,102.08Z"/><path d="M42.12,28.08l20,11.5a4.51,4.51,0,0,0,2.5.7,5,5,0,0,0,2.5-9.3l-20-11.5a4.91,4.91,0,0,0-6.8,1.8A4.75,4.75,0,0,0,42.12,28.08Z"/><path d="M235,65h-29.6a5,5,0,0,0,0,10H235a5,5,0,0,0,0-10Z"/><path d="M218.52,112.08,198,100.28a5,5,0,1,0-5,8.6l20.5,11.8a4.51,4.51,0,0,0,2.5.7,5,5,0,0,0,2.5-9.3Z"/><path d="M195.42,40.38a4.75,4.75,0,0,0,2.5-.7l20-11.5a5,5,0,0,0-5-8.6l-20,11.4a4.93,4.93,0,0,0-1.8,6.8A4.85,4.85,0,0,0,195.42,40.38Z"/><path d="M95.72,90h68.2c3.3,0,6-2.1,6-4.8V54.78c0-2.7-2.7-4.8-6-4.8H95.72c-3.3,0-6,2.1-6,4.8v30.4C89.72,87.78,92.42,90,95.72,90Z"/></svg>