<svg id="b7a58039-0b90-4eec-b05c-84c08c56c83b" data-name="Blue" xmlns="http://www.w3.org/2000/svg" viewBox="0 0 260 260"><path d="M119.09,211.82V110.36a47.69,47.69,0,0,1-27.27,8.73H86.36V97.27h5.46A27,27,0,0,0,119.09,70V48.18a16.37,16.37,0,0,0-32.73,0v24q0,3.27-3.27,3.27c-5.45-7.63-10.91-10.9-18.54-10.9A21.88,21.88,0,0,0,42.73,86.36c0,3.28,2.18,8.73,5.45,15.28C38.36,108.18,31.82,118,31.82,130c0,9.82,4.36,18.55,12,25.09a41.15,41.15,0,0,1,31.63-14.18c12,0,22.91,4.36,30.55,13.09L90.73,169.27c-3.28-4.36-8.73-6.54-15.28-6.54a21.82,21.82,0,0,0,0,43.63h5.46a5.16,5.16,0,0,1,5.45,5.46,16.37,16.37,0,0,0,32.73,0Zm21.82-101.46V211.82a16.37,16.37,0,0,0,32.73,0,5.16,5.16,0,0,1,5.45-5.46h5.46a21.82,21.82,0,0,0,0-43.63c-6.55,0-12,2.18-15.28,6.54L154,154c7.64-7.64,18.55-13.09,30.55-13.09a41.15,41.15,0,0,1,31.63,14.18c6.55-5.45,12-15.27,12-25.09,0-12-6.54-21.82-16.36-28.36,3.27-6.55,5.45-12,5.45-15.28a21.88,21.88,0,0,0-21.82-21.81c-10.9,0-15.27,4.36-18.54,10.9q-3.27,0-3.27-3.27v-24a16.37,16.37,0,0,0-32.73,0V70a27,27,0,0,0,27.27,27.27h5.46v21.82h-5.46A47.69,47.69,0,0,1,140.91,110.36ZM102.73,250c-15.28,0-28.37-8.73-34.91-22.91-20.73-3.27-36-20.73-36-42.54,0-3.28,0-6.55,1.09-9.82C18.73,164.91,10,148.55,10,130c0-13.09,4.36-25.09,12-33.82-1.09-3.27-1.09-6.54-1.09-9.82A43.76,43.76,0,0,1,64.55,42.73h0C66.73,24.18,83.09,10,102.73,10c10.91,0,20.72,4.36,27.27,12,6.55-7.64,16.36-12,27.27-12,19.64,0,34.91,14.18,38.18,32.73h0a43.76,43.76,0,0,1,43.64,43.63c0,3.28,0,6.55-1.09,9.82,7.64,8.73,12,20.73,12,33.82,0,18.55-8.73,34.91-22.91,44.73,1.09,3.27,1.09,6.54,1.09,9.82,0,21.81-15.27,39.27-36,42.54C186.73,240.18,172.55,250,157.27,250c-10.91,0-20.72-4.36-27.27-12C123.45,245.64,113.64,250,102.73,250Z"/></svg>