<svg id="b3cd8115-3405-4cc7-ae7c-761999155d6c" data-name="Blue" xmlns="http://www.w3.org/2000/svg" viewBox="0 0 260 260"><path d="M61.43,10H198.57C205.43,10,210,14.36,210,20.91V239.09c0,6.55-4.57,10.91-11.43,10.91H61.43C54.57,250,50,245.64,50,239.09V20.91C50,14.36,54.57,10,61.43,10ZM72.86,31.82V206.36H187.14V31.82ZM130,239.09c6.86,0,11.43-4.36,11.43-10.91s-4.57-10.91-11.43-10.91-11.43,4.37-11.43,10.91S123.14,239.09,130,239.09Zm-1.14-84c-10.29,0-20.57-4.36-28.57-8.73L98,162.73a69.47,69.47,0,0,0,22.86,6.54v10.91L141.43,190V169.27c13.71-3.27,22.86-13.09,22.86-27.27,0-15.27-8-21.82-28.58-30.55C122,106,118.57,102.73,118.57,96.18c0-5.45,4.57-10.91,13.72-10.91,8,0,16,3.28,24,7.64l1.14-17.46c-5.72-2.18-10.29-4.36-17.14-5.45V59.09l-20.58-9.82V71.09c-12.57,3.27-20.57,13.09-20.57,26.18,0,15.28,8,21.82,27.43,29.46,14.86,6.54,18.29,8.72,18.29,16.36C143.71,150.73,138,155.09,128.86,155.09Z"/></svg>