<svg id="a3e5a95b-4b54-45f8-afbb-6e6ecfbe6cce" data-name="Blue" xmlns="http://www.w3.org/2000/svg" viewBox="0 0 260 260"><defs><style>.b7dcbf44-ad05-41d2-9ee2-b1884acaf70c{fill-rule:evenodd;}</style></defs><path class="b7dcbf44-ad05-41d2-9ee2-b1884acaf70c" d="M130,10A120,120,0,1,0,250,130,120,120,0,0,0,130,10Zm10,178.9V210l-20-10V189.6a79.55,79.55,0,0,1-27.5-7.7l3.3-20.6c9.7,5.8,21.7,10.4,33.2,10.4,10.2,0,17.2-4.9,17.2-14.3,0-8.7-4-12.2-20.7-19.5-22.4-9.3-31.4-16.8-31.4-35,0-16.9,10.4-28,25.8-31.6V50l20,10V70.4a57,57,0,0,1,21.8,6.7l-3.3,20.4c-8.4-5.6-18.2-9.2-27.2-9.2-11,0-15.9,5.4-15.9,12.6,0,7.5,3.7,11,19.7,17.8,23.7,9.9,32.4,18.2,32.4,36.4C167.5,174,156.3,185.4,140,188.9Z"/></svg>