<svg id="bd56481f-7c17-4a49-b997-95a353b2c454" data-name="Blue" xmlns="http://www.w3.org/2000/svg" viewBox="0 0 260 260"><g id="a2c61430-0326-4b01-acb6-a391de82a742" data-name="icons"><path d="M195.42,74.47a84.93,84.93,0,0,1,24.72,3.68V35H0V175.5H111.84a85,85,0,0,1,83.58-101ZM20,155.39V130.31L79.78,70.09l10,10h14.94L87.25,62.56l16-16.06a5,5,0,0,1,7,0l17.87,18a5,5,0,0,1,0,7.1L44.92,155.39Z"/><path d="M195,94.54a65.23,65.23,0,1,0,65,65.23,65.13,65.13,0,0,0-65-65.23Zm32.52,70.7H182.69q.81,8.34,5.12,11.89a16,16,0,0,0,10.61,3.55,29.53,29.53,0,0,0,11.44-2.28,31.79,31.79,0,0,0,8.88-5.31l7.62,11.67a41,41,0,0,1-13.25,7.57,48.82,48.82,0,0,1-16.17,2.56,45.67,45.67,0,0,1-12.83-1.82,28.35,28.35,0,0,1-18.71-16.8,41.77,41.77,0,0,1-3-16.5q0-9.75,3.34-16.53a31.54,31.54,0,0,1,19.42-16.8,38.6,38.6,0,0,1,11.18-1.79,39.1,39.1,0,0,1,10.75,1.57,24.38,24.38,0,0,1,10,5.75,31.15,31.15,0,0,1,7.41,11.49q2.91,7.32,2.91,18.75Z"/><path d="M196.27,139.17a12.22,12.22,0,0,0-8.42,3.36q-3.73,3.38-4.9,10.72h26.27q-.75-7.11-4-10.59A11.67,11.67,0,0,0,196.27,139.17Z"/></g></svg>