<svg id="a7713448-d6ed-4717-ab07-21b0c2e4d54b" data-name="Blue" xmlns="http://www.w3.org/2000/svg" viewBox="0 0 260 260"><path d="M128.5,138.6H107.4v33.9h20.8s24.4.2,24.4-16.6C152.6,138.9,128.5,138.6,128.5,138.6Z"/><path d="M149.6,103.4c0-17-21.1-15.6-21.1-15.6H107.4v31h20.8S149.6,120.2,149.6,103.4Z"/><path d="M228,20H32A12,12,0,0,0,20,32V228a12,12,0,0,0,12,12H228a12,12,0,0,0,12-12V32A12,12,0,0,0,228,20ZM180.2,158.7c-.1,37.7-46.6,35.3-46.6,35.3H79.8V66H131c49.1-1.2,45.7,31.7,45.7,31.7.3,26.2-24.4,29.4-24.4,29.4v.3C182.4,131.3,180.2,158.7,180.2,158.7Z"/></svg>