<svg id="bdd5d853-4108-4b9b-a73f-be9703ba95fc" data-name="Blue" xmlns="http://www.w3.org/2000/svg" viewBox="0 0 260 260"><defs><style>.bcc7fa4f-6b05-4567-abba-26bc0dd9a907{fill-rule:evenodd;}</style></defs><path class="bcc7fa4f-6b05-4567-abba-26bc0dd9a907" d="M218.55,95.12c0,53.44-43.3,114.88-122.49,114.88A127.44,127.44,0,0,1,30,191.85a87.72,87.72,0,0,0,10.42.51,89.68,89.68,0,0,0,53.43-17.24c-18.94-.41-34.78-12.07-40.19-28a55.37,55.37,0,0,0,8.12.6,53.27,53.27,0,0,0,11.32-1.31c-19.74-3.76-34.48-20-34.48-39.65v-.51a46.29,46.29,0,0,0,19.45,5.18c-11.53-7.3-19.15-19.67-19.15-33.67A38.48,38.48,0,0,1,44.74,57.4c21.15,24.54,53,40.56,88.71,42.28a41,41,0,0,1-1-9.32c0-22.31,19.15-40.36,43-40.36a44.22,44.22,0,0,1,31.47,12.78A87.06,87.06,0,0,0,234.19,53a40.59,40.59,0,0,1-18.95,22.31A90.51,90.51,0,0,0,240,69.06,92.08,92.08,0,0,1,218.45,90C218.55,91.57,218.55,93.4,218.55,95.12Z"/></svg>