<svg id="a843371e-e77d-4193-b699-04a93d52b7f3" data-name="Blue" xmlns="http://www.w3.org/2000/svg" viewBox="0 0 260 260"><defs><style>.f542f47e-e456-4048-8e45-6e5b58f1c69f{fill-rule:evenodd;}</style></defs><path class="f542f47e-e456-4048-8e45-6e5b58f1c69f" d="M130,10A120,120,0,1,0,250,130,120,120,0,0,0,130,10Zm59.7,91.6c.1,1.2.1,2.5.1,3.7,0,37.8-31,81.3-87.7,81.3a92.54,92.54,0,0,1-47.3-12.8,62.28,62.28,0,0,0,7.4.4A65.13,65.13,0,0,0,100.5,162c-13.6-.3-24.9-8.5-28.8-19.8a37.7,37.7,0,0,0,5.8.4,21.73,21.73,0,0,0,6.2-1C69.6,138.9,57,127.4,57,113.5v-.4c0,2.1,10.8,3.5,15.9,3.6-8.3-5.1-12.8-13.9-12.8-23.8a26.84,26.84,0,0,1,4.7-14.4C80,95.9,103,107.2,128.6,108.4a24.61,24.61,0,0,1-.6-6.6c0-15.8,13.8-28.6,30.9-28.6a32.34,32.34,0,0,1,22.6,9,61.92,61.92,0,0,0,19.6-6.9,29.14,29.14,0,0,1-13.5,15.8,64.5,64.5,0,0,0,17.8-4.4A65.23,65.23,0,0,1,189.7,101.6Z"/></svg>