<svg id="a5bbde18-129b-4553-a107-4ba2743133d1" data-name="Blue" xmlns="http://www.w3.org/2000/svg" viewBox="0 0 260 260"><path d="M50,20H66.78a10,10,0,0,1,5.8,1.79l51.57,35.56a10.44,10.44,0,0,0,11.7,0l51.57-35.56a10,10,0,0,1,5.8-1.79H210V169.7a9.67,9.67,0,0,1-3.31,7.18l-70,60.65a10.28,10.28,0,0,1-13.36,0l-70-60.65A9.51,9.51,0,0,1,50,169.7V20ZM91,145.9c11.7,0,18.43-8.87,18.43-22.21S102.71,101.48,91,101.48s-18.54,8.86-18.54,22.21S79.41,145.9,91,145.9Zm0-7.27c-5.59,0-8.8-5.08-8.8-14.84s3-14.64,8.8-14.64c5.59,0,8.8,4.88,8.8,14.64S96.71,138.63,91,138.63Zm41.84,7.27c11.7,0,18.43-8.87,18.43-22.21s-6.73-22.21-18.43-22.21-18.54,8.86-18.54,22.21S121.15,145.9,132.85,145.9Zm0-7.27c-5.59,0-8.8-5.08-8.8-14.84s3-14.64,8.8-14.64c5.59,0,8.8,4.88,8.8,14.64S138.54,138.63,132.85,138.63Zm55.2,6.47-1.45-7.37H166.3c.2-2.59,4.45-5.68,11-9.66,8.49-5.18,9.83-9.46,9.83-14.14,0-7.57-5.49-12.45-15-12.45-7.77,0-13,3.48-16.78,9l6.52,5.18c2.7-4.08,6.43-6.28,9.95-6.28,3.72,0,5.8,2,5.8,5.18,0,4.29-2.7,6-9.64,10.16-11.7,7.18-13.25,13.25-13.25,19.43V145h33.35Z"/></svg>