<svg id="fccff413-243e-4592-b9d6-39cece0d1513" data-name="Blue" xmlns="http://www.w3.org/2000/svg" viewBox="0 0 260 260"><defs><style>.ac201e47-6a7b-4944-b636-7b16265bee64{fill-rule:evenodd;}</style></defs><path class="ac201e47-6a7b-4944-b636-7b16265bee64" d="M131,58c15.85,0,31.69-8,31.69-8l15.84-40S146.88,16.43,131,16.43,83.5,10,83.5,10L99.34,50S115.19,58,131,58Z"/><path class="ac201e47-6a7b-4944-b636-7b16265bee64" d="M174.08,60l-.19.38L169,62.9c-1.91,1-19.38,9.5-38.08,9.5s-36.08-8.54-38.09-9.5l-3.91-2C68.42,75.57,26.42,108.5,25.66,154.29,24.32,230.8,93,250,132.08,250c36.94,0,103.46-19.2,103.56-95.71C235.74,107.63,194,74.42,174.08,60ZM141,191.25l-8.5-8.55,22.24-22.46-72.16.19,11.84-11.81H154.8l-22.72-23,8.5-8.64,36.84,37.25Z"/></svg>