<svg id="e9b734a8-1ba1-4786-a59c-ee68b76a0dd8" data-name="Blue" xmlns="http://www.w3.org/2000/svg" viewBox="0 0 260 260"><path d="M249.9,197.56l.1-.1a160.29,160.29,0,0,0-240,0l.2.1v27.61a4.51,4.51,0,0,0,5.1,4.8l57.3-5a5.83,5.83,0,0,0,5.2-5.7V189.56a124.77,124.77,0,0,1,52.1-11.41A123.07,123.07,0,0,1,182,189.56v29.71a5.92,5.92,0,0,0,5.3,5.7l57.3,5a4.68,4.68,0,0,0,5.2-4.8V201.76a6.55,6.55,0,0,0,0-1.4l.1-2.8Z"/><polygon points="179.9 70.02 199.9 90.02 199.9 30 139.9 30 159.9 50.01 129.9 80.02 79.9 30 59.9 50.01 129.9 120.03 179.9 70.02"/></svg>