<svg id="f20eb688-80fe-4929-87e7-0e1393c9885a" data-name="Blue" xmlns="http://www.w3.org/2000/svg" viewBox="0 0 260 260"><defs><style>.b4273674-29b3-4ded-b4c4-cd242b0ba0d9{fill-rule:evenodd;}</style></defs><path class="b4273674-29b3-4ded-b4c4-cd242b0ba0d9" d="M130,10A120,120,0,1,0,250,130,120,120,0,0,0,130,10ZM83,70A20,20,0,1,1,63,90,20.06,20.06,0,0,1,83,70Zm113.4,87.6a69,69,0,0,1-132.5,0,6,6,0,0,1,4.2-7.4,8.75,8.75,0,0,1,1.6-.2h121a6,6,0,0,1,6,6A4.53,4.53,0,0,1,196.4,157.6ZM177,110a20,20,0,1,1,20-20A20.06,20.06,0,0,1,177,110Z"/></svg>