<svg id="f841aae4-e6d0-4a4b-94a9-5201f3721fd2" data-name="Blue" xmlns="http://www.w3.org/2000/svg" viewBox="0 0 260 260"><defs><style>.a8e332d3-e441-4eb8-a6f5-b773f9f7283e{fill-rule:evenodd;}</style></defs><path class="a8e332d3-e441-4eb8-a6f5-b773f9f7283e" d="M228.45,213.36l-50.92-42.53a6.75,6.75,0,0,0-8.92.4l-7.41,7.39-1.51,1.49-15.33,15.28a145.75,145.75,0,0,1-51.92-33,140.75,140.75,0,0,1-33.18-51.71L74.6,95.37,76.1,94l7.42-7.39a6.82,6.82,0,0,0,.3-9L41.22,26.89a5.43,5.43,0,0,0-7.62-.8,1.21,1.21,0,0,0-.5.5L14,45.65a5.78,5.78,0,0,0-1.11,1.1l-2.3,2.3V49h-.2C4.13,150.57,81.91,238,184,244.2a208.28,208.28,0,0,0,22.35,0l-.1-.2h0l2.3-2.3,1.11-1.09,19.14-19.07a5.37,5.37,0,0,0,.1-7.69C228.85,213.65,228.65,213.56,228.45,213.36Z"/><polygon class="a8e332d3-e441-4eb8-a6f5-b773f9f7283e" points="173.12 110.14 250 33.58 235.87 19.5 157.89 97.06 129.52 68.91 115.39 82.99 157.89 125.31 173.12 110.14"/></svg>