<svg id="ba072328-c890-443c-bc91-5c46677484f1" data-name="Blue" xmlns="http://www.w3.org/2000/svg" viewBox="0 0 260 260"><defs><style>.bba47051-18e8-46ea-81cb-8645cf26e61d{fill-rule:evenodd;}</style></defs><circle cx="130" cy="130" r="25"/><path class="bba47051-18e8-46ea-81cb-8645cf26e61d" d="M188.5,85.8a24.82,24.82,0,0,0-14.2-14.2c-2.6-1-6.6-2.2-13.9-2.6-7.9-.4-10.3-.4-30.3-.4s-22.4.1-30.3.4a40.83,40.83,0,0,0-13.9,2.6A24.82,24.82,0,0,0,71.7,85.8c-1,2.6-2.2,6.6-2.6,13.9-.4,7.9-.4,10.3-.4,30.3s.1,22.4.4,30.3a40.83,40.83,0,0,0,2.6,13.9,24.82,24.82,0,0,0,14.2,14.2c2.6,1,6.6,2.2,13.9,2.6,7.9.4,10.3.4,30.3.4s22.4-.1,30.3-.4a40.83,40.83,0,0,0,13.9-2.6,24.82,24.82,0,0,0,14.2-14.2c1-2.6,2.2-6.6,2.6-13.9.4-7.9.4-10.3.4-30.3s-.1-22.4-.4-30.3A44.19,44.19,0,0,0,188.5,85.8ZM130,168.6a38.5,38.5,0,1,1,38.5-38.5h0A38.52,38.52,0,0,1,130,168.6ZM170,99a9,9,0,1,1,9-9,9,9,0,0,1-9,9Z"/><path class="bba47051-18e8-46ea-81cb-8645cf26e61d" d="M130,10A120,120,0,1,0,250,130h0A120,120,0,0,0,130,10Zm74.6,151a54,54,0,0,1-3.5,18.2,38.39,38.39,0,0,1-21.9,21.9,53.39,53.39,0,0,1-18.1,3.5c-8,.4-10.6.4-30.9.4s-22.9-.1-30.9-.4A55,55,0,0,1,81,201.1a38.39,38.39,0,0,1-21.9-21.9A54,54,0,0,1,55.6,161c-.4-8-.5-10.6-.5-30.9s.1-22.9.5-30.9A54,54,0,0,1,59.1,81,38.11,38.11,0,0,1,81,59.1a54,54,0,0,1,18.2-3.5c8-.4,10.6-.5,30.9-.5s22.9.1,30.9.5a54,54,0,0,1,18.2,3.5A38.39,38.39,0,0,1,201.1,81a54,54,0,0,1,3.5,18.2c.4,8,.4,10.6.4,30.9s-.1,22.9-.4,30.9Z"/></svg>