<svg id="a6f21cf7-b99b-426c-8fa4-adcb19bcf717" data-name="Blue" xmlns="http://www.w3.org/2000/svg" viewBox="0 0 260 260"><path d="M180,32V90L160,80V12A12,12,0,0,0,148,0H112a12,12,0,0,0-12,12V90L80,80V32a110.13,110.13,0,0,0-60,98H120V117a7,7,0,0,1,7-7H238A110.08,110.08,0,0,0,180,32Z"/><path d="M120,150H19a12,12,0,0,0-12,9L0,180H60l10,20h54a148.32,148.32,0,0,1-4-37Z"/><path d="M260,135a5,5,0,0,0-5-5H145a5,5,0,0,0-5,5v35c0,76,60,90,60,90s60-14,60-90Zm-43,59,6,26-23-14-23,14,6-26-20-17,26-2,10-24,10,24,26,2Z"/></svg>