<svg id="b10d3c3f-d8ba-46e0-a0e2-9a797a7c3fc5" data-name="Blue" xmlns="http://www.w3.org/2000/svg" viewBox="0 0 260 260"><defs><style>.b72cff58-8b69-4329-8611-7daebbea8ba6{fill-rule:evenodd;}</style></defs><path class="b72cff58-8b69-4329-8611-7daebbea8ba6" d="M74.14,199.4a90,90,0,1,1,139.19-91,84.18,84.18,0,0,1,31.48,16.9V125A119.91,119.91,0,1,0,54.56,222.2L35,245.1h79.93l-20-70Z"/><path class="b72cff58-8b69-4329-8611-7daebbea8ba6" d="M190.05,125A65,65,0,1,0,255,190,65,65,0,0,0,190.05,125Zm10,98.5-7.69-7.7,20.28-20.2-65.74.2,10.79-10.7h55.15l-20.68-20.8,7.69-7.8,33.58,33.7Z"/></svg>