<svg id="b0e3f8f5-9082-43a3-b624-188d1ac6398f" data-name="Blue" xmlns="http://www.w3.org/2000/svg" viewBox="0 0 260 260"><path d="M245.59,185.39c-32.63-5.27-47.25-37.9-47.85-39.27l-.1-.2c-1.7-3.42-2.1-6.35-1.1-8.59,1.9-4.3,8.81-6.45,13.41-7.92,1.3-.39,2.51-.78,3.51-1.17,8.11-3.12,12.21-7,12.11-11.43-.1-3.52-2.9-6.64-7.31-8.2h0a12.56,12.56,0,0,0-5-1,12.35,12.35,0,0,0-4.61.88,28.88,28.88,0,0,1-10.31,2.83,9.3,9.3,0,0,1-4-1c.1-1.66.2-3.22.3-5v-.68c1-15.93,2.31-35.66-3-47.38C175.81,22.64,142.17,20,132.26,20h-4.81C117.54,20,84,22.74,68.18,57.32c-5.3,11.62-4,31.45-3,47.28.1,1.86.2,3.81.4,5.67a9.46,9.46,0,0,1-4.7,1,28.61,28.61,0,0,1-11-2.83,10.12,10.12,0,0,0-3.8-.78c-4.91,0-10.71,3.12-11.72,7.81-.7,3.33.91,8.31,12,12.61,1,.39,2.2.78,3.5,1.17,4.61,1.46,11.52,3.52,13.42,7.91,1,2.25.6,5.08-1.2,8.6l-.1.19c-.6,1.37-15.32,34-47.86,39.28a4.81,4.81,0,0,0-4.1,5.08,5.17,5.17,0,0,0,.5,2.14c2.4,5.57,12.81,9.68,31.53,12.51.6.88,1.3,3.81,1.71,5.57s.8,3.61,1.4,5.47a5.52,5.52,0,0,0,5.8,4.1,25.78,25.78,0,0,0,5.41-.78,62.73,62.73,0,0,1,12.82-1.37,58.52,58.52,0,0,1,9.21.78c6.1,1,11.21,4.5,17.22,8.7,8.51,5.86,18.22,12.6,32.94,12.6h3c14.72,0,24.43-6.64,32.94-12.6,6-4.11,11.11-7.72,17.22-8.7a57.17,57.17,0,0,1,9.11-.78,62.63,62.63,0,0,1,12.81,1.37,33.49,33.49,0,0,0,5.41.68h.3a5.39,5.39,0,0,0,5.51-4,55.59,55.59,0,0,0,1.4-5.47c.4-1.86,1-4.69,1.7-5.47,18.82-2.84,29.14-6.94,31.54-12.51a5.57,5.57,0,0,0,.5-2.15A5.17,5.17,0,0,0,245.59,185.39Z"/></svg>