<svg id="b0833403-ace8-416f-85c6-8ac7f983f033" data-name="Blue" xmlns="http://www.w3.org/2000/svg" viewBox="0 0 260 260"><path d="M246.6,204.45,185.25,143.1,171.2,157.15,234,220h-28.1L157.14,171.2l-14,14,61.35,61.35a11.9,11.9,0,0,0,16.83,0h0l25.23-25.23A12,12,0,0,0,246.6,204.45Z"/><polygon points="64.72 78.68 93.72 107.77 107.77 93.72 78.67 64.72 80.16 38.01 24.05 10 10 24.05 38.1 80.06 64.72 78.68"/><path d="M234.23,105.79c15-15.14,18.8-36.12,12.57-55.22L213,84.32a11.88,11.88,0,0,1-16.82,0l-18.3-18.21a11.87,11.87,0,0,1,0-16.82l33.84-33.85c-19-6.13-40-2.37-55.12,12.67A55,55,0,0,0,143.19,84L15.94,211.28a11.9,11.9,0,0,0,0,16.83l18.3,18.2a11.9,11.9,0,0,0,16.83,0L178.32,119.15A54.93,54.93,0,0,0,234.23,105.79Z"/></svg>