<svg id="a66a0288-6c2b-4fb0-b361-8482bb80b2b5" data-name="Blue" xmlns="http://www.w3.org/2000/svg" viewBox="0 0 260 260"><path d="M247.29,77.79a9.19,9.19,0,0,0-13,0,27.81,27.81,0,0,1-7.57,5.54l-50.11-50a29.83,29.83,0,0,1,5.54-7.57,9.21,9.21,0,0,0-13-13c-18.08,18.1-15.22,40.81-9.78,62-22.42-4.8-47.06-5.35-68.38,16-18.28,18.28-20.58,39-17.91,58.44,4.16,1,17.17,4.71,19.57,5.35C90.87,146,89.94,137.8,90.87,130l39,39.06c-11,1.38-22.7-1-34.79-4.25h0c-1-.28-1.94-.55-3-.74l-6.09-1.66c-3.51-1-11.08-3.05-11.26-3.05h0C53.4,153.87,30.7,151,12.7,169.1a9.2,9.2,0,1,0,13,13,27.57,27.57,0,0,1,7.48-5.45l50.2,50.13A30.84,30.84,0,0,1,78,234.28a9.2,9.2,0,1,0,13,13c18.09-18.1,15.22-40.72,9.78-62,22.43,4.8,47,5.35,68.29-16,18.27-18.28,20.58-39,17.9-58.53-4.43-1.11-17.44-4.71-19.56-5.35,1.75,8.49,2.68,16.8,1.75,24.74L130,90.9c11.08-1.38,22.8,1,34.89,4.25h0c.83.18,19.84,5.44,20.3,5.54h0c21.41,5.44,44.11,8.31,62.2-9.79A9.39,9.39,0,0,0,247.29,77.79ZM80.16,179.62A228.75,228.75,0,0,1,85.7,202.8L57.09,174.18C63.73,175.29,71.39,177.32,80.16,179.62Zm81.76-30.74a48.25,48.25,0,0,1-6,7.2,44.27,44.27,0,0,1-7,5.82L98,111a52.69,52.69,0,0,1,6-7.3,55.55,55.55,0,0,1,6.92-5.81Zm40.89-63.43a225.65,225.65,0,0,1-23-5.44,222.6,222.6,0,0,1-5.45-22.9Z"/></svg>