<svg id="bbb547b7-c056-481f-9ab5-6962f61ea9a9" data-name="Blue" xmlns="http://www.w3.org/2000/svg" viewBox="0 0 260 260"><path d="M114,172.09c-6,31.7-13.47,62-35.49,77.91-6.84-47.91,10-83.81,17.69-122-13.27-22.21,1.61-66.81,29.56-55.81C160.12,85.68,96,154.69,139,163.29c45,9,63.33-77.61,35.49-105.81-40.32-40.71-117.32-.9-107.87,57.3C68.94,129,83.72,133.39,72.56,153c-25.84-5.7-33.48-25.9-32.47-52.91C41.69,56,80,25,118.4,20.77,167,15.37,212.6,38.47,218.93,84,226.07,135.29,197,190.89,145,186.89,130.87,185.69,125,178.79,114,172.09Z"/></svg>