<svg id="fa8889c1-bdba-4691-beca-004f4982f830" data-name="Blue" xmlns="http://www.w3.org/2000/svg" viewBox="0 0 260 260"><path d="M193,107a68.3,68.3,0,0,0-21-3.13c-46.2,0-84,37.57-84,83.48a80.41,80.41,0,0,0,11.55,41.74h-64C29.2,229.13,25,225,25,218.7V20.43C25,14.17,29.2,10,35.5,10h147c6.3,0,10.5,4.17,10.5,10.43ZM56.5,83v20.87H88L109,83Zm0-41.74V62.17H130L151,41.3ZM177.25,229.13V217.65c8.4-2.08,14.7-7.3,14.7-17.74,0-9.39-4.2-13.56-16.8-18.78-8.4-3.13-10.5-5.22-10.5-9.39s2.1-6.26,8.4-6.26c5.25,0,9.45,2.09,14.7,5.22l2.1-10.44a21.24,21.24,0,0,0-11.55-3.13v-5.22l-10.5-5.21v11.47c-8.4,2.09-13.65,7.31-13.65,16.7s5.25,13.56,16.8,18.78c8.4,4.18,10.5,5.22,10.5,10.44s-3.15,7.3-9.45,7.3a35.57,35.57,0,0,1-17.85-5.22l-2.1,10.44c4.2,2.09,9.45,3.13,14.7,4.17V226ZM109,187.39c0-34.43,28.35-62.61,63-62.61s63,28.18,63,62.61S206.65,250,172,250,109,221.83,109,187.39Z"/></svg>