<svg id="b63d823e-705c-47d1-9826-0edb2710c214" data-name="Blue" xmlns="http://www.w3.org/2000/svg" viewBox="0 0 260 260"><defs><style>.a50e6908-762f-4066-b83a-02c38e1467d7{fill-rule:evenodd;}</style></defs><path class="a50e6908-762f-4066-b83a-02c38e1467d7" d="M195,130a65,65,0,1,0,65,65,65,65,0,0,0-65-65Zm35.2,59.7c0,21.5-35.2,43-35.2,43s-35.2-21.5-35.2-43V187c0-10.4,7.9-18.8,17.6-18.8,8.9,0,16.2,7,17.4,16.1h.4c1.2-9.1,8.6-16.1,17.4-16.1,9.7,0,17.6,8.4,17.6,18.8Z"/><path class="a50e6908-762f-4066-b83a-02c38e1467d7" d="M140,130.3V110H90V90h30V60h30V32a99.8,99.8,0,0,1,78.9,85.1A85.89,85.89,0,0,1,250,130.3V130A120,120,0,1,0,130,250h.3a84.53,84.53,0,0,1-13-20.8C68.5,223.1,29.8,181,29.8,130a98.46,98.46,0,0,1,9.7-42.7l50.5,62v.7h20"/></svg>