<svg id="bbcaaafc-5c3c-4b50-ad52-4757e78633e1" data-name="Blue" xmlns="http://www.w3.org/2000/svg" viewBox="0 0 260 260"><defs><style>.a391e8e7-ca9f-47a7-96bb-e407970a4eb7{fill-rule:evenodd;}</style></defs><path class="a391e8e7-ca9f-47a7-96bb-e407970a4eb7" d="M254.27,168.18h0l-45.39,45.4-15.52,15.54L150,185.72l14.42-14.43,28.85,28.86,49.4-49.41a64.78,64.78,0,1,0,11.62,17.44Z"/><path class="a391e8e7-ca9f-47a7-96bb-e407970a4eb7" d="M0,210V230H117.82A80.13,80.13,0,0,1,111.61,210Z"/><path class="a391e8e7-ca9f-47a7-96bb-e407970a4eb7" d="M210.39,100.73V40.59H150.28l20,20-50.09,50.11L70.13,60.64,31.26,99.52V20.85H231.32v99a87.35,87.35,0,0,1,20.84,13.23V10.42A10.41,10.41,0,0,0,241.74,0H20.84A10.41,10.41,0,0,0,10.42,10.42V180a10.41,10.41,0,0,0,10.42,10.42h93.77c-.1-1.6-.1-3.31-.1-5a93.27,93.27,0,0,1,1.4-15.84H31.26V139.71l38.87-39,50.09,50.11,70.13-70.16Z"/></svg>