<svg id="ae47ca1c-3fb7-4ca2-b874-9d881ed88a48" data-name="icons" xmlns="http://www.w3.org/2000/svg" viewBox="0 0 260 260"><defs><style>.a7c72b8a-a8fa-4fb0-b82e-84a80f23913d{fill-rule:evenodd;}</style></defs><path class="a7c72b8a-a8fa-4fb0-b82e-84a80f23913d" d="M178.1,20H81.9C36.58,20,20,36.58,20,81.9v96.2C20,223.42,36.58,240,81.9,240h96.17c45.32,0,61.93-16.58,61.93-61.9V81.9C240,36.58,223.42,20,178.1,20ZM69.4,158.78H63.57V147.1H50.39v11.68H44.55V130h5.84v11.6H63.57V130H69.4Zm32.87-12.54c0,8.25-4.53,13-12.45,13s-12.33-4.64-12.33-12.73V130h5.84v16.25c0,4.81,2.33,7.38,6.57,7.38s6.54-2.5,6.54-7.18V130h5.83ZM93.38,56.78h5.17a31.45,31.45,0,0,0,62.9,0h5.17a36.62,36.62,0,0,1-73.24,0Zm36.18,102-2.59-6H113.81l-2.62,6h-6L117.9,130h5.15l12.62,28.74Zm36.75,0h-4.88L154.9,139.9l-6.55,18.88h-4.83L133.5,130h6.21l6.35,19.77L152.59,130h4.77l6.53,19.78L170.26,130h6.05Zm36.42,0H181V130h21.17v5.24H186.77v5.89h10.61v5.23H186.77v7.12h16Zm12.72,0h-5.76V130h5.76Z"/><polygon class="a7c72b8a-a8fa-4fb0-b82e-84a80f23913d" points="115.98 147.59 124.8 147.59 120.38 137.3 115.98 147.59"/></svg>