<svg id="ac80cab8-f981-4b44-8ed4-cf7f83baf3e1" data-name="Blue" xmlns="http://www.w3.org/2000/svg" viewBox="0 0 260 260"><defs><style>.adfbd056-00ba-4055-ab00-86781c837099{fill-rule:evenodd;}</style></defs><path class="adfbd056-00ba-4055-ab00-86781c837099" d="M130.05,5A100,100,0,0,0,30,105v3c2,88.29,91.65,144.68,91.65,144.68,4.6,3.1,12,3.1,16.5.1,0,0,89.85-56.49,91.85-144.78v-3A99.9,99.9,0,0,0,130.05,5ZM85,115a15,15,0,1,1,15-15A15,15,0,0,1,85,115Zm45,0a15,15,0,1,1,15-15A15,15,0,0,1,130.05,115Zm45,0a15,15,0,1,1,15-15A15,15,0,0,1,175.07,115Z"/></svg>