<svg id="a4f9a431-2294-4e21-a979-970d93d2daaa" data-name="Blue" xmlns="http://www.w3.org/2000/svg" viewBox="0 0 260 260"><path d="M130,10A120,120,0,1,0,250,130,120,120,0,0,0,130,10Zm0,210a90,90,0,1,1,90-90A90,90,0,0,1,130,220Z"/><path d="M130,50a80,80,0,1,0,80,80A80,80,0,0,0,130,50Zm28.3,90h41a69.77,69.77,0,0,1-13.2,31.9l-29-29A30.14,30.14,0,0,1,143,157l29,29a69.59,69.59,0,0,1-31.9,13.2v-41a30.26,30.26,0,0,1-20,0v41A69.77,69.77,0,0,1,88.2,186l29-29a30.14,30.14,0,0,1-14.1-14.1l-29,29A69.59,69.59,0,0,1,60.9,140h41a30.26,30.26,0,0,1,0-20h-41A70.68,70.68,0,0,1,74.1,88.1l29,29a30.8,30.8,0,0,1,14.1-14.2l-29-29a69.15,69.15,0,0,1,31.9-13.2v41a30.26,30.26,0,0,1,20,0v-41A69.77,69.77,0,0,1,172,73.9l-29,29A30.8,30.8,0,0,1,157.2,117l29-29a69.59,69.59,0,0,1,13.2,31.9h-41A30.77,30.77,0,0,1,158.3,140Z"/><circle cx="130" cy="130" r="20"/></svg>