<svg id="bf3bbe8c-467d-4979-a296-6c2deb59c7aa" data-name="Blue" xmlns="http://www.w3.org/2000/svg" viewBox="0 0 260 260"><defs><style>.bc8ffd14-d28e-47a8-b3ef-63982fe20a6c{fill-rule:evenodd;}</style></defs><path class="bc8ffd14-d28e-47a8-b3ef-63982fe20a6c" d="M244.6,40H15.5A5.32,5.32,0,0,0,10,45.31h0V214.69A5.38,5.38,0,0,0,15.5,220h229a5.32,5.32,0,0,0,5.5-5.31h0V45.31A5.23,5.23,0,0,0,244.6,40ZM60,190.08H40V70H60Zm40,0H80v-20h20Zm0-40H80V70h20Zm40,40h-20v-20h20Zm0-40h-20V70h20Zm40,40h-20v-20h20Zm0-40h-20V70h20Zm40,40h-20V70h20Z"/></svg>