<svg id="ae5c5a00-ede8-4e0b-9681-83c0297912ea" data-name="Blue" xmlns="http://www.w3.org/2000/svg" viewBox="0 0 260 260"><path d="M246.48,31.89l-18.4-18.37a12,12,0,0,0-17,0L200.69,23.9l10.59,10.59-7.1,7.09L193.59,31l-14.1,14.08,10.6,10.59L183,62.75l-10.6-10.59-14.1,14.18,10.6,10.59L161.79,84,151.2,73.33,137.1,87.51,147.7,98.1l-7.1,7.09L130,94.6l-14.1,14.08,10.6,10.59-7.1,7.09-10.6-10.59L94.71,130l10.6,10.58-7.1,7.09L87.61,137l-14.1,14.08L84,161.6l-7,7.09-10.6-10.58L52.32,172.19l10.59,10.58-7.09,7.09-10.6-10.58L31,193.46,41.62,204l-7.1,7.09-10.6-10.58-10.4,10.38a12,12,0,0,0,0,17l18.4,18.37a12,12,0,0,0,17,0L246.48,48.87A12,12,0,0,0,246.48,31.89Z"/><path d="M40,80.32,80,40.38,18.42,10.92a6.07,6.07,0,0,0-7.9,3.1,6.43,6.43,0,0,0,0,4.69Z"/><path d="M183.29,141.13l-14.2,14.08,64.59,64.51h-28.3L155,169.29,140.9,183.37l63.18,63.11a12,12,0,0,0,17,0L246.48,221a12,12,0,0,0,0-17Z"/><polygon points="76.71 119.37 45.02 87.81 59.22 73.63 90.91 105.29 76.71 119.37"/><polygon points="105 91.11 73.31 59.45 87.41 45.37 119.1 77.03 105 91.11"/></svg>