<svg id="b6843fbd-38be-4d00-adfa-7a77c465e6b7" data-name="Blue" xmlns="http://www.w3.org/2000/svg" viewBox="0 0 260 260"><path d="M130,10A120,120,0,1,0,250,130,120,120,0,0,0,130,10ZM102.6,33.8A130.48,130.48,0,0,0,70,80H43.4A100.69,100.69,0,0,1,102.6,33.8ZM34.6,100H63.5a130.32,130.32,0,0,0,0,60H34.6A99.1,99.1,0,0,1,34.6,100Zm67.9,126.2a100.77,100.77,0,0,1-53.9-38.1c-.4-.5-.7-1.1-1.1-1.6-.5-.8-1.1-1.5-1.6-2.3-.9-1.4-1.7-2.7-2.5-4.1H70a133.33,133.33,0,0,0,32.5,46.1ZM120,214.9A109.06,109.06,0,0,1,92,180h28Zm0-54.9H84.1a111.15,111.15,0,0,1,0-60H120Zm0-80H92a110.15,110.15,0,0,1,28-34.9Zm96.6,0H190a131.75,131.75,0,0,0-32.6-46.2A100.69,100.69,0,0,1,216.6,80ZM140,45.2a110,110,0,0,1,25.9,30.9L168,80H140Zm0,54.8h35.8a109.21,109.21,0,0,1,4.2,30,113,113,0,0,1-4.1,30H140Zm0,114.9V180h28A109.06,109.06,0,0,1,140,214.9Zm45.3-1.7a100.17,100.17,0,0,1-27.9,13,137.9,137.9,0,0,0,16.7-18.3A128.22,128.22,0,0,0,190,180h26.5A100.22,100.22,0,0,1,185.3,213.2ZM196.5,160a129.42,129.42,0,0,0,0-60h28.9a99.1,99.1,0,0,1,0,60Z"/><path d="M63.5,160a130.32,130.32,0,0,1,0-60A129.42,129.42,0,0,0,63.5,160Z"/><path d="M34.6,100a99.1,99.1,0,0,0,0,60,100.13,100.13,0,0,1,0-60Z"/><path d="M48.6,188.1a100.77,100.77,0,0,0,53.9,38.1h0A100.92,100.92,0,0,1,48.6,188.1Z"/><path d="M174.1,207.9a125.49,125.49,0,0,1-16.7,18.3A137.9,137.9,0,0,0,174.1,207.9Z"/><path d="M185.3,213.2A100.22,100.22,0,0,0,216.5,180,101.19,101.19,0,0,1,185.3,213.2Z"/><path d="M140,214.9A109.06,109.06,0,0,0,168,180,110.15,110.15,0,0,1,140,214.9Z"/><path d="M175.8,160h.1a113,113,0,0,0,4.1-30,109.21,109.21,0,0,0-4.2-30A111.15,111.15,0,0,1,175.8,160Z"/><path d="M70,180a131.49,131.49,0,0,0,32.5,46.2h.1A131.75,131.75,0,0,1,70,180Z"/><path d="M92,180a109.06,109.06,0,0,0,28,34.9A110.15,110.15,0,0,1,92,180Z"/><path d="M84.1,100a111.15,111.15,0,0,0,0,60,111.81,111.81,0,0,1,0-60Z"/><path d="M216.5,80h.1a100.69,100.69,0,0,0-59.2-46.2A100.79,100.79,0,0,1,216.5,80Z"/><path d="M165.9,76.1A110,110,0,0,0,140,45.2,111.7,111.7,0,0,1,165.9,76.1Z"/><path d="M174.1,207.9A128.22,128.22,0,0,0,190,180,135,135,0,0,1,174.1,207.9Z"/><path d="M185.3,213.2a100.17,100.17,0,0,1-27.9,13A100.17,100.17,0,0,0,185.3,213.2Z"/><path d="M225.4,100a100.65,100.65,0,0,1,0,60A99.1,99.1,0,0,0,225.4,100Z"/></svg>