<svg id="e2aff455-49e9-47b8-89e6-ef8587a13682" data-name="Blue" xmlns="http://www.w3.org/2000/svg" viewBox="0 0 260 260"><defs><style>.a31fc77c-bc07-4b47-8779-75b4b571d348{fill-rule:evenodd;}</style></defs><path class="a31fc77c-bc07-4b47-8779-75b4b571d348" d="M104.16,202a18.55,18.55,0,1,1-18.37,18.55C85.79,210.73,95,202,104.16,202Z"/><path d="M232.78,145.27c-11.49-12-27.56-17.45-43.64-17.45-34.45,0-60.86,27.27-60.86,61.09a60.86,60.86,0,1,0,121.72,0C250,172.55,244.26,156.18,232.78,145.27Zm-12.64,51.28H196v30.54H181.1V196.55H151.24V181.27H181.1V150.73H196v30.54h29.86Z"/><path class="a31fc77c-bc07-4b47-8779-75b4b571d348" d="M54.78,10,66.27,48.18h147c3.45,0,6.89,2.18,9.19,5.46s2.3,7.63,1.15,10.91l-19.52,42.54c-31-5.45-63.16,8.73-80.39,37.09H95l5.74,18.55h14.93a52.84,52.84,0,0,0-3.45,18.54H84.64L41,28.55H10V10Z"/></svg>