<svg id="b1eff6a6-b9f5-4307-84bf-497a16d44643" data-name="Blue" xmlns="http://www.w3.org/2000/svg" viewBox="0 0 260 260"><defs><style>.b62671d1-ec81-461b-bfa2-10d3bcb370d7{fill-rule:evenodd;}</style></defs><polygon points="240 10.05 10 10.05 10 10.35 10 32.34 10 239.95 32.3 239.95 32.3 32.34 240 32.34 240 10.05"/><path class="b62671d1-ec81-461b-bfa2-10d3bcb370d7" d="M240.5,129h-9.7L214,71.52a2.29,2.29,0,0,0-2.4-1.5H88.8a2.51,2.51,0,0,0-2.4,1.5L68.8,129H59.3c-5.1,0-9.3,4.6-9.3,9.79v9.3a9,9,0,0,0,9,9h8v73.66a9.28,9.28,0,0,0,9.3,9.3H87a9,9,0,0,0,9-9V223H202.8v7.69a9.45,9.45,0,0,0,9.5,9.3h9.3c5.1,0,11.2-4.1,11.2-9.3V220.36h0V157h7.7a9,9,0,0,0,9.3-8.7v-9.5C249.8,133.6,245.7,129,240.5,129ZM101,87h97.8l12.8,42H88.2Zm-2,98a15,15,0,1,1,15-15h0A15,15,0,0,1,99,185Zm101.8,0a15,15,0,1,1,15-15h0A15,15,0,0,1,200.8,185Z"/></svg>