<svg id="b6509353-83c3-4b23-bb5b-bd0579541793" data-name="Blue" xmlns="http://www.w3.org/2000/svg" viewBox="0 0 260 260"><path d="M229.9,89.25q-1.35,28.68-40.8,78.63-40.8,52.17-69,52.12c-11.7,0-21.5-10.64-29.6-31.83L74.4,129.85C68.4,108.66,62,98,55.1,98c-1.5,0-6.7,3-15.7,9.26L30,95.46c9.8-8.47,19.5-17,29.1-25.62,13.1-11.23,23-17,29.6-17.64Q112,50,117.4,83.54c3.9,24.14,6.6,39.11,8.1,45,4.5,20,9.4,30.06,14.8,30.06,4.2,0,10.5-6.51,18.8-19.41s12.8-22.86,13.4-29.56c1.2-11.24-3.3-16.75-13.4-16.75a39,39,0,0,0-14.8,3Q159.15,48.66,200.8,50q30.9.74,29.1,39.21Z"/></svg>