<svg id="a6ea5ed2-b93b-4dc7-8366-e2e386bece42" data-name="Blue" xmlns="http://www.w3.org/2000/svg" viewBox="0 0 260 260"><polygon points="66 159.26 78.9 159.26 78.9 111.34 97.3 111.34 95.4 100.64 48.5 100.64 48.5 111.34 66 111.34 66 159.26"/><polygon points="131.9 159.46 152.1 100.64 139.9 100.64 126.1 142.56 125.9 142.56 112.2 99.64 99.8 101.54 119.7 159.46 131.9 159.46"/><path d="M208.8,129.65c0-21.41-13.5-29-31.4-29h-18v58.62h18C195.1,159.26,208.8,151.66,208.8,129.65Zm-36.5-18.21h5.9c12.8,0,17.7,5.9,17.7,18.41,0,13.31-4.8,19-17.6,19h-6Z"/><path d="M240,49.92H139.4L179.3,10h-20l-30,30-30-30h-20l39.9,39.92H20a10,10,0,0,0-10,10V200a10,10,0,0,0,10,10h90v20H60v20H200V230H150V210h90a10,10,0,0,0,10-10V59.92a10,10,0,0,0-10-10ZM230,190H30v-120H230Z"/></svg>