<svg id="eca26e6d-5b7b-4aea-b63f-51343d208e4c" data-name="Blue" xmlns="http://www.w3.org/2000/svg" viewBox="0 0 260 260"><defs><style>.ba1669b7-ff6a-40e8-ac00-dc231ffb7090{fill-rule:evenodd;}</style></defs><path class="ba1669b7-ff6a-40e8-ac00-dc231ffb7090" d="M130,10A120,120,0,1,0,250,130,120,120,0,0,0,130,10ZM99.5,179.77H71.4V96.49H99.5ZM85.35,85.25c-8.83,0-15.95-6.52-15.95-14.45s7.12-14.45,15.95-14.45,16,6.53,16,14.45S94.18,85.25,85.35,85.25Zm114.48,94.52H171.74V134.62c0-9.24-4-18.37-14.75-18.37s-16.35,9.23-16.35,18.57v45H113.55V96.49h27.09v11.94c8-9.63,15-14,26.89-14s32.3,5.92,32.3,38.33Z"/></svg>