<svg id="ecd6568c-0a02-40fd-b1df-ddcfdcd9abdc" data-name="Blue" xmlns="http://www.w3.org/2000/svg" viewBox="0 0 260 260"><path d="M151.4,113.2c-7.7,0-12.5,6.3-12.5,16.8s4.8,17,12.5,17,12.6-6.6,12.6-17S159.1,113.2,151.4,113.2Z"/><path d="M179.7,10H80.3L10,80.3v99.4L80.3,250h99.4L250,179.7V80.3ZM61.6,155.8A31.33,31.33,0,0,1,39.9,147l5.7-7.3c3.6,3.8,10.1,7.5,15.7,7.5,5.3,0,9-1.9,9-5.7s-3.6-5.4-10.1-7.2C51.3,131.8,42,129.5,42,119c0-9.3,7.4-14.9,18-14.9,7.7,0,14.5,3.4,19.2,7.2l-5,7.8C70.6,116,65,113,60.3,113s-7.5,2-7.5,5c0,4,3.7,5.4,10.2,7.2,8.8,2.4,18,5.1,18,15.4C81,148.7,74.8,155.8,61.6,155.8Zm49.1-41.5v40.6h-11V114.3H85v-9.2h39.8l1.6,9.2Zm40.7,41.5c-12,0-23.5-8.3-23.5-25.8s11.4-25.8,23.5-25.8,23.4,8.3,23.4,25.8S163.4,155.8,151.4,155.8Zm48-18.6h-7.1v17.7H181.4V105.1h18.1c10.6,0,20.3,2.8,20.3,15.9.1,13.4-10.4,16.2-20.4,16.2Z"/><path d="M199.8,114.1h-7.5v14.7h7.5c6.8,0,9.4-2.6,9.4-7.4S206.7,114.1,199.8,114.1Z"/></svg>