<svg id="ae76b135-d818-4202-b74e-dbc8ae69fa60" data-name="Blue" xmlns="http://www.w3.org/2000/svg" viewBox="0 0 260 260"><path d="M99.55,229.13h-64C29.2,229.13,25,225,25,218.7V20.43C25,14.17,29.2,10,35.5,10H109V93.48h31.5l21-20.87H130V10h10.5L193,62.18V107a68.16,68.16,0,0,0-21-3.13c-46.34.13-83.87,37.43-84,83.48A80.32,80.32,0,0,0,99.55,229.13Zm72.37-104.35A62.81,62.81,0,0,0,109,187.47c0,34.58,28.29,62.57,63.08,62.53A62.8,62.8,0,0,0,235,187.32c0-34.58-28.28-62.58-63.08-62.54Zm5.36,93.34v11l-10.5-5.2V218.5a42,42,0,0,1-14.44-4l1.72-10.73c5.1,3,11.4,5.41,17.45,5.4,5.36,0,9-2.56,9-7.46,0-4.55-2.1-6.37-10.88-10.17-11.77-4.81-16.48-8.74-16.48-18.24,0-8.82,5.45-14.62,13.57-16.51V145.68l10.5,5.21v5.42a29.91,29.91,0,0,1,11.45,3.49L187,170.44c-4.41-2.89-9.57-4.82-14.29-4.82-5.82,0-8.35,2.84-8.35,6.59,0,3.91,1.94,5.78,10.37,9.28,12.44,5.15,17,9.48,17,19,0,9.86-5.89,15.83-14.45,17.65Z"/></svg>