<svg id="b6e7c72c-6916-4c29-8d6f-8a8601d1ad14" data-name="Blue" xmlns="http://www.w3.org/2000/svg" viewBox="0 0 260 260"><path d="M174.1,135l-.9-.6a94.07,94.07,0,0,0-19.7-8.8,120.78,120.78,0,0,0-41.8-5.7A109.49,109.49,0,0,0,92,122.4q-3.9.9-7.8,2.1a6.13,6.13,0,0,0-4.2,5.7,6.33,6.33,0,0,0,3.8,5.9,6.09,6.09,0,0,0,4.4.1,101.07,101.07,0,0,1,27.6-3.9,112.66,112.66,0,0,1,21.1,2,92.25,92.25,0,0,1,25.5,8.5c1.8.9,3.5,1.9,5.2,2.9a6.24,6.24,0,0,0,8.5-2.1A6.12,6.12,0,0,0,174.1,135Z"/><path d="M165.2,158.8a5.67,5.67,0,0,0-1.3-.8,77.59,77.59,0,0,0-15.8-7.2,97.77,97.77,0,0,0-30.8-4.9c-3.6.2-7.1.3-10.7.6a135.12,135.12,0,0,0-18.9,3,5.73,5.73,0,0,0-1.4.4,4.89,4.89,0,0,0,1.9,9.4,16,16,0,0,0,2.3-.3,128.31,128.31,0,0,1,23.1-3.1,98.84,98.84,0,0,1,18,1,76.14,76.14,0,0,1,27.3,9.6,8.26,8.26,0,0,0,1.3.7,4.93,4.93,0,0,0,5-8.4Z"/><path d="M184.4,107.9a94.45,94.45,0,0,0-17.1-7.8,149,149,0,0,0-44.9-7.7,144.52,144.52,0,0,0-18.6.6,130.88,130.88,0,0,0-17.4,2.7,59.08,59.08,0,0,0-6.9,1.9,7.2,7.2,0,0,0-4.9,7.1,7.41,7.41,0,0,0,5.3,7,7.85,7.85,0,0,0,4.3,0c2.3-.6,4.7-1.3,7-1.8a114.32,114.32,0,0,1,19.4-2.4,137.64,137.64,0,0,1,17,.1,147.87,147.87,0,0,1,16.3,1.9,111.6,111.6,0,0,1,22.6,6.3,87.93,87.93,0,0,1,10.7,5.2,7.43,7.43,0,0,0,11.2-6.5c-.1-.5-.1-1.1-.2-1.6A7.21,7.21,0,0,0,184.4,107.9Z"/><path d="M130,10A120,120,0,1,0,250,130,120,120,0,0,0,130,10Zm0,200a80,80,0,1,1,80-80A80,80,0,0,1,130,210Z"/></svg>