<svg id="a4f168f3-e381-4fd5-864f-f35d83cc6583" data-name="Blue" xmlns="http://www.w3.org/2000/svg" viewBox="0 0 260 260"><defs><style>.fc94a9ab-d2dd-44ff-8862-b52bf0a869b7{fill-rule:evenodd;}</style></defs><path class="fc94a9ab-d2dd-44ff-8862-b52bf0a869b7" d="M214.54,129.57a66.66,66.66,0,0,1,18.27,2.6,11.18,11.18,0,0,0,6.69-10.3V111a10.91,10.91,0,0,0-10.88-10.9H217.24l-19.77-67.9a3.14,3.14,0,0,0-2.8-2.1H45.52a3.14,3.14,0,0,0-2.79,2.1l-20.67,67.9H10.88A10.91,10.91,0,0,0,0,111H0v10.9a11.17,11.17,0,0,0,10.88,11.2H20v86.1a10.91,10.91,0,0,0,10.88,10.9H43.43a10.58,10.58,0,0,0,10.48-10.9v-9.1h97.74a64.93,64.93,0,0,1,47.52-78.6,61.06,61.06,0,0,1,15.37-1.9ZM54.81,160.07a15,15,0,1,1,15-15,15,15,0,0,1-15,15Zm-10-60,15-50H179.6l15,50Z"/><polygon class="fc94a9ab-d2dd-44ff-8862-b52bf0a869b7" points="222.65 185.52 222.65 153.12 206.18 153.12 206.18 185.52 180.53 185.52 173.84 202.02 206.18 202.02 206.18 234.42 222.65 234.42 222.65 202.02 255 202.02 255 185.52 222.65 185.52"/></svg>