<svg id="f67a5c96-e191-4ed9-aba9-6b726ef0ad8b" data-name="Blue" xmlns="http://www.w3.org/2000/svg" viewBox="0 0 260 260"><path d="M156.67,20H56.22C53.11,20,50,22.57,50,25.77V234.22c0,3.21,3.11,5.78,6.22,5.78H204.93c3.11,0,5.07-2.57,5.07-5.78V75ZM92,158.14l-9.68-16.68-9.07,15.86H60.4l15.38-26L62.27,108.92l12.62-1.84,8.18,14.3L90.44,108h12.63L89.38,131.47l14.93,25Zm66.14-.82H146.62V131.47c-.26,1-.62,2.11-.89,3.21l-.09.18-7.11,22.55H128.22L121,134.58c-.35-1.28-.71-2.29-1-3.39V157.5H109.11V108H124l9.69,32.91L142.8,108h15.29l.09,49.32Zm7.73,0v-49.5h11.91V147h19.47l1.78,10.36Z"/></svg>