<svg id="a5c601e6-b387-4eff-97c4-3bf5337b3d88" data-name="Blue" xmlns="http://www.w3.org/2000/svg" viewBox="0 0 260 260"><rect x="40" y="169.75" width="180" height="20"/><rect x="80" y="209.75" width="100" height="20"/><path d="M191.6,129.65a65.43,65.43,0,0,0-4.3-22.4c-12.6-32.1-48.4-47.8-80.1-35.1a62.66,62.66,0,0,0-38.9,57.5l-58.3.1v20H250v-20Z"/><path d="M187,73.65l-12.6-49.4L130,49.65,85.6,24.25,73,73.65,23.5,87l25.9,43.3h1.2A79.51,79.51,0,0,1,130,50.55a79.88,79.88,0,0,1,73.7,50.2,76.84,76.84,0,0,1,5.6,29.5h1.2L236.4,87Z"/></svg>