<svg id="b1dae23a-85b0-4e01-b085-09e81dfe4275" data-name="Blue" xmlns="http://www.w3.org/2000/svg" viewBox="0 0 260 260"><defs><style>.e0380e1c-678f-4c74-8817-5da9165603a2{fill-rule:evenodd;}</style></defs><path class="e0380e1c-678f-4c74-8817-5da9165603a2" d="M243.86,90H191c-.6-47-25.3-70-60.9-70-34.39,0-59.39,23-60,70h-54c-3.9,0-6.6,4.1-6,7.91l19.4,135a8.33,8.33,0,0,0,7.9,7.1H222.16a8,8,0,0,0,7.9-6.6L250,97.74C250.36,94,247.66,90,243.86,90ZM90,200.08l-20-12.9V140.05H90ZM130,38.61c22.9,0,39.5,13.4,40,51.42H90.88C91.38,52,108.17,38.61,130,38.61Zm10,161.47-20-12.9V140.05h20Zm50,0-20-12.9V140.05h20Z"/></svg>