<svg id="bd084d25-7e0c-4ee1-b71b-299763637ed6" data-name="Blue" xmlns="http://www.w3.org/2000/svg" viewBox="0 0 260 260"><defs><style>.bdc21b62-999a-4133-9108-d1005a535c5c{fill-rule:evenodd;}</style></defs><polygon class="bdc21b62-999a-4133-9108-d1005a535c5c" points="131 50.4 110.9 70.6 110.9 112.9 78.8 145 107.4 145 131 121.3 130.8 121 131 121 131 50.4"/><path class="bdc21b62-999a-4133-9108-d1005a535c5c" d="M195,130a65,65,0,1,0,65,65A65,65,0,0,0,195,130Zm7,96.1V238h-.8L191,232.7v-5.9a33.74,33.74,0,0,1-13.3-3.8l-.4-.3-.3-.2.1-.4.1-.6,1.2-8.1.2-1.4.1-.9.8.5,1.2.8a27,27,0,0,0,14.4,4.7c5.5,0,8.9-2.8,8.9-7.3s-1.8-6.3-10.2-10.1c-12.2-5.6-16.2-9.8-16.2-18.3s5.5-14.5,13.5-16.3v-11h1.1l9.9,5.1v5.7a21.3,21.3,0,0,1,9,3.1l.5.3.3.2-.1.4-.1.6-1.3,7.9-.2,1.5-.2,1-.8-.6-1.2-.9a19.21,19.21,0,0,0-11.3-4c-5.2,0-8.1,2.4-8.1,6.3,0,3.7,1.8,5.5,10.2,9.2,12.3,5.6,16.1,10,16.1,19.1C214.9,217.6,210,223.8,202,226.1Z"/><path class="bdc21b62-999a-4133-9108-d1005a535c5c" d="M21.7,120a98.32,98.32,0,0,1,196.4-6.8,86,86,0,0,1,21.9,9.7V120A120,120,0,1,0,120,240h2.9a84.51,84.51,0,0,1-9.7-21.9A98.36,98.36,0,0,1,21.7,120Z"/></svg>