<svg id="eb941655-b1f7-404d-b7bf-73d6d94cb1b3" data-name="Blue" xmlns="http://www.w3.org/2000/svg" viewBox="0 0 260 260"><path d="M253.9,100h-24v66a25,25,0,0,1-25,24H100v22c0,4,3,8,7,8h123l30,30V107a6,6,0,0,0-4.8-7h-1.2Z"/><path d="M199.92,10H9a9,9,0,0,0-9,9V210l37-38H199.92c5,0,10-2,10-7V19C209.92,14,204.92,10,199.92,10ZM103,140c-8,0-12-5-12-11s4-11,12-11,13,5,13,11S111,140,103,140Zm21-53c-12,6-12,9-12,22H94c-.5-3-.8-6-1-9,0-10,6-16,14-20s10-7,10-13-4-9-12-9S88,63,83,69L71,56c7-9,20-16,37-16s31,10,31,24S132,82,124,87Z"/></svg>