<svg id="e5eb3e9e-0559-4b0a-bf21-321c1b488873" data-name="Blue" xmlns="http://www.w3.org/2000/svg" viewBox="0 0 260 260"><defs><style>.b7c165ce-197d-46b9-a52d-65326180d478{fill-rule:evenodd;}</style></defs><path class="b7c165ce-197d-46b9-a52d-65326180d478" d="M130,10A120,120,0,1,0,250,130,120,120,0,0,0,130,10Zm10,95-20,20H80.2a41,41,0,0,0-.2,5c0,1.7.1,3.4.2,5H140l-20,20H86.7a50.09,50.09,0,0,0,78.7,10.4l14.1,14.1A70,70,0,0,1,60,130c0-1.7.1-3.3.2-5H60l.2-.2A70,70,0,0,1,179.5,80.5L165.4,94.6A50.09,50.09,0,0,0,86.7,105Z"/></svg>