<svg id="f15f237c-6ac7-4b0f-ab33-6bd04af3cb25" data-name="Blue" xmlns="http://www.w3.org/2000/svg" viewBox="0 0 260 260"><polygon points="163.66 90.04 133.66 170.04 153.46 170.04 153.46 220.04 173.46 220.04 173.46 170.04 193.46 170.04 193.46 215.74 193.46 220.04 213.46 220.04 213.46 170.04 233.66 170.04 203.66 90.04 163.66 90.04"/><polygon points="233.56 144.54 249.86 150.04 228.86 90.04 213.46 90.04 233.56 144.54"/><polygon points="139.86 140.04 136.66 132.54 153.86 90.04 138.46 90.04 129.26 114.74 118.86 90.04 103.46 90.04 121.66 135.24 119.86 140.04 123.56 140.04 133.66 140.04 139.86 140.04"/><polygon points="34.86 160.04 34.86 220.04 54.86 220.04 54.86 160.04 74.86 160.04 74.86 215.74 74.86 220.04 94.86 220.04 94.86 160.04 94.86 90.04 34.86 90.04 34.86 160.04"/><circle cx="64.86" cy="60.04" r="20"/><circle cx="183.76" cy="60.04" r="20"/><path d="M209.46,68.14a27.28,27.28,0,0,1-.3,4.1h14.2a27.08,27.08,0,0,0-22.7-24.1A26.82,26.82,0,0,1,209.46,68.14Z"/><path d="M158.06,68.14a27.18,27.18,0,0,1,8.8-20,27.18,27.18,0,0,0-22.7,24.1h14.2A27.28,27.28,0,0,1,158.06,68.14Z"/><polygon points="9.86 160.04 24.86 145.04 24.86 90.04 9.86 90.04 9.86 160.04"/></svg>