<svg id="ec139b57-277f-4d82-bed7-7a24eca727a5" data-name="Blue" xmlns="http://www.w3.org/2000/svg" viewBox="0 0 260 260"><defs><style>.bb41a7ae-bae6-4401-9de5-80fb8e8d5658{fill-rule:evenodd;}</style></defs><path class="bb41a7ae-bae6-4401-9de5-80fb8e8d5658" d="M160.15,190v20h-120V30h120V50h20V20a9.8,9.8,0,0,0-9.5-10H30.45a10.22,10.22,0,0,0-10.3,10V240a10.29,10.29,0,0,0,10.3,10h140a9.73,9.73,0,0,0,9.7-9.8V190Zm-59.7,50a10,10,0,1,1,10-10A10,10,0,0,1,100.45,240Z"/><path d="M189.15,124l-24.8,24.3a24.56,24.56,0,0,0,24.8-24.3Z"/><path d="M221.35,92.4l-21.4,21a34.49,34.49,0,0,1,1.6,10.6c0,20.1-16.6,36.5-37.1,36.5a35.77,35.77,0,0,1-10.8-1.6l-13.2,13a77.74,77.74,0,0,0,24,3.8c55.7,0,74.2-54.7,74.2-54.7A93.94,93.94,0,0,0,221.35,92.4Z"/><path d="M201.15,75.7a74,74,0,0,0-36.8-9.5c-55.6.1-74.2,54.8-74.2,54.8s7.3,21.6,26.6,37.7l-14.2,14v18.2l32-31.4,6.9-6.8,34.7-34.1,8.6-8.5,18.1-17.8,9.2-9.1,8.1-7.9V57.2Zm-26.6,26.2a25.62,25.62,0,0,0-10.2-2.2,24.48,24.48,0,0,0-24.7,24.3,22.82,22.82,0,0,0,2.2,10l-9.1,9a35.51,35.51,0,0,1-5.4-19c0-20.1,16.6-36.5,37.1-36.5a37.37,37.37,0,0,1,19.3,5.3Z"/></svg>