<svg id="a7c2cf68-9863-4458-b9c9-c5c7338e06ca" data-name="Blue" xmlns="http://www.w3.org/2000/svg" viewBox="0 0 260 260"><defs><style>.ac290433-8a39-432e-8d51-dc779fb6f77c{fill-rule:evenodd;}</style></defs><path class="ac290433-8a39-432e-8d51-dc779fb6f77c" d="M65.77,121.27,88,117l56,56.39-6.1,20.49L65.77,121.27Zm105,63.18,40.71-40.88a69.31,69.31,0,0,0,20.3-48.29,66.63,66.63,0,0,0-11.9-38.89L240,36.1,224,20,204.09,40.09a64.87,64.87,0,0,0-39.9-12.69,68.78,68.78,0,0,0-47.71,20.69L75.87,88.88,23.26,103c-3.6,1-4.3,3.8-1.7,6.39l39.61,39.39-.6.6a34.63,34.63,0,0,0,0,48.79,34.14,34.14,0,0,0,48.31.2l.2-.2.6-.6,40.1,40.89c2.6,2.6,5.51,1.9,6.51-1.7l14.5-52.29Z"/></svg>