<svg id="e8e8a65d-bd4e-43f7-ac5e-df8aa27e825c" data-name="Blue" xmlns="http://www.w3.org/2000/svg" viewBox="0 0 260 260"><path d="M185,120a65,65,0,1,0,65,65,65,65,0,0,0-65-65Zm5.4,51.5-10.8,10.8H158.1a36.5,36.5,0,0,0,0,5.4h32.4l-10.8,10.8h-18a27,27,0,0,0,37,9.9,28.79,28.79,0,0,0,5.6-4.3l7.7,7.7A37.85,37.85,0,0,1,147.3,185a24.37,24.37,0,0,1,.1-2.7h-.1l.1-.1a37.9,37.9,0,0,1,64.6-24l-7.7,7.7a27,27,0,0,0-38.3,0,28.79,28.79,0,0,0-4.3,5.6Z"/><path d="M111.9,228.4c-46.3-8.3-82.2-49.2-82.2-98.4a98.46,98.46,0,0,1,9.7-42.7l50.6,62v.7h17.6A85.12,85.12,0,0,1,140,112.9V110H90V90h30V60h30V32a99.68,99.68,0,0,1,78.1,79.7A84.52,84.52,0,0,1,250,130.2V130A120,120,0,1,0,130,250h.2A86.42,86.42,0,0,1,111.9,228.4Z"/></svg>