<svg id="b47e97e4-db77-4ef4-aed5-6e40d9910049" data-name="Blue" xmlns="http://www.w3.org/2000/svg" viewBox="0 0 260 260"><defs><style>.b0c61620-82ad-4fd6-b735-1679f02aa671{fill-rule:evenodd;}</style></defs><g id="a7b0c4d6-ee5b-4962-aa4b-f8c322cd895a" data-name="Calculator"><path id="ec5c2999-bf7b-482c-99ec-c98eeb7e4803" data-name="icon-calculator" class="b0c61620-82ad-4fd6-b735-1679f02aa671" d="M40,30a10,10,0,0,1,9.93-10H210.07A9.92,9.92,0,0,1,220,30V230a10,10,0,0,1-9.93,10H49.93A9.92,9.92,0,0,1,40,230Zm125,96h25V101H165Zm0,45h25V146H165Zm0,45h25V191H165Zm-48-90h25V101H117Zm0,45h25V146H117Zm0,45h25V191H117ZM70,126H95V101H70Zm0,45H95V146H70Zm0,45H95V191H70ZM69,50V75H169l20-25Z"/></g></svg>