<svg id="fe6cec44-e670-4862-929d-6a1c32748283" data-name="Blue" xmlns="http://www.w3.org/2000/svg" viewBox="0 0 260 260"><defs><style>.acd9c552-89a4-48cd-a648-a08b9e2b2198{fill-rule:evenodd;}</style></defs><g id="bcec1bc4-1ded-4093-b12b-fc0ded62478d" data-name="Receipt-OK"><path id="b918d731-4bef-4a7a-a320-186b623975e7" data-name="Combined-Shape" class="acd9c552-89a4-48cd-a648-a08b9e2b2198" d="M100,20h10V30h10l10-10h10V30h10l10-10h10V30h10l10-10h10a10,10,0,0,1,10,10V230a10,10,0,0,1-10,10H180V230H170l-10,10H150V230H140l-10,10H120V230H110l-10,10H90V230H80L70,240H60a10,10,0,0,1-10-10V30A10,10,0,0,1,60,20H80V30H90ZM85,125,70,140l40,40,80-80L175,85l-65,65Z"/></g></svg>