<svg id="e65e28db-80d3-4e2b-8ab2-ffa9fd52bd1a" data-name="Blue" xmlns="http://www.w3.org/2000/svg" viewBox="0 0 260 260"><path id="b13bc2fe-68cf-48a7-9385-77fe2d58ce7f" data-name="Fill-1" d="M73.08,230.29h2.71a74.53,74.53,0,0,1,20.63,3.55,109,109,0,0,0,142.65-99.58c0-.2,0-.4,0-.59V130A109.23,109.23,0,0,0,130,20.87h-3.8C66.2,23,18.86,73.68,21,133.86A106,106,0,0,0,26.11,163a74.08,74.08,0,0,1,3.67,21.44,79.52,79.52,0,0,1-4.15,28A20.26,20.26,0,0,0,24.51,219a17.06,17.06,0,0,0,5.11,11.68,17.44,17.44,0,0,0,11.68,5.12,15.13,15.13,0,0,0,6.08-.8,73.21,73.21,0,0,1,25.75-4.64M130.22,250H126a120.65,120.65,0,0,1-32.15-5.44,64.67,64.67,0,0,0-18.56-3.2,71.54,71.54,0,0,0-24,3.52A28.2,28.2,0,0,1,22,238.32a27.61,27.61,0,0,1-8.16-19,26.3,26.3,0,0,1,1.44-9.91A65.93,65.93,0,0,0,19,184.7a65.76,65.76,0,0,0-3-17.76,119.24,119.24,0,0,1-5.92-32.79C7.82,68.08,59.65,12.4,125.86,10.17A36,36,0,0,1,130,10h0A120.14,120.14,0,0,1,250,130v4.32A119.43,119.43,0,0,1,130.17,250"/><path id="a41657af-a61a-4e9d-82fc-eea9f854a9f9" data-name="Fill-4" d="M148.73,162.94h-2.08a6.24,6.24,0,0,1-6.24-6.24V116.23a6.15,6.15,0,0,1,6.06-6.24h2.26a6.26,6.26,0,0,1,6.24,6.24V156.7a6.15,6.15,0,0,1-6.06,6.24h-.18"/><path id="bc19e3da-aea3-42a1-903c-95e5d5f6f989" data-name="Fill-6" d="M123,162.94h-1.92a6.15,6.15,0,0,1-6.24-6.05V96.71a6.26,6.26,0,0,1,6.24-6.24H123a6.15,6.15,0,0,1,6.24,6.06V156.7a6.25,6.25,0,0,1-6.24,6.24"/><path id="ba7400cb-5fd7-499f-b11a-264f31f4d0a6" data-name="Fill-8" d="M155,99.43a7.2,7.2,0,1,1-7.2-7.2h0a7.18,7.18,0,0,1,7.2,7.14v.06"/><path id="ecadf627-6c19-42ed-80cc-48a24d32eb47" data-name="Fill-10" d="M209.66,133.51V122c-.32-6.56-3.68-13.76-15.35-13.76-5.59,0-7.67,2.4-13.59,2.4-3,0-4-1-8.8-1-3.84,0-7.2,2.4-7.2,6.56v40.66a6,6,0,0,0,5.92,6.08H173A5.93,5.93,0,0,0,179,157V126.79c0-6.08,3.52-9.76,8.32-9.76h0c4.79,0,8.31,3.2,8.31,9.76v30.06a6,6,0,0,0,5.91,6.08h2.24a6,6,0,0,0,5.92-6.08h0V133.51"/><path id="b9eb1700-12b5-4b0f-abe3-ef68623375e2" data-name="Fill-12" d="M91,135.91c0,10.4-4.48,18.71-12.8,18.71s-12.79-8.31-12.79-18.71,5-18.72,12.79-18.72S91,125.51,91,135.91m-9.92-27.68c-7.19,0-9,2.4-14.39,2.4-3.2,0-5-1.12-9.11-1.12-2.4,0-5.76,1.44-5.76,6.4v63.35a6.08,6.08,0,0,0,6.08,6.08h2.4a6.09,6.09,0,0,0,6.07-6.08v-12c0-4.16,2.72-5.6,5-5.6,1.6,0,5,1.44,8.63,1.44,19.51,0,25.11-13.44,25.11-26.55,0-17.92-8-28.32-24-28.32"/></svg>