<svg id="ba1d56bd-923c-43c3-94b7-13f852b48f9b" data-name="Blue" xmlns="http://www.w3.org/2000/svg" viewBox="0 0 260 260"><path d="M200,20.14c-.2-11.19-12-10.29-20-10l-10,10H160v-10H150l-10,10H130v-10H120l-10,10H100v-10H90l-10,10H70v-10H60l-10,10H40v-10c-7.8-.3-20-1.1-20,10V239.87c.1,11.09,12,10.29,20,10l10-10H60v10H70l10-10H90v10h10l10-10v-40L200,110ZM120,120H50V100h90Zm30-39.95H50v-20H170Z"/><path d="M236.48,146.48c-7.4-6.79-18.9-24.07-30-13L130,209.91v30h30l76.5-76.41A12,12,0,0,0,236.48,146.48Z"/><polygon points="189.98 239.87 239.97 239.87 239.97 219.9 209.98 219.9 189.98 239.87"/></svg>