<svg xmlns="http://www.w3.org/2000/svg" xmlns:xlink="http://www.w3.org/1999/xlink" viewBox="0 0 600 600"><defs><style>.cls-1{fill:none;}.cls-2{fill:url(#Degradado_sin_nombre_32);}.cls-3{fill:#043263;}.cls-4{fill:url(#Degradado_sin_nombre_66);}.cls-5{fill:#20b4ff;}.cls-6{fill:#ffcc28;}.cls-7{fill:#28ad68;}.cls-8{fill:#fff;}</style><linearGradient id="Degradado_sin_nombre_32" x1="304.6" y1="-3223.84" x2="466.13" y2="-3527.64" gradientTransform="matrix(1, 0, 0, -1, 0, -3044)" gradientUnits="userSpaceOnUse"><stop offset="0" stop-color="#192647" stop-opacity="0.5"/><stop offset="1" stop-color="#192647" stop-opacity="0"/></linearGradient><linearGradient id="Degradado_sin_nombre_66" x1="472.22" y1="-3354.18" x2="219.39" y2="-3354.18" gradientTransform="matrix(1, 0, 0, -1, 0, -3044)" gradientUnits="userSpaceOnUse"><stop offset="0" stop-color="#072146"/><stop offset="1" stop-color="#072146" stop-opacity="0.1"/></linearGradient></defs><title>15</title><g id="Cuadrados_Blancos" data-name="Cuadrados Blancos"><rect class="cls-1" width="600" height="600"/><rect class="cls-1" width="600" height="600"/></g><g id="Capa_4" data-name="Capa 4"><path class="cls-2" d="M522.64,338.69a7.21,7.21,0,0,0-.08-1.31c-.13-1.8-.29-3.59-.47-5.36,0-.36-.09-.7-.12-1.06-.17-1.46-.35-2.92-.54-4.37l-.21-1.51q-.35-2.35-.75-4.68a3.44,3.44,0,0,0-.1-.63c-.31-1.76-.66-3.5-1-5.24-.09-.44-.19-.87-.29-1.31-.29-1.37-.61-2.74-.94-4.1-.11-.43-.21-.86-.32-1.28-.43-1.73-.88-3.44-1.37-5.14l-.12-.42c-.46-1.57-.93-3.13-1.42-4.66l-.42-1.28q-.71-2.16-1.47-4.29l-.26-.75c-.61-1.67-1.25-3.34-1.9-5l-.35-.86c-.57-1.39-1.15-2.77-1.74-4.13l-.46-1.06q-1.08-2.43-2.23-4.83A65,65,0,1,0,425.58,195,172,172,0,0,0,274.92,504.28H275q6.86,3.39,14,6.17h.08c1.5.58,3,1.13,4.53,1.67l.51.18c1.46.51,2.93,1,4.41,1.48l.35.11q4.84,1.54,9.8,2.8l.42.1c1.43.36,2.87.7,4.31,1l1.1.24c1.25.27,2.52.53,3.79.77l1.19.23q2.07.39,4.17.72l.72.12c1.65.26,3.32.49,5,.7l.69.08c1.39.17,2.79.32,4.19.46l1.55.14,3.43.26,1.72.11c1.16.07,2.32.12,3.48.16a13.65,13.65,0,0,1,1.55.06c1.66,0,3.33.08,5,.08a171.35,171.35,0,0,0,67-13.52,164.36,164.36,0,0,0,15-7.24q7.29-4,14.19-8.61,3.42-2.32,6.74-4.8c2.21-1.65,4.37-3.35,6.5-5.11q4.77-3.94,9.26-8.21c1-.95,2-1.91,2.95-2.89A172.23,172.23,0,0,0,511.06,413c1-2.61,2-5.25,2.89-7.9A171.76,171.76,0,0,0,523,350c0-1.84,0-3.67-.1-5.49a13.65,13.65,0,0,0-.06-1.55C522.81,341.53,522.73,340.11,522.64,338.69Z"/><circle class="cls-3" cx="300" cy="300" r="172"/><path class="cls-4" d="M380.91,148.19,219.39,452A172,172,0,0,0,380.91,148.19Z"/><circle class="cls-5" cx="300" cy="267.31" r="43.2"/><path class="cls-5" d="M262.67,321h74.66a35.77,35.77,0,0,1,35.77,35.75v31.64a3,3,0,0,1-3,3H229.9a3,3,0,0,1-3-3V356.77A35.77,35.77,0,0,1,262.67,321Z"/><path class="cls-6" d="M246.29,245.05a5,5,0,0,1-5-5V213.59a5,5,0,0,1,5-5h26.45a5,5,0,0,1,0,10H251.29v21.46A5,5,0,0,1,246.29,245.05Z"/><path class="cls-6" d="M353.71,245.05a5,5,0,0,1-5-5V218.59H327.26a5,5,0,0,1,0-10h26.45a5,5,0,0,1,5,5v26.46a5,5,0,0,1-5,5Z"/><path class="cls-6" d="M353.71,326H327.26a5,5,0,0,1,0-10h21.45V294.57a5,5,0,0,1,10,0V321a5,5,0,0,1-5,5Z"/><path class="cls-6" d="M272.74,326H246.29a5,5,0,0,1-5-5V294.57a5,5,0,0,1,10,0V316h21.45a5,5,0,0,1,0,10Z"/><path class="cls-7" d="M502,163a65,65,0,1,1-65-65,65,65,0,0,1,65,65"/><path class="cls-8" d="M423.57,191.41a5,5,0,0,1-3.54-1.47l-20-20a5,5,0,0,1,7.08-7.06l16.47,16.5,43.34-43.27a5,5,0,0,1,7.06,7.08L427.1,189.94A5,5,0,0,1,423.57,191.41Z"/></g></svg>