<?xml version="1.0" encoding="utf-8"?>
<!-- Generator: Adobe Illustrator 23.0.1, SVG Export Plug-In . SVG Version: 6.00 Build 0)  -->
<svg version="1.1" id="Contenido" xmlns="http://www.w3.org/2000/svg" xmlns:xlink="http://www.w3.org/1999/xlink" x="0px" y="0px"
	 viewBox="0 0 600 600" style="enable-background:new 0 0 600 600;" xml:space="preserve">
<style type="text/css">
	.st0{fill:url(#SVGID_1_);}
	.st1{fill:#1464A5;}
	.st2{fill:#49A5E6;}
	.st3{opacity:0.5;fill-rule:evenodd;clip-rule:evenodd;fill:url(#SVGID_2_);enable-background:new    ;}
	.st4{fill:#FFFFFF;}
	.st5{fill:#07467F;}
	.st6{fill:#2DCCCD;}
</style>
<title>GLOMO</title>
<linearGradient id="SVGID_1_" gradientUnits="userSpaceOnUse" x1="248.0638" y1="451.0524" x2="457.0562" y2="57.9877" gradientTransform="matrix(1 0 0 -1 0 602)">
	<stop  offset="0" style="stop-color:#192647"/>
	<stop  offset="0" style="stop-color:#192647;stop-opacity:0.5"/>
	<stop  offset="1" style="stop-color:#192647;stop-opacity:0"/>
</linearGradient>
<path class="st0" d="M261.3,146.8h182.6c12.1,0,21.9,9.8,21.9,21.9v357.6c0,12.1-9.8,21.9-21.9,21.9H261.3
	c-12.1,0-21.9-9.8-21.9-21.9V168.7C239.4,156.6,249.2,146.8,261.3,146.8z"/>
<path class="st1" d="M207,95.8h184.9c12.2,0,22.1,9.9,22.1,22.2v362c0,12.2-9.9,22.1-22.1,22.1H207c-12.2,0-22.1-9.9-22.1-22.1v-362
	C184.9,105.7,194.8,95.8,207,95.8z"/>
<rect x="184.9" y="146.8" class="st2" width="229.2" height="304.3"/>
<linearGradient id="SVGID_2_" gradientUnits="userSpaceOnUse" x1="215.46" y1="387.3" x2="369.72" y2="233.04" gradientTransform="matrix(1 0 0 -1 0 602)">
	<stop  offset="0" style="stop-color:#FFFFFF;stop-opacity:0.5"/>
	<stop  offset="1" style="stop-color:#ECF7F8;stop-opacity:0.1"/>
</linearGradient>
<polygon class="st3" points="185.2,147 185.2,450.9 302,451.1 414,244.1 414,146.8 "/>
<path class="st4" d="M331.3,366.6l-12.4,23.6c-0.2,0.4-0.7,0.5-1,0.3c-0.1-0.1-0.2-0.2-0.3-0.3l-12.4-23.6c-0.1-0.2-0.4-0.4-0.6-0.4
	h-6c-0.3,0-0.5,0.2-0.5,0.5c0,0.1,0,0.2,0.1,0.3l19.6,36.6c0.2,0.4,0.6,0.5,1,0.3c0.1-0.1,0.2-0.2,0.3-0.3l19.6-36.6
	c0.1-0.3,0-0.6-0.2-0.7c-0.1,0-0.2-0.1-0.2-0.1h-6C331.7,366.2,331.4,366.4,331.3,366.6"/>
<path class="st4" d="M338.4,398.2l12.4-23.6c0.2-0.4,0.7-0.5,1-0.3c0.1,0.1,0.2,0.2,0.3,0.3l12.4,23.6c0.1,0.2,0.4,0.4,0.6,0.4h6
	c0.3,0,0.5-0.3,0.5-0.6c0-0.1,0-0.2-0.1-0.2l-19.6-36.6c-0.2-0.4-0.6-0.5-1-0.3c-0.1,0.1-0.2,0.2-0.3,0.3l-19.6,36.6
	c-0.1,0.3,0,0.6,0.2,0.7c0.1,0,0.2,0.1,0.3,0.1h6C338,398.6,338.2,398.4,338.4,398.2"/>
<path class="st4" d="M245.4,398.5h-11.2c-0.4,0-0.7-0.3-0.7-0.7l0,0v-10c0-0.4,0.3-0.7,0.7-0.7h11.2c5.3,0,7.7,1.5,7.7,5.8
	S250.8,398.6,245.4,398.5 M234.2,371.7h11c4.1,0,6.1,1.7,6.1,5s-2.1,5-6.1,5h-11c-0.4,0-0.7-0.3-0.7-0.7l0,0v-8.5
	C233.5,372.1,233.8,371.7,234.2,371.7L234.2,371.7 M253.5,383.7c2.7-1.5,4.4-4.4,4.2-7.6c0-5.9-4.6-9.9-11.1-9.9H228
	c-0.4,0-0.7,0.3-0.7,0.7v36.4c0,0.4,0.3,0.7,0.7,0.7h17.8c8.9,0,13.6-3.8,13.6-11.3C259.4,385.4,253.5,383.8,253.5,383.7"/>
<path class="st4" d="M283.6,398.5h-11.2c-0.4,0-0.7-0.3-0.7-0.7l0,0v-10c0-0.4,0.3-0.7,0.7-0.7h11.2c5.3,0,7.7,1.5,7.7,5.8
	S289,398.6,283.6,398.5 M272.4,371.7h11c4.1,0,6.1,1.7,6.1,5s-2.1,5-6.1,5h-11c-0.4,0-0.7-0.3-0.7-0.7l0,0v-8.5
	C271.7,372.1,272,371.7,272.4,371.7L272.4,371.7 M291.7,383.7c2.7-1.5,4.4-4.4,4.2-7.6c0-5.9-4.6-9.9-11.1-9.9h-18.6
	c-0.4,0-0.7,0.3-0.7,0.7l0,0v36.4c0,0.4,0.3,0.7,0.7,0.7H284c8.9,0,13.6-3.8,13.6-11.3C297.6,385.4,291.7,383.8,291.7,383.7"/>
<circle class="st5" cx="299.7" cy="258.2" r="65.6"/>
<g>
	<path class="st6" d="M275.6,280.1c-1.5,0-2.8-0.8-3.5-2.2c-3.8-8.5-5.6-15.7-5.6-22.7c0-8.4,3-16.5,8.6-22.9
		c1.4-1.6,3.8-1.8,5.4-0.4c1.6,1.4,1.8,3.8,0.4,5.4c-4.3,5-6.7,11.3-6.7,17.9c0,5.9,1.6,12.1,4.9,19.6c0.9,1.9,0,4.2-1.9,5
		C276.7,280,276.1,280.1,275.6,280.1z"/>
</g>
<g>
	<path class="st6" d="M332.6,258.9c-2.1,0-3.8-1.7-3.8-3.8c0-4.2-1-8.3-2.8-12.1c-6.7-13.5-23.1-19.1-36.6-12.5
		c-1.9,0.9-4.2,0.2-5.1-1.7c-0.9-1.9-0.2-4.2,1.7-5.1c17.3-8.5,38.3-1.4,46.8,15.9c2.4,4.8,3.6,10.1,3.6,15.4
		C336.4,257.2,334.7,258.9,332.6,258.9C332.6,258.9,332.6,258.9,332.6,258.9z"/>
</g>
<g>
	<path class="st6" d="M288.3,286.8c0,0-0.1,0-0.1,0c-2.1-0.1-3.8-1.8-3.7-3.9c0.2-8.4-0.9-12.8-1.9-17c-0.8-3.3-1.6-6.4-1.6-10.8
		c0-6.6,3.2-12.9,8.6-16.7c1.7-1.2,4.1-0.8,5.3,0.9c1.2,1.7,0.8,4.1-0.9,5.3c-3.4,2.4-5.4,6.3-5.4,10.5c0,3.4,0.6,5.9,1.4,8.9
		c1.1,4.3,2.4,9.6,2.1,19.1C292.1,285.2,290.4,286.8,288.3,286.8z"/>
</g>
<g>
	<path class="st6" d="M317.4,285.8c-0.1,0-0.2,0-0.4,0c-2.1-0.2-3.6-2.1-3.4-4.1c0.9-9.3,0.8-18.6,0.8-24.2c0-0.9,0-1.7,0-2.4
		c0-6.6-5-12.1-11.5-12.8c-2.1-0.2-3.6-2.1-3.4-4.2c0.2-2.1,2.1-3.6,4.2-3.4c10.5,1.1,18.3,9.9,18.3,20.4c0,0.7,0,1.4,0,2.3
		c0,5.7,0.1,15.3-0.8,24.9C321,284.4,319.3,285.8,317.4,285.8z"/>
</g>
<g>
	<path class="st6" d="M303.8,296.3c-2.1,0-3.8-1.7-3.8-3.8v-10.4c0-2.1,1.7-3.8,3.8-3.8s3.8,1.7,3.8,3.8v10.4
		C307.6,294.6,305.9,296.3,303.8,296.3z"/>
</g>
<g>
	<path class="st6" d="M303.6,273.6c-2,0-3.7-1.6-3.8-3.6c-0.3-4.7-0.9-9.5-2-14.1c-0.5-2,0.8-4.1,2.9-4.6c2-0.5,4.1,0.8,4.6,2.9
		c1.1,5,1.9,10.2,2.1,15.4c0.1,2.1-1.5,3.9-3.6,4C303.7,273.6,303.6,273.6,303.6,273.6z"/>
</g>
</svg>
