<svg xmlns="http://www.w3.org/2000/svg" xmlns:xlink="http://www.w3.org/1999/xlink" viewBox="0 0 600 600"><defs><style>.cls-1{fill:none;}.cls-2{fill:url(#Degradado_sin_nombre_4);}.cls-3{fill:#ffcc28;}.cls-4{fill:#043263;}.cls-5{fill:url(#Degradado_sin_nombre_93);}.cls-6{fill:url(#Degradado_sin_nombre_95);}.cls-7{fill:#20b4ff;}</style><linearGradient id="Degradado_sin_nombre_4" x1="259.62" y1="-6956.35" x2="432.04" y2="-7280.62" gradientTransform="matrix(1, 0, 0, -1, 0, -6764)" gradientUnits="userSpaceOnUse"><stop offset="0" stop-color="#192647" stop-opacity="0.5"/><stop offset="1" stop-color="#192647" stop-opacity="0"/></linearGradient><linearGradient id="Degradado_sin_nombre_93" x1="927.42" y1="-3098.37" x2="926.42" y2="-3098.37" gradientTransform="matrix(203.31, 0, 0, -232, -188128.09, -718449.43)" gradientUnits="userSpaceOnUse"><stop offset="0" stop-color="#072146"/><stop offset="1" stop-color="#072146" stop-opacity="0"/></linearGradient><linearGradient id="Degradado_sin_nombre_95" x1="924.99" y1="-3106.13" x2="925.4" y2="-3106.53" gradientTransform="matrix(150.36, 0, 0, -154, -138856.28, -478189.64)" gradientUnits="userSpaceOnUse"><stop offset="0" stop-color="#fff" stop-opacity="0.5"/><stop offset="1" stop-color="#e8f6f7" stop-opacity="0"/></linearGradient></defs><title>15</title><g id="Cuadrados_Blancos" data-name="Cuadrados Blancos"><rect class="cls-1" width="600" height="600"/><rect class="cls-1" width="600" height="600"/></g><g id="Capa_1" data-name="Capa 1"><path class="cls-2" d="M473.33,317.82l-.08-.08-.24-.23A23,23,0,0,0,457,311V262a105.12,105.12,0,0,0-62.08-95.78l-.65-.28c-.61-.27-1.23-.54-1.86-.8l-.83-.34-1.72-.69-.91-.34c-.55-.21-1.11-.42-1.68-.62l-.94-.33c-.56-.2-1.13-.39-1.7-.57l-.93-.31c-.59-.19-1.19-.37-1.79-.54l-.86-.26-2-.56-.64-.18c-.91-.23-1.82-.46-2.74-.67h0l-2.67-.58-.84-.16-1.9-.35-1-.17-1.74-.28-1.11-.15-1.7-.22-1.14-.13-1.7-.17-1.15-.11-1.74-.12-1.11-.07c-.64,0-1.28-.06-1.93-.08h-3.82A105.09,105.09,0,0,0,247,262v49h-4a23,23,0,0,0-23,23v79.1a129.91,129.91,0,0,0,114.9,129h0q4.78.55,9.67.75h.71c1.53,0,3.07.09,4.62.09h.2a129.49,129.49,0,0,0,91.34-37.54c.16-.17.33-.33.5-.49l.39-.4A129.25,129.25,0,0,0,480,413.2V334A23,23,0,0,0,473.33,317.82ZM421,311H283.05V262A69,69,0,0,1,352,193h0c1.23,0,2.46,0,3.68.1l.94.08c.91.06,1.82.12,2.72.22l.94.12c.9.11,1.8.22,2.7.37l.79.14c.94.16,1.88.34,2.81.54l.61.14c1,.22,2,.47,3,.73l.41.12c1,.29,2.08.61,3.1.95l.24.08c1.08.36,2.14.75,3.2,1.16h.09c1.09.43,2.18.89,3.25,1.37A69,69,0,0,1,421,262Z"/></g><g id="Capa_20" data-name="Capa 20"><g id="Security_Access-Biometric-Copy" data-name="Security/Access-Biometric-Copy"><g id="Secure-access-biometric"><path id="Path" class="cls-3" d="M407,212a105,105,0,0,0-209.92,0V261h36V212a68.93,68.93,0,0,1,137.85,0V261h36Z"/><path id="Path-2" data-name="Path" class="cls-4" d="M193.08,261H406.94a23,23,0,0,1,23,23V363.1A129.88,129.88,0,0,1,300.11,493h-.2A129.88,129.88,0,0,1,170.06,363.1V284a23,23,0,0,1,23-23Z"/><path id="Path-3" data-name="Path" class="cls-5" d="M406.92,261H341.27L226.64,470.33A130,130,0,0,0,430,363.21V284A23,23,0,0,0,406.92,261Z"/><path id="Path-4" data-name="Path" class="cls-6" d="M302,107a105.08,105.08,0,0,0-105,105V261h36V212a68.87,68.87,0,0,1,97.39-62.75l16.94-31.87A104.35,104.35,0,0,0,302,107Z"/><ellipse id="Oval" class="cls-7" cx="296.73" cy="344.66" rx="28.06" ry="28.08"/><path id="Path-5" data-name="Path" class="cls-7" d="M272.47,379.57H321a23.25,23.25,0,0,1,23.24,23.25v20.56a2,2,0,0,1-2,1.95H251.15a2,2,0,0,1-2-1.95V402.82a23.25,23.25,0,0,1,23.27-23.25Z"/><path id="Path-6" data-name="Path" class="cls-3" d="M261.82,330.19a3.24,3.24,0,0,1-3.24-3.25V309.75a3.25,3.25,0,0,1,3.24-3.25H279a3.25,3.25,0,0,1,0,6.5H265.08v13.94a3.26,3.26,0,0,1-3.26,3.25Z"/><path id="Path-7" data-name="Path" class="cls-3" d="M331.62,330.19a3.25,3.25,0,0,1-3.25-3.25V313H314.43a3.25,3.25,0,0,1,0-6.5h17.19a3.26,3.26,0,0,1,3.25,3.25v17.19A3.25,3.25,0,0,1,331.62,330.19Z"/><path id="Path-8" data-name="Path" class="cls-3" d="M331.62,382.82H314.43a3.25,3.25,0,0,1,0-6.5h13.94V362.4a3.25,3.25,0,0,1,6.5,0v17.19A3.25,3.25,0,0,1,331.62,382.82Z"/><path id="Path-9" data-name="Path" class="cls-3" d="M279,382.82H261.82a3.25,3.25,0,0,1-3.24-3.25V362.4a3.26,3.26,0,1,1,6.5,0v13.93H279a3.26,3.26,0,1,1,0,6.51Z"/></g></g></g></svg>