<svg id="Capa_1" data-name="Capa 1" xmlns="http://www.w3.org/2000/svg" xmlns:xlink="http://www.w3.org/1999/xlink" viewBox="0 0 600 600"><defs><style>.cls-1{fill:url(#Degradado_sin_nombre_47);}.cls-2{fill:#ffcc28;}.cls-3{fill:#0065aa;}.cls-4{fill:url(#Degradado_sin_nombre_35);}.cls-5{fill:url(#Degradado_sin_nombre_8);}.cls-6{fill:#20b4ff;}</style><linearGradient id="Degradado_sin_nombre_47" x1="257.27" y1="162.45" x2="446.38" y2="518.13" gradientUnits="userSpaceOnUse"><stop offset="0" stop-color="#142649" stop-opacity="0.5"/><stop offset="1" stop-color="#142649" stop-opacity="0"/></linearGradient><linearGradient id="Degradado_sin_nombre_35" x1="444.11" y1="365.01" x2="221.12" y2="365.01" gradientUnits="userSpaceOnUse"><stop offset="0" stop-color="#003267" stop-opacity="0.5"/><stop offset="1" stop-color="#003267" stop-opacity="0"/></linearGradient><linearGradient id="Degradado_sin_nombre_8" x1="205.32" y1="124.1" x2="302.73" y2="175.89" gradientUnits="userSpaceOnUse"><stop offset="0" stop-color="#fff" stop-opacity="0.4"/><stop offset="1" stop-color="#e8f6f7" stop-opacity="0.1"/></linearGradient></defs><title>_</title><path class="cls-1" d="M491.62,300.13l-.08-.09-.28-.26a25.14,25.14,0,0,0-17.57-7.13l0-53.77a115.25,115.25,0,0,0-68.07-105l-.7-.3c-.68-.3-1.36-.6-2-.88l-.92-.38-1.88-.75-1-.38-1.84-.68-1-.36-1.86-.63-1-.33-2-.6-1-.28c-.74-.22-1.48-.42-2.23-.62l-.7-.19c-1-.25-2-.5-3-.73h-.05c-1-.23-1.95-.44-2.93-.64l-.92-.17c-.69-.14-1.38-.27-2.08-.39l-1.14-.19c-.63-.11-1.27-.21-1.9-.3l-1.22-.17q-.93-.14-1.86-.24l-1.26-.15c-.62-.06-1.23-.13-1.85-.18L368,124.2l-1.91-.13L364.9,124c-.7,0-1.4-.06-2.11-.09l-1,0c-1.05,0-2.1,0-3.16,0h0A115.22,115.22,0,0,0,243.49,238.88v53.77h-4.36a25.24,25.24,0,0,0-25.24,25.25v86.69a142.42,142.42,0,0,0,126,141.46h0c3.49.4,7,.68,10.59.82l.78,0c1.68.06,3.37.1,5.07.1h.22a141.9,141.9,0,0,0,100.13-41.16l.56-.54.43-.44A141.72,141.72,0,0,0,498.93,404.7V317.88A25.13,25.13,0,0,0,491.62,300.13Zm-57.43-7.48H283V238.88a75.66,75.66,0,0,1,75.59-75.56h0c1.35,0,2.7,0,4,.11l1,.08c1,.07,2,.14,3,.24l1,.13c1,.12,2,.25,3,.41l.86.15q1.56.27,3.09.6l.66.15c1.09.25,2.18.51,3.25.81l.45.12c1.14.33,2.28.67,3.4,1l.26.09c1.18.4,2.35.82,3.51,1.28l.1,0c1.2.48,2.38,1,3.56,1.51a75.66,75.66,0,0,1,44.41,68.81Z"/><path class="cls-2" d="M418.9,184.06a115.12,115.12,0,0,0-230.23,0v53.77h39.52V184.06a75.6,75.6,0,0,1,151.19,0v53.77H418.9Z"/><path class="cls-3" d="M184.31,237.83H418.87a25.25,25.25,0,0,1,25.25,25.25v86.69A142.41,142.41,0,0,1,301.7,492.18h-.22A142.41,142.41,0,0,1,159.07,349.77V263.08a25.25,25.25,0,0,1,25.25-25.25Z"/><path class="cls-4" d="M418.85,237.83h-72L221.12,467.33a141.94,141.94,0,0,0,80.47,24.85h0c78.72,0,142.52-63.71,142.52-142.29V263.06A25.25,25.25,0,0,0,418.85,237.83Z"/><path class="cls-5" d="M303.78,69A115.22,115.22,0,0,0,188.67,184.06v53.77h39.52V184.06A75.54,75.54,0,0,1,335,115.26l18.58-34.94A114.48,114.48,0,0,0,303.78,69Z"/><circle class="cls-6" cx="297.99" cy="329.55" r="30.78"/><path class="cls-6" d="M271.39,367.83h53.2a25.49,25.49,0,0,1,25.49,25.49v22.54a2.14,2.14,0,0,1-2.14,2.14H248a2.14,2.14,0,0,1-2.14-2.14V393.32A25.49,25.49,0,0,1,271.39,367.83Z"/><path class="cls-2" d="M259.71,313.69a3.56,3.56,0,0,1-3.56-3.56V291.28a3.56,3.56,0,0,1,3.56-3.56h18.85a3.56,3.56,0,1,1,0,7.12H263.28v15.29A3.56,3.56,0,0,1,259.71,313.69Z"/><path class="cls-2" d="M336.26,313.69a3.56,3.56,0,0,1-3.56-3.56V294.84H317.41a3.56,3.56,0,0,1,0-7.12h18.85a3.56,3.56,0,0,1,3.56,3.56v18.85A3.56,3.56,0,0,1,336.26,313.69Z"/><path class="cls-2" d="M336.26,371.39H317.41a3.57,3.57,0,0,1,0-7.13H332.7V349a3.56,3.56,0,1,1,7.12,0v18.85A3.56,3.56,0,0,1,336.26,371.39Z"/><path class="cls-2" d="M278.56,371.39H259.71a3.57,3.57,0,0,1-3.56-3.56V349a3.57,3.57,0,1,1,7.13,0v15.28h15.28a3.57,3.57,0,1,1,0,7.13Z"/></svg>