<?xml version="1.0" encoding="UTF-8"?>
<svg width="600px" height="600px" viewBox="0 0 600 600" version="1.1" xmlns="http://www.w3.org/2000/svg" xmlns:xlink="http://www.w3.org/1999/xlink">
    <!-- Generator: Sketch 52.6 (67491) - http://www.bohemiancoding.com/sketch -->
    <title>Security/Access-Biometric Copy@2x</title>
    <desc>Created with Sketch.</desc>
    <defs>
        <linearGradient x1="20.9379879%" y1="8.5957054%" x2="66.5163734%" y2="94.2538034%" id="linearGradient-1">
            <stop stop-color="#192647" stop-opacity="0.45074847" offset="0%"></stop>
            <stop stop-color="#192647" stop-opacity="0" offset="100%"></stop>
        </linearGradient>
        <linearGradient x1="100%" y1="50.0019265%" x2="0%" y2="50.0019265%" id="linearGradient-2">
            <stop stop-color="#003267" stop-opacity="0.5" offset="0%"></stop>
            <stop stop-color="#003267" stop-opacity="0" offset="100%"></stop>
        </linearGradient>
        <linearGradient x1="10.0964162%" y1="32.6364268%" x2="69.1649991%" y2="63.3122332%" id="linearGradient-3">
            <stop stop-color="#FFFFFF" stop-opacity="0.4" offset="0%"></stop>
            <stop stop-color="#E8F6F7" stop-opacity="0.1" offset="100%"></stop>
        </linearGradient>
    </defs>
    <g id="Security/Access-Biometric-Copy" stroke="none" stroke-width="1" fill="none" fill-rule="evenodd">
        <path d="M457,274.863519 L457,311 C462.981285,310.999826 468.726107,313.33579 473.01,317.51 L473.25,317.74 L473.33,317.82 C477.604092,322.120016 480.002138,327.937163 480,334 L480,413.2 C480.026241,447.423338 466.479327,480.260309 442.33,504.51 L441.94,504.91 C441.77,505.07 441.6,505.23 441.44,505.4 C417.147582,529.487691 384.310182,542.983597 350.1,542.94 L349.9,542.94 C348.35,542.94 346.81,542.9 345.28,542.85 L344.57,542.85 C341.31,542.716667 338.086667,542.466667 334.9,542.1 C269.416335,534.482906 220.020272,479.025186 220,413.1 L220,334 C220,321.297451 230.297451,311 243,311 L247,311 L247,262 C247.126852,204.038524 294.158388,157.123315 352.12,157.14 C353.08,157.14 354,157.14 355,157.14 L355.94,157.14 C356.59,157.16 357.23,157.22 357.87,157.22 L358.98,157.29 L360.72,157.41 L361.87,157.52 L363.57,157.69 L364.71,157.82 L366.41,158.04 L367.52,158.19 L369.26,158.47 L370.26,158.64 L372.16,158.99 L373,159.15 L375.67,159.73 C376.59,159.94 377.5,160.17 378.41,160.4 L379.05,160.58 C379.69,160.76 380.37,160.94 381.05,161.14 L381.91,161.4 C382.51,161.57 383.11,161.75 383.7,161.94 L384.63,162.25 C385.2,162.43 385.77,162.62 386.33,162.82 L387.27,163.15 C387.84,163.35 388.4,163.56 388.95,163.77 L389.86,164.11 L391.58,164.8 L392.41,165.14 C393.04,165.4 393.66,165.67 394.27,165.94 L394.92,166.22 C411.20658,173.529033 424.989993,184.666944 435.400915,198.2925 L464.936366,146.778808 C465.56483,145.678848 466.734528,145 468.001366,145 C469.268204,145 470.437902,145.678848 471.066366,146.778808 L541.536366,269.688808 C542.12382,270.782804 542.093264,272.105002 541.455899,273.170692 C540.818534,274.236382 539.66811,274.888813 538.426366,274.888808 L457.016366,274.888808 C457.01091,274.880377 457.005455,274.871947 457,274.863519 Z M421.000007,311 L421,262 C421.012508,234.901764 405.162235,210.304894 380.48,199.12 C379.41,198.64 378.32,198.18 377.23,197.75 L377.14,197.75 C376.08,197.34 375.02,196.95 373.94,196.59 L373.7,196.51 C372.68,196.17 371.6,195.85 370.6,195.56 L370.19,195.44 C369.19,195.18 368.19,194.93 367.19,194.71 L366.58,194.57 C365.65,194.37 364.71,194.19 363.77,194.03 L362.98,193.89 C362.08,193.74 361.18,193.63 360.28,193.52 L359.34,193.4 C358.44,193.3 357.53,193.24 356.62,193.18 L355.68,193.1 C354.46,193 353.23,193 352,193 C313.91188,193.0276 283.04999,223.91187 283.05,262 L283.05,311 L421.000007,311 Z" id="Combined-Shape" fill="url(#linearGradient-1)" fill-rule="nonzero"></path>
        <g id="Secure-access-biometric" transform="translate(170.000000, 107.000000)" fill-rule="nonzero">
            <path d="M236.967647,104.950126 C236.430927,47.3418744 189.597288,0.923926174 132.009853,0.923926174 C74.4224175,0.923926174 27.5887786,47.3418744 27.0520588,104.950126 L27.0520588,153.995565 L63.085,153.995565 L63.085,104.950126 C63.5192676,67.1778993 94.2504177,36.7858748 132.009853,36.7858748 C169.769288,36.7858748 200.500438,67.1778993 200.934706,104.950126 L200.934706,153.995565 L236.967647,153.995565 L236.967647,104.950126 Z" id="Path" fill="#FFCC28"></path>
            <path d="M23.0767647,153.995565 L236.940294,153.995565 C249.655026,153.995565 259.962353,164.307065 259.962353,177.026946 L259.962353,256.099833 C259.962353,290.552236 246.281104,323.593426 221.928582,347.954098 C197.576059,372.314771 164.547282,385.999239 130.108824,385.99682 L129.908235,385.99682 C58.1971468,385.99682 0.0638235294,327.839958 0.0638235294,256.099833 L0.0638235294,177.026946 C0.0638235294,164.307065 10.3711504,153.995565 23.0858824,153.995565 L23.0767647,153.995565 Z" id="Path" fill="#0065AA"></path>
            <path d="M236.922059,153.995565 L171.275,153.995565 L56.6388235,363.330293 C78.2399757,378.137512 103.822959,386.041011 130.008529,385.99682 C201.782647,385.99682 259.953235,327.88477 259.953235,256.209289 L259.953235,177.008703 C259.943168,164.292385 249.633233,153.990525 236.922059,153.995565 Z" id="Path" fill="url(#linearGradient-2)"></path>
            <path d="M132.005294,5.42101086e-20 C74.0819147,0.0552657643 27.1324677,47.0033217 27.0520588,104.950126 L27.0520588,153.995565 L63.085,153.995565 L63.085,104.950126 C63.0738148,81.5154885 74.9695757,59.6817855 94.6628614,46.9915255 C114.356147,34.3012654 139.146711,32.4944747 160.470588,42.1953138 L177.411176,10.3253556 C163.246155,3.50704267 147.72468,-0.0225605435 132.005294,5.42101086e-20 Z" id="Path" fill="url(#linearGradient-3)"></path>
            <ellipse id="Oval" fill="#20B4FF" cx="126.726176" cy="237.656485" rx="28.0641176" ry="28.0754812"></ellipse>
            <path d="M102.473235,272.572971 L150.979118,272.572971 C163.814703,272.572971 174.22,282.982481 174.22,295.823264 L174.22,316.382762 C174.22,317.460803 173.346429,318.334728 172.268824,318.334728 L81.1470588,318.334728 C80.0694538,318.334728 79.1958824,317.460803 79.1958824,316.382762 L79.1958824,295.823264 C79.1958748,289.650576 81.6494664,283.731237 86.0158684,279.369911 C90.3822704,275.008585 96.3030535,272.563284 102.473235,272.572971 Z" id="Path" fill="#20B4FF"></path>
            <path d="M91.8238235,223.190042 C90.0311722,223.190042 88.5779412,221.736222 88.5779412,219.942845 L88.5779412,202.749121 C88.5779412,200.955744 90.0311722,199.501925 91.8238235,199.501925 L109.010588,199.501925 C110.80324,199.501925 112.256471,200.955744 112.256471,202.749121 C112.256471,204.542499 110.80324,205.996318 109.010588,205.996318 L95.0788235,205.996318 L95.0788235,219.942845 C95.0788269,220.805638 94.7355997,221.63296 94.1249053,222.242191 C93.5142109,222.851421 92.6862637,223.192465 91.8238235,223.190042 Z" id="Path" fill="#FFCC28"></path>
            <path d="M161.619412,223.190042 C159.82676,223.190042 158.373529,221.736222 158.373529,219.942845 L158.373529,205.996318 L144.432647,205.996318 C142.639996,205.996318 141.186765,204.542499 141.186765,202.749121 C141.186765,200.955744 142.639996,199.501925 144.432647,199.501925 L161.619412,199.501925 C163.412063,199.501925 164.865294,200.955744 164.865294,202.749121 L164.865294,219.942845 C164.865294,221.736222 163.412063,223.190042 161.619412,223.190042 Z" id="Path" fill="#FFCC28"></path>
            <path d="M161.619412,275.820167 L144.432647,275.820167 C142.704306,275.728561 141.34986,274.299876 141.34986,272.56841 C141.34986,270.836944 142.704306,269.40826 144.432647,269.316653 L158.373529,269.316653 L158.373529,255.39749 C158.373529,253.604112 159.82676,252.150293 161.619412,252.150293 C163.412063,252.150293 164.865294,253.604112 164.865294,255.39749 L164.865294,272.591213 C164.855263,274.377462 163.404966,275.820196 161.619412,275.820167 Z" id="Path" fill="#FFCC28"></path>
            <path d="M109.010588,275.820167 L91.8238235,275.820167 C90.0332509,275.815157 88.5829498,274.364268 88.5779412,272.572971 L88.5779412,255.39749 C88.5142393,254.194655 89.1194612,253.054889 90.1514016,252.434318 C91.1833419,251.813746 92.4734228,251.813746 93.5053632,252.434318 C94.5373035,253.054889 95.1425255,254.194655 95.0788235,255.39749 L95.0788235,269.334895 L109.010588,269.334895 C110.212936,269.271168 111.352241,269.876635 111.972561,270.908993 C112.592881,271.941351 112.592881,273.231954 111.972561,274.264313 C111.352241,275.296671 110.212936,275.902138 109.010588,275.83841 L109.010588,275.820167 Z" id="Path" fill="#FFCC28"></path>
        </g>
        <path d="M420.93,107.24 L350.46,230.15 C349.830824,231.243879 349.83343,232.590421 350.466834,233.681856 C351.100238,234.773292 352.268089,235.443595 353.53,235.44 L494.47,235.44 C495.731911,235.443595 496.899762,234.773292 497.533166,233.681856 C498.16657,232.590421 498.169176,231.243879 497.54,230.15 L427.07,107.24 C426.438767,106.140543 425.267778,105.462583 424,105.462583 C422.732222,105.462583 421.561233,106.140543 420.93,107.24 Z" id="Path" fill="#D72544" fill-rule="nonzero"></path>
        <path d="M423.49,195.47 C420.716606,195.442545 418.484372,193.183524 418.49,190.41 L418.49,156.13 C418.49,153.352008 420.742008,151.1 423.52,151.1 C426.297992,151.1 428.55,153.352008 428.55,156.13 L428.55,190.41 C428.566262,191.756915 428.03838,193.053416 427.085898,194.005898 C426.133416,194.95838 424.836915,195.486262 423.49,195.47 Z" id="Path" fill="#FFFFFF" fill-rule="nonzero"></path>
        <path d="M423.5,214.39 C422.162869,214.38423 420.882607,213.84839 419.94,212.9 C419.70335,212.666345 419.492167,212.408233 419.31,212.13 C419.127445,211.856418 418.973312,211.564905 418.85,211.26 C418.72467,210.952802 418.627602,210.63482 418.56,210.31 C418.499848,209.980071 418.469725,209.645368 418.47,209.31 C418.472162,207.97313 419.000189,206.690779 419.94,205.74 C420.879219,204.790352 422.159349,204.25596 423.495,204.25596 C424.830651,204.25596 426.110781,204.790352 427.05,205.74 C428.492027,207.185951 428.925797,209.355904 428.150462,211.245103 C427.375126,213.134301 425.542048,214.373929 423.5,214.39 Z" id="Path" fill="#FFFFFF" fill-rule="nonzero"></path>
    </g>
</svg>