<svg xmlns="http://www.w3.org/2000/svg" xmlns:xlink="http://www.w3.org/1999/xlink" viewBox="0 0 600 600"><defs><style>.cls-1{fill:none;}.cls-2{fill:url(#Degradado_sin_nombre_78);}.cls-3{fill:#043263;}.cls-4{fill:#49a5e6;}.cls-5{opacity:0.5;isolation:isolate;fill:url(#Degradado_sin_nombre_84);}.cls-6{fill:#fff;}.cls-7{fill:#07467f;}.cls-8{fill:#2dcccd;}</style><linearGradient id="Degradado_sin_nombre_78" x1="247.58" y1="-7394.09" x2="460.72" y2="-7794.96" gradientTransform="matrix(1, 0, 0, -1, 0, -7242)" gradientUnits="userSpaceOnUse"><stop offset="0" stop-color="#192647" stop-opacity="0.5"/><stop offset="1" stop-color="#192647" stop-opacity="0"/></linearGradient><linearGradient id="Degradado_sin_nombre_84" x1="215.96" y1="-7457.76" x2="370.22" y2="-7612.02" gradientTransform="matrix(1, 0, 0, -1, 0, -7242)" gradientUnits="userSpaceOnUse"><stop offset="0" stop-color="#fff" stop-opacity="0.5"/><stop offset="1" stop-color="#ecf7f8" stop-opacity="0"/></linearGradient></defs><title>15</title><g id="Cuadrados_Blancos" data-name="Cuadrados Blancos"><rect class="cls-1" width="600" height="600"/><rect class="cls-1" width="600" height="600"/></g><g id="Capa_22" data-name="Capa 22"><path class="cls-2" d="M261.1,147.85H447.2a22.32,22.32,0,0,1,22.3,22.31V534.89a22.32,22.32,0,0,1-22.3,22.31H261.1a22.32,22.32,0,0,1-22.3-22.31V170.16A22.32,22.32,0,0,1,261.1,147.85Z"/><path class="cls-3" d="M207.5,96.85H392.4A22.13,22.13,0,0,1,414.5,119v362a22.12,22.12,0,0,1-22.1,22.1H207.5a22.12,22.12,0,0,1-22.1-22.1v-362a22.13,22.13,0,0,1,22.06-22.2Z"/><rect class="cls-4" x="185.4" y="147.85" width="229.2" height="304.3"/><polygon class="cls-5" points="185.7 148.05 185.7 451.95 302.5 452.15 414.5 245.15 414.5 147.85 185.7 148.05"/><path class="cls-6" d="M331.82,367.58l-12.39,23.58a.71.71,0,0,1-.95.33l-.05,0-.3-.3-12.39-23.58a.8.8,0,0,0-.6-.4h-6a.48.48,0,0,0-.5.44v.06a.37.37,0,0,0,.1.3l19.58,36.57a.69.69,0,0,0,.91.34l.09,0,.3-.3L339.22,368a.58.58,0,0,0-.2-.7.3.3,0,0,1-.2-.1h-6c-.6,0-.9.2-1,.4"/><path class="cls-6" d="M338.92,399.15l12.38-23.57a.71.71,0,0,1,.95-.33l.05,0,.3.3L365,399.15a.81.81,0,0,0,.6.4h6a.56.56,0,0,0,.5-.6c0-.1,0-.2-.1-.2L352.4,362.19a.69.69,0,0,0-.91-.35l-.09.05-.3.3-19.58,36.56a.58.58,0,0,0,.2.7c.1,0,.2.1.3.1h6a1.09,1.09,0,0,0,.9-.4"/><path class="cls-6" d="M246,399.45H234.81a.67.67,0,0,1-.7-.66v0h0v-10a.68.68,0,0,1,.66-.7H246c5.29,0,7.69,1.5,7.69,5.8s-2.3,5.69-7.69,5.59m-11.19-26.77h11c4.09,0,6.09,1.7,6.09,5s-2.1,5-6.09,5h-11a.68.68,0,0,1-.7-.66v0h0v-8.49a.77.77,0,0,1,.7-.8h0m19.28,12a8.13,8.13,0,0,0,4.2-7.6c0-5.89-4.6-9.89-11.09-9.89H228.61a.69.69,0,0,0-.7.66v36.41a.69.69,0,0,0,.66.7H246.4c8.89,0,13.58-3.8,13.58-11.29a9.05,9.05,0,0,0-5.89-9"/><path class="cls-6" d="M284.16,399.45H273a.68.68,0,0,1-.7-.66v0h0v-10a.69.69,0,0,1,.66-.7h11.23c5.3,0,7.7,1.5,7.7,5.8s-2.3,5.69-7.7,5.59M273,372.68h11c4.1,0,6.1,1.7,6.1,5s-2.1,5-6.1,5H273a.69.69,0,0,1-.7-.66v0h0v-8.49a.78.78,0,0,1,.7-.8h0m19.29,12a8.11,8.11,0,0,0,4.19-7.6c0-5.89-4.59-9.89-11.09-9.89H266.78a.68.68,0,0,0-.7.66v0h0v36.37a.68.68,0,0,0,.66.7h17.82c8.9,0,13.59-3.8,13.59-11.29a9.05,9.05,0,0,0-5.89-9"/><circle class="cls-7" cx="300.7" cy="259.2" r="65.6"/><path class="cls-8" d="M276.6,281.1a3.84,3.84,0,0,1-3.5-2.2c-3.8-8.5-5.6-15.7-5.6-22.7a34.66,34.66,0,0,1,8.6-22.9,3.83,3.83,0,1,1,5.8,5,27.4,27.4,0,0,0-6.7,17.9c0,5.9,1.6,12.1,4.9,19.6a3.73,3.73,0,0,1-1.9,5A4.53,4.53,0,0,1,276.6,281.1Z"/><path class="cls-8" d="M333.6,259.9a3.8,3.8,0,0,1-3.8-3.8A28.23,28.23,0,0,0,327,244a27.48,27.48,0,0,0-36.6-12.5,3.8,3.8,0,1,1-3.4-6.8,35,35,0,0,1,46.8,15.9,34.48,34.48,0,0,1,3.6,15.4,3.82,3.82,0,0,1-3.8,3.9Z"/><path class="cls-8" d="M289.3,287.8h-.1a3.8,3.8,0,0,1-3.7-3.9,57.28,57.28,0,0,0-1.9-17,41.71,41.71,0,0,1-1.6-10.8,20.48,20.48,0,0,1,8.6-16.7,3.8,3.8,0,0,1,4.4,6.2,12.8,12.8,0,0,0-5.4,10.5A31.88,31.88,0,0,0,291,265a60.78,60.78,0,0,1,2.1,19.1A3.71,3.71,0,0,1,289.3,287.8Z"/><path class="cls-8" d="M318.4,286.8H318a3.79,3.79,0,0,1-3.4-4.1c.9-9.3.8-18.6.8-24.2v-2.4a12.89,12.89,0,0,0-11.5-12.8,3.82,3.82,0,0,1,.8-7.6A20.41,20.41,0,0,1,323,256.1v2.3c0,5.7.1,15.3-.8,24.9A3.8,3.8,0,0,1,318.4,286.8Z"/><path class="cls-8" d="M304.8,297.3a3.8,3.8,0,0,1-3.8-3.8V283.1a3.8,3.8,0,0,1,7.6,0v10.4A3.8,3.8,0,0,1,304.8,297.3Z"/><path class="cls-8" d="M304.6,274.6a3.83,3.83,0,0,1-3.8-3.6,84,84,0,0,0-2-14.1,3.85,3.85,0,1,1,7.5-1.7,87.81,87.81,0,0,1,2.1,15.4,3.8,3.8,0,0,1-3.6,4Z"/></g></svg>