<svg id="Capa_1" data-name="Capa 1" xmlns="http://www.w3.org/2000/svg" xmlns:xlink="http://www.w3.org/1999/xlink" viewBox="0 0 600 600"><defs><style>.cls-1{fill:url(#Degradado_sin_nombre_47);}.cls-2{fill:#0065aa;}.cls-3{fill:url(#Degradado_sin_nombre_2);}.cls-4{fill:#00b161;}.cls-5{fill:#fff;}.cls-6{fill:#20b4ff;}.cls-7{fill:#ffcc28;}</style><linearGradient id="Degradado_sin_nombre_47" x1="276.81" y1="181.73" x2="438.34" y2="485.53" gradientUnits="userSpaceOnUse"><stop offset="0" stop-color="#142649" stop-opacity="0.5"/><stop offset="1" stop-color="#142649" stop-opacity="0"/></linearGradient><linearGradient id="Degradado_sin_nombre_2" x1="444" y1="312.1" x2="191.39" y2="312.1" gradientUnits="userSpaceOnUse"><stop offset="0" stop-color="#003267" stop-opacity="0.6"/><stop offset="1" stop-color="#003267" stop-opacity="0"/></linearGradient></defs><title>_</title><path class="cls-1" d="M494.64,340.69c0-.43-.05-.88-.08-1.31-.13-1.8-.29-3.59-.47-5.36,0-.36-.09-.7-.12-1.06-.17-1.46-.35-2.92-.54-4.37l-.21-1.51q-.35-2.35-.75-4.68c0-.21-.06-.42-.1-.63-.31-1.76-.66-3.5-1-5.24-.09-.44-.19-.87-.29-1.31-.29-1.37-.61-2.74-.94-4.1-.11-.43-.21-.86-.32-1.28-.43-1.73-.88-3.44-1.37-5.14l-.12-.42q-.69-2.36-1.42-4.66l-.42-1.28q-.71-2.16-1.47-4.29l-.26-.75q-.92-2.51-1.9-5l-.35-.86c-.57-1.39-1.15-2.77-1.74-4.13l-.46-1.06q-1.08-2.43-2.23-4.83A65,65,0,1,0,397.58,197,172,172,0,0,0,246.92,506.28l.06,0q6.86,3.39,14,6.17l.08,0c1.5.58,3,1.13,4.53,1.67l.51.18c1.46.51,2.93,1,4.41,1.48l.35.11q4.84,1.54,9.8,2.8l.42.1c1.43.36,2.87.7,4.31,1l1.1.24c1.25.27,2.52.53,3.79.77l1.19.23q2.07.39,4.17.72l.72.12c1.65.26,3.32.49,5,.7l.69.08c1.39.17,2.79.32,4.19.46l1.55.14,3.43.26,1.72.11c1.16.07,2.32.12,3.48.16.52,0,1,0,1.55.06,1.66.05,3.33.08,5,.08a171.35,171.35,0,0,0,67-13.52q7.71-3.25,15-7.24t14.19-8.61q3.42-2.33,6.74-4.8c2.21-1.65,4.37-3.35,6.5-5.11q4.77-3.95,9.26-8.21c1-.95,2-1.91,2.95-2.89a172.14,172.14,0,0,0,38.45-58.55q1.55-3.92,2.89-7.9A171.82,171.82,0,0,0,495,352c0-1.84,0-3.67-.1-5.49,0-.52,0-1-.06-1.55C494.81,343.53,494.73,342.11,494.64,340.69Z"/><circle class="cls-2" cx="272" cy="302" r="172"/><path class="cls-3" d="M352.91,150.19,191.39,454A172,172,0,0,0,352.91,150.19Z"/><path class="cls-4" d="M474,165a65,65,0,1,1-65-65,65,65,0,0,1,65,65"/><path class="cls-5" d="M395.57,193.41a5,5,0,0,1-3.54-1.47l-20-20a5,5,0,0,1,7.08-7.06l16.47,16.5,43.34-43.27a5,5,0,0,1,7.06,7.08L399.1,191.94A5,5,0,0,1,395.57,193.41Z"/><circle class="cls-6" cx="272" cy="263.54" r="43.2"/><path class="cls-6" d="M234.67,317.25h74.66A35.77,35.77,0,0,1,345.1,353v31.64a3,3,0,0,1-3,3H201.9a3,3,0,0,1-3-3V353A35.77,35.77,0,0,1,234.67,317.25Z"/><path class="cls-7" d="M218.29,241.28a5,5,0,0,1-5-5V209.82a5,5,0,0,1,5-5h26.45a5,5,0,0,1,0,10H223.29v21.46A5,5,0,0,1,218.29,241.28Z"/><path class="cls-7" d="M325.71,241.28a5,5,0,0,1-5-5V214.82H299.26a5,5,0,0,1,0-10h26.45a5,5,0,0,1,5,5v26.46A5,5,0,0,1,325.71,241.28Z"/><path class="cls-7" d="M325.71,322.25H299.26a5,5,0,0,1,0-10h21.45V290.8a5,5,0,0,1,10,0v26.45A5,5,0,0,1,325.71,322.25Z"/><path class="cls-7" d="M244.74,322.25H218.29a5,5,0,0,1-5-5V290.8a5,5,0,0,1,10,0v21.45h21.45a5,5,0,0,1,0,10Z"/></svg>