<svg xmlns="http://www.w3.org/2000/svg" xmlns:xlink="http://www.w3.org/1999/xlink" viewBox="0 0 600 600"><defs><style>.cls-1{fill:none;}.cls-2{fill:url(#Degradado_sin_nombre_74);}.cls-3{fill:#ffcc28;}.cls-4{fill:#043263;}.cls-5{fill:url(#Degradado_sin_nombre_104);}.cls-6{fill:url(#Degradado_sin_nombre_102);}.cls-7{fill:#20b4ff;}.cls-8{fill:#d72544;}.cls-9{fill:#fff;}</style><linearGradient id="Degradado_sin_nombre_74" x1="1546.39" y1="-1848.22" x2="1546.92" y2="-1849.03" gradientTransform="matrix(321.96, 0, 0, -397.94, -497583.31, -735302.6)" gradientUnits="userSpaceOnUse"><stop offset="0" stop-color="#192647" stop-opacity="0.5"/><stop offset="1" stop-color="#192647" stop-opacity="0"/></linearGradient><linearGradient id="Degradado_sin_nombre_104" x1="1544.37" y1="-1853.03" x2="1543.37" y2="-1853.03" gradientTransform="matrix(203.31, 0, 0, -232, -313563.03, -429527.65)" gradientUnits="userSpaceOnUse"><stop offset="0" stop-color="#072146"/><stop offset="1" stop-color="#072146" stop-opacity="0"/></linearGradient><linearGradient id="Degradado_sin_nombre_102" x1="1540.87" y1="-1858.08" x2="1541.28" y2="-1858.48" gradientTransform="matrix(150.36, 0, 0, -154, -231458.94, -285995.02)" gradientUnits="userSpaceOnUse"><stop offset="0" stop-color="#fff" stop-opacity="0.5"/><stop offset="1" stop-color="#e8f6f7" stop-opacity="0"/></linearGradient></defs><title>15</title><g id="Cuadrados_Blancos" data-name="Cuadrados Blancos"><rect class="cls-1" width="600" height="600"/><rect class="cls-1" width="600" height="600"/></g><g id="Capa_7" data-name="Capa 7"><g id="Security_Access-Biometric-Copy" data-name="Security/Access-Biometric-Copy"><path id="Combined-Shape" class="cls-2" d="M457,274.86V311a23,23,0,0,1,16,6.51l.24.23.08.08A23,23,0,0,1,480,334v79.2a129.25,129.25,0,0,1-37.67,91.31l-.39.4c-.17.16-.34.32-.5.49a129.49,129.49,0,0,1-91.34,37.54h-.2c-1.55,0-3.09,0-4.62-.09h-.71q-4.89-.2-9.67-.75A129.91,129.91,0,0,1,220,413.1V334a23,23,0,0,1,23-23h4V262A105.09,105.09,0,0,1,352.12,157.14h3.82c.65,0,1.29.08,1.93.08l1.11.07,1.74.12,1.15.11,1.7.17,1.14.13,1.7.22,1.11.15,1.74.28,1,.17,1.9.35.84.16,2.67.58c.92.21,1.83.44,2.74.67l.64.18,2,.56.86.26c.6.17,1.2.35,1.79.54l.93.31c.57.18,1.14.37,1.7.57l.94.33c.57.2,1.13.41,1.68.62l.91.34,1.72.69.83.34c.63.26,1.25.53,1.86.8l.65.28a105,105,0,0,1,40.48,32.07l29.54-51.51a3.53,3.53,0,0,1,6.13,0l70.47,122.91a3.53,3.53,0,0,1-3.11,5.2H457ZM421,311V262a69,69,0,0,0-40.52-62.88c-1.07-.48-2.16-.94-3.25-1.37h-.09c-1.06-.41-2.12-.8-3.2-1.16l-.24-.08c-1-.34-2.1-.66-3.1-.95l-.41-.12c-1-.26-2-.51-3-.73l-.61-.14c-.93-.2-1.87-.38-2.81-.54l-.79-.14c-.9-.15-1.8-.26-2.7-.37l-.94-.12c-.9-.1-1.81-.16-2.72-.22l-.94-.08c-1.22-.1-2.45-.1-3.68-.1a69,69,0,0,0-68.95,69v49Z"/><g id="Secure-access-biometric"><path id="Path" class="cls-3" d="M407,212a105,105,0,0,0-209.92,0V261h36V212a68.93,68.93,0,0,1,137.85,0V261h36Z"/><path id="Path-2" data-name="Path" class="cls-4" d="M193.08,261H406.94a23,23,0,0,1,23,23V363.1A129.88,129.88,0,0,1,300.11,493h-.2A129.88,129.88,0,0,1,170.06,363.1V284a23,23,0,0,1,23-23Z"/><path id="Path-3" data-name="Path" class="cls-5" d="M406.92,261H341.27L226.64,470.33A130,130,0,0,0,430,363.21V284A23,23,0,0,0,406.92,261Z"/><path id="Path-4" data-name="Path" class="cls-6" d="M302,107a105.08,105.08,0,0,0-105,105V261h36V212a68.87,68.87,0,0,1,97.39-62.75l16.94-31.87A104.35,104.35,0,0,0,302,107Z"/><ellipse id="Oval" class="cls-7" cx="296.73" cy="344.66" rx="28.06" ry="28.08"/><path id="Path-5" data-name="Path" class="cls-7" d="M272.47,379.57H321a23.25,23.25,0,0,1,23.24,23.25v20.56a2,2,0,0,1-2,1.95H251.15a2,2,0,0,1-2-1.95V402.82a23.25,23.25,0,0,1,23.27-23.25Z"/><path id="Path-6" data-name="Path" class="cls-3" d="M261.82,330.19a3.24,3.24,0,0,1-3.24-3.25V309.75a3.25,3.25,0,0,1,3.24-3.25H279a3.25,3.25,0,0,1,0,6.5H265.08v13.94a3.26,3.26,0,0,1-3.26,3.25Z"/><path id="Path-7" data-name="Path" class="cls-3" d="M331.62,330.19a3.25,3.25,0,0,1-3.25-3.25V313H314.43a3.25,3.25,0,0,1,0-6.5h17.19a3.26,3.26,0,0,1,3.25,3.25v17.19A3.25,3.25,0,0,1,331.62,330.19Z"/><path id="Path-8" data-name="Path" class="cls-3" d="M331.62,382.82H314.43a3.25,3.25,0,0,1,0-6.5h13.94V362.4a3.25,3.25,0,0,1,6.5,0v17.19A3.25,3.25,0,0,1,331.62,382.82Z"/><path id="Path-9" data-name="Path" class="cls-3" d="M279,382.82H261.82a3.25,3.25,0,0,1-3.24-3.25V362.4a3.26,3.26,0,1,1,6.5,0v13.93H279a3.26,3.26,0,1,1,0,6.51Z"/></g><path id="Path-10" data-name="Path" class="cls-8" d="M420.93,107.24,350.46,230.15a3.53,3.53,0,0,0,3.07,5.29H494.47a3.53,3.53,0,0,0,3.07-5.29L427.07,107.24a3.54,3.54,0,0,0-6.14,0Z"/><path id="Path-11" data-name="Path" class="cls-9" d="M423.49,195.47a5.05,5.05,0,0,1-5-5.06V156.13a5,5,0,0,1,10.06,0v34.28a5,5,0,0,1-5.06,5.06Z"/><path id="Path-12" data-name="Path" class="cls-9" d="M423.5,214.39a5.05,5.05,0,0,1-3.56-1.49,4.24,4.24,0,0,1-.63-.77,4.83,4.83,0,0,1-.46-.87,5.46,5.46,0,0,1-.29-.95,5.55,5.55,0,0,1-.09-1,5.07,5.07,0,0,1,1.47-3.57,5,5,0,0,1,7.11,0,5.07,5.07,0,0,1-3.55,8.65Z"/></g></g></svg>