<svg id="Capa_1" data-name="Capa 1" xmlns="http://www.w3.org/2000/svg" xmlns:xlink="http://www.w3.org/1999/xlink" viewBox="0 0 600 600"><defs><style>.cls-1{fill:none;}.cls-2{fill:url(#Degradado_sin_nombre);}.cls-3{fill:#1464a5;}.cls-4{fill:#49a5e6;}.cls-5{fill-rule:evenodd;opacity:0.5;isolation:isolate;fill:url(#Degradado_sin_nombre_2);}.cls-6{fill:#043263;}</style><linearGradient id="Degradado_sin_nombre" x1="248.88" y1="-13250.68" x2="457.92" y2="-12857.52" gradientTransform="translate(0 13381.6)" gradientUnits="userSpaceOnUse"><stop offset="0" stop-color="#192647" stop-opacity="0.5"/><stop offset="1" stop-color="#192647" stop-opacity="0"/></linearGradient><linearGradient id="Degradado_sin_nombre_2" x1="215.72" y1="-13186.98" x2="370.09" y2="-13032.61" gradientTransform="translate(0 13381.6)" gradientUnits="userSpaceOnUse"><stop offset="0" stop-color="#fff" stop-opacity="0.5"/><stop offset="1" stop-color="#ecf7f8" stop-opacity="0.1"/></linearGradient></defs><g id="Capa_2" data-name="Capa 2"><rect class="cls-1" width="600" height="600"/></g><path class="cls-2" d="M262.1,126.8H444.7a21.89,21.89,0,0,1,21.9,21.9h0V506.3a21.89,21.89,0,0,1-21.9,21.9H262.1a21.89,21.89,0,0,1-21.9-21.9h0V148.7A21.89,21.89,0,0,1,262.1,126.8Z"/><path class="cls-3" d="M207.6,75.8H392.5a22.09,22.09,0,0,1,22.1,22.1V98h0V460a22.1,22.1,0,0,1-22.1,22.1H207.6A22.1,22.1,0,0,1,185.5,460h0V98a22.09,22.09,0,0,1,22-22.2Z"/><rect class="cls-4" x="185.5" y="126.8" width="229.1" height="304.3"/><polygon class="cls-5" points="185.5 126.8 185.5 431.1 302.41 431.1 414.6 223.74 414.6 126.8 185.5 126.8"/><path class="cls-6" d="M276.9,268.63c-.4-2-1.9-1.7-2.4.5L270,321.37l-17.34,4.56a1,1,0,0,1-1-.4L235,298.43a1,1,0,0,0-1-.4l-19.6,3.9c-.8.1-.7,1.1.2,1.3l17.3,1.3.6.4,17.2,32a.89.89,0,0,0,.5.3l8.13,2.88L191.6,383a2.3,2.3,0,0,0-.9,1.2l-5.2,14.68V431.1h39.66L209.7,400.53a2.4,2.4,0,0,1,1-2.6l69.1-52.6a2.4,2.4,0,0,0,1.1-2.5Z"/><path class="cls-6" d="M387.47,126.82l3.13,20.88a2.3,2.3,0,0,1-1.3,2.5l-73.2,34.9a2.5,2.5,0,0,0-1.4,2.4l5,75.1c.2,2.1,1.7,2.1,2.4,0l7.2-68.3a2.59,2.59,0,0,1,1.1-1.4l84.2-33.83V126.8Z"/></svg>