<svg xmlns="http://www.w3.org/2000/svg" xmlns:xlink="http://www.w3.org/1999/xlink" viewBox="0 0 600 600"><defs><style>.cls-1{isolation:isolate;}.cls-2{fill:url(#Degradado_sin_nombre_7);}.cls-3{fill:#1464a5;}.cls-4{fill:url(#Degradado_sin_nombre_45);}.cls-5{fill:#043263;opacity:0.6;mix-blend-mode:multiply;}.cls-6{fill:#d4edfc;}.cls-7{fill:#49a5e6;}.cls-8{fill-rule:evenodd;opacity:0.5;fill:url(#linear-gradient);}</style><linearGradient id="Degradado_sin_nombre_7" x1="232.9" y1="177.12" x2="412.68" y2="515.25" gradientUnits="userSpaceOnUse"><stop offset="0" stop-color="#192647"/><stop offset="0" stop-color="#192647" stop-opacity="0.5"/><stop offset="1" stop-color="#192647" stop-opacity="0"/></linearGradient><linearGradient id="Degradado_sin_nombre_45" x1="496.55" y1="257.53" x2="261.82" y2="257.53" gradientUnits="userSpaceOnUse"><stop offset="0" stop-color="#043263"/><stop offset="1" stop-color="#043263" stop-opacity="0"/></linearGradient><linearGradient id="linear-gradient" x1="115.57" y1="290.44" x2="287.49" y2="381.85" gradientUnits="userSpaceOnUse"><stop offset="0" stop-color="#eaf9fa"/><stop offset="1" stop-color="#eaf9fa" stop-opacity="0.2"/><stop offset="1" stop-color="#eaf9fa" stop-opacity="0.5"/></linearGradient></defs><title>_</title><g class="cls-1"><g id="Contenido"><path class="cls-2" d="M519,194.74H204.74a20,20,0,0,0-20,20v69.43H126.63a20,20,0,0,0-20,20V477.68a20,20,0,0,0,11.31,18c.45.21.91.41,1.37.59l.43.17a20,20,0,0,0,6.85,1.21H440.81a20,20,0,0,0,20-20V408.24H519a19.88,19.88,0,0,0,19.88-19.88V214.63A19.89,19.89,0,0,0,519,194.74Z"/><rect class="cls-3" x="142.45" y="150.78" width="354.1" height="213.5" rx="19.96"/><path class="cls-4" d="M476.66,364.28a19.9,19.9,0,0,0,19.89-19.89V170.66a19.89,19.89,0,0,0-19.89-19.88H375.34L261.82,364.28Z"/><rect class="cls-5" x="142.45" y="181.15" width="354.1" height="34.72"/><rect class="cls-6" x="194.52" y="282.7" width="249.95" height="31.24" rx="2.6"/><rect class="cls-7" x="64.34" y="240.17" width="354.1" height="213.5" rx="19.96"/><path class="cls-8" d="M84.3,453.67H259.56l104.72-213.5H84.3a20,20,0,0,0-20,20V433.71A20,20,0,0,0,84.3,453.67Z"/><rect class="cls-6" x="93.05" y="343.15" width="151.88" height="31.24" rx="2.6"/><rect class="cls-6" x="93.05" y="391" width="295.08" height="31.24" rx="2.6"/><path class="cls-3" d="M120.88,287.13a27.86,27.86,0,0,1,2.51,1.62,9.06,9.06,0,0,1,3.35,6.54,14.15,14.15,0,0,1-.56,5.78,10.06,10.06,0,0,1-7.22,6.64,20.5,20.5,0,0,1-5.93.81H94.16c-1,0-1.11-.15-1.11-1.09V269.9c0-.91.2-1.1,1.11-1.1,6.46,0,12.92,0,19.38,0a11.79,11.79,0,0,1,8.74,3.38,10.11,10.11,0,0,1,.77,12.92A20.53,20.53,0,0,1,120.88,287.13Zm-14,3.65v-.1h-6.13c-.94,0-1.19.25-1.19,1.18v9.79c0,.92.24,1.17,1.14,1.17,3.94,0,7.87,0,11.81,0a13.32,13.32,0,0,0,4.33-.62,4.37,4.37,0,0,0,3.18-3.46,12.59,12.59,0,0,0,.12-3.36,4.4,4.4,0,0,0-3.16-4,9.84,9.84,0,0,0-2.82-.58C111.76,290.73,109.32,290.78,106.9,290.78Zm-.08-5.83c1.78,0,3.56,0,5.35,0a11.91,11.91,0,0,0,1.88-.15c1.87-.33,3.47-1.13,4.07-3.07a7.5,7.5,0,0,0,.27-2.79,4.17,4.17,0,0,0-3-3.84,10.17,10.17,0,0,0-2.93-.54c-3.94-.06-7.88,0-11.81,0-.81,0-1.07.26-1.07,1.06v8.3c0,.83.23,1.07,1,1.07Z"/><path class="cls-3" d="M161,287.06a28.86,28.86,0,0,1,2.63,1.69,9.07,9.07,0,0,1,3.34,6.5,13.51,13.51,0,0,1-1,7,10.14,10.14,0,0,1-6.72,5.49,20.51,20.51,0,0,1-6,.82H134.33c-.94,0-1.1-.16-1.1-1.09V269.9c0-.91.2-1.1,1.12-1.1,6.46,0,12.91,0,19.37,0a11.72,11.72,0,0,1,8.69,3.34,9.7,9.7,0,0,1,2.71,8.11,8.34,8.34,0,0,1-3.14,6.1C161.65,286.62,161.28,286.84,161,287.06Zm-14.12,15.76c1.91,0,3.82.05,5.73,0a21.06,21.06,0,0,0,3.8-.43,4.55,4.55,0,0,0,3.91-3.82,11.1,11.1,0,0,0,.13-2.76,4.61,4.61,0,0,0-3.61-4.53,13.86,13.86,0,0,0-3.5-.53c-4.18-.07-8.35-.05-12.53-.05-.73,0-1,.3-1,1.09v10c0,.84.27,1.09,1.11,1.09ZM147,285c1.78,0,3.57,0,5.35,0a13.12,13.12,0,0,0,1.88-.15,4.63,4.63,0,0,0,4.33-4.28c.31-2.51-.62-4.78-3.45-5.58a9,9,0,0,0-2.46-.38c-4-.05-7.91,0-11.87,0-.77,0-1,.26-1,1v8.35c0,.83.21,1,1.06,1Z"/><path class="cls-3" d="M241.24,302.78c-.93,0-1.86,0-2.79,0a1.21,1.21,0,0,1-1.23-.73q-6.34-12.15-12.74-24.27c-.19-.36-.38-.69-.85-.69s-.66.33-.85.69Q216.45,289.88,210.1,302a1.35,1.35,0,0,1-1.39.84c-1.84,0-3.67,0-5.51,0-.87,0-1.07-.34-.66-1.11L222.67,264l.26-.49a.75.75,0,0,1,1.4,0c.26.45.5.91.74,1.37l19.62,36.73c.47.87.28,1.17-.73,1.17Z"/><path class="cls-3" d="M171.12,268.8c.95,0,1.89,0,2.84,0a1.12,1.12,0,0,1,1.14.69q4.85,9.27,9.72,18.51,1.5,2.88,3,5.76c.19.37.39.74.88.73s.68-.39.87-.76q6.38-12.14,12.74-24.27a1.09,1.09,0,0,1,1.1-.66c1.89,0,3.79,0,5.68,0,.89,0,1.09.35.67,1.14q-8.68,16.26-17.38,32.52l-2.85,5.35c-.18.34-.34.71-.83.71s-.65-.34-.84-.69L167.68,270a2.1,2.1,0,0,1-.24-.56c-.08-.42.16-.65.67-.66Z"/></g></g></svg>