<svg id="a91297f0-71cd-4ddc-a199-ae6dc9942d72" data-name="Capa 1" xmlns="http://www.w3.org/2000/svg" xmlns:xlink="http://www.w3.org/1999/xlink" viewBox="0 0 600 600"><defs><style>.e5bab33d-dcca-4971-bb72-f278f5e765bc{fill:url(#f3514edb-4dee-44d5-860f-88ce78ddec44);}.b82fc97f-85c1-49bb-b60d-46ada0bb8b33{fill:#49a5e6;}.af305b14-0fdc-44a7-9261-6a9be5d5021e{fill-rule:evenodd;opacity:0.5;isolation:isolate;fill:url(#ecf21529-3ced-424e-aeb3-c86ddb725f4f);}.aa128e91-89db-4295-b42b-779607a5f42b{fill:#d4edfc;}.badc37ad-4cb2-47e7-ada1-9357bbfda66b{fill:#004481;}.fa86d682-5b13-468b-bf3b-ed0067867a45{fill:#d72544;}.ed866607-e5a3-4db4-abde-a398fcfe4512{fill:#fff;}</style><linearGradient id="f3514edb-4dee-44d5-860f-88ce78ddec44" x1="281.33" y1="215.36" x2="435.77" y2="505.82" gradientUnits="userSpaceOnUse"><stop offset="0" stop-color="#192647"/><stop offset="0" stop-color="#192647" stop-opacity="0.5"/><stop offset="1" stop-color="#192647" stop-opacity="0"/></linearGradient><linearGradient id="ecf21529-3ced-424e-aeb3-c86ddb725f4f" x1="169.07" y1="-28.08" x2="330.82" y2="-114.08" gradientTransform="matrix(1, 0, 0, -1, 0, 202)" gradientUnits="userSpaceOnUse"><stop offset="0" stop-color="#eaf9fa"/><stop offset="1" stop-color="#eaf9fa" stop-opacity="0.2"/><stop offset="1" stop-color="#eaf9fa" stop-opacity="0.5"/></linearGradient></defs><path class="e5bab33d-dcca-4971-bb72-f278f5e765bc" d="M557.19,466.76l-44.39-77V237.2a10,10,0,0,0-10-10H189.7a10,10,0,0,0-10,10V437.7a10,10,0,0,0,10,10H422l-10.94,19a3.48,3.48,0,0,0,1.24,4.76l.06,0a3.4,3.4,0,0,0,1.7.5h140.1a3.54,3.54,0,0,0,3.5-3.5A3.3,3.3,0,0,0,557.19,466.76Z"/><path class="b82fc97f-85c1-49bb-b60d-46ada0bb8b33" d="M139.7,174.2H452.8a10,10,0,0,1,10,10V384.7a10,10,0,0,1-10,10H139.7a10,10,0,0,1-10-10V184.2A10,10,0,0,1,139.7,174.2Z"/><path class="af305b14-0fdc-44a7-9261-6a9be5d5021e" d="M137.8,394.7H298.7L406.9,174.2h-269a8.07,8.07,0,0,0-8.1,8.1h0V386.5A7.94,7.94,0,0,0,137.8,394.7Z"/><rect class="aa128e91-89db-4295-b42b-779607a5f42b" x="161.9" y="282.1" width="124.5" height="29.3"/><rect class="aa128e91-89db-4295-b42b-779607a5f42b" x="159.5" y="331.5" width="271.8" height="29.3"/><path class="badc37ad-4cb2-47e7-ada1-9357bbfda66b" d="M267,208.7l-12,22.8a.78.78,0,0,1-1,.3l-.3-.3-12-22.8a.82.82,0,0,0-.6-.4h-5.8a.47.47,0,0,0-.5.5c0,.1,0,.2.1.2l18.9,35.3a.69.69,0,0,0,.9.3l.3-.3L273.9,209a.57.57,0,0,0-.2-.7c-.1,0-.2-.1-.3-.1h-5.8a1,1,0,0,0-.6.5"/><path class="badc37ad-4cb2-47e7-ada1-9357bbfda66b" d="M273.8,239.2l12-22.8a.78.78,0,0,1,1-.3l.3.3,12,22.8a.82.82,0,0,0,.6.4h5.8a.47.47,0,0,0,.5-.5c0-.1,0-.2-.1-.2L287,203.6a.69.69,0,0,0-.9-.3l-.3.3L267,238.8a.57.57,0,0,0,.2.7c.1,0,.1.1.2.1h5.8a.92.92,0,0,0,.6-.4"/><path class="badc37ad-4cb2-47e7-ada1-9357bbfda66b" d="M184.2,239.5H173.4a.68.68,0,0,1-.7-.7h0v-9.7a.68.68,0,0,1,.7-.7h10.8c5.1,0,7.4,1.5,7.4,5.5s-2.2,5.6-7.4,5.6m-10.8-25.9H184c3.9,0,5.9,1.7,5.9,4.8s-2,4.8-5.9,4.8H173.4a.68.68,0,0,1-.7-.7h0v-8.2a.68.68,0,0,1,.7-.7h0m18.5,11.6a8,8,0,0,0,4.1-7.3c0-5.7-4.4-9.5-10.7-9.5h-18a.68.68,0,0,0-.7.7h0v35.1a.68.68,0,0,0,.7.7h17.2c8.6,0,13.1-3.7,13.1-10.9s-5.7-8.8-5.7-8.8"/><path class="badc37ad-4cb2-47e7-ada1-9357bbfda66b" d="M221,239.5H210.2a.68.68,0,0,1-.7-.7v-9.7a.68.68,0,0,1,.7-.7H221c5.1,0,7.4,1.5,7.4,5.5s-2.2,5.6-7.4,5.6m-10.8-25.9h10.6c3.9,0,5.9,1.7,5.9,4.8s-2,4.8-5.9,4.8H210.2a.68.68,0,0,1-.7-.7v-8.2a.68.68,0,0,1,.7-.7h0m18.6,11.6a8,8,0,0,0,4.1-7.3c0-5.7-4.4-9.5-10.7-9.5h-18a.68.68,0,0,0-.7.7h0v35.1a.68.68,0,0,0,.7.7h17.2c8.6,0,13.1-3.7,13.1-10.9s-5.7-8.8-5.7-8.8"/><path class="fa86d682-5b13-468b-bf3b-ed0067867a45" d="M431.09,292.36l-70,121.3a3.48,3.48,0,0,0,1.24,4.76l.06,0a3.4,3.4,0,0,0,1.7.5h140.1a3.54,3.54,0,0,0,3.5-3.5,3.3,3.3,0,0,0-.5-1.7l-70-121.4a3.48,3.48,0,0,0-4.74-1.34l-.06,0A3.94,3.94,0,0,0,431.09,292.36Z"/><path class="ed866607-e5a3-4db4-abde-a398fcfe4512" d="M433.59,377.36a5.8,5.8,0,0,1-5.8-5.8v-33.9a5.8,5.8,0,1,1,11.6,0v33.9a5.8,5.8,0,0,1-5.8,5.8Z"/><path class="ed866607-e5a3-4db4-abde-a398fcfe4512" d="M433.59,396a4.07,4.07,0,0,1-1.1-.1l-1.1-.3a3.35,3.35,0,0,1-1-.5c-.3-.2-.6-.5-.9-.7a5.85,5.85,0,0,1-1.7-4.1,3.7,3.7,0,0,1,.1-1.1c.1-.4.2-.7.3-1.1a3.13,3.13,0,0,1,.5-1c.2-.3.5-.6.7-.9a5.44,5.44,0,0,1,.9-.7,4.25,4.25,0,0,1,1-.5,4.17,4.17,0,0,1,1.1-.3,5.79,5.79,0,0,1,5.3,1.6,5.16,5.16,0,0,1,.7.9,4.68,4.68,0,0,1,.5,1,6.34,6.34,0,0,1,.4,2.2,5.81,5.81,0,0,1-1.7,4.1A6.18,6.18,0,0,1,433.59,396Z"/></svg>