<?xml version="1.0" encoding="utf-8"?>
<!-- Generator: Adobe Illustrator 23.0.1, SVG Export Plug-In . SVG Version: 6.00 Build 0)  -->
<svg version="1.1" id="Capa_1" xmlns="http://www.w3.org/2000/svg" xmlns:xlink="http://www.w3.org/1999/xlink" x="0px" y="0px"
	 viewBox="0 0 600 600" style="enable-background:new 0 0 600 600;" xml:space="preserve">
<style type="text/css">
	.st0{fill:url(#SVGID_1_);}
	.st1{fill:#49A5E6;}
	.st2{opacity:0.5;fill-rule:evenodd;clip-rule:evenodd;fill:url(#SVGID_2_);enable-background:new    ;}
	.st3{fill:#D4EDFC;}
	.st4{fill:#004481;}
	.st5{fill:#F8CD51;}
	.st6{fill:url(#SVGID_3_);}
	.st7{fill:#FEF5DC;}
</style>
<title>Mesa de trabajo 1 copia 37</title>
<g>
	<g>
		
			<linearGradient id="SVGID_1_" gradientUnits="userSpaceOnUse" x1="264.8939" y1="916.778" x2="439.9619" y2="587.5182" gradientTransform="matrix(1 0 0 -1 0 1102)">
			<stop  offset="0" style="stop-color:#192647"/>
			<stop  offset="0" style="stop-color:#192647;stop-opacity:0.5"/>
			<stop  offset="1" style="stop-color:#192647;stop-opacity:0"/>
		</linearGradient>
		<path class="st0" d="M514.9,359.4L514.9,359.4c-0.6-0.3-1.3-0.7-1.9-1l-0.2-0.1v-121c0-5.5-4.5-10-10-10h-315
			c-4.5,0-8.1,3.6-8.1,8.1l0,0v204.2c0,4.5,3.6,8.1,8.1,8.1l0,0h238.7l0.5,1l0.9,1.5c0.2,0.3,0.3,0.6,0.5,0.9c0.4,0.7,0.9,1.4,1.3,2
			c0.2,0.4,0.5,0.7,0.7,1s0.6,0.8,0.9,1.2s0.5,0.7,0.8,1c0.5,0.6,0.9,1.2,1.4,1.8c0.3,0.4,0.6,0.7,0.9,1l0.8,1l1,1.1l0.9,0.9
			c0.6,0.6,1.2,1.2,1.8,1.8l0.8,0.8l1.2,1.1c0.2,0.2,0.5,0.5,0.8,0.7c0.7,0.6,1.5,1.2,2.2,1.8l0.7,0.5l1.4,1l0.7,0.5
			c1,0.7,1.9,1.3,2.9,1.9l0.3,0.2l1.5,0.9l0.8,0.5c0.5,0.3,1,0.6,1.5,0.8l0,0c31.8,16.9,71.4,4.8,88.3-27
			C558.8,415.9,546.7,376.3,514.9,359.4L514.9,359.4z"/>
		<path class="st1" d="M139.7,174.2h313.1c5.5,0,10,4.5,10,10v200.5c0,5.5-4.5,10-10,10H139.7c-5.5,0-10-4.5-10-10V184.2
			C129.7,178.7,134.1,174.2,139.7,174.2z"/>
		
			<linearGradient id="SVGID_2_" gradientUnits="userSpaceOnUse" x1="169.0714" y1="871.9203" x2="330.8214" y2="785.9203" gradientTransform="matrix(1 0 0 -1 0 1102)">
			<stop  offset="0" style="stop-color:#EAF9FA"/>
			<stop  offset="1" style="stop-color:#EAF9FA;stop-opacity:0.2"/>
			<stop  offset="1" style="stop-color:#EAF9FA;stop-opacity:0.5"/>
		</linearGradient>
		<path class="st2" d="M137.8,394.7h160.9l108.2-220.5h-269c-4.5,0-8.1,3.6-8.1,8.1l0,0v204.2C129.7,391.1,133.3,394.7,137.8,394.7z
			"/>
		<rect x="161.9" y="282.1" class="st3" width="124.5" height="29.3"/>
		<rect x="159.5" y="331.5" class="st3" width="271.8" height="29.3"/>
		<path class="st4" d="M267,208.7l-12,22.8c-0.2,0.3-0.6,0.5-1,0.3c-0.1-0.1-0.2-0.2-0.3-0.3l-12-22.8c-0.1-0.2-0.4-0.4-0.6-0.4
			h-5.8c-0.3,0-0.5,0.2-0.5,0.5c0,0.1,0,0.2,0.1,0.2l18.9,35.3c0.2,0.3,0.6,0.5,0.9,0.3c0.1-0.1,0.2-0.2,0.3-0.3l18.9-35.3
			c0.1-0.3,0-0.6-0.2-0.7c-0.1,0-0.2-0.1-0.3-0.1h-5.8C267.3,208.3,267.1,208.5,267,208.7"/>
		<path class="st4" d="M273.8,239.2l12-22.8c0.2-0.3,0.6-0.5,1-0.3c0.1,0.1,0.2,0.2,0.3,0.3l12,22.8c0.1,0.2,0.4,0.4,0.6,0.4h5.8
			c0.3,0,0.5-0.2,0.5-0.5c0-0.1,0-0.2-0.1-0.2L287,203.6c-0.2-0.3-0.6-0.5-0.9-0.3c-0.1,0.1-0.2,0.2-0.3,0.3L267,238.8
			c-0.1,0.3,0,0.6,0.2,0.7c0.1,0,0.1,0.1,0.2,0.1h5.8C273.5,239.5,273.7,239.4,273.8,239.2"/>
		<path class="st4" d="M184.2,239.5h-10.8c-0.4,0-0.7-0.3-0.7-0.7l0,0v-9.7c0-0.4,0.3-0.7,0.7-0.7l0,0h10.8c5.1,0,7.4,1.5,7.4,5.5
			S189.4,239.5,184.2,239.5 M173.4,213.6H184c3.9,0,5.9,1.7,5.9,4.8s-2,4.8-5.9,4.8h-10.6c-0.4,0-0.7-0.3-0.7-0.7l0,0v-8.2
			C172.7,213.9,173,213.6,173.4,213.6L173.4,213.6 M191.9,225.2c2.6-1.4,4.2-4.3,4.1-7.3c0-5.7-4.4-9.5-10.7-9.5h-18
			c-0.4,0-0.7,0.3-0.7,0.7l0,0v35.1c0,0.4,0.3,0.7,0.7,0.7h17.2c8.6,0,13.1-3.7,13.1-10.9C197.6,226.8,191.9,225.2,191.9,225.2"/>
		<path class="st4" d="M221,239.5h-10.8c-0.4,0-0.7-0.3-0.7-0.7v-9.7c0-0.4,0.3-0.7,0.7-0.7H221c5.1,0,7.4,1.5,7.4,5.5
			S226.2,239.5,221,239.5 M210.2,213.6h10.6c3.9,0,5.9,1.7,5.9,4.8s-2,4.8-5.9,4.8h-10.6c-0.4,0-0.7-0.3-0.7-0.7v-8.2
			C209.5,213.9,209.8,213.6,210.2,213.6L210.2,213.6 M228.8,225.2c2.6-1.4,4.2-4.3,4.1-7.3c0-5.7-4.4-9.5-10.7-9.5h-18
			c-0.4,0-0.7,0.3-0.7,0.7l0,0v35.1c0,0.4,0.3,0.7,0.7,0.7l0,0h17.2c8.6,0,13.1-3.7,13.1-10.9C234.5,226.8,228.8,225.2,228.8,225.2"
			/>
		<path class="st5" d="M499.5,364c0,36.1-29.3,65.3-65.3,65.3S368.8,400,368.8,364s29.3-65.3,65.3-65.3l0,0
			C470.2,298.7,499.5,327.9,499.5,364"/>
		
			<linearGradient id="SVGID_3_" gradientUnits="userSpaceOnUse" x1="380.0199" y1="766.7785" x2="434.1399" y2="738.0085" gradientTransform="matrix(1 0 0 -1 0 1102)">
			<stop  offset="0" style="stop-color:#FADE8E"/>
			<stop  offset="1" style="stop-color:#FADE8E;stop-opacity:0.4"/>
		</linearGradient>
		<path class="st6" d="M464.9,306.4c-31.8-16.9-71.4-4.8-88.3,27s-4.8,71.4,27,88.3L464.9,306.4z"/>
		<g>
			<path class="st7" d="M411.3,361.6h-8.9v-6.7h9.7c2.7-15.1,12.1-22,23-22c11.5,0,17.6,5.9,20.6,13.3l-8.5,4.8
				c-2.1-6.3-5.8-9.3-12.1-9.3c-6.7,0-11.5,4.3-13.2,13.2H437v6.7h-15.8v2.1c0,1.2,0,2.4,0.1,3.5h15.8v6.8h-15
				c1.7,8.3,5.9,12.6,13.2,12.6c6.3,0,10.1-2.8,12.4-9.8l8.3,5c-3.4,7.8-10.4,13.4-20.8,13.4c-11.3,0-20.2-6.7-23-21.2h-9.8v-6.8h9
				c-0.1-1.1-0.1-2.2-0.1-3.3L411.3,361.6L411.3,361.6z"/>
		</g>
	</g>
</g>
</svg>
