<svg id="Capa_1" data-name="Capa 1" xmlns="http://www.w3.org/2000/svg" xmlns:xlink="http://www.w3.org/1999/xlink" viewBox="0 0 600 600"><defs><style>.cls-1{fill:url(#Degradado_sin_nombre_11);}.cls-2{fill:none;}.cls-3{fill:#d4edfc;}.cls-4{fill:#1464a5;}.cls-5{fill:url(#Degradado_sin_nombre_2);}.cls-6{fill:#49a5e6;}.cls-7{fill-rule:evenodd;fill:url(#Degradado_sin_nombre_21);}.cls-10,.cls-7{opacity:0.5;isolation:isolate;}.cls-8{fill:#004481;}.cls-9{fill:#2dcccd;}.cls-10{fill:url(#Degradado_sin_nombre_18);}.cls-11{fill:#fff;}</style><linearGradient id="Degradado_sin_nombre_11" x1="236.27" y1="425.91" x2="438.93" y2="44.77" gradientTransform="matrix(1, 0, 0, -1, 0, 600)" gradientUnits="userSpaceOnUse"><stop offset="0" stop-color="#192647" stop-opacity="0.5"/><stop offset="1" stop-color="#192647" stop-opacity="0"/></linearGradient><linearGradient id="Degradado_sin_nombre_2" x1="497.88" y1="319.735" x2="298.82" y2="319.735" gradientTransform="matrix(1, 0, 0, -1, 0, 600)" gradientUnits="userSpaceOnUse"><stop offset="0" stop-color="#043263"/><stop offset="1" stop-color="#043263" stop-opacity="0"/></linearGradient><linearGradient id="Degradado_sin_nombre_21" x1="147.822" y1="837.341" x2="288.87" y2="696.293" gradientTransform="matrix(1, 0, 0, -1, 0, 1102)" gradientUnits="userSpaceOnUse"><stop offset="0" stop-color="#eaf9fa" stop-opacity="0.5"/><stop offset="1" stop-color="#eaf9fa" stop-opacity="0.2"/></linearGradient><linearGradient id="Degradado_sin_nombre_18" x1="344.789" y1="1396.121" x2="404.753" y2="1456.085" gradientTransform="translate(0 -1018)" gradientUnits="userSpaceOnUse"><stop offset="0" stop-color="#eaf9fa" stop-opacity="0.5"/><stop offset="1" stop-color="#eaf9fa" stop-opacity="0"/></linearGradient></defs><title>peticion_Accounts-Migration</title><path class="cls-1" d="M529.38,214.53H216.28a10,10,0,0,0-10,10V277.4H136.84a10,10,0,0,0-10,10V487.9a10,10,0,0,0,10,10h237.9A65,65,0,0,0,488.52,435h40.86a10,10,0,0,0,10-10V224.53A10,10,0,0,0,529.38,214.53Z"/><rect class="cls-2" width="600" height="600"/><rect class="cls-3" x="196.98" y="250.93" width="124.5" height="29.3"/><path class="cls-4" d="M174.78,170h313.1a10,10,0,0,1,10,10V380.5a10,10,0,0,1-10,10H174.78a10,10,0,0,1-10-10V180A10,10,0,0,1,174.78,170Z"/><path class="cls-5" d="M487.88,170H407.94L298.82,390.53H487.88a10,10,0,0,0,10-10V180A10,10,0,0,0,487.88,170Z"/><rect class="cls-3" x="194.58" y="327.33" width="271.8" height="29.3"/><path class="cls-6" d="M95.34,232.9h313.1a10,10,0,0,1,10,10V443.4a10,10,0,0,1-10,10H95.34a10,10,0,0,1-10-10V242.9A10,10,0,0,1,95.34,232.9Z"/><path class="cls-7" d="M93.44,453.4h160.9l108.2-220.5h-269a8.07,8.07,0,0,0-8.1,8.04V241h0V445.2a7.94,7.94,0,0,0,7.675,8.2C93.224,453.4,93.332,453.4,93.44,453.4Z"/><rect class="cls-3" x="117.54" y="340.8" width="124.5" height="29.3"/><rect class="cls-3" x="115.14" y="390.2" width="271.8" height="29.3"/><path class="cls-8" d="M222.64,267.4l-12,22.8a.78.78,0,0,1-1,.3l-.3-.3-12-22.8a.822.822,0,0,0-.6-.4h-5.8a.47.47,0,0,0-.5.438c0,.021,0,.041,0,.062,0,.1,0,.2.1.2l18.9,35.3a.69.69,0,0,0,.9.3l.3-.3,18.9-35.3a.571.571,0,0,0-.2-.7c-.1,0-.2-.1-.3-.1h-5.8a1,1,0,0,0-.6.5"/><path class="cls-8" d="M229.44,297.9l12-22.8a.78.78,0,0,1,1-.3l.3.3,12,22.8a.822.822,0,0,0,.6.4h5.8a.47.47,0,0,0,.5-.438c0-.021,0-.041,0-.062,0-.1,0-.2-.1-.2l-18.9-35.3a.69.69,0,0,0-.9-.3l-.3.3-18.8,35.2a.571.571,0,0,0,.2.7c.1,0,.1.1.2.1h5.8a.921.921,0,0,0,.6-.4"/><path class="cls-8" d="M139.84,298.2H129a.68.68,0,0,1-.7-.659V297.5h0v-9.7a.68.68,0,0,1,.659-.7H139.8c5.1,0,7.4,1.5,7.4,5.5s-2.2,5.6-7.4,5.6M129,272.3h10.6c3.9,0,5.9,1.7,5.9,4.8s-2,4.8-5.9,4.8H129a.68.68,0,0,1-.7-.659V281.2h0V273a.68.68,0,0,1,.659-.7H129m18.5,11.6a8,8,0,0,0,4.1-7.3c0-5.7-4.4-9.5-10.7-9.5h-18a.68.68,0,0,0-.7.659v.041h0v35.1a.68.68,0,0,0,.659.7H140.1c8.6,0,13.1-3.7,13.1-10.9s-5.7-8.8-5.7-8.8"/><path class="cls-8" d="M176.64,298.2h-10.8a.68.68,0,0,1-.7-.659V287.8a.68.68,0,0,1,.659-.7H176.64c5.1,0,7.4,1.5,7.4,5.5s-2.2,5.6-7.4,5.6m-10.8-25.9h10.6c3.9,0,5.9,1.7,5.9,4.8s-2,4.8-5.9,4.8h-10.6a.68.68,0,0,1-.7-.659V273a.68.68,0,0,1,.659-.7h.041m18.6,11.6a8,8,0,0,0,4.1-7.3c0-5.7-4.4-9.5-10.7-9.5h-18a.68.68,0,0,0-.7.659v.041h0v35.1a.68.68,0,0,0,.659.7H177c8.6,0,13.1-3.7,13.1-10.9s-5.7-8.8-5.7-8.8"/><path class="cls-9" d="M455.15,422a65,65,0,1,1-65-65h0a65,65,0,0,1,65,65h0"/><path class="cls-10" d="M423.116,365.984a65,65,0,1,0-65.911,112.052q1.749,1.031,3.561,1.948c.43.26.91.47,1.33.69"/><path class="cls-11" d="M427.56,439.19l-21.17,18.15v-12.1H370.1l12.1-12.1h24.19V421.05ZM355,409l21.17-18.15v12.1h36.29L400.34,415H376.15v12.09Z"/></svg>