<svg id="Contenido" xmlns="http://www.w3.org/2000/svg" xmlns:xlink="http://www.w3.org/1999/xlink" viewBox="0 0 600 600"><defs><style>.cls-1{fill:url(#Degradado_sin_nombre_19);}.cls-2{fill:#49a5e6;}.cls-3{opacity:0.5;isolation:isolate;fill:url(#Degradado_sin_nombre_16);}.cls-4{fill:#1d447d;}.cls-5{fill:#d5e8f6;}.cls-6{fill:#59a96e;}.cls-7{fill:#fff;}</style><linearGradient id="Degradado_sin_nombre_19" x1="301" y1="184.84" x2="459.52" y2="482.98" gradientUnits="userSpaceOnUse"><stop offset="0" stop-color="#192647" stop-opacity="0.5"/><stop offset="1" stop-color="#192647" stop-opacity="0"/></linearGradient><linearGradient id="Degradado_sin_nombre_16" x1="124.77" y1="220.62" x2="331.06" y2="330.31" gradientUnits="userSpaceOnUse"><stop offset="0" stop-color="#e9f5f6"/><stop offset="1" stop-color="#e9f5f6" stop-opacity="0.2"/><stop offset="1" stop-color="#e9f5f6" stop-opacity="0.5"/></linearGradient></defs><title>GLOMO</title><path class="cls-1" d="M579,242a65,65,0,1,0-130,0v0H196a10,10,0,0,0-7.07,2.93,10.23,10.23,0,0,0-1.53,2c-.14.24-.27.48-.4.73s-.3.68-.43,1A10.09,10.09,0,0,0,186,252h0V448h0a10,10,0,0,0,10,10H504a10,10,0,0,0,10-10V307A65,65,0,0,0,579,242Z"/><rect class="cls-2" x="136" y="192" width="328" height="216" rx="10"/><path class="cls-3" d="M146,192a10,10,0,0,0-10,10V398a10,10,0,0,0,10,10H289.76L404.61,192Z"/><path class="cls-4" d="M265.86,223.65,254.05,246a.78.78,0,0,1-1,.3l-.29-.3L241,223.65a.82.82,0,0,0-.59-.39h-5.71a.46.46,0,0,0-.49.49c0,.1,0,.2.09.2l18.61,34.64a.69.69,0,0,0,.89.3l.3-.3L272.66,224a.56.56,0,0,0-.2-.69c-.1,0-.2-.1-.3-.1h-5.71a1.06,1.06,0,0,0-.59.49"/><path class="cls-4" d="M272.56,253.59l11.81-22.38a.78.78,0,0,1,1-.29l.3.29,11.81,22.38a.81.81,0,0,0,.59.39h5.71a.46.46,0,0,0,.5-.49c0-.1,0-.2-.1-.2l-18.61-34.64a.68.68,0,0,0-.89-.3l-.3.3L265.86,253.2a.55.55,0,0,0,.2.68c.1,0,.1.1.2.1H272c.29-.1.49-.19.59-.39"/><path class="cls-4" d="M184.33,253.88H173.7a.66.66,0,0,1-.69-.68h0v-9.52a.67.67,0,0,1,.69-.69h10.63c5,0,7.29,1.47,7.29,5.4s-2.17,5.49-7.29,5.49M173.7,228.46h10.43c3.84,0,5.81,1.67,5.81,4.71s-2,4.72-5.81,4.72H173.7a.67.67,0,0,1-.69-.69h0v-8a.67.67,0,0,1,.69-.69h0m18.21,11.39a7.89,7.89,0,0,0,4-7.17c0-5.59-4.33-9.32-10.54-9.32H167.69a.67.67,0,0,0-.69.69h0V258.5a.67.67,0,0,0,.69.68h16.94c8.46,0,12.9-3.63,12.9-10.69s-5.62-8.64-5.62-8.64"/><path class="cls-4" d="M220.57,253.88H209.93a.67.67,0,0,1-.69-.68v-9.52a.67.67,0,0,1,.69-.69h10.64c5,0,7.28,1.47,7.28,5.4s-2.16,5.49-7.28,5.49m-10.64-25.42h10.44c3.84,0,5.81,1.67,5.81,4.71s-2,4.72-5.81,4.72H209.93a.68.68,0,0,1-.69-.69v-8a.68.68,0,0,1,.69-.69h0m18.32,11.39a7.88,7.88,0,0,0,4-7.17c0-5.59-4.33-9.32-10.53-9.32H204a.66.66,0,0,0-.68.69h0V258.5a.66.66,0,0,0,.68.68H221c8.47,0,12.9-3.63,12.9-10.69s-5.61-8.64-5.61-8.64"/><rect class="cls-5" x="167" y="301.07" width="122" height="28" rx="2.95"/><rect class="cls-5" x="167" y="349.56" width="266" height="28" rx="4.36"/><path class="cls-6" d="M529,192a65,65,0,1,1-65-65,65,65,0,0,1,65,65"/><path class="cls-7" d="M450.57,220.41a5,5,0,0,1-3.54-1.47l-20-20a5,5,0,0,1,7.08-7.06l16.47,16.5,43.34-43.27a5,5,0,0,1,7.06,7.08L454.1,218.94A5,5,0,0,1,450.57,220.41Z"/></svg>