<svg id="a2053d19-5182-4f8e-ac61-bac4926f2b7f" data-name="Capa 1" xmlns="http://www.w3.org/2000/svg" xmlns:xlink="http://www.w3.org/1999/xlink" viewBox="0 0 600 600"><defs><style>.f62794a5-43f1-4f21-82b1-df294bdd42cd{fill:url(#ad906f6f-d7f9-47d0-953c-3f040d617693);}.b2a18647-2fbc-444b-9955-532ad7c37291{fill:#49a5e6;}.a3de2427-7621-4e63-9217-438f7774187b,.a3ebc2c5-ce9a-46ad-bffb-45a9a4e6b084{fill-rule:evenodd;}.a3de2427-7621-4e63-9217-438f7774187b{opacity:0.5;isolation:isolate;fill:url(#e2cc7858-baba-4080-ba86-b02688eb8ec9);}.f947aa3e-c0be-4bc9-8e28-de2542c4b7c4{fill:#d4edfc;}.e2c96e46-9baf-4cfa-ba69-d796c513ad87{fill:#004481;}.e5904a1b-47ee-4bf6-8619-1426a4482091{fill:#2dcccd;}.a3ebc2c5-ce9a-46ad-bffb-45a9a4e6b084{fill:#fff;}</style><linearGradient id="ad906f6f-d7f9-47d0-953c-3f040d617693" x1="264.89" y1="16.78" x2="439.96" y2="-312.48" gradientTransform="matrix(1, 0, 0, -1, 0, 202)" gradientUnits="userSpaceOnUse"><stop offset="0" stop-color="#192647"/><stop offset="0" stop-color="#192647" stop-opacity="0.5"/><stop offset="1" stop-color="#192647" stop-opacity="0"/></linearGradient><linearGradient id="e2cc7858-baba-4080-ba86-b02688eb8ec9" x1="169.07" y1="-28.08" x2="330.82" y2="-114.08" gradientTransform="matrix(1, 0, 0, -1, 0, 202)" gradientUnits="userSpaceOnUse"><stop offset="0" stop-color="#eaf9fa"/><stop offset="1" stop-color="#eaf9fa" stop-opacity="0.2"/><stop offset="1" stop-color="#eaf9fa" stop-opacity="0.5"/></linearGradient></defs><path class="f62794a5-43f1-4f21-82b1-df294bdd42cd" d="M514.9,359.4h0c-.6-.3-1.3-.7-1.9-1l-.2-.1v-121a10,10,0,0,0-10-10h-315a8.07,8.07,0,0,0-8.1,8.1h0V439.6a8.07,8.07,0,0,0,8.1,8.1H426.5l.5,1,.9,1.5c.2.3.3.6.5.9.4.7.9,1.4,1.3,2a8.65,8.65,0,0,0,.7,1c.2.3.6.8.9,1.2a8.74,8.74,0,0,0,.8,1c.5.6.9,1.2,1.4,1.8a9,9,0,0,0,.9,1l.8,1,1,1.1.9.9,1.8,1.8.8.8,1.2,1.1a5.72,5.72,0,0,0,.8.7c.7.6,1.5,1.2,2.2,1.8l.7.5,1.4,1,.7.5c1,.7,1.9,1.3,2.9,1.9l.3.2,1.5.9.8.5a10.93,10.93,0,0,0,1.5.8h0a65.22,65.22,0,1,0,61.2-115.2Z"/><path class="b2a18647-2fbc-444b-9955-532ad7c37291" d="M139.7,174.2H452.8a10,10,0,0,1,10,10V384.7a10,10,0,0,1-10,10H139.7a10,10,0,0,1-10-10V184.2A10,10,0,0,1,139.7,174.2Z"/><path class="a3de2427-7621-4e63-9217-438f7774187b" d="M137.8,394.7H298.7L406.9,174.2h-269a8.07,8.07,0,0,0-8.1,8.1h0V386.5A7.94,7.94,0,0,0,137.8,394.7Z"/><rect class="f947aa3e-c0be-4bc9-8e28-de2542c4b7c4" x="161.9" y="282.1" width="124.5" height="29.3"/><rect class="f947aa3e-c0be-4bc9-8e28-de2542c4b7c4" x="159.5" y="331.5" width="271.8" height="29.3"/><path class="e2c96e46-9baf-4cfa-ba69-d796c513ad87" d="M267,208.7l-12,22.8a.78.78,0,0,1-1,.3l-.3-.3-12-22.8a.82.82,0,0,0-.6-.4h-5.8a.47.47,0,0,0-.5.5c0,.1,0,.2.1.2l18.9,35.3a.69.69,0,0,0,.9.3l.3-.3L273.9,209a.57.57,0,0,0-.2-.7c-.1,0-.2-.1-.3-.1h-5.8a1,1,0,0,0-.6.5"/><path class="e2c96e46-9baf-4cfa-ba69-d796c513ad87" d="M273.8,239.2l12-22.8a.78.78,0,0,1,1-.3l.3.3,12,22.8a.82.82,0,0,0,.6.4h5.8a.47.47,0,0,0,.5-.5c0-.1,0-.2-.1-.2L287,203.6a.69.69,0,0,0-.9-.3l-.3.3L267,238.8a.57.57,0,0,0,.2.7c.1,0,.1.1.2.1h5.8a.92.92,0,0,0,.6-.4"/><path class="e2c96e46-9baf-4cfa-ba69-d796c513ad87" d="M184.2,239.5H173.4a.68.68,0,0,1-.7-.7h0v-9.7a.68.68,0,0,1,.7-.7h10.8c5.1,0,7.4,1.5,7.4,5.5s-2.2,5.6-7.4,5.6m-10.8-25.9H184c3.9,0,5.9,1.7,5.9,4.8s-2,4.8-5.9,4.8H173.4a.68.68,0,0,1-.7-.7h0v-8.2a.68.68,0,0,1,.7-.7h0m18.5,11.6a8,8,0,0,0,4.1-7.3c0-5.7-4.4-9.5-10.7-9.5h-18a.68.68,0,0,0-.7.7h0v35.1a.68.68,0,0,0,.7.7h17.2c8.6,0,13.1-3.7,13.1-10.9s-5.7-8.8-5.7-8.8"/><path class="e2c96e46-9baf-4cfa-ba69-d796c513ad87" d="M221,239.5H210.2a.68.68,0,0,1-.7-.7v-9.7a.68.68,0,0,1,.7-.7H221c5.1,0,7.4,1.5,7.4,5.5s-2.2,5.6-7.4,5.6m-10.8-25.9h10.6c3.9,0,5.9,1.7,5.9,4.8s-2,4.8-5.9,4.8H210.2a.68.68,0,0,1-.7-.7v-8.2a.68.68,0,0,1,.7-.7h0m18.6,11.6a8,8,0,0,0,4.1-7.3c0-5.7-4.4-9.5-10.7-9.5h-18a.68.68,0,0,0-.7.7h0v35.1a.68.68,0,0,0,.7.7h17.2c8.6,0,13.1-3.7,13.1-10.9s-5.7-8.8-5.7-8.8"/><path class="e5904a1b-47ee-4bf6-8619-1426a4482091" d="M500.05,364.75a65,65,0,1,1-65-65h0a65,65,0,0,1,65,65"/><polygon class="a3ebc2c5-ce9a-46ad-bffb-45a9a4e6b084" points="430.56 342.28 411.31 361.58 404.1 354.38 435.58 323.01 466.82 354.15 459.6 361.36 440.71 342.42 440.7 404.81 430.56 394.99 430.56 342.28"/></svg>