<svg xmlns="http://www.w3.org/2000/svg" xmlns:xlink="http://www.w3.org/1999/xlink" viewBox="0 0 600 600"><defs><style>.cls-1{fill:none;}.cls-2{fill:url(#Degradado_sin_nombre_192);}.cls-3{fill:#004481;}.cls-4{fill:url(#Degradado_sin_nombre_440);}.cls-5{fill:#d4edfc;}.cls-6{fill:#49a5e6;}.cls-7{fill-rule:evenodd;opacity:0.5;isolation:isolate;fill:url(#Degradado_sin_nombre_426);}</style><linearGradient id="Degradado_sin_nombre_192" x1="261.04" y1="220.24" x2="410.19" y2="500.74" gradientUnits="userSpaceOnUse"><stop offset="0" stop-color="#192647" stop-opacity="0.5"/><stop offset="1" stop-color="#192647" stop-opacity="0"/></linearGradient><linearGradient id="Degradado_sin_nombre_440" x1="497.88" y1="280.28" x2="298.82" y2="280.28" gradientUnits="userSpaceOnUse"><stop offset="0" stop-color="#043263"/><stop offset="1" stop-color="#043263" stop-opacity="0"/></linearGradient><linearGradient id="Degradado_sin_nombre_426" x1="147.82" y1="-237.34" x2="288.87" y2="-96.29" gradientTransform="translate(0 502)" gradientUnits="userSpaceOnUse"><stop offset="0" stop-color="#eaf9fa" stop-opacity="0.5"/><stop offset="1" stop-color="#eaf9fa" stop-opacity="0"/></linearGradient></defs><title>13</title><g id="Cuadrados_Blancos" data-name="Cuadrados Blancos"><rect class="cls-1" width="600" height="600"/></g><g id="Capa_3" data-name="Capa 3"><path class="cls-2" d="M529.87,215H216.77a10,10,0,0,0-10,10v52.87H137.33a10,10,0,0,0-10,10v200.5a10,10,0,0,0,10,10h313.1a10,10,0,0,0,10-10V435.52h69.44a10,10,0,0,0,10-10V225A10,10,0,0,0,529.87,215Z"/><path class="cls-3" d="M174.78,170h313.1a10,10,0,0,1,10,10v200.5a10,10,0,0,1-10,10H174.78a10,10,0,0,1-10-10V180A10,10,0,0,1,174.78,170Z"/><path class="cls-4" d="M487.88,170H407.94L298.82,390.53H487.88a10,10,0,0,0,10-10V180A10,10,0,0,0,487.88,170Z"/><rect class="cls-5" x="196.98" y="250.93" width="124.5" height="29.3"/><rect class="cls-5" x="194.58" y="327.33" width="271.8" height="29.3"/><path class="cls-6" d="M95.34,232.9h313.1a10,10,0,0,1,10,10V443.4a10,10,0,0,1-10,10H95.34a10,10,0,0,1-10-10V242.9A10,10,0,0,1,95.34,232.9Z"/><path class="cls-7" d="M93.44,453.4h160.9l108.2-220.5h-269a8.07,8.07,0,0,0-8.1,8.1h0V445.2A7.94,7.94,0,0,0,93.44,453.4Z"/><rect class="cls-5" x="117.54" y="340.8" width="124.5" height="29.3"/><rect class="cls-5" x="115.14" y="390.2" width="271.8" height="29.3"/><path class="cls-3" d="M222.64,267.4l-12,22.8a.78.78,0,0,1-1,.3l-.3-.3-12-22.8a.82.82,0,0,0-.6-.4h-5.8a.47.47,0,0,0-.5.5c0,.1,0,.2.1.2l18.9,35.3a.69.69,0,0,0,.9.3l.3-.3,18.9-35.3a.57.57,0,0,0-.2-.7c-.1,0-.2-.1-.3-.1h-5.8a1,1,0,0,0-.6.5"/><path class="cls-3" d="M229.44,297.9l12-22.8a.78.78,0,0,1,1-.3l.3.3,12,22.8a.82.82,0,0,0,.6.4h5.8a.47.47,0,0,0,.5-.5c0-.1,0-.2-.1-.2l-18.9-35.3a.69.69,0,0,0-.9-.3l-.3.3-18.8,35.2a.57.57,0,0,0,.2.7c.1,0,.1.1.2.1h5.8a.92.92,0,0,0,.6-.4"/><path class="cls-3" d="M139.84,298.2H129a.68.68,0,0,1-.7-.7h0v-9.7a.68.68,0,0,1,.7-.7h10.8c5.1,0,7.4,1.5,7.4,5.5s-2.2,5.6-7.4,5.6M129,272.3h10.6c3.9,0,5.9,1.7,5.9,4.8s-2,4.8-5.9,4.8H129a.68.68,0,0,1-.7-.7h0V273a.68.68,0,0,1,.7-.7h0m18.5,11.6a8,8,0,0,0,4.1-7.3c0-5.7-4.4-9.5-10.7-9.5h-18a.68.68,0,0,0-.7.7h0v35.1a.68.68,0,0,0,.7.7h17.2c8.6,0,13.1-3.7,13.1-10.9s-5.7-8.8-5.7-8.8"/><path class="cls-3" d="M176.64,298.2h-10.8a.68.68,0,0,1-.7-.7v-9.7a.68.68,0,0,1,.7-.7h10.8c5.1,0,7.4,1.5,7.4,5.5s-2.2,5.6-7.4,5.6m-10.8-25.9h10.6c3.9,0,5.9,1.7,5.9,4.8s-2,4.8-5.9,4.8h-10.6a.68.68,0,0,1-.7-.7V273a.68.68,0,0,1,.7-.7h0m18.6,11.6a8,8,0,0,0,4.1-7.3c0-5.7-4.4-9.5-10.7-9.5h-18a.68.68,0,0,0-.7.7h0v35.1a.68.68,0,0,0,.7.7H177c8.6,0,13.1-3.7,13.1-10.9s-5.7-8.8-5.7-8.8"/></g></svg>