<svg xmlns="http://www.w3.org/2000/svg" xmlns:xlink="http://www.w3.org/1999/xlink" viewBox="0 0 600 600"><defs><style>.cls-1{fill:none;}.cls-2{fill:url(#Degradado_sin_nombre_413);}.cls-3{fill:#028484;}.cls-4{fill:#004481;}.cls-5{fill:url(#Degradado_sin_nombre_114);}.cls-6{fill:#d4edfc;}.cls-7{fill:#2dcccd;}.cls-8{fill:url(#Degradado_sin_nombre_3);}</style><linearGradient id="Degradado_sin_nombre_413" x1="251.63" y1="184.76" x2="444.37" y2="547.24" gradientTransform="translate(0 2)" gradientUnits="userSpaceOnUse"><stop offset="0" stop-color="#192647" stop-opacity="0.5"/><stop offset="1" stop-color="#192647" stop-opacity="0"/></linearGradient><linearGradient id="Degradado_sin_nombre_114" x1="508" y1="316" x2="239.2" y2="316" gradientTransform="translate(0 2)" gradientUnits="userSpaceOnUse"><stop offset="0" stop-color="#072146" stop-opacity="0.8"/><stop offset="1" stop-color="#072146" stop-opacity="0"/></linearGradient><linearGradient id="Degradado_sin_nombre_3" x1="-2221.63" y1="10973.82" x2="-2328.03" y2="10917.24" gradientTransform="translate(-2040.4 11082) rotate(180)" gradientUnits="userSpaceOnUse"><stop offset="0" stop-color="#fff"/><stop offset="1" stop-color="#fff" stop-opacity="0.1"/></linearGradient></defs><title>11</title><g id="Cuadrados_Blancos" data-name="Cuadrados Blancos"><rect class="cls-1" width="600" height="600"/><rect class="cls-1" width="600" height="600"/></g><g id="Capa_1" data-name="Capa 1"><path class="cls-2" d="M535,238H388V174a3,3,0,0,0-3-3H311a3,3,0,0,0-3,3v64H161a23,23,0,0,0-23,23V475a23,23,0,0,0,23,23H535a23,23,0,0,0,23-23V261A23,23,0,0,0,535,238ZM406,266a3,3,0,0,1-3,3H293a3,3,0,0,1-3-3V256a3,3,0,0,1,3-3h15v5a3,3,0,0,0,3,3h74a3,3,0,0,0,3-3v-5h15a3,3,0,0,1,3,3Z"/><path class="cls-3" d="M302,178.8h43.6a3,3,0,0,1,3,3V201a10,10,0,0,1-10,10H302V178.8Z"/><path class="cls-4" d="M485,188H111a23,23,0,0,0-23,23V425a23,23,0,0,0,23,23H485a23,23,0,0,0,23-23V211A23,23,0,0,0,485,188ZM356,216a3,3,0,0,1-3,3H243a3,3,0,0,1-3-3V206a3,3,0,0,1,3-3H353a3,3,0,0,1,3,3Z"/><path class="cls-5" d="M485,188H380.4L239.2,448H485a23,23,0,0,0,23-23V211A23,23,0,0,0,485,188Z"/><circle class="cls-6" cx="204.2" cy="279.8" r="36.7"/><path class="cls-6" d="M158.1,325.4h92.2a16,16,0,0,1,16,16v51.5H142.1V341.4A16,16,0,0,1,158.1,325.4Z"/><path class="cls-7" d="M326,121H252a3,3,0,0,0-3,3v77a10,10,0,0,0,10,10h70V124A3,3,0,0,0,326,121Z"/><path class="cls-8" d="M259,211h15.6l48.8-90H252a3,3,0,0,0-3,3v77A10,10,0,0,0,259,211Z"/><path class="cls-7" d="M329,201h0v10h10A10,10,0,0,1,329,201Z"/><path class="cls-6" d="M461.7,341H309.3a5,5,0,1,1,0-10H461.8a5,5,0,0,1,5,5A5,5,0,0,1,461.7,341Z"/><path class="cls-6" d="M461.7,388.5H309.3a5,5,0,1,1,0-10H461.8a5,5,0,0,1,5,5A5,5,0,0,1,461.7,388.5Z"/><path class="cls-6" d="M461.7,364.8H309.3a5,5,0,0,1,0-10H461.8a5,5,0,0,1,5,5A5,5,0,0,1,461.7,364.8Z"/></g></svg>