<?xml version="1.0" encoding="utf-8"?>
<!-- Generator: Adobe Illustrator 23.0.1, SVG Export Plug-In . SVG Version: 6.00 Build 0)  -->
<svg version="1.1" id="Contenido" xmlns="http://www.w3.org/2000/svg" xmlns:xlink="http://www.w3.org/1999/xlink" x="0px" y="0px"
	 viewBox="0 0 600 600" style="enable-background:new 0 0 600 600;" xml:space="preserve">
<style type="text/css">
	.st0{fill:url(#SVGID_1_);}
	.st1{fill:#028484;}
	.st2{fill:#1464A5;}
	.st3{fill:url(#SVGID_2_);}
	.st4{fill:#D4EDFC;}
	.st5{fill:#2DCCCD;}
	.st6{fill:url(#SVGID_3_);}
</style>
<title>_</title>
<linearGradient id="SVGID_1_" gradientUnits="userSpaceOnUse" x1="251.628" y1="415.2437" x2="444.372" y2="52.7563" gradientTransform="matrix(1 0 0 -1 0 602)">
	<stop  offset="0" style="stop-color:#192647"/>
	<stop  offset="0" style="stop-color:#192647;stop-opacity:0.5"/>
	<stop  offset="1" style="stop-color:#192647;stop-opacity:0"/>
</linearGradient>
<path class="st0" d="M535,238H388v-64c0-1.7-1.3-3-3-3h-74c-1.7,0-3,1.3-3,3v64H161c-12.7,0-23,10.3-23,23v214c0,12.7,10.3,23,23,23
	h374c12.7,0,23-10.3,23-23V261C558,248.3,547.7,238,535,238z M406,266c0,1.7-1.3,3-3,3H293c-1.7,0-3-1.3-3-3v-10c0-1.7,1.3-3,3-3h15
	v5c0,1.7,1.3,3,3,3h74c1.7,0,3-1.3,3-3v-5h15c1.7,0,3,1.3,3,3V266z"/>
<path class="st1" d="M302,178.8h43.6c1.7,0,3,1.3,3,3V201c0,5.5-4.5,10-10,10H302l0,0V178.8L302,178.8z"/>
<path class="st2" d="M485,188H111c-12.7,0-23,10.3-23,23v214c0,12.7,10.3,23,23,23h374c12.7,0,23-10.3,23-23V211
	C508,198.3,497.7,188,485,188z M356,216c0,1.7-1.3,3-3,3H243c-1.7,0-3-1.3-3-3v-10c0-1.7,1.3-3,3-3h110c1.7,0,3,1.3,3,3V216z"/>
<linearGradient id="SVGID_2_" gradientUnits="userSpaceOnUse" x1="508" y1="284" x2="239.2" y2="284" gradientTransform="matrix(1 0 0 -1 0 602)">
	<stop  offset="0" style="stop-color:#043263;stop-opacity:0.8"/>
	<stop  offset="1" style="stop-color:#043263;stop-opacity:0"/>
</linearGradient>
<path class="st3" d="M485,188H380.4L239.2,448H485c12.7,0,23-10.3,23-23V211C508,198.3,497.7,188,485,188z"/>
<circle class="st4" cx="204.2" cy="279.8" r="36.7"/>
<path class="st4" d="M158.1,325.4h92.2c8.8,0,16,7.2,16,16v51.5l0,0H142.1l0,0v-51.5C142.1,332.6,149.3,325.4,158.1,325.4z"/>
<path class="st5" d="M326,121h-74c-1.7,0-3,1.3-3,3v77c0,5.5,4.5,10,10,10h70v-87C329,122.3,327.7,121,326,121z"/>
<linearGradient id="SVGID_3_" gradientUnits="userSpaceOnUse" x1="32.3682" y1="776.1866" x2="-74.0318" y2="832.7667" gradientTransform="matrix(-1 0 0 1 213.6 -668)">
	<stop  offset="0" style="stop-color:#FFFFFF"/>
	<stop  offset="1" style="stop-color:#FFFFFF;stop-opacity:0.1"/>
</linearGradient>
<path class="st6" d="M259,211h15.6l48.8-90H252c-1.7,0-3,1.3-3,3v77C249,206.5,253.5,211,259,211z"/>
<path class="st5" d="M329,201L329,201v10h10C333.5,211,329,206.5,329,201z"/>
<g>
	<path class="st4" d="M461.7,341H309.3c-2.8,0-5-2.2-5-5s2.2-5,5-5h152.5c2.8,0,5,2.2,5,5S464.5,341,461.7,341z"/>
</g>
<g>
	<path class="st4" d="M461.7,388.5H309.3c-2.8,0-5-2.2-5-5s2.2-5,5-5h152.5c2.8,0,5,2.2,5,5S464.5,388.5,461.7,388.5z"/>
</g>
<g>
	<path class="st4" d="M461.7,364.8H309.3c-2.8,0-5-2.2-5-5s2.2-5,5-5h152.5c2.8,0,5,2.2,5,5S464.5,364.8,461.7,364.8z"/>
</g>
</svg>
