<svg xmlns="http://www.w3.org/2000/svg" xmlns:xlink="http://www.w3.org/1999/xlink" viewBox="0 0 600 600"><defs><style>.cls-1{fill:none;}.cls-2{fill:url(#Degradado_sin_nombre_4);}.cls-3{fill:#043263;}.cls-4{fill:url(#Degradado_sin_nombre_6);}.cls-5{fill:#2dcccd;}.cls-6{fill:#eaf9fa;}.cls-7{fill:#5bb4ff;}.cls-8{fill:#f8cd50;}</style><linearGradient id="Degradado_sin_nombre_4" x1="270.61" y1="-4481.74" x2="460.75" y2="-4839.35" gradientTransform="matrix(1, 0, 0, -1, 0, -4284)" gradientUnits="userSpaceOnUse"><stop offset="0" stop-color="#192647" stop-opacity="0.5"/><stop offset="1" stop-color="#192647" stop-opacity="0"/></linearGradient><linearGradient id="Degradado_sin_nombre_6" x1="472.22" y1="-4594.18" x2="219.39" y2="-4594.18" gradientTransform="matrix(1, 0, 0, -1, 0, -4284)" gradientUnits="userSpaceOnUse"><stop offset="0" stop-color="#072146" stop-opacity="0.8"/><stop offset="1" stop-color="#072146" stop-opacity="0.1"/></linearGradient></defs><title>15</title><g id="Cuadrados_Blancos" data-name="Cuadrados Blancos"><rect class="cls-1" width="600" height="600"/><rect class="cls-1" width="600" height="600"/></g><g id="Capa_9" data-name="Capa 9"><path class="cls-2" d="M495.41,457.42H485A171.19,171.19,0,0,0,522.7,350c0-1.84,0-3.67-.1-5.49,0-.52,0-1-.05-1.55-.06-1.43-.14-2.85-.23-4.27,0-.43-.05-.88-.08-1.31-.13-1.8-.29-3.59-.47-5.36l-.12-1.06c-.16-1.46-.34-2.92-.54-4.37l-.21-1.51q-.35-2.35-.75-4.68a3.44,3.44,0,0,0-.1-.63c-.31-1.76-.65-3.5-1-5.24-.09-.44-.19-.87-.28-1.31-.3-1.37-.62-2.74-1-4.1-.1-.43-.21-.86-.31-1.28-.44-1.73-.89-3.44-1.38-5.14l-.12-.42c-.45-1.57-.93-3.12-1.42-4.66l-.42-1.28c-.47-1.44-1-2.88-1.47-4.3-.09-.24-.17-.49-.26-.73q-.92-2.52-1.9-5l-.35-.86c-.56-1.39-1.14-2.77-1.74-4.13-.15-.36-.31-.71-.46-1.06q-2.18-4.87-4.62-9.59l-.48-.9c-.73-1.38-1.47-2.75-2.24-4.11-.11-.2-.22-.41-.34-.61q-1.35-2.37-2.78-4.71l-.13-.21q-1.34-2.17-2.73-4.3l-.48-.73c-2-3-4.09-6-6.27-8.84l-.33-.44c-1-1.33-2.06-2.66-3.12-4l-.32-.4q-3.47-4.26-7.21-8.29c-.12-.14-.24-.27-.37-.4q-5.67-6.09-11.91-11.62l-.26-.23q-4.2-3.69-8.63-7.12l-.18-.14q-6.71-5.16-13.89-9.65l-.22-.14q-4.81-3-9.85-5.69h0a172,172,0,0,0-157,306.09h.07q6.86,3.39,14,6.17h.08c1.5.58,3,1.13,4.53,1.67l.51.18c1.46.51,2.94,1,4.42,1.48l.34.11q4.85,1.54,9.8,2.8l.42.1c1.43.36,2.87.7,4.31,1l1.1.24c1.26.27,2.52.53,3.79.77l1.19.23c1.39.26,2.77.5,4.17.72l.72.12c1.66.26,3.32.49,5,.7l.69.08c1.39.17,2.79.32,4.19.46l1.55.14,3.43.26,1.72.11c1.16.07,2.32.12,3.49.16a13.48,13.48,0,0,1,1.54.06c1.66.05,3.33.08,5,.08a172,172,0,0,0,53.58-8.52A37.38,37.38,0,0,0,436.46,532h59a37.4,37.4,0,0,0,37.29-37.29h0A37.4,37.4,0,0,0,495.41,457.42Z"/><circle class="cls-3" cx="300" cy="300" r="172"/><path class="cls-4" d="M380.91,148.19,219.39,452A172,172,0,0,0,380.91,148.19Z"/><path class="cls-5" d="M444.71,482H385.76a37.3,37.3,0,0,1-37.29-37.29h0a37.3,37.3,0,0,1,37.29-37.29h58.95A37.3,37.3,0,0,1,482,444.71h0A37.3,37.3,0,0,1,444.71,482Z"/><circle class="cls-6" cx="444.71" cy="444.71" r="25.82"/><circle class="cls-7" cx="300" cy="267.31" r="43.2"/><path class="cls-7" d="M262.67,321h74.66a35.77,35.77,0,0,1,35.77,35.75v31.64a3,3,0,0,1-3,3H229.9a3,3,0,0,1-3-3V356.77A35.77,35.77,0,0,1,262.67,321Z"/><path class="cls-8" d="M246.29,245.05a5,5,0,0,1-5-5V213.59a5,5,0,0,1,5-5h26.45a5,5,0,0,1,0,10H251.29v21.46A5,5,0,0,1,246.29,245.05Z"/><path class="cls-8" d="M353.71,245.05a5,5,0,0,1-5-5V218.59H327.26a5,5,0,0,1,0-10h26.45a5,5,0,0,1,5,5v26.46a5,5,0,0,1-5,5Z"/><path class="cls-8" d="M353.71,326H327.26a5,5,0,0,1,0-10h21.45V294.57a5,5,0,0,1,10,0V321a5,5,0,0,1-5,5Z"/><path class="cls-8" d="M272.74,326H246.29a5,5,0,0,1-5-5V294.57a5,5,0,0,1,10,0V316h21.45a5,5,0,0,1,0,10Z"/></g></svg>