<svg id="Capa_1" data-name="Capa 1" xmlns="http://www.w3.org/2000/svg" xmlns:xlink="http://www.w3.org/1999/xlink" viewBox="0 0 600 600"><defs><style>.cls-1{fill:url(#Degradado_sin_nombre_9);}.cls-2{fill:#0065aa;}.cls-3{fill:#00a7ec;}.cls-4{opacity:0.5;fill:url(#Degradado_sin_nombre_2);}.cls-10,.cls-4{isolation:isolate;}.cls-10,.cls-5{fill:#003267;}.cls-6{fill:#004481;}.cls-7{fill:url(#Degradado_sin_nombre_15);}.cls-8{fill:#072146;}.cls-9{fill:#fff;}.cls-10{opacity:0.3;}.cls-11{fill:#59a96e;}.cls-12{fill:none;}</style><linearGradient id="Degradado_sin_nombre_9" x1="331.39" y1="273.26" x2="447.5" y2="491.64" gradientUnits="userSpaceOnUse"><stop offset="0" stop-color="#002149" stop-opacity="0.5"/><stop offset="1" stop-color="#002149" stop-opacity="0"/></linearGradient><linearGradient id="Degradado_sin_nombre_2" x1="155.31" y1="1094.56" x2="309.76" y2="1249" gradientTransform="translate(0 -900)" gradientUnits="userSpaceOnUse"><stop offset="0" stop-color="#fff" stop-opacity="0.5"/><stop offset="1" stop-color="#eaf5f6" stop-opacity="0.1"/></linearGradient><linearGradient id="Degradado_sin_nombre_15" x1="210.82" y1="276.14" x2="500.14" y2="276.14" gradientUnits="userSpaceOnUse"><stop offset="0" stop-color="#072146" stop-opacity="0"/><stop offset="1" stop-color="#072146" stop-opacity="0.8"/></linearGradient></defs><path class="cls-1" d="M575.66,220.53a65.09,65.09,0,0,0-130.16-1.25H408.57V148.44h0a22.12,22.12,0,0,0-22.1-22.15H201.57l0,0h0a22.12,22.12,0,0,0-22.06,22.2V481.57h0v28.86a22.09,22.09,0,0,0,22.1,22.09h184.9a22.1,22.1,0,0,0,22.1-22.09v-76.3h108a20,20,0,0,0,20-20V280.22A65.08,65.08,0,0,0,575.66,220.53Z"/><path class="cls-2" d="M147.17,75.71h184.9a22.13,22.13,0,0,1,22.1,22.16h0v362a22.12,22.12,0,0,1-22.1,22.1H147.17a22.09,22.09,0,0,1-22.1-22.1h0v-362a22.13,22.13,0,0,1,22.06-22.2h0Z"/><rect class="cls-3" x="125.07" y="126.71" width="229.1" height="304.3"/><polygon class="cls-4" points="125.07 126.71 125.07 431.01 242.17 431.01 354.17 224.01 354.17 126.71 125.07 126.71"/><rect class="cls-5" x="233.77" y="150.13" width="12" height="252.04" rx="6"/><path class="cls-6" d="M233.76,168.71h228.3a20.08,20.08,0,0,1,20.09,20.09V363.49a20.08,20.08,0,0,1-20.09,20.09H233.76Z"/><path class="cls-7" d="M462.15,383.58a20,20,0,0,0,20-20h0V188.71a20,20,0,0,0-20-20h-102L245.87,383.58Z"/><rect class="cls-8" x="233.76" y="199.28" width="248.39" height="34.94"/><path class="cls-9" d="M233.76,301.48H427.12a2.62,2.62,0,0,1,2.62,2.62v26.2a2.62,2.62,0,0,1-2.62,2.62H233.76Z"/><rect class="cls-10" x="233.76" y="168.71" width="12.01" height="214.88"/><path class="cls-11" d="M521.26,170a65.1,65.1,0,1,1-65.1-65.1h0a65.09,65.09,0,0,1,65.1,65.1h0"/><path class="cls-11" d="M521.26,170a65.1,65.1,0,1,1-65.1-65.1h0a65.09,65.09,0,0,1,65.1,65.1h0"/><path class="cls-9" d="M442.76,199.17a5.89,5.89,0,0,1-4.1-1.7l-20.1-20a5.8,5.8,0,0,1,8.2-8.2l16,15.9,42.8-42.7a5.8,5.8,0,0,1,8.4,8l-.2.2-46.9,46.8A5.87,5.87,0,0,1,442.76,199.17Z"/><rect class="cls-12" width="600" height="600"/></svg>