<svg id="Contenido" xmlns="http://www.w3.org/2000/svg" xmlns:xlink="http://www.w3.org/1999/xlink" viewBox="0 0 600 600"><defs><style>.cls-1{fill:url(#Degradado_sin_nombre);}.cls-2{fill:#004481;}.cls-3{fill:url(#Degradado_sin_nombre_2);}.cls-4{fill:#072146;}.cls-5{fill:#fff;}.cls-6{fill:none;}.cls-7{fill:#59a96e;}</style><linearGradient id="Degradado_sin_nombre" x1="270.08" y1="826.45" x2="431.78" y2="1130.55" gradientTransform="translate(0 -648)" gradientUnits="userSpaceOnUse"><stop offset="0" stop-color="#192647" stop-opacity="0.5"/><stop offset="1" stop-color="#192647" stop-opacity="0"/></linearGradient><linearGradient id="Degradado_sin_nombre_2" x1="461" y1="-1641.77" x2="222.36" y2="-1641.77" gradientTransform="matrix(1, 0, 0, -1, 0, -1357.77)" gradientUnits="userSpaceOnUse"><stop offset="0" stop-color="#072146" stop-opacity="0.8"/><stop offset="1" stop-color="#072146" stop-opacity="0"/></linearGradient></defs><path class="cls-1" d="M548.4,235.35a65,65,0,0,0-129.95-1.81H172.23a23,23,0,0,0-23,23h0v171a23,23,0,0,0,23,23h314a23,23,0,0,0,23-23V295A65,65,0,0,0,548.4,235.35Z"/><rect class="cls-2" x="101" y="175.5" width="360" height="217" rx="23"/><path class="cls-3" d="M438,392.5a23,23,0,0,0,23-23h0v-171a23,23,0,0,0-23-23H337.77l-115.41,217Z"/><rect class="cls-4" x="101" y="206.37" width="360" height="35.28"/><path class="cls-5" d="M450.42,158.46h4.77a.4.4,0,0,1,.38.39v4.76a.4.4,0,0,1-.38.39h-4.77a.4.4,0,0,1-.38-.39v-4.76A.4.4,0,0,1,450.42,158.46Z"/><path class="cls-5" d="M438.67,147.68v27.4a.41.41,0,0,0,.39.39h27.4a.4.4,0,0,0,.38-.39h0v-27.4a.4.4,0,0,0-.38-.39h-27.4C438.86,147.19,438.67,147.39,438.67,147.68Zm22.15,22.15h-16a.41.41,0,0,1-.39-.39V153.31a.4.4,0,0,1,.39-.38H461a.4.4,0,0,1,.39.38v16.13a.45.45,0,0,1-.49.39Z"/><path class="cls-5" d="M416.52,158.46h4.76a.43.43,0,0,1,.39.39v4.76a.41.41,0,0,1-.39.39h-4.76a.41.41,0,0,1-.39-.39v-4.76A.41.41,0,0,1,416.52,158.46Z"/><path class="cls-5" d="M404.76,147.68v27.4a.41.41,0,0,0,.39.39h27.4a.43.43,0,0,0,.39-.39h0v-27.4a.43.43,0,0,0-.39-.39h-27.4C405,147.19,404.76,147.39,404.76,147.68ZM427,169.83H410.88a.41.41,0,0,1-.39-.39V153.31a.4.4,0,0,1,.39-.38H427a.4.4,0,0,1,.39.38v16.13A.41.41,0,0,1,427,169.83Z"/><rect class="cls-6" width="600" height="600"/><rect class="cls-5" x="153.94" y="309.58" width="254.12" height="31.76" rx="3"/><path class="cls-7" d="M500.3,177.5a65.1,65.1,0,1,1-65.1-65.1h0a65.1,65.1,0,0,1,65.1,65.1h0"/><path class="cls-5" d="M421.8,206.7a5.83,5.83,0,0,1-4.1-1.7l-20.1-20a5.8,5.8,0,0,1,8.2-8.2l16,15.9L464.6,150a5.8,5.8,0,0,1,8.4,8l-.2.2L425.9,205A5.83,5.83,0,0,1,421.8,206.7Z"/></svg>