<svg id="Contenido" xmlns="http://www.w3.org/2000/svg" xmlns:xlink="http://www.w3.org/1999/xlink" viewBox="0 0 600 600"><defs><style>.cls-1{fill:url(#Degradado_sin_nombre);}.cls-2{fill:#004481;}.cls-3{fill:url(#Degradado_sin_nombre_2);}.cls-4{fill:#072146;}.cls-5{fill:#fff;}.cls-6{fill:none;}.cls-7{fill:#1464a5;}.cls-8{fill:#59a96e;}</style><linearGradient id="Degradado_sin_nombre" x1="270.08" y1="826.45" x2="431.78" y2="1130.55" gradientTransform="translate(0 -648)" gradientUnits="userSpaceOnUse"><stop offset="0" stop-color="#192647" stop-opacity="0.5"/><stop offset="1" stop-color="#192647" stop-opacity="0"/></linearGradient><linearGradient id="Degradado_sin_nombre_2" x1="461" y1="-1641.77" x2="222.36" y2="-1641.77" gradientTransform="matrix(1, 0, 0, -1, 0, -1357.77)" gradientUnits="userSpaceOnUse"><stop offset="0" stop-color="#072146" stop-opacity="0.8"/><stop offset="1" stop-color="#072146" stop-opacity="0"/></linearGradient></defs><path class="cls-1" d="M548.4,235.35a65,65,0,0,0-129.95-1.81H172.23a23,23,0,0,0-23,23h0v171a23,23,0,0,0,23,23h314a23,23,0,0,0,23-23V295A65,65,0,0,0,548.4,235.35Z"/><rect class="cls-2" x="101" y="175.5" width="360" height="217" rx="23"/><path class="cls-3" d="M438,392.5a23,23,0,0,0,23-23h0v-171a23,23,0,0,0-23-23H337.77l-115.41,217Z"/><rect class="cls-4" x="101" y="206.37" width="360" height="35.28"/><path class="cls-5" d="M450.42,158.46h4.77a.4.4,0,0,1,.38.39v4.76a.4.4,0,0,1-.38.39h-4.77a.4.4,0,0,1-.38-.39v-4.76A.4.4,0,0,1,450.42,158.46Z"/><path class="cls-5" d="M438.67,147.68v27.4a.41.41,0,0,0,.39.39h27.4a.4.4,0,0,0,.38-.39h0v-27.4a.4.4,0,0,0-.38-.39h-27.4C438.86,147.19,438.67,147.39,438.67,147.68Zm22.15,22.15h-16a.41.41,0,0,1-.39-.39V153.31a.4.4,0,0,1,.39-.38H461a.4.4,0,0,1,.39.38v16.13a.45.45,0,0,1-.49.39Z"/><path class="cls-5" d="M416.52,158.46h4.76a.43.43,0,0,1,.39.39v4.76a.41.41,0,0,1-.39.39h-4.76a.41.41,0,0,1-.39-.39v-4.76A.41.41,0,0,1,416.52,158.46Z"/><path class="cls-5" d="M404.76,147.68v27.4a.41.41,0,0,0,.39.39h27.4a.43.43,0,0,0,.39-.39h0v-27.4a.43.43,0,0,0-.39-.39h-27.4C405,147.19,404.76,147.39,404.76,147.68ZM427,169.83H410.88a.41.41,0,0,1-.39-.39V153.31a.4.4,0,0,1,.39-.38H427a.4.4,0,0,1,.39.38v16.13A.41.41,0,0,1,427,169.83Z"/><rect class="cls-6" width="600" height="600"/><path class="cls-5" d="M424.7,363.1H339.4a5.55,5.55,0,0,1-5.5-5.5V272.3a5.55,5.55,0,0,1,5.5-5.5h85.3a5.55,5.55,0,0,1,5.5,5.5v85.3A5.42,5.42,0,0,1,424.7,363.1Z"/><path class="cls-7" d="M361.1,330.4h5.2a.43.43,0,0,1,.4.4V336a.43.43,0,0,1-.4.4h-5.2a.43.43,0,0,1-.4-.4v-5.2c-.1-.2.1-.4.4-.4Z"/><path class="cls-7" d="M398,330.4a.43.43,0,0,1-.4-.4h0V318.6a.43.43,0,0,0-.4-.4H385.8a.43.43,0,0,0-.4.4v5.3a.43.43,0,0,0,.4.4h5.3a.43.43,0,0,1,.4.4v5.2a.43.43,0,0,1-.4.4h-5.3a.43.43,0,0,0-.4.4h0v11.4a.43.43,0,0,0,.4.4h5.3a.43.43,0,0,0,.4-.4v-5.3a.43.43,0,0,1,.4-.4h11.4a.43.43,0,0,0,.4-.4h0v-5.2a.43.43,0,0,0-.4-.4Z"/><path class="cls-7" d="M404.1,318h5.2a.43.43,0,0,1,.4.4v11.4a.43.43,0,0,1-.4.4h-5.2a.43.43,0,0,1-.4-.4V318.4C403.7,318.2,403.9,318.1,404.1,318Z"/><path class="cls-7" d="M409.8,330.8V336a.43.43,0,0,1-.4.4h-5.3a.43.43,0,0,0-.4.4v11.4a.43.43,0,0,0,.4.4h5.3a.43.43,0,0,0,.4-.4V343a.43.43,0,0,1,.4-.4h5.2a.43.43,0,0,0,.4-.4V330.8a.43.43,0,0,0-.4-.4h-5.2a.43.43,0,0,0-.4.4Z"/><path class="cls-7" d="M391.8,342.7H397a.43.43,0,0,1,.4.4v5.2a.43.43,0,0,1-.4.4h-5.2a.43.43,0,0,1-.4-.4v-5.2a.43.43,0,0,1,.4-.4Z"/><path class="cls-7" d="M348.2,318.5v29.8a.43.43,0,0,0,.4.4h29.8a.43.43,0,0,0,.4-.4V318.5a.43.43,0,0,0-.4-.4H348.6C348.4,318.1,348.3,318.2,348.2,318.5Zm24.3,24.2H354.9a.43.43,0,0,1-.4-.4V324.7a.43.43,0,0,1,.4-.4h17.6a.43.43,0,0,1,.4.4h0v17.6A.43.43,0,0,1,372.5,342.7Z"/><path class="cls-7" d="M398,293.4h5.2a.43.43,0,0,1,.4.4V299a.43.43,0,0,1-.4.4H398a.43.43,0,0,1-.4-.4v-5.2A.37.37,0,0,1,398,293.4Z"/><path class="cls-7" d="M385.2,281.6v29.8a.43.43,0,0,0,.4.4h29.8a.43.43,0,0,0,.4-.4h0V281.6a.43.43,0,0,0-.4-.4H385.6C385.4,281.1,385.2,281.3,385.2,281.6Zm24.1,24.2H391.9a.43.43,0,0,1-.4-.4V287.8a.43.43,0,0,1,.4-.4h17.6a.43.43,0,0,1,.4.4v17.6c0,.2-.3.4-.6.4Z"/><path class="cls-7" d="M361.1,293.4h5.2a.43.43,0,0,1,.4.4V299a.43.43,0,0,1-.4.4h-5.2a.43.43,0,0,1-.4-.4v-5.2C360.6,293.6,360.8,293.4,361.1,293.4Z"/><path class="cls-7" d="M348.2,281.6v29.8a.43.43,0,0,0,.4.4h29.8a.43.43,0,0,0,.4-.4h0V281.6a.43.43,0,0,0-.4-.4H348.6C348.5,281.1,348.2,281.3,348.2,281.6Zm24.3,24.2H354.9a.43.43,0,0,1-.4-.4V287.8a.43.43,0,0,1,.4-.4h17.6a.43.43,0,0,1,.4.4v17.6A.43.43,0,0,1,372.5,305.8Z"/><path class="cls-8" d="M500.3,177.5a65.1,65.1,0,1,1-65.1-65.1h0a65.1,65.1,0,0,1,65.1,65.1h0"/><path class="cls-5" d="M421.8,206.7a5.83,5.83,0,0,1-4.1-1.7l-20.1-20a5.8,5.8,0,0,1,8.2-8.2l16,15.9L464.6,150a5.8,5.8,0,0,1,8.4,8l-.2.2L425.9,205A5.83,5.83,0,0,1,421.8,206.7Z"/></svg>