<svg xmlns="http://www.w3.org/2000/svg" xmlns:xlink="http://www.w3.org/1999/xlink" viewBox="0 0 600 600"><defs><style>.fc751d51-a6ee-48bc-ba73-5c18edf6a598{fill:none;}.e0f6ef4f-983a-47b4-9941-a773819c3c8f{fill:url(#bf80c249-6832-4519-95d3-34033f8ab1a0);}.b02ba905-8b4a-4036-adb2-b15e6f826719{fill:#2dcccd;}.f0bde4ee-5d09-4791-b911-467982d94376{fill:#fff;}</style><linearGradient id="bf80c249-6832-4519-95d3-34033f8ab1a0" x1="256.09" y1="7848.6" x2="443.91" y2="7495.34" gradientTransform="matrix(1, 0, 0, -1, 0, 8022)" gradientUnits="userSpaceOnUse"><stop offset="0" stop-color="#1c2645" stop-opacity="0.5"/><stop offset="1" stop-color="#1c2645" stop-opacity="0"/></linearGradient></defs><g id="b8a0047f-b84b-4bde-9185-abad3fb2b29a" data-name="Cuadrados Blancos"><rect class="fc751d51-a6ee-48bc-ba73-5c18edf6a598" width="600" height="600"/></g><g id="b8dfd6d3-7ea4-41b3-bb1a-33d4e9d1711e" data-name="Capa 5"><circle class="e0f6ef4f-983a-47b4-9941-a773819c3c8f" cx="350" cy="350.03" r="200"/><path class="b02ba905-8b4a-4036-adb2-b15e6f826719" d="M500,299.91C500,410.41,410.49,500,300.09,500S100,410.58,100,300.17,189.42,100.09,299.83,100,499.91,189.42,500,299.91"/></g><g id="be598710-e140-4484-8f43-08a6795757ce" data-name="Capa 6"><path class="f0bde4ee-5d09-4791-b911-467982d94376" d="M316.34,385.37v-69h69a16.36,16.36,0,0,0,0-32.71h-69l0-69a16.36,16.36,0,0,0-32.71,0h0v69h-69a16.36,16.36,0,0,0,0,32.71h69v69a16.36,16.36,0,0,0,32.71,0Z"/></g></svg>