<svg xmlns="http://www.w3.org/2000/svg" xmlns:xlink="http://www.w3.org/1999/xlink" viewBox="0 0 600 600"><defs><style>.cls-1{fill:none;}.cls-2{fill:url(#Degradado_sin_nombre_586);}.cls-3{fill:#043263;}.cls-4{fill:#2dcccd;}.cls-5{fill:#004481;}.cls-6{fill:url(#Degradado_sin_nombre_114);}.cls-7{fill:#fff;}</style><linearGradient id="Degradado_sin_nombre_586" x1="230.44" y1="-13390.51" x2="430.88" y2="-13767.48" gradientTransform="matrix(1, 0, 0, -1, 0, -13214)" gradientUnits="userSpaceOnUse"><stop offset="0" stop-color="#192647" stop-opacity="0.5"/><stop offset="1" stop-color="#192647" stop-opacity="0"/></linearGradient><linearGradient id="Degradado_sin_nombre_114" x1="3207.51" y1="-11912.18" x2="3027.92" y2="-12007.67" gradientTransform="matrix(0.88, 0.47, 0.47, -0.88, 3258.44, -11703.26)" gradientUnits="userSpaceOnUse"><stop offset="0" stop-color="#072146" stop-opacity="0.8"/><stop offset="1" stop-color="#072146" stop-opacity="0"/></linearGradient></defs><title>11</title><g id="Cuadrados_Blancos" data-name="Cuadrados Blancos"><rect class="cls-1" width="600" height="600"/><rect class="cls-1" width="600" height="600"/></g><g id="Capa_123" data-name="Capa 123"><path class="cls-2" d="M545.71,354.79l-37.09-19.72,21.6-40.61c.19-.35.36-.71.53-1.06.33-.71.62-1.43.88-2.16.13-.36.24-.73.35-1.09s.25-.9.35-1.35a22.9,22.9,0,0,0-9.2-24c-.45-.32-.9-.62-1.38-.91l-1-.58L421.5,210.58a90.05,90.05,0,0,0-69.41-74.42l-.28-.07c-.76-.16-1.52-.32-2.29-.46l-.45-.09c-.77-.14-1.55-.28-2.33-.4h-.28c-.9-.14-1.8-.27-2.7-.38h0c-.85-.11-1.7-.2-2.56-.28l-.73-.07-1.88-.15-.87,0-1.86-.09h-3.43a90.31,90.31,0,0,0-9.44.5c-1.32.13-2.62.3-3.92.5a89,89,0,0,0-11.86,2.61c-1,.29-1.95.59-2.91.91q-.71.23-1.41.48c-.88.3-1.75.62-2.62,1-2.67,1-5.25,2.16-7.76,3.41-.64.32-1.27.64-1.89,1a89.3,89.3,0,0,0-13.28,8.58l-.72.57c-.94.74-1.85,1.5-2.76,2.27-1.18,1-2.35,2.08-3.48,3.16A89.8,89.8,0,0,0,242.46,224v3.69c0,.76.07,1.53.12,2.29v.63c.07.95.15,1.9.25,2.84a5.17,5.17,0,0,0,.07.55c.08.78.18,1.56.29,2.34a4.45,4.45,0,0,0,.1.72q.42,2.83,1,5.61l.12.58c.18.81.37,1.61.57,2.41a1.63,1.63,0,0,0,.1.41c.24,1,.49,1.89.76,2.83V249c.26.88.53,1.76.82,2.64l.12.39q.93,2.81,2,5.54a.61.61,0,0,1,.05.12,90.35,90.35,0,0,0,6.34,12.63l-39.56,74.39a23,23,0,0,0-.08,21.44L150,489.88a3,3,0,0,0,1.24,4.05L172.4,505.2a3,3,0,0,0,4-1.24l85.48-160.75,122.73,65.26-32.4,60.92a23,23,0,0,0,9.51,31.1l83,44.13a3,3,0,0,0,4.06-1.24h0L547,358.85a3,3,0,0,0-1.27-4.05ZM219.15,340c.26-.28.52-.55.79-.82-.27.27-.53.54-.79.82a22.38,22.38,0,0,0-2.13,2.72A22.38,22.38,0,0,1,219.15,340Z"/><path class="cls-3" d="M196.92,285.23a23,23,0,0,0-22.06,40.37l.46.24Z"/><path class="cls-4" d="M192.45,265.93,218.94,280h0L126.46,454a3,3,0,0,1-4.06,1.24h0l-21.19-11.27a3,3,0,0,1-1.24-4.06h0l92.48-173.94Z"/><path class="cls-5" d="M392.4,249.86l103.3,54.93a3,3,0,0,1,1.24,4L398.82,493.38a3,3,0,0,1-4.05,1.24l-83-44.13a23,23,0,0,1-9.51-31.1L392.4,249.86Z"/><path class="cls-5" d="M390.08,414h0a23,23,0,0,0-9.51-31.1h0L196.92,285.23h0a23,23,0,0,0-31.11,9.5h0L256,125.21a23,23,0,0,1,31.1-9.51h0l183.65,97.65a23,23,0,0,1,9.51,31.1h0Z"/><circle class="cls-3" cx="369.77" cy="403.19" r="23"/><path class="cls-3" d="M359,423.49l-25.6-13.61h0a23,23,0,0,0-31.11,9.5h0l32.4-60.92,45.91,24.41Z"/><path class="cls-6" d="M470.71,213.35l-101-53.73L279.52,329.15l101.05,53.73a23,23,0,0,1,9.51,31.1l90.14-169.52a23,23,0,0,0-9.5-31.11Z"/><path class="cls-4" d="M372.46,174a90,90,0,1,1-90-90h0a90,90,0,0,1,90,90"/><path class="cls-7" d="M321.62,166.5H290V134.84a7.5,7.5,0,1,0-15,0V166.5H243.29a7.5,7.5,0,1,0,0,15H275v31.66a7.5,7.5,0,1,0,15,0V181.5h31.66a7.5,7.5,0,0,0,0-15Z"/></g></svg>