<svg id="Contenido" xmlns="http://www.w3.org/2000/svg" xmlns:xlink="http://www.w3.org/1999/xlink" viewBox="0 0 600 600"><defs><style>.cls-1{fill:url(#Degradado_sin_nombre_6);}.cls-2{fill:#4ea5e2;}.cls-3{fill-rule:evenodd;opacity:0.5;isolation:isolate;fill:url(#Degradado_sin_nombre_9);}.cls-4{fill:#d4ecfa;}.cls-5{fill:#07467f;}.cls-6{fill:#2dcccd;}.cls-7{fill:#fff;}</style><linearGradient id="Degradado_sin_nombre_6" x1="281.66" y1="182.85" x2="449.75" y2="498.97" gradientUnits="userSpaceOnUse"><stop offset="0" stop-color="#192647" stop-opacity="0.5"/><stop offset="1" stop-color="#192647" stop-opacity="0"/></linearGradient><linearGradient id="Degradado_sin_nombre_9" x1="167.89" y1="243.52" x2="335.92" y2="332.86" gradientUnits="userSpaceOnUse"><stop offset="0" stop-color="#e9f8f9"/><stop offset="1" stop-color="#e9f8f9" stop-opacity="0.2"/><stop offset="1" stop-color="#e9f8f9" stop-opacity="0.5"/></linearGradient></defs><title>DIY_</title><path class="cls-1" d="M563,255.19A60,60,0,0,0,446.45,235.1H185.52a8.38,8.38,0,0,0-8.42,8.41v.58a10.73,10.73,0,0,0-.1,1.4v208.3a10.7,10.7,0,0,0,.1,1.39v.48a8.26,8.26,0,0,0,8.31,8.52h327.2A10.42,10.42,0,0,0,523,453.79v-142A60,60,0,0,0,563,255.19Z"/><path class="cls-2" d="M137.39,185.46H462.61A10.41,10.41,0,0,1,473,195.85v208.3a10.41,10.41,0,0,1-10.39,10.39H137.39A10.41,10.41,0,0,1,127,404.15V195.85A10.35,10.35,0,0,1,137.39,185.46Z"/><path class="cls-3" d="M135.41,414.54H302.54l112.4-229.08H135.52a8.38,8.38,0,0,0-8.42,8.41h0V406A8.26,8.26,0,0,0,135.41,414.54Z"/><rect class="cls-4" x="157.95" y="297.56" width="129.32" height="30.44"/><rect class="cls-4" x="157.95" y="348.88" width="282.33" height="30.44"/><path class="cls-5" d="M269.62,221.3,257.15,245a.81.81,0,0,1-1,.31l-.31-.31L243.34,221.3a.86.86,0,0,0-.63-.41h-6a.49.49,0,0,0-.52.52c0,.1,0,.2.1.2l19.64,36.68a.7.7,0,0,0,.93.31l.31-.31,19.63-36.68a.59.59,0,0,0-.2-.72c-.11,0-.21-.11-.31-.11h-6a1.06,1.06,0,0,0-.62.52"/><path class="cls-5" d="M276.68,253l12.47-23.69a.79.79,0,0,1,1-.31l.32.31L303,253a.84.84,0,0,0,.62.41h6a.49.49,0,0,0,.52-.52c0-.1,0-.2-.11-.2L290.39,216a.71.71,0,0,0-.93-.31l-.31.31-19.53,36.57a.6.6,0,0,0,.2.73c.11,0,.11.1.21.1h6c.31-.1.52-.2.62-.41"/><path class="cls-5" d="M183.61,253.3H172.39a.71.71,0,0,1-.72-.73h0V242.5a.71.71,0,0,1,.72-.73h11.22c5.3,0,7.69,1.56,7.69,5.71s-2.29,5.82-7.69,5.82m-11.22-26.91h11c4,0,6.13,1.77,6.13,5s-2.08,5-6.13,5h-11a.71.71,0,0,1-.72-.73h0v-8.52a.71.71,0,0,1,.72-.73h0m19.22,12.05a8.34,8.34,0,0,0,4.26-7.58c0-5.92-4.57-9.87-11.12-9.87H166.06a.71.71,0,0,0-.73.73h0v36.46a.71.71,0,0,0,.73.73h17.86c8.94,0,13.61-3.84,13.61-11.32s-5.92-9.15-5.92-9.15"/><path class="cls-5" d="M221.84,253.3H210.62a.71.71,0,0,1-.73-.73V242.5a.71.71,0,0,1,.73-.73h11.22c5.29,0,7.68,1.56,7.68,5.71s-2.28,5.82-7.68,5.82m-11.22-26.91h11c4.05,0,6.13,1.77,6.13,5s-2.08,5-6.13,5h-11a.72.72,0,0,1-.73-.73v-8.52a.71.71,0,0,1,.73-.73h0m19.32,12.05a8.34,8.34,0,0,0,4.26-7.58c0-5.92-4.57-9.87-11.12-9.87H204.39a.71.71,0,0,0-.73.73h0v36.46a.71.71,0,0,0,.73.73h17.86c8.93,0,13.61-3.84,13.61-11.32s-5.92-9.15-5.92-9.15"/><path class="cls-6" d="M513,205.55a60,60,0,1,1-60-60,60,60,0,0,1,60,60"/><path class="cls-7" d="M453.28,236.64a5,5,0,0,1-5-5V179.43a5,5,0,0,1,10,0v52.21A5,5,0,0,1,453.28,236.64Z"/><path class="cls-7" d="M479.39,210.53H427.17a5,5,0,0,1,0-10h52.22a5,5,0,0,1,0,10Z"/></svg>