<svg id="Capa_1" data-name="Capa 1" xmlns="http://www.w3.org/2000/svg" xmlns:xlink="http://www.w3.org/1999/xlink" viewBox="0 0 600 600"><defs><style>.cls-1{fill:url(#Degradado_sin_nombre_8);}.cls-2{fill:#d4edfc;}.cls-3{fill:url(#Degradado_sin_nombre_16);}.cls-4{fill:#49a5e6;}.cls-5{fill:#1bccce;}.cls-6{fill:#fff;}</style><linearGradient id="Degradado_sin_nombre_8" x1="252.07" y1="488.35" x2="461.15" y2="95.13" gradientTransform="matrix(1, 0, 0, -1, 0, 660)" gradientUnits="userSpaceOnUse"><stop offset="0" stop-color="#192647"/><stop offset="0" stop-color="#192647" stop-opacity="0.5"/><stop offset="1" stop-color="#192647" stop-opacity="0"/></linearGradient><linearGradient id="Degradado_sin_nombre_16" x1="465.37" y1="349.1" x2="203.67" y2="349.1" gradientTransform="matrix(1, 0, 0, -1, 0, 660)" gradientUnits="userSpaceOnUse"><stop offset="0" stop-color="#043263" stop-opacity="0.1"/><stop offset="1" stop-color="#043263" stop-opacity="0"/></linearGradient></defs><title>RESEARCH</title><path class="cls-1" d="M420.6,178H240.88a3.11,3.11,0,0,0-3.08,3.08V535.2a2.75,2.75,0,0,0,2.8,2.79h9.7l254.24.94h4.66a2.75,2.75,0,0,0,2.8-2.8V269.39Z"/><path class="cls-2" d="M465.37,213.44,374,122H194.25a3.11,3.11,0,0,0-3.08,3.07V479.24A2.75,2.75,0,0,0,194,482h268.6a2.75,2.75,0,0,0,2.8-2.8Z"/><path class="cls-3" d="M389.82,138.82,203.67,482l254.24.93h4.66a2.75,2.75,0,0,0,2.8-2.8V214.37Z"/><path class="cls-4" d="M293.76,258.2H230.34a4.66,4.66,0,0,1,0-9.32h63.42a4.66,4.66,0,1,1,0,9.32Z"/><path class="cls-4" d="M422.47,289.51H230.34a4.67,4.67,0,0,1,0-9.33H422.47a4.67,4.67,0,0,1,0,9.33Z"/><path class="cls-4" d="M422.47,320.82H230.34a4.67,4.67,0,0,1,0-9.33H422.47a4.67,4.67,0,0,1,0,9.33Z"/><path class="cls-4" d="M424.29,352.13h-194a4.67,4.67,0,0,1,0-9.33h194a4.67,4.67,0,0,1,0,9.33Z"/><path class="cls-4" d="M424.29,383.43h-194a4.66,4.66,0,0,1,0-9.32h194a4.66,4.66,0,1,1,0,9.32Z"/><path class="cls-4" d="M424.29,414.74h-194a4.67,4.67,0,0,1,0-9.33h194a4.67,4.67,0,0,1,0,9.33Z"/><path class="cls-4" d="M377.42,213.44h87.95L374,122V210A3.39,3.39,0,0,0,377.42,213.44Z"/><path class="cls-5" d="M272.31,145.84a60.16,60.16,0,1,1-60.14-60.18,60.15,60.15,0,0,1,60.14,60.18"/><path class="cls-6" d="M238.61,140.81H217.45V119.64a5,5,0,0,0-10,0v21.17H186.26a5,5,0,1,0,0,10h21.16V172a5,5,0,1,0,10,0V150.83h21.16a5,5,0,0,0,0-10Z"/></svg>