<svg xmlns="http://www.w3.org/2000/svg" xmlns:xlink="http://www.w3.org/1999/xlink" viewBox="0 0 600 600"><defs><style>.cls-1{isolation:isolate;}.cls-2{fill:url(#Degradado_sin_nombre_7);}.cls-3{fill:#1464a5;}.cls-4{fill:url(#Degradado_sin_nombre_4);}.cls-5{fill:#043263;opacity:0.6;mix-blend-mode:multiply;}.cls-6{fill:#fff;}.cls-7{fill:#2dcccd;}</style><linearGradient id="Degradado_sin_nombre_7" x1="287.28" y1="188.31" x2="448.97" y2="492.41" gradientUnits="userSpaceOnUse"><stop offset="0" stop-color="#192647"/><stop offset="0" stop-color="#192647" stop-opacity="0.5"/><stop offset="1" stop-color="#192647" stop-opacity="0"/></linearGradient><linearGradient id="Degradado_sin_nombre_4" x1="480" y1="300" x2="241.36" y2="300" gradientUnits="userSpaceOnUse"><stop offset="0" stop-color="#043263"/><stop offset="1" stop-color="#043263" stop-opacity="0"/></linearGradient></defs><title>DIY_</title><g class="cls-1"><g id="Contenido"><path class="cls-2" d="M570,261.52a60,60,0,0,0-116.57-20H193a23,23,0,0,0-23,23v171a23,23,0,0,0,23,23H507a23,23,0,0,0,23-23V318.07A60,60,0,0,0,570,261.52Z"/><rect class="cls-3" x="120" y="191.5" width="360" height="217" rx="23"/><path class="cls-4" d="M457,408.5a23,23,0,0,0,23-23v-171a23,23,0,0,0-23-23H356.77l-115.41,217Z"/><rect class="cls-5" x="120" y="222.37" width="360" height="35.28"/><rect class="cls-6" x="172.94" y="325.58" width="254.12" height="31.76" rx="3"/><path class="cls-7" d="M520,211.52a60,60,0,1,1-60-60,60,60,0,0,1,60,60"/><path class="cls-6" d="M486.39,206.5H465.28V185.39a5,5,0,0,0-10,0V206.5H434.17a5,5,0,0,0,0,10h21.11v21.11a5,5,0,0,0,10,0V216.5h21.11a5,5,0,0,0,0-10Z"/></g></g></svg>