<svg xmlns="http://www.w3.org/2000/svg" xmlns:xlink="http://www.w3.org/1999/xlink" viewBox="0 0 600 600"><defs><style>.cls-1{fill:none;}.cls-2{fill:url(#Degradado_sin_nombre_193);}.cls-3{fill:#004481;}.cls-4{fill:url(#Degradado_sin_nombre_444);}.cls-5{fill:#072146;}.cls-6{fill:#fff;}.cls-7{fill:#2dcccd;}</style><linearGradient id="Degradado_sin_nombre_193" x1="239.43" y1="152.33" x2="428.89" y2="508.64" gradientUnits="userSpaceOnUse"><stop offset="0" stop-color="#192647" stop-opacity="0.5"/><stop offset="1" stop-color="#192647" stop-opacity="0"/></linearGradient><linearGradient id="Degradado_sin_nombre_444" x1="480" y1="-1954" x2="241.36" y2="-1954" gradientTransform="matrix(1, 0, 0, -1, 0, -1654)" gradientUnits="userSpaceOnUse"><stop offset="0" stop-color="#072146"/><stop offset="1" stop-color="#072146" stop-opacity="0"/></linearGradient></defs><title>13</title><g id="Cuadrados_Blancos" data-name="Cuadrados Blancos"><rect class="cls-1" width="600" height="600"/></g><g id="Capa_6" data-name="Capa 6"><path class="cls-2" d="M518.33,356.27V252.83a23,23,0,0,0-23-23h-314a23,23,0,0,0-23,23v171a23,23,0,0,0,23,23h243.8a65,65,0,1,0,93.2-90.56Z"/><rect class="cls-3" x="120" y="191.5" width="360" height="217" rx="23"/><path class="cls-4" d="M457,408.5a23,23,0,0,0,23-23v-171a23,23,0,0,0-23-23H356.77l-115.41,217Z"/><rect class="cls-5" x="120" y="222.37" width="360" height="35.28"/><rect class="cls-6" x="172.94" y="325.58" width="254.12" height="31.76" rx="3"/><path class="cls-7" d="M499.15,364a65,65,0,1,1-65-65h0a65,65,0,0,1,65,65"/><path class="cls-6" d="M434.15,397.7a5.42,5.42,0,0,1-5.42-5.42V335.72a5.42,5.42,0,1,1,10.84,0v56.56a5.42,5.42,0,0,1-5.42,5.42Z"/><path class="cls-6" d="M462.44,369.42H405.86a5.42,5.42,0,0,1,0-10.84h56.58a5.42,5.42,0,0,1,0,10.84Z"/></g></svg>