<svg id="Capa_1" data-name="Capa 1" xmlns="http://www.w3.org/2000/svg" xmlns:xlink="http://www.w3.org/1999/xlink" viewBox="0 0 600 600"><defs><style>.cls-1{fill:none;}.cls-2{fill:url(#Degradado_sin_nombre_149);}.cls-3{fill:#043263;}.cls-4{fill:#49a5e6;}.cls-5{opacity:0.5;isolation:isolate;fill:url(#Degradado_sin_nombre_16);}.cls-6{fill:#08467f;}.cls-7{fill:#39cbcb;}.cls-8{fill:#2dcccd;}.cls-9{fill:#fff;}</style><linearGradient id="Degradado_sin_nombre_149" x1="222.26" y1="531.2" x2="484.6" y2="37.8" gradientTransform="matrix(1, 0, 0, -1, 0, 602)" gradientUnits="userSpaceOnUse"><stop offset="0" stop-color="#192647" stop-opacity="0.5"/><stop offset="1" stop-color="#192647" stop-opacity="0"/></linearGradient><linearGradient id="Degradado_sin_nombre_16" x1="216.06" y1="-92.99" x2="370.32" y2="-247.25" gradientTransform="matrix(1, 0, 0, -1, 0, 124)" gradientUnits="userSpaceOnUse"><stop offset="0" stop-color="#fff" stop-opacity="0.5"/><stop offset="1" stop-color="#ecf7f8" stop-opacity="0.1"/></linearGradient></defs><rect class="cls-1" y="1.23" width="600" height="600"/><rect class="cls-1" y="1.23" width="600" height="600"/><rect class="cls-1" x="0.1" y="1.23" width="600" height="600"/><rect class="cls-1" x="0.1" y="1.23" width="600" height="600"/><path class="cls-2" d="M467.94,235.84A65.08,65.08,0,1,0,381,146.52H260.94a23,23,0,0,0-23,23v29.17h0V502.33h0v29.19a23,23,0,0,0,23,23h184a23,23,0,0,0,23-23Z"/><path class="cls-3" d="M207.6,98.08H392.5a22.13,22.13,0,0,1,22.1,22.16v362a22.11,22.11,0,0,1-22.1,22.1H207.6a22.11,22.11,0,0,1-22.1-22.1v-362a22.13,22.13,0,0,1,22.06-22.2Z"/><rect class="cls-4" x="185.5" y="149.08" width="229.2" height="304.3"/><polygon class="cls-5" points="185.8 149.28 185.8 453.18 302.6 453.38 414.6 246.38 414.6 149.08 185.8 149.28"/><circle class="cls-6" cx="299.93" cy="301.26" r="61.08"/><path class="cls-7" d="M320.79,294.92h-.61v-9.28a19.8,19.8,0,0,0-39.59,0h0v9.28h-.15a3.76,3.76,0,0,0-3.71,3.71v14.69a23.3,23.3,0,0,0,23.19,23.35h0a23.3,23.3,0,0,0,23.19-23.35h0V297.39A2.22,2.22,0,0,0,320.79,294.92Zm-15.92,23.34a4.81,4.81,0,1,1-9.59.62v-3.55c0-3.1,1.7-5.72,3.87-6a3.73,3.73,0,1,1,4.48-2.79,3.67,3.67,0,0,1-2.78,2.79c2.16.15,3.86,2.93,3.86,6Zm8.5-23.34h-26v-9.28a13,13,0,0,1,26,0h0Z"/><path class="cls-8" d="M449.89,129a65,65,0,1,1-65-65,65,65,0,0,1,65,65"/><path class="cls-9" d="M385.14,162.84a5.45,5.45,0,0,1-5.44-5.45V100.52a5.45,5.45,0,1,1,10.89,0V157.4A5.44,5.44,0,0,1,385.14,162.84Z"/><path class="cls-9" d="M413.63,134.4H356.76a5.45,5.45,0,1,1,0-10.9h56.87a5.45,5.45,0,0,1,0,10.9Z"/></svg>