<svg xmlns="http://www.w3.org/2000/svg" xmlns:xlink="http://www.w3.org/1999/xlink" viewBox="0 0 600 600"><defs><style>.cls-1{fill:none;}.cls-2{fill:url(#Degradado_sin_nombre_227);}.cls-3{fill:#49a5e6;}.cls-4{fill:url(#Degradado_sin_nombre_9);}.cls-5{fill:#043263;opacity:0.6;isolation:isolate;}.cls-6{fill:#004481;}.cls-7{fill:url(#Degradado_sin_nombre_445);}.cls-8{fill:#072146;}.cls-9{fill:#fff;}</style><linearGradient id="Degradado_sin_nombre_227" x1="232.88" y1="-1831.12" x2="412.67" y2="-2169.27" gradientTransform="matrix(1, 0, 0, -1, 0, -1654)" gradientUnits="userSpaceOnUse"><stop offset="0" stop-color="#192647" stop-opacity="0.5"/><stop offset="1" stop-color="#192647" stop-opacity="0"/></linearGradient><linearGradient id="Degradado_sin_nombre_9" x1="496.55" y1="-1911.53" x2="261.82" y2="-1911.53" gradientTransform="matrix(1, 0, 0, -1, 0, -1654)" gradientUnits="userSpaceOnUse"><stop offset="0" stop-color="#043263" stop-opacity="0.5"/><stop offset="1" stop-color="#043263" stop-opacity="0"/></linearGradient><linearGradient id="Degradado_sin_nombre_445" x1="418" y1="-2000.76" x2="183.56" y2="-2000.76" gradientTransform="matrix(1, 0, 0, -1, 0, -1654)" gradientUnits="userSpaceOnUse"><stop offset="0" stop-color="#072146"/><stop offset="1" stop-color="#072146" stop-opacity="0"/></linearGradient></defs><title>13</title><g id="Cuadrados_Blancos" data-name="Cuadrados Blancos"><rect class="cls-1" width="600" height="600"/></g><g id="Capa_7" data-name="Capa 7"><path class="cls-2" d="M519,194.74H204.74a20,20,0,0,0-20,20v69.43H126.63a20,20,0,0,0-20,20V477.68a20,20,0,0,0,11.31,18c.45.21.91.41,1.37.59l.43.17a20,20,0,0,0,6.85,1.21H440.81a20,20,0,0,0,20-20V408.24H519a19.88,19.88,0,0,0,19.88-19.88h0V214.63A19.89,19.89,0,0,0,519,194.74Z"/><rect class="cls-3" x="142.45" y="150.78" width="354.1" height="213.5" rx="19.96"/><path class="cls-4" d="M476.66,364.28a19.91,19.91,0,0,0,19.89-19.89V170.66a19.89,19.89,0,0,0-19.89-19.88H375.34L261.82,364.28Z"/><rect class="cls-5" x="142.45" y="181.15" width="354.1" height="34.72"/><rect class="cls-6" x="64.34" y="240.17" width="354.1" height="213.5" rx="19.96"/><path class="cls-7" d="M395.41,453.35A22.6,22.6,0,0,0,418,430.75v-168a22.6,22.6,0,0,0-22.59-22.59H297L183.56,453.35Z"/><rect class="cls-8" x="64.34" y="270.1" width="353.66" height="34.66"/><rect class="cls-9" x="116.35" y="372.49" width="249.64" height="31.2" rx="2.95"/></g></svg>