<svg id="Capa_1" data-name="Capa 1" xmlns="http://www.w3.org/2000/svg" xmlns:xlink="http://www.w3.org/1999/xlink" viewBox="0 0 600 600"><defs><style>.cls-1{fill:url(#Degradado_sin_nombre_60);}.cls-2,.cls-6{fill:#00d0cf;}.cls-3{fill:#003267;}.cls-4{fill:#0065aa;}.cls-5{fill:url(#Degradado_sin_nombre_27);}.cls-6{opacity:0.19;}.cls-7{fill:#ffcc28;}.cls-8{fill-rule:evenodd;opacity:0.5;fill:url(#Degradado_sin_nombre_26);}.cls-9{fill:#2dcccd;}.cls-10{fill:#fff;}</style><linearGradient id="Degradado_sin_nombre_60" x1="260.5" y1="181.45" x2="439.9" y2="518.86" gradientUnits="userSpaceOnUse"><stop offset="0" stop-color="#142649" stop-opacity="0.5"/><stop offset="1" stop-color="#142649" stop-opacity="0"/></linearGradient><linearGradient id="Degradado_sin_nombre_27" x1="474.36" y1="315.6" x2="295.94" y2="315.6" gradientUnits="userSpaceOnUse"><stop offset="0" stop-color="#003267" stop-opacity="0.4"/><stop offset="1" stop-color="#003267" stop-opacity="0"/></linearGradient><linearGradient id="Degradado_sin_nombre_26" x1="288.71" y1="320.99" x2="299.89" y2="332.17" gradientUnits="userSpaceOnUse"><stop offset="0" stop-color="#fff" stop-opacity="0.7"/><stop offset="1" stop-color="#ebf6f7" stop-opacity="0.2"/><stop offset="1" stop-color="#fff" stop-opacity="0"/></linearGradient></defs><title>API_MARKET</title><path class="cls-1" d="M511.23,236.71H457.14a109.13,109.13,0,0,0-214.28,0H188.77a24.16,24.16,0,0,0-24.16,24.15V336.1a6,6,0,0,0,3.1,5.25l7.93,4.39V459.43a24.16,24.16,0,0,0,24.16,24.16H500.2a24.16,24.16,0,0,0,24.16-24.16V345.68l7.91-4.33a6,6,0,0,0,3.12-5.26V260.86A24.16,24.16,0,0,0,511.23,236.71Z"/><path class="cls-2" d="M270.59,172.34h58.82a23.11,23.11,0,0,1,23.11,23.11v0a0,0,0,0,1,0,0h-105a0,0,0,0,1,0,0v0A23.11,23.11,0,0,1,270.59,172.34Z"/><path class="cls-3" d="M482.27,291.35,299.12,391.66,117.71,291.35a6,6,0,0,1-3.1-5.25V210.86a24.16,24.16,0,0,1,24.16-24.15H461.23a24.16,24.16,0,0,1,24.16,24.15v75.23A6,6,0,0,1,482.27,291.35Z"/><path class="cls-4" d="M450.2,433.59H149.8a24.16,24.16,0,0,1-24.16-24.16V209.62a12,12,0,0,1,12-12H462.36a12,12,0,0,1,12,12V409.43A24.16,24.16,0,0,1,450.2,433.59Z"/><path class="cls-5" d="M462.36,197.62H423.63l-127.69,236H450.2a24.16,24.16,0,0,0,24.16-24.16V209.62A12,12,0,0,0,462.36,197.62Z"/><path class="cls-3" d="M444.51,283.35a6,6,0,0,1-6,5.37H161.46a6,6,0,0,1-6-5.37l-9.43-89.18H453.94Z"/><rect class="cls-6" x="247.48" y="200.33" width="26" height="7" rx="2.98"/><rect class="cls-6" x="326.52" y="200.33" width="26" height="7" rx="2.98"/><rect class="cls-7" x="287.92" y="312.84" width="24.16" height="36.52" rx="3.15"/><path class="cls-8" d="M287.92,316v29.2l17.62-32.35H291.07A3.15,3.15,0,0,0,287.92,316Z"/><path class="cls-9" d="M300,112.89A95.58,95.58,0,0,0,248.48,289h103A95.58,95.58,0,0,0,300,112.89Z"/><path class="cls-10" d="M390.08,240.45c-.14,0-10.22-1.22-34.45-9.37-6.87-2.44-16-5.76-26.17-9.54a131.81,131.81,0,0,0,14.19-35.93H310.16v-12.2h41v-6.66h-41V146.56H293.3a2.83,2.83,0,0,0-2.89,2.89v17.3H248.93v6.66h41.26v12.2H255.81v6.65h66.55a124.22,124.22,0,0,1-9.54,23.52c-21.52-7.1-44.59-12.87-59-9.32-9.09,2.22-15.08,6.43-18.63,10.65-16,19.52-4.44,49.24,29.5,49.24,20,0,39.27-11.31,54.35-29.5,16.84,8.17,46,20.6,59.38,26.27A95.36,95.36,0,0,0,390.08,240.45ZM262.46,253c-26.84,0-34.82-20.4-21.51-31.5,4.43-3.77,12.42-5.54,16.85-5.76,15.75-1.56,30.62,4.21,47.92,12.42C293.52,243.51,278,253,262.46,253Z"/></svg>