<svg xmlns="http://www.w3.org/2000/svg" xmlns:xlink="http://www.w3.org/1999/xlink" viewBox="0 0 600 600"><defs><style>.cls-1{fill:none;}.cls-2{fill:url(#Degradado_sin_nombre_85);}.cls-3,.cls-8{fill:#00d0cf;}.cls-4{fill:#072136;}.cls-5{fill:#004481;}.cls-6{fill:url(#Degradado_sin_nombre_87);}.cls-7{fill:#072146;}.cls-8{opacity:0.19;}.cls-10,.cls-8{isolation:isolate;}.cls-9{fill:#ffcc28;}.cls-10{opacity:0.5;fill:url(#Degradado_sin_nombre_3);}.cls-11{fill:#2dcccd;}.cls-12{fill:#fff;}</style><linearGradient id="Degradado_sin_nombre_85" x1="254.09" y1="-3993.84" x2="451.31" y2="-4364.77" gradientTransform="matrix(1, 0, 0, -1, 0, -3824)" gradientUnits="userSpaceOnUse"><stop offset="0" stop-color="#142649" stop-opacity="0.5"/><stop offset="1" stop-color="#142649" stop-opacity="0"/></linearGradient><linearGradient id="Degradado_sin_nombre_87" x1="489.2" y1="-4141.35" x2="293.05" y2="-4141.35" gradientTransform="matrix(1, 0, 0, -1, 0, -3824)" gradientUnits="userSpaceOnUse"><stop offset="0" stop-color="#072146" stop-opacity="0.8"/><stop offset="1" stop-color="#072146" stop-opacity="0"/></linearGradient><linearGradient id="Degradado_sin_nombre_3" x1="285.1" y1="-4147.26" x2="297.39" y2="-4159.55" gradientTransform="matrix(1, 0, 0, -1, 0, -3824)" gradientUnits="userSpaceOnUse"><stop offset="0" stop-color="#fff" stop-opacity="0.7"/><stop offset="1" stop-color="#ebf6f7" stop-opacity="0.2"/><stop offset="1" stop-color="#fff" stop-opacity="0"/></linearGradient></defs><title>9</title><g id="Cuadrados_Blancos" data-name="Cuadrados Blancos"><rect class="cls-1" width="600" height="600"/></g><g id="Capa_1" data-name="Capa 1"><path class="cls-2" d="M529.73,230.6H470.26a120,120,0,0,0-235.56,0H175.24a26.56,26.56,0,0,0-26.56,26.55v82.71a6.6,6.6,0,0,0,3.41,5.77l8.71,4.83v125A26.56,26.56,0,0,0,187.36,502H517.6a26.56,26.56,0,0,0,26.56-26.56v-125l8.7-4.76a6.59,6.59,0,0,0,3.43-5.78v-82.7A26.56,26.56,0,0,0,529.73,230.6Z"/><path class="cls-3" d="M265.19,159.83h64.66a25.41,25.41,0,0,1,25.4,25.41H239.82A25.42,25.42,0,0,1,265.19,159.83Z"/><path class="cls-4" d="M497.89,290.67,296.55,400.94,97.12,290.67a6.61,6.61,0,0,1-3.41-5.78V202.18a26.57,26.57,0,0,1,26.56-26.55H474.76a26.56,26.56,0,0,1,26.56,26.55v82.7A6.62,6.62,0,0,1,497.89,290.67Z"/><path class="cls-5" d="M462.64,447H132.4a26.56,26.56,0,0,1-26.56-26.56h0V200.82A13.18,13.18,0,0,1,119,187.63H476a13.19,13.19,0,0,1,13.2,13.19V420.47A26.56,26.56,0,0,1,462.64,447Z"/><path class="cls-6" d="M476,187.63H433.43L293.05,447.07H462.64a26.56,26.56,0,0,0,26.56-26.56h0V200.82A13.19,13.19,0,0,0,476,187.63Z"/><path class="cls-7" d="M456.38,281.87a6.6,6.6,0,0,1-6.6,5.9H145.22a6.6,6.6,0,0,1-6.6-5.9l-10.37-98h338.5Z"/><rect class="cls-8" x="239.78" y="190.61" width="28.58" height="7.7" rx="3.28"/><rect class="cls-8" x="326.67" y="190.61" width="28.58" height="7.7" rx="3.28"/><rect class="cls-9" x="284.24" y="314.29" width="26.56" height="40.15" rx="3.46"/><path class="cls-10" d="M284.24,317.76v32.1l19.37-35.56H287.7A3.46,3.46,0,0,0,284.24,317.76Z"/><path class="cls-11" d="M297.52,94.48a105.07,105.07,0,0,0-56.64,193.6H354.11a105.07,105.07,0,0,0-56.59-193.6Z"/><path class="cls-12" d="M396.54,234.71c-.15,0-11.23-1.34-37.87-10.3-7.55-2.68-17.59-6.33-28.77-10.49a144.93,144.93,0,0,0,15.6-39.5H308.69V161h45.07v-7.32H308.69v-22.2H290.15a3.12,3.12,0,0,0-3.18,3v19.15h-45.6V161h45.36v13.41H248.94v7.31H322.1a136.87,136.87,0,0,1-10.49,25.86c-23.66-7.81-49-14.15-64.86-10.25-10,2.44-16.58,7.07-20.48,11.71-17.59,21.46-4.88,54.13,32.43,54.13,22,0,43.17-12.43,59.75-32.43,18.51,9,50.57,22.65,65.28,28.88A104.77,104.77,0,0,0,396.54,234.71Zm-140.29,13.8c-29.51,0-38.28-22.43-23.65-34.63,4.87-4.15,13.66-6.09,18.53-6.33,17.31-1.72,33.66,4.62,52.67,13.65C290.39,238.07,273.33,248.51,256.25,248.51Z"/></g></svg>