<svg id="fac997dd-c7a4-464e-81c1-4d8f0e852872" data-name="Contenido" xmlns="http://www.w3.org/2000/svg" xmlns:xlink="http://www.w3.org/1999/xlink" viewBox="0 0 600 600"><defs><style>.f8448c98-e2b1-4c9f-a49d-cb87865d6388{fill:url(#a8cf1b83-5e96-41c5-94e6-b508d8d35ad7);}.ae88d8c7-d581-41f3-94fa-f4c877c842eb{fill:#d4edfc;}.b3b36a5b-508d-4be5-a166-a75718598626{fill:#bde5ff;}.bd4d4002-43f5-47c7-bd29-d8c92595158c{fill:#00a5a5;}.a32c0f77-c839-48b7-ae33-bd4040f74d1e{fill:#043263;}.a2950d68-600e-4711-8464-d6978d240421{fill:#49a5e6;}.a6a15925-09f4-482b-87f2-f49ed4e07989{fill:#004481;}.f6b89bfb-9ecc-435d-9d9a-46f70f572beb{fill:#f8cd51;}.bbc4e3dd-b50c-4708-bb17-db77ffbf3c4b{fill:url(#b6354f15-1527-4c9c-90f1-e686b0b4c961);}.b4765309-27fe-43e7-8ac3-0b3280c881d5{fill:url(#eb0ceb5b-9bf2-485a-937a-0683595daf07);}.eac9a046-1152-4521-8b74-ae89a2abb080{fill:url(#a77b9dc2-5cd7-4f4d-b910-34d80c3095a5);}.a3b685e5-80e8-46f8-838b-8ada7492b2eb{fill:#2dcccd;}.ed9073f1-a004-4ad0-b80b-bdbf7adf9cec{fill:none;}</style><linearGradient id="a8cf1b83-5e96-41c5-94e6-b508d8d35ad7" x1="286.57" y1="204.2" x2="459.15" y2="528.78" gradientUnits="userSpaceOnUse"><stop offset="0" stop-color="#082146" stop-opacity="0.5"/><stop offset="1" stop-color="#082146" stop-opacity="0"/></linearGradient><linearGradient id="b6354f15-1527-4c9c-90f1-e686b0b4c961" x1="107.32" y1="253.26" x2="200.7" y2="253.26" gradientUnits="userSpaceOnUse"><stop offset="0.01" stop-color="#fff" stop-opacity="0.5"/><stop offset="1" stop-color="#fff" stop-opacity="0"/><stop offset="1" stop-color="#e9f8f9" stop-opacity="0.2"/></linearGradient><linearGradient id="eb0ceb5b-9bf2-485a-937a-0683595daf07" x1="191.19" y1="174.53" x2="207.46" y2="174.53" xlink:href="#b6354f15-1527-4c9c-90f1-e686b0b4c961"/><linearGradient id="a77b9dc2-5cd7-4f4d-b910-34d80c3095a5" x1="312.67" y1="272.99" x2="532.43" y2="272.99" gradientUnits="userSpaceOnUse"><stop offset="0" stop-color="#043263" stop-opacity="0"/><stop offset="1" stop-color="#043263" stop-opacity="0.1"/></linearGradient></defs><path class="f8448c98-e2b1-4c9f-a49d-cb87865d6388" d="M590.87,400.27V212.53a14,14,0,0,0-14-14H312.73a14,14,0,0,0-14,14v38H278.84V247a3.51,3.51,0,0,0-3.51-3.51H273V226a3.51,3.51,0,0,0-3.51-3.51H253.13a3.51,3.51,0,0,0-3.51,3.51v17.53h-2.33a3.51,3.51,0,0,0-3.51,3.51v3.5h-11a14,14,0,0,0-12.26,7.22l-54.77,98.62h0l-40.18,19.11a14,14,0,0,0-8,12.66v12.17a3.51,3.51,0,0,0-3.51,3.51v25.71a3.51,3.51,0,0,0,3.51,3.5v17.33a14,14,0,0,0,14,14h40.93a46.73,46.73,0,0,0,93.43,0h19.9v8.19a3.51,3.51,0,0,0,3.51,3.51H410.9a3.51,3.51,0,0,0,3.5-3.51v-8.19h19.9a46.73,46.73,0,0,0,93.43,0h49.11a14,14,0,0,0,14-14V433a3.5,3.5,0,0,0,3.5-3.5V403.78A3.51,3.51,0,0,0,590.87,400.27Z"/><path class="ae88d8c7-d581-41f3-94fa-f4c877c842eb" d="M254.3,140.07H518.41a14,14,0,0,1,14,14v237.8a14,14,0,0,1-14,14H240.27a0,0,0,0,1,0,0V154.09A14,14,0,0,1,254.3,140.07Z"/><path class="b3b36a5b-508d-4be5-a166-a75718598626" d="M240.27,192.06H174.34a14,14,0,0,0-12.26,7.22l-54.76,98.61L67.13,317a14,14,0,0,0-8,12.66v62.22a14,14,0,0,0,14,14H240.27Z"/><path class="bd4d4002-43f5-47c7-bd29-d8c92595158c" d="M59.13,341.84H240.27a0,0,0,0,1,0,0v32.72a0,0,0,0,1,0,0H59.13a3.51,3.51,0,0,1-3.51-3.51V345.35A3.51,3.51,0,0,1,59.13,341.84Z"/><path class="a32c0f77-c839-48b7-ae33-bd4040f74d1e" d="M114.06,404.75a46.75,46.75,0,1,1,46.75,46.75h0A46.8,46.8,0,0,1,114.06,404.75Z"/><circle class="ae88d8c7-d581-41f3-94fa-f4c877c842eb" cx="160.81" cy="404.75" r="26.29"/><path class="a2950d68-600e-4711-8464-d6978d240421" d="M107.32,297.89H209.69a14,14,0,0,0,14-14V222.65a14,14,0,0,0-14-14H156.91Z"/><path class="a6a15925-09f4-482b-87f2-f49ed4e07989" d="M188.85,185h28a3.51,3.51,0,0,1,3.51,3.51v3.51a0,0,0,0,1,0,0H185.35a0,0,0,0,1,0,0v-3.51A3.51,3.51,0,0,1,188.85,185Z"/><path class="a6a15925-09f4-482b-87f2-f49ed4e07989" d="M230.92,405.92H352.46a3.51,3.51,0,0,1,3.51,3.51v8.18a0,0,0,0,1,0,0H227.42a0,0,0,0,1,0,0v-8.18A3.51,3.51,0,0,1,230.92,405.92Z" transform="translate(583.39 823.53) rotate(180)"/><path class="f6b89bfb-9ecc-435d-9d9a-46f70f572beb" d="M194.7,164h16.36a3.51,3.51,0,0,1,3.51,3.51V185a0,0,0,0,1,0,0H191.19a0,0,0,0,1,0,0V167.52A3.51,3.51,0,0,1,194.7,164Z"/><polygon class="bbc4e3dd-b50c-4708-bb17-db77ffbf3c4b" points="156.91 208.62 107.32 297.89 107.32 297.89 151.22 297.89 200.7 208.62 156.91 208.62"/><path class="b4765309-27fe-43e7-8ac3-0b3280c881d5" d="M194.7,164a3.51,3.51,0,0,0-3.51,3.51v17.53h4.61l11.66-21Z"/><path class="eac9a046-1152-4521-8b74-ae89a2abb080" d="M518.41,140.07H460L312.67,405.91H518.41a14,14,0,0,0,14-14V154.09A14,14,0,0,0,518.41,140.07Z"/><path class="a3b685e5-80e8-46f8-838b-8ada7492b2eb" d="M430.76,230.12H402.71V202.07a3.5,3.5,0,0,0-3.5-3.5H373.5a3.51,3.51,0,0,0-3.51,3.5v28.05H342a3.51,3.51,0,0,0-3.51,3.51v25.71a3.51,3.51,0,0,0,3.51,3.5h28v28.05a3.51,3.51,0,0,0,3.51,3.51h25.71a3.51,3.51,0,0,0,3.5-3.51V262.84h28.05a3.51,3.51,0,0,0,3.51-3.5V233.63A3.51,3.51,0,0,0,430.76,230.12Z"/><path class="a3b685e5-80e8-46f8-838b-8ada7492b2eb" d="M240.27,341.84H532.43a3.51,3.51,0,0,1,3.51,3.51v25.71a3.51,3.51,0,0,1-3.51,3.51H240.27a0,0,0,0,1,0,0V341.84A0,0,0,0,1,240.27,341.84Z"/><path class="a32c0f77-c839-48b7-ae33-bd4040f74d1e" d="M375.84,404.75a46.75,46.75,0,1,1,46.74,46.75h0A46.79,46.79,0,0,1,375.84,404.75Z"/><circle class="ae88d8c7-d581-41f3-94fa-f4c877c842eb" cx="422.58" cy="404.75" r="26.29"/><rect class="ed9073f1-a004-4ad0-b80b-bdbf7adf9cec" width="600" height="600"/></svg>