<svg xmlns="http://www.w3.org/2000/svg" xmlns:xlink="http://www.w3.org/1999/xlink" viewBox="0 0 600 600"><defs><style>.cls-1{fill:none;}.cls-2{fill:url(#Degradado_sin_nombre_371);}.cls-3{fill:#1464a5;}.cls-4{fill:url(#Degradado_sin_nombre_108);}.cls-5{fill:#f8cd50;}.cls-6{fill:url(#Degradado_sin_nombre_50);}.cls-7{fill:#fef5dc;}</style><linearGradient id="Degradado_sin_nombre_371" x1="236.04" y1="-8242.12" x2="451.94" y2="-8648.17" gradientTransform="matrix(1, 0, 0, -1, 0, -8106)" gradientUnits="userSpaceOnUse"><stop offset="0" stop-color="#192647" stop-opacity="0.5"/><stop offset="1" stop-color="#192647" stop-opacity="0"/></linearGradient><linearGradient id="Degradado_sin_nombre_108" x1="504.37" y1="311.05" x2="208.75" y2="311.05" gradientTransform="translate(0 2)" gradientUnits="userSpaceOnUse"><stop offset="0" stop-color="#043263" stop-opacity="0.6"/><stop offset="1" stop-color="#043263" stop-opacity="0"/></linearGradient><linearGradient id="Degradado_sin_nombre_50" x1="363.91" y1="-8624.09" x2="438.53" y2="-8663.77" gradientTransform="matrix(1, 0, 0, -1, 0, -8506)" gradientUnits="userSpaceOnUse"><stop offset="0" stop-color="#fade8e"/><stop offset="1" stop-color="#fade8e" stop-opacity="0.4"/></linearGradient></defs><title>11</title><g id="Cuadrados_Blancos" data-name="Cuadrados Blancos"><rect class="cls-1" width="600" height="600"/></g><g id="Capa_102" data-name="Capa 102"><circle class="cls-2" cx="348.76" cy="348.11" r="201.24"/><circle class="cls-3" cx="301.54" cy="300.89" r="201.24"/><path class="cls-4" d="M397.73,124l-189,355.51c98.68,51.23,220.25,12.63,271.36-86C530.64,296.18,493.93,176.38,397.73,124Z"/><path class="cls-5" d="M527.8,157.85a90,90,0,1,1-90-90h0a89.89,89.89,0,0,1,90,90"/><path class="cls-6" d="M480.88,78.31a90,90,0,1,0-86,158.21,13,13,0,0,1,1.37.75Z"/><path class="cls-7" d="M448.44,175.65c0-6-2.36-8.34-13.57-13.44-16.18-7.35-21-13-21-24.28,0-11.08,9.08-19.17,18.3-21.53V102.7h.49L446,108.56v7.59a33.9,33.9,0,0,1,11.95,4.11l.63.37.49.25-.12.5-.12.74L457,132.58l-.37,2-.25,1.37-1.12-.75L453.67,134a24,24,0,0,0-14.94-5.23c-7,0-10.7,3.11-10.7,8.34,0,5,2.49,7.22,13.44,12.32,16.31,7.35,21.41,13.32,21.41,25.4,0,11.2-7.84,19.54-17.05,22.41V213h-1.12L432,205.9v-7.72c-4.6-.62-12.82-2.36-18.05-5.1l-.75-.38-.49-.24V192l.12-.87,1.5-10.71.24-1.87.13-1.24,1,.75,1.5,1a36.17,36.17,0,0,0,19.17,6.23c7.34,0,12.07-3.61,12.07-9.59"/></g></svg>