<svg xmlns="http://www.w3.org/2000/svg" xmlns:xlink="http://www.w3.org/1999/xlink" viewBox="0 0 600 600"><defs><style>.cls-1{fill:none;}.cls-2{fill:url(#Degradado_sin_nombre_370);}.cls-3{fill:#1464a5;}.cls-4{fill:url(#Degradado_sin_nombre_108);}.cls-5{fill:#f8cd50;}.cls-6{fill:url(#Degradado_sin_nombre_50);}.cls-7{fill:#fef5dc;}</style><linearGradient id="Degradado_sin_nombre_370" x1="236.04" y1="-8242.12" x2="451.94" y2="-8648.17" gradientTransform="matrix(1, 0, 0, -1, 0, -8106)" gradientUnits="userSpaceOnUse"><stop offset="0" stop-color="#192647" stop-opacity="0.5"/><stop offset="1" stop-color="#192647" stop-opacity="0"/></linearGradient><linearGradient id="Degradado_sin_nombre_108" x1="504.37" y1="311.05" x2="208.75" y2="311.05" gradientTransform="translate(0 2)" gradientUnits="userSpaceOnUse"><stop offset="0" stop-color="#043263" stop-opacity="0.6"/><stop offset="1" stop-color="#043263" stop-opacity="0"/></linearGradient><linearGradient id="Degradado_sin_nombre_50" x1="363.91" y1="-8624.09" x2="438.53" y2="-8663.77" gradientTransform="matrix(1, 0, 0, -1, 0, -8506)" gradientUnits="userSpaceOnUse"><stop offset="0" stop-color="#fade8e"/><stop offset="1" stop-color="#fade8e" stop-opacity="0.4"/></linearGradient></defs><title>11</title><g id="Cuadrados_Blancos" data-name="Cuadrados Blancos"><rect class="cls-1" width="600" height="600"/></g><g id="Capa_103" data-name="Capa 103"><circle class="cls-2" cx="348.76" cy="348.11" r="201.24"/><circle class="cls-3" cx="301.54" cy="300.89" r="201.24"/><path class="cls-4" d="M397.73,124l-189,355.51c98.68,51.23,220.25,12.63,271.36-86C530.64,296.18,493.93,176.38,397.73,124Z"/><path class="cls-5" d="M527.8,157.85a90,90,0,1,1-90-90h0a89.89,89.89,0,0,1,90,90"/><path class="cls-6" d="M480.88,78.31a90,90,0,1,0-86,158.21,13,13,0,0,1,1.37.75Z"/><path class="cls-7" d="M406.83,154.86H394.58v-9.24h13.35c3.72-20.81,16.67-30.31,31.67-30.31,15.84,0,24.23,8.13,28.36,18.32l-11.66,6.62c-2.89-8.68-8-12.82-16.67-12.82-9.22,0-15.82,5.93-18.17,18.19h20.79v9.24H420.49v2.89c0,1.66,0,3.31.15,4.82h21.75v9.37H421.75c2.33,11.44,8.08,17.37,18.17,17.37,8.68,0,13.91-3.86,17.05-13.51l11.42,6.89c-4.67,10.77-14.35,18.47-28.63,18.47-15.56,0-27.82-9.23-31.68-29.22H394.62v-9.37H407c-.15-1.51-.15-3-.15-4.55v-3.16Z"/></g></svg>