<svg xmlns="http://www.w3.org/2000/svg" xmlns:xlink="http://www.w3.org/1999/xlink" viewBox="0 0 600 600"><defs><style>.cls-1{fill:none;}.cls-2{fill:url(#Degradado_sin_nombre_120);}.cls-3{fill:#d4edfc;}.cls-4{fill:url(#Degradado_sin_nombre_10);}.cls-5{fill:#49a5e6;}.cls-6{fill:#4aa3e3;opacity:0.35;}.cls-10,.cls-13,.cls-6{isolation:isolate;}.cls-7{fill:#043263;}.cls-8{fill:#65a4e0;}.cls-13,.cls-9{fill:#1464a5;}.cls-10{opacity:0.5;fill:url(#Degradado_sin_nombre_51);}.cls-11{fill:#2dcccd;}.cls-12{clip-path:url(#clip-path);}.cls-13{opacity:0.7;}.cls-14{fill:url(#Degradado_sin_nombre_48);}</style><linearGradient id="Degradado_sin_nombre_120" x1="170.8" y1="1701.54" x2="407.88" y2="1255.67" gradientTransform="matrix(1, 0, 0, -1, 0, 1822)" gradientUnits="userSpaceOnUse"><stop offset="0" stop-color="#1c2645" stop-opacity="0.5"/><stop offset="1" stop-color="#1c2645" stop-opacity="0"/></linearGradient><linearGradient id="Degradado_sin_nombre_10" x1="465.1" y1="1539.08" x2="226.49" y2="1539.08" gradientTransform="matrix(1, 0, 0, -1, 0, 1822)" gradientUnits="userSpaceOnUse"><stop offset="0" stop-color="#043263" stop-opacity="0.1"/><stop offset="1" stop-color="#043263" stop-opacity="0"/></linearGradient><linearGradient id="Degradado_sin_nombre_51" x1="170.65" y1="1589.07" x2="264.21" y2="1495.51" gradientTransform="matrix(1, 0, 0, -1, 0, 1822)" gradientUnits="userSpaceOnUse"><stop offset="0" stop-color="#fff" stop-opacity="0.8"/><stop offset="1" stop-color="#fff" stop-opacity="0"/></linearGradient><clipPath id="clip-path"><path class="cls-1" d="M236,216a80,80,0,1,0,80,80A80,80,0,0,0,236,216Z"/></clipPath><linearGradient id="Degradado_sin_nombre_48" x1="339.18" y1="1518.37" x2="186.14" y2="1518.37" gradientTransform="matrix(1, 0, 0, -1, 0, 1822)" gradientUnits="userSpaceOnUse"><stop offset="0" stop-color="#043263" stop-opacity="0.7"/><stop offset="1" stop-color="#043263" stop-opacity="0"/></linearGradient></defs><g id="Cuadrados_Blancos" data-name="Cuadrados Blancos"><rect class="cls-1" width="600" height="600"/></g><g id="Capa_37" data-name="Capa 37"><path class="cls-2" d="M421.77,169.44H257.87a2.77,2.77,0,0,0-2.77,2.77h0v82.85a102,102,0,0,0-43.3,179.1L150.65,540.08a2.44,2.44,0,0,0-3.29.92l-8.12,14.07a2.42,2.42,0,0,0,.87,3.32l0,0,26.23,15.15a2.45,2.45,0,0,0,3.35-.89h0l8.12-14.07a2.43,2.43,0,0,0-.85-3.31l61-105.68,1.43.57.58.22c.83.31,1.67.62,2.51.91l.4.14,3,1,.2.06c.9.27,1.8.53,2.71.78l.71.2c.8.21,1.6.42,2.41.61.21,0,.41.11.62.15.84.2,1.68.39,2.53.57V495a2.55,2.55,0,0,0,2.55,2.55h8.84l231.81.85h4.25a2.56,2.56,0,0,0,2.56-2.5V252.75Z"/><path class="cls-3" d="M465.1,194.08l-83.33-83.31H217.87a2.77,2.77,0,0,0-2.77,2.77h0V436.37a2.55,2.55,0,0,0,2.55,2.55h244.9a2.55,2.55,0,0,0,2.55-2.55Z"/><path class="cls-4" d="M396.22,126.07,226.49,438.92l231.81.85h4.25a2.55,2.55,0,0,0,2.55-2.5V194.93Z"/><path class="cls-5" d="M384.89,194.08H465.1l-83.33-83.31V191A3.11,3.11,0,0,0,384.89,194.08Z"/><path class="cls-6" d="M428.44,228.44H261.11a5,5,0,1,1,0-9.91H428.44a5,5,0,0,1,0,9.91Z"/><path class="cls-6" d="M428.44,259H261.11a5,5,0,0,1,0-9.91H428.44a5,5,0,0,1,0,9.91Z"/><path class="cls-6" d="M428.44,289.52H261.11a5,5,0,0,1,0-9.91H428.44a5,5,0,0,1,0,9.91Z"/><path class="cls-6" d="M428.44,350.6H261.11a5,5,0,1,1,0-9.9H428.44a5,5,0,0,1,1.41,9.9A4.76,4.76,0,0,1,428.44,350.6Z"/><path class="cls-6" d="M428.44,381.14H334.32a5,5,0,0,1,0-9.91h94.12a5,5,0,0,1,0,9.91Z"/><path class="cls-7" d="M101.78,496.79l74.54-129.1h0l26.34,15.21h0L128.12,512a2.45,2.45,0,0,1-3.35.9h0l-22.1-12.77a2.43,2.43,0,0,1-.9-3.34h0Z"/><path class="cls-8" d="M316,296.27a80,80,0,1,1-80-80,80,80,0,0,1,80,80"/><path class="cls-9" d="M236,398.27a102,102,0,1,1,102-102A102,102,0,0,1,236,398.27Zm0-182a80,80,0,1,0,80,80A80,80,0,0,0,236,216.27Z"/><path class="cls-10" d="M275.8,226.93a79.94,79.94,0,1,0-79.91,138.48h0Z"/><rect class="cls-11" x="107.96" y="480.57" width="21.14" height="35.2" rx="2.45" transform="translate(-372.16 351.74) rotate(-60)"/><g class="cls-12"><path class="cls-13" d="M408.2,253.46H192.55a6.44,6.44,0,0,1-1.73-12.77,6.27,6.27,0,0,1,1.73,0H408.2a6.44,6.44,0,0,1,0,12.77Z"/><path class="cls-13" d="M408.2,292.84H192.55a6.45,6.45,0,0,1,0-12.78H408.2a6.45,6.45,0,0,1,0,12.78Z"/><path class="cls-13" d="M408.2,332.18H192.55a6.44,6.44,0,0,1,0-12.77H408.2a6.44,6.44,0,0,1,0,12.77Z"/><path class="cls-13" d="M408.2,410.91H192.55a6.38,6.38,0,0,1,0-12.76H408.2A6.44,6.44,0,1,1,410,410.91,6.93,6.93,0,0,1,408.2,410.91Z"/><path class="cls-13" d="M408.2,450.27H286.9a6.45,6.45,0,0,1,0-12.78H408.2a6.45,6.45,0,0,1,0,12.78Z"/></g><path class="cls-14" d="M324.91,345.84A102,102,0,0,0,288.57,209l-11,18.93A80,80,0,0,1,197.3,366.27l0,.05-11,19a101.43,101.43,0,0,0,49.26,13h2A102,102,0,0,0,324.91,345.84Z"/></g></svg>