<svg xmlns="http://www.w3.org/2000/svg" xmlns:xlink="http://www.w3.org/1999/xlink" viewBox="0 0 600 600"><defs><style>.cls-1{fill:none;}.cls-2{fill:url(#Degradado_sin_nombre_43);}.cls-3{fill:#1464a5;}.cls-4{fill:#49a5e6;}.cls-5{opacity:0.5;isolation:isolate;fill:url(#Degradado_sin_nombre_42);}.cls-6{fill:#08467f;}.cls-7{fill:#2dcccd;}</style><linearGradient id="Degradado_sin_nombre_43" x1="247.53" y1="-3851.15" x2="459.13" y2="-4249.1" gradientTransform="matrix(1, 0, 0, -1, 0, -3699.17)" gradientUnits="userSpaceOnUse"><stop offset="0" stop-color="#192647" stop-opacity="0.5"/><stop offset="1" stop-color="#192647" stop-opacity="0"/></linearGradient><linearGradient id="Degradado_sin_nombre_42" x1="216.01" y1="71.21" x2="370.27" y2="225.47" gradientTransform="translate(0 144.55)" gradientUnits="userSpaceOnUse"><stop offset="0" stop-color="#fff" stop-opacity="0.5"/><stop offset="1" stop-color="#ecf7f8" stop-opacity="0.1"/></linearGradient></defs><g id="Capa_36" data-name="Capa 36"><rect class="cls-1" width="600" height="600"/><g id="Capa_16" data-name="Capa 16"><path class="cls-2" d="M260.89,147.85h184.9A22.13,22.13,0,0,1,467.89,170V532a22.12,22.12,0,0,1-22.1,22.1H260.89a22.12,22.12,0,0,1-22.1-22.1V170a22.14,22.14,0,0,1,22.06-22.2Z"/><path class="cls-3" d="M207.55,96.85h184.9A22.13,22.13,0,0,1,414.55,119V481a22.12,22.12,0,0,1-22.1,22.1H207.55a22.12,22.12,0,0,1-22.1-22.1V119a22.13,22.13,0,0,1,22.06-22.2h0Z"/><rect class="cls-4" x="185.45" y="147.85" width="229.2" height="304.3"/><polygon class="cls-5" points="185.75 148.05 185.75 451.95 302.55 452.15 414.55 245.15 414.55 147.85 185.75 148.05"/><circle class="cls-6" cx="299.88" cy="300.02" r="61.08"/><path class="cls-7" d="M280.39,314.54a3.48,3.48,0,0,0,3.48,3.48h5.23v11a3.48,3.48,0,0,0,3.48,3.48h1.74a3.48,3.48,0,0,0,3.49-3.47h0V318h5.8v11a3.48,3.48,0,0,0,3.48,3.48h1.75a3.48,3.48,0,0,0,3.49-3.47h0V318h5.22a3.48,3.48,0,0,0,3.49-3.47h0V286.08H280.39Z"/><path class="cls-7" d="M329.17,286.08h-1.75a3.48,3.48,0,0,0-3.48,3.48h0v19.16a3.48,3.48,0,0,0,3.48,3.48h1.75a3.48,3.48,0,0,0,3.48-3.48h0V289.57a3.48,3.48,0,0,0-3.47-3.49Z"/><path class="cls-7" d="M274,286.08h-1.75a3.48,3.48,0,0,0-3.48,3.48h0v19.16a3.48,3.48,0,0,0,3.48,3.48H274a3.48,3.48,0,0,0,3.48-3.48h0V289.57a3.48,3.48,0,0,0-3.47-3.49Z"/><path class="cls-7" d="M312.35,269.65,315,265a1.45,1.45,0,0,0-2.5-1.45l-2.67,4.62a20.52,20.52,0,0,0-18.3,0l-2.67-4.62A1.45,1.45,0,0,0,286.4,265l2.67,4.62a20.29,20.29,0,0,0-8.71,13.53h40.73A20.38,20.38,0,0,0,312.35,269.65Zm-21.8,7.72a1.45,1.45,0,1,1,1.45-1.45,1.45,1.45,0,0,1-1.45,1.45Zm20.32,0a1.45,1.45,0,1,1,1.46-1.45,1.45,1.45,0,0,1-1.46,1.45Z"/></g></g></svg>