<svg id="Contenido" xmlns="http://www.w3.org/2000/svg" xmlns:xlink="http://www.w3.org/1999/xlink" viewBox="0 0 600 600"><defs><style>.cls-1{fill:none;}.cls-2{fill:url(#Degradado_sin_nombre_39);}.cls-3{fill:#f8cd50;}.cls-4{fill:url(#Degradado_sin_nombre_5);}.cls-5{fill:#043263;}.cls-6{fill:#d4edfc;}.cls-7{fill:#eaf9fa;}.cls-8{clip-path:url(#clip-path);}.cls-9{fill:#49a5e6;}.cls-10{clip-path:url(#clip-path-2);}</style><linearGradient id="Degradado_sin_nombre_39" x1="269.07" y1="199.9" x2="430.6" y2="503.69" gradientUnits="userSpaceOnUse"><stop offset="0" stop-color="#192647" stop-opacity="0.5"/><stop offset="1" stop-color="#192647" stop-opacity="0"/></linearGradient><linearGradient id="Degradado_sin_nombre_5" x1="148.17" y1="219.21" x2="301.2" y2="300.58" gradientUnits="userSpaceOnUse"><stop offset="0" stop-color="#fff" stop-opacity="0.6"/><stop offset="1" stop-color="#fff" stop-opacity="0.2"/></linearGradient><clipPath id="clip-path"><path class="cls-1" d="M447.35,418.06a1.05,1.05,0,0,1-.86-1.15c.07-.73.11-1.47.11-2.22A23.51,23.51,0,0,0,416.79,392a1,1,0,0,1-1.3-.79,21.92,21.92,0,0,0-43.1.43,1,1,0,0,1-1.48.76,19,19,0,0,0-25.63,24.84,1.06,1.06,0,0,1-1,1.5h0a15.11,15.11,0,0,0,0,30.22,15.31,15.31,0,0,0,3.67-.47c0,.39,0,.77,0,1.16a27.41,27.41,0,0,0,48.46,17.54,1,1,0,0,1,1.55-.07,23.51,23.51,0,0,0,40.89-15.85v-.05a1.06,1.06,0,0,1,1.35-1,16.27,16.27,0,0,0,8.34.19,16.51,16.51,0,0,0-1.17-32.35Zm-88.94,10.07-.12.09a.93.93,0,0,0,0-.13Z"/></clipPath><clipPath id="clip-path-2"><path class="cls-1" d="M161.94,436.26a16.54,16.54,0,0,0,12.58,14.15,16.24,16.24,0,0,0,8.33-.19,1.05,1.05,0,0,1,1.35,1v.05a23.51,23.51,0,0,0,40.89,15.85,1,1,0,0,1,1.56.07,27.41,27.41,0,0,0,48.46-17.54c0-.39,0-.77,0-1.16a15.29,15.29,0,0,0,3.66.47,15.11,15.11,0,0,0,0-30.22h0a1.06,1.06,0,0,1-1-1.5,19,19,0,0,0-25.62-24.84,1,1,0,0,1-1.49-.76,21.91,21.91,0,0,0-43.09-.43,1,1,0,0,1-1.3.79,23.51,23.51,0,0,0-29.81,22.66c0,.75,0,1.49.1,2.22a1,1,0,0,1-.85,1.15A16.52,16.52,0,0,0,161.94,436.26Zm102.85-8.17c0,.05,0,.09-.05.13l-.11-.09Z"/></clipPath></defs><path class="cls-2" d="M521.84,351.69A172,172,0,1,1,349.73,179.8,172,172,0,0,1,521.84,351.69"/><path class="cls-3" d="M472,300c0,95.09-77.12,172-171.87,172S128,394.82,128,300s77.12-172,171.87-172h0c95,0,172.13,76.91,172.13,172"/><path class="cls-4" d="M299.87,128C205.12,128,128,205.18,128,300c0,66.1,37.6,123.62,92.47,152.41L381,148.27A171.5,171.5,0,0,0,299.87,128Z"/><path class="cls-5" d="M325.19,210.6A25.9,25.9,0,0,1,338.67,207a1.8,1.8,0,0,0,1.37-3A16.77,16.77,0,0,0,312,220.13a1.8,1.8,0,0,0,3.32.33A26,26,0,0,1,325.19,210.6Z"/><path class="cls-5" d="M275.07,210.6a25.93,25.93,0,0,1,9.87,9.86,1.8,1.8,0,0,0,3.32-.33,16.77,16.77,0,0,0-28.05-16.2,1.8,1.8,0,0,0,1.37,3A26,26,0,0,1,275.07,210.6Z"/><circle class="cls-5" cx="253.87" cy="244.87" r="22"/><circle class="cls-5" cx="346.13" cy="244.87" r="22"/><path class="cls-5" d="M300,336c18.6,0,35.91,2.55,50.43,6.93a10,10,0,0,0,13-9.56h0c0-25.26-28.41-45.73-63.44-45.73s-63.44,20.47-63.44,45.73h0a10,10,0,0,0,13,9.56C264.09,338.53,281.4,336,300,336Z"/><path class="cls-6" d="M363.44,333.35h0a33.41,33.41,0,0,0-.95-7.82C342.56,321.08,321.62,320,300,320s-42.56,1.07-62.49,5.52a33.41,33.41,0,0,0-.95,7.82,10,10,0,0,0,13,9.56C264.09,338.53,281.4,336,300,336s35.91,2.55,50.43,6.93A10,10,0,0,0,363.44,333.35Z"/><path class="cls-6" d="M300,310.56c19.81,0,39.19,1,58,4.27-9.86-16-32.1-27.21-58-27.21s-48.12,11.18-58,27.21C260.82,311.52,280.19,310.56,300,310.56Z"/><path class="cls-7" d="M308.92,276.23,387.57,388.8,353.9,411.08,305.18,278.17A2.12,2.12,0,0,1,308.92,276.23Z"/><path class="cls-7" d="M293,276.23,214.36,388.8,248,411.08l48.72-132.91A2.12,2.12,0,0,0,293,276.23Z"/><path class="cls-6" d="M447.35,418.06a1.05,1.05,0,0,1-.86-1.15c.07-.73.11-1.47.11-2.22A23.51,23.51,0,0,0,416.79,392a1,1,0,0,1-1.3-.79,21.92,21.92,0,0,0-43.1.43,1,1,0,0,1-1.48.76,19,19,0,0,0-25.63,24.84,1.06,1.06,0,0,1-1,1.5h0a15.11,15.11,0,0,0,0,30.22,15.31,15.31,0,0,0,3.67-.47c0,.39,0,.77,0,1.16a27.41,27.41,0,0,0,48.46,17.54,1,1,0,0,1,1.55-.07,23.51,23.51,0,0,0,40.89-15.85v-.05a1.06,1.06,0,0,1,1.35-1,16.27,16.27,0,0,0,8.34.19,16.51,16.51,0,0,0-1.17-32.35Zm-88.94,10.07-.12.09a.93.93,0,0,0,0-.13Z"/><g class="cls-8"><path class="cls-9" d="M429,431.66c-.29-.18-.59-.34-.9-.51A23.89,23.89,0,0,1,421,474.2a7,7,0,0,1,1,4.39l-.06.5a26,26,0,0,0,7-47.43Z"/><path class="cls-9" d="M352.38,421.49l-.57-.32a15.28,15.28,0,0,1-4.54,27.53,4.47,4.47,0,0,1,.67,2.8l0,.32a16.6,16.6,0,0,0,4.47-30.33Z"/><path class="cls-9" d="M391.15,429c-.33-.2-.66-.38-1-.56a26.57,26.57,0,0,1-7.89,47.85,7.79,7.79,0,0,1,1.16,4.88,5.14,5.14,0,0,1-.06.55A28.86,28.86,0,0,0,391.15,429Z"/></g><path class="cls-6" d="M161.94,436.26a16.54,16.54,0,0,0,12.58,14.15,16.24,16.24,0,0,0,8.33-.19,1.05,1.05,0,0,1,1.35,1v.05a23.51,23.51,0,0,0,40.89,15.85,1,1,0,0,1,1.56.07,27.41,27.41,0,0,0,48.46-17.54c0-.39,0-.77,0-1.16a15.29,15.29,0,0,0,3.66.47,15.11,15.11,0,0,0,0-30.22h0a1.06,1.06,0,0,1-1-1.5,19,19,0,0,0-25.62-24.84,1,1,0,0,1-1.49-.76,21.91,21.91,0,0,0-43.09-.43,1,1,0,0,1-1.3.79,23.51,23.51,0,0,0-29.81,22.66c0,.75,0,1.49.1,2.22a1,1,0,0,1-.85,1.15A16.52,16.52,0,0,0,161.94,436.26Zm102.85-8.17c0,.05,0,.09-.05.13l-.11-.09Z"/><g class="cls-10"><path class="cls-9" d="M264.06,427.65c-.33-.21-.68-.4-1-.58a27.32,27.32,0,0,1-8.12,49.22,8,8,0,0,1,1.2,5c0,.19,0,.38-.06.57a29.68,29.68,0,0,0,8-54.23Z"/><path class="cls-9" d="M187.68,420.58l-.63-.35a16.75,16.75,0,0,1-5,30.18,5,5,0,0,1,.74,3.08c0,.12,0,.23,0,.35a18.21,18.21,0,0,0,4.91-33.26Z"/><path class="cls-9" d="M221.66,431.86l-.89-.51a23.72,23.72,0,0,1-7,42.72,6.92,6.92,0,0,1,1,4.35c0,.17,0,.33-.06.5a25.76,25.76,0,0,0,6.95-47.06Z"/></g><rect class="cls-1" width="600" height="600"/></svg>