<svg xmlns="http://www.w3.org/2000/svg" xmlns:xlink="http://www.w3.org/1999/xlink" viewBox="0 0 600 600"><defs><style>.cls-1{fill:none;}.cls-2{fill:url(#Degradado_sin_nombre_198);}.cls-3{fill:#004481;}.cls-4{fill:url(#Degradado_sin_nombre_26);}.cls-5{fill:url(#Degradado_sin_nombre_26-2);}.cls-6{fill:#1464a5;}.cls-7{fill:#49a5e6;}.cls-8{opacity:0.5;isolation:isolate;fill:url(#Degradado_sin_nombre_16);}.cls-9{fill:#f8cd50;}.cls-10{fill:url(#Degradado_sin_nombre_25);}.cls-11{fill:url(#Degradado_sin_nombre_25-2);}.cls-12{fill:#da3951;}.cls-13{fill:#fff;fill-rule:evenodd;}</style><linearGradient id="Degradado_sin_nombre_198" x1="243.94" y1="-3894.5" x2="433.81" y2="-4251.6" gradientTransform="matrix(1, 0, 0, -1, 0, -3724)" gradientUnits="userSpaceOnUse"><stop offset="0" stop-color="#192647" stop-opacity="0.5"/><stop offset="1" stop-color="#192647" stop-opacity="0"/></linearGradient><linearGradient id="Degradado_sin_nombre_26" x1="373.2" y1="-3869.77" x2="271.08" y2="-3869.77" gradientTransform="matrix(1, 0, 0, -1, 0, -3724)" gradientUnits="userSpaceOnUse"><stop offset="0" stop-color="#072146" stop-opacity="0.4"/><stop offset="1" stop-color="#072146" stop-opacity="0.1"/></linearGradient><linearGradient id="Degradado_sin_nombre_26-2" x1="373.2" y1="-4188.13" x2="271.08" y2="-4188.13" xlink:href="#Degradado_sin_nombre_26"/><linearGradient id="Degradado_sin_nombre_16" x1="190.23" y1="-3934.53" x2="316.7" y2="-4061.01" gradientTransform="matrix(1, 0, 0, -1, 0, -3724)" gradientUnits="userSpaceOnUse"><stop offset="0" stop-color="#fff" stop-opacity="0.5"/><stop offset="1" stop-color="#ecf7f8" stop-opacity="0.1"/></linearGradient><linearGradient id="Degradado_sin_nombre_25" x1="394.65" y1="-3964.05" x2="412.8" y2="-3982.2" gradientTransform="matrix(1, 0, 0, -1, 0, -3724)" gradientUnits="userSpaceOnUse"><stop offset="0" stop-color="#fff" stop-opacity="0.5"/><stop offset="1" stop-color="#fff" stop-opacity="0.2"/></linearGradient><linearGradient id="Degradado_sin_nombre_25-2" x1="392.17" y1="-4040.62" x2="412.1" y2="-4060.55" xlink:href="#Degradado_sin_nombre_25"/></defs><title>6</title><g id="Cuadrados_Blancos" data-name="Cuadrados Blancos"><rect class="cls-1" width="600" height="600"/><rect class="cls-1" width="600" height="600"/></g><g id="Capa_23" data-name="Capa 23"><path class="cls-2" d="M453.52,277.38h-7.06V264a40.22,40.22,0,0,0-28.67-38.52l-.67-1.45A127.79,127.79,0,0,1,405,169.74v-2.36a20.3,20.3,0,0,0-20.29-20.29H293a20.29,20.29,0,0,0-20.29,20.29v2.36a127.94,127.94,0,0,1-12.1,54.31L260,225.5A40.24,40.24,0,0,0,231.28,264V434.07A40.23,40.23,0,0,0,260,472.59l.68,1.46a127.86,127.86,0,0,1,12.1,54.3v2.37A20.28,20.28,0,0,0,293,551h91.71A20.29,20.29,0,0,0,405,530.72v-2.37a127.71,127.71,0,0,1,12.1-54.3l.67-1.46a40.21,40.21,0,0,0,28.67-38.52V422.9h1.77a2.65,2.65,0,0,0,2.64-2.65V354.11a2.65,2.65,0,0,0-2.64-2.65h-1.77V326.77h7.06a5.29,5.29,0,0,0,5.29-5.29v-38.8A5.29,5.29,0,0,0,453.52,277.38Z"/><path class="cls-3" d="M360,125.65v-2.37A20.28,20.28,0,0,0,339.69,103H248a20.28,20.28,0,0,0-20.28,20.28h0v2.37a127.86,127.86,0,0,1-12.1,54.3l-1.13,2.42v6.17H373.2v-6.17L372.07,180A127.86,127.86,0,0,1,360,125.65Z"/><path class="cls-3" d="M227.69,484.26v2.36A20.29,20.29,0,0,0,248,506.91h91.72A20.29,20.29,0,0,0,360,486.62v-2.36A127.94,127.94,0,0,1,372.07,430l1.13-2.41v-6.18H214.46v6.18l1.13,2.41A127.94,127.94,0,0,1,227.69,484.26Z"/><path class="cls-4" d="M373.2,182.37,372.07,180a127.86,127.86,0,0,1-12.1-54.3v-2.37A20.28,20.28,0,0,0,339.69,103H316.57l-45.49,85.54H373.2Z"/><path class="cls-5" d="M316.57,421.36l-45.49,85.55h68.61A20.29,20.29,0,0,0,360,486.62v-2.36A127.94,127.94,0,0,1,372.07,430l1.13-2.41v-6.18Z"/><rect class="cls-6" x="186.24" y="179.72" width="215.18" height="250.46" rx="40.21"/><rect class="cls-7" x="194.17" y="187.66" width="199.31" height="234.58" rx="32.29"/><path class="cls-8" d="M226.47,187.66a32.31,32.31,0,0,0-32.3,32.3V390a32.3,32.3,0,0,0,32.3,32.29h5L356.19,187.66Z"/><path class="cls-9" d="M401.42,233.29h7.05a5.29,5.29,0,0,1,5.29,5.29h0v38.8a5.29,5.29,0,0,1-5.29,5.3h-7.05V233.29Z"/><path class="cls-9" d="M401.42,307.37h1.76a2.65,2.65,0,0,1,2.65,2.64v66.15a2.65,2.65,0,0,1-2.65,2.64h-1.76V307.37Z"/><path class="cls-10" d="M413.76,238.58a5.29,5.29,0,0,0-5.29-5.29h-7.05v36.3l12.34-23.22Z"/><path class="cls-11" d="M405.83,310a2.65,2.65,0,0,0-2.65-2.64h-1.76v39.86l4.41-8.29Z"/><path class="cls-12" d="M358.83,305a65,65,0,1,1-65-65h0a65,65,0,0,1,65,65"/><path class="cls-13" d="M308.51,281.71H279.15v31.81l29.36-29.36Zm9.78-7.34v7.34l-48.93,48.93V323.3l4.9-4.89V279.22a2.38,2.38,0,0,1,2.36-2.4H311a2.41,2.41,0,0,1,2.45,2.37v0h0Zm-24.46,53.78a2.45,2.45,0,1,0,2.44,2.46v0a2.44,2.44,0,0,0-2.44-2.44Zm19.57-34.21V333a2.48,2.48,0,0,1-2.45,2.49H276.7a2.43,2.43,0,0,1-2.44-2.39l7.38-7.39h26.87V298.84Z"/></g></svg>