<svg id="Contenido" xmlns="http://www.w3.org/2000/svg" xmlns:xlink="http://www.w3.org/1999/xlink" viewBox="0 0 600 600"><defs><style>.cls-1{fill:url(#Degradado_sin_nombre_7);}.cls-2{fill:#004481;}.cls-3{fill:url(#Degradado_sin_nombre_11);}.cls-4{fill:url(#Degradado_sin_nombre_13);}.cls-5{fill:#1464a5;}.cls-6{fill:#49a5e6;}.cls-7{opacity:0.5;fill:url(#Degradado_sin_nombre_50);}.cls-8{fill:#f8cd50;}.cls-9{fill:url(#Degradado_sin_nombre_30);}.cls-10{fill:url(#Degradado_sin_nombre_30-2);}.cls-11{fill:#d4edfc;}</style><linearGradient id="Degradado_sin_nombre_7" x1="238.51" y1="144.93" x2="447.49" y2="555.07" gradientUnits="userSpaceOnUse"><stop offset="0" stop-color="#192647"/><stop offset="0" stop-color="#192647" stop-opacity="0.5"/><stop offset="1" stop-color="#192647" stop-opacity="0"/></linearGradient><linearGradient id="Degradado_sin_nombre_11" x1="383" y1="119.5" x2="267.21" y2="119.5" gradientUnits="userSpaceOnUse"><stop offset="0" stop-color="#072146" stop-opacity="0.4"/><stop offset="1" stop-color="#072146" stop-opacity="0.1"/></linearGradient><linearGradient id="Degradado_sin_nombre_13" x1="383" y1="480.5" x2="267.21" y2="480.5" xlink:href="#Degradado_sin_nombre_11"/><linearGradient id="Degradado_sin_nombre_50" x1="175.52" y1="192.93" x2="318.93" y2="336.35" gradientUnits="userSpaceOnUse"><stop offset="0" stop-color="#fff" stop-opacity="0.5"/><stop offset="1" stop-color="#ecf7f8" stop-opacity="0.1"/></linearGradient><linearGradient id="Degradado_sin_nombre_30" x1="407.33" y1="226.41" x2="427.91" y2="246.99" gradientUnits="userSpaceOnUse"><stop offset="0" stop-color="#fff" stop-opacity="0.5"/><stop offset="1" stop-color="#fff" stop-opacity="0.2"/></linearGradient><linearGradient id="Degradado_sin_nombre_30-2" x1="404.51" y1="313.23" x2="427.11" y2="335.83" xlink:href="#Degradado_sin_nombre_30"/></defs><title>reloj</title><path class="cls-1" d="M473,268.74h-8V253.59a45.62,45.62,0,0,0-32.51-43.68l-.77-1.65A145,145,0,0,1,418,146.68V144a23,23,0,0,0-23-23H291a23,23,0,0,0-23,23v2.68a145,145,0,0,1-13.72,61.58l-.77,1.65A45.62,45.62,0,0,0,221,253.59V446.41a45.62,45.62,0,0,0,32.51,43.68l.77,1.65A145,145,0,0,1,268,553.32V556a23,23,0,0,0,23,23H395a23,23,0,0,0,23-23v-2.68a145,145,0,0,1,13.72-61.58l.77-1.65A45.62,45.62,0,0,0,465,446.41V433.74h2a3,3,0,0,0,3-3v-75a3,3,0,0,0-3-3h-2v-28h8a6,6,0,0,0,6-6v-44A6,6,0,0,0,473,268.74Z"/><path class="cls-2" d="M368,96.68V94a23,23,0,0,0-23-23H241a23,23,0,0,0-23,23v2.68a145,145,0,0,1-13.72,61.58L203,161v7H383v-7l-1.28-2.74A145,145,0,0,1,368,96.68Z"/><path class="cls-2" d="M218,503.32V506a23,23,0,0,0,23,23H345a23,23,0,0,0,23-23v-2.68a145,145,0,0,1,13.72-61.58L383,439v-7H203v7l1.28,2.74A145,145,0,0,1,218,503.32Z"/><path class="cls-3" d="M383,161l-1.28-2.74A145,145,0,0,1,368,96.68V94a23,23,0,0,0-23-23H318.79l-51.58,97H383Z"/><path class="cls-4" d="M318.79,432l-51.58,97H345a23,23,0,0,0,23-23v-2.68a145,145,0,0,1,13.72-61.58L383,439v-7Z"/><rect class="cls-5" x="171" y="158" width="244" height="284" rx="45.59"/><rect class="cls-6" x="180" y="167" width="226" height="266" rx="36.62"/><path class="cls-7" d="M216.62,167A36.63,36.63,0,0,0,180,203.62V396.38A36.63,36.63,0,0,0,216.62,433h5.66L363.72,167Z"/><path class="cls-8" d="M415,218.74h8a6,6,0,0,1,6,6v44a6,6,0,0,1-6,6h-8a0,0,0,0,1,0,0v-56A0,0,0,0,1,415,218.74Z"/><path class="cls-8" d="M415,302.74h2a3,3,0,0,1,3,3v75a3,3,0,0,1-3,3h-2a0,0,0,0,1,0,0v-81A0,0,0,0,1,415,302.74Z"/><path class="cls-9" d="M429,224.74a6,6,0,0,0-6-6h-8V259.9l14-26.33Z"/><path class="cls-10" d="M420,305.74a3,3,0,0,0-3-3h-2v45.2l5-9.4Z"/><circle class="cls-11" cx="292.86" cy="299.74" r="20"/><circle class="cls-11" cx="347.4" cy="299.74" r="16"/><circle class="cls-11" cx="238.31" cy="299.74" r="16"/><circle class="cls-11" cx="320.14" cy="346.98" r="16"/><circle class="cls-11" cx="320.14" cy="252.5" r="16"/><circle class="cls-11" cx="266.04" cy="346.98" r="16"/><circle class="cls-11" cx="266.04" cy="252.5" r="16"/><circle class="cls-11" cx="358.72" cy="258.5" r="5"/><circle class="cls-11" cx="227.31" cy="258.5" r="5"/><circle class="cls-11" cx="358.72" cy="340.98" r="5"/><circle class="cls-11" cx="227.31" cy="340.98" r="5"/><circle class="cls-11" cx="293" cy="213.5" r="8"/><circle class="cls-11" cx="347.4" cy="213.5" r="8"/><circle class="cls-11" cx="238.31" cy="213.5" r="8"/><circle class="cls-11" cx="293" cy="385.98" r="8"/><circle class="cls-11" cx="347.4" cy="385.98" r="8"/><circle class="cls-11" cx="238.31" cy="385.98" r="8"/></svg>