<svg xmlns="http://www.w3.org/2000/svg" xmlns:xlink="http://www.w3.org/1999/xlink" viewBox="0 0 600 600"><defs><style>.cls-1{fill:none;}.cls-2{fill:url(#Degradado_sin_nombre_88);}.cls-3{fill:#d4edfc;}.cls-4{fill:url(#Degradado_sin_nombre_7);}.cls-5{fill:#49a5e6;}.cls-6{fill:#1464a5;}.cls-7{fill:#043263;}.cls-8{fill:#65a4e0;}.cls-9{opacity:0.5;isolation:isolate;fill:url(#Degradado_sin_nombre_6);}.cls-10{fill:#2dcccd;}.cls-11{fill:url(#Degradado_sin_nombre_5);}</style><linearGradient id="Degradado_sin_nombre_88" x1="171.7" y1="-3945.52" x2="408.78" y2="-4391.39" gradientTransform="matrix(1, 0, 0, -1, 0, -3824)" gradientUnits="userSpaceOnUse"><stop offset="0" stop-color="#1c2645" stop-opacity="0.5"/><stop offset="1" stop-color="#1c2645" stop-opacity="0"/></linearGradient><linearGradient id="Degradado_sin_nombre_7" x1="466" y1="-4106.65" x2="227.39" y2="-4106.65" gradientTransform="matrix(1, 0, 0, -1, 0, -3824)" gradientUnits="userSpaceOnUse"><stop offset="0" stop-color="#043263" stop-opacity="0.1"/><stop offset="1" stop-color="#043263" stop-opacity="0"/></linearGradient><linearGradient id="Degradado_sin_nombre_6" x1="171.56" y1="-4056.65" x2="265.12" y2="-4150.21" gradientTransform="matrix(1, 0, 0, -1, 0, -3824)" gradientUnits="userSpaceOnUse"><stop offset="0.01" stop-color="#fff" stop-opacity="0.8"/><stop offset="1" stop-color="#fff" stop-opacity="0"/></linearGradient><linearGradient id="Degradado_sin_nombre_5" x1="338.91" y1="-4126.54" x2="185.87" y2="-4126.54" gradientTransform="matrix(1, 0, 0, -1, 0, -3824)" gradientUnits="userSpaceOnUse"><stop offset="0" stop-color="#043263" stop-opacity="0.7"/><stop offset="1" stop-color="#043263" stop-opacity="0"/></linearGradient></defs><title>9</title><g id="Cuadrados_Blancos" data-name="Cuadrados Blancos"><rect class="cls-1" width="600" height="600"/></g><g id="Capa_2" data-name="Capa 2"><path class="cls-2" d="M422.67,170.5H258.77a2.77,2.77,0,0,0-2.77,2.77h0v82.85a102,102,0,0,0-43.3,179.1L151.55,541.14a2.44,2.44,0,0,0-3.29.92l-8.12,14.07a2.42,2.42,0,0,0,.87,3.32l0,0,26.23,15.15a2.45,2.45,0,0,0,3.35-.89h0l8.12-14.07a2.43,2.43,0,0,0-.85-3.31l61-105.68,1.43.57.58.22c.83.31,1.67.62,2.51.91l.4.14,3,1,.2.06c.9.27,1.8.53,2.71.78l.71.2c.8.21,1.6.42,2.41.61.21,0,.41.11.62.15.84.2,1.68.39,2.53.57V496.1a2.55,2.55,0,0,0,2.55,2.55h8.84l231.81.85h4.25A2.55,2.55,0,0,0,506,497V253.81Z"/><path class="cls-3" d="M466,193.81,382.67,110.5H218.77a2.77,2.77,0,0,0-2.77,2.77h0V436.1a2.55,2.55,0,0,0,2.55,2.55h244.9A2.55,2.55,0,0,0,466,436.1Z"/><path class="cls-4" d="M397.12,125.8,227.39,438.65l231.81.85h4.25A2.55,2.55,0,0,0,466,437V194.66Z"/><path class="cls-5" d="M385.79,193.81H466L382.67,110.5v80.19A3.12,3.12,0,0,0,385.79,193.81Z"/><path class="cls-6" d="M401.45,281.41l16.07-2.22a.84.84,0,0,0,.38-.15,1.05,1.05,0,0,0,.32-.31l2-3.08a11.09,11.09,0,0,0,.87-10.22l.2.13,1.07-1.69L342.9,213.34l1.46-.92-1.08-1.69L341,212.16l-2.24-1.43-1.08,1.69,1.46.92-79.46,50.53,1.07,1.69.2-.13a11.09,11.09,0,0,0,.87,10.22l1.29,2-2.77,1.76,1.07,1.69,3.07-2,16.07,2.22v69.3h-1.8v2h1.77V355h2v-2.37h116.9V355h2v-2.37h1.77v-2h-1.8C401.43,350.61,401.45,281.41,401.45,281.41Zm0-2V269.2l13.11,8.38ZM266.3,262l74.53-47.39h0a.3.3,0,0,1,.34,0L415.7,262a9.1,9.1,0,0,1,2.79,12.55l-1.42,2.23-74.83-47.87a2.36,2.36,0,0,0-2.48,0l-74.83,47.86-1.42-2.23A9.1,9.1,0,0,1,266.3,262Zm1.14,15.55,13.11-8.38v10.19Zm87.61,73.13H326.86v-53a2,2,0,0,1,2-2h24.28a2,2,0,0,1,2,2v53Zm2.09,0v-53a4,4,0,0,0-2.17-3.53l-1.83-.47H328.86l-1.83.47a4,4,0,0,0-2.17,3.53v53h-42a.31.31,0,0,1-.31-.31V267.92l58.28-37.28a.3.3,0,0,1,.34,0l58.28,37.28V350.4a.31.31,0,0,1-.31.31Z"/><rect class="cls-6" x="353.64" y="203.63" width="2" height="2" transform="translate(-54.42 222.31) rotate(-32.46)"/><rect class="cls-6" x="346.81" y="207.36" width="3.96" height="2" transform="translate(-57.34 219.75) rotate(-32.46)"/><rect class="cls-6" x="246.55" y="271.13" width="3.96" height="2" transform="matrix(0.84, -0.54, 0.54, 0.84, -107.23, 175.9)"/><rect class="cls-6" x="253.22" y="266.88" width="3.96" height="2" transform="translate(-103.9 178.82) rotate(-32.46)"/><rect class="cls-6" x="241.67" y="274.86" width="2" height="2" transform="translate(-110.14 173.34) rotate(-32.46)"/><rect class="cls-6" x="326.35" y="203.67" width="2" height="2" transform="translate(-21 371.09) rotate(-57.55)"/><rect class="cls-6" x="425.8" y="265.92" width="2" height="3.96" transform="translate(-28.27 484.31) rotate(-57.55)"/><rect class="cls-6" x="432.49" y="270.19" width="2" height="3.96" transform="translate(-28.78 491.93) rotate(-57.55)"/><rect class="cls-6" x="332.21" y="206.4" width="2" height="3.96" transform="translate(-21.42 377.75) rotate(-57.55)"/><rect class="cls-6" x="438.36" y="274.91" width="2" height="2" transform="translate(-29.25 498.54) rotate(-57.54)"/><rect class="cls-6" x="253.61" y="282.58" width="4.12" height="2" transform="translate(-112.26 181.53) rotate(-32.46)"/><rect class="cls-6" x="246.67" y="287" width="4.12" height="2" transform="translate(-115.71 178.49) rotate(-32.46)"/><rect class="cls-6" x="241.66" y="290.85" width="2" height="2" transform="translate(-118.73 175.84) rotate(-32.46)"/><rect class="cls-6" x="425.95" y="282.02" width="2" height="3.91" transform="translate(-41.77 491.89) rotate(-57.55)"/><rect class="cls-6" x="432.56" y="286.27" width="2" height="3.91" transform="translate(-42.29 499.44) rotate(-57.55)"/><rect class="cls-6" x="419.39" y="277.89" width="2" height="3.91" transform="matrix(0.54, -0.84, 0.84, 0.54, -41.32, 484.44)"/><rect class="cls-6" x="438.36" y="290.91" width="2" height="2" transform="translate(-42.76 505.96) rotate(-57.54)"/><rect class="cls-6" x="280.55" y="375.08" width="2" height="4"/><rect class="cls-6" x="280.55" y="367.08" width="2" height="4"/><rect class="cls-6" x="280.55" y="359.08" width="2" height="4"/><rect class="cls-6" x="324.86" y="361.9" width="2" height="4"/><rect class="cls-6" x="324.86" y="353.9" width="2" height="4"/><rect class="cls-6" x="324.86" y="369.9" width="2" height="4"/><rect class="cls-6" x="324.86" y="377.9" width="2" height="2.78"/><rect class="cls-6" x="324.86" y="281.9" width="2" height="4"/><rect class="cls-6" x="324.86" y="273.9" width="2" height="4"/><rect class="cls-6" x="324.86" y="289.9" width="2" height="4"/><rect class="cls-6" x="355.14" y="273.9" width="2" height="4"/><rect class="cls-6" x="355.14" y="281.9" width="2" height="4"/><rect class="cls-6" x="355.14" y="289.9" width="2" height="4"/><rect class="cls-6" x="355.14" y="369.9" width="2" height="4"/><rect class="cls-6" x="355.14" y="353.9" width="2" height="4"/><rect class="cls-6" x="355.14" y="361.9" width="2" height="4"/><rect class="cls-6" x="355.14" y="377.9" width="2" height="2.78"/><rect class="cls-6" x="399.45" y="359.08" width="2" height="4"/><rect class="cls-6" x="399.45" y="375.08" width="2" height="4"/><rect class="cls-6" x="399.45" y="367.08" width="2" height="4"/><rect class="cls-6" x="256.71" y="350.71" width="2" height="2"/><rect class="cls-6" x="270.75" y="350.71" width="4.01" height="2"/><rect class="cls-6" x="407.23" y="350.71" width="4.01" height="2"/><rect class="cls-6" x="415.26" y="350.71" width="4.01" height="2"/><rect class="cls-6" x="262.72" y="350.71" width="4.01" height="2"/><rect class="cls-6" x="423.29" y="350.71" width="2" height="2"/><rect class="cls-6" x="305.08" y="293.72" width="2" height="2"/><rect class="cls-6" x="366.94" y="293.72" width="3.99" height="2"/><rect class="cls-6" x="319.05" y="293.72" width="3.99" height="2"/><rect class="cls-6" x="311.07" y="293.72" width="3.99" height="2"/><rect class="cls-6" x="358.96" y="293.72" width="3.99" height="2"/><rect class="cls-6" x="374.92" y="293.72" width="2" height="2"/><path class="cls-7" d="M102.68,496.52l74.54-129.11h0l26.34,15.21h0L129,511.73a2.45,2.45,0,0,1-3.34.9h0l-22.11-12.77a2.45,2.45,0,0,1-.9-3.35h0Z"/><path class="cls-8" d="M316.87,296a80,80,0,1,1-80-80,80,80,0,0,1,80,80"/><path class="cls-7" d="M236.89,398a102,102,0,1,1,102-102A102,102,0,0,1,236.89,398Zm0-182a80,80,0,1,0,80,80A80,80,0,0,0,236.89,216Z"/><path class="cls-9" d="M276.7,226.66a79.94,79.94,0,0,0-79.91,138.48h0Z"/><rect class="cls-10" x="108.87" y="480.3" width="21.14" height="35.2" rx="2.45" transform="translate(-371.47 352.38) rotate(-60)"/><path class="cls-11" d="M288.3,207.9,277.22,227A79.94,79.94,0,0,1,197,365.23l-11.08,19.08A102,102,0,0,0,288.3,207.9Z"/><rect class="cls-6" x="181.23" y="267.96" width="10.21" height="6.63" transform="translate(-117.1 143.85) rotate(-32.74)"/><rect class="cls-6" x="193.19" y="261.89" width="10.22" height="6.64" transform="translate(-111.36 147.86) rotate(-32.46)"/><rect class="cls-6" x="172.12" y="276.42" width="6.64" height="6.64" transform="translate(-122.73 137.86) rotate(-32.46)"/><rect class="cls-6" x="193.9" y="290.5" width="10.5" height="6.64" transform="translate(-126.58 152.79) rotate(-32.46)"/><rect class="cls-6" x="181.22" y="298.57" width="10.5" height="6.64" transform="matrix(0.84, -0.54, 0.54, 0.84, -132.87, 147.19)"/><rect class="cls-6" x="172.5" y="303.81" width="6.63" height="6.63" transform="translate(-138.16 143.85) rotate(-32.74)"/><rect class="cls-6" x="287.69" y="310.74" width="6.64" height="6.64"/><rect class="cls-6" x="298.61" y="310.74" width="10.27" height="6.64"/><path class="cls-6" d="M249.64,266l42.92-27.45c-1.66-1.6-3.37-3.14-5.16-4.59l-70.91,45.36-1.78-2.81a15.06,15.06,0,0,1,4.63-20.79l51-32.42a79.08,79.08,0,0,0-7.61-3L204.4,257.38l2.53,4a21.76,21.76,0,0,0,2.17,18.76l1.56,2.45-5.06,3.21,3.57,5.61,6.4-4.07,27.43,3.8v84.59c2.24-.17,4.44-.42,6.62-.77ZM243,284.41l-18.15-2.51L243,270.29Z"/></g></svg>