<svg xmlns="http://www.w3.org/2000/svg" xmlns:xlink="http://www.w3.org/1999/xlink" viewBox="0 0 600 600"><defs><style>.cls-1{fill:none;}.cls-2{fill:url(#Degradado_sin_nombre);}.cls-3{fill:#2dcccd;}.cls-4{opacity:0.5;fill:url(#Degradado_sin_nombre_2);}.cls-4,.cls-6{isolation:isolate;}.cls-5{fill:#fade8e;}.cls-6{fill:#eaf9fa;opacity:0.7;}</style><linearGradient id="Degradado_sin_nombre" x1="266.82" y1="395.99" x2="428.62" y2="91.7" gradientTransform="matrix(1, 0, 0, -1, 0, 602)" gradientUnits="userSpaceOnUse"><stop offset="0" stop-color="#192647" stop-opacity="0.5"/><stop offset="1" stop-color="#192647" stop-opacity="0"/></linearGradient><linearGradient id="Degradado_sin_nombre_2" x1="480.15" y1="-1453.16" x2="240.84" y2="-1453.16" gradientTransform="translate(0 1753.16)" gradientUnits="userSpaceOnUse"><stop offset="0" stop-color="#028484"/><stop offset="1" stop-color="#028484" stop-opacity="0"/></linearGradient></defs><g id="Capa_2" data-name="Capa 2"><rect class="cls-1" width="600" height="600"/></g><g id="Capa_1" data-name="Capa 1"><path class="cls-2" d="M191.31,249.31H504.13a23.74,23.74,0,0,1,23.74,23.74V443.29A23.75,23.75,0,0,1,504.13,467H191.31a23.76,23.76,0,0,1-23.74-23.75V273.05A23.74,23.74,0,0,1,191.31,249.31Z"/><path class="cls-3" d="M143.59,191.13H456.41a23.76,23.76,0,0,1,23.74,23.75V385.12a23.76,23.76,0,0,1-23.74,23.75H143.59a23.76,23.76,0,0,1-23.74-23.75V214.88A23.76,23.76,0,0,1,143.59,191.13Z"/><path class="cls-4" d="M456.41,408.87a23.76,23.76,0,0,0,23.74-23.75V214.88a23.76,23.76,0,0,0-23.74-23.75H356.57L240.84,408.87Z"/><polygon class="cls-5" points="200.46 314.23 152.08 314.23 150.36 314.05 148.59 313.6 146.88 312.74 145.4 311.49 144.26 310.17 143.34 308.51 142.82 306.67 142.63 304.87 142.61 272.16 142.8 270.43 143.25 268.71 144.09 267.05 145.23 265.59 146.69 264.37 148.32 263.5 150.11 262.91 151.96 262.7 200.46 262.69 202.19 262.86 203.97 263.42 205.58 264.25 207.03 265.39 208.24 266.84 209.12 268.48 209.71 270.17 209.93 272.03 209.94 304.75 209.76 306.48 209.2 308.32 208.35 309.95 207.19 311.36 205.8 312.59 204.15 313.49 202.39 314 200.59 314.21 200.54 314.21 200.46 314.23"/><path class="cls-6" d="M361.8,353.77H346a3.94,3.94,0,0,1-3.48-2.1L310,289.74l-32.52,61.92a4,4,0,0,1-3.49,2.11H258.15a3.48,3.48,0,0,1-3.08-5.12l31.62-60.43h-72v-4.1H290.1a2.05,2.05,0,0,1,1.82,3L259.2,349.66h14.66l32.58-62a4,4,0,0,1,7.06,0l32.61,62h14.62l-50.76-95L297.1,277.28l-4.67-.09,14.09-24.79a3.89,3.89,0,0,1,3.45-2,4,4,0,0,1,3.48,2.08l51.4,96.22a3.47,3.47,0,0,1-1.42,4.7,3.43,3.43,0,0,1-1.63.41Zm-103.08-3.2Z"/><path class="cls-6" d="M465,291.62a5.87,5.87,0,0,1-5.33-3.49H340.43l-2.17-4.1H459.43a5.85,5.85,0,1,1,5.58,7.59Z"/></g></svg>