<svg id="Capa_1" data-name="Capa 1" xmlns="http://www.w3.org/2000/svg" xmlns:xlink="http://www.w3.org/1999/xlink" viewBox="0 0 600 600"><defs><style>.cls-1{fill:url(#Degradado_sin_nombre);}.cls-2{fill:none;}.cls-3{fill:#2dcccd;}.cls-4,.cls-8{opacity:0.5;}.cls-4,.cls-6,.cls-8{isolation:isolate;}.cls-4{fill:url(#Degradado_sin_nombre_2);}.cls-5{fill:#fade8e;}.cls-6,.cls-9{fill:#eaf9fa;}.cls-6{opacity:0.7;}.cls-7{fill:#004481;}.cls-8{fill:url(#Degradado_sin_nombre_10);}</style><linearGradient id="Degradado_sin_nombre" x1="239.43" y1="447.67" x2="428.89" y2="91.36" gradientTransform="matrix(1, 0, 0, -1, 0, 600)" gradientUnits="userSpaceOnUse"><stop offset="0" stop-color="#192647" stop-opacity="0.5"/><stop offset="1" stop-color="#192647" stop-opacity="0"/></linearGradient><linearGradient id="Degradado_sin_nombre_2" x1="480.15" y1="2053.16" x2="240.84" y2="2053.16" gradientTransform="matrix(1, 0, 0, -1, 0, 2353.16)" gradientUnits="userSpaceOnUse"><stop offset="0" stop-color="#028484"/><stop offset="1" stop-color="#028484" stop-opacity="0"/></linearGradient><linearGradient id="Degradado_sin_nombre_10" x1="501.01" y1="-209.06" x2="356.57" y2="-111.08" gradientTransform="matrix(1, 0, 0, -1, 0, 200)" gradientUnits="userSpaceOnUse"><stop offset="0" stop-color="#043263"/><stop offset="1" stop-color="#043263" stop-opacity="0"/></linearGradient></defs><path class="cls-1" d="M518.33,356.27V252.83a23,23,0,0,0-23-23h-314a23,23,0,0,0-23,23v171a23,23,0,0,0,23,23h243.8a65,65,0,0,0,95.68-88c-.8-.87-1.63-1.72-2.48-2.55Z"/><g id="Capa_2" data-name="Capa 2"><rect class="cls-2" width="600" height="600"/></g><g id="Capa_1-2" data-name="Capa 1"><path class="cls-3" d="M143.59,191.13H456.41a23.76,23.76,0,0,1,23.74,23.75V385.12a23.76,23.76,0,0,1-23.74,23.75H143.59a23.76,23.76,0,0,1-23.74-23.75V214.88A23.76,23.76,0,0,1,143.59,191.13Z"/><path class="cls-4" d="M456.41,408.87a23.76,23.76,0,0,0,23.74-23.75V214.88a23.76,23.76,0,0,0-23.74-23.75H356.57L240.84,408.87Z"/><polygon class="cls-5" points="200.46 314.23 152.08 314.23 150.36 314.05 148.59 313.6 146.88 312.74 145.4 311.49 144.26 310.17 143.34 308.51 142.82 306.67 142.63 304.87 142.61 272.16 142.8 270.43 143.25 268.71 144.09 267.05 145.23 265.59 146.69 264.37 148.32 263.5 150.11 262.91 151.96 262.7 200.46 262.69 202.19 262.86 203.97 263.42 205.58 264.25 207.03 265.39 208.24 266.84 209.12 268.48 209.71 270.17 209.93 272.03 209.94 304.75 209.76 306.48 209.2 308.32 208.35 309.95 207.19 311.36 205.8 312.59 204.15 313.49 202.39 314 200.59 314.21 200.54 314.21 200.46 314.23"/><path class="cls-6" d="M361.8,353.77H346a3.94,3.94,0,0,1-3.48-2.1L310,289.74l-32.52,61.92a4,4,0,0,1-3.49,2.11H258.15a3.48,3.48,0,0,1-3.08-5.12l31.62-60.43h-72v-4.1H290.1a2,2,0,0,1,2,2.05,2.08,2.08,0,0,1-.23.95L259.2,349.66h14.66l32.58-62a4,4,0,0,1,7.06,0l32.61,62h14.62l-50.76-95L297.1,277.28l-4.67-.09,14.09-24.79a3.88,3.88,0,0,1,3.45-2,4,4,0,0,1,3.48,2.08l51.4,96.22a3.47,3.47,0,0,1-1.42,4.7h0a3.43,3.43,0,0,1-1.63.41Z"/><path class="cls-6" d="M465,291.62a5.87,5.87,0,0,1-5.33-3.49H340.43l-2.17-4.1H459.43a5.85,5.85,0,1,1,5.58,7.59Z"/></g><path class="cls-7" d="M499.5,364a65.35,65.35,0,1,1-65.4-65.3h0A65.34,65.34,0,0,1,499.5,364"/><path class="cls-8" d="M403.4,421.6a65.34,65.34,0,1,0,61.9-115.1l-.6-.3Z"/><path class="cls-9" d="M463.41,386.16c-1.06,3.17-2.77,4.44-5.61,4.44-3.31,0-5.21-2-6-5.7h6.79v-3.08h-7.15c0-.5,0-1,0-1.59v-1h7.16v-3h-6.82c.77-4,2.94-6,6-6,2.83,0,4.51,1.35,5.46,4.21l3.84-2.17c-1.35-3.36-4.12-6-9.32-6a10.54,10.54,0,0,0-3.29.51c-3.45,1.14-6.18,4.2-7.12,9.44h-4.38v3h4v1.07c0,.5,0,1,0,1.5h-4.09v3.08h4.43a17.38,17.38,0,0,0,.79,2.77,10.29,10.29,0,0,0,19,.77Z"/><path class="cls-9" d="M442.91,387.4h-2.5V373.75h4.9c1.46-5.11,4.74-8.5,9.19-9.58v-.67c0-21.4-10.3-35.5-28.2-35.5S398,342.1,398,363.5,408.5,399,426.3,399c8.54,0,15.39-3.21,20.17-8.93a16.73,16.73,0,0,1-1.08-2.67Zm-16.61-.1c-8.5,0-13.4-8.1-13.4-23.8s4.6-23.5,13.4-23.5c8.5,0,13.4,7.9,13.4,23.5S435,387.2,426.3,387.3Z"/></svg>