<?xml version="1.0" encoding="utf-8"?>
<!-- Generator: Adobe Illustrator 23.0.1, SVG Export Plug-In . SVG Version: 6.00 Build 0)  -->
<svg version="1.1" id="Capa_1" xmlns="http://www.w3.org/2000/svg" xmlns:xlink="http://www.w3.org/1999/xlink" x="0px" y="0px"
	 viewBox="0 0 600 600" style="enable-background:new 0 0 600 600;" xml:space="preserve">
<style type="text/css">
	.st0{fill:url(#SVGID_1_);}
	.st1{fill:#D4EDFC;}
	.st2{fill:url(#SVGID_2_);}
	.st3{fill:#043263;}
	.st4{fill:#02A5A5;}
	.st5{fill:url(#SVGID_3_);}
	.st6{fill:#5AC4C4;}
	.st7{fill:#2DCCCD;}
	.st8{clip-path:url(#SVGID_5_);}
	.st9{fill:none;}
	.st10{fill:url(#SVGID_6_);}
</style>
<title>Mesa de trabajo 1 copia 19</title>
<linearGradient id="SVGID_1_" gradientUnits="userSpaceOnUse" x1="191.9683" y1="549.7644" x2="426.5583" y2="108.5644" gradientTransform="matrix(1 0 0 -1 0 600)">
	<stop  offset="0" style="stop-color:#192647"/>
	<stop  offset="0" style="stop-color:#192647;stop-opacity:0.5"/>
	<stop  offset="1" style="stop-color:#192647;stop-opacity:0"/>
</linearGradient>
<path class="st0" d="M503.5,354.4c-0.6-2.9-1.8-5.7-3.5-8.2c-0.2-0.3-0.4-0.6-0.6-0.9c-1.3-1.8-2.9-3.3-4.7-4.7
	c-0.3-0.2-0.6-0.4-0.9-0.6c-3.8-2.6-8.3-3.9-12.9-3.9H376c35.6-45.5,54.3-82.3,57.6-89.9c3.5-7.7,5.8-15.9,7-24.4l0.1-0.6
	c0.3-3,0.5-6,0.5-9c0-8.1-1.2-16.2-3.6-24c-5.1-16.2-15.2-30.5-28.8-40.7c-28.7-21.4-68-21.4-96.7,0c-20.4,15.2-32.5,39.2-32.5,64.7
	c0,3,0.2,6,0.5,9l0.1,0.6l0,0c1,8.1,3.5,16.2,7,24.4c3.6,8.6,24.2,46.8,57.7,89.9H235c-12.7,0-23,10.3-23,23l0,0v50
	c0,12.7,10.3,23,23,23h67v80c0,1.7,1.3,3,3,3h110c1.7,0,3-1.3,3-3v-80h63c4.6,0,9.1-1.4,12.9-3.9c0.3-0.2,0.6-0.4,0.9-0.6
	c1.8-1.3,3.3-2.9,4.7-4.7c0.2-0.3,0.4-0.6,0.6-0.9c2.6-3.8,3.9-8.3,3.9-12.9v-50C504,357.4,503.8,355.9,503.5,354.4z M318.6,211.8
	c0-23.1,18.7-41.8,41.7-41.8c23.1,0,41.8,18.7,41.8,41.7s-18.7,41.8-41.7,41.8c0,0,0,0,0,0C337.3,253.5,318.6,234.8,318.6,211.8z"/>
<path class="st1" d="M177,269h246c12.7,0,23,10.3,23,23v50c0,12.7-10.3,23-23,23H177c-12.7,0-23-10.3-23-23v-50
	C154,279.3,164.3,269,177,269z"/>
<linearGradient id="SVGID_2_" gradientUnits="userSpaceOnUse" x1="446" y1="283" x2="273.08" y2="283" gradientTransform="matrix(1 0 0 -1 0 600)">
	<stop  offset="0" style="stop-color:#043263;stop-opacity:0.4"/>
	<stop  offset="1" style="stop-color:#043263;stop-opacity:0"/>
</linearGradient>
<path class="st2" d="M423,269h-96.9l-53,96H423c12.7,0,23-10.3,23-23v-50C446,279.3,435.7,269,423,269L423,269z"/>
<path class="st3" d="M204,312h192c2.8,0,5,2.2,5,5l0,0c0,2.8-2.2,5-5,5H204c-2.8,0-5-2.2-5-5l0,0C199,314.2,201.2,312,204,312z"/>
<path class="st4" d="M244,427V317h116v110c0,1.7-1.3,3-3,3H247C245.3,430,244,428.7,244,427z"/>
<linearGradient id="SVGID_3_" gradientUnits="userSpaceOnUse" x1="459.81" y1="226.5" x2="209.4" y2="226.5" gradientTransform="matrix(1 0 0 -1 0 600)">
	<stop  offset="0" style="stop-color:#028484"/>
	<stop  offset="1" style="stop-color:#028484;stop-opacity:0"/>
</linearGradient>
<path class="st5" d="M316.4,317l-60.8,113H357c1.7,0,3-1.3,3-3V317H316.4z"/>
<path class="st6" d="M280.5,421.2L280.5,421.2c0,1.5-1.2,2.7-2.7,2.7l-25.2,0c-1.5,0-2.7-1.2-2.7-2.7l0-25.2c0-1.5,1.2-2.7,2.7-2.7
	l0,0C268,393.2,280.5,405.7,280.5,421.2L280.5,421.2z"/>
<path class="st6" d="M351.7,393.2L351.7,393.2c1.5,0,2.7,1.2,2.7,2.7v25.2c0,1.5-1.2,2.7-2.7,2.7h-25.2c-1.5,0-2.7-1.2-2.7-2.7l0,0
	C323.8,405.7,336.3,393.2,351.7,393.2L351.7,393.2z"/>
<path class="st6" d="M270.9,317c11.1,17.2,33.9,22.2,51.1,11.1c4.5-2.9,8.2-6.7,11.1-11.1H270.9z"/>
<path class="st7" d="M379.5,121.2c-5.1-16.3-15.2-30.5-28.8-40.7C322,59,282.7,59,254,80.4c-20.4,15.2-32.5,39.2-32.4,64.7
	c0,3,0.2,6,0.5,9l0.1,0.6l0,0c1,8.1,3.6,16.2,7,24.4c4.1,9.8,30,57.4,71.7,107.3l1.5,1.6l1.5-1.6c44.8-53.2,68-98.7,71.7-107.3
	c3.5-7.7,5.8-15.9,7-24.4l0.1-0.6c0.3-3,0.5-6,0.5-9C383.2,137,381.9,128.9,379.5,121.2z M302.3,186.5c-23.1,0-41.8-18.7-41.8-41.8
	s18.7-41.8,41.8-41.8s41.8,18.7,41.8,41.8c0,0,0,0,0,0C344.1,167.8,325.4,186.5,302.3,186.5C302.3,186.5,302.3,186.5,302.3,186.5z"
	/>
<g>
	<defs>
		<path id="SVGID_4_" d="M379.3,121.2c-5.1-16.3-15.2-30.5-28.8-40.7c-28.7-21.4-68-21.4-96.7,0c-20.4,15.2-32.5,39.2-32.4,64.7
			c0,3,0.2,6,0.5,9l0.1,0.6l0,0c1,8.1,3.6,16.2,6.9,24.4c4.1,9.8,30,57.4,71.7,107.4l1.5,1.6l1.5-1.6c44.8-53.2,68-98.7,71.7-107.4
			c3.5-7.7,5.8-15.9,7-24.4l0.1-0.6c0.3-3,0.5-6,0.5-9C382.9,137,381.7,128.9,379.3,121.2z M302.1,186.5
			c-23.1,0-41.8-18.7-41.8-41.8s18.7-41.8,41.8-41.8s41.8,18.7,41.8,41.8c0,0,0,0,0,0C343.9,167.8,325.2,186.5,302.1,186.5
			C302.1,186.5,302.1,186.5,302.1,186.5z"/>
	</defs>
	<clipPath id="SVGID_5_">
		<use xlink:href="#SVGID_4_"  style="overflow:visible;"/>
	</clipPath>
	<g class="st8">
		<path class="st9" d="M302.1,103c-23.1,0.4-41.5,19.3-41.1,42.4c0.3,22.6,18.5,40.7,41.1,41.1c1.6,0,3.1-0.1,4.7-0.3l33.6-58
			C333.9,112.9,318.8,103,302.1,103z"/>
		<path class="st9" d="M302.1,186.5c-23.1,0-41.7-18.7-41.7-41.8s18.7-41.7,41.8-41.7c16.7,0,31.8,9.9,38.4,25.3l21.6-37.2
			c-27.9-31-74.9-35.6-108.3-10.6c-20.4,15.2-32.5,39.2-32.4,64.7c0,3,0.2,6,0.5,9l0.1,0.6l0,0c1,8.1,3.6,16.2,6.9,24.4
			c3,7.2,17.8,34.9,42.1,69l35.8-61.8C305.3,186.5,303.7,186.5,302.1,186.5z"/>
		
			<linearGradient id="SVGID_6_" gradientUnits="userSpaceOnUse" x1="458" y1="410.48" x2="251.03" y2="410.48" gradientTransform="matrix(1 0 0 -1 0 600)">
			<stop  offset="0" style="stop-color:#02A5A5"/>
			<stop  offset="1" style="stop-color:#02A5A5;stop-opacity:0"/>
		</linearGradient>
		<path class="st10" d="M302.1,288l1.5-1.6c44.8-53.2,68-98.7,71.7-107.4c3.5-7.7,5.8-15.9,7-24.4l0.1-0.6c0.3-3,0.5-6,0.5-9
			c0-20-7.4-39.3-20.8-54.1l-21.6,37.2c9.1,21.2-0.7,45.7-21.9,54.9c-3.8,1.6-7.7,2.7-11.8,3.1L271,248
			c8.7,12.2,18.6,25.2,29.6,38.4L302.1,288z"/>
	</g>
</g>
</svg>
