<svg id="b7539bb0-3b2e-4040-baf8-b3d81606dcdb" data-name="Capa 1" xmlns="http://www.w3.org/2000/svg" xmlns:xlink="http://www.w3.org/1999/xlink" viewBox="0 0 600 600"><defs><style>.ac912b6b-de31-40ca-93ad-127b00d04834{fill:url(#bbf6408f-447c-4518-ba34-ad514ddc644c);}.b55b148b-1f50-4789-9a8e-0133a8fb03af{fill:#d4edfc;}.edc00283-c2cd-42e3-8daa-588a536e1999{fill:url(#a958700f-2e17-4c43-a870-52368ec7fc0a);}.f4323877-9cd6-455c-b6f6-af5e05745b2f{fill:#043263;}.b8063e5f-0462-41e7-8597-f464df019f13{fill:#02a5a5;}.bdada99c-dc8b-4f61-b2e0-7f74cb13455a{fill:url(#bc2e2654-5b06-4865-bcc6-aaa6627a407b);}.b8fd89ed-3c43-474b-85ad-ca075bed0899{fill:#5ac4c4;}.a33493b4-a184-43eb-9662-299e3db7bc73{fill:#2dcccd;}.b6453f28-33ca-4767-8ab7-0e3c6dce2237{fill:none;}</style><linearGradient id="bbf6408f-447c-4518-ba34-ad514ddc644c" x1="261.59" y1="682.81" x2="415.57" y2="972.42" gradientTransform="translate(0 -480)" gradientUnits="userSpaceOnUse"><stop offset="0" stop-color="#192647"/><stop offset="0" stop-color="#192647" stop-opacity="0.5"/><stop offset="1" stop-color="#192647" stop-opacity="0"/></linearGradient><linearGradient id="a958700f-2e17-4c43-a870-52368ec7fc0a" x1="446" y1="741" x2="273.1" y2="741" gradientTransform="translate(0 -424)" gradientUnits="userSpaceOnUse"><stop offset="0" stop-color="#043263" stop-opacity="0.4"/><stop offset="1" stop-color="#043263" stop-opacity="0"/></linearGradient><linearGradient id="bc2e2654-5b06-4865-bcc6-aaa6627a407b" x1="459.81" y1="797.5" x2="209.4" y2="797.5" gradientTransform="translate(0 -424)" gradientUnits="userSpaceOnUse"><stop offset="0" stop-color="#028484"/><stop offset="1" stop-color="#028484" stop-opacity="0"/></linearGradient></defs><path class="ac912b6b-de31-40ca-93ad-127b00d04834" d="M503.5,354.4a22.89,22.89,0,0,0-3.5-8.2l-.6-.9a23.26,23.26,0,0,0-4.7-4.7l-.9-.6a22.77,22.77,0,0,0-12.9-3.9H235a23,23,0,0,0-23,23h0v50a23,23,0,0,0,23,23h67v80a3,3,0,0,0,3,3H415a3,3,0,0,0,3-3v-80h63a23.56,23.56,0,0,0,12.9-3.9l.9-.6a23.26,23.26,0,0,0,4.7-4.7l.6-.9a22.77,22.77,0,0,0,3.9-12.9v-50A23.35,23.35,0,0,0,503.5,354.4Z"/><path class="b55b148b-1f50-4789-9a8e-0133a8fb03af" d="M177,269H423a23,23,0,0,1,23,23v50a23,23,0,0,1-23,23H177a23,23,0,0,1-23-23V292A23,23,0,0,1,177,269Z"/><path class="edc00283-c2cd-42e3-8daa-588a536e1999" d="M423,269H326.1l-53,96H423a23,23,0,0,0,23-23V292a23,23,0,0,0-23-23Z"/><path class="f4323877-9cd6-455c-b6f6-af5e05745b2f" d="M204,312H396a5,5,0,0,1,5,5h0a5,5,0,0,1-5,5H204a5,5,0,0,1-5-5h0A5,5,0,0,1,204,312Z"/><path class="b8063e5f-0462-41e7-8597-f464df019f13" d="M244,427V317H360V427a3,3,0,0,1-3,3H247A3,3,0,0,1,244,427Z"/><path class="bdada99c-dc8b-4f61-b2e0-7f74cb13455a" d="M316.4,317,255.6,430H357a3,3,0,0,0,3-3V317Z"/><path class="b8fd89ed-3c43-474b-85ad-ca075bed0899" d="M280.5,421.2h0a2.69,2.69,0,0,1-2.7,2.7H252.6a2.69,2.69,0,0,1-2.7-2.7V396a2.69,2.69,0,0,1,2.7-2.7h0a27.78,27.78,0,0,1,27.9,27.9Z"/><path class="b8fd89ed-3c43-474b-85ad-ca075bed0899" d="M351.7,393.2h0a2.69,2.69,0,0,1,2.7,2.7v25.2a2.69,2.69,0,0,1-2.7,2.7H326.5a2.69,2.69,0,0,1-2.7-2.7h0a27.91,27.91,0,0,1,27.9-27.9Z"/><path class="b8fd89ed-3c43-474b-85ad-ca075bed0899" d="M270.9,317A36.91,36.91,0,0,0,322,328.1,37.88,37.88,0,0,0,333.1,317Z"/><path class="a33493b4-a184-43eb-9662-299e3db7bc73" d="M346.1,232.55a10,10,0,0,1-16.57-4.36,31.26,31.26,0,0,0-59.71-.84A10,10,0,1,1,250.55,222a7,7,0,0,1,.26-.81,51.26,51.26,0,0,1,97.92,1.37A10,10,0,0,1,346.1,232.55Z"/><path class="a33493b4-a184-43eb-9662-299e3db7bc73" d="M379.08,222.83a10,10,0,0,1-16.56-4.35,65.65,65.65,0,0,0-125.4-1.76,10,10,0,0,1-19.2-5.6q.08-.28.18-.57a85.63,85.63,0,0,1,163.59,2.29A10,10,0,0,1,379.08,222.83Z"/><path class="a33493b4-a184-43eb-9662-299e3db7bc73" d="M412.06,213.13a10,10,0,0,1-16.53-4.34,100.06,100.06,0,0,0-191.13-2.73,10,10,0,0,1-19-6.18,120.06,120.06,0,0,1,229.31,3.24A10,10,0,0,1,412.06,213.13Z"/><rect class="b6453f28-33ca-4767-8ab7-0e3c6dce2237" width="600" height="600"/></svg>