<svg id="Capa_1" data-name="Capa 1" xmlns="http://www.w3.org/2000/svg" xmlns:xlink="http://www.w3.org/1999/xlink" viewBox="0 0 600 600"><defs><style>.cls-1{fill:url(#Degradado_sin_nombre_16);}.cls-2{fill:#cdeefe;}.cls-3{fill:url(#Degradado_sin_nombre_37);}.cls-4{fill:#4aa3e3;opacity:0.35;}.cls-5{fill:#ed003e;}.cls-6{fill:#fff;}.cls-7{fill:#1564a3;}</style><linearGradient id="Degradado_sin_nombre_16" x1="209.26" y1="126.7" x2="433.23" y2="547.92" gradientUnits="userSpaceOnUse"><stop offset="0" stop-color="#192647"/><stop offset="0" stop-color="#192647" stop-opacity="0.5"/><stop offset="1" stop-color="#192647" stop-opacity="0"/></linearGradient><linearGradient id="Degradado_sin_nombre_37" x1="442.81" y1="305.24" x2="207.67" y2="305.24" gradientUnits="userSpaceOnUse"><stop offset="0" stop-color="#003267" stop-opacity="0.1"/><stop offset="1" stop-color="#003267" stop-opacity="0"/></linearGradient></defs><title>_</title><path class="cls-1" d="M437.26,180.05l-46.32-46.32H196.79a3,3,0,0,0-3,3V517a3,3,0,0,0,3,3H485a3,3,0,0,0,3-3V230.78Z"/><path class="cls-2" d="M345.75,89H151.6a3,3,0,0,0-3,3V472.22a3,3,0,0,0,3,3h56.07l184.4-340Z"/><path class="cls-2" d="M207.67,475.22H439.81a3,3,0,0,0,3-3V186l-50.74-50.73Z"/><path class="cls-3" d="M207.67,475.22H439.81a3,3,0,0,0,3-3V186l-50.74-50.73Z"/><path class="cls-4" d="M308.1,146H199.63a5.71,5.71,0,0,1,0-11.42H308.1a5.71,5.71,0,0,1,0,11.42Z"/><path class="cls-4" d="M308.1,181.23H199.63a5.71,5.71,0,1,1,0-11.41H308.1a5.71,5.71,0,1,1,0,11.41Z"/><path class="cls-4" d="M392.46,251.62H199.63a5.71,5.71,0,1,1,0-11.42H392.46a5.71,5.71,0,1,1,0,11.42Z"/><path class="cls-4" d="M392.46,286.82H199.63a5.71,5.71,0,0,1,0-11.42H392.46a5.71,5.71,0,0,1,0,11.42Z"/><path class="cls-4" d="M392.46,322H199.63a5.71,5.71,0,0,1,0-11.42H392.46a5.71,5.71,0,0,1,0,11.42Z"/><path class="cls-4" d="M392.46,392.4H199.63a5.71,5.71,0,0,1,0-11.42H392.46a5.71,5.71,0,1,1,0,11.42Z"/><path class="cls-4" d="M392.46,427.59H284a5.71,5.71,0,0,1,0-11.42H392.46a5.71,5.71,0,1,1,0,11.42Z"/><path class="cls-5" d="M292.2,209.9,211.73,350.25a4,4,0,0,0,3.5,6H376.17a4,4,0,0,0,3.5-6L299.2,209.9A4,4,0,0,0,292.2,209.9Z"/><path class="cls-6" d="M295.12,310.66a5.76,5.76,0,0,1-5.74-5.79V265.73a5.75,5.75,0,1,1,11.49,0v39.14A5.77,5.77,0,0,1,295.12,310.66Z"/><path class="cls-6" d="M295.13,332.26a5.8,5.8,0,0,1-4.07-1.7,6.07,6.07,0,0,1-.71-.88,5.64,5.64,0,0,1-.53-1,6,6,0,0,1-.33-1.09,6.09,6.09,0,0,1-.1-1.13,5.75,5.75,0,0,1,5.74-5.78,5.76,5.76,0,0,1,4.06,1.7,5.82,5.82,0,0,1,0,8.18A5.8,5.8,0,0,1,295.13,332.26Z"/><path class="cls-7" d="M349.42,186h93.39L345.75,89v93.39A3.6,3.6,0,0,0,349.42,186Z"/></svg>