<svg id="Contenido" xmlns="http://www.w3.org/2000/svg" xmlns:xlink="http://www.w3.org/1999/xlink" viewBox="0 0 600 600"><defs><style>.cls-1{fill:url(#Degradado_sin_nombre_5);}.cls-2{fill:#02a5a5;}.cls-3{fill:#2dcccd;}.cls-4{fill:url(#Degradado_sin_nombre_2);}.cls-5{fill:#b79e5d;}.cls-6{fill:url(#Degradado_sin_nombre_3);}.cls-7{fill:none;}</style><linearGradient id="Degradado_sin_nombre_5" x1="288.38" y1="391.01" x2="450.49" y2="86.11" gradientTransform="matrix(1, 0, 0, -1, 0, 602)" gradientUnits="userSpaceOnUse"><stop offset="0" stop-color="#1c2645"/><stop offset="0" stop-color="#1c2645" stop-opacity="0.5"/><stop offset="1" stop-color="#1c2645" stop-opacity="0"/></linearGradient><linearGradient id="Degradado_sin_nombre_2" x1="445.27" y1="298.84" x2="225.39" y2="298.84" gradientTransform="matrix(1, 0, 0, -1, 0, 602)" gradientUnits="userSpaceOnUse"><stop offset="0" stop-color="#028484" stop-opacity="0.2"/><stop offset="1" stop-color="#028484" stop-opacity="0"/></linearGradient><linearGradient id="Degradado_sin_nombre_3" x1="232.19" y1="307.79" x2="348.92" y2="245.72" gradientTransform="matrix(1, 0, 0, -1, 0, 602)" gradientUnits="userSpaceOnUse"><stop offset="0" stop-color="#fff" stop-opacity="0.3"/><stop offset="0.68" stop-color="#fff" stop-opacity="0"/></linearGradient></defs><path class="cls-1" d="M503.77,193.3c-6.25-17-17.43-31.65-33.78-40.35s-34.75-9.77-52.34-5.44c-57.08,14.05-171.13,96.34-215.72,180.19A154.64,154.64,0,1,0,475,472.89C519.6,389,524.07,248.48,503.77,193.3Z"/><path class="cls-2" d="M454,143.73c-6.24-17-17.42-31.66-33.78-40.36s-34.74-9.78-52.33-5.44C310.77,112,196.73,194.28,152.14,278.12a154.64,154.64,0,0,0,273.08,145.2C469.81,339.47,474.24,198.91,454,143.73Z"/><path class="cls-3" d="M410.7,121.24c13.83,7.35,20.84,20.08,24.28,29.46,9.15,24.89,12.59,72.17,8.77,120.47-4.44,56.21-17.36,106.86-36.39,142.64A134.41,134.41,0,0,1,169.25,289c.25-.47.5-.94.76-1.41,19-35.79,53.79-74.83,97.9-110,37.91-30.18,79-53.77,104.78-60.11,9.71-2.39,24.18-3.69,38,3.67"/><path class="cls-4" d="M410.7,121.24l-.17-.08L225.39,469.31l.16.09a134.4,134.4,0,0,0,181.78-55.55l0,0c19-35.79,31.95-86.45,36.39-142.64,3.78-48.3.38-95.58-8.76-120.47C431.54,141.32,424.53,128.59,410.7,121.24Z"/><ellipse class="cls-5" cx="299.65" cy="330.09" rx="85.05" ry="70.8" transform="translate(-132.48 439.7) rotate(-62)"/><path class="cls-6" d="M237.14,296.85c-22,41.4-12,89.81,22.42,108.24L339.41,254.9C304.91,236.69,259.16,255.43,237.14,296.85Z"/><rect class="cls-7" width="600" height="600"/></svg>