<svg xmlns="http://www.w3.org/2000/svg" xmlns:xlink="http://www.w3.org/1999/xlink" viewBox="0 0 600 600"><defs><style>.cls-1{fill:none;}.cls-2{fill:url(#Degradado_sin_nombre_166);}.cls-3{fill:#0e71b9;}.cls-4{fill:#0a62a7;}.cls-5{fill:url(#Degradado_sin_nombre_7);}.cls-6{fill:#d8722c;}.cls-7{fill:url(#Degradado_sin_nombre_161);}.cls-8{fill:#fff;}.cls-9{fill:url(#Degradado_sin_nombre_180);}</style><linearGradient id="Degradado_sin_nombre_166" x1="165.82" y1="12956.74" x2="442.15" y2="12437.06" gradientTransform="matrix(1, 0, 0, -1, 0, 13010)" gradientUnits="userSpaceOnUse"><stop offset="0" stop-color="#182548" stop-opacity="0.5"/><stop offset="1" stop-color="#182548" stop-opacity="0"/></linearGradient><linearGradient id="Degradado_sin_nombre_7" x1="446.49" y1="12757.5" x2="223.46" y2="12757.5" gradientTransform="matrix(1, 0, 0, -1, 0, 13010)" gradientUnits="userSpaceOnUse"><stop offset="0" stop-color="#003165" stop-opacity="0.8"/><stop offset="1" stop-color="#003165" stop-opacity="0.1"/></linearGradient><linearGradient id="Degradado_sin_nombre_161" x1="215.9" y1="12841.46" x2="318.43" y2="12738.93" gradientTransform="matrix(1, 0, 0, -1, 0, 13010)" gradientUnits="userSpaceOnUse"><stop offset="0.01" stop-color="#eaf9fa" stop-opacity="0.3"/><stop offset="1" stop-color="#eaf9fa" stop-opacity="0.1"/><stop offset="1" stop-color="#e8f7f8" stop-opacity="0.1"/></linearGradient><linearGradient id="Degradado_sin_nombre_180" x1="355.59" y1="12748.05" x2="273.29" y2="12748.05" gradientTransform="matrix(1, 0, 0, -1, 0, 13010)" gradientUnits="userSpaceOnUse"><stop offset="0.01" stop-color="#d8722c" stop-opacity="0.3"/><stop offset="1" stop-color="#eaf9fa" stop-opacity="0.1"/><stop offset="1" stop-color="#d8722c" stop-opacity="0"/></linearGradient></defs><title>11</title><g id="Cuadrados_Blancos" data-name="Cuadrados Blancos"><rect class="cls-1" width="600" height="600"/></g><g id="Capa_125" data-name="Capa 125"><path class="cls-2" d="M514.67,494.41l-57.44-104.5c.21-.11.4-.24.62-.35h0a51.9,51.9,0,0,1,4.73-2.19,51.48,51.48,0,0,0,32.2-47.75c0-.85,0-1.69,0-2.55s-.11-1.69-.2-2.55a51.24,51.24,0,0,0-3.93-15.2h0a52.66,52.66,0,0,1-2.54-7.41,51.47,51.47,0,0,1,2.46-33,51.5,51.5,0,0,0-27.3-67.51l-1-.41h0a51.73,51.73,0,0,1-28.62-28.48h0c-.38-.94-.79-1.85-1.22-2.75-.13-.28-.26-.54-.4-.81-.32-.65-.64-1.27-1-1.9l-.47-.84c-.36-.63-.73-1.24-1.09-1.85l-.43-.67c-.49-.77-1-1.51-1.54-2.19l-.1-.16a48.79,48.79,0,0,0-3.93-4.69l-.18-.21c-.64-.66-1.28-1.32-1.95-1.94l-.23-.21c-.7-.67-1.44-1.31-2.19-1.93h0a51.53,51.53,0,0,0-53.31-7.79h0a51.48,51.48,0,0,1-40.4.08,51.48,51.48,0,0,0-67.5,27.3l-.42,1h0a51.45,51.45,0,0,1-28.48,28.62h0a51.5,51.5,0,0,0-28.45,67l.43,1h0a51.48,51.48,0,0,1,.09,40.4h0a51.48,51.48,0,0,0,27.3,67.5l1,.42h0a52.44,52.44,0,0,1,4.88,2.25L176.68,494.52a5,5,0,0,0,5.59,7.2l54.69-14A5,5,0,0,1,242.9,491l17.53,53.67a5,5,0,0,0,9,.72l55.32-100.63,1-.41h0a52.4,52.4,0,0,1,8-2.67c1.34-.33,2.68-.6,4-.82l.76-.12a51.33,51.33,0,0,1,27.62,3.53h.18L421.9,545.41a5,5,0,0,0,9.07-.86l17.53-53.68a5,5,0,0,1,5.95-3.28l54.65,14a4.95,4.95,0,0,0,5.57-7.18Z"/><path class="cls-3" d="M212,491.66,194.51,438a5,5,0,0,0-6-3.29l-54.69,14a5,5,0,0,1-5.58-7.21l98.08-178.41,92.79,51-98,178.44a5,5,0,0,1-9.07-.86Z"/><path class="cls-3" d="M382.66,491.66,400.19,438a5,5,0,0,1,5.95-3.29l54.68,14a5,5,0,0,0,5.59-7.21l-98.12-178.4-92.79,51,98.09,178.43a5,5,0,0,0,9.07-.86Z"/><path class="cls-4" d="M276.84,101.64h0a51.44,51.44,0,0,0,40.4-.09h0a51.48,51.48,0,0,1,67.62,27c.15.34.29.68.43,1h0a51.5,51.5,0,0,0,28.62,28.49h0A51.48,51.48,0,0,1,442.64,225l-.42,1h0a51.48,51.48,0,0,0,.08,40.4h0a51.49,51.49,0,0,1-27,67.62c-.33.15-.67.29-1,.42h0A51.47,51.47,0,0,0,385.81,363h0a51.5,51.5,0,0,1-66.91,28.72l-1-.42h0a51.52,51.52,0,0,0-40.4.09h0a51.48,51.48,0,0,1-67.62-27c-.15-.34-.29-.68-.43-1h0a51.47,51.47,0,0,0-28.63-28.48h0A51.5,51.5,0,0,1,152.09,268l.42-1h0a51.48,51.48,0,0,0-.08-40.4h0a51.49,51.49,0,0,1,27-67.62l1-.42h0a51.56,51.56,0,0,0,28.48-28.63h0a51.49,51.49,0,0,1,66.92-28.71Z"/><path class="cls-5" d="M442.3,266.41h0a51.48,51.48,0,0,1-.08-40.4h0a51.5,51.5,0,0,0-27.3-67.51l-1-.41a51.51,51.51,0,0,1-28.62-28.48,51.47,51.47,0,0,0-14.74-20.24L223.46,383a51.5,51.5,0,0,0,54,8.42h0a51.48,51.48,0,0,1,40.4-.08h0a51.48,51.48,0,0,0,67.5-27.3l.42-1a51.5,51.5,0,0,1,28.48-28.63h0a51.47,51.47,0,0,0,28.41-67C442.58,267.07,442.44,266.74,442.3,266.41Z"/><circle class="cls-6" cx="297.35" cy="246.5" r="112.73"/><path class="cls-7" d="M297.35,133.77a112.76,112.76,0,0,0-53.57,212L350.31,147A112.2,112.2,0,0,0,297.35,133.77Z"/><path class="cls-8" d="M298.11,191.58l17.53,35.49,39.17,5.68a.87.87,0,0,1,.49,1.47L327,261.85l6.69,39a.86.86,0,0,1-.68,1,.94.94,0,0,1-.57-.09l-35.05-18.42-35.06,18.42a.87.87,0,0,1-1.16-.34,1,1,0,0,1-.09-.57l6.7-39L239.42,234.3a.86.86,0,0,1,0-1.22.87.87,0,0,1,.47-.25l39.17-5.68,17.53-35.5a.86.86,0,0,1,1.13-.43A.8.8,0,0,1,298.11,191.58Z"/><path class="cls-9" d="M354.8,232.78l-39.17-5.69L313.12,222l-39.83,74,24.1-12.64,35.06,18.41a.84.84,0,0,0,1.24-.91l-6.69-39,28.29-27.57a.87.87,0,0,0,.1-1.22A.89.89,0,0,0,354.8,232.78Z"/></g></svg>