<svg id="Capa_1" data-name="Capa 1" xmlns="http://www.w3.org/2000/svg" xmlns:xlink="http://www.w3.org/1999/xlink" viewBox="0 0 600 600"><defs><style>.cls-1{fill:url(#Degradado_sin_nombre_42);}.cls-2{fill:#0e71b9;}.cls-3{fill:#0a62a7;}.cls-4{fill:url(#Degradado_sin_nombre_49);}.cls-5{fill:#f9ce42;}.cls-6{fill:url(#Degradado_sin_nombre_34);}.cls-7{fill:#fff;}.cls-8{fill:url(#Degradado_sin_nombre_8);}</style><linearGradient id="Degradado_sin_nombre_42" x1="179.39" y1="76.73" x2="431.64" y2="551.13" gradientUnits="userSpaceOnUse"><stop offset="0" stop-color="#182548" stop-opacity="0.5"/><stop offset="1" stop-color="#182548" stop-opacity="0"/></linearGradient><linearGradient id="Degradado_sin_nombre_49" x1="435.59" y1="258.61" x2="231.96" y2="258.61" gradientUnits="userSpaceOnUse"><stop offset="0" stop-color="#003165" stop-opacity="0.8"/><stop offset="1" stop-color="#003165" stop-opacity="0.1"/></linearGradient><linearGradient id="Degradado_sin_nombre_34" x1="208.56" y1="204.82" x2="299.48" y2="253.16" gradientUnits="userSpaceOnUse"><stop offset="0.01" stop-color="#eaf9fa" stop-opacity="0.5"/><stop offset="1" stop-color="#eaf9fa" stop-opacity="0.1"/><stop offset="1" stop-color="#e8f7f8" stop-opacity="0.2"/></linearGradient><linearGradient id="Degradado_sin_nombre_8" x1="352.57" y1="267.24" x2="277.49" y2="267.24" gradientUnits="userSpaceOnUse"><stop offset="0" stop-color="#f9ce42" stop-opacity="0.3"/><stop offset="1" stop-color="#f9ce42" stop-opacity="0"/></linearGradient></defs><title>premio</title><path class="cls-1" d="M497.84,479.45l-52.44-95.4c.19-.1.37-.22.57-.32h0a47.13,47.13,0,0,1,4.32-2,47,47,0,0,0,29.39-43.59c0-.77,0-1.54-.05-2.32s-.1-1.55-.18-2.33a46.79,46.79,0,0,0-3.59-13.88h0a48.11,48.11,0,0,1-2.31-6.76,47,47,0,0,1,2.24-30.12,47,47,0,0,0-25.84-62h0a47.21,47.21,0,0,1-26.13-26h0c-.35-.86-.72-1.69-1.11-2.51-.12-.25-.24-.49-.37-.74-.29-.59-.58-1.16-.89-1.73l-.43-.77c-.33-.57-.67-1.13-1-1.69l-.39-.61c-.45-.7-.92-1.38-1.4-2l-.1-.14a45,45,0,0,0-3.58-4.29l-.17-.19c-.58-.6-1.17-1.2-1.78-1.77l-.21-.19c-.64-.61-1.31-1.2-2-1.76v0h0a47,47,0,0,0-48.66-7.11h0a47,47,0,0,1-36.88.07,47,47,0,0,0-62,25.84h0a47,47,0,0,1-26,26.13h0a47,47,0,0,0-25.58,62.12h0a47,47,0,0,1,.08,36.88h0a47,47,0,0,0,25.84,62h0a46.29,46.29,0,0,1,4.46,2.06l-52.35,95.22a4.53,4.53,0,0,0,5.1,6.57l49.92-12.77a4.53,4.53,0,0,1,5.43,3l16,49A4.53,4.53,0,0,0,274,526l50.5-91.86.9-.37h0a46.92,46.92,0,0,1,7.29-2.44c1.22-.3,2.45-.55,3.68-.75l.69-.11a47,47,0,0,1,25.22,3.22l.11,0,.05,0L413.15,526a4.53,4.53,0,0,0,8.28-.78l16-49a4.53,4.53,0,0,1,5.43-3L492.75,486A4.52,4.52,0,0,0,497.84,479.45Z"/><path class="cls-2" d="M221.57,476.94l-16-49a4.54,4.54,0,0,0-5.44-3l-49.92,12.78a4.54,4.54,0,0,1-5.1-6.58l89.54-162.87,84.7,46.56L229.85,477.72A4.53,4.53,0,0,1,221.57,476.94Z"/><path class="cls-2" d="M377.33,476.94l16-49a4.53,4.53,0,0,1,5.43-3l49.92,12.78a4.54,4.54,0,0,0,5.1-6.58L364.21,268.28l-84.7,46.56,89.54,162.88A4.53,4.53,0,0,0,377.33,476.94Z"/><path class="cls-3" d="M280.73,120.9h0a47,47,0,0,0,36.88-.08h0a47,47,0,0,1,62.12,25.58h0a47,47,0,0,0,26.13,26h0a47,47,0,0,1,25.84,62h0a47,47,0,0,0,.07,36.88h0a47,47,0,0,1-25.57,62.11h0a47,47,0,0,0-26,26.13h0a47,47,0,0,1-62,25.84h0a47,47,0,0,0-36.88.08h0a47,47,0,0,1-62.12-25.58h0a47,47,0,0,0-26.13-26h0a47,47,0,0,1-25.84-62h0a47,47,0,0,0-.07-36.88h0a47,47,0,0,1,25.57-62.11h0a47.09,47.09,0,0,0,26-26.14h0A47,47,0,0,1,280.73,120.9Z"/><path class="cls-4" d="M431.77,271.31h0a47,47,0,0,1-.07-36.88h0a47,47,0,0,0-25.84-62,47,47,0,0,1-26.13-26,46.88,46.88,0,0,0-13.46-18.47L232,377.78a47,47,0,0,0,49.33,7.69h0a47,47,0,0,1,36.88-.08h0a47,47,0,0,0,62-25.84,47,47,0,0,1,26-26.13h0A47,47,0,0,0,431.77,271.31Z"/><circle class="cls-5" cx="299.45" cy="253.14" r="102.91"/><path class="cls-6" d="M299.45,150.23a102.93,102.93,0,0,0-48.9,193.49L347.8,162.29A102.43,102.43,0,0,0,299.45,150.23Z"/><path class="cls-7" d="M300.15,203l16,32.4,35.76,5.19a.79.79,0,0,1,.44,1.34l-25.88,25.22,6.11,35.61a.78.78,0,0,1-1.14.83l-32-16.81-32,16.81a.78.78,0,0,1-1.14-.83l6.11-35.61L246.57,242a.79.79,0,0,1,.43-1.34l35.76-5.19,16-32.4A.78.78,0,0,1,300.15,203Z"/><path class="cls-8" d="M351.9,240.61l-35.76-5.19-2.29-4.64-36.36,67.56,22-11.54,32,16.81a.78.78,0,0,0,1.14-.83l-6.11-35.61L352.34,242A.79.79,0,0,0,351.9,240.61Z"/></svg>