<svg xmlns="http://www.w3.org/2000/svg" xmlns:xlink="http://www.w3.org/1999/xlink" viewBox="0 0 600 600"><defs><style>.cls-1,.cls-7{opacity:0.5;isolation:isolate;}.cls-1{fill:url(#Degradado_sin_nombre_168);}.cls-2{fill:#004481;}.cls-3{fill:#f8cd50;}.cls-4{fill:#d4edfc;}.cls-5{fill:#49a5e6;}.cls-6{fill:#eaf9fa;}.cls-7{fill:url(#Degradado_sin_nombre_51);}</style><linearGradient id="Degradado_sin_nombre_168" x1="-29.95" y1="-311.35" x2="776.12" y2="1204.65" gradientUnits="userSpaceOnUse"><stop offset="0" stop-color="#192647" stop-opacity="0.5"/><stop offset="1" stop-color="#192647" stop-opacity="0"/></linearGradient><linearGradient id="Degradado_sin_nombre_51" x1="195.4" y1="290.35" x2="290.59" y2="385.53" gradientUnits="userSpaceOnUse"><stop offset="0" stop-color="#fff"/><stop offset="1" stop-color="#fff" stop-opacity="0.2"/></linearGradient></defs><title>11</title><g id="Capa_109" data-name="Capa 109"><path class="cls-1" d="M484.7,229.26a17,17,0,0,0-.12-24,.46.46,0,0,0-.07-.07,17,17,0,0,0-24-.14h0c-5.94,6-5.34,10.93-12.09,17.68-5.05,5.05-12.45-2.73-25.83-2.83-6.46,0-12.32,4-14.66,5.82L404.21,222a8.41,8.41,0,0,0-9-1.9l-12.93,5.15a8.22,8.22,0,0,0-2.79,1.84l-11.29,11.29a50.09,50.09,0,0,0-58.44,3.42,49.12,49.12,0,0,0-6,6l-36.81,41.54c-18.06,20.84-53.08,55.86-73.92,73.92l-41.57,36.84a49.21,49.21,0,0,0-2.59,73l67.74,67.74a50.08,50.08,0,0,0,67,3.5,49.12,49.12,0,0,0,6-6l36.84-41.57c18.06-20.84,53.08-55.86,73.93-73.92L441.88,386a49.12,49.12,0,0,0,6-6,50.09,50.09,0,0,0,3.45-58.5l11-11.09a8.27,8.27,0,0,0,1.81-2.75l5.33-13.21a8.39,8.39,0,0,0-1.88-9.06l-3.56-3.56c1.83-2.34,5.84-8.21,5.81-14.66-.08-13.42-7.87-20.79-2.84-25.83C473.78,234.6,478.77,235.2,484.7,229.26Z"/><path class="cls-2" d="M408.81,280.09,325.68,197l12.49-12.49a8.17,8.17,0,0,1,2.79-1.84l12.93-5.14a8.39,8.39,0,0,1,9,1.89l63.4,63.4a8.41,8.41,0,0,1,1.89,9.07l-5.33,13.21a8.13,8.13,0,0,1-1.81,2.74Z"/><path class="cls-3" d="M429.55,223.55c-.08-13.42-7.87-20.78-2.83-25.82,6.75-6.75,11.74-6.16,17.68-12.09a17,17,0,0,0-.12-24l-.07-.07h0a17,17,0,0,0-24-.13h0c-5.95,5.94-5.34,10.92-12.1,17.67-5,5.05-12.45-2.72-25.82-2.83-8.36,0-15.75,6.72-15.75,6.72l56.35,56.35S429.59,231.9,429.55,223.55Z"/><path class="cls-4" d="M175.3,498.19l-67.74-67.73a50.09,50.09,0,0,1-3.4-67,49.2,49.2,0,0,1,6-6l41.56-36.83c20.85-18.06,55.86-53.08,73.93-73.93l36.8-41.53a49.12,49.12,0,0,1,6-6,50.08,50.08,0,0,1,67,3.44l67.74,67.74a49.25,49.25,0,0,1-2.61,73L359,380.22c-20.84,18.06-55.86,53.08-73.92,73.92L248.25,495.7a49.2,49.2,0,0,1-6,6A50.09,50.09,0,0,1,175.3,498.19Z"/><path class="cls-5" d="M393.92,279.57a36.34,36.34,0,0,1-1.85,53.93l-41.56,36.83c-21.27,18.44-56.79,54-75.23,75.23l-36.82,41.55a36.27,36.27,0,0,1-53.88,1.8l-67.74-67.73a36.34,36.34,0,0,1,1.85-53.93l41.56-36.84c21.27-18.43,56.8-54,75.23-75.22l36.84-41.57a35,35,0,0,1,4.39-4.39,36.88,36.88,0,0,1,49.52,2.55L394,279.52"/><path class="cls-6" d="M116.84,421.18l67.74,67.73a36.27,36.27,0,0,0,53.88-1.8l36.82-41.55c18.44-21.27,54-56.79,75.23-75.23l41.56-36.83a36.57,36.57,0,0,0,4.4-4.4,37.34,37.34,0,0,0,2.74-3.89Q389.1,319.45,379,314.46L353.6,301.93c-33.19-16.31-66.76-46.82-88.84-79.54l-29.27,32.82c-18.43,21.28-54,56.8-75.23,75.23L118.7,367.28a36.32,36.32,0,0,0-1.86,53.9Z"/><path class="cls-7" d="M326.23,211.78a36.88,36.88,0,0,0-49.52-2.55,35,35,0,0,0-4.39,4.39l-36.84,41.57c-18.43,21.27-54,56.79-75.23,75.22l-41.56,36.84a36.34,36.34,0,0,0-1.85,53.93l67.74,67.73c.44.45.89.87,1.34,1.29L330.14,215.69Z"/></g></svg>