<svg xmlns="http://www.w3.org/2000/svg" xmlns:xlink="http://www.w3.org/1999/xlink" viewBox="0 0 600 600"><defs><style>.cls-1{fill:none;}.cls-11,.cls-2{opacity:0.5;isolation:isolate;}.cls-2{fill:url(#Degradado_sin_nombre_4);}.cls-3{fill:#043263;}.cls-4{fill:#f8cd50;}.cls-5{fill:#d4edfc;}.cls-6{fill:#49a5e6;}.cls-7{fill:#eaf9fa;}.cls-8{fill:#f8cd51;}.cls-9{fill:url(#Degradado_sin_nombre_18);}.cls-10{fill:#fef5dc;}.cls-11{fill:url(#Degradado_sin_nombre_51);}</style><linearGradient id="Degradado_sin_nombre_4" x1="306.13" y1="270.23" x2="505.54" y2="469.65" gradientUnits="userSpaceOnUse"><stop offset="0" stop-color="#192647"/><stop offset="0" stop-color="#192647" stop-opacity="0.5"/><stop offset="1" stop-color="#192647" stop-opacity="0"/></linearGradient><linearGradient id="Degradado_sin_nombre_18" x1="281.7" y1="-11341.77" x2="358.68" y2="-11382.7" gradientTransform="matrix(1, 0, 0, -1, 0, -10986)" gradientUnits="userSpaceOnUse"><stop offset="0" stop-color="#fff" stop-opacity="0.6"/><stop offset="1" stop-color="#fff" stop-opacity="0.2"/></linearGradient><linearGradient id="Degradado_sin_nombre_51" x1="234.4" y1="272.35" x2="329.59" y2="367.53" gradientUnits="userSpaceOnUse"><stop offset="0" stop-color="#fff"/><stop offset="1" stop-color="#fff" stop-opacity="0.2"/></linearGradient></defs><title>11</title><g id="Cuadrados_Blancos" data-name="Cuadrados Blancos"><rect class="cls-1" width="600" height="600"/></g><g id="Capa_113" data-name="Capa 113"><path class="cls-2" d="M526.4,212.64a17,17,0,0,0-.12-24l-.07-.07a17,17,0,0,0-24-.13h0c-5.95,5.94-5.34,10.92-12.1,17.67-5,5.05-12.45-2.72-25.82-2.83-6.46,0-12.33,4-14.67,5.83l-3.68-3.69a8.39,8.39,0,0,0-9-1.89L424,208.62a8.17,8.17,0,0,0-2.79,1.84l-11.29,11.29a50.11,50.11,0,0,0-58.45,3.43,49.12,49.12,0,0,0-6,6l-36.8,41.53c-18.07,20.85-53.08,55.87-73.93,73.93l-41.56,36.83a49.2,49.2,0,0,0-6,6,50.09,50.09,0,0,0,3.4,67l67.74,67.73a50.09,50.09,0,0,0,67,3.51,49.2,49.2,0,0,0,6-6l10-11.29A92.83,92.83,0,0,0,495.76,441v0a92.66,92.66,0,0,0-23.39-61.6l11.21-9.93a49.06,49.06,0,0,0,9.43-64.5l11-11.09a8.13,8.13,0,0,0,1.81-2.74l5.33-13.21a8.41,8.41,0,0,0-1.89-9.07l-3.55-3.55c1.82-2.35,5.83-8.22,5.8-14.67-.08-13.42-7.87-20.78-2.83-25.82C515.47,218,520.46,218.57,526.4,212.64Z"/><path class="cls-3" d="M447.81,262.09,364.68,179l12.49-12.49a8.17,8.17,0,0,1,2.79-1.84l12.93-5.14a8.39,8.39,0,0,1,9,1.89l63.4,63.4a8.41,8.41,0,0,1,1.89,9.07l-5.33,13.21a8.13,8.13,0,0,1-1.81,2.74Z"/><path class="cls-4" d="M468.55,205.55c-.08-13.42-7.87-20.78-2.83-25.82,6.75-6.75,11.74-6.16,17.68-12.09a17,17,0,0,0-.12-24l-.07-.07h0a17,17,0,0,0-24-.13h0c-5.95,5.94-5.34,10.92-12.1,17.67-5,5.05-12.45-2.72-25.82-2.83-8.36,0-15.75,6.72-15.75,6.72l56.35,56.35S468.59,213.9,468.55,205.55Z"/><path class="cls-5" d="M214.3,480.19l-67.74-67.73a50.09,50.09,0,0,1-3.4-67,49.2,49.2,0,0,1,6-6l41.56-36.83c20.85-18.06,55.86-53.08,73.93-73.93l36.8-41.53a49.12,49.12,0,0,1,6-6,50.08,50.08,0,0,1,67,3.44l67.74,67.74a49.25,49.25,0,0,1-2.61,73L398,362.22c-20.84,18.06-55.86,53.08-73.92,73.92L287.25,477.7a49.2,49.2,0,0,1-6,6A50.09,50.09,0,0,1,214.3,480.19Z"/><path class="cls-6" d="M432.92,261.57a36.34,36.34,0,0,1-1.85,53.93l-41.56,36.83c-21.27,18.44-56.79,54-75.23,75.23l-36.82,41.55a36.27,36.27,0,0,1-53.88,1.8l-67.74-67.73a36.34,36.34,0,0,1,1.85-53.93l41.56-36.84c21.27-18.43,56.8-54,75.23-75.22l36.84-41.57a35,35,0,0,1,4.39-4.39,36.88,36.88,0,0,1,49.52,2.55L433,261.52"/><path class="cls-7" d="M155.84,403.18l67.74,67.73a36.27,36.27,0,0,0,53.88-1.8l36.82-41.55c18.44-21.27,54-56.79,75.23-75.23l41.56-36.83a36.57,36.57,0,0,0,4.4-4.4,37.34,37.34,0,0,0,2.74-3.89Q428.1,301.45,418,296.46L392.6,283.93c-33.19-16.31-66.76-46.82-88.84-79.54l-29.27,32.82c-18.43,21.28-54,56.8-75.23,75.23L157.7,349.28a36.32,36.32,0,0,0-1.86,53.9Z"/><path class="cls-8" d="M451.76,397a92.93,92.93,0,1,1-93-92.94h0a93,93,0,0,1,93,92.9v0"/><path class="cls-9" d="M402.4,314.71c-45.22-24-101.29-6.69-125.56,38.43S270,454.76,315.23,478.82Z"/><path class="cls-10" d="M326.34,393.53H313.69V384h13.79c3.84-21.49,17.21-31.3,32.7-31.3,16.36,0,25,8.4,29.29,18.92l-12,6.83c-3-9-8.25-13.23-17.21-13.23-9.53,0-16.35,6.12-18.77,18.78h21.47v9.54H340.45v3c0,1.72,0,3.42.15,5h22.46v9.67H341.75c2.41,11.82,8.34,17.93,18.76,17.93,9,0,14.37-4,17.61-13.94l11.8,7.12c-4.83,11.12-14.83,19.07-29.57,19.07-16.07,0-28.73-9.54-32.71-30.18h-13.9V401.5h12.79c-.14-1.57-.14-3.13-.14-4.7v-3.27Z"/><path class="cls-11" d="M365.23,193.78a36.88,36.88,0,0,0-49.52-2.55,35,35,0,0,0-4.39,4.39l-36.84,41.57c-18.43,21.27-54,56.79-75.23,75.22l-41.56,36.84a36.34,36.34,0,0,0-1.85,53.93l67.74,67.73c.44.45.89.87,1.34,1.29L369.14,197.69Z"/></g></svg>