<svg xmlns="http://www.w3.org/2000/svg" xmlns:xlink="http://www.w3.org/1999/xlink" viewBox="0 0 600 600"><defs><style>.cls-1{fill:none;}.cls-2,.cls-8{opacity:0.5;isolation:isolate;}.cls-2{fill:url(#Degradado_sin_nombre_373);}.cls-3{fill:#1464a5;}.cls-4{fill:#f8cd50;}.cls-5{fill:#d4edfc;}.cls-6{fill:#49a5e6;}.cls-7{fill:#eaf9fa;}.cls-8{fill:url(#Degradado_sin_nombre_51);}</style><linearGradient id="Degradado_sin_nombre_373" x1="-1.07" y1="-346.03" x2="805" y2="1169.97" gradientUnits="userSpaceOnUse"><stop offset="0" stop-color="#192647" stop-opacity="0.5"/><stop offset="1" stop-color="#192647" stop-opacity="0"/></linearGradient><linearGradient id="Degradado_sin_nombre_51" x1="224.28" y1="255.67" x2="319.47" y2="350.86" gradientUnits="userSpaceOnUse"><stop offset="0" stop-color="#fff"/><stop offset="1" stop-color="#fff" stop-opacity="0.2"/></linearGradient></defs><title>11</title><g id="Cuadrados_Blancos" data-name="Cuadrados Blancos"><rect class="cls-1" width="600" height="600"/></g><g id="Capa_109" data-name="Capa 109"><path class="cls-2" d="M513.58,194.59a17,17,0,0,0-.12-24.05l-.06-.06a17,17,0,0,0-24-.14h0c-5.94,5.94-5.34,10.92-12.09,17.67-5.05,5.05-12.45-2.72-25.83-2.83-6.45,0-12.32,4-14.66,5.83l-3.68-3.69a8.4,8.4,0,0,0-9-1.89l-12.93,5.14a8.53,8.53,0,0,0-2.79,1.84L397.06,203.7a50.09,50.09,0,0,0-58.44,3.43,48.42,48.42,0,0,0-6,6l-36.81,41.53c-18.06,20.85-53.08,55.87-73.92,73.93l-41.57,36.84a49.12,49.12,0,0,0-6,6,50.08,50.08,0,0,0,3.41,67l67.73,67.73a50.1,50.1,0,0,0,67,3.51,48.58,48.58,0,0,0,6-6l36.83-41.56c18.07-20.84,53.08-55.86,73.93-73.92l41.56-36.84a49.12,49.12,0,0,0,6-6,50.09,50.09,0,0,0,3.45-58.51l11-11.09A8.11,8.11,0,0,0,493,273l5.34-13.21a8.41,8.41,0,0,0-1.89-9.07l-3.56-3.55c1.83-2.34,5.84-8.22,5.81-14.67-.08-13.42-7.87-20.78-2.83-25.82C502.66,199.93,507.65,200.52,513.58,194.59Z"/><path class="cls-3" d="M437.7,245.41l-83.14-83.13,12.49-12.49a8,8,0,0,1,2.79-1.84l12.93-5.15a8.39,8.39,0,0,1,9,1.9l63.4,63.4a8.41,8.41,0,0,1,1.89,9.07l-5.33,13.2a8.27,8.27,0,0,1-1.81,2.75Z"/><path class="cls-4" d="M458.43,188.88c-.07-13.42-7.87-20.79-2.83-25.83,6.75-6.75,11.74-6.15,17.68-12.09a17,17,0,0,0-.12-24l-.07-.07h0a17,17,0,0,0-24-.14h0c-5.95,6-5.34,10.93-12.09,17.68-5,5.05-12.45-2.72-25.83-2.83-8.35-.05-15.75,6.72-15.75,6.72l56.35,56.35S458.47,197.23,458.43,188.88Z"/><path class="cls-5" d="M204.18,463.52l-67.74-67.74a50.09,50.09,0,0,1-3.4-67,49.12,49.12,0,0,1,6-6L180.59,286c20.85-18.06,55.86-53.08,73.93-73.92l36.8-41.53a49.19,49.19,0,0,1,73-2.55l67.74,67.74a49.29,49.29,0,0,1-2.61,73l-41.57,36.83C367.05,363.6,332,398.62,314,419.47L277.13,461a48.42,48.42,0,0,1-6,6A50.08,50.08,0,0,1,204.18,463.52Z"/><path class="cls-6" d="M422.8,244.9a36.88,36.88,0,0,1,2.55,49.53,35.69,35.69,0,0,1-4.39,4.39l-41.57,36.84c-21.27,18.43-56.79,53.95-75.23,75.23l-36.82,41.55a36.27,36.27,0,0,1-53.88,1.8L145.72,386.5A36.89,36.89,0,0,1,143.17,337a35.78,35.78,0,0,1,4.4-4.39l41.56-36.84c21.28-18.43,56.8-54,75.23-75.23L301.2,179a36.49,36.49,0,0,1,4.39-4.4,36.87,36.87,0,0,1,49.52,2.56l67.74,67.74"/><path class="cls-7" d="M145.72,386.5l67.74,67.74a36.27,36.27,0,0,0,53.88-1.8l36.82-41.55c18.44-21.28,54-56.8,75.23-75.23L421,298.82a35.69,35.69,0,0,0,4.39-4.39,39,39,0,0,0,2.75-3.89q-10.12-5.76-20.25-10.75l-25.36-12.53c-33.2-16.31-66.77-46.83-88.85-79.55l-29.27,32.83c-18.43,21.27-54,56.8-75.23,75.23L147.58,332.6a36.32,36.32,0,0,0-1.86,53.9Z"/><path class="cls-8" d="M355.11,177.11a36.87,36.87,0,0,0-49.52-2.56,36.49,36.49,0,0,0-4.39,4.4l-36.84,41.56c-18.43,21.27-54,56.8-75.23,75.23l-41.56,36.84a35.78,35.78,0,0,0-4.4,4.39,36.89,36.89,0,0,0,2.55,49.53l67.74,67.74c.44.44.89.87,1.34,1.28L359,181Z"/></g></svg>