<svg xmlns="http://www.w3.org/2000/svg" xmlns:xlink="http://www.w3.org/1999/xlink" viewBox="0 0 600 600"><defs><style>.cls-1{fill:none;}.cls-2{fill:url(#Degradado_sin_nombre_579);}.cls-3{fill:#043263;}.cls-4{fill:url(#Degradado_sin_nombre_148);}.cls-5{fill:#d4edfc;}.cls-6{fill:#f8cd50;}.cls-7{fill:#072146;}.cls-8{fill:#2dcccd;}.cls-9{fill:#49a5e6;}.cls-10{fill:url(#Degradado_sin_nombre_148-2);}.cls-11{fill:url(#Degradado_sin_nombre_122);}.cls-12{fill:url(#Degradado_sin_nombre_144);}.cls-13{fill:url(#Degradado_sin_nombre_134);}.cls-14{fill:url(#Degradado_sin_nombre_133);}</style><linearGradient id="Degradado_sin_nombre_579" x1="211.09" y1="103.94" x2="468.48" y2="588.02" gradientUnits="userSpaceOnUse"><stop offset="0" stop-color="#1c2645" stop-opacity="0.5"/><stop offset="1" stop-color="#1c2645" stop-opacity="0"/></linearGradient><linearGradient id="Degradado_sin_nombre_148" x1="314.45" y1="175.65" x2="281.89" y2="175.65" gradientUnits="userSpaceOnUse"><stop offset="0" stop-color="#072146" stop-opacity="0.8"/><stop offset="1" stop-color="#072146" stop-opacity="0.1"/></linearGradient><linearGradient id="Degradado_sin_nombre_148-2" x1="514.33" y1="237.08" x2="285.63" y2="237.08" xlink:href="#Degradado_sin_nombre_148"/><linearGradient id="Degradado_sin_nombre_122" x1="282.77" y1="74.45" x2="302.33" y2="94.01" gradientUnits="userSpaceOnUse"><stop offset="0" stop-color="#fff" stop-opacity="0.5"/><stop offset="1" stop-color="#fff" stop-opacity="0.2"/></linearGradient><linearGradient id="Degradado_sin_nombre_144" x1="262.88" y1="290.42" x2="307.51" y2="335.05" gradientUnits="userSpaceOnUse"><stop offset="0" stop-color="#fff" stop-opacity="0.5"/><stop offset="1" stop-color="#fff" stop-opacity="0.1"/></linearGradient><linearGradient id="Degradado_sin_nombre_134" x1="247.46" y1="452.41" x2="170.55" y2="452.41" gradientUnits="userSpaceOnUse"><stop offset="0" stop-color="#028484" stop-opacity="0.5"/><stop offset="1" stop-color="#028484" stop-opacity="0"/></linearGradient><linearGradient id="Degradado_sin_nombre_133" x1="448.76" y1="406.54" x2="379.15" y2="406.54" gradientUnits="userSpaceOnUse"><stop offset="0.01" stop-color="#043263" stop-opacity="0.3"/><stop offset="0.99" stop-color="#043263" stop-opacity="0"/></linearGradient></defs><title>11</title><g id="Cuadrados_Blancos" data-name="Cuadrados Blancos"><rect class="cls-1" width="600" height="600"/></g><g id="Capa_121" data-name="Capa 121"><path class="cls-2" d="M543.13,274.83c-41.62-21-95.87-34.83-154.88-39.41V220a13,13,0,0,0-13-13H361.11V190a6.5,6.5,0,0,0-6.51-6.51h-4.34V167.07c0-2.8,3.72-11,6.44-16.94,4.48-9.84,7.2-16.14,7.2-20.71a19.07,19.07,0,1,0-38.13,0c0,4.59,2.74,11,7.25,20.9,2.55,5.6,6.39,14.06,6.39,16.75v16.37h-4.34a6.51,6.51,0,0,0-6.52,6.51v17h-14.1a13,13,0,0,0-13,13v15.41c-59,4.58-113.26,18.4-154.88,39.41a32.55,32.55,0,0,0-11.46,48.44l.89,1.2a6.5,6.5,0,0,0,8.85,1.54c22.09-15,51.89-27.15,86.05-35.58V455.35L203.61,441a2.81,2.81,0,0,0-4.08,3l6,34.95a2.79,2.79,0,0,1-.81,2.48l-25.39,24.75a2.81,2.81,0,0,0,1.56,4.8l35.09,5.1a2.8,2.8,0,0,1,2.12,1.54l15.69,31.8a2.81,2.81,0,0,0,5,0l15.7-31.8a2.81,2.81,0,0,1,2.11-1.54l35.09-5.1a2.81,2.81,0,0,0,1.56-4.8l-25.39-24.75a2.79,2.79,0,0,1-.81-2.48l6-34.95a2.82,2.82,0,0,0-4.08-3l-27.27,14.34V287.92a486.32,486.32,0,0,1,97.68-10.73v41.89a48.84,48.84,0,1,0,10.85,0V277.19a486.32,486.32,0,0,1,97.68,10.73V398.74a55.58,55.58,0,0,0,21.71,106.77,55.39,55.39,0,0,0,24-5.43,3.26,3.26,0,0,0-.68-6.08,45.65,45.65,0,0,1,0-88.24,3.26,3.26,0,0,0,.67-6.09,55.35,55.35,0,0,0-23.6-5.41,54.48,54.48,0,0,0-11.2,1.08V290.43c34.16,8.43,64,20.57,86.05,35.58a6.5,6.5,0,0,0,8.85-1.54l.89-1.2A32.55,32.55,0,0,0,543.13,274.83ZM336.62,129.42a8.22,8.22,0,0,1,16.43,0c0,2.55-3.75,10.77-6.23,16.21q-1.06,2.35-2,4.45l-1.91-4.25C340.41,140.32,336.62,132,336.62,129.42Z"/><path class="cls-3" d="M314.45,211.28H281.89V146.54A6.51,6.51,0,0,1,288.4,140h19.53a6.52,6.52,0,0,1,6.52,6.52Z"/><path class="cls-4" d="M307.93,140h-1.71l-24.33,43.9v27.36h32.56V146.54A6.52,6.52,0,0,0,307.93,140Z"/><rect class="cls-5" x="292.74" y="232.39" width="10.85" height="74.37"/><rect class="cls-5" x="184.2" y="232.39" width="10.85" height="223.06"/><rect class="cls-5" x="401.27" y="232.39" width="10.85" height="125.38"/><path class="cls-6" d="M298.17,66.94A19.08,19.08,0,0,0,279.1,86c0,4.59,2.74,11,7.26,20.91,2.54,5.6,6.38,14.06,6.38,16.74V140h10.85V123.65c0-2.79,3.72-11,6.44-16.94,4.48-9.83,7.2-16.13,7.2-20.71A19.08,19.08,0,0,0,298.17,66.94Zm2,35.28q-1.06,2.34-2,4.44c-.6-1.34-1.23-2.75-1.91-4.24C293.74,96.91,290,88.58,290,86a8.22,8.22,0,0,1,16.43,0C306.38,88.55,302.63,96.78,300.15,102.22Z"/><path class="cls-7" d="M267.78,163.57h60.78a13,13,0,0,1,13,13v19.54a0,0,0,0,1,0,0H254.75a0,0,0,0,1,0,0V176.59A13,13,0,0,1,267.78,163.57Z"/><path class="cls-3" d="M89.3,281.06l-.89-1.2a32.55,32.55,0,0,1,11.46-48.44c51.66-26.08,122.76-41.1,198.3-41.1s146.63,15,198.29,41.1a32.55,32.55,0,0,1,11.46,48.44l-.89,1.2a6.48,6.48,0,0,1-8.85,1.53c-44.5-30.24-120.29-48.85-200-48.85s-155.52,18.61-200,48.86A6.5,6.5,0,0,1,89.3,281.06Z"/><path class="cls-8" d="M187.11,506l-15.69-31.8a2.79,2.79,0,0,0-2.12-1.53l-35.09-5.1a2.81,2.81,0,0,1-1.56-4.8L158,438a2.79,2.79,0,0,0,.81-2.49l-6-34.95a2.81,2.81,0,0,1,4.08-3l31.38,16.5a2.82,2.82,0,0,0,2.62,0l31.39-16.5a2.81,2.81,0,0,1,4.08,3l-6,34.95a2.85,2.85,0,0,0,.81,2.49l25.39,24.75a2.81,2.81,0,0,1-1.56,4.8L210,472.65a2.79,2.79,0,0,0-2.11,1.53L192.15,506A2.81,2.81,0,0,1,187.11,506Z"/><circle class="cls-6" cx="298.17" cy="324.2" r="48.84"/><path class="cls-9" d="M412.34,406.47a45.65,45.65,0,0,1,33.92-44.12,3.26,3.26,0,0,0,.67-6.09,55.35,55.35,0,0,0-23.6-5.42A55.63,55.63,0,1,0,423,462.09a55.32,55.32,0,0,0,24-5.43,3.25,3.25,0,0,0-.69-6.07A45.66,45.66,0,0,1,412.34,406.47Z"/><path class="cls-10" d="M309.71,190.45,285.63,233.9q6.24-.15,12.54-.16c79.72,0,155.51,18.61,200,48.85a6.48,6.48,0,0,0,8.85-1.53l.89-1.2a32.55,32.55,0,0,0-11.46-48.44c-49-24.74-115.54-39.52-186.75-41"/><path class="cls-11" d="M290,86a8.2,8.2,0,0,1,13.11-6.58l5.11-9.61a18.87,18.87,0,0,0-10-2.87A19.08,19.08,0,0,0,279.1,86c0,4.59,2.74,11,7.26,20.91.3.67.62,1.38,1,2.12l6.44-12.13C291.8,92.41,290,87.8,290,86Z"/><path class="cls-12" d="M298.17,275.36a48.84,48.84,0,0,0-22.93,92l45.86-86.25A48.69,48.69,0,0,0,298.17,275.36Z"/><path class="cls-13" d="M246.61,462.75,221.22,438a2.85,2.85,0,0,1-.81-2.49l6-34.95a2.81,2.81,0,0,0-4.08-3l-16.11,8.47-35.67,67.08a3,3,0,0,1,.87,1L187.11,506a2.81,2.81,0,0,0,5,0l15.7-31.8a2.79,2.79,0,0,1,2.11-1.53l35.09-5.1A2.81,2.81,0,0,0,246.61,462.75Z"/><path class="cls-14" d="M446.27,450.59a45.65,45.65,0,0,1,0-88.24,3.26,3.26,0,0,0,.67-6.09A55.45,55.45,0,0,0,426.84,351l-47.69,89.71a55.61,55.61,0,0,0,67.81,16A3.25,3.25,0,0,0,446.27,450.59Z"/></g></svg>