<svg id="Contenido" xmlns="http://www.w3.org/2000/svg" xmlns:xlink="http://www.w3.org/1999/xlink" viewBox="0 0 600 600"><defs><style>.cls-1{fill:none;}.cls-2{fill:url(#Degradado_sin_nombre);}.cls-3{fill:#1464a5;}.cls-4{fill:url(#Degradado_sin_nombre_2);}.cls-5{fill:#2dcccd;}.cls-6{clip-path:url(#clip-path);}.cls-7{fill:#d72544;}.cls-8{fill:#fff;}</style><linearGradient id="Degradado_sin_nombre" x1="275.06" y1="294.03" x2="436.59" y2="597.82" gradientTransform="translate(0 -98)" gradientUnits="userSpaceOnUse"><stop offset="0" stop-color="#192647" stop-opacity="0.5"/><stop offset="1" stop-color="#192647" stop-opacity="0"/></linearGradient><linearGradient id="Degradado_sin_nombre_2" x1="450.21" y1="430.87" x2="197.38" y2="430.87" gradientTransform="translate(0 -98)" gradientUnits="userSpaceOnUse"><stop offset="0" stop-color="#043263" stop-opacity="0.6"/><stop offset="1" stop-color="#043263" stop-opacity="0"/></linearGradient><clipPath id="clip-path"><path class="cls-1" d="M186,302.8a38.69,38.69,0,0,1,0,47.76l19.76,8.24a48.51,48.51,0,0,0,0-65.06Zm42-18.12,23.85-9.88a90.49,90.49,0,0,1,1.48,101.58l-1.48,2.18-23.74-9.77a65.17,65.17,0,0,0,1.47-82.26l-1.47-1.74L252,274.91Zm45.31-19.76,23-9.94A132.59,132.59,0,0,1,298,394.83l-1.64,2.67-23-9.88a108,108,0,0,0,1.58-120.36l-1.58-2.34,23-9.94Zm67.26,83.6a149.75,149.75,0,0,0-22-102.6L341.66,236a174.7,174.7,0,0,1,0,181.22l-23.09-9.88a149.48,149.48,0,0,0,22-58.86"/></clipPath></defs><path class="cls-2" d="M543.37,270,472.9,147.05a3.54,3.54,0,0,0-6.13,0L424.6,220.6c-1.9-1.3-3.83-2.55-5.79-3.77l-.22-.14q-4.81-3-9.85-5.69h0a172,172,0,0,0-157,306.09h.06q6.85,3.39,14,6.17h.08c1.5.58,3,1.13,4.54,1.67l.5.18c1.47.51,2.94,1,4.42,1.48l.35.11q4.83,1.54,9.79,2.8l.43.1c1.43.36,2.86.7,4.3,1l1.1.24c1.26.27,2.52.53,3.79.77l1.2.23c1.38.26,2.77.5,4.16.72l.72.12c1.66.26,3.33.49,5,.7l.69.08c1.39.17,2.79.32,4.19.46l1.55.14,3.42.26,1.72.11c1.16.07,2.32.12,3.49.16l1.54.06c1.67.05,3.34.08,5,.08a172,172,0,0,0,172-172h0c0-1.84,0-3.67-.1-5.49l-.06-1.55c-.06-1.43-.13-2.85-.22-4.27l-.09-1.31c-.13-1.8-.28-3.59-.47-5.36a9.29,9.29,0,0,0-.12-1.06c-.16-1.46-.34-2.92-.54-4.37l-.21-1.51c-.23-1.57-.47-3.13-.74-4.68a3.47,3.47,0,0,0-.11-.63c-.31-1.76-.65-3.5-1-5.24-.1-.44-.19-.87-.29-1.31-.3-1.37-.61-2.74-.95-4.1-.1-.43-.2-.86-.31-1.28-.42-1.73-.88-3.45-1.37-5.14a1.47,1.47,0,0,0-.13-.42c-.45-1.57-.93-3.12-1.42-4.66-.14-.43-.27-.86-.41-1.28-.48-1.44-1-2.88-1.48-4.3l-.25-.73q-.92-2.52-1.91-5c-.11-.29-.23-.58-.35-.86-.56-1.39-1.14-2.77-1.74-4.13-.15-.36-.3-.71-.46-1.06q-2.16-4.87-4.62-9.59l-.47-.9c-.73-1.38-1.47-2.75-2.24-4.11-.12-.2-.23-.41-.34-.61l-1.53-2.62h64.41a3.53,3.53,0,0,0,3.53-3.53h0A3.44,3.44,0,0,0,543.37,270Z"/><circle class="cls-3" cx="277.99" cy="322.69" r="172"/><path class="cls-4" d="M358.9,170.88,197.38,474.69A172,172,0,1,0,358.9,170.88Z"/><path class="cls-5" d="M186,302.8a38.69,38.69,0,0,1,0,47.76l19.76,8.24a48.51,48.51,0,0,0,0-65.06Zm42-18.12,23.85-9.88a90.49,90.49,0,0,1,1.48,101.58l-1.48,2.18-23.74-9.77a65.17,65.17,0,0,0,1.47-82.26l-1.47-1.74L252,274.91Zm45.31-19.76,23-9.94A132.59,132.59,0,0,1,298,394.83l-1.64,2.67-23-9.88a108,108,0,0,0,1.58-120.36l-1.58-2.34,23-9.94Zm67.26,83.6a149.75,149.75,0,0,0-22-102.6L341.66,236a174.7,174.7,0,0,1,0,181.22l-23.09-9.88a149.48,149.48,0,0,0,22-58.86"/><g class="cls-6"><rect class="cls-5" x="144.83" y="195" width="263.37" height="263.53"/></g><path class="cls-7" d="M416.92,106.93,346.45,229.84a3.53,3.53,0,0,0,1.3,4.82h0a3.66,3.66,0,0,0,1.77.47H490.46a3.54,3.54,0,0,0,3.54-3.52,3.36,3.36,0,0,0-.47-1.77L423.06,106.93a3.53,3.53,0,0,0-4.81-1.32h0A3.58,3.58,0,0,0,416.92,106.93Z"/><path class="cls-8" d="M419.48,195.16a5.06,5.06,0,0,1-5-5.06V155.82a5,5,0,0,1,10.06,0V190.1a5,5,0,0,1-4.93,5.06Z"/><path class="cls-8" d="M419.49,214.08a5.11,5.11,0,0,1-3.56-1.49,6.61,6.61,0,0,1-.63-.77,6,6,0,0,1-.46-.87,6.49,6.49,0,0,1-.29-.95,5.55,5.55,0,0,1-.09-1,5.16,5.16,0,0,1,1.47-3.57,5,5,0,0,1,7.07,0h0a5.07,5.07,0,0,1,0,7.17,5.19,5.19,0,0,1-3.55,1.48Z"/><rect class="cls-1" width="600" height="600"/></svg>