<svg xmlns="http://www.w3.org/2000/svg" xmlns:xlink="http://www.w3.org/1999/xlink" viewBox="0 0 600 600"><defs><style>.cls-1{isolation:isolate;}.cls-2{mix-blend-mode:multiply;fill:url(#Degradado_sin_nombre_10);}.cls-3{fill:#004481;}.cls-4{fill:#2dcccd;}.cls-5{fill:#1464a5;}.cls-6{fill:#f8cd50;}</style><linearGradient id="Degradado_sin_nombre_10" x1="138.96" y1="-75.46" x2="456.26" y2="521.3" gradientUnits="userSpaceOnUse"><stop offset="0" stop-color="#192647"/><stop offset="0" stop-color="#192647" stop-opacity="0.5"/><stop offset="1" stop-color="#192647" stop-opacity="0"/></linearGradient></defs><title>-</title><g class="cls-1"><g id="Capa_1" data-name="Capa 1"><path class="cls-2" d="M533.53,329.17,500.31,206.81h9.26a15.26,15.26,0,1,0,0-30.51H374.13a42.75,42.75,0,0,0-80,0H158.69a15.26,15.26,0,1,0,0,30.51h8.22L134.7,329.17H114.82a68.58,68.58,0,0,0,136.8,0H231.71L198.48,206.81h95.65a43.18,43.18,0,0,0,20.51,22.94V483.69H241.19A22.16,22.16,0,0,0,219,505.85v10.3h230.2V505.89a22.2,22.2,0,0,0-22.2-22.2h-73.4V229.75a43.09,43.09,0,0,0,20.5-22.94h94.6l-32.2,122.36H416.64a68.58,68.58,0,0,0,136.8,0Zm-388.88,0,30.94-117.55h14.23l31.92,117.55ZM477.41,211.62h14.23l31.92,117.55H446.47Z"/><path class="cls-3" d="M203,286.16H100.79l36-136.79h29Zm-89.68-9.62h77.09L158.44,159H144.22Z"/><path class="cls-3" d="M504.76,286.16H402.62l36-136.79h29Zm-89.66-9.62h77.08L460.27,159H446Z"/><path class="cls-4" d="M209.81,431.06H395.65a22.21,22.21,0,0,1,22.21,22.21v10.26a0,0,0,0,1,0,0H187.66a0,0,0,0,1,0,0V453.21A22.16,22.16,0,0,1,209.81,431.06Z"/><polyline class="cls-3" points="322.25 172.03 322.25 431.06 283.26 431.06 283.26 172.36"/><path class="cls-3" d="M478.2,123.67H342.76a42.75,42.75,0,0,0-80,0H127.31a15.26,15.26,0,0,0-15.25,15.26h0a15.25,15.25,0,0,0,15.25,15.25H262.76a42.75,42.75,0,0,0,80,0H478.2a15.25,15.25,0,0,0,15.25-15.25h0A15.26,15.26,0,0,0,478.2,123.67Z"/><circle class="cls-5" cx="302.76" cy="138.93" r="21.31"/><path class="cls-6" d="M83.44,276.54a68.58,68.58,0,0,0,136.81,0Z"/><path class="cls-6" d="M385.27,276.54a68.58,68.58,0,0,0,136.8,0Z"/></g></g></svg>