<svg xmlns="http://www.w3.org/2000/svg" xmlns:xlink="http://www.w3.org/1999/xlink" viewBox="0 0 600 600"><defs><style>.cls-1{fill:none;}.cls-2{fill:url(#Degradado_sin_nombre_411);}.cls-3{fill:#072146;}.cls-4{fill:#2dcccd;}.cls-5{fill:#043263;}.cls-6{fill:#1464a5;}.cls-7{fill:#f8cd50;}</style><linearGradient id="Degradado_sin_nombre_411" x1="139.11" y1="11809.54" x2="456.41" y2="11212.78" gradientTransform="matrix(1, 0, 0, -1, 0, 11750)" gradientUnits="userSpaceOnUse"><stop offset="0" stop-color="#192647" stop-opacity="0.5"/><stop offset="1" stop-color="#192647" stop-opacity="0"/></linearGradient></defs><title>11</title><g id="Cuadrados_Blancos" data-name="Cuadrados Blancos"><rect class="cls-1" width="600" height="600"/></g><g id="Capa_3" data-name="Capa 3"><g id="Capa_1-2" data-name="Capa 1"><path class="cls-2" d="M533.53,345.17,500.31,222.81h9.26a15.26,15.26,0,1,0,.78-30.51q-.39,0-.78,0H374.13a42.75,42.75,0,0,0-80,0H158.69a15.26,15.26,0,1,0-.78,30.51h9L134.7,345.17H114.82a68.58,68.58,0,0,0,136.8,0H231.71L198.48,222.81h95.65a43.19,43.19,0,0,0,20.51,22.94V499.69H241.19A22.16,22.16,0,0,0,219,521.82v10.33H449.2V521.89a22.2,22.2,0,0,0-22.2-22.2H353.6V245.75a43.09,43.09,0,0,0,20.5-22.94h94.6L436.5,345.17H416.64a68.58,68.58,0,0,0,136.8,0Zm-388.88,0,30.94-117.55h14.23l31.92,117.55ZM477.41,227.62h14.23l31.92,117.55H446.47Z"/><path class="cls-3" d="M203,302.16H100.79l36-136.79h29Zm-89.68-9.62h77.09L158.44,175H144.22Z"/><path class="cls-3" d="M504.76,302.16H402.62l36-136.79h29Zm-89.66-9.62h77.08L460.27,175H446Z"/><path class="cls-4" d="M209.81,447.06H395.65a22.21,22.21,0,0,1,22.21,22.21v10.26H187.66V469.21A22.17,22.17,0,0,1,209.81,447.06Z"/><polyline class="cls-5" points="322.25 188.03 322.25 447.06 283.26 447.06 283.26 188.36"/><path class="cls-5" d="M478.2,139.67H342.76a42.75,42.75,0,0,0-80,0H127.31a15.27,15.27,0,0,0-15.25,15.26h0a15.25,15.25,0,0,0,15.25,15.25H262.76a42.75,42.75,0,0,0,80,0H478.2a15.25,15.25,0,0,0,15.25-15.25h0A15.27,15.27,0,0,0,478.2,139.67Z"/><circle class="cls-6" cx="302.76" cy="154.93" r="21.31"/><path class="cls-7" d="M83.44,292.54a68.58,68.58,0,0,0,136.81,0Z"/><path class="cls-7" d="M385.27,292.54a68.58,68.58,0,0,0,136.8,0Z"/></g></g></svg>