<svg xmlns="http://www.w3.org/2000/svg" xmlns:xlink="http://www.w3.org/1999/xlink" viewBox="0 0 600 600"><defs><style>.cls-1{fill:none;}.cls-2{fill:url(#Degradado_sin_nombre_409);}.cls-3{fill:#2dcccd;}.cls-4{fill:url(#Degradado_sin_nombre_14);}.cls-5{fill:#043263;}.cls-6{fill:#004481;}.cls-7{fill:url(#Degradado_sin_nombre_114);}.cls-8{fill:#d4edfc;}.cls-9{fill:url(#Degradado_sin_nombre_12);}.cls-10{fill:url(#Degradado_sin_nombre_11);}.cls-11{fill:url(#Degradado_sin_nombre_10);}.cls-12{fill:#f8cd50;}.cls-13{fill:url(#Degradado_sin_nombre_9);}</style><linearGradient id="Degradado_sin_nombre_409" x1="268.78" y1="11525.01" x2="429.53" y2="11222.7" gradientTransform="matrix(1, 0, 0, -1, 0, 11750)" gradientUnits="userSpaceOnUse"><stop offset="0" stop-color="#1c2645" stop-opacity="0.5"/><stop offset="1" stop-color="#1c2645" stop-opacity="0"/></linearGradient><linearGradient id="Degradado_sin_nombre_14" x1="458.29" y1="11515.91" x2="326.18" y2="11515.91" gradientTransform="matrix(1, 0, 0, -1, 0, 11750)" gradientUnits="userSpaceOnUse"><stop offset="0" stop-color="#028484" stop-opacity="0.5"/><stop offset="1" stop-color="#028484" stop-opacity="0"/></linearGradient><linearGradient id="Degradado_sin_nombre_114" x1="471.06" y1="11348.44" x2="292" y2="11348.44" gradientTransform="matrix(1, 0, 0, -1, 0, 11750)" gradientUnits="userSpaceOnUse"><stop offset="0" stop-color="#072146" stop-opacity="0.8"/><stop offset="1" stop-color="#072146" stop-opacity="0"/></linearGradient><linearGradient id="Degradado_sin_nombre_12" x1="511.34" y1="11440.78" x2="244.18" y2="11440.78" gradientTransform="matrix(1, 0, 0, -1, 0, 11750)" gradientUnits="userSpaceOnUse"><stop offset="0" stop-color="#043263" stop-opacity="0.2"/><stop offset="1" stop-color="#043263" stop-opacity="0"/></linearGradient><linearGradient id="Degradado_sin_nombre_11" x1="84.71" y1="11400.82" x2="306.06" y2="11400.82" gradientTransform="matrix(1, 0, 0, -1, 0, 11750)" gradientUnits="userSpaceOnUse"><stop offset="0" stop-color="#49a5e6" stop-opacity="0"/><stop offset="1" stop-color="#49a5e6" stop-opacity="0.4"/></linearGradient><linearGradient id="Degradado_sin_nombre_10" x1="244.19" y1="11397.33" x2="84.71" y2="11397.33" gradientTransform="matrix(1, 0, 0, -1, 0, 11750)" gradientUnits="userSpaceOnUse"><stop offset="0.43" stop-color="#fff" stop-opacity="0"/><stop offset="1" stop-color="#fff" stop-opacity="0.7"/></linearGradient><linearGradient id="Degradado_sin_nombre_9" x1="272.73" y1="11506.93" x2="308.89" y2="11470.76" gradientTransform="matrix(1, 0, 0, -1, 0, 11750)" gradientUnits="userSpaceOnUse"><stop offset="0" stop-color="#fff" stop-opacity="0.6"/><stop offset="1" stop-color="#fff" stop-opacity="0.1"/></linearGradient></defs><title>11</title><g id="Cuadrados_Blancos" data-name="Cuadrados Blancos"><rect class="cls-1" width="600" height="600"/></g><g id="Capa_4" data-name="Capa 4"><path class="cls-2" d="M560.7,363.37a22.77,22.77,0,0,0-.59-5L546.18,297.5A19.36,19.36,0,0,0,539,286.63c-.6-.47-1.23-.91-1.89-1.33-.32-.21-.66-.41-1-.6-.68-.39-1.38-.76-2.11-1.09a27.23,27.23,0,0,0-3.39-1.3,29.92,29.92,0,0,0-4.86-1.08,30.82,30.82,0,0,0-10.36.38l-13,2.72-7.86,2.29c-.08-.16-.17-.32-.26-.48l-.48-.88q-1.89-3.4-4-6.69l-.51-.77c-.56-.85-1.13-1.7-1.7-2.54l-.6-.85c-.64-.91-1.29-1.82-2-2.71l-.34-.47c-.82-1.08-1.64-2.15-2.49-3.21-.09-.12-.19-.23-.28-.34-.74-.92-1.5-1.83-2.27-2.73-.2-.25-.42-.49-.63-.73-.7-.82-1.42-1.62-2.14-2.43l-.57-.62c-1.84-2-3.76-4-5.74-5.88l-.53-.5c-.83-.79-1.66-1.57-2.51-2.34l-.67-.61c-.92-.83-1.86-1.65-2.82-2.47l-.27-.24c-1.11-.93-2.23-1.86-3.36-2.77l-.12-.09c-1-.83-2.11-1.66-3.19-2.47l-.65-.49c-1-.72-1.93-1.43-2.91-2.12l-.58-.41q-3.54-2.5-7.26-4.83l-.51-.31c-1.06-.66-2.14-1.31-3.23-1.95l-.7-.42c-1.17-.68-2.35-1.35-3.54-2l-.24-.14c-25.68-14-56.68-22.28-90.08-22.28-65.92,0-122.54,32-147.15,77.77l-7.85-2.29-13-2.72c-14-2.94-28.19,4.36-30.83,15.89l-13.94,60.86a23,23,0,0,0,2,15.71c-.15.26-.28.52-.42.78a18.67,18.67,0,0,0-.88,2,19.26,19.26,0,0,0-.79,11.19l13.38,58.4a21.85,21.85,0,0,0,1.7,4.79c.19.38.38.75.59,1.12A26.61,26.61,0,0,0,158.1,461c.36.26.74.51,1.12.76.76.49,1.55.95,2.36,1.39s1.66.84,2.52,1.21a35.35,35.35,0,0,0,4,1.45c.93.27,1.87.51,2.83.71a36.22,36.22,0,0,0,4.4.67c.5,0,1,.08,1.5.1h.68l-.39,2.65a5,5,0,0,0,4.23,5.67,5.52,5.52,0,0,0,.71.05h10v9.5A2.94,2.94,0,0,0,195,488.1H502.51a2.94,2.94,0,0,0,2.95-2.93h0v-9.5h9.95a5,5,0,0,0,5-5.72L520,467.1c13.24-1.4,24.35-9.53,26.89-20.63l13.37-58.4a19.43,19.43,0,0,0-2.08-14A23.53,23.53,0,0,0,560.7,363.37Z"/><path class="cls-3" d="M458.29,288.49H137.77c0-71.19,71.75-128.9,160.26-128.9S458.29,217.3,458.29,288.49Z"/><path class="cls-4" d="M384,179.7,326.18,288.49H458.29C458.29,242.75,428.67,202.58,384,179.7Z"/><rect class="cls-5" x="142.69" y="413.94" width="313.42" height="24.88" rx="2.94"/><path class="cls-6" d="M466.06,426.39H132.73a5,5,0,0,1-5-5,4.36,4.36,0,0,1,.05-.72l5.06-34.56L144.72,372H454.08l11.86,14.12L471,420.66a5,5,0,0,1-4.22,5.68A5.81,5.81,0,0,1,466.06,426.39Z"/><path class="cls-7" d="M465.94,386.1c-2.41,8.08-6.85,10.83-11.86,10.83l-137-20.2L292,426.39H466.06a5,5,0,0,0,5-5,4.48,4.48,0,0,0-.05-.73Z"/><path class="cls-8" d="M98.58,397.19c3,13.33,18.46,22.4,35.07,20.63l10.59-1.13a2508.87,2508.87,0,0,0,344.41-76.2h0c15.85-4.7,25.19-18,22.11-31.4l-13.93-60.86c-2.64-11.52-16.8-18.82-30.83-15.89l-13,2.72a2508.87,2508.87,0,0,1-344.41,76.2h0C92.75,313.62,82.26,326,85.2,338.79Z"/><path class="cls-9" d="M510.76,309.09l-13.93-60.86c-2.64-11.52-16.8-18.82-30.83-15.89l-13,2.72q-102.72,30.51-208.84,52.23C138,309,262.36,396.76,312.44,385.81q89.24-19.5,176.18-45.32C504.5,335.79,513.84,322.52,510.76,309.09Z"/><path class="cls-10" d="M108.62,311.26h0C92.75,313.62,82.26,326,85.2,338.79l13.38,58.4c3,13.33,18.46,22.4,35.07,20.63l10.59-1.13q81.64-12.17,161.82-29.5L277.11,280.31Q193.73,298.57,108.62,311.26Z"/><path class="cls-11" d="M108.62,311.26h0C92.75,313.62,82.26,326,85.2,338.79l13.38,58.4c3,13.33,18.46,22.4,35.07,20.63l10.59-1.13c5.54-.82,11.07-1.68,16.59-2.54l83.36-126.86Q176.95,301.06,108.62,311.26Z"/><path class="cls-8" d="M497.48,397.19c-3.05,13.33-18.47,22.4-35.08,20.63l-10.59-1.13a2508.87,2508.87,0,0,1-344.41-76.2h0c-15.84-4.7-25.18-18-22.11-31.4l13.94-60.86c2.64-11.52,16.8-18.82,30.83-15.89l13,2.72a2508.87,2508.87,0,0,0,344.41,76.2h0c15.87,2.36,26.35,14.69,23.41,27.53Z"/><path class="cls-12" d="M295.38,220.52l-16.94,26.34a49.25,49.25,0,0,0,0,53.29l16.94,26.33a4.78,4.78,0,0,0,8,0l16.94-26.33a49.25,49.25,0,0,0,0-53.29l-16.94-26.34a4.78,4.78,0,0,0-8,0Z"/><path class="cls-13" d="M303.42,220.52a4.78,4.78,0,0,0-8,0l-16.94,26.34a49.25,49.25,0,0,0,0,53.29l3.72,5.78,34.48-64.85Z"/></g></svg>