<svg id="Capa_1" data-name="Capa 1" xmlns="http://www.w3.org/2000/svg" xmlns:xlink="http://www.w3.org/1999/xlink" viewBox="0 0 600 600"><defs><style>.cls-1{fill:none;}.cls-2{fill:url(#Degradado_sin_nombre_5);}.cls-3{fill:#b79e5d;}.cls-4{fill:#f8cd50;}.cls-5{fill:url(#Degradado_sin_nombre_2);}.cls-6{fill:url(#Degradado_sin_nombre_3);}</style><linearGradient id="Degradado_sin_nombre_5" x1="243.89" y1="14519.03" x2="398.77" y2="14810.33" gradientTransform="translate(0 -14306.25)" gradientUnits="userSpaceOnUse"><stop offset="0" stop-color="#1c2645"/><stop offset="0" stop-color="#1c2645" stop-opacity="0.5"/><stop offset="1" stop-color="#1c2645" stop-opacity="0"/></linearGradient><linearGradient id="Degradado_sin_nombre_2" x1="230.03" y1="14544.46" x2="295.87" y2="14700.65" gradientTransform="translate(0 -14306.25)" gradientUnits="userSpaceOnUse"><stop offset="0" stop-color="#fff" stop-opacity="0.5"/><stop offset="1" stop-color="#fff" stop-opacity="0"/></linearGradient><linearGradient id="Degradado_sin_nombre_3" x1="396.19" y1="14444.73" x2="356.6" y2="14444.73" gradientTransform="translate(0 -14306.25)" gradientUnits="userSpaceOnUse"><stop offset="0" stop-color="#043263" stop-opacity="0.2"/><stop offset="1" stop-color="#043263" stop-opacity="0"/></linearGradient></defs><g id="Cuadrados_Blancos" data-name="Cuadrados Blancos"><rect class="cls-1" width="600" height="600"/></g><path class="cls-2" d="M436.59,176.4c-1-.75-2-1.55-3-2.38h0l-.23-.2-1.57-1.36-1-1-1.22-1.19-.78-.8c-.66-.7-1.32-1.41-1.95-2.13l-27.12-31.14a8.69,8.69,0,0,0-.91-.91,7.2,7.2,0,0,0-8.26-.49l-14.93,9.28a7.18,7.18,0,0,0-2.29,9.89h0l.29.43,29.48,39.78c.77.76,2.34,11.83,2.18,29.12,0,1.28,0,2.6-.07,4-.14,6.08-.5,12.81-1.17,20-.22,2.43-.47,4.89-.76,7.41A299.39,299.39,0,0,1,397,290c-.45,1.91-.91,3.82-1.44,5.75s-1,3.87-1.59,5.81c-1.94,6.82-4.2,13.73-6.81,20.68-.75,2-1.52,4-2.33,6-.4,1-.81,2-1.23,3q-1.89,4.47-4,8.95c-.46,1-.93,2-1.42,3a232.89,232.89,0,0,1-11.37,20.66c-1.2,1.93-2.45,3.87-3.72,5.79a207.66,207.66,0,0,1-32.76,38.3c-.91.84-1.82,1.68-2.82,2.52q-4.26,3.76-8.85,7.37c-1,.8-2.06,1.59-3.09,2.38a221.63,221.63,0,0,1-51.07,28.65c-1.4.56-2.82,1.11-4.24,1.65a290.62,290.62,0,0,1-62.86,15.87c-7.18,1-14.11,3.64-19.83,9.73-.54.58-1.08,1.2-1.6,1.82s-1,1.33-1.53,2.05A42.84,42.84,0,0,0,171,486c-.43.91-.84,1.82-1.24,2.83l-.14.36c-.09.24-.18.47-.26.71a26,26,0,0,0-1.21,9.9,20.47,20.47,0,0,0,.26,2.59c.12.86.25,1.58.43,2.37.1.5.21,1,.34,1.51a38.7,38.7,0,0,0,1.19,3.79c.16.41.32.83.5,1.23a31.72,31.72,0,0,0,7,10.6,12.78,12.78,0,0,0,1,.91c.36.27,1,.8,1.47,1.17l.08,0h0c.36.26.74.53,1.13.76h0l.36.2.11.07.49.24h0l.62.29.15.06c.47.21,1,.43,1.61.67l.19.07c.62.25,1.33.51,2.11.79l.21.07,1.23.44h0c36,12.4,192.92,47.19,282.5-103.23C558.56,277.63,460.53,193.88,436.59,176.4Z"/><path class="cls-3" d="M152.77,461.05c.3-6.22-1.82-21.67-7.78-26.08-5,3.45-9.34,8.78-12.66,16.92-4.38,10.75.35,26.39,9.1,34C147.63,483.21,152.23,472.2,152.77,461.05Z"/><path class="cls-4" d="M338.17,107.13a7.2,7.2,0,0,0-2.33,9.9l0,0a4.33,4.33,0,0,0,.33.47l29.48,39.78c3.64,3.64,25.43,239-205.66,272.09-10.92,1.56-21.27,6.77-27.7,22.5-4.81,11.83,1.35,29.48,11.83,36,9.7,6,190.64,65.71,289.57-100.37,87.41-146.88-10.57-230.64-34.53-248.1a56.62,56.62,0,0,1-9.79-9L362.29,99.24a7.21,7.21,0,0,0-9.2-1.38Z"/><path class="cls-5" d="M349.15,100.27l-11,6.86a7.2,7.2,0,0,0-2.29,9.91l0,0a4.33,4.33,0,0,0,.33.47l29.48,39.78c3.64,3.64,25.43,239-205.66,272.09-10.92,1.56-21.27,6.77-27.7,22.5a20.93,20.93,0,0,0-.73,2.15c80.88-2.14,187.63-19.91,238.33-92.29C436.39,266.85,404.76,171,349.15,100.27Z"/><path class="cls-3" d="M396.17,137.09a55.62,55.62,0,0,1-6.75-6.63L362.29,99.24a7.21,7.21,0,0,0-9.2-1.38l-14.92,9.27a7.2,7.2,0,0,0-2.33,9.9l0,0a4.33,4.33,0,0,0,.33.47l29.48,39.78c5.57-.69,14.18,3.64,19.32,6.62a2.78,2.78,0,0,0,3.81-1v0a2.76,2.76,0,0,0,.38-1.41,67.22,67.22,0,0,1,.72-10.41c.78-4.4,1.87-6.93,6.25-14Z"/><path class="cls-6" d="M396.17,137.09a55.62,55.62,0,0,1-6.75-6.63l-15.53-17.84L356.6,145.11l9.1,12.23c5.57-.69,14.18,3.64,19.32,6.61a2.79,2.79,0,0,0,3.81-1v0a2.79,2.79,0,0,0,.38-1.41,67.22,67.22,0,0,1,.72-10.41c.78-4.4,1.87-6.93,6.25-14Z"/></svg>