<svg xmlns="http://www.w3.org/2000/svg" xmlns:xlink="http://www.w3.org/1999/xlink" viewBox="0 0 600 600"><defs><style>.cls-1{fill:url(#Degradado_sin_nombre_3);}.cls-2{fill:#043263;}.cls-3{fill:#49a5e6;}.cls-4{opacity:0.5;isolation:isolate;fill:url(#Degradado_sin_nombre_16);}.cls-5{fill:#ffcc28;}.cls-6{fill:#e6fafa;}</style><linearGradient id="Degradado_sin_nombre_3" x1="247.58" y1="2057.91" x2="460.72" y2="1657.04" gradientTransform="matrix(1, 0, 0, -1, 0, 2210)" gradientUnits="userSpaceOnUse"><stop offset="0" stop-color="#192647"/><stop offset="0" stop-color="#192647" stop-opacity="0.5"/><stop offset="1" stop-color="#192647" stop-opacity="0"/></linearGradient><linearGradient id="Degradado_sin_nombre_16" x1="215.96" y1="1994.24" x2="370.22" y2="1839.98" gradientTransform="matrix(1, 0, 0, -1, 0, 2210)" gradientUnits="userSpaceOnUse"><stop offset="0" stop-color="#fff" stop-opacity="0.5"/><stop offset="1" stop-color="#ecf7f8" stop-opacity="0.1"/></linearGradient></defs><title>6</title><g id="Capa_27" data-name="Capa 27"><path class="cls-1" d="M261.1,557.2a22.32,22.32,0,0,1-22.3-22.31V170.16a22.32,22.32,0,0,1,22.3-22.31H447.2a22.32,22.32,0,0,1,22.3,22.31V534.89a22.32,22.32,0,0,1-22.3,22.31"/><path class="cls-2" d="M392.4,96.85A22.13,22.13,0,0,1,414.5,119v362a22.12,22.12,0,0,1-22.1,22.1H207.5a22.12,22.12,0,0,1-22.1-22.1v-362a22.13,22.13,0,0,1,22.06-22.2"/><rect class="cls-3" x="185.4" y="147.85" width="229.2" height="304.3"/><polygon class="cls-4" points="185.7 148.05 185.7 451.95 302.5 452.15 414.5 245.15 414.5 147.85 185.7 148.05"/><polygon class="cls-5" points="240.08 264 230.09 264 230.09 226.13 267.97 226.13 267.97 236.12 240.08 236.12 240.08 264"/><polygon class="cls-5" points="332.04 236.12 332.04 226.13 369.91 226.13 369.91 264 359.93 264 359.93 236.12 332.04 236.12"/><polygon class="cls-5" points="359.93 336 369.91 336 369.91 373.87 332.04 373.87 332.04 363.88 359.93 363.88 359.93 336"/><polygon class="cls-5" points="267.97 363.88 267.97 373.87 230.09 373.87 230.09 336 240.08 336 240.08 363.88 267.97 363.88"/><rect class="cls-6" x="248.17" y="268.9" width="10.53" height="62.21"/><rect class="cls-6" x="263.52" y="268.9" width="5.27" height="62.21"/><rect class="cls-6" x="275.24" y="268.9" width="12.31" height="62.21"/><rect class="cls-6" x="313.32" y="268.9" width="17.73" height="62.21"/><rect class="cls-6" x="293.36" y="268.9" width="5.27" height="62.21"/><rect class="cls-6" x="303.49" y="268.9" width="5.27" height="62.21"/><rect class="cls-6" x="336.44" y="268.9" width="5.27" height="62.21"/><rect class="cls-6" x="346.57" y="268.9" width="5.27" height="62.21"/></g></svg>