<svg id="Contenido" xmlns="http://www.w3.org/2000/svg" xmlns:xlink="http://www.w3.org/1999/xlink" viewBox="0 0 600 600"><defs><style>.cls-1{fill:url(#Degradado_sin_nombre_16);}.cls-2{fill:#043263;}.cls-3{fill:#1464a5;}.cls-4{fill:url(#Degradado_sin_nombre_37);}.cls-5{fill:#2dcccd;}.cls-6{fill:#004481;}.cls-7{fill:#f8cd50;}.cls-8{fill:#fade8e;}.cls-9{fill:url(#Degradado_sin_nombre_40);}</style><linearGradient id="Degradado_sin_nombre_16" x1="296.4" y1="220.98" x2="456.45" y2="521.99" gradientUnits="userSpaceOnUse"><stop offset="0" stop-color="#1c2645"/><stop offset="0" stop-color="#1c2645" stop-opacity="0.5"/><stop offset="1" stop-color="#1c2645" stop-opacity="0"/></linearGradient><linearGradient id="Degradado_sin_nombre_37" x1="435.52" y1="332.01" x2="202.84" y2="332.01" gradientUnits="userSpaceOnUse"><stop offset="0" stop-color="#043263" stop-opacity="0.6"/><stop offset="1" stop-color="#043263" stop-opacity="0"/></linearGradient><linearGradient id="Degradado_sin_nombre_40" x1="336.3" y1="127.72" x2="411.46" y2="202.89" gradientUnits="userSpaceOnUse"><stop offset="0" stop-color="#fff" stop-opacity="0.4"/><stop offset="0.99" stop-color="#fff" stop-opacity="0.1"/></linearGradient></defs><title>_</title><path class="cls-1" d="M521.5,301.37l-26.79-17a91.36,91.36,0,0,0,15.9-43.86q.4-4.38.41-8.85V187.44a5.62,5.62,0,0,0-4.61-5.51,102,102,0,0,1-25.59-8.61h0q-2.46-1.19-4.8-2.46l-.24-.12-2.07-1.15-.24-.14c-2.26-1.28-4.43-2.6-6.51-3.94l-.28-.18c-.6-.39-1.2-.78-1.78-1.18l-.27-.17c-1.34-.9-2.64-1.81-3.9-2.71l-.16-.12L458.94,160l-.38-.28-1.4-1.06-.36-.27c-1.13-.87-2.21-1.73-3.25-2.57l-.38-.3-1.13-.93-.47-.4-1-.86-.42-.35-1.34-1.17a5.67,5.67,0,0,0-2.7-1.3,5.4,5.4,0,0,0-1.88,0,5.53,5.53,0,0,0-2.79,1.3c-2.28,2-4.86,4.15-7.71,6.34-.95.74-1.92,1.48-2.93,2.22-2.53,1.85-5.23,3.72-8.1,5.55-1.14.73-2.32,1.45-3.52,2.17s-2.42,1.41-3.67,2.11a114.87,114.87,0,0,1-18.21,8.18,95.31,95.31,0,0,1-13.48,3.59,5.67,5.67,0,0,0-3.85,2.7,5.5,5.5,0,0,0-.76,2.81v23.44l-27.58-17.54a3,3,0,0,0-3.22,0l-169.89,108a23,23,0,0,0-7.07,31.75l4.47,7,38.58,5.35V504.73a3,3,0,0,0,3,3h265a3,3,0,0,0,3-3V345.49l38.58-5.35,4.47-7A23,23,0,0,0,521.5,301.37Z"/><path class="cls-2" d="M125.9,289.84,300,314l174.1-24.15L301.61,179.52a3,3,0,0,0-3.22,0Z"/><path class="cls-3" d="M164.48,265.16,298.4,179.5a3,3,0,0,1,3.2,0l133.92,85.66V454.43a3,3,0,0,1-3,3h-265a3,3,0,0,1-3-3Z"/><path class="cls-4" d="M343.94,206.59l91.58,58.57V454.43a3,3,0,0,1-3,3H202.84"/><path class="cls-5" d="M268.5,327.51h63a3,3,0,0,1,3,3V457.43a0,0,0,0,1,0,0h-69a0,0,0,0,1,0,0V330.51A3,3,0,0,1,268.5,327.51Z"/><path class="cls-6" d="M298.39,143l-169.89,108a23,23,0,0,0-7.07,31.75l4.47,7L298.39,179.52a3,3,0,0,1,3.22,0L474.1,289.84l4.47-7a23,23,0,0,0-7.07-31.75L301.61,143A3,3,0,0,0,298.39,143Z"/><path class="cls-7" d="M395.1,100.08a5.61,5.61,0,0,0-3.68,1.39c-12.15,10.65-32.84,25.53-57.62,30.16a5.61,5.61,0,0,0-4.61,5.51v44.19q0,4.47.41,8.85h65.5Z"/><path class="cls-8" d="M329.6,190.18a91.33,91.33,0,0,0,19.15,48.29A88.88,88.88,0,0,0,393.58,269a5.64,5.64,0,0,0,1.52.22V190.18Z"/><path class="cls-8" d="M461,181.33V137.14a5.61,5.61,0,0,0-4.61-5.51c-24.78-4.63-45.47-19.51-57.62-30.16a5.62,5.62,0,0,0-3.69-1.39v90.1h65.51Q461,185.8,461,181.33Z"/><path class="cls-7" d="M395.1,190.18v79.08a5.66,5.66,0,0,0,1.53-.22,88.88,88.88,0,0,0,44.83-30.57,91.33,91.33,0,0,0,19.15-48.29Z"/><path class="cls-9" d="M398.79,101.47a5.59,5.59,0,0,0-7.37,0c-12.15,10.65-32.84,25.53-57.62,30.16a5.61,5.61,0,0,0-4.61,5.51v44.19a91.74,91.74,0,0,0,19.56,57.14,90.64,90.64,0,0,0,13.36,13.76L430.82,123A146.43,146.43,0,0,1,398.79,101.47Z"/></svg>