<svg xmlns="http://www.w3.org/2000/svg" xmlns:xlink="http://www.w3.org/1999/xlink" viewBox="0 0 600 600"><defs><style>.cls-1{fill:none;}.cls-2{fill:url(#Degradado_sin_nombre_80);}.cls-3{fill:#072146;}.cls-4{fill:#49a5e6;}.cls-5{fill:url(#Degradado_sin_nombre_64);}.cls-6{fill:#2dcccd;}.cls-7{fill:#043263;}.cls-8{fill:#f8cd50;}.cls-9{fill:#fade8e;}.cls-10{fill:url(#Degradado_sin_nombre_442);}</style><linearGradient id="Degradado_sin_nombre_80" x1="312.51" y1="208.85" x2="472.77" y2="510.26" gradientUnits="userSpaceOnUse"><stop offset="0" stop-color="#192647" stop-opacity="0.5"/><stop offset="1" stop-color="#192647" stop-opacity="0"/></linearGradient><linearGradient id="Degradado_sin_nombre_64" x1="444.52" y1="-3218.47" x2="211.84" y2="-3218.47" gradientTransform="matrix(1, 0, 0, -1, 0, -2894)" gradientUnits="userSpaceOnUse"><stop offset="0" stop-color="#043263" stop-opacity="0.4"/><stop offset="1" stop-color="#043263" stop-opacity="0"/></linearGradient><linearGradient id="Degradado_sin_nombre_442" x1="350.76" y1="-3003.5" x2="430.67" y2="-3083.42" gradientTransform="matrix(1, 0, 0, -1, 0, -2894)" gradientUnits="userSpaceOnUse"><stop offset="0" stop-color="#fff" stop-opacity="0.5"/><stop offset="0.99" stop-color="#fff" stop-opacity="0.1"/></linearGradient></defs><title>13</title><g id="Cuadrados_Blancos" data-name="Cuadrados Blancos"><rect class="cls-1" width="600" height="600"/></g><g id="Capa_10" data-name="Capa 10"><path class="cls-2" d="M184.9,332.3l38.59,5.35,0,159.24a3,3,0,0,0,3,3h265a3,3,0,0,0,3-3V337.65l38.58-5.35,4.47-7a23,23,0,0,0-7.07-31.75h0l-20.56-13.07c.89-1.05,1.78-2.12,2.63-3.22a97.1,97.1,0,0,0,20.36-51.34h0c.29-3.11.43-6.24.43-9.41v-47a5.94,5.94,0,0,0-4.9-5.85,108.63,108.63,0,0,1-27.2-9.16l0,0a155.73,155.73,0,0,1-26-16.25l-.31-.24q-1.87-1.45-3.71-3l-.16-.13q-1.95-1.62-3.86-3.3a5.92,5.92,0,0,0-3.6-1.45c-.11,0-.21,0-.32,0h0a5.69,5.69,0,0,0-.82.08l-.2,0a3.75,3.75,0,0,0-.55.15,4.27,4.27,0,0,0-.48.13l-.45.21a4.81,4.81,0,0,0-.51.25,6.81,6.81,0,0,0-.88.64c-12.92,11.32-34.91,27.14-61.26,32.07a6,6,0,0,0-4.9,5.85v36.75l-32.59-20.72a3,3,0,0,0-3.22-.05L187.5,293.5a23,23,0,0,0-7.07,31.75h0l4.47,7"/><path class="cls-3" d="M134.9,282.3,309,306.45,483.1,282.3,310.61,172a3,3,0,0,0-3.22,0Z"/><path class="cls-4" d="M173.48,257.62,307.4,172a3,3,0,0,1,3.2,0l133.92,85.66V446.89a3,3,0,0,1-3,3h-265a3,3,0,0,1-3-3Z"/><path class="cls-5" d="M352.94,199.05l91.58,58.57V446.89a3,3,0,0,1-3,3H211.84Z"/><path class="cls-6" d="M277.5,320h63a3,3,0,0,1,3,3V449.89h-69V323A3,3,0,0,1,277.5,320Z"/><path class="cls-7" d="M307.39,135.5,137.5,243.5a23,23,0,0,0-7.07,31.75h0l4.47,7L307.39,172a3,3,0,0,1,3.22,0L483.1,282.3l4.47-7a23,23,0,0,0-7.07-31.75h0l-169.89-108A3,3,0,0,0,307.39,135.5Z"/><path class="cls-8" d="M413.28,80.12a6,6,0,0,0-3.92,1.48c-12.92,11.32-34.91,27.14-61.26,32.07a6,6,0,0,0-4.9,5.85v47c0,3.17.14,6.3.43,9.41h69.65Z"/><path class="cls-9" d="M343.63,175.92A97.18,97.18,0,0,0,364,227.26a94.55,94.55,0,0,0,47.67,32.46,6.35,6.35,0,0,0,1.62.24v-84Z"/><path class="cls-9" d="M483.34,166.51v-47a5.94,5.94,0,0,0-4.9-5.85c-26.34-4.93-48.34-20.75-61.26-32.07a6,6,0,0,0-3.93-1.48v95.8h69.66C483.2,172.81,483.34,169.68,483.34,166.51Z"/><path class="cls-8" d="M413.28,175.92V260a5.93,5.93,0,0,0,1.62-.23,94.55,94.55,0,0,0,47.67-32.51,97.1,97.1,0,0,0,20.36-51.34Z"/><path class="cls-10" d="M417.2,81.6a5.94,5.94,0,0,0-7.84,0c-12.92,11.32-34.91,27.14-61.26,32.07a6,6,0,0,0-4.9,5.85v47A97.48,97.48,0,0,0,364,227.26a96.39,96.39,0,0,0,14.21,14.63l73.06-137.4A155.3,155.3,0,0,1,417.2,81.6Z"/></g></svg>