<svg id="Capa_1" data-name="Capa 1" xmlns="http://www.w3.org/2000/svg" xmlns:xlink="http://www.w3.org/1999/xlink" viewBox="0 0 600 600"><defs><style>.cls-1{fill:none;}.cls-2{fill:url(#Degradado_sin_nombre_11);}.cls-3{fill:#f5b07e;}.cls-4{fill:#d6722c;opacity:0.48;}.cls-4,.cls-7,.cls-8{isolation:isolate;}.cls-5{fill:#ef9a60;}.cls-6,.cls-8{fill:#004580;}.cls-8{font-size:35.15px;font-family:BentonSansBBVA-Book, Benton Sans BBVA;letter-spacing:-0.01em;}.cls-9{fill:#1464a3;}.cls-10{fill:#fff;}.cls-11{fill:#2dcacb;}.cls-12{fill:#002f65;}.cls-13{fill:url(#Degradado_sin_nombre_10);}.cls-14{fill:#f9b27b;}</style><linearGradient id="Degradado_sin_nombre_11" x1="219.03" y1="405.78" x2="427.69" y2="13.33" gradientTransform="matrix(1, 0, 0, -1, 0, 602)" gradientUnits="userSpaceOnUse"><stop offset="0" stop-color="#192647"/><stop offset="0" stop-color="#192647" stop-opacity="0.5"/><stop offset="1" stop-color="#192647" stop-opacity="0"/></linearGradient><linearGradient id="Degradado_sin_nombre_10" x1="480.94" y1="410.88" x2="357.6" y2="410.88" gradientUnits="userSpaceOnUse"><stop offset="0" stop-color="#003165" stop-opacity="0.6"/><stop offset="1" stop-color="#003165" stop-opacity="0"/></linearGradient></defs><g id="Cuadrados_Blancos" data-name="Cuadrados Blancos"><rect class="cls-1" width="600" height="600"/></g><path class="cls-2" d="M535.11,475.31c0-3.43-.16-7-.4-10.74a127.1,127.1,0,0,0-3.59-24.15,147.09,147.09,0,0,0-16.45-39.16,213.6,213.6,0,0,0-14.17-21.69c-12.8-17.34-39.89-42-82.59-43.69-1-.05-2.1-.06-3.15-.08h-1.18c-5.06,0-10.09,0-14,.27l-1.18.06-4.71-28.75-.24-1.49,1-1.45A78.21,78.21,0,0,0,405.72,279c.37-1.77.83-3.53,1.3-5.31a11.05,11.05,0,0,0,2.41-1.78,40,40,0,0,0,11.06-17c2-7.36,3-20.53-2.2-22.91a4.9,4.9,0,0,0-3-.26c.31-2.31.58-4.59.79-6.79a28.7,28.7,0,0,0,6.45-12.11c1.55-6.33.56-12.33-3.34-23-5.89-16.22-8.83-24.33-14.52-30.49-9.21-10-20.91-12-44.27-16.37-21.89-4.07-32.84-6.11-41.34.34-9.36,7.1-11.67,19.94-12.19,28a1.49,1.49,0,0,0-.49.24,5.76,5.76,0,0,0-2.49-.93c-7.37-.81-15.2,14.91-18.36,25.9-2.11,7.34-4.67,16.26-1.3,25.57a49,49,0,0,0,4.48,8.2c-.23,0-.45,0-.67.09-1.91.46-3,2.28-3.45,3-5.44,9,3.32,27.58,4.78,30.62.75,1.45,4,7.45,9.93,9.63a15.63,15.63,0,0,0,2.69.78c1,3.36,2.23,7,3.68,10.77.45,1.05,1,2.18,1.54,3.39a92.75,92.75,0,0,0,7,12c1.22,1.74,2.69,3.84,4.47,6.09q-1.32,14.83-2.63,29.68l-.25-.18h0a8.24,8.24,0,0,0-1.57-.11c-3.91-.25-8.94-.27-14-.27h-1.18c-1.06,0-2.12,0-3.16.08-42.69,1.65-69.79,26.35-82.58,43.69a215.41,215.41,0,0,0-14.18,21.69,146.74,146.74,0,0,0-16.44,39.16,127.1,127.1,0,0,0-3.59,24.15c-.25,3.75-.37,7.31-.4,10.74-.13,7.51.2,40.37,14.69,59.87,13,17.54,35.47,18.1,54.31,15.72l90.91-11.49h0l4.6-.58L365.52,536A719.23,719.23,0,0,0,466,550.89h.16c18.84,2.38,41.27,1.82,54.3-15.72C534.91,515.68,535.23,482.82,535.11,475.31Z"/><path class="cls-3" d="M348.84,310.07c-1.25,2.08-16.7,20.14-44.69,21.41-26.79,1.21-43-18.94-44.71-21.14l7.5-84.91,68.43,2.68L339.5,253Z"/><path class="cls-4" d="M332.43,254.13C328,266.31,322,273.62,317.58,278c-11.72,11.48-22.39,11.61-38.15,24.85A90.72,90.72,0,0,0,265.67,317c-1.06-1-2.21-2.12-3.34-3.34-.89-1-2.14-2.36-2.87-3.27,2.5-28.31,5-55.38,7.48-83.68l68.43,2.68Z"/><path class="cls-5" d="M245.33,185.62s-6.1-10.88-11.44-9.61c-1.91.45-3,2.28-3.45,3-5.44,9,3.31,27.58,4.78,30.62.75,1.45,4,7.45,9.93,9.63a10.92,10.92,0,0,0,7.17.58,7.54,7.54,0,0,0,2.42-1.17C261.16,212.47,245.33,185.62,245.33,185.62Z"/><path class="cls-5" d="M353.08,182.32c1.6-1.46,7.15-6.39,11-4.63,5.24,2.39,4.2,15.55,2.2,22.92a40,40,0,0,1-11.06,17,9.27,9.27,0,0,1-5.12,2.67,4.09,4.09,0,0,1-1.21,0C347.33,219.78,347.46,211.49,353.08,182.32Z"/><path class="cls-3" d="M302.27,97.33A59.38,59.38,0,0,0,272.11,104a61.92,61.92,0,0,0-19.36,15.92c-10,15.74-12.28,29-12.75,37-.31,5.26.12,10.86,1,22.08.73,9.58,1.31,17,3.19,26.44a155.88,155.88,0,0,0,7.35,25.42c.45,1,1,2.18,1.54,3.39a92.75,92.75,0,0,0,7,12A74.66,74.66,0,0,0,273.9,262c5.26,4.35,12.68,10.5,24,11.72a39.89,39.89,0,0,0,24.52-5.65c8.94-5.67,14-12.33,17.9-18a78.11,78.11,0,0,0,11.27-25.42c1.84-8.8,5.44-17.45,6.62-28,1.45-12.88,0-25.81,0-36.47a103.45,103.45,0,0,0-6.37-23.37,101,101,0,0,0-7.85-15.4,55.63,55.63,0,0,0-18.38-17.21A52.85,52.85,0,0,0,302.27,97.33Z"/><path class="cls-6" d="M241.5,185.59s20.76-48.5,17.28-59.82-6.55-8.59-6.55-8.59a5.76,5.76,0,0,0-2.49-.93c-7.37-.81-15.2,14.91-18.36,25.9-2.11,7.34-4.67,16.26-1.3,25.57,2.42,6.7,15.44,23.67,11.42,17.87Z"/><path class="cls-6" d="M252.6,122.94s13.51,32.19,93.49,25.72c0,0,10.57,13.26,11.9,46.12,1.15-5,2.18-10.33,3-16.08.39-2.76.7-5.45.95-8a28.7,28.7,0,0,0,6.45-12.11c1.55-6.33.56-12.33-3.34-23-5.89-16.22-8.83-24.33-14.52-30.5-9.21-10-20.91-12-44.27-16.36-21.89-4.07-32.84-6.11-41.34.34C252.47,98.4,252.48,118,252.6,122.94Z"/><g class="cls-7"><text class="cls-8" transform="translate(254.11 175.29) scale(0.95 1)"><tspan xml:space="preserve">  </tspan></text></g><path class="cls-9" d="M480.93,421c0-3.42-.16-7-.4-10.73a127.1,127.1,0,0,0-3.59-24.15A146.7,146.7,0,0,0,460.49,347a212.5,212.5,0,0,0-14.17-21.69c-12.8-17.34-39.89-42-82.59-43.69-1.43-.06-2.87-.1-4.33-.11H359c-3.3,0-15.15.17-15.16.35-.24,11.8-10.36,25.23-25.72,30.94a43.87,43.87,0,0,1-30.67,0c-15.36-5.71-25.48-19.14-25.73-30.94,0-.18-11.85-.32-15.16-.35h-.42c-1.46,0-2.91.05-4.34.11C199.08,283.27,172,308,159.19,325.31A213.78,213.78,0,0,0,145,347a146.6,146.6,0,0,0-16.44,39.16,128.15,128.15,0,0,0-3.56,24.1c-.25,3.74-.37,7.31-.4,10.73-.13,7.52.19,40.37,14.69,59.88,13,17.53,35.46,18.1,54.31,15.72l120.1-15.17.37.06c18,4,37.23,7.26,57.33,9.8C383,493.47,412,496.59,412,496.59c18.84,2.38,41.27,1.81,54.3-15.72C480.73,461.36,481.05,428.51,480.93,421Z"/><path class="cls-10" d="M302.93,311.69l-41.24-29.85,29.27,128,1.13.12,4.23-65-11.56-15.05a3.27,3.27,0,0,1,.6-4.57L303,311.73l17.61,13.57a3.27,3.27,0,0,1,.6,4.57l-11.55,15.05,4.4,67-.06.28h0l29.82-130.36Z"/><path class="cls-11" d="M314.06,411.92l-4.4-67,11.55-15.05a3.27,3.27,0,0,0-.6-4.57L303,311.73l-17.64,13.56a3.27,3.27,0,0,0-.6,4.57l11.56,15.05-4.23,65L314,412.2Z"/><path class="cls-12" d="M203.57,373.14c-2.15,18.48-2.93,35.61-1.08,50.12l-9-2.6C192.47,404.28,196.41,388.51,203.57,373.14Z"/><path class="cls-13" d="M480.93,421c0-3.42-.16-7-.4-10.73a127.1,127.1,0,0,0-3.59-24.15A146.7,146.7,0,0,0,460.49,347a212.5,212.5,0,0,0-14.17-21.69c-.28-.38-.57-.77-.87-1.15L357.6,489.39q6.82,1,13.8,1.89C383,493.47,412,496.59,412,496.59c18.84,2.38,41.27,1.81,54.3-15.72C480.73,461.36,481.05,428.51,480.93,421Z"/><polygon class="cls-12" points="231.25 439.12 285.88 484.94 313.68 481.42 231.25 439.12"/><path class="cls-14" d="M412.1,366.44c-4-1-19.82,18.4-31.51,33.7l1.25-4L397,373.77l.18-.27a3.39,3.39,0,0,0-5.19-4.32L371.1,389.57l-.37.36-.45.87L357,416.64l54.24,6.75v.05c6.84-6.76,12.24-13,13.95-16.73C430.32,398.83,415,367.16,412.1,366.44Z"/><path class="cls-6" d="M291,409.84l-29.27-128c-4.35-.38-10.6-.38-16.75-.38L233.06,358a3.24,3.24,0,0,0,2.14,3.57l9.62,3.38a3.25,3.25,0,0,1,2,4.14,2.83,2.83,0,0,1-.17.4l-5.24,10.41a3.28,3.28,0,0,0,.35,3.49l18.31,23.26Z"/><path class="cls-6" d="M372.45,358l-11.88-76.54c-6.15,0-12.4,0-16.75.38L314,412.21l25,2.58,24.72-31.4a3.3,3.3,0,0,0,.36-3.49l-5.25-10.41a2.54,2.54,0,0,1-.16-.38,3.26,3.26,0,0,1,2-4.16l9.63-3.38A3.26,3.26,0,0,0,372.45,358Z"/></svg>