<svg id="Capa_1" data-name="Capa 1" xmlns="http://www.w3.org/2000/svg" xmlns:xlink="http://www.w3.org/1999/xlink" viewBox="0 0 600 600"><defs><style>.cls-1{fill:url(#Degradado_sin_nombre);}.cls-2{fill:#2dcccd;}.cls-3{fill:url(#Degradado_sin_nombre_2);}.cls-4{fill:#028484;opacity:0.6;}.cls-4,.cls-5{isolation:isolate;}.cls-11,.cls-5{fill:#eaf9fa;}.cls-5{opacity:0.7;}.cls-6{fill:#043263;}.cls-7{fill:url(#Degradado_sin_nombre_13);}.cls-8{fill:#49a5e6;}.cls-9{opacity:0.5;}.cls-10{fill:url(#Degradado_sin_nombre_4);}.cls-12{fill:#eb5e62;}.cls-13{fill:#d8be75;}.cls-14{fill:url(#Degradado_sin_nombre_5);}.cls-15{fill:url(#Degradado_sin_nombre_6);}.cls-16{fill:url(#Degradado_sin_nombre_7);}.cls-17{fill:#28ad68;}</style><linearGradient id="Degradado_sin_nombre" x1="270.82" y1="-633.69" x2="468.85" y2="-1006.12" gradientTransform="matrix(1, 0, 0, -1, 0, -498.8)" gradientUnits="userSpaceOnUse"><stop offset="0" stop-color="#072146" stop-opacity="0.5"/><stop offset="1" stop-color="#072146" stop-opacity="0"/></linearGradient><linearGradient id="Degradado_sin_nombre_2" x1="391.4" y1="-846.25" x2="162.14" y2="-846.25" gradientTransform="matrix(1, 0, 0, -1, 0, -498.8)" gradientUnits="userSpaceOnUse"><stop offset="0" stop-color="#2dcccd"/><stop offset="1" stop-color="#02a5a5" stop-opacity="0.5"/></linearGradient><linearGradient id="Degradado_sin_nombre_13" x1="425.4" y1="-793.05" x2="305.4" y2="-793.05" xlink:href="#Degradado_sin_nombre"/><linearGradient id="Degradado_sin_nombre_4" x1="226.94" y1="-617.15" x2="303.3" y2="-693.5" gradientTransform="matrix(1, 0, 0, -1, 0, -498.8)" gradientUnits="userSpaceOnUse"><stop offset="0" stop-color="#eaf9fa" stop-opacity="0.5"/><stop offset="1" stop-color="#eaf9fa" stop-opacity="0"/></linearGradient><linearGradient id="Degradado_sin_nombre_5" x1="-13878.44" y1="658.06" x2="-13902.34" y2="681.96" gradientTransform="matrix(-1, 0, 0, 1, -13654, -319.2)" xlink:href="#Degradado_sin_nombre_4"/><linearGradient id="Degradado_sin_nombre_6" x1="-13940.44" y1="658.06" x2="-13964.34" y2="681.96" gradientTransform="matrix(-1, 0, 0, 1, -13654, -319.2)" xlink:href="#Degradado_sin_nombre_4"/><linearGradient id="Degradado_sin_nombre_7" x1="-14001.44" y1="658.06" x2="-14025.34" y2="681.96" gradientTransform="matrix(-1, 0, 0, 1, -13654, -319.2)" xlink:href="#Degradado_sin_nombre_4"/></defs><path class="cls-1" d="M453.8,139.6H267.7a23,23,0,0,0-23,23v270a23,23,0,0,0,23,23h11v54.8a17.89,17.89,0,0,0,17.9,17.9H424.9a17.81,17.81,0,0,0,15.7-9.3h0a17.75,17.75,0,0,0,2.1-8.5h0V455.7h11.1a22.9,22.9,0,0,0,22.9-22.9h0V162.6A23.1,23.1,0,0,0,453.8,139.6Z"/><path class="cls-2" d="M391.4,234.2V460.4a17.89,17.89,0,0,1-17.9,17.9H245.3a17.89,17.89,0,0,1-17.9-17.9V234.2a17.89,17.89,0,0,1,17.9-17.9H373.5A18,18,0,0,1,391.4,234.2Z"/><path class="cls-3" d="M373.5,216.4H317.2L227.4,385.3v75.3a17.89,17.89,0,0,0,17.9,17.9H373.5a17.89,17.89,0,0,0,17.9-17.9h0V234.2A17.9,17.9,0,0,0,373.5,216.4Z"/><rect class="cls-4" x="340" y="216.4" width="27.2" height="262"/><path class="cls-5" d="M290.4,255.3V438.8a2.3,2.3,0,0,1-2.3,2.3H268.4a2.3,2.3,0,0,1-2.3-2.3V255.3a2.3,2.3,0,0,1,2.3-2.3h19.7a2.2,2.2,0,0,1,2.3,2.1Z"/><path class="cls-6" d="M402.5,405.6H216.4a23,23,0,0,1-23-23h0v-270a23,23,0,0,1,23-23H402.5a23,23,0,0,1,23,23h0v270a22.9,22.9,0,0,1-22.8,23Z"/><path class="cls-7" d="M305.4,405.7h97.1a22.9,22.9,0,0,0,22.9-22.9h0v-200Z"/><path class="cls-8" d="M227.4,119.2h164a2.9,2.9,0,0,1,3,2.8v96.2a2.9,2.9,0,0,1-2.8,3H227.4a2.9,2.9,0,0,1-3-2.8V122.2A3,3,0,0,1,227.4,119.2Z"/><g class="cls-9"><path class="cls-10" d="M227.2,119.2a2.7,2.7,0,0,0-2.7,2.7h0v96.5a2.7,2.7,0,0,0,2.7,2.7h49.7l54.4-102H227.2Z"/></g><path class="cls-11" d="M227.4,237.2h40a2.9,2.9,0,0,1,3,2.8v31.2a2.9,2.9,0,0,1-2.8,3H227.4a2.9,2.9,0,0,1-3-2.8V240.2a3,3,0,0,1,3-3Z"/><path class="cls-11" d="M289.4,237.2h40a2.9,2.9,0,0,1,3,2.8v31.2a2.9,2.9,0,0,1-2.8,3H289.4a2.9,2.9,0,0,1-3-2.8V240.2a3,3,0,0,1,3-3Z"/><path class="cls-11" d="M350.4,237.2h40a2.9,2.9,0,0,1,3,2.8v31.2a2.9,2.9,0,0,1-2.8,3H350.4a2.9,2.9,0,0,1-3-2.8V240.2a3,3,0,0,1,3-3Z"/><path class="cls-11" d="M227.4,287.2h40a2.9,2.9,0,0,1,3,2.8v31.2a2.9,2.9,0,0,1-2.8,3H227.4a2.9,2.9,0,0,1-3-2.8V290.2A3,3,0,0,1,227.4,287.2Z"/><path class="cls-11" d="M289.4,287.2h40a2.9,2.9,0,0,1,3,2.8v31.2a2.9,2.9,0,0,1-2.8,3H289.4a2.9,2.9,0,0,1-3-2.8V290.2A3,3,0,0,1,289.4,287.2Z"/><path class="cls-11" d="M350.4,287.2h40a2.9,2.9,0,0,1,3,2.8v31.2a2.9,2.9,0,0,1-2.8,3H350.4a2.9,2.9,0,0,1-3-2.8V290.2A3,3,0,0,1,350.4,287.2Z"/><path class="cls-2" d="M350.4,337.2h40a2.9,2.9,0,0,1,3,2.8v31.2a2.9,2.9,0,0,1-2.8,3H350.4a2.9,2.9,0,0,1-3-2.8V340.2A3,3,0,0,1,350.4,337.2Z"/><path class="cls-12" d="M227.4,337.2h40a2.9,2.9,0,0,1,3,2.8v31.2a2.9,2.9,0,0,1-2.8,3H227.4a2.9,2.9,0,0,1-3-2.8V340.2A3,3,0,0,1,227.4,337.2Z"/><path class="cls-13" d="M289.4,337.2h40a2.9,2.9,0,0,1,3,2.8v31.2a2.9,2.9,0,0,1-2.8,3H289.4a2.9,2.9,0,0,1-3-2.8V340.2A3,3,0,0,1,289.4,337.2Z"/><path class="cls-14" d="M227.4,374.2h9.5l19.5-37h-29a2.9,2.9,0,0,0-3,2.8v31.2A3,3,0,0,0,227.4,374.2Z"/><path class="cls-15" d="M289.4,374.2h9.5l19.5-37h-29a2.9,2.9,0,0,0-3,2.8v31.2A3,3,0,0,0,289.4,374.2Z"/><path class="cls-16" d="M350.4,374.2h9.5l19.5-37h-29a2.9,2.9,0,0,0-3,2.8v31.2A3,3,0,0,0,350.4,374.2Z"/><path class="cls-17" d="M346.1,170.2a36.7,36.7,0,1,1-36.8-36.6h.1a36.7,36.7,0,0,1,36.7,36.6h0"/><path class="cls-11" d="M301.9,187.4a3.64,3.64,0,0,1-2.8-1.2l-11.3-11.3a3.89,3.89,0,0,1,.2-5.51l.1-.09a4,4,0,0,1,5.4,0l8.5,8.5,23.6-23.6a4,4,0,1,1,5.7,5.7l-26.4,26.4A5.27,5.27,0,0,1,301.9,187.4Z"/></svg>