<?xml version="1.0" encoding="utf-8"?>
<!-- Generator: Adobe Illustrator 23.0.1, SVG Export Plug-In . SVG Version: 6.00 Build 0)  -->
<svg version="1.1" id="Contenido" xmlns="http://www.w3.org/2000/svg" xmlns:xlink="http://www.w3.org/1999/xlink" x="0px" y="0px"
	 viewBox="0 0 600 600" style="enable-background:new 0 0 600 600;" xml:space="preserve">
<style type="text/css">
	.st0{fill:url(#SVGID_1_);}
	.st1{fill:#1464A5;}
	.st2{fill:#49A5E6;}
	.st3{fill:#2DCCCD;}
	.st4{fill:url(#SVGID_2_);}
	.st5{fill:#004481;}
	.st6{fill:#043263;}
	.st7{fill:url(#SVGID_3_);}
	.st8{fill:url(#SVGID_4_);}
</style>
<title>BBVAValora</title>
<linearGradient id="SVGID_1_" gradientUnits="userSpaceOnUse" x1="215.8254" y1="405.1611" x2="385.8254" y2="85.4411" gradientTransform="matrix(1 0 0 -1 0 602)">
	<stop  offset="0" style="stop-color:#192647"/>
	<stop  offset="0" style="stop-color:#192647;stop-opacity:0.5"/>
	<stop  offset="1" style="stop-color:#192647;stop-opacity:0"/>
</linearGradient>
<path class="st0" d="M564.2,454.9c-13-24.5-26.1-49-38.9-73.6l0,0c-2.3-4.4-3.3-6.4-5.5-10.7l0,0c-4.5-8.7-8.9-17.4-13.3-26.2
	c-6-6.9-18.2-7.9-26.7-7.9h-84c23.4-34.2,36.2-59.6,39-66.2c4-8.9,6.7-18.4,8-28.1l0.1-0.6c0.4-3.4,0.6-6.9,0.6-10.4
	c0-9.4-1.4-18.7-4.2-27.7c-5.9-18.8-17.6-35.2-33.3-47c-16.1-12.1-35.7-18.5-55.8-18.5h-0.2c-20.2-0.1-39.8,6.4-55.9,18.5
	c-15.7,11.8-27.4,28.2-33.3,47c-2.8,9-4.2,18.3-4.2,27.7c0,3.5,0.2,6.9,0.6,10.4l0.1,0.6l0,0c1.1,9.4,4.1,18.7,8,28.1
	c3.1,7.4,16.8,33.2,39.3,66.2h-84.3c-8.5,0-20.7,1-26.7,7.9c-5.9,11.4-8,15.6-12.4,24.1c-2.2,4.3-3.3,6.4-5.5,10.7
	c-13.2,25.3-26.5,50.5-39.9,75.7c-4,7.6,2.9,14.6,16.1,14.6h396.4C561.3,469.5,568.3,462.5,564.2,454.9z"/>
<path class="st1" d="M498.2,419.5h-61.1c-11.4-29.7-23-59.4-36.5-88.2h74.7c12.8,24.6,25.9,49.1,38.9,73.6
	C518.3,412.5,511.3,419.5,498.2,419.5z"/>
<path class="st1" d="M469.8,320.6h-74.1c-5.2-11.3-10.1-22.6-14.8-34.1h48.9c8.5,0,20.6,1,26.7,7.9
	C460.9,303.2,465.3,311.9,469.8,320.6z"/>
<path class="st1" d="M125.6,329.2c-13.2,25.3-26.5,50.5-39.9,75.7c-4,7.6,2.9,14.6,16.1,14.6h52.1c9.6-23.8,19.2-47.7,29.9-71
	C189.8,327.8,135,329.4,125.6,329.2z"/>
<path class="st1" d="M143.5,294.4c-5.9,11.4-8,15.6-12.4,24.1c12,0.2,102-0.6,91,30c-8.1,23.4-15,47.2-21.8,71h190.4
	c-12-44.9-27-88.5-40.3-133H170.2C161.7,286.5,149.6,287.5,143.5,294.4z"/>
<path class="st2" d="M469.8,320.6h-74.1c-5.2-11.3-10.1-22.6-14.8-34.1h-30.4c13.3,44.5,28.2,88.1,40.3,133h46.4
	c-11.4-29.7-23-59.4-36.5-88.2h74.7C473,326.9,472,324.9,469.8,320.6z"/>
<path class="st2" d="M131.1,318.5c-2.2,4.3-3.3,6.4-5.5,10.7c9.4,0.2,64.2-1.4,58.2,19.3c-10.7,23.4-20.3,47.2-29.9,71h46.4
	c6.9-23.8,13.8-47.6,21.8-71C233.1,317.9,143.1,318.7,131.1,318.5z"/>
<path class="st3" d="M389.5,153.2c-5.9-18.7-17.4-35-33.1-46.8c-32.9-24.6-78-24.6-110.9,0c-23.5,17.5-37.3,45.1-37.2,74.3
	c0,3.4,0.2,6.9,0.6,10.3l0.1,0.6l0,0c1.1,9.3,4.1,18.6,8,28c4.7,11.3,34.4,65.9,82.3,123.3l1.7,1.8l1.7-1.8
	c51.4-61.1,78-113.4,82.3-123.3c4-8.9,6.7-18.3,8-28l0.1-0.6c0.4-3.4,0.6-6.9,0.6-10.3C393.6,171.4,392.2,162.1,389.5,153.2z"/>
<path class="st3" d="M389.2,153.2c-5.9-18.7-17.4-35-33.1-46.8c-32.9-24.6-78-24.6-110.9,0c-23.5,17.5-37.3,45.1-37.2,74.3
	c0,3.4,0.2,6.9,0.6,10.3l0.1,0.6l0,0c1.1,9.3,4.1,18.6,8,28C221.3,231,251,285.6,299,343l1.7,1.8l1.7-1.8
	c51.4-61.1,78-113.4,82.3-123.3c4-8.9,6.7-18.3,8-28l0.1-0.6c0.4-3.4,0.6-6.9,0.6-10.3C393.4,171.4,392,162.1,389.2,153.2z"/>
<linearGradient id="SVGID_2_" gradientUnits="userSpaceOnUse" x1="211.6398" y1="450.8356" x2="320.3969" y2="393.0106" gradientTransform="matrix(1 0 0 -1 0 602)">
	<stop  offset="0" style="stop-color:#FFFFFF;stop-opacity:0.5"/>
	<stop  offset="1" style="stop-color:#FFFFFF;stop-opacity:0.15"/>
</linearGradient>
<path class="st4" d="M368.4,117.2c-32.3-34.4-85.2-39-122.9-10.8c-23.5,17.5-37.3,45.1-37.2,74.3c0,3.4,0.2,6.9,0.6,10.3l0.1,0.6
	l0,0c1.1,9.3,4.1,18.6,8,28c3.6,8.7,22.2,43.3,52.5,85.1L368.4,117.2z"/>
<path class="st5" d="M300.2,125.8l-51.7,32.8c-3.3,2.1-4.3,6.5-2.2,9.8c0,0,0,0,0,0l1.3,2.1l53.4-33.9l53.4,33.9l1.3-2.1
	c2.1-3.3,1.2-7.7-2.2-9.8c0,0,0,0,0,0l-51.7-32.8C301.2,125.5,300.6,125.5,300.2,125.8z"/>
<polygon class="st6" points="259.4,172.2 247.5,170.5 259.4,162.9 "/>
<polygon class="st6" points="342.4,172.2 354.3,170.5 342.4,162.9 "/>
<path class="st1" d="M300.9,136.6L259.4,163v59h31v-36.7c0-1.7,1.4-3.1,3.1-3.1h0h14.9c1.7,0,3.1,1.4,3.1,3.1c0,0,0,0,0,0v36.6h31
	v-59L300.9,136.6z"/>
<linearGradient id="SVGID_3_" gradientUnits="userSpaceOnUse" x1="343.08" y1="396.75" x2="265.82" y2="396.75" gradientTransform="matrix(1 0 0 -1 0 602)">
	<stop  offset="0" style="stop-color:#043263;stop-opacity:0.8"/>
	<stop  offset="1" style="stop-color:#043263;stop-opacity:0"/>
</linearGradient>
<polygon class="st7" points="290.4,188.6 272,221.9 290.4,221.9 "/>
<linearGradient id="SVGID_4_" gradientUnits="userSpaceOnUse" x1="343.08" y1="418.49" x2="265.82" y2="418.49" gradientTransform="matrix(1 0 0 -1 0 602)">
	<stop  offset="0" style="stop-color:#043263;stop-opacity:0.8"/>
	<stop  offset="1" style="stop-color:#043263;stop-opacity:0"/>
</linearGradient>
<path class="st8" d="M314.4,145.1l-20.5,37h14.4c1.7,0,3.1,1.4,3.1,3.1c0,0,0,0,0,0v36.7h31v-59L314.4,145.1z"/>
</svg>
