<svg id="Capa_1" data-name="Capa 1" xmlns="http://www.w3.org/2000/svg" xmlns:xlink="http://www.w3.org/1999/xlink" viewBox="0 0 600 600"><defs><style>.cls-1{fill:url(#Degradado_sin_nombre);}.cls-2{fill:#043263;}.cls-3{fill:url(#Degradado_sin_nombre_11);}.cls-4{fill:#49a5e6;}.cls-5{opacity:0.5;}.cls-6{fill:url(#Degradado_sin_nombre_3);}.cls-7{fill:#eaf9fa;}.cls-8{fill:#2dcccd;}.cls-9{fill:#eb5e62;}.cls-10{fill:#d8be75;}.cls-11{fill:url(#Degradado_sin_nombre_4);}.cls-12{fill:url(#Degradado_sin_nombre_5);}.cls-13{fill:url(#Degradado_sin_nombre_6);}.cls-14{fill:url(#Degradado_sin_nombre_7);}.cls-15{fill:#028484;opacity:0.8;isolation:isolate;}.cls-16{fill:#fff;}</style><linearGradient id="Degradado_sin_nombre" x1="247.45" y1="516.23" x2="466.25" y2="927.75" gradientTransform="translate(0 -423.21)" gradientUnits="userSpaceOnUse"><stop offset="0" stop-color="#192647" stop-opacity="0.5"/><stop offset="1" stop-color="#192647" stop-opacity="0"/></linearGradient><linearGradient id="Degradado_sin_nombre_11" x1="413.6" y1="1366.26" x2="281.4" y2="1366.26" gradientTransform="translate(0 -1023.21)" gradientUnits="userSpaceOnUse"><stop offset="0" stop-color="#072146" stop-opacity="0.5"/><stop offset="1" stop-color="#072146" stop-opacity="0"/></linearGradient><linearGradient id="Degradado_sin_nombre_3" x1="183.12" y1="1192.81" x2="273.89" y2="1241.05" gradientTransform="translate(0 -1023.21)" gradientUnits="userSpaceOnUse"><stop offset="0" stop-color="#eaf9fa"/><stop offset="1" stop-color="#eaf9fa" stop-opacity="0.2"/><stop offset="1" stop-color="#eaf9fa" stop-opacity="0.5"/></linearGradient><linearGradient id="Degradado_sin_nombre_4" x1="-11922.57" y1="-791.72" x2="-11949.18" y2="-805.88" gradientTransform="translate(-11733.7 -392.79) rotate(180)" gradientUnits="userSpaceOnUse"><stop offset="0" stop-color="#eaf9fa" stop-opacity="0.4"/><stop offset="1" stop-color="#eaf9fa" stop-opacity="0.1"/><stop offset="1" stop-color="#eaf9fa" stop-opacity="0.5"/></linearGradient><linearGradient id="Degradado_sin_nombre_5" x1="-11990.85" y1="-791.76" x2="-12017.46" y2="-805.92" gradientTransform="translate(-11733.7 -392.79) rotate(180)" gradientUnits="userSpaceOnUse"><stop offset="0" stop-color="#eaf9fa" stop-opacity="0.7"/><stop offset="1" stop-color="#eaf9fa" stop-opacity="0.1"/><stop offset="1" stop-color="#eaf9fa" stop-opacity="0.5"/></linearGradient><linearGradient id="Degradado_sin_nombre_6" x1="-12058.08" y1="-791.72" x2="-12084.68" y2="-805.88" xlink:href="#Degradado_sin_nombre_4"/><linearGradient id="Degradado_sin_nombre_7" x1="556.6" y1="-785.85" x2="355.5" y2="-785.85" gradientTransform="matrix(1, 0, 0, -1, 0, -496.8)" gradientUnits="userSpaceOnUse"><stop offset="0" stop-color="#028484" stop-opacity="0.8"/><stop offset="1" stop-color="#028484" stop-opacity="0.1"/></linearGradient></defs><path class="cls-1" d="M573.6,236.2H450V181.5a25.3,25.3,0,0,0-25.3-25.3h-205a25.4,25.4,0,0,0-25.4,25.3V478.9a25.4,25.4,0,0,0,25.4,25.4h205A25.49,25.49,0,0,0,450,478.9V419.1H573.6A19.41,19.41,0,0,0,593,399.7h0V255.6a19.41,19.41,0,0,0-19.4-19.4Z"/><g id="Contenido"><path class="cls-2" d="M388.3,465.7h-205A25.3,25.3,0,0,1,158,440.4h0V143a25.3,25.3,0,0,1,25.3-25.3h205A25.4,25.4,0,0,1,413.7,143h0V440.4a25.2,25.2,0,0,1-25.1,25.3h-.3Z"/><path class="cls-3" d="M281.4,465.8h107a25.2,25.2,0,0,0,25.2-25.2h0V220.3Z"/><path class="cls-4" d="M195.4,150.2H376.1a3.2,3.2,0,0,1,3.3,3.1v.1h0V259.3a3.2,3.2,0,0,1-3.1,3.3H195.4a3.4,3.4,0,0,1-3.3-3.2h0V153.5a3.3,3.3,0,0,1,3.3-3.3Z"/><g class="cls-5"><path class="cls-6" d="M195.2,150.2a3.1,3.1,0,0,0-3,3h0V259.5a3,3,0,0,0,3,3H250l59.9-112.4H195.2Z"/></g><path class="cls-7" d="M195.4,280.2h44.1a3.2,3.2,0,0,1,3.3,3.1v.1h0v34.2a3.2,3.2,0,0,1-3.1,3.3H195.4a3.4,3.4,0,0,1-3.3-3.2h0V283.5A3.4,3.4,0,0,1,195.4,280.2Z"/><path class="cls-7" d="M263.8,280.2h44a3.2,3.2,0,0,1,3.3,3.1v.1h0v34.2a3.3,3.3,0,0,1-3.2,3.3H263.8a3.41,3.41,0,0,1-3.4-3.2h0V283.5A3.4,3.4,0,0,1,263.8,280.2Z"/><path class="cls-7" d="M330.9,280.2H375a3.2,3.2,0,0,1,3.3,3.1v.1h0v34.2a3.2,3.2,0,0,1-3.1,3.3H330.9a3.4,3.4,0,0,1-3.3-3.2h0V283.5A3.3,3.3,0,0,1,330.9,280.2Z"/><path class="cls-7" d="M195.4,335.3h44.1a3.2,3.2,0,0,1,3.3,3.1v.1h0v34.2a3.3,3.3,0,0,1-3.2,3.3H195.4a3.3,3.3,0,0,1-3.3-3.2h0V338.6A3.4,3.4,0,0,1,195.4,335.3Z"/><path class="cls-7" d="M263.8,335.3h44a3.2,3.2,0,0,1,3.3,3.1v.1h0v34.2a3.4,3.4,0,0,1-3.2,3.3H263.8a3.41,3.41,0,0,1-3.4-3.2h0V338.6A3.4,3.4,0,0,1,263.8,335.3Z"/><path class="cls-7" d="M330.9,335.3H375a3.2,3.2,0,0,1,3.3,3.1v.1h0v34.2a3.4,3.4,0,0,1-3.2,3.3H330.9a3.3,3.3,0,0,1-3.3-3.2h0V338.6a3.3,3.3,0,0,1,3.3-3.3Z"/><path class="cls-8" d="M330.9,390.4H375a3.2,3.2,0,0,1,3.3,3.1v.1h0v34.1a3.2,3.2,0,0,1-3.1,3.3H330.9a3.2,3.2,0,0,1-3.3-3.1v-.1h0V393.7a3.3,3.3,0,0,1,3.3-3.3Z"/><path class="cls-9" d="M195.4,390.4h44.1a3.2,3.2,0,0,1,3.3,3.1v.1h0v34.1a3.2,3.2,0,0,1-3.1,3.3H195.4a3.2,3.2,0,0,1-3.3-3.1v-.1h0V393.7A3.4,3.4,0,0,1,195.4,390.4Z"/><path class="cls-10" d="M263.8,390.4h44a3.2,3.2,0,0,1,3.3,3.1v.1h0v34.1A3.2,3.2,0,0,1,308,431H263.8a3.3,3.3,0,0,1-3.4-3.1V393.7A3.4,3.4,0,0,1,263.8,390.4Z"/><path class="cls-11" d="M195.4,431.1h10.5l21.5-40.7h-32a3.3,3.3,0,0,0-3.3,3.2h0v34.1a3.3,3.3,0,0,0,3.3,3.3Z"/><path class="cls-12" d="M263.8,431.1h10.4l21.5-40.7H263.8a3.3,3.3,0,0,0-3.4,3.1v34.3a3.3,3.3,0,0,0,3.3,3.3Z"/><path class="cls-13" d="M330.9,431.1h10.5l21.5-40.7h-32a3.3,3.3,0,0,0-3.3,3.2h0v34.1a3.3,3.3,0,0,0,3.3,3.3Z"/></g><rect class="cls-8" x="253.3" y="197.7" width="303.4" height="182.86" rx="19.4"/><path class="cls-14" d="M537.2,380.5a19.41,19.41,0,0,0,19.4-19.4h0V217a19.41,19.41,0,0,0-19.4-19.4H452.8L355.5,380.5Z"/><rect class="cls-15" x="253.3" y="223.7" width="303.4" height="29.73"/><rect class="cls-16" x="297.9" y="310.6" width="214.1" height="26.76" rx="2.5"/></svg>