<svg id="Capa_1" data-name="Capa 1" xmlns="http://www.w3.org/2000/svg" xmlns:xlink="http://www.w3.org/1999/xlink" viewBox="0 0 600 600"><defs><style>.cls-1{fill:none;}.cls-2{fill:url(#Degradado_sin_nombre_11);}.cls-3{fill:#004283;}.cls-4{fill:#f9b27b;}.cls-5{fill:#da721e;opacity:0.48;}.cls-6{fill:#0a62a7;}.cls-7{fill:url(#Degradado_sin_nombre_10);}.cls-8{fill:#002e65;}.cls-9{fill:#fff;}</style><linearGradient id="Degradado_sin_nombre_11" x1="204.08" y1="153.48" x2="433.68" y2="585.29" gradientUnits="userSpaceOnUse"><stop offset="0" stop-color="#192647"/><stop offset="0" stop-color="#192647" stop-opacity="0.5"/><stop offset="1" stop-color="#192647" stop-opacity="0"/></linearGradient><linearGradient id="Degradado_sin_nombre_10" x1="466.82" y1="420.31" x2="340.06" y2="420.31" gradientUnits="userSpaceOnUse"><stop offset="0" stop-color="#003165" stop-opacity="0.6"/><stop offset="1" stop-color="#003165" stop-opacity="0"/></linearGradient></defs><g id="Cuadrados_Blancos" data-name="Cuadrados Blancos"><rect class="cls-1" width="600" height="600"/></g><rect class="cls-1" width="600" height="600"/><path class="cls-2" d="M520.32,477.32c0-1.33,0-2.66-.05-4A144.27,144.27,0,0,0,519,458.12c-.49-3.66-1.11-7.21-1.83-10.65q-.72-3.45-1.58-6.73c-.29-1.1-.58-2.18-.88-3.25a155.27,155.27,0,0,0-5.14-15.07c-.37-.94-.75-1.87-1.13-2.78a186.27,186.27,0,0,0-17.09-31.32c-.68-1-1.4-2.06-2.13-3.06l-.05-.06c-.74-1-1.51-2-2.3-2.95l0,0q-2.4-2.93-5.19-5.71h0c-11.82-11.78-29.26-22-58.4-36.09h0a64.78,64.78,0,0,1-7-1.62c4.66-1.76,15.41-6.05,15.41-6.05a75.77,75.77,0,0,1-4-22.72h0c.28-16.4,10.57-51.51,6.32-90.75-3.64-33.54-18.95-93.42-78.36-93.42-49.45,0-86.87,40.7-86.87,87.47a117.4,117.4,0,0,0,2.31,21.26c.49,17.86,6.93,45.31,6.81,59.89S270,329,270,329c10.93-11.3,18.59-28.07,18.59-28.07a77.21,77.21,0,0,1-9.11,35.35s6.25,1.55,10.39,2.61c-3.47.73-6.4,1.33-7.21,1.54h0c-38.33,18.59-56.45,30.34-68.1,47.91-10,15.09-28.93,46.17-28.93,89,0,7.36-2.08,36,12.1,55.08,12.75,17.15,28.18,20.57,46.62,18.24L333.3,539.4h0L353,536.91l40.69,5.14h0l67.93,8.59a76.1,76.1,0,0,0,10.06.65c1.73,0,3.42-.09,5.09-.26.82-.08,1.63-.18,2.43-.29s1.49-.24,2.23-.39,1.55-.33,2.32-.53a39.82,39.82,0,0,0,3.85-1.19c1.05-.39,2.08-.81,3.1-1.29.46-.21.91-.44,1.37-.67a40.25,40.25,0,0,0,6.44-4.13c.69-.54,1.38-1.11,2.06-1.71.93-.82,1.86-1.69,2.76-2.63a57.73,57.73,0,0,0,4.91-5.8c7.54-10.14,10.48-23,11.58-33.88.07-.64.13-1.28.18-1.9.32-3.77.43-7.26.45-10.27C520.45,482.33,520.32,479.16,520.32,477.32Zm-186.5-97a101.79,101.79,0,0,0,18.5,1.82h-1A81.8,81.8,0,0,1,333.82,380.33Z"/><path class="cls-3" d="M216.41,285.39s7.78-19.93,7.9-34.51-6.32-42-6.8-59.89l20-4.74,131.33,9.11s5.22,59.41,5.22,71.07a75.77,75.77,0,0,0,4,22.72s-16.76,6.68-17.49,6.8-118.57.86-121.73,0-13-3.28-13-3.28A77.21,77.21,0,0,0,235,257.32S227.35,274.09,216.41,285.39Z"/><path class="cls-4" d="M273.2,261.07s-3.95,17.22-7.45,21.06-12.56,9.08-19.31,10.82c-6,1.55-15.76,3.45-17.37,3.87,3.38,23.44,35,41.75,70.43,41.75,26.36,0,49.21-10.12,60.6-24.95,4-5.73,7.9-9.46,8.85-12.73.25-1.11.6-2.94.74-4.07-2.1-.31-20.26-3.88-34.35-14.57-6.28-4.77-7.79-20.83-7.79-20.83s22.92-14.78,28.74-70.18l5-37.12-117.89.82-.7,49.34S251.56,245.47,273.2,261.07Z"/><path class="cls-3" d="M217.51,191a117.4,117.4,0,0,1-2.31-21.26c0-46.77,37.42-87.47,86.86-87.47,59.41,0,74.72,59.88,78.36,93.42,4.25,39.24-6,74.36-6.32,90.75s-17-58.82-18.9-73a224.37,224.37,0,0,0-6.12-33.69,165.37,165.37,0,0,1-23.45,5L321.38,157l-3.4,8.39s-25.88,1.21-64.88-5l-11.18,53.09Z"/><path class="cls-5" d="M314.88,268.77c-11.13,3.33-17.6,4-24.09,2.07-8.14-2.38-13.73-6.75-17.59-9.77a10.82,10.82,0,0,1-.75,3.05c-1.31,5.12-4.13,15.19-6.7,18-2.05,2.26-6.05,5-10.37,7.24C298,290,316,268.45,314.88,268.77Z"/><path class="cls-6" d="M466.71,433.73c0-42.83-18.91-73.91-28.92-89-11.66-17.57-29.77-29.32-68.1-47.91-14.58,26.91-30.78,42.2-70.31,42.2-57.33,0-58.17-15-70.31-42.2-38.33,18.59-56.44,30.34-68.1,47.91-10,15.09-28.93,46.17-28.93,89,0,7.36-2.08,36,12.1,55.08,12.75,17.15,28.18,20.57,46.62,18.24l108.62-13.73L408,507.05c18.44,2.33,33.87-1.09,46.62-18.24C468.8,469.73,466.71,441.09,466.71,433.73Z"/><path class="cls-7" d="M466.71,433.73c0-42.83-18.91-73.91-28.92-89a75.48,75.48,0,0,0-9.71-11.82l-88,165.55L408,507.05c18.44,2.33,33.87-1.09,46.62-18.24C468.8,469.73,466.71,441.09,466.71,433.73Z"/><path class="cls-8" d="M203.76,392c-2,17.5-2.78,33.71-1,47.45l-8.5-2.47C193.25,421.44,197,406.51,203.76,392Z"/><path class="cls-4" d="M401.43,385.63c-3.83-1-18.83,17.48-29.95,32l1.2-3.76,14.37-21.3.17-.25a3.23,3.23,0,0,0-4.93-4.11l-19.82,19.38-.35.34-.43.83L349,433.33l51.54,6.41v.05c6.5-6.42,11.63-12.36,13.25-15.89C418.75,416.41,404.15,386.31,401.43,385.63Z"/><polygon class="cls-8" points="227.98 452.45 279.69 495.81 306.01 492.48 227.98 452.45"/><path class="cls-9" d="M294,426.47l24.42,3,51.3-132.68s-21.77,41.75-72,41.75-68.66-41.75-68.66-41.75l46.08,127.31Z"/></svg>