<svg id="Capa_1" data-name="Capa 1" xmlns="http://www.w3.org/2000/svg" xmlns:xlink="http://www.w3.org/1999/xlink" viewBox="0 0 600 600"><defs><style>.cls-1{fill:url(#Degradado_sin_nombre_21);}.cls-2{fill:#004481;}.cls-3{fill:url(#Degradado_sin_nombre_43);}.cls-4{fill:#49a5e6;}.cls-15,.cls-5{opacity:0.5;}.cls-6{fill:url(#Degradado_sin_nombre_32);}.cls-7{fill:#eaf9fa;}.cls-8{fill:#2dcccd;}.cls-9{fill:#eb5e62;}.cls-10{fill:#d8be75;}.cls-11{fill:url(#Degradado_sin_nombre_4);}.cls-12{fill:url(#Degradado_sin_nombre_42);}.cls-13{fill:url(#Degradado_sin_nombre_38);}.cls-14{fill:#1464a5;}.cls-15{isolation:isolate;fill:url(#Degradado_sin_nombre_29);}.cls-16{fill:#08467f;}.cls-17{fill:#00d0cf;}</style><linearGradient id="Degradado_sin_nombre_21" x1="-223.87" y1="252.55" x2="-223.32" y2="253.6" gradientTransform="translate(80325.5 -87833.8) scale(357.7 348.43)" gradientUnits="userSpaceOnUse"><stop offset="0" stop-color="#072146" stop-opacity="0.5"/><stop offset="1" stop-color="#072146" stop-opacity="0"/></linearGradient><linearGradient id="Degradado_sin_nombre_43" x1="-220.88" y1="255" x2="-221.88" y2="255" gradientTransform="translate(25001 -51932.4) scale(111 205)" gradientUnits="userSpaceOnUse"><stop offset="0" stop-color="#043263" stop-opacity="0.5"/><stop offset="1" stop-color="#043263" stop-opacity="0"/></linearGradient><linearGradient id="Degradado_sin_nombre_32" x1="-221.45" y1="260.09" x2="-220.74" y2="260.83" gradientTransform="translate(22201.3 -24287) scale(98.89 94.08)" gradientUnits="userSpaceOnUse"><stop offset="0" stop-color="#eaf9fa" stop-opacity="0.5"/><stop offset="1" stop-color="#eaf9fa" stop-opacity="0.1"/></linearGradient><linearGradient id="Degradado_sin_nombre_4" x1="-213.22" y1="278.43" x2="-212.63" y2="278.78" gradientTransform="translate(6696.8 -9076.8) scale(30 34)" gradientUnits="userSpaceOnUse"><stop offset="0" stop-color="#eaf9fa" stop-opacity="0.4"/><stop offset="1" stop-color="#eaf9fa" stop-opacity="0.1"/><stop offset="1" stop-color="#eaf9fa" stop-opacity="0.5"/></linearGradient><linearGradient id="Degradado_sin_nombre_42" x1="-213.22" y1="278.43" x2="-212.63" y2="278.78" gradientTransform="translate(6753.8 -9076.8) scale(30 34)" gradientUnits="userSpaceOnUse"><stop offset="0" stop-color="#eaf9fa" stop-opacity="0.5"/><stop offset="1" stop-color="#eaf9fa" stop-opacity="0"/></linearGradient><linearGradient id="Degradado_sin_nombre_38" x1="-213.18" y1="278.43" x2="-212.59" y2="278.78" gradientTransform="translate(6809.8 -9076.8) scale(30 34)" xlink:href="#Degradado_sin_nombre_42"/><linearGradient id="Degradado_sin_nombre_29" x1="155.57" y1="1796.75" x2="287.85" y2="1929.03" gradientTransform="translate(0 -1576.8)" gradientUnits="userSpaceOnUse"><stop offset="0" stop-color="#fff" stop-opacity="0.5"/><stop offset="1" stop-color="#ecf7f8" stop-opacity="0"/></linearGradient></defs><path id="Combined-Shape" class="cls-1" d="M351.3,166.6a19,19,0,0,1,19,19h0V201H511.2a21.3,21.3,0,0,1,21.1,20.8V470.9A21.1,21.1,0,0,1,511.2,492H370.3v4.2a19.1,19.1,0,0,1-18.7,19h-158a19,19,0,0,1-19-19h0V185.6a19,19,0,0,1,19-19Z"/><path id="Path" class="cls-2" d="M463.1,446H291.5a21.2,21.2,0,0,1-21.2-21.2h0V176.2A21.2,21.2,0,0,1,291.5,155H463.1a21.2,21.2,0,0,1,21.2,21.2h0V424.8A21.1,21.1,0,0,1,463.2,446Z"/><path id="Path-2" class="cls-3" d="M373.3,446h89.8a21.1,21.1,0,0,0,21.2-21h0V241Z"/><path id="Path-3" class="cls-4" d="M302.1,182H453.5a2.8,2.8,0,0,1,2.8,2.7h0v88.4a2.8,2.8,0,0,1-2.7,2.8H302.1a2.8,2.8,0,0,1-2.8-2.7h0V184.8A2.7,2.7,0,0,1,302.1,182Z"/><g id="Group" class="cls-5"><path id="Path-4" class="cls-6" d="M301.3,182.2a2.5,2.5,0,0,0-2.5,2.5h0v89a2.5,2.5,0,0,0,2.4,2.5h46.1l50.3-94.1H301.3Z"/></g><path id="Path-5" class="cls-7" d="M302,291h36.5a2.8,2.8,0,0,1,2.8,2.7h0v28.4a2.8,2.8,0,0,1-2.7,2.8H302a2.7,2.7,0,0,1-2.7-2.7h0V293.8A2.7,2.7,0,0,1,302,291Z"/><path id="Path-6" class="cls-7" d="M359,291h36.5a2.8,2.8,0,0,1,2.8,2.7h0v28.4a2.8,2.8,0,0,1-2.7,2.8H359a2.7,2.7,0,0,1-2.7-2.7h0V293.8A2.7,2.7,0,0,1,359,291Z"/><path id="Path-7" class="cls-7" d="M416,291h36.5a2.8,2.8,0,0,1,2.8,2.7h0v28.4a2.8,2.8,0,0,1-2.7,2.8H416a2.7,2.7,0,0,1-2.7-2.7h0V293.8A2.7,2.7,0,0,1,416,291Z"/><path id="Path-8" class="cls-7" d="M302,337h36.5a2.8,2.8,0,0,1,2.8,2.7h0v28.4a2.8,2.8,0,0,1-2.7,2.8H302a2.7,2.7,0,0,1-2.7-2.7h0V339.8A2.7,2.7,0,0,1,302,337Z"/><path id="Path-9" class="cls-7" d="M359,337h36.5a2.8,2.8,0,0,1,2.8,2.7h0v28.4a2.8,2.8,0,0,1-2.7,2.8H359a2.7,2.7,0,0,1-2.7-2.7h0V339.8A2.7,2.7,0,0,1,359,337Z"/><path id="Path-10" class="cls-7" d="M416,337h36.5a2.8,2.8,0,0,1,2.8,2.7h0v28.4a2.8,2.8,0,0,1-2.7,2.8H416a2.7,2.7,0,0,1-2.7-2.7h0V339.8A2.7,2.7,0,0,1,416,337Z"/><path id="Path-11" class="cls-8" d="M416,383h36.5a2.8,2.8,0,0,1,2.8,2.7h0v28.4a2.8,2.8,0,0,1-2.7,2.8H416a2.7,2.7,0,0,1-2.7-2.7h0V385.8A2.7,2.7,0,0,1,416,383Z"/><path id="Path-12" class="cls-9" d="M302,383h36.5a2.8,2.8,0,0,1,2.8,2.7h0v28.4a2.8,2.8,0,0,1-2.7,2.8H302a2.7,2.7,0,0,1-2.7-2.7h0V385.8A2.7,2.7,0,0,1,302,383Z"/><path id="Path-13" class="cls-10" d="M359,383h36.5a2.8,2.8,0,0,1,2.8,2.7h0v28.4a2.8,2.8,0,0,1-2.7,2.8H359a2.7,2.7,0,0,1-2.7-2.7h0V385.8A2.7,2.7,0,0,1,359,383Z"/><path id="Path-14" class="cls-11" d="M302.1,417H311l18.3-34H302.1a2.7,2.7,0,0,0-2.8,2.6v28.6a2.8,2.8,0,0,0,2.8,2.8Z"/><path id="Path-15" class="cls-12" d="M359.1,417H368l18.3-34H359.1a2.7,2.7,0,0,0-2.8,2.6v28.6a2.8,2.8,0,0,0,2.8,2.8Z"/><path id="Path-16" class="cls-13" d="M416.1,417H425l18.3-34H416.1a2.7,2.7,0,0,0-2.8,2.6v28.6a2.8,2.8,0,0,0,2.8,2.8Z"/><path class="cls-14" d="M148.3,118H306.9a19,19,0,0,1,18.9,19V447.5a19.1,19.1,0,0,1-18.9,19H148.3a19,19,0,0,1-18.9-19V137a18.9,18.9,0,0,1,18.9-19Z"/><rect class="cls-4" x="129.4" y="161.7" width="196.5" height="260.94"/><polygon class="cls-15" points="129.6 161.9 129.6 422.5 229.8 422.7 325.8 245.2 325.8 161.7 129.6 161.9"/><circle class="cls-16" cx="227.6" cy="292.2" r="52.4"/><path class="cls-17" d="M247.4,303.3l-14.2-11.1,14.2-11.1a3.4,3.4,0,0,0,.6-4.8h0a1.7,1.7,0,0,0-.6-.6l-17.7-13.9a3.5,3.5,0,0,0-4.9.7,3.8,3.8,0,0,0-.7,2.1v20.5L212,275.7a3.5,3.5,0,0,0-4.9.6,3.5,3.5,0,0,0,.6,4.8l14.2,11.1-14.2,11.1a3.6,3.6,0,0,0-.6,4.9,3.7,3.7,0,0,0,2.8,1.3,3.3,3.3,0,0,0,2.1-.7l12.1-9.5v20.6a3.4,3.4,0,0,0,5.6,2.7l17.7-13.8a3.5,3.5,0,0,0,.6-4.9h0l-.6-.6ZM231,271.7l8.6,6.7-8.6,6.7Zm0,41.1V299.3l8.6,6.8Z"/></svg>