<svg id="Contenido" xmlns="http://www.w3.org/2000/svg" xmlns:xlink="http://www.w3.org/1999/xlink" viewBox="0 0 600 600"><defs><style>.cls-1{fill:url(#Degradado_sin_nombre_2);}.cls-2{fill:#2dcccd;}.cls-3{fill:url(#Degradado_sin_nombre_14);}.cls-4{fill:#004481;}.cls-5{fill:#043263;}.cls-6{fill:#1464a5;}.cls-7{fill:url(#Degradado_sin_nombre_24);}.cls-8{fill:url(#Degradado_sin_nombre_24-2);}</style><linearGradient id="Degradado_sin_nombre_2" x1="274.23" y1="168.33" x2="455.29" y2="508.85" gradientUnits="userSpaceOnUse"><stop offset="0" stop-color="#192647"/><stop offset="0" stop-color="#192647" stop-opacity="0.5"/><stop offset="1" stop-color="#192647" stop-opacity="0"/></linearGradient><linearGradient id="Degradado_sin_nombre_14" x1="172.29" y1="200.72" x2="328.07" y2="283.55" gradientUnits="userSpaceOnUse"><stop offset="0" stop-color="#fff" stop-opacity="0.5"/><stop offset="1" stop-color="#fff" stop-opacity="0.15"/></linearGradient><linearGradient id="Degradado_sin_nombre_24" x1="360.59" y1="278.24" x2="249.87" y2="278.24" gradientUnits="userSpaceOnUse"><stop offset="0" stop-color="#043263" stop-opacity="0.8"/><stop offset="1" stop-color="#043263" stop-opacity="0"/></linearGradient><linearGradient id="Degradado_sin_nombre_24-2" x1="360.59" y1="247.09" x2="249.87" y2="247.09" xlink:href="#Degradado_sin_nombre_24"/></defs><title>BBVAValora</title><path class="cls-1" d="M468.35,254.75a133.77,133.77,0,0,0-30.17-51.55h0q-1.94-2.07-4-4.06l-.1-.1q-1.91-1.86-3.88-3.64l-.42-.39q-1.82-1.62-3.67-3.16c-.25-.2-.49-.42-.73-.62-1.45-1.18-2.92-2.35-4.43-3.47a131.64,131.64,0,0,0-79.47-26.42h-.35a131.63,131.63,0,0,0-79.49,26.42,132.79,132.79,0,0,0-53.34,106.52,140.06,140.06,0,0,0,.85,14.78l.13.92h0c1.57,13.37,5.84,26.66,11.43,40.08,6.71,16.12,49.26,94.5,118,176.66l2.47,2.61.17-.19.18.19,2.47-2.61c73.64-87.58,111.83-162.49,117.94-176.66,5.76-13.37,9.87-26.73,11.42-40.08l.14-.93a139.63,139.63,0,0,0,.85-14.78A132.92,132.92,0,0,0,468.35,254.75Z"/><path class="cls-2" d="M427,203.64a134.17,134.17,0,0,0-47.38-67,132.78,132.78,0,0,0-159,0,132.77,132.77,0,0,0-53.35,106.52,142.65,142.65,0,0,0,.85,14.78l.14.93h0c1.57,13.36,5.84,26.65,11.43,40.07,6.71,16.13,49.26,94.51,118,176.66l2.47,2.61,2.47-2.61C376.29,388,414.48,313.13,420.59,299c5.76-13.37,9.87-26.73,11.42-40.07l.14-.94a139.63,139.63,0,0,0,.85-14.78A133.23,133.23,0,0,0,427,203.64Z"/><path class="cls-2" d="M426.69,203.64a134.11,134.11,0,0,0-47.38-67,132.76,132.76,0,0,0-159,0A132.77,132.77,0,0,0,167,243.16a139.92,139.92,0,0,0,.85,14.78l.13.93h0c1.56,13.36,5.84,26.65,11.42,40.07,6.72,16.12,49.26,94.51,118,176.66l2.47,2.61,2.47-2.61C375.94,388,414.14,313.12,420.24,299c5.76-13.37,9.88-26.73,11.43-40.08l.14-.93a142.34,142.34,0,0,0,.85-14.78A132.92,132.92,0,0,0,426.69,203.64Z"/><path class="cls-3" d="M396.86,152.09a132.78,132.78,0,0,0-229.52,91.07,142.65,142.65,0,0,0,.85,14.78l.13.93h0c1.57,13.36,5.84,26.65,11.43,40.07,5.19,12.46,31.79,62.1,75.29,121.93Z"/><path class="cls-4" d="M299.09,164.41l-74.15,46.94a10.2,10.2,0,0,0-3.16,14.12l1.87,2.93,76.52-48.59,76.52,48.59,1.88-2.93a10.2,10.2,0,0,0-3.16-14.12l-74.15-46.94A2,2,0,0,0,299.09,164.41Z"/><polygon class="cls-5" points="240.68 230.92 223.65 228.4 240.68 217.63 240.68 230.92"/><polygon class="cls-5" points="359.67 230.88 376.69 228.4 359.67 217.59 359.67 230.88"/><path class="cls-6" d="M300.17,179.8l-59.49,37.82V302.1h44.37V249.62a4.46,4.46,0,0,1,4.46-4.46h21.32a4.47,4.47,0,0,1,4.47,4.46V302.1h44.37V217.59Z"/><polygon class="cls-7" points="285.05 254.38 258.67 302.1 285.05 302.1 285.05 254.38"/><path class="cls-8" d="M319.49,192.07l-29.35,53.09h20.69a4.47,4.47,0,0,1,4.47,4.46V302.1h44.37V217.59Z"/></svg>