<svg xmlns="http://www.w3.org/2000/svg" xmlns:xlink="http://www.w3.org/1999/xlink" viewBox="0 0 600 600"><defs><style>.cls-1{fill:none;}.cls-2{fill:url(#Degradado_sin_nombre_224);}.cls-3{fill:#043263;}.cls-4{fill:#49a5e6;}.cls-5{opacity:0.5;isolation:isolate;fill:url(#Degradado_sin_nombre_16);}.cls-6{fill:#004481;}.cls-7{fill:#1464a5;}.cls-8{fill:url(#Degradado_sin_nombre_15);}.cls-9{fill:#2dcccd;}.cls-10{fill:#eaf9fa;}</style><linearGradient id="Degradado_sin_nombre_224" x1="247.58" y1="-3524.09" x2="460.72" y2="-3924.96" gradientTransform="matrix(1, 0, 0, -1, 0, -3372)" gradientUnits="userSpaceOnUse"><stop offset="0" stop-color="#192647" stop-opacity="0.5"/><stop offset="1" stop-color="#192647" stop-opacity="0"/></linearGradient><linearGradient id="Degradado_sin_nombre_16" x1="215.96" y1="-3587.76" x2="370.22" y2="-3742.02" gradientTransform="matrix(1, 0, 0, -1, 0, -3372)" gradientUnits="userSpaceOnUse"><stop offset="0" stop-color="#fff" stop-opacity="0.5"/><stop offset="1" stop-color="#ecf7f8" stop-opacity="0.1"/></linearGradient><linearGradient id="Degradado_sin_nombre_15" x1="348.84" y1="305.01" x2="265.86" y2="305.01" gradientTransform="translate(0 2)" gradientUnits="userSpaceOnUse"><stop offset="0" stop-color="#043263" stop-opacity="0.8"/><stop offset="1" stop-color="#043263" stop-opacity="0"/></linearGradient></defs><title>13</title><g id="Cuadrados_Blancos" data-name="Cuadrados Blancos"><rect class="cls-1" width="600" height="600"/></g><g id="Capa_13" data-name="Capa 13"><path class="cls-2" d="M261.1,147.85H447.2a22.32,22.32,0,0,1,22.3,22.31V534.89a22.32,22.32,0,0,1-22.3,22.31H261.1a22.32,22.32,0,0,1-22.3-22.31V170.16A22.32,22.32,0,0,1,261.1,147.85Z"/><path class="cls-3" d="M207.5,96.85H392.4A22.13,22.13,0,0,1,414.5,119v362a22.12,22.12,0,0,1-22.1,22.1H207.5a22.12,22.12,0,0,1-22.1-22.1v-362a22.13,22.13,0,0,1,22.06-22.2Z"/><rect class="cls-4" x="185.4" y="147.85" width="229.2" height="304.3"/><polygon class="cls-5" points="185.7 148.05 185.7 451.95 302.5 452.15 414.5 245.15 414.5 147.85 185.7 148.05"/><path class="cls-6" d="M299,239l-60.92,38.58a8.34,8.34,0,0,0-2.61,11.61h0l1.54,2.41,63-39.94,62.86,39.94,1.55-2.41a8.36,8.36,0,0,0-2.61-11.61h0L300.87,239A1.76,1.76,0,0,0,299,239Z"/><polygon class="cls-7" points="251.06 282.83 300 251.69 348.84 282.74 348.84 352.27 251.06 352.27 251.06 282.83"/><polygon class="cls-3" points="251.06 293.76 237.04 291.63 251.06 282.83 251.06 293.76"/><polygon class="cls-3" points="348.84 293.67 362.86 291.63 348.84 282.74 348.84 293.67"/><polygon class="cls-8" points="315.86 261.75 348.84 282.74 348.84 352.27 265.86 352.27 315.86 261.75"/><path class="cls-9" d="M312.38,352.27H287.52V309.14a3.68,3.68,0,0,1,3.68-3.68h17.5a3.68,3.68,0,0,1,3.68,3.68Z"/><path class="cls-10" d="M243.43,388H226.89a8.67,8.67,0,0,1-8.71-8.71V362.72h7.74v16.53a.92.92,0,0,0,1,1h16.54Z"/><path class="cls-10" d="M381.82,237.28h-7.74V220.75a.92.92,0,0,0-1-1H356.57V212h16.54a8.67,8.67,0,0,1,8.71,8.71Z"/><path class="cls-10" d="M373.11,388H356.57v-7.74h16.54a.92.92,0,0,0,1-1V362.72h7.74v16.53A8.74,8.74,0,0,1,373.11,388Z"/><path class="cls-10" d="M225.92,237.28h-7.74V220.75a8.67,8.67,0,0,1,8.71-8.71h16.54v7.74H226.89a.92.92,0,0,0-1,1Z"/></g></svg>