<svg id="Capa_1" data-name="Capa 1" xmlns="http://www.w3.org/2000/svg" xmlns:xlink="http://www.w3.org/1999/xlink" viewBox="0 0 600 600"><defs><style>.cls-1{fill:none;}.cls-2,.cls-7{font-size:32.36px;font-family:BentonSansBBVA-Book, Benton Sans BBVA;letter-spacing:-0.01em;}.cls-3{fill:url(#Degradado_sin_nombre_42);}.cls-4{fill:#f9b27b;}.cls-13,.cls-5{fill:#da721e;}.cls-5{opacity:0.48;}.cls-6{fill:#004283;}.cls-7{fill:#004580;}.cls-8{fill:#0a62a7;}.cls-10,.cls-9{fill:#002e65;}.cls-13,.cls-9{opacity:0.4;}.cls-11{fill:#fff;}.cls-12{fill:#1bccce;}.cls-14{fill:url(#Degradado_sin_nombre_10);}</style><linearGradient id="Degradado_sin_nombre_42" x1="188.68" y1="117.68" x2="447.95" y2="605.3" gradientUnits="userSpaceOnUse"><stop offset="0" stop-color="#182548" stop-opacity="0.5"/><stop offset="1" stop-color="#182548" stop-opacity="0"/></linearGradient><linearGradient id="Degradado_sin_nombre_10" x1="538.13" y1="447.47" x2="418.83" y2="447.47" gradientUnits="userSpaceOnUse"><stop offset="0" stop-color="#003165" stop-opacity="0.6"/><stop offset="1" stop-color="#003165" stop-opacity="0"/></linearGradient></defs><g id="Cuadrados_Blancos" data-name="Cuadrados Blancos"><rect class="cls-1" width="600" height="600"/></g><text class="cls-2" transform="translate(235.46 208.08) scale(0.95 1)"><tspan xml:space="preserve">  </tspan></text><path class="cls-3" d="M587,497.11a140.61,140.61,0,0,0-13.34-59.28c-.38-.8-.75-1.6-1.13-2.37-.75-1.56-1.51-3.07-2.26-4.52-.38-.72-.76-1.44-1.14-2.13-3.39-6.29-6.7-11.48-9.35-15.47-.65-1-1.32-1.93-2-2.87l0-.07c-.69-.94-1.41-1.86-2.16-2.77l0,0c-1.51-1.84-3.13-3.62-4.88-5.37h0c-11.13-11.09-27.55-20.67-55-34a62.12,62.12,0,0,1-6.57-1.53c4.38-1.66,14.5-5.69,14.5-5.69a71.29,71.29,0,0,1-3.78-21.38h0c.27-15.43,9.95-48.47,5.95-85.4-3.42-31.57-17.84-87.93-73.75-87.93-46.53,0-81.75,38.31-81.75,82.33a110.11,110.11,0,0,0,2.18,20c.31,11.48,3.23,27.17,5,40.33a100.42,100.42,0,0,0-21.13-3.05c-1,0-1.94-.05-2.91-.07v0h-1.09c-4.66,0-9.29,0-12.9.25-.46,0-.83,0-1.08.05l-4.33-26.47-.23-1.36c.32-.45.63-.9.93-1.34a72,72,0,0,0,10.38-23.4c.34-1.63.76-3.26,1.2-4.89a10.72,10.72,0,0,0,2.22-1.64,36.79,36.79,0,0,0,10.18-15.63c1.84-6.78,2.8-18.91-2-21.1a4.44,4.44,0,0,0-2.73-.23c.29-2.13.53-4.23.73-6.26a26.51,26.51,0,0,0,5.93-11.14c1.43-5.83.52-11.36-3.07-21.23-5.42-14.93-8.13-22.4-13.37-28.07-8.47-9.18-19.25-11.07-40.76-15.07-20.15-3.75-30.23-5.62-38.06.32-8.61,6.53-10.74,18.35-11.22,25.75a1.07,1.07,0,0,0-.45.22,5.27,5.27,0,0,0-2.3-.86c-6.78-.75-14,13.73-16.9,23.85-1.94,6.76-4.3,15-1.19,23.54a45.28,45.28,0,0,0,4.12,7.55,3.19,3.19,0,0,0-.61.08,5.55,5.55,0,0,0-3.18,2.79c-5,8.24,3.05,25.39,4.4,28.19.69,1.33,3.72,6.86,9.14,8.86a14.49,14.49,0,0,0,2.48.72c.93,3.1,2.05,6.42,3.39,9.92.41,1,.88,2,1.41,3.11A83.47,83.47,0,0,0,241,273.41c1.12,1.61,2.47,3.54,4.11,5.61q-1.22,13.67-2.42,27.33l-.23-.17a7.66,7.66,0,0,0-1.44-.1c-3.6-.23-8.24-.25-12.9-.25H227v0c-1,0-1.95,0-2.91.07-39.3,1.52-64.25,24.26-76,40.23a197.36,197.36,0,0,0-13,20,135.18,135.18,0,0,0-15.14,36.06,116.22,116.22,0,0,0-3.3,22.24c-.23,3.44-.35,6.72-.37,9.87-.12,6.93.18,37.17,13.53,55.13,12,16.14,32.64,16.67,50,14.47l83.69-10.58h0l8.73-1.1c-.06,1.61-.1,3.24-.1,4.9,0,6.92-2,33.87,11.39,51.82,12,16.15,26.52,19.37,43.88,17.18L411,555.53h0l9.89-1.25,8.64-1.1,102.22,12.93c1.08.13,2.16.25,3.22.34,2.12.19,4.21.28,6.24.27.51,0,1,0,1.52,0l1.51-.07a44.27,44.27,0,0,0,8.68-1.37l1.4-.4c7.84-2.41,14.93-7.34,21.3-15.92C589,531,587,504,587,497.11Z"/><path class="cls-4" d="M273.68,295.17c-1.16,1.92-15.38,18.55-41.15,19.71-24.66,1.11-39.59-17.43-41.16-19.46l6.91-78.18,63,2.48,3.81,22.94Z"/><path class="cls-5" d="M258.57,243.67c-4.11,11.21-9.58,18-13.68,22-10.78,10.57-20.6,10.69-35.12,22.88a83.33,83.33,0,0,0-12.67,13c-1-.89-2-2-3.07-3.08-.82-.89-2-2.17-2.64-3,2.3-26.06,4.58-51,6.89-77l63,2.47Z"/><path class="cls-4" d="M178.38,180.6s-5.61-10-10.53-8.85a5.55,5.55,0,0,0-3.18,2.79c-5,8.24,3.05,25.39,4.4,28.19.69,1.33,3.72,6.86,9.14,8.86a10,10,0,0,0,6.6.54,7.27,7.27,0,0,0,2.24-1.08C193,205.31,178.38,180.6,178.38,180.6Z"/><path class="cls-4" d="M277.57,177.55c1.48-1.34,6.59-5.87,10.16-4.25,4.83,2.19,3.87,14.31,2,21.1A36.79,36.79,0,0,1,279.58,210a8.49,8.49,0,0,1-4.71,2.45,3.35,3.35,0,0,1-1.13,0C272.29,212.05,272.41,204.41,277.57,177.55Z"/><path class="cls-4" d="M230.8,99.31A54.7,54.7,0,0,0,203,105.46a57.12,57.12,0,0,0-17.83,14.65c-9.24,14.5-11.3,26.67-11.74,34-.29,4.84.11,10,.9,20.33a189.51,189.51,0,0,0,2.94,24.35,143.8,143.8,0,0,0,6.77,23.4c.41,1,.88,2,1.41,3.11A83.47,83.47,0,0,0,192,236.41a68.39,68.39,0,0,0,12.7,14.5c4.84,4,11.68,9.67,22.06,10.8a36.7,36.7,0,0,0,22.57-5.2c8.23-5.22,12.92-11.36,16.47-16.55a72,72,0,0,0,10.38-23.4c1.7-8.1,5-16.07,6.1-25.75,1.33-11.86,0-23.77,0-33.58a96.41,96.41,0,0,0-5.87-21.52,93.41,93.41,0,0,0-7.22-14.18,51.52,51.52,0,0,0-16.93-15.84A48.71,48.71,0,0,0,230.8,99.31Z"/><path class="cls-6" d="M174.86,180.57s19.11-44.65,15.9-55.08-6-7.9-6-7.9a5.27,5.27,0,0,0-2.3-.86c-6.78-.75-14,13.73-16.9,23.85-1.94,6.76-4.3,15-1.19,23.54,2.23,6.17,14.21,21.79,10.52,16.45Z"/><path class="cls-6" d="M185.07,122.89s12.44,29.64,86.07,23.68c0,0,9.74,12.21,11,42.46,1.06-4.57,2-9.51,2.75-14.8q.54-3.82.88-7.42a26.51,26.51,0,0,0,5.93-11.14c1.43-5.83.52-11.36-3.07-21.23-5.42-14.93-8.13-22.4-13.37-28.07C266.75,97.19,256,95.3,234.46,91.3c-20.15-3.75-30.23-5.62-38.06.32C185,100.3,185,118.34,185.07,122.89Z"/><text class="cls-7" transform="translate(186.46 171.08) scale(0.95 1)"><tspan xml:space="preserve">  </tspan></text><path class="cls-8" d="M395.28,397.29c0-3.15-.14-6.43-.37-9.87a116.22,116.22,0,0,0-3.3-22.24,135.18,135.18,0,0,0-15.14-36.06,197.36,197.36,0,0,0-13.05-20c-11.78-16-36.73-38.71-76-40.23-1.32-.06-2.65-.09-4-.1l-.39,0c-3.05,0-14,.16-14,.32-.23,10.87-9.55,23.23-23.68,28.48a40.22,40.22,0,0,1-28.24,0c-14.14-5.25-23.46-17.61-23.69-28.48,0-.16-10.91-.29-14-.32l-.39,0c-1.34,0-2.67,0-4,.1-39.3,1.52-64.25,24.26-76,40.23a197.36,197.36,0,0,0-13,20,135.18,135.18,0,0,0-15.14,36.06,116.22,116.22,0,0,0-3.3,22.24c-.23,3.44-.35,6.72-.37,9.87-.12,6.93.18,37.17,13.53,55.13,12,16.14,32.64,16.67,50,14.47l108.42-13.7a658.78,658.78,0,0,0,92.46,13.7v0l.15,0c17.35,2.2,38,1.67,50-14.47C395.1,434.46,395.4,404.22,395.28,397.29Z"/><path class="cls-9" d="M305.11,344.1c-11.05,27.51-13.29,35.34-13.29,35.34l2.23,6.15,6,6.38,27.78-1.92,25.47-92.74-2.1-1.73c-.45-.36-.9-.72-1.36-1.07C348.72,293.62,315.4,318.46,305.11,344.1Z"/><path class="cls-10" d="M143,358.58c-1.92,16.46-2.62,31.72-1,44.65l-8-2.32C133.08,386.32,136.58,372.27,143,358.58Z"/><path class="cls-4" d="M329,352.62c-3.6-.91-17.72,16.45-28.18,30.14l1.12-3.54,13.53-20.05.16-.24a3,3,0,0,0-4.64-3.86L292.33,373.3l-.33.33-.4.77-11.91,23.11,48.5,6v0c6.11-6,10.95-11.63,12.47-15C345.3,381.59,331.56,353.26,329,352.62Z"/><path class="cls-6" d="M261.72,395.26l25.68-32.61a3,3,0,0,0,.32-3.2l-4.83-9.59a3,3,0,0,1,1.69-4.18l8.86-3.11a3,3,0,0,0,2-3.29l-10.93-70.45c-5.67,0-11.42,0-15.43.35L240.81,392.66Z"/><polygon class="cls-10" points="165.77 415.5 214.43 456.31 239.2 453.18 165.77 415.5"/><polygon class="cls-11" points="221.12 390.21 240.81 392.66 269.05 269.18 231.41 296.67 193.44 269.18 221.12 390.21 221.12 390.21"/><path class="cls-6" d="M169.05,342.57l8.86,3.11a3,3,0,0,1,1.69,4.18l-4.83,9.59a3,3,0,0,0,.32,3.2l19.22,24.42a256.41,256.41,0,0,1,26.81,3.14l-27.68-121c-4-.35-9.76-.35-15.42-.35l-10.94,70.45A3,3,0,0,0,169.05,342.57Z"/><path class="cls-12" d="M225.22,327.25l-4.1,63,19.69,2.45.85-3.72-4.06-61.69,10.63-13.86a3,3,0,0,0-.55-4.21L231.45,296.7v0l0,0,0,0v0l-16.24,12.48a3,3,0,0,0-.55,4.21Z"/><path class="cls-13" d="M329,352.62c-3.6-.91-17.72,16.45-28.18,30.14l1.12-3.54,13.53-20.05.16-.24a3,3,0,0,0-4.64-3.86l-9.18,9c-2.2,6.55-4.73,18.31-3.47,35.8l29.85,3.71v0c6.12-6,10.95-11.63,12.47-15C345.3,381.59,331.56,353.26,329,352.62Z"/><path class="cls-9" d="M319.81,402.5l-18.69-2.32s-3.11,33.27,7.41,64.5c0,0,19.4,2.25,33.09,3.07s17.74-43.94,17.74-43.94Z"/><path class="cls-6" d="M302.47,320.49s7.31-18.75,7.43-32.47-5.95-39.56-6.4-56.37l18.86-4.46L446,235.77s4.91,55.91,4.91,66.89A71.29,71.29,0,0,0,454.65,324s-15.78,6.28-16.47,6.4-111.59.8-114.56,0-12.23-3.09-12.23-3.09A72.67,72.67,0,0,0,320,294.08S312.76,309.86,302.47,320.49Z"/><path class="cls-4" d="M355.91,297.61s-3.72,16.21-7,19.82-11.82,8.54-18.18,10.18c-5.62,1.46-14.83,3.25-16.34,3.65,3.18,22.05,32.92,39.29,66.28,39.29,24.81,0,46.32-9.53,57-23.48,3.74-5.4,7.43-8.91,8.32-12,.24-1,.57-2.76.7-3.82-2-.3-19.07-3.66-32.32-13.72-5.92-4.49-7.34-19.61-7.34-19.61s21.58-13.9,27.05-66L438.82,197l-110.94.76-.66,46.44S335.54,282.93,355.91,297.61Z"/><path class="cls-6" d="M303.5,231.65a110.11,110.11,0,0,1-2.18-20c0-44,35.22-82.33,81.75-82.33,55.91,0,70.33,56.36,73.75,87.93,4,36.93-5.68,70-5.95,85.41s-16-55.36-17.78-68.69a211.24,211.24,0,0,0-5.77-31.7A155.38,155.38,0,0,1,405.25,207l-4-7.32-3.2,7.89s-24.35,1.14-61.05-4.69l-10.52,50Z"/><path class="cls-5" d="M395.14,304.86c-10.48,3.13-16.57,3.73-22.67,1.95-7.67-2.25-12.93-6.36-16.56-9.2a10.3,10.3,0,0,1-.7,2.87c-1.24,4.82-3.89,14.29-6.31,16.95-1.93,2.13-5.7,4.71-9.76,6.81C379.29,324.83,396.15,304.55,395.14,304.86Z"/><path class="cls-8" d="M538,460.11c0-40.32-17.8-69.57-27.22-83.77-11-16.53-28-27.6-64.09-45.08-13.72,25.32-29,39.7-66.17,39.7-54,0-54.74-14.12-66.17-39.7-36.08,17.48-53.12,28.55-64.09,45.08-9.43,14.2-27.23,43.45-27.23,83.77,0,6.92-2,33.87,11.39,51.82,12,16.15,26.52,19.37,43.88,17.18l102.22-12.93,102.22,12.93c17.35,2.19,31.87-1,43.87-17.18C540,494,538,467,538,460.11Z"/><path class="cls-14" d="M538,460.11c0-40.32-17.8-69.57-27.22-83.77a71.27,71.27,0,0,0-9.13-11.12L418.83,521l63.94,8.09c17.35,2.19,31.87-1,43.87-17.18C540,494,538,467,538,460.11Z"/><path class="cls-10" d="M290.56,420.79c-1.92,16.47-2.62,31.73-1,44.65l-8-2.32C280.67,448.53,284.18,434.49,290.56,420.79Z"/><path class="cls-4" d="M476.59,414.83c-3.6-.91-17.72,16.46-28.18,30.14l1.12-3.54,13.53-20,.16-.24a3,3,0,0,0-4.64-3.87l-18.66,18.24-.33.32-.4.78-11.91,23.11,48.51,6v.05c6.12-6.05,10.95-11.64,12.47-15C492.89,443.8,479.15,415.48,476.59,414.83Z"/><polygon class="cls-10" points="313.36 477.72 362.02 518.53 386.79 515.39 313.36 477.72"/><path class="cls-11" d="M375.46,453.27l23,2.85,48.28-124.86S426.23,370.55,379,370.55s-64.62-39.29-64.62-39.29l43.36,119.8Z"/></svg>