<svg id="Capa_1" data-name="Capa 1" xmlns="http://www.w3.org/2000/svg" xmlns:xlink="http://www.w3.org/1999/xlink" viewBox="0 0 600 600"><defs><style>.cls-1{fill:url(#Degradado_sin_nombre);}.cls-2{fill:#043263;}.cls-3{fill:url(#Degradado_sin_nombre_13);}.cls-4{fill:#49a5e6;}.cls-14,.cls-5{opacity:0.5;}.cls-6{fill:url(#Degradado_sin_nombre_3);}.cls-7{fill:#eaf9fa;}.cls-8{fill:#2dcccd;}.cls-9{fill:#eb5e62;}.cls-10{fill:#d8be75;}.cls-11{fill:url(#Degradado_sin_nombre_4);}.cls-12{fill:url(#Degradado_sin_nombre_5);}.cls-13{fill:url(#Degradado_sin_nombre_6);}.cls-14{isolation:isolate;fill:url(#Degradado_sin_nombre_7);}.cls-15{fill:#08467f;}.cls-16{fill:#00d0cf;}</style><linearGradient id="Degradado_sin_nombre" x1="-434.28" y1="559.84" x2="-433.73" y2="558.79" gradientTransform="matrix(357.7, 0, 0, -348.43, 155589.2, 195228.79)" gradientUnits="userSpaceOnUse"><stop offset="0" stop-color="#072146" stop-opacity="0.5"/><stop offset="1" stop-color="#072146" stop-opacity="0"/></linearGradient><linearGradient id="Degradado_sin_nombre_13" x1="-429.98" y1="556.97" x2="-430.98" y2="556.97" gradientTransform="matrix(111, 0, 0, -205, 48211, 114521.6)" xlink:href="#Degradado_sin_nombre"/><linearGradient id="Degradado_sin_nombre_3" x1="-430.32" y1="550.66" x2="-429.61" y2="549.92" gradientTransform="matrix(98.89, 0, 0, -94.08, 42856.09, 51989.04)" gradientUnits="userSpaceOnUse"><stop offset="0" stop-color="#eaf9fa" stop-opacity="0.5"/><stop offset="1" stop-color="#eaf9fa" stop-opacity="0.1"/></linearGradient><linearGradient id="Degradado_sin_nombre_4" x1="-417.19" y1="528.36" x2="-416.6" y2="528.01" gradientTransform="matrix(30, 0, 0, -34, 12815.8, 18354.2)" gradientUnits="userSpaceOnUse"><stop offset="0" stop-color="#eaf9fa" stop-opacity="0.4"/><stop offset="1" stop-color="#eaf9fa" stop-opacity="0.1"/><stop offset="1" stop-color="#eaf9fa" stop-opacity="0.5"/></linearGradient><linearGradient id="Degradado_sin_nombre_5" x1="-417.19" y1="528.36" x2="-416.6" y2="528.01" gradientTransform="matrix(30, 0, 0, -34, 12872.8, 18354.2)" gradientUnits="userSpaceOnUse"><stop offset="0" stop-color="#eaf9fa" stop-opacity="0.5"/><stop offset="1" stop-color="#eaf9fa" stop-opacity="0"/></linearGradient><linearGradient id="Degradado_sin_nombre_6" x1="-417.15" y1="528.36" x2="-416.56" y2="528.01" gradientTransform="matrix(30, 0, 0, -34, 12928.8, 18354.2)" xlink:href="#Degradado_sin_nombre_5"/><linearGradient id="Degradado_sin_nombre_7" x1="155.56" y1="-1194.76" x2="287.84" y2="-1327.04" gradientTransform="matrix(1, 0, 0, -1, 0, -974.8)" gradientUnits="userSpaceOnUse"><stop offset="0" stop-color="#fff" stop-opacity="0.5"/><stop offset="1" stop-color="#ecf7f8" stop-opacity="0"/></linearGradient></defs><path id="Combined-Shape" class="cls-1" d="M351.3,166.6a19,19,0,0,1,19,19h0V201H511.2a21.3,21.3,0,0,1,21.1,20.8V470.9A21.1,21.1,0,0,1,511.2,492H370.3v4.2a19.1,19.1,0,0,1-18.7,19h-158a19,19,0,0,1-19-19h0V185.6a19,19,0,0,1,19-19Z"/><path id="Path" class="cls-2" d="M463.1,446H291.5a21.2,21.2,0,0,1-21.2-21.2h0V176.2A21.2,21.2,0,0,1,291.5,155H463.1a21.2,21.2,0,0,1,21.2,21.2h0V424.8a21.1,21.1,0,0,1-21,21.2h-.2Z"/><path id="Path-2" class="cls-3" d="M373.3,446h89.8a21.1,21.1,0,0,0,21.2-21h0V241Z"/><path id="Path-3" class="cls-4" d="M302.1,182H453.5a2.79,2.79,0,0,1,2.8,2.7h0v88.4a2.79,2.79,0,0,1-2.7,2.8H302.1a2.79,2.79,0,0,1-2.8-2.7h0V184.8a2.7,2.7,0,0,1,2.6-2.8Z"/><g id="Group" class="cls-5"><path id="Path-4" class="cls-6" d="M301.3,182.2a2.5,2.5,0,0,0-2.5,2.5h0v89a2.5,2.5,0,0,0,2.4,2.5h46.1l50.3-94.1H301.3Z"/></g><path id="Path-5" class="cls-7" d="M302,291h36.5a2.79,2.79,0,0,1,2.8,2.7h0v28.4a2.79,2.79,0,0,1-2.7,2.8H302a2.7,2.7,0,0,1-2.7-2.7h0V293.8a2.7,2.7,0,0,1,2.6-2.8Z"/><path id="Path-6" class="cls-7" d="M359,291h36.5a2.79,2.79,0,0,1,2.8,2.7h0v28.4a2.79,2.79,0,0,1-2.7,2.8H359a2.7,2.7,0,0,1-2.7-2.7h0V293.8a2.7,2.7,0,0,1,2.6-2.8Z"/><path id="Path-7" class="cls-7" d="M416,291h36.5a2.79,2.79,0,0,1,2.8,2.7h0v28.4a2.79,2.79,0,0,1-2.7,2.8H416a2.7,2.7,0,0,1-2.7-2.7h0V293.8a2.7,2.7,0,0,1,2.6-2.8Z"/><path id="Path-8" class="cls-7" d="M302,337h36.5a2.79,2.79,0,0,1,2.8,2.7h0v28.4a2.79,2.79,0,0,1-2.7,2.8H302a2.7,2.7,0,0,1-2.7-2.7h0V339.8a2.7,2.7,0,0,1,2.6-2.8Z"/><path id="Path-9" class="cls-7" d="M359,337h36.5a2.79,2.79,0,0,1,2.8,2.7h0v28.4a2.79,2.79,0,0,1-2.7,2.8H359a2.7,2.7,0,0,1-2.7-2.7h0V339.8a2.7,2.7,0,0,1,2.6-2.8Z"/><path id="Path-10" class="cls-7" d="M416,337h36.5a2.79,2.79,0,0,1,2.8,2.7h0v28.4a2.79,2.79,0,0,1-2.7,2.8H416a2.7,2.7,0,0,1-2.7-2.7h0V339.8a2.7,2.7,0,0,1,2.6-2.8Z"/><path id="Path-11" class="cls-8" d="M416,383h36.5a2.79,2.79,0,0,1,2.8,2.7h0v28.4a2.79,2.79,0,0,1-2.7,2.8H416a2.7,2.7,0,0,1-2.7-2.7h0V385.8a2.7,2.7,0,0,1,2.6-2.8Z"/><path id="Path-12" class="cls-9" d="M302,383h36.5a2.79,2.79,0,0,1,2.8,2.7h0v28.4a2.79,2.79,0,0,1-2.7,2.8H302a2.7,2.7,0,0,1-2.7-2.7h0V385.8a2.7,2.7,0,0,1,2.6-2.8Z"/><path id="Path-13" class="cls-10" d="M359,383h36.5a2.79,2.79,0,0,1,2.8,2.7h0v28.4a2.79,2.79,0,0,1-2.7,2.8H359a2.7,2.7,0,0,1-2.7-2.7h0V385.8a2.7,2.7,0,0,1,2.6-2.8Z"/><path id="Path-14" class="cls-11" d="M302.1,417H311l18.3-34H302.1a2.7,2.7,0,0,0-2.8,2.6h0v28.6A2.8,2.8,0,0,0,302.1,417Z"/><path id="Path-15" class="cls-12" d="M359.1,417H368l18.3-34H359.1a2.7,2.7,0,0,0-2.8,2.6h0v28.6A2.8,2.8,0,0,0,359.1,417Z"/><path id="Path-16" class="cls-13" d="M416.1,417H425l18.3-34H416.1a2.7,2.7,0,0,0-2.8,2.6h0v28.6A2.8,2.8,0,0,0,416.1,417Z"/><path class="cls-2" d="M148.3,118H306.9a19,19,0,0,1,18.9,19V447.5a19.1,19.1,0,0,1-18.9,19H148.3a19,19,0,0,1-18.9-19V137a18.9,18.9,0,0,1,18.8-19Z"/><rect class="cls-4" x="129.4" y="161.7" width="196.5" height="260.94"/><polygon class="cls-14" points="129.6 161.9 129.6 422.5 229.8 422.7 325.8 245.2 325.8 161.7 129.6 161.9"/><circle class="cls-15" cx="227.6" cy="292.2" r="52.4"/><path class="cls-16" d="M247.4,303.3l-14.2-11.1,14.2-11.1a3.41,3.41,0,0,0,.63-4.77l0,0h0a1.72,1.72,0,0,0-.6-.6l-17.7-13.9a3.5,3.5,0,0,0-4.9.7,3.8,3.8,0,0,0-.7,2.1v20.5L212,275.7a3.45,3.45,0,1,0-4.3,5.4l14.2,11.1-14.2,11.1a3.6,3.6,0,0,0-.6,4.9,3.68,3.68,0,0,0,2.8,1.3,3.27,3.27,0,0,0,2.1-.7l12.1-9.5v20.6a3.4,3.4,0,0,0,5.6,2.7l17.7-13.8a3.51,3.51,0,0,0,.6-4.9h0l-.6-.6ZM231,271.7l8.6,6.7-8.6,6.7Zm0,41.1V299.3l8.6,6.8Z"/></svg>