<svg xmlns="http://www.w3.org/2000/svg" xmlns:xlink="http://www.w3.org/1999/xlink" viewBox="0 0 600 600"><defs><style>.cls-1{fill:none;}.cls-2{fill:url(#Degradado_sin_nombre_223);}.cls-3{fill:#043263;}.cls-4{fill:#49a5e6;}.cls-5{fill:#2dcccd;}.cls-6{fill:url(#Degradado_sin_nombre_17);}.cls-7{fill:#004481;}.cls-8{fill:#1464a5;}.cls-9{fill:url(#Degradado_sin_nombre_15);}.cls-10{fill:url(#Degradado_sin_nombre_443);}</style><linearGradient id="Degradado_sin_nombre_223" x1="215.87" y1="194.83" x2="385.87" y2="514.55" gradientTransform="translate(0 2)" gradientUnits="userSpaceOnUse"><stop offset="0" stop-color="#192647" stop-opacity="0.5"/><stop offset="1" stop-color="#192647" stop-opacity="0"/></linearGradient><linearGradient id="Degradado_sin_nombre_17" x1="229.28" y1="119.24" x2="341.12" y2="231.08" gradientTransform="translate(0 2)" gradientUnits="userSpaceOnUse"><stop offset="0" stop-color="#fff" stop-opacity="0.5"/><stop offset="1" stop-color="#fff" stop-opacity="0.15"/></linearGradient><linearGradient id="Degradado_sin_nombre_15" x1="343.08" y1="203.25" x2="265.82" y2="203.25" gradientTransform="translate(0 2)" gradientUnits="userSpaceOnUse"><stop offset="0" stop-color="#043263" stop-opacity="0.8"/><stop offset="1" stop-color="#043263" stop-opacity="0"/></linearGradient><linearGradient id="Degradado_sin_nombre_443" x1="343.08" y1="181.5" x2="265.82" y2="181.5" gradientTransform="translate(0 2)" gradientUnits="userSpaceOnUse"><stop offset="0" stop-color="#043263"/><stop offset="1" stop-color="#043263" stop-opacity="0"/></linearGradient></defs><title>13</title><g id="Cuadrados_Blancos" data-name="Cuadrados Blancos"><rect class="cls-1" width="600" height="600"/></g><g id="Capa_12" data-name="Capa 12"><path class="cls-2" d="M564.2,454.9c-13-24.5-26.1-49-38.9-73.6h0c-2.3-4.4-3.3-6.4-5.5-10.7h0c-4.5-8.7-8.9-17.4-13.3-26.2-6-6.9-18.2-7.9-26.7-7.9h-84c23.4-34.2,36.2-59.6,39-66.2a101.58,101.58,0,0,0,8-28.1l.1-.6a89.37,89.37,0,0,0,.6-10.4,93,93,0,0,0-4.2-27.7,94.09,94.09,0,0,0-33.3-47A92.78,92.78,0,0,0,350.2,138H350a92.21,92.21,0,0,0-55.9,18.5,94.09,94.09,0,0,0-33.3,47,93,93,0,0,0-4.2,27.7,90.66,90.66,0,0,0,.6,10.4l.1.6h0c1.1,9.4,4.1,18.7,8,28.1,3.1,7.4,16.8,33.2,39.3,66.2H220.3c-8.5,0-20.7,1-26.7,7.9-5.9,11.4-8,15.6-12.4,24.1-2.2,4.3-3.3,6.4-5.5,10.7q-19.8,37.95-39.9,75.7c-4,7.6,2.9,14.6,16.1,14.6H548.3C561.3,469.5,568.3,462.5,564.2,454.9Z"/><path class="cls-3" d="M498.2,419.5H437.1c-11.4-29.7-23-59.4-36.5-88.2h74.7c12.8,24.6,25.9,49.1,38.9,73.6C518.3,412.5,511.3,419.5,498.2,419.5Z"/><path class="cls-3" d="M469.8,320.6H395.7c-5.2-11.3-10.1-22.6-14.8-34.1h48.9c8.5,0,20.6,1,26.7,7.9C460.9,303.2,465.3,311.9,469.8,320.6Z"/><path class="cls-3" d="M125.6,329.2q-19.8,37.95-39.9,75.7c-4,7.6,2.9,14.6,16.1,14.6h52.1c9.6-23.8,19.2-47.7,29.9-71C189.8,327.8,135,329.4,125.6,329.2Z"/><path class="cls-3" d="M143.5,294.4c-5.9,11.4-8,15.6-12.4,24.1,12,.2,102-.6,91,30-8.1,23.4-15,47.2-21.8,71H390.7c-12-44.9-27-88.5-40.3-133H170.2C161.7,286.5,149.6,287.5,143.5,294.4Z"/><path class="cls-4" d="M469.8,320.6H395.7c-5.2-11.3-10.1-22.6-14.8-34.1H350.5c13.3,44.5,28.2,88.1,40.3,133h46.4c-11.4-29.7-23-59.4-36.5-88.2h74.7C473,326.9,472,324.9,469.8,320.6Z"/><path class="cls-4" d="M131.1,318.5c-2.2,4.3-3.3,6.4-5.5,10.7,9.4.2,64.2-1.4,58.2,19.3-10.7,23.4-20.3,47.2-29.9,71h46.4c6.9-23.8,13.8-47.6,21.8-71C233.1,317.9,143.1,318.7,131.1,318.5Z"/><path class="cls-5" d="M389.5,153.2a93.63,93.63,0,0,0-33.1-46.8,92.65,92.65,0,0,0-148.1,74.3,88.93,88.93,0,0,0,.6,10.3l.1.6h0c1.1,9.3,4.1,18.6,8,28,4.7,11.3,34.4,65.9,82.3,123.3l1.7,1.8,1.7-1.8c51.4-61.1,78-113.4,82.3-123.3a100.91,100.91,0,0,0,8-28l.1-.6a88.93,88.93,0,0,0,.6-10.3A98.56,98.56,0,0,0,389.5,153.2Z"/><path class="cls-5" d="M389.2,153.2a93.63,93.63,0,0,0-33.1-46.8A92.65,92.65,0,0,0,208,180.7a88.93,88.93,0,0,0,.6,10.3l.1.6h0c1.1,9.3,4.1,18.6,8,28C221.3,231,251,285.6,299,343l1.7,1.8,1.7-1.8c51.4-61.1,78-113.4,82.3-123.3a100.91,100.91,0,0,0,8-28l.1-.6a88.93,88.93,0,0,0,.6-10.3A91.9,91.9,0,0,0,389.2,153.2Z"/><path class="cls-6" d="M368.4,117.2a92.6,92.6,0,0,0-160.1,63.5,88.93,88.93,0,0,0,.6,10.3l.1.6h0c1.1,9.3,4.1,18.6,8,28,3.6,8.7,22.2,43.3,52.5,85.1Z"/><path class="cls-7" d="M300.2,125.8l-51.7,32.8a7.12,7.12,0,0,0-2.2,9.8h0l1.3,2.1L301,136.6l53.4,33.9,1.3-2.1a7,7,0,0,0-2.2-9.8h0l-51.7-32.8A1.52,1.52,0,0,0,300.2,125.8Z"/><polygon class="cls-3" points="259.4 172.2 247.5 170.5 259.4 162.9 259.4 172.2"/><polygon class="cls-3" points="342.4 172.2 354.3 170.5 342.4 162.9 342.4 172.2"/><path class="cls-8" d="M300.9,136.6,259.4,163v59h31V185.3a3.12,3.12,0,0,1,3.1-3.1h14.9a3.12,3.12,0,0,1,3.1,3.1h0v36.6h31v-59Z"/><polygon class="cls-9" points="290.4 188.6 272 221.9 290.4 221.9 290.4 188.6"/><path class="cls-10" d="M314.4,145.1l-20.5,37h14.4a3.12,3.12,0,0,1,3.1,3.1h0v36.7h31v-59Z"/></g></svg>