<svg xmlns="http://www.w3.org/2000/svg" xmlns:xlink="http://www.w3.org/1999/xlink" viewBox="0 0 600.02 600.03"><defs><style>.edd4b78f-7b40-4d50-9fdb-950eff7b5368{fill:none;}.f86f20ff-14ee-46b9-8a0f-906a2696533a{fill:url(#ba7f0603-ffa7-49fb-ac45-ca68c97a1ad5);}.bcf9dfdc-fbbd-4566-a334-7b5121e879ef{fill:#043263;}.b0fb2e61-8c22-4dbf-aa3d-2e07870a320b{fill:url(#b16702b4-e3e0-43e5-88eb-1bbda6755a62);}.bbae2a55-0546-4061-aaea-a1726c7c69fb{fill:#d4edfc;}</style><linearGradient id="ba7f0603-ffa7-49fb-ac45-ca68c97a1ad5" x1="266.47" y1="429.26" x2="451.92" y2="80.47" gradientTransform="matrix(1, 0, 0, -1, 0, 602)" gradientUnits="userSpaceOnUse"><stop offset="0" stop-color="#192647"/><stop offset="0" stop-color="#192647" stop-opacity="0.5"/><stop offset="1" stop-color="#192647" stop-opacity="0"/></linearGradient><linearGradient id="b16702b4-e3e0-43e5-88eb-1bbda6755a62" x1="460" y1="302" x2="208.71" y2="302" gradientTransform="matrix(1, 0, 0, -1, 0, 602)" gradientUnits="userSpaceOnUse"><stop offset="0" stop-color="#072146" stop-opacity="0.6"/><stop offset="1" stop-color="#072146" stop-opacity="0"/></linearGradient></defs><g id="fc1a3a11-55b6-41ef-ae08-53326a869c2d" data-name="Capa 11"><rect class="edd4b78f-7b40-4d50-9fdb-950eff7b5368" width="600.02" height="600.03"/></g><g id="bb2d2bea-8d33-4c69-b80c-3612df74d957" data-name="Capa 10"><path class="f86f20ff-14ee-46b9-8a0f-906a2696533a" d="M507.4,229.21a24,24,0,0,0-24-24h-272a24,24,0,0,0-24,24l0,191.53a24,24,0,0,0,24,24h243l47.66,47.61a3.13,3.13,0,0,0,5.34-2.22V472.6Z" transform="translate(-0.08 -0.09)"/><path class="bcf9dfdc-fbbd-4566-a334-7b5121e879ef" d="M436,156H164a24,24,0,0,0-24,24V371.5a24,24,0,0,0,24,24H407l47.66,47.61a3.13,3.13,0,0,0,5.34-2.22V180A24,24,0,0,0,436,156Z" transform="translate(-0.08 -0.09)"/><path class="b0fb2e61-8c22-4dbf-aa3d-2e07870a320b" d="M436,156H377.14L208.71,395.47H407l47.66,47.61a3.13,3.13,0,0,0,5.34-2.22V180A24,24,0,0,0,436,156Z" transform="translate(-0.08 -0.09)"/></g><g id="a45e515e-0dfc-466e-8f4c-a359dd564b2d" data-name="Capa 5"><path class="bbae2a55-0546-4061-aaea-a1726c7c69fb" d="M299.8,280.9c-3.2-4.72-8.08-8-14.55-9.9A26.58,26.58,0,0,0,296,262.18c2.44-3.58,3.66-8,3.66-13.39a29,29,0,0,0-2.44-12.56,19.81,19.81,0,0,0-6.86-8.15,29.92,29.92,0,0,0-10.66-4.41A62.54,62.54,0,0,0,266,222.3l-49.69,0V328.89h51a53.08,53.08,0,0,0,13.79-1.83,37,37,0,0,0,12-5.55,26.42,26.42,0,0,0,8.38-9.59A29.39,29.39,0,0,0,304.57,298Q304.65,287.94,299.8,280.9Zm-60.35-40.45h21.72a31.13,31.13,0,0,1,6,.53,15.18,15.18,0,0,1,5.11,1.9,10,10,0,0,1,3.58,3.74,12.93,12.93,0,0,1,1.29,6.09c0,4.42-1.29,7.68-4,9.66a16.72,16.72,0,0,1-10.21,3H239.45ZM280,303.39a10.74,10.74,0,0,1-3.73,4.26,17.59,17.59,0,0,1-5.49,2.21,29.27,29.27,0,0,1-6.47.69H239.45V281.32h25.23c5,0,9.06,1.14,12.11,3.5s4.57,6.24,4.57,11.72a15.26,15.26,0,0,1-1.37,6.85Z" transform="translate(-0.08 -0.09)"/><path class="bbae2a55-0546-4061-aaea-a1726c7c69fb" d="M382.24,276.14a41.25,41.25,0,0,0-6.7-14.61,34.29,34.29,0,0,0-11.89-10.2,36.3,36.3,0,0,0-17-3.81,39.94,39.94,0,0,0-15.85,3.12,37.47,37.47,0,0,0-12.34,8.6,38.19,38.19,0,0,0-8,12.95,44.88,44.88,0,0,0-2.82,16.14,47.23,47.23,0,0,0,2.74,16.44,37.16,37.16,0,0,0,7.77,12.86,33.77,33.77,0,0,0,12.27,8.29,43.72,43.72,0,0,0,16.23,2.9q13,0,22.17-5.93c6.1-4,10.6-10.58,13.57-19.88H364c-.69,2.37-2.59,4.65-5.64,6.78a18.38,18.38,0,0,1-10.9,3.19c-5.86,0-10.44-1.52-13.56-4.63s-4.88-8.07-5.26-15.08h55.09A53.14,53.14,0,0,0,382.24,276.14Zm-53.64,4a30.63,30.63,0,0,1,1-5.1,16,16,0,0,1,2.82-5.4,16.61,16.61,0,0,1,5.33-4.27,18.52,18.52,0,0,1,8.38-1.75c5.1,0,8.91,1.37,11.43,4.19s4.26,6.86,5.17,12.33Z" transform="translate(-0.08 -0.09)"/><rect class="bbae2a55-0546-4061-aaea-a1726c7c69fb" x="322.86" y="227.57" width="45.7" height="11.95"/></g></svg>