<svg xmlns="http://www.w3.org/2000/svg" xmlns:xlink="http://www.w3.org/1999/xlink" viewBox="0 0 600 600"><defs><style>.cls-1{fill:none;}.cls-2{fill:url(#Degradado_sin_nombre_404);}.cls-3{fill:#f8cd50;}.cls-4{fill:#bc9847;opacity:0.35;isolation:isolate;}.cls-5{fill:#2dcccd;}.cls-6{fill:#043263;}.cls-7{fill:url(#Degradado_sin_nombre_114);}.cls-8{fill:#004481;}.cls-9{fill:#fbf3dc;}.cls-10{fill:url(#Degradado_sin_nombre_18);}</style><linearGradient id="Degradado_sin_nombre_404" x1="294.57" y1="206.13" x2="459.3" y2="515.93" gradientUnits="userSpaceOnUse"><stop offset="0" stop-color="#192647" stop-opacity="0.5"/><stop offset="1" stop-color="#192647" stop-opacity="0"/></linearGradient><linearGradient id="Degradado_sin_nombre_114" x1="429.7" y1="-975.96" x2="297.47" y2="-975.96" gradientTransform="translate(0 1282)" gradientUnits="userSpaceOnUse"><stop offset="0" stop-color="#072146" stop-opacity="0.8"/><stop offset="1" stop-color="#072146" stop-opacity="0"/></linearGradient><linearGradient id="Degradado_sin_nombre_18" x1="350.71" y1="11447.56" x2="430.79" y2="11404.99" gradientTransform="matrix(1, 0, 0, -1, 0, 11750)" gradientUnits="userSpaceOnUse"><stop offset="0" stop-color="#fff" stop-opacity="0.6"/><stop offset="1" stop-color="#fff" stop-opacity="0.2"/></linearGradient></defs><title>11</title><g id="Cuadrados_Blancos" data-name="Cuadrados Blancos"><rect class="cls-1" width="600" height="600"/></g><g id="Capa_6" data-name="Capa 6"><path class="cls-2" d="M488.32,315.73l-.55,0a127.26,127.26,0,0,0-19.61-68.08,33.32,33.32,0,1,0-37.47-38.33A127.54,127.54,0,0,0,270.1,225.49l-59.27,59.28a14.07,14.07,0,0,1-19.86,0l.27.27a22.22,22.22,0,0,0-31.11,31.72l62.9,62.9a52,52,0,0,0-7.65,10.84l.16.15a51.87,51.87,0,0,0,73.7,67.56c1.52-.64,3.7-2.1,7.05-5.29l62.87,62.87a22.22,22.22,0,0,0,31.62-31.22l.37.37a14.06,14.06,0,0,1,0-19.85l21.21-21.21A86.63,86.63,0,0,0,575,402.35v-.07A86.63,86.63,0,0,0,488.32,315.73ZM455.74,206.82a11.11,11.11,0,0,1,15.71,0h0a11.11,11.11,0,1,1-15.71,0Z"/><g id="_25-Bell" data-name=" 25-Bell"><path class="cls-3" d="M239.87,382.58l-62.5-62.5a7.69,7.69,0,0,0-10.81,0,51.86,51.86,0,0,0,73.34,73.34h0a7.57,7.57,0,0,0,.11-10.71l-.11-.11Z"/><path class="cls-4" d="M239.87,393.37a7.63,7.63,0,0,0,0-10.79l0,0h0l-62.5-62.5a7.69,7.69,0,0,0-10.81,0,51.63,51.63,0,0,0-9.18,12.44L212.89,388c2.31,2.3,5.32,5.9,9.34,9.73a10.5,10.5,0,0,0,6.57,3C230.43,400.75,233,400.3,239.87,393.37Z"/><path class="cls-5" d="M382,180.25a33.34,33.34,0,1,1,47.15,0h0A33.39,33.39,0,0,1,382,180.25Zm31.43-31.44a11.11,11.11,0,1,0,0,15.72h0a11.12,11.12,0,0,0,0-15.71Z"/><path class="cls-6" d="M333.15,426.94a14.06,14.06,0,0,1,0-19.85l59.28-59.27A127.51,127.51,0,0,0,212.1,167.49h0l-59.27,59.28a14.07,14.07,0,0,1-19.86,0Z"/><path class="cls-7" d="M333.15,426.94a14.06,14.06,0,0,1,0-19.85l59.28-59.27a127.73,127.73,0,0,0,14.75-162.61l-.1-.07L297.47,391.25Z"/><path class="cls-8" d="M301.16,457.79l-199-199a22.28,22.28,0,0,1,0-31.43h0a22.3,22.3,0,0,1,31.43,0l199,199a22.29,22.29,0,0,1,0,31.44h0A22.3,22.3,0,0,1,301.16,457.79Z"/></g><path class="cls-3" d="M520.09,344.66a90,90,0,1,1-90.07-90h0a90,90,0,0,1,90.07,89.93v.07"/><path class="cls-9" d="M431.53,388c-16.89,0-28.23-10.37-32-29.22H386v-10h12.36c-.11-1.41-.11-2.83-.11-4.21V341.7H386v-9.93h13.41c3.49-19,15.42-30.32,32-30.32,14,0,23.7,6.24,28.69,18.55l.11.28-12.34,7-.13-.4c-2.9-8.7-7.93-12.58-16.33-12.58-9.33,0-15.46,6.05-17.76,17.5h20.72v9.93H412.6v2.55c0,1.51,0,3.06.11,4.48H434.5v10.06H413.92c2.41,11.22,8.22,16.68,17.75,16.68,8.69,0,13.7-4,16.75-13.27l.14-.42,12.06,7.28-.12.27C455.33,381.2,444.77,388,431.53,388Z"/><path class="cls-10" d="M430,254.66a90,90,0,0,0-41.54,169.73l84-159.11A89.73,89.73,0,0,0,430,254.66Z"/></g></svg>