<svg id="Contenido" xmlns="http://www.w3.org/2000/svg" xmlns:xlink="http://www.w3.org/1999/xlink" viewBox="0 0 600 600"><defs><style>.cls-1{fill:url(#Degradado_sin_nombre_7);}.cls-2{fill:url(#Degradado_sin_nombre_7-2);}.cls-3{fill:#f8cd50;}.cls-4{fill:#bc9847;opacity:0.35;}.cls-5{fill:#2dcccd;}.cls-6{fill:#1464a5;}.cls-7{fill:url(#Degradado_sin_nombre_16);}.cls-8{fill:#004481;}</style><linearGradient id="Degradado_sin_nombre_7" x1="293.92" y1="117.89" x2="491.47" y2="489.41" gradientUnits="userSpaceOnUse"><stop offset="0" stop-color="#192647"/><stop offset="0" stop-color="#192647" stop-opacity="0.5"/><stop offset="1" stop-color="#192647" stop-opacity="0"/></linearGradient><linearGradient id="Degradado_sin_nombre_7-2" x1="180.64" y1="208.67" x2="366.82" y2="558.83" xlink:href="#Degradado_sin_nombre_7"/><linearGradient id="Degradado_sin_nombre_16" x1="449.6" y1="318.67" x2="312.06" y2="318.67" gradientUnits="userSpaceOnUse"><stop offset="0" stop-color="#004481" stop-opacity="0.6"/><stop offset="1" stop-color="#004481" stop-opacity="0"/></linearGradient></defs><title>financial_health</title><path class="cls-1" d="M486.69,415.6l.6-.72c1.11-1.33,2.18-2.67,3.22-4,.18-.22.35-.45.52-.68,1.06-1.41,2.1-2.83,3.1-4.27l.24-.36q1.5-2.16,2.89-4.38c.08-.12.16-.24.23-.36q1.39-2.22,2.68-4.49c.14-.23.28-.47.41-.71.83-1.47,1.63-3,2.4-4.45l.4-.78c.76-1.52,1.51-3,2.21-4.58l.26-.59c1.47-3.24,2.81-6.54,4-9.87l.21-.58c.57-1.6,1.09-3.2,1.6-4.81.08-.26.16-.52.23-.78.49-1.6,1-3.22,1.38-4.84.06-.23.12-.46.17-.69q.66-2.5,1.21-5a2.56,2.56,0,0,1,.05-.27q.56-2.58,1-5.18a2.33,2.33,0,0,0,0-.28c.29-1.71.55-3.42.77-5.14l.09-.65c.21-1.68.39-3.36.53-5l.06-.7q.21-2.56.33-5.13c0-.14,0-.29,0-.44q.23-5.37,0-10.74c0-.14,0-.29,0-.43-.08-1.72-.19-3.45-.33-5.17,0-.21,0-.41-.05-.62-.15-1.71-.33-3.43-.55-5.14l-.06-.5q-.35-2.65-.79-5.3v0c-.31-1.85-.67-3.69-1.06-5.52v-.06q-.57-2.62-1.25-5.24l-.12-.46c-.44-1.7-.92-3.38-1.43-5.06-.06-.17-.11-.34-.16-.5-.52-1.7-1.08-3.4-1.68-5.08a2.25,2.25,0,0,1-.08-.24q-1.87-5.22-4.18-10.31l-.11-.26c-.75-1.63-1.54-3.26-2.36-4.87-.07-.15-.15-.3-.23-.45-.81-1.6-1.67-3.18-2.55-4.75l-.21-.36q-1.44-2.54-3-5a34.68,34.68,0,1,0-39-39.87c-51.47-34.11-121.69-28.52-167,16.8l-61.65,61.65a14.6,14.6,0,0,1-20.64,0L389.87,479.07l27.36,27.36h0a14.82,14.82,0,0,1-1.5-1.79,13.6,13.6,0,0,1-.8-1.23,12.57,12.57,0,0,1-.62-1.21,14.44,14.44,0,0,1-.75-10.25,15.24,15.24,0,0,1,.75-1.94,11.36,11.36,0,0,1,.62-1.2,12.47,12.47,0,0,1,.8-1.24,14.73,14.73,0,0,1,1.5-1.78l61.65-61.66c1.33-1.32,2.61-2.67,3.86-4,.17-.17.33-.35.49-.53Q485,417.61,486.69,415.6Zm-2.3-198.43a11.55,11.55,0,1,1,0,16.34A11.56,11.56,0,0,1,484.39,217.17Z"/><path class="cls-2" d="M209.62,298.82a23.12,23.12,0,1,0-32.69,32.69l65.42,65.42-.12.12-.51.58c-.39.43-.76.87-1.13,1.32-.18.21-.36.42-.53.64-.44.54-.87,1.09-1.28,1.65l-.56.77c-.31.44-.62.88-.92,1.33l-.62.94c-.21.34-.43.68-.64,1s-.41.68-.61,1l-.61,1.1A53.93,53.93,0,0,0,312,478.24a31.46,31.46,0,0,0,6.52-5.1L384,538.54a23.12,23.12,0,0,0,32.69-32.69Z"/><g id="_25-Bell" data-name="25-Bell"><path class="cls-3" d="M252.16,398.3l-65-65a8,8,0,0,0-11.24,0,53.93,53.93,0,0,0,76.28,76.27A7.94,7.94,0,0,0,252.16,398.3Z"/><path class="cls-4" d="M252.16,409.53a7.94,7.94,0,0,0,0-11.23l-65-65a8,8,0,0,0-11.24,0,53.68,53.68,0,0,0-9.54,12.93l57.73,57.73c2.4,2.39,5.53,6.14,9.71,10.12a10.87,10.87,0,0,0,6.84,3.07C242.34,417.2,245,416.72,252.16,409.53Z"/><path class="cls-5" d="M400,187.86a34.67,34.67,0,1,1,49,0A34.72,34.72,0,0,1,400,187.86Zm32.69-32.69a11.56,11.56,0,1,0,0,16.34A11.57,11.57,0,0,0,432.67,155.17Z"/><path class="cls-6" d="M349.17,444.43a14.61,14.61,0,0,1,0-20.64l61.65-61.65c51.7-51.71,51.7-135.84,0-187.54s-135.83-51.7-187.54,0l-61.65,61.65a14.62,14.62,0,0,1-20.65,0Z"/><path class="cls-7" d="M349.17,444.43a14.61,14.61,0,0,1,0-20.64l61.65-61.65c45.95-45.95,51.06-117.51,15.34-169.16l-.1-.07-114,214.41Z"/><path class="cls-8" d="M315.9,476.55l-207-207a23.18,23.18,0,0,1,0-32.69h0a23.18,23.18,0,0,1,32.69,0l207,207a23.18,23.18,0,0,1,0,32.69h0A23.18,23.18,0,0,1,315.9,476.55Z"/></g></svg>