<svg id="Contenido" xmlns="http://www.w3.org/2000/svg" xmlns:xlink="http://www.w3.org/1999/xlink" viewBox="0 0 600 600"><defs><style>.cls-1{fill:url(#Degradado_sin_nombre_7);}.cls-2{fill:#f8cd50;}.cls-3{fill:#bc9847;opacity:0.35;}.cls-4{fill:#2dcccd;}.cls-5{fill:#1464a5;}.cls-6{fill:url(#Degradado_sin_nombre_16);}.cls-7{fill:#004481;}.cls-8{fill:#fbf3dc;}.cls-9{fill:url(#Degradado_sin_nombre_5);}</style><linearGradient id="Degradado_sin_nombre_7" x1="238.82" y1="96.11" x2="468.14" y2="527.41" gradientUnits="userSpaceOnUse"><stop offset="0" stop-color="#192647"/><stop offset="0" stop-color="#192647" stop-opacity="0.5"/><stop offset="1" stop-color="#192647" stop-opacity="0"/></linearGradient><linearGradient id="Degradado_sin_nombre_16" x1="434.09" y1="318.67" x2="296.55" y2="318.67" gradientUnits="userSpaceOnUse"><stop offset="0" stop-color="#004481" stop-opacity="0.6"/><stop offset="1" stop-color="#004481" stop-opacity="0"/></linearGradient><linearGradient id="Degradado_sin_nombre_5" x1="354.64" y1="316.39" x2="434.72" y2="358.96" gradientUnits="userSpaceOnUse"><stop offset="0" stop-color="#fff" stop-opacity="0.6"/><stop offset="1" stop-color="#fff" stop-opacity="0.2"/></linearGradient></defs><title>financial_health</title><path class="cls-1" d="M523.68,332.82l-.29-.07-2.28-.47-.45-.08c-.77-.15-1.54-.28-2.33-.41l-.28,0c-1.74-.27-3.49-.49-5.26-.66l-.73-.07-1.87-.15-.88-.05q-.92-.06-1.86-.09l-.79,0c-.86,0-1.72,0-2.58,0,0-.71,0-1.41,0-2.12,0-.35,0-.7,0-1.05,0-.59,0-1.18-.05-1.77,0-.41,0-.82-.05-1.23,0-.58-.05-1.16-.09-1.73s0-.84-.07-1.25c0-.58-.08-1.16-.13-1.74,0-.41-.07-.83-.1-1.24-.06-.58-.11-1.16-.17-1.74,0-.41-.09-.81-.13-1.22-.07-.59-.13-1.18-.21-1.77l-.15-1.15c-.08-.61-.16-1.22-.25-1.83,0-.33-.11-.67-.16-1-.1-.65-.2-1.3-.31-2a1.18,1.18,0,0,1,0-.2c-.29-1.68-.62-3.37-1-5,0-.12-.05-.24-.08-.36-.14-.66-.3-1.33-.45-2-.07-.31-.14-.63-.22-.94-.15-.62-.3-1.24-.46-1.87l-.27-1c-.16-.61-.33-1.22-.5-1.83-.09-.35-.19-.7-.29-1.05l-.54-1.83c-.11-.34-.21-.68-.32-1-.19-.62-.39-1.23-.59-1.85-.1-.31-.21-.63-.32-.95-.21-.64-.43-1.27-.65-1.9l-.27-.76q-1.72-4.77-3.82-9.42l-.33-.75-.87-1.86c-.15-.29-.29-.59-.43-.89-.29-.6-.59-1.19-.89-1.79l-.47-.92c-.3-.59-.61-1.18-.92-1.77-.17-.3-.33-.6-.49-.9-.33-.59-.65-1.19-1-1.77l-.48-.84c-.35-.61-.7-1.22-1.06-1.82l-.39-.64c-.44-.73-.88-1.45-1.34-2.17a34.68,34.68,0,1,0-39-39.87c-51.47-34.11-121.69-28.52-167,16.8l-61.65,61.65a14.62,14.62,0,0,1-20.65,0l104.1,104.1L196.05,298.82a23.12,23.12,0,1,0-32.69,32.69l65.41,65.42-.11.12-.51.58c-.39.43-.76.87-1.14,1.32-.17.21-.35.42-.52.64-.45.55-.88,1.1-1.29,1.67-.19.24-.36.49-.54.74-.32.44-.63.89-.93,1.34l-.62.94c-.22.34-.43.69-.64,1s-.42.68-.62,1l-.6,1.1a53.93,53.93,0,0,0,77.22,70.81,32.1,32.1,0,0,0,6.52-5.1l65.4,65.4a23.11,23.11,0,1,0,32.69-32.68l.58.57h0a14.73,14.73,0,0,1-1-1.11,14.08,14.08,0,0,1-1.6-2.42,14.64,14.64,0,0,1,1.6-16,12.89,12.89,0,0,1,1-1.1l21.67-21.67a90,90,0,1,0,98.35-131.3ZM470.81,217.17a11.56,11.56,0,1,1,0,16.34A11.57,11.57,0,0,1,470.81,217.17Z"/><g id="_25-Bell" data-name="25-Bell"><path class="cls-2" d="M236.65,398.3l-65-65a8,8,0,0,0-11.24,0,53.93,53.93,0,0,0,76.28,76.27A7.94,7.94,0,0,0,236.65,398.3Z"/><path class="cls-3" d="M236.65,409.53a7.94,7.94,0,0,0,0-11.23l-65-65a8,8,0,0,0-11.24,0,53.68,53.68,0,0,0-9.54,12.93l57.73,57.73c2.4,2.39,5.53,6.14,9.7,10.12a10.92,10.92,0,0,0,6.85,3.07C226.83,417.2,229.46,416.72,236.65,409.53Z"/><path class="cls-4" d="M384.47,187.86a34.67,34.67,0,1,1,49,0A34.72,34.72,0,0,1,384.47,187.86Zm32.69-32.69a11.56,11.56,0,1,0,0,16.34A11.57,11.57,0,0,0,417.16,155.17Z"/><path class="cls-5" d="M333.66,444.43a14.61,14.61,0,0,1,0-20.64l61.65-61.65c51.7-51.71,51.7-135.84,0-187.54s-135.83-51.7-187.54,0l-61.65,61.65a14.62,14.62,0,0,1-20.65,0Z"/><path class="cls-6" d="M333.66,444.43a14.61,14.61,0,0,1,0-20.64l61.65-61.65c45.95-45.95,51.06-117.51,15.34-169.16l-.1-.07-114,214.41Z"/><path class="cls-7" d="M300.39,476.55l-207-207a23.18,23.18,0,0,1,0-32.69h0a23.18,23.18,0,0,1,32.69,0l207,207a23.18,23.18,0,0,1,0,32.69h0A23.18,23.18,0,0,1,300.39,476.55Z"/></g><path class="cls-2" d="M524.09,358.66a90,90,0,1,1-90.07-90h0a90,90,0,0,1,90.07,90"/><path class="cls-8" d="M435.53,402c-16.89,0-28.23-10.37-32-29.22H390V362.73h12.36c-.11-1.41-.11-2.83-.11-4.21V355.7H390v-9.93h13.41c3.49-19,15.42-30.32,32-30.32,14.05,0,23.7,6.24,28.69,18.55l.11.28-12.34,7-.13-.4c-2.9-8.7-7.93-12.58-16.33-12.58-9.33,0-15.46,6.05-17.76,17.5h20.72v9.93H416.6v2.55c0,1.51,0,3.06.11,4.48H438.5v10.06H417.92c2.41,11.22,8.22,16.68,17.75,16.68,8.69,0,13.7-4,16.75-13.27l.14-.42,12.06,7.28-.12.27C459.33,395.2,448.77,402,435.53,402Z"/><path class="cls-9" d="M434,268.66a90,90,0,0,0-41.54,169.73l84-159.11A89.7,89.7,0,0,0,434,268.66Z"/></svg>