<svg id="Contenido" xmlns="http://www.w3.org/2000/svg" xmlns:xlink="http://www.w3.org/1999/xlink" viewBox="0 0 600 600"><defs><style>.cls-1{fill:url(#Degradado_sin_nombre_47);}.cls-2{fill:#49a5e6;}.cls-3{fill:#f8cd50;}.cls-4{fill:#2dcccd;}.cls-5{fill:url(#Degradado_sin_nombre_29);}.cls-6{fill:#1464a5;}.cls-7{fill:url(#Degradado_sin_nombre_8);}.cls-8{fill:url(#Degradado_sin_nombre_29-2);}.cls-9{fill:url(#Degradado_sin_nombre_41);}.cls-10{fill:url(#Degradado_sin_nombre_41-2);}</style><linearGradient id="Degradado_sin_nombre_47" x1="267.29" y1="228.02" x2="411.21" y2="498.69" gradientUnits="userSpaceOnUse"><stop offset="0" stop-color="#1a2746" stop-opacity="0.5"/><stop offset="1" stop-color="#1a2746" stop-opacity="0"/></linearGradient><linearGradient id="Degradado_sin_nombre_29" x1="263.82" y1="338.1" x2="150.42" y2="338.1" gradientUnits="userSpaceOnUse"><stop offset="0" stop-color="#028484" stop-opacity="0.6"/><stop offset="1" stop-color="#028484" stop-opacity="0.1"/></linearGradient><linearGradient id="Degradado_sin_nombre_8" x1="364.18" y1="284.48" x2="242.01" y2="284.48" gradientUnits="userSpaceOnUse"><stop offset="0" stop-color="#043263" stop-opacity="0.8"/><stop offset="1" stop-color="#043263" stop-opacity="0.2"/></linearGradient><linearGradient id="Degradado_sin_nombre_29-2" x1="490.53" y1="338.1" x2="377.13" y2="338.1" xlink:href="#Degradado_sin_nombre_29"/><linearGradient id="Degradado_sin_nombre_41" x1="195.96" y1="187.67" x2="223.84" y2="202.5" gradientUnits="userSpaceOnUse"><stop offset="0" stop-color="#fff" stop-opacity="0.6"/><stop offset="1" stop-color="#fff" stop-opacity="0.1"/></linearGradient><linearGradient id="Degradado_sin_nombre_41-2" x1="373.39" y1="191.79" x2="399.91" y2="205.89" xlink:href="#Degradado_sin_nombre_41"/></defs><title>values-day</title><path class="cls-1" d="M540.44,380c0-.32,0-.63-.05-.94,0-1-.13-2-.22-3,0-.18,0-.36,0-.53-.12-1.14-.27-2.27-.43-3.39l-.15-.9c-.14-.9-.3-1.8-.48-2.69l-.15-.8c-.23-1.09-.48-2.17-.75-3.23-.07-.28-.15-.55-.22-.83-.23-.84-.46-1.67-.72-2.5-.09-.32-.19-.64-.29-1-.32-1-.66-2-1-3.06l-.27-.71c-.31-.8-.62-1.6-1-2.39-.14-.35-.29-.7-.44-1.05-.36-.84-.74-1.67-1.13-2.49l-.42-.88c-.4-.8-.8-1.59-1.22-2.38l-.61-1.11c-.35-.64-.72-1.27-1.09-1.89-.19-.32-.37-.65-.57-1-.51-.84-1-1.66-1.58-2.47-.26-.39-.52-.77-.79-1.15s-.72-1-1.09-1.53-.55-.76-.84-1.14c-.56-.75-1.14-1.48-1.73-2.21-.32-.39-.65-.78-1-1.16s-.72-.84-1.09-1.25-.71-.81-1.08-1.21-.87-.92-1.31-1.37-1.15-1.17-1.74-1.74l-1.07-1-1.3-1.19-1.07-.92c-.76-.65-1.53-1.29-2.32-1.91-.35-.28-.69-.56-1-.82-.5-.38-1-.75-1.49-1.11l-1-.73c-.9-.64-1.81-1.25-2.74-1.85l-1-.61c-.54-.34-1.09-.66-1.63-1l-1.07-.61a76.87,76.87,0,0,0-69.77-3.07l-32.66-56.56h24.72v-.5a3,3,0,0,0,1.83,2.77,3.43,3.43,0,0,0,.57.17,2.91,2.91,0,0,0,.6.06h15.77l.69,0,.33.05.34,0,.44.1.22,0,.5.16.12,0c.19.06.37.14.55.21l.06,0a5.85,5.85,0,0,1,.56.28h0a7.8,7.8,0,0,1,1.08.72,7.28,7.28,0,0,1,2.8,4.83,7.52,7.52,0,0,1-5.39,8.21,3,3,0,0,0-2.06,2.85v14.25a3,3,0,0,0,3.34,3,27.4,27.4,0,0,0,7.4-52.47l-.11-.05a31.17,31.17,0,0,0-3.44-1.22l-.23-.06c-.51-.14-1-.27-1.54-.38l-.27-.06c-.58-.12-1.16-.22-1.75-.3l-.27,0c-.49-.06-1-.11-1.48-.15l-.47,0c-.58,0-1.17-.06-1.77-.06H426.54a2.91,2.91,0,0,0-.6.06,2.7,2.7,0,0,0-.57.18,3,3,0,0,0-1.83,2.76v-.5H386.05a7.73,7.73,0,0,0-5.68,2.36,7.51,7.51,0,0,0-1,8.89l14.38,24.9h-96l-10.76-18.65H304.2a3,3,0,0,0,2.65-4.49l-7.67-13.94a3,3,0,0,0-2.65-1.57H246.92a3,3,0,0,0-3,2.61,2.84,2.84,0,0,0,0,.77,2.93,2.93,0,0,0,.41,1.17l8.4,14a2.53,2.53,0,0,0,.48.6,3,3,0,0,0,2.09.85h14.27l15.08,26.14-16.13,27.93A77.15,77.15,0,0,0,200.43,451.7c.71.38,1.43.75,2.15,1.1l1.52.73,1.43.65,2.15.91c.54.22,1.09.44,1.65.65l1.4.52c.85.3,1.7.59,2.56.87l1.22.37c.7.21,1.41.41,2.12.6l1,.28c1,.24,1.95.47,2.93.68l1,.21c1,.2,2.07.39,3.11.56.21,0,.43.05.64.09,1,.14,1.94.26,2.92.37l.72.08c1.11.11,2.23.19,3.35.25l.74,0c1.18,0,2.36.09,3.54.09a77.28,77.28,0,0,0,76.81-69.68H350a8.3,8.3,0,0,0,1.11-.09h0l.16,0c.24,0,.47-.09.7-.15h0l.48-.16.33-.12h0a6.09,6.09,0,0,0,.81-.4h.06c.27-.17.53-.35.78-.53l.1-.08.08-.06c.16-.13.31-.27.46-.41l.09-.08,0,0,.07-.09a6.66,6.66,0,0,0,.5-.56h0a6.66,6.66,0,0,0,.57-.82l.05-.07,50.19-86.94,11.8,20.45a77.1,77.1,0,0,0,8.66,130.87c.71.38,1.42.75,2.15,1.1l1.51.73,1.43.65,2.15.91c.55.22,1.09.44,1.65.65l1.4.52c.85.3,1.7.59,2.57.87l1.21.37c.71.21,1.41.41,2.13.6l1,.28c1,.24,1.95.47,2.94.68l1,.21c1,.2,2.06.39,3.1.56.22,0,.43.05.64.09,1,.14,1.94.26,2.92.37l.72.08c1.11.11,2.23.19,3.36.25l.73,0c1.18,0,2.36.09,3.55.09a77.26,77.26,0,0,0,77.17-77.18C540.53,382.38,540.5,381.21,540.44,380Zm-203.43-4H313.45c0-.17,0-.34,0-.5-.12-1.14-.27-2.27-.44-3.39,0-.3-.09-.6-.14-.9-.14-.9-.3-1.8-.48-2.69-.05-.27-.1-.54-.16-.8-.22-1.09-.47-2.17-.74-3.23-.07-.28-.15-.55-.22-.83-.23-.84-.47-1.67-.72-2.5-.09-.32-.19-.64-.29-1-.32-1-.67-2-1-3.06-.09-.24-.19-.47-.28-.71-.3-.8-.61-1.6-.94-2.39l-.44-1.05c-.36-.84-.74-1.67-1.13-2.49-.14-.29-.28-.59-.43-.88-.39-.8-.8-1.59-1.22-2.38-.19-.37-.4-.74-.6-1.11-.36-.64-.72-1.27-1.09-1.89l-.57-1c-.51-.84-1-1.66-1.58-2.47-.26-.39-.53-.77-.79-1.15s-.72-1-1.09-1.53-.55-.76-.84-1.14c-.56-.75-1.14-1.48-1.73-2.21-.32-.39-.66-.78-1-1.16s-.72-.84-1.09-1.25l-1.08-1.21c-.43-.46-.87-.92-1.31-1.37s-1.15-1.17-1.74-1.74l-1.08-1c-.43-.4-.86-.8-1.3-1.19l-1.06-.92c-.76-.65-1.54-1.29-2.32-1.91-.35-.28-.69-.56-1.05-.82s-1-.75-1.49-1.11l-.44-.33,11.81-20.44Zm-64.9-37.3c.57.45,1.14.92,1.69,1.4l.81.69,1,.88.8.76c.43.42.85.84,1.27,1.27l1,1c.27.29.53.58.79.88s.55.62.81.94.49.56.73.85c.43.54.86,1.09,1.28,1.64l.62.84q.42.57.81,1.14c.2.28.39.56.58.85.4.6.8,1.21,1.18,1.83l.41.7c.28.47.55.94.82,1.41.15.28.3.55.44.83.31.58.62,1.16.91,1.75l.31.66c.29.61.57,1.23.84,1.85l.33.77q.36.88.69,1.77l.21.53c.27.75.52,1.5.77,2.26l.21.71c.19.61.36,1.23.53,1.85.05.21.11.41.16.61.2.79.39,1.59.56,2.4,0,.19.07.39.11.59.13.66.25,1.33.36,2,0,.22.07.44.1.66s.08.63.12.94H249.63l21.83-37.81Zm-35.47,102c-.88,0-1.75,0-2.62-.07l-.55,0c-.83-.05-1.66-.11-2.48-.19l-.53-.06c-.73-.08-1.45-.17-2.17-.28l-.47-.07c-.77-.12-1.54-.26-2.3-.41l-.78-.16c-.72-.15-1.45-.32-2.17-.5l-.75-.2c-.53-.14-1-.29-1.57-.45l-.91-.27c-.64-.21-1.27-.42-1.9-.65l-1-.38-1.22-.49c-.53-.21-1.06-.44-1.59-.67l-1.06-.48c-.37-.18-.75-.35-1.12-.54-.54-.26-1.07-.53-1.59-.82h0a57.16,57.16,0,0,1,48.68-103.3l-28.34,49.08a.25.25,0,0,1,0,.07c-.08.14-.15.29-.22.44a1.63,1.63,0,0,0-.11.23c-.06.14-.12.28-.17.42s-.07.19-.1.29-.07.24-.1.36-.07.24-.1.37,0,.19-.05.29,0,.3-.07.45,0,.17,0,.26,0,.33,0,.49,0,.05,0,.08,0,.13,0,.2,0,.3,0,.45,0,.23,0,.35,0,.24.05.36l.09.39a2.81,2.81,0,0,0,.08.31l.12.4.11.29c.05.12.1.25.16.37s.09.2.15.3a3.24,3.24,0,0,0,.17.32c.06.11.13.22.2.33l.18.26c.08.12.16.23.25.34a2,2,0,0,0,.19.22c.09.11.19.22.29.32l.22.22.3.27.28.23.28.21a4,4,0,0,0,.38.24l.17.11.06,0a8,8,0,0,0,.83.41l.11,0q.35.13.72.24l.28.07a5.6,5.6,0,0,0,.59.12l.3,0c.24,0,.48,0,.72,0h56.81A57.25,57.25,0,0,1,236.64,440.75ZM350,368.57,306.33,292.9h87.36Zm113.36,72.18c-.88,0-1.76,0-2.63-.07l-.55,0c-.83-.05-1.66-.11-2.48-.19l-.53-.06c-.73-.08-1.45-.17-2.17-.28l-.47-.07c-.77-.12-1.54-.26-2.3-.41l-.77-.16c-.73-.15-1.46-.32-2.18-.5l-.75-.2c-.53-.14-1-.29-1.57-.45l-.9-.27c-.64-.21-1.28-.42-1.9-.65l-1-.38-1.22-.49c-.54-.21-1.07-.44-1.6-.67l-1.05-.48c-.38-.18-.76-.35-1.13-.54-.53-.26-1.07-.53-1.59-.82h0a57.12,57.12,0,0,1-8-95.79l26.81,46.43a3,3,0,0,0,4.1,1.1l7.79-4.5a3,3,0,0,0,1.1-4.1l-26.82-46.45a57,57,0,0,1,48.66,2.37c.42.22.83.45,1.24.68l.8.47,1.2.72.74.47c.67.44,1.34.88,2,1.34l.76.55c.37.27.74.54,1.1.82s.53.41.79.62c.57.45,1.14.92,1.7,1.4l.8.69,1,.88.8.76c.43.42.86.84,1.27,1.27s.67.69,1,1l.8.88.81.94.72.85c.44.54.87,1.09,1.29,1.64l.61.84q.42.57.81,1.14c.2.28.39.56.58.85.41.6.8,1.21,1.18,1.83l.42.7.81,1.41.45.83c.31.58.61,1.16.9,1.75l.32.66c.29.61.56,1.23.83,1.85l.33.77c.24.59.47,1.18.7,1.77.06.18.13.35.2.53.27.75.53,1.5.77,2.26l.21.71c.19.61.36,1.23.53,1.85,0,.21.11.41.16.61.21.79.39,1.59.56,2.4,0,.19.07.39.11.59.13.66.25,1.33.36,2,0,.22.07.44.11.66.12.83.23,1.67.32,2.51l0,.39c.07.74.13,1.48.17,2.23,0,.23,0,.46,0,.69,0,.87.06,1.74.06,2.62A57.24,57.24,0,0,1,463.36,440.75Z"/><path class="cls-2" d="M300,341.07a7.51,7.51,0,0,1-6.51-3.75L216,203a7.5,7.5,0,1,1,13-7.49L306.5,329.82A7.5,7.5,0,0,1,300,341.07Z"/><path class="cls-3" d="M254.2,209.25H205.32a3,3,0,0,1-2.57-1.45l-8.4-14a3,3,0,0,1,2.57-4.55h49.61a3,3,0,0,1,2.66,1.57l7.66,13.94A3,3,0,0,1,254.2,209.25Z"/><path class="cls-4" d="M186.64,410.75a77.18,77.18,0,1,1,77.18-77.18A77.26,77.26,0,0,1,186.64,410.75Zm0-134.36a57.18,57.18,0,1,0,57.18,57.18A57.24,57.24,0,0,0,186.64,276.39Z"/><path class="cls-5" d="M222.87,265.45l-9.39,17.65A57.16,57.16,0,1,1,159.81,384l-9.39,17.65a77.15,77.15,0,1,0,72.45-136.24Z"/><path class="cls-4" d="M413.36,410.75a77.18,77.18,0,1,1,77.17-77.18A77.26,77.26,0,0,1,413.36,410.75Zm0-134.36a57.18,57.18,0,1,0,57.17,57.18A57.24,57.24,0,0,0,413.36,276.39Z"/><path class="cls-6" d="M363.17,231.65a7.49,7.49,0,0,0-6.49-3.75H243.21a6.3,6.3,0,0,0-.75.05l-.22,0c-.29.05-.58.1-.87.18h0a7.86,7.86,0,0,0-.82.27l-.21.1a4.6,4.6,0,0,0-.63.31l-.17.09A7.06,7.06,0,0,0,238.1,230l-.16.15c-.16.17-.31.34-.46.53l-.15.18a6.65,6.65,0,0,0-.5.76l-56.68,98.17a.25.25,0,0,1,0,.07c-.08.14-.15.29-.22.44a1.63,1.63,0,0,0-.11.23c-.06.14-.12.28-.17.42s-.07.19-.1.29-.07.24-.1.36-.07.24-.1.37,0,.19-.05.29,0,.3-.07.45,0,.17,0,.26,0,.33,0,.49,0,.05,0,.08,0,.13,0,.2,0,.3,0,.45,0,.23,0,.35,0,.24.05.36l.09.39a2.81,2.81,0,0,0,.08.31c0,.14.08.27.13.4s.06.19.1.29.1.25.16.37l.15.3a3.24,3.24,0,0,0,.17.32c.06.11.13.22.2.33l.18.26c.08.12.16.23.25.34s.13.15.19.22.19.22.29.32l.22.22.3.27.28.23.29.21a2.92,2.92,0,0,0,.37.24l.17.11.06,0a8,8,0,0,0,.83.41l.11,0q.35.13.72.24l.28.07a5.6,5.6,0,0,0,.59.12l.3,0c.24,0,.48,0,.73,0H300a6.84,6.84,0,0,0,.91-.06l.24,0c.23,0,.45-.08.68-.13l.21-.06a7.52,7.52,0,0,0,.84-.28h0a6.09,6.09,0,0,0,.81-.4l.17-.1c.2-.12.39-.25.58-.38l.19-.15a6.53,6.53,0,0,0,.63-.55l0,0a7.21,7.21,0,0,0,.58-.66L306,338c.14-.2.28-.4.4-.6l.08-.11,56.67-98.17A7.5,7.5,0,0,0,363.17,231.65Zm-67.5,94.42h-96l48-83.17h96Z"/><path class="cls-7" d="M363.17,231.65a7.49,7.49,0,0,0-6.49-3.75h-54.5l-8,15h49.48l-48,83.17H250l-8,15h58a6.84,6.84,0,0,0,.91-.06l.24,0c.23,0,.45-.08.68-.13l.21-.06a7.52,7.52,0,0,0,.84-.28h0a6.09,6.09,0,0,0,.81-.4l.17-.1c.2-.12.39-.25.58-.38l.19-.15a6.53,6.53,0,0,0,.63-.55l0,0a7.21,7.21,0,0,0,.58-.66L306,338c.14-.2.28-.4.4-.6l.08-.11,56.67-98.17A7.5,7.5,0,0,0,363.17,231.65Z"/><path class="cls-2" d="M418.35,327.18,348.82,206.75h24.72v-15H336.05a7.73,7.73,0,0,0-5.68,2.36,7.49,7.49,0,0,0-1,8.89l76,131.68a3,3,0,0,0,4.1,1.1l7.79-4.5A3,3,0,0,0,418.35,327.18Z"/><path class="cls-3" d="M392.57,241.09V226.84a2.94,2.94,0,0,1,2.06-2.85,7.52,7.52,0,0,0,5.39-8.21,7.69,7.69,0,0,0-7.71-6.53H376.54a3,3,0,0,1-3-3v-14a3,3,0,0,1,3-3H392c15,0,27.65,11.72,28.09,26.68a27.56,27.56,0,0,1-24.16,28.15A3,3,0,0,1,392.57,241.09Z"/><path class="cls-8" d="M449.58,265.45l-9.39,17.65A57.16,57.16,0,1,1,386.52,384l-9.39,17.65a77.15,77.15,0,1,0,72.45-136.24Z"/><path class="cls-9" d="M196.92,189.25a3,3,0,0,0-2.57,4.55l8.4,14a3,3,0,0,0,2.57,1.45h14.94l10.63-20Z"/><path class="cls-10" d="M392,189.25H376.54a3,3,0,0,0-3,3v14a3,3,0,0,0,3,3h15.77a8,8,0,0,1,4.91,1.7l9.38-17.65A28.42,28.42,0,0,0,392,189.25Z"/></svg>