<svg xmlns="http://www.w3.org/2000/svg" xmlns:xlink="http://www.w3.org/1999/xlink" viewBox="0 0 600 600"><defs><style>.cls-1{fill:none;}.cls-2{fill:url(#Degradado_sin_nombre_414);}.cls-3{fill:#49a5e6;}.cls-4{fill:#f8cd50;}.cls-5{fill:#2dcccd;}.cls-6{fill:url(#Degradado_sin_nombre_19);}.cls-7{fill:#004481;}.cls-8{fill:url(#Degradado_sin_nombre_114);}.cls-9{fill:url(#Degradado_sin_nombre_19-2);}.cls-10{fill:url(#Degradado_sin_nombre_9);}.cls-11{fill:url(#Degradado_sin_nombre_9-2);}</style><linearGradient id="Degradado_sin_nombre_414" x1="258.33" y1="10295.56" x2="422.71" y2="9986.41" gradientTransform="matrix(1, 0, 0, -1, 0, 10510)" gradientUnits="userSpaceOnUse"><stop offset="0" stop-color="#1a2746" stop-opacity="0.5"/><stop offset="1" stop-color="#1a2746" stop-opacity="0"/></linearGradient><linearGradient id="Degradado_sin_nombre_19" x1="255.15" y1="10170.1" x2="125.7" y2="10170.1" gradientTransform="matrix(1, 0, 0, -1, 0, 10510)" gradientUnits="userSpaceOnUse"><stop offset="0" stop-color="#028484" stop-opacity="0.6"/><stop offset="1" stop-color="#028484" stop-opacity="0.1"/></linearGradient><linearGradient id="Degradado_sin_nombre_114" x1="369.7" y1="10231.26" x2="230.25" y2="10231.26" gradientTransform="matrix(1, 0, 0, -1, 0, 10510)" gradientUnits="userSpaceOnUse"><stop offset="0" stop-color="#072146" stop-opacity="0.8"/><stop offset="1" stop-color="#072146" stop-opacity="0"/></linearGradient><linearGradient id="Degradado_sin_nombre_19-2" x1="513.96" y1="10170.1" x2="384.52" y2="10170.1" xlink:href="#Degradado_sin_nombre_19"/><linearGradient id="Degradado_sin_nombre_9" x1="177.69" y1="10341.78" x2="209.53" y2="10324.84" gradientTransform="matrix(1, 0, 0, -1, 0, 10510)" gradientUnits="userSpaceOnUse"><stop offset="0" stop-color="#fff" stop-opacity="0.6"/><stop offset="1" stop-color="#fff" stop-opacity="0.1"/></linearGradient><linearGradient id="Degradado_sin_nombre_9-2" x1="380.24" y1="10337.08" x2="410.52" y2="10320.98" xlink:href="#Degradado_sin_nombre_9"/></defs><title>11</title><g id="Cuadrados_Blancos" data-name="Cuadrados Blancos"><rect class="cls-1" width="600" height="600"/></g><g id="Capa_7" data-name="Capa 7"><path class="cls-2" d="M571,387.78a6.34,6.34,0,0,0-.06-1.07c0-1.14-.15-2.28-.25-3.42v-.61c-.14-1.3-.31-2.59-.49-3.87l-.17-1c-.16-1-.34-2-.55-3.07l-.17-.91c-.26-1.24-.55-2.48-.86-3.69-.08-.32-.17-.63-.25-.95-.26-1-.52-1.9-.82-2.85-.1-.36-.22-.73-.33-1.14-.37-1.14-.75-2.28-1.14-3.49l-.31-.81c-.35-.92-.71-1.83-1.14-2.73-.16-.4-.33-.8-.5-1.2-.42-1-.85-1.91-1.29-2.84l-.48-1c-.46-.91-.92-1.81-1.4-2.72l-.69-1.26c-.4-.73-.83-1.45-1.25-2.16l-.65-1.14c-.58-1-1.14-1.9-1.8-2.82-.3-.45-.6-.88-.9-1.31s-.83-1.15-1.25-1.75-.63-.87-1-1.3c-.64-.86-1.3-1.69-2-2.53-.37-.44-.74-.89-1.14-1.32s-.83-1-1.25-1.43-.81-.92-1.23-1.38-1-1.05-1.5-1.56-1.31-1.34-2-2L543,327.28l-1.49-1.36-1.22-1.05c-.87-.74-1.75-1.47-2.65-2.18-.4-.32-.79-.64-1.14-.94l-1.7-1.26-1.14-.84c-1-.73-2.07-1.42-3.13-2.11l-1.14-.69c-.62-.39-1.25-.76-1.86-1.15l-1.22-.69a87.77,87.77,0,0,0-79.65-3.51l-37.29-64.57h28.22v-.57a3.44,3.44,0,0,0,2.09,3.17,4.84,4.84,0,0,0,.65.19,3.23,3.23,0,0,0,.69.07h18.79l.37.06h.39l.5.11h.26l.57.18H462c.22.07.43.16.63.24h.07c.22.1.43.2.64.32h0a10.12,10.12,0,0,1,1.23.82,8.31,8.31,0,0,1,3.2,5.52,8.59,8.59,0,0,1-6.15,9.37,3.43,3.43,0,0,0-2.36,3.25v16.27a3.44,3.44,0,0,0,3.41,3.45l.41,0a31.28,31.28,0,0,0,8.44-59.9l-.12-.06a33.94,33.94,0,0,0-3.93-1.39l-.26-.07c-.58-.16-1.14-.31-1.76-.44l-.31-.06c-.66-.14-1.32-.26-2-.35h-.31c-.56-.07-1.14-.12-1.69-.17h-.54c-.66,0-1.33-.07-2-.07H440.92a3.82,3.82,0,0,0-.68.07,3.3,3.3,0,0,0-.65.21,3.4,3.4,0,0,0-2.09,3.15v-.57H394.7a8.86,8.86,0,0,0-6.49,2.69,8.59,8.59,0,0,0-1.14,10.15L403.49,271H293.9l-12.29-21.29h19.65a3.44,3.44,0,0,0,3.48-3.38,3.37,3.37,0,0,0-.46-1.75l-8.75-15.91a3.45,3.45,0,0,0-3-1.8H235.87a3.44,3.44,0,0,0-3.43,3,3.24,3.24,0,0,0,0,.88,3.36,3.36,0,0,0,.47,1.34l9.59,16a2.83,2.83,0,0,0,.55.69,3.46,3.46,0,0,0,2.38,1h16.3l17.21,29.84-18.41,31.88A88.15,88.15,0,0,0,182.8,469.64c.81.43,1.63.85,2.45,1.25l1.74.84,1.63.74,2.45,1c.62.25,1.25.5,1.89.74l1.59.59c1,.34,1.94.68,2.93,1l1.39.42c.8.24,1.61.47,2.42.68l1.14.32c1.14.28,2.23.54,3.35.78l1.14.24c1.14.23,2.36.44,3.55.64a3.66,3.66,0,0,1,.73.1c1.14.16,2.21.3,3.33.42l.82.09c1.27.13,2.55.22,3.83.29H220c1.35,0,2.7.1,4,.1a88.21,88.21,0,0,0,87.69-79.54h41.79a8.94,8.94,0,0,0,1.27-.11H355a3.08,3.08,0,0,0,.8-.17h0l.55-.18.38-.14h0a7.13,7.13,0,0,0,.92-.45h.07c.31-.2.61-.4.89-.61l.12-.09.09-.07c.18-.15.35-.31.52-.47l.1-.09h0l.08-.1a7,7,0,0,0,.58-.64h0a8.72,8.72,0,0,0,.65-.94l.05-.08L418.09,297l13.47,23.35a88,88,0,0,0,9.89,149.4c.81.43,1.62.86,2.45,1.25l1.72.84,1.64.74,2.45,1c.63.25,1.25.5,1.89.74l1.59.59c1,.35,1.94.68,2.94,1l1.38.42c.81.24,1.61.47,2.43.69l1.14.31c1.14.28,2.23.54,3.36.78l1.14.24c1.14.23,2.35.45,3.54.64a4.42,4.42,0,0,1,.73.1c1.14.16,2.21.3,3.33.43l.82.09c1.27.12,2.55.21,3.84.28h.83c1.35,0,2.7.1,4.06.1a88.19,88.19,0,0,0,88.09-88.1A19.19,19.19,0,0,0,571,387.78Zm-232.24-4.56H311.82v-.57c-.14-1.3-.31-2.59-.5-3.87a7.12,7.12,0,0,0-.16-1c-.16-1-.35-2.06-.55-3.07-.06-.31-.12-.62-.18-.91-.26-1.25-.54-2.48-.85-3.69-.08-.32-.17-.63-.25-.95-.26-1-.54-1.91-.82-2.85-.1-.37-.22-.73-.33-1.15-.37-1.14-.77-2.28-1.14-3.49-.11-.27-.22-.53-.32-.81-.35-.91-.7-1.83-1.08-2.73l-.5-1.2c-.41-.95-.84-1.9-1.29-2.84-.16-.33-.32-.67-.49-1-.45-.92-.91-1.82-1.39-2.72-.22-.42-.46-.84-.69-1.27-.41-.73-.82-1.45-1.24-2.15l-.65-1.15c-.59-1-1.15-1.89-1.81-2.82-.29-.44-.6-.88-.9-1.31s-.82-1.14-1.24-1.75-.63-.86-1-1.3q-1-1.27-2-2.52c-.36-.45-.75-.89-1.14-1.32s-.82-1-1.24-1.43l-1.24-1.38c-.49-.53-1-1.05-1.49-1.57s-1.31-1.33-2-2l-1.23-1.14c-.49-.46-1-.92-1.48-1.36l-1.22-1.05c-.86-.75-1.75-1.48-2.64-2.18-.4-.32-.79-.64-1.2-.94l-1.7-1.27-.51-.37,13.49-23.34Zm-74.08-42.58c.65.51,1.3,1.05,1.92,1.59l.93.79,1.14,1,.91.86,1.45,1.45,1.15,1.15.9,1c.29.34.63.71.92,1.07s.56.64.84,1c.49.62,1,1.25,1.46,1.88l.7,1c.32.43.63.86.93,1.3s.44.64.66,1c.46.68.91,1.38,1.35,2.09l.47.8c.32.53.62,1.07.93,1.6.17.32.34.63.5.95.36.66.71,1.33,1,2l.36.75c.33.7.65,1.41,1,2.12l.37.87c.28.67.54,1.35.79,2l.24.6c.31.86.59,1.71.88,2.58l.24.81c.22.7.41,1.4.6,2.11.06.24.13.47.19.7.23.9.44,1.81.64,2.74a4.11,4.11,0,0,0,.12.67c.15.76.29,1.52.41,2.29a4.88,4.88,0,0,0,.12.75c0,.25.09.72.13,1.07H239L263.88,340Zm-40.5,116.44c-1,0-2,0-3-.08h-.63c-.94-.06-1.89-.13-2.83-.22l-.6-.07c-.84-.09-1.66-.19-2.48-.32l-.54-.08c-.88-.13-1.75-.29-2.62-.46l-.89-.19c-.82-.17-1.66-.36-2.48-.57l-.86-.23c-.6-.16-1.14-.33-1.79-.51l-1-.31c-.73-.24-1.45-.48-2.17-.74l-1.14-.43-1.39-.56c-.61-.24-1.21-.51-1.82-.77l-1.21-.55-1.27-.61c-.62-.3-1.23-.61-1.82-.94h0a65.25,65.25,0,0,1,55.57-117.93l-32.35,56v.08c-.09.16-.17.34-.25.51a2.1,2.1,0,0,0-.13.26l-.19.48a3.14,3.14,0,0,0-.11.33c0,.11-.08.27-.12.41s-.08.27-.11.42,0,.22-.06.33,0,.35-.08.52,0,.19,0,.29V393a1,1,0,0,0,.06.41l.1.44a2.37,2.37,0,0,0,.09.36l.14.45.12.33c.06.14.12.29.19.43s.1.23.17.34.12.25.19.36.15.26.23.38l.21.3c.09.14.18.26.28.39a2.62,2.62,0,0,0,.22.25c.1.12.22.25.33.36l.25.25.34.31.32.27.32.23a4.08,4.08,0,0,0,.44.28l.19.12H220a8.38,8.38,0,0,0,.95.47h.12l.82.28.32.08c.23.05.45.1.68.13h66a65.37,65.37,0,0,1-64.77,56.95Zm129.41-82.34-49.85-86.39h99.73ZM483,457.14c-1,0-2,0-3-.08h-.63c-.94-.06-1.89-.13-2.83-.22l-.6-.07c-.84-.09-1.66-.19-2.48-.32l-.54-.08c-.87-.14-1.75-.3-2.62-.47l-.88-.18c-.83-.17-1.67-.37-2.49-.57l-.86-.23c-.6-.16-1.14-.33-1.79-.51l-1-.31c-.74-.24-1.47-.48-2.17-.74l-1.15-.44-1.39-.56c-.61-.24-1.22-.5-1.82-.76l-1.2-.55c-.44-.2-.87-.4-1.29-.62-.61-.29-1.22-.6-1.82-.93h0a65.2,65.2,0,0,1-9.13-109.35l30.6,53a3.43,3.43,0,0,0,4.68,1.26h0l8.89-5.14a3.43,3.43,0,0,0,1.26-4.68h0l-30.61-53a65.08,65.08,0,0,1,55.55,2.71c.48.25.94.51,1.41.77l.92.54,1.37.82.84.54c.76.5,1.53,1,2.28,1.53l.87.63c.42.3.85.61,1.26.93l.9.71c.65.51,1.3,1.05,1.94,1.6l.91.78,1.14,1,.92.87c.49.48,1,1,1.45,1.45s.76.78,1.14,1.14l.91,1,.93,1.08.82,1c.5.61,1,1.24,1.47,1.87l.7,1c.32.43.63.87.92,1.3s.45.64.66,1c.47.68.92,1.38,1.35,2.09l.48.8.93,1.61.51.94c.35.67.7,1.33,1,2l.36.76c.33.69.64,1.4,1,2.11l.38.88c.27.67.53,1.34.8,2,.06.2.14.4.22.6.31.86.61,1.72.88,2.58l.24.81c.22.7.41,1.41.61,2.12a2.93,2.93,0,0,0,.18.69c.24.9.45,1.82.64,2.74a3.17,3.17,0,0,0,.13.67c.14.76.28,1.52.41,2.29a4.88,4.88,0,0,0,.12.75c.14.95.26,1.91.37,2.87v.44c.08.85.15,1.69.19,2.55v.79c0,1,.07,2,.07,3A65.36,65.36,0,0,1,483,457.14Z"/><path class="cls-3" d="M296.46,343.34a8.57,8.57,0,0,1-7.43-4.28L200.57,185.72a8.56,8.56,0,0,1,14.84-8.55L303.88,330.5a8.56,8.56,0,0,1-7.42,12.84Z"/><path class="cls-4" d="M244.18,192.86h-55.8a3.44,3.44,0,0,1-2.94-1.66l-9.59-16a3.43,3.43,0,0,1,1.17-4.7,3.33,3.33,0,0,1,1.77-.49h56.63a3.4,3.4,0,0,1,3,1.79l8.74,15.91a3.42,3.42,0,0,1-1.27,4.67A3.37,3.37,0,0,1,244.18,192.86Z"/><path class="cls-5" d="M167.05,422.89a88.11,88.11,0,1,1,88.11-88.11A88.11,88.11,0,0,1,167.05,422.89Zm0-153.39a65.28,65.28,0,1,0,65.28,65.28h0A65.35,65.35,0,0,0,167.05,269.5Z"/><path class="cls-6" d="M208.41,257l-10.72,20.15a65.26,65.26,0,0,1-58.45,116.69q-1.43-.72-2.82-1.5L125.7,412.5A88.08,88.08,0,1,0,208.41,257Z"/><path class="cls-5" d="M425.88,422.89A88.11,88.11,0,1,1,514,334.77h0A88.2,88.2,0,0,1,425.88,422.89Zm0-153.39a65.28,65.28,0,1,0,65.26,65.29h0A65.35,65.35,0,0,0,425.88,269.5Z"/><path class="cls-7" d="M368.58,218.43a8.55,8.55,0,0,0-7.41-4.28H231.63a8.08,8.08,0,0,0-.85,0h-.25c-.34.06-.67.12-1,.21h0c-.31.09-.63.19-.93.31l-.24.11a4.84,4.84,0,0,0-.72.36l-.2.1a8,8,0,0,0-1.64,1.26l-.18.17a6.14,6.14,0,0,0-.53.6l-.17.21a7.12,7.12,0,0,0-.57.86L159.64,330.46a.11.11,0,0,1,0,.08c-.09.16-.17.34-.25.51a1.23,1.23,0,0,0-.12.26c-.07.16-.14.32-.2.48s-.08.22-.11.33-.08.27-.12.41-.07.27-.11.42,0,.22-.06.33,0,.35-.08.52,0,.19,0,.3v1.79a1,1,0,0,0,.06.41l.1.44.09.36a1.41,1.41,0,0,0,.15.45c.06.15.07.22.12.34a4.4,4.4,0,0,0,.18.42l.17.34a2.64,2.64,0,0,0,.2.37,3.6,3.6,0,0,0,.22.37l.21.3c.09.14.18.26.28.39l.22.25.33.36.25.25.35.31.32.27.33.24a3,3,0,0,0,.42.27l.19.12h.07a7,7,0,0,0,1,.47h.13c.26.1.54.19.82.28l.32.08c.22,0,.44.1.67.13H296.46a8.94,8.94,0,0,0,1-.06h.28a4.19,4.19,0,0,0,.77-.15l.24-.07a9.82,9.82,0,0,0,1-.32h0a6.69,6.69,0,0,0,.93-.46l.19-.11c.23-.14.45-.29.66-.44l.22-.17a7.06,7.06,0,0,0,.72-.63h0a6.81,6.81,0,0,0,.66-.75l.18-.11c.16-.23.32-.46.46-.69l.09-.12L368.56,227A8.57,8.57,0,0,0,368.58,218.43ZM291.52,326.22H181.93l54.79-95h109.6Z"/><path class="cls-8" d="M368.58,218.43a8.55,8.55,0,0,0-7.41-4.28H299l-9.13,17.12h56.49l-54.8,95H239.38l-9.13,17.12h66.21a7.17,7.17,0,0,0,1-.07h.28a3.49,3.49,0,0,0,.77-.15l.24-.06a9.82,9.82,0,0,0,1-.32h0a6.69,6.69,0,0,0,.93-.46l.19-.11c.23-.14.45-.29.66-.44l.22-.17a7.06,7.06,0,0,0,.72-.63h0a7.87,7.87,0,0,0,.66-.75l.18-.34c.16-.23.32-.46.46-.69l.09-.12L368.56,227A8.57,8.57,0,0,0,368.58,218.43Z"/><path class="cls-3" d="M431.57,327.49,352.2,190h28.22V172.88h-42.8a8.86,8.86,0,0,0-6.49,2.69A8.56,8.56,0,0,0,330,185.72l86.76,150.33a3.42,3.42,0,0,0,4.68,1.25h0l8.9-5.13A3.43,3.43,0,0,0,431.57,327.49Z"/><path class="cls-4" d="M402.14,229.21V212.94a3.38,3.38,0,0,1,2.35-3.26,8.58,8.58,0,0,0,6.16-9.37,8.78,8.78,0,0,0-8.81-7.45h-18a3.43,3.43,0,0,1-3.42-3.43v-16a3.42,3.42,0,0,1,3.42-3.42h17.65c17.12,0,31.57,13.37,32.07,30.45A31.47,31.47,0,0,1,406,232.62a3.42,3.42,0,0,1-3.81-3A3,3,0,0,1,402.14,229.21Z"/><path class="cls-9" d="M467.22,257,456.5,277.16a65.26,65.26,0,0,1-58.45,116.69q-1.43-.72-2.82-1.5L384.52,412.5A88.08,88.08,0,0,0,467.22,257Z"/><path class="cls-10" d="M178.79,170a3.42,3.42,0,0,0-3.43,3.42,3.47,3.47,0,0,0,.49,1.77l9.59,16a3.44,3.44,0,0,0,2.94,1.66h17.05L217.57,170Z"/><path class="cls-11" d="M401.49,170H383.84a3.42,3.42,0,0,0-3.42,3.42v16a3.43,3.43,0,0,0,3.42,3.43h18a9.11,9.11,0,0,1,5.61,1.94l10.71-20.15A32.43,32.43,0,0,0,401.49,170Z"/></g></svg>