<svg id="Contenido" xmlns="http://www.w3.org/2000/svg" xmlns:xlink="http://www.w3.org/1999/xlink" viewBox="0 0 600 600"><defs><style>.cls-1{fill:url(#Degradado_sin_nombre_74);}.cls-2{fill:#2dcccd;}.cls-3{fill:#028484;}.cls-4{fill:#1464a5;}.cls-5{fill:url(#Degradado_sin_nombre_109);}.cls-6{fill:#f8cd51;}.cls-7{fill:url(#Degradado_sin_nombre_3);}.cls-8{fill:url(#Degradado_sin_nombre_3-2);}.cls-9{fill:url(#Degradado_sin_nombre_3-3);}.cls-10{fill:url(#Degradado_sin_nombre_3-4);}.cls-11{fill:url(#Degradado_sin_nombre_3-5);}.cls-12{fill:url(#Degradado_sin_nombre_3-6);}.cls-13{fill:url(#Degradado_sin_nombre_3-7);}.cls-14{fill:url(#Degradado_sin_nombre_3-8);}.cls-15{fill:url(#Degradado_sin_nombre_3-9);}.cls-16{fill:url(#Degradado_sin_nombre_3-10);}.cls-17{fill:#fff;}.cls-18{fill:url(#Degradado_sin_nombre_3-11);}.cls-19{fill:none;}</style><linearGradient id="Degradado_sin_nombre_74" x1="218.98" y1="149.66" x2="434.42" y2="554.85" gradientUnits="userSpaceOnUse"><stop offset="0" stop-color="#082146" stop-opacity="0.5"/><stop offset="1" stop-color="#082146" stop-opacity="0"/></linearGradient><linearGradient id="Degradado_sin_nombre_109" x1="217.15" y1="281.99" x2="461" y2="281.99" gradientTransform="matrix(1, 0, 0, -1, 0, 620)" gradientUnits="userSpaceOnUse"><stop offset="0" stop-color="#043263" stop-opacity="0"/><stop offset="1" stop-color="#043263" stop-opacity="0.6"/></linearGradient><linearGradient id="Degradado_sin_nombre_3" x1="322.12" y1="481.94" x2="358.14" y2="502.74" gradientUnits="userSpaceOnUse"><stop offset="0" stop-color="#fff" stop-opacity="0.6"/><stop offset="1" stop-color="#fff" stop-opacity="0.2"/></linearGradient><linearGradient id="Degradado_sin_nombre_3-2" x1="322.12" y1="459.94" x2="358.14" y2="480.74" xlink:href="#Degradado_sin_nombre_3"/><linearGradient id="Degradado_sin_nombre_3-3" x1="322.12" y1="437.94" x2="358.14" y2="458.74" xlink:href="#Degradado_sin_nombre_3"/><linearGradient id="Degradado_sin_nombre_3-4" x1="224.12" y1="459.94" x2="260.14" y2="480.74" xlink:href="#Degradado_sin_nombre_3"/><linearGradient id="Degradado_sin_nombre_3-5" x1="224.12" y1="437.94" x2="260.14" y2="458.74" xlink:href="#Degradado_sin_nombre_3"/><linearGradient id="Degradado_sin_nombre_3-6" x1="224.12" y1="415.94" x2="260.14" y2="436.74" xlink:href="#Degradado_sin_nombre_3"/><linearGradient id="Degradado_sin_nombre_3-7" x1="322.12" y1="415.94" x2="358.14" y2="436.74" xlink:href="#Degradado_sin_nombre_3"/><linearGradient id="Degradado_sin_nombre_3-8" x1="322.12" y1="393.94" x2="358.14" y2="414.74" xlink:href="#Degradado_sin_nombre_3"/><linearGradient id="Degradado_sin_nombre_3-9" x1="322.12" y1="371.94" x2="358.14" y2="392.74" xlink:href="#Degradado_sin_nombre_3"/><linearGradient id="Degradado_sin_nombre_3-10" x1="224.12" y1="481.94" x2="260.14" y2="502.74" xlink:href="#Degradado_sin_nombre_3"/><linearGradient id="Degradado_sin_nombre_3-11" x1="389.05" y1="422.73" x2="442.8" y2="453.76" xlink:href="#Degradado_sin_nombre_3"/></defs><path class="cls-1" d="M489.13,419.8l0,0a61.17,61.17,0,0,0-8.15-3.58V205.9a3.89,3.89,0,0,0-3.9-3.89H402.5V152l-.46,0h.46l-26-26h-113l-26,26H238l-.46,0v50H162.89A3.89,3.89,0,0,0,159,205.9V473.41a3.9,3.9,0,0,0,1.18,2.79l37.94,36.72a3.89,3.89,0,0,0,2.7,1.09h39.69v6a3,3,0,0,0,3,3h82a3,3,0,0,0,3-3v-6h10v6a3,3,0,0,0,3,3h82a3,3,0,0,0,2.59-1.52,59.93,59.93,0,0,0,94.9-48.7v0A60,60,0,0,0,489.13,419.8ZM376.5,202h-113V152h113Z"/><rect class="cls-2" x="217.5" y="132.03" width="26" height="50"/><path class="cls-3" d="M382.5,132h0l-26-26h-113l-26,26Z"/><rect class="cls-2" x="356.5" y="132.03" width="26" height="50"/><path class="cls-4" d="M419.18,494H180.82a3.89,3.89,0,0,1-2.7-1.09L140.18,456.2a3.9,3.9,0,0,1-1.18-2.79V185.9a3.89,3.89,0,0,1,3.9-3.89H457.1a3.89,3.89,0,0,1,3.9,3.89V453.41a3.9,3.9,0,0,1-1.18,2.79l-37.94,36.72A3.89,3.89,0,0,1,419.18,494Z"/><path class="cls-5" d="M457.1,182H382.85L217.15,494h202a3.89,3.89,0,0,0,2.7-1.09l37.94-36.72a3.9,3.9,0,0,0,1.18-2.79V185.9A3.89,3.89,0,0,0,457.1,182Z"/><rect class="cls-6" x="318.51" y="486" width="88" height="17" rx="3"/><path class="cls-7" d="M321.51,486a3,3,0,0,0-3,3v11a3,3,0,0,0,3,3H358l9-17Z"/><rect class="cls-6" x="318.51" y="464" width="88" height="17" rx="3"/><path class="cls-8" d="M321.51,464a3,3,0,0,0-3,3v11a3,3,0,0,0,3,3H358l9-17Z"/><rect class="cls-6" x="318.51" y="442" width="88" height="17" rx="3"/><path class="cls-9" d="M321.51,442a3,3,0,0,0-3,3v11a3,3,0,0,0,3,3H358l9-17Z"/><rect class="cls-6" x="220.51" y="464" width="88" height="17" rx="3"/><path class="cls-10" d="M223.51,464a3,3,0,0,0-3,3v11a3,3,0,0,0,3,3H260l9-17Z"/><rect class="cls-6" x="220.51" y="442" width="88" height="17" rx="3"/><path class="cls-11" d="M223.51,442a3,3,0,0,0-3,3v11a3,3,0,0,0,3,3H260l9-17Z"/><rect class="cls-6" x="220.51" y="420" width="88" height="17" rx="3"/><path class="cls-12" d="M223.51,420a3,3,0,0,0-3,3v11a3,3,0,0,0,3,3H260l9-17Z"/><rect class="cls-6" x="318.51" y="420" width="88" height="17" rx="3"/><path class="cls-13" d="M321.51,420a3,3,0,0,0-3,3v11a3,3,0,0,0,3,3H358l9-17Z"/><rect class="cls-6" x="318.51" y="398" width="88" height="17" rx="3"/><path class="cls-14" d="M321.51,398a3,3,0,0,0-3,3v11a3,3,0,0,0,3,3H358l9-17Z"/><rect class="cls-6" x="318.51" y="376" width="88" height="17" rx="3"/><path class="cls-15" d="M321.51,376a3,3,0,0,0-3,3v11a3,3,0,0,0,3,3H358l9-17Z"/><rect class="cls-6" x="220.51" y="486" width="88" height="17" rx="3"/><path class="cls-16" d="M223.51,486a3,3,0,0,0-3,3v11a3,3,0,0,0,3,3H260l9-17Z"/><path class="cls-6" d="M501,452.78a60,60,0,1,1-60-60h0a60,60,0,0,1,60,60v0"/><path class="cls-17" d="M420.16,450.52H412v-6.16h8.91c2.48-13.89,11.13-20.23,21.14-20.23,10.58,0,16.18,5.43,18.94,12.23l-7.79,4.41c-1.93-5.79-5.33-8.55-11.12-8.55-6.16,0-10.57,3.95-12.13,12.14h13.88v6.16H429.28v1.93c0,1.1,0,2.2.1,3.22H443.9v6.25H430.12c1.56,7.63,5.39,11.58,12.13,11.58,5.79,0,9.28-2.57,11.38-9l7.62,4.6c-3.12,7.18-9.58,12.32-19.11,12.32-10.39,0-18.57-6.16-21.14-19.49h-9v-6.25h8.27c-.09-1-.09-2-.09-3v-2.11Z"/><path class="cls-18" d="M441,392.75a59.94,59.94,0,0,0-28.11,112.89l56.3-105.88A59.91,59.91,0,0,0,441,392.75Z"/><rect class="cls-19" width="600" height="600"/></svg>