<svg xmlns="http://www.w3.org/2000/svg" xmlns:xlink="http://www.w3.org/1999/xlink" viewBox="0 0 600 600"><defs><style>.cls-1{fill:none;}.cls-2{fill:url(#Degradado_sin_nombre_32);}.cls-3{fill:#1464a5;}.cls-4{fill:url(#Degradado_sin_nombre_7);}.cls-5{fill:#5bb4ff;}.cls-6{fill:#f8cd50;}</style><linearGradient id="Degradado_sin_nombre_32" x1="181.84" y1="30.98" x2="457.02" y2="548.52" gradientUnits="userSpaceOnUse"><stop offset="0" stop-color="#192647" stop-opacity="0.5"/><stop offset="1" stop-color="#192647" stop-opacity="0"/></linearGradient><linearGradient id="Degradado_sin_nombre_7" x1="472.22" y1="3423.82" x2="219.39" y2="3423.82" gradientTransform="matrix(1, 0, 0, -1, 0, 3734)" gradientUnits="userSpaceOnUse"><stop offset="0" stop-color="#043263"/><stop offset="1" stop-color="#043263" stop-opacity="0"/></linearGradient></defs><title>15</title><g id="Cuadrados_Blancos" data-name="Cuadrados Blancos"><rect class="cls-1" width="600" height="600"/></g><g id="Capa_29" data-name="Capa 29"><circle class="cls-2" cx="352" cy="351" r="172"/><circle class="cls-3" cx="300" cy="300" r="172"/><path class="cls-4" d="M380.91,148.19,219.39,452A172,172,0,0,0,380.91,148.19Z"/><circle class="cls-5" cx="300" cy="267.31" r="43.2"/><path class="cls-5" d="M262.67,321h74.66a35.77,35.77,0,0,1,35.77,35.75v31.64a3,3,0,0,1-3,3H229.9a3,3,0,0,1-3-3V356.77A35.77,35.77,0,0,1,262.67,321Z"/><path class="cls-6" d="M246.29,245.05a5,5,0,0,1-5-5V213.59a5,5,0,0,1,5-5h26.45a5,5,0,0,1,0,10H251.29v21.46A5,5,0,0,1,246.29,245.05Z"/><path class="cls-6" d="M353.71,245.05a5,5,0,0,1-5-5V218.59H327.26a5,5,0,0,1,0-10h26.45a5,5,0,0,1,5,5v26.46a5,5,0,0,1-5,5Z"/><path class="cls-6" d="M353.71,326H327.26a5,5,0,0,1,0-10h21.45V294.57a5,5,0,0,1,10,0V321a5,5,0,0,1-5,5Z"/><path class="cls-6" d="M272.74,326H246.29a5,5,0,0,1-5-5V294.57a5,5,0,0,1,10,0V316h21.45a5,5,0,0,1,0,10Z"/></g></svg>