<svg xmlns="http://www.w3.org/2000/svg" xmlns:xlink="http://www.w3.org/1999/xlink" viewBox="0 0 600 600"><defs><style>.cls-1{fill:none;}.cls-2{fill:url(#Degradado_sin_nombre_231);}.cls-3{fill:#043263;}.cls-4{fill:url(#Degradado_sin_nombre_446);}.cls-5{fill:#2dcccd;}</style><linearGradient id="Degradado_sin_nombre_231" x1="269.23" y1="-3092.1" x2="430.77" y2="-3395.9" gradientTransform="matrix(1, 0, 0, -1, 0, -2894)" gradientUnits="userSpaceOnUse"><stop offset="0" stop-color="#192647" stop-opacity="0.5"/><stop offset="1" stop-color="#192647" stop-opacity="0"/></linearGradient><linearGradient id="Degradado_sin_nombre_446" x1="472.22" y1="-3204.18" x2="219.39" y2="-3204.18" gradientTransform="matrix(1, 0, 0, -1, 0, -2894)" gradientUnits="userSpaceOnUse"><stop offset="0" stop-color="#072146"/><stop offset="1" stop-color="#072146" stop-opacity="0"/></linearGradient></defs><title>13</title><g id="Cuadrados_Blancos" data-name="Cuadrados Blancos"><rect class="cls-1" width="600" height="600"/></g><g id="Capa_15" data-name="Capa 15"><circle class="cls-2" cx="350" cy="350" r="172"/><circle class="cls-3" cx="300" cy="300" r="172"/><path class="cls-4" d="M380.91,148.19,219.39,452A172,172,0,0,0,380.91,148.19Z"/><path class="cls-5" d="M342.58,242h0a14.69,14.69,0,0,1,3.22,20.53l-68.53,94.09a14.7,14.7,0,0,1-20.54,3.23h0a14.69,14.69,0,0,1-3.22-20.53L322,245.25A14.71,14.71,0,0,1,342.58,242Z"/><path class="cls-5" d="M298.54,227.76h0a14.7,14.7,0,0,1,3.22,20.54l-17.13,23.51A14.69,14.69,0,0,1,264.1,275h0a14.69,14.69,0,0,1-3.22-20.53L278,231A14.69,14.69,0,0,1,298.54,227.76Z"/><circle class="cls-5" cx="246.67" cy="225.17" r="14.66" transform="translate(-15.1 432.59) rotate(-80.78)"/><path class="cls-5" d="M301.23,373.08h0A14.67,14.67,0,0,1,298,352.59l17.07-23.48a14.66,14.66,0,0,1,20.48-3.25h0a14.67,14.67,0,0,1,3.25,20.49l-17.07,23.48A14.67,14.67,0,0,1,301.23,373.08Z"/><circle class="cls-5" cx="353.33" cy="374.83" r="14.66"/></g></svg>