<svg id="Contenido" xmlns="http://www.w3.org/2000/svg" xmlns:xlink="http://www.w3.org/1999/xlink" viewBox="0 0 600 600"><defs><style>.cls-1{fill:url(#Degradado_sin_nombre_7);}.cls-2{fill:#1464a5;}.cls-3{fill:url(#Degradado_sin_nombre_2);}.cls-4{fill:#2dcccd;}</style><linearGradient id="Degradado_sin_nombre_7" x1="291.16" y1="188.33" x2="408.84" y2="511.67" gradientUnits="userSpaceOnUse"><stop offset="0" stop-color="#192647"/><stop offset="0" stop-color="#192647" stop-opacity="0.5"/><stop offset="1" stop-color="#192647" stop-opacity="0"/></linearGradient><linearGradient id="Degradado_sin_nombre_2" x1="472" y1="310.1" x2="219.39" y2="310.1" gradientUnits="userSpaceOnUse"><stop offset="0" stop-color="#043263" stop-opacity="0.6"/><stop offset="1" stop-color="#043263" stop-opacity="0"/></linearGradient></defs><title>GLOMO</title><circle class="cls-1" cx="350" cy="350" r="172"/><circle class="cls-2" cx="300" cy="300" r="172"/><path class="cls-3" d="M380.91,148.19,219.39,452A172,172,0,0,0,380.91,148.19Z"/><rect class="cls-4" x="285.33" y="227.25" width="29.33" height="145.5" rx="14.67" transform="matrix(0.81, 0.59, -0.59, 0.81, 233.66, -119.05)"/><rect class="cls-4" x="266.91" y="221.35" width="29.33" height="58.37" rx="14.67" transform="matrix(0.81, 0.59, -0.59, 0.81, 201.06, -117.66)"/><circle class="cls-4" cx="246.67" cy="225.17" r="14.66"/><rect class="cls-4" x="303.76" y="320.28" width="29.33" height="58.37" rx="14.67" transform="translate(370.59 819.36) rotate(-144)"/><circle class="cls-4" cx="353.33" cy="374.83" r="14.66"/></svg>