<svg id="a8569f4e-4109-44dd-af97-4a70e31d13d1" data-name="Capa 1" xmlns="http://www.w3.org/2000/svg" xmlns:xlink="http://www.w3.org/1999/xlink" viewBox="0 0 600 600"><defs><style>.a3d350d6-f8d3-4b33-95ec-e9d86e096ac2{fill:none;}.f9bf9d0e-f417-4152-9734-ec9d3ff3bb93{fill:url(#e092708a-616c-40d2-a8c5-77f498832d61);}.be2945bd-8036-4f14-9f89-10ced095f9bf{fill:#043263;}.e6ba084f-26c5-49aa-97b2-51cd6a69c078{fill:url(#bfa9fc8b-95c9-47eb-a21d-2aa0b7662094);}.a79311da-5fc5-4ca5-9c40-a83a175d4d8c{fill:#2dcccd;}.b6b21bce-7a16-4cc9-a60e-ef7406df91a4{fill:url(#ac52d8a4-7234-4881-bcb7-bdec0440ac4b);}.a8876428-0fa7-479f-8133-89d7105d4fea{font-size:69.03px;fill:#fff;font-family:BentonSansBBVA-Bold, Benton Sans BBVA;font-weight:700;letter-spacing:0.01em;}.abfffe92-26cc-4afe-826f-fb4b37e74a8c{letter-spacing:-0.03em;}.f9d1c850-f9ee-47b3-aaf5-c67a45bad717{letter-spacing:0.01em;}.ae42542d-1bfb-4f21-b102-f2272366bccb{letter-spacing:0em;}.addb8f65-9d19-40a0-9465-9aa8508e5675{letter-spacing:-0.08em;}.a9368013-5fd0-4b44-a116-a70166a34821{letter-spacing:-0.03em;}</style><linearGradient id="e092708a-616c-40d2-a8c5-77f498832d61" x1="262.87" y1="180.94" x2="439.5" y2="513.14" gradientUnits="userSpaceOnUse"><stop offset="0" stop-color="#1c2645" stop-opacity="0.5"/><stop offset="1" stop-color="#1c2645" stop-opacity="0"/></linearGradient><linearGradient id="bfa9fc8b-95c9-47eb-a21d-2aa0b7662094" x1="518.94" y1="304.51" x2="232.26" y2="304.51" gradientUnits="userSpaceOnUse"><stop offset="0.01" stop-color="#072146" stop-opacity="0.6"/><stop offset="0.99" stop-color="#072146" stop-opacity="0"/></linearGradient><linearGradient id="ac52d8a4-7234-4881-bcb7-bdec0440ac4b" x1="477.2" y1="213.06" x2="436.45" y2="213.06" gradientUnits="userSpaceOnUse"><stop offset="0.02" stop-color="#028484" stop-opacity="0.3"/><stop offset="0.99" stop-color="#028484" stop-opacity="0.1"/></linearGradient></defs><rect class="a3d350d6-f8d3-4b33-95ec-e9d86e096ac2" width="600" height="600"/><rect class="a3d350d6-f8d3-4b33-95ec-e9d86e096ac2" width="600" height="600"/><path class="f9bf9d0e-f417-4152-9734-ec9d3ff3bb93" d="M529.94,213.42,414.26,184.57a26.67,26.67,0,0,0-20.16,3L122.1,351A26.63,26.63,0,0,0,113,387.55l86.85,144.53a26.61,26.61,0,0,0,36.53,9.11l272-163.43a26.65,26.65,0,0,0,12.12-16.38l28.84-115.69A26.61,26.61,0,0,0,529.94,213.42Zm-40.71,65.83a16.64,16.64,0,1,1,5.7-22.83A16.63,16.63,0,0,1,489.23,279.25Z"/><path class="be2945bd-8036-4f14-9f89-10ced095f9bf" d="M498.75,159.86,383.06,131a26.59,26.59,0,0,0-20.15,3l-272,163.43A26.62,26.62,0,0,0,81.8,334l86.84,144.53a26.61,26.61,0,0,0,36.53,9.1l272-163.43a26.58,26.58,0,0,0,12.12-16.38l28.85-115.69A26.63,26.63,0,0,0,498.75,159.86ZM458,225.7a16.64,16.64,0,1,1,5.69-22.84A16.65,16.65,0,0,1,458,225.7Z"/><path class="e6ba084f-26c5-49aa-97b2-51cd6a69c078" d="M498.75,159.86l-89.06-22.2L232.26,471.36,477.17,324.2a26.58,26.58,0,0,0,12.12-16.38l28.85-115.69A26.63,26.63,0,0,0,498.75,159.86ZM458,225.7a16.64,16.64,0,1,1,5.69-22.84A16.65,16.65,0,0,1,458,225.7Z"/><path class="a79311da-5fc5-4ca5-9c40-a83a175d4d8c" d="M473.23,197.15a27.73,27.73,0,1,0-9.48,38A27.72,27.72,0,0,0,473.23,197.15ZM458,225.7a16.64,16.64,0,1,1,5.69-22.84A16.65,16.65,0,0,1,458,225.7Z"/><path class="b6b21bce-7a16-4cc9-a60e-ef7406df91a4" d="M473.23,197.15A27.54,27.54,0,0,0,462.49,187l-5.22,9.81a16.48,16.48,0,0,1,6.46,6.1,16.63,16.63,0,0,1-22.07,23.25l-5.21,9.81a27.73,27.73,0,0,0,36.78-38.77Z"/><text class="a8876428-0fa7-479f-8133-89d7105d4fea" transform="translate(165.45 375.31) rotate(-31.5)">BL<tspan class="abfffe92-26cc-4afe-826f-fb4b37e74a8c" x="91.05" y="0">A</tspan><tspan class="f9d1c850-f9ee-47b3-aaf5-c67a45bad717" x="138.2" y="0">C</tspan><tspan class="ae42542d-1bfb-4f21-b102-f2272366bccb" x="188.52" y="0">K</tspan><tspan x="0" y="69.26">FRI</tspan><tspan class="abfffe92-26cc-4afe-826f-fb4b37e74a8c" x="114.45" y="69.26">D</tspan><tspan class="addb8f65-9d19-40a0-9465-9aa8508e5675" x="163.46" y="69.26">A</tspan><tspan class="a9368013-5fd0-4b44-a116-a70166a34821" x="207.16" y="69.26">Y</tspan></text></svg>