<svg id="e367d223-d27a-480a-9037-024da1e4ee29" data-name="Capa 1" xmlns="http://www.w3.org/2000/svg" xmlns:xlink="http://www.w3.org/1999/xlink" viewBox="0 0 600 600"><defs><style>.ee80d663-571a-4677-bfe3-c94d89e7aa41{fill:none;}.a0c074de-aaa4-4da1-80f8-5a8650a0d3cc{fill:url(#a078d3bb-42d9-4ee1-9bc7-e38a9b388b87);}.bb4f5228-87a9-4012-be39-ae35214c27bd{fill:#1464a5;}.b6445536-c2df-447f-88ce-cdc9cb5a6d46{fill:url(#bfe63192-cd4c-477f-98eb-7bb47569c020);}.ad109278-1305-4260-8535-cd6be6783748{fill:#2dcccd;}.aab606c0-c90f-4e41-987c-d9a927239f6a{fill:url(#f8421f42-2ea9-4e15-a63e-4e981e7a6bc5);}.b060fe00-fbe5-41a4-8a37-0fd21bb725bd{font-size:69.03px;fill:#fff;font-family:BentonSansBBVA-Bold, Benton Sans BBVA;font-weight:700;letter-spacing:0.01em;}.b2794cdd-a4b5-4b99-b6a6-00f942e07225{letter-spacing:-0.03em;}.a4a62d42-5eb1-44c0-abf6-44c5b1d95e54{letter-spacing:0.01em;}.f9f5dfcd-5968-4aa1-9781-9e261e084817{letter-spacing:0em;}.bf5c68c0-8761-4753-8c01-40b697573471{letter-spacing:-0.08em;}.f1749120-830d-48b3-8c04-bf1b40bc6ccf{letter-spacing:-0.03em;}</style><linearGradient id="a078d3bb-42d9-4ee1-9bc7-e38a9b388b87" x1="262.87" y1="180.94" x2="439.5" y2="513.14" gradientUnits="userSpaceOnUse"><stop offset="0" stop-color="#1c2645" stop-opacity="0.5"/><stop offset="1" stop-color="#1c2645" stop-opacity="0"/></linearGradient><linearGradient id="bfe63192-cd4c-477f-98eb-7bb47569c020" x1="518.94" y1="304.51" x2="232.26" y2="304.51" gradientUnits="userSpaceOnUse"><stop offset="0.01" stop-color="#043263" stop-opacity="0.6"/><stop offset="0.99" stop-color="#043263" stop-opacity="0"/></linearGradient><linearGradient id="f8421f42-2ea9-4e15-a63e-4e981e7a6bc5" x1="477.2" y1="213.06" x2="436.45" y2="213.06" gradientUnits="userSpaceOnUse"><stop offset="0.02" stop-color="#028484" stop-opacity="0.3"/><stop offset="0.99" stop-color="#028484" stop-opacity="0.1"/></linearGradient></defs><rect class="ee80d663-571a-4677-bfe3-c94d89e7aa41" width="600" height="600"/><rect class="ee80d663-571a-4677-bfe3-c94d89e7aa41" width="600" height="600"/><path class="a0c074de-aaa4-4da1-80f8-5a8650a0d3cc" d="M529.94,213.42,414.26,184.57a26.67,26.67,0,0,0-20.16,3L122.1,351A26.63,26.63,0,0,0,113,387.55l86.85,144.53a26.61,26.61,0,0,0,36.53,9.11l272-163.43a26.65,26.65,0,0,0,12.12-16.38l28.84-115.69A26.61,26.61,0,0,0,529.94,213.42Zm-40.71,65.83a16.64,16.64,0,1,1,5.7-22.83A16.63,16.63,0,0,1,489.23,279.25Z"/><path class="bb4f5228-87a9-4012-be39-ae35214c27bd" d="M498.75,159.86,383.06,131a26.59,26.59,0,0,0-20.15,3l-272,163.43A26.62,26.62,0,0,0,81.8,334l86.84,144.53a26.61,26.61,0,0,0,36.53,9.1l272-163.43a26.58,26.58,0,0,0,12.12-16.38l28.85-115.69A26.63,26.63,0,0,0,498.75,159.86ZM458,225.7a16.64,16.64,0,1,1,5.69-22.84A16.65,16.65,0,0,1,458,225.7Z"/><path class="b6445536-c2df-447f-88ce-cdc9cb5a6d46" d="M498.75,159.86l-89.06-22.2L232.26,471.36,477.17,324.2a26.58,26.58,0,0,0,12.12-16.38l28.85-115.69A26.63,26.63,0,0,0,498.75,159.86ZM458,225.7a16.64,16.64,0,1,1,5.69-22.84A16.65,16.65,0,0,1,458,225.7Z"/><path class="ad109278-1305-4260-8535-cd6be6783748" d="M473.23,197.15a27.73,27.73,0,1,0-9.48,38A27.72,27.72,0,0,0,473.23,197.15ZM458,225.7a16.64,16.64,0,1,1,5.69-22.84A16.65,16.65,0,0,1,458,225.7Z"/><path class="aab606c0-c90f-4e41-987c-d9a927239f6a" d="M473.23,197.15A27.54,27.54,0,0,0,462.49,187l-5.22,9.81a16.48,16.48,0,0,1,6.46,6.1,16.63,16.63,0,0,1-22.07,23.25l-5.21,9.81a27.73,27.73,0,0,0,36.78-38.77Z"/><text class="b060fe00-fbe5-41a4-8a37-0fd21bb725bd" transform="translate(165.45 375.31) rotate(-31.5)">BL<tspan class="b2794cdd-a4b5-4b99-b6a6-00f942e07225" x="91.05" y="0">A</tspan><tspan class="a4a62d42-5eb1-44c0-abf6-44c5b1d95e54" x="138.2" y="0">C</tspan><tspan class="f9f5dfcd-5968-4aa1-9781-9e261e084817" x="188.52" y="0">K</tspan><tspan x="0" y="69.26">FRI</tspan><tspan class="b2794cdd-a4b5-4b99-b6a6-00f942e07225" x="114.45" y="69.26">D</tspan><tspan class="bf5c68c0-8761-4753-8c01-40b697573471" x="163.46" y="69.26">A</tspan><tspan class="f1749120-830d-48b3-8c04-bf1b40bc6ccf" x="207.16" y="69.26">Y</tspan></text></svg>