<svg xmlns="http://www.w3.org/2000/svg" xmlns:xlink="http://www.w3.org/1999/xlink" viewBox="0 0 600 600"><defs><style>.cls-1{fill:none;}.cls-2{fill:url(#Degradado_sin_nombre_55);}.cls-3{fill:#004481;}.cls-4{fill:#49a5e6;}.cls-5{fill:#043263;}.cls-6{fill:#2dcccd;}</style><linearGradient id="Degradado_sin_nombre_55" x1="218.31" y1="-2852.63" x2="433.83" y2="-3257.96" gradientTransform="matrix(1, 0, 0, -1, 0, -2726)" gradientUnits="userSpaceOnUse"><stop offset="0" stop-color="#192647" stop-opacity="0.5"/><stop offset="1" stop-color="#192647" stop-opacity="0"/></linearGradient></defs><title>5</title><g id="Cuadrados_blancos" data-name="Cuadrados blancos"><rect class="cls-1" width="600" height="600"/></g><g id="Capa_5" data-name="Capa 5"><path class="cls-2" d="M574.89,321.43l-34.17-19.72-32.88-19h0L443.37,320a3,3,0,0,0-1.09-1.1h0L410.1,300.27V225.65l-.26-.14h0l-67.55-39-67.54,39,.25.14h0v74.57l-32.28,18.63a3,3,0,0,0-1.09,1.1l-64.47-37.22h0l-24.54,14.16-42.5,24.54h0V399l67,38.71v-.13l64.44-37.2,33.07,19.52a3.89,3.89,0,0,0,.51.21v74.22L342.24,533v-.16l.27.16,67-38.71V419.87h0a2.9,2.9,0,0,0,1.52-.42l32.34-19.09,64.43,37.2,67.05-38.71V321.43ZM244.22,395V324.41h0a3,3,0,0,0,1.49-.4L278,305.38l62.29,36v.1l-.38,38.26L318,392.35l-39.65,22.89a3.2,3.2,0,0,0-.61-.49ZM408,414.33a3,3,0,0,0-1,1.07l-61.14-35.3.39-38.6a3.36,3.36,0,0,0-.13-.89l-3.54,2,64.52-37.24L439.3,324a3,3,0,0,0,1.49.4h0V395Z"/><polygon class="cls-3" points="232.96 357.13 232.96 434.55 300 473.25 367.05 434.55 367.05 357.13 300 318.42 232.96 357.13"/><polygon class="cls-4" points="232.96 357.13 300 395.83 367.05 357.13 300 318.42 232.96 357.13"/><polygon class="cls-3" points="232.5 165.88 232.5 243.88 300.05 282.88 367.6 243.88 367.6 165.88 300.05 126.89 232.5 165.88"/><polygon class="cls-4" points="232.25 165.74 299.8 204.74 367.33 165.74 299.8 126.75 232.25 165.74"/><polygon class="cls-3" points="67.61 261.67 67.61 339.08 134.66 377.8 201.72 339.08 201.72 261.67 134.66 222.96 67.61 261.67"/><polygon class="cls-5" points="67.61 339.21 134.66 377.93 134.66 300.5 67.61 261.8 67.61 339.21"/><polygon class="cls-5" points="232.69 434.55 299.74 473.25 299.74 395.83 232.69 357.13 232.69 434.55"/><polygon class="cls-5" points="232.5 243.9 299.8 282.75 299.8 204.74 232.5 165.88 232.5 243.9"/><polygon class="cls-4" points="67.61 261.67 134.66 300.38 201.72 261.67 134.66 222.96 67.61 261.67"/><polygon class="cls-3" points="398.29 261.67 398.29 339.08 465.33 377.8 532.38 339.08 532.38 261.67 465.33 222.96 398.29 261.67"/><path class="cls-4" d="M465.33,300.37l-67.05-38.7L465.33,223l67,38.71Z"/><polygon class="cls-5" points="398.29 339.08 465.33 377.8 465.33 300.38 398.29 261.67 398.29 339.08"/><path class="cls-6" d="M398.28,261.67h0l2.58-1.48a2.88,2.88,0,0,0-1.09-1.1h0l-65.12-37.61a2.94,2.94,0,0,0-2.26-.31,3,3,0,0,0-.72,5.47l65.13,37.6a3.07,3.07,0,0,0,1.48.4h0Z"/><path class="cls-6" d="M300.05,282.87l-2.3-1.32v.12L297,355.09a3,3,0,0,0,2.94,3h0a3,3,0,0,0,3-2.95l.73-73.41a2.49,2.49,0,0,0-.13-.9Z"/><path class="cls-6" d="M269.43,222.58a3,3,0,0,0-4.07-1.09l-65.14,37.6a2.92,2.92,0,0,0-1.08,1.1l2.57,1.48v3h0a3.25,3.25,0,0,0,1.48-.4l65.14-37.6a3,3,0,0,0,1.09-4.07Z"/><path class="cls-6" d="M235.81,355.48a2,2,0,0,0-.62-.49l-65.1-38.43a3,3,0,1,0-3,5.12l65.11,38.43a2.62,2.62,0,0,0,.78.32v-3.31Z"/><path class="cls-6" d="M434,317.61a3,3,0,0,0-1.83-1.37,2.86,2.86,0,0,0-2.25.32l-64.37,38a2.85,2.85,0,0,0-1.07,1.08l2.58,1.48v3h0a2.89,2.89,0,0,0,1.51-.42l64.37-38a2.91,2.91,0,0,0,1.37-1.82A3,3,0,0,0,434,317.61Z"/></g></svg>