<svg id="Contenido" xmlns="http://www.w3.org/2000/svg" xmlns:xlink="http://www.w3.org/1999/xlink" viewBox="0 0 600 600"><defs><style>.cls-1{fill:url(#Degradado_sin_nombre_4);}.cls-2{fill:#004481;}.cls-3{fill:#49a5e6;}.cls-4{fill:#1464a5;}.cls-5{fill:#2dcccd;}</style><linearGradient id="Degradado_sin_nombre_4" x1="214.31" y1="121.63" x2="429.83" y2="526.96" gradientUnits="userSpaceOnUse"><stop offset="0" stop-color="#192647" stop-opacity="0.5"/><stop offset="1" stop-color="#192647" stop-opacity="0"/></linearGradient></defs><title>vacantes</title><path class="cls-1" d="M570.89,316.43l-34.17-19.72-32.88-19h0L439.37,315a3,3,0,0,0-1.09-1.1h0L406.1,295.27V220.65l-.26-.14h0l-67.55-39-67.54,39,.25.14h0v74.57l-32.28,18.63a3,3,0,0,0-1.09,1.1l-64.47-37.22h0l-24.54,14.16-42.5,24.54h0V394l67,38.71v-.13l64.44-37.2,33.07,19.52a3.22,3.22,0,0,0,.51.21v74.22L338.24,528v-.16l.27.16,67-38.71V414.87h0a2.9,2.9,0,0,0,1.52-.42l32.34-19.09,64.43,37.2,67.05-38.71V316.43Zm-134.09,0ZM240.22,390V319.41h0a3,3,0,0,0,1.49-.4L274,300.38l62.29,36a.34.34,0,0,0,0,.1l-.38,38.26L314,387.35l-39.65,22.89a2.92,2.92,0,0,0-.61-.49ZM404,409.33A3,3,0,0,0,403,410.4l-61.14-35.3.39-38.6a3.24,3.24,0,0,0-.13-.89l-3.54,2,64.52-37.24L435.3,319a3,3,0,0,0,1.49.4h0V390Z"/><polygon class="cls-2" points="230.45 352.65 230.45 430.07 297.49 468.78 364.54 430.07 364.54 352.65 297.49 313.94 230.45 352.65"/><polygon class="cls-3" points="230.45 352.65 297.49 391.36 364.54 352.65 297.49 313.94 230.45 352.65"/><polygon class="cls-2" points="230 161.41 230 239.41 297.54 278.4 365.09 239.41 365.09 161.41 297.54 122.42 230 161.41"/><polygon class="cls-3" points="229.74 161.26 297.29 200.26 364.83 161.26 297.29 122.27 229.74 161.26"/><polygon class="cls-2" points="65.11 257.19 65.11 334.61 132.16 373.32 199.21 334.61 199.21 257.19 132.16 218.48 65.11 257.19"/><polygon class="cls-4" points="65.11 334.74 132.16 373.45 132.16 296.03 65.11 257.32 65.11 334.74"/><polygon class="cls-4" points="230.18 430.07 297.23 468.78 297.23 391.36 230.18 352.65 230.18 430.07"/><polygon class="cls-4" points="230 239.42 297.29 278.27 297.29 200.26 230 161.41 230 239.42"/><polygon class="cls-3" points="65.11 257.19 132.16 295.9 199.21 257.19 132.16 218.48 65.11 257.19"/><polygon class="cls-2" points="395.78 257.19 395.78 334.61 462.83 373.32 529.88 334.61 529.88 257.19 462.83 218.48 395.78 257.19"/><path class="cls-3" d="M462.83,295.9l-67.05-38.71,67.05-38.71,67,38.71Z"/><polygon class="cls-4" points="395.78 334.61 462.83 373.32 462.83 295.9 395.78 257.19 395.78 334.61"/><path class="cls-5" d="M395.78,257.19h0l2.58-1.48a3,3,0,0,0-1.09-1.1h0L332.14,217a2.93,2.93,0,0,0-2.26-.3,3,3,0,0,0-.72,5.46l65.13,37.6a3,3,0,0,0,1.49.4h0Z"/><path class="cls-5" d="M297.54,278.4l-2.29-1.32v.12l-.73,73.42a3,3,0,0,0,2.94,3h0a3,3,0,0,0,3-2.95l.73-73.42a2.73,2.73,0,0,0-.13-.9Z"/><path class="cls-5" d="M266.92,218.1a3,3,0,0,0-4.07-1.09l-65.13,37.6a3,3,0,0,0-1.09,1.1l2.57,1.48v3h0a3,3,0,0,0,1.48-.4l65.14-37.6a3,3,0,0,0,1.09-4.07Z"/><path class="cls-5" d="M233.31,351a2.49,2.49,0,0,0-.62-.49l-65.1-38.43a3,3,0,0,0-4.08,1.05,3,3,0,0,0,1.05,4.08l65.11,38.43a3,3,0,0,0,.78.32v-3.31Z"/><path class="cls-5" d="M431.48,313.13a2.94,2.94,0,0,0-1.83-1.37,2.91,2.91,0,0,0-2.25.32l-64.37,38a3,3,0,0,0-1.07,1.08l2.58,1.49v3h0a3,3,0,0,0,1.51-.42l64.37-38a2.9,2.9,0,0,0,1.37-1.82A3,3,0,0,0,431.48,313.13Z"/></svg>