<svg id="Capa_1" data-name="Capa 1" xmlns="http://www.w3.org/2000/svg" xmlns:xlink="http://www.w3.org/1999/xlink" viewBox="0 0 600 600"><defs><style>.cls-1{fill:none;}.cls-2{fill:url(#Degradado_sin_nombre_9);}.cls-3{fill:#1464a5;}.cls-4{fill:#49a5e6;}.cls-5{opacity:0.5;isolation:isolate;fill:url(#Degradado_sin_nombre_2);}.cls-6{fill:#08467f;}.cls-7{fill:#00d0cf;}</style><linearGradient id="Degradado_sin_nombre_9" x1="247.58" y1="1728.88" x2="460.72" y2="2129.75" gradientTransform="translate(0 -1576.8)" gradientUnits="userSpaceOnUse"><stop offset="0" stop-color="#072146" stop-opacity="0.5"/><stop offset="1" stop-color="#072146" stop-opacity="0"/></linearGradient><linearGradient id="Degradado_sin_nombre_2" x1="215.57" y1="1792.46" x2="369.86" y2="1946.75" gradientTransform="translate(0 -1576.8)" gradientUnits="userSpaceOnUse"><stop offset="0" stop-color="#fff" stop-opacity="0.5"/><stop offset="1" stop-color="#ecf7f8" stop-opacity="0.1"/></linearGradient></defs><rect class="cls-1" width="600" height="600"/><rect class="cls-1" width="600" height="600"/><path class="cls-2" d="M261.1,147.9H447.2a22.3,22.3,0,0,1,22.3,22.3V534.9a22.3,22.3,0,0,1-22.3,22.3H261.1a22.3,22.3,0,0,1-22.3-22.3V170.2A22.3,22.3,0,0,1,261.1,147.9Z"/><path class="cls-3" d="M207.5,96.9H392.4A22.1,22.1,0,0,1,414.5,119V481a22.1,22.1,0,0,1-22.1,22.1H207.5A22.1,22.1,0,0,1,185.4,481V119a22.1,22.1,0,0,1,22.1-22.2h0Z"/><rect class="cls-4" x="185.4" y="147.9" width="229.2" height="304.3"/><polygon class="cls-5" points="185.4 147.8 185.4 452.1 302.1 452.1 414.2 244.9 414.2 147.7 185.4 147.8"/><circle class="cls-6" cx="299.9" cy="300" r="61.1"/><path class="cls-7" d="M323,313l-16.5-13L323,287.1a3.9,3.9,0,0,0,.7-5.6h0a2.7,2.7,0,0,0-.7-.8l-20.6-16.1a4,4,0,0,0-5.6.6,4.1,4.1,0,0,0-.9,2.6v24l-14.1-11a4.1,4.1,0,0,0-5.7.6,4,4,0,0,0,.7,5.7L293.4,300l-16.6,13a4.1,4.1,0,0,0-.6,5.7,4,4,0,0,0,5.6.6l14.1-11v24a4,4,0,0,0,3.9,4.1,3.9,3.9,0,0,0,2.6-.9L323,319.3a3.9,3.9,0,0,0,.7-5.6h0l-.7-.7Zm-19.1-36.9,10,7.8-10,7.9Zm0,47.9V308.3l10,7.8Z"/></svg>