<svg id="Capa_1" data-name="Capa 1" xmlns="http://www.w3.org/2000/svg" xmlns:xlink="http://www.w3.org/1999/xlink" viewBox="0 0 600 600"><defs><style>.cls-1{fill:url(#Degradado_sin_nombre);}.cls-2{fill:#043263;}.cls-3{fill:#004481;}.cls-4{fill:#49a5e6;}.cls-5{fill:#eaf9fa;}.cls-6{fill:#39cbcb;}.cls-7{fill:#e85f65;}.cls-8{fill:#d6bc7a;}.cls-9{fill:url(#Degradado_sin_nombre_19);}.cls-10{fill:url(#Degradado_sin_nombre_16);}.cls-11{fill:url(#Degradado_sin_nombre_4);}.cls-12{opacity:0.76;fill:url(#Degradado_sin_nombre_9);}.cls-12,.cls-14{isolation:isolate;}.cls-13{fill:#1464a5;}.cls-14{opacity:0.5;fill:url(#Degradado_sin_nombre_10);}.cls-15{fill:#08467f;}.cls-16{fill:#00d0cf;}</style><linearGradient id="Degradado_sin_nombre" x1="212.88" y1="1208.52" x2="440.31" y2="1636.26" gradientTransform="translate(0 -1098.8)" gradientUnits="userSpaceOnUse"><stop offset="0" stop-color="#192647" stop-opacity="0.5"/><stop offset="1" stop-color="#192647" stop-opacity="0"/></linearGradient><linearGradient id="Degradado_sin_nombre_19" x1="2489.23" y1="-1058.94" x2="2472.56" y2="-1042.27" gradientTransform="matrix(-1, 0, 0, 1, 2810.37, 1445.44)" gradientUnits="userSpaceOnUse"><stop offset="0" stop-color="#eaf9fa" stop-opacity="0.5"/><stop offset="1" stop-color="#e9f8f9" stop-opacity="0"/></linearGradient><linearGradient id="Degradado_sin_nombre_16" x1="2448.71" y1="-1058.95" x2="2432.04" y2="-1042.28" xlink:href="#Degradado_sin_nombre_19"/><linearGradient id="Degradado_sin_nombre_4" x1="2408.91" y1="-1058.94" x2="2392.24" y2="-1042.27" gradientTransform="matrix(-1, 0, 0, 1, 2810.37, 1445.44)" gradientUnits="userSpaceOnUse"><stop offset="0" stop-color="#eaf9fa" stop-opacity="0.4"/><stop offset="1" stop-color="#e9f8f9" stop-opacity="0.1"/><stop offset="1" stop-color="#eaf9fa" stop-opacity="0.5"/></linearGradient><linearGradient id="Degradado_sin_nombre_9" x1="318.9" y1="-192.49" x2="379.71" y2="-253.3" gradientTransform="matrix(1, 0, 0, -1, 0, 2.79)" gradientUnits="userSpaceOnUse"><stop offset="0" stop-color="#fff" stop-opacity="0.5"/><stop offset="1" stop-color="#e9f8f9" stop-opacity="0"/></linearGradient><linearGradient id="Degradado_sin_nombre_10" x1="155.57" y1="1796.75" x2="287.85" y2="1929.03" gradientTransform="translate(0 -1576.8)" gradientUnits="userSpaceOnUse"><stop offset="0" stop-color="#fff" stop-opacity="0.5"/><stop offset="1" stop-color="#ecf7f8" stop-opacity="0"/></linearGradient></defs><path class="cls-1" d="M519.5,236.2a2.1,2.1,0,0,0-2.1,2.1h0v2.1h-8.6V224.8a16,16,0,0,0-16-16.1H460l-5.5-5.6a5,5,0,0,0-3.5-1.4H392.2a5,5,0,0,0-3.5,1.4l-5.6,5.6H370V185.6a19,19,0,0,0-19-19H193.3a19,19,0,0,0-19,19V496.1a19,19,0,0,0,19,19H351a19,19,0,0,0,19-19v-4.5H483.3a16,16,0,0,0,16-15l1.2-16.9h16.9v2.1a2.1,2.1,0,0,0,2.1,2.1h0A11.9,11.9,0,0,0,531.4,452V248.1a11.9,11.9,0,0,0-11.9-11.9Z"/><rect class="cls-2" x="444.2" y="191.7" width="27.9" height="219.32"/><path class="cls-3" d="M474.2,187.5h0a11.9,11.9,0,0,1,11.9,11.9h0v204a11.9,11.9,0,0,1-11.9,11.9h0a2.2,2.2,0,0,1-2.1-2.1V189.6A2.2,2.2,0,0,1,474.2,187.5Z"/><path class="cls-3" d="M438.1,442.9H314.5a15.9,15.9,0,0,1-16-15L289,286.3V176.1A16,16,0,0,1,305,160H447.5a16.1,16.1,0,0,1,16.1,16.1h0V286.3l-9.5,141.6A15.9,15.9,0,0,1,438.1,442.9Z"/><rect class="cls-4" x="321.1" y="191.8" width="110.4" height="92.2" rx="2.1"/><rect class="cls-5" x="321.1" y="315.5" width="29.3" height="25.84" rx="2.1"/><rect class="cls-5" x="361.6" y="315.5" width="29.3" height="25.84" rx="2.1"/><rect class="cls-5" x="401.4" y="315.5" width="29.3" height="25.84" rx="2.1"/><rect class="cls-5" x="321.1" y="350.4" width="29.3" height="25.84" rx="2.1"/><rect class="cls-5" x="361.6" y="350.4" width="29.3" height="25.84" rx="2.1"/><rect class="cls-5" x="401.4" y="350.4" width="29.3" height="25.84" rx="2.1"/><rect class="cls-6" x="401.4" y="385.3" width="29.3" height="25.84" rx="2.1"/><rect class="cls-7" x="321.1" y="385.3" width="29.3" height="25.84" rx="2.1"/><rect class="cls-8" x="361.6" y="385.3" width="29.3" height="25.84" rx="2.1"/><path class="cls-9" d="M323.2,411.2h6.6l13.6-25.9H323.2a2.1,2.1,0,0,0-2.1,2.1h0v21.7a2.2,2.2,0,0,0,2.1,2.1Z"/><path class="cls-10" d="M363.7,411.2h6.6L384,385.3H363.7a2.1,2.1,0,0,0-2.1,2.1v21.7a2.1,2.1,0,0,0,2.1,2.1Z"/><path class="cls-11" d="M403.5,411.2h6.6l13.7-25.9H403.5a2.2,2.2,0,0,0-2.1,2.1h0v21.7a2.2,2.2,0,0,0,2.1,2.1Z"/><path class="cls-12" d="M323.2,191.8a2.1,2.1,0,0,0-2.1,2.1h0v88a2.1,2.1,0,0,0,2.1,2.1h28.6l49-92.2Z"/><path class="cls-2" d="M414.7,160H337.9l5.5-5.6a5.2,5.2,0,0,1,3.5-1.4h58.8a5,5,0,0,1,3.5,1.4Z"/><path class="cls-13" d="M148.3,118H306.9a19,19,0,0,1,18.9,19V447.5a19.1,19.1,0,0,1-18.9,19H148.3a19,19,0,0,1-18.9-19V137a18.9,18.9,0,0,1,18.9-19Z"/><rect class="cls-4" x="129.4" y="161.7" width="196.5" height="260.94"/><polygon class="cls-14" points="129.6 161.9 129.6 422.5 229.8 422.7 325.8 245.2 325.8 161.7 129.6 161.9"/><circle class="cls-15" cx="227.6" cy="292.2" r="52.4"/><path class="cls-16" d="M247.4,303.3l-14.2-11.1,14.2-11.1a3.4,3.4,0,0,0,.6-4.8h0a1.7,1.7,0,0,0-.6-.6l-17.7-13.9a3.5,3.5,0,0,0-4.9.7,3.8,3.8,0,0,0-.7,2.1v20.5L212,275.7a3.5,3.5,0,0,0-4.9.6,3.5,3.5,0,0,0,.6,4.8l14.2,11.1-14.2,11.1a3.6,3.6,0,0,0-.6,4.9,3.7,3.7,0,0,0,2.8,1.3,3.3,3.3,0,0,0,2.1-.7l12.1-9.5v20.6a3.4,3.4,0,0,0,5.6,2.7l17.7-13.8a3.5,3.5,0,0,0,.6-4.9h0l-.6-.6ZM231,271.7l8.6,6.7-8.6,6.7Zm0,41.1V299.3l8.6,6.8Z"/></svg>