<svg id="Contenido" xmlns="http://www.w3.org/2000/svg" xmlns:xlink="http://www.w3.org/1999/xlink" viewBox="0 0 600 600"><defs><style>.cls-1{fill:url(#Degradado_sin_nombre_2);}.cls-2{fill:#d4edfc;}.cls-3{fill:#1464a5;}.cls-4{fill:#5ac4c4;}.cls-5{fill:#f8cd50;}.cls-6{fill:url(#Degradado_sin_nombre_27);}.cls-7{fill:#2dcccd;}.cls-8{fill:url(#Degradado_sin_nombre_67);}.cls-9{fill:#1c447d;}.cls-10{fill:#02a5a5;}.cls-11{fill:#eaf9fa;}.cls-12{fill:#49a5e6;}.cls-13{fill:none;}</style><linearGradient id="Degradado_sin_nombre_2" x1="235.15" y1="146.3" x2="450.41" y2="551.14" gradientUnits="userSpaceOnUse"><stop offset="0" stop-color="#1a2746" stop-opacity="0.5"/><stop offset="1" stop-color="#1a2746" stop-opacity="0"/></linearGradient><linearGradient id="Degradado_sin_nombre_27" x1="347.69" y1="397.7" x2="373.04" y2="423.05" gradientUnits="userSpaceOnUse"><stop offset="0" stop-color="#fff" stop-opacity="0.6"/><stop offset="1" stop-color="#fff" stop-opacity="0.1"/></linearGradient><linearGradient id="Degradado_sin_nombre_67" x1="509.28" y1="295.7" x2="251.22" y2="295.7" gradientUnits="userSpaceOnUse"><stop offset="0.03" stop-color="#028484" stop-opacity="0.2"/><stop offset="1" stop-color="#028484" stop-opacity="0.1"/></linearGradient></defs><title> </title><path class="cls-1" d="M553.28,308.9H480.72v-40h7.61A45.75,45.75,0,0,0,534,222.75c-.24-25.16-21.12-45.25-46.28-45.25H177a2,2,0,0,0-2,2v9.14a2,2,0,0,0,2,2h13.29v65.29H177a2,2,0,0,0-2,2v9.14a2,2,0,0,0,2,2h-.24a6,6,0,0,0-6,6v28a6,6,0,0,0,6,6h42.56v75h-5.39a70.07,70.07,0,0,0-70,70.69c.37,38.54,32.35,69.31,70.89,69.31h286.1a3,3,0,0,0,3-3v-14a3,3,0,0,0-3-3h-9.64v-100l-.15-20h62.18a6,6,0,0,0,6-6v-63A6,6,0,0,0,553.28,308.9Z"/><path class="cls-2" d="M162.07,346.85H441.25a0,0,0,0,1,0,0v112.7a0,0,0,0,1,0,0H162.07a56.35,56.35,0,0,1-56.35-56.35v0a56.35,56.35,0,0,1,56.35-56.35Z"/><path class="cls-3" d="M450.89,473.2H164.79c-38.54,0-70.52-30.77-70.89-69.31a70.07,70.07,0,0,1,70-70.69h287a3,3,0,0,1,3,3v14a3,3,0,0,1-3,3H164.73c-27.38,0-50.31,21.66-50.83,49a50.05,50.05,0,0,0,50,51h287a3,3,0,0,1,3,3v14A3,3,0,0,1,450.89,473.2Z"/><path class="cls-2" d="M177,135.71H476.31a0,0,0,0,1,0,0v73.58a0,0,0,0,1,0,0H177a36.79,36.79,0,0,1-36.79-36.79v0A36.79,36.79,0,0,1,177,135.71Z" transform="translate(616.56 345) rotate(-180)"/><path class="cls-4" d="M127,126.8H437.75c25.16,0,46,20.09,46.28,45.25a45.75,45.75,0,0,1-45.7,46.15H127a2,2,0,0,1-2-2V207.1a2,2,0,0,1,2-2H437.78c17.88,0,32.85-14.14,33.19-32a32.67,32.67,0,0,0-32.64-33.27H127a2,2,0,0,1-2-2v-9.14A2,2,0,0,1,127,126.8Z"/><path class="cls-5" d="M401.75,435.87l-22-14.67a6,6,0,0,0-6.66,0l-22,14.67a3,3,0,0,1-4.66-2.5V399h60v34.39A3,3,0,0,1,401.75,435.87Z"/><path class="cls-6" d="M346.41,399v34.39a3,3,0,0,0,4.66,2.5l22-14.67a6,6,0,0,1,2.78-1L387.16,399Z"/><path class="cls-7" d="M169.28,258.2h334a6,6,0,0,1,6,6v63a6,6,0,0,1-6,6h-334a0,0,0,0,1,0,0v-75A0,0,0,0,1,169.28,258.2Z"/><path class="cls-8" d="M503.28,258.2H291.09l-39.87,75H503.28a6,6,0,0,0,6-6v-63A6,6,0,0,0,503.28,258.2Z"/><path class="cls-9" d="M90.72,218.2h334a6,6,0,0,1,6,6v28a6,6,0,0,1-6,6h-334a0,0,0,0,1,0,0v-40A0,0,0,0,1,90.72,218.2Z" transform="translate(521.45 476.4) rotate(180)"/><rect class="cls-10" x="386.94" y="258.2" width="97.55" height="75"/><rect class="cls-10" x="194.07" y="258.2" width="24.79" height="75" transform="translate(412.92 591.4) rotate(180)"/><rect class="cls-11" x="238.15" y="290.7" width="129.5" height="10" rx="5"/><rect class="cls-12" x="176.53" y="233.2" width="191.12" height="10" rx="5"/><rect class="cls-13" width="600" height="600"/></svg>