<svg id="Contenido" xmlns="http://www.w3.org/2000/svg" xmlns:xlink="http://www.w3.org/1999/xlink" viewBox="0 0 600 600"><defs><style>.cls-1{fill:#043263;}.cls-2{fill:url(#Degradado_sin_nombre_16);}.cls-3{fill:#49a5e6;}.cls-4{fill:#5ac4c4;}.cls-5{fill:#d4edfc;}.cls-6{fill:url(#Degradado_sin_nombre_15);}.cls-7{fill:#eaf9fa;}.cls-8{fill:#c49735;}.cls-9{fill:#f8cd50;}.cls-10{fill:url(#Degradado_sin_nombre_28);}</style><linearGradient id="Degradado_sin_nombre_16" x1="258.81" y1="184.51" x2="441.19" y2="527.49" gradientUnits="userSpaceOnUse"><stop offset="0" stop-color="#1c2645"/><stop offset="0" stop-color="#1c2645" stop-opacity="0.5"/><stop offset="1" stop-color="#1c2645" stop-opacity="0"/></linearGradient><linearGradient id="Degradado_sin_nombre_15" x1="470" y1="295" x2="318.83" y2="295" gradientUnits="userSpaceOnUse"><stop offset="0" stop-color="#043263" stop-opacity="0.2"/><stop offset="1" stop-color="#043263" stop-opacity="0"/></linearGradient><linearGradient id="Degradado_sin_nombre_28" x1="243.96" y1="175.36" x2="277.37" y2="193.13" gradientUnits="userSpaceOnUse"><stop offset="0" stop-color="#fff" stop-opacity="0.4"/><stop offset="1" stop-color="#fff" stop-opacity="0.1"/></linearGradient></defs><title>values-day</title><rect class="cls-1" x="117" y="179" width="366" height="254" rx="7"/><rect class="cls-2" x="168" y="230" width="364" height="252" rx="7"/><path class="cls-3" d="M300,175H472a3,3,0,0,1,3,3V422a3,3,0,0,1-3,3H300a0,0,0,0,1,0,0V175A0,0,0,0,1,300,175Z"/><path class="cls-4" d="M128,175H300a0,0,0,0,1,0,0V425a0,0,0,0,1,0,0H128a3,3,0,0,1-3-3V178A3,3,0,0,1,128,175Z"/><path class="cls-5" d="M306,170H464a6,6,0,0,1,6,6V414a6,6,0,0,1-6,6H300a0,0,0,0,1,0,0V176A6,6,0,0,1,306,170Z"/><path class="cls-6" d="M464,170H451.75L318.83,420H464a6,6,0,0,0,6-6V176A6,6,0,0,0,464,170Z"/><path class="cls-7" d="M133,170H300a0,0,0,0,1,0,0V420a0,0,0,0,1,0,0H133a3,3,0,0,1-3-3V173A3,3,0,0,1,133,170Z"/><path class="cls-8" d="M243.19,158h20a0,0,0,0,1,0,0v2a10,10,0,0,1-10,10h0a10,10,0,0,1-10-10v-2A0,0,0,0,1,243.19,158Z" transform="translate(506.37 328) rotate(-180)"/><path class="cls-9" d="M273.19,158h-20a10,10,0,0,1,10,10v92.76a3,3,0,0,0,5.12,2.12l2.75-2.76a3,3,0,0,1,4.25,0l2.75,2.76a3,3,0,0,0,5.13-2.12V168A10,10,0,0,0,273.19,158Z"/><path class="cls-10" d="M283.19,168a10,10,0,0,0-10-10h-20a10,10,0,0,1,10,10v51.81l20-37.61Z"/></svg>