<svg id="Contenido" xmlns="http://www.w3.org/2000/svg" xmlns:xlink="http://www.w3.org/1999/xlink" viewBox="0 0 600 600"><defs><style>.cls-1{fill:url(#Degradado_sin_nombre_44);}.cls-2{fill:#d4edfc;}.cls-3{fill:#49a5e6;}.cls-4{fill:#1464a5;}.cls-5{fill:#2dcccd;}.cls-6{fill:url(#Degradado_sin_nombre_43);}.cls-7{fill:url(#Degradado_sin_nombre_43-2);}</style><linearGradient id="Degradado_sin_nombre_44" x1="300.63" y1="210.74" x2="456.77" y2="504.39" gradientUnits="userSpaceOnUse"><stop offset="0" stop-color="#192647" stop-opacity="0.5"/><stop offset="1" stop-color="#192647" stop-opacity="0"/></linearGradient><linearGradient id="Degradado_sin_nombre_43" x1="515" y1="303.39" x2="435" y2="303.39" gradientUnits="userSpaceOnUse"><stop offset="0.01" stop-color="#043263" stop-opacity="0.5"/><stop offset="1" stop-color="#043263" stop-opacity="0.1"/></linearGradient><linearGradient id="Degradado_sin_nombre_43-2" x1="180.98" y1="353.71" x2="166.98" y2="353.71" xlink:href="#Degradado_sin_nombre_43"/></defs><title>otros</title><path class="cls-1" d="M566.73,434.33h-2V267.57a3,3,0,0,0-.88-2.12l-10.24-10.24a3,3,0,0,0-2.12-.88H498a3,3,0,0,0-2.12.88l-10.24,10.24a3,3,0,0,0-.88,2.12V281h-6.94a3,3,0,0,0-3,3v.5H163.38a6,6,0,0,0-5.35,3.28l-24.09,47.36a3,3,0,0,0,2.67,4.36h75.11a3,3,0,0,0,3,3h2v91.82h-2a3,3,0,0,0-3,3v7h24v-7a3,3,0,0,0-3-3h-2V373.75h0V342.51h2a3,3,0,0,0,3-3H474.79v.5a3,3,0,0,0,3,3h6.94v91.32h-2a3,3,0,0,0-3,3v7h90v-7A3,3,0,0,0,566.73,434.33Z"/><path class="cls-2" d="M142,289.18H86.88a3,3,0,0,1-2.67-4.36l24.09-47.36a6,6,0,0,1,5.35-3.28H170Z"/><polygon class="cls-3" points="202 289.18 141.99 289.18 169.97 234.18 229.98 234.18 202 289.18"/><polygon class="cls-2" points="262 289.18 202 289.18 229.98 234.18 289.98 234.18 262 289.18"/><polygon class="cls-3" points="322 289.18 262 289.18 289.98 234.18 349.98 234.18 322 289.18"/><polygon class="cls-2" points="382.01 289.18 322 289.18 349.98 234.18 409.99 234.18 382.01 289.18"/><path class="cls-3" d="M439.59,289.18H382l28-55H465.1a3,3,0,0,1,2.68,4.36l-24.65,48.51A4,4,0,0,1,439.59,289.18Z"/><path class="cls-4" d="M515,384H435V217.24a3,3,0,0,1,.88-2.12l10.24-10.24a3,3,0,0,1,2.12-.88h53.52a3,3,0,0,1,2.12.88l10.24,10.24a3,3,0,0,1,.88,2.12Z"/><path class="cls-5" d="M433,384h84a3,3,0,0,1,3,3v7a0,0,0,0,1,0,0H430a0,0,0,0,1,0,0v-7A3,3,0,0,1,433,384Z"/><polygon class="cls-4" points="180.99 384 166.99 384 166.99 291 172.99 289.18 174.99 289.18 180.99 291 180.99 384"/><path class="cls-5" d="M165,384h18a3,3,0,0,1,3,3v7a0,0,0,0,1,0,0H162a0,0,0,0,1,0,0v-7A3,3,0,0,1,165,384Z"/><path class="cls-5" d="M162,289.18h24a3,3,0,0,1-3,3H165a3,3,0,0,1-3-3Z"/><polygon class="cls-6" points="435 373.23 435 384 515 384 515 222.77 435 373.23"/><path class="cls-5" d="M402.06,256.68h56a3,3,0,0,1,3,3v7a0,0,0,0,1,0,0h-62a0,0,0,0,1,0,0v-7A3,3,0,0,1,402.06,256.68Z" transform="translate(168.38 691.73) rotate(-90)"/><rect class="cls-2" x="451" y="237.06" width="48" height="48" rx="3"/><path class="cls-3" d="M486.94,252.06H463.06a3,3,0,0,1,0-6h23.88a3,3,0,0,1,0,6Z"/><path class="cls-3" d="M486.94,264.06H463.06a3,3,0,0,1,0-6h23.88a3,3,0,0,1,0,6Z"/><path class="cls-3" d="M486.94,276.06H463.06a3,3,0,0,1,0-6h23.88a3,3,0,0,1,0,6Z"/><polygon class="cls-7" points="166.99 349.75 166.99 384 180.99 384 180.99 323.42 166.99 349.75"/></svg>