<svg xmlns="http://www.w3.org/2000/svg" xmlns:xlink="http://www.w3.org/1999/xlink" viewBox="0 0 600 600"><defs><style>.cls-1{fill:none;}.cls-13,.cls-14,.cls-2,.cls-3,.cls-4{opacity:0.5;isolation:isolate;}.cls-2{fill:url(#Degradado_sin_nombre_569);}.cls-3{fill:url(#Degradado_sin_nombre_569-2);}.cls-4{fill:url(#Degradado_sin_nombre_569-3);}.cls-5{fill:#d4edfc;}.cls-6{fill:#043263;}.cls-7{fill:url(#Degradado_sin_nombre_113);}.cls-8{fill:#2dcccd;}.cls-9{fill:#fff;}.cls-10{fill:#49a5e6;}.cls-11{fill:#f8cd50;}.cls-12{fill:#eaf9fa;}.cls-13{fill:url(#Degradado_sin_nombre_51);}.cls-14{fill:url(#Degradado_sin_nombre_51-2);}</style><linearGradient id="Degradado_sin_nombre_569" x1="159.58" y1="121.56" x2="191.62" y2="181.84" gradientUnits="userSpaceOnUse"><stop offset="0" stop-color="#192647" stop-opacity="0.5"/><stop offset="1" stop-color="#192647" stop-opacity="0"/></linearGradient><linearGradient id="Degradado_sin_nombre_569-2" x1="442.58" y1="121.56" x2="474.62" y2="181.84" xlink:href="#Degradado_sin_nombre_569"/><linearGradient id="Degradado_sin_nombre_569-3" x1="222.47" y1="170.74" x2="461.68" y2="620.63" xlink:href="#Degradado_sin_nombre_569"/><linearGradient id="Degradado_sin_nombre_113" x1="485.1" y1="294.2" x2="174.7" y2="294.2" gradientTransform="translate(0 2)" gradientUnits="userSpaceOnUse"><stop offset="0" stop-color="#192647"/><stop offset="0" stop-color="#043263" stop-opacity="0.2"/><stop offset="1" stop-color="#043263" stop-opacity="0"/></linearGradient><linearGradient id="Degradado_sin_nombre_51" x1="463.03" y1="-10780.93" x2="481.46" y2="-10790.74" gradientTransform="matrix(1, 0, 0, -1, 0, -10586)" gradientUnits="userSpaceOnUse"><stop offset="0" stop-color="#fff"/><stop offset="1" stop-color="#fff" stop-opacity="0.2"/></linearGradient><linearGradient id="Degradado_sin_nombre_51-2" x1="389.5" y1="-10924.6" x2="491.45" y2="-10978.81" xlink:href="#Degradado_sin_nombre_51"/></defs><title>11</title><g id="Cuadrados_Blancos" data-name="Cuadrados Blancos"><rect class="cls-1" width="600" height="600"/></g><g id="Capa_110" data-name="Capa 110"><path class="cls-2" d="M175.6,188.7a12.5,12.5,0,0,0,12.5-12.5v-49a12.5,12.5,0,0,0-25,0v49A12.5,12.5,0,0,0,175.6,188.7Z"/><path class="cls-3" d="M458.6,188.7a12.5,12.5,0,0,0,12.5-12.5v-49a12.5,12.5,0,0,0-25,0v49A12.5,12.5,0,0,0,458.6,188.7Z"/><path class="cls-4" d="M591.29,477.24c-1.62-22.59-1.62-63.25,0-85.83L594,345.9a40.44,40.44,0,0,0,0-7,41.11,41.11,0,0,0-32-36l0-12.85a6.85,6.85,0,0,0-.54-2.64l-4.58-10.76a6.88,6.88,0,0,0-6.35-4.17h-4s-.39-8.21-5.26-13c-7.83-7.75-16.63-7.5-16.63-13.35,0-7.84,3.24-10.39,3.24-17.28a13.91,13.91,0,0,0-2.31-7.62h0a14.15,14.15,0,0,0-2.26-2.62l0,0a13.88,13.88,0,0,0-6-3.19h-.06a14.46,14.46,0,0,0-1.62-.3h-.09a14.92,14.92,0,0,0-1.65-.1h-.08a13.93,13.93,0,0,0-13.64,10.7H119.1v282a23,23,0,0,0,23,23H433.75a41.12,41.12,0,0,0,40.74,35.84h78.64A41.12,41.12,0,0,0,594,529.7a40.33,40.33,0,0,0,0-7Z"/><path class="cls-5" d="M485.1,180.7v282a23,23,0,0,1-23,23h-349a23,23,0,0,1-23-23v-282"/><path class="cls-6" d="M462.1,106.7h-349a22.88,22.88,0,0,0-23,22.7h0v51.3h395V129.4a22.88,22.88,0,0,0-23-22.7Z"/><path class="cls-7" d="M462.1,106.7H376.8l-202.1,379H462.1a22.92,22.92,0,0,0,23-22.9V129.6A23,23,0,0,0,462.1,106.7Z"/><path class="cls-8" d="M146.6,69.7h0a12.5,12.5,0,0,1,12.5,12.5v49a12.5,12.5,0,0,1-12.5,12.5h0a12.5,12.5,0,0,1-12.5-12.5v-49A12.5,12.5,0,0,1,146.6,69.7Z"/><path class="cls-8" d="M429.6,69.7h0a12.5,12.5,0,0,1,12.5,12.5v49a12.5,12.5,0,0,1-12.5,12.5h0a12.5,12.5,0,0,1-12.5-12.5v-49A12.5,12.5,0,0,1,429.6,69.7Z"/><path class="cls-9" d="M289.2,240.1a11.8,11.8,0,1,1-11.8-11.8,11.82,11.82,0,0,1,11.8,11.8Z"/><path class="cls-9" d="M339.9,240.1a11.8,11.8,0,1,1-11.8-11.8h0a11.82,11.82,0,0,1,11.8,11.8Z"/><path class="cls-10" d="M390.6,240.1a11.8,11.8,0,1,1-11.8-11.8,11.82,11.82,0,0,1,11.8,11.8Z"/><path class="cls-10" d="M441.2,240.1a11.8,11.8,0,1,1-11.8-11.8,11.82,11.82,0,0,1,11.8,11.8Z"/><path class="cls-9" d="M137.2,299a11.8,11.8,0,1,1-11.8-11.8A11.82,11.82,0,0,1,137.2,299Z"/><path class="cls-9" d="M187.9,299a11.8,11.8,0,1,1-11.8-11.8h0A11.82,11.82,0,0,1,187.9,299Z"/><path class="cls-9" d="M238.6,299a11.8,11.8,0,1,1-11.8-11.8A11.82,11.82,0,0,1,238.6,299Z"/><path class="cls-9" d="M289.2,299a11.8,11.8,0,1,1-11.8-11.8A11.82,11.82,0,0,1,289.2,299Z"/><path class="cls-9" d="M339.9,299a11.8,11.8,0,1,1-11.8-11.8h0A11.82,11.82,0,0,1,339.9,299Z"/><path class="cls-10" d="M390.6,299a11.8,11.8,0,1,1-11.8-11.8A11.82,11.82,0,0,1,390.6,299Z"/><path class="cls-10" d="M441.2,299a11.8,11.8,0,1,1-11.8-11.8A11.82,11.82,0,0,1,441.2,299Z"/><path class="cls-9" d="M137.2,358a11.8,11.8,0,1,1-11.8-11.8A11.82,11.82,0,0,1,137.2,358Z"/><path class="cls-9" d="M187.9,358a11.8,11.8,0,1,1-11.8-11.8h0A11.82,11.82,0,0,1,187.9,358Z"/><path class="cls-9" d="M238.6,358a11.8,11.8,0,1,1-11.8-11.8A11.82,11.82,0,0,1,238.6,358Z"/><path class="cls-9" d="M289.2,358a11.8,11.8,0,1,1-11.8-11.8A11.82,11.82,0,0,1,289.2,358Z"/><path class="cls-9" d="M339.9,358a11.8,11.8,0,1,1-11.8-11.8h0A11.82,11.82,0,0,1,339.9,358Z"/><path class="cls-10" d="M390.6,358a11.8,11.8,0,1,1-11.8-11.8A11.82,11.82,0,0,1,390.6,358Z"/><path class="cls-10" d="M441.2,358a11.8,11.8,0,1,1-11.8-11.8A11.82,11.82,0,0,1,441.2,358Z"/><path class="cls-9" d="M137.2,417a11.8,11.8,0,1,1-11.8-11.8A11.82,11.82,0,0,1,137.2,417Z"/><path class="cls-9" d="M187.9,417a11.8,11.8,0,1,1-11.8-11.8h0A11.82,11.82,0,0,1,187.9,417Z"/><path class="cls-9" d="M238.6,417a11.8,11.8,0,1,1-11.8-11.8A11.82,11.82,0,0,1,238.6,417Z"/><path class="cls-9" d="M289.2,417a11.8,11.8,0,1,1-11.8-11.8A11.82,11.82,0,0,1,289.2,417Z"/><path class="cls-9" d="M339.9,417a11.8,11.8,0,1,1-11.8-11.8h0A11.82,11.82,0,0,1,339.9,417Z"/><path class="cls-10" d="M390.6,417a11.8,11.8,0,1,1-11.8-11.8A11.82,11.82,0,0,1,390.6,417Z"/><path class="cls-6" d="M533.07,259.37H436.55v-14.5a6.67,6.67,0,0,1,.56-2.68l4.51-10.5a6.92,6.92,0,0,1,6.34-4.13h73.61a6.88,6.88,0,0,1,6.35,4.17l4.58,10.76a6.85,6.85,0,0,1,.54,2.64Z"/><path class="cls-11" d="M512.29,214.52c-7.83-7.75-16.63-7.5-16.63-13.35,0-7.84,3.24-10.39,3.24-17.28a14,14,0,0,0-14-13.89h-.08a14,14,0,0,0-14,13.88h0c0,6.9,3.24,9.44,3.24,17.28,0,5.86-8.81,5.64-16.63,13.35-4.88,4.82-5.24,13-5.24,13h65.42S517.16,219.34,512.29,214.52Z"/><path class="cls-5" d="M524.13,521.54H445.49a41.12,41.12,0,0,1-40.87-36.92,40.33,40.33,0,0,1,0-6.95l2.74-45.51c1.62-22.59,1.62-63.24,0-85.83l-2.74-45.48a40.33,40.33,0,0,1,0-7A41.12,41.12,0,0,1,445.52,257h78.64A41.12,41.12,0,0,1,565,293.94a40.44,40.44,0,0,1,0,7l-2.74,45.51c-1.62,22.58-1.62,63.24,0,85.83L565,477.75a40.33,40.33,0,0,1,0,6.95A41.12,41.12,0,0,1,524.13,521.54Z"/><path class="cls-10" d="M524.13,267.72A30.28,30.28,0,0,1,554.36,295a29.07,29.07,0,0,1,0,5.11l-2.74,45.51c-1.65,23.05-1.65,64.29,0,87.34l2.74,45.5a29,29,0,0,1,0,5.1,30.28,30.28,0,0,1-30.23,27.22H445.49a30.3,30.3,0,0,1-30.24-27.28,31,31,0,0,1,0-5.1L418,432.88c1.65-23.05,1.65-64.29,0-87.34L415.25,300a31.14,31.14,0,0,1,0-5.11,30.29,30.29,0,0,1,30.24-27.26h78.64"/><path class="cls-12" d="M445.49,510.77h78.64a30.28,30.28,0,0,0,30.23-27.22,29,29,0,0,0,0-5.1L551.62,433c-1.65-23.05-1.65-64.29,0-87.34l2.74-45.51a29.07,29.07,0,0,0,0-5.11,29.82,29.82,0,0,0-.67-3.85q-9.21,2.53-18,5.51l-22,7.45c-28.74,9.81-65.94,11.58-97.76,5.4L418,345.55c1.65,23.05,1.65,64.29,0,87.34l-2.74,45.51a29.07,29.07,0,0,0,0,5.11A30.28,30.28,0,0,0,445.49,510.77Z"/><path class="cls-13" d="M484.8,170h0a14,14,0,0,0-14,13.88h0c0,6.9,3.24,9.44,3.24,17.28,0,5.86-8.81,5.64-16.65,13.35-4.87,4.82-5.24,13-5.24,13h17.21l27.27-51.28A14.08,14.08,0,0,0,484.8,170Z"/><path class="cls-14" d="M524.13,267.72H445.49A30.28,30.28,0,0,0,415.25,295a31,31,0,0,0,0,5.1L418,345.6c1.65,23,1.65,64.29,0,87.34l-2.75,45.51a31,31,0,0,0,0,5.1A30.22,30.22,0,0,0,430.74,507L538.83,271.52A30.37,30.37,0,0,0,524.13,267.72Z"/></g></svg>