<svg xmlns="http://www.w3.org/2000/svg" xmlns:xlink="http://www.w3.org/1999/xlink" viewBox="0 0 600 600"><defs><style>.cls-1{fill:none;}.cls-2{fill:url(#Degradado_sin_nombre_103);}.cls-3{fill:#072146;}.cls-4{fill:#bae6e8;}.cls-5{fill:url(#Degradado_sin_nombre_5);}.cls-6{fill:#02a5a5;}.cls-7{fill:#004481;}.cls-8{fill:#043263;}.cls-9{fill:url(#Degradado_sin_nombre_104);}.cls-10{fill:#5ac4c4;}</style><linearGradient id="Degradado_sin_nombre_103" x1="236.44" y1="191.18" x2="427.39" y2="550.3" gradientTransform="translate(0 2)" gradientUnits="userSpaceOnUse"><stop offset="0" stop-color="#192647" stop-opacity="0.5"/><stop offset="1" stop-color="#192647" stop-opacity="0"/></linearGradient><linearGradient id="Degradado_sin_nombre_5" x1="1150.88" y1="5492.68" x2="1256.5" y2="5492.68" gradientTransform="translate(-5215.88 1465.2) rotate(-90)" gradientUnits="userSpaceOnUse"><stop offset="0" stop-color="#028484"/><stop offset="1" stop-color="#028484" stop-opacity="0"/></linearGradient><linearGradient id="Degradado_sin_nombre_104" x1="428.65" y1="375.05" x2="299.55" y2="375.05" gradientTransform="translate(0 2)" gradientUnits="userSpaceOnUse"><stop offset="0" stop-color="#072146"/><stop offset="1" stop-color="#072146" stop-opacity="0"/></linearGradient></defs><title>18</title><g id="Cuadrados_Blancos" data-name="Cuadrados Blancos"><rect class="cls-1" width="600" height="600"/></g><g id="Capa_2" data-name="Capa 2"><path class="cls-2" d="M528.6,399.1l-45.1-79.7a3,3,0,0,0-2.6-1.5H377.8V254.2h0V171.7l.1-.1-7.8-7.8-7.8,7.8h0l-7.8-7.8-7.8,7.8h0l-7.8-7.8-7.8,7.8h0l-7.8-7.8-7.8,7.8h0l-7.8-7.8-7.8,7.8h-.4l-7.8-7.8-7.8,7.8h-.2V273.5H252.5a13.29,13.29,0,0,0-13.3,13.3l.1,31H227.8a3,3,0,0,0-3,2.8L179.4,401a3.06,3.06,0,0,0,1.1,4.1,2.82,2.82,0,0,0,1.5.4h42.8V509.1a23,23,0,0,0,23,23H459.6a23.56,23.56,0,0,0,12.9-3.9l.9-.6a23,23,0,0,0,9.2-18.4V403.6H526a3,3,0,0,0,3-3A2.82,2.82,0,0,0,528.6,399.1Z"/><path class="cls-3" d="M128.05,357.5h241.2l38.5-85.7H171.35l-46,81.2a3.06,3.06,0,0,0,1.1,4.1A3.17,3.17,0,0,0,128.05,357.5Z"/><path class="cls-4" d="M246.05,123.7h-.5l-7.8-7.8-7.7,7.8h-.2V317.3h82.8a11.14,11.14,0,0,0,11.1-11.1h0V123.7l.1-.1-7.8-7.8-7.8,7.8h0l-7.8-7.8-7.8,7.8h0l-7.8-7.8-7.8,7.8h0l-7.8-7.8-7.7,7.9h0l-7.8-7.8Z"/><path class="cls-5" d="M323.75,206.2h-93.9V317.3h82.8a11.14,11.14,0,0,0,11.1-11.1V306"/><path class="cls-6" d="M279.35,236.8v80.5h33.3a11.14,11.14,0,0,1-11.1-11.1h0V236.8a11.1,11.1,0,1,0-22.2,0Z"/><path class="cls-7" d="M173.85,269.9a3,3,0,0,0-3,3V461.1a23,23,0,0,0,23,23h99.5V269.9Z"/><path class="cls-8" d="M424.85,269.9H293.35V484.1h112.3a23,23,0,0,0,23-23V273.7A3.8,3.8,0,0,0,424.85,269.9Z"/><path class="cls-9" d="M424.85,269.9h-7.2L299.55,484.2h106.1a23,23,0,0,0,23-23V273.7A3.8,3.8,0,0,0,424.85,269.9Z"/><path class="cls-10" d="M306.15,148.3h-60.7a3.3,3.3,0,1,1,0-6.6h60.7a3.3,3.3,0,0,1,0,6.6Z"/><path class="cls-10" d="M306.15,163.2h-60.7a3.3,3.3,0,0,1,0-6.6h60.7a3.3,3.3,0,1,1,0,6.6Z"/><path class="cls-10" d="M306.45,178.1h-60.8a3.3,3.3,0,0,1,0-6.6h60.8a3.3,3.3,0,1,1,0,6.6Z"/><path class="cls-10" d="M306.15,193.1h-60.7a3.3,3.3,0,1,1,0-6.6h60.7a3.3,3.3,0,0,1,0,6.6Z"/><path class="cls-10" d="M279.65,208h-34.2a3.3,3.3,0,1,1,0-6.6h34.2a3.3,3.3,0,1,1,0,6.6Z"/><path class="cls-3" d="M472.05,355.6H343.65a3,3,0,0,1-2.6-1.5l-47.6-84.2H427a3,3,0,0,1,2.6,1.5l45.1,79.7a3.06,3.06,0,0,1-1.1,4.1A2.82,2.82,0,0,1,472.05,355.6Z"/><path class="cls-4" d="M290.45,225.6h-91.8a13.29,13.29,0,0,0-13.3,13.3h0l.1,95.6h.1v20.6l-.1.1,7.8,7.8,7.8-7.8h0l7.8,7.8,7.8-7.8h0l7.8,7.8,7.8-7.8h0l7.8,7.8,7.8-7.8h0l7.8,7.8,7.8-7.8h.4l7.8,7.8,7.8-7.8h.2V245.6h-.1v-8.9A10.84,10.84,0,0,1,290.45,225.6Z"/><path class="cls-10" d="M262.45,257.6h-60.7a3.3,3.3,0,0,1,0-6.6h60.7a3.3,3.3,0,0,1,0,6.6Z"/><path class="cls-10" d="M238,272.4h-36.2a3.3,3.3,0,0,1,0-6.6H238a3.3,3.3,0,1,1,0,6.6Z"/><path class="cls-10" d="M238,302.3h-36.2a3.3,3.3,0,0,1,0-6.6H238a3.3,3.3,0,1,1,0,6.6Z"/><path class="cls-10" d="M236,317.2h-34.2a3.3,3.3,0,0,1,0-6.6H236a3.3,3.3,0,1,1,0,6.6Z"/></g></svg>