<?xml version="1.0" encoding="utf-8"?>
<!-- Generator: Adobe Illustrator 23.0.1, SVG Export Plug-In . SVG Version: 6.00 Build 0)  -->
<svg version="1.1" id="Contenido" xmlns="http://www.w3.org/2000/svg" xmlns:xlink="http://www.w3.org/1999/xlink" x="0px" y="0px"
	 viewBox="0 0 600 600" style="enable-background:new 0 0 600 600;" xml:space="preserve">
<style type="text/css">
	.st0{fill:url(#SVGID_1_);}
	.st1{fill:#004481;}
	.st2{fill:#BAE6E8;}
	.st3{fill:url(#SVGID_2_);}
	.st4{fill:#02A5A5;}
	.st5{fill:#49A5E6;}
	.st6{fill:#1464A5;}
	.st7{fill:url(#SVGID_3_);}
	.st8{fill:#5AC4C4;}
</style>
<title>_</title>
<linearGradient id="SVGID_1_" gradientUnits="userSpaceOnUse" x1="210.52" y1="406.7263" x2="401.4365" y2="47.674" gradientTransform="matrix(1 0 0 -1 0 602)">
	<stop  offset="0" style="stop-color:#192647"/>
	<stop  offset="0" style="stop-color:#192647;stop-opacity:0.5"/>
	<stop  offset="1" style="stop-color:#192647;stop-opacity:0"/>
</linearGradient>
<path class="st0" d="M502.6,401.1l-45.1-79.7c-0.5-0.9-1.5-1.5-2.6-1.5H351.8v-63.7l0,0v-82.5l0.1-0.1l-7.8-7.8l-7.8,7.8l0,0
	l-7.8-7.8l-7.8,7.8l0,0l-7.8-7.8l-7.8,7.8l0,0l-7.8-7.8l-7.8,7.8l0,0l-7.8-7.8l-7.8,7.8h-0.4l-7.8-7.8l-7.8,7.8h-0.2v101.9h-31.2
	c-7.4,0-13.3,6-13.3,13.3l0.1,31h-11.5c-1.6,0-2.9,1.2-3,2.8L153.4,403c-0.8,1.4-0.3,3.3,1.1,4.1c0.5,0.3,1,0.4,1.5,0.4h42.8v103.6
	c0,12.7,10.3,23,23,23h211.8c4.6,0,9.1-1.4,12.9-3.9l0.9-0.6c5.8-4.3,9.2-11.2,9.2-18.4V405.6H500c1.7,0,3-1.3,3-3
	C503,402.1,502.9,401.6,502.6,401.1z"/>
<path class="st1" d="M106.5,358.8h241.2l38.5-85.7H149.8l-46,81.2c-0.8,1.4-0.3,3.3,1.1,4.1C105.4,358.7,106,358.8,106.5,358.8z"/>
<path class="st2" d="M224.5,125H224l-7.8-7.8l-7.7,7.8h-0.2v193.6h82.8c6.1,0,11.1-5,11.1-11.1c0,0,0,0,0,0c0-0.1,0-0.1,0-0.2V125
	l0.1-0.1l-7.8-7.8l-7.8,7.8l0,0l-7.8-7.8l-7.8,7.8l0,0l-7.8-7.8l-7.8,7.8l0,0l-7.8-7.8L240,125l0,0l-7.8-7.8L224.5,125z"/>
<linearGradient id="SVGID_2_" gradientUnits="userSpaceOnUse" x1="2093.5801" y1="-825.175" x2="2199.2" y2="-825.175" gradientTransform="matrix(6.123234e-17 -1 -1 -6.123234e-17 -569.88 2409.2)">
	<stop  offset="0" style="stop-color:#028484"/>
	<stop  offset="1" style="stop-color:#028484;stop-opacity:0"/>
</linearGradient>
<path class="st3" d="M302.2,207.5h-93.9v111.1h82.8c6.1,0,11.1-5,11.1-11.1c0-0.1,0-0.1,0-0.2"/>
<path class="st4" d="M257.8,238.1v80.5h33.3c-6.1,0-11.1-5-11.1-11.1c0,0,0,0,0,0v-69.4c0-6.1-5-11.1-11.1-11.1
	C262.8,227,257.8,232,257.8,238.1L257.8,238.1L257.8,238.1z"/>
<path class="st5" d="M152.3,271.2c-1.7,0-3,1.3-3,3v188.2c0,12.7,10.3,23,23,23h99.5V271.2H152.3z"/>
<path class="st6" d="M403.3,271.2H271.8v214.2h112.3c12.7,0,23-10.3,23-23V275C407.1,272.9,405.4,271.2,403.3,271.2z"/>
<linearGradient id="SVGID_3_" gradientUnits="userSpaceOnUse" x1="407.12" y1="223.665" x2="278" y2="223.665" gradientTransform="matrix(1 0 0 -1 0 602)">
	<stop  offset="0" style="stop-color:#043263;stop-opacity:0.4"/>
	<stop  offset="1" style="stop-color:#043263;stop-opacity:0"/>
</linearGradient>
<path class="st7" d="M403.3,271.2h-7.2L278,485.5h106.1c12.7,0,23-10.3,23-23V275C407.1,272.9,405.4,271.2,403.3,271.2z"/>
<g>
	<path class="st8" d="M284.6,149.6h-60.7c-1.8,0-3.3-1.5-3.3-3.3s1.5-3.3,3.3-3.3h60.7c1.8,0,3.3,1.5,3.3,3.3
		S286.4,149.6,284.6,149.6z"/>
</g>
<g>
	<path class="st8" d="M284.6,164.5h-60.7c-1.8,0-3.3-1.5-3.3-3.3s1.5-3.3,3.3-3.3h60.7c1.8,0,3.3,1.5,3.3,3.3
		S286.4,164.5,284.6,164.5z"/>
</g>
<g>
	<path class="st8" d="M284.9,179.4h-60.8c-1.8,0-3.3-1.5-3.3-3.3s1.5-3.3,3.3-3.3h60.8c1.8,0,3.3,1.5,3.3,3.3
		S286.7,179.4,284.9,179.4z"/>
</g>
<g>
	<path class="st8" d="M284.6,194.4h-60.7c-1.8,0-3.3-1.5-3.3-3.3s1.5-3.3,3.3-3.3h60.7c1.8,0,3.3,1.5,3.3,3.3
		S286.4,194.4,284.6,194.4z"/>
</g>
<g>
	<path class="st8" d="M258.1,209.3h-34.2c-1.8,0-3.3-1.5-3.3-3.3s1.5-3.3,3.3-3.3h34.2c1.8,0,3.3,1.5,3.3,3.3
		S259.9,209.3,258.1,209.3z"/>
</g>
<path class="st1" d="M450.5,356.9H322.1c-1.1,0-2.1-0.6-2.6-1.5l-47.6-84.2h133.5c1.1,0,2.1,0.6,2.6,1.5l45.1,79.7
	c0.8,1.4,0.3,3.3-1.1,4.1C451.5,356.8,451,356.9,450.5,356.9z"/>
<path class="st2" d="M268.9,226.9h-91.8c-7.4,0-13.3,6-13.3,13.3c0,0,0,0,0,0l0.1,95.6h0.1v20.6l-0.1,0.1l7.8,7.8l7.8-7.8l0,0
	l7.8,7.8l7.8-7.8l0,0l7.8,7.8l7.8-7.8l0,0l7.8,7.8l7.8-7.8l0,0l7.8,7.8l7.8-7.8h0.4l7.8,7.8l7.8-7.8h0.2V246.9h-0.1V238
	C257.8,231.9,262.8,226.9,268.9,226.9z"/>
<g>
	<path class="st8" d="M240.9,258.9h-60.7c-1.8,0-3.3-1.5-3.3-3.3s1.5-3.3,3.3-3.3h60.7c1.8,0,3.3,1.5,3.3,3.3
		S242.7,258.9,240.9,258.9z"/>
</g>
<g>
	<path class="st8" d="M216.4,273.7h-36.2c-1.8,0-3.3-1.5-3.3-3.3s1.5-3.3,3.3-3.3h36.2c1.8,0,3.3,1.5,3.3,3.3
		S218.2,273.7,216.4,273.7z"/>
</g>
<g>
	<path class="st8" d="M216.4,303.6h-36.2c-1.8,0-3.3-1.5-3.3-3.3s1.5-3.3,3.3-3.3h36.2c1.8,0,3.3,1.5,3.3,3.3
		S218.2,303.6,216.4,303.6z"/>
</g>
<g>
	<path class="st8" d="M214.4,318.5h-34.2c-1.8,0-3.3-1.5-3.3-3.3s1.5-3.3,3.3-3.3h34.2c1.8,0,3.3,1.5,3.3,3.3
		S216.2,318.5,214.4,318.5z"/>
</g>
</svg>
