<?xml version="1.0" encoding="utf-8"?>
<!-- Generator: Adobe Illustrator 23.0.1, SVG Export Plug-In . SVG Version: 6.00 Build 0)  -->
<svg version="1.1" id="Contenido" xmlns="http://www.w3.org/2000/svg" xmlns:xlink="http://www.w3.org/1999/xlink" x="0px" y="0px"
	 viewBox="0 0 600 600" style="enable-background:new 0 0 600 600;" xml:space="preserve">
<style type="text/css">
	.st0{fill:url(#SVGID_1_);}
	.st1{fill:#1464A5;}
	.st2{fill:#043263;}
	.st3{fill:#2DCCCD;}
	.st4{fill:#49A5E6;}
	.st5{opacity:0.5;fill:url(#SVGID_2_);enable-background:new    ;}
	.st6{opacity:0.5;fill:url(#SVGID_3_);enable-background:new    ;}
	.st7{fill:#EAF9FA;}
	.st8{fill:#F8CD51;}
	.st9{fill:url(#SVGID_4_);}
	.st10{fill:#FEF5DC;}
</style>
<title>_</title>
<linearGradient id="SVGID_1_" gradientUnits="userSpaceOnUse" x1="282.4743" y1="409.775" x2="451.4787" y2="91.9267" gradientTransform="matrix(1 0 0 -1 0 602)">
	<stop  offset="0" style="stop-color:#192647"/>
	<stop  offset="0" style="stop-color:#192647;stop-opacity:0.5"/>
	<stop  offset="1" style="stop-color:#192647;stop-opacity:0"/>
</linearGradient>
<path class="st0" d="M562.5,244.1c0.3-31.2-24.8-56.7-56-57s-56.7,24.8-57,56h-257c-12.7,0-23,10.3-23,23l0,0v10c0,1.7,1.3,3,3,3h9
	v170h-4c-4.4,0-8,3.6-8,8v12h359v-12c0-4.4-3.6-8-8-8h-4V299.6C543.2,294.6,562.5,271.3,562.5,244.1z"/>
<rect x="131" y="229.5" class="st1" width="335" height="170"/>
<path class="st2" d="M142,193.5h313c12.7,0,23,10.3,23,23v10c0,1.7-1.3,3-3,3H122c-1.7,0-3-1.3-3-3v-10
	C119,203.8,129.3,193.5,142,193.5z"/>
<path class="st3" d="M127,399.5h343c4.4,0,8,3.6,8,8v12l0,0H119l0,0v-12C119,403.1,122.6,399.5,127,399.5z"/>
<path class="st4" d="M164,259.5h146c1.7,0,3,1.3,3,3v104c0,1.7-1.3,3-3,3H164c-1.7,0-3-1.3-3-3v-104
	C161,260.8,162.3,259.5,164,259.5z"/>
<linearGradient id="SVGID_2_" gradientUnits="userSpaceOnUse" x1="159.7916" y1="339.5908" x2="233.0412" y2="266.3412" gradientTransform="matrix(1 0 0 -1 0 602)">
	<stop  offset="0" style="stop-color:#FFFFFF;stop-opacity:0.5"/>
	<stop  offset="1" style="stop-color:#E8F7F8;stop-opacity:0.2"/>
	<stop  offset="1" style="stop-color:#FFFFFF;stop-opacity:0"/>
</linearGradient>
<path class="st5" d="M164,259.5c-1.6,0-3,1.3-3,2.9v104.3c0,1.6,1.4,2.9,3,2.9c0,0,0,0,0,0h35.2l61.8-110L164,259.5z"/>
<path class="st4" d="M346,259.5h86c1.7,0,3,1.3,3,3v137l0,0h-92l0,0v-137C343,260.8,344.3,259.5,346,259.5z"/>
<linearGradient id="SVGID_3_" gradientUnits="userSpaceOnUse" x1="329.8187" y1="327.6413" x2="404.715" y2="252.745" gradientTransform="matrix(1 0 0 -1 0 602)">
	<stop  offset="0" style="stop-color:#FFFFFF;stop-opacity:0.5"/>
	<stop  offset="1" style="stop-color:#E8F7F8;stop-opacity:0.2"/>
	<stop  offset="1" style="stop-color:#FFFFFF;stop-opacity:0"/>
</linearGradient>
<path class="st6" d="M345.9,259.5c-1.7,0-3,1.3-3,3v137h11.5l72.5-140H345.9z"/>
<rect x="387" y="259.5" class="st1" width="4" height="140"/>
<g>
	<path class="st7" d="M379,339.5c-1.1,0-2-0.9-2-2v-16c0-1.1,0.9-2,2-2s2,0.9,2,2v16C381,338.6,380.1,339.5,379,339.5z"/>
</g>
<g>
	<path class="st7" d="M399,339.5c-1.1,0-2-0.9-2-2v-16c0-1.1,0.9-2,2-2s2,0.9,2,2v16C401,338.6,400.1,339.5,399,339.5z"/>
</g>
<path class="st8" d="M512,194.5c0,31.2-25.3,56.5-56.5,56.5S399,225.7,399,194.5c0-31.2,25.2-56.5,56.4-56.5l0,0
	C486.6,138,512,163.2,512,194.5C512,194.5,512,194.5,512,194.5"/>
<linearGradient id="SVGID_4_" gradientUnits="userSpaceOnUse" x1="408.5835" y1="32.4765" x2="455.3935" y2="7.5966" gradientTransform="matrix(1 0 0 -1 0 202)">
	<stop  offset="0" style="stop-color:#FADE8E"/>
	<stop  offset="1" style="stop-color:#FADE8E;stop-opacity:0.4"/>
</linearGradient>
<path class="st9" d="M482,144.6c-27.5-14.6-61.7-4.2-76.4,23.4c-14.6,27.5-4.2,61.7,23.4,76.4L482,144.6z"/>
<path class="st10" d="M435.7,192.4H428v-5.8h8.4c2.3-13.1,10.5-19,19.9-19c10,0,15.2,5.1,17.8,11.5l-7.3,4.2
	c-1.8-5.5-5-8.1-10.5-8.1c-5.8,0-9.9,3.7-11.4,11.4h13.1v5.8h-13.7v1.8c0,1,0,2.1,0.1,3H458v5.9h-13c1.5,7.2,5.1,10.9,11.4,10.9
	c5.4,0,8.7-2.4,10.7-8.5l7.2,4.3c-2.9,6.8-9,11.6-18,11.6c-9.8,0-17.5-5.8-19.9-18.3H428v-5.9h7.8c-0.1-0.9-0.1-1.9-0.1-2.9
	L435.7,192.4L435.7,192.4z"/>
</svg>
