<svg xmlns="http://www.w3.org/2000/svg" xmlns:xlink="http://www.w3.org/1999/xlink" viewBox="0 0 600 600"><defs><style>.cls-1{fill:none;}.cls-2{fill:url(#Degradado_sin_nombre_59);}.cls-3{fill:#004481;}.cls-4{fill:#043263;}.cls-5{fill:#2dcccd;}.cls-6{fill:#49a5e6;}.cls-7,.cls-8{opacity:0.5;isolation:isolate;}.cls-7{fill:url(#Degradado_sin_nombre_3);}.cls-8{fill:url(#Degradado_sin_nombre_3-2);}.cls-9{fill:#1464a5;}.cls-10{fill:#eaf9fa;}</style><linearGradient id="Degradado_sin_nombre_59" x1="227.1" y1="-4207.67" x2="435.67" y2="-4599.95" gradientTransform="matrix(1, 0, 0, -1, 0, -4008)" gradientUnits="userSpaceOnUse"><stop offset="0" stop-color="#192647" stop-opacity="0.5"/><stop offset="1" stop-color="#192647" stop-opacity="0"/></linearGradient><linearGradient id="Degradado_sin_nombre_3" x1="115.33" y1="-4285.7" x2="205.72" y2="-4376.08" gradientTransform="matrix(1, 0, 0, -1, 0, -4008)" gradientUnits="userSpaceOnUse"><stop offset="0" stop-color="#fff" stop-opacity="0.5"/><stop offset="1" stop-color="#e8f7f8" stop-opacity="0.2"/><stop offset="1" stop-color="#fff" stop-opacity="0"/></linearGradient><linearGradient id="Degradado_sin_nombre_3-2" x1="325.2" y1="-4300.5" x2="417.6" y2="-4392.9" xlink:href="#Degradado_sin_nombre_3"/></defs><title>8</title><g id="Cuadrados_Blancos" data-name="Cuadrados Blancos"><rect class="cls-1" width="600" height="600"/></g><g id="Capa_1" data-name="Capa 1"><path class="cls-2" d="M551.3,294a3.76,3.76,0,0,0,3.7-3.7h0V278a28.38,28.38,0,0,0-28.4-28.4H140.3A28.38,28.38,0,0,0,111.9,278v12.3a3.76,3.76,0,0,0,3.7,3.7h11.1V503.8h-4.9a9.86,9.86,0,0,0-9.9,9.9v14.8H555V513.7a9.86,9.86,0,0,0-9.9-9.9h-4.9V294Z"/><rect class="cls-3" x="79.8" y="237.1" width="413.4" height="209.8"/><path class="cls-4" d="M93.4,192.6H479.7A28.38,28.38,0,0,1,508.1,221v12.3a3.76,3.76,0,0,1-3.7,3.7H68.7a3.76,3.76,0,0,1-3.7-3.7V221a28.38,28.38,0,0,1,28.4-28.4Z"/><path class="cls-5" d="M74.9,446.9H498.2a9.86,9.86,0,0,1,9.9,9.9v14.8H65V456.8A9.86,9.86,0,0,1,74.9,446.9Z"/><path class="cls-6" d="M120.5,274.1H300.7a3.76,3.76,0,0,1,3.7,3.7V406.2a3.76,3.76,0,0,1-3.7,3.7H120.5a3.76,3.76,0,0,1-3.7-3.7V277.8A3.76,3.76,0,0,1,120.5,274.1Z"/><path class="cls-7" d="M120.5,274.1a3.65,3.65,0,0,0-3.7,3.5h0V406.3a3.53,3.53,0,0,0,3.7,3.5H164L240.2,274H120.5Z"/><path class="cls-6" d="M345.1,274.1H451.2a3.76,3.76,0,0,1,3.7,3.7h0V446.9H341.5V277.8A3.67,3.67,0,0,1,345.1,274.1Z"/><path class="cls-8" d="M345.1,274.1a3.76,3.76,0,0,0-3.7,3.7V446.9h14.2L445,274.1Z"/><rect class="cls-9" x="395.8" y="274.1" width="4.9" height="172.8"/><path class="cls-10" d="M385.9,372.9a2.48,2.48,0,0,1-2.5-2.5V350.6a2.5,2.5,0,0,1,5,0v19.8A2.48,2.48,0,0,1,385.9,372.9Z"/><path class="cls-10" d="M410.6,372.9a2.48,2.48,0,0,1-2.5-2.5V350.6a2.5,2.5,0,0,1,5,0v19.8A2.48,2.48,0,0,1,410.6,372.9Z"/></g></svg>