<?xml version="1.0" encoding="utf-8"?>
<!-- Generator: Adobe Illustrator 23.0.1, SVG Export Plug-In . SVG Version: 6.00 Build 0)  -->
<svg version="1.1" id="Capa_1" xmlns="http://www.w3.org/2000/svg" xmlns:xlink="http://www.w3.org/1999/xlink" x="0px" y="0px"
	 viewBox="0 0 600 600" style="enable-background:new 0 0 600 600;" xml:space="preserve">
<style type="text/css">
	.st0{fill:url(#SVGID_1_);}
	.st1{fill:#1464A5;}
	.st2{fill:#043263;}
	.st3{fill:#2DCCCD;}
	.st4{fill:#49A5E6;}
	.st5{opacity:0.5;fill:url(#SVGID_2_);enable-background:new    ;}
	.st6{opacity:0.5;fill:url(#SVGID_3_);enable-background:new    ;}
	.st7{fill:#EAF9FA;}
</style>
<title>Mesa de trabajo 1 copia 42</title>
<g>
	<g>
		
			<linearGradient id="SVGID_1_" gradientUnits="userSpaceOnUse" x1="237.0967" y1="551.6724" x2="445.6696" y2="943.9479" gradientTransform="matrix(1 0 0 1 0 -400)">
			<stop  offset="0" style="stop-color:#192647"/>
			<stop  offset="0" style="stop-color:#192647;stop-opacity:0.5"/>
			<stop  offset="1" style="stop-color:#192647;stop-opacity:0"/>
		</linearGradient>
		<path class="st0" d="M561.3,246c2,0,3.7-1.7,3.7-3.7l0,0V230c0-15.7-12.7-28.4-28.4-28.4l0,0H150.3c-15.7,0-28.4,12.7-28.4,28.4
			v12.3c0,2,1.7,3.7,3.7,3.7h11.1v209.8h-4.9c-5.5,0-9.9,4.4-9.9,9.9v14.8H565v-14.8c0-5.5-4.4-9.9-9.9-9.9h-4.9V246H561.3z"/>
		<rect x="73.8" y="183.1" class="st1" width="413.4" height="209.8"/>
		<path class="st2" d="M87.4,138.6h386.3c15.7,0,28.4,12.7,28.4,28.4v12.3c0,2-1.7,3.7-3.7,3.7l0,0H62.7c-2,0-3.7-1.7-3.7-3.7V167
			C59,151.3,71.7,138.6,87.4,138.6L87.4,138.6z"/>
		<path class="st3" d="M68.9,392.9h423.3c5.5,0,9.9,4.4,9.9,9.9v14.8l0,0H59l0,0v-14.8C59,397.3,63.4,392.9,68.9,392.9z"/>
		<path class="st4" d="M114.5,220.1h180.2c2,0,3.7,1.7,3.7,3.7v128.4c0,2-1.7,3.7-3.7,3.7H114.5c-2,0-3.7-1.7-3.7-3.7V223.8
			C110.8,221.8,112.5,220.1,114.5,220.1z"/>
		
			<linearGradient id="SVGID_2_" gradientUnits="userSpaceOnUse" x1="109.3328" y1="623.7026" x2="199.7151" y2="714.0848" gradientTransform="matrix(1 0 0 1 0 -400)">
			<stop  offset="0" style="stop-color:#FFFFFF;stop-opacity:0.5"/>
			<stop  offset="1" style="stop-color:#E8F7F8;stop-opacity:0.2"/>
			<stop  offset="1" style="stop-color:#FFFFFF;stop-opacity:0"/>
		</linearGradient>
		<path class="st5" d="M114.5,220.1c-2,0-3.6,1.5-3.7,3.5l0,0v128.7c0,2,1.7,3.6,3.7,3.5l0,0H158L234.2,220H114.5V220.1z"/>
		<path class="st4" d="M339.1,220.1h106.1c2,0,3.7,1.7,3.7,3.7l0,0v169.1l0,0H335.5l0,0V223.8C335.5,221.8,337.1,220.1,339.1,220.1z
			"/>
		
			<linearGradient id="SVGID_3_" gradientUnits="userSpaceOnUse" x1="319.2" y1="638.5" x2="411.6" y2="730.9" gradientTransform="matrix(1 0 0 1 0 -400)">
			<stop  offset="0" style="stop-color:#FFFFFF;stop-opacity:0.5"/>
			<stop  offset="1" style="stop-color:#E8F7F8;stop-opacity:0.2"/>
			<stop  offset="1" style="stop-color:#FFFFFF;stop-opacity:0"/>
		</linearGradient>
		<path class="st6" d="M339.1,220.1c-2,0-3.7,1.7-3.7,3.7v169.1h14.2L439,220.1L339.1,220.1L339.1,220.1z"/>
		<rect x="389.8" y="220.1" class="st1" width="4.9" height="172.8"/>
		<g>
			<path class="st7" d="M379.9,318.9c-1.4,0-2.5-1.1-2.5-2.5v-19.8c0-1.4,1.1-2.5,2.5-2.5s2.5,1.1,2.5,2.5v19.8
				C382.4,317.8,381.3,318.9,379.9,318.9z"/>
		</g>
		<g>
			<path class="st7" d="M404.6,318.9c-1.4,0-2.5-1.1-2.5-2.5v-19.8c0-1.4,1.1-2.5,2.5-2.5s2.5,1.1,2.5,2.5v19.8
				C407.1,317.8,406,318.9,404.6,318.9z"/>
		</g>
	</g>
</g>
</svg>
