<svg xmlns="http://www.w3.org/2000/svg" xmlns:xlink="http://www.w3.org/1999/xlink" viewBox="0 0 600 600"><defs><style>.cls-1{fill:none;}.cls-2{fill:url(#Degradado_sin_nombre_67);}.cls-3{fill:#004481;}.cls-4{fill:#043263;}.cls-5{fill:#2dcccd;}.cls-6{fill:#49a5e6;}.cls-7,.cls-8{opacity:0.5;isolation:isolate;}.cls-7{fill:url(#Degradado_sin_nombre_3);}.cls-8{fill:url(#Degradado_sin_nombre_3-2);}.cls-9{fill:#1464a5;}.cls-10{fill:#eaf9fa;}.cls-11{fill:#f8cd51;}.cls-12{fill:url(#Degradado_sin_nombre_4);}.cls-13{fill:#fef5dc;}</style><linearGradient id="Degradado_sin_nombre_67" x1="251.14" y1="184.74" x2="459.27" y2="576.18" gradientTransform="translate(0 2)" gradientUnits="userSpaceOnUse"><stop offset="0" stop-color="#192647" stop-opacity="0.5"/><stop offset="1" stop-color="#192647" stop-opacity="0"/></linearGradient><linearGradient id="Degradado_sin_nombre_3" x1="115.33" y1="-4285.7" x2="205.72" y2="-4376.08" gradientTransform="matrix(1, 0, 0, -1, 0, -4008)" gradientUnits="userSpaceOnUse"><stop offset="0" stop-color="#fff" stop-opacity="0.5"/><stop offset="1" stop-color="#e8f7f8" stop-opacity="0.2"/><stop offset="1" stop-color="#fff" stop-opacity="0"/></linearGradient><linearGradient id="Degradado_sin_nombre_3-2" x1="325.2" y1="-4300.5" x2="417.6" y2="-4392.9" xlink:href="#Degradado_sin_nombre_3"/><linearGradient id="Degradado_sin_nombre_4" x1="406.74" y1="549.77" x2="481.31" y2="589.4" gradientTransform="translate(0 -398)" gradientUnits="userSpaceOnUse"><stop offset="0" stop-color="#fade8e"/><stop offset="1" stop-color="#fade8e" stop-opacity="0.4"/></linearGradient></defs><title>8</title><g id="Cuadrados_Blancos" data-name="Cuadrados Blancos"><rect class="cls-1" width="600" height="600"/></g><g id="Capa_4" data-name="Capa 4"><path class="cls-2" d="M596,250.65a69.59,69.59,0,1,0-139.17-1.23H140.33A28.33,28.33,0,0,0,112,277.75h0v12.31a3.63,3.63,0,0,0,3.7,3.69h11.08V503.12h-4.93A9.88,9.88,0,0,0,112,513v14.78H554.12V513a9.88,9.88,0,0,0-9.85-9.85h-4.92V319A69.45,69.45,0,0,0,596,250.65Z"/><rect class="cls-3" x="79.8" y="237.1" width="413.4" height="209.8"/><path class="cls-4" d="M93.4,192.6H479.7A28.38,28.38,0,0,1,508.1,221v12.3a3.76,3.76,0,0,1-3.7,3.7H68.7a3.76,3.76,0,0,1-3.7-3.7V221a28.38,28.38,0,0,1,28.4-28.4Z"/><path class="cls-5" d="M74.9,446.9H498.2a9.86,9.86,0,0,1,9.9,9.9v14.8H65V456.8A9.86,9.86,0,0,1,74.9,446.9Z"/><path class="cls-6" d="M120.5,274.1H300.7a3.76,3.76,0,0,1,3.7,3.7V406.2a3.76,3.76,0,0,1-3.7,3.7H120.5a3.76,3.76,0,0,1-3.7-3.7V277.8A3.76,3.76,0,0,1,120.5,274.1Z"/><path class="cls-7" d="M120.5,274.1a3.65,3.65,0,0,0-3.7,3.5h0V406.3a3.53,3.53,0,0,0,3.7,3.5H164L240.2,274H120.5Z"/><path class="cls-6" d="M345.1,274.1H451.2a3.76,3.76,0,0,1,3.7,3.7h0V446.9H341.5V277.8A3.67,3.67,0,0,1,345.1,274.1Z"/><path class="cls-8" d="M345.1,274.1a3.76,3.76,0,0,0-3.7,3.7V446.9h14.2L445,274.1Z"/><rect class="cls-9" x="395.8" y="274.1" width="4.9" height="172.8"/><path class="cls-10" d="M385.9,372.9a2.48,2.48,0,0,1-2.5-2.5V350.6a2.5,2.5,0,0,1,5,0v19.8A2.48,2.48,0,0,1,385.9,372.9Z"/><path class="cls-10" d="M410.6,372.9a2.48,2.48,0,0,1-2.5-2.5V350.6a2.5,2.5,0,0,1,5,0v19.8A2.48,2.48,0,0,1,410.6,372.9Z"/><path class="cls-11" d="M571.5,191.5a90,90,0,1,1-90.16-90h0a90,90,0,0,1,90.16,90h0"/><path class="cls-12" d="M523.71,112a90,90,0,0,0-84.42,159Z"/><path class="cls-13" d="M450,188.16H437.7v-9.24h13.38c3.66-20.87,16.72-30.27,31.7-30.27,15.92,0,24.21,8.13,28.35,18.32l-11.63,6.69c-2.87-8.76-8-12.9-16.72-12.9-9.24,0-15.77,5.89-18.16,18.16h20.86v9.24H463.66V191a46,46,0,0,0,.16,4.78h21.66v9.4h-20.7c2.39,11.47,8.12,17.36,18.15,17.36,8.61,0,13.86-3.82,17.05-13.54l11.47,6.85c-4.62,10.83-14.34,18.48-28.67,18.48-15.61,0-27.88-9.24-31.7-29.15H437.7v-9.4h12.42a43,43,0,0,1-.16-4.62v-3Z"/></g></svg>