<?xml version="1.0" encoding="utf-8"?>
<!-- Generator: Adobe Illustrator 23.0.1, SVG Export Plug-In . SVG Version: 6.00 Build 0)  -->
<svg version="1.1" id="Contenido" xmlns="http://www.w3.org/2000/svg" xmlns:xlink="http://www.w3.org/1999/xlink" x="0px" y="0px"
	 viewBox="0 0 600 600" style="enable-background:new 0 0 600 600;" xml:space="preserve">
<style type="text/css">
	.st0{fill:url(#SVGID_1_);}
	.st1{fill:#1464A5;}
	.st2{fill:#043263;}
	.st3{fill:#2DCCCD;}
	.st4{fill:#49A5E6;}
	.st5{opacity:0.5;fill:url(#SVGID_2_);enable-background:new    ;}
	.st6{opacity:0.5;fill:url(#SVGID_3_);enable-background:new    ;}
	.st7{fill:#EAF9FA;}
	.st8{fill:#F8CD51;}
	.st9{fill:url(#SVGID_4_);}
	.st10{fill:#FEF5DC;}
</style>
<title>_</title>
<linearGradient id="SVGID_1_" gradientUnits="userSpaceOnUse" x1="282.4743" y1="409.775" x2="451.4787" y2="91.9267" gradientTransform="matrix(1 0 0 -1 0 602)">
	<stop  offset="0" style="stop-color:#192647"/>
	<stop  offset="0" style="stop-color:#192647;stop-opacity:0.5"/>
	<stop  offset="1" style="stop-color:#192647;stop-opacity:0"/>
</linearGradient>
<path class="st0" d="M562.5,244.1c0.3-31.2-24.8-56.7-56-57s-56.7,24.8-57,56h-257c-12.7,0-23,10.3-23,23l0,0v10c0,1.7,1.3,3,3,3h9
	v170h-4c-4.4,0-8,3.6-8,8v12h359v-12c0-4.4-3.6-8-8-8h-4V299.6C543.2,294.6,562.5,271.3,562.5,244.1z"/>
<rect x="131" y="229.5" class="st1" width="335" height="170"/>
<path class="st2" d="M142,193.5h313c12.7,0,23,10.3,23,23v10c0,1.7-1.3,3-3,3H122c-1.7,0-3-1.3-3-3v-10
	C119,203.8,129.3,193.5,142,193.5z"/>
<path class="st3" d="M127,399.5h343c4.4,0,8,3.6,8,8v12l0,0H119l0,0v-12C119,403.1,122.6,399.5,127,399.5z"/>
<path class="st4" d="M164,259.5h146c1.7,0,3,1.3,3,3v104c0,1.7-1.3,3-3,3H164c-1.7,0-3-1.3-3-3v-104
	C161,260.8,162.3,259.5,164,259.5z"/>
<linearGradient id="SVGID_2_" gradientUnits="userSpaceOnUse" x1="159.7916" y1="339.5908" x2="233.0412" y2="266.3412" gradientTransform="matrix(1 0 0 -1 0 602)">
	<stop  offset="0" style="stop-color:#FFFFFF;stop-opacity:0.5"/>
	<stop  offset="1" style="stop-color:#E8F7F8;stop-opacity:0.2"/>
	<stop  offset="1" style="stop-color:#FFFFFF;stop-opacity:0"/>
</linearGradient>
<path class="st5" d="M164,259.5c-1.6,0-3,1.3-3,2.9v104.3c0,1.6,1.4,2.9,3,2.9c0,0,0,0,0,0h35.2l61.8-110L164,259.5z"/>
<path class="st4" d="M346,259.5h86c1.7,0,3,1.3,3,3v137l0,0h-92l0,0v-137C343,260.8,344.3,259.5,346,259.5z"/>
<linearGradient id="SVGID_3_" gradientUnits="userSpaceOnUse" x1="329.8187" y1="327.6413" x2="404.715" y2="252.745" gradientTransform="matrix(1 0 0 -1 0 602)">
	<stop  offset="0" style="stop-color:#FFFFFF;stop-opacity:0.5"/>
	<stop  offset="1" style="stop-color:#E8F7F8;stop-opacity:0.2"/>
	<stop  offset="1" style="stop-color:#FFFFFF;stop-opacity:0"/>
</linearGradient>
<path class="st6" d="M345.9,259.5c-1.7,0-3,1.3-3,3v137h11.5l72.5-140H345.9z"/>
<rect x="387" y="259.5" class="st1" width="4" height="140"/>
<g>
	<path class="st7" d="M379,339.5c-1.1,0-2-0.9-2-2v-16c0-1.1,0.9-2,2-2s2,0.9,2,2v16C381,338.6,380.1,339.5,379,339.5z"/>
</g>
<g>
	<path class="st7" d="M399,339.5c-1.1,0-2-0.9-2-2v-16c0-1.1,0.9-2,2-2s2,0.9,2,2v16C401,338.6,400.1,339.5,399,339.5z"/>
</g>
<path class="st8" d="M511.8,193.7c0,31.2-25.3,56.5-56.5,56.5c-31.2,0-56.5-25.3-56.5-56.5c0-31.2,25.3-56.5,56.5-56.5l0,0
	C486.4,137.2,511.7,162.5,511.8,193.7C511.8,193.7,511.8,193.7,511.8,193.7"/>
<linearGradient id="SVGID_4_" gradientUnits="userSpaceOnUse" x1="408.3433" y1="33.2461" x2="455.1533" y2="8.3561" gradientTransform="matrix(1 0 0 -1 0 202)">
	<stop  offset="0" style="stop-color:#FADE8E"/>
	<stop  offset="1" style="stop-color:#FADE8E;stop-opacity:0.4"/>
</linearGradient>
<path class="st9" d="M481.7,143.8c-27.5-14.6-61.7-4.2-76.4,23.4s-4.2,61.7,23.4,76.4L481.7,143.8z"/>
<path class="st10" d="M462.2,204.9c0-3.7-1.5-5.2-8.5-8.4c-10.1-4.6-13.1-8.1-13.1-15.1s5.7-12,11.4-13.4v-8.6h0.3l8.3,3.7v4.7
	c2.6,0.4,5.2,1.3,7.5,2.6l0.4,0.2l0.3,0.2l-0.1,0.3l-0.1,0.5l-1.1,6.5l-0.2,1.2l-0.2,0.9l-0.7-0.5l-1-0.8c-2.7-2.1-5.9-3.3-9.3-3.3
	c-4.4,0-6.7,1.9-6.7,5.2c0,3.1,1.5,4.5,8.4,7.7c10.2,4.6,13.4,8.3,13.4,15.9c-0.1,6.5-4.4,12.2-10.6,14v9.9h-0.7l-7.9-4.4V219
	c-3.9-0.5-7.7-1.6-11.3-3.2l-0.5-0.2l-0.3-0.2v-0.3l0.1-0.6l0.9-6.7l0.2-1.2l0.1-0.8l0.6,0.5l0.9,0.6c3.5,2.4,7.7,3.8,12,3.9
	C459.3,210.9,462.2,208.6,462.2,204.9"/>
</svg>
