<svg xmlns="http://www.w3.org/2000/svg" xmlns:xlink="http://www.w3.org/1999/xlink" viewBox="0 0 600 600"><defs><style>.cls-1{fill:none;}.cls-2{fill:url(#Degradado_sin_nombre_65);}.cls-3{fill:#004481;}.cls-4{fill:#043263;}.cls-5{fill:#2dcccd;}.cls-6{fill:#49a5e6;}.cls-7,.cls-8{opacity:0.5;isolation:isolate;}.cls-7{fill:url(#Degradado_sin_nombre_3);}.cls-8{fill:url(#Degradado_sin_nombre_3-2);}.cls-9{fill:#1464a5;}.cls-10{fill:#eaf9fa;}.cls-11{fill:#f8cd51;}.cls-12{fill:url(#Degradado_sin_nombre_4);}.cls-13{fill:#fef5dc;}</style><linearGradient id="Degradado_sin_nombre_65" x1="251.14" y1="184.74" x2="459.27" y2="576.18" gradientTransform="translate(0 2)" gradientUnits="userSpaceOnUse"><stop offset="0" stop-color="#192647" stop-opacity="0.5"/><stop offset="1" stop-color="#192647" stop-opacity="0"/></linearGradient><linearGradient id="Degradado_sin_nombre_3" x1="115.33" y1="-4285.7" x2="205.72" y2="-4376.08" gradientTransform="matrix(1, 0, 0, -1, 0, -4008)" gradientUnits="userSpaceOnUse"><stop offset="0" stop-color="#fff" stop-opacity="0.5"/><stop offset="1" stop-color="#e8f7f8" stop-opacity="0.2"/><stop offset="1" stop-color="#fff" stop-opacity="0"/></linearGradient><linearGradient id="Degradado_sin_nombre_3-2" x1="325.2" y1="-4300.5" x2="417.6" y2="-4392.9" xlink:href="#Degradado_sin_nombre_3"/><linearGradient id="Degradado_sin_nombre_4" x1="406.78" y1="550.48" x2="481.3" y2="590.11" gradientTransform="translate(0 -398)" gradientUnits="userSpaceOnUse"><stop offset="0" stop-color="#fade8e"/><stop offset="1" stop-color="#fade8e" stop-opacity="0.4"/></linearGradient></defs><title>8</title><g id="Cuadrados_Blancos" data-name="Cuadrados Blancos"><rect class="cls-1" width="600" height="600"/></g><g id="Capa_3" data-name="Capa 3"><path class="cls-2" d="M596,250.65a69.59,69.59,0,1,0-139.17-1.23H140.33A28.33,28.33,0,0,0,112,277.75h0v12.31a3.63,3.63,0,0,0,3.7,3.69h11.08V503.12h-4.93A9.88,9.88,0,0,0,112,513v14.78H554.12V513a9.88,9.88,0,0,0-9.85-9.85h-4.92V319A69.45,69.45,0,0,0,596,250.65Z"/><rect class="cls-3" x="79.8" y="237.1" width="413.4" height="209.8"/><path class="cls-4" d="M93.4,192.6H479.7A28.38,28.38,0,0,1,508.1,221v12.3a3.76,3.76,0,0,1-3.7,3.7H68.7a3.76,3.76,0,0,1-3.7-3.7V221a28.38,28.38,0,0,1,28.4-28.4Z"/><path class="cls-5" d="M74.9,446.9H498.2a9.86,9.86,0,0,1,9.9,9.9v14.8H65V456.8A9.86,9.86,0,0,1,74.9,446.9Z"/><path class="cls-6" d="M120.5,274.1H300.7a3.76,3.76,0,0,1,3.7,3.7V406.2a3.76,3.76,0,0,1-3.7,3.7H120.5a3.76,3.76,0,0,1-3.7-3.7V277.8A3.76,3.76,0,0,1,120.5,274.1Z"/><path class="cls-7" d="M120.5,274.1a3.65,3.65,0,0,0-3.7,3.5h0V406.3a3.53,3.53,0,0,0,3.7,3.5H164L240.2,274H120.5Z"/><path class="cls-6" d="M345.1,274.1H451.2a3.76,3.76,0,0,1,3.7,3.7h0V446.9H341.5V277.8A3.67,3.67,0,0,1,345.1,274.1Z"/><path class="cls-8" d="M345.1,274.1a3.76,3.76,0,0,0-3.7,3.7V446.9h14.2L445,274.1Z"/><rect class="cls-9" x="395.8" y="274.1" width="4.9" height="172.8"/><path class="cls-10" d="M385.9,372.9a2.48,2.48,0,0,1-2.5-2.5V350.6a2.5,2.5,0,0,1,5,0v19.8A2.48,2.48,0,0,1,385.9,372.9Z"/><path class="cls-10" d="M410.6,372.9a2.48,2.48,0,0,1-2.5-2.5V350.6a2.5,2.5,0,0,1,5,0v19.8A2.48,2.48,0,0,1,410.6,372.9Z"/><path class="cls-11" d="M571.4,192.14a89.89,89.89,0,1,1-89.88-90h0c49.47,0,89.72,40.3,89.88,90h0"/><path class="cls-12" d="M523.51,112.66a90,90,0,0,0-84.31,159Z"/><path class="cls-13" d="M492.49,210c0-5.89-2.38-8.28-13.52-13.38-16.07-7.33-20.84-12.9-20.84-24s9.07-19.12,18.14-21.35V137.5h.47L490,143.4v7.48A35.62,35.62,0,0,1,501.88,155l.63.31.48.32-.16.48-.16.8-1.75,10.35-.31,1.91-.32,1.44-1.12-.8-1.59-1.27a23.92,23.92,0,0,0-14.79-5.26c-7,0-10.66,3-10.66,8.28,0,4.94,2.39,7.17,13.36,12.27,16.23,7.32,21.32,13.22,21.32,25.32A23.55,23.55,0,0,1,490,231.48v15.77h-1.12l-12.56-7v-7.8a64.5,64.5,0,0,1-18-5.1l-.8-.32-.47-.31v-.48l.16-1,1.43-10.67.32-1.91.15-1.28,1,.8,1.43,1a35.41,35.41,0,0,0,19.09,6.21c7.32.16,11.93-3.51,11.93-9.4"/></g></svg>