<svg xmlns="http://www.w3.org/2000/svg" xmlns:xlink="http://www.w3.org/1999/xlink" viewBox="0 0 600 600"><defs><style>.cls-1{fill:none;}.cls-2{fill:url(#Degradado_sin_nombre_21);}.cls-3{fill:#f8cd50;}.cls-4{fill:#2dcccd;}.cls-5{fill:#004481;}.cls-6{fill:url(#Degradado_sin_nombre_9);}.cls-7{fill:url(#Degradado_sin_nombre_9-2);}.cls-8{fill:url(#Degradado_sin_nombre_25);}.cls-9{fill:url(#Degradado_sin_nombre_25-2);}</style><linearGradient id="Degradado_sin_nombre_21" x1="269.94" y1="10378.24" x2="470.98" y2="10000.13" gradientTransform="matrix(1, 0, 0, -1, 0, 10510)" gradientUnits="userSpaceOnUse"><stop offset="0" stop-color="#1a2746" stop-opacity="0.5"/><stop offset="1" stop-color="#1a2746" stop-opacity="0"/></linearGradient><linearGradient id="Degradado_sin_nombre_9" x1="151.91" y1="10421.62" x2="279.73" y2="10353.65" gradientTransform="matrix(1, 0, 0, -1, 0, 10510)" gradientUnits="userSpaceOnUse"><stop offset="0" stop-color="#fff" stop-opacity="0.6"/><stop offset="1" stop-color="#fff" stop-opacity="0.1"/></linearGradient><linearGradient id="Degradado_sin_nombre_9-2" x1="170.68" y1="10446.57" x2="299.18" y2="10378.25" xlink:href="#Degradado_sin_nombre_9"/><linearGradient id="Degradado_sin_nombre_25" x1="323.73" y1="10066.62" x2="276.95" y2="10066.62" gradientTransform="matrix(1, 0, 0, -1, 0, 10510)" gradientUnits="userSpaceOnUse"><stop offset="0.01" stop-color="#028484" stop-opacity="0.4"/><stop offset="1" stop-color="#028484" stop-opacity="0.1"/></linearGradient><linearGradient id="Degradado_sin_nombre_25-2" x1="323.73" y1="10299.5" x2="298.88" y2="10299.5" xlink:href="#Degradado_sin_nombre_25"/></defs><title>11</title><g id="Cuadrados_Blancos" data-name="Cuadrados Blancos"><rect class="cls-1" width="600" height="600"/></g><g id="Capa_10" data-name="Capa 10"><path class="cls-2" d="M455.76,184.74a78.24,78.24,0,0,0-70.52-44.35H291.48a3.44,3.44,0,0,0-3.44,3.44V154.4H278.7V143.83a3.44,3.44,0,0,0-3.44-3.44h-20.7a3.44,3.44,0,0,0-3.44,3.44v63a3.44,3.44,0,0,0,3.44,3.44h20.7a3.44,3.44,0,0,0,3.44-3.44V196.29H288v10.56a3.44,3.44,0,0,0,3.44,3.44H292a38.13,38.13,0,0,1,38.13,38.13v12a3.44,3.44,0,0,0,3.44,3.44h.71v4.59a3.44,3.44,0,0,0,3.44,3.44h1.31v141h-1.31a3.44,3.44,0,0,0-3.44,3.44V543.61A23.39,23.39,0,0,0,357.69,567h0a23.39,23.39,0,0,0,23.39-23.39h0V416.29a3.44,3.44,0,0,0-3.44-3.44h-1.31v-141h1.31a3.44,3.44,0,0,0,3.44-3.45v-4.58h.71a3.44,3.44,0,0,0,3.44-3.44V228.65h.1c0-.67-.1-1.34-.1-2a42.1,42.1,0,0,1,64-35.95,4.58,4.58,0,0,0,6.52-5.95Z"/><rect class="cls-3" x="221.35" y="97.05" width="9.34" height="41.86"/><rect class="cls-3" x="193.77" y="83.04" width="27.59" height="69.87" rx="3.44"/><path class="cls-3" d="M398.41,127.38A78.25,78.25,0,0,0,327.89,83H234.13a3.44,3.44,0,0,0-3.44,3.44v63a3.44,3.44,0,0,0,3.44,3.44h.54a38.13,38.13,0,0,1,38.13,38.13v12a3.44,3.44,0,0,0,3.44,3.44h48.17a3.44,3.44,0,0,0,3.44-3.44V171.29H328c0-.66-.11-1.33-.11-2a42.1,42.1,0,0,1,64-35.95,4.59,4.59,0,0,0,6.55-6Z"/><path class="cls-4" d="M277,206.48h46.78v4.59a3.45,3.45,0,0,1-3.45,3.44H280.39a3.44,3.44,0,0,1-3.44-3.44v-4.59Z"/><path class="cls-4" d="M300.34,509.6h0A23.39,23.39,0,0,1,277,486.21V358.87a3.44,3.44,0,0,1,3.44-3.44h39.89a3.44,3.44,0,0,1,3.45,3.44V486.19a23.39,23.39,0,0,1-23.39,23.39h0Z"/><rect class="cls-5" x="281.7" y="214.51" width="37.29" height="140.99"/><rect class="cls-6" x="193.77" y="83.04" width="27.59" height="69.87" rx="3.44"/><path class="cls-7" d="M234.13,83a3.44,3.44,0,0,0-3.44,3.44v63a3.44,3.44,0,0,0,3.44,3.44h.54A38.13,38.13,0,0,1,268,172.62l47.61-89.55Z"/><path class="cls-8" d="M277,465.13v21.08a23.39,23.39,0,0,0,23.39,23.39h0a23.39,23.39,0,0,0,23.39-23.39h0V377.15Z"/><path class="cls-9" d="M303.21,206.48l-4.27,8h21.4a3.44,3.44,0,0,0,3.44-3.44v-4.59Z"/></g></svg>