<svg id="Contenido" xmlns="http://www.w3.org/2000/svg" xmlns:xlink="http://www.w3.org/1999/xlink" viewBox="0 0 600 600"><defs><style>.cls-1{fill:url(#Degradado_sin_nombre_47);}.cls-2{fill:#f8cd50;}.cls-3{fill:#2dcccd;}.cls-4{fill:#1464a5;}.cls-5{fill:url(#Degradado_sin_nombre_41);}.cls-6{fill:url(#Degradado_sin_nombre_41-2);}.cls-7{fill:url(#Degradado_sin_nombre_49);}.cls-8{fill:url(#Degradado_sin_nombre_49-2);}</style><linearGradient id="Degradado_sin_nombre_47" x1="277" y1="156.53" x2="452.26" y2="486.14" gradientUnits="userSpaceOnUse"><stop offset="0" stop-color="#1a2746" stop-opacity="0.5"/><stop offset="1" stop-color="#1a2746" stop-opacity="0"/></linearGradient><linearGradient id="Degradado_sin_nombre_41" x1="174.1" y1="118.72" x2="285.53" y2="177.97" gradientUnits="userSpaceOnUse"><stop offset="0" stop-color="#fff" stop-opacity="0.6"/><stop offset="1" stop-color="#fff" stop-opacity="0.1"/></linearGradient><linearGradient id="Degradado_sin_nombre_41-2" x1="190.48" y1="96.94" x2="302.5" y2="156.5" xlink:href="#Degradado_sin_nombre_41"/><linearGradient id="Degradado_sin_nombre_49" x1="323.89" y1="428.2" x2="283.11" y2="428.2" gradientUnits="userSpaceOnUse"><stop offset="0.01" stop-color="#028484" stop-opacity="0.4"/><stop offset="1" stop-color="#028484" stop-opacity="0.1"/></linearGradient><linearGradient id="Degradado_sin_nombre_49-2" x1="323.89" y1="225.18" x2="302.23" y2="225.18" xlink:href="#Degradado_sin_nombre_49"/></defs><title>values-day</title><path class="cls-1" d="M439,202.72a68.2,68.2,0,0,0-61.48-38.66H295.78a3,3,0,0,0-3,3v9.21h-8.14v-9.21a3,3,0,0,0-3-3H263.59a3,3,0,0,0-3,3V222a3,3,0,0,0,3,3h18.05a3,3,0,0,0,3-3v-9.21h8.14V222a3,3,0,0,0,3,3h.47a33.24,33.24,0,0,1,33.24,33.24v10.47a3,3,0,0,0,3,3h.62v4a3,3,0,0,0,3,3h1.14V401.59h-1.14a3,3,0,0,0-3,3v111a20.39,20.39,0,0,0,20.39,20.39h0a20.39,20.39,0,0,0,20.39-20.39v-111a3,3,0,0,0-3-3h-1.14V278.68h1.14a3,3,0,0,0,3-3v-4h.62a3,3,0,0,0,3-3V241h.09c0-.58-.09-1.16-.09-1.75a36.7,36.7,0,0,1,55.8-31.34A4,4,0,0,0,439,202.72Z"/><rect class="cls-2" x="234.64" y="126.27" width="8.14" height="36.49"/><rect class="cls-2" x="210.59" y="114.06" width="24.05" height="60.91" rx="3"/><path class="cls-2" d="M389,152.72a68.2,68.2,0,0,0-61.48-38.66H245.78a3,3,0,0,0-3,3V172a3,3,0,0,0,3,3h.47a33.24,33.24,0,0,1,33.24,33.24v10.47a3,3,0,0,0,3,3h42a3,3,0,0,0,3-3V191h.09c0-.58-.09-1.16-.09-1.75a36.7,36.7,0,0,1,55.8-31.34A4,4,0,0,0,389,152.72Z"/><path class="cls-3" d="M283.11,221.68h40.78a0,0,0,0,1,0,0v4a3,3,0,0,1-3,3H286.11a3,3,0,0,1-3-3v-4A0,0,0,0,1,283.11,221.68Z"/><path class="cls-3" d="M303.5,351.59h0A20.39,20.39,0,0,1,323.89,372v111a3,3,0,0,1-3,3H286.11a3,3,0,0,1-3-3V372a20.39,20.39,0,0,1,20.39-20.39Z" transform="translate(607 837.53) rotate(180)"/><rect class="cls-4" x="287.25" y="228.68" width="32.51" height="122.92"/><rect class="cls-5" x="210.59" y="114.06" width="24.05" height="60.91" rx="3"/><path class="cls-6" d="M245.78,114.06a3,3,0,0,0-3,3V172a3,3,0,0,0,3,3h.47a33.22,33.22,0,0,1,29.09,17.16l41.51-78.07Z"/><path class="cls-7" d="M283.11,447.17v18.38a20.39,20.39,0,0,0,20.39,20.39h0a20.39,20.39,0,0,0,20.39-20.39V370.47Z"/><path class="cls-8" d="M306,221.68l-3.72,7h18.66a3,3,0,0,0,3-3v-4Z"/></svg>