<svg xmlns="http://www.w3.org/2000/svg" xmlns:xlink="http://www.w3.org/1999/xlink" viewBox="0 0 600 600"><defs><style>.cls-1{fill:none;}.cls-2{fill:url(#Degradado_sin_nombre_86);}.cls-3{fill:#043263;}.cls-4{fill:url(#Degradado_sin_nombre_88);}.cls-5{fill:#d4edfc;}.cls-6{fill:#f8cd51;}.cls-7{fill:#49a5e6;}.cls-8{fill:url(#Degradado_sin_nombre_90);}</style><linearGradient id="Degradado_sin_nombre_86" x1="272.93" y1="-3376.65" x2="410.15" y2="-3634.73" gradientTransform="matrix(1, 0, 0, -1, 0, -3164)" gradientUnits="userSpaceOnUse"><stop offset="0" stop-color="#192647" stop-opacity="0.5"/><stop offset="1" stop-color="#192647" stop-opacity="0"/></linearGradient><linearGradient id="Degradado_sin_nombre_88" x1="449.2" y1="-3478.89" x2="244.47" y2="-3478.89" gradientTransform="matrix(1, 0, 0, -1, 0, -3164)" gradientUnits="userSpaceOnUse"><stop offset="0" stop-color="#072146"/><stop offset="1" stop-color="#072146" stop-opacity="0"/></linearGradient><linearGradient id="Degradado_sin_nombre_90" x1="248.56" y1="-3394.59" x2="281.69" y2="-3427.72" gradientTransform="matrix(1, 0, 0, -1, 0, -3164)" gradientUnits="userSpaceOnUse"><stop offset="0" stop-color="#fff" stop-opacity="0.5"/><stop offset="1" stop-color="#fff" stop-opacity="0"/></linearGradient></defs><title>16</title><g id="Cuadrados_Blancos" data-name="Cuadrados Blancos"><rect class="cls-1" width="600" height="600"/></g><g id="Capa_1" data-name="Capa 1"><path class="cls-2" d="M456.32,312.84a117.43,117.43,0,0,0-13.21-31.9L461,255c-5.3-8.4-6.49-11.27-13.79-18.6l-.34-.34c-7.33-7.31-10.2-8.49-18.6-13.8l-25.94,17.86a118,118,0,0,0-31.9-13.22l-5.72-31c-9.69-2.19-12.56-3.39-22.9-3.4h-.49c-10.34,0-13.21,1.21-22.9,3.4l-5.72,31a118,118,0,0,0-31.9,13.22l-25.94-17.86c-8.4,5.31-11.27,6.49-18.6,13.8l-.34.34c-7.31,7.33-8.49,10.2-13.79,18.6L240,280.94a117.59,117.59,0,0,0-13.22,31.9l-31,5.71c-2.19,9.69-3.38,12.56-3.4,22.91v.48c0,10.35,1.21,13.22,3.4,22.91l31,5.72A118,118,0,0,0,240,402.47L222.09,428.4c5.3,8.4,6.48,11.28,13.79,18.6l.34.35c7.33,7.3,10.2,8.48,18.6,13.79l25.94-17.85c1.7,1,3.46,1.93,5.21,2.87h0q2.8,1.48,5.7,2.83l1.41.64c1.66.75,3.33,1.47,5,2.14,1,.41,2.07.78,3.12,1.17,1.28.46,2.56.94,3.86,1.37,2.49.81,5,1.55,7.56,2.19l5.72,31c9.69,2.18,12.56,3.38,22.9,3.4h.49c10.34,0,13.21-1.22,22.9-3.4l5.72-31a117.43,117.43,0,0,0,31.9-13.21l25.94,17.85c8.4-5.31,11.27-6.49,18.6-13.79l.34-.35c7.3-7.32,8.49-10.2,13.79-18.6l-17.85-25.93a117.43,117.43,0,0,0,13.21-31.9l31-5.72c2.18-9.69,3.38-12.56,3.4-22.91v-.48c0-10.35-1.22-13.22-3.4-22.91Z"/><path class="cls-3" d="M445.79,276.84l-31-5.72a117.72,117.72,0,0,0-13.22-31.9l17.85-25.94c-5.3-8.4-6.48-11.27-13.79-18.6l-.34-.34c-7.33-7.31-10.2-8.49-18.6-13.79L360.75,198.4a117.78,117.78,0,0,0-31.9-13.22l-5.72-31c-9.69-2.19-12.55-3.38-22.9-3.4h-.49c-10.34,0-13.2,1.21-22.89,3.4l-5.73,31a117.84,117.84,0,0,0-31.89,13.22l-25.94-17.85c-8.4,5.3-11.28,6.48-18.61,13.79l-.33.34c-7.31,7.33-8.5,10.2-13.79,18.6l17.85,25.94a116.81,116.81,0,0,0-13.21,31.9l-31,5.72c-2.18,9.69-3.38,12.56-3.4,22.9v.49c0,10.34,1.22,13.21,3.4,22.9l31,5.72a116.81,116.81,0,0,0,13.21,31.9l-17.85,25.94c5.3,8.4,6.49,11.27,13.79,18.6l.33.34c7.33,7.3,10.2,8.49,18.61,13.79l25.94-17.85a117.5,117.5,0,0,0,31.89,13.21l5.73,31c9.69,2.19,12.55,3.38,22.89,3.4h.49c10.35,0,13.21-1.21,22.9-3.4l5.72-31a117.43,117.43,0,0,0,31.9-13.21l25.95,17.85c8.4-5.3,11.27-6.49,18.6-13.79l.34-.34c7.31-7.33,8.49-10.2,13.79-18.6l-17.85-25.94a117.72,117.72,0,0,0,13.22-31.9l31-5.72c2.19-9.69,3.38-12.56,3.4-22.9v-.49C449.17,289.4,448,286.53,445.79,276.84Z"/><path class="cls-4" d="M414.83,271.12a117.72,117.72,0,0,0-13.22-31.9l17.85-25.94c-5.29-8.4-6.48-11.27-13.79-18.6l-.34-.34c-7.32-7.31-10.2-8.49-18.6-13.79L360.79,198.4c-1.7-1-3.46-1.94-5.21-2.87l-111.11,209a118,118,0,0,0,26.69,10.34l5.72,31c9.69,2.19,12.56,3.38,22.9,3.4h.49c10.35,0,13.21-1.21,22.9-3.4l5.72-31a117.43,117.43,0,0,0,31.9-13.21l25.91,17.81c8.4-5.3,11.27-6.49,18.6-13.79l.34-.34c7.31-7.33,8.49-10.2,13.79-18.6l-17.85-25.94a117.72,117.72,0,0,0,13.22-31.9l31-5.72c2.19-9.69,3.38-12.56,3.4-22.9v-.49c0-10.34-1.21-13.21-3.4-22.9Z"/><rect class="cls-5" x="219.73" y="279.91" width="45.89" height="22.94" rx="1.32"/><rect class="cls-5" x="277.08" y="279.91" width="45.89" height="22.94" rx="1.32"/><rect class="cls-5" x="334.44" y="279.91" width="45.89" height="22.94" rx="1.32"/><path class="cls-5" d="M265.61,336V315.64a1.31,1.31,0,0,0-1.31-1.32H221a1.32,1.32,0,0,0-1.31,1.32V329a2,2,0,0,0,.08.49c.88,2.39,1.87,4.73,2.94,7a1.36,1.36,0,0,0,1.22.77H264.3A1.32,1.32,0,0,0,265.61,336Z"/><rect class="cls-5" x="277.08" y="314.32" width="45.89" height="22.94" rx="1.32"/><path class="cls-5" d="M265.61,370.36V350.05a1.31,1.31,0,0,0-1.31-1.31H232.38a1.33,1.33,0,0,0-1.33,1.33,1.37,1.37,0,0,0,.25.78,85.73,85.73,0,0,0,21.8,20.63,1.38,1.38,0,0,0,.75.23H264.3a1.33,1.33,0,0,0,1.32-1.33Z"/><rect class="cls-5" x="277.08" y="348.74" width="45.89" height="22.94" rx="1.32"/><path class="cls-6" d="M380.33,329V315.64a1.32,1.32,0,0,0-1.32-1.32H335.76a1.33,1.33,0,0,0-1.32,1.32h0v54.72a1.33,1.33,0,0,0,1.32,1.32H346.2a1.43,1.43,0,0,0,.76-.22,85.76,85.76,0,0,0,33.28-42A1.17,1.17,0,0,0,380.33,329Z"/><path class="cls-7" d="M350,230.64c-1.26-.75-2.52-1.49-3.81-2.19a1.27,1.27,0,0,0-.64-.16h-91a1.36,1.36,0,0,0-.65.16c-1.29.7-2.55,1.44-3.8,2.19a86,86,0,0,0-26,30.12,1.35,1.35,0,0,0,.6,1.8,1.42,1.42,0,0,0,.6.14H374.77a1.34,1.34,0,0,0,1.34-1.35,1.23,1.23,0,0,0-.15-.59A85.72,85.72,0,0,0,350,230.64Z"/><path class="cls-8" d="M302.22,228.29H254.51a1.36,1.36,0,0,0-.65.16c-1.29.7-2.54,1.44-3.79,2.19a85.74,85.74,0,0,0-26,30.12,1.33,1.33,0,0,0,.59,1.8,1.42,1.42,0,0,0,.6.14H282.7Z"/></g></svg>