<svg id="Contenido" xmlns="http://www.w3.org/2000/svg" xmlns:xlink="http://www.w3.org/1999/xlink" viewBox="0 0 600 600"><defs><style>.cls-1{fill:url(#Degradado_sin_nombre_10);}.cls-2{fill:#1464a5;}.cls-3{fill:url(#Degradado_sin_nombre_12);}.cls-4{fill:#d4edfc;}.cls-5{fill:#f8cd51;}.cls-6{fill:#49a5e6;}.cls-7{fill:url(#Degradado_sin_nombre_37);}</style><linearGradient id="Degradado_sin_nombre_10" x1="281.9" y1="202.65" x2="419.14" y2="460.75" gradientUnits="userSpaceOnUse"><stop offset="0" stop-color="#192647"/><stop offset="0" stop-color="#192647" stop-opacity="0.5"/><stop offset="1" stop-color="#192647" stop-opacity="0"/></linearGradient><linearGradient id="Degradado_sin_nombre_12" x1="455.49" y1="302.37" x2="250.77" y2="302.37" gradientUnits="userSpaceOnUse"><stop offset="0" stop-color="#043263" stop-opacity="0.4"/><stop offset="1" stop-color="#043263" stop-opacity="0.15"/></linearGradient><linearGradient id="Degradado_sin_nombre_37" x1="245.42" y1="220.01" x2="292.87" y2="245.24" gradientUnits="userSpaceOnUse"><stop offset="0" stop-color="#fff" stop-opacity="0.4"/><stop offset="1" stop-color="#fff" stop-opacity="0.05"/></linearGradient></defs><title>self_driven</title><path class="cls-1" d="M465.32,302.84a117.37,117.37,0,0,0-13.21-31.9L470,245c-5.3-8.4-6.49-11.27-13.79-18.6l-.34-.34c-7.33-7.31-10.2-8.49-18.6-13.8l-25.94,17.86a117.84,117.84,0,0,0-31.9-13.22l-5.72-31c-9.69-2.19-12.56-3.39-22.9-3.4h-.49c-10.34,0-13.21,1.21-22.9,3.4l-5.72,31a117.84,117.84,0,0,0-31.9,13.22l-25.94-17.86c-8.4,5.31-11.27,6.49-18.6,13.8l-.34.34c-7.31,7.33-8.49,10.2-13.79,18.6l17.85,25.94a117.71,117.71,0,0,0-13.22,31.9l-31,5.71c-2.19,9.69-3.38,12.56-3.4,22.91v.48c0,10.35,1.21,13.22,3.4,22.91l31,5.72a117.84,117.84,0,0,0,13.22,31.9L231.09,418.4c5.3,8.4,6.48,11.28,13.79,18.6l.34.35c7.33,7.3,10.2,8.48,18.6,13.79l25.94-17.85c1.7,1,3.46,1.93,5.21,2.87h0q2.8,1.48,5.7,2.83l1.41.64c1.66.75,3.33,1.47,5,2.14,1,.41,2.07.78,3.12,1.17,1.28.46,2.56.94,3.86,1.37,2.49.81,5,1.55,7.56,2.19l5.72,31c9.69,2.18,12.56,3.38,22.9,3.4h.49c10.34,0,13.21-1.22,22.9-3.4l5.72-31a117.5,117.5,0,0,0,31.9-13.21l25.94,17.85c8.4-5.31,11.27-6.49,18.6-13.79l.34-.35c7.3-7.32,8.49-10.2,13.79-18.6l-17.85-25.93a117.5,117.5,0,0,0,13.21-31.9l31-5.72c2.18-9.69,3.38-12.56,3.4-22.91v-.48c0-10.35-1.22-13.22-3.4-22.91Z"/><path class="cls-2" d="M452.09,264.36l-31-5.72a117.84,117.84,0,0,0-13.22-31.9l17.85-25.94c-5.3-8.4-6.48-11.27-13.79-18.6l-.34-.34c-7.33-7.31-10.2-8.49-18.6-13.79l-25.94,17.85a117.84,117.84,0,0,0-31.9-13.22l-5.72-31c-9.69-2.19-12.55-3.38-22.9-3.4h-.49c-10.34,0-13.21,1.21-22.9,3.4l-5.72,31a117.84,117.84,0,0,0-31.9,13.22l-25.94-17.85c-8.4,5.3-11.27,6.48-18.6,13.79l-.34.34c-7.3,7.33-8.49,10.2-13.79,18.6l17.85,25.94a117.5,117.5,0,0,0-13.21,31.9l-31,5.72c-2.18,9.69-3.38,12.56-3.4,22.9v.49c0,10.34,1.22,13.21,3.4,22.9l31,5.72a117.5,117.5,0,0,0,13.21,31.9l-17.85,25.94c5.3,8.4,6.49,11.27,13.79,18.6l.34.34c7.33,7.3,10.2,8.49,18.6,13.79l25.94-17.85a117.5,117.5,0,0,0,31.9,13.21l5.72,31c9.69,2.19,12.56,3.38,22.9,3.4h.49c10.35,0,13.21-1.21,22.9-3.4l5.72-31a117.5,117.5,0,0,0,31.9-13.21L393,406.94c8.4-5.3,11.27-6.49,18.6-13.79l.34-.34c7.31-7.33,8.49-10.2,13.79-18.6l-17.85-25.94a117.84,117.84,0,0,0,13.22-31.9l31-5.72c2.19-9.69,3.38-12.56,3.4-22.9v-.49C455.47,276.92,454.28,274.05,452.09,264.36Z"/><path class="cls-3" d="M421.13,258.64a117.84,117.84,0,0,0-13.22-31.9l17.85-25.94c-5.3-8.4-6.48-11.27-13.79-18.6l-.34-.34c-7.33-7.31-10.2-8.49-18.6-13.79l-25.94,17.85c-1.7-1-3.46-1.94-5.21-2.87L250.77,392a117.73,117.73,0,0,0,26.69,10.34l5.72,31c9.69,2.19,12.56,3.38,22.9,3.4h.49c10.35,0,13.21-1.21,22.9-3.4l5.72-31a117.5,117.5,0,0,0,31.9-13.21L393,406.94c8.4-5.3,11.27-6.49,18.6-13.79l.34-.34c7.31-7.33,8.49-10.2,13.79-18.6l-17.85-25.94a117.84,117.84,0,0,0,13.22-31.9l31-5.72c2.19-9.69,3.38-12.56,3.4-22.9v-.49c0-10.34-1.21-13.21-3.4-22.9Z"/><rect class="cls-4" x="226.03" y="267.43" width="45.89" height="22.94" rx="1.32"/><rect class="cls-4" x="283.38" y="267.43" width="45.89" height="22.94" rx="1.32"/><rect class="cls-4" x="340.74" y="267.43" width="45.89" height="22.94" rx="1.32"/><path class="cls-4" d="M271.91,323.47V303.16a1.32,1.32,0,0,0-1.31-1.32H227.34a1.32,1.32,0,0,0-1.31,1.32v13.37a1.62,1.62,0,0,0,.08.49q1.32,3.59,2.94,7a1.35,1.35,0,0,0,1.22.77H270.6A1.32,1.32,0,0,0,271.91,323.47Z"/><rect class="cls-4" x="283.38" y="301.84" width="45.89" height="22.94" rx="1.32"/><path class="cls-4" d="M271.91,357.88V337.57a1.31,1.31,0,0,0-1.31-1.31H238.68a1.33,1.33,0,0,0-1.08,2.11A85.63,85.63,0,0,0,259.4,359a1.33,1.33,0,0,0,.75.23H270.6A1.32,1.32,0,0,0,271.91,357.88Z"/><rect class="cls-4" x="283.38" y="336.26" width="45.89" height="22.94" rx="1.32"/><path class="cls-5" d="M386.63,316.53V303.16a1.32,1.32,0,0,0-1.32-1.32H342.06a1.32,1.32,0,0,0-1.32,1.32v54.72a1.32,1.32,0,0,0,1.32,1.32H352.5a1.46,1.46,0,0,0,.76-.22,85.79,85.79,0,0,0,33.28-42A1.37,1.37,0,0,0,386.63,316.53Z"/><path class="cls-6" d="M356.3,218.16c-1.26-.75-2.52-1.49-3.81-2.19a1.32,1.32,0,0,0-.64-.16h-91a1.33,1.33,0,0,0-.65.16c-1.29.7-2.55,1.44-3.8,2.19a85.84,85.84,0,0,0-26,30.12,1.34,1.34,0,0,0,1.2,1.94H381.07a1.34,1.34,0,0,0,1.19-1.94A85.82,85.82,0,0,0,356.3,218.16Z"/><path class="cls-7" d="M308.52,215.81H260.81a1.33,1.33,0,0,0-.65.16c-1.29.7-2.55,1.44-3.8,2.19a85.84,85.84,0,0,0-26,30.12,1.34,1.34,0,0,0,1.2,1.94H289Z"/></svg>