<svg xmlns="http://www.w3.org/2000/svg" xmlns:xlink="http://www.w3.org/1999/xlink" viewBox="0 0 600 600"><defs><style>.cls-1{fill:none;}.cls-2{fill:url(#Degradado_sin_nombre_417);}.cls-3{fill:#f8cd50;}.cls-4{fill:url(#Degradado_sin_nombre_28);}.cls-5{fill:#004481;}.cls-6{fill:url(#Degradado_sin_nombre_27);}.cls-7{fill:#043263;}.cls-8{fill:#eaf9fa;}.cls-9{fill:#2dcccd;}.cls-10{fill:url(#Degradado_sin_nombre_26);}</style><linearGradient id="Degradado_sin_nombre_417" x1="269.96" y1="10354.64" x2="454" y2="10008.51" gradientTransform="matrix(1, 0, 0, -1, 0, 10510)" gradientUnits="userSpaceOnUse"><stop offset="0" stop-color="#192647" stop-opacity="0.5"/><stop offset="1" stop-color="#192647" stop-opacity="0"/></linearGradient><linearGradient id="Degradado_sin_nombre_28" x1="176.84" y1="10352.54" x2="302.28" y2="10285.84" gradientTransform="matrix(1, 0, 0, -1, 0, 10510)" gradientUnits="userSpaceOnUse"><stop offset="0" stop-color="#fff" stop-opacity="0.6"/><stop offset="1" stop-color="#fff" stop-opacity="0.15"/></linearGradient><linearGradient id="Degradado_sin_nombre_27" x1="362" y1="10082.83" x2="263.59" y2="10082.83" gradientTransform="matrix(1, 0, 0, -1, 0, 10510)" gradientUnits="userSpaceOnUse"><stop offset="0" stop-color="#043263" stop-opacity="0.3"/><stop offset="1" stop-color="#043263" stop-opacity="0.1"/></linearGradient><linearGradient id="Degradado_sin_nombre_26" x1="378.15" y1="10284.19" x2="273.54" y2="10284.19" gradientTransform="matrix(1, 0, 0, -1, 0, 10510)" gradientUnits="userSpaceOnUse"><stop offset="0" stop-color="#028484" stop-opacity="0.4"/><stop offset="1" stop-color="#028484" stop-opacity="0.1"/></linearGradient></defs><title>11</title><g id="Cuadrados_Blancos" data-name="Cuadrados Blancos"><rect class="cls-1" width="600" height="600"/></g><g id="Capa_11" data-name="Capa 11"><path class="cls-2" d="M359.54,131.33h-.66c-1.18-.07-2.37-.13-3.56-.18h-1.05c-1.42,0-2.84-.07-4.27-.07a137.7,137.7,0,0,0-27.61,2.77c-2.23.46-4.44,1-6.63,1.53-1.09.28-2.18.57-3.27.88-2.16.61-4.31,1.27-6.43,2-1.06.36-2.12.73-3.17,1.11A136.32,136.32,0,0,0,213,267.44h0a135.77,135.77,0,0,0,51.76,106.68h0c.95.76,1.87,1.54,2.77,2.34l.38.36c.8.73,1.6,1.48,2.36,2.25l.05.06a62,62,0,0,1,12.36,18.1v-.07A58.66,58.66,0,0,1,288,421.34v19.58h-3.5a3,3,0,0,0-3,3v10.31a3,3,0,0,0,3,3H288V467h-3.5a3,3,0,0,0-3,3v10.31a3,3,0,0,0,3,3H288v9.78h-3.45a3.08,3.08,0,0,0-3.07,3.08v10.16a3.08,3.08,0,0,0,3.07,3.08H288V510a23,23,0,0,0,23,23h78a23,23,0,0,0,23-23v-.57h3.45a3.08,3.08,0,0,0,3.07-3.08V496.19a3.08,3.08,0,0,0-3.07-3.08H412v-9.78h3.52a3,3,0,0,0,3-3h0V470a3,3,0,0,0-3-3H412v-9.79h3.52a3,3,0,0,0,3-3V443.92a3,3,0,0,0-3-3H412V421.34a60.7,60.7,0,0,1,23.26-47.22A135.72,135.72,0,0,0,487,267.44C487,195.28,430.75,136.21,359.54,131.33Z"/><path class="cls-3" d="M437,217.44C437,142.09,375.66,81,300,81S163,142.09,163,217.44a135.77,135.77,0,0,0,51.76,106.68A60.73,60.73,0,0,1,238,371.34H362a60.7,60.7,0,0,1,23.26-47.22A135.72,135.72,0,0,0,437,217.44Z"/><path class="cls-4" d="M300,81c-75.66,0-137,61.09-137,136.44a135.77,135.77,0,0,0,51.76,106.68,62,62,0,0,1,18,23.14L368.59,99.45A136.67,136.67,0,0,0,300,81Z"/><path class="cls-5" d="M339,483H261a23,23,0,0,1-23-23h0V371.34H362V460a23,23,0,0,1-23,23Z"/><path class="cls-6" d="M263.59,483H339a23,23,0,0,0,23-23h0V371.34H322.32Z"/><rect class="cls-7" x="231.5" y="390.92" width="137" height="16.31" rx="3"/><rect class="cls-7" x="231.5" y="417.02" width="137" height="16.31" rx="3"/><rect class="cls-7" x="231.5" y="443.11" width="137" height="16.31" rx="3.07"/><rect class="cls-8" x="296" y="291.72" width="10" height="79.63"/><path class="cls-9" d="M376.41,206.2l-16-3a60.54,60.54,0,0,0-6.84-16.5l9.24-13.42c-2.74-4.35-3.36-5.83-7.14-9.63l-.17-.17c-3.79-3.78-5.28-4.39-9.62-7.14l-13.42,9.24A61.05,61.05,0,0,0,316,158.74l-3-16c-5-1.13-6.49-1.75-11.84-1.76h-.26c-5.35,0-6.83.63-11.84,1.76l-3,16a61.05,61.05,0,0,0-16.51,6.84l-13.42-9.24c-4.34,2.75-5.83,3.36-9.62,7.14l-.17.17c-3.78,3.8-4.4,5.28-7.14,9.63l9.24,13.42a60.54,60.54,0,0,0-6.84,16.5l-16,3c-1.13,5-1.75,6.49-1.76,11.85v.25c0,5.35.63,6.83,1.76,11.85l16,3a60.86,60.86,0,0,0,6.84,16.5L239.21,263c2.74,4.34,3.36,5.83,7.14,9.62l.17.18c3.79,3.78,5.28,4.39,9.62,7.13l13.42-9.23a60.71,60.71,0,0,0,16.51,6.83l3,16c5,1.13,6.49,1.75,11.84,1.76h.26c5.35,0,6.83-.63,11.84-1.76l3-16a60.71,60.71,0,0,0,16.51-6.83l13.34,9.3c4.34-2.74,5.83-3.35,9.62-7.13l.17-.18c3.78-3.79,4.4-5.28,7.14-9.62l-9.24-13.42a60.74,60.74,0,0,0,6.84-16.51l16-2.95c1.13-5,1.75-6.5,1.76-11.85v-.25C378.16,212.69,377.54,211.21,376.41,206.2ZM301,245a26.84,26.84,0,1,1,26.84-26.84h0A26.84,26.84,0,0,1,301,245Z"/><path class="cls-10" d="M376.41,206.2l-16-3a60.54,60.54,0,0,0-6.84-16.5l9.24-13.42c-2.74-4.35-3.36-5.83-7.14-9.63l-.17-.17c-3.79-3.78-5.28-4.39-9.62-7.14l-13.42,9.24-.1-.06-16.57,30.22a26.83,26.83,0,0,1-25.71,46.9L273.54,272.8a59.73,59.73,0,0,0,12.55,4.72l3,16c5,1.13,6.49,1.75,11.84,1.76h.26c5.35,0,6.83-.63,11.84-1.76l3-16a60.71,60.71,0,0,0,16.51-6.83L345.86,280c4.34-2.74,5.83-3.35,9.62-7.13l.17-.18c3.78-3.79,4.4-5.28,7.14-9.62l-9.24-13.42a60.74,60.74,0,0,0,6.84-16.51l16-2.95c1.13-5,1.75-6.5,1.76-11.85v-.25C378.16,212.69,377.54,211.21,376.41,206.2Z"/></g></svg>