<svg xmlns="http://www.w3.org/2000/svg" xmlns:xlink="http://www.w3.org/1999/xlink" viewBox="0 0 600 600"><defs><style>.cls-1{fill:none;}.cls-2{fill:url(#Degradado_sin_nombre_177);}.cls-3{fill:#1464a5;}.cls-4{fill:#49a5e6;}.cls-5{fill:#043263;}.cls-6{fill:#2dcccd;}.cls-7{fill:url(#Degradado_sin_nombre_163);}.cls-8{fill:#d4edfc;}.cls-9{fill:#112f61;}.cls-10{fill:#f8cd50;}.cls-11{opacity:0.5;isolation:isolate;fill:url(#Degradado_sin_nombre_173);}.cls-12{fill:url(#Degradado_sin_nombre_69);}.cls-13{fill:url(#Degradado_sin_nombre_171);}.cls-14{fill:url(#Degradado_sin_nombre_171-2);}.cls-15{fill:url(#Degradado_sin_nombre_66);}.cls-16{fill:url(#Degradado_sin_nombre_66-2);}</style><linearGradient id="Degradado_sin_nombre_177" x1="252.18" y1="1540.42" x2="468.36" y2="1946.98" gradientTransform="translate(0 -1384.25)" gradientUnits="userSpaceOnUse"><stop offset="0" stop-color="#043263" stop-opacity="0.3"/><stop offset="1" stop-color="#043263" stop-opacity="0"/></linearGradient><linearGradient id="Degradado_sin_nombre_163" x1="458" y1="1813.46" x2="282.05" y2="1813.46" gradientTransform="translate(0 -1384.25)" gradientUnits="userSpaceOnUse"><stop offset="0" stop-color="#028484" stop-opacity="0.5"/><stop offset="1" stop-color="#028484" stop-opacity="0.1"/></linearGradient><linearGradient id="Degradado_sin_nombre_173" x1="162.49" y1="1570.26" x2="304.18" y2="1711.96" gradientTransform="translate(0 -1384.25)" gradientUnits="userSpaceOnUse"><stop offset="0" stop-color="#fff" stop-opacity="0.5"/><stop offset="1" stop-color="#e2f7f7" stop-opacity="0"/></linearGradient><linearGradient id="Degradado_sin_nombre_69" x1="229.07" y1="1525.52" x2="282.77" y2="1579.23" gradientTransform="translate(0 -1384.25)" gradientUnits="userSpaceOnUse"><stop offset="0" stop-color="#fff" stop-opacity="0.5"/><stop offset="1" stop-color="#fff" stop-opacity="0"/></linearGradient><linearGradient id="Degradado_sin_nombre_171" x1="167.58" y1="1787.57" x2="202.62" y2="1806.2" gradientTransform="translate(0 -1384.25)" gradientUnits="userSpaceOnUse"><stop offset="0.01" stop-color="#fff" stop-opacity="0.6"/><stop offset="1" stop-color="#fff" stop-opacity="0.2"/></linearGradient><linearGradient id="Degradado_sin_nombre_171-2" x1="367.13" y1="1796.18" x2="389.91" y2="1808.28" xlink:href="#Degradado_sin_nombre_171"/><linearGradient id="Degradado_sin_nombre_66" x1="496" y1="1631.37" x2="466" y2="1631.37" gradientTransform="translate(0 -1384.25)" gradientUnits="userSpaceOnUse"><stop offset="0" stop-color="#043263" stop-opacity="0.2"/><stop offset="1" stop-color="#043263" stop-opacity="0"/></linearGradient><linearGradient id="Degradado_sin_nombre_66-2" x1="134" y1="1631.37" x2="104" y2="1631.37" xlink:href="#Degradado_sin_nombre_66"/></defs><g id="Cuadrados_Blancos" data-name="Cuadrados Blancos"><rect class="cls-1" width="600" height="600"/></g><g id="Capa_132" data-name="Capa 132"><path class="cls-2" d="M540,247.23h-3.33v-9.52a22.18,22.18,0,0,0-22.16-22.15H505V201a24,24,0,0,0-24-24H445l-23-23a24,24,0,0,0-17-7H294.94a24,24,0,0,0-17,7l-23,23H219a24,24,0,0,0-24,24v14.56h-9.51a22.18,22.18,0,0,0-22.16,22.15v9.52H160a6,6,0,0,0-6,6h0v78h0a6,6,0,0,0,6,6h18a6,6,0,0,0,6-6h0v-78a6,6,0,0,0-6-6h-3.33v-9.52a10.83,10.83,0,0,1,10.82-10.81H195V446.05L192,445v51a24,24,0,0,0,24,24h6v34a6,6,0,0,0,6,6h38a6,6,0,0,0,6-6V520H428v34a6,6,0,0,0,6,6h38a6,6,0,0,0,6-6V520h6a24,24,0,0,0,19.9-10.58c.43-.67.83-1.33,1.2-2a23.15,23.15,0,0,0,2.14-5.44,23.84,23.84,0,0,0,.76-6V445l-3,1.05V226.9h9.51a10.83,10.83,0,0,1,10.82,10.81v9.52H522a6,6,0,0,0-6,6h0v78h0a6,6,0,0,0,6,6h18a6,6,0,0,0,6-6h0v-78A6,6,0,0,0,540,247.23Z"/><path class="cls-3" d="M124.67,193.73H113.33v-9.52a22.18,22.18,0,0,1,22.16-22.15H145V173.4h-9.51a10.83,10.83,0,0,0-10.82,10.81Z"/><rect class="cls-3" x="145" y="123.5" width="310" height="340" rx="24"/><path class="cls-4" d="M437,365l-40.67,14.2a50.24,50.24,0,0,1-16.52,2.8H220.19a50.24,50.24,0,0,1-16.52-2.8L163,365a12,12,0,0,1-8-11.32V193.5H445V353.65A12,12,0,0,1,437,365Z"/><path class="cls-5" d="M169,133.5H431a14,14,0,0,1,14,14v46H155v-46A14,14,0,0,1,169,133.5Z"/><path class="cls-6" d="M456.67,392,398,412.5H202L143.33,392a1,1,0,0,0-1.27.61,1,1,0,0,0-.06.33V442.5a24,24,0,0,0,24,24H434a24,24,0,0,0,24-24V392.91a1,1,0,0,0-1-1A1,1,0,0,0,456.67,392Z"/><path class="cls-7" d="M398,412.5H310.76l-28.71,54H434a24,24,0,0,0,24-24V392.91a1,1,0,0,0-1-1,1,1,0,0,0-.33.06Z"/><path class="cls-8" d="M176,392.92l48.18,16.86A25.12,25.12,0,0,1,241,433.5h0a3,3,0,0,1-3,3H196a24,24,0,0,1-24-24V395.75a3,3,0,0,1,3-3A3.09,3.09,0,0,1,176,392.92Z"/><path class="cls-8" d="M424,392.92l-48.18,16.86A25.12,25.12,0,0,0,359,433.5h0a3,3,0,0,0,3,3h42a24,24,0,0,0,24-24V395.75a3,3,0,0,0-3-3A3.09,3.09,0,0,0,424,392.92Z"/><rect class="cls-4" x="104" y="193.73" width="30" height="90" rx="6"/><path class="cls-3" d="M486.67,193.73H475.33v-9.52a10.83,10.83,0,0,0-10.82-10.81H455V162.06h9.51a22.18,22.18,0,0,1,22.16,22.15Z"/><rect class="cls-4" x="466" y="193.73" width="30" height="90" rx="6"/><path class="cls-4" d="M395,123.5H205l23-23a24,24,0,0,1,17-7H355.06a24,24,0,0,1,17,7Z"/><path class="cls-9" d="M172,466.5h50v34a6,6,0,0,1-6,6H178a6,6,0,0,1-6-6Z"/><path class="cls-9" d="M378,466.5h50v34a6,6,0,0,1-6,6H384a6,6,0,0,1-6-6Z"/><path class="cls-10" d="M202,158.5H398a5,5,0,0,1,5,5h0a5,5,0,0,1-5,5H202a5,5,0,0,1-5-5h0A5,5,0,0,1,202,158.5Z"/><path class="cls-11" d="M155,193.5V353.65A12,12,0,0,0,163,365l40.63,14.23a50.24,50.24,0,0,0,16.52,2.8h29.7L350.11,193.5Z"/><path class="cls-12" d="M202,158.5a5,5,0,0,0,0,10h95.34l5.32-10Z"/><path class="cls-13" d="M176,392.92a3,3,0,0,0-3.83,1.83h0a3.09,3.09,0,0,0-.17,1V412.5a24,24,0,0,0,22.88,24l16.56-31.14Z"/><path class="cls-14" d="M375.83,409.78A25.13,25.13,0,0,0,359,433.5h0a3,3,0,0,0,3,3h21.29l16.35-35Z"/><path class="cls-15" d="M466,266.94v10.79a6,6,0,0,0,6,6h18a6,6,0,0,0,6-6V210.5Z"/><path class="cls-16" d="M104,266.94v10.79a6,6,0,0,0,6,6h18a6,6,0,0,0,6-6V210.5Z"/></g></svg>