<svg id="Capa_1" data-name="Capa 1" xmlns="http://www.w3.org/2000/svg" xmlns:xlink="http://www.w3.org/1999/xlink" viewBox="0 0 600 600"><defs><style>.cls-1,.cls-10{fill-rule:evenodd;}.cls-1{fill:url(#Degradado_sin_nombre_20);}.cls-2{fill:#1464a5;}.cls-3{fill:url(#Degradado_sin_nombre_19);}.cls-4{fill:#49a5e6;}.cls-5{fill:#eaf9fa;}.cls-10,.cls-6{fill:#fff;}.cls-7{fill:#f8cd50;}.cls-8{fill:#1973b8;}.cls-9{fill:#2dcccd;}</style><linearGradient id="Degradado_sin_nombre_20" x1="261.54" y1="166.81" x2="496.88" y2="609.42" gradientUnits="userSpaceOnUse"><stop offset="0" stop-color="#192647"/><stop offset="0" stop-color="#192647" stop-opacity="0.3"/><stop offset="0.84" stop-color="#192647" stop-opacity="0"/></linearGradient><linearGradient id="Degradado_sin_nombre_19" x1="481.21" y1="1597.99" x2="245.47" y2="1597.99" gradientTransform="matrix(1, 0, 0, -1, 0, 1882)" gradientUnits="userSpaceOnUse"><stop offset="0" stop-color="#043263" stop-opacity="0.8"/><stop offset="1" stop-color="#043263" stop-opacity="0"/></linearGradient></defs><title>API_MARKET</title><path class="cls-1" d="M536.21,357.13v-114A20.17,20.17,0,0,0,516,223H188a20.17,20.17,0,0,0-20.18,20.17V430.85A20.17,20.17,0,0,0,188,451H454.42a65.31,65.31,0,1,0,81.79-93.9Z"/><path class="cls-2" d="M461,170H133a20.17,20.17,0,0,0-20.18,20.17V377.86A20.17,20.17,0,0,0,133,398H461a20.17,20.17,0,0,0,20.17-20.17h0V190.17A20.17,20.17,0,0,0,461,170Z"/><path class="cls-3" d="M461,170H369.3L245.47,398H461a20.17,20.17,0,0,0,20.17-20.17h0V190.17A20.17,20.17,0,0,0,461,170Z"/><rect class="cls-4" x="152.65" y="219.3" width="97.57" height="104.59" rx="2.63"/><circle class="cls-5" cx="201.43" cy="257.49" r="21.55"/><path class="cls-5" d="M174.35,284.29h54.17a9.38,9.38,0,0,1,9.38,9.38h0V323.9H165V293.66a9.38,9.38,0,0,1,9.38-9.38h0Z"/><path class="cls-6" d="M341,228.07H278.89a4.39,4.39,0,0,1,0-8.77H341a4.39,4.39,0,0,1,0,8.77Z"/><path class="cls-4" d="M247.21,348.73H156.16a4.39,4.39,0,0,1,0-8.77h91.05a4.39,4.39,0,0,1,0,8.77Z"/><path class="cls-6" d="M393.62,254.84H278.89a4.39,4.39,0,0,1,0-8.77H393.62a4.39,4.39,0,0,1,0,8.77Z"/><path class="cls-6" d="M393.62,281.63H278.89a4.39,4.39,0,0,1,0-8.77H393.62a4.39,4.39,0,0,1,0,8.77Z"/><path class="cls-7" d="M439.67,348.73H278.89a4.39,4.39,0,0,1,0-8.77H439.67a4.39,4.39,0,0,1,0,8.77Z"/><rect class="cls-8" x="274.51" y="299.88" width="169.56" height="23.41" rx="2.63"/><path class="cls-9" d="M520.5,364a65.35,65.35,0,1,1-65.4-65.3h0A65.34,65.34,0,0,1,520.5,364"/><path class="cls-10" d="M481.31,347.35H469.42v-7.13a2.37,2.37,0,0,0-2.38-2.38H443.26a2.39,2.39,0,0,0-2.38,2.38v7.13H429a2.37,2.37,0,0,0-2.38,2.36V387.8a2.36,2.36,0,0,0,2.38,2.36h52.32a2.36,2.36,0,0,0,2.38-2.36V349.71A2.37,2.37,0,0,0,481.31,347.35Zm-30.92,14.27H436.12v-4.76h19Zm-4.75-14.27h19v-4.76h-19Z"/></svg>