<svg id="Capa_1" data-name="Capa 1" xmlns="http://www.w3.org/2000/svg" xmlns:xlink="http://www.w3.org/1999/xlink" viewBox="0 0 600 600"><defs><style>.cls-1,.cls-2,.cls-9{fill-rule:evenodd;}.cls-1{fill:url(#Degradado_sin_nombre_10);}.cls-2{fill:url(#Degradado_sin_nombre_10-2);}.cls-3{fill:#f8cd50;}.cls-4{fill:#bc9847;opacity:0.35;isolation:isolate;}.cls-5{fill:#2dcccd;}.cls-6{fill:#1464a5;}.cls-7{fill:url(#Degradado_sin_nombre_25);}.cls-8{fill:#004481;}.cls-9{fill:#fff;}</style><linearGradient id="Degradado_sin_nombre_10" x1="168.85" y1="191.9" x2="367.72" y2="565.9" gradientUnits="userSpaceOnUse"><stop offset="0" stop-color="#192647"/><stop offset="0" stop-color="#192647" stop-opacity="0.3"/><stop offset="1" stop-color="#192647" stop-opacity="0"/></linearGradient><linearGradient id="Degradado_sin_nombre_10-2" x1="288.74" y1="147.28" x2="485.74" y2="517.78" xlink:href="#Degradado_sin_nombre_10"/><linearGradient id="Degradado_sin_nombre_25" x1="434.61" y1="1561.31" x2="312.35" y2="1561.31" gradientTransform="matrix(1, 0, 0, -1, 0, 1882)" gradientUnits="userSpaceOnUse"><stop offset="0" stop-color="#004481" stop-opacity="0.6"/><stop offset="1" stop-color="#004481" stop-opacity="0"/></linearGradient></defs><title>API_MARKET</title><path class="cls-1" d="M206.82,295A20.55,20.55,0,0,0,177.76,324l58.15,58.16-.1.11-.44.49c-.34.39-.68.78-1,1.18l-.48.58c-.36.44-.71.9-1,1.35s-.55.77-.82,1.15c-.17.23-.33.46-.49.7s-.51.77-.76,1.16l-.25.4a47.94,47.94,0,0,0,67.64,65,28,28,0,0,0,4.79-3.71l.71-.64L361.76,508A20.55,20.55,0,0,0,390.82,479Z"/><path class="cls-2" d="M480.1,345.7c-.57,0-1.13,0-1.69,0,.14-.75.28-1.5.41-2.25,0-.21.08-.43.11-.64.24-1.42.45-2.84.64-4.26l.12-.92c.18-1.39.32-2.79.45-4.19,0-.31.05-.63.08-.94q.16-2.13.27-4.26c0-.25,0-.5,0-.75.06-1.46.1-2.92.1-4.38v-.26c0-1.49,0-3-.09-4.46l0-.72c-.06-1.44-.16-2.88-.27-4.32,0-.28-.05-.57-.08-.85-.12-1.44-.27-2.87-.45-4.3,0-.25-.07-.5-.1-.75-.2-1.48-.41-3-.66-4.44,0-.12-.05-.24-.07-.36-.25-1.48-.54-2.95-.85-4.42,0-.13-.05-.26-.08-.38q-.48-2.22-1.05-4.41c-.06-.23-.11-.45-.17-.68-.38-1.43-.78-2.85-1.21-4.27-.07-.23-.14-.46-.22-.69-.44-1.44-.91-2.87-1.42-4.3-.05-.15-.11-.31-.17-.47q-1.6-4.47-3.58-8.84c-.07-.16-.13-.31-.2-.46q-1-2.1-2-4.15c-.11-.2-.21-.4-.31-.6q-1.05-2-2.18-4l-.3-.51q-1.17-2.07-2.45-4.11l-.09-.15-.06-.09a30.72,30.72,0,0,0,17.56-8.7l0,0a30.82,30.82,0,1,0-52.23-26.7,118.1,118.1,0,0,0-148.45,14.94l-54.8,54.8a13,13,0,0,1-18.36,0L391.34,479.48a13,13,0,0,1,0-18.35l27.52-27.52A65.33,65.33,0,1,0,480.1,345.7ZM451.05,222.34a10.27,10.27,0,0,1,14.53,0h0a10.28,10.28,0,0,1,0,14.52h0a10.28,10.28,0,1,1-14.53-14.54Z"/><g id="_25-Bell" data-name=" 25-Bell"><path class="cls-3" d="M259.1,391.47l-57.78-57.78a7.12,7.12,0,0,0-10,0,47.95,47.95,0,0,0,67.81,67.8h0a7,7,0,0,0,0-10Z"/><path class="cls-4" d="M259.1,401.45a7.06,7.06,0,0,0,0-10h0l-57.78-57.78a7.12,7.12,0,0,0-10,0,47.86,47.86,0,0,0-8.48,11.5l51.32,51.31c2.13,2.13,4.92,5.46,8.63,9a9.69,9.69,0,0,0,6.08,2.73C250.37,408.27,252.74,407.85,259.1,401.45Z"/><path class="cls-5" d="M390.52,204.41a30.82,30.82,0,1,1,43.59,0l0,0A30.87,30.87,0,0,1,390.52,204.41Zm29.06-29.06a10.27,10.27,0,1,0,0,14.53h0a10.28,10.28,0,0,0,0-14.52Z"/><path class="cls-6" d="M345.34,432.48a13,13,0,0,1,0-18.35l54.8-54.8A117.88,117.88,0,0,0,233.43,192.62l-54.8,54.8a13,13,0,0,1-18.36,0Z"/><path class="cls-7" d="M345.34,432.48a13,13,0,0,1,0-18.35l54.8-54.8A118.08,118.08,0,0,0,413.78,209l-.09-.07L312.35,399.49Z"/><path class="cls-8" d="M315.76,461l-184-184a20.59,20.59,0,0,1,0-29.06h0a20.61,20.61,0,0,1,29.06,0l184,184a20.59,20.59,0,0,1,0,29.06h0A20.61,20.61,0,0,1,315.76,461Z"/></g><path class="cls-5" d="M499.5,364a65.35,65.35,0,1,1-65.4-65.3h0A65.34,65.34,0,0,1,499.5,364"/><path class="cls-9" d="M460.31,347.35H448.42v-7.13a2.37,2.37,0,0,0-2.38-2.38H422.26a2.39,2.39,0,0,0-2.38,2.38v7.13H408a2.37,2.37,0,0,0-2.38,2.36V387.8a2.36,2.36,0,0,0,2.38,2.36h52.32a2.36,2.36,0,0,0,2.38-2.36V349.71A2.37,2.37,0,0,0,460.31,347.35Zm-30.92,14.27H415.12v-4.76h19Zm-4.75-14.27h19v-4.76h-19Z"/></svg>