<svg id="Capa_1" data-name="Capa 1" xmlns="http://www.w3.org/2000/svg" xmlns:xlink="http://www.w3.org/1999/xlink" viewBox="0 0 600 600"><defs><style>.cls-1{fill:url(#Degradado_sin_nombre_10);}.cls-2{fill:#49a5e6;}.cls-3{fill:url(#Degradado_sin_nombre_24);}.cls-4{fill:#043263;opacity:0.6;isolation:isolate;}.cls-5,.cls-9{fill:#fff;}.cls-6{fill:#1464a5;}.cls-7{fill:url(#Degradado_sin_nombre_13);}.cls-8{fill:#2dcccd;}.cls-9{fill-rule:evenodd;}</style><linearGradient id="Degradado_sin_nombre_10" x1="232.94" y1="146.43" x2="458.3" y2="570.27" gradientUnits="userSpaceOnUse"><stop offset="0" stop-color="#192647"/><stop offset="0" stop-color="#192647" stop-opacity="0.3"/><stop offset="1" stop-color="#192647" stop-opacity="0"/></linearGradient><linearGradient id="Degradado_sin_nombre_24" x1="477.4" y1="345.69" x2="226.18" y2="345.69" gradientTransform="matrix(1, 0, 0, -1, 0, 600)" gradientUnits="userSpaceOnUse"><stop offset="0" stop-color="#043263" stop-opacity="0.5"/><stop offset="1" stop-color="#043263" stop-opacity="0"/></linearGradient><linearGradient id="Degradado_sin_nombre_13" x1="450.62" y1="256.74" x2="236.56" y2="256.74" gradientTransform="matrix(1, 0, 0, -1, 0, 600)" gradientUnits="userSpaceOnUse"><stop offset="0" stop-color="#043263"/><stop offset="1" stop-color="#043263" stop-opacity="0"/></linearGradient></defs><title>API_MARKET</title><path class="cls-1" d="M516.13,380.51a20.52,20.52,0,0,0,1.27-7.08V235.19a20.63,20.63,0,0,0-20.63-20.63H240.25a20.63,20.63,0,0,0-20.63,20.63v60.75H188.33a20.63,20.63,0,0,0-20.63,20.63V470a20.63,20.63,0,0,0,20.63,20.63H448.4a65.29,65.29,0,1,0,67.73-110.08Z"/><g id="Contenido"><rect class="cls-2" x="179.62" y="164.56" width="297.79" height="179.5" rx="20.63"/><path class="cls-3" d="M458.38,344.06a19,19,0,0,0,19-19V183.59a19,19,0,0,0-19-19H321.65l-95.47,179.5Z"/><rect class="cls-4" x="179.62" y="190.1" width="297.79" height="29.19"/><rect class="cls-5" x="223.41" y="275.48" width="210.2" height="26.26" rx="2.69"/><rect class="cls-6" x="127.7" y="245.94" width="322.92" height="194.65" rx="20.63"/><path class="cls-7" d="M430,440.59A20.63,20.63,0,0,0,450.62,420V266.57A20.63,20.63,0,0,0,430,245.94h-89.9L236.56,440.59Z"/><rect class="cls-4" x="127.7" y="273.63" width="322.92" height="31.65"/><rect class="cls-5" x="175.18" y="366.21" width="227.95" height="28.49" rx="2.69"/></g><path class="cls-8" d="M515.46,390.4a65.35,65.35,0,1,1-65.4-65.3h0a65.34,65.34,0,0,1,65.4,65.3"/><path class="cls-9" d="M476.27,373.75H464.38v-7.13a2.37,2.37,0,0,0-2.38-2.38H438.22a2.39,2.39,0,0,0-2.38,2.38v7.13H424a2.37,2.37,0,0,0-2.38,2.37V414.2a2.37,2.37,0,0,0,2.38,2.37h52.32a2.37,2.37,0,0,0,2.38-2.37V376.12A2.37,2.37,0,0,0,476.27,373.75ZM445.35,388H431.08v-4.75h19Zm-4.75-14.27h19V369h-19Z"/></svg>