<svg xmlns="http://www.w3.org/2000/svg" xmlns:xlink="http://www.w3.org/1999/xlink" viewBox="0 0 600 600"><defs><style>.cls-1{fill:none;}.cls-2{fill:url(#Degradado_sin_nombre_41);}.cls-3{fill:url(#Degradado_sin_nombre_41-2);}.cls-4{fill:#2dcccd;}.cls-5{fill:#043263;}.cls-6{fill:#f8cd50;}.cls-7{opacity:0.5;isolation:isolate;fill:url(#Degradado_sin_nombre_3);}.cls-8{fill:url(#Degradado_sin_nombre_15);}.cls-9{fill:#fff;}</style><linearGradient id="Degradado_sin_nombre_41" x1="290.51" y1="28.76" x2="539.03" y2="496.16" gradientUnits="userSpaceOnUse"><stop offset="0" stop-color="#192647" stop-opacity="0.5"/><stop offset="1" stop-color="#192647" stop-opacity="0"/></linearGradient><linearGradient id="Degradado_sin_nombre_41-2" x1="191.73" y1="90.18" x2="443.07" y2="562.89" xlink:href="#Degradado_sin_nombre_41"/><linearGradient id="Degradado_sin_nombre_3" x1="283.61" y1="-1408.06" x2="347.83" y2="-1442.21" gradientTransform="matrix(1, 0, 0, -1, 0, -1222)" gradientUnits="userSpaceOnUse"><stop offset="0" stop-color="#fff"/><stop offset="1" stop-color="#e7f6f7" stop-opacity="0.3"/><stop offset="1" stop-color="#fff" stop-opacity="0.5"/></linearGradient><linearGradient id="Degradado_sin_nombre_15" x1="445.84" y1="-1610.53" x2="216.22" y2="-1610.53" gradientTransform="matrix(1, 0, 0, -1, 0, -1222)" gradientUnits="userSpaceOnUse"><stop offset="0" stop-color="#072164" stop-opacity="0.8"/><stop offset="1" stop-color="#072164" stop-opacity="0.2"/></linearGradient></defs><title>3</title><g id="Cuadrados_blancos" data-name="Cuadrados blancos"><rect class="cls-1" width="600" height="600"/></g><g id="Capa_2" data-name="Capa 2"><path class="cls-2" d="M366.56,333.55h150a3.12,3.12,0,0,0,3.13-3.11v-.05a156.36,156.36,0,0,0-112.86-147l-.43-.12c-1.22-.35-2.44-.68-3.66-1l-.76-.19c-1.15-.29-2.31-.57-3.47-.84l-.8-.19c-1.32-.29-2.64-.57-4-.83l-.25,0c-1.34-.26-2.68-.51-4-.73l-1.92-.3-2.12-.32q-1.14-.17-2.28-.3l-1.78-.22-2.43-.26-1.66-.15c-.83-.07-1.66-.15-2.49-.2-.57,0-1.15-.08-1.73-.11l-2.38-.14c-1.36-.06-2.72-.11-4.08-.14a3.21,3.21,0,0,0-1.76.51,3.13,3.13,0,0,0-1.4,2.57v0h0v150h0A3.13,3.13,0,0,0,366.56,333.55Z"/><path class="cls-3" d="M489.28,408.28a155.83,155.83,0,0,0,8.67-37v0c.31-2.89.55-5.8.7-8.73,0-.28,0-.57,0-.86.06-1.23.1-2.46.13-3.7,0-.14,0-.27,0-.41v0c0-1,0-2.08,0-3.13H342.6V201.28a3.13,3.13,0,0,0-3.09-3.15h-.07a156.28,156.28,0,0,0-70.22,294.25h0l.48.25,2.73,1.41,1,.48c.8.4,1.61.79,2.43,1.18l1.31.61c.69.32,1.37.63,2.06.93l1.7.75,1.63.68c.7.3,1.41.59,2.11.87l1.2.47,2.53,1,.76.27,2.94,1.05.34.11A154.09,154.09,0,0,0,313.9,508l1.32.24c.76.13,1.51.27,2.27.39a155.49,155.49,0,0,0,80.31-8.08c3.34-1.26,6.62-2.64,9.84-4.11a65,65,0,0,0,124-27.31v0A65,65,0,0,0,489.28,408.28Z"/><path class="cls-4" d="M286.44,154.13A156.34,156.34,0,0,0,143.37,365.6L289.6,310.38V157.28a3.13,3.13,0,0,0-3.09-3.15Z"/><path class="cls-5" d="M289.6,310.38,143.37,365.6a156.29,156.29,0,0,0,302.5-55.22Z"/><path class="cls-6" d="M310.43,136.42v150a3.13,3.13,0,0,0,3.13,3.13h150a3.12,3.12,0,0,0,3.13-3.11v-.05a156.29,156.29,0,0,0-153.1-153.11,3.12,3.12,0,0,0-3.16,3.08Z"/><path class="cls-7" d="M313.59,133.28a3.12,3.12,0,0,0-3.16,3.08V286.41a3.08,3.08,0,0,0,1,2.24L383,151.08A155.73,155.73,0,0,0,313.59,133.28Z"/><path class="cls-8" d="M289.6,310.38l-73.38,138A156.33,156.33,0,0,0,445.84,313.53a3.13,3.13,0,0,0-3.07-3.15H289.6Z"/><path class="cls-4" d="M478.64,425.17a65,65,0,1,1-65.05-64.95h0a65,65,0,0,1,65.05,64.93v0"/><path class="cls-9" d="M439.67,408.66H427.84v-7.09a2.36,2.36,0,0,0-2.34-2.37H401.82a2.39,2.39,0,0,0-2.37,2.37v7.09H387.62a2.37,2.37,0,0,0-2.37,2.35v37.88a2.36,2.36,0,0,0,2.37,2.35h52.05a2.36,2.36,0,0,0,2.37-2.35h0V411A2.37,2.37,0,0,0,439.67,408.66Zm-30.76,14.19H394.72v-4.72h18.9Zm14.21-14.19h-18.9v-4.73h18.9Z"/></g></svg>