<svg xmlns="http://www.w3.org/2000/svg" xmlns:xlink="http://www.w3.org/1999/xlink" viewBox="0 0 600 600"><defs><style>.cls-1{fill:none;}.cls-11,.cls-2{fill-rule:evenodd;}.cls-2{fill:url(#Degradado_sin_nombre_230);}.cls-3{fill:#49a5e6;}.cls-4{fill:url(#Degradado_sin_nombre_9);}.cls-5{fill:#043263;opacity:0.6;isolation:isolate;}.cls-6{fill:#004481;}.cls-7{fill:url(#Degradado_sin_nombre_447);}.cls-8{fill:#072146;}.cls-11,.cls-9{fill:#fff;}.cls-10{fill:#2dcccd;}</style><linearGradient id="Degradado_sin_nombre_230" x1="232.06" y1="176.66" x2="423.38" y2="536.47" gradientUnits="userSpaceOnUse"><stop offset="0" stop-color="#192647" stop-opacity="0.5"/><stop offset="1" stop-color="#192647" stop-opacity="0"/></linearGradient><linearGradient id="Degradado_sin_nombre_9" x1="496.55" y1="-3151.53" x2="261.82" y2="-3151.53" gradientTransform="matrix(1, 0, 0, -1, 0, -2894)" gradientUnits="userSpaceOnUse"><stop offset="0" stop-color="#043263" stop-opacity="0.5"/><stop offset="1" stop-color="#043263" stop-opacity="0"/></linearGradient><linearGradient id="Degradado_sin_nombre_447" x1="418" y1="-3240.76" x2="183.56" y2="-3240.76" gradientTransform="matrix(1, 0, 0, -1, 0, -2894)" gradientUnits="userSpaceOnUse"><stop offset="0" stop-color="#072146"/><stop offset="1" stop-color="#072146" stop-opacity="0"/></linearGradient></defs><title>13</title><g id="Cuadrados_Blancos" data-name="Cuadrados Blancos"><rect class="cls-1" width="600" height="600"/></g><g id="Capa_17" data-name="Capa 17"><path class="cls-2" d="M518.16,194.28H203.91a20,20,0,0,0-20,20v69.43H125.8a20,20,0,0,0-20,20V477.21a20,20,0,0,0,20,20H421.91A65.34,65.34,0,0,0,524.46,443.4v0a65,65,0,0,0-10.6-35.6h4.3a19.91,19.91,0,0,0,19.89-19.89V214.16A19.89,19.89,0,0,0,518.16,194.28Z"/><rect class="cls-3" x="142.45" y="150.78" width="354.1" height="213.5" rx="19.96"/><path class="cls-4" d="M476.66,364.28a19.91,19.91,0,0,0,19.89-19.89V170.66a19.89,19.89,0,0,0-19.89-19.88H375.34L261.82,364.28Z"/><rect class="cls-5" x="142.45" y="181.15" width="354.1" height="34.72"/><rect class="cls-6" x="64.34" y="240.17" width="354.1" height="213.5" rx="19.96"/><path class="cls-7" d="M395.41,453.35A22.6,22.6,0,0,0,418,430.75v-168a22.6,22.6,0,0,0-22.59-22.59H297L183.56,453.35Z"/><rect class="cls-8" x="64.34" y="270.1" width="353.66" height="34.66"/><rect class="cls-9" x="116.35" y="372.49" width="249.64" height="31.2" rx="2.95"/><path class="cls-10" d="M483,399.9a65.35,65.35,0,1,1-65.4-65.3h0A65.34,65.34,0,0,1,483,399.88v0"/><path class="cls-11" d="M443.77,385.25H431.88v-7.13a2.37,2.37,0,0,0-2.36-2.38h-23.8a2.4,2.4,0,0,0-2.38,2.38v7.13H391.5a2.37,2.37,0,0,0-2.38,2.36h0V425.7a2.37,2.37,0,0,0,2.37,2.37h52.33a2.37,2.37,0,0,0,2.38-2.36h0V387.62a2.37,2.37,0,0,0-2.37-2.37ZM412.85,399.5H398.58v-4.75h19Zm-4.75-14.27h19V380.5h-19Z"/></g></svg>