<svg xmlns="http://www.w3.org/2000/svg" xmlns:xlink="http://www.w3.org/1999/xlink" viewBox="0 0 600 600"><defs><style>.cls-1{fill:none;}.cls-2{fill:url(#Degradado_sin_nombre_419);}.cls-3{fill:#004481;}.cls-4{fill:url(#Degradado_sin_nombre_114);}.cls-5{fill:#043263;}.cls-6{fill:#2dcccd;}.cls-7{fill:#072146;}.cls-8{fill:#f8cd50;}.cls-9{opacity:0.5;isolation:isolate;fill:url(#Degradado_sin_nombre_29);}</style><linearGradient id="Degradado_sin_nombre_419" x1="244.44" y1="10355.05" x2="421.06" y2="10022.87" gradientTransform="matrix(1, 0, 0, -1, 0, 10510)" gradientUnits="userSpaceOnUse"><stop offset="0" stop-color="#192647" stop-opacity="0.5"/><stop offset="1" stop-color="#192647" stop-opacity="0"/></linearGradient><linearGradient id="Degradado_sin_nombre_114" x1="465.59" y1="10190.4" x2="287.17" y2="10190.4" gradientTransform="matrix(1, 0, 0, -1, 0, 10510)" gradientUnits="userSpaceOnUse"><stop offset="0" stop-color="#072146" stop-opacity="0.8"/><stop offset="1" stop-color="#072146" stop-opacity="0"/></linearGradient><linearGradient id="Degradado_sin_nombre_29" x1="278.98" y1="10210.34" x2="296.03" y2="10193.29" gradientTransform="matrix(1, 0, 0, -1, 0, 10510)" gradientUnits="userSpaceOnUse"><stop offset="0" stop-color="#fff" stop-opacity="0.7"/><stop offset="1" stop-color="#edf8f9" stop-opacity="0.2"/><stop offset="1" stop-color="#fff" stop-opacity="0"/></linearGradient></defs><title>11</title><g id="Cuadrados_Blancos" data-name="Cuadrados Blancos"><rect class="cls-1" width="600" height="600"/></g><g id="Capa_12" data-name="Capa 12"><path class="cls-2" d="M505,228.2H396.27V201.94a23.11,23.11,0,0,0-23.11-23.1H314.34a23.11,23.11,0,0,0-23.11,23.1V228.2H182.52a24.16,24.16,0,0,0-24.16,24.16h0v76.27a3.15,3.15,0,0,0,2.45,3.07l8.58,1.95V451.93a24.16,24.16,0,0,0,24.16,24.16H494a24.16,24.16,0,0,0,24.16-24.16V333.63l8.57-1.94a3.14,3.14,0,0,0,2.46-3.07V252.36A24.16,24.16,0,0,0,505,228.2ZM307,201.94h73.53V228.2H307Z"/><path class="cls-3" d="M120,215.6H462.44a3.15,3.15,0,0,1,3.15,3.15V399.41a24.16,24.16,0,0,1-24.16,24.16H141a24.16,24.16,0,0,1-24.16-24.16h0V218.75A3.15,3.15,0,0,1,120,215.6Z"/><path class="cls-4" d="M462.44,215.6H399.71l-112.54,208H441.44a24.15,24.15,0,0,0,24.15-24.15h0V218.75A3.15,3.15,0,0,0,462.44,215.6Z"/><path class="cls-5" d="M474.17,279.18,295.69,319.43a24.32,24.32,0,0,1-10.67,0L108.3,279.18a3.14,3.14,0,0,1-2.46-3.07V199.84A24.16,24.16,0,0,1,130,175.69H452.46a24.15,24.15,0,0,1,24.16,24.14h0V276.1A3.17,3.17,0,0,1,474.17,279.18Z"/><path class="cls-6" d="M261.82,126.32h58.82a23.11,23.11,0,0,1,23.11,23.11h-105a23.11,23.11,0,0,1,23.11-23.11Z"/><rect class="cls-7" x="238.72" y="149.43" width="15.76" height="26.26"/><rect class="cls-7" x="328" y="149.43" width="15.76" height="26.26"/><rect class="cls-8" x="279.15" y="286.82" width="24.16" height="52.52" rx="3.15"/><path class="cls-9" d="M300.16,286.82H282.31a3.16,3.16,0,0,0-3.16,3.15v45.2l24.16-44.35V290a3.15,3.15,0,0,0-3.12-3.18Z"/></g></svg>