<svg id="Capa_1" data-name="Capa 1" xmlns="http://www.w3.org/2000/svg" xmlns:xlink="http://www.w3.org/1999/xlink" viewBox="0 0 600 600"><defs><style>.cls-1,.cls-10,.cls-2,.cls-3{fill-rule:evenodd;}.cls-1{fill:url(#Degradado_sin_nombre_10);}.cls-2{fill:url(#Degradado_sin_nombre_10-2);}.cls-3{fill:url(#Degradado_sin_nombre_10-3);}.cls-4{fill:#49a5e6;}.cls-5{fill:#1464a5;}.cls-6{fill:#f8cd50;}.cls-7{opacity:0.5;isolation:isolate;fill:url(#Degradado_sin_nombre_22);}.cls-8{fill:url(#Degradado_sin_nombre_21);}.cls-9{fill:#2dcccd;}.cls-10{fill:#fff;}</style><linearGradient id="Degradado_sin_nombre_10" x1="191.54" y1="125.24" x2="436.51" y2="585.96" gradientUnits="userSpaceOnUse"><stop offset="0" stop-color="#192647"/><stop offset="0" stop-color="#192647" stop-opacity="0.3"/><stop offset="1" stop-color="#192647" stop-opacity="0"/></linearGradient><linearGradient id="Degradado_sin_nombre_10-2" x1="319.31" y1="59.57" x2="566.82" y2="525.06" xlink:href="#Degradado_sin_nombre_10"/><linearGradient id="Degradado_sin_nombre_10-3" x1="213.46" y1="99.93" x2="465.57" y2="574.08" xlink:href="#Degradado_sin_nombre_10"/><linearGradient id="Degradado_sin_nombre_22" x1="292.6" y1="642.39" x2="354.79" y2="675.47" gradientTransform="translate(0 -478)" gradientUnits="userSpaceOnUse"><stop offset="0" stop-color="#fff"/><stop offset="1" stop-color="#e7f6f7" stop-opacity="0.3"/><stop offset="1" stop-color="#fff" stop-opacity="0.5"/></linearGradient><linearGradient id="Degradado_sin_nombre_21" x1="449.76" y1="838.56" x2="227.26" y2="838.56" gradientTransform="translate(0 -478)" gradientUnits="userSpaceOnUse"><stop offset="0" stop-color="#043263" stop-opacity="0.5"/><stop offset="1" stop-color="#043263" stop-opacity="0.1"/></linearGradient></defs><title>API_MARKET</title><path class="cls-1" d="M345.39,183.47C261.76,185.21,195.28,254.4,197,338a153.77,153.77,0,0,0,9.69,50.3l141.68-53.5V186.47A3,3,0,0,0,345.39,183.47Z"/><path class="cls-2" d="M371.55,314.58H516.91a3,3,0,0,0,3-3v-.1A151.5,151.5,0,0,0,371.55,163.12a3.31,3.31,0,0,0-3,3.1V311.58A3,3,0,0,0,371.55,314.58Z"/><path class="cls-3" d="M491.22,385.21a151,151,0,0,0,8.64-50.38H348.39l-141.68,53.5a151,151,0,0,0,70.58,80.18l0,.05a151.29,151.29,0,0,0,124.62,7.95q4-1.51,7.9-3.24a65.32,65.32,0,1,0,81.44-88.06Z"/><path class="cls-4" d="M295.39,133.47C211.76,135.21,145.28,204.4,147,288a153.77,153.77,0,0,0,9.69,50.3l141.68-53.5V136.47a3,3,0,0,0-3-3Z"/><path class="cls-5" d="M298.39,284.83l-141.68,53.5c29.56,78.2,117,117.74,195.17,88.18a151.55,151.55,0,0,0,98-141.68Z"/><path class="cls-6" d="M318.55,116.22V261.58a3,3,0,0,0,3,3H466.91a3,3,0,0,0,3-3v-.1A151.5,151.5,0,0,0,321.55,113.12a3.31,3.31,0,0,0-3,3.1Z"/><path class="cls-7" d="M321.65,113.21a3.17,3.17,0,0,0-3.1,3V261.67a2.8,2.8,0,0,0,1,2.14L388.8,130.46A151.29,151.29,0,0,0,321.65,113.21Z"/><path class="cls-8" d="M298.39,284.83,227.26,418.56c73.84,39.25,165.61,11.15,204.86-62.69a151,151,0,0,0,17.64-67.93,3,3,0,0,0-3-3H298.39Z"/><path class="cls-9" d="M484.82,396.78a65.35,65.35,0,1,1-65.4-65.3h0a65.34,65.34,0,0,1,65.4,65.3"/><path class="cls-10" d="M445.64,380.13H433.75V373a2.37,2.37,0,0,0-2.39-2.38H407.59A2.4,2.4,0,0,0,405.2,373v7.13H393.31a2.38,2.38,0,0,0-2.38,2.36v38.09a2.37,2.37,0,0,0,2.38,2.36h52.33a2.37,2.37,0,0,0,2.38-2.36V382.49A2.38,2.38,0,0,0,445.64,380.13ZM414.72,394.4H400.45v-4.75h19ZM410,380.13h19v-4.76H410Z"/></svg>