<svg xmlns="http://www.w3.org/2000/svg" xmlns:xlink="http://www.w3.org/1999/xlink" viewBox="0 0 600 600"><defs><style>.cls-1{fill:none;}.cls-2{fill:url(#Degradado_sin_nombre_5);}.cls-3{fill:#6754b8;}.cls-4{fill:url(#Degradado_sin_nombre_2);}.cls-5{fill:#2dcccd;}.cls-6{fill:url(#Degradado_sin_nombre_3);}.cls-7{fill:#d4edfc;}.cls-8{fill:#072146;}</style><linearGradient id="Degradado_sin_nombre_5" x1="211.82" y1="-5726.01" x2="443.47" y2="-6161.7" gradientTransform="matrix(1, 0, 0, -1, 0, -5616)" gradientUnits="userSpaceOnUse"><stop offset="0" stop-color="#192647" stop-opacity="0.5"/><stop offset="1" stop-color="#192647" stop-opacity="0"/></linearGradient><linearGradient id="Degradado_sin_nombre_2" x1="145.4" y1="-5730.43" x2="231.64" y2="-5816.67" gradientTransform="matrix(1, 0, 0, -1, 0, -5616)" gradientUnits="userSpaceOnUse"><stop offset="0" stop-color="#fff" stop-opacity="0.4"/><stop offset="1" stop-color="#ebf7f8" stop-opacity="0.1"/></linearGradient><linearGradient id="Degradado_sin_nombre_3" x1="434.87" y1="-5931.08" x2="265.31" y2="-5931.08" gradientTransform="matrix(1, 0, 0, -1, 0, -5616)" gradientUnits="userSpaceOnUse"><stop offset="0" stop-color="#028484" stop-opacity="0.7"/><stop offset="1" stop-color="#028484" stop-opacity="0.1"/></linearGradient></defs><g id="Cuadrados_Blancos" data-name="Cuadrados Blancos"><rect class="cls-1" width="600" height="600"/></g><g id="Capa_31" data-name="Capa 31"><path class="cls-2" d="M479.5,261.55H468.34V220.27a22.31,22.31,0,0,0-44.62,0V227h-8.93a3.35,3.35,0,0,0,0,6.69h8.93v40.16H390.25V188A45.57,45.57,0,0,0,379.13,158l7.85-7.86a3.34,3.34,0,1,0-4.73-4.73l-7.86,7.86a45.69,45.69,0,0,0-60.38.54,94.91,94.91,0,0,0-22.1-16.28h0c-.88-.47-1.77-.93-2.67-1.37l-1.84-.88-1.79-.81c-.86-.38-1.72-.74-2.59-1.1-.69-.27-1.37-.55-2.06-.81s-1.14-.43-1.71-.63c-1.05-.38-2.1-.73-3.17-1.07-.49-.16-1-.3-1.48-.45-.87-.26-1.75-.51-2.63-.75l-1.23-.33c-1.2-.31-2.41-.58-3.62-.84l-1.27-.26c-1.27-.25-2.54-.48-3.83-.68l-.77-.11c-1.2-.18-2.4-.33-3.61-.46-.29,0-.58-.07-.88-.09-1.37-.14-2.74-.24-4.13-.32h-.9c-1.45-.07-2.9-.11-4.36-.11a94.83,94.83,0,0,0-94.83,94.82c0,1.46.05,2.91.11,4.35l.06,1.13c.07,1.27.17,2.53.29,3.79a2.05,2.05,0,0,0,.05.55c.14,1.41.33,2.81.53,4.2a6.67,6.67,0,0,0,.17,1.06c.18,1.15.39,2.3.61,3.44.06.27.11.56.17.83.28,1.36.59,2.7.92,4l.26,1c.29,1.09.59,2.16.92,3.23.09.33.19.66.29,1,.41,1.29.84,2.57,1.31,3.84.09.27.19.53.29.79q.6,1.57,1.23,3.12l.44,1.05c.53,1.23,1.08,2.45,1.66,3.65.08.18.17.35.26.53.51,1.05,1,2.09,1.6,3.12l.57,1.06c.59,1.06,1.19,2.11,1.81,3.15.08.12.15.25.22.38.69,1.12,1.4,2.22,2.13,3.31.23.35.46.69.7,1,.6.88,1.21,1.74,1.85,2.6l.53.73c.77,1,1.57,2,2.38,3l.8.95c.64.76,1.29,1.52,2,2.26l.77.85c.86.94,1.74,1.86,2.63,2.77l.86.84c.69.68,1.4,1.35,2.11,2,.32.29.63.59,1,.88.94.85,1.89,1.68,2.86,2.48.28.24.57.46.85.69.77.62,1.55,1.23,2.33,1.83l1.1.83c1,.73,2,1.45,3,2.15l.77.51c.88.59,1.78,1.16,2.69,1.72l1.2.73c.91.54,1.83,1.07,2.75,1.58a94,94,0,0,0,19.12,8v75.36A22.3,22.3,0,0,0,243,409.94h19v11.13a3.35,3.35,0,0,0,6.69,0V410h30.12V514.32H284c-11.61,0-22.44,3.82-28.88,10.18L241,538.5a2.72,2.72,0,0,0,1.91,4.65H448.33a2.72,2.72,0,0,0,1.91-4.65l-14.14-14c-6.44-6.36-17.28-10.18-28.88-10.18h-17V476.86h2.23a3.35,3.35,0,1,0,0-6.7h-2.23V348.57h11.16a3.35,3.35,0,1,0,0-6.7H390.25V318.44H446a22.31,22.31,0,0,0,22.31-22.31V268.24H479.5a3.35,3.35,0,0,0,0-6.69ZM265.31,365.33V314.39a94.14,94.14,0,0,0,33.46-13.45v10.81h-2.23a3.35,3.35,0,0,0,0,6.69h2.23v46.89Z"/><circle class="cls-3" cx="213.9" cy="180.01" r="94.82"/><path class="cls-4" d="M213.9,85.18a94.84,94.84,0,0,0-45.05,178.28l89.6-167.17A94.43,94.43,0,0,0,213.9,85.18Z"/><path class="cls-5" d="M412.56,156.69A22.31,22.31,0,0,0,390.25,179v53.55H356.78v-85.9A45.74,45.74,0,0,0,311,100.91h0a45.72,45.72,0,0,0-45.73,45.73h0v177.4H231.84V225.87a22.31,22.31,0,0,0-22.31-22.31h0a22.31,22.31,0,0,0-22.31,22.31V346.35a22.31,22.31,0,0,0,22.31,22.31h55.79V473.51h91.47V277.17h55.78a22.31,22.31,0,0,0,22.31-22.31V179a22.31,22.31,0,0,0-22.31-22.31Z"/><path class="cls-6" d="M412.56,156.69A22.31,22.31,0,0,0,390.25,179v53.55H356.78V213.46l-91.47,172v88h91.47V277.17h55.78a22.31,22.31,0,0,0,22.31-22.31V179A22.31,22.31,0,0,0,412.56,156.69Z"/><path class="cls-7" d="M381.33,185.69h15.61a3.35,3.35,0,0,1,3.35,3.35h0a3.35,3.35,0,0,1-3.35,3.34H381.33A3.35,3.35,0,0,1,378,189h0A3.35,3.35,0,0,1,381.33,185.69Z"/><path class="cls-7" d="M430.41,220.27H446a3.35,3.35,0,0,1,3.35,3.35h0A3.35,3.35,0,0,1,446,227H430.41a3.35,3.35,0,0,1-3.35-3.34h0A3.35,3.35,0,0,1,430.41,220.27Z"/><path class="cls-7" d="M257.5,153.34h15.61a3.35,3.35,0,0,1,3.35,3.34h0a3.35,3.35,0,0,1-3.35,3.35H257.5a3.35,3.35,0,0,1-3.35-3.35h0A3.35,3.35,0,0,1,257.5,153.34Z"/><path class="cls-7" d="M228.5,379.8V364.19a3.35,3.35,0,0,1,3.35-3.35h0a3.35,3.35,0,0,1,3.34,3.35V379.8a3.35,3.35,0,0,1-3.34,3.35h0A3.35,3.35,0,0,1,228.5,379.8Z"/><path class="cls-7" d="M321.09,208V192.39a3.35,3.35,0,0,1,3.35-3.35h0a3.35,3.35,0,0,1,3.34,3.35V208a3.35,3.35,0,0,1-3.34,3.35h0A3.35,3.35,0,0,1,321.09,208Z"/><path class="cls-7" d="M293.2,402.11V386.5a3.35,3.35,0,0,1,3.34-3.35h0a3.35,3.35,0,0,1,3.35,3.35v15.61a3.35,3.35,0,0,1-3.35,3.35h0A3.35,3.35,0,0,1,293.2,402.11Z"/><path class="cls-7" d="M352.32,300.6h15.61a3.35,3.35,0,0,1,3.35,3.35h0a3.35,3.35,0,0,1-3.35,3.34H352.32A3.35,3.35,0,0,1,349,304h0A3.35,3.35,0,0,1,352.32,300.6Z"/><path class="cls-7" d="M337.74,115.22l11-11a3.35,3.35,0,0,1,4.73,0h0a3.34,3.34,0,0,1,0,4.73l-11,11a3.35,3.35,0,0,1-4.73,0h0A3.35,3.35,0,0,1,337.74,115.22Z"/><path class="cls-7" d="M188.61,200l11,11a3.35,3.35,0,0,1,0,4.73h0a3.35,3.35,0,0,1-4.74,0l-11-11a3.35,3.35,0,0,1,0-4.73h0A3.35,3.35,0,0,1,188.61,200Z"/><path class="cls-7" d="M263.08,270.48h15.61a3.35,3.35,0,0,1,3.35,3.35h0a3.35,3.35,0,0,1-3.35,3.34H263.08a3.35,3.35,0,0,1-3.35-3.34h0A3.35,3.35,0,0,1,263.08,270.48Z"/><path class="cls-7" d="M343.4,428.89H359a3.35,3.35,0,0,1,3.35,3.35h0a3.35,3.35,0,0,1-3.35,3.34H343.4a3.35,3.35,0,0,1-3.35-3.34h0A3.35,3.35,0,0,1,343.4,428.89Z"/><path class="cls-8" d="M414.86,501.85H209.41a2.72,2.72,0,0,1-1.91-4.66l14.14-14c6.44-6.36,17.28-10.18,28.88-10.18H373.75c11.61,0,22.44,3.82,28.88,10.18l14.14,14a2.72,2.72,0,0,1-1.91,4.66Z"/></g></svg>