<svg xmlns="http://www.w3.org/2000/svg" xmlns:xlink="http://www.w3.org/1999/xlink" viewBox="0 0 600 600"><defs><style>.cls-1{fill:none;}.cls-2{fill:url(#Degradado_sin_nombre_429);}.cls-3{fill:#004481;}.cls-4{fill:#2dcccd;}.cls-5{fill:#eaf9fa;}.cls-6{fill:url(#Degradado_sin_nombre_36);}.cls-7{fill:url(#Degradado_sin_nombre_35);}.cls-8{fill:url(#Degradado_sin_nombre_114);}.cls-9{fill:#1464a5;}.cls-10{fill:#f8cd50;}.cls-11{fill:#eb5e62;}</style><linearGradient id="Degradado_sin_nombre_429" x1="178.97" y1="78.09" x2="448.33" y2="584.68" gradientUnits="userSpaceOnUse"><stop offset="0" stop-color="#192647" stop-opacity="0.5"/><stop offset="1" stop-color="#192647" stop-opacity="0"/></linearGradient><linearGradient id="Degradado_sin_nombre_36" x1="548.4" y1="298.3" x2="289.76" y2="298.3" gradientUnits="userSpaceOnUse"><stop offset="0" stop-color="#192647"/><stop offset="0" stop-color="#028484" stop-opacity="0.6"/><stop offset="1" stop-color="#028484" stop-opacity="0"/></linearGradient><linearGradient id="Degradado_sin_nombre_35" x1="517.66" y1="374.05" x2="181.78" y2="374.05" gradientUnits="userSpaceOnUse"><stop offset="0" stop-color="#192647"/><stop offset="0" stop-color="#028484" stop-opacity="0.8"/><stop offset="1" stop-color="#028484" stop-opacity="0"/></linearGradient><linearGradient id="Degradado_sin_nombre_114" x1="507.48" y1="249.5" x2="252.48" y2="249.5" gradientUnits="userSpaceOnUse"><stop offset="0" stop-color="#072146" stop-opacity="0.8"/><stop offset="1" stop-color="#072146" stop-opacity="0"/></linearGradient></defs><title>11</title><g id="Cuadrados_Blancos" data-name="Cuadrados Blancos"><rect class="cls-1" width="600" height="600"/></g><g id="Capa_13" data-name="Capa 13"><path class="cls-2" d="M542.4,448.2h1.1V337.3a41.06,41.06,0,0,0,3.9-2.4,36.85,36.85,0,0,0,3.7-3.2,31.93,31.93,0,0,0,4.6-39.4,37.41,37.41,0,0,0-4.6-5.9l-3.3-3.3-9.9-9.9a31.94,31.94,0,0,0-22.6-9.4h-16a18,18,0,0,0-24.6-6.5,18.4,18.4,0,0,0-6.5,6.5h-59a18,18,0,0,0-24.6-6.5,18.4,18.4,0,0,0-6.5,6.5h-20V190.7a3.16,3.16,0,0,0-3.2-3.2h-1.2a10.38,10.38,0,0,0,6.4-9.7c0-1.4-.7-15-8.3-31.1a1.32,1.32,0,0,0-1.8-.6,1.2,1.2,0,0,0-.7,1c-1.7,12.6-9.2,26.4-9.2,26.4a10.84,10.84,0,0,0-.9,5,10.73,10.73,0,0,0,6.4,9h-1.2a3.16,3.16,0,0,0-3.2,3.2v73.1h-23a18,18,0,0,0-24.6-6.5,18.4,18.4,0,0,0-6.5,6.5h-60a18,18,0,0,0-24.6-6.5,18.4,18.4,0,0,0-6.5,6.5H180a31.94,31.94,0,0,0-22.6,9.4l-13.2,13.2a32,32,0,0,0,0,45.3,32.56,32.56,0,0,0,11.8,7.5v109h1.1a28.59,28.59,0,0,0-28.6,28.6,3.14,3.14,0,0,0,3.1,3.2H568.1a3.16,3.16,0,0,0,3.2-3.2,29,29,0,0,0-28.9-28.6Z"/><path class="cls-3" d="M102.1,395.2H491a27,27,0,0,1,27,27h0V424a3,3,0,0,1-3,3H78.1a3,3,0,0,1-3-3v-1.8a27,27,0,0,1,27-27Z"/><rect class="cls-4" x="102.7" y="352.9" width="387.8" height="42.4"/><rect class="cls-5" x="102.7" y="243.7" width="387.8" height="109.1"/><polygon class="cls-6" points="490.5 243.7 379.3 243.7 323.2 352.9 490.5 352.9 490.5 243.7"/><polygon class="cls-7" points="257.1 352.9 235.3 395.2 490.5 395.2 490.5 352.9 257.1 352.9"/><path class="cls-3" d="M462.2,210.8H126.7a31.94,31.94,0,0,0-22.6,9.4L90.9,233.5a32,32,0,0,0,0,45.3h0a31.93,31.93,0,0,0,45.2,0h0a31.93,31.93,0,0,1,45.2,0h0a31.93,31.93,0,0,0,45.2,0h0a31.93,31.93,0,0,1,45.2,0h0a31.93,31.93,0,0,0,45.2,0h0a31.93,31.93,0,0,1,45.2,0h0a31.93,31.93,0,0,0,45.2,0h0a31.93,31.93,0,0,1,45.2,0h0a31.93,31.93,0,0,0,45.2,0h0a31.93,31.93,0,0,0,0-45.2l-13.2-13.2A30.16,30.16,0,0,0,462.2,210.8Z"/><path class="cls-8" d="M498.1,233.5l-13.2-13.2a31.94,31.94,0,0,0-22.6-9.4h-132l-40,76.9a31.92,31.92,0,0,0,27-9.1h0a31.93,31.93,0,0,1,45.2,0h0a31.93,31.93,0,0,0,45.2,0h0a31.93,31.93,0,0,1,45.2,0h0a31.93,31.93,0,0,0,45.2,0h0A31.93,31.93,0,0,0,498.1,233.5Z"/><circle class="cls-9" cx="158.9" cy="313.7" r="17.5"/><circle class="cls-9" cx="248.9" cy="313.7" r="17.5"/><circle class="cls-9" cx="340" cy="313.7" r="17.5"/><circle class="cls-9" cx="430.1" cy="313.7" r="17.5"/><path class="cls-10" d="M291.1,134.6h11a3,3,0,0,1,3,3v73.3h-17V137.6A3,3,0,0,1,291.1,134.6Z"/><path class="cls-11" d="M298.8,92.8a1.32,1.32,0,0,0-1.8-.6,1.2,1.2,0,0,0-.7,1c-1.7,12.6-9.2,26.3-9.2,26.3a10.84,10.84,0,0,0-.9,5,10.69,10.69,0,0,0,10.2,9.9,10.57,10.57,0,0,0,10.8-10.2v-.3A87.53,87.53,0,0,0,298.8,92.8Z"/></g></svg>