<?xml version="1.0" encoding="utf-8"?>
<!-- Generator: Adobe Illustrator 23.0.1, SVG Export Plug-In . SVG Version: 6.00 Build 0)  -->
<svg version="1.1" id="Capa_1" xmlns="http://www.w3.org/2000/svg" xmlns:xlink="http://www.w3.org/1999/xlink" x="0px" y="0px"
	 viewBox="0 0 600 600" style="enable-background:new 0 0 600 600;" xml:space="preserve">
<style type="text/css">
	.st0{fill:url(#SVGID_1_);}
	.st1{fill:#1464A5;}
	.st2{fill:#2DCCCD;}
	.st3{fill:#EAF9FA;}
	.st4{fill:url(#SVGID_2_);}
	.st5{fill:url(#SVGID_3_);}
	.st6{fill:url(#SVGID_4_);}
	.st7{fill:#F8CD50;}
	.st8{fill:#EB5E62;}
</style>
<title>Mesa de trabajo 1 copia 26</title>
<linearGradient id="SVGID_1_" gradientUnits="userSpaceOnUse" x1="178.824" y1="521.8375" x2="448.1841" y2="15.2474" gradientTransform="matrix(1 0 0 -1 0 600)">
	<stop  offset="0" style="stop-color:#192647"/>
	<stop  offset="0" style="stop-color:#192647;stop-opacity:0.5"/>
	<stop  offset="1" style="stop-color:#192647;stop-opacity:0"/>
</linearGradient>
<path class="st0" d="M542.4,448.2h1.1V337.3c1.3-0.7,2.6-1.5,3.9-2.4c1.3-1,2.5-2,3.7-3.2c10.5-10.5,12.4-26.8,4.6-39.4
	c-1.3-2.1-2.9-4.1-4.6-5.9l-3.3-3.3l-9.9-9.9c-6-6-14.1-9.4-22.6-9.4h-16c-5-8.6-16-11.5-24.6-6.5c-2.7,1.6-4.9,3.8-6.5,6.5h-59
	c-5-8.6-16-11.5-24.6-6.5c-2.7,1.6-4.9,3.8-6.5,6.5h-20v-73.1c0-1.8-1.4-3.2-3.2-3.2h-1.2c3.9-1.6,6.4-5.4,6.4-9.7
	c0-1.4-0.7-15-8.3-31.1c-0.3-0.7-1.1-0.9-1.8-0.6c-0.4,0.2-0.7,0.6-0.7,1c-1.7,12.6-9.2,26.4-9.2,26.4c-0.7,1.6-1,3.3-0.9,5
	c0.3,4,2.8,7.4,6.4,9h-1.2c-1.8,0-3.2,1.4-3.2,3.2v73.1h-23c-5-8.6-16-11.5-24.6-6.5c-2.7,1.6-4.9,3.8-6.5,6.5h-60
	c-5-8.6-16-11.5-24.6-6.5c-2.7,1.6-4.9,3.8-6.5,6.5h-16c-8.5,0-16.6,3.4-22.6,9.4l-13.2,13.2c-12.5,12.5-12.5,32.8,0,45.3
	c3.3,3.3,7.4,5.9,11.8,7.5v109h1.1c-15.8,0-28.6,12.8-28.6,28.6c0,1.8,1.4,3.2,3.1,3.2c0,0,0,0,0,0h436.5c1.8,0,3.2-1.4,3.2-3.2
	C571,461,558.2,448.2,542.4,448.2L542.4,448.2z"/>
<path class="st1" d="M102.1,395.2H491c14.9,0,27,12.1,27,27l0,0v1.8c0,1.7-1.3,3-3,3H78.1c-1.7,0-3-1.3-3-3v-1.8
	C75.1,407.3,87.2,395.2,102.1,395.2L102.1,395.2L102.1,395.2z"/>
<rect x="102.7" y="352.9" class="st2" width="387.8" height="42.4"/>
<rect x="102.7" y="243.7" class="st3" width="387.8" height="109.1"/>
<linearGradient id="SVGID_2_" gradientUnits="userSpaceOnUse" x1="548.4" y1="301.705" x2="289.76" y2="301.705" gradientTransform="matrix(1 0 0 -1 0 600)">
	<stop  offset="0" style="stop-color:#192647"/>
	<stop  offset="0" style="stop-color:#028484;stop-opacity:0.6"/>
	<stop  offset="1" style="stop-color:#028484;stop-opacity:0"/>
</linearGradient>
<polygon class="st4" points="490.5,243.7 379.3,243.7 323.2,352.9 490.5,352.9 "/>
<linearGradient id="SVGID_3_" gradientUnits="userSpaceOnUse" x1="517.66" y1="225.95" x2="181.78" y2="225.95" gradientTransform="matrix(1 0 0 -1 0 600)">
	<stop  offset="0" style="stop-color:#192647"/>
	<stop  offset="0" style="stop-color:#028484;stop-opacity:0.8"/>
	<stop  offset="1" style="stop-color:#028484;stop-opacity:0"/>
</linearGradient>
<polygon class="st5" points="257.1,352.9 235.3,395.2 490.5,395.2 490.5,352.9 "/>
<path class="st1" d="M462.2,210.8H126.7c-8.5,0-16.6,3.4-22.6,9.4l-13.2,13.3c-12.5,12.5-12.5,32.8,0,45.3l0,0
	c12.5,12.5,32.7,12.5,45.2,0l0,0c12.5-12.5,32.8-12.5,45.2,0l0,0c12.5,12.5,32.7,12.5,45.2,0l0,0c12.5-12.5,32.7-12.5,45.2,0l0,0
	c12.5,12.5,32.8,12.5,45.2,0l0,0c12.5-12.5,32.7-12.5,45.2,0l0,0c12.5,12.5,32.7,12.5,45.2,0l0,0c12.5-12.5,32.8-12.5,45.2,0l0,0
	c12.5,12.5,32.7,12.5,45.2,0l0,0c12.5-12.5,12.5-32.8,0-45.2l-13.2-13.2C478.8,214.2,470.7,210.8,462.2,210.8z"/>
<linearGradient id="SVGID_4_" gradientUnits="userSpaceOnUse" x1="507.4302" y1="350.5406" x2="252.4302" y2="350.5406" gradientTransform="matrix(1 0 0 -1 0 600)">
	<stop  offset="0" style="stop-color:#192647"/>
	<stop  offset="0" style="stop-color:#043263;stop-opacity:0.8"/>
	<stop  offset="1" style="stop-color:#043263;stop-opacity:0"/>
</linearGradient>
<path class="st6" d="M498.1,233.5l-13.2-13.2c-6-6-14.1-9.4-22.6-9.4h-132l-40,76.9c9.9,1.4,19.9-2,27-9.1l0,0
	c12.5-12.5,32.7-12.5,45.2,0l0,0c12.5,12.5,32.7,12.5,45.2,0l0,0c12.5-12.5,32.8-12.5,45.2,0l0,0c12.5,12.5,32.7,12.5,45.2,0l0,0
	C510.6,266.2,510.6,246,498.1,233.5z"/>
<circle class="st1" cx="158.9" cy="313.7" r="17.5"/>
<circle class="st1" cx="248.9" cy="313.7" r="17.5"/>
<circle class="st1" cx="340" cy="313.7" r="17.5"/>
<circle class="st1" cx="430.1" cy="313.7" r="17.5"/>
<path class="st7" d="M291.1,134.6h11c1.7,0,3,1.3,3,3v73.3l0,0h-17l0,0v-73.3C288.1,135.9,289.5,134.6,291.1,134.6z"/>
<path class="st8" d="M298.8,92.8c-0.3-0.7-1.1-0.9-1.8-0.6c-0.4,0.2-0.7,0.6-0.7,1c-1.7,12.6-9.2,26.3-9.2,26.3
	c-0.7,1.6-1,3.3-0.9,5c0.4,5.4,4.8,9.7,10.2,9.9c5.8,0.1,10.6-4.4,10.8-10.2c0-0.1,0-0.2,0-0.3C307.1,122.4,306.4,108.9,298.8,92.8z
	"/>
</svg>
