<svg xmlns="http://www.w3.org/2000/svg" xmlns:xlink="http://www.w3.org/1999/xlink" viewBox="0 0 600 600"><defs><style>.cls-1{fill:none;}.cls-2{fill:url(#Degradado_sin_nombre_427);}.cls-3{fill:#004481;}.cls-4{fill:url(#Degradado_sin_nombre_114);}.cls-5{fill:#072146;}.cls-6{fill:#fff;}.cls-7{fill:#2dcccd;}.cls-8{fill:url(#Degradado_sin_nombre_38);}.cls-9{fill:#49a5e6;}.cls-10{opacity:0.5;}.cls-11{fill:url(#Degradado_sin_nombre_37);}.cls-12{fill:#eaf9fa;}.cls-13{fill:#f8cd50;}.cls-14{fill:url(#Degradado_sin_nombre_37-2);}</style><linearGradient id="Degradado_sin_nombre_427" x1="115.37" y1="9380.84" x2="451.86" y2="8747.99" gradientTransform="matrix(1, 0, 0, -1, 0, 9270)" gradientUnits="userSpaceOnUse"><stop offset="0" stop-color="#192647" stop-opacity="0.5"/><stop offset="1" stop-color="#192647" stop-opacity="0"/></linearGradient><linearGradient id="Degradado_sin_nombre_114" x1="526.24" y1="8979.12" x2="346" y2="8979.12" gradientTransform="matrix(1, 0, 0, -1, 0, 9270)" gradientUnits="userSpaceOnUse"><stop offset="0" stop-color="#072146" stop-opacity="0.8"/><stop offset="1" stop-color="#072146" stop-opacity="0"/></linearGradient><linearGradient id="Degradado_sin_nombre_38" x1="350.48" y1="8938.78" x2="197" y2="8938.78" gradientTransform="matrix(1, 0, 0, -1, 0, 9270)" gradientUnits="userSpaceOnUse"><stop offset="0" stop-color="#028484" stop-opacity="0.6"/><stop offset="1" stop-color="#028484" stop-opacity="0"/></linearGradient><linearGradient id="Degradado_sin_nombre_37" x1="163.89" y1="9130.12" x2="247.24" y2="9085.8" gradientTransform="matrix(1, 0, 0, -1, 0, 9270)" gradientUnits="userSpaceOnUse"><stop offset="0" stop-color="#eaf9fa"/><stop offset="1" stop-color="#eaf9fa" stop-opacity="0.2"/><stop offset="1" stop-color="#eaf9fa" stop-opacity="0.5"/></linearGradient><linearGradient id="Degradado_sin_nombre_37-2" x1="257.43" y1="8923.19" x2="303.26" y2="8898.82" xlink:href="#Degradado_sin_nombre_37"/></defs><title>11</title><g id="Cuadrados_Blancos" data-name="Cuadrados Blancos"><rect class="cls-1" width="600" height="600"/></g><g id="Capa_14" data-name="Capa 14"><g id="Contenido"><path class="cls-2" d="M558.36,258.9H400.53V173.78a23,23,0,0,0-23-23H211.19a23,23,0,0,0-23,23V504a23,23,0,0,0,23,23H379.48a21,21,0,0,0,21-21.05V423H558.36A17.88,17.88,0,0,0,576.24,405V276.78h0a17.89,17.89,0,0,0-17.88-17.88Z"/><rect class="cls-3" x="254.82" y="208.9" width="271.42" height="163.97" rx="17.88"/><path class="cls-4" d="M508.36,372.87A17.89,17.89,0,0,0,526.24,355V226.78a17.89,17.89,0,0,0-17.88-17.88H433.15L346,372.87Z"/><rect class="cls-5" x="254.82" y="233.04" width="271.42" height="27.21"/><rect class="cls-6" x="294.46" y="309.85" width="194.46" height="24.31" rx="2.33"/><rect class="cls-7" x="138.19" y="100.78" width="212.34" height="376.17" rx="23"/><path class="cls-8" d="M197,477H329.48a21,21,0,0,0,21-21.05V185.45Z"/><rect class="cls-9" x="159.24" y="146.18" width="170.24" height="40.27" rx="3"/><g class="cls-10"><path class="cls-11" d="M162,146.54a2.75,2.75,0,0,0-2.75,2.75v34.78a2.76,2.76,0,0,0,2.75,2.74h83.73l21.53-40.27Z"/></g><rect class="cls-12" x="159.24" y="231.66" width="46.68" height="40.27" rx="3"/><rect class="cls-12" x="221.02" y="231.66" width="46.68" height="40.27" rx="3"/><rect class="cls-12" x="282.8" y="231.66" width="46.68" height="40.27" rx="3"/><rect class="cls-12" x="159.24" y="284.75" width="46.68" height="40.27" rx="3"/><rect class="cls-12" x="221.02" y="284.75" width="46.68" height="40.27" rx="3"/><rect class="cls-12" x="282.8" y="284.75" width="46.68" height="40.27" rx="3"/><rect class="cls-12" x="159.24" y="337.83" width="46.68" height="40.27" rx="3"/><rect class="cls-12" x="221.02" y="337.83" width="46.68" height="40.27" rx="3"/><rect class="cls-12" x="159.24" y="390.92" width="46.68" height="40.27" rx="3"/><rect class="cls-12" x="221.02" y="390.92" width="46.68" height="40.27" rx="3"/><rect class="cls-13" x="282.8" y="337.83" width="46.68" height="93.36" rx="4.57"/><path class="cls-14" d="M287.37,337.83a4.59,4.59,0,0,0-4.57,4.57v59.51l36-64.08Z"/></g></g></svg>