<?xml version="1.0" encoding="utf-8"?>
<!-- Generator: Adobe Illustrator 23.0.1, SVG Export Plug-In . SVG Version: 6.00 Build 0)  -->
<svg version="1.1" id="Contenido" xmlns="http://www.w3.org/2000/svg" xmlns:xlink="http://www.w3.org/1999/xlink" x="0px" y="0px"
	 viewBox="0 0 600 600" style="enable-background:new 0 0 600 600;" xml:space="preserve">
<style type="text/css">
	.st0{fill:url(#SVGID_1_);}
	.st1{fill:#4EA5E2;}
	.st2{opacity:0.5;fill-rule:evenodd;clip-rule:evenodd;fill:url(#SVGID_2_);enable-background:new    ;}
	.st3{fill:#D4ECFA;}
	.st4{fill:#07467F;}
	.st5{fill:#D4EDFC;}
	.st6{fill:#1464A5;}
	.st7{fill:#2DCCCD;}
	.st8{fill:url(#SVGID_3_);}
	.st9{fill:#FFFFFF;}
	.st10{fill:#DA3951;}
</style>
<title>GLOMO</title>
<linearGradient id="SVGID_1_" gradientUnits="userSpaceOnUse" x1="258.8869" y1="426.048" x2="449.2827" y2="67.9646" gradientTransform="matrix(1 0 0 -1 0 602)">
	<stop  offset="0" style="stop-color:#192647"/>
	<stop  offset="0" style="stop-color:#192647;stop-opacity:0.5"/>
	<stop  offset="1" style="stop-color:#192647;stop-opacity:0"/>
</linearGradient>
<path class="st0" d="M577.5,344.4v-17.8c0-6.3-5.1-11.5-11.5-11.5c0,0,0,0,0,0h-14.1v-11.4c0-2.8-2.3-5.1-5.1-5.1l0,0l0,0
	c-2.8,0-5.1,2.3-5.1,5.1c0,0,0,0,0,0v11.4h-45.9v-79.8c0-5.6-4.5-10.1-10.1-10.1H168.2c-4.5,0-8.1,3.6-8.2,8.1c0,0,0,0,0,0.1v0.6
	c-0.1,0.5-0.1,0.9-0.1,1.4v202.1c0,0.4,0,0.9,0.1,1.3v0.5c-0.1,4.4,3.3,8.1,7.7,8.3c0.1,0,0.2,0,0.3,0h245.2V459
	c0,6.3,5.1,11.5,11.4,11.5h0H566c6.3,0,11.5-5.1,11.5-11.4c0,0,0,0,0,0V344.4L577.5,344.4z"/>
<path class="st1" d="M140,172.8h315.7c5.6,0,10.1,4.5,10.1,10.1V385c0,5.6-4.5,10.1-10.1,10.1H140c-5.6,0-10-4.5-10.1-10.1V182.9
	c0-5.5,4.4-10,9.9-10.1C139.9,172.8,140,172.8,140,172.8z"/>
<linearGradient id="SVGID_2_" gradientUnits="userSpaceOnUse" x1="169.6292" y1="-10697.2598" x2="332.7092" y2="-10610.5498" gradientTransform="matrix(1 0 0 1 0 10926.4102)">
	<stop  offset="0" style="stop-color:#E9F8F9"/>
	<stop  offset="1" style="stop-color:#E9F8F9;stop-opacity:0.2"/>
	<stop  offset="1" style="stop-color:#E9F8F9;stop-opacity:0.5"/>
</linearGradient>
<path class="st2" d="M138.1,395.1h162.2l109.1-222.3H138.2c-4.5,0-8.2,3.6-8.2,8c0,0.1,0,0.1,0,0.2l0,0v205.9
	c-0.1,4.4,3.3,8.1,7.7,8.3C137.9,395.1,138,395.1,138.1,395.1z"/>
<rect x="160" y="281.6" class="st3" width="125.5" height="29.5"/>
<rect x="160" y="331.4" class="st3" width="274" height="29.5"/>
<path class="st4" d="M268.4,207.6l-12.1,23c-0.2,0.3-0.6,0.5-1,0.3l-0.3-0.3l-12.1-23c-0.1-0.2-0.4-0.4-0.6-0.4h-5.9
	c-0.3,0-0.5,0.2-0.5,0.4c0,0,0,0,0,0.1c0,0.1,0,0.2,0.1,0.2l19.1,35.6c0.2,0.3,0.6,0.5,0.9,0.3l0.3-0.3l19-35.6
	c0.1-0.3,0-0.5-0.2-0.7c-0.1,0-0.2-0.1-0.3-0.1H269C268.7,207.2,268.5,207.3,268.4,207.6"/>
<path class="st4" d="M275.2,238.3l12.1-23c0.2-0.3,0.6-0.5,1-0.3l0.3,0.3l12.1,23c0.1,0.2,0.3,0.4,0.6,0.4h5.9
	c0.3,0,0.5-0.2,0.5-0.4c0,0,0,0,0-0.1c0-0.1,0-0.2-0.1-0.2l-19.1-35.6c-0.2-0.3-0.6-0.5-0.9-0.3l-0.3,0.3l-19,35.5
	c-0.1,0.3,0,0.6,0.2,0.7c0.1,0,0.1,0.1,0.2,0.1h5.9C274.8,238.7,275,238.5,275.2,238.3"/>
<path class="st4" d="M184.9,238.6H174c-0.4,0-0.7-0.3-0.7-0.7c0,0,0,0,0,0l0,0v-9.8c0-0.4,0.3-0.7,0.7-0.7c0,0,0,0,0,0h10.9
	c5.1,0,7.5,1.5,7.5,5.6S190.1,238.6,184.9,238.6 M174,212.5h10.7c3.9,0,5.9,1.7,5.9,4.8s-2,4.8-5.9,4.8H174c-0.4,0-0.7-0.3-0.7-0.7
	c0,0,0,0,0,0l0,0v-8.3C173.3,212.8,173.6,212.5,174,212.5C174,212.5,174,212.5,174,212.5L174,212.5 M192.6,224.2
	c2.7-1.5,4.2-4.3,4.1-7.4c0-5.8-4.4-9.6-10.8-9.6h-18.1c-0.4,0-0.7,0.3-0.7,0.7c0,0,0,0,0,0l0,0v35.4c0,0.4,0.3,0.7,0.7,0.7
	c0,0,0,0,0,0h17.3c8.7,0,13.2-3.7,13.2-11S192.7,224.2,192.6,224.2"/>
<path class="st4" d="M222,238.6h-10.9c-0.4,0-0.7-0.3-0.7-0.7c0,0,0,0,0,0v-9.8c0-0.4,0.3-0.7,0.7-0.7c0,0,0,0,0,0H222
	c5.1,0,7.5,1.5,7.5,5.6S227.2,238.6,222,238.6 M211.1,212.5h10.7c3.9,0,6,1.7,6,4.8s-2,4.8-6,4.8h-10.7c-0.4,0-0.7-0.3-0.7-0.7
	c0,0,0,0,0,0v-8.3C210.4,212.8,210.7,212.5,211.1,212.5C211.1,212.5,211.1,212.5,211.1,212.5L211.1,212.5 M229.9,224.2
	c2.6-1.5,4.2-4.3,4.1-7.4c0-5.8-4.4-9.6-10.8-9.6h-18.1c-0.4,0-0.7,0.3-0.7,0.7c0,0,0,0,0,0l0,0v35.4c0,0.4,0.3,0.7,0.7,0.7
	c0,0,0,0,0,0h17.3c8.7,0,13.2-3.7,13.2-11S229.9,224.2,229.9,224.2"/>
<path class="st5" d="M383.3,291.9h164.1l0,0v114.7c0,6.3-5.1,11.4-11.4,11.4H394.7c-6.3,0-11.4-5.1-11.4-11.4V291.9L383.3,291.9z"/>
<path class="st6" d="M394.5,262.6h141.4c6.3,0,11.5,5.1,11.5,11.5l0,0v17.8l0,0H383.1l0,0v-17.8
	C383.1,267.8,388.2,262.6,394.5,262.6z"/>
<path class="st7" d="M414,246.2L414,246.2c2.8,0,5.1,2.3,5.1,5.1v20.4c0,2.8-2.3,5.1-5.1,5.1h0c-2.8,0-5.1-2.3-5.1-5.1v-20.4
	C408.9,248.5,411.2,246.2,414,246.2z"/>
<path class="st7" d="M516.7,246.2L516.7,246.2c2.8,0,5.1,2.3,5.1,5.1v20.4c0,2.8-2.3,5.1-5.1,5.1h0c-2.8,0-5.1-2.3-5.1-5.1v-20.4
	C511.7,248.5,513.9,246.2,516.7,246.2z"/>
<linearGradient id="SVGID_3_" gradientUnits="userSpaceOnUse" x1="630.16" y1="247.005" x2="518.46" y2="247.005" gradientTransform="matrix(1 0 0 -1 -82.7 602)">
	<stop  offset="0" style="stop-color:#043263;stop-opacity:0.1"/>
	<stop  offset="1" style="stop-color:#043263;stop-opacity:0"/>
</linearGradient>
<path class="st8" d="M435.8,418H536c6.3,0,11.5-5.1,11.5-11.5V291.9H502L435.8,418z"/>
<path class="st9" d="M410.2,391.4c0,2.8-2.3,5.1-5.1,5.1c-2.8,0-5.1-2.3-5.1-5.1c0-2.8,2.3-5.1,5.1-5.1S410.2,388.6,410.2,391.4
	L410.2,391.4z"/>
<path class="st9" d="M430.3,391.4c0,2.8-2.3,5.1-5.1,5.1c-2.8,0-5.1-2.3-5.1-5.1c0-2.8,2.3-5.1,5.1-5.1c0,0,0,0,0,0
	C428,386.3,430.3,388.5,430.3,391.4C430.3,391.4,430.3,391.4,430.3,391.4z"/>
<path class="st9" d="M450.4,391.4c0,2.8-2.3,5.1-5.1,5.1c-2.8,0-5.1-2.3-5.1-5.1c0-2.8,2.3-5.1,5.1-5.1c0,0,0,0,0,0
	C448.1,386.3,450.4,388.5,450.4,391.4C450.4,391.4,450.4,391.4,450.4,391.4z"/>
<path class="st9" d="M470.5,391.4c0,2.8-2.3,5.1-5.1,5.1c-2.8,0-5.1-2.3-5.1-5.1c0-2.8,2.3-5.1,5.1-5.1S470.5,388.6,470.5,391.4
	L470.5,391.4z"/>
<path class="st9" d="M490.6,391.4c0,2.8-2.3,5.1-5.1,5.1c-2.8,0-5.1-2.3-5.1-5.1c0-2.8,2.3-5.1,5.1-5.1c0,0,0,0,0,0
	C488.3,386.3,490.6,388.5,490.6,391.4C490.6,391.4,490.6,391.4,490.6,391.4z"/>
<path class="st6" d="M510.7,391.4c0,2.8-2.3,5.1-5.1,5.1c-2.8,0-5.1-2.3-5.1-5.1c0-2.8,2.3-5.1,5.1-5.1c0,0,0,0,0,0
	C508.4,386.3,510.7,388.5,510.7,391.4C510.7,391.4,510.7,391.4,510.7,391.4z"/>
<path class="st9" d="M410.2,366c0,2.8-2.3,5.1-5.1,5.1c-2.8,0-5.1-2.3-5.1-5.1c0-2.8,2.3-5.1,5.1-5.1
	C407.9,360.9,410.2,363.2,410.2,366C410.2,366,410.2,366,410.2,366z"/>
<path class="st9" d="M430.3,366c0,2.8-2.3,5.1-5.1,5.1c-2.8,0-5.1-2.3-5.1-5.1c0-2.8,2.3-5.1,5.1-5.1c0,0,0,0,0,0
	C428,360.9,430.3,363.2,430.3,366C430.3,366,430.3,366,430.3,366z"/>
<path class="st9" d="M450.4,366c0,2.8-2.3,5.1-5.1,5.1c-2.8,0-5.1-2.3-5.1-5.1c0-2.8,2.3-5.1,5.1-5.1c0,0,0,0,0,0
	C448.1,360.9,450.4,363.2,450.4,366C450.4,366,450.4,366,450.4,366z"/>
<path class="st9" d="M470.5,366c0,2.8-2.3,5.1-5.1,5.1c-2.8,0-5.1-2.3-5.1-5.1c0-2.8,2.3-5.1,5.1-5.1
	C468.2,360.9,470.5,363.2,470.5,366C470.5,366,470.5,366,470.5,366z"/>
<path class="st9" d="M490.6,366c0,2.8-2.3,5.1-5.1,5.1c-2.8,0-5.1-2.3-5.1-5.1c0-2.8,2.3-5.1,5.1-5.1c0,0,0,0,0,0
	C488.3,360.9,490.6,363.2,490.6,366C490.6,366,490.6,366,490.6,366z"/>
<path class="st6" d="M510.7,366c0,2.8-2.3,5.1-5.1,5.1c-2.8,0-5.1-2.3-5.1-5.1c0-2.8,2.3-5.1,5.1-5.1c0,0,0,0,0,0
	C508.4,360.9,510.7,363.2,510.7,366C510.7,366,510.7,366,510.7,366z"/>
<path class="st6" d="M530.8,366c0,2.8-2.3,5.1-5.1,5.1c-2.8,0-5.1-2.3-5.1-5.1s2.3-5.1,5.1-5.1l0,0
	C528.5,360.9,530.8,363.2,530.8,366C530.8,366,530.8,366,530.8,366z"/>
<path class="st9" d="M410.2,340.6c0,2.8-2.3,5.1-5.1,5.1c-2.8,0-5.1-2.3-5.1-5.1c0-2.8,2.3-5.1,5.1-5.1
	C407.9,335.5,410.2,337.7,410.2,340.6C410.2,340.6,410.2,340.6,410.2,340.6z"/>
<path class="st9" d="M430.3,340.6c0,2.8-2.3,5.1-5.1,5.1c-2.8,0-5.1-2.3-5.1-5.1c0-2.8,2.3-5.1,5.1-5.1c0,0,0,0,0,0
	C428,335.5,430.3,337.7,430.3,340.6C430.3,340.6,430.3,340.6,430.3,340.6z"/>
<path class="st9" d="M450.4,340.6c0,2.8-2.3,5.1-5.1,5.1c-2.8,0-5.1-2.3-5.1-5.1c0-2.8,2.3-5.1,5.1-5.1c0,0,0,0,0,0
	C448.1,335.5,450.4,337.7,450.4,340.6C450.4,340.6,450.4,340.6,450.4,340.6z"/>
<path class="st9" d="M470.5,340.6c0,2.8-2.3,5.1-5.1,5.1c-2.8,0-5.1-2.3-5.1-5.1c0-2.8,2.3-5.1,5.1-5.1
	C468.2,335.5,470.5,337.7,470.5,340.6C470.5,340.6,470.5,340.6,470.5,340.6z"/>
<path class="st9" d="M490.6,340.6c0,2.8-2.3,5.1-5.1,5.1c-2.8,0-5.1-2.3-5.1-5.1c0-2.8,2.3-5.1,5.1-5.1c0,0,0,0,0,0
	C488.3,335.5,490.6,337.7,490.6,340.6C490.6,340.6,490.6,340.6,490.6,340.6z"/>
<path class="st6" d="M510.7,340.6c0,2.8-2.3,5.1-5.1,5.1c-2.8,0-5.1-2.3-5.1-5.1c0-2.8,2.3-5.1,5.1-5.1c0,0,0,0,0,0
	C508.4,335.5,510.7,337.7,510.7,340.6C510.7,340.6,510.7,340.6,510.7,340.6z"/>
<path class="st6" d="M530.8,340.6c0,2.8-2.3,5.1-5.1,5.1c-2.8,0-5.1-2.3-5.1-5.1s2.3-5.1,5.1-5.1l0,0
	C528.5,335.5,530.8,337.7,530.8,340.6C530.8,340.6,530.8,340.6,530.8,340.6z"/>
<path class="st9" d="M490.6,315.2c0,2.8-2.3,5.1-5.1,5.1c-2.8,0-5.1-2.3-5.1-5.1c0-2.8,2.3-5.1,5.1-5.1c0,0,0,0,0,0
	C488.3,310.1,490.6,312.3,490.6,315.2C490.6,315.2,490.6,315.2,490.6,315.2z"/>
<path class="st9" d="M470.5,315.2c0,2.8-2.3,5.1-5.1,5.1c-2.8,0-5.1-2.3-5.1-5.1c0-2.8,2.3-5.1,5.1-5.1
	C468.2,310.1,470.5,312.3,470.5,315.2C470.5,315.2,470.5,315.2,470.5,315.2z"/>
<path class="st6" d="M510.7,315.2c0,2.8-2.3,5.1-5.1,5.1c-2.8,0-5.1-2.3-5.1-5.1c0-2.8,2.3-5.1,5.1-5.1c0,0,0,0,0,0
	C508.4,310.1,510.7,312.3,510.7,315.2C510.7,315.2,510.7,315.2,510.7,315.2z"/>
<path class="st6" d="M530.8,315.2c0,2.8-2.3,5.1-5.1,5.1c-2.8,0-5.1-2.3-5.1-5.1s2.3-5.1,5.1-5.1
	C528.5,310.1,530.8,312.3,530.8,315.2C530.8,315.2,530.8,315.2,530.8,315.2z"/>
<g>
	<path class="st10" d="M465.4,327.5c-6.8,0-12.3-5.5-12.3-12.3s5.5-12.3,12.3-12.3c6.8,0,12.3,5.5,12.3,12.3
		S472.1,327.5,465.4,327.5z M465.4,306.7c-4.7,0-8.5,3.8-8.5,8.5s3.8,8.5,8.5,8.5c4.7,0,8.5-3.8,8.5-8.5S470,306.7,465.4,306.7z"/>
</g>
</svg>
