<?xml version="1.0" encoding="utf-8"?>
<!-- Generator: Adobe Illustrator 23.0.1, SVG Export Plug-In . SVG Version: 6.00 Build 0)  -->
<svg version="1.1" id="Capa_1" xmlns="http://www.w3.org/2000/svg" xmlns:xlink="http://www.w3.org/1999/xlink" x="0px" y="0px"
	 viewBox="0 0 600 600" style="enable-background:new 0 0 600 600;" xml:space="preserve">
<style type="text/css">
	.st0{fill:url(#SVGID_1_);}
	.st1{fill:#D4EDFC;}
	.st2{fill:#1464A5;}
	.st3{fill:#FFFFFF;}
	.st4{fill:#49A5E6;}
	.st5{fill:#DA3951;}
	.st6{fill:url(#SVGID_2_);}
	.st7{fill:#5AC4C4;}
</style>
<title>Mesa de trabajo 1 copia 10</title>
<linearGradient id="SVGID_1_" gradientUnits="userSpaceOnUse" x1="210.6212" y1="527.7916" x2="435.2788" y2="950.3084" gradientTransform="matrix(1 0 0 1 0 -400)">
	<stop  offset="0" style="stop-color:#192647"/>
	<stop  offset="0" style="stop-color:#192647;stop-opacity:0.5"/>
	<stop  offset="1" style="stop-color:#192647;stop-opacity:0"/>
</linearGradient>
<path class="st0" d="M139.6,168.3h366.7c11.4,0,20.6,9.2,20.6,20.6v300.3c0,11.4-9.2,20.6-20.6,20.6H139.6
	c-11.4,0-20.6-9.2-20.6-20.6V188.9C119,177.5,128.2,168.3,139.6,168.3z"/>
<path class="st1" d="M482.2,190.9v253.2c0,11.4-9.2,20.6-20.6,20.6H94.8c-11.4,0-20.6-9.2-20.6-20.6V190.9"/>
<path class="st2" d="M461.5,123.8H94.8c-11.4,0-20.6,9.2-20.6,20.6v46.5h408v-46.5C482.1,133,472.9,123.8,461.5,123.8z"/>
<path class="st3" d="M289.2,240.1c0,6.5-5.3,11.8-11.8,11.8s-11.8-5.3-11.8-11.8s5.3-11.8,11.8-11.8S289.2,233.6,289.2,240.1
	L289.2,240.1z"/>
<path class="st3" d="M339.9,240.1c0,6.5-5.3,11.8-11.8,11.8s-11.8-5.3-11.8-11.8s5.3-11.8,11.8-11.8l0,0
	C334.6,228.3,339.9,233.6,339.9,240.1L339.9,240.1z"/>
<path class="st4" d="M390.6,240.1c0,6.5-5.3,11.8-11.8,11.8s-11.8-5.3-11.8-11.8s5.3-11.8,11.8-11.8S390.6,233.6,390.6,240.1
	L390.6,240.1z"/>
<path class="st4" d="M441.2,240.1c0,6.5-5.3,11.8-11.8,11.8s-11.8-5.3-11.8-11.8s5.3-11.8,11.8-11.8S441.2,233.6,441.2,240.1
	L441.2,240.1z"/>
<path class="st3" d="M137.2,299c0,6.5-5.3,11.8-11.8,11.8s-11.8-5.3-11.8-11.8s5.3-11.8,11.8-11.8C132,287.2,137.2,292.5,137.2,299
	L137.2,299z"/>
<path class="st3" d="M187.9,299c0,6.5-5.3,11.8-11.8,11.8s-11.8-5.3-11.8-11.8s5.3-11.8,11.8-11.8l0,0
	C182.6,287.2,187.9,292.5,187.9,299L187.9,299z"/>
<path class="st3" d="M238.6,299c0,6.5-5.3,11.8-11.8,11.8S215,305.5,215,299s5.3-11.8,11.8-11.8S238.6,292.5,238.6,299L238.6,299z"
	/>
<path class="st3" d="M289.2,299c0,6.5-5.3,11.8-11.8,11.8s-11.8-5.3-11.8-11.8s5.3-11.8,11.8-11.8C284,287.2,289.2,292.5,289.2,299
	L289.2,299z"/>
<path class="st3" d="M339.9,299c0,6.5-5.3,11.8-11.8,11.8s-11.8-5.3-11.8-11.8s5.3-11.8,11.8-11.8l0,0
	C334.6,287.2,339.9,292.5,339.9,299L339.9,299z"/>
<path class="st4" d="M390.6,299c0,6.5-5.3,11.8-11.8,11.8S367,305.5,367,299s5.3-11.8,11.8-11.8C385.3,287.2,390.6,292.5,390.6,299
	L390.6,299z"/>
<path class="st4" d="M441.2,299c0,6.5-5.3,11.8-11.8,11.8s-11.8-5.3-11.8-11.8s5.3-11.8,11.8-11.8C436,287.2,441.2,292.5,441.2,299
	C441.3,299,441.3,299,441.2,299z"/>
<path class="st3" d="M137.2,358c0,6.5-5.3,11.8-11.8,11.8s-11.8-5.3-11.8-11.8s5.3-11.8,11.8-11.8C132,346.2,137.2,351.5,137.2,358
	L137.2,358z"/>
<path class="st3" d="M187.9,358c0,6.5-5.3,11.8-11.8,11.8s-11.8-5.3-11.8-11.8s5.3-11.8,11.8-11.8l0,0
	C182.6,346.2,187.9,351.5,187.9,358L187.9,358z"/>
<path class="st3" d="M238.6,358c0,6.5-5.3,11.8-11.8,11.8S215,364.5,215,358s5.3-11.8,11.8-11.8S238.6,351.5,238.6,358L238.6,358z"
	/>
<path class="st3" d="M289.2,358c0,6.5-5.3,11.8-11.8,11.8s-11.8-5.3-11.8-11.8s5.3-11.8,11.8-11.8C284,346.2,289.2,351.5,289.2,358
	L289.2,358z"/>
<path class="st3" d="M339.9,358c0,6.5-5.3,11.8-11.8,11.8s-11.8-5.3-11.8-11.8s5.3-11.8,11.8-11.8l0,0
	C334.6,346.2,339.9,351.5,339.9,358L339.9,358z"/>
<path class="st4" d="M390.6,358c0,6.5-5.3,11.8-11.8,11.8S367,364.5,367,358s5.3-11.8,11.8-11.8C385.3,346.2,390.6,351.5,390.6,358
	L390.6,358z"/>
<path class="st4" d="M441.2,358c0,6.5-5.3,11.8-11.8,11.8s-11.8-5.3-11.8-11.8s5.3-11.8,11.8-11.8C436,346.2,441.2,351.5,441.2,358
	C441.3,358,441.3,358,441.2,358z"/>
<path class="st3" d="M137.2,417c0,6.5-5.3,11.8-11.8,11.8s-11.8-5.3-11.8-11.8s5.3-11.8,11.8-11.8C132,405.2,137.2,410.5,137.2,417
	L137.2,417z"/>
<path class="st3" d="M187.9,417c0,6.5-5.3,11.8-11.8,11.8s-11.8-5.3-11.8-11.8s5.3-11.8,11.8-11.8l0,0
	C182.6,405.2,187.9,410.5,187.9,417L187.9,417z"/>
<path class="st3" d="M238.6,417c0,6.5-5.3,11.8-11.8,11.8S215,423.5,215,417s5.3-11.8,11.8-11.8S238.6,410.5,238.6,417L238.6,417z"
	/>
<path class="st3" d="M289.2,417c0,6.5-5.3,11.8-11.8,11.8s-11.8-5.3-11.8-11.8s5.3-11.8,11.8-11.8C284,405.2,289.2,410.5,289.2,417
	L289.2,417z"/>
<path class="st3" d="M339.9,417c0,6.5-5.3,11.8-11.8,11.8s-11.8-5.3-11.8-11.8s5.3-11.8,11.8-11.8l0,0
	C334.6,405.2,339.9,410.5,339.9,417L339.9,417z"/>
<path class="st4" d="M390.6,417c0,6.5-5.3,11.8-11.8,11.8S367,423.5,367,417s5.3-11.8,11.8-11.8C385.3,405.2,390.6,410.5,390.6,417
	L390.6,417z"/>
<g>
	<path class="st5" d="M227.2,392.5c-19,0-34.5-15.5-34.5-34.5s15.5-34.5,34.5-34.5s34.5,15.5,34.5,34.5S246.2,392.5,227.2,392.5z
		 M227.2,336.9c-11.6,0-21.1,9.5-21.1,21.1s9.5,21.1,21.1,21.1c11.6,0,21.1-9.5,21.1-21.1S238.8,336.9,227.2,336.9z"/>
</g>
<linearGradient id="SVGID_2_" gradientUnits="userSpaceOnUse" x1="482.2" y1="694.25" x2="212.9" y2="694.25" gradientTransform="matrix(1 0 0 1 0 -400)">
	<stop  offset="0" style="stop-color:#192647"/>
	<stop  offset="0" style="stop-color:#043263;stop-opacity:0.2"/>
	<stop  offset="1" style="stop-color:#043263;stop-opacity:0"/>
</linearGradient>
<path class="st6" d="M461.5,123.8H394L212.9,464.7h248.7c11.4,0,20.6-9.2,20.6-20.6V144.4C482.2,133,472.9,123.8,461.5,123.8z"/>
<path class="st7" d="M151.1,91L151.1,91c6.2,0,11.2,5,11.2,11.2v43.9c0,6.2-5,11.2-11.2,11.2l0,0c-6.2,0-11.2-5-11.2-11.2v-43.9
	C139.9,96,144.9,91,151.1,91z"/>
<path class="st7" d="M405.2,91L405.2,91c6.2,0,11.2,5,11.2,11.2v43.9c0,6.2-5,11.2-11.2,11.2l0,0c-6.2,0-11.2-5-11.2-11.2v-43.9
	C394,96,399,91,405.2,91z"/>
</svg>
