<svg xmlns="http://www.w3.org/2000/svg" xmlns:xlink="http://www.w3.org/1999/xlink" viewBox="0 0 600 600"><defs><style>.cls-1{fill:none;}.cls-2{fill:url(#Degradado_sin_nombre_21);}.cls-3{fill:#d4edfc;}.cls-4{fill:#043263;}.cls-5{fill:url(#Degradado_sin_nombre_66);}.cls-6{fill:#2dcccd;}.cls-7{fill:#fff;}.cls-8{fill:#49a5e6;}.cls-9{fill:#da3951;}</style><linearGradient id="Degradado_sin_nombre_21" x1="204.92" y1="109.99" x2="448.92" y2="568.89" gradientTransform="translate(0 2)" gradientUnits="userSpaceOnUse"><stop offset="0" stop-color="#192647" stop-opacity="0.5"/><stop offset="1" stop-color="#192647" stop-opacity="0"/></linearGradient><linearGradient id="Degradado_sin_nombre_66" x1="485.1" y1="294.2" x2="174.7" y2="294.2" gradientTransform="translate(0 2)" gradientUnits="userSpaceOnUse"><stop offset="0" stop-color="#043263" stop-opacity="0.2"/><stop offset="1" stop-color="#043263" stop-opacity="0"/></linearGradient></defs><title>12</title><g id="Cuadrados_Blancos" data-name="Cuadrados Blancos"><rect class="cls-1" width="600" height="600"/></g><g id="Capa_2" data-name="Capa 2"><path class="cls-2" d="M133.1,514.9a23,23,0,0,0,23,23h349a24.83,24.83,0,0,0,5.4-.6l.3-.1h.2A23,23,0,0,0,528.1,515V181.6a23,23,0,0,0-18.8-22.4,19.92,19.92,0,0,0-4.2-.4h-20V134.3a12.5,12.5,0,0,0-12.5-12.5h0a12.5,12.5,0,0,0-12.5,12.5v24.5h-258V134.3a12.5,12.5,0,0,0-12.5-12.5h0a12.5,12.5,0,0,0-12.5,12.5v24.5h-21a22.88,22.88,0,0,0-23,22.7h0V514.9Z"/><path class="cls-3" d="M485.1,180.7v282a23,23,0,0,1-23,23h-349a23,23,0,0,1-23-23v-282"/><path class="cls-4" d="M462.1,106.7h-349a22.88,22.88,0,0,0-23,22.7h0v51.3h395V129.4a22.88,22.88,0,0,0-23-22.7Z"/><path class="cls-5" d="M462.1,106.7H376.8l-202.1,379H462.1a22.92,22.92,0,0,0,23-22.9V129.6A23,23,0,0,0,462.1,106.7Z"/><path class="cls-6" d="M146.6,69.7h0a12.5,12.5,0,0,1,12.5,12.5v49a12.5,12.5,0,0,1-12.5,12.5h0a12.5,12.5,0,0,1-12.5-12.5v-49A12.5,12.5,0,0,1,146.6,69.7Z"/><path class="cls-6" d="M429.6,69.7h0a12.5,12.5,0,0,1,12.5,12.5v49a12.5,12.5,0,0,1-12.5,12.5h0a12.5,12.5,0,0,1-12.5-12.5v-49A12.5,12.5,0,0,1,429.6,69.7Z"/><path class="cls-7" d="M289.2,240.1a11.8,11.8,0,1,1-11.8-11.8,11.82,11.82,0,0,1,11.8,11.8Z"/><path class="cls-7" d="M339.9,240.1a11.8,11.8,0,1,1-11.8-11.8h0a11.82,11.82,0,0,1,11.8,11.8Z"/><path class="cls-8" d="M390.6,240.1a11.8,11.8,0,1,1-11.8-11.8,11.82,11.82,0,0,1,11.8,11.8Z"/><path class="cls-8" d="M441.2,240.1a11.8,11.8,0,1,1-11.8-11.8,11.82,11.82,0,0,1,11.8,11.8Z"/><path class="cls-7" d="M137.2,299a11.8,11.8,0,1,1-11.8-11.8A11.82,11.82,0,0,1,137.2,299Z"/><path class="cls-7" d="M187.9,299a11.8,11.8,0,1,1-11.8-11.8h0A11.82,11.82,0,0,1,187.9,299Z"/><path class="cls-7" d="M238.6,299a11.8,11.8,0,1,1-11.8-11.8A11.82,11.82,0,0,1,238.6,299Z"/><path class="cls-7" d="M289.2,299a11.8,11.8,0,1,1-11.8-11.8A11.82,11.82,0,0,1,289.2,299Z"/><path class="cls-7" d="M339.9,299a11.8,11.8,0,1,1-11.8-11.8h0A11.82,11.82,0,0,1,339.9,299Z"/><path class="cls-8" d="M390.6,299a11.8,11.8,0,1,1-11.8-11.8A11.82,11.82,0,0,1,390.6,299Z"/><path class="cls-8" d="M441.2,299a11.8,11.8,0,1,1-11.8-11.8A11.82,11.82,0,0,1,441.2,299Z"/><path class="cls-7" d="M137.2,358a11.8,11.8,0,1,1-11.8-11.8A11.82,11.82,0,0,1,137.2,358Z"/><path class="cls-7" d="M187.9,358a11.8,11.8,0,1,1-11.8-11.8h0A11.82,11.82,0,0,1,187.9,358Z"/><path class="cls-7" d="M238.6,358a11.8,11.8,0,1,1-11.8-11.8A11.82,11.82,0,0,1,238.6,358Z"/><path class="cls-7" d="M289.2,358a11.8,11.8,0,1,1-11.8-11.8A11.82,11.82,0,0,1,289.2,358Z"/><path class="cls-7" d="M339.9,358a11.8,11.8,0,1,1-11.8-11.8h0A11.82,11.82,0,0,1,339.9,358Z"/><path class="cls-8" d="M390.6,358a11.8,11.8,0,1,1-11.8-11.8A11.82,11.82,0,0,1,390.6,358Z"/><path class="cls-8" d="M441.2,358a11.8,11.8,0,1,1-11.8-11.8A11.82,11.82,0,0,1,441.2,358Z"/><path class="cls-7" d="M137.2,417a11.8,11.8,0,1,1-11.8-11.8A11.82,11.82,0,0,1,137.2,417Z"/><path class="cls-7" d="M187.9,417a11.8,11.8,0,1,1-11.8-11.8h0A11.82,11.82,0,0,1,187.9,417Z"/><path class="cls-7" d="M238.6,417a11.8,11.8,0,1,1-11.8-11.8A11.82,11.82,0,0,1,238.6,417Z"/><path class="cls-7" d="M289.2,417a11.8,11.8,0,1,1-11.8-11.8A11.82,11.82,0,0,1,289.2,417Z"/><path class="cls-7" d="M339.9,417a11.8,11.8,0,1,1-11.8-11.8h0A11.82,11.82,0,0,1,339.9,417Z"/><path class="cls-8" d="M390.6,417a11.8,11.8,0,1,1-11.8-11.8A11.82,11.82,0,0,1,390.6,417Z"/><path class="cls-9" d="M227.2,392.5A34.5,34.5,0,1,1,261.7,358,34.57,34.57,0,0,1,227.2,392.5Zm0-55.6A21.1,21.1,0,1,0,248.3,358,21.17,21.17,0,0,0,227.2,336.9Z"/></g></svg>