<svg id="Contenido" xmlns="http://www.w3.org/2000/svg" xmlns:xlink="http://www.w3.org/1999/xlink" viewBox="0 0 600 600"><defs><style>.cls-1{fill:url(#Degradado_sin_nombre_23);}.cls-2{fill:#d4edfc;}.cls-3{fill:#1464a5;}.cls-4{fill:url(#Degradado_sin_nombre_26);}.cls-5{fill:#2dcccd;}</style><linearGradient id="Degradado_sin_nombre_23" x1="221.51" y1="135.92" x2="454.49" y2="574.08" gradientUnits="userSpaceOnUse"><stop offset="0" stop-color="#192647"/><stop offset="0" stop-color="#192647" stop-opacity="0.5"/><stop offset="1" stop-color="#192647" stop-opacity="0"/></linearGradient><linearGradient id="Degradado_sin_nombre_26" x1="475.5" y1="304.5" x2="175.09" y2="304.5" gradientUnits="userSpaceOnUse"><stop offset="0" stop-color="#192647"/><stop offset="0" stop-color="#043263" stop-opacity="0.2"/><stop offset="1" stop-color="#043263" stop-opacity="0"/></linearGradient></defs><title>_</title><rect class="cls-1" x="150.5" y="164.5" width="375" height="381" rx="23"/><path class="cls-2" d="M475.5,189V471a23,23,0,0,1-23,23h-329a23,23,0,0,1-23-23V189"/><path class="cls-3" d="M452.51,115h-329a22.86,22.86,0,0,0-23,22.73V189h375V137.73A22.86,22.86,0,0,0,452.51,115Z"/><path class="cls-4" d="M452.5,115H377.23L175.09,494H452.5a23,23,0,0,0,23-22.92V137.92A23,23,0,0,0,452.5,115Z"/><rect class="cls-5" x="174.5" y="78" width="25" height="74" rx="12.5"/><rect class="cls-5" x="377.5" y="78" width="25" height="74" rx="12.5"/><path class="cls-3" d="M296.6,412H185.87v-3.21a91.33,91.33,0,0,1,1.41-15.94,50.89,50.89,0,0,1,6-16.14,78.74,78.74,0,0,1,13.37-16.81,144,144,0,0,1,23.23-18q8.55-5.44,14.63-9.53a68.92,68.92,0,0,0,9.87-7.82,25.18,25.18,0,0,0,5.59-7.92,24.43,24.43,0,0,0,1.8-9.72q0-8.17-5.06-13.08t-14.29-4.91q-8.74,0-17.64,5.59a49.4,49.4,0,0,0-15.41,16l-21.48-17.79a72.86,72.86,0,0,1,22.74-22.45q13.51-8.37,32.76-8.36a68.4,68.4,0,0,1,21.15,3,43.6,43.6,0,0,1,15.6,8.6A37,37,0,0,1,289.84,287a44.74,44.74,0,0,1,3.36,17.64,64.74,64.74,0,0,1-1.12,12,37.57,37.57,0,0,1-4.57,11.81,56.43,56.43,0,0,1-9.92,12.1,109.55,109.55,0,0,1-17.06,12.88q-8,5.06-14.53,9.67a131,131,0,0,0-11.23,8.75,52.12,52.12,0,0,0-7.39,7.83,14.09,14.09,0,0,0-3,7h67.46Z"/><path class="cls-3" d="M387.16,412H356V294l-28.28,6.7-4-26.44,33.05-9.62h30.43Z"/></svg>