<svg xmlns="http://www.w3.org/2000/svg" xmlns:xlink="http://www.w3.org/1999/xlink" viewBox="0 0 600 600"><defs><style>.cls-1{fill:none;}.cls-2{fill:url(#Degradado_sin_nombre_31);}.cls-3{fill:#4ea5e2;}.cls-4{opacity:0.5;isolation:isolate;fill:url(#Degradado_sin_nombre_35);}.cls-5{fill:#d4ecfa;}.cls-6{fill:#07467f;}.cls-7{fill:#d4edfc;}.cls-8{fill:#043263;}.cls-9{fill:#2dcccd;}.cls-10{fill:url(#Degradado_sin_nombre_2);}.cls-11{fill:#fff;}.cls-12{fill:#1464a5;}.cls-13{fill:#da3951;}</style><linearGradient id="Degradado_sin_nombre_31" x1="258.84" y1="173.92" x2="449.28" y2="532.09" gradientTransform="translate(0 2)" gradientUnits="userSpaceOnUse"><stop offset="0" stop-color="#192647" stop-opacity="0.5"/><stop offset="1" stop-color="#192647" stop-opacity="0"/></linearGradient><linearGradient id="Degradado_sin_nombre_35" x1="192.93" y1="9225.55" x2="335.12" y2="9083.35" gradientTransform="matrix(1, 0, 0, -1, 0, 9430.41)" gradientUnits="userSpaceOnUse"><stop offset="0" stop-color="#e9f8f9" stop-opacity="0.5"/><stop offset="1" stop-color="#e9f8f9" stop-opacity="0"/></linearGradient><linearGradient id="Degradado_sin_nombre_2" x1="630.2" y1="352.95" x2="518.5" y2="352.95" gradientTransform="translate(-82.7 2)" gradientUnits="userSpaceOnUse"><stop offset="0" stop-color="#043263" stop-opacity="0.1"/><stop offset="1" stop-color="#043263" stop-opacity="0"/></linearGradient></defs><title>12</title><g id="Cuadrados_Blancos" data-name="Cuadrados Blancos"><rect class="cls-1" width="600" height="600"/></g><g id="Capa_3" data-name="Capa 3"><path class="cls-2" d="M577.5,344.4V326.6A11.5,11.5,0,0,0,566,315.1H551.9V303.7a5.12,5.12,0,0,0-5.1-5.1h0a5.12,5.12,0,0,0-5.1,5.1h0v11.4H495.8V235.3a10.07,10.07,0,0,0-10.1-10.1H168.2a8.22,8.22,0,0,0-8.2,8.1v.7a6.6,6.6,0,0,0-.1,1.4V437.5a5.7,5.7,0,0,0,.1,1.3v.5a8.1,8.1,0,0,0,7.7,8.3H413.2V459a11.48,11.48,0,0,0,11.4,11.5H566a11.48,11.48,0,0,0,11.5-11.4h0V344.4Z"/><path class="cls-3" d="M140,172.8H455.7a10.07,10.07,0,0,1,10.1,10.1V385a10.07,10.07,0,0,1-10.1,10.1H140A10.14,10.14,0,0,1,129.9,385V182.9a10.1,10.1,0,0,1,9.9-10.1Z"/><path class="cls-4" d="M138.1,395.1H300.3L409.4,172.8H138.2a8.13,8.13,0,0,0-8.2,8v.2h0V386.9a8.1,8.1,0,0,0,7.7,8.3A.76.76,0,0,1,138.1,395.1Z"/><rect class="cls-5" x="160" y="281.6" width="125.5" height="29.5"/><rect class="cls-5" x="160" y="331.4" width="274" height="29.5"/><path class="cls-6" d="M268.4,207.6l-12.1,23a.78.78,0,0,1-1,.3l-.3-.3-12.1-23a.82.82,0,0,0-.6-.4h-5.9a.46.46,0,0,0-.5.4v.1c0,.1,0,.2.1.2l19.1,35.6a.69.69,0,0,0,.9.3l.3-.3,19-35.6a.62.62,0,0,0-.2-.7c-.1,0-.2-.1-.3-.1H269c-.3.1-.5.2-.6.5"/><path class="cls-6" d="M275.2,238.3l12.1-23a.78.78,0,0,1,1-.3l.3.3,12.1,23a.68.68,0,0,0,.6.4h5.9a.46.46,0,0,0,.5-.4v-.1c0-.1,0-.2-.1-.2l-19.1-35.6a.69.69,0,0,0-.9-.3l-.3.3-19,35.5a.57.57,0,0,0,.2.7c.1,0,.1.1.2.1h5.9c.2,0,.4-.2.6-.4"/><path class="cls-6" d="M184.9,238.6H174a.68.68,0,0,1-.7-.7h0v-9.8a.68.68,0,0,1,.7-.7h10.9c5.1,0,7.5,1.5,7.5,5.6s-2.3,5.6-7.5,5.6M174,212.5h10.7c3.9,0,5.9,1.7,5.9,4.8s-2,4.8-5.9,4.8H174a.68.68,0,0,1-.7-.7h0v-8.3a.67.67,0,0,1,.7-.6h0m18.6,11.7a8,8,0,0,0,4.1-7.4c0-5.8-4.4-9.6-10.8-9.6H167.8a.68.68,0,0,0-.7.7h0v35.4a.68.68,0,0,0,.7.7h17.3c8.7,0,13.2-3.7,13.2-11s-5.6-8.8-5.7-8.8"/><path class="cls-6" d="M222,238.6H211.1a.68.68,0,0,1-.7-.7h0v-9.8a.68.68,0,0,1,.7-.7H222c5.1,0,7.5,1.5,7.5,5.6s-2.3,5.6-7.5,5.6m-10.9-26.1h10.7c3.9,0,6,1.7,6,4.8s-2,4.8-6,4.8H211.1a.68.68,0,0,1-.7-.7h0v-8.3a.67.67,0,0,1,.7-.6h0m18.8,11.7a8.19,8.19,0,0,0,4.1-7.4c0-5.8-4.4-9.6-10.8-9.6H205.1a.68.68,0,0,0-.7.7h0v35.4a.68.68,0,0,0,.7.7h17.3c8.7,0,13.2-3.7,13.2-11s-5.7-8.8-5.7-8.8"/><path class="cls-7" d="M383.3,291.9H547.4V406.6A11.39,11.39,0,0,1,536,418H394.7a11.39,11.39,0,0,1-11.4-11.4V291.9Z"/><path class="cls-8" d="M394.5,262.6H535.9a11.5,11.5,0,0,1,11.5,11.5h0v17.8H383.1V274.1A11.48,11.48,0,0,1,394.5,262.6Z"/><path class="cls-9" d="M414,246.2h0a5.12,5.12,0,0,1,5.1,5.1v20.4a5.12,5.12,0,0,1-5.1,5.1h0a5.12,5.12,0,0,1-5.1-5.1V251.3A5.12,5.12,0,0,1,414,246.2Z"/><path class="cls-9" d="M516.7,246.2h0a5.12,5.12,0,0,1,5.1,5.1v20.4a5.12,5.12,0,0,1-5.1,5.1h0a5.12,5.12,0,0,1-5.1-5.1V251.3A5.19,5.19,0,0,1,516.7,246.2Z"/><path class="cls-10" d="M435.8,418H536a11.5,11.5,0,0,0,11.5-11.5V291.9H502Z"/><path class="cls-11" d="M410.2,391.4a5.1,5.1,0,1,1-5.1-5.1,5.12,5.12,0,0,1,5.1,5.1Z"/><path class="cls-11" d="M430.3,391.4a5.1,5.1,0,1,1-5.1-5.1h0a5.06,5.06,0,0,1,5.1,5.1Z"/><path class="cls-11" d="M450.4,391.4a5.1,5.1,0,1,1-5.1-5.1h0a5.06,5.06,0,0,1,5.1,5.1Z"/><path class="cls-11" d="M470.5,391.4a5.1,5.1,0,1,1-5.1-5.1,5.12,5.12,0,0,1,5.1,5.1Z"/><path class="cls-11" d="M490.6,391.4a5.1,5.1,0,1,1-5.1-5.1h0a5.06,5.06,0,0,1,5.1,5.1Z"/><path class="cls-12" d="M510.7,391.4a5.1,5.1,0,1,1-5.1-5.1h0a5.06,5.06,0,0,1,5.1,5.1Z"/><path class="cls-11" d="M410.2,366a5.1,5.1,0,1,1-5.1-5.1,5.12,5.12,0,0,1,5.1,5.1Z"/><path class="cls-11" d="M430.3,366a5.1,5.1,0,1,1-5.1-5.1h0a5.12,5.12,0,0,1,5.1,5.1Z"/><path class="cls-11" d="M450.4,366a5.1,5.1,0,1,1-5.1-5.1h0a5.12,5.12,0,0,1,5.1,5.1Z"/><path class="cls-11" d="M470.5,366a5.1,5.1,0,1,1-5.1-5.1,5.12,5.12,0,0,1,5.1,5.1Z"/><path class="cls-11" d="M490.6,366a5.1,5.1,0,1,1-5.1-5.1h0a5.12,5.12,0,0,1,5.1,5.1Z"/><path class="cls-12" d="M510.7,366a5.1,5.1,0,1,1-5.1-5.1h0a5.12,5.12,0,0,1,5.1,5.1Z"/><path class="cls-12" d="M530.8,366a5.1,5.1,0,1,1-5.1-5.1h0a5.12,5.12,0,0,1,5.1,5.1Z"/><path class="cls-11" d="M410.2,340.6a5.1,5.1,0,1,1-5.1-5.1,5.06,5.06,0,0,1,5.1,5.1Z"/><path class="cls-11" d="M430.3,340.6a5.1,5.1,0,1,1-5.1-5.1h0a5.06,5.06,0,0,1,5.1,5.1Z"/><path class="cls-11" d="M450.4,340.6a5.1,5.1,0,1,1-5.1-5.1h0a5.06,5.06,0,0,1,5.1,5.1Z"/><path class="cls-11" d="M470.5,340.6a5.1,5.1,0,1,1-5.1-5.1,5.06,5.06,0,0,1,5.1,5.1Z"/><path class="cls-11" d="M490.6,340.6a5.1,5.1,0,1,1-5.1-5.1h0a5.06,5.06,0,0,1,5.1,5.1Z"/><path class="cls-12" d="M510.7,340.6a5.1,5.1,0,1,1-5.1-5.1h0a5.06,5.06,0,0,1,5.1,5.1Z"/><path class="cls-12" d="M530.8,340.6a5.1,5.1,0,1,1-5.1-5.1h0a5.06,5.06,0,0,1,5.1,5.1Z"/><path class="cls-11" d="M490.6,315.2a5.1,5.1,0,1,1-5.1-5.1h0a5.06,5.06,0,0,1,5.1,5.1Z"/><path class="cls-11" d="M470.5,315.2a5.1,5.1,0,1,1-5.1-5.1,5.06,5.06,0,0,1,5.1,5.1Z"/><path class="cls-12" d="M510.7,315.2a5.1,5.1,0,1,1-5.1-5.1h0a5.06,5.06,0,0,1,5.1,5.1Z"/><path class="cls-12" d="M530.8,315.2a5.1,5.1,0,1,1-5.1-5.1,5.06,5.06,0,0,1,5.1,5.1Z"/><path class="cls-13" d="M465.4,327.5a12.3,12.3,0,1,1,12.3-12.3A12.29,12.29,0,0,1,465.4,327.5Zm0-20.8a8.5,8.5,0,1,0,8.5,8.5A8.49,8.49,0,0,0,465.4,306.7Z"/></g></svg>