<svg xmlns="http://www.w3.org/2000/svg" xmlns:xlink="http://www.w3.org/1999/xlink" viewBox="0 0 600 600"><defs><style>.cls-1{fill:none;}.cls-2{fill:url(#Degradado_sin_nombre_29);}.cls-3{fill:#d4edfc;}.cls-4{fill:#043263;}.cls-5{fill:url(#Degradado_sin_nombre_68);}.cls-6{fill:#2dcccd;}.cls-7{fill:#f8cd50;}.cls-8{fill:#fff;}.cls-9{fill:#49a5e6;}.cls-10{fill:#1464a5;}</style><linearGradient id="Degradado_sin_nombre_29" x1="204.92" y1="109.99" x2="448.92" y2="568.89" gradientTransform="translate(0 2)" gradientUnits="userSpaceOnUse"><stop offset="0" stop-color="#192647" stop-opacity="0.5"/><stop offset="1" stop-color="#192647" stop-opacity="0"/></linearGradient><linearGradient id="Degradado_sin_nombre_68" x1="485.1" y1="294.2" x2="174.7" y2="294.2" gradientTransform="translate(0 2)" gradientUnits="userSpaceOnUse"><stop offset="0" stop-color="#043263" stop-opacity="0.2"/><stop offset="1" stop-color="#043263" stop-opacity="0"/></linearGradient></defs><title>12</title><g id="Cuadrados_Blancos" data-name="Cuadrados Blancos"><rect class="cls-1" width="600" height="600"/></g><g id="Capa_5" data-name="Capa 5"><path class="cls-2" d="M133.1,514.9a23,23,0,0,0,23,23h349a24.83,24.83,0,0,0,5.4-.6l.3-.1h.2A23,23,0,0,0,528.1,515V181.6a23,23,0,0,0-18.8-22.4,19.92,19.92,0,0,0-4.2-.4h-20V134.3a12.5,12.5,0,0,0-12.5-12.5h0a12.5,12.5,0,0,0-12.5,12.5v24.5h-258V134.3a12.5,12.5,0,0,0-12.5-12.5h0a12.5,12.5,0,0,0-12.5,12.5v24.5h-21a22.88,22.88,0,0,0-23,22.7h0V514.9Z"/><path class="cls-3" d="M485.1,180.7v282a23,23,0,0,1-23,23h-349a23,23,0,0,1-23-23v-282"/><path class="cls-4" d="M462.1,106.7h-349a22.88,22.88,0,0,0-23,22.7h0v51.3h395V129.4a22.88,22.88,0,0,0-23-22.7Z"/><path class="cls-5" d="M462.1,106.7H376.8l-202.1,379H462.1a22.92,22.92,0,0,0,23-22.9V129.6A23,23,0,0,0,462.1,106.7Z"/><path class="cls-6" d="M146.6,69.7h0a12.5,12.5,0,0,1,12.5,12.5v49a12.5,12.5,0,0,1-12.5,12.5h0a12.5,12.5,0,0,1-12.5-12.5v-49A12.5,12.5,0,0,1,146.6,69.7Z"/><path class="cls-6" d="M429.6,69.7h0a12.5,12.5,0,0,1,12.5,12.5v49a12.5,12.5,0,0,1-12.5,12.5h0a12.5,12.5,0,0,1-12.5-12.5v-49A12.5,12.5,0,0,1,429.6,69.7Z"/><path class="cls-7" d="M295.4,256.3a17.2,17.2,0,1,1,17.2-17.2A17.2,17.2,0,0,1,295.4,256.3Zm0-30a12.8,12.8,0,1,0,12.8,12.8A12.82,12.82,0,0,0,295.4,226.3Z"/><path class="cls-7" d="M173.7,296.1a17.2,17.2,0,1,1,17.2-17.2A17.2,17.2,0,0,1,173.7,296.1Zm0-30a12.8,12.8,0,1,0,12.8,12.8A12.82,12.82,0,0,0,173.7,266.1Z"/><path class="cls-8" d="M155.5,382a12.7,12.7,0,1,1-12.7-12.7A12.72,12.72,0,0,1,155.5,382Z"/><path class="cls-8" d="M203.8,382a12.7,12.7,0,1,1-12.7-12.7A12.72,12.72,0,0,1,203.8,382Z"/><path class="cls-8" d="M252.1,382a12.7,12.7,0,1,1-12.7-12.7A12.72,12.72,0,0,1,252.1,382Z"/><path class="cls-8" d="M300.3,382a12.7,12.7,0,1,1-12.7-12.7A12.72,12.72,0,0,1,300.3,382Z"/><path class="cls-8" d="M348.6,382a12.7,12.7,0,1,1-12.7-12.7A12.72,12.72,0,0,1,348.6,382Z"/><path class="cls-9" d="M396.8,382a12.7,12.7,0,1,1-12.7-12.7A12.72,12.72,0,0,1,396.8,382Z"/><path class="cls-9" d="M445.1,382a12.7,12.7,0,1,1-12.7-12.7A12.72,12.72,0,0,1,445.1,382Z"/><path class="cls-8" d="M155.5,430.8a12.7,12.7,0,1,1-12.7-12.7,12.59,12.59,0,0,1,12.7,12.7Z"/><path class="cls-8" d="M203.8,430.8a12.7,12.7,0,1,1-12.7-12.7,12.59,12.59,0,0,1,12.7,12.7Z"/><path class="cls-8" d="M252.1,430.8a12.7,12.7,0,1,1-12.7-12.7,12.59,12.59,0,0,1,12.7,12.7Z"/><path class="cls-8" d="M300.3,430.8a12.7,12.7,0,1,1-12.7-12.7,12.59,12.59,0,0,1,12.7,12.7Z"/><path class="cls-8" d="M348.6,430.8a12.7,12.7,0,1,1-12.7-12.7,12.59,12.59,0,0,1,12.7,12.7Z"/><path class="cls-9" d="M396.8,430.8a12.7,12.7,0,1,1-12.7-12.7,12.59,12.59,0,0,1,12.7,12.7Z"/><path class="cls-10" d="M133,321.2l-5.8-6,39-37.7c3.6-3.5,10.9-3.4,14.5,0l35.1,33.4a3.65,3.65,0,0,0,2.9,0l69.2-73.1a10.35,10.35,0,0,1,7.5-2.8h.1a10.11,10.11,0,0,1,7.4,2.8l57.6,60.5a3.9,3.9,0,0,0,3,0l78.6-85,6.1,5.7-78.6,85a10.66,10.66,0,0,1-7.6,2.9,10.35,10.35,0,0,1-7.5-2.8l-57.6-60.6a3.9,3.9,0,0,0-3,0l-69.1,73.1a10,10,0,0,1-7.3,2.8,10.31,10.31,0,0,1-7.4-2.6L175,283.4a3.9,3.9,0,0,0-3,0Zm160.9-77.6Zm3,0Z"/></g></svg>