<svg xmlns="http://www.w3.org/2000/svg" xmlns:xlink="http://www.w3.org/1999/xlink" viewBox="0 0 600 600"><defs><style>.cls-1{fill:none;}.cls-2{fill:url(#Degradado_sin_nombre_30);}.cls-3{fill:#d4edfc;}.cls-4{fill:#043263;}.cls-5{fill:url(#Degradado_sin_nombre_67);}.cls-6{fill:#2dcccd;}.cls-7{fill:#1464a5;}</style><linearGradient id="Degradado_sin_nombre_30" x1="204.92" y1="109.99" x2="448.92" y2="568.89" gradientTransform="translate(0 2)" gradientUnits="userSpaceOnUse"><stop offset="0" stop-color="#192647" stop-opacity="0.5"/><stop offset="1" stop-color="#192647" stop-opacity="0"/></linearGradient><linearGradient id="Degradado_sin_nombre_67" x1="485.1" y1="294.2" x2="174.7" y2="294.2" gradientTransform="translate(0 2)" gradientUnits="userSpaceOnUse"><stop offset="0" stop-color="#043263" stop-opacity="0.2"/><stop offset="1" stop-color="#043263" stop-opacity="0"/></linearGradient></defs><title>12</title><g id="Cuadrados_Blancos" data-name="Cuadrados Blancos"><rect class="cls-1" width="600" height="600"/></g><g id="Capa_4" data-name="Capa 4"><path class="cls-2" d="M133.1,514.9a23,23,0,0,0,23,23h349a24.83,24.83,0,0,0,5.4-.6l.3-.1h.2A23,23,0,0,0,528.1,515V181.6a23,23,0,0,0-18.8-22.4,19.92,19.92,0,0,0-4.2-.4h-20V134.3a12.5,12.5,0,0,0-12.5-12.5h0a12.5,12.5,0,0,0-12.5,12.5v24.5h-258V134.3a12.5,12.5,0,0,0-12.5-12.5h0a12.5,12.5,0,0,0-12.5,12.5v24.5h-21a22.88,22.88,0,0,0-23,22.7h0V514.9Z"/><path class="cls-3" d="M485.1,180.7v282a23,23,0,0,1-23,23h-349a23,23,0,0,1-23-23v-282"/><path class="cls-4" d="M462.1,106.7h-349a22.88,22.88,0,0,0-23,22.7h0v51.3h395V129.4a22.88,22.88,0,0,0-23-22.7Z"/><path class="cls-5" d="M462.1,106.7H376.8l-202.1,379H462.1a22.92,22.92,0,0,0,23-22.9V129.6A23,23,0,0,0,462.1,106.7Z"/><path class="cls-6" d="M146.6,69.7h0a12.5,12.5,0,0,1,12.5,12.5v49a12.5,12.5,0,0,1-12.5,12.5h0a12.5,12.5,0,0,1-12.5-12.5v-49A12.5,12.5,0,0,1,146.6,69.7Z"/><path class="cls-6" d="M429.6,69.7h0a12.5,12.5,0,0,1,12.5,12.5v49a12.5,12.5,0,0,1-12.5,12.5h0a12.5,12.5,0,0,1-12.5-12.5v-49A12.5,12.5,0,0,1,429.6,69.7Z"/><path class="cls-7" d="M297.67,408.25H186.94V405a90.57,90.57,0,0,1,1.41-15.94,50.51,50.51,0,0,1,6-16.14,78.33,78.33,0,0,1,13.37-16.81,143.15,143.15,0,0,1,23.23-18q8.55-5.44,14.63-9.53a69.49,69.49,0,0,0,9.87-7.82,25.37,25.37,0,0,0,5.59-7.92,24.67,24.67,0,0,0,1.8-9.72q0-8.18-5.06-13.08t-14.29-4.91q-8.75,0-17.64,5.59a49.29,49.29,0,0,0-15.41,16L189,289a72.84,72.84,0,0,1,22.74-22.45q13.5-8.37,32.76-8.36a68.58,68.58,0,0,1,21.15,3,43.67,43.67,0,0,1,15.6,8.6,37.07,37.07,0,0,1,9.7,13.49,44.61,44.61,0,0,1,3.35,17.64,64.41,64.41,0,0,1-1.11,12,37.48,37.48,0,0,1-4.58,11.81,56,56,0,0,1-9.92,12.1,109.21,109.21,0,0,1-17.06,12.88q-8,5.06-14.53,9.67a133.14,133.14,0,0,0-11.23,8.75,52.67,52.67,0,0,0-7.39,7.83,14.1,14.1,0,0,0-3,7H292.9Z"/><path class="cls-7" d="M388.23,408.25H357.07v-118L328.79,297l-4-26.44,33-9.62h30.42Z"/></g></svg>