<svg xmlns="http://www.w3.org/2000/svg" xmlns:xlink="http://www.w3.org/1999/xlink" viewBox="0 0 600 600"><defs><style>.cls-1{fill:none;}.cls-2{fill:url(#Degradado_sin_nombre_495);}.cls-3{fill:#2dcccd;}.cls-4{fill:url(#Degradado_sin_nombre_96);}.cls-5{fill:#004481;}.cls-6{fill:#d4edfc;}.cls-7{fill:#043263;}.cls-8{fill:#49a5e6;}.cls-9{opacity:0.5;isolation:isolate;fill:url(#Degradado_sin_nombre_95);}.cls-10{fill:#f8cd50;}.cls-11{fill:url(#Degradado_sin_nombre_94);}</style><linearGradient id="Degradado_sin_nombre_495" x1="267.77" y1="-853.29" x2="421.49" y2="-1142.38" gradientTransform="matrix(1, 0, 0, -1, 0, -650)" gradientUnits="userSpaceOnUse"><stop offset="0" stop-color="#192647" stop-opacity="0.5"/><stop offset="1" stop-color="#192647" stop-opacity="0"/></linearGradient><linearGradient id="Degradado_sin_nombre_96" x1="450.23" y1="-937.7" x2="187.23" y2="-937.7" gradientTransform="matrix(1, 0, 0, -1, 0, -650)" gradientUnits="userSpaceOnUse"><stop offset="0" stop-color="#192647"/><stop offset="0" stop-color="#028484" stop-opacity="0.3"/><stop offset="1" stop-color="#028484" stop-opacity="0.1"/></linearGradient><linearGradient id="Degradado_sin_nombre_95" x1="190.98" y1="-859.92" x2="318.53" y2="-987.48" gradientTransform="matrix(1, 0, 0, -1, 0, -650)" gradientUnits="userSpaceOnUse"><stop offset="0" stop-color="#fff" stop-opacity="0.5"/><stop offset="1" stop-color="#eef7f8" stop-opacity="0.2"/><stop offset="1" stop-color="#fff" stop-opacity="0"/></linearGradient><linearGradient id="Degradado_sin_nombre_94" x1="166.4" y1="-830.3" x2="189.65" y2="-853.55" gradientTransform="matrix(1, 0, 0, -1, 0, -650)" gradientUnits="userSpaceOnUse"><stop offset="0" stop-color="#fff" stop-opacity="0.6"/><stop offset="1" stop-color="#fff" stop-opacity="0.15"/></linearGradient></defs><title>11</title><g id="Cuadrados_Blancos" data-name="Cuadrados Blancos"><rect class="cls-1" width="600" height="600"/></g><g id="Capa_65" data-name="Capa 65"><path class="cls-2" d="M501.24,286.26h-1V226.7a3,3,0,0,0-3-3H321a3,3,0,0,0-2.6,1.5l-13.26,23a3,3,0,0,1-2.6,1.5h-26.3v-10a3,3,0,0,0-3-3h-62a3,3,0,0,0-3,3v10h-27a3,3,0,0,0-3,3v33.56h-1a3,3,0,0,0-3,3v134a3,3,0,0,0,3,3h1V448.7a3,3,0,0,0,3,3h316a3,3,0,0,0,3-3V426.26h1a3,3,0,0,0,3-3v-134A3,3,0,0,0,501.24,286.26Z"/><path class="cls-3" d="M268.37,175.2l-13.26,23a3,3,0,0,1-2.6,1.5H131.24a3,3,0,0,0-3,3v196a3,3,0,0,0,3,3h316a3,3,0,0,0,3-3v-222a3,3,0,0,0-3-3H271A3,3,0,0,0,268.37,175.2Z"/><path class="cls-4" d="M447.24,173.7H312l-124.77,228h260a3,3,0,0,0,3-3v-222A3,3,0,0,0,447.24,173.7Z"/><rect class="cls-5" x="124.24" y="236.26" width="330" height="140" rx="3"/><circle class="cls-6" cx="289.24" cy="306.7" r="80"/><circle class="cls-7" cx="289.24" cy="306.7" r="60"/><circle class="cls-8" cx="289.24" cy="306.7" r="50"/><path class="cls-9" d="M289.24,256.7a50,50,0,0,0-24.06,93.83l47.75-87.87A49.84,49.84,0,0,0,289.24,256.7Z"/><rect class="cls-7" x="368.24" y="186.7" width="68" height="36" rx="3"/><path class="cls-10" d="M161.24,186.7h62a3,3,0,0,1,3,3v10h-68v-10A3,3,0,0,1,161.24,186.7Z"/><path class="cls-11" d="M161.24,186.7a3,3,0,0,0-3,3v10H193.5l6.85-13Z"/></g></svg>