<svg id="Contenido" xmlns="http://www.w3.org/2000/svg" xmlns:xlink="http://www.w3.org/1999/xlink" viewBox="0 0 600 600"><defs><style>.cls-1{fill:url(#Degradado_sin_nombre_7);}.cls-2{fill:#2dcccd;}.cls-3{fill:url(#Degradado_sin_nombre_2);}.cls-4{fill:#043263;}.cls-5{fill:#d4edfc;}.cls-6{fill:#49a5e6;}.cls-7{opacity:0.5;isolation:isolate;fill:url(#Degradado_sin_nombre_3);}.cls-8{fill:#f8cd50;}.cls-9{fill:url(#Degradado_sin_nombre_4);}.cls-10{fill:#d72544;}.cls-11{fill:#fff;}.cls-12{fill:none;}</style><linearGradient id="Degradado_sin_nombre_7" x1="257.53" y1="206.86" x2="431.67" y2="534.39" gradientUnits="userSpaceOnUse"><stop offset="0" stop-color="#192647" stop-opacity="0.5"/><stop offset="1" stop-color="#192647" stop-opacity="0"/></linearGradient><linearGradient id="Degradado_sin_nombre_2" x1="440" y1="703" x2="177" y2="703" gradientTransform="translate(0 -422)" gradientUnits="userSpaceOnUse"><stop offset="0" stop-color="#192647"/><stop offset="0" stop-color="#028484" stop-opacity="0.3"/><stop offset="1" stop-color="#028484" stop-opacity="0.1"/></linearGradient><linearGradient id="Degradado_sin_nombre_3" x1="180.72" y1="625.25" x2="308.27" y2="752.8" gradientTransform="translate(0 -422)" gradientUnits="userSpaceOnUse"><stop offset="0" stop-color="#fff" stop-opacity="0.5"/><stop offset="1" stop-color="#edf8f9" stop-opacity="0.2"/><stop offset="1" stop-color="#fff" stop-opacity="0"/></linearGradient><linearGradient id="Degradado_sin_nombre_4" x1="156.16" y1="595.56" x2="179.41" y2="618.81" gradientTransform="translate(0 -422)" gradientUnits="userSpaceOnUse"><stop offset="0" stop-color="#fff" stop-opacity="0.6"/><stop offset="1" stop-color="#fff" stop-opacity="0.15"/></linearGradient></defs><path class="cls-1" d="M535.18,475.22,494,403.4V292.89a3,3,0,0,0-3-3h-1v-59.6a3,3,0,0,0-3-3H310.7a3.25,3.25,0,0,0-2.6,1.5l-13.3,23a3,3,0,0,1-2.6,1.5H171a3,3,0,0,0-3,3v33.6h-1a3,3,0,0,0-3,3v134a3,3,0,0,0,3,3h1v22.4a3,3,0,0,0,3,3H399.53L388.1,475.22a3.53,3.53,0,0,0,1.3,4.82,3.45,3.45,0,0,0,1.77.47H532.11a3.53,3.53,0,0,0,3.07-5.29Z"/><path class="cls-2" d="M258.1,168.5l-13.3,23a3,3,0,0,1-2.6,1.5H121a3,3,0,0,0-3,3V392a3,3,0,0,0,3,3H437a3,3,0,0,0,3-3V170a3,3,0,0,0-3-3H260.7A3.25,3.25,0,0,0,258.1,168.5Z"/><path class="cls-3" d="M437,167H301.8L177,395H437a3,3,0,0,0,3-3V170A3,3,0,0,0,437,167Z"/><path class="cls-4" d="M117,229.6H441a3,3,0,0,1,3,3v134a3,3,0,0,1-3,3H117a3,3,0,0,1-3-3v-134A3,3,0,0,1,117,229.6Z"/><circle class="cls-5" cx="279" cy="300" r="80"/><circle class="cls-4" cx="279" cy="300" r="60"/><circle class="cls-6" cx="279" cy="300" r="50"/><path class="cls-7" d="M279,250a50,50,0,0,0-24,93.9l47.8-87.8A49.87,49.87,0,0,0,279,250Z"/><path class="cls-4" d="M361,180h62a3,3,0,0,1,3,3v30a3,3,0,0,1-3,3H361a3,3,0,0,1-3-3V183A3,3,0,0,1,361,180Z"/><path class="cls-8" d="M151,180h62a3,3,0,0,1,3,3v10H148V183A3,3,0,0,1,151,180Z"/><path class="cls-9" d="M151,180a3,3,0,0,0-3,3v10h35.3l6.9-13Z"/><path class="cls-10" d="M408.57,292,338.1,414.94a3.53,3.53,0,0,0,3.07,5.29H482.11a3.53,3.53,0,0,0,3.07-5.29L414.71,292a3.54,3.54,0,0,0-4.83-1.31A3.43,3.43,0,0,0,408.57,292Z"/><path class="cls-11" d="M411.13,380.26a5,5,0,0,1-5-5.06V340.92a5,5,0,1,1,10.06,0V375.2a5,5,0,0,1-4.94,5.06Z"/><path class="cls-11" d="M411.14,399.18a5.07,5.07,0,0,1-4.19-2.26,5.19,5.19,0,0,1-.46-.87,5.46,5.46,0,0,1-.29-.95,5.63,5.63,0,0,1-.09-1,5.07,5.07,0,0,1,1.47-3.57,5,5,0,0,1,7.07,0l0,0a5.07,5.07,0,0,1-3.55,8.65Z"/><rect class="cls-12" width="600" height="600"/></svg>