<svg id="Contenido" xmlns="http://www.w3.org/2000/svg" xmlns:xlink="http://www.w3.org/1999/xlink" viewBox="0 0 600 600"><defs><style>.cls-1{fill:url(#Degradado_sin_nombre_16);}.cls-2{fill:#d4edfc;}.cls-3{fill:url(#Degradado_sin_nombre_30);}.cls-4{fill:#043263;}.cls-5{fill:#49a5e6;}.cls-6{fill:#1464a5;}.cls-7{fill:url(#Degradado_sin_nombre_8);}.cls-8{fill:#efcd66;}.cls-9{fill:none;}.cls-10{fill:url(#Degradado_sin_nombre_3);}.cls-11{fill:url(#Degradado_sin_nombre_3-2);}.cls-12{fill:#004481;}</style><linearGradient id="Degradado_sin_nombre_16" x1="178.01" y1="118.38" x2="406.05" y2="547.26" gradientUnits="userSpaceOnUse"><stop offset="0" stop-color="#1c2645"/><stop offset="0" stop-color="#1c2645" stop-opacity="0.5"/><stop offset="1" stop-color="#1c2645" stop-opacity="0"/></linearGradient><linearGradient id="Degradado_sin_nombre_30" x1="350" y1="311.39" x2="250" y2="311.39" gradientUnits="userSpaceOnUse"><stop offset="0" stop-color="#043263" stop-opacity="0.1"/><stop offset="1" stop-color="#043263" stop-opacity="0"/></linearGradient><linearGradient id="Degradado_sin_nombre_8" x1="435" y1="443" x2="289.37" y2="443" gradientUnits="userSpaceOnUse"><stop offset="0" stop-color="#043263" stop-opacity="0.6"/><stop offset="1" stop-color="#043263" stop-opacity="0.2"/></linearGradient><linearGradient id="Degradado_sin_nombre_3" x1="271.22" y1="2702.58" x2="309.23" y2="2664.58" gradientTransform="matrix(1, 0, 0, -1, 0, 2800.72)" gradientUnits="userSpaceOnUse"><stop offset="0" stop-color="#fff" stop-opacity="0.6"/><stop offset="1" stop-color="#fff" stop-opacity="0.2"/></linearGradient><linearGradient id="Degradado_sin_nombre_3-2" x1="283.83" y1="110.19" x2="296.97" y2="132.72" gradientTransform="matrix(1, 0, 0, 1, 0, 0)" xlink:href="#Degradado_sin_nombre_3"/></defs><title>evolucion_luz</title><path class="cls-1" d="M486.74,451H393V350.09a10.58,10.58,0,0,0,3-7.38V219.5a8,8,0,0,0-8-8H346v-9.72a22.17,22.17,0,0,0,19.1-22v-.13a21,21,0,0,0-.12-2.24A22.42,22.42,0,0,0,364,173a23.69,23.69,0,0,0-1.27-3.16c-.34-.69-.71-1.37-1.11-2a25.82,25.82,0,0,0-3.64-4.64c-.22-.22-.46-.44-.71-.66a2.75,2.75,0,0,0-.26-.22l-.54-.45-.31-.25-.58-.43-.31-.23-.67-.48a2.2,2.2,0,0,0-.25-.17c-.92-.65-1.89-1.3-2.85-2l-.34-.24c-.24-.16-.47-.32-.69-.49l-.27-.19-.74-.56-.22-.16-.77-.62-.19-.16c-.26-.22-.5-.44-.74-.66l-.13-.13c-.25-.23-.48-.47-.7-.71l0,0c-.21-.24-.41-.48-.59-.72l-.09-.12a6.66,6.66,0,0,1-.48-.74,1,1,0,0,1-.08-.14,6.53,6.53,0,0,1-.36-.76.56.56,0,0,0,0-.12,6.36,6.36,0,0,1-.22-.83h0a4.18,4.18,0,0,0-.14-.94c-.05-.62-.08-1.27-.08-1.94a25.14,25.14,0,0,1,.67-5.73.45.45,0,0,0-.06-.34.43.43,0,0,0-.28-.21.5.5,0,0,0-.27,0,24.19,24.19,0,0,0-9.41,7,8.62,8.62,0,0,0-1.56,1.61c-1.23,1.55-2.56,3.64-3.3,4.56l-.69,1-.93,1.44-.35.53c-.69,1.06-1.37,2.13-1.73,2.66l-.22.33c-.22.28-.44.58-.64.89a21.67,21.67,0,0,0-1.18,2,31.55,31.55,0,0,0-1.92,4.66c-.26.83-.51,1.67-.72,2.51s-.4,1.7-.55,2.55a35.1,35.1,0,0,0-.57,4.91q0,.59,0,1.14c0,.46,0,.91,0,1.35l0,.42.09.93.06.46c0,.3.09.6.14.9,0,.13,0,.27.07.4.08.41.17.82.27,1.22v0c.1.42.22.83.35,1.23l.12.35c.09.29.2.58.3.86.05.13.1.26.16.39.11.28.23.56.35.83l.15.34q.25.54.54,1.08l0,0q.3.56.63,1.08l.16.26c.17.27.35.53.53.79l.21.3c.18.25.37.49.56.73.06.09.13.17.2.26a20.71,20.71,0,0,0,1.67,1.83l.18.17c.23.23.48.45.72.67l.26.22.73.6.24.18c.32.25.65.48,1,.71h0c.41.28.83.53,1.25.78l.25.14a23.56,23.56,0,0,0,2.63,1.26l.28.11c.45.17.91.33,1.37.48h0c.47.14.94.27,1.42.38l.33.08c.47.1.95.19,1.43.27h0l.33,0v9.71H298a8,8,0,0,0-8,8v85a10.58,10.58,0,0,0,3,7.38V451H199.26a2.94,2.94,0,0,0-2.88,3v9a2.94,2.94,0,0,0,2.88,3H208l16.76,24a36.44,36.44,0,0,0,29.79,16h176.9a36.44,36.44,0,0,0,29.79-16L478,466h8.74a2.94,2.94,0,0,0,2.88-3v-9A2.94,2.94,0,0,0,486.74,451Z"/><rect class="cls-2" x="250" y="171" width="100" height="250"/><polygon class="cls-3" points="250 389.86 250 421 350 421 350 201.79 250 389.86"/><rect class="cls-4" x="297" y="151" width="6" height="20"/><path class="cls-5" d="M247,176.5v85a10.61,10.61,0,0,0,10.6,10.6h0a10.61,10.61,0,0,0,10.6-10.6V213.1a10.61,10.61,0,0,1,10.6-10.6h0a10.61,10.61,0,0,1,10.6,10.6v25.26A10.6,10.6,0,0,0,300,249h0a10.6,10.6,0,0,0,10.6-10.6V229.1a10.61,10.61,0,0,1,10.6-10.6h0a10.61,10.61,0,0,1,10.6,10.6v70.61a10.61,10.61,0,0,0,10.6,10.6h0a10.61,10.61,0,0,0,10.6-10.6V176.5a8,8,0,0,0-8-8H255A8,8,0,0,0,247,176.5Z"/><path class="cls-6" d="M388.45,463H211.55a36.44,36.44,0,0,1-29.79-16L165,423H435l-16.76,24A36.44,36.44,0,0,1,388.45,463Z"/><path class="cls-7" d="M310.63,423l-21.26,40h99.08a36.44,36.44,0,0,0,29.79-16L435,423Z"/><path id="_Trazado_de_recorte_compuesto_2" data-name=" Trazado de recorte compuesto 2" class="cls-8" d="M315,120.15h0c-3.75-3.8-12.32-7.33-13.16-12.24a4.18,4.18,0,0,0-.14-.94c-.05-.62-.08-1.27-.08-1.94a25.14,25.14,0,0,1,.67-5.73.46.46,0,0,0-.34-.55.5.5,0,0,0-.27,0,24.22,24.22,0,0,0-9.41,7c-1.47,1-3.78,4.83-4.86,6.17-.25.3-3.69,5.67-3.92,6-3.5,4.54-5.61,12.72-5.61,18.67a22.1,22.1,0,1,0,44.2.13v-.13A23.71,23.71,0,0,0,315,120.15Zm-27.38-5.45c0-.19.05-.28.06-.22h0Z"/><path class="cls-9" d="M315,120.15h0c-3.75-3.8-12.32-7.33-13.16-12.24a4.18,4.18,0,0,0-.14-.94c-.05-.62-.08-1.27-.08-1.94a25.14,25.14,0,0,1,.67-5.73.46.46,0,0,0-.34-.55.5.5,0,0,0-.27,0,24.22,24.22,0,0,0-9.41,7c-1.47,1-3.78,4.83-4.86,6.17-.25.3-3.69,5.67-3.92,6-3.5,4.54-5.61,12.72-5.61,18.67a22.1,22.1,0,1,0,44.2.13v-.13A23.71,23.71,0,0,0,315,120.15Zm-27.38-5.45c0-.19.05-.28.06-.22h0Z"/><path class="cls-10" d="M287.64,114.7l.06-.22C287.69,114.42,287.67,114.51,287.64,114.7Z"/><path class="cls-8" d="M322.1,136.62A23.71,23.71,0,0,0,315,120.15a50.06,50.06,0,0,0-6.48-4.86l-20.86,40a22.1,22.1,0,0,0,34.42-18.5Z"/><path class="cls-11" d="M301.86,107.91a4.18,4.18,0,0,0-.14-.94c-.05-.62-.08-1.27-.08-1.94a25.14,25.14,0,0,1,.67-5.73.46.46,0,0,0-.34-.55.5.5,0,0,0-.27,0,24.22,24.22,0,0,0-9.41,7c-1.47,1-3.78,4.83-4.86,6.17-.25.3-3.69,5.67-3.92,6-3.5,4.54-5.61,12.72-5.61,18.67a22.22,22.22,0,0,0,9.78,18.63l20.86-40C305.35,113.08,302.34,110.72,301.86,107.91Zm-14.22,6.79c0-.19.05-.28.06-.22Z"/><path class="cls-12" d="M443.74,408H156.26a2.94,2.94,0,0,0-2.88,3v9a2.94,2.94,0,0,0,2.88,3H443.74a2.94,2.94,0,0,0,2.88-3v-9A2.94,2.94,0,0,0,443.74,408Z"/></svg>