<svg xmlns="http://www.w3.org/2000/svg" xmlns:xlink="http://www.w3.org/1999/xlink" viewBox="0 0 600 600"><defs><style>.cls-1{fill:none;}.cls-2{fill:url(#Degradado_sin_nombre_423);}.cls-3{fill:#d4edfc;}.cls-4{fill:url(#Degradado_sin_nombre_43);}.cls-5{fill:#043263;}.cls-6{fill:#49a5e6;}.cls-7{fill:#004481;}.cls-8{fill:url(#Degradado_sin_nombre_114);}.cls-9{fill:#efcd66;}.cls-10{fill:url(#Degradado_sin_nombre_18);}.cls-11{fill:url(#Degradado_sin_nombre_18-2);}.cls-12{fill:#072146;}</style><linearGradient id="Degradado_sin_nombre_423" x1="178.01" y1="9151.62" x2="406.05" y2="8722.74" gradientTransform="matrix(1, 0, 0, -1, 0, 9270)" gradientUnits="userSpaceOnUse"><stop offset="0" stop-color="#1c2645" stop-opacity="0.5"/><stop offset="1" stop-color="#1c2645" stop-opacity="0"/></linearGradient><linearGradient id="Degradado_sin_nombre_43" x1="350" y1="8958.61" x2="250" y2="8958.61" gradientTransform="matrix(1, 0, 0, -1, 0, 9270)" gradientUnits="userSpaceOnUse"><stop offset="0" stop-color="#043263" stop-opacity="0.1"/><stop offset="1" stop-color="#043263" stop-opacity="0"/></linearGradient><linearGradient id="Degradado_sin_nombre_114" x1="435" y1="8827" x2="289.37" y2="8827" gradientTransform="matrix(1, 0, 0, -1, 0, 9270)" gradientUnits="userSpaceOnUse"><stop offset="0" stop-color="#072146" stop-opacity="0.8"/><stop offset="1" stop-color="#072146" stop-opacity="0"/></linearGradient><linearGradient id="Degradado_sin_nombre_18" x1="271.22" y1="-2102.58" x2="309.23" y2="-2064.58" gradientTransform="translate(0 2200.72)" gradientUnits="userSpaceOnUse"><stop offset="0" stop-color="#fff" stop-opacity="0.6"/><stop offset="1" stop-color="#fff" stop-opacity="0.2"/></linearGradient><linearGradient id="Degradado_sin_nombre_18-2" x1="283.84" y1="9159.81" x2="296.98" y2="9137.28" gradientTransform="matrix(1, 0, 0, -1, 0, 9270)" xlink:href="#Degradado_sin_nombre_18"/></defs><title>11</title><g id="Cuadrados_Blancos" data-name="Cuadrados Blancos"><rect class="cls-1" width="600" height="600"/></g><g id="Capa_16" data-name="Capa 16"><path class="cls-2" d="M486.74,451H393V350.09a10.6,10.6,0,0,0,3-7.38V219.5a8,8,0,0,0-8-8H346v-9.72a22.17,22.17,0,0,0,19.1-22v-.13a20.87,20.87,0,0,0-.12-2.24,22.86,22.86,0,0,0-1-4.41,24,24,0,0,0-1.27-3.16,21.39,21.39,0,0,0-1.11-2A25.51,25.51,0,0,0,358,163.2c-.22-.22-.46-.44-.71-.66a2.75,2.75,0,0,0-.26-.22l-.54-.45-.31-.25-.58-.43-.31-.23-.67-.48a2.2,2.2,0,0,0-.25-.17c-.92-.65-1.89-1.3-2.85-2l-.34-.24c-.24-.16-.47-.32-.69-.49l-.27-.19-.74-.56-.22-.16-.77-.62-.19-.16c-.26-.22-.5-.44-.74-.66l-.13-.13c-.25-.23-.48-.47-.7-.71h0c-.21-.24-.41-.48-.59-.72l-.09-.12a5.84,5.84,0,0,1-.48-.74.64.64,0,0,1-.08-.14,5.84,5.84,0,0,1-.36-.76v-.12a6,6,0,0,1-.22-.83h0a4.27,4.27,0,0,0-.14-.94c-.05-.62-.08-1.27-.08-1.94a25.14,25.14,0,0,1,.67-5.73.45.45,0,0,0-.06-.34.43.43,0,0,0-.28-.21.62.62,0,0,0-.27,0,24.29,24.29,0,0,0-9.41,7,8.81,8.81,0,0,0-1.56,1.61c-1.23,1.55-2.56,3.64-3.3,4.56l-.69,1-.93,1.44-.35.53c-.69,1.06-1.37,2.13-1.73,2.66l-.22.33c-.22.28-.44.58-.64.89a22.31,22.31,0,0,0-1.18,2,31.5,31.5,0,0,0-1.92,4.66c-.26.83-.51,1.67-.72,2.51s-.4,1.7-.55,2.55a33.72,33.72,0,0,0-.57,4.91v2.91l.09.93.06.46a5.61,5.61,0,0,0,.14.9.81.81,0,0,0,.07.4c.08.41.17.82.27,1.22h0c.1.42.22.83.35,1.23l.12.35c.09.29.2.58.3.86.05.13.1.26.16.39.11.28.23.56.35.83l.15.34q.25.54.54,1.08h0q.3.56.63,1.08l.16.26c.17.27.35.53.53.79l.21.3c.18.25.37.49.56.73s.13.17.2.26a22.22,22.22,0,0,0,1.67,1.83l.18.17c.23.23.48.45.72.67l.26.22.73.6.24.18c.32.25.65.48,1,.71h0c.41.28.83.53,1.25.78l.25.14a25.38,25.38,0,0,0,2.63,1.26l.28.11c.45.17.91.33,1.37.48h0c.47.14.94.27,1.42.38l.33.08c.47.1.95.19,1.43.27h.33v9.71H298a8,8,0,0,0-8,8v85a10.6,10.6,0,0,0,3,7.38V451H199.26a3,3,0,0,0-2.88,3h0v9a3,3,0,0,0,2.88,3H208l16.76,24a36.42,36.42,0,0,0,29.79,16h176.9a36.42,36.42,0,0,0,29.79-16L478,466h8.74a3,3,0,0,0,2.88-3h0v-9a3,3,0,0,0-2.88-3Z"/><rect class="cls-3" x="250" y="171" width="100" height="250"/><polygon class="cls-4" points="250 389.86 250 421 350 421 350 201.79 250 389.86"/><rect class="cls-5" x="297" y="151" width="6" height="20"/><path class="cls-6" d="M247,176.5v85a10.62,10.62,0,0,0,10.6,10.6h0a10.62,10.62,0,0,0,10.6-10.6V213.1a10.62,10.62,0,0,1,10.6-10.6h0a10.62,10.62,0,0,1,10.6,10.6v25.26A10.61,10.61,0,0,0,300,249h0a10.61,10.61,0,0,0,10.6-10.6h0v-9.3a10.62,10.62,0,0,1,10.6-10.6h0a10.62,10.62,0,0,1,10.6,10.6v70.61a10.62,10.62,0,0,0,10.6,10.6h0a10.62,10.62,0,0,0,10.6-10.6V176.5a8,8,0,0,0-8-8H255A8,8,0,0,0,247,176.5Z"/><path class="cls-7" d="M388.45,463H211.55a36.42,36.42,0,0,1-29.79-16L165,423H435l-16.76,24A36.42,36.42,0,0,1,388.45,463Z"/><path class="cls-8" d="M310.63,423l-21.26,40h99.08a36.42,36.42,0,0,0,29.79-16L435,423Z"/><path id="_Trazado_de_recorte_compuesto_2" data-name=" Trazado de recorte compuesto 2" class="cls-9" d="M315,120.15h0c-3.75-3.8-12.32-7.33-13.16-12.24a4.27,4.27,0,0,0-.14-.94c-.05-.62-.08-1.27-.08-1.94a25.14,25.14,0,0,1,.67-5.73.46.46,0,0,0-.34-.55.61.61,0,0,0-.27,0,24.29,24.29,0,0,0-9.41,7c-1.47,1-3.78,4.83-4.86,6.17-.25.3-3.69,5.67-3.92,6-3.5,4.54-5.61,12.72-5.61,18.67a22.1,22.1,0,1,0,44.2.13v-.13A23.69,23.69,0,0,0,315,120.15Zm-27.38-5.45c0-.19.05-.28.06-.22h0Z"/><path class="cls-1" d="M315,120.15h0c-3.75-3.8-12.32-7.33-13.16-12.24a4.27,4.27,0,0,0-.14-.94c-.05-.62-.08-1.27-.08-1.94a25.14,25.14,0,0,1,.67-5.73.46.46,0,0,0-.34-.55.61.61,0,0,0-.27,0,24.29,24.29,0,0,0-9.41,7c-1.47,1-3.78,4.83-4.86,6.17-.25.3-3.69,5.67-3.92,6-3.5,4.54-5.61,12.72-5.61,18.67a22.1,22.1,0,1,0,44.2.13v-.13A23.69,23.69,0,0,0,315,120.15Zm-27.38-5.45c0-.19.05-.28.06-.22h0Z"/><path class="cls-10" d="M287.64,114.7l.06-.22C287.69,114.42,287.67,114.51,287.64,114.7Z"/><path class="cls-9" d="M322.1,136.62a23.72,23.72,0,0,0-7.1-16.47,50.24,50.24,0,0,0-6.48-4.86l-20.86,40a22.1,22.1,0,0,0,34.42-18.5Z"/><path class="cls-11" d="M301.86,107.91a4.27,4.27,0,0,0-.14-.94c-.05-.62-.08-1.27-.08-1.94a25.14,25.14,0,0,1,.67-5.73.46.46,0,0,0-.34-.55.61.61,0,0,0-.27,0,24.29,24.29,0,0,0-9.41,7c-1.47,1-3.78,4.83-4.86,6.17-.25.3-3.69,5.67-3.92,6-3.5,4.54-5.61,12.72-5.61,18.67a22.23,22.23,0,0,0,9.78,18.63l20.86-40C305.35,113.08,302.34,110.72,301.86,107.91Zm-14.22,6.79c0-.19.05-.28.06-.22Z"/><path class="cls-12" d="M443.74,408H156.26a3,3,0,0,0-2.88,3h0v9a3,3,0,0,0,2.88,3H443.74a3,3,0,0,0,2.88-3h0v-9a3,3,0,0,0-2.88-3Z"/></g></svg>