<svg id="Contenido" xmlns="http://www.w3.org/2000/svg" xmlns:xlink="http://www.w3.org/1999/xlink" viewBox="0 0 600 600"><defs><style>.cls-1{fill:url(#Degradado_sin_nombre_16);}.cls-2{fill:#2dcccd;}.cls-3{fill:#d4edfc;}.cls-4{opacity:0.5;fill:url(#Degradado_sin_nombre_326);}.cls-5{fill:#1464a5;}.cls-6{fill:url(#Degradado_sin_nombre_309);}.cls-7{fill:url(#Degradado_sin_nombre_309-2);}.cls-8{fill:url(#Degradado_sin_nombre_309-3);}.cls-9{fill:none;}</style><linearGradient id="Degradado_sin_nombre_16" x1="160.72" y1="15.75" x2="426.26" y2="515.15" gradientUnits="userSpaceOnUse"><stop offset="0" stop-color="#1c2645"/><stop offset="0" stop-color="#1c2645" stop-opacity="0.5"/><stop offset="1" stop-color="#1c2645" stop-opacity="0"/></linearGradient><linearGradient id="Degradado_sin_nombre_326" x1="249.75" y1="100.02" x2="285.3" y2="135.58" gradientUnits="userSpaceOnUse"><stop offset="0" stop-color="#fff" stop-opacity="0.7"/><stop offset="1" stop-color="#fff" stop-opacity="0.1"/></linearGradient><linearGradient id="Degradado_sin_nombre_309" x1="386.03" y1="284.77" x2="313.01" y2="284.77" gradientUnits="userSpaceOnUse"><stop offset="0" stop-color="#043263" stop-opacity="0.8"/><stop offset="1" stop-color="#043263" stop-opacity="0.1"/></linearGradient><linearGradient id="Degradado_sin_nombre_309-2" x1="417.1" y1="165.77" x2="379.54" y2="165.77" xlink:href="#Degradado_sin_nombre_309"/><linearGradient id="Degradado_sin_nombre_309-3" x1="319.49" y1="409.92" x2="246.47" y2="409.92" xlink:href="#Degradado_sin_nombre_309"/></defs><title>-</title><path class="cls-1" d="M453.89,197.68c0-.22,0-.44-.07-.66-.07-.8-.16-1.6-.26-2.4,0-.17,0-.33-.05-.49-.13-1-.26-1.95-.42-2.92a.77.77,0,0,0,0-.15c-.14-.9-.3-1.8-.47-2.7,0-.19-.07-.38-.11-.57q-.25-1.29-.54-2.58c0-.08,0-.17-.05-.25-.22-1-.46-2-.71-2.93,0-.06,0-.11,0-.16-.23-.89-.48-1.78-.74-2.66,0-.16-.09-.31-.13-.46A96.27,96.27,0,0,0,383,113h0c-1-.27-2-.52-3-.75l-.56-.13c-.86-.2-1.72-.38-2.57-.55l-.49-.1c-1-.2-2-.38-3.05-.54l-.18,0c-.94-.15-1.89-.28-2.83-.4l-.56-.07q-3-.37-6.11-.55l-.4,0c-.94,0-1.87-.09-2.81-.11h-.3q-3.12-.06-6.23.08h-.35q-3.14.15-6.25.5l-.14,0c-1,.12-2.06.25-3.09.4H344q-3.16.46-6.28,1.14l-.14,0q-3.12.67-6.2,1.56h0A96,96,0,0,0,273,160.7c-5.86,11-12.28,22.89-14.54,27.34h0l0,.05-.69,1.29a29.8,29.8,0,0,0,11.85,40c14.57,8.1,33.18,2.18,41-12.54l.51-1c0-.07.08-.16.12-.24l.5-.94c.06-.12.12-.25.19-.36l.53-1,.22-.42.59-1.11c.08-.14.16-.3.24-.46.22-.39.43-.8.66-1.22l.24-.45.71-1.33.29-.54.77-1.43.21-.4,1-1.79h0c2.61-4.87,5.56-10.33,8.24-15.35a36.78,36.78,0,0,1,34.6-19.35h0c.62,0,1.24.09,1.85.16h.07c.59.07,1.19.15,1.78.25l.13,0c.57.09,1.14.2,1.71.32l.18,0c.56.12,1.11.26,1.66.41l.21.06c.54.15,1.08.31,1.61.48l.24.08c.54.18,1.07.37,1.59.58l.23.08c.55.22,1.09.45,1.63.69l.16.07c.59.27,1.18.56,1.76.86h0l.22.12a36.72,36.72,0,0,1,19.46,32.7h0c0,.7,0,1.4-.07,2.09v.13c0,.69-.11,1.37-.19,2.06v0a36.69,36.69,0,0,1-.78,4.24c0,.05,0,.11,0,.16-.15.6-.32,1.2-.5,1.79l-.17.53c-.16.48-.32,1-.5,1.43l-.23.62c-.19.46-.38.92-.58,1.38-.09.19-.17.39-.25.58-.3.63-.61,1.27-.94,1.89l-14.7,27.64h0L333.5,330.26h0l-4.79,9L252,483.59l-9.38,17.64h0l-7,13.14a29.81,29.81,0,0,0,52.64,28L348,430.05,356.49,414h0l42.86-80.6h0L423,288.86h0l20-37.58A95.82,95.82,0,0,0,453.89,197.68Z"/><path class="cls-2" d="M210.93,513.68a29.85,29.85,0,0,1-12.33-40.31L353.37,182.29a36.72,36.72,0,0,0-64.81-34.52c-5.73,10.72-12.68,23.51-15,28-.91,1.79-53.06-27-52.13-28.78,2.26-4.45,8.68-16.37,14.54-27.34a96.33,96.33,0,0,1,170,90.58L251.24,501.36A29.84,29.84,0,0,1,210.93,513.68Z"/><path class="cls-3" d="M332.59,277.92a77.5,77.5,0,0,0-13.3,6.61c-2.44,1.48-4.79,3.09-7.09,4.77-.31.22-.68.53-.92.74-.63.6-1.25,1.21-1.85,1.85-7.22,7.6-12.92,15.69-23.22,19.43a11.84,11.84,0,0,1-1.69.47l-19,35.83,11.69-8.11a34.63,34.63,0,0,1,11.6-5.22L329,324.48l.36-.1a72.75,72.75,0,0,0,21.72-10.84l28.12-52.87C364.06,267.3,348,271.88,332.59,277.92Z"/><path class="cls-3" d="M415.35,146.07a24.93,24.93,0,0,1-8,5.14c-6.15,2.52-13,3-19.58,3.74-5.51.66-10.12,1.63-14,4.78-.52.42-3,3.39-4.25,4.7a25.45,25.45,0,0,1-10.73,7,14.7,14.7,0,0,1-1.82.46,36.32,36.32,0,0,1-3.65,10.41l-22.94,43.16,12.45-10.56a29.78,29.78,0,0,1,12.74-6.33l36-8,.48-.13a44.94,44.94,0,0,0,23.49-17.14A96.18,96.18,0,0,0,415.35,146.07Z"/><path class="cls-3" d="M344.46,132.31a8.56,8.56,0,0,1,1.27-4.76l15.66-25.26.22-.38a25.54,25.54,0,0,0-.1-24.23,95.78,95.78,0,0,0-56.57-7.55c4.49,8.25,8.64,16.72,12.78,25.14,3.23,6.58,6.44,13.21,9.25,20,1.86,4.45,3.11,9.44,2.18,14a36.13,36.13,0,0,1,9,3.36,36.64,36.64,0,0,1,6.43,4.35Z"/><path class="cls-3" d="M279.52,139.84l-18.3-9.73a33.67,33.67,0,0,0-30.53-.54c-4.05,7.56-7.67,14.35-9.26,17.47-.93,1.82,51.22,30.57,52.13,28.78,2.32-4.54,9.27-17.33,15-28a36.25,36.25,0,0,1,5.11-7.28l-6,.81A13.42,13.42,0,0,1,279.52,139.84Z"/><path class="cls-3" d="M269.11,402.78c-11,3.82-20.41,7.53-30,13.72-1,.62-1.91,1.29-2.86,1.93l-.23.16-.17.2c-1.25,1.46-2.67,2.85-4,4.21-3,3-6.56,6.23-10.64,7.84l-22.29,41.91,11.69-8.1a34.92,34.92,0,0,1,11.6-5.22l40.26-9.81.36-.1a72.63,72.63,0,0,0,21.72-10.84l26.19-49.24C297.24,394.75,282.86,398,269.11,402.78Z"/><path class="cls-4" d="M236,119.7c-5.86,11-12.28,22.89-14.54,27.34-.49.94,13.31,9.13,26.84,16.55l16.52-31.09c12.31-20.65,30.9-31.9,56.41-32.82L297.07,71.79A96.14,96.14,0,0,0,236,119.7Z"/><path class="cls-5" d="M362.35,292.4,386,247.86h0a41.46,41.46,0,0,1-14.84,7l-41.83,10.32a61.91,61.91,0,0,0-32.86,24.07l-24.37,45.82,1.32-.91a41.57,41.57,0,0,1,13.77-6.2l40.26-9.81C341.69,313.82,354.35,304.81,362.35,292.4Z"/><path class="cls-5" d="M417.1,159.53A97,97,0,0,0,412.42,135h0a8.29,8.29,0,0,1-6.57,6l-31.59,5.64a24,24,0,0,0-16.61,18.68,36.31,36.31,0,0,1-4.28,16.95l-14.7,27.64h0a36.32,36.32,0,0,1,15.54-7.72l36-8A38.07,38.07,0,0,0,417.1,159.53Z"/><path class="cls-5" d="M346,72a96.36,96.36,0,0,0-51.61.49h0a21,21,0,0,1,5.22,9.73L306.48,112a24.44,24.44,0,0,0,16.68,16.38,36.54,36.54,0,0,1,14.81,4.1h0a15,15,0,0,1,2.24-8.4l15.66-25.26A19.2,19.2,0,0,0,346,72Z"/><path class="cls-5" d="M288.49,147.74h0a20,20,0,0,1-12-2.16l-18.31-9.73a27.26,27.26,0,0,0-36.76,11.24l-.69,1.29a29.8,29.8,0,0,0,11.85,40c14.57,8.1,33.18,2.18,41-12.54,1.23-2.42,3.77-7.17,6.75-12.7Z"/><path class="cls-5" d="M295.81,417.54,319.49,373h0a41.29,41.29,0,0,1-14.84,7l-41.83,10.32A61.91,61.91,0,0,0,230,414.4l-24.37,45.83,1.32-.92a41.35,41.35,0,0,1,13.77-6.19l40.26-9.81C275.15,439,287.81,430,295.81,417.54Z"/><path class="cls-6" d="M371.19,254.87l-26.07,6.43L313,321.69l14.47-3.53c14.21-4.34,26.87-13.35,34.87-25.76L386,247.86h0A41.46,41.46,0,0,1,371.19,254.87Z"/><path class="cls-7" d="M405.85,141l-19.68,3.51c2.87,18.63.6,36-6.63,52l10.62-2.37a38.07,38.07,0,0,0,26.94-34.66A97,97,0,0,0,412.42,135,8.45,8.45,0,0,1,405.85,141Z"/><path class="cls-8" d="M278.58,386.44l-32.11,60.39,14.47-3.52c14.21-4.35,26.87-13.36,34.87-25.77L319.49,373a41.29,41.29,0,0,1-14.84,7Z"/><rect class="cls-9" width="600" height="600"/></svg>