<svg id="Contenido" xmlns="http://www.w3.org/2000/svg" xmlns:xlink="http://www.w3.org/1999/xlink" viewBox="0 0 600 600"><defs><style>.cls-1{fill:url(#Degradado_sin_nombre_42);}.cls-2{fill:#043263;}.cls-3{fill:#02a5a5;}.cls-4{fill:#028484;}.cls-5{fill:#072146;}.cls-6{fill:#56e2de;}.cls-7{fill:#2dcccd;}.cls-8{fill:#1464a5;}.cls-9{fill:url(#Degradado_sin_nombre_4);}.cls-10{fill:#004481;}.cls-11{fill:url(#Degradado_sin_nombre_4-2);}.cls-12{fill:#d4edfc;}.cls-13{fill:#49a5e6;}.cls-14{fill:#da3951;}.cls-15{opacity:0.5;}.cls-16{fill:url(#linear-gradient);}</style><linearGradient id="Degradado_sin_nombre_42" x1="245.94" y1="200.24" x2="434.89" y2="571.08" gradientUnits="userSpaceOnUse"><stop offset="0" stop-color="#192647" stop-opacity="0.5"/><stop offset="1" stop-color="#192647" stop-opacity="0"/></linearGradient><linearGradient id="Degradado_sin_nombre_4" x1="496.24" y1="389.54" x2="281.64" y2="389.54" gradientUnits="userSpaceOnUse"><stop offset="0" stop-color="#043263"/><stop offset="1" stop-color="#043263" stop-opacity="0"/></linearGradient><linearGradient id="Degradado_sin_nombre_4-2" x1="496.24" y1="422.23" x2="175.75" y2="422.23" xlink:href="#Degradado_sin_nombre_4"/><linearGradient id="linear-gradient" x1="227.9" y1="344.72" x2="282.17" y2="373.58" gradientUnits="userSpaceOnUse"><stop offset="0" stop-color="#eaf9fa"/><stop offset="1" stop-color="#e9f8f9" stop-opacity="0.2"/><stop offset="1" stop-color="#eaf9fa" stop-opacity="0.5"/></linearGradient></defs><title>seguro</title><path class="cls-1" d="M548.88,456.86h-1.7v-7.28h0a8.09,8.09,0,0,0-.07-1,8.31,8.31,0,0,0-3-5.49,8.63,8.63,0,0,0-1.52-1l-.35-1.42c-.07-.25-.14-.5-.22-.76a14.76,14.76,0,0,0-9.29-9.59c-.42-.14-.85-.27-1.29-.38s-.93-.21-1.41-.28l-41.77-6h0l-39.15-36.91a44.25,44.25,0,0,0-28.77-10.64H363.94V326.61c31.06-6.92,60.28-9.57,92.95-7.39h0c32.64-19.7,43.36-23.36,81.5-35.24l.44.32c0-.15-.06-.29-.08-.43l.08,0-.1-.09c-9.19-51.12-83.55-112.86-174.79-115V155.84a5,5,0,1,0-10,0V168.7c-91.25,2.19-165.6,63.93-174.79,115.05l-.1.09.08,0c0,.14-.06.28-.08.43l.44-.32c38.13,11.88,48.85,15.54,81.5,35.24,32.67-2.18,61.88.47,92.95,7.39v49.56H319.83a34.35,34.35,0,0,0-26.07,12l-.28.36c-.15.17-.31.34-.46.52l-.07.08h-.33l-28.24,36.2-4.55,5.76h0l-58.49,4.75A38.64,38.64,0,0,0,170,455.37l-2,.07a2.7,2.7,0,0,0-2.46,1.82l-3.38,9.66a2.7,2.7,0,0,0,2.23,3.57l-3.32,10.94a10.86,10.86,0,0,0-6.81,7.72l-3.72,16h0a11.7,11.7,0,0,0,11.4,14.36H198.3a41.72,41.72,0,0,0,78.07,0H434.09a41.72,41.72,0,0,0,80.34-8.83l18.08-4a18.67,18.67,0,0,0,14.67-18.25l-.11,0,.11,0h0V471.6h1.7a2.77,2.77,0,0,0,2.77-2.77v-9.2A2.77,2.77,0,0,0,548.88,456.86Z"/><path class="cls-2" d="M308.12,135.8a5,5,0,0,1-5-5V105a5,5,0,0,1,10,0v25.8A5,5,0,0,1,308.12,135.8Z"/><path class="cls-3" d="M128.22,233c38.51,12,49.17,15.6,81.95,35.38l98-137C243.74,142.36,184.51,180.08,128.22,233Z"/><path class="cls-4" d="M210.17,268.39c34.42-2.3,65,.75,98,8.52V131.38C265.13,174.05,230.8,219.23,210.17,268.39Z"/><path class="cls-3" d="M488,233c-38.5,12-49.17,15.6-81.95,35.38l-97.94-137C372.5,142.36,431.72,180.08,488,233Z"/><path class="cls-4" d="M406.06,268.39c-34.41-2.3-65,.75-97.94,8.52V131.38C349.07,174.15,382.74,219.46,406.06,268.39Z"/><rect class="cls-5" x="303.12" y="175.63" width="10" height="224.38"/><path class="cls-6" d="M308.12,117.8c-93.85,0-171,63.51-179.9,115.66,23.93-17.22,53.8-27.3,89.95-27.64h0Q234.81,153.09,308.12,117.8Z"/><path class="cls-6" d="M308.12,117.8c93.84,0,171,63.51,179.89,115.66-23.93-17.22-53.79-27.3-89.95-27.64h0Q381.44,153.09,308.12,117.8Z"/><path class="cls-7" d="M308.12,117.8q-73.32,35.3-90,88c36-10.32,58.77-12.46,90-7.12,31.17-5.34,53.93-3.2,89.94,7.12Q381.44,153.09,308.12,117.8Z"/><path class="cls-8" d="M115.67,412.35,102.94,454.3l282.78,7,110.52-51.57-5-19.86a14.72,14.72,0,0,0-12.21-11l-41.76-6L398.14,336a44.19,44.19,0,0,0-28.77-10.64H268.9a34.32,34.32,0,0,0-26.07,12L208.9,380.25,150.4,385A38.62,38.62,0,0,0,115.67,412.35Z"/><path class="cls-8" d="M99.6,454.3A11.71,11.71,0,0,0,111,468.66H422.56a7.14,7.14,0,0,0,1.6-.18l57.41-12.62a18.69,18.69,0,0,0,14.67-18.25h0l-74.48,16.32L99.6,454.3Z"/><path class="cls-8" d="M402.72,378.64a117.69,117.69,0,0,1-19.38,1.61H208.9l33.18-42.05a36.81,36.81,0,0,1,28-12.86h99.32A44.19,44.19,0,0,1,398.14,336l39.16,36.9Z"/><path class="cls-9" d="M496.24,409.72l-5-19.86a14.72,14.72,0,0,0-12.21-11l-41.76-6L398.14,336a44.19,44.19,0,0,0-28.77-10.64H349L281.64,453.75H387.5Z"/><path class="cls-10" d="M99.6,454.3l325.63-.55,71-16.14V398.75a8.34,8.34,0,0,0-8.7-8.34L112.82,430a10.88,10.88,0,0,0-9.5,8.35Z"/><path class="cls-11" d="M487.54,390.41,253.09,413.72l-21.16,40.34,193.3-.31,71-16.14V398.75A8.34,8.34,0,0,0,487.54,390.41Z"/><path class="cls-12" d="M113.78,419.7h8.61a16.17,16.17,0,0,0,16-14h0a1.62,1.62,0,0,0-1.65-1.84l-19.69.72a2.72,2.72,0,0,0-2.46,1.81l-3.38,9.67A2.71,2.71,0,0,0,113.78,419.7Z"/><path class="cls-13" d="M357.52,338.28l-115.44-.08L209.1,380a.14.14,0,0,0,.1.23l195.25-5.05a2.79,2.79,0,0,0,1.7-4.94l-27.41-24.68A34.53,34.53,0,0,0,357.52,338.28Z"/><path class="cls-14" d="M497.94,406H485.23a7.53,7.53,0,0,0-7.6,6.88,7.36,7.36,0,0,0,7.35,7.85h13a2.77,2.77,0,0,0,2.77-2.76v-9.2A2.77,2.77,0,0,0,497.94,406Z"/><circle class="cls-12" cx="186.4" cy="453.92" r="34.78"/><path class="cls-2" d="M144.66,453.93a41.74,41.74,0,1,1,41.74,41.73A41.78,41.78,0,0,1,144.66,453.93Zm15.22,0a26.52,26.52,0,1,0,26.52-26.52A26.55,26.55,0,0,0,159.88,453.93Z"/><circle class="cls-12" cx="422.19" cy="453.92" r="34.78"/><path class="cls-2" d="M380.46,453.93a41.73,41.73,0,1,1,41.73,41.73A41.78,41.78,0,0,1,380.46,453.93Zm15.21,0a26.52,26.52,0,1,0,26.52-26.52A26.55,26.55,0,0,0,395.67,453.93Z"/><polygon class="cls-2" points="317.46 338.29 332.19 338.29 346.93 376.68 319.3 377.51 317.46 338.29"/><g class="cls-15"><polygon class="cls-16" points="300.94 338.29 241.68 338.29 209.13 380.02 277.57 378.35 300.94 338.29"/></g></svg>