<svg xmlns="http://www.w3.org/2000/svg" xmlns:xlink="http://www.w3.org/1999/xlink" viewBox="0 0 600 600"><defs><style>.cls-1{fill:none;}.cls-2{fill:url(#Degradado_sin_nombre_212);}.cls-3{fill:url(#Degradado_sin_nombre_212-2);}.cls-4{fill:url(#Degradado_sin_nombre_212-3);}.cls-5{fill:#043263;}.cls-6{fill:url(#Degradado_sin_nombre_5);}.cls-7{fill:#004481;}.cls-8{fill:url(#Degradado_sin_nombre_5-2);}.cls-9{fill:#49a5e6;}.cls-10{fill:#da3951;}.cls-11{fill:#d4edfc;}.cls-12{fill:#072146;}.cls-13{opacity:0.5;}.cls-14{fill:url(#Degradado_sin_nombre_2);}.cls-15{fill:#2dcccd;}.cls-16{fill:url(#Degradado_sin_nombre_37);}.cls-17{fill:url(#Degradado_sin_nombre_37-2);}</style><linearGradient id="Degradado_sin_nombre_212" x1="289.94" y1="289.78" x2="410.76" y2="517.02" gradientUnits="userSpaceOnUse"><stop offset="0" stop-color="#192647" stop-opacity="0.5"/><stop offset="1" stop-color="#192647" stop-opacity="0"/></linearGradient><linearGradient id="Degradado_sin_nombre_212-2" x1="309.13" y1="191.71" x2="355.54" y2="279.01" xlink:href="#Degradado_sin_nombre_212"/><linearGradient id="Degradado_sin_nombre_212-3" x1="405.64" y1="181.68" x2="443.47" y2="252.83" xlink:href="#Degradado_sin_nombre_212"/><linearGradient id="Degradado_sin_nombre_5" x1="513.3" y1="-11932.45" x2="277" y2="-11932.45" gradientTransform="matrix(1, 0, 0, -1, 0, -11630)" gradientUnits="userSpaceOnUse"><stop offset="0" stop-color="#043263"/><stop offset="1" stop-color="#043263" stop-opacity="0"/></linearGradient><linearGradient id="Degradado_sin_nombre_5-2" x1="513.3" y1="-11968.44" x2="160.42" y2="-11968.44" xlink:href="#Degradado_sin_nombre_5"/><linearGradient id="Degradado_sin_nombre_2" x1="228.87" y1="-11880.15" x2="270.68" y2="-11921.96" gradientTransform="matrix(1, 0, 0, -1, 0, -11630)" gradientUnits="userSpaceOnUse"><stop offset="0" stop-color="#eaf9fa"/><stop offset="1" stop-color="#eaf9fa" stop-opacity="0.2"/><stop offset="1" stop-color="#eaf9fa" stop-opacity="0.5"/></linearGradient><linearGradient id="Degradado_sin_nombre_37" x1="863.55" y1="-11839.78" x2="783.2" y2="-11839.78" gradientTransform="matrix(1, 0.08, 0.08, -1, 402.1, -11684.05)" gradientUnits="userSpaceOnUse"><stop offset="0" stop-color="#028484" stop-opacity="0.5"/><stop offset="1" stop-color="#028484" stop-opacity="0"/></linearGradient><linearGradient id="Degradado_sin_nombre_37-2" x1="963.94" y1="-11814.12" x2="866.9" y2="-11814.12" xlink:href="#Degradado_sin_nombre_37"/></defs><title>13</title><g id="Cuadrados_Blancos" data-name="Cuadrados Blancos"><rect class="cls-1" width="600" height="600"/></g><g id="Capa_78" data-name="Capa 78"><path class="cls-2" d="M567.76,373.1h-2v-8a9.19,9.19,0,0,0-5.08-8.22l-.39-1.57a16.24,16.24,0,0,0-13.45-12.13l-46-6.57h0L457.78,296a48.69,48.69,0,0,0-31.68-11.72H315.5a37.84,37.84,0,0,0-28.73,13.25l0,0c-.27.29-.55.58-.81.89l-.07.09h-.37l-30.71,39.38-5.16,6.53s0,0,0,0l-.21.27h0l0,0L185,350a42.54,42.54,0,0,0-38.24,30.08l-6.1,20.14a12,12,0,0,0-7.5,8.48l-4.1,17.57h3.7l1,0h-4.68v0a12.89,12.89,0,0,0,12.56,15.82h40a45.95,45.95,0,0,0,86,0H441.26a45.94,45.94,0,0,0,88.49-9.72l19.9-4.38a20.59,20.59,0,0,0,16.15-20.1h0V389.33h1.86a3,3,0,0,0,3.05-2.95V376.15A3,3,0,0,0,567.76,373.1Z"/><path class="cls-3" d="M344.92,270l.59.11c.68.14,1.36.27,2.05.39s1.7.28,2.57.4l.16,0a106.3,106.3,0,0,0,18.74.86.45.45,0,0,0,.25-.09c.5-.18.59-.59.63-1.21-.24-72.37-60.85-72.64-73.14-72a2.36,2.36,0,0,0-2.23,2.16v0a.59.59,0,0,0,0,.13C294.28,211.68,296,259.85,344.92,270Z"/><path class="cls-4" d="M373.79,272.06c14,.47,93.29-.61,103-84.13,0-.06,0-.12,0-.18.15-1.35.29-2.71.41-4.09,0-.31,0-.63.07-.94.09-1.15.17-2.3.24-3.47,0-.6.05-1.21.07-1.82,0-.9.09-1.81.11-2.73s0-1.87,0-2.81c0-.63,0-1.25,0-1.88,0-1.31,0-2.65-.07-4,0-.26,0-.52,0-.79v0c0-.12,0-.24,0-.36s0-.06,0-.09c-.16-1.51-1.15-2.26-3.13-2.26-105.88,1.05-104,92.29-103,107.35A2.37,2.37,0,0,0,373.79,272.06Z"/><path class="cls-5" d="M94.26,327.56l-14,46.19,311.37,7.7L513.3,324.67l-5.47-21.87a16.24,16.24,0,0,0-13.45-12.13l-46-6.57-43.12-40.63a48.69,48.69,0,0,0-31.68-11.72H263A37.84,37.84,0,0,0,234.27,245l-37.36,47.26-64.41,5.22A42.54,42.54,0,0,0,94.26,327.56Z"/><path class="cls-5" d="M76.56,373.75a12.89,12.89,0,0,0,12.56,15.82H432.17a8.05,8.05,0,0,0,1.76-.2l63.22-13.9a20.59,20.59,0,0,0,16.15-20.1h0l-82,18-354.73.41Z"/><path class="cls-5" d="M410.32,290.45A129.14,129.14,0,0,1,389,292.22H196.91l36.53-46.3a40.58,40.58,0,0,1,30.8-14.17H373.6a48.69,48.69,0,0,1,31.68,11.72L448.4,284.1Z"/><path class="cls-6" d="M513.3,324.67l-5.47-21.87a16.24,16.24,0,0,0-13.45-12.13l-46-6.57-43.12-40.63a48.69,48.69,0,0,0-31.68-11.72H351.19L277,373.15H393.56Z"/><path class="cls-7" d="M76.56,373.75l358.55-.6,78.19-17.78V312.59a9.2,9.2,0,0,0-9.18-9.2h-.4L91.12,347a12,12,0,0,0-10.46,9.18Z"/><path class="cls-8" d="M503.72,303.4,245.56,329.07l-23.29,44.42,212.84-.34,78.19-17.78V312.59a9.2,9.2,0,0,0-9.18-9.2Z"/><path class="cls-9" d="M360.55,246l-127.11-.08-36.31,46a.17.17,0,0,0,0,.23.19.19,0,0,0,.1,0l215-5.56a3.07,3.07,0,0,0,1.87-5.44L383.92,254A38.12,38.12,0,0,0,360.55,246Z"/><path class="cls-10" d="M515.17,320.6h-14a8.31,8.31,0,0,0-8.37,7.58,8.11,8.11,0,0,0,7.55,8.63l.54,0h14.27a3,3,0,0,0,3.05-2.95V323.65a3,3,0,0,0-3-3Z"/><circle class="cls-11" cx="172.14" cy="373.34" r="38.29"/><path class="cls-12" d="M126.18,373.34a46,46,0,1,1,45.95,46A45.95,45.95,0,0,1,126.18,373.34Zm16.75,0a29.2,29.2,0,1,0,29.2-29.2A29.2,29.2,0,0,0,142.93,373.34Z"/><circle class="cls-11" cx="431.77" cy="373.34" r="38.29"/><path class="cls-12" d="M385.81,373.34a46,46,0,1,1,45.95,46A45.95,45.95,0,0,1,385.81,373.34Zm16.75,0a29.2,29.2,0,1,0,29.2-29.2A29.2,29.2,0,0,0,402.56,373.34Z"/><polygon class="cls-5" points="316.44 246.01 332.67 246.01 348.89 288.29 318.47 289.2 316.44 246.01"/><g class="cls-13"><polygon class="cls-14" points="298.25 246.01 233 246.01 197.16 291.96 272.52 290.12 298.25 246.01"/></g><path class="cls-15" d="M317.41,218c-.24-72.37-60.85-72.64-73.14-71.95a2.36,2.36,0,0,0-2.25,2.33c-.28,12.37,2,73.48,74.31,70.92C317.24,219.21,317.36,218.75,317.41,218Z"/><path class="cls-16" d="M242,148.21c-.3,12,1.72,73.74,74.49,71.07a.49.49,0,0,0,.47-.53.5.5,0,0,0-.14-.31l-73.3-70.83a.91.91,0,0,0-1.27,0A.93.93,0,0,0,242,148.21Z"/><path class="cls-15" d="M422,110c-105.88,1-104,92.29-103,107.35a2.37,2.37,0,0,0,2.29,2.21c15.19.51,107-.79,103.89-106.83C425.19,110.9,424.21,110,422,110Z"/><path class="cls-17" d="M321.3,219.55c15.23.51,107.16-.79,103.87-107.2a1.16,1.16,0,0,0-2-.75L320.64,217.92a1,1,0,0,0,0,1.37A1,1,0,0,0,321.3,219.55Z"/><path class="cls-11" d="M91.37,337.88h9.5a18.08,18.08,0,0,0,17.65-16h0a1.85,1.85,0,0,0-1.53-2.09,1.41,1.41,0,0,0-.29,0L95,320.57a3,3,0,0,0-2.72,2.07l-3.73,11.07a3.14,3.14,0,0,0,1.79,4A2.87,2.87,0,0,0,91.37,337.88Z"/></g></svg>