<svg id="a34c9bd1-b826-45bd-9cae-5a376b3c371b" data-name="Contenido" xmlns="http://www.w3.org/2000/svg" xmlns:xlink="http://www.w3.org/1999/xlink" viewBox="0 0 600 600"><defs><style>.b6f591ca-8f7d-4df5-b7c9-66d4114f20d4{fill:url(#a9f50e13-e97e-4000-af3d-14a2277dbc2a);}.e54825f7-0ce1-4941-8a2c-5e948e55db0f{fill:url(#bab7f555-ab18-4449-b3fb-1355753e5d4c);}.eb0f8b99-70a1-442b-9e59-8c6a32d2f8b5{fill:url(#affa29d3-ff1c-4527-8127-91dea3894da0);}.ed61de36-ddf1-4123-a70e-8ad7a989bd99{fill:url(#f633c41f-76e3-4b8b-a4ab-9ca17f5749e0);}.e78c2f3f-5d5e-4d72-84ea-a0ae7b35e95b{fill:url(#fab761b5-5874-4edc-bd15-5fa59f562bc5);}.af198388-3a78-473b-884e-db21760f09d8{fill:url(#fbe6b17c-0b5b-4e30-844f-210bddbcbbac);}.a5865219-0408-4044-b041-2d8b1b5a6a2f{fill:url(#e62a55d3-e859-4ec2-b672-a2c1f8334aba);}.bfd0705c-21d4-4508-8b28-9a5bd0b1ca9c{fill:#2dcccd;}.bd406c3a-7546-4e3d-8cb0-023e68ae59cd{fill:url(#fa72fbe1-4cc2-45b9-9acc-c8ef741c260d);}.e6adfab6-921d-496a-974b-93c69cb98cc1{fill:#028484;}.f426a38b-6818-4098-8041-e2df1a8ed1dc{fill:url(#b30876b8-2ab1-49e4-b038-42ad845d4022);}.b8993ce0-0f55-47ed-95a7-9c7f31cd297f{fill:none;}</style><linearGradient id="a9f50e13-e97e-4000-af3d-14a2277dbc2a" x1="354.11" y1="19.1" x2="593.5" y2="469.33" gradientTransform="translate(262.08 -269.68) rotate(49.54)" gradientUnits="userSpaceOnUse"><stop offset="0" stop-color="#192647" stop-opacity="0.48"/><stop offset="1" stop-color="#192647" stop-opacity="0"/></linearGradient><linearGradient id="bab7f555-ab18-4449-b3fb-1355753e5d4c" x1="363.22" y1="14.59" x2="607.76" y2="474.5" gradientTransform="translate(235.51 -248.6) rotate(39.54)" gradientUnits="userSpaceOnUse"><stop offset="0" stop-color="#192647"/><stop offset="0" stop-color="#192647" stop-opacity="0.5"/><stop offset="1" stop-color="#192647" stop-opacity="0"/></linearGradient><linearGradient id="affa29d3-ff1c-4527-8127-91dea3894da0" x1="357.38" y1="14.4" x2="605.52" y2="481.08" gradientTransform="translate(185.92 -205.46) rotate(29.54)" xlink:href="#bab7f555-ab18-4449-b3fb-1355753e5d4c"/><linearGradient id="f633c41f-76e3-4b8b-a4ab-9ca17f5749e0" x1="336.47" y1="17.27" x2="588.95" y2="492.12" gradientTransform="matrix(1, 0, 0, 1, 0, 0)" xlink:href="#bab7f555-ab18-4449-b3fb-1355753e5d4c"/><linearGradient id="fab761b5-5874-4edc-bd15-5fa59f562bc5" x1="308.45" y1="22.19" x2="564.72" y2="504.17" gradientTransform="translate(61.89 -73.98) rotate(9.54)" xlink:href="#bab7f555-ab18-4449-b3fb-1355753e5d4c"/><linearGradient id="fbe6b17c-0b5b-4e30-844f-210bddbcbbac" x1="234.97" y1="75.76" x2="468.86" y2="515.66" gradientUnits="userSpaceOnUse"><stop offset="0" stop-color="#192647" stop-opacity="0.5"/><stop offset="1" stop-color="#192647" stop-opacity="0"/></linearGradient><linearGradient id="e62a55d3-e859-4ec2-b672-a2c1f8334aba" x1="75.46" y1="147.75" x2="307.95" y2="585" gradientUnits="userSpaceOnUse"><stop offset="0" stop-color="#192647" stop-opacity="0.49"/><stop offset="1" stop-color="#192647" stop-opacity="0"/></linearGradient><linearGradient id="fa72fbe1-4cc2-45b9-9acc-c8ef741c260d" x1="661.95" y1="166.01" x2="561.91" y2="260.52" gradientTransform="matrix(0.94, 0.35, -0.35, 0.94, -154.05, -133.67)" gradientUnits="userSpaceOnUse"><stop offset="0" stop-color="#028484" stop-opacity="0.4"/><stop offset="1" stop-color="#028484" stop-opacity="0.1"/></linearGradient><linearGradient id="b30876b8-2ab1-49e4-b038-42ad845d4022" x1="-122.46" y1="-228.99" x2="-253.34" y2="-228.99" gradientTransform="matrix(0.75, -0.66, 0.66, 0.75, 508.35, 467.49)" xlink:href="#fa72fbe1-4cc2-45b9-9acc-c8ef741c260d"/></defs><ellipse class="b6f591ca-8f7d-4df5-b7c9-66d4114f20d4" cx="423.24" cy="149.12" rx="43.39" ry="30.26" transform="translate(35.14 374.4) rotate(-49.54)"/><ellipse class="e54825f7-0ce1-4941-8a2c-5e948e55db0f" cx="463.55" cy="203.28" rx="25.76" ry="19.51" transform="translate(-23.34 341.64) rotate(-39.54)"/><ellipse class="eb0f8b99-70a1-442b-9e59-8c6a32d2f8b5" cx="482.56" cy="249.83" rx="20.81" ry="15.75" transform="translate(-60.45 270.42) rotate(-29.54)"/><path class="ed61de36-ddf1-4123-a70e-8ad7a989bd99" d="M479.42,281.91c-9.24,3.28-14.72,11.61-12.24,18.61s12,10,21.23,6.73,14.72-11.62,12.24-18.61S488.66,278.63,479.42,281.91Z"/><ellipse class="e78c2f3f-5d5e-4d72-84ea-a0ae7b35e95b" cx="474.09" cy="333.72" rx="15.45" ry="11.7" transform="translate(-48.77 83.22) rotate(-9.54)"/><path class="af198388-3a78-473b-884e-db21760f09d8" d="M424.89,244.87a108.21,108.21,0,0,0-18.77-22.12c-1.49-1.35-3-2.64-4.56-3.87-10.05-8-20.92-13.59-31.09-15.76-.91-3.72-2-7.4-3-11.11-.26-.85-.54-1.7-.82-2.55h0a7.11,7.11,0,0,0-13.61,4.1c.38.95.75,1.91,1.1,2.87.64,1.93,1.31,3.85,2,5.78-35.24,2.49-77.8,36.47-82.17,82.64-7,73.76,56.3,148.36,66.75,160.13a2.67,2.67,0,0,0,.45.38h0a2.24,2.24,0,0,0,1,.38h0l.26,0h.14l.22,0,.2,0,.17-.05a1.17,1.17,0,0,0,.24-.09l.14-.06a1.86,1.86,0,0,0,.35-.22c.78-.6,1.81-1.4,3.05-2.39s2.71-2.19,4.36-3.56l1.26-1.06c1.31-1.1,2.71-2.29,4.19-3.59q3-2.6,6.37-5.69a341.43,341.43,0,0,0,26.62-27.28l2-2.35c2.68-3.16,5.37-6.44,8-9.84q1-1.27,2-2.58a225.26,225.26,0,0,0,23.17-37.09c1-2.05,2-4.13,2.89-6.23s1.81-4.21,2.65-6.34c.42-1.07.83-2.14,1.23-3.22a137.82,137.82,0,0,0,7-26.64q.53-3.42.85-6.88c1.78-18.72-3.41-36.7-12.36-52Q426,246.66,424.89,244.87Z"/><path class="a5865219-0408-4044-b041-2d8b1b5a6a2f" d="M297.32,457.1c-.05-.79-.1-1.58-.16-2.37q-.2-2.39-.48-4.74c-.2-1.57-.42-3.14-.68-4.71s-.54-3.12-.85-4.66q-.7-3.5-1.59-6.91a162.48,162.48,0,0,0-4.85-15.54c-.53-1.43-1.07-2.84-1.62-4.24-2.49-6.29-5.24-12.23-8-17.68-1.23-2.42-2.47-4.75-3.69-7-.61-1.11-1.22-2.19-1.82-3.24s-1.2-2.08-1.79-3.07-1.17-2-1.74-2.88-1.12-1.83-1.67-2.7c-.81-1.29-1.6-2.51-2.35-3.65-3-4.56-5.36-7.82-6.59-9.46a1.6,1.6,0,0,0-.25-.27l0,0a1.62,1.62,0,0,0-1.89-.1c-9.15,5.89-65.21,43.76-74.31,94.17-5.91,32.76,19.89,64.8,42.32,71.27l3.81.71.52,2.14c.2.74.43,1.47.64,2.21l1.3,4.42,1.53,4.36,1.45,3.64a5,5,0,1,0,9.18-3.94l-1.51-3.27-1.63-4-1.43-4-.38-1.08c23.71-1.84,52-22.19,57.37-52a85,85,0,0,0,1.29-11.87c.06-1.59.09-3.18.07-4.77S297.41,458.69,297.32,457.1Z"/><ellipse class="bfd0705c-21d4-4508-8b28-9a5bd0b1ca9c" cx="388.43" cy="115.82" rx="43.39" ry="30.26" transform="translate(48.26 336.22) rotate(-49.54)"/><ellipse class="bfd0705c-21d4-4508-8b28-9a5bd0b1ca9c" cx="428.74" cy="169.98" rx="25.76" ry="19.51" transform="translate(-10.1 311.86) rotate(-39.54)"/><ellipse class="bfd0705c-21d4-4508-8b28-9a5bd0b1ca9c" cx="447.75" cy="216.53" rx="20.81" ry="15.75" transform="translate(-48.55 248.93) rotate(-29.54)"/><ellipse class="bfd0705c-21d4-4508-8b28-9a5bd0b1ca9c" cx="449.11" cy="261.28" rx="17.76" ry="13.44" transform="translate(-61.53 165.28) rotate(-19.54)"/><ellipse class="bfd0705c-21d4-4508-8b28-9a5bd0b1ca9c" cx="439.28" cy="300.41" rx="15.45" ry="11.7" transform="translate(-43.73 76.98) rotate(-9.54)"/><path class="bfd0705c-21d4-4508-8b28-9a5bd0b1ca9c" d="M305.84,411.68a2.34,2.34,0,0,0,3.18.3c12.48-9.6,88.65-71,95.64-144.74,4.54-47.93-36.54-91-69.64-97.56l-9.2-.92c-36-.31-82.17,34.6-86.73,82.79C232.1,325.3,295.39,399.91,305.84,411.68Z"/><path class="bd406c3a-7546-4e3d-8cb0-023e68ae59cd" d="M404.66,267.24c4.54-47.93-36.54-91-69.64-97.56l-9.2-.92,13.4,79.75c1.33.27-19.32,90.32-18,90.71l-14.53,73.07a2.64,2.64,0,0,1-.44-.23A2.33,2.33,0,0,0,309,412C321.5,402.38,397.67,341,404.66,267.24Z"/><path class="e6adfab6-921d-496a-974b-93c69cb98cc1" d="M342.66,223.14c-.09-2.4-.12-4.81-.26-7.22l-.49-7.22c-.06-1.2-.2-2.4-.32-3.6l-.38-3.61-.38-3.6c-.15-1.2-.34-2.4-.5-3.6-.36-2.39-.67-4.8-1.07-7.18-.9-4.77-1.71-9.56-2.9-14.28-1-4.76-2.42-9.42-3.72-14.12-.26-.86-.54-1.7-.82-2.55h0A7.11,7.11,0,0,0,318,158.39a7.21,7.21,0,0,0,.25,1.87c.38,1,.75,1.91,1.1,2.87,1.45,4.33,3,8.63,4.21,13.05,1.36,4.38,2.37,8.86,3.47,13.33.51,2.24.92,4.5,1.39,6.76.22,1.13.46,2.25.67,3.39l.54,3.41.55,3.42c.18,1.13.37,2.27.5,3.42l.84,6.88c.26,2.3.42,4.61.63,6.91.09,1.16.22,2.31.28,3.47l.19,3.47c.31,4.62.36,9.27.45,13.91l0,7c0,2.33-.15,4.65-.21,7q-.58,14-2.37,27.88T325.64,314c-1,4.58-2.06,9.14-3.27,13.66-1,3.87-2.13,7.77-3.36,11.55a2.06,2.06,0,0,0,3.88,1.4c1.49-3.86,2.8-7.7,4.07-11.6,1.48-4.53,2.83-9.09,4.08-13.69q3.75-13.78,6.36-27.87t4-28.39c.2-2.39.46-4.77.61-7.16l.45-7.18c.17-4.79.37-9.59.32-14.4v-3.61C342.76,225.55,342.69,224.35,342.66,223.14Z"/><path class="bfd0705c-21d4-4508-8b28-9a5bd0b1ca9c" d="M224.62,331a1.62,1.62,0,0,0-2.17-.39c-9.15,5.88-65.21,43.76-74.31,94.17C142.23,457.53,168,489.56,190.46,496l6.28,1.17c24.8,2.3,58.63-19.07,64.57-52C270.42,394.79,231.14,339.71,224.62,331Z"/><path class="e6adfab6-921d-496a-974b-93c69cb98cc1" d="M210.62,378.22a1.29,1.29,0,0,1,.63,1.67c-1,2.3-1.86,4.69-2.71,7.06-1,2.76-1.91,5.56-2.77,8.37q-2.58,8.44-4.43,17.06t-3,17.32c-.16,1.46-.36,2.91-.5,4.36l-.4,4.36c-.19,2.92-.4,5.82-.45,8.74l-.07,2.18c0,.73,0,1.45,0,2.18,0,1.46,0,2.91,0,4.36l.16,4.35c0,.73.08,1.45.13,2.17l.17,2.17.16,2.16c.07.72.16,1.44.24,2.16.17,1.44.31,2.87.51,4.3.45,2.86.84,5.71,1.46,8.52s1.27,5.61,2,8.4c.37,1.38.82,2.75,1.22,4.12l.62,2.06c.22.68.47,1.35.7,2l1.44,4,1.63,4,1.51,3.26a5,5,0,0,1-2.39,6.61h0a5,5,0,0,1-6.79-2.67l-1.45-3.63-1.53-4.36-1.3-4.42c-.21-.74-.44-1.48-.64-2.22l-.54-2.23c-.35-1.5-.74-3-1.06-4.48-.57-3-1.21-6-1.59-9s-.74-6.05-1-9.08c-.13-1.52-.19-3-.29-4.56,0-.75-.1-1.51-.13-2.27l0-2.28,0-2.27c0-.76,0-1.52,0-2.28l.07-4.54c0-1.52.15-3,.22-4.54,0-.75.07-1.51.13-2.26l.19-2.26c.22-3,.6-6,1-9l.66-4.47c.22-1.49.51-3,.76-4.45q1.62-8.88,4-17.56t5.45-17.11c1-2.81,2.11-5.6,3.28-8.35,1-2.38,2-4.71,3.16-7.05a1.28,1.28,0,0,1,1.72-.59Z"/><path class="f426a38b-6818-4098-8041-e2df1a8ed1dc" d="M209.79,380c.92.34-18.55,61.2-17.64,61.46l4.59,55.73c24.8,2.3,58.63-19.07,64.57-52,9.11-50.41-30.17-105.49-36.69-114.21a1.43,1.43,0,0,0-.57-.47Z"/><rect class="b8993ce0-0f55-47ed-95a7-9c7f31cd297f" width="600" height="600"/></svg>