<svg id="Contenido" xmlns="http://www.w3.org/2000/svg" xmlns:xlink="http://www.w3.org/1999/xlink" viewBox="0 0 600 600"><defs><style>.cls-1{fill:url(#Degradado_sin_nombre_17);}.cls-2{fill:#004481;}.cls-3{fill:url(#Degradado_sin_nombre_444);}.cls-4{fill:#072146;}.cls-5{fill:#fff;}.cls-6{fill:#d72544;}.cls-7{fill:none;}</style><linearGradient id="Degradado_sin_nombre_17" x1="254.1" y1="182.27" x2="433.13" y2="518.98" gradientUnits="userSpaceOnUse"><stop offset="0" stop-color="#192647" stop-opacity="0.5"/><stop offset="1" stop-color="#192647" stop-opacity="0"/></linearGradient><linearGradient id="Degradado_sin_nombre_444" x1="461" y1="316.55" x2="222.36" y2="316.55" gradientTransform="matrix(1, 0, 0, -1, 0, 600.55)" gradientUnits="userSpaceOnUse"><stop offset="0" stop-color="#072146"/><stop offset="1" stop-color="#072146" stop-opacity="0"/></linearGradient></defs><title>error_account-dark</title><path class="cls-1" d="M537.74,459.31l-22.8-39.55V248.81a23,23,0,0,0-23-23h-314a23,23,0,0,0-23,23v171a23,23,0,0,0,23,23H401.1l-9.46,16.4a3.48,3.48,0,0,0,1.3,4.8,3.37,3.37,0,0,0,1.7.5h140.1a3.54,3.54,0,0,0,3.5-3.5A3.37,3.37,0,0,0,537.74,459.31Z"/><rect class="cls-2" x="101" y="175.5" width="360" height="217" rx="23"/><path class="cls-3" d="M438,392.5a23,23,0,0,0,23-23v-171a23,23,0,0,0-23-23H337.77l-115.41,217Z"/><rect class="cls-4" x="101" y="206.37" width="360" height="35.28"/><rect class="cls-5" x="153.94" y="309.58" width="254.12" height="31.76" rx="3"/><path class="cls-6" d="M407.7,287.59l-70,121.3a3.48,3.48,0,0,0,1.3,4.8,3.37,3.37,0,0,0,1.7.5H480.8a3.54,3.54,0,0,0,3.5-3.5,3.37,3.37,0,0,0-.5-1.7l-70-121.4a3.48,3.48,0,0,0-4.8-1.3A4,4,0,0,0,407.7,287.59Z"/><path class="cls-5" d="M410.2,372.59a5.8,5.8,0,0,1-5.8-5.8v-33.9a5.8,5.8,0,0,1,11.6,0v33.9A5.8,5.8,0,0,1,410.2,372.59Z"/><path class="cls-5" d="M410.2,391.19a3.75,3.75,0,0,1-1.1-.1l-1.1-.3a3.13,3.13,0,0,1-1-.5c-.3-.2-.6-.5-.9-.7a5.83,5.83,0,0,1-1.7-4.1,3.75,3.75,0,0,1,.1-1.1c.1-.4.2-.7.3-1.1a3.13,3.13,0,0,1,.5-1c.2-.3.5-.6.7-.9a5.5,5.5,0,0,1,.9-.7,4.67,4.67,0,0,1,1-.5,4.51,4.51,0,0,1,1.1-.3,5.82,5.82,0,0,1,5.3,1.6,5.5,5.5,0,0,1,.7.9,4.67,4.67,0,0,1,.5,1,6.4,6.4,0,0,1,.4,2.2,5.83,5.83,0,0,1-1.7,4.1A6.16,6.16,0,0,1,410.2,391.19Z"/><rect class="cls-7" width="600" height="600"/></svg>