<svg xmlns="http://www.w3.org/2000/svg" xmlns:xlink="http://www.w3.org/1999/xlink" viewBox="0 0 600 600"><defs><style>.cls-1{fill:none;}.cls-2{fill:url(#Degradado_sin_nombre_7);}.cls-3{fill:#043263;}.cls-4{fill:#02a5a5;}.cls-5{fill:#028484;}.cls-6{fill:#072146;}.cls-7{fill:#56e2de;}.cls-8{fill:#2dcccd;}.cls-9{fill:#004481;}.cls-10{fill:url(#Degradado_sin_nombre_463);}.cls-11{fill:#fff;}</style><linearGradient id="Degradado_sin_nombre_7" x1="256.21" y1="-4324.16" x2="450.24" y2="-4689.08" gradientTransform="matrix(1, 0, 0, -1, 0, -4134)" gradientUnits="userSpaceOnUse"><stop offset="0" stop-color="#192647" stop-opacity="0.5"/><stop offset="1" stop-color="#192647" stop-opacity="0"/></linearGradient><linearGradient id="Degradado_sin_nombre_463" x1="443.5" y1="-4536.77" x2="253.26" y2="-4536.77" gradientTransform="matrix(1, 0, 0, -1, 0, -4134)" gradientUnits="userSpaceOnUse"><stop offset="0" stop-color="#072146"/><stop offset="1" stop-color="#072146" stop-opacity="0"/></linearGradient></defs><title>13</title><g id="Cuadrados_Blancos" data-name="Cuadrados Blancos"><rect class="cls-1" width="600" height="600"/></g><g id="Capa_22" data-name="Capa 22"><g id="Contenido"><path class="cls-2" d="M448,319c32.64-19.7,43.36-23.36,81.5-35.24l.44.32a.81.81,0,0,0-.08-.43h.08l-.1-.09c-9.19-51.12-83.55-112.86-174.79-115V155.62a5,5,0,0,0-10,0v12.87c-91.24,2.19-165.6,63.93-174.79,115.05l-.1.09h.08a3.58,3.58,0,0,1-.08.43l.44-.32c38.14,11.88,48.86,15.54,81.5,35.24,32.67-2.18,61.88.47,93,7.39v41H224.79a18.27,18.27,0,0,0-18.28,18.28V521.09a18.29,18.29,0,0,0,18.28,18.29H475.23a18.19,18.19,0,0,0,12.65-5.11l.27-.24.24-.27a18.09,18.09,0,0,0,5.12-12.62V385.61A18.11,18.11,0,0,0,488.39,373l-.24-.27-.27-.24a18.25,18.25,0,0,0-12.65-5.1H355v-41C386.08,319.48,415.29,316.83,448,319Z"/><path class="cls-3" d="M300,135.8a5,5,0,0,1-5-5V105a5,5,0,0,1,10,0v25.8A5,5,0,0,1,300,135.8Z"/><path class="cls-4" d="M120.11,233c38.5,12,49.17,15.6,81.94,35.38l97.95-137C235.62,142.36,176.4,180.08,120.11,233Z"/><path class="cls-5" d="M202.05,268.39c34.42-2.3,65,.75,97.95,8.52V131.38C257,174.05,222.68,219.23,202.05,268.39Z"/><path class="cls-4" d="M479.89,233c-38.5,12-49.17,15.6-81.94,35.38L300,131.38C364.38,142.36,423.6,180.08,479.89,233Z"/><path class="cls-5" d="M398,268.39c-34.42-2.3-65,.75-97.95,8.52V131.38C341,174.15,374.62,219.46,398,268.39Z"/><rect class="cls-6" x="295" y="175.63" width="10" height="224.38"/><path class="cls-7" d="M300,117.8c-93.84,0-171,63.51-179.89,115.66,23.92-17.22,53.79-27.3,89.94-27.64h0Q226.68,153.09,300,117.8Z"/><path class="cls-7" d="M300,117.8c93.84,0,171,63.51,179.89,115.66C456,216.24,426.1,206.16,390,205.82h0Q373.32,153.09,300,117.8Z"/><path class="cls-8" d="M390,205.82q-16.63-52.73-89.95-88h0q-73.32,35.3-90,88c36-10.32,58.77-12.46,90-7.12h0C331.18,193.36,353.93,195.5,390,205.82Z"/><rect class="cls-9" x="156.5" y="316.75" width="287" height="172" rx="18.28"/><path class="cls-10" d="M425.16,488.75a18.27,18.27,0,0,0,18.34-18.22h0V335a18.27,18.27,0,0,0-18.33-18.23H345.26l-92,172Z"/><rect class="cls-6" x="156.5" y="341.22" width="287" height="27.97"/><rect class="cls-11" x="198.71" y="423.03" width="202.59" height="25.17" rx="2.38"/></g></g></svg>