<svg xmlns="http://www.w3.org/2000/svg" xmlns:xlink="http://www.w3.org/1999/xlink" viewBox="0 0 600 600"><defs><style>.cls-1{fill:none;}.cls-2{fill:url(#Degradado_sin_nombre_86);}.cls-3{fill:#2dcccd;}.cls-4{fill:url(#Degradado_sin_nombre_467);}.cls-5{fill:#028484;opacity:0.8;isolation:isolate;}.cls-6{fill:#fff;}.cls-7{fill:#043263;}.cls-8{fill:url(#Degradado_sin_nombre_465);}</style><linearGradient id="Degradado_sin_nombre_86" x1="252.87" y1="184.37" x2="430.45" y2="518.35" gradientUnits="userSpaceOnUse"><stop offset="0" stop-color="#192647" stop-opacity="0.5"/><stop offset="1" stop-color="#192647" stop-opacity="0"/></linearGradient><linearGradient id="Degradado_sin_nombre_467" x1="480" y1="-4434" x2="241.36" y2="-4434" gradientTransform="matrix(1, 0, 0, -1, 0, -4134)" gradientUnits="userSpaceOnUse"><stop offset="0" stop-color="#028484"/><stop offset="1" stop-color="#028484" stop-opacity="0"/></linearGradient><linearGradient id="Degradado_sin_nombre_465" x1="517.24" y1="-4513.28" x2="385.84" y2="-4513.28" gradientTransform="matrix(1, 0, 0, -1, 0, -4132)" gradientUnits="userSpaceOnUse"><stop offset="0" stop-color="#072146"/><stop offset="1" stop-color="#072146" stop-opacity="0"/></linearGradient></defs><title>13</title><g id="Cuadrados_Blancos" data-name="Cuadrados Blancos"><rect class="cls-1" width="600" height="600"/></g><g id="Capa_21" data-name="Capa 21"><path class="cls-2" d="M550.9,389c-.2-15.9-5.6-30.6-15.5-41.4-.58-.64-1.18-1.25-1.8-1.86s-1.07-1-1.63-1.53l-.24-.22c-.58-.52-1.18-1-1.78-1.52l-.16-.13c-.64-.52-1.28-1-1.94-1.5l-.06,0a52.6,52.6,0,0,0-14.29-7.44V250.5a23,23,0,0,0-23-23h-314a23,23,0,0,0-23,23v171a23,23,0,0,0,23,23H382.44c11.11,11.75,25.33,23.94,41.36,37.6,6.7,5.7,14.2,12.2,22.2,19.1a11.29,11.29,0,0,0,15,0c7.9-6.9,15.5-13.4,22.2-19.1,19.6-16.7,36.6-31.1,48.3-45.4a97.46,97.46,0,0,0,12-17.82A63.91,63.91,0,0,0,550.9,389Z"/><rect class="cls-3" x="120" y="191.5" width="360" height="217" rx="23"/><path class="cls-4" d="M457,408.5a23,23,0,0,0,23-23v-171a23,23,0,0,0-23-23H356.77l-115.41,217Z"/><rect class="cls-5" x="120" y="222.37" width="360" height="35.28"/><rect class="cls-6" x="172.94" y="325.58" width="254.12" height="31.76" rx="3"/><path class="cls-7" d="M501.9,311.6a52.46,52.46,0,0,0-38.9-17,49.73,49.73,0,0,0-30.6,10.5,61.26,61.26,0,0,0-12.4,13,61.15,61.15,0,0,0-12.4-13A48.33,48.33,0,0,0,377,294.6a51.94,51.94,0,0,0-38.9,17c-10,10.8-15.4,25.6-15.4,41.6,0,16.4,6.1,31.6,19.3,47.5,11.8,14.2,28.7,28.7,48.3,45.4,6.7,5.7,14.2,12.2,22.2,19.1a11.29,11.29,0,0,0,15,0c7.9-6.9,15.5-13.4,22.2-19.1,19.6-16.7,36.6-31.1,48.3-45.4,13.2-15.9,19.3-31,19.3-47.5C517.2,337.1,511.8,322.4,501.9,311.6Z"/><path class="cls-8" d="M501.9,311.6a52.71,52.71,0,0,0-35.8-16.9L386,442.2l4.4,3.7c6.7,5.7,14.2,12.2,22.2,19.1a11.29,11.29,0,0,0,15,0c7.9-6.9,15.5-13.4,22.2-19.1,19.6-16.7,36.6-31.1,48.3-45.4,13.2-15.9,19.3-31,19.3-47.5C517.2,337.1,511.8,322.4,501.9,311.6Z"/></g></svg>