<svg id="Contenido" xmlns="http://www.w3.org/2000/svg" xmlns:xlink="http://www.w3.org/1999/xlink" viewBox="0 0 600 600"><defs><style>.cls-1{fill:url(#Degradado_sin_nombre);}.cls-2{fill:#004481;}.cls-3{fill:url(#Degradado_sin_nombre_87);}.cls-4{fill:#072146;}.cls-5{fill:#fff;}.cls-6{fill:#2dcccd;}.cls-7{fill:none;}</style><linearGradient id="Degradado_sin_nombre" x1="256.46" y1="441.77" x2="418.15" y2="137.68" gradientTransform="matrix(1, 0, 0, -1, 0, 602)" gradientUnits="userSpaceOnUse"><stop offset="0" stop-color="#192647" stop-opacity="0.5"/><stop offset="1" stop-color="#192647" stop-opacity="0"/></linearGradient><linearGradient id="Degradado_sin_nombre_87" x1="441" y1="2243.77" x2="202.36" y2="2243.77" gradientTransform="translate(0 -1959.77)" gradientUnits="userSpaceOnUse"><stop offset="0" stop-color="#072146" stop-opacity="0.8"/><stop offset="1" stop-color="#072146" stop-opacity="0"/></linearGradient></defs><title>qr card</title><path class="cls-1" d="M522.65,192.12H386.38A29.71,29.71,0,0,0,356.7,220H149.79a23,23,0,0,0-23,23V414a23,23,0,0,0,23,23h314a23,23,0,0,0,23-23V251.59h35.86a29.74,29.74,0,1,0,1.09-59.47Z"/><rect class="cls-2" x="81" y="175.5" width="360" height="217" rx="23"/><path class="cls-3" d="M418,392.5a23,23,0,0,0,23-23h0v-171a23,23,0,0,0-23-23H317.77l-115.41,217Z"/><rect class="cls-4" x="81" y="206.37" width="360" height="35.28"/><rect class="cls-5" x="133.94" y="309.58" width="254.12" height="31.76" rx="3"/><path class="cls-6" d="M476.86,147.57H340.59a29.75,29.75,0,0,0-29.74,29.74h0a29.73,29.73,0,0,0,29.72,29.74H476.86a29.73,29.73,0,0,0,29.74-29.72v0h0A29.75,29.75,0,0,0,476.86,147.57Z"/><polygon class="cls-5" points="364.47 179.56 356.12 179.01 360.89 185.84 356.64 188.39 352.98 180.82 349.4 188.39 345.15 185.84 349.84 179.01 341.49 179.56 341.49 174.81 349.89 175.41 345.15 168.53 349.4 165.99 352.98 173.53 356.58 165.99 360.89 168.53 356.12 175.41 364.47 174.81 364.47 179.56"/><polygon class="cls-5" points="401.31 179.56 392.96 179.01 397.73 185.84 393.47 188.39 389.82 180.82 386.24 188.39 381.98 185.84 386.68 179.01 378.33 179.56 378.33 174.81 386.73 175.41 381.98 168.53 386.24 165.99 389.82 173.53 393.43 165.99 397.73 168.53 392.96 175.41 401.31 174.81 401.31 179.56"/><polygon class="cls-5" points="438.15 179.56 429.79 179.01 434.56 185.84 430.31 188.39 426.66 180.82 423.07 188.39 418.82 185.84 423.52 179.01 415.17 179.56 415.17 174.81 423.57 175.41 418.82 168.53 423.07 165.99 426.66 173.53 430.27 165.99 434.56 168.53 429.79 175.41 438.15 174.81 438.15 179.56"/><polygon class="cls-5" points="474.98 179.56 466.63 179.01 471.4 185.84 467.15 188.39 463.49 180.82 459.91 188.39 455.66 185.84 460.35 179.01 452 179.56 452 174.81 460.4 175.41 455.66 168.53 459.91 165.99 463.49 173.53 467.11 165.99 471.4 168.53 466.63 175.41 474.98 174.81 474.98 179.56"/><rect class="cls-7" width="600" height="600"/></svg>