<svg id="Contenido" xmlns="http://www.w3.org/2000/svg" xmlns:xlink="http://www.w3.org/1999/xlink" viewBox="0 0 600 600"><defs><style>.cls-1{fill:url(#Degradado_sin_nombre_47);}.cls-2{fill:#2dcccd;}.cls-3{fill:url(#Degradado_sin_nombre_68);}.cls-4{fill:url(#Degradado_sin_nombre_68-2);}.cls-5{fill:#f1873e;}.cls-6{fill:url(#Degradado_sin_nombre_99);}.cls-7{fill:#d8722c;}</style><linearGradient id="Degradado_sin_nombre_47" x1="288.66" y1="155.81" x2="459.75" y2="477.59" gradientUnits="userSpaceOnUse"><stop offset="0" stop-color="#1a2746" stop-opacity="0.5"/><stop offset="1" stop-color="#1a2746" stop-opacity="0"/></linearGradient><linearGradient id="Degradado_sin_nombre_68" x1="379.06" y1="129.69" x2="301.01" y2="122.86" gradientUnits="userSpaceOnUse"><stop offset="0" stop-color="#028484" stop-opacity="0.5"/><stop offset="1" stop-color="#028484" stop-opacity="0"/></linearGradient><linearGradient id="Degradado_sin_nombre_68-2" x1="243.11" y1="142.22" x2="308.2" y2="136.53" gradientTransform="matrix(-1, 0, 0, 1, 540.08, 0)" xlink:href="#Degradado_sin_nombre_68"/><linearGradient id="Degradado_sin_nombre_99" x1="357.14" y1="345.67" x2="261.62" y2="345.67" gradientUnits="userSpaceOnUse"><stop offset="0" stop-color="#c36828" stop-opacity="0.2"/><stop offset="1" stop-color="#c16728" stop-opacity="0"/></linearGradient></defs><title>values-day</title><path class="cls-1" d="M432,133.93c0-1.47-.79-2.2-2.53-2.2-80.36.8-83.9,65.87-83.35,83.83l-.57,0h0l-.64,0c.13-14.33-4-57.38-59-57.93-1.23,0-1.77.52-1.79,1.56-1.22,42.35,24,55.45,42.29,59.4a61.46,61.46,0,0,0-41.25,69.74l44,234.22a16.64,16.64,0,0,0,32.71,0l44-234.22A61.47,61.47,0,0,0,366.05,219C391.9,215.09,433.86,198.73,432,133.93Z"/><path class="cls-2" d="M382.14,83.93c0-1.47-.79-2.2-2.53-2.2-85.52.85-84,74.51-83.21,86.68a1.91,1.91,0,0,0,1.85,1.79C310.51,170.61,384.61,169.57,382.14,83.93Z"/><path class="cls-3" d="M381.56,82.32,296.92,169.6a1.94,1.94,0,0,0,1.33.6c12.26.41,86.36-.63,83.89-86.27A2.18,2.18,0,0,0,381.56,82.32Z"/><path class="cls-2" d="M234.28,109.19c0-1,.55-1.55,1.78-1.56,60.5.61,59.45,52.71,58.86,61.32a1.35,1.35,0,0,1-1.31,1.26C284.94,170.5,232.52,169.77,234.28,109.19Z"/><path class="cls-4" d="M234.69,108.05l59.86,61.73a1.36,1.36,0,0,1-.94.43c-8.67.29-61.09-.44-59.33-61A1.51,1.51,0,0,1,234.69,108.05Z"/><path class="cls-5" d="M295.69,486.11h0a16.63,16.63,0,0,1-16.35-13.56l-44-234.22a61.44,61.44,0,0,1,60.38-72.79h0a61.44,61.44,0,0,1,60.38,72.79L312,472.55A16.64,16.64,0,0,1,295.69,486.11Z"/><path class="cls-6" d="M261.62,378.28l17.72,94.27a16.64,16.64,0,0,0,32.7,0l44-234.22a61,61,0,0,0-2.91-33.11Z"/><path class="cls-7" d="M276.15,240.7a5,5,0,0,0-5-5H234.58c.12.87.25,1.75.41,2.63l1.39,7.37h34.77A5,5,0,0,0,276.15,240.7Z"/><path class="cls-7" d="M264.33,290.7a5,5,0,0,0-5-5H243.9l1.88,10h13.55A5,5,0,0,0,264.33,290.7Z"/><path class="cls-7" d="M301.41,326.17a5,5,0,0,0,5,5H338.3l1.88-10H306.41A5,5,0,0,0,301.41,326.17Z"/><path class="cls-7" d="M338,257.65a5,5,0,0,0,0,10h12.24l1.88-10Z"/><path class="cls-7" d="M309.06,402a5,5,0,0,0,5,5h10l1.88-10H314.06A5,5,0,0,0,309.06,402Z"/><path class="cls-7" d="M299.68,370.7a5,5,0,0,0-5-5H258.94l1.88,10h33.86A5,5,0,0,0,299.68,370.7Z"/></svg>