<svg id="Contenido" xmlns="http://www.w3.org/2000/svg" xmlns:xlink="http://www.w3.org/1999/xlink" viewBox="0 0 600 600"><defs><style>.cls-1{fill:url(#Degradado_sin_nombre_2);}.cls-2{fill:#1464a5;}.cls-3{fill:url(#Degradado_sin_nombre_81);}.cls-4{fill:#2dcccd;}.cls-5{fill:#49a5e6;}.cls-6{fill:#028484;}.cls-7{fill:#004580;}.cls-8{fill:#f8cd50;}.cls-9{fill:url(#Degradado_sin_nombre_7);}.cls-10{fill:#043263;}.cls-11{fill:url(#Degradado_sin_nombre_7-2);}.cls-12{fill:url(#Degradado_sin_nombre_7-3);}.cls-13{fill:#f6cb5c;}.cls-14{fill:#fdf4dc;}.cls-15{fill:url(#Degradado_sin_nombre_14);}.cls-16{fill:#eaf9fa;}.cls-17{fill:url(#Degradado_sin_nombre_81-2);}</style><linearGradient id="Degradado_sin_nombre_2" x1="237.93" y1="173.18" x2="414.88" y2="505.97" gradientUnits="userSpaceOnUse"><stop offset="0" stop-color="#192647"/><stop offset="0" stop-color="#192647" stop-opacity="0.5"/><stop offset="1" stop-color="#192647" stop-opacity="0"/></linearGradient><linearGradient id="Degradado_sin_nombre_81" x1="395.73" y1="265.5" x2="248.8" y2="265.5" gradientUnits="userSpaceOnUse"><stop offset="0" stop-color="#043263" stop-opacity="0.4"/><stop offset="1" stop-color="#043263" stop-opacity="0.1"/></linearGradient><linearGradient id="Degradado_sin_nombre_7" x1="177.2" y1="140" x2="209.46" y2="157.15" gradientUnits="userSpaceOnUse"><stop offset="0.01" stop-color="#fff" stop-opacity="0.5"/><stop offset="1" stop-color="#fff" stop-opacity="0.1"/></linearGradient><linearGradient id="Degradado_sin_nombre_7-2" x1="173.71" y1="226.82" x2="207.33" y2="244.69" xlink:href="#Degradado_sin_nombre_7"/><linearGradient id="Degradado_sin_nombre_7-3" x1="240.19" y1="309" x2="247.61" y2="312.95" xlink:href="#Degradado_sin_nombre_7"/><linearGradient id="Degradado_sin_nombre_14" x1="351.59" y1="157.52" x2="396.08" y2="181.18" gradientUnits="userSpaceOnUse"><stop offset="0" stop-color="#fff" stop-opacity="0.6"/><stop offset="1" stop-color="#fff" stop-opacity="0.2"/></linearGradient><linearGradient id="Degradado_sin_nombre_81-2" x1="126" y1="390" x2="281.95" y2="390" xlink:href="#Degradado_sin_nombre_81"/></defs><title>caja_registradora</title><path class="cls-1" d="M446,400V281a50,50,0,1,0-50-50H271.21V221h25.5a10,10,0,0,0,10-10V191a10,10,0,0,0-10-10h-71a10,10,0,0,0-10,10v20a10,10,0,0,0,10,10h25.5v10h-41.8A23.45,23.45,0,0,0,186,254.46V400H169a3,3,0,0,0-3,3v74a3,3,0,0,0,3,3H463a3,3,0,0,0,3-3V403a3,3,0,0,0-3-3H446Z"/><path class="cls-2" d="M159.18,181h213.1a23.45,23.45,0,0,1,23.45,23.45V350a0,0,0,0,1,0,0h-260a0,0,0,0,1,0,0V204.45A23.45,23.45,0,0,1,159.18,181Z"/><path class="cls-3" d="M395.73,204.45A23.45,23.45,0,0,0,372.28,181H338.66L248.8,350H395.73Z"/><rect class="cls-4" x="165.48" y="131" width="91" height="40" rx="10" ry="10"/><rect class="cls-5" x="175.48" y="141" width="71" height="20" rx="3" ry="3"/><rect class="cls-6" x="200.98" y="171" width="20" height="10"/><rect class="cls-7" x="115.73" y="350" width="300" height="80" rx="3" ry="3"/><rect class="cls-4" x="165.73" y="280.74" width="14" height="14" rx="3" ry="3"/><rect class="cls-4" x="215.73" y="280.74" width="14" height="14" rx="3" ry="3"/><rect class="cls-4" x="240.73" y="280.74" width="14" height="14" rx="3" ry="3"/><rect class="cls-4" x="165.73" y="305.74" width="14" height="14" rx="3" ry="3"/><rect class="cls-4" x="215.73" y="305.74" width="14" height="14" rx="3" ry="3"/><rect class="cls-4" x="190.73" y="280.74" width="14" height="14" rx="3" ry="3"/><rect class="cls-4" x="190.73" y="305.74" width="14" height="14" rx="3" ry="3"/><rect class="cls-8" x="240.73" y="305.74" width="14" height="14" rx="3" ry="3"/><path class="cls-9" d="M178.48,141a3,3,0,0,0-3,3v14a3,3,0,0,0,3,3h28.93L218,141Z"/><rect class="cls-10" x="296.23" y="240.51" width="50" height="10" rx="1.6" ry="1.6"/><rect class="cls-10" x="165.73" y="210.77" width="89" height="59" rx="8.22" ry="8.22"/><rect class="cls-5" x="175.73" y="220.77" width="69" height="39" rx="3" ry="3"/><path class="cls-4" d="M355.73,246.25v10.52a3,3,0,0,1-3,3h-63a3,3,0,0,1-3-3V246.25a7,7,0,0,0-7-7h0a3,3,0,0,0-3,3v19.52a8,8,0,0,0,8,8h73a8,8,0,0,0,8-8V242.25a3,3,0,0,0-3-3h0A7,7,0,0,0,355.73,246.25Z"/><path class="cls-11" d="M178.73,220.77a3,3,0,0,0-3,3v33a3,3,0,0,0,3,3h20.59l20.74-39Z"/><path class="cls-12" d="M243.73,305.74a3,3,0,0,0-3,3v8a3,3,0,0,0,3,3H244l7.44-14Z"/><path class="cls-13" d="M445.73,181a50,50,0,1,1-50-50h0a50,50,0,0,1,50,50"/><path class="cls-14" d="M396.53,205.09c-9.38,0-15.68-5.76-17.76-16.23h-7.53v-5.59h6.87c-.06-.78-.06-1.57-.06-2.33v-1.57h-6.81v-5.51h7.45c1.94-10.55,8.57-16.85,17.76-16.85,7.81,0,13.17,3.47,15.94,10.3l.06.16-6.85,3.87-.07-.22c-1.61-4.83-4.41-7-9.08-7-5.18,0-8.59,3.36-9.87,9.72H398.1v5.51H386v1.42c0,.84,0,1.7.06,2.49h12.1v5.59H386.74c1.34,6.23,4.57,9.26,9.86,9.26,4.83,0,7.61-2.2,9.3-7.37l.08-.23,6.7,4-.07.15A16.82,16.82,0,0,1,396.53,205.09Z"/><path class="cls-15" d="M395.69,131a50,50,0,0,0-23.07,94.29l46.66-88.4A49.85,49.85,0,0,0,395.69,131Z"/><path class="cls-16" d="M330.32,288.87l2.37-2.37a1.23,1.23,0,0,1,1.74,0l2.37,2.37a1.23,1.23,0,0,0,1.74,0l2.88-2.88a1.23,1.23,0,0,0,.36-.87V245.51H300.67v39.61a1.23,1.23,0,0,0,.36.87l2.88,2.88a1.23,1.23,0,0,0,1.74,0L308,286.5a1.23,1.23,0,0,1,1.74,0l2.37,2.37a1.23,1.23,0,0,0,1.74,0l2.37-2.37a1.23,1.23,0,0,1,1.74,0l2.37,2.37a1.23,1.23,0,0,0,1.74,0l2.37-2.37a1.23,1.23,0,0,1,1.74,0l2.37,2.37A1.23,1.23,0,0,0,330.32,288.87Z"/><rect class="cls-2" x="126" y="360" width="280" height="60" rx="3" ry="3"/><path class="cls-17" d="M129,360a3,3,0,0,0-3,3v54a3,3,0,0,0,3,3H250L282,360Z"/><rect class="cls-8" x="231" y="385" width="70" height="10" rx="5" ry="5"/></svg>