<?xml version="1.0" encoding="utf-8"?>
<!-- Generator: Adobe Illustrator 23.0.1, SVG Export Plug-In . SVG Version: 6.00 Build 0)  -->
<svg version="1.1" id="Capa_1" xmlns="http://www.w3.org/2000/svg" xmlns:xlink="http://www.w3.org/1999/xlink" x="0px" y="0px"
	 viewBox="0 0 600 600" style="enable-background:new 0 0 600 600;" xml:space="preserve">
<style type="text/css">
	.st0{fill:url(#SVGID_1_);}
	.st1{fill:#02A5A5;}
	.st2{fill:#5AC4C4;}
	.st3{fill:#EAF9FA;}
	.st4{fill:url(#SVGID_2_);}
	.st5{fill:#004481;}
	.st6{opacity:0.5;fill:url(#SVGID_3_);enable-background:new    ;}
	.st7{fill-rule:evenodd;clip-rule:evenodd;fill:#EAF9FA;}
</style>
<title>Mesa de trabajo 1 copia 13</title>
<linearGradient id="SVGID_1_" gradientUnits="userSpaceOnUse" x1="281.8174" y1="883.5557" x2="453.7983" y2="560.0965" gradientTransform="matrix(1 0 0 -1 0 1102)">
	<stop  offset="0" style="stop-color:#192647"/>
	<stop  offset="0" style="stop-color:#192647;stop-opacity:0.5"/>
	<stop  offset="1" style="stop-color:#192647;stop-opacity:0"/>
</linearGradient>
<path class="st0" d="M573.5,439c0-1,0-2-0.1-3c0-0.2,0-0.5,0-0.8c0-0.9-0.1-1.8-0.2-2.6v-0.4c-0.1-1-0.2-2-0.4-3l-0.1-0.6
	c-0.1-0.8-0.3-1.7-0.5-2.5c0-0.2-0.1-0.3-0.1-0.5c-0.2-1-0.4-1.9-0.7-2.9l-0.1-0.5c-0.2-0.8-0.4-1.6-0.7-2.4
	c-0.1-0.2-0.1-0.4-0.2-0.6c-0.3-0.9-0.6-1.8-0.9-2.7c0-0.1-0.1-0.2-0.1-0.3c-0.3-0.8-0.6-1.6-0.9-2.4l-0.3-0.7
	c-0.3-0.8-0.7-1.6-1.1-2.4l-0.1-0.2c-0.4-0.8-0.8-1.6-1.3-2.5c-0.1-0.2-0.3-0.5-0.4-0.7c-0.3-0.6-0.7-1.3-1.1-1.9L564,405
	c-0.5-0.7-0.9-1.5-1.4-2.2L562,402c-0.3-0.5-0.7-1-1.1-1.5c-0.2-0.3-0.4-0.5-0.6-0.8c-0.5-0.7-1-1.3-1.5-2l-0.7-0.8
	c-0.3-0.4-0.7-0.8-1.1-1.2s-0.5-0.6-0.8-0.9c-0.4-0.5-0.8-0.9-1.3-1.3s-0.8-0.8-1.3-1.2s-0.7-0.7-1-1l-1-1l-0.5-0.5V281.6
	c0-1.5-1.2-2.8-2.8-2.8l0,0H169c-1.5,0-2.8,1.2-2.8,2.8v162.7c0,1.5,1.2,2.8,2.8,2.8h274.4c2.6,21.1,15.4,39.6,34.2,49.6
	c0.6,0.3,1.1,0.6,1.7,0.9l1.2,0.6c0.5,0.2,0.9,0.4,1.3,0.6l1.7,0.7l1.5,0.6c0.4,0.1,0.7,0.3,1.1,0.4c0.7,0.3,1.5,0.5,2.2,0.8l1,0.3
	c0.6,0.2,1.3,0.4,1.9,0.5l0.8,0.2c0.8,0.2,1.7,0.4,2.5,0.6l0.8,0.2c0.9,0.2,1.8,0.3,2.7,0.5l0.5,0.1c0.8,0.1,1.7,0.2,2.5,0.3
	l0.6,0.1c1,0.1,1.9,0.2,2.9,0.2h0.6c1,0,2,0.1,3,0.1l0,0C544.2,504.3,573.5,475.1,573.5,439L573.5,439z"/>
<path class="st1" d="M118,227.9h379.2c1.5,0,2.8,1.2,2.8,2.8v162.7c0,1.5-1.2,2.8-2.8,2.8H118c-1.5,0-2.8-1.2-2.8-2.8V230.6
	C115.2,229.1,116.5,227.9,118,227.9z"/>
<g>
	<path class="st2" d="M363.1,312.4c-0.1,29.6-24.2,53.6-53.8,53.5c-29.6-0.1-53.6-24.2-53.5-53.8c0.1-29.6,24.1-53.5,53.7-53.5
		C339.1,258.6,363.2,282.7,363.1,312.4L363.1,312.4"/>
	<g>
		<path class="st3" d="M289.5,310.2h-8.1V304h8.8c2.4-13.7,11-20,20.9-20c10.4,0,16,5.3,18.8,12.1l-7.7,4.4c-1.9-5.7-5.2-8.5-11-8.5
			c-6.1,0-10.4,3.9-12,12h13.7v6.1h-14.4v1.9c0,1.1,0,2.1,0.1,3.2h14.3v6.2h-13.6c1.6,7.5,5.3,11.5,12,11.5c5.7,0,9.2-2.6,11.3-8.9
			l7.5,4.5c-3.1,7.1-9.5,12.2-18.9,12.2c-10.3,0-18.4-6.1-20.9-19.3h-8.9v-6.2h8.2c-0.1-1-0.1-2-0.1-3L289.5,310.2L289.5,310.2z"/>
	</g>
</g>
<linearGradient id="SVGID_2_" gradientUnits="userSpaceOnUse" x1="500" y1="789.95" x2="299.7" y2="789.95" gradientTransform="matrix(1 0 0 -1 0 1102)">
	<stop  offset="0" style="stop-color:#028484;stop-opacity:0.8"/>
	<stop  offset="1" style="stop-color:#028484;stop-opacity:0"/>
</linearGradient>
<path class="st4" d="M496.1,227.9H387l-87.3,168.3h196.4c2.2,0,3.9-1.7,3.9-3.9l0,0V231.8C500,229.6,498.2,227.9,496.1,227.9z"/>
<path class="st2" d="M450.3,236.3h39c1.5,0,2.8,1.2,2.8,2.8V278c0,1.5-1.2,2.8-2.8,2.8h-13.1c-15.8,0-28.6-12.8-28.6-28.6V239
	C447.5,237.5,448.7,236.3,450.3,236.3z"/>
<path class="st2" d="M492,346.4v39c0,1.5-1.2,2.8-2.8,2.8h-39c-1.5,0-2.8-1.2-2.8-2.8v-13.1c0-15.8,12.8-28.6,28.6-28.6h13.1
	C490.7,343.6,492,344.8,492,346.4z"/>
<path class="st2" d="M164.7,388.1h-39c-1.5,0-2.8-1.2-2.8-2.8v-39c0-1.5,1.2-2.8,2.8-2.8h13.1c15.8,0,28.6,12.8,28.6,28.6v13.1
	C167.5,386.8,166.2,388.1,164.7,388.1z"/>
<path class="st2" d="M123,278v-39c0-1.5,1.2-2.8,2.8-2.8l0,0h38.9c1.5,0,2.8,1.2,2.8,2.8v13.1c0,15.8-12.8,28.6-28.6,28.6h-13.1
	C124.2,280.8,123,279.5,123,278z"/>
<path class="st5" d="M522.5,388c0,36.1-29.3,65.3-65.3,65.3S391.8,424,391.8,388s29.3-65.3,65.3-65.3l0,0
	C493.2,322.7,522.5,351.9,522.5,388"/>
<linearGradient id="SVGID_3_" gradientUnits="userSpaceOnUse" x1="524.0096" y1="668.9431" x2="379.5696" y2="766.9231" gradientTransform="matrix(1 0 0 -1 0 1102)">
	<stop  offset="0" style="stop-color:#043263"/>
	<stop  offset="1" style="stop-color:#043263;stop-opacity:0"/>
</linearGradient>
<path class="st6" d="M426.4,445.6c31.8,17.1,71.4,5.2,88.5-26.6c17.1-31.8,5.2-71.4-26.6-88.5c-0.2-0.1-0.4-0.2-0.6-0.3L426.4,445.6
	z"/>
<path class="st7" d="M481.2,401.9c0-4.9-2.5-8.1-6.6-8.1s-6.7,3.2-6.7,8.1s2.5,8.1,6.7,8.1S481.2,406.8,481.2,401.9 M474.6,406.6
	c-1.6,0-2.3-1.8-2.3-4.8s0.6-4.6,2.3-4.6s2.2,1.7,2.2,4.6S476.2,406.6,474.6,406.6 M464.6,401.9c0-6.8,4-11.3,9.9-11.3
	c1,0,1.9,0.1,2.9,0.4c0.1-1.1,0.1-2.3,0.1-3.5c0-21.4-10.3-35.5-28.2-35.5S421,366.1,421,387.5s10.5,35.5,28.3,35.5
	c9.3,0,16.6-3.8,21.4-10.5C466.9,411,464.6,407.1,464.6,401.9 M449.3,411.3c-8.5,0-13.4-8.1-13.4-23.8s4.6-23.5,13.4-23.5
	c8.5,0,13.4,7.9,13.4,23.5S458,411.2,449.3,411.3 M495.3,403.1c-4.1,0-6.7,3.2-6.7,8.1s2.5,8.1,6.7,8.1s6.7-3.3,6.7-8.1
	S499.5,403.1,495.3,403.1 M495.4,415.9c-1.6,0-2.3-1.7-2.3-4.7s0.6-4.6,2.3-4.6s2.3,1.7,2.3,4.6S497,415.9,495.4,415.9 M490,394.2
	L475.2,419h4.6l14.8-24.8H490z"/>
</svg>
