<svg id="Contenido" xmlns="http://www.w3.org/2000/svg" xmlns:xlink="http://www.w3.org/1999/xlink" viewBox="0 0 600 600"><defs><style>.cls-1{fill:url(#Degradado_sin_nombre_74);}.cls-2{fill:url(#Degradado_sin_nombre_74-2);}.cls-3{fill:#2dcccd;}.cls-4{fill:#028484;}.cls-5{fill:#1464a5;}.cls-6{fill:url(#Degradado_sin_nombre_109);}.cls-7{fill:#f8cd51;}.cls-8{fill:#fff;}.cls-9{fill:url(#Degradado_sin_nombre_3);}.cls-10{fill:none;}</style><linearGradient id="Degradado_sin_nombre_74" x1="264.45" y1="49.39" x2="522.18" y2="534.11" gradientUnits="userSpaceOnUse"><stop offset="0" stop-color="#082146" stop-opacity="0.5"/><stop offset="1" stop-color="#082146" stop-opacity="0"/></linearGradient><linearGradient id="Degradado_sin_nombre_74-2" x1="187.8" y1="92.9" x2="427.78" y2="544.23" xlink:href="#Degradado_sin_nombre_74"/><linearGradient id="Degradado_sin_nombre_109" x1="217.15" y1="281.99" x2="461" y2="281.99" gradientTransform="matrix(1, 0, 0, -1, 0, 620)" gradientUnits="userSpaceOnUse"><stop offset="0" stop-color="#043263" stop-opacity="0"/><stop offset="1" stop-color="#043263" stop-opacity="0.6"/></linearGradient><linearGradient id="Degradado_sin_nombre_3" x1="388.8" y1="422.73" x2="442.55" y2="453.76" gradientUnits="userSpaceOnUse"><stop offset="0" stop-color="#fff" stop-opacity="0.6"/><stop offset="1" stop-color="#fff" stop-opacity="0.2"/></linearGradient></defs><polygon class="cls-1" points="375.52 125.99 262.48 125.99 236.5 151.99 401.5 151.99 375.52 125.99"/><path class="cls-2" d="M487.87,419.8l0,0a60.57,60.57,0,0,0-7.89-3.49V205.9a3.89,3.89,0,0,0-3.89-3.89H401.5V152h-26v50h-113V152h-26v50H161.9a3.89,3.89,0,0,0-3.9,3.89V473.41a3.9,3.9,0,0,0,1.18,2.79l37.94,36.72a3.89,3.89,0,0,0,2.7,1.09H416.28a59.94,59.94,0,0,0,103.47-41.23v0A60,60,0,0,0,487.87,419.8Z"/><rect class="cls-3" x="217.5" y="132.03" width="26" height="50"/><path class="cls-4" d="M382.5,132h0l-26-26h-113l-26,26Z"/><rect class="cls-3" x="356.5" y="132.03" width="26" height="50"/><path class="cls-5" d="M419.18,494H180.82a3.89,3.89,0,0,1-2.7-1.09L140.18,456.2a3.9,3.9,0,0,1-1.18-2.79V185.9a3.89,3.89,0,0,1,3.9-3.89H457.1a3.89,3.89,0,0,1,3.9,3.89V453.41a3.9,3.9,0,0,1-1.18,2.79l-37.94,36.72A3.89,3.89,0,0,1,419.18,494Z"/><path class="cls-6" d="M457.1,182H382.85L217.15,494h202a3.89,3.89,0,0,0,2.7-1.09l37.94-36.72a3.9,3.9,0,0,0,1.18-2.79V185.9A3.89,3.89,0,0,0,457.1,182Z"/><path class="cls-7" d="M500.75,452.78a60,60,0,1,1-60.05-60h0a60,60,0,0,1,60.05,60v0"/><path class="cls-8" d="M419.9,450.52h-8.17v-6.16h8.91c2.48-13.89,11.12-20.23,21.14-20.23,10.57,0,16.17,5.43,18.93,12.23l-7.78,4.41c-1.93-5.79-5.33-8.55-11.13-8.55-6.15,0-10.56,3.95-12.13,12.14h13.88v6.16H429v1.93c0,1.1,0,2.2.09,3.22h14.52v6.25H429.87c1.55,7.63,5.39,11.58,12.13,11.58,5.79,0,9.28-2.57,11.38-9l7.62,4.6c-3.12,7.18-9.58,12.32-19.11,12.32-10.39,0-18.57-6.16-21.15-19.49h-9v-6.25H420c-.1-1-.1-2-.1-3v-2.11Z"/><path class="cls-9" d="M440.7,392.75a59.94,59.94,0,0,0-28.1,112.89l56.29-105.88A59.88,59.88,0,0,0,440.7,392.75Z"/><rect class="cls-10" width="600" height="600"/></svg>