<svg xmlns="http://www.w3.org/2000/svg" xmlns:xlink="http://www.w3.org/1999/xlink" viewBox="0 0 600 600"><defs><style>.cls-1{fill:none;}.cls-2{fill:url(#Degradado_sin_nombre_431);}.cls-3{fill:#004481;}.cls-4{fill:url(#Degradado_sin_nombre_114);}.cls-5{fill:#2dcccd;}.cls-6{fill:#49a5e6;}.cls-7{fill:#028484;}.cls-8{fill:#072146;}.cls-9{fill:#f8cd50;}.cls-10{fill:url(#Degradado_sin_nombre_47);}.cls-11{fill:#043263;}.cls-12{fill:url(#Degradado_sin_nombre_47-2);}.cls-13{fill:url(#Degradado_sin_nombre_47-3);}.cls-14{fill:#f6cb5c;}.cls-15{fill:#fdf4dc;}.cls-16{fill:url(#Degradado_sin_nombre_18);}.cls-17{fill:#eaf9fa;}.cls-18{fill:#1464a5;}.cls-19{fill:url(#Degradado_sin_nombre_13);}</style><linearGradient id="Degradado_sin_nombre_431" x1="238.57" y1="7871.25" x2="434.8" y2="7502.21" gradientTransform="matrix(1, 0, 0, -1, 0, 8030)" gradientUnits="userSpaceOnUse"><stop offset="0" stop-color="#192647" stop-opacity="0.5"/><stop offset="1" stop-color="#192647" stop-opacity="0"/></linearGradient><linearGradient id="Degradado_sin_nombre_114" x1="413.51" y1="7768.86" x2="250.59" y2="7768.86" gradientTransform="matrix(1, 0, 0, -1, 0, 8030)" gradientUnits="userSpaceOnUse"><stop offset="0" stop-color="#072146" stop-opacity="0.8"/><stop offset="1" stop-color="#072146" stop-opacity="0"/></linearGradient><linearGradient id="Degradado_sin_nombre_47" x1="171.19" y1="7908" x2="206.95" y2="7888.99" gradientTransform="matrix(1, 0, 0, -1, 0, 8030)" gradientUnits="userSpaceOnUse"><stop offset="0.01" stop-color="#fff" stop-opacity="0.5"/><stop offset="1" stop-color="#fff" stop-opacity="0.1"/></linearGradient><linearGradient id="Degradado_sin_nombre_47-2" x1="167.32" y1="7811.75" x2="204.62" y2="7791.93" xlink:href="#Degradado_sin_nombre_47"/><linearGradient id="Degradado_sin_nombre_47-3" x1="241.04" y1="7720.62" x2="249.27" y2="7716.23" xlink:href="#Degradado_sin_nombre_47"/><linearGradient id="Degradado_sin_nombre_18" x1="356.14" y1="7893.1" x2="413.98" y2="7862.34" gradientTransform="matrix(1, 0, 0, -1, 0, 8030)" gradientUnits="userSpaceOnUse"><stop offset="0" stop-color="#fff" stop-opacity="0.6"/><stop offset="1" stop-color="#fff" stop-opacity="0.2"/></linearGradient><linearGradient id="Degradado_sin_nombre_13" x1="114.42" y1="7630.8" x2="287.4" y2="7630.8" gradientTransform="matrix(1, 0, 0, -1, 0, 8030)" gradientUnits="userSpaceOnUse"><stop offset="0" stop-color="#043263" stop-opacity="0.4"/><stop offset="1" stop-color="#043263" stop-opacity="0.1"/></linearGradient></defs><title>11</title><g id="Cuadrados_Blancos" data-name="Cuadrados Blancos"><rect class="cls-1" width="600" height="600"/></g><g id="Capa_19" data-name="Capa 19"><path class="cls-2" d="M469.26,410.29v-132a55.45,55.45,0,1,0-55.45-55.44H275.44V211.8h28.27a11.09,11.09,0,0,0,11.09-11.09V178.53a11.09,11.09,0,0,0-11.09-11.09H225a11.1,11.1,0,0,0-11.09,11.09v22.18A11.1,11.1,0,0,0,225,211.8h28.28v11.09H206.91a26,26,0,0,0-26,26V410.29H162.1a3.33,3.33,0,0,0-3.33,3.33v82.05A3.33,3.33,0,0,0,162.1,499h326a3.33,3.33,0,0,0,3.33-3.33h0V413.62a3.33,3.33,0,0,0-3.33-3.33Z"/><path class="cls-3" d="M151.21,167.44h236.3a26,26,0,0,1,26,26h0v161.4H125.21V193.45A26,26,0,0,1,151.21,167.44Z"/><path class="cls-4" d="M413.51,193.45a26,26,0,0,0-26-26H350.23L250.59,354.85H413.51Z"/><rect class="cls-5" x="158.19" y="112" width="100.91" height="44.36" rx="11.09"/><rect class="cls-6" x="169.28" y="123.09" width="78.73" height="22.18" rx="3.33"/><rect class="cls-7" x="197.56" y="156.36" width="22.18" height="11.09"/><rect class="cls-8" x="103.03" y="354.85" width="332.66" height="88.71" rx="3.33"/><rect class="cls-5" x="158.47" y="278.04" width="15.52" height="15.52" rx="3.33"/><rect class="cls-5" x="213.92" y="278.04" width="15.52" height="15.52" rx="3.33"/><rect class="cls-5" x="241.64" y="278.04" width="15.52" height="15.52" rx="3.33"/><rect class="cls-5" x="158.47" y="305.77" width="15.52" height="15.52" rx="3.33"/><rect class="cls-5" x="213.92" y="305.77" width="15.52" height="15.52" rx="3.33"/><rect class="cls-5" x="186.19" y="278.04" width="15.52" height="15.52" rx="3.33"/><rect class="cls-5" x="186.19" y="305.77" width="15.52" height="15.52" rx="3.33"/><rect class="cls-9" x="241.64" y="305.77" width="15.52" height="15.52" rx="3.33"/><path class="cls-10" d="M172.61,123.09a3.33,3.33,0,0,0-3.33,3.33v15.52a3.33,3.33,0,0,0,3.33,3.33h32.08l11.74-22.18Z"/><rect class="cls-11" x="303.18" y="233.43" width="55.44" height="11.09" rx="1.77"/><rect class="cls-11" x="158.47" y="200.46" width="98.69" height="65.42" rx="9.12"/><rect class="cls-6" x="169.56" y="211.54" width="76.51" height="43.25" rx="3.33"/><path class="cls-5" d="M369.16,239.8v11.66a3.33,3.33,0,0,1-3.33,3.33H296a3.33,3.33,0,0,1-3.32-3.33V239.8a7.76,7.76,0,0,0-7.77-7.76h0a3.32,3.32,0,0,0-3.32,3.32h0V257a8.87,8.87,0,0,0,8.87,8.87h80.95a8.87,8.87,0,0,0,8.87-8.87V235.36a3.33,3.33,0,0,0-3.33-3.32h0A7.75,7.75,0,0,0,369.16,239.8Z"/><path class="cls-12" d="M172.89,211.54a3.33,3.33,0,0,0-3.33,3.33v36.59a3.33,3.33,0,0,0,3.33,3.33h22.83l23-43.25Z"/><path class="cls-13" d="M245,305.77a3.32,3.32,0,0,0-3.32,3.32V318a3.33,3.33,0,0,0,3.32,3.33h.3l8.25-15.52Z"/><path class="cls-14" d="M478.51,167.44a65,65,0,1,1-65-65h0a65,65,0,0,1,65,65"/><path class="cls-15" d="M415.51,200c-12.68,0-21.19-7.79-24-21.94H381.33V170.5h9.29c-.09-1.06-.09-2.12-.09-3.15v-2.12h-9.2v-7.45H391.4C394,143.52,403,135,415.4,135c10.56,0,17.8,4.69,21.55,13.92l.08.21-9.26,5.24-.1-.3c-2.17-6.53-6-9.46-12.27-9.46-7,0-11.61,4.54-13.34,13.13h15.57v7.45H401.28v1.92c0,1.14,0,2.3.08,3.37h16.35V178H402.28c1.81,8.42,6.18,12.52,13.33,12.52,6.52,0,10.28-3,12.56-10l.11-.31,9.06,5.41-.1.2A22.72,22.72,0,0,1,415.51,200Z"/><path class="cls-16" d="M413.46,102.44a65,65,0,0,0-30,122.58L444.13,110.1A65,65,0,0,0,413.46,102.44Z"/><path class="cls-17" d="M341,287.06l2.63-2.63a1.37,1.37,0,0,1,1.93,0h0l2.63,2.63a1.37,1.37,0,0,0,1.93,0h0l3.19-3.19a1.37,1.37,0,0,0,.4-1V239H308.1V282.9a1.41,1.41,0,0,0,.4,1l3.2,3.19a1.37,1.37,0,0,0,1.93,0h0l2.6-2.63a1.37,1.37,0,0,1,1.93,0h0l2.63,2.63a1.37,1.37,0,0,0,1.93,0h0l2.63-2.63a1.37,1.37,0,0,1,1.93,0h0l2.62,2.63a1.37,1.37,0,0,0,1.93,0h0l2.63-2.63a1.37,1.37,0,0,1,1.93,0h0l2.63,2.63a1.36,1.36,0,0,0,1.93,0Z"/><rect class="cls-18" x="114.42" y="365.93" width="310.49" height="66.53" rx="3.33"/><path class="cls-19" d="M117.74,365.93a3.33,3.33,0,0,0-3.32,3.33v59.88a3.33,3.33,0,0,0,3.32,3.33H251.92l35.48-66.54Z"/><path class="cls-9" d="M236.39,393.66h66.54a5.54,5.54,0,0,1,5.54,5.54h0a5.54,5.54,0,0,1-5.54,5.54H236.39a5.54,5.54,0,0,1-5.54-5.54h0A5.54,5.54,0,0,1,236.39,393.66Z"/></g></svg>