<svg id="Contenido" xmlns="http://www.w3.org/2000/svg" xmlns:xlink="http://www.w3.org/1999/xlink" viewBox="0 0 600 600"><defs><style>.cls-1{fill:url(#Degradado_sin_nombre_47);}.cls-2{fill:#043263;}.cls-3{fill:#2dcccd;}.cls-4{fill:#1464a5;}.cls-5{fill:url(#Degradado_sin_nombre_92);}.cls-6{fill:#d4edfc;}.cls-7{fill:url(#Degradado_sin_nombre_15);}</style><linearGradient id="Degradado_sin_nombre_47" x1="245.59" y1="125.99" x2="458.02" y2="525.51" gradientUnits="userSpaceOnUse"><stop offset="0" stop-color="#1a2746" stop-opacity="0.5"/><stop offset="1" stop-color="#1a2746" stop-opacity="0"/></linearGradient><linearGradient id="Degradado_sin_nombre_92" x1="480.89" y1="321.84" x2="232.5" y2="321.84" gradientUnits="userSpaceOnUse"><stop offset="0" stop-color="#043263" stop-opacity="0.4"/><stop offset="1" stop-color="#043263" stop-opacity="0.1"/></linearGradient><linearGradient id="Degradado_sin_nombre_15" x1="391.1" y1="378.41" x2="307.04" y2="378.41" gradientUnits="userSpaceOnUse"><stop offset="0" stop-color="#043263" stop-opacity="0.2"/><stop offset="1" stop-color="#043263" stop-opacity="0"/></linearGradient></defs><title>values-day</title><path class="cls-1" d="M532.75,449.52a253.77,253.77,0,0,0-32.57-12.8c16.11-22.23,26.46-46.94,26.46-72.31,0-1.21,0-2.4,0-3.6,0-.34,0-.67,0-1q0-1.38-.12-2.76c0-.31,0-.61,0-.92-.07-1.18-.15-2.36-.25-3.53,0-.19,0-.37,0-.56-.1-1-.2-2-.31-3l-.12-1c-.11-.93-.23-1.86-.37-2.79,0-.25-.06-.51-.1-.76-.17-1.15-.35-2.3-.55-3.44l-.15-.83q-.24-1.33-.51-2.67l-.21-1c-.2-1-.42-2-.65-3,0-.15-.07-.31-.1-.47-.27-1.12-.54-2.23-.83-3.34l-.27-1c-.22-.83-.45-1.66-.69-2.48-.1-.34-.19-.68-.29-1-.33-1.09-.66-2.18-1-3.26,0-.13-.09-.25-.13-.38-.32-1-.65-1.93-1-2.89-.13-.35-.25-.71-.38-1.06-.29-.79-.58-1.57-.88-2.35l-.36-1c-.41-1-.82-2.07-1.25-3.1l-.23-.53C539.25,266.27,539,208.36,536.92,178.4a12.56,12.56,0,0,0-18.92-10c-23.78,14-67.23,39.65-93.92,55.3l-1.22-.5-.08,0h0a201.55,201.55,0,0,0-149.71.9c-26.63-15.61-70.58-41.53-94.55-55.67a12.57,12.57,0,0,0-18.92,10c-2.15,30.33-2.33,89.29,22.08,134a137.49,137.49,0,0,0-10.25,52.06c0,25.22,10.23,49.79,26.18,71.91a254.5,254.5,0,0,0-33.83,13.2,2.71,2.71,0,0,0,1.16,5.15,2.66,2.66,0,0,0,1.16-.27A250.6,250.6,0,0,1,201,440.92a214.2,214.2,0,0,0,18,20.45,340.77,340.77,0,0,0-43,26.44,2.71,2.71,0,0,0,3.12,4.42c14.57-10.3,28.93-19.38,44-26.84A266.83,266.83,0,0,0,274.92,504l2.14,1.21,1.33.74,2.34,1.27,1.43.76,2.39,1.25,1.3.66L288,511l1.05.52q1.47.72,2.94,1.41l1.24.58c.71.32,1.41.65,2.12,1l1.11.51,2.95,1.28,1.11.47,2.14.88,1.13.46c1,.39,2,.78,2.93,1.15l.91.34,2.27.83,1.06.38,2.95,1,.57.19,2.5.8,1,.31c.84.26,1.69.51,2.53.75l.49.14c1,.28,1.93.54,2.89.79l.89.23,2.35.57.63.15c.95.22,1.89.43,2.82.62l.76.15,2.25.42.7.13c.91.16,1.83.3,2.73.44l.6.08c.74.1,1.48.2,2.21.28l.71.08c.88.1,1.76.18,2.63.25l.37,0c.76.06,1.51.1,2.26.14l.68,0c.85,0,1.69,0,2.52,0h0c20.74,0,48.58-9.5,76.06-25.51,1.35-.78,2.7-1.59,4.05-2.4a270.78,270.78,0,0,0,26.52-18.34l1.85-1.47c5.85-4.66,11.52-9.59,16.94-14.75,14.72,7.36,28.75,16.26,43,26.33a2.74,2.74,0,0,0,1.56.49,2.7,2.7,0,0,0,1.56-4.91,341.9,341.9,0,0,0-42-25.92,215.51,215.51,0,0,0,18.18-20.58,250.68,250.68,0,0,1,33.69,13.09,2.66,2.66,0,0,0,1.16.27,2.71,2.71,0,0,0,1.17-5.15Z"/><path class="cls-2" d="M355.41,192.11c1.14-.38,81.15-47.56,116.84-68.61a12.56,12.56,0,0,1,18.92,9.95c3.07,43.35,2.15,145.19-68.91,180.15C331,358.49,355.41,192.11,355.41,192.11Z"/><path class="cls-3" d="M445.44,277.09s37-51.39,33.46-123.48a3.79,3.79,0,0,0-6-2.91l-85.3,61.06Z"/><path class="cls-2" d="M249.61,192.11c-1.14-.38-81.15-47.56-116.84-68.61a12.57,12.57,0,0,0-18.92,9.95c-3.07,43.35-2.15,145.19,68.91,180.15C274,358.49,249.61,192.11,249.61,192.11Z"/><path class="cls-3" d="M159.58,277.09s-37-51.39-33.46-123.48a3.79,3.79,0,0,1,6-2.91l85.3,61.06Z"/><path class="cls-4" d="M480.89,319.46c0,85.69-118.08,145.94-177.61,145.94s-177.6-60.25-177.6-145.94S205.19,164.3,303.28,164.3,480.89,233.76,480.89,319.46Z"/><path class="cls-5" d="M377,178.27,232.5,450.09c30,13.22,50.26,15.31,70.78,15.31,59.53,0,177.61-60.25,177.61-145.94C480.89,256.75,438.31,202.74,377,178.27Z"/><path class="cls-2" d="M377,302.71a39.11,39.11,0,0,1-20.26-5.42,2.7,2.7,0,0,0-4.06,2.93,25.17,25.17,0,0,0,48.64,0,2.7,2.7,0,0,0-4.06-2.93A39.11,39.11,0,0,1,377,302.71Z"/><path class="cls-2" d="M229.59,302.71a39,39,0,0,1-20.25-5.42,2.7,2.7,0,0,0-4.07,2.93,25.18,25.18,0,0,0,48.65,0,2.7,2.7,0,0,0-4.07-2.93A39.11,39.11,0,0,1,229.59,302.71Z"/><path class="cls-6" d="M346.29,331.35a47,47,0,0,0-43.78,24.95,47,47,0,1,0-5.57,52.33,7.26,7.26,0,0,1,11.14,0,47,47,0,1,0,38.21-77.28Z"/><path class="cls-2" d="M338.2,337.89c0-4.86-16-8.8-35.69-8.8s-35.69,3.94-35.69,8.8c0,0,0,.07,0,.11a2.34,2.34,0,0,0,.67,1.82c10.59,9.79,25.49,22.63,32.23,28.39a4.2,4.2,0,0,0,2.78,1,4.24,4.24,0,0,0,2.79-1c6.73-5.76,21.63-18.6,32.23-28.39a2.33,2.33,0,0,0,.66-1.82S338.2,337.93,338.2,337.89Z"/><path class="cls-2" d="M119.19,404.31a2.7,2.7,0,0,1-1.16-5.14c39.82-19,86.54-28.1,151.49-29.56a2.68,2.68,0,0,1,2.76,2.64,2.72,2.72,0,0,1-2.64,2.77c-64.15,1.44-110.19,10.39-149.29,29A2.65,2.65,0,0,1,119.19,404.31Z"/><path class="cls-2" d="M131.76,442.37a2.71,2.71,0,0,1-1.56-4.92c40.92-28.92,80.12-48.45,138.46-49.77a2.71,2.71,0,0,1,.12,5.41c-57,1.28-95.35,20.43-135.46,48.78A2.73,2.73,0,0,1,131.76,442.37Z"/><path class="cls-2" d="M485.83,404.31a2.68,2.68,0,0,1-1.16-.26c-39.1-18.64-85.14-27.59-149.29-29a2.71,2.71,0,1,1,.13-5.41c64.94,1.46,111.66,10.58,151.49,29.56a2.7,2.7,0,0,1-1.17,5.14Z"/><path class="cls-2" d="M473.26,442.37a2.75,2.75,0,0,1-1.56-.5c-40.1-28.35-78.49-47.5-135.46-48.78a2.71,2.71,0,0,1,.13-5.41c58.33,1.32,97.54,20.85,138.45,49.77a2.71,2.71,0,0,1-1.56,4.92Z"/><path class="cls-7" d="M391.07,376.5a47.24,47.24,0,0,0-43.52-45.06L307,407.62a7.08,7.08,0,0,1,1,1,47,47,0,0,0,83-32.13Z"/></svg>