<svg xmlns="http://www.w3.org/2000/svg" xmlns:xlink="http://www.w3.org/1999/xlink" viewBox="0 0 600 600"><defs><style>.cls-1{fill:none;}.cls-2{fill:url(#Degradado_sin_nombre_43);}.cls-3{fill:url(#Degradado_sin_nombre_43-2);}.cls-4{fill:#2dcccd;}.cls-5{fill:#043263;}.cls-6{fill:#f8cd50;}.cls-7{opacity:0.5;isolation:isolate;fill:url(#Degradado_sin_nombre_3);}.cls-8{fill:url(#Degradado_sin_nombre_14);}</style><linearGradient id="Degradado_sin_nombre_43" x1="167.3" y1="43.71" x2="423.04" y2="524.7" gradientUnits="userSpaceOnUse"><stop offset="0" stop-color="#192647" stop-opacity="0.5"/><stop offset="1" stop-color="#192647" stop-opacity="0"/></linearGradient><linearGradient id="Degradado_sin_nombre_43-2" x1="261.18" y1="-26.96" x2="506.43" y2="434.27" xlink:href="#Degradado_sin_nombre_43"/><linearGradient id="Degradado_sin_nombre_3" x1="283.61" y1="-1408.06" x2="347.83" y2="-1442.21" gradientTransform="matrix(1, 0, 0, -1, 0, -1222)" gradientUnits="userSpaceOnUse"><stop offset="0" stop-color="#fff"/><stop offset="1" stop-color="#e7f6f7" stop-opacity="0.3"/><stop offset="1" stop-color="#fff" stop-opacity="0.5"/></linearGradient><linearGradient id="Degradado_sin_nombre_14" x1="445.84" y1="-1610.53" x2="216.22" y2="-1610.53" gradientTransform="matrix(1, 0, 0, -1, 0, -1222)" gradientUnits="userSpaceOnUse"><stop offset="0" stop-color="#072164" stop-opacity="0.8"/><stop offset="1" stop-color="#072164" stop-opacity="0.2"/></linearGradient></defs><title>3</title><g id="Cuadrados_blancos" data-name="Cuadrados blancos"><rect class="cls-1" width="600" height="600"/></g><g id="Capa_1" data-name="Capa 1"><path class="cls-2" d="M342.74,354.19V201.07a3.12,3.12,0,0,0-3.11-3.13h-.05A156.3,156.3,0,0,0,282,498.2h.08q4.21,1.77,8.57,3.32l.25.09q4.29,1.51,8.7,2.77l.28.08c1.43.41,2.87.8,4.33,1.17l.4.1c1.45.36,2.89.71,4.35,1s2.89.61,4.34.89l.69.13c1.45.27,2.9.52,4.36.75h.09c1.41.22,2.83.41,4.26.6l.78.1c1.42.17,2.84.33,4.27.46l.72.07c1.31.12,2.63.22,3.95.3h.63c1.43.09,2.87.15,4.31.2h.95c1.47,0,2.95.07,4.43.07s2.68,0,4-.05H348l2.73-.1,1.56-.1c.8,0,1.6-.09,2.4-.15l1.68-.15,2.25-.2,1.73-.2c.73-.08,1.45-.15,2.17-.25l1.76-.24,2.12-.29,1.78-.3,2.06-.34,1.78-.33,2-.39,1.77-.38,2-.44,1.77-.43,2-.48,1.76-.47,1.94-.52L387,504c.64-.19,1.28-.37,1.91-.57l1.75-.56,1.88-.61,1.74-.61c.62-.21,1.24-.42,1.85-.65l1.73-.65,1.83-.69c.57-.22,1.13-.46,1.7-.69l1.81-.73,1.68-.73,1.78-.78,1.67-.77,1.75-.82c.56-.26,1.1-.54,1.65-.81s1.16-.56,1.73-.86l1.63-.84,1.7-.9,1.61-.88,1.68-.94,1.58-.93,1.65-1,1.56-1,1.62-1c.53-.33,1-.66,1.54-1l1.6-1.05,1.51-1,1.57-1.09c.5-.35,1-.71,1.48-1.07l1.54-1.12,1.46-1.1,1.51-1.16,1.43-1.13,1.49-1.2,1.4-1.17c.49-.41,1-.81,1.46-1.23s.92-.8,1.37-1.2l1.43-1.26,1.34-1.23,1.4-1.3,1.31-1.26,1.36-1.33,1.29-1.29,1.33-1.36,1.26-1.33,1.29-1.39,1.23-1.36,1.26-1.41,1.2-1.39c.41-.48.82-1,1.22-1.45L464,452.8l1.19-1.47,1.13-1.44,1.15-1.51,1.1-1.47c.38-.51.75-1,1.12-1.54s.71-1,1.06-1.49.73-1,1.09-1.57l1-1.52c.35-.53.7-1.06,1-1.59s.67-1,1-1.55.67-1.07,1-1.62.64-1,1-1.57.65-1.09,1-1.64.62-1.06.92-1.6.63-1.11.93-1.66.6-1.08.89-1.62l.89-1.7c.28-.54.57-1.09.84-1.64l.86-1.71.8-1.67q.42-.87.81-1.74c.26-.56.52-1.12.77-1.69s.52-1.17.77-1.76l.73-1.71c.24-.57.49-1.19.73-1.78l.69-1.73c.23-.6.46-1.21.68-1.81s.44-1.17.65-1.75.43-1.22.64-1.83.41-1.17.61-1.76l.6-1.85c.19-.6.38-1.2.56-1.79s.37-1.24.56-1.87.35-1.2.52-1.81l.51-1.88c.16-.61.32-1.22.47-1.83s.32-1.27.47-1.9.29-1.23.43-1.84.29-1.28.42-1.93.27-1.23.39-1.85.25-1.29.37-1.94.24-1.25.35-1.88.22-1.3.32-2,.21-1.26.3-1.89.19-1.32.28-2,.17-1.26.25-1.9.15-1.32.23-2,.14-1.27.2-1.91.12-1.34.18-2,.11-1.28.16-1.93.09-1.35.13-2,.08-1.29.11-1.93.05-1.37.08-2,0-1.29.06-1.94v-3.6H342.74Z"/><path class="cls-3" d="M519.9,330.22a156.26,156.26,0,0,0-83.8-135.33c-1.29-.68-2.6-1.35-3.92-2h-.05c-1.22-.6-2.45-1.18-3.69-1.75l-.81-.36q-1.5-.67-3-1.32l-1-.42c-1-.41-2-.82-3-1.21l-.93-.37c-1.15-.44-2.31-.87-3.47-1.29l-.46-.16c-1.37-.49-2.74-.95-4.13-1.4h-.07c-1.3-.42-2.6-.82-3.91-1.2l-1.05-.3c-1-.29-2-.56-3-.83l-1.29-.33-2.88-.71-1.29-.3-3.14-.67-1-.21c-1.4-.28-2.81-.54-4.22-.77h-.26c-1.3-.22-2.61-.42-3.93-.61l-1.34-.17c-1-.13-1.93-.25-2.9-.36l-1.57-.17-2.76-.26-1.59-.13-2.93-.19-1.4-.07c-1.42-.07-2.85-.12-4.28-.15a2.5,2.5,0,0,0-.77.09,3.13,3.13,0,0,0-2.39,3v150a3.38,3.38,0,0,0,.07.63V331a3.27,3.27,0,0,0,.17.53,3.14,3.14,0,0,0,2.87,1.88h150a3.11,3.11,0,0,0,3.12-3.1Z"/><path class="cls-4" d="M286.44,154.13A156.34,156.34,0,0,0,143.37,365.6L289.6,310.38V157.28a3.13,3.13,0,0,0-3.09-3.15Z"/><path class="cls-5" d="M289.6,310.38,143.37,365.6a156.29,156.29,0,0,0,302.5-55.22Z"/><path class="cls-6" d="M310.43,136.42v150a3.13,3.13,0,0,0,3.13,3.13h150a3.12,3.12,0,0,0,3.13-3.11v-.05a156.29,156.29,0,0,0-153.1-153.11,3.12,3.12,0,0,0-3.16,3.08Z"/><path class="cls-7" d="M313.59,133.28a3.12,3.12,0,0,0-3.16,3.08V286.41a3.08,3.08,0,0,0,1,2.24L383,151.08A155.73,155.73,0,0,0,313.59,133.28Z"/><path class="cls-8" d="M289.6,310.38l-73.38,138A156.33,156.33,0,0,0,445.84,313.53a3.13,3.13,0,0,0-3.07-3.15H289.6Z"/></g></svg>