<svg id="Capa_1" data-name="Capa 1" xmlns="http://www.w3.org/2000/svg" xmlns:xlink="http://www.w3.org/1999/xlink" viewBox="0 0 600 600"><defs><style>.cls-1{fill:url(#Degradado_sin_nombre_15);}.cls-2{fill:#1464a5;}.cls-3{fill:url(#Degradado_sin_nombre_11);}.cls-4{fill:#5bb4ff;}.cls-5{fill:#043263;}.cls-6{fill:#1973b8;}.cls-7{fill:#2dcccd;}.cls-8{fill:url(#Degradado_sin_nombre_8);}</style><linearGradient id="Degradado_sin_nombre_15" x1="226.2" y1="162.78" x2="395.17" y2="480.57" gradientUnits="userSpaceOnUse"><stop offset="0" stop-color="#192647"/><stop offset="0" stop-color="#192647" stop-opacity="0.5"/><stop offset="1" stop-color="#192647" stop-opacity="0"/></linearGradient><linearGradient id="Degradado_sin_nombre_11" x1="409.92" y1="3761.7" x2="174.74" y2="3761.7" gradientTransform="matrix(1, 0, 0, -1, 0, 4099.83)" gradientUnits="userSpaceOnUse"><stop offset="0" stop-color="#043263"/><stop offset="1" stop-color="#043263" stop-opacity="0"/></linearGradient><linearGradient id="Degradado_sin_nombre_8" x1="339.17" y1="3758.76" x2="398.1" y2="3727.42" gradientTransform="matrix(1, 0, 0, -1, 0, 4099.83)" gradientUnits="userSpaceOnUse"><stop offset="0" stop-color="#fff" stop-opacity="0.5"/><stop offset="1" stop-color="#fff" stop-opacity="0.1"/></linearGradient></defs><path class="cls-1" d="M487.65,373.74a33.69,33.69,0,0,0-25.07-10.92,31.28,31.28,0,0,0-13.66,3.05v-78h7.68V236.45a2.3,2.3,0,0,0-2.31-2.3H403.76l7.79-7.79a2.29,2.29,0,0,0,0-3.25h0l-40.49-40.48a2.31,2.31,0,0,0-3.26,0l-48.94,49.23h0L269.9,182.62h0a2.29,2.29,0,0,0-3.25,0L226.15,223.1h0a2.29,2.29,0,0,0,0,3.25l7.79,7.79H182.62a2.3,2.3,0,0,0-2.31,2.3v51.42H188V446.74a17.65,17.65,0,0,0,17.65,17.65h82.12v2.3h61.39v-2.3h71.5c3,2.59,6.22,5.34,9.5,8.22a7.35,7.35,0,0,0,9.69,0c5.06-4.44,10-8.62,14.27-12.3,12.63-10.78,23.53-20.07,31.15-29.25,8.48-10.24,12.42-19.95,12.42-30.57A39.2,39.2,0,0,0,487.65,373.74Z"/><path class="cls-2" d="M149,249.87H409.92V408.74a17.65,17.65,0,0,1-17.65,17.65H166.64A17.65,17.65,0,0,1,149,408.74h0V249.87Z"/><path class="cls-3" d="M270.15,249.87,174.74,426.39H392.27a17.65,17.65,0,0,0,17.65-17.65h0V249.87Z"/><rect class="cls-4" x="248.76" y="249.87" width="61.4" height="178.82"/><path class="cls-4" d="M199.27,200.48l-12.12-12.12a2.29,2.29,0,0,1,0-3.25h0l40.49-40.48a2.29,2.29,0,0,1,3.25,0h0l55.53,55.86Z"/><path class="cls-4" d="M360.43,200.48l12.12-12.12a2.29,2.29,0,0,0,0-3.25h0l-40.49-40.48a2.31,2.31,0,0,0-3.26,0l-55.53,55.86Z"/><path class="cls-5" d="M417.6,249.87H141.31V198.45a2.3,2.3,0,0,1,2.31-2.3H415.29a2.3,2.3,0,0,1,2.31,2.3h0v51.42Z"/><rect class="cls-6" x="244.92" y="193.85" width="69.07" height="56.02"/><path class="cls-7" d="M448.65,335.74a33.69,33.69,0,0,0-25.07-10.92,31.4,31.4,0,0,0-19.69,6.8,39.74,39.74,0,0,0-8,8.32,40.36,40.36,0,0,0-8-8.32,31.4,31.4,0,0,0-19.69-6.8,33.67,33.67,0,0,0-25.06,10.92,39.27,39.27,0,0,0-9.92,26.75c0,10.62,4,20.33,12.44,30.57,7.58,9.18,18.46,18.46,31.15,29.25,4.31,3.68,9.23,7.86,14.28,12.3a7.35,7.35,0,0,0,9.69,0c5.06-4.44,10-8.62,14.27-12.3,12.63-10.78,23.53-20.07,31.15-29.25,8.48-10.24,12.42-19.95,12.42-30.57A39.2,39.2,0,0,0,448.65,335.74Z"/><path class="cls-8" d="M403.87,331.71a40,40,0,0,0-8,8.31,39.75,39.75,0,0,0-8-8.31,31.44,31.44,0,0,0-19.68-6.81,33.64,33.64,0,0,0-25.06,11,39.18,39.18,0,0,0-9.92,26.74c0,10.61,4,20.32,12.43,30.56,6.84,8.27,16.39,16.65,27.47,26.12L421.94,325A31.43,31.43,0,0,0,403.87,331.71Z"/></svg>