<svg id="Capa_1" data-name="Capa 1" xmlns="http://www.w3.org/2000/svg" xmlns:xlink="http://www.w3.org/1999/xlink" viewBox="0 0 600 600"><defs><style>.cls-1{fill:url(#Degradado_sin_nombre);}.cls-2{fill:#1464a5;}.cls-3{fill:#2dcccd;}.cls-4{fill:url(#Degradado_sin_nombre_31);}.cls-5{fill:#fff;}</style><linearGradient id="Degradado_sin_nombre" x1="293.49" y1="223.91" x2="456.18" y2="529.9" gradientUnits="userSpaceOnUse"><stop offset="0" stop-color="#192647"/><stop offset="0" stop-color="#192647" stop-opacity="0.5"/><stop offset="1" stop-color="#192647" stop-opacity="0"/></linearGradient><linearGradient id="Degradado_sin_nombre_31" x1="519.94" y1="271.42" x2="226.42" y2="271.42" gradientUnits="userSpaceOnUse"><stop offset="0" stop-color="#043263" stop-opacity="0.4"/><stop offset="1" stop-color="#043263" stop-opacity="0"/></linearGradient></defs><title>Chatbot</title><path class="cls-1" d="M486.17,260.35a33,33,0,0,0-24.3-28.45v-51a20.6,20.6,0,1,0-15.21,0v50.59a33,33,0,0,0-25.14,23.73H262.89c-56.18,0-102.15,46-102.15,102.14h0c0,56.18,46,102.14,102.15,102.14H423.42l55.41,55.41a3.68,3.68,0,0,0,6.28-2.6V454.7c41.22-13.16,71.3-51.91,71.3-97.35h0C556.41,312.3,526.85,273.83,486.17,260.35Z"/><path class="cls-2" d="M429,203.2a33,33,0,0,0-24.3-28.45v-51a20.6,20.6,0,1,0-15.21,0v50.59a33,33,0,0,0-25.14,23.72H205.74c-56.18,0-102.15,46-102.15,102.15h0c0,56.18,46,102.14,102.15,102.14H366.27l55.41,55.41a3.68,3.68,0,0,0,6.28-2.6V397.54c41.22-13.15,71.3-51.9,71.3-97.34h0C499.26,255.15,469.7,216.68,429,203.2ZM205.74,329.87a29.68,29.68,0,1,1,29.67-29.67A29.67,29.67,0,0,1,205.74,329.87Zm191.37,0a29.68,29.68,0,1,1,29.68-29.67A29.67,29.67,0,0,1,397.11,329.87Z"/><circle class="cls-3" cx="397.1" cy="104.57" r="20.56"/><path class="cls-4" d="M205.74,402.34H366.27l55.41,55.41a3.68,3.68,0,0,0,6.28-2.6V397.54c41.22-13.15,71.3-51.9,71.3-97.34h0c0-45-29.56-83.52-70.24-97a33,33,0,0,0-24.3-28.45v-51a20.6,20.6,0,1,0-15.21,0v50.59a33,33,0,0,0-25.14,23.72H345.76Z"/><circle class="cls-5" cx="205.74" cy="300.2" r="29.67"/><circle class="cls-5" cx="397.11" cy="300.2" r="29.67"/></svg>