<svg xmlns="http://www.w3.org/2000/svg" xmlns:xlink="http://www.w3.org/1999/xlink" viewBox="0 0 600 600"><defs><style>.cls-1{fill:none;}.cls-2{fill:url(#Degradado_sin_nombre_56);}.cls-3{fill:#043263;}.cls-4{fill:#2dcccd;}.cls-5{fill:url(#Degradado_sin_nombre_19);}.cls-6{fill:#fff;}</style><linearGradient id="Degradado_sin_nombre_56" x1="292.49" y1="-1985.91" x2="455.18" y2="-2291.9" gradientTransform="matrix(1, 0, 0, -1, 0, -1762)" gradientUnits="userSpaceOnUse"><stop offset="0" stop-color="#192647" stop-opacity="0.5"/><stop offset="1" stop-color="#192647" stop-opacity="0"/></linearGradient><linearGradient id="Degradado_sin_nombre_19" x1="518.51" y1="-2033.41" x2="224.99" y2="-2033.41" gradientTransform="matrix(1, 0, 0, -1, 0, -1762)" gradientUnits="userSpaceOnUse"><stop offset="0" stop-color="#072146" stop-opacity="0.8"/><stop offset="1" stop-color="#072146" stop-opacity="0"/></linearGradient></defs><title>4</title><g id="Cuadrados_Blancos" data-name="Cuadrados Blancos"><rect class="cls-1" width="600" height="600"/></g><g id="Capa_2" data-name="Capa 2"><path class="cls-2" d="M485.17,260.35a33,33,0,0,0-24.3-28.45v-51a20.6,20.6,0,1,0-15.21,0v50.59a33,33,0,0,0-25.14,23.73H261.89c-56.18,0-102.15,46-102.15,102.14h0c0,56.18,46,102.14,102.15,102.14H422.42l55.41,55.41a3.68,3.68,0,0,0,6.28-2.6V454.7c41.22-13.16,71.3-51.91,71.3-97.35h0C555.41,312.3,525.85,273.83,485.17,260.35Z"/><path class="cls-3" d="M427.57,203.2a33,33,0,0,0-24.29-28.45v-51a20.6,20.6,0,1,0-15.21,0v50.59a33,33,0,0,0-25.14,23.72H204.31c-56.18,0-102.15,46-102.15,102.15h0c0,56.18,46,102.14,102.15,102.14H364.84l55.41,55.41a3.68,3.68,0,0,0,6.28-2.6V397.54c41.22-13.15,71.31-51.9,71.31-97.34h0C497.84,255.15,468.28,216.68,427.57,203.2ZM204.31,329.87A29.68,29.68,0,1,1,234,300.18v0a29.66,29.66,0,0,1-29.66,29.67Zm191.37,0a29.68,29.68,0,1,1,29.68-29.68h0a29.67,29.67,0,0,1-29.67,29.67Z"/><circle class="cls-4" cx="395.67" cy="104.57" r="20.56"/><path class="cls-5" d="M204.31,402.34H364.84l55.41,55.41a3.68,3.68,0,0,0,6.28-2.6V397.54c41.22-13.15,71.31-51.9,71.31-97.34h0c0-45-29.56-83.52-70.24-97a33,33,0,0,0-24.3-28.45v-51a20.6,20.6,0,1,0-15.21,0v50.59A33,33,0,0,0,363,198.06H344.34Z"/><circle class="cls-6" cx="204.31" cy="300.2" r="29.67"/><circle class="cls-6" cx="395.68" cy="300.2" r="29.67"/></g></svg>