<svg id="Contenido" xmlns="http://www.w3.org/2000/svg" xmlns:xlink="http://www.w3.org/1999/xlink" viewBox="0 0 600 600"><defs><style>.cls-1{fill:url(#Degradado_sin_nombre_16);}.cls-2{fill:#d4edfc;}.cls-3{fill:#ecf8f9;}.cls-4{fill:#65a3df;}.cls-5{fill-rule:evenodd;isolation:isolate;fill:url(#Degradado_sin_nombre_30);}.cls-10,.cls-5{opacity:0.5;}.cls-6{fill:#1d447d;}.cls-7{fill:#043263;}.cls-8{fill:#b8d7e8;}.cls-9{fill:#1464a5;}.cls-10{fill:url(#Degradado_sin_nombre_31);}.cls-11{fill:#2dcccd;}.cls-12{fill:none;}</style><linearGradient id="Degradado_sin_nombre_16" x1="186.77" y1="39.28" x2="442.53" y2="520.29" gradientUnits="userSpaceOnUse"><stop offset="0" stop-color="#1c2645"/><stop offset="0" stop-color="#1c2645" stop-opacity="0.5"/><stop offset="1" stop-color="#1c2645" stop-opacity="0"/></linearGradient><linearGradient id="Degradado_sin_nombre_30" x1="363.79" y1="827.58" x2="541.8" y2="827.58" gradientTransform="matrix(-1, 0, 0, 1, 793.45, -554.16)" gradientUnits="userSpaceOnUse"><stop offset="0.01" stop-color="#043263" stop-opacity="0.2"/><stop offset="1" stop-color="#043263" stop-opacity="0"/></linearGradient><linearGradient id="Degradado_sin_nombre_31" x1="352.55" y1="178.83" x2="448.75" y2="275.04" gradientUnits="userSpaceOnUse"><stop offset="0" stop-color="#fff" stop-opacity="0.5"/><stop offset="0.87" stop-color="#fff" stop-opacity="0"/><stop offset="1" stop-color="#eaf6f7" stop-opacity="0.2"/></linearGradient></defs><title>Gema</title><path class="cls-1" d="M562.61,288a104.86,104.86,0,0,0-185.44-67.15H133.77A8.79,8.79,0,0,0,125,229.6V405.23a8.79,8.79,0,0,0,8.76,8.76H366l-37.17,64.38a2.51,2.51,0,0,0-3.38.94l-8.36,14.47a2.52,2.52,0,0,0,.93,3.44l27,15.58a2.53,2.53,0,0,0,3.44-.92l8.35-14.47a2.52,2.52,0,0,0-.87-3.4l46.19-80H517a7.06,7.06,0,0,0,7.09-7.09v-.49a9.23,9.23,0,0,0,.09-1.18V369.09A104.76,104.76,0,0,0,562.61,288Zm-22.67,0v0Zm-78.43-82.14h0Z"/><path class="cls-2" d="M477.41,370H95.77A8.79,8.79,0,0,1,87,361.23V185.6a8.79,8.79,0,0,1,8.76-8.76H477.41a8.78,8.78,0,0,1,8.76,8.76V361.23A8.73,8.73,0,0,1,477.41,370Z"/><path class="cls-3" d="M457.92,242.71h-96a4.86,4.86,0,1,1,0-9.71h96a4.86,4.86,0,1,1,0,9.71Z"/><path class="cls-3" d="M361.88,283.45H118a4.85,4.85,0,1,1,0-9.7H362a4.8,4.8,0,0,1,4.85,4.85A4.94,4.94,0,0,1,361.88,283.45Z"/><path class="cls-3" d="M361.88,303.83H118a4.85,4.85,0,1,1,0-9.7H362a4.8,4.8,0,0,1,4.85,4.85A4.89,4.89,0,0,1,361.88,303.83Z"/><path class="cls-4" d="M458,338.75H118a4.85,4.85,0,1,1,0-9.7H458.12A4.81,4.81,0,0,1,463,333.9,4.88,4.88,0,0,1,458,338.75Z"/><path class="cls-5" d="M479.07,176.84H338.13L243.35,370H479a7.06,7.06,0,0,0,7.09-7.09h0V184A7,7,0,0,0,479.07,176.84Z"/><path class="cls-6" d="M207.28,207.06l-10.51,20a.67.67,0,0,1-.87.27l-.27-.27-10.51-20a.74.74,0,0,0-.52-.35h-5.08a.41.41,0,0,0-.44.44c0,.09,0,.18.09.18l16.55,30.92a.61.61,0,0,0,.79.26l.26-.26,16.56-30.92a.5.5,0,0,0-.18-.62c-.08,0-.17-.09-.26-.09h-5.08a1,1,0,0,0-.53.44"/><path class="cls-6" d="M213.24,233.78l10.51-20a.69.69,0,0,1,.88-.27l.26.27,10.51,20a.74.74,0,0,0,.53.35H241a.42.42,0,0,0,.44-.44c0-.09,0-.17-.09-.17L224.8,202.59a.6.6,0,0,0-.78-.26l-.27.26-16.47,30.84a.51.51,0,0,0,.18.61c.09,0,.09.09.17.09h5.09a.83.83,0,0,0,.52-.35"/><path class="cls-6" d="M134.75,234h-9.46a.59.59,0,0,1-.61-.61h0v-8.5a.59.59,0,0,1,.61-.61h9.46c4.47,0,6.49,1.31,6.49,4.82s-1.93,4.9-6.49,4.9m-9.46-22.69h9.29c3.42,0,5.17,1.49,5.17,4.21s-1.75,4.2-5.17,4.2h-9.29a.59.59,0,0,1-.61-.61h0V212a.6.6,0,0,1,.61-.62h0m16.21,10.17a7,7,0,0,0,3.59-6.4c0-5-3.85-8.32-9.37-8.32H120a.59.59,0,0,0-.61.61h0v30.75a.59.59,0,0,0,.61.61H135c7.53,0,11.47-3.24,11.47-9.55s-5-7.7-5-7.7"/><path class="cls-6" d="M167,234h-9.46a.59.59,0,0,1-.61-.61v-8.5a.59.59,0,0,1,.61-.61H167c4.47,0,6.48,1.31,6.48,4.82S171.55,234,167,234m-9.46-22.69h9.28c3.42,0,5.17,1.49,5.17,4.21s-1.75,4.2-5.17,4.2h-9.28a.59.59,0,0,1-.61-.61V212a.6.6,0,0,1,.61-.62h0m16.29,10.17a7,7,0,0,0,3.59-6.4c0-5-3.85-8.32-9.37-8.32H152.27a.59.59,0,0,0-.61.61h0v30.75a.59.59,0,0,0,.61.61h15.07c7.53,0,11.48-3.24,11.48-9.55s-5-7.7-5-7.7"/><path class="cls-7" d="M257.54,377.07h153.3a0,0,0,0,1,0,0v31.28a0,0,0,0,1,0,0H257.54a2.52,2.52,0,0,1-2.52-2.52V379.59A2.52,2.52,0,0,1,257.54,377.07Z" transform="matrix(0.5, -0.87, 0.87, 0.5, -173.63, 484.68)"/><path class="cls-8" d="M501.94,244a82.23,82.23,0,1,1-82.24-82.24A82.24,82.24,0,0,1,501.94,244"/><path class="cls-9" d="M419.7,348.89A104.91,104.91,0,1,1,524.61,244,105,105,0,0,1,419.7,348.89Zm0-187.14A82.24,82.24,0,1,0,501.94,244,82.32,82.32,0,0,0,419.7,161.75Z"/><path class="cls-10" d="M460.63,172.7a82.2,82.2,0,0,0-82.16,142.39Z"/><rect class="cls-11" x="288.06" y="433.5" width="21.74" height="36.19" rx="2.52" transform="translate(-241.63 484.68) rotate(-60)"/><path class="cls-12" d="M378.71,205.22a9.66,9.66,0,0,1,9.75-9.75h97.59a82.18,82.18,0,0,0-147.32,62.7h57.78a9.66,9.66,0,0,1,9.75,9.75,10,10,0,0,1-9.95,9.75H344.72a82.43,82.43,0,0,0,14,21.45h37.76a9.66,9.66,0,0,1,9.75,9.75,9.83,9.83,0,0,1-9.95,9.75H385.23A82.2,82.2,0,0,0,496.64,215H388.46A9.66,9.66,0,0,1,378.71,205.22Z"/><path class="cls-3" d="M388.46,195.47a9.75,9.75,0,0,0,0,19.5H496.64a82.29,82.29,0,0,0-10.59-19.5Z"/><path class="cls-3" d="M406.26,267.92a9.66,9.66,0,0,0-9.75-9.75H338.73a81.43,81.43,0,0,0,6,19.5h51.59A10,10,0,0,0,406.26,267.92Z"/><path class="cls-3" d="M406.26,308.87a9.66,9.66,0,0,0-9.75-9.75H358.75a82.62,82.62,0,0,0,26.48,19.5h11.08A9.83,9.83,0,0,0,406.26,308.87Z"/></svg>