<svg id="Contenido" xmlns="http://www.w3.org/2000/svg" xmlns:xlink="http://www.w3.org/1999/xlink" viewBox="0 0 600 600"><defs><style>.cls-1,.cls-11,.cls-3,.cls-6{fill-rule:evenodd;}.cls-1{fill:url(#Degradado_sin_nombre_16);}.cls-2{fill:#f1873e;}.cls-3,.cls-4{fill:#f7b27f;}.cls-5{fill:url(#linear-gradient);}.cls-6{fill:#2dcccd;}.cls-7{fill:#02a5a5;}.cls-8{fill:#d4edfc;}.cls-9{fill:#ecf8f9;}.cls-10{fill:#65a3df;}.cls-11{opacity:0.5;isolation:isolate;fill:url(#Degradado_sin_nombre_30);}.cls-12{fill:#1d447d;}</style><linearGradient id="Degradado_sin_nombre_16" x1="273.92" y1="207.06" x2="419.47" y2="480.8" gradientUnits="userSpaceOnUse"><stop offset="0" stop-color="#1c2645"/><stop offset="0" stop-color="#1c2645" stop-opacity="0.5"/><stop offset="1" stop-color="#1c2645" stop-opacity="0"/></linearGradient><linearGradient id="linear-gradient" x1="-10212.92" y1="-1925.35" x2="-10202.47" y2="-1883.96" gradientTransform="matrix(-0.99, -0.14, -0.14, 0.99, -10157.46, 720.6)" gradientUnits="userSpaceOnUse"><stop offset="0" stop-color="#a68667"/><stop offset="1" stop-color="#a68667" stop-opacity="0"/></linearGradient><linearGradient id="Degradado_sin_nombre_30" x1="-2168.5" y1="835.43" x2="-2037.58" y2="835.43" gradientTransform="matrix(-1, 0, 0, 1, -1686.55, -554.16)" gradientUnits="userSpaceOnUse"><stop offset="0.01" stop-color="#043263" stop-opacity="0.2"/><stop offset="1" stop-color="#043263" stop-opacity="0"/></linearGradient></defs><title>Gema</title><path class="cls-1" d="M573.51,265.38a6.11,6.11,0,0,0-.06-.86v-.3a5.13,5.13,0,0,0-5.16-5.28H295.1q-3.62-1.44-7.28-2.78c-12.05-4-27.32-6.83-48.6-2.32s-61.13,45.81-74.57,47l-6.35.53a14.42,14.42,0,0,0-13.39-9.26L117.83,292a14.39,14.39,0,0,0-14.19,17,214.57,214.57,0,0,1,3.42,39.12,213.89,213.89,0,0,1-3.64,39.1,14.39,14.39,0,0,0,14.1,17.1l27.08.08A14.47,14.47,0,0,0,158.73,393a3.4,3.4,0,0,1,.07-.34l13.53-1.15c7.74-.65,27.36,11.23,50.08,11.67,14.25.28,28.5-5.56,37.16-10l.44-.17c3.36-1.44,10.9-2.4,19.93-3v4.51a6.46,6.46,0,0,0,6.44,6.44h17.26l6.28,7.49A14.29,14.29,0,0,0,335.06,401H568.23a5.2,5.2,0,0,0,5.22-5.22v-.36a6.11,6.11,0,0,0,.06-.86Z"/><path class="cls-2" d="M260.36,258.27c.16.3,40.19,16.49,64.11,26.15a19.43,19.43,0,0,1,11,24.74h0A19.42,19.42,0,0,1,309,320c-21.11-9.87-53.33-24.14-62.28-23.61-13.63.8-31.06,3.62-39.29-.63S260.36,258.27,260.36,258.27Z"/><path class="cls-3" d="M224.7,257.67,212,302.58l47.93,57.21a14.28,14.28,0,0,0,15.23,4.45h0a14.3,14.3,0,0,0,7.52-21.71Z"/><path class="cls-4" d="M105.24,252.88l9.41-.79c13.44-1.14,53.28-42.43,74.57-46.94s36.55-1.65,48.6,2.31c44.53,16.28,86.92,45.18,86.92,45.18l-91.39,45.93-15.46,41.26S195.13,355,172.41,354.51s-42.34-12.32-50.08-11.67l-15.46,1.31Z"/><circle class="cls-5" cx="217.52" cy="281.06" r="22.18"/><path class="cls-6" d="M67.83,243.29a14.39,14.39,0,0,0-14.19,17,214.57,214.57,0,0,1,3.42,39.12,213.8,213.8,0,0,1-3.64,39.1,14.39,14.39,0,0,0,14.1,17.1l27.08.08a14.46,14.46,0,0,0,14.13-11.39,211.47,211.47,0,0,0,4.79-44.74A210.17,210.17,0,0,0,109,254.84a14.43,14.43,0,0,0-14.06-11.47Z"/><circle class="cls-7" cx="82.34" cy="331.67" r="9.01"/><path class="cls-8" d="M517.07,352.3H236.38a6.46,6.46,0,0,1-6.44-6.44V216.68a6.46,6.46,0,0,1,6.44-6.44H517.07a6.46,6.46,0,0,1,6.44,6.44V345.86A6.42,6.42,0,0,1,517.07,352.3Z"/><path class="cls-9" d="M502.74,258.68H432.1a3.57,3.57,0,1,1,0-7.13h70.64a3.57,3.57,0,1,1,0,7.13Z"/><path class="cls-9" d="M432.1,288.65H252.71a3.57,3.57,0,1,1,0-7.13H432.17a3.53,3.53,0,0,1,3.57,3.56A3.65,3.65,0,0,1,432.1,288.65Z"/><path class="cls-9" d="M432.1,303.64H252.71a3.57,3.57,0,0,1,0-7.14H432.17a3.53,3.53,0,0,1,3.57,3.57A3.6,3.6,0,0,1,432.1,303.64Z"/><path class="cls-10" d="M502.81,329.32H252.71a3.57,3.57,0,1,1,0-7.13H502.88a3.53,3.53,0,0,1,3.57,3.57A3.59,3.59,0,0,1,502.81,329.32Z"/><path class="cls-11" d="M518.29,210.24H414.63L344.92,352.3H518.23a5.2,5.2,0,0,0,5.22-5.22h0V215.52A5.13,5.13,0,0,0,518.29,210.24Z"/><path class="cls-12" d="M318.4,232.47l-7.73,14.69a.51.51,0,0,1-.65.19l-.19-.19-7.73-14.69a.54.54,0,0,0-.39-.26H298a.3.3,0,0,0-.32.32c0,.07,0,.13.07.13l12.17,22.74a.45.45,0,0,0,.58.2l.2-.2,12.17-22.74a.36.36,0,0,0-.13-.45c-.06,0-.13-.06-.19-.06h-3.74a.62.62,0,0,0-.38.32"/><path class="cls-12" d="M322.78,252.12l7.73-14.69a.5.5,0,0,1,.64-.2l.2.2,7.73,14.69a.51.51,0,0,0,.38.25h3.74a.3.3,0,0,0,.32-.32c0-.06,0-.13-.06-.13l-12.18-22.74a.44.44,0,0,0-.58-.19l-.19.19L318.4,251.86a.36.36,0,0,0,.13.45c.06,0,.06.06.13.06h3.73a.6.6,0,0,0,.39-.25"/><path class="cls-12" d="M265.05,252.31h-7a.44.44,0,0,1-.45-.45h0v-6.25a.44.44,0,0,1,.45-.45h7c3.29,0,4.77,1,4.77,3.54s-1.42,3.61-4.77,3.61m-7-16.69h6.83c2.52,0,3.8,1.1,3.8,3.1s-1.28,3.09-3.8,3.09h-6.83a.44.44,0,0,1-.45-.45h0v-5.28a.45.45,0,0,1,.45-.46h0M270,243.1a5.16,5.16,0,0,0,2.64-4.71c0-3.67-2.83-6.12-6.89-6.12h-11.6a.45.45,0,0,0-.45.45h0v22.62a.44.44,0,0,0,.45.45h11.09c5.54,0,8.44-2.38,8.44-7S270,243.1,270,243.1"/><path class="cls-12" d="M288.76,252.31h-7a.44.44,0,0,1-.45-.45v-6.25a.44.44,0,0,1,.45-.45h7c3.29,0,4.77,1,4.77,3.54s-1.42,3.61-4.77,3.61m-7-16.69h6.83c2.52,0,3.8,1.1,3.8,3.1s-1.28,3.09-3.8,3.09H281.8a.44.44,0,0,1-.45-.45v-5.28a.45.45,0,0,1,.45-.46h0m12,7.48a5.19,5.19,0,0,0,2.64-4.71c0-3.67-2.84-6.12-6.9-6.12H277.94a.44.44,0,0,0-.45.45h0v22.62a.44.44,0,0,0,.45.45H289c5.54,0,8.44-2.38,8.44-7s-3.67-5.67-3.67-5.67"/><path class="cls-3" d="M210,344.38c-13.88,6,1.86-19.39,1.86-19.39s-34.4-18.86-36.89-35.7c39.9,12.07,84.65,18.4,84.65,18.4,15.39,2.13,22.44,7.15,28.18,12a28.57,28.57,0,0,1,5.19,6.54,7,7,0,0,1,.77,5.18,13.55,13.55,0,0,1-4.79,6.92,10.86,10.86,0,0,1-4.76,1.91S221.75,339.33,210,344.38Z"/></svg>