<svg xmlns="http://www.w3.org/2000/svg" xmlns:xlink="http://www.w3.org/1999/xlink" viewBox="0 0 600 600"><defs><style>.cls-1{fill:none;}.cls-2{fill:url(#Degradado_sin_nombre_145);}.cls-3{fill:#d4edfc;}.cls-4{fill:#ecf8f9;}.cls-5{fill:#65a3df;}.cls-11,.cls-6{opacity:0.5;isolation:isolate;}.cls-6{fill:url(#Degradado_sin_nombre_29);}.cls-7{fill:#1d447d;}.cls-8{fill:#004481;}.cls-9{fill:#b8d7e8;}.cls-10{fill:#043263;}.cls-11{fill:url(#Degradado_sin_nombre_32);}.cls-12{fill:#2dcccd;}</style><linearGradient id="Degradado_sin_nombre_145" x1="186.79" y1="-5533.27" x2="442.55" y2="-6014.28" gradientTransform="matrix(1, 0, 0, -1, 0, -5494)" gradientUnits="userSpaceOnUse"><stop offset="0" stop-color="#1c2645" stop-opacity="0.5"/><stop offset="1" stop-color="#1c2645" stop-opacity="0"/></linearGradient><linearGradient id="Degradado_sin_nombre_29" x1="-254.21" y1="-6321.58" x2="-76.2" y2="-6321.58" gradientTransform="translate(175.45 -6048.16) rotate(180)" gradientUnits="userSpaceOnUse"><stop offset="0.01" stop-color="#043263" stop-opacity="0.2"/><stop offset="1" stop-color="#043263" stop-opacity="0"/></linearGradient><linearGradient id="Degradado_sin_nombre_32" x1="352.59" y1="-5672.79" x2="448.79" y2="-5769" gradientTransform="matrix(1, 0, 0, -1, 0, -5494)" gradientUnits="userSpaceOnUse"><stop offset="0" stop-color="#fff" stop-opacity="0.5"/><stop offset="0.87" stop-color="#fff" stop-opacity="0"/><stop offset="1" stop-color="#eaf6f7" stop-opacity="0.2"/></linearGradient></defs><title>1</title><g id="Cuadrados_Blancos" data-name="Cuadrados Blancos"><rect class="cls-1" width="600" height="600"/></g><g id="Capa_28" data-name="Capa 28"><path class="cls-2" d="M562.61,288a104.86,104.86,0,0,0-185.44-67.15H133.77A8.79,8.79,0,0,0,125,229.6V405.23a8.8,8.8,0,0,0,8.76,8.76H366l-37.17,64.38a2.51,2.51,0,0,0-3.38.94l-8.36,14.47a2.52,2.52,0,0,0,.93,3.44l27,15.58a2.53,2.53,0,0,0,3.44-.92l8.35-14.47a2.52,2.52,0,0,0-.87-3.4l46.19-80H517a7.06,7.06,0,0,0,7.09-7v-.55a7.81,7.81,0,0,0,.09-1.18V369.09A104.77,104.77,0,0,0,562.61,288Zm-22.67,0-78.43-82.14"/><path class="cls-3" d="M477.41,370H95.77A8.79,8.79,0,0,1,87,361.23V185.6a8.8,8.8,0,0,1,8.76-8.76H477.41a8.78,8.78,0,0,1,8.76,8.76V361.23a8.73,8.73,0,0,1-8.69,8.77Z"/><path class="cls-4" d="M457.92,242.71h-96a4.86,4.86,0,1,1-.44-9.71h96.44a4.86,4.86,0,1,1,.44,9.71Z"/><path class="cls-4" d="M361.88,283.45H118a4.85,4.85,0,1,1,0-9.7H362a4.8,4.8,0,0,1,4.85,4.75v.1A4.94,4.94,0,0,1,361.88,283.45Z"/><path class="cls-4" d="M361.88,303.83H118a4.85,4.85,0,1,1,0-9.7H362a4.8,4.8,0,0,1,4.85,4.75v.1a4.89,4.89,0,0,1-4.93,4.85Z"/><path class="cls-5" d="M458,338.75H118a4.85,4.85,0,1,1,0-9.7H458.12a4.81,4.81,0,0,1,4.88,4.74v.11a4.87,4.87,0,0,1-4.91,4.85Z"/><path class="cls-6" d="M479.07,176.84H338.13L243.35,370H479a7.06,7.06,0,0,0,7.09-7v-.06h0V184a7,7,0,0,0-6.84-7.16Z"/><path class="cls-7" d="M207.28,207.06l-10.51,20a.67.67,0,0,1-.87.27l-.27-.27-10.51-20a.71.71,0,0,0-.52-.35h-5.08a.41.41,0,0,0-.44.38v.06c0,.09,0,.18.09.18l16.55,30.92a.61.61,0,0,0,.79.26l.26-.26,16.56-30.92a.51.51,0,0,0-.18-.62c-.08,0-.17-.09-.26-.09h-5.08a1,1,0,0,0-.53.44"/><path class="cls-7" d="M213.24,233.78l10.51-20a.69.69,0,0,1,.88-.27l.26.27,10.51,20a.75.75,0,0,0,.53.35H241a.42.42,0,0,0,.44-.4v0c0-.09,0-.17-.09-.17L224.8,202.59a.6.6,0,0,0-.78-.26l-.27.26-16.47,30.84a.52.52,0,0,0,.18.61c.09,0,.09.09.17.09h5.09a.82.82,0,0,0,.52-.35"/><path class="cls-7" d="M134.75,234h-9.46a.59.59,0,0,1-.61-.57v0h0v-8.5a.59.59,0,0,1,.57-.61h9.5c4.47,0,6.49,1.31,6.49,4.82s-1.93,4.9-6.49,4.9m-9.46-22.69h9.29c3.42,0,5.17,1.49,5.17,4.21s-1.75,4.2-5.17,4.2h-9.29a.59.59,0,0,1-.61-.57v0h0V212a.6.6,0,0,1,.58-.62h0m16.21,10.17a7,7,0,0,0,3.59-6.4c0-5-3.85-8.32-9.37-8.32H120a.59.59,0,0,0-.61.57v0h0v30.75a.59.59,0,0,0,.57.61h15c7.53,0,11.47-3.24,11.47-9.55s-5-7.7-5-7.7"/><path class="cls-7" d="M167,234h-9.46a.59.59,0,0,1-.61-.57v-8.54a.59.59,0,0,1,.57-.61H167c4.47,0,6.48,1.31,6.48,4.82S171.55,234,167,234m-9.46-22.69h9.28c3.42,0,5.17,1.49,5.17,4.21s-1.75,4.2-5.17,4.2h-9.28a.59.59,0,0,1-.61-.57V212a.6.6,0,0,1,.58-.62h0m16.29,10.17a7,7,0,0,0,3.59-6.4c0-5-3.85-8.32-9.37-8.32H152.27a.59.59,0,0,0-.61.57v0h0v30.75a.59.59,0,0,0,.57.61h15.11c7.53,0,11.48-3.24,11.48-9.55s-5-7.7-5-7.7"/><path class="cls-1" d="M378.71,205.22a9.66,9.66,0,0,1,9.57-9.75h97.77a82.18,82.18,0,0,0-147.32,62.7h57.78a9.66,9.66,0,0,1,9.75,9.57v.18a10,10,0,0,1-9.95,9.75H344.72a82.3,82.3,0,0,0,14,21.45h37.76a9.66,9.66,0,0,1,9.75,9.57v.18a9.83,9.83,0,0,1-9.91,9.75H385.23A82.2,82.2,0,0,0,496.64,215H388.46a9.66,9.66,0,0,1-9.75-9.57Z"/><path class="cls-8" d="M283.19,449.16l76.65-133.38h0l27.21,15.64h0L310.4,464.8a2.53,2.53,0,0,1-3.45.93l-22.83-13.12A2.53,2.53,0,0,1,283.19,449.16Z"/><path class="cls-9" d="M501.94,244a82.23,82.23,0,1,1-82.24-82.24A82.24,82.24,0,0,1,501.94,244"/><path class="cls-10" d="M419.7,348.89A104.91,104.91,0,1,1,524.61,244v0A105,105,0,0,1,419.7,348.89Zm0-187.14A82.24,82.24,0,1,0,501.94,244a82.24,82.24,0,0,0-82.24-82.25Z"/><path class="cls-11" d="M460.63,172.7a82.2,82.2,0,0,0-82.16,142.39Z"/><rect class="cls-12" x="288.06" y="433.5" width="21.74" height="36.19" rx="2.52" transform="translate(-241.63 484.68) rotate(-60)"/><path class="cls-4" d="M388.46,195.47a9.75,9.75,0,0,0,0,19.5H496.64a82.25,82.25,0,0,0-10.59-19.5Z"/><path class="cls-4" d="M406.26,267.92a9.66,9.66,0,0,0-9.57-9.75h-58a81.11,81.11,0,0,0,6,19.5h51.59A10,10,0,0,0,406.26,267.92Z"/><path class="cls-4" d="M406.26,308.87a9.66,9.66,0,0,0-9.57-9.75H358.75a82.64,82.64,0,0,0,26.48,19.5h11.08a9.83,9.83,0,0,0,9.95-9.71Z"/></g></svg>