<?xml version="1.0" encoding="utf-8"?>
<!-- Generator: Adobe Illustrator 23.0.1, SVG Export Plug-In . SVG Version: 6.00 Build 0)  -->
<svg version="1.1" id="Contenido" xmlns="http://www.w3.org/2000/svg" xmlns:xlink="http://www.w3.org/1999/xlink" x="0px" y="0px"
	 viewBox="0 0 600 600" style="enable-background:new 0 0 600 600;" xml:space="preserve">
<style type="text/css">
	.st0{fill:url(#SVGID_1_);}
	.st1{fill:#D4EDFC;}
	.st2{fill:url(#SVGID_2_);}
	.st3{fill:#EAF9FA;}
	.st4{fill:#49A5E6;}
	.st5{fill:#004481;}
</style>
<title>_</title>
<linearGradient id="SVGID_1_" gradientUnits="userSpaceOnUse" x1="266.2803" y1="409.4495" x2="433.7197" y2="94.5505" gradientTransform="matrix(1 0 0 -1 0 602)">
	<stop  offset="0" style="stop-color:#192647"/>
	<stop  offset="0" style="stop-color:#192647;stop-opacity:0.5"/>
	<stop  offset="1" style="stop-color:#192647;stop-opacity:0"/>
</linearGradient>
<path class="st0" d="M557,441.5c1.7,0,3-1.3,3-3v-177c0-1.7-1.3-3-3-3H143c-1.7,0-3,1.3-3,3v177c0,1.7,1.3,3,3,3H557z"/>
<path class="st1" d="M507,391.5c1.7,0,3-1.3,3-3v-177c0-1.7-1.3-3-3-3H93c-1.7,0-3,1.3-3,3v177c0,1.7,1.3,3,3,3H507z"/>
<linearGradient id="SVGID_2_" gradientUnits="userSpaceOnUse" x1="510" y1="302" x2="309" y2="302" gradientTransform="matrix(1 0 0 -1 0 602)">
	<stop  offset="0" style="stop-color:#043263;stop-opacity:0.1"/>
	<stop  offset="1" style="stop-color:#043263;stop-opacity:0"/>
</linearGradient>
<path class="st2" d="M510,388.5v-177c0-1.7-1.3-3-3-3h-98.7l-99.3,183h198C508.7,391.5,510,390.2,510,388.5z"/>
<g>
	<path class="st3" d="M474.7,262h-99c-2.8,0-5-2.2-5-5s2.2-5,5-5h99c2.8,0,5,2.2,5,5S477.5,262,474.7,262z"/>
</g>
<g>
	<path class="st3" d="M375.7,304H124.3c-2.8,0-5-2.2-5-5c0-2.8,2.2-5,5-5h251.5c2.8,0,5,2.2,5,5C380.7,301.8,378.5,304,375.7,304z"
		/>
</g>
<g>
	<path class="st3" d="M375.7,325H124.3c-2.8,0-5-2.2-5-5s2.2-5,5-5h251.5c2.8,0,5,2.2,5,5S378.5,325,375.7,325z"/>
</g>
<g>
	<path class="st4" d="M474.8,361H124.3c-2.8,0-5-2.2-5-5s2.2-5,5-5h350.6c2.8,0,5,2.2,5,5S477.6,361,474.8,361z"/>
</g>
<path class="st5" d="M200.2,235.1l-9.4,17.9c-0.2,0.3-0.5,0.4-0.8,0.2c-0.1-0.1-0.2-0.1-0.2-0.2l-9.4-17.9c-0.1-0.2-0.3-0.3-0.5-0.3
	h-4.6c-0.2,0-0.4,0.2-0.4,0.4c0,0.1,0,0.1,0.1,0.2l14.9,27.8c0.1,0.3,0.5,0.4,0.7,0.3c0.1-0.1,0.2-0.2,0.3-0.3l14.9-27.8
	c0.1-0.2,0-0.4-0.2-0.5c0,0,0,0,0,0c-0.1,0-0.1,0-0.2,0h-4.6C200.5,234.8,200.3,234.9,200.2,235.1"/>
<path class="st5" d="M205.6,259l9.4-18c0.2-0.3,0.5-0.4,0.8-0.2c0.1,0,0.2,0.1,0.2,0.2l9.4,18c0.1,0.2,0.3,0.3,0.5,0.3h4.6
	c0.2,0,0.4-0.2,0.4-0.4c0-0.1,0-0.1,0-0.2L216,230.9c-0.1-0.3-0.5-0.4-0.7-0.2c0,0,0,0,0,0c-0.1,0-0.2,0.1-0.2,0.2l-14.9,27.8
	c-0.1,0.2,0,0.4,0.2,0.5c0,0,0,0,0,0c0.1,0,0.1,0,0.2,0h4.6C205.3,259.3,205.5,259.2,205.6,259"/>
<path class="st5" d="M135,259.3h-8.5c-0.3,0-0.5-0.2-0.6-0.5v-7.6c0-0.3,0.2-0.6,0.5-0.6h0h8.5c4,0,5.9,1.1,5.9,4.4
	C140.9,258.2,139.1,259.3,135,259.3 M126.5,239h8.4c3.1,0,4.7,1.3,4.7,3.8s-1.6,3.8-4.7,3.8h-8.4c-0.3,0-0.6-0.2-0.6-0.6l0,0l0,0
	v-6.4C126,239.3,126.2,239,126.5,239L126.5,239L126.5,239 M141.1,248c2.1-1.1,3.3-3.4,3.2-5.7c0-4.5-3.5-7.5-8.4-7.5h-14.1
	c-0.3,0-0.5,0.2-0.6,0.5c0,0,0,0,0,0l0,0v27.6c0,0.3,0.2,0.5,0.6,0.5h13.5c6.8,0,10.4-2.9,10.4-8.6C145.9,251.8,144,249,141.1,248"
	/>
<path class="st5" d="M164.1,259.3h-8.5c-0.3,0-0.5-0.2-0.6-0.5l0,0v-7.6c0-0.3,0.2-0.6,0.6-0.6l0,0h8.5c4,0,5.9,1.1,5.9,4.4
	C169.9,258.2,168.1,259.3,164.1,259.3 M155.6,239h8.4c3.1,0,4.7,1.3,4.7,3.8s-1.6,3.8-4.7,3.8h-8.4c-0.3,0-0.5-0.3-0.5-0.6l0,0v-6.4
	C155,239.3,155.3,239,155.6,239L155.6,239 M170.2,248.1c2.1-1.1,3.3-3.4,3.2-5.7c0-4.5-3.5-7.5-8.4-7.5h-14.2
	c-0.3,0-0.6,0.2-0.6,0.6l0,0l0,0V263c0,0.3,0.2,0.5,0.5,0.5h13.5c6.8,0,10.4-2.9,10.4-8.6C174.9,251.9,173,249.1,170.2,248.1"/>
</svg>
