<svg id="Contenido" xmlns="http://www.w3.org/2000/svg" xmlns:xlink="http://www.w3.org/1999/xlink" viewBox="0 0 600 600"><defs><style>.cls-1{fill:url(#Degradado_sin_nombre_74);}.cls-2{fill:#d4edfc;}.cls-3{fill:#49a5e6;}.cls-4{fill:#2dcccd;}.cls-5{fill:url(#Degradado_sin_nombre_2);}.cls-6{fill:#274682;}.cls-7{opacity:0.5;isolation:isolate;fill:url(#Degradado_sin_nombre_67);}.cls-8{fill:#5ac4c4;}.cls-9{fill:none;}</style><linearGradient id="Degradado_sin_nombre_74" x1="213.36" y1="172.14" x2="418.84" y2="558.6" gradientUnits="userSpaceOnUse"><stop offset="0" stop-color="#082146" stop-opacity="0.5"/><stop offset="1" stop-color="#082146" stop-opacity="0"/></linearGradient><linearGradient id="Degradado_sin_nombre_2" x1="296.33" y1="230.56" x2="439.65" y2="373.88" gradientUnits="userSpaceOnUse"><stop offset="0.01" stop-color="#edf8f9" stop-opacity="0.5"/><stop offset="1" stop-color="#edf8f9" stop-opacity="0.1"/><stop offset="1" stop-color="#ebf6f7" stop-opacity="0.2"/></linearGradient><linearGradient id="Degradado_sin_nombre_67" x1="103.13" y1="301.86" x2="255.9" y2="301.86" gradientUnits="userSpaceOnUse"><stop offset="0" stop-color="#eaf9f9"/><stop offset="1" stop-color="#e6f5f5" stop-opacity="0.2"/></linearGradient></defs><path class="cls-1" d="M489.71,318.48A18.07,18.07,0,0,1,480,302.31v-48.1A26.35,26.35,0,0,0,492.19,232V225.7a15,15,0,0,0-15-15H401.43a15,15,0,0,0-15,15V232a26.35,26.35,0,0,0,12.22,22.18v48.28a18.15,18.15,0,0,1-10.18,16.21,112.83,112.83,0,0,0-48.67,47.21l-29.58-83.25a44,44,0,0,1-2.54-14.73V214.55a26.32,26.32,0,0,0,12.22-22.17v-6.33a15,15,0,0,0-15-15H219.14a15,15,0,0,0-15,15v6.33a26.32,26.32,0,0,0,12.22,22.17v53.38a44,44,0,0,1-2.54,14.73L141.11,487.29a34,34,0,0,0,32,45.38H350.89a34.05,34.05,0,0,0,27.78-14.39c.56-.8,1.07-1.62,1.56-2.45a111.83,111.83,0,0,0,57.47,16.83h1.63a113,113,0,0,0,50.38-214.19Z"/><path class="cls-2" d="M416,252.31V203a12.08,12.08,0,0,1,6.17-10.36A12.24,12.24,0,0,0,428.19,182V175.7a1,1,0,0,0-1-1H351.43a1,1,0,0,0-1,1V182a12.21,12.21,0,0,0,6.05,10.55A12.11,12.11,0,0,1,362.65,203v49.54a32.22,32.22,0,0,1-17.87,28.71,99,99,0,0,0-54.48,88.61c.08,53.81,43.79,98.1,97.6,98.85A99,99,0,0,0,433.46,281,32,32,0,0,1,416,252.31Z"/><path class="cls-2" d="M389.33,482.67H387.7c-61.33-.86-111.31-51.47-111.4-112.83A112.5,112.5,0,0,1,338.47,268.7a18.15,18.15,0,0,0,10.18-16.21V204.21A26.35,26.35,0,0,1,336.43,182V175.7a15,15,0,0,1,15-15h75.76a15,15,0,0,1,15,15V182A26.35,26.35,0,0,1,430,204.21v48.1a18.07,18.07,0,0,0,9.74,16.17,113,113,0,0,1-50.38,214.19Zm-17.06-294A25.73,25.73,0,0,1,376.65,203v49.53a46,46,0,0,1-25.57,41.21,84.66,84.66,0,0,0-46.78,76.09c.07,46.15,37.66,84.23,83.79,84.87a85,85,0,0,0,39.12-161.12A46.3,46.3,0,0,1,402,252.31V203a25.65,25.65,0,0,1,4.39-14.25Z"/><path class="cls-3" d="M416,252.31V203a12.08,12.08,0,0,1,6.17-10.36A12.24,12.24,0,0,0,428.19,182V177.7a3,3,0,0,0-3-3H353.43a3,3,0,0,0-3,3V182a12.21,12.21,0,0,0,6.05,10.55A12.11,12.11,0,0,1,362.65,203v49.54a32.22,32.22,0,0,1-17.87,28.71,99,99,0,0,0-54.48,88.61c.08,53.81,43.79,98.1,97.6,98.85A99,99,0,0,0,433.46,281,32,32,0,0,1,416,252.31Z"/><path class="cls-4" d="M488,361.9c-11,2.81-21.7,5.94-32,9.49l-30,10.25c-39.33,13.4-90.2,15.83-133.74,7.35,9,44.78,48.43,79,95.69,79.67a99,99,0,0,0,100.42-99C488.32,367,488.21,364.46,488,361.9Z"/><path class="cls-5" d="M433.46,281A32,32,0,0,1,416,252.31V203a12.08,12.08,0,0,1,6.17-10.36A12.24,12.24,0,0,0,428.19,182V177.7a3,3,0,0,0-3-3H353.43a3,3,0,0,0-3,3V182a12.21,12.21,0,0,0,6.05,10.55A12.11,12.11,0,0,1,362.65,203v49.54a32.22,32.22,0,0,1-17.87,28.71,99,99,0,0,0-54.48,88.61c.06,41.2,25.69,76.81,61.84,91.58l92.45-173.88A100.14,100.14,0,0,0,433.46,281Z"/><path class="cls-2" d="M123.15,468.67H300.89A20,20,0,0,0,319.74,442L247,237.35a57.94,57.94,0,0,1-3.35-19.42V163.3a12.11,12.11,0,0,1,6.17-10.37,12.21,12.21,0,0,0,6.05-10.55v-6.33a1,1,0,0,0-1-1H169.14a1,1,0,0,0-1,1v6.33a12.21,12.21,0,0,0,6.05,10.55,12.11,12.11,0,0,1,6.17,10.37v54.63A57.94,57.94,0,0,1,177,237.35L104.3,442A20,20,0,0,0,123.15,468.67Z"/><path class="cls-2" d="M300.89,482.67H123.15a34,34,0,0,1-32-45.38l72.71-204.63a44,44,0,0,0,2.54-14.73V164.55a26.32,26.32,0,0,1-12.22-22.17v-6.33a15,15,0,0,1,15-15H254.9a15,15,0,0,1,15,15v6.33a26.32,26.32,0,0,1-12.22,22.17v53.38a44,44,0,0,0,2.54,14.73l72.71,204.63a34,34,0,0,1-32,45.38ZM190,149.05a25.62,25.62,0,0,1,4.39,14.25v54.63A71.74,71.74,0,0,1,190.2,242L117.49,446.66a6,6,0,0,0,5.66,8H300.89a6,6,0,0,0,5.66-8L233.84,242a71.74,71.74,0,0,1-4.16-24.1V163.3a25.69,25.69,0,0,1,4.38-14.25Z"/><path class="cls-3" d="M123.15,468.67H300.89A20,20,0,0,0,319.74,442L247,237.35a57.94,57.94,0,0,1-3.35-19.42V163.3a12.11,12.11,0,0,1,6.17-10.37,12.21,12.21,0,0,0,6.05-10.55v-4.33a3,3,0,0,0-3-3H171.14a3,3,0,0,0-3,3v4.33a12.21,12.21,0,0,0,6.05,10.55,12.11,12.11,0,0,1,6.17,10.37v54.63A57.94,57.94,0,0,1,177,237.35L104.3,442A20,20,0,0,0,123.15,468.67Z"/><path class="cls-6" d="M319.74,442,273.27,311.21c-7.21,1.85-14.24,3.9-21,6.23l-19.72,6.73c-25.9,8.82-59.42,10.4-88.06,4.76L104.3,442a20,20,0,0,0,18.85,26.7H300.89A20,20,0,0,0,319.74,442Z"/><path class="cls-7" d="M247,237.35a57.94,57.94,0,0,1-3.35-19.42V163.3a12.11,12.11,0,0,1,6.17-10.37,12.21,12.21,0,0,0,6.05-10.55v-4.33a3,3,0,0,0-3-3H171.14a3,3,0,0,0-3,3v4.33a12.21,12.21,0,0,0,6.05,10.55,12.11,12.11,0,0,1,6.17,10.37v54.63A57.94,57.94,0,0,1,177,237.35L104.3,442a20,20,0,0,0,18.85,26.7h16.61L253.33,255.08Z"/><circle class="cls-8" cx="373.61" cy="131.29" r="15"/><circle class="cls-8" cx="400.27" cy="98.04" r="10"/><circle class="cls-8" cx="412.24" cy="136.29" r="10"/><rect class="cls-9" width="600" height="600"/></svg>