<svg id="Contenido" xmlns="http://www.w3.org/2000/svg" xmlns:xlink="http://www.w3.org/1999/xlink" viewBox="0 0 600 600"><defs><style>.cls-1{fill:url(#Degradado_sin_nombre_16);}.cls-2{fill:#028484;}.cls-3{fill:#f8cd50;}.cls-4{fill:url(#Degradado_sin_nombre_358);}.cls-5{fill:#2dcccd;}.cls-6{fill:#02a5a5;}.cls-7{opacity:0.85;}.cls-8{fill:#1464a5;}.cls-9{fill:#eaf9fa;}.cls-10{fill:url(#Degradado_sin_nombre_18);}.cls-11{fill:#043263;}.cls-12{fill:#49a5e6;}.cls-13{fill:#d4edfc;}.cls-14{fill:url(#Degradado_sin_nombre_8);}.cls-15{fill:url(#Degradado_sin_nombre_358-2);}.cls-16{fill:none;}</style><linearGradient id="Degradado_sin_nombre_16" x1="254.44" y1="199.54" x2="402.44" y2="477.88" gradientUnits="userSpaceOnUse"><stop offset="0" stop-color="#1c2645"/><stop offset="0" stop-color="#1c2645" stop-opacity="0.5"/><stop offset="1" stop-color="#1c2645" stop-opacity="0"/></linearGradient><linearGradient id="Degradado_sin_nombre_358" x1="374.45" y1="133.88" x2="400.03" y2="159.46" gradientUnits="userSpaceOnUse"><stop offset="0" stop-color="#fff" stop-opacity="0.7"/><stop offset="1" stop-color="#fff" stop-opacity="0"/></linearGradient><linearGradient id="Degradado_sin_nombre_18" x1="516.81" y1="286.58" x2="355.16" y2="286.58" gradientUnits="userSpaceOnUse"><stop offset="0" stop-color="#028484" stop-opacity="0.6"/><stop offset="1" stop-color="#028484" stop-opacity="0"/></linearGradient><linearGradient id="Degradado_sin_nombre_8" x1="358" y1="331.6" x2="166.96" y2="331.6" gradientUnits="userSpaceOnUse"><stop offset="0" stop-color="#043263" stop-opacity="0.4"/><stop offset="1" stop-color="#043263" stop-opacity="0"/></linearGradient><linearGradient id="Degradado_sin_nombre_358-2" x1="196.65" y1="157.94" x2="222.23" y2="183.51" xlink:href="#Degradado_sin_nombre_358"/></defs><title>-</title><path class="cls-1" d="M545.38,359.85c.33-1.37.63-2.74.9-4.12v0c.27-1.34.51-2.68.72-4a1.43,1.43,0,0,0,0-.22c.21-1.32.39-2.64.55-4,0-.19,0-.38.07-.56.14-1.25.27-2.5.37-3.76a2.83,2.83,0,0,0,0-.29c.11-1.29.18-2.59.24-3.89l0-.86c0-1.31.08-2.63.08-4,0-1.17,0-2.34-.07-3.51,0-.23,0-.45,0-.67v0c0-.19,0-.39,0-.58,0-.82-.08-1.63-.14-2.44,0-.28,0-.56,0-.83s0-.42-.05-.62,0-.2,0-.3c-.07-.84-.14-1.68-.23-2.52,0-.22,0-.45-.08-.68l-.06-.55c0-.19,0-.37-.07-.56-.06-.56-.14-1.12-.21-1.68,0-.32-.09-.65-.14-1s-.13-.89-.2-1.33l0-.21c-.08-.5-.16-1-.25-1.48l-.06-.37c-.13-.74-.27-1.46-.42-2.19v-.05c-.07-.37-.15-.74-.22-1.12s-.13-.56-.19-.84c-.15-.72-.32-1.44-.49-2.15v-.06c0-.14-.07-.28-.11-.42s-.12-.54-.19-.81c-.28-1.1-.57-2.2-.88-3.29l-.09-.3c-.29-1-.59-2-.9-3l-.27-.8c-.3-.94-.62-1.87-.95-2.79l-.15-.43c-.39-1.08-.8-2.14-1.22-3.2-.08-.19-.16-.37-.23-.56-.36-.89-.74-1.77-1.12-2.65-.09-.22-.19-.44-.28-.65q-1.4-3.14-3-6.16l-.3-.56c-.47-.9-1-1.79-1.46-2.67a3.72,3.72,0,0,0-.19-.34c-.58-1-1.17-2-1.79-3a1.4,1.4,0,0,0-.1-.16c-.57-.92-1.15-1.84-1.74-2.74l-.29-.44c-1.28-1.93-2.63-3.83-4-5.68l-.2-.27c-.67-.87-1.34-1.73-2-2.58a1.56,1.56,0,0,1-.16-.2q-2.24-2.73-4.65-5.33l-.21-.23q-3.66-3.93-7.68-7.48l-.11-.09c-1.8-1.59-3.66-3.12-5.56-4.59l-.1-.07a108.56,108.56,0,0,0-8.94-6.2l-.08-.05c-2.06-1.29-4.18-2.5-6.33-3.65h0a109.07,109.07,0,0,0-17.66-7.51V218l.3.3a1,1,0,0,0,1.7-.71V196a6,6,0,0,0-6-6h-62a6,6,0,0,0-6,6h0v21.59a1.06,1.06,0,0,0,.05.31,1,1,0,0,0,.84.68,1,1,0,0,0,.82-.28l.29-.3v12.17a110.33,110.33,0,0,0-59,48.46q-2.22-1.87-4.52-3.66l-.11-.08q-5.1-3.92-10.57-7.33l-.09-.06q-3.67-2.28-7.49-4.32h0a129,129,0,0,0-26-10.43v-10.7l.3.3a1,1,0,0,0,1.7-.71V220.07a6,6,0,0,0-6-6h-62a6,6,0,0,0-6,6v21.59a1,1,0,0,0,1.71.71l.29-.3v10.7a130.21,130.21,0,0,0-91.4,94.79l0,.07c-.39,1.61-.74,3.23-1.07,4.87v.05c-.31,1.58-.6,3.17-.85,4.77a2,2,0,0,0,0,.26c-.25,1.56-.47,3.12-.66,4.7,0,.22,0,.44-.07.66-.17,1.47-.32,2.95-.44,4.43l0,.35c-.12,1.53-.21,3.06-.28,4.6l0,1c-.06,1.55-.1,3.1-.1,4.66s0,3.11.1,4.66l0,1c.07,1.54.16,3.07.28,4.59l0,.36c.12,1.48.27,3,.44,4.43,0,.22.05.44.07.66.19,1.58.41,3.15.66,4.7a2,2,0,0,0,0,.26c.25,1.6.54,3.19.85,4.76v.06c.33,1.64.68,3.25,1.07,4.86l0,.09a130.23,130.23,0,0,0,68.74,86.08l.13.07q5.17,2.55,10.6,4.66h0c1.14.44,2.29.87,3.44,1.28l.43.15c1.08.38,2.16.74,3.26,1.09l.35.12c2.43.77,4.9,1.48,7.39,2.11l.28.07q1.65.41,3.3.78l.84.18c1,.21,1.9.4,2.85.58l.93.18c1,.19,2.05.37,3.08.53l.62.11c1.25.19,2.51.37,3.78.53l.46,0c1.07.13,2.15.25,3.22.35l1.18.11,2.59.2,1.3.08,2.64.13,1.17,0c1.26,0,2.53.06,3.79.06A130.24,130.24,0,0,0,289,504.67c2.1-.48,4.18-1,6.23-1.6,1-.29,2.05-.6,3.07-.91q3.06-1,6-2.05,4.48-1.64,8.8-3.59a129.51,129.51,0,0,0,26.76-16.25c.82-.64,1.63-1.29,2.44-2a130.39,130.39,0,0,0,17.62-17.62c.66-.8,1.31-1.61,2-2.43a130.17,130.17,0,0,0,16.24-26.76c.62-1.38,1.22-2.78,1.79-4.19a111.16,111.16,0,0,0,9.71,5.45l.11.05q4.38,2.16,9,3.95h0q1.44.56,2.91,1.08l.36.12q1.36.48,2.76.93l.29.1c2.07.65,4.15,1.25,6.27,1.78l.23.06q1.38.35,2.79.66l.71.16,2.41.49.79.15c.87.16,1.73.31,2.61.45l.52.09c1.06.16,2.12.31,3.19.45l.41,0c.9.11,1.81.21,2.71.3l1,.09,2.19.17,1.1.07c.75,0,1.49.08,2.24.1l1,0c1.06,0,2.13,0,3.21,0,2.84,0,5.67-.11,8.46-.32q2.79-.21,5.55-.56a108.93,108.93,0,0,0,21.27-4.9c1.7-.57,3.39-1.19,5.05-1.85.83-.33,1.66-.66,2.48-1a110.78,110.78,0,0,0,14.23-7.28c.75-.46,1.5-.93,2.24-1.41,1.49-.95,3-1.94,4.39-3,.72-.51,1.43-1,2.14-1.56q2.11-1.59,4.16-3.27c.68-.56,1.35-1.13,2-1.7,1.33-1.15,2.64-2.34,3.91-3.55s2.52-2.46,3.73-3.73,2.4-2.58,3.55-3.91a109.73,109.73,0,0,0,14.79-21.91q1.21-2.37,2.32-4.81c.73-1.62,1.43-3.27,2.09-4.93s1.27-3.35,1.85-5.06q1.57-4.67,2.74-9.52Z"/><rect class="cls-2" x="370.8" y="141.95" width="70" height="60"/><path class="cls-3" d="M368.8,142v21.59a1,1,0,0,0,1.71.71l6.38-6.39a6,6,0,0,1,8.48,0l3.85,3.85a6,6,0,0,0,8.49,0l3.85-3.85a6,6,0,0,1,8.48,0l3.85,3.85a6,6,0,0,0,8.48,0l3.85-3.85a6,6,0,0,1,8.49,0l6.38,6.39a1,1,0,0,0,1.71-.71V142a6,6,0,0,0-6-6h-62A6,6,0,0,0,368.8,142Z"/><path class="cls-4" d="M374.8,136a6,6,0,0,0-6,6v21.59a1,1,0,0,0,1.71.71l6.38-6.39a6,6,0,0,1,8.48,0l3.85,3.85a6,6,0,0,0,8.49,0l2.09-2.09L412.38,136Z"/><circle class="cls-5" cx="406.81" cy="280.15" r="110"/><path class="cls-6" d="M296.81,280.15A109.82,109.82,0,0,0,302.13,314H511.5a110.52,110.52,0,0,0,0-67.69H302.13A109.71,109.71,0,0,0,296.81,280.15Z"/><g class="cls-7"><circle class="cls-8" cx="331.68" cy="237.84" r="0.89"/><path class="cls-8" d="M346.5,239.37a1.53,1.53,0,1,1,1.53-1.53A1.52,1.52,0,0,1,346.5,239.37Z"/><circle class="cls-8" cx="361.33" cy="237.84" r="1.98"/><path class="cls-8" d="M376.15,240.13a2.29,2.29,0,1,1,2.28-2.29A2.29,2.29,0,0,1,376.15,240.13Z"/><circle class="cls-8" cx="390.97" cy="237.84" r="2.46"/><path class="cls-8" d="M405.8,240.38a2.54,2.54,0,1,1,2.54-2.54A2.54,2.54,0,0,1,405.8,240.38Z"/><path class="cls-8" d="M420.62,240.3a2.46,2.46,0,1,1,2.46-2.46A2.46,2.46,0,0,1,420.62,240.3Z"/><circle class="cls-8" cx="435.45" cy="237.84" r="2.28"/><circle class="cls-8" cx="450.27" cy="237.84" r="1.98"/><circle class="cls-8" cx="465.1" cy="237.84" r="1.52"/><path class="cls-8" d="M479.92,238.74a.9.9,0,1,1,.89-.9A.89.89,0,0,1,479.92,238.74Z"/></g><g class="cls-7"><circle class="cls-8" cx="331.68" cy="322.46" r="0.89"/><path class="cls-8" d="M346.5,324a1.52,1.52,0,1,1,1.53-1.52A1.52,1.52,0,0,1,346.5,324Z"/><circle class="cls-8" cx="361.33" cy="322.46" r="1.98"/><path class="cls-8" d="M376.15,324.74a2.28,2.28,0,1,1,2.28-2.28A2.28,2.28,0,0,1,376.15,324.74Z"/><circle class="cls-8" cx="390.97" cy="322.46" r="2.46"/><path class="cls-8" d="M405.8,325a2.54,2.54,0,1,1,2.54-2.54A2.54,2.54,0,0,1,405.8,325Z"/><path class="cls-8" d="M420.62,324.92a2.46,2.46,0,1,1,2.46-2.46A2.46,2.46,0,0,1,420.62,324.92Z"/><circle class="cls-8" cx="435.45" cy="322.46" r="2.28"/><circle class="cls-8" cx="450.27" cy="322.46" r="1.98"/><circle class="cls-8" cx="465.1" cy="322.46" r="1.52"/><path class="cls-8" d="M479.92,323.35a.89.89,0,1,1,.89-.89A.89.89,0,0,1,479.92,323.35Z"/></g><path class="cls-9" d="M499.87,261.22a14.59,14.59,0,0,0-10.38,4.3l-20.12,20.12a1.21,1.21,0,0,1-.86.36,1.23,1.23,0,0,1-.86-.36l-20.11-20.12a14.68,14.68,0,0,0-20.76,0l-20.12,20.12a1.23,1.23,0,0,1-.86.36,1.21,1.21,0,0,1-.86-.36l-20.12-20.12a14.7,14.7,0,0,0-20.76,0L344,285.64a1.25,1.25,0,0,1-.87.36,1.23,1.23,0,0,1-.86-.36l-20.11-20.12a14.7,14.7,0,0,0-20.76,0l-4,4c-.34,3.5-.53,7-.53,10.62,0,2.9.12,5.77.34,8.61L310.87,275a1.23,1.23,0,0,1,1.72,0l20.11,20.12a14.68,14.68,0,0,0,20.76,0L373.58,275a1.23,1.23,0,0,1,1.72,0l20.12,20.12a14.68,14.68,0,0,0,20.76,0L436.29,275a1.23,1.23,0,0,1,.87-.35,1.21,1.21,0,0,1,.86.35l20.11,20.12a14.68,14.68,0,0,0,20.76,0L499,275a1.23,1.23,0,0,1,1.72,0l15.57,15.57c.33-3.44.51-6.93.51-10.46q0-4.23-.32-8.39l-6.24-6.24A14.59,14.59,0,0,0,499.87,261.22Z"/><path class="cls-10" d="M458.46,183,355.16,377.29A110,110,0,0,0,458.46,183Z"/><rect class="cls-11" x="193" y="166" width="70" height="60"/><circle class="cls-8" cx="228" cy="324" r="130"/><path class="cls-12" d="M98,324a129.91,129.91,0,0,0,6.28,40H351.72a130.53,130.53,0,0,0,0-80H104.28A129.91,129.91,0,0,0,98,324Z"/><circle class="cls-13" cx="228" cy="324" r="20"/><circle class="cls-13" cx="154" cy="324" r="15"/><path class="cls-5" d="M140.4,275.06a1.06,1.06,0,1,1,1.06-1.06A1.06,1.06,0,0,1,140.4,275.06Z"/><circle class="cls-5" cx="157.92" cy="274" r="1.8"/><path class="cls-5" d="M175.44,276.34a2.34,2.34,0,1,1,2.34-2.34A2.34,2.34,0,0,1,175.44,276.34Z"/><circle class="cls-5" cx="192.96" cy="274" r="2.7"/><path class="cls-5" d="M210.48,276.93a2.93,2.93,0,1,1,2.93-2.93A2.92,2.92,0,0,1,210.48,276.93Z"/><circle class="cls-5" cx="228" cy="274" r="3"/><path class="cls-5" d="M245.52,276.92a2.92,2.92,0,1,1,2.92-2.92A2.92,2.92,0,0,1,245.52,276.92Z"/><path class="cls-5" d="M263,276.69a2.7,2.7,0,1,1,2.69-2.69A2.69,2.69,0,0,1,263,276.69Z"/><circle class="cls-5" cx="280.56" cy="274" r="2.34"/><path class="cls-5" d="M298.08,275.8a1.8,1.8,0,1,1,1.8-1.8A1.8,1.8,0,0,1,298.08,275.8Z"/><circle class="cls-5" cx="315.6" cy="274" r="1.06"/><path class="cls-5" d="M140.4,375.06a1.06,1.06,0,1,1,1.06-1.06A1.06,1.06,0,0,1,140.4,375.06Z"/><circle class="cls-5" cx="157.92" cy="374" r="1.8"/><path class="cls-5" d="M175.44,376.34a2.34,2.34,0,1,1,2.34-2.34A2.34,2.34,0,0,1,175.44,376.34Z"/><circle class="cls-5" cx="192.96" cy="374" r="2.7"/><path class="cls-5" d="M210.48,376.93a2.93,2.93,0,1,1,2.93-2.93A2.92,2.92,0,0,1,210.48,376.93Z"/><circle class="cls-5" cx="228" cy="374" r="3"/><path class="cls-5" d="M245.52,376.92a2.92,2.92,0,1,1,2.92-2.92A2.92,2.92,0,0,1,245.52,376.92Z"/><path class="cls-5" d="M263,376.69a2.7,2.7,0,1,1,2.69-2.69A2.69,2.69,0,0,1,263,376.69Z"/><circle class="cls-5" cx="280.56" cy="374" r="2.34"/><path class="cls-5" d="M298.08,375.8a1.8,1.8,0,1,1,1.8-1.8A1.8,1.8,0,0,1,298.08,375.8Z"/><circle class="cls-5" cx="315.6" cy="374" r="1.06"/><circle class="cls-13" cx="302" cy="324" r="15"/><path class="cls-14" d="M289,209.2,167,438.8A130,130,0,0,0,289,209.2Z"/><path class="cls-3" d="M191,166.07v21.59a1,1,0,0,0,1.71.71l6.38-6.39a6,6,0,0,1,8.49,0l3.84,3.85a6,6,0,0,0,8.49,0l3.85-3.85a6,6,0,0,1,8.48,0l3.85,3.85a6,6,0,0,0,8.49,0l3.84-3.85a6,6,0,0,1,8.49,0l6.38,6.39a1,1,0,0,0,1.71-.71V166.07a6,6,0,0,0-6-6H197A6,6,0,0,0,191,166.07Z"/><path class="cls-15" d="M197,160.07a6,6,0,0,0-6,6v21.59a1,1,0,0,0,1.71.71l6.38-6.39a6,6,0,0,1,8.49,0l3.84,3.85a6,6,0,0,0,8.49,0l2.09-2.09,12.58-23.67Z"/><rect class="cls-16" width="600" height="600"/></svg>