<svg xmlns="http://www.w3.org/2000/svg" xmlns:xlink="http://www.w3.org/1999/xlink" viewBox="0 0 600 600"><defs><style>.cls-1{fill:none;}.cls-2{fill:url(#Degradado_sin_nombre_434);}.cls-3{fill:#028484;}.cls-4{fill:#f8cd50;}.cls-5{fill:url(#Degradado_sin_nombre_48);}.cls-6{fill:#2dcccd;}.cls-7{fill:#02a5a5;}.cls-8{opacity:0.85;}.cls-9{fill:#1464a5;}.cls-10{fill:#eaf9fa;}.cls-11{fill:url(#Degradado_sin_nombre_38);}.cls-12{fill:#043263;}.cls-13{fill:#004481;}.cls-14{fill:#49a5e6;}.cls-15{fill:#d4edfc;}.cls-16{fill:url(#Degradado_sin_nombre_114);}.cls-17{fill:url(#Degradado_sin_nombre_48-2);}</style><linearGradient id="Degradado_sin_nombre_434" x1="254.54" y1="7830.46" x2="402.46" y2="7552.27" gradientTransform="matrix(1, 0, 0, -1, 0, 8030)" gradientUnits="userSpaceOnUse"><stop offset="0" stop-color="#1c2645" stop-opacity="0.5"/><stop offset="1" stop-color="#1c2645" stop-opacity="0"/></linearGradient><linearGradient id="Degradado_sin_nombre_48" x1="374.45" y1="7896.14" x2="400.03" y2="7870.56" gradientTransform="matrix(1, 0, 0, -1, 0, 8030)" gradientUnits="userSpaceOnUse"><stop offset="0" stop-color="#fff" stop-opacity="0.7"/><stop offset="1" stop-color="#fff" stop-opacity="0"/></linearGradient><linearGradient id="Degradado_sin_nombre_38" x1="516.85" y1="7743.41" x2="355.16" y2="7743.41" gradientTransform="matrix(1, 0, 0, -1, 0, 8030)" gradientUnits="userSpaceOnUse"><stop offset="0" stop-color="#028484" stop-opacity="0.6"/><stop offset="1" stop-color="#028484" stop-opacity="0"/></linearGradient><linearGradient id="Degradado_sin_nombre_114" x1="358.03" y1="7698.39" x2="167" y2="7698.39" gradientTransform="matrix(1, 0, 0, -1, 0, 8030)" gradientUnits="userSpaceOnUse"><stop offset="0" stop-color="#072146" stop-opacity="0.8"/><stop offset="1" stop-color="#072146" stop-opacity="0"/></linearGradient><linearGradient id="Degradado_sin_nombre_48-2" x1="196.65" y1="7872.06" x2="222.23" y2="7846.49" xlink:href="#Degradado_sin_nombre_48"/></defs><title>11</title><g id="Cuadrados_Blancos" data-name="Cuadrados Blancos"><rect class="cls-1" width="600" height="600"/></g><g id="Capa_21" data-name="Capa 21"><path class="cls-2" d="M545.38,359.85c.33-1.37.63-2.74.9-4.12h0c.27-1.34.51-2.68.72-4a.81.81,0,0,0,0-.22c.21-1.32.39-2.64.55-4a1.51,1.51,0,0,1,.07-.56c.14-1.25.27-2.5.37-3.76v-.29c.11-1.29.18-2.59.24-3.89v-.86c0-1.31.08-2.63.08-4,0-1.17,0-2.34-.07-3.51V330h0v-.58c0-.82-.08-1.63-.14-2.44v-.83a2.32,2.32,0,0,0-.05-.62c0-.2,0-.2,0-.3-.07-.84-.14-1.68-.23-2.52a2,2,0,0,0-.08-.68l-.06-.55a1.54,1.54,0,0,0-.07-.56c-.06-.56-.14-1.12-.21-1.68a7.5,7.5,0,0,0-.14-1c0-.35-.13-.89-.2-1.33v-.21c-.08-.5-.16-1-.25-1.48l-.06-.37c-.13-.74-.27-1.46-.42-2.19v-.05c-.07-.37-.15-.74-.22-1.12s-.13-.56-.19-.84c-.15-.72-.32-1.44-.49-2.15v-.06a1.63,1.63,0,0,0-.11-.42c0-.14-.12-.54-.19-.81-.28-1.1-.57-2.2-.88-3.29l-.09-.3q-.43-1.5-.9-3l-.27-.8c-.3-.94-.62-1.87-1-2.79l-.15-.43c-.39-1.08-.8-2.14-1.22-3.2-.08-.19-.16-.37-.23-.56-.36-.89-.74-1.77-1.12-2.65-.09-.22-.19-.44-.28-.65-.93-2.09-1.93-4.15-3-6.16l-.3-.56c-.47-.9-1-1.79-1.46-2.67a3.72,3.72,0,0,0-.19-.34c-.58-1-1.17-2-1.79-3a.86.86,0,0,0-.1-.16c-.57-.92-1.15-1.84-1.74-2.74l-.29-.44c-1.28-1.93-2.63-3.83-4-5.68l-.2-.27-2-2.58a1.56,1.56,0,0,1-.16-.2q-2.23-2.73-4.65-5.33l-.21-.23q-3.66-3.93-7.68-7.48l-.11-.09c-1.8-1.59-3.66-3.12-5.56-4.59l-.1-.07c-2.87-2.21-5.86-4.28-8.94-6.2l-.08-.05c-2.06-1.29-4.18-2.5-6.33-3.65h0a108.55,108.55,0,0,0-17.66-7.51V218l.3.3a1,1,0,0,0,1.41,0,1,1,0,0,0,.29-.7V196a6,6,0,0,0-6-6h-62a6,6,0,0,0-6,6h0v21.59a1.06,1.06,0,0,0,.05.31,1,1,0,0,0,1.66.4l.29-.3v12.17a110.33,110.33,0,0,0-59,48.46q-2.22-1.87-4.52-3.66l-.11-.08q-5.1-3.92-10.57-7.33l-.09-.06c-2.45-1.52-4.94-3-7.49-4.32h0a128.8,128.8,0,0,0-26-10.43v-10.7l.3.3a1,1,0,0,0,1.41,0,1,1,0,0,0,.29-.7V220.07a6,6,0,0,0-6-6h-62a6,6,0,0,0-6,6h0v21.59a1,1,0,0,0,1,1,1,1,0,0,0,.72-.3l.29-.3v10.7a130.21,130.21,0,0,0-91.4,94.79v.07c-.39,1.61-.74,3.23-1.07,4.87v.05c-.31,1.58-.6,3.17-.85,4.77a1.13,1.13,0,0,0,0,.26c-.25,1.56-.47,3.12-.66,4.7a2.12,2.12,0,0,1-.07.66c-.17,1.47-.32,2.95-.44,4.43v.35c-.12,1.53-.21,3.06-.28,4.6v1c-.06,1.55-.1,3.1-.1,4.66s0,3.11.1,4.66v1c.07,1.54.16,3.07.28,4.59v.36c.12,1.48.27,3,.44,4.43,0,.22.05.44.07.66.19,1.58.41,3.15.66,4.7a1.13,1.13,0,0,0,0,.26c.25,1.6.54,3.19.85,4.76v.06c.33,1.64.68,3.25,1.07,4.86v.09a130.21,130.21,0,0,0,68.74,86.08l.13.07q5.17,2.55,10.6,4.66h0c1.14.44,2.29.87,3.44,1.28l.43.15c1.08.38,2.16.74,3.26,1.09l.35.12c2.43.77,4.9,1.48,7.39,2.11l.28.07,3.3.78.84.18c1,.21,1.9.4,2.85.58l.93.18c1,.19,2.05.37,3.08.53l.62.11c1.25.19,2.51.37,3.78.53h.46c1.07.13,2.15.25,3.22.35l1.18.11,2.59.2,1.3.08,2.64.13h1.17c1.26,0,2.53.06,3.79.06A130.27,130.27,0,0,0,289,504.67c2.1-.48,4.18-1,6.23-1.6l3.07-.91q3.06-1,6-2.05,4.49-1.64,8.8-3.59a129.37,129.37,0,0,0,26.76-16.25c.82-.64,1.63-1.29,2.44-2a131,131,0,0,0,17.62-17.62c.66-.8,1.31-1.61,2-2.43a130.2,130.2,0,0,0,16.24-26.76c.62-1.38,1.22-2.78,1.79-4.19a108.61,108.61,0,0,0,9.71,5.45l.11,0q4.38,2.16,9,4h0q1.44.55,2.91,1.08l.36.12q1.36.48,2.76.93l.29.1c2.07.65,4.15,1.25,6.27,1.78l.23.06q1.38.34,2.79.66l.71.16,2.41.49.79.15c.87.16,1.73.31,2.61.45l.52.09c1.06.16,2.12.31,3.19.45H425c.9.11,1.81.21,2.71.3l1,.09,2.19.17,1.1.07c.75,0,1.49.08,2.24.1h4.21c2.84,0,5.67-.11,8.46-.32q2.79-.21,5.55-.56a109.21,109.21,0,0,0,21.27-4.9c1.7-.57,3.39-1.19,5.05-1.85l2.48-1a110.22,110.22,0,0,0,14.23-7.28c.75-.46,1.5-.93,2.24-1.41,1.49-.95,3-1.94,4.39-3,.72-.51,1.43-1,2.14-1.56,1.41-1.06,2.79-2.15,4.16-3.27.68-.56,1.35-1.13,2-1.7,1.33-1.15,2.64-2.34,3.91-3.55s2.52-2.46,3.73-3.73,2.4-2.58,3.55-3.91A110,110,0,0,0,536.42,384q1.22-2.37,2.32-4.81c.73-1.62,1.43-3.27,2.09-4.93s1.27-3.35,1.85-5.06q1.58-4.67,2.74-9.52Z"/><rect class="cls-3" x="370.8" y="141.95" width="70" height="60"/><path class="cls-4" d="M368.8,142v21.59a1,1,0,0,0,1,1,1,1,0,0,0,.72-.3l6.38-6.39a6,6,0,0,1,8.48,0l3.85,3.85a6,6,0,0,0,8.49,0h0l3.85-3.85a6,6,0,0,1,8.48,0l3.85,3.85a6,6,0,0,0,8.48,0l3.85-3.85a6,6,0,0,1,8.49,0h0l6.38,6.39a1,1,0,0,0,1.41,0,1,1,0,0,0,.3-.72V142a6,6,0,0,0-6-6h-62a6,6,0,0,0-6,6Z"/><path class="cls-5" d="M374.8,136a6,6,0,0,0-6,6v21.59a1,1,0,0,0,1,1,1,1,0,0,0,.72-.3l6.38-6.39a6,6,0,0,1,8.48,0l3.85,3.85a6,6,0,0,0,8.49,0h0l2.09-2.09L412.38,136Z"/><circle class="cls-6" cx="406.81" cy="280.15" r="110"/><path class="cls-7" d="M296.81,280.15A109.92,109.92,0,0,0,302.13,314H511.5a110.52,110.52,0,0,0,0-67.69H302.13A109.81,109.81,0,0,0,296.81,280.15Z"/><g class="cls-8"><circle class="cls-9" cx="331.68" cy="237.84" r="0.89"/><path class="cls-9" d="M346.5,239.37a1.53,1.53,0,1,1,1.53-1.53h0a1.52,1.52,0,0,1-1.51,1.53Z"/><circle class="cls-9" cx="361.33" cy="237.84" r="1.98"/><path class="cls-9" d="M376.15,240.13a2.29,2.29,0,1,1,2.28-2.3h0A2.29,2.29,0,0,1,376.15,240.13Z"/><circle class="cls-9" cx="390.97" cy="237.84" r="2.46"/><path class="cls-9" d="M405.8,240.38a2.54,2.54,0,1,1,2.54-2.54,2.54,2.54,0,0,1-2.54,2.54Z"/><path class="cls-9" d="M420.62,240.3a2.46,2.46,0,1,1,2.46-2.46h0A2.46,2.46,0,0,1,420.62,240.3Z"/><circle class="cls-9" cx="435.45" cy="237.84" r="2.28"/><circle class="cls-9" cx="450.27" cy="237.84" r="1.98"/><circle class="cls-9" cx="465.1" cy="237.84" r="1.52"/><path class="cls-9" d="M479.92,238.74a.9.9,0,1,1,.89-.91h0a.89.89,0,0,1-.88.9Z"/></g><g class="cls-8"><circle class="cls-9" cx="331.68" cy="322.46" r="0.89"/><path class="cls-9" d="M346.5,324a1.52,1.52,0,1,1,1.53-1.52A1.52,1.52,0,0,1,346.5,324Z"/><circle class="cls-9" cx="361.33" cy="322.46" r="1.98"/><path class="cls-9" d="M376.15,324.74a2.28,2.28,0,1,1,2.28-2.28h0A2.28,2.28,0,0,1,376.15,324.74Z"/><circle class="cls-9" cx="390.97" cy="322.46" r="2.46"/><path class="cls-9" d="M405.8,325a2.54,2.54,0,1,1,2.54-2.54A2.54,2.54,0,0,1,405.8,325Z"/><path class="cls-9" d="M420.62,324.92a2.46,2.46,0,1,1,2.46-2.46h0A2.46,2.46,0,0,1,420.62,324.92Z"/><circle class="cls-9" cx="435.45" cy="322.46" r="2.28"/><circle class="cls-9" cx="450.27" cy="322.46" r="1.98"/><circle class="cls-9" cx="465.1" cy="322.46" r="1.52"/><path class="cls-9" d="M479.92,323.35a.89.89,0,1,1,.89-.89.89.89,0,0,1-.89.89Z"/></g><path class="cls-10" d="M499.87,261.22a14.59,14.59,0,0,0-10.38,4.3l-20.12,20.12a1.21,1.21,0,0,1-1.72,0l-20.11-20.12a14.68,14.68,0,0,0-20.76,0l-20.12,20.12a1.21,1.21,0,0,1-1.72,0l-20.12-20.12a14.7,14.7,0,0,0-20.76,0L344,285.64a1.22,1.22,0,0,1-1.73,0l-20.11-20.12a14.7,14.7,0,0,0-20.76,0l-4,4c-.34,3.5-.53,7-.53,10.62,0,2.9.12,5.77.34,8.61L310.87,275a1.23,1.23,0,0,1,1.72,0l20.11,20.12a14.68,14.68,0,0,0,20.76,0L373.58,275a1.23,1.23,0,0,1,1.72,0l20.12,20.12a14.68,14.68,0,0,0,20.76,0L436.29,275a1.23,1.23,0,0,1,.87-.35,1.21,1.21,0,0,1,.86.35l20.11,20.12a14.68,14.68,0,0,0,20.76,0L499,275a1.23,1.23,0,0,1,1.72,0l15.57,15.57c.33-3.44.51-6.93.51-10.46q0-4.23-.32-8.39l-6.24-6.24A14.59,14.59,0,0,0,499.87,261.22Z"/><path class="cls-11" d="M458.46,183,355.16,377.29A110,110,0,0,0,458.46,183Z"/><rect class="cls-12" x="193" y="166" width="70" height="60"/><circle class="cls-13" cx="228" cy="324" r="130"/><path class="cls-14" d="M98,324a129.93,129.93,0,0,0,6.28,40H351.72a130.58,130.58,0,0,0,0-80H104.28A129.93,129.93,0,0,0,98,324Z"/><circle class="cls-15" cx="228" cy="324" r="20"/><circle class="cls-15" cx="154" cy="324" r="15"/><path class="cls-6" d="M140.4,275.06a1.06,1.06,0,1,1,1.06-1.06h0A1.05,1.05,0,0,1,140.4,275.06Z"/><circle class="cls-6" cx="157.92" cy="274" r="1.8"/><path class="cls-6" d="M175.44,276.34a2.34,2.34,0,1,1,2.34-2.34h0A2.34,2.34,0,0,1,175.44,276.34Z"/><circle class="cls-6" cx="192.96" cy="274" r="2.7"/><path class="cls-6" d="M210.48,276.93a2.93,2.93,0,1,1,2.93-2.93h0a2.92,2.92,0,0,1-2.91,2.93Z"/><circle class="cls-6" cx="228" cy="274" r="3"/><path class="cls-6" d="M245.52,276.92a2.92,2.92,0,1,1,2.92-2.92,2.92,2.92,0,0,1-2.92,2.92Z"/><path class="cls-6" d="M263,276.69a2.7,2.7,0,1,1,2.69-2.71v0a2.68,2.68,0,0,1-2.69,2.69Z"/><circle class="cls-6" cx="280.56" cy="274" r="2.34"/><path class="cls-6" d="M298.08,275.8a1.8,1.8,0,1,1,1.8-1.8h0A1.81,1.81,0,0,1,298.08,275.8Z"/><circle class="cls-6" cx="315.6" cy="274" r="1.06"/><path class="cls-6" d="M140.4,375.06a1.06,1.06,0,1,1,1.06-1.06h0A1.05,1.05,0,0,1,140.4,375.06Z"/><circle class="cls-6" cx="157.92" cy="374" r="1.8"/><path class="cls-6" d="M175.44,376.34a2.34,2.34,0,1,1,2.34-2.34h0A2.34,2.34,0,0,1,175.44,376.34Z"/><circle class="cls-6" cx="192.96" cy="374" r="2.7"/><path class="cls-6" d="M210.48,376.93a2.93,2.93,0,1,1,2.93-2.93h0a2.92,2.92,0,0,1-2.91,2.93Z"/><circle class="cls-6" cx="228" cy="374" r="3"/><path class="cls-6" d="M245.52,376.92a2.92,2.92,0,1,1,2.92-2.92,2.92,2.92,0,0,1-2.92,2.92Z"/><path class="cls-6" d="M263,376.69a2.7,2.7,0,1,1,2.69-2.71v0a2.68,2.68,0,0,1-2.69,2.69Z"/><circle class="cls-6" cx="280.56" cy="374" r="2.34"/><path class="cls-6" d="M298.08,375.8a1.8,1.8,0,1,1,1.8-1.8h0A1.81,1.81,0,0,1,298.08,375.8Z"/><circle class="cls-6" cx="315.6" cy="374" r="1.06"/><circle class="cls-15" cx="302" cy="324" r="15"/><path class="cls-16" d="M289,209.2,167,438.8A130,130,0,1,0,289,209.2Z"/><path class="cls-4" d="M191,166.07v21.59a1,1,0,0,0,1,1,1,1,0,0,0,.72-.3l6.38-6.39a6,6,0,0,1,8.49,0h0l3.84,3.85a6,6,0,0,0,8.49,0h0l3.85-3.85a6,6,0,0,1,8.48,0l3.85,3.85a6,6,0,0,0,8.49,0h0l3.84-3.85a6,6,0,0,1,8.49,0h0l6.38,6.39a1,1,0,0,0,1.41,0,1,1,0,0,0,.3-.72V166.07a6,6,0,0,0-6-6H197A6,6,0,0,0,191,166.07Z"/><path class="cls-17" d="M197,160.07a6,6,0,0,0-6,6v21.59a1,1,0,0,0,1,1,1,1,0,0,0,.72-.3l6.38-6.39a6,6,0,0,1,8.49,0h0l3.84,3.85a6,6,0,0,0,8.49,0h0l2.09-2.09,12.58-23.67Z"/><rect class="cls-1" width="600" height="600"/></g></svg>