<svg xmlns="http://www.w3.org/2000/svg" xmlns:xlink="http://www.w3.org/1999/xlink" viewBox="0 0 600 600"><defs><style>.cls-1{fill:none;}.cls-2{fill:url(#Degradado_sin_nombre_423);}.cls-3{fill:#20669f;}.cls-4{fill:#52a5df;}.cls-5{fill:#043263;}.cls-6{clip-path:url(#clip-path);}.cls-7{opacity:0.5;isolation:isolate;fill:url(#Degradado_sin_nombre_32);}.cls-8{fill:#fff;}.cls-9{fill:#0b3460;}.cls-10{fill:#072146;}.cls-11{fill:#f8cd50;}.cls-12{fill:url(#Degradado_sin_nombre_50);}.cls-13{fill:#2dcccd;}.cls-14{fill:url(#Degradado_sin_nombre_3);}</style><linearGradient id="Degradado_sin_nombre_423" x1="224.01" y1="141.35" x2="417.73" y2="505.68" gradientUnits="userSpaceOnUse"><stop offset="0" stop-color="#1c2645" stop-opacity="0.5"/><stop offset="1" stop-color="#1c2645" stop-opacity="0"/></linearGradient><clipPath id="clip-path"><path class="cls-1" d="M449.65,301.83A159.75,159.75,0,1,1,289.89,142.09,159.75,159.75,0,0,1,449.65,301.83"/></clipPath><linearGradient id="Degradado_sin_nombre_32" x1="159.36" y1="1973.2" x2="346.34" y2="2160.18" gradientTransform="translate(0 -1798)" gradientUnits="userSpaceOnUse"><stop offset="0" stop-color="#fff" stop-opacity="0.5"/><stop offset="1" stop-color="#ebf6f7" stop-opacity="0.2"/><stop offset="1" stop-color="#fff" stop-opacity="0"/></linearGradient><linearGradient id="Degradado_sin_nombre_50" x1="247.53" y1="67.32" x2="288.44" y2="89.07" gradientTransform="translate(0 2)" gradientUnits="userSpaceOnUse"><stop offset="0" stop-color="#fade8e"/><stop offset="1" stop-color="#fade8e" stop-opacity="0.4"/></linearGradient><linearGradient id="Degradado_sin_nombre_3" x1="108.92" y1="128.95" x2="147.71" y2="149.57" gradientTransform="translate(0 2)" gradientUnits="userSpaceOnUse"><stop offset="0" stop-color="#fff"/><stop offset="1" stop-color="#fff" stop-opacity="0.1"/></linearGradient></defs><title>11</title><g id="Cuadrados_Blancos" data-name="Cuadrados Blancos"><rect class="cls-1" width="600" height="600"/></g><g id="Capa_22" data-name="Capa 22"><path class="cls-2" d="M345,160V149.1h24a2.63,2.63,0,0,0,2.68-2.67V107.18A2.63,2.63,0,0,0,369,104.5H294a2.63,2.63,0,0,0-2.68,2.68v39.25A2.63,2.63,0,0,0,294,149.1h24.17V160a183,183,0,0,0-103.53,41.35L205.3,192l7.45-7.45a2.59,2.59,0,0,0,0-3.75L199.6,167.63l0-.06-2.06-2a2.59,2.59,0,0,0-3.74,0l-33.9,33.89a2.59,2.59,0,0,0,0,3.75l15.16,15.17a2.59,2.59,0,0,0,3.75,0l7.52-7.53,8.9,8.9a183.19,183.19,0,0,0-47.69,123.54c0,101.53,82.3,183.84,183.83,183.84s183.83-82.31,183.83-183.84C515.24,246.36,440.16,166.93,345,160Z"/><circle class="cls-3" cx="289.91" cy="301.83" r="183.83"/><circle class="cls-4" cx="289.91" cy="301.83" r="159"/><path class="cls-5" d="M289.91,118.24c-101.23,0-183.59,82.36-183.59,183.59s82.36,183.6,183.59,183.6S473.5,403.07,473.5,301.83,391.14,118.24,289.91,118.24Zm0,342.59c-87.68,0-159-71.33-159-159s71.33-159,159-159,159,71.33,159,159S377.56,460.83,289.91,460.83Z"/><g class="cls-6"><path class="cls-1" d="M369.41,163.23,209.75,440A159.76,159.76,0,0,0,369.41,163.23Z"/><path class="cls-7" d="M289.91,142.09A159.74,159.74,0,0,0,209.75,440L369.41,163.23A159,159,0,0,0,289.91,142.09Z"/></g><circle class="cls-8" cx="289.91" cy="172.49" r="7.54"/><circle class="cls-8" cx="289.91" cy="431.16" r="7.54"/><circle class="cls-8" cx="419.24" cy="301.83" r="7.54"/><circle class="cls-8" cx="162.83" cy="301.83" r="7.54"/><circle class="cls-8" cx="225.24" cy="189.79" r="7.54"/><circle class="cls-8" cx="354.58" cy="413.87" r="7.54"/><circle class="cls-8" cx="401.94" cy="237.16" r="7.54"/><circle class="cls-8" cx="177.87" cy="366.5" r="7.54"/><circle class="cls-8" cx="177.87" cy="237.16" r="7.54"/><circle class="cls-8" cx="401.94" cy="366.5" r="7.54"/><circle class="cls-8" cx="354.58" cy="189.79" r="7.54"/><circle class="cls-8" cx="225.24" cy="413.87" r="7.54"/><polygon class="cls-3" points="303.19 319.69 276.47 318.71 275.81 194.95 303.19 212.49 303.19 319.69"/><path class="cls-9" d="M348.27,327.73a13.71,13.71,0,0,1-11,25.08l-52.71-23.2a13.7,13.7,0,0,1,11-25.07Z"/><rect class="cls-10" x="276.69" y="83.43" width="26.76" height="40.14"/><rect class="cls-10" x="138.06" y="136.96" width="26.76" height="40.14" transform="translate(-66.68 153.08) rotate(-45)"/><path class="cls-11" d="M252.52,63h74.93a2.63,2.63,0,0,1,2.68,2.68v39.25a2.63,2.63,0,0,1-2.68,2.67H252.52a2.63,2.63,0,0,1-2.68-2.67V65.68A2.63,2.63,0,0,1,252.52,63Z"/><path class="cls-12" d="M252.52,63a2.63,2.63,0,0,0-2.68,2.68v39.25a2.63,2.63,0,0,0,2.68,2.67H279.1L303.36,63Z"/><path class="cls-13" d="M118.44,158l33.9-33.89a2.58,2.58,0,0,1,3.74,0l15.17,15.16a2.59,2.59,0,0,1,0,3.75l-33.9,33.9a2.59,2.59,0,0,1-3.75,0l-15.16-15.17A2.59,2.59,0,0,1,118.44,158Z"/><path class="cls-14" d="M156.08,124.11a2.58,2.58,0,0,0-3.74,0h0L118.44,158a2.59,2.59,0,0,0,0,3.75l13.47,13.47,26.23-49.15Z"/></g></svg>