<?xml version="1.0" encoding="utf-8"?>
<!-- Generator: Adobe Illustrator 23.0.1, SVG Export Plug-In . SVG Version: 6.00 Build 0)  -->
<svg version="1.1" id="Contenido" xmlns="http://www.w3.org/2000/svg" xmlns:xlink="http://www.w3.org/1999/xlink" x="0px" y="0px"
	 viewBox="0 0 600 600" style="enable-background:new 0 0 600 600;" xml:space="preserve">
<style type="text/css">
	.st0{fill:url(#SVGID_1_);}
	.st1{fill:#004481;}
	.st2{fill:#F8CD50;}
	.st3{fill:url(#SVGID_2_);}
	.st4{fill:#2DCCCD;}
	.st5{fill:url(#SVGID_3_);}
	.st6{fill:#4EA5E2;}
	.st7{fill:#1B65A2;}
	.st8{clip-path:url(#SVGID_5_);}
	.st9{fill:none;}
	.st10{opacity:0.5;fill:url(#SVGID_6_);enable-background:new    ;}
	.st11{fill:#FFFFFF;}
</style>
<title>_</title>
<linearGradient id="SVGID_1_" gradientUnits="userSpaceOnUse" x1="238.0282" y1="470.1216" x2="454.3666" y2="63.241" gradientTransform="matrix(1 0 0 -1 0 602)">
	<stop  offset="0" style="stop-color:#192647"/>
	<stop  offset="0" style="stop-color:#192647;stop-opacity:0.5"/>
	<stop  offset="1" style="stop-color:#192647;stop-opacity:0"/>
</linearGradient>
<path class="st0" d="M372.7,153.3V141h26.9c1.7,0,3-1.3,3-3V94c0-1.7-1.3-3-3-3h-84c-1.7,0-3,1.3-3,3v44c0,1.7,1.3,3,3,3h27.1v12.4
	c-42.4,3.2-82.8,19.5-115.5,46.8l-11-11l8.3-8.3c1.2-1.2,1.2-3.1,0-4.2l-17-17c-1.2-1.2-3.1-1.2-4.2,0c0,0,0,0,0,0l-38,38
	c-1.2,1.2-1.2,3.1,0,4.2l17,17c1.2,1.2,3.1,1.2,4.2,0l8.4-8.4l10.6,10.6c-33.8,37.5-52.6,86.3-52.5,136.8c0,113.1,92,205,205,205
	s205-92,205-205C563.2,249.6,479,160.8,372.7,153.3z"/>
<rect x="296.1" y="67.9" class="st1" width="30" height="45"/>
<path class="st2" d="M269,45h84c1.7,0,3,1.3,3,3v44c0,1.7-1.3,3-3,3h-84c-1.7,0-3-1.3-3-3V48C266,46.3,267.3,45,269,45z"/>
<linearGradient id="SVGID_2_" gradientUnits="userSpaceOnUse" x1="263.4297" y1="549.9147" x2="309.2744" y2="525.5408" gradientTransform="matrix(1 0 0 -1 0 602)">
	<stop  offset="0" style="stop-color:#FADE8E"/>
	<stop  offset="1" style="stop-color:#FADE8E;stop-opacity:0.4"/>
</linearGradient>
<path class="st3" d="M269,45c-1.7,0-3,1.3-3,3v44c0,1.7,1.3,3,3,3h29.8L326,45H269z"/>
<rect x="140.7" y="127.9" transform="matrix(0.7071 -0.7071 0.7071 0.7071 -60.7513 154.158)" class="st1" width="30" height="45"/>
<path class="st4" d="M118.7,151.5l38-38c1.2-1.2,3.1-1.2,4.2,0l17,17c1.2,1.2,1.2,3.1,0,4.2l-38,38c-1.2,1.2-3.1,1.2-4.2,0l-17-17
	C117.5,154.6,117.5,152.7,118.7,151.5z"/>
<linearGradient id="SVGID_3_" gradientUnits="userSpaceOnUse" x1="108.006" y1="480.7924" x2="151.496" y2="457.6725" gradientTransform="matrix(1 0 0 -1 0 602)">
	<stop  offset="0" style="stop-color:#FFFFFF"/>
	<stop  offset="1" style="stop-color:#FFFFFF;stop-opacity:0.1"/>
</linearGradient>
<path class="st5" d="M160.9,113.5c-1.2-1.2-3.1-1.2-4.2,0c0,0,0,0,0,0l-38,38c-1.2,1.2-1.2,3.1,0,4.2l15.1,15.1l29.4-55.1
	L160.9,113.5z"/>
<g>
	<circle class="st6" cx="311.5" cy="312.8" r="178.9"/>
	<path class="st7" d="M311.5,106.3c-113.9,0-206.5,92.7-206.5,206.6s92.7,206.6,206.5,206.6s206.6-92.7,206.6-206.6
		S425.4,106.3,311.5,106.3z M311.5,491.7c-98.6,0-178.9-80.2-178.9-178.9s80.2-178.9,178.9-178.9s178.9,80.2,178.9,178.9
		S410.2,491.7,311.5,491.7z"/>
	<g>
		<defs>
			<path id="SVGID_4_" d="M491.2,312.8c0,99.2-80.5,179.7-179.7,179.7S131.8,412,131.8,312.8s80.5-179.7,179.7-179.7
				S491.2,213.6,491.2,312.8"/>
		</defs>
		<clipPath id="SVGID_5_">
			<use xlink:href="#SVGID_4_"  style="overflow:visible;"/>
		</clipPath>
		<g class="st8">
			<path class="st9" d="M401,156.9L221.3,468.3c27.4,15.9,58.5,24.3,90.2,24.2c99.2,0,179.7-80.5,179.7-179.7
				C491.2,248.4,456.8,188.9,401,156.9z"/>
			
				<linearGradient id="SVGID_6_" gradientUnits="userSpaceOnUse" x1="164.6523" y1="431.6623" x2="375.0222" y2="221.2923" gradientTransform="matrix(1 0 0 -1 0 602)">
				<stop  offset="0" style="stop-color:#FFFFFF;stop-opacity:0.5"/>
				<stop  offset="1" style="stop-color:#ECF7F8;stop-opacity:0.2"/>
				<stop  offset="1" style="stop-color:#FFFFFF;stop-opacity:0"/>
			</linearGradient>
			<path class="st10" d="M311.5,133.1c-99.2,0-179.7,80.5-179.7,179.7c0,64.1,34.1,123.3,89.5,155.5L401,156.9
				C373.8,141.2,342.9,133,311.5,133.1z"/>
		</g>
	</g>
	<circle class="st11" cx="311.5" cy="167.3" r="8.5"/>
	<circle class="st11" cx="311.5" cy="458.3" r="8.5"/>
	<circle class="st11" cx="457" cy="312.8" r="8.5"/>
	<circle class="st11" cx="168.6" cy="312.8" r="8.5"/>
	<circle class="st11" cx="238.8" cy="186.8" r="8.5"/>
	<circle class="st11" cx="384.3" cy="438.9" r="8.5"/>
	<circle class="st11" cx="437.6" cy="240.1" r="8.5"/>
	<circle class="st11" cx="185.5" cy="385.6" r="8.5"/>
	<circle class="st11" cx="185.5" cy="240.1" r="8.5"/>
	<circle class="st11" cx="437.6" cy="385.6" r="8.5"/>
	<circle class="st11" cx="384.3" cy="186.8" r="8.5"/>
	<circle class="st11" cx="238.8" cy="438.9" r="8.5"/>
	<polygon class="st7" points="326.5,332.9 296.4,331.8 295.7,192.6 326.5,212.3 	"/>
	<path class="st4" d="M377.2,341.9c7.7,3.7,10.9,12.9,7.3,20.6c-3.5,7.3-12.1,10.7-19.7,7.7l-59.3-26.1c-7.6-3.8-10.8-13-7-20.6
		c3.5-7.2,12-10.5,19.4-7.6L377.2,341.9z"/>
</g>
</svg>
