<svg id="Contenido" xmlns="http://www.w3.org/2000/svg" xmlns:xlink="http://www.w3.org/1999/xlink" viewBox="0 0 600 600"><defs><style>.cls-1{fill:url(#Degradado_sin_nombre);}.cls-2{fill:#043263;}.cls-3{fill:#f8cd50;}.cls-4{fill:#fefaed;}.cls-5{fill:url(#Degradado_sin_nombre_14);}.cls-6{fill:#004481;}.cls-7{fill:none;}</style><linearGradient id="Degradado_sin_nombre" x1="252.43" y1="-936.34" x2="435.14" y2="-1279.96" gradientTransform="matrix(1, 0, 0, -1, 0, -773.44)" gradientUnits="userSpaceOnUse"><stop offset="0" stop-color="#192647" stop-opacity="0.5"/><stop offset="1" stop-color="#192647" stop-opacity="0"/></linearGradient><linearGradient id="Degradado_sin_nombre_14" x1="197.51" y1="-1002.08" x2="293.95" y2="-1053.36" gradientTransform="matrix(1, 0, 0, -1, 0, -773.44)" gradientUnits="userSpaceOnUse"><stop offset="0.01" stop-color="#fff" stop-opacity="0.6"/><stop offset="1" stop-color="#fff" stop-opacity="0.2"/></linearGradient></defs><title>sostenibilidad</title><path class="cls-1" d="M534.3,369.72l-.11.11c.64-1,1.27-2.07,1.87-3.16,11.58-21.13-5.32-63.66-16.41-87.11a16.5,16.5,0,0,0-22-7.9,17.74,17.74,0,0,0-1.66.9l-42.21,26.21A108,108,0,0,0,425,243.55L470.26,174a2.15,2.15,0,0,0-2.68-3.14L437.76,184A281.43,281.43,0,0,0,414,154a20.19,20.19,0,0,0-14.82-6.48H292.05c-1.2,0-2.42-.07-3.67,0-24.09.53-52.47,36.43-67.23,57.76a16.51,16.51,0,0,0,4.18,23,16.3,16.3,0,0,0,1.6,1l37.61,20.13c-.25.31-.51.61-.76.91q-2.49,3-4.76,6.2c-1.51,2.13-2.95,4.31-4.3,6.54q-1.36,2.24-2.61,4.54c-.42.77-.83,1.54-1.23,2.32A107.84,107.84,0,0,0,239,319.11c0,1.16,0,2.32.06,3.47v1c0,.91.08,1.82.14,2.73v.31l-15-26.39a2.16,2.16,0,0,0-1.76-1.09l-86-4.57a2.15,2.15,0,0,0-1.39,3.89l26.34,19.22a282.27,282.27,0,0,0-14.16,35.61,20.22,20.22,0,0,0,1.8,16.07l53.64,92.91v-.15c.56,1.07,1.15,2.13,1.8,3.2,12.51,20.6,57.79,27.22,83.64,29.35a16.52,16.52,0,0,0,17.8-15.13,16.68,16.68,0,0,0,0-1.87l-1.83-57.05a18.1,18.1,0,0,0-.26-2.32,108.24,108.24,0,0,0,87.45-.13l-8.16,13.89a2.15,2.15,0,0,0-.06,2.07l39.06,76.8a2.15,2.15,0,0,0,4.06-.74l3.48-32.42a281.61,281.61,0,0,0,38-5.57,20.12,20.12,0,0,0,12.9-9.57ZM356.87,211.18l-2.12-.16-1.12-.07-2.19-.11h-1c-1.06,0-2.11-.05-3.17-.05a107.71,107.71,0,0,0-29.17,4l19.26-36c8,10.12,14.48,21.47,20,32.45Zm-149.77,196c7.17-18,18.41-34.45,28.12-48.23L250.76,368c.19.37.38.74.58,1.11l.42.8c.46.85.92,1.69,1.4,2.53l.19.35c.55.95,1.11,1.88,1.68,2.81l.44.7c.45.73.92,1.46,1.4,2.18l.45.68c.6.9,1.22,1.8,1.85,2.68.08.12.17.23.25.34.56.78,1.13,1.54,1.71,2.3l.54.71q.85,1.11,1.74,2.19l.31.38c.69.84,1.39,1.66,2.11,2.48l.52.59c.57.64,1.15,1.28,1.74,1.91l.57.62c.75.78,1.5,1.56,2.27,2.33l.22.22c.7.69,1.41,1.37,2.13,2l.66.61c.66.61,1.33,1.22,2,1.81l.44.39c.82.71,1.64,1.41,2.48,2.09l.6.48c.59.48,1.19,1,1.8,1.43Zm221.53-14v-2.46a108.06,108.06,0,0,0,24.44-47.82l31.37,50.51c-19.14,2.82-39,1.32-55.81-.19Z"/><path class="cls-2" d="M285.37,135.17s-16.86-28-51.16-27.27c-24.09.54-52.47,36.44-67.23,57.76a16.49,16.49,0,0,0,4.1,23,16.08,16.08,0,0,0,1.68,1l50.32,26.94a16.51,16.51,0,0,0,22.34-6.75h0Z"/><path class="cls-2" d="M432.69,357.76s32.7-.58,49.19-30.67c11.59-21.13-5.31-63.65-16.4-87.1a16.49,16.49,0,0,0-22-7.91,15.11,15.11,0,0,0-1.68.91L393.36,263.1a16.51,16.51,0,0,0-5.4,22.7l0,.06Z"/><path class="cls-2" d="M148.36,367.78s-15.85,28.62,2,57.94c12.5,20.6,57.78,27.23,83.63,29.35A16.5,16.5,0,0,0,251.79,440a15.39,15.39,0,0,0,.05-1.92L250,381a16.5,16.5,0,0,0-17-16h0Z"/><path class="cls-3" d="M401.54,279.53A108.33,108.33,0,0,1,293.28,387.88c-59.69,0-108.44-48.62-108.44-108.35A108.45,108.45,0,0,1,293.11,171.18h0A108.37,108.37,0,0,1,401.54,279.49v0"/><path class="cls-4" d="M294.94,331.72c-20.34,0-34-12.49-38.48-35.18H240.14V284.42H255c-.13-1.69-.13-3.4-.13-5.06V276H240.14V264h16.15c4.2-22.86,18.57-36.5,38.48-36.5,16.92,0,28.54,7.51,34.54,22.33l.14.34-14.85,8.39-.16-.48C311,247.62,304.88,243,294.77,243c-11.22,0-18.61,7.28-21.38,21.06h24.95v12h-26.2V279c0,1.82,0,3.69.13,5.39H298.5v12.12H273.73c2.9,13.51,9.89,20.07,21.37,20.07,10.46,0,16.49-4.77,20.16-16l.17-.5L330,308.9l-.15.33C323.58,323.52,310.87,331.72,294.94,331.72Z"/><path class="cls-5" d="M293.11,171.18a108.31,108.31,0,0,0-50,204.36L344.23,184A108,108,0,0,0,293.11,171.18Z"/><path class="cls-6" d="M310.91,187.67,284.07,203a2.16,2.16,0,0,0,1.05,4l82.16.59a2.11,2.11,0,0,0,1.82-1l47-72.22a2.15,2.15,0,0,0-2.67-3.15l-29.82,13.19a282.12,282.12,0,0,0-23.76-30.06A20.16,20.16,0,0,0,345,107.9H237.73C277.06,117.23,297,157.63,310.91,187.67Z"/><path class="cls-6" d="M374.45,353.64l.16-30.91a2.15,2.15,0,0,0-2.15-2.15,2.11,2.11,0,0,0-1.85,1.05L329,392.49a2.15,2.15,0,0,0-.06,2.06L368,471.35a2.15,2.15,0,0,0,4.06-.74l3.49-32.42a281.61,281.61,0,0,0,38-5.57,20.09,20.09,0,0,0,12.9-9.57l53.64-92.91C452.38,359.54,407.42,356.62,374.45,353.64Z"/><path class="cls-6" d="M181,319.41,207.73,335a2.15,2.15,0,0,0,3-2.92l-40.57-71.45a2.14,2.14,0,0,0-1.76-1.09L82.4,255A2.15,2.15,0,0,0,81,258.86l26.33,19.22a282.87,282.87,0,0,0-14.16,35.61A20.18,20.18,0,0,0,95,329.76l53.64,92.91C137,384,162,346.47,181,319.41Z"/><rect class="cls-7" width="600" height="600"/><rect class="cls-7" width="600" height="600"/></svg>