<svg id="Capa_1" data-name="Capa 1" xmlns="http://www.w3.org/2000/svg" xmlns:xlink="http://www.w3.org/1999/xlink" viewBox="0 0 600 600"><defs><style>.cls-1{fill:url(#Degradado_sin_nombre_10);}.cls-2{fill:#f8cd51;}.cls-3{fill:url(#Degradado_sin_nombre_9);}.cls-4{fill:#fef5dc;}.cls-5{fill:#2dcccd;}.cls-6{fill:url(#Degradado_sin_nombre_8);}</style><linearGradient id="Degradado_sin_nombre_10" x1="210.26" y1="-1321.03" x2="441.76" y2="-1756.42" gradientTransform="matrix(1, 0, 0, -1, 0, -1208)" gradientUnits="userSpaceOnUse"><stop offset="0" stop-color="#192647"/><stop offset="0" stop-color="#192647" stop-opacity="0.5"/><stop offset="1" stop-color="#192647" stop-opacity="0"/></linearGradient><linearGradient id="Degradado_sin_nombre_9" x1="159.74" y1="-2005.52" x2="281.01" y2="-2069.97" gradientTransform="matrix(1, 0, 0, -1, 0, -1774)" gradientUnits="userSpaceOnUse"><stop offset="0" stop-color="#fade8e"/><stop offset="1" stop-color="#fade8e" stop-opacity="0.4"/></linearGradient><linearGradient id="Degradado_sin_nombre_8" x1="487.23" y1="789.57" x2="368.64" y2="789.57" gradientTransform="translate(0 -398)" gradientUnits="userSpaceOnUse"><stop offset="0" stop-color="#028484" stop-opacity="0.8"/><stop offset="1" stop-color="#028484" stop-opacity="0"/></linearGradient></defs><title>UFE_Empresas</title><path class="cls-1" d="M529.86,463.32l-46.33-46.41,24.25-24.25a2.51,2.51,0,0,0,.78-2,2.45,2.45,0,0,0-.78-1.84l-.08-.07a1.33,1.33,0,0,0-.62-.45l-41.75-19a146.45,146.45,0,0,0-71.91-170.24h0A145.57,145.57,0,0,0,321.9,182h-2A146.14,146.14,0,0,0,181,300.8a3.66,3.66,0,0,1-.1.56c-.15.8-.29,1.61-.43,2.43-.09.51-.17,1-.26,1.54s-.15,1-.23,1.55c-.12.81-.23,1.61-.34,2.42a5.47,5.47,0,0,1-.1.8q-.19,1.57-.36,3.15v.2a144.34,144.34,0,0,0-.74,14.85h0v4c0,.73.05,1.45.08,2.17s0,1.25.08,1.87v.56a145.49,145.49,0,0,0,27.87,77.63c.15.22.31.44.47.65.43.58.86,1.16,1.3,1.73l1,1.37.78,1c.53.67,1.06,1.34,1.61,2l.27.33A146.36,146.36,0,0,0,418,441.08q1.29-1.06,2.55-2.16l11.16,24.58a2.7,2.7,0,0,0,2.51,1.53,2.56,2.56,0,0,0,1.06-.23l.78-.52L460.45,440l46.46,46.46a2.61,2.61,0,0,0,1.9.78,2.38,2.38,0,0,0,1.84-.78l19.29-19.29A2.73,2.73,0,0,0,529.86,463.32Z"/><path class="cls-2" d="M427.7,296.15a146.37,146.37,0,0,1-292.74,0c0-80.82,65.28-146.37,146.11-146.37h0c80.83,0,146.63,65.29,146.63,146.37h0"/><path class="cls-3" d="M350,166.88a146.37,146.37,0,1,0-138.69,257.8l1.39.74Z"/><path class="cls-4" d="M230,290.71H210.09v-15h21.76c6-33.94,27.2-49.22,51.55-49.22,25.91,0,39.38,13.21,46.11,29.79L310.6,267.14c-4.66-14.25-13-21-27.2-21-15,0-25.65,9.59-29.53,29.54h33.94v15h-35.5v4.67a74.62,74.62,0,0,0,.26,7.77h35.24V318.4H254.13c3.88,18.65,13.21,28.24,29.53,28.24,14,0,22.54-6.22,27.72-22L330,335.79c-7.51,17.62-23.31,30-46.63,30-25.39,0-45.33-15-51.55-47.41H210.09V303.15h20.2a72.58,72.58,0,0,1-.25-7.52v-4.92Z"/><path class="cls-5" d="M463.63,356.15,332,296.27a2.6,2.6,0,0,0-3.48,3.47l59.8,131.6a2.65,2.65,0,0,0,3.48,1.3,4.6,4.6,0,0,0,.78-.52L417,407.78l46.5,46.5a2.51,2.51,0,0,0,3.55.1l.1-.1L486.4,435a2.51,2.51,0,0,0,.09-3.56l-.09-.09L440,384.83l24.34-24.33a2.61,2.61,0,0,0,.09-3.65A1.41,1.41,0,0,0,463.63,356.15Z"/><path class="cls-6" d="M486.4,431.16,440,384.66l24.34-24.34a2.51,2.51,0,0,0,.09-3.56l-.09-.09a2.06,2.06,0,0,0-.78-.52l-61.8-28.07-33.12,59.71,19.82,43.55a2.65,2.65,0,0,0,3.48,1.3l.78-.52L417,407.78l46.5,46.5a2.51,2.51,0,0,0,3.55.1l.1-.1L486.49,435a2.73,2.73,0,0,0-.09-3.83C486.49,431.25,486.49,431.16,486.4,431.16Z"/></svg>