<svg id="f49afc3c-87c4-442d-9f75-7bd70d1604d4" data-name="Contenido" xmlns="http://www.w3.org/2000/svg" xmlns:xlink="http://www.w3.org/1999/xlink" viewBox="0 0 600 600"><defs><style>.ea74d2c4-85db-4993-9f6a-a8f30417edef{fill:url(#efe296f0-ecc1-47e8-b6a1-41e9b5169506);}.af897b06-7a03-4579-9f11-c13ef5fda933{fill:#02a5a5;}.a281ea83-25ad-490d-af55-38c16db8ee78,.acf82f59-0e9b-4c36-b0cb-c22272ef4031{fill:#028484;}.a9c36475-6e1d-4c21-8114-42f908ebab09{fill:url(#b306c407-2868-4526-b103-d98948c3fe72);}.acf82f59-0e9b-4c36-b0cb-c22272ef4031{opacity:0.4;}.b1725310-9a72-41e3-bd12-fe72062f4f41{fill:#2dcccd;}.ff2f8481-6183-4326-9e47-2cad92d7ad4b{fill:url(#b5a71755-8617-48a3-8ea9-66e690174ee3);}.bec9e902-c94f-4d3d-803c-a4b683e5a194{fill:none;}</style><linearGradient id="efe296f0-ecc1-47e8-b6a1-41e9b5169506" x1="230.77" y1="166.8" x2="418.53" y2="519.91" gradientUnits="userSpaceOnUse"><stop offset="0" stop-color="#1c2645"/><stop offset="0" stop-color="#1c2645" stop-opacity="0.5"/><stop offset="1" stop-color="#1c2645" stop-opacity="0"/></linearGradient><linearGradient id="b306c407-2868-4526-b103-d98948c3fe72" x1="-102.52" y1="1943.66" x2="-359.88" y2="1943.66" gradientTransform="translate(-548.81 -1561.11) rotate(-30.7)" gradientUnits="userSpaceOnUse"><stop offset="0" stop-color="#028484" stop-opacity="0.4"/><stop offset="1" stop-color="#028484" stop-opacity="0.1"/></linearGradient><linearGradient id="b5a71755-8617-48a3-8ea9-66e690174ee3" x1="497.39" y1="335.7" x2="159.41" y2="335.7" gradientTransform="matrix(1, 0, 0, 1, 0, 0)" xlink:href="#b306c407-2868-4526-b103-d98948c3fe72"/></defs><path class="ea74d2c4-85db-4993-9f6a-a8f30417edef" d="M544.92,225.73c-16.79-2.56-86.65-11.74-162.2-.54-9.37-55.67-30.94-102.36-36.47-113.7a3.17,3.17,0,0,0-4.05-1.56c-19.86,8-142.14,60.48-178.33,154.52-16.06,41.76-3.39,88.32,19.3,120.26-6,38.76.08,77.5,15.18,103.52-3,4.37-6,8.81-8.95,13.22-2.36,3.66-4.54,7.43-6.83,11.15l-3.38,5.6c-1.09,1.9-2.09,3.83-3.14,5.75l-6.22,11.54-5.64,11.86-4.36,10.24A14.21,14.21,0,1,0,186.26,568l3.49-9.61,4.61-11.26,5.2-11c.88-1.84,1.71-3.7,2.62-5.51l2.87-5.39c1.94-3.58,3.78-7.22,5.8-10.76,1.21-2,2.4-4,3.6-6,46,43.75,144.11,57.71,209.94,5.63C528.14,432,546.19,258.22,548.46,230.2A4.19,4.19,0,0,0,544.92,225.73Z"/><path class="af897b06-7a03-4579-9f11-c13ef5fda933" d="M294,59.25a3.19,3.19,0,0,0-4.05-1.55c-19.85,8-142,60.7-178,154.77-23.41,61.14,14.73,132.47,55.7,153.18l11.71,4.55c47.07,13.53,120.25-15.39,143.78-76.86C359.12,199.27,303.39,78.48,294,59.25Z"/><path class="a281ea83-25ad-490d-af55-38c16db8ee78" d="M249.68,145.53a2.81,2.81,0,0,1,.66,3.81c-3,4.5-5.85,9.21-8.61,13.91-3.23,5.48-6.3,11.06-9.26,16.7q-8.86,16.92-16.29,34.5t-13.26,35.66c-.94,3-1.95,6-2.82,9.06l-2.61,9.12c-1.57,6.12-3.2,12.22-4.48,18.4l-1,4.61c-.34,1.54-.59,3.1-.89,4.64-.56,3.1-1.2,6.18-1.69,9.29L188,314.55c-.25,1.55-.42,3.11-.59,4.67l-.53,4.67-.53,4.67c-.14,1.56-.23,3.12-.35,4.68-.22,3.13-.5,6.24-.65,9.36-.19,6.25-.5,12.49-.31,18.72-.06,6.23.44,12.44.76,18.64.24,3.1.63,6.18.93,9.26l.48,4.62c.2,1.54.47,3.07.7,4.6l1.42,9.17,1.89,9.07,1.89,7.55a10.83,10.83,0,0,1-7.75,13.1h0A10.83,10.83,0,0,1,172,428.91l-1.61-8.31-1.49-9.89-1-9.93c-.15-1.66-.35-3.31-.47-5l-.25-5c-.14-3.31-.37-6.63-.44-9.94,0-6.63-.15-13.26.26-19.86.17-6.61.85-13.18,1.41-19.75.34-3.28.82-6.54,1.22-9.81.22-1.63.41-3.26.64-4.89l.82-4.86.82-4.86c.27-1.62.54-3.24.89-4.84l2-9.64c.7-3.2,1.53-6.37,2.29-9.55.4-1.59.75-3.19,1.19-4.76l1.31-4.73c1.68-6.32,3.7-12.53,5.67-18.75l3.2-9.24c1.07-3.08,2.27-6.11,3.4-9.16q7-18.23,15.56-35.74t18.49-34.2q5-8.34,10.33-16.45c3.09-4.64,6.2-9.2,9.56-13.71a2.8,2.8,0,0,1,3.91-.56Z"/><path class="a9c36475-6e1d-4c21-8114-42f908ebab09" d="M247.39,148.57c1.64,1-58.23,111.45-56.58,112.28L179.31,370.2c47.07,13.53,120.25-15.39,143.78-76.86,36-94.07-19.7-214.86-29.11-234.09a3.22,3.22,0,0,0-.94-1.12Z"/><path class="acf82f59-0e9b-4c36-b0cb-c22272ef4031" d="M138.57,340.87c9.07,10.83,19.28,19.38,29.69,24.67l11.7,4.57c47.07,13.61,120.31-15.21,144-76.65C340.63,250,337.48,190.86,326,145.62c-46,8.07-89.67,29.91-128.24,67.1C161,248.14,139.78,294.62,138.57,340.87Z"/><path class="b1725310-9a72-41e3-bd12-fe72062f4f41" d="M497.38,178a4.17,4.17,0,0,0-3.54-4.46c-27.79-4.25-201-26.67-304.8,55.41-67.43,53.35-72.18,159.47-39.8,210.32l10.17,13c44.09,46.83,146.11,63.23,213.9,9.6C477.06,379.77,495.11,206,497.38,178Z"/><path class="a281ea83-25ad-490d-af55-38c16db8ee78" d="M389.51,245.71a3.67,3.67,0,0,1-1.81,4.73c-6.39,3.09-12.78,6.48-19,9.94-7.33,4-14.54,8.27-21.66,12.65q-21.36,13.16-41.53,28t-38.88,31.38c-3.09,2.78-6.24,5.49-9.27,8.34l-9,8.55c-5.88,5.86-11.81,11.66-17.39,17.77l-4.25,4.53c-1.41,1.51-2.74,3.1-4.12,4.64-2.71,3.12-5.49,6.18-8.13,9.35l-7.84,9.59c-1.33,1.57-2.56,3.22-3.8,4.87L199,405l-3.73,4.92c-1.2,1.67-2.36,3.37-3.54,5.05-2.33,3.39-4.75,6.72-7,10.14-4.4,6.93-8.93,13.76-12.9,20.93-4.24,7-7.83,14.34-11.63,21.56-1.81,3.65-3.43,7.39-5.16,11.08l-2.56,5.54c-.8,1.87-1.52,3.77-2.29,5.65l-4.55,11.31L141.7,512.7l-2.93,9.8a14.21,14.21,0,0,1-17.53,9.59h0a14.21,14.21,0,0,1-9.47-18.47l3.76-10.47L120.47,491,126,479.1c.93-2,1.82-4,2.8-5.92l3.05-5.79c2.06-3.84,4-7.74,6.17-11.53,4.45-7.48,8.71-15.07,13.61-22.25,4.62-7.35,9.8-14.32,14.83-21.36,2.58-3.47,5.31-6.83,7.95-10.25,1.34-1.7,2.65-3.42,4-5.09l4.18-5L186.8,387c1.39-1.65,2.77-3.3,4.25-4.88l8.71-9.54c2.93-3.15,6-6.17,9-9.26,1.52-1.52,3-3.09,4.54-4.58l4.65-4.45c6.14-6,12.58-11.68,19-17.38l9.81-8.29c3.27-2.76,6.66-5.37,10-8.06q20.13-15.87,41.53-29.93T342,264.44q11.2-6.09,22.69-11.65c6.6-3.17,13.17-6.23,20-9.07a3.67,3.67,0,0,1,4.79,2Z"/><path class="ff2f8481-6183-4326-9e47-2cad92d7ad4b" d="M384.88,247.59c1.19,2.23-140.47,86.82-139.17,88.87l-86.3,115.78c44.09,46.83,146.11,63.23,213.9,9.6C477.06,379.77,495.11,206,497.38,178a4.19,4.19,0,0,0-.31-1.9Z"/><rect class="bec9e902-c94f-4d3d-803c-a4b683e5a194" width="600" height="600"/></svg>