<?xml version="1.0" encoding="utf-8"?>
<!-- Generator: Adobe Illustrator 23.0.1, SVG Export Plug-In . SVG Version: 6.00 Build 0)  -->
<svg version="1.1" id="Capa_1" xmlns="http://www.w3.org/2000/svg" xmlns:xlink="http://www.w3.org/1999/xlink" x="0px" y="0px"
	 viewBox="0 0 600 600" style="enable-background:new 0 0 600 600;" xml:space="preserve">
<style type="text/css">
	.st0{fill:url(#SVGID_1_);}
	.st1{fill:#4EA5E2;}
	.st2{fill:#1B65A2;}
	.st3{clip-path:url(#SVGID_3_);}
	.st4{fill:none;}
	.st5{opacity:0.5;fill:url(#SVGID_4_);enable-background:new    ;}
	.st6{fill:#FFFFFF;}
	.st7{fill:#083361;}
	.st8{fill:#F8CD50;}
	.st9{fill:url(#SVGID_5_);}
	.st10{fill:#2DCCCD;}
	.st11{fill:url(#SVGID_6_);}
</style>
<title>Mesa de trabajo 1</title>
<g>
	<g>
		
			<linearGradient id="SVGID_1_" gradientUnits="userSpaceOnUse" x1="219.7914" y1="520.1177" x2="430.1029" y2="915.65" gradientTransform="matrix(1 0 0 1 0 -400)">
			<stop  offset="0" style="stop-color:#192647"/>
			<stop  offset="0" style="stop-color:#192647;stop-opacity:0.5"/>
			<stop  offset="1" style="stop-color:#192647;stop-opacity:0"/>
		</linearGradient>
		<path class="st0" d="M574,94H457c-12.7,0-23,10.3-23,23v5.2c-68.3-37.9-151.3-37.6-219.3,0.7L130,207.7
			c-36.9,65.5-38.6,145.2-4.5,212.3H76c-12.7,0-23,10.3-23,23l0,0v76c0,12.7,10.3,23,23,23l0,0h113l21.9,21.8c1.2,1.2,3.1,1.2,4.2,0
			c0.6-0.6,0.9-1.3,0.9-2.1v-29.1l0,0v-18.9c108.2,60.1,244.6,21.1,304.8-87.1c36.2-65.2,37.6-144.2,3.7-210.7H574
			c12.7,0,23-10.3,23-23v-76C597,104.3,586.7,94,574,94z"/>
		<g>
			<circle class="st1" cx="275" cy="268" r="194"/>
			<path class="st2" d="M275,44C151.5,44,51,144.5,51,268s100.5,224,224,224s224-100.5,224-224S398.5,44,275,44z M275,462
				c-107,0-194-87-194-194S168,74,275,74s194,87,194,194S382,462,275,462z"/>
			<g>
				<defs>
					<path id="SVGID_2_" d="M469.9,268c0,107.6-87.3,194.9-194.9,194.9S80.1,375.6,80.1,268S167.4,73.1,275,73.1
						S469.9,160.4,469.9,268"/>
				</defs>
				<clipPath id="SVGID_3_">
					<use xlink:href="#SVGID_2_"  style="overflow:visible;"/>
				</clipPath>
				<g class="st3">
					<path class="st4" d="M372,98.9L177.2,436.6c29.7,17.3,63.4,26.3,97.8,26.3c107.6,0,194.9-87.3,194.9-194.9
						C469.9,198.2,432.6,133.7,372,98.9z"/>
					
						<linearGradient id="SVGID_4_" gradientUnits="userSpaceOnUse" x1="115.7174" y1="488.505" x2="343.8546" y2="260.3678" gradientTransform="matrix(1 0 0 -1 0 602)">
						<stop  offset="0" style="stop-color:#FFFFFF;stop-opacity:0.5"/>
						<stop  offset="1" style="stop-color:#ECF7F8;stop-opacity:0.2"/>
						<stop  offset="1" style="stop-color:#FFFFFF;stop-opacity:0"/>
					</linearGradient>
					<path class="st5" d="M275,73.1C167.4,73.1,80.1,160.4,80.1,268c0,69.5,37,133.7,97.1,168.6L372,98.9
						C342.5,81.9,309,73,275,73.1z"/>
				</g>
			</g>
			<circle class="st6" cx="275" cy="110.2" r="9.2"/>
			<circle class="st6" cx="275" cy="425.8" r="9.2"/>
			<circle class="st6" cx="432.8" cy="268" r="9.2"/>
			<circle class="st6" cx="119.9" cy="268" r="9.2"/>
			<circle class="st6" cx="196.1" cy="131.3" r="9.2"/>
			<circle class="st6" cx="353.9" cy="404.7" r="9.2"/>
			<circle class="st6" cx="411.7" cy="189.1" r="9.2"/>
			<circle class="st6" cx="138.3" cy="346.9" r="9.2"/>
			<circle class="st6" cx="138.3" cy="189.1" r="9.2"/>
			<circle class="st6" cx="411.7" cy="346.9" r="9.2"/>
			<circle class="st6" cx="353.9" cy="131.3" r="9.2"/>
			<circle class="st6" cx="196.1" cy="404.7" r="9.2"/>
			<polygon class="st2" points="291.2,289.8 258.6,288.6 257.8,137.6 291.2,159 			"/>
			<path class="st7" d="M346.2,299.6c8.3,4,11.9,14,7.9,22.3c-3.8,8-13.1,11.6-21.3,8.3l-64.3-28.3c-8.3-4.1-11.7-14.1-7.6-22.4
				c3.8-7.8,13-11.3,21.1-8.2L346.2,299.6z"/>
		</g>
		<path class="st8" d="M407,44h117c12.7,0,23,10.3,23,23v76c0,12.7-10.3,23-23,23l0,0H411l-21.9,21.9c-1.2,1.2-3.1,1.2-4.2,0
			c-0.6-0.6-0.9-1.3-0.9-2.1v-29.1V67C384,54.3,394.3,44,407,44L407,44z"/>
		
			<linearGradient id="SVGID_5_" gradientUnits="userSpaceOnUse" x1="582" y1="505" x2="454" y2="505" gradientTransform="matrix(1 0 0 1 -35 -400)">
			<stop  offset="0" style="stop-color:#C49735;stop-opacity:0.4"/>
			<stop  offset="1" style="stop-color:#C49735;stop-opacity:0"/>
		</linearGradient>
		<path class="st9" d="M524,44h-19.2L419,166h105c12.7,0,23-10.3,23-23l0,0V67C547,54.3,536.7,44,524,44z"/>
		<path class="st10" d="M143,370H26c-12.7,0-23,10.3-23,23v76c0,12.7,10.3,23,23,23h113l21.9,21.8c1.2,1.2,3.1,1.2,4.2,0
			c0.6-0.6,0.9-1.3,0.9-2.1V393C166,380.3,155.7,370,143,370z"/>
		
			<linearGradient id="SVGID_6_" gradientUnits="userSpaceOnUse" x1="166" y1="842.35" x2="38" y2="842.35" gradientTransform="matrix(1 0 0 1 0 -400)">
			<stop  offset="0" style="stop-color:#028484;stop-opacity:0.4"/>
			<stop  offset="1" style="stop-color:#028484;stop-opacity:0"/>
		</linearGradient>
		<path class="st11" d="M143,370h-19.2L38,492h101l21.9,21.8c1.2,1.2,3.1,1.2,4.2,0c0.6-0.6,0.9-1.3,0.9-2.1V393
			C166,380.3,155.7,370,143,370z"/>
		<g>
			<path class="st6" d="M515,97h-99c-2.8,0-5-2.2-5-5s2.2-5,5-5h99c2.8,0,5,2.2,5,5S517.8,97,515,97z"/>
		</g>
		<g>
			<path class="st6" d="M467.5,123H416c-2.8,0-5-2.2-5-5s2.2-5,5-5h51.5c2.8,0,5,2.2,5,5S470.3,123,467.5,123z"/>
		</g>
		<g>
			<path class="st6" d="M134,423H35c-2.8,0-5-2.2-5-5s2.2-5,5-5h99c2.8,0,5,2.2,5,5S136.8,423,134,423z"/>
		</g>
		<g>
			<path class="st6" d="M86.5,449H35c-2.8,0-5-2.2-5-5s2.2-5,5-5h51.5c2.8,0,5,2.2,5,5S89.3,449,86.5,449z"/>
		</g>
	</g>
</g>
</svg>
