<svg xmlns="http://www.w3.org/2000/svg" xmlns:xlink="http://www.w3.org/1999/xlink" viewBox="0 0 600 600"><defs><style>.cls-1{fill:none;}.cls-2{fill:url(#Degradado_sin_nombre_438);}.cls-3{fill:url(#Degradado_sin_nombre_33);}.cls-4{fill:#52a5df;}.cls-5{fill:#043263;}.cls-6{clip-path:url(#clip-path);}.cls-7{opacity:0.5;isolation:isolate;fill:url(#Degradado_sin_nombre_32);}.cls-8{fill:#fff;}.cls-9{fill:#20669f;}.cls-10{fill:#0b3460;}.cls-11{fill:#f8cd50;}.cls-12{fill:url(#Degradado_sin_nombre_55);}.cls-13{fill:#2dcccd;}.cls-14{fill:url(#Degradado_sin_nombre_54);}</style><linearGradient id="Degradado_sin_nombre_438" x1="257.8" y1="193.3" x2="430.44" y2="518" gradientUnits="userSpaceOnUse"><stop offset="0" stop-color="#1c2645" stop-opacity="0.5"/><stop offset="1" stop-color="#1c2645" stop-opacity="0"/></linearGradient><linearGradient id="Degradado_sin_nombre_33" x1="203.57" y1="138.66" x2="376.22" y2="463.35" gradientUnits="userSpaceOnUse"><stop offset="0" stop-color="#192647"/><stop offset="0" stop-color="#192647" stop-opacity="0.3"/><stop offset="1" stop-color="#192647" stop-opacity="0"/></linearGradient><clipPath id="clip-path"><path class="cls-1" d="M449.65,301.83A159.75,159.75,0,1,1,289.89,142.09,159.75,159.75,0,0,1,449.65,301.83"/></clipPath><linearGradient id="Degradado_sin_nombre_32" x1="159.36" y1="1973.2" x2="346.34" y2="2160.18" gradientTransform="translate(0 -1798)" gradientUnits="userSpaceOnUse"><stop offset="0" stop-color="#fff" stop-opacity="0.5"/><stop offset="1" stop-color="#ebf6f7" stop-opacity="0.2"/><stop offset="1" stop-color="#fff" stop-opacity="0"/></linearGradient><linearGradient id="Degradado_sin_nombre_55" x1="548.93" y1="7462.74" x2="443.47" y2="7462.74" gradientTransform="matrix(1, 0, 0, -1, -35, 7630)" gradientUnits="userSpaceOnUse"><stop offset="0" stop-color="#c49735" stop-opacity="0.4"/><stop offset="1" stop-color="#c49735" stop-opacity="0"/></linearGradient><linearGradient id="Degradado_sin_nombre_54" x1="200.03" y1="7184.8" x2="94.57" y2="7184.8" gradientTransform="matrix(1, 0, 0, -1, 0, 7630)" gradientUnits="userSpaceOnUse"><stop offset="0" stop-color="#028484" stop-opacity="0.4"/><stop offset="1" stop-color="#028484" stop-opacity="0"/></linearGradient></defs><title>11</title><g id="Cuadrados_Blancos" data-name="Cuadrados Blancos"><rect class="cls-1" width="600" height="600"/></g><g id="Capa_24" data-name="Capa 24"><path class="cls-2" d="M549.48,171.5H453.09a19,19,0,0,0-18.95,18.95V195a183,183,0,0,0-89.74-23.37c-101.53,0-183.84,82.31-183.84,183.83a183.1,183.1,0,0,0,20.58,84.59h-42a19,19,0,0,0-19,19v62.61a19,19,0,0,0,19,19h93.1l18.05,18a2.47,2.47,0,0,0,4.2-1.73V515.9a183,183,0,0,0,89.87,23.44c101.52,0,183.83-82.31,183.83-183.84a183.12,183.12,0,0,0-20-83.49h41.26a19,19,0,0,0,18.95-18.94V190.45A19,19,0,0,0,549.48,171.5Z"/><circle class="cls-3" cx="289.9" cy="301.01" r="183.83"/><circle class="cls-4" cx="289.91" cy="301.83" r="159"/><path class="cls-5" d="M289.91,118.24c-101.23,0-183.59,82.36-183.59,183.59s82.36,183.6,183.59,183.6S473.5,403.07,473.5,301.83,391.14,118.24,289.91,118.24Zm0,342.59c-87.68,0-159-71.33-159-159s71.33-159,159-159,159,71.33,159,159S377.56,460.83,289.91,460.83Z"/><g class="cls-6"><path class="cls-1" d="M369.41,163.23,209.75,440A159.76,159.76,0,0,0,369.41,163.23Z"/><path class="cls-7" d="M289.91,142.09A159.74,159.74,0,0,0,209.75,440L369.41,163.23A159,159,0,0,0,289.91,142.09Z"/></g><circle class="cls-8" cx="289.91" cy="172.49" r="7.54"/><circle class="cls-8" cx="289.91" cy="431.16" r="7.54"/><circle class="cls-8" cx="419.24" cy="301.83" r="7.54"/><circle class="cls-8" cx="162.83" cy="301.83" r="7.54"/><circle class="cls-8" cx="225.24" cy="189.79" r="7.54"/><circle class="cls-8" cx="354.58" cy="413.87" r="7.54"/><circle class="cls-8" cx="401.94" cy="237.16" r="7.54"/><circle class="cls-8" cx="177.87" cy="366.5" r="7.54"/><circle class="cls-8" cx="177.87" cy="237.16" r="7.54"/><circle class="cls-8" cx="401.94" cy="366.5" r="7.54"/><circle class="cls-8" cx="354.58" cy="189.79" r="7.54"/><circle class="cls-8" cx="225.24" cy="413.87" r="7.54"/><polygon class="cls-9" points="303.19 319.69 276.47 318.71 275.81 194.95 303.19 212.49 303.19 319.69"/><path class="cls-10" d="M348.27,327.73a13.71,13.71,0,0,1-11,25.08l-52.71-23.2a13.7,13.7,0,0,1,11-25.07Z"/><path class="cls-11" d="M398.59,117H495A19,19,0,0,1,513.93,136v62.62A19,19,0,0,1,495,217.51h-93.1l-18,18.05a2.39,2.39,0,0,1-3.46,0,2.36,2.36,0,0,1-.74-1.73V136A19,19,0,0,1,398.59,117Z"/><path class="cls-12" d="M495,117H479.16L408.47,217.51H495a19,19,0,0,0,18.95-18.94h0V136A19,19,0,0,0,495,117Z"/><path class="cls-13" d="M181.08,385.59H84.68a19,19,0,0,0-19,19v62.61a19,19,0,0,0,19,19h93.1l18.05,18a2.47,2.47,0,0,0,4.2-1.73V404.54A19,19,0,0,0,181.08,385.59Z"/><path class="cls-14" d="M181.08,385.59H165.26L94.57,486.1h83.21l18.05,18a2.47,2.47,0,0,0,4.2-1.73V404.54A19,19,0,0,0,181.08,385.59Z"/><path class="cls-8" d="M487.57,160.67H406a4.12,4.12,0,0,1,0-8.24h81.57a4.12,4.12,0,1,1,0,8.24Z"/><path class="cls-8" d="M448.43,182.09H406a4.12,4.12,0,0,1,0-8.24h42.43a4.12,4.12,0,0,1,0,8.24Z"/><path class="cls-8" d="M173.66,429.25H92.1a4.12,4.12,0,1,1,0-8.23h81.56a4.12,4.12,0,1,1,0,8.23Z"/><path class="cls-8" d="M134.53,450.68H92.1a4.12,4.12,0,1,1,0-8.24h42.43a4.12,4.12,0,1,1,0,8.24Z"/></g></svg>