<svg xmlns="http://www.w3.org/2000/svg" xmlns:xlink="http://www.w3.org/1999/xlink" viewBox="0 0 600 600"><defs><style>.cls-1{fill:none;}.cls-2{fill:url(#Degradado_sin_nombre_222);}.cls-3{fill:url(#Degradado_sin_nombre_33);}.cls-4{fill:#52a5df;}.cls-5{fill:#20669f;}.cls-6{clip-path:url(#clip-path);}.cls-7{opacity:0.5;isolation:isolate;fill:url(#Degradado_sin_nombre_32);}.cls-8{fill:#fff;}.cls-9{fill:#0b3460;}</style><linearGradient id="Degradado_sin_nombre_222" x1="256.68" y1="190.2" x2="429.32" y2="514.9" gradientUnits="userSpaceOnUse"><stop offset="0" stop-color="#192647" stop-opacity="0.5"/><stop offset="1" stop-color="#192647" stop-opacity="0"/></linearGradient><linearGradient id="Degradado_sin_nombre_33" x1="203.59" y1="139.49" x2="376.23" y2="464.18" gradientUnits="userSpaceOnUse"><stop offset="0" stop-color="#192647"/><stop offset="0" stop-color="#192647" stop-opacity="0.3"/><stop offset="1" stop-color="#192647" stop-opacity="0"/></linearGradient><clipPath id="clip-path"><path class="cls-1" d="M449.65,301.83A159.75,159.75,0,1,1,289.89,142.09,159.75,159.75,0,0,1,449.65,301.83"/></clipPath><linearGradient id="Degradado_sin_nombre_32" x1="159.36" y1="1973.2" x2="346.34" y2="2160.18" gradientTransform="translate(0 -1798)" gradientUnits="userSpaceOnUse"><stop offset="0" stop-color="#fff" stop-opacity="0.5"/><stop offset="1" stop-color="#ebf6f7" stop-opacity="0.2"/><stop offset="1" stop-color="#fff" stop-opacity="0"/></linearGradient></defs><title>11</title><g id="Cuadrados_Blancos" data-name="Cuadrados Blancos"><rect class="cls-1" width="600" height="600"/></g><g id="Capa_23" data-name="Capa 23"><circle class="cls-2" cx="343" cy="352.55" r="183.83"/><circle class="cls-3" cx="289.91" cy="301.83" r="183.83"/><circle class="cls-4" cx="289.91" cy="301.83" r="159"/><path class="cls-5" d="M289.91,118.24c-101.23,0-183.59,82.36-183.59,183.59s82.36,183.6,183.59,183.6S473.5,403.07,473.5,301.83,391.14,118.24,289.91,118.24Zm0,342.59c-87.68,0-159-71.33-159-159s71.33-159,159-159,159,71.33,159,159S377.56,460.83,289.91,460.83Z"/><g class="cls-6"><path class="cls-1" d="M369.41,163.23,209.75,440A159.76,159.76,0,0,0,369.41,163.23Z"/><path class="cls-7" d="M289.91,142.09A159.74,159.74,0,0,0,209.75,440L369.41,163.23A159,159,0,0,0,289.91,142.09Z"/></g><circle class="cls-8" cx="289.91" cy="172.49" r="7.54"/><circle class="cls-8" cx="289.91" cy="431.16" r="7.54"/><circle class="cls-8" cx="419.24" cy="301.83" r="7.54"/><circle class="cls-8" cx="162.83" cy="301.83" r="7.54"/><circle class="cls-8" cx="225.24" cy="189.79" r="7.54"/><circle class="cls-8" cx="354.58" cy="413.87" r="7.54"/><circle class="cls-8" cx="401.94" cy="237.16" r="7.54"/><circle class="cls-8" cx="177.87" cy="366.5" r="7.54"/><circle class="cls-8" cx="177.87" cy="237.16" r="7.54"/><circle class="cls-8" cx="401.94" cy="366.5" r="7.54"/><circle class="cls-8" cx="354.58" cy="189.79" r="7.54"/><circle class="cls-8" cx="225.24" cy="413.87" r="7.54"/><polygon class="cls-5" points="303.19 319.69 276.47 318.71 275.81 194.95 303.19 212.49 303.19 319.69"/><path class="cls-9" d="M348.27,327.73a13.71,13.71,0,0,1-11,25.08l-52.71-23.2a13.7,13.7,0,0,1,11-25.07Z"/></g></svg>