<svg id="Contenido" xmlns="http://www.w3.org/2000/svg" xmlns:xlink="http://www.w3.org/1999/xlink" viewBox="0 0 600 600"><defs><style>.cls-1{fill:url(#Degradado_sin_nombre_4);}.cls-2{fill:#1464a5;}.cls-3{opacity:0.7;fill:url(#Degradado_sin_nombre_2);}.cls-4{fill:#2dcccd;fill-rule:evenodd;}</style><linearGradient id="Degradado_sin_nombre_4" x1="247.46" y1="206.78" x2="413" y2="518.12" gradientUnits="userSpaceOnUse"><stop offset="0" stop-color="#192647" stop-opacity="0.5"/><stop offset="1" stop-color="#192647" stop-opacity="0"/></linearGradient><linearGradient id="Degradado_sin_nombre_2" x1="494.85" y1="289.29" x2="296.96" y2="289.29" gradientUnits="userSpaceOnUse"><stop offset="0" stop-color="#043263" stop-opacity="0.8"/><stop offset="1" stop-color="#043263" stop-opacity="0.2"/></linearGradient></defs><title>vacantes</title><path class="cls-1" d="M488.45,349.21c-.43,0-.84.07-1.26.08a45.28,45.28,0,0,0-76.64-42.2,89.24,89.24,0,0,0-171.57,9c-2-.15-4-.3-6-.3a77.84,77.84,0,0,0,0,155.67H493.87v-.28a61.1,61.1,0,0,0-5.42-122Z"/><path class="cls-2" d="M433.74,267.14c-.43,0-.84.07-1.27.08a44.83,44.83,0,0,0,1.36-10.81,45.3,45.3,0,0,0-78-31.39,89.24,89.24,0,0,0-171.57,9c-2-.15-4-.3-6-.3a77.84,77.84,0,1,0,0,155.67H439.16v-.28a61.1,61.1,0,0,0-5.42-122Z"/><path class="cls-3" d="M439.16,389.38v-.28a61.1,61.1,0,0,0-5.42-122c-.43,0-.84.07-1.27.08a44.83,44.83,0,0,0,1.36-10.81,45.3,45.3,0,0,0-78-31.39A89.26,89.26,0,0,0,333,189.21L226.56,389.38Z"/><path class="cls-4" d="M281.59,408.94h35.23V338.48l35.23-35.23V408.94h35.23l-52.85,61.65Zm17.61-88.08H264v70.46l-35.22,35.23V320.86H193.52l52.84-61.65Z"/></svg>