<svg xmlns="http://www.w3.org/2000/svg" xmlns:xlink="http://www.w3.org/1999/xlink" viewBox="0 0 600 600"><defs><style>.cls-1{fill:none;}.cls-2{fill:url(#Degradado_sin_nombre_56);}.cls-3{fill:#043263;}.cls-4{opacity:0.7;isolation:isolate;fill:url(#Degradado_sin_nombre_6);}.cls-5{fill:#2dcccd;}</style><linearGradient id="Degradado_sin_nombre_56" x1="244.78" y1="-2876.59" x2="429.62" y2="-3224.24" gradientTransform="matrix(1, 0, 0, -1, 0, -2726)" gradientUnits="userSpaceOnUse"><stop offset="0" stop-color="#192647" stop-opacity="0.5"/><stop offset="1" stop-color="#192647" stop-opacity="0"/></linearGradient><linearGradient id="Degradado_sin_nombre_6" x1="520.43" y1="-2994.05" x2="299.46" y2="-2994.05" gradientTransform="matrix(1, 0, 0, -1, 0, -2726)" gradientUnits="userSpaceOnUse"><stop offset="0" stop-color="#072146" stop-opacity="0.8"/><stop offset="1" stop-color="#072146" stop-opacity="0.2"/></linearGradient></defs><title>5</title><g id="Cuadrados_blancos" data-name="Cuadrados blancos"><rect class="cls-1" width="600" height="600"/></g><g id="Capa_6" data-name="Capa 6"><path class="cls-2" d="M513.27,310c-.48,0-.94.08-1.41.09a50.56,50.56,0,0,0-85.58-47.12A99.65,99.65,0,0,0,234.7,273c-2.23-.17-4.46-.33-6.7-.33a86.92,86.92,0,0,0,0,173.82H519.32v-.31a68.23,68.23,0,0,0-6.05-136.23Z"/><path class="cls-3" d="M452.19,243.31c-.48,0-.94.08-1.42.09a49.59,49.59,0,0,0,1.52-12.07,50.58,50.58,0,0,0-87.1-35.05,99.64,99.64,0,0,0-191.57,10.05c-2.24-.17-4.47-.33-6.7-.33a86.92,86.92,0,1,0-2,173.82H458.24v-.31a68.23,68.23,0,0,0-6.05-136.23Z"/><path class="cls-4" d="M458.24,379.81v-.31a68.23,68.23,0,0,0-6.05-136.23c-.48,0-.94.08-1.42.09a49.66,49.66,0,0,0,1.52-12.07,50.58,50.58,0,0,0-87.1-35,99.66,99.66,0,0,0-25.49-40L220.85,379.81Z"/><path class="cls-5" d="M282.3,401.65h39.34V323L361,283.63v118h39.34l-59,68.84ZM302,303.3h-39.3V382l-39.33,39.34v-118H184l59-68.84Z"/></g></svg>