<svg id="Contenido" xmlns="http://www.w3.org/2000/svg" xmlns:xlink="http://www.w3.org/1999/xlink" viewBox="0 0 600 600"><defs><style>.cls-1{fill:url(#Degradado_sin_nombre_7);}.cls-2{fill:#2dcccd;}.cls-3{fill:#1464a5;}.cls-4{fill:url(#Degradado_sin_nombre_16);}.cls-5{fill:#f6cb5c;}.cls-6{fill:url(#Degradado_sin_nombre_14);}.cls-7{fill:url(#Degradado_sin_nombre_27);}.cls-8{fill:#004481;}.cls-9{fill:#043263;}</style><linearGradient id="Degradado_sin_nombre_7" x1="272.55" y1="183.55" x2="442.31" y2="502.81" gradientUnits="userSpaceOnUse"><stop offset="0" stop-color="#192647"/><stop offset="0" stop-color="#192647" stop-opacity="0.5"/><stop offset="1" stop-color="#192647" stop-opacity="0"/></linearGradient><linearGradient id="Degradado_sin_nombre_16" x1="405" y1="318.14" x2="232" y2="318.14" gradientUnits="userSpaceOnUse"><stop offset="0" stop-color="#028484" stop-opacity="0.6"/><stop offset="1" stop-color="#028484" stop-opacity="0"/></linearGradient><linearGradient id="Degradado_sin_nombre_14" x1="228.06" y1="274.82" x2="300.57" y2="313.38" gradientUnits="userSpaceOnUse"><stop offset="0" stop-color="#fff" stop-opacity="0.6"/><stop offset="1" stop-color="#fff" stop-opacity="0.2"/></linearGradient><linearGradient id="Degradado_sin_nombre_27" x1="403.98" y1="313.13" x2="256.72" y2="313.13" gradientUnits="userSpaceOnUse"><stop offset="0" stop-color="#043263" stop-opacity="0.7"/><stop offset="1" stop-color="#043263" stop-opacity="0"/></linearGradient></defs><title>0</title><path class="cls-1" d="M469.15,225a23,23,0,0,0-22.8-20H431.5V186.75a1.75,1.75,0,0,0-1.75-1.75H270.25a1.75,1.75,0,0,0-1.75,1.75V205H253.65a23,23,0,0,0-22.8,20,3,3,0,0,0-2.85,3v4a3,3,0,0,0,2.65,3v7a3,3,0,0,0,3,3H245l5.42,73.13H249a3,3,0,0,0-3,3.22l6.22,84a3,3,0,0,0,3,2.78h1.84l6.16,83.16.17,2.29A23.14,23.14,0,0,0,286.48,515H413.64a23,23,0,0,0,22.94-21.3l.18-2.41,6.16-83.16h1.84a3,3,0,0,0,3-2.78l3.56-48,2.66-36a3,3,0,0,0-.79-2.26,2.81,2.81,0,0,0-.75-.57,3,3,0,0,0-1.45-.39h-1.4L455,245h11.35a3,3,0,0,0,3-3v-7a3,3,0,0,0,2.65-3v-4A3,3,0,0,0,469.15,225Z"/><polygon class="cls-2" points="405 195 195 195 213.24 441.29 386.76 441.29 405 195"/><path class="cls-3" d="M213.24,441.29l.17,2.29A23.14,23.14,0,0,0,236.48,465H363.64a23,23,0,0,0,22.94-21.3l.18-2.41Z"/><polygon class="cls-4" points="405 195 362.96 195 232 441.29 386.76 441.29 405 195"/><path class="cls-5" d="M381.5,313.11a81.5,81.5,0,1,1-81.56-81.5h0a81.51,81.51,0,0,1,81.56,81.5"/><path class="cls-6" d="M299.94,231.61a81.46,81.46,0,0,0-37.61,153.7l76.05-144.09A81.21,81.21,0,0,0,299.94,231.61Z"/><path class="cls-3" d="M394.76,358.13H205.24a3,3,0,0,1-3-2.78l-6.22-84a3,3,0,0,1,3-3.22H401a3,3,0,0,1,3,3.22l-6.22,84A3,3,0,0,1,394.76,358.13Z"/><path class="cls-7" d="M401,268.13H304.57l-47.85,90h138a3,3,0,0,0,3-2.78l6.22-84A3,3,0,0,0,401,268.13Z"/><path class="cls-3" d="M203.65,155h192.7a23,23,0,0,1,23,23v14a3,3,0,0,1-3,3H183.65a3,3,0,0,1-3-3V178a23,23,0,0,1,23-23Z"/><path class="cls-8" d="M220.25,135H379.75a1.75,1.75,0,0,1,1.75,1.75V155a0,0,0,0,1,0,0h-163a0,0,0,0,1,0,0V136.75A1.75,1.75,0,0,1,220.25,135Z"/><rect class="cls-9" x="178" y="175" width="244" height="10" rx="2.99"/></svg>