<svg xmlns="http://www.w3.org/2000/svg" xmlns:xlink="http://www.w3.org/1999/xlink" viewBox="0 0 600 600"><defs><style>.cls-1{fill:none;}.cls-2{fill:url(#Degradado_sin_nombre_21);}.cls-3{fill:#49a5e6;}.cls-4{fill:#004481;}.cls-5{fill:url(#Degradado_sin_nombre_114);}.cls-6{fill:#028484;}.cls-7{fill:#2dcccd;}.cls-8{fill:url(#Degradado_sin_nombre_58);}</style><linearGradient id="Degradado_sin_nombre_21" x1="254.28" y1="6552.59" x2="416.31" y2="6247.86" gradientTransform="matrix(1, 0, 0, -1, 0, 6790)" gradientUnits="userSpaceOnUse"><stop offset="0" stop-color="#1a2746" stop-opacity="0.5"/><stop offset="1" stop-color="#1a2746" stop-opacity="0"/></linearGradient><linearGradient id="Degradado_sin_nombre_114" x1="417.78" y1="6478.29" x2="230.31" y2="6478.29" gradientTransform="matrix(1, 0, 0, -1, 0, 6790)" gradientUnits="userSpaceOnUse"><stop offset="0" stop-color="#072146" stop-opacity="0.8"/><stop offset="1" stop-color="#072146" stop-opacity="0"/></linearGradient><linearGradient id="Degradado_sin_nombre_58" x1="496.01" y1="6379.62" x2="286.05" y2="6379.62" gradientTransform="matrix(1, 0, 0, -1, 0, 6790)" gradientUnits="userSpaceOnUse"><stop offset="0.01" stop-color="#028484" stop-opacity="0.6"/><stop offset="1" stop-color="#028484" stop-opacity="0.1"/></linearGradient></defs><title>11</title><g id="Cuadrados_Blancos" data-name="Cuadrados Blancos"><rect class="cls-1" width="600" height="600"/></g><g id="Capa_26" data-name="Capa 26"><path class="cls-2" d="M546.76,450.33H452.29a80.29,80.29,0,0,0,19.44-52.5v-.07l44.08-53.64A49.33,49.33,0,0,0,527,312.81h0a49.29,49.29,0,0,0-49.29-49.3h-6A10.79,10.79,0,0,0,460.92,253H227.68a10.79,10.79,0,0,0-10.79,10.79V397.83a80.22,80.22,0,0,0,19.43,52.5H142a3.24,3.24,0,0,0-3.24,3.24v15.51a3.23,3.23,0,0,0,2.81,3.24l46.27,6.1V486a3.24,3.24,0,0,0,3.24,3.24H497.68a3.24,3.24,0,0,0,3.24-3.24v-7.56l46.27-6.1a3.23,3.23,0,0,0,2.81-3.24V453.57A3.24,3.24,0,0,0,546.76,450.33ZM500.07,312.82A22.33,22.33,0,0,1,495,327l-23.24,28.27V290.52h6A22.33,22.33,0,0,1,500.07,312.82Z"/><path class="cls-3" d="M423.78,236.53A22.29,22.29,0,0,1,441.06,273L411.38,309.1V236.53h12.45m0-27H384.34V384.46l77.53-94.33a49.31,49.31,0,0,0,11.21-31.31h0a49.29,49.29,0,0,0-49.3-49.29Z"/><path class="cls-4" d="M173.75,199H407a10.79,10.79,0,0,1,10.8,10.8v134a80.57,80.57,0,0,1-80.57,80.57H243.55A80.58,80.58,0,0,1,163,343.84v-134A10.8,10.8,0,0,1,173.75,199Z"/><path class="cls-5" d="M407,199h-57.4L230.31,423.32a81.27,81.27,0,0,0,13.21,1.08h93.69a80.57,80.57,0,0,0,80.57-80.57v-134A10.79,10.79,0,0,0,407,199Z"/><path class="cls-6" d="M133.8,424.41H446.93V432a3.24,3.24,0,0,1-3.24,3.24H137A3.24,3.24,0,0,1,133.8,432v-7.56Z"/><path class="cls-7" d="M496,399.58a3.24,3.24,0,0,0-3.24-3.24H88a3.24,3.24,0,0,0-3.24,3.24v15.51a3.23,3.23,0,0,0,2.81,3.24l46.27,6.1H446.93l46.27-6.1a3.23,3.23,0,0,0,2.81-3.24Z"/><path class="cls-8" d="M492.77,396.34H301l-14.92,28.07H446.93l46.27-6.1a3.23,3.23,0,0,0,2.81-3.24V399.58A3.24,3.24,0,0,0,492.77,396.34Z"/></g></svg>