<svg id="Contenido" xmlns="http://www.w3.org/2000/svg" xmlns:xlink="http://www.w3.org/1999/xlink" viewBox="0 0 600 600"><defs><style>.cls-1{fill:url(#Degradado_sin_nombre_47);}.cls-2{fill:#49a5e6;}.cls-3{fill:#1464a5;}.cls-4{fill:url(#Degradado_sin_nombre_93);}.cls-5{fill:#028484;}.cls-6{fill:#2dcccd;}.cls-7{fill:url(#Degradado_sin_nombre_102);}</style><linearGradient id="Degradado_sin_nombre_47" x1="258.97" y1="245.31" x2="409.01" y2="527.49" gradientUnits="userSpaceOnUse"><stop offset="0" stop-color="#1a2746" stop-opacity="0.5"/><stop offset="1" stop-color="#1a2746" stop-opacity="0"/></linearGradient><linearGradient id="Degradado_sin_nombre_93" x1="410.36" y1="314.1" x2="236.74" y2="314.1" gradientUnits="userSpaceOnUse"><stop offset="0" stop-color="#043263" stop-opacity="0.4"/><stop offset="1" stop-color="#043263" stop-opacity="0.1"/></linearGradient><linearGradient id="Degradado_sin_nombre_102" x1="482.81" y1="405.48" x2="288.36" y2="405.48" gradientUnits="userSpaceOnUse"><stop offset="0.01" stop-color="#028484" stop-opacity="0.6"/><stop offset="1" stop-color="#028484" stop-opacity="0.1"/></linearGradient></defs><title>values-day</title><path class="cls-1" d="M529.81,442.48H442.32a74.32,74.32,0,0,0,18-48.62v-.06l40.83-49.68a45.69,45.69,0,0,0,10.38-29h0a45.65,45.65,0,0,0-45.65-45.65h-5.57a10,10,0,0,0-10-9.75h-216a10,10,0,0,0-10,10V393.86a74.32,74.32,0,0,0,18,48.62H154.91a3,3,0,0,0-3,3v14.37a3,3,0,0,0,2.6,3l42.85,5.65v7a3,3,0,0,0,3,3h284a3,3,0,0,0,3-3v-7l42.85-5.65a3,3,0,0,0,2.6-3V445.48A3,3,0,0,0,529.81,442.48ZM486.57,315.13a20.67,20.67,0,0,1-4.69,13.11l-21.52,26.18V294.48h5.56A20.68,20.68,0,0,1,486.57,315.13Z"/><path class="cls-2" d="M415.92,244.48a20.65,20.65,0,0,1,16,33.76l-27.49,33.45V244.48h11.53m0-25H379.39v162l71.8-87.36a45.69,45.69,0,0,0,10.38-29h0a45.65,45.65,0,0,0-45.65-45.65Z"/><path class="cls-3" d="M184.36,209.73h216a10,10,0,0,1,10,10V343.86a74.62,74.62,0,0,1-74.62,74.62H249a74.62,74.62,0,0,1-74.62-74.62V219.73A10,10,0,0,1,184.36,209.73Z"/><path class="cls-4" d="M400.36,209.73H347.2L236.74,417.47a76,76,0,0,0,12.24,1h86.76a74.62,74.62,0,0,0,74.62-74.62V219.73A10,10,0,0,0,400.36,209.73Z"/><path class="cls-5" d="M147.36,418.48h290a0,0,0,0,1,0,0v7a3,3,0,0,1-3,3h-284a3,3,0,0,1-3-3v-7A0,0,0,0,1,147.36,418.48Z"/><path class="cls-6" d="M482.81,395.48a3,3,0,0,0-3-3H104.91a3,3,0,0,0-3,3v14.37a3,3,0,0,0,2.6,3l42.85,5.65h290l42.85-5.65a3,3,0,0,0,2.6-3Z"/><path class="cls-7" d="M479.81,392.48H302.18l-13.82,26h149l42.85-5.65a3,3,0,0,0,2.6-3V395.48A3,3,0,0,0,479.81,392.48Z"/></svg>