<svg xmlns="http://www.w3.org/2000/svg" xmlns:xlink="http://www.w3.org/1999/xlink" viewBox="0 0 600 600"><defs><style>.cls-1{fill:none;}.cls-2{fill:url(#Degradado_sin_nombre_445);}.cls-3{fill:#2dcccd;}.cls-4{fill:#004481;}.cls-5{fill:url(#Degradado_sin_nombre_38);}.cls-6{fill:#f6cb5c;}.cls-7{fill:url(#Degradado_sin_nombre_18);}.cls-8{fill:url(#Degradado_sin_nombre_114);}.cls-9{fill:#043263;}</style><linearGradient id="Degradado_sin_nombre_445" x1="266.74" y1="6622.08" x2="455.27" y2="6267.53" gradientTransform="matrix(1, 0, 0, -1, 0, 6790)" gradientUnits="userSpaceOnUse"><stop offset="0" stop-color="#192647" stop-opacity="0.5"/><stop offset="1" stop-color="#192647" stop-opacity="0"/></linearGradient><linearGradient id="Degradado_sin_nombre_38" x1="413.84" y1="6472.61" x2="221.72" y2="6472.61" gradientTransform="matrix(1, 0, 0, -1, 0, 6790)" gradientUnits="userSpaceOnUse"><stop offset="0" stop-color="#028484" stop-opacity="0.6"/><stop offset="1" stop-color="#028484" stop-opacity="0"/></linearGradient><linearGradient id="Degradado_sin_nombre_18" x1="217.32" y1="6520.74" x2="297.88" y2="6477.9" gradientTransform="matrix(1, 0, 0, -1, 0, 6790)" gradientUnits="userSpaceOnUse"><stop offset="0" stop-color="#fff" stop-opacity="0.6"/><stop offset="1" stop-color="#fff" stop-opacity="0.2"/></linearGradient><linearGradient id="Degradado_sin_nombre_114" x1="412.67" y1="6478.18" x2="249.17" y2="6478.18" gradientTransform="matrix(1, 0, 0, -1, 0, 6790)" gradientUnits="userSpaceOnUse"><stop offset="0" stop-color="#072146" stop-opacity="0.8"/><stop offset="1" stop-color="#072146" stop-opacity="0"/></linearGradient></defs><title>11</title><g id="Cuadrados_Blancos" data-name="Cuadrados Blancos"><rect class="cls-1" width="600" height="600"/></g><g id="Capa_25" data-name="Capa 25"><path class="cls-2" d="M485.08,214a25.53,25.53,0,0,0-25.32-22.21H443.27V171.47a1.94,1.94,0,0,0-1.94-1.94H264.2a1.94,1.94,0,0,0-1.94,1.94h0v20.27h-16.5A25.55,25.55,0,0,0,220.44,214a3.33,3.33,0,0,0-3.16,3.33v4.44a3.33,3.33,0,0,0,2.94,3.33v7.78a3.33,3.33,0,0,0,3.33,3.33h12.61l6,81.21H240.6a3.33,3.33,0,0,0-3.34,3.32,2.26,2.26,0,0,0,0,.26l6.91,93.28a3.33,3.33,0,0,0,3.33,3.09h2l6.84,92.35.19,2.54A25.7,25.7,0,0,0,282.22,536H423.44a25.55,25.55,0,0,0,25.47-23.65l.2-2.68L456,417.32H458a3.34,3.34,0,0,0,3.33-3.09l3.95-53.3,3-40a3.35,3.35,0,0,0-.88-2.51,3.23,3.23,0,0,0-.83-.64,3.52,3.52,0,0,0-1.61-.43h-1.56l6-81.21H482a3.33,3.33,0,0,0,3.33-3.33h0v-7.78a3.33,3.33,0,0,0,2.95-3.33v-4.44A3.33,3.33,0,0,0,485.08,214Z"/><polygon class="cls-3" points="413.84 180.63 180.63 180.63 200.89 454.14 393.59 454.14 413.84 180.63"/><path class="cls-4" d="M200.89,454.14l.19,2.55a25.69,25.69,0,0,0,25.62,23.78H367.91a25.53,25.53,0,0,0,25.48-23.65l.2-2.68Z"/><polygon class="cls-5" points="413.84 180.63 367.16 180.63 221.72 454.14 393.59 454.14 413.84 180.63"/><path class="cls-6" d="M387.74,311.8a90.51,90.51,0,1,1-90.57-90.51h0a90.52,90.52,0,0,1,90.57,90.46v.05"/><path class="cls-7" d="M297.17,221.29A90.47,90.47,0,0,0,255.4,392l84.46-160A90.19,90.19,0,0,0,297.17,221.29Z"/><path class="cls-4" d="M402.47,361.79H192a3.32,3.32,0,0,1-3.33-3.09l-6.91-93.28a3.35,3.35,0,0,1,3.08-3.57H409.4a3.34,3.34,0,0,1,3.34,3.33,2.09,2.09,0,0,1,0,.25l-6.91,93.28A3.31,3.31,0,0,1,402.47,361.79Z"/><path class="cls-8" d="M409.4,261.84H302.31l-53.14,100H402.43a3.33,3.33,0,0,0,3.33-3.09l6.9-93.28a3.33,3.33,0,0,0-3.07-3.57Z"/><path class="cls-4" d="M190.24,136.21h214a25.55,25.55,0,0,1,25.54,25.54V177.3a3.33,3.33,0,0,1-3.33,3.33H168a3.33,3.33,0,0,1-3.33-3.33V161.75A25.54,25.54,0,0,1,190.24,136.21Z"/><path class="cls-9" d="M208.67,114H385.8a1.94,1.94,0,0,1,1.94,1.94v20.27h-181V115.94A1.94,1.94,0,0,1,208.67,114Z"/><rect class="cls-9" x="161.75" y="158.42" width="270.97" height="11.11" rx="3.32"/></g></svg>