<svg id="Contenido" xmlns="http://www.w3.org/2000/svg" xmlns:xlink="http://www.w3.org/1999/xlink" viewBox="0 0 600 600"><defs><style>.cls-1,.cls-2,.cls-23,.cls-3,.cls-4,.cls-6,.cls-7{isolation:isolate;}.cls-2,.cls-23,.cls-4,.cls-6{font-size:23.56px;}.cls-2,.cls-23,.cls-3,.cls-4,.cls-6,.cls-7{font-family:BentonSansBBVA-Book, Benton Sans BBVA;}.cls-2,.cls-6{letter-spacing:-0.01em;}.cls-3,.cls-7{font-size:29.93px;letter-spacing:-0.01em;}.cls-23,.cls-4{letter-spacing:-0.01em;}.cls-5{fill:url(#Degradado_sin_nombre_74);}.cls-23,.cls-6{fill:#274680;}.cls-7{fill:#264482;}.cls-8{fill:#072146;}.cls-9{fill:#2dcccd;}.cls-10{fill:#028484;}.cls-11{fill:#d99863;}.cls-12{fill:#e4af80;}.cls-13{fill:#3c64a1;}.cls-14{fill:#152649;}.cls-15{fill:#eaf9fa;}.cls-16{fill:#043263;}.cls-17{fill:#d4edfc;}.cls-18{fill:#1464a5;}.cls-19{fill:#004481;}.cls-20{fill:url(#Degradado_sin_nombre_2);}.cls-21{fill:#121212;}.cls-22{fill:#f8cd51;}.cls-24{fill:url(#Degradado_sin_nombre_14);}.cls-25{fill:url(#Degradado_sin_nombre_4);}.cls-26{fill:url(#Degradado_sin_nombre_4-2);}.cls-27{fill:#fff;}.cls-28{fill:#c49735;}.cls-29{fill:none;}</style><linearGradient id="Degradado_sin_nombre_74" x1="202.94" y1="146.86" x2="421.7" y2="558.27" gradientUnits="userSpaceOnUse"><stop offset="0" stop-color="#082146" stop-opacity="0.5"/><stop offset="1" stop-color="#082146" stop-opacity="0"/></linearGradient><linearGradient id="Degradado_sin_nombre_2" x1="286.13" y1="-1601.59" x2="259.43" y2="-1579.18" gradientTransform="matrix(1, 0, 0, -1, 0, -1198)" gradientUnits="userSpaceOnUse"><stop offset="0" stop-color="#274680"/><stop offset="1" stop-color="#274680" stop-opacity="0"/></linearGradient><linearGradient id="Degradado_sin_nombre_14" x1="160.15" y1="167.03" x2="213.63" y2="167.03" gradientUnits="userSpaceOnUse"><stop offset="0.01" stop-color="#043263" stop-opacity="0.06"/><stop offset="1" stop-color="#043263" stop-opacity="0.4"/></linearGradient><linearGradient id="Degradado_sin_nombre_4" x1="157.94" y1="124.27" x2="169.12" y2="135.44" gradientUnits="userSpaceOnUse"><stop offset="0.01" stop-color="#edf8f9" stop-opacity="0.5"/><stop offset="1" stop-color="#edf8f9" stop-opacity="0.1"/><stop offset="1" stop-color="#ebf6f7" stop-opacity="0.2"/></linearGradient><linearGradient id="Degradado_sin_nombre_4-2" x1="115.5" y1="332.85" x2="127.05" y2="344.4" xlink:href="#Degradado_sin_nombre_4"/></defs><g class="cls-1"><text class="cls-2" transform="translate(255.83 338.27) scale(0.95 1)"><tspan xml:space="preserve">  </tspan></text></g><text class="cls-3" transform="translate(384.09 345.23) scale(0.95 1)"><tspan xml:space="preserve">  </tspan></text><g class="cls-1"><text class="cls-2" transform="translate(215.83 298.27) scale(0.95 1)"><tspan xml:space="preserve">  </tspan></text></g><text class="cls-3" transform="translate(344.09 305.23) scale(0.95 1)"><tspan xml:space="preserve">  </tspan></text><g class="cls-1"><text class="cls-2" transform="translate(205.83 288.62) scale(0.95 1)"><tspan xml:space="preserve">  </tspan></text></g><text class="cls-3" transform="translate(334.09 295.58) scale(0.95 1)"><tspan xml:space="preserve">  </tspan></text><g class="cls-1"><text class="cls-4" transform="translate(164.55 245.4) scale(1.05 1)"><tspan xml:space="preserve">  </tspan></text></g><text class="cls-3" transform="translate(294.09 255.58) scale(0.95 1)"><tspan xml:space="preserve">  </tspan></text><path class="cls-5" d="M588,425.07c0-2-.13-4.08-.26-7.64-.38-9.25-.87-18.15-1.55-27.32l-.28-3.53-.08-.93-.05-.48-.1-.7c-.15-1-.27-2-.48-3a60.18,60.18,0,0,0-4.05-13.38,54.58,54.58,0,0,0-9.1-14.3,57,57,0,0,0-13.32-11c-4.64-2.8-9.17-4.31-12.94-6-3.45-1.55-5.08-2.41-7.64-3.37a153.46,153.46,0,0,0-17.5-6.25,21.41,21.41,0,0,0-4.49-5.27h0v0a33.73,33.73,0,0,0-10.9-5.94c-1.28-.45-2.64-.85-4.05-1.22l-2.75-16.76c3.55-6.52,5-13.74,6.86-18.7.59-1.58,1.14-3.12,1.66-4.65l.11-.09a26.82,26.82,0,0,0,7.41-11.4c1.35-4.94,2-13.77-1.47-15.37a3.17,3.17,0,0,0-1.81-.19c.21-1.55.39-3.06.53-4.5a19.2,19.2,0,0,0,4.32-8.12c1-4.24.38-8.26-2.24-15.42-4-10.87-5.92-16.31-9.73-20.45-6.18-6.71-14-8-29.69-11-14.68-2.73-22-4.1-27.72.23-6.28,4.7-7.83,13.31-8.18,18.69a.8.8,0,0,0-.33.16,3.86,3.86,0,0,0-1.67-.63c-4.94-.54-10.19,10-12.31,17.37-1.41,4.92-3.13,10.9-.87,17.15a32.72,32.72,0,0,0,3,5.49,3.05,3.05,0,0,0-.6.06,4.08,4.08,0,0,0-2.31,2c-3.65,6,2.22,18.49,3.2,20.53.51,1,2.69,5,6.66,6.46a8.63,8.63,0,0,0,.9.3,73,73,0,0,0,8.31,16.63c.85,1.27,1.75,2.89,2.8,4.66l-1.39,15.71c-.14,1.56-.28,3.16-.42,4.81a35.34,35.34,0,0,0-6.2,3.49,27.59,27.59,0,0,0-3.43,2.85l-.19.18h0a24.26,24.26,0,0,0-2.77,3.35c-7.8,2.06-14.89,3.83-20.57,6.49-1.17.34-2.37.69-3.64,1.11a69.29,69.29,0,0,0-13.31,6,58.38,58.38,0,0,0-13.85,11.2l-.78.91-.38,0-.54,0-4-24.52-.2-1.21q.46-.65.9-1.29a66.46,66.46,0,0,0,9.6-21.64c.7-3.37,1.71-6.73,2.7-10.21a33.94,33.94,0,0,0,5.52-10.26c1.38-5.07,2.22-13.34.14-17.41,1.11-1.7,9.28-15.1.69-27.54,0,0,19.3-26.66-18-29.65C342.66,207,327.9,190,327.9,190s-17-13.92-25.5,7.8c-1.76,4.52,1.53,9.84-10.53,10.15-4.47.11-13.77,6.22-8.72,20.55,0,0,2,9.62-6.37,13-3.44,1.4-6.6,18.38,5,23.07a9.51,9.51,0,0,0-.81,1.15c-4.63,7.66,2.82,23.48,4.07,26.07.64,1.23,3.41,6.34,8.45,8.2a9,9,0,0,0,2.3.67c.94,3.11,2,6.18,3.15,9.21.38.85.85,1.85,1.31,2.88a77.83,77.83,0,0,0,6,10.22,61.12,61.12,0,0,0,3.81,5.22l-2.22,25.14-.22-.2s0,.1,0,.16h-.09c-.12,0-.36,0-.71-.05-2.17-.16-4.78-.22-7.58-.25a72,72,0,0,0-52.87-26.11c-1,0-1.92-.07-2.9-.08h-.29c-2.21,0-10.15.12-10.16.24v0l-.24.33a78.51,78.51,0,0,1-7.84-5.29c-4.37-3.38-5.32-8.14-6.68-15-.09-.46-.18-1-.27-1.52h20.45c-.38,7.87-.74,13.19-.74,13.19s21-13.19,21-34.19c0-11.37-1.9-35.24-9.17-54.75.28-.27.56-.53.82-.8l.21-.09.14,0v-.1a20.38,20.38,0,0,0,6.52-4.92l11.61-13.3a9.11,9.11,0,0,0,1-10.92L254.84,175.3a10.75,10.75,0,0,0-6.09-4.6L207,158a12,12,0,0,0-7,0L158.55,170.7a10.74,10.74,0,0,0-6.06,4.59l-14.92,24.43a9.14,9.14,0,0,0,1,10.92l11.61,13.3a20.31,20.31,0,0,0,6.53,4.92v.4l.25-.08c.38.38.77.75,1.18,1.13-7.12,19.41-9,43-9,54.25,0,21,21,34.19,21,34.19s-.37-5.32-.74-13.19h18.88c-1.35,7.83-3.18,14.84-5.56,17.33a2.15,2.15,0,0,1,.51-.44c-.17.22-.33.45-.51.67a20,20,0,0,1-4.73,4.05l-.09-.12c0-.12-7.94-.22-10.16-.24h-.28c-1,0-2,0-2.91.08a72,72,0,0,0-55.35,29.28,143.51,143.51,0,0,0-9.51,14.54,98.21,98.21,0,0,0-11,26.25,85.67,85.67,0,0,0-2.39,16.15c-.17,2.51-.25,4.9-.27,7.2-.08,5,.13,27.06,9.85,40.13,8.71,11.75,23.77,12.14,36.4,10.54l58.84-7.43c-.17,2.85-.27,5.61-.29,8.24-.11,6.41.16,34.38,12.51,51,11.06,14.93,30.19,15.41,46.24,13.39l78.57-9.93h0l16.65-2.11,7-.89.32,0c15.3,3.38,31.7,6.18,48.82,8.34,9.83,1.87,34.52,4.53,34.52,4.53,16,2,35.15,1.54,46.24-13.39,12.33-16.61,12.6-44.58,12.5-51,0-2-.08-4-.18-6.13l2.64.13c13.59,1.75,29.24,3.7,47.38,6.1,6.48.86,13.07-.24,19.5-1.35a27.51,27.51,0,0,0,22.85-29.28l-.86-14.12-1.34.12,2-.17A2,2,0,0,0,588,425.07ZM289.43,265.77l.49,0c0,.2,0,.39.05.59ZM442.9,324.14c-1.75.55-3.49,1.06-5.2,1.55a25.85,25.85,0,0,1,2.85-2.24c.48-.33,1-.65,1.5-.95h0c.34-.2.69-.39,1-.58C443,322.65,443,323.39,442.9,324.14Zm59.74-2.52h-.3l-.51-3.1c.62.18,1.23.36,1.82.56a33.53,33.53,0,0,1,4,1.63,27.45,27.45,0,0,1,5.61,3.2c.58.5,1.1,1,1.59,1.49C509.47,323.85,505,322.59,502.64,321.62Z"/><g class="cls-1"><text class="cls-2" transform="translate(204.06 285.65) scale(0.95 1)"><tspan xml:space="preserve">  </tspan></text></g><text class="cls-3" transform="translate(332.33 292.61) scale(0.95 1)"><tspan xml:space="preserve">  </tspan></text><g class="cls-1"><text class="cls-2" transform="translate(164.06 245.65) scale(0.95 1)"><tspan xml:space="preserve">  </tspan></text></g><text class="cls-3" transform="translate(292.33 252.61) scale(0.95 1)"><tspan xml:space="preserve">  </tspan></text><g class="cls-1"><text class="cls-6" transform="translate(175.83 248.38) scale(0.95 1)"><tspan xml:space="preserve">  </tspan></text></g><text class="cls-7" transform="translate(304.09 255.33) scale(0.95 1)"><tspan xml:space="preserve">  </tspan></text><path class="cls-8" d="M435.55,264.91q20.26-.62,32.7,3.73l-1.6,3.21c-7.66-2.59-17.87-3.44-30.76-3-13.33.4-23.78,2.28-30.84,6.45h0c-.52.3-1,.62-1.5.94l-3.28-2.28C408,268.42,419.84,265.39,435.55,264.91Z"/><path class="cls-9" d="M550.74,370.19c-.38-9.25-.87-18.15-1.55-27.33l-.28-3.53-.08-.92-.05-.48-.1-.7c-.15-1-.27-2-.48-3a60.18,60.18,0,0,0-4.05-13.38,54.65,54.65,0,0,0-3.83-7.25,55.33,55.33,0,0,0-5.27-7.06,56.91,56.91,0,0,0-13.32-11c-4.64-2.8-9.17-4.31-12.94-6-3.45-1.54-5.08-2.41-7.64-3.36-12.66-5.65-30.12-9.47-35.51-11.75l-59.35,2.41c-12.63,4-24.4,6-33,10-1.17.33-2.37.69-3.64,1.11a69.29,69.29,0,0,0-13.31,5.95,58.38,58.38,0,0,0-13.85,11.2,57,57,0,0,0-9.57,14.66,63.69,63.69,0,0,0-4.39,13.74c-.23,1.08-.37,2.06-.55,3.09l-.11.71-.06.49-.11.92-.38,3.54c-.94,9.16-1.7,18-2.34,27.3-.31,4.66-.59,9.29-.76,14.58,0,1.34-.07,2.73-.08,4.3V391c0,.93,0,2,.12,3.46,0,.71.1,1.56.22,2.69.08.66.12,1.1.28,2.07l.22,1.29c.12.65.26,1.29.42,1.94l.29,1.11c.15.54.32,1.07.49,1.6s.37,1.05.57,1.57c.08.23.35.89.54,1.31s.42,1,.65,1.42c.47.94.95,1.82,1.53,2.76a33.25,33.25,0,0,0,3.78,5c.7.76,1.48,1.52,2.2,2.17l.66.57c.44.37.9.74,1.36,1.1a34.49,34.49,0,0,0,8,4.55,38.2,38.2,0,0,0,7.9,2.24c1.83.32,3.22.46,4.46.57,2.46.19,4.29.2,6,.19s3.22-.09,4.67-.17c2.89-.18,5.5-.42,8-.7,5-.55,9.71-1.23,14.33-1.95,9.2-1.45,18.07-3.1,26.88-4.85q6.62-1.31,13.16-2.69l3.86-.83,38.92,1.85c4.86.94,9.76,1.85,14.77,2.7,4.56.76,49.07-35.07,49.1-36l6.62-5.68,5-.43a2,2,0,0,0,1.83-2C551,375.81,550.87,373.75,550.74,370.19Z"/><path class="cls-10" d="M499.51,336.89c-4.64,17.32-10,32.94-16.83,45.28l9,.87C498.4,368.73,500.46,353.2,499.51,336.89Z"/><path class="cls-11" d="M519.33,344.66c-2.75-.69-13.67,12.7-21.75,23.26l.87-2.75,10.44-15.47.12-.19a2.33,2.33,0,0,0-3.57-3L491,360.6l-.25.26-.31.59-11.16,21.66-.26.48a6.51,6.51,0,0,0,.92,7.22c1.34,1.91,4.92,3.11,6.15,5.56.94,1.84,5.74,8.5,7.46,7.64,9.77-4.93,31.59-24.62,34.76-31.57C531.92,367,521.31,345.16,519.33,344.66Z"/><path class="cls-10" d="M360.68,342.34c2.65,15.41,6.09,29.4,11,40.66l-7.87,0C359.12,370.08,358.55,356.43,360.68,342.34Z"/><path class="cls-12" d="M507.06,424.66c-106.71-14.11-127.66-12.93-145.89-45,11.68-1.89,16.92-2,28.34-3.21,23.16-2.32,55.88,1.34,55.88,1.34l59.82,7.13a24,24,0,0,0,11.91-1.62l2-.85,29.38-2.54.86,14.12a27.49,27.49,0,0,1-22.85,29.27h0C520.13,424.42,513.54,425.51,507.06,424.66Z"/><polygon class="cls-13" points="383.69 397.19 415.18 421.64 432.66 419.48 383.69 397.19"/><path class="cls-12" d="M465.8,277.21c-.84,1.4-11.2,13.51-30,14.36-18,.81-28.83-12.7-30-14.18l5-56.93,45.89,1.8L459.54,239Z"/><path class="cls-11" d="M454.8,259.38a27.28,27.28,0,0,1-10,8.54c-7.86,4.1-15,4.15-25.58,8.88a56.54,56.54,0,0,0-9.18,5.05,36.93,36.93,0,0,1-4.23-4.46c1-11.35,1.68-19.21,2.74-29.57l48.18,2.72Z"/><path class="cls-12" d="M396.39,205.76s-4.09-7.29-7.67-6.44a4.07,4.07,0,0,0-2.31,2c-3.65,6,2.22,18.5,3.2,20.53.51,1,2.69,5,6.66,6.46a7.31,7.31,0,0,0,4.81.39,5.17,5.17,0,0,0,1.62-.78C407,223.77,396.39,205.76,396.39,205.76Z"/><path class="cls-12" d="M468.64,203.55c1.08-1,4.8-4.28,7.38-3.1,3.51,1.6,2.82,10.42,1.47,15.37a26.82,26.82,0,0,1-7.41,11.4,6.32,6.32,0,0,1-3.43,1.79,2.82,2.82,0,0,1-.82,0C464.79,228.67,464.88,223.11,468.64,203.55Z"/><path class="cls-12" d="M434.57,146.56A39.81,39.81,0,0,0,414.35,151a41.45,41.45,0,0,0-13,10.67c-6.71,10.55-8.24,19.45-8.55,24.81-.21,3.53.08,7.28.67,14.81a137.13,137.13,0,0,0,2.14,17.72,103.91,103.91,0,0,0,4.93,17c.3.67.67,1.46,1,2.27a62.12,62.12,0,0,0,4.69,8A50.18,50.18,0,0,0,415.55,257c3.53,2.92,8.5,7,16.09,7.86a26.71,26.71,0,0,0,16.44-3.79,40.35,40.35,0,0,0,12-12.07,52.56,52.56,0,0,0,7.55-17c1.24-5.9,3.65-11.7,4.44-18.78,1-8.64,0-17.31,0-24.45A69,69,0,0,0,467.81,173a66.45,66.45,0,0,0-5.26-10.33,37.2,37.2,0,0,0-12.33-11.54A35.44,35.44,0,0,0,434.57,146.56Z"/><path class="cls-14" d="M394,205.74s13.92-32.52,11.59-40.11-4.4-5.76-4.4-5.76a3.85,3.85,0,0,0-1.67-.62c-4.94-.54-10.19,10-12.31,17.37-1.41,4.92-3.13,10.9-.87,17.14,1.62,4.49,10.35,15.87,7.66,12Z"/><path class="cls-14" d="M401.42,163.74s9.06,21.58,62.69,17.24c0,0,7.09,8.89,8,30.93.77-3.36,1.46-6.93,2-10.79.26-1.85.47-3.65.64-5.36a19.26,19.26,0,0,0,4.32-8.12c1-4.24.38-8.27-2.24-15.42-3.95-10.88-5.92-16.32-9.73-20.45-6.18-6.71-14-8.05-29.69-11-14.68-2.73-22-4.1-27.72.22C401.33,147.28,401.34,160.42,401.42,163.74Z"/><path class="cls-15" d="M434.68,228.32a87.08,87.08,0,0,1-36.56-7.67,2,2,0,0,0-2.7,2.36,74.22,74.22,0,0,0,10.06,22.25c3.49,5.18,7.66,16.28,20.64,19.7a34.48,34.48,0,0,0,21.36-1.39c15.45-6.33,17.47-22.65,20.83-31.61,1-2.59,1.85-5.12,2.64-7.56a2,2,0,0,0-2.55-2.51A88.29,88.29,0,0,1,434.68,228.32Z"/><path class="cls-9" d="M434.09,241.08a66.25,66.25,0,0,1-20.79-3c4.34,3.18,12,5.3,20.79,5.3s16.46-2.12,20.79-5.3A66.16,66.16,0,0,1,434.09,241.08Z"/><path class="cls-9" d="M434.09,249.24A49.65,49.65,0,0,1,418.46,247c3.26,2.39,9,4,15.63,4s12.38-1.6,15.64-4A49.72,49.72,0,0,1,434.09,249.24Z"/><path class="cls-8" d="M396.65,277h0l.19-.19a28.5,28.5,0,0,1,3.43-2.85l3.28,2.28a25.7,25.7,0,0,0-3.61,2.92c-6.4,6.29-7,13.28-6.25,18.86a37.1,37.1,0,0,0,3.23,10.9h0l-1.73.43-1.73.43a38.25,38.25,0,0,1-3.41-11.42C388.93,289.8,391.21,282.42,396.65,277Z"/><path class="cls-8" d="M479.15,274.58h0a20.28,20.28,0,0,1,7.14,12.67,1.88,1.88,0,0,0-.56-.2,10.85,10.85,0,0,0-1.4-.1l-.33,0-.55,0c.21,0-.26-.05-.39-.06a3.41,3.41,0,0,0-.55,0c-.65-3.54-2.33-6.85-6.23-10.17a28,28,0,0,0-5.61-3.2,35.25,35.25,0,0,0-4-1.62l1.6-3.21A33.55,33.55,0,0,1,479.15,274.58Z"/><path class="cls-16" d="M382.94,311.83a12,12,0,1,1,13,10.78A12,12,0,0,1,382.94,311.83Z"/><path class="cls-17" d="M474.9,361.65c8.9.53,10.59-5,10.66-5.27l10-34.86-2.65-.76-10,34.86c0,.13-1.26,3.67-7.85,3.28Z"/><path class="cls-17" d="M455,354.17c-7.84-4.25-6.34-9.86-6.27-10.1l10-34.86,2.64.76-10,34.86c0,.13-.87,3.78,4.93,6.92Z"/><path class="cls-18" d="M473.07,357c-2.65.23-4.69,1.8-4.55,3.52s2.42,2.93,5.07,2.71,4.7-1.8,4.55-3.52S475.73,356.8,473.07,357Z"/><path class="cls-18" d="M458.81,353c2.14,1.59,3,4,2,5.39s-3.6,1.21-5.74-.38-3-4-2-5.39S456.67,351.36,458.81,353Z"/><path class="cls-16" d="M496.15,322.59a61.45,61.45,0,0,0,2.07-15.75c-.12-11.33-4.45-18.54-12.5-20.84-19.09-5.46-27.77,24.09-28.13,25.35l4,1.13c.07-.27,7.89-26.83,23-22.51,6.2,1.78,9.4,7.47,9.5,16.91a57.83,57.83,0,0,1-1.91,14.58Z"/><rect class="cls-19" x="124.88" y="217.06" width="81.56" height="41.26"/><path class="cls-12" d="M206.05,285.61c-1,6.06-17.66,19-40.1,19-24,0-41.27-15.56-40.42-17.69.16-.39,1-.54,1.66-.78,4.73-1.82,14.16-4.89,18.53-10.28a22,22,0,0,0,4.25-8.57c.39-1.32.76-2.8,1.14-4.51a86.69,86.69,0,0,0,1.54-11.3c.09-1.12.19-2.31.3-3.63.29-3.7.63-8.26,1-14.09a9.06,9.06,0,0,1,.38-2.19,6.37,6.37,0,0,1,.56-1.24c4-6.74,20.8-7.84,24.69-2.52,1,1.41.9,3,.74,4.64,0,.07,0,.15,0,.22a109.13,109.13,0,0,0-.46,11.56c0,.81,0,1.61,0,2.39,0,1.33.11,2.61.19,3.81a72,72,0,0,0,1.12,9.39c1.36,6.9,2.31,11.66,6.68,15a85.24,85.24,0,0,0,15.3,9.23C203.86,284.52,206.15,285.1,206.05,285.61Z"/><path class="cls-11" d="M188.39,229.75c-.55,4.52-1.12,9.05-1.68,13.57-.29.76-.61,1.48-.9,2.18a33.72,33.72,0,0,1-7.62,10.88c-6.73,6.3-12.87,6.38-21.92,13.63-3.1,2.48-9.62,4.38-10.55,5.64,5.58-5.83,8.1-36.39,8.56-44.22a12.94,12.94,0,0,1,.47-3l31.65,1.19Z"/><path class="cls-12" d="M125.7,198c-.72,5.74-.5,25.19,12.16,43,3.4,4.78,7.44,15,20.06,18.18a35.25,35.25,0,0,0,20.75-1.29c15-5.84,17-20.89,20.24-29.16,6-15.2,8.44-28.16,8-31.15-.82-6.19-2.63-19.87-13.9-31a39.39,39.39,0,0,0-28.88-10.62,38.69,38.69,0,0,0-27.23,13C128,179.44,126.59,190.89,125.7,198Z"/><path class="cls-16" d="M287.86,373.07c0-2.29-.11-4.69-.27-7.19a86,86,0,0,0-2.4-16.19,98.38,98.38,0,0,0-11-26.22,142.31,142.31,0,0,0-9.5-14.54,72.17,72.17,0,0,0-55.36-29.29c-1,0-1.92-.06-2.9-.07h-.29c-2.21,0-10.15.11-10.16.23-.16,7.91-6.94,16.92-17.24,20.74a29.34,29.34,0,0,1-20.56,0c-10.29-3.82-17.08-12.83-17.25-20.74,0-.12-7.94-.21-10.16-.23h-.28c-1,0-2,0-2.91.07A72.06,72.06,0,0,0,72.2,308.93a142.4,142.4,0,0,0-9.51,14.54,98.21,98.21,0,0,0-11,26.25,85.43,85.43,0,0,0-2.39,16.15c-.17,2.51-.25,4.9-.27,7.19-.08,5,.13,27.06,9.85,40.14,8.71,11.75,23.77,12.13,36.4,10.54l80.51-10.17s33.35,5.6,38.61,6.59c7.7,1.47,27.24,3.58,27.24,3.58,12.63,1.59,27.67,1.21,36.4-10.54C287.73,400.12,287.94,378.1,287.86,373.07Z"/><path class="cls-20" d="M278,413.2c9.72-13.08,9.93-35.1,9.85-40.14,0-2.29-.11-4.69-.27-7.19a86,86,0,0,0-2.4-16.19,89.38,89.38,0,0,0-3.09-9.86L237.67,423.3l3.94.44C254.24,425.35,269.27,425,278,413.2Z"/><path class="cls-21" d="M102,341c-1.44,12.39-2,23.87-.73,33.59l-6-1.74C94.51,361.86,97.15,351.29,102,341Z"/><path class="cls-12" d="M242.05,336.5c-2.69-.67-13.34,12.39-21.21,22.68l.85-2.68,10.17-15.09.12-.18a2.28,2.28,0,0,0-3.48-2.91l-14,13.72-.25.25-.3.58L203,374l-.25.47a6.36,6.36,0,0,0,.89,7.05c1.31,1.85,4.8,3,6,5.41.91,1.8,5.6,8.29,7.27,7.45,9.52-4.81,30.79-24,33.89-30.78C254.31,358.32,244,337,242.05,336.5Z"/><path class="cls-16" d="M238.06,422.6c-68.74-5.5-127.86-23.39-142.86-49.76a47.71,47.71,0,0,1,24.87-10.28c18.47-1.85,40.69,2.23,40.69,2.23l80.68,10.06Z"/><polygon class="cls-21" points="120.5 385.21 157.12 415.93 175.75 413.57 120.5 385.21"/><path class="cls-18" d="M140.9,279.8s10.77,15.5,27.54,22.6c0,0-10.81,4.44-14.65,13.76C153.79,316.16,142,303.67,140.9,279.8Z"/><path class="cls-18" d="M196,279.8s-10.76,15.5-27.53,22.6c0,0,10.8,4.44,14.64,13.76C183.08,316.16,194.89,303.67,196,279.8Z"/><path class="cls-18" d="M166.66,168.71c-5.46,0-35,9.61-35,60.78,0,20.56,1.49,42,1.49,42s-21-13.18-21-34.19,6.48-84.68,41.34-84.68c9.61,0,13.18,2.9,13.18,2.9Z"/><path class="cls-18" d="M166.66,168.71c6.16,0,35.46,10.55,35.46,60.78,0,20.56-1.49,42-1.49,42s21-13.18,21-34.19-6.48-84.68-41.34-84.68c-9.61,0-13.18,2.9-13.18,2.9S166.66,164.75,166.66,168.71Z"/><rect class="cls-22" x="111.83" y="335.42" width="35.58" height="8.74" rx="1.88"/><g class="cls-1"><text class="cls-23" transform="translate(134.55 205.16) scale(1.05 1)"><tspan xml:space="preserve">  </tspan></text></g><path class="cls-16" d="M211.75,123.46,170,110.73a12.08,12.08,0,0,0-7,0l-41.38,12.71a10.83,10.83,0,0,0-6.06,4.59l-14.92,24.43a9.14,9.14,0,0,0,1,10.92l11.61,13.31a21,21,0,0,0,11.21,6.54l42.05,9.47h.46l42.05-9.47a21,21,0,0,0,11.21-6.54l11.61-13.31a9.11,9.11,0,0,0,1-10.92l-14.91-24.41A10.75,10.75,0,0,0,211.75,123.46Z"/><path class="cls-16" d="M119.7,181.69c9.15,9.52,26.85,16,47,16s37.82-6.7,47-16.23l-46.74-19.15Z"/><path class="cls-17" d="M119.7,175.18V182a153.94,153.94,0,0,1,47.41-7.14,154.66,154.66,0,0,1,46.52,6.84v-7A16.18,16.18,0,0,0,204,160.29a87.39,87.39,0,0,0-74.78.47C123.35,163.63,119.7,169.16,119.7,175.18Z"/><path class="cls-22" d="M174.36,127.49a3.06,3.06,0,0,1,1-2.35.56.56,0,0,0,0-.84l-2.31-2.07a1.28,1.28,0,0,0-1.26-.26,6.78,6.78,0,0,1-4.67,0,1.24,1.24,0,0,0-1,0,6.78,6.78,0,0,1-4.67,0,1.27,1.27,0,0,0-1.25.26l-2.32,2.07a.56.56,0,0,0,0,.84,3.06,3.06,0,0,1,1,2.35c0,3.3-2.3,5.18-2.3,9.37,0,6.87,7.66,7.57,9.57,9.15a.69.69,0,0,0,.86,0c1.91-1.58,9.57-2.28,9.57-9.15C176.66,132.67,174.36,130.79,174.36,127.49Z"/><path class="cls-24" d="M204,160.29a85.87,85.87,0,0,0-30.51-7.94L160.15,175q3.45-.13,7-.14a154.66,154.66,0,0,1,46.52,6.84v-7A16.18,16.18,0,0,0,204,160.29Z"/><path class="cls-25" d="M171.83,122a6.78,6.78,0,0,1-4.67,0,1.24,1.24,0,0,0-1,0,6.84,6.84,0,0,1-4.67,0,1.27,1.27,0,0,0-1.25.26l-2.32,2.07a.56.56,0,0,0,0,.84,3.06,3.06,0,0,1,1,2.35c0,3.3-2.3,5.18-2.3,9.37,0,3.58,2.08,5.48,4.33,6.7l11.51-21.63A1.39,1.39,0,0,0,171.83,122Z"/><path class="cls-26" d="M113.7,335.42a1.87,1.87,0,0,0-1.87,1.87v5a1.87,1.87,0,0,0,1.87,1.87h13.59l4.65-8.73Z"/><path class="cls-12" d="M344.75,330.1c-1.07,1.77-14.22,17.15-38.06,18.23-22.81,1-36.61-16.13-38.07-18L275,258l58.27,2.28,3.51,21.19Z"/><path class="cls-11" d="M330.77,282.47a53.55,53.55,0,0,1-12.64,20.32c-10,9.78-19.07,9.89-32.49,21.16A77.15,77.15,0,0,0,273.93,336c-.91-.85-1.88-1.8-2.85-2.84-.75-.85-1.82-2-2.44-2.79,2.13-24.1,4.26-47.15,6.37-71.25l58.27,2.28Z"/><path class="cls-12" d="M256.61,224.13s-5.2-9.26-9.74-8.18a5.16,5.16,0,0,0-2.94,2.55c-4.63,7.67,2.82,23.49,4.07,26.08.64,1.23,3.41,6.34,8.45,8.2a9.38,9.38,0,0,0,6.11.49,6.36,6.36,0,0,0,2.06-1C270.09,247,256.61,224.13,256.61,224.13Z"/><path class="cls-12" d="M344.07,221.32c1.37-1.24,6.09-5.44,9.37-3.94,4.46,2,3.58,13.24,1.87,19.51a34,34,0,0,1-9.41,14.48,7.93,7.93,0,0,1-4.36,2.27,3,3,0,0,1-1,0C339.18,253.22,339.29,246.16,344.07,221.32Z"/><path class="cls-12" d="M298.87,156.7c-8.91-.41-11.55-6.19-19.46-2.07a52.67,52.67,0,0,0-16.48,13.56c-8.52,13.4-10.46,24.69-10.86,31.5-.26,4.48.1,9.25.85,18.8A173.9,173.9,0,0,0,255.64,241a132.23,132.23,0,0,0,6.26,21.64c.38.85.85,1.86,1.31,2.89a79,79,0,0,0,6,10.22,63.48,63.48,0,0,0,11.77,13.41c4.47,3.7,10.79,8.94,20.43,10a34,34,0,0,0,20.88-4.81c7.61-4.83,11.92-10.5,15.24-15.33a66.41,66.41,0,0,0,9.6-21.65c1.56-7.49,4.63-14.85,5.64-23.84,1.23-11,0-22,0-31.05a88.62,88.62,0,0,0-5.43-19.9,85.53,85.53,0,0,0-6.68-13.11c-4-6-12.56,2.29-18.83-1.34C315.71,164.65,305.86,157.08,298.87,156.7Z"/><text class="cls-7" transform="translate(264.09 215.33) scale(0.95 1)"><tspan xml:space="preserve">  </tspan></text><path class="cls-18" d="M457.22,424.56c0-2.92-.14-6-.34-9.14a108.13,108.13,0,0,0-3.06-20.56,125,125,0,0,0-14-33.31,178.55,178.55,0,0,0-12.07-18.47,91.63,91.63,0,0,0-70.32-37.21q-1.83-.08-3.69-.09h-.37c-2.81,0-12.9.15-12.91.3-.2,10.05-8.82,21.48-21.9,26.34a37.25,37.25,0,0,1-26.11,0c-13.08-4.86-21.7-16.29-21.91-26.34,0-.15-10.09-.27-12.91-.3h-.36c-1.24,0-2.48,0-3.69.09-36.35,1.41-59.43,22.44-70.32,37.21a180.29,180.29,0,0,0-12.08,18.47,124.56,124.56,0,0,0-14,33.34,108.59,108.59,0,0,0-3,20.52c-.22,3.19-.32,6.23-.34,9.14-.11,6.4.16,34.37,12.51,51,11.06,14.92,30.19,15.41,46.24,13.38L314.82,476s42.38,7.11,49.06,8.38c9.78,1.87,34.6,4.54,34.6,4.54,16,2,35.15,1.54,46.24-13.38C457.05,458.92,457.32,431,457.22,424.56Z"/><path class="cls-19" d="M270.54,306.06c-3.71-.32-9-.32-14.26-.32l-10.12,65.17a2.76,2.76,0,0,0,1.82,3l8.19,2.88a2.76,2.76,0,0,1,1.71,3.52,2.17,2.17,0,0,1-.15.35l-4.46,8.86a2.79,2.79,0,0,0,.3,3l51.79,65.78Z"/><path class="cls-19" d="M340.47,306.06c3.71-.32,9-.32,14.26-.32l10.12,65.17a2.77,2.77,0,0,1-1.82,3l-8.2,2.88a2.77,2.77,0,0,0-1.7,3.54c0,.11.09.22.14.33l4.47,8.86a2.79,2.79,0,0,1-.31,3l-51.78,65.78Z"/><path class="cls-27" d="M286.78,317.82l-16.24-11.76,34,148.82,1.46,1.75,34.44-150.57-16,11.68A32.07,32.07,0,0,1,286.78,317.82Z"/><path class="cls-15" d="M270.54,305.91a91.63,91.63,0,0,0,35,18.24s-13.72,13.59-18.59,21.1C286.91,345.25,271.91,325.18,270.54,305.91Z"/><path class="cls-15" d="M340.46,306.08a91.79,91.79,0,0,1-35,18.24s13.73,13.58,18.6,21.1C324.1,345.42,339.09,325.34,340.46,306.08Z"/><path class="cls-9" d="M320.85,369.74,311.54,356a5.85,5.85,0,0,1,.7-7.41l8.78-8.77L305.51,324.3,290,339.82l8.78,8.77a5.85,5.85,0,0,1,.7,7.41l-9.3,13.74a6.19,6.19,0,0,0-.95,4.75l16.29,79.23,16.28-79.23A6.23,6.23,0,0,0,320.85,369.74Z"/><path class="cls-19" d="M221.05,383.8c-1.83,15.74-2.5,30.33-.92,42.68l-7.66-2.21C211.6,410.32,215,396.89,221.05,383.8Z"/><path class="cls-12" d="M399,378.1c-3.4-.85-16.94,15.73-26.94,28.81l1.08-3.4,12.93-19.17.15-.23a2.9,2.9,0,0,0-4.43-3.7L364,397.85l-.31.31-.38.74-13.82,26.81-.32.6a8.08,8.08,0,0,0,1.13,8.95c1.66,2.36,6.1,3.85,7.62,6.88,1.16,2.28,7.11,10.52,9.23,9.46,12.1-6.11,39.12-30.49,43.06-39.09C414.6,405.82,401.47,378.72,399,378.1Z"/><path class="cls-18" d="M394,487.48c-87.32-7-162.42-29.72-181.47-63.21a60.53,60.53,0,0,1,31.59-13.06c23.46-2.36,51.69,2.83,51.69,2.83l102.49,12.77Z"/><polygon class="cls-19" points="244.62 439.99 291.14 479 314.81 476 244.62 439.99"/><path class="cls-28" d="M253.7,218.47s11.9-.31,22.83-35.37c0,0,6.74,15,45.8,11.45,0,0,27.09-1.69,26.37,22.84,0,0,4.69-1.83,6.63,2.27,0,0,10-14.41.81-27.71,0,0,19.3-26.66-18-29.65-32.45-2.59-47.21-19.52-47.21-19.52s-17-13.91-25.5,7.81c-1.76,4.52,1.53,9.83-10.53,10.14-4.47.12-13.77,6.22-8.72,20.55,0,0,1.95,9.63-6.37,13C235.64,196,231.89,220.21,253.7,218.47Z"/><rect class="cls-29" width="600" height="600"/></svg>