<svg id="Contenido" xmlns="http://www.w3.org/2000/svg" xmlns:xlink="http://www.w3.org/1999/xlink" viewBox="0 0 600 600"><defs><style>.cls-1{fill:url(#Degradado_sin_nombre_7);}.cls-2{fill:#f3f3eb;}.cls-3{fill:#c49735;}.cls-4{fill:#f8cd50;}.cls-5{fill:#fade8e;}.cls-6{fill:#043263;}.cls-7{fill:#eaf9fa;}.cls-8{fill:#028484;}.cls-9{fill:#02a5a5;}.cls-10{fill:#2dcccd;}.cls-11{fill:#d4edfc;}.cls-12{fill:#004481;}.cls-13{fill:#1464a5;}.cls-14{fill:url(#Degradado_sin_nombre_38);}.cls-15{fill:url(#Degradado_sin_nombre_22);}</style><linearGradient id="Degradado_sin_nombre_7" x1="233.79" y1="229.32" x2="420.15" y2="579.8" gradientUnits="userSpaceOnUse"><stop offset="0" stop-color="#192647"/><stop offset="0" stop-color="#192647" stop-opacity="0.5"/><stop offset="1" stop-color="#192647" stop-opacity="0"/></linearGradient><linearGradient id="Degradado_sin_nombre_38" x1="462.56" y1="300.32" x2="392.39" y2="300.32" gradientUnits="userSpaceOnUse"><stop offset="0" stop-color="#028484" stop-opacity="0.5"/><stop offset="1" stop-color="#028484" stop-opacity="0.1"/></linearGradient><linearGradient id="Degradado_sin_nombre_22" x1="496.06" y1="424.05" x2="417.82" y2="424.05" gradientUnits="userSpaceOnUse"><stop offset="0" stop-color="#043263" stop-opacity="0.5"/><stop offset="1" stop-color="#043263" stop-opacity="0.1"/></linearGradient></defs><title>EXPERIENCE</title><path class="cls-1" d="M542.64,428.77a2.82,2.82,0,0,0-1.52-.45H375.34l61.08-35.26,3.93-2.27h0L456,381.73l53-30.61a2.84,2.84,0,0,0,1.35-1.76,2.84,2.84,0,0,0,0-1.53,2.7,2.7,0,0,0-.27-.66l-13.83-23.95-10.42-18.05h0L469.63,277a2.89,2.89,0,0,0-3.95-1L393,317.91l-70.93,40.95,35.27-61.08,41.94-72.64a2.89,2.89,0,0,0-1.06-3.95L328.13,180.7a2.9,2.9,0,0,0-4,1.06L282.24,254.4l-43.39,75.14-43.38,75.14-23.64,40.95-1.71,1a2.88,2.88,0,0,0-1.1,3.87l-15.49,26.83a2.89,2.89,0,0,0,1.06,3.95l42.35,24.45v6.48a2.89,2.89,0,0,0,2.89,2.89h6.48l3.24,5.61a2.89,2.89,0,0,0,3.95,1.06l5.61-3.24,5.61,3.24a2.88,2.88,0,0,0,3.95-1.06l3.24-5.61H541.12A2.89,2.89,0,0,0,544,512.2v-81A2.88,2.88,0,0,0,542.64,428.77Z"/><path class="cls-2" d="M122.9,372.9h83.88a0,0,0,0,1,0,0v86.77a0,0,0,0,1,0,0H122.9a2.89,2.89,0,0,1-2.89-2.89v-81A2.89,2.89,0,0,1,122.9,372.9Z" transform="translate(-278.81 349.65) rotate(-60)"/><rect class="cls-3" x="163.39" y="297.76" width="86.77" height="86.77" transform="translate(-192.05 349.65) rotate(-60)"/><rect class="cls-4" x="206.78" y="222.61" width="86.77" height="86.77" transform="translate(-105.28 349.65) rotate(-60)"/><path class="cls-5" d="M250.16,147.47H334a2.89,2.89,0,0,1,2.89,2.89v81a2.89,2.89,0,0,1-2.89,2.89H250.16a0,0,0,0,1,0,0V147.47a0,0,0,0,1,0,0Z" transform="translate(-18.51 349.65) rotate(-60)"/><circle class="cls-6" cx="171.16" cy="445.26" r="9.64"/><path class="cls-7" d="M138.43,372.9h83.88a0,0,0,0,1,0,0v86.77a0,0,0,0,1,0,0H138.43a2.89,2.89,0,0,1-2.89-2.89v-81a2.89,2.89,0,0,1,2.89-2.89Z" transform="translate(-184.17 145.23) rotate(-30)"/><rect class="cls-8" x="210.68" y="329.52" width="86.77" height="86.77" transform="translate(-152.41 176.99) rotate(-30)"/><rect class="cls-9" x="285.82" y="286.13" width="86.77" height="86.77" transform="translate(-120.65 208.75) rotate(-30)"/><path class="cls-10" d="M361,242.75h83.88a2.89,2.89,0,0,1,2.89,2.89v81a2.89,2.89,0,0,1-2.89,2.89H361a0,0,0,0,1,0,0V242.75A0,0,0,0,1,361,242.75Z" transform="translate(-88.89 240.51) rotate(-30)"/><circle class="cls-6" cx="171.16" cy="445.26" r="9.64"/><path class="cls-11" d="M151.88,380.66h83.88a0,0,0,0,1,0,0v86.77a0,0,0,0,1,0,0H151.88a2.89,2.89,0,0,1-2.89-2.89v-81A2.89,2.89,0,0,1,151.88,380.66Z"/><rect class="cls-6" x="235.75" y="380.66" width="86.77" height="86.77"/><rect class="cls-12" x="322.52" y="380.66" width="86.77" height="86.77"/><path class="cls-13" d="M409.29,380.66h83.88a2.89,2.89,0,0,1,2.89,2.89v81a2.89,2.89,0,0,1-2.89,2.89H409.29a0,0,0,0,1,0,0V380.66a0,0,0,0,1,0,0Z"/><circle class="cls-6" cx="171.16" cy="445.26" r="9.64"/><path class="cls-14" d="M462.17,299.51l-24.25-42-45.53,85.62,68.72-39.67A2.89,2.89,0,0,0,462.17,299.51Z"/><path class="cls-15" d="M493.16,380.66H464l-46.14,86.77h75.34a2.89,2.89,0,0,0,2.9-2.89v-81A2.9,2.9,0,0,0,493.16,380.66Z"/></svg>