<svg id="Contenido" xmlns="http://www.w3.org/2000/svg" xmlns:xlink="http://www.w3.org/1999/xlink" viewBox="0 0 600 600"><defs><style>.cls-1,.cls-2,.cls-3{fill:none;}.cls-2{fill-rule:evenodd;}.cls-3{clip-rule:evenodd;}.cls-4{fill:url(#Degradado_sin_nombre_7);}.cls-5{clip-path:url(#clip-path);}.cls-6{clip-path:url(#clip-path-2);}.cls-7{clip-path:url(#clip-path-3);}.cls-8{clip-path:url(#clip-path-4);}.cls-9{clip-path:url(#clip-path-8);}.cls-10{clip-path:url(#clip-path-9);}.cls-11{clip-path:url(#clip-path-10);}.cls-12{clip-path:url(#clip-path-11);}.cls-13{clip-path:url(#clip-path-12);}.cls-14{clip-path:url(#clip-path-13);}.cls-15{clip-path:url(#clip-path-14);}.cls-16{clip-path:url(#clip-path-15);}.cls-17{clip-path:url(#clip-path-16);}.cls-18{clip-path:url(#clip-path-17);}.cls-19{clip-path:url(#clip-path-18);}.cls-20{clip-path:url(#clip-path-19);}.cls-21{clip-path:url(#clip-path-20);}.cls-22{clip-path:url(#clip-path-21);}.cls-23{clip-path:url(#clip-path-22);}.cls-24{clip-path:url(#clip-path-23);}.cls-25{clip-path:url(#clip-path-24);}.cls-26{clip-path:url(#clip-path-25);}.cls-27{clip-path:url(#clip-path-26);}.cls-28{clip-path:url(#clip-path-27);}.cls-29{clip-path:url(#clip-path-28);}.cls-30{clip-path:url(#clip-path-29);}.cls-31{clip-path:url(#clip-path-30);}.cls-32{clip-path:url(#clip-path-31);}.cls-33{clip-path:url(#clip-path-32);}.cls-34{clip-path:url(#clip-path-33);}.cls-35{clip-path:url(#clip-path-34);}.cls-36{clip-path:url(#clip-path-35);}.cls-37{fill:#004481;}.cls-38{fill:#1464a5;}.cls-39{fill:#2dcccd;}.cls-40{fill:#4ea6e3;}.cls-41,.cls-42{opacity:0.5;}.cls-41{fill:url(#Degradado_sin_nombre_3);}.cls-42{fill:url(#Degradado_sin_nombre_3-2);}.cls-43{fill:#eaf9fa;}.cls-44{fill:#e87d8e;}.cls-45{fill:#c1475f;}</style><linearGradient id="Degradado_sin_nombre_7" x1="260.5" y1="195.47" x2="450.37" y2="552.57" gradientUnits="userSpaceOnUse"><stop offset="0" stop-color="#192647"/><stop offset="0" stop-color="#192647" stop-opacity="0.5"/><stop offset="1" stop-color="#192647" stop-opacity="0"/></linearGradient><clipPath id="clip-path"><rect class="cls-1" x="-2426.68" y="628.61" width="53.76" height="39.88"/></clipPath><clipPath id="clip-path-2"><path class="cls-3" d="M-2354,727.65h-86.58a9.36,9.36,0,0,1-9.45-9.21v-62.8a9.36,9.36,0,0,1,9.45-9.21H-2354a9.36,9.36,0,0,1,9.45,9.21v62.8a9.36,9.36,0,0,1-9.45,9.21"/></clipPath><clipPath id="clip-path-3"><path class="cls-3" d="M-2359.41,727.65H-2446a9.36,9.36,0,0,1-9.45-9.21v-62.8a9.36,9.36,0,0,1,9.45-9.21h86.58a9.36,9.36,0,0,1,9.45,9.21v62.8a9.36,9.36,0,0,1-9.45,9.21"/></clipPath><clipPath id="clip-path-4"><path class="cls-3" d="M-2446,646.43a9.36,9.36,0,0,0-9.45,9.21v62.81a9.35,9.35,0,0,0,9.45,9.2h86.58a9.35,9.35,0,0,0,9.45-9.2V655.64a9.36,9.36,0,0,0-9.45-9.21Z"/></clipPath><clipPath id="clip-path-8"><rect class="cls-1" x="-2427.81" y="679.26" width="50.98" height="17.64"/></clipPath><clipPath id="clip-path-9"><rect class="cls-1" x="-2411.13" y="662.57" width="17.62" height="51.03"/></clipPath><clipPath id="clip-path-10"><rect class="cls-1" x="-1552" y="628.73" width="104" height="104"/></clipPath><clipPath id="clip-path-11"><path class="cls-3" d="M-1500.18,734.91h-.79a2.25,2.25,0,0,1-2.46-1.92V690.87A2.25,2.25,0,0,1-1501,689h.79a2.23,2.23,0,0,1,2.44,1.92V733a2.23,2.23,0,0,1-2.44,1.92"/></clipPath><clipPath id="clip-path-12"><path class="cls-3" d="M-1503.42,725.71s-10.43,3.1-18.69-1.43-11.25-15-11.25-15,10.42-3.11,18.69,1.43,11.25,15,11.25,15"/></clipPath><clipPath id="clip-path-13"><path class="cls-3" d="M-1470.95,696.15s0,14-8.61,22.51-22.6,8.38-22.6,8.38,0-14,8.61-22.51,22.6-8.38,22.6-8.38"/></clipPath><clipPath id="clip-path-14"><polygon class="cls-3" points="1227.96 624.17 1225.1 667.74 1244.64 667.74 1241.78 624.17 1227.96 624.17"/></clipPath><clipPath id="clip-path-15"><polygon class="cls-3" points="1227.31 633.97 1226.98 639 1242.75 639 1242.42 633.97 1227.31 633.97"/></clipPath><clipPath id="clip-path-16"><polygon class="cls-3" points="1226.56 645.42 1226.23 650.45 1243.5 650.45 1243.17 645.42 1226.56 645.42"/></clipPath><clipPath id="clip-path-17"><polygon class="cls-3" points="1225.81 656.87 1225.48 661.9 1244.26 661.9 1243.93 656.87 1225.81 656.87"/></clipPath><clipPath id="clip-path-18"><rect class="cls-1" x="1148.74" y="671.1" width="103.41" height="55.79"/></clipPath><clipPath id="clip-path-19"><rect class="cls-1" x="1220.57" y="674.44" width="22.71" height="9.74"/></clipPath><clipPath id="clip-path-20"><rect class="cls-1" x="1219.51" y="683.72" width="24.67" height="1.9"/></clipPath><clipPath id="clip-path-21"><rect class="cls-1" x="1148.73" y="713.23" width="103.41" height="13"/></clipPath><clipPath id="clip-path-22"><polygon class="cls-3" points="1174.98 670.33 1252.14 671.09 1252.14 726.89 1174.98 727.01 1174.98 670.33"/></clipPath><clipPath id="clip-path-23"><rect class="cls-1" x="1157.6" y="674.44" width="22.71" height="9.74"/></clipPath><clipPath id="clip-path-24"><rect class="cls-1" x="1189.08" y="674.44" width="22.71" height="9.74"/></clipPath><clipPath id="clip-path-25"><path class="cls-3" d="M1226.89,628.37a2.13,2.13,0,0,1,0-4.2h16a2.13,2.13,0,0,1,0,4.2Z"/></clipPath><clipPath id="clip-path-26"><rect class="cls-1" x="1173.26" y="692.18" width="51.12" height="34.71"/></clipPath><clipPath id="clip-path-27"><rect class="cls-1" x="1144.18" y="661.9" width="111.63" height="9.19"/></clipPath><clipPath id="clip-path-28"><polygon class="cls-3" points="1174.59 645.96 1148.73 661.9 1174.59 661.9 1174.59 645.96"/></clipPath><clipPath id="clip-path-29"><polygon class="cls-3" points="1200.44 645.96 1174.59 661.9 1200.44 661.9 1200.44 645.96"/></clipPath><clipPath id="clip-path-30"><polygon class="cls-3" points="1226.29 645.96 1200.44 661.9 1226.29 661.9 1226.29 645.96"/></clipPath><clipPath id="clip-path-31"><polygon class="cls-3" points="1252.14 645.96 1226.29 661.9 1252.14 661.9 1252.14 645.96"/></clipPath><clipPath id="clip-path-32"><rect class="cls-1" x="1173.26" y="692.12" width="54.36" height="4.12"/></clipPath><clipPath id="clip-path-33"><rect class="cls-1" x="1156.7" y="683.72" width="24.67" height="1.9"/></clipPath><clipPath id="clip-path-34"><rect class="cls-1" x="1188.1" y="683.72" width="24.67" height="1.9"/></clipPath><clipPath id="clip-path-35"><rect class="cls-1" x="1172.27" y="691.13" width="52.23" height="36.4"/></clipPath><linearGradient id="Degradado_sin_nombre_3" x1="147.44" y1="269.19" x2="228.45" y2="350.21" gradientUnits="userSpaceOnUse"><stop offset="0" stop-color="#fff" stop-opacity="0.5"/><stop offset="1" stop-color="#e7f6f7" stop-opacity="0.2"/><stop offset="1" stop-color="#fff" stop-opacity="0"/></linearGradient><linearGradient id="Degradado_sin_nombre_3-2" x1="335.86" y1="282.11" x2="418.41" y2="364.66" xlink:href="#Degradado_sin_nombre_3"/></defs><title>servicios</title><path class="cls-4" d="M542.53,299.38A15.49,15.49,0,0,0,558,283.89V264a11.11,11.11,0,0,0-11.1-11.11h-5.38A24.58,24.58,0,0,0,517.4,233H196a24.58,24.58,0,0,0-24.12,19.91h-5.38A11.12,11.12,0,0,0,155.42,264v19.86a15.49,15.49,0,0,0,15.49,15.49,15.25,15.25,0,0,0,1.66-.1v175.4H167a8.85,8.85,0,0,0-8.85,8.85V496.8H555.25V483.53a8.85,8.85,0,0,0-8.85-8.85h-5.53V299.28A15.25,15.25,0,0,0,542.53,299.38Z"/><path class="cls-37" d="M140.66,177.95H462a24.57,24.57,0,0,1,24.57,24.57v12a3.21,3.21,0,0,1-3.21,3.21H119.29a3.21,3.21,0,0,1-3.21-3.21v-12a24.57,24.57,0,0,1,24.57-24.57Z"/><rect class="cls-38" x="117.19" y="219.42" width="368.31" height="200.19"/><path class="cls-39" d="M111.66,419.61H491a8.85,8.85,0,0,1,8.85,8.85v13.27a0,0,0,0,1,0,0H102.81a0,0,0,0,1,0,0V428.46a8.85,8.85,0,0,1,8.85-8.85Z"/><rect class="cls-40" x="148.78" y="265.95" width="168.12" height="121.66" rx="3.32"/><path class="cls-41" d="M152.09,266a3.24,3.24,0,0,0-3.31,3.17V384.45a3.24,3.24,0,0,0,3.31,3.17h39L259.39,266Z"/><path class="cls-40" d="M353.39,266h95.14a3.31,3.31,0,0,1,3.31,3.31V419.61a0,0,0,0,1,0,0H350.08a0,0,0,0,1,0,0V269.26A3.31,3.31,0,0,1,353.39,266Z"/><path class="cls-42" d="M353.38,266a3.31,3.31,0,0,0-3.3,3.32V419.61h13.39L443,266Z"/><rect class="cls-38" x="398.74" y="265.95" width="4.42" height="153.66"/><path class="cls-43" d="M389.9,354.44a2.21,2.21,0,0,1-2.22-2.22V334.53a2.22,2.22,0,0,1,4.43,0v17.69A2.21,2.21,0,0,1,389.9,354.44Z"/><path class="cls-43" d="M412,354.44a2.21,2.21,0,0,1-2.21-2.22V334.53a2.21,2.21,0,0,1,4.42,0v17.69A2.21,2.21,0,0,1,412,354.44Z"/><path class="cls-44" d="M111.16,197.85H131a0,0,0,0,1,0,0v31a15.48,15.48,0,0,1-15.48,15.48h0A15.48,15.48,0,0,1,100,228.82V209A11.11,11.11,0,0,1,111.16,197.85Z"/><path class="cls-45" d="M131,197.85h31a0,0,0,0,1,0,0v31a15.48,15.48,0,0,1-15.48,15.48h0A15.48,15.48,0,0,1,131,228.82v-31a0,0,0,0,1,0,0Z"/><path class="cls-44" d="M162,197.85h31a0,0,0,0,1,0,0v31a15.48,15.48,0,0,1-15.48,15.48h0A15.48,15.48,0,0,1,162,228.82v-31a0,0,0,0,1,0,0Z"/><path class="cls-45" d="M193,197.85h31a0,0,0,0,1,0,0v31a15.48,15.48,0,0,1-15.48,15.48h0A15.48,15.48,0,0,1,193,228.82v-31A0,0,0,0,1,193,197.85Z"/><path class="cls-44" d="M223.92,197.85h31a0,0,0,0,1,0,0v31a15.48,15.48,0,0,1-15.48,15.48h0a15.48,15.48,0,0,1-15.48-15.48v-31a0,0,0,0,1,0,0Z"/><path class="cls-45" d="M254.89,197.85h31a0,0,0,0,1,0,0v31a15.48,15.48,0,0,1-15.48,15.48h0a15.48,15.48,0,0,1-15.48-15.48v-31a0,0,0,0,1,0,0Z"/><path class="cls-44" d="M285.86,197.85h31a0,0,0,0,1,0,0v31a15.48,15.48,0,0,1-15.48,15.48h0a15.48,15.48,0,0,1-15.48-15.48v-31A0,0,0,0,1,285.86,197.85Z"/><path class="cls-45" d="M316.83,197.85h31a0,0,0,0,1,0,0v31a15.48,15.48,0,0,1-15.48,15.48h0a15.48,15.48,0,0,1-15.48-15.48v-31A0,0,0,0,1,316.83,197.85Z"/><path class="cls-44" d="M347.8,197.85h31a0,0,0,0,1,0,0v31a15.48,15.48,0,0,1-15.48,15.48h0a15.48,15.48,0,0,1-15.48-15.48v-31a0,0,0,0,1,0,0Z"/><path class="cls-45" d="M378.77,197.85h31a0,0,0,0,1,0,0v31a15.48,15.48,0,0,1-15.48,15.48h0a15.48,15.48,0,0,1-15.48-15.48v-31a0,0,0,0,1,0,0Z"/><path class="cls-44" d="M409.74,197.85h31a0,0,0,0,1,0,0v31a15.48,15.48,0,0,1-15.48,15.48h0a15.48,15.48,0,0,1-15.48-15.48v-31a0,0,0,0,1,0,0Z"/><path class="cls-44" d="M471.67,197.85h19.86A11.11,11.11,0,0,1,502.64,209v19.86a15.48,15.48,0,0,1-15.48,15.48h0a15.48,15.48,0,0,1-15.48-15.48v-31a0,0,0,0,1,0,0Z"/><path class="cls-45" d="M440.7,197.85h31a0,0,0,0,1,0,0v31a15.48,15.48,0,0,1-15.48,15.48h0a15.48,15.48,0,0,1-15.48-15.48v-31a0,0,0,0,1,0,0Z"/></svg>