<svg xmlns="http://www.w3.org/2000/svg" xmlns:xlink="http://www.w3.org/1999/xlink" viewBox="0 0 600 600"><defs><style>.cls-1{fill:none;}.cls-2{fill:url(#Degradado_sin_nombre_69);}.cls-3{fill:#043263;}.cls-4{fill:#2dcccd;}.cls-5{fill:#49a5e6;}.cls-6,.cls-7{opacity:0.5;isolation:isolate;}.cls-6{fill:url(#Degradado_sin_nombre_3);}.cls-7{fill:url(#Degradado_sin_nombre_3-2);}.cls-8{fill:#1464a5;}.cls-9{fill:#eaf9fa;}.cls-10{fill:#004481;}.cls-11{fill:#e87d8e;}.cls-12{fill:#c1475f;}</style><linearGradient id="Degradado_sin_nombre_69" x1="226.08" y1="193.24" x2="437.61" y2="591.07" gradientUnits="userSpaceOnUse"><stop offset="0" stop-color="#192647" stop-opacity="0.5"/><stop offset="1" stop-color="#192647" stop-opacity="0"/></linearGradient><linearGradient id="Degradado_sin_nombre_3" x1="115.33" y1="-4285.7" x2="205.72" y2="-4376.08" gradientTransform="matrix(1, 0, 0, -1, 0, -4008)" gradientUnits="userSpaceOnUse"><stop offset="0" stop-color="#fff" stop-opacity="0.5"/><stop offset="1" stop-color="#e8f7f8" stop-opacity="0.2"/><stop offset="1" stop-color="#fff" stop-opacity="0"/></linearGradient><linearGradient id="Degradado_sin_nombre_3-2" x1="325.2" y1="-4300.5" x2="417.6" y2="-4392.9" xlink:href="#Degradado_sin_nombre_3"/></defs><title>8</title><g id="Cuadrados_Blancos" data-name="Cuadrados Blancos"><rect class="cls-1" width="600" height="600"/></g><g id="Capa_5" data-name="Capa 5"><path class="cls-2" d="M545,257.16h-6A27.35,27.35,0,0,0,512.15,235H154.37a27.37,27.37,0,0,0-26.86,22.16h-6.08a12.36,12.36,0,0,0-12.32,12.41v22.15a17.24,17.24,0,0,0,17.28,17.19l.41,0v195h-4.9a9.86,9.86,0,0,0-9.9,9.9v14.8H555.1V513.8a9.86,9.86,0,0,0-9.9-9.9h-5v-195a17.25,17.25,0,0,0,17.2-17.24V269.53A12.37,12.37,0,0,0,545,257.16Z"/><rect class="cls-3" x="79.8" y="237.1" width="413.4" height="209.8"/><path class="cls-4" d="M74.9,446.9H498.2a9.86,9.86,0,0,1,9.9,9.9v14.8H65V456.8A9.86,9.86,0,0,1,74.9,446.9Z"/><path class="cls-5" d="M120.5,274.1H300.7a3.76,3.76,0,0,1,3.7,3.7V406.2a3.76,3.76,0,0,1-3.7,3.7H120.5a3.76,3.76,0,0,1-3.7-3.7V277.8A3.76,3.76,0,0,1,120.5,274.1Z"/><path class="cls-6" d="M120.5,274.1a3.65,3.65,0,0,0-3.7,3.5h0V406.3a3.53,3.53,0,0,0,3.7,3.5H164L240.2,274H120.5Z"/><path class="cls-5" d="M345.1,274.1H451.2a3.76,3.76,0,0,1,3.7,3.7h0V446.9H341.5V277.8A3.67,3.67,0,0,1,345.1,274.1Z"/><path class="cls-7" d="M345.1,274.1a3.76,3.76,0,0,0-3.7,3.7V446.9h14.2L445,274.1Z"/><rect class="cls-8" x="395.8" y="274.1" width="4.9" height="172.8"/><path class="cls-9" d="M385.9,372.9a2.48,2.48,0,0,1-2.5-2.5V350.6a2.5,2.5,0,0,1,5,0v19.8A2.48,2.48,0,0,1,385.9,372.9Z"/><path class="cls-9" d="M410.6,372.9a2.48,2.48,0,0,1-2.5-2.5V350.6a2.5,2.5,0,0,1,5,0v19.8A2.48,2.48,0,0,1,410.6,372.9Z"/><path class="cls-10" d="M107.38,178H465.15a27.35,27.35,0,0,1,27.35,27.36h0v13.36a3.57,3.57,0,0,1-3.57,3.57H83.58A3.57,3.57,0,0,1,80,218.72h0V205.36A27.36,27.36,0,0,1,107.37,178h0Z"/><path class="cls-11" d="M74.53,200.16H96.62v34.51a17.24,17.24,0,0,1-17.23,17.24h0a17.24,17.24,0,0,1-17.28-17.19V212.57a12.36,12.36,0,0,1,12.32-12.41Z"/><path class="cls-12" d="M96.62,200.16h34.52v34.51a17.24,17.24,0,0,1-17.24,17.24h0a17.25,17.25,0,0,1-17.28-17.19v-34.6h0Z"/><path class="cls-11" d="M131.14,200.16h34.51v34.51a17.24,17.24,0,0,1-17.23,17.24h0a17.24,17.24,0,0,1-17.28-17.19v-34.6h0Z"/><path class="cls-12" d="M165.65,200.16h34.52v34.51a17.24,17.24,0,0,1-17.24,17.24h0a17.25,17.25,0,0,1-17.28-17.19V200.16Z"/><path class="cls-11" d="M200.08,200.16h34.51v34.51a17.24,17.24,0,0,1-17.23,17.24h0a17.24,17.24,0,0,1-17.24-17.24V200.16h0Z"/><path class="cls-12" d="M234.56,200.16h34.51v34.51a17.23,17.23,0,0,1-17.23,17.24h0a17.24,17.24,0,0,1-17.24-17.24V200.16h0Z"/><path class="cls-11" d="M269,200.16h34.51v34.51a17.23,17.23,0,0,1-17.23,17.24h0a17.24,17.24,0,0,1-17.24-17.24h0V200.16Z"/><path class="cls-12" d="M303.52,200.16H338v34.51a17.23,17.23,0,0,1-17.23,17.24h0a17.24,17.24,0,0,1-17.24-17.24h0V200.16Z"/><path class="cls-11" d="M338,200.16h34.52v34.51a17.24,17.24,0,0,1-17.24,17.24h0a17.23,17.23,0,0,1-17.23-17.24h0V200.16H338Z"/><path class="cls-12" d="M372.48,200.16H407v34.51a17.24,17.24,0,0,1-17.24,17.24h0a17.23,17.23,0,0,1-17.23-17.24h0V200.16h0Z"/><path class="cls-11" d="M407,200.16h34.52v34.51a17.24,17.24,0,0,1-17.24,17.24h0A17.23,17.23,0,0,1,407,234.67h0V200.16H407Z"/><path class="cls-11" d="M475.92,200.16H498a12.37,12.37,0,0,1,12.37,12.37v22.15a17.24,17.24,0,0,1-17.24,17.24h0a17.23,17.23,0,0,1-17.23-17.24h0V200.17h0Z"/><path class="cls-12" d="M441.43,200.16H476v34.51a17.24,17.24,0,0,1-17.24,17.24h0a17.23,17.23,0,0,1-17.23-17.24h0V200.16h-.05Z"/></g></svg>