<svg id="Contenido" xmlns="http://www.w3.org/2000/svg" xmlns:xlink="http://www.w3.org/1999/xlink" viewBox="0 0 600 600"><defs><style>.cls-1{fill:url(#Degradado_sin_nombre_4);}.cls-2{fill:#1464a5;}.cls-3{fill:#043263;}.cls-4{fill-rule:evenodd;fill:url(#Degradado_sin_nombre_15);}.cls-5{fill:#2dcccd;}</style><linearGradient id="Degradado_sin_nombre_4" x1="249.65" y1="191.92" x2="436.49" y2="543.31" gradientUnits="userSpaceOnUse"><stop offset="0" stop-color="#192647" stop-opacity="0.5"/><stop offset="1" stop-color="#192647" stop-opacity="0"/></linearGradient><linearGradient id="Degradado_sin_nombre_15" x1="142.69" y1="283" x2="408.89" y2="283" gradientUnits="userSpaceOnUse"><stop offset="0" stop-color="#003067" stop-opacity="0.29"/><stop offset="1" stop-color="#004486" stop-opacity="0.1"/></linearGradient></defs><title>vacantes</title><path class="cls-1" d="M556.69,455h-8.5v-7a3,3,0,0,0-3-3h-16.5V244a23,23,0,0,0-23-23h-305a23,23,0,0,0-23,23V445h-16.5a3,3,0,0,0-3,3v7h-8.5a3,3,0,0,0-3,3v18a3,3,0,0,0,3,3h407a3,3,0,0,0,3-3V458A3,3,0,0,0,556.69,455Z"/><path class="cls-2" d="M150.69,171h305a23,23,0,0,1,23,23V395a0,0,0,0,1,0,0h-351a0,0,0,0,1,0,0V194A23,23,0,0,1,150.69,171Z"/><rect class="cls-3" x="142.69" y="186" width="321" height="194" rx="10"/><rect class="cls-2" x="96.69" y="405" width="413" height="24" rx="3"/><path class="cls-3" d="M111.19,395h384a3,3,0,0,1,3,3v7a0,0,0,0,1,0,0h-390a0,0,0,0,1,0,0v-7A3,3,0,0,1,111.19,395Z"/><path class="cls-4" d="M152.69,380H305L408.89,186H152.69a10,10,0,0,0-10,10V370A10,10,0,0,0,152.69,380Z"/><polygon class="cls-5" points="257.56 250.39 257.56 239.83 260.32 237.07 262.26 238.89 262.26 250.39 259.8 252.63 257.56 250.39"/><polygon class="cls-5" points="262.26 222.1 262.26 232.66 259.51 235.41 257.56 233.6 257.56 222.1 260.03 219.86 262.26 222.1"/><polygon class="cls-5" points="317.96 296.62 317.96 286.06 320.72 283.3 322.66 285.12 322.66 296.62 320.19 298.85 317.96 296.62"/><polygon class="cls-5" points="322.66 268.32 322.66 278.88 319.9 281.64 317.96 279.82 317.96 268.32 320.43 266.09 322.66 268.32"/><polygon class="cls-5" points="376.25 296.62 376.25 286.06 379 283.3 380.94 285.12 380.94 296.62 378.48 298.85 376.25 296.62"/><polygon class="cls-5" points="380.94 268.32 380.94 278.88 378.19 281.64 376.25 279.82 376.25 268.32 378.71 266.09 380.94 268.32"/><polygon class="cls-5" points="227.37 342.84 227.37 332.28 230.12 329.52 232.06 331.34 232.06 342.84 229.6 345.07 227.37 342.84"/><polygon class="cls-5" points="232.06 314.54 232.06 325.11 229.31 327.86 227.37 326.05 227.37 314.55 229.83 312.31 232.06 314.54"/><polygon class="cls-5" points="241.41 342.84 241.41 332.28 244.17 329.52 246.11 331.34 246.11 342.84 243.64 345.07 241.41 342.84"/><polygon class="cls-5" points="246.11 314.54 246.11 325.11 243.35 327.86 241.41 326.05 241.41 314.55 243.87 312.31 246.11 314.54"/><polygon class="cls-5" points="255.45 342.84 255.45 332.28 258.21 329.52 260.15 331.34 260.15 342.84 257.69 345.07 255.45 342.84"/><polygon class="cls-5" points="260.15 314.54 260.15 325.11 257.39 327.86 255.45 326.05 255.45 314.55 257.92 312.31 260.15 314.54"/><polygon class="cls-5" points="332 296.62 332 286.06 334.76 283.3 336.7 285.12 336.7 296.62 334.24 298.85 332 296.62"/><polygon class="cls-5" points="336.7 268.32 336.7 278.88 333.94 281.64 332 279.82 332 268.32 334.47 266.09 336.7 268.32"/><polygon class="cls-5" points="332 250.39 332 239.83 334.76 237.07 336.7 238.89 336.7 250.39 334.24 252.63 332 250.39"/><polygon class="cls-5" points="336.7 222.1 336.7 232.66 333.94 235.41 332 233.6 332 222.1 334.47 219.86 336.7 222.1"/><polygon class="cls-5" points="346.05 250.39 346.05 239.83 348.8 237.07 350.74 238.89 350.74 250.39 348.28 252.63 346.05 250.39"/><polygon class="cls-5" points="350.74 222.1 350.74 232.66 347.99 235.41 346.05 233.6 346.05 222.1 348.51 219.86 350.74 222.1"/><polygon class="cls-5" points="242.4 224.56 233.25 224.56 228.55 219.86 247.09 219.86 242.4 224.56"/><polygon class="cls-5" points="232.06 225.82 232.06 232.15 229.31 234.91 227.37 233.09 227.37 221.12 232.06 225.82"/><polygon class="cls-5" points="243.52 225.82 243.52 232.15 246.28 234.91 248.22 233.09 248.22 221.12 243.52 225.82"/><polygon class="cls-5" points="233.19 248.04 242.34 248.04 247.04 252.74 228.49 252.74 233.19 248.04"/><polygon class="cls-5" points="243.52 246.79 243.52 240.45 246.28 237.7 248.22 239.51 248.22 251.48 243.52 246.79"/><polygon class="cls-5" points="232.06 246.79 232.06 240.45 229.31 237.7 227.37 239.51 227.37 251.48 232.06 246.79"/><polygon class="cls-5" points="242.4 270.79 233.25 270.79 228.55 266.09 247.09 266.09 242.4 270.79"/><polygon class="cls-5" points="232.06 272.04 232.06 278.38 229.31 281.13 227.37 279.32 227.37 267.35 232.06 272.04"/><polygon class="cls-5" points="243.52 272.04 243.52 278.38 246.28 281.13 248.22 279.32 248.22 267.35 243.52 272.04"/><polygon class="cls-5" points="233.19 294.27 242.34 294.27 247.04 298.97 228.49 298.97 233.19 294.27"/><polygon class="cls-5" points="243.52 293.01 243.52 286.68 246.28 283.92 248.22 285.74 248.22 297.71 243.52 293.01"/><polygon class="cls-5" points="232.06 293.01 232.06 286.68 229.31 283.92 227.37 285.74 227.37 297.71 232.06 293.01"/><polygon class="cls-5" points="284.53 317.01 275.37 317.01 270.68 312.31 289.22 312.31 284.53 317.01"/><polygon class="cls-5" points="274.19 318.27 274.19 324.6 271.44 327.36 269.5 325.54 269.5 313.57 274.19 318.27"/><polygon class="cls-5" points="285.65 318.27 285.65 324.6 288.41 327.36 290.35 325.54 290.35 313.57 285.65 318.27"/><polygon class="cls-5" points="275.32 340.49 284.47 340.49 289.17 345.19 270.62 345.19 275.32 340.49"/><polygon class="cls-5" points="285.65 339.24 285.65 332.9 288.41 330.14 290.35 331.96 290.35 343.93 285.65 339.24"/><polygon class="cls-5" points="274.19 339.24 274.19 332.9 271.44 330.14 269.5 331.96 269.5 343.93 274.19 339.24"/><polygon class="cls-5" points="314.63 317.01 305.48 317.01 300.78 312.31 319.33 312.31 314.63 317.01"/><polygon class="cls-5" points="304.3 318.27 304.3 324.6 301.54 327.36 299.6 325.54 299.6 313.57 304.3 318.27"/><polygon class="cls-5" points="315.75 318.27 315.75 324.6 318.51 327.36 320.45 325.54 320.45 313.57 315.75 318.27"/><polygon class="cls-5" points="305.42 340.49 314.57 340.49 319.27 345.19 300.73 345.19 305.42 340.49"/><polygon class="cls-5" points="315.75 339.24 315.75 332.9 318.51 330.14 320.45 331.96 320.45 343.93 315.75 339.24"/><polygon class="cls-5" points="304.3 339.24 304.3 332.9 301.54 330.14 299.6 331.96 299.6 343.93 304.3 339.24"/><polygon class="cls-5" points="344.83 317.01 335.68 317.01 330.98 312.31 349.52 312.31 344.83 317.01"/><polygon class="cls-5" points="334.5 318.27 334.5 324.6 331.74 327.36 329.8 325.54 329.8 313.57 334.5 318.27"/><polygon class="cls-5" points="345.95 318.27 345.95 324.6 348.71 327.36 350.65 325.54 350.65 313.57 345.95 318.27"/><polygon class="cls-5" points="335.62 340.49 344.77 340.49 349.47 345.19 330.92 345.19 335.62 340.49"/><polygon class="cls-5" points="345.95 339.24 345.95 332.9 348.71 330.14 350.65 331.96 350.65 343.93 345.95 339.24"/><polygon class="cls-5" points="334.5 339.24 334.5 332.9 331.74 330.14 329.8 331.96 329.8 343.93 334.5 339.24"/><polygon class="cls-5" points="375.03 317.01 365.87 317.01 361.18 312.31 379.72 312.31 375.03 317.01"/><polygon class="cls-5" points="364.69 318.27 364.69 324.6 361.94 327.36 360 325.54 360 313.57 364.69 318.27"/><polygon class="cls-5" points="376.15 318.27 376.15 324.6 378.91 327.36 380.85 325.54 380.85 313.57 376.15 318.27"/><polygon class="cls-5" points="365.82 340.49 374.97 340.49 379.67 345.19 361.12 345.19 365.82 340.49"/><polygon class="cls-5" points="376.15 339.24 376.15 332.9 378.91 330.14 380.85 331.96 380.85 343.93 376.15 339.24"/><polygon class="cls-5" points="364.69 339.24 364.69 332.9 361.94 330.14 360 331.96 360 343.93 364.69 339.24"/><polygon class="cls-5" points="272.6 270.79 263.44 270.79 258.75 266.09 277.29 266.09 272.6 270.79"/><polygon class="cls-5" points="262.26 272.04 262.26 278.38 259.51 281.13 257.56 279.32 257.56 267.35 262.26 272.04"/><polygon class="cls-5" points="273.72 272.04 273.72 278.38 276.48 281.13 278.42 279.32 278.42 267.35 273.72 272.04"/><polygon class="cls-5" points="263.39 294.27 272.54 294.27 277.24 298.97 258.69 298.97 263.39 294.27"/><polygon class="cls-5" points="273.72 293.01 273.72 286.68 276.48 283.92 278.42 285.74 278.42 297.71 273.72 293.01"/><polygon class="cls-5" points="262.26 293.01 262.26 286.68 259.51 283.92 257.56 285.74 257.56 297.71 262.26 293.01"/><polygon class="cls-5" points="302.79 270.79 293.64 270.79 288.94 266.09 307.49 266.09 302.79 270.79"/><polygon class="cls-5" points="292.46 272.04 292.46 278.38 289.7 281.13 287.76 279.32 287.76 267.35 292.46 272.04"/><polygon class="cls-5" points="303.92 272.04 303.92 278.38 306.67 281.13 308.62 279.32 308.62 267.35 303.92 272.04"/><polygon class="cls-5" points="293.58 294.27 302.74 294.27 307.43 298.97 288.89 298.97 293.58 294.27"/><polygon class="cls-5" points="303.92 293.01 303.92 286.68 306.67 283.92 308.62 285.74 308.62 297.71 303.92 293.01"/><polygon class="cls-5" points="292.46 293.01 292.46 286.68 289.7 283.92 287.76 285.74 287.76 297.71 292.46 293.01"/><polygon class="cls-5" points="361.08 270.79 351.93 270.79 347.23 266.09 365.77 266.09 361.08 270.79"/><polygon class="cls-5" points="350.74 272.04 350.74 278.38 347.99 281.13 346.05 279.32 346.05 267.35 350.74 272.04"/><polygon class="cls-5" points="362.2 272.04 362.2 278.38 364.96 281.13 366.9 279.32 366.9 267.35 362.2 272.04"/><polygon class="cls-5" points="351.87 294.27 361.02 294.27 365.72 298.97 347.17 298.97 351.87 294.27"/><polygon class="cls-5" points="362.2 293.01 362.2 286.68 364.96 283.92 366.9 285.74 366.9 297.71 362.2 293.01"/><polygon class="cls-5" points="350.74 293.01 350.74 286.68 347.99 283.92 346.05 285.74 346.05 297.71 350.74 293.01"/><polygon class="cls-5" points="286.64 224.56 277.49 224.56 272.79 219.86 291.33 219.86 286.64 224.56"/><polygon class="cls-5" points="276.31 225.82 276.31 232.15 273.55 234.91 271.61 233.09 271.61 221.12 276.31 225.82"/><polygon class="cls-5" points="287.76 225.82 287.76 232.15 290.52 234.91 292.46 233.09 292.46 221.12 287.76 225.82"/><polygon class="cls-5" points="277.43 248.04 286.58 248.04 291.28 252.74 272.73 252.74 277.43 248.04"/><polygon class="cls-5" points="287.76 246.79 287.76 240.45 290.52 237.7 292.46 239.51 292.46 251.48 287.76 246.79"/><polygon class="cls-5" points="276.31 246.79 276.31 240.45 273.55 237.7 271.61 239.51 271.61 251.48 276.31 246.79"/><polygon class="cls-5" points="316.84 224.56 307.68 224.56 302.99 219.86 321.53 219.86 316.84 224.56"/><polygon class="cls-5" points="306.5 225.82 306.5 232.15 303.75 234.91 301.81 233.09 301.81 221.12 306.5 225.82"/><polygon class="cls-5" points="317.96 225.82 317.96 232.15 320.72 234.91 322.66 233.09 322.66 221.12 317.96 225.82"/><polygon class="cls-5" points="307.63 248.04 316.78 248.04 321.48 252.74 302.93 252.74 307.63 248.04"/><polygon class="cls-5" points="317.96 246.79 317.96 240.45 320.72 237.7 322.66 239.51 322.66 251.48 317.96 246.79"/><polygon class="cls-5" points="306.5 246.79 306.5 240.45 303.75 237.7 301.81 239.51 301.81 251.48 306.5 246.79"/><polygon class="cls-5" points="375.12 224.56 365.97 224.56 361.27 219.86 379.82 219.86 375.12 224.56"/><polygon class="cls-5" points="364.79 225.82 364.79 232.15 362.03 234.91 360.09 233.09 360.09 221.12 364.79 225.82"/><polygon class="cls-5" points="376.25 225.82 376.25 232.15 379 234.91 380.94 233.09 380.94 221.12 376.25 225.82"/><polygon class="cls-5" points="365.91 248.04 375.06 248.04 379.76 252.74 361.22 252.74 365.91 248.04"/><polygon class="cls-5" points="376.25 246.79 376.25 240.45 379 237.7 380.94 239.51 380.94 251.48 376.25 246.79"/><polygon class="cls-5" points="364.79 246.79 364.79 240.45 362.03 237.7 360.09 239.51 360.09 251.48 364.79 246.79"/></svg>