<svg xmlns="http://www.w3.org/2000/svg" xmlns:xlink="http://www.w3.org/1999/xlink" viewBox="0 0 600 600"><defs><style>.cls-1,.cls-15{fill:none;}.cls-2{fill:url(#Degradado_sin_nombre_56);}.cls-3{fill:#043263;}.cls-4{fill:#49a5e6;}.cls-5{fill:#072146;}.cls-6{fill:#5ac4c4;}.cls-7{opacity:0.5;isolation:isolate;fill:url(#Degradado_sin_nombre_2);}.cls-8{fill:#d4edfc;}.cls-9{fill:#2dcccd;}.cls-10{fill:url(#Degradado_sin_nombre_4);}.cls-11{fill:url(#Degradado_sin_nombre_4-2);}.cls-12{fill:url(#Degradado_sin_nombre_4-3);}.cls-13{fill:#f8cd50;}.cls-14{fill:url(#Degradado_sin_nombre_5);}.cls-15{stroke:#1464a5;stroke-linecap:round;stroke-miterlimit:10;stroke-width:9.37px;}.cls-16{fill:url(#Degradado_sin_nombre_6);}</style><linearGradient id="Degradado_sin_nombre_56" x1="230.89" y1="171.87" x2="404.43" y2="498.26" gradientUnits="userSpaceOnUse"><stop offset="0" stop-color="#192647" stop-opacity="0.5"/><stop offset="1" stop-color="#192647" stop-opacity="0"/></linearGradient><linearGradient id="Degradado_sin_nombre_2" x1="184.32" y1="233.43" x2="325.66" y2="308.57" gradientUnits="userSpaceOnUse"><stop offset="0" stop-color="#eaf9fa"/><stop offset="1" stop-color="#eaf9fa" stop-opacity="0.2"/><stop offset="1" stop-color="#eaf9fa" stop-opacity="0.5"/></linearGradient><linearGradient id="Degradado_sin_nombre_4" x1="326.59" y1="6963.45" x2="281.2" y2="6963.45" gradientTransform="matrix(1, 0, 0, -1, 0, 7270)" gradientUnits="userSpaceOnUse"><stop offset="0" stop-color="#028484"/><stop offset="0" stop-color="#028484" stop-opacity="0.4"/><stop offset="1" stop-color="#028484" stop-opacity="0.1"/></linearGradient><linearGradient id="Degradado_sin_nombre_4-2" x1="394.99" y1="6963.45" x2="349.61" y2="6963.45" xlink:href="#Degradado_sin_nombre_4"/><linearGradient id="Degradado_sin_nombre_4-3" x1="258.18" y1="6963.45" x2="212.8" y2="6963.45" xlink:href="#Degradado_sin_nombre_4"/><linearGradient id="Degradado_sin_nombre_5" x1="6479.01" y1="8894.35" x2="6413.97" y2="8959.39" gradientTransform="matrix(-1, 0, 0, 1, 6693.71, -8682.6)" gradientUnits="userSpaceOnUse"><stop offset="0" stop-color="#fff" stop-opacity="0.6"/><stop offset="1" stop-color="#fff" stop-opacity="0.15"/></linearGradient><linearGradient id="Degradado_sin_nombre_6" x1="205.44" y1="7057.33" x2="325.82" y2="6936.94" gradientTransform="matrix(1, 0, 0, -1, 0, 7270)" gradientUnits="userSpaceOnUse"><stop offset="0" stop-color="#fff" stop-opacity="0.5"/><stop offset="1" stop-color="#cdeefe" stop-opacity="0.1"/></linearGradient></defs><title>6</title><g id="Cuadrados_Blancos" data-name="Cuadrados Blancos"><rect class="cls-1" width="600" height="600"/></g><g id="Capa_3" data-name="Capa 3"><path class="cls-2" d="M518.25,433.21v-7.84a2.16,2.16,0,0,0-2.2-2.2H499.1a15.4,15.4,0,0,0,.59-4.11V228.59a16.87,16.87,0,0,0-16.87-16.87H186.52a16.88,16.88,0,0,0-16.87,16.87V419.06a15.4,15.4,0,0,0,.59,4.11H153.08a2.16,2.16,0,0,0-2.2,2.2v7.84H142a2.17,2.17,0,0,0-2.2,2.2V453a2.17,2.17,0,0,0,2.2,2.2H525.8A2.16,2.16,0,0,0,528,453V435.41a2.16,2.16,0,0,0-2.2-2.2Z"/><path class="cls-3" d="M149.12,175.78h296.3a16.88,16.88,0,0,1,16.87,16.87h0V398.82h-330V192.65A16.87,16.87,0,0,1,149.12,175.78Z"/><path class="cls-4" d="M154,190.45h286a7.36,7.36,0,0,1,7.34,7.34V365a7.36,7.36,0,0,1-7.34,7.33H154A7.35,7.35,0,0,1,146.7,365V197.79A7.36,7.36,0,0,1,154,190.45Z"/><path class="cls-3" d="M104.6,397.28H488.4a2.16,2.16,0,0,1,2.2,2.2v17.6a2.17,2.17,0,0,1-2.2,2.2H104.6a2.16,2.16,0,0,1-2.2-2.2v-17.6A2.2,2.2,0,0,1,104.6,397.28Z"/><path class="cls-5" d="M480.84,397.28H113.4v-7.85a2.16,2.16,0,0,1,2.2-2.2h363a2.16,2.16,0,0,1,2.2,2.2Z"/><path class="cls-6" d="M322.13,404.61h-47.6a7.35,7.35,0,0,1-7.33-7.33h62.26A7.4,7.4,0,0,1,322.13,404.61Z"/><path class="cls-7" d="M154,372.34H299.25l97.62-181.89H154a7.36,7.36,0,0,0-7.33,7.34V365A7.35,7.35,0,0,0,154,372.34Z"/><rect class="cls-8" x="146.2" y="190" width="300.8" height="181.79" rx="9.37"/><rect class="cls-8" x="184.15" y="190" width="224.9" height="181.79"/><rect class="cls-9" x="198.21" y="282.94" width="59.97" height="47.23" rx="2.81"/><rect class="cls-9" x="266.61" y="282.94" width="59.97" height="47.23" rx="2.81"/><path class="cls-10" d="M307.68,282.94,281.2,330.17h43a2.37,2.37,0,0,0,2.37-2.36V285.75a2.81,2.81,0,0,0-2.81-2.81Z"/><rect class="cls-9" x="335.02" y="282.94" width="59.97" height="47.23" rx="2.81"/><path class="cls-11" d="M376.08,282.94l-26.47,47.23h43a2.36,2.36,0,0,0,2.36-2.36V285.75a2.81,2.81,0,0,0-2.81-2.81Z"/><path class="cls-12" d="M239.27,282.94,212.8,330.17h43a2.36,2.36,0,0,0,2.36-2.36V285.75a2.81,2.81,0,0,0-2.81-2.81Z"/><rect class="cls-3" x="266.6" y="203.85" width="128.38" height="14.99" rx="2.81"/><rect class="cls-3" x="198.2" y="203.85" width="59.97" height="14.99" rx="2.81"/><rect class="cls-13" x="198.21" y="227.28" width="196.79" height="47.23" rx="1.67"/><path class="cls-14" d="M199.87,274.51H282l26.48-47.23H199.87a1.66,1.66,0,0,0-1.66,1.66h0v43.9A1.68,1.68,0,0,0,199.87,274.51Z"/><line class="cls-15" x1="202.7" y1="342.81" x2="253.26" y2="342.81"/><line class="cls-15" x1="202.7" y1="358.74" x2="230.13" y2="358.74"/><line class="cls-15" x1="271.32" y1="342.81" x2="312.23" y2="342.81"/><line class="cls-15" x1="339.72" y1="342.81" x2="390.28" y2="342.81"/><line class="cls-15" x1="339.72" y1="358.74" x2="367.15" y2="358.74"/><path class="cls-16" d="M155.57,371.79H298.29L395.64,190H155.57a9.38,9.38,0,0,0-9.37,9.37V362.42A9.37,9.37,0,0,0,155.57,371.79Z"/></g></svg>