<svg xmlns="http://www.w3.org/2000/svg" xmlns:xlink="http://www.w3.org/1999/xlink" viewBox="0 0 600 600"><defs><style>.cls-1{fill:none;}.cls-2{fill:#d4edfc;}.cls-3{fill:url(#Degradado_sin_nombre_443);}.cls-4{fill:#043263;}.cls-5{fill:#52a5df;}.cls-6,.cls-9{opacity:0.5;isolation:isolate;}.cls-6{fill:url(#Degradado_sin_nombre_32);}.cls-7{fill:#f8cd50;}.cls-8{fill:#eaf9fa;}.cls-9{fill:url(#Degradado_sin_nombre_61);}.cls-10{fill:#2dcccd;}</style><linearGradient id="Degradado_sin_nombre_443" x1="256.68" y1="190.2" x2="429.32" y2="514.9" gradientUnits="userSpaceOnUse"><stop offset="0" stop-color="#192647" stop-opacity="0.5"/><stop offset="1" stop-color="#192647" stop-opacity="0"/></linearGradient><linearGradient id="Degradado_sin_nombre_32" x1="159.36" y1="1973.2" x2="346.34" y2="2160.18" gradientTransform="translate(0 -1798)" gradientUnits="userSpaceOnUse"><stop offset="0" stop-color="#fff" stop-opacity="0.5"/><stop offset="1" stop-color="#ebf6f7" stop-opacity="0.2"/><stop offset="1" stop-color="#fff" stop-opacity="0"/></linearGradient><linearGradient id="Degradado_sin_nombre_61" x1="195.85" y1="6542.23" x2="291.4" y2="6491.42" gradientTransform="matrix(1, 0, 0, -1, 0, 6790)" gradientUnits="userSpaceOnUse"><stop offset="0" stop-color="#fff"/><stop offset="1" stop-color="#e7f6f7" stop-opacity="0.3"/><stop offset="1" stop-color="#fff" stop-opacity="0.5"/></linearGradient></defs><title>11</title><g id="Cuadrados_Blancos" data-name="Cuadrados Blancos"><rect class="cls-1" width="600" height="600"/></g><g id="Capa_28" data-name="Capa 28"><path class="cls-2" d="M481,500l-8.58-8.51c6.93-6.93,3.41-31.47-27.26-79.57-28.29-44.36-72.21-97.12-123.68-148.6s-104.25-95.4-148.6-123.67c-48.09-30.65-72.63-34.18-79.56-27.28l-8.57-8.66c14.07-14.07,46-5.46,94.64,25.61,45.08,28.75,98.59,73.26,150.66,125.33s96.64,105.62,125.33,150.69C486.41,454.06,495,485.91,481,500Z"/><path class="cls-2" d="M84.71,500c-14.09-14.07-5.46-46,25.61-94.66,28.74-45.07,73.24-98.57,125.39-150.66s105.58-96.58,150.65-125.32c48.73-31.07,80.58-39.69,94.66-25.61l-8.58,8.56c-6.92-6.91-31.46-3.39-79.56,27.28-44.35,28.29-97.13,72.19-148.6,123.68S148.87,367.49,120.6,411.84C90,459.94,86.42,484.48,93.34,491.41Z"/><circle class="cls-3" cx="343" cy="352.55" r="183.83"/><path class="cls-4" d="M289.91,118.24c-101.23,0-183.59,82.36-183.59,183.59s82.36,183.6,183.59,183.6S473.5,403.07,473.5,301.83,391.14,118.24,289.91,118.24Z"/><circle class="cls-5" cx="289.91" cy="301.83" r="159"/><path class="cls-1" d="M369.41,163.23,209.75,440A159.76,159.76,0,0,0,369.41,163.23Z"/><path class="cls-6" d="M289.91,142.09A159.74,159.74,0,0,0,209.75,440L369.41,163.23A159,159,0,0,0,289.91,142.09Z"/><path class="cls-7" d="M277.39,258.11,214,221.47c-3.31-1.92-6.41,1.18-4.49,4.5l36.65,63.35a155.56,155.56,0,0,0,56.23,56.24l63.35,36.64c3.33,1.92,6.43-1.18,4.51-4.49l-36.65-63.36A155.43,155.43,0,0,0,277.39,258.11Z"/><circle class="cls-8" cx="289.89" cy="301.88" r="9.39"/><path class="cls-9" d="M277.39,258.11,214,221.47c-3.31-1.92-6.41,1.18-4.49,4.5l36.65,63.35a154.21,154.21,0,0,0,24.1,31.41c2,2,4.09,4,6.2,5.9L303,276.77A153.22,153.22,0,0,0,277.39,258.11Z"/><path class="cls-2" d="M102.94,506.53q-11.67,0-18.23-6.55l8.57-8.57c6.93,6.92,31.47,3.39,79.56-27.27,44.35-28.29,97.13-72.2,148.6-123.67s95.4-104.25,123.68-148.6c30.64-48.11,34.18-72.65,27.26-79.58l8.58-8.56c14.05,14.1,5.45,45.93-25.62,94.65C426.65,243.46,382.1,297,330,349S224.43,445.62,179.35,474.37C145.76,495.78,120.2,506.53,102.94,506.53Z"/><path class="cls-2" d="M462.73,506.53c-17.26,0-42.83-10.75-76.43-32.16C341.23,445.62,287.72,401.11,235.71,349S139.06,243.46,110.32,198.38c-31.07-48.72-39.7-80.55-25.61-94.69l8.57,8.57c-6.93,6.93-3.41,31.47,27.26,79.57,28.29,44.35,72.2,97.12,123.68,148.61s104.25,95.38,148.6,123.66c48.1,30.65,72.64,34.18,79.56,27.27l8.58,8.57C476.59,504.35,470.5,506.53,462.73,506.53Z"/><circle class="cls-10" cx="470.61" cy="152.04" r="31.06"/></g></svg>