<svg xmlns="http://www.w3.org/2000/svg" xmlns:xlink="http://www.w3.org/1999/xlink" viewBox="0 0 600 600"><defs><style>.cls-1{fill:none;}.cls-2{fill:url(#Degradado_sin_nombre_45);}.cls-3{fill:#043263;}.cls-4{fill:#49a5e6;}.cls-5{fill:#072146;}.cls-6{fill:#5ac4c4;}.cls-7{opacity:0.5;isolation:isolate;fill:url(#Degradado_sin_nombre_2);}.cls-8{fill:#004481;}.cls-9{fill:#2dcccd;}</style><linearGradient id="Degradado_sin_nombre_45" x1="230.89" y1="171.87" x2="404.43" y2="498.26" gradientUnits="userSpaceOnUse"><stop offset="0" stop-color="#192647" stop-opacity="0.5"/><stop offset="1" stop-color="#192647" stop-opacity="0"/></linearGradient><linearGradient id="Degradado_sin_nombre_2" x1="184.32" y1="233.43" x2="325.66" y2="308.57" gradientUnits="userSpaceOnUse"><stop offset="0" stop-color="#eaf9fa"/><stop offset="1" stop-color="#eaf9fa" stop-opacity="0.2"/><stop offset="1" stop-color="#eaf9fa" stop-opacity="0.5"/></linearGradient></defs><title>6</title><g id="Cuadrados_Blancos" data-name="Cuadrados Blancos"><rect class="cls-1" width="600" height="600"/></g><g id="Capa_7" data-name="Capa 7"><path class="cls-2" d="M518.25,433.21v-7.84a2.16,2.16,0,0,0-2.2-2.2H499.1a15.4,15.4,0,0,0,.59-4.11V228.59a16.87,16.87,0,0,0-16.87-16.87H186.52a16.88,16.88,0,0,0-16.87,16.87V419.06a15.4,15.4,0,0,0,.59,4.11H153.08a2.16,2.16,0,0,0-2.2,2.2v7.84H142a2.17,2.17,0,0,0-2.2,2.2V453a2.17,2.17,0,0,0,2.2,2.2H525.8A2.16,2.16,0,0,0,528,453V435.41a2.16,2.16,0,0,0-2.2-2.2Z"/><path class="cls-3" d="M149.12,175.78h296.3a16.88,16.88,0,0,1,16.87,16.87h0V398.82h-330V192.65A16.87,16.87,0,0,1,149.12,175.78Z"/><path class="cls-4" d="M154,190.45h286a7.36,7.36,0,0,1,7.34,7.34V365a7.36,7.36,0,0,1-7.34,7.33H154A7.35,7.35,0,0,1,146.7,365V197.79A7.36,7.36,0,0,1,154,190.45Z"/><path class="cls-3" d="M104.6,397.28H488.4a2.16,2.16,0,0,1,2.2,2.2v17.6a2.17,2.17,0,0,1-2.2,2.2H104.6a2.16,2.16,0,0,1-2.2-2.2v-17.6A2.2,2.2,0,0,1,104.6,397.28Z"/><path class="cls-5" d="M480.84,397.28H113.4v-7.85a2.16,2.16,0,0,1,2.2-2.2h363a2.16,2.16,0,0,1,2.2,2.2Z"/><path class="cls-6" d="M322.13,404.61h-47.6a7.35,7.35,0,0,1-7.33-7.33h62.26A7.4,7.4,0,0,1,322.13,404.61Z"/><path class="cls-7" d="M154,372.34H299.25l97.62-181.89H154a7.36,7.36,0,0,0-7.33,7.34V365A7.35,7.35,0,0,0,154,372.34Z"/><path class="cls-8" d="M154.47,190H439.53a9.45,9.45,0,0,1,9.47,9.43V363.57a9.45,9.45,0,0,1-9.47,9.43H154.47a9.45,9.45,0,0,1-9.47-9.43V199.43A9.45,9.45,0,0,1,154.47,190Z"/><polygon class="cls-9" points="253.79 250.74 253.79 240.78 256.4 238.17 258.24 239.89 258.24 250.74 255.91 252.85 253.79 250.74"/><polygon class="cls-9" points="258.24 224.05 258.24 234.01 255.63 236.61 253.79 234.9 253.79 224.05 256.13 221.94 258.24 224.05"/><polygon class="cls-9" points="310.99 294.35 310.99 284.39 313.6 281.78 315.44 283.5 315.44 294.35 313.1 296.45 310.99 294.35"/><polygon class="cls-9" points="315.44 267.65 315.44 277.61 312.82 280.22 310.99 278.5 310.99 267.65 313.33 265.55 315.44 267.65"/><polygon class="cls-9" points="366.19 294.35 366.19 284.39 368.8 281.78 370.63 283.5 370.63 294.35 368.3 296.45 366.19 294.35"/><polygon class="cls-9" points="370.63 267.65 370.63 277.61 368.03 280.22 366.19 278.5 366.19 267.65 368.52 265.55 370.63 267.65"/><polygon class="cls-9" points="225.19 337.95 225.19 327.99 227.8 325.38 229.64 327.1 229.64 337.95 227.31 340.05 225.19 337.95"/><polygon class="cls-9" points="229.64 311.25 229.64 321.22 227.03 323.82 225.19 322.11 225.19 311.26 227.53 309.15 229.64 311.25"/><polygon class="cls-9" points="238.49 337.95 238.49 327.99 241.11 325.38 242.94 327.1 242.94 337.95 240.6 340.05 238.49 337.95"/><polygon class="cls-9" points="242.94 311.25 242.94 321.22 240.33 323.82 238.49 322.11 238.49 311.26 240.82 309.15 242.94 311.25"/><polygon class="cls-9" points="251.79 337.95 251.79 327.99 254.4 325.38 256.24 327.1 256.24 337.95 253.91 340.05 251.79 337.95"/><polygon class="cls-9" points="256.24 311.25 256.24 321.22 253.63 323.82 251.79 322.11 251.79 311.26 254.13 309.15 256.24 311.25"/><polygon class="cls-9" points="324.28 294.35 324.28 284.39 326.9 281.78 328.74 283.5 328.74 294.35 326.41 296.45 324.28 294.35"/><polygon class="cls-9" points="328.74 267.65 328.74 277.61 326.12 280.22 324.28 278.5 324.28 267.65 326.62 265.55 328.74 267.65"/><polygon class="cls-9" points="324.28 250.74 324.28 240.78 326.9 238.17 328.74 239.89 328.74 250.74 326.41 252.85 324.28 250.74"/><polygon class="cls-9" points="328.74 224.05 328.74 234.01 326.12 236.61 324.28 234.9 324.28 224.05 326.62 221.94 328.74 224.05"/><polygon class="cls-9" points="337.59 250.74 337.59 240.78 340.19 238.17 342.03 239.89 342.03 250.74 339.7 252.85 337.59 250.74"/><polygon class="cls-9" points="342.03 224.05 342.03 234.01 339.43 236.61 337.59 234.9 337.59 224.05 339.92 221.94 342.03 224.05"/><polygon class="cls-9" points="239.43 226.37 230.76 226.37 226.31 221.94 243.87 221.94 239.43 226.37"/><polygon class="cls-9" points="229.64 227.56 229.64 233.53 227.03 236.14 225.19 234.42 225.19 223.13 229.64 227.56"/><polygon class="cls-9" points="240.49 227.56 240.49 233.53 243.1 236.14 244.94 234.42 244.94 223.13 240.49 227.56"/><polygon class="cls-9" points="230.71 248.52 239.37 248.52 243.82 252.96 226.26 252.96 230.71 248.52"/><polygon class="cls-9" points="240.49 247.34 240.49 241.36 243.1 238.77 244.94 240.48 244.94 251.77 240.49 247.34"/><polygon class="cls-9" points="229.64 247.34 229.64 241.36 227.03 238.77 225.19 240.48 225.19 251.77 229.64 247.34"/><polygon class="cls-9" points="239.43 269.98 230.76 269.98 226.31 265.55 243.87 265.55 239.43 269.98"/><polygon class="cls-9" points="229.64 271.16 229.64 277.14 227.03 279.74 225.19 278.03 225.19 266.74 229.64 271.16"/><polygon class="cls-9" points="240.49 271.16 240.49 277.14 243.1 279.74 244.94 278.03 244.94 266.74 240.49 271.16"/><polygon class="cls-9" points="230.71 292.13 239.37 292.13 243.82 296.56 226.26 296.56 230.71 292.13"/><polygon class="cls-9" points="240.49 290.94 240.49 284.97 243.1 282.37 244.94 284.08 244.94 295.38 240.49 290.94"/><polygon class="cls-9" points="229.64 290.94 229.64 284.97 227.03 282.37 225.19 284.08 225.19 295.38 229.64 290.94"/><polygon class="cls-9" points="279.33 313.58 270.65 313.58 266.21 309.15 283.77 309.15 279.33 313.58"/><polygon class="cls-9" points="269.54 314.77 269.54 320.74 266.93 323.35 265.09 321.63 265.09 310.34 269.54 314.77"/><polygon class="cls-9" points="280.39 314.77 280.39 320.74 283 323.35 284.84 321.63 284.84 310.34 280.39 314.77"/><polygon class="cls-9" points="270.61 335.73 279.27 335.73 283.72 340.16 266.15 340.16 270.61 335.73"/><polygon class="cls-9" points="280.39 334.55 280.39 328.57 283 325.97 284.84 327.68 284.84 338.98 280.39 334.55"/><polygon class="cls-9" points="269.54 334.55 269.54 328.57 266.93 325.97 265.09 327.68 265.09 338.98 269.54 334.55"/><polygon class="cls-9" points="307.83 313.58 299.17 313.58 294.72 309.15 312.29 309.15 307.83 313.58"/><polygon class="cls-9" points="298.05 314.77 298.05 320.74 295.44 323.35 293.6 321.63 293.6 310.34 298.05 314.77"/><polygon class="cls-9" points="308.89 314.77 308.89 320.74 311.51 323.35 313.35 321.63 313.35 310.34 308.89 314.77"/><polygon class="cls-9" points="299.11 335.73 307.78 335.73 312.23 340.16 294.67 340.16 299.11 335.73"/><polygon class="cls-9" points="308.89 334.55 308.89 328.57 311.51 325.97 313.35 327.68 313.35 338.98 308.89 334.55"/><polygon class="cls-9" points="298.05 334.55 298.05 328.57 295.44 325.97 293.6 327.68 293.6 338.98 298.05 334.55"/><polygon class="cls-9" points="336.44 313.58 327.77 313.58 323.32 309.15 340.88 309.15 336.44 313.58"/><polygon class="cls-9" points="326.65 314.77 326.65 320.74 324.04 323.35 322.2 321.63 322.2 310.34 326.65 314.77"/><polygon class="cls-9" points="337.5 314.77 337.5 320.74 340.11 323.35 341.95 321.63 341.95 310.34 337.5 314.77"/><polygon class="cls-9" points="327.71 335.73 336.38 335.73 340.83 340.16 323.26 340.16 327.71 335.73"/><polygon class="cls-9" points="337.5 334.55 337.5 328.57 340.11 325.97 341.95 327.68 341.95 338.98 337.5 334.55"/><polygon class="cls-9" points="326.65 334.55 326.65 328.57 324.04 325.97 322.2 327.68 322.2 338.98 326.65 334.55"/><polygon class="cls-9" points="365.04 313.58 356.36 313.58 351.92 309.15 369.48 309.15 365.04 313.58"/><polygon class="cls-9" points="355.24 314.77 355.24 320.74 352.64 323.35 350.8 321.63 350.8 310.34 355.24 314.77"/><polygon class="cls-9" points="366.1 314.77 366.1 320.74 368.71 323.35 370.55 321.63 370.55 310.34 366.1 314.77"/><polygon class="cls-9" points="356.31 335.73 364.98 335.73 369.43 340.16 351.86 340.16 356.31 335.73"/><polygon class="cls-9" points="366.1 334.55 366.1 328.57 368.71 325.97 370.55 327.68 370.55 338.98 366.1 334.55"/><polygon class="cls-9" points="355.24 334.55 355.24 328.57 352.64 325.97 350.8 327.68 350.8 338.98 355.24 334.55"/><polygon class="cls-9" points="268.03 269.98 259.36 269.98 254.91 265.55 272.47 265.55 268.03 269.98"/><polygon class="cls-9" points="258.24 271.16 258.24 277.14 255.63 279.74 253.79 278.03 253.79 266.74 258.24 271.16"/><polygon class="cls-9" points="269.09 271.16 269.09 277.14 271.7 279.74 273.54 278.03 273.54 266.74 269.09 271.16"/><polygon class="cls-9" points="259.31 292.13 267.97 292.13 272.42 296.56 254.86 296.56 259.31 292.13"/><polygon class="cls-9" points="269.09 290.94 269.09 284.97 271.7 282.37 273.54 284.08 273.54 295.38 269.09 290.94"/><polygon class="cls-9" points="258.24 290.94 258.24 284.97 255.63 282.37 253.79 284.08 253.79 295.38 258.24 290.94"/><polygon class="cls-9" points="296.62 269.98 287.96 269.98 283.5 265.55 301.07 265.55 296.62 269.98"/><polygon class="cls-9" points="286.84 271.16 286.84 277.14 284.22 279.74 282.39 278.03 282.39 266.74 286.84 271.16"/><polygon class="cls-9" points="297.69 271.16 297.69 277.14 300.3 279.74 302.14 278.03 302.14 266.74 297.69 271.16"/><polygon class="cls-9" points="287.9 292.13 296.57 292.13 301.01 296.56 283.46 296.56 287.9 292.13"/><polygon class="cls-9" points="297.69 290.94 297.69 284.97 300.3 282.37 302.14 284.08 302.14 295.38 297.69 290.94"/><polygon class="cls-9" points="286.84 290.94 286.84 284.97 284.22 282.37 282.39 284.08 282.39 295.38 286.84 290.94"/><polygon class="cls-9" points="351.82 269.98 343.16 269.98 338.71 265.55 356.27 265.55 351.82 269.98"/><polygon class="cls-9" points="342.03 271.16 342.03 277.14 339.43 279.74 337.59 278.03 337.59 266.74 342.03 271.16"/><polygon class="cls-9" points="352.88 271.16 352.88 277.14 355.5 279.74 357.34 278.03 357.34 266.74 352.88 271.16"/><polygon class="cls-9" points="343.1 292.13 351.77 292.13 356.22 296.56 338.65 296.56 343.1 292.13"/><polygon class="cls-9" points="352.88 290.94 352.88 284.97 355.5 282.37 357.34 284.08 357.34 295.38 352.88 290.94"/><polygon class="cls-9" points="342.03 290.94 342.03 284.97 339.43 282.37 337.59 284.08 337.59 295.38 342.03 290.94"/><polygon class="cls-9" points="281.33 226.37 272.66 226.37 268.21 221.94 285.77 221.94 281.33 226.37"/><polygon class="cls-9" points="271.54 227.56 271.54 233.53 268.93 236.14 267.09 234.42 267.09 223.13 271.54 227.56"/><polygon class="cls-9" points="282.39 227.56 282.39 233.53 285 236.14 286.84 234.42 286.84 223.13 282.39 227.56"/><polygon class="cls-9" points="272.6 248.52 281.27 248.52 285.72 252.96 268.15 252.96 272.6 248.52"/><polygon class="cls-9" points="282.39 247.34 282.39 241.36 285 238.77 286.84 240.48 286.84 251.77 282.39 247.34"/><polygon class="cls-9" points="271.54 247.34 271.54 241.36 268.93 238.77 267.09 240.48 267.09 251.77 271.54 247.34"/><polygon class="cls-9" points="309.93 226.37 301.25 226.37 296.81 221.94 314.37 221.94 309.93 226.37"/><polygon class="cls-9" points="300.13 227.56 300.13 233.53 297.53 236.14 295.69 234.42 295.69 223.13 300.13 227.56"/><polygon class="cls-9" points="310.99 227.56 310.99 233.53 313.6 236.14 315.44 234.42 315.44 223.13 310.99 227.56"/><polygon class="cls-9" points="301.2 248.52 309.87 248.52 314.32 252.96 296.75 252.96 301.2 248.52"/><polygon class="cls-9" points="310.99 247.34 310.99 241.36 313.6 238.77 315.44 240.48 315.44 251.77 310.99 247.34"/><polygon class="cls-9" points="300.13 247.34 300.13 241.36 297.53 238.77 295.69 240.48 295.69 251.77 300.13 247.34"/><polygon class="cls-9" points="365.12 226.37 356.45 226.37 352 221.94 369.57 221.94 365.12 226.37"/><polygon class="cls-9" points="355.34 227.56 355.34 233.53 352.72 236.14 350.89 234.42 350.89 223.13 355.34 227.56"/><polygon class="cls-9" points="366.19 227.56 366.19 233.53 368.8 236.14 370.63 234.42 370.63 223.13 366.19 227.56"/><polygon class="cls-9" points="356.4 248.52 365.06 248.52 369.51 252.96 351.96 252.96 356.4 248.52"/><polygon class="cls-9" points="366.19 247.34 366.19 241.36 368.8 238.77 370.63 240.48 370.63 251.77 366.19 247.34"/><polygon class="cls-9" points="355.34 247.34 355.34 241.36 352.72 238.77 350.89 240.48 350.89 251.77 355.34 247.34"/></g></svg>