<svg id="Contenido" xmlns="http://www.w3.org/2000/svg" xmlns:xlink="http://www.w3.org/1999/xlink" viewBox="0 0 600 600"><defs><style>.cls-1{fill:url(#Degradado_sin_nombre_7);}.cls-2{fill:#d4edfc;}.cls-3{fill:#1464a5;}.cls-4{fill:#49a5e6;}.cls-5,.cls-8{opacity:0.5;}.cls-5{fill:url(#Degradado_sin_nombre_84);}.cls-6{fill:#f8cd50;}.cls-7{fill:#eaf9fa;}.cls-8{fill:url(#Degradado_sin_nombre_58);}.cls-9{fill:#2dcccd;}</style><linearGradient id="Degradado_sin_nombre_7" x1="275.94" y1="206.61" x2="424.69" y2="486.37" gradientUnits="userSpaceOnUse"><stop offset="0" stop-color="#192647"/><stop offset="0" stop-color="#192647" stop-opacity="0.5"/><stop offset="1" stop-color="#192647" stop-opacity="0"/></linearGradient><linearGradient id="Degradado_sin_nombre_84" x1="411.93" y1="3353.45" x2="290.95" y2="3289.13" gradientTransform="translate(600 3597.19) rotate(180)" gradientUnits="userSpaceOnUse"><stop offset="0" stop-color="#fff"/><stop offset="1" stop-color="#fff" stop-opacity="0.1"/></linearGradient><linearGradient id="Degradado_sin_nombre_58" x1="229.38" y1="262.25" x2="310.45" y2="305.36" gradientUnits="userSpaceOnUse"><stop offset="0" stop-color="#fff"/><stop offset="1" stop-color="#e7f6f7" stop-opacity="0.3"/><stop offset="1" stop-color="#fff" stop-opacity="0.5"/></linearGradient></defs><title>EXPERIENCE</title><circle class="cls-1" cx="350.31" cy="346.49" r="158.39"/><path class="cls-2" d="M477.08,476.22,469.8,469c5.88-5.88,2.89-26.7-23.13-67.51-24-37.63-61.26-82.4-104.93-126.07s-88.45-80.94-126.08-104.93c-40.8-26-61.62-29-67.5-23.14L140.89,140c11.94-11.94,39-4.63,80.3,21.73,38.24,24.39,83.64,62.15,127.82,106.33S431,357.67,455.34,395.91C481.7,437.26,489,464.28,477.08,476.22Z"/><path class="cls-2" d="M140.89,476.22c-11.95-11.94-4.63-39,21.73-80.31C187,357.67,224.76,312.28,269,268.09s89.58-81.94,127.82-106.33c41.34-26.36,68.36-33.67,80.31-21.73l-7.28,7.27c-5.87-5.87-26.69-2.88-67.5,23.14-37.63,24-82.41,61.25-126.08,104.93s-80.94,88.44-104.93,126.07c-26,40.81-29,61.63-23.13,67.51Z"/><circle class="cls-3" cx="309.16" cy="308.13" r="159.44"/><circle class="cls-4" cx="309.16" cy="308.13" r="137.12"/><path class="cls-5" d="M244.66,429.15,373.43,187A137.14,137.14,0,0,0,244.66,429.15Z"/><path class="cls-6" d="M298.56,271l-53.75-31.09c-2.81-1.63-5.44,1-3.81,3.82l31.09,53.75a132,132,0,0,0,47.71,47.71l53.75,31.09c2.82,1.63,5.45-1,3.82-3.81l-31.09-53.76A131.9,131.9,0,0,0,298.56,271Z"/><circle class="cls-7" cx="309.17" cy="308.13" r="7.97"/><path class="cls-8" d="M298.56,271l-53.75-31.09c-2.81-1.63-5.44,1-3.81,3.82l31.09,53.75a131.24,131.24,0,0,0,20.45,26.65c1.71,1.72,3.47,3.37,5.26,5l22.49-42.3A130.07,130.07,0,0,0,298.56,271Z"/><path class="cls-2" d="M156.36,481.78q-9.9,0-15.47-5.56l7.27-7.27c5.88,5.87,26.7,2.88,67.5-23.14,37.63-24,82.41-61.25,126.08-104.92s80.94-88.45,104.93-126.08c26-40.81,29-61.63,23.13-67.51l7.28-7.27C489,152,481.7,179,455.34,220.34,431,258.58,393.2,304,349,348.16S259.43,430.1,221.19,454.49C192.69,472.66,171,481.78,156.36,481.78Z"/><path class="cls-2" d="M461.61,481.78c-14.64,0-36.34-9.12-64.84-27.29C358.53,430.1,313.13,392.34,269,348.16S187,258.58,162.62,220.34C136.26,179,128.94,152,140.89,140l7.27,7.27c-5.88,5.88-2.89,26.7,23.13,67.51,24,37.63,61.26,82.4,104.93,126.08s88.45,80.93,126.08,104.92c40.81,26,61.63,29,67.5,23.14l7.28,7.27C473.37,479.93,468.2,481.78,461.61,481.78Z"/><circle class="cls-9" cx="468.3" cy="181.02" r="26.35"/></svg>