<svg id="Contenido" xmlns="http://www.w3.org/2000/svg" xmlns:xlink="http://www.w3.org/1999/xlink" viewBox="0 0 600 600"><defs><style>.cls-1{fill:url(#Degradado_sin_nombre_4);}.cls-2{fill:#1464a5;}.cls-3{fill:#d4edfc;}.cls-4{fill:#043263;}.cls-5{fill:#2dcccd;}.cls-6{fill:url(#Degradado_sin_nombre_13);}.cls-7{fill:url(#Degradado_sin_nombre_13-2);}.cls-8{fill:url(#Degradado_sin_nombre_13-3);}.cls-9{fill:#f8cd50;}.cls-10{fill:url(#Degradado_sin_nombre_24);}.cls-11{fill:none;stroke:#1464a5;stroke-linecap:round;stroke-miterlimit:10;stroke-width:10px;}.cls-12{fill-rule:evenodd;fill:url(#Degradado_sin_nombre_20);}</style><linearGradient id="Degradado_sin_nombre_4" x1="251.15" y1="189.92" x2="437.99" y2="541.31" gradientUnits="userSpaceOnUse"><stop offset="0" stop-color="#192647" stop-opacity="0.5"/><stop offset="1" stop-color="#192647" stop-opacity="0"/></linearGradient><linearGradient id="Degradado_sin_nombre_13" x1="336.7" y1="308.38" x2="288.27" y2="308.38" gradientUnits="userSpaceOnUse"><stop offset="0" stop-color="#028484"/><stop offset="0" stop-color="#028484" stop-opacity="0.4"/><stop offset="1" stop-color="#028484" stop-opacity="0.1"/></linearGradient><linearGradient id="Degradado_sin_nombre_13-2" x1="409.7" y1="308.38" x2="361.27" y2="308.38" xlink:href="#Degradado_sin_nombre_13"/><linearGradient id="Degradado_sin_nombre_13-3" x1="263.7" y1="308.38" x2="215.27" y2="308.38" xlink:href="#Degradado_sin_nombre_13"/><linearGradient id="Degradado_sin_nombre_24" x1="9186.41" y1="-8289.82" x2="9117.01" y2="-8359.22" gradientTransform="translate(9403.71 -8082.6) rotate(180)" gradientUnits="userSpaceOnUse"><stop offset="0" stop-color="#fff" stop-opacity="0.6"/><stop offset="1" stop-color="#fff" stop-opacity="0.15"/></linearGradient><linearGradient id="Degradado_sin_nombre_20" x1="184.83" y1="229.84" x2="334.7" y2="309.53" gradientUnits="userSpaceOnUse"><stop offset="0" stop-color="#fff" stop-opacity="0.5"/><stop offset="1" stop-color="#cdeefe" stop-opacity="0.1"/></linearGradient></defs><title>vacantes</title><path class="cls-1" d="M558.2,453h-8.5v-7a3,3,0,0,0-3-3H530.2V242a23,23,0,0,0-23-23h-305a23,23,0,0,0-23,23V443H162.7a3,3,0,0,0-3,3v7h-8.5a3,3,0,0,0-3,3v18a3,3,0,0,0,3,3h407a3,3,0,0,0,3-3V456A3,3,0,0,0,558.2,453Z"/><path class="cls-2" d="M152.2,169h305a23,23,0,0,1,23,23V393a0,0,0,0,1,0,0h-351a0,0,0,0,1,0,0V192A23,23,0,0,1,152.2,169Z"/><rect class="cls-3" x="144.2" y="184" width="321" height="194" rx="10"/><rect class="cls-2" x="98.2" y="403" width="413" height="24" rx="3"/><path class="cls-4" d="M112.7,393h384a3,3,0,0,1,3,3v7a0,0,0,0,1,0,0h-390a0,0,0,0,1,0,0v-7A3,3,0,0,1,112.7,393Z"/><rect class="cls-3" x="184.7" y="184" width="240" height="194"/><rect class="cls-5" x="199.7" y="283.18" width="64" height="50.4" rx="3"/><rect class="cls-5" x="272.7" y="283.18" width="64" height="50.4" rx="3"/><path class="cls-6" d="M316.52,283.18l-28.25,50.4h45.91a2.52,2.52,0,0,0,2.52-2.52V286.18a3,3,0,0,0-3-3Z"/><rect class="cls-5" x="345.7" y="283.18" width="64" height="50.4" rx="3"/><path class="cls-7" d="M389.52,283.18l-28.25,50.4h45.91a2.52,2.52,0,0,0,2.52-2.52V286.18a3,3,0,0,0-3-3Z"/><path class="cls-8" d="M243.52,283.18l-28.25,50.4h45.91a2.52,2.52,0,0,0,2.52-2.52V286.18a3,3,0,0,0-3-3Z"/><rect class="cls-4" x="272.7" y="198.78" width="137" height="16" rx="3" transform="translate(682.39 413.56) rotate(180)"/><rect class="cls-4" x="199.7" y="198.78" width="64" height="16" rx="3" transform="translate(463.39 413.56) rotate(180)"/><rect class="cls-9" x="199.7" y="223.78" width="210" height="50.4" rx="1.78"/><path class="cls-10" d="M201.47,274.18h87.67l28.26-50.4H201.47a1.77,1.77,0,0,0-1.77,1.78V272.4A1.78,1.78,0,0,0,201.47,274.18Z"/><line class="cls-11" x1="204.49" y1="347.07" x2="258.45" y2="347.07"/><line class="cls-11" x1="204.49" y1="364.07" x2="233.77" y2="364.07"/><line class="cls-11" x1="277.72" y1="347.07" x2="321.38" y2="347.07"/><line class="cls-11" x1="350.72" y1="347.07" x2="404.67" y2="347.07"/><line class="cls-11" x1="350.72" y1="364.07" x2="379.99" y2="364.07"/><path class="cls-12" d="M154.2,378H306.5L410.39,184H154.2a10,10,0,0,0-10,10V368A10,10,0,0,0,154.2,378Z"/></svg>