<svg id="Contenido" xmlns="http://www.w3.org/2000/svg" xmlns:xlink="http://www.w3.org/1999/xlink" viewBox="0 0 600 600"><defs><style>.cls-1{fill:url(#Degradado_sin_nombre);}.cls-2{fill:#043263;}.cls-3{fill:#49a5e6;}.cls-4{fill:#1464a5;}.cls-5{fill:#f8cd50;}.cls-6{fill:#2dcccd;}.cls-7{fill:url(#Degradado_sin_nombre_2);}.cls-8{fill:url(#Degradado_sin_nombre_2-2);}.cls-9{fill:url(#Degradado_sin_nombre_4);}.cls-10{fill:url(#Degradado_sin_nombre_5);}.cls-11{fill:url(#Degradado_sin_nombre_6);}.cls-12{fill:url(#Degradado_sin_nombre_2-3);}</style><linearGradient id="Degradado_sin_nombre" x1="307.15" y1="358.48" x2="450.57" y2="628.19" gradientTransform="translate(0 -168)" gradientUnits="userSpaceOnUse"><stop offset="0" stop-color="#192647" stop-opacity="0.5"/><stop offset="1" stop-color="#192647" stop-opacity="0"/></linearGradient><linearGradient id="Degradado_sin_nombre_2" x1="96.17" y1="385.57" x2="145.38" y2="434.78" gradientTransform="translate(0 -168)" gradientUnits="userSpaceOnUse"><stop offset="0" stop-color="#fff" stop-opacity="0.6"/><stop offset="1" stop-color="#fff" stop-opacity="0.1"/></linearGradient><linearGradient id="Degradado_sin_nombre_2-2" x1="392.29" y1="351.56" x2="441.5" y2="400.77" xlink:href="#Degradado_sin_nombre_2"/><linearGradient id="Degradado_sin_nombre_4" x1="325.52" y1="438.76" x2="288.03" y2="438.76" gradientTransform="translate(0 -168)" gradientUnits="userSpaceOnUse"><stop offset="0" stop-color="#043263" stop-opacity="0.2"/><stop offset="1" stop-color="#043263" stop-opacity="0"/></linearGradient><linearGradient id="Degradado_sin_nombre_5" x1="368.87" y1="503.67" x2="295.93" y2="503.67" gradientTransform="translate(0 -168)" gradientUnits="userSpaceOnUse"><stop offset="0" stop-color="#043263" stop-opacity="0.3"/><stop offset="1" stop-color="#043263" stop-opacity="0.06"/></linearGradient><linearGradient id="Degradado_sin_nombre_6" x1="340.99" y1="392.06" x2="295.35" y2="392.06" gradientTransform="translate(0 -168)" gradientUnits="userSpaceOnUse"><stop offset="0" stop-color="#028484" stop-opacity="0.4"/><stop offset="1" stop-color="#028484" stop-opacity="0.1"/></linearGradient><linearGradient id="Degradado_sin_nombre_2-3" x1="281.49" y1="394.3" x2="298.26" y2="411.07" xlink:href="#Degradado_sin_nombre_2"/></defs><path class="cls-1" d="M570.43,251.25H425.65a2.55,2.55,0,0,0-2.55,2.55,2.49,2.49,0,0,0,.27,1.14l3.88,7.76a40.78,40.78,0,0,0,36.5,22.55h25.79V299L374.47,312.17a25.44,25.44,0,0,0-7.49-11.9v-20a42.2,42.2,0,0,1,11.29,7.25,2.56,2.56,0,0,0,3.52-.08l8.42-8.42a2.57,2.57,0,0,0,0-3.61l-.09-.09a59.51,59.51,0,0,0-80.3,0,2.56,2.56,0,0,0-.18,3.6h0l.1.1,8.42,8.42a2.55,2.55,0,0,0,3.52.08A41.82,41.82,0,0,1,333,280.26v20a25.43,25.43,0,0,0-8.5,17.65L210.42,331V319.26h25.79a40.82,40.82,0,0,0,36.5-22.55l3.87-7.77a2.55,2.55,0,0,0-1.14-3.42,2.77,2.77,0,0,0-1.14-.27H129.54a2.56,2.56,0,0,0-2.55,2.56,2.47,2.47,0,0,0,.27,1.13l3.88,7.77a40.83,40.83,0,0,0,36.5,22.55h25.78v17a8.5,8.5,0,0,0,16.3,3.4l115.77-13.29a25.62,25.62,0,0,0,7.5,11.9V361h-1.7a2.55,2.55,0,0,0-2.55,2.55V378H297.6a14.3,14.3,0,0,0-12.75,7.9l-3.72,7.4H273.8a31.12,31.12,0,0,0-28,17.29l-18.45,36.91a.86.86,0,0,0,.37,1.14.89.89,0,0,0,.39.09h27.62a.84.84,0,0,0,.75-.48l13.32-26.62a5.1,5.1,0,0,1,4.56-2.82h151.2a5.09,5.09,0,0,1,4.56,2.82l13.36,26.62a.86.86,0,0,0,.76.48h27.62a.85.85,0,0,0,.85-.85.82.82,0,0,0-.09-.38l-18.45-36.91a31.11,31.11,0,0,0-28.05-17.29h-7.29l-3.71-7.4a14.28,14.28,0,0,0-12.75-7.9H371.24V363.57a2.55,2.55,0,0,0-2.55-2.55H367V338.27a25.45,25.45,0,0,0,8.5-17.66l115.78-13.29a8.5,8.5,0,0,0,15.3-5.06v-17h25.79a40.77,40.77,0,0,0,36.5-22.55l3.88-7.76a2.55,2.55,0,0,0-1.14-3.4A2.5,2.5,0,0,0,570.43,251.25Z"/><rect class="cls-2" x="150.96" y="265" width="298.08" height="8.5" transform="matrix(0.99, -0.11, 0.11, 0.99, -28.76, 35.98)"/><path class="cls-3" d="M365.16,335.92a14.27,14.27,0,0,0-12.75-7.9H247.62a14.28,14.28,0,0,0-12.76,7.9l-3.72,7.4H368.87Z"/><path class="cls-4" d="M288.1,218.25h23.8a5.1,5.1,0,0,1,5.11,5.1V328H283V223.35A5.1,5.1,0,0,1,288.1,218.25Z"/><path class="cls-2" d="M281.3,311h37.41a2.55,2.55,0,0,1,2.55,2.55V328H278.75V313.57A2.55,2.55,0,0,1,281.3,311Z"/><path class="cls-4" d="M206.49,398.28l13.31-26.63a5.1,5.1,0,0,1,4.54-2.82H375.58a5.11,5.11,0,0,1,4.57,2.82l13.37,26.63a.84.84,0,0,0,.76.47H421.9a.85.85,0,0,0,.85-.85.78.78,0,0,0-.1-.39l-18.45-36.9a31.1,31.1,0,0,0-28-17.29H223.81a31.11,31.11,0,0,0-28,17.3l-18.45,36.9a.85.85,0,0,0,.37,1.14.89.89,0,0,0,.39.09h27.61A.85.85,0,0,0,206.49,398.28Z"/><path class="cls-5" d="M186.23,269.26H117.64A40.79,40.79,0,0,1,81.15,246.7l-3.89-7.76a2.54,2.54,0,0,1,1.15-3.42,2.47,2.47,0,0,1,1.13-.27h144.8a2.55,2.55,0,0,1,2.55,2.55,2.51,2.51,0,0,1-.26,1.14l-3.89,7.76A40.81,40.81,0,0,1,186.23,269.26Z"/><path class="cls-6" d="M143.44,269.26h17v17a8.49,8.49,0,0,1-8.5,8.5h0a8.49,8.49,0,0,1-8.5-8.5Z"/><path class="cls-7" d="M79.55,235.25A2.56,2.56,0,0,0,77,237.8a2.65,2.65,0,0,0,.27,1.14l3.88,7.76a40.81,40.81,0,0,0,36.5,22.56h25.25l18.09-34Z"/><path class="cls-5" d="M482.36,235.25H413.78a40.8,40.8,0,0,1-36.5-22.55l-3.88-7.76a2.56,2.56,0,0,1,1.14-3.43,2.64,2.64,0,0,1,1.14-.26H520.46a2.53,2.53,0,0,1,2.27,3.69l-3.87,7.76A40.82,40.82,0,0,1,482.36,235.25Z"/><path class="cls-6" d="M439.56,235.25h17v17a8.51,8.51,0,0,1-8.5,8.5h0a8.51,8.51,0,0,1-8.51-8.5Z"/><path class="cls-8" d="M375.67,201.25a2.55,2.55,0,0,0-2.29,3.69l3.88,7.76a40.83,40.83,0,0,0,36.5,22.55H439l18.08-34Z"/><circle class="cls-3" cx="300" cy="269.26" r="25.5"/><path class="cls-6" d="M331.81,237.45a2.55,2.55,0,0,1-3.51.08,42.51,42.51,0,0,0-56.59,0,2.55,2.55,0,0,1-3.51-.08L259.77,229a2.57,2.57,0,0,1,0-3.61l.1-.09a59.52,59.52,0,0,1,80.29,0,2.56,2.56,0,0,1,.18,3.6h0l-.09.09Z"/><path class="cls-9" d="M312,246.74,288,291.8A25.51,25.51,0,1,0,312,246.74Z"/><path class="cls-10" d="M365.16,335.92a14.27,14.27,0,0,0-12.75-7.9H304.08l-8.15,15.3h72.94Z"/><path class="cls-11" d="M340.15,225.33a59,59,0,0,0-35.71-15.4L295.35,227a42.38,42.38,0,0,1,32.95,10.52,2.56,2.56,0,0,0,3.52-.08l8.42-8.42a2.55,2.55,0,0,0,0-3.61Z"/><path class="cls-5" d="M288.5,219.69l2.3,35.91a3.81,3.81,0,0,0,1,2.41l7.6,8.15L303,255.59a4,4,0,0,0-.05-2.63l-12.86-33.61a.86.86,0,0,0-1.18-.26A.85.85,0,0,0,288.5,219.69Z"/><circle class="cls-2" cx="299.99" cy="269.27" r="10.27"/><path class="cls-12" d="M290.06,219.35a.86.86,0,0,0-1.18-.26.85.85,0,0,0-.38.6l2,31.15,6.76-12.7Z"/></svg>