<svg xmlns="http://www.w3.org/2000/svg" xmlns:xlink="http://www.w3.org/1999/xlink" viewBox="0 0 600 600"><defs><style>.cls-1{fill:none;}.cls-2{fill:url(#Degradado_sin_nombre_68);}.cls-3{fill:#043263;}.cls-4{opacity:0.7;isolation:isolate;fill:url(#Degradado_sin_nombre_6);}.cls-5{fill:#2dcccd;}.cls-6{fill:url(#Degradado_sin_nombre_10);}</style><linearGradient id="Degradado_sin_nombre_68" x1="282.41" y1="232.36" x2="368.4" y2="394.09" gradientUnits="userSpaceOnUse"><stop offset="0" stop-color="#192647" stop-opacity="0.5"/><stop offset="1" stop-color="#192647" stop-opacity="0"/></linearGradient><linearGradient id="Degradado_sin_nombre_6" x1="341.06" y1="326.59" x2="182.97" y2="326.59" gradientUnits="userSpaceOnUse"><stop offset="0" stop-color="#072146" stop-opacity="0.8"/><stop offset="1" stop-color="#072146" stop-opacity="0.2"/></linearGradient><linearGradient id="Degradado_sin_nombre_10" x1="431.03" y1="-4291.47" x2="324.28" y2="-4291.47" gradientTransform="matrix(1, 0, 0, -1, 0, -4086)" gradientUnits="userSpaceOnUse"><stop offset="0" stop-color="#028484" stop-opacity="0.4"/><stop offset="1" stop-color="#028484" stop-opacity="0.1"/></linearGradient></defs><title>5</title><g id="Cuadrados_blancos" data-name="Cuadrados blancos"><rect class="cls-1" width="600" height="600"/></g><g id="Capa_13" data-name="Capa 13"><path class="cls-2" d="M464.45,201.23A61.17,61.17,0,0,0,380.5,180.3l-83.18,50A61.2,61.2,0,0,0,271.06,303l-63.74,38.3A61.17,61.17,0,0,0,232.5,454.57l.44.05c.62.06,1.24.1,1.86.14.29,0,.58.05.88.06.56,0,1.13,0,1.69.06l1.06,0,1.6,0,1.16,0,1.53-.09c.41,0,.83,0,1.24-.09l1.47-.14,1.3-.15,1.43-.21,1.34-.22,1.38-.26,1.39-.3,1.33-.31c.48-.12,1-.26,1.44-.39s.85-.23,1.27-.36l1.49-.47,1.2-.4,1.58-.59,1.1-.42,1.75-.75c.3-.13.6-.25.89-.39.88-.4,1.75-.83,2.62-1.28l22.57-13.39,64-38.47a61.21,61.21,0,0,0,26.24-72.68l63.76-38.32A61.17,61.17,0,0,0,464.45,201.23Zm-124,173.25-64,38.48-22.85,13.42c-.61.28-1.24.54-1.86.78l-.56.21-1.34.47-.61.19-1.34.38-.57.14-1.47.33-.42.09q-.91.18-1.83.3h-.07a36.41,36.41,0,0,1-6.07.29A35.85,35.85,0,0,1,220.33,363l63.89-38.37A61.17,61.17,0,0,0,356.94,337a35.55,35.55,0,0,0-4.22-11.31,34.94,34.94,0,0,0-9.13-10.35,35.84,35.84,0,0,1-36.65-4.18,35.86,35.86,0,0,1,33.54,63.28Zm90-111-63.87,38.38c-.44-.47-.88-.93-1.33-1.38l-.58-.58c-.64-.62-1.29-1.24-2-1.84h0c-.67-.6-1.36-1.18-2.05-1.75l-.63-.5c-.52-.41-1.05-.81-1.58-1.2l-.64-.48c-.72-.52-1.44-1-2.18-1.51h0c-.75-.49-1.5-1-2.26-1.41l-.69-.4c-.57-.33-1.14-.64-1.71-1l-.71-.38c-.77-.4-1.55-.79-2.34-1.15l0,0c-.79-.37-1.6-.72-2.42-1.06l-.73-.3c-.61-.24-1.21-.47-1.82-.69l-.75-.27c-.81-.28-1.63-.55-2.45-.8l-.07,0c-.84-.25-1.68-.48-2.53-.7l-.78-.18c-.63-.16-1.25-.3-1.88-.43l-.79-.16c-.84-.16-1.68-.31-2.52-.44H331c-.86-.13-1.73-.24-2.59-.33l-.81-.08q-1-.09-1.92-.15l-.81,0c-.86,0-1.71-.07-2.57-.08h-.09c-.88,0-1.76,0-2.63.05l-.82,0c-.65,0-1.29.08-1.93.13l-.83.07c-.85.09-1.7.18-2.55.3a60.78,60.78,0,0,0-19.92,6.45A35.85,35.85,0,0,1,310.33,252l83.21-50a35.86,35.86,0,0,1,36.94,61.48Z"/><path class="cls-3" d="M332.31,270.09a61.18,61.18,0,0,0-83.95-20.94l-83.18,50A61.17,61.17,0,0,0,224.8,405.9l22.56-13.39,64-38.47A61.18,61.18,0,0,0,332.31,270.09Zm-34,62.25-64,38.47-22.85,13.43a35.86,35.86,0,0,1-33.27-63.4l83.22-50a35.86,35.86,0,0,1,36.94,61.48Z"/><path class="cls-4" d="M332.31,270.09A61.19,61.19,0,0,0,271.24,241l-18,34.77,8.19-4.92a35.86,35.86,0,0,1,36.94,61.48l-64,38.47-22.85,13.43a35.76,35.76,0,0,1-16.15,3.19L183,411.2a61,61,0,0,0,41.83-5.3l22.56-13.39,64-38.47A61.18,61.18,0,0,0,332.31,270.09Z"/><path class="cls-5" d="M338.36,138.15l-83.18,50A61.17,61.17,0,0,0,314.8,294.9a35.55,35.55,0,0,0-4.22-11.31,34.82,34.82,0,0,0-9.13-10.35,35.86,35.86,0,0,1-33.27-63.4l83.22-50a35.86,35.86,0,0,1,36.94,61.48l-64,38.47a60.24,60.24,0,0,1,7.38,9.68,60.87,60.87,0,0,1,5.68,12l64-38.47a61.18,61.18,0,0,0-63-104.89Z"/><path class="cls-6" d="M422.32,159.1a61.29,61.29,0,0,0-61.33-29L342.2,165.37l9.18-5.51a35.86,35.86,0,0,1,36.94,61.48h0l-64,38.47a60.3,60.3,0,0,1,7.39,9.68,62,62,0,0,1,5.68,12l64-38.47A61.25,61.25,0,0,0,422.32,159.1Z"/></g></svg>