<svg id="Contenido" xmlns="http://www.w3.org/2000/svg" xmlns:xlink="http://www.w3.org/1999/xlink" viewBox="0 0 600 600"><defs><style>.cls-1,.cls-2{fill:none;}.cls-2{clip-rule:evenodd;}.cls-3{fill:url(#Degradado_sin_nombre_10);}.cls-4{fill:url(#Degradado_sin_nombre_10-2);}.cls-5{fill:#1464a5;}.cls-6{clip-path:url(#clip-path);}.cls-7{clip-path:url(#clip-path-2);}.cls-8{clip-path:url(#clip-path-3);}.cls-9{clip-path:url(#clip-path-4);}.cls-10{clip-path:url(#clip-path-5);}.cls-11{clip-path:url(#clip-path-6);}.cls-12{clip-path:url(#clip-path-7);}.cls-13{clip-path:url(#clip-path-8);}.cls-14{clip-path:url(#clip-path-9);}.cls-15{clip-path:url(#clip-path-10);}.cls-16{clip-path:url(#clip-path-11);}.cls-17{clip-path:url(#clip-path-12);}.cls-18{clip-path:url(#clip-path-13);}.cls-19{clip-path:url(#clip-path-14);}.cls-20{clip-path:url(#clip-path-15);}.cls-21{clip-path:url(#clip-path-16);}.cls-22{clip-path:url(#clip-path-17);}.cls-23{clip-path:url(#clip-path-18);}.cls-24{clip-path:url(#clip-path-19);}.cls-25{clip-path:url(#clip-path-20);}.cls-26{clip-path:url(#clip-path-21);}.cls-27{clip-path:url(#clip-path-22);}.cls-28{clip-path:url(#clip-path-23);}.cls-29{clip-path:url(#clip-path-24);}.cls-30{clip-path:url(#clip-path-25);}.cls-31{clip-path:url(#clip-path-26);}.cls-32{clip-path:url(#clip-path-27);}.cls-33{clip-path:url(#clip-path-28);}.cls-34{clip-path:url(#clip-path-29);}.cls-35{clip-path:url(#clip-path-30);}.cls-36{clip-path:url(#clip-path-31);}.cls-37{clip-path:url(#clip-path-32);}.cls-38{clip-path:url(#clip-path-33);}.cls-39{fill:#bbbbba;}.cls-40{fill:#f8cd50;}.cls-41{fill:url(#Degradado_sin_nombre_5);}.cls-42{fill:#c49735;}</style><linearGradient id="Degradado_sin_nombre_10" x1="200.96" y1="208.01" x2="650.86" y2="1054.14" gradientUnits="userSpaceOnUse"><stop offset="0.01" stop-color="#043263" stop-opacity="0.5"/><stop offset="1" stop-color="#043263" stop-opacity="0"/></linearGradient><linearGradient id="Degradado_sin_nombre_10-2" x1="249.09" y1="185.96" x2="442.52" y2="549.74" xlink:href="#Degradado_sin_nombre_10"/><clipPath id="clip-path"><rect class="cls-1" x="-1541.9" y="701.18" width="12.97" height="31.89"/></clipPath><clipPath id="clip-path-2"><rect class="cls-1" x="-1471.07" y="701.18" width="12.97" height="31.89"/></clipPath><clipPath id="clip-path-3"><rect class="cls-1" x="-1541.9" y="628.51" width="83.79" height="92.01"/></clipPath><clipPath id="clip-path-4"><rect class="cls-1" x="-1541.9" y="628.51" width="83.8" height="92"/></clipPath><clipPath id="clip-path-5"><path class="cls-2" d="M-1537.24,720.52h74.48V655.17a7.65,7.65,0,0,0-7.65-7.65h-59.18a7.65,7.65,0,0,0-7.65,7.65Z"/></clipPath><clipPath id="clip-path-6"><path class="cls-2" d="M-1529.59,647.52a7.65,7.65,0,0,0-7.65,7.65v65.34h74.48V655.17a7.65,7.65,0,0,0-7.65-7.65Z"/></clipPath><clipPath id="clip-path-7"><path class="cls-2" d="M-1471,689.07h-58V662.89a7.65,7.65,0,0,1,7.65-7.65h42.72a7.66,7.66,0,0,1,7.65,7.65Z"/></clipPath><clipPath id="clip-path-8"><path class="cls-2" d="M-1521.36,655.24a7.65,7.65,0,0,0-7.65,7.65v26.18h58V662.89a7.65,7.65,0,0,0-7.65-7.65Z"/></clipPath><clipPath id="clip-path-9"><path class="cls-2" d="M-1468.38,707.41h-63.24a5.64,5.64,0,0,1-5.62-5.63v-1.56a5.65,5.65,0,0,1,5.62-5.63h63.24a5.65,5.65,0,0,1,5.62,5.63v1.56a5.64,5.64,0,0,1-5.62,5.63"/></clipPath><clipPath id="clip-path-10"><path class="cls-2" d="M-1523.82,701a4.21,4.21,0,0,1-4.24,4.18,4.21,4.21,0,0,1-4.24-4.18,4.21,4.21,0,0,1,4.24-4.18,4.21,4.21,0,0,1,4.24,4.18"/></clipPath><clipPath id="clip-path-11"><path class="cls-2" d="M-1469.1,701a4.15,4.15,0,0,1-4.18,4.12,4.15,4.15,0,0,1-4.18-4.12,4.15,4.15,0,0,1,4.18-4.12,4.15,4.15,0,0,1,4.18,4.12"/></clipPath><clipPath id="clip-path-12"><path class="cls-2" d="M-1484.14,716.33h-33.61a2.07,2.07,0,0,1-2.07-2.07v0a2.07,2.07,0,0,1,2.07-2.07h33.61a2.07,2.07,0,0,1,2.07,2.07v0a2.07,2.07,0,0,1-2.07,2.07"/></clipPath><clipPath id="clip-path-13"><path class="cls-2" d="M-654.7,708a4.12,4.12,0,0,0,4,4.23h101.1a4.12,4.12,0,0,0,4-4.23V638.76a4.12,4.12,0,0,0-4-4.23h-101.1a4.12,4.12,0,0,0-4,4.23Z"/></clipPath><clipPath id="clip-path-14"><path class="cls-2" d="M-654.7,705.65a4.13,4.13,0,0,0,4,4.24h101.1a4.13,4.13,0,0,0,4-4.24V636.43a4.13,4.13,0,0,0-4-4.24h-101.1a4.13,4.13,0,0,0-4,4.24Z"/></clipPath><clipPath id="clip-path-15"><path class="cls-2" d="M-552.3,695.65a3,3,0,0,1-2.91,3.12h-90.52a3,3,0,0,1-2.91-3.12V641.14a3,3,0,0,1,2.91-3.12h90.52a3,3,0,0,1,2.91,3.12Z"/></clipPath><clipPath id="clip-path-16"><polygon class="cls-2" points="-631.63 698.97 -567.81 632.79 -545.86 632.79 -545.86 698.56 -631.63 698.97"/></clipPath><clipPath id="clip-path-17"><rect class="cls-1" x="-665" y="710.59" width="130" height="7.71"/></clipPath><clipPath id="clip-path-18"><rect class="cls-1" x="-661.7" y="707.07" width="122.74" height="3.51"/></clipPath><clipPath id="clip-path-19"><rect class="cls-1" x="-610.23" y="710.59" width="21.12" height="2.8"/></clipPath><clipPath id="clip-path-20"><path class="cls-2" d="M-542.44,726.2a3.14,3.14,0,0,1-3.09,3.18h-29.42A3.14,3.14,0,0,1-578,726.2V662.43a3.13,3.13,0,0,1,3.09-3.18h29.42a3.14,3.14,0,0,1,3.09,3.18Z"/></clipPath><clipPath id="clip-path-21"><rect class="cls-1" x="-578.05" y="668.24" width="35.62" height="51.25"/></clipPath><clipPath id="clip-path-22"><rect class="cls-1" x="-577.49" y="669.13" width="34.99" height="51.03"/></clipPath><clipPath id="clip-path-23"><path class="cls-2" d="M-558,724.78a2.69,2.69,0,0,1-2.52,2.84,2.69,2.69,0,0,1-2.52-2.84,2.7,2.7,0,0,1,2.52-2.85,2.7,2.7,0,0,1,2.52,2.85"/></clipPath><clipPath id="clip-path-24"><path class="cls-2" d="M-556.24,664.31a.84.84,0,0,1-.78.88h-7a.84.84,0,0,1-.78-.88.83.83,0,0,1,.78-.88h7a.83.83,0,0,1,.78.88"/></clipPath><clipPath id="clip-path-25"><rect class="cls-1" x="251.28" y="630.06" width="99.18" height="100.17"/></clipPath><clipPath id="clip-path-26"><rect class="cls-1" x="249.22" y="626.13" width="102.17" height="102.17"/></clipPath><clipPath id="clip-path-27"><path class="cls-2" d="M259.61,646l-10.4-14.64,2.27-2.27,2.27-2.27,14.63,10.4c1.65,1.66,2,2.91.72,5.49L313.31,687a2.75,2.75,0,0,1,0,3.86s-.05,0-.06.05,0,0-.05.06a2.76,2.76,0,0,1-3.87,0L265.1,646.72c-2.58,1.31-3.83.95-5.49-.7"/></clipPath><clipPath id="clip-path-28"><path class="cls-2" d="M349.42,714a6.1,6.1,0,0,1,0,8.61l-4.31,4.3a6.08,6.08,0,0,1-8.6,0L297.05,687.5a6.1,6.1,0,0,1,0-8.61l4.31-4.3a6.07,6.07,0,0,1,8.6,0Z"/></clipPath><clipPath id="clip-path-29"><path class="cls-2" d="M301.28,666.07a4.39,4.39,0,0,1,0,6.22l-6.7,6.7a4.39,4.39,0,0,1-6.21,0l-.24-.24a4.39,4.39,0,0,1,0-6.22l6.69-6.69a4.41,4.41,0,0,1,6.22,0Z"/></clipPath><clipPath id="clip-path-30"><path class="cls-2" d="M340.62,720.31a2,2,0,0,1-2.87,2.88l-36.57-36.58a2,2,0,0,1,2.87-2.88Z"/></clipPath><clipPath id="clip-path-31"><path class="cls-2" d="M345.65,715.29a2,2,0,1,1-2.87,2.88L306.2,681.58a2,2,0,1,1,2.87-2.87Z"/></clipPath><clipPath id="clip-path-32"><rect class="cls-1" x="248.61" y="626.24" width="5.12" height="5.13"/></clipPath><clipPath id="clip-path-33"><rect class="cls-1" x="-2427.73" y="691.13" width="52.23" height="36.4"/></clipPath><linearGradient id="Degradado_sin_nombre_5" x1="456" y1="401.79" x2="359.46" y2="401.79" gradientUnits="userSpaceOnUse"><stop offset="0.01" stop-color="#c49735" stop-opacity="0.6"/><stop offset="1" stop-color="#c49735" stop-opacity="0.1"/></linearGradient></defs><title>servicios</title><path class="cls-3" d="M212.63,212.27h0a3.24,3.24,0,0,0-4.57,0l-7.61,7.61a3.23,3.23,0,0,0,0,4.55Z"/><path class="cls-4" d="M507.42,483.72a16.28,16.28,0,0,0-1.18-2.91,15.53,15.53,0,0,0-1.77-2.68q-.53-.63-1.11-1.23L387.24,360.78l36.53-36.53a24.78,24.78,0,0,1,21.31-7.13,53.77,53.77,0,0,0,61.54-62,3.22,3.22,0,0,0-5.46-1.7l-31.1,31.1a3.22,3.22,0,0,1-3.12.84l-25.59-6.86a3.24,3.24,0,0,1-2.28-2.28l-6.85-25.59a3.22,3.22,0,0,1,.83-3.11l31.06-31.06a3.24,3.24,0,0,0-1.8-5.48,53.72,53.72,0,0,0-61.92,61.08,25,25,0,0,1-6.86,21.56l-37,37a10.77,10.77,0,0,0-12.94,1.73l-6.21,6.21-92-92a7.8,7.8,0,0,0-1.12-11.86l-31.61-22.41-12.18,12.17,22.65,31.38A7.81,7.81,0,0,0,235,256.94l92,92,10.38-10.38-16.59,16.59A10.75,10.75,0,0,0,319,368.11L203.63,483.53A21.52,21.52,0,0,0,234.06,514L349.2,398.82l62.35,62.35,19.32,19.32,34.45,34.45a16.37,16.37,0,0,0,2.53,2.07,16.16,16.16,0,0,0,17.75,0,16.37,16.37,0,0,0,2.53-2.07l15.23-15.23c.39-.39.76-.8,1.11-1.22a16.34,16.34,0,0,0,1.77-2.68,16.59,16.59,0,0,0,1.18-2.91A16.29,16.29,0,0,0,507.42,483.72Z"/><path class="cls-5" d="M418,220.74a3.25,3.25,0,0,1-3.12.84l-25.59-6.86a3.24,3.24,0,0,1-2.28-2.28l-6.86-25.59a3.25,3.25,0,0,1,.84-3.12L412,152.67a3.24,3.24,0,0,0-1.8-5.48,53.72,53.72,0,0,0-61.92,61.09,25,25,0,0,1-6.87,21.56l-189.9,189.9a21.52,21.52,0,0,0,0,30.43h0a21.52,21.52,0,0,0,30.43,0L371.69,260.45A24.78,24.78,0,0,1,393,253.33a53.77,53.77,0,0,0,61.54-62,3.22,3.22,0,0,0-5.46-1.69Z"/><path class="cls-39" d="M160.54,148.47a3.22,3.22,0,0,0-4.56,0l-7.61,7.61a3.23,3.23,0,0,0,0,4.56l12.17-12.17Z"/><path class="cls-39" d="M193.28,182.75a7.81,7.81,0,0,0-1.12-11.86l-31.61-22.41-12.18,12.16L171,192a7.8,7.8,0,0,0,11.87,1.12l92,92,10.41-10.39Z"/><rect class="cls-40" x="276.32" y="262.2" width="25.82" height="53.79" rx="10.76" transform="translate(289.14 -119.84) rotate(45)"/><path class="cls-40" d="M283.61,345.88H456.84A16.13,16.13,0,0,1,473,362v21.54a16.13,16.13,0,0,1-16.13,16.13H283.61a10.76,10.76,0,0,1-10.76-10.76V356.64a10.76,10.76,0,0,1,10.76-10.76Z" transform="translate(372.82 -154.5) rotate(45)"/><path class="cls-41" d="M451.28,413.11l-65.41-65.4-26.41,49.66,53.78,53.78a16.13,16.13,0,0,0,22.81,0l15.23-15.23A16.13,16.13,0,0,0,451.28,413.11Z"/><rect class="cls-42" x="297.68" y="359.79" width="165.69" height="10.76" rx="5.36" transform="translate(369.67 -162.11) rotate(45)"/><rect class="cls-42" x="282.46" y="375.01" width="165.69" height="10.76" rx="5.36" transform="translate(375.97 -146.9) rotate(45)"/><rect class="cls-42" x="297.57" y="284.53" width="5.38" height="31.2" transform="translate(300.17 -124.41) rotate(45)"/></svg>