<svg xmlns="http://www.w3.org/2000/svg" xmlns:xlink="http://www.w3.org/1999/xlink" viewBox="0 0 600 600"><defs><style>.cls-1{fill:none;}.cls-2{fill:url(#Degradado_sin_nombre_63);}.cls-3{fill:url(#Degradado_sin_nombre_439);}.cls-4{fill:#043263;}.cls-5{fill:#bbbbba;}.cls-6{fill:#f8cd50;}.cls-7{fill:url(#Degradado_sin_nombre_62);}.cls-8{fill:#c49735;}</style><linearGradient id="Degradado_sin_nombre_63" x1="190.81" y1="6603.09" x2="716.42" y2="5614.58" gradientTransform="matrix(1, 0, 0, -1, 0, 6790)" gradientUnits="userSpaceOnUse"><stop offset="0.01" stop-color="#043263" stop-opacity="0.5"/><stop offset="1" stop-color="#043263" stop-opacity="0"/></linearGradient><linearGradient id="Degradado_sin_nombre_439" x1="247.03" y1="6628.84" x2="473.01" y2="6203.84" gradientTransform="matrix(1, 0, 0, -1, 0, 6790)" gradientUnits="userSpaceOnUse"><stop offset="0" stop-color="#162748" stop-opacity="0.5"/><stop offset="1" stop-color="#162748" stop-opacity="0"/></linearGradient><linearGradient id="Degradado_sin_nombre_62" x1="488.77" y1="6376.7" x2="375.98" y2="6376.7" gradientTransform="matrix(1, 0, 0, -1, 0, 6790)" gradientUnits="userSpaceOnUse"><stop offset="0.01" stop-color="#c49735" stop-opacity="0.6"/><stop offset="1" stop-color="#c49735" stop-opacity="0.1"/></linearGradient></defs><title>11</title><g id="Cuadrados_Blancos" data-name="Cuadrados Blancos"><rect class="cls-1" width="600" height="600"/></g><g id="Capa_29" data-name="Capa 29"><path class="cls-2" d="M204.44,191.89h0a3.77,3.77,0,0,0-5.33,0l-8.9,8.89a3.8,3.8,0,0,0,0,5.32Z"/><path class="cls-3" d="M548.84,509a18.93,18.93,0,0,0-1.38-3.4,18.05,18.05,0,0,0-2.07-3.13q-.61-.74-1.29-1.44L408.44,365.39l42.67-42.68a29,29,0,0,1,24.9-8.33A62.81,62.81,0,0,0,547.9,242a3.75,3.75,0,0,0-4.36-3,3.65,3.65,0,0,0-2,1.06L505.19,276.3a3.75,3.75,0,0,1-3.64,1l-29.9-8A3.79,3.79,0,0,1,469,266.6l-8-29.89a3.77,3.77,0,0,1,1-3.64l36.28-36.28a3.79,3.79,0,0,0-2.1-6.41,62.75,62.75,0,0,0-72.34,71.36,29.21,29.21,0,0,1-8,25.19l-43.23,43.23a12.58,12.58,0,0,0-15.12,2l-7.25,7.25L242.71,232a9.11,9.11,0,0,0-.14-12.88,9,9,0,0,0-1.17-1l-36.93-26.19-14.23,14.22,26.46,36.66a9.11,9.11,0,0,0,12.7,2.26,8.46,8.46,0,0,0,1.18-1L338.06,351.56l12.13-12.13L330.8,358.81A12.57,12.57,0,0,0,328.71,374L193.93,508.8a25.15,25.15,0,1,0,35.55,35.59h0L364,409.83l72.84,72.84,22.57,22.58,40.25,40.24a18.44,18.44,0,0,0,2.95,2.42,18.87,18.87,0,0,0,20.74,0,18.44,18.44,0,0,0,2.95-2.42l17.8-17.79c.45-.46.88-.94,1.29-1.43a18.7,18.7,0,0,0,3.45-6.53A19,19,0,0,0,548.84,509Z"/><path class="cls-4" d="M444.37,201.79a3.79,3.79,0,0,1-3.64,1l-29.9-8a3.76,3.76,0,0,1-2.66-2.66l-8-29.9a3.79,3.79,0,0,1,1-3.64l36.23-36.29a3.78,3.78,0,0,0-2.1-6.4,62.75,62.75,0,0,0-72.34,71.37,29.2,29.2,0,0,1-8,25.19L133,434.27a25.13,25.13,0,0,0,0,35.55h0a25.13,25.13,0,0,0,35.55,0L390.27,248.18a29,29,0,0,1,24.9-8.32,62.81,62.81,0,0,0,71.89-72.43,3.77,3.77,0,0,0-4.37-3,3.82,3.82,0,0,0-2,1.06Z"/><path class="cls-5" d="M143.59,117.36a3.75,3.75,0,0,0-5.32,0h0l-8.89,8.89a3.76,3.76,0,0,0,0,5.32Z"/><path class="cls-5" d="M181.84,157.4a9.12,9.12,0,0,0-.16-12.9,8.66,8.66,0,0,0-1.15-.95L143.6,117.37l-14.23,14.2,26.44,36.64a9.11,9.11,0,0,0,12.68,2.29,9.25,9.25,0,0,0,1.19-1L277.16,277l12.16-12.14Z"/><rect class="cls-6" x="262.52" y="266.56" width="62.84" height="30.16" rx="12.57" transform="translate(-113.06 290.34) rotate(-45)"/><path class="cls-6" d="M340.15,283.42l143.1,143.11a18.83,18.83,0,0,1,.05,26.65h0L465.49,471a18.84,18.84,0,0,1-26.65,0h0L295.71,327.86a12.57,12.57,0,0,1,0-17.78h0l26.66-26.66a12.57,12.57,0,0,1,17.78,0Z"/><path class="cls-7" d="M483.25,426.53l-76.41-76.41-30.86,58L438.81,471a18.84,18.84,0,0,0,26.65,0l17.79-17.79A18.84,18.84,0,0,0,483.25,426.53Z"/><rect class="cls-8" x="394.31" y="273.74" width="12.57" height="193.57" rx="6.26" transform="translate(-144.67 391.79) rotate(-45)"/><rect class="cls-8" x="376.52" y="291.51" width="12.57" height="193.57" rx="6.26" transform="translate(-162.45 384.42) rotate(-45)"/><rect class="cls-8" x="288.6" y="291.39" width="36.45" height="6.29" transform="translate(-118.4 303.22) rotate(-45)"/></g></svg>