<svg xmlns="http://www.w3.org/2000/svg" xmlns:xlink="http://www.w3.org/1999/xlink" viewBox="0 0 600 600"><defs><style>.cls-1{isolation:isolate;}.cls-2{fill:none;}.cls-3{fill:url(#Degradado_sin_nombre_42);}.cls-4{fill:#1464a5;}.cls-5{fill:url(#Degradado_sin_nombre_25);}.cls-6{fill:#004481;}.cls-7{fill:url(#Degradado_sin_nombre_11);}.cls-8{fill:url(#Degradado_sin_nombre_11-2);}.cls-9{fill:#2dcccd;}.cls-10{fill:url(#Degradado_sin_nombre_6);}.cls-11{fill:#d4edfc;}.cls-12{fill:url(#Degradado_sin_nombre_58);}.cls-13{fill:#028484;mix-blend-mode:multiply;}.cls-14{fill:#fff;}.cls-15{fill:url(#Degradado_sin_nombre_11-3);}</style><linearGradient id="Degradado_sin_nombre_42" x1="184.78" y1="112.54" x2="421.74" y2="558.18" gradientUnits="userSpaceOnUse"><stop offset="0" stop-color="#192647" stop-opacity="0.5"/><stop offset="1" stop-color="#192647" stop-opacity="0"/></linearGradient><linearGradient id="Degradado_sin_nombre_25" x1="428.4" y1="-972.12" x2="85.34" y2="-972.12" gradientTransform="matrix(1, 0, 0, -1, 0, -722.84)" gradientUnits="userSpaceOnUse"><stop offset="0" stop-color="#043263" stop-opacity="0.8"/><stop offset="1" stop-color="#043263" stop-opacity="0"/></linearGradient><linearGradient id="Degradado_sin_nombre_11" x1="157.36" y1="150.15" x2="135.35" y2="150.15" gradientUnits="userSpaceOnUse"><stop offset="0.01" stop-color="#043263" stop-opacity="0.6"/><stop offset="1" stop-color="#043263" stop-opacity="0.1"/></linearGradient><linearGradient id="Degradado_sin_nombre_11-2" x1="207.36" y1="150.15" x2="185.35" y2="150.15" xlink:href="#Degradado_sin_nombre_11"/><linearGradient id="Degradado_sin_nombre_6" x1="107.36" y1="150.15" x2="85.35" y2="150.15" gradientUnits="userSpaceOnUse"><stop offset="0.02" stop-color="#028484" stop-opacity="0.4"/><stop offset="1" stop-color="#028484" stop-opacity="0.1"/></linearGradient><linearGradient id="Degradado_sin_nombre_58" x1="507.29" y1="-1077.58" x2="296.96" y2="-1077.58" gradientTransform="matrix(1, 0, 0, -1, 0, -722.84)" gradientUnits="userSpaceOnUse"><stop offset="0" stop-color="#028484" stop-opacity="0.6"/><stop offset="1" stop-color="#028484" stop-opacity="0"/></linearGradient><linearGradient id="Degradado_sin_nombre_11-3" x1="257.36" y1="150.15" x2="235.35" y2="150.15" xlink:href="#Degradado_sin_nombre_11"/></defs><title>tarjeta_lector</title><g class="cls-1"><g id="Contenido"><rect class="cls-2" width="600" height="600"/><path class="cls-3" d="M534.64,303.76H337.36V166.24a12,12,0,0,0-12-12h-216a12,12,0,0,0-12,12v266a12,12,0,0,0,12,12H232.64v33.52a18,18,0,0,0,18,18h284a18,18,0,0,0,18-18v-156A18,18,0,0,0,534.64,303.76Z"/><rect class="cls-4" x="47.36" y="104.24" width="240" height="290" rx="12"/><path class="cls-5" d="M287.29,378.8l.06-262.46a11.94,11.94,0,0,0-12-12.34h-32.1L85.34,394.55H271.55A15.75,15.75,0,0,0,287.29,378.8Z"/><circle class="cls-6" cx="142.36" cy="149.24" r="15"/><path class="cls-7" d="M149.37,136.05l-14,26.37a14.83,14.83,0,0,0,7,1.82,15,15,0,0,0,7-28.19Z"/><circle class="cls-6" cx="192.36" cy="149.24" r="15"/><path class="cls-8" d="M199.37,136.05l-14,26.37a14.83,14.83,0,0,0,7,1.82,15,15,0,0,0,7-28.19Z"/><circle class="cls-9" cx="92.36" cy="149.24" r="15"/><path class="cls-10" d="M99.37,136.05l-14,26.37a14.83,14.83,0,0,0,7,1.82,15,15,0,0,0,7-28.19Z"/><path class="cls-11" d="M198,321.91l-7-3.82a1,1,0,0,1-.4-1.34,107.67,107.67,0,0,0,0-100.63,1,1,0,0,1,.4-1.34l7-3.81a1,1,0,0,1,1.37.41,117.72,117.72,0,0,1,0,110.12A1,1,0,0,1,198,321.91Z"/><path class="cls-11" d="M175.42,311.13l-7-3.92a1,1,0,0,1-.38-1.34,82.59,82.59,0,0,0,0-78.86,1,1,0,0,1,.38-1.35l7-3.91a1,1,0,0,1,1.38.39,92.63,92.63,0,0,1,0,88.6A1,1,0,0,1,175.42,311.13Z"/><path class="cls-11" d="M152.75,300.37l-6.88-4.09a1,1,0,0,1-.35-1.35,57.46,57.46,0,0,0,0-57,1,1,0,0,1,.35-1.35l6.88-4.09a1,1,0,0,1,1.39.35,67.52,67.52,0,0,1,0,67.15A1,1,0,0,1,152.75,300.37Z"/><path class="cls-11" d="M129.93,289.69l-6.62-4.49a1,1,0,0,1-.27-1.37A32.54,32.54,0,0,0,123,249a1,1,0,0,1,.27-1.36l6.62-4.49a1,1,0,0,1,1.41.27,42.53,42.53,0,0,1,0,46A1,1,0,0,1,129.93,289.69Z"/><rect class="cls-9" x="189.99" y="259.11" width="317.29" height="191.26" rx="20.27"/><path class="cls-12" d="M487,450.36a20.27,20.27,0,0,0,20.28-20.27V279.38A20.27,20.27,0,0,0,487,259.11H398.68L297,450.36Z"/><rect class="cls-13" x="189.99" y="286.31" width="317.29" height="31.09"/><rect class="cls-14" x="236.65" y="377.28" width="223.97" height="27.99" rx="2.64"/><circle class="cls-6" cx="242.36" cy="149.24" r="15"/><path class="cls-15" d="M249.37,136.05l-14,26.37a14.83,14.83,0,0,0,7,1.82,15,15,0,0,0,7-28.19Z"/></g></g></svg>