<svg id="Contenido" xmlns="http://www.w3.org/2000/svg" xmlns:xlink="http://www.w3.org/1999/xlink" viewBox="0 0 600 600"><defs><style>.cls-1{fill:url(#Degradado_sin_nombre_16);}.cls-2{fill:#043263;}.cls-3{fill:#49a5e6;}.cls-4{fill:#5ac4c4;}.cls-5{fill:#d4edfc;}.cls-6{fill:url(#Degradado_sin_nombre_15);}.cls-7{fill:#eaf9fa;}.cls-8{opacity:0.12;}.cls-9{fill:#1464a5;}.cls-10{fill:#f8cd50;}.cls-11{fill:url(#Degradado_sin_nombre_19);}.cls-12{fill:url(#Degradado_sin_nombre_19-2);}.cls-13{fill:url(#Degradado_sin_nombre_19-3);}.cls-14{fill:#2dcccd;}.cls-15{fill:#fff;}</style><linearGradient id="Degradado_sin_nombre_16" x1="277.92" y1="145.43" x2="467.5" y2="501.97" gradientUnits="userSpaceOnUse"><stop offset="0" stop-color="#1c2645"/><stop offset="0" stop-color="#1c2645" stop-opacity="0.5"/><stop offset="1" stop-color="#1c2645" stop-opacity="0"/></linearGradient><linearGradient id="Degradado_sin_nombre_15" x1="478.77" y1="277.1" x2="322.59" y2="277.1" gradientUnits="userSpaceOnUse"><stop offset="0" stop-color="#043263" stop-opacity="0.2"/><stop offset="1" stop-color="#043263" stop-opacity="0"/></linearGradient><linearGradient id="Degradado_sin_nombre_19" x1="279.61" y1="205.09" x2="294.84" y2="220.32" gradientUnits="userSpaceOnUse"><stop offset="0" stop-color="#fff" stop-opacity="0.7"/><stop offset="1" stop-color="#fff" stop-opacity="0.1"/></linearGradient><linearGradient id="Degradado_sin_nombre_19-2" x1="279.61" y1="342.77" x2="294.84" y2="358" xlink:href="#Degradado_sin_nombre_19"/><linearGradient id="Degradado_sin_nombre_19-3" x1="279.61" y1="270.77" x2="294.84" y2="286" xlink:href="#Degradado_sin_nombre_19"/></defs><title>agenda_contactos (1)</title><path class="cls-1" d="M589.09,202.12a60,60,0,0,0-120,0v0h-107a3,3,0,0,0-3,3v6h-20v-6a3,3,0,0,0-3-3h-164a3,3,0,0,0-3,3v2h-2a3,3,0,0,0-3,3v1h-1a7,7,0,0,0-7,7v240a7,7,0,0,0,7,7h372a7,7,0,0,0,7-7V260.67A60,60,0,0,0,589.09,202.12Z"/><rect class="cls-2" x="105.77" y="161.1" width="386" height="254" rx="7"/><path class="cls-3" d="M480.77,407.1h-164a3,3,0,0,1-3-3v-247h167a3,3,0,0,1,3,3v244A3,3,0,0,1,480.77,407.1Z"/><path class="cls-4" d="M116.77,157.1h167a0,0,0,0,1,0,0v247a3,3,0,0,1-3,3h-164a3,3,0,0,1-3-3v-244A3,3,0,0,1,116.77,157.1Z"/><path class="cls-5" d="M472.67,402.1H373.86L311.75,402a3,3,0,0,1-3-3V155.1a3,3,0,0,1,3-3h160.9a6.1,6.1,0,0,1,6.1,6.1V396A6.1,6.1,0,0,1,472.67,402.1Z"/><path class="cls-6" d="M472.77,152.1H455.52l-132.93,250H472.77a6,6,0,0,0,6-6v-238A6,6,0,0,0,472.77,152.1Z"/><rect class="cls-7" x="118.77" y="152.1" width="170" height="250" rx="3"/><g class="cls-8"><ellipse class="cls-9" cx="203.77" cy="207.85" rx="19.02" ry="19.14"/><path class="cls-9" d="M183.18,232h41.18a11.44,11.44,0,0,1,11.44,11.44v22.8a0,0,0,0,1,0,0H171.73a0,0,0,0,1,0,0v-22.8A11.44,11.44,0,0,1,183.18,232Z"/><path class="cls-9" d="M247.47,305.22H160.06a5,5,0,0,1,0-10h87.41a5,5,0,1,1,0,10Z"/><path class="cls-9" d="M247.47,335.22H160.06a5,5,0,0,1,0-10h87.41a5,5,0,1,1,0,10Z"/><path class="cls-9" d="M247.47,365.22H160.06a5,5,0,1,1,0-10h87.41a5,5,0,1,1,0,10Z"/></g><g class="cls-8"><ellipse class="cls-9" cx="398.77" cy="207.85" rx="19.02" ry="19.14"/><path class="cls-9" d="M378.18,232h41.18a11.44,11.44,0,0,1,11.44,11.44v22.8a0,0,0,0,1,0,0H366.73a0,0,0,0,1,0,0v-22.8A11.44,11.44,0,0,1,378.18,232Z"/><path class="cls-9" d="M442.47,305.22H355.06a5,5,0,1,1,0-10h87.41a5,5,0,0,1,0,10Z"/><path class="cls-9" d="M442.47,335.22H355.06a5,5,0,1,1,0-10h87.41a5,5,0,0,1,0,10Z"/><path class="cls-9" d="M442.47,365.22H355.06a5,5,0,1,1,0-10h87.41a5,5,0,0,1,0,10Z"/></g><path class="cls-10" d="M273.88,212.05v7.09a3,3,0,0,0,3.66,2.92,97,97,0,0,1,42.45,0,3,3,0,0,0,3.66-2.92v-7.09a3,3,0,0,0-2.35-2.93,106.52,106.52,0,0,0-45.06,0A3,3,0,0,0,273.88,212.05Z"/><path class="cls-11" d="M298.77,206.71a102.34,102.34,0,0,0-22.53,2.41,3,3,0,0,0-2.36,2.93v7.09a3,3,0,0,0,3.66,2.92,90.65,90.65,0,0,1,17.85-2.29l6.92-13C301.13,206.73,300,206.71,298.77,206.71Z"/><path class="cls-10" d="M273.88,349.73v7.08a3,3,0,0,0,3.66,2.93,96.63,96.63,0,0,1,42.45,0,3,3,0,0,0,3.66-2.93v-7.08a3,3,0,0,0-2.35-2.93,106.09,106.09,0,0,0-45.06,0A3,3,0,0,0,273.88,349.73Z"/><path class="cls-12" d="M298.77,344.38a102.32,102.32,0,0,0-22.53,2.42,3,3,0,0,0-2.36,2.93v7.08a3,3,0,0,0,3.66,2.93,91.38,91.38,0,0,1,17.85-2.3l6.92-13C301.13,344.41,300,344.38,298.77,344.38Z"/><path class="cls-10" d="M273.88,277.73v7.08a3,3,0,0,0,3.66,2.93,96.63,96.63,0,0,1,42.45,0,3,3,0,0,0,3.66-2.93v-7.08a3,3,0,0,0-2.35-2.93,106.09,106.09,0,0,0-45.06,0A3,3,0,0,0,273.88,277.73Z"/><path class="cls-13" d="M298.77,272.38a102.32,102.32,0,0,0-22.53,2.42,3,3,0,0,0-2.36,2.93v7.08a3,3,0,0,0,3.66,2.93,91.38,91.38,0,0,1,17.85-2.3l6.92-13C301.13,272.41,300,272.38,298.77,272.38Z"/><path class="cls-14" d="M538.77,152.12a60,60,0,1,1-60-60,60,60,0,0,1,60,60"/><path class="cls-15" d="M479,183.21a5,5,0,0,1-5-5V126a5,5,0,1,1,10,0v52.22A5,5,0,0,1,479,183.21Z"/><path class="cls-15" d="M505.15,157.1H452.94a5,5,0,0,1,0-10h52.21a5,5,0,0,1,0,10Z"/></svg>