<svg id="Contenido" xmlns="http://www.w3.org/2000/svg" xmlns:xlink="http://www.w3.org/1999/xlink" viewBox="0 0 600 600"><defs><style>.cls-1{fill:url(#Degradado_sin_nombre_16);}.cls-2{fill:#49a5e6;}.cls-3{fill:#d4edfc;}.cls-4{fill:#1464a5;}.cls-5{fill:#2dcccd;}.cls-6{fill:url(#Degradado_sin_nombre_10);}.cls-7{fill:#043263;}.cls-8{fill:url(#Degradado_sin_nombre_12);}.cls-9{fill:#f8cd50;}.cls-10{fill:url(#Degradado_sin_nombre_5);}.cls-11{fill:url(#Degradado_sin_nombre_14);}</style><linearGradient id="Degradado_sin_nombre_16" x1="265.78" y1="177.27" x2="459.69" y2="541.97" gradientUnits="userSpaceOnUse"><stop offset="0" stop-color="#1c2645"/><stop offset="0" stop-color="#1c2645" stop-opacity="0.5"/><stop offset="1" stop-color="#1c2645" stop-opacity="0"/></linearGradient><linearGradient id="Degradado_sin_nombre_10" x1="415" y1="313.68" x2="238.68" y2="313.68" gradientUnits="userSpaceOnUse"><stop offset="0" stop-color="#028484" stop-opacity="0.6"/><stop offset="1" stop-color="#028484" stop-opacity="0"/></linearGradient><linearGradient id="Degradado_sin_nombre_12" x1="430" y1="171.75" x2="254.94" y2="171.75" gradientUnits="userSpaceOnUse"><stop offset="0" stop-color="#043263" stop-opacity="0.6"/><stop offset="1" stop-color="#043263" stop-opacity="0.1"/></linearGradient><linearGradient id="Degradado_sin_nombre_5" x1="282.05" y1="104.6" x2="305.49" y2="128.04" gradientUnits="userSpaceOnUse"><stop offset="0" stop-color="#fff" stop-opacity="0.6"/><stop offset="1" stop-color="#fff" stop-opacity="0.2"/></linearGradient><linearGradient id="Degradado_sin_nombre_14" x1="343.55" y1="329.85" x2="264.45" y2="329.85" gradientUnits="userSpaceOnUse"><stop offset="0" stop-color="#043263" stop-opacity="0.5"/><stop offset="1" stop-color="#043263" stop-opacity="0.1"/></linearGradient></defs><title>tribu</title><path class="cls-1" d="M545,293.85H465V259.49h5a10.11,10.11,0,0,0,1-.05,10,10,0,0,0,6.69-3.59q.31-.37.58-.77a10,10,0,0,0,1.71-5.59V227.1h0a42.71,42.71,0,0,0-.49-6.46A42.35,42.35,0,0,0,437.6,184.7H408l9.63-9a1.63,1.63,0,0,0-1.11-2.82H384.9a2.39,2.39,0,0,0-.7-1.69l-21.74-21.74L351.69,138.7h0a2.37,2.37,0,0,0-.65-.45l-.27-.11A2.4,2.4,0,0,0,350,138h0a2.38,2.38,0,0,0-1.69.7L315.8,171.2a2.39,2.39,0,0,0-.7,1.69H283.47a1.63,1.63,0,0,0-1.11,2.82l9.63,9H262.4A42.4,42.4,0,0,0,220,227.1v22.39a10,10,0,0,0,10,10h5v34.36H155a3,3,0,0,0-3,3v21a23,23,0,0,0,23,23h1v24a23,23,0,0,0,23,23h1v24a23,23,0,0,0,23,23h12v34.5H223a3,3,0,0,0-3,3h0a17,17,0,0,0,17,17h24.82V523H257a17,17,0,0,0-17,17,3,3,0,0,0,3,3H457a3,3,0,0,0,3-3,17,17,0,0,0-17-17h-4.82V489.35H463a17,17,0,0,0,17-17h0a3,3,0,0,0-3-3H465v-34.5h12a23,23,0,0,0,23-23v-24h1a23,23,0,0,0,23-23v-24h1a23,23,0,0,0,23-23v-21A3,3,0,0,0,545,293.85Z"/><path class="cls-2" d="M126,290.5H230a0,0,0,0,1,0,0v47a0,0,0,0,1,0,0H149a23,23,0,0,1-23-23v-24A0,0,0,0,1,126,290.5Z"/><path class="cls-3" d="M150,337.5H250a0,0,0,0,1,0,0v47a0,0,0,0,1,0,0H173a23,23,0,0,1-23-23v-24A0,0,0,0,1,150,337.5Z"/><path class="cls-4" d="M105,243.5h85a0,0,0,0,1,0,0v47a0,0,0,0,1,0,0H125a23,23,0,0,1-23-23v-21A3,3,0,0,1,105,243.5Z"/><path class="cls-2" d="M393,290.5h81a0,0,0,0,1,0,0v47a0,0,0,0,1,0,0H370a0,0,0,0,1,0,0v-24A23,23,0,0,1,393,290.5Z" transform="translate(844 628) rotate(-180)"/><path class="cls-3" d="M373,337.5h77a0,0,0,0,1,0,0v47a0,0,0,0,1,0,0H350a0,0,0,0,1,0,0v-24A23,23,0,0,1,373,337.5Z" transform="translate(800 722) rotate(-180)"/><path class="cls-4" d="M433,243.5h65a0,0,0,0,1,0,0v47a0,0,0,0,1,0,0H413a3,3,0,0,1-3-3v-21a23,23,0,0,1,23-23Z" transform="translate(908 534) rotate(-180)"/><rect class="cls-5" x="185" y="198.35" width="230" height="230.65"/><polygon class="cls-6" points="415 198.35 361.32 198.35 238.68 429 415 429 415 198.35"/><rect class="cls-7" x="211.82" y="429" width="176.36" height="53.68"/><path class="cls-4" d="M187,419H413a17,17,0,0,1,17,17v0a3,3,0,0,1-3,3H173a3,3,0,0,1-3-3v0a17,17,0,0,1,17-17Z" transform="translate(600 858) rotate(180)"/><path class="cls-4" d="M207,472.66H393a17,17,0,0,1,17,17v0a3,3,0,0,1-3,3H193a3,3,0,0,1-3-3v0a17,17,0,0,1,17-17Z"/><path class="cls-3" d="M219,243.5h70a0,0,0,0,1,0,0v30a0,0,0,0,1,0,0H239a20,20,0,0,1-20-20v-10A0,0,0,0,1,219,243.5Z"/><path class="cls-3" d="M331,243.5h50a0,0,0,0,1,0,0v30a0,0,0,0,1,0,0H311a0,0,0,0,1,0,0v-10a20,20,0,0,1,20-20Z" transform="translate(692 517) rotate(-180)"/><path class="cls-4" d="M320.54,386.46H279.46a23,23,0,0,1-22.31-28.58l30.43-121.72a12.81,12.81,0,0,1,12.43-9.7h0a12.81,12.81,0,0,1,12.43,9.7l30.43,121.72A23,23,0,0,1,320.54,386.46Z"/><path class="cls-4" d="M212.4,134.35H387.6a42.4,42.4,0,0,1,42.4,42.4v22.39a10,10,0,0,1-10,10H180a10,10,0,0,1-10-10V176.75A42.4,42.4,0,0,1,212.4,134.35Z"/><path class="cls-8" d="M387.6,134.35h-92.9l-39.77,74.79H420a10,10,0,0,0,10-10V176.75A42.4,42.4,0,0,0,387.6,134.35Z"/><path class="cls-2" d="M358.71,122.55H233.47a1.63,1.63,0,0,0-1.11,2.82l66.53,62a1.63,1.63,0,0,0,2.22,0l66.53-62a1.63,1.63,0,0,0-1.11-2.82Z"/><rect class="cls-9" x="274.62" y="97.17" width="50.76" height="50.76" rx="2.39" ry="2.39" transform="translate(174.52 -176.24) rotate(45)"/><path class="cls-10" d="M301.69,88.35a2.39,2.39,0,0,0-3.38,0L265.8,120.86a2.39,2.39,0,0,0,0,3.38L287.54,146l24.92-46.87Z"/><path class="cls-11" d="M321.69,273.24,264.45,380.89a22.81,22.81,0,0,0,15,5.57h41.08a23,23,0,0,0,22.31-28.58Z"/></svg>