<svg id="Capa_1" data-name="Capa 1" xmlns="http://www.w3.org/2000/svg" xmlns:xlink="http://www.w3.org/1999/xlink" viewBox="0 0 600 600"><defs><style>.cls-1{fill:none;}.cls-2{fill:url(#Degradado_sin_nombre);}.cls-3{fill:#043263;}.cls-4{fill:url(#Degradado_sin_nombre_2);}.cls-5{fill:#004481;}.cls-6{fill:url(#Degradado_sin_nombre_3);}.cls-7{fill:url(#Degradado_sin_nombre_4);}.cls-8{fill:#2dcccd;}.cls-9{fill:url(#Degradado_sin_nombre_5);}.cls-10{fill:#d4edfc;}.cls-11{fill:url(#Degradado_sin_nombre_6);}.cls-12{fill:#028484;}.cls-13{fill:#fff;}.cls-14{fill:url(#Degradado_sin_nombre_7);}</style><linearGradient id="Degradado_sin_nombre" x1="184.78" y1="489.46" x2="421.74" y2="43.82" gradientTransform="matrix(1, 0, 0, -1, 0, 602)" gradientUnits="userSpaceOnUse"><stop offset="0" stop-color="#192647" stop-opacity="0.5"/><stop offset="1" stop-color="#192647" stop-opacity="0"/></linearGradient><linearGradient id="Degradado_sin_nombre_2" x1="428.4" y1="1672.11" x2="85.34" y2="1672.11" gradientTransform="translate(0 -1422.84)" gradientUnits="userSpaceOnUse"><stop offset="0" stop-color="#043263" stop-opacity="0.8"/><stop offset="1" stop-color="#043263" stop-opacity="0"/></linearGradient><linearGradient id="Degradado_sin_nombre_3" x1="157.36" y1="451.85" x2="135.35" y2="451.85" gradientTransform="matrix(1, 0, 0, -1, 0, 602)" gradientUnits="userSpaceOnUse"><stop offset="0.01" stop-color="#043263" stop-opacity="0.6"/><stop offset="1" stop-color="#043263" stop-opacity="0.1"/></linearGradient><linearGradient id="Degradado_sin_nombre_4" x1="207.36" y1="451.85" x2="185.35" y2="451.85" xlink:href="#Degradado_sin_nombre_3"/><linearGradient id="Degradado_sin_nombre_5" x1="107.36" y1="451.85" x2="85.35" y2="451.85" gradientTransform="matrix(1, 0, 0, -1, 0, 602)" gradientUnits="userSpaceOnUse"><stop offset="0.02" stop-color="#028484" stop-opacity="0.4"/><stop offset="1" stop-color="#028484" stop-opacity="0.1"/></linearGradient><linearGradient id="Degradado_sin_nombre_6" x1="507.28" y1="1777.58" x2="297" y2="1777.58" gradientTransform="translate(0 -1422.84)" gradientUnits="userSpaceOnUse"><stop offset="0" stop-color="#028484" stop-opacity="0.6"/><stop offset="1" stop-color="#028484" stop-opacity="0"/></linearGradient><linearGradient id="Degradado_sin_nombre_7" x1="257.36" y1="451.85" x2="235.35" y2="451.85" xlink:href="#Degradado_sin_nombre_3"/></defs><g id="Contenido"><rect class="cls-1" width="600" height="600"/><path class="cls-2" d="M534.64,303.76H337.36V166.24a12,12,0,0,0-12-12h-216a12,12,0,0,0-12,12v266a12,12,0,0,0,12,12H232.64v33.52a18,18,0,0,0,18,18h284a18,18,0,0,0,18-18v-156A18,18,0,0,0,534.64,303.76Z"/><rect class="cls-3" x="47.36" y="104.24" width="240" height="290" rx="12"/><path class="cls-4" d="M287.29,378.8l.06-262.46A11.94,11.94,0,0,0,275.82,104H243.25L85.34,394.55H271.55A15.76,15.76,0,0,0,287.29,378.8Z"/><circle class="cls-5" cx="142.36" cy="149.24" r="15"/><path class="cls-6" d="M149.37,136.05l-14,26.37a14.78,14.78,0,0,0,7,1.82,15,15,0,0,0,7-28.19Z"/><circle class="cls-5" cx="192.36" cy="149.24" r="15"/><path class="cls-7" d="M199.37,136.05l-14,26.37a14.78,14.78,0,0,0,7,1.82,15,15,0,0,0,7-28.19Z"/><circle class="cls-8" cx="92.36" cy="149.24" r="15"/><path class="cls-9" d="M99.37,136.05l-14,26.37a14.78,14.78,0,0,0,7,1.82,15,15,0,0,0,7-28.19Z"/><path class="cls-10" d="M198,321.91l-7-3.82a1,1,0,0,1-.4-1.34,107.67,107.67,0,0,0,0-100.63,1,1,0,0,1,.4-1.34l7-3.81a1,1,0,0,1,1.36.39v0a117.7,117.7,0,0,1,0,110.12,1,1,0,0,1-1.35.42Z"/><path class="cls-10" d="M175.42,311.13l-7-3.92a1,1,0,0,1-.38-1.34A82.59,82.59,0,0,0,168,227a1,1,0,0,1,.38-1.35l7-3.91a1,1,0,0,1,1.37.37v0a92.63,92.63,0,0,1,0,88.6,1,1,0,0,1-1.36.4Z"/><path class="cls-10" d="M152.75,300.37l-6.88-4.09a1,1,0,0,1-.35-1.35,57.45,57.45,0,0,0,0-57,1,1,0,0,1,.35-1.35l6.88-4.09a1,1,0,0,1,1.38.33v0a67.52,67.52,0,0,1,0,67.15,1,1,0,0,1-1.36.4Z"/><path class="cls-10" d="M129.93,289.69l-6.62-4.49a1,1,0,0,1-.27-1.37A32.55,32.55,0,0,0,123,249a1,1,0,0,1,.27-1.36l6.62-4.49a1,1,0,0,1,1.39.24l0,0a42.52,42.52,0,0,1,0,46A1,1,0,0,1,129.93,289.69Z"/><rect class="cls-8" x="189.99" y="259.11" width="317.29" height="191.26" rx="20.27"/><path class="cls-11" d="M487,450.36a20.28,20.28,0,0,0,20.28-20.26h0V279.38A20.28,20.28,0,0,0,487,259.11H398.68L297,450.36Z"/><rect class="cls-12" x="189.99" y="286.31" width="317.29" height="31.09"/><rect class="cls-13" x="236.65" y="377.28" width="223.97" height="27.99" rx="2.64"/><circle class="cls-5" cx="242.36" cy="149.24" r="15" transform="translate(56.23 364.56) rotate(-80.78)"/><path class="cls-14" d="M249.37,136.05l-14,26.37a14.78,14.78,0,0,0,7,1.82,15,15,0,0,0,7-28.19Z"/></g></svg>