<svg xmlns="http://www.w3.org/2000/svg" xmlns:xlink="http://www.w3.org/1999/xlink" viewBox="0 0 600 600"><defs><style>.cls-1{fill:none;}.cls-2{fill:url(#Degradado_sin_nombre_70);}.cls-3{fill:#043263;}.cls-4{fill:#49a5e6;}.cls-5{fill:#5ac4c4;}.cls-6{fill:#d4edfc;}.cls-7{fill:url(#Degradado_sin_nombre_12);}.cls-8{fill:#eaf9fa;}.cls-9{opacity:0.12;}.cls-10{fill:#1464a5;}.cls-11{fill:#f8cd50;}.cls-12{fill:url(#Degradado_sin_nombre_11);}.cls-13{fill:url(#Degradado_sin_nombre_11-2);}.cls-14{fill:#2dcccd;}.cls-15{fill:#fff;}.cls-16{fill:url(#Degradado_sin_nombre_11-3);}</style><linearGradient id="Degradado_sin_nombre_70" x1="252.23" y1="-2880.27" x2="447.66" y2="-3247.81" gradientTransform="matrix(1, 0, 0, -1, 0, -2726)" gradientUnits="userSpaceOnUse"><stop offset="0" stop-color="#1c2645" stop-opacity="0.5"/><stop offset="1" stop-color="#1c2645" stop-opacity="0"/></linearGradient><linearGradient id="Degradado_sin_nombre_12" x1="461.33" y1="-3015.98" x2="300.33" y2="-3015.98" gradientTransform="matrix(1, 0, 0, -1, 0, -2726)" gradientUnits="userSpaceOnUse"><stop offset="0" stop-color="#043263" stop-opacity="0.2"/><stop offset="1" stop-color="#043263" stop-opacity="0"/></linearGradient><linearGradient id="Degradado_sin_nombre_11" x1="256.02" y1="-3083.67" x2="271.72" y2="-3099.37" gradientTransform="matrix(1, 0, 0, -1, 0, -2726)" gradientUnits="userSpaceOnUse"><stop offset="0" stop-color="#fff" stop-opacity="0.7"/><stop offset="1" stop-color="#fff" stop-opacity="0.1"/></linearGradient><linearGradient id="Degradado_sin_nombre_11-2" x1="256.02" y1="-3009.45" x2="271.72" y2="-3025.15" xlink:href="#Degradado_sin_nombre_11"/><linearGradient id="Degradado_sin_nombre_11-3" x1="256.02" y1="-2941.75" x2="271.72" y2="-2957.45" xlink:href="#Degradado_sin_nombre_11"/></defs><title>5</title><g id="Cuadrados_blancos" data-name="Cuadrados blancos"><rect class="cls-1" width="600" height="600"/></g><g id="Capa_8" data-name="Capa 8"><path class="cls-2" d="M573,212.69a61.85,61.85,0,0,0-123.7,0H339a3.1,3.1,0,0,0-3.1,3.09V222H315.29v-6.19a3.1,3.1,0,0,0-3.09-3.09H143.14a3.1,3.1,0,0,0-3.1,3.09v2.07H138a3.09,3.09,0,0,0-3.09,3.09v1h-1a7.21,7.21,0,0,0-7.22,7.21V476.59a7.21,7.21,0,0,0,7.22,7.21H517.33a7.21,7.21,0,0,0,7.22-7.21V273.05A61.85,61.85,0,0,0,573,212.69Z"/><rect class="cls-3" x="76.82" y="170.41" width="397.91" height="261.84" rx="7.22"/><path class="cls-4" d="M463.39,424H294.33a3.09,3.09,0,0,1-3.09-3.09V166.28H463.39a3.09,3.09,0,0,1,3.09,3.09V420.9A3.09,3.09,0,0,1,463.39,424Z"/><path class="cls-5" d="M88.16,166.28H260.31V420.9a3.09,3.09,0,0,1-3.09,3.09H88.16a3.09,3.09,0,0,1-3.09-3.09V169.37a3.09,3.09,0,0,1,3.09-3.09Z"/><path class="cls-6" d="M455,418.84H353.18l-64-.1a3.1,3.1,0,0,1-3.1-3.1V164.22a3.09,3.09,0,0,1,3.1-3.09H455a6.29,6.29,0,0,1,6.29,6.29h0V412.55A6.29,6.29,0,0,1,455,418.84Z"/><path class="cls-7" d="M455.14,161.13H437.36l-137,257.71H455.14a6.19,6.19,0,0,0,6.19-6.18V167.31A6.19,6.19,0,0,0,455.14,161.13Z"/><rect class="cls-8" x="90.22" y="161.13" width="175.24" height="257.71" rx="3.09"/><g class="cls-9"><ellipse class="cls-10" cx="177.84" cy="218.6" rx="19.61" ry="19.73"/><path class="cls-10" d="M156.62,243.49h42.45a11.79,11.79,0,0,1,11.79,11.8h0v23.5h-66v-23.5a11.79,11.79,0,0,1,11.79-11.8Z"/><path class="cls-10" d="M222.89,319h-90.1a5.16,5.16,0,1,1,0-10.31h90.1a5.16,5.16,0,1,1,0,10.31Z"/><path class="cls-10" d="M222.89,349.9h-90.1a5.16,5.16,0,1,1,0-10.31h90.1a5.16,5.16,0,1,1,0,10.31Z"/><path class="cls-10" d="M222.89,380.82h-90.1a5.16,5.16,0,1,1,0-10.31h90.1a5.16,5.16,0,1,1,0,10.31Z"/></g><g class="cls-9"><ellipse class="cls-10" cx="378.86" cy="218.6" rx="19.61" ry="19.73"/><path class="cls-10" d="M357.63,243.49h42.46a11.79,11.79,0,0,1,11.79,11.8h0v23.5H345.83v-23.5a11.79,11.79,0,0,1,11.79-11.8Z"/><path class="cls-10" d="M423.91,319H333.8a5.16,5.16,0,0,1,0-10.31h90.11a5.16,5.16,0,0,1,0,10.31Z"/><path class="cls-10" d="M423.91,349.9H333.8a5.16,5.16,0,0,1,0-10.31h90.11a5.16,5.16,0,0,1,0,10.31Z"/><path class="cls-10" d="M423.91,380.82H333.8a5.16,5.16,0,0,1,0-10.31h90.11a5.16,5.16,0,0,1,0,10.31Z"/></g><path class="cls-11" d="M250.12,364.85v7.3a3.07,3.07,0,0,0,3.77,3,99.72,99.72,0,0,1,43.76,0,3.09,3.09,0,0,0,3.7-2.33,3.23,3.23,0,0,0,.07-.69v-7.3a3.09,3.09,0,0,0-2.42-3,109.56,109.56,0,0,0-46.45,0A3.09,3.09,0,0,0,250.12,364.85Z"/><path class="cls-12" d="M275.78,359.34a106.07,106.07,0,0,0-23.23,2.49,3.09,3.09,0,0,0-2.43,3v7.3a3.07,3.07,0,0,0,3.77,3,95,95,0,0,1,18.4-2.37l7.13-13.4C278.21,359.37,277,359.34,275.78,359.34Z"/><path class="cls-11" d="M250.12,290.63v7.3a3.07,3.07,0,0,0,3.77,3,99.72,99.72,0,0,1,43.76,0,3.09,3.09,0,0,0,3.7-2.33,3.23,3.23,0,0,0,.07-.69v-7.3a3.09,3.09,0,0,0-2.42-3,109.56,109.56,0,0,0-46.45,0A3.09,3.09,0,0,0,250.12,290.63Z"/><path class="cls-13" d="M275.78,285.12a105.47,105.47,0,0,0-23.23,2.49,3.09,3.09,0,0,0-2.43,3v7.3a3.07,3.07,0,0,0,3.77,3,94.23,94.23,0,0,1,18.4-2.37l7.13-13.4C278.21,285.15,277,285.12,275.78,285.12Z"/><path class="cls-14" d="M523.18,161.15A61.85,61.85,0,1,1,461.33,99.3a61.85,61.85,0,0,1,61.85,61.85"/><path class="cls-15" d="M461.56,193.2a5.16,5.16,0,0,1-5.15-5.16V134.22a5.16,5.16,0,0,1,10.31,0v53.83A5.16,5.16,0,0,1,461.56,193.2Z"/><path class="cls-15" d="M488.52,166.28H434.7a5.16,5.16,0,0,1,0-10.31h53.82a5.16,5.16,0,1,1,0,10.31Z"/><path class="cls-11" d="M250.12,222.93v7.31a3.09,3.09,0,0,0,3.1,3.08,3.05,3.05,0,0,0,.67-.07,100,100,0,0,1,43.76,0,3.1,3.1,0,0,0,3.7-2.34,3.05,3.05,0,0,0,.07-.67v-7.31a3.08,3.08,0,0,0-2.42-3,109.56,109.56,0,0,0-46.45,0A3.08,3.08,0,0,0,250.12,222.93Z"/><path class="cls-16" d="M275.78,217.42a105.53,105.53,0,0,0-23.23,2.49,3.08,3.08,0,0,0-2.43,3v7.31a3.09,3.09,0,0,0,3.1,3.08,3.05,3.05,0,0,0,.67-.07,92.71,92.71,0,0,1,18.4-2.36l7.13-13.41C278.21,217.44,277,217.42,275.78,217.42Z"/></g></svg>