<svg xmlns="http://www.w3.org/2000/svg" xmlns:xlink="http://www.w3.org/1999/xlink" viewBox="0 0 600 600"><defs><style>.cls-1{fill:none;}.cls-2{fill:url(#Degradado_sin_nombre_133);}.cls-3{fill:#49a5e6;}.cls-4{fill:#d4edfc;}.cls-5{fill:#043263;}.cls-6{fill:#2dcccd;}.cls-7{fill:url(#Degradado_sin_nombre_15);}.cls-8{fill:#072146;}.cls-9{fill:#1464a5;}.cls-10{fill:url(#Degradado_sin_nombre_44);}.cls-11{fill:#f8cd50;}.cls-12{fill:url(#Degradado_sin_nombre_13);}.cls-13{fill:url(#Degradado_sin_nombre_12);}</style><linearGradient id="Degradado_sin_nombre_133" x1="265.78" y1="-3191.28" x2="459.69" y2="-3555.97" gradientTransform="matrix(1, 0, 0, -1, 0, -3014)" gradientUnits="userSpaceOnUse"><stop offset="0" stop-color="#1c2645" stop-opacity="0.5"/><stop offset="1" stop-color="#1c2645" stop-opacity="0"/></linearGradient><linearGradient id="Degradado_sin_nombre_15" x1="415" y1="-3327.68" x2="238.68" y2="-3327.68" gradientTransform="matrix(1, 0, 0, -1, 0, -3014)" gradientUnits="userSpaceOnUse"><stop offset="0" stop-color="#028484" stop-opacity="0.6"/><stop offset="1" stop-color="#028484" stop-opacity="0"/></linearGradient><linearGradient id="Degradado_sin_nombre_44" x1="430" y1="-3185.75" x2="254.93" y2="-3185.75" gradientTransform="matrix(1, 0, 0, -1, 0, -3014)" gradientUnits="userSpaceOnUse"><stop offset="0" stop-color="#072146" stop-opacity="0.8"/><stop offset="1" stop-color="#072146" stop-opacity="0.2"/></linearGradient><linearGradient id="Degradado_sin_nombre_13" x1="282.05" y1="-3118.61" x2="305.49" y2="-3142.05" gradientTransform="matrix(1, 0, 0, -1, 0, -3014)" gradientUnits="userSpaceOnUse"><stop offset="0" stop-color="#fff" stop-opacity="0.6"/><stop offset="1" stop-color="#fff" stop-opacity="0.2"/></linearGradient><linearGradient id="Degradado_sin_nombre_12" x1="343.53" y1="-3343.85" x2="264.45" y2="-3343.85" gradientTransform="matrix(1, 0, 0, -1, 0, -3014)" gradientUnits="userSpaceOnUse"><stop offset="0" stop-color="#043263" stop-opacity="0.5"/><stop offset="1" stop-color="#043263" stop-opacity="0.1"/></linearGradient></defs><title>1</title><g id="Cuadrados_Blancos" data-name="Cuadrados Blancos"><rect class="cls-1" width="600" height="600"/></g><g id="Capa_14" data-name="Capa 14"><path class="cls-2" d="M545,293.85H465V259.49h5c.33,0,.67,0,1-.05a10,10,0,0,0,6.69-3.59,8.61,8.61,0,0,0,.58-.77,10,10,0,0,0,1.71-5.59V227.1h0a42.36,42.36,0,0,0-42.38-42.4H408l9.63-9a1.63,1.63,0,0,0-1.11-2.82H384.9a2.39,2.39,0,0,0-.7-1.69l-21.74-21.74L351.69,138.7h0a2.23,2.23,0,0,0-.65-.45l-.27-.11A2.28,2.28,0,0,0,350,138h0a2.39,2.39,0,0,0-1.69.7L315.8,171.2a2.39,2.39,0,0,0-.7,1.69H283.47a1.63,1.63,0,0,0-1.63,1.63,1.67,1.67,0,0,0,.52,1.19l9.63,9H262.4A42.41,42.41,0,0,0,220,227.1v22.39a10,10,0,0,0,10,10h5v34.36H155a3,3,0,0,0-3,3v21a23,23,0,0,0,23,23h1v24a23,23,0,0,0,23,23h1v24a23,23,0,0,0,23,23h12v34.5H223a3,3,0,0,0-3,3h0a17,17,0,0,0,17,17h24.82V523H257a17,17,0,0,0-17,17,3,3,0,0,0,3,3H457a3,3,0,0,0,3-3,17,17,0,0,0-17-17h-4.82V489.35H463a17,17,0,0,0,17-17h0a3,3,0,0,0-3-3H465v-34.5h12a23,23,0,0,0,23-23v-24h1a23,23,0,0,0,23-23h0v-24h1a23,23,0,0,0,23-23v-21A3,3,0,0,0,545,293.85Z"/><path class="cls-3" d="M126,290.5H230v47H149a23,23,0,0,1-23-23h0v-24Z"/><path class="cls-4" d="M150,337.5H250v47H173a23,23,0,0,1-23-23h0v-24Z"/><path class="cls-5" d="M105,243.5h85v47H125a23,23,0,0,1-23-23v-21A3,3,0,0,1,105,243.5Z"/><path class="cls-3" d="M451,337.5H370v-47H474v24A23,23,0,0,1,451,337.5Z"/><path class="cls-4" d="M427,384.5H350v-47H450v24A23,23,0,0,1,427,384.5Z"/><path class="cls-5" d="M475,290.5H410v-47h85a3,3,0,0,1,3,3v21a23,23,0,0,1-23,23Z"/><rect class="cls-6" x="185" y="198.35" width="230" height="230.65"/><polygon class="cls-7" points="415 198.35 361.32 198.35 238.68 429 415 429 415 198.35"/><rect class="cls-8" x="211.82" y="429" width="176.36" height="53.68"/><path class="cls-5" d="M413,439H187a17,17,0,0,1-17-17h0a3,3,0,0,1,3-3H427a3,3,0,0,1,3,3h0A17,17,0,0,1,413,439Z"/><path class="cls-5" d="M207,472.66H393a17,17,0,0,1,17,17h0a3,3,0,0,1-3,3H193a3,3,0,0,1-3-3h0a17,17,0,0,1,17-17Z"/><path class="cls-4" d="M219,243.5h70v30H239a20,20,0,0,1-20-20v-10Z"/><path class="cls-4" d="M361,273.5H311v-30h70v10A20,20,0,0,1,361,273.5Z"/><path class="cls-9" d="M320.54,386.46H279.46a23,23,0,0,1-22.31-28.58l30.43-121.72a12.81,12.81,0,0,1,12.43-9.7h0a12.81,12.81,0,0,1,12.43,9.7l30.43,121.72a23,23,0,0,1-22.33,28.58Z"/><path class="cls-5" d="M212.4,134.35H387.6a42.4,42.4,0,0,1,42.4,42.4v22.39a10,10,0,0,1-10,10H180a10,10,0,0,1-10-10V176.75A42.4,42.4,0,0,1,212.4,134.35Z"/><path class="cls-10" d="M387.6,134.35H294.7l-39.77,74.79H420a10,10,0,0,0,10-10V176.75A42.4,42.4,0,0,0,387.6,134.35Z"/><path class="cls-3" d="M358.71,122.55H233.47a1.63,1.63,0,0,0-1.11,2.82l66.53,62a1.63,1.63,0,0,0,2.22,0l66.53-62a1.63,1.63,0,0,0-1.11-2.82Z"/><rect class="cls-11" x="274.62" y="97.17" width="50.76" height="50.76" rx="2.39" transform="translate(1.21 248.02) rotate(-45)"/><path class="cls-12" d="M301.69,88.35a2.4,2.4,0,0,0-3.38,0h0L265.8,120.86a2.4,2.4,0,0,0,0,3.38h0L287.54,146l24.92-46.87Z"/><path class="cls-13" d="M321.69,273.24,264.45,380.89a22.76,22.76,0,0,0,15,5.57h41.08a23,23,0,0,0,22.31-28.58Z"/></g></svg>