<svg xmlns="http://www.w3.org/2000/svg" xmlns:xlink="http://www.w3.org/1999/xlink" viewBox="0 0 600 600"><defs><style>.cls-1{fill:none;}.cls-2{fill:url(#Degradado_sin_nombre_3);}.cls-3{fill:#d4edfc;}.cls-4{fill:url(#Degradado_sin_nombre_2);}.cls-5,.cls-6,.cls-7{opacity:0.8;isolation:isolate;}.cls-5{fill:url(#Degradado_sin_nombre_5);}.cls-6{fill:url(#Degradado_sin_nombre_5-2);}.cls-7{fill:url(#Degradado_sin_nombre_5-3);}.cls-8{fill:#043263;}.cls-9{fill:url(#Degradado_sin_nombre_21);}</style><linearGradient id="Degradado_sin_nombre_3" x1="266.31" y1="-1522.75" x2="430.13" y2="-1830.86" gradientTransform="matrix(1, 0, 0, -1, 0, -1346)" gradientUnits="userSpaceOnUse"><stop offset="0" stop-color="#1a2746" stop-opacity="0.5"/><stop offset="1" stop-color="#1a2746" stop-opacity="0"/></linearGradient><linearGradient id="Degradado_sin_nombre_2" x1="463.1" y1="-1641.87" x2="211.21" y2="-1641.87" gradientTransform="matrix(1, 0, 0, -1, 0, -1346)" gradientUnits="userSpaceOnUse"><stop offset="0" stop-color="#043263" stop-opacity="0.1"/><stop offset="1" stop-color="#043263" stop-opacity="0"/></linearGradient><linearGradient id="Degradado_sin_nombre_5" x1="421.52" y1="-1574.36" x2="246.02" y2="-1778" gradientTransform="matrix(1, 0, 0, -1, 0, -1346)" gradientUnits="userSpaceOnUse"><stop offset="0" stop-color="#49a5e6" stop-opacity="0.6"/><stop offset="1" stop-color="#49a5e6" stop-opacity="0"/></linearGradient><linearGradient id="Degradado_sin_nombre_5-2" x1="356.53" y1="-1601.76" x2="202.72" y2="-1780.23" xlink:href="#Degradado_sin_nombre_5"/><linearGradient id="Degradado_sin_nombre_5-3" x1="456.53" y1="-1601.76" x2="302.72" y2="-1780.23" xlink:href="#Degradado_sin_nombre_5"/><linearGradient id="Degradado_sin_nombre_21" x1="405.64" y1="-1768.96" x2="289.06" y2="-1768.96" gradientTransform="matrix(1, 0, 0, -1, 0, -1346)" gradientUnits="userSpaceOnUse"><stop offset="0" stop-color="#072146" stop-opacity="0.8"/><stop offset="1" stop-color="#072146" stop-opacity="0.1"/></linearGradient></defs><title>14</title><g id="Cuadrados_Blancos" data-name="Cuadrados Blancos"><rect class="cls-1" width="600" height="600"/></g><g id="Capa_1" data-name="Capa 1"><path class="cls-2" d="M499.61,264a63.1,63.1,0,0,0-86-58.81,85.46,85.46,0,0,0-77.12-48.64h0c-1.28,0-2.55,0-3.81.1a7,7,0,0,0-1.12.06c-.94,0-1.87.12-2.8.2l-1.1.1c-1.24.13-2.47.28-3.7.46h-.14c-1.18.18-2.35.38-3.52.61l-1.09.22c-.89.18-1.78.38-2.65.59l-1.06.25c-1.18.3-2.35.61-3.51,1l-.28.09c-1.07.32-2.13.67-3.18,1l-1.06.38c-.83.29-1.65.61-2.47.93l-1,.4c-1.1.46-2.19.92-3.26,1.42l-.41.19c-.95.45-1.89.91-2.82,1.39l-1,.54c-.76.4-1.51.82-2.25,1.24l-1,.55q-1.5.89-3,1.83l-.49.33c-.83.54-1.65,1.1-2.46,1.67l-1,.7c-.67.49-1.34,1-2,1.5l-.89.69c-.91.72-1.8,1.45-2.67,2.2l-.53.46c-.71.63-1.42,1.27-2.11,1.92l-.89.84c-.6.58-1.18,1.16-1.76,1.75l-.8.81c-.79.83-1.57,1.67-2.33,2.54l-.5.58c-.6.7-1.2,1.42-1.79,2.14l-.77,1c-.51.66-1,1.32-1.51,2-.22.3-.45.59-.66.89-.67.94-1.33,1.89-2,2.85-.14.22-.27.44-.42.66-.5.78-1,1.58-1.48,2.38-.21.34-.41.69-.62,1-.43.74-.85,1.49-1.26,2.24-.17.31-.34.62-.5.93A84.8,84.8,0,0,0,251.23,237a5,5,0,1,1-10-.56h0a94.69,94.69,0,0,1,8.49-34.08A63.09,63.09,0,1,0,236.5,327.14V451.56c-1.07.2-2.14.39-3.21.6a3,3,0,0,0-2.42,2.95v21.55a3,3,0,0,0,3,3H439.15a3,3,0,0,0,3-3V455.11a3,3,0,0,0-2.42-2.95c-1.07-.21-2.14-.4-3.22-.6V327.09A63.1,63.1,0,0,0,499.61,264Z"/><path class="cls-3" d="M400,162.9a63,63,0,0,0-22.87,4.29A85.47,85.47,0,0,0,300,118.55h0c-1.28,0-2.55,0-3.82.1l-1.12.06c-.93.05-1.87.12-2.79.2l-1.1.1c-1.24.13-2.48.28-3.71.46h-.14c-1.18.18-2.35.38-3.52.61l-1.09.22c-.89.18-1.77.38-2.65.59l-1.05.25c-1.18.3-2.35.61-3.51,1l-.28.09c-1.07.32-2.13.67-3.18,1l-1.07.38c-.82.29-1.65.61-2.46.93l-1,.4c-1.1.46-2.19.92-3.27,1.42l-.4.19c-.95.45-1.89.91-2.82,1.39l-1,.54c-.76.4-1.5.82-2.25,1.24l-1,.55q-1.5.89-3,1.83l-.49.33c-.83.54-1.65,1.1-2.46,1.67l-1,.7c-.68.49-1.34,1-2,1.5l-.9.69c-.9.72-1.8,1.45-2.67,2.2l-.52.46c-.72.63-1.42,1.27-2.12,1.92l-.89.84c-.59.58-1.18,1.16-1.75,1.75l-.8.81c-.79.83-1.57,1.67-2.33,2.54l-.5.58c-.61.7-1.21,1.42-1.8,2.14l-.76,1c-.51.66-1,1.32-1.51,2l-.67.89c-.67.94-1.33,1.89-2,2.85l-.42.66c-.51.78-1,1.58-1.49,2.38-.21.34-.41.69-.61,1-.43.74-.85,1.49-1.27,2.24-.16.31-.33.62-.5.93a85,85,0,0,0-9.6,34.82,5,5,0,1,1-10-.56h0a95.11,95.11,0,0,1,8.49-34.08A63.09,63.09,0,1,0,200,289.09V430.67a11,11,0,0,0,11,11H389a11,11,0,0,0,11-11V289.09a63.1,63.1,0,1,0,1.59-126.19Q400.8,162.89,400,162.9Z"/><path class="cls-4" d="M400,162.9a63,63,0,0,0-22.87,4.29,85.94,85.94,0,0,0-10.87-17.12l-155,291.6H389a11,11,0,0,0,11-11h0V289.09a63.1,63.1,0,1,0,1.59-126.19Q400.8,162.89,400,162.9Z"/><path class="cls-5" d="M300,291.22h0a10,10,0,0,1,10,10v140H290v-140A10,10,0,0,1,300,291.22Z"/><path class="cls-6" d="M250,311.22h0a10,10,0,0,1,10,10v120H240v-120A10,10,0,0,1,250,311.22Z"/><path class="cls-7" d="M350,311.22h0a10,10,0,0,1,10,10v120H340v-120A10,10,0,0,1,350,311.22Z"/><path class="cls-8" d="M403.21,414.16a538.54,538.54,0,0,0-206.42,0,3,3,0,0,0-2.43,2.95v21.55a3,3,0,0,0,3,3H402.64a3,3,0,0,0,3-3V417.11A3,3,0,0,0,403.21,414.16Z"/><path class="cls-9" d="M405.64,417.11a3,3,0,0,0-2.43-2.95,539.56,539.56,0,0,0-94.26-9.9l-19.89,37.41H402.64a3,3,0,0,0,3-3Z"/></g></svg>