<?xml version="1.0" encoding="utf-8"?>
<!-- Generator: Adobe Illustrator 23.0.1, SVG Export Plug-In . SVG Version: 6.00 Build 0)  -->
<svg version="1.1" id="Contenido" xmlns="http://www.w3.org/2000/svg" xmlns:xlink="http://www.w3.org/1999/xlink" x="0px" y="0px"
	 viewBox="0 0 600 600" style="enable-background:new 0 0 600 600;" xml:space="preserve">
<style type="text/css">
	.st0{fill:url(#SVGID_1_);}
	.st1{fill:#1464A5;}
	.st2{fill:#043263;}
	.st3{fill:#004481;}
	.st4{fill:#2DCCCD;}
	.st5{fill:#49A5E6;}
	.st6{opacity:0.5;fill:url(#SVGID_2_);enable-background:new    ;}
	.st7{opacity:0.5;fill:url(#SVGID_3_);enable-background:new    ;}
	.st8{opacity:0.5;fill:url(#SVGID_4_);enable-background:new    ;}
	.st9{opacity:0.5;fill:url(#SVGID_5_);enable-background:new    ;}
	.st10{fill:#EAF9FA;}
	.st11{opacity:0.5;fill:url(#SVGID_6_);enable-background:new    ;}
</style>
<title>_</title>
<linearGradient id="SVGID_1_" gradientUnits="userSpaceOnUse" x1="242.312" y1="437.8986" x2="454.3385" y2="39.1452" gradientTransform="matrix(1 0 0 -1 0 602)">
	<stop  offset="0" style="stop-color:#192647"/>
	<stop  offset="0" style="stop-color:#192647;stop-opacity:0.5"/>
	<stop  offset="1" style="stop-color:#192647;stop-opacity:0"/>
</linearGradient>
<path class="st0" d="M491.5,210.5c1.7,0,3-1.3,3-3v-10c0-12.7-10.3-23-23-23l0,0H425v-13.1c0-1.6-1.3-2.9-2.9-2.9l0,0H277.9
	c-1.6,0-2.9,1.3-2.9,2.9l0,0v13.1h-46.5c-12.7,0-23,10.3-23,23l0,0v10c0,1.7,1.3,3,3,3h9v311h-4c-4.4,0-8,3.6-8,8v12h289v-12
	c0-4.4-3.6-8-8-8h-4v-311H491.5z"/>
<rect x="167.5" y="160.5" class="st1" width="265" height="311"/>
<path class="st2" d="M178.5,124.5h243c12.7,0,23,10.3,23,23l0,0v10c0,1.7-1.3,3-3,3h-283c-1.7,0-3-1.3-3-3v-10
	C155.5,134.8,165.8,124.5,178.5,124.5L178.5,124.5z"/>
<path class="st3" d="M227.9,108.5h144.2c1.6,0,2.9,1.3,2.9,2.9v0v13.1l0,0H225l0,0v-13.1C225,109.8,226.3,108.5,227.9,108.5
	L227.9,108.5z"/>
<path class="st4" d="M163.5,471.5h273c4.4,0,8,3.6,8,8v12l0,0h-289l0,0v-12C155.5,475.1,159.1,471.5,163.5,471.5z"/>
<path class="st5" d="M193,182.5h214c1.7,0,3,1.3,3,3v44c0,1.7-1.3,3-3,3H193c-1.7,0-3-1.3-3-3v-44C190,183.8,191.3,182.5,193,182.5z
	"/>
<linearGradient id="SVGID_2_" gradientUnits="userSpaceOnUse" x1="223.1361" y1="450.882" x2="322.0999" y2="351.9281" gradientTransform="matrix(1 0 0 -1 0 602)">
	<stop  offset="0" style="stop-color:#FFFFFF;stop-opacity:0.5"/>
	<stop  offset="1" style="stop-color:#E8F7F8;stop-opacity:0.2"/>
	<stop  offset="1" style="stop-color:#FFFFFF;stop-opacity:0"/>
</linearGradient>
<path class="st6" d="M190,185.5v44c0,1.7,1.3,3,3,3h146.7l27.6-50H193C191.3,182.5,190,183.8,190,185.5z"/>
<path class="st5" d="M193,254.5h214c1.7,0,3,1.3,3,3v44c0,1.7-1.3,3-3,3H193c-1.7,0-3-1.3-3-3v-44C190,255.8,191.3,254.5,193,254.5z
	"/>
<linearGradient id="SVGID_3_" gradientUnits="userSpaceOnUse" x1="213.1955" y1="368.9382" x2="292.3168" y2="289.8168" gradientTransform="matrix(1 0 0 -1 0 602)">
	<stop  offset="0" style="stop-color:#FFFFFF;stop-opacity:0.5"/>
	<stop  offset="1" style="stop-color:#E8F7F8;stop-opacity:0.2"/>
	<stop  offset="1" style="stop-color:#FFFFFF;stop-opacity:0"/>
</linearGradient>
<path class="st7" d="M190,257.5v44c0,1.7,1.3,3,3,3h107l27.5-50H193C191.3,254.5,190,255.8,190,257.5z"/>
<path class="st5" d="M193,326.5h214c1.7,0,3,1.3,3,3v44c0,1.7-1.3,3-3,3H193c-1.7,0-3-1.3-3-3v-44C190,327.8,191.3,326.5,193,326.5z
	"/>
<linearGradient id="SVGID_4_" gradientUnits="userSpaceOnUse" x1="203.2955" y1="287.0382" x2="262.4668" y2="227.8668" gradientTransform="matrix(1 0 0 -1 0 602)">
	<stop  offset="0" style="stop-color:#FFFFFF;stop-opacity:0.5"/>
	<stop  offset="1" style="stop-color:#E8F7F8;stop-opacity:0.2"/>
	<stop  offset="1" style="stop-color:#FFFFFF;stop-opacity:0"/>
</linearGradient>
<path class="st8" d="M190,329.5v44c0,1.7,1.3,3,3,3h67.1l27.8-50H193C191.3,326.5,190,327.8,190,329.5z"/>
<path class="st5" d="M361,398.5h46c1.7,0,3,1.3,3,3v70l0,0h-52l0,0v-70C358,399.8,359.3,398.5,361,398.5z"/>
<linearGradient id="SVGID_5_" gradientUnits="userSpaceOnUse" x1="352.1287" y1="195.8713" x2="390.525" y2="157.475" gradientTransform="matrix(1 0 0 -1 0 602)">
	<stop  offset="0" style="stop-color:#FFFFFF;stop-opacity:0.5"/>
	<stop  offset="1" style="stop-color:#E8F7F8;stop-opacity:0.2"/>
	<stop  offset="1" style="stop-color:#FFFFFF;stop-opacity:0"/>
</linearGradient>
<path class="st9" d="M361,398.5c-1.7,0-3,1.3-3,3v70h5.5l40.5-73H361z"/>
<rect x="382" y="398.5" class="st1" width="4" height="73"/>
<g>
	<path class="st10" d="M374,441.5c-1.1,0-2-0.9-2-2v-6c0-1.1,0.9-2,2-2s2,0.9,2,2v6C376,440.6,375.1,441.5,374,441.5z"/>
</g>
<g>
	<path class="st10" d="M394,441.5c-1.1,0-2-0.9-2-2v-6c0-1.1,0.9-2,2-2s2,0.9,2,2v6C396,440.6,395.1,441.5,394,441.5z"/>
</g>
<path class="st5" d="M193,398.5h139.3c1.7,0,3,1.3,3,3v44c0,1.7-1.3,3-3,3H193c-1.7,0-3-1.3-3-3v-44
	C190,399.8,191.3,398.5,193,398.5z"/>
<linearGradient id="SVGID_6_" gradientUnits="userSpaceOnUse" x1="193.303" y1="205.0457" x2="232.5543" y2="165.7943" gradientTransform="matrix(1 0 0 -1 0 602)">
	<stop  offset="0" style="stop-color:#FFFFFF;stop-opacity:0.5"/>
	<stop  offset="1" style="stop-color:#E8F7F8;stop-opacity:0.2"/>
	<stop  offset="1" style="stop-color:#FFFFFF;stop-opacity:0"/>
</linearGradient>
<path class="st11" d="M190,401.5v44c0,1.7,1.3,3,3,3h27.3l27.7-50H193C191.3,398.5,190,399.8,190,401.5z"/>
</svg>
