<svg xmlns="http://www.w3.org/2000/svg" xmlns:xlink="http://www.w3.org/1999/xlink" viewBox="0 0 600 600"><defs><style>.cls-1{fill:none;}.cls-2{fill:url(#Degradado_sin_nombre_221);}.cls-3{fill:#004481;}.cls-4{fill:url(#Degradado_sin_nombre_460);}.cls-5{fill:#072146;}.cls-6{fill:#fff;}.cls-7{fill:#da3951;}</style><linearGradient id="Degradado_sin_nombre_221" x1="239.43" y1="152.33" x2="428.89" y2="508.64" gradientUnits="userSpaceOnUse"><stop offset="0" stop-color="#192647" stop-opacity="0.5"/><stop offset="1" stop-color="#192647" stop-opacity="0"/></linearGradient><linearGradient id="Degradado_sin_nombre_460" x1="480" y1="-4434" x2="241.36" y2="-4434" gradientTransform="matrix(1, 0, 0, -1, 0, -4134)" gradientUnits="userSpaceOnUse"><stop offset="0" stop-color="#072146"/><stop offset="1" stop-color="#072146" stop-opacity="0"/></linearGradient></defs><title>13</title><g id="Cuadrados_Blancos" data-name="Cuadrados Blancos"><rect class="cls-1" width="600" height="600"/></g><g id="Capa_24" data-name="Capa 24"><path class="cls-2" d="M518.33,356.27V252.83a23,23,0,0,0-23-23h-314a23,23,0,0,0-23,23v171a23,23,0,0,0,23,23h243.8a65,65,0,1,0,93.2-90.56Z"/><rect class="cls-3" x="120" y="191.5" width="360" height="217" rx="23"/><path class="cls-4" d="M457,408.5a23,23,0,0,0,23-23v-171a23,23,0,0,0-23-23H356.77l-115.41,217Z"/><rect class="cls-5" x="120" y="222.37" width="360" height="35.28"/><rect class="cls-6" x="172.94" y="325.58" width="254.12" height="31.76" rx="3"/><g id="Group-3"><path class="cls-7" d="M499,364a64.85,64.85,0,1,1-64.79-64.91h0A64.74,64.74,0,0,1,499,364"/><path class="cls-6" d="M457.87,380l-16.2-16.2L458,347.46a5.35,5.35,0,0,0,0-7.7,5.45,5.45,0,0,0-7.7,0L434,356.07l-16.32-16.31a5.44,5.44,0,0,0-7.69,7.7l16.31,16.31L410,380a5.25,5.25,0,0,0-1.38,5.28,5.59,5.59,0,0,0,3.91,3.91,5.27,5.27,0,0,0,5.28-1.38L434,371.47l16.31,16.31a5.41,5.41,0,0,0,7.58-.11,5.55,5.55,0,0,0,0-7.7Z"/></g></g></svg>