<svg xmlns="http://www.w3.org/2000/svg" xmlns:xlink="http://www.w3.org/1999/xlink" viewBox="0 0 600 600"><defs><style>.cls-1{fill:none;}.cls-2{fill:url(#Degradado_sin_nombre_102);}.cls-3{fill:#004481;}.cls-4{fill:url(#Degradado_sin_nombre_459);}.cls-5{fill:#072146;}.cls-6{fill:#fff;}.cls-7{fill:#f8cd51;}.cls-8{fill:url(#Degradado_sin_nombre_3);}.cls-9{fill:#fef5dc;}</style><linearGradient id="Degradado_sin_nombre_102" x1="239.43" y1="152.33" x2="428.89" y2="508.64" gradientUnits="userSpaceOnUse"><stop offset="0" stop-color="#192647" stop-opacity="0.5"/><stop offset="1" stop-color="#192647" stop-opacity="0"/></linearGradient><linearGradient id="Degradado_sin_nombre_459" x1="480" y1="-4434" x2="241.36" y2="-4434" gradientTransform="matrix(1, 0, 0, -1, 0, -4134)" gradientUnits="userSpaceOnUse"><stop offset="0" stop-color="#072146"/><stop offset="1" stop-color="#072146" stop-opacity="0"/></linearGradient><linearGradient id="Degradado_sin_nombre_3" x1="380.31" y1="-166.62" x2="434.14" y2="-138.01" gradientTransform="translate(0 502)" gradientUnits="userSpaceOnUse"><stop offset="0" stop-color="#fade8e"/><stop offset="1" stop-color="#fade8e" stop-opacity="0.4"/></linearGradient></defs><title>13</title><g id="Cuadrados_Blancos" data-name="Cuadrados Blancos"><rect class="cls-1" width="600" height="600"/></g><g id="Capa_25" data-name="Capa 25"><path class="cls-2" d="M518.33,356.27V252.83a23,23,0,0,0-23-23h-314a23,23,0,0,0-23,23v171a23,23,0,0,0,23,23h243.8a65,65,0,1,0,93.2-90.56Z"/><rect class="cls-3" x="120" y="191.5" width="360" height="217" rx="23"/><path class="cls-4" d="M457,408.5a23,23,0,0,0,23-23v-171a23,23,0,0,0-23-23H356.77l-115.41,217Z"/><rect class="cls-5" x="120" y="222.37" width="360" height="35.28"/><rect class="cls-6" x="172.94" y="325.58" width="254.12" height="31.76" rx="3"/><path class="cls-7" d="M499.15,364a65,65,0,1,1-65-64.95h0a65,65,0,0,1,65,64.95"/><path class="cls-8" d="M464.74,306.71a64.94,64.94,0,1,0-61,114.68Z"/><path class="cls-9" d="M411.42,361.61h-8.85V355h9.65c2.68-15,12-21.88,22.87-21.88,11.44,0,17.51,5.86,20.49,13.23l-8.45,4.77c-2.09-6.27-5.77-9.25-12-9.25-6.66,0-11.43,4.28-13.12,13.13h15v6.66H421.27v2.09c0,1.2,0,2.39.1,3.48h15.71V374H422.16c1.7,8.25,5.87,12.53,13.13,12.53,6.27,0,10-2.79,12.34-9.75l8.25,5C452.5,389.46,445.54,395,435.19,395,424,395,415.1,388.37,412.32,374h-9.75v-6.77h8.95c-.1-1.09-.1-2.19-.1-3.28v-2.29Z"/></g></svg>