<?xml version="1.0" encoding="utf-8"?>
<!-- Generator: Adobe Illustrator 23.0.1, SVG Export Plug-In . SVG Version: 6.00 Build 0)  -->
<svg version="1.1" id="Capa_1" xmlns="http://www.w3.org/2000/svg" xmlns:xlink="http://www.w3.org/1999/xlink" x="0px" y="0px"
	 viewBox="0 0 600 600" style="enable-background:new 0 0 600 600;" xml:space="preserve">
<style type="text/css">
	.st0{fill:url(#SVGID_1_);}
	.st1{fill:#FFCC28;}
	.st2{fill:url(#SVGID_2_);}
	.st3{fill:#CDEEFE;}
	.st4{fill:#003267;}
	.st5{fill:#00A7EC;}
	.st6{fill:url(#SVGID_3_);}
</style>
<title>emoticonos-feedback</title>
<linearGradient id="SVGID_1_" gradientUnits="userSpaceOnUse" x1="266.2361" y1="425.8979" x2="427.7639" y2="122.1021" gradientTransform="matrix(1 0 0 -1 0 600)">
	<stop  offset="0" style="stop-color:#142649;stop-opacity:0.5"/>
	<stop  offset="1" style="stop-color:#142649;stop-opacity:0"/>
</linearGradient>
<path class="st0" d="M519,325.9c0.1,95-76.9,172-171.9,172.1s-172-76.9-172.1-171.9c-0.1-95,76.9-172,171.9-172.1
	C441.9,153.9,518.9,230.9,519,325.9C519,325.9,519,325.9,519,325.9"/>
<path class="st1" d="M469.1,276.2c0,95.1-77.1,172-171.9,172s-172.1-77.2-172.1-172s77.1-172,171.9-172l0,0
	C391.9,104.2,469.1,181.1,469.1,276.2"/>
<linearGradient id="SVGID_2_" gradientUnits="userSpaceOnUse" x1="145.2386" y1="404.5777" x2="298.2625" y2="323.2209" gradientTransform="matrix(1 0 0 -1 0 600)">
	<stop  offset="0" style="stop-color:#FFFFFF;stop-opacity:0.6"/>
	<stop  offset="1" style="stop-color:#FFFFFF;stop-opacity:0.2"/>
</linearGradient>
<path class="st2" d="M296.9,104.2c-94.8,0-171.9,77.2-171.9,172c0,66.1,37.6,123.6,92.5,152.4l160.5-304.1
	C353.1,111.1,325.2,104.2,296.9,104.2z"/>
<path class="st3" d="M253.3,243.8c28.9,5.5,58.6,5.5,87.6,0C313.8,227.9,280.3,227.9,253.3,243.8L253.3,243.8z"/>
<path class="st4" d="M250.3,192.8c7.9-0.1,15.7,2,22.5,6c1.4,0.9,3.3,0.5,4.1-0.9c0.4-0.7,0.6-1.5,0.4-2.3
	c-4-14.9-19.3-23.8-34.2-19.8c-9.7,2.6-17.2,10.1-19.8,19.8c-0.4,1.6,0.6,3.2,2.2,3.6c0.8,0.2,1.6,0.1,2.3-0.4
	C234.6,194.8,242.4,192.7,250.3,192.8z"/>
<path class="st4" d="M343.9,192.8c7.9-0.1,15.7,2,22.5,6c1.4,0.9,3.3,0.5,4.1-0.9c0.4-0.7,0.6-1.5,0.4-2.3
	c-4-14.9-19.3-23.8-34.2-19.8c-9.7,2.6-17.2,10.1-19.8,19.8c-0.4,1.6,0.6,3.2,2.2,3.6c0.8,0.2,1.6,0.1,2.3-0.4
	C328.2,194.8,335.9,192.7,343.9,192.8z"/>
<path class="st4" d="M340.5,243.8c-28.8,5.4-58.2,5.4-87,0c-27.6,16-46.2,46.8-46.2,82.2v0.3c0,12.8,13,21.3,24.9,16.7
	c41.9-15.4,87.8-15.4,129.7,0c11.9,4.6,24.8-4,24.9-16.7v-0.3C386.8,290.7,368.1,259.9,340.5,243.8z"/>
<path class="st5" d="M393,245.7L393,245.7l-19.3-42.4c-0.7-1.6-2.6-2.2-4.1-1.5c-0.7,0.3-1.2,0.8-1.5,1.5l-19.3,42.4l0,0
	c-2,4-3,8.4-2.7,12.9c0.9,13.7,12.7,24,26.4,23.1c13.7-0.9,24-12.7,23.1-26.4C395.4,252,394.5,248.7,393,245.7z"/>
<linearGradient id="SVGID_3_" gradientUnits="userSpaceOnUse" x1="395.75" y1="346.568" x2="356.2" y2="346.568" gradientTransform="matrix(1 0 0 -1 0 600)">
	<stop  offset="0" style="stop-color:#003267;stop-opacity:0.4"/>
	<stop  offset="1" style="stop-color:#003267;stop-opacity:0"/>
</linearGradient>
<path class="st6" d="M393,245.7l-9.4-20.6l-27.5,51.7c11,8.1,26.5,5.8,34.6-5.2C396.4,264.1,397.2,254.1,393,245.7L393,245.7z"/>
</svg>
