<svg xmlns="http://www.w3.org/2000/svg" xmlns:xlink="http://www.w3.org/1999/xlink" viewBox="0 0 600 600"><defs><style>.cls-1{fill:none;}.cls-2{fill:url(#Degradado_sin_nombre_109);}.cls-3{fill:#4ea5e2;}.cls-4{fill-rule:evenodd;opacity:0.5;isolation:isolate;fill:url(#Degradado_sin_nombre_457);}.cls-5{fill:#d4ecfa;}.cls-6{fill:#07467f;}.cls-7{fill:#004481;}.cls-8{fill:url(#Degradado_sin_nombre_458);}.cls-9{fill:#072146;}.cls-10{fill:#d4edfc;}</style><linearGradient id="Degradado_sin_nombre_109" x1="248.05" y1="-4315.79" x2="440.45" y2="-4677.64" gradientTransform="matrix(1, 0, 0, -1, 0, -4134)" gradientUnits="userSpaceOnUse"><stop offset="0" stop-color="#192647" stop-opacity="0.5"/><stop offset="1" stop-color="#192647" stop-opacity="0"/></linearGradient><linearGradient id="Degradado_sin_nombre_457" x1="193.08" y1="-11121.59" x2="335.28" y2="-10979.38" gradientTransform="translate(0 11326.41)" gradientUnits="userSpaceOnUse"><stop offset="0" stop-color="#e9f8f9" stop-opacity="0.5"/><stop offset="1" stop-color="#e9f8f9" stop-opacity="0"/></linearGradient><linearGradient id="Degradado_sin_nombre_458" x1="538" y1="-4496.62" x2="392.76" y2="-4496.62" gradientTransform="matrix(1, 0, 0, -1, 0, -4134)" gradientUnits="userSpaceOnUse"><stop offset="0" stop-color="#072146"/><stop offset="1" stop-color="#072146" stop-opacity="0"/></linearGradient></defs><title>13</title><g id="Cuadrados_Blancos" data-name="Cuadrados Blancos"><rect class="cls-1" width="600" height="600"/></g><g id="Capa_26" data-name="Capa 26"><g id="Contenido"><path class="cls-2" d="M555.74,349.47H496V235.32a10.11,10.11,0,0,0-10.08-10.08H168.39a8.13,8.13,0,0,0-8.16,8.1V234a10.24,10.24,0,0,0-.1,1.36V437.48a10,10,0,0,0,.1,1.34v.47a8,8,0,0,0,7.73,8.27h181v20.81a12.31,12.31,0,0,0,12.31,12.31H555.74a12.26,12.26,0,0,0,12.31-12.21h0V361.69A12.28,12.28,0,0,0,555.74,349.47Z"/><path class="cls-3" d="M140.16,172.8H455.85a10.1,10.1,0,0,1,10.08,10.08V385a10.12,10.12,0,0,1-10.08,10.09H140.16A10.12,10.12,0,0,1,130.08,385V182.88A10,10,0,0,1,140,172.8Z"/><path class="cls-4" d="M138.25,395.12H300.48L409.57,172.8H138.35a8.13,8.13,0,0,0-8.17,8.09V181h0V386.85a8,8,0,0,0,7.73,8.27Z"/><rect class="cls-5" x="160.13" y="281.59" width="125.53" height="29.54"/><rect class="cls-5" x="160.13" y="331.39" width="274.05" height="29.54"/><path class="cls-6" d="M268.51,207.58l-12.09,23a.78.78,0,0,1-1,.3l-.3-.3-12.1-23a.83.83,0,0,0-.61-.4h-5.85a.47.47,0,0,0-.5.44v.06c0,.1,0,.2.1.2l19.06,35.59a.68.68,0,0,0,.9.31l.31-.31,19.05-35.59a.56.56,0,0,0-.2-.7c-.1,0-.2-.1-.3-.1h-5.85a1,1,0,0,0-.61.5"/><path class="cls-6" d="M275.37,238.33l12.1-23a.78.78,0,0,1,1-.3l.3.3,12.1,23a.83.83,0,0,0,.61.41h5.84a.48.48,0,0,0,.51-.45v-.06c0-.1,0-.2-.1-.2l-19.06-35.59a.69.69,0,0,0-.91-.3l-.3.3-19,35.49a.57.57,0,0,0,.21.7c.1,0,.1.11.2.11h5.85a1,1,0,0,0,.6-.41"/><path class="cls-6" d="M185,238.63H174.14a.67.67,0,0,1-.7-.66v0h0v-9.78a.69.69,0,0,1,.67-.71H185c5.14,0,7.46,1.52,7.46,5.55s-2.22,5.64-7.46,5.64m-10.89-26.11H184.8c3.93,0,5.95,1.71,5.95,4.84s-2,4.84-5.95,4.84H174.14a.69.69,0,0,1-.7-.68v0h0v-8.26a.69.69,0,0,1,.67-.71h0m18.65,11.7a8.09,8.09,0,0,0,4.14-7.36c0-5.75-4.44-9.58-10.79-9.58H168a.67.67,0,0,0-.7.66v0h0v35.39a.69.69,0,0,0,.67.71h17.37c8.67,0,13.21-3.73,13.21-11s-5.75-8.87-5.75-8.87"/><path class="cls-6" d="M222.13,238.63H211.25a.69.69,0,0,1-.71-.67v-9.81a.69.69,0,0,1,.67-.71h10.92c5.15,0,7.47,1.52,7.47,5.55s-2.22,5.64-7.47,5.64m-10.88-26.11h10.68c3.94,0,5.95,1.71,5.95,4.84s-2,4.84-5.95,4.84H211.25a.69.69,0,0,1-.71-.67v-8.3a.69.69,0,0,1,.67-.71h0M230,224.22a8.1,8.1,0,0,0,4.13-7.36c0-5.75-4.43-9.58-10.79-9.58H205.2a.69.69,0,0,0-.71.67v0h0v35.39a.69.69,0,0,0,.67.71h17.38c8.67,0,13.21-3.73,13.21-11s-5.75-8.87-5.75-8.87"/><rect class="cls-7" x="318.9" y="297.03" width="219.1" height="131.21" rx="12.31"/><path class="cls-8" d="M525.7,428.24A12.26,12.26,0,0,0,538,416V309.25A12.26,12.26,0,0,0,525.73,297H463L392.76,428.24Z"/><rect class="cls-9" x="318.9" y="315.7" width="219.1" height="21.33"/><rect class="cls-10" x="351.12" y="378.1" width="154.66" height="19.2" rx="1.61"/></g></g></svg>