<svg xmlns="http://www.w3.org/2000/svg" xmlns:xlink="http://www.w3.org/1999/xlink" viewBox="0 0 600 600"><defs><style>.cls-1,.cls-4{isolation:isolate;}.cls-2{fill:url(#Degradado_sin_nombre_7);}.cls-3{fill:#4ea5e2;}.cls-4{fill-rule:evenodd;opacity:0.5;fill:url(#Degradado_sin_nombre_9);}.cls-5{fill:#d4ecfa;}.cls-6{fill:#07467f;}.cls-7{fill:#1464a5;}.cls-8{fill:url(#Degradado_sin_nombre_4);}.cls-9{fill:#043263;opacity:0.6;mix-blend-mode:multiply;}.cls-10{fill:#d4edfc;}</style><linearGradient id="Degradado_sin_nombre_7" x1="248.05" y1="181.79" x2="440.45" y2="543.63" gradientUnits="userSpaceOnUse"><stop offset="0" stop-color="#192647"/><stop offset="0" stop-color="#192647" stop-opacity="0.5"/><stop offset="1" stop-color="#192647" stop-opacity="0"/></linearGradient><linearGradient id="Degradado_sin_nombre_9" x1="169.78" y1="11697.28" x2="332.86" y2="11610.57" gradientTransform="matrix(1, 0, 0, -1, 0, 11926.41)" gradientUnits="userSpaceOnUse"><stop offset="0" stop-color="#e9f8f9"/><stop offset="1" stop-color="#e9f8f9" stop-opacity="0.2"/><stop offset="1" stop-color="#e9f8f9" stop-opacity="0.5"/></linearGradient><linearGradient id="Degradado_sin_nombre_4" x1="538" y1="362.63" x2="392.76" y2="362.63" gradientUnits="userSpaceOnUse"><stop offset="0" stop-color="#043263"/><stop offset="1" stop-color="#043263" stop-opacity="0"/></linearGradient></defs><title>GLOMO</title><g class="cls-1"><g id="Contenido"><path class="cls-2" d="M555.74,349.47H496V235.32a10.11,10.11,0,0,0-10.08-10.08H168.39a8.13,8.13,0,0,0-8.16,8.16V234a10.24,10.24,0,0,0-.1,1.36V437.48a10,10,0,0,0,.1,1.34v.47a8,8,0,0,0,8.06,8.27H348.94v20.81a12.31,12.31,0,0,0,12.31,12.31H555.74a12.26,12.26,0,0,0,12.31-12.22V361.69A12.27,12.27,0,0,0,555.74,349.47Z"/><path class="cls-3" d="M140.16,172.8H455.85a10.1,10.1,0,0,1,10.08,10.08V385a10.11,10.11,0,0,1-10.08,10.09H140.16A10.12,10.12,0,0,1,130.08,385V182.88A10,10,0,0,1,140.16,172.8Z"/><path class="cls-4" d="M138.25,395.12H300.48L409.57,172.8H138.35a8.13,8.13,0,0,0-8.17,8.16h0V386.85A8,8,0,0,0,138.25,395.12Z"/><rect class="cls-5" x="160.13" y="281.59" width="125.53" height="29.54"/><rect class="cls-5" x="160.13" y="331.39" width="274.05" height="29.54"/><path class="cls-6" d="M268.51,207.58l-12.09,23a.79.79,0,0,1-1,.3l-.3-.3-12.1-23a.84.84,0,0,0-.61-.4h-5.85a.47.47,0,0,0-.5.5c0,.1,0,.2.1.2l19.06,35.59a.68.68,0,0,0,.9.31l.31-.31,19.05-35.59a.57.57,0,0,0-.2-.7c-.1,0-.2-.1-.3-.1h-5.85a1.08,1.08,0,0,0-.61.5"/><path class="cls-6" d="M275.37,238.33l12.1-23a.79.79,0,0,1,1-.3l.3.3,12.1,23a.83.83,0,0,0,.61.41h5.84a.48.48,0,0,0,.51-.51c0-.1,0-.2-.1-.2l-19.06-35.59a.69.69,0,0,0-.91-.3l-.3.3-19,35.49a.56.56,0,0,0,.21.7c.1,0,.1.11.2.11h5.85a1,1,0,0,0,.6-.41"/><path class="cls-6" d="M185,238.63H174.14a.68.68,0,0,1-.7-.7h0v-9.78a.69.69,0,0,1,.7-.71H185c5.14,0,7.46,1.52,7.46,5.55s-2.22,5.64-7.46,5.64m-10.89-26.11h10.69c3.93,0,5.95,1.71,5.95,4.84s-2,4.84-5.95,4.84H174.14a.69.69,0,0,1-.7-.71h0v-8.26a.69.69,0,0,1,.7-.71h0m18.65,11.7a8.1,8.1,0,0,0,4.14-7.36c0-5.75-4.44-9.58-10.79-9.58H168a.68.68,0,0,0-.7.7h0v35.39a.69.69,0,0,0,.7.71h17.34c8.67,0,13.21-3.73,13.21-11s-5.75-8.87-5.75-8.87"/><path class="cls-6" d="M222.13,238.63H211.25a.69.69,0,0,1-.71-.7v-9.78a.69.69,0,0,1,.71-.71h10.88c5.15,0,7.47,1.52,7.47,5.55s-2.22,5.64-7.47,5.64m-10.88-26.11h10.68c3.94,0,5.95,1.71,5.95,4.84s-2,4.84-5.95,4.84H211.25a.69.69,0,0,1-.71-.71v-8.26a.69.69,0,0,1,.71-.71h0M230,224.22a8.11,8.11,0,0,0,4.13-7.36c0-5.75-4.43-9.58-10.79-9.58H205.2a.69.69,0,0,0-.71.7h0v35.39a.69.69,0,0,0,.71.71h17.34c8.67,0,13.21-3.73,13.21-11s-5.75-8.87-5.75-8.87"/><rect class="cls-7" x="318.9" y="297.03" width="219.1" height="131.21" rx="12.31"/><path class="cls-8" d="M525.7,428.24A12.26,12.26,0,0,0,538,416V309.25A12.26,12.26,0,0,0,525.7,297H463L392.76,428.24Z"/><rect class="cls-9" x="318.9" y="315.7" width="219.1" height="21.33"/><rect class="cls-10" x="351.12" y="378.1" width="154.66" height="19.2" rx="1.61"/></g></g></svg>