<svg id="Contenido" xmlns="http://www.w3.org/2000/svg" xmlns:xlink="http://www.w3.org/1999/xlink" viewBox="0 0 600 600"><defs><style>.cls-1{fill:url(#Degradado_sin_nombre);}.cls-2{fill:#143260;}.cls-3{fill:#1aa4a3;}.cls-4{fill:#138382;}.cls-5{fill:#0f2144;}.cls-6{fill:#5de1dc;}.cls-7{fill:#39cbcb;}.cls-8{fill:#1464a5;}.cls-9{fill:#f8cd50;}.cls-10{fill:url(#Degradado_sin_nombre_2);}.cls-11{fill:#1b65a0;}.cls-12{fill:url(#Degradado_sin_nombre_3);}.cls-13{fill:#fff;fill-rule:evenodd;}.cls-14{fill:#e8f7f8;}.cls-15{fill:#39c9c9;}</style><linearGradient id="Degradado_sin_nombre" x1="207.63" y1="541.4" x2="465.74" y2="55.97" gradientTransform="matrix(1, 0, 0, -1, 0, 599.89)" gradientUnits="userSpaceOnUse"><stop offset="0" stop-color="#1a2746" stop-opacity="0.5"/><stop offset="1" stop-color="#1a2746" stop-opacity="0"/></linearGradient><linearGradient id="Degradado_sin_nombre_2" x1="252.4" y1="277.97" x2="300.48" y2="252.41" gradientTransform="matrix(1, 0, 0, -1, 0, 599.89)" gradientUnits="userSpaceOnUse"><stop offset="0" stop-color="#fff" stop-opacity="0.4"/><stop offset="1" stop-color="#e6f4f5" stop-opacity="0.1"/></linearGradient><linearGradient id="Degradado_sin_nombre_3" x1="370.25" y1="159.05" x2="260.3" y2="159.05" gradientTransform="matrix(1, 0, 0, -1, 0, 599.89)" gradientUnits="userSpaceOnUse"><stop offset="0" stop-color="#083361" stop-opacity="0.5"/><stop offset="1" stop-color="#083361" stop-opacity="0"/></linearGradient></defs><title>Seguro_Riesgos_Ciberneticos</title><path class="cls-1" d="M529.34,276.56l.08,0a.94.94,0,0,1-.1-.1c-9.17-51.12-83.54-112.86-174.79-115V148.52a5,5,0,1,0-10,0v12.86c-91.24,2.19-165.62,63.93-174.79,115.05l-.1.1.08,0c0,.14-.06.28-.08.42l.44-.31c38.13,11.89,48.86,15.54,81.5,35.24,32.67-2.18,61.89.47,92.95,7.38v22.28A56.87,56.87,0,0,0,293.71,398v26.54h-3.18a11.26,11.26,0,0,0-11.26,11.26v44.08c0,.3,0,.59,0,.88H256a20.28,20.28,0,0,0,0,40.56h36.79a70.64,70.64,0,0,0,17,16.54h0l.28.19.54.35c.74.49,1.49,1,2.24,1.44l.47.28q1.29.78,2.61,1.5l.13.07c1.92,1,3.89,2,5.89,2.84l.58.24c.77.32,1.54.62,2.32.92l.84.31c.77.28,1.55.54,2.33.79l1.28.4c.7.21,1.41.41,2.12.6l1.72.43,1.07.25,2.05.43.3,0a70.19,70.19,0,0,0,69.7-27.64h38.94a20.28,20.28,0,0,0,0-40.56H419.79c0-.29,0-.59,0-.88v-48a7.32,7.32,0,0,0-7.3-7.3h-5.2V398a56.85,56.85,0,0,0-32.26-51.2h0l-.16-.07c-.83-.39-1.66-.77-2.51-1.12l-.88-.35c-.62-.25-1.25-.49-1.88-.72-.35-.13-.71-.24-1.07-.36-.58-.2-1.17-.39-1.76-.57-.38-.12-.77-.22-1.16-.33q-.87-.24-1.74-.45l-1.2-.28q-.88-.19-1.77-.36l-1.21-.22c-.61-.1-1.23-.19-1.85-.27l-1.17-.15c-.68-.07-1.37-.13-2.06-.18h-.11V319.29c31.06-6.92,60.28-9.57,93-7.4h0v0c32.61-19.68,43.34-23.34,81.46-35.22l.44.31A3.38,3.38,0,0,0,529.34,276.56ZM390.6,185.67A244.15,244.15,0,0,0,356.94,165a244.15,244.15,0,0,1,33.66,20.65ZM313.22,424.58V398a37.34,37.34,0,0,1,31.31-36.8v63.34ZM387.84,398v26.54h-33.3V361l.47.06c.49.06,1,.12,1.46.2l.43.08c.51.09,1,.18,1.52.29l.33.08c.54.12,1.07.25,1.6.4l.23.06c.56.16,1.12.33,1.67.51l.13,0c.58.2,1.16.41,1.73.63l.05,0c.59.23,1.18.48,1.76.74A37.35,37.35,0,0,1,387.84,398Z"/><path class="cls-2" d="M300,132.79a5,5,0,0,1-5-5V102a5,5,0,0,1,10,0v25.8A5,5,0,0,1,300,132.79Z"/><path class="cls-3" d="M120.11,230c38.5,12,49.17,15.6,81.94,35.38l97.95-137C235.62,139.35,176.4,177.07,120.11,230Z"/><path class="cls-4" d="M202.05,265.38c34.42-2.3,65,.76,97.95,8.52V128.38C257,171.05,222.68,216.23,202.05,265.38Z"/><path class="cls-3" d="M479.89,230c-38.5,12-49.17,15.6-81.94,35.38L300,128.38C364.38,139.35,423.6,177.07,479.89,230Z"/><path class="cls-4" d="M398,265.38c-34.42-2.3-65,.76-97.95,8.52V128.38C341,171.15,374.62,216.46,398,265.38Z"/><rect class="cls-5" x="295" y="172.62" width="10" height="224.38"/><path class="cls-6" d="M300,114.79c-93.84,0-171,63.51-179.89,115.66,23.92-17.22,53.79-27.29,89.94-27.64h0Q226.68,150.1,300,114.79Z"/><path class="cls-6" d="M300,114.79c93.84,0,171,63.51,179.89,115.66C456,213.23,426.1,203.16,390,202.81h0Q373.32,150.1,300,114.79Z"/><path class="cls-7" d="M300,114.79q-73.32,35.31-89.95,88c36-10.32,58.77-12.45,89.95-7.12,31.18-5.33,53.93-3.2,89.95,7.12Q373.32,150.1,300,114.79Z"/><path class="cls-8" d="M274.64,489.35c-17.9-.53-31.92-15.69-31.92-33.6v-4.26a8.64,8.64,0,0,1,8.64-8.64h0a8.64,8.64,0,0,1,8.64,8.64V456c0,8.41,6.45,15.66,14.85,16.07a15.66,15.66,0,0,0,16.43-15.62V408.06a3.24,3.24,0,0,1,3.24-3.24h10.8a3.24,3.24,0,0,1,3.24,3.24v48.38A33,33,0,0,1,274.64,489.35Z"/><path class="cls-9" d="M357.81,351.51a56.81,56.81,0,0,0-113.62,0v26.54H263.7V351.51a37.31,37.31,0,0,1,74.62,0v26.54h19.51V351.51Z"/><path class="cls-10" d="M301,294.72a56.87,56.87,0,0,0-56.81,56.79v26.54h19.51V351.51a37.3,37.3,0,0,1,52.7-34l9.17-17.24A56.57,56.57,0,0,0,301,294.72Z"/><path class="cls-11" d="M241,378.05H363a7.32,7.32,0,0,1,7.3,7.3h0v48A70.28,70.28,0,0,1,300,503.67h0a70.28,70.28,0,0,1-70.28-70.28V389.31A11.25,11.25,0,0,1,241,378.05Z"/><path class="cls-12" d="M363,378.05H322.3l-62,113.33A69.53,69.53,0,0,0,300,503.62h0a70.27,70.27,0,0,0,70.28-70.23h0v-48A7.28,7.28,0,0,0,363,378.05Z"/><path class="cls-13" d="M300.07,421.63a11.19,11.19,0,1,0-11.26-11.12v.05a11.21,11.21,0,0,0,11.26,11.07"/><path class="cls-13" d="M285.67,443.33v-4.11c0-9.4,5.63-18,12.54-18h3.72c6.91,0,12.54,8.52,12.54,18v4.11"/><path class="cls-14" d="M416,454.55a20.29,20.29,0,0,1-20.28,20.28H206.48a20.29,20.29,0,0,1-20.28-20.28h0a20.25,20.25,0,0,1,20.28-20.28H395.72A20.25,20.25,0,0,1,416,454.55Z"/><path class="cls-15" d="M242.77,454A11.75,11.75,0,1,1,231,442.26,11.72,11.72,0,0,1,242.77,454Z"/><path class="cls-15" d="M289.79,454A11.75,11.75,0,1,1,278,442.26,11.72,11.72,0,0,1,289.79,454Z"/><path class="cls-15" d="M336.75,454A11.75,11.75,0,1,1,325,442.26,11.72,11.72,0,0,1,336.75,454Z"/><path class="cls-15" d="M383.77,454A11.75,11.75,0,1,1,372,442.26,11.72,11.72,0,0,1,383.77,454Z"/></svg>