<svg id="Contenido" xmlns="http://www.w3.org/2000/svg" xmlns:xlink="http://www.w3.org/1999/xlink" viewBox="0 0 600 600"><defs><style>.cls-1{fill:#1464a5;}.cls-2{fill:url(#Degradado_sin_nombre_16);}.cls-3{fill:#043263;}.cls-4{clip-path:url(#clip-path);}.cls-5{fill:url(#Degradado_sin_nombre_37);}.cls-6{fill:#2dcccd;}.cls-7{fill:#004481;}</style><linearGradient id="Degradado_sin_nombre_16" x1="270.41" y1="218.67" x2="434.26" y2="526.83" gradientUnits="userSpaceOnUse"><stop offset="0" stop-color="#1c2645"/><stop offset="0" stop-color="#1c2645" stop-opacity="0.5"/><stop offset="1" stop-color="#1c2645" stop-opacity="0"/></linearGradient><clipPath id="clip-path"><path id="_Trazado_de_recorte_" data-name="&lt;Trazado de recorte&gt;" class="cls-1" d="M147.52,259.24l145.8-93.92a3.26,3.26,0,0,1,3.48,0l146.4,93L443.87,468,148.19,469Z"/></clipPath><linearGradient id="Degradado_sin_nombre_37" x1="489.26" y1="356.87" x2="205.63" y2="356.87" gradientTransform="translate(122.92 -84.52) rotate(19.82)" gradientUnits="userSpaceOnUse"><stop offset="0" stop-color="#043263" stop-opacity="0.6"/><stop offset="1" stop-color="#043263" stop-opacity="0"/></linearGradient></defs><title>home_insurance</title><path class="cls-2" d="M519.79,290.91,345.86,180.31a3.07,3.07,0,0,0-3.3,0L168.64,290.91a23.55,23.55,0,0,0-7.23,32.5L166,330.6l39.5,5.48v163a3.07,3.07,0,0,0,3.07,3.07H479.88a3.07,3.07,0,0,0,3.07-3.07v-163l39.5-5.48,4.57-7.19A23.55,23.55,0,0,0,519.79,290.91Z"/><path class="cls-3" d="M105.52,286.29l190,25.73,189.85-27L296.82,165.33a3.26,3.26,0,0,0-3.51,0Z"/><path id="_Trazado_de_recorte_2" data-name="&lt;Trazado de recorte&gt;" class="cls-1" d="M147.52,259.24l145.8-93.92a3.26,3.26,0,0,1,3.48,0l146.4,93L443.87,468,148.19,469Z"/><g class="cls-4"><path class="cls-3" d="M313.47,164.6l-49.94.35c-1.14,0-1.77,1.64-1.05,2.74l28.09,42.86a2,2,0,0,1-.11,2.26l-41.53,49.83a2,2,0,0,0-.16,2.17L269,300.2c.83,1.44,2.67.56,2.47-1.19L268,267.26a1.93,1.93,0,0,1,.38-1.41l45.43-56.73a1.89,1.89,0,0,0,.39-1.15l.68-41.65A1.56,1.56,0,0,0,313.47,164.6Z"/></g><polygon class="cls-5" points="443.87 468.03 443.2 258.29 395.44 227.96 148.14 452.07 148.19 468.98 443.87 468.03"/><path class="cls-6" d="M261.44,326.78h68.73a3.27,3.27,0,0,1,3.27,3.27V468.51a0,0,0,0,1,0,0H258.17a0,0,0,0,1,0,0V330.05a3.27,3.27,0,0,1,3.27-3.27Z" transform="translate(-1.27 0.95) rotate(-0.18)"/><path class="cls-7" d="M293.18,125.54,108.22,244a25.09,25.09,0,0,0-7.6,34.66l4.9,7.65,187.79-121a3.26,3.26,0,0,1,3.51,0L485.38,285.08l4.85-7.68a25.09,25.09,0,0,0-7.82-34.61L296.69,125.53A3.27,3.27,0,0,0,293.18,125.54Z"/></svg>