<svg xmlns="http://www.w3.org/2000/svg" xmlns:xlink="http://www.w3.org/1999/xlink" viewBox="0 0 600 600"><defs><style>.cls-1{fill:none;}.cls-2{fill:url(#Degradado_sin_nombre_151);}.cls-3{fill:#d4edfc;}.cls-4{fill:#2dcccd;}.cls-5{fill:#1464a5;}.cls-6{fill:#043263;}.cls-7{fill:#49a5e6;}.cls-8{fill:url(#Degradado_sin_nombre_474);}.cls-9{fill:url(#Degradado_sin_nombre_476);}</style><linearGradient id="Degradado_sin_nombre_151" x1="235.92" y1="-5511.25" x2="460.5" y2="-5933.62" gradientTransform="matrix(1, 0, 0, -1, 0, -5374)" gradientUnits="userSpaceOnUse"><stop offset="0" stop-color="#192647" stop-opacity="0.5"/><stop offset="1" stop-color="#192647" stop-opacity="0"/></linearGradient><linearGradient id="Degradado_sin_nombre_474" x1="374" y1="-5788" x2="261.5" y2="-5788" gradientTransform="matrix(1, 0, 0, -1, 0, -5374)" gradientUnits="userSpaceOnUse"><stop offset="0" stop-color="#043263"/><stop offset="1" stop-color="#043263" stop-opacity="0.1"/></linearGradient><linearGradient id="Degradado_sin_nombre_476" x1="490" y1="-5520.39" x2="288.43" y2="-5520.39" gradientTransform="matrix(1, 0, 0, -1, 0, -5374)" gradientUnits="userSpaceOnUse"><stop offset="0" stop-color="#072146"/><stop offset="1" stop-color="#072146" stop-opacity="0"/></linearGradient></defs><title>13</title><g id="Cuadrados_Blancos" data-name="Cuadrados Blancos"><rect class="cls-1" width="600" height="600"/></g><g id="Capa_28" data-name="Capa 28"><path class="cls-2" d="M536.78,188.29l-38.91-9.85a186.11,186.11,0,0,0-86-1.29h0A266.93,266.93,0,0,1,303,178.57L274.27,173A249.87,249.87,0,0,0,165,176.06l-3.64.93a3,3,0,0,0-2.26,2.9V504a23,23,0,0,0,23,23h334a23,23,0,0,0,23-23V191.2A3,3,0,0,0,536.78,188.29Z"/><path class="cls-3" d="M490,190H110V454a23,23,0,0,0,23,23H467a23,23,0,0,0,23-23Z"/><rect class="cls-4" x="110" y="170" width="380" height="20"/><path class="cls-5" d="M312,275.79h0l-10.2-24.92a2,2,0,0,0-3.6,0L288,275.79h0a13,13,0,0,0,24,10,13,13,0,0,0,0-10Z"/><path class="cls-6" d="M487.74,138.34l-38.92-9.86a186.11,186.11,0,0,0-86-1.28h0A267,267,0,0,1,254,128.62L225.23,123a250,250,0,0,0-109.33,3.09l-3.64.93a3,3,0,0,0-2.26,2.9V170H490V141.25A3,3,0,0,0,487.74,138.34Z"/><path class="cls-5" d="M245.76,190c20.73,0,28.72,13.45,54.25,13.45S333.53,190,354.26,190Z"/><path class="cls-5" d="M374,351H226l17.25,115.91A11.83,11.83,0,0,0,255,477h90.1a11.83,11.83,0,0,0,11.7-10.09Z"/><path class="cls-7" d="M375.34,341H224.66a3,3,0,0,0-3,3,2.88,2.88,0,0,0,.06.59l.8,4a3,3,0,0,0,2.94,2.41h43.4a20.49,20.49,0,0,1,15.77,7.7,19.92,19.92,0,0,0,28,2.7,19.68,19.68,0,0,0,2.7-2.7,20.49,20.49,0,0,1,15.77-7.7h43.4a3,3,0,0,0,2.94-2.41l.8-4a3,3,0,0,0-2.35-3.53A3,3,0,0,0,375.34,341Z"/><path class="cls-8" d="M328.5,351l-67,126h83.55a11.83,11.83,0,0,0,11.7-10.09L374,351Z"/><path class="cls-4" d="M374,409.44a1,1,0,0,1-1.13.85.93.93,0,0,1-.45-.18L301.1,358a5,5,0,0,1-1.1-7v0h0a5,5,0,0,1,7-1.1h0L373.9,398.8a3,3,0,0,1,1.2,2.84Z"/><path class="cls-9" d="M490,141.25a3,3,0,0,0-2.26-2.91l-38.92-9.86a186.11,186.11,0,0,0-86-1.28h0a267.87,267.87,0,0,1-55,6.32L288.43,170H490Z"/></g></svg>