<svg id="Contenido" xmlns="http://www.w3.org/2000/svg" xmlns:xlink="http://www.w3.org/1999/xlink" viewBox="0 0 600 600"><defs><style>.cls-1{fill:url(#Degradado_sin_nombre_8);}.cls-2{fill:#d4edfc;}.cls-3{fill:#2dcccd;}.cls-4{fill:#1464a5;}.cls-5{fill:#49a5e6;}.cls-6{fill:url(#Degradado_sin_nombre_13);}.cls-7{fill:url(#Degradado_sin_nombre_10);}</style><linearGradient id="Degradado_sin_nombre_8" x1="235.88" y1="137.24" x2="460.44" y2="559.57" gradientUnits="userSpaceOnUse"><stop offset="0" stop-color="#192647"/><stop offset="0" stop-color="#192647" stop-opacity="0.5"/><stop offset="1" stop-color="#192647" stop-opacity="0"/></linearGradient><linearGradient id="Degradado_sin_nombre_13" x1="374" y1="414" x2="261.5" y2="414" gradientUnits="userSpaceOnUse"><stop offset="0" stop-color="#043263" stop-opacity="0.6"/><stop offset="1" stop-color="#043263" stop-opacity="0.1"/></linearGradient><linearGradient id="Degradado_sin_nombre_10" x1="490" y1="146.39" x2="288.43" y2="146.39" gradientUnits="userSpaceOnUse"><stop offset="0" stop-color="#043263" stop-opacity="0.6"/><stop offset="1" stop-color="#043263" stop-opacity="0.2"/></linearGradient></defs><title>_</title><path class="cls-1" d="M536.78,188.29l-38.91-9.85a186,186,0,0,0-86-1.29h0A267,267,0,0,1,303,178.57L274.27,173A249.94,249.94,0,0,0,165,176.06l-3.64.93a3,3,0,0,0-2.26,2.9V504a23,23,0,0,0,23,23h334a23,23,0,0,0,23-23V191.2A3,3,0,0,0,536.78,188.29Z"/><path class="cls-2" d="M490,190H110V454a23,23,0,0,0,23,23H467a23,23,0,0,0,23-23Z"/><rect class="cls-3" x="110" y="170" width="380" height="20"/><path class="cls-4" d="M312,275.79h0L301.8,250.87a2,2,0,0,0-3.6,0L288,275.79h0a13,13,0,1,0,25,4.88A12.75,12.75,0,0,0,312,275.79Z"/><path class="cls-4" d="M487.74,138.34l-38.92-9.86a186.11,186.11,0,0,0-86-1.28h0A267,267,0,0,1,254,128.62L225.23,123a250,250,0,0,0-109.33,3.09l-3.64.93a3,3,0,0,0-2.26,2.9V170H490V141.25A3,3,0,0,0,487.74,138.34Z"/><path class="cls-4" d="M245.76,190c20.73,0,28.72,13.45,54.25,13.45S333.53,190,354.26,190Z"/><path class="cls-4" d="M374,351H226l17.25,115.91A11.83,11.83,0,0,0,255,477h90.1a11.83,11.83,0,0,0,11.7-10.09Z"/><path class="cls-5" d="M375.34,341H224.66a3,3,0,0,0-2.94,3.59l.8,4a3,3,0,0,0,2.94,2.41h43.4a20.5,20.5,0,0,1,15.77,7.7,19.92,19.92,0,0,0,30.74,0,20.5,20.5,0,0,1,15.77-7.7h43.4a3,3,0,0,0,2.94-2.41l.8-4A3,3,0,0,0,375.34,341Z"/><path class="cls-6" d="M328.5,351l-67,126h83.55a11.83,11.83,0,0,0,11.7-10.09L374,351Z"/><path class="cls-3" d="M374,409.44a1,1,0,0,1-1.58.67L301.1,358a5,5,0,0,1-1.09-7h0a5,5,0,0,1,7-1.09l66.89,48.89a3,3,0,0,1,1.2,2.84Z"/><path class="cls-7" d="M490,141.25a3,3,0,0,0-2.26-2.91l-38.92-9.86a186.11,186.11,0,0,0-86-1.28h0a267.39,267.39,0,0,1-55,6.32L288.43,170H490Z"/></svg>