<svg id="Contenido" xmlns="http://www.w3.org/2000/svg" xmlns:xlink="http://www.w3.org/1999/xlink" viewBox="0 0 600 600"><defs><style>.cls-1{fill:url(#Degradado_sin_nombre_42);}.cls-2{fill:#1464a5;}.cls-3{fill:#043263;}.cls-4{fill:#02a5a5;}.cls-5{fill:#2dcccd;}.cls-6{fill:url(#Degradado_sin_nombre_5);}.cls-7{fill:url(#Degradado_sin_nombre_5-2);}.cls-8{fill:#d4edfc;}.cls-9{fill:url(#Degradado_sin_nombre_10);}.cls-10{fill:none;}</style><linearGradient id="Degradado_sin_nombre_42" x1="167.13" y1="151.42" x2="400.55" y2="590.43" gradientUnits="userSpaceOnUse"><stop offset="0" stop-color="#192647" stop-opacity="0.5"/><stop offset="1" stop-color="#192647" stop-opacity="0"/></linearGradient><linearGradient id="Degradado_sin_nombre_5" x1="431.93" y1="447.57" x2="333.11" y2="447.57" gradientUnits="userSpaceOnUse"><stop offset="0.02" stop-color="#043263" stop-opacity="0.3"/><stop offset="1" stop-color="#043263" stop-opacity="0.1"/></linearGradient><linearGradient id="Degradado_sin_nombre_5-2" x1="287" y1="414.26" x2="172.84" y2="414.26" xlink:href="#Degradado_sin_nombre_5"/><linearGradient id="Degradado_sin_nombre_10" x1="268.53" y1="88.03" x2="208.47" y2="88.03" gradientUnits="userSpaceOnUse"><stop offset="0.02" stop-color="#043263" stop-opacity="0.2"/><stop offset="1" stop-color="#043263" stop-opacity="0"/></linearGradient></defs><path class="cls-1" d="M481.41,524.75,460.5,448.94c-.38-1.37-.78-2.73-1.19-4.09-.15-.51-.31-1-.47-1.54-.25-.82-.51-1.63-.77-2.44l-.66-2-.63-1.84c-.28-.78-.55-1.57-.83-2.35l-.43-1.14a191.29,191.29,0,0,0-28-50.63l-14.75-19.54h0L371.45,308.6h0l-36.6-48.5a48.86,48.86,0,0,0-7.71-8.77,11.18,11.18,0,0,0,.15-3.22l-1.71-16.78h0c-.16-1.48-.29-2.73-.4-3.84l-.7-6.85h0c-.24-2.27-.48-4.57-.93-8.89A12.24,12.24,0,0,0,317.2,201h0l-17.46-11.73L314,179.05a12,12,0,0,0,4.9-11.11l-.05-.42h0l-.69-5.93-3.37-28.9a19.85,19.85,0,0,0-10.13-15.09h0c-.94-.52-1.89-1-2.85-1.49l-.63-.32c-.95-.47-1.92-.92-2.89-1.35l-.22-.09c-.95-.42-1.9-.81-2.86-1.19l-.43-.17c-1-.39-2.06-.77-3.1-1.13l-.18,0c-1.07-.36-2.15-.7-3.23-1h0c-1.12-.32-2.24-.62-3.37-.89h-.06q-3.4-.82-6.85-1.35h0c-2.64-.4-5.28-.67-7.94-.81a18.34,18.34,0,0,0-2.28-.08,17.42,17.42,0,0,0-2.09.07,80,80,0,0,0-34.84,9.89h0a19.85,19.85,0,0,0-10.13,15.09l-3.37,28.9-.69,5.93h0l0,.42a12,12,0,0,0,4.9,11.11l14.21,10.23L218.18,201v0a12.25,12.25,0,0,0-6.32,10.72c-.45,4.32-.69,6.62-.93,8.89h0l-.7,6.84c-.11,1.11-.25,2.37-.4,3.85h0l-1.7,16.78a11.11,11.11,0,0,0,7.29,11.57c.82.3,1.65.62,2.47.94l-6.64,53.7h0l-8.41,68.09h0l-3,24.3a191.58,191.58,0,0,0,4.46,73.67l18.83,72.38h0l1,3.73a22,22,0,0,0,17.47,16.13l.08,0a150.13,150.13,0,0,0,52.13,0l.08,0a22,22,0,0,0,7.37-2.72,21.14,21.14,0,0,0,1.84-1.24c.46-.34.91-.7,1.35-1.07a21.65,21.65,0,0,0,1.63-1.55h0a22,22,0,0,0,5.27-9.54l18.15-69.8a191.77,191.77,0,0,0,21.2,25.65l55.21,56a22,22,0,0,0,15.44,6.56c.52,0,1,0,1.56,0a22,22,0,0,0,6.19-1.29l.07,0c4.12-1.49,8.16-3.17,12.11-5q3-1.38,5.87-2.9,4.36-2.26,8.55-4.81t8.22-5.36q5.37-3.76,10.4-8l.06,0a22,22,0,0,0,7.07-22.71ZM323.47,213.06l0-.34Zm-.38,2,.12-.45Zm.22-.95c0-.14.06-.27.08-.41C323.37,213.81,323.34,213.94,323.31,214.08Zm-.92,2.85a13.88,13.88,0,0,1-.74,1.37h0A13.88,13.88,0,0,0,322.39,216.93Zm.57-1.47c0,.16-.1.32-.16.48C322.86,215.78,322.91,215.62,323,215.46Zm-.29.82c-.07.18-.14.35-.22.52C322.53,216.63,322.6,216.46,322.67,216.28Zm-82.38-66.93a79.67,79.67,0,0,1,18.45-4.77h0q1.11-.15,2.22-.27h0l2.15-.2.52,0,1.7-.11c.77,0,1.54-.07,2.32-.09a79.84,79.84,0,0,1,27.39,5.48l-27.39,18.4Zm-26.56,68.92a12,12,0,0,1-1-2,12,12,0,0,0,1,2Zm-1.81-5.2c0-.12,0-.23,0-.35Zm.66,2.87c-.05-.17-.11-.33-.16-.5C212.47,215.61,212.53,215.77,212.58,215.94Zm-.28-.91c-.05-.15-.08-.3-.12-.46C212.22,214.73,212.25,214.88,212.3,215Zm-.23-.95c0-.14,0-.28-.07-.42C212,213.8,212.05,213.94,212.07,214.08Z"/><path class="cls-2" d="M377.26,332.91,284.57,210.1a49.17,49.17,0,0,0-84.89,49l60,141.67a191.56,191.56,0,0,0,40.7,61.57l55.21,56a22,22,0,0,0,23.19,5.23l.07,0A149.92,149.92,0,0,0,424,497.51l.06-.05a22,22,0,0,0,7.07-22.71l-20.92-75.81A191.49,191.49,0,0,0,377.26,332.91Z"/><path class="cls-3" d="M341.66,407h0A55.41,55.41,0,0,0,358,325.35L274.88,214A39,39,0,0,0,224.44,204h0a39,39,0,0,0-16.5,48.73L262.79,380.3A55.41,55.41,0,0,0,341.66,407Z"/><path class="cls-4" d="M268.15,250.59a100.6,100.6,0,0,1-23.74-7.29,47.13,47.13,0,0,1-9.87-1.84c-.39-.13-.76-.27-1.13-.41a156.24,156.24,0,0,0-10,74l26.75,63.18S244.23,308.16,268.15,250.59Z"/><path class="cls-5" d="M187.57,259.27l-6.92-15.38h0c-.6-1.36-1.12-2.51-1.57-3.53l-2.82-6.28h0l-3.65-8.16a12.26,12.26,0,0,0,13.65,5.75.63.63,0,0,1,.24,0c23.22-4.55,82.74-11.25,134.67,26.94l41.33,54.77s-87.86-61.12-162.85-47.71A11.12,11.12,0,0,1,187.57,259.27Z"/><path class="cls-6" d="M410.22,398.94a192.57,192.57,0,0,0-10.46-28.73L333.11,495.55l22.49,22.82a22,22,0,0,0,23.19,5.23l.07,0A149.92,149.92,0,0,0,424,497.51l.06-.05a22,22,0,0,0,7.07-22.71Z"/><path class="cls-4" d="M273.27,161.75A12.24,12.24,0,0,0,266.93,151h0L170,85.89l-3.74,32.05a12,12,0,0,0,4.9,11.11L256,190.14,272.85,174l-1.48-5.71A12.22,12.22,0,0,0,273.27,161.75Z"/><path class="cls-5" d="M268.58,117.94l-3.74-32L167.9,151v0a12.23,12.23,0,0,0-4.44,17.24L162,174l16.85,16.13,84.85-61.09A12,12,0,0,0,268.58,117.94Z"/><path class="cls-2" d="M285.3,356.72,266.44,204a49.17,49.17,0,0,0-98,0l-18.86,152.7A191.39,191.39,0,0,0,154,430.39l19.8,76.11a22,22,0,0,0,17.47,16.13l.08,0a150.13,150.13,0,0,0,52.13,0l.08,0A22,22,0,0,0,261,506.5l19.79-76.11A191.39,191.39,0,0,0,285.3,356.72Z"/><path class="cls-7" d="M278.74,303.6,172.84,502.77l1,3.73a22,22,0,0,0,17.47,16.13l.08,0a150.13,150.13,0,0,0,52.13,0l.08,0A22,22,0,0,0,261,506.5l19.79-76.11a191.39,191.39,0,0,0,4.47-73.67Z"/><path class="cls-3" d="M217.42,403.09h0a55.42,55.42,0,0,1-54.95-62.56l16.3-137.94a39,39,0,0,1,38.65-34h0a39,39,0,0,1,38.66,34l16.29,137.94A55.41,55.41,0,0,1,217.42,403.09Z"/><path class="cls-4" d="M273.87,264.33c-25.87-59-80.76-83-103.14-90.67a.65.65,0,0,0-.22-.11,12.26,12.26,0,0,1-8.94-11.8c-.44,4.32-.68,6.62-.92,8.89h0l-.7,6.84c-.11,1.11-.25,2.37-.4,3.85h0l-1.7,16.78a11.12,11.12,0,0,0,7.28,11.57C236.77,235.57,282.3,332.42,282.3,332.42Z"/><path class="cls-5" d="M277,198.11l-1.71-16.78h0c-.16-1.48-.29-2.73-.41-3.84l-.69-6.85h0c-.24-2.27-.48-4.57-.93-8.89a12.25,12.25,0,0,1-8.94,11.8.71.71,0,0,0-.21.11c-22.39,7.67-77.29,31.63-103.16,90.67l-8.41,68.09s45.53-96.85,117.17-122.74A11.11,11.11,0,0,0,277,198.11Z"/><path class="cls-8" d="M267.84,111.59l-3.37-28.9A19.85,19.85,0,0,0,254.34,67.6h0a80,80,0,0,0-34.64-9.88,18.51,18.51,0,0,0-2.29-.08,17.32,17.32,0,0,0-2.08.07,80,80,0,0,0-34.84,9.89h0a19.85,19.85,0,0,0-10.13,15.09L167,111.59l-.69,5.93a13.68,13.68,0,0,1,1.51-4.39,13.44,13.44,0,0,1,4.17-4.42l7.21-4.16a79.87,79.87,0,0,1,38.22-10.68,79.87,79.87,0,0,1,38.23,10.68l7.21,4.16a13.44,13.44,0,0,1,4.17,4.42,13.94,13.94,0,0,1,1.51,4.39Z"/><path class="cls-8" d="M268.53,117.52l.05.42S268.57,117.79,268.53,117.52Z"/><path class="cls-8" d="M166.3,117.52c0,.27-.05.42-.05.42Z"/><path class="cls-9" d="M267.84,111.59l-3.37-28.9A19.85,19.85,0,0,0,254.34,67.6h0a80,80,0,0,0-26.7-9.07L208.47,94.58a81.36,81.36,0,0,1,8.94-.71,79.87,79.87,0,0,1,38.23,10.68l7.21,4.16a13.44,13.44,0,0,1,4.17,4.42,13.94,13.94,0,0,1,1.51,4.39Z"/><rect class="cls-10" width="600" height="600"/></svg>