<svg id="Capa_1" data-name="Capa 1" xmlns="http://www.w3.org/2000/svg" xmlns:xlink="http://www.w3.org/1999/xlink" viewBox="0 0 600 600"><defs><style>.cls-1{fill:none;}.cls-2{fill:url(#Degradado_sin_nombre_42);}.cls-3{fill:#003267;}.cls-4{fill:#0065aa;}.cls-5{clip-path:url(#clip-path);}.cls-6{fill:#cdeefe;}.cls-7{fill:url(#Degradado_sin_nombre_127);}.cls-8{fill:#00d0cf;}.cls-9{fill:url(#Degradado_sin_nombre_34);}.cls-10{fill:#49a5e6;}.cls-11{fill:#ffcc28;}.cls-12{fill:url(#Degradado_sin_nombre_3);}.cls-13{fill:url(#Degradado_sin_nombre_3-2);}.cls-14{fill:url(#Degradado_sin_nombre_34-2);}.cls-15{fill:url(#Degradado_sin_nombre_13);}.cls-16{fill:url(#Degradado_sin_nombre_13-2);}</style><linearGradient id="Degradado_sin_nombre_42" x1="221.65" y1="59.41" x2="429.6" y2="443.11" gradientTransform="translate(-1.53 42.4) rotate(0.46)" gradientUnits="userSpaceOnUse"><stop offset="0" stop-color="#072146" stop-opacity="0.5"/><stop offset="1" stop-color="#072146" stop-opacity="0"/></linearGradient><clipPath id="clip-path"><circle class="cls-1" cx="277.16" cy="292.18" r="200"/></clipPath><linearGradient id="Degradado_sin_nombre_127" x1="394.26" y1="678.67" x2="-52.54" y2="678.67" gradientUnits="userSpaceOnUse"><stop offset="0.01" stop-color="#003267" stop-opacity="0.1"/><stop offset="1" stop-color="#003267" stop-opacity="0"/></linearGradient><linearGradient id="Degradado_sin_nombre_34" x1="318.91" y1="221.34" x2="298.15" y2="221.34" gradientTransform="translate(-14.61 65.94) rotate(-2.38)" gradientUnits="userSpaceOnUse"><stop offset="0" stop-color="#008785" stop-opacity="0.6"/><stop offset="1" stop-color="#008785" stop-opacity="0.2"/></linearGradient><linearGradient id="Degradado_sin_nombre_3" x1="469.1" y1="104.9" x2="384.41" y2="104.9" gradientTransform="translate(-14.61 65.94) rotate(-2.38)" gradientUnits="userSpaceOnUse"><stop offset="0" stop-color="#003267" stop-opacity="0.4"/><stop offset="1" stop-color="#003267" stop-opacity="0.1"/></linearGradient><linearGradient id="Degradado_sin_nombre_3-2" x1="402.01" y1="187.47" x2="331.5" y2="187.47" xlink:href="#Degradado_sin_nombre_3"/><linearGradient id="Degradado_sin_nombre_34-2" x1="403.64" y1="149.34" x2="385.59" y2="149.34" xlink:href="#Degradado_sin_nombre_34"/><linearGradient id="Degradado_sin_nombre_13" x1="235.72" y1="200.26" x2="281.85" y2="246.39" gradientTransform="translate(-14.61 65.94) rotate(-2.38)" gradientUnits="userSpaceOnUse"><stop offset="0" stop-color="#fff" stop-opacity="0.5"/><stop offset="1" stop-color="#fff" stop-opacity="0.1"/></linearGradient><linearGradient id="Degradado_sin_nombre_13-2" x1="235.39" y1="270.86" x2="243.3" y2="278.77" xlink:href="#Degradado_sin_nombre_13"/></defs><path class="cls-2" d="M573.43,309.21l-24.1-22.53h0l-.25-.24L518,257.34l-4-3.78h0L499.45,240a199.59,199.59,0,0,0-20.61-36.27l15-16a16.7,16.7,0,0,0,3.06-18.2,16.45,16.45,0,0,0-1.62-2.85,17.27,17.27,0,0,0-2.23-2.55l-34.9-32.64c-.38-.35-.77-.68-1.18-1-.2-.15-.4-.3-.61-.44s-.37-.27-.57-.39-.57-.35-.86-.52l-.3-.16c-.34-.19-.69-.36-1.05-.52h0a16.68,16.68,0,0,0-19,3.81l-15.3,16.37a198.84,198.84,0,0,0-51.62-21.93l-1.51-1.41-2.22-2.08h0L336.57,97.68l-4-3.79L304.31,67.5a11.69,11.69,0,0,0-16.52.56l-34,36.32a11.69,11.69,0,0,0,.55,16.52l7.13,6.67A200,200,0,1,0,374.29,511.41h0A200.25,200.25,0,0,0,513.36,353.12l10.14,9.48a11.69,11.69,0,0,0,16.52-.55l34-36.32A11.69,11.69,0,0,0,573.43,309.21Z"/><circle class="cls-1" cx="285.01" cy="289.66" r="200"/><circle class="cls-3" cx="277.16" cy="292.18" r="200"/><circle class="cls-1" cx="277.16" cy="292.18" r="200"/><path class="cls-4" d="M410.61,205.46l43.23-47a16.7,16.7,0,0,0-1-23.6L417.7,102.54a16.69,16.69,0,0,0-23.59,1l-43.23,47a5,5,0,0,0,.3,7.08l52.36,48.19A5,5,0,0,0,410.61,205.46Z"/><g class="cls-5"><circle class="cls-6" cx="90.22" cy="660.89" r="304.04"/><path class="cls-7" d="M233,392.4l-285.52,537A302.71,302.71,0,0,0,90.22,964.93c167.92,0,304-136.12,304-304C394.26,544.57,328.94,443.53,233,392.4Z"/></g><rect class="cls-8" x="284.15" y="257.55" width="23.31" height="25.42" transform="translate(-103.37 304.9) rotate(-47.38)"/><rect class="cls-4" x="319.74" y="157.69" width="6.47" height="18.67" transform="translate(-18.64 291.56) rotate(-47.38)"/><rect class="cls-4" x="343.29" y="132.81" width="6.47" height="18.67" transform="translate(7.27 300.86) rotate(-47.38)"/><polygon class="cls-9" points="292.82 283.34 297.27 287.44 313.05 270.29 303.36 261.37 292.82 283.34"/><path class="cls-8" d="M298.07,171.07,213.86,93.56a11.68,11.68,0,0,1-.69-16.51l33.68-36.59a11.68,11.68,0,0,1,16.51-.68l84.22,77.5a11.69,11.69,0,0,1,.68,16.52l-33.67,36.59A11.69,11.69,0,0,1,298.07,171.07Z"/><rect class="cls-8" x="363.79" y="163.83" width="16.18" height="47.54" transform="translate(-18 334.19) rotate(-47.38)"/><path class="cls-4" d="M340.22,169.47l52.36,48.18a5,5,0,0,1,.29,7.08l-48,52.16a16.7,16.7,0,0,1-23.59,1l-35.16-32.36a16.7,16.7,0,0,1-1-23.59l48-52.16A5,5,0,0,1,340.22,169.47Z"/><rect class="cls-4" x="417.55" y="198.86" width="6.46" height="18.67" transform="translate(-17.36 376.82) rotate(-47.38)"/><rect class="cls-4" x="393.2" y="225.31" width="6.47" height="18.67" transform="translate(-44.67 367.45) rotate(-47.38)"/><path class="cls-10" d="M212.36,274.57a59.14,59.14,0,0,1,86.07,79.21Z"/><path class="cls-4" d="M209,281.42a4.85,4.85,0,0,1-.28-6.84h0a2.51,2.51,0,0,1,3.56-.13l86.33,79.45a2.52,2.52,0,0,1,.16,3.56h0a4.84,4.84,0,0,1-6.84.28Z"/><rect class="cls-8" x="237.81" y="323.02" width="15.04" height="4.21" transform="translate(-160.03 285.47) rotate(-47.38)"/><path class="cls-11" d="M232.48,339.07a8.79,8.79,0,1,0-.52-12.42A8.79,8.79,0,0,0,232.48,339.07Z"/><path class="cls-10" d="M239.24,352.26a19.7,19.7,0,0,1-20.47-18.84,1.6,1.6,0,0,1,3.19-.13,16.49,16.49,0,0,0,17.14,15.78,1.6,1.6,0,0,1,.14,3.19Z"/><path class="cls-10" d="M238.41,353.27a20.7,20.7,0,0,1-20.64-19.81,2.61,2.61,0,0,1,2.49-2.7,2.61,2.61,0,0,1,2.7,2.49,15.5,15.5,0,0,0,16.1,14.82,2.59,2.59,0,0,1,.22,5.18h0C239,353.27,238.7,353.27,238.41,353.27Zm-18-20.51h0a.63.63,0,0,0-.41.19.62.62,0,0,0-.16.43,18.7,18.7,0,0,0,19.42,17.88h0a.59.59,0,0,0,.57-.62.57.57,0,0,0-.19-.42.64.64,0,0,0-.42-.15A17.5,17.5,0,0,1,221,333.33a.57.57,0,0,0-.19-.41A.59.59,0,0,0,220.37,332.76Z"/><path class="cls-10" d="M237.26,364.25a28.75,28.75,0,0,1-29.87-27.49,1.6,1.6,0,1,1,3.19-.13,25.54,25.54,0,0,0,26.55,24.43,1.6,1.6,0,1,1,.13,3.19Z"/><path class="cls-10" d="M236.05,365.27a29.74,29.74,0,0,1-29.66-28.47,2.6,2.6,0,0,1,2.49-2.7,2.56,2.56,0,0,1,1.86.68,2.59,2.59,0,0,1,.84,1.8,24.53,24.53,0,0,0,25.51,23.48,2.6,2.6,0,0,1,1.86.69,2.54,2.54,0,0,1,.83,1.8,2.59,2.59,0,0,1-2.48,2.7h0ZM209,336.1h0a.55.55,0,0,0-.41.19.62.62,0,0,0-.16.43,27.75,27.75,0,0,0,28.83,26.53h0a.59.59,0,0,0,.57-.62.63.63,0,0,0-.19-.41.64.64,0,0,0-.43-.16,26.53,26.53,0,0,1-27.59-25.39.61.61,0,0,0-.19-.42A.59.59,0,0,0,209,336.1Z"/><path class="cls-10" d="M235.64,375.81a37.78,37.78,0,0,1-39.27-36.14,1.59,1.59,0,1,1,3.18-.14,34.59,34.59,0,0,0,35.95,33.09,1.6,1.6,0,0,1,.14,3.19Z"/><path class="cls-10" d="M234,376.84a38.78,38.78,0,0,1-38.67-37.13,2.59,2.59,0,1,1,5.18-.22,33.57,33.57,0,0,0,34.91,32.13,2.61,2.61,0,0,1,2.7,2.49,2.56,2.56,0,0,1-.68,1.86,2.59,2.59,0,0,1-1.8.84h0ZM198,339h0a.6.6,0,0,0-.57.62,36.78,36.78,0,0,0,38.22,35.19h0a.61.61,0,0,0,.41-.19.6.6,0,0,0-.46-1,35.59,35.59,0,0,1-37-34.05.56.56,0,0,0-.19-.41A.59.59,0,0,0,198,339Z"/><path class="cls-12" d="M452.86,134.89,417.7,102.54a16.4,16.4,0,0,0-4.59-3l-38.27,79.79,28.7,26.41a5,5,0,0,0,7.07-.29l43.23-47A16.7,16.7,0,0,0,452.86,134.89Z"/><path class="cls-13" d="M367.52,194.59,326.1,281a16.7,16.7,0,0,0,18.77-4.06l48-52.16a5,5,0,0,0-.29-7.08Z"/><polygon class="cls-14" points="377.01 203.33 383.89 209.66 394.85 197.75 384.33 188.07 377.01 203.33"/><path class="cls-15" d="M212.36,274.57l48,44.18,22.52-46.94A59.18,59.18,0,0,0,212.36,274.57Z"/><path class="cls-16" d="M232,326.65a8.79,8.79,0,0,0,.52,12.42,8.22,8.22,0,0,0,2,1.37l7.6-15.84A8.81,8.81,0,0,0,232,326.65Z"/><rect class="cls-8" x="251.58" y="43.92" width="58.27" height="123.01" rx="5.01" transform="translate(13.05 240.59) rotate(-47.38)"/><rect class="cls-6" x="232.52" y="91.94" width="73.1" height="5.54" transform="translate(17.17 228.56) rotate(-47.38)"/><rect class="cls-6" x="264.13" y="121.02" width="73.1" height="5.54" transform="translate(5.97 261.2) rotate(-47.38)"/><path class="cls-8" d="M484.89,333.12l-84.22-77.51a11.69,11.69,0,0,1-.68-16.52l33.67-36.59a11.68,11.68,0,0,1,16.51-.68l84.23,77.51a11.69,11.69,0,0,1,.68,16.51l-33.67,36.59A11.7,11.7,0,0,1,484.89,333.12Z"/><rect class="cls-8" x="438.4" y="205.97" width="58.27" height="123.01" rx="5.01" transform="translate(-45.88 430.36) rotate(-47.38)"/><rect class="cls-6" x="415.18" y="250.15" width="73.1" height="5.54" transform="translate(-40.28 414.03) rotate(-47.38)"/><rect class="cls-6" x="446.78" y="279.24" width="73.1" height="5.54" transform="translate(-51.48 446.68) rotate(-47.38)"/></svg>