<svg xmlns="http://www.w3.org/2000/svg" xmlns:xlink="http://www.w3.org/1999/xlink" viewBox="0 0 600 600"><defs><style>.cls-1{fill:none;}.cls-2{fill:url(#Degradado_sin_nombre_118);}.cls-3{fill:url(#Degradado_sin_nombre_120);}.cls-4{fill:url(#Degradado_sin_nombre_120-2);}.cls-5{fill:url(#Degradado_sin_nombre_120-3);}.cls-6{fill:url(#Degradado_sin_nombre_120-4);}.cls-7{fill:url(#Degradado_sin_nombre_120-5);}.cls-8{fill:url(#Degradado_sin_nombre_120-6);}.cls-9{fill:url(#Degradado_sin_nombre_120-7);}.cls-10{fill:#123161;}.cls-11{fill:#02a5a5;}.cls-12{fill:#028484;}.cls-13{fill:#0e2045;}.cls-14{fill:#56e2de;}.cls-15{fill:#2dcccd;}.cls-16{fill:#f8cd50;}.cls-17{fill:#fade8e;}.cls-18{fill:url(#Degradado_sin_nombre_481);}.cls-19{fill:#043263;}</style><linearGradient id="Degradado_sin_nombre_118" x1="249.02" y1="91.89" x2="452.95" y2="475.43" gradientTransform="translate(0 2)" gradientUnits="userSpaceOnUse"><stop offset="0" stop-color="#1c2645" stop-opacity="0.5"/><stop offset="1" stop-color="#1c2645" stop-opacity="0"/></linearGradient><linearGradient id="Degradado_sin_nombre_120" x1="127.46" y1="183.31" x2="321.52" y2="548.29" xlink:href="#Degradado_sin_nombre_118"/><linearGradient id="Degradado_sin_nombre_120-2" x1="212.68" y1="141.19" x2="404.49" y2="501.93" xlink:href="#Degradado_sin_nombre_118"/><linearGradient id="Degradado_sin_nombre_120-3" x1="136.05" y1="184.08" x2="328.38" y2="545.8" xlink:href="#Degradado_sin_nombre_118"/><linearGradient id="Degradado_sin_nombre_120-4" x1="195.12" y1="139.59" x2="392.74" y2="511.26" xlink:href="#Degradado_sin_nombre_118"/><linearGradient id="Degradado_sin_nombre_120-5" x1="118.18" y1="186.08" x2="315.05" y2="556.33" xlink:href="#Degradado_sin_nombre_118"/><linearGradient id="Degradado_sin_nombre_120-6" x1="180.59" y1="160.23" x2="373.63" y2="523.29" xlink:href="#Degradado_sin_nombre_118"/><linearGradient id="Degradado_sin_nombre_120-7" x1="227.3" y1="116.43" x2="426.94" y2="491.89" xlink:href="#Degradado_sin_nombre_118"/><linearGradient id="Degradado_sin_nombre_481" x1="233.58" y1="306.13" x2="307.93" y2="380.47" gradientTransform="translate(0 2)" gradientUnits="userSpaceOnUse"><stop offset="0" stop-color="#fff" stop-opacity="0.5"/><stop offset="1" stop-color="#fff" stop-opacity="0"/></linearGradient></defs><title>13</title><g id="Cuadrados_Blancos" data-name="Cuadrados Blancos"><rect class="cls-1" width="600" height="600"/></g><g id="Capa_29" data-name="Capa 29"><path class="cls-2" d="M524.6,244.6c0-.1-.1-.3-.1-.4h.1l-.1-.1C515.3,192.9,441,131.2,349.7,129V116.1a5,5,0,1,0-10,0V129c-91.2,2.2-165.6,63.9-174.8,115.1l-.1.1h.1l-.1.4.4-.3c38.1,11.9,48.8,15.5,81.5,35.2,32.7-2.2,61.9.5,92.9,7.4v46.7c-.7,0-1.4.1-2.1.1-.9.1-1.8.1-2.6.2-1.7.2-3.5.4-5.2.7l-5.1.9a106,106,0,0,0-32.9,12.9l-4.2,2.7a103.48,103.48,0,0,0-45.7,83.8,7.06,7.06,0,0,0,.5,14.1H448.5a7.13,7.13,0,0,0,7.1-7.1,7,7,0,0,0-6.2-7,103.78,103.78,0,0,0-54.9-89.3h0l-.9-.5c-.4-.2-.8-.4-1.3-.6a13.39,13.39,0,0,1-1.2-.6l-1.6-.8-1-.5c-.9-.4-1.7-.8-2.6-1.1l-.2-.1a26,26,0,0,0-2.5-1l-.7-.3c-.7-.3-1.4-.5-2.1-.8l-.7-.2c-.8-.3-1.6-.5-2.4-.8l-.5-.1c-1.9-.6-3.8-1.1-5.8-1.6l-.7-.2-2.1-.5-1-.2-1.9-.4-1-.2-2-.4-1.5-.2-2.1-.3c-.5-.1-1-.1-1.5-.2l-1.3-.1-1.6-.1-1.2-.1-1.6-.1-1.3-.1H350V286.8c31.1-6.9,60.3-9.6,92.9-7.4h0c32.6-19.7,43.4-23.4,81.5-35.2Z"/><path class="cls-3" d="M305.1,476a7.11,7.11,0,0,0,0-14.2H251.4a7.11,7.11,0,0,0,0,14.2Z"/><path class="cls-4" d="M439.4,461.8H331.9a7.11,7.11,0,0,0,0,14.2H439.3a7.11,7.11,0,0,0,.6-14.2Z"/><path class="cls-5" d="M352.4,495.7a7.13,7.13,0,0,0-7.1-7.1H255.8a7.11,7.11,0,0,0,0,14.2h89.5A7.06,7.06,0,0,0,352.4,495.7Z"/><path class="cls-6" d="M394.6,502.8a7.11,7.11,0,0,0,0-14.2H372.2a7.11,7.11,0,0,0,0,14.2Z"/><path class="cls-7" d="M309.5,515.5H282.6a7.11,7.11,0,0,0,0,14.2h26.9a7.11,7.11,0,0,0,0-14.2Z"/><path class="cls-8" d="M408,515.5H336.4a7.11,7.11,0,0,0,0,14.2H408a7.11,7.11,0,0,0,0-14.2Z"/><path class="cls-9" d="M434.9,488.6H421.5a7.11,7.11,0,1,0-.6,14.2h13.9a7.11,7.11,0,0,0,.1-14.2Z"/><path class="cls-10" d="M297.5,99.7a5,5,0,0,1-5-5V68.9a5,5,0,1,1,10,0V94.7A5,5,0,0,1,297.5,99.7Z"/><path class="cls-11" d="M117.7,196.9c38.5,12,49.2,15.6,81.9,35.4l98-137C233.2,106.2,173.9,143.9,117.7,196.9Z"/><path class="cls-11" d="M477.4,196.9c-38.5,12-49.2,15.6-81.9,35.4l-98-137C361.9,106.2,421.1,143.9,477.4,196.9Z"/><path class="cls-12" d="M395.5,232.2c-23.3-48.9-57-94.2-97.9-136.9v-.1h0v.1c-43,42.7-77.3,87.8-97.9,136.9,34.4-2.3,65,.8,97.9,8.5h0C330.5,233,361.1,230,395.5,232.2Z"/><rect class="cls-13" x="292.5" y="139.5" width="10" height="120.4"/><path class="cls-14" d="M297.5,81.7c-93.9,0-171,63.5-179.9,115.7,23.9-17.2,53.8-27.3,89.9-27.6h0Q224.3,117,297.5,81.7Z"/><path class="cls-14" d="M297.5,81.7c93.8,0,171,63.5,179.9,115.7-23.9-17.2-53.8-27.3-90-27.6h0Q370.9,117,297.5,81.7Z"/><path class="cls-15" d="M387.5,169.7q-16.65-52.65-89.9-88h0q-73.35,35.25-90,88c36-10.3,58.7-12.5,90-7.1h0C328.7,157.2,351.5,159.4,387.5,169.7Z"/><path class="cls-16" d="M402.2,392.9V390h0a103.8,103.8,0,0,0-207.6,0,27.15,27.15,0,0,0,.1,2.9Z"/><path class="cls-17" d="M410.1,333.3a125.38,125.38,0,0,0-161.8-58.1,3.82,3.82,0,0,1-4.9-1.8l-2.8-6a3.8,3.8,0,0,1,1.7-5h.2c67.6-29.6,146.9-1.1,180.2,64.7a3.71,3.71,0,0,1-1.7,5h-.1L415,335A3.77,3.77,0,0,1,410.1,333.3Z"/><path class="cls-17" d="M170.8,372l-6.5-.9a3.86,3.86,0,0,1-3.2-4.2h0v-.1a139.14,139.14,0,0,1,43.8-80,3.69,3.69,0,0,1,5.3.3l.1.1,4.3,5a3.75,3.75,0,0,1-.3,5.2A125.06,125.06,0,0,0,175.1,369,3.88,3.88,0,0,1,170.8,372Z"/><path class="cls-18" d="M297.5,392.9l49.9-94.5A103.85,103.85,0,0,0,194.7,390a27.15,27.15,0,0,0,.1,2.9Z"/><path class="cls-19" d="M257.9,428.7a7.11,7.11,0,0,0,.6-14.2H204.3a7.11,7.11,0,0,0,0,14.2Z"/><path class="cls-19" d="M392.2,414.5H284.8a7.11,7.11,0,0,0,0,14.2H392.3a7,7,0,0,0,6.8-7.4A7.17,7.17,0,0,0,392.2,414.5Z"/><path class="cls-19" d="M305.3,448.5a7.13,7.13,0,0,0-7.1-7.1H208.7a7.11,7.11,0,0,0,0,14.2h89.5A7.19,7.19,0,0,0,305.3,448.5Z"/><path class="cls-19" d="M347.4,455.5a7.11,7.11,0,0,0,0-14.2H325a7.11,7.11,0,1,0-.6,14.2h23Z"/><path class="cls-19" d="M262.4,468.2H235.5a7.11,7.11,0,0,0,0,14.2h26.9a7,7,0,0,0,6.8-7.4A7.16,7.16,0,0,0,262.4,468.2Z"/><path class="cls-19" d="M360.9,468.2H289.3a7.11,7.11,0,0,0,0,14.2h71.6a7,7,0,0,0,6.8-7.4,7.16,7.16,0,0,0-6.8-6.8Z"/><path class="cls-19" d="M387.7,441.4H374.3a7.11,7.11,0,0,0,0,14.2h13.4a7.11,7.11,0,0,0,0-14.2Z"/><path class="cls-19" d="M408.5,394.7a7.13,7.13,0,0,0-7.1-7.1H195.2a7.11,7.11,0,0,0,0,14.2H401.4A7.13,7.13,0,0,0,408.5,394.7Z"/></g></svg>