<?xml version="1.0" encoding="utf-8"?>
<!-- Generator: Adobe Illustrator 23.0.1, SVG Export Plug-In . SVG Version: 6.00 Build 0)  -->
<svg version="1.1" id="Contenido" xmlns="http://www.w3.org/2000/svg" xmlns:xlink="http://www.w3.org/1999/xlink" x="0px" y="0px"
	 viewBox="0 0 600 600" style="enable-background:new 0 0 600 600;" xml:space="preserve">
<style type="text/css">
	.st0{fill:url(#SVGID_1_);}
	.st1{fill:url(#SVGID_2_);}
	.st2{fill:url(#SVGID_3_);}
	.st3{fill:url(#SVGID_4_);}
	.st4{fill:url(#SVGID_5_);}
	.st5{fill:url(#SVGID_6_);}
	.st6{fill:url(#SVGID_7_);}
	.st7{fill:url(#SVGID_8_);}
	.st8{fill:#123161;}
	.st9{fill:#4AA2A4;}
	.st10{fill:#3A8183;}
	.st11{fill:#0E2045;}
	.st12{fill:#7FDEDD;}
	.st13{fill:#65C8CB;}
	.st14{fill:#F8CD50;}
	.st15{fill:#FADE8E;}
	.st16{fill:url(#SVGID_9_);}
	.st17{fill:#1464A5;}
	.st18{fill:none;}
</style>
<title>Seguro Decesos</title>
<linearGradient id="SVGID_1_" gradientUnits="userSpaceOnUse" x1="249.0126" y1="508.1061" x2="452.9427" y2="124.5661" gradientTransform="matrix(1 0 0 -1 0 602)">
	<stop  offset="0" style="stop-color:#1C2645"/>
	<stop  offset="0" style="stop-color:#1C2645;stop-opacity:0.5"/>
	<stop  offset="1" style="stop-color:#1C2645;stop-opacity:0"/>
</linearGradient>
<path class="st0" d="M524.6,244.6c0-0.1-0.1-0.3-0.1-0.4h0.1l-0.1-0.1C515.3,192.9,441,131.2,349.7,129v-12.9c0-2.8-2.2-5-5-5
	s-5,2.2-5,5V129c-91.2,2.2-165.6,63.9-174.8,115.1l-0.1,0.1h0.1l-0.1,0.4l0.4-0.3c38.1,11.9,48.8,15.5,81.5,35.2
	c32.7-2.2,61.9,0.5,92.9,7.4v46.7c-0.7,0-1.4,0.1-2.1,0.1c-0.9,0.1-1.8,0.1-2.6,0.2c-1.7,0.2-3.5,0.4-5.2,0.7s-3.4,0.6-5.1,0.9
	c-11.6,2.4-22.7,6.8-32.9,12.9c-1.4,0.9-2.8,1.8-4.2,2.7c-28,18.8-45,50.1-45.7,83.8c-3.9,0.3-6.8,3.7-6.5,7.6
	c0.3,3.7,3.3,6.5,7,6.5h206.2c3.9,0,7.1-3.2,7.1-7.1c0-3.6-2.7-6.6-6.2-7c-0.8-37.5-21.8-71.6-54.9-89.3l0,0l-0.9-0.5
	c-0.4-0.2-0.8-0.4-1.3-0.6s-0.8-0.4-1.2-0.6s-1-0.5-1.6-0.8l-1-0.5c-0.9-0.4-1.7-0.8-2.6-1.1l-0.2-0.1c-0.8-0.4-1.7-0.7-2.5-1
	l-0.7-0.3c-0.7-0.3-1.4-0.5-2.1-0.8l-0.7-0.2c-0.8-0.3-1.6-0.5-2.4-0.8l-0.5-0.1c-1.9-0.6-3.8-1.1-5.8-1.6l-0.7-0.2l-2.1-0.5l-1-0.2
	l-1.9-0.4l-1-0.2l-2-0.4l-1.5-0.2c-0.7-0.1-1.4-0.2-2.1-0.3c-0.5-0.1-1-0.1-1.5-0.2l-1.3-0.1l-1.6-0.1l-1.2-0.1l-1.6-0.1l-1.3-0.1
	h-0.2v-46.7c31.1-6.9,60.3-9.6,92.9-7.4l0,0c32.6-19.7,43.4-23.4,81.5-35.2L524.6,244.6z"/>
<linearGradient id="SVGID_2_" gradientUnits="userSpaceOnUse" x1="127.4185" y1="416.6686" x2="321.4785" y2="51.6886" gradientTransform="matrix(1 0 0 -1 0 602)">
	<stop  offset="0" style="stop-color:#1C2645"/>
	<stop  offset="0" style="stop-color:#1C2645;stop-opacity:0.5"/>
	<stop  offset="1" style="stop-color:#1C2645;stop-opacity:0"/>
</linearGradient>
<path class="st1" d="M305.1,476c3.9-0.1,7-3.4,6.8-7.4c-0.1-3.7-3.1-6.7-6.8-6.8h-53.7c-3.9,0.1-7,3.4-6.8,7.4
	c0.1,3.7,3.1,6.7,6.8,6.8H305.1z"/>
<linearGradient id="SVGID_3_" gradientUnits="userSpaceOnUse" x1="212.7251" y1="458.8391" x2="404.5351" y2="98.0991" gradientTransform="matrix(1 0 0 -1 0 602)">
	<stop  offset="0" style="stop-color:#1C2645"/>
	<stop  offset="0" style="stop-color:#1C2645;stop-opacity:0.5"/>
	<stop  offset="1" style="stop-color:#1C2645;stop-opacity:0"/>
</linearGradient>
<path class="st2" d="M439.4,461.8H331.9c-3.9,0.1-7,3.4-6.8,7.4c0.1,3.7,3.1,6.7,6.8,6.8h107.4c3.9,0.1,7.2-2.9,7.4-6.8
	c0.1-3.9-2.9-7.2-6.8-7.4C439.7,461.8,439.5,461.8,439.4,461.8z"/>
<linearGradient id="SVGID_4_" gradientUnits="userSpaceOnUse" x1="136.065" y1="415.9305" x2="328.395" y2="54.2105" gradientTransform="matrix(1 0 0 -1 0 602)">
	<stop  offset="0" style="stop-color:#1C2645"/>
	<stop  offset="0" style="stop-color:#1C2645;stop-opacity:0.5"/>
	<stop  offset="1" style="stop-color:#1C2645;stop-opacity:0"/>
</linearGradient>
<path class="st3" d="M352.4,495.7c0-3.9-3.2-7.1-7.1-7.1h-89.5c-3.9,0.1-7,3.4-6.8,7.4c0.1,3.7,3.1,6.7,6.8,6.8h89.5
	C349.3,502.8,352.4,499.6,352.4,495.7z"/>
<linearGradient id="SVGID_5_" gradientUnits="userSpaceOnUse" x1="195.1088" y1="460.4094" x2="392.7289" y2="88.7394" gradientTransform="matrix(1 0 0 -1 0 602)">
	<stop  offset="0" style="stop-color:#1C2645"/>
	<stop  offset="0" style="stop-color:#1C2645;stop-opacity:0.5"/>
	<stop  offset="1" style="stop-color:#1C2645;stop-opacity:0"/>
</linearGradient>
<path class="st4" d="M394.6,502.8c3.9-0.1,7-3.4,6.8-7.4c-0.1-3.7-3.1-6.7-6.8-6.8h-22.4c-3.9,0.1-7,3.4-6.8,7.4
	c0.1,3.7,3.1,6.7,6.8,6.8H394.6z"/>
<linearGradient id="SVGID_6_" gradientUnits="userSpaceOnUse" x1="118.2303" y1="413.9502" x2="315.1003" y2="43.7002" gradientTransform="matrix(1 0 0 -1 0 602)">
	<stop  offset="0" style="stop-color:#1C2645"/>
	<stop  offset="0" style="stop-color:#1C2645;stop-opacity:0.5"/>
	<stop  offset="1" style="stop-color:#1C2645;stop-opacity:0"/>
</linearGradient>
<path class="st5" d="M309.5,515.5h-26.9c-3.9,0.1-7,3.4-6.8,7.4c0.1,3.7,3.1,6.7,6.8,6.8h26.9c3.9-0.1,7-3.4,6.8-7.4
	C316.2,518.6,313.2,515.6,309.5,515.5L309.5,515.5z"/>
<linearGradient id="SVGID_7_" gradientUnits="userSpaceOnUse" x1="180.5967" y1="439.7729" x2="373.6367" y2="76.7129" gradientTransform="matrix(1 0 0 -1 0 602)">
	<stop  offset="0" style="stop-color:#1C2645"/>
	<stop  offset="0" style="stop-color:#1C2645;stop-opacity:0.5"/>
	<stop  offset="1" style="stop-color:#1C2645;stop-opacity:0"/>
</linearGradient>
<path class="st6" d="M408,515.5h-71.6c-3.9,0.1-7,3.4-6.8,7.4c0.1,3.7,3.1,6.7,6.8,6.8H408c3.9-0.1,7-3.4,6.8-7.4
	C414.7,518.6,411.7,515.6,408,515.5z"/>
<linearGradient id="SVGID_8_" gradientUnits="userSpaceOnUse" x1="227.2932" y1="483.57" x2="426.9332" y2="108.11" gradientTransform="matrix(1 0 0 -1 0 602)">
	<stop  offset="0" style="stop-color:#1C2645"/>
	<stop  offset="0" style="stop-color:#1C2645;stop-opacity:0.5"/>
	<stop  offset="1" style="stop-color:#1C2645;stop-opacity:0"/>
</linearGradient>
<path class="st7" d="M434.9,488.6h-13.4c-3.9-0.1-7.2,2.9-7.4,6.8c-0.1,3.9,2.9,7.2,6.8,7.4c0.2,0,0.4,0,0.5,0h13.4
	c3.9-0.1,7-3.4,6.8-7.4C441.6,491.8,438.6,488.8,434.9,488.6L434.9,488.6z"/>
<path class="st8" d="M297.5,99.7c-2.8,0-5-2.2-5-5V68.9c0-2.8,2.2-5,5-5s5,2.2,5,5v25.8C302.5,97.4,300.3,99.7,297.5,99.7z"/>
<path class="st9" d="M117.7,196.9c38.5,12,49.2,15.6,81.9,35.4l98-137C233.2,106.2,173.9,143.9,117.7,196.9z"/>
<path class="st9" d="M477.4,196.9c-38.5,12-49.2,15.6-81.9,35.4l-98-137C361.9,106.2,421.1,143.9,477.4,196.9z"/>
<path class="st10" d="M395.5,232.2c-23.3-48.9-57-94.2-97.9-136.9v-0.1c0,0,0,0,0,0c0,0,0,0,0,0v0.1c-43,42.7-77.3,87.8-97.9,136.9
	c34.4-2.3,65,0.8,97.9,8.5v0c0,0,0,0,0,0c0,0,0,0,0,0v0C330.5,233,361.1,230,395.5,232.2z"/>
<rect x="292.5" y="139.5" class="st11" width="10" height="120.4"/>
<path class="st12" d="M297.5,81.7c-93.9,0-171,63.5-179.9,115.7c23.9-17.2,53.8-27.3,89.9-27.6l0,0
	C218.7,134.6,248.7,105.2,297.5,81.7z"/>
<path class="st12" d="M297.5,81.7c93.8,0,171,63.5,179.9,115.7c-23.9-17.2-53.8-27.3-90-27.6l0,0
	C376.4,134.6,346.4,105.2,297.5,81.7z"/>
<path class="st13" d="M387.5,169.7c-11.1-35.1-41-64.4-89.9-88v0c0,0,0,0,0,0c0,0,0,0,0,0v0c-48.9,23.5-78.9,52.9-90,88
	c36-10.3,58.7-12.5,90-7.1v0c0,0,0,0,0,0c0,0,0,0,0,0v0C328.7,157.2,351.5,159.4,387.5,169.7z"/>
<path class="st14" d="M402.2,392.9c0-1,0-2,0-2.9l0,0c0-57.3-46.5-103.8-103.8-103.8S194.6,332.6,194.6,390c0,1,0,2,0.1,2.9H402.2z"
	/>
<path class="st15" d="M410.1,333.3c-30.1-59.1-101-84.6-161.8-58.1c-1.8,0.8-4,0-4.9-1.8l-2.8-6c-0.9-1.8-0.1-4.1,1.7-5
	c0,0,0,0,0.1,0h0.1c67.6-29.6,146.9-1.1,180.2,64.7c0.9,1.8,0.2,4.1-1.7,5h-0.1L415,335C413.2,335.8,411,335.1,410.1,333.3z"/>
<path class="st15" d="M170.8,372l-6.5-0.9c-2-0.3-3.4-2.2-3.2-4.2c0,0,0,0,0,0c0,0,0-0.1,0-0.1c5.2-30.8,20.6-59,43.8-80
	c1.5-1.4,3.9-1.3,5.3,0.3l0.1,0.1l4.3,5c1.3,1.5,1.2,3.8-0.3,5.2c-20.7,18.8-34.5,44-39.2,71.6C174.7,370.9,172.8,372.3,170.8,372z"
	/>
<linearGradient id="SVGID_9_" gradientUnits="userSpaceOnUse" x1="192.494" y1="213.265" x2="350.6712" y2="297.3741" gradientTransform="matrix(1 0 0 -1 0 602)">
	<stop  offset="0" style="stop-color:#FFFFFF;stop-opacity:0.6"/>
	<stop  offset="1" style="stop-color:#FFFFFF;stop-opacity:0.2"/>
</linearGradient>
<path class="st16" d="M297.5,392.9l49.9-94.5c-50.6-27-113.5-7.8-140.5,42.8c-8,15-12.2,31.8-12.2,48.8c0,1,0,2,0.1,2.9L297.5,392.9
	z"/>
<path class="st17" d="M257.9,428.7c3.9,0.1,7.2-2.9,7.4-6.8c0.1-3.9-2.9-7.2-6.8-7.4c-0.2,0-0.4,0-0.5,0h-53.7
	c-3.9,0.1-7,3.4-6.8,7.4c0.1,3.7,3.1,6.7,6.8,6.8H257.9z"/>
<path class="st17" d="M392.2,414.5H284.8c-3.9,0.1-7,3.4-6.8,7.4c0.1,3.7,3.1,6.7,6.8,6.8h107.5c3.9-0.1,7-3.4,6.8-7.4
	C398.9,417.6,395.9,414.6,392.2,414.5z"/>
<path class="st17" d="M305.3,448.5c0-3.9-3.2-7.1-7.1-7.1h-89.5c-3.9,0.1-7,3.4-6.8,7.4c0.1,3.7,3.1,6.7,6.8,6.8h89.5
	C302.1,455.5,305.3,452.4,305.3,448.5z"/>
<path class="st17" d="M347.4,455.5c3.9-0.1,7-3.4,6.8-7.4c-0.1-3.7-3.1-6.7-6.8-6.8H325c-3.9-0.1-7.2,2.9-7.4,6.8
	c-0.1,3.9,2.9,7.2,6.8,7.4c0.2,0,0.4,0,0.5,0H347.4z"/>
<path class="st17" d="M262.4,468.2h-26.9c-3.9,0.1-7,3.4-6.8,7.4c0.1,3.7,3.1,6.7,6.8,6.8h26.9c3.9-0.1,7-3.4,6.8-7.4
	C269,471.3,266.1,468.4,262.4,468.2z"/>
<path class="st17" d="M360.9,468.2h-71.6c-3.9,0.1-7,3.4-6.8,7.4c0.1,3.7,3.1,6.7,6.8,6.8h71.6c3.9-0.1,7-3.4,6.8-7.4
	C367.5,471.3,364.6,468.4,360.9,468.2L360.9,468.2z"/>
<path class="st17" d="M387.7,441.4h-13.4c-3.9,0.1-7,3.4-6.8,7.4c0.1,3.7,3.1,6.7,6.8,6.8h13.4c3.9-0.1,7-3.4,6.8-7.4
	C394.4,444.5,391.4,441.5,387.7,441.4z"/>
<path class="st17" d="M408.5,394.7c0-3.9-3.2-7.1-7.1-7.1H195.2c-3.9,0.1-7,3.4-6.8,7.4c0.1,3.7,3.1,6.7,6.8,6.8h206.2
	C405.3,401.8,408.5,398.6,408.5,394.7z"/>
<g>
	<rect y="0" class="st18" width="600" height="600"/>
</g>
</svg>
