<svg id="Contenido" xmlns="http://www.w3.org/2000/svg" xmlns:xlink="http://www.w3.org/1999/xlink" viewBox="0 0 600 600"><defs><style>.cls-1{fill:url(#Degradado_sin_nombre_6);}.cls-2{fill:#eaf9fa;}.cls-3{fill:url(#Degradado_sin_nombre_3);}.cls-4{fill:#49a5e6;}.cls-5{fill:#1464a5;}.cls-6{fill:#f8cd50;}.cls-7{fill:url(#Degradado_sin_nombre_4);}.cls-8{fill:url(#Degradado_sin_nombre_4-2);}.cls-9{fill:url(#Degradado_sin_nombre_5);}.cls-10{fill:#043263;}.cls-11{fill:#2dcccd;}.cls-12{fill:#fff;}.cls-13{fill:none;}</style><linearGradient id="Degradado_sin_nombre_6" x1="256.97" y1="396.63" x2="450.2" y2="760.05" gradientTransform="translate(0 -239.89)" gradientUnits="userSpaceOnUse"><stop offset="0" stop-color="#192647"/><stop offset="0" stop-color="#192647" stop-opacity="0.5"/><stop offset="1" stop-color="#192647" stop-opacity="0"/></linearGradient><linearGradient id="Degradado_sin_nombre_3" x1="453.58" y1="528.34" x2="211.78" y2="528.34" gradientTransform="translate(0 -239.89)" gradientUnits="userSpaceOnUse"><stop offset="0" stop-color="#192647"/><stop offset="0" stop-color="#043263" stop-opacity="0.1"/><stop offset="1" stop-color="#043263" stop-opacity="0"/></linearGradient><linearGradient id="Degradado_sin_nombre_4" x1="428.58" y1="430.84" x2="245.58" y2="430.84" gradientTransform="translate(0 -239.89)" gradientUnits="userSpaceOnUse"><stop offset="0" stop-color="#192647"/><stop offset="0" stop-color="#043263" stop-opacity="0.4"/><stop offset="1" stop-color="#043263" stop-opacity="0.1"/></linearGradient><linearGradient id="Degradado_sin_nombre_4-2" x1="428.58" y1="635.84" x2="305.18" y2="635.84" xlink:href="#Degradado_sin_nombre_4"/><linearGradient id="Degradado_sin_nombre_5" x1="4162.15" y1="288.19" x2="4102.42" y2="228.44" gradientTransform="translate(4471.76 549.84) rotate(180)" gradientUnits="userSpaceOnUse"><stop offset="0" stop-color="#fff" stop-opacity="0.6"/><stop offset="1" stop-color="#fff" stop-opacity="0.15"/></linearGradient></defs><path class="cls-1" d="M226.58,176h254a23,23,0,0,1,23,23V478a23,23,0,0,1-23,23h-254a23,23,0,0,1-23-23V199A23,23,0,0,1,226.58,176Z"/><path class="cls-2" d="M176.58,126h254a23,23,0,0,1,23,23V428a23,23,0,0,1-23,23h-254a23,23,0,0,1-23-23V149A23,23,0,0,1,176.58,126Z"/><path class="cls-3" d="M430.58,126H395L211.78,451h218.8a23,23,0,0,0,23-23h0V149a23,23,0,0,0-23-23Z"/><path class="cls-4" d="M181.58,376h244a3,3,0,0,1,3,3v37h-250V379A3,3,0,0,1,181.58,376Z"/><path class="cls-5" d="M425.58,151h-244a3,3,0,0,0-3,3v74a3,3,0,0,0,3,3h244a3,3,0,0,0,3-3V154A3,3,0,0,0,425.58,151Z"/><path class="cls-6" d="M311.58,261h114a3,3,0,0,1,3,3v79a3,3,0,0,1-3,3h-114a3,3,0,0,1-3-3V264A3,3,0,0,1,311.58,261Z"/><path class="cls-7" d="M288.68,151l-43.1,80h180a3,3,0,0,0,3-3V154a3,3,0,0,0-3-3Z"/><path class="cls-8" d="M428.58,379a3,3,0,0,0-3-3h-98l-22.4,40h123.4Z"/><path class="cls-9" d="M311.58,346h33.2l47.7-85h-80.9a3,3,0,0,0-3,3v79A3,3,0,0,0,311.58,346Z"/><path class="cls-10" d="M178.58,416h250v7a3,3,0,0,1-3,3h-244a3,3,0,0,1-3-3v-7Z"/><rect class="cls-11" x="178.58" y="260.95" width="100" height="10"/><rect class="cls-11" x="178.58" y="285.95" width="100" height="10"/><rect class="cls-11" x="178.58" y="310.95" width="100" height="10"/><rect class="cls-11" x="178.58" y="335.95" width="60" height="10"/><path class="cls-12" d="M205.14,217.26V170.63h14.3c14.24,0,24.95,6.05,24.95,23.06,0,17.52-10.9,23.57-24.95,23.57Zm10.21-8.32h4.78c10.15,0,14-4.54,14-15.12,0-10-3.91-14.62-14.11-14.62h-4.66Z"/><path class="cls-12" d="M254.28,217.26V170.63H286v8.57H264.55v10h16.69l1.52,8.13H264.55v11.59h22.62v8.32Z"/><path class="cls-12" d="M296.68,217.26V170.63h13.54l10.4,34.28h.12l9.71-34.28h13.86v46.63h-9.89V185.44h-.13a82.59,82.59,0,0,1-2.58,10.39l-7,21.43h-9.07l-6.93-21.43A82.87,82.87,0,0,1,306,184.94h-.12v32.32Z"/><path class="cls-12" d="M354.2,193.94c0-16.38,10.71-24.19,22-24.19s21.93,7.81,21.93,24.19-10.71,24.2-21.93,24.2S354.2,210.33,354.2,193.94Zm33.7,0c0-9.76-4.53-15.68-11.72-15.68s-11.72,5.92-11.72,15.68,4.48,15.94,11.72,15.94S387.9,203.71,387.9,193.94Z"/><rect class="cls-13" width="600" height="600"/></svg>