<svg xmlns="http://www.w3.org/2000/svg" xmlns:xlink="http://www.w3.org/1999/xlink" viewBox="0 0 600 600"><defs><style>.cls-1{fill:none;}.cls-2{fill:#028484;}.cls-3{fill:url(#Degradado_sin_nombre_117);}.cls-4{fill:#49a5e6;}.cls-5{fill:#043263;}.cls-6{fill:url(#Degradado_sin_nombre_482);}.cls-7{fill:#2dcccd;}.cls-8{fill:#072146;}.cls-9{fill:#1464a5;}</style><linearGradient id="Degradado_sin_nombre_117" x1="239.52" y1="140.21" x2="460.48" y2="555.79" gradientTransform="translate(0 2)" gradientUnits="userSpaceOnUse"><stop offset="0" stop-color="#192647" stop-opacity="0.5"/><stop offset="1" stop-color="#192647" stop-opacity="0"/></linearGradient><linearGradient id="Degradado_sin_nombre_482" x1="445" y1="298" x2="174.1" y2="298" gradientTransform="translate(0 2)" gradientUnits="userSpaceOnUse"><stop offset="0" stop-color="#072146"/><stop offset="1" stop-color="#072146" stop-opacity="0"/></linearGradient></defs><title>13</title><g id="Cuadrados_Blancos" data-name="Cuadrados Blancos"><rect class="cls-1" width="600" height="600"/></g><g id="Capa_30" data-name="Capa 30"><path class="cls-2" d="M113.5,253H120v6h-3.5a3,3,0,0,1-3-3v-3Z"/><path class="cls-3" d="M507,170H193a23,23,0,0,0-23,23v62h-3.5a3,3,0,0,0-3,3v42a3,3,0,0,0,3,3H170v94h-3.5a3,3,0,0,0-3,3v42a3,3,0,0,0,3,3H170v62a23,23,0,0,0,23,23H507a23,23,0,0,0,23-23V193A23,23,0,0,0,507,170Z"/><path class="cls-4" d="M143,120H457a23,23,0,0,1,23,23V457a23,23,0,0,1-23,23H143a23,23,0,0,1-23-23V143A23,23,0,0,1,143,120Z"/><path class="cls-5" d="M171,155H429a16,16,0,0,1,16,16V429a16,16,0,0,1-16,16H171a16,16,0,0,1-16-16V171A16,16,0,0,1,171,155Z"/><path class="cls-6" d="M429,155H335.9L174.1,445H429a16,16,0,0,0,16-16V171A16,16,0,0,0,429,155Z"/><path class="cls-7" d="M116.5,205h42a3,3,0,0,1,3,3v42a3,3,0,0,1-3,3h-45V208A3,3,0,0,1,116.5,205Z"/><circle class="cls-8" cx="349" cy="296" r="53"/><path class="cls-7" d="M341.8,226h14.5a2.8,2.8,0,0,1,2.8,2.8V363.3a2.8,2.8,0,0,1-2.8,2.8H341.8a2.8,2.8,0,0,1-2.8-2.8V228.8A2.73,2.73,0,0,1,341.8,226Z"/><path class="cls-7" d="M406,254.7l7.2,12.5a2.79,2.79,0,0,1-1,3.8L295.8,338.2a2.79,2.79,0,0,1-3.8-1l-7.2-12.5a2.79,2.79,0,0,1,1-3.8l116.4-67.2A2.88,2.88,0,0,1,406,254.7Z"/><path class="cls-7" d="M413.2,324.7,406,337.2a2.79,2.79,0,0,1-3.8,1L285.8,271a2.79,2.79,0,0,1-1-3.8l7.2-12.5a2.79,2.79,0,0,1,3.8-1L412.2,321A2.65,2.65,0,0,1,413.2,324.7Z"/><circle class="cls-7" cx="349" cy="296" r="35"/><circle class="cls-9" cx="349" cy="296" r="17"/><path class="cls-7" d="M113.5,253h3a3,3,0,0,1-3,3h0v-3Z"/><path class="cls-2" d="M113.5,395H120v6h-3.5a3,3,0,0,1-3-3v-3Z"/><path class="cls-7" d="M116.5,347h42a3,3,0,0,1,3,3v42a3,3,0,0,1-3,3h-45V350A3,3,0,0,1,116.5,347Z"/><path class="cls-7" d="M113.5,395h3a3,3,0,0,1-3,3h0v-3Z"/></g></svg>