<?xml version="1.0" encoding="utf-8"?>
<!-- Generator: Adobe Illustrator 23.0.1, SVG Export Plug-In . SVG Version: 6.00 Build 0)  -->
<svg version="1.1" id="Contenido" xmlns="http://www.w3.org/2000/svg" xmlns:xlink="http://www.w3.org/1999/xlink" x="0px" y="0px"
	 viewBox="0 0 600 600" style="enable-background:new 0 0 600 600;" xml:space="preserve">
<style type="text/css">
	.st0{fill:#028484;}
	.st1{fill:url(#SVGID_1_);}
	.st2{fill:#49A5E6;}
	.st3{fill:#1464A5;}
	.st4{fill:url(#SVGID_2_);}
	.st5{fill:#2DCCCD;}
	.st6{fill:#043263;}
</style>
<title>_</title>
<path class="st0" d="M113.5,253h6.5l0,0v6l0,0h-3.5c-1.7,0-3-1.3-3-3V253L113.5,253z"/>
<linearGradient id="SVGID_1_" gradientUnits="userSpaceOnUse" x1="239.5207" y1="459.7887" x2="460.4793" y2="44.2113" gradientTransform="matrix(1 0 0 -1 0 602)">
	<stop  offset="0" style="stop-color:#192647"/>
	<stop  offset="0" style="stop-color:#192647;stop-opacity:0.5"/>
	<stop  offset="1" style="stop-color:#192647;stop-opacity:0"/>
</linearGradient>
<path class="st1" d="M507,170H193c-12.7,0-23,10.3-23,23v62h-3.5c-1.7,0-3,1.3-3,3v42c0,1.7,1.3,3,3,3h3.5v94h-3.5c-1.7,0-3,1.3-3,3
	v42c0,1.7,1.3,3,3,3h3.5v62c0,12.7,10.3,23,23,23h314c12.7,0,23-10.3,23-23V193C530,180.3,519.7,170,507,170z"/>
<path class="st2" d="M143,120h314c12.7,0,23,10.3,23,23v314c0,12.7-10.3,23-23,23H143c-12.7,0-23-10.3-23-23V143
	C120,130.3,130.3,120,143,120z"/>
<path class="st3" d="M171,155h258c8.8,0,16,7.2,16,16v258c0,8.8-7.2,16-16,16H171c-8.8,0-16-7.2-16-16V171
	C155,162.2,162.2,155,171,155z"/>
<linearGradient id="SVGID_2_" gradientUnits="userSpaceOnUse" x1="445" y1="302" x2="174.12" y2="302" gradientTransform="matrix(1 0 0 -1 0 602)">
	<stop  offset="0" style="stop-color:#043263;stop-opacity:0.6"/>
	<stop  offset="1" style="stop-color:#043263;stop-opacity:0"/>
</linearGradient>
<path class="st4" d="M429,155h-93.1L174.1,445H429c8.8,0,16-7.2,16-16V171C445,162.2,437.8,155,429,155z"/>
<path class="st5" d="M116.5,205h42c1.7,0,3,1.3,3,3v42c0,1.7-1.3,3-3,3h-45l0,0v-45C113.5,206.3,114.8,205,116.5,205z"/>
<circle class="st6" cx="349" cy="296" r="53"/>
<path class="st5" d="M341.8,226h14.5c1.5,0,2.8,1.2,2.8,2.8v134.5c0,1.5-1.2,2.8-2.8,2.8h-14.5c-1.5,0-2.8-1.2-2.8-2.8V228.8
	C339,227.2,340.2,226,341.8,226z"/>
<path class="st5" d="M406,254.7l7.2,12.5c0.8,1.3,0.3,3-1,3.8l-116.4,67.2c-1.3,0.8-3,0.3-3.8-1l-7.2-12.5c-0.8-1.3-0.3-3,1-3.8
	l116.4-67.2C403.5,253,405.2,253.4,406,254.7z"/>
<path class="st5" d="M413.2,324.7l-7.2,12.5c-0.8,1.3-2.5,1.8-3.8,1L285.8,271c-1.3-0.8-1.8-2.5-1-3.8l7.2-12.5
	c0.8-1.3,2.5-1.8,3.8-1L412.2,321C413.5,321.7,414,323.4,413.2,324.7z"/>
<circle class="st5" cx="349" cy="296" r="35"/>
<circle class="st3" cx="349" cy="296" r="17"/>
<path class="st5" d="M113.5,253h3l0,0l0,0c0,1.7-1.3,3-3,3l0,0l0,0V253L113.5,253z"/>
<path class="st0" d="M113.5,395h6.5l0,0v6l0,0h-3.5c-1.7,0-3-1.3-3-3V395L113.5,395z"/>
<path class="st5" d="M116.5,347h42c1.7,0,3,1.3,3,3v42c0,1.7-1.3,3-3,3h-45l0,0v-45C113.5,348.3,114.8,347,116.5,347z"/>
<path class="st5" d="M113.5,395h3l0,0l0,0c0,1.7-1.3,3-3,3l0,0l0,0V395L113.5,395z"/>
</svg>
