<svg id="Contenido" xmlns="http://www.w3.org/2000/svg" xmlns:xlink="http://www.w3.org/1999/xlink" viewBox="0 0 600 600"><defs><style>.cls-1{fill:url(#Degradado_sin_nombre_10);}.cls-2{fill:#f6cb5c;}.cls-3{fill:#fdf4dc;}.cls-4{fill:url(#Degradado_sin_nombre_14);}.cls-5{fill:url(#Degradado_sin_nombre_14-2);}.cls-6{fill:url(#Degradado_sin_nombre_14-3);}.cls-7{fill:#49a5e6;}.cls-8{fill-rule:evenodd;opacity:0.5;isolation:isolate;fill:url(#Degradado_sin_nombre_9);}.cls-9{fill:#d1eaf8;}.cls-10{fill:#09467f;}</style><linearGradient id="Degradado_sin_nombre_10" x1="307.68" y1="263.93" x2="432.68" y2="499.02" gradientUnits="userSpaceOnUse"><stop offset="0.01" stop-color="#043263" stop-opacity="0.5"/><stop offset="1" stop-color="#043263" stop-opacity="0"/></linearGradient><linearGradient id="Degradado_sin_nombre_14" x1="94.03" y1="348.27" x2="116.27" y2="360.1" gradientUnits="userSpaceOnUse"><stop offset="0" stop-color="#fff" stop-opacity="0.6"/><stop offset="1" stop-color="#fff" stop-opacity="0.2"/></linearGradient><linearGradient id="Degradado_sin_nombre_14-2" x1="133.61" y1="333.56" x2="164.75" y2="350.12" xlink:href="#Degradado_sin_nombre_14"/><linearGradient id="Degradado_sin_nombre_14-3" x1="188.61" y1="318.86" x2="228.65" y2="340.15" xlink:href="#Degradado_sin_nombre_14"/><linearGradient id="Degradado_sin_nombre_9" x1="281.48" y1="14645.67" x2="406.53" y2="14579.18" gradientTransform="matrix(1, 0, 0, -1, 0, 14903.6)" gradientUnits="userSpaceOnUse"><stop offset="0" stop-color="#e7f6f7"/><stop offset="1" stop-color="#e7f6f7" stop-opacity="0.2"/><stop offset="1" stop-color="#e7f6f7" stop-opacity="0.5"/></linearGradient></defs><title>_</title><path class="cls-1" d="M551.16,265H307.26a6.24,6.24,0,0,0-6.28,6.25v.42a8.93,8.93,0,0,0-.07,1v78.37q-1.77-1-3.63-1.89l-.44-.2q-1-.44-1.92-.81l-.53-.21c-.68-.26-1.37-.51-2.07-.74l-.35-.11c-.84-.27-1.68-.52-2.54-.73l-.06,0c-.8-.2-1.6-.37-2.41-.53l-.72-.13c-.61-.11-1.22-.2-1.83-.29l-.86-.11c-.6-.07-1.22-.12-1.83-.17l-.79-.06c-.87-.05-1.75-.08-2.63-.08A44.85,44.85,0,0,0,245,359.76c-.48.53-.95,1.08-1.41,1.63-.92,1.12-1.78,2.27-2.59,3.47q-.61.9-1.17,1.83a44.1,44.1,0,0,0-3.16,6.25,35,35,0,0,0-4.7-3.25c-.34-.2-.68-.37-1-.56h0l-.17-.09c-.49-.26-1-.51-1.5-.74l-.26-.13a35.6,35.6,0,0,0-3.85-1.5l-.09,0c-.63-.2-1.26-.38-1.9-.55l-.19-.05c-.66-.16-1.31-.31-2-.43h0a34.34,34.34,0,0,0-6.37-.6h-.35l-1.22,0c-.23,0-.45,0-.68,0l-.85.06-1,.1-.45.06c-.46,0-.91.12-1.36.19h0a34.35,34.35,0,0,0-9.54,3.06l-.16.08-1.26.65-1.29.75-.09.05a34.76,34.76,0,0,0-10.8,10.28l-.11.15c-.25.37-.49.76-.74,1.15l-.22.38c-.1.16-.21.32-.3.48s-.21.38-.31.57l-.27.49c-.18.34-.35.68-.52,1-.09.17-.17.34-.25.51-.17.35-.33.7-.48,1.06l-.21.51c-.15.36-.3.73-.44,1.1-.06.16-.12.33-.17.49q-.21.57-.39,1.14l-.15.49v0a24.62,24.62,0,0,0-2.39-1.57l-.73-.4h0l-.12-.07-1.07-.53-.19-.09a26.46,26.46,0,0,0-2.75-1.07l-.06,0c-.45-.14-.9-.27-1.36-.38l-.14,0c-.46-.12-.93-.22-1.4-.31h0a25.86,25.86,0,0,0-4.55-.43h-.25l-.87,0-.49,0-.61,0-.71.07-.33,0-1,.14h0a24.55,24.55,0,0,0-6.81,2.18l-.12.06-.9.47c-.3.16-.6.34-.9.52l-.08,0a24.93,24.93,0,0,0-7.72,7.33l-.07.11c-.18.27-.36.55-.53.83l-.16.27-.22.34-.21.41c-.07.11-.13.23-.2.35s-.25.48-.37.73l-.18.37c-.12.25-.23.5-.34.75l-.15.37c-.11.26-.21.52-.31.78s-.09.24-.13.35c-.1.28-.19.55-.28.82s-.07.23-.1.35q-.14.42-.24.84l-.09.34c-.07.29-.13.57-.19.86,0,.12,0,.24-.08.36l-.15.84-.06.4c0,.27-.07.55-.1.82s0,.3-.05.45,0,.51,0,.76l0,.53c0,.22,0,.44,0,.66s0,.23,0,.35,0,.15,0,.23c0,.41,0,.83.05,1.24s0,.56.06.83l.09.82.12.85c0,.18.06.35.1.52.1.55.22,1.1.35,1.64l.11.41c.08.29.16.57.25.85s.13.42.2.63l.24.69c.17.44.34.88.53,1.31,0,.09.09.18.13.28a25,25,0,0,0,44.39,2.22,35,35,0,0,0,56.21-3.6l.34.39.39.45.81.89.33.34c.58.61,1.17,1.19,1.77,1.76l.15.14,1,.89.27.24c1.05.91,2.15,1.77,3.28,2.57l.22.16c1.17.82,2.37,1.59,3.62,2.31l.15.09c.43.23.85.47,1.28.69h0a44.84,44.84,0,0,0,43.46-1,6.13,6.13,0,0,0,6.19,6.12h244a7.75,7.75,0,0,0,7.75-7.71V272.71A7.75,7.75,0,0,0,551.16,265Z"/><path class="cls-2" d="M128.59,338.37a25,25,0,1,1-34.16,9.16h0a25,25,0,0,1,34.16-9.16"/><path class="cls-3" d="M125.65,354.32c2.35,4.06,1.43,8.23-2.59,11.74l1.88,3.26-2.42,1.4-1.71-3c-.33.22-.67.41-1,.6l-.68.4,1.7,2.95-2.38,1.37-1.87-3.22c-5,1.79-9.43.5-11.73-3.48-1.95-3.38-1.79-6.57.48-9.48l0-.06,3.39,2-.08.09c-1.69,1.91-1.92,3.66-.76,5.68,1.3,2.24,3.61,2.88,6.68,1.84l-2.88-5,2.39-1.38,3,5.23.61-.35c.37-.21.74-.43,1.07-.65l-3-5.24,2.42-1.4,2.86,4.95c2.36-2.14,2.87-4.29,1.54-6.59-1.2-2.08-2.85-2.74-5.51-2.18l-.12,0,.07-3.91h.09A8.41,8.41,0,0,1,125.65,354.32Z"/><path class="cls-4" d="M116.07,335a25,25,0,0,0-11.53,47.14L127.86,338A24.89,24.89,0,0,0,116.07,335Z"/><path class="cls-2" d="M182,319.69a35,35,0,1,1-47.82,12.83h0A35,35,0,0,1,182,319.69"/><path class="cls-3" d="M179.38,357.94c-3.28,5.69-9,7.49-16,5.08l-2.64,4.57-3.39-2,2.4-4.16c-.49-.24-1-.51-1.43-.78l-1-.55-2.39,4.13-3.34-1.93,2.61-4.52c-5.72-4.87-7.21-11.09-4-16.66,2.74-4.74,6.71-6.77,11.83-6.06l.12,0-.06,5.51-.16,0c-3.49-.72-5.78.22-7.41,3-1.81,3.14-1,6.38,2.44,9.38l4-7,3.34,1.93-4.23,7.32.86.5c.51.29,1,.59,1.53.83l4.24-7.33,3.39,1.95-4,6.93c4.24,1.37,7.21.48,9.06-2.73,1.69-2.93,1.33-5.39-1.21-8.22l-.11-.13,4.79-2.65.07.1A11.74,11.74,0,0,1,179.38,357.94Z"/><path class="cls-5" d="M164.47,315a35,35,0,0,0-16.15,66L181,319.13A34.92,34.92,0,0,0,164.47,315Z"/><path class="cls-2" d="M273.33,340a45,45,0,1,1-45-45h0a45,45,0,0,1,45,45"/><path class="cls-3" d="M229.06,361.67c-8.45,0-14.12-5.18-16-14.61H206.3v-5h6.18c0-.7,0-1.41,0-2.1v-1.41H206.3v-5H213c1.74-9.5,7.71-15.16,16-15.16,7,0,11.85,3.12,14.34,9.27l.06.14-6.17,3.49-.06-.2c-1.45-4.35-4-6.29-8.17-6.29-4.66,0-7.73,3-8.88,8.75h10.36v5H219.59v1.27c0,.76,0,1.53.06,2.24h10.89v5H220.25c1.2,5.61,4.11,8.34,8.88,8.34,4.34,0,6.84-2,8.37-6.63l.07-.21,6,3.64-.06.14A15.14,15.14,0,0,1,229.06,361.67Z"/><path class="cls-6" d="M228.3,295a45,45,0,0,0-20.77,84.86l42-79.55A44.81,44.81,0,0,0,228.3,295Z"/><path class="cls-7" d="M258.65,215H501.16a7.75,7.75,0,0,1,7.75,7.71V377.29a7.75,7.75,0,0,1-7.75,7.71H258.65a7.75,7.75,0,0,1-7.74-7.71V222.71A7.69,7.69,0,0,1,258.65,215Z"/><path class="cls-8" d="M257.18,385H381.8l83.81-170H257.26a6.24,6.24,0,0,0-6.28,6.24h0V378.68A6.15,6.15,0,0,0,257.18,385Z"/><rect class="cls-9" x="273.99" y="298.19" width="96.43" height="22.59" rx="2.36"/><rect class="cls-9" x="273.99" y="336.27" width="210.52" height="22.59" rx="2.36"/><path class="cls-10" d="M357.25,241.6,348,259.18a.62.62,0,0,1-.78.23l-.23-.23-9.3-17.58a.61.61,0,0,0-.46-.31H332.7a.36.36,0,0,0-.39.39c0,.07,0,.15.08.15L347,269.05a.53.53,0,0,0,.69.23l.24-.23,14.63-27.22a.45.45,0,0,0-.15-.54c-.08,0-.16-.08-.23-.08h-4.5a.79.79,0,0,0-.46.39"/><path class="cls-10" d="M362.52,265.11l9.29-17.57a.61.61,0,0,1,.78-.24l.23.24,9.29,17.57a.63.63,0,0,0,.47.31h4.49a.36.36,0,0,0,.39-.38c0-.08,0-.16-.08-.16l-14.64-27.21a.53.53,0,0,0-.7-.23l-.23.23L357.25,264.8a.43.43,0,0,0,.16.54c.07,0,.07.08.15.08h4.49c.23-.08.39-.15.47-.31"/><path class="cls-10" d="M293.12,265.34h-8.37a.53.53,0,0,1-.54-.54h0v-7.47a.53.53,0,0,1,.54-.54h8.37c3.95,0,5.73,1.15,5.73,4.24s-1.7,4.31-5.73,4.31m-8.37-20H293c3,0,4.57,1.31,4.57,3.7s-1.55,3.7-4.57,3.7h-8.21a.53.53,0,0,1-.54-.54h0v-6.32a.53.53,0,0,1,.54-.54h0m14.33,8.94a6.18,6.18,0,0,0,3.18-5.63c0-4.39-3.41-7.32-8.29-7.32H280a.53.53,0,0,0-.54.54h0V269a.53.53,0,0,0,.54.54h13.32c6.66,0,10.15-2.85,10.15-8.41s-4.42-6.78-4.42-6.78"/><path class="cls-10" d="M321.62,265.34h-8.36a.53.53,0,0,1-.55-.54v-7.47a.53.53,0,0,1,.55-.54h8.36c3.95,0,5.73,1.15,5.73,4.24s-1.7,4.31-5.73,4.31m-8.36-20h8.21c3,0,4.57,1.31,4.57,3.7s-1.55,3.7-4.57,3.7h-8.21a.53.53,0,0,1-.55-.54v-6.32a.53.53,0,0,1,.55-.54h0m14.4,8.94a6.18,6.18,0,0,0,3.18-5.63c0-4.39-3.41-7.32-8.29-7.32H308.61a.53.53,0,0,0-.54.54h0V269a.53.53,0,0,0,.54.54h13.32c6.66,0,10.15-2.85,10.15-8.41s-4.42-6.78-4.42-6.78"/></svg>