<svg id="Contenido" xmlns="http://www.w3.org/2000/svg" xmlns:xlink="http://www.w3.org/1999/xlink" viewBox="0 0 600 600"><defs><style>.cls-1{fill:#f6cb5c;}.cls-2{fill:url(#Degradado_sin_nombre_2);}.cls-3{fill:#fdf4dc;}.cls-4{fill:url(#Degradado_sin_nombre);}.cls-5{fill:url(#Degradado_sin_nombre_2-2);}.cls-6{fill:url(#Degradado_sin_nombre_2-3);}.cls-7{fill:#49a5e6;}.cls-8{fill-rule:evenodd;opacity:0.5;isolation:isolate;fill:url(#Degradado_sin_nombre_5);}.cls-9{fill:#d1eaf8;}.cls-10{fill:#09467f;}</style><linearGradient id="Degradado_sin_nombre_2" x1="94.02" y1="251.4" x2="116.26" y2="239.57" gradientTransform="matrix(1, 0, 0, -1, 0, 599.67)" gradientUnits="userSpaceOnUse"><stop offset="0" stop-color="#fff" stop-opacity="0.6"/><stop offset="1" stop-color="#fff" stop-opacity="0.2"/></linearGradient><linearGradient id="Degradado_sin_nombre" x1="307.87" y1="335.84" x2="432.82" y2="100.85" gradientTransform="matrix(1, 0, 0, -1, 0, 599.67)" gradientUnits="userSpaceOnUse"><stop offset="0.01" stop-color="#043263" stop-opacity="0.5"/><stop offset="1" stop-color="#043263" stop-opacity="0"/></linearGradient><linearGradient id="Degradado_sin_nombre_2-2" x1="133.7" y1="266.15" x2="164.79" y2="249.61" xlink:href="#Degradado_sin_nombre_2"/><linearGradient id="Degradado_sin_nombre_2-3" x1="188.61" y1="280.82" x2="228.64" y2="259.52" xlink:href="#Degradado_sin_nombre_2"/><linearGradient id="Degradado_sin_nombre_5" x1="281.48" y1="-13920" x2="406.53" y2="-13853.51" gradientTransform="translate(0 14177.93)" gradientUnits="userSpaceOnUse"><stop offset="0" stop-color="#e7f6f7"/><stop offset="1" stop-color="#e7f6f7" stop-opacity="0.2"/><stop offset="1" stop-color="#e7f6f7" stop-opacity="0.5"/></linearGradient></defs><path class="cls-1" d="M141.08,360a25,25,0,1,1-25-25h0a25,25,0,0,1,25,25"/><path class="cls-2" d="M116.07,335a25,25,0,0,0-11.54,47.14L127.86,338A25,25,0,0,0,116.07,335Z"/><path class="cls-3" d="M118,354.63c-1.26,1.07-1.34,2-.39,5.29,1.36,4.75,1,6.77-1.38,8.81s-5.7,1.5-7.87,0l-2.92,2.48-.1-.12-1.15-3.84,1.61-1.36a8.55,8.55,0,0,1-1.26-3.26l0-.22v-.14l.13-.07.2-.12,2.52-1.53.46-.29.32-.21,0,.38V361a6.85,6.85,0,0,0,1.59,4.13c1.24,1.46,2.61,1.72,3.72.78s1.08-1.82.17-5.07c-1.32-4.77-1.06-7,1.51-9.13a6.66,6.66,0,0,1,7.83-.41l3.36-2.85.2.23.75,4L125.7,354a17.14,17.14,0,0,1,2.15,4.73l.06.25,0,.17-.11.1-.2.12L125.07,361l-.46.29-.29.2,0-.36-.07-.5a9.82,9.82,0,0,0-2.12-5.18c-1.26-1.59-2.84-1.86-4.09-.8"/><path class="cls-4" d="M551.16,265H307.26a6.24,6.24,0,0,0-6.28,6.2v.47a8.4,8.4,0,0,0-.07,1V351q-1.77-1-3.63-1.89l-.44-.2-1.92-.81-.53-.21c-.68-.26-1.37-.51-2.07-.74l-.35-.11c-.84-.27-1.68-.52-2.54-.73h-.06c-.8-.2-1.6-.37-2.41-.53l-.72-.13c-.61-.11-1.22-.2-1.83-.29l-.86-.11c-.6-.07-1.22-.12-1.83-.17l-.79-.06c-.87-.05-1.75-.08-2.63-.08A44.83,44.83,0,0,0,245,359.76c-.48.53-.95,1.08-1.41,1.63-.92,1.12-1.78,2.27-2.59,3.47q-.62.9-1.17,1.83a44.65,44.65,0,0,0-3.16,6.25,35.11,35.11,0,0,0-4.7-3.25c-.34-.2-.68-.37-1-.56h0l-.17-.09c-.49-.26-1-.51-1.5-.74l-.26-.13a37.41,37.41,0,0,0-3.85-1.5h-.09c-.63-.2-1.26-.38-1.9-.55l-.19-.05c-.66-.16-1.31-.31-2-.43h0a34,34,0,0,0-6.37-.6h-2.25l-.85.06-1,.1-.45.06a8.9,8.9,0,0,0-1.36.19h0a34.42,34.42,0,0,0-9.54,3.06l-.16.08-1.26.65-1.29.75-.09.05a34.76,34.76,0,0,0-10.8,10.28l-.11.15c-.25.37-.49.76-.74,1.15l-.22.38c-.1.16-.21.32-.3.48l-.31.57-.27.49-.52,1c-.09.17-.17.34-.25.51-.17.35-.33.7-.48,1.06l-.21.51c-.15.36-.3.73-.44,1.1-.06.16-.12.33-.17.49q-.21.57-.39,1.14l-.15.49h0a25.22,25.22,0,0,0-2.39-1.57l-.73-.4h0l-.12-.07-1.07-.53-.19-.09a27,27,0,0,0-2.75-1.07h-.06c-.45-.14-.9-.27-1.36-.38h-.14c-.46-.12-.93-.22-1.4-.31h0a25.68,25.68,0,0,0-4.55-.43h-2.22l-.71.07H163l-1,.14h0a24.4,24.4,0,0,0-6.81,2.18l-.12.06-.9.47c-.3.16-.6.34-.9.52h-.08a25,25,0,0,0-7.72,7.33l-.07.11c-.18.27-.36.55-.53.83l-.16.27-.22.34-.21.41c-.07.11-.13.23-.2.35s-.25.48-.37.73l-.18.37c-.12.25-.23.5-.34.75l-.15.37c-.11.26-.21.52-.31.78l-.13.35c-.1.28-.19.55-.28.82a2.39,2.39,0,0,0-.1.35q-.14.42-.24.84l-.09.34c-.07.29-.13.57-.19.86a.59.59,0,0,1-.08.36l-.15.84-.06.4a7.64,7.64,0,0,1-.1.82,2,2,0,0,1,0,.45,3.82,3.82,0,0,0,0,.76V410a10.29,10.29,0,0,0,0,1.24c.05.41,0,.56.06.83l.09.82.12.85a2.28,2.28,0,0,0,.1.52c.1.55.22,1.1.35,1.64l.11.41c.08.29.16.57.25.85s.13.42.2.63l.24.69c.17.44.34.88.53,1.31,0,.09.09.18.13.28a25,25,0,0,0,44.39,2.22,35,35,0,0,0,56.21-3.6l.34.39.39.45.81.89.33.34c.58.61,1.17,1.19,1.77,1.76l.15.14,1,.89.27.24c1.05.91,2.15,1.77,3.28,2.57l.22.16c1.17.82,2.37,1.59,3.62,2.31l.15.09c.43.23.85.47,1.28.69h0a44.85,44.85,0,0,0,43.46-1,6.12,6.12,0,0,0,6.14,6.12H551.36a7.75,7.75,0,0,0,7.75-7.71V272.71a7.75,7.75,0,0,0-7.79-7.71Z"/><path class="cls-1" d="M199.51,350a35,35,0,1,1-35-34.95h0a35,35,0,0,1,35,34.95"/><path class="cls-5" d="M164.53,315a35,35,0,0,0-16.13,65.91L181,319.12A34.87,34.87,0,0,0,164.53,315Z"/><path class="cls-3" d="M172.59,350c-2-1.18-3.23-.86-7.17,1.9-5.66,4-8.49,4.43-12.27,2.18s-4.58-6.84-3.57-10.41L145,341l.11-.18,4.56-3.27,2.53,1.51a11.91,11.91,0,0,1,3.74-3.14l.27-.15.18-.08.16.15.24.21,3.17,2.64.6.47.42.32-.49.2-.72.27a9.5,9.5,0,0,0-4.73,4c-1.37,2.3-1.09,4.23.66,5.27s2.9.6,6.78-2.08c5.71-3.93,8.71-4.58,12.76-2.17a9.31,9.31,0,0,1,4.11,10.17l5.3,3.15-.22.37-4.92,2.8-2.58-1.53a23.82,23.82,0,0,1-5.27,5l-.31.19-.2.13-.18-.11-.25-.21-3.3-2.65-.59-.48-.39-.28.45-.24.62-.31a13.7,13.7,0,0,0,5.88-5.17c1.54-2.38,1.17-4.6-.8-5.77"/><path class="cls-1" d="M273.33,340a45,45,0,1,1-45-45h0a45,45,0,0,1,45,45"/><path class="cls-6" d="M228.3,295a45,45,0,0,0-20.77,84.86l42-79.55A44.91,44.91,0,0,0,228.3,295Z"/><path class="cls-3" d="M233.55,348.9c0-3-1.17-4.14-6.82-6.69-8.1-3.65-10.49-6.48-10.49-12.14s4.56-9.57,9.17-10.8v-6.89h.28l6.62,2.9v3.79a15.12,15.12,0,0,1,5.93,2.07l.34.2.21.15-.06.27-.08.41-.82,5.24-.14,1-.07.69-.55-.42-.77-.62a12.18,12.18,0,0,0-7.51-2.62c-3.45,0-5.4,1.59-5.4,4.2s1.24,3.6,6.76,6.14c8.1,3.73,10.8,6.63,10.8,12.69a12,12,0,0,1-8.55,11.24v7.93h-.55L225.5,364v-3.86a30.39,30.39,0,0,1-9-2.55l-.41-.2-.27-.15V357l.06-.41.77-5.4.13-1,.07-.62.55.34.76.48a17.59,17.59,0,0,0,9.59,3.11c3.65.13,5.85-1.73,5.85-4.69"/><path class="cls-7" d="M258.65,215H501.16a7.75,7.75,0,0,1,7.75,7.71V377.29a7.75,7.75,0,0,1-7.75,7.71H258.65a7.75,7.75,0,0,1-7.74-7.71V222.71a7.69,7.69,0,0,1,7.67-7.71Z"/><path class="cls-8" d="M257.18,385H381.8l83.81-170H257.26a6.24,6.24,0,0,0-6.28,6.2v0h0V378.68a6.15,6.15,0,0,0,6,6.32Z"/><rect class="cls-9" x="273.99" y="298.19" width="96.43" height="22.59" rx="2.36"/><rect class="cls-9" x="273.99" y="336.27" width="210.52" height="22.59" rx="2.36"/><path class="cls-10" d="M357.25,241.6,348,259.18a.62.62,0,0,1-.78.23l-.23-.23-9.3-17.58a.6.6,0,0,0-.46-.31H332.7a.36.36,0,0,0-.39.33v.06c0,.07,0,.15.08.15L347,269.05a.53.53,0,0,0,.69.23l.24-.23,14.63-27.22a.45.45,0,0,0-.15-.54c-.08,0-.16-.08-.23-.08h-4.5a.77.77,0,0,0-.46.39"/><path class="cls-10" d="M362.52,265.11l9.29-17.57a.61.61,0,0,1,.78-.24l.23.24,9.29,17.57a.62.62,0,0,0,.47.31h4.49a.36.36,0,0,0,.39-.33v0c0-.08,0-.16-.08-.16l-14.64-27.21a.54.54,0,0,0-.7-.23l-.23.23L357.25,264.8a.43.43,0,0,0,.16.54c.07,0,.07.08.15.08h4.49c.23-.08.39-.15.47-.31"/><path class="cls-10" d="M293.12,265.34h-8.37a.53.53,0,0,1-.54-.52v0h0v-7.47a.53.53,0,0,1,.52-.54h8.39c3.95,0,5.73,1.15,5.73,4.24s-1.7,4.31-5.73,4.31m-8.37-20H293c3,0,4.57,1.31,4.57,3.7s-1.55,3.7-4.57,3.7h-8.21a.53.53,0,0,1-.54-.52v0h0v-6.32a.53.53,0,0,1,.52-.54h0m14.33,8.94a6.18,6.18,0,0,0,3.18-5.63c0-4.39-3.41-7.32-8.29-7.32H280a.53.53,0,0,0-.54.52v0h0V269a.53.53,0,0,0,.52.54h13.34c6.66,0,10.15-2.85,10.15-8.41s-4.42-6.78-4.42-6.78"/><path class="cls-10" d="M321.62,265.34h-8.36a.53.53,0,0,1-.55-.51v-7.5a.53.53,0,0,1,.52-.54h8.39c3.95,0,5.73,1.15,5.73,4.24s-1.7,4.31-5.73,4.31m-8.36-20h8.21c3,0,4.57,1.31,4.57,3.7s-1.55,3.7-4.57,3.7h-8.21a.53.53,0,0,1-.55-.51v-6.35a.53.53,0,0,1,.52-.54h0m14.4,8.94a6.18,6.18,0,0,0,3.18-5.63c0-4.39-3.41-7.32-8.29-7.32H308.61a.53.53,0,0,0-.54.52v0h0V269a.53.53,0,0,0,.52.54h13.34c6.66,0,10.15-2.85,10.15-8.41s-4.42-6.78-4.42-6.78"/></svg>