<svg id="Capa_1" data-name="Capa 1" xmlns="http://www.w3.org/2000/svg" xmlns:xlink="http://www.w3.org/1999/xlink" viewBox="0 0 600 600"><defs><style>.cls-1,.cls-6{fill-rule:evenodd;}.cls-1{fill:url(#Degradado_sin_nombre);}.cls-2{fill:#1464a5;}.cls-3{fill:#49a5e6;}.cls-4{fill:#043263;}.cls-5{fill:#5ac4c4;}.cls-6{opacity:0.5;isolation:isolate;fill:url(#Degradado_sin_nombre_2);}.cls-7{fill:#eaf9fa;}.cls-8{fill:#028484;}.cls-9{fill:#2dcccd;}.cls-10{fill:#004481;}.cls-11{fill:#1973b8;}</style><linearGradient id="Degradado_sin_nombre" x1="215.21" y1="126.76" x2="435.23" y2="540.57" gradientUnits="userSpaceOnUse"><stop offset="0" stop-color="#192647"/><stop offset="0" stop-color="#192647" stop-opacity="0.5"/><stop offset="1" stop-color="#192647" stop-opacity="0"/></linearGradient><linearGradient id="Degradado_sin_nombre_2" x1="131.24" y1="214.27" x2="261.58" y2="283.57" gradientUnits="userSpaceOnUse"><stop offset="0" stop-color="#eaf9fa"/><stop offset="1" stop-color="#eaf9fa" stop-opacity="0.2"/><stop offset="1" stop-color="#eaf9fa" stop-opacity="0.5"/></linearGradient></defs><title>Firma_desktop</title><path class="cls-1" d="M579.53,458.1v-10a2.74,2.74,0,0,0-2.79-2.79H555.26a19.34,19.34,0,0,0,.75-5.2V198.67a21.39,21.39,0,0,0-21.39-21.38H159a21.39,21.39,0,0,0-21.39,21.38V440.16a19.73,19.73,0,0,0,.74,5.2H116.55a2.74,2.74,0,0,0-2.79,2.79v10H102.51a2.74,2.74,0,0,0-2.79,2.79v22.32a2.74,2.74,0,0,0,2.79,2.79h486.6a2.74,2.74,0,0,0,2.79-2.79V460.89a2.74,2.74,0,0,0-2.79-2.79Z"/><path class="cls-2" d="M111.53,131.72H487.2a21.39,21.39,0,0,1,21.38,21.39h0V414.49H90.15V153.11A21.39,21.39,0,0,1,111.53,131.72Z"/><path class="cls-3" d="M117.76,150.32H480.41a9.33,9.33,0,0,1,9.3,9.3v212a9.33,9.33,0,0,1-9.3,9.3H117.76a9.33,9.33,0,0,1-9.3-9.3v-212A9.33,9.33,0,0,1,117.76,150.32Z"/><path class="cls-2" d="M55.09,412.54h486.6a2.74,2.74,0,0,1,2.79,2.79v22.32a2.74,2.74,0,0,1-2.79,2.79H55.09a2.74,2.74,0,0,1-2.79-2.79V415.33A2.8,2.8,0,0,1,55.09,412.54Z"/><path class="cls-4" d="M532.11,412.54H66.25v-10A2.74,2.74,0,0,1,69,399.8H529.32a2.74,2.74,0,0,1,2.79,2.79Z"/><path class="cls-5" d="M330.89,421.84H270.54a9.32,9.32,0,0,1-9.3-9.3h78.95A9.39,9.39,0,0,1,330.89,421.84Z"/><path class="cls-6" d="M117.76,380.93h98.66L340.19,150.32H117.76a9.33,9.33,0,0,0-9.3,9.3v212A9.33,9.33,0,0,0,117.76,380.93Z"/><path class="cls-7" d="M365.83,346.26H259.3a22.06,22.06,0,1,1,0-44.11h71.34a12.68,12.68,0,0,0,0-25.35H300.13a4.69,4.69,0,0,1,0-9.38h30.51a22.06,22.06,0,0,1,0,44.11H259.3a12.67,12.67,0,0,0,0,25.34H365.83a4.7,4.7,0,1,1,0,9.39Z"/><path class="cls-8" d="M522.11,77.63h0a16,16,0,0,1,7.42,21.31l-.29.56L405.63,330l-15.49-9.1Z"/><path class="cls-9" d="M522.11,77.63l-132,243.29-14.26-8.45,124-228.64A16,16,0,0,1,521,77.07Z"/><path class="cls-8" d="M377.94,340.35v-4.88l7,4.31-4.13,2.35a1.88,1.88,0,0,1-2.63-.75A2.13,2.13,0,0,1,377.94,340.35Z"/><path class="cls-10" d="M522.11,77.63l-9.67,17.93a31.94,31.94,0,0,1,12.2,12.58l4.6-8.55A15.82,15.82,0,0,0,522.77,78,5.76,5.76,0,0,0,522.11,77.63Z"/><path class="cls-11" d="M512.35,95.56,522,77.63l-1.13-.56a16,16,0,0,0-21.12,6.76l-4.13,7.6A29.6,29.6,0,0,1,512.35,95.56Z"/><path class="cls-5" d="M380.76,338.47l1.87-3.47,7.61-14.08,15.48,9.1-17.27,10.42a3.8,3.8,0,0,1-3.75.09Z"/><path class="cls-7" d="M375.88,312.47l-.1,20.56a3.65,3.65,0,0,0,1.6,3.09l3.28,2.26,9.48-17.56Z"/></svg>