<svg xmlns="http://www.w3.org/2000/svg" xmlns:xlink="http://www.w3.org/1999/xlink" viewBox="0 0 600 600"><defs><style>.cls-1{fill:none;}.cls-2{fill:url(#Degradado_sin_nombre_64);}.cls-3{fill:#043263;}.cls-4{fill:#49a5e6;}.cls-5{fill:#072146;}.cls-6{fill:#5ac4c4;}.cls-7{opacity:0.5;isolation:isolate;fill:url(#Degradado_sin_nombre_2);}.cls-8{fill:#d4edfc;}.cls-9{fill:#f8cd50;}.cls-10{fill:url(#Degradado_sin_nombre_8);}</style><linearGradient id="Degradado_sin_nombre_64" x1="236.78" y1="7087.41" x2="422.43" y2="6738.25" gradientTransform="matrix(1, 0, 0, -1, 0, 7270)" gradientUnits="userSpaceOnUse"><stop offset="0" stop-color="#192647" stop-opacity="0.5"/><stop offset="1" stop-color="#192647" stop-opacity="0"/></linearGradient><linearGradient id="Degradado_sin_nombre_2" x1="205.41" y1="212.87" x2="326.45" y2="333.91" gradientUnits="userSpaceOnUse"><stop offset="0" stop-color="#eaf9fa"/><stop offset="1" stop-color="#eaf9fa" stop-opacity="0.2"/><stop offset="1" stop-color="#eaf9fa" stop-opacity="0.5"/></linearGradient><linearGradient id="Degradado_sin_nombre_8" x1="406.62" y1="6939.81" x2="474.64" y2="6871.79" gradientTransform="matrix(1, 0, 0, -1, 0, 7270)" gradientUnits="userSpaceOnUse"><stop offset="0" stop-color="#fff" stop-opacity="0.5"/><stop offset="1" stop-color="#fff" stop-opacity="0.1"/></linearGradient></defs><title>6</title><g id="Cuadrados_Blancos" data-name="Cuadrados Blancos"><rect class="cls-1" width="600" height="600"/></g><g id="Capa_5" data-name="Capa 5"><path class="cls-2" d="M556.5,363.54H542.82v-8a3.43,3.43,0,0,0-3.43-3.44H500.06V230.68a20.33,20.33,0,0,0-20.32-20.34H189.68a20.34,20.34,0,0,0-20.35,20.33h0V423.29H153a2.18,2.18,0,0,0-2.2,2.17h0v7.79h-8.22a2.19,2.19,0,0,0-2.2,2.18h0v17.39a2.19,2.19,0,0,0,2.18,2.18H444.45v4.58a13.68,13.68,0,0,0,13.68,13.68H529a13.68,13.68,0,0,0,13.67-13.68h0V434.43A26.31,26.31,0,0,0,569,408.12h0v-32A12.63,12.63,0,0,0,556.5,363.54Zm1.14,45.7A13.76,13.76,0,0,1,543.88,423h-1.1V375h11.3a3.56,3.56,0,0,1,3.56,3.56h0Z"/><path class="cls-3" d="M149.12,175.78h296.3a16.88,16.88,0,0,1,16.87,16.87h0V398.82h-330V192.65A16.87,16.87,0,0,1,149.12,175.78Z"/><path class="cls-4" d="M154,190.45h286a7.36,7.36,0,0,1,7.34,7.34V365a7.36,7.36,0,0,1-7.34,7.33H154A7.35,7.35,0,0,1,146.7,365V197.79A7.36,7.36,0,0,1,154,190.45Z"/><path class="cls-3" d="M104.6,397.28H488.4a2.16,2.16,0,0,1,2.2,2.2v17.6a2.17,2.17,0,0,1-2.2,2.2H104.6a2.16,2.16,0,0,1-2.2-2.2v-17.6A2.2,2.2,0,0,1,104.6,397.28Z"/><path class="cls-5" d="M480.84,397.28H113.4v-7.85a2.16,2.16,0,0,1,2.2-2.2h363a2.16,2.16,0,0,1,2.2,2.2Z"/><path class="cls-6" d="M322.13,404.61h-47.6a7.35,7.35,0,0,1-7.33-7.33h62.26A7.4,7.4,0,0,1,322.13,404.61Z"/><path class="cls-7" d="M154,372.34H299.25l97.62-181.89H154a7.36,7.36,0,0,0-7.33,7.34V365A7.35,7.35,0,0,0,154,372.34Z"/><path class="cls-8" d="M474.5,253h0a11.44,11.44,0,0,0-11.44-11.42H440.2A11.44,11.44,0,0,0,428.76,253h0a11.44,11.44,0,0,0,11.44,11.43h0a11.43,11.43,0,0,1,11.43,11.43h0a11.45,11.45,0,0,1-11.43,11.44h0a11.44,11.44,0,0,0-11.44,11.44h0a11.44,11.44,0,0,0,11.44,11.42h0a11.45,11.45,0,0,1,11.43,11.44V335a11.43,11.43,0,0,0,11.43,11.43h0A11.43,11.43,0,0,0,474.5,335v-13.4a11.45,11.45,0,0,1,11.43-11.44h0a11.44,11.44,0,0,0,11.44-11.43h0a11.41,11.41,0,0,1,11.41-11.43h0a11.44,11.44,0,0,0,11.44-11.44h0a11.44,11.44,0,0,0-11.44-11.43H485.93A11.43,11.43,0,0,1,474.5,253Z"/><path class="cls-9" d="M417,321.24h91.47a3.44,3.44,0,0,1,3.43,3.43h0V428.72a13.68,13.68,0,0,1-13.68,13.67H427.31a13.67,13.67,0,0,1-13.68-13.67h0v-104A3.44,3.44,0,0,1,417,321.24Z"/><path class="cls-10" d="M417,321.24a3.43,3.43,0,0,0-3.46,3.4V428.72a13.67,13.67,0,0,0,13.68,13.67h3.22L494.89,321.2Z"/></g></svg>