<?xml version="1.0" encoding="utf-8"?>
<!-- Generator: Adobe Illustrator 23.0.1, SVG Export Plug-In . SVG Version: 6.00 Build 0)  -->
<svg version="1.1" id="Capa_1" xmlns="http://www.w3.org/2000/svg" xmlns:xlink="http://www.w3.org/1999/xlink" x="0px" y="0px"
	 viewBox="0 0 600 600" style="enable-background:new 0 0 600 600;" xml:space="preserve">
<style type="text/css">
	.st0{fill-rule:evenodd;clip-rule:evenodd;fill:url(#SVGID_1_);}
	.st1{fill:#1464A5;}
	.st2{fill:#49A5E6;}
	.st3{fill:#043263;}
	.st4{fill:#5AC4C4;}
	.st5{opacity:0.5;fill-rule:evenodd;clip-rule:evenodd;fill:url(#SVGID_2_);enable-background:new    ;}
</style>
<title>Mesa de trabajo 1 copia 24</title>
<g>
	<g>
		
			<linearGradient id="SVGID_1_" gradientUnits="userSpaceOnUse" x1="186.7822" y1="500.3259" x2="423.4022" y2="55.3058" gradientTransform="matrix(1 0 0 -1 0 600)">
			<stop  offset="0" style="stop-color:#192647"/>
			<stop  offset="0" style="stop-color:#192647;stop-opacity:0.5"/>
			<stop  offset="1" style="stop-color:#192647;stop-opacity:0"/>
		</linearGradient>
		<path class="st0" d="M578.6,456v-10.7c0-1.7-1.3-3-3-3h-23.1c0.5-1.8,0.8-3.7,0.8-5.6V177c0-12.7-10.3-23-23-23h-404
			c-12.7,0-23,10.3-23,23v259.7c0,1.9,0.3,3.8,0.8,5.6H80.7c-1.7,0-3,1.3-3,3V456H65.6c-1.7,0-3,1.3-3,3v24c0,1.7,1.3,3,3,3h523.3
			c1.7,0,3-1.3,3-3v-24c0-1.7-1.3-3-3-3H578.6z"/>
		<path class="st1" d="M75.3,105h404c12.7,0,23,10.3,23,23l0,0v281.1l0,0h-450l0,0V128C52.3,115.3,62.6,105,75.3,105z"/>
		<path class="st2" d="M82,125h390c5.5,0,10,4.5,10,10v228c0,5.5-4.5,10-10,10H82c-5.5,0-10-4.5-10-10V135C72,129.5,76.5,125,82,125
			z"/>
		<path class="st1" d="M14.6,407h523.3c1.7,0,3,1.3,3,3v24c0,1.7-1.3,3-3,3H14.6c-1.7,0-3-1.3-3-3v-24C11.6,408.4,12.9,407,14.6,407
			z"/>
		<path class="st3" d="M527.6,407h-501v-10.7c0-1.7,1.3-3,3-3h495c1.7,0,3,1.3,3,3V407z"/>
		<path class="st4" d="M311.2,417h-64.9c-5.5,0-10-4.5-10-10h84.9C321.1,412.5,316.7,417,311.2,417z"/>
		
			<linearGradient id="SVGID_2_" gradientUnits="userSpaceOnUse" x1="123.2991" y1="416.4084" x2="316.0092" y2="313.9484" gradientTransform="matrix(1 0 0 -1 0 600)">
			<stop  offset="0" style="stop-color:#EAF9FA"/>
			<stop  offset="1" style="stop-color:#EAF9FA;stop-opacity:0.2"/>
			<stop  offset="1" style="stop-color:#EAF9FA;stop-opacity:0.5"/>
		</linearGradient>
		<path class="st5" d="M82,373h198l133.1-248H82c-5.5,0-10,4.5-10,10v228C72,368.5,76.5,373,82,373z"/>
	</g>
</g>
</svg>
