<?xml version="1.0" encoding="utf-8"?>
<!-- Generator: Adobe Illustrator 23.0.1, SVG Export Plug-In . SVG Version: 6.00 Build 0)  -->
<svg version="1.1" id="Capa_1" xmlns="http://www.w3.org/2000/svg" xmlns:xlink="http://www.w3.org/1999/xlink" x="0px" y="0px"
	 viewBox="0 0 600 600" style="enable-background:new 0 0 600 600;" xml:space="preserve">
<style type="text/css">
	.st0{fill-rule:evenodd;clip-rule:evenodd;fill:url(#SVGID_1_);}
	.st1{fill:#1464A5;}
	.st2{fill:#49A5E6;}
	.st3{fill:#043263;}
	.st4{fill:#5AC4C4;}
	.st5{opacity:0.5;fill-rule:evenodd;clip-rule:evenodd;fill:url(#SVGID_2_);enable-background:new    ;}
	.st6{fill:#FFFFFF;}
</style>
<title>Mesa de trabajo 1 copia</title>
<g>
	<g>
		
			<linearGradient id="SVGID_1_" gradientUnits="userSpaceOnUse" x1="186.7822" y1="500.3259" x2="423.4022" y2="55.3058" gradientTransform="matrix(1 0 0 -1 0 600)">
			<stop  offset="0" style="stop-color:#192647"/>
			<stop  offset="0" style="stop-color:#192647;stop-opacity:0.5"/>
			<stop  offset="1" style="stop-color:#192647;stop-opacity:0"/>
		</linearGradient>
		<path class="st0" d="M578.6,456v-10.7c0-1.7-1.3-3-3-3h-23.1c0.5-1.8,0.8-3.7,0.8-5.6V177c0-12.7-10.3-23-23-23h-404
			c-12.7,0-23,10.3-23,23v259.7c0,1.9,0.3,3.8,0.8,5.6H80.7c-1.7,0-3,1.3-3,3V456H65.6c-1.7,0-3,1.3-3,3v24c0,1.7,1.3,3,3,3h523.3
			c1.7,0,3-1.3,3-3v-24c0-1.7-1.3-3-3-3H578.6z"/>
		<path class="st1" d="M75.3,105h404c12.7,0,23,10.3,23,23l0,0v281.1l0,0h-450l0,0V128C52.3,115.3,62.6,105,75.3,105z"/>
		<path class="st2" d="M82,125h390c5.5,0,10,4.5,10,10v228c0,5.5-4.5,10-10,10H82c-5.5,0-10-4.5-10-10V135C72,129.5,76.5,125,82,125
			z"/>
		<path class="st1" d="M14.6,407h523.3c1.7,0,3,1.3,3,3v24c0,1.7-1.3,3-3,3H14.6c-1.7,0-3-1.3-3-3v-24C11.6,408.4,12.9,407,14.6,407
			z"/>
		<path class="st3" d="M527.6,407h-501v-10.7c0-1.7,1.3-3,3-3h495c1.7,0,3,1.3,3,3V407z"/>
		<path class="st4" d="M311.2,417h-64.9c-5.5,0-10-4.5-10-10h84.9C321.1,412.5,316.7,417,311.2,417z"/>
		
			<linearGradient id="SVGID_2_" gradientUnits="userSpaceOnUse" x1="123.2991" y1="416.4084" x2="316.0092" y2="313.9484" gradientTransform="matrix(1 0 0 -1 0 600)">
			<stop  offset="0" style="stop-color:#EAF9FA"/>
			<stop  offset="1" style="stop-color:#EAF9FA;stop-opacity:0.2"/>
			<stop  offset="1" style="stop-color:#EAF9FA;stop-opacity:0.5"/>
		</linearGradient>
		<path class="st5" d="M82,373h198l133.1-248H82c-5.5,0-10,4.5-10,10v228C72,368.5,76.5,373,82,373z"/>
		<path class="st6" d="M326.3,217.7l-19.1,36.4c-0.3,0.6-1,0.7-1.6,0.4c-0.2-0.1-0.3-0.3-0.4-0.4L286,217.7c-0.2-0.4-0.6-0.6-1-0.6
			h-9.2c-0.5,0-0.8,0.4-0.8,0.8c0,0.1,0,0.3,0.1,0.4l30.1,56.4c0.3,0.6,0.9,0.8,1.5,0.5c0.2-0.1,0.4-0.3,0.5-0.5l30.1-56.4
			c0.2-0.4,0.1-0.9-0.3-1.1c-0.1-0.1-0.3-0.1-0.4-0.1h-9.3C326.9,217.1,326.5,217.4,326.3,217.7"/>
		<path class="st6" d="M337.1,266.3l19.1-36.4c0.3-0.6,1-0.7,1.6-0.4c0.2,0.1,0.3,0.3,0.4,0.4l19.1,36.4c0.2,0.4,0.6,0.6,1,0.6h9.2
			c0.5,0,0.8-0.4,0.8-0.8c0-0.1,0-0.3-0.1-0.4l-30.1-56.4c-0.3-0.5-0.9-0.7-1.5-0.5c-0.2,0.1-0.4,0.3-0.5,0.5l-30.1,56.4
			c-0.2,0.4-0.1,0.9,0.3,1.1c0.1,0.1,0.3,0.1,0.4,0.1h9.3C336.6,266.9,337,266.7,337.1,266.3"/>
		<path class="st6" d="M194,266.9h-17.2c-0.6,0-1.1-0.5-1.1-1.1v-15.5c0-0.6,0.5-1.1,1.1-1.1l0,0H194c8.2,0,11.9,2.3,11.9,8.8
			C205.9,264.6,202.3,266.9,194,266.9 M176.8,225.6h17c6.3,0,9.5,2.7,9.5,7.6s-3.2,7.6-9.5,7.6h-17c-0.6,0-1.1-0.5-1.1-1.1l0,0v-13
			C175.6,226.1,176.1,225.6,176.8,225.6L176.8,225.6 M206.4,244c4-2,6.5-6.3,6.5-11.6c0-9.1-7.1-15.2-17-15.2h-28.7
			c-0.6,0-1.1,0.5-1.1,1.1l0,0v56c0,0.6,0.5,1.1,1.1,1.1h27.4c13.7,0,21-5.9,21-17.5C215.6,246.6,206.4,244,206.4,244"/>
		<path class="st6" d="M252.9,266.9h-17.2c-0.6,0-1.1-0.5-1.1-1.1c0,0,0,0,0,0v-15.5c0-0.6,0.5-1.1,1.1-1.1l0,0h17.2
			c8.2,0,11.9,2.3,11.9,8.8C264.7,264.6,261.2,266.9,252.9,266.9 M235.6,225.6h17c6.3,0,9.5,2.7,9.5,7.6s-3.2,7.6-9.5,7.6h-17
			c-0.6,0-1.1-0.5-1.1-1.1l0,0v-13C234.5,226.1,235,225.6,235.6,225.6L235.6,225.6 M265.2,244c4-2,6.5-6.3,6.5-11.6
			c0-9.1-7.1-15.2-17-15.2H226c-0.6,0-1.1,0.5-1.1,1.1l0,0v56c0,0.6,0.5,1.1,1.1,1.1c0,0,0,0,0,0h27.4c13.7,0,21-5.9,21-17.5
			C274.4,246.6,265.3,244,265.2,244"/>
	</g>
</g>
</svg>
