<svg xmlns="http://www.w3.org/2000/svg" xmlns:xlink="http://www.w3.org/1999/xlink" viewBox="0 0 600 600"><defs><style>.cls-1{fill:none;}.cls-2{fill:url(#Degradado_sin_nombre_135);}.cls-3{fill:#043263;}.cls-4{fill:#49a5e6;}.cls-5{fill:#072146;}.cls-6{fill:#5ac4c4;}.cls-7{opacity:0.5;isolation:isolate;fill:url(#Degradado_sin_nombre_11);}.cls-8{fill:#eaf9fa;}.cls-9{fill:#028484;}.cls-10{fill:#2dcccd;}.cls-11{fill:#004481;}.cls-12{fill:#1973b8;}</style><linearGradient id="Degradado_sin_nombre_135" x1="230.89" y1="171.87" x2="404.43" y2="498.26" gradientUnits="userSpaceOnUse"><stop offset="0" stop-color="#192647" stop-opacity="0.5"/><stop offset="1" stop-color="#192647" stop-opacity="0"/></linearGradient><linearGradient id="Degradado_sin_nombre_11" x1="184.32" y1="233.43" x2="325.66" y2="308.57" gradientUnits="userSpaceOnUse"><stop offset="0" stop-color="#eaf9fa"/><stop offset="1" stop-color="#eaf9fa" stop-opacity="0.2"/><stop offset="1" stop-color="#eaf9fa" stop-opacity="0.5"/></linearGradient></defs><title>1</title><g id="Cuadrados_Blancos" data-name="Cuadrados Blancos"><rect class="cls-1" width="600" height="600"/></g><g id="Capa_19" data-name="Capa 19"><path class="cls-2" d="M518.25,433.21v-7.84a2.16,2.16,0,0,0-2.2-2.2H499.1a15.4,15.4,0,0,0,.59-4.11V228.59a16.87,16.87,0,0,0-16.87-16.87H186.52a16.88,16.88,0,0,0-16.87,16.87V419.06a15.4,15.4,0,0,0,.59,4.11H153.08a2.16,2.16,0,0,0-2.2,2.2v7.84H142a2.17,2.17,0,0,0-2.2,2.2V453a2.17,2.17,0,0,0,2.2,2.2H525.8A2.16,2.16,0,0,0,528,453V435.41a2.16,2.16,0,0,0-2.2-2.2Z"/><path class="cls-3" d="M149.12,175.78h296.3a16.88,16.88,0,0,1,16.87,16.87h0V398.82h-330V192.65A16.87,16.87,0,0,1,149.12,175.78Z"/><path class="cls-4" d="M154,190.45h286a7.36,7.36,0,0,1,7.34,7.34V365a7.36,7.36,0,0,1-7.34,7.33H154A7.35,7.35,0,0,1,146.7,365V197.79A7.36,7.36,0,0,1,154,190.45Z"/><path class="cls-3" d="M104.6,397.28H488.4a2.16,2.16,0,0,1,2.2,2.2v17.6a2.17,2.17,0,0,1-2.2,2.2H104.6a2.16,2.16,0,0,1-2.2-2.2v-17.6A2.2,2.2,0,0,1,104.6,397.28Z"/><path class="cls-5" d="M480.84,397.28H113.4v-7.85a2.16,2.16,0,0,1,2.2-2.2h363a2.16,2.16,0,0,1,2.2,2.2Z"/><path class="cls-6" d="M322.13,404.61h-47.6a7.35,7.35,0,0,1-7.33-7.33h62.26A7.4,7.4,0,0,1,322.13,404.61Z"/><path class="cls-7" d="M154,372.34H299.25l97.62-181.89H154a7.36,7.36,0,0,0-7.33,7.34V365A7.35,7.35,0,0,0,154,372.34Z"/><path class="cls-8" d="M350.14,345.33H265.83a17.45,17.45,0,1,1-.74-34.9h57.2a10,10,0,0,0,0-20.06H298.14a3.72,3.72,0,0,1,0-7.43h24.15a17.46,17.46,0,0,1,0,34.91H265.83a10,10,0,0,0,0,20h84.31a3.72,3.72,0,0,1,.34,7.43Z"/><path class="cls-9" d="M473.81,132.75h0a12.65,12.65,0,0,1,5.87,16.86l-.23.45L381.63,332.47l-12.26-7.2Z"/><path class="cls-10" d="M473.81,132.75,369.35,325.28l-11.28-6.69L456.2,137.65a12.66,12.66,0,0,1,16.73-5.35Z"/><path class="cls-9" d="M359.72,340.66V336.8l5.54,3.41L362,342.07a1.49,1.49,0,0,1-2-.52s0-.05,0-.08A1.64,1.64,0,0,1,359.72,340.66Z"/><path class="cls-11" d="M473.81,132.75l-7.65,14.19a25.23,25.23,0,0,1,9.65,9.95l3.64-6.76a12.51,12.51,0,0,0-4.95-17l-.17-.09A3.29,3.29,0,0,0,473.81,132.75Z"/><path class="cls-12" d="M466.09,146.94l7.64-14.19-.9-.45a12.66,12.66,0,0,0-16.71,5.35l-3.27,6A23.39,23.39,0,0,1,466.09,146.94Z"/><path class="cls-6" d="M362,339.17l1.48-2.75,6-11.14,12.25,7.2L368,340.73a3,3,0,0,1-3,.07Z"/><path class="cls-8" d="M358.09,318.59,358,334.86a2.89,2.89,0,0,0,1.27,2.45l2.59,1.79,7.5-13.9Z"/></g></svg>