<svg id="Contenido" xmlns="http://www.w3.org/2000/svg" xmlns:xlink="http://www.w3.org/1999/xlink" viewBox="0 0 600 600"><defs><style>.cls-1{fill:url(#Degradado_sin_nombre_42);}.cls-2{fill:#1464a5;}.cls-3{fill:#49a5e6;}.cls-4{fill:#043263;}.cls-5{fill:#5ac4c4;}.cls-6{fill-rule:evenodd;opacity:0.5;fill:url(#Degradado_sin_nombre_108);}.cls-7{fill:#d4edfc;}.cls-8{fill:#f8cd50;}.cls-9{fill:#c49735;}.cls-10{fill:url(#Degradado_sin_nombre_100);}</style><linearGradient id="Degradado_sin_nombre_42" x1="238.99" y1="181.97" x2="415.46" y2="513.85" gradientUnits="userSpaceOnUse"><stop offset="0" stop-color="#192647" stop-opacity="0.5"/><stop offset="1" stop-color="#192647" stop-opacity="0"/></linearGradient><linearGradient id="Degradado_sin_nombre_108" x1="195.79" y1="234.44" x2="330.17" y2="305.89" gradientUnits="userSpaceOnUse"><stop offset="0" stop-color="#fff"/><stop offset="1" stop-color="#e7f6f7" stop-opacity="0.2"/><stop offset="1" stop-color="#fff" stop-opacity="0.5"/></linearGradient><linearGradient id="Degradado_sin_nombre_100" x1="400.43" y1="322.24" x2="465.12" y2="386.93" gradientUnits="userSpaceOnUse"><stop offset="0" stop-color="#fff" stop-opacity="0.5"/><stop offset="1" stop-color="#fff" stop-opacity="0.1"/></linearGradient></defs><title>momentum</title><path class="cls-1" d="M542.85,353.94h-13v-7.6a3.26,3.26,0,0,0-3.26-3.26H489.21V227.67a19.32,19.32,0,0,0-19.33-19.33H194.23a19.33,19.33,0,0,0-19.34,19.33V410.72H159.33a2.08,2.08,0,0,0-2.09,2.07v7.4h-7.81a2.08,2.08,0,0,0-2.09,2.07v16.53a2.07,2.07,0,0,0,2.09,2.07H436.36v4.35a13,13,0,0,0,13,13h67.37a13,13,0,0,0,13-13v-23.9a25,25,0,0,0,25-25V365.9A12,12,0,0,0,542.85,353.94Zm1.08,43.43a13.07,13.07,0,0,1-13.07,13.07h-1.05V364.81h10.74a3.38,3.38,0,0,1,3.38,3.38Z"/><path class="cls-2" d="M164.89,179H440.54a19.33,19.33,0,0,1,19.33,19.33V381.38a0,0,0,0,1,0,0H145.56a0,0,0,0,1,0,0V198.33A19.33,19.33,0,0,1,164.89,179Z"/><rect class="cls-3" x="159.34" y="193.64" width="286.76" height="173.1" rx="8.61"/><path class="cls-2" d="M485.34,411.53H120.09a2.08,2.08,0,0,1-2.09-2.07V392.93a2.08,2.08,0,0,1,2.09-2.07H485.34a2.07,2.07,0,0,1,2.09,2.07v16.53A2.08,2.08,0,0,1,485.34,411.53Z"/><path class="cls-4" d="M477.53,390.86H127.9v-7.41a2.09,2.09,0,0,1,2.1-2.07H475.44a2.08,2.08,0,0,1,2.09,2.07Z"/><path class="cls-5" d="M325.11,397.75H280.33a6.89,6.89,0,0,1-6.89-6.89H332A6.9,6.9,0,0,1,325.11,397.75Z"/><path class="cls-6" d="M167.94,366.74H304.78l93.09-173.1H167.94a8.6,8.6,0,0,0-8.6,8.59V358.15A8.59,8.59,0,0,0,167.94,366.74Z"/><path class="cls-7" d="M464.92,248.85h0A10.87,10.87,0,0,0,454.05,238H432.32a10.87,10.87,0,0,0-10.87,10.86h0a10.87,10.87,0,0,0,10.87,10.87h0a10.86,10.86,0,0,1,10.86,10.86h0a10.87,10.87,0,0,1-10.86,10.87h0a10.87,10.87,0,0,0-10.87,10.87h0a10.87,10.87,0,0,0,10.87,10.86h0a10.87,10.87,0,0,1,10.86,10.87v12.73a10.87,10.87,0,0,0,10.87,10.86h0a10.87,10.87,0,0,0,10.87-10.86V314.05a10.87,10.87,0,0,1,10.86-10.87h0a10.87,10.87,0,0,0,10.87-10.86h0a10.86,10.86,0,0,1,10.86-10.87h0a10.87,10.87,0,0,0,10.87-10.87h0a10.87,10.87,0,0,0-10.87-10.86H475.78A10.87,10.87,0,0,1,464.92,248.85Z"/><path class="cls-8" d="M410.29,313.74h86.93a3.26,3.26,0,0,1,3.26,3.26v98.88a13,13,0,0,1-13,13H420.07a13,13,0,0,1-13-13V317A3.26,3.26,0,0,1,410.29,313.74Z"/><path class="cls-9" d="M513.51,324.61h-13v10.86h10.74a3.39,3.39,0,0,1,3.39,3.38V368a13.08,13.08,0,0,1-13.08,13.08h-1V392a25,25,0,0,0,25-25V336.56A12,12,0,0,0,513.51,324.61Z"/><path class="cls-10" d="M410.29,313.74A3.26,3.26,0,0,0,407,317v98.88a13,13,0,0,0,13,13h3.06l61.24-115.18Z"/></svg>