<svg xmlns="http://www.w3.org/2000/svg" xmlns:xlink="http://www.w3.org/1999/xlink" viewBox="0 0 600 600"><defs><style>.cls-1{fill:none;}.cls-2{fill:url(#Degradado_sin_nombre_46);}.cls-3{fill:#043263;}.cls-4{fill:#49a5e6;}.cls-5{fill:#072146;}.cls-6{fill:#5ac4c4;}.cls-7,.cls-8{opacity:0.5;isolation:isolate;}.cls-7{fill:url(#Degradado_sin_nombre_2);}.cls-8{fill:url(#Degradado_sin_nombre_2-2);}.cls-9{fill:#1464a5;}.cls-10{clip-path:url(#clip-path);}.cls-11{fill:#46b19b;}.cls-12{fill:#2dcccd;}.cls-13{fill:url(#Degradado_sin_nombre_7);}</style><linearGradient id="Degradado_sin_nombre_46" x1="230.89" y1="171.87" x2="404.43" y2="498.26" gradientUnits="userSpaceOnUse"><stop offset="0" stop-color="#192647" stop-opacity="0.5"/><stop offset="1" stop-color="#192647" stop-opacity="0"/></linearGradient><linearGradient id="Degradado_sin_nombre_2" x1="184.32" y1="233.43" x2="325.66" y2="308.57" gradientUnits="userSpaceOnUse"><stop offset="0" stop-color="#eaf9fa"/><stop offset="1" stop-color="#eaf9fa" stop-opacity="0.2"/><stop offset="1" stop-color="#eaf9fa" stop-opacity="0.5"/></linearGradient><linearGradient id="Degradado_sin_nombre_2-2" x1="204.94" y1="7057.58" x2="326" y2="6936.52" gradientTransform="matrix(1, 0, 0, -1, 0, 7270)" xlink:href="#Degradado_sin_nombre_2"/><clipPath id="clip-path"><path class="cls-1" d="M361.86,280.27A65.86,65.86,0,1,1,295.44,215h0a65.87,65.87,0,0,1,66.39,65.3"/></clipPath><linearGradient id="Degradado_sin_nombre_7" x1="361.89" y1="6979.15" x2="296.39" y2="6979.15" gradientTransform="matrix(1, 0, 0, -1, 0, 7270)" gradientUnits="userSpaceOnUse"><stop offset="0" stop-color="#028484"/><stop offset="1" stop-color="#028484" stop-opacity="0"/></linearGradient></defs><title>6</title><g id="Cuadrados_Blancos" data-name="Cuadrados Blancos"><rect class="cls-1" width="600" height="600"/></g><g id="Capa_4" data-name="Capa 4"><path class="cls-2" d="M518.25,433.21v-7.84a2.16,2.16,0,0,0-2.2-2.2H499.1a15.4,15.4,0,0,0,.59-4.11V228.59a16.87,16.87,0,0,0-16.87-16.87H186.52a16.88,16.88,0,0,0-16.87,16.87V419.06a15.4,15.4,0,0,0,.59,4.11H153.08a2.16,2.16,0,0,0-2.2,2.2v7.84H142a2.17,2.17,0,0,0-2.2,2.2V453a2.17,2.17,0,0,0,2.2,2.2H525.8A2.16,2.16,0,0,0,528,453V435.41a2.16,2.16,0,0,0-2.2-2.2Z"/><path class="cls-3" d="M149.12,175.78h296.3a16.88,16.88,0,0,1,16.87,16.87h0V398.82h-330V192.65A16.87,16.87,0,0,1,149.12,175.78Z"/><path class="cls-4" d="M154,190.45h286a7.36,7.36,0,0,1,7.34,7.34V365a7.36,7.36,0,0,1-7.34,7.33H154A7.35,7.35,0,0,1,146.7,365V197.79A7.36,7.36,0,0,1,154,190.45Z"/><path class="cls-3" d="M104.6,397.28H488.4a2.16,2.16,0,0,1,2.2,2.2v17.6a2.17,2.17,0,0,1-2.2,2.2H104.6a2.16,2.16,0,0,1-2.2-2.2v-17.6A2.2,2.2,0,0,1,104.6,397.28Z"/><path class="cls-5" d="M480.84,397.28H113.4v-7.85a2.16,2.16,0,0,1,2.2-2.2h363a2.16,2.16,0,0,1,2.2,2.2Z"/><path class="cls-6" d="M322.13,404.61h-47.6a7.35,7.35,0,0,1-7.33-7.33h62.26A7.4,7.4,0,0,1,322.13,404.61Z"/><path class="cls-7" d="M154,372.34H299.25l97.62-181.89H154a7.36,7.36,0,0,0-7.33,7.34V365A7.35,7.35,0,0,0,154,372.34Z"/><rect class="cls-4" x="146.2" y="190" width="300.8" height="181.94" rx="7.34"/><path class="cls-8" d="M153.54,371.94H298.8L396.48,190H153.54a7.34,7.34,0,0,0-7.34,7.34V364.61A7.34,7.34,0,0,0,153.54,371.94Z"/><path class="cls-9" d="M361.86,280.27A65.86,65.86,0,1,1,295.44,215h0a65.87,65.87,0,0,1,66.39,65.3"/><g class="cls-10"><path class="cls-11" d="M336.81,321.27a2.84,2.84,0,0,0-1.35.24,3,3,0,0,0-1.24,1.82,16.43,16.43,0,0,0,0,2.43c-.08,1.56-.94,2.94-1.59,4.4a.32.32,0,0,0,0,.27.32.32,0,0,0,.14.14,2.73,2.73,0,0,0,2.69-.41,7.88,7.88,0,0,0,1.75-1.39c1.43-1.56,1.85-3.76,2.2-5.87a.89.89,0,0,0,0-.51A.8.8,0,0,0,339,322c-.67-.39-1.12-.83-1.9-.73Z"/><path class="cls-12" d="M292.48,235.38c-1.37,1.52-1.06,3.87-1.72,5.81-.29.85-.78,1.64-1,2.51s-.23,1.86-.42,2.77a6.33,6.33,0,0,1-1.24,2.71c-.22.28-.46.65-.27.94a.77.77,0,0,0,.73.25,8.94,8.94,0,0,0,5.14-1.8,4.17,4.17,0,0,0,1.2-1.34,5.11,5.11,0,0,0,.37-2.08l.18-4.87a25.23,25.23,0,0,0-.12-4.76.73.73,0,0,0-.68-.79.55.55,0,0,0-.18,0A2.87,2.87,0,0,0,292.48,235.38Z"/><path class="cls-12" d="M272.91,229.05a6,6,0,0,0-4.61,2.86,2.67,2.67,0,0,0-.41,1.11,2.73,2.73,0,0,0,2,2.53,5.6,5.6,0,0,0,2.36.4,12.94,12.94,0,0,0,1.52-.22l4.85-.92a1.81,1.81,0,0,0,1.35-.73,1.25,1.25,0,0,0-.11-1.21,3.75,3.75,0,0,0-.92-.86c-1.52-1.13-2.85-2.69-4.72-3Z"/><path class="cls-1" d="M298.16,332.83a12,12,0,0,1-1.73-7.41,18.52,18.52,0,0,0,.32-4.12c-.35-2.65-2.66-4.61-5-5.87s-5-2-7.1-3.67c-3.86-3.12-4.94-8.69-4.24-13.61a20.34,20.34,0,0,1,8.14-13.42l5.37-4.2a23.8,23.8,0,0,1,3.78-2.58,19.85,19.85,0,0,1,6.68-1.72,47.7,47.7,0,0,1,8.45-.24c6,.41,11.92,2.25,18,2.48a16.9,16.9,0,0,0,5.44-.52c4-1.17,7-4.4,9.47-7.78.95-1.3,1.85-3.12.87-4.4-.77-1-2.28-1-3.54-.84s-2.65.5-3.75-.14-1.47-1.77-2.12-2.72-2-1.73-2.94-1.06a2.57,2.57,0,0,0-.83,1.47c-.51,1.85-.68,3.8-1.16,5.66a8.56,8.56,0,0,1-2.94,4.87,5.72,5.72,0,0,1-6.06.35c-.44-.25-.88-.62-.88-1.11a1.73,1.73,0,0,1,.36-.87l2.09-3.13c1.12-1.68,2.29-3.67,1.71-5.6-.65-2.09-3.06-3.06-5.23-3.3a15.87,15.87,0,0,0-5.7.43c-1.74.44-3.39,1.19-5.13,1.52a15.19,15.19,0,0,0-3.87.85c-2.09,1.05-3,3.5-3.79,5.68s-2,4.74-4.24,5.24c-7,1.54-10.6-4.66-10.35-8.38.17-2.6,1.32-5.33,3.78-6.18s5.76.14,7.84-1.59c2.44-2,1.32-6.17,3-8.87,1.32-2.11,4-2.84,6.41-3.47,4.61-1.22,8-3.09,10.27-7.29,2.63-4.81-2-5-2.93-4.65a11.14,11.14,0,0,0-4.14,2.93c-.95,1.08-1.68,2.32-2.65,3.39a5.35,5.35,0,0,1-3.67,2c-2.1,0-3.84-1.94-4.15-4a8.94,8.94,0,0,1,1.63-5.94c3.45-5.44,9.49-8.59,15.41-11.17l.95-.41a65.91,65.91,0,0,0-65.33,10.27,14.15,14.15,0,0,1,1.27,1.62c2.56,3.9,2.28,9,.93,13.53s-3.69,8.65-4.92,13.17c-.94,3.49-1.28,7.27-3.31,10.27a21.41,21.41,0,0,1-4.22,4.23l-5.76,4.79a24.74,24.74,0,0,1-4.4,3.13,40.81,40.81,0,0,1-4,1.57,67,67,0,0,0,.74,8.94,8.32,8.32,0,0,0,1.09,1c1.84,1.27,4.28,1,6.51,1.19a12.88,12.88,0,0,1,6,2.16,4.83,4.83,0,0,1,1.66,1.64,6,6,0,0,1,.59,2.2c.36,2.81.63,5.62.81,8.45.13,1.92.21,3.85.42,5.77A43.81,43.81,0,0,0,254.62,332a66,66,0,0,0,53.43,13.5,47.63,47.63,0,0,0-5.26-7.34C301.22,336.45,299.4,334.88,298.16,332.83Z"/><path class="cls-1" d="M347.5,303.69c-2.46-1.36-5.44-1.38-8.21-1A6.14,6.14,0,0,0,336,304c-1.68,1.56-1.37,4.23-1.08,6.49a14,14,0,0,1-.63,7.47c-1.66,3.66-5.68,5.49-8.65,8.2a17.75,17.75,0,0,0-5.4,15.9,66,66,0,0,0,34.56-31.49,12.81,12.81,0,0,1-1.47-1.29C351.41,307.34,349.86,305,347.5,303.69Z"/><path class="cls-12" d="M319.87,219.39l-1,.4C313,222.38,307,225.53,303.51,231a8.88,8.88,0,0,0-1.64,5.94c.31,2.08,2.05,4,4.15,4a5.31,5.31,0,0,0,3.67-2c1-1.06,1.7-2.31,2.65-3.38a11,11,0,0,1,4.14-2.93c1-.41,5.59-.16,2.93,4.65-2.29,4.19-5.66,6.07-10.27,7.28-2.41.64-5.08,1.37-6.4,3.48-1.69,2.7-.57,6.83-3,8.87-2.08,1.73-5.28.73-7.84,1.59s-3.61,3.58-3.78,6.18c-.25,3.72,3.37,9.92,10.36,8.38,2.27-.5,3.42-3.05,4.24-5.24s1.69-4.64,3.78-5.68a14.39,14.39,0,0,1,3.87-.85c1.76-.33,3.42-1.08,5.13-1.53a15.87,15.87,0,0,1,5.7-.42c2.2.23,4.58,1.21,5.23,3.3.58,1.93-.59,3.92-1.71,5.6l-2.09,3.12a1.66,1.66,0,0,0-.35.88c0,.49.44.86.87,1.11a5.76,5.76,0,0,0,6.07-.35,8.55,8.55,0,0,0,2.93-4.87c.48-1.87.65-3.81,1.16-5.67a2.5,2.5,0,0,1,.84-1.46c.95-.67,2.27.11,2.93,1.06s1.12,2.13,2.12,2.72,2.49.34,3.75.13,2.77-.17,3.54.85c1,1.28.08,3.1-.87,4.4-2.45,3.36-5.47,6.6-9.47,7.78a17.18,17.18,0,0,1-5.44.52c-6-.23-11.93-2.07-18-2.48a47.73,47.73,0,0,0-8.45.24,19.85,19.85,0,0,0-6.68,1.72,24.26,24.26,0,0,0-3.78,2.58l-5.36,4.2a20.32,20.32,0,0,0-8.15,13.41c-.73,4.93.38,10.5,4.24,13.62,2.09,1.68,4.72,2.47,7.1,3.67s4.68,3.19,5,5.87a18.52,18.52,0,0,1-.32,4.12,12.06,12.06,0,0,0,1.73,7.41,39.61,39.61,0,0,0,4.65,5.39,46.88,46.88,0,0,1,5.26,7.33,64.67,64.67,0,0,0,12.13-3.48,17.76,17.76,0,0,1,5.4-15.91c2.94-2.7,7-4.55,8.65-8.2,1.05-2.3.94-5,.63-7.46-.29-2.27-.6-4.94,1.08-6.49a6.07,6.07,0,0,1,3.33-1.28c2.77-.41,5.75-.4,8.21,1s3.92,3.67,5.8,5.59a13.94,13.94,0,0,0,1.47,1.3,65.89,65.89,0,0,0-29-88.57Q322.86,220.57,319.87,219.39Z"/><path class="cls-12" d="M238.58,277.27l5.76-4.79a21.19,21.19,0,0,0,4.22-4.24c2-3,2.37-6.78,3.31-10.27,1.21-4.51,3.49-8.67,4.84-13.14s1.63-9.63-.94-13.53a11.77,11.77,0,0,0-1.27-1.62,65.72,65.72,0,0,0-24.35,51.64V282a39.18,39.18,0,0,0,4-1.57A24,24,0,0,0,238.58,277.27Z"/><path class="cls-12" d="M247.57,307.52q-.28-4.23-.82-8.45a5.85,5.85,0,0,0-.59-2.2,5,5,0,0,0-1.65-1.64,13.18,13.18,0,0,0-6-2.16c-2.2-.22-4.67.08-6.51-1.19a7.65,7.65,0,0,1-1.09-1,65.8,65.8,0,0,0,23.72,41.14A43.82,43.82,0,0,1,248,313.3C247.77,311.4,247.69,309.45,247.57,307.52Z"/><path class="cls-1" d="M298.16,332.83a12,12,0,0,1-1.73-7.41c.08-.86.26-1.73.33-2.6l25.08-45.49a62.2,62.2,0,0,0,8.92,1.16,16.9,16.9,0,0,0,5.44-.52c4-1.16,7-4.4,9.47-7.77.95-1.31,1.85-3.13.87-4.41-.77-1-2.28-1-3.54-.84s-2.65.51-3.75-.14-1.47-1.77-2.12-2.71-2-1.74-2.94-1.07a2.57,2.57,0,0,0-.83,1.47c-.51,1.86-.68,3.8-1.16,5.66a8.56,8.56,0,0,1-2.94,4.87,5.73,5.73,0,0,1-5.43.65l20.64-37.42a65.85,65.85,0,1,0-36.42,109.32,46.32,46.32,0,0,0-5.26-7.34C301.22,336.45,299.4,334.88,298.16,332.83Z"/><path class="cls-1" d="M347.5,303.69c-2.46-1.36-5.44-1.38-8.21-1A6.14,6.14,0,0,0,336,304c-1.68,1.56-1.37,4.23-1.08,6.49a14,14,0,0,1-.63,7.47c-1.66,3.66-5.68,5.49-8.65,8.2a17.75,17.75,0,0,0-5.4,15.9,66,66,0,0,0,34.56-31.49,12.81,12.81,0,0,1-1.47-1.29C351.41,307.34,349.86,305,347.5,303.69Z"/><path class="cls-13" d="M344.48,236.22l-20.64,37.42a5.77,5.77,0,0,0,5.44-.65,8.55,8.55,0,0,0,2.93-4.87c.49-1.86.66-3.81,1.16-5.66a2.58,2.58,0,0,1,.84-1.47c1-.67,2.27.11,2.93,1.06s1.12,2.13,2.12,2.72,2.49.34,3.75.14,2.78-.18,3.55.84c1,1.28.07,3.1-.88,4.4-2.45,3.36-5.47,6.6-9.47,7.78a17.15,17.15,0,0,1-5.43.52,64,64,0,0,1-8.93-1.16l-25.07,45.49c-.08.86-.26,1.73-.34,2.6a12.06,12.06,0,0,0,1.73,7.41,39.53,39.53,0,0,0,4.65,5.38,46.78,46.78,0,0,1,5.26,7.34A64.67,64.67,0,0,0,320.21,342a17.74,17.74,0,0,1,5.41-15.91c2.93-2.71,7-4.54,8.65-8.2,1-2.3.94-4.95.62-7.46-.28-2.27-.59-4.94,1.09-6.5a6.07,6.07,0,0,1,3.32-1.27c2.77-.41,5.75-.4,8.21,1s3.93,3.67,5.8,5.59a13.94,13.94,0,0,0,1.47,1.3,65.91,65.91,0,0,0-10.27-74.36Z"/></g></g></svg>