<?xml version="1.0" encoding="utf-8"?>
<!-- Generator: Adobe Illustrator 23.0.1, SVG Export Plug-In . SVG Version: 6.00 Build 0)  -->
<svg version="1.1" id="Contenido" xmlns="http://www.w3.org/2000/svg" xmlns:xlink="http://www.w3.org/1999/xlink" x="0px" y="0px"
	 viewBox="0 0 600 600" style="enable-background:new 0 0 600 600;" xml:space="preserve">
<style type="text/css">
	.st0{fill:url(#SVGID_1_);}
	.st1{fill:#1464A5;}
	.st2{fill:#49A5E6;}
	.st3{opacity:0.5;fill-rule:evenodd;clip-rule:evenodd;fill:url(#SVGID_2_);enable-background:new    ;}
	.st4{fill:#F4F4F4;}
	.st5{fill:#2DCCCD;}
	.st6{fill:#E9E9E9;}
	.st7{fill:#02A5A5;}
	.st8{fill:#F8CD50;}
	.st9{fill:#FFFFFF;}
</style>
<title>_</title>
<linearGradient id="SVGID_1_" gradientUnits="userSpaceOnUse" x1="270.9902" y1="468.2996" x2="445.7798" y2="35.7004" gradientTransform="matrix(1 0 0 -1 0 602)">
	<stop  offset="0" style="stop-color:#192647"/>
	<stop  offset="0" style="stop-color:#192647;stop-opacity:0.5"/>
	<stop  offset="1" style="stop-color:#192647;stop-opacity:0"/>
</linearGradient>
<path class="st0" d="M262.5,139h191.8c12.7,0,23,10.3,23,23V538c0,12.7-10.3,23-23,23H262.5c-12.7,0-23-10.3-23-23V162
	C239.5,149.3,249.8,139,262.5,139z"/>
<path class="st1" d="M212.5,89h191.8c12.7,0,23,10.3,23,23V488c0,12.7-10.3,23-23,23H212.5c-12.7,0-23-10.3-23-23V112
	C189.5,99.3,199.8,89,212.5,89z"/>
<rect x="189.5" y="141.7" class="st2" width="237.8" height="316.6"/>
<linearGradient id="SVGID_2_" gradientUnits="userSpaceOnUse" x1="202.169" y1="391.449" x2="329.729" y2="263.899" gradientTransform="matrix(1 0 0 -1 0 602)">
	<stop  offset="0" style="stop-color:#FFFFFF;stop-opacity:0.5"/>
	<stop  offset="1" style="stop-color:#EDF8F9;stop-opacity:0.2"/>
	<stop  offset="1" style="stop-color:#FFFFFF;stop-opacity:0"/>
</linearGradient>
<polygon class="st3" points="189.8,141.9 189.8,458.1 221.6,458.1 393.4,141.9 "/>
<path class="st4" d="M247,241.2h122.8l0,0v71.1c0,6.6-5.4,12-12,12H259c-6.6,0-12-5.4-12-12V241.2L247,241.2z"/>
<rect x="293.9" y="241.2" class="st5" width="28.9" height="84.1"/>
<path class="st5" d="M270.7,217.9l-5.7-5.7c-0.4-0.4-0.4-1.1,0-1.5l19-19.1c0.4-0.4,1.1-0.4,1.5,0l26.1,26.3L270.7,217.9z"/>
<path class="st5" d="M346.5,217.9l5.7-5.7c0.4-0.4,0.4-1.1,0-1.5l-19-19.1c-0.4-0.4-1.1-0.4-1.5,0l-26.1,26.3L346.5,217.9z"/>
<path class="st6" d="M373.4,241.2h-130l0,0v-22.3c0-1.7,1.3-3,3-3h124c1.7,0,3,1.3,3,3V241.2L373.4,241.2z"/>
<rect x="292.1" y="214.8" class="st7" width="32.5" height="26.4"/>
<path class="st8" d="M338.4,392.6c0,16.6-13.4,30-30,30s-30-13.4-30-30s13.4-30,30-30S338.4,376,338.4,392.6L338.4,392.6"/>
<g>
	<path class="st9" d="M302.2,406c-0.7,0-1.3-0.3-1.8-0.8l-9.2-9.2c-1-1-1-2.6,0-3.6c1-1,2.6-1,3.6,0l7.4,7.4L322,380
		c1-1,2.6-1,3.6,0c1,1,1,2.6,0,3.6L304,405.2C303.5,405.7,302.9,406,302.2,406z"/>
</g>
</svg>
