<svg xmlns="http://www.w3.org/2000/svg" xmlns:xlink="http://www.w3.org/1999/xlink" viewBox="0 0 600 600"><defs><style>.cls-1{fill:none;}.cls-2{fill:url(#Degradado_sin_nombre_41);}.cls-3{fill:#043263;}.cls-4{fill:#49a5e6;}.cls-5{opacity:0.5;isolation:isolate;fill:url(#Degradado_sin_nombre_16);}.cls-6{fill:#f4f4f4;}.cls-7{fill:#2dcccd;}.cls-8{fill:#e9e9e9;}.cls-9{fill:#02a5a5;}.cls-10{fill:#f8cd50;}.cls-11{fill:#fff;}</style><linearGradient id="Degradado_sin_nombre_41" x1="247.58" y1="5139.91" x2="460.72" y2="4739.04" gradientTransform="matrix(1, 0, 0, -1, 0, 5292)" gradientUnits="userSpaceOnUse"><stop offset="0" stop-color="#192647" stop-opacity="0.5"/><stop offset="1" stop-color="#192647" stop-opacity="0"/></linearGradient><linearGradient id="Degradado_sin_nombre_16" x1="215.96" y1="5076.24" x2="370.22" y2="4921.98" gradientTransform="matrix(1, 0, 0, -1, 0, 5292)" gradientUnits="userSpaceOnUse"><stop offset="0" stop-color="#fff" stop-opacity="0.5"/><stop offset="1" stop-color="#ecf7f8" stop-opacity="0.1"/></linearGradient></defs><title>6</title><g id="Cuadrados_Blancos" data-name="Cuadrados Blancos"><rect class="cls-1" width="600" height="600"/></g><g id="Capa_11" data-name="Capa 11"><path class="cls-2" d="M261.1,147.85H447.2a22.32,22.32,0,0,1,22.3,22.31V534.89a22.32,22.32,0,0,1-22.3,22.31H261.1a22.32,22.32,0,0,1-22.3-22.31V170.16A22.32,22.32,0,0,1,261.1,147.85Z"/><path class="cls-3" d="M207.5,96.85H392.4A22.13,22.13,0,0,1,414.5,119v362a22.12,22.12,0,0,1-22.1,22.1H207.5a22.12,22.12,0,0,1-22.1-22.1v-362a22.13,22.13,0,0,1,22.06-22.2Z"/><rect class="cls-4" x="185.4" y="147.85" width="229.2" height="304.3"/><polygon class="cls-5" points="185.7 148.05 185.7 451.95 302.5 452.15 414.5 245.15 414.5 147.85 185.7 148.05"/><path class="cls-6" d="M241,243.31H359v68.32a11.57,11.57,0,0,1-11.53,11.53H252.53A11.57,11.57,0,0,1,241,311.63V243.31Z"/><rect class="cls-7" x="286.07" y="243.31" width="27.77" height="80.81"/><path class="cls-7" d="M263.77,220.92l-5.47-5.48a1,1,0,0,1,0-1.44l18.25-18.35a1,1,0,0,1,1.45,0l25.07,25.27Z"/><path class="cls-7" d="M336.61,220.92l5.48-5.48a1.05,1.05,0,0,0,0-1.44l-18.26-18.35a1,1,0,0,0-1.44,0l-25.08,25.27Z"/><path class="cls-8" d="M362.46,243.31H237.54V221.88a2.83,2.83,0,0,1,2.88-2.88H359.58a2.83,2.83,0,0,1,2.88,2.88v21.43Z"/><rect class="cls-9" x="284.34" y="217.94" width="31.23" height="25.37"/><path class="cls-10" d="M328.83,388.79A28.83,28.83,0,1,1,300,360a28.79,28.79,0,0,1,28.83,28.83h0"/><path class="cls-11" d="M294,401.66a2.38,2.38,0,0,1-1.73-.77l-8.84-8.84a2.44,2.44,0,0,1,3.46-3.45l7.11,7.11,19-19a2.45,2.45,0,0,1,3.46,3.46l-20.76,20.75A2.36,2.36,0,0,1,294,401.66Z"/></g></svg>