<svg xmlns="http://www.w3.org/2000/svg" xmlns:xlink="http://www.w3.org/1999/xlink" viewBox="0 0 600 600"><defs><style>.cls-1{fill:none;}.cls-2{fill:url(#Degradado_sin_nombre_183);}.cls-3{fill:#1464a5;}.cls-4{fill:#49a5e6;}.cls-5{opacity:0.5;isolation:isolate;fill:url(#Degradado_sin_nombre_16);}.cls-6{fill:#da3951;}.cls-7{fill:#fff;}</style><linearGradient id="Degradado_sin_nombre_183" x1="247.58" y1="-2984.09" x2="460.72" y2="-3384.96" gradientTransform="matrix(1, 0, 0, -1, 0, -2832)" gradientUnits="userSpaceOnUse"><stop offset="0" stop-color="#192647" stop-opacity="0.5"/><stop offset="1" stop-color="#192647" stop-opacity="0"/></linearGradient><linearGradient id="Degradado_sin_nombre_16" x1="215.96" y1="-3047.76" x2="370.22" y2="-3202.02" gradientTransform="matrix(1, 0, 0, -1, 0, -2832)" gradientUnits="userSpaceOnUse"><stop offset="0" stop-color="#fff" stop-opacity="0.5"/><stop offset="1" stop-color="#ecf7f8" stop-opacity="0.1"/></linearGradient></defs><title>6</title><g id="Cuadrados_Blancos" data-name="Cuadrados Blancos"><rect class="cls-1" width="600" height="600"/><rect class="cls-1" width="600" height="600"/></g><g id="Capa_25" data-name="Capa 25"><path class="cls-2" d="M261.1,147.85H447.2a22.32,22.32,0,0,1,22.3,22.31V534.89a22.32,22.32,0,0,1-22.3,22.31H261.1a22.32,22.32,0,0,1-22.3-22.31V170.16A22.32,22.32,0,0,1,261.1,147.85Z"/><path class="cls-3" d="M207.5,96.85H392.4A22.13,22.13,0,0,1,414.5,119v362a22.12,22.12,0,0,1-22.1,22.1H207.5a22.12,22.12,0,0,1-22.1-22.1v-362a22.13,22.13,0,0,1,22.06-22.2Z"/><rect class="cls-4" x="185.4" y="147.85" width="229.2" height="304.3"/><polygon class="cls-5" points="185.7 148.05 185.7 451.95 302.5 452.15 414.5 245.15 414.5 147.85 185.7 148.05"/><path class="cls-6" d="M233.19,348.05h130.4a7.17,7.17,0,0,0,6.23-10.74l-65.2-114.23a7.19,7.19,0,0,0-12.47,0L227,337.32a7.18,7.18,0,0,0,6.24,10.73Z"/><path class="cls-7" d="M298.38,311.32a5.66,5.66,0,0,1-5.66-5.66h0v-47.3a5.66,5.66,0,0,1,11.32,0v47.3a5.65,5.65,0,0,1-5.66,5.66Z"/><circle class="cls-7" cx="298.38" cy="326.75" r="6.6"/></g></svg>