<svg xmlns="http://www.w3.org/2000/svg" xmlns:xlink="http://www.w3.org/1999/xlink" viewBox="0 0 600 600"><defs><style>.cls-1{fill:none;}.cls-2{isolation:isolate;}.cls-3,.cls-8{fill-rule:evenodd;}.cls-3{mix-blend-mode:multiply;fill:url(#Degradado_sin_nombre_23);}.cls-4{fill:#1464a5;}.cls-5{fill:#49a5e6;}.cls-6{fill:#043263;}.cls-7{fill:#5ac4c4;}.cls-8{opacity:0.5;fill:url(#linear-gradient);}.cls-9{clip-path:url(#clip-path);}.cls-10{fill:#46b19b;}.cls-11{fill:#2dcccd;}.cls-12{fill:url(#Degradado_sin_nombre_18);}</style><linearGradient id="Degradado_sin_nombre_23" x1="186.08" y1="102.19" x2="422.7" y2="547.21" gradientUnits="userSpaceOnUse"><stop offset="0" stop-color="#192647"/><stop offset="0" stop-color="#192647" stop-opacity="0.5"/><stop offset="1" stop-color="#192647" stop-opacity="0"/></linearGradient><linearGradient id="linear-gradient" x1="122.59" y1="186.11" x2="315.3" y2="288.57" gradientUnits="userSpaceOnUse"><stop offset="0" stop-color="#eaf9fa"/><stop offset="1" stop-color="#eaf9fa" stop-opacity="0.2"/><stop offset="1" stop-color="#eaf9fa" stop-opacity="0.5"/></linearGradient><clipPath id="clip-path"><path class="cls-1" d="M365.24,250.56a89.77,89.77,0,1,1-90.49-89,89.77,89.77,0,0,1,90.49,89"/></clipPath><linearGradient id="Degradado_sin_nombre_18" x1="365.24" y1="265.03" x2="275.98" y2="265.03" gradientUnits="userSpaceOnUse"><stop offset="0" stop-color="#028484"/><stop offset="1" stop-color="#028484" stop-opacity="0"/></linearGradient></defs><title>_</title><g class="cls-2"><g id="Contenido"><path class="cls-3" d="M577.91,458.55V447.82a3,3,0,0,0-3-3H551.78a21.45,21.45,0,0,0,.77-5.64V179.49a23,23,0,0,0-23-23h-404a23,23,0,0,0-23,23V439.18a21.45,21.45,0,0,0,.77,5.64H80a3,3,0,0,0-3,3v10.73H64.87a3,3,0,0,0-3,3v24a3,3,0,0,0,3,3H588.13a3,3,0,0,0,3-3v-24a3,3,0,0,0-3-3Z"/><path class="cls-4" d="M74.56,107.49h404a23,23,0,0,1,23,23V411.63a0,0,0,0,1,0,0h-450a0,0,0,0,1,0,0V130.49a23,23,0,0,1,23-23Z"/><rect class="cls-5" x="71.29" y="127.52" width="410" height="248" rx="10"/><rect class="cls-4" x="10.87" y="409.55" width="529.26" height="29.96" rx="3"/><path class="cls-6" d="M526.91,409.55H26V398.82a3,3,0,0,1,3-3h495a3,3,0,0,1,3,3Z"/><path class="cls-7" d="M310.45,419.54H245.54a10,10,0,0,1-10-10h84.88A10,10,0,0,1,310.45,419.54Z"/><path class="cls-8" d="M81.29,375.52h198l133.14-248H81.29a10,10,0,0,0-10,10v228A10,10,0,0,0,81.29,375.52Z"/><path class="cls-4" d="M365.24,250.56a89.77,89.77,0,1,1-90.49-89,89.77,89.77,0,0,1,90.49,89"/><g class="cls-9"><path class="cls-10" d="M331.09,306.45a3.78,3.78,0,0,0-1.83.33,4,4,0,0,0-1.69,2.48,21.5,21.5,0,0,0-.05,3.31c-.11,2.13-1.28,4-2.16,6a.46.46,0,0,0-.05.36.43.43,0,0,0,.2.2c1.12.66,2.55.11,3.66-.57a10.65,10.65,0,0,0,2.39-1.89c1.95-2.12,2.52-5.13,3-8a1.28,1.28,0,0,0,0-.7,1.14,1.14,0,0,0-.53-.51c-.92-.53-1.53-1.13-2.59-1Z"/><path class="cls-11" d="M270.67,189.38c-1.87,2.07-1.45,5.27-2.34,7.91-.4,1.17-1.06,2.24-1.39,3.43s-.32,2.53-.57,3.77a8.86,8.86,0,0,1-1.69,3.7c-.3.38-.63.88-.38,1.28a1.07,1.07,0,0,0,1,.34,12.11,12.11,0,0,0,7-2.46,5.39,5.39,0,0,0,1.64-1.82,7,7,0,0,0,.51-2.84l.24-6.64a35.14,35.14,0,0,0-.16-6.49,1,1,0,0,0-1.17-1.06A3.91,3.91,0,0,0,270.67,189.38Z"/><path class="cls-11" d="M244,180.75a8.2,8.2,0,0,0-6.29,3.9,3.74,3.74,0,0,0-.56,1.51c-.16,1.56,1.23,2.87,2.68,3.45a7.68,7.68,0,0,0,3.21.54,16.13,16.13,0,0,0,2.07-.3l6.61-1.25a2.47,2.47,0,0,0,1.85-1,1.67,1.67,0,0,0-.16-1.64,4.84,4.84,0,0,0-1.25-1.18c-2.07-1.54-3.89-3.67-6.43-4.09Z"/><path class="cls-1" d="M278.41,322.21a16.44,16.44,0,0,1-2.36-10.1c.18-1.88.68-3.75.44-5.62-.48-3.61-3.62-6.29-6.86-8s-6.83-2.75-9.67-5c-5.27-4.26-6.74-11.85-5.78-18.56,1.09-7.65,5.11-13.6,11.1-18.29l7.31-5.72a32.87,32.87,0,0,1,5.16-3.52,26.81,26.81,0,0,1,9.1-2.34,64.27,64.27,0,0,1,11.52-.33c8.22.56,16.24,3.07,24.48,3.38a23.07,23.07,0,0,0,7.41-.71c5.45-1.59,9.57-6,12.91-10.6,1.29-1.78,2.52-4.26,1.19-6-1.05-1.39-3.11-1.42-4.83-1.15s-3.61.69-5.11-.19-2-2.41-2.89-3.7-2.72-2.36-4-1.45a3.47,3.47,0,0,0-1.14,2c-.69,2.53-.92,5.18-1.58,7.72a11.68,11.68,0,0,1-4,6.64,7.84,7.84,0,0,1-8.27.48c-.59-.34-1.19-.85-1.19-1.52a2.23,2.23,0,0,1,.49-1.19l2.84-4.26c1.53-2.29,3.13-5,2.33-7.63-.88-2.85-4.17-4.18-7.13-4.5a21.59,21.59,0,0,0-7.76.58c-2.37.61-4.63,1.63-7,2.08-1.77.33-3.65.36-5.27,1.16-2.85,1.42-4.06,4.76-5.16,7.74s-2.68,6.46-5.78,7.14c-9.52,2.1-14.46-6.35-14.12-11.42.24-3.55,1.81-7.27,5.16-8.43s7.85.2,10.68-2.16c3.33-2.78,1.8-8.41,4.1-12.09,1.8-2.88,5.44-3.87,8.73-4.74,6.29-1.66,10.89-4.21,14-9.93,3.58-6.56-2.72-6.89-4-6.34a15.17,15.17,0,0,0-5.64,4c-1.29,1.46-2.29,3.16-3.61,4.61a7.27,7.27,0,0,1-5,2.67c-2.86,0-5.24-2.64-5.66-5.47s.7-5.68,2.23-8.1c4.69-7.41,12.93-11.71,21-15.23l1.3-.55a89.84,89.84,0,0,0-89.06,14,16.75,16.75,0,0,1,1.73,2.2c3.5,5.32,3.11,12.34,1.28,18.44S217,214,215.32,220.16c-1.29,4.76-1.75,9.92-4.51,14a28.84,28.84,0,0,1-5.75,5.77l-7.86,6.53a32.65,32.65,0,0,1-6,4.26,52.54,52.54,0,0,1-5.47,2.14,90.54,90.54,0,0,0,1,12.19,10.92,10.92,0,0,0,1.49,1.31c2.51,1.73,5.84,1.32,8.87,1.62a17.84,17.84,0,0,1,8.16,2.94,6.82,6.82,0,0,1,2.26,2.24,8.25,8.25,0,0,1,.8,3q.74,5.74,1.11,11.52c.17,2.62.28,5.25.57,7.87a59.62,59.62,0,0,0,9.08,25.56,89.84,89.84,0,0,0,72.82,18.4,64.1,64.1,0,0,0-7.17-10C282.58,327.14,280.11,325,278.41,322.21Z"/><path class="cls-1" d="M345.66,282.48c-3.35-1.85-7.41-1.87-11.19-1.31a8.3,8.3,0,0,0-4.53,1.74c-2.29,2.12-1.87,5.76-1.48,8.85.43,3.42.57,7-.85,10.17-2.26,5-7.75,7.49-11.79,11.18a24.2,24.2,0,0,0-7.37,21.68,90,90,0,0,0,47.11-42.92,17.71,17.71,0,0,1-2-1.77C351,287.46,348.88,284.26,345.66,282.48Z"/><path class="cls-11" d="M308,167.58l-1.3.55c-8,3.52-16.27,7.82-21,15.23-1.53,2.42-2.65,5.27-2.23,8.1s2.8,5.5,5.66,5.47a7.27,7.27,0,0,0,5-2.67c1.32-1.45,2.32-3.15,3.61-4.61a15.17,15.17,0,0,1,5.64-4c1.33-.55,7.63-.22,4,6.34-3.12,5.72-7.72,8.27-14,9.93-3.29.87-6.93,1.86-8.73,4.74-2.3,3.68-.77,9.31-4.1,12.09-2.83,2.36-7.2,1-10.68,2.16s-4.92,4.88-5.16,8.43c-.34,5.07,4.6,13.52,14.12,11.42,3.1-.68,4.67-4.15,5.78-7.14s2.31-6.32,5.16-7.74c1.62-.8,3.5-.83,5.27-1.16,2.4-.45,4.66-1.47,7-2.08a21.59,21.59,0,0,1,7.76-.58c3,.32,6.25,1.65,7.13,4.5.8,2.63-.8,5.34-2.33,7.63l-2.84,4.26a2.23,2.23,0,0,0-.49,1.19c0,.67.6,1.18,1.19,1.52a7.84,7.84,0,0,0,8.27-.48,11.68,11.68,0,0,0,4-6.64c.66-2.54.89-5.19,1.58-7.72a3.47,3.47,0,0,1,1.14-2c1.3-.91,3.1.15,4,1.45s1.52,2.9,2.89,3.7,3.39.47,5.11.19,3.78-.24,4.83,1.15c1.33,1.75.1,4.23-1.19,6-3.34,4.58-7.46,9-12.91,10.6a23.07,23.07,0,0,1-7.41.71c-8.24-.31-16.26-2.82-24.48-3.38a64.27,64.27,0,0,0-11.52.33,26.81,26.81,0,0,0-9.1,2.34,32.87,32.87,0,0,0-5.16,3.52l-7.31,5.72c-6,4.69-10,10.64-11.1,18.29-1,6.71.51,14.3,5.78,18.56,2.84,2.29,6.43,3.37,9.67,5s6.38,4.35,6.86,8c.24,1.87-.26,3.74-.44,5.62a16.44,16.44,0,0,0,2.36,10.1c1.7,2.76,4.17,4.93,6.34,7.34a64.1,64.1,0,0,1,7.17,10,88.16,88.16,0,0,0,16.53-4.75,24.2,24.2,0,0,1,7.37-21.68c4-3.69,9.53-6.2,11.79-11.18,1.42-3.14,1.28-6.75.85-10.17-.39-3.09-.81-6.73,1.48-8.85a8.3,8.3,0,0,1,4.53-1.74c3.78-.56,7.84-.54,11.19,1.31s5.35,5,7.91,7.62a17.71,17.71,0,0,0,2,1.77A89.82,89.82,0,0,0,308,167.58Z"/><path class="cls-11" d="M197.2,246.47l7.86-6.53a28.84,28.84,0,0,0,5.75-5.77c2.76-4.09,3.22-9.25,4.51-14,1.65-6.15,4.76-11.82,6.59-17.92s2.22-13.12-1.28-18.44a16.75,16.75,0,0,0-1.73-2.2A89.57,89.57,0,0,0,185.71,252c0,.3,0,.58,0,.87a52.54,52.54,0,0,0,5.47-2.14A32.65,32.65,0,0,0,197.2,246.47Z"/><path class="cls-11" d="M209.45,287.71q-.37-5.77-1.11-11.52a8.25,8.25,0,0,0-.8-3,6.82,6.82,0,0,0-2.26-2.24,17.84,17.84,0,0,0-8.16-2.94c-3-.3-6.36.11-8.87-1.62a10.92,10.92,0,0,1-1.49-1.31,89.64,89.64,0,0,0,32.34,56.08A59.62,59.62,0,0,1,210,295.58C209.73,293,209.62,290.33,209.45,287.71Z"/><path class="cls-1" d="M278.41,322.21a16.44,16.44,0,0,1-2.36-10.1c.11-1.18.36-2.37.46-3.55l34.18-62a86.09,86.09,0,0,0,12.16,1.58,23.07,23.07,0,0,0,7.41-.71c5.45-1.59,9.57-6,12.91-10.6,1.29-1.78,2.52-4.26,1.19-6-1.05-1.39-3.11-1.42-4.83-1.15s-3.61.69-5.11-.19-2-2.41-2.89-3.7-2.72-2.36-4-1.45a3.47,3.47,0,0,0-1.14,2c-.69,2.53-.92,5.18-1.58,7.72a11.68,11.68,0,0,1-4,6.64,7.84,7.84,0,0,1-7.41.88l28.13-51a89.75,89.75,0,1,0-49.63,149,64.1,64.1,0,0,0-7.17-10C282.58,327.14,280.11,325,278.41,322.21Z"/><path class="cls-1" d="M345.66,282.48c-3.35-1.85-7.41-1.87-11.19-1.31a8.3,8.3,0,0,0-4.53,1.74c-2.29,2.12-1.87,5.76-1.48,8.85.43,3.42.57,7-.85,10.17-2.26,5-7.75,7.49-11.79,11.18a24.2,24.2,0,0,0-7.37,21.68,90,90,0,0,0,47.11-42.92,17.71,17.71,0,0,1-2-1.77C351,287.46,348.88,284.26,345.66,282.48Z"/><path class="cls-12" d="M341.55,190.52l-28.13,51a7.84,7.84,0,0,0,7.41-.88,11.68,11.68,0,0,0,4-6.64c.66-2.54.89-5.19,1.58-7.72a3.47,3.47,0,0,1,1.14-2c1.3-.91,3.1.15,4,1.45s1.52,2.9,2.89,3.7,3.39.47,5.11.19,3.78-.24,4.83,1.15c1.33,1.75.1,4.23-1.19,6-3.34,4.58-7.46,9-12.91,10.6a23.07,23.07,0,0,1-7.41.71,86.09,86.09,0,0,1-12.16-1.58l-34.18,62c-.1,1.18-.35,2.37-.46,3.55a16.44,16.44,0,0,0,2.36,10.1c1.7,2.76,4.17,4.93,6.34,7.34a64.1,64.1,0,0,1,7.17,10,88.16,88.16,0,0,0,16.53-4.75,24.2,24.2,0,0,1,7.37-21.68c4-3.69,9.53-6.19,11.79-11.18,1.42-3.14,1.28-6.75.85-10.17-.39-3.09-.81-6.73,1.48-8.85a8.3,8.3,0,0,1,4.53-1.74c3.78-.56,7.84-.54,11.19,1.31s5.35,5,7.91,7.62a17.71,17.71,0,0,0,2,1.77,89.82,89.82,0,0,0-14-101.35Z"/></g></g></g></svg>