<svg id="Contenido" xmlns="http://www.w3.org/2000/svg" xmlns:xlink="http://www.w3.org/1999/xlink" viewBox="0 0 600 600"><defs><style>.cls-1{fill:url(#Degradado_sin_nombre_4);}.cls-2{fill:#1464a5;}.cls-3{fill:url(#Degradado_sin_nombre_7);}.cls-4{fill:#2dcccd;}</style><linearGradient id="Degradado_sin_nombre_4" x1="272.4" y1="200.78" x2="430.18" y2="497.53" gradientUnits="userSpaceOnUse"><stop offset="0" stop-color="#192647" stop-opacity="0.5"/><stop offset="1" stop-color="#192647" stop-opacity="0"/></linearGradient><linearGradient id="Degradado_sin_nombre_7" x1="528.87" y1="301.55" x2="179.33" y2="301.55" gradientUnits="userSpaceOnUse"><stop offset="0" stop-color="#043263" stop-opacity="0.8"/><stop offset="1" stop-color="#043263" stop-opacity="0.2"/></linearGradient></defs><title>vacantes</title><path class="cls-1" d="M458.13,231.25a117.9,117.9,0,0,0-103.66,61.69l-3.18,6-3.08-5.78-.1-.19a117.9,117.9,0,1,0,0,112.43l3.18-6,3.08,5.79.1.19A117.91,117.91,0,1,0,458.13,231.25ZM306.63,382.94a70.75,70.75,0,1,1,0-67.57l18,33.78Zm151.5,36.95A70.77,70.77,0,0,1,396,382.94l-18-33.79,18-33.78a70.75,70.75,0,1,1,62.18,104.52Z"/><path class="cls-2" d="M197.29,419.46A118,118,0,0,1,79.39,301.55h47.16a70.76,70.76,0,0,0,132.92,33.79l47.84-90a117.91,117.91,0,0,1,221.56,56.21l-23.58,18.87-23.58-18.87a70.76,70.76,0,0,0-132.92-33.78l-47.84,90A117.9,117.9,0,0,1,197.29,419.46Z"/><path class="cls-3" d="M411,183.65a117.9,117.9,0,0,0-103.66,61.69l-47.84,90A70.8,70.8,0,0,1,203.85,372l-24.52,46.1A118,118,0,0,0,301,357.77l47.84-90a70.76,70.76,0,0,1,132.92,33.78l23.58,18.87,23.58-18.87A118,118,0,0,0,411,183.65Z"/><path class="cls-4" d="M411,419.46a117.9,117.9,0,0,1-103.66-61.69l-.1-.19-47.74-89.81a70.76,70.76,0,0,0-132.92,33.78L104.74,319a2.85,2.85,0,0,1-3.54,0L79.39,301.55A117.91,117.91,0,0,1,301,245.34l.1.19,47.74,89.81a70.76,70.76,0,0,0,132.92-33.79L503.52,319a2.85,2.85,0,0,0,3.54,0l21.81-17.46A118,118,0,0,1,411,419.46Z"/></svg>