<svg id="b82ee9e9-01e1-455d-8ac5-c4a7a3bdef07" xmlns="http://www.w3.org/2000/svg" xmlns:xlink="http://www.w3.org/1999/xlink" viewBox="0 0 600 600"><defs><style>.cls-1{fill:url(#Degradado_sin_nombre);}.cls-2{fill:#1464a5;}.cls-3{fill:#49a5e6;}.cls-4,.cls-6{fill-rule:evenodd;}.cls-4{opacity:0.5;isolation:isolate;fill:url(#Degradado_sin_nombre_2);}.cls-5{fill:#153260;}.cls-10,.cls-6{fill:#69c8ca;}.cls-7{fill:#f8cd50;}.cls-8{fill:url(#Degradado_sin_nombre_3);}.cls-9{fill:#fef5dc;}.cls-11{fill:none;}</style><linearGradient id="Degradado_sin_nombre" x1="218.16" y1="727.56" x2="480.5" y2="1220.96" gradientTransform="translate(0 -648)" gradientUnits="userSpaceOnUse"><stop offset="0" stop-color="#192647"/><stop offset="0" stop-color="#192647" stop-opacity="0.5"/><stop offset="1" stop-color="#192647" stop-opacity="0"/></linearGradient><linearGradient id="Degradado_sin_nombre_2" x1="196.19" y1="871.72" x2="320.02" y2="995.56" gradientTransform="translate(0 -648)" gradientUnits="userSpaceOnUse"><stop offset="0" stop-color="#fff" stop-opacity="0.5"/><stop offset="1" stop-color="#edf6f7" stop-opacity="0.1"/></linearGradient><linearGradient id="Degradado_sin_nombre_3" x1="330.58" y1="2295.73" x2="384.46" y2="2267.07" gradientTransform="matrix(1, 0, 0, -1, 0, 2404)" gradientUnits="userSpaceOnUse"><stop offset="0" stop-color="#fade8e"/><stop offset="1" stop-color="#fade8e" stop-opacity="0.4"/></linearGradient></defs><path class="cls-1" d="M463.84,244.61a65.08,65.08,0,1,0-86.91-89.32H256.84a23,23,0,0,0-23,23v29.17h0V511.1h0v29.19a23,23,0,0,0,23,23h184a23,23,0,0,0,23-23Z"/><rect class="cls-2" x="183.84" y="105.29" width="230" height="408" rx="23"/><rect class="cls-3" x="183.84" y="157.29" width="230" height="304"/><polygon class="cls-4" points="183.84 157.46 183.84 461.1 217.95 461.15 379.5 157.31 183.84 157.46"/><circle class="cls-5" cx="198.86" cy="322.39" r="45.36"/><path class="cls-6" d="M182.28,318a7.1,7.1,0,0,1,0,8.75l3.62,1.51a8.89,8.89,0,0,0,0-11.92Zm7.7-3.32,4.37-1.81a16.58,16.58,0,0,1,.27,18.61l-.27.4L190,330.09a11.94,11.94,0,0,0,.27-15.07l-.27-.32,4.37-1.81Zm8.3-3.62,4.22-1.82a24.29,24.29,0,0,1,.3,25.62l-.3.49-4.22-1.81a19.79,19.79,0,0,0,.29-22.05l-.29-.43,4.22-1.82Zm12.52-5.29a32,32,0,0,1,0,33.2l-4.23-1.81a27.44,27.44,0,0,0,0-29.58Z"/><circle class="cls-5" cx="398.81" cy="322.39" r="45.36"/><circle class="cls-5" cx="299.39" cy="322.33" r="45.47" transform="translate(-61.77 573.51) rotate(-81.93)"/><path class="cls-6" d="M309.43,311.8v4h-4v-4Zm0,17.21v4h-4v-4Zm-14.57-2.65v9.27H285.6v-9.27ZM283,338.28h14.56V323.72H283Zm11.91-29.13v9.27H285.6v-9.27ZM292.22,329v4h-4v-4ZM283,321.07h14.56V306.5H283Zm9.27-9.27v4h-4v-4Zm19.86-2.65v9.27h-9.27v-9.27Zm2.64,14.57v2.64h-9.26v-2.64Zm-11.91,0v2.64h-2.65v-2.64ZM314.72,329v9.27h-2.64V329Zm-11.91,0v6.62h6.62v2.65h-9.27V329Zm-2.65-7.94h14.56V306.5H300.16Z"/><path class="cls-7" d="M448.94,137a65,65,0,1,1-65-65h0a64.91,64.91,0,0,1,65,64.82V137"/><path class="cls-8" d="M415.06,79.54a65,65,0,1,0-62.13,114.27h0a9.64,9.64,0,0,1,1,.54Z"/><path class="cls-9" d="M391.63,149.85c0-4.32-1.71-6-9.8-9.71-11.69-5.31-15.2-9.35-15.2-17.54,0-8,6.57-13.84,13.22-15.55V97.16h.36l9.62,4.23v5.48a24.52,24.52,0,0,1,8.63,3l.45.27.36.18-.09.36-.09.54-1.26,7.55-.27,1.44-.18,1-.81-.54-1.17-.9A17.32,17.32,0,0,0,384.61,116c-5,0-7.73,2.25-7.73,6,0,3.59,1.8,5.21,9.71,8.9,11.78,5.3,15.47,9.62,15.47,18.34a17.08,17.08,0,0,1-12.32,16.18v11.42h-.81l-9.17-5.13v-5.57c-3.33-.45-9.26-1.71-13-3.69l-.54-.27-.36-.18v-.36L366,161l1.08-7.73.18-1.35.09-.9.72.54,1.08.72a26.18,26.18,0,0,0,13.85,4.5c5.3,0,8.72-2.61,8.72-6.92"/><polygon class="cls-10" points="388.31 325.53 404.04 325.53 409.28 320.3 393.56 320.3 388.31 325.53"/><path class="cls-10" d="M383.07,322.92a7.86,7.86,0,0,1,7.84-7.86h9.63l5.23-5.23H390.93a13.1,13.1,0,0,0-3.8,25.62l4.67-4.68h-.87A7.86,7.86,0,0,1,383.07,322.92Z"/><path class="cls-10" d="M411.74,310.86l-4.26,4.25a7.86,7.86,0,0,1-.83,15.67h-7.86L393.55,336h13.1a13.09,13.09,0,0,0,5.09-25.16Z"/><g id="f1e835f4-8dd1-428f-a645-b4a13fec9763"><rect class="cls-11" width="600" height="600"/></g></svg>