<svg id="b3e82d34-e9f3-47e2-8597-3dbcccc3b54b" data-name="b82ee9e9-01e1-455d-8ac5-c4a7a3bdef07" xmlns="http://www.w3.org/2000/svg" xmlns:xlink="http://www.w3.org/1999/xlink" viewBox="0 0 600 600"><defs><style>.e6d15979-f3f5-4846-b84d-b1432e569b55{fill:url(#f9e2e7b4-04e9-47ca-8ed4-1895bb1b2736);}.be1113e1-973a-4df7-8ebf-11e30f753275{fill:#1464a5;}.aa8fcd90-384d-440f-ab28-a6a4bd52e6db{fill:#49a5e6;}.a5fe0280-a07e-49cb-97bf-a86aaf39620b,.fb59530f-a2c9-4e20-b937-156321bb001c{fill-rule:evenodd;}.fb59530f-a2c9-4e20-b937-156321bb001c{opacity:0.5;isolation:isolate;fill:url(#b2b16ef7-b486-465a-837b-75fc3b19de9a);}.e89045e3-da85-4c2b-984b-88c4d08b1e7f{fill:#153260;}.a5fe0280-a07e-49cb-97bf-a86aaf39620b,.ab488785-b9fc-4413-957b-9aeb1f4f4273{fill:#69c8ca;}.b55aed36-9519-4250-ae8a-af9190ef39a7{fill:none;}.aaeb7ebd-5a0f-4723-ac6d-097b32ea67c1{fill:#f8cd51;}.ad627498-0e9a-402a-a2c9-e4e09c0e4bb4{fill:url(#a374ee01-5ebd-4225-8325-ea9287671577);}.a7dc0dd5-bd66-4f3f-8388-b77b1f29db23{fill:#fef5dc;}</style><linearGradient id="f9e2e7b4-04e9-47ca-8ed4-1895bb1b2736" x1="218.16" y1="501.56" x2="480.5" y2="994.96" gradientTransform="translate(0 -422)" gradientUnits="userSpaceOnUse"><stop offset="0" stop-color="#192647"/><stop offset="0" stop-color="#192647" stop-opacity="0.5"/><stop offset="1" stop-color="#192647" stop-opacity="0"/></linearGradient><linearGradient id="b2b16ef7-b486-465a-837b-75fc3b19de9a" x1="196.19" y1="645.72" x2="320.02" y2="769.56" gradientTransform="translate(0 -422)" gradientUnits="userSpaceOnUse"><stop offset="0" stop-color="#fff" stop-opacity="0.5"/><stop offset="1" stop-color="#edf6f7" stop-opacity="0.1"/></linearGradient><linearGradient id="a374ee01-5ebd-4225-8325-ea9287671577" x1="329.97" y1="95.68" x2="383.81" y2="67.06" gradientTransform="matrix(1, 0, 0, -1, 0, 204)" gradientUnits="userSpaceOnUse"><stop offset="0" stop-color="#fade8e"/><stop offset="1" stop-color="#fade8e" stop-opacity="0.4"/></linearGradient></defs><path class="e6d15979-f3f5-4846-b84d-b1432e569b55" d="M463.84,244.61a65.08,65.08,0,1,0-86.91-89.32H256.84a23,23,0,0,0-23,23v29.17h0V511.1h0v29.19a23,23,0,0,0,23,23h184a23,23,0,0,0,23-23Z"/><rect class="be1113e1-973a-4df7-8ebf-11e30f753275" x="183.84" y="105.29" width="230" height="408" rx="23"/><rect class="aa8fcd90-384d-440f-ab28-a6a4bd52e6db" x="183.84" y="157.29" width="230" height="304"/><polygon class="fb59530f-a2c9-4e20-b937-156321bb001c" points="183.84 157.46 183.84 461.1 217.95 461.15 379.5 157.31 183.84 157.46"/><circle class="e89045e3-da85-4c2b-984b-88c4d08b1e7f" cx="198.86" cy="322.39" r="45.36"/><path class="a5fe0280-a07e-49cb-97bf-a86aaf39620b" d="M182.28,318a7.1,7.1,0,0,1,0,8.75l3.62,1.51a8.89,8.89,0,0,0,0-11.92Zm7.7-3.32,4.37-1.81a16.58,16.58,0,0,1,.27,18.61l-.27.4L190,330.09a11.94,11.94,0,0,0,.27-15.07l-.27-.32,4.37-1.81Zm8.3-3.62,4.22-1.82a24.29,24.29,0,0,1,.3,25.62l-.3.49-4.22-1.81a19.79,19.79,0,0,0,.29-22.05l-.29-.43,4.22-1.82Zm12.52-5.29a32,32,0,0,1,0,33.2l-4.23-1.81a27.44,27.44,0,0,0,0-29.58Z"/><circle class="e89045e3-da85-4c2b-984b-88c4d08b1e7f" cx="398.81" cy="322.39" r="45.36"/><circle class="e89045e3-da85-4c2b-984b-88c4d08b1e7f" cx="299.39" cy="321.35" r="45.47" transform="translate(-60.8 572.66) rotate(-81.93)"/><path class="a5fe0280-a07e-49cb-97bf-a86aaf39620b" d="M309.43,311.8v4h-4v-4Zm0,17.21v4h-4v-4Zm-14.57-2.65v9.27H285.6v-9.27ZM283,338.28h14.56V323.72H283Zm11.91-29.13v9.27H285.6v-9.27ZM292.22,329v4h-4v-4ZM283,321.07h14.56V306.5H283Zm9.27-9.27v4h-4v-4Zm19.86-2.65v9.27h-9.27v-9.27Zm2.64,14.57v2.64h-9.26v-2.64Zm-11.91,0v2.64h-2.65v-2.64ZM314.72,329v9.27h-2.64V329Zm-11.91,0v6.62h6.62v2.65h-9.27V329Zm-2.65-7.94h14.56V306.5H300.16Z"/><polygon class="ab488785-b9fc-4413-957b-9aeb1f4f4273" points="388.31 325.53 404.04 325.53 409.28 320.3 393.56 320.3 388.31 325.53"/><path class="ab488785-b9fc-4413-957b-9aeb1f4f4273" d="M383.07,322.92a7.86,7.86,0,0,1,7.84-7.86h9.63l5.23-5.23H390.93a13.1,13.1,0,0,0-3.8,25.62l4.67-4.68h-.87A7.86,7.86,0,0,1,383.07,322.92Z"/><path class="ab488785-b9fc-4413-957b-9aeb1f4f4273" d="M411.74,310.86l-4.26,4.25a7.86,7.86,0,0,1-.83,15.67h-7.86L393.55,336h13.1a13.09,13.09,0,0,0,5.09-25.16Z"/><g id="a6b3e4a2-5be1-4658-834b-e17515109ada" data-name="f1e835f4-8dd1-428f-a645-b4a13fec9763"><rect class="b55aed36-9519-4250-ae8a-af9190ef39a7" width="600" height="600"/></g><path class="aaeb7ebd-5a0f-4723-ac6d-097b32ea67c1" d="M448.94,137a65,65,0,1,1-65.11-65h0a65,65,0,0,1,65.11,64.87V137h0"/><path class="ad627498-0e9a-402a-a2c9-e4e09c0e4bb4" d="M414.43,79.6a65,65,0,1,0-61,114.82Z"/><path class="a7dc0dd5-bd66-4f3f-8388-b77b1f29db23" d="M361.2,134.6h-8.88v-6.67H362c2.65-15.07,12.08-21.86,22.89-21.86,11.5,0,17.49,5.87,20.48,13.23l-8.4,4.83c-2.07-6.33-5.78-9.32-12.08-9.32-6.67,0-11.38,4.26-13.11,13.12h15.06v6.67H371.07v2.05c0,1.15,0,2.3.11,3.45h15.64v6.79H371.88c1.72,8.28,5.86,12.53,13.1,12.53,6.22,0,10-2.75,12.31-9.77l8.29,4.94c-3.34,7.82-10.36,13.35-20.71,13.35-11.27,0-20.13-6.67-22.89-21.05h-9.66V140.1h9a28.6,28.6,0,0,1-.11-3.34V134.6Z"/></svg>