<svg xmlns="http://www.w3.org/2000/svg" xmlns:xlink="http://www.w3.org/1999/xlink" viewBox="0 0 600 600"><defs><style>.cls-1{fill:none;}.cls-2{fill:url(#Degradado_sin_nombre_74);}.cls-3{fill:#043263;}.cls-4{fill:#49a5e6;}.cls-5{opacity:0.5;isolation:isolate;fill:url(#Degradado_sin_nombre_16);}.cls-6{fill:#153260;}.cls-7{fill:#69c8ca;}.cls-8{fill:#28ad68;}.cls-9{fill:#fff;}</style><linearGradient id="Degradado_sin_nombre_74" x1="222.16" y1="5700.44" x2="484.5" y2="5207.04" gradientTransform="matrix(1, 0, 0, -1, 0, 5770)" gradientUnits="userSpaceOnUse"><stop offset="0" stop-color="#192647" stop-opacity="0.5"/><stop offset="1" stop-color="#192647" stop-opacity="0"/></linearGradient><linearGradient id="Degradado_sin_nombre_16" x1="215.96" y1="5076.24" x2="370.22" y2="4921.98" gradientTransform="matrix(1, 0, 0, -1, 0, 5292)" gradientUnits="userSpaceOnUse"><stop offset="0" stop-color="#fff" stop-opacity="0.5"/><stop offset="1" stop-color="#ecf7f8" stop-opacity="0.1"/></linearGradient></defs><title>6</title><g id="Cuadrados_Blancos" data-name="Cuadrados Blancos"><rect class="cls-1" width="600" height="600"/></g><g id="Capa_15" data-name="Capa 15"><path class="cls-2" d="M467.84,234.61a65.08,65.08,0,1,0-86.91-89.32H260.84a23,23,0,0,0-23,23v29.17h0V501.1h0v29.19a23,23,0,0,0,23,23h184a23,23,0,0,0,23-23Z"/><path class="cls-3" d="M207.5,96.85H392.4A22.13,22.13,0,0,1,414.5,119v362a22.12,22.12,0,0,1-22.1,22.1H207.5a22.12,22.12,0,0,1-22.1-22.1v-362a22.13,22.13,0,0,1,22.06-22.2Z"/><rect class="cls-4" x="185.4" y="147.85" width="229.2" height="304.3"/><polygon class="cls-5" points="185.7 148.05 185.7 451.95 302.5 452.15 414.5 245.15 414.5 147.85 185.7 148.05"/><circle class="cls-6" cx="200.03" cy="312.39" r="45.36"/><path class="cls-7" d="M183.45,308a7.1,7.1,0,0,1,0,8.75l3.62,1.51a8.91,8.91,0,0,0,0-11.92Zm7.7-3.32,4.36-1.81a16.58,16.58,0,0,1,.28,18.61l-.28.4-4.34-1.79a12,12,0,0,0,.27-15.07l-.27-.32,4.37-1.81Zm8.3-3.62,4.22-1.82a24.31,24.31,0,0,1,.3,25.62l-.3.49-4.22-1.81a19.81,19.81,0,0,0,.29-22.05l-.29-.43,4.22-1.82ZM212,295.77a32,32,0,0,1,0,33.2l-4.23-1.81a27.48,27.48,0,0,0,0-29.58Z"/><circle class="cls-6" cx="399.98" cy="312.39" r="45.36"/><path class="cls-7" d="M382.17,312.48c0-10.08,7.23-17.48,17.9-17.48s17.7,7.09,17.7,17c0,6.08-3.22,10.35-8.94,10.35-3.59,0-5.26-1.63-6-4a9.53,9.53,0,0,1-7.14,3.45c-3.72,0-6.08-2.5-6.08-7,0-7.5,4-12.17,8.68-12.17a6,6,0,0,1,5.26,2.31l.33-2h5.54l-2.25,13.49c-.37,1.87.35,2.86,2.48,2.86,2.87,0,4.92-2.58,4.92-7.17,0-8.31-5.72-14-14.53-14s-14.4,5.95-14.4,14.4S391,327,399.8,327a14.92,14.92,0,0,0,8.54-2.32l1.54,2.23a18,18,0,0,1-10.31,2.9c-10.72,0-17.39-7.31-17.39-17.35m19.57,3.18,1.14-7a4,4,0,0,0-3.27-1.55c-3,0-4.45,3.5-4.45,7,0,2.13.68,3.36,2.9,3.36a5.52,5.52,0,0,0,3.68-1.82"/><circle class="cls-6" cx="300.01" cy="312.39" r="45.36" transform="translate(-32.87 589.5) rotate(-85.93)"/><path class="cls-7" d="M310.6,301.8v4h-4v-4Zm0,17.21v4h-4v-4ZM296,316.36v9.27h-9.25v-9.27Zm-11.85,11.92h14.56V313.72H284.17Zm11.91-29.13v9.27h-9.31v-9.27ZM293.39,319v4h-4v-4Zm-9.22-7.93h14.56V296.5H284.17Zm9.26-9.27v4h-4v-4Zm19.87-2.65v9.27H304v-9.27Zm2.64,14.57v2.64h-9.26v-2.64Zm-11.91,0v2.64h-2.65v-2.64ZM315.89,319v9.27h-2.65V319ZM304,319v6.62h6.62v2.65h-9.27V319Zm-2.65-7.94h14.56V296.5H301.33Z"/><path class="cls-8" d="M450.1,128A65.1,65.1,0,1,1,385,62.9h0A65.1,65.1,0,0,1,450.1,128"/><path class="cls-9" d="M371.6,157.2a5.83,5.83,0,0,1-4.1-1.7l-20.1-20a5.8,5.8,0,0,1,8.2-8.2l16,15.9,42.8-42.7a5.8,5.8,0,1,1,8.2,8.2l-46.9,46.8A5.83,5.83,0,0,1,371.6,157.2Z"/></g></svg>