<svg id="a0900e66-5e18-4c38-bd87-a6e53f83698f" data-name="ffd68356-799e-49a0-b481-0686ee55b1d2" xmlns="http://www.w3.org/2000/svg" xmlns:xlink="http://www.w3.org/1999/xlink" viewBox="0 0 600 600"><defs><style>.fac1599e-e6e0-4dfa-bf1c-a2dcbd84ca2a{fill:none;}.bd160999-d9a1-4df2-a7fc-d9ee93a48367{fill:url(#bf4ed4d8-204b-4361-a300-75e595725ad5);}.a7345234-09d1-4c4f-9d09-01871ee3e13b{fill:#043263;}.f97fc80e-234c-4352-b6ed-c5c714339bca{fill:#49a5e6;}.b61d0bee-1d38-4d9c-9142-22c781d37c9a{opacity:0.5;isolation:isolate;fill:url(#a806020a-8b25-4b6a-b7d3-ac2f816fc6df);}.e5d563ae-bb8d-4275-aff5-adcc4d11f675{fill:#153260;}.fce5cad9-58d5-4b05-b3b1-fbddb67eecaa{fill:#69c8ca;}.ec63099f-a1ac-4c27-9709-87392ed2c13e{fill:#ffdf8a;}.eb47046f-8a73-4b6f-88a2-3d06bbdfd634{fill:#ffce44;}.e3d36f34-546b-406f-8980-caf237b1460a{fill:#c49735;}.b46bc168-ed7c-4f7c-a3e3-addd2d8f5468{fill:url(#e1f2a9d0-e477-4ad1-9be6-73bbc63e7a32);}</style><linearGradient id="bf4ed4d8-204b-4361-a300-75e595725ad5" x1="222.16" y1="-4254.44" x2="484.5" y2="-3761.04" gradientTransform="translate(0 4324)" gradientUnits="userSpaceOnUse"><stop offset="0" stop-color="#192647" stop-opacity="0.5"/><stop offset="1" stop-color="#192647" stop-opacity="0"/></linearGradient><linearGradient id="a806020a-8b25-4b6a-b7d3-ac2f816fc6df" x1="215.96" y1="-3630.24" x2="370.22" y2="-3475.98" gradientTransform="translate(0 3846)" gradientUnits="userSpaceOnUse"><stop offset="0" stop-color="#fff" stop-opacity="0.5"/><stop offset="1" stop-color="#ecf7f8" stop-opacity="0.1"/></linearGradient><linearGradient id="e1f2a9d0-e477-4ad1-9be6-73bbc63e7a32" x1="337.96" y1="519.79" x2="397.35" y2="460.41" gradientTransform="matrix(1, 0, 0, -1, 0, 602)" gradientUnits="userSpaceOnUse"><stop offset="0" stop-color="#fff" stop-opacity="0.4"/><stop offset="1" stop-color="#fff" stop-opacity="0.1"/></linearGradient></defs><g id="a556b82b-1777-4a3e-8d55-7d45cf9dc223" data-name="ab32f64b-9c47-4eca-81b0-83397f61a58d"><rect class="fac1599e-e6e0-4dfa-bf1c-a2dcbd84ca2a" width="600" height="600"/></g><g id="be19d198-f693-4803-b3d8-1ba66b06a1d6" data-name="a1cb99aa-894b-4849-ac08-979245f82c96"><path class="bd160999-d9a1-4df2-a7fc-d9ee93a48367" d="M467.84,234.61a65.08,65.08,0,1,0-86.91-89.32H260.84a23,23,0,0,0-23,23v29.17h0V501.1h0v29.19a23,23,0,0,0,23,23h184a23,23,0,0,0,23-23Z"/><path class="a7345234-09d1-4c4f-9d09-01871ee3e13b" d="M207.5,96.85H392.4A22.13,22.13,0,0,1,414.5,119V481a22.12,22.12,0,0,1-22.1,22.1H207.5A22.12,22.12,0,0,1,185.4,481V119a22.13,22.13,0,0,1,22.06-22.2h0Z"/><rect class="f97fc80e-234c-4352-b6ed-c5c714339bca" x="185.4" y="147.85" width="229.2" height="304.3"/><polygon class="b61d0bee-1d38-4d9c-9142-22c781d37c9a" points="185.7 148.05 185.7 451.95 302.5 452.15 414.5 245.15 414.5 147.85 185.7 148.05"/><circle class="e5d563ae-bb8d-4275-aff5-adcc4d11f675" cx="200.03" cy="312.39" r="45.36"/><path class="fce5cad9-58d5-4b05-b3b1-fbddb67eecaa" d="M183.45,308a7.1,7.1,0,0,1,0,8.75l3.62,1.51a8.91,8.91,0,0,0,0-11.92Zm7.7-3.32,4.36-1.81a16.58,16.58,0,0,1,.28,18.61l-.28.4-4.34-1.79a12,12,0,0,0,.27-15.07l-.27-.32,4.37-1.81Zm8.3-3.62,4.22-1.82a24.31,24.31,0,0,1,.3,25.62l-.3.49-4.22-1.81a19.81,19.81,0,0,0,.29-22.05l-.29-.43,4.22-1.82ZM212,295.77a32,32,0,0,1,0,33.2l-4.23-1.81a27.48,27.48,0,0,0,0-29.58Z"/><circle class="e5d563ae-bb8d-4275-aff5-adcc4d11f675" cx="300.03" cy="312.42" r="45.36"/><path class="fce5cad9-58d5-4b05-b3b1-fbddb67eecaa" d="M310.6,301.8v4h-4v-4Zm0,17.21v4h-4v-4ZM296,316.36v9.27h-9.25v-9.27Zm-11.85,11.92h14.56V313.72H284.17Zm11.91-29.13v9.27h-9.31v-9.27ZM293.39,319v4h-4v-4Zm-9.22-7.93h14.56V296.5H284.17Zm9.26-9.27v4h-4v-4Zm19.87-2.65v9.27H304v-9.27Zm2.64,14.57v2.64h-9.26v-2.64Zm-11.91,0v2.64h-2.65v-2.64ZM315.89,319v9.27h-2.65V319ZM304,319v6.62h6.62v2.65h-9.27V319Zm-2.65-7.94h14.56V296.5H301.33Z"/><circle class="e5d563ae-bb8d-4275-aff5-adcc4d11f675" cx="399.81" cy="312.72" r="45.36"/><polygon class="fce5cad9-58d5-4b05-b3b1-fbddb67eecaa" points="389.31 315.86 405.04 315.86 410.28 310.63 394.56 310.63 389.31 315.86"/><path class="fce5cad9-58d5-4b05-b3b1-fbddb67eecaa" d="M384.07,313.25a7.86,7.86,0,0,1,7.84-7.86h9.63l5.23-5.23H391.93a13.1,13.1,0,0,0-3.8,25.62l4.67-4.68h-.87A7.86,7.86,0,0,1,384.07,313.25Z"/><path class="fce5cad9-58d5-4b05-b3b1-fbddb67eecaa" d="M412.74,301.19l-4.26,4.25a7.86,7.86,0,0,1-.83,15.67h-7.86l-5.24,5.24h13.1a13.09,13.09,0,0,0,5.09-25.16Z"/><path class="ec63099f-a1ac-4c27-9709-87392ed2c13e" d="M449.9,127.19a65,65,0,1,1-65-65h0a65,65,0,0,1,65,65h0"/><path class="eb47046f-8a73-4b6f-88a2-3d06bbdfd634" d="M385,178.3A51.13,51.13,0,1,1,436,127.12v0A51.19,51.19,0,0,1,385,178.3Z"/><path class="e3d36f34-546b-406f-8980-caf237b1460a" d="M384.9,79.08a48.1,48.1,0,1,1-48.07,48.12v0a48.18,48.18,0,0,1,48.07-48.1h0m0-6h0a54.19,54.19,0,1,0,54.19,54.18h0A54.19,54.19,0,0,0,384.9,73Z"/><path class="b46bc168-ed7c-4f7c-a3e3-addd2d8f5468" d="M384.87,62.19a65,65,0,0,0-30.44,122.33l61-114.72A64.76,64.76,0,0,0,384.87,62.19Z"/></g></svg>