<svg id="f1573e54-d57b-4e65-ba60-11db1b6f7370" data-name="b3e82d34-e9f3-47e2-8597-3dbcccc3b54b" xmlns="http://www.w3.org/2000/svg" xmlns:xlink="http://www.w3.org/1999/xlink" viewBox="0 0 600 600"><defs><style>.a0af7124-9794-41b4-84c3-5d2c1fd97256{fill:url(#ede45087-22f3-456b-8809-7445ba6d47b7);}.e59682f0-3c73-4d69-be20-1cee2e0be258{fill:#1464a5;}.e8193979-4069-4f0e-b8ec-19fa31185b6f{fill:#49a5e6;}.ab737190-c63e-4c93-917e-cab0698aaed6,.bb4c1b6f-fb52-4d44-9a8c-35bda4210aa9{fill-rule:evenodd;}.ab737190-c63e-4c93-917e-cab0698aaed6{opacity:0.5;isolation:isolate;fill:url(#b9f05cd3-532e-4301-9015-ad92dc9639fb);}.beffd3a3-e076-4fa9-b02d-d01754cbdd2e{fill:#153260;}.afd2f9b2-73f2-4698-a223-ca312cb3a949,.bb4c1b6f-fb52-4d44-9a8c-35bda4210aa9{fill:#69c8ca;}.b84754d4-4c56-4135-845e-d5798ba07fa6{fill:none;}.bb2f645d-8f10-450e-9e72-41d0b8cf2377{fill:#ffdf8a;}.b087fad6-d37d-4dd8-bc78-352c0bc23b57{fill:#ffce44;}.b7475efe-377f-4a07-83a3-7d15454baa23{fill:#c49735;}.f791081e-f0f3-4450-833e-9dcaca59036c{fill:url(#fa6023ca-7cb9-4a84-aacf-a6fa3b683619);}</style><linearGradient id="ede45087-22f3-456b-8809-7445ba6d47b7" x1="218.16" y1="100.44" x2="480.5" y2="-392.96" gradientTransform="matrix(1, 0, 0, -1, 0, 180)" gradientUnits="userSpaceOnUse"><stop offset="0" stop-color="#192647"/><stop offset="0" stop-color="#192647" stop-opacity="0.5"/><stop offset="1" stop-color="#192647" stop-opacity="0"/></linearGradient><linearGradient id="b9f05cd3-532e-4301-9015-ad92dc9639fb" x1="196.19" y1="-43.72" x2="320.02" y2="-167.56" gradientTransform="matrix(1, 0, 0, -1, 0, 180)" gradientUnits="userSpaceOnUse"><stop offset="0" stop-color="#fff" stop-opacity="0.5"/><stop offset="1" stop-color="#edf6f7" stop-opacity="0.1"/></linearGradient><linearGradient id="fa6023ca-7cb9-4a84-aacf-a6fa3b683619" x1="336.96" y1="509.98" x2="396.35" y2="450.6" gradientTransform="matrix(1, 0, 0, -1, 0, 602)" gradientUnits="userSpaceOnUse"><stop offset="0" stop-color="#fff" stop-opacity="0.4"/><stop offset="1" stop-color="#fff" stop-opacity="0.1"/></linearGradient></defs><path class="a0af7124-9794-41b4-84c3-5d2c1fd97256" d="M463.84,244.61a65.08,65.08,0,1,0-86.91-89.32H256.84a23,23,0,0,0-23,23v29.17h0V511.1h0v29.19a23,23,0,0,0,23,23h184a23,23,0,0,0,23-23Z"/><rect class="e59682f0-3c73-4d69-be20-1cee2e0be258" x="183.84" y="105.29" width="230" height="408" rx="23"/><rect class="e8193979-4069-4f0e-b8ec-19fa31185b6f" x="183.84" y="157.29" width="230" height="304"/><polygon class="ab737190-c63e-4c93-917e-cab0698aaed6" points="183.84 157.46 183.84 461.1 217.95 461.15 379.5 157.31 183.84 157.46"/><circle class="beffd3a3-e076-4fa9-b02d-d01754cbdd2e" cx="198.86" cy="322.39" r="45.36"/><path class="bb4c1b6f-fb52-4d44-9a8c-35bda4210aa9" d="M182.28,318a7.1,7.1,0,0,1,0,8.75l3.62,1.51a8.89,8.89,0,0,0,0-11.92Zm7.7-3.32,4.37-1.81a16.58,16.58,0,0,1,.27,18.61l-.27.4L190,330.09a11.94,11.94,0,0,0,.27-15.07l-.27-.32,4.37-1.81Zm8.3-3.62,4.22-1.82a24.29,24.29,0,0,1,.3,25.62l-.3.49-4.22-1.81a19.79,19.79,0,0,0,.29-22.05l-.29-.43,4.22-1.82Zm12.52-5.29a32,32,0,0,1,0,33.2l-4.23-1.81a27.44,27.44,0,0,0,0-29.58Z"/><circle class="beffd3a3-e076-4fa9-b02d-d01754cbdd2e" cx="398.81" cy="322.39" r="45.36"/><circle class="beffd3a3-e076-4fa9-b02d-d01754cbdd2e" cx="299.4" cy="321.35" r="45.47"/><path class="bb4c1b6f-fb52-4d44-9a8c-35bda4210aa9" d="M309.43,311.8v4h-4v-4Zm0,17.21v4h-4v-4Zm-14.57-2.65v9.27H285.6v-9.27ZM283,338.28h14.56V323.72H283Zm11.91-29.13v9.27H285.6v-9.27ZM292.22,329v4h-4v-4ZM283,321.07h14.56V306.5H283Zm9.27-9.27v4h-4v-4Zm19.86-2.65v9.27h-9.27v-9.27Zm2.64,14.57v2.64h-9.26v-2.64Zm-11.91,0v2.64h-2.65v-2.64ZM314.72,329v9.27h-2.64V329Zm-11.91,0v6.62h6.62v2.65h-9.27V329Zm-2.65-7.94h14.56V306.5H300.16Z"/><polygon class="afd2f9b2-73f2-4698-a223-ca312cb3a949" points="388.31 325.53 404.04 325.53 409.28 320.3 393.56 320.3 388.31 325.53"/><path class="afd2f9b2-73f2-4698-a223-ca312cb3a949" d="M383.07,322.92a7.86,7.86,0,0,1,7.84-7.86h9.63l5.23-5.23H390.93a13.1,13.1,0,0,0-3.8,25.62l4.67-4.68h-.87A7.86,7.86,0,0,1,383.07,322.92Z"/><path class="afd2f9b2-73f2-4698-a223-ca312cb3a949" d="M411.74,310.86l-4.26,4.25a7.86,7.86,0,0,1-.83,15.67h-7.86L393.55,336h13.1a13.09,13.09,0,0,0,5.09-25.16Z"/><g id="b61936e5-cddf-4f85-bb85-4ba54a60a177" data-name="a6b3e4a2-5be1-4658-834b-e17515109ada"><rect class="b84754d4-4c56-4135-845e-d5798ba07fa6" width="600" height="600"/></g><path class="bb2f645d-8f10-450e-9e72-41d0b8cf2377" d="M448.9,137a65,65,0,1,1-65-65h0a65,65,0,0,1,65,65h0"/><path class="b087fad6-d37d-4dd8-bc78-352c0bc23b57" d="M384,188.11A51.13,51.13,0,1,1,435,136.93v0A51.19,51.19,0,0,1,384,188.11Z"/><path class="b7475efe-377f-4a07-83a3-7d15454baa23" d="M383.9,88.89A48.1,48.1,0,1,1,335.83,137v0a48.18,48.18,0,0,1,48.07-48.1h0m0-6h0A54.19,54.19,0,1,0,438.09,137h0A54.19,54.19,0,0,0,383.9,82.84Z"/><path class="f791081e-f0f3-4450-833e-9dcaca59036c" d="M383.87,72a65,65,0,0,0-30.44,122.33l61-114.72A64.76,64.76,0,0,0,383.87,72Z"/></svg>