<svg id="b3a6c428-c970-4b6b-bdff-771ebb2ffb05" data-name="Capa 1" xmlns="http://www.w3.org/2000/svg" xmlns:xlink="http://www.w3.org/1999/xlink" viewBox="0 0 600 600"><defs><style>.a9db74af-caf2-481e-b202-d0fbe1d0da4e{fill:none;}.b1ff79a3-cfa2-4537-beb7-9d583ae46a2f{fill:url(#bf1fcfd1-de3b-41bd-aaa0-25efd217c510);}.e0872ef2-684c-474d-95f3-821763d35407{fill:#043263;}.b6d6a805-e5f8-47a2-8fcb-90b3bf255cf7{fill:#49a5e6;}.b17852d2-1120-4142-91c0-e644cdd701e1{opacity:0.5;isolation:isolate;fill:url(#f0e422fb-e9bc-4ac4-b95b-17011c7f26c2);}.a61077a8-96d2-4573-9b2a-59a68ed82f40{fill:#153260;}.a1956db3-f4ce-455b-b62b-00fd5949c4ce{fill:#69c8ca;}.bb2f2c9f-291c-4762-9590-0b7c0d86ca65{fill:#f8cd50;}.ac75b6ee-bd7d-4faa-b9ad-c744493202e6{fill:url(#b287d223-a440-4e64-a1dc-bc4757d84284);}.f012e02d-2114-49e0-b8a4-f42dbf4e2725{fill:#fef5dc;}</style><linearGradient id="bf1fcfd1-de3b-41bd-aaa0-25efd217c510" x1="222.16" y1="-4676.44" x2="484.5" y2="-4183.04" gradientTransform="translate(0 4746)" gradientUnits="userSpaceOnUse"><stop offset="0" stop-color="#192647" stop-opacity="0.5"/><stop offset="1" stop-color="#192647" stop-opacity="0"/></linearGradient><linearGradient id="f0e422fb-e9bc-4ac4-b95b-17011c7f26c2" x1="215.96" y1="-4052.24" x2="370.22" y2="-3897.98" gradientTransform="translate(0 4268)" gradientUnits="userSpaceOnUse"><stop offset="0" stop-color="#fff" stop-opacity="0.5"/><stop offset="1" stop-color="#ecf7f8" stop-opacity="0.1"/></linearGradient><linearGradient id="b287d223-a440-4e64-a1dc-bc4757d84284" x1="331.58" y1="-1703.54" x2="385.46" y2="-1674.88" gradientTransform="translate(0 1802)" gradientUnits="userSpaceOnUse"><stop offset="0" stop-color="#fade8e"/><stop offset="1" stop-color="#fade8e" stop-opacity="0.4"/></linearGradient></defs><g id="b4bac6da-4657-43be-b221-3e7a0910bfb1" data-name="Cuadrados Blancos"><rect class="a9db74af-caf2-481e-b202-d0fbe1d0da4e" width="600" height="600"/></g><g id="a442ad9b-7501-4c32-ab89-1101d536f5fb" data-name="Capa 15"><path class="b1ff79a3-cfa2-4537-beb7-9d583ae46a2f" d="M467.84,234.61a65.08,65.08,0,1,0-86.91-89.32H260.84a23,23,0,0,0-23,23v29.17h0V501.1h0v29.19a23,23,0,0,0,23,23h184a23,23,0,0,0,23-23Z"/><path class="e0872ef2-684c-474d-95f3-821763d35407" d="M207.5,96.85H392.4A22.13,22.13,0,0,1,414.5,119V481a22.12,22.12,0,0,1-22.1,22.1H207.5A22.12,22.12,0,0,1,185.4,481V119a22.13,22.13,0,0,1,22.06-22.2h0Z"/><rect class="b6d6a805-e5f8-47a2-8fcb-90b3bf255cf7" x="185.4" y="147.85" width="229.2" height="304.3"/><polygon class="b17852d2-1120-4142-91c0-e644cdd701e1" points="185.7 148.05 185.7 451.95 302.5 452.15 414.5 245.15 414.5 147.85 185.7 148.05"/><circle class="a61077a8-96d2-4573-9b2a-59a68ed82f40" cx="200.03" cy="312.39" r="45.36"/><path class="a1956db3-f4ce-455b-b62b-00fd5949c4ce" d="M183.45,308a7.1,7.1,0,0,1,0,8.75l3.62,1.51a8.91,8.91,0,0,0,0-11.92Zm7.7-3.32,4.36-1.81a16.58,16.58,0,0,1,.28,18.61l-.28.4-4.34-1.79a12,12,0,0,0,.27-15.07l-.27-.32,4.37-1.81Zm8.3-3.62,4.22-1.82a24.31,24.31,0,0,1,.3,25.62l-.3.49-4.22-1.81a19.81,19.81,0,0,0,.29-22.05l-.29-.43,4.22-1.82ZM212,295.77a32,32,0,0,1,0,33.2l-4.23-1.81a27.48,27.48,0,0,0,0-29.58Z"/><circle class="a61077a8-96d2-4573-9b2a-59a68ed82f40" cx="300.03" cy="312.42" r="45.36"/><path class="a1956db3-f4ce-455b-b62b-00fd5949c4ce" d="M310.6,301.8v4h-4v-4Zm0,17.21v4h-4v-4ZM296,316.36v9.27h-9.25v-9.27Zm-11.85,11.92h14.56V313.72H284.17Zm11.91-29.13v9.27h-9.31v-9.27ZM293.39,319v4h-4v-4Zm-9.22-7.93h14.56V296.5H284.17Zm9.26-9.27v4h-4v-4Zm19.87-2.65v9.27H304v-9.27Zm2.64,14.57v2.64h-9.26v-2.64Zm-11.91,0v2.64h-2.65v-2.64ZM315.89,319v9.27h-2.65V319ZM304,319v6.62h6.62v2.65h-9.27V319Zm-2.65-7.94h14.56V296.5H301.33Z"/><path class="bb2f2c9f-291c-4762-9590-0b7c0d86ca65" d="M449.94,127.18a65,65,0,1,1-65-65h0a64.91,64.91,0,0,1,65,64.84v.16"/><path class="ac75b6ee-bd7d-4faa-b9ad-c744493202e6" d="M416.06,69.73A65,65,0,1,0,353.93,184a9.49,9.49,0,0,1,1,.54Z"/><path class="f012e02d-2114-49e0-b8a4-f42dbf4e2725" d="M392.63,140c0-4.32-1.71-6-9.8-9.71-11.69-5.31-15.2-9.35-15.2-17.54,0-8,6.57-13.84,13.22-15.55V87.35h.36l9.62,4.23v5.48a24.54,24.54,0,0,1,8.63,3l.45.27.36.18-.09.36-.09.54-1.26,7.55-.27,1.44-.18,1-.81-.54-1.17-.9a17.27,17.27,0,0,0-10.79-3.78c-5,0-7.73,2.25-7.73,6,0,3.59,1.8,5.21,9.71,8.9,11.78,5.3,15.47,9.62,15.47,18.34a17.09,17.09,0,0,1-12.32,16.18V167h-.81l-9.17-5.13v-5.57c-3.33-.45-9.26-1.71-13-3.69l-.54-.27-.36-.18v-.36l.09-.63,1.08-7.73.18-1.35.09-.9.72.54,1.08.72a26.18,26.18,0,0,0,13.85,4.5c5.3,0,8.72-2.61,8.72-6.92"/><circle class="a61077a8-96d2-4573-9b2a-59a68ed82f40" cx="399.81" cy="312.72" r="45.36"/><polygon class="a1956db3-f4ce-455b-b62b-00fd5949c4ce" points="389.31 315.86 405.04 315.86 410.28 310.63 394.56 310.63 389.31 315.86"/><path class="a1956db3-f4ce-455b-b62b-00fd5949c4ce" d="M384.07,313.25a7.86,7.86,0,0,1,7.84-7.86h9.63l5.23-5.23H391.93a13.1,13.1,0,0,0-3.8,25.62l4.67-4.68h-.87A7.86,7.86,0,0,1,384.07,313.25Z"/><path class="a1956db3-f4ce-455b-b62b-00fd5949c4ce" d="M412.74,301.19l-4.26,4.25a7.86,7.86,0,0,1-.83,15.67h-7.86l-5.24,5.24h13.1a13.09,13.09,0,0,0,5.09-25.16Z"/></g></svg>