<svg id="ffd68356-799e-49a0-b481-0686ee55b1d2" data-name="b3a6c428-c970-4b6b-bdff-771ebb2ffb05" xmlns="http://www.w3.org/2000/svg" xmlns:xlink="http://www.w3.org/1999/xlink" viewBox="0 0 600 600"><defs><style>.baf8397b-a086-4750-bb9c-de8e07db29d8{fill:none;}.acbb6d33-b0d8-4f69-9098-fde0b8b0427b{fill:url(#b11f3d8e-556c-4f89-b4aa-17cf76477cd1);}.ffc1888a-f6cd-4e09-bb14-fbb40300e08c{fill:#043263;}.a20a0d45-6126-4a41-bd1e-d52ca15215ea{fill:#49a5e6;}.a0a60614-304c-4cc0-9bbe-c694860f3588{opacity:0.5;isolation:isolate;fill:url(#b9958501-bc40-4e6f-93fb-c932b2400ecc);}.eabb52cd-d2fc-40f6-9551-1a881aadefa3{fill:#153260;}.fb6ceeed-aef6-4cc1-9616-93c454d1929f{fill:#69c8ca;}.ba77823f-668c-4515-a2db-fa32d1e33d11{fill:#f8cd51;}.be2e2f89-9534-4ae5-bf45-e0fc9b946c84{fill:url(#a3579c38-84f2-4273-8c9f-1910ac5bdd8e);}.b4b559ca-604f-410a-b5fb-39a37516e074{fill:#fef5dc;}</style><linearGradient id="b11f3d8e-556c-4f89-b4aa-17cf76477cd1" x1="222.16" y1="5278.44" x2="484.5" y2="4785.04" gradientTransform="matrix(1, 0, 0, -1, 0, 5348)" gradientUnits="userSpaceOnUse"><stop offset="0" stop-color="#192647" stop-opacity="0.5"/><stop offset="1" stop-color="#192647" stop-opacity="0"/></linearGradient><linearGradient id="b9958501-bc40-4e6f-93fb-c932b2400ecc" x1="215.96" y1="4654.24" x2="370.22" y2="4499.98" gradientTransform="matrix(1, 0, 0, -1, 0, 4870)" gradientUnits="userSpaceOnUse"><stop offset="0" stop-color="#fff" stop-opacity="0.5"/><stop offset="1" stop-color="#ecf7f8" stop-opacity="0.1"/></linearGradient><linearGradient id="a3579c38-84f2-4273-8c9f-1910ac5bdd8e" x1="330.97" y1="105.5" x2="384.81" y2="76.88" gradientTransform="matrix(1, 0, 0, -1, 0, 204)" gradientUnits="userSpaceOnUse"><stop offset="0" stop-color="#fade8e"/><stop offset="1" stop-color="#fade8e" stop-opacity="0.4"/></linearGradient></defs><g id="ab32f64b-9c47-4eca-81b0-83397f61a58d" data-name="b4bac6da-4657-43be-b221-3e7a0910bfb1"><rect class="baf8397b-a086-4750-bb9c-de8e07db29d8" width="600" height="600"/></g><g id="a1cb99aa-894b-4849-ac08-979245f82c96" data-name="a442ad9b-7501-4c32-ab89-1101d536f5fb"><path class="acbb6d33-b0d8-4f69-9098-fde0b8b0427b" d="M467.84,234.61a65.08,65.08,0,1,0-86.91-89.32H260.84a23,23,0,0,0-23,23v29.17h0V501.1h0v29.19a23,23,0,0,0,23,23h184a23,23,0,0,0,23-23Z"/><path class="ffc1888a-f6cd-4e09-bb14-fbb40300e08c" d="M207.5,96.85H392.4A22.13,22.13,0,0,1,414.5,119V481a22.12,22.12,0,0,1-22.1,22.1H207.5A22.12,22.12,0,0,1,185.4,481V119a22.13,22.13,0,0,1,22.06-22.2h0Z"/><rect class="a20a0d45-6126-4a41-bd1e-d52ca15215ea" x="185.4" y="147.85" width="229.2" height="304.3"/><polygon class="a0a60614-304c-4cc0-9bbe-c694860f3588" points="185.7 148.05 185.7 451.95 302.5 452.15 414.5 245.15 414.5 147.85 185.7 148.05"/><circle class="eabb52cd-d2fc-40f6-9551-1a881aadefa3" cx="200.03" cy="312.39" r="45.36"/><path class="fb6ceeed-aef6-4cc1-9616-93c454d1929f" d="M183.45,308a7.1,7.1,0,0,1,0,8.75l3.62,1.51a8.91,8.91,0,0,0,0-11.92Zm7.7-3.32,4.36-1.81a16.58,16.58,0,0,1,.28,18.61l-.28.4-4.34-1.79a12,12,0,0,0,.27-15.07l-.27-.32,4.37-1.81Zm8.3-3.62,4.22-1.82a24.31,24.31,0,0,1,.3,25.62l-.3.49-4.22-1.81a19.81,19.81,0,0,0,.29-22.05l-.29-.43,4.22-1.82ZM212,295.77a32,32,0,0,1,0,33.2l-4.23-1.81a27.48,27.48,0,0,0,0-29.58Z"/><circle class="eabb52cd-d2fc-40f6-9551-1a881aadefa3" cx="300.03" cy="312.42" r="45.36"/><path class="fb6ceeed-aef6-4cc1-9616-93c454d1929f" d="M310.6,301.8v4h-4v-4Zm0,17.21v4h-4v-4ZM296,316.36v9.27h-9.25v-9.27Zm-11.85,11.92h14.56V313.72H284.17Zm11.91-29.13v9.27h-9.31v-9.27ZM293.39,319v4h-4v-4Zm-9.22-7.93h14.56V296.5H284.17Zm9.26-9.27v4h-4v-4Zm19.87-2.65v9.27H304v-9.27Zm2.64,14.57v2.64h-9.26v-2.64Zm-11.91,0v2.64h-2.65v-2.64ZM315.89,319v9.27h-2.65V319ZM304,319v6.62h6.62v2.65h-9.27V319Zm-2.65-7.94h14.56V296.5H301.33Z"/><circle class="eabb52cd-d2fc-40f6-9551-1a881aadefa3" cx="399.81" cy="312.72" r="45.36"/><polygon class="fb6ceeed-aef6-4cc1-9616-93c454d1929f" points="389.31 315.86 405.04 315.86 410.28 310.63 394.56 310.63 389.31 315.86"/><path class="fb6ceeed-aef6-4cc1-9616-93c454d1929f" d="M384.07,313.25a7.86,7.86,0,0,1,7.84-7.86h9.63l5.23-5.23H391.93a13.1,13.1,0,0,0-3.8,25.62l4.67-4.68h-.87A7.86,7.86,0,0,1,384.07,313.25Z"/><path class="fb6ceeed-aef6-4cc1-9616-93c454d1929f" d="M412.74,301.19l-4.26,4.25a7.86,7.86,0,0,1-.83,15.67h-7.86l-5.24,5.24h13.1a13.09,13.09,0,0,0,5.09-25.16Z"/><path class="ba77823f-668c-4515-a2db-fa32d1e33d11" d="M449.94,127.19a65,65,0,1,1-65.11-65h0a65,65,0,0,1,65.11,64.87v.12h0"/><path class="be2e2f89-9534-4ae5-bf45-e0fc9b946c84" d="M415.43,69.78a65,65,0,1,0-61,114.82Z"/><path class="b4b559ca-604f-410a-b5fb-39a37516e074" d="M362.2,124.78h-8.88v-6.67H363c2.65-15.07,12.08-21.86,22.89-21.86,11.5,0,17.49,5.87,20.48,13.23l-8.4,4.83c-2.07-6.33-5.78-9.32-12.08-9.32-6.67,0-11.38,4.26-13.11,13.12h15.06v6.67H372.07v2c0,1.15,0,2.3.11,3.45h15.64v6.79H372.88c1.72,8.28,5.86,12.53,13.1,12.53,6.22,0,10-2.75,12.31-9.77l8.29,4.94c-3.34,7.82-10.36,13.35-20.71,13.35-11.27,0-20.13-6.67-22.89-21.05h-9.66v-6.79h9a28.6,28.6,0,0,1-.11-3.34v-2.16Z"/></g></svg>