<svg id="Cuadrados_Blancos" data-name="Cuadrados Blancos" xmlns="http://www.w3.org/2000/svg" xmlns:xlink="http://www.w3.org/1999/xlink" viewBox="0 0 600 600"><defs><style>.cls-1{fill:none;}.cls-2{fill:url(#Degradado_sin_nombre);}.cls-3{fill:#043263;}.cls-4{fill:url(#Degradado_sin_nombre_7);}.cls-5{fill:#2dcccd;}.cls-6{fill:url(#Degradado_sin_nombre_3);}.cls-7{fill:#fff;}</style><linearGradient id="Degradado_sin_nombre" x1="262.88" y1="421.06" x2="439.51" y2="88.86" gradientTransform="matrix(1, 0, 0, -1, 0, 602)" gradientUnits="userSpaceOnUse"><stop offset="0" stop-color="#1c2645" stop-opacity="0.5"/><stop offset="1" stop-color="#1c2645" stop-opacity="0"/></linearGradient><linearGradient id="Degradado_sin_nombre_7" x1="518.94" y1="297.49" x2="232.26" y2="297.49" gradientTransform="matrix(1, 0, 0, -1, 0, 602)" gradientUnits="userSpaceOnUse"><stop offset="0" stop-color="#072146" stop-opacity="0.8"/><stop offset="1" stop-color="#072146" stop-opacity="0.1"/></linearGradient><linearGradient id="Degradado_sin_nombre_3" x1="477.19" y1="388.89" x2="436.45" y2="388.89" gradientTransform="matrix(1, 0, 0, -1, 0, 602)" gradientUnits="userSpaceOnUse"><stop offset="0.02" stop-color="#028484" stop-opacity="0.3"/><stop offset="0.99" stop-color="#028484" stop-opacity="0.1"/></linearGradient></defs><rect class="cls-1" width="600" height="600"/><rect class="cls-1" width="600" height="600"/><path class="cls-2" d="M529.94,213.42,414.26,184.57a26.66,26.66,0,0,0-20.16,3L122.1,351a26.62,26.62,0,0,0-9.1,36.54h0l86.85,144.53a26.61,26.61,0,0,0,36.51,9.12h0l272-163.43a26.65,26.65,0,0,0,12.12-16.38l28.84-115.69A26.6,26.6,0,0,0,530,213.43Zm-40.71,65.83a16.64,16.64,0,1,1,5.7-22.83h0a16.63,16.63,0,0,1-5.68,22.82Z"/><path class="cls-3" d="M498.75,159.86,383.06,131a26.59,26.59,0,0,0-20.15,3l-272,163.43A26.62,26.62,0,0,0,81.77,334l0,.05,86.84,144.53a26.6,26.6,0,0,0,36.51,9.11h0l272-163.43a26.55,26.55,0,0,0,12.12-16.38l28.85-115.69A26.63,26.63,0,0,0,498.75,159.86ZM458,225.7a16.64,16.64,0,1,1,5.69-22.84A16.64,16.64,0,0,1,458,225.7Z"/><path class="cls-4" d="M498.75,159.86l-89.06-22.2L232.26,471.36,477.17,324.2a26.55,26.55,0,0,0,12.12-16.38l28.85-115.69A26.63,26.63,0,0,0,498.75,159.86ZM458,225.7a16.64,16.64,0,1,1,5.69-22.84A16.64,16.64,0,0,1,458,225.7Z"/><path class="cls-5" d="M473.23,197.15a27.73,27.73,0,1,0-9.54,38l.06,0A27.72,27.72,0,0,0,473.23,197.15ZM458,225.7a16.64,16.64,0,1,1,5.69-22.84A16.64,16.64,0,0,1,458,225.7Z"/><path class="cls-6" d="M473.23,197.15A27.51,27.51,0,0,0,462.49,187l-5.22,9.81a16.41,16.41,0,0,1,6.46,6.1,16.63,16.63,0,0,1-22.07,23.25L436.45,236a27.73,27.73,0,0,0,36.78-38.77Z"/><g id="_" data-name="%"><path class="cls-7" d="M238.11,352.08c17.55-10.13,19.65-30.39,7.49-51.44-12.24-21.21-30.79-28.75-47.89-18.87-17.25,10-20.15,29.87-7.73,51.38C202.13,354.2,220.41,362.3,238.11,352.08Zm42.81,32.24,2-149.57-16,9.27-2,149.56Zm-49.69-44.5c-8.55,4.93-17.81-1.75-26-15.89-7.72-13.38-9.12-24.81-.57-29.75,8.25-4.76,17.42,1.78,25.5,15.76C237.9,323.33,239.48,335.05,231.23,339.82Zm119,6.51c17.55-10.13,19.56-30.54,7.5-51.45-12.25-21.2-30.88-28.89-48-19s-20.06,30-7.65,51.54C314.12,348.3,332.63,356.46,350.18,346.33Zm-7-12.42c-8.55,4.94-17.57-1.68-25.73-15.82-7.73-13.38-9.28-24.72-.73-29.66,8.4-4.85,17.34,1.62,25.41,15.61C349.89,317.42,351.61,329.06,343.21,333.91Z"/></g></svg>