<svg id="Capa_1" data-name="Capa 1" xmlns="http://www.w3.org/2000/svg" xmlns:xlink="http://www.w3.org/1999/xlink" viewBox="0 0 600 600"><defs><style>.cls-1{fill:url(#Degradado_sin_nombre_6);}.cls-2{fill:#043263;}.cls-3{fill:#49a5e6;}.cls-4{fill:#5ac4c4;}.cls-5{fill:#d4edfc;}.cls-6{fill:url(#Degradado_sin_nombre_5);}.cls-7{fill:#eaf9fa;}.cls-8{fill:#c49735;}.cls-9{fill:#f8cd50;}.cls-10{fill:url(#Degradado_sin_nombre_4);}.cls-11{fill:#2dcccd;}.cls-12{fill:url(#Degradado_sin_nombre_8);}</style><linearGradient id="Degradado_sin_nombre_6" x1="245.73" y1="213.86" x2="412.03" y2="526.62" gradientUnits="userSpaceOnUse"><stop offset="0" stop-color="#1c2645"/><stop offset="0" stop-color="#1c2645" stop-opacity="0.5"/><stop offset="1" stop-color="#1c2645" stop-opacity="0"/></linearGradient><linearGradient id="Degradado_sin_nombre_5" x1="434.81" y1="2337.57" x2="297.88" y2="2337.57" gradientTransform="matrix(1, 0, 0, -1, 0, 2640.22)" gradientUnits="userSpaceOnUse"><stop offset="0" stop-color="#043263" stop-opacity="0.2"/><stop offset="1" stop-color="#043263" stop-opacity="0"/></linearGradient><linearGradient id="Degradado_sin_nombre_4" x1="230.06" y1="2445.95" x2="260.33" y2="2429.85" gradientTransform="matrix(1, 0, 0, -1, 0, 2640.22)" gradientUnits="userSpaceOnUse"><stop offset="0" stop-color="#fff" stop-opacity="0.4"/><stop offset="1" stop-color="#fff" stop-opacity="0.1"/></linearGradient><linearGradient id="Degradado_sin_nombre_8" x1="371.46" y1="2280.03" x2="430.39" y2="2248.7" gradientTransform="matrix(1, 0, 0, -1, 0, 2640.22)" gradientUnits="userSpaceOnUse"><stop offset="0" stop-color="#fff" stop-opacity="0.5"/><stop offset="1" stop-color="#fff" stop-opacity="0.1"/></linearGradient></defs><path class="cls-1" d="M524.94,404.86a33.69,33.69,0,0,0-25.07-10.92,31.16,31.16,0,0,0-9.28,1.35V253.92a6.34,6.34,0,0,0-6.34-6.34h-.91v-.91a2.71,2.71,0,0,0-2.71-2.72h-1.9a5.43,5.43,0,0,0-5.35-4.53H330.26a5.43,5.43,0,0,0-5.35,4.53h-.09v-4.53H309.6v-1.81a9.06,9.06,0,0,0-9.06-9.06H282.42a9.06,9.06,0,0,1,9.06,9.06v1.81h0v-1.81a9.06,9.06,0,0,0-18.12,0v1.81h-99.8a2.72,2.72,0,0,0-2.72,2.72V244H169a2.72,2.72,0,0,0-2.72,2.72v.91h-.9a6.34,6.34,0,0,0-6.34,6.34v217.4a6.34,6.34,0,0,0,6.34,6.34H437.16c3.82,3.45,7.95,7,12.31,10.74l0-.07,3.65,3.1c4.31,3.68,9.23,7.86,14.28,12.3a7.35,7.35,0,0,0,9.69,0c5.06-4.44,9.95-8.62,14.27-12.3,12.63-10.78,23.53-20.07,31.15-29.25C531,451.94,535,442.23,535,431.61A39.2,39.2,0,0,0,524.94,404.86Z"/><rect class="cls-2" x="115.06" y="197.58" width="331.53" height="230.08" rx="6.34"/><path class="cls-3" d="M280.82,194H436.63a2.71,2.71,0,0,1,2.71,2.72v221a2.71,2.71,0,0,1-2.71,2.72H280.82V194Z"/><path class="cls-4" d="M125,194h155.8V420.41H125a2.72,2.72,0,0,1-2.72-2.72v-221A2.72,2.72,0,0,1,125,194Z"/><path class="cls-5" d="M286.26,189.42H429.38a5.44,5.44,0,0,1,5.43,5.44V410.45a5.43,5.43,0,0,1-5.43,5.43H280.82v-221A5.45,5.45,0,0,1,286.26,189.42Z"/><path class="cls-6" d="M429.38,189.42h-11.1L297.88,415.88h131.5a5.43,5.43,0,0,0,5.43-5.43V194.86A5.44,5.44,0,0,0,429.38,189.42Z"/><path class="cls-7" d="M129.55,189.42H280.82V415.88H129.55a2.72,2.72,0,0,1-2.72-2.72v-221A2.72,2.72,0,0,1,129.55,189.42Z"/><path class="cls-8" d="M247.47,189.42H229.35v-1.81a9.06,9.06,0,0,1,9.06-9.06h0a9.06,9.06,0,0,1,9.06,9.06v1.81Z"/><path class="cls-9" d="M256.54,178.55H238.42a9.06,9.06,0,0,1,9.06,9.06v84a2.71,2.71,0,0,0,2.72,2.71,2.75,2.75,0,0,0,1.92-.79l2.49-2.5a2.71,2.71,0,0,1,3.84,0h0l2.49,2.5a2.72,2.72,0,0,0,4.65-1.92v-84A9.06,9.06,0,0,0,256.54,178.55Z"/><path class="cls-10" d="M265.6,187.61a9.06,9.06,0,0,0-9.06-9.06H238.42a9.06,9.06,0,0,1,9.06,9.06v46.93l18.12-34.07Z"/><path class="cls-11" d="M480.94,354.86a33.69,33.69,0,0,0-25.07-10.92,31.45,31.45,0,0,0-19.7,6.8,40.26,40.26,0,0,0-8,8.32,39.8,39.8,0,0,0-8-8.32,31.4,31.4,0,0,0-19.69-6.8,33.66,33.66,0,0,0-25.06,10.92,39.22,39.22,0,0,0-9.92,26.75c0,10.62,3.95,20.33,12.44,30.57,7.58,9.18,18.46,18.46,31.15,29.25,4.31,3.68,9.23,7.86,14.28,12.3a7.35,7.35,0,0,0,9.69,0c5.06-4.44,9.95-8.62,14.27-12.3,12.63-10.78,23.53-20.07,31.15-29.25C487,401.94,491,392.23,491,381.61A39.2,39.2,0,0,0,480.94,354.86Z"/><path class="cls-12" d="M436.16,350.83a40,40,0,0,0-8,8.31,39.75,39.75,0,0,0-8-8.31A31.44,31.44,0,0,0,400.55,344a33.63,33.63,0,0,0-25.06,11,39.18,39.18,0,0,0-9.92,26.74c0,10.61,3.95,20.32,12.43,30.56,6.84,8.27,16.39,16.65,27.47,26.12l48.76-94.32A31.43,31.43,0,0,0,436.16,350.83Z"/></svg>