<svg xmlns="http://www.w3.org/2000/svg" xmlns:xlink="http://www.w3.org/1999/xlink" viewBox="0 0 600 600"><defs><style>.cls-1{fill:none;}.cls-2{fill:url(#Degradado_sin_nombre_439);}.cls-3{fill:#2dcccd;}.cls-4{fill:#004481;}.cls-5{fill:url(#Degradado_sin_nombre_42);}.cls-6{fill:#49a5e6;}.cls-7{fill:#f8cd50;}.cls-8{fill:url(#Degradado_sin_nombre_65);}.cls-9{fill:#c49735;}.cls-10{fill:url(#Degradado_sin_nombre_65-2);}.cls-11{fill:url(#Degradado_sin_nombre_64);}</style><linearGradient id="Degradado_sin_nombre_439" x1="288.65" y1="6603.94" x2="448.23" y2="6303.81" gradientTransform="matrix(1, 0, 0, -1, 0, 6790)" gradientUnits="userSpaceOnUse"><stop offset="0" stop-color="#162748" stop-opacity="0.5"/><stop offset="1" stop-color="#162748" stop-opacity="0"/></linearGradient><linearGradient id="Degradado_sin_nombre_42" x1="468.45" y1="6513.43" x2="298.67" y2="6513.43" gradientTransform="matrix(1, 0, 0, -1, 0, 6790)" gradientUnits="userSpaceOnUse"><stop offset="0" stop-color="#043263" stop-opacity="0.6"/><stop offset="1" stop-color="#043263" stop-opacity="0.2"/></linearGradient><linearGradient id="Degradado_sin_nombre_65" x1="223.43" y1="6410.06" x2="272" y2="6384.24" gradientTransform="matrix(1, 0, 0, -1, 0, 6790)" gradientUnits="userSpaceOnUse"><stop offset="0" stop-color="#fff" stop-opacity="0.5"/><stop offset="1" stop-color="#fff" stop-opacity="0.14"/></linearGradient><linearGradient id="Degradado_sin_nombre_65-2" x1="407.23" y1="6694.76" x2="430.86" y2="6682.19" xlink:href="#Degradado_sin_nombre_65"/><linearGradient id="Degradado_sin_nombre_64" x1="147.59" y1="6598.38" x2="257.1" y2="6488.86" gradientTransform="matrix(1, 0, 0, -1, 0, 6790)" gradientUnits="userSpaceOnUse"><stop offset="0" stop-color="#fff" stop-opacity="0.5"/><stop offset="0.86" stop-color="#fff" stop-opacity="0.14"/></linearGradient></defs><title>11</title><g id="Cuadrados_Blancos" data-name="Cuadrados Blancos"><rect class="cls-1" width="600" height="600"/></g><g id="Capa_30" data-name="Capa 30"><path class="cls-2" d="M524.48,327.24c0-1.45,0-2.88-.1-4.31v-.38c-.07-1.36-.17-2.71-.29-4.06v-.56c-.13-1.33-.28-2.64-.46-3.91l-.09-.62c-.19-1.29-.4-2.56-.64-3.83l-.12-.61c-.25-1.27-.52-2.54-.82-3.8l-.12-.51c-.31-1.29-.65-2.57-1-3.85l-.09-.31q-1.17-4-2.66-7.86l-.1-.28q-.72-1.85-1.53-3.66l-.18-.42c-.53-1.18-1.08-2.35-1.65-3.5l-.23-.46c-.58-1.15-1.18-2.28-1.8-3.41l-.23-.42c-.67-1.13-1.33-2.26-2-3.37l-.19-.31c-.62-1-1.26-2-1.91-3V173.27h0a3,3,0,0,0,3-3v-26a3,3,0,0,0-3-3h-40a3,3,0,0,0-3,3v26a3,3,0,0,0,3,3v66.67a95,95,0,0,0-24-7.29h0c-1.47-.24-2.94-.45-4.43-.62h0a95.4,95.4,0,0,0-11.21-.66H227.25a95.83,95.83,0,0,0-95.73,95.73v.15c0,53.61,43.14,97.54,96.18,97.93h.73a96.9,96.9,0,0,0,95.14-78.37,4.55,4.55,0,0,1,8.87,0,96.34,96.34,0,0,0,22.23,45.33h0c.57.67,1.16,1.31,1.75,1.94.44.48.9,1,1.35,1.42l1,1c.71.71,1.43,1.42,2.16,2.11l1.12,1.05,1.41,1.27c.48.42,1,.83,1.44,1.24l2,1.64,1.29,1c.52.4,1,.8,1.56,1.19s1.37,1,2.1,1.52l1.4,1,1.7,1.12q.92.6,1.86,1.17l1.83,1.1,1.32.76q1.31.74,2.64,1.44l1.21.62c.71.36,1.42.69,2.13,1l1.07.51c1,.45,1.94.87,2.93,1.28l1.16.48c1,.41,2,.82,3.07,1.19l.79.28q1.37.48,2.73.93l1,.32,3.28,1,.93.24c1,.27,2.07.53,3.12.77l.5.12c1.17.26,2.36.49,3.54.71l.89.16c1.19.21,2.39.4,3.6.56l.59.07c1.11.15,2.23.27,3.36.37l.68.07c1.23.11,2.47.19,3.71.25h.81c1.28,0,2.57.09,3.87.09h.73A94.41,94.41,0,0,0,468.21,416v3.06a18.68,18.68,0,0,1-18.67,18.67h-70.3a55.19,55.19,0,0,0-28.17-29.93l-.44-.2c-.81-.37-1.63-.7-2.46-1l-.52-.2c-.9-.35-1.81-.68-2.74-1l-.22-.07c-1-.33-2.08-.63-3.14-.9h-.12c-1-.24-1.91-.45-2.88-.64l-.87-.15c-.74-.13-1.49-.25-2.24-.35l-1-.13c-.74-.09-1.49-.15-2.24-.21l-1-.07c-1.06-.06-2.13-.1-3.2-.1a54.86,54.86,0,0,0-21.41,4.32c-.82.35-1.63.71-2.44,1.1q-2.4,1.16-4.67,2.54c-.75.46-1.5.94-2.23,1.43A55.32,55.32,0,0,0,282.39,427c-.49.73-1,1.48-1.43,2.23q-1.38,2.26-2.54,4.67c-.39.8-.75,1.61-1.1,2.44A54.91,54.91,0,0,0,273,457.76c0,.85,0,1.69.06,2.52V461c0,.71.09,1.43.16,2.14v.39c.08.81.19,1.62.31,2.42a4.72,4.72,0,0,0,.1.64c.1.67.21,1.31.34,1.92a2.87,2.87,0,0,0,.11.57c.16.77.34,1.54.53,2.31l.16.58c.16.6.33,1.2.51,1.79l.21.68c.23.73.48,1.46.74,2.18l.19.51c.21.57.44,1.14.67,1.7l.32.75c.25.59.52,1.17.79,1.75l.32.66c.28.57.57,1.13.86,1.69l.44.8c.25.45.5.89.77,1.34l.41.7c.36.59.73,1.18,1.12,1.75l.57.83.77,1.08.6.82c.4.53.81,1.05,1.23,1.57l.71.84.76.88.78.87.89.93q.65.66,1.29,1.29l.75.71.94.85.74.64c.55.48,1.12,1,1.7,1.4l.71.56,1.08.8.71.5c.67.47,1.33.92,2,1.36l.61.39,1.18.71.73.42a55,55,0,0,0,74.93-20.86,53.81,53.81,0,0,0,3.34-7h70.3a58.74,58.74,0,0,0,58.67-58.67v-38A97.21,97.21,0,0,0,524.48,327.24Z"/><path class="cls-3" d="M393.54,425.76H278v-40H393.54a18.68,18.68,0,0,0,18.67-18.67V112.86h40V367.09A58.74,58.74,0,0,1,393.54,425.76Z"/><path class="cls-4" d="M372.6,179.37H171.25A95.83,95.83,0,0,0,75.52,275.1v.15c0,53.61,43.14,97.54,96.18,97.93h.73a96.9,96.9,0,0,0,95.14-78.37,4.55,4.55,0,0,1,8.87,0,96.9,96.9,0,0,0,95.14,78.37h.73a95.57,95.57,0,0,0,68-29.35,97.83,97.83,0,0,0,28.14-68.58A96,96,0,0,0,372.6,179.37Z"/><path class="cls-5" d="M383.8,180,298.67,340.14a96.91,96.91,0,0,0,72.91,33h.73a95.57,95.57,0,0,0,68-29.35,97.83,97.83,0,0,0,28.14-68.58A96,96,0,0,0,383.8,180Z"/><path class="cls-6" d="M172.2,353.67h-4l-1.22-.09-1-.08a17.6,17.6,0,0,1-1.77-.15l-.68-.09-.53-.07c-.94-.12-1.87-.23-2.8-.38l-.34-.06A77.45,77.45,0,0,1,95,276.24v-1.15a46,46,0,0,1,.25-4.84v-.12a77.42,77.42,0,0,1,77.17-71.33H371.54a77.35,77.35,0,0,1,77.34,73.54c.07,1.13.1,2,.1,2.89v.91a77.82,77.82,0,0,1-55.8,74.44h-.1c-1.15.33-2.23.62-3.3.88l-.63.15-.32.07c-.84.19-1.69.38-2.54.54l-1.47.26h-.13l-2,.33c-.65.1-1.34.18-2,.26h-.11l-1.67.18c-.71.07-1.43.12-2.15.16l-1.78.1h-3.82c-.78,0-1.56,0-2.34-.06h-1.5c-.76,0-1.53-.11-2.29-.17l-.72-.06-.76-.06c-1.18-.12-2.37-.27-3.54-.45l-1.34-.23-1.19-.21-1.07-.19-1.73-.38-.82-.19-1-.23c-.73-.18-1.44-.38-2.15-.58l-.28-.08-1-.29c-.75-.22-1.48-.46-2.21-.7l-1.15-.39c-.76-.27-1.51-.54-2.26-.83l-1-.38c-.8-.32-1.58-.64-2.35-1l-.75-.34c-.83-.38-1.67-.76-2.49-1.17l-.33-.17a77.84,77.84,0,0,1-41.42-54.91v-.16a24,24,0,0,0-46.84,0v.16A77.66,77.66,0,0,1,214,341.51l-.24.15c-.82.51-1.65,1-2.5,1.51l-.49.28c-.8.45-1.61.9-2.44,1.33l-.61.31c-.81.42-1.62.82-2.45,1.2l-.63.29c-.83.38-1.68.76-2.53,1.11l-.32.13a77.13,77.13,0,0,1-8.37,2.86l-1,.3c-.57.15-1.16.29-1.74.42l-.67.16-1.14.26c-.63.14-1.27.26-1.92.38l-1.71.31-1.84.28-1.88.24-1.74.18-2.07.16h-.35l-1.28.08c-.79,0-1.58,0-2.37.06h-1.36Z"/><circle class="cls-7" cx="272" cy="405.76" r="55"/><path class="cls-8" d="M272,350.76a55,55,0,0,0-25.82,103.56l51.64-97.13A54.85,54.85,0,0,0,272,350.76Z"/><circle class="cls-9" cx="272" cy="405.76" r="31.5"/><rect class="cls-7" x="409.21" y="89.27" width="46" height="32" rx="3"/><path class="cls-10" d="M412.21,89.27a3,3,0,0,0-3,3v26a3,3,0,0,0,3,3H423.7l17-32Z"/><path class="cls-6" d="M449,275.24c0-.86,0-1.76-.1-2.89a77.35,77.35,0,0,0-77.34-73.54H324l-40.39,76a24,24,0,0,1,11.84,15.64v.16a77.84,77.84,0,0,0,41.42,54.91l.33.17q1.24.62,2.49,1.17l.75.34c.77.34,1.56.66,2.35,1l1,.38c.75.29,1.5.56,2.26.83l1.15.39c.73.24,1.46.48,2.21.7l1,.29.28.08c.71.2,1.43.4,2.15.58l1,.23.82.19,1.73.38,1.07.19,1.19.21,1.34.23c1.17.18,2.36.33,3.54.45l.76.06.72.06c.76.07,1.53.13,2.29.17h1.5c.78,0,1.55.05,2.34.06h3.76l1.78-.1c.72,0,1.44-.1,2.15-.16l1.67-.18h.11c.67-.08,1.34-.16,2-.26s1.36-.21,2-.33h.13l1.47-.26c.86-.17,1.71-.35,2.54-.54l.32-.07.63-.15c1.07-.26,2.14-.54,3.3-.88h.1A77.81,77.81,0,0,0,449,276.16v-.92Z"/><path class="cls-11" d="M172.46,198.81a77.42,77.42,0,0,0-77.17,71.33v.12A46,46,0,0,0,95,275.1v1.15a77.45,77.45,0,0,0,64.79,76.39l.34.06c.92.15,1.86.27,2.8.38l.53.07.68.09q.88.09,1.77.15l1,.08,1.22.09h5.48c.79,0,1.58,0,2.37-.06l1.28-.08h.35a20.6,20.6,0,0,0,2.07-.16l1.74-.18,1.88-.24,1.84-.28,1.71-.31c.64-.12,1.28-.24,1.92-.38l1.14-.26.67-.16c.58-.14,1.16-.27,1.74-.42l1-.3a77.13,77.13,0,0,0,8.37-2.86l.32-.13c.86-.35,1.7-.73,2.53-1.11l.63-.29c.82-.38,1.64-.79,2.45-1.2l.61-.31c.82-.43,1.63-.87,2.44-1.33l.49-.28c.85-.49,1.68-1,2.5-1.51l.24-.15a77.66,77.66,0,0,0,34.65-51.07v-.16a24,24,0,0,1,35-15.64l40.39-76Z"/></g></svg>