<svg id="Contenido" xmlns="http://www.w3.org/2000/svg" xmlns:xlink="http://www.w3.org/1999/xlink" viewBox="0 0 600 600"><defs><style>.cls-1{fill:url(#Degradado_sin_nombre_47);}.cls-2{fill:#2dcccd;}.cls-3{fill:#004481;}.cls-4{fill:url(#Degradado_sin_nombre_132);}.cls-5{fill:#49a5e6;}.cls-6{fill:#f8cd50;}.cls-7{fill:url(#Degradado_sin_nombre_12);}.cls-8{fill:#c49735;}.cls-9{fill:url(#Degradado_sin_nombre_12-2);}.cls-10{fill:url(#Degradado_sin_nombre_25);}</style><linearGradient id="Degradado_sin_nombre_47" x1="288.62" y1="178.06" x2="448.22" y2="478.23" gradientUnits="userSpaceOnUse"><stop offset="0" stop-color="#162748" stop-opacity="0.5"/><stop offset="1" stop-color="#162748" stop-opacity="0"/></linearGradient><linearGradient id="Degradado_sin_nombre_132" x1="468.48" y1="268.6" x2="298.67" y2="268.6" gradientUnits="userSpaceOnUse"><stop offset="0" stop-color="#043263" stop-opacity="0.6"/><stop offset="1" stop-color="#043263" stop-opacity="0.2"/></linearGradient><linearGradient id="Degradado_sin_nombre_12" x1="223.43" y1="371.94" x2="272" y2="397.76" gradientUnits="userSpaceOnUse"><stop offset="0" stop-color="#fff" stop-opacity="0.5"/><stop offset="1" stop-color="#fff" stop-opacity="0.14"/></linearGradient><linearGradient id="Degradado_sin_nombre_12-2" x1="407.23" y1="87.24" x2="430.86" y2="99.81" xlink:href="#Degradado_sin_nombre_12"/><linearGradient id="Degradado_sin_nombre_25" x1="147.58" y1="183.63" x2="257.15" y2="293.21" gradientUnits="userSpaceOnUse"><stop offset="0" stop-color="#fff" stop-opacity="0.5"/><stop offset="0.86" stop-color="#fff" stop-opacity="0.14"/></linearGradient></defs><title>verano</title><path class="cls-1" d="M524.48,319.24c0-1.45,0-2.88-.1-4.31,0-.13,0-.25,0-.38-.07-1.36-.17-2.71-.29-4.06,0-.19,0-.37,0-.56q-.19-2-.46-3.91l-.09-.62q-.28-1.93-.64-3.83l-.12-.61q-.37-1.91-.82-3.8l-.12-.51c-.31-1.29-.65-2.57-1-3.85l-.09-.31q-1.17-4-2.66-7.86l-.1-.28q-.72-1.85-1.53-3.66l-.18-.42q-.79-1.77-1.65-3.5l-.23-.46q-.87-1.72-1.8-3.41l-.23-.42q-1-1.7-2-3.37l-.19-.31q-.93-1.5-1.91-3V165.27h0a3,3,0,0,0,3-3v-26a3,3,0,0,0-3-3h-40a3,3,0,0,0-3,3v26a3,3,0,0,0,3,3v66.67a95.07,95.07,0,0,0-24-7.29h0q-2.2-.36-4.43-.62h0a96.44,96.44,0,0,0-11.21-.66H227.25a95.84,95.84,0,0,0-95.73,95.73v.15c0,53.61,43.14,97.54,96.18,97.93h.73a96.9,96.9,0,0,0,95.14-78.37,4.55,4.55,0,0,1,8.87,0,96.39,96.39,0,0,0,22.23,45.33h0q.86,1,1.75,1.94c.44.48.9,1,1.35,1.42l1,1q1.07,1.07,2.16,2.11l1.12,1.05,1.41,1.27c.48.42,1,.83,1.44,1.24q1,.83,2,1.64l1.29,1c.52.4,1,.8,1.56,1.19q1,.77,2.1,1.52l1.4,1,1.7,1.12q.92.6,1.86,1.17l1.83,1.1,1.32.76q1.31.74,2.64,1.44l1.21.62q1.06.54,2.13,1l1.07.51c1,.45,1.94.87,2.93,1.28l1.16.48c1,.41,2,.82,3.07,1.19l.79.28q1.36.48,2.73.93l1,.32q1.63.51,3.28,1l.93.24q1.55.41,3.12.77l.5.12c1.17.26,2.36.49,3.54.71l.89.16c1.19.21,2.39.4,3.6.56l.59.07q1.67.22,3.36.37l.68.07q1.85.16,3.71.25l.81,0c1.28.05,2.57.09,3.87.09h.73A94.38,94.38,0,0,0,468.21,408v3.06a18.69,18.69,0,0,1-18.67,18.67h-70.3a55.17,55.17,0,0,0-28.17-29.93l-.44-.2q-1.22-.55-2.46-1l-.52-.2q-1.35-.52-2.74-1l-.22-.07q-1.55-.49-3.14-.9l-.12,0c-1-.24-1.91-.45-2.88-.64l-.87-.15q-1.11-.2-2.24-.35l-1-.13c-.74-.09-1.49-.15-2.24-.21l-1-.07c-1.06-.06-2.13-.1-3.2-.1a54.78,54.78,0,0,0-21.41,4.32q-1.23.52-2.44,1.1-2.4,1.16-4.67,2.54-1.13.69-2.23,1.43A55.3,55.3,0,0,0,282.39,419q-.74,1.1-1.43,2.23-1.38,2.27-2.54,4.67-.58,1.2-1.1,2.44A54.79,54.79,0,0,0,273,449.76c0,.85,0,1.69.06,2.52,0,.22,0,.45,0,.67q.06,1.07.16,2.14c0,.13,0,.26,0,.39.08.81.19,1.62.31,2.42,0,.21.07.43.1.64q.15,1,.34,1.92c0,.19.07.38.11.57q.24,1.16.53,2.31l.16.58q.24.9.51,1.79l.21.68c.23.73.48,1.46.74,2.18l.19.51q.32.86.67,1.7l.32.75q.38.88.79,1.75l.32.66q.42.85.86,1.69l.44.8q.37.67.77,1.34l.41.7q.54.89,1.12,1.75l.57.83.77,1.08.6.82q.6.79,1.23,1.57l.71.84.76.88.78.87.89.93q.64.66,1.29,1.29l.75.71.94.85.74.64q.83.72,1.7,1.4l.71.56,1.08.8.71.5q1,.7,2,1.36l.61.39,1.18.71.73.42a55,55,0,0,0,78.27-27.89h70.3a58.74,58.74,0,0,0,58.67-58.67V373.14A97.23,97.23,0,0,0,524.48,319.24Z"/><path class="cls-2" d="M393.54,417.76H278v-40H393.54a18.69,18.69,0,0,0,18.67-18.67V104.86h40V359.09A58.74,58.74,0,0,1,393.54,417.76Z"/><path class="cls-3" d="M372.6,171.37H171.25A95.84,95.84,0,0,0,75.52,267.1v.15c0,53.61,43.14,97.54,96.18,97.93h.73a96.9,96.9,0,0,0,95.14-78.37,4.55,4.55,0,0,1,8.87,0,96.9,96.9,0,0,0,95.14,78.37h.73a95.57,95.57,0,0,0,68-29.35,97.81,97.81,0,0,0,28.14-68.58A96,96,0,0,0,372.6,171.37Z"/><path class="cls-4" d="M383.8,172,298.67,332.14a96.92,96.92,0,0,0,72.91,33h.73a95.57,95.57,0,0,0,68-29.35,97.81,97.81,0,0,0,28.14-68.58A96,96,0,0,0,383.8,172Z"/><path class="cls-5" d="M172.2,345.67h-.31l-1,0-.74,0-.58,0-1.39,0-1.22-.09-1-.08c-.59,0-1.18-.09-1.77-.15l-.68-.09-.53-.07c-.94-.12-1.87-.23-2.8-.38l-.34-.06A77.45,77.45,0,0,1,95,268.24c0-.22,0-.34,0-.47s0-.54,0-.54v-.14a47,47,0,0,1,.25-4.84v-.12a77.42,77.42,0,0,1,77.17-71.33H371.54a77.34,77.34,0,0,1,77.34,73.54c.07,1.13.1,2,.1,2.89,0,0,0,.35,0,.48s0,.3,0,.43a77.81,77.81,0,0,1-55.8,74.44l-.1,0c-1.15.33-2.23.62-3.3.88l-.63.15-.32.07c-.84.19-1.69.38-2.54.54l-1.47.26-.13,0c-.68.12-1.35.23-2,.33s-1.34.18-2,.26h-.11l-1.67.18c-.71.07-1.43.12-2.15.16l-1.78.1-.71,0h-1.58l-.61,0h-.92c-.78,0-1.56,0-2.34-.06l-.56,0-.94,0c-.76,0-1.53-.11-2.29-.17l-.72-.06-.76-.06c-1.18-.12-2.37-.27-3.54-.45l-1.34-.23-1.19-.21-1.07-.19c-.58-.12-1.15-.25-1.73-.38l-.82-.19-1-.23c-.73-.18-1.44-.38-2.15-.58l-.28-.08-1-.29c-.75-.22-1.48-.46-2.21-.7l-1.15-.39q-1.14-.4-2.26-.83l-1-.38c-.8-.32-1.58-.64-2.35-1l-.75-.34c-.83-.38-1.67-.76-2.49-1.17l-.33-.17a77.84,77.84,0,0,1-41.42-54.91l0-.16a24,24,0,0,0-46.84,0l0,.16a77.67,77.67,0,0,1-34.65,51.07l-.24.15q-1.23.77-2.5,1.51l-.49.28q-1.2.68-2.44,1.33l-.61.31c-.81.42-1.62.82-2.45,1.2l-.63.29c-.83.38-1.68.76-2.53,1.11l-.32.13a77.18,77.18,0,0,1-8.37,2.86l-1,.3c-.57.15-1.16.29-1.74.42l-.67.16-1.14.26c-.63.14-1.27.26-1.92.38l-1.71.31-1.84.28-1.88.24-1.74.18c-.69.06-1.38.11-2.07.16l-.35,0-1.28.08c-.79,0-1.58,0-2.37.06l-.61,0h-.75Z"/><circle class="cls-6" cx="272" cy="397.76" r="55"/><path class="cls-7" d="M272,342.76a55,55,0,0,0-25.82,103.56l51.64-97.13A54.74,54.74,0,0,0,272,342.76Z"/><circle class="cls-8" cx="272" cy="397.76" r="31.5"/><rect class="cls-6" x="409.21" y="81.27" width="46" height="32" rx="3" ry="3"/><path class="cls-9" d="M412.21,81.27a3,3,0,0,0-3,3v26a3,3,0,0,0,3,3H423.7l17-32Z"/><path class="cls-5" d="M449,267.24c0-.86,0-1.76-.1-2.89a77.34,77.34,0,0,0-77.34-73.54H324l-40.39,76a24,24,0,0,1,11.84,15.64l0,.16a77.84,77.84,0,0,0,41.42,54.91l.33.17c.83.41,1.66.8,2.49,1.17l.75.34c.77.34,1.56.66,2.35,1l1,.38q1.12.43,2.26.83l1.15.39c.73.24,1.46.48,2.21.7l1,.29.28.08c.71.2,1.43.4,2.15.58l1,.23.82.19c.57.13,1.15.26,1.73.38l1.07.19,1.19.21,1.34.23c1.17.18,2.36.33,3.54.45l.76.06.72.06c.76.07,1.53.13,2.29.17l.94,0,.56,0c.78,0,1.55.05,2.34.06H372l.61,0h1.58l.71,0,1.78-.1c.72,0,1.44-.1,2.15-.16l1.67-.18h.11c.67-.08,1.34-.16,2-.26s1.36-.21,2-.33l.13,0,1.47-.26c.86-.17,1.71-.35,2.54-.54l.32-.07.63-.15c1.07-.26,2.14-.54,3.3-.88l.1,0A77.81,77.81,0,0,0,449,268.16c0-.12,0-.25,0-.43S449,267.24,449,267.24Z"/><path class="cls-10" d="M172.46,190.81a77.42,77.42,0,0,0-77.17,71.33v.12A47,47,0,0,0,95,267.1v.14s0,.36,0,.54,0,.25,0,.47a77.45,77.45,0,0,0,64.79,76.39l.34.06c.92.15,1.86.27,2.8.38l.53.07.68.09c.59.06,1.18.11,1.77.15l1,.08,1.22.09,1.39,0,.58,0,.74,0,1,0H173l.61,0c.79,0,1.58,0,2.37-.06l1.28-.08.35,0c.69,0,1.38-.09,2.07-.16l1.74-.18,1.88-.24,1.84-.28,1.71-.31c.64-.12,1.28-.24,1.92-.38l1.14-.26.67-.16c.58-.14,1.16-.27,1.74-.42l1-.3a77.18,77.18,0,0,0,8.37-2.86l.32-.13c.86-.35,1.7-.73,2.53-1.11l.63-.29c.82-.38,1.64-.79,2.45-1.2l.61-.31q1.23-.64,2.44-1.33l.49-.28q1.27-.73,2.5-1.51l.24-.15a77.67,77.67,0,0,0,34.65-51.07l0-.16a24,24,0,0,1,35-15.64l40.39-76Z"/></svg>