<svg xmlns="http://www.w3.org/2000/svg" xmlns:xlink="http://www.w3.org/1999/xlink" viewBox="0 0 600 600"><defs><style>.cls-1{isolation:isolate;}.cls-2{mix-blend-mode:multiply;}.cls-3{fill:url(#Degradado_sin_nombre_9);}.cls-4{fill:url(#Degradado_sin_nombre_9-2);}.cls-5{fill:url(#Degradado_sin_nombre_9-3);}.cls-6{fill:url(#Degradado_sin_nombre_9-4);}.cls-7{fill:url(#Degradado_sin_nombre_9-5);}.cls-8{fill:url(#Degradado_sin_nombre_9-6);}.cls-9{fill:url(#Degradado_sin_nombre_9-7);}.cls-10{fill:url(#Degradado_sin_nombre_9-8);}.cls-11{fill:url(#Degradado_sin_nombre_9-9);}.cls-12{fill:url(#Degradado_sin_nombre_9-10);}.cls-13{fill:url(#Degradado_sin_nombre_9-11);}.cls-14{fill:url(#Degradado_sin_nombre_9-12);}.cls-15{fill:url(#Degradado_sin_nombre_9-13);}.cls-16{fill:url(#Degradado_sin_nombre_9-14);}.cls-17{fill:url(#Degradado_sin_nombre_9-15);}.cls-18{fill:url(#Degradado_sin_nombre_9-16);}.cls-19{fill:url(#Degradado_sin_nombre_9-17);}.cls-20{fill:url(#Degradado_sin_nombre_9-18);}.cls-21{fill:url(#Degradado_sin_nombre_9-19);}.cls-22{fill:url(#Degradado_sin_nombre_9-20);}.cls-23{fill:url(#Degradado_sin_nombre_9-21);}.cls-24{fill:url(#Degradado_sin_nombre_9-22);}.cls-25{fill:url(#Degradado_sin_nombre_9-23);}.cls-26{fill:url(#Degradado_sin_nombre_9-24);}.cls-27{fill:#07467f;}.cls-28{fill:#1b65a3;}.cls-29{fill:#39cccc;}.cls-30{fill:#f7cc5c;}</style><linearGradient id="Degradado_sin_nombre_9" x1="236.32" y1="49.83" x2="433.21" y2="420.12" gradientUnits="userSpaceOnUse"><stop offset="0" stop-color="#192647"/><stop offset="0" stop-color="#192647" stop-opacity="0.5"/><stop offset="1" stop-color="#192647" stop-opacity="0"/></linearGradient><linearGradient id="Degradado_sin_nombre_9-2" x1="108.77" y1="146.94" x2="307.09" y2="519.92" xlink:href="#Degradado_sin_nombre_9"/><linearGradient id="Degradado_sin_nombre_9-3" x1="256.07" y1="30.84" x2="454.39" y2="403.82" xlink:href="#Degradado_sin_nombre_9"/><linearGradient id="Degradado_sin_nombre_9-4" x1="190.16" y1="83.89" x2="388.48" y2="456.87" xlink:href="#Degradado_sin_nombre_9"/><linearGradient id="Degradado_sin_nombre_9-5" x1="213.81" y1="67.97" x2="410.71" y2="438.28" xlink:href="#Degradado_sin_nombre_9"/><linearGradient id="Degradado_sin_nombre_9-6" x1="81.66" y1="170.23" x2="278.85" y2="541.08" xlink:href="#Degradado_sin_nombre_9"/><linearGradient id="Degradado_sin_nombre_9-7" x1="336.8" y1="-32.45" x2="535.65" y2="341.55" xlink:href="#Degradado_sin_nombre_9"/><linearGradient id="Degradado_sin_nombre_9-8" x1="364.16" y1="-50.4" x2="561.5" y2="320.74" xlink:href="#Degradado_sin_nombre_9"/><linearGradient id="Degradado_sin_nombre_9-9" x1="224.18" y1="3.8" x2="457.1" y2="441.87" xlink:href="#Degradado_sin_nombre_9"/><linearGradient id="Degradado_sin_nombre_9-10" x1="339.9" y1="-46.44" x2="544.91" y2="339.12" xlink:href="#Degradado_sin_nombre_9"/><linearGradient id="Degradado_sin_nombre_9-11" x1="307.76" y1="-21.64" x2="512.81" y2="364" xlink:href="#Degradado_sin_nombre_9"/><linearGradient id="Degradado_sin_nombre_9-12" x1="321.63" y1="-32.37" x2="526.62" y2="353.17" xlink:href="#Degradado_sin_nombre_9"/><linearGradient id="Degradado_sin_nombre_9-13" x1="278.03" y1="2.47" x2="483.07" y2="388.09" xlink:href="#Degradado_sin_nombre_9"/><linearGradient id="Degradado_sin_nombre_9-14" x1="285.02" y1="-3.14" x2="490.01" y2="382.4" xlink:href="#Degradado_sin_nombre_9"/><linearGradient id="Degradado_sin_nombre_9-15" x1="194.48" y1="66.67" x2="399.53" y2="452.32" xlink:href="#Degradado_sin_nombre_9"/><linearGradient id="Degradado_sin_nombre_9-16" x1="217.09" y1="49.61" x2="422.14" y2="435.26" xlink:href="#Degradado_sin_nombre_9"/><linearGradient id="Degradado_sin_nombre_9-17" x1="268.49" y1="10.06" x2="473.53" y2="395.68" xlink:href="#Degradado_sin_nombre_9"/><linearGradient id="Degradado_sin_nombre_9-18" x1="255.64" y1="20.19" x2="460.65" y2="405.76" xlink:href="#Degradado_sin_nombre_9"/><linearGradient id="Degradado_sin_nombre_9-19" x1="238.42" y1="33.48" x2="443.42" y2="419.04" xlink:href="#Degradado_sin_nombre_9"/><linearGradient id="Degradado_sin_nombre_9-20" x1="172.38" y1="83.28" x2="377.42" y2="468.9" xlink:href="#Degradado_sin_nombre_9"/><linearGradient id="Degradado_sin_nombre_9-21" x1="47.03" y1="176.89" x2="252.14" y2="562.65" xlink:href="#Degradado_sin_nombre_9"/><linearGradient id="Degradado_sin_nombre_9-22" x1="112.72" y1="127.59" x2="317.83" y2="513.34" xlink:href="#Degradado_sin_nombre_9"/><linearGradient id="Degradado_sin_nombre_9-23" x1="69.71" y1="159.98" x2="274.72" y2="545.54" xlink:href="#Degradado_sin_nombre_9"/><linearGradient id="Degradado_sin_nombre_9-24" x1="91.77" y1="143.45" x2="296.77" y2="529.01" xlink:href="#Degradado_sin_nombre_9"/></defs><title>EXPERIENCE</title><g class="cls-1"><g id="Contenido"><g class="cls-2"><path class="cls-3" d="M342.85,294.1l-.68.84a10.87,10.87,0,0,0,1.59,15.23L411,364.69a10.87,10.87,0,0,0,15.23-1.59l.68-.84a10.86,10.86,0,0,0-1.6-15.23l-67.25-54.52A10.86,10.86,0,0,0,342.85,294.1Z"/><path class="cls-4" d="M262,473.74l30.7,24.89A11.37,11.37,0,0,0,307,481l-30.71-24.89A11.36,11.36,0,0,0,262,473.74Z"/><path class="cls-5" d="M404.08,315.07a11.37,11.37,0,0,0,14.32-17.66l-30.7-24.89a11.37,11.37,0,1,0-14.32,17.66Z"/><path class="cls-6" d="M377.39,397.29,346.68,372.4a11.36,11.36,0,0,0-14.31,17.66L363.07,415a11.37,11.37,0,0,0,14.32-17.66Z"/><path class="cls-7" d="M411.18,395.45l.68-.84a10.86,10.86,0,0,0-1.59-15.23l-66.88-54.22a10.86,10.86,0,0,0-15.23,1.59l-.68.84a10.86,10.86,0,0,0,1.59,15.23L396,397A10.86,10.86,0,0,0,411.18,395.45Z"/><path class="cls-8" d="M293.3,514.81l-58.22-47.2a10.86,10.86,0,0,0-15.23,1.59l-.68.84a10.85,10.85,0,0,0,1.59,15.23L279,532.47a10.86,10.86,0,0,0,15.23-1.59l.68-.84A10.87,10.87,0,0,0,293.3,514.81Z"/><path class="cls-9" d="M445,195.22c-3.94,4.86-3.45,11.84,1.08,15.51L474.74,234c4.54,3.67,11.47,2.71,15.4-2.15s3.45-11.84-1.08-15.51l-28.65-23.23C455.88,189.4,449,190.36,445,195.22Z"/><path class="cls-10" d="M460.73,182.55l54.29,44A10.86,10.86,0,0,0,530.25,225l.68-.84a10.87,10.87,0,0,0-1.59-15.23l-54.29-44a10.86,10.86,0,0,0-15.23,1.6l-.68.83A10.86,10.86,0,0,0,460.73,182.55Z"/><path class="cls-11" d="M554.63,225a8.67,8.67,0,0,0-11.86-3.11c-37.87,22.14-94.24,16.7-94.93,16.63h0c-.37,0-4.18-.42-10.36-.63a8.56,8.56,0,0,0,.66-4.07,8.66,8.66,0,1,0-17.26,1.54,8.5,8.5,0,0,0,.65,2.52c-6.89.22-14.73.76-23,1.86-36.71,4.82-63.73,17.63-80.31,38.09s-23.53,49.53-20.65,86.45a233,233,0,0,0,9,48.54A199.48,199.48,0,0,1,312,435.88a8.65,8.65,0,1,0-7.07,14.64c.3,0,.6,0,.89,0a8.67,8.67,0,0,0,7.74-4.79c3.53,26.12,3.64,62.05-15.6,85.79a8.67,8.67,0,0,0,13.47,10.92c21.34-26.32,23.15-63.19,20.23-91.76a8.84,8.84,0,0,0,2.19.31h.4a8.67,8.67,0,0,0-.76-17.32,8.46,8.46,0,0,0-4,1.22A215.62,215.62,0,0,0,323,407.48c-.25-.77-24.55-77.86,8.6-118.75,23.66-29.18,71.58-33.53,97.26-33.62A8.67,8.67,0,0,0,433.7,271a8.84,8.84,0,0,0,1.82-.21,8.63,8.63,0,0,0,3.26-15.46l7.46.45c1.45.14,8.33.76,18.38.76,21.68,0,58.16-2.89,86.9-19.69A8.67,8.67,0,0,0,554.63,225Z"/><path class="cls-12" d="M441.28,160.94a8.52,8.52,0,0,0,5.19,1.74,8.67,8.67,0,1,0-5.19-1.74Z"/><path class="cls-13" d="M428.49,215.19c.2,0,.41,0,.6,0a8.67,8.67,0,1,0-.6,0Z"/><path class="cls-14" d="M431.42,187.27a9,9,0,0,0,2.58.38,8.64,8.64,0,1,0-2.58-.38Z"/><path class="cls-15" d="M444.39,308.57a8.67,8.67,0,0,0,1,17.29,8.39,8.39,0,0,0,1-.06,8.67,8.67,0,0,0-2-17.23Z"/><path class="cls-16" d="M438.7,281.07a8.68,8.68,0,0,0,1.92,17.14,8.79,8.79,0,0,0,1.95-.23,8.67,8.67,0,0,0-3.87-16.91Z"/><path class="cls-17" d="M385.78,424a8.68,8.68,0,0,0,3,16.81,9,9,0,0,0,3-.55A8.68,8.68,0,1,0,385.78,424Z"/><path class="cls-18" d="M408.47,412.16a8.67,8.67,0,1,0,12.11,1.89A8.66,8.66,0,0,0,408.47,412.16Z"/><path class="cls-19" d="M446.93,336.53a8.67,8.67,0,0,0-.48,17.34h.23a8.67,8.67,0,0,0,.25-17.34Z"/><path class="cls-20" d="M445.26,364.58a8.67,8.67,0,1,0-4.06,16.85,8.48,8.48,0,0,0,2,.25,8.67,8.67,0,0,0,2-17.1Z"/><path class="cls-21" d="M437.3,391.54a8.66,8.66,0,1,0-9.19,14.69,8.44,8.44,0,0,0,4.58,1.32,8.66,8.66,0,0,0,4.61-16Z"/><path class="cls-22" d="M360.21,430.85a8.67,8.67,0,0,0,1.5,17.21,9.65,9.65,0,0,0,1.52-.14,8.67,8.67,0,1,0-3-17.07Z"/><path class="cls-23" d="M194.5,456.45a8.66,8.66,0,0,0,5,15.77,8.55,8.55,0,0,0,4.95-1.55,8.67,8.67,0,1,0-9.91-14.22Z"/><path class="cls-24" d="M279.54,450h.33a8.84,8.84,0,1,0-.33,0Z"/><path class="cls-25" d="M224.45,459.66a8.75,8.75,0,0,0,2.91-.51,8.65,8.65,0,1,0-2.91.51Z"/><path class="cls-26" d="M251.63,452.78a6.91,6.91,0,0,0,1.42-.14,8.52,8.52,0,1,0-1.42.14Z"/></g><path class="cls-27" d="M353.89,315.89l-67.25-54.52a10.87,10.87,0,0,1-1.59-15.23l.68-.84A10.85,10.85,0,0,1,301,243.71l67.25,54.52a10.86,10.86,0,0,1,1.59,15.23l-.68.84A10.86,10.86,0,0,1,353.89,315.89Z"/><path class="cls-28" d="M219.14,407.28l30.7,24.89a11.4,11.4,0,0,1,1.67,16h0a11.39,11.39,0,0,1-16,1.67l-30.71-24.89a11.41,11.41,0,0,1-1.67-16h0A11.4,11.4,0,0,1,219.14,407.28Z"/><path class="cls-28" d="M347,266.27l-30.7-24.89a11.41,11.41,0,0,1-1.68-16h0a11.4,11.4,0,0,1,16-1.67l30.7,24.89a11.41,11.41,0,0,1,1.68,16h0A11.4,11.4,0,0,1,347,266.27Z"/><path class="cls-27" d="M306,366.14l-30.71-24.89a11.41,11.41,0,0,1-1.67-16h0a11.42,11.42,0,0,1,16-1.67l30.7,24.89a11.4,11.4,0,0,1,1.67,16h0A11.38,11.38,0,0,1,306,366.14Z"/><path class="cls-28" d="M338.83,348.24,272,294a10.86,10.86,0,0,1-1.6-15.23L271,278a10.86,10.86,0,0,1,15.23-1.6l66.89,54.23a10.86,10.86,0,0,1,1.59,15.23l-.68.84A10.86,10.86,0,0,1,338.83,348.24Z"/><path class="cls-27" d="M178,418.81,236.18,466a10.86,10.86,0,0,1,1.59,15.23l-.68.84a10.87,10.87,0,0,1-15.23,1.59l-58.23-47.2A10.87,10.87,0,0,1,162,421.24l.68-.84A10.86,10.86,0,0,1,178,418.81Z"/><path class="cls-27" d="M417.62,185.16,389,161.93c-4.53-3.68-5-10.66-1.08-15.51h0c3.94-4.86,10.87-5.83,15.4-2.15l28.65,23.23c4.53,3.67,5,10.65,1.08,15.51h0C429.08,187.86,422.15,188.83,417.62,185.16Z"/><path class="cls-28" d="M457.89,177.76l-54.28-44A10.86,10.86,0,0,1,402,118.52l.68-.84a10.86,10.86,0,0,1,15.23-1.59l54.28,44a10.85,10.85,0,0,1,1.59,15.23l-.67.84A10.88,10.88,0,0,1,457.89,177.76Z"/><path class="cls-29" d="M497.51,176.18a8.66,8.66,0,0,0-11.86-3.11c-37.92,22.16-94.38,16.68-94.94,16.63C387,189.31,300.05,180.89,261,229S248.27,360.47,249.4,364a218.69,218.69,0,0,1,8.24,44.57c1.73,22.23.21,53.15-16.84,74.18a8.67,8.67,0,0,0,13.47,10.92c39-48.11,12.77-131.47,11.64-135-.25-.77-24.55-77.86,8.6-118.76,26.66-32.88,84.16-34.23,105.87-33.48l8.74.52c1.45.15,8.32.77,18.38.77,21.68,0,58.16-2.89,86.9-19.69A8.68,8.68,0,0,0,497.51,176.18Z"/><path class="cls-30" d="M268,394a8.68,8.68,0,0,1,8.29-9.05h0a8.67,8.67,0,0,1,9,8.28h0a8.67,8.67,0,0,1-8.28,9.05h-.39A8.68,8.68,0,0,1,268,394Zm-20.28,7.76h0a8.67,8.67,0,0,1-7.73-9.52h0a8.66,8.66,0,0,1,9.52-7.72h0a8.67,8.67,0,0,1,7.73,9.51h0a8.68,8.68,0,0,1-8.62,7.78h0C248.37,401.76,248.06,401.74,247.76,401.71Zm48.31-9.63a8.66,8.66,0,0,1,7-10h0a8.66,8.66,0,0,1,10,7h0a8.66,8.66,0,0,1-7,10.05h0a8.77,8.77,0,0,1-1.52.14h0A8.68,8.68,0,0,1,296.07,392.08Zm27.5-5.68a8.67,8.67,0,0,1,5.1-11.15h0a8.67,8.67,0,0,1,11.15,5.1h0a8.67,8.67,0,0,1-5.1,11.15h0a8.68,8.68,0,0,1-3,.54h0A8.67,8.67,0,0,1,323.57,386.4Zm25.89-10.93a8.67,8.67,0,0,1,1.89-12.12h0a8.67,8.67,0,0,1,12.11,1.9h0a8.66,8.66,0,0,1-1.89,12.11h0a8.59,8.59,0,0,1-5.1,1.67h0A8.63,8.63,0,0,1,349.46,375.47Zm21.53-18a8.67,8.67,0,0,1-2.75-11.95h0a8.67,8.67,0,0,1,11.95-2.75h0a8.67,8.67,0,0,1,2.75,11.95h0a8.67,8.67,0,0,1-7.36,4.07h0A8.67,8.67,0,0,1,371,357.43Zm13.1-24.79a8.67,8.67,0,0,1-6.41-10.46h0a8.69,8.69,0,0,1,10.46-6.41h0a8.67,8.67,0,0,1,6.4,10.46h0a8.67,8.67,0,0,1-8.42,6.65h0A8.86,8.86,0,0,1,384.09,332.64Zm5.25-27.57a8.68,8.68,0,0,1-8.44-8.9h0a8.68,8.68,0,0,1,8.91-8.43h0a8.67,8.67,0,0,1,8.43,8.9h0a8.66,8.66,0,0,1-8.66,8.43h-.24Zm-9.7-35.7h0a8.68,8.68,0,0,1,7.63-9.6h0a8.68,8.68,0,0,1,9.6,7.64h0a8.67,8.67,0,0,1-7.63,9.59h0a8.47,8.47,0,0,1-1,.06h0A8.68,8.68,0,0,1,379.64,269.37Zm-4.58-26.71a8.67,8.67,0,0,1,6.52-10.39h0A8.67,8.67,0,0,1,392,238.79h0a8.67,8.67,0,0,1-6.52,10.39h0a8.62,8.62,0,0,1-1.94.22h0A8.67,8.67,0,0,1,375.06,242.66Zm-6.95-27.35A8.66,8.66,0,0,1,374.78,205h0a8.68,8.68,0,0,1,10.29,6.67h0A8.68,8.68,0,0,1,378.39,222h0a8.63,8.63,0,0,1-1.81.19h0A8.67,8.67,0,0,1,368.11,215.31Zm-4.37-28.77h0a8.66,8.66,0,0,1,7.87-9.4h0A8.65,8.65,0,0,1,381,185h0a8.68,8.68,0,0,1-7.87,9.41h0l-.77,0h0A8.67,8.67,0,0,1,363.74,186.54Zm7.64-20.15a8.67,8.67,0,0,1-8.06-9.24h0a8.66,8.66,0,0,1,9.24-8.06h0a8.67,8.67,0,0,1,8.06,9.24h0a8.67,8.67,0,0,1-8.64,8.08h0Zm2.94-27.93a8.67,8.67,0,0,1-5.72-10.85h0a8.66,8.66,0,0,1,10.85-5.71h0a8.67,8.67,0,0,1,5.72,10.85h0a8.69,8.69,0,0,1-8.28,6.1h0A8.81,8.81,0,0,1,374.32,138.46Zm9.83-26.32A8.66,8.66,0,0,1,382.44,100h0a8.66,8.66,0,0,1,12.14-1.72h0a8.67,8.67,0,0,1,1.71,12.14h0a8.63,8.63,0,0,1-6.93,3.46h0A8.66,8.66,0,0,1,384.15,112.14Z"/><path class="cls-30" d="M135.22,419.71a8.68,8.68,0,0,1,2.16-12.07h0a8.67,8.67,0,0,1,12.07,2.16h0a8.68,8.68,0,0,1-2.15,12.07h0a8.66,8.66,0,0,1-5,1.56h0A8.68,8.68,0,0,1,135.22,419.71Zm23.94-14.62A8.68,8.68,0,0,1,164.42,394h0a8.67,8.67,0,0,1,11.08,5.26h0a8.67,8.67,0,0,1-5.26,11.08h0a8.69,8.69,0,0,1-2.91.5h0A8.68,8.68,0,0,1,159.16,405.09ZM186,396.72a8.69,8.69,0,0,1,7.13-10h0a8.67,8.67,0,0,1,10,7.13h0a8.67,8.67,0,0,1-7.13,10h0a8.69,8.69,0,0,1-1.43.11h0A8.67,8.67,0,0,1,186,396.72Zm27.81-3.87a8.68,8.68,0,0,1,8.35-9h0a8.67,8.67,0,0,1,9,8.35h0a8.66,8.66,0,0,1-8.35,9h-.32A8.68,8.68,0,0,1,213.76,392.85Z"/></g></g></svg>