<svg xmlns="http://www.w3.org/2000/svg" xmlns:xlink="http://www.w3.org/1999/xlink" viewBox="0 0 600 600"><defs><style>.cls-1{fill:none;}.cls-2{fill:url(#Degradado_sin_nombre_72);}.cls-3{fill:url(#Degradado_sin_nombre_72-2);}.cls-4{fill:url(#Degradado_sin_nombre_72-3);}.cls-5{fill:url(#Degradado_sin_nombre_72-4);}.cls-6{fill:url(#Degradado_sin_nombre_72-5);}.cls-7{fill:url(#Degradado_sin_nombre_72-6);}.cls-8{fill:url(#Degradado_sin_nombre_72-7);}.cls-9{fill:url(#Degradado_sin_nombre_72-8);}.cls-10{fill:url(#Degradado_sin_nombre_72-9);}.cls-11{fill:url(#Degradado_sin_nombre_72-10);}.cls-12{fill:url(#Degradado_sin_nombre_72-11);}.cls-13{fill:url(#Degradado_sin_nombre_72-12);}.cls-14{fill:url(#Degradado_sin_nombre_72-13);}.cls-15{fill:url(#Degradado_sin_nombre_72-14);}.cls-16{fill:url(#Degradado_sin_nombre_72-15);}.cls-17{fill:url(#Degradado_sin_nombre_72-16);}.cls-18{fill:url(#Degradado_sin_nombre_72-17);}.cls-19{fill:url(#Degradado_sin_nombre_72-18);}.cls-20{fill:url(#Degradado_sin_nombre_72-19);}.cls-21{fill:url(#Degradado_sin_nombre_72-20);}.cls-22{fill:url(#Degradado_sin_nombre_72-21);}.cls-23{fill:url(#Degradado_sin_nombre_72-22);}.cls-24{fill:url(#Degradado_sin_nombre_72-23);}.cls-25{fill:url(#Degradado_sin_nombre_72-24);}.cls-26{fill:#072146;}.cls-27{fill:#043263;}.cls-28{fill:#39cccc;}.cls-29{fill:#f7cc5c;}</style><linearGradient id="Degradado_sin_nombre_72" x1="219.02" y1="-2778.34" x2="415.91" y2="-3148.63" gradientTransform="matrix(1, 0, 0, -1, 0, -2726)" gradientUnits="userSpaceOnUse"><stop offset="0" stop-color="#192647" stop-opacity="0.5"/><stop offset="1" stop-color="#192647" stop-opacity="0"/></linearGradient><linearGradient id="Degradado_sin_nombre_72-2" x1="91.48" y1="-2875.44" x2="289.8" y2="-3248.42" xlink:href="#Degradado_sin_nombre_72"/><linearGradient id="Degradado_sin_nombre_72-3" x1="238.7" y1="-2759.38" x2="437.02" y2="-3132.36" xlink:href="#Degradado_sin_nombre_72"/><linearGradient id="Degradado_sin_nombre_72-4" x1="172.82" y1="-2812.42" x2="371.14" y2="-3185.4" xlink:href="#Degradado_sin_nombre_72"/><linearGradient id="Degradado_sin_nombre_72-5" x1="196.51" y1="-2796.48" x2="393.41" y2="-3166.79" xlink:href="#Degradado_sin_nombre_72"/><linearGradient id="Degradado_sin_nombre_72-6" x1="64.36" y1="-2898.73" x2="261.55" y2="-3269.58" xlink:href="#Degradado_sin_nombre_72"/><linearGradient id="Degradado_sin_nombre_72-7" x1="319.49" y1="-2696.06" x2="518.34" y2="-3070.06" xlink:href="#Degradado_sin_nombre_72"/><linearGradient id="Degradado_sin_nombre_72-8" x1="346.86" y1="-2678.1" x2="544.2" y2="-3049.24" xlink:href="#Degradado_sin_nombre_72"/><linearGradient id="Degradado_sin_nombre_72-9" x1="206.9" y1="-2732.29" x2="439.82" y2="-3170.36" xlink:href="#Degradado_sin_nombre_72"/><linearGradient id="Degradado_sin_nombre_72-10" x1="322.61" y1="-2682.06" x2="527.62" y2="-3067.62" xlink:href="#Degradado_sin_nombre_72"/><linearGradient id="Degradado_sin_nombre_72-11" x1="290.24" y1="-2706.98" x2="495.29" y2="-3092.62" xlink:href="#Degradado_sin_nombre_72"/><linearGradient id="Degradado_sin_nombre_72-12" x1="304.28" y1="-2696.16" x2="509.27" y2="-3081.7" xlink:href="#Degradado_sin_nombre_72"/><linearGradient id="Degradado_sin_nombre_72-13" x1="260.72" y1="-2730.98" x2="465.76" y2="-3116.6" xlink:href="#Degradado_sin_nombre_72"/><linearGradient id="Degradado_sin_nombre_72-14" x1="267.73" y1="-2725.36" x2="472.72" y2="-3110.9" xlink:href="#Degradado_sin_nombre_72"/><linearGradient id="Degradado_sin_nombre_72-15" x1="177.4" y1="-2795.06" x2="382.45" y2="-3180.71" xlink:href="#Degradado_sin_nombre_72"/><linearGradient id="Degradado_sin_nombre_72-16" x1="199.79" y1="-2778.12" x2="404.84" y2="-3163.77" xlink:href="#Degradado_sin_nombre_72"/><linearGradient id="Degradado_sin_nombre_72-17" x1="251.24" y1="-2738.54" x2="456.28" y2="-3124.16" xlink:href="#Degradado_sin_nombre_72"/><linearGradient id="Degradado_sin_nombre_72-18" x1="238.23" y1="-2748.75" x2="443.24" y2="-3134.32" xlink:href="#Degradado_sin_nombre_72"/><linearGradient id="Degradado_sin_nombre_72-19" x1="221.12" y1="-2761.99" x2="426.12" y2="-3147.55" xlink:href="#Degradado_sin_nombre_72"/><linearGradient id="Degradado_sin_nombre_72-20" x1="155.19" y1="-2811.73" x2="360.23" y2="-3197.35" xlink:href="#Degradado_sin_nombre_72"/><linearGradient id="Degradado_sin_nombre_72-21" x1="29.86" y1="-2905.33" x2="234.97" y2="-3291.09" xlink:href="#Degradado_sin_nombre_72"/><linearGradient id="Degradado_sin_nombre_72-22" x1="95.62" y1="-2855.99" x2="300.73" y2="-3241.74" xlink:href="#Degradado_sin_nombre_72"/><linearGradient id="Degradado_sin_nombre_72-23" x1="52.4" y1="-2888.49" x2="257.41" y2="-3274.05" xlink:href="#Degradado_sin_nombre_72"/><linearGradient id="Degradado_sin_nombre_72-24" x1="74.32" y1="-2872.04" x2="279.32" y2="-3257.6" xlink:href="#Degradado_sin_nombre_72"/></defs><title>5</title><g id="Cuadrados_blancos" data-name="Cuadrados blancos"><rect class="cls-1" width="600" height="600"/></g><g id="Capa_9" data-name="Capa 9"><path class="cls-2" d="M325.55,296.6l-.68.84a10.87,10.87,0,0,0,1.59,15.23l67.24,54.52a10.86,10.86,0,0,0,15.23-1.59l.68-.84a10.86,10.86,0,0,0-1.6-15.23L340.76,295A10.87,10.87,0,0,0,325.55,296.6Z"/><path class="cls-3" d="M244.7,476.24l30.7,24.89a11.37,11.37,0,0,0,14.3-17.63L259,458.61a11.36,11.36,0,0,0-14.29,17.63Z"/><path class="cls-4" d="M386.78,317.57a11.37,11.37,0,0,0,14.32-17.66L370.4,275a11.37,11.37,0,0,0-14.64,17.41l.32.25Z"/><path class="cls-5" d="M360.09,399.79,329.38,374.9a11.36,11.36,0,0,0-14.31,17.66l30.7,24.94a11.37,11.37,0,0,0,14.32-17.66Z"/><path class="cls-6" d="M393.88,398l.68-.84A10.86,10.86,0,0,0,393,381.88l-66.88-54.22a10.88,10.88,0,0,0-15.23,1.59l-.68.84a10.86,10.86,0,0,0,1.59,15.23L378.7,399.5A10.85,10.85,0,0,0,393.88,398Z"/><path class="cls-7" d="M276,517.31l-58.22-47.2a10.88,10.88,0,0,0-15.23,1.59l-.68.84a10.86,10.86,0,0,0,1.59,15.23L261.7,535a10.86,10.86,0,0,0,15.23-1.59l.68-.84A10.87,10.87,0,0,0,276,517.31Z"/><path class="cls-8" d="M427.7,197.72c-3.94,4.86-3.45,11.84,1.08,15.51l28.66,23.27c4.54,3.67,11.47,2.71,15.4-2.15s3.45-11.84-1.08-15.51l-28.65-23.23C438.58,191.9,431.7,192.86,427.7,197.72Z"/><path class="cls-9" d="M443.43,185.05l54.29,44A10.85,10.85,0,0,0,513,227.5l.68-.84A10.86,10.86,0,0,0,512,211.43l-54.29-44a10.87,10.87,0,0,0-15.23,1.6l-.68.83A10.86,10.86,0,0,0,443.43,185.05Z"/><path class="cls-10" d="M537.33,227.5a8.68,8.68,0,0,0-11.86-3.11c-37.87,22.14-94.24,16.7-94.93,16.63h0c-.37,0-4.18-.42-10.36-.63a8.47,8.47,0,0,0,.66-4.07,8.66,8.66,0,1,0-16.61,4.06c-6.89.22-14.73.76-23,1.86-36.71,4.82-63.73,17.63-80.31,38.09s-23.53,49.53-20.65,86.45a233.36,233.36,0,0,0,9,48.54,198.92,198.92,0,0,1,5.43,23.06A8.65,8.65,0,1,0,287.63,453h.89a8.64,8.64,0,0,0,7.74-4.79c3.53,26.12,3.64,62-15.6,85.79a8.67,8.67,0,1,0,13.47,10.92h0c21.34-26.32,23.15-63.19,20.23-91.76a8.58,8.58,0,0,0,2.19.31h.4a8.67,8.67,0,0,0-.76-17.32,8.58,8.58,0,0,0-4,1.22A215.27,215.27,0,0,0,305.7,410c-.25-.77-24.55-77.86,8.6-118.75,23.66-29.18,71.58-33.53,97.26-33.62a8.67,8.67,0,0,0,4.84,15.89,8,8,0,0,0,1.82-.21,8.63,8.63,0,0,0,3.26-15.46l7.46.45c1.45.14,8.33.76,18.38.76,21.68,0,58.16-2.89,86.9-19.69A8.66,8.66,0,0,0,537.33,227.5Z"/><path class="cls-11" d="M424,163.44a8.47,8.47,0,0,0,5.19,1.74,8.67,8.67,0,1,0-5.19-1.74Z"/><path class="cls-12" d="M411.19,217.69h.6a8.67,8.67,0,1,0-.6,0Z"/><path class="cls-13" d="M414.12,189.77a8.64,8.64,0,1,0,2.49-16.89,8.64,8.64,0,0,0-2.49,16.89Z"/><path class="cls-14" d="M427.09,311.07a8.67,8.67,0,0,0,1,17.29,8.26,8.26,0,0,0,1-.06,8.67,8.67,0,1,0-2-17.23Z"/><path class="cls-15" d="M421.4,283.57a8.68,8.68,0,0,0,1.92,17.14,8.52,8.52,0,0,0,1.95-.23,8.67,8.67,0,0,0-3.87-16.91Z"/><path class="cls-16" d="M368.48,426.5a8.71,8.71,0,1,0,.93-.34C369.1,426.26,368.79,426.37,368.48,426.5Z"/><path class="cls-17" d="M391.17,414.66a8.67,8.67,0,1,0,12.12,1.9h0a8.66,8.66,0,0,0-12.1-1.89Z"/><path class="cls-18" d="M429.63,339a8.67,8.67,0,1,0-.48,17.34h.23a8.67,8.67,0,1,0,.25-17.34Z"/><path class="cls-19" d="M428,367.08a8.67,8.67,0,0,0-4.56,16.73,4.54,4.54,0,0,0,.5.12,8,8,0,0,0,2,.25,8.67,8.67,0,0,0,2-17.1Z"/><path class="cls-20" d="M420,394a8.66,8.66,0,1,0-9.19,14.69h0a8.37,8.37,0,0,0,4.58,1.32,8.66,8.66,0,0,0,4.61-16Z"/><path class="cls-21" d="M342.91,433.35a8.78,8.78,0,1,0,.55-.09l-.53.09Z"/><path class="cls-22" d="M177.2,459a8.66,8.66,0,0,0,5,15.77,8.52,8.52,0,0,0,5-1.55,8.67,8.67,0,1,0-9.49-14.51l-.42.29Z"/><path class="cls-23" d="M262.24,452.5h.33a8.84,8.84,0,1,0-.33,0Z"/><path class="cls-24" d="M207.15,462.16a8.49,8.49,0,0,0,2.91-.51,8.64,8.64,0,1,0-2.91.51Z"/><path class="cls-25" d="M234.33,455.28a6.11,6.11,0,0,0,1.42-.14,8.52,8.52,0,1,0-1.42.14Z"/><path class="cls-26" d="M337.71,319.18l-67.25-54.52a10.88,10.88,0,0,1-1.59-15.23l.68-.84a10.86,10.86,0,0,1,15.26-1.6h0l67.25,54.52a10.86,10.86,0,0,1,1.59,15.23l-.68.84A10.85,10.85,0,0,1,337.71,319.18Z"/><path class="cls-27" d="M203,410.57l30.7,24.89a11.39,11.39,0,0,1,1.67,16h0a11.39,11.39,0,0,1-16,1.67l-30.71-24.89a11.41,11.41,0,0,1-1.67-16h0A11.4,11.4,0,0,1,203,410.57Z"/><path class="cls-27" d="M330.82,269.56l-30.7-24.89a11.42,11.42,0,0,1-1.68-16h0a11.41,11.41,0,0,1,16-1.67l30.7,24.89a11.4,11.4,0,0,1,1.68,16h0A11.4,11.4,0,0,1,330.82,269.56Z"/><path class="cls-26" d="M289.82,369.43l-30.71-24.89a11.41,11.41,0,0,1-1.67-16h0a11.43,11.43,0,0,1,16-1.67l30.7,24.89a11.39,11.39,0,0,1,1.67,16h0A11.38,11.38,0,0,1,289.82,369.43Z"/><path class="cls-27" d="M322.65,351.53l-66.83-54.24a10.87,10.87,0,0,1-1.6-15.23l.6-.77a10.87,10.87,0,0,1,15.23-1.6l66.89,54.23a10.86,10.86,0,0,1,1.59,15.23l-.68.84A10.86,10.86,0,0,1,322.65,351.53Z"/><path class="cls-26" d="M161.82,422.1,220,469.29a10.86,10.86,0,0,1,1.59,15.23l-.68.84A10.88,10.88,0,0,1,205.68,487l-58.23-47.2a10.87,10.87,0,0,1-1.63-15.22l.68-.84a10.86,10.86,0,0,1,15.27-1.63Z"/><path class="cls-26" d="M401.44,188.45l-28.62-23.23c-4.53-3.68-5-10.66-1.08-15.51h0c3.94-4.86,10.87-5.83,15.4-2.15l28.65,23.23c4.53,3.67,5,10.65,1.08,15.51h0C412.9,191.15,406,192.12,401.44,188.45Z"/><path class="cls-27" d="M441.71,181.05l-54.28-44a10.86,10.86,0,0,1-1.61-15.24l.68-.84a10.86,10.86,0,0,1,15.23-1.59l54.28,44a10.84,10.84,0,0,1,1.59,15.23l-.67.84A10.87,10.87,0,0,1,441.71,181.05Z"/><path class="cls-28" d="M481.33,179.47a8.66,8.66,0,0,0-11.84-3.12h0C431.55,198.52,375.09,193,374.53,193c-3.71-.39-90.66-8.81-129.71,39.3s-12.73,131.47-11.6,135a217.85,217.85,0,0,1,8.24,44.57c1.73,22.23.21,53.15-16.84,74.18A8.67,8.67,0,1,0,238.09,497c39-48.11,12.77-131.47,11.64-135-.25-.77-24.55-77.86,8.6-118.76C285,210.32,342.49,209,364.2,209.72l8.74.52c1.45.15,8.32.77,18.38.77,21.68,0,58.16-2.89,86.9-19.69A8.67,8.67,0,0,0,481.33,179.47Z"/><path class="cls-29" d="M251.82,397.29a8.68,8.68,0,0,1,8.29-9.05h0a8.68,8.68,0,0,1,9,8.28h0a8.66,8.66,0,0,1-8.27,9.05h-.4A8.67,8.67,0,0,1,251.82,397.29Zm-20.28,7.76h0a8.67,8.67,0,0,1-7.73-9.52h0a8.66,8.66,0,0,1,9.51-7.72h0a8.67,8.67,0,0,1,7.73,9.51h0a8.67,8.67,0,0,1-8.62,7.78h0c-.25-.05-.56-.07-.86-.1Zm48.31-9.63a8.66,8.66,0,0,1,7-10h0a8.66,8.66,0,0,1,10,7h0a8.66,8.66,0,0,1-7,10.05h0a8.6,8.6,0,0,1-1.52.14h0a8.68,8.68,0,0,1-8.44-7.24Zm27.5-5.68a8.67,8.67,0,0,1,5.1-11.15h0a8.67,8.67,0,0,1,11.15,5.1h0a8.67,8.67,0,0,1-5.1,11.15h0a8.51,8.51,0,0,1-3,.54h0a8.66,8.66,0,0,1-8.11-5.69Zm25.89-10.93a8.67,8.67,0,0,1,1.89-12.11h0a8.67,8.67,0,0,1,12.11,1.9h0a8.65,8.65,0,0,1-1.88,12.1h0a8.58,8.58,0,0,1-5.1,1.67h0a8.61,8.61,0,0,1-7-3.61Zm21.53-18A8.67,8.67,0,0,1,352,348.86h0a8.67,8.67,0,0,1,12-2.75h0a8.67,8.67,0,0,1,2.75,11.95h0a8.64,8.64,0,0,1-7.36,4.07h0a8.64,8.64,0,0,1-4.54-1.41ZM367.87,336a8.67,8.67,0,0,1-6.41-10.45h0a8.7,8.7,0,0,1,10.46-6.41h0a8.67,8.67,0,0,1,6.4,10.46h0a8.65,8.65,0,0,1-8.42,6.65h0a8.45,8.45,0,0,1-2-.33Zm5.25-27.57a8.68,8.68,0,0,1-8.44-8.9h0a8.69,8.69,0,0,1,8.91-8.43h0A8.67,8.67,0,0,1,382,300h0a8.66,8.66,0,0,1-8.66,8.43Zm-9.7-35.7h0a8.69,8.69,0,0,1,7.63-9.6h0a8.68,8.68,0,0,1,9.6,7.64h0a8.66,8.66,0,0,1-7.63,9.59h0a8.26,8.26,0,0,1-1,.06h0a8.68,8.68,0,0,1-8.56-7.78ZM358.84,246a8.67,8.67,0,0,1,6.52-10.39h0a8.67,8.67,0,0,1,10.46,6.41v0h0a8.67,8.67,0,0,1-6.51,10.39h0a8.36,8.36,0,0,1-1.94.22h0a8.67,8.67,0,0,1-8.48-6.74Zm-6.95-27.35a8.66,8.66,0,0,1,6.53-10.36l.18,0h0A8.68,8.68,0,0,1,368.89,215h0a8.67,8.67,0,0,1-6.64,10.32h0a8.43,8.43,0,0,1-1.81.19h0a8.67,8.67,0,0,1-8.47-6.88Zm-4.37-28.77h0a8.67,8.67,0,0,1,7.85-9.4h0a8.65,8.65,0,0,1,9.43,7.77h0A8.68,8.68,0,0,1,357,197.7h-.77a8.66,8.66,0,0,1-8.62-7.87Zm7.64-20.15a8.67,8.67,0,0,1-8.06-9.24h0a8.66,8.66,0,0,1,9.22-8.06h0a8.67,8.67,0,0,1,8.06,9.24h0a8.66,8.66,0,0,1-8.64,8.08h0Zm2.94-27.93A8.67,8.67,0,0,1,352.38,131h0a8.65,8.65,0,0,1,10.83-5.71h0A8.67,8.67,0,0,1,369,136.13h0a8.67,8.67,0,0,1-8.28,6.1h0a8.46,8.46,0,0,1-2.53-.48Zm9.83-26.32a8.66,8.66,0,0,1-1.75-12.12l.08-.11h0a8.67,8.67,0,0,1,12.13-1.73h0a8.66,8.66,0,0,1,1.71,12.14h0a8.59,8.59,0,0,1-6.93,3.46h0a8.66,8.66,0,0,1-5.21-1.74Z"/><path class="cls-29" d="M119,423a8.69,8.69,0,0,1,2.16-12.07h0a8.67,8.67,0,0,1,12.07,2.16h0a8.67,8.67,0,0,1-2.15,12.07h0a8.59,8.59,0,0,1-5,1.56h0A8.68,8.68,0,0,1,119,423ZM143,408.38a8.69,8.69,0,0,1,5.26-11.09h0a8.67,8.67,0,0,1,11.08,5.26h0a8.67,8.67,0,0,1-5.25,11.08h0a8.73,8.73,0,0,1-2.91.5h0A8.69,8.69,0,0,1,143,408.38ZM169.82,400A8.69,8.69,0,0,1,177,390h0a8.67,8.67,0,0,1,10,7.1v0h0a8.67,8.67,0,0,1-7.1,10h0a8.53,8.53,0,0,1-1.43.11h0A8.67,8.67,0,0,1,169.82,400Zm27.81-3.87a8.68,8.68,0,0,1,8.35-9h0a8.67,8.67,0,0,1,9,8.33v0h0a8.66,8.66,0,0,1-8.31,9h-.36a8.68,8.68,0,0,1-8.73-8.35Z"/></g></svg>