<svg id="Contenido" xmlns="http://www.w3.org/2000/svg" xmlns:xlink="http://www.w3.org/1999/xlink" viewBox="0 0 600 600"><defs><style>.cls-1{fill:url(#Degradado_sin_nombre_16);}.cls-2{fill:#043263;}.cls-3{fill:#2dcccd;}.cls-4{fill:#49a5e6;}.cls-5{fill:url(#Degradado_sin_nombre_35);}.cls-6{fill:#d4edfc;}.cls-7{fill:#1464a5;}.cls-8{fill:url(#Degradado_sin_nombre_26);}</style><linearGradient id="Degradado_sin_nombre_16" x1="238.85" y1="111.06" x2="454.3" y2="516.27" gradientUnits="userSpaceOnUse"><stop offset="0" stop-color="#1c2645"/><stop offset="0" stop-color="#1c2645" stop-opacity="0.5"/><stop offset="1" stop-color="#1c2645" stop-opacity="0"/></linearGradient><linearGradient id="Degradado_sin_nombre_35" x1="436.1" y1="354.17" x2="222.4" y2="354.17" gradientUnits="userSpaceOnUse"><stop offset="0.01" stop-color="#043263" stop-opacity="0.3"/><stop offset="1" stop-color="#043263" stop-opacity="0.1"/></linearGradient><linearGradient id="Degradado_sin_nombre_26" x1="373.48" y1="419.43" x2="286.33" y2="419.43" gradientUnits="userSpaceOnUse"><stop offset="0" stop-color="#043263" stop-opacity="0.4"/><stop offset="1" stop-color="#043263" stop-opacity="0.1"/></linearGradient></defs><title>values-day</title><path class="cls-1" d="M466.92,457.87,452.57,352c-.14-1.2-.29-2.39-.46-3.59-.05-.36-.1-.73-.16-1.09-.12-.84-.25-1.68-.39-2.51-.06-.4-.13-.8-.2-1.2-.15-.86-.31-1.71-.47-2.56-.06-.33-.12-.66-.19-1-.23-1.16-.47-2.32-.73-3.47,0-.15-.07-.29-.1-.43-.23-1-.47-2-.73-3-.08-.35-.18-.7-.27-1.05s-.12-.49-.19-.73c49.75-72.77,41.55-159.16,34.43-197.48a14.77,14.77,0,0,0-22.6-9.67c-23.84,15.64-66.54,50.59-98.57,115.29A113.6,113.6,0,0,0,331,235.17h0a113.6,113.6,0,0,0-30.94,4.29c-32-64.7-74.73-99.65-98.57-115.29a14.77,14.77,0,0,0-22.6,9.67c-7.12,38.32-15.32,124.71,34.43,197.48A144.44,144.44,0,0,0,209.43,352L195.2,456.86a26.67,26.67,0,0,0,5.23,19.31c17.1,23.83,43.08,12.48,56.64,33.75a88.06,88.06,0,0,0,41,34.16c1.69.68,3.41,1.32,5.16,1.9s3.51,1.12,5.31,1.59c.89.24,1.8.46,2.7.67A87.65,87.65,0,0,0,331,550.48h0a88.14,88.14,0,0,0,14.26-1.16c.93-.15,1.85-.31,2.77-.49,1.83-.37,3.65-.78,5.44-1.26a88,88,0,0,0,10.47-3.49q2.55-1,5-2.22c.82-.4,1.63-.8,2.44-1.22a88.2,88.2,0,0,0,33.54-30.72,29.37,29.37,0,0,1,8.72-8.94c10.76-7.05,24.61-6.17,37.23-14.58a40.77,40.77,0,0,0,10.69-10.23c.52-.64,1-1.3,1.47-2s.87-1.38,1.25-2.1c.19-.36.37-.73.54-1.1a23,23,0,0,0,1.29-3.41c.11-.39.22-.78.31-1.18a24,24,0,0,0,.66-6.05A22.77,22.77,0,0,0,466.92,457.87Z"/><path class="cls-2" d="M205.18,311.29c-74.82-77.08-65.35-182.07-57.29-225.45a14.77,14.77,0,0,1,22.6-9.67c24.31,16,68.27,52,100.49,119.2q3.4,7.09,6.62,14.66Z"/><path class="cls-3" d="M199.74,279.91c-44.57-53.65-43.49-136.23-41.89-162.25a5,5,0,0,1,7.7-3.82c15.11,10,51.12,38.32,73.79,91.7,1.39,3.26,15.15,17.09,16.6,20.5Z"/><path class="cls-2" d="M394.82,311.29c74.82-77.08,65.35-182.07,57.29-225.45a14.77,14.77,0,0,0-22.6-9.67c-24.31,16-68.27,52-100.49,119.2q-3.4,7.09-6.62,14.66Z"/><path class="cls-3" d="M400.26,279.91c44.57-53.65,43.49-136.23,41.89-162.25a5,5,0,0,0-7.7-3.82c-15.11,10-51.12,38.32-73.79,91.7-1.39,3.26-15.15,17.09-16.6,20.5Z"/><path class="cls-4" d="M430.57,428.17a24.23,24.23,0,0,0,5.35-18.3L421.57,304C414,237.26,361.84,187.17,300,187.17h0c-61.84,0-114,50.09-121.57,116.79L164.2,408.86a26.67,26.67,0,0,0,5.23,19.31h0c17.1,23.83,43.08,12.48,56.64,33.75a87.66,87.66,0,0,0,147.86,0c13.56-21.27,39.2-9.92,56.64-33.75Z"/><path class="cls-5" d="M435.92,409.87,421.57,304c-4.79-42.15-27.39-77.67-59-98.1L222.4,456.53q1.89,2.58,3.67,5.39a87.66,87.66,0,0,0,147.86,0c13.56-21.27,38.26-9.29,56.64-33.75A24.23,24.23,0,0,0,435.92,409.87Z"/><path class="cls-6" d="M268.19,227.37c-12.25,1.13-33.75,6.35-47,20.49-11.69,12.5-12.7,33.19-5.73,53.68s36.88,58.79,49.58,66.89,25.41,5.15,28.27-9.36,7.79-97.28,7.38-111.62S286.14,225.72,268.19,227.37Z"/><path class="cls-2" d="M344.33,278.37a43.31,43.31,0,0,1-22.48-6,3,3,0,0,0-4.51,3.25,27.94,27.94,0,0,0,54,0,3,3,0,0,0-4.51-3.25A43.31,43.31,0,0,1,344.33,278.37Z"/><path class="cls-2" d="M255.77,278.37a43.31,43.31,0,0,1-22.48-6,3,3,0,0,0-4.51,3.25,27.95,27.95,0,0,0,54,0,3,3,0,0,0-4.52-3.25A43.31,43.31,0,0,1,255.77,278.37Z"/><path class="cls-7" d="M278.31,322.72l-34,34.81a62.31,62.31,0,0,0-15.65,59.6l11.27,29.23a44.85,44.85,0,0,0,43.34,33.3h33.54a44.85,44.85,0,0,0,43.34-33.3l11.27-29.23a62.31,62.31,0,0,0-15.65-59.6l-34-34.81A30.34,30.34,0,0,0,278.31,322.72Z"/><path class="cls-2" d="M311.07,414.22H288.93A27.07,27.07,0,0,1,265.1,400l-2.23-4.16a14,14,0,0,1,11.19-20.64l16.31-1.38a114.69,114.69,0,0,1,19.26,0l16.31,1.38a14,14,0,0,1,11.19,20.64L334.9,400A27.07,27.07,0,0,1,311.07,414.22Z"/><path class="cls-8" d="M286.33,479.66h30.44a44.85,44.85,0,0,0,43.34-33.3l11.27-29.23a62.29,62.29,0,0,0-14.09-57.93Z"/></svg>