<svg xmlns="http://www.w3.org/2000/svg" xmlns:xlink="http://www.w3.org/1999/xlink" viewBox="0 0 600 600"><defs><style>.cls-1{fill:none;}.cls-2{fill:url(#Degradado_sin_nombre_84);}.cls-3{fill:#f8cd51;}.cls-4{fill:url(#Degradado_sin_nombre_13);}.cls-5{fill:#fef5dc;}</style><linearGradient id="Degradado_sin_nombre_84" x1="287.31" y1="290.79" x2="381.61" y2="468.15" gradientUnits="userSpaceOnUse"><stop offset="0" stop-color="#192647" stop-opacity="0.5"/><stop offset="1" stop-color="#192647" stop-opacity="0"/></linearGradient><linearGradient id="Degradado_sin_nombre_13" x1="262.16" y1="-2628.99" x2="339.15" y2="-2669.92" gradientTransform="matrix(1, 0, 0, -1, 0, -2356)" gradientUnits="userSpaceOnUse"><stop offset="0" stop-color="#fff" stop-opacity="0.6"/><stop offset="1" stop-color="#fff" stop-opacity="0.2"/></linearGradient></defs><g id="Cuadrados_Blancos" data-name="Cuadrados Blancos"><rect class="cls-1" width="600" height="600"/></g><g id="Capa_19" data-name="Capa 19"><path class="cls-2" d="M385.72,267.73a93,93,0,0,0-89.5,68.21H203.08a2.79,2.79,0,0,0-2.78,2.78v23.81a2.79,2.79,0,0,0,2.78,2.78H293a91,91,0,0,0,.93,9.26H203.08a2.79,2.79,0,0,0-2.78,2.78v23.81a2.78,2.78,0,0,0,2.78,2.78H303.62a90.7,90.7,0,0,0,5.62,9.27H203.08A2.78,2.78,0,0,0,200.3,416v23.8a2.79,2.79,0,0,0,2.78,2.78H342a92.84,92.84,0,0,0,136.69-81.9v0A93,93,0,0,0,385.72,267.73Z"/><path class="cls-3" d="M297.15,396.07H156.58a2.79,2.79,0,0,1-2.78-2.78v-23.8a2.78,2.78,0,0,1,2.78-2.78H297.15Z"/><path class="cls-3" d="M297.15,357.44H156.58a2.78,2.78,0,0,1-2.78-2.78V330.85a2.79,2.79,0,0,1,2.78-2.78H297.15Z"/><path class="cls-3" d="M297.15,318.81H156.58A2.79,2.79,0,0,1,153.8,316V292.22a2.79,2.79,0,0,1,2.78-2.78H297.15Z"/><path class="cls-3" d="M432.22,314.17a92.93,92.93,0,1,1-93-92.94h0a93,93,0,0,1,93,92.9v0"/><path class="cls-3" d="M297.15,396.07H156.58a2.79,2.79,0,0,1-2.78-2.78v-23.8a2.78,2.78,0,0,1,2.78-2.78H297.15Z"/><path class="cls-3" d="M297.15,357.44H156.58a2.78,2.78,0,0,1-2.78-2.78V330.85a2.79,2.79,0,0,1,2.78-2.78H297.15Z"/><path class="cls-3" d="M297.15,318.81H156.58A2.79,2.79,0,0,1,153.8,316V292.22a2.79,2.79,0,0,1,2.78-2.78H297.15Z"/><path class="cls-3" d="M432.22,314.17a92.93,92.93,0,1,1-93-92.94h0a93,93,0,0,1,93,92.9v0"/><path class="cls-4" d="M382.86,231.94c-45.22-24.05-101.28-6.7-125.56,38.42S250.48,372,295.69,396Z"/><path class="cls-5" d="M351.07,332.43c0-6.12-2.42-8.54-13.86-13.77-16.57-7.53-21.55-13.27-21.55-24.87,0-11.34,9.31-19.63,18.75-22.05v-14h.51l13.6,6v7.77a35,35,0,0,1,12.24,4.2l.64.39.51.25-.13.52-.12.76-1.8,10.71-.38,2-.25,1.41-1.15-.77-1.65-1.27a24.6,24.6,0,0,0-15.3-5.37c-7.15,0-11,3.19-11,8.55,0,5.1,2.55,7.4,13.77,12.62,16.7,7.52,21.93,13.64,21.93,26,0,11.48-8,20-17.47,22.95v16.17h-1.12l-13-7.27v-7.9c-4.72-.64-13.13-2.43-18.49-5.23l-.76-.38-.51-.26v-.51l.13-.92,1.52-11,.26-1.91.12-1.27,1,.76,1.52,1a37.19,37.19,0,0,0,19.64,6.38c7.52,0,12.37-3.7,12.37-9.82"/></g></svg>