<svg id="Contenido" xmlns="http://www.w3.org/2000/svg" xmlns:xlink="http://www.w3.org/1999/xlink" viewBox="0 0 600 600"><defs><style>.cls-1{fill:url(#Degradado_sin_nombre_7);}.cls-2{fill:#043263;}.cls-3{fill:#2dcccd;}.cls-4{fill:#004481;}.cls-5{fill:#1464a5;}.cls-6{fill:url(#Degradado_sin_nombre_23);}.cls-7{fill:#f6cb5c;}.cls-8{fill:url(#Degradado_sin_nombre_5);}.cls-9{fill:#fdf4dc;}</style><linearGradient id="Degradado_sin_nombre_7" x1="230.34" y1="176.37" x2="430.87" y2="553.51" gradientUnits="userSpaceOnUse"><stop offset="0" stop-color="#192647"/><stop offset="0" stop-color="#192647" stop-opacity="0.5"/><stop offset="1" stop-color="#192647" stop-opacity="0"/></linearGradient><linearGradient id="Degradado_sin_nombre_23" x1="146.62" y1="317.64" x2="-32.97" y2="413.13" gradientTransform="matrix(0.88, 0.47, -0.47, 0.88, 502.59, -62.49)" gradientUnits="userSpaceOnUse"><stop offset="0" stop-color="#043263" stop-opacity="0.4"/><stop offset="1" stop-color="#043263" stop-opacity="0"/></linearGradient><linearGradient id="Degradado_sin_nombre_5" x1="203.01" y1="131.72" x2="283.09" y2="174.3" gradientUnits="userSpaceOnUse"><stop offset="0" stop-color="#fff" stop-opacity="0.6"/><stop offset="1" stop-color="#fff" stop-opacity="0.2"/></linearGradient></defs><title>0</title><path class="cls-1" d="M545.71,354.79l-37.09-19.72,21.6-40.61c.19-.35.36-.71.53-1.06.33-.71.62-1.43.88-2.16.13-.36.24-.73.35-1.09s.25-.9.35-1.35A23,23,0,0,0,527,268.25a22.61,22.61,0,0,0-3.87-3.41c-.45-.32-.9-.62-1.38-.91l-1-.58-99.25-52.77a90.06,90.06,0,0,0-69.41-74.42l-.28-.07c-.76-.16-1.52-.32-2.29-.46l-.45-.09c-.77-.14-1.55-.28-2.33-.4l-.28,0c-.9-.14-1.8-.27-2.7-.38h0c-.85-.11-1.7-.2-2.56-.28l-.73-.07-1.88-.15-.87-.05-1.86-.09-.8,0c-.87,0-1.75,0-2.63,0h0a89.17,89.17,0,0,0-9.44.5c-1.32.13-2.62.3-3.92.5a87.79,87.79,0,0,0-11.86,2.61c-1,.29-1.95.59-2.91.91q-.7.22-1.41.48c-.88.3-1.75.62-2.62,1q-4,1.53-7.76,3.41c-.64.32-1.27.64-1.89,1a89.64,89.64,0,0,0-13.28,8.58c-.24.19-.48.37-.72.57-.94.74-1.85,1.5-2.76,2.27-1.18,1-2.35,2.08-3.48,3.16A89.77,89.77,0,0,0,242.46,224c0,1,0,1.93,0,2.89l0,.8c0,.76.07,1.53.12,2.29,0,.21,0,.42,0,.63.07.95.15,1.9.25,2.84,0,.18.05.37.07.55.08.78.18,1.56.29,2.34,0,.24.06.48.1.72.28,1.89.61,3.76,1,5.61l.12.58c.18.81.37,1.61.57,2.41,0,.13.06.27.1.41.24,1,.49,1.89.76,2.83,0,0,0,.08,0,.13.26.88.53,1.76.82,2.64l.12.39q.93,2.81,2,5.54a.61.61,0,0,1,.05.12,90.35,90.35,0,0,0,6.34,12.63l-39.56,74.39a23,23,0,0,0-.08,21.44L150,489.88a3,3,0,0,0,1.24,4.05L172.4,505.2a3,3,0,0,0,4-1.24l85.48-160.75,122.73,65.26-32.4,60.92a23,23,0,0,0,9.51,31.1l83,44.13a3,3,0,0,0,4.06-1.24L547,358.85A3,3,0,0,0,545.71,354.79ZM219.15,340c.26-.28.52-.55.79-.82-.27.27-.53.54-.79.82a22.81,22.81,0,0,0-2.13,2.72A22.81,22.81,0,0,1,219.15,340Z"/><path class="cls-2" d="M196.92,285.23a23,23,0,1,0-21.6,40.61Z"/><path class="cls-3" d="M143.75,261.27h30a0,0,0,0,1,0,0v197a3,3,0,0,1-3,3h-24a3,3,0,0,1-3-3v-197A0,0,0,0,1,143.75,261.27Z" transform="translate(188.19 -32.24) rotate(28)"/><path class="cls-4" d="M334.91,265.45h117a3,3,0,0,1,3,3v209a3,3,0,0,1-3,3h-94a23,23,0,0,1-23-23v-192A0,0,0,0,1,334.91,265.45Z" transform="translate(221.31 -141.75) rotate(28)"/><path class="cls-5" d="M390.08,414h0a23,23,0,0,0-9.51-31.1h0L196.92,285.23h0a23,23,0,0,0-31.11,9.51h0L256,125.21a23,23,0,0,1,31.11-9.51l183.65,97.65a23,23,0,0,1,9.51,31.11Z"/><circle class="cls-2" cx="369.77" cy="403.19" r="23"/><path class="cls-2" d="M359,423.49l-25.6-13.61h0a23,23,0,0,0-31.11,9.51h0l32.4-60.92,45.91,24.41Z"/><path class="cls-6" d="M470.71,213.35l-101-53.73L279.52,329.15l101.05,53.73a23,23,0,0,1,9.51,31.1l90.14-169.52A23,23,0,0,0,470.71,213.35Z"/><path class="cls-7" d="M372.46,174a90,90,0,1,1-90.07-90h0a90,90,0,0,1,90.07,90"/><path class="cls-8" d="M282.39,84a90,90,0,0,0-41.54,169.73l84-159.12A89.81,89.81,0,0,0,282.39,84Z"/><path class="cls-9" d="M292.89,191.83c0-5.93-2.34-8.27-13.65-13.37-16.27-7.31-21-13-21-24.27s9.1-19.17,18.34-21.51V118.89h.55l13.24,5.79v7.58a30.41,30.41,0,0,1,11.86,4.14l.69.41.41.28-.14.55-.13.83L301.44,149l-.27,1.93-.14,1.38-1.11-.83-1.51-1.24a24.58,24.58,0,0,0-15-5.24c-6.9,0-10.76,3.17-10.76,8.41,0,5,2.48,7.17,13.51,12.27,16.28,7.45,21.52,13.24,21.52,25.38,0,11.17-7.86,19.44-17.1,22.47v15.86h-1.11l-12.68-7.17v-7.72c-4.55-.55-12.83-2.35-18.07-5.1l-.82-.42-.56-.27v-.55l.14-.83L259,196.52l.28-1.93.13-1.24,1.11.69,1.51,1a35.27,35.27,0,0,0,19.17,6.2c7.31.28,11.72-3.45,11.72-9.38"/></svg>