<svg id="Capa_1" data-name="Capa 1" xmlns="http://www.w3.org/2000/svg" xmlns:xlink="http://www.w3.org/1999/xlink" viewBox="0 0 600 600"><defs><style>.cls-1{fill:url(#Degradado_sin_nombre);}.cls-2{fill:url(#Degradado_sin_nombre_2);}.cls-3{fill:url(#Degradado_sin_nombre_3);}.cls-4{fill:url(#Degradado_sin_nombre_4);}.cls-5{fill:url(#Degradado_sin_nombre_5);}.cls-6{fill:url(#Degradado_sin_nombre_6);}.cls-7{fill:#f8cd51;}.cls-8{fill:url(#Degradado_sin_nombre_7);}.cls-9{fill:#fef5dc;}.cls-10{fill:none;}</style><linearGradient id="Degradado_sin_nombre" x1="116.19" y1="308.79" x2="291.65" y2="-21.21" gradientTransform="matrix(1, 0, 0, -1, 0, 602)" gradientUnits="userSpaceOnUse"><stop offset="0" stop-color="#192647"/><stop offset="0" stop-color="#192647" stop-opacity="0.5"/><stop offset="1" stop-color="#192647" stop-opacity="0"/></linearGradient><linearGradient id="Degradado_sin_nombre_2" x1="125.36" y1="330.18" x2="300.83" y2="0.17" xlink:href="#Degradado_sin_nombre"/><linearGradient id="Degradado_sin_nombre_3" x1="134.83" y1="351.82" x2="310.53" y2="21.36" xlink:href="#Degradado_sin_nombre"/><linearGradient id="Degradado_sin_nombre_4" x1="144.1" y1="373.39" x2="319.8" y2="42.93" xlink:href="#Degradado_sin_nombre"/><linearGradient id="Degradado_sin_nombre_5" x1="285.87" y1="495.96" x2="461.57" y2="165.5" xlink:href="#Degradado_sin_nombre"/><linearGradient id="Degradado_sin_nombre_6" x1="268.71" y1="499.88" x2="482.41" y2="97.97" xlink:href="#Degradado_sin_nombre"/><linearGradient id="Degradado_sin_nombre_7" x1="343.17" y1="-709.02" x2="420.16" y2="-668.09" gradientTransform="translate(0 982)" gradientUnits="userSpaceOnUse"><stop offset="0" stop-color="#fff" stop-opacity="0.6"/><stop offset="1" stop-color="#fff" stop-opacity="0.2"/></linearGradient></defs><path class="cls-1" d="M257.5,414.71H119.7a2.77,2.77,0,0,0-2.78,2.78v23.8a2.8,2.8,0,0,0,2.78,2.78H257.5a2.78,2.78,0,0,0,2.77-2.78V417.48a2.77,2.77,0,0,0-2.77-2.77Z"/><path class="cls-2" d="M257.5,376.07H119.7a2.8,2.8,0,0,0-2.78,2.78v23.81a2.77,2.77,0,0,0,2.78,2.78H257.5a2.77,2.77,0,0,0,2.77-2.77V378.85A2.78,2.78,0,0,0,257.5,376.07Z"/><path class="cls-3" d="M119.58,366.81H260.15V337.44H119.58a2.8,2.8,0,0,0-2.78,2.78V364a2.79,2.79,0,0,0,2.77,2.81Z"/><path class="cls-4" d="M119.58,327.81H260.15V298.44H119.58a2.8,2.8,0,0,0-2.78,2.78V325a2.79,2.79,0,0,0,2.77,2.81Z"/><path class="cls-5" d="M285.58,250.81H426.15V221.44H285.58a2.8,2.8,0,0,0-2.78,2.78V248a2.79,2.79,0,0,0,2.77,2.81Z"/><path class="cls-6" d="M468.22,269.23a92.66,92.66,0,0,0-42.07,10.12V260.44H285.58a2.8,2.8,0,0,0-2.78,2.78V287a2.8,2.8,0,0,0,2.78,2.78H410a93.52,93.52,0,0,0-9.93,9.26H285.58a2.8,2.8,0,0,0-2.78,2.78v23.81a2.77,2.77,0,0,0,2.78,2.78H381.7a92.17,92.17,0,0,0-3,9H285.58a2.8,2.8,0,0,0-2.78,2.78V364a2.8,2.8,0,0,0,2.78,2.78h89.91a89.89,89.89,0,0,0,.93,9.26H285.58a2.8,2.8,0,0,0-2.78,2.78v23.81a2.77,2.77,0,0,0,2.78,2.78H386.12a91.08,91.08,0,0,0,5.62,9.27H285.58a2.77,2.77,0,0,0-2.78,2.78v23.8a2.8,2.8,0,0,0,2.78,2.78h139a92.84,92.84,0,0,0,136.69-81.9h0A93,93,0,0,0,468.22,269.23Z"/><path class="cls-7" d="M378.15,396.07H237.58a2.8,2.8,0,0,1-2.78-2.78v-23.8a2.77,2.77,0,0,1,2.78-2.78H378.15Z"/><path class="cls-7" d="M378.15,357.44H237.58a2.77,2.77,0,0,1-2.78-2.78V330.85a2.8,2.8,0,0,1,2.78-2.78H378.15Z"/><path class="cls-7" d="M209.5,396.07H71.7a2.8,2.8,0,0,1-2.78-2.78v-23.8a2.77,2.77,0,0,1,2.78-2.78H209.5a2.77,2.77,0,0,1,2.77,2.77v23.81A2.78,2.78,0,0,1,209.5,396.07Z"/><path class="cls-7" d="M209.5,357.44H71.7a2.77,2.77,0,0,1-2.78-2.78V330.85a2.8,2.8,0,0,1,2.78-2.78H209.5a2.78,2.78,0,0,1,2.77,2.78v23.82A2.77,2.77,0,0,1,209.5,357.44Z"/><path class="cls-7" d="M378.15,318.81H237.58a2.79,2.79,0,0,1-2.78-2.8h0V292.22a2.8,2.8,0,0,1,2.78-2.78H378.15Z"/><path class="cls-7" d="M378.15,280.44H237.58a2.77,2.77,0,0,1-2.78-2.78V253.85a2.8,2.8,0,0,1,2.78-2.78H378.15Z"/><path class="cls-7" d="M212.15,318.81H71.58A2.79,2.79,0,0,1,68.8,316h0V292.22a2.8,2.8,0,0,1,2.78-2.78H212.15Z"/><path class="cls-7" d="M378.15,241.81H237.58a2.79,2.79,0,0,1-2.78-2.8h0V215.22a2.8,2.8,0,0,1,2.78-2.78H378.15Z"/><path class="cls-7" d="M212.15,279.81H71.58A2.79,2.79,0,0,1,68.8,277h0V253.22a2.8,2.8,0,0,1,2.78-2.78H212.15Z"/><path class="cls-7" d="M378.15,202.81H237.58a2.79,2.79,0,0,1-2.78-2.8h0V176.22a2.8,2.8,0,0,1,2.78-2.78H378.15Z"/><path class="cls-7" d="M513.22,314.17a92.93,92.93,0,1,1-93-92.94h0a93,93,0,0,1,93,92.9h0"/><path class="cls-8" d="M463.86,231.94c-45.22-24.05-101.28-6.7-125.56,38.42S331.48,372,376.69,396Z"/><path class="cls-9" d="M432.07,332.43c0-6.12-2.42-8.54-13.86-13.77-16.57-7.53-21.55-13.27-21.55-24.87,0-11.34,9.31-19.63,18.75-22.05v-14h.51l13.6,6v7.77a35,35,0,0,1,12.24,4.2l.64.39.51.25-.13.52-.12.76-1.8,10.71-.38,2-.25,1.41-1.15-.77-1.65-1.27a24.6,24.6,0,0,0-15.3-5.37c-7.15,0-11,3.19-11,8.55,0,5.1,2.55,7.4,13.77,12.62,16.7,7.52,21.93,13.64,21.93,26,0,11.48-8,20-17.47,22.95v16.17h-1.12l-13-7.27v-7.9c-4.72-.64-13.13-2.43-18.49-5.23l-.76-.38-.51-.26v-.51l.13-.92,1.52-11,.26-1.91.12-1.27,1,.76,1.52,1a37.16,37.16,0,0,0,19.64,6.38c7.52,0,12.37-3.7,12.37-9.82"/><rect class="cls-10" width="600" height="600"/></svg>