<svg xmlns="http://www.w3.org/2000/svg" xmlns:xlink="http://www.w3.org/1999/xlink" viewBox="0 0 600 600"><defs><style>.cls-1{fill:none;}.cls-2{fill:url(#Degradado_sin_nombre_452);}.cls-3{fill:#043263;}.cls-4{fill:#2dcccd;}.cls-5{fill:#004481;}.cls-6{fill:url(#Degradado_sin_nombre_114);}.cls-7{fill:#f6cb5c;}.cls-8{fill:url(#Degradado_sin_nombre_18);}.cls-9{fill:#fdf4dc;}</style><linearGradient id="Degradado_sin_nombre_452" x1="230.44" y1="5373.49" x2="430.88" y2="4996.52" gradientTransform="matrix(1, 0, 0, -1, 0, 5550)" gradientUnits="userSpaceOnUse"><stop offset="0" stop-color="#192647" stop-opacity="0.5"/><stop offset="1" stop-color="#192647" stop-opacity="0"/></linearGradient><linearGradient id="Degradado_sin_nombre_114" x1="-1152.19" y1="5476.91" x2="-1331.78" y2="5381.42" gradientTransform="matrix(0.88, 0.47, 0.47, -0.88, -1077.9, 5648.2)" gradientUnits="userSpaceOnUse"><stop offset="0" stop-color="#072146" stop-opacity="0.8"/><stop offset="1" stop-color="#072146" stop-opacity="0"/></linearGradient><linearGradient id="Degradado_sin_nombre_18" x1="203.01" y1="5418.28" x2="283.09" y2="5375.7" gradientTransform="matrix(1, 0, 0, -1, 0, 5550)" gradientUnits="userSpaceOnUse"><stop offset="0" stop-color="#fff" stop-opacity="0.6"/><stop offset="1" stop-color="#fff" stop-opacity="0.2"/></linearGradient></defs><title>11</title><g id="Cuadrados_Blancos" data-name="Cuadrados Blancos"><rect class="cls-1" width="600" height="600"/></g><g id="Capa_31" data-name="Capa 31"><path class="cls-2" d="M545.71,354.79l-37.09-19.72,21.6-40.61c.19-.35.36-.71.53-1.06.33-.71.62-1.43.88-2.16.13-.36.24-.73.35-1.09s.25-.9.35-1.35a22.9,22.9,0,0,0-9.2-24c-.45-.32-.9-.62-1.38-.91l-1-.58L421.5,210.58a90.05,90.05,0,0,0-69.41-74.42l-.28-.07c-.76-.16-1.52-.32-2.29-.46l-.45-.09c-.77-.14-1.55-.28-2.33-.4h-.28c-.9-.14-1.8-.27-2.7-.38h0c-.85-.11-1.7-.2-2.56-.28l-.73-.07-1.88-.15-.87,0-1.86-.09h-3.43a90.31,90.31,0,0,0-9.44.5c-1.32.13-2.62.3-3.92.5a89,89,0,0,0-11.86,2.61c-1,.29-1.95.59-2.91.91q-.71.23-1.41.48c-.88.3-1.75.62-2.62,1-2.67,1-5.25,2.16-7.76,3.41-.64.32-1.27.64-1.89,1a89.3,89.3,0,0,0-13.28,8.58l-.72.57c-.94.74-1.85,1.5-2.76,2.27-1.18,1-2.35,2.08-3.48,3.16A89.8,89.8,0,0,0,242.46,224v3.69c0,.76.07,1.53.12,2.29v.63c.07.95.15,1.9.25,2.84a5.17,5.17,0,0,0,.07.55c.08.78.18,1.56.29,2.34a4.45,4.45,0,0,0,.1.72q.42,2.83,1,5.61l.12.58c.18.81.37,1.61.57,2.41a1.63,1.63,0,0,0,.1.41c.24,1,.49,1.89.76,2.83V249c.26.88.53,1.76.82,2.64l.12.39q.93,2.81,2,5.54a.61.61,0,0,1,.05.12,90.35,90.35,0,0,0,6.34,12.63l-39.56,74.39a23,23,0,0,0-.08,21.44L150,489.88a3,3,0,0,0,1.24,4.05L172.4,505.2a3,3,0,0,0,4-1.24l85.48-160.75,122.73,65.26-32.4,60.92a23,23,0,0,0,9.51,31.1l83,44.13a3,3,0,0,0,4.06-1.24h0L547,358.85a3,3,0,0,0-1.27-4.05ZM219.15,340c.26-.28.52-.55.79-.82-.27.27-.53.54-.79.82a22.38,22.38,0,0,0-2.13,2.72A22.38,22.38,0,0,1,219.15,340Z"/><path class="cls-3" d="M196.92,285.23a23,23,0,0,0-22.06,40.37l.46.24Z"/><path class="cls-4" d="M192.45,265.93,218.94,280h0L126.46,454a3,3,0,0,1-4.06,1.24h0l-21.19-11.27a3,3,0,0,1-1.24-4.06h0l92.48-173.94Z"/><path class="cls-5" d="M392.4,249.86l103.3,54.93a3,3,0,0,1,1.24,4L398.82,493.38a3,3,0,0,1-4.05,1.24l-83-44.13a23,23,0,0,1-9.51-31.1L392.4,249.86Z"/><path class="cls-5" d="M390.08,414h0a23,23,0,0,0-9.51-31.1h0L196.92,285.23h0a23,23,0,0,0-31.11,9.5h0L256,125.21a23,23,0,0,1,31.1-9.51h0l183.65,97.65a23,23,0,0,1,9.51,31.1h0Z"/><circle class="cls-3" cx="369.77" cy="403.19" r="23"/><path class="cls-3" d="M359,423.49l-25.6-13.61h0a23,23,0,0,0-31.11,9.5h0l32.4-60.92,45.91,24.41Z"/><path class="cls-6" d="M470.71,213.35l-101-53.73L279.52,329.15l101.05,53.73a23,23,0,0,1,9.51,31.1l90.14-169.52a23,23,0,0,0-9.5-31.11Z"/><path class="cls-7" d="M372.46,174a90,90,0,1,1-90.07-90h0a90,90,0,0,1,90.07,89.93V174"/><path class="cls-8" d="M282.39,84a90,90,0,0,0-41.54,169.73l84-159.12A89.84,89.84,0,0,0,282.39,84Z"/><path class="cls-9" d="M292.89,191.83c0-5.93-2.34-8.27-13.65-13.37-16.27-7.31-21-13-21-24.27s9.1-19.17,18.34-21.51V118.89h.55l13.24,5.79v7.58a30.4,30.4,0,0,1,11.86,4.14l.69.41.41.28-.14.55-.13.83L301.44,149l-.27,1.93-.14,1.38-1.11-.83-1.51-1.24a24.59,24.59,0,0,0-15-5.24c-6.9,0-10.76,3.17-10.76,8.41,0,5,2.48,7.17,13.51,12.27,16.28,7.45,21.52,13.24,21.52,25.38,0,11.17-7.86,19.44-17.1,22.47v15.86h-1.11l-12.68-7.17V214.5c-4.55-.55-12.83-2.35-18.07-5.1l-.82-.42-.56-.27v-.55l.14-.83L259,196.52l.28-1.93.13-1.24,1.11.69,1.51,1a35.24,35.24,0,0,0,19.17,6.2c7.31.28,11.72-3.45,11.72-9.38"/></g></svg>