<svg xmlns="http://www.w3.org/2000/svg" xmlns:xlink="http://www.w3.org/1999/xlink" viewBox="0 0 600 600"><defs><style>.cls-1{fill:none;}.cls-2{fill:url(#Degradado_sin_nombre_99);}.cls-3{fill:url(#Degradado_sin_nombre_98);}.cls-4{fill:url(#Degradado_sin_nombre_101);}.cls-5{fill:#043263;}.cls-6{fill:#f7b27f;}.cls-7{fill:#2dcccd;}.cls-8{fill:#02a5a5;}.cls-9{fill:url(#Degradado_sin_nombre_13);}.cls-10{fill:#facba9;}.cls-11{fill:url(#Degradado_sin_nombre_13-2);}.cls-12{fill:url(#Degradado_sin_nombre_2);}</style><linearGradient id="Degradado_sin_nombre_99" x1="277.18" y1="2406.62" x2="501.34" y2="1985.03" gradientTransform="matrix(1, 0, 0, -1, 0, 2462)" gradientUnits="userSpaceOnUse"><stop offset="0" stop-color="#192647" stop-opacity="0.5"/><stop offset="1" stop-color="#192647" stop-opacity="0"/></linearGradient><linearGradient id="Degradado_sin_nombre_98" x1="133.6" y1="2282.48" x2="348.07" y2="1879.12" xlink:href="#Degradado_sin_nombre_99"/><linearGradient id="Degradado_sin_nombre_101" x1="264.01" y1="2357.04" x2="474.18" y2="1961.78" xlink:href="#Degradado_sin_nombre_99"/><linearGradient id="Degradado_sin_nombre_13" x1="-832.15" y1="-1548.42" x2="-964.15" y2="-1548.42" gradientTransform="matrix(0.31, -0.95, -0.95, -0.31, -769.51, -1035.28)" gradientUnits="userSpaceOnUse"><stop offset="0" stop-color="#d8722c"/><stop offset="1" stop-color="#d8722c" stop-opacity="0"/></linearGradient><linearGradient id="Degradado_sin_nombre_13-2" x1="-2777.69" y1="4586.25" x2="-2909.68" y2="4586.25" gradientTransform="translate(-5057.14 -981.74) rotate(-108.07)" xlink:href="#Degradado_sin_nombre_13"/><linearGradient id="Degradado_sin_nombre_2" x1="381.82" y1="2220.49" x2="273" y2="2220.49" gradientTransform="matrix(1, 0, 0, -1, 0, 2462)" gradientUnits="userSpaceOnUse"><stop offset="0" stop-color="#072146" stop-opacity="0.8"/><stop offset="1" stop-color="#072146" stop-opacity="0"/></linearGradient></defs><title>18</title><g id="Cuadrados_Blancos" data-name="Cuadrados Blancos"><rect class="cls-1" width="600" height="600"/></g><g id="Capa_6" data-name="Capa 6"><path class="cls-2" d="M483.37,466.15c9.72-36.27,57.56-67.33,65.12-95.53,2-7.37-1.79-23.21-7.27-40.54-7.79-24.62-13.27-52.84-23.47-87.65s-24.3-77.64-27.44-83.13-6.36-5.89-12.26-4.69-14.13,11.1-13.34,29,7.36,61,10.89,84.28c.47,3.11.79,6.23,1,9.33-5.68-.5-10.93,1-14.72,4.92a1.3,1.3,0,0,1-.05.43,23,23,0,0,0-9.76,15l-5.93,32.09a129.08,129.08,0,0,1-5.3,19.8l-5.95,16.75c-13.33,14.38-26.72,28.89-31.81,37.1-10.64,17.14-6.4,40.14-7.67,55.6A128.17,128.17,0,0,1,393.65,472l-2.42-.15A16,16,0,0,0,375,483.59l-7.8,28.86a15.88,15.88,0,0,0,11.18,19.49,16.19,16.19,0,0,0,2.93.51A241.15,241.15,0,0,1,464.67,555a15.9,15.9,0,0,0,21.23-7.4,16.08,16.08,0,0,0,1-2.76l7.8-28.86a16,16,0,0,0-8.12-18.32c-1.82-1-3.68-1.87-5.56-2.78C480.61,488.26,480.49,476.9,483.37,466.15Z"/><path class="cls-3" d="M329.38,483.59a16,16,0,0,0-16.24-11.73l-2.42.15A129.42,129.42,0,0,1,309,458.85c-1.28-15.46,3-38.46-7.67-55.6-5.1-8.21-18.49-22.72-31.82-37.1l-5.95-16.75a130.23,130.23,0,0,1-5.3-19.8l-5.92-32.09a23.1,23.1,0,0,0-9.77-15v-.43c-3.79-3.93-9-5.42-14.72-4.92.19-3.1.5-6.22,1-9.33,3.53-23.27,10.1-66.41,10.89-84.28s-7.44-27.77-13.34-29-9.13-.8-12.27,4.69-17.23,48.32-27.43,83.13S171,305.37,163.22,330c-5.47,17.33-9.24,33.17-7.27,40.54,7.56,28.2,55.4,59.26,65.12,95.53,2.88,10.75,2.76,22.11,2.33,28.71-1.89.91-3.75,1.83-5.57,2.78A16,16,0,0,0,209.64,516l7.8,28.86A15.91,15.91,0,0,0,239.71,555a241.13,241.13,0,0,1,83.36-22.54,15.9,15.9,0,0,0,14.62-17.08,15.11,15.11,0,0,0-.5-2.92Z"/><path class="cls-4" d="M415.81,308.44a90.23,90.23,0,0,0,6.49-8.83c.4-.62.78-1.24,1.15-1.86a62.58,62.58,0,0,0,4.45-8.8c.33-.81.64-1.62.93-2.44a51.66,51.66,0,0,0,3-17.41h0a54.62,54.62,0,0,0-2.54-16.64,39.77,39.77,0,0,0-1.63-4.37c-.45-1.06-.94-2.1-1.46-3.12a46.29,46.29,0,0,0-7.2-10.34c-.5-.55-1-1.08-1.54-1.6l-.54-.5c-.36-.34-.71-.68-1.07-1l-.69-.59-1-.82-.78-.6-1-.71c-.28-.21-.57-.41-.85-.6l-.92-.62-.93-.59-.9-.54-1-.56-.87-.46-1.07-.53-.84-.4c-.38-.17-.75-.34-1.14-.5l-.79-.32-1.23-.47-.72-.25c-.45-.16-.89-.31-1.34-.44l-.6-.18-1.49-.41-.35-.08a44.72,44.72,0,0,0-10.68-1.29,40.52,40.52,0,0,0-25.34,8.76A51.62,51.62,0,0,0,351.17,240a52.05,52.05,0,0,0-10.25-10.71,40.52,40.52,0,0,0-25.34-8.76,43.35,43.35,0,0,0-32.26,14.06c-8.25,9-12.8,21.2-12.8,34.47,0,13.66,5.09,26.16,16,39.34,9.76,11.8,23.79,23.77,40,37.63l4.62,3.94c2.75,2.35,5.62,4.82,8.58,7.38,1.7,1.47,3.43,3,5.17,4.5a8.7,8.7,0,0,0,.91.69,10,10,0,0,0,1.22.72c.25.12.51.23.77.33s.66.22,1,.31a9.74,9.74,0,0,0,2.34.29,9.34,9.34,0,0,0,2.52-.34,8.45,8.45,0,0,0,.81-.26,9.35,9.35,0,0,0,2-1c.31-.22.62-.45.91-.7l4.84-4.22c4.79-4.14,9.37-8.05,13.53-11.6C392,332.21,406.05,320.24,415.81,308.44Z"/><path class="cls-5" d="M369,183.71a43.34,43.34,0,0,0-32.27-14.06,40.52,40.52,0,0,0-25.34,8.76,51.74,51.74,0,0,0-10.24,10.71,52.05,52.05,0,0,0-10.25-10.71,40.52,40.52,0,0,0-25.34-8.76,43.31,43.31,0,0,0-32.26,14.06c-8.25,9-12.8,21.2-12.8,34.47,0,13.65,5.09,26.15,16,39.34,9.76,11.79,23.79,23.76,40,37.63,5.55,4.73,11.84,10.1,18.37,15.81a9.45,9.45,0,0,0,12.47,0c6.53-5.72,12.82-11.09,18.37-15.83,16.25-13.86,30.28-25.83,40-37.62,10.92-13.19,16-25.69,16-39.35C381.83,204.91,377.29,192.67,369,183.71Z"/><path class="cls-6" d="M340.11,434.4s3.87-9.07,5.3-26.48c1.27-15.46-3-38.45,7.67-55.59s57.47-61.78,64.34-75.29,11.73-36.84,8.2-60.1-10.11-66.4-10.89-84.28,7.43-27.76,13.34-29,9.13-.81,12.27,4.68,17.23,48.32,27.43,83.14,15.68,63,23.47,87.65c5.48,17.32,9.25,33.16,7.27,40.54-7.56,28.19-55.4,59.25-65.12,95.53-4.41,16.48-1.77,34.39-1.77,34.39l-85-3.72Z"/><path class="cls-7" d="M317.21,461.52a15.9,15.9,0,0,0,11.2,19.5,16.87,16.87,0,0,0,2.91.5,241.45,241.45,0,0,1,83.37,22.53A15.88,15.88,0,0,0,437,493.89L444.76,465a16,16,0,0,0-8.13-18.31,239.25,239.25,0,0,0-95.37-25.79A16,16,0,0,0,325,432.66Z"/><circle class="cls-8" cx="420.18" cy="474.15" r="10"/><path class="cls-9" d="M456.36,258.76,452,290.48a125.25,125.25,0,0,1-8.38,31l-19.07,46.17-47.75-15.6,21.62-51.85a126,126,0,0,0,6.19-18.95L412,250.39a22.58,22.58,0,0,1,27.27-16.61c.57.14,1.13.3,1.69.48h0A22.58,22.58,0,0,1,456.36,258.76Z"/><path class="cls-6" d="M448,252.68l-2.68,32.81a130,130,0,0,1-6.88,32.32l-17,48.45-49.89-13.37,19.32-54.42a130.26,130.26,0,0,0,5.31-19.8l5.92-32.09a23.18,23.18,0,0,1,27-18.6c.61.11,1.22.25,1.82.41h0A23.17,23.17,0,0,1,448,252.68Z"/><path class="cls-10" d="M409.47,252.65c-.08,1.61,6.74,6.92,15.43,7.38,9.3.5,14.08-2,14.62-4.57.29-1.45,1.69-13.69,2.36-20.53-2.81-4.91-7.79-7.58-13.69-8.47h0c-6.29-1-12.17.44-16.31,4.73C411.12,238,409.52,251.64,409.47,252.65Z"/><path class="cls-6" d="M264.3,434.4s-3.86-9.07-5.29-26.48c-1.27-15.46,3-38.45-7.67-55.59S193.87,290.55,187,277s-11.73-36.84-8.2-60.1,10.1-66.4,10.89-84.28-7.44-27.76-13.34-29-9.13-.81-12.27,4.68-17.23,48.32-27.43,83.14-15.69,63-23.47,87.65c-5.48,17.32-9.25,33.16-7.27,40.54,7.55,28.26,55.39,59.37,65.09,95.6,4.42,16.48,1.78,34.39,1.78,34.39l85-3.72Z"/><path class="cls-7" d="M287.21,461.52A15.9,15.9,0,0,1,276,481a16.07,16.07,0,0,1-2.92.5,241.46,241.46,0,0,0-83.36,22.53,15.91,15.91,0,0,1-21.24-7.39,16.18,16.18,0,0,1-1-2.77L159.66,465a16,16,0,0,1,8.12-18.31,239.46,239.46,0,0,1,95.38-25.79,16,16,0,0,1,16.25,11.73Z"/><circle class="cls-8" cx="184.24" cy="474.15" r="10"/><path class="cls-11" d="M148.05,258.76l4.33,31.72a125.69,125.69,0,0,0,8.38,31l19.07,46.17,47.76-15.6L206,300.24a126,126,0,0,1-6.19-18.95l-7.44-30.86a22.57,22.57,0,0,0-27.23-16.65c-.58.13-1.15.3-1.71.48h0A22.59,22.59,0,0,0,148.05,258.76Z"/><path class="cls-6" d="M156.42,252.68l2.69,32.81A129.06,129.06,0,0,0,166,317.81l17,48.45,49.88-13.37-19.31-54.42a129.11,129.11,0,0,1-5.31-19.8l-5.92-32.09a23.2,23.2,0,0,0-27-18.6c-.61.12-1.21.25-1.8.41h0A23.19,23.19,0,0,0,156.42,252.68Z"/><path class="cls-10" d="M195,252.65c.08,1.61-6.74,6.92-15.43,7.38-9.3.5-14.08-2-14.62-4.57-.3-1.45-1.69-13.69-2.36-20.53,2.81-4.91,7.79-7.58,13.69-8.47h0c6.28-1,12.16.44,16.31,4.73C193.29,238,194.9,251.64,195,252.65Z"/><path class="cls-12" d="M369,183.71a43.21,43.21,0,0,0-29.65-14L273,292.06l3.61,3.09c5.55,4.73,11.84,10.1,18.37,15.81a9.45,9.45,0,0,0,12.47,0c6.53-5.72,12.82-11.09,18.37-15.83,16.25-13.86,30.28-25.83,40-37.62,10.92-13.19,16-25.69,16-39.35C381.83,204.91,377.29,192.67,369,183.71Z"/></g></svg>