<svg id="Contenido" xmlns="http://www.w3.org/2000/svg" xmlns:xlink="http://www.w3.org/1999/xlink" viewBox="0 0 600 600"><defs><style>.cls-1{fill:url(#Degradado_sin_nombre_2);}.cls-2{fill:#92c9f0;}.cls-3{fill:#f8cd50;}.cls-4{fill:url(#Degradado_sin_nombre_20);}.cls-5{fill:#d4edfc;}.cls-6{opacity:0.76;fill:url(#Degradado_sin_nombre_14);}.cls-7{opacity:0.68;fill:url(#Degradado_sin_nombre_15);}</style><linearGradient id="Degradado_sin_nombre_2" x1="159.02" y1="16.66" x2="414.85" y2="497.82" gradientUnits="userSpaceOnUse"><stop offset="0" stop-color="#192647" stop-opacity="0.5"/><stop offset="1" stop-color="#192647" stop-opacity="0"/></linearGradient><linearGradient id="Degradado_sin_nombre_20" x1="446.98" y1="131.14" x2="472.74" y2="156.9" gradientUnits="userSpaceOnUse"><stop offset="0.01" stop-color="#fff" stop-opacity="0.5"/><stop offset="1" stop-color="#fff" stop-opacity="0.1"/></linearGradient><linearGradient id="Degradado_sin_nombre_14" x1="464.03" y1="237.72" x2="247.23" y2="237.72" gradientUnits="userSpaceOnUse"><stop offset="0" stop-color="#043263" stop-opacity="0.2"/><stop offset="1" stop-color="#043263" stop-opacity="0"/></linearGradient><linearGradient id="Degradado_sin_nombre_15" x1="386.2" y1="238.8" x2="188.81" y2="238.8" gradientUnits="userSpaceOnUse"><stop offset="0" stop-color="#043263" stop-opacity="0.2"/><stop offset="1" stop-color="#043263" stop-opacity="0"/></linearGradient></defs><title>paz</title><path class="cls-1" d="M540.1,206.17l-41.33-34.53c-.06-.26-.11-.51-.17-.77-.15-.72-.31-1.43-.49-2.14-.06-.23-.11-.47-.17-.7-.23-.89-.48-1.77-.75-2.65-.09-.29-.19-.58-.28-.87-.2-.62-.41-1.23-.62-1.84-.12-.33-.24-.66-.37-1-.24-.66-.5-1.31-.77-2-.13-.33-.27-.66-.41-1-.3-.68-.6-1.36-.92-2-.17-.37-.35-.73-.53-1.09s-.47-.93-.72-1.39-.39-.75-.59-1.12c-.31-.56-.63-1.1-1-1.65s-.65-1.07-1-1.6c-.24-.38-.48-.76-.73-1.14l-.84-1.23c-.22-.32-.45-.64-.68-.95q-1.62-2.26-3.43-4.36c-.18-.22-.37-.44-.56-.65-.39-.45-.79-.89-1.2-1.33l-.43-.45q-2.1-2.2-4.39-4.21l-.39-.34a63.27,63.27,0,0,0-5.18-4h0c-.6-.42-1.2-.83-1.82-1.22l-.19-.13a65,65,0,0,0-5.74-3.29l-.13-.07c-.67-.34-1.34-.66-2-1h0a64.93,64.93,0,0,0-84.45,28.38L370,168.6a79.61,79.61,0,0,0-28.1-5.1H195.05a19.79,19.79,0,0,0-18.86,25.92q1.53,4.62,3.25,9.12H160.8a24.12,24.12,0,0,0-23.11,31.18c19.17,61.55,56.79,111.4,104.26,138.74l.1.06c.92.53,1.85,1.05,2.78,1.56l.3.17c.91.5,1.83,1,2.75,1.48l.24.13q5.41,2.85,11,5.31l-63.6,119.6h0l-29,54.52A7.79,7.79,0,0,0,174,562.72c22.72-1.72,67.44-1.46,98,22.12A7.79,7.79,0,0,0,284.43,580l20.06-121.5,3.39-.57c4.58-.75,9.36-1.52,14.38-2.3l11.67-1.77c88.1-13.13,156.7-70.16,156.7-156.7a156.2,156.2,0,0,0-13.35-63.38,64.43,64.43,0,0,0,8.65-9L498.25,222l40.21-9A3.89,3.89,0,0,0,540.1,206.17Z"/><path class="cls-2" d="M305.91,107.34H159a19.78,19.78,0,0,0-18.85,25.92c26,78.37,90.39,133.85,165.72,133.85a79.89,79.89,0,1,0,0-159.77Z"/><path class="cls-3" d="M462.69,115.42,504.09,150a3.89,3.89,0,0,1-1.64,6.79l-52.63,11.82Z"/><polygon class="cls-4" points="462.69 115.42 449.82 168.62 464.27 165.37 482.18 131.7 462.69 115.42"/><path class="cls-5" d="M464,128.26A64.91,64.91,0,0,0,341.86,97.7L159.52,440.61l109-38.31c8.94-1.51,18.7-3,29.44-4.64C386,384.53,454.63,327.5,454.63,241a156.11,156.11,0,0,0-13.35-63.37A64.77,64.77,0,0,0,464,128.26Z"/><path class="cls-2" d="M130.52,495.13A7.79,7.79,0,0,0,138,506.56c22.73-1.72,67.44-1.46,98,22.12a7.8,7.8,0,0,0,12.47-4.88l20.06-121.5c-64.41,10.82-85.35,19.85-109,38.31Z"/><path class="cls-6" d="M464,128.26A64.9,64.9,0,0,0,426.3,69.32L247.23,406.11c7.42-1.43,14.54-2.71,21.26-3.81,8.94-1.51,18.7-3,29.44-4.64C386,384.53,454.63,327.5,454.63,241a156.11,156.11,0,0,0-13.35-63.37A64.77,64.77,0,0,0,464,128.26Z"/><path class="cls-5" d="M289.78,142.38h-165a24.12,24.12,0,0,0-23.11,31.18c29.48,94.65,102.57,161.66,188.09,161.66a96.42,96.42,0,1,0,0-192.84Z"/><path class="cls-7" d="M289.78,142.38H273.23L188.81,301.15c29.71,21.66,64.19,34.07,101,34.07a96.42,96.42,0,1,0,0-192.84Z"/></svg>