<svg id="Capa_1" data-name="Capa 1" xmlns="http://www.w3.org/2000/svg" xmlns:xlink="http://www.w3.org/1999/xlink" viewBox="0 0 600 600"><defs><style>.cls-1{fill:url(#Degradado_sin_nombre_3);}.cls-2{fill:#cdeefe;}.cls-3{fill:url(#Degradado_sin_nombre_2);}.cls-4{fill:#4aa3e3;opacity:0.35;isolation:isolate;}.cls-5{fill:#1973b8;}.cls-6{fill:#2dcccd;}.cls-7,.cls-9{fill:#fff;}.cls-7{fill-rule:evenodd;}.cls-8{fill:#c49735;}.cls-10{fill:#f8cd50;}</style><linearGradient id="Degradado_sin_nombre_3" x1="197.08" y1="124.28" x2="419.66" y2="542.9" gradientUnits="userSpaceOnUse"><stop offset="0" stop-color="#192647"/><stop offset="0" stop-color="#192647" stop-opacity="0.5"/><stop offset="1" stop-color="#192647" stop-opacity="0"/></linearGradient><linearGradient id="Degradado_sin_nombre_2" x1="411.9" y1="-1514.28" x2="207.86" y2="-1514.28" gradientTransform="matrix(1, 0, 0, -1, 0, -1208)" gradientUnits="userSpaceOnUse"><stop offset="0" stop-color="#003267" stop-opacity="0.1"/><stop offset="1" stop-color="#003267" stop-opacity="0"/></linearGradient></defs><title>UFE_Empresas</title><path class="cls-1" d="M455.28,418.73V245.32l-44-44h0l0,0-40.2-40.11H202.59a2.6,2.6,0,0,0-2.6,2.61V493.69a2.6,2.6,0,0,0,2.6,2.6H379.33a56,56,0,1,0,75.95-77.56ZM387.36,245.32h0L251.6,495.63Z"/><path class="cls-2" d="M327.67,118.63H159.2a2.61,2.61,0,0,0-2.6,2.61V451.17a2.6,2.6,0,0,0,2.6,2.6h48.66l160-295Z"/><path class="cls-2" d="M207.86,453.77H409.29a2.6,2.6,0,0,0,2.61-2.6V202.8l-44-44Z"/><path class="cls-3" d="M207.86,453.77H409.29a2.6,2.6,0,0,0,2.61-2.6V202.8l-44-44Z"/><path class="cls-4" d="M368.21,259.74H200.88a5,5,0,1,1,0-9.91H368.21a5,5,0,0,1,0,9.91Z"/><path class="cls-4" d="M368.21,290.29H200.88a5,5,0,0,1,0-9.91H368.21a5,5,0,0,1,0,9.91Z"/><path class="cls-4" d="M368.21,320.82H200.88a5,5,0,0,1,0-9.91H368.21a5,5,0,0,1,0,9.91Z"/><path class="cls-4" d="M368.21,381.9H200.88a4.95,4.95,0,1,1,0-9.9H368.21a5,5,0,1,1,0,9.9Z"/><path class="cls-4" d="M368.21,412.44H274.09a5,5,0,0,1,0-9.91h94.12a5,5,0,0,1,0,9.91Z"/><path class="cls-5" d="M330.86,202.8h81l-84.23-84.17v81a3.12,3.12,0,0,0,3.12,3.13Z"/><path class="cls-6" d="M439.61,424.51a56,56,0,1,1-56-56h0a56,56,0,0,1,56,56"/><polygon class="cls-7" points="387.63 442.6 403.82 426.36 409.89 432.42 383.4 458.82 357.11 432.62 363.18 426.55 379.08 442.48 379.09 389.97 387.63 398.24 387.63 442.6"/><polygon class="cls-8" points="235.61 222 222.08 209.95 208.55 222 208.55 168.5 235.61 168.62 235.61 222"/><circle class="cls-9" cx="222.08" cy="176.98" r="27.18"/><circle class="cls-10" cx="222.08" cy="176.98" r="18.08"/></svg>