<?xml version="1.0" encoding="utf-8"?>
<!-- Generator: Adobe Illustrator 25.2.3, SVG Export Plug-In . SVG Version: 6.00 Build 0)  -->
<svg version="1.1" id="Contenido" xmlns="http://www.w3.org/2000/svg" xmlns:xlink="http://www.w3.org/1999/xlink" x="0px" y="0px"
	 viewBox="0 0 600 600" style="enable-background:new 0 0 600 600;" xml:space="preserve">
<style type="text/css">
	.st0{fill:none;}
	.st1{fill:url(#SVGID_1_);}
	.st2{fill:#043263;}
	.st3{fill:#49A5E6;}
	.st4{opacity:0.5;fill:url(#SVGID_2_);enable-background:new    ;}
	.st5{fill:#FFFFFF;}
	.st6{fill:#2DCCCD;}
</style>
<rect x="-0.1" class="st0" width="600" height="600"/>
<linearGradient id="SVGID_1_" gradientUnits="userSpaceOnUse" x1="222.2418" y1="873.1909" x2="484.5817" y2="379.791" gradientTransform="matrix(1 0 0 -1 0 944)">
	<stop  offset="0" style="stop-color:#232A48;stop-opacity:0.5"/>
	<stop  offset="1" style="stop-color:#232A48;stop-opacity:0"/>
</linearGradient>
<path class="st1" d="M467.9,235.8c31.9-16.6,44.3-55.9,27.7-87.8c-16.6-31.9-55.9-44.3-87.8-27.7c-11.3,5.9-20.7,15-26.9,26.1H260.9
	c-12.7,0-23,10.3-23,23v29.2l0,0v303.6l0,0v29.2c0,12.7,10.3,23,23,23h184c12.7,0,23-10.3,23-23V235.8z"/>
<path class="st2" d="M207.6,98.1h184.9c12.2,0,22.1,9.9,22.1,22.2c0,0,0,0,0,0l0,0v362c0,12.2-9.9,22.1-22.1,22.1H207.6
	c-12.2,0-22.1-9.9-22.1-22.1v-362C185.4,108,195.3,98.1,207.6,98.1C207.5,98,207.5,98,207.6,98.1L207.6,98.1L207.6,98.1z"/>
<rect x="185.5" y="149.1" class="st3" width="229.2" height="304.3"/>
<linearGradient id="SVGID_2_" gradientUnits="userSpaceOnUse" x1="210.2932" y1="3807.2769" x2="347.3233" y2="3944.3167" gradientTransform="matrix(1 0 0 1 0 -3596)">
	<stop  offset="0" style="stop-color:#FFFFFF;stop-opacity:0.5"/>
	<stop  offset="1" style="stop-color:#EEF6F7;stop-opacity:0.1"/>
</linearGradient>
<polygon class="st4" points="185.5,149 185.5,452.9 255.3,453.1 414.3,159.3 414.3,148.8 "/>
<path class="st5" d="M331.6,282.6l-12.4,23.6c-0.2,0.4-0.6,0.5-0.9,0.4c0,0-0.1,0-0.1,0l0,0l-0.3-0.3l-12.4-23.6
	c-0.1-0.2-0.3-0.4-0.6-0.4h-6c-0.3,0-0.5,0.2-0.5,0.4v0.1c0,0.1,0,0.2,0.1,0.3l19.6,36.6c0.2,0.3,0.6,0.5,0.9,0.4l0.1,0l0.3-0.3
	L339,283c0.1-0.2,0-0.5-0.2-0.7c-0.1,0-0.1,0-0.2-0.1h-6C332,282.2,331.7,282.4,331.6,282.6"/>
<path class="st5" d="M338.7,314.1l12.4-23.6c0.2-0.3,0.6-0.5,1-0.3h0l0.3,0.3l12.4,23.6c0.1,0.2,0.4,0.4,0.6,0.4h6
	c0.3,0,0.5-0.3,0.5-0.6c0-0.1,0-0.2-0.1-0.2l-19.6-36.5c-0.2-0.3-0.6-0.5-0.9-0.4l-0.1,0l-0.3,0.3l-19.6,36.6
	c-0.1,0.2,0,0.5,0.2,0.7c0.1,0,0.2,0.1,0.3,0.1h6C338.2,314.6,338.5,314.4,338.7,314.1"/>
<path class="st5" d="M245.8,314.4h-11.2c-0.4,0-0.7-0.3-0.7-0.6c0,0,0,0,0,0l0,0l0,0v-10c0-0.4,0.3-0.7,0.6-0.7c0,0,0,0,0,0h11.2
	c5.3,0,7.7,1.5,7.7,5.8S251.2,314.6,245.8,314.4 M234.6,287.7h11c4.1,0,6.1,1.7,6.1,5s-2.1,5-6.1,5h-11c-0.4,0-0.7-0.3-0.7-0.6
	c0,0,0,0,0,0l0,0l0,0v-8.5C233.9,288.1,234.2,287.8,234.6,287.7L234.6,287.7 M253.9,299.8c2.7-1.5,4.4-4.5,4.2-7.6
	c0-5.9-4.6-9.9-11.1-9.9h-18.6c-0.4,0-0.7,0.3-0.7,0.7c0,0,0,0,0,0v36.4c0,0.4,0.3,0.7,0.7,0.7c0,0,0,0,0,0h17.8
	c8.9,0,13.6-3.8,13.6-11.3C260,304.8,257.6,301.1,253.9,299.8"/>
<path class="st5" d="M284,314.4h-11.2c-0.4,0-0.7-0.3-0.7-0.6c0,0,0,0,0,0l0,0l0,0v-10c0-0.4,0.3-0.7,0.7-0.7c0,0,0,0,0,0H284
	c5.3,0,7.7,1.5,7.7,5.8S289.4,314.6,284,314.4 M272.8,287.7h11c4.1,0,6.1,1.7,6.1,5s-2.1,5-6.1,5h-11c-0.4,0-0.7-0.3-0.7-0.7
	c0,0,0,0,0,0l0,0l0,0v-8.5C272.1,288.1,272.4,287.8,272.8,287.7L272.8,287.7 M292.1,299.8c2.7-1.5,4.4-4.5,4.2-7.6
	c0-5.9-4.6-9.9-11.1-9.9h-18.6c-0.4,0-0.7,0.3-0.7,0.6c0,0,0,0,0,0l0,0l0,0v36.4c0,0.4,0.3,0.7,0.6,0.7c0,0,0,0,0,0h17.8
	c8.9,0,13.6-3.8,13.6-11.3C298.2,304.7,295.8,301.1,292.1,299.8"/>
<path class="st6" d="M449.9,128.8c0,35.7-29,64.7-64.7,64.7s-64.7-29-64.7-64.7s29-64.7,64.7-64.7c0,0,0,0,0,0l0,0
	C420.9,64.1,449.9,93.1,449.9,128.8"/>
<polygon class="st5" points="389.8,149.7 408.5,131 415.6,138 385,168.5 354.6,138.2 361.6,131.2 380,149.6 380,88.9 389.8,98.5 "/>
</svg>
