<svg id="Contenido" xmlns="http://www.w3.org/2000/svg" xmlns:xlink="http://www.w3.org/1999/xlink" viewBox="0 0 600 600"><defs><style>.cls-1{fill:url(#Degradado_sin_nombre);}.cls-2{fill:#043263;}.cls-3{fill:url(#Degradado_sin_nombre_5);}.cls-4{fill:#f8cd51;}.cls-5{fill:url(#Degradado_sin_nombre_3);}.cls-6{fill:#fef5dc;}.cls-7{fill:#2dcccd;}.cls-8{fill:none;}</style><linearGradient id="Degradado_sin_nombre" x1="250.7" y1="667.61" x2="445.15" y2="1033.31" gradientTransform="translate(0 -478)" gradientUnits="userSpaceOnUse"><stop offset="0" stop-color="#192647" stop-opacity="0.5"/><stop offset="1" stop-color="#192647" stop-opacity="0"/></linearGradient><linearGradient id="Degradado_sin_nombre_5" x1="453.64" y1="-177.66" x2="200.81" y2="-177.66" gradientTransform="matrix(1, 0, 0, -1, 0, 124)" gradientUnits="userSpaceOnUse"><stop offset="0" stop-color="#072146" stop-opacity="0.8"/><stop offset="1" stop-color="#072146" stop-opacity="0"/></linearGradient><linearGradient id="Degradado_sin_nombre_3" x1="371.73" y1="239.14" x2="425.56" y2="210.53" gradientTransform="matrix(1, 0, 0, -1, 0, 626)" gradientUnits="userSpaceOnUse"><stop offset="0" stop-color="#fade8e"/><stop offset="1" stop-color="#fade8e" stop-opacity="0.4"/></linearGradient></defs><path class="cls-1" d="M492.2,402.68a172,172,0,1,0-76.29,88.64,65,65,0,1,0,76.29-88.64Z"/><circle class="cls-2" cx="281.42" cy="291.48" r="172"/><path class="cls-3" d="M362.33,139.67,200.81,443.48A172,172,0,1,0,362.33,139.67Z"/><path class="cls-4" d="M490.57,415.48a65,65,0,1,1-65-65h0a65,65,0,0,1,65,65h0"/><path class="cls-5" d="M456.16,358.19a64.94,64.94,0,0,0-61,114.67Z"/><path class="cls-6" d="M402.85,413.08H394v-6.6h9.64c2.68-15,12-21.88,22.87-21.88,11.44,0,17.51,5.85,20.49,13.23l-8.45,4.77c-2.09-6.27-5.77-9.25-12-9.25-6.66,0-11.43,4.28-13.12,13.13h15v6.66H412.69v2.09c0,1.2,0,2.39.1,3.48H428.5v6.77H413.58c1.71,8.25,5.87,12.53,13.14,12.53,6.26,0,10-2.79,12.33-9.75l8.25,5c-3.38,7.68-10.33,13.22-20.69,13.22-11.19,0-20.09-6.63-22.86-21H394v-6.77h9c-.1-1.09-.1-2.19-.1-3.28v-2.35Z"/><polygon class="cls-7" points="238.24 302.25 303.06 302.25 324.67 280.64 259.85 280.64 238.24 302.25"/><path class="cls-7" d="M216.63,291.44A32.37,32.37,0,0,1,248.93,259h39.69l21.61-21.61H249a54,54,0,0,0-15.7,105.74l19.3-19.3H249A32.43,32.43,0,0,1,216.63,291.44Z"/><path class="cls-7" d="M334.83,241.67l-17.58,17.58a32.43,32.43,0,0,1-3.45,64.68H281.38l-21.6,21.61h54a54.08,54.08,0,0,0,21-103.87Z"/><rect class="cls-8" width="600" height="600"/></svg>