<?xml version="1.0" encoding="utf-8"?>
<!-- Generator: Adobe Illustrator 25.0.0, SVG Export Plug-In . SVG Version: 6.00 Build 0)  -->
<svg version="1.1" id="Contenido" xmlns="http://www.w3.org/2000/svg" xmlns:xlink="http://www.w3.org/1999/xlink" x="0px" y="0px"
	 viewBox="0 0 600 600" style="enable-background:new 0 0 600 600;" xml:space="preserve">
<style type="text/css">
	.st0{fill:url(#SVGID_1_);}
	.st1{fill:#1464A5;}
	.st2{fill:url(#SVGID_2_);}
	.st3{fill:#F8CD51;}
	.st4{fill:url(#SVGID_3_);}
	.st5{fill:#2DCCCD;}
	.st6{fill:none;}
	.st7{fill:#FEF5DC;}
</style>
<linearGradient id="SVGID_1_" gradientUnits="userSpaceOnUse" x1="250.7874" y1="909.6877" x2="445.221" y2="1275.3569" gradientTransform="matrix(1 0 0 1 0 -720)">
	<stop  offset="0" style="stop-color:#192647;stop-opacity:0.5"/>
	<stop  offset="1" style="stop-color:#192647;stop-opacity:0"/>
</linearGradient>
<path class="st0" d="M492.2,402.7c33.8-88.8-10.8-188.1-99.5-221.9s-188.1,10.8-221.9,99.5s10.8,188.1,99.5,221.9
	c47.8,18.2,101.1,14.2,145.7-10.9c14.3,32.9,52.5,48.1,85.5,33.9c32.9-14.3,48.1-52.5,33.9-85.5
	C527.3,421.4,511.5,407.8,492.2,402.7z"/>
<circle class="st1" cx="281.4" cy="291.5" r="172"/>
<linearGradient id="SVGID_2_" gradientUnits="userSpaceOnUse" x1="453.6554" y1="-419.6791" x2="200.8" y2="-419.6791" gradientTransform="matrix(1 0 0 -1 0 -118)">
	<stop  offset="0" style="stop-color:#043263;stop-opacity:0.6"/>
	<stop  offset="1" style="stop-color:#043263;stop-opacity:0"/>
</linearGradient>
<path class="st2" d="M362.3,139.7L200.8,443.5c83.9,44.6,188.1,12.7,232.7-71.1S446.2,184.3,362.3,139.7z"/>
<path class="st3" d="M490.6,415.5c0,35.9-29.1,65-65,65s-65-29.1-65-65s29.1-65,65-65l0,0C461.5,350.5,490.6,379.6,490.6,415.5
	L490.6,415.5L490.6,415.5"/>
<linearGradient id="SVGID_3_" gradientUnits="userSpaceOnUse" x1="371.7484" y1="-2.8254" x2="425.5784" y2="-31.4353" gradientTransform="matrix(1 0 0 -1 0 384)">
	<stop  offset="0" style="stop-color:#FADE8E"/>
	<stop  offset="1" style="stop-color:#FADE8E;stop-opacity:0.4"/>
</linearGradient>
<path class="st4" d="M456.2,358.2c-31.7-16.8-71-4.8-87.8,26.8s-4.8,71,26.8,87.8L456.2,358.2z"/>
<polygon class="st5" points="238.2,302.2 303.1,302.2 324.7,280.6 259.9,280.6 "/>
<path class="st5" d="M216.6,291.4c0-17.9,14.4-32.4,32.3-32.4l0,0h39.7l21.6-21.6H249c-29.8-0.1-54.1,23.9-54.2,53.8
	c-0.1,24,15.6,45.1,38.5,52l19.3-19.3H249C231.1,323.8,216.7,309.3,216.6,291.4z"/>
<path class="st5" d="M334.8,241.7l-17.6,17.6c17.8,1.9,30.7,17.9,28.8,35.7c-1.7,16.5-15.7,29-32.3,29h-32.4l-21.6,21.6h54
	c29.9-0.1,54-24.3,54-54.2C367.7,269.7,354.7,250.1,334.8,241.7L334.8,241.7z"/>
<rect y="0" class="st6" width="600" height="600"/>
<path class="st7" d="M433.3,428.4c0-4.2-1.7-6-9.7-9.6c-11.6-5.3-15.1-9.3-15.1-17.4s6.5-13.8,13.1-15.5v-9.8h0.4l9.5,4.2v5.4
	c3,0.4,5.9,1.4,8.5,3l0.5,0.3l0.3,0.2l-0.1,0.4l-0.1,0.6l-1.2,7.5l-0.2,1.4l-0.1,0.9l-0.8-0.6l-1.1-0.9c-3.1-2.4-6.8-3.7-10.8-3.8
	c-5,0-7.7,2.3-7.7,6c0,3.5,1.8,5.2,9.7,8.8c11.7,5.3,15.4,9.5,15.4,18.3c-0.1,7.5-5.1,14-12.2,16.1v11.4h-0.8l-9.1-5.1v-5.6
	c-3.3-0.4-9.2-1.6-13-3.6l-0.6-0.3l-0.4-0.2v-0.4l0.1-0.6l1.1-7.7l0.2-1.3l0.1-0.9l0.7,0.5l1.1,0.7c4,2.8,8.8,4.4,13.7,4.6
	c5.2,0,8.4-2.7,8.4-7"/>
</svg>
