<svg id="Capa_1" data-name="Capa 1" xmlns="http://www.w3.org/2000/svg" xmlns:xlink="http://www.w3.org/1999/xlink" viewBox="0 0 600 600"><defs><style>.cls-1,.cls-6,.cls-7{fill:none;}.cls-2{fill:#00d0cf;}.cls-3{fill:url(#Degradado_sin_nombre_42);}.cls-4{fill:#003267;}.cls-5{clip-path:url(#clip-path);}.cls-6,.cls-7{stroke:#072146;stroke-miterlimit:10;}.cls-6{stroke-width:9.95px;}.cls-7{stroke-width:13.2px;}.cls-8{fill:#00a7ec;}.cls-9{fill:#004481;}.cls-10{fill:#1564a3;}.cls-11{clip-path:url(#clip-path-2);}.cls-12{fill:#cdeefe;}</style><linearGradient id="Degradado_sin_nombre_42" x1="220.32" y1="138.06" x2="439.97" y2="551.17" gradientUnits="userSpaceOnUse"><stop offset="0" stop-color="#072146" stop-opacity="0.5"/><stop offset="1" stop-color="#072146" stop-opacity="0"/></linearGradient><clipPath id="clip-path"><circle class="cls-1" cx="277.18" cy="291.49" r="200"/></clipPath><clipPath id="clip-path-2"><path class="cls-2" d="M483.87,458.37a126.72,126.72,0,0,0,13.25-51.94l-28-10.89a97.19,97.19,0,0,0-2.1-14.79l23.78-18.6a126.89,126.89,0,0,0-28-47.13l-27.58,12.06a96.34,96.34,0,0,0-11.6-8.66l3.66-29.89a128.16,128.16,0,0,0-54-13.41l-9.95,28.07a88.44,88.44,0,0,0-15.94,2.52l-19.42-23.28a127.17,127.17,0,0,0-44.68,27.32l12.28,27.38a106.94,106.94,0,0,0-9.64,13.1l-29.79-3.37a125.51,125.51,0,0,0-8.78,24.42,131,131,0,0,0-3.74,28.13l28.2,10.5A90,90,0,0,0,274,424.12l-23.53,19a126.09,126.09,0,0,0,28.23,46.31l27.84-12a107.48,107.48,0,0,0,11,8l-3.89,29.75a128.38,128.38,0,0,0,52.86,13.39l11.8-28.14a100.87,100.87,0,0,0,13.84-2.17l17.78,23.93a127.82,127.82,0,0,0,46.53-27.39L443.86,468a98.35,98.35,0,0,0,9.58-12.5Z"/></clipPath></defs><path class="cls-3" d="M490.55,478.65l30.37,2.91a126.72,126.72,0,0,0,13.25-51.94l-28-10.89a97.37,97.37,0,0,0-2.1-14.79l23.78-18.6a127.2,127.2,0,0,0-17-33.68A200.26,200.26,0,0,0,429,150.88c-.09-.4-.2-.79-.29-1.19a14.44,14.44,0,0,1-4.28-.62c-5.94-1.85-11.83-3.85-17.7-5.91a15.64,15.64,0,0,1-2.15-.76c-7.36-2.61-14.69-5.31-22.05-7.94-1.49-.26-3-.51-4.48-.74l-2.31-.33-2.48-.33c-3.2-.42-6.41-.83-9.61-1.33A112.88,112.88,0,0,1,350,128.78a16.89,16.89,0,0,1-11.9-12.67,200.12,200.12,0,0,0-136,32.9c-.82.55-1.63,1.12-2.44,1.69a199.86,199.86,0,0,0-85.49,164c0,110.45,89.55,200,200,200a201.2,201.2,0,0,0,40.08-4l-3.62,27.7a128.43,128.43,0,0,0,52.87,13.39l0-.07,11.77-28.07h.09a99.81,99.81,0,0,0,13.75-2.16L447,545.37A127.72,127.72,0,0,0,493.5,518l-12.59-26.84a98.35,98.35,0,0,0,9.58-12.5Z"/><circle class="cls-4" cx="277.18" cy="291.49" r="200"/><g class="cls-5"><path class="cls-6" d="M323.44,203.11,214.7,276.93a44.87,44.87,0,0,1-63.44-13.66h0a44.86,44.86,0,0,1,16.61-62.75L283,137.15a38.71,38.71,0,0,1,51.73,13.76h0A38.72,38.72,0,0,1,323.44,203.11Z"/><path class="cls-7" d="M254.88,248.27,398.3,345.58A59.16,59.16,0,0,1,412.44,430h0a59.16,59.16,0,0,1-85,10.2L193.72,329.92a51.07,51.07,0,0,1-8.32-70.1h0A51.07,51.07,0,0,1,254.88,248.27Z"/><path class="cls-8" d="M289,273.76a113.61,113.61,0,0,0,4.15-48.42l-26.64-5.58a91.56,91.56,0,0,0-4.07-12.92L281,186.72a117.73,117.73,0,0,0-32-38.15L226.06,163.5a91.7,91.7,0,0,0-11.66-6l-1.17-27.28a114.89,114.89,0,0,0-25-4.8,113,113,0,0,0-25.35.68l-4.75,26.61a87.06,87.06,0,0,0-13.91,4.55l-20.78-18a112,112,0,0,0-35.92,31L102.64,193A85.51,85.51,0,0,0,96,206.13l-27.18,1.41a114.24,114.24,0,0,0-4.38,23.25,110,110,0,0,0,.87,25.72l26.8,5.24a90.75,90.75,0,0,0,4.12,12.45L77.85,294.47A116.34,116.34,0,0,0,110,331.8L133.14,317a81.16,81.16,0,0,0,11,5.59l.94,27.25A116,116,0,0,0,194.44,354l6.43-26.89A105.13,105.13,0,0,0,213,323.16L232.45,342a115.37,115.37,0,0,0,37.61-31.39L254.8,288.49a92.86,92.86,0,0,0,6.71-12.65Z"/><circle class="cls-9" cx="179.09" cy="240.02" r="41.86"/></g><path class="cls-10" d="M483.87,458.37a126.72,126.72,0,0,0,13.25-51.94l-28-10.89a97.19,97.19,0,0,0-2.1-14.79l23.78-18.6a126.89,126.89,0,0,0-28-47.13l-27.58,12.06a96.34,96.34,0,0,0-11.6-8.66l3.66-29.89a128.16,128.16,0,0,0-54-13.41l-9.95,28.07a88.44,88.44,0,0,0-15.94,2.52l-19.42-23.28a127.17,127.17,0,0,0-44.68,27.32l12.28,27.38a106.94,106.94,0,0,0-9.64,13.1l-29.79-3.37a125.51,125.51,0,0,0-8.78,24.42,131,131,0,0,0-3.74,28.13l28.2,10.5A90,90,0,0,0,274,424.12l-23.53,19a126.09,126.09,0,0,0,28.23,46.31l27.84-12a107.48,107.48,0,0,0,11,8l-3.89,29.75a128.38,128.38,0,0,0,52.86,13.39l11.8-28.14a100.87,100.87,0,0,0,13.84-2.17l17.78,23.93a127.82,127.82,0,0,0,46.53-27.39L443.86,468a98.35,98.35,0,0,0,9.58-12.5Z"/><path class="cls-2" d="M483.87,458.37a126.72,126.72,0,0,0,13.25-51.94l-28-10.89a97.19,97.19,0,0,0-2.1-14.79l23.78-18.6a126.89,126.89,0,0,0-28-47.13l-27.58,12.06a96.34,96.34,0,0,0-11.6-8.66l3.66-29.89a128.16,128.16,0,0,0-54-13.41l-9.95,28.07a88.44,88.44,0,0,0-15.94,2.52l-19.42-23.28a127.17,127.17,0,0,0-44.68,27.32l12.28,27.38a106.94,106.94,0,0,0-9.64,13.1l-29.79-3.37a125.51,125.51,0,0,0-8.78,24.42,131,131,0,0,0-3.74,28.13l28.2,10.5A90,90,0,0,0,274,424.12l-23.53,19a126.09,126.09,0,0,0,28.23,46.31l27.84-12a107.48,107.48,0,0,0,11,8l-3.89,29.75a128.38,128.38,0,0,0,52.86,13.39l11.8-28.14a100.87,100.87,0,0,0,13.84-2.17l17.78,23.93a127.82,127.82,0,0,0,46.53-27.39L443.86,468a98.35,98.35,0,0,0,9.58-12.5Z"/><g class="cls-11"><path class="cls-1" d="M435.17,327.08a96.34,96.34,0,0,0-11.6-8.66l3.66-29.89a128.16,128.16,0,0,0-54-13.41l-9.95,28.07a88.44,88.44,0,0,0-15.94,2.52l-19.42-23.28a127.17,127.17,0,0,0-44.68,27.32l12.28,27.38a106.94,106.94,0,0,0-9.64,13.1l-29.79-3.37a125.51,125.51,0,0,0-8.78,24.42,131,131,0,0,0-3.74,28.13l28.2,10.5A90,90,0,0,0,274,424.12l-23.53,19a126.09,126.09,0,0,0,28.23,46.31l21.17-9.1L439.2,325.28Z"/><path class="cls-1" d="M317.61,485.44l-3.89,29.75a127,127,0,0,0,52.89,13.3l11.8-28.13a101.35,101.35,0,0,0,13.84-2.17L410,522.12a127.74,127.74,0,0,0,46.53-27.39L444,467.89a98.35,98.35,0,0,0,9.58-12.5l30.33,3a126.72,126.72,0,0,0,13.25-51.94l-28-10.89a97.19,97.19,0,0,0-2.1-14.79l23.78-18.6a126.89,126.89,0,0,0-28-47.13l-23.57,10.34-139.29,155,6.75-2.88A94.82,94.82,0,0,0,317.61,485.44Z"/></g><circle class="cls-9" cx="370.39" cy="401.84" r="38.84"/><path class="cls-12" d="M393.06,149.77a57.19,57.19,0,0,0,.35-12.93,67.49,67.49,0,0,0-2.18-12.06l-14-.67a43.32,43.32,0,0,0-3.13-6.24l7.78-11.81A60.58,60.58,0,0,0,362.47,89.3L352,98.78a43.83,43.83,0,0,0-6.37-2.15l-2.76-13.76a51.93,51.93,0,0,0-13.05-.35A56.79,56.79,0,0,0,317,85l-.19,13.9a38.77,38.77,0,0,0-6.71,3.52l-12-7.4a60.06,60.06,0,0,0-15.8,18.83l9.47,10.36a48.92,48.92,0,0,0-2.35,7.24l-13.75,2.88A58,58,0,0,0,278,159.4l14,.42a39.77,39.77,0,0,0,3.12,6l-7.54,11.92A59.13,59.13,0,0,0,306.94,194l10.61-9.49a56.24,56.24,0,0,0,6,1.93l2.76,13.75a57.38,57.38,0,0,0,13,.35,62.52,62.52,0,0,0,12.43-2.32l1-14.18a55,55,0,0,0,5.88-3L370.13,189a60,60,0,0,0,16.53-19l-9.58-10a47.66,47.66,0,0,0,2.37-7Z"/><circle class="cls-9" cx="334.4" cy="141.52" r="19.69"/></svg>