<svg id="Contenido" xmlns="http://www.w3.org/2000/svg" xmlns:xlink="http://www.w3.org/1999/xlink" viewBox="0 0 600 600"><defs><style>.cls-1{fill:url(#Degradado_sin_nombre_74);}.cls-2{fill:#d4edfc;}.cls-3{fill:#072146;}.cls-4{fill:#004481;}.cls-5{fill:#2dcccd;}.cls-6{fill:url(#Degradado_sin_nombre_61);}.cls-7{fill:#1464a5;}.cls-8{fill:url(#Degradado_sin_nombre_79);}.cls-9{fill:none;}</style><linearGradient id="Degradado_sin_nombre_74" x1="229.91" y1="179.21" x2="462.65" y2="616.92" gradientUnits="userSpaceOnUse"><stop offset="0" stop-color="#082146" stop-opacity="0.5"/><stop offset="1" stop-color="#082146" stop-opacity="0"/></linearGradient><linearGradient id="Degradado_sin_nombre_61" x1="258.88" y1="172.7" x2="433.61" y2="172.7" gradientUnits="userSpaceOnUse"><stop offset="0" stop-color="#028484" stop-opacity="0.2"/><stop offset="1" stop-color="#028484" stop-opacity="0.9"/></linearGradient><linearGradient id="Degradado_sin_nombre_79" x1="106.73" y1="320.49" x2="480.74" y2="320.49" gradientUnits="userSpaceOnUse"><stop offset="0" stop-color="#d4edfc" stop-opacity="0"/><stop offset="1" stop-color="#d4edfc" stop-opacity="0.4"/></linearGradient></defs><path class="cls-1" d="M533.84,325.82,526,245.59a62.35,62.35,0,0,0-11.31-30.15l-4.9-6.85c-.6-.84-1.22-1.67-1.85-2.5l-.58-.75L506,203.6l-.65-.78c-.5-.61-1-1.22-1.52-1.81l-.49-.57c-.69-.79-1.4-1.57-2.11-2.34l-.22-.23c-.64-.69-1.29-1.37-2-2l-.57-.57c-.58-.58-1.16-1.15-1.75-1.71l-.54-.52c-.74-.69-1.49-1.38-2.25-2.06l0,0c-.83-.74-1.67-1.46-2.52-2.17l-.14-.11c-.78-.65-1.56-1.28-2.35-1.9l-.39-.31c-.78-.6-1.56-1.19-2.35-1.77l-.21-.15q-4-2.94-8.29-5.5l-.17-.1A107,107,0,0,0,438.94,165l-15.21-2.34a156.09,156.09,0,0,0-23.66-1.8H370.86a24.8,24.8,0,1,0-40.75-24.66A5.11,5.11,0,0,0,340,139a14.59,14.59,0,1,1,14.12,18.27,5.09,5.09,0,0,0-4.87,3.66H308.09a156.28,156.28,0,0,0-23.66,1.8L269.22,165a107.65,107.65,0,0,0-70.83,43.55l-4.89,6.85a62.33,62.33,0,0,0-11.32,30.15l-7.86,80.23c-3.08,31.48-4.65,63.49-4.65,95.13v138.2a29.08,29.08,0,0,0,29.05,29.05H509.44a29.08,29.08,0,0,0,29.05-29.05V421C538.49,389.31,536.93,357.3,533.84,325.82Z"/><path class="cls-2" d="M476.09,269.2,468.23,189a62.35,62.35,0,0,0-11.31-30.15L452,152a107.66,107.66,0,0,0-70.82-43.56L366,106.09a156.1,156.1,0,0,0-23.66-1.81h-92a156.3,156.3,0,0,0-23.66,1.81l-15.21,2.33A107.66,107.66,0,0,0,140.64,152l-4.89,6.84A62.37,62.37,0,0,0,124.43,189l-7.86,80.23c-3.08,31.49-4.64,63.49-4.64,95.13V502.54a29.08,29.08,0,0,0,29,29H451.69a29.08,29.08,0,0,0,29.05-29V364.33C480.74,332.69,479.18,300.69,476.09,269.2Z"/><polygon class="cls-3" points="185.13 197.19 241.03 124.72 352 124.72 407.53 226.04 336.95 492.42 279.69 492.42 185.13 197.19"/><path class="cls-4" d="M216.79,494.79h-76a8.6,8.6,0,0,1-8.6-8.61V364.34q0-46.66,4.55-93.14L146,177.05a9.57,9.57,0,0,1,1.22-3.92l69.62-1.95Z"/><path class="cls-5" d="M398.24,159.49a228.44,228.44,0,0,0-92.06-19.24h-4.74V110.32a24.81,24.81,0,1,0-29.08-30.7A5.1,5.1,0,0,0,277.28,86h0a5,5,0,0,0,4.93-3.69,14.59,14.59,0,1,1,14.12,18.28h0a5.11,5.11,0,0,0-5.11,5.11v34.51h-4.74a228.48,228.48,0,0,0-92.06,19.24l-35.36,15.45,14.7,37.79H418.91l14.7-37.79Zm13.68,43H180.75l-8.61-22.13,26.37-11.53a218.54,218.54,0,0,1,88-18.38h19.7a218.51,218.51,0,0,1,88,18.38l26.38,11.53Z"/><path class="cls-6" d="M398.24,159.49a228.44,228.44,0,0,0-92.06-19.24h-4.74v-7.57L292,150.47h14.2a218.51,218.51,0,0,1,88,18.38l26.38,11.53-8.61,22.13H264.31l-5.43,10.22h160l14.7-37.79Z"/><path class="cls-7" d="M293.15,364.73,241,133,151.9,169.05a9.42,9.42,0,0,0-4.73,4.08L181.8,277.9a186.61,186.61,0,0,1,9.42,58.53V504.49a8.6,8.6,0,0,0,8.61,8.6h81a12.26,12.26,0,0,0,12.26-12.26V364.73Z"/><path class="cls-4" d="M200.06,147.08v46.4a8.6,8.6,0,0,0,4.15,7.37l20.84,12.61a4.3,4.3,0,0,1,1,6.5l-14.35,16.58a8.6,8.6,0,0,0-.56,10.55l82,117.64L241,124.72,205.44,139.1A8.6,8.6,0,0,0,200.06,147.08Z"/><path class="cls-4" d="M376.23,494.79h76a8.61,8.61,0,0,0,8.61-8.61V364.34q0-46.66-4.55-93.14l-9.22-94.15a9.57,9.57,0,0,0-1.22-3.92l-69.63-1.95Z"/><path class="cls-7" d="M299.88,364.73,352,133l89.12,36.05a9.41,9.41,0,0,1,4.74,4.08L411.23,277.9a186.61,186.61,0,0,0-9.42,58.53V504.49a8.61,8.61,0,0,1-8.61,8.6H312.15a12.26,12.26,0,0,1-12.27-12.26V364.73Z"/><path class="cls-4" d="M393,147.08v46.4a8.62,8.62,0,0,1-4.15,7.37L368,213.46a4.31,4.31,0,0,0-1,6.5l14.36,16.58a8.61,8.61,0,0,1,.55,10.55l-82,117.64,52.12-240,35.58,14.38A8.6,8.6,0,0,1,393,147.08Z"/><path class="cls-8" d="M476.09,269.2,468.23,189a62.35,62.35,0,0,0-11.31-30.15L452,152c-10.59-14.83-105.78-61.21-125.16-34.39l-220.13,414h345a29.08,29.08,0,0,0,29.05-29V364.33C480.74,332.69,479.18,300.69,476.09,269.2Z"/><rect class="cls-9" width="600" height="600"/></svg>