<?xml version="1.0" encoding="utf-8"?>
<!-- Generator: Adobe Illustrator 25.2.3, SVG Export Plug-In . SVG Version: 6.00 Build 0)  -->
<svg version="1.1" id="Capa_1" xmlns="http://www.w3.org/2000/svg" xmlns:xlink="http://www.w3.org/1999/xlink" x="0px" y="0px"
	 viewBox="0 0 600 600" style="enable-background:new 0 0 600 600;" xml:space="preserve">
<style type="text/css">
	.st0{fill:none;}
	.st1{fill:url(#SVGID_1_);}
	.st2{fill:#043263;}
	.st3{fill:#49A5E6;}
	.st4{opacity:0.5;fill:url(#SVGID_2_);enable-background:new    ;}
	.st5{fill:#08467F;}
	.st6{fill:#D4EDFC;}
	.st7{fill:#004481;}
	.st8{fill-rule:evenodd;clip-rule:evenodd;fill:#2DCCCD;}
</style>
<g id="Capa_37">
	<rect x="0.1" class="st0" width="600" height="600"/>
	<g id="Capa_16">
		
			<linearGradient id="SVGID_1_" gradientUnits="userSpaceOnUse" x1="247.5299" y1="-2207.6355" x2="459.1295" y2="-1809.6862" gradientTransform="matrix(1 0 0 1 0 2359.6201)">
			<stop  offset="0" style="stop-color:#192647;stop-opacity:0.5"/>
			<stop  offset="1" style="stop-color:#192647;stop-opacity:0"/>
		</linearGradient>
		<path class="st1" d="M260.9,147.9h184.9c12.2,0,22.1,9.9,22.1,22.1v362c0,12.2-9.9,22.1-22.1,22.1H260.9
			c-12.2,0-22.1-9.9-22.1-22.1V170C238.8,157.8,248.6,147.8,260.9,147.9L260.9,147.9z"/>
		<path class="st2" d="M207.6,96.8h184.9c12.2,0,22.1,9.9,22.1,22.2v362c0,12.2-9.9,22.1-22.1,22.1H207.6
			c-12.2,0-22.1-9.9-22.1-22.1V119C185.4,106.8,195.3,96.8,207.6,96.8C207.5,96.8,207.5,96.8,207.6,96.8L207.6,96.8L207.6,96.8z"/>
		<rect x="185.4" y="147.9" class="st3" width="229.2" height="304.3"/>
		
			<linearGradient id="SVGID_2_" gradientUnits="userSpaceOnUse" x1="216.01" y1="528.79" x2="370.27" y2="374.53" gradientTransform="matrix(1 0 0 -1 0 744.55)">
			<stop  offset="0" style="stop-color:#FFFFFF;stop-opacity:0.5"/>
			<stop  offset="1" style="stop-color:#ECF7F8;stop-opacity:0.1"/>
		</linearGradient>
		<polygon class="st4" points="185.8,148.1 185.8,452 302.5,452.1 414.5,245.1 414.5,147.9 		"/>
		<circle class="st5" cx="299.9" cy="259.2" r="61.1"/>
		<path class="st6" d="M342.2,351h-84.6c-13.8,0-25,11.2-25,25l0,0l0,0c0,13.8,11.2,25,25,25h84.6c13.8,0,25-11.2,25-25l0,0
			C367.2,362.2,356,351,342.2,351L342.2,351z"/>
		<polygon class="st7" points="277.7,377.8 270.7,377.4 274.7,383.1 271.1,385.3 268,378.9 265,385.3 261.4,383.1 265.4,377.4 
			258.4,377.8 258.4,373.9 265.4,374.4 261.4,368.6 265,366.4 268,372.8 271,366.4 274.7,368.6 270.7,374.4 277.7,373.9 		"/>
		<polygon class="st7" points="308.6,377.8 301.6,377.4 305.6,383.1 302.1,385.3 299,378.9 296,385.3 292.4,383.1 296.4,377.4 
			289.3,377.8 289.3,373.9 296.4,374.4 292.4,368.6 296,366.4 299,372.8 302,366.4 305.6,368.6 301.6,374.4 308.6,373.9 		"/>
		<polygon class="st7" points="339.6,377.8 332.6,377.4 336.6,383.1 333,385.3 330,378.9 326.9,385.3 323.4,383.1 327.3,377.4 
			320.3,377.8 320.3,373.9 327.4,374.4 323.4,368.6 326.9,366.4 330,372.8 333,366.4 336.6,368.6 332.6,374.4 339.6,373.9 		"/>
		<path class="st8" d="M327.4,236.7h-55c-1.4,0-2.5,1.1-2.5,2.5v7.5h25l-5,5h-20v27.5c0,1.4,1.1,2.5,2.5,2.5c0,0,0,0,0,0h55
			c1.4,0,2.5-1.1,2.5-2.5c0,0,0,0,0,0v-40C329.9,237.8,328.8,236.7,327.4,236.7C327.4,236.7,327.4,236.7,327.4,236.7z M312.4,269.2
			c-6.9,0-12.5-5.6-12.5-12.5s5.6-12.5,12.5-12.5s12.5,5.6,12.5,12.5l0,0C324.9,263.6,319.3,269.2,312.4,269.2z M307.4,259.2h7.5
			l5-5h-12.5V259.2z"/>
		<path class="st0" d="M327.4,236.7h-55c-1.4,0-2.5,1.1-2.5,2.5v7.5h25l-5,5h-20v27.5c0,1.4,1.1,2.5,2.5,2.5c0,0,0,0,0,0h55
			c1.4,0,2.5-1.1,2.5-2.5c0,0,0,0,0,0v-40C329.9,237.8,328.8,236.7,327.4,236.7C327.4,236.7,327.4,236.7,327.4,236.7z M312.4,269.2
			c-6.9,0-12.5-5.6-12.5-12.5s5.6-12.5,12.5-12.5s12.5,5.6,12.5,12.5l0,0C324.9,263.6,319.3,269.2,312.4,269.2z M307.4,259.2h7.5
			l5-5h-12.5V259.2z"/>
	</g>
</g>
</svg>
