<svg id="Contenido" xmlns="http://www.w3.org/2000/svg" xmlns:xlink="http://www.w3.org/1999/xlink" viewBox="0 0 600 600"><defs><style>.cls-1{fill:url(#Degradado_sin_nombre_16);}.cls-2{fill:#c49735;}.cls-3{fill:#f8cd50;}.cls-4{fill:#043263;}.cls-5{fill:#1464a5;}.cls-6{fill:url(#Degradado_sin_nombre_37);}.cls-7{fill:#2dcccd;}.cls-8{fill:#004481;}.cls-9{fill:url(#Degradado_sin_nombre_5);}</style><linearGradient id="Degradado_sin_nombre_16" x1="226.29" y1="165.84" x2="433.31" y2="555.21" gradientUnits="userSpaceOnUse"><stop offset="0" stop-color="#1c2645"/><stop offset="0" stop-color="#1c2645" stop-opacity="0.5"/><stop offset="1" stop-color="#1c2645" stop-opacity="0"/></linearGradient><linearGradient id="Degradado_sin_nombre_37" x1="293.5" y1="247.35" x2="138.88" y2="247.35" gradientUnits="userSpaceOnUse"><stop offset="0" stop-color="#043263" stop-opacity="0.6"/><stop offset="1" stop-color="#043263" stop-opacity="0"/></linearGradient><linearGradient id="Degradado_sin_nombre_5" x1="157.64" y1="306.05" x2="276.93" y2="425.35" gradientUnits="userSpaceOnUse"><stop offset="0" stop-color="#fff" stop-opacity="0.6"/><stop offset="1" stop-color="#fff" stop-opacity="0.2"/></linearGradient></defs><title>seguros_colombia</title><path class="cls-1" d="M569.13,341.4h-7v-17a3,3,0,0,0-3-3H445.5a3,3,0,0,0-3,3.12l.7,16.88h-6.47a3,3,0,0,0-3,3.09l.89,30.74a3,3,0,0,1-.89,2.22l-44.51,44a3,3,0,0,0-.85,2.64l-4,4.61a1,1,0,0,1-1.81.74l-12.65-7.64c-.84-1.22-77.47-7.9-76.39-8.91l49.25-86.19-33-90.66,20.47-10.84,1.07-4.83A13.68,13.68,0,0,0,320.88,204L204,178.19a1.78,1.78,0,0,0-1.8.65l-73,94.93A13.68,13.68,0,0,0,131.71,293l3.92,3,22.65-4.86,33,90.66L154.1,395.36a3,3,0,0,0-2,2.82v17.9l-8,2.92-.23.11a3,3,0,0,0-1.74,2.71V481.4h430v-137A3,3,0,0,0,569.13,341.4Z"/><path class="cls-2" d="M509.88,271.62H396.25a3,3,0,0,0-3,3.12l2.16,52-46.56,46,8,46.78-47.66-49.66,43.9-41.24-43.85-55.29a3,3,0,0,0-3.38-1l-201,73.22a3,3,0,0,0-2,2.82v83.22h410v-157A3,3,0,0,0,509.88,271.62Z"/><path class="cls-3" d="M384.49,294.71l.89,30.74a3,3,0,0,1-.89,2.22l-44.51,44a3,3,0,0,0-.85,2.64l4.79,28.1a1,1,0,0,1-1.81.74L320.64,372a3,3,0,0,1,.42-3.89l40-37.58a3,3,0,0,0,.3-4.05l-26.72-33.69a3,3,0,0,0-2.35-1.14H308.41a3,3,0,0,0-1,.18L94.85,369.23a3,3,0,0,0-2,2.82v59.58h430v-137a3,3,0,0,0-3-3H387.49A3,3,0,0,0,384.49,294.71Z"/><path class="cls-4" d="M86.39,246.19l102.21-21.92L281,175.37,162.14,148.8a1.78,1.78,0,0,0-1.8.65Z"/><path class="cls-5" d="M102.93,224.56l57.42-75.11a1.78,1.78,0,0,1,1.78-.65l92.26,20.63L293.5,276.87,142,332Z"/><polygon class="cls-6" points="293.5 276.87 254.39 169.43 224.3 162.7 138.88 323.34 142.03 332 293.5 276.87"/><path class="cls-7" d="M185.82,229.5h37.47a1.78,1.78,0,0,1,1.78,1.78v75.48a0,0,0,0,1,0,0H184a0,0,0,0,1,0,0V231.29A1.78,1.78,0,0,1,185.82,229.5Z" transform="translate(-79.37 86.13) rotate(-20)"/><path class="cls-8" d="M152.92,129.07,80,224a13.68,13.68,0,0,0,2.51,19.18l3.92,3,74-96.74a1.78,1.78,0,0,1,1.8-.65L281,175.37l1.07-4.83a13.68,13.68,0,0,0-10.41-16.31L154.72,128.42A1.78,1.78,0,0,0,152.92,129.07Z"/><path class="cls-9" d="M334.64,292.76a3,3,0,0,0-2.35-1.14H308.41a3,3,0,0,0-1,.18L94.85,369.23a3,3,0,0,0-2,2.82v59.58H270.66L340.54,300.2Z"/></svg>