<svg xmlns="http://www.w3.org/2000/svg" xmlns:xlink="http://www.w3.org/1999/xlink" viewBox="0 0 600 600"><defs><style>.cls-1{fill:none;}.cls-2{fill:url(#Degradado_sin_nombre_48);}.cls-3{fill:#043263;}.cls-4{fill:#49a5e6;}.cls-5{fill:#072146;}.cls-6{fill:#5ac4c4;}.cls-7{opacity:0.5;isolation:isolate;fill:url(#Degradado_sin_nombre_2);}.cls-8{fill:#28ad68;}.cls-9{fill:#fff;}.cls-10{fill:#07467f;}.cls-11{fill:#39cbcb;}</style><linearGradient id="Degradado_sin_nombre_48" x1="266.93" y1="166.82" x2="442.74" y2="497.48" gradientTransform="translate(0 2)" gradientUnits="userSpaceOnUse"><stop offset="0" stop-color="#192647" stop-opacity="0.5"/><stop offset="1" stop-color="#192647" stop-opacity="0"/></linearGradient><linearGradient id="Degradado_sin_nombre_2" x1="184.32" y1="233.43" x2="325.66" y2="308.57" gradientUnits="userSpaceOnUse"><stop offset="0" stop-color="#eaf9fa"/><stop offset="1" stop-color="#eaf9fa" stop-opacity="0.2"/><stop offset="1" stop-color="#eaf9fa" stop-opacity="0.5"/></linearGradient></defs><title>5</title><g id="Cuadrados_blancos" data-name="Cuadrados blancos"><rect class="cls-1" width="600" height="600"/></g><g id="Capa_2" data-name="Capa 2"><path class="cls-2" d="M560,212.24a61.16,61.16,0,0,0-122.32,0h-247A21.64,21.64,0,0,0,169,233.88h0V423H153.51a2.77,2.77,0,0,0-2.82,2.82v6.59h-8a2.77,2.77,0,0,0-2.82,2.82v16.94a2.77,2.77,0,0,0,2.82,2.82h383a2.77,2.77,0,0,0,2.82-2.82V435.24a2.77,2.77,0,0,0-2.82-2.82h-8v-6.59a2.78,2.78,0,0,0-2.83-2.82H499.31V273.4A61.18,61.18,0,0,0,560,212.24Z"/><path class="cls-3" d="M149.12,175.78h296.3a16.88,16.88,0,0,1,16.87,16.87h0V398.82h-330V192.65A16.87,16.87,0,0,1,149.12,175.78Z"/><path class="cls-4" d="M154,190.45h286a7.36,7.36,0,0,1,7.34,7.34V365a7.36,7.36,0,0,1-7.34,7.33H154A7.35,7.35,0,0,1,146.7,365V197.79A7.36,7.36,0,0,1,154,190.45Z"/><path class="cls-3" d="M104.6,397.28H488.4a2.16,2.16,0,0,1,2.2,2.2v17.6a2.17,2.17,0,0,1-2.2,2.2H104.6a2.16,2.16,0,0,1-2.2-2.2v-17.6A2.2,2.2,0,0,1,104.6,397.28Z"/><path class="cls-5" d="M480.84,397.28H113.4v-7.85a2.16,2.16,0,0,1,2.2-2.2h363a2.16,2.16,0,0,1,2.2,2.2Z"/><path class="cls-6" d="M322.13,404.61h-47.6a7.35,7.35,0,0,1-7.33-7.33h62.26A7.4,7.4,0,0,1,322.13,404.61Z"/><path class="cls-7" d="M154,372.34H299.25l97.62-181.89H154a7.36,7.36,0,0,0-7.33,7.34V365A7.35,7.35,0,0,0,154,372.34Z"/><path class="cls-8" d="M523.78,175.23a61.2,61.2,0,1,1-61.2-61.2,61.19,61.19,0,0,1,61.2,61.2"/><path class="cls-9" d="M450,202h0a4.41,4.41,0,0,1-3.29-1.42l-18.83-18.83a4.72,4.72,0,1,1,6.68-6.68l15.54,15.53,40.76-40.76a4.84,4.84,0,0,1,6.69,0,4.74,4.74,0,0,1,0,6.68l-44.16,44.06A4.78,4.78,0,0,1,450,202Z"/><path class="cls-9" d="M316.52,317.68,310,330a.46.46,0,0,1-.57.19c-.09,0-.09-.1-.19-.19l-6.49-12.33a.49.49,0,0,0-.38-.19h-3.11a.25.25,0,0,0-.28.28v.09L309.18,337c.09.18.38.28.47.18s.09-.09.19-.18L320,317.86c.09-.09,0-.28-.1-.37h-3.29c.09,0-.1,0-.1.19"/><path class="cls-9" d="M320.2,334.06l6.49-12.34a.46.46,0,0,1,.57-.18c.09,0,.09.09.18.18l6.5,12.34a.52.52,0,0,0,.38.19h3.2c.19,0,.28-.1.28-.29v-.18l-10.17-19.12c-.09-.19-.37-.28-.47-.19s-.09.1-.19.19l-10.54,19.21c-.09.09,0,.28.09.38h3.2c.29,0,.38,0,.48-.19"/><path class="cls-9" d="M271.71,334.34h-5.84a.41.41,0,0,1-.38-.38v-5.27a.41.41,0,0,1,.38-.38h5.84c2.82,0,4.05.76,4.05,3s-1.23,3-4.05,3m-5.84-14h5.74c2.08,0,3.2.94,3.2,2.54s-1,2.64-3.2,2.64h-5.74a.41.41,0,0,1-.38-.38v-4.42a.41.41,0,0,1,.38-.38m10.07,6.22a4.26,4.26,0,0,0,2.17-4c0-3.11-2.35-5.18-5.74-5.18h-9.7a.41.41,0,0,0-.38.38v19a.4.4,0,0,0,.38.37H272c4.61,0,7.06-2,7.06-5.93a4.88,4.88,0,0,0-3.11-4.7"/><path class="cls-9" d="M291.67,334.34h-5.84a.41.41,0,0,1-.38-.38v-5.27a.41.41,0,0,1,.38-.38h5.84c2.82,0,4.05.76,4.05,3s-1.23,3-4.05,3m-5.84-14h5.74c2.07,0,3.2.94,3.2,2.54s-1,2.64-3.2,2.64h-5.74a.41.41,0,0,1-.38-.38v-4.42a.35.35,0,0,1,.38-.38m10,6.22a4.28,4.28,0,0,0,2.17-4c0-3.11-2.36-5.18-5.75-5.18h-9.69a.41.41,0,0,0-.38.38v18.92a.41.41,0,0,0,.38.38h9.32c4.61,0,7.06-2,7.06-5.93a4.74,4.74,0,0,0-3.11-4.61"/><circle class="cls-10" cx="300" cy="262.25" r="37.75"/><circle class="cls-11" cx="300" cy="250.17" r="9.44"/><path class="cls-11" d="M289.81,262.16h20.38a5.68,5.68,0,0,1,5.67,5.66v11.32H284.14V267.82A5.68,5.68,0,0,1,289.81,262.16Z"/></g></svg>