<svg id="Contenido" xmlns="http://www.w3.org/2000/svg" xmlns:xlink="http://www.w3.org/1999/xlink" viewBox="0 0 600 600"><defs><style>.cls-1{fill:url(#Degradado_sin_nombre);}.cls-2{fill:#043263;}.cls-3{fill:#1464a5;}.cls-4{fill:#072146;}.cls-5{fill:#49a5e6;}.cls-6{fill:url(#Degradado_sin_nombre_6);}.cls-7{fill:#2dcccd;}.cls-8{fill:url(#Degradado_sin_nombre_3);}.cls-9{fill:url(#Degradado_sin_nombre_4);}.cls-10{fill:none;}</style><linearGradient id="Degradado_sin_nombre" x1="312.9" y1="402.23" x2="456.77" y2="131.64" gradientTransform="matrix(1, 0, 0, -1, 0, 602)" gradientUnits="userSpaceOnUse"><stop offset="0.01" stop-color="#043263" stop-opacity="0.5"/><stop offset="1" stop-color="#043263" stop-opacity="0"/></linearGradient><linearGradient id="Degradado_sin_nombre_6" x1="404.5" y1="422.65" x2="225.2" y2="422.65" gradientTransform="translate(0 -98)" gradientUnits="userSpaceOnUse"><stop offset="0" stop-color="#043263" stop-opacity="0.4"/><stop offset="1" stop-color="#043263" stop-opacity="0"/></linearGradient><linearGradient id="Degradado_sin_nombre_3" x1="435.19" y1="131.25" x2="371.63" y2="131.25" gradientTransform="matrix(1, 0.08, -0.08, 1, -58.99, -6.75)" gradientUnits="userSpaceOnUse"><stop offset="0" stop-color="#028484" stop-opacity="0.5"/><stop offset="1" stop-color="#028484" stop-opacity="0"/></linearGradient><linearGradient id="Degradado_sin_nombre_4" x1="514.51" y1="111" x2="437.72" y2="111" xlink:href="#Degradado_sin_nombre_3"/></defs><path class="cls-1" d="M497.9,151.9v-.6h0v-.4c-.1-1.2-.9-1.8-2.5-1.8-83.7.8-82.3,73-81.4,84.9a1.6,1.6,0,0,0,.8,1.4h-2.4c.3-.2.3-.5.3-.9-.2-57.2-48.1-57.4-57.8-56.9a2,2,0,0,0-1.8,1.7h0v.1c-.2,8.6,1.2,46.6,39.8,54.6.2,0,.4.1.6.1l1.5.3,2.1.3h.1c1.7.2,3.4.4,5.2.5h-5.6c-.1,0-.2.1-.3.1s-.2.1-.3.1-.2.1-.3.1a.35.35,0,0,0-.2.1c-.1.1-.2.1-.2.2l-.2.2c-.1.1-.1.2-.2.2l-.2.2a.37.37,0,0,0-.1.3.35.35,0,0,1-.1.2c0,.1-.1.2-.1.3s-.1.2-.1.3v.6h0v19.1l-43.1-27.4a2.27,2.27,0,0,0-2.5,0L218,313.1a17.79,17.79,0,0,0-5.5,24.5l3.4,5.4,29.7,4.1V469.8a2.26,2.26,0,0,0,2.3,2.3H452.2a2.92,2.92,0,0,0,.9-.2,2,2,0,0,0,1.2-1.2,2.92,2.92,0,0,0,.2-.9V347.4l29.8-4.1h0l3.4-5.4a17.7,17.7,0,0,0-5.5-24.5l-48-30.5V238.3a3,3,0,0,0-3-3H427c21.8-2,64-12.7,70.2-66.1V169c.1-1.1.2-2.1.3-3.2a2.2,2.2,0,0,1,.1-.8c.1-.9.1-1.8.2-2.7a7.57,7.57,0,0,1,.1-1.5c0-.7.1-1.4.1-2.1V155C497.9,154,497.9,152.9,497.9,151.9Z"/><path class="cls-2" d="M347.3,184.2h34a3,3,0,0,1,3,3v47h-40v-47A3,3,0,0,1,347.3,184.2Z"/><path class="cls-3" d="M347.3,184.2h34a3,3,0,0,1,3,3v5.5h-40v-5.4a3.1,3.1,0,0,1,3-3.1Z"/><path class="cls-4" d="M165.8,292.2,300,310.8l134.2-18.6-133-85a2.27,2.27,0,0,0-2.5,0Z"/><path class="cls-5" d="M195.6,273.1l103.2-66a2.27,2.27,0,0,1,2.5,0l103.2,66V419a2.26,2.26,0,0,1-2.3,2.3H197.9a2.26,2.26,0,0,1-2.3-2.3V273.1Z"/><path class="cls-6" d="M333.9,228l70.6,45.1V419a2.26,2.26,0,0,1-2.3,2.3h-177"/><path class="cls-7" d="M276.4,321.2h47.2a3,3,0,0,1,3,3v97.1H273.4V324.2A3,3,0,0,1,276.4,321.2Z"/><path class="cls-2" d="M298.8,179,167.9,262.3a17.68,17.68,0,0,0-5.4,24.5l3.4,5.4,133-85a2.27,2.27,0,0,1,2.5,0l133,85,3.4-5.4a17.7,17.7,0,0,0-5.5-24.5L301.3,179A2.27,2.27,0,0,0,298.8,179Z"/><path class="cls-7" d="M362.7,183.4c-.2-57.2-48.1-57.4-57.8-56.9a1.93,1.93,0,0,0-1.8,1.8c-.2,9.8,1.6,58.1,58.7,56.1C362.5,184.3,362.6,184,362.7,183.4Z"/><path class="cls-8" d="M303.1,128.2c-.2,9.5,1.4,58.3,58.9,56.2a.43.43,0,0,0,.4-.4.37.37,0,0,0-.1-.3l-57.9-56a.67.67,0,0,0-1,0A.55.55,0,0,0,303.1,128.2Z"/><path class="cls-7" d="M445.4,98c-83.7.8-82.3,73-81.4,84.9a1.84,1.84,0,0,0,1.8,1.7c12,.4,84.6-.6,82.1-84.5C447.9,98.7,447.1,98,445.4,98Z"/><path class="cls-9" d="M365.7,184.6c12,.4,84.7-.6,82.1-84.7a1,1,0,0,0-1-.9.86.86,0,0,0-.6.3l-81.1,84.1a.78.78,0,0,0,0,1.1A3.54,3.54,0,0,1,365.7,184.6Z"/><rect class="cls-10" width="600" height="600"/></svg>