<svg id="Capa_1" data-name="Capa 1" xmlns="http://www.w3.org/2000/svg" xmlns:xlink="http://www.w3.org/1999/xlink" viewBox="0 0 600 600"><defs><style>.cls-1{fill:url(#Degradado_sin_nombre_15);}.cls-2{fill:url(#Degradado_sin_nombre_15-2);}.cls-3{fill:url(#Degradado_sin_nombre_15-3);}.cls-4{fill:#1464a5;}.cls-5{fill:#49a5e6;}.cls-6{opacity:0.5;}.cls-7{fill:url(#Degradado_sin_nombre_14);}.cls-8{fill:url(#Degradado_sin_nombre_10);}.cls-9{fill:#028484;}.cls-10{fill:#043263;}.cls-11{fill:#d4edfc;}.cls-12{fill:#2dcccd;}.cls-13{fill:url(#Degradado_sin_nombre_8);}</style><linearGradient id="Degradado_sin_nombre_15" x1="200.46" y1="171.77" x2="385.85" y2="520.45" gradientUnits="userSpaceOnUse"><stop offset="0" stop-color="#192647"/><stop offset="0" stop-color="#192647" stop-opacity="0.5"/><stop offset="1" stop-color="#192647" stop-opacity="0"/></linearGradient><linearGradient id="Degradado_sin_nombre_15-2" x1="232.64" y1="176.65" x2="420.99" y2="530.89" xlink:href="#Degradado_sin_nombre_15"/><linearGradient id="Degradado_sin_nombre_15-3" x1="207.26" y1="814.38" x2="406.61" y2="439.46" gradientTransform="matrix(1, 0, 0, -1, 0, 1000.42)" xlink:href="#Degradado_sin_nombre_15"/><linearGradient id="Degradado_sin_nombre_14" x1="250.58" y1="820.29" x2="284.51" y2="802.26" gradientTransform="matrix(1, 0, 0, -1, 0, 1000.42)" gradientUnits="userSpaceOnUse"><stop offset="0" stop-color="#eaf9fa"/><stop offset="1" stop-color="#e9f8f9" stop-opacity="0.2"/><stop offset="1" stop-color="#eaf9fa" stop-opacity="0.5"/></linearGradient><linearGradient id="Degradado_sin_nombre_10" x1="343.41" y1="718.27" x2="148.2" y2="718.27" gradientTransform="matrix(1, 0, 0, -1, 0, 1000.42)" gradientUnits="userSpaceOnUse"><stop offset="0" stop-color="#043263" stop-opacity="0.3"/><stop offset="1" stop-color="#043263" stop-opacity="0.1"/></linearGradient><linearGradient id="Degradado_sin_nombre_8" x1="371.46" y1="640.23" x2="430.39" y2="608.89" gradientTransform="matrix(1, 0, 0, -1, 0, 1000.42)" gradientUnits="userSpaceOnUse"><stop offset="0" stop-color="#fff" stop-opacity="0.5"/><stop offset="1" stop-color="#fff" stop-opacity="0.1"/></linearGradient></defs><path class="cls-1" d="M233.82,242h2a7,7,0,0,1,7,7v30.37H254V249a18.13,18.13,0,0,0-18.13-18.13h-2a3.32,3.32,0,0,0-3.32,3.34v4.45A3.34,3.34,0,0,0,233.82,242Z"/><path class="cls-2" d="M536.94,408.86a33.69,33.69,0,0,0-25.07-10.92,31.24,31.24,0,0,0-13.33,2.9,90.89,90.89,0,0,0,1.16-14.38A89.1,89.1,0,0,0,456.43,310l10.27-18.39a109,109,0,0,1,18.82,14.1,3.2,3.2,0,0,0,4.45-.12l11.11-11.31,0,0a3.2,3.2,0,0,0-.1-4.52A131.69,131.69,0,0,0,439,257V206.94h6.81a3.29,3.29,0,0,0,3.07-2.14l6.48-17.53a3.28,3.28,0,0,0-3.07-4.39H314.49a3.27,3.27,0,0,0-3.07,2.13l-6.48,17.52a3.27,3.27,0,0,0,1.92,4.2,3.21,3.21,0,0,0,1.15.21h13.74l-25.33,46.81-13.87,25.6h0l0,0,0,.11H203.33a25.59,25.59,0,0,0-25.59,25.6v4.69h-.11a3.2,3.2,0,0,0-3.2,3.2v12.22a3.2,3.2,0,0,0,3.2,3.2h.11v39.76a58,58,0,1,0,82.79,24.64H278v18.92a3.35,3.35,0,0,0,3.34,3.34H297a3.36,3.36,0,0,0,3.38-3.29v-19h21.28a89.21,89.21,0,0,0,116.74,78.38c6.32,6.7,14.22,13.61,23.12,21.21l0-.07,3.65,3.1c4.31,3.68,9.23,7.86,14.28,12.3a7.35,7.35,0,0,0,9.69,0c5.06-4.44,9.95-8.62,14.27-12.3,12.63-10.78,23.53-20.07,31.15-29.25C543,455.94,547,446.23,547,435.61A39.2,39.2,0,0,0,536.94,408.86Z"/><path class="cls-3" d="M233.46,242.78h2a7,7,0,0,1,7,7v30.37h11.12V249.78a18.12,18.12,0,0,0-18.11-18.13h-2a3.32,3.32,0,0,0-3.34,3.32v4.47A3.34,3.34,0,0,0,233.46,242.78Z"/><path class="cls-4" d="M383,132.21a3.34,3.34,0,0,0-3.34-3.33h-94a11.72,11.72,0,0,0-10.93,7.39l-48.22,89.12,4.15,20.15H383Z"/><path class="cls-5" d="M226.55,225.35H355.88a3.35,3.35,0,0,0,3.34-3.34V152.94H265.79Z"/><g class="cls-6"><polygon class="cls-7" points="308.55 152.94 265.79 152.94 226.54 225.35 266.31 225.35 308.55 152.94"/></g><path class="cls-4" d="M354.54,338.81H121.74V251.1a25.59,25.59,0,0,1,25.59-25.6H354.54Z"/><polygon class="cls-8" points="343.4 225.5 206.51 225.5 148.19 338.81 343.4 338.81 343.4 225.5"/><path class="cls-9" d="M359.2,330.39c.68-1.85,57.44-103.39,57.44-103.39S383.33,210.35,360,210.35s-66.61,17.76-79.56,30.71-42.34,34.79-42.34,70.68,2.37,27,2.37,27l114,.06Z"/><path class="cls-10" d="M265.38,332.46a89.16,89.16,0,1,1,89.16,89.16h0A89.24,89.24,0,0,1,265.38,332.46Z"/><circle class="cls-11" cx="354.54" cy="332.46" r="31.16"/><path class="cls-11" d="M121.63,274.41h13.22a12.32,12.32,0,0,0,12.2-10.64l.8-5.81a1.92,1.92,0,0,0-1.63-2.16,2.32,2.32,0,0,0-.37,0H121.63a3.2,3.2,0,0,0-3.2,3.2h0v12.22a3.2,3.2,0,0,0,3.2,3.2Z"/><path class="cls-12" d="M241,361.07H225.37a3.35,3.35,0,0,1-3.34-3.34V334.06c0-73.42,60.08-134.63,133.49-134.1A131.63,131.63,0,0,1,445,235.73a3.2,3.2,0,0,1,.1,4.52l0,0L434,251.6a3.2,3.2,0,0,1-4.45.12,109.47,109.47,0,0,0-74.19-29.45c-61.07-.43-111,50.5-111,111.57v23.94A3.36,3.36,0,0,1,241,361.07Z"/><path class="cls-10" d="M94.09,363.6a58,58,0,1,1,58,58h0A58.08,58.08,0,0,1,94.09,363.6Z"/><circle class="cls-11" cx="152.12" cy="363.6" r="23.93"/><path class="cls-10" d="M396.33,128.88H258.49a3.27,3.27,0,0,0-3.07,2.13l-6.48,17.52a3.27,3.27,0,0,0,1.92,4.2,3.21,3.21,0,0,0,1.15.21H389.85a3.29,3.29,0,0,0,3.07-2.14l6.48-17.53a3.28,3.28,0,0,0-3.07-4.39Z"/><path class="cls-11" d="M198,225.35H186.82V195a7,7,0,0,0-7-7h-2a3.34,3.34,0,0,1-3.34-3.34v-4.45a3.32,3.32,0,0,1,3.32-3.34h2A18.13,18.13,0,0,1,198,195h0Z"/><path class="cls-12" d="M480.94,354.86a33.69,33.69,0,0,0-25.07-10.92,31.45,31.45,0,0,0-19.7,6.8,40.26,40.26,0,0,0-8,8.32,39.8,39.8,0,0,0-8-8.32,31.4,31.4,0,0,0-19.69-6.8,33.66,33.66,0,0,0-25.06,10.92,39.22,39.22,0,0,0-9.92,26.75c0,10.62,3.95,20.33,12.44,30.57,7.58,9.18,18.46,18.46,31.15,29.25,4.31,3.68,9.23,7.86,14.28,12.3a7.35,7.35,0,0,0,9.69,0c5.06-4.44,9.95-8.62,14.27-12.3,12.63-10.78,23.53-20.07,31.15-29.25C487,401.94,491,392.23,491,381.61A39.2,39.2,0,0,0,480.94,354.86Z"/><path class="cls-13" d="M436.16,350.83a40,40,0,0,0-8,8.31,39.75,39.75,0,0,0-8-8.31A31.44,31.44,0,0,0,400.55,344a33.63,33.63,0,0,0-25.06,11,39.18,39.18,0,0,0-9.92,26.74c0,10.61,3.95,20.32,12.43,30.56,6.84,8.27,16.39,16.65,27.47,26.12l48.76-94.32A31.43,31.43,0,0,0,436.16,350.83Z"/></svg>