<svg xmlns="http://www.w3.org/2000/svg" xmlns:xlink="http://www.w3.org/1999/xlink" viewBox="0 0 600 600"><defs><style>.cls-1{fill:none;}.cls-2{fill:url(#Degradado_sin_nombre_7);}.cls-3{fill:#2dcccd;}.cls-4{fill:#028484;}.cls-5{fill:#043263;}.cls-6{fill:url(#Degradado_sin_nombre_56);}.cls-7{fill:#49a5e6;}.cls-8{fill:#d4edfc;}</style><linearGradient id="Degradado_sin_nombre_7" x1="266.94" y1="-1496.24" x2="461.03" y2="-1861.26" gradientTransform="matrix(1, 0, 0, -1, 0, -1346)" gradientUnits="userSpaceOnUse"><stop offset="0" stop-color="#192647" stop-opacity="0.5"/><stop offset="1" stop-color="#192647" stop-opacity="0"/></linearGradient><linearGradient id="Degradado_sin_nombre_56" x1="465" y1="-1579.7" x2="246.9" y2="-1579.7" gradientTransform="matrix(1, 0, 0, -1, 0, -1346)" gradientUnits="userSpaceOnUse"><stop offset="0" stop-color="#072146"/><stop offset="1" stop-color="#072146" stop-opacity="0"/></linearGradient></defs><title>14</title><g id="Cuadrados_Blancos" data-name="Cuadrados Blancos"><rect class="cls-1" width="600" height="600"/></g><g id="Capa_3" data-name="Capa 3"><path class="cls-2" d="M503.9,189.1a8.79,8.79,0,0,0-1-.6,23.6,23.6,0,0,0-5.2-2.1c-.7-.2-1.5-.3-2.2-.5a17.85,17.85,0,0,0-2.3-.2H206a23,23,0,0,0-23,23v150a23,23,0,0,0,23,23h15v6.8a3,3,0,0,0,3,3h42.4L247.7,499.9h-.5a3.1,3.1,0,0,0-3,2.5l-2.3,13.2a2.89,2.89,0,0,0,2.4,3.4v.1h20.5a3.1,3.1,0,0,0,3-2.5l2.3-13.2a2.89,2.89,0,0,0-2.4-3.4l18.8-108.4H411.6L430.3,500a2.94,2.94,0,0,0-2.4,3.4l2.3,13.2a3,3,0,0,0,3,2.5h20.5V519a2.94,2.94,0,0,0,2.4-3.4l-2.3-13.2a3,3,0,0,0-3-2.5h-.5L431.6,391.5H474a3,3,0,0,0,3-3v-6.8h16.2a16.41,16.41,0,0,0,2.3-.2,14.19,14.19,0,0,0,2.2-.5,23.6,23.6,0,0,0,5.2-2.1,8.79,8.79,0,0,1,1-.6A23,23,0,0,0,515,358.6v-150A22.72,22.72,0,0,0,503.9,189.1Z"/><polygon class="cls-3" points="194.4 469.1 214.4 469.1 238.1 331.7 218.1 331.7 194.4 469.1"/><polygon class="cls-3" points="383.6 469.1 403.6 469.1 379.9 331.7 359.9 331.7 383.6 469.1"/><path class="cls-4" d="M403.1,469.1H383.2a3.1,3.1,0,0,1-3-2.5l-2.3-13.2a3,3,0,0,1,3-3.5h19.9a3.1,3.1,0,0,1,3,2.5l2.3,13.2A3,3,0,0,1,403.1,469.1Z"/><path class="cls-4" d="M194.9,469.1h19.9a3.1,3.1,0,0,0,3-2.5l2.3-13.2a3,3,0,0,0-3-3.5H197.2a3.1,3.1,0,0,0-3,2.5l-2.3,13.2A3,3,0,0,0,194.9,469.1Z"/><path class="cls-5" d="M442,331.7H156a23,23,0,0,1-23-23v-150a23,23,0,0,1,23-23H442a23,23,0,0,1,23,23v150A22.94,22.94,0,0,1,442,331.7Z"/><path class="cls-6" d="M442,135.7H351.1l-104.2,196H442a23,23,0,0,0,23-23v-150A23,23,0,0,0,442,135.7Z"/><path class="cls-7" d="M424,341.5H174a3,3,0,0,1-3-3v-14a3,3,0,0,1,3-3H424a3,3,0,0,1,3,3v14A3,3,0,0,1,424,341.5Z"/><path class="cls-8" d="M252.5,280.3h0a5,5,0,0,1-4.7-3.3l-20.6-58.3H204.1a5,5,0,1,1,0-10h26.6a5,5,0,0,1,4.7,3.3l17,48.3,26.5-75a5,5,0,0,1,4.7-3.3H393.7a5,5,0,1,1,0,10H287.3l-30,85.1A5.19,5.19,0,0,1,252.5,280.3Z"/><path class="cls-8" d="M353,263.2a4.69,4.69,0,0,1-3.5-1.5L313,225.2a5,5,0,1,1,7.1-7.1l36.5,36.5a5,5,0,0,1,0,7.1A5.08,5.08,0,0,1,353,263.2Z"/><path class="cls-8" d="M316.5,263.2a4.69,4.69,0,0,1-3.5-1.5,5,5,0,0,1,0-7.1l36.5-36.5a5,5,0,1,1,7.1,7.1L320,261.7A5,5,0,0,1,316.5,263.2Z"/></g></svg>