<?xml version="1.0" encoding="utf-8"?>
<!-- Generator: Adobe Illustrator 23.0.1, SVG Export Plug-In . SVG Version: 6.00 Build 0)  -->
<svg version="1.1" id="Contenido" xmlns="http://www.w3.org/2000/svg" xmlns:xlink="http://www.w3.org/1999/xlink" x="0px" y="0px"
	 viewBox="0 0 600 600" style="enable-background:new 0 0 600 600;" xml:space="preserve">
<style type="text/css">
	.st0{fill:url(#SVGID_1_);}
	.st1{fill:url(#SVGID_2_);}
	.st2{fill:url(#SVGID_3_);}
	.st3{fill:url(#SVGID_4_);}
	.st4{fill:url(#SVGID_5_);}
	.st5{fill:url(#SVGID_6_);}
	.st6{display:none;}
	.st7{display:inline;fill:url(#SVGID_7_);}
	.st8{display:inline;fill:url(#SVGID_8_);}
	.st9{display:inline;fill:url(#SVGID_9_);}
	.st10{fill:#49A5E6;}
	.st11{fill:#1464A5;}
	.st12{fill:#043263;}
	.st13{fill:#F8CD50;}
	.st14{fill:url(#SVGID_10_);}
	.st15{fill:url(#SVGID_11_);}
	.st16{fill:url(#SVGID_12_);}
	.st17{fill:url(#SVGID_13_);}
	.st18{fill:url(#SVGID_14_);}
	.st19{fill:#2DCCCD;}
	.st20{fill:#028484;}
	.st21{fill:url(#SVGID_15_);}
	.st22{fill:#D4EDFC;}
	.st23{fill:url(#SVGID_16_);}
	.st24{fill:url(#SVGID_17_);}
	.st25{fill:url(#SVGID_18_);}
	.st26{fill:url(#SVGID_19_);}
	.st27{fill:url(#SVGID_20_);}
	.st28{fill:url(#SVGID_21_);}
	.st29{fill:url(#SVGID_22_);}
	.st30{fill:url(#SVGID_23_);}
	.st31{fill:url(#SVGID_24_);}
	.st32{fill:url(#SVGID_25_);}
	.st33{fill:url(#SVGID_26_);}
	.st34{fill:#EAF9FA;}
</style>
<linearGradient id="SVGID_1_" gradientUnits="userSpaceOnUse" x1="266.9795" y1="150.2717" x2="461.0548" y2="515.2744">
	<stop  offset="0" style="stop-color:#192647;stop-opacity:0.5"/>
	<stop  offset="1" style="stop-color:#192647;stop-opacity:0"/>
</linearGradient>
<path class="st0" d="M503.9,189.1c-0.3-0.2-0.6-0.4-1-0.6c-1.6-0.9-3.4-1.6-5.2-2.1c-0.7-0.2-1.5-0.3-2.2-0.5
	c-0.8-0.1-1.5-0.2-2.3-0.2c-0.4,0-0.8,0-1.2,0l0,0H206c-12.7,0-23,10.3-23,23v150c0,12.7,10.3,23,23,23h15v6.8c0,1.7,1.3,3,3,3h42.4
	l-18.7,108.4h-0.5c-1.5,0-2.7,1.1-3,2.5l-2.3,13.2c-0.3,1.6,0.8,3.2,2.4,3.4l0,0.1h0.6h19.4h0.5c1.5,0,2.7-1.1,3-2.5l2.3-13.2
	c0.3-1.6-0.8-3.2-2.4-3.4l18.8-108.4h125.1L430.3,500c-1.6,0.3-2.7,1.8-2.4,3.4l2.3,13.2c0.2,1.4,1.5,2.5,3,2.5h0.5h19.4h0.6l0-0.1
	c1.6-0.3,2.7-1.8,2.4-3.4l-2.3-13.2c-0.2-1.4-1.5-2.5-3-2.5h-0.5l-18.7-108.4H474c1.7,0,3-1.3,3-3v-6.8h15l0,0c0.4,0,0.8,0,1.2,0
	c0.8,0,1.6-0.1,2.3-0.2c0.8-0.1,1.5-0.3,2.2-0.5c1.8-0.5,3.6-1.2,5.2-2.1c0.3-0.2,0.6-0.4,1-0.6c6.6-4,11.1-11.3,11.1-19.7v-150
	C515,200.4,510.6,193.1,503.9,189.1z"/>
<g>
	<polygon class="st19" points="194.4,469.1 214.4,469.1 238.1,331.7 218.1,331.7 	"/>
	<polygon class="st19" points="383.6,469.1 403.6,469.1 379.9,331.7 359.9,331.7 	"/>
	<path class="st20" d="M403.1,469.1h-19.9c-1.5,0-2.7-1.1-3-2.5l-2.3-13.2c-0.3-1.8,1.1-3.5,3-3.5h19.9c1.5,0,2.7,1.1,3,2.5
		l2.3,13.2C406.4,467.5,404.9,469.1,403.1,469.1z"/>
	<path class="st20" d="M194.9,469.1h19.9c1.5,0,2.7-1.1,3-2.5l2.3-13.2c0.3-1.8-1.1-3.5-3-3.5h-19.9c-1.5,0-2.7,1.1-3,2.5l-2.3,13.2
		C191.6,467.5,193.1,469.1,194.9,469.1z"/>
</g>
<g>
	<path class="st11" d="M442,331.7H156c-12.7,0-23-10.3-23-23v-150c0-12.7,10.3-23,23-23h286c12.7,0,23,10.3,23,23v150
		C465,321.5,454.7,331.7,442,331.7z"/>
	<linearGradient id="SVGID_2_" gradientUnits="userSpaceOnUse" x1="465" y1="233.7485" x2="246.9173" y2="233.7485">
		<stop  offset="6.598947e-03" style="stop-color:#043263;stop-opacity:0.4"/>
		<stop  offset="1" style="stop-color:#043263;stop-opacity:0.1"/>
	</linearGradient>
	<path class="st1" d="M442,135.7h-90.9l-104.2,196H442c12.7,0,23-10.3,23-23v-150C465,146,454.7,135.7,442,135.7z"/>
</g>
<path class="st10" d="M424,341.5H174c-1.7,0-3-1.3-3-3v-14c0-1.7,1.3-3,3-3h250c1.7,0,3,1.3,3,3v14C427,340.2,425.7,341.5,424,341.5
	z"/>
<g>
	<path class="st22" d="M252.5,280.3C252.5,280.3,252.5,280.3,252.5,280.3c-2.1,0-4-1.3-4.7-3.3l-20.6-58.3h-23.1c-2.8,0-5-2.2-5-5
		s2.2-5,5-5h26.6c2.1,0,4,1.3,4.7,3.3l17,48.3l26.5-75c0.7-2,2.6-3.3,4.7-3.3h110.1c2.8,0,5,2.2,5,5s-2.2,5-5,5H287.3l-30,85.1
		C256.6,278.9,254.7,280.3,252.5,280.3z"/>
	<path class="st22" d="M353,263.2c-1.3,0-2.6-0.5-3.5-1.5l-36.5-36.5c-2-2-2-5.1,0-7.1c2-2,5.1-2,7.1,0l36.5,36.5c2,2,2,5.1,0,7.1
		C355.6,262.7,354.3,263.2,353,263.2z"/>
	<path class="st22" d="M316.5,263.2c-1.3,0-2.6-0.5-3.5-1.5c-2-2-2-5.1,0-7.1l36.5-36.5c2-2,5.1-2,7.1,0c2,2,2,5.1,0,7.1L320,261.7
		C319,262.7,317.7,263.2,316.5,263.2z"/>
</g>
</svg>
