<svg xmlns="http://www.w3.org/2000/svg" xmlns:xlink="http://www.w3.org/1999/xlink" viewBox="0 0 600 600"><defs><style>.cls-1{fill:none;}.cls-12,.cls-2{fill-rule:evenodd;}.cls-2{fill:url(#Degradado_sin_nombre_370);}.cls-3{fill:#043263;}.cls-4{fill:#072146;}.cls-5{fill:#c0475e;}.cls-12,.cls-6{fill:#fff;}.cls-7{fill:#f4f4f4;}.cls-8{fill:#da3851;}.cls-9{fill:url(#Degradado_sin_nombre_30);}.cls-10{fill:#1464a5;}.cls-11{fill:#004481;}.cls-13{fill:url(#Degradado_sin_nombre_158);}</style><linearGradient id="Degradado_sin_nombre_370" x1="244.71" y1="203.35" x2="430.89" y2="553.5" gradientUnits="userSpaceOnUse"><stop offset="0" stop-color="#192647" stop-opacity="0.5"/><stop offset="1" stop-color="#192647" stop-opacity="0"/></linearGradient><linearGradient id="Degradado_sin_nombre_30" x1="2690.74" y1="-9909.75" x2="2511.15" y2="-10005.24" gradientTransform="matrix(0.88, 0.47, 0.47, -0.88, 2772.06, -9698.24)" gradientUnits="userSpaceOnUse"><stop offset="0" stop-color="#043263" stop-opacity="0.4"/><stop offset="1" stop-color="#043263" stop-opacity="0"/></linearGradient><linearGradient id="Degradado_sin_nombre_158" x1="2690.74" y1="-9909.75" x2="2511.15" y2="-10005.24" gradientTransform="matrix(0.88, 0.47, 0.47, -0.88, 2772.06, -9698.24)" gradientUnits="userSpaceOnUse"><stop offset="0" stop-color="#043263" stop-opacity="0.2"/><stop offset="1" stop-color="#043263" stop-opacity="0"/></linearGradient></defs><title>11</title><g id="Cuadrados_Blancos" data-name="Cuadrados Blancos"><rect class="cls-1" width="600" height="600"/></g><g id="Capa_101" data-name="Capa 101"><path class="cls-2" d="M545.7,354.79l-37-19.7,2.46-4.63,10-18.86,9.12-17.14h0c.27-.49.5-1,.73-1.5a23,23,0,0,0-9.2-29l-.12-.07c-.31-.19-.6-.38-.92-.55L465.56,234,434.2,217.32,337.11,165.7h0c-.46-.25-.93-.47-1.4-.68a23,23,0,0,0-28.91,8.83c-.27.44-.54.89-.79,1.36l-9.17,17.23-10,18.86-10,18.78-10,18.86-.06.13-9.93,18.66-2.65,5-.51-.27-10.14,19.08.5.27-7.22,13.59-10,18.86-9.3,17.49a23,23,0,0,0-1.76,24.62L150,489.88a3,3,0,0,0,1.24,4.05L172.4,505.2a3,3,0,0,0,4.06-1.24l85.47-160.75,122.71,65.27-2.84,5.34h0l-10.11,19,0,.06-10.11,19v0l-9.29,17.47c-.24.44-.45.88-.65,1.33-.05.1-.09.2-.13.3a23,23,0,0,0,10.29,29.47l83,44.13a3,3,0,0,0,4.05-1.24l8.56-16.1.16-.29,10-18.78h0l10.1-19,0-.07,10.1-19v0l10.1-19,0-.07L508,432h0l10.1-19,0-.07,10.1-19v0l10-18.83.13-.24,8.52-16A3,3,0,0,0,545.7,354.79Z"/><path class="cls-3" d="M196.92,285.23a23,23,0,0,0-22.06,40.37l.46.24Z"/><path class="cls-4" d="M192.45,265.93,218.94,280h0L126.46,454a3,3,0,0,1-4.06,1.24h0l-21.19-11.27a3,3,0,0,1-1.24-4.06h0l92.48-173.94Z"/><path class="cls-5" d="M496.94,308.84a3,3,0,0,0-1.24-4L392.4,249.86l-10,18.72,106,56.29Z"/><polygon class="cls-6" points="372.3 287.65 382.32 268.81 241.86 194.2 241.98 193.97 235.52 190.53 225.38 209.62 235.51 215 235.52 214.99 372.3 287.65"/><rect class="cls-7" x="419.63" y="246.38" width="21.33" height="120" transform="translate(-42.14 542.66) rotate(-62.02)"/><rect class="cls-6" x="312.02" y="151.86" width="0.26" height="159.05" transform="translate(-38.66 398.46) rotate(-62.01)"/><rect class="cls-6" x="435.24" y="236.84" width="0.26" height="120" transform="translate(-31.06 542.01) rotate(-62.01)"/><polygon class="cls-8" points="372.3 287.66 235.51 215 225.41 234.01 362.19 306.67 372.3 287.66"/><rect class="cls-5" x="409.47" y="265.31" width="21.52" height="120" transform="translate(-64.2 543.82) rotate(-62.02)"/><polygon class="cls-8" points="372.3 287.65 235.52 214.99 235.51 215 372.3 287.66 372.3 287.65"/><polygon class="cls-8" points="372.3 287.66 478.27 343.96 478.28 343.94 372.3 287.65 372.3 287.66"/><polygon class="cls-6" points="352.05 325.73 362.16 306.73 225.38 234.07 225.41 234.01 203.62 222.43 193.48 241.51 203.61 246.9 203.62 246.88 352.05 325.73"/><rect class="cls-7" x="399.33" y="284.38" width="21.52" height="120" transform="translate(-86.42 544.99) rotate(-62.02)"/><polygon class="cls-6" points="362.16 306.73 362.19 306.67 225.41 234.01 225.38 234.07 362.16 306.73"/><polygon class="cls-6" points="362.16 306.73 468.13 363.02 468.17 362.96 362.19 306.67 362.16 306.73"/><polygon class="cls-8" points="352.05 325.75 203.61 246.9 193.51 265.9 341.94 344.75 352.05 325.75"/><rect class="cls-5" x="389.22" y="303.4" width="21.52" height="120" transform="translate(-108.59 546.15) rotate(-62.02)"/><polygon class="cls-8" points="352.05 325.73 203.62 246.88 203.61 246.9 352.05 325.75 352.05 325.73"/><polygon class="cls-8" points="352.05 325.75 458.02 382.04 458.03 382.03 352.05 325.73 352.05 325.75"/><rect class="cls-7" x="379.08" y="322.47" width="21.52" height="120" transform="translate(-130.81 547.32) rotate(-62.02)"/><polygon class="cls-6" points="341.91 344.82 341.94 344.75 193.51 265.9 193.48 265.97 341.91 344.82"/><polygon class="cls-6" points="341.91 344.82 447.88 401.11 447.92 401.05 341.94 344.75 341.91 344.82"/><rect class="cls-5" x="368.97" y="341.48" width="21.52" height="120" transform="translate(-152.97 548.49) rotate(-62.02)"/><line class="cls-8" x1="331.8" y1="363.83" x2="331.8" y2="363.82"/><line class="cls-8" x1="171.72" y1="278.78" x2="171.71" y2="278.79"/><polygon class="cls-8" points="331.8 363.83 437.77 420.13 437.78 420.11 331.8 363.82 331.8 363.83"/><rect class="cls-7" x="358.83" y="360.55" width="21.52" height="120" transform="translate(-175.19 549.66) rotate(-62.02)"/><polygon class="cls-6" points="321.66 382.9 427.63 439.2 427.67 439.13 321.69 382.83 321.66 382.9"/><path class="cls-7" d="M311.77,450.49l83,44.13a3,3,0,0,0,4.05-1.24l8.56-16.1L301.48,421A23,23,0,0,0,311.77,450.49Z"/><path class="cls-5" d="M417.52,458.21l-106-56.29-9.29,17.47c-.24.44-.45.88-.65,1.33L407.54,477"/><polygon class="cls-8" points="311.55 401.92 417.52 458.21 417.53 458.2 311.55 401.9 311.55 401.92"/><path class="cls-8" d="M301.48,421l105.9,56.26.16-.29L301.61,420.72C301.56,420.82,301.52,420.92,301.48,421Z"/><circle class="cls-3" cx="369.77" cy="403.19" r="23"/><path class="cls-3" d="M359,423.49l-25.6-13.61h0a23,23,0,0,0-31.11,9.5h0l32.4-60.92,45.91,24.41Z"/><path class="cls-9" d="M470.71,213.35l-101-53.73L279.52,329.15l101.05,53.73a23,23,0,0,1,9.51,31.1l90.14-169.52a23,23,0,0,0-9.5-31.11Z"/><polygon class="cls-6" points="334.19 261.48 216.71 199.07 206.78 217.72 431.1 336.88 441.1 318.1 334.25 261.35 334.19 261.48"/><rect class="cls-6" x="293.27" y="178.55" width="21.28" height="254.01" transform="translate(-108.51 430.61) rotate(-62.02)"/><polygon class="cls-6" points="344.27 242.48 451.13 299.24 461.12 280.46 354.26 223.69 344.27 242.48"/><path class="cls-8" d="M165.81,294.74h0a23,23,0,0,1,31.11-9.5L380.57,382.9a23,23,0,0,1,9.51,31.1l11-20.61L176.72,274.23Z"/><path class="cls-6" d="M364.28,204.83,471.15,261.6l9.12-17.14h0c.27-.49.5-1,.73-1.5L374.17,186.2Z"/><polygon class="cls-10" points="415.56 184 384.2 167.32 384.19 167.34 415.56 184"/><path class="cls-8" d="M470.76,213.35,415.56,184l-31.37-16.66-10,18.86L481,243A23,23,0,0,0,470.76,213.35Z"/><polygon class="cls-8" points="354.26 223.69 461.12 280.46 471.15 261.6 364.28 204.83 354.26 223.69"/><polygon class="cls-8" points="334.25 261.35 441.1 318.1 451.13 299.24 344.27 242.48 334.25 261.35"/><rect class="cls-8" x="303.24" y="159.73" width="21.36" height="254.01" transform="translate(-86.57 429.46) rotate(-62.02)"/><rect class="cls-8" x="283.22" y="197.38" width="21.36" height="254.01" transform="translate(-130.45 431.76) rotate(-62.02)"/><rect class="cls-8" x="275.41" y="163.7" width="0.14" height="133.03" transform="translate(-57.06 365.5) rotate(-62.02)"/><polygon class="cls-11" points="226.81 180.08 344.27 242.48 354.26 223.69 236.8 161.3 226.81 180.08"/><path class="cls-11" d="M256,125.21l-9.17,17.23,117.45,62.39,9.89-18.63L256.79,123.85C256.52,124.29,256.25,124.74,256,125.21Z"/><path class="cls-8" d="M287.1,115.7c-.46-.25-.93-.47-1.4-.68l98.49,52.32v0L287.11,115.7Z"/><path class="cls-11" d="M256.79,123.85,374.17,186.2l10-18.86L285.7,115A23,23,0,0,0,256.79,123.85Z"/><polygon class="cls-11" points="236.8 161.3 354.26 223.69 364.28 204.83 246.83 142.44 236.8 161.3"/><polygon class="cls-11" points="216.77 198.94 334.25 261.35 344.27 242.48 226.81 180.08 216.77 198.94"/><polygon id="Fill-65" class="cls-12" points="243.71 189.12 242.9 195.14 248.2 197.98 242.2 199.27 240.89 205.14 238.09 199.6 232.2 200.47 236.46 196.2 234.04 190.38 239.32 193.22 243.71 189.12"/><polygon id="Fill-67" class="cls-12" points="265.85 200.99 265.04 207.01 270.32 209.84 264.32 211.14 263.02 217 260.23 211.47 254.33 212.34 258.59 208.06 256.17 202.25 261.45 205.09 265.85 200.99"/><polygon id="Fill-69" class="cls-12" points="287.98 212.85 287.17 218.88 292.45 221.71 286.45 223.01 285.15 228.87 282.36 223.34 276.46 224.21 280.72 219.93 278.3 214.12 283.58 216.95 287.98 212.85"/><polygon id="Fill-71" class="cls-12" points="310.11 224.72 309.3 230.74 314.58 233.58 308.58 234.88 307.29 240.74 304.49 235.2 298.59 236.08 302.85 231.8 300.43 225.99 305.72 228.83 310.11 224.72"/><polygon id="Fill-73" class="cls-12" points="332.24 236.59 331.43 242.62 336.72 245.45 330.72 246.75 329.42 252.61 326.61 247.07 320.72 247.95 324.98 243.67 322.56 237.86 327.85 240.69 332.24 236.59"/><polygon id="Fill-75" class="cls-12" points="258.61 153.48 257.8 159.5 263.09 162.33 257.09 163.63 255.79 169.5 252.99 163.96 247.1 164.84 251.35 160.55 248.94 154.74 254.22 157.58 258.61 153.48"/><polygon id="Fill-77" class="cls-12" points="280.74 165.34 279.94 171.37 285.23 174.21 279.23 175.5 277.92 181.37 275.12 175.83 269.23 176.7 273.49 172.43 271.07 166.61 276.35 169.45 280.74 165.34"/><polygon id="Fill-79" class="cls-12" points="302.88 177.22 302.07 183.24 307.35 186.07 301.36 187.37 300.05 193.23 297.26 187.7 291.36 188.57 295.62 184.29 293.19 178.48 298.48 181.32 302.88 177.22"/><polygon id="Fill-81" class="cls-12" points="325.01 189.09 324.19 195.11 329.48 197.94 323.48 199.24 322.19 205.1 319.38 199.56 313.5 200.44 317.75 196.16 315.33 190.35 320.62 193.19 325.01 189.09"/><polygon id="Fill-83" class="cls-12" points="347.13 200.95 346.33 206.98 351.62 209.81 345.62 211.11 344.32 216.97 341.51 211.43 335.62 212.31 339.88 208.03 337.46 202.22 342.75 205.06 347.13 200.95"/><polygon id="Fill-85" class="cls-12" points="274.31 118.26 273.49 124.29 278.78 127.13 272.78 128.42 271.48 134.28 268.68 128.74 262.79 129.62 267.04 125.35 264.62 119.53 269.91 122.37 274.31 118.26"/><polygon id="Fill-87" class="cls-12" points="296.43 130.13 295.62 136.16 300.91 138.99 294.91 140.29 293.62 146.15 290.81 140.61 284.92 141.49 289.17 137.22 286.75 131.4 292.04 134.24 296.43 130.13"/><polygon id="Fill-89" class="cls-12" points="318.56 142 317.75 148.03 323.04 150.87 317.04 152.16 315.74 158.02 312.94 152.48 307.05 153.36 311.31 149.09 308.88 143.27 314.17 146.11 318.56 142"/><polygon id="Fill-91" class="cls-12" points="340.7 153.87 339.88 159.9 345.17 162.73 339.17 164.03 337.87 169.89 335.08 164.35 329.18 165.23 333.44 160.95 331.01 155.14 336.3 157.98 340.7 153.87"/><polygon id="Fill-93" class="cls-12" points="362.83 165.74 362.01 171.77 367.3 174.6 361.3 175.9 360.01 181.76 357.21 176.22 351.32 177.1 355.57 172.82 353.15 167.01 358.44 169.85 362.83 165.74"/><polygon id="Fill-95" class="cls-12" points="278.11 142.12 277.3 148.14 282.59 150.98 276.59 152.27 275.29 158.14 272.49 152.6 266.6 153.48 270.86 149.2 268.43 143.38 273.72 146.22 278.11 142.12"/><polygon id="Fill-97" class="cls-12" points="300.24 153.99 299.43 160.01 304.72 162.85 298.72 164.14 297.42 170.01 294.62 164.47 288.73 165.34 292.99 161.07 290.56 155.25 295.85 158.09 300.24 153.99"/><polygon id="Fill-99" class="cls-12" points="322.37 165.86 321.56 171.88 326.85 174.72 320.85 176.01 319.55 181.88 316.75 176.34 310.86 177.22 315.12 172.94 312.69 167.12 317.99 169.96 322.37 165.86"/><polygon id="Fill-101" class="cls-12" points="344.5 177.73 343.69 183.75 348.98 186.58 342.99 187.88 341.68 193.75 338.88 188.21 332.99 189.09 337.25 184.81 334.83 178.99 340.11 181.83 344.5 177.73"/><polygon id="Fill-103" class="cls-12" points="263.92 178.14 263.11 184.16 268.4 187 262.4 188.29 261.11 194.16 258.3 188.62 252.41 189.5 256.67 185.22 254.25 179.41 259.54 182.24 263.92 178.14"/><polygon id="Fill-105" class="cls-12" points="286.05 190.01 285.25 196.03 290.54 198.87 284.54 200.16 283.23 206.03 280.43 200.49 274.54 201.37 278.8 197.09 276.38 191.28 281.67 194.11 286.05 190.01"/><polygon id="Fill-107" class="cls-12" points="308.19 201.88 307.38 207.9 312.67 210.74 306.67 212.03 305.36 217.9 302.57 212.36 296.67 213.24 300.93 208.96 298.51 203.14 303.8 205.98 308.19 201.88"/><polygon id="Fill-109" class="cls-12" points="330.32 213.75 329.51 219.77 334.8 222.6 328.8 223.9 327.5 229.77 324.7 224.23 318.81 225.11 323.06 220.82 320.64 215.01 325.93 217.85 330.32 213.75"/><path class="cls-13" d="M470.71,213.35l-101-53.73L279.52,329.15l101.05,53.73a23,23,0,0,1,9.51,31.1l90.14-169.52a23,23,0,0,0-9.5-31.11Z"/></g></svg>