<svg id="Contenido" xmlns="http://www.w3.org/2000/svg" xmlns:xlink="http://www.w3.org/1999/xlink" viewBox="0 0 600 600"><defs><style>.cls-1{fill:url(#Degradado_sin_nombre_16);}.cls-2{fill:#d4edfc;}.cls-3{fill:url(#Degradado_sin_nombre_35);}.cls-4{fill:#2dcccd;}.cls-5{fill:#1464a5;}.cls-6{fill:url(#Degradado_sin_nombre_37);}.cls-7{fill:#043263;}</style><linearGradient id="Degradado_sin_nombre_16" x1="269.78" y1="180.27" x2="431.94" y2="485.24" gradientUnits="userSpaceOnUse"><stop offset="0" stop-color="#1c2645"/><stop offset="0" stop-color="#1c2645" stop-opacity="0.5"/><stop offset="1" stop-color="#1c2645" stop-opacity="0"/></linearGradient><linearGradient id="Degradado_sin_nombre_35" x1="434.54" y1="281.88" x2="229.77" y2="281.88" gradientUnits="userSpaceOnUse"><stop offset="0.02" stop-color="#043263" stop-opacity="0.1"/><stop offset="1" stop-color="#043263" stop-opacity="0"/></linearGradient><linearGradient id="Degradado_sin_nombre_37" x1="367.86" y1="285.67" x2="268.9" y2="285.67" gradientUnits="userSpaceOnUse"><stop offset="0" stop-color="#043263" stop-opacity="0.6"/><stop offset="1" stop-color="#043263" stop-opacity="0"/></linearGradient></defs><title>seguros_colombia</title><path class="cls-1" d="M234.18,465.65H467.48l.6-.15.58-.18a22.87,22.87,0,0,0,2.4-.93c.49-.22,1-.46,1.45-.72a23.07,23.07,0,0,0,12-20.22V222.07a23,23,0,0,0-23-23H240.17a23,23,0,0,0-23,23V443.44A23,23,0,0,0,234.18,465.65Z"/><rect class="cls-2" x="167.17" y="148.19" width="267.38" height="267.38" rx="23" ry="23"/><path class="cls-3" d="M411.54,148.19H371.94L229.77,415.57H411.54a23,23,0,0,0,23-23V171.19A23,23,0,0,0,411.54,148.19Z"/><path class="cls-4" d="M306.18,205.35v21.2a5.33,5.33,0,0,1-5.33,5.33h0a5.33,5.33,0,0,1-5.33-5.33v-21.2a3,3,0,0,0-3.32-3,80,80,0,0,0,0,159,3,3,0,0,0,3.32-3v-21.2a5.33,5.33,0,0,1,5.33-5.33h0a5.33,5.33,0,0,1,5.33,5.33v21.2a3,3,0,0,0,3.32,3,80,80,0,0,0,0-159A3,3,0,0,0,306.18,205.35Z"/><circle class="cls-5" cx="300.86" cy="281.88" r="67"/><path class="cls-6" d="M331.81,222.46,268.9,340.78a67,67,0,1,0,62.91-118.32Z"/><circle class="cls-7" cx="270.86" cy="281.88" r="10"/><circle class="cls-7" cx="330.86" cy="281.88" r="10"/></svg>