<svg id="Contenido" xmlns="http://www.w3.org/2000/svg" xmlns:xlink="http://www.w3.org/1999/xlink" viewBox="0 0 600 600"><defs><style>.cls-1{fill:url(#Degradado_sin_nombre_25);}.cls-2{fill:url(#Degradado_sin_nombre_25-2);}.cls-3{fill:url(#Degradado_sin_nombre_25-3);}.cls-4{fill:url(#Degradado_sin_nombre_25-4);}.cls-5{fill:#2dcccd;}.cls-6{fill:#5bbeff;}.cls-7{fill:#1973b8;}.cls-8{fill:#004481;}.cls-10,.cls-9{font-size:50px;fill:#fff;font-family:BentonSansBBVA-Bold, Benton Sans BBVA;font-weight:700;}.cls-9{letter-spacing:-0.03em;}</style><linearGradient id="Degradado_sin_nombre_25" x1="216.02" y1="101.95" x2="391.31" y2="431.63" gradientUnits="userSpaceOnUse"><stop offset="0" stop-color="#1c2645" stop-opacity="0.5"/><stop offset="1" stop-color="#1c2645" stop-opacity="0"/></linearGradient><linearGradient id="Degradado_sin_nombre_25-2" x1="216.17" y1="141.99" x2="389" y2="467.03" xlink:href="#Degradado_sin_nombre_25"/><linearGradient id="Degradado_sin_nombre_25-3" x1="216.62" y1="182.59" x2="387.41" y2="503.78" xlink:href="#Degradado_sin_nombre_25"/><linearGradient id="Degradado_sin_nombre_25-4" x1="217.31" y1="223.63" x2="386.37" y2="541.58" xlink:href="#Degradado_sin_nombre_25"/></defs><polygon class="cls-1" points="424.22 186.49 149.5 186.49 118.34 186.49 118.34 247.89 149.5 247.89 424.22 247.89 452.56 217.19 424.22 186.49"/><polygon class="cls-2" points="460.59 260.43 185.87 260.43 118.34 260.43 118.34 321.83 185.87 321.83 460.59 321.83 488.92 291.13 460.59 260.43"/><polygon class="cls-3" points="496.95 334.38 222.24 334.38 118.34 334.38 118.34 395.78 222.24 395.78 496.95 395.78 525.29 365.08 496.95 334.38"/><polygon class="cls-4" points="533.32 408.32 258.6 408.32 118.34 408.32 118.34 469.72 258.6 469.72 533.32 469.72 561.66 439.02 533.32 408.32"/><polygon class="cls-5" points="384.22 154.94 109.5 154.94 78.34 154.94 78.34 216.34 109.5 216.34 384.22 216.34 412.56 185.64 384.22 154.94"/><polygon class="cls-6" points="420.59 228.88 145.87 228.88 78.34 228.88 78.34 290.28 145.87 290.28 420.59 290.28 448.92 259.58 420.59 228.88"/><polygon class="cls-7" points="456.95 302.82 182.24 302.82 78.34 302.82 78.34 364.23 182.24 364.23 456.95 364.23 485.29 333.52 456.95 302.82"/><polygon class="cls-8" points="493.32 376.77 218.6 376.77 78.34 376.77 78.34 438.17 218.6 438.17 493.32 438.17 521.66 407.47 493.32 376.77"/><text class="cls-9" transform="translate(93.55 204.92)">A</text><text class="cls-10" transform="translate(93.55 280.07)">B</text><text class="cls-10" transform="translate(93.55 355.22)">C</text><text class="cls-10" transform="translate(93.55 430.36)">D</text></svg>