<svg xmlns="http://www.w3.org/2000/svg" xmlns:xlink="http://www.w3.org/1999/xlink" viewBox="0 0 600 600"><defs><style>.cls-1{fill:none;}.cls-2{fill:url(#Degradado_sin_nombre_61);}.cls-3{fill:url(#Degradado_sin_nombre_65);}.cls-4{fill:#043263;}.cls-5{fill:#2dcccd;}.cls-6{fill:url(#Degradado_sin_nombre_10);}.cls-7,.cls-8{opacity:0.7;isolation:isolate;}.cls-7{fill:url(#Degradado_sin_nombre_6);}.cls-8{fill:url(#Degradado_sin_nombre_6-2);}</style><linearGradient id="Degradado_sin_nombre_61" x1="327.09" y1="-2934.82" x2="411.74" y2="-3094.01" gradientTransform="matrix(1, 0, 0, -1, 0, -2726)" gradientUnits="userSpaceOnUse"><stop offset="0" stop-color="#192647" stop-opacity="0.5"/><stop offset="1" stop-color="#192647" stop-opacity="0"/></linearGradient><linearGradient id="Degradado_sin_nombre_65" x1="196.3" y1="-3074.99" x2="257.55" y2="-3190.18" xlink:href="#Degradado_sin_nombre_61"/><linearGradient id="Degradado_sin_nombre_10" x1="431.03" y1="-2931.47" x2="324.28" y2="-2931.47" gradientTransform="matrix(1, 0, 0, -1, 0, -2726)" gradientUnits="userSpaceOnUse"><stop offset="0" stop-color="#028484" stop-opacity="0.4"/><stop offset="1" stop-color="#028484" stop-opacity="0.1"/></linearGradient><linearGradient id="Degradado_sin_nombre_6" x1="260.14" y1="-3123.66" x2="171.55" y2="-3123.66" gradientTransform="matrix(1, 0, 0, -1, 0, -2726)" gradientUnits="userSpaceOnUse"><stop offset="0" stop-color="#072146" stop-opacity="0.8"/><stop offset="1" stop-color="#072146" stop-opacity="0.2"/></linearGradient><linearGradient id="Degradado_sin_nombre_6-2" x1="340.71" y1="-3036.02" x2="254.96" y2="-3036.02" xlink:href="#Degradado_sin_nombre_6"/></defs><title>5</title><g id="Cuadrados_blancos" data-name="Cuadrados blancos"><rect class="cls-1" width="600" height="600"/></g><g id="Capa_7" data-name="Capa 7"><path class="cls-2" d="M464.51,201.29h0c-.49-.84-1-1.59-1.51-2.38l-.48-.69c-.39-.57-.79-1.13-1.19-1.69l-.5-.68c-.54-.71-1.09-1.4-1.69-2.09l-.07-.09c-.6-.71-1.19-1.39-1.81-2.07l-.57-.6c-.45-.48-.91-1-1.38-1.43l-.6-.6c-.59-.57-1.18-1.13-1.79-1.69l-.2-.17c-.67-.6-1.34-1.17-2-1.69l-.67-.54-1.5-1.14c-.24-.19-.48-.36-.73-.54-.6-.43-1.21-.84-1.82-1.26l-.39-.26c-.72-.47-1.45-.92-2.19-1.36l-.8-.46c-.51-.3-1-.58-1.54-.85l-.84-.46c-.59-.3-1.18-.59-1.78-.84l-.6-.3c-.76-.35-1.52-.67-2.29-1l-1-.38-1.52-.58-1-.37-1.69-.54-.91-.29c-.76-.22-1.51-.43-2.27-.62l-1.1-.26-1.45-.33-1.18-.24-1.53-.26c-.41-.08-.85-.14-1.26-.2-.71-.1-1.42-.2-2.13-.27l-1.22-.11c-.46,0-.93-.09-1.39-.11l-1.27-.08h-2.89c-.69,0-1.38,0-2.07,0l-1.27.07c-.45,0-.9.05-1.34.09l-1.32.11-1.38.17a60.75,60.75,0,0,0-23.85,8.24l-83.18,50a61.27,61.27,0,0,0-26.3,72.46l-21.56,12.95a2.61,2.61,0,0,0-1.14,1.5l-1.44,5.3a2.53,2.53,0,0,0,1.77,3.11l.11,0,3.77.84a2.53,2.53,0,0,1,1.91,3s0,.07,0,.1l-1,3.73a2.53,2.53,0,0,0,1.78,3.11l.11,0,5.35,1.22a2.52,2.52,0,0,0,1.86-.3l21.6-13.08A61.3,61.3,0,0,0,357,337.15a35.89,35.89,0,0,1-16.77,37.36L311.7,391.64l-13.33,8a2.53,2.53,0,0,0,.74,4.64l.2,0a2.54,2.54,0,0,1,1.92,3l0,.12-1,3.72a2.53,2.53,0,0,0,1.77,3.11l.11,0,3.77.85a2.53,2.53,0,0,1,1.91,3l0,.1,0,.2a2.47,2.47,0,0,0,.46,2.24,2.55,2.55,0,0,0,2.16,1h0a2.75,2.75,0,0,0,.94-.27l.19-.1,41.85-25.14c.91-.55,1.8-1.12,2.67-1.69,1.26-.84,2.45-1.74,3.63-2.66a61.33,61.33,0,0,0,20-68.1l35.79-21.5,28.22-17A61.27,61.27,0,0,0,464.51,201.29ZM310.41,252l74-44.46h0l3.38-2,5.82-3.51a35.86,35.86,0,0,1,27.65-3.91,34.33,34.33,0,0,1,3.56,1.15c.62.23,1.24.48,1.85.75a35.78,35.78,0,0,1,19.87,42.61c-.3,1-.65,2.07-1,3.08-.13.33-.25.66-.39,1a35.33,35.33,0,0,1-2.72,5.21c-.25.4-.51.84-.79,1.2a35.52,35.52,0,0,1-5.23,6.05,31.29,31.29,0,0,1-2.77,2.3,35.2,35.2,0,0,1-3.05,2L366.5,302l-.5-.51c-.45-.48-.92-1-1.39-1.4l-.62-.61c-.57-.54-1.14-1.06-1.73-1.58l-.28-.25c-.67-.58-1.35-1.13-2-1.69l-.69-.53c-.49-.38-1-.74-1.48-1.11l-.78-.55-1.69-1.14-.53-.34c-.71-.46-1.44-.9-2.17-1.32l-.85-.47c-.49-.27-1-.54-1.47-.79l-1-.49c-.52-.26-1.05-.51-1.58-.75l-.85-.38c-.74-.33-1.49-.65-2.24-.95l-1.06-.4-1.39-.5-1.16-.4-1.4-.43c-.46-.13-.74-.24-1.11-.34-.74-.2-1.5-.4-2.25-.58l-1.28-.29-1.25-.26-1.35-.25-1.21-.19c-.66-.11-1.32-.2-2-.28l-1.6-.19-1.46-.11-1.11-.07-1.49-.06h-1.07q-2.64,0-5.28.15l-1,.07-1.55.16a8.89,8.89,0,0,0-1,.13,62.46,62.46,0,0,0-20,6.14A35.93,35.93,0,0,1,310.41,252Zm-3.47,59.12h0a36.7,36.7,0,0,1,17.64-2.94h.13a13.38,13.38,0,0,1,1.42.14h.26c.44.06.89.13,1.33.21l.33.05,1.27.24.37.09,1.23.29.39.11,1.2.34.4.13,1.17.4.36.13,1.2.46.16.08a36.8,36.8,0,0,1,3.74,1.81l.52.3c.27.15.54.32.81.49l.65.4.73.49.68.47.69.51.05,0a36,36,0,0,1-36.73-4.24Z"/><path class="cls-3" d="M301.36,419.42a2.52,2.52,0,0,0-1.42-.52l-2-.09-1.9-.1a2.53,2.53,0,0,1-2.41-2.64.49.49,0,0,1,0-.12l.28-3.12.07-.72h0a2.53,2.53,0,0,0-2.31-2.74h-.08l-3.72-.17-1.77-.09a1.82,1.82,0,0,0-.33,0,2.09,2.09,0,0,0-.78.2,2.17,2.17,0,0,0-.67.4l-21.87,19-8.52,7.4-.06.05c-.46.4-.94.79-1.41,1.17l-.5.37-1,.76-.59.38c-.32.22-.65.45-1,.66l-.6.35-1,.6-.59.31-1.07.56-.57.27-1.12.51-.54.22-1.19.47-.51.18-1.26.42-.45.13c-.44.14-.85.26-1.34.38l-.4.1-1.4.32-.36.07c-.49.09-1,.19-1.47.26l-.3.05c-.51.07-1,.14-1.55.19h-.24c-.53.05-1.07.09-1.61.12H228c-.6,0-1.19-.08-1.79-.14a35.26,35.26,0,0,1-23.73-12.36,35.9,35.9,0,0,1,3.94-50.13l31.85-27.69a2.53,2.53,0,0,0-1.53-4.44h-.21a2.53,2.53,0,0,1-2.41-2.64s0-.08,0-.12l.35-3.85a2.53,2.53,0,0,0-2.29-2.75h-.1l-3.84-.18a2.54,2.54,0,0,1-2.41-2.66.34.34,0,0,0,0-.1v-.2a2.53,2.53,0,0,0-4.22-2.15l-31.27,27.18c-25.42,22.1-28.86,60.76-7,86.37a60.77,60.77,0,0,0,30.32,19.28h0l.25.07,2.3.57.65.15c.85.17,1.62.34,2.44.48l.58.09c.72.12,1.45.22,2.17.32l.52.07c.84.09,1.69.18,2.53.25l.67,0c.84.06,1.68.11,2.53.13h3.28c.84,0,1.69-.06,2.53-.11h.54c.74-.06,1.5-.12,2.25-.21l.48,0c.84-.1,1.68-.23,2.53-.36l.62-.1c.85-.15,1.69-.31,2.53-.5h.13c.85-.19,1.65-.39,2.47-.6l.58-.16c.84-.22,1.69-.46,2.47-.73l.46-.15c.74-.24,1.49-.5,2.22-.78l.43-.15c.84-.32,1.62-.65,2.43-1l.54-.25c.84-.36,1.63-.73,2.43-1.14h0c.81-.39,1.6-.84,2.38-1.25l.51-.29c.78-.44,1.55-.89,2.31-1.37l.37-.24c.7-.45,1.4-.9,2.08-1.39l.36-.24c.75-.53,1.47-1.07,2.2-1.64l.45-.36c.75-.58,1.47-1.18,2.2-1.81l25.25-21.94,5.61-4.87h0a2.59,2.59,0,0,0,.84-1.68l.5-5.47a2.5,2.5,0,0,0-.32-1.49A2.65,2.65,0,0,0,301.36,419.42Z"/><path class="cls-4" d="M257.75,376.71l-3.86-.19a2.52,2.52,0,0,1-2.41-2.65v-.11l.36-3.85a2.53,2.53,0,0,0-2.29-2.75h-.11l-5.48-.26a2.52,2.52,0,0,0-1.78.62L211.8,393.92c-15.19,13.16-38.58,11.81-51.48-3.59a35.92,35.92,0,0,1,3.94-50.13l31.86-27.7a2.52,2.52,0,0,0-1.54-4.43h-.2a2.53,2.53,0,0,1-2.4-2.66v-.1l.35-3.85a2.53,2.53,0,0,0-2.29-2.75h-.11l-3.84-.2a2.52,2.52,0,0,1-2.41-2.65s0-.07,0-.1v-.21a2.52,2.52,0,0,0-2.25-2.78,2.49,2.49,0,0,0-2,.64L148.2,320.59c-25.42,22.09-28.86,60.76-7,86.36a61.25,61.25,0,0,0,86.35,6.8l.36-.3,25.26-21.94,5.6-4.88a2.51,2.51,0,0,0,.84-1.69l.5-5.48a2.53,2.53,0,0,0-2.29-2.75Z"/><path class="cls-4" d="M247.37,249.48l-40,24.06a2.51,2.51,0,0,0-1.14,1.51l-1.45,5.3a2.54,2.54,0,0,0,1.78,3.11l.1,0,3.77.85a2.54,2.54,0,0,1,1.92,3l0,.12-1,3.72A2.53,2.53,0,0,0,213,294.3l.11,0,5.37,1.2a2.5,2.5,0,0,0,1.85-.29l40.18-24.14c17.21-10.34,40-4.9,50.07,12.48A35.9,35.9,0,0,1,298,332.25l-41.85,25.16a2.53,2.53,0,0,0,.74,4.63l.19,0a2.53,2.53,0,0,1,1.92,3l0,.11L258,369a2.54,2.54,0,0,0,1.78,3.11l.1,0,3.78.84a2.55,2.55,0,0,1,1.91,3l0,.11,0,.2a2.52,2.52,0,0,0,3.74,2.83L311.07,354a61.26,61.26,0,0,0,20.85-84.09l-.24-.38C314.06,240.79,276.25,232.14,247.37,249.48Z"/><path class="cls-5" d="M338.36,138.15l-83.18,50A61.17,61.17,0,0,0,314.8,294.9a35.55,35.55,0,0,0-4.22-11.31,34.82,34.82,0,0,0-9.13-10.35,35.86,35.86,0,0,1-33.27-63.4l83.22-50a35.86,35.86,0,0,1,36.94,61.48l-64,38.47a60.24,60.24,0,0,1,7.38,9.68,60.87,60.87,0,0,1,5.68,12l64-38.47a61.18,61.18,0,0,0-63-104.89Z"/><path class="cls-6" d="M422.32,159.1a61.29,61.29,0,0,0-61.33-29L342.2,165.37l9.18-5.51a35.86,35.86,0,0,1,36.94,61.48h0l-64,38.47a60.3,60.3,0,0,1,7.39,9.68,62,62,0,0,1,5.68,12l64-38.47A61.25,61.25,0,0,0,422.32,159.1Z"/><path class="cls-7" d="M257.75,376.71l-3.86-.19a2.52,2.52,0,0,1-2.41-2.65v-.11l.36-3.85a2.53,2.53,0,0,0-2.29-2.75h-.11l-5.48-.26a2.52,2.52,0,0,0-1.78.62L211.8,393.92a36.79,36.79,0,0,1-27.75,8.8l-12.5,23.51a61.17,61.17,0,0,0,56.38-12.78l25.26-21.94,5.6-4.88a2.56,2.56,0,0,0,.85-1.69l.49-5.48a2.53,2.53,0,0,0-2.29-2.75Z"/><path class="cls-8" d="M331.68,269.49c-13.29-21.64-38.06-31.88-61.82-28.17l-11.38,21.4a36.18,36.18,0,0,0,6.27,6.22c16.56-7.22,36.62-1.35,45.86,14.65A35.9,35.9,0,0,1,298,332.26l-41.85,25.15a2.53,2.53,0,0,0,.74,4.63l.19,0a2.53,2.53,0,0,1,1.92,3l0,.11L258,369a2.54,2.54,0,0,0,1.78,3.11l.1,0,3.78.84a2.55,2.55,0,0,1,1.91,3l0,.11,0,.2a2.52,2.52,0,0,0,3.74,2.83L311.07,354a61.27,61.27,0,0,0,20.84-84.09Z"/></g></svg>