<svg id="Contenido" xmlns="http://www.w3.org/2000/svg" xmlns:xlink="http://www.w3.org/1999/xlink" viewBox="0 0 600 600"><defs><style>.cls-1{fill:url(#Degradado_sin_nombre_17);}.cls-2{fill:#4ea5e2;}.cls-3{fill-rule:evenodd;opacity:0.5;isolation:isolate;fill:url(#Degradado_sin_nombre_29);}.cls-4{fill:#d4ecfa;}.cls-5{fill:#07467f;}.cls-6{fill:#d72544;}.cls-7{fill:#fff;}.cls-8{fill:none;}</style><linearGradient id="Degradado_sin_nombre_17" x1="246.66" y1="178.26" x2="427.69" y2="518.73" gradientUnits="userSpaceOnUse"><stop offset="0" stop-color="#192647" stop-opacity="0.5"/><stop offset="1" stop-color="#192647" stop-opacity="0"/></linearGradient><linearGradient id="Degradado_sin_nombre_29" x1="139.77" y1="-11101.99" x2="302.85" y2="-11015.28" gradientTransform="translate(0 11331.13)" gradientUnits="userSpaceOnUse"><stop offset="0" stop-color="#e9f8f9"/><stop offset="1" stop-color="#e9f8f9" stop-opacity="0"/></linearGradient></defs><title>error_account</title><path class="cls-1" d="M536.47,456.84,496.6,387.69v-157a10.1,10.1,0,0,0-10.08-10.08H169a8.13,8.13,0,0,0-8.17,8.09v.58a10.88,10.88,0,0,0-.1,1.41V432.84a9.8,9.8,0,0,0,.1,1.33v.52a8,8,0,0,0,7.73,8.27H331.15v0h67.18l-8,13.81a3.48,3.48,0,0,0,1.3,4.8,3.37,3.37,0,0,0,1.7.5h140.1a3.54,3.54,0,0,0,3.5-3.5A3.37,3.37,0,0,0,536.47,456.84Z"/><path class="cls-2" d="M110.16,172.8H425.85a10.1,10.1,0,0,1,10.08,10.08V385a10.12,10.12,0,0,1-10.08,10.09H110.16A10.12,10.12,0,0,1,100.08,385V182.88A10,10,0,0,1,110,172.8Z"/><path class="cls-3" d="M108.25,395.12H270.48L379.57,172.8H108.35a8.13,8.13,0,0,0-8.17,8.09V181h0V386.85a8,8,0,0,0,7.73,8.27Z"/><rect class="cls-4" x="130.13" y="281.59" width="125.53" height="29.54"/><rect class="cls-4" x="130.13" y="331.39" width="274.05" height="29.54"/><path class="cls-5" d="M238.51,207.58l-12.09,23a.78.78,0,0,1-1,.3l-.3-.3-12.1-23a.83.83,0,0,0-.61-.4h-5.85a.47.47,0,0,0-.5.44v.06c0,.1,0,.2.1.2l19.06,35.59a.68.68,0,0,0,.9.31l.31-.31,19-35.59a.56.56,0,0,0-.2-.7c-.1,0-.2-.1-.3-.1h-5.85a1,1,0,0,0-.61.5"/><path class="cls-5" d="M245.37,238.33l12.1-23a.78.78,0,0,1,1-.3l.3.3,12.1,23a.83.83,0,0,0,.61.41h5.84a.48.48,0,0,0,.51-.45v-.06c0-.1,0-.2-.1-.2l-19.06-35.59a.69.69,0,0,0-.91-.3l-.3.3-19,35.49a.57.57,0,0,0,.21.7c.1,0,.1.11.2.11h5.85a1,1,0,0,0,.6-.41"/><path class="cls-5" d="M155,238.63H144.14a.67.67,0,0,1-.7-.66v0h0v-9.78a.69.69,0,0,1,.67-.71H155c5.14,0,7.46,1.52,7.46,5.55s-2.22,5.64-7.46,5.64m-10.89-26.11H154.8c3.93,0,5.95,1.71,5.95,4.84s-2,4.84-5.95,4.84H144.14a.69.69,0,0,1-.7-.68v0h0v-8.26a.69.69,0,0,1,.67-.71h0m18.65,11.7a8.09,8.09,0,0,0,4.14-7.36c0-5.75-4.44-9.58-10.79-9.58H138a.67.67,0,0,0-.7.66v0h0v35.39a.69.69,0,0,0,.67.71h17.37c8.67,0,13.21-3.73,13.21-11s-5.75-8.87-5.75-8.87"/><path class="cls-5" d="M192.13,238.63H181.25a.69.69,0,0,1-.71-.67v-9.81a.69.69,0,0,1,.67-.71h10.92c5.15,0,7.47,1.52,7.47,5.55s-2.22,5.64-7.47,5.64m-10.88-26.11h10.68c3.94,0,5.95,1.71,5.95,4.84s-2,4.84-5.95,4.84H181.25a.69.69,0,0,1-.71-.67v-8.3a.69.69,0,0,1,.67-.71h0M200,224.22a8.1,8.1,0,0,0,4.13-7.36c0-5.75-4.43-9.58-10.79-9.58H175.2a.69.69,0,0,0-.71.67v0h0v35.39a.69.69,0,0,0,.67.71h17.38c8.67,0,13.21-3.73,13.21-11s-5.75-8.87-5.75-8.87"/><path class="cls-6" d="M399.7,287.59l-70,121.3a3.48,3.48,0,0,0,1.3,4.8,3.37,3.37,0,0,0,1.7.5H472.8a3.54,3.54,0,0,0,3.5-3.5,3.37,3.37,0,0,0-.5-1.7l-70-121.4a3.48,3.48,0,0,0-4.8-1.3A4,4,0,0,0,399.7,287.59Z"/><path class="cls-7" d="M402.2,372.59a5.8,5.8,0,0,1-5.8-5.8v-33.9a5.8,5.8,0,0,1,11.6,0v33.9A5.8,5.8,0,0,1,402.2,372.59Z"/><path class="cls-7" d="M402.2,391.19a3.75,3.75,0,0,1-1.1-.1l-1.1-.3a3.13,3.13,0,0,1-1-.5c-.3-.2-.6-.5-.9-.7a5.83,5.83,0,0,1-1.7-4.1,3.75,3.75,0,0,1,.1-1.1c.1-.4.2-.7.3-1.1a3.13,3.13,0,0,1,.5-1c.2-.3.5-.6.7-.9a5.5,5.5,0,0,1,.9-.7,4.67,4.67,0,0,1,1-.5,4.51,4.51,0,0,1,1.1-.3,5.82,5.82,0,0,1,5.3,1.6,5.5,5.5,0,0,1,.7.9,4.67,4.67,0,0,1,.5,1,6.4,6.4,0,0,1,.4,2.2,5.83,5.83,0,0,1-1.7,4.1A6.16,6.16,0,0,1,402.2,391.19Z"/><rect class="cls-8" width="600" height="600"/><rect class="cls-8" width="600" height="600"/></svg>