<svg id="Contenido" xmlns="http://www.w3.org/2000/svg" xmlns:xlink="http://www.w3.org/1999/xlink" viewBox="0 0 600 600"><defs><style>.cls-1{fill:url(#Degradado_sin_nombre_9);}.cls-2{fill:url(#Degradado_sin_nombre_9-2);}.cls-3{fill:#1464a5;}.cls-4{fill:#2dcccd;}.cls-5{fill:url(#Degradado_sin_nombre_33);}.cls-6{fill:url(#Degradado_sin_nombre_40);}.cls-7{fill:url(#Degradado_sin_nombre_40-2);}</style><linearGradient id="Degradado_sin_nombre_9" x1="357.08" y1="216.76" x2="457.43" y2="405.49" gradientUnits="userSpaceOnUse"><stop offset="0" stop-color="#192647"/><stop offset="0" stop-color="#192647" stop-opacity="0.5"/><stop offset="1" stop-color="#192647" stop-opacity="0"/></linearGradient><linearGradient id="Degradado_sin_nombre_9-2" x1="202.17" y1="383.03" x2="274.69" y2="519.42" xlink:href="#Degradado_sin_nombre_9"/><linearGradient id="Degradado_sin_nombre_33" x1="480.28" y1="212.95" x2="353.79" y2="212.95" gradientUnits="userSpaceOnUse"><stop offset="0" stop-color="#028484" stop-opacity="0.4"/><stop offset="1" stop-color="#028484" stop-opacity="0.1"/></linearGradient><linearGradient id="Degradado_sin_nombre_40" x1="277.78" y1="440.7" x2="172.76" y2="440.7" gradientUnits="userSpaceOnUse"><stop offset="0.01" stop-color="#043263" stop-opacity="0.4"/><stop offset="1" stop-color="#043263" stop-opacity="0.1"/></linearGradient><linearGradient id="Degradado_sin_nombre_40-2" x1="373.25" y1="336.86" x2="271.6" y2="336.86" xlink:href="#Degradado_sin_nombre_40"/></defs><title>error_conexion</title><path class="cls-1" d="M519.94,208h0c-.58-1-1.18-1.89-1.79-2.82l-.57-.82c-.46-.68-.93-1.34-1.41-2l-.59-.81c-.64-.84-1.29-1.66-2-2.47l-.09-.11c-.7-.84-1.41-1.65-2.14-2.45l-.67-.72c-.54-.57-1.08-1.14-1.64-1.69l-.71-.71c-.7-.68-1.4-1.34-2.12-2l-.24-.21c-.79-.71-1.59-1.38-2.41-2l-.79-.64c-.59-.46-1.18-.91-1.78-1.35-.28-.22-.57-.43-.86-.64-.71-.51-1.43-1-2.16-1.49l-.46-.31c-.85-.56-1.72-1.09-2.59-1.61l-.95-.55q-.92-.53-1.83-1l-1-.55c-.69-.36-1.39-.7-2.1-1l-.72-.35c-.89-.41-1.8-.8-2.71-1.18l-1.13-.45-1.79-.68-1.22-.44-2-.64-1.08-.34c-.89-.26-1.79-.51-2.69-.74l-1.3-.31-1.72-.39-1.39-.28-1.82-.31c-.49-.09-1-.17-1.49-.24-.84-.12-1.68-.23-2.53-.32l-1.44-.13c-.55,0-1.1-.1-1.65-.13l-1.5-.09-1.7,0-1.73,0c-.82,0-1.63,0-2.45.05l-1.51.08c-.53,0-1.06.06-1.59.11l-1.56.13-1.63.2a72,72,0,0,0-28.27,9.76l-98.57,59.23a72.62,72.62,0,0,0-31.17,85.87l-25.54,15.34a3.06,3.06,0,0,0-1.35,1.78l-1.71,6.28a3,3,0,0,0,2.23,3.72l4.46,1a3,3,0,0,1,2.24,3.71l-1.21,4.42a3,3,0,0,0,2.24,3.71l6.35,1.44a3,3,0,0,0,2.2-.35L306.19,354a72.62,72.62,0,0,0,86.34,15,42.54,42.54,0,0,1-19.88,44.27l-33.79,20.3-15.8,9.5a3,3,0,0,0,.88,5.5l.23.05a3,3,0,0,1,2.24,3.72l-1.21,4.41a3,3,0,0,0,2.23,3.72l4.47,1a3,3,0,0,1,2.23,3.71l-.06.24a2.93,2.93,0,0,0,.55,2.66,3,3,0,0,0,2.55,1.13h0a3.16,3.16,0,0,0,1.12-.32l.22-.11,49.6-29.8c1.07-.65,2.13-1.32,3.16-2,1.49-1,2.91-2.06,4.3-3.15a72.68,72.68,0,0,0,23.7-80.7l42.41-25.48,33.45-20.1A72.59,72.59,0,0,0,519.94,208ZM337.33,268.12,425,215.43h0l4-2.39,6.9-4.15A42.35,42.35,0,0,1,458,202.83a43,43,0,0,1,10.66,1.42,42.47,42.47,0,0,1,4.23,1.36c.73.28,1.46.57,2.19.89A42.41,42.41,0,0,1,498.62,257c-.35,1.23-.77,2.45-1.23,3.65-.15.39-.3.78-.46,1.16a42.55,42.55,0,0,1-3.22,6.17c-.3.48-.61,1-.94,1.43a42.44,42.44,0,0,1-6.2,7.17c-1,.95-2.13,1.86-3.28,2.72a41.28,41.28,0,0,1-3.61,2.42l-75.88,45.6c-.2-.21-.4-.4-.59-.61-.54-.56-1.09-1.12-1.65-1.66l-.74-.72c-.67-.64-1.35-1.26-2.05-1.87l-.33-.3c-.79-.68-1.6-1.34-2.42-2l-.81-.63c-.58-.45-1.17-.88-1.76-1.31l-.92-.65c-.66-.46-1.34-.91-2-1.35l-.63-.41c-.84-.54-1.71-1.06-2.58-1.56l-1-.56c-.58-.32-1.16-.64-1.75-.94l-1.13-.58c-.62-.31-1.25-.6-1.88-.89l-1-.45c-.88-.39-1.77-.76-2.66-1.12l-1.25-.47-1.65-.6-1.37-.47c-.55-.18-1.11-.35-1.66-.51s-.88-.28-1.32-.4q-1.32-.37-2.67-.69l-1.51-.34c-.49-.11-1-.22-1.48-.31s-1.06-.21-1.6-.3l-1.44-.23c-.78-.12-1.56-.23-2.35-.33l-1.9-.22-1.73-.13-1.32-.09-1.76-.07-1.27,0q-3.12,0-6.26.18l-1.22.09-1.83.19c-.41,0-.81.1-1.21.15a73.69,73.69,0,0,0-23.66,7.28A42.58,42.58,0,0,1,337.33,268.12Zm-4.11,70.05h0a43.52,43.52,0,0,1,20.9-3.48l.15,0c.57,0,1.13.1,1.69.17l.3,0c.53.07,1.06.15,1.58.24l.39.06,1.51.29.44.1,1.45.35.47.13,1.42.4.47.16c.46.15.93.3,1.39.47l.42.15,1.43.55.19.09a43.06,43.06,0,0,1,4.43,2.15l.62.35c.32.18.63.38.95.58s.52.31.77.48l.87.58.8.56.82.6.06.05A42.62,42.62,0,0,1,333.22,338.17Z"/><path class="cls-2" d="M326.61,466.49a3,3,0,0,0-1.69-.62l-2.32-.11-2.25-.11a3,3,0,0,1-2.85-3.27l.34-3.7.08-.86h0v0a3,3,0,0,0-2.84-3.25l-4.4-.21-2.1-.1a2.55,2.55,0,0,0-.39,0,2.71,2.71,0,0,0-.93.23,2.66,2.66,0,0,0-.79.48L280.55,477.5l-10.09,8.77-.07.06q-.83.71-1.68,1.38l-.59.44c-.4.3-.8.61-1.21.9l-.69.45c-.39.26-.78.53-1.18.78-.23.15-.47.28-.71.42l-1.2.71-.7.37-1.26.66-.68.32-1.33.6-.64.26c-.47.2-.94.38-1.41.56l-.6.21c-.49.17-1,.35-1.49.5l-.54.16c-.52.16-1,.31-1.58.45l-.48.12-1.66.38-.42.08c-.58.11-1.16.22-1.75.31l-.35.05c-.61.09-1.22.17-1.84.23l-.28,0c-.63.06-1.27.11-1.91.14H244c-.66,0-1.33,0-2,0h-.15c-.68,0-1.37,0-2.06,0h-.08c-.71,0-1.41-.09-2.12-.16A41.82,41.82,0,0,1,209.46,482a42.55,42.55,0,0,1,4.67-59.4l37.75-32.82a3,3,0,0,0-1.82-5.26h-.24a3,3,0,0,1-2.85-3.27l.42-4.56a3,3,0,0,0-2.84-3.27L240,373.2a3,3,0,0,1-2.84-3.27l0-.24a3,3,0,0,0-5-2.54l-37.06,32.21c-30.12,26.19-34.2,72-8.31,102.35a72.12,72.12,0,0,0,35.93,22.85h0l.3.08c.91.24,1.82.46,2.73.67l.77.18c1,.2,1.92.4,2.89.57l.68.11c.86.14,1.72.26,2.58.38l.61.08c1,.11,2,.21,3,.29l.79.05c1,.07,2,.13,3,.16h.27c.95,0,1.9,0,2.85,0l.77,0c1,0,2-.07,3-.13l.64,0c.88-.07,1.77-.15,2.66-.25l.57-.06c1-.12,2-.27,3-.43l.74-.12c1-.18,2-.37,3-.59l.15,0c1-.22,1.95-.46,2.92-.71l.69-.19c1-.26,2-.55,2.93-.86l.54-.18q1.33-.43,2.64-.93l.5-.18c1-.37,1.92-.76,2.88-1.17l.64-.29c1-.43,1.94-.87,2.89-1.35l0,0c.95-.47,1.89-1,2.82-1.49l.6-.34c.92-.52,1.84-1.06,2.74-1.62l.44-.29c.83-.53,1.65-1.07,2.46-1.64l.43-.29c.88-.63,1.74-1.27,2.6-1.94l.54-.43c.88-.69,1.74-1.4,2.6-2.14l29.93-26,6.64-5.77h0a3.11,3.11,0,0,0,1-2l.59-6.48a2.92,2.92,0,0,0-.38-1.76A3,3,0,0,0,326.61,466.49Z"/><path class="cls-3" d="M274.92,415.87l-4.57-.22a3,3,0,0,1-2.85-3.27l.42-4.56a3,3,0,0,0-2.84-3.27l-6.5-.31a3,3,0,0,0-2.11.73l-36,31.3c-18,15.6-45.71,14-61-4.26a42.55,42.55,0,0,1,4.67-59.4l37.75-32.82a3,3,0,0,0-1.82-5.26h-.24a3,3,0,0,1-2.84-3.27l.41-4.56a3,3,0,0,0-2.84-3.27L190,323.2a3,3,0,0,1-2.84-3.27l0-.24a3,3,0,0,0-5-2.54l-37.06,32.22c-30.12,26.18-34.2,72-8.31,102.34a72.58,72.58,0,0,0,102.75,7.7l29.93-26,6.64-5.78a3,3,0,0,0,1-2l.59-6.49A3,3,0,0,0,274.92,415.87Z"/><path class="cls-3" d="M262.63,265.1l-47.46,28.52a3,3,0,0,0-1.35,1.79l-1.71,6.28a3,3,0,0,0,2.23,3.71l4.46,1a3,3,0,0,1,2.24,3.72l-1.21,4.41a3,3,0,0,0,2.23,3.72l6.36,1.43a3,3,0,0,0,2.2-.35l47.61-28.61c20.39-12.25,47.44-5.8,59.34,14.79a42.55,42.55,0,0,1-14.91,57.68L273.06,393a3,3,0,0,0,.88,5.49l.23.06a3,3,0,0,1,2.24,3.71l-1.21,4.42a3,3,0,0,0,2.23,3.71l4.47,1a3,3,0,0,1,2.23,3.72l-.06.23a3,3,0,0,0,4.44,3.36l49.6-29.8a72.59,72.59,0,0,0,24.43-100.1C341.65,254.81,296.85,244.55,262.63,265.1Z"/><path class="cls-4" d="M370.45,133.18l-98.57,59.23a72.49,72.49,0,0,0,70.65,126.52,42.24,42.24,0,0,0-5-13.41,41.34,41.34,0,0,0-10.82-12.26,42.49,42.49,0,0,1-39.42-75.13L385.9,158.9a42.5,42.5,0,0,1,43.78,72.86l-75.89,45.59a71.3,71.3,0,0,1,8.75,11.47,72.69,72.69,0,0,1,6.73,14.24l75.86-45.59a72.5,72.5,0,1,0-74.68-124.29Z"/><path class="cls-5" d="M469.94,158a72.62,72.62,0,0,0-72.67-34.39L375,165.43l10.88-6.53a42.5,42.5,0,0,1,43.78,72.86l-75.89,45.59a71.3,71.3,0,0,1,8.75,11.47,72.69,72.69,0,0,1,6.73,14.24l75.86-45.59A72.58,72.58,0,0,0,469.94,158Z"/><path class="cls-6" d="M274.92,415.87l-4.57-.22a3,3,0,0,1-2.85-3.27l.42-4.56a3,3,0,0,0-2.84-3.27l-6.5-.31a3,3,0,0,0-2.11.73l-36,31.3a43.59,43.59,0,0,1-32.88,10.43l-14.82,27.86a72.5,72.5,0,0,0,66.82-15.15l29.93-26,6.64-5.78a3,3,0,0,0,1-2l.59-6.49A3,3,0,0,0,274.92,415.87Z"/><path class="cls-7" d="M362.54,288.82c-15.76-25.65-45.11-37.78-73.27-33.38l-13.48,25.35a42.52,42.52,0,0,0,7.43,7.38c19.62-8.56,43.4-1.6,54.35,17.35a42.55,42.55,0,0,1-14.91,57.68L273.06,393a3,3,0,0,0,.88,5.49l.23.06a3,3,0,0,1,2.24,3.71l-1.21,4.42a3,3,0,0,0,2.23,3.71l4.47,1a3,3,0,0,1,2.23,3.72l-.06.23a3,3,0,0,0,4.44,3.36l49.6-29.8A72.59,72.59,0,0,0,362.54,288.82Z"/></svg>