<svg id="Capa_1" data-name="Capa 1" xmlns="http://www.w3.org/2000/svg" xmlns:xlink="http://www.w3.org/1999/xlink" viewBox="0 0 600 600"><defs><style>.cls-1{fill:url(#Degradado_sin_nombre_6);}.cls-2{fill:#da3951;}.cls-3{fill:#fff;}</style><linearGradient id="Degradado_sin_nombre_6" x1="213.19" y1="180.18" x2="366" y2="467.57" gradientUnits="userSpaceOnUse"><stop offset="0" stop-color="#1a2542" stop-opacity="0.5"/><stop offset="1" stop-color="#1a2542" stop-opacity="0"/></linearGradient></defs><title>Alert-micro</title><path class="cls-1" d="M208.09,502.52H541.56a18.35,18.35,0,0,0,15.94-27.45L390.78,183a18.35,18.35,0,0,0-31.88,0L192.15,475.07A18.35,18.35,0,0,0,208.09,502.52Z"/><path class="cls-2" d="M124.92,434.82H458.39a18.36,18.36,0,0,0,15.94-27.46L307.6,115.26a18.35,18.35,0,0,0-31.88,0L109,407.36A18.36,18.36,0,0,0,124.92,434.82Z"/><path class="cls-3" d="M291.65,340.9a14.47,14.47,0,0,1-14.47-14.48v-121a14.48,14.48,0,1,1,28.95,0v121A14.48,14.48,0,0,1,291.65,340.9Z"/><circle class="cls-3" cx="291.65" cy="380.33" r="16.89"/></svg>