<svg xmlns="http://www.w3.org/2000/svg" xmlns:xlink="http://www.w3.org/1999/xlink" viewBox="0 0 600 600"><defs><style>.cls-1{fill:none;}.cls-2{fill:url(#Degradado_sin_nombre_79);}.cls-3{fill:#f8cd51;}.cls-4{fill:url(#Degradado_sin_nombre_13);}.cls-5{fill:#fef5dc;}</style><linearGradient id="Degradado_sin_nombre_79" x1="287.31" y1="290.79" x2="381.61" y2="468.15" gradientUnits="userSpaceOnUse"><stop offset="0" stop-color="#192647" stop-opacity="0.5"/><stop offset="1" stop-color="#192647" stop-opacity="0"/></linearGradient><linearGradient id="Degradado_sin_nombre_13" x1="262.16" y1="-2628.99" x2="339.15" y2="-2669.92" gradientTransform="matrix(1, 0, 0, -1, 0, -2356)" gradientUnits="userSpaceOnUse"><stop offset="0" stop-color="#fff" stop-opacity="0.6"/><stop offset="1" stop-color="#fff" stop-opacity="0.2"/></linearGradient></defs><g id="Cuadrados_Blancos" data-name="Cuadrados Blancos"><rect class="cls-1" width="600" height="600"/></g><g id="Capa_20" data-name="Capa 20"><path class="cls-2" d="M385.72,267.73a93,93,0,0,0-89.5,68.21H203.08a2.79,2.79,0,0,0-2.78,2.78v23.81a2.79,2.79,0,0,0,2.78,2.78H293a91,91,0,0,0,.93,9.26H203.08a2.79,2.79,0,0,0-2.78,2.78v23.81a2.78,2.78,0,0,0,2.78,2.78H303.62a90.7,90.7,0,0,0,5.62,9.27H203.08A2.78,2.78,0,0,0,200.3,416v23.8a2.79,2.79,0,0,0,2.78,2.78H342a92.84,92.84,0,0,0,136.69-81.9v0A93,93,0,0,0,385.72,267.73Z"/><path class="cls-3" d="M297.15,396.07H156.58a2.79,2.79,0,0,1-2.78-2.78v-23.8a2.78,2.78,0,0,1,2.78-2.78H297.15Z"/><path class="cls-3" d="M297.15,357.44H156.58a2.78,2.78,0,0,1-2.78-2.78V330.85a2.79,2.79,0,0,1,2.78-2.78H297.15Z"/><path class="cls-3" d="M297.15,318.81H156.58A2.79,2.79,0,0,1,153.8,316V292.22a2.79,2.79,0,0,1,2.78-2.78H297.15Z"/><path class="cls-3" d="M432.22,314.17a92.93,92.93,0,1,1-93-92.94h0a93,93,0,0,1,93,92.9v0"/><path class="cls-3" d="M297.15,396.07H156.58a2.79,2.79,0,0,1-2.78-2.78v-23.8a2.78,2.78,0,0,1,2.78-2.78H297.15Z"/><path class="cls-3" d="M297.15,357.44H156.58a2.78,2.78,0,0,1-2.78-2.78V330.85a2.79,2.79,0,0,1,2.78-2.78H297.15Z"/><path class="cls-3" d="M297.15,318.81H156.58A2.79,2.79,0,0,1,153.8,316V292.22a2.79,2.79,0,0,1,2.78-2.78H297.15Z"/><path class="cls-3" d="M432.22,314.17a92.93,92.93,0,1,1-93-92.94h0a93,93,0,0,1,93,92.9v0"/><path class="cls-4" d="M382.86,231.94c-45.22-24.05-101.28-6.7-125.56,38.42S250.48,372,295.69,396Z"/><path class="cls-5" d="M306.8,310.75H294.15v-9.54h13.79c3.84-21.49,17.21-31.3,32.7-31.3,16.36,0,25,8.4,29.29,18.92l-12,6.83c-3-9-8.25-13.23-17.21-13.23-9.53,0-16.35,6.12-18.77,18.78h21.48v9.54H320.91v3c0,1.72,0,3.42.15,5h22.46v9.67H322.21c2.41,11.82,8.34,17.94,18.77,17.94,9,0,14.36-4,17.6-13.95l11.8,7.12c-4.83,11.12-14.83,19.07-29.57,19.07-16.07,0-28.73-9.54-32.71-30.18H294.2v-9.67H307c-.14-1.57-.14-3.13-.14-4.7v-3.27Z"/></g></svg>