<svg xmlns="http://www.w3.org/2000/svg" xmlns:xlink="http://www.w3.org/1999/xlink" viewBox="0 0 600 600"><defs><style>.cls-1{fill:none;}.cls-2{fill:url(#Degradado_sin_nombre_370);}.cls-3{fill:#043263;}.cls-4{fill:#072146;}.cls-5{fill:#004481;}.cls-6{fill:#1464a5;}.cls-7{fill:url(#Degradado_sin_nombre_49);}.cls-8{fill:#f8d12e;}</style><linearGradient id="Degradado_sin_nombre_370" x1="243.21" y1="201.84" x2="429.39" y2="551.99" gradientUnits="userSpaceOnUse"><stop offset="0" stop-color="#192647" stop-opacity="0.5"/><stop offset="1" stop-color="#192647" stop-opacity="0"/></linearGradient><linearGradient id="Degradado_sin_nombre_49" x1="2762.56" y1="-10202.53" x2="2582.97" y2="-10298.02" gradientTransform="matrix(0.88, 0.47, 0.47, -0.88, 2846.46, -9989.64)" gradientUnits="userSpaceOnUse"><stop offset="0" stop-color="#004481" stop-opacity="0.8"/><stop offset="1" stop-color="#004481" stop-opacity="0"/></linearGradient></defs><g id="Cuadrados_Blancos" data-name="Cuadrados Blancos"><rect class="cls-1" width="600" height="600"/></g><g id="Capa_100" data-name="Capa 100"><path class="cls-2" d="M544.2,353.29l-37-19.7L528.77,293h0a23,23,0,0,0-9.51-31.1L335.61,164.2h0a23,23,0,0,0-31.1,9.51L215.92,340.22a23,23,0,0,0-1.76,24.62L148.47,488.37a3,3,0,0,0,1.24,4.06L170.9,503.7a3,3,0,0,0,4.06-1.24l85.47-160.75L383.14,407l-32.38,60.91a23,23,0,0,0,9.51,31.1l83,44.13a3,3,0,0,0,4.05-1.24l98.12-184.54A3,3,0,0,0,544.2,353.29Z"/><path class="cls-3" d="M196.92,285.23a23,23,0,0,0-22.06,40.37l.46.24Z"/><path class="cls-4" d="M192.45,265.93,218.94,280h0L126.46,454a3,3,0,0,1-4.06,1.24h0l-21.19-11.27a3,3,0,0,1-1.24-4.06h0l92.48-173.94Z"/><path class="cls-5" d="M392.4,249.86l103.3,54.93a3,3,0,0,1,1.24,4L398.82,493.38a3,3,0,0,1-4.05,1.24l-83-44.13a23,23,0,0,1-9.51-31.1L392.4,249.86Z"/><path class="cls-6" d="M390.08,414h0a23,23,0,0,0-9.51-31.1h0L196.92,285.23h0a23,23,0,0,0-31.11,9.5h0L256,125.21a23,23,0,0,1,31.1-9.51h0l183.65,97.65a23,23,0,0,1,9.51,31.1h0Z"/><circle class="cls-3" cx="369.77" cy="403.19" r="23"/><path class="cls-3" d="M359,423.49l-25.6-13.61h0a23,23,0,0,0-31.11,9.5h0l32.4-60.92,45.91,24.41Z"/><path class="cls-7" d="M470.71,213.35l-101-53.73L279.52,329.15l101.05,53.73a23,23,0,0,1,9.51,31.1l90.14-169.52a23,23,0,0,0-9.5-31.11Z"/><polygon class="cls-8" points="323.72 186.6 325.45 191.94 331.06 191.94 326.52 195.23 328.26 200.56 323.72 197.27 319.18 200.56 320.92 195.23 316.38 191.94 321.99 191.94 323.72 186.6"/><polygon class="cls-8" points="323.72 287.29 325.45 292.62 331.06 292.62 326.52 295.92 328.26 301.25 323.72 297.95 319.18 301.25 320.92 295.92 316.38 292.62 321.99 292.62 323.72 287.29"/><polygon class="cls-8" points="351.35 195.53 353.08 200.86 358.69 200.86 354.16 204.16 355.89 209.49 351.35 206.19 346.81 209.49 348.55 204.16 344.01 200.86 349.62 200.86 351.35 195.53"/><polygon class="cls-8" points="370.21 214.13 371.94 219.46 377.55 219.46 373.01 222.76 374.74 228.09 370.21 224.79 365.67 228.09 367.4 222.76 362.86 219.46 368.47 219.46 370.21 214.13"/><polygon class="cls-8" points="370.65 261.12 372.39 266.46 378 266.46 373.46 269.75 375.19 275.08 370.65 271.79 366.12 275.08 367.85 269.75 363.31 266.46 368.92 266.46 370.65 261.12"/><polygon class="cls-8" points="277.92 214.13 279.65 219.46 285.26 219.46 280.72 222.76 282.45 228.09 277.92 224.79 273.38 228.09 275.11 222.76 270.57 219.46 276.19 219.46 277.92 214.13"/><polygon class="cls-8" points="374.57 236.54 376.31 241.87 381.92 241.87 377.38 245.17 379.11 250.5 374.57 247.21 370.04 250.5 371.77 245.17 367.23 241.87 372.84 241.87 374.57 236.54"/><polygon class="cls-8" points="273.63 236.54 275.36 241.87 280.97 241.87 276.43 245.17 278.17 250.5 273.63 247.21 269.09 250.5 270.83 245.17 266.29 241.87 271.9 241.87 273.63 236.54"/><polygon class="cls-8" points="277.31 261.12 279.04 266.46 284.65 266.46 280.11 269.75 281.85 275.08 277.31 271.79 272.77 275.08 274.5 269.75 269.97 266.46 275.58 266.46 277.31 261.12"/><polygon class="cls-8" points="352.17 280.51 353.9 285.85 359.51 285.85 354.97 289.15 356.7 294.48 352.17 291.18 347.63 294.48 349.36 289.15 344.82 285.85 350.43 285.85 352.17 280.51"/><polygon class="cls-8" points="296.98 195.53 298.71 200.86 304.32 200.86 299.79 204.16 301.52 209.49 296.98 206.19 292.44 209.49 294.18 204.16 289.64 200.86 295.25 200.86 296.98 195.53"/><polygon class="cls-8" points="294.94 280.17 296.67 285.51 302.28 285.51 297.74 288.81 299.47 294.14 294.94 290.84 290.4 294.14 292.13 288.81 287.59 285.51 293.2 285.51 294.94 280.17"/></g></svg>