<svg xmlns="http://www.w3.org/2000/svg" xmlns:xlink="http://www.w3.org/1999/xlink" viewBox="0 0 600 600"><defs><style>.cls-1{fill:none;}.cls-2{fill:url(#Degradado_sin_nombre_7);}.cls-3{fill:#043263;}.cls-4{fill:#02a5a5;}.cls-5{fill:#028484;}.cls-6{fill:#072146;}.cls-7{fill:#56e2de;}.cls-8{fill:#2dcccd;}.cls-9{fill:#004481;}.cls-10{fill:url(#Degradado_sin_nombre_87);}.cls-11{fill:#f8cd50;}.cls-12{fill:url(#Degradado_sin_nombre_487);}.cls-13{fill:#fff;}.cls-14{fill:url(#Degradado_sin_nombre_28);}</style><linearGradient id="Degradado_sin_nombre_7" x1="267" y1="-5557.8" x2="462.36" y2="-5925.22" gradientTransform="matrix(1, 0, 0, -1, 0, -5374)" gradientUnits="userSpaceOnUse"><stop offset="0" stop-color="#192647" stop-opacity="0.5"/><stop offset="1" stop-color="#192647" stop-opacity="0"/></linearGradient><linearGradient id="Degradado_sin_nombre_87" x1="387.28" y1="-5767.59" x2="256.74" y2="-5767.59" gradientTransform="matrix(1, 0, 0, -1, 0, -5374)" gradientUnits="userSpaceOnUse"><stop offset="0" stop-color="#072146" stop-opacity="0.8"/><stop offset="1" stop-color="#072146" stop-opacity="0"/></linearGradient><linearGradient id="Degradado_sin_nombre_487" x1="252.32" y1="-5718.39" x2="312.35" y2="-5778.42" gradientTransform="matrix(1, 0, 0, -1, 0, -5374)" gradientUnits="userSpaceOnUse"><stop offset="0" stop-color="#eaf9fa" stop-opacity="0.5"/><stop offset="1" stop-color="#eaf9fa" stop-opacity="0"/><stop offset="1" stop-color="#eaf9fa" stop-opacity="0.1"/></linearGradient><linearGradient id="Degradado_sin_nombre_28" x1="334.02" y1="-5773.09" x2="285.92" y2="-5773.09" gradientTransform="matrix(1, 0, 0, -1, 0, -5374)" gradientUnits="userSpaceOnUse"><stop offset="0" stop-color="#f8cd50" stop-opacity="0.3"/><stop offset="1" stop-color="#f8cd50" stop-opacity="0"/></linearGradient></defs><title>13</title><g id="Cuadrados_Blancos" data-name="Cuadrados Blancos"><rect class="cls-1" width="600" height="600"/></g><g id="Capa_31" data-name="Capa 31"><path class="cls-2" d="M448,318.39c32.64-19.7,43.36-23.36,81.5-35.24l.44.31a.79.79,0,0,0-.08-.42h.08l-.1-.1c-9.19-51.11-83.55-112.85-174.79-115V155a5,5,0,0,0-10,0v12.86c-91.24,2.2-165.6,63.94-174.79,115.05l-.1.1h.08a3.1,3.1,0,0,1-.08.42l.44-.31c38.14,11.88,48.86,15.54,81.5,35.24,32.67-2.18,61.88.46,93,7.38v31.55a31.1,31.1,0,0,1-7-2h0a30.13,30.13,0,0,0-39.51,16l-.24.57h0a30.09,30.09,0,0,1-16.68,16.75h0A30.15,30.15,0,0,0,265,427.85l.24.57h0a30.18,30.18,0,0,1,0,23.64h0a30.13,30.13,0,0,0,16,39.51l.57.24a29.8,29.8,0,0,1,2.86,1.32l-33.56,61a2.91,2.91,0,0,0,3.27,4.21l32-8.18a2.89,2.89,0,0,1,3.48,1.91l10.24,31.41a2.9,2.9,0,0,0,5.3.5l32.38-58.9.6-.23h0a30,30,0,0,1,20.76-1.1c.63.19,1.26.42,1.88.65l1,.4h.1L394.62,584a2.91,2.91,0,0,0,3.94,1.15,3,3,0,0,0,1.36-1.65l10.24-31.41a2.89,2.89,0,0,1,3.48-1.91l32,8.18a2.91,2.91,0,0,0,3.27-4.21L415.29,493c.82-.45,1.66-.86,2.53-1.23l.61-.27a30.12,30.12,0,0,0,16.63-39.23l-.24-.58h0c-.4-1-.76-1.91-1.06-2.88-.15-.48-.29-1-.42-1.46a30.09,30.09,0,0,1,1.43-19.3,30.11,30.11,0,0,0-15.93-39.49l-.63-.26h0a30.2,30.2,0,0,1-11.07-7.67l-.32-.36a31.6,31.6,0,0,1-2.15-2.74,30.47,30.47,0,0,1-3.21-5.91h0c-.22-.55-.46-1.08-.72-1.61-.07-.16-.15-.32-.23-.47-.19-.38-.38-.75-.58-1.11l-.27-.5c-.21-.36-.43-.72-.65-1.08-.09-.13-.17-.26-.25-.39-.29-.45-.59-.89-.9-1.31l-.07-.09a30.06,30.06,0,0,0-2.29-2.75l-.11-.12q-.56-.58-1.14-1.14l-.13-.12c-.42-.39-.84-.77-1.28-1.13h0a30.14,30.14,0,0,0-31.19-4.56,30.25,30.25,0,0,1-6.64,2V325.77C386.07,318.85,415.28,316.21,448,318.39Z"/><path class="cls-3" d="M300,135.8a5,5,0,0,1-5-5V105a5,5,0,0,1,10,0v25.8A5,5,0,0,1,300,135.8Z"/><path class="cls-4" d="M120.11,233c38.5,12,49.17,15.6,81.94,35.38l97.95-137C235.62,142.36,176.4,180.08,120.11,233Z"/><path class="cls-5" d="M202.05,268.39c34.42-2.3,65,.75,97.95,8.52V131.38C257,174.05,222.68,219.23,202.05,268.39Z"/><path class="cls-4" d="M479.89,233c-38.5,12-49.17,15.6-81.94,35.38L300,131.38C364.38,142.36,423.6,180.08,479.89,233Z"/><path class="cls-5" d="M398,268.39c-34.42-2.3-65,.75-97.95,8.52V131.38C341,174.15,374.62,219.46,398,268.39Z"/><rect class="cls-6" x="295" y="175.63" width="10" height="224.38"/><path class="cls-7" d="M300,117.8c-93.84,0-171,63.51-179.89,115.66,23.93-17.22,53.79-27.3,89.94-27.64h0Q226.68,153.09,300,117.8Z"/><path class="cls-7" d="M300,117.8c93.84,0,171,63.51,179.89,115.66C456,216.24,426.1,206.16,390,205.82h0Q373.32,153.09,300,117.8Z"/><path class="cls-8" d="M300,117.8q-73.32,35.3-89.95,88c36-10.32,58.77-12.46,89.95-7.12,31.18-5.34,53.93-3.2,89.95,7.12Q373.32,153.09,300,117.8Z"/><path class="cls-9" d="M250.08,533.54l-10.24-31.41a2.89,2.89,0,0,0-3.48-1.91l-32,8.18a2.91,2.91,0,0,1-3.27-4.21l57.4-104.4,54.29,29.85L255.38,534a2.9,2.9,0,0,1-3.93,1.17A2.87,2.87,0,0,1,250.08,533.54Z"/><path class="cls-9" d="M349.92,533.54l10.24-31.41a2.89,2.89,0,0,1,3.48-1.91l32,8.18a2.91,2.91,0,0,0,3.27-4.21l-57.4-104.4-54.29,29.85L344.62,534a2.9,2.9,0,0,0,3.93,1.17A2.87,2.87,0,0,0,349.92,533.54Z"/><path class="cls-3" d="M288,305.31h0a30.13,30.13,0,0,0,23.64-.05h0a30.15,30.15,0,0,1,39.59,15.84l.23.56h0a30.15,30.15,0,0,0,16.75,16.68h0A30.14,30.14,0,0,1,385,377.52l-.24.57h0a30.18,30.18,0,0,0,.05,23.64h0A30.13,30.13,0,0,1,369,441.3l-.58.24h0a30.15,30.15,0,0,0-16.68,16.75h0a30.14,30.14,0,0,1-39.17,16.81l-.58-.24h0a30.09,30.09,0,0,0-23.64.05h0a30.15,30.15,0,0,1-39.59-15.84l-.23-.56h0a30.15,30.15,0,0,0-16.75-16.68h0A30.14,30.14,0,0,1,215,402.65l.24-.57h0a30.22,30.22,0,0,0,0-23.64h0a30.14,30.14,0,0,1,15.82-39.58l.57-.24h0a30.09,30.09,0,0,0,16.68-16.75h0a30.14,30.14,0,0,1,39.19-16.77Z"/><path class="cls-10" d="M384.82,401.73h0a30.18,30.18,0,0,1-.05-23.64h0a30.13,30.13,0,0,0-16-39.51l-.57-.24a30.15,30.15,0,0,1-16.75-16.68,30,30,0,0,0-8.63-11.84L256.74,470a30.15,30.15,0,0,0,31.62,4.93h0a30.09,30.09,0,0,1,23.64-.05h0a30.13,30.13,0,0,0,39.51-16l.24-.58a30.15,30.15,0,0,1,16.68-16.75h0a30.13,30.13,0,0,0,16.64-39.23C385,402.13,384.91,401.93,384.82,401.73Z"/><circle class="cls-11" cx="300" cy="390.08" r="65.97"/><path class="cls-12" d="M300,324.11a66,66,0,0,0-31.34,124L331,331.84A65.72,65.72,0,0,0,300,324.11Z"/><path class="cls-13" d="M300.45,358l10.25,20.77,22.92,3.33a.51.51,0,0,1,.42.59.54.54,0,0,1-.14.27l-16.58,16.17L321.23,422a.51.51,0,0,1-.42.59.55.55,0,0,1-.31-.05L300,411.66l-20.5,10.78a.5.5,0,0,1-.68-.23.48.48,0,0,1-.05-.31l3.91-22.82L266.1,382.91a.51.51,0,0,1,0-.72.54.54,0,0,1,.27-.14l22.92-3.33L299.55,358a.5.5,0,0,1,.67-.23A.51.51,0,0,1,300.45,358Z"/><path class="cls-14" d="M333.62,382.05l-22.92-3.33-1.47-3L285.92,419l14.08-7.4,20.5,10.78a.5.5,0,0,0,.68-.23.48.48,0,0,0,.05-.31l-3.91-22.82,16.58-16.17a.51.51,0,0,0-.06-.72A.57.57,0,0,0,333.62,382.05Z"/></g></svg>