<svg id="Capa_1" data-name="Capa 1" xmlns="http://www.w3.org/2000/svg" xmlns:xlink="http://www.w3.org/1999/xlink" viewBox="0 0 600 600"><defs><style>.cls-1{fill:url(#Degradado_sin_nombre_5);}.cls-2{fill:#043263;}.cls-3{fill:#49a5e6;}.cls-4{fill-rule:evenodd;opacity:0.5;isolation:isolate;fill:url(#Degradado_sin_nombre_2);}.cls-5{fill:#07467f;}.cls-6{fill:#2dcccd;}.cls-7{fill:none;}</style><linearGradient id="Degradado_sin_nombre_5" x1="248.88" y1="453.08" x2="457.92" y2="59.92" gradientTransform="matrix(1, 0, 0, -1, 0, 604)" gradientUnits="userSpaceOnUse"><stop offset="0" stop-color="#192647"/><stop offset="0" stop-color="#192647" stop-opacity="0.5"/><stop offset="1" stop-color="#192647" stop-opacity="0"/></linearGradient><linearGradient id="Degradado_sin_nombre_2" x1="216.26" y1="389.29" x2="370.52" y2="235.03" gradientTransform="matrix(1, 0, 0, -1, 0, 604)" gradientUnits="userSpaceOnUse"><stop offset="0" stop-color="#fff" stop-opacity="0.5"/><stop offset="1" stop-color="#ecf7f8" stop-opacity="0.1"/></linearGradient></defs><path class="cls-1" d="M262.1,146.8H444.7a21.89,21.89,0,0,1,21.9,21.88V526.3a21.89,21.89,0,0,1-21.88,21.9H262.1a21.89,21.89,0,0,1-21.9-21.88V168.7a21.89,21.89,0,0,1,21.88-21.9Z"/><path class="cls-2" d="M207.8,95.8H392.7A22.13,22.13,0,0,1,414.8,118V480a22.12,22.12,0,0,1-22.1,22.1H207.8A22.12,22.12,0,0,1,185.7,480V118a22.13,22.13,0,0,1,22.06-22.2Z"/><rect class="cls-3" x="185.7" y="146.8" width="229.2" height="304.3"/><polygon class="cls-4" points="186 147 186 450.9 302.8 451.1 414.8 244.1 414.8 146.8 186 147"/><circle class="cls-5" cx="300.25" cy="300.02" r="61.08"/><polygon class="cls-6" points="324.06 318.23 324.12 288.18 281.43 331.32 264.99 331.32 316.24 280.13 285.62 280.18 285.62 268.73 335.45 268.79 335.51 318.28 324.06 318.23"/><rect class="cls-7" width="600" height="600"/><rect class="cls-7" width="600" height="600"/></svg>