<svg id="Contenido" xmlns="http://www.w3.org/2000/svg" xmlns:xlink="http://www.w3.org/1999/xlink" viewBox="0 0 600 600"><defs><style>.cls-1{fill:url(#Degradado_sin_nombre_16);}.cls-2{fill:#f8cd50;}.cls-3{fill:#043263;}.cls-4{fill:#1464a5;}.cls-5{fill:url(#Degradado_sin_nombre_10);}.cls-6{fill:url(#Degradado_sin_nombre_6);}</style><linearGradient id="Degradado_sin_nombre_16" x1="244.44" y1="241.05" x2="414.5" y2="560.9" gradientUnits="userSpaceOnUse"><stop offset="0" stop-color="#1c2645"/><stop offset="0" stop-color="#1c2645" stop-opacity="0.5"/><stop offset="1" stop-color="#1c2645" stop-opacity="0"/></linearGradient><linearGradient id="Degradado_sin_nombre_10" x1="454" y1="398.82" x2="284.84" y2="398.82" gradientUnits="userSpaceOnUse"><stop offset="0" stop-color="#043263" stop-opacity="0.6"/><stop offset="1" stop-color="#043263" stop-opacity="0.2"/></linearGradient><linearGradient id="Degradado_sin_nombre_6" x1="203.6" y1="198.61" x2="320.68" y2="315.69" gradientUnits="userSpaceOnUse"><stop offset="0" stop-color="#fff" stop-opacity="0.5"/><stop offset="1" stop-color="#fff" stop-opacity="0"/></linearGradient></defs><title>home_insurance</title><path class="cls-1" d="M507,477.32h-3l-7.19-35.92a26.23,26.23,0,0,0-25.73-21.08H466v-104a116,116,0,0,0-116-116h0a116,116,0,0,0-116,116v104h-5.08a26.23,26.23,0,0,0-25.73,21.08L196,477.32h-3a3,3,0,0,0-3,3v28a3,3,0,0,0,3,3H507a3,3,0,0,0,3-3v-28A3,3,0,0,0,507,477.32Z"/><path class="cls-2" d="M300,150.32h0a116,116,0,0,1,116,116v104a0,0,0,0,1,0,0H184a0,0,0,0,1,0,0v-104a116,116,0,0,1,116-116Z"/><rect class="cls-3" x="140" y="427.32" width="320" height="34" rx="3" ry="3"/><path class="cls-4" d="M454,427.32H146l7.19-35.92a26.23,26.23,0,0,1,25.73-21.08H421.08a26.23,26.23,0,0,1,25.73,21.08Z"/><path class="cls-5" d="M446.81,391.4a26.23,26.23,0,0,0-25.73-21.08H315.16l-30.33,57H454Z"/><path class="cls-6" d="M300,150.32h0A115.89,115.89,0,0,0,184,266.11V370.32h82.05L370.36,174.06A115.62,115.62,0,0,0,300,150.32Z"/><path class="cls-2" d="M119.15,272.53A186.06,186.06,0,0,1,130.65,215a5,5,0,0,1,6.56-2.91l8.2,3.29a5,5,0,0,1,2.83,6.36A167.21,167.21,0,0,0,138,273a5,5,0,0,1-5,4.79l-8.83-.1A5,5,0,0,1,119.15,272.53Z"/><path class="cls-2" d="M469,269.24c-1.84-88.9-73.13-161.29-162-164.49a5,5,0,0,1-4.81-5l.07-8.84a5,5,0,0,1,5.17-5c99,3.46,178.47,84.13,180.4,183.19a5,5,0,0,1-5,5.09l-8.84-.07A5,5,0,0,1,469,269.24Z"/><path class="cls-2" d="M160.88,177.73l-7.34-4.91a5,5,0,0,1-1.31-7.05A187,187,0,0,1,251.8,94.45,5,5,0,0,1,258,98l2.27,8.54a5,5,0,0,1-3.4,6.07,168.24,168.24,0,0,0-89.19,63.89A5,5,0,0,1,160.88,177.73Z"/></svg>