<svg xmlns="http://www.w3.org/2000/svg" xmlns:xlink="http://www.w3.org/1999/xlink" viewBox="0 0 600 600"><defs><style>.cls-1{fill:none;}.cls-2{fill:url(#Degradado_sin_nombre_113);}.cls-3{fill:#f8cd50;}.cls-4{fill:#072146;}.cls-5{fill:#043263;}.cls-6{fill:url(#Degradado_sin_nombre_31);}.cls-7{fill:url(#Degradado_sin_nombre_488);}</style><linearGradient id="Degradado_sin_nombre_113" x1="244.44" y1="-5615.04" x2="414.5" y2="-5934.9" gradientTransform="matrix(1, 0, 0, -1, 0, -5374)" gradientUnits="userSpaceOnUse"><stop offset="0" stop-color="#1c2645" stop-opacity="0.5"/><stop offset="1" stop-color="#1c2645" stop-opacity="0"/></linearGradient><linearGradient id="Degradado_sin_nombre_31" x1="203.6" y1="-5572.61" x2="320.68" y2="-5689.69" gradientTransform="matrix(1, 0, 0, -1, 0, -5374)" gradientUnits="userSpaceOnUse"><stop offset="0" stop-color="#fff" stop-opacity="0.5"/><stop offset="1" stop-color="#fff" stop-opacity="0"/></linearGradient><linearGradient id="Degradado_sin_nombre_488" x1="454" y1="-5772.82" x2="284.83" y2="-5772.82" gradientTransform="matrix(1, 0, 0, -1, 0, -5374)" gradientUnits="userSpaceOnUse"><stop offset="0" stop-color="#072146"/><stop offset="1" stop-color="#072146" stop-opacity="0"/></linearGradient></defs><title>13</title><g id="Cuadrados_Blancos" data-name="Cuadrados Blancos"><rect class="cls-1" width="600" height="600"/></g><g id="Capa_32" data-name="Capa 32"><path class="cls-2" d="M507,477.32h-3l-7.19-35.92a26.24,26.24,0,0,0-25.73-21.08H466v-104a116,116,0,0,0-116-116h0a116,116,0,0,0-116,116h0v104h-5.08a26.24,26.24,0,0,0-25.73,21.08L196,477.32h-3a3,3,0,0,0-3,3v28a3,3,0,0,0,3,3H507a3,3,0,0,0,3-3v-28A3,3,0,0,0,507,477.32Z"/><path class="cls-3" d="M300,150.32h0a116,116,0,0,1,116,116v104H184v-104A116,116,0,0,1,300,150.32Z"/><rect class="cls-4" x="140" y="427.32" width="320" height="34" rx="3"/><path class="cls-5" d="M454,427.32H146l7.19-35.92a26.24,26.24,0,0,1,25.73-21.08H421.08a26.24,26.24,0,0,1,25.73,21.08Z"/><path class="cls-6" d="M300,150.32h0A115.9,115.9,0,0,0,184,266.1h0V370.32h82.05L370.36,174.06A115.64,115.64,0,0,0,300,150.32Z"/><path class="cls-3" d="M119.15,272.53A186.24,186.24,0,0,1,130.65,215a5,5,0,0,1,6.42-3l.14.05,8.2,3.29a5,5,0,0,1,2.83,6.36A167,167,0,0,0,138,273a5,5,0,0,1-5,4.79l-8.83-.1a5,5,0,0,1-5-5Z"/><path class="cls-3" d="M469,269.24c-1.84-88.9-73.13-161.29-162-164.49a5,5,0,0,1-4.81-5l.07-8.84a5,5,0,0,1,5-5h.17c99,3.46,178.47,84.13,180.4,183.19a5,5,0,0,1-4.91,5.09h-.09l-8.84-.07A5,5,0,0,1,469,269.24Z"/><path class="cls-3" d="M160.88,177.73l-7.34-4.91a5,5,0,0,1-1.39-6.93l.08-.12A187,187,0,0,1,251.8,94.45,5,5,0,0,1,258,97.9l0,.1,2.27,8.54a5,5,0,0,1-3.4,6.07,168.28,168.28,0,0,0-89.19,63.89A5,5,0,0,1,160.88,177.73Z"/><path class="cls-7" d="M446.81,391.4a26.23,26.23,0,0,0-25.73-21.08H315.16l-30.33,57H454Z"/></g></svg>