<svg id="Contenido" xmlns="http://www.w3.org/2000/svg" xmlns:xlink="http://www.w3.org/1999/xlink" viewBox="0 0 600 600"><defs><style>.cls-1{fill:url(#Degradado_sin_nombre_7);}.cls-2{fill:#d4edfc;}.cls-3{fill:url(#Degradado_sin_nombre_37);}.cls-4,.cls-5{fill:#49a5e6;}.cls-4{opacity:0.25;}.cls-6{fill:#2dcccd;}.cls-7{fill:#1464a5;}.cls-8{fill:#f8cd50;}</style><linearGradient id="Degradado_sin_nombre_7" x1="239.52" y1="161.45" x2="443.58" y2="545.24" gradientUnits="userSpaceOnUse"><stop offset="0" stop-color="#192647"/><stop offset="0" stop-color="#192647" stop-opacity="0.5"/><stop offset="1" stop-color="#192647" stop-opacity="0"/></linearGradient><linearGradient id="Degradado_sin_nombre_37" x1="447.7" y1="306.49" x2="192.27" y2="306.49" gradientUnits="userSpaceOnUse"><stop offset="0" stop-color="#043263" stop-opacity="0.1"/><stop offset="1" stop-color="#043263" stop-opacity="0"/></linearGradient></defs><title>financial_health</title><path class="cls-1" d="M404,167.67H228.56a3,3,0,0,0-3,3V516.3a2.74,2.74,0,0,0,2.74,2.73h9.45l248.15.91h4.55a2.73,2.73,0,0,0,2.73-2.73V256.88Z"/><path class="cls-2" d="M447.7,211.36l-89.21-89.2H183.05a3,3,0,0,0-3,3V470.79a2.73,2.73,0,0,0,2.73,2.73H445a2.73,2.73,0,0,0,2.73-2.73Z"/><path class="cls-3" d="M374,138.54l-181.7,335,248.15.91H445a2.73,2.73,0,0,0,2.73-2.73V212.27Z"/><path class="cls-4" d="M412.2,371.57H215.58a4.55,4.55,0,0,1,0-9.1H412.2a4.55,4.55,0,1,1,0,9.1Z"/><path class="cls-4" d="M412.2,397.06H215.58a4.55,4.55,0,1,1,0-9.1H412.2a4.55,4.55,0,1,1,0,9.1Z"/><path class="cls-4" d="M333.49,422.55H215.58a4.56,4.56,0,0,1,0-9.11H333.49a4.56,4.56,0,0,1,0,9.11Z"/><path class="cls-5" d="M361.84,211.36H447.7l-89.21-89.2V208A3.34,3.34,0,0,0,361.84,211.36Z"/><path class="cls-6" d="M263.51,223.61a51.8,51.8,0,0,0-36.74,15.22l36.74,36.74Z"/><path class="cls-6" d="M226.77,238.83a51.8,51.8,0,0,0-15.22,36.74h52Z"/><path class="cls-6" d="M211.55,275.57a52,52,0,0,0,3.34,18.36l48.62-18.36Z"/><path class="cls-7" d="M263.51,275.57l-48.62,18.36a52,52,0,0,0,100.58-18.36Z"/><path class="cls-8" d="M263.51,223.62v52h52A52,52,0,0,0,263.51,223.62Z"/></svg>