<svg id="Contenido" xmlns="http://www.w3.org/2000/svg" xmlns:xlink="http://www.w3.org/1999/xlink" viewBox="0 0 600 600"><defs><style>.cls-1{fill:none;}.cls-2{fill:#043263;}.cls-3{fill:url(#Degradado_sin_nombre_39);}.cls-4{fill:#c49735;}.cls-5{fill:#eb5e62;}.cls-6{fill:#f8cd50;}.cls-7{fill:url(#Degradado_sin_nombre_5);}.cls-8{fill:#d4edfc;}.cls-9{fill:#f2969a;}.cls-10{fill:url(#Degradado_sin_nombre_26);}.cls-11{clip-path:url(#clip-path);}.cls-12{fill:url(#Degradado_sin_nombre_46);}.cls-13{clip-path:url(#clip-path-2);}.cls-14{fill:#49a5e6;}</style><linearGradient id="Degradado_sin_nombre_39" x1="269.07" y1="242.31" x2="430.6" y2="546.11" gradientUnits="userSpaceOnUse"><stop offset="0" stop-color="#192647" stop-opacity="0.5"/><stop offset="1" stop-color="#192647" stop-opacity="0"/></linearGradient><linearGradient id="Degradado_sin_nombre_5" x1="141.63" y1="273.93" x2="294.66" y2="355.3" gradientUnits="userSpaceOnUse"><stop offset="0" stop-color="#fff" stop-opacity="0.6"/><stop offset="1" stop-color="#fff" stop-opacity="0.2"/></linearGradient><linearGradient id="Degradado_sin_nombre_26" x1="334.65" y1="443.93" x2="311.42" y2="443.93" gradientUnits="userSpaceOnUse"><stop offset="0" stop-color="#c1475f" stop-opacity="0.6"/><stop offset="0.83" stop-color="#c1475f" stop-opacity="0.1"/></linearGradient><clipPath id="clip-path"><circle class="cls-1" cx="574.23" cy="274.46" r="35.88"/></clipPath><radialGradient id="Degradado_sin_nombre_46" cx="4495.01" cy="6305.78" r="36.48" gradientTransform="matrix(0.43, 0.9, -0.9, 0.43, 4291.85, -6484.27)" gradientUnits="userSpaceOnUse"><stop offset="0.58" stop-color="#043263" stop-opacity="0.5"/><stop offset="0.98" stop-color="#043263" stop-opacity="0"/></radialGradient><clipPath id="clip-path-2"><path class="cls-1" d="M418.86,95.43a28.9,28.9,0,0,0-16.3,4.15,1,1,0,0,1-1.44-.48,38.21,38.21,0,0,0-49-21.46,1,1,0,0,1-1.3-.62,52.1,52.1,0,0,0-96.57-6.51,1,1,0,0,1-1.47.38A39.77,39.77,0,0,0,190,101.12a1,1,0,0,1-1.25.91,31,31,0,1,0,13,53.25,1,1,0,0,1,1.57.4,33.44,33.44,0,0,0,59.21,5.4,1,1,0,0,1,1.71.11,43.37,43.37,0,0,0,82.52-13.13,1,1,0,0,1,1.45-.77,38.16,38.16,0,0,0,44-6.54,1,1,0,0,1,1.51.15,29,29,0,1,0,25.12-45.47Z"/></clipPath></defs><circle class="cls-2" cx="373.13" cy="141.11" r="35.46"/><circle class="cls-2" cx="205.92" cy="150.64" r="28.72"/><circle class="cls-2" cx="245.45" cy="165.27" r="28.72"/><path class="cls-3" d="M521.84,394.11a172,172,0,1,1-172.11-171.9,172,172,0,0,1,172.11,171.9"/><path class="cls-4" d="M169.41,230.57c6.38-7,19.53-20.09,19.53-20.09l24.61,19.06,36.35-20.39L289.37,232l36.13-27.93,31.7,23.27,53.65-16a96.29,96.29,0,0,1,13.61,12.36l-6.29,24.44-45-2.43-139.85,2.43-55.44-2.43Z"/><rect class="cls-5" x="234.24" y="137.64" width="133.14" height="105.61"/><path class="cls-6" d="M424.46,223.72,392,240.85l-31-29.27-41.84,29.27-23.78-21.73-25.27,21.73-44.56-29.49-41.46,29.49-8.27-17.31A171.43,171.43,0,0,0,128,342.42c0,94.82,77.38,172,172.13,172S472,437.5,472,342.42A171.31,171.31,0,0,0,424.46,223.72Z"/><path class="cls-7" d="M361,211.58l-41.84,29.27-23.78-21.73-25.27,21.73-44.56-29.49-41.46,29.49-8.27-17.31A171.43,171.43,0,0,0,128,342.42c0,66.09,37.6,123.62,92.47,152.4L367,217.26Z"/><circle class="cls-2" cx="300" cy="399.42" r="54.55"/><path class="cls-8" d="M257.5,365.24a236.83,236.83,0,0,0,84.77-.29,54.42,54.42,0,0,0-41.88-20.07h-.6A54.42,54.42,0,0,0,257.5,365.24Z"/><path class="cls-9" d="M265,441.27a54.53,54.53,0,0,0,69.64.27,67.2,67.2,0,0,0-69.64-.27Z"/><path class="cls-10" d="M334.65,441.55a65.52,65.52,0,0,0-13.84-6.46l-9.39,17.67A54.32,54.32,0,0,0,334.65,441.55Z"/><path class="cls-2" d="M231.5,267.19A25.93,25.93,0,0,1,245,263.57a1.8,1.8,0,0,0,1.37-3.05,16.77,16.77,0,0,0-28.05,16.2,1.8,1.8,0,0,0,3.32.33A25.93,25.93,0,0,1,231.5,267.19Z"/><path class="cls-2" d="M368.18,267.19a25.93,25.93,0,0,1,9.87,9.86,1.8,1.8,0,0,0,3.32-.33,16.76,16.76,0,0,0-28-16.2,1.8,1.8,0,0,0,1.36,3.05A25.93,25.93,0,0,1,368.18,267.19Z"/><circle class="cls-2" cx="253.87" cy="301.46" r="22"/><circle class="cls-2" cx="346.13" cy="301.46" r="22"/><path class="cls-8" d="M418.86,95.43a28.9,28.9,0,0,0-16.3,4.15,1,1,0,0,1-1.44-.48,38.21,38.21,0,0,0-49-21.46,1,1,0,0,1-1.3-.62,52.1,52.1,0,0,0-96.57-6.51,1,1,0,0,1-1.47.38A39.77,39.77,0,0,0,190,101.12a1,1,0,0,1-1.25.91,31,31,0,1,0,13,53.25,1,1,0,0,1,1.57.4,33.44,33.44,0,0,0,59.21,5.4,1,1,0,0,1,1.71.11,43.37,43.37,0,0,0,82.52-13.13,1,1,0,0,1,1.45-.77,38.16,38.16,0,0,0,44-6.54,1,1,0,0,1,1.51.15,29,29,0,1,0,25.12-45.47Z"/><g class="cls-11"><path class="cls-12" d="M544.2,261.16c-.21-.44-.43-.86-.65-1.29A33.59,33.59,0,1,1,497,243.19c-.45.19-.89.38-1.33.59a36.48,36.48,0,1,0,48.58,17.38Z"/></g><g class="cls-13"><path class="cls-14" d="M329.23,108c-.53-.32-1.08-.62-1.62-.92a43.36,43.36,0,0,1-12.88,78.11,12.68,12.68,0,0,1,1.9,8c0,.3-.06.6-.1.9A47.1,47.1,0,0,0,329.23,108Z"/><path class="cls-14" d="M260.77,121.37c-.34-.36-.68-.7-1-1a34,34,0,0,1-26.29,56.31,10,10,0,0,1-.25,6.42c-.08.22-.18.44-.27.66a37,37,0,0,0,27.84-62.35Z"/><path class="cls-14" d="M211.68,132.35c0-.44-.1-.87-.16-1.31a30.54,30.54,0,0,1-49.62,25.47,8.85,8.85,0,0,1-3.71,4.42,6.05,6.05,0,0,1-.55.32,33.18,33.18,0,0,0,54-28.9Z"/><path class="cls-14" d="M402.35,115.69q-.08-.76-.18-1.53a35.6,35.6,0,0,1-14.37,30.52,13.49,13.49,0,0,1,1.2,4.13A38.64,38.64,0,0,0,402.35,115.69Z"/></g><rect class="cls-1" width="600" height="600"/></svg>