<svg xmlns="http://www.w3.org/2000/svg" xmlns:xlink="http://www.w3.org/1999/xlink" viewBox="0 0 600.02 600.03"><defs><style>.a017c23f-c9c1-4ed2-80cf-89d2e4f9926d{fill:none;}.a63f9462-c3e9-4247-942c-0a20ba7936d0{fill:url(#a234618e-ac7b-4bb6-9b66-b817aa08b8bf);}.e8208f9f-a511-4d22-aa7f-95cf8e01be8e{fill:#043263;}.e13feb79-fd9b-4354-a2be-c32d4bc1ea8d{fill:url(#aaaa3463-cabb-4ba2-9672-b6337139e7b0);}.eeebd8ab-008a-4f39-9db1-19277b7c9a87{fill:#d4edfc;fill-rule:evenodd;}</style><linearGradient id="a234618e-ac7b-4bb6-9b66-b817aa08b8bf" x1="266.47" y1="429.26" x2="451.92" y2="80.47" gradientTransform="matrix(1, 0, 0, -1, 0, 602)" gradientUnits="userSpaceOnUse"><stop offset="0" stop-color="#192647"/><stop offset="0" stop-color="#192647" stop-opacity="0.5"/><stop offset="1" stop-color="#192647" stop-opacity="0"/></linearGradient><linearGradient id="aaaa3463-cabb-4ba2-9672-b6337139e7b0" x1="460" y1="302" x2="208.71" y2="302" gradientTransform="matrix(1, 0, 0, -1, 0, 602)" gradientUnits="userSpaceOnUse"><stop offset="0" stop-color="#072146" stop-opacity="0.6"/><stop offset="1" stop-color="#072146" stop-opacity="0"/></linearGradient></defs><g id="ad081845-5585-4f59-844d-109917b5520a" data-name="Capa 11"><rect class="a017c23f-c9c1-4ed2-80cf-89d2e4f9926d" width="600.02" height="600.03"/></g><g id="b49b73e5-0024-418c-b0d6-de7f86efeedd" data-name="Capa 10"><path class="a63f9462-c3e9-4247-942c-0a20ba7936d0" d="M507.4,229.21a24,24,0,0,0-24-24h-272a24,24,0,0,0-24,24l0,191.53a24,24,0,0,0,24,24h243l47.66,47.61a3.13,3.13,0,0,0,5.34-2.22V472.6Z" transform="translate(-0.08 -0.09)"/><path class="e8208f9f-a511-4d22-aa7f-95cf8e01be8e" d="M436,156H164a24,24,0,0,0-24,24V371.5a24,24,0,0,0,24,24H407l47.66,47.61a3.13,3.13,0,0,0,5.34-2.22V180A24,24,0,0,0,436,156Z" transform="translate(-0.08 -0.09)"/><path class="e13feb79-fd9b-4354-a2be-c32d4bc1ea8d" d="M436,156H377.14L208.71,395.47H407l47.66,47.61a3.13,3.13,0,0,0,5.34-2.22V180A24,24,0,0,0,436,156Z" transform="translate(-0.08 -0.09)"/></g><g id="f1ca8fe1-a10f-4c6b-8870-e70395cb8a15" data-name="Capa 8"><path class="eeebd8ab-008a-4f39-9db1-19277b7c9a87" d="M324,226c-10.89,0-12.91,5.25-12.91,12.78v16.44H340l-3.42,27H311.1v67.26H284V282.26H259.37v-27H284v-19c0-22.5,13.72-34.77,33.7-34.77a170.11,170.11,0,0,1,20.18,1.08V226Z" transform="translate(-0.08 -0.09)"/></g></svg>