<svg xmlns="http://www.w3.org/2000/svg" xmlns:xlink="http://www.w3.org/1999/xlink" viewBox="0 0 600.02 600.03"><defs><style>.e542a340-b7dc-4894-ba7c-7c2dcaa83eae{fill:url(#e592cf75-3586-44ce-bfb4-c7502707ee1a);}.bc9ec382-2418-4b6c-92de-a8fae943303e{fill:#1464a5;}.a04e5bc7-8fbb-4c10-a2b3-2983bfe832d6{fill:url(#a3b84ea6-c817-4698-a940-14eea6892342);}.e4e5883c-46f0-4f27-a684-97d6063b090c{fill:none;}.b8c4e548-d6e5-4fbf-94d2-d0e123644700{fill:#d4edfc;fill-rule:evenodd;}</style><linearGradient id="e592cf75-3586-44ce-bfb4-c7502707ee1a" x1="266.47" y1="429.26" x2="451.92" y2="80.47" gradientTransform="matrix(1, 0, 0, -1, 0, 602)" gradientUnits="userSpaceOnUse"><stop offset="0" stop-color="#192647"/><stop offset="0" stop-color="#192647" stop-opacity="0.5"/><stop offset="1" stop-color="#192647" stop-opacity="0"/></linearGradient><linearGradient id="a3b84ea6-c817-4698-a940-14eea6892342" x1="460" y1="302" x2="208.71" y2="302" gradientTransform="matrix(1, 0, 0, -1, 0, 602)" gradientUnits="userSpaceOnUse"><stop offset="0" stop-color="#043263" stop-opacity="0.6"/><stop offset="1" stop-color="#043263" stop-opacity="0"/></linearGradient></defs><g id="a4846f41-6955-4f90-8fcf-5fe4d306262b" data-name="Contenido"><path class="e542a340-b7dc-4894-ba7c-7c2dcaa83eae" d="M507.4,229.21a24,24,0,0,0-24-24h-272a24,24,0,0,0-24,24l0,191.53a24,24,0,0,0,24,24h243l47.66,47.61a3.13,3.13,0,0,0,5.34-2.22V472.6Z" transform="translate(-0.08 -0.09)"/><path class="bc9ec382-2418-4b6c-92de-a8fae943303e" d="M436,156H164a24,24,0,0,0-24,24V371.5a24,24,0,0,0,24,24H407l47.66,47.61a3.13,3.13,0,0,0,5.34-2.22V180A24,24,0,0,0,436,156Z" transform="translate(-0.08 -0.09)"/><path class="a04e5bc7-8fbb-4c10-a2b3-2983bfe832d6" d="M436,156H377.14L208.71,395.47H407l47.66,47.61a3.13,3.13,0,0,0,5.34-2.22V180A24,24,0,0,0,436,156Z" transform="translate(-0.08 -0.09)"/></g><g id="ee2f293e-1eaa-4964-83e6-2c96c0e03d5e" data-name="Capa 11"><rect class="e4e5883c-46f0-4f27-a684-97d6063b090c" width="600.02" height="600.03"/></g><g id="a8ee53b0-e022-4e11-9198-9111a980d6d3" data-name="Capa 8"><path class="b8c4e548-d6e5-4fbf-94d2-d0e123644700" d="M324,226c-10.89,0-12.91,5.25-12.91,12.78v16.44H340l-3.42,27H311.1v67.26H284V282.26H259.37v-27H284v-19c0-22.5,13.72-34.77,33.7-34.77a170.11,170.11,0,0,1,20.18,1.08V226Z" transform="translate(-0.08 -0.09)"/></g></svg>