<?xml version="1.0" encoding="UTF-8"?>
<svg width="600px" height="600px" viewBox="0 0 600 600" version="1.1" xmlns="http://www.w3.org/2000/svg" xmlns:xlink="http://www.w3.org/1999/xlink">
    <!-- Generator: Sketch 52.6 (67491) - http://www.bohemiancoding.com/sketch -->
    <title>Security/Facial-Recognition-Error@1x</title>
    <desc>Created with Sketch.</desc>
    <defs>
        <linearGradient x1="30.132904%" y1="13.1256006%" x2="72.0246312%" y2="91.1287152%" id="linearGradient-1">
            <stop stop-color="#192647" stop-opacity="0.5" offset="0%"></stop>
            <stop stop-color="#192647" stop-opacity="0" offset="100%"></stop>
        </linearGradient>
        <linearGradient x1="99.9118662%" y1="49.9756417%" x2="0%" y2="49.9756417%" id="linearGradient-2">
            <stop stop-color="#003267" stop-opacity="0.6" offset="0%"></stop>
            <stop stop-color="#003267" stop-opacity="0" offset="100%"></stop>
        </linearGradient>
    </defs>
    <g id="Security/Facial-Recognition-Error" stroke="none" stroke-width="1" fill="none" fill-rule="evenodd">
        <path d="M548.27,280.15 L477.8,157.24 C477.171536,156.14004 476.001838,155.461192 474.735,155.461192 C473.468162,155.461192 472.298464,156.14004 471.67,157.24 L429.5,230.79 C427.6,229.49 425.67,228.24 423.71,227.02 L423.49,226.88 C420.276667,224.88 416.993333,222.983333 413.64,221.19 C329.11558,177.835647 225.449353,211.21058 182.095,295.735 C138.740647,380.25942 172.11558,483.925647 256.64,527.28 L256.7,527.28 C261.266667,529.54 265.933333,531.596667 270.7,533.45 L270.78,533.45 C272.28,534.03 273.78,534.58 275.32,535.12 L275.82,535.3 C277.29,535.81 278.76,536.3 280.24,536.78 L280.59,536.89 C283.81,537.916667 287.073333,538.85 290.38,539.69 L290.81,539.79 C292.24,540.15 293.67,540.49 295.11,540.79 L296.21,541.03 C297.47,541.3 298.73,541.56 300,541.8 L301.2,542.03 C302.58,542.29 303.97,542.53 305.36,542.75 L306.08,542.87 C307.74,543.13 309.41,543.36 311.08,543.57 L311.77,543.65 C313.16,543.82 314.56,543.97 315.96,544.11 L317.51,544.25 L320.93,544.51 L322.65,544.62 C323.81,544.69 324.97,544.74 326.14,544.78 L327.68,544.84 C329.35,544.89 331.02,544.92 332.68,544.92 C427.672977,544.92 504.68,467.912977 504.68,372.92 C504.68,371.08 504.68,369.25 504.58,367.43 L504.52,365.88 C504.46,364.45 504.39,363.03 504.3,361.61 L504.21,360.3 C504.08,358.5 503.93,356.71 503.74,354.94 C503.74,354.58 503.66,354.24 503.62,353.88 C503.46,352.42 503.28,350.96 503.08,349.51 L502.87,348 C502.64,346.43 502.4,344.87 502.13,343.32 C502.13,343.11 502.06,342.9 502.02,342.69 C501.71,340.93 501.37,339.19 501.02,337.45 C500.92,337.01 500.83,336.58 500.73,336.14 C500.43,334.77 500.12,333.4 499.78,332.04 C499.68,331.61 499.58,331.18 499.47,330.76 C499.043333,329.033333 498.586667,327.32 498.1,325.62 C498.1,325.48 498.01,325.34 497.97,325.2 C497.52,323.63 497.04,322.08 496.55,320.54 C496.41,320.11 496.28,319.68 496.14,319.26 C495.66,317.82 495.14,316.38 494.66,314.96 L494.41,314.23 C493.796667,312.55 493.16,310.883333 492.5,309.23 C492.39,308.94 492.27,308.65 492.15,308.37 C491.59,306.98 491.01,305.6 490.41,304.24 C490.26,303.88 490.11,303.53 489.95,303.18 C488.51,299.933333 486.97,296.736667 485.33,293.59 L484.86,292.69 C484.126667,291.31 483.38,289.94 482.62,288.58 C482.5,288.38 482.39,288.17 482.28,287.97 L480.75,285.35 L545.16,285.35 C546.401745,285.350006 547.552169,284.697575 548.189533,283.631884 C548.826898,282.566194 548.857454,281.243996 548.27,280.15 Z" id="Path" fill="url(#linearGradient-1)" fill-rule="nonzero"></path>
        <g id="Access-biometric" transform="translate(108.000000, 137.000000)" fill-rule="nonzero">
            <ellipse id="Oval" fill="#0065AA" cx="177.248826" cy="178.193396" rx="177.248826" ry="177.273585"></ellipse>
            <path d="M260.627911,21.7288443 L94.1788967,334.853774 C180.633882,380.82382 287.980376,347.994503 333.944002,261.527441 C379.907628,175.060379 347.082896,67.6988907 260.627911,21.7288443 Z" id="Path" fill="url(#linearGradient-2)"></path>
            <ellipse id="Oval" fill="#20B4FF" cx="177.248826" cy="138.554198" rx="44.5183099" ry="44.5245283"></ellipse>
            <path d="M138.779648,193.910967 L215.718005,193.910967 C236.068043,193.910964 252.568199,210.404198 252.579577,230.757075 L252.579577,263.36717 C252.579577,265.074824 251.195444,266.459151 249.488028,266.459151 L105.009624,266.459151 C103.302209,266.459151 101.918075,265.074824 101.918075,263.36717 L101.918075,230.757075 C101.929453,210.404198 118.42961,193.910964 138.779648,193.910967 Z" id="Path" fill="#20B4FF"></path>
            <path d="M121.899789,115.611698 C119.054096,115.611698 116.747207,113.304486 116.747207,110.458396 L116.747207,83.1871226 C116.747207,80.3410326 119.054096,78.0338208 121.899789,78.0338208 L149.156948,78.0338208 C152.002641,78.0338208 154.309531,80.3410326 154.309531,83.1871226 C154.309531,86.0332127 152.002641,88.3404245 149.156948,88.3404245 L127.052371,88.3404245 L127.052371,110.458396 C127.052371,113.304486 124.745481,115.611698 121.899789,115.611698 Z" id="Path" fill="#FFCC28"></path>
            <path d="M232.597864,115.611698 C229.752171,115.611698 227.445282,113.304486 227.445282,110.458396 L227.445282,88.3404245 L205.340704,88.3404245 C202.495012,88.3404245 200.188122,86.0332127 200.188122,83.1871226 C200.188122,80.3410326 202.495012,78.0338208 205.340704,78.0338208 L232.597864,78.0338208 C235.443556,78.0338208 237.750446,80.3410326 237.750446,83.1871226 L237.750446,110.458396 C237.750446,113.304486 235.443556,115.611698 232.597864,115.611698 Z" id="Path" fill="#FFCC28"></path>
            <path d="M232.597864,199.064269 L205.340704,199.064269 C202.495012,199.064269 200.188122,196.757057 200.188122,193.910967 C200.188122,191.064877 202.495012,188.757665 205.340704,188.757665 L227.445282,188.757665 L227.445282,166.65 C227.445282,163.80391 229.752171,161.496698 232.597864,161.496698 C235.443556,161.496698 237.750446,163.80391 237.750446,166.65 L237.750446,193.910967 C237.750446,196.757057 235.443556,199.064269 232.597864,199.064269 Z" id="Path" fill="#FFCC28"></path>
            <path d="M149.156948,199.064269 L121.899789,199.064269 C119.054096,199.064269 116.747207,196.757057 116.747207,193.910967 L116.747207,166.65 C116.747207,163.80391 119.054096,161.496698 121.899789,161.496698 C124.745481,161.496698 127.052371,163.80391 127.052371,166.65 L127.052371,188.757665 L149.156948,188.757665 C152.002641,188.757665 154.309531,191.064877 154.309531,193.910967 C154.309531,196.757057 152.002641,199.064269 149.156948,199.064269 Z" id="Path" fill="#FFCC28"></path>
        </g>
        <g id="Group" transform="translate(349.989943, 105.462583)" fill-rule="nonzero">
            <path d="M70.9400573,1.77741667 L0.470057269,124.687417 C-0.159118549,125.781295 -0.156513192,127.127837 0.476890878,128.219273 C1.11029495,129.310709 2.27814617,129.981012 3.54005727,129.977417 L144.480057,129.977417 C145.741968,129.981012 146.90982,129.310709 147.543224,128.219273 C148.176628,127.127837 148.179233,125.781295 147.550057,124.687417 L77.0800573,1.77741667 C76.4488243,0.677959315 75.2778355,1.84741111e-13 74.0100573,1.84741111e-13 C72.7422791,1.84741111e-13 71.5712902,0.677959315 70.9400573,1.77741667 Z" id="Path" fill="#D72544"></path>
            <path d="M73.5000573,90.0074167 C70.7266632,89.9799617 68.4944292,87.720941 68.5000573,84.9474167 L68.5000573,50.6674167 C68.5000573,47.8894244 70.752065,45.6374167 73.5300573,45.6374167 C76.3080496,45.6374167 78.5600573,47.8894244 78.5600573,50.6674167 L78.5600573,84.9474167 C78.5763196,86.2943317 78.0484377,87.5908328 77.0959556,88.543315 C76.1434734,89.4957971 74.8469723,90.023679 73.5000573,90.0074167 Z" id="Path" fill="#FFFFFF"></path>
            <path d="M73.5100573,108.927417 C72.1729266,108.921647 70.8926645,108.385807 69.9500573,107.437417 C69.7134068,107.203762 69.502224,106.945649 69.3200573,106.667417 C69.1375027,106.393835 68.9833695,106.102322 68.8600573,105.797417 C68.7347277,105.490219 68.6376595,105.172237 68.5700573,104.847417 C68.5099056,104.517487 68.4797823,104.182785 68.4800573,103.847417 C68.4822195,102.510547 69.0102465,101.228196 69.9500573,100.277417 C70.8892764,99.3277688 72.1694063,98.7933767 73.5050573,98.7933767 C74.8407083,98.7933767 76.1208381,99.3277688 77.0600573,100.277417 C78.5020844,101.723368 78.9358547,103.893321 78.1605189,105.782519 C77.385183,107.671718 75.552105,108.911346 73.5100573,108.927417 Z" id="Path" fill="#FFFFFF"></path>
        </g>
    </g>
</svg>