<svg xmlns="http://www.w3.org/2000/svg" xmlns:xlink="http://www.w3.org/1999/xlink" viewBox="0 0 600 600"><defs><style>.cls-1{fill:none;}.cls-2{fill:url(#Degradado_sin_nombre_32);}.cls-3{fill:#043263;}.cls-4{fill:url(#Degradado_sin_nombre_97);}.cls-5{fill:#d72544;}.cls-6{fill:#fff;}.cls-7{fill:#20b4ff;}.cls-8{fill:#ffcc28;}</style><linearGradient id="Degradado_sin_nombre_32" x1="297.97" y1="-5707.22" x2="459.5" y2="-6011.01" gradientTransform="matrix(1, 0, 0, -1, 0, -5524)" gradientUnits="userSpaceOnUse"><stop offset="0" stop-color="#192647" stop-opacity="0.5"/><stop offset="1" stop-color="#192647" stop-opacity="0"/></linearGradient><linearGradient id="Degradado_sin_nombre_97" x1="472.22" y1="-5834.18" x2="219.39" y2="-5834.18" gradientTransform="matrix(1, 0, 0, -1, 0, -5524)" gradientUnits="userSpaceOnUse"><stop offset="0" stop-color="#072146"/><stop offset="1" stop-color="#072146" stop-opacity="0"/></linearGradient></defs><title>15</title><g id="Cuadrados_Blancos" data-name="Cuadrados Blancos"><rect class="cls-1" width="600" height="600"/><rect class="cls-1" width="600" height="600"/></g><g id="Capa_13" data-name="Capa 13"><path class="cls-2" d="M566.27,257.15,495.8,134.24a3.53,3.53,0,0,0-6.13,0L447.5,207.79c-1.9-1.3-3.83-2.55-5.79-3.77l-.22-.14q-4.82-3-9.85-5.69h0a172,172,0,0,0-157,306.09h.06q6.85,3.39,14,6.17h.08c1.5.58,3,1.13,4.54,1.67l.5.18c1.47.51,2.94,1,4.42,1.48l.35.11q4.83,1.54,9.79,2.8l.43.1c1.43.36,2.86.7,4.3,1l1.1.24c1.26.27,2.52.53,3.79.77l1.2.23c1.38.26,2.77.5,4.16.72l.72.12c1.66.26,3.33.49,5,.7l.69.08c1.39.17,2.79.32,4.19.46l1.55.14,3.42.26,1.72.11c1.16.07,2.32.12,3.49.16l1.54.06c1.67,0,3.34.08,5,.08a172,172,0,0,0,172-172h0c0-1.84,0-3.67-.1-5.49l-.06-1.55c-.06-1.43-.13-2.85-.22-4.27l-.09-1.31c-.13-1.8-.28-3.59-.47-5.36a9.55,9.55,0,0,0-.12-1.06c-.16-1.46-.34-2.92-.54-4.37l-.21-1.51c-.23-1.57-.47-3.13-.74-4.68a3.47,3.47,0,0,0-.11-.63c-.31-1.76-.65-3.5-1-5.24-.1-.44-.19-.87-.29-1.31-.3-1.37-.61-2.74-1-4.1-.1-.43-.2-.86-.31-1.28-.43-1.73-.88-3.44-1.37-5.14a1.69,1.69,0,0,0-.13-.42c-.45-1.57-.93-3.12-1.42-4.66-.14-.43-.27-.86-.41-1.28-.48-1.44-1-2.88-1.48-4.3l-.25-.73q-.91-2.52-1.91-5c-.11-.29-.23-.58-.35-.86-.56-1.39-1.14-2.77-1.74-4.13-.15-.36-.3-.71-.46-1.06q-2.16-4.87-4.62-9.59l-.47-.9q-1.1-2.07-2.24-4.11c-.12-.2-.23-.41-.34-.61l-1.53-2.62h64.41a3.53,3.53,0,0,0,3.53-3.53A3.48,3.48,0,0,0,566.27,257.15Z"/><circle class="cls-3" cx="300" cy="300" r="172"/><path class="cls-4" d="M380.91,148.19,219.39,452A172,172,0,0,0,380.91,148.19Z"/><path class="cls-5" d="M438.93,84.24,368.46,207.15a3.53,3.53,0,0,0,3.07,5.29H512.47a3.53,3.53,0,0,0,3.07-5.29L445.07,84.24a3.54,3.54,0,0,0-6.14,0Z"/><path class="cls-6" d="M441.49,172.47a5.05,5.05,0,0,1-5-5.06V133.13a5,5,0,0,1,10.06,0v34.28a5,5,0,0,1-4.94,5.06Z"/><path class="cls-6" d="M441.5,191.39a5.05,5.05,0,0,1-3.56-1.49,4.24,4.24,0,0,1-.63-.77,4.83,4.83,0,0,1-.46-.87,5.46,5.46,0,0,1-.29-.95,5.55,5.55,0,0,1-.09-1,5.07,5.07,0,0,1,1.47-3.57,5,5,0,0,1,7.07,0l0,0a5.07,5.07,0,0,1-3.55,8.65Z"/><ellipse id="Oval" class="cls-7" cx="300.41" cy="267.22" rx="43.32" ry="43.32"/><path id="Path" class="cls-7" d="M263,321.08h74.86a35.87,35.87,0,0,1,35.87,35.85v31.74a3,3,0,0,1-3,3H230.12a3,3,0,0,1-3-3V356.93A35.87,35.87,0,0,1,263,321.08Z"/><path id="Path-2" data-name="Path" class="cls-8" d="M246.55,244.89a5,5,0,0,1-5-5V213.34a5,5,0,0,1,5-5h26.52a5,5,0,1,1,0,10h-21.5v21.53A5,5,0,0,1,246.55,244.89Z"/><path id="Path-3" data-name="Path" class="cls-8" d="M354.27,244.89a5,5,0,0,1-5-5V218.35H327.74a5,5,0,0,1,0-10h26.53a5,5,0,0,1,5,5v26.54A5,5,0,0,1,354.27,244.89Z"/><path id="Path-4" data-name="Path" class="cls-8" d="M354.27,326.1H327.74a5,5,0,0,1,0-10h21.51V294.55a5,5,0,0,1,10,0v26.53A5,5,0,0,1,354.27,326.1Z"/><path id="Path-5" data-name="Path" class="cls-8" d="M273.07,326.1H246.55a5,5,0,0,1-5-5V294.55a5,5,0,0,1,10,0v21.52h21.5a5,5,0,1,1,0,10Z"/></g></svg>