<svg xmlns="http://www.w3.org/2000/svg" xmlns:xlink="http://www.w3.org/1999/xlink" viewBox="0 0 600 600"><defs><style>.cls-1{fill:none;}.cls-2{fill:url(#Degradado_sin_nombre_455);}.cls-3{fill:url(#Degradado_sin_nombre_4);}.cls-4{fill:#004481;}.cls-5{fill:#49a5e6;}.cls-6{opacity:0.5;}.cls-7{fill:url(#Degradado_sin_nombre_70);}.cls-8{fill:url(#Degradado_sin_nombre_114);}.cls-9{fill:#028484;}.cls-10{fill:#072146;}.cls-11{fill:#d4edfc;}.cls-12{fill:#2dcccd;}.cls-13{fill:#043263;}</style><linearGradient id="Degradado_sin_nombre_455" x1="268.2" y1="5361.53" x2="465.03" y2="4991.33" gradientTransform="matrix(1, 0, 0, -1, 0, 5550)" gradientUnits="userSpaceOnUse"><stop offset="0" stop-color="#192647" stop-opacity="0.5"/><stop offset="1" stop-color="#192647" stop-opacity="0"/></linearGradient><linearGradient id="Degradado_sin_nombre_4" x1="248.66" y1="5339.89" x2="457.69" y2="4946.77" gradientTransform="matrix(1, 0, 0, -1, 0, 5550)" gradientUnits="userSpaceOnUse"><stop offset="0" stop-color="#192647"/><stop offset="0" stop-color="#192647" stop-opacity="0.5"/><stop offset="1" stop-color="#192647" stop-opacity="0"/></linearGradient><linearGradient id="Degradado_sin_nombre_70" x1="291.97" y1="5356.54" x2="330.21" y2="5318.3" gradientTransform="matrix(1, 0, 0, -1, 0, 5550)" gradientUnits="userSpaceOnUse"><stop offset="0" stop-color="#eaf9fa"/><stop offset="1" stop-color="#e9f8f9" stop-opacity="0.2"/><stop offset="1" stop-color="#eaf9fa" stop-opacity="0.5"/></linearGradient><linearGradient id="Degradado_sin_nombre_114" x1="391.42" y1="5239.11" x2="186.74" y2="5239.11" gradientTransform="matrix(1, 0, 0, -1, 0, 5550)" gradientUnits="userSpaceOnUse"><stop offset="0" stop-color="#072146" stop-opacity="0.8"/><stop offset="1" stop-color="#072146" stop-opacity="0"/></linearGradient></defs><g id="Cuadrados_Blancos" data-name="Cuadrados Blancos"><rect class="cls-1" width="600" height="600"/></g><g id="Capa_34" data-name="Capa 34"><path class="cls-2" d="M540.09,336.43a3.35,3.35,0,0,0,4.67-.12l11.65-11.86a3.35,3.35,0,0,0,0-4.74l0,0a138.12,138.12,0,0,0-65-34.29V232.86h7.14a3.42,3.42,0,0,0,3.22-2.24l6.8-18.37a3.43,3.43,0,0,0-3.22-4.61H360.72a3.43,3.43,0,0,0-3.22,2.23l-6.8,18.37a3.44,3.44,0,0,0,2,4.41,3.53,3.53,0,0,0,1.2.21H368.3l-41.06,75.93V309H244.16a26.84,26.84,0,0,0-26.83,26.84v4.92h-.11a3.35,3.35,0,0,0-3.36,3.35h0v12.81a3.35,3.35,0,0,0,3.36,3.36h.11v41.7a60.82,60.82,0,1,0,86.84,25.82h18.31v19.84a3.5,3.5,0,0,0,3.5,3.5h16.34a3.51,3.51,0,0,0,3.5-3.5V427.75h22.37A93.47,93.47,0,1,0,509.54,341c4.14-7.44,7.87-14.11,10.77-19.32A116.35,116.35,0,0,1,540.09,336.43Z"/><path class="cls-3" d="M276.13,269.6h2.1a7.34,7.34,0,0,1,7.34,7.34v31.85h11.66V276.94a19,19,0,0,0-19-19h-2.11a3.51,3.51,0,0,0-3.5,3.49v4.68A3.5,3.5,0,0,0,276.13,269.6Z"/><path class="cls-4" d="M433,153.67a3.5,3.5,0,0,0-3.5-3.49H330.91a12.29,12.29,0,0,0-11.46,7.75l-50.56,93.44,4.35,21.13H433Z"/><path class="cls-5" d="M268.89,251.33h135.6a3.51,3.51,0,0,0,3.51-3.5V175.4H310Z"/><g class="cls-6"><polygon class="cls-7" points="354.87 175.41 310.03 175.41 268.89 251.33 310.58 251.33 354.87 175.41"/></g><path class="cls-4" d="M403.09,370.29H159v-92a26.84,26.84,0,0,1,26.83-26.84H403.09Z"/><polygon class="cls-8" points="391.42 251.49 247.89 251.49 186.74 370.3 391.42 370.3 391.42 251.49"/><path class="cls-9" d="M408,361.47c.71-1.94,60.22-108.41,60.22-108.41s-34.92-17.46-59.36-17.46S339,254.22,325.41,267.8,281,304.28,281,341.91s2.48,28.31,2.48,28.31l119.54.06Z"/><path class="cls-10" d="M309.6,363.64a93.49,93.49,0,1,1,93.49,93.48h0A93.58,93.58,0,0,1,309.6,363.64Z"/><circle class="cls-11" cx="403.09" cy="363.64" r="32.67"/><path class="cls-11" d="M158.88,302.77h13.86a12.91,12.91,0,0,0,12.79-11.16l.84-6.09a2,2,0,0,0-1.71-2.26,1.7,1.7,0,0,0-.39,0H158.88a3.35,3.35,0,0,0-3.36,3.35h0v12.81a3.35,3.35,0,0,0,3.36,3.36Z"/><path class="cls-12" d="M284,393.63H267.65a3.5,3.5,0,0,1-3.5-3.5V365.31c0-77,63-141.16,140-140.6A138,138,0,0,1,498,262.21a3.36,3.36,0,0,1,.11,4.75l0,0-11.65,11.86a3.35,3.35,0,0,1-4.66.13,114.75,114.75,0,0,0-77.79-30.88c-64-.45-116.39,53-116.39,117v25.11A3.51,3.51,0,0,1,284,393.63Z"/><path class="cls-10" d="M130,396.29a60.82,60.82,0,1,1,60.81,60.81h0A60.91,60.91,0,0,1,130,396.29Z"/><circle class="cls-11" cx="190.85" cy="396.29" r="25.09"/><path class="cls-13" d="M446.91,150.18H302.38a3.43,3.43,0,0,0-3.22,2.23l-6.8,18.37a3.43,3.43,0,0,0,2,4.41,3.3,3.3,0,0,0,1.2.21H440.11a3.4,3.4,0,0,0,3.22-2.24l6.8-18.38a3.43,3.43,0,0,0-2.05-4.4A3.6,3.6,0,0,0,446.91,150.18Z"/><path class="cls-11" d="M238.9,251.33H227.23V219.48a7.34,7.34,0,0,0-7.34-7.33h-2.1a3.51,3.51,0,0,1-3.5-3.51V204a3.5,3.5,0,0,1,3.48-3.51h2.12a19,19,0,0,1,19,19h0Z"/></g></svg>