<svg id="Contenido" xmlns="http://www.w3.org/2000/svg" xmlns:xlink="http://www.w3.org/1999/xlink" viewBox="0 0 600 600"><defs><style>.cls-1,.cls-2,.cls-3{fill:none;}.cls-2{fill-rule:evenodd;}.cls-3{clip-rule:evenodd;}.cls-4{clip-path:url(#clip-path);}.cls-5{clip-path:url(#clip-path-2);}.cls-6{clip-path:url(#clip-path-3);}.cls-7{clip-path:url(#clip-path-4);}.cls-8{clip-path:url(#clip-path-8);}.cls-9{clip-path:url(#clip-path-9);}.cls-10{clip-path:url(#clip-path-10);}.cls-11{clip-path:url(#clip-path-11);}.cls-12{clip-path:url(#clip-path-12);}.cls-13{clip-path:url(#clip-path-13);}.cls-14{clip-path:url(#clip-path-14);}.cls-15{clip-path:url(#clip-path-15);}.cls-16{clip-path:url(#clip-path-16);}.cls-17{clip-path:url(#clip-path-17);}.cls-18{clip-path:url(#clip-path-18);}.cls-19{clip-path:url(#clip-path-19);}.cls-20{clip-path:url(#clip-path-20);}.cls-21{clip-path:url(#clip-path-21);}.cls-22{clip-path:url(#clip-path-22);}.cls-23{clip-path:url(#clip-path-23);}.cls-24{clip-path:url(#clip-path-24);}.cls-25{clip-path:url(#clip-path-25);}.cls-26{clip-path:url(#clip-path-26);}.cls-27{clip-path:url(#clip-path-27);}.cls-28{clip-path:url(#clip-path-28);}.cls-29{clip-path:url(#clip-path-29);}.cls-30{clip-path:url(#clip-path-30);}.cls-31{clip-path:url(#clip-path-31);}.cls-32{clip-path:url(#clip-path-32);}.cls-33{clip-path:url(#clip-path-33);}.cls-34{clip-path:url(#clip-path-34);}.cls-35{clip-path:url(#clip-path-35);}.cls-36{fill:url(#Degradado_sin_nombre_7);}.cls-37{fill:url(#Degradado_sin_nombre_7-2);}.cls-38{fill:#1464a5;}.cls-39{fill:#49a5e6;}.cls-40{opacity:0.5;}.cls-41{fill:url(#linear-gradient);}.cls-42{fill:url(#Degradado_sin_nombre_37);}.cls-43{fill:#028484;}.cls-44{fill:#043263;}.cls-45{fill:#d4edfc;}.cls-46{fill:#2dcccd;}</style><clipPath id="clip-path"><rect class="cls-1" x="-1526.68" y="628.61" width="53.76" height="39.88"/></clipPath><clipPath id="clip-path-2"><path class="cls-3" d="M-1454,727.65h-86.58a9.36,9.36,0,0,1-9.45-9.21v-62.8a9.36,9.36,0,0,1,9.45-9.21H-1454a9.36,9.36,0,0,1,9.45,9.21v62.8a9.36,9.36,0,0,1-9.45,9.21"/></clipPath><clipPath id="clip-path-3"><path class="cls-3" d="M-1459.41,727.65H-1546a9.36,9.36,0,0,1-9.45-9.21v-62.8a9.36,9.36,0,0,1,9.45-9.21h86.58a9.36,9.36,0,0,1,9.45,9.21v62.8a9.36,9.36,0,0,1-9.45,9.21"/></clipPath><clipPath id="clip-path-4"><path class="cls-3" d="M-1546,646.43a9.36,9.36,0,0,0-9.45,9.21v62.81a9.35,9.35,0,0,0,9.45,9.2h86.58a9.35,9.35,0,0,0,9.45-9.2V655.64a9.36,9.36,0,0,0-9.45-9.21Z"/></clipPath><clipPath id="clip-path-8"><rect class="cls-1" x="-1527.81" y="679.26" width="50.98" height="17.64"/></clipPath><clipPath id="clip-path-9"><rect class="cls-1" x="-1511.13" y="662.57" width="17.62" height="51.03"/></clipPath><clipPath id="clip-path-10"><rect class="cls-1" x="-652" y="628.73" width="104" height="104"/></clipPath><clipPath id="clip-path-11"><path class="cls-3" d="M-600.18,734.91H-601a2.25,2.25,0,0,1-2.46-1.92V690.87A2.25,2.25,0,0,1-601,689h.79a2.23,2.23,0,0,1,2.44,1.92V733a2.23,2.23,0,0,1-2.44,1.92"/></clipPath><clipPath id="clip-path-12"><path class="cls-3" d="M-603.42,725.71s-10.43,3.1-18.69-1.43-11.25-15-11.25-15,10.42-3.11,18.69,1.43,11.25,15,11.25,15"/></clipPath><clipPath id="clip-path-13"><path class="cls-3" d="M-570.95,696.15s0,14-8.61,22.51-22.6,8.38-22.6,8.38,0-14,8.61-22.51,22.6-8.38,22.6-8.38"/></clipPath><clipPath id="clip-path-14"><polygon class="cls-3" points="2127.96 624.17 2125.09 667.74 2144.64 667.74 2141.78 624.17 2127.96 624.17"/></clipPath><clipPath id="clip-path-15"><polygon class="cls-3" points="2127.31 633.97 2126.99 639 2142.75 639 2142.42 633.97 2127.31 633.97"/></clipPath><clipPath id="clip-path-16"><polygon class="cls-3" points="2126.56 645.42 2126.23 650.45 2143.5 650.45 2143.18 645.42 2126.56 645.42"/></clipPath><clipPath id="clip-path-17"><polygon class="cls-3" points="2125.81 656.87 2125.48 661.9 2144.26 661.9 2143.93 656.87 2125.81 656.87"/></clipPath><clipPath id="clip-path-18"><rect class="cls-1" x="2048.74" y="671.1" width="103.41" height="55.79"/></clipPath><clipPath id="clip-path-19"><rect class="cls-1" x="2120.57" y="674.44" width="22.71" height="9.74"/></clipPath><clipPath id="clip-path-20"><rect class="cls-1" x="2119.51" y="683.72" width="24.67" height="1.9"/></clipPath><clipPath id="clip-path-21"><rect class="cls-1" x="2048.73" y="713.23" width="103.41" height="13"/></clipPath><clipPath id="clip-path-22"><polygon class="cls-3" points="2074.98 670.33 2152.14 671.09 2152.14 726.89 2074.98 727.01 2074.98 670.33"/></clipPath><clipPath id="clip-path-23"><rect class="cls-1" x="2057.6" y="674.44" width="22.71" height="9.74"/></clipPath><clipPath id="clip-path-24"><rect class="cls-1" x="2089.08" y="674.44" width="22.71" height="9.74"/></clipPath><clipPath id="clip-path-25"><path class="cls-3" d="M2126.89,628.37a2.13,2.13,0,0,1,0-4.2h16a2.13,2.13,0,0,1,0,4.2Z"/></clipPath><clipPath id="clip-path-26"><rect class="cls-1" x="2073.26" y="692.18" width="51.12" height="34.71"/></clipPath><clipPath id="clip-path-27"><rect class="cls-1" x="2044.18" y="661.9" width="111.63" height="9.19"/></clipPath><clipPath id="clip-path-28"><polygon class="cls-3" points="2074.59 645.96 2048.73 661.9 2074.59 661.9 2074.59 645.96"/></clipPath><clipPath id="clip-path-29"><polygon class="cls-3" points="2100.44 645.96 2074.59 661.9 2100.44 661.9 2100.44 645.96"/></clipPath><clipPath id="clip-path-30"><polygon class="cls-3" points="2126.29 645.96 2100.44 661.9 2126.29 661.9 2126.29 645.96"/></clipPath><clipPath id="clip-path-31"><polygon class="cls-3" points="2152.14 645.96 2126.29 661.9 2152.14 661.9 2152.14 645.96"/></clipPath><clipPath id="clip-path-32"><rect class="cls-1" x="2073.26" y="692.12" width="54.36" height="4.12"/></clipPath><clipPath id="clip-path-33"><rect class="cls-1" x="2056.7" y="683.72" width="24.67" height="1.9"/></clipPath><clipPath id="clip-path-34"><rect class="cls-1" x="2088.1" y="683.72" width="24.67" height="1.9"/></clipPath><clipPath id="clip-path-35"><rect class="cls-1" x="2072.27" y="691.13" width="52.23" height="36.4"/></clipPath><linearGradient id="Degradado_sin_nombre_7" x1="271.68" y1="195.14" x2="459.4" y2="548.2" gradientUnits="userSpaceOnUse"><stop offset="0" stop-color="#192647"/><stop offset="0" stop-color="#192647" stop-opacity="0.5"/><stop offset="1" stop-color="#192647" stop-opacity="0"/></linearGradient><linearGradient id="Degradado_sin_nombre_7-2" x1="253.06" y1="215.77" x2="452.41" y2="590.69" xlink:href="#Degradado_sin_nombre_7"/><linearGradient id="linear-gradient" x1="296.39" y1="209.86" x2="330.31" y2="227.89" gradientUnits="userSpaceOnUse"><stop offset="0" stop-color="#eaf9fa"/><stop offset="1" stop-color="#e9f8f9" stop-opacity="0.2"/><stop offset="1" stop-color="#eaf9fa" stop-opacity="0.5"/></linearGradient><linearGradient id="Degradado_sin_nombre_37" x1="389.21" y1="311.89" x2="194" y2="311.89" gradientUnits="userSpaceOnUse"><stop offset="0" stop-color="#043263" stop-opacity="0.3"/><stop offset="1" stop-color="#043263" stop-opacity="0.1"/></linearGradient></defs><title>servicios</title><path class="cls-36" d="M531,336.24a3.19,3.19,0,0,0,4.45-.11l11.11-11.31a3.2,3.2,0,0,0-.07-4.56,131.67,131.67,0,0,0-62-32.7V237.47h6.81a3.27,3.27,0,0,0,3.07-2.14l6.48-17.52a3.27,3.27,0,0,0-3.07-4.4H359.93a3.28,3.28,0,0,0-3.07,2.13l-6.48,17.52a3.27,3.27,0,0,0,3.07,4.41h13.71L328,309.88l0,.15H248.77a25.6,25.6,0,0,0-25.59,25.6v4.69h-.11a3.2,3.2,0,0,0-3.2,3.2v12.22a3.2,3.2,0,0,0,3.2,3.2h.11v39.77A58,58,0,1,0,306,423.34h17.46v18.92a3.35,3.35,0,0,0,3.34,3.34h15.58a3.35,3.35,0,0,0,3.34-3.34V423.34h21.34a89.14,89.14,0,1,0,134.8-82.75c3.95-7.09,7.51-13.46,10.28-18.42A111.23,111.23,0,0,1,531,336.24Z"/><path class="cls-37" d="M279.26,272.51h2a7,7,0,0,1,7,7v30.37h11.12V279.51a18.12,18.12,0,0,0-18.12-18.13h-2a3.33,3.33,0,0,0-3.34,3.34v4.45A3.34,3.34,0,0,0,279.26,272.51Z"/><path class="cls-38" d="M428.84,161.94a3.34,3.34,0,0,0-3.34-3.33h-94A11.73,11.73,0,0,0,320.57,166l-48.22,89.12,4.15,20.15H428.84Z"/><path class="cls-39" d="M272.35,255.08H401.68a3.34,3.34,0,0,0,3.34-3.34V182.67H311.59Z"/><g class="cls-40"><polygon class="cls-41" points="354.35 182.67 311.59 182.67 272.35 255.08 312.11 255.08 354.35 182.67"/></g><path class="cls-38" d="M400.34,368.54H167.54V280.83a25.6,25.6,0,0,1,25.59-25.6H400.34Z"/><polygon class="cls-42" points="389.21 255.23 252.32 255.23 194 368.54 389.21 368.54 389.21 255.23"/><path class="cls-43" d="M405,360.12c.68-1.85,57.44-103.39,57.44-103.39s-33.31-16.65-56.62-16.65-66.61,17.76-79.56,30.71-42.34,34.79-42.34,70.68,2.37,27,2.37,27l114,.06Z"/><path class="cls-44" d="M311.18,362.19a89.16,89.16,0,1,1,89.16,89.16A89.25,89.25,0,0,1,311.18,362.19Z"/><circle class="cls-45" cx="400.34" cy="362.19" r="31.16"/><path class="cls-45" d="M167.43,304.14h13.22a12.31,12.31,0,0,0,12.2-10.64l.8-5.81a1.91,1.91,0,0,0-2-2.17H167.43a3.2,3.2,0,0,0-3.2,3.2v12.22A3.2,3.2,0,0,0,167.43,304.14Z"/><path class="cls-46" d="M286.75,390.8H271.17a3.35,3.35,0,0,1-3.34-3.34V363.79c0-73.42,60.08-134.63,133.49-134.1a131.64,131.64,0,0,1,89.49,35.77,3.2,3.2,0,0,1,.07,4.56l-11.11,11.31a3.2,3.2,0,0,1-4.45.12A109.46,109.46,0,0,0,401.13,252c-61.07-.43-111,50.5-111,111.57v23.94A3.35,3.35,0,0,1,286.75,390.8Z"/><path class="cls-44" d="M139.89,393.33a58,58,0,1,1,58,58A58.09,58.09,0,0,1,139.89,393.33Z"/><circle class="cls-45" cx="197.92" cy="393.33" r="23.93"/><path class="cls-44" d="M442.13,158.61H304.29a3.28,3.28,0,0,0-3.07,2.13l-6.48,17.52a3.27,3.27,0,0,0,3.07,4.41H435.65a3.27,3.27,0,0,0,3.07-2.14L445.2,163A3.27,3.27,0,0,0,442.13,158.61Z"/><path class="cls-45" d="M243.75,255.08H232.62V224.71a7,7,0,0,0-7-7h-2a3.34,3.34,0,0,1-3.34-3.34v-4.45a3.33,3.33,0,0,1,3.34-3.34h2a18.13,18.13,0,0,1,18.13,18.13Z"/></svg>