<svg id="Capa_1" data-name="Capa 1" xmlns="http://www.w3.org/2000/svg" xmlns:xlink="http://www.w3.org/1999/xlink" viewBox="0 0 600 600"><defs><style>.cls-1{fill:url(#Degradado_sin_nombre_6);}.cls-2{fill:#2dcccd;}.cls-3{fill:#1464a5;}.cls-4{fill:#004481;}.cls-5{fill:#f8cd51;}.cls-6{fill:url(#Degradado_sin_nombre_3);}.cls-7{fill:#fef5dc;}</style><linearGradient id="Degradado_sin_nombre_6" x1="241.54" y1="129.8" x2="418.72" y2="463.02" gradientUnits="userSpaceOnUse"><stop offset="0" stop-color="#192647"/><stop offset="0" stop-color="#192647" stop-opacity="0.5"/><stop offset="1" stop-color="#192647" stop-opacity="0"/></linearGradient><linearGradient id="Degradado_sin_nombre_3" x1="421.99" y1="1440.25" x2="466.75" y2="1416.45" gradientTransform="matrix(1, 0, 0, -1, 0, 1584)" gradientUnits="userSpaceOnUse"><stop offset="0" stop-color="#fff" stop-opacity="0.6"/><stop offset="1" stop-color="#fff" stop-opacity="0.2"/></linearGradient></defs><path class="cls-1" d="M522.13,150l0-.07a53.64,53.64,0,0,0-43.83-3l-.74.29c-.53.2-1.07.41-1.6.63s-.86.38-1.29.57-.69.3-1,.47c-.52.24-1,.5-1.52.75l-.78.41c-.52.27-1,.56-1.54.86l-.73.42c-.49.29-1,.6-1.45.91l-.77.5c-.45.29-.88.6-1.31.9-.28.21-.57.41-.86.61l-1.14.89c-.32.24-.63.49-.94.74l-1,.85c-.33.29-.67.57-1,.87s-.61.56-.91.84l-1,1-.86.9c-.32.33-.64.65-.95,1s-.61.69-.91,1-.55.62-.82.94-.74.93-1.1,1.4l-.53.67c-1.06,1.42-2.06,2.9-3,4.42-.25.41-.48.83-.71,1.24s-.4.68-.59,1l-.12.22c-.35.64-.68,1.3-1,2l-.06.1a53.25,53.25,0,0,0-5.25,26.05.92.92,0,0,0,0,.16c0,.25,0,.51.06.77a53.83,53.83,0,0,0,17.23,36.1l-61.42,87.91a37.9,37.9,0,0,0-42.82,4.24l-57.36-45.69a37.9,37.9,0,1,0-63.2,4.33l-67.89,82.6a38,38,0,1,0,12.36,10.16l67.68-82.34a37.9,37.9,0,0,0,40.41-2.76l58.24,46.38a37.91,37.91,0,1,0,64.69-6.32l62.53-89.49a54.06,54.06,0,0,0,77.49-48.69v0A54.09,54.09,0,0,0,522.13,150Z"/><rect class="cls-2" x="88.52" y="296.88" width="177.58" height="16" transform="translate(-170.81 248.3) rotate(-50.59)"/><rect class="cls-2" x="314.64" y="249.49" width="180.53" height="16" transform="translate(-38.08 441.92) rotate(-55.06)"/><rect class="cls-2" x="285.45" y="207.49" width="16" height="152.79" transform="translate(-111.43 336.55) rotate(-51.46)"/><circle class="cls-3" cx="120.15" cy="374.48" r="37.9"/><circle class="cls-4" cx="120.15" cy="374.48" r="20.34"/><circle class="cls-3" cx="235.54" cy="235.23" r="37.9"/><circle class="cls-4" cx="235.54" cy="235.23" r="20.34"/><circle class="cls-3" cx="350.4" cy="328.45" r="37.9"/><circle class="cls-4" cx="350.4" cy="328.45" r="20.34"/><path class="cls-5" d="M520.87,167.7a54,54,0,1,1-54.08-54h0a54.08,54.08,0,0,1,54.08,54h0"/><path class="cls-6" d="M492.16,119.89a54,54,0,0,0-50.68,95.39Z"/><path class="cls-7" d="M447.94,165.71h-7.36v-5.55h8c2.23-12.49,10-18.2,19-18.2,9.51,0,14.53,4.89,17,11l-7,4c-1.75-5.24-4.8-7.7-10-7.7-5.54,0-9.51,3.56-10.91,10.92h12.49v5.55h-13.1v1.75c0,1,0,2,.09,2.9h13.06V176H456.9c1.4,6.87,4.85,10.43,10.91,10.43,5.24,0,8.35-2.33,10.24-8.11l6.86,4.14c-2.81,6.46-8.63,11.09-17.2,11.09-9.34,0-16.7-5.55-19-17.55h-8.08v-5.63h7.44c-.08-.91-.08-1.82-.08-2.73v-1.9Z"/></svg>