<svg id="Contenido" xmlns="http://www.w3.org/2000/svg" xmlns:xlink="http://www.w3.org/1999/xlink" viewBox="0 0 600 600"><defs><style>.cls-1{fill:url(#Degradado_sin_nombre_26);}.cls-2{fill:#1464a5;}.cls-3{fill:url(#Degradado_sin_nombre_2);}.cls-4{fill:#2dcccd;}.cls-5{fill:#d72544;}.cls-6{fill:#fff;}</style><linearGradient id="Degradado_sin_nombre_26" x1="297.29" y1="183.58" x2="458.82" y2="487.37" gradientUnits="userSpaceOnUse"><stop offset="0" stop-color="#192647" stop-opacity="0.5"/><stop offset="1" stop-color="#192647" stop-opacity="0"/></linearGradient><linearGradient id="Degradado_sin_nombre_2" x1="472" y1="310.1" x2="219.39" y2="310.1" gradientUnits="userSpaceOnUse"><stop offset="0" stop-color="#043263" stop-opacity="0.6"/><stop offset="1" stop-color="#043263" stop-opacity="0"/></linearGradient></defs><title>GLOMO</title><path class="cls-1" d="M566.27,257.15,495.8,134.24a3.53,3.53,0,0,0-6.13,0L447.5,207.79c-1.9-1.3-3.83-2.55-5.79-3.77l-.22-.14q-4.82-3-9.85-5.69h0a172,172,0,1,0-157,306.09l.06,0q6.85,3.39,14,6.17l.08,0c1.5.58,3,1.13,4.54,1.67l.5.18c1.47.51,2.94,1,4.42,1.48l.35.11q4.83,1.54,9.79,2.8l.43.1c1.43.36,2.86.7,4.3,1l1.1.24c1.26.27,2.52.53,3.79.77l1.2.23c1.38.26,2.77.5,4.16.72l.72.12c1.66.26,3.33.49,5,.7l.69.08c1.39.17,2.79.32,4.19.46l1.55.14,3.42.26,1.72.11c1.16.07,2.32.12,3.49.16l1.54.06c1.67.05,3.34.08,5,.08a172,172,0,0,0,172-172c0-1.84,0-3.67-.1-5.49l-.06-1.55c-.06-1.43-.13-2.85-.22-4.27l-.09-1.31c-.13-1.8-.28-3.59-.47-5.36,0-.36-.08-.7-.12-1.06-.16-1.46-.34-2.92-.54-4.37l-.21-1.51c-.23-1.57-.47-3.13-.74-4.68,0-.21-.07-.42-.11-.63-.31-1.76-.65-3.5-1-5.24-.1-.44-.19-.87-.29-1.31-.3-1.37-.61-2.74-.95-4.1-.1-.43-.2-.86-.31-1.28q-.64-2.59-1.37-5.14c0-.14-.09-.28-.13-.42-.45-1.57-.93-3.12-1.42-4.66-.14-.43-.27-.86-.41-1.28-.48-1.44-1-2.88-1.48-4.3l-.25-.73q-.92-2.52-1.91-5c-.11-.29-.23-.58-.35-.86-.56-1.39-1.14-2.77-1.74-4.13-.15-.36-.3-.71-.46-1.06q-2.16-4.87-4.62-9.59l-.47-.9q-1.1-2.07-2.24-4.11c-.12-.2-.23-.41-.34-.61l-1.53-2.62h64.41A3.53,3.53,0,0,0,566.27,257.15Z"/><circle class="cls-2" cx="300" cy="300" r="172"/><path class="cls-3" d="M380.91,148.19,219.39,452A172,172,0,0,0,380.91,148.19Z"/><path class="cls-4" d="M232.17,357.34a10,10,0,0,1-9.12-5.9c-10-22.24-14.68-41.19-14.68-59.62a91.58,91.58,0,0,1,22.4-60,10,10,0,1,1,15.1,13.11,71.57,71.57,0,0,0-17.5,46.92c0,15.5,4.1,31.84,12.92,51.41a10,10,0,0,1-9.12,14.11Z"/><path class="cls-4" d="M381.63,301.82a10,10,0,0,1-10-10A71.71,71.71,0,0,0,300,220.19a70.86,70.86,0,0,0-31.71,7.38,10,10,0,1,1-8.87-17.92A90.66,90.66,0,0,1,300,200.19a91.73,91.73,0,0,1,91.63,91.63A10,10,0,0,1,381.63,301.82Z"/><path class="cls-4" d="M265.47,374.93h-.27a10,10,0,0,1-9.74-10.25c.57-22.14-2.28-33.59-5-44.66-2.15-8.61-4.17-16.74-4.17-28.19a53.87,53.87,0,0,1,22.6-43.8,10,10,0,1,1,11.6,16.29,33.85,33.85,0,0,0-14.2,27.51c0,9,1.58,15.34,3.57,23.36,2.8,11.21,6.27,25.16,5.63,50A10,10,0,0,1,265.47,374.93Z"/><path class="cls-4" d="M341.61,372.34c-.31,0-.64,0-1,0a10,10,0,0,1-9-10.91c2.34-24.36,2.2-48.8,2.12-63.41,0-2.32,0-4.38,0-6.15a33.63,33.63,0,0,0-30.2-33.56,10,10,0,1,1,2.06-19.89,53.58,53.58,0,0,1,48.14,53.45c0,1.73,0,3.76,0,6,.09,15,.23,40.06-2.2,65.43A10,10,0,0,1,341.61,372.34Z"/><path class="cls-4" d="M306,399.81a10,10,0,0,1-10-10V362.59a10,10,0,1,1,20,0v27.22A10,10,0,0,1,306,399.81Z"/><path class="cls-4" d="M305.39,340.38a10,10,0,0,1-10-9.35c-1.44-22.3-5.07-36.56-5.1-36.7a10,10,0,0,1,19.36-5c.17.64,4.12,16.07,5.7,40.42a10,10,0,0,1-9.33,10.63C305.83,340.38,305.61,340.38,305.39,340.38Z"/><path class="cls-5" d="M438.93,84.24,368.46,207.15a3.53,3.53,0,0,0,3.07,5.29H512.47a3.53,3.53,0,0,0,3.07-5.29L445.07,84.24A3.54,3.54,0,0,0,438.93,84.24Z"/><path class="cls-6" d="M441.49,172.47a5.05,5.05,0,0,1-5-5.06V133.13a5,5,0,1,1,10.06,0v34.28A5,5,0,0,1,441.49,172.47Z"/><path class="cls-6" d="M441.5,191.39a5.05,5.05,0,0,1-3.56-1.49,4.7,4.7,0,0,1-.63-.77,4.83,4.83,0,0,1-.46-.87,5.46,5.46,0,0,1-.29-.95,5.55,5.55,0,0,1-.09-1,5.09,5.09,0,0,1,1.47-3.57,5,5,0,0,1,7.11,0,5.07,5.07,0,0,1-3.55,8.65Z"/></svg>