<svg xmlns="http://www.w3.org/2000/svg" xmlns:xlink="http://www.w3.org/1999/xlink" viewBox="0 0 600 600"><defs><style>.cls-1{fill:none;}.cls-2{fill:url(#Degradado_sin_nombre_32);}.cls-3{fill:#1464a5;}.cls-4{fill:url(#Degradado_sin_nombre_8);}.cls-5{fill:#2dcccd;}</style><linearGradient id="Degradado_sin_nombre_32" x1="181.84" y1="30.98" x2="457.02" y2="548.52" gradientUnits="userSpaceOnUse"><stop offset="0" stop-color="#192647" stop-opacity="0.5"/><stop offset="1" stop-color="#192647" stop-opacity="0"/></linearGradient><linearGradient id="Degradado_sin_nombre_8" x1="472.22" y1="3423.82" x2="219.39" y2="3423.82" gradientTransform="matrix(1, 0, 0, -1, 0, 3734)" gradientUnits="userSpaceOnUse"><stop offset="0" stop-color="#043263"/><stop offset="1" stop-color="#043263" stop-opacity="0"/></linearGradient></defs><title>15</title><g id="Cuadrados_Blancos" data-name="Cuadrados Blancos"><rect class="cls-1" width="600" height="600"/></g><g id="Capa_30" data-name="Capa 30"><circle class="cls-2" cx="352" cy="351" r="172"/><circle class="cls-3" cx="300" cy="300" r="172"/><path class="cls-4" d="M380.91,148.19,219.39,452A172,172,0,0,0,380.91,148.19Z"/><path class="cls-5" d="M232.17,357.34a10,10,0,0,1-9.12-5.9c-10-22.24-14.68-41.19-14.68-59.62a91.6,91.6,0,0,1,22.4-60,10,10,0,1,1,15.32,12.85l-.22.26a71.56,71.56,0,0,0-17.5,46.92c0,15.5,4.1,31.84,12.92,51.41a10,10,0,0,1-9.12,14.11Z"/><path class="cls-5" d="M381.63,301.82a10,10,0,0,1-10-10A71.71,71.71,0,0,0,300,220.19a70.88,70.88,0,0,0-31.71,7.38A10,10,0,1,1,259,209.85l.4-.2A90.67,90.67,0,0,1,300,200.19a91.74,91.74,0,0,1,91.63,91.63A10,10,0,0,1,381.63,301.82Z"/><path class="cls-5" d="M265.47,374.93h-.27a10,10,0,0,1-9.74-10.25c.57-22.14-2.28-33.59-5-44.66-2.15-8.61-4.17-16.74-4.17-28.19a53.88,53.88,0,0,1,22.6-43.8,10,10,0,1,1,11.82,16.13l-.22.16a33.85,33.85,0,0,0-14.2,27.51c0,9,1.58,15.34,3.57,23.36,2.8,11.21,6.27,25.16,5.63,50A10,10,0,0,1,265.47,374.93Z"/><path class="cls-5" d="M341.61,372.34h-1a10,10,0,0,1-9-10.91h0c2.34-24.36,2.2-48.8,2.12-63.41v-6.15a33.62,33.62,0,0,0-30.2-33.56,10,10,0,0,1,1.68-19.93l.38,0a53.58,53.58,0,0,1,48.14,53.45v6c.09,15,.23,40.06-2.2,65.43A10,10,0,0,1,341.61,372.34Z"/><path class="cls-5" d="M306,399.81a10,10,0,0,1-10-10V362.59a10,10,0,1,1,20,0v27.22A10,10,0,0,1,306,399.81Z"/><path class="cls-5" d="M305.39,340.38a10,10,0,0,1-10-9.35c-1.44-22.3-5.07-36.56-5.1-36.7a10,10,0,0,1,19.36-5c.17.64,4.12,16.07,5.7,40.42A10,10,0,0,1,306,340.38h-.63Z"/></g></svg>