<svg id="Contenido" xmlns="http://www.w3.org/2000/svg" xmlns:xlink="http://www.w3.org/1999/xlink" viewBox="0 0 600 600"><defs><style>.cls-1{fill:#f8cd50;}.cls-2{fill:url(#Degradado_sin_nombre_16);}.cls-3{fill:#1464a5;}.cls-4{fill:url(#Degradado_sin_nombre_72);}.cls-5{fill:#2dcccd;}.cls-6{clip-path:url(#clip-path);}.cls-7{fill:url(#Degradado_sin_nombre_5);}</style><linearGradient id="Degradado_sin_nombre_16" x1="223.73" y1="201.04" x2="455.26" y2="432.56" gradientUnits="userSpaceOnUse"><stop offset="0" stop-color="#1c2645"/><stop offset="0" stop-color="#1c2645" stop-opacity="0.5"/><stop offset="1" stop-color="#1c2645" stop-opacity="0"/></linearGradient><linearGradient id="Degradado_sin_nombre_72" x1="442.72" y1="362.98" x2="258.41" y2="362.98" gradientUnits="userSpaceOnUse"><stop offset="0.02" stop-color="#043263" stop-opacity="0.7"/><stop offset="1" stop-color="#043263" stop-opacity="0"/></linearGradient><clipPath id="clip-path"><path id="_Trazado_de_recorte_compuesto_" data-name="&lt;Trazado de recorte compuesto&gt;" class="cls-1" d="M340.61,375.93h0C329.4,364.59,303.8,354,301.3,339.36a11.06,11.06,0,0,0-.42-2.8c-.15-1.84-.24-3.79-.24-5.8a76.24,76.24,0,0,1,2-17.09,1.36,1.36,0,0,0-1.82-1.59,72.48,72.48,0,0,0-28.11,21c-4.37,3-11.27,14.43-14.51,18.42-.73.9-11,16.94-11.71,17.86-10.45,13.57-16.74,38-16.74,55.76,0,38.15,30.14,66.84,66,66.84a66.23,66.23,0,0,0,66-66.84C361.72,407.25,354.08,389.57,340.61,375.93Zm-81.78-16.28c.09-.57.16-.84.17-.66,0,0,0,0,0,0Z"/></clipPath><linearGradient id="Degradado_sin_nombre_5" x1="196.75" y1="323.25" x2="310.25" y2="436.75" gradientUnits="userSpaceOnUse"><stop offset="0" stop-color="#fff" stop-opacity="0.6"/><stop offset="1" stop-color="#fff" stop-opacity="0.2"/></linearGradient></defs><title>seguros_colombia</title><path class="cls-2" d="M480.86,304.43a149.92,149.92,0,0,0-5.94-17.66,157.86,157.86,0,0,0-12-23.6q-3-4.88-6.42-9.6-1.13-1.57-2.3-3.12-3.51-4.65-7.39-9.09t-8.09-8.67h0q-1.34-1.34-2.64-2.71h0a160.1,160.1,0,0,1-42.57-86.29,3,3,0,0,0-4.83-1.9c-5.58,4.38-16.26,14.1-28.82,32.16a3,3,0,0,1-5.38-.93,158.75,158.75,0,0,1-4.78-39.73A165.8,165.8,0,0,1,354,95.69a3,3,0,0,0-4-3.5A160.93,160.93,0,0,0,250.42,241c0,3.19.13,6.4.32,9.39a3,3,0,0,1-5.75,1.4,172.34,172.34,0,0,1-10.66-32.38,3,3,0,0,0-5.32-1.17c-23.28,29.84-37.28,83.5-37.28,122.68a146.36,146.36,0,0,0,29.22,88.64L220,435l20.52,15.8a146.38,146.38,0,0,0,16.3,12.55L294,492l4.92-9.43c.82.23,1.65.44,2.48.66h0q4.46,1.15,9,2l.17,0q2.08.4,4.17.74l.6.1q2.1.33,4.21.61l.21,0q2.26.29,4.54.51l.48,0q1.9.18,3.81.3l1.24.08q1.61.1,3.24.16l1.26,0,1.63,0q1.33,0,2.67,0h.08a147.13,147.13,0,0,0,49.42-8.55q6.68-2.38,13.09-5.38t12.47-6.58a147.85,147.85,0,0,0,25.35-18.88q3.87-3.59,7.49-7.46c24.08-25.77,39.14-60.56,39.14-100.21A140.93,140.93,0,0,0,480.86,304.43Z"/><path class="cls-3" d="M395.7,236.69h0a160.16,160.16,0,0,1-45.21-89,3,3,0,0,0-4.83-1.9c-5.58,4.38-16.26,14.1-28.82,32.16a3,3,0,0,1-5.38-.93,158.74,158.74,0,0,1-4.78-39.73A165.79,165.79,0,0,1,311,99.69a3,3,0,0,0-4-3.5A160.93,160.93,0,0,0,207.42,245c0,3.19.13,6.4.32,9.39a3,3,0,0,1-5.75,1.4,172.35,172.35,0,0,1-10.66-32.38,3,3,0,0,0-5.32-1.17c-23.28,29.84-37.28,83.5-37.28,122.68,0,83.92,67.13,147.06,147,147.06,78.39,0,147-62.47,147-147.05C442.72,305.58,425.7,266.7,395.7,236.69Z"/><path class="cls-4" d="M395.7,236.69h0q-1.34-1.34-2.64-2.71L258.41,487.23A149.2,149.2,0,0,0,295.77,492c78.39,0,147-62.47,147-147.05C442.72,305.58,425.7,266.7,395.7,236.69Z"/><path class="cls-5" d="M343.07,254.14l0,0a116.48,116.48,0,0,0-55.43-48,2.17,2.17,0,0,0-2.94,2.51,119.92,119.92,0,0,1,3.15,27.17,114.82,114.82,0,0,1-3.45,28.69,2.16,2.16,0,0,1-3.86.69c-9.06-13.06-16.77-20.08-20.8-23.25a2.17,2.17,0,0,0-3.48,1.38,115.73,115.73,0,0,1-32.6,64.27h0c-21.64,21.67-33.91,49.75-33.91,78.16,0,61.09,49.44,106.2,106,106.2,57.63,0,106-45.6,106-106.21C401.72,357.45,359.41,276,343.07,254.14Zm14.41,38.43a7,7,0,0,1,.3,1.71C357.68,293.71,357.59,293.13,357.48,292.56Z"/><path id="_Trazado_de_recorte_compuesto_2" data-name="&lt;Trazado de recorte compuesto&gt;" class="cls-1" d="M340.61,375.93h0C329.4,364.59,303.8,354,301.3,339.36a11.06,11.06,0,0,0-.42-2.8c-.15-1.84-.24-3.79-.24-5.8a76.24,76.24,0,0,1,2-17.09,1.36,1.36,0,0,0-1.82-1.59,72.48,72.48,0,0,0-28.11,21c-4.37,3-11.27,14.43-14.51,18.42-.73.9-11,16.94-11.71,17.86-10.45,13.57-16.74,38-16.74,55.76,0,38.15,30.14,66.84,66,66.84a66.23,66.23,0,0,0,66-66.84C361.72,407.25,354.08,389.57,340.61,375.93Zm-81.78-16.28c.09-.57.16-.84.17-.66,0,0,0,0,0,0Z"/><g class="cls-6"><polygon class="cls-7" points="251 496 334 337 296 287 197 323 177 439 251 496"/></g></svg>