<svg xmlns="http://www.w3.org/2000/svg" xmlns:xlink="http://www.w3.org/1999/xlink" viewBox="0 0 600 600"><defs><style>.cls-1{fill:none;}.cls-2{fill:url(#Degradado_sin_nombre_37);}.cls-3{fill:#043263;}.cls-4{fill:url(#Degradado_sin_nombre_39);}.cls-5{fill:#2dcccd;}.cls-6{fill:#f8cd50;}.cls-7{clip-path:url(#clip-path);}.cls-8{fill:url(#Degradado_sin_nombre_12);}</style><linearGradient id="Degradado_sin_nombre_37" x1="237.36" y1="188.21" x2="407.39" y2="508" gradientUnits="userSpaceOnUse"><stop offset="0" stop-color="#1c2645" stop-opacity="0.5"/><stop offset="1" stop-color="#1c2645" stop-opacity="0"/></linearGradient><linearGradient id="Degradado_sin_nombre_39" x1="442.77" y1="2719.01" x2="258.41" y2="2719.01" gradientTransform="matrix(1, 0, 0, -1, 0, 3082)" gradientUnits="userSpaceOnUse"><stop offset="0.02" stop-color="#072146" stop-opacity="0.8"/><stop offset="1" stop-color="#072146" stop-opacity="0"/></linearGradient><clipPath id="clip-path"><path class="cls-1" d="M340.61,375.93h0C329.4,364.59,303.8,354,301.3,339.36a11,11,0,0,0-.42-2.8c-.15-1.84-.24-3.79-.24-5.8a76.23,76.23,0,0,1,2-17.09,1.37,1.37,0,0,0-1-1.65,1.44,1.44,0,0,0-.82.06,72.43,72.43,0,0,0-28.11,21c-4.37,3-11.27,14.43-14.51,18.42-.73.9-11,16.94-11.71,17.86-10.45,13.57-16.74,38-16.74,55.76,0,38.15,30.14,66.84,66,66.84a66.23,66.23,0,0,0,66-66.46v-.38C361.72,407.25,354.08,389.57,340.61,375.93Zm-81.78-16.28c.09-.57.16-.84.17-.66h0Z"/></clipPath><linearGradient id="Degradado_sin_nombre_12" x1="196.75" y1="2758.75" x2="310.25" y2="2645.25" gradientTransform="matrix(1, 0, 0, -1, 0, 3082)" gradientUnits="userSpaceOnUse"><stop offset="0" stop-color="#fff" stop-opacity="0.6"/><stop offset="1" stop-color="#fff" stop-opacity="0.2"/></linearGradient></defs><g id="Cuadrados_Blancos" data-name="Cuadrados Blancos"><rect class="cls-1" width="600" height="600"/></g><g id="Capa_7" data-name="Capa 7"><path class="cls-2" d="M438.7,269.69h0a160.09,160.09,0,0,1-45.21-89,3,3,0,0,0-3.42-2.52,3.09,3.09,0,0,0-1.41.62c-5.58,4.38-16.26,14.1-28.82,32.16a3,3,0,0,1-5.38-.93,158.84,158.84,0,0,1-4.78-39.73,165.82,165.82,0,0,1,4.32-37.6,3,3,0,0,0-2.21-3.62,3,3,0,0,0-1.79.12A160.94,160.94,0,0,0,250.42,278c0,3.19.13,6.4.32,9.39a3,3,0,0,1-5.75,1.4,172.23,172.23,0,0,1-10.66-32.38,3,3,0,0,0-5.32-1.17c-23.28,29.84-37.28,83.5-37.28,122.68,0,83.92,67.13,147.06,147,147.06,78.39,0,147-62.47,147-147C485.72,338.58,468.7,299.7,438.7,269.69Z"/><path class="cls-3" d="M395.7,236.69h0a160.09,160.09,0,0,1-45.21-89,3,3,0,0,0-3.42-2.52,3.09,3.09,0,0,0-1.41.62c-5.58,4.38-16.26,14.1-28.82,32.16a3,3,0,0,1-5.38-.93,158.84,158.84,0,0,1-4.78-39.73A165.82,165.82,0,0,1,311,99.69a3,3,0,0,0-2.21-3.62,3,3,0,0,0-1.79.12A160.94,160.94,0,0,0,207.42,245c0,3.19.13,6.4.32,9.39a3,3,0,0,1-5.75,1.4,172.23,172.23,0,0,1-10.66-32.38,3,3,0,0,0-5.32-1.17c-23.28,29.84-37.28,83.5-37.28,122.68,0,83.92,67.13,147.06,147,147.06,78.39,0,147-62.47,147-147C442.72,305.58,425.7,266.7,395.7,236.69Z"/><path class="cls-4" d="M395.7,236.69h0c-.89-.89-1.77-1.8-2.64-2.71L258.41,487.23A149.51,149.51,0,0,0,295.77,492c78.39,0,147-62.47,147-147C442.72,305.58,425.7,266.7,395.7,236.69Z"/><path class="cls-5" d="M343.07,254.14h0a116.52,116.52,0,0,0-55.43-48,2.16,2.16,0,0,0-2.83,1.18,2.1,2.1,0,0,0-.11,1.33,120.06,120.06,0,0,1,3.15,27.17,115.12,115.12,0,0,1-3.45,28.69,2.16,2.16,0,0,1-3.86.69c-9.06-13.06-16.77-20.08-20.8-23.25a2.17,2.17,0,0,0-3.05.38,2.24,2.24,0,0,0-.43,1,115.73,115.73,0,0,1-32.6,64.27h0c-21.64,21.67-33.91,49.75-33.91,78.16,0,61.09,49.44,106.2,106,106.2,57.63,0,106-45.6,106-106.21C401.72,357.45,359.41,276,343.07,254.14Zm14.41,38.43a7.13,7.13,0,0,1,.3,1.71c-.1-.57-.19-1.15-.3-1.72Z"/><path id="_Trazado_de_recorte_compuesto_2" data-name=" Trazado de recorte compuesto 2" class="cls-6" d="M340.61,375.93h0C329.4,364.59,303.8,354,301.3,339.36a11,11,0,0,0-.42-2.8c-.15-1.84-.24-3.79-.24-5.8a76.23,76.23,0,0,1,2-17.09,1.37,1.37,0,0,0-1-1.65,1.44,1.44,0,0,0-.82.06,72.43,72.43,0,0,0-28.11,21c-4.37,3-11.27,14.43-14.51,18.42-.73.9-11,16.94-11.71,17.86-10.45,13.57-16.74,38-16.74,55.76,0,38.15,30.14,66.84,66,66.84a66.23,66.23,0,0,0,66-66.46v-.38C361.72,407.25,354.08,389.57,340.61,375.93Zm-81.78-16.28c.09-.57.16-.84.17-.66h0Z"/><g class="cls-7"><polygon class="cls-8" points="251 496 334 337 296 287 197 323 177 439 251 496"/></g></g></svg>