<svg id="Contenido" xmlns="http://www.w3.org/2000/svg" xmlns:xlink="http://www.w3.org/1999/xlink" viewBox="0 0 600 600"><defs><style>.cls-1{fill:url(#Degradado_sin_nombre_7);}.cls-2{fill:url(#Degradado_sin_nombre_7-2);}.cls-3{fill:url(#Degradado_sin_nombre_7-3);}.cls-4{fill:url(#Degradado_sin_nombre_7-4);}.cls-5{fill:#d4edfc;}.cls-6{fill:#49a5e6;}.cls-7{fill:#4ea6e3;}.cls-8{fill:#2dcccd;}.cls-9{fill:#1aa5a4;}.cls-10{fill:#004481;}.cls-11{opacity:0.5;fill:url(#linear-gradient);}</style><linearGradient id="Degradado_sin_nombre_7" x1="238.5" y1="162.54" x2="454.8" y2="569.33" gradientUnits="userSpaceOnUse"><stop offset="0" stop-color="#192647"/><stop offset="0" stop-color="#192647" stop-opacity="0.5"/><stop offset="1" stop-color="#192647" stop-opacity="0"/></linearGradient><linearGradient id="Degradado_sin_nombre_7-2" x1="325.31" y1="83.75" x2="541.2" y2="489.78" xlink:href="#Degradado_sin_nombre_7"/><linearGradient id="Degradado_sin_nombre_7-3" x1="314.41" y1="92.01" x2="530.3" y2="498.03" xlink:href="#Degradado_sin_nombre_7"/><linearGradient id="Degradado_sin_nombre_7-4" x1="402.41" y1="20.13" x2="619.14" y2="427.75" xlink:href="#Degradado_sin_nombre_7"/><linearGradient id="linear-gradient" x1="162" y1="353.39" x2="361.7" y2="353.39" gradientUnits="userSpaceOnUse"><stop offset="0" stop-color="#eaf9fa"/><stop offset="1" stop-color="#e4f8f8" stop-opacity="0.2"/><stop offset="1" stop-color="#eaf9fa" stop-opacity="0.5"/></linearGradient></defs><title>0</title><path class="cls-1" d="M465.12,270a10,10,0,0,0-10-10h-210a10,10,0,0,0-2,19.8,147,147,0,0,0,46.6,234.8L283,531.85a3,3,0,0,0,2.8,4.08H414.4a3,3,0,0,0,2.8-4.08l-6.65-17.26a147,147,0,0,0,46.59-234.8A10,10,0,0,0,465.12,270Z"/><path class="cls-2" d="M405.31,239.29a5,5,0,1,0-5-5A5,5,0,0,0,405.31,239.29Z"/><path class="cls-3" d="M383.67,232.42a10,10,0,1,0-9.92-10.08A10,10,0,0,0,383.67,232.42Z"/><path class="cls-4" d="M539,192c.35-.38.7-.78,1-1.17s.51-.6.76-.91.41-.52.61-.78l.58-.74.59-.82.52-.73.56-.83.48-.74c.18-.28.36-.56.53-.84l.45-.75.49-.84c.14-.25.27-.5.41-.74l.47-.86.35-.69q.43-.86.84-1.71c.1-.23.21-.46.32-.69l.39-.89.3-.7c.13-.3.25-.59.36-.89s.19-.46.28-.7.23-.58.33-.87.18-.47.26-.7l.31-.87.22-.67c.1-.29.19-.58.29-.86s.13-.43.19-.64c.33-1.06.62-2.1.88-3.11l.15-.6c.07-.27.13-.54.19-.81l.15-.62c.06-.25.11-.51.17-.77s.08-.4.13-.6l.15-.75c0-.2.07-.39.11-.58s.09-.48.13-.72.07-.38.1-.57.08-.45.11-.67.06-.37.08-.55c.07-.4.12-.79.17-1.17,0-.18.05-.36.08-.53s0-.39.07-.58,0-.34,0-.5,0-.36.06-.54,0-.31,0-.46,0-.33,0-.5,0-.29,0-.43,0-.3,0-.45l0-.41,0-.39c0-.14,0-.27,0-.41s0-.2,0-.3,0-.38,0-.55v-.07a3,3,0,0,0-1.3-2.59l-.06,0-.45-.3-.27-.18-.33-.22-.33-.21-.35-.22-.37-.23-.38-.24-.42-.25-.4-.24-.47-.28-.43-.25-.51-.29-.41-.22-1.12-.61-.47-.25-.61-.31c-.17-.09-.34-.18-.52-.26l-.64-.32-.54-.27-.69-.32-.56-.26-.73-.33-.57-.24-.77-.33-.56-.23c-1-.4-2-.79-3-1.16l-.63-.23-.87-.29-.67-.22-.88-.27-.71-.21-.9-.26-.73-.19-.93-.24-.73-.17-1-.22-.71-.15q-1-.19-2-.36c-.24,0-.47-.09-.71-.12l-1-.15-.82-.11-1-.11-.86-.08-1-.08-.88-.06-1,0-.9,0-1,0-.94,0-1,0-1.18.07-1.57.13-1,.09h0a46.39,46.39,0,0,0-9,1.94c-.6.19-1.18.42-1.76.64h0c-19.78-7.45-33.46,4.1-38.95,10.15a3,3,0,0,0,1.16,4.81l13.94,5.37c-8.56,11.6-13.44,23.34-13.69,23.25-28.74-9.52-42.75,1.41-47.51,6.64a3,3,0,0,0,.36,4.34l17.69,14.25a3,3,0,0,1,1.11,2.22l.87,22.7a3,3,0,0,0,3.26,2.88c7-.69,24.18-5.4,33.7-34.14.09-.26,12.49,2.86,27,2.91h-.13l-4,14.39a3,3,0,0,0,3.17,3.79c8.13-.78,25.56-4.86,31.4-25.17h0c.53-.33,1-.67,1.56-1a46.32,46.32,0,0,0,6.92-6h0C538.56,192.48,538.77,192.23,539,192Z"/><path class="cls-5" d="M447,330.54A146.46,146.46,0,0,0,407,229.8a10,10,0,0,0-2-19.8H195a10,10,0,0,0-2,19.8,147,147,0,0,0,46.6,234.79l-6.66,17.27a3,3,0,0,0,2.8,4.08H364.28a3,3,0,0,0,2.8-4.08l-6.66-17.27A147,147,0,0,0,447,330.54Z"/><path class="cls-6" d="M188.87,248.18a138,138,0,1,0,222.26,0Z"/><circle class="cls-7" cx="355.23" cy="184.3" r="5"/><path class="cls-7" d="M323.63,172.35a10,10,0,1,0,10.08-9.92A10,10,0,0,0,323.63,172.35Z"/><path class="cls-8" d="M452.16,90.76c-24.05,7.75-38.84,44.37-39.29,44.22-28.74-9.52-42.75,1.4-47.51,6.64a3,3,0,0,0,.36,4.33l17.68,14.26a3,3,0,0,1,1.12,2.22l.87,22.7a3,3,0,0,0,3.26,2.87c7-.69,24.18-5.4,33.7-34.14.15-.45,38.36,9.55,58.94-5.1,20-14.23,22.31-39.41,22.58-46a3,3,0,0,0-1.3-2.58C497.1,96.4,475.5,83.24,452.16,90.76Z"/><path class="cls-9" d="M461.14,88.81a41.3,41.3,0,0,0,27.07,53.91c13.61-14.41,15.42-34.2,15.66-40a3,3,0,0,0-1.31-2.61C497.78,96.87,480.82,86.5,461.14,88.81Z"/><path class="cls-10" d="M332,403l-10.21,7.52a46.35,46.35,0,0,1-55.49-.41h0a46.35,46.35,0,0,0-55.52-.4L196,420.65A138,138,0,0,0,424.73,389.1,100.49,100.49,0,0,0,332,403Z"/><path class="cls-11" d="M188.87,248.18a138,138,0,0,0,60.95,210.41L361.7,248.18Z"/><path class="cls-9" d="M449.18,156.77l-4,14.39a3,3,0,0,0,3.16,3.8c8.14-.78,25.57-4.86,31.41-25.18C471,155.28,459.55,156.82,449.18,156.77Z"/><path class="cls-9" d="M412.61,106.36l13.94,5.36c6.16-8.34,14.23-16.6,23.86-20.32-19.78-7.45-33.46,4.09-39,10.15A3,3,0,0,0,412.61,106.36Z"/></svg>