<svg id="Contenido" xmlns="http://www.w3.org/2000/svg" xmlns:xlink="http://www.w3.org/1999/xlink" viewBox="0 0 600 600"><defs><style>.cls-1{fill:url(#Degradado_sin_nombre_47);}.cls-2{fill:#043263;}.cls-3{fill:#49a5e6;}.cls-4{fill:#2dcccd;}.cls-5{fill:#1464a5;}.cls-6{fill:url(#Degradado_sin_nombre_77);}</style><linearGradient id="Degradado_sin_nombre_47" x1="258.01" y1="223.97" x2="394.79" y2="481.21" gradientUnits="userSpaceOnUse"><stop offset="0" stop-color="#1a2746" stop-opacity="0.5"/><stop offset="1" stop-color="#1a2746" stop-opacity="0"/></linearGradient><linearGradient id="Degradado_sin_nombre_77" x1="467.59" y1="335.72" x2="356.04" y2="335.72" gradientUnits="userSpaceOnUse"><stop offset="0" stop-color="#004481" stop-opacity="0.2"/><stop offset="1" stop-color="#004481" stop-opacity="0"/></linearGradient></defs><title>values-day</title><path class="cls-1" d="M506.52,326.85l-68.67-68.67a93.14,93.14,0,0,0-21.39-16l.33-.5a3.28,3.28,0,0,0-1.38-4.8,95.41,95.41,0,0,0-83.92,2.38H230a3.3,3.3,0,0,0-3.3,3.29l14.91,80.56-23.71,23.7-13.77-21a49.58,49.58,0,0,0-41.48-22.42H159.9a3.29,3.29,0,0,0-3.29,3.29v18.58a28.32,28.32,0,0,0,28.32,28.32,28.32,28.32,0,0,0-28.32,28.32v18.59a3.29,3.29,0,0,0,3.29,3.29h2.77a49.58,49.58,0,0,0,41.48-22.42l11.58-17.7a3.25,3.25,0,0,1,5-.52L241.63,384l-14.91,80.55a3.3,3.3,0,0,0,3.3,3.3H331.49a95.41,95.41,0,0,0,83.92,2.38,3.28,3.28,0,0,0,1.38-4.8l-.33-.51a92.57,92.57,0,0,0,21.39-16l68.67-68.67A37.78,37.78,0,0,0,506.52,326.85Z"/><path class="cls-2" d="M172.33,303.57h-37.4a28.32,28.32,0,0,1-28.32-28.32V256.67a3.29,3.29,0,0,1,3.29-3.29h2.77a49.58,49.58,0,0,1,41.48,22.42Z"/><path class="cls-3" d="M387.85,208.18a93.25,93.25,0,0,0-23.78-17.24,198.26,198.26,0,0,0,0,225.26A92.77,92.77,0,0,0,387.85,399l68.67-68.67a37.78,37.78,0,0,0,0-53.44Z"/><path class="cls-4" d="M202,314.55H319.28a3.29,3.29,0,0,0,3.3-3.29V192.58a3.3,3.3,0,0,0-3.3-3.29H180a3.3,3.3,0,0,0-3.29,3.29l22,118.68A3.29,3.29,0,0,0,202,314.55Z"/><path class="cls-4" d="M180,417.86H319.28a3.3,3.3,0,0,0,3.3-3.3V295.89a3.3,3.3,0,0,0-3.3-3.3H202a3.29,3.29,0,0,0-3.29,3.3l-22,118.67A3.3,3.3,0,0,0,180,417.86Z"/><path class="cls-5" d="M333.07,303.57a201.37,201.37,0,0,1,33.72-111.86,3.28,3.28,0,0,0-1.38-4.8,95.18,95.18,0,0,0-106.83,19.28L167.78,297a22.48,22.48,0,0,1-15.9,6.58H134.93a28.32,28.32,0,0,0-28.32,28.32v18.59a3.29,3.29,0,0,0,3.29,3.29h2.77a49.58,49.58,0,0,0,41.48-22.42l11.58-17.7a3.25,3.25,0,0,1,5-.52L258.58,401a95.19,95.19,0,0,0,106.83,19.28,3.28,3.28,0,0,0,1.38-4.8A201.38,201.38,0,0,1,333.07,303.57Z"/><circle class="cls-2" cx="382.57" cy="265.79" r="16.47"/><path class="cls-6" d="M434.91,255.24,356,403.57c2.53,4.31,5.2,8.54,8,12.63A92.77,92.77,0,0,0,387.85,399l68.67-68.67a37.78,37.78,0,0,0,0-53.44Z"/></svg>