<svg xmlns="http://www.w3.org/2000/svg" xmlns:xlink="http://www.w3.org/1999/xlink" viewBox="0 0 600 600"><defs><style>.cls-1{fill:none;}.cls-2{fill:url(#Degradado_sin_nombre_168);}.cls-3{fill:#043263;}.cls-4{fill:#2dcccd;}.cls-5{fill:#004481;}.cls-6{fill:#1464a5;}.cls-7{fill:url(#Degradado_sin_nombre_30);}</style><linearGradient id="Degradado_sin_nombre_168" x1="229.72" y1="175.14" x2="438.32" y2="567.46" gradientUnits="userSpaceOnUse"><stop offset="0" stop-color="#192647" stop-opacity="0.5"/><stop offset="1" stop-color="#192647" stop-opacity="0"/></linearGradient><linearGradient id="Degradado_sin_nombre_30" x1="-242.92" y1="1770.46" x2="-422.51" y2="1674.97" gradientTransform="matrix(0.88, 0.47, 0.47, -0.88, -136.02, 1959.17)" gradientUnits="userSpaceOnUse"><stop offset="0" stop-color="#043263" stop-opacity="0.4"/><stop offset="1" stop-color="#043263" stop-opacity="0"/></linearGradient></defs><g id="Cuadrados_Blancos" data-name="Cuadrados Blancos"><rect class="cls-1" width="600" height="600"/></g><g id="Capa_31" data-name="Capa 31"><path class="cls-2" d="M545.7,354.79l-37-19.7,21.61-40.63h0a23,23,0,0,0-9.51-31.1L337.11,165.7h0a23,23,0,0,0-31.1,9.51L217.42,341.72a23,23,0,0,0-1.76,24.62L150,489.88a3,3,0,0,0,1.24,4.05L172.4,505.2a3,3,0,0,0,4.06-1.24l85.47-160.75,122.71,65.27-32.38,60.91a23,23,0,0,0,9.51,31.1l83,44.13a3,3,0,0,0,4.05-1.24l98.12-184.54A3,3,0,0,0,545.7,354.79Z"/><path class="cls-3" d="M196.92,285.23a23,23,0,0,0-22.06,40.37l.46.24Z"/><path class="cls-4" d="M192.45,265.93,218.94,280h0L126.46,454a3,3,0,0,1-4.06,1.24h0l-21.19-11.27a3,3,0,0,1-1.24-4.06h0l92.48-173.94Z"/><path class="cls-5" d="M392.4,249.86l103.3,54.93a3,3,0,0,1,1.24,4L398.82,493.38a3,3,0,0,1-4.05,1.24l-83-44.13a23,23,0,0,1-9.51-31.1L392.4,249.86Z"/><path class="cls-6" d="M390.08,414h0a23,23,0,0,0-9.51-31.1h0L196.92,285.23h0a23,23,0,0,0-31.11,9.5h0L256,125.21a23,23,0,0,1,31.1-9.51h0l183.65,97.65a23,23,0,0,1,9.51,31.1h0Z"/><circle class="cls-3" cx="369.77" cy="403.19" r="23"/><path class="cls-3" d="M359,423.49l-25.6-13.61h0a23,23,0,0,0-31.11,9.5h0l32.4-60.92,45.91,24.41Z"/><path class="cls-7" d="M470.71,213.35l-101-53.73L279.52,329.15l101.05,53.73a23,23,0,0,1,9.51,31.1l90.14-169.52a23,23,0,0,0-9.5-31.11Z"/></g></svg>