<svg id="Contenido" xmlns="http://www.w3.org/2000/svg" xmlns:xlink="http://www.w3.org/1999/xlink" viewBox="0 0 600 600"><defs><style>.cls-1{fill:url(#Degradado_sin_nombre);}.cls-2{fill:#e7d5a5;}.cls-3{fill:#2dcccd;}.cls-4,.cls-6,.cls-8{opacity:0.38;isolation:isolate;}.cls-4{fill:url(#Degradado_sin_nombre_2);}.cls-5{fill:#b79e5d;}.cls-6{fill:url(#Degradado_sin_nombre_3);}.cls-7{fill:#028484;}.cls-8{fill:url(#Degradado_sin_nombre_4);}.cls-9{fill:#0065aa;}.cls-10{fill:#0074be;}.cls-11{fill:url(#Degradado_sin_nombre_5);}.cls-12{fill:url(#Degradado_sin_nombre_6);}.cls-13{fill:none;}</style><linearGradient id="Degradado_sin_nombre" x1="218.23" y1="-2963.3" x2="398.55" y2="-2624.17" gradientTransform="translate(0 3131.17)" gradientUnits="userSpaceOnUse"><stop offset="0" stop-color="#1a2746" stop-opacity="0.5"/><stop offset="1" stop-color="#1a2746" stop-opacity="0"/></linearGradient><linearGradient id="Degradado_sin_nombre_2" x1="277.71" y1="-2835.54" x2="201.94" y2="-2835.54" gradientTransform="translate(0 3131.17)" gradientUnits="userSpaceOnUse"><stop offset="0" stop-color="#028484"/><stop offset="1" stop-color="#028484" stop-opacity="0.1"/></linearGradient><linearGradient id="Degradado_sin_nombre_3" x1="282.36" y1="-2766.39" x2="169.97" y2="-2766.39" xlink:href="#Degradado_sin_nombre_2"/><linearGradient id="Degradado_sin_nombre_4" x1="396.6" y1="-2784.74" x2="286.43" y2="-2784.74" xlink:href="#Degradado_sin_nombre_2"/><linearGradient id="Degradado_sin_nombre_5" x1="337.28" y1="-2974.56" x2="286.9" y2="-2974.56" gradientTransform="translate(0 3131.17)" gradientUnits="userSpaceOnUse"><stop offset="0" stop-color="#043263" stop-opacity="0.5"/><stop offset="1" stop-color="#043263" stop-opacity="0.1"/></linearGradient><linearGradient id="Degradado_sin_nombre_6" x1="375.17" y1="-2893.87" x2="291.53" y2="-2893.87" xlink:href="#Degradado_sin_nombre_5"/></defs><path class="cls-1" d="M399.44,469.93c-32.17-6.94-30.57-14.12-52.52-21.69-8.56-1.25-14.1-.74-19.17,2,0,0-1.11.77-2.55,1.8a19,19,0,0,1-2.34,1.39V439c20.75-.32,110.45-7.76,107.07-113.59q-.09-2.84-.25-5.79a1.23,1.23,0,0,0-.49-.88,3.2,3.2,0,0,0-2.94-1.06c-68.28,2.63-94.05,38.83-103.39,71V357.07l11.67-20.62a72.21,72.21,0,0,0,8.69-26.84,25.35,25.35,0,0,0,8.77-.42c.81-.2,1.61-.43,2.39-.7,10.95-2.06,22.76-8.05,33-17.62,10-9.26,16.69-20.21,19.68-30.69,3.44-11.93,2.06-23.3-4.94-30.75a24.62,24.62,0,0,0-10.31-6.54c-3-13.09-10.29-23-20.83-26.26a23.54,23.54,0,0,0-2.51-.61,78.64,78.64,0,0,0,2.15-17.75v-.09c0-2.33-.11-4.62-.32-6.85a7,7,0,0,0-.12-1.11c-.06-.59-.13-1.17-.21-1.76-.12-.87-.26-1.74-.42-2.59l-.23-1.18c-.16-.72-.31-1.44-.48-2.14-.07-.28-.13-.56-.21-.84-.21-.84-.44-1.68-.7-2.49-.05-.2-.12-.4-.19-.6h0c-3.81-11.94-11.32-20.69-21.45-23.2a25.29,25.29,0,0,0-12.61.17c-10-9.64-21.92-14.13-32.88-11-9.47,2.72-16.51,10.67-20.39,21.46a27.54,27.54,0,0,0-14.49,7.76c-14.42,15.05-7.84,44.92,14.8,66.73a81.08,81.08,0,0,0,21.92,15.16A77.09,77.09,0,0,0,304,263.81a80.52,80.52,0,0,0,5.85,16.72v61.26c-5-22.13-21.08-52.57-72.48-51.13a2.11,2.11,0,0,0-1.84.8.78.78,0,0,0-.28.6c0,1.28,0,2.52.09,3.75,2.41,69.51,62.63,69.21,74.51,68.46v41.61c-11.09-26.82-38.44-63.23-104.21-48.58a2.66,2.66,0,0,0-2.11,1.45,1,1,0,0,0-.22.82c.33,1.6.67,3.15,1,4.68,18.28,79.8,83.72,73.49,105.51,69v21.62c-.23-.06-.45-.09-.68-.16-9.5-2.7-21.88-1.32-32.72.12-17.9,1.11-39.2,5.07-42.59,33a4,4,0,0,0,3.43,4.41h188a4,4,0,0,0,4-4,3.75,3.75,0,0,0-.21-1.29C426.75,480.09,418.56,474.06,399.44,469.93ZM322.9,335.33V298.87c.68.67,1.38,1.29,2.08,1.9l.09.1-.14.13a24.17,24.17,0,0,0,7.9,5.55,62.18,62.18,0,0,1-7.55,24.56Z"/><path class="cls-2" d="M395.69,455c-2.3-6.94-10.52-13-29.63-17.1-32.16-6.94-30.58-14.12-52.52-21.7-8.57-1.24-14.11-.73-19.18,2,0,0-1.11.76-2.55,1.8a18.66,18.66,0,0,1-15.92,2.71c-9.49-2.7-21.87-1.32-32.72.11-17.91,1.11-39.19,5.07-42.59,33.05A4,4,0,0,0,204,460.3H392a4,4,0,0,0,4-4,4.05,4.05,0,0,0-.21-1.29"/><path class="cls-3" d="M202,260.57c.67,73.88,64.58,72.34,75.13,71.59a1.67,1.67,0,0,0,1.54-1.6c.31-10.51-.83-74.05-74.58-72-1.48.06-2.13.71-2.09,2"/><path class="cls-4" d="M202.73,259.21a.79.79,0,0,0-.79.79h0c.55,74.15,64.53,72.62,75.12,71.86a.68.68,0,0,0,.46-1.14h0l-74.22-71.26a.74.74,0,0,0-.56-.22Z"/><path class="cls-3" d="M170.16,328.32c18.74,92.62,98.61,75.21,111.68,71.71a2.13,2.13,0,0,0,1.54-2.38c-2.15-13.31-19-92.79-111.06-72.32-1.87.43-2.52,1.42-2.16,3"/><ellipse class="cls-5" cx="282.9" cy="442.68" rx="15.47" ry="7.7"/><path class="cls-6" d="M170.81,326.39h0a1,1,0,0,0-.82,1.15s0,0,0,.06c18.66,92.95,98.63,75.53,111.74,72a1.06,1.06,0,0,0,.51-.38.84.84,0,0,0-.27-1.11L171.62,326.55a1.06,1.06,0,0,0-.57-.17h-.18"/><path class="cls-7" d="M283,444.71c-3.58,0-6.49-.65-6.49-4.23V236.16c0-33.79.31-41,.29-41.36-.22-3.33-.29-9.18-.29-9.18a6.5,6.5,0,0,1,9.18-.3h0c1.2,1.1,3.8,11.48,3.8,50.83v204.3c0,3.58-2.9,4.23-6.49,4.23"/><path class="cls-3" d="M392.91,285.62c-114.26,4.43-109.5,102.78-107.92,119a2.57,2.57,0,0,0,2.54,2.31c16.39.08,115.36-4.13,108.83-118.48-.08-2-1.11-2.92-3.45-2.85"/><path class="cls-8" d="M395,286.4h0a1.37,1.37,0,0,0-.85.41l-107.4,117.9a1,1,0,0,0-.05,1.41l.05.05a1.07,1.07,0,0,0,.72.28c16.45.08,115.58-4.16,108.8-118.89a1.22,1.22,0,0,0-1.24-1.11h0"/><path class="cls-7" d="M280.82,329.52c-2.57-1.45-4.38-3.09-2.93-5.67l14-24.7c13.71-24.21,5.49-51.34,5.4-51.62A5.34,5.34,0,1,1,307.37,244a2,2,0,0,1,.11.35c.4,1.29,9.65,31.87-6.3,60l-14,24.71c-1.45,2.56-3.79,1.85-6.36.4"/><path class="cls-9" d="M312.94,103.31a25.4,25.4,0,0,0-12.61.16c-10-9.64-21.92-14.12-32.88-11C258,95.24,250.94,103.18,247.06,114a27.51,27.51,0,0,0-14.42,7.76c-14.48,15-7.85,44.92,14.8,66.72,12.5,12,27.26,19.11,40.43,20.49a25.29,25.29,0,0,0,11.25-.29,27.65,27.65,0,0,0,15.53-7.93A24.55,24.55,0,0,0,317,198c8-7.95,14.56-19.57,18-33.28,7.21-29.09-2.6-56.57-21.92-61.35"/><path class="cls-10" d="M334.92,164.83c-7.23,29.09-28.72,48.8-48.05,44S257.74,176.6,265,147.49s28.72-48.81,48.05-44,29.13,32.27,21.92,61.37"/><path class="cls-11" d="M286.9,208.93c19.32,4.79,40.83-14.92,48-44,5.55-22.29,1.05-43.64-10-54.55a25.68,25.68,0,0,0-11.88-6.8Z"/><path class="cls-9" d="M368.78,197.34a24.51,24.51,0,0,0-10.3-6.55c-3-13.09-10.29-23-20.83-26.25-9.11-2.8-19-.09-27.87,6.6a26.54,26.54,0,0,0-15.82-1.4c-19.68,4.53-30.1,32.22-23.29,61.86,3.76,16.38,12,29.9,21.92,38a24.64,24.64,0,0,0,9.26,5.71,26.83,26.83,0,0,0,16.78,1.8,26,26,0,0,0,3.33-1c10.69-2.22,22.19-8.16,32.17-17.46,21.23-19.76,27.81-47.2,14.69-61.29"/><path class="cls-10" d="M354.05,258.83c-21.24,19.76-49.08,24.4-62.2,10.26s-6.53-41.53,14.7-61.29,49.08-24.4,62.19-10.26,6.54,41.53-14.69,61.29"/><path class="cls-12" d="M291.53,269c13.13,14.09,41,9.49,62.2-10.26s27.81-47.2,14.69-61.3Z"/><rect class="cls-13" width="600" height="600"/></svg>