<svg id="Contenido" xmlns="http://www.w3.org/2000/svg" xmlns:xlink="http://www.w3.org/1999/xlink" viewBox="0 0 600 600"><defs><style>.cls-1,.cls-2,.cls-3{fill:none;}.cls-2{fill-rule:evenodd;}.cls-3{clip-rule:evenodd;}.cls-4{fill:url(#Degradado_sin_nombre_7);}.cls-5{clip-path:url(#clip-path);}.cls-6{clip-path:url(#clip-path-2);}.cls-7{clip-path:url(#clip-path-3);}.cls-8{clip-path:url(#clip-path-4);}.cls-9{clip-path:url(#clip-path-8);}.cls-10{clip-path:url(#clip-path-9);}.cls-11{clip-path:url(#clip-path-10);}.cls-12{clip-path:url(#clip-path-11);}.cls-13{clip-path:url(#clip-path-12);}.cls-14{clip-path:url(#clip-path-13);}.cls-15{clip-path:url(#clip-path-14);}.cls-16{clip-path:url(#clip-path-15);}.cls-17{clip-path:url(#clip-path-16);}.cls-18{clip-path:url(#clip-path-17);}.cls-19{clip-path:url(#clip-path-18);}.cls-20{clip-path:url(#clip-path-19);}.cls-21{clip-path:url(#clip-path-20);}.cls-22{clip-path:url(#clip-path-21);}.cls-23{clip-path:url(#clip-path-22);}.cls-24{clip-path:url(#clip-path-23);}.cls-25{clip-path:url(#clip-path-24);}.cls-26{clip-path:url(#clip-path-25);}.cls-27{clip-path:url(#clip-path-26);}.cls-28{clip-path:url(#clip-path-27);}.cls-29{clip-path:url(#clip-path-28);}.cls-30{clip-path:url(#clip-path-29);}.cls-31{clip-path:url(#clip-path-30);}.cls-32{clip-path:url(#clip-path-31);}.cls-33{clip-path:url(#clip-path-32);}.cls-34{clip-path:url(#clip-path-33);}.cls-35{clip-path:url(#clip-path-34);}.cls-36{fill:#39cbcb;}.cls-37{fill:url(#Degradado_sin_nombre_31);}.cls-38{fill:#028484;}.cls-39{fill:#f2969a;}.cls-40{fill:#c1475f;}.cls-41{fill:#eb5e62;}.cls-42{fill:url(#Degradado_sin_nombre_34);}.cls-43{fill:url(#Degradado_sin_nombre_31-2);}</style><linearGradient id="Degradado_sin_nombre_7" x1="270.1" y1="189.99" x2="432.23" y2="494.93" gradientUnits="userSpaceOnUse"><stop offset="0" stop-color="#192647"/><stop offset="0" stop-color="#192647" stop-opacity="0.5"/><stop offset="1" stop-color="#192647" stop-opacity="0"/></linearGradient><clipPath id="clip-path"><rect class="cls-1" x="-626.68" y="628.61" width="53.76" height="39.88"/></clipPath><clipPath id="clip-path-2"><path class="cls-3" d="M-554,727.65h-86.58a9.36,9.36,0,0,1-9.45-9.21v-62.8a9.36,9.36,0,0,1,9.45-9.21H-554a9.36,9.36,0,0,1,9.45,9.21v62.8a9.36,9.36,0,0,1-9.45,9.21"/></clipPath><clipPath id="clip-path-3"><path class="cls-3" d="M-559.41,727.65H-646a9.36,9.36,0,0,1-9.45-9.21v-62.8a9.36,9.36,0,0,1,9.45-9.21h86.58a9.36,9.36,0,0,1,9.45,9.21v62.8a9.36,9.36,0,0,1-9.45,9.21"/></clipPath><clipPath id="clip-path-4"><path class="cls-3" d="M-646,646.43a9.36,9.36,0,0,0-9.45,9.21v62.81a9.35,9.35,0,0,0,9.45,9.2h86.58a9.35,9.35,0,0,0,9.45-9.2V655.64a9.36,9.36,0,0,0-9.45-9.21Z"/></clipPath><clipPath id="clip-path-8"><rect class="cls-1" x="-627.81" y="679.26" width="50.98" height="17.64"/></clipPath><clipPath id="clip-path-9"><rect class="cls-1" x="-611.13" y="662.57" width="17.62" height="51.03"/></clipPath><clipPath id="clip-path-10"><rect class="cls-1" x="248" y="628.73" width="104" height="104"/></clipPath><clipPath id="clip-path-11"><path class="cls-3" d="M299.82,734.91H299a2.25,2.25,0,0,1-2.46-1.92V690.87A2.25,2.25,0,0,1,299,689h.79a2.23,2.23,0,0,1,2.44,1.92V733a2.23,2.23,0,0,1-2.44,1.92"/></clipPath><clipPath id="clip-path-12"><path class="cls-3" d="M296.58,725.71s-10.43,3.1-18.69-1.43-11.25-15-11.25-15,10.42-3.11,18.69,1.43,11.25,15,11.25,15"/></clipPath><clipPath id="clip-path-13"><path class="cls-3" d="M329.05,696.15s0,14-8.61,22.51-22.6,8.38-22.6,8.38,0-14,8.61-22.51,22.6-8.38,22.6-8.38"/></clipPath><clipPath id="clip-path-14"><polygon class="cls-3" points="3027.96 624.17 3025.09 667.74 3044.64 667.74 3041.78 624.17 3027.96 624.17"/></clipPath><clipPath id="clip-path-15"><polygon class="cls-3" points="3027.31 633.97 3026.99 639 3042.75 639 3042.42 633.97 3027.31 633.97"/></clipPath><clipPath id="clip-path-16"><polygon class="cls-3" points="3026.56 645.42 3026.23 650.45 3043.5 650.45 3043.18 645.42 3026.56 645.42"/></clipPath><clipPath id="clip-path-17"><polygon class="cls-3" points="3025.81 656.87 3025.48 661.9 3044.26 661.9 3043.93 656.87 3025.81 656.87"/></clipPath><clipPath id="clip-path-18"><rect class="cls-1" x="2948.74" y="671.1" width="103.41" height="55.79"/></clipPath><clipPath id="clip-path-19"><rect class="cls-1" x="3020.57" y="674.44" width="22.71" height="9.74"/></clipPath><clipPath id="clip-path-20"><rect class="cls-1" x="3019.51" y="683.72" width="24.67" height="1.9"/></clipPath><clipPath id="clip-path-21"><rect class="cls-1" x="2948.73" y="713.23" width="103.41" height="13"/></clipPath><clipPath id="clip-path-22"><polygon class="cls-3" points="2974.98 670.33 3052.14 671.09 3052.14 726.89 2974.98 727.01 2974.98 670.33"/></clipPath><clipPath id="clip-path-23"><rect class="cls-1" x="2957.6" y="674.44" width="22.71" height="9.74"/></clipPath><clipPath id="clip-path-24"><rect class="cls-1" x="2989.08" y="674.44" width="22.71" height="9.74"/></clipPath><clipPath id="clip-path-25"><path class="cls-3" d="M3026.89,628.37a2.13,2.13,0,0,1,0-4.2h16a2.13,2.13,0,0,1,0,4.2Z"/></clipPath><clipPath id="clip-path-26"><rect class="cls-1" x="2973.26" y="692.18" width="51.12" height="34.71"/></clipPath><clipPath id="clip-path-27"><rect class="cls-1" x="2944.18" y="661.9" width="111.63" height="9.19"/></clipPath><clipPath id="clip-path-28"><polygon class="cls-3" points="2974.59 645.96 2948.73 661.9 2974.59 661.9 2974.59 645.96"/></clipPath><clipPath id="clip-path-29"><polygon class="cls-3" points="3000.44 645.96 2974.59 661.9 3000.44 661.9 3000.44 645.96"/></clipPath><clipPath id="clip-path-30"><polygon class="cls-3" points="3026.29 645.96 3000.44 661.9 3026.29 661.9 3026.29 645.96"/></clipPath><clipPath id="clip-path-31"><polygon class="cls-3" points="3052.14 645.96 3026.29 661.9 3052.14 661.9 3052.14 645.96"/></clipPath><clipPath id="clip-path-32"><rect class="cls-1" x="2973.26" y="692.12" width="54.36" height="4.12"/></clipPath><clipPath id="clip-path-33"><rect class="cls-1" x="2956.7" y="683.72" width="24.67" height="1.9"/></clipPath><clipPath id="clip-path-34"><rect class="cls-1" x="2988.1" y="683.72" width="24.67" height="1.9"/></clipPath><linearGradient id="Degradado_sin_nombre_31" x1="691.12" y1="637.5" x2="601.13" y2="637.5" gradientTransform="translate(-333.96 -249.87) rotate(4.57)" gradientUnits="userSpaceOnUse"><stop offset="0" stop-color="#028484" stop-opacity="0.5"/><stop offset="1" stop-color="#028484" stop-opacity="0"/></linearGradient><linearGradient id="Degradado_sin_nombre_34" x1="399.39" y1="251.02" x2="256.68" y2="251.02" gradientUnits="userSpaceOnUse"><stop offset="0.01" stop-color="#d44b50" stop-opacity="0.8"/><stop offset="1" stop-color="#d44b50" stop-opacity="0.2"/></linearGradient><linearGradient id="Degradado_sin_nombre_31-2" x1="798.89" y1="608.35" x2="690.18" y2="608.35" xlink:href="#Degradado_sin_nombre_31"/></defs><title>servicios</title><path class="cls-4" d="M461.27,400.8a1.24,1.24,0,0,0-.52-1,3.41,3.41,0,0,0-3-1.13c-62.26.62-91.28,29.06-104.64,58.38V394.7c35.39-1.79,91.65-18.34,104.81-71.76,14.94-60.71-20.08-114.06-32.56-130.61a6.63,6.63,0,0,0-9.38-1.1l-11.19,9.07-.07-.08a204,204,0,0,0-24.9-25.73,6.46,6.46,0,0,0-9.39,1l-19.1,25.6a6.48,6.48,0,0,1-10.36,0l-19.1-25.6a6.46,6.46,0,0,0-9.39-1,204.7,204.7,0,0,0-25,25.81l-11.19-9.07a6.63,6.63,0,0,0-9.38,1.1c-12.48,16.55-47.5,69.9-32.56,130.61,12.69,51.53,65.5,68.76,101,71.52v80.61c-19.39-36.31-61.57-36.35-72.1-35.76a2.67,2.67,0,0,0-2.47,2.14,2.5,2.5,0,0,0-.05.29v.18h0v.18c0,.14,0,.28,0,.43v.28c0,.16,0,.32,0,.49v.83c0,.1,0,.2,0,.3v.62c0,.1,0,.2,0,.29s0,.46,0,.69v.3l0,.74c0,.11,0,.22,0,.33,0,.26,0,.51,0,.78,0,.11,0,.22,0,.32,0,.28,0,.56,0,.85l0,.32c0,.3,0,.6.06.91,0,.1,0,.21,0,.31,0,.32,0,.64.08,1l0,.29c0,.34.06.69.1,1l0,.28c0,.36.07.73.11,1.1,0,.09,0,.19,0,.28,0,.38.09.76.14,1.15l0,.26c.06.4.11.8.17,1.21l0,.25c.07.41.13.84.2,1.26l0,.23c.08.44.15.88.23,1.32l0,.21c.08.46.17.91.26,1.37a1.42,1.42,0,0,0,0,.2c.09.47.18.94.28,1.41,0,.06,0,.12,0,.18.1.49.21,1,.32,1.46,0,.06,0,.11,0,.17.11.49.23,1,.36,1.5l0,.13c.13.52.27,1,.41,1.56,0,0,0,.07,0,.1l.45,1.61,0,.07c.16.55.33,1.1.5,1.65l0,0c.17.57.36,1.13.55,1.7v0c7.48,22.23,26.17,47.09,72.29,47.52h6.34c.31,0,.62,0,.92,0,17.3.53,113.68-1.4,116.12-109.72,0-.28,0-.58,0-.86,0-1.29.05-2.59,0-3.91C461.36,404.92,461.34,402.88,461.27,400.8Z"/><path class="cls-36" d="M301.79,475.52c-.27-81.07-68.17-81.37-81.93-80.6a2.68,2.68,0,0,0-2.53,2.61c-.3,13.85,2.29,82.32,83.25,79.45C301.58,476.9,301.73,476.39,301.79,475.52Z"/><path class="cls-37" d="M217.34,397.35C217,410.8,219.26,480,300.75,477a.55.55,0,0,0,.37-1l-82.07-79.37A1,1,0,0,0,217.34,397.35Z"/><path class="cls-38" d="M300.83,477.07h-6.17a2.7,2.7,0,0,1-2.71-2.7V329.45a8.88,8.88,0,0,1,8.88-8.88h0a8.88,8.88,0,0,1,8.88,8.88V468.2A8.88,8.88,0,0,1,300.83,477.07Z"/><path class="cls-39" d="M379.12,236.06c18.05,73.3-8.74,102.24-48.05,111.11a130.85,130.85,0,0,1-29.68,3.31c-34.71-.26-96.54-15.59-110.41-71.93C176,217.84,211.05,164.49,223.53,147.94a6.62,6.62,0,0,1,9.38-1.09l24.51,19.85C260.73,169.38,364.17,175.35,379.12,236.06Z"/><path class="cls-40" d="M226.37,236.06c-18.05,73.3,8.74,102.24,48.05,111.11a130.85,130.85,0,0,0,29.68,3.31c34.71-.26,96.54-15.59,110.41-71.93,14.95-60.71-20.07-114.06-32.55-130.61a6.62,6.62,0,0,0-9.38-1.09L348.07,166.7C344.76,169.38,241.32,175.35,226.37,236.06Z"/><path class="cls-41" d="M327,131.13a6.46,6.46,0,0,1,9.39-1c16.11,13.84,63,59.65,63,124.26,0,78-56.26,96.12-96.65,96.12s-96.64-18.11-96.64-96.12c0-64.61,46.87-110.42,63-124.26a6.46,6.46,0,0,1,9.39,1l19.1,25.6a6.47,6.47,0,0,0,10.35,0Z"/><path class="cls-42" d="M256.68,341.64c15.19,6.53,31.64,8.84,46.06,8.84,40.39,0,96.65-18.11,96.65-96.12,0-44.74-22.47-80.46-41.64-102.8Z"/><path class="cls-36" d="M414.35,354.29C295.7,355.47,297.75,457.66,298.9,474.55a2.66,2.66,0,0,0,2.57,2.47c17,.57,119.81-.87,116.38-119.67C417.83,355.31,416.76,354.29,414.35,354.29Z"/><path class="cls-43" d="M301.48,476.5c17.06.57,120-.89,116.36-120.09a1.29,1.29,0,0,0-2.22-.84L300.74,474.68A1.07,1.07,0,0,0,301.48,476.5Z"/></svg>