<svg id="Capa_1" data-name="Capa 1" xmlns="http://www.w3.org/2000/svg" xmlns:xlink="http://www.w3.org/1999/xlink" viewBox="0 0 600 600"><defs><style>.cls-1{fill:url(#Degradado_sin_nombre_20);}.cls-2{fill:#043263;}.cls-3{fill:#1464a5;}.cls-4{fill:url(#Degradado_sin_nombre_12);}.cls-5{fill:#49a5e6;}.cls-6{fill:#5bb4ff;}.cls-7{fill:#2dcccd;}.cls-8{fill:url(#Degradado_sin_nombre_8);}</style><linearGradient id="Degradado_sin_nombre_20" x1="273.99" y1="207.83" x2="431.06" y2="503.23" gradientUnits="userSpaceOnUse"><stop offset="0" stop-color="#192647" stop-opacity="0.5"/><stop offset="1" stop-color="#192647" stop-opacity="0"/></linearGradient><linearGradient id="Degradado_sin_nombre_12" x1="438.69" y1="2287.73" x2="248.76" y2="2287.73" gradientTransform="matrix(1, 0, 0, -1, 0, 2640.22)" gradientUnits="userSpaceOnUse"><stop offset="0.01" stop-color="#043263" stop-opacity="0.5"/><stop offset="1" stop-color="#043263" stop-opacity="0.1"/></linearGradient><linearGradient id="Degradado_sin_nombre_8" x1="339.17" y1="2285.38" x2="398.1" y2="2254.05" gradientTransform="matrix(1, 0, 0, -1, 0, 2640.22)" gradientUnits="userSpaceOnUse"><stop offset="0" stop-color="#fff" stop-opacity="0.5"/><stop offset="1" stop-color="#fff" stop-opacity="0.1"/></linearGradient></defs><path class="cls-1" d="M466.58,380.58a32.64,32.64,0,0,0-4.53.32l1.69-5.09H467a2.55,2.55,0,0,0,2.44-1.74l4-11.92a2.81,2.81,0,0,0,.13-.82,2.56,2.56,0,0,0-2.56-2.55H469.4l12.29-37H348.89v0H493.41a2.56,2.56,0,0,0,2.41-1.7l5.8-17.32a9.45,9.45,0,0,0-6-12,9.35,9.35,0,0,0-3-.49H348.89V222.9a17,17,0,1,0-34.05,0v67.38H171.1a9.46,9.46,0,0,0-9,12.44L167.9,320a2.56,2.56,0,0,0,2.42,1.7H314.84v0H182l12.3,37h-1.56a2.57,2.57,0,0,0-2.43,3.37l4,11.92a2.55,2.55,0,0,0,2.42,1.74H200l12.2,36.7h-1.56a2.55,2.55,0,0,0-2.43,3.36l4,11.92a2.54,2.54,0,0,0,2.42,1.74h3.27l10.53,31.71a8.7,8.7,0,0,0,8.26,6H407.13q4.32,3.81,9.05,7.84l0-.07,3.65,3.1c4.31,3.68,9.23,7.86,14.28,12.3a7.35,7.35,0,0,0,9.69,0c5.06-4.44,10-8.62,14.27-12.3,12.63-10.78,23.53-20.07,31.15-29.25,8.48-10.24,12.42-19.95,12.42-30.57a39.2,39.2,0,0,0-10-26.75A33.74,33.74,0,0,0,466.58,380.58Z"/><path class="cls-2" d="M458.62,260.72a9.45,9.45,0,0,0-6-12,9.35,9.35,0,0,0-3-.49H128.1a9.46,9.46,0,0,0-9,12.44L124.9,278a2.56,2.56,0,0,0,2.42,1.7H450.41a2.56,2.56,0,0,0,2.41-1.7Z"/><path class="cls-3" d="M139,279.78l46.34,139.46a8.7,8.7,0,0,0,8.26,6H384.09a8.7,8.7,0,0,0,8.25-6l46.35-139.46Z"/><path class="cls-4" d="M326.09,279.78,248.76,425.21H384.11a8.7,8.7,0,0,0,8.26-6l46.32-139.47Z"/><path class="cls-5" d="M406.14,387.53H171.58a2.54,2.54,0,0,1-2.42-1.74l-4-11.92a2.55,2.55,0,0,1,2.43-3.36H410.1a2.56,2.56,0,0,1,2.56,2.55,2.8,2.8,0,0,1-.13.81l-4,11.92A2.55,2.55,0,0,1,406.14,387.53Z"/><path class="cls-5" d="M424,333.81H153.73a2.55,2.55,0,0,1-2.42-1.74l-4-11.92a2.57,2.57,0,0,1,2.43-3.37H428a2.56,2.56,0,0,1,2.56,2.55,2.81,2.81,0,0,1-.13.82l-4,11.92A2.55,2.55,0,0,1,424,333.81Z"/><path class="cls-6" d="M288.86,163.87h0a17,17,0,0,1,17,17V425.21H271.84V180.9A17,17,0,0,1,288.86,163.87Z"/><path class="cls-7" d="M448.65,349.51a33.74,33.74,0,0,0-25.07-10.93,31.47,31.47,0,0,0-19.69,6.81,39.5,39.5,0,0,0-8,8.32,40.11,40.11,0,0,0-8-8.32,31.47,31.47,0,0,0-19.69-6.81,33.72,33.72,0,0,0-25.06,10.93,39.27,39.27,0,0,0-9.92,26.75c0,10.62,4,20.33,12.44,30.57,7.58,9.18,18.46,18.46,31.15,29.25,4.31,3.68,9.23,7.86,14.28,12.3a7.35,7.35,0,0,0,9.69,0c5.06-4.44,10-8.62,14.27-12.3,12.63-10.78,23.53-20.07,31.15-29.25,8.48-10.24,12.42-19.95,12.42-30.57A39.2,39.2,0,0,0,448.65,349.51Z"/><path class="cls-8" d="M403.87,345.48a40,40,0,0,0-8,8.31,39.75,39.75,0,0,0-8-8.31,31.44,31.44,0,0,0-19.68-6.81,33.64,33.64,0,0,0-25.06,11,39.18,39.18,0,0,0-9.92,26.74c0,10.61,4,20.32,12.43,30.56,6.84,8.27,16.39,16.65,27.47,26.12l48.76-94.32A31.43,31.43,0,0,0,403.87,345.48Z"/></svg>