<svg id="Contenido" xmlns="http://www.w3.org/2000/svg" xmlns:xlink="http://www.w3.org/1999/xlink" viewBox="0 0 600 600"><defs><style>.cls-1{fill:url(#Degradado_sin_nombre_23);}.cls-2{fill:#d4edfc;}.cls-3{fill:url(#Degradado_sin_nombre_144);}.cls-4{fill:#043263;}</style><linearGradient id="Degradado_sin_nombre_23" x1="272.52" y1="205.04" x2="427.48" y2="496.47" gradientUnits="userSpaceOnUse"><stop offset="0" stop-color="#192647"/><stop offset="0" stop-color="#192647" stop-opacity="0.5"/><stop offset="1" stop-color="#192647" stop-opacity="0"/></linearGradient><linearGradient id="Degradado_sin_nombre_144" x1="465" y1="310.4" x2="222.53" y2="310.4" gradientUnits="userSpaceOnUse"><stop offset="0" stop-color="#043263" stop-opacity="0.2"/><stop offset="1" stop-color="#043263" stop-opacity="0"/></linearGradient></defs><title>values-day</title><circle class="cls-1" cx="350" cy="350.75" r="165"/><circle class="cls-2" cx="300" cy="300.75" r="165"/><path class="cls-3" d="M377.47,155.05,222.53,446.46A165,165,0,0,0,377.47,155.05Z"/><path class="cls-4" d="M427.57,276.54,465,303.71c0-1,0-2,0-3a164.21,164.21,0,0,0-30.81-96l-15,46.09,0,.09a18.75,18.75,0,0,1-12.63,12.48l-26.25,7.43A23,23,0,0,1,360.42,267l-.08-.06-46.8-34-.08-.06A19.86,19.86,0,0,1,305,216.83V190a19.9,19.9,0,0,1,8.46-16.08l.08-.05,40.11-29.15A164.82,164.82,0,0,0,305,135.83v-.08H295v.09a164.29,164.29,0,0,0-48.61,8.83l40.11,29.15.08.05a19.79,19.79,0,0,1,8.42,16v27a19.8,19.8,0,0,1-8.42,16l-.08.05-46.8,34-.08.06a23,23,0,0,1-19.9,3.81l-26.28-7.43a18.75,18.75,0,0,1-12.63-12.48l0-.09-15-46.09a164.21,164.21,0,0,0-30.81,96c0,1,0,2,0,3l37.39-27.17.07-.05A21,21,0,0,1,190.65,273L221,281.59a14.24,14.24,0,0,1,10,9.89q.16.6.36,1.2l17.87,55,0,.1a22.19,22.19,0,0,1-2.77,19.84L229,392.27a19.45,19.45,0,0,1-16.1,8.05h-44.5a165.3,165.3,0,0,0,79.67,57.09l-13.39-41.2,0-.09a20.17,20.17,0,0,1,2.51-18.07l19.28-27.21A17.61,17.61,0,0,1,271,363.58h58a17.59,17.59,0,0,1,14.54,7.27L362.8,398a20.29,20.29,0,0,1,2.52,18.14l0,.09-13.39,41.2a165.3,165.3,0,0,0,79.67-57.09h-44.5a19.37,19.37,0,0,1-16-8l-17.48-24.66a22.19,22.19,0,0,1-2.77-19.84l0-.1,17.87-55,0-.09a17,17,0,0,1,11.45-11.33L409.34,273a21,21,0,0,1,18.16,3.49Z"/></svg>