<svg xmlns="http://www.w3.org/2000/svg" xmlns:xlink="http://www.w3.org/1999/xlink" viewBox="0 0 600 600"><defs><style>.cls-1{fill:none;}.cls-2{fill:url(#Degradado_sin_nombre_111);}.cls-3{fill:#043263;}.cls-4{fill:#49a5e6;}.cls-5{opacity:0.5;isolation:isolate;fill:url(#Degradado_sin_nombre_16);}.cls-6{fill:#fff;}.cls-7{fill:#d4edfc;}.cls-8{fill:url(#Degradado_sin_nombre_34);}.cls-9{fill:#004481;fill-rule:evenodd;}</style><linearGradient id="Degradado_sin_nombre_111" x1="247.58" y1="-6004.09" x2="460.72" y2="-6404.96" gradientTransform="matrix(1, 0, 0, -1, 0, -5852)" gradientUnits="userSpaceOnUse"><stop offset="0" stop-color="#192647" stop-opacity="0.5"/><stop offset="1" stop-color="#192647" stop-opacity="0"/></linearGradient><linearGradient id="Degradado_sin_nombre_16" x1="215.96" y1="-6067.76" x2="370.22" y2="-6222.02" gradientTransform="matrix(1, 0, 0, -1, 0, -5852)" gradientUnits="userSpaceOnUse"><stop offset="0" stop-color="#fff" stop-opacity="0.5"/><stop offset="1" stop-color="#ecf7f8" stop-opacity="0.1"/></linearGradient><linearGradient id="Degradado_sin_nombre_34" x1="304.9" y1="142.71" x2="170.6" y2="142.71" gradientTransform="translate(0 2)" gradientUnits="userSpaceOnUse"><stop offset="0" stop-color="#49a5e6" stop-opacity="0.2"/><stop offset="1" stop-color="#49a5e6" stop-opacity="0"/></linearGradient></defs><title>13</title><g id="Cuadrados_Blancos" data-name="Cuadrados Blancos"><rect class="cls-1" width="600" height="600"/></g><g id="Capa_34" data-name="Capa 34"><path class="cls-2" d="M261.1,147.85H447.2a22.32,22.32,0,0,1,22.3,22.31V534.89a22.32,22.32,0,0,1-22.3,22.31H261.1a22.32,22.32,0,0,1-22.3-22.31V170.16A22.32,22.32,0,0,1,261.1,147.85Z"/><path class="cls-3" d="M207.5,96.85H392.4A22.13,22.13,0,0,1,414.5,119v362a22.12,22.12,0,0,1-22.1,22.1H207.5a22.12,22.12,0,0,1-22.1-22.1v-362a22.13,22.13,0,0,1,22.06-22.2Z"/><rect class="cls-4" x="185.4" y="147.85" width="229.2" height="304.3"/><polygon class="cls-5" points="185.7 148.05 185.7 451.95 302.5 452.15 414.5 245.15 414.5 147.85 185.7 148.05"/><path class="cls-6" d="M331.82,367.58l-12.39,23.58a.71.71,0,0,1-.95.33l-.05,0-.3-.3-12.39-23.58a.8.8,0,0,0-.6-.4h-6a.48.48,0,0,0-.5.44v.06a.37.37,0,0,0,.1.3l19.58,36.57a.69.69,0,0,0,.91.34l.09,0,.3-.3L339.22,368a.58.58,0,0,0-.2-.7.3.3,0,0,1-.2-.1h-6c-.6,0-.9.2-1,.4"/><path class="cls-6" d="M338.92,399.15l12.38-23.57a.71.71,0,0,1,.95-.33l.05,0,.3.3L365,399.15a.81.81,0,0,0,.6.4h6a.56.56,0,0,0,.5-.6c0-.1,0-.2-.1-.2L352.4,362.19a.69.69,0,0,0-.91-.35l-.09.05-.3.3-19.58,36.56a.58.58,0,0,0,.2.7c.1,0,.2.1.3.1h6a1.09,1.09,0,0,0,.9-.4"/><path class="cls-6" d="M246,399.45H234.81a.67.67,0,0,1-.7-.66v0h0v-10a.68.68,0,0,1,.66-.7H246c5.29,0,7.69,1.5,7.69,5.8s-2.3,5.69-7.69,5.59m-11.19-26.77h11c4.09,0,6.09,1.7,6.09,5s-2.1,5-6.09,5h-11a.68.68,0,0,1-.7-.66v0h0v-8.49a.77.77,0,0,1,.7-.8h0m19.28,12a8.13,8.13,0,0,0,4.2-7.6c0-5.89-4.6-9.89-11.09-9.89H228.61a.69.69,0,0,0-.7.66v36.41a.69.69,0,0,0,.66.7H246.4c8.89,0,13.58-3.8,13.58-11.29a9.05,9.05,0,0,0-5.89-9"/><path class="cls-6" d="M284.16,399.45H273a.68.68,0,0,1-.7-.66v0h0v-10a.69.69,0,0,1,.66-.7h11.23c5.3,0,7.7,1.5,7.7,5.8s-2.3,5.69-7.7,5.59M273,372.68h11c4.1,0,6.1,1.7,6.1,5s-2.1,5-6.1,5H273a.69.69,0,0,1-.7-.66v0h0v-8.49a.78.78,0,0,1,.7-.8h0m19.29,12a8.11,8.11,0,0,0,4.19-7.6c0-5.89-4.59-9.89-11.09-9.89H266.78a.68.68,0,0,0-.7.66v0h0v36.37a.68.68,0,0,0,.66.7h17.82c8.9,0,13.59-3.8,13.59-11.29a9.05,9.05,0,0,0-5.89-9"/><path class="cls-7" d="M292,67.8H146.8A12.76,12.76,0,0,0,134,80.6V182.9a12.76,12.76,0,0,0,12.8,12.8H276.6L302,221.1a1.72,1.72,0,0,0,2.4,0,1.66,1.66,0,0,0,.5-1.2V80.5A12.89,12.89,0,0,0,292,67.8Z"/><path class="cls-8" d="M292,67.8H260.6l-90,127.9h106L302,221.1a1.63,1.63,0,0,0,2.4,0,1.66,1.66,0,0,0,.5-1.2V80.6A12.91,12.91,0,0,0,292,67.8Z"/><path class="cls-9" d="M203.2,150.5a37.68,37.68,0,0,0,9.6,10.3,30.78,30.78,0,1,1-10.3-60.7,29.69,29.69,0,0,1,10.3,0,37.68,37.68,0,0,0-9.6,10.3,20.57,20.57,0,0,0,0,40.1Zm31.9-50.8a30.8,30.8,0,1,1-30.8,30.8h0a30.81,30.81,0,0,1,30.8-30.8Zm3.1,45.6V151H238l-5.3-2.5v-2.9a21.87,21.87,0,0,1-7.4-1.9l-.3-.1-.2-.1V143l.6-3.9.1-.7.1-.5.4.3.6.4a15.71,15.71,0,0,0,7.8,2.3c3,0,4.8-1.4,4.8-3.6s-1-3.1-5.6-4.9c-6.6-2.7-8.7-4.8-8.7-8.9s3-7.1,7.5-8V110h.3l5.2,2.5v2.8a15.16,15.16,0,0,1,5,1.5l.4.2.2.1v.5l-.7,3.9-.1.7-.1.5-.4-.3-.6-.4a10.36,10.36,0,0,0-6.1-2c-2.9,0-4.4,1.2-4.4,3.1s1,2.7,5.5,4.5c6.7,2.7,8.6,4.9,8.6,9.4.1,4.1-2.6,7.1-7,8.3"/><path class="cls-1" d="M203.2,150.5a37.68,37.68,0,0,0,9.6,10.3,30.78,30.78,0,1,1-10.3-60.7,29.69,29.69,0,0,1,10.3,0,37.68,37.68,0,0,0-9.6,10.3,20.57,20.57,0,0,0,0,40.1Zm31.9-50.8a30.8,30.8,0,1,1-30.8,30.8h0a30.81,30.81,0,0,1,30.8-30.8Zm3.1,45.6V151H238l-5.3-2.5v-2.9a21.87,21.87,0,0,1-7.4-1.9l-.3-.1-.2-.1V143l.6-3.9.1-.7.1-.5.4.3.6.4a15.71,15.71,0,0,0,7.8,2.3c3,0,4.8-1.4,4.8-3.6s-1-3.1-5.6-4.9c-6.6-2.7-8.7-4.8-8.7-8.9s3-7.1,7.5-8V110h.3l5.2,2.5v2.8a15.16,15.16,0,0,1,5,1.5l.4.2.2.1v.5l-.7,3.9-.1.7-.1.5-.4-.3-.6-.4a10.36,10.36,0,0,0-6.1-2c-2.9,0-4.4,1.2-4.4,3.1s1,2.7,5.5,4.5c6.7,2.7,8.6,4.9,8.6,9.4.1,4.1-2.6,7.1-7,8.3"/></g></svg>