<?xml version="1.0" encoding="utf-8"?>
<!-- Generator: Adobe Illustrator 23.0.1, SVG Export Plug-In . SVG Version: 6.00 Build 0)  -->
<svg version="1.1" id="Contenido" xmlns="http://www.w3.org/2000/svg" xmlns:xlink="http://www.w3.org/1999/xlink" x="0px" y="0px"
	 viewBox="0 0 600 600" style="enable-background:new 0 0 600 600;" xml:space="preserve">
<style type="text/css">
	.st0{fill:url(#SVGID_1_);}
	.st1{fill:#1464A5;}
	.st2{fill:#49A5E6;}
	.st3{opacity:0.5;fill-rule:evenodd;clip-rule:evenodd;fill:url(#SVGID_2_);enable-background:new    ;}
	.st4{fill:#FFFFFF;}
	.st5{fill:#D4EDFC;}
	.st6{fill:url(#SVGID_3_);}
	.st7{fill-rule:evenodd;clip-rule:evenodd;fill:#004481;}
	.st8{fill:none;}
</style>
<title>GLOMO</title>
<linearGradient id="SVGID_1_" gradientUnits="userSpaceOnUse" x1="243.3147" y1="450.9555" x2="452.1053" y2="58.2845" gradientTransform="matrix(1 0 0 -1 0 602)">
	<stop  offset="0" style="stop-color:#192647"/>
	<stop  offset="0" style="stop-color:#192647;stop-opacity:0.5"/>
	<stop  offset="1" style="stop-color:#192647;stop-opacity:0"/>
</linearGradient>
<path class="st0" d="M256.5,146.9h182.4c12.1,0,21.9,9.8,21.9,21.9V526c0,12.1-9.8,21.8-21.9,21.8H256.5c-12.1,0-21.9-9.8-21.9-21.8
	V168.8C234.7,156.7,244.4,146.9,256.5,146.9z"/>
<path class="st1" d="M208.8,96.8h182.4c12.1,0,21.9,9.8,21.9,21.8v357.2c0,12.1-9.8,21.9-21.9,21.9H208.8
	c-12.1,0-21.9-9.8-21.9-21.9V118.6C186.9,106.5,196.7,96.8,208.8,96.8z"/>
<rect x="186.9" y="147.1" class="st2" width="226.1" height="300.2"/>
<linearGradient id="SVGID_2_" gradientUnits="userSpaceOnUse" x1="212.7475" y1="392.3075" x2="351.1575" y2="253.8975" gradientTransform="matrix(1 0 0 -1 0 602)">
	<stop  offset="0" style="stop-color:#FFFFFF;stop-opacity:0.5"/>
	<stop  offset="1" style="stop-color:#ECF7F8;stop-opacity:0.1"/>
</linearGradient>
<polygon class="st3" points="187.3,147.3 187.3,447.1 265,447.1 413,173.8 413,147.1 "/>
<path class="st4" d="M337,278.6l-14.5,27.5c-0.2,0.4-0.7,0.6-1.2,0.3c-0.1-0.1-0.3-0.2-0.3-0.3l-14.5-27.5c-0.1-0.3-0.4-0.5-0.8-0.5
	h-7c-0.3,0-0.6,0.3-0.6,0.6c0,0.1,0,0.2,0.1,0.3l22.8,42.6c0.2,0.4,0.7,0.6,1.1,0.3c0.1-0.1,0.3-0.2,0.3-0.3l22.8-42.6
	c0.2-0.3,0.1-0.7-0.3-0.9c-0.1,0-0.2-0.1-0.3-0.1h-7C337.4,278.2,337.1,278.3,337,278.6"/>
<path class="st4" d="M345.2,315.3l14.5-27.5c0.2-0.4,0.8-0.6,1.2-0.3c0.1,0.1,0.3,0.2,0.3,0.3l14.5,27.5c0.1,0.3,0.4,0.4,0.7,0.5h7
	c0.3,0,0.6-0.3,0.6-0.6c0-0.1,0-0.2-0.1-0.3l-22.8-42.6c-0.2-0.4-0.7-0.6-1.1-0.3c-0.1,0.1-0.3,0.2-0.3,0.3l-22.8,42.6
	c-0.2,0.3-0.1,0.7,0.2,0.8c0.1,0.1,0.2,0.1,0.3,0.1h7C344.8,315.8,345.1,315.6,345.2,315.3"/>
<path class="st4" d="M237.1,315.8h-13c-0.5,0-0.8-0.4-0.8-0.8c0,0,0,0,0,0v-11.7c0-0.5,0.4-0.8,0.8-0.8c0,0,0,0,0,0h13
	c6.2,0,9,1.8,9,6.7S243.4,315.8,237.1,315.8 M224.1,284.5H237c4.7,0,7.1,2,7.1,5.8s-2.4,5.8-7.1,5.8h-12.9c-0.5,0-0.8-0.4-0.8-0.8
	v-9.9C223.2,284.9,223.6,284.5,224.1,284.5 M246.5,298.5c3-1.5,4.9-4.8,4.9-8.8c0-6.9-5.3-11.5-12.9-11.5h-21.7
	c-0.5,0-0.8,0.4-0.8,0.8v42.3c0,0.5,0.4,0.8,0.8,0.8h20.7c10.4,0,15.8-4.5,15.8-13.2C253.4,300.4,246.5,298.5,246.5,298.5"/>
<path class="st4" d="M281.5,315.8h-13c-0.5,0-0.8-0.4-0.8-0.8v-11.7c0-0.5,0.4-0.8,0.8-0.8h13c6.2,0,9,1.8,9,6.7
	S287.8,315.8,281.5,315.8 M268.5,284.5h12.9c4.7,0,7.1,2,7.1,5.8s-2.4,5.8-7.1,5.8h-12.9c-0.5,0-0.8-0.4-0.8-0.8v-9.9
	C267.7,284.9,268.1,284.5,268.5,284.5 M290.9,298.5c3-1.5,4.9-4.8,4.9-8.8c0-6.9-5.3-11.5-12.9-11.5h-21.7c-0.5,0-0.8,0.4-0.8,0.8
	v42.3c0,0.5,0.4,0.8,0.8,0.8H282c10.4,0,15.8-4.5,15.8-13.2C297.8,300.4,290.9,298.5,290.9,298.5"/>
<path class="st5" d="M292,67.8H146.8c-7.1,0-12.8,5.7-12.8,12.8v102.3c0,7.1,5.7,12.8,12.8,12.8h129.8l25.4,25.4
	c0.7,0.7,1.7,0.6,2.4,0c0.3-0.3,0.5-0.7,0.5-1.2v-9.4v-130C304.9,73.6,299.1,67.8,292,67.8C292.1,67.8,292.1,67.8,292,67.8z"/>
<linearGradient id="SVGID_3_" gradientUnits="userSpaceOnUse" x1="304.85" y1="457.2609" x2="170.62" y2="457.2609" gradientTransform="matrix(1 0 0 -1 0 602)">
	<stop  offset="0" style="stop-color:#49A5E6;stop-opacity:0.2"/>
	<stop  offset="1" style="stop-color:#49A5E6;stop-opacity:0"/>
</linearGradient>
<path class="st6" d="M292,67.8h-31.4l-90,127.9h106l25.4,25.4c0.7,0.7,1.7,0.7,2.4,0c0.3-0.3,0.5-0.7,0.5-1.2V80.6
	C304.9,73.6,299.1,67.8,292,67.8C292,67.8,292,67.8,292,67.8z"/>
<path class="st7" d="M203.2,150.5c2.5,4,5.8,7.5,9.6,10.3c-16.8,2.8-32.7-8.4-35.5-25.2c-2.8-16.8,8.4-32.7,25.2-35.5
	c3.4-0.6,6.9-0.6,10.3,0c-3.8,2.8-7.1,6.3-9.6,10.3c-11,2.5-18,13.5-15.5,24.5C189.5,142.7,195.5,148.8,203.2,150.5L203.2,150.5z
	 M235.1,99.7c17,0,30.8,13.8,30.8,30.8s-13.8,30.8-30.8,30.8c-17,0-30.8-13.8-30.8-30.8c0,0,0,0,0,0
	C204.3,113.5,218.1,99.7,235.1,99.7L235.1,99.7z M238.2,145.3v5.7H238l-5.3-2.5v-2.9c-2.5-0.2-5-0.8-7.4-1.9l-0.3-0.1l-0.2-0.1v-0.2
	V143l0.6-3.9l0.1-0.7l0.1-0.5l0.4,0.3l0.6,0.4c2.4,1.5,5.1,2.2,7.8,2.3c3,0,4.8-1.4,4.8-3.6s-1-3.1-5.6-4.9
	c-6.6-2.7-8.7-4.8-8.7-8.9s3-7.1,7.5-8V110h0.3l5.2,2.5v2.8c1.7,0.2,3.4,0.7,5,1.5l0.4,0.2l0.2,0.1v0.2v0.3l-0.7,3.9l-0.1,0.7
	l-0.1,0.5l-0.4-0.3l-0.6-0.4c-1.8-1.3-3.9-2-6.1-2c-2.9,0-4.4,1.2-4.4,3.1s1,2.7,5.5,4.5c6.7,2.7,8.6,4.9,8.6,9.4
	C245.3,141.1,242.6,144.1,238.2,145.3"/>
<path class="st8" d="M203.2,150.5c2.5,4,5.8,7.5,9.6,10.3c-16.8,2.8-32.7-8.4-35.5-25.2c-2.8-16.8,8.4-32.7,25.2-35.5
	c3.4-0.6,6.9-0.6,10.3,0c-3.8,2.8-7.1,6.3-9.6,10.3c-11,2.5-18,13.5-15.5,24.5C189.5,142.7,195.5,148.8,203.2,150.5L203.2,150.5z
	 M235.1,99.7c17,0,30.8,13.8,30.8,30.8s-13.8,30.8-30.8,30.8c-17,0-30.8-13.8-30.8-30.8c0,0,0,0,0,0
	C204.3,113.5,218.1,99.7,235.1,99.7L235.1,99.7z M238.2,145.3v5.7H238l-5.3-2.5v-2.9c-2.5-0.2-5-0.8-7.4-1.9l-0.3-0.1l-0.2-0.1v-0.2
	V143l0.6-3.9l0.1-0.7l0.1-0.5l0.4,0.3l0.6,0.4c2.4,1.5,5.1,2.2,7.8,2.3c3,0,4.8-1.4,4.8-3.6s-1-3.1-5.6-4.9
	c-6.6-2.7-8.7-4.8-8.7-8.9s3-7.1,7.5-8V110h0.3l5.2,2.5v2.8c1.7,0.2,3.4,0.7,5,1.5l0.4,0.2l0.2,0.1v0.2v0.3l-0.7,3.9l-0.1,0.7
	l-0.1,0.5l-0.4-0.3l-0.6-0.4c-1.8-1.3-3.9-2-6.1-2c-2.9,0-4.4,1.2-4.4,3.1s1,2.7,5.5,4.5c6.7,2.7,8.6,4.9,8.6,9.4
	C245.3,141.1,242.6,144.1,238.2,145.3"/>
</svg>
