<svg id="Contenido" xmlns="http://www.w3.org/2000/svg" xmlns:xlink="http://www.w3.org/1999/xlink" viewBox="0 0 600 600"><defs><style>.cls-1{fill:url(#Degradado_sin_nombre_16);}.cls-2{fill:#1464a5;}.cls-3{fill:#2dcccd;}.cls-4{fill:#d4edfc;}.cls-5{fill:#f8cd50;}.cls-6{fill:url(#Degradado_sin_nombre_5);}.cls-7{fill:url(#Degradado_sin_nombre_5-2);}.cls-8{fill:url(#Degradado_sin_nombre_9);}.cls-9{fill:url(#Degradado_sin_nombre_9-2);}</style><linearGradient id="Degradado_sin_nombre_16" x1="182.58" y1="27.12" x2="478.05" y2="582.82" gradientUnits="userSpaceOnUse"><stop offset="0" stop-color="#1c2645"/><stop offset="0" stop-color="#1c2645" stop-opacity="0.5"/><stop offset="1" stop-color="#1c2645" stop-opacity="0"/></linearGradient><linearGradient id="Degradado_sin_nombre_5" x1="235.73" y1="203.35" x2="250.36" y2="217.98" gradientUnits="userSpaceOnUse"><stop offset="0" stop-color="#fff" stop-opacity="0.6"/><stop offset="1" stop-color="#fff" stop-opacity="0.2"/></linearGradient><linearGradient id="Degradado_sin_nombre_5-2" x1="235.73" y1="263.35" x2="250.36" y2="277.98" xlink:href="#Degradado_sin_nombre_5"/><linearGradient id="Degradado_sin_nombre_9" x1="484.32" y1="370" x2="216.02" y2="370" gradientUnits="userSpaceOnUse"><stop offset="0" stop-color="#043263" stop-opacity="0.4"/><stop offset="1" stop-color="#043263" stop-opacity="0"/></linearGradient><linearGradient id="Degradado_sin_nombre_9-2" x1="438.16" y1="182.44" x2="202.89" y2="182.44" xlink:href="#Degradado_sin_nombre_9"/></defs><title>home_insurance</title><path class="cls-1" d="M417,139H283a23,23,0,0,0-23,23V286a3,3,0,0,0,3,3h2v6h-2a3,3,0,0,0-3,3V522a23,23,0,0,0,23,23h-1v13a3,3,0,0,0,3,3H415a3,3,0,0,0,3-3V545h-1a23,23,0,0,0,23-23V298a3,3,0,0,0-3-3h-2v-6h2a3,3,0,0,0,3-3V162A23,23,0,0,0,417,139Z"/><path class="cls-2" d="M213,245H387a3,3,0,0,1,3,3V472a23,23,0,0,1-23,23H233a23,23,0,0,1-23-23V248A3,3,0,0,1,213,245Z"/><path class="cls-2" d="M233,89H367a23,23,0,0,1,23,23V236a3,3,0,0,1-3,3H213a3,3,0,0,1-3-3V112A23,23,0,0,1,233,89Z"/><path class="cls-3" d="M232,495H368a0,0,0,0,1,0,0v13a3,3,0,0,1-3,3H235a3,3,0,0,1-3-3V495A0,0,0,0,1,232,495Z"/><rect class="cls-3" x="215" y="239" width="170" height="6"/><rect class="cls-4" x="260" y="120" width="80" height="6" rx="3" ry="3"/><path class="cls-5" d="M272.79,207H247.5a22.09,22.09,0,0,1-8-1.53,7.06,7.06,0,0,0-3.92-.33,7,7,0,1,0,3.81,13.44,22.8,22.8,0,0,1,7.85-1.57H273a5,5,0,0,0,5-5.49A5.15,5.15,0,0,0,272.79,207Z"/><path class="cls-6" d="M247.5,207a22.09,22.09,0,0,1-8-1.53,7.06,7.06,0,0,0-3.92-.33,7,7,0,1,0,3.81,13.44,22.8,22.8,0,0,1,7.85-1.57h4.08l5.32-10Z"/><path class="cls-5" d="M272.79,267H247.5a22.09,22.09,0,0,1-8-1.53,7.06,7.06,0,0,0-3.92-.33,7,7,0,1,0,3.81,13.44,22.8,22.8,0,0,1,7.85-1.57H273a5,5,0,0,0,5-5.49A5.15,5.15,0,0,0,272.79,267Z"/><path class="cls-7" d="M247.5,267a22.09,22.09,0,0,1-8-1.53,7.06,7.06,0,0,0-3.92-.33,7,7,0,1,0,3.81,13.44,22.8,22.8,0,0,1,7.85-1.57h4.08l5.32-10Z"/><path class="cls-8" d="M387,245H326.66L210,464.41V472a23,23,0,0,0,23,23H367a23,23,0,0,0,23-23V248A3,3,0,0,0,387,245Z"/><path class="cls-9" d="M329.85,239H387a3,3,0,0,0,3-3V125.88Z"/></svg>