<svg xmlns="http://www.w3.org/2000/svg" xmlns:xlink="http://www.w3.org/1999/xlink" viewBox="0 0 600 600"><defs><style>.cls-1{fill:none;}.cls-2{fill:url(#Degradado_sin_nombre_470);}.cls-3{fill:#004481;}.cls-4{fill:#2dcccd;}.cls-5{fill:#d4edfc;}.cls-6{fill:#f8cd50;}.cls-7{fill:url(#Degradado_sin_nombre_18);}.cls-8{fill:url(#Degradado_sin_nombre_18-2);}.cls-9{fill:url(#Degradado_sin_nombre_114);}.cls-10{fill:url(#Degradado_sin_nombre_114-2);}</style><linearGradient id="Degradado_sin_nombre_470" x1="182.58" y1="4282.88" x2="478.05" y2="3727.18" gradientTransform="matrix(1, 0, 0, -1, 0, 4310)" gradientUnits="userSpaceOnUse"><stop offset="0" stop-color="#1c2645" stop-opacity="0.5"/><stop offset="1" stop-color="#1c2645" stop-opacity="0"/></linearGradient><linearGradient id="Degradado_sin_nombre_18" x1="235.74" y1="4106.66" x2="250.37" y2="4092.03" gradientTransform="matrix(1, 0, 0, -1, 0, 4310)" gradientUnits="userSpaceOnUse"><stop offset="0" stop-color="#fff" stop-opacity="0.6"/><stop offset="1" stop-color="#fff" stop-opacity="0.2"/></linearGradient><linearGradient id="Degradado_sin_nombre_18-2" x1="235.74" y1="4046.66" x2="250.37" y2="4032.03" xlink:href="#Degradado_sin_nombre_18"/><linearGradient id="Degradado_sin_nombre_114" x1="484.32" y1="3940" x2="216.02" y2="3940" gradientTransform="matrix(1, 0, 0, -1, 0, 4310)" gradientUnits="userSpaceOnUse"><stop offset="0" stop-color="#072146" stop-opacity="0.8"/><stop offset="1" stop-color="#072146" stop-opacity="0"/></linearGradient><linearGradient id="Degradado_sin_nombre_114-2" x1="438.16" y1="4127.56" x2="202.89" y2="4127.56" xlink:href="#Degradado_sin_nombre_114"/></defs><title>11</title><g id="Cuadrados_Blancos" data-name="Cuadrados Blancos"><rect class="cls-1" width="600" height="600"/></g><g id="Capa_37" data-name="Capa 37"><path class="cls-2" d="M417,139H283a23,23,0,0,0-23,23h0V286a3,3,0,0,0,3,3h2v6h-2a3,3,0,0,0-3,3V522a23,23,0,0,0,23,23h-1v13a3,3,0,0,0,3,3H415a3,3,0,0,0,3-3V545h-1a23,23,0,0,0,23-23V298a3,3,0,0,0-3-3h-2v-6h2a3,3,0,0,0,3-3V162a23,23,0,0,0-23-23Z"/><path class="cls-3" d="M213,245H387a3,3,0,0,1,3,3V472a23,23,0,0,1-23,23H233a23,23,0,0,1-23-23V248A3,3,0,0,1,213,245Z"/><path class="cls-3" d="M233,89H367a23,23,0,0,1,23,23h0V236a3,3,0,0,1-3,3H213a3,3,0,0,1-3-3V112A23,23,0,0,1,233,89Z"/><path class="cls-4" d="M232,495H368v13a3,3,0,0,1-3,3H235a3,3,0,0,1-3-3V495Z"/><rect class="cls-4" x="215" y="239" width="170" height="6"/><path class="cls-5" d="M263,120h74a3,3,0,0,1,3,3h0a3,3,0,0,1-3,3H263a3,3,0,0,1-3-3h0A3,3,0,0,1,263,120Z"/><path class="cls-6" d="M272.79,207H247.5a22.13,22.13,0,0,1-8-1.53,7.09,7.09,0,0,0-3.92-.33,7,7,0,0,0,2.92,13.69,6.92,6.92,0,0,0,.89-.25,22.92,22.92,0,0,1,7.85-1.57H273a5,5,0,0,0,5-5,4.35,4.35,0,0,0,0-.51A5.15,5.15,0,0,0,272.79,207Z"/><path class="cls-7" d="M247.5,207a22.13,22.13,0,0,1-8-1.53,7.09,7.09,0,0,0-3.92-.33,7,7,0,0,0,2.92,13.69,6.92,6.92,0,0,0,.89-.25,22.92,22.92,0,0,1,7.85-1.57h4.08l5.32-10Z"/><path class="cls-6" d="M272.79,267H247.5a22.13,22.13,0,0,1-8-1.53,7.09,7.09,0,0,0-3.92-.33,7,7,0,0,0,2.92,13.69,6.92,6.92,0,0,0,.89-.25,22.92,22.92,0,0,1,7.85-1.57H273a5,5,0,0,0,5-5,4.35,4.35,0,0,0,0-.51A5.15,5.15,0,0,0,272.79,267Z"/><path class="cls-8" d="M247.5,267a22.13,22.13,0,0,1-8-1.53,7.09,7.09,0,0,0-3.92-.33,7,7,0,0,0,2.92,13.69,6.92,6.92,0,0,0,.89-.25,22.92,22.92,0,0,1,7.85-1.57h4.08l5.32-10Z"/><path class="cls-9" d="M387,245H326.66L210,464.41V472a23,23,0,0,0,23,23H367a23,23,0,0,0,23-23V248A3,3,0,0,0,387,245Z"/><path class="cls-10" d="M329.85,239H387a3,3,0,0,0,3-3V125.88Z"/></g></svg>