<svg id="Contenido" xmlns="http://www.w3.org/2000/svg" xmlns:xlink="http://www.w3.org/1999/xlink" viewBox="0 0 600 600"><defs><style>.cls-1{fill:url(#Degradado_sin_nombre_7);}.cls-2{fill:url(#Degradado_sin_nombre_7-2);}.cls-3{fill:#f8cd51;}.cls-4{fill:#2dcccd;}.cls-5{fill:url(#Degradado_sin_nombre_31);}.cls-6{fill:url(#Degradado_sin_nombre_31-2);}.cls-7{fill:url(#Degradado_sin_nombre_44);}.cls-8{fill:#fef5dc;}</style><linearGradient id="Degradado_sin_nombre_7" x1="210.87" y1="221.21" x2="355.46" y2="493.15" gradientUnits="userSpaceOnUse"><stop offset="0" stop-color="#192647"/><stop offset="0" stop-color="#192647" stop-opacity="0.5"/><stop offset="1" stop-color="#192647" stop-opacity="0"/></linearGradient><linearGradient id="Degradado_sin_nombre_7-2" x1="241.39" y1="175.85" x2="395.26" y2="465.24" xlink:href="#Degradado_sin_nombre_7"/><linearGradient id="Degradado_sin_nombre_31" x1="253.09" y1="247.1" x2="151.73" y2="247.1" gradientTransform="translate(17.08 -19.93) rotate(4.57)" gradientUnits="userSpaceOnUse"><stop offset="0" stop-color="#028484" stop-opacity="0.5"/><stop offset="1" stop-color="#028484" stop-opacity="0"/></linearGradient><linearGradient id="Degradado_sin_nombre_31-2" x1="379.79" y1="214.73" x2="257.33" y2="214.73" xlink:href="#Degradado_sin_nombre_31"/><linearGradient id="Degradado_sin_nombre_44" x1="284.59" y1="710.31" x2="367.67" y2="754.48" gradientTransform="translate(0 -400)" gradientUnits="userSpaceOnUse"><stop offset="0" stop-color="#fff" stop-opacity="0.6"/><stop offset="1" stop-color="#fff" stop-opacity="0.2"/></linearGradient></defs><title>_</title><path class="cls-1" d="M200.88,251.16v.34c0,.23,0,.46,0,.7s0,.22,0,.33,0,.51,0,.77c0,.11,0,.23,0,.34l0,.83c0,.12,0,.25,0,.37,0,.29,0,.58,0,.88,0,.12,0,.24,0,.36,0,.32,0,.63.05,1l0,.36c0,.34,0,.68.07,1,0,.11,0,.23,0,.34l.09,1.1,0,.33c0,.39.07.78.11,1.18,0,.1,0,.21,0,.31,0,.41.08.82.13,1.24,0,.11,0,.21,0,.32.05.43.1.85.16,1.29,0,.1,0,.2,0,.3,0,.45.12.9.18,1.36,0,.09,0,.18,0,.28.07.47.14.94.22,1.42,0,.09,0,.17,0,.26.08.49.16,1,.25,1.48,0,.08,0,.16,0,.24.09.51.19,1,.29,1.55,0,.07,0,.14,0,.22.1.52.21,1.06.32,1.59,0,.07,0,.14.05.2q.16.82.36,1.65c0,.06,0,.12,0,.18.13.56.27,1.13.41,1.7l0,.14c.15.58.3,1.17.46,1.76l0,.11c.16.6.33,1.21.51,1.82l0,.07c.18.62.37,1.24.56,1.87l0,0c.2.64.4,1.27.62,1.91v0c8.8,26.15,31.35,55.54,88.48,53.44a.62.62,0,0,0,.3-.09c.68-.21.81-.74.87-1.55-.31-91.32-76.79-91.66-92.29-90.79a3,3,0,0,0-2.78,2.42.87.87,0,0,0-.06.32v.2h0a1.48,1.48,0,0,0,0,.21c0,.15,0,.31,0,.48v1.8Z"/><path class="cls-2" d="M416.77,305.18a100.18,100.18,0,0,0-22,2.44c20.42-18.23,36.21-47.1,37.24-92.7,0-.3,0-.62,0-.93,0-1.47,0-2.94,0-4.44,0-2.26,0-4.55-.1-6.9a1.43,1.43,0,0,0-.59-1.11c-.61-.85-1.7-1.28-3.35-1.28-133.64,1.33-131.33,116.43-130,135.46a3,3,0,0,0,2.9,2.78,159.48,159.48,0,0,0,47.16-6,101.27,101.27,0,0,0-13.76,16H219.68a3,3,0,0,0-3,3v25.68a3,3,0,0,0,3,3h100.1a100.08,100.08,0,0,0-2.06,10h-98a3,3,0,0,0-3,3v25.69a3,3,0,0,0,3,3h98.26a99.82,99.82,0,0,0,2.19,10H219.68a3,3,0,0,0-3,3v25.69a3,3,0,0,0,3,3H335.25a100.92,100.92,0,0,0,10.29,12.2l.36.37.53.53A99.94,99.94,0,0,0,370,494.07v0a100.25,100.25,0,1,0,46.79-188.86Z"/><path class="cls-3" d="M322.36,412.9H170.67a3,3,0,0,1-3-3V384.22a3,3,0,0,1,3-3H322.36Z"/><path class="cls-3" d="M322.36,371.22H170.67a3,3,0,0,1-3-3V342.53a3,3,0,0,1,3-3H322.36Z"/><path class="cls-3" d="M322.36,329.53H170.67a3,3,0,0,1-3-3V300.84a3,3,0,0,1,3-3H322.36Z"/><path class="cls-4" d="M247,285.8c-.31-91.33-76.79-91.66-92.29-90.8a3,3,0,0,0-2.84,2.95c-.35,15.6,2.57,92.72,93.76,89.49C246.78,287.35,246.94,286.77,247,285.8Z"/><path class="cls-5" d="M151.89,197.75c-.37,15.14,2.17,93.06,94,89.69a.63.63,0,0,0,.41-1.07L153.81,197A1.13,1.13,0,0,0,151.89,197.75Z"/><path class="cls-4" d="M379,149.54C245.4,150.86,247.71,266,249,285a3,3,0,0,0,2.9,2.79c19.16.64,135-1,131.09-134.8C383,150.68,381.76,149.54,379,149.54Z"/><path class="cls-6" d="M251.91,287.78c19.22.64,135.22-1,131.07-135.27a1.46,1.46,0,0,0-2.5-.95L251.08,285.72A1.22,1.22,0,0,0,251.91,287.78Z"/><path class="cls-3" d="M468.11,354.74A100.26,100.26,0,0,1,367.91,455c-55.24,0-100.35-45-100.35-100.27a100.36,100.36,0,0,1,100.2-100.28h0A100.3,100.3,0,0,1,468.11,354.74"/><path class="cls-7" d="M414.85,266c-48.8-25.95-109.3-7.23-135.5,41.46S272,417.13,320.78,443.09Z"/><path class="cls-8" d="M332.77,351.05H319.12V340.76H334c4.14-23.19,18.57-33.78,35.29-33.78,17.65,0,27,9.06,31.61,20.42l-13,7.37c-3.22-9.67-8.9-14.28-18.57-14.28-10.28,0-17.64,6.6-20.25,20.27h23.17v10.29H348v3.22c0,1.85,0,3.69.16,5.38h24.24v10.44h-23c2.6,12.75,9,19.35,20.25,19.35,9.67,0,15.5-4.3,19-15.05l12.73,7.68c-5.21,12-16,20.58-31.91,20.58-17.34,0-31-10.29-35.3-32.56h-15V359.65h13.81c-.16-1.69-.16-3.38-.16-5.07v-3.53Z"/></svg>