<svg id="Capa_1" data-name="Capa 1" xmlns="http://www.w3.org/2000/svg" xmlns:xlink="http://www.w3.org/1999/xlink" viewBox="0 0 600 600"><defs><style>.cls-1{fill:none;}.cls-2{fill:url(#Degradado_sin_nombre_11);}.cls-3{fill:url(#Degradado_sin_nombre_41);}.cls-4{fill:#f8cd51;}.cls-5{fill:#2dcccd;}.cls-6{fill:url(#Degradado_sin_nombre_12);}.cls-7{fill:url(#Degradado_sin_nombre_12-2);}.cls-8{fill:#ffdf8a;}.cls-9{fill:#ffce44;}.cls-10{fill:#c49735;}.cls-11{fill:url(#Degradado_sin_nombre_7);}</style><linearGradient id="Degradado_sin_nombre_11" x1="184.41" y1="-1561.41" x2="359.25" y2="-1890.26" gradientTransform="matrix(1, 0, 0, -1, 0, -1362.16)" gradientUnits="userSpaceOnUse"><stop offset="0" stop-color="#192647"/><stop offset="0" stop-color="#192647" stop-opacity="0.5"/><stop offset="1" stop-color="#192647" stop-opacity="0"/></linearGradient><linearGradient id="Degradado_sin_nombre_41" x1="221.88" y1="-1506.26" x2="407.95" y2="-1856.21" gradientTransform="matrix(1, 0, 0, -1, 0, -1362.16)" gradientUnits="userSpaceOnUse"><stop offset="0" stop-color="#192647" stop-opacity="0.5"/><stop offset="1" stop-color="#192647" stop-opacity="0"/></linearGradient><linearGradient id="Degradado_sin_nombre_12" x1="310.27" y1="-1541.35" x2="187.67" y2="-1541.35" gradientTransform="matrix(1, 0.08, 0.08, -1, 45.48, -1331.56)" gradientUnits="userSpaceOnUse"><stop offset="0" stop-color="#028484" stop-opacity="0.5"/><stop offset="1" stop-color="#028484" stop-opacity="0"/></linearGradient><linearGradient id="Degradado_sin_nombre_12-2" x1="463.46" y1="-1502.19" x2="315.38" y2="-1502.19" xlink:href="#Degradado_sin_nombre_12"/><linearGradient id="Degradado_sin_nombre_7" x1="286.82" y1="276.36" x2="397.66" y2="387.21" gradientUnits="userSpaceOnUse"><stop offset="0" stop-color="#fff" stop-opacity="0.4"/><stop offset="1" stop-color="#fff" stop-opacity="0.1"/></linearGradient></defs><rect class="cls-1" width="600" height="600"/><path class="cls-2" d="M172.92,235.16v6a8.45,8.45,0,0,0,.06,1.2v.44a6.06,6.06,0,0,0,.08,1.21v.41l.11,1.33v.4c0,.47.09.94.13,1.43v.37a13,13,0,0,0,.16,1.5v.39c.06.52.12,1,.19,1.56v.36a13.58,13.58,0,0,0,.22,1.65v.33c.09.57.17,1.14.27,1.72v.32c.09.59.19,1.2.3,1.79v.29c.11.61.23,1.2.35,1.87V260c.12.62.26,1.28.39,1.92a.35.35,0,0,0,.06.24c.13.66.27,1.33.43,2v.21c.16.68.33,1.37.5,2.06v.17c.18.7.36,1.41.56,2.13v.13c.19.73.4,1.46.61,2.2v.09c.22.75.45,1.5.68,2.26h0c.24.77.48,1.53.75,2.31h0c10.64,31.62,37.91,67.16,107,64.62a.69.69,0,0,0,.36-.11c.82-.25,1-.89,1.05-1.87-.37-110.43-92.86-110.84-111.6-109.79a3.61,3.61,0,0,0-3.36,2.92,1.09,1.09,0,0,0-.08.39v.24h0v3Z"/><path class="cls-3" d="M434,300.48a121.51,121.51,0,0,0-26.61,2.95c24.7-22,43.79-57,45-112.1v-6.49c0-2.73,0-5.5-.13-8.35a1.72,1.72,0,0,0-.71-1.34c-.74-1-2.05-1.55-4.05-1.55-161.61,1.61-158.81,140.8-157.21,163.81a3.62,3.62,0,0,0,3.51,3.36,192.79,192.79,0,0,0,57-7.25,122.83,122.83,0,0,0-16.64,19.35H195.65a3.63,3.63,0,0,0-3.63,3.62v31.06a3.64,3.64,0,0,0,3.63,3.63h121a118.33,118.33,0,0,0-2.49,12.09H195.7a3.63,3.63,0,0,0-3.63,3.63V438a3.63,3.63,0,0,0,3.63,3.63H314.52a121.73,121.73,0,0,0,2.65,12.09H195.65a3.64,3.64,0,0,0-3.63,3.63v31.07a3.64,3.64,0,0,0,3.63,3.63H335.41a122.42,122.42,0,0,0,12.44,14.75l.44.45.64.64a120.62,120.62,0,0,0,28.5,21h0A121.23,121.23,0,1,0,434,300.52Z"/><path class="cls-4" d="M319.82,430.74H136.38a3.62,3.62,0,0,1-3.62-3.62V396.06a3.63,3.63,0,0,1,3.62-3.63H319.82Z"/><path class="cls-4" d="M319.82,380.34H136.38a3.62,3.62,0,0,1-3.62-3.63V345.65a3.62,3.62,0,0,1,3.62-3.63H319.82Z"/><path class="cls-4" d="M319.82,329.93H136.38a3.63,3.63,0,0,1-3.62-3.63V295.23a3.63,3.63,0,0,1,3.62-3.63H319.82Z"/><path class="cls-5" d="M228.69,277.05c-.38-110.45-92.86-110.85-111.61-109.81a3.63,3.63,0,0,0-3.43,3.57C113.23,189.68,116.76,282.93,227,279,228.42,278.92,228.62,278.22,228.69,277.05Z"/><path class="cls-6" d="M113.67,170.57C113.23,188.88,116.3,283.1,227.35,279a.77.77,0,0,0,.71-.81.79.79,0,0,0-.22-.49L116,169.66a1.37,1.37,0,0,0-1.94,0A1.42,1.42,0,0,0,113.67,170.57Z"/><path class="cls-5" d="M388.31,112.27c-161.56,1.6-158.76,140.83-157.2,163.81a3.62,3.62,0,0,0,3.5,3.37c23.17.78,163.26-1.21,158.53-163C393.15,113.65,391.65,112.27,388.31,112.27Z"/><path class="cls-7" d="M234.63,279.44c23.24.77,163.51-1.21,158.49-163.58a1.75,1.75,0,0,0-1.85-1.67,1.78,1.78,0,0,0-1.17.52L233.62,277a1.47,1.47,0,0,0,0,2.08A1.5,1.5,0,0,0,234.63,279.44Z"/><path class="cls-8" d="M495.77,360.32A121.33,121.33,0,0,1,374.51,481.65c-66.84,0-121.43-54.45-121.43-121.34A121.44,121.44,0,0,1,374.33,239h0A121.38,121.38,0,0,1,495.77,360.28v0"/><path class="cls-9" d="M374.5,455.77a95.46,95.46,0,1,1,95.38-95.49,95.61,95.61,0,0,1-95.38,95.49Z"/><path class="cls-10" d="M374.4,270.51a89.88,89.88,0,1,1-63.47,26.35,89.94,89.94,0,0,1,63.47-26.35h0m0-11.33h0A101.21,101.21,0,0,0,273.3,360.31c0,55.74,45.49,101.12,101.2,101.12A101.11,101.11,0,0,0,475.55,360.32v0A101.16,101.16,0,0,0,374.4,259.18Z"/><path class="cls-11" d="M374.33,239a121.29,121.29,0,0,0-56.84,228.42l113.9-214.22A120.78,120.78,0,0,0,374.33,239Z"/></svg>