<svg id="Contenido" xmlns="http://www.w3.org/2000/svg" xmlns:xlink="http://www.w3.org/1999/xlink" viewBox="0 0 600 600"><defs><style>.cls-1{fill:url(#Degradado_sin_nombre_74);}.cls-2{fill:url(#Degradado_sin_nombre_74-2);}.cls-3{fill:url(#Degradado_sin_nombre_74-3);}.cls-4{fill:#1464a5;}.cls-5{fill:#2dcccd;}.cls-6{fill:#5bbeff;}.cls-7{fill:url(#Degradado_sin_nombre_5);}.cls-8{fill:url(#Degradado_sin_nombre_7);}.cls-9{fill:url(#Degradado_sin_nombre_9);}.cls-10{fill:none;}</style><linearGradient id="Degradado_sin_nombre_74" x1="280.8" y1="74.81" x2="591.1" y2="658.4" gradientUnits="userSpaceOnUse"><stop offset="0" stop-color="#082146" stop-opacity="0.5"/><stop offset="1" stop-color="#082146" stop-opacity="0"/></linearGradient><linearGradient id="Degradado_sin_nombre_74-2" x1="218.62" y1="79.91" x2="501.81" y2="612.52" xlink:href="#Degradado_sin_nombre_74"/><linearGradient id="Degradado_sin_nombre_74-3" x1="182.39" y1="138.54" x2="417.85" y2="581.37" xlink:href="#Degradado_sin_nombre_74"/><linearGradient id="Degradado_sin_nombre_5" x1="273.62" y1="447.13" x2="367.63" y2="447.13" gradientUnits="userSpaceOnUse"><stop offset="0.01" stop-color="#043263" stop-opacity="0"/><stop offset="1" stop-color="#043263" stop-opacity="0.4"/></linearGradient><linearGradient id="Degradado_sin_nombre_7" x1="278.15" y1="308.55" x2="435.12" y2="308.55" gradientUnits="userSpaceOnUse"><stop offset="0" stop-color="#028484" stop-opacity="0.1"/><stop offset="0.99" stop-color="#028484" stop-opacity="0.6"/></linearGradient><linearGradient id="Degradado_sin_nombre_9" x1="289.7" y1="177.79" x2="500.11" y2="177.79" gradientUnits="userSpaceOnUse"><stop offset="0" stop-color="#072146" stop-opacity="0.1"/><stop offset="1" stop-color="#072146" stop-opacity="0.6"/></linearGradient></defs><path class="cls-1" d="M537.16,183.68l-184-41.1a51.36,51.36,0,0,0-22.48,0l-184,41.1a6.19,6.19,0,0,0-4.12,8.94l45.83,86.07a12.37,12.37,0,0,0,13.44,6.3L331.43,258.1a51.64,51.64,0,0,1,20.94,0L482,285a12.37,12.37,0,0,0,13.44-6.3l45.82-86.07A6.18,6.18,0,0,0,537.16,183.68Z"/><path class="cls-2" d="M472.18,305.73l-119-26.65a51.63,51.63,0,0,0-22.54,0l-119,26.65a6.19,6.19,0,0,0-4.11,8.95l48.37,90.84a12.39,12.39,0,0,0,14,6.19l59.4-15a51.67,51.67,0,0,1,25.32,0l59.4,15a12.39,12.39,0,0,0,14-6.19l48.37-90.84A6.19,6.19,0,0,0,472.18,305.73Z"/><path class="cls-3" d="M405.08,432.58l-48.69-14.25a51.57,51.57,0,0,0-29,0l-48.69,14.25a6.19,6.19,0,0,0-3.73,8.85l56,105.14a12.38,12.38,0,0,0,21.85,0l56-105.14A6.19,6.19,0,0,0,405.08,432.58Z"/><path class="cls-4" d="M453.55,238.59l45.82-86.07a6.18,6.18,0,0,0-4.11-9l-184-41.1a51.66,51.66,0,0,0-22.48,0l-184,41.1a6.18,6.18,0,0,0-4.11,9l45.82,86.07a12.39,12.39,0,0,0,13.44,6.3L289.53,218a51.64,51.64,0,0,1,20.94,0l129.64,26.89A12.39,12.39,0,0,0,453.55,238.59Z"/><path class="cls-5" d="M386,365.42l48.37-90.85a6.19,6.19,0,0,0-4.11-8.95L311.27,239a51.63,51.63,0,0,0-22.54,0l-119,26.64a6.19,6.19,0,0,0-4.11,8.95L214,365.42a12.37,12.37,0,0,0,14,6.18l59.4-15a51.67,51.67,0,0,1,25.32,0l59.4,15A12.37,12.37,0,0,0,386,365.42Z"/><path class="cls-6" d="M233.1,401.32l56,105.14a12.38,12.38,0,0,0,21.86,0l56-105.14a6.17,6.17,0,0,0-3.72-8.84l-48.69-14.26a51.57,51.57,0,0,0-29,0l-48.69,14.26A6.17,6.17,0,0,0,233.1,401.32Z"/><path class="cls-7" d="M363.18,392.48l-38.41-11.25-51.15,96.21,15.45,29a12.38,12.38,0,0,0,21.86,0l56-105.14A6.17,6.17,0,0,0,363.18,392.48Z"/><path class="cls-8" d="M430.28,265.62l-91.64-20.51L278.15,358.89l9.19-2.33a51.67,51.67,0,0,1,25.32,0l59.4,15a12.37,12.37,0,0,0,14-6.18l48.37-90.85A6.19,6.19,0,0,0,430.28,265.62Z"/><path class="cls-9" d="M495.26,143.57,346.88,110.43,289.7,218a51.52,51.52,0,0,1,20.77,0l129.64,26.89a12.39,12.39,0,0,0,13.44-6.3l45.82-86.07A6.18,6.18,0,0,0,495.26,143.57Z"/><rect class="cls-10" width="600" height="600"/></svg>