<svg xmlns="http://www.w3.org/2000/svg" xmlns:xlink="http://www.w3.org/1999/xlink" viewBox="0 0 600 600"><defs><style>.e48bb2bc-3e49-45f6-bd45-014d61591cc7{fill:none;}.ff7fcfb7-ca52-4592-b6a0-f87cd17ffb0f{fill:url(#e6b10efa-47b0-44d4-b522-28b93f491154);}.ba09bbff-4a77-41fc-9e10-a28a33378cbc{fill:#ffcc28;}.b64f28a6-0362-4e0f-86f8-b6f701c43bfe{fill:url(#b05c5205-674c-4cce-acf5-f277d3eba1da);}.b93a2d5d-9846-445e-9bda-75cf71d0413f{fill:#003267;}.a28d94c4-b9ee-4708-bd8f-6c03ddff289e{fill:#cdeefe;}.eda03be0-0344-4309-820b-9e891db50594{fill:#ff9098;}.b35b7595-47c7-47e7-a6e6-c74ed7966d86{fill:#d43a5d;}.b6d10805-7343-462e-af98-fa9ae585d776{fill:url(#b571cd51-57a6-4be8-a971-9e8f01d43375);}</style><linearGradient id="e6b10efa-47b0-44d4-b522-28b93f491154" x1="266.23" y1="174.1" x2="427.76" y2="477.9" gradientUnits="userSpaceOnUse"><stop offset="0" stop-color="#142649" stop-opacity="0.5"/><stop offset="1" stop-color="#142649" stop-opacity="0"/></linearGradient><linearGradient id="b05c5205-674c-4cce-acf5-f277d3eba1da" x1="145.17" y1="195.21" x2="298.2" y2="276.58" gradientUnits="userSpaceOnUse"><stop offset="0" stop-color="#fff" stop-opacity="0.6"/><stop offset="1" stop-color="#fff" stop-opacity="0.2"/></linearGradient><linearGradient id="b571cd51-57a6-4be8-a971-9e8f01d43375" x1="377" y1="360.38" x2="266.69" y2="360.38" gradientUnits="userSpaceOnUse"><stop offset="0" stop-color="#d43a5d" stop-opacity="0.4"/><stop offset="1" stop-color="#d43a5d" stop-opacity="0"/></linearGradient></defs><g id="ac046762-509e-4a34-b297-f45bfb6ba922" data-name="cuadrados blancos"><rect class="e48bb2bc-3e49-45f6-bd45-014d61591cc7" width="600" height="600"/></g><g id="a0aa9461-9d24-4f6a-918b-55f348e16a52" data-name="Capa 8"><path class="ff7fcfb7-ca52-4592-b6a0-f87cd17ffb0f" d="M519,325.9A172,172,0,1,1,346.89,154,172,172,0,0,1,519,325.9"/><path class="ba09bbff-4a77-41fc-9e10-a28a33378cbc" d="M469,276c0,95.09-77.12,172-171.87,172S125,370.82,125,276s77.12-172,171.87-172h0c95,0,172.13,76.91,172.13,172"/><path class="b64f28a6-0362-4e0f-86f8-b6f701c43bfe" d="M296.87,104C202.12,104,125,181.18,125,276c0,66.1,37.6,123.62,92.47,152.41L378,124.27A171.5,171.5,0,0,0,296.87,104Z"/><path class="b93a2d5d-9846-445e-9bda-75cf71d0413f" d="M343.78,192.61a43.31,43.31,0,0,1,22.48,6,3,3,0,0,0,4.51-3.25,27.95,27.95,0,0,0-54,0,3,3,0,0,0,4.52,3.25A43.31,43.31,0,0,1,343.78,192.61Z"/><path class="b93a2d5d-9846-445e-9bda-75cf71d0413f" d="M297,235.45c-34.52,0-66.51,4.93-92.75,13.33a22.94,22.94,0,0,0-14,31C206.35,316.8,248.07,343.2,297,343.2s90.65-26.4,106.73-63.46a22.94,22.94,0,0,0-14-31C363.51,240.38,331.52,235.45,297,235.45Z"/><path class="a28d94c4-b9ee-4708-bd8f-6c03ddff289e" d="M297,259.5c29.85,0,57.35-5.43,79.32-14.57-23.42-6-50.48-9.48-79.32-9.48s-55.9,3.45-79.33,9.48C239.65,254.07,267.15,259.5,297,259.5Z"/><circle class="b93a2d5d-9846-445e-9bda-75cf71d0413f" cx="250.22" cy="187.08" r="22"/><path class="eda03be0-0344-4309-820b-9e891db50594" d="M257,299.32H357a0,0,0,0,1,0,0v62.11a60,60,0,0,1-60,60h0a60,60,0,0,1-60-60V319.32a20,20,0,0,1,20-20Z"/><path class="eda03be0-0344-4309-820b-9e891db50594" d="M377,299.32H357v20h0a20,20,0,0,1,20-20Z"/><path class="b35b7595-47c7-47e7-a6e6-c74ed7966d86" d="M377,299.32a20,20,0,0,0-20,20v9.26a109.73,109.73,0,0,0,31.9-25.3,19.85,19.85,0,0,0-11.9-4Z"/><path class="b35b7595-47c7-47e7-a6e6-c74ed7966d86" d="M297,363.58a5,5,0,0,1-5-5V318.32c0-9.5,9.18-19,19-19h6a15,15,0,0,0-15,15v44.26A5,5,0,0,1,297,363.58Z"/><path class="b6d10805-7343-462e-af98-fa9ae585d776" d="M357,299.32H329.82L266.69,413.21A59.71,59.71,0,0,0,297,421.44h0a60,60,0,0,0,60-60V319.32h0a20,20,0,0,1,20-20H357Z"/></g></svg>