<svg xmlns="http://www.w3.org/2000/svg" xmlns:xlink="http://www.w3.org/1999/xlink" viewBox="0 0 600 600"><defs><style>.cls-1{fill:none;}.cls-2{fill:url(#Degradado_sin_nombre_170);}.cls-3{fill:#5bbeff;}.cls-4,.cls-9{fill:#1464a5;}.cls-4,.cls-5{opacity:0.35;isolation:isolate;}.cls-5{fill:#65a3df;}.cls-6{fill:#49a5e6;}.cls-7{fill:#004481;}.cls-8{fill:url(#Degradado_sin_nombre_169);}.cls-10{fill:#d4edfc;}.cls-11{fill:url(#Degradado_sin_nombre_167);}.cls-12{fill:#b79e5d;}.cls-13{fill:#2dcccd;}.cls-14{fill:url(#Degradado_sin_nombre_163);}</style><linearGradient id="Degradado_sin_nombre_170" x1="246.12" y1="-13356.98" x2="466.79" y2="-13772" gradientTransform="matrix(1, 0, 0, -1, 0, -13226.25)" gradientUnits="userSpaceOnUse"><stop offset="0" stop-color="#1c2645" stop-opacity="0.5"/><stop offset="1" stop-color="#1c2645" stop-opacity="0"/></linearGradient><linearGradient id="Degradado_sin_nombre_169" x1="425.76" y1="-13583.68" x2="219.36" y2="-13583.68" gradientTransform="matrix(1, 0, 0, -1, 0, -13226.25)" gradientUnits="userSpaceOnUse"><stop offset="0" stop-color="#043263" stop-opacity="0.3"/><stop offset="0.99" stop-color="#043263" stop-opacity="0"/></linearGradient><linearGradient id="Degradado_sin_nombre_167" x1="367.95" y1="-13379.11" x2="396.61" y2="-13407.77" gradientTransform="matrix(1, 0, 0, -1, 0, -13226.25)" gradientUnits="userSpaceOnUse"><stop offset="0" stop-color="#fff" stop-opacity="0.4"/><stop offset="1" stop-color="#fff" stop-opacity="0.1"/></linearGradient><linearGradient id="Degradado_sin_nombre_163" x1="434.45" y1="-13447.68" x2="291.12" y2="-13447.68" gradientTransform="matrix(1, 0, 0, -1, 0, -13226.25)" gradientUnits="userSpaceOnUse"><stop offset="0" stop-color="#028484" stop-opacity="0.5"/><stop offset="1" stop-color="#028484" stop-opacity="0.1"/></linearGradient></defs><g id="Cuadrados_Blancos" data-name="Cuadrados Blancos"><rect class="cls-1" width="600" height="600"/></g><g id="Capa_132" data-name="Capa 132"><path class="cls-2" d="M484.43,156.17l-23.44-13a2,2,0,0,0-2.64.74v0L455,150a2,2,0,0,0,.76,2.65l-18.53,33.44a29.26,29.26,0,0,1-20.51,14.63,29.26,29.26,0,0,0-20.51,14.63l-14.89,26.87L379.81,225,346,196.64,285.05,202a2.33,2.33,0,0,0-2.12,2.52L285.69,236,269.07,205.4a6.19,6.19,0,0,0-4.15-3.1l-2.17-.47a31.86,31.86,0,0,0-4-.58l-7.94-27.7a4.21,4.21,0,0,1,3-5.17h0A15.41,15.41,0,1,0,236.19,146h0a6.22,6.22,0,0,1-8.34,2.76,4.63,4.63,0,0,1-.43-.24h0a15.4,15.4,0,1,0-3.12,28.32h0a4.2,4.2,0,0,1,5.26,2.75l0,0,7.94,27.7a30.67,30.67,0,0,0-3.08,2.62l-1.6,1.55a6.19,6.19,0,0,0-1.88,4.82L233.14,252H220.5a3,3,0,0,0-3,2.7l-3.4,34a3,3,0,0,0,2.68,3.29h8.52l16,248.55a24,24,0,0,0,24,22.45H429.48a23.57,23.57,0,0,0,8.81-2.15c.34-.15.68-.31,1-.48a24.41,24.41,0,0,0,6.19-4.59h0a23.73,23.73,0,0,0,3.93-5.35,21.94,21.94,0,0,0,1-2q.22-.52.42-1c.26-.71.49-1.44.68-2.17.1-.37.19-.75.27-1.12a25.19,25.19,0,0,0,.48-3.47l16-248.55h8.2a3,3,0,0,0,1.24-.27,2.54,2.54,0,0,0,.53-.31,3,3,0,0,0,1.22-2.72l-3.4-34a3,3,0,0,0-1.41-2.25,2.93,2.93,0,0,0-1.58-.45h-17l1.43-2.58A29.26,29.26,0,0,0,459,224.34h0a29.27,29.27,0,0,1,1.54-25.14l18.54-33.44a2,2,0,0,0,2.65-.76l3.38-6.11a1.94,1.94,0,0,0-.63-2.67Z"/><path class="cls-3" d="M334.73,174.51l-17.68-14.85L300.9,146.11,240,151.44A2.33,2.33,0,0,0,237.9,154l10.43,119.19a2.33,2.33,0,0,0,2.52,2.12l16.62-1.46,73.06-6.39a2.31,2.31,0,0,0,2.11-2.51h0Z"/><path class="cls-4" d="M290.43,165.47l-34.77,3a1.84,1.84,0,0,1-.32-3.66l34.77-3a1.84,1.84,0,0,1,.53,3.64Z"/><path class="cls-4" d="M291.42,176.75l-34.77,3.05a1.84,1.84,0,1,1-.53-3.64l.21,0,34.77-3a1.84,1.84,0,0,1,.53,3.64l-.21,0Z"/><path class="cls-4" d="M320.44,197l-61.82,5.41a1.84,1.84,0,0,1-.32-3.66l61.82-5.41a1.84,1.84,0,0,1,.32,3.66Z"/><path class="cls-4" d="M321.42,208.23l-61.81,5.41a1.84,1.84,0,0,1-.32-3.66l61.81-5.41a1.84,1.84,0,0,1,.32,3.66Z"/><path class="cls-4" d="M322.41,219.52l-61.81,5.4a1.84,1.84,0,0,1-.32-3.66l61.81-5.4a1.84,1.84,0,0,1,.53,3.64Z"/><path class="cls-4" d="M324.38,242.08l-61.81,5.41a1.84,1.84,0,1,1-.53-3.64l.21,0,61.81-5.41a1.84,1.84,0,0,1,.32,3.66Z"/><path class="cls-5" d="M325.37,253.36l-34.77,3a1.84,1.84,0,0,1-.32-3.66l34.77-3a1.84,1.84,0,0,1,.32,3.66Z"/><path class="cls-6" d="M306,177l28.79-2.52-33.83-28.39,2.52,28.8A2.31,2.31,0,0,0,306,177Z"/><path class="cls-7" d="M383.26,512.43h-163A24,24,0,0,1,196.31,490L177.76,202.43h248L407.21,490A24,24,0,0,1,383.26,512.43Z"/><path class="cls-8" d="M384.17,202.43l-164.81,310h163.9A24,24,0,0,0,407.21,490l18.55-287.55Z"/><path class="cls-9" d="M367.15,476.75h-.33a5,5,0,0,1-4.67-5.31h0l12.33-191.1a5,5,0,1,1,10,.64l-12.35,191.1A5,5,0,0,1,367.15,476.75Z"/><path class="cls-9" d="M236.37,476.75a5,5,0,0,1-5-4.67L219.05,281a5,5,0,1,1,10-.64l12.33,191.1a5,5,0,0,1-4.67,5.31h0Z"/><path class="cls-9" d="M280.34,476.75a5,5,0,0,1-5-4.87l-4.88-191.1a5,5,0,0,1,10-.26l4.87,191.11a5,5,0,0,1-4.87,5.12Z"/><path class="cls-10" d="M412.51,198.85a29.26,29.26,0,0,0,1.54-25.15h0a29.27,29.27,0,0,1,1.54-25.14l18.54-33.44a2,2,0,0,0,2.65-.76l3.38-6.11a2,2,0,0,0-.74-2.64h0L416,92.61a1.94,1.94,0,0,0-2.64.75h0L410,99.47a2,2,0,0,0,.76,2.65L392.2,135.56a29.26,29.26,0,0,1-20.51,14.63,29.29,29.29,0,0,0-20.51,14.63L323.82,214.1h80.24Z"/><path class="cls-10" d="M407.38,196a23.29,23.29,0,0,0,1.26-20,34.72,34.72,0,0,1,1.58-29.81L429,112.39,415.81,105l-18.53,33.45A35,35,0,0,1,372.68,156a23.43,23.43,0,0,0-16.42,11.7l-25.74,46.4h66.84Z"/><path class="cls-11" d="M422.46,108.69,415.81,105l-18.53,33.45A35,35,0,0,1,372.68,156a23.43,23.43,0,0,0-16.42,11.7l-25.74,46.4H364Z"/><path class="cls-9" d="M323.18,476.75h-.13a5,5,0,0,1-4.88-5.11h0l4.88-191.11a5,5,0,0,1,5-4.87h.13a5,5,0,0,1,4.87,5.13h0l-4.87,191.1A5,5,0,0,1,323.18,476.75Z"/><path class="cls-10" d="M218.8,97.08a15.39,15.39,0,0,0-27.64-1.66h0a6.21,6.21,0,0,1-8.31,2.85,4.67,4.67,0,0,1-.49-.27h0a15.4,15.4,0,1,0-3.12,28.33h0a4.2,4.2,0,0,1,5.26,2.76l0,0,10.72,37.38,21.25-6.09L205.77,123a4.22,4.22,0,0,1,2.95-5.17h.05a15.44,15.44,0,0,0,10-20.74Z"/><path class="cls-12" d="M255.86,213.51,190,232.39l-4.12-66.62a6.21,6.21,0,0,1,1.88-4.83l1.6-1.55a31.31,31.31,0,0,1,28.34-8.12l2.17.46a6.19,6.19,0,0,1,4.15,3.1Z"/><path class="cls-13" d="M431.44,241.43H172.07a3,3,0,0,1-3-3c0-.11,0-.21,0-.32l3.4-34a3,3,0,0,1,3-2.7H428a3,3,0,0,1,3,2.7l3.4,34a3,3,0,0,1-2.69,3.29Z"/><path class="cls-14" d="M431,204.13a3,3,0,0,0-3-2.7H312.39l-21.27,40H431.44a3,3,0,0,0,3-3c0-.11,0-.21,0-.32Z"/></g></svg>