<svg xmlns="http://www.w3.org/2000/svg" xmlns:xlink="http://www.w3.org/1999/xlink" viewBox="0 0 600 600"><defs><style>.cls-1{fill:none;}.cls-2{fill:url(#Degradado_sin_nombre_3);}.cls-3{fill:#004481;}.cls-4{fill:#043263;}.cls-5{fill:#49a5e6;}.cls-6{fill:#072146;}.cls-7{fill:#2dcccd;}.cls-8{fill:url(#Degradado_sin_nombre_21);}.cls-9{fill:url(#Degradado_sin_nombre_21-2);}.cls-10{fill:url(#Degradado_sin_nombre_21-3);}.cls-11{fill:#c49735;}.cls-12{fill:#fade8e;}.cls-13{fill:#f8cd50;}.cls-14{fill:url(#Degradado_sin_nombre_9);}</style><linearGradient id="Degradado_sin_nombre_3" x1="303.77" y1="-1554.42" x2="452.15" y2="-1833.48" gradientTransform="matrix(1, 0, 0, -1, 0, -1346)" gradientUnits="userSpaceOnUse"><stop offset="0" stop-color="#1a2746" stop-opacity="0.5"/><stop offset="1" stop-color="#1a2746" stop-opacity="0"/></linearGradient><linearGradient id="Degradado_sin_nombre_21" x1="342.76" y1="-1611.2" x2="267.88" y2="-1611.2" gradientTransform="matrix(1, 0, 0, -1, 0, -1346)" gradientUnits="userSpaceOnUse"><stop offset="0" stop-color="#072146" stop-opacity="0.8"/><stop offset="1" stop-color="#072146" stop-opacity="0.1"/></linearGradient><linearGradient id="Degradado_sin_nombre_21-2" x1="342.76" y1="-1735.32" x2="196.1" y2="-1735.32" xlink:href="#Degradado_sin_nombre_21"/><linearGradient id="Degradado_sin_nombre_21-3" x1="342.76" y1="-1667.82" x2="256.3" y2="-1667.82" xlink:href="#Degradado_sin_nombre_21"/><linearGradient id="Degradado_sin_nombre_9" x1="600.42" y1="-1442.93" x2="636.06" y2="-1461.89" gradientTransform="matrix(0.99, 0.14, 0.14, -0.99, 80.62, -1361.7)" gradientUnits="userSpaceOnUse"><stop offset="0" stop-color="#fff" stop-opacity="0.2"/><stop offset="1" stop-color="#fff" stop-opacity="0.1"/></linearGradient></defs><title>14</title><g id="Cuadrados_Blancos" data-name="Cuadrados Blancos"><rect class="cls-1" width="600" height="600"/></g><g id="Capa_4" data-name="Capa 4"><path class="cls-2" d="M585.64,266.15c5.15-7-5.65-23.67-24.1-37.2-.29-.22-.58-.42-.87-.63h0a100.48,100.48,0,0,0-13.5-8.22h0l-1.63-.79h0c-.53-.25-1.06-.5-1.58-.73h-.05l-1.53-.67h-.08l-1.48-.6h-.11l-1.41-.54h-.15l-1.35-.47-.19-.06-1.28-.41-.22-.06c-.41-.12-.81-.24-1.21-.34l-.25-.07-1.14-.29-.29-.06-1.07-.23-.32-.06-1-.17h-.35l-.92-.13h-.37l-.85-.08H525l-.43.06-.58.08-.42.09a1.87,1.87,0,0,0-.52.12l-.42.13-.46.14-.41.17-.4.17-.4.22a3.9,3.9,0,0,0-.35.19l-.39.28-.28.2c-.14.11-.27.24-.4.36l-.19.18a5.17,5.17,0,0,0-.52.62l-2.51,3.42-2.88-2.1-2,2.8a4,4,0,0,0-.35,4.2l10.45,20.66-2,2.78a3.27,3.27,0,0,0,.7,4.57l5,3.68-128,151.94v-8.71a2.26,2.26,0,0,0-.17-.85,1.9,1.9,0,0,0-.34-.54,1.64,1.64,0,0,0-.3-.29,2.14,2.14,0,0,0-.92-.45,2.12,2.12,0,0,0-.44,0V387.33a2.12,2.12,0,0,0,.44-.05A2.15,2.15,0,0,0,397,386a2.26,2.26,0,0,0,.17-.85v-6.53a2.26,2.26,0,0,0-.17-.85,2,2,0,0,0-.34-.55,2.76,2.76,0,0,0-.3-.29,2.26,2.26,0,0,0-.92-.45H395V365.55a2.17,2.17,0,0,0,2.17-2.17h0V285h5.11a3.61,3.61,0,0,0,3.6-3.61,18.17,18.17,0,0,0-18.17-18.17h-70V219.13a10.89,10.89,0,0,0-21.78,0v44.08h-70a18.17,18.17,0,0,0-18.17,18.17h0a3.61,3.61,0,0,0,3.6,3.61h5.1v34.45A38.52,38.52,0,0,0,152.08,348a49.67,49.67,0,0,0,10.66,30.69l53.72,69.46v52.38h-4.73a4,4,0,0,0-4,4v5.12a4,4,0,0,0,4,4h190.2a4,4,0,0,0,4-4v-5.12a4,4,0,0,0-4-4h-4.74V489.67L544.78,271.55l5.81,4.26a3.27,3.27,0,0,0,4.57-.71h0l2-2.78h0L580,276.07a4,4,0,0,0,3.9-1.59l2.06-2.81-2.87-2.1Zm-367,110.29a2.19,2.19,0,0,0-2.18,2.18v6.53a2.2,2.2,0,0,0,2.18,2.18v10.88a2.2,2.2,0,0,0-2.18,2.18v28.78L171.9,371.54A38,38,0,0,1,163.71,348a26.92,26.92,0,0,1,52.75-7.56v22.91a2.19,2.19,0,0,0,2.18,2.18Z"/><path class="cls-3" d="M186.74,416.37a5.8,5.8,0,0,1-4.6-2.26l-73.83-95.47A49.59,49.59,0,0,1,97.65,288a38.55,38.55,0,1,1,77.09-1.24c0,.41,0,.83,0,1.24v13.66a5.81,5.81,0,0,1-11.62,0V288a26.93,26.93,0,0,0-53.85,0,38,38,0,0,0,8.19,23.52L191.34,407a5.81,5.81,0,0,1-4.6,9.37Z"/><path class="cls-4" d="M162,224.92v78.39a2.19,2.19,0,0,0,2.18,2.18h176.4a2.2,2.2,0,0,0,2.18-2.18V224.92Z"/><path class="cls-4" d="M162,440.49H342.76V340.33a2.2,2.2,0,0,0-2.18-2.18H164.21a2.19,2.19,0,0,0-2.18,2.18Z"/><rect class="cls-4" x="162.03" y="316.38" width="180.73" height="10.89" rx="2.18"/><path class="cls-5" d="M171.49,203.15h161.8a18.16,18.16,0,0,1,18.17,18.17h0a3.6,3.6,0,0,1-3.6,3.6H156.92a3.6,3.6,0,0,1-3.6-3.6h0a18.16,18.16,0,0,1,18.17-18.17Z"/><rect class="cls-6" x="164.21" y="305.49" width="176.37" height="10.89"/><rect class="cls-6" x="164.21" y="327.26" width="176.37" height="10.89"/><path class="cls-7" d="M252.39,148.18h0a10.9,10.9,0,0,1,10.89,10.89v94.72A3.26,3.26,0,0,1,260,257H244.77a3.26,3.26,0,0,1-3.27-3.27h0V159.06a10.9,10.9,0,0,1,10.89-10.89Z"/><polygon class="cls-5" points="342.76 429.61 491.44 209.87 491.44 172.49 342.76 349.04 342.76 429.61"/><path class="cls-8" d="M310.72,224.92l-42.84,80.57h72.7a2.2,2.2,0,0,0,2.18-2.18V224.92Z"/><path class="cls-9" d="M342.76,340.33a2.2,2.2,0,0,0-2.18-2.18H250.52L196.1,440.49H342.76Z"/><path class="cls-10" d="M340.58,316.38H262.09l-5.79,10.88h84.28a2.18,2.18,0,0,0,2.18-2.17v-6.54A2.18,2.18,0,0,0,340.58,316.38Z"/><path class="cls-11" d="M496.16,215.74a3.26,3.26,0,0,0,4.55-.68v0l2-2.78L467,186.06l-2,2.79a3.27,3.27,0,0,0,.7,4.56h0"/><path class="cls-12" d="M459,158.4l-2.06,2.81a4,4,0,0,0-.34,4.2L467,186.06l35.73,26.2L525.6,216a4,4,0,0,0,3.91-1.6l2-2.8Z"/><path class="cls-13" d="M507.1,168.88c-18.46-13.53-37.59-18.81-42.73-11.79l-2.51,3.42,66.84,49,2.51-3.42C536.35,199.07,525.56,182.41,507.1,168.88Z"/><path class="cls-14" d="M464.37,157.09l-2.51,3.42,32.56,23.87,11.81-16.12C488.05,155.2,469.43,150.18,464.37,157.09Z"/></g></svg>