<svg xmlns="http://www.w3.org/2000/svg" xmlns:xlink="http://www.w3.org/1999/xlink" viewBox="0 0 600 600"><defs><style>.cls-1{fill:none;}.cls-2{fill:url(#Degradado_sin_nombre_462);}.cls-3{fill:#946e2a;}.cls-4{fill:#2dcccd;}.cls-5{fill:url(#Degradado_sin_nombre_14);}.cls-6{fill:#f8cd50;}.cls-7{fill:url(#Degradado_sin_nombre_76);}.cls-8{fill:#bc9847;}.cls-9{fill:#d4edfc;}.cls-10{fill:url(#Degradado_sin_nombre_9);}.cls-11{fill:url(#Degradado_sin_nombre_9-2);}.cls-12{fill:url(#Degradado_sin_nombre_9-3);}.cls-13{fill:#004481;}.cls-14{fill:url(#Degradado_sin_nombre_114);}.cls-15{fill:url(#Degradado_sin_nombre_114-2);}.cls-16{fill:url(#Degradado_sin_nombre_114-3);}.cls-17{fill:url(#Degradado_sin_nombre_74);}</style><linearGradient id="Degradado_sin_nombre_462" x1="273.78" y1="4104.57" x2="444.34" y2="3783.79" gradientTransform="matrix(1, 0, 0, -1, 0, 4310)" gradientUnits="userSpaceOnUse"><stop offset="0" stop-color="#1c2645" stop-opacity="0.5"/><stop offset="1" stop-color="#1c2645" stop-opacity="0"/></linearGradient><linearGradient id="Degradado_sin_nombre_14" x1="466.4" y1="4004.56" x2="334.29" y2="4004.56" gradientTransform="matrix(1, 0, 0, -1, 0, 4310)" gradientUnits="userSpaceOnUse"><stop offset="0" stop-color="#028484" stop-opacity="0.5"/><stop offset="1" stop-color="#028484" stop-opacity="0"/></linearGradient><linearGradient id="Degradado_sin_nombre_76" x1="148.94" y1="4105.1" x2="300.79" y2="3953.26" gradientTransform="matrix(1, 0, 0, -1, 0, 4310)" gradientUnits="userSpaceOnUse"><stop offset="0" stop-color="#fff" stop-opacity="0.7"/><stop offset="1" stop-color="#fff" stop-opacity="0"/><stop offset="1" stop-color="#eef7f8" stop-opacity="0.3"/></linearGradient><linearGradient id="Degradado_sin_nombre_9" x1="283.3" y1="4028.4" x2="315.18" y2="3996.52" gradientTransform="matrix(1, 0, 0, -1, 0, 4310)" gradientUnits="userSpaceOnUse"><stop offset="0" stop-color="#fff" stop-opacity="0.6"/><stop offset="1" stop-color="#fff" stop-opacity="0.1"/></linearGradient><linearGradient id="Degradado_sin_nombre_9-2" x1="127.29" y1="3982.01" x2="147.41" y2="3961.9" xlink:href="#Degradado_sin_nombre_9"/><linearGradient id="Degradado_sin_nombre_9-3" x1="460.32" y1="3977.59" x2="475.05" y2="3962.86" xlink:href="#Degradado_sin_nombre_9"/><linearGradient id="Degradado_sin_nombre_114" x1="326.11" y1="4150.05" x2="296.75" y2="4150.05" gradientTransform="matrix(1, 0, 0, -1, 0, 4310)" gradientUnits="userSpaceOnUse"><stop offset="0" stop-color="#072146" stop-opacity="0.8"/><stop offset="1" stop-color="#072146" stop-opacity="0"/></linearGradient><linearGradient id="Degradado_sin_nombre_114-2" x1="145.2" y1="4077.15" x2="115.81" y2="4077.15" xlink:href="#Degradado_sin_nombre_114"/><linearGradient id="Degradado_sin_nombre_114-3" x1="507.07" y1="4077.15" x2="477.68" y2="4077.15" xlink:href="#Degradado_sin_nombre_114"/><linearGradient id="Degradado_sin_nombre_74" x1="489.75" y1="3898.36" x2="297.58" y2="3898.36" gradientTransform="matrix(1, 0, 0, -1, 0, 4310)" gradientUnits="userSpaceOnUse"><stop offset="0" stop-color="#946e2a" stop-opacity="0.4"/><stop offset="1" stop-color="#946e2a" stop-opacity="0.1"/></linearGradient></defs><title>11</title><g id="Cuadrados_Blancos" data-name="Cuadrados Blancos"><rect class="cls-1" width="600" height="600"/></g><g id="Capa_39" data-name="Capa 39"><path class="cls-2" d="M556.28,278.66c-.06-.51-.14-1-.23-1.51v-.29c-.12-.56-.27-1.12-.43-1.67l-.15-.46c-.14-.43-.3-.85-.46-1.26l-.17-.42c-.22-.51-.46-1-.72-1.49l-.25-.44a10.69,10.69,0,0,0-.63-1c-.11-.16-.21-.33-.33-.49-.29-.43-.61-.85-.94-1.26l-.35-.4c-.24-.29-.5-.57-.76-.84l-.49-.49c-.28-.27-.57-.53-.86-.78l-.67-.55c-.3-.24-.6-.47-.92-.69l-.62-.41c-.28-.19-.56-.36-.85-.53l-.59-.34h0a20,20,0,0,0-22.68,32.58l-32.41,44-.44-.54L490,339c-.74-.92-1.5-1.83-2.27-2.73l-.63-.73c-.7-.82-1.42-1.63-2.15-2.43-.19-.2-.37-.41-.56-.62-1.85-2-3.76-4-5.75-5.88l-.52-.5c-.83-.79-1.67-1.57-2.52-2.35l-.66-.6c-.93-.83-1.86-1.66-2.82-2.47l-.28-.24q-1.65-1.41-3.36-2.77l-.11-.09c-1.05-.84-2.11-1.66-3.19-2.47l-.66-.49q-1.44-1.08-2.91-2.13l-.57-.41q-3.54-2.49-7.26-4.82l-.51-.31c-1.07-.67-2.15-1.32-3.23-2l-.71-.41c-1.17-.68-2.34-1.35-3.54-2l-.24-.13A180.85,180.85,0,0,0,394.22,284l-29.75-58.11a20,20,0,0,0,11-17.85c0-.61,0-1.22-.1-1.82a1.57,1.57,0,0,0-.05-.48c-.06-.51-.13-1-.23-1.51a.59.59,0,0,0,0-.29c-.12-.56-.26-1.12-.43-1.67a1.65,1.65,0,0,0-.15-.46c-.14-.43-.29-.85-.46-1.26l-.17-.42c-.22-.51-.46-1-.71-1.49l-.25-.44a9,9,0,0,0-.64-1l-.32-.49c-.3-.43-.61-.85-.94-1.26-.11-.13-.24-.26-.35-.4s-.5-.57-.77-.84l-.48-.49c-.28-.27-.57-.53-.86-.78l-.67-.55c-.3-.24-.61-.47-.92-.69l-.62-.42c-.28-.18-.57-.35-.86-.52l-.59-.34h0A20,20,0,0,0,346.1,225.7l.39.19L316.75,284c-40.39,8.07-74.73,28.45-96.5,55.91l-32.41-44A19.91,19.91,0,0,0,194.55,281a12.2,12.2,0,0,0-.09-1.82,1.57,1.57,0,0,0-.05-.48c-.06-.51-.14-1-.23-1.51a.59.59,0,0,0-.05-.29c-.12-.56-.27-1.12-.43-1.67l-.15-.46c-.14-.43-.3-.85-.46-1.26l-.17-.42c-.22-.51-.46-1-.72-1.49l-.25-.44a10.69,10.69,0,0,0-.63-1l-.32-.49c-.3-.43-.61-.85-.94-1.26l-.36-.4c-.24-.29-.5-.57-.76-.84s-.32-.33-.49-.49-.56-.53-.86-.78l-.66-.55c-.3-.24-.61-.47-.92-.69l-.62-.41c-.29-.19-.57-.36-.86-.53l-.59-.34h0a20,20,0,0,0-19.15,35.12l.38.2c.42.23.86.43,1.31.63l.58.25c.47.19.95.37,1.43.52l.41.12c.44.13.89.24,1.34.34l.42.1c.37.07.74.13,1.12.18.53,1.69,1.08,3.52,1.67,5.49,1.26,4.24,2.62,9.13,4,14.64q.3,1.18.6,2.4c3,12,6.06,26.66,8.72,43.87a11.51,11.51,0,0,0-.88.83,9.71,9.71,0,0,0-2.55,7.62l4.17,40.55A12.28,12.28,0,0,0,192,424.5l.77.63q.56,10.25.81,21.15h-.73a14,14,0,0,0-12.47,7.65l-8.89,17.44a3,3,0,0,0,2.68,4.36h18.69v9.44a3,3,0,0,0,3,3H515.13a3,3,0,0,0,3-3v-9.44h18.7a3,3,0,0,0,2.34-1.13,3,3,0,0,0,.33-3.23l-3.57-7-5.32-10.44a14,14,0,0,0-12.47-7.65h-.73q.24-10.9.81-21.16l.77-.62a12.28,12.28,0,0,0,4.45-8.26L527.36,378h0l.25-2.4a9.63,9.63,0,0,0-1.17-5.71,9.35,9.35,0,0,0-.63-1,9.56,9.56,0,0,0-1.62-1.74,450.7,450.7,0,0,1,15-66.43A20,20,0,0,0,556.42,281a12.2,12.2,0,0,0-.09-1.82C556.31,279,556.29,278.82,556.28,278.66Z"/><rect class="cls-3" x="142.74" y="413.94" width="325.3" height="24.88" rx="3"/><path class="cls-4" d="M466.4,359.84H145.88c0-71.19,71.75-128.91,160.26-128.91S466.4,288.65,466.4,359.84Z"/><path class="cls-5" d="M392.13,251.05,334.29,359.84H466.4C466.4,314.1,436.78,273.93,392.13,251.05Z"/><path class="cls-6" d="M481.13,236.62l-65.94,89.59a14.46,14.46,0,0,1-24.51-2L311.61,169.75H300.67L221.59,324.23a14.46,14.46,0,0,1-24.51,2l-65.94-89.59H117.2s25,59.35,27,161.33H468c2.09-102,27-161.33,27-161.33Z"/><path class="cls-7" d="M311.61,169.75H300.67L221.59,324.23a14.46,14.46,0,0,1-24.51,2l-65.94-89.59H117.2s25,59.35,27,161.33H259.56l86-161.81Z"/><path class="cls-8" d="M486.75,426.39H124.07a3,3,0,0,1-3-3,3,3,0,0,1,.34-1.4l8.88-17.44a14,14,0,0,1,12.48-7.65h325.3a14,14,0,0,1,12.48,7.65L489.42,422a3,3,0,0,1-1.27,4.05A3.08,3.08,0,0,1,486.75,426.39Z"/><path class="cls-9" d="M303.24,261.92l-21.15,41a14.52,14.52,0,0,0,0,13.36l21.15,41a3.27,3.27,0,0,0,5.8,0l21.15-41a14.52,14.52,0,0,0,0-13.36l-21.15-41a3.26,3.26,0,0,0-4.39-1.41A3.2,3.2,0,0,0,303.24,261.92Z"/><path class="cls-9" d="M474.83,317.9,453,341.9a5,5,0,0,0-.61,6l16.53,27.86.77-.63a12.28,12.28,0,0,0,4.45-8.26l4.17-40.55a9.69,9.69,0,0,0-3.43-8.44Z"/><path class="cls-9" d="M137.44,317.9l21.88,24a5,5,0,0,1,.61,6L143.4,375.78l-.77-.63a12.28,12.28,0,0,1-4.45-8.26L134,326.34a9.69,9.69,0,0,1,3.43-8.44Z"/><path class="cls-10" d="M309,261.92a3.26,3.26,0,0,0-4.39-1.41,3.2,3.2,0,0,0-1.41,1.41l-21.15,41a14.52,14.52,0,0,0,0,13.36l10.33,20,27.91-52.51Z"/><path class="cls-11" d="M137.44,317.9h0a9.69,9.69,0,0,0-3.43,8.44l3.28,31.88,13.59-25.56Z"/><path class="cls-12" d="M478.26,326.34a9.69,9.69,0,0,0-3.43-8.44L453,341.9a5,5,0,0,0-.61,6l8.16,13.76L478,328.75Z"/><circle class="cls-13" cx="306.14" cy="158.77" r="20"/><path class="cls-14" d="M306.14,178.77a20,20,0,0,0,9.38-37.65l-18.77,35.31A20,20,0,0,0,306.14,178.77Z"/><circle class="cls-13" cx="125.2" cy="231.69" r="20"/><path class="cls-15" d="M125.2,251.69A20,20,0,0,0,134.59,214l-18.78,35.31A20,20,0,0,0,125.2,251.69Z"/><circle class="cls-13" cx="487.07" cy="231.69" r="20"/><path class="cls-16" d="M487.07,251.69A20,20,0,0,0,496.46,214l-18.78,35.31A20,20,0,0,0,487.07,251.69Z"/><path class="cls-17" d="M489.42,422l-8.88-17.44a14,14,0,0,0-12.48-7.65H313.24l-15.66,29.46H486.75a3,3,0,0,0,3-3A3,3,0,0,0,489.42,422Z"/></g></svg>