<svg id="Contenido" xmlns="http://www.w3.org/2000/svg" xmlns:xlink="http://www.w3.org/1999/xlink" viewBox="0 0 600 600"><defs><style>.cls-1{fill:url(#Degradado_sin_nombre_16);}.cls-2{fill:#946e2a;}.cls-3{fill:#2dcccd;}.cls-4{fill:url(#Degradado_sin_nombre_24);}.cls-5{fill:#f8cd50;}.cls-6{fill:url(#Degradado_sin_nombre_75);}.cls-7{fill:#bc9847;}.cls-8{fill:#d4edfc;}.cls-9{fill:url(#Degradado_sin_nombre_10);}.cls-10{fill:url(#Degradado_sin_nombre_10-2);}.cls-11{fill:url(#Degradado_sin_nombre_10-3);}.cls-12{fill:#1464a5;}.cls-13{fill:url(#Degradado_sin_nombre_15);}.cls-14{fill:url(#Degradado_sin_nombre_15-2);}.cls-15{fill:url(#Degradado_sin_nombre_15-3);}.cls-16{fill:url(#Degradado_sin_nombre_5);}.cls-17{fill:none;}</style><linearGradient id="Degradado_sin_nombre_16" x1="273.83" y1="205.52" x2="444.31" y2="526.15" gradientUnits="userSpaceOnUse"><stop offset="0" stop-color="#1c2645"/><stop offset="0" stop-color="#1c2645" stop-opacity="0.5"/><stop offset="1" stop-color="#1c2645" stop-opacity="0"/></linearGradient><linearGradient id="Degradado_sin_nombre_24" x1="466.4" y1="305.44" x2="334.29" y2="305.44" gradientUnits="userSpaceOnUse"><stop offset="0" stop-color="#028484" stop-opacity="0.5"/><stop offset="1" stop-color="#028484" stop-opacity="0"/></linearGradient><linearGradient id="Degradado_sin_nombre_75" x1="148.95" y1="204.88" x2="300.79" y2="356.72" gradientUnits="userSpaceOnUse"><stop offset="0" stop-color="#fff" stop-opacity="0.7"/><stop offset="1" stop-color="#fff" stop-opacity="0"/><stop offset="1" stop-color="#eef7f8" stop-opacity="0.3"/></linearGradient><linearGradient id="Degradado_sin_nombre_10" x1="283.33" y1="281.61" x2="315.23" y2="313.51" gradientUnits="userSpaceOnUse"><stop offset="0" stop-color="#fff" stop-opacity="0.6"/><stop offset="1" stop-color="#fff" stop-opacity="0.1"/></linearGradient><linearGradient id="Degradado_sin_nombre_10-2" x1="127.29" y1="327.99" x2="147.41" y2="348.1" xlink:href="#Degradado_sin_nombre_10"/><linearGradient id="Degradado_sin_nombre_10-3" x1="460.32" y1="332.41" x2="475.05" y2="347.14" xlink:href="#Degradado_sin_nombre_10"/><linearGradient id="Degradado_sin_nombre_15" x1="326.14" y1="159.95" x2="296.75" y2="159.95" gradientUnits="userSpaceOnUse"><stop offset="0" stop-color="#043263" stop-opacity="0.5"/><stop offset="1" stop-color="#043263" stop-opacity="0"/></linearGradient><linearGradient id="Degradado_sin_nombre_15-2" x1="145.2" y1="232.87" x2="115.81" y2="232.87" xlink:href="#Degradado_sin_nombre_15"/><linearGradient id="Degradado_sin_nombre_15-3" x1="507.07" y1="232.87" x2="477.68" y2="232.87" xlink:href="#Degradado_sin_nombre_15"/><linearGradient id="Degradado_sin_nombre_5" x1="489.75" y1="411.66" x2="297.58" y2="411.66" gradientUnits="userSpaceOnUse"><stop offset="0" stop-color="#946e2a" stop-opacity="0.4"/><stop offset="1" stop-color="#946e2a" stop-opacity="0.1"/></linearGradient></defs><title>-</title><path class="cls-1" d="M556.28,278.66c-.06-.51-.14-1-.23-1.51,0-.1,0-.19,0-.29-.12-.56-.27-1.12-.43-1.67l-.15-.46c-.14-.43-.3-.85-.46-1.26l-.17-.42c-.22-.51-.46-1-.72-1.49l-.25-.44c-.2-.35-.41-.7-.63-1-.11-.16-.21-.33-.33-.49-.29-.43-.61-.85-.94-1.26l-.35-.4c-.24-.29-.5-.57-.76-.84l-.49-.49c-.28-.27-.57-.53-.86-.78l-.67-.55c-.3-.24-.6-.47-.92-.69l-.62-.41c-.28-.19-.56-.36-.85-.53l-.59-.34h0a20,20,0,0,0-22.68,32.58l-32.41,44-.44-.54L490,339c-.74-.92-1.5-1.83-2.27-2.73l-.63-.73c-.7-.82-1.42-1.63-2.15-2.43-.19-.2-.37-.41-.56-.62-1.85-2-3.76-4-5.75-5.88l-.52-.5c-.83-.79-1.67-1.57-2.52-2.35l-.66-.6c-.93-.83-1.86-1.66-2.82-2.47l-.28-.24q-1.65-1.41-3.36-2.77l-.11-.09c-1.05-.84-2.11-1.66-3.19-2.47l-.66-.49q-1.44-1.08-2.91-2.13l-.57-.41q-3.54-2.49-7.26-4.82l-.51-.31c-1.07-.67-2.15-1.32-3.23-2l-.71-.41c-1.17-.68-2.34-1.35-3.54-2l-.24-.13A180.79,180.79,0,0,0,394.22,284l-29.75-58.11a20,20,0,0,0,11-17.85,18.16,18.16,0,0,0-.1-1.82c0-.16,0-.32-.05-.48-.06-.51-.13-1-.23-1.51,0-.1,0-.19-.05-.29-.12-.56-.26-1.12-.43-1.67,0-.15-.1-.31-.15-.46-.14-.43-.29-.85-.46-1.26l-.17-.42c-.22-.51-.46-1-.71-1.49l-.25-.44c-.2-.35-.41-.7-.64-1l-.32-.49c-.3-.43-.61-.85-.94-1.26-.11-.13-.24-.26-.35-.4s-.5-.57-.77-.84l-.48-.49c-.28-.27-.57-.53-.86-.78l-.67-.55c-.3-.24-.61-.47-.92-.69l-.62-.42c-.28-.18-.57-.35-.86-.52l-.59-.34h0A20,20,0,0,0,346.1,225.7l.39.19L316.75,284c-40.39,8.07-74.73,28.45-96.5,55.91l-32.41-44A19.94,19.94,0,0,0,194.55,281c0-.62,0-1.22-.09-1.82,0-.16,0-.32-.05-.48-.06-.51-.14-1-.23-1.51,0-.1,0-.19-.05-.29-.12-.56-.27-1.12-.43-1.67l-.15-.46c-.14-.43-.3-.85-.46-1.26l-.17-.42c-.22-.51-.46-1-.72-1.49l-.25-.44c-.2-.35-.41-.7-.63-1l-.32-.49c-.3-.43-.61-.85-.94-1.26l-.36-.4c-.24-.29-.5-.57-.76-.84s-.32-.33-.49-.49-.56-.53-.86-.78l-.66-.55c-.3-.24-.61-.47-.92-.69l-.62-.41c-.29-.19-.57-.36-.86-.53l-.59-.34h0a20,20,0,1,0-18.77,35.32c.42.23.86.43,1.31.63l.58.25c.47.19.95.37,1.43.52l.41.12c.44.13.89.24,1.34.34l.42.1c.37.07.74.13,1.12.18q.79,2.53,1.67,5.49c1.26,4.24,2.62,9.13,4,14.64q.3,1.19.6,2.4c3,12,6.06,26.66,8.72,43.87a11.51,11.51,0,0,0-.88.83,9.74,9.74,0,0,0-2.55,7.62l4.17,40.55a12.28,12.28,0,0,0,4.45,8.26l.77.63q.56,10.24.81,21.15h-.73a14,14,0,0,0-12.47,7.65l-8.89,17.44a3,3,0,0,0,2.68,4.36h18.69v9.44a3,3,0,0,0,3,3H515.13a3,3,0,0,0,3-3v-9.44h18.7a3,3,0,0,0,2.34-1.13,3,3,0,0,0,.65-2.09,3.06,3.06,0,0,0-.32-1.14l-3.57-7-5.32-10.44a14,14,0,0,0-12.47-7.65h-.73q.24-10.9.81-21.16l.77-.62a12.28,12.28,0,0,0,4.45-8.26L527.36,378h0l.25-2.4a9.69,9.69,0,0,0-1.17-5.71,10.33,10.33,0,0,0-.63-1,9.53,9.53,0,0,0-1.62-1.74,450.77,450.77,0,0,1,15-66.43A20,20,0,0,0,556.42,281c0-.62,0-1.22-.09-1.82C556.31,279,556.29,278.82,556.28,278.66Z"/><rect class="cls-2" x="142.74" y="413.94" width="325.3" height="24.88" rx="3"/><path class="cls-3" d="M466.4,359.84H145.88c0-71.19,71.75-128.91,160.26-128.91S466.4,288.65,466.4,359.84Z"/><path class="cls-4" d="M392.13,251.05,334.29,359.84H466.4C466.4,314.1,436.78,273.93,392.13,251.05Z"/><path class="cls-5" d="M481.13,236.62l-65.94,89.59a14.46,14.46,0,0,1-24.51-2L311.61,169.75H300.67L221.59,324.23a14.46,14.46,0,0,1-24.51,2l-65.94-89.59H117.2s25,59.35,27,161.33H468c2.09-102,27-161.33,27-161.33Z"/><path class="cls-6" d="M311.61,169.75H300.67L221.59,324.23a14.46,14.46,0,0,1-24.51,2l-65.94-89.59H117.2s25,59.35,27,161.33H259.56l86-161.81Z"/><path class="cls-7" d="M486.75,426.39H124.07A3,3,0,0,1,121.4,422l8.88-17.44a14,14,0,0,1,12.48-7.65h325.3a14,14,0,0,1,12.48,7.65L489.42,422A3,3,0,0,1,486.75,426.39Z"/><path class="cls-8" d="M303.24,261.92l-21.15,41a14.52,14.52,0,0,0,0,13.36l21.15,41a3.27,3.27,0,0,0,5.8,0l21.15-41a14.52,14.52,0,0,0,0-13.36l-21.15-41A3.26,3.26,0,0,0,303.24,261.92Z"/><path class="cls-8" d="M474.83,317.9l-21.88,24a5,5,0,0,0-.61,6l16.53,27.86.77-.63a12.28,12.28,0,0,0,4.45-8.26l4.17-40.55a9.69,9.69,0,0,0-3.43-8.44Z"/><path class="cls-8" d="M137.44,317.9l21.88,24a5,5,0,0,1,.61,6L143.4,375.78l-.77-.63a12.28,12.28,0,0,1-4.45-8.26L134,326.34a9.69,9.69,0,0,1,3.43-8.44Z"/><path class="cls-9" d="M309,261.92a3.26,3.26,0,0,0-5.8,0l-21.15,41a14.52,14.52,0,0,0,0,13.36l10.33,20,27.91-52.51Z"/><path class="cls-10" d="M137.44,317.9h0a9.69,9.69,0,0,0-3.43,8.44l3.28,31.88,13.59-25.56Z"/><path class="cls-11" d="M478.26,326.34a9.69,9.69,0,0,0-3.43-8.44l-21.88,24a5,5,0,0,0-.61,6l8.16,13.76L478,328.75Z"/><circle class="cls-12" cx="306.14" cy="158.77" r="20"/><path class="cls-13" d="M306.14,178.77a20,20,0,0,0,9.38-37.65l-18.77,35.31A19.91,19.91,0,0,0,306.14,178.77Z"/><circle class="cls-12" cx="125.2" cy="231.69" r="20"/><path class="cls-14" d="M125.2,251.69A20,20,0,0,0,134.59,214l-18.78,35.31A19.94,19.94,0,0,0,125.2,251.69Z"/><circle class="cls-12" cx="487.07" cy="231.69" r="20"/><path class="cls-15" d="M487.07,251.69A20,20,0,0,0,496.46,214l-18.78,35.31A19.94,19.94,0,0,0,487.07,251.69Z"/><path class="cls-16" d="M489.42,422l-8.88-17.44a14,14,0,0,0-12.48-7.65H313.24l-15.66,29.46H486.75A3,3,0,0,0,489.42,422Z"/><rect class="cls-17" width="600" height="600"/></svg>