<?xml version="1.0" encoding="utf-8"?>
<!-- Generator: Adobe Illustrator 24.0.1, SVG Export Plug-In . SVG Version: 6.00 Build 0)  -->
<svg version="1.1" id="Capa_1" xmlns="http://www.w3.org/2000/svg" xmlns:xlink="http://www.w3.org/1999/xlink" x="0px" y="0px"
	 viewBox="0 0 600 600" style="enable-background:new 0 0 600 600;" xml:space="preserve">
<style type="text/css">
	.st0{fill:url(#Oval_9_);}
	.st1{fill:#1464A5;}
	.st2{fill:url(#Path_12_);}
	.st3{fill:#2DCCCD;}
	.st4{fill:#FFCC28;}
	.st5{fill:url(#Oval_10_);}
	.st6{fill:url(#Path_13_);}
	.st7{fill:#20B4FF;}
	.st8{fill:url(#Oval_11_);}
	.st9{fill:url(#Path_14_);}
	.st10{fill:#FFFFFF;}
	.st11{fill:#00D0CF;}
	.st12{fill:#003267;}
</style>
<g>
	
		<linearGradient id="Oval_9_" gradientUnits="userSpaceOnUse" x1="2.7831" y1="599.5144" x2="4.094" y2="597.0491" gradientTransform="matrix(102.6913 0 0 -102.6913 -26.5439 61762.4336)">
		<stop  offset="0" style="stop-color:#142649;stop-opacity:0.5"/>
		<stop  offset="1" style="stop-color:#142649;stop-opacity:0"/>
	</linearGradient>
	<circle id="Oval" class="st0" cx="328.2" cy="327.3" r="115"/>
	<circle id="Oval_1_" class="st1" cx="304.8" cy="294.4" r="115"/>
	
		<linearGradient id="Path_12_" gradientUnits="userSpaceOnUse" x1="5.3342" y1="598.2691" x2="3.0946" y2="598.2691" gradientTransform="matrix(75.3334 0 0 -97.1404 17.5018 58417.625)">
		<stop  offset="0" style="stop-color:#043263;stop-opacity:0.6"/>
		<stop  offset="1" style="stop-color:#043263;stop-opacity:0"/>
	</linearGradient>
	<path id="Path" class="st2" d="M358.4,192.7l-107.8,204c56,30,125.5,8.6,155.3-47.8S414.4,222.7,358.4,192.7z"/>
	<path id="Path_1_" class="st3" d="M254.5,332.1c-2.7,0-5.2-1.5-6.3-3.9c-6.9-14.7-10.1-27.2-10.1-39.4c0-14.6,5.5-28.6,15.4-39.6
		c1.6-1.8,4-2.7,6.5-2.3c2.4,0.4,4.4,2,5.3,4.2c0.8,2.2,0.4,4.7-1.2,6.5l-0.2,0.2c-7.8,8.6-12,19.6-12,31c0,10.2,2.8,21,8.9,33.9
		c1.6,3.3,0,7.2-3.4,8.7C256.4,331.9,255.5,332.1,254.5,332.1L254.5,332.1z"/>
	<path id="Path_2_" class="st3" d="M353.1,295.7c-3.7,0-6.7-3-6.7-6.7c0-26.6-21.5-48.2-47.9-48.2c-7.4,0-14.6,1.7-21.2,5
		c-2.1,1.1-4.7,1-6.7-0.3c-2-1.3-3.2-3.6-3.1-6c0.1-2.4,1.5-4.6,3.6-5.7l0.3-0.1c8.4-4.2,17.7-6.4,27.2-6.4
		c33.9,0,61.3,27.6,61.3,61.6C359.8,292.7,356.8,295.7,353.1,295.7z"/>
	<path id="Path_3_" class="st3" d="M276.7,345.5h-0.2c-3.7-0.1-6.6-3.1-6.5-6.8c0.4-14.6-1.5-22.2-3.3-29.5
		c-1.4-5.7-2.8-11.1-2.8-18.6c0-11.5,5.6-22.3,15.1-29c1.9-1.4,4.5-1.7,6.7-0.8c2.2,1,3.7,3,4,5.4c0.2,2.4-0.8,4.7-2.8,6.1l-0.1,0.1
		c-5.9,4.2-9.5,11-9.5,18.2c0,6,1.1,10.1,2.4,15.4c1.9,7.4,4.2,16.6,3.8,33.1C283.2,342.6,280.3,345.5,276.7,345.5L276.7,345.5z"/>
	<path id="Path_4_" class="st3" d="M327.6,342.8h-0.7c-1.8-0.2-3.4-1-4.5-2.4c-1.1-1.4-1.7-3.1-1.5-4.9l0,0
		c1.6-16.3,1.5-32.7,1.4-42.4v-4.1c0-11.6-8.7-21.3-20.3-22.5c-2.4-0.2-4.5-1.7-5.5-3.8c-1-2.2-0.8-4.7,0.6-6.7c1.4-2,3.7-3,6.1-2.8
		h0.3c18.4,1.9,32.4,17.3,32.4,35.8v4c0.1,10,0.2,26.8-1.5,43.8C334,340.1,331.1,342.8,327.6,342.8L327.6,342.8z"/>
	<path id="Path_5_" class="st3" d="M303.8,361.4c-3.9,0-7.1-2.9-7.1-6.6v-17.9c0-3.6,3.2-6.6,7.1-6.6c3.9,0,7.1,2.9,7.1,6.6v17.9
		C310.9,358.5,307.8,361.4,303.8,361.4L303.8,361.4z"/>
	<path id="Path_6_" class="st3" d="M302.5,321.5c-3.5,0-6.4-2.7-6.7-6.1c-1-14.6-3.4-23.9-3.4-24c-0.8-3.5,1.3-6.9,4.8-7.8
		c3.5-0.9,7.1,1.1,8.1,4.6c0.1,0.4,2.7,10.5,3.8,26.5c0.1,1.7-0.5,3.4-1.6,4.7c-1.2,1.3-2.8,2.1-4.6,2.2H302.5z"/>
	<path id="Path-Copy-9" class="st4" d="M105.1,209c-4.6,0-8.2-3.7-8.2-8.2v-76.6c0-4.6,3.7-8.2,8.2-8.2h76.6c4.6,0,8.2,3.7,8.2,8.2
		c0,4.6-3.7,8.2-8.2,8.2h-68.4v68.4C113.3,205.3,109.6,209,105.1,209L105.1,209z"/>
	<path id="Path-Copy-10" class="st4" d="M504.2,209c-4.6,0-8.2-3.7-8.2-8.2v-68.4h-68.4c-4.6,0-8.2-3.7-8.2-8.2
		c0-4.6,3.7-8.2,8.2-8.2h76.6c4.6,0,8.2,3.7,8.2,8.2v76.6c0,2.2-0.9,4.3-2.4,5.8C508.4,208.2,506.3,209,504.2,209L504.2,209z"/>
	<path id="Path-Copy-11" class="st4" d="M504.2,475.4h-76.6c-4.6,0-8.2-3.7-8.2-8.2c0-4.6,3.7-8.2,8.2-8.2h68.4v-68.4
		c0-4.6,3.7-8.2,8.2-8.2c4.6,0,8.2,3.7,8.2,8.2v76.6c0,2.2-0.9,4.3-2.4,5.8S506.3,475.4,504.2,475.4L504.2,475.4z"/>
	<path id="Path-Copy-12" class="st4" d="M181.7,475.4h-76.6c-4.6,0-8.2-3.7-8.2-8.2v-76.6c0-4.6,3.7-8.2,8.2-8.2s8.2,3.7,8.2,8.2
		v68.4h68.4c4.6,0,8.2,3.7,8.2,8.2C189.9,471.7,186.3,475.4,181.7,475.4L181.7,475.4z"/>
	<g id="access_biometria-copy-3" transform="translate(176.048780, 59.276423)">
		
			<linearGradient id="Oval_10_" gradientUnits="userSpaceOnUse" x1="-169.781" y1="538.5502" x2="-168.4701" y2="536.0848" gradientTransform="matrix(56.4011 0 0 -56.4011 9881.7334 30555.4121)">
			<stop  offset="0" style="stop-color:#142649;stop-opacity:0.5"/>
			<stop  offset="1" style="stop-color:#142649;stop-opacity:0"/>
		</linearGradient>
		<circle id="Oval_2_" class="st5" cx="343.8" cy="251.9" r="63.2"/>
		<circle id="Oval_3_" class="st1" cx="327.6" cy="233.8" r="63.2"/>
		
			<linearGradient id="Path_13_" gradientUnits="userSpaceOnUse" x1="-166.0201" y1="537.1922" x2="-168.2596" y2="537.1922" gradientTransform="matrix(41.4536 0 0 -53.1183 7272.9355 28772.3223)">
			<stop  offset="0" style="stop-color:#003267;stop-opacity:0.6"/>
			<stop  offset="1" style="stop-color:#003267;stop-opacity:0"/>
		</linearGradient>
		<path id="Path_7_" class="st6" d="M357.3,178.1L298,289.7c30.8,16.4,69.1,4.7,85.4-26.1C399.8,232.7,388.1,194.5,357.3,178.1z"/>
		<circle id="Oval_4_" class="st7" cx="327.6" cy="219.7" r="15.9"/>
		<path id="Path_8_" class="st7" d="M313.9,239.4h27.4c7.3,0,13.1,5.9,13.1,13.1v11.6c0,0.6-0.5,1.1-1.1,1.1h-51.5
			c-0.6,0-1.1-0.5-1.1-1.1v-11.6C300.7,245.3,306.6,239.4,313.9,239.4L313.9,239.4z"/>
	</g>
	<g id="access_x5F_iris-_x28_1_x29_-copy-3" transform="translate(0.048780, 59.439024)">
		
			<linearGradient id="Oval_11_" gradientUnits="userSpaceOnUse" x1="2.3476" y1="538.3876" x2="3.6585" y2="535.9222" gradientTransform="matrix(56.4011 0 0 -56.4011 -45.0037 30546.0781)">
			<stop  offset="0" style="stop-color:#142649;stop-opacity:0.5"/>
			<stop  offset="1" style="stop-color:#142649;stop-opacity:0"/>
		</linearGradient>
		<circle id="Oval_5_" class="st8" cx="125.3" cy="251.7" r="63.2"/>
		<circle id="Oval_6_" class="st1" cx="109.1" cy="233.7" r="63.2"/>
		
			<linearGradient id="Path_14_" gradientUnits="userSpaceOnUse" x1="4.7132" y1="537.0293" x2="2.4736" y2="537.0293" gradientTransform="matrix(41.4536 0 0 -53.1183 -23.0302 28763.5352)">
			<stop  offset="0" style="stop-color:#003267;stop-opacity:0.6"/>
			<stop  offset="1" style="stop-color:#003267;stop-opacity:0"/>
		</linearGradient>
		<path id="Path_9_" class="st9" d="M138.8,178L79.5,289.5c30.8,16.4,69.1,4.7,85.4-26.1S169.6,194.3,138.8,178z"/>
		<path id="Path_10_" class="st10" d="M109.1,214.1c-13.6,0-25.6,7.7-32.5,19.3c-0.1,0.2-0.1,0.5,0,0.7c7,11.6,18.9,19.3,32.5,19.3
			s25.6-7.7,32.5-19.3c0.1-0.2,0.1-0.5,0-0.7C134.7,221.7,122.7,214.1,109.1,214.1z"/>
		<circle id="Oval_7_" class="st11" cx="109.1" cy="233.7" r="16.4"/>
		<path id="Path_11_" class="st11" d="M116.8,219.2l-15.4,28.9c8,4.2,17.9,1.2,22.1-6.8C127.8,233.4,124.8,223.5,116.8,219.2z"/>
		<circle id="Oval_8_" class="st12" cx="109.1" cy="233.7" r="7.6"/>
	</g>
</g>
</svg>
