<svg xmlns="http://www.w3.org/2000/svg" xmlns:xlink="http://www.w3.org/1999/xlink" viewBox="0 0 600 600"><defs><style>.cls-1{fill:none;}.cls-2{fill:url(#Degradado_sin_nombre_20);}.cls-3{fill:#043263;}.cls-4{fill:url(#Degradado_sin_nombre_17);}.cls-5{fill:#2dcccd;}.cls-6{fill:#ffcc28;}.cls-7{fill:url(#Degradado_sin_nombre_20-2);}.cls-8{fill:url(#Degradado_sin_nombre_17-2);}.cls-9{fill:#20b4ff;}.cls-10{fill:url(#Degradado_sin_nombre_20-3);}.cls-11{fill:url(#Degradado_sin_nombre_17-3);}.cls-12{fill:#fff;}.cls-13{fill:#00d0cf;}.cls-14{fill:#003267;}</style><linearGradient id="Degradado_sin_nombre_20" x1="-497.3" y1="-3700.58" x2="-495.99" y2="-3703.04" gradientTransform="matrix(102.69, 0, 0, -102.69, 51327.18, -379814.67)" gradientUnits="userSpaceOnUse"><stop offset="0" stop-color="#142649" stop-opacity="0.5"/><stop offset="1" stop-color="#142649" stop-opacity="0"/></linearGradient><linearGradient id="Degradado_sin_nombre_17" x1="-492.96" y1="-3704.28" x2="-495.2" y2="-3704.28" gradientTransform="matrix(75.33, 0, 0, -97.14, 37554.87, -359532.59)" gradientUnits="userSpaceOnUse"><stop offset="0" stop-color="#072146"/><stop offset="1" stop-color="#072146" stop-opacity="0"/></linearGradient><linearGradient id="Degradado_sin_nombre_20-2" x1="-665.83" y1="-3796.91" x2="-664.52" y2="-3799.37" gradientTransform="matrix(56.4, 0, 0, -56.4, 38035.01, -213905.77)" xlink:href="#Degradado_sin_nombre_20"/><linearGradient id="Degradado_sin_nombre_17-2" x1="-658.84" y1="-3803.11" x2="-661.08" y2="-3803.11" gradientTransform="matrix(41.45, 0, 0, -53.12, 27876.99, -201724.24)" xlink:href="#Degradado_sin_nombre_17"/><linearGradient id="Degradado_sin_nombre_20-3" x1="-493.7" y1="-3797.07" x2="-492.39" y2="-3799.54" gradientTransform="matrix(56.4, 0, 0, -56.4, 27932.28, -213914.94)" xlink:href="#Degradado_sin_nombre_20"/><linearGradient id="Degradado_sin_nombre_17-3" x1="-488.11" y1="-3803.27" x2="-490.35" y2="-3803.27" gradientTransform="matrix(41.45, 0, 0, -53.12, 20405.03, -201732.87)" xlink:href="#Degradado_sin_nombre_17"/></defs><g id="Cuadrados_Blancos" data-name="Cuadrados Blancos"><rect class="cls-1" width="600" height="600"/></g><g id="Capa_31" data-name="Capa 31"><circle id="Oval" class="cls-2" cx="328.2" cy="327.3" r="115"/><circle id="Oval-2" class="cls-3" cx="304.8" cy="294.4" r="115"/><path id="Path" class="cls-4" d="M358.4,192.7l-107.8,204c56,30,125.5,8.6,155.3-47.8S414.4,222.7,358.4,192.7Z"/><path id="Path-2" class="cls-5" d="M254.5,332.1a6.89,6.89,0,0,1-6.3-3.9c-6.9-14.7-10.1-27.2-10.1-39.4a59.15,59.15,0,0,1,15.4-39.6,7.14,7.14,0,0,1,6.5-2.3,7,7,0,0,1,5.3,4.2,6.43,6.43,0,0,1-1.2,6.5l-.2.2a46,46,0,0,0-12,31c0,10.2,2.8,21,8.9,33.9a6.47,6.47,0,0,1-3.15,8.59l-.25.11a6.12,6.12,0,0,1-2.9.7Z"/><path id="Path-3" class="cls-5" d="M353.1,295.7a6.7,6.7,0,0,1-6.7-6.7h0a48.09,48.09,0,0,0-47.9-48.2,47.14,47.14,0,0,0-21.2,5,6.69,6.69,0,0,1-6.7-.3,6.79,6.79,0,0,1,.5-11.7l.3-.1a60.72,60.72,0,0,1,27.2-6.4,61.44,61.44,0,0,1,61.3,61.58v0A6.87,6.87,0,0,1,353.1,295.7Z"/><path id="Path-4" class="cls-5" d="M276.7,345.5h-.2a6.61,6.61,0,0,1-6.5-6.74v-.06a95.64,95.64,0,0,0-3.3-29.5c-1.4-5.7-2.8-11.1-2.8-18.6a35.47,35.47,0,0,1,15.1-29,7,7,0,0,1,6.7-.8,6.81,6.81,0,0,1,4,5.4,6.68,6.68,0,0,1-2.8,6.1l-.1.1a22.49,22.49,0,0,0-9.5,18.2c0,6,1.1,10.1,2.4,15.4a107.53,107.53,0,0,1,3.8,33.1,6.94,6.94,0,0,1-6.8,6.4Z"/><path id="Path-5" class="cls-5" d="M327.6,342.8h-.7a6.49,6.49,0,0,1-4.5-2.4,6.69,6.69,0,0,1-1.5-4.9h0a400,400,0,0,0,1.4-42.4V289A22.58,22.58,0,0,0,302,266.5a6.66,6.66,0,0,1-6.11-7.17A6.57,6.57,0,0,1,297.1,256a6.68,6.68,0,0,1,6.1-2.8h.3A36,36,0,0,1,335.9,289v4a405.22,405.22,0,0,1-1.5,43.8A6.9,6.9,0,0,1,327.6,342.8Z"/><path id="Path-6" class="cls-5" d="M303.8,361.4a6.85,6.85,0,0,1-7.1-6.57V336.9a7.12,7.12,0,0,1,14.2,0v17.9a6.79,6.79,0,0,1-6.95,6.61Z"/><path id="Path-7" class="cls-5" d="M302.5,321.5a6.73,6.73,0,0,1-6.7-6.1,149.48,149.48,0,0,0-3.4-24,6.5,6.5,0,0,1,4.8-7.8,6.66,6.66,0,0,1,8.1,4.6,159,159,0,0,1,3.8,26.5,6.48,6.48,0,0,1-6.06,6.89h-.54Z"/><path id="Path-Copy-9" class="cls-6" d="M105.1,209a8.17,8.17,0,0,1-8.2-8.14V124.2A8.17,8.17,0,0,1,105,116H181.7a8.2,8.2,0,1,1,0,16.4H113.3v68.4a8.24,8.24,0,0,1-8.2,8.2Z"/><path id="Path-Copy-10" class="cls-6" d="M504.2,209a8.17,8.17,0,0,1-8.2-8.14V132.4H427.6a8.2,8.2,0,0,1,0-16.4h76.6a8.17,8.17,0,0,1,8.2,8.14V200.8a8.19,8.19,0,0,1-8.18,8.2Z"/><path id="Path-Copy-11" class="cls-6" d="M504.2,475.4H427.6a8.2,8.2,0,0,1,0-16.4H496V390.6a8.2,8.2,0,1,1,16.4,0v76.6A8.25,8.25,0,0,1,510,473,8.4,8.4,0,0,1,504.2,475.4Z"/><path id="Path-Copy-12" class="cls-6" d="M181.7,475.4H105.1a8.17,8.17,0,0,1-8.2-8.14V390.6a8.2,8.2,0,0,1,16.4,0V459h68.4a8.2,8.2,0,1,1,0,16.4Z"/><g id="access_biometria-copy-3" data-name="access biometria-copy-3"><circle id="Oval-3" class="cls-7" cx="519.85" cy="311.18" r="63.2"/><circle id="Oval-4" class="cls-3" cx="503.65" cy="293.08" r="63.2" transform="translate(-59.72 441.98) rotate(-45)"/><path id="Path-8" class="cls-8" d="M533.35,237.38,474.05,349a63.19,63.19,0,0,0,59.3-111.6Z"/><circle id="Oval-5" class="cls-9" cx="503.65" cy="278.98" r="15.9"/><path id="Path-9" class="cls-9" d="M490,298.68h27.4a13.08,13.08,0,0,1,13.1,13.06v11.64a1.11,1.11,0,0,1-1.1,1.1H477.9a1.11,1.11,0,0,1-1.1-1.1v-11.6a13.17,13.17,0,0,1,13.2-13.1Z"/></g><g id="access_iris-_1_-copy-3" data-name="access iris- 1 -copy-3"><circle id="Oval-6" class="cls-10" cx="125.35" cy="311.14" r="63.2"/><circle id="Oval-7" class="cls-3" cx="109.15" cy="293.14" r="63.2"/><path id="Path-10" class="cls-11" d="M138.85,237.44l-59.3,111.5a63.14,63.14,0,1,0,59.3-111.5Z"/><path id="Path-11" class="cls-12" d="M109.15,273.54c-13.6,0-25.6,7.7-32.5,19.3a.85.85,0,0,0,0,.7c7,11.6,18.9,19.3,32.5,19.3s25.6-7.7,32.5-19.3a.85.85,0,0,0,0-.7C134.75,281.14,122.75,273.54,109.15,273.54Z"/><circle id="Oval-8" class="cls-13" cx="109.15" cy="293.14" r="16.4"/><path id="Path-12" class="cls-13" d="M116.85,278.64l-15.4,28.9a16.37,16.37,0,0,0,15.4-28.9Z"/><circle id="Oval-9" class="cls-14" cx="109.15" cy="293.14" r="7.6"/></g></g></svg>