<svg xmlns="http://www.w3.org/2000/svg" xmlns:xlink="http://www.w3.org/1999/xlink" viewBox="0 0 600 600"><defs><style>.cls-1{fill:none;}.cls-2{fill:url(#Degradado_sin_nombre_42);}.cls-3{fill:#043263;}.cls-4{fill:#1464a5;}.cls-5{fill:url(#Degradado_sin_nombre_165);}.cls-6{fill:#49a5e6;}.cls-7{fill:url(#Degradado_sin_nombre_164);}.cls-8{fill:#f8cd50;}.cls-9{fill:url(#Degradado_sin_nombre_166);}.cls-10{fill:url(#Degradado_sin_nombre_165-2);}.cls-11{fill:url(#Degradado_sin_nombre_164-2);}.cls-12{fill:url(#Degradado_sin_nombre_166-2);}.cls-13{fill:url(#Degradado_sin_nombre_165-3);}.cls-14{fill:url(#Degradado_sin_nombre_164-3);}.cls-15{fill:#da3951;}.cls-16{fill:url(#Degradado_sin_nombre_164-4);}</style><linearGradient id="Degradado_sin_nombre_42" x1="240.62" y1="448.17" x2="446" y2="61.92" gradientTransform="matrix(1, 0, 0, -1, 0, 602)" gradientUnits="userSpaceOnUse"><stop offset="0" stop-color="#192647" stop-opacity="0.5"/><stop offset="1" stop-color="#192647" stop-opacity="0"/></linearGradient><linearGradient id="Degradado_sin_nombre_165" x1="445.47" y1="181.87" x2="216.5" y2="181.87" gradientTransform="matrix(1, 0, 0, -1, 0, 602)" gradientUnits="userSpaceOnUse"><stop offset="0" stop-color="#043263" stop-opacity="0.5"/><stop offset="1" stop-color="#043263" stop-opacity="0.1"/></linearGradient><linearGradient id="Degradado_sin_nombre_164" x1="-14022.87" y1="2487.44" x2="-13990.08" y2="2487.44" gradientTransform="matrix(-1, 0, 0, 1, -13791.57, -2066)" gradientUnits="userSpaceOnUse"><stop offset="0" stop-color="#043263" stop-opacity="0.2"/><stop offset="1" stop-color="#043263" stop-opacity="0"/></linearGradient><linearGradient id="Degradado_sin_nombre_166" x1="329.59" y1="216.13" x2="339.82" y2="205.9" gradientTransform="matrix(1, 0, 0, -1, 0, 602)" gradientUnits="userSpaceOnUse"><stop offset="0.01" stop-color="#fff" stop-opacity="0.5"/><stop offset="1" stop-color="#fff" stop-opacity="0.1"/></linearGradient><linearGradient id="Degradado_sin_nombre_165-2" x1="445.47" y1="299.66" x2="278.96" y2="299.66" xlink:href="#Degradado_sin_nombre_165"/><linearGradient id="Degradado_sin_nombre_164-2" x1="-14022.87" y1="2369.64" x2="-13990.08" y2="2369.64" xlink:href="#Degradado_sin_nombre_164"/><linearGradient id="Degradado_sin_nombre_166-2" x1="329.59" y1="333.92" x2="339.82" y2="323.69" xlink:href="#Degradado_sin_nombre_166"/><linearGradient id="Degradado_sin_nombre_165-3" x1="445.47" y1="417.46" x2="341.43" y2="417.46" xlink:href="#Degradado_sin_nombre_165"/><linearGradient id="Degradado_sin_nombre_164-3" x1="-14022.87" y1="2251.85" x2="-13990.08" y2="2251.85" xlink:href="#Degradado_sin_nombre_164"/><linearGradient id="Degradado_sin_nombre_164-4" x1="-13848.88" y1="2573.77" x2="-13835.21" y2="2573.77" gradientTransform="matrix(-1, 0, 0, 1, -13501.57, -2416)" xlink:href="#Degradado_sin_nombre_164"/></defs><title>5</title><g id="Cuadrados_blancos" data-name="Cuadrados blancos"><rect class="cls-1" width="600" height="600"/></g><g id="Capa_16" data-name="Capa 16"><path class="cls-2" d="M454.86,290.74v-8H484.3A10.7,10.7,0,0,0,495,272V186.33a10.7,10.7,0,0,0-10.71-10.71h-282a10.7,10.7,0,0,0-10.7,10.71V272a10.7,10.7,0,0,0,10.7,10.7h29.45v8a2.68,2.68,0,0,0,2.68,2.67H202.31a10.71,10.71,0,0,0-10.7,10.71v85.67a10.71,10.71,0,0,0,10.7,10.71h29.45v8a2.68,2.68,0,0,0,2.68,2.68H202.31a10.7,10.7,0,0,0-10.7,10.7v85.67a10.7,10.7,0,0,0,10.7,10.71h29.45v8a2.68,2.68,0,0,0,2.68,2.68h30.34a2.68,2.68,0,0,0,2.68-2.68v-8h151.7v8a2.68,2.68,0,0,0,2.68,2.68h30.34a2.68,2.68,0,0,0,2.68-2.68v-8H484.3A10.7,10.7,0,0,0,495,507.58V421.91a10.7,10.7,0,0,0-10.71-10.7H452.18a2.68,2.68,0,0,0,2.68-2.68v-8H484.3A10.71,10.71,0,0,0,495,389.79V304.12a10.71,10.71,0,0,0-10.71-10.71H452.18A2.68,2.68,0,0,0,454.86,290.74Zm-33,120.47H264.78a2.68,2.68,0,0,0,2.68-2.68v-8h151.7v8A2.68,2.68,0,0,0,421.84,411.21ZM264.78,293.41a2.68,2.68,0,0,0,2.68-2.67v-8h151.7v8a2.68,2.68,0,0,0,2.68,2.67Z"/><rect class="cls-3" x="150.99" y="366.59" width="303.41" height="107.09" rx="10.71"/><rect class="cls-4" x="159.91" y="375.51" width="285.56" height="89.24" rx="5.35"/><path class="cls-5" d="M440.12,375.51H264L216.5,464.75H440.12a5.36,5.36,0,0,0,5.35-5.36V380.87A5.36,5.36,0,0,0,440.12,375.51Z"/><path class="cls-4" d="M191.14,473.67h35.7v8a2.68,2.68,0,0,1-2.68,2.68H193.82a2.68,2.68,0,0,1-2.68-2.68v-8Z"/><path class="cls-4" d="M378.54,473.67h35.7v8a2.68,2.68,0,0,1-2.68,2.68H381.22a2.68,2.68,0,0,1-2.68-2.68v-8Z"/><path class="cls-3" d="M360.7,384.43h0a4.47,4.47,0,0,1,4.46,4.47v62.46a4.47,4.47,0,0,1-4.46,4.47h0a4.47,4.47,0,0,1-4.47-4.47V388.9A4.47,4.47,0,0,1,360.7,384.43Z"/><path class="cls-3" d="M396.39,384.43h0a4.47,4.47,0,0,1,4.46,4.47v62.46a4.47,4.47,0,0,1-4.46,4.47h0a4.47,4.47,0,0,1-4.46-4.47V388.9A4.47,4.47,0,0,1,396.39,384.43Z"/><path class="cls-3" d="M432.09,384.43h0a4.47,4.47,0,0,1,4.46,4.47v62.46a4.47,4.47,0,0,1-4.46,4.47h0a4.47,4.47,0,0,1-4.47-4.47V388.9A4.47,4.47,0,0,1,432.09,384.43Z"/><path class="cls-3" d="M378.54,384.43h0A4.46,4.46,0,0,1,383,388.9v22.31a4.46,4.46,0,0,1-4.46,4.46h0a4.46,4.46,0,0,1-4.46-4.46V388.9A4.47,4.47,0,0,1,378.54,384.43Z"/><path class="cls-3" d="M378.54,424.59h0a4.46,4.46,0,0,1,4.46,4.46v22.31a4.46,4.46,0,0,1-4.46,4.47h0a4.47,4.47,0,0,1-4.46-4.47V429.05A4.46,4.46,0,0,1,378.54,424.59Z"/><path class="cls-3" d="M414.24,384.43h0a4.47,4.47,0,0,1,4.46,4.47v22.31a4.46,4.46,0,0,1-4.46,4.46h0a4.46,4.46,0,0,1-4.46-4.46V388.9A4.46,4.46,0,0,1,414.24,384.43Z"/><path class="cls-3" d="M414.24,424.59h0a4.46,4.46,0,0,1,4.46,4.46v22.31a4.47,4.47,0,0,1-4.46,4.47h0a4.46,4.46,0,0,1-4.46-4.47V429.05A4.46,4.46,0,0,1,414.24,424.59Z"/><circle class="cls-6" cx="208.99" cy="420.13" r="22.31"/><path class="cls-7" d="M209,442.44a22.31,22.31,0,0,0,10.48-42l-21,39.38A22.18,22.18,0,0,0,209,442.44Z"/><rect class="cls-8" x="329.46" y="384.43" width="17.85" height="17.85" rx="2.68"/><path class="cls-9" d="M332.14,384.43a2.68,2.68,0,0,0-2.68,2.68v12.5a2.68,2.68,0,0,0,2.68,2.67h1.5l9.49-17.85Z"/><rect class="cls-3" x="150.99" y="248.79" width="303.41" height="107.09" rx="10.71"/><rect class="cls-4" x="159.91" y="257.72" width="285.56" height="89.24" rx="5.35"/><path class="cls-10" d="M440.12,257.72H326.42L279,347H440.12a5.36,5.36,0,0,0,5.35-5.36V263.07A5.35,5.35,0,0,0,440.12,257.72Z"/><rect class="cls-4" x="191.14" y="355.88" width="35.7" height="10.71"/><rect class="cls-4" x="378.54" y="355.88" width="35.7" height="10.71"/><path class="cls-3" d="M360.7,266.64h0a4.46,4.46,0,0,1,4.46,4.46v62.47A4.46,4.46,0,0,1,360.7,338h0a4.47,4.47,0,0,1-4.47-4.46V271.1A4.47,4.47,0,0,1,360.7,266.64Z"/><path class="cls-3" d="M396.39,266.64h0a4.46,4.46,0,0,1,4.46,4.46v62.47a4.46,4.46,0,0,1-4.46,4.46h0a4.46,4.46,0,0,1-4.46-4.46V271.1A4.46,4.46,0,0,1,396.39,266.64Z"/><path class="cls-3" d="M432.09,266.64h0a4.46,4.46,0,0,1,4.46,4.46v62.47a4.46,4.46,0,0,1-4.46,4.46h0a4.47,4.47,0,0,1-4.47-4.46V271.1A4.47,4.47,0,0,1,432.09,266.64Z"/><path class="cls-3" d="M378.54,266.64h0A4.46,4.46,0,0,1,383,271.1v22.31a4.45,4.45,0,0,1-4.46,4.46h0a4.46,4.46,0,0,1-4.46-4.46V271.1A4.46,4.46,0,0,1,378.54,266.64Z"/><path class="cls-3" d="M378.54,306.8h0a4.46,4.46,0,0,1,4.46,4.46v22.31a4.46,4.46,0,0,1-4.46,4.46h0a4.46,4.46,0,0,1-4.46-4.46V311.26A4.46,4.46,0,0,1,378.54,306.8Z"/><path class="cls-3" d="M414.24,266.64h0a4.46,4.46,0,0,1,4.46,4.46v22.31a4.46,4.46,0,0,1-4.46,4.46h0a4.45,4.45,0,0,1-4.46-4.46V271.1A4.46,4.46,0,0,1,414.24,266.64Z"/><path class="cls-3" d="M414.24,306.8h0a4.46,4.46,0,0,1,4.46,4.46v22.31a4.46,4.46,0,0,1-4.46,4.46h0a4.46,4.46,0,0,1-4.46-4.46V311.26A4.46,4.46,0,0,1,414.24,306.8Z"/><circle class="cls-6" cx="208.99" cy="302.34" r="22.31"/><path class="cls-11" d="M209,324.65a22.31,22.31,0,0,0,10.48-42l-21,39.39A22.3,22.3,0,0,0,209,324.65Z"/><rect class="cls-8" x="329.46" y="266.64" width="17.85" height="17.85" rx="2.68"/><path class="cls-12" d="M332.14,266.64a2.68,2.68,0,0,0-2.68,2.68v12.49a2.68,2.68,0,0,0,2.68,2.68h1.5l9.49-17.85Z"/><rect class="cls-3" x="150.99" y="131" width="303.41" height="107.09" rx="10.71"/><rect class="cls-4" x="159.91" y="139.92" width="285.56" height="89.24" rx="5.35"/><path class="cls-13" d="M440.12,139.92H388.89l-47.46,89.24h98.69a5.36,5.36,0,0,0,5.35-5.35V145.28A5.36,5.36,0,0,0,440.12,139.92Z"/><rect class="cls-4" x="191.14" y="238.09" width="35.7" height="10.71"/><rect class="cls-4" x="378.54" y="238.09" width="35.7" height="10.71"/><path class="cls-3" d="M360.7,148.85h0a4.46,4.46,0,0,1,4.46,4.46v62.47a4.46,4.46,0,0,1-4.46,4.46h0a4.47,4.47,0,0,1-4.47-4.46V153.31A4.47,4.47,0,0,1,360.7,148.85Z"/><path class="cls-3" d="M396.39,148.85h0a4.46,4.46,0,0,1,4.46,4.46v62.47a4.46,4.46,0,0,1-4.46,4.46h0a4.46,4.46,0,0,1-4.46-4.46V153.31A4.46,4.46,0,0,1,396.39,148.85Z"/><path class="cls-3" d="M432.09,148.85h0a4.46,4.46,0,0,1,4.46,4.46v62.47a4.46,4.46,0,0,1-4.46,4.46h0a4.47,4.47,0,0,1-4.47-4.46V153.31A4.47,4.47,0,0,1,432.09,148.85Z"/><path class="cls-3" d="M378.54,148.85h0a4.46,4.46,0,0,1,4.46,4.46v22.31a4.46,4.46,0,0,1-4.46,4.46h0a4.46,4.46,0,0,1-4.46-4.46V153.31A4.46,4.46,0,0,1,378.54,148.85Z"/><path class="cls-3" d="M378.54,189h0a4.46,4.46,0,0,1,4.46,4.47v22.31a4.46,4.46,0,0,1-4.46,4.46h0a4.46,4.46,0,0,1-4.46-4.46V193.47A4.47,4.47,0,0,1,378.54,189Z"/><path class="cls-3" d="M414.24,148.85h0a4.46,4.46,0,0,1,4.46,4.46v22.31a4.46,4.46,0,0,1-4.46,4.46h0a4.46,4.46,0,0,1-4.46-4.46V153.31A4.46,4.46,0,0,1,414.24,148.85Z"/><path class="cls-3" d="M414.24,189h0a4.47,4.47,0,0,1,4.46,4.47v22.31a4.46,4.46,0,0,1-4.46,4.46h0a4.46,4.46,0,0,1-4.46-4.46V193.47A4.46,4.46,0,0,1,414.24,189Z"/><circle class="cls-6" cx="208.99" cy="184.54" r="22.31"/><path class="cls-14" d="M209,206.85a22.31,22.31,0,0,0,10.48-42l-21,39.39A22.17,22.17,0,0,0,209,206.85Z"/><rect class="cls-15" x="329.46" y="148.85" width="17.85" height="17.85" rx="2.68"/><path class="cls-16" d="M344.63,166.7a2.68,2.68,0,0,0,2.68-2.68v-12.5a2.68,2.68,0,0,0-2.68-2.67h-1.5l-9.49,17.85Z"/></g></svg>