<svg xmlns="http://www.w3.org/2000/svg" xmlns:xlink="http://www.w3.org/1999/xlink" viewBox="0 0 600 600"><defs><style>.cls-1{fill:none;}.cls-2{fill:url(#Degradado_sin_nombre_459);}.cls-3{fill:#004481;}.cls-4{fill:url(#Degradado_sin_nombre_114);}.cls-5{fill:#2dcccd;}.cls-6{fill:#043263;}.cls-7{fill:#02a5a5;}</style><linearGradient id="Degradado_sin_nombre_459" x1="257.06" y1="4131.11" x2="457.85" y2="3753.48" gradientTransform="matrix(1, 0, 0, -1, 0, 4310)" gradientUnits="userSpaceOnUse"><stop offset="0" stop-color="#192647" stop-opacity="0.5"/><stop offset="1" stop-color="#192647" stop-opacity="0"/></linearGradient><linearGradient id="Degradado_sin_nombre_114" x1="475" y1="3945" x2="168.55" y2="3945" gradientTransform="matrix(1, 0, 0, -1, 0, 4310)" gradientUnits="userSpaceOnUse"><stop offset="0" stop-color="#072146" stop-opacity="0.8"/><stop offset="1" stop-color="#072146" stop-opacity="0"/></linearGradient></defs><title>11</title><g id="Cuadrados_Blancos" data-name="Cuadrados Blancos"><rect class="cls-1" width="600" height="600"/></g><g id="Capa_40" data-name="Capa 40"><path class="cls-2" d="M535,233a3,3,0,0,0-3-3H466.15l10.15-10.15a3,3,0,0,0,0-4.24h0l-52.76-52.75a3,3,0,0,0-4.24,0L355.53,227h0l-63.77-64.15a3,3,0,0,0-4.24,0h0L234.73,215.6a3,3,0,0,0,0,4.24h0L244.88,230H178a3,3,0,0,0-3,3v67h10V507a23,23,0,0,0,23,23H315v3h80v-3H502a23,23,0,0,0,17-7.52c.32-.35.62-.71.92-1.09a18.78,18.78,0,0,0,1.41-1.94c.26-.4.5-.82.74-1.24l.17-.29A23,23,0,0,0,525,507V300h10Z"/><path class="cls-3" d="M135,250H475V457a23,23,0,0,1-23,23H158a23,23,0,0,1-23-23h0V250Z"/><path class="cls-4" d="M292.88,250,168.55,480H452a23,23,0,0,0,23-23h0V250Z"/><rect class="cls-5" x="265" y="250" width="80" height="233"/><path class="cls-5" d="M200.52,185.64l-15.79-15.79a3,3,0,0,1,0-4.24h0l52.75-52.75a3,3,0,0,1,4.24,0h0l72.36,72.79Z"/><path class="cls-5" d="M410.51,185.64l15.79-15.79a3,3,0,0,0,0-4.24h0l-52.76-52.75a3,3,0,0,0-4.24,0l-72.36,72.79Z"/><path class="cls-6" d="M485,250H125V183a3,3,0,0,1,3-3H482a3,3,0,0,1,3,3h0v67Z"/><rect class="cls-7" x="260" y="177" width="90" height="73"/></g></svg>