<svg xmlns="http://www.w3.org/2000/svg" xmlns:xlink="http://www.w3.org/1999/xlink" viewBox="0 0 600 600"><defs><style>.cls-1{fill:none;}.cls-2{fill:url(#Degradado_sin_nombre_110);}.cls-3{fill:#072146;}.cls-4{fill:#49a5e6;}.cls-5{fill:#043263;}.cls-6{fill:#004481;}.cls-7{fill:url(#Degradado_sin_nombre_501);}.cls-8{fill:url(#Degradado_sin_nombre_501-2);}</style><linearGradient id="Degradado_sin_nombre_110" x1="286.92" y1="222.96" x2="446.97" y2="523.98" gradientUnits="userSpaceOnUse"><stop offset="0" stop-color="#192647" stop-opacity="0.5"/><stop offset="1" stop-color="#192647" stop-opacity="0"/></linearGradient><linearGradient id="Degradado_sin_nombre_501" x1="177.52" y1="-5609.83" x2="305.67" y2="-5737.99" gradientTransform="matrix(1, 0, 0, -1, 0, -5374)" gradientUnits="userSpaceOnUse"><stop offset="0" stop-color="#fff" stop-opacity="0.5"/><stop offset="1" stop-color="#fff" stop-opacity="0"/></linearGradient><linearGradient id="Degradado_sin_nombre_501-2" x1="121.56" y1="-5668.2" x2="239.15" y2="-5785.79" xlink:href="#Degradado_sin_nombre_501"/></defs><title>13</title><g id="Cuadrados_Blancos" data-name="Cuadrados Blancos"><rect class="cls-1" width="600" height="600"/></g><g id="Capa_35" data-name="Capa 35"><path class="cls-2" d="M184.9,332.3l38.59,5.35,0,159.24a3,3,0,0,0,3,3h265a3,3,0,0,0,3-3V337.65l38.58-5.35,4.47-7a23,23,0,0,0-7.07-31.75h0l-169.89-108a3,3,0,0,0-3.22-.05L187.5,293.5a23,23,0,0,0-7.07,31.75h0l4.47,7"/><path class="cls-3" d="M134.9,282.3,309,306.45,483.1,282.3,310.61,172a3,3,0,0,0-3.22,0Z"/><path class="cls-4" d="M173.48,257.62,307.4,172a3,3,0,0,1,3.2,0l133.92,85.66V446.89a3,3,0,0,1-3,3h-265a3,3,0,0,1-3-3Z"/><path class="cls-5" d="M307.39,135.5,137.5,243.5a23,23,0,0,0-7.07,31.75h0l4.47,7L307.39,172a3,3,0,0,1,3.22,0L483.1,282.3l4.47-7a23,23,0,0,0-7.07-31.75h0l-169.89-108A3,3,0,0,0,307.39,135.5Z"/><rect class="cls-6" x="195.72" y="264.85" width="100.86" height="67.7"/><rect class="cls-6" x="195.72" y="355.17" width="100.86" height="67.7"/><rect class="cls-6" x="319.2" y="355.17" width="100.86" height="67.7"/><rect class="cls-6" x="319.2" y="264.85" width="100.86" height="67.7"/><path class="cls-3" d="M420.06,264.85s-11,12.82-33,38.56a1.22,1.22,0,0,1-1.28.64l-40.86-7a1.31,1.31,0,0,0-1.28.64l-13.19,22.54c-.55.91.55,1.65,1.47,1l16.49-12.1a1.55,1.55,0,0,1,.91-.27l45.9,7a1,1,0,0,0,.73-.18l24-13.38V264.85Z"/><polygon class="cls-7" points="195.72 264.85 195.72 332.54 249.13 332.54 285.03 264.85 195.72 264.85"/><polygon class="cls-8" points="195.72 355.17 195.72 422.87 201.03 422.87 237.03 355.17 195.72 355.17"/></g></svg>