<?xml version="1.0" encoding="utf-8"?>
<!-- Generator: Adobe Illustrator 23.0.1, SVG Export Plug-In . SVG Version: 6.00 Build 0)  -->
<svg version="1.1" id="Capa_1" xmlns="http://www.w3.org/2000/svg" xmlns:xlink="http://www.w3.org/1999/xlink" x="0px" y="0px"
	 viewBox="0 0 600 600" style="enable-background:new 0 0 600 600;" xml:space="preserve">
<style type="text/css">
	.st0{fill:url(#SVGID_1_);}
	.st1{fill:#043263;}
	.st2{fill:#1464A5;}
	.st3{fill:#49A5E6;}
	.st4{fill:#004481;}
	.st5{fill:url(#SVGID_2_);}
	.st6{fill:url(#SVGID_3_);}
	.st7{fill:url(#SVGID_4_);}
	.st8{fill:none;}
</style>
<linearGradient id="SVGID_1_" gradientUnits="userSpaceOnUse" x1="208.4349" y1="114.5396" x2="417.5102" y2="507.7529">
	<stop  offset="0" style="stop-color:#192647;stop-opacity:0.5"/>
	<stop  offset="1" style="stop-color:#192647;stop-opacity:0"/>
</linearGradient>
<path class="st0" d="M506.8,278.9L332.9,168.3c-1-0.6-2.3-0.6-3.3,0L155.6,278.9c-11,7-14.2,21.5-7.2,32.5l4.6,7.2l39.5,5.5v163
	c0,1.7,1.4,3.1,3.1,3.1h271.3c1.7,0,3.1-1.4,3.1-3.1v-163l39.5-5.5l4.6-7.2C521,300.4,517.8,285.9,506.8,278.9z"/>
<path class="st1" d="M92.5,274.3l190,25.7l189.8-27L283.8,153.3c-1.1-0.7-2.4-0.7-3.5,0L92.5,274.3z"/>
<path class="st2" d="M134.5,247.2l145.8-93.9c1.1-0.7,2.4-0.7,3.5,0l146.4,93l0.7,209.7l-295.7,1L134.5,247.2z"/>
<g>
	<rect x="159.3" y="255" class="st3" width="110.1" height="73.9"/>
	<rect x="159.3" y="353.6" class="st3" width="110.1" height="73.9"/>
</g>
<path class="st4" d="M280.2,113.5L95.2,232c-5.6,3.6-9.6,9.3-11,15.8c-1.4,6.5-0.2,13.3,3.4,18.9l4.9,7.6l187.8-121
	c1.1-0.7,2.4-0.7,3.5,0l188.6,119.8l4.9-7.7c7.4-11.7,3.9-27.2-7.8-34.6L283.7,113.5C282.6,112.9,281.2,112.9,280.2,113.5z"/>
<linearGradient id="SVGID_2_" gradientUnits="userSpaceOnUse" x1="430.87" y1="336.3356" x2="254.6477" y2="336.3356">
	<stop  offset="0" style="stop-color:#043263;stop-opacity:0.8"/>
	<stop  offset="1" style="stop-color:#043263;stop-opacity:0"/>
</linearGradient>
<polygon class="st5" points="254.6,456.6 430.9,456 430.2,246.3 382.6,216.1 "/>
<rect x="294.1" y="353.6" class="st3" width="110.1" height="73.9"/>
<rect x="294.1" y="255" class="st3" width="110.1" height="73.9"/>
<g>
	<path class="st1" d="M404.2,255c0,0-12,14-36,42.1c-0.3,0.5-0.8,0.8-1.4,0.7l-44.6-7.6c-0.5-0.1-1.1,0.2-1.4,0.7l-14.4,24.6
		c-0.6,1,0.6,1.8,1.6,1.1l18-13.2c0.3-0.2,0.6-0.3,1-0.3l50.1,7.6c0.3,0,0.6,0,0.8-0.2l26.2-14.6V255z"/>
</g>
<g>
	<linearGradient id="SVGID_3_" gradientUnits="userSpaceOnUse" x1="139.4223" y1="223.3355" x2="279.3192" y2="363.2323">
		<stop  offset="0" style="stop-color:#FFFFFF;stop-opacity:0.5"/>
		<stop  offset="1" style="stop-color:#EBF4F5;stop-opacity:0.1"/>
	</linearGradient>
	<polygon class="st6" points="159.3,255 159.3,328.9 217.6,328.9 256.8,255 	"/>
	<linearGradient id="SVGID_4_" gradientUnits="userSpaceOnUse" x1="78.3316" y1="287.0558" x2="206.7015" y2="415.4257">
		<stop  offset="0" style="stop-color:#FFFFFF;stop-opacity:0.5"/>
		<stop  offset="1" style="stop-color:#EBF4F5;stop-opacity:0.1"/>
	</linearGradient>
	<polygon class="st7" points="159.3,353.6 159.3,427.5 165.1,427.5 204.4,353.6 	"/>
</g>
<g>
	<rect y="0" class="st8" width="600" height="600"/>
</g>
</svg>
