<svg xmlns="http://www.w3.org/2000/svg" xmlns:xlink="http://www.w3.org/1999/xlink" viewBox="0 0 600 600"><defs><style>.cls-1{fill:none;}.cls-2{fill:url(#Degradado_sin_nombre_7);}.cls-3{fill:#043263;}.cls-4{fill:#02a5a5;}.cls-5{fill:#028484;}.cls-6,.cls-9{fill:#072146;}.cls-7{fill:#56e2de;}.cls-8{fill:#2dcccd;}.cls-9{opacity:0.5;}.cls-10{fill:#004481;}.cls-11{fill:#49a5e6;}.cls-12{fill:url(#Degradado_sin_nombre_70);}</style><linearGradient id="Degradado_sin_nombre_7" x1="273.09" y1="-5553.84" x2="461.19" y2="-5907.61" gradientTransform="matrix(1, 0, 0, -1, 0, -5374)" gradientUnits="userSpaceOnUse"><stop offset="0" stop-color="#192647" stop-opacity="0.5"/><stop offset="1" stop-color="#192647" stop-opacity="0"/></linearGradient><linearGradient id="Degradado_sin_nombre_70" x1="347.58" y1="-5402.51" x2="232.2" y2="-5402.51" gradientTransform="matrix(1, 0, 0, -1, 29.31, -5029.55)" gradientUnits="userSpaceOnUse"><stop offset="0" stop-color="#004481" stop-opacity="0.6"/><stop offset="1" stop-color="#004481" stop-opacity="0"/></linearGradient></defs><title>13</title><g id="Cuadrados_Blancos" data-name="Cuadrados Blancos"><rect class="cls-1" width="600" height="600"/></g><g id="Capa_36" data-name="Capa 36"><path class="cls-2" d="M528.59,283.46a2.07,2.07,0,0,0-.08-.42h.08l-.1-.1c-9.19-51.11-83.55-112.85-174.79-115V155a5,5,0,0,0-10,0v12.86c-91.24,2.2-165.6,63.94-174.79,115.05l-.1.1h.08a3.1,3.1,0,0,1-.08.42l.44-.31c38.14,11.88,48.86,15.54,81.5,35.24,32.67-2.18,61.88.46,92.95,7.38v28.07H278.36a14.79,14.79,0,0,0-14.79,14.79h0V492.09A14.78,14.78,0,0,0,278,506.86v66.43a3,3,0,0,0,3,3h13.29a3,3,0,0,0,3-3v-96h81.38v44.19a15.13,15.13,0,0,0,15.12,15h62V398.21h-28.9V368.63a14.94,14.94,0,0,0-.66-4.4,15.83,15.83,0,0,0-1.12-2.65c-.23-.42-.48-.82-.74-1.22a14.92,14.92,0,0,0-4-4,13.65,13.65,0,0,0-1.22-.74,14,14,0,0,0-2.65-1.12,14.9,14.9,0,0,0-4.4-.67H353.7V325.77c31.07-6.92,60.28-9.56,92.95-7.38h0c32.64-19.7,43.36-23.36,81.5-35.24Z"/><path class="cls-3" d="M300,135.8a5,5,0,0,1-5-5V105a5,5,0,0,1,10,0v25.8A5,5,0,0,1,300,135.8Z"/><path class="cls-4" d="M120.11,233c38.5,12,49.17,15.6,81.94,35.38l97.95-137C235.62,142.36,176.4,180.08,120.11,233Z"/><path class="cls-5" d="M202.05,268.39c34.42-2.3,65,.75,97.95,8.52V131.38C257,174.05,222.68,219.23,202.05,268.39Z"/><path class="cls-4" d="M479.89,233c-38.5,12-49.17,15.6-81.94,35.38L300,131.38C364.38,142.36,423.6,180.08,479.89,233Z"/><path class="cls-5" d="M398,268.39c-34.42-2.3-65,.75-97.95,8.52V131.38C341,174.15,374.62,219.46,398,268.39Z"/><rect class="cls-6" x="295" y="175.63" width="10" height="224.38"/><path class="cls-7" d="M300,117.8c-93.84,0-171,63.51-179.89,115.66,23.92-17.22,53.79-27.3,89.94-27.64h0Q226.68,153.09,300,117.8Z"/><path class="cls-7" d="M300,117.8c93.84,0,171,63.51,179.89,115.66C456,216.24,426.1,206.16,390,205.82h0Q373.32,153.09,300,117.8Z"/><path class="cls-8" d="M390,205.82q-16.63-52.73-89.95-88h0q-73.32,35.3-90,88c36-10.32,58.77-12.46,90-7.12h0C331.18,193.36,353.93,195.5,390,205.82Z"/><path class="cls-9" d="M228.36,427.3a14.79,14.79,0,0,0,0,29.58Z"/><path class="cls-6" d="M228,417.69h19.29v105.6a3,3,0,0,1-3,3H231a3,3,0,0,1-3-3V417.69Z"/><path class="cls-10" d="M328.67,348.21h77.16V486.45h-62a15.12,15.12,0,0,1-15.13-15.13h0V348.21Z"/><path class="cls-11" d="M376.89,442.09h0A14.79,14.79,0,0,0,362.1,427.3H228.36a14.79,14.79,0,0,0-14.79,14.79h0V318.63a14.79,14.79,0,0,1,14.79-14.79H362.1a14.79,14.79,0,0,1,14.79,14.79h0Z"/><circle class="cls-3" cx="362.1" cy="442.09" r="14.79"/><path class="cls-3" d="M362.1,456.88H343.46a14.79,14.79,0,0,0-14.79,14.79h0V427.3H362.1Z"/><path class="cls-12" d="M362.1,303.84H328.51l-67,123.46H362.1a14.79,14.79,0,0,1,14.79,14.79h0V318.63a14.79,14.79,0,0,0-14.79-14.79Z"/></g></svg>