<svg id="Contenido" xmlns="http://www.w3.org/2000/svg" xmlns:xlink="http://www.w3.org/1999/xlink" viewBox="0 0 600 600"><defs><style>.cls-1{fill:url(#Degradado_sin_nombre_5);}.cls-2{fill:#072146;}.cls-3{fill:#004481;}.cls-4{fill:url(#Degradado_sin_nombre_3);}.cls-5{fill:#49a5e6;}.cls-6{fill:url(#Degradado_sin_nombre_14);}.cls-7{fill:#2dcccd;}.cls-8{fill:#f8cd51;}.cls-9{fill:#fade8e;}.cls-10{fill:url(#Degradado_sin_nombre_15);}.cls-11{fill:url(#Degradado_sin_nombre_15-2);}.cls-12{fill:url(#Degradado_sin_nombre_15-3);}.cls-13{fill:none;}</style><linearGradient id="Degradado_sin_nombre_5" x1="237.42" y1="122.39" x2="431.26" y2="486.96" gradientUnits="userSpaceOnUse"><stop offset="0" stop-color="#072146" stop-opacity="0.5"/><stop offset="1" stop-color="#072146" stop-opacity="0"/></linearGradient><linearGradient id="Degradado_sin_nombre_3" x1="420.28" y1="350.71" x2="273.62" y2="350.71" gradientTransform="translate(82.37 -78.6) rotate(17)" gradientUnits="userSpaceOnUse"><stop offset="0" stop-color="#192647"/><stop offset="0" stop-color="#072146" stop-opacity="0.8"/><stop offset="1" stop-color="#072146" stop-opacity="0"/></linearGradient><linearGradient id="Degradado_sin_nombre_14" x1="410.37" y1="370.42" x2="352.59" y2="370.42" gradientTransform="translate(82.37 -78.6) rotate(17)" gradientUnits="userSpaceOnUse"><stop offset="0" stop-color="#192647"/><stop offset="0" stop-color="#072146" stop-opacity="0.2"/><stop offset="1" stop-color="#072146" stop-opacity="0"/></linearGradient><linearGradient id="Degradado_sin_nombre_15" x1="255.67" y1="51.07" x2="292.54" y2="87.94" gradientTransform="translate(82.37 -78.6) rotate(17)" gradientUnits="userSpaceOnUse"><stop offset="0" stop-color="#fff" stop-opacity="0.6"/><stop offset="1" stop-color="#fff" stop-opacity="0"/></linearGradient><linearGradient id="Degradado_sin_nombre_15-2" x1="362.82" y1="27.45" x2="400.26" y2="64.88" xlink:href="#Degradado_sin_nombre_15"/><linearGradient id="Degradado_sin_nombre_15-3" x1="400.31" y1="124.78" x2="425.94" y2="150.42" gradientTransform="matrix(1, 0, 0, 1, 0, 0)" xlink:href="#Degradado_sin_nombre_15"/></defs><path class="cls-1" d="M516.49,100.6h0a53.11,53.11,0,0,0-71.76,21.94l-6.82,12.81a1.64,1.64,0,0,0-.12,1.23,1.61,1.61,0,0,0,.79,1l.9.48-41.83,78.67L388.86,212l18.92-35.57.9.48a1.71,1.71,0,0,0,.76.19,1.84,1.84,0,0,0,.47-.07,1.61,1.61,0,0,0,1-.79l6.81-12.81a39.87,39.87,0,0,0-16.48-53.93L372.08,94a20.09,20.09,0,1,0-18.86,35.47L403,156l-6.68,12.54a1.62,1.62,0,0,0-.11,1.24,1.57,1.57,0,0,0,.78.95l.9.48L379,206.78l-40.73-21.66a13.23,13.23,0,0,0-17.9,5.48l-6.17,11.61-2.07-1.1a4.23,4.23,0,0,0-5.75,1.76l-4.24,7.86-2-1.07a4.27,4.27,0,0,0-5.76,1.76l-14.86,28a4.27,4.27,0,0,0,1.76,5.76l1.84,1L170.85,454.67l-2.19-1.17a4.27,4.27,0,0,0-5.76,1.76l-14.86,28A4.25,4.25,0,0,0,149.8,489l7.89,4.2-6.18,11.61A13.24,13.24,0,0,0,157,522.67L285.56,591a13.18,13.18,0,0,0,6.19,1.55,13.34,13.34,0,0,0,3.89-.58,13.15,13.15,0,0,0,7.82-6.44L309.63,574l7.89,4.19a4.23,4.23,0,0,0,2,.5,4.12,4.12,0,0,0,1.25-.19,4.2,4.2,0,0,0,2.51-2.07l14.87-27.95a4.26,4.26,0,0,0-1.76-5.76l-1.95-1,15.36-28.52,1.79,1h0a4.2,4.2,0,0,0,2,.5,4.25,4.25,0,0,0,3.76-2.26l78.23-143.68a4.27,4.27,0,0,0-1.76-5.76l-2.44-1.29,15.35-28.51,2.29,1.22a4.23,4.23,0,0,0,2,.5,4.46,4.46,0,0,0,1.25-.19,4.2,4.2,0,0,0,2.51-2.07l14.87-28a4.27,4.27,0,0,0-1.76-5.76l-2.11-1.11,4.24-7.87a4.27,4.27,0,0,0-1.76-5.76l-2.07-1.1,6.17-11.61a13.23,13.23,0,0,0-5.47-17.89l-36.07-19.18,10.87-20.44.9.48a1.59,1.59,0,0,0,.76.19,1.49,1.49,0,0,0,.47-.07,1.61,1.61,0,0,0,1-.79l6.67-12.54,9.05,4.81a26.69,26.69,0,1,0-11-36.09L430.24,206a1.64,1.64,0,0,0-.12,1.23,1.61,1.61,0,0,0,.79,1l.9.48L421,229.07l-13.45-7.15,41.83-78.67.9.48a1.62,1.62,0,0,0,2.19-.67l6.64-12.56,32.38,17.21a26.68,26.68,0,0,0,25.05-47.11Z"/><path class="cls-2" d="M277.17,171.31H422.79a12.93,12.93,0,0,1,12.93,12.93v13.45a0,0,0,0,1,0,0H264.24a0,0,0,0,1,0,0V184.24A12.93,12.93,0,0,1,277.17,171.31Z" transform="translate(127.58 -142.71) rotate(28)"/><path class="cls-2" d="M108.53,485H254.15A12.93,12.93,0,0,1,267.08,498v13.45a0,0,0,0,1,0,0H95.6a0,0,0,0,1,0,0V498A12.93,12.93,0,0,1,108.53,485Z" transform="translate(107.56 1023.27) rotate(-152)"/><path class="cls-3" d="M275.26,518.28,112.2,431.58,260.4,156.29a4,4,0,0,1,5.35-1.64l156.07,83a4,4,0,0,1,1.64,5.35Z"/><path class="cls-4" d="M421.82,237.64,347.08,197.9,198.55,477.25l76.71,41L423.46,243A4,4,0,0,0,421.82,237.64Z"/><path class="cls-5" d="M305.45,467.11,268.1,447a4.79,4.79,0,0,1-2-6.47l75.92-142.78a4.78,4.78,0,0,1,6.48-2l38.86,20.66a4,4,0,0,1,1.64,5.35L310.81,465.47A4,4,0,0,1,305.45,467.11Z"/><path class="cls-6" d="M287.32,457l18.13,10.08a4,4,0,0,0,5.36-1.64L389,321.81a4,4,0,0,0-1.63-5.41l-19.61-10.64Z"/><rect class="cls-7" x="229.37" y="205.48" width="197.87" height="39.57" rx="3.96" transform="translate(144.18 -127.76) rotate(28)"/><rect class="cls-7" x="97.89" y="449.32" width="197.87" height="39.57" rx="3.96" transform="translate(243.27 -37.49) rotate(28)"/><path class="cls-8" d="M439.12,112.38h0a26.38,26.38,0,0,0-35.68,10.91l-12.38,23.29-6.82,12.81a1.33,1.33,0,0,0,.55,1.79l11.65,6.19a1.31,1.31,0,0,0,1.78-.55L405,154l9.32,5A26.39,26.39,0,0,0,450,148.06h0A26.38,26.38,0,0,0,439.12,112.38Z"/><path class="cls-8" d="M470.09,54.14h0A52.77,52.77,0,0,0,398.73,76l-6.82,12.81a1.32,1.32,0,0,0,.55,1.78l11.65,6.2a1.31,1.31,0,0,0,1.78-.55l6.78-12.83,32.64,17.36A26.38,26.38,0,0,0,481,89.82h0A26.38,26.38,0,0,0,470.09,54.14Z"/><rect class="cls-9" x="425.42" y="75.98" width="40.89" height="5.28" rx="2.64" transform="translate(89.1 -200.12) rotate(28)"/><rect class="cls-9" x="455.25" y="56.21" width="5.28" height="27.7" rx="2.64" transform="translate(181.06 441.46) rotate(-62)"/><rect class="cls-9" x="413.09" y="138.86" width="21.11" height="5.28" rx="2.64" transform="translate(116.02 -182.32) rotate(28)"/><rect class="cls-9" x="433.02" y="128.99" width="5.28" height="7.91" rx="2.64" transform="translate(113.74 455.19) rotate(-62)"/><path class="cls-8" d="M354.79,63.06,325.67,47.57A19.79,19.79,0,0,0,307.1,82.52l50.08,26.62L350.37,122a1.31,1.31,0,0,0,.54,1.78l11.65,6.19a1.31,1.31,0,0,0,1.78-.54l6.81-12.81h0A39.57,39.57,0,0,0,354.79,63.06Z"/><rect class="cls-9" x="306.71" y="78.76" width="52.76" height="5.28" rx="2.64" transform="translate(77.2 -146.85) rotate(28)"/><rect class="cls-9" x="330.82" y="46.87" width="5.28" height="39.57" rx="2.64" transform="translate(118.06 329.79) rotate(-62)"/><rect class="cls-5" x="341.86" y="124.44" width="10.55" height="40.89" transform="translate(108.65 -146.01) rotate(28)"/><rect class="cls-5" x="371.95" y="88.4" width="10.55" height="89.7" transform="translate(106.71 -161.5) rotate(28)"/><rect class="cls-5" x="379.76" y="162.88" width="10.55" height="23.74" transform="translate(127.11 -160.31) rotate(28)"/><path class="cls-10" d="M325.67,47.57A19.79,19.79,0,0,0,307.1,82.52l22.66,12,18.58-34.94Z"/><path class="cls-11" d="M470.09,54.14h0A52.77,52.77,0,0,0,398.73,76l-6.82,12.81a1.32,1.32,0,0,0,.55,1.78l11.65,6.2a1.31,1.31,0,0,0,1.78-.55l6.78-12.83,32.83,17.46,24.78-46.57Z"/><path class="cls-12" d="M439.12,112.38h0a26.38,26.38,0,0,0-35.68,10.91l-12.38,23.29-6.82,12.81a1.33,1.33,0,0,0,.55,1.79l11.65,6.19a1.31,1.31,0,0,0,1.78-.55L405,154l6.68,3.55,4.7,2.39L441,113.51C440.41,113.11,439.78,112.73,439.12,112.38Z"/><rect class="cls-13" width="600" height="600"/></svg>