<svg id="Contenido" xmlns="http://www.w3.org/2000/svg" xmlns:xlink="http://www.w3.org/1999/xlink" viewBox="0 0 600 600"><defs><style>.cls-1{fill:url(#Degradado_sin_nombre_47);}.cls-2{fill:#043263;}.cls-3{fill:#2dcccd;}.cls-4{fill:#1464a5;}.cls-5{fill:url(#Degradado_sin_nombre_92);}.cls-6{fill:#d4edfc;}</style><linearGradient id="Degradado_sin_nombre_47" x1="268.26" y1="186.97" x2="442.95" y2="515.51" gradientUnits="userSpaceOnUse"><stop offset="0" stop-color="#1a2746" stop-opacity="0.5"/><stop offset="1" stop-color="#1a2746" stop-opacity="0"/></linearGradient><linearGradient id="Degradado_sin_nombre_92" x1="439.44" y1="314.37" x2="208.12" y2="314.37" gradientUnits="userSpaceOnUse"><stop offset="0" stop-color="#043263" stop-opacity="0.4"/><stop offset="1" stop-color="#043263" stop-opacity="0.1"/></linearGradient></defs><title>values-day</title><path class="cls-1" d="M522.18,311A40.22,40.22,0,0,0,482,270.75c-1.35,0-2.67.07-4,.2A127.35,127.35,0,0,0,351.64,159.53h0A127.33,127.33,0,0,0,225.3,271a42.23,42.23,0,0,0-4.38-.24A40.21,40.21,0,0,0,217.58,351l-4.79,50.21A127.35,127.35,0,0,0,329.64,540.32l12.09.94a126.23,126.23,0,0,0,19.83,0l12.09-.94A127.35,127.35,0,0,0,490.5,401.24L485.7,351A40.2,40.2,0,0,0,522.18,311Z"/><circle class="cls-2" cx="169.28" cy="260.38" r="40.21"/><circle class="cls-3" cx="169.28" cy="260.38" r="23.3"/><circle class="cls-2" cx="430.32" cy="260.38" r="40.21"/><circle class="cls-3" cx="430.32" cy="260.38" r="23.3"/><path class="cls-4" d="M322,489.73l-12.08.94a126.36,126.36,0,0,1-19.84,0L278,489.73A127.36,127.36,0,0,1,161.14,350.65l12.09-126.48A127.34,127.34,0,0,1,300,108.94h0A127.34,127.34,0,0,1,426.77,224.17l12.09,126.48A127.36,127.36,0,0,1,322,489.73Z"/><path class="cls-5" d="M438.86,350.65,426.77,224.17a127.12,127.12,0,0,0-46.19-86.49L208.12,462A126.75,126.75,0,0,0,278,489.73l12.08.94a126.36,126.36,0,0,0,19.84,0l12.08-.94A127.36,127.36,0,0,0,438.86,350.65Z"/><path class="cls-6" d="M375.82,270.48H224.18a22,22,0,0,0-20.45,30l2.72,6.91a92.61,92.61,0,0,1,3.7,56.92c-4.57,17.78-6.23,34.22-6.23,44.68,0,34.06,43,61.67,96.08,61.67s96.08-27.61,96.08-61.67c0-10.46-1.66-26.9-6.23-44.68a92.58,92.58,0,0,1,3.7-56.91l2.72-6.92A22,22,0,0,0,375.82,270.48Z"/><path class="cls-2" d="M350.28,296.26a43.31,43.31,0,0,1-22.48-6,3,3,0,0,0-4.52,3.26,27.95,27.95,0,0,0,54,0,3,3,0,0,0-4.51-3.26A43.31,43.31,0,0,1,350.28,296.26Z"/><path class="cls-2" d="M249.72,296.26a43.31,43.31,0,0,1-22.48-6,3,3,0,0,0-4.51,3.26,27.95,27.95,0,0,0,54,0,3,3,0,0,0-4.52-3.26A43.31,43.31,0,0,1,249.72,296.26Z"/><path class="cls-2" d="M291.65,344.72a8,8,0,1,0-2.2,11.1A8,8,0,0,0,291.65,344.72Z"/><path class="cls-2" d="M321.65,344.72a8,8,0,1,0-2.2,11.1A8,8,0,0,0,321.65,344.72Z"/></svg>