<svg id="Capa_1" data-name="Capa 1" xmlns="http://www.w3.org/2000/svg" xmlns:xlink="http://www.w3.org/1999/xlink" viewBox="0 0 600 600"><defs><style>.cls-1{fill:none;}.cls-2{fill:url(#Degradado_sin_nombre_41);}.cls-3{fill:url(#Degradado_sin_nombre_41-2);}.cls-4{fill:url(#Degradado_sin_nombre_41-3);}.cls-5{fill:#043263;}.cls-6{fill:#2dcccd;}.cls-7{fill:#ffdf8a;}.cls-8{fill:#ffce44;}.cls-9{fill:#c49735;}.cls-10{fill:url(#Degradado_sin_nombre_7);}</style><linearGradient id="Degradado_sin_nombre_41" x1="53.28" y1="43.2" x2="388.66" y2="673.94" gradientUnits="userSpaceOnUse"><stop offset="0" stop-color="#192647" stop-opacity="0.5"/><stop offset="1" stop-color="#192647" stop-opacity="0"/></linearGradient><linearGradient id="Degradado_sin_nombre_41-2" x1="124.92" y1="-28.68" x2="458.63" y2="598.95" xlink:href="#Degradado_sin_nombre_41"/><linearGradient id="Degradado_sin_nombre_41-3" x1="221.65" y1="-119.43" x2="556.78" y2="510.86" xlink:href="#Degradado_sin_nombre_41"/><linearGradient id="Degradado_sin_nombre_7" x1="385.73" y1="142.52" x2="452.19" y2="208.98" gradientUnits="userSpaceOnUse"><stop offset="0" stop-color="#fff" stop-opacity="0.4"/><stop offset="1" stop-color="#fff" stop-opacity="0.1"/></linearGradient></defs><rect class="cls-1" width="600" height="600"/><path class="cls-2" d="M233.7,130h-66c-1.6,0-3,1.79-3,4.14V506.76c0,2.35,1.3,4.14,3,4.14h66c1.7,0,3-1.79,3-4.14V134.14C236.7,131.79,235.4,130,233.7,130Z"/><path class="cls-3" d="M351.7,160.64h-66a3.09,3.09,0,0,0-3,3.28v343.7a3.09,3.09,0,0,0,3,3.28h66a3.09,3.09,0,0,0,3-3.28V163.92A3.09,3.09,0,0,0,351.7,160.64Z"/><path class="cls-4" d="M522.8,178.9c-.7-.4-1.4-.7-2.1-1.1l-1.3-.6-1.5-.7-1.8-.8c-.5-.2-1.1-.4-1.7-.7l-1.2-.5a18.29,18.29,0,0,0-2.5-.8l-1.1-.3-2.1-.6-.9-.2-2.8-.6-.9-.2c-1-.2-2-.4-2.9-.5l-.6-.1c-.9-.1-1.8-.2-2.8-.4l-.7-.1c-1-.1-2.1-.2-3.1-.2h-.7c-1.1-.1-2.2-.1-3.3-.1a73.51,73.51,0,0,0-17.5,2.1V133.4a3,3,0,0,0-3-3H402.2a3,3,0,0,0-3,3V507.8a3,3,0,0,0,3,3h66.1a3,3,0,0,0,3-3V313a72.39,72.39,0,0,0,51.5-134.1Z"/><path class="cls-5" d="M116.7,80h66c1.7,0,3,1.79,3,4.14V456.76c0,2.35-1.3,4.14-3,4.14h-66c-1.7,0-3-1.79-3-4.14V84.14C113.7,81.79,115.1,80,116.7,80Z"/><path class="cls-6" d="M234.7,106h66a3.12,3.12,0,0,1,3,3.32V457.68a3.12,3.12,0,0,1-3,3.32h-66a3.12,3.12,0,0,1-3-3.32V109.32A3.12,3.12,0,0,1,234.7,106Z"/><path class="cls-5" d="M351.3,80.5h66a3,3,0,0,1,3,3V457.9a3,3,0,0,1-3,3h-66a3,3,0,0,1-3-3V83.5A3,3,0,0,1,351.3,80.5Z"/><path class="cls-7" d="M511,192.86a72.76,72.76,0,1,1-72.82-72.77h0A72.78,72.78,0,0,1,511,192.83v0"/><path class="cls-8" d="M438.3,250.09a57.24,57.24,0,1,1,57.2-57.25,57.33,57.33,0,0,1-57.2,57.25Z"/><path class="cls-9" d="M438.24,139a53.84,53.84,0,1,1-53.82,53.85A53.92,53.92,0,0,1,438.24,139h0m0-6.79h0a60.63,60.63,0,1,0,60.68,60.64v0a60.65,60.65,0,0,0-60.65-60.62Z"/><path class="cls-10" d="M438.2,120.09a72.73,72.73,0,0,0-34.08,137l68.3-128.44A72.5,72.5,0,0,0,438.2,120.09Z"/></svg>