<svg xmlns="http://www.w3.org/2000/svg" xmlns:xlink="http://www.w3.org/1999/xlink" viewBox="0 0 600 600"><defs><style>.cls-1{fill:none;}.cls-2{fill:url(#Degradado_sin_nombre_458);}.cls-3{fill:#004481;}.cls-4{fill:#043263;}.cls-5{fill:#072146;}.cls-6{fill:#eaf9fa;}.cls-7{fill:#f0cd66;}.cls-8{fill:#2dcccd;}</style><linearGradient id="Degradado_sin_nombre_458" x1="203.27" y1="4213.15" x2="411.06" y2="3822.35" gradientTransform="matrix(1, 0, 0, -1, 0, 4310)" gradientUnits="userSpaceOnUse"><stop offset="0" stop-color="#1c2645" stop-opacity="0.5"/><stop offset="1" stop-color="#1c2645" stop-opacity="0"/></linearGradient></defs><title>11</title><g id="Cuadrados_Blancos" data-name="Cuadrados Blancos"><rect class="cls-1" width="600" height="600"/></g><g id="Capa_41" data-name="Capa 41"><path class="cls-2" d="M509.62,226.56a9.64,9.64,0,0,0-12.86-.68h0l-7.35-7.34,15.61-11-54.1-54.1-11,15.6-7.34-7.34h-.05a9.65,9.65,0,1,0-4.42,3.07,2.75,2.75,0,0,0,.57.86l8,8-10.07,14.28-12.53-8.63a1.34,1.34,0,0,0-.31-.17,9.62,9.62,0,1,0-3.14,4.43,2.16,2.16,0,0,0,.33.27l12.48,8.6-9.67,13.72-10.28-5.53a9.72,9.72,0,1,0-1.73,5.32l8.81,4.74L399.2,226.8h0l-42.74,42.74c-31.78-19.52-70.89-18.08-95,6a64.91,64.91,0,0,0-12.67,17.95c-9.87,20.67-28,35.46-50.63,41.3a76.08,76.08,0,0,0-35,19.86c-33.52,33.52-29.21,92.18,9.63,131h0a116.19,116.19,0,0,0,15.41,12.94c1.35,1,2.71,1.85,4.08,2.73q4.13,2.63,8.38,4.83c1.42.74,2.84,1.44,4.28,2.11,2.87,1.33,5.78,2.53,8.7,3.59a102.33,102.33,0,0,0,13.29,3.82,97.07,97.07,0,0,0,17.81,2.16h4.41a86.58,86.58,0,0,0,13.72-1.39c2.31-.43,4.6-1,6.85-1.56,1.67-.45,3.32-.94,4.95-1.49,1.35-.47,2.69-1,4-1.5a75.32,75.32,0,0,0,25.14-16.6,76.19,76.19,0,0,0,19.85-35.05c.11-.4.24-.8.35-1.2A76.89,76.89,0,0,1,350.08,419a75.37,75.37,0,0,1,7.42-5.26q1.8-1.11,3.66-2.13t3.81-1.95A64.71,64.71,0,0,0,382.91,397c24.09-24.09,25.52-63.19,6-95l42.75-42.74h0l16.13-11.38,4.75,8.82a9.55,9.55,0,0,0-1.3,1.08,9.66,9.66,0,1,0,6.62-2.81l-5.53-10.28L466,235l8.6,12.48a2.16,2.16,0,0,0,.27.33,9.64,9.64,0,1,0,4.43-3.15,3.07,3.07,0,0,0-.17-.31l-8.63-12.53,14.28-10.06,8,8a2.47,2.47,0,0,0,.85.58,9.63,9.63,0,1,0,15.94-3.74Z"/><path class="cls-3" d="M333.57,239.8c-33.53-33.54-84.16-37.26-113.1-8.33a64.91,64.91,0,0,0-12.67,17.95c-9.87,20.67-28,35.46-50.63,41.3a76.08,76.08,0,0,0-35,19.86c-33.52,33.52-29.21,92.18,9.63,131s97.51,43.16,131,9.64a76.19,76.19,0,0,0,19.85-35.05c5.84-22.61,20.65-40.76,41.31-50.62a65.07,65.07,0,0,0,17.94-12.67C370.83,324,367.1,273.32,333.57,239.8Z"/><path class="cls-4" d="M390.64,215.19l-32.46-32.46L264.1,276.81a42.08,42.08,0,1,0,32.46,32.46Z"/><path class="cls-5" d="M231.73,296.61a31.88,31.88,0,1,0,45-2.27l0,0A31.92,31.92,0,0,0,231.73,296.61Z"/><rect class="cls-6" x="166.08" y="273.26" width="236.96" height="6.8" transform="translate(-112.28 282.25) rotate(-45)"/><rect class="cls-6" x="177.81" y="284.99" width="236.96" height="6.8" transform="translate(-117.15 293.83) rotate(-44.98)"/><polygon class="cls-7" points="178.98 342.84 230.07 393.94 242.47 381.99 191.38 330.9 178.98 342.84"/><path class="cls-4" d="M358.18,182.73l32.46,32.46,70.42-49.65a3,3,0,0,0,.73-4.18,3.09,3.09,0,0,0-.33-.39L412.4,111.91a3,3,0,0,0-4.24,0,2.57,2.57,0,0,0-.34.4Z"/><path class="cls-8" d="M391.54,117.65a2.75,2.75,0,0,0-3.9,3.89l11.23,11.22a2.75,2.75,0,0,0,3.89-3.89Z"/><path class="cls-8" d="M389.63,146.62l-16.57-11.41a2.75,2.75,0,0,0-3.51,4.21,3,3,0,0,0,.39.32l16.57,11.41a2.75,2.75,0,0,0,3.12-4.53Z"/><path class="cls-8" d="M374.42,163l-13.37-7.21a2.75,2.75,0,0,0-3.25,4.37,2.81,2.81,0,0,0,.65.48l13.37,7.2a2.75,2.75,0,0,0,2.6-4.84Z"/><path class="cls-8" d="M377.18,104.75a9.63,9.63,0,1,0,13.62,0,9.63,9.63,0,0,0-13.62,0Z"/><path class="cls-8" d="M356.84,125.09a9.63,9.63,0,1,0,13.62,0,9.63,9.63,0,0,0-13.62,0Z"/><path class="cls-8" d="M346,149.52a9.64,9.64,0,1,0,13.63,0h0A9.64,9.64,0,0,0,346,149.52Z"/><path class="cls-8" d="M444.5,170.61a2.75,2.75,0,0,0-3.89,3.89h0l11.22,11.22a2.75,2.75,0,0,0,3.89-3.89Z"/><path class="cls-8" d="M426.75,183.74a2.75,2.75,0,0,0-4.54,3.12l11.42,16.57a3,3,0,0,0,.32.39,2.76,2.76,0,0,0,4.21-3.52Z"/><path class="cls-8" d="M410.4,198.94a2.75,2.75,0,0,0-4.84,2.61l7.2,13.38a2.46,2.46,0,0,0,.47.64,2.76,2.76,0,0,0,4.38-3.26Z"/><path class="cls-8" d="M455,182.56a9.64,9.64,0,1,0,13.63,0h0A9.64,9.64,0,0,0,455,182.56Z"/><path class="cls-8" d="M434.65,202.9a9.64,9.64,0,1,0,13.63,0h0A9.64,9.64,0,0,0,434.65,202.9Z"/><path class="cls-8" d="M410.22,213.71a9.63,9.63,0,1,0,13.63,0,9.63,9.63,0,0,0-13.63,0Z"/></g></svg>