<svg id="Contenido" xmlns="http://www.w3.org/2000/svg" xmlns:xlink="http://www.w3.org/1999/xlink" viewBox="0 0 600 600"><defs><style>.cls-1{fill:url(#Degradado_sin_nombre_74);}.cls-2{fill:#2dcccd;}.cls-3{fill:#043263;}.cls-4{fill:#1464a5;}.cls-5{fill:url(#Degradado_sin_nombre_6);}.cls-6{fill:#f8cd51;}.cls-7{fill:url(#Degradado_sin_nombre_7);}.cls-8{fill:url(#Degradado_sin_nombre_26);}.cls-9{fill:url(#Degradado_sin_nombre_11);}.cls-10{fill:none;}</style><linearGradient id="Degradado_sin_nombre_74" x1="274.44" y1="201.94" x2="431.85" y2="497.99" gradientUnits="userSpaceOnUse"><stop offset="0" stop-color="#082146" stop-opacity="0.5"/><stop offset="1" stop-color="#082146" stop-opacity="0"/></linearGradient><linearGradient id="Degradado_sin_nombre_6" x1="197.3" y1="249.54" x2="405.27" y2="249.54" gradientUnits="userSpaceOnUse"><stop offset="0" stop-color="#043263" stop-opacity="0"/><stop offset="1" stop-color="#043263" stop-opacity="0.6"/></linearGradient><linearGradient id="Degradado_sin_nombre_7" x1="402.66" y1="165.36" x2="484.87" y2="165.36" gradientUnits="userSpaceOnUse"><stop offset="0" stop-color="#028484" stop-opacity="0.1"/><stop offset="1" stop-color="#028484" stop-opacity="0.6"/></linearGradient><linearGradient id="Degradado_sin_nombre_26" x1="278.39" y1="338.94" x2="297.77" y2="358.31" gradientUnits="userSpaceOnUse"><stop offset="0" stop-color="#fff" stop-opacity="0.6"/><stop offset="0.85" stop-color="#fff" stop-opacity="0.2"/></linearGradient><linearGradient id="Degradado_sin_nombre_11" x1="257.88" y1="422.96" x2="329.9" y2="422.96" gradientUnits="userSpaceOnUse"><stop offset="0.01" stop-color="#028484" stop-opacity="0"/><stop offset="1" stop-color="#028484" stop-opacity="0.5"/></linearGradient></defs><path class="cls-1" d="M537.87,261l-41.14-77.36-8.9-16.74h0L462.89,120a6.05,6.05,0,0,0-10.62-.14l-27,47.68-19.43,10.33a3.24,3.24,0,0,0-1.34,4.38l.85,1.6-43.75,23.26c-36.51,19.41-77.58,28-118.9,26.43a95.73,95.73,0,0,0-97.76,78.29L138.81,315a19.14,19.14,0,0,0-10,14.47,89.7,89.7,0,0,0,48.56,91.33,19.11,19.11,0,0,0,17.58-.21l6-3.21a96.16,96.16,0,0,0,35.93,7.89l15.33,12A242.27,242.27,0,0,1,311.6,505h0c.91,1.52,1.79,3.06,2.66,4.6s1.71,3.07,2.53,4.62a1.28,1.28,0,0,1,.11.2l4.3,8.08h0l.19-.1a3.25,3.25,0,0,0-1.34,4.39L329.71,545a6.49,6.49,0,0,0,8.77,2.68l56.32-29.94a6.49,6.49,0,0,0,2.68-8.77l-9.66-18.17a3.24,3.24,0,0,0-4.38-1.34l.18-.1h0l-4.88-9.19-14.08-26.48-8-15.09-1-1.85,6.05-3.22A3.23,3.23,0,0,0,363,429.1l-11.93-22.44h0l-5.93-11.15-2.8-5.27a3.23,3.23,0,0,0-3.14-1.71h0a3.24,3.24,0,0,0-1.23.37l-6.06,3.22-8.69-16.35a217.85,217.85,0,0,1,31.12-39.14q5.4-5.4,11.18-10.43a235.44,235.44,0,0,1,44.19-30.35l43-22.87.85,1.6a3.24,3.24,0,0,0,4.38,1.34l19.43-10.33L495.62,267l36.43,2.85a8.45,8.45,0,0,0,.87,0,6.07,6.07,0,0,0,5-8.9Z"/><path class="cls-2" d="M160.7,354.7l37.82,29.59a242.45,242.45,0,0,1,64.66,77.11l4.3,8.09L329.9,436.3l-19-35.67-52.16-98.09Z"/><path class="cls-3" d="M84.88,329.86a89.28,89.28,0,0,0,38.77,38,19.14,19.14,0,0,0,17.58-.21l79.9-42.48L165,219.55,85.09,262a19.14,19.14,0,0,0-10,14.46A89.16,89.16,0,0,0,84.88,329.86Z"/><path class="cls-4" d="M357.86,127.48l-50,26.58c-36.51,19.41-77.58,28-118.9,26.42a95.61,95.61,0,0,0-49.37,11.58C94,216.81,76.33,274.06,100,320.2a96,96,0,0,0,167.62,5.56c21.12-35.27,52.06-63.62,88.36-82.92l49.25-26.19Z"/><path class="cls-5" d="M357.86,127.48,315,150.28,197.3,371.59a96.15,96.15,0,0,0,70.36-45.83c21.12-35.27,52.06-63.62,88.36-82.92l49.25-26.19Z"/><path class="cls-2" d="M423.69,212.57l54.64,4.28a6.07,6.07,0,0,0,5.82-8.89l-75-141a6.06,6.06,0,0,0-10.62-.14l-27,47.69Z"/><path class="cls-3" d="M270.67,451.12h70.27a3.24,3.24,0,0,1,3.24,3.24v20.57a6.48,6.48,0,0,1-6.48,6.48H273.91a6.48,6.48,0,0,1-6.48-6.48V454.36A3.24,3.24,0,0,1,270.67,451.12Z" transform="translate(-183.11 198.15) rotate(-28)"/><path class="cls-3" d="M123,309.56c.81,1.52,1.66,3,2.57,4.42a3.26,3.26,0,0,0,4.27,1.13L248.58,252a3.23,3.23,0,0,0,1.45-4.17q-1-2.33-2.22-4.6t-2.57-4.41a3.24,3.24,0,0,0-4.27-1.13L122.19,300.79a3.26,3.26,0,0,0-1.45,4.17Q121.76,307.28,123,309.56Z"/><path class="cls-3" d="M174,344.16a1.08,1.08,0,0,0,.34,2,70.7,70.7,0,0,0,75.19-40,1.09,1.09,0,0,0-1.49-1.42Z"/><path class="cls-3" d="M141,331.39a69.77,69.77,0,0,0,9.52,6.48,3.22,3.22,0,0,0,3.1,0l100.55-53.46a3.25,3.25,0,0,0,1.72-2.58,71.49,71.49,0,0,0,0-11.52,3.25,3.25,0,0,0-4.76-2.62L141.48,326A3.25,3.25,0,0,0,141,331.39Z"/><path class="cls-3" d="M196.83,208.58a1.09,1.09,0,0,0-.34-2,70.7,70.7,0,0,0-75.19,40,1.08,1.08,0,0,0,1.49,1.42Z"/><path class="cls-3" d="M114.9,270.9a70.23,70.23,0,0,0,0,11.51,3.25,3.25,0,0,0,4.76,2.62L229.3,226.76a3.25,3.25,0,0,0,.48-5.41,70.06,70.06,0,0,0-9.52-6.48,3.23,3.23,0,0,0-3.09,0L116.62,268.32A3.22,3.22,0,0,0,114.9,270.9Z"/><path class="cls-3" d="M377.09,113.91h22a0,0,0,0,1,0,0V225a0,0,0,0,1,0,0h-22a3.24,3.24,0,0,1-3.24-3.24V117.15a3.24,3.24,0,0,1,3.24-3.24Z" transform="translate(-34.32 201.27) rotate(-28)"/><path class="cls-6" d="M289.48,333.78h6.86a3.24,3.24,0,0,1,3.24,3.24v44a3.24,3.24,0,0,1-3.24,3.24h-6.86a0,0,0,0,1,0,0v-50.5A0,0,0,0,1,289.48,333.78Z" transform="translate(-134.08 180.3) rotate(-28)"/><path class="cls-7" d="M484.15,208l-50-94.11L402.66,173l21,39.56,54.64,4.28A6.07,6.07,0,0,0,484.15,208Z"/><path class="cls-8" d="M288.66,337.23a3.23,3.23,0,0,0-4.38-1.34l-6.06,3.21,13.45,25.3,5.72-10.75Z"/><path class="cls-9" d="M310.94,400.63l-12.88-24.21L257.88,452c1.83,3.1,3.61,6.23,5.3,9.41l4.3,8.09L329.9,436.3Z"/><rect class="cls-10" width="600" height="600"/></svg>