<svg id="Contenido" xmlns="http://www.w3.org/2000/svg" xmlns:xlink="http://www.w3.org/1999/xlink" viewBox="0 0 600 600"><defs><style>.cls-1{fill:url(#Degradado_sin_nombre_47);}.cls-2{fill:#1464a5;}.cls-3{fill:#c64755;}.cls-4{fill:#69c8ca;}.cls-5{fill:#e9f3f4;}.cls-6{fill:#49a5e6;}.cls-7{fill:url(#Degradado_sin_nombre_71);}.cls-8{fill:url(#Degradado_sin_nombre_71-2);}</style><linearGradient id="Degradado_sin_nombre_47" x1="270.82" y1="214.05" x2="419.8" y2="494.24" gradientUnits="userSpaceOnUse"><stop offset="0" stop-color="#1a2746" stop-opacity="0.5"/><stop offset="1" stop-color="#1a2746" stop-opacity="0"/></linearGradient><linearGradient id="Degradado_sin_nombre_71" x1="458.98" y1="384.31" x2="252.35" y2="384.31" gradientUnits="userSpaceOnUse"><stop offset="0" stop-color="#043263" stop-opacity="0.4"/><stop offset="1" stop-color="#043263" stop-opacity="0.1"/></linearGradient><linearGradient id="Degradado_sin_nombre_71-2" x1="463.83" y1="252.76" x2="299.34" y2="252.76" xlink:href="#Degradado_sin_nombre_71"/></defs><title>values-day</title><path class="cls-1" d="M512.16,344.55a3.09,3.09,0,0,0,3.09-3.09h0A98.22,98.22,0,0,0,417,243.24H284.4a98.22,98.22,0,0,0-98.23,98.22h0a3.08,3.08,0,0,0,3.08,3.09h12.36v8.23h-2.05a13.37,13.37,0,1,0,0,26.73h2.05V395.8H194a3,3,0,0,0-3,3v11.34a42.55,42.55,0,0,0,42.55,42.55h71.29l-1.1,2.06h162.8a43.84,43.84,0,0,0,43.84-43.84V398.8a3,3,0,0,0-3-3h-7.58V379.51h2.05a13.37,13.37,0,1,0,0-26.73h-2.05v-8.23Z"/><path class="cls-2" d="M142.59,354.67H456a3,3,0,0,1,3,3V369a42.55,42.55,0,0,1-42.55,42.55H182.15A42.55,42.55,0,0,1,139.6,369V357.66A3,3,0,0,1,142.59,354.67Z"/><path class="cls-2" d="M137.84,202.1H460.75a3.09,3.09,0,0,1,3.09,3.09v0a98.23,98.23,0,0,1-98.23,98.23H233a98.23,98.23,0,0,1-98.23-98.23v0a3.09,3.09,0,0,1,3.09-3.09Z" transform="translate(598.58 505.52) rotate(180)"/><rect class="cls-3" x="150.19" y="338.38" width="298.23" height="16.45"/><rect class="cls-4" x="134.77" y="311.64" width="329.06" height="26.74" rx="13.37"/><path class="cls-5" d="M150.19,303.41v8.23h9.94a5.11,5.11,0,0,1,3.63,1.51l11.17,11.16a5.14,5.14,0,0,0,7.25,0l9.21-9.1a5.16,5.16,0,0,1,7.25,0l28.49,28.5a5.15,5.15,0,0,0,7.28,0l28.49-28.5a5.14,5.14,0,0,1,7.25,0l9.22,9.1a5.14,5.14,0,0,0,7.25,0l11.16-11.16a5.15,5.15,0,0,1,3.64-1.51h147v-8.23Z"/><rect class="cls-6" x="278.26" y="225.62" width="18.51" height="8.23" rx="4.11" transform="translate(361.32 -130.82) rotate(62.94)"/><rect class="cls-6" x="205.71" y="235.49" width="18.51" height="8.23" rx="4.11" transform="translate(524.86 152.54) rotate(116.21)"/><rect class="cls-6" x="247.04" y="265.29" width="18.51" height="8.23" rx="4.11" transform="matrix(0.96, 0.3, -0.3, 0.96, 91.29, -63.82)"/><rect class="cls-6" x="357.84" y="225.62" width="18.51" height="8.23" rx="4.11" transform="translate(-54.92 326.87) rotate(-45)"/><rect class="cls-6" x="175.2" y="270.3" width="18.51" height="8.23" rx="4.11" transform="translate(-128.99 169.16) rotate(-37.53)"/><rect class="cls-6" x="405.72" y="262.55" width="18.51" height="8.23" rx="4.11" transform="translate(179.02 699.84) rotate(-94.15)"/><rect class="cls-6" x="332.54" y="267.86" width="18.51" height="8.23" rx="4.11" transform="translate(3.17 547.88) rotate(-77.68)"/><path class="cls-7" d="M455.9,355H283.51l-31.16,58.61H415.14A43.84,43.84,0,0,0,459,369.77V358.08A3.08,3.08,0,0,0,455.9,355Z"/><path class="cls-8" d="M365.6,202.1H353.21L299.34,303.41H460.75a3.08,3.08,0,0,0,3.08-3.08h0A98.23,98.23,0,0,0,365.6,202.1Z"/></svg>