<svg xmlns="http://www.w3.org/2000/svg" xmlns:xlink="http://www.w3.org/1999/xlink" viewBox="0 0 600 600"><defs><style>.cls-1{fill:none;}.cls-2{fill:url(#Degradado_sin_nombre_456);}.cls-3{fill:#004481;}.cls-4{fill:#c64755;}.cls-5{fill:#69c8ca;}.cls-6{fill:#e9f3f4;}.cls-7{fill:#49a5e6;}.cls-8{fill:url(#Degradado_sin_nombre_114);}.cls-9{fill:url(#Degradado_sin_nombre_114-2);}</style><linearGradient id="Degradado_sin_nombre_456" x1="277.27" y1="217.91" x2="433.01" y2="510.82" gradientUnits="userSpaceOnUse"><stop offset="0" stop-color="#1a2746" stop-opacity="0.5"/><stop offset="1" stop-color="#1a2746" stop-opacity="0"/></linearGradient><linearGradient id="Degradado_sin_nombre_114" x1="479.2" y1="385.55" x2="242.62" y2="385.55" gradientUnits="userSpaceOnUse"><stop offset="0" stop-color="#072146" stop-opacity="0.8"/><stop offset="1" stop-color="#072146" stop-opacity="0"/></linearGradient><linearGradient id="Degradado_sin_nombre_114-2" x1="484.76" y1="4074.67" x2="295.44" y2="4074.67" gradientTransform="matrix(1, 0, 0, -1, 0, 4310)" xlink:href="#Degradado_sin_nombre_114"/></defs><title>11</title><g id="Cuadrados_Blancos" data-name="Cuadrados Blancos"><rect class="cls-1" width="600" height="600"/></g><g id="Capa_42" data-name="Capa 42"><path class="cls-2" d="M528.87,381.38a15.39,15.39,0,1,0,0-30.77h-2.35v-9.46h14.16a3.57,3.57,0,0,0,3.56-3.56A113.06,113.06,0,0,0,431.18,224.53H278.56A113.06,113.06,0,0,0,165.5,337.59a3.56,3.56,0,0,0,3.56,3.56h14.22v9.46h-2.36a15.39,15.39,0,1,0,0,30.77h2.36v18.75h-8.75a3.46,3.46,0,0,0-3.44,3.44v13.05a49,49,0,0,0,49,49H489.73a49,49,0,0,0,49-49v-13a3.46,3.46,0,0,0-3.45-3.45h-8.73V381.38Z"/><path class="cls-3" d="M115,352.63H475.75a3.46,3.46,0,0,1,3.45,3.45v13a49,49,0,0,1-49,49H160.57a49,49,0,0,1-49-49V356.07A3.46,3.46,0,0,1,115,352.63Z"/><path class="cls-3" d="M481.2,293.65H109.56a3.56,3.56,0,0,1-3.56-3.56h0A113.06,113.06,0,0,1,219.06,177H371.68A113.06,113.06,0,0,1,484.74,290.09h0a3.57,3.57,0,0,1-3.56,3.56Z"/><rect class="cls-4" x="123.78" y="333.88" width="343.24" height="18.93"/><path class="cls-5" d="M121.42,303.11h348a15.39,15.39,0,0,1,15.39,15.38h0a15.39,15.39,0,0,1-15.39,15.39H121.42A15.39,15.39,0,0,1,106,318.49h0A15.39,15.39,0,0,1,121.42,303.11Z"/><path class="cls-6" d="M123.78,293.63v9.48h11.44a5.9,5.9,0,0,1,4.18,1.73l12.86,12.85a5.92,5.92,0,0,0,8.34,0l10.6-10.47a5.92,5.92,0,0,1,8.34,0L212.33,340a5.93,5.93,0,0,0,8.38,0l32.79-32.8a5.91,5.91,0,0,1,8.35,0l10.61,10.47a5.92,5.92,0,0,0,8.34,0l12.85-12.85a5.91,5.91,0,0,1,4.19-1.73H467v-9.48Z"/><rect class="cls-7" x="277.12" y="198.19" width="9.47" height="21.3" rx="4.73" transform="translate(-64.15 151.08) rotate(-27.06)"/><rect class="cls-7" x="187.66" y="221.43" width="21.3" height="9.47" rx="4.73" transform="translate(-92.19 304.2) rotate(-63.79)"/><rect class="cls-7" x="241.39" y="246.42" width="9.53" height="21.43" rx="4.76" transform="translate(-72.7 415.38) rotate(-72.65)"/><rect class="cls-7" x="362.78" y="204.11" width="21.3" height="9.47" rx="4.73" transform="translate(-38.3 325.23) rotate(-45)"/><rect class="cls-7" x="152.57" y="261.53" width="21.3" height="9.47" rx="4.73" transform="translate(-128.42 154.54) rotate(-37.53)"/><rect class="cls-7" x="423.77" y="240.68" width="9.47" height="21.3" rx="4.73" transform="translate(-17.06 31.67) rotate(-4.15)"/><rect class="cls-7" x="333.67" y="252.73" width="21.3" height="9.47" rx="4.73" transform="translate(19.31 538.93) rotate(-77.68)"/><path class="cls-8" d="M475.65,353H277.22l-34.6,65.09H430.23a49,49,0,0,0,49-49V356.56A3.55,3.55,0,0,0,475.65,353Z"/><path class="cls-9" d="M371.7,177H357.44l-62,116.6H481.21a3.54,3.54,0,0,0,3.55-3.54h0A113.06,113.06,0,0,0,371.7,177Z"/></g></svg>