<svg id="Contenido" xmlns="http://www.w3.org/2000/svg" xmlns:xlink="http://www.w3.org/1999/xlink" viewBox="0 0 600 600"><defs><style>.cls-1{fill:url(#Degradado_sin_nombre_42);}.cls-2{fill:#f9c199;}.cls-3{fill:#f2dad4;}.cls-4{fill:#f49f65;}.cls-5{fill:url(#Degradado_sin_nombre_19);}.cls-6{fill:#f7b27f;}.cls-7{fill:#facba9;}.cls-8{fill:#2dcccd;}.cls-10,.cls-8{fill-rule:evenodd;}.cls-9{fill:#02a5a5;}.cls-10{fill:#1464a5;}.cls-11{fill:#004481;}</style><linearGradient id="Degradado_sin_nombre_42" x1="281.64" y1="153.39" x2="459.49" y2="487.89" gradientUnits="userSpaceOnUse"><stop offset="0" stop-color="#192647" stop-opacity="0.5"/><stop offset="1" stop-color="#192647" stop-opacity="0"/></linearGradient><linearGradient id="Degradado_sin_nombre_19" x1="10880.56" y1="-5208.37" x2="10744.38" y2="-5208.37" gradientTransform="translate(10922.9 5981.94) rotate(-126.25)" gradientUnits="userSpaceOnUse"><stop offset="0" stop-color="#d8722c"/><stop offset="1" stop-color="#d8722c" stop-opacity="0"/></linearGradient></defs><title>certificacion</title><path class="cls-1" d="M572.64,267.92a257.43,257.43,0,0,1-65.34-65.05,17,17,0,0,0-26-2.39l-22.52,22.63a17,17,0,0,0-2.18,21.28c1.11,1.72,2.25,3.43,3.43,5.15l-2.07,2.15s-18.63,17.57-44.19,23.82S368,281.81,350.8,292.8l-.8.51-.8-.51c-17.19-11-37.39-11-62.95-17.29s-44.19-23.82-44.19-23.82L240,249.54c1.18-1.72,2.32-3.43,3.43-5.15a17,17,0,0,0-2.18-21.28l-22.52-22.63a17,17,0,0,0-26,2.39A252.41,252.41,0,0,1,163,238.34a252.47,252.47,0,0,1-35.61,29.58,17,17,0,0,0-2.49,26l22.52,22.62a17,17,0,0,0,21.27,2.27c1.33-.85,2.67-1.74,4-2.63,3.54,4.71,11.41,16.05,15.94,25.19,5.8,11.71,13.38,27,24.38,41.71a786.6,786.6,0,0,0,51.62,61.59c.13.13.27.28.39.42a12.83,12.83,0,0,0,1.34,17.48h0a12.83,12.83,0,0,0,16.6.66l3.3,3.2L272.07,480.9a13.91,13.91,0,0,0-3.51,6.08c0,.16-.07.32-.1.48a13.37,13.37,0,0,0-.37,2.35,14,14,0,0,0,2.7,9.22,14.38,14.38,0,0,0,1.81,2,14,14,0,0,0,6.81,3.43,13.84,13.84,0,0,0,2.8.27,12.26,12.26,0,0,0,1.48-.1,14.12,14.12,0,0,0,2-.39c.25-.06.49-.14.73-.22a14.13,14.13,0,0,0,5.3-3.14c4.27-4.06,9.65-9.18,15.37-14.65l3.62,3.36-4.91,4.86-1,1c-.32.32-.62.65-.9,1a12.46,12.46,0,0,0-2.66,5.86,12.51,12.51,0,0,0,3.88,11.31h0a12.49,12.49,0,0,0,9.63,3.25l.2,0a13.68,13.68,0,0,0,1.91-.36l.59-.18a12.54,12.54,0,0,0,4.72-2.79l7.39-6.95a10.65,10.65,0,0,0,5.84,1.36c.32.32.62.64.91.94a8.44,8.44,0,0,0,9.9-10.39l-.77-.81a10.65,10.65,0,0,0-1.08-5.06c1.23-1.15,2.48-2.34,3.78-3.57l1.82-1.72,1.82,1.72c1.3,1.23,2.55,2.42,3.78,3.57q-.27.56-.48,1.11c-.11.33-.21.66-.29,1a10.62,10.62,0,0,0-.12,4.59,11.38,11.38,0,0,0,.29,1.15,5.08,5.08,0,0,0,.17.51,10.48,10.48,0,0,0,2.79,4.18A10.58,10.58,0,0,0,365.1,508h0c.36,0,.72,0,1.08-.06a10.62,10.62,0,0,0,4.17-1.33l7.39,6.95a12.43,12.43,0,0,0,8.81,3.39l1.49,1.41a10.49,10.49,0,0,0,9-2.39A10.64,10.64,0,0,0,400,505.31l-1.08-1a12.42,12.42,0,0,0-3.72-8.81c-1.79-1.76-3.78-3.73-5.91-5.85l.63-.58.32-.3c.55-.5,1.1-1,1.65-1.54l.56-.51.46-.43c5.72,5.47,11.1,10.59,15.37,14.65a14,14,0,0,0,9.84,3.84l1.11,1.1a11,11,0,0,0,13.72-13.29l-1-1a13.94,13.94,0,0,0-4-10.64l-14.16-14.47a.23.23,0,0,0,.07-.07l.6-.57,1.43-1.39.7-.68.5-.49a12.8,12.8,0,0,0,7.43,2.71c.22.25.44.49.64.73a11.07,11.07,0,0,0,10.23-2.36,10.81,10.81,0,0,0,3.31-9.3l-.88-1a12.82,12.82,0,0,0-2.79-8.9c.12-.14.26-.29.39-.42,1.57-1.68,3.11-3.36,4.64-5h0l2.28-2.5,1.31-1.45q1.91-2.12,3.77-4.22l.29-.33c1.15-1.29,2.28-2.58,3.4-3.85.42-.48.82-1,1.24-1.43l2.35-2.71,1.4-1.64,2.08-2.43,1.45-1.71c.65-.76,1.29-1.53,1.92-2.28l1.46-1.74,1.8-2.17,1.43-1.72,1.72-2.1,1.37-1.67c.56-.69,1.11-1.36,1.65-2l1.32-1.63,1.57-2,1.25-1.57,1.52-1.92,1.16-1.46,1.49-1.91,1-1.33,1.48-1.91c.3-.4.62-.8.91-1.19l1.53-2,.71-.93,2.07-2.75c11-14.67,18.58-30,24.38-41.71,4.53-9.14,12.4-20.48,15.94-25.19,1.33.89,2.67,1.78,4,2.63a17,17,0,0,0,21.27-2.27l22.52-22.62A17,17,0,0,0,572.64,267.92ZM304,442.87l2.64,2.58L305.17,447c-.82-1-1.6-2-2.32-3Zm44.48,3,.41-.4,1.13-1.12,1.54,1.52L350,447.61Zm-20.52,20.33,2.93,2.83c-1.35,1.45-2.65,2.84-3.88,4.14-1-1-1.93-2.12-2.9-3.22C325.4,468.66,326.68,467.42,327.94,466.18Zm41.64,2.4,2.48-2.4c1.26,1.24,2.54,2.48,3.85,3.75-1,1.1-1.94,2.18-2.9,3.22-1.23-1.3-2.53-2.69-3.88-4.14Z"/><path class="cls-2" d="M407.94,194.69s-18.63,17.57-44.19,23.82S318,224.81,300.8,235.8c-20.05,12.82-29.47,20.39-47.06,29.65s-27.64,10.77-27.86,15.94,8.49,14.22,15,14.81c9.14.83,18,1,29.63-3.14a149.43,149.43,0,0,0,26.37-12.53c4-2.53,4.52,0,.09,7.1S260.59,333.51,247.09,350c-9.14,11.17-23,27.46-31.82,37.73a12.84,12.84,0,0,0,1.06,17.84h0a12.85,12.85,0,0,0,17.64-.23c8-7.76,20.12-19.54,30.35-29.59,11.35-11.16,20.66-19.68,25.57-24.1a.25.25,0,0,1,.36.36L261.42,383.4c-4.36,4.74-26.18,27.06-39.35,40.5a14,14,0,0,0,.53,20.16h0a14,14,0,0,0,19.16-.15c12.28-11.66,33.6-32,46.47-44.86,12.34-12.33,21.64-21.5,26.61-26.38a.26.26,0,0,1,.38.35c-8.47,9.89-29.51,34.29-41.3,46.33-7.13,7.28-13.92,14-19.08,19.12a12.52,12.52,0,0,0,.32,18.15h0a12.52,12.52,0,0,0,17-.1c5.69-5.34,14.29-13.44,26-24.48,19.61-18.52,45.27-43.63,53.12-51.34a.26.26,0,0,1,.39.34c-5.07,6.72-18.82,24.63-30.53,37.11-6,6.34-10.52,11.3-13.86,15a10.66,10.66,0,0,0,.66,15h0a10.65,10.65,0,0,0,14.39,0c14.29-13,46.24-42.46,63-60.5A786.6,786.6,0,0,0,437,326.08c11-14.67,18.58-30,24.38-41.71s17.1-27,17.73-27.38-66.76-66.9-66.76-66.9Z"/><path class="cls-3" d="M248.68,266.63c1.53,3.61,4.76,11.67,3.44,12.36-1.69.9-4.08,3.1-10.47,5.4s-11.05-.75-13-3.15a16.25,16.25,0,0,1-2.15-3.81C229.66,274.58,237.31,272.25,248.68,266.63Z"/><path class="cls-4" d="M285.9,302.21c-11.78,14.87-29.59,36.53-38.81,47.79s-23,27.46-31.82,37.73A12.86,12.86,0,0,0,234,405.34c8-7.76,20.12-19.54,30.35-29.59,11.35-11.16,20.66-19.68,25.57-24.1a.25.25,0,0,1,.36.36L261.42,383.4c-4.36,4.74-26.18,27.06-39.35,40.5a14,14,0,0,0,19.69,20c12.28-11.66,33.6-32,46.47-44.86,12.34-12.33,21.64-21.5,26.61-26.38a.26.26,0,0,1,.38.35c-8.47,9.89-29.51,34.29-41.3,46.33-7.13,7.28-13.92,14-19.08,19.12a12.52,12.52,0,0,0,.32,18.15h0a12.52,12.52,0,0,0,17-.1c5.69-5.34,14.29-13.44,26-24.48,19.61-18.52,45.27-43.63,53.12-51.34a.26.26,0,0,1,.39.34c-5.07,6.72-18.82,24.63-30.53,37.11-6,6.34-10.52,11.3-13.86,15a10.66,10.66,0,0,0,15.05,15.07c11.88-10.82,35.95-33,53.39-50.52C379.29,394.09,291.38,295.31,285.9,302.21Z"/><path class="cls-5" d="M304.13,281.53l34.27,36c7.81,7.4,44.75,48.11,55.35,58.11l-8.64,9.2L344.6,414.57l-29.52-47.79a125.56,125.56,0,0,0-11.79-16.09l-20.74-24a22.56,22.56,0,0,1,3.74-32.93h0C295.09,287.28,296.21,274,304.13,281.53Z"/><path class="cls-6" d="M192.06,194.69s18.63,17.57,44.19,23.82,45.76,6.3,62.95,17.29c20.05,12.82,29.47,20.39,47.06,29.65s27.64,10.77,27.86,15.94-8.49,14.22-15,14.81c-9.14.83-18,1-29.63-3.14a149.43,149.43,0,0,1-26.37-12.53c-4-2.53-11-9.37-.09,7.1,4.62,7,36.37,45.88,49.87,62.37,9.14,11.17,23,27.46,31.82,37.73a12.84,12.84,0,0,1-1.06,17.84h0a12.85,12.85,0,0,1-17.64-.23c-8-7.76-20.12-19.54-30.35-29.59-11.35-11.16-20.66-19.68-25.57-24.1a.25.25,0,0,0-.36.36l28.83,31.39c4.36,4.74,26.18,27.06,39.35,40.5a14,14,0,0,1-.53,20.16h0a14,14,0,0,1-19.16-.15c-12.28-11.66-33.6-32-46.47-44.86-12.34-12.33-21.64-21.5-26.61-26.38a.26.26,0,0,0-.38.35c8.47,9.89,29.51,34.29,41.3,46.33,7.13,7.28,13.92,14,19.08,19.12a12.52,12.52,0,0,1-.32,18.15h0a12.52,12.52,0,0,1-17-.1c-5.69-5.34-14.29-13.44-26-24.48-19.61-18.52-45.27-43.63-53.12-51.34a.26.26,0,0,0-.39.34c5.07,6.72,18.82,24.63,30.53,37.11,6,6.34,10.52,11.3,13.86,15a10.66,10.66,0,0,1-.66,15h0a10.65,10.65,0,0,1-14.39,0c-14.29-13-46.24-42.46-63-60.5A786.6,786.6,0,0,1,163,326.08c-11-14.67-18.58-30-24.38-41.71s-17.1-27-17.73-27.38,66.76-66.9,66.76-66.9Z"/><path class="cls-7" d="M351.32,266.63c-1.53,3.61-4.76,11.67-3.44,12.36,1.69.9,4.08,3.1,10.47,5.4s11-.75,13-3.15a16.25,16.25,0,0,0,2.15-3.81C370.34,274.58,362.69,272.25,351.32,266.63Z"/><path class="cls-7" d="M366.43,399.72c.59.82,5.65,6.47,8.71,9.95a11.07,11.07,0,0,0,10.23-2.36,10.81,10.81,0,0,0,3.31-9.3c-2.94-3.42-8.27-9.44-8.72-9.91-.74-.78-6.08-.31-9.82,3.22C366.14,395.09,365.39,398.29,366.43,399.72Z"/><path class="cls-7" d="M372,424.5c-.86-.79-6.44.18-10.07,4.32-3.88,4.42-4.38,7.95-3.15,9.41.68.82,6.91,7.14,10.42,10.62a11.58,11.58,0,0,0,10.47-2.47h0a11.51,11.51,0,0,0,3.25-10.82C379.46,432.07,372.53,425,372,424.5Z"/><path class="cls-7" d="M350,448.31c-3.28-3.13-8.69-8.39-9.19-8.82-.81-.7-5.94.33-9.16,4.25-3.44,4.2-3.78,7.48-2.6,8.81.67.75,5.69,5.6,9.08,8.77a10.49,10.49,0,0,0,9-2.39h0A10.64,10.64,0,0,0,350,448.31Z"/><path class="cls-7" d="M293.77,449.85a8.81,8.81,0,0,0,2.48-8.37c-2.54-2.7-6.87-7.28-7.26-7.64-.64-.62-4.92-.07-7.75,2.93-3,3.22-3.46,5.86-2.55,7,.54.67,4.93,5.27,7.66,8.1A8.73,8.73,0,0,0,293.77,449.85Z"/><path class="cls-8" d="M168.72,143.48a17,17,0,0,0-26,2.38A251.91,251.91,0,0,1,113,181.34a252.47,252.47,0,0,1-35.61,29.58,17,17,0,0,0-2.49,26l22.52,22.62a17,17,0,0,0,21.27,2.27,247.69,247.69,0,0,0,41.26-33.31,248.06,248.06,0,0,0,33.5-41.11,17,17,0,0,0-2.18-21.28Z"/><circle class="cls-9" cx="102.08" cy="231.95" r="10.67"/><path class="cls-2" d="M407.94,194.69s-18.63,17.57-44.19,23.82S318,224.81,300.8,235.8c-20.05,12.82-29.47,20.39-47.06,29.65s-27.64,10.77-27.86,15.94,8.49,14.22,15,14.81c9.14.83,18,1,29.63-3.14a166.41,166.41,0,0,0,26.37-12.53c12-7,76.67,68.57,92.52,86.25,1.53,1.72-.87,17.52.66,15.84,20-21.91,36.76-42.91,47-56.54,11-14.67,18.58-30,24.38-41.71s17.1-27,17.73-27.38-66.76-66.9-66.76-66.9Z"/><path class="cls-10" d="M431.28,143.48a17,17,0,0,1,26,2.38A251.91,251.91,0,0,0,487,181.34a252.47,252.47,0,0,0,35.61,29.58,17,17,0,0,1,2.49,26l-22.52,22.62a17,17,0,0,1-21.27,2.27,247.69,247.69,0,0,1-41.26-33.31,248.06,248.06,0,0,1-33.5-41.11,17,17,0,0,1,2.18-21.28Z"/><circle class="cls-11" cx="497.92" cy="231.95" r="10.67"/><path class="cls-3" d="M248.68,266.63c1.53,3.61,4.76,11.67,3.44,12.36-1.69.9-4.08,3.1-10.47,5.4s-11.05-.75-13-3.15a16.25,16.25,0,0,1-2.15-3.81C229.66,274.58,237.31,272.25,248.68,266.63Z"/></svg>