<svg id="Capa_1" data-name="Capa 1" xmlns="http://www.w3.org/2000/svg" xmlns:xlink="http://www.w3.org/1999/xlink" viewBox="0 0 600 600"><defs><style>.cls-1{fill:url(#Degradado_sin_nombre_39);}.cls-2{fill:#ffcc28;}.cls-3{fill:url(#Degradado_sin_nombre_5);}.cls-4{fill:#003267;}.cls-5{fill:#cdeefe;}.cls-6{fill:#ff9098;}.cls-7{fill:url(#Degradado_sin_nombre_25);}</style><linearGradient id="Degradado_sin_nombre_39" x1="266.23" y1="174.1" x2="427.76" y2="477.9" gradientUnits="userSpaceOnUse"><stop offset="0" stop-color="#142649" stop-opacity="0.5"/><stop offset="1" stop-color="#142649" stop-opacity="0"/></linearGradient><linearGradient id="Degradado_sin_nombre_5" x1="145.14" y1="195.3" x2="298.17" y2="276.67" gradientUnits="userSpaceOnUse"><stop offset="0" stop-color="#fff" stop-opacity="0.6"/><stop offset="1" stop-color="#fff" stop-opacity="0.2"/></linearGradient><linearGradient id="Degradado_sin_nombre_25" x1="347.83" y1="328.06" x2="302.07" y2="328.06" gradientUnits="userSpaceOnUse"><stop offset="0" stop-color="#d43a5d" stop-opacity="0.6"/><stop offset="1" stop-color="#d43a5d" stop-opacity="0.1"/></linearGradient></defs><title>emoticonos-feedback</title><path class="cls-1" d="M519,325.9A172,172,0,1,1,346.89,154,172,172,0,0,1,519,325.9"/><path class="cls-2" d="M469,276.09c0,95.08-77.12,172-171.87,172S125,370.91,125,276.09s77.12-172,171.87-172h0c95,0,172.13,76.91,172.13,172"/><path class="cls-3" d="M296.84,104.09c-94.75,0-171.87,77.17-171.87,172,0,66.09,37.6,123.62,92.47,152.4L378,124.35A171.58,171.58,0,0,0,296.84,104.09Z"/><path class="cls-4" d="M250.22,192.61a43.31,43.31,0,0,1,22.48,6,3,3,0,0,0,4.52-3.25,27.95,27.95,0,0,0-54,0,3,3,0,0,0,4.51,3.25A43.31,43.31,0,0,1,250.22,192.61Z"/><path class="cls-4" d="M343.78,192.61a43.31,43.31,0,0,1,22.48,6,3,3,0,0,0,4.51-3.25,27.95,27.95,0,0,0-54,0,3,3,0,0,0,4.52,3.25A43.31,43.31,0,0,1,343.78,192.61Z"/><path class="cls-4" d="M389.75,248.78c-4.34-1.39-8.85-2.67-13.49-3.87-22,9.12-49.44,14.55-79.26,14.55s-57.3-5.43-79.26-14.55c-4.64,1.2-9.15,2.48-13.49,3.87a22.94,22.94,0,0,0-14,31C206.35,316.8,248.07,343.2,297,343.2s90.65-26.4,106.73-63.46A22.94,22.94,0,0,0,389.75,248.78Z"/><path class="cls-5" d="M297,259.46c29.85,0,57.35-5.44,79.33-14.58-23.43-6-50.49-9.48-79.33-9.48s-55.9,3.46-79.33,9.48C239.65,254,267.15,259.46,297,259.46Z"/><path class="cls-6" d="M297,343.32a129.13,129.13,0,0,0,50.83-10.23,66.56,66.56,0,0,0-101.66,0A129.13,129.13,0,0,0,297,343.32Z"/><path class="cls-7" d="M318.19,312.91l-16.12,30.3a128.39,128.39,0,0,0,45.76-10.12A64.64,64.64,0,0,0,318.19,312.91Z"/></svg>