<svg xmlns="http://www.w3.org/2000/svg" xmlns:xlink="http://www.w3.org/1999/xlink" viewBox="0 0 600 600"><defs><style>.cls-1{fill:none;}.cls-2{fill:url(#Degradado_sin_nombre_115);}.cls-3{fill:#043263;}.cls-4{fill:#49a5e6;}.cls-5{opacity:0.5;fill:url(#Degradado_sin_nombre_24);}.cls-5,.cls-7,.cls-8{isolation:isolate;}.cls-6,.cls-7,.cls-8{fill:#f8cd50;}.cls-7{opacity:0.6;}.cls-8{opacity:0.2;}.cls-9{fill:url(#Degradado_sin_nombre_23);}.cls-10{fill:#f7b27f;}.cls-11{fill:#2dcccd;}.cls-12{fill:#02a5a5;}.cls-13{fill:#facba9;}</style><linearGradient id="Degradado_sin_nombre_115" x1="242.57" y1="5637.93" x2="475.32" y2="5200.19" gradientTransform="matrix(1, 0, 0, -1, 0, 5770)" gradientUnits="userSpaceOnUse"><stop offset="0" stop-color="#192647" stop-opacity="0.5"/><stop offset="1" stop-color="#192647" stop-opacity="0"/></linearGradient><linearGradient id="Degradado_sin_nombre_24" x1="198.83" y1="5593.78" x2="288.53" y2="5504.08" gradientTransform="matrix(1, 0, 0, -1, 0, 5770)" gradientUnits="userSpaceOnUse"><stop offset="0" stop-color="#fff" stop-opacity="0.5"/><stop offset="1" stop-color="#eaf5f6" stop-opacity="0.1"/></linearGradient><linearGradient id="Degradado_sin_nombre_23" x1="253.78" y1="5552.04" x2="279.11" y2="5526.7" gradientTransform="matrix(1, 0, 0, -1, 0, 5770)" gradientUnits="userSpaceOnUse"><stop offset="0" stop-color="#fff" stop-opacity="0.6"/><stop offset="1" stop-color="#fff" stop-opacity="0.1"/></linearGradient></defs><title>6</title><g id="Cuadrados_Blancos" data-name="Cuadrados Blancos"><rect class="cls-1" width="600" height="600"/></g><g id="Capa_16" data-name="Capa 16"><path class="cls-2" d="M507,539.06l-8.62-26.33a14.79,14.79,0,0,0-15.61-10.06h-.32c-.93-4-3.56-18.85-3.73-29.65-.2-12.39-.45-28.6-3.89-45.64s-9.28-41.77-18.32-71.11c-2.79-9.06-4.13-13.9-5.74-18.82a14.57,14.57,0,0,0-17.46-9.75,14.29,14.29,0,0,0-10.51,13c0,.44-.17.46-.27,0a9.74,9.74,0,0,0-.31-1.09,15.76,15.76,0,0,0-19.78-10.06V147.82a20,20,0,0,0-20-20H255.57a20,20,0,0,0-20,20v256a20,20,0,0,0,20,20H306c4.49,7.35,8.92,15.13,15.39,25.49,10.25,16.42,27.53,24.69,46.87,40.44s28.13,38.39,28.13,38.39l.76,2.29c-.47.28-1,.54-1.43.82a14.77,14.77,0,0,0-6.62,17.35l8.62,26.33a14.73,14.73,0,0,0,18.59,9.4,14.33,14.33,0,0,0,2.51-1.09,223.8,223.8,0,0,1,76.05-24.92,14.72,14.72,0,0,0,12.77-16.44A14.39,14.39,0,0,0,507,539.06Z"/><rect class="cls-3" x="189.77" y="90.5" width="166.81" height="295.91" rx="19.98"/><rect class="cls-4" x="189.77" y="128.21" width="166.81" height="220.48"/><polygon class="cls-5" points="189.77 128.34 189.77 348.56 214.1 348.7 332.26 128.24 317.34 128.24 189.77 128.34"/><path class="cls-6" d="M273.87,265a27.8,27.8,0,1,1,27.81-27.8A27.8,27.8,0,0,1,273.87,265Zm0-46.34a18.54,18.54,0,1,0,18.54,18.54,18.54,18.54,0,0,0-18.54-18.54Z"/><path class="cls-7" d="M273.87,288.6a51.44,51.44,0,1,1,51.44-51.44h0A51.49,51.49,0,0,1,273.87,288.6Zm0-92.67a41.24,41.24,0,1,0,41.24,41.24h0a41.3,41.3,0,0,0-41.24-41.24Z"/><path class="cls-8" d="M273.87,311.31A74.14,74.14,0,1,1,348,237.16h0A74.24,74.24,0,0,1,273.87,311.31Zm0-139a64.87,64.87,0,1,0,64.88,64.87,64.87,64.87,0,0,0-64.88-64.87Z"/><path class="cls-9" d="M255.34,237.17a18.52,18.52,0,0,1,27.29-16.33l4.38-8.17a27.8,27.8,0,1,0-26.71,48.76l.44.24,4.38-8.17A18.55,18.55,0,0,1,255.34,237.17Z"/><path class="cls-10" d="M387.45,290.41a14.28,14.28,0,0,0-10.51,12.95c0,.44-.17.46-.27,0a9.16,9.16,0,0,0-.31-1.09,15.76,15.76,0,0,0-30.72,4.46c0,.33-.14.34-.23,0s-.13-.46-.21-.69a15.57,15.57,0,0,0-30.32,6,.28.28,0,0,1-.25.31.29.29,0,0,1-.29-.18c-3.4-9-9-24.09-13-35.05-4.67-12.78-11.71-32.2-15.4-42.09a12.18,12.18,0,0,0-15-7.39h0a12.19,12.19,0,0,0-8.17,14.85c3.38,12.39,10.05,36.37,13.33,49.65C281,311.82,292.48,358,293.4,365.9s-.59,9.84-3,6A142.61,142.61,0,0,0,273,350.55c-8.3-8.3-15.93-11.75-24.09-14.75-5.81-2.14-16.94,2.06-18.86,6.58s6.07,9.89,17.36,25,16.27,25.41,28.22,44.55c10.24,16.41,27.52,24.68,46.86,40.44s28.13,38.39,28.13,38.39l1.92,5.74s84.79-29.54,84.39-30.1-3.82-18.28-4-30.66-.45-28.6-3.89-45.64-9.28-41.76-18.32-71.11c-2.78-9.05-4.13-13.9-5.74-18.82A14.55,14.55,0,0,0,387.45,290.41Z"/><path class="cls-11" d="M351.9,537.52a14.73,14.73,0,0,0,18.59,9.4,14.33,14.33,0,0,0,2.51-1.09,224.29,224.29,0,0,1,76.06-24.92,14.72,14.72,0,0,0,12.69-16.52,14.41,14.41,0,0,0-.6-2.66l-8.63-26.33a14.78,14.78,0,0,0-15.61-10.07,222.11,222.11,0,0,0-87,28.51,14.8,14.8,0,0,0-6.62,17.35Z"/><circle class="cls-12" cx="436.35" cy="495.54" r="9.26"/><path class="cls-13" d="M243.51,364.29c2.77-2.46,8.82-8.05,8-9.18-1.09-1.46-2.23-4.32-6.78-8.88a10.73,10.73,0,0,0-12.37-2.59A15.22,15.22,0,0,0,229,346C230.46,349.75,236.06,354.85,243.51,364.29Z"/><path class="cls-13" d="M283.3,239.79c-.17-.94-2.2-7.83-3.4-12.06a10.45,10.45,0,0,0-9.71-2.15,10.26,10.26,0,0,0-6.63,6.61c1.12,4.13,3.24,11.45,3.43,12,.32,1,5.08,2.74,9.72,1.24C281.67,243.88,283.61,241.44,283.3,239.79Z"/></g></svg>