<svg id="Contenido" xmlns="http://www.w3.org/2000/svg" xmlns:xlink="http://www.w3.org/1999/xlink" viewBox="0 0 600 600"><defs><style>.cls-1{fill:none;}.cls-2{fill:url(#Degradado_sin_nombre);}.cls-3{fill:#043263;}.cls-4{fill:#02a5a5;}.cls-5{fill:#028484;}.cls-6{fill:#072146;}.cls-7{fill:#56e2de;}.cls-8{fill:#2dcccd;}.cls-9{fill:#49a5e6;}.cls-10{opacity:0.5;isolation:isolate;fill:url(#Degradado_sin_nombre_2);}.cls-11{fill:#08467f;}.cls-12{fill:#d4edfc;}</style><linearGradient id="Degradado_sin_nombre" x1="220.69" y1="535.13" x2="484.66" y2="38.66" gradientTransform="matrix(1, 0, 0, -1, 0, 602)" gradientUnits="userSpaceOnUse"><stop offset="0" stop-color="#192647" stop-opacity="0.5"/><stop offset="1" stop-color="#192647" stop-opacity="0"/></linearGradient><linearGradient id="Degradado_sin_nombre_2" x1="241.89" y1="1242.07" x2="344.74" y2="1344.91" gradientTransform="translate(0 -902)" gradientUnits="userSpaceOnUse"><stop offset="0" stop-color="#fff" stop-opacity="0.5"/><stop offset="1" stop-color="#ecf7f8" stop-opacity="0.1"/></linearGradient></defs><title>mobile-Health-insurance</title><rect class="cls-1" width="600" height="600"/><path class="cls-2" d="M527.49,247l-.11-.11c-9.19-51.11-83.56-112.84-174.79-115V119a5,5,0,0,0-10,0v12.86c-91.24,2.19-165.62,63.93-174.78,115l-.1.09h.08l-.09.44.46-.32C206.29,259,217,262.68,249.65,282.39h0c32.68-2.19,61.89.46,93,7.38v29H286a13.77,13.77,0,0,0-13.73,13.81h0V565A13.77,13.77,0,0,0,286,578.74H410.17A13.77,13.77,0,0,0,423.93,565V324.54a13.78,13.78,0,0,0-13.76-13.8H352.6V289.79c31.08-6.93,60.31-9.58,93-7.39h0c32.6-19.71,43.33-23.4,81.4-35.25l.44.32a2,2,0,0,0-.08-.43Z"/><path class="cls-3" d="M297.84,102.8a5,5,0,0,1-5-5V72a5,5,0,0,1,10,0V97.8A5,5,0,0,1,297.84,102.8Z"/><path class="cls-4" d="M118,200c38.5,12,49.17,15.6,81.94,35.38l98-137C233.47,109.36,174.25,147.08,118,200Z"/><path class="cls-5" d="M199.9,235.39c34.42-2.3,65,.75,98,8.52V98.38C254.84,141.05,220.53,186.23,199.9,235.39Z"/><path class="cls-4" d="M477.74,200c-38.5,12-49.17,15.6-81.94,35.38l-98-137C362.23,109.36,421.45,147.08,477.74,200Z"/><path class="cls-5" d="M395.84,235.39c-34.42-2.3-65,.75-97.95,8.52V98.38C338.84,141.15,372.47,186.46,395.84,235.39Z"/><rect class="cls-6" x="292.85" y="142.63" width="10.47" height="224.38"/><path class="cls-7" d="M297.84,84.8c-93.84,0-171,63.51-179.89,115.66,23.92-17.22,53.79-27.3,89.94-27.64h0Q224.54,120.09,297.84,84.8Z"/><path class="cls-7" d="M297.84,84.8c93.84,0,171,63.51,179.89,115.66-23.89-17.22-53.78-27.3-89.89-27.64h0Q371.18,120.09,297.84,84.8Z"/><path class="cls-8" d="M387.84,172.82q-16.62-52.73-89.95-88h0q-73.32,35.3-89.95,88c36-10.32,58.77-12.46,89.95-7.12h0C329,160.36,351.78,162.5,387.84,172.82Z"/><path class="cls-3" d="M236.25,260.79H359.53a14.76,14.76,0,0,1,14.73,14.78h0V517a14.75,14.75,0,0,1-14.73,14.73H236.25A14.74,14.74,0,0,1,221.52,517h0V275.6a14.78,14.78,0,0,1,14.71-14.81Z"/><rect class="cls-9" x="221.52" y="294.8" width="152.8" height="202.87"/><polygon class="cls-10" points="221.72 294.93 221.72 497.53 299.59 497.66 374.26 359.67 374.26 294.8 221.72 294.93"/><circle class="cls-11" cx="297.88" cy="396.22" r="44.32"/><path class="cls-12" d="M319.46,388.57H305.54V374.66a.77.77,0,0,0-.74-.8H291a.8.8,0,0,0-.8.78h0v13.92H276.32a.78.78,0,0,0-.79.78h0v13.75a.78.78,0,0,0,.77.79h13.93V417.8a.79.79,0,0,0,.8.79h13.74a.78.78,0,0,0,.78-.79h0V403.88h13.92a.77.77,0,0,0,.76-.79V389.36A.79.79,0,0,0,319.46,388.57Z"/></svg>