<svg xmlns="http://www.w3.org/2000/svg" xmlns:xlink="http://www.w3.org/1999/xlink" viewBox="0 0 600 600"><defs><style>.cls-1{fill:none;}.cls-2{fill:url(#Degradado_sin_nombre_167);}.cls-3{fill:#072146;}.cls-4{fill:#49a5e6;}.cls-5{fill:url(#Degradado_sin_nombre_70);}.cls-6{fill:#043263;}.cls-7{fill:#d4edfc;}.cls-8{fill:url(#Degradado_sin_nombre_39);}</style><linearGradient id="Degradado_sin_nombre_167" x1="258.96" y1="-6793.57" x2="455.38" y2="-7162.98" gradientTransform="matrix(1, 0, 0, -1, 0, -6614)" gradientUnits="userSpaceOnUse"><stop offset="0" stop-color="#192647" stop-opacity="0.5"/><stop offset="1" stop-color="#192647" stop-opacity="0"/></linearGradient><linearGradient id="Degradado_sin_nombre_70" x1="498.8" y1="-6924.51" x2="231.25" y2="-6924.51" gradientTransform="matrix(1, 0, 0, -1, 0, -6614)" gradientUnits="userSpaceOnUse"><stop offset="0" stop-color="#004481" stop-opacity="0.6"/><stop offset="1" stop-color="#004481" stop-opacity="0"/></linearGradient><linearGradient id="Degradado_sin_nombre_39" x1="370.82" y1="-6938.38" x2="282.73" y2="-6938.38" gradientTransform="matrix(1, 0, 0, -1, 0, -6614)" gradientUnits="userSpaceOnUse"><stop offset="0" stop-color="#043263" stop-opacity="0.1"/><stop offset="1" stop-color="#043263" stop-opacity="0"/></linearGradient></defs><title>13</title><g id="Cuadrados_Blancos" data-name="Cuadrados Blancos"><rect class="cls-1" width="600" height="600"/></g><g id="Capa_37" data-name="Capa 37"><path class="cls-2" d="M527.62,221.26H483.53v3.22H423.31V206.2a24.73,24.73,0,0,0-24.73-24.73H319a24.73,24.73,0,0,0-24.73,24.73h0v18.28H230.83v-3.22H186.74A24.73,24.73,0,0,0,162,246v44.11h3.22V438.47H162v44.09a24.74,24.74,0,0,0,24.73,24.74h44.09v-3.23h252.7v3.23h44.09a24.74,24.74,0,0,0,24.73-24.74V246A24.73,24.73,0,0,0,527.62,221.26ZM309.33,205.08a9.64,9.64,0,0,1,9.62-9.63h79.68a9.63,9.63,0,0,1,9.63,9.63h0v19.4H309.33Z"/><path class="cls-3" d="M345,127.7H265.45a24.74,24.74,0,0,0-24.73,24.74v18.28h15.05V151.31a9.63,9.63,0,0,1,9.63-9.63h79.68a9.64,9.64,0,0,1,9.62,9.63v19.41h15.06V152.44A24.74,24.74,0,0,0,345,127.7Z"/><path class="cls-4" d="M133.18,170.72H474.06a24.73,24.73,0,0,1,24.73,24.73h0V425.57a24.73,24.73,0,0,1-24.73,24.73H136.41a24.73,24.73,0,0,1-24.73-24.73h0V192.22A21.52,21.52,0,0,1,133.18,170.72Z"/><path class="cls-5" d="M474.06,170.72h-91L231.25,450.3H474.06a24.74,24.74,0,0,0,24.74-24.73V195.45A24.74,24.74,0,0,0,474.06,170.72Z"/><path class="cls-6" d="M133.18,167.49h44.09v9.89a3.22,3.22,0,0,1-3.06,3.21,55.82,55.82,0,0,0-52.66,52.66,3.22,3.22,0,0,1-3.21,3.06h-9.89V192.22a24.73,24.73,0,0,1,24.73-24.73Z"/><path class="cls-6" d="M474.06,167.49H430v9.89a3.22,3.22,0,0,0,3.06,3.21,55.8,55.8,0,0,1,52.65,52.66,3.23,3.23,0,0,0,3.22,3.06h9.89V192.22a24.74,24.74,0,0,0-24.75-24.73Z"/><path class="cls-6" d="M133.18,453.53h44.09v-9.89a3.22,3.22,0,0,0-3.06-3.21,55.82,55.82,0,0,1-52.66-52.66,3.22,3.22,0,0,0-3.21-3.06h-9.89V428.8a24.73,24.73,0,0,0,24.73,24.73Z"/><path class="cls-6" d="M474.06,453.53H430v-9.89a3.22,3.22,0,0,1,3.06-3.21,55.8,55.8,0,0,0,52.65-52.66,3.23,3.23,0,0,1,3.22-3.06h9.89V428.8a24.74,24.74,0,0,1-24.75,24.73Z"/><path class="cls-7" d="M368.52,288H327.73V247.23a2.3,2.3,0,0,0-2.29-2.31H285.06a2.3,2.3,0,0,0-2.32,2.3h0V288H242a2.32,2.32,0,0,0-2.32,2.32h0v40.36A2.32,2.32,0,0,0,242,333h40.78v40.78a2.32,2.32,0,0,0,2.32,2.32h40.36a2.3,2.3,0,0,0,2.31-2.31h0V333h40.79a2.3,2.3,0,0,0,2.31-2.31h0V290.33a2.3,2.3,0,0,0-2.29-2.33Z"/><path class="cls-8" d="M368.52,288H327.73V272.64l-45,82.85v18.3a2.32,2.32,0,0,0,2.32,2.32h40.36a2.3,2.3,0,0,0,2.31-2.31h0V333h40.79a2.3,2.3,0,0,0,2.31-2.31h0V290.33a2.3,2.3,0,0,0-2.29-2.33Z"/></g></svg>