<svg id="Contenido" xmlns="http://www.w3.org/2000/svg" xmlns:xlink="http://www.w3.org/1999/xlink" viewBox="0 0 600 600"><defs><style>.cls-1,.cls-2,.cls-3{fill:none;}.cls-2{fill-rule:evenodd;}.cls-3{clip-rule:evenodd;}.cls-4{fill:url(#Degradado_sin_nombre_7);}.cls-5{clip-path:url(#clip-path);}.cls-6{clip-path:url(#clip-path-2);}.cls-7{clip-path:url(#clip-path-3);}.cls-8{clip-path:url(#clip-path-4);}.cls-9{clip-path:url(#clip-path-8);}.cls-10{clip-path:url(#clip-path-9);}.cls-11{clip-path:url(#clip-path-10);}.cls-12{clip-path:url(#clip-path-11);}.cls-13{clip-path:url(#clip-path-12);}.cls-14{fill:#1464a5;}.cls-15{fill:#d4edfc;}.cls-16{fill:url(#Degradado_sin_nombre_48);}.cls-17{fill:#49a5e6;}.cls-18{fill:#2dcccd;}.cls-19{fill:url(#Degradado_sin_nombre_64);}</style><linearGradient id="Degradado_sin_nombre_7" x1="258.97" y1="179.57" x2="455.39" y2="548.99" gradientUnits="userSpaceOnUse"><stop offset="0" stop-color="#192647"/><stop offset="0" stop-color="#192647" stop-opacity="0.5"/><stop offset="1" stop-color="#192647" stop-opacity="0"/></linearGradient><clipPath id="clip-path"><rect class="cls-1" x="273.32" y="628.61" width="53.76" height="39.88"/></clipPath><clipPath id="clip-path-2"><path class="cls-3" d="M346,727.65H259.41a9.36,9.36,0,0,1-9.45-9.21v-62.8a9.36,9.36,0,0,1,9.45-9.21H346a9.36,9.36,0,0,1,9.45,9.21v62.8a9.36,9.36,0,0,1-9.45,9.21"/></clipPath><clipPath id="clip-path-3"><path class="cls-3" d="M340.59,727.65H254a9.36,9.36,0,0,1-9.45-9.21v-62.8a9.36,9.36,0,0,1,9.45-9.21h86.58a9.36,9.36,0,0,1,9.45,9.21v62.8a9.36,9.36,0,0,1-9.45,9.21"/></clipPath><clipPath id="clip-path-4"><path class="cls-3" d="M254,646.43a9.36,9.36,0,0,0-9.45,9.21v62.81a9.35,9.35,0,0,0,9.45,9.2h86.58a9.35,9.35,0,0,0,9.45-9.2V655.64a9.36,9.36,0,0,0-9.45-9.21Z"/></clipPath><clipPath id="clip-path-8"><rect class="cls-1" x="272.19" y="679.26" width="50.98" height="17.64"/></clipPath><clipPath id="clip-path-9"><rect class="cls-1" x="288.87" y="662.57" width="17.62" height="51.03"/></clipPath><clipPath id="clip-path-10"><path class="cls-3" d="M1199.82,734.91H1199a2.25,2.25,0,0,1-2.46-1.92V690.87A2.25,2.25,0,0,1,1199,689h.79a2.23,2.23,0,0,1,2.44,1.92V733a2.23,2.23,0,0,1-2.44,1.92"/></clipPath><clipPath id="clip-path-11"><path class="cls-3" d="M1196.58,725.71s-10.43,3.1-18.69-1.43-11.25-15-11.25-15,10.42-3.11,18.69,1.43,11.25,15,11.25,15"/></clipPath><clipPath id="clip-path-12"><path class="cls-3" d="M1229.05,696.15s0,14-8.61,22.51-22.6,8.38-22.6,8.38,0-14,8.61-22.51,22.6-8.38,22.6-8.38"/></clipPath><linearGradient id="Degradado_sin_nombre_48" x1="498.8" y1="310.51" x2="231.25" y2="310.51" gradientUnits="userSpaceOnUse"><stop offset="0" stop-color="#043263" stop-opacity="0.15"/><stop offset="1" stop-color="#043263" stop-opacity="0"/></linearGradient><linearGradient id="Degradado_sin_nombre_64" x1="370.83" y1="324.37" x2="282.74" y2="324.37" gradientUnits="userSpaceOnUse"><stop offset="0.01" stop-color="#028484" stop-opacity="0.3"/><stop offset="1" stop-color="#028484" stop-opacity="0.1"/></linearGradient></defs><title>servicios</title><path class="cls-4" d="M527.62,221.26H483.53v3.22H423.31V206.2a24.73,24.73,0,0,0-24.73-24.73H319a24.73,24.73,0,0,0-24.73,24.73v18.28H230.83v-3.22H186.74A24.73,24.73,0,0,0,162,246v44.09h3.22V438.47H162v44.09a24.74,24.74,0,0,0,24.73,24.74h44.09v-3.23h252.7v3.23h44.09a24.74,24.74,0,0,0,24.73-24.74V246A24.73,24.73,0,0,0,527.62,221.26ZM309.33,205.08a9.63,9.63,0,0,1,9.62-9.63h79.68a9.63,9.63,0,0,1,9.63,9.63v19.4H309.33Z"/><path class="cls-14" d="M345,127.7H265.45a24.74,24.74,0,0,0-24.73,24.74v18.28h15.05V151.31a9.63,9.63,0,0,1,9.63-9.63h79.68a9.63,9.63,0,0,1,9.62,9.63v19.41h15.06V152.44A24.74,24.74,0,0,0,345,127.7Z"/><path class="cls-15" d="M133.18,170.72H474.06a24.73,24.73,0,0,1,24.73,24.73V425.57a24.73,24.73,0,0,1-24.73,24.73H136.41a24.73,24.73,0,0,1-24.73-24.73V192.22A21.51,21.51,0,0,1,133.18,170.72Z"/><path class="cls-16" d="M474.06,170.72h-91L231.25,450.3H474.06a24.74,24.74,0,0,0,24.74-24.73V195.45A24.74,24.74,0,0,0,474.06,170.72Z"/><path class="cls-17" d="M133.18,167.49h44.09v9.89a3.22,3.22,0,0,1-3.06,3.21,55.82,55.82,0,0,0-52.66,52.66,3.22,3.22,0,0,1-3.21,3.06h-9.89V192.22A24.73,24.73,0,0,1,133.18,167.49Z"/><path class="cls-17" d="M474.06,167.49H430v9.89a3.22,3.22,0,0,0,3.06,3.21,55.8,55.8,0,0,1,52.65,52.66,3.23,3.23,0,0,0,3.22,3.06h9.89V192.22A24.74,24.74,0,0,0,474.06,167.49Z"/><path class="cls-17" d="M133.18,453.53h44.09v-9.89a3.22,3.22,0,0,0-3.06-3.21,55.82,55.82,0,0,1-52.66-52.66,3.22,3.22,0,0,0-3.21-3.06h-9.89V428.8A24.73,24.73,0,0,0,133.18,453.53Z"/><path class="cls-17" d="M474.06,453.53H430v-9.89a3.22,3.22,0,0,1,3.06-3.21,55.8,55.8,0,0,0,52.65-52.66,3.23,3.23,0,0,1,3.22-3.06h9.89V428.8A24.74,24.74,0,0,1,474.06,453.53Z"/><path class="cls-18" d="M368.52,288H327.73V247.23a2.3,2.3,0,0,0-2.31-2.31H285.06a2.31,2.31,0,0,0-2.32,2.31V288H242a2.32,2.32,0,0,0-2.32,2.32v40.36A2.32,2.32,0,0,0,242,333h40.78v40.78a2.32,2.32,0,0,0,2.32,2.32h40.36a2.31,2.31,0,0,0,2.31-2.32V333h40.79a2.31,2.31,0,0,0,2.31-2.32V290.33A2.31,2.31,0,0,0,368.52,288Z"/><path class="cls-19" d="M368.52,288H327.73V272.64l-45,82.85v18.3a2.32,2.32,0,0,0,2.32,2.32h40.36a2.31,2.31,0,0,0,2.31-2.32V333h40.79a2.31,2.31,0,0,0,2.31-2.32V290.33A2.31,2.31,0,0,0,368.52,288Z"/></svg>