<svg id="Contenido" xmlns="http://www.w3.org/2000/svg" xmlns:xlink="http://www.w3.org/1999/xlink" viewBox="0 0 600 600"><defs><style>.cls-1{fill:none;}.cls-2{fill:url(#Degradado_sin_nombre);}.cls-3{fill:#004481;}.cls-4{fill:url(#Degradado_sin_nombre_2);}.cls-5{fill:#2dcccd;}.cls-6{fill:#f8cd50;}.cls-7{clip-path:url(#clip-path);}.cls-8{fill:url(#Degradado_sin_nombre_3);}.cls-9{fill:#d4edfc;}.cls-10{fill:#fff;}.cls-11{fill:#f35e61;}.cls-12{fill:url(#Degradado_sin_nombre_4);}</style><linearGradient id="Degradado_sin_nombre" x1="223.7" y1="1521.03" x2="455.08" y2="1752.41" gradientTransform="translate(0 -1320)" gradientUnits="userSpaceOnUse"><stop offset="0" stop-color="#1c2645"/><stop offset="0" stop-color="#1c2645" stop-opacity="0.5"/><stop offset="1" stop-color="#1c2645" stop-opacity="0"/></linearGradient><linearGradient id="Degradado_sin_nombre_2" x1="442.77" y1="1682.99" x2="258.41" y2="1682.99" gradientTransform="translate(0 -1320)" gradientUnits="userSpaceOnUse"><stop offset="0.02" stop-color="#043263" stop-opacity="0.7"/><stop offset="1" stop-color="#043263" stop-opacity="0"/></linearGradient><clipPath id="clip-path"><path class="cls-1" d="M340.61,375.93h0C329.4,364.59,303.8,354,301.3,339.36a11,11,0,0,0-.42-2.8c-.15-1.84-.24-3.79-.24-5.8a76.23,76.23,0,0,1,2-17.09,1.37,1.37,0,0,0-1-1.65,1.44,1.44,0,0,0-.82.06,72.43,72.43,0,0,0-28.11,21c-4.37,3-11.27,14.43-14.51,18.42-.73.9-11,16.94-11.71,17.86-10.45,13.57-16.74,38-16.74,55.76,0,38.15,30.14,66.84,66,66.84a66.23,66.23,0,0,0,66-66.46h0v-.38C361.72,407.25,354.08,389.57,340.61,375.93Zm-81.78-16.28c.09-.57.16-.84.17-.66h0Z"/></clipPath><linearGradient id="Degradado_sin_nombre_3" x1="196.75" y1="1643.25" x2="310.25" y2="1756.75" gradientTransform="translate(0 -1320)" gradientUnits="userSpaceOnUse"><stop offset="0" stop-color="#fff" stop-opacity="0.6"/><stop offset="1" stop-color="#fff" stop-opacity="0.2"/></linearGradient><linearGradient id="Degradado_sin_nombre_4" x1="454.92" y1="322.09" x2="398.11" y2="322.09" gradientTransform="matrix(1, 0, 0, -1, 0, 602)" gradientUnits="userSpaceOnUse"><stop offset="0" stop-color="#043263" stop-opacity="0.1"/><stop offset="1" stop-color="#043263" stop-opacity="0"/></linearGradient></defs><path class="cls-2" d="M480.86,304.43a150.74,150.74,0,0,0-5.94-17.66,158.12,158.12,0,0,0-12-23.6q-3-4.87-6.42-9.6c-.75-1-1.52-2.09-2.3-3.12q-3.51-4.65-7.39-9.09t-8.09-8.67h0c-.89-.89-1.77-1.8-2.64-2.71h0a160.14,160.14,0,0,1-42.57-86.29,3,3,0,0,0-3.41-2.52h0a3.09,3.09,0,0,0-1.41.62c-5.58,4.38-16.26,14.1-28.82,32.16a3,3,0,0,1-5.38-.93,158.84,158.84,0,0,1-4.78-39.73,165.8,165.8,0,0,1,4.3-37.6,3,3,0,0,0-2.21-3.62,3,3,0,0,0-1.79.12A161,161,0,0,0,250.42,241c0,3.19.13,6.4.32,9.39a3,3,0,0,1-5.75,1.4,171.51,171.51,0,0,1-10.66-32.38,3,3,0,0,0-5.32-1.17c-23.28,29.84-37.28,83.5-37.28,122.68A146.36,146.36,0,0,0,221,429.56L220,435l20.52,15.8a146.8,146.8,0,0,0,16.3,12.55L294,492l4.92-9.43c.82.23,1.65.44,2.48.66h0c3,.77,6,1.43,9,2h.17c1.39.27,2.78.51,4.17.74l.6.1c1.4.22,2.8.42,4.21.61h.21c1.51.19,3,.36,4.54.51h.48q1.91.18,3.81.3l1.24.08c1.07.07,2.15.12,3.24.16h5.64a147,147,0,0,0,49.42-8.55q6.67-2.39,13.09-5.38a141,141,0,0,0,12.47-6.58A147.61,147.61,0,0,0,439,448.34q3.87-3.58,7.49-7.46c24.08-25.77,39.14-60.56,39.14-100.21A140.74,140.74,0,0,0,480.86,304.43Z"/><path class="cls-3" d="M395.7,236.69h0a160.09,160.09,0,0,1-45.21-89,3,3,0,0,0-3.41-2.52h0a3.09,3.09,0,0,0-1.41.62c-5.58,4.38-16.26,14.1-28.82,32.16a3,3,0,0,1-5.38-.93,158.84,158.84,0,0,1-4.78-39.73A165.82,165.82,0,0,1,311,99.69a3,3,0,0,0-2.21-3.62,3,3,0,0,0-1.79.12A161,161,0,0,0,207.42,245c0,3.19.13,6.4.32,9.39a3,3,0,0,1-5.75,1.4,171.51,171.51,0,0,1-10.66-32.38,3,3,0,0,0-5.32-1.17c-23.28,29.84-37.28,83.5-37.28,122.68,0,83.92,67.13,147.06,147,147.06,78.39,0,147-62.47,147-147C442.72,305.58,425.7,266.7,395.7,236.69Z"/><path class="cls-4" d="M395.7,236.69h0c-.89-.89-1.77-1.8-2.64-2.71L258.41,487.23A149.51,149.51,0,0,0,295.77,492c78.39,0,147-62.47,147-147C442.72,305.58,425.7,266.7,395.7,236.69Z"/><path class="cls-5" d="M343.07,254.14h0a116.52,116.52,0,0,0-55.43-48,2.15,2.15,0,0,0-2.82,1.17h0a2.1,2.1,0,0,0-.11,1.33,120.06,120.06,0,0,1,3.15,27.17,115.12,115.12,0,0,1-3.45,28.69,2.16,2.16,0,0,1-3.86.69c-9.06-13.06-16.77-20.08-20.8-23.25a2.18,2.18,0,0,0-3.05.37h0a2.29,2.29,0,0,0-.43,1,115.73,115.73,0,0,1-32.6,64.27h0c-21.64,21.67-33.91,49.75-33.91,78.16,0,61.09,49.44,106.2,106,106.2,57.63,0,106-45.6,106-106.21C401.72,357.45,359.41,276,343.07,254.14Zm14.41,38.43a7.13,7.13,0,0,1,.3,1.71c-.1-.57-.19-1.15-.3-1.72Z"/><path id="_Trazado_de_recorte_compuesto_2" data-name=" Trazado de recorte compuesto 2" class="cls-6" d="M340.61,375.93h0C329.4,364.59,303.8,354,301.3,339.36a11,11,0,0,0-.42-2.8c-.15-1.84-.24-3.79-.24-5.8a76.23,76.23,0,0,1,2-17.09,1.37,1.37,0,0,0-1-1.65,1.44,1.44,0,0,0-.82.06,72.43,72.43,0,0,0-28.11,21c-4.37,3-11.27,14.43-14.51,18.42-.73.9-11,16.94-11.71,17.86-10.45,13.57-16.74,38-16.74,55.76,0,38.15,30.14,66.84,66,66.84a66.23,66.23,0,0,0,66-66.46h0v-.38C361.72,407.25,354.08,389.57,340.61,375.93Zm-81.78-16.28c.09-.57.16-.84.17-.66h0Z"/><g class="cls-7"><polygon class="cls-8" points="251 496 334 337 296 287 197 323 177 439 251 496"/></g><path class="cls-9" d="M448.55,272.82a19.16,19.16,0,0,1-3.65-11.22V157.54a23.67,23.67,0,0,0-23.23-23.77h-.24A23.5,23.5,0,0,0,398,157.24V261.6a19.06,19.06,0,0,1-3.62,11.19,33.47,33.47,0,0,0,27.09,53H422a33.43,33.43,0,0,0,26.59-53Zm-8.7,37.7a25.71,25.71,0,0,1-18,7.71h-.4a25.86,25.86,0,0,1-20.95-41,26.51,26.51,0,0,0,5.06-15.63V157.24a15.92,15.92,0,0,1,15.89-15.89h.16a16.09,16.09,0,0,1,15.73,16.19V261.6a26.53,26.53,0,0,0,5.08,15.66,25.84,25.84,0,0,1-2.55,33.26Z"/><path class="cls-9" d="M442.4,277.26a26.53,26.53,0,0,1-5.08-15.66V157.54a16.09,16.09,0,0,0-15.73-16.19h-.16v7a8.87,8.87,0,0,1,8.87,8.87V270.9a9.23,9.23,0,0,0,3.23,7.05,18.83,18.83,0,0,1-11.79,33.26h-.31A18.83,18.83,0,0,1,409.23,278a9.35,9.35,0,0,0,3.33-7.08V157.24a8.87,8.87,0,0,1,8.87-8.87v-7a15.92,15.92,0,0,0-15.89,15.89V261.6a26.51,26.51,0,0,1-5.06,15.63,25.88,25.88,0,0,0,20.95,41h.4a25.85,25.85,0,0,0,20.57-41Z"/><path class="cls-10" d="M421.43,148.37a8.87,8.87,0,0,0-8.87,8.87v47H430.3v-47A8.87,8.87,0,0,0,421.43,148.37Z"/><path class="cls-11" d="M433.53,278A9.23,9.23,0,0,1,430.3,271V204.26H412.56V271a9.35,9.35,0,0,1-3.33,7.08,18.83,18.83,0,0,0,12.2,33.17h.31A18.83,18.83,0,0,0,433.53,278Z"/><path class="cls-12" d="M398.11,316.28a33.2,33.2,0,0,0,23.32,9.53H422a33.43,33.43,0,0,0,26.59-53,19.16,19.16,0,0,1-3.65-11.22L444.75,234Z"/><rect class="cls-1" width="600" height="600"/></svg>