<svg id="Capa_1" data-name="Capa 1" xmlns="http://www.w3.org/2000/svg" xmlns:xlink="http://www.w3.org/1999/xlink" viewBox="0 0 600 600"><defs><style>.cls-1{fill:none;}.cls-2{fill:url(#Degradado_sin_nombre_42);}.cls-3{fill:#003267;}.cls-4{fill:#ffcc28;}.cls-5{fill:url(#Degradado_sin_nombre_27);}.cls-6{clip-path:url(#clip-path);}.cls-7{fill:#d4edfc;}.cls-8{fill:#004481;}.cls-9{fill:#004480;}.cls-10{fill:#00a7ec;}.cls-11{fill:#2fcacb;}.cls-12{fill:url(#Degradado_sin_nombre_30);}.cls-13{fill:url(#Degradado_sin_nombre_30-2);}.cls-14{fill:#068282;}</style><linearGradient id="Degradado_sin_nombre_42" x1="229.41" y1="145.08" x2="420.14" y2="503.8" gradientUnits="userSpaceOnUse"><stop offset="0" stop-color="#072146" stop-opacity="0.5"/><stop offset="1" stop-color="#072146" stop-opacity="0"/></linearGradient><linearGradient id="Degradado_sin_nombre_27" x1="129.54" y1="272.86" x2="214.91" y2="358.23" gradientUnits="userSpaceOnUse"><stop offset="0" stop-color="#fff" stop-opacity="0.6"/><stop offset="1" stop-color="#fff" stop-opacity="0.1"/></linearGradient><clipPath id="clip-path"><circle class="cls-1" cx="279.11" cy="294.15" r="200"/></clipPath><linearGradient id="Degradado_sin_nombre_30" x1="385.13" y1="839.13" x2="252.45" y2="839.13" gradientTransform="translate(-42.23 -427.31) rotate(4.57)" gradientUnits="userSpaceOnUse"><stop offset="0" stop-color="#068282" stop-opacity="0.5"/><stop offset="1" stop-color="#068282" stop-opacity="0"/></linearGradient><linearGradient id="Degradado_sin_nombre_30-2" x1="551.07" y1="796.73" x2="390.83" y2="796.73" xlink:href="#Degradado_sin_nombre_30"/></defs><path class="cls-2" d="M513.8,258.27c-1-2.68-2-5.32-3-7.94A200.37,200.37,0,0,0,366.65,130c14.25-23.78,25.91-44.67,24.44-45.91-1.81-1.52-24.85,19.51-48.3,42.42q-8.55-.74-17.29-.75a199.62,199.62,0,0,0-155.9,74.72c-29.76,2.06-56.54,4.7-56.71,6.74-.17,1.88,19.32,6.6,43.64,11.51a200,200,0,0,0,78.41,285.39c16.95,12.51,40.74,21,74.07,21,5.44.44,10.93.68,16.49.68a203.78,203.78,0,0,0,20.48-1c3.5-.29,7.28-.68,11.28-1.22l.24,0,1.11-.15.5-.07,1-.14.67-.1.74-.12.92-.14.41-.07,1.28-.21h.07c26.14-4.41,59.4-15.08,86-40.28A200.16,200.16,0,0,0,513.8,258.27Z"/><circle class="cls-3" cx="279.11" cy="294.15" r="200"/><circle class="cls-4" cx="197.03" cy="337.48" r="93.42"/><path class="cls-5" d="M197,244.06A93.42,93.42,0,0,0,153.17,420l87.72-165A93,93,0,0,0,197,244.06Z"/><g class="cls-6"><ellipse class="cls-7" cx="277.48" cy="639.7" rx="402.09" ry="271.94"/><path class="cls-8" d="M371.78,234.49h0a1,1,0,0,0,0,.24Z"/><path class="cls-8" d="M376.08,230.8c-.39,3-7.6-.14-9.15,2.53-.52.9.66,21.37-.53,23.16L360.68,373c2.28.29,27.7,1.56,29.93,1.89Z"/><path class="cls-8" d="M366.26,214.43a10.69,10.69,0,0,1,4.43-1.43c.58-5,.32-12.07-3-17.62C362.2,186.06,322,129,319.49,130.44s22.75,57.38,32.69,74.15c4.47,7.54,7.91,11.45,10.49,13.39A10.79,10.79,0,0,1,366.26,214.43Z"/><path class="cls-8" d="M398.17,212.63c-6.46,0-12.68,3.47-16.65,6.53a10.76,10.76,0,0,1-.12,9.43c3,1.22,8.12,2.15,16.86,2.11,19.5-.09,90.87-4.63,90.85-7.53S409,212.58,398.17,212.63Z"/><path class="cls-8" d="M371.78,243.74a35.65,35.65,0,0,0,0-9,2,2,0,0,1,0-.24,10.75,10.75,0,0,1-8.53-4.24c-2.5,2.08-5.74,6-9.86,13.11C343.6,260.23,315.44,317.5,318,319c2.28,1.32,37.08-45.37,48.45-62.46,1.19-1.79,2.09-3.19,2.6-4.09A23.46,23.46,0,0,0,371.78,243.74Z"/><path class="cls-8" d="M381.52,219.16a10.19,10.19,0,0,0-.45-.95,10.81,10.81,0,0,0-18.59,11,10.93,10.93,0,0,0,.74,1,10.75,10.75,0,0,0,8.53,4.24h0a10.55,10.55,0,0,0,5.1-1.28c.13-.07.27-.11.41-.19a10.8,10.8,0,0,0,4.23-13.86Zm-7.17,8.91a5.05,5.05,0,1,1,1.77-6.92A5.05,5.05,0,0,1,374.35,228.07Z"/><path class="cls-8" d="M376.12,221.15a5.05,5.05,0,1,0-1.77,6.92A5.05,5.05,0,0,0,376.12,221.15Z"/></g><path class="cls-9" d="M255.84,227.93c-2.14-7.65-1.48-16-.17-22-2.55-.2-23.54-5.79-25.82-7.26l-10,245.73c3.44-.5,44.53,48.85,48.07,48.41Z"/><path class="cls-10" d="M224.6,177.33c-5.5-5-14.22-10.76-23.72-11.58-16-1.38-134,5.58-134.38,9.86S167,198.77,195.75,201.25c12.87,1.11,26.27-3.85,30.84-5.28C224.79,191.53,222.09,181.7,224.6,177.33Z"/><path class="cls-10" d="M236.61,199.48c-2,7.14-3.34,17.52.14,26.4,5.84,14.93,64.41,117.64,68.41,116.08s-23.8-100.36-34.31-127.22c-4.71-12-15.1-21.84-18.4-25.3C249.26,193,241.65,199.8,236.61,199.48Z"/><path class="cls-10" d="M252.46,180.9c7.24-1.64,17-5.46,23.11-12.76C285.87,155.86,348,55.25,344.7,52.49s-76.69,68.95-95.24,91c-8.3,9.89-11.94,23.71-13.4,28.27C240.73,172.89,250.33,176.33,252.46,180.9Z"/><path class="cls-9" d="M250.35,196a15.12,15.12,0,0,0,1.17-1.45,16,16,0,0,0,1.11-16.65,15.73,15.73,0,0,0-4.91-5.64,16,16,0,0,0-22.3,3.8,14.88,14.88,0,0,0-.82,1.3,16,16,0,0,0,4.63,21c.2.15.41.27.62.4a16,16,0,0,0,20.5-2.75Zm-18-15a7.47,7.47,0,1,1,1.78,10.41A7.47,7.47,0,0,1,232.37,181Z"/><path class="cls-11" d="M244.57,189.59a7.47,7.47,0,1,0-10.42,1.78A7.47,7.47,0,0,0,244.57,189.59Z"/><path class="cls-11" d="M271.35,491.2c-.44-119.54-100.54-120-120.8-118.84a3.94,3.94,0,0,0-3.74,3.86c-.44,20.39,3.36,121.37,122.7,117.13C271,493.23,271.22,492.47,271.35,491.2Z"/><path class="cls-12" d="M146.81,375.91c-.51,19.81,2.85,121.81,123,117.38a.8.8,0,0,0,.76-.89.78.78,0,0,0-.25-.5L149.34,375a1.49,1.49,0,0,0-2.09,0A1.85,1.85,0,0,0,146.81,375.91Z"/><path class="cls-11" d="M444.19,312.78c-174.87,1.71-171.83,152.4-170.12,177.28a3.91,3.91,0,0,0,3.8,3.67c25.07.83,176.71-1.33,171.58-176.39C449.45,314.3,447.8,312.78,444.19,312.78Z"/><path class="cls-13" d="M277.87,493.73c25.14.83,177-1.33,171.52-177a2,2,0,0,0-2-1.84,1.82,1.82,0,0,0-1.27.57L276.79,491a1.6,1.6,0,0,0,.07,2.28A1.49,1.49,0,0,0,277.87,493.73Z"/><polygon class="cls-14" points="268.44 492.34 364.36 400.22 285.78 493.8 281.61 493.86 268.44 492.34"/><polygon class="cls-14" points="268.82 493.35 213.8 437.07 282.24 493.86 268.82 493.35"/></svg>