<svg id="Contenido" xmlns="http://www.w3.org/2000/svg" xmlns:xlink="http://www.w3.org/1999/xlink" viewBox="0 0 600 600"><defs><style>.cls-1{fill:url(#Degradado_sin_nombre);}.cls-2{fill:#072146;}.cls-3{fill:#004481;}.cls-4{fill:#043263;}.cls-5{fill:url(#Degradado_sin_nombre_14);}.cls-6{fill:url(#Degradado_sin_nombre_3);}.cls-7{fill:#028484;}.cls-8{fill:#f8cd50;}.cls-9{fill:url(#Degradado_sin_nombre_4);}.cls-10{fill:#c49735;}.cls-11{fill:url(#Degradado_sin_nombre_5);}.cls-12{fill:url(#Degradado_sin_nombre_6);}.cls-13{fill:url(#Degradado_sin_nombre_7);}.cls-14{fill:none;}</style><linearGradient id="Degradado_sin_nombre" x1="279.54" y1="426.24" x2="455.69" y2="94.94" gradientTransform="matrix(1, 0, 0, -1, 0, 602)" gradientUnits="userSpaceOnUse"><stop offset="0" stop-color="#192647" stop-opacity="0.5"/><stop offset="1" stop-color="#192647" stop-opacity="0"/></linearGradient><linearGradient id="Degradado_sin_nombre_14" x1="447.38" y1="362.99" x2="202.25" y2="362.99" gradientTransform="matrix(1, 0, 0, -1, 0, 602)" gradientUnits="userSpaceOnUse"><stop offset="0" stop-color="#072146" stop-opacity="0.6"/><stop offset="1" stop-color="#072146" stop-opacity="0.1"/></linearGradient><linearGradient id="Degradado_sin_nombre_3" x1="377.6" y1="185.61" x2="267.29" y2="185.61" gradientTransform="matrix(1, 0, 0, -1, 0, 602)" gradientUnits="userSpaceOnUse"><stop offset="0.01" stop-color="#043263" stop-opacity="0.3"/><stop offset="1" stop-color="#043263" stop-opacity="0.05"/></linearGradient><linearGradient id="Degradado_sin_nombre_4" x1="411.82" y1="448.14" x2="452.48" y2="407.48" gradientTransform="matrix(1, 0, 0, -1, 0, 602)" gradientUnits="userSpaceOnUse"><stop offset="0" stop-color="#fff" stop-opacity="0.4"/><stop offset="1" stop-color="#fff" stop-opacity="0.1"/></linearGradient><linearGradient id="Degradado_sin_nombre_5" x1="479.7" y1="458.82" x2="428.83" y2="458.82" gradientTransform="matrix(1, 0, 0, -1, 0, 602)" gradientUnits="userSpaceOnUse"><stop offset="0" stop-color="#043263" stop-opacity="0.2"/><stop offset="1" stop-color="#043263" stop-opacity="0.05"/></linearGradient><linearGradient id="Degradado_sin_nombre_6" x1="290.12" y1="401.46" x2="350.92" y2="340.65" xlink:href="#Degradado_sin_nombre_4"/><linearGradient id="Degradado_sin_nombre_7" x1="412.93" y1="415.02" x2="331.32" y2="415.02" xlink:href="#Degradado_sin_nombre_5"/></defs><path class="cls-1" d="M570.42,309.34a64.85,64.85,0,0,0-42-58.47c7.52-23.6-1.24-48.62-2.17-51.16a6.32,6.32,0,0,0,2.81-2.86,7,7,0,0,0,.45-1.23,5.26,5.26,0,0,1,.12-.65,6.23,6.23,0,0,0-.44-3.33l-.47-1.11-1-2.24a21.25,21.25,0,0,0-4-6.17c-.41-.44-.84-.87-1.28-1.27a21.13,21.13,0,0,0-18.57-5l-7.18,1.49h0l-8.93,1.86a98.06,98.06,0,0,1-5.71-26.2,6.83,6.83,0,0,1,1.77-5.21,12.87,12.87,0,0,0-19-17.39q-.45.49-.84,1a6.6,6.6,0,0,1-3.89,2.48C436,138.78,416,156,406.23,180.05A63.95,63.95,0,0,0,304,204.71a3.88,3.88,0,0,1-5,2.22,4,4,0,0,1-.93-.52,62.79,62.79,0,0,0-100.12,50.5h0a4,4,0,0,1-3.7,3.93A69.48,69.48,0,0,0,196,399.6h1.43a64.59,64.59,0,0,0,84.35,48.17l33.59,18.14A25.89,25.89,0,0,1,329,488.7V513s-1.27,16.49-11,28.44a2.79,2.79,0,0,0,2.69,4.52l7.5-1.46a246.64,246.64,0,0,1,45.63,0L381.2,546a2.8,2.8,0,0,0,2.69-4.53c-9.76-11.95-11-28.43-11-28.43V467.75a29.67,29.67,0,0,1,.44-5.07,89.07,89.07,0,0,0,57.82-43,63.84,63.84,0,0,0,32.64,10.46,64.56,64.56,0,0,0,65.73-51.25,16.8,16.8,0,0,1,8.16-11.26A64.55,64.55,0,0,0,570.42,309.34ZM460.14,147.86a6.5,6.5,0,0,1,5.77,1.28h0a6.92,6.92,0,0,1,2.51,4.61A111.89,111.89,0,0,0,474.35,182l-13,2.71a21.22,21.22,0,0,0-16.89,21v3.64a6.29,6.29,0,0,0,5.92,6.22v.66h0V217a17.21,17.21,0,0,0,.18,1.76v.14a9.2,9.2,0,0,0,.14,1.1h0l.09.67h-.07a52,52,0,0,0-5.72-.2,30.05,30.05,0,0,0-8.64-2.55l-9.94-1.39a63.65,63.65,0,0,0-10.07-24.68C423.18,169.57,439.63,153.09,460.14,147.86Z"/><circle class="cls-2" cx="303.61" cy="325.92" r="88.93"/><path class="cls-3" d="M377.6,357.67c-6.33-7.33-9.53-11.14-11.78-20.91l-42,30.88a8.56,8.56,0,0,1-13.61-6.23l-6.58-84.35c-2.27-7.24-22.67-13.23-30.26-13.21h-7.5c-.94,0-1.85-.09-2.77-.14l5.2,16.58A232.08,232.08,0,0,1,279,349.8v29.44A8.57,8.57,0,0,1,266.7,387l-73.37-34.63a41.51,41.51,0,0,1-13.68,17.28l85.68,46.28a25.89,25.89,0,0,1,13.6,22.79V463s-1.27,16.49-11,28.44a2.79,2.79,0,0,0,2.69,4.52l7.5-1.46a246.64,246.64,0,0,1,45.63,0l7.41,1.46a2.8,2.8,0,0,0,2.69-4.53c-9.76-11.95-11-28.43-11-28.43V417.75C322.8,397.25,342.81,383.5,377.6,357.67Z"/><circle class="cls-2" cx="210.67" cy="336.76" r="64.57"/><path class="cls-2" d="M520.42,259.34a64.56,64.56,0,0,0-128.87-3.42,64.57,64.57,0,1,0,87.88,72.94,16.8,16.8,0,0,1,8.16-11.26A64.52,64.52,0,0,0,520.42,259.34Z"/><path class="cls-4" d="M400.89,170.61a51,51,0,0,0-19,1.8,3.86,3.86,0,0,1-4.79-2.62,5.05,5.05,0,0,1-.12-.56,64,64,0,0,0-123-14.52,3.88,3.88,0,0,1-5,2.22,4,4,0,0,1-.93-.52,62.79,62.79,0,0,0-100.12,50.5h0a4,4,0,0,1-3.7,3.93,69.48,69.48,0,1,0,30.39,133.93,10,10,0,0,1,10.23,1.72,64.52,64.52,0,0,0,96.8-15.08,11.13,11.13,0,0,1,14.82-3.91,66,66,0,0,0,97.64-52.79,2.08,2.08,0,0,1,2.08-1.93h0a51.21,51.21,0,0,0,4.73-102.21Z"/><path class="cls-5" d="M447.25,218a51.21,51.21,0,0,0-65.32-45.56,3.86,3.86,0,0,1-4.79-2.62,5.05,5.05,0,0,1-.12-.56A64,64,0,0,0,330.48,116L202.25,357.19a64.55,64.55,0,0,0,79.35-25.74,11.13,11.13,0,0,1,14.82-3.91,66,66,0,0,0,97.64-52.79,2.08,2.08,0,0,1,2.08-1.93h0a51.22,51.22,0,0,0,51.24-51.2C447.38,220.41,447.33,219.2,447.25,218Z"/><path class="cls-6" d="M377.6,357.67c-6.33-7.33-9.53-11.14-11.78-20.91l-42,30.88a8.46,8.46,0,0,1-9.05.67l-36,67.67c.09.91.16,1.83.16,2.75V463s-1.27,16.49-11,28.44a2.79,2.79,0,0,0,2.69,4.52l7.5-1.46a246.64,246.64,0,0,1,45.63,0l7.41,1.46a2.8,2.8,0,0,0,2.69-4.53c-9.76-11.95-11-28.43-11-28.43V417.75C322.8,397.25,342.81,383.5,377.6,357.67Z"/><path class="cls-7" d="M442,139.7c-6.39-15.15-8.58-23.15-9.91-36.66a6.83,6.83,0,0,1,1.77-5.21A12.88,12.88,0,0,0,414,81.42a6.6,6.6,0,0,1-3.89,2.48c-31.24,6.31-55.43,33.33-59.74,68.88L349,162.35a7,7,0,0,0,5.2,7.85,6.42,6.42,0,0,0,1.51.17,6.81,6.81,0,0,0,6.74-5.87l1.38-9.9v-.13c3.44-28.52,22-50.43,46.26-56.61a6.5,6.5,0,0,1,5.77,1.28h0a6.92,6.92,0,0,1,2.51,4.61c1.49,15.46,4,24.71,11.07,41.48a6.79,6.79,0,0,0,8.89,3.63l.57-.27A7,7,0,0,0,442,139.7Z"/><path class="cls-8" d="M400.42,165.26l37.86-7.88,37.87-7.89S496.73,203,456.59,229.4a8.81,8.81,0,0,1-6.34,1.32C402.92,222.57,400.42,165.26,400.42,165.26Z"/><path class="cls-9" d="M438.28,157.38l-37.86,7.88s1.59,36.3,26.09,55.23l36.28-68.22Z"/><path class="cls-10" d="M401.71,165.45l2.3-.34a571.6,571.6,0,0,0,68.78-14.32l2.25-.62a6.29,6.29,0,0,0,4.41-7.73,7.58,7.58,0,0,0-.28-.8l-1.42-3.35a21.2,21.2,0,0,0-23.85-12.48l-42.54,8.86a21.22,21.22,0,0,0-16.89,21v3.64a6.3,6.3,0,0,0,6.39,6.21A6.09,6.09,0,0,0,401.71,165.45Z"/><path class="cls-11" d="M479.17,141.64l-1.42-3.35a21.2,21.2,0,0,0-23.85-12.48l-7.18,1.49L428.83,161q22.17-4.22,44-10.16l2.25-.62a6.29,6.29,0,0,0,4.39-7.74A6,6,0,0,0,479.17,141.64Z"/><path class="cls-8" d="M405.06,210.48l-54.79-7.65-54.8-7.64S271.2,273.58,331,307.38a12.63,12.63,0,0,0,9.17,1.28C407,292.51,405.06,210.48,405.06,210.48Z"/><path class="cls-12" d="M350.27,202.83l-54.8-7.64s-19.77,63.91,20.41,101.2l48.68-91.56Z"/><path class="cls-10" d="M403.24,210.86l-3.32-.26a816.11,816.11,0,0,1-99.54-13.88l-3.26-.66a9,9,0,0,1-7-10.6,9.32,9.32,0,0,1,.32-1.18l1.71-4.92A30.34,30.34,0,0,1,325,159.27l61.57,8.59a30.34,30.34,0,0,1,26.1,28.31l.29,5.2a9,9,0,0,1-8.46,9.51A10.6,10.6,0,0,1,403.24,210.86Z"/><path class="cls-13" d="M412.92,201.37l-.29-5.2a30.34,30.34,0,0,0-26.1-28.31l-34.33-4.79-20.88,39.28q34.11,5.57,68.6,8.25l3.32.26a9,9,0,0,0,9.67-8.28A9.77,9.77,0,0,0,412.92,201.37Z"/><rect class="cls-14" width="600" height="600"/></svg>