<svg id="Contenido" xmlns="http://www.w3.org/2000/svg" xmlns:xlink="http://www.w3.org/1999/xlink" viewBox="0 0 600 600"><defs><style>.cls-1{fill:url(#Degradado_sin_nombre_42);}.cls-2{fill:#043263;}.cls-3{fill:#02a5a5;}.cls-4{fill:#028484;}.cls-5{fill:#072146;}.cls-6{fill:#56e2de;}.cls-7{fill:#2dcccd;}.cls-8{fill:#1464a5;}.cls-9{fill:url(#Degradado_sin_nombre_28);}.cls-10{fill:#004481;}</style><linearGradient id="Degradado_sin_nombre_42" x1="277.32" y1="179.06" x2="460.01" y2="537.62" gradientUnits="userSpaceOnUse"><stop offset="0" stop-color="#192647" stop-opacity="0.5"/><stop offset="1" stop-color="#192647" stop-opacity="0"/></linearGradient><linearGradient id="Degradado_sin_nombre_28" x1="387.59" y1="418.53" x2="237.2" y2="418.53" gradientUnits="userSpaceOnUse"><stop offset="0" stop-color="#043263" stop-opacity="0.6"/><stop offset="1" stop-color="#043263" stop-opacity="0"/></linearGradient></defs><title>seguro</title><path class="cls-1" d="M529.89,283.67c0-.15,0-.29-.08-.43l.08,0-.1-.09C520.6,232,446.24,170.26,355,168.07V155.2a5,5,0,0,0-10,0v12.87C253.76,170.26,179.4,232,170.21,283.12l-.1.09.08,0c0,.14-.06.28-.08.43l.44-.32c38.14,11.88,48.86,15.54,81.5,35.24,32.67-2.18,61.88.47,92.95,7.39v23.13L239.15,416.42a14.87,14.87,0,0,0-4.57,20.52l2.89,4.54,24.94,3.46V547.86a1.94,1.94,0,0,0,1.94,1.94h171.3a1.94,1.94,0,0,0,1.94-1.94V444.94l24.94-3.46,2.89-4.54a14.87,14.87,0,0,0-4.57-20.52L355,349.11V326c31.07-6.92,60.28-9.57,92.95-7.39h0c32.64-19.7,43.36-23.36,81.5-35.24Z"/><path class="cls-2" d="M300,135.8a5,5,0,0,1-5-5V105a5,5,0,0,1,10,0v25.8A5,5,0,0,1,300,135.8Z"/><path class="cls-3" d="M120.11,233c38.5,12,49.17,15.6,81.94,35.38l97.95-137C235.62,142.36,176.4,180.08,120.11,233Z"/><path class="cls-4" d="M202.05,268.39c34.42-2.3,65,.75,97.95,8.52V131.38C257,174.05,222.68,219.23,202.05,268.39Z"/><path class="cls-3" d="M479.89,233c-38.5,12-49.17,15.6-81.94,35.38L300,131.38C364.38,142.36,423.6,180.08,479.89,233Z"/><path class="cls-4" d="M398,268.39c-34.42-2.3-65,.75-97.95,8.52V131.38C341,174.15,374.62,219.46,398,268.39Z"/><rect class="cls-5" x="295" y="175.63" width="10" height="224.38"/><path class="cls-6" d="M300,117.8c-93.84,0-171,63.51-179.89,115.66,23.92-17.22,53.79-27.3,89.94-27.64h0Q226.68,153.09,300,117.8Z"/><path class="cls-6" d="M300,117.8c93.84,0,171,63.51,179.89,115.66C456,216.24,426.1,206.16,390,205.82h0Q373.32,153.09,300,117.8Z"/><path class="cls-7" d="M300,117.8q-73.32,35.3-89.95,88c36-10.32,58.77-12.46,89.95-7.12,31.18-5.34,53.93-3.2,89.95,7.12Q373.32,153.09,300,117.8Z"/><path class="cls-2" d="M187.47,391.27,300,406.88l112.53-15.61L301,320a1.91,1.91,0,0,0-2.08,0Z"/><path class="cls-8" d="M212.41,375.32,299,320a2,2,0,0,1,2.06,0l86.56,55.37V497.65a1.94,1.94,0,0,1-1.94,1.94H214.35a1.94,1.94,0,0,1-1.94-1.94Z"/><path class="cls-9" d="M328.4,337.46l59.19,37.86V497.65a1.94,1.94,0,0,1-1.94,1.94H237.2"/><path class="cls-7" d="M279.64,415.62h40.72a1.94,1.94,0,0,1,1.94,1.94v82a0,0,0,0,1,0,0H277.7a0,0,0,0,1,0,0v-82A1.94,1.94,0,0,1,279.64,415.62Z"/><path class="cls-10" d="M299,296.39,189.15,366.21a14.87,14.87,0,0,0-4.57,20.52l2.89,4.54L299,320a1.91,1.91,0,0,1,2.08,0l111.49,71.3,2.89-4.54a14.87,14.87,0,0,0-4.57-20.52L301,296.39A2,2,0,0,0,299,296.39Z"/></svg>