<svg xmlns="http://www.w3.org/2000/svg" xmlns:xlink="http://www.w3.org/1999/xlink" viewBox="0 0 600 600"><defs><style>.cls-1{fill:none;}.cls-2{fill:url(#Degradado_sin_nombre_76);}.cls-3{fill:#da3951;}.cls-4{fill:url(#Degradado_sin_nombre_11);}.cls-5{fill:#2dcccd;}.cls-6{fill:#043263;}.cls-7{fill:#072146;}.cls-8{fill:#49a5e6;}.cls-9{fill:url(#Degradado_sin_nombre_9);}</style><linearGradient id="Degradado_sin_nombre_76" x1="286.37" y1="-5030.1" x2="454.23" y2="-5345.79" gradientTransform="matrix(1, 0, 0, -1, 0, -4848)" gradientUnits="userSpaceOnUse"><stop offset="0" stop-color="#192647" stop-opacity="0.5"/><stop offset="1" stop-color="#192647" stop-opacity="0"/></linearGradient><linearGradient id="Degradado_sin_nombre_11" x1="314" y1="-4935.85" x2="370.55" y2="-4965.92" gradientTransform="matrix(1, 0, 0, -1, 0, -4848)" gradientUnits="userSpaceOnUse"><stop offset="0" stop-color="#fff" stop-opacity="0.5"/><stop offset="1" stop-color="#fff" stop-opacity="0.1"/></linearGradient><linearGradient id="Degradado_sin_nombre_9" x1="412.86" y1="-5177.22" x2="214.45" y2="-5177.22" gradientTransform="matrix(1, 0, 0, -1, 0, -4848)" gradientUnits="userSpaceOnUse"><stop offset="0" stop-color="#043263" stop-opacity="0.4"/><stop offset="1" stop-color="#043263" stop-opacity="0"/></linearGradient></defs><title>8</title><g id="Cuadrados_Blancos" data-name="Cuadrados Blancos"><rect class="cls-1" width="600" height="600"/></g><g id="Capa_8" data-name="Capa 8"><path class="cls-2" d="M498.92,315.38,446,281.7V232.28a3.32,3.32,0,0,0-3.32-3.32h-9.74c3.32-2.82,6.4-5.53,9.27-8C454.27,210.67,464.73,201.75,472,193c8.14-9.82,11.92-19.14,11.92-29.32A37.64,37.64,0,0,0,474.38,138a32.29,32.29,0,0,0-24-10.47,13.74,13.74,0,0,0-1.58.06h0a17.24,17.24,0,0,0-2.27.2h-.13c-.7.09-1.41.21-2.12.34l-.27.06c-.65.14-1.3.3-1.94.48l-.42.13c-.6.17-1.19.36-1.76.57l-.61.25c-.52.2-1,.41-1.54.64-.29.12-.56.27-.84.41s-.85.42-1.28.65l-1.11.69-.94.57c-.69.46-1.37.94-2,1.46s-1.26,1-1.87,1.56a38.28,38.28,0,0,0-3,3.07c-.94,1.1-1.86,2.21-2.72,3.32a39,39,0,0,0-5.94-6.56c-.56-.5-1.11-1-1.71-1.43a31.22,31.22,0,0,0-6.64-4,30,30,0,0,0-12.28-2.56A32.94,32.94,0,0,0,384.75,130a32.21,32.21,0,0,0-8.35,5,32.63,32.63,0,0,0-3.14,3,33.84,33.84,0,0,0-3.17,4c-.32.48-.63.95-.92,1.44-.45.73-.86,1.49-1.25,2.27a35.29,35.29,0,0,0-1.48,3.32,40.11,40.11,0,0,0-2.71,14.66c0,10.18,3.78,19.49,11.93,29.33h0c.75.92,1.55,1.83,2.38,2.74l.3.35c.79.87,1.62,1.76,2.47,2.64l.44.44c.85.88,1.72,1.76,2.63,2.65l.45.44c.93.9,1.88,1.8,2.87,2.72l.33.32c2.11,2,4.35,4,6.64,6l.19.17,3.55,3.09.29.24q3.51,3,7.26,6.22c2.86,2.44,6,5.13,9.27,8H405a3.32,3.32,0,0,0-3.32,3.32v21.22L354,223.24a2.58,2.58,0,0,0-2.75,0L206.41,315.38a19.61,19.61,0,0,0-6,27.07l3.81,6,32.9,4.57v135.8a2.56,2.56,0,0,0,2.56,2.55h226a2.56,2.56,0,0,0,2.56-2.55V353l32.91-4.6,3.8-6A19.61,19.61,0,0,0,498.92,315.38Z"/><path class="cls-3" d="M419,82.85a32.27,32.27,0,0,0-24-10.48,30.17,30.17,0,0,0-18.89,6.53,38.25,38.25,0,0,0-7.64,8,38.25,38.25,0,0,0-7.64-8,30.19,30.19,0,0,0-18.89-6.53,32.28,32.28,0,0,0-24,10.48,37.62,37.62,0,0,0-9.52,25.66c0,10.18,3.78,19.49,11.93,29.32,7.27,8.8,17.7,17.7,29.87,28,4.14,3.53,8.86,7.53,13.7,11.79a7,7,0,0,0,9.3,0c4.85-4.26,9.55-8.26,13.68-11.79,12.12-10.34,22.58-19.25,29.88-28,8.13-9.83,11.92-19.14,11.92-29.32A37.64,37.64,0,0,0,419,82.85Z"/><path class="cls-4" d="M376.08,78.86a38.54,38.54,0,0,0-7.64,8,38.54,38.54,0,0,0-7.64-8,30.16,30.16,0,0,0-18.89-6.52,32.26,32.26,0,0,0-24,10.51,37.62,37.62,0,0,0-9.52,25.66c0,10.18,3.78,19.49,11.93,29.32,6.56,7.93,15.72,16,26.36,25.06l46.78-90.5A30.18,30.18,0,0,0,376.08,78.86Z"/><path class="cls-5" d="M349.62,173.83h37.62a3.32,3.32,0,0,1,3.32,3.32v52H346.3v-52A3.32,3.32,0,0,1,349.62,173.83Z"/><path class="cls-6" d="M349.62,173.83h37.62a3.32,3.32,0,0,1,3.32,3.32v6.06H346.3v-6a3.33,3.33,0,0,1,3.28-3.37Z"/><path class="cls-7" d="M148.81,293.27l148.48,20.59,148.48-20.59-147.11-94a2.58,2.58,0,0,0-2.75,0Z"/><path class="cls-8" d="M181.71,272.22l114.21-73a2.5,2.5,0,0,1,2.73,0l114.21,73V433.61a2.56,2.56,0,0,1-2.56,2.56h-226a2.56,2.56,0,0,1-2.56-2.56Z"/><path class="cls-9" d="M334.75,222.27l78.11,49.94v161.4a2.56,2.56,0,0,1-2.56,2.56H214.45"/><path class="cls-5" d="M271.18,325.39h52.21a3.32,3.32,0,0,1,3.32,3.32V436.18H267.86V328.71A3.32,3.32,0,0,1,271.18,325.39Z"/><path class="cls-6" d="M295.91,168.05,151,260.21a19.61,19.61,0,0,0-6,27.07l3.81,6,147.16-94a2.56,2.56,0,0,1,2.74,0l147.17,94,3.8-6a19.61,19.61,0,0,0-6-27.07l-145-92.16A2.54,2.54,0,0,0,295.91,168.05Z"/></g></svg>