<svg xmlns="http://www.w3.org/2000/svg" xmlns:xlink="http://www.w3.org/1999/xlink" viewBox="0 0 600 600"><defs><style>.cls-1{fill:none;}.cls-2{fill:url(#Degradado_sin_nombre_143);}.cls-3{fill:#043263;}.cls-4{fill:#49a5e6;}.cls-5{fill:url(#Degradado_sin_nombre_33);}.cls-6{fill:#2dcccd;}.cls-7{fill:#004481;}.cls-8{fill:#1973b8;}.cls-9{opacity:0.5;isolation:isolate;fill:url(#Degradado_sin_nombre_2);}</style><linearGradient id="Degradado_sin_nombre_143" x1="236.43" y1="198.91" x2="420.23" y2="544.57" gradientTransform="translate(0 2)" gradientUnits="userSpaceOnUse"><stop offset="0" stop-color="#192647" stop-opacity="0.5"/><stop offset="1" stop-color="#192647" stop-opacity="0"/></linearGradient><linearGradient id="Degradado_sin_nombre_33" x1="485.2" y1="352.3" x2="332.6" y2="352.3" gradientTransform="translate(0 2)" gradientUnits="userSpaceOnUse"><stop offset="0" stop-color="#043263" stop-opacity="0.4"/><stop offset="1" stop-color="#043263" stop-opacity="0"/></linearGradient><linearGradient id="Degradado_sin_nombre_2" x1="207.64" y1="159.69" x2="324" y2="276.05" gradientTransform="translate(0 2)" gradientUnits="userSpaceOnUse"><stop offset="0" stop-color="#fff" stop-opacity="0.5"/><stop offset="1" stop-color="#e8f7f8" stop-opacity="0.2"/><stop offset="1" stop-color="#fff" stop-opacity="0"/></linearGradient></defs><title>1</title><g id="Cuadrados_Blancos" data-name="Cuadrados Blancos"><rect class="cls-1" width="600" height="600"/></g><g id="Capa_29" data-name="Capa 29"><path class="cls-2" d="M559.7,349.6l-93.3-59.3v-1.2a126.4,126.4,0,1,0-206,98.1L184.7,518.4l-.3-.2a2.62,2.62,0,0,0-3.6,1l-10.5,18.2a2.62,2.62,0,0,0,1,3.6h0l2.6,1.5h0L202,558.7h0l2.6,1.5a2.62,2.62,0,0,0,3.6-1h0L218.7,541a2.62,2.62,0,0,0-1-3.6h0l-.3-.2L293,406.4a126.78,126.78,0,0,0,66.2,7.6v70.8H536.4V378.6l25.2-3.5,2.8-4.4A15.33,15.33,0,0,0,559.7,349.6ZM340,389.1a100,100,0,1,1,99.9-105.6l-104,66.1a15.33,15.33,0,0,0-4.7,21.1l2.8,4.4,25.2,3.5v8.7A103.17,103.17,0,0,1,340,389.1Z"/><polygon class="cls-3" points="282.8 326.5 396.6 342.3 510.4 326.5 396.6 253.7 282.8 326.5"/><polygon class="cls-4" points="308 309.8 396.6 253.7 485.2 309.8 485.2 436.3 308 436.3 308 309.8"/><polyline class="cls-5" points="425.2 272.3 485.2 309.8 485.2 436.3 332.6 436.3"/><path class="cls-6" d="M380.7,351.1h31.8a6.59,6.59,0,0,1,6.6,6.6v78.5H374V357.7a6.68,6.68,0,0,1,6.7-6.6Z"/><path class="cls-7" d="M395.5,230.6,284.7,301a15.33,15.33,0,0,0-4.7,21.1h0l2.8,4.4,113.8-72.3,113.8,72.4,2.8-4.4a15.33,15.33,0,0,0-4.7-21.1h0L397.7,230.7A1.68,1.68,0,0,0,395.5,230.6Z"/><path class="cls-7" d="M214.5,328.7,121.4,490a3.16,3.16,0,0,0,1.1,4.2l28.2,16.3a2.82,2.82,0,0,0,1.5.4,3.28,3.28,0,0,0,2.7-1.5l92.9-160.9.2-.4Z"/><path class="cls-6" d="M119.1,488.8l10.5-18.2a2.62,2.62,0,0,1,3.6-1l33.3,19.2a2.62,2.62,0,0,1,1,3.6L157,510.7a2.62,2.62,0,0,1-3.6,1l-33.3-19.2A2.79,2.79,0,0,1,119.1,488.8Z"/><path class="cls-3" d="M288.8,366.9A126.4,126.4,0,1,1,415.2,240.5h0A126.54,126.54,0,0,1,288.8,366.9Zm0-226.3a100,100,0,1,0,100,100A100.1,100.1,0,0,0,288.8,140.6Z"/><path class="cls-8" d="M288.8,140.5a100,100,0,1,0,100,100A100.1,100.1,0,0,0,288.8,140.5Z"/><polygon class="cls-3" points="232.91 304.57 274.41 310.27 274.41 278.17 232.91 304.57"/><path class="cls-4" d="M384.11,208.37l-109.8,69.8v32.1h.1l.1,0v29.18a103.9,103.9,0,0,0,14.7,1.1,100.66,100.66,0,0,0,59.9-19.9H349A100.31,100.31,0,0,0,384.11,208.37Z"/><path class="cls-7" d="M384.21,208.47l-.1-.5-109.7,70.1,0,0,0,0h0L384,208a.2.2,0,0,0-.07-.16l.07,0a97.42,97.42,0,0,0-15.8-29l-132.1,84a25.06,25.06,0,0,0-7.7,34.6l4.57,7.16-.07,0,.07,0,0,0,16.1-10.3,25.3-16.1v.1Z"/><path class="cls-9" d="M288.8,141.1A99.42,99.42,0,0,0,239,326.5l99.4-172.2A99.27,99.27,0,0,0,288.8,141.1Z"/></g></svg>