<svg xmlns="http://www.w3.org/2000/svg" xmlns:xlink="http://www.w3.org/1999/xlink" viewBox="0 0 600 600"><defs><style>.cls-1{fill:none;}.cls-2{fill:url(#Degradado_sin_nombre_7);}.cls-3{fill:#043263;}.cls-4{fill:#02a5a5;}.cls-5{fill:#028484;}.cls-6{fill:#072146;}.cls-7{fill:#56e2de;}.cls-8{fill:#2dcccd;}.cls-9{fill:#49a5e6;}.cls-10{fill:url(#Degradado_sin_nombre_36);}.cls-11{fill:#da3951;}.cls-12{fill:#fff;}</style><linearGradient id="Degradado_sin_nombre_7" x1="297.01" y1="168.32" x2="485.94" y2="523.64" gradientUnits="userSpaceOnUse"><stop offset="0" stop-color="#192647" stop-opacity="0.5"/><stop offset="1" stop-color="#192647" stop-opacity="0"/></linearGradient><linearGradient id="Degradado_sin_nombre_36" x1="387.59" y1="-7032.52" x2="237.2" y2="-7032.52" gradientTransform="matrix(1, 0, 0, -1, 0, -6614)" gradientUnits="userSpaceOnUse"><stop offset="0" stop-color="#043263" stop-opacity="0.4"/><stop offset="1" stop-color="#043263" stop-opacity="0"/></linearGradient></defs><title>13</title><g id="Cuadrados_Blancos" data-name="Cuadrados Blancos"><rect class="cls-1" width="600" height="600"/></g><g id="Capa_40" data-name="Capa 40"><path class="cls-2" d="M530.12,283.23C528,271.42,522.39,259,513.9,247a60,60,0,1,0-91-66,213.35,213.35,0,0,0-67.53-12.78V155.33a5,5,0,1,0-10,0V168.2c-91.23,2.19-165.61,63.92-174.78,115l-.11.1.09,0-.09.43.46-.32C209,295.36,219.74,299,252.38,318.71h0v0c32.67-2.18,61.89.47,92.95,7.38v23.17L239.48,416.54a14.88,14.88,0,0,0-4.57,20.52l2.89,4.54,24.94,3.46V548a1.94,1.94,0,0,0,1.94,1.94H436A1.94,1.94,0,0,0,438,548V445.06l24.91-3.46,0,0,2.89-4.54a14.86,14.86,0,0,0-4.57-20.52l-105.89-67.3V326.12c31.08-6.93,60.31-9.58,93-7.4v0c32.61-19.68,43.34-23.33,81.45-35.22l.45.32c0-.14-.05-.29-.08-.43l.08,0Z"/><path class="cls-3" d="M300,135.8a5,5,0,0,1-5-5V105a5,5,0,0,1,10,0v25.8A5,5,0,0,1,300,135.8Z"/><path class="cls-4" d="M120.11,233c38.5,12,49.17,15.6,81.94,35.38l97.95-137C235.62,142.36,176.4,180.08,120.11,233Z"/><path class="cls-5" d="M202.05,268.39c34.42-2.3,65,.75,97.95,8.52V131.38C257,174.05,222.68,219.23,202.05,268.39Z"/><path class="cls-4" d="M479.89,233c-38.5,12-49.17,15.6-81.94,35.38L300,131.38C364.38,142.36,423.6,180.08,479.89,233Z"/><path class="cls-5" d="M398,268.39c-34.42-2.3-65,.75-97.95,8.52V131.38C341,174.15,374.62,219.46,398,268.39Z"/><rect class="cls-6" x="295" y="175.63" width="10" height="224.38"/><path class="cls-7" d="M300,117.8c-93.84,0-171,63.51-179.89,115.66,23.92-17.22,53.79-27.3,89.94-27.64h0Q226.68,153.09,300,117.8Z"/><path class="cls-7" d="M300,117.8c93.84,0,171,63.51,179.89,115.66C456,216.24,426.1,206.16,390,205.82h0Q373.32,153.09,300,117.8Z"/><path class="cls-8" d="M300,117.8q-73.32,35.3-89.95,88c36-10.32,58.77-12.46,89.95-7.12,31.18-5.34,53.93-3.2,89.95,7.12Q373.32,153.09,300,117.8Z"/><path class="cls-6" d="M187.47,391.27,300,406.88l112.53-15.61L301,320a1.91,1.91,0,0,0-2.08,0Z"/><path class="cls-9" d="M212.41,375.32,299,320a2,2,0,0,1,2.06,0l86.56,55.37V497.65a1.94,1.94,0,0,1-1.94,1.94H214.35a1.94,1.94,0,0,1-1.94-1.94h0Z"/><path class="cls-10" d="M328.4,337.46l59.19,37.86V497.65a1.94,1.94,0,0,1-1.94,1.94H237.2Z"/><path class="cls-8" d="M279.64,415.62h40.72a1.94,1.94,0,0,1,1.94,1.94h0v82H277.7v-82a1.94,1.94,0,0,1,1.94-1.94Z"/><path class="cls-3" d="M299,296.39,189.15,366.21a14.87,14.87,0,0,0-4.57,20.52l2.89,4.54L299,320a1.91,1.91,0,0,1,2.08,0l111.49,71.3,2.89-4.54a14.87,14.87,0,0,0-4.57-20.52L301,296.39A2,2,0,0,0,299,296.39Z"/><g id="Group-3"><path class="cls-11" d="M490.34,146.68a60,60,0,1,1-60-60h0a59.88,59.88,0,0,1,60,60"/><path class="cls-12" d="M452.69,161.86,437.63,146.8l15.06-15.06a5.07,5.07,0,1,0-7.17-7.18l-15.06,15.18L415.4,124.68a5.08,5.08,0,0,0-7.18,7.18l15.06,15.06-14.94,14.94a5,5,0,0,0-1.29,4.82,5.07,5.07,0,0,0,3.53,3.53,4.83,4.83,0,0,0,4.82-1.29l15.06-15.06L445.52,169a5.08,5.08,0,0,0,7.17-7.18Z"/></g></g></svg>