<svg xmlns="http://www.w3.org/2000/svg" xmlns:xlink="http://www.w3.org/1999/xlink" viewBox="0 0 600 600"><defs><style>.cls-1{fill:none;}.cls-2{fill:url(#Degradado_sin_nombre_476);}.cls-3{fill:#072146;}.cls-4{fill:#49a5e6;}.cls-5{fill:url(#Degradado_sin_nombre_30);}.cls-6{fill:#2dcccd;}.cls-7{fill:#043263;}.cls-8{fill:#f6cb5c;}.cls-9{fill:url(#Degradado_sin_nombre_18);}.cls-10{fill:#fdf4dc;}</style><linearGradient id="Degradado_sin_nombre_476" x1="305.56" y1="2856.82" x2="465.58" y2="2555.87" gradientTransform="matrix(1, 0, 0, -1, 0, 3070)" gradientUnits="userSpaceOnUse"><stop offset="0" stop-color="#192647" stop-opacity="0.5"/><stop offset="1" stop-color="#192647" stop-opacity="0"/></linearGradient><linearGradient id="Degradado_sin_nombre_30" x1="444.52" y1="2745.53" x2="211.84" y2="2745.53" gradientTransform="matrix(1, 0, 0, -1, 0, 3070)" gradientUnits="userSpaceOnUse"><stop offset="0" stop-color="#043263" stop-opacity="0.4"/><stop offset="1" stop-color="#043263" stop-opacity="0"/></linearGradient><linearGradient id="Degradado_sin_nombre_18" x1="333.83" y1="2942.22" x2="413.9" y2="2899.65" gradientTransform="matrix(1, 0, 0, -1, 0, 3070)" gradientUnits="userSpaceOnUse"><stop offset="0" stop-color="#fff" stop-opacity="0.6"/><stop offset="1" stop-color="#fff" stop-opacity="0.2"/></linearGradient></defs><title>11</title><g id="Cuadrados_Blancos" data-name="Cuadrados Blancos"><rect class="cls-1" width="600" height="600"/></g><g id="Capa_44" data-name="Capa 44"><path class="cls-2" d="M530.5,293.58l-26.31-16.73a70,70,0,0,0-7.95-118.53c-.7-.38-1.4-.74-2.11-1.08l-1.21-.58-1.7-.77-1.51-.64-1.74-.68-1.11-.42c-.81-.28-1.62-.56-2.44-.82l-1-.3c-.7-.22-1.41-.42-2.12-.61l-.75-.2c-.91-.23-1.83-.44-2.75-.63-.29-.07-.59-.13-.88-.18-1-.19-1.9-.37-2.87-.51l-.56-.09c-.89-.13-1.79-.24-2.68-.34l-.63-.06q-1.51-.15-3.06-.24h-.67c-1.07,0-2.14-.08-3.22-.08h0a69.57,69.57,0,0,0-33.31,8.46c-1,.54-2,1.11-2.93,1.69a70.41,70.41,0,0,0-13.19,10.38,66.84,66.84,0,0,0-4.52,5,63.68,63.68,0,0,0-4,5.39c-1.26,1.87-2.43,3.79-3.51,5.78a68.07,68.07,0,0,0-7.23,20.37l-33.89-21.55a3,3,0,0,0-3.22,0l-169.89,108a23,23,0,0,0-7.07,31.75h0l4.47,7,38.58,5.35V496.94a3,3,0,0,0,3,3h265a3,3,0,0,0,3-3V337.7l38.58-5.35,4.47-7a23,23,0,0,0-7.05-31.75Z"/><path class="cls-3" d="M134.9,282.3,309,306.45,483.1,282.3,310.61,172a3,3,0,0,0-3.22,0Z"/><path class="cls-4" d="M173.48,257.62,307.4,172a3,3,0,0,1,3.2,0l133.92,85.66V446.89a3,3,0,0,1-3,3h-265a3,3,0,0,1-3-3Z"/><path class="cls-5" d="M352.94,199.05l91.58,58.57V446.89a3,3,0,0,1-3,3H211.84"/><path class="cls-6" d="M277.5,320h63a3,3,0,0,1,3,3V449.89h-69V323A3,3,0,0,1,277.5,320Z"/><path class="cls-7" d="M307.39,135.5,137.5,243.5a23,23,0,0,0-7.07,31.75h0l4.47,7L307.39,172a3,3,0,0,1,3.22,0L483.1,282.3l4.47-7a23,23,0,0,0-7.07-31.75h0l-169.89-108A3,3,0,0,0,307.39,135.5Z"/><path class="cls-8" d="M503.27,170.06a90,90,0,1,1-90-90h0a90,90,0,0,1,90,90"/><path class="cls-9" d="M413.21,80.06a90,90,0,0,0-41.55,169.71l84-159.1A89.57,89.57,0,0,0,413.21,80.06Z"/><path class="cls-10" d="M423.71,187.89c0-5.92-2.34-8.26-13.65-13.37-16.27-7.31-21-13-21-24.27s9.1-19.17,18.33-21.51V115H408l13.24,5.79v7.59a30.36,30.36,0,0,1,11.85,4.14l.7.41.41.27-.14.55-.13.82L432.21,145l-.28,1.93-.13,1.38-1.11-.82-1.52-1.29a24.59,24.59,0,0,0-15-5.19c-6.89,0-10.76,3.16-10.76,8.4,0,5,2.48,7.18,13.51,12.27,16.28,7.44,21.51,13.24,21.51,25.38,0,11.17-7.86,19.44-17.09,22.47V225.4h-1.1l-12.69-7.16v-7.72c-4.55-.55-12.86-2.34-18-5.14l-.83-.41-.55-.27v-.56l.14-.83,1.51-10.75.28-1.93.14-1.28,1.09.69,1.52,1a35.16,35.16,0,0,0,19.17,6.2c7.32.28,11.73-3.44,11.73-9.37"/></g></svg>