<svg id="Contenido" xmlns="http://www.w3.org/2000/svg" xmlns:xlink="http://www.w3.org/1999/xlink" viewBox="0 0 600 600"><defs><style>.cls-1{font-size:20px;font-family:MyriadPro-Regular, Myriad Pro;}.cls-2{fill:url(#Degradado_sin_nombre_7);}.cls-3{fill:#043263;}.cls-4{fill:#1464a5;}.cls-5{fill:url(#Degradado_sin_nombre_28);}.cls-6{fill:#2dcccd;}.cls-7{fill:#004481;}.cls-8{fill:#f6cb5c;}.cls-9{fill:url(#Degradado_sin_nombre_5);}.cls-10{fill:#fdf4dc;}</style><linearGradient id="Degradado_sin_nombre_7" x1="305.52" y1="213.12" x2="465.57" y2="514.13" gradientUnits="userSpaceOnUse"><stop offset="0" stop-color="#192647"/><stop offset="0" stop-color="#192647" stop-opacity="0.5"/><stop offset="1" stop-color="#192647" stop-opacity="0"/></linearGradient><linearGradient id="Degradado_sin_nombre_28" x1="444.52" y1="324.47" x2="211.84" y2="324.47" gradientUnits="userSpaceOnUse"><stop offset="0" stop-color="#043263" stop-opacity="0.6"/><stop offset="1" stop-color="#043263" stop-opacity="0"/></linearGradient><linearGradient id="Degradado_sin_nombre_5" x1="351.48" y1="137.18" x2="413.76" y2="170.29" gradientUnits="userSpaceOnUse"><stop offset="0" stop-color="#fff" stop-opacity="0.6"/><stop offset="1" stop-color="#fff" stop-opacity="0.2"/></linearGradient></defs><title>0</title><text class="cls-1" transform="translate(477.88 558.67)"> </text><path class="cls-2" d="M530.5,293.58l-26.31-16.73a70,70,0,0,0-7.95-118.53c-.7-.38-1.4-.74-2.11-1.08l-1.21-.58-1.7-.77-1.51-.64-1.74-.68-1.11-.42c-.81-.28-1.62-.56-2.44-.82l-1-.3c-.7-.22-1.41-.42-2.12-.61l-.75-.2c-.91-.23-1.83-.44-2.75-.63-.29-.07-.59-.13-.88-.18-1-.19-1.9-.37-2.87-.51l-.56-.09c-.89-.13-1.79-.24-2.68-.34l-.63-.06q-1.51-.15-3.06-.24l-.67,0c-1.07,0-2.14-.08-3.22-.08h0a69.52,69.52,0,0,0-33.31,8.46c-1,.54-2,1.11-2.93,1.69a70.26,70.26,0,0,0-13.19,10.38,66.41,66.41,0,0,0-4.52,5q-2.14,2.59-4,5.39c-1.26,1.87-2.43,3.79-3.51,5.78a67.8,67.8,0,0,0-7.23,20.37l-33.89-21.55a3,3,0,0,0-3.22,0l-169.89,108a23,23,0,0,0-7.07,31.75l4.47,7,38.58,5.35V496.94a3,3,0,0,0,3,3h265a3,3,0,0,0,3-3V337.7l38.58-5.35,4.47-7A23,23,0,0,0,530.5,293.58Z"/><path class="cls-3" d="M134.9,282.3,309,306.45,483.1,282.3,310.61,172a3,3,0,0,0-3.22,0Z"/><path class="cls-4" d="M173.48,257.62,307.4,172a3,3,0,0,1,3.2,0l133.92,85.66V446.89a3,3,0,0,1-3,3h-265a3,3,0,0,1-3-3Z"/><path class="cls-5" d="M352.94,199.05l91.58,58.57V446.89a3,3,0,0,1-3,3H211.84"/><path class="cls-6" d="M277.5,320h63a3,3,0,0,1,3,3V449.89a0,0,0,0,1,0,0h-69a0,0,0,0,1,0,0V323A3,3,0,0,1,277.5,320Z"/><path class="cls-7" d="M307.39,135.5l-169.89,108a23,23,0,0,0-7.07,31.75l4.47,7L307.39,172a3,3,0,0,1,3.22,0L483.1,282.3l4.47-7a23,23,0,0,0-7.07-31.75l-169.89-108A3,3,0,0,0,307.39,135.5Z"/><path class="cls-8" d="M483.27,170.06a70,70,0,1,1-70-70h0a70,70,0,0,1,70,70"/><path class="cls-9" d="M413.22,100.06a70,70,0,0,0-32.31,132l65.33-123.75A69.73,69.73,0,0,0,413.22,100.06Z"/><path class="cls-10" d="M421.39,183.93c0-4.61-1.82-6.43-10.62-10.4-12.65-5.69-16.3-10.08-16.3-18.88s7.08-14.91,14.26-16.73V127.2h.43l10.3,4.5v5.9a23.64,23.64,0,0,1,9.22,3.22l.54.32.32.21-.11.43-.1.64L428,150.58l-.22,1.5-.1,1.07-.86-.64-1.18-1A19.14,19.14,0,0,0,414,147.47c-5.36,0-8.37,2.46-8.37,6.54,0,3.86,1.93,5.58,10.51,9.54,12.66,5.79,16.73,10.3,16.73,19.74,0,8.69-6.11,15.12-13.29,17.48V213.1h-.86l-9.87-5.57v-6c-3.54-.43-10-1.82-14-4l-.64-.32-.43-.21v-.43l.11-.65,1.17-8.36.22-1.5.11-1,.85.54,1.18.75a27.37,27.37,0,0,0,14.91,4.82c5.69.22,9.12-2.68,9.12-7.29"/></svg>