<svg id="Contenido" xmlns="http://www.w3.org/2000/svg" xmlns:xlink="http://www.w3.org/1999/xlink" viewBox="0 0 600 600"><defs><style>.cls-1{fill:url(#Degradado_sin_nombre_10);}.cls-2{fill:#da3951;}.cls-3{isolation:isolate;fill:url(#Degradado_sin_nombre_46);}.cls-4{fill:#2dcccd;}.cls-5{fill:#1464a5;}.cls-6{font-size:20px;font-family:MyriadPro-Regular, Myriad Pro;}.cls-7{fill:#043263;}.cls-8{fill:url(#Degradado_sin_nombre_28);}.cls-9{fill:#004481;}</style><linearGradient id="Degradado_sin_nombre_10" x1="290.1" y1="191.69" x2="441.8" y2="477" gradientUnits="userSpaceOnUse"><stop offset="0.01" stop-color="#043263" stop-opacity="0.5"/><stop offset="1" stop-color="#043263" stop-opacity="0"/></linearGradient><linearGradient id="Degradado_sin_nombre_46" x1="315.05" y1="106.51" x2="366.19" y2="133.7" gradientUnits="userSpaceOnUse"><stop offset="0" stop-color="#fff" stop-opacity="0.5"/><stop offset="1" stop-color="#fff" stop-opacity="0.1"/></linearGradient><linearGradient id="Degradado_sin_nombre_28" x1="404.45" y1="324.67" x2="225.12" y2="324.67" gradientUnits="userSpaceOnUse"><stop offset="0" stop-color="#043263" stop-opacity="0.6"/><stop offset="1" stop-color="#043263" stop-opacity="0"/></linearGradient></defs><title>_</title><path class="cls-1" d="M482.18,312.15l-47.87-30.44V237.05a3,3,0,0,0-3-3H422.5c3-2.55,5.79-5,8.38-7.19,10.95-9.34,20.4-17.4,27-25.35,7.35-8.88,10.77-17.3,10.77-26.5A34,34,0,0,0,460,151.83a29.18,29.18,0,0,0-21.73-9.47c-.48,0-.95,0-1.42.06h0c-.69,0-1.38.09-2.06.18h-.11c-.64.08-1.28.19-1.92.31l-.24.05c-.59.13-1.18.27-1.76.43l-.38.12c-.54.16-1.07.33-1.59.52l-.55.22c-.47.18-.94.37-1.39.58-.26.11-.51.25-.76.37s-.77.38-1.16.59l-1,.62-.85.52c-.62.41-1.24.85-1.84,1.32s-1.14.92-1.69,1.41a34.26,34.26,0,0,0-2.75,2.77c-.85,1-1.68,2-2.46,3a35.64,35.64,0,0,0-5.37-5.93c-.5-.45-1-.88-1.54-1.29a28.69,28.69,0,0,0-6-3.59,27.22,27.22,0,0,0-11.1-2.31A29.77,29.77,0,0,0,379,144.58a29,29,0,0,0-7.55,4.56,30,30,0,0,0-2.84,2.69,30.33,30.33,0,0,0-2.86,3.62c-.29.43-.57.86-.83,1.3-.41.66-.78,1.35-1.13,2.05a31.7,31.7,0,0,0-1.34,3A36.24,36.24,0,0,0,360,175.05c0,9.2,3.42,17.62,10.78,26.51h0c.68.83,1.4,1.65,2.15,2.48l.27.31c.72.79,1.47,1.59,2.24,2.39l.39.4c.77.79,1.56,1.59,2.38,2.39l.41.4c.84.81,1.7,1.63,2.59,2.46l.3.29c1.91,1.77,3.93,3.58,6,5.43l.17.15,3.21,2.79.26.22q3.18,2.75,6.56,5.62c2.59,2.21,5.43,4.64,8.38,7.19H397.3a3,3,0,0,0-3,3v19.18l-43.07-27.38a2.32,2.32,0,0,0-2.48,0L217.82,312.15a17.73,17.73,0,0,0-5.45,24.47l3.44,5.41,29.74,4.13V468.89a2.32,2.32,0,0,0,2.31,2.31H452.14a2.32,2.32,0,0,0,2.31-2.31V346.16L484.19,342l3.44-5.41A17.73,17.73,0,0,0,482.18,312.15Z"/><path class="cls-2" d="M410,102a29.18,29.18,0,0,0-21.73-9.47,27.27,27.27,0,0,0-17.07,5.9,34.63,34.63,0,0,0-6.9,7.21,34.67,34.67,0,0,0-6.91-7.21,27.27,27.27,0,0,0-17.07-5.9A29.18,29.18,0,0,0,318.6,102,34,34,0,0,0,310,125.19c0,9.2,3.42,17.62,10.78,26.5,6.57,7.95,16,16,27,25.35,3.74,3.19,8,6.81,12.38,10.66a6.37,6.37,0,0,0,8.4,0c4.39-3.85,8.63-7.47,12.37-10.66,10.95-9.34,20.4-17.4,27-25.35,7.35-8.88,10.77-17.3,10.77-26.5A34,34,0,0,0,410,102Z"/><path class="cls-3" d="M371.21,98.4a34.63,34.63,0,0,0-6.9,7.21,34.67,34.67,0,0,0-6.91-7.21,27.27,27.27,0,0,0-17.07-5.9A29.18,29.18,0,0,0,318.6,102,34,34,0,0,0,310,125.19c0,9.2,3.42,17.62,10.78,26.5,5.93,7.17,14.21,14.44,23.82,22.65l42.28-81.79A27.27,27.27,0,0,0,371.21,98.4Z"/><path class="cls-4" d="M347.3,184.23h34a3,3,0,0,1,3,3v47a0,0,0,0,1,0,0h-40a0,0,0,0,1,0,0v-47A3,3,0,0,1,347.3,184.23Z"/><path class="cls-5" d="M347.3,184.23h34a3,3,0,0,1,3,3v5.47a0,0,0,0,1,0,0h-40a0,0,0,0,1,0,0v-5.43A3,3,0,0,1,347.3,184.23Z"/><text class="cls-6" transform="translate(310.49 548.13)"> </text><path class="cls-7" d="M165.81,292.17,300,310.78l134.19-18.61-132.95-85a2.32,2.32,0,0,0-2.48,0Z"/><path class="cls-5" d="M195.55,273.15l103.22-66a2.28,2.28,0,0,1,2.46,0l103.22,66V419a2.32,2.32,0,0,1-2.31,2.32H197.86a2.32,2.32,0,0,1-2.31-2.32Z"/><path class="cls-8" d="M333.86,228l70.59,45.14V419a2.32,2.32,0,0,1-2.31,2.32h-177"/><path class="cls-4" d="M276.41,321.2h47.18a3,3,0,0,1,3,3v97.13a0,0,0,0,1,0,0H273.41a0,0,0,0,1,0,0V324.2A3,3,0,0,1,276.41,321.2Z"/><path class="cls-9" d="M298.76,179,167.82,262.29a17.73,17.73,0,0,0-5.45,24.47l3.44,5.41,133-85a2.32,2.32,0,0,1,2.48,0l133,85,3.44-5.41a17.73,17.73,0,0,0-5.45-24.47L301.24,179A2.28,2.28,0,0,0,298.76,179Z"/></svg>