<?xml version="1.0" encoding="utf-8"?>
<!-- Generator: Adobe Illustrator 23.0.1, SVG Export Plug-In . SVG Version: 6.00 Build 0)  -->
<svg version="1.1" id="Capa_1" xmlns="http://www.w3.org/2000/svg" xmlns:xlink="http://www.w3.org/1999/xlink" x="0px" y="0px"
	 viewBox="0 0 600 600" style="enable-background:new 0 0 600 600;" xml:space="preserve">
<style type="text/css">
	.st0{fill:url(#Path_1_);}
	.st1{fill:#043263;}
	.st2{fill:#02A5A5;}
	.st3{fill:#028484;}
	.st4{fill:#072146;}
	.st5{fill:#56E2DE;}
	.st6{fill:#2DCCCD;}
	.st7{fill:#1464A5;}
	.st8{fill:url(#SVGID_1_);}
	.st9{fill:#004481;}
	.st10{fill:#DA3951;}
	.st11{fill:#FFFFFF;}
</style>
<title>Products and Services/Home-Insurance-negative</title>
<desc>Created with Sketch.</desc>
<g>
	<g id="Home-Insurance" transform="translate(112.000000, 65.000000)">
		
			<linearGradient id="Path_1_" gradientUnits="userSpaceOnUse" x1="-230.8698" y1="531.3899" x2="-231.3352" y2="532.2065" gradientTransform="matrix(390 0 0 -433 90414 230532.3281)">
			<stop  offset="0" style="stop-color:#192647;stop-opacity:0"/>
			<stop  offset="1" style="stop-color:#192647;stop-opacity:0.5"/>
		</linearGradient>
		<path id="Path" class="st0" d="M126.6,370l-3.1-4.9c-4.7-7.4-2.6-17.2,4.7-22l0.3-0.2L243,270.1l0-25.4
			c-33.4-7.4-64.8-10.2-100-7.8l0.1-0.1l-0.2,0.3l-2.1-1.3l-3-1.8l-1.9-1.1c-30.2-17.8-42.9-22-81.6-34L54,199l0-0.2l0,0l0,0
			c9.7-55.2,90.1-122,189-124.7l0-13.6c0-3,2.5-5.4,5.5-5.4s5.5,2.4,5.5,5.4l0,13.6c31.3,0.7,60.8,7.8,86.8,19
			c5.7-21.9,25.6-38,49.3-38c28.2,0,51,22.8,51,51c0,17.8-9.1,33.5-23,42.6c13.9,16.4,23,33.8,25.8,50.1l0,0l0,0l0,0.2l-0.2-0.2
			l-6.9,2.2c-36.1,11.3-48.3,15.9-81.7,36l-0.3-0.4l0.1,0.2c-35.5-2.4-67.2,0.5-101,8l0,25.3l114.5,72.8c7.4,4.7,9.7,14.5,5.1,21.9
			l-0.2,0.3l-3,4.7l0.5,0.3l-27,3.7v112c0,1.2-0.9,2.1-2.1,2.1H156.1c-1.2,0-2.1-0.9-2.1-2.1v-112l-27-3.7L126.6,370z"/>
		<path class="st1" d="M194.5,39c-3,0-5.5-2.4-5.5-5.4V5.4c0-3,2.5-5.4,5.5-5.4s5.5,2.4,5.5,5.4v28.1C200,36.6,197.5,39,194.5,39z"
			/>
		<path class="st2" d="M0,143.8c41.7,13,53.3,16.9,88.8,38.2L195,34C125.2,45.9,61,86.6,0,143.8z"/>
		<path class="st3" d="M89,181.8c37.2-2.5,70.3,0.8,106,9.2V34C148.5,80,111.3,128.8,89,181.8z"/>
		<path class="st2" d="M390,143.8c-41.7,13-53.3,16.9-88.8,38.2L195,34C264.8,45.9,329,86.6,390,143.8z"/>
		<path class="st3" d="M301,181.8c-37.2-2.5-70.3,0.8-106,9.2V34C239.3,80.1,275.7,129,301,181.8z"/>
		<rect id="Rectangle" x="189" y="82" class="st4" width="11" height="243"/>
		<path class="st5" d="M195,19C93.3,19,9.6,87.6,0,144c25.9-18.6,58.3-29.5,97.5-29.9l0,0C109.5,76.1,142,44.4,195,19z"/>
		<path class="st5" d="M195,19c101.7,0,185.4,68.6,195,125c-25.9-18.6-58.3-29.5-97.4-29.9l0,0C280.5,76.1,248,44.4,195,19z"/>
		<path class="st6" d="M194.5,19c-53,25.4-85.5,57.1-97.5,95c39-11.1,63.7-13.5,97.5-7.7c33.8-5.8,58.5-3.5,97.5,7.7
			C280,76.1,247.5,44.4,194.5,19z"/>
		<path class="st1" d="M73.1,315.5l122,16.8l121.7-16.8l-120.7-77.2c-0.7-0.4-1.6-0.4-2.3,0L73.1,315.5z"/>
		<path class="st7" d="M100,298.3l93.9-60c0.7-0.4,1.5-0.4,2.2,0l93.9,60v132.6c0,1.2-0.9,2.1-2.1,2.1H102.1c-1.2,0-2.1-0.9-2.1-2.1
			V298.3z"/>
		
			<linearGradient id="SVGID_1_" gradientUnits="userSpaceOnUse" x1="-230.2638" y1="531.7828" x2="-231.2638" y2="531.7828" gradientTransform="matrix(163 0 0 -175 37823 93407.2266)">
			<stop  offset="0" style="stop-color:#043263;stop-opacity:0.6"/>
			<stop  offset="1" style="stop-color:#043263;stop-opacity:0"/>
		</linearGradient>
		<path class="st8" d="M225.8,257.5l64.2,40.9v132.6c0,1.2-0.9,2.1-2.1,2.1H127"/>
		<path class="st6" d="M173.1,342h43.8c1.2,0,2.1,0.9,2.1,2.1V433h-48v-88.9c0-0.6,0.2-1.1,0.6-1.5C172,342.2,172.5,342,173.1,342
			L173.1,342z"/>
		<path class="st9" d="M193.9,212.9L75,288.4c-7.5,4.8-9.7,14.7-4.9,22.2l3.1,4.9l120.8-77.1c0.7-0.4,1.6-0.4,2.3,0l120.7,77.2
			l3.1-4.9c4.8-7.5,2.6-17.4-4.9-22.2l-119-75.6C195.4,212.5,194.6,212.5,193.9,212.9z"/>
	</g>
	<g id="Group-3" transform="translate(397.000000, 65.000000)">
		<path class="st10" d="M102,51c0,28.2-22.9,51-51,51S0,79.2,0,51S22.9,0,51,0l0,0C79.2-0.1,102,22.8,102,51"/>
		<path class="st11" d="M70,63.9L57.2,51.1L70,38.3c1.7-1.7,1.7-4.4,0-6.1c-1.7-1.7-4.4-1.7-6.1,0L51.1,45.1L38.3,32.3
			c-1.7-1.7-4.4-1.7-6.1,0c-1.7,1.7-1.7,4.4,0,6.1l12.8,12.8L32.3,63.9c-1.1,1.1-1.5,2.7-1.1,4.1c0.4,1.5,1.6,2.6,3,3
			c1.5,0.4,3.1,0,4.1-1.1l12.8-12.8L63.9,70c1.7,1.6,4.3,1.6,6-0.1S71.6,65.6,70,63.9L70,63.9z"/>
	</g>
</g>
</svg>
