<svg id="Contenido" xmlns="http://www.w3.org/2000/svg" xmlns:xlink="http://www.w3.org/1999/xlink" viewBox="0 0 600 600"><defs><style>.cls-1{fill:url(#Degradado_sin_nombre_7);}.cls-2{fill:#043263;}.cls-3{fill:#1464a5;}.cls-4{fill:url(#Degradado_sin_nombre_28);}.cls-5{fill:#2dcccd;}.cls-6{fill:#004481;}.cls-7{fill:#f6cb5c;}.cls-8{fill:#fdf4dc;}.cls-9{fill:url(#Degradado_sin_nombre_14);}</style><linearGradient id="Degradado_sin_nombre_7" x1="305.52" y1="213.12" x2="465.57" y2="514.13" gradientUnits="userSpaceOnUse"><stop offset="0" stop-color="#192647"/><stop offset="0" stop-color="#192647" stop-opacity="0.5"/><stop offset="1" stop-color="#192647" stop-opacity="0"/></linearGradient><linearGradient id="Degradado_sin_nombre_28" x1="444.52" y1="324.52" x2="211.84" y2="324.52" gradientUnits="userSpaceOnUse"><stop offset="0" stop-color="#043263" stop-opacity="0.6"/><stop offset="1" stop-color="#043263" stop-opacity="0"/></linearGradient><linearGradient id="Degradado_sin_nombre_14" x1="351.48" y1="137.18" x2="413.76" y2="170.29" gradientUnits="userSpaceOnUse"><stop offset="0" stop-color="#fff" stop-opacity="0.6"/><stop offset="1" stop-color="#fff" stop-opacity="0.2"/></linearGradient></defs><title>0</title><path class="cls-1" d="M530.5,293.58l-26.31-16.73a70,70,0,0,0-7.95-118.53c-.7-.38-1.4-.74-2.11-1.08l-1.21-.58-1.7-.77-1.51-.64-1.74-.68-1.11-.42c-.81-.28-1.62-.56-2.44-.82l-1-.3c-.7-.22-1.41-.42-2.12-.61l-.75-.2c-.91-.23-1.83-.44-2.75-.63-.29-.07-.59-.13-.88-.18-1-.19-1.9-.37-2.87-.51l-.56-.09c-.89-.13-1.79-.24-2.68-.34l-.63-.06q-1.51-.15-3.06-.24l-.67,0c-1.07,0-2.14-.08-3.22-.08h0a69.52,69.52,0,0,0-33.31,8.46c-1,.54-2,1.11-2.93,1.69a70.26,70.26,0,0,0-13.19,10.38,66.41,66.41,0,0,0-4.52,5q-2.14,2.59-4,5.39c-1.26,1.87-2.43,3.79-3.51,5.78a67.8,67.8,0,0,0-7.23,20.37l-33.89-21.55a3,3,0,0,0-3.22,0l-169.89,108a23,23,0,0,0-7.07,31.75l4.47,7,38.58,5.35V496.94a3,3,0,0,0,3,3h265a3,3,0,0,0,3-3V337.7l38.58-5.35,4.47-7A23,23,0,0,0,530.5,293.58Z"/><path class="cls-2" d="M134.9,282.35,309,306.5l174.1-24.15L310.61,172a3,3,0,0,0-3.22,0Z"/><path class="cls-3" d="M173.48,257.67,307.4,172a3,3,0,0,1,3.2,0l133.92,85.66V446.94a3,3,0,0,1-3,3h-265a3,3,0,0,1-3-3Z"/><path class="cls-4" d="M352.94,199.1l91.58,58.57V446.94a3,3,0,0,1-3,3H211.84"/><path class="cls-5" d="M277.5,320h63a3,3,0,0,1,3,3V449.94a0,0,0,0,1,0,0h-69a0,0,0,0,1,0,0V323a3,3,0,0,1,3-3Z"/><path class="cls-6" d="M307.39,135.55l-169.89,108a23,23,0,0,0-7.07,31.75l4.47,7L307.39,172a3,3,0,0,1,3.22,0L483.1,282.35l4.47-7a23,23,0,0,0-7.07-31.75l-169.89-108A3,3,0,0,0,307.39,135.55Z"/><path class="cls-7" d="M483.27,170.06a70,70,0,1,1-70-70h0a70,70,0,0,1,70,70"/><path class="cls-8" d="M414.4,203.78c-13.14,0-22-8.07-24.86-22.73H379v-7.83h9.62c-.08-1.09-.08-2.2-.08-3.27v-2.19H379V160h10.44c2.71-14.78,12-23.59,24.86-23.59,10.93,0,18.44,4.86,22.32,14.43l.08.22-9.59,5.42-.1-.31c-2.26-6.77-6.18-9.79-12.71-9.79-7.25,0-12,4.71-13.81,13.62h16.11v7.72H399.67v2c0,1.17,0,2.38.09,3.48H416.7v7.83h-16c1.87,8.72,6.39,13,13.8,13,6.76,0,10.66-3.09,13-10.32l.11-.32L437,189l-.1.22C432.9,198.48,424.69,203.78,414.4,203.78Z"/><path class="cls-9" d="M413.22,100.06a70,70,0,0,0-32.31,132l65.33-123.75A69.73,69.73,0,0,0,413.22,100.06Z"/></svg>