<svg xmlns="http://www.w3.org/2000/svg" xmlns:xlink="http://www.w3.org/1999/xlink" viewBox="0 0 600 600"><defs><style>.cls-1{fill:none;}.cls-2{fill:url(#Degradado_sin_nombre_473);}.cls-3{fill:#072146;}.cls-4{fill:#49a5e6;}.cls-5{fill:url(#Degradado_sin_nombre_30);}.cls-6{fill:#2dcccd;}.cls-7{fill:#043263;}.cls-8{fill:#f6cb5c;}.cls-9{fill:url(#Degradado_sin_nombre_18);}.cls-10{fill:#fdf4dc;}.cls-11{fill:url(#Degradado_sin_nombre_18-2);}</style><linearGradient id="Degradado_sin_nombre_473" x1="305.56" y1="2856.82" x2="465.58" y2="2555.87" gradientTransform="matrix(1, 0, 0, -1, 0, 3070)" gradientUnits="userSpaceOnUse"><stop offset="0" stop-color="#192647" stop-opacity="0.5"/><stop offset="1" stop-color="#192647" stop-opacity="0"/></linearGradient><linearGradient id="Degradado_sin_nombre_30" x1="444.52" y1="2745.53" x2="211.84" y2="2745.53" gradientTransform="matrix(1, 0, 0, -1, 0, 3070)" gradientUnits="userSpaceOnUse"><stop offset="0" stop-color="#043263" stop-opacity="0.4"/><stop offset="1" stop-color="#043263" stop-opacity="0"/></linearGradient><linearGradient id="Degradado_sin_nombre_18" x1="333.83" y1="2942.22" x2="413.9" y2="2899.65" gradientTransform="matrix(1, 0, 0, -1, 0, 3070)" gradientUnits="userSpaceOnUse"><stop offset="0" stop-color="#fff" stop-opacity="0.6"/><stop offset="1" stop-color="#fff" stop-opacity="0.2"/></linearGradient><linearGradient id="Degradado_sin_nombre_18-2" x1="333.83" y1="2942.22" x2="413.9" y2="2899.65" xlink:href="#Degradado_sin_nombre_18"/></defs><title>11</title><g id="Cuadrados_Blancos" data-name="Cuadrados Blancos"><rect class="cls-1" width="600" height="600"/></g><g id="Capa_45" data-name="Capa 45"><path class="cls-2" d="M530.5,293.58l-26.31-16.73a70,70,0,0,0-7.95-118.53c-.7-.38-1.4-.74-2.11-1.08l-1.21-.58-1.7-.77-1.51-.64-1.74-.68-1.11-.42c-.81-.28-1.62-.56-2.44-.82l-1-.3c-.7-.22-1.41-.42-2.12-.61l-.75-.2c-.91-.23-1.83-.44-2.75-.63-.29-.07-.59-.13-.88-.18-1-.19-1.9-.37-2.87-.51l-.56-.09c-.89-.13-1.79-.24-2.68-.34l-.63-.06q-1.51-.15-3.06-.24h-.67c-1.07,0-2.14-.08-3.22-.08h0a69.57,69.57,0,0,0-33.31,8.46c-1,.54-2,1.11-2.93,1.69a70.41,70.41,0,0,0-13.19,10.38,66.84,66.84,0,0,0-4.52,5,63.68,63.68,0,0,0-4,5.39c-1.26,1.87-2.43,3.79-3.51,5.78a68.07,68.07,0,0,0-7.23,20.37l-33.89-21.55a3,3,0,0,0-3.22,0l-169.89,108a23,23,0,0,0-7.07,31.75h0l4.47,7,38.58,5.35V496.94a3,3,0,0,0,3,3h265a3,3,0,0,0,3-3V337.7l38.58-5.35,4.47-7a23,23,0,0,0-7.05-31.75Z"/><path class="cls-3" d="M134.9,282.3,309,306.45,483.1,282.3,310.61,172a3,3,0,0,0-3.22,0Z"/><path class="cls-4" d="M173.48,257.62,307.4,172a3,3,0,0,1,3.2,0l133.92,85.66V446.89a3,3,0,0,1-3,3h-265a3,3,0,0,1-3-3Z"/><path class="cls-5" d="M352.94,199.05l91.58,58.57V446.89a3,3,0,0,1-3,3H211.84"/><path class="cls-6" d="M277.5,320h63a3,3,0,0,1,3,3V449.89h-69V323A3,3,0,0,1,277.5,320Z"/><path class="cls-7" d="M307.39,135.5,137.5,243.5a23,23,0,0,0-7.07,31.75h0l4.47,7L307.39,172a3,3,0,0,1,3.22,0L483.1,282.3l4.47-7a23,23,0,0,0-7.07-31.75h0l-169.89-108A3,3,0,0,0,307.39,135.5Z"/><path class="cls-8" d="M503.27,170.06a90,90,0,1,1-90-90h0a90,90,0,0,1,90,90"/><path class="cls-9" d="M413.21,80.06a90,90,0,0,0-41.55,169.71l84-159.1A89.57,89.57,0,0,0,413.21,80.06Z"/><path class="cls-8" d="M503.27,170.06a90,90,0,1,1-90-90h0a90,90,0,0,1,90,90"/><path class="cls-10" d="M414.72,213.41c-16.89,0-28.28-10.37-32-29.22H369.21V174.12h12.37c-.11-1.4-.11-2.83-.11-4.2V167.1H369.21v-10h13.42c3.49-19,15.43-30.33,32-30.33,14.06,0,23.71,6.24,28.7,18.55l.1.28-12.33,7-.12-.4c-2.91-8.7-7.95-12.59-16.35-12.59-9.32,0-15.42,6.06-17.75,17.52h20.71v9.92H395.78v2.57c0,1.51,0,3.06.12,4.48h21.78v10.06H397.11c2.4,11.22,8.21,16.72,17.74,16.72,8.69,0,13.71-4,16.72-13.27l.14-.41,12.07,7.21-.13.28C438.51,206.6,428,213.41,414.72,213.41Z"/><path class="cls-11" d="M413.21,80.06a90,90,0,0,0-41.55,169.71l84-159.1A89.57,89.57,0,0,0,413.21,80.06Z"/></g></svg>