<svg xmlns="http://www.w3.org/2000/svg" xmlns:xlink="http://www.w3.org/1999/xlink" viewBox="0 0 600 600"><defs><style>.cls-1{fill:none;}.cls-2{fill:url(#Degradado_sin_nombre_477);}.cls-3{fill:#004481;}.cls-4{fill:url(#Degradado_sin_nombre_114);}.cls-5{fill:#2dcccd;}.cls-6{fill:#49a5e6;}.cls-7{fill:url(#Degradado_sin_nombre_77);}.cls-8{fill:#f8cd50;}.cls-9{fill:#028484;}.cls-10{fill:#043263;}.cls-11{fill:url(#Degradado_sin_nombre_30);}.cls-12{fill:url(#Degradado_sin_nombre_30-2);}.cls-13{fill:url(#Degradado_sin_nombre_18);}</style><linearGradient id="Degradado_sin_nombre_477" x1="249.79" y1="2911.24" x2="451.86" y2="2531.21" gradientTransform="matrix(1, 0, 0, -1, 0, 3070)" gradientUnits="userSpaceOnUse"><stop offset="0" stop-color="#1c2645" stop-opacity="0.5"/><stop offset="1" stop-color="#1c2645" stop-opacity="0"/></linearGradient><linearGradient id="Degradado_sin_nombre_114" x1="445" y1="2768.5" x2="222.75" y2="2768.5" gradientTransform="matrix(1, 0, 0, -1, 0, 3070)" gradientUnits="userSpaceOnUse"><stop offset="0" stop-color="#072146" stop-opacity="0.8"/><stop offset="1" stop-color="#072146" stop-opacity="0"/></linearGradient><linearGradient id="Degradado_sin_nombre_77" x1="238.58" y1="2798.79" x2="316.26" y2="2721.12" gradientTransform="matrix(1, 0, 0, -1, 0, 3070)" gradientUnits="userSpaceOnUse"><stop offset="0" stop-color="#fff" stop-opacity="0.5"/><stop offset="1" stop-color="#fff" stop-opacity="0"/></linearGradient><linearGradient id="Degradado_sin_nombre_30" x1="418" y1="2914.22" x2="398.9" y2="2914.22" gradientTransform="matrix(1, 0, 0, -1, 0, 3070)" gradientUnits="userSpaceOnUse"><stop offset="0" stop-color="#043263" stop-opacity="0.4"/><stop offset="1" stop-color="#043263" stop-opacity="0"/></linearGradient><linearGradient id="Degradado_sin_nombre_30-2" x1="358" y1="2914.22" x2="338.9" y2="2914.22" xlink:href="#Degradado_sin_nombre_30"/><linearGradient id="Degradado_sin_nombre_18" x1="184.65" y1="2754.82" x2="206.3" y2="2733.18" gradientTransform="matrix(1, 0, 0, -1, 0, 3070)" gradientUnits="userSpaceOnUse"><stop offset="0" stop-color="#fff" stop-opacity="0.6"/><stop offset="1" stop-color="#fff" stop-opacity="0.2"/></linearGradient></defs><title>11</title><g id="Cuadrados_Blancos" data-name="Cuadrados Blancos"><rect class="cls-1" width="600" height="600"/></g><g id="Capa_43" data-name="Capa 43"><path class="cls-2" d="M475,175H225a23,23,0,0,0-23,23v34a3,3,0,0,0,3,3h0V502a23,23,0,0,0,23,23H472a23,23,0,0,0,6.84-1c.72-.23,1.42-.48,2.11-.77.35-.15.68-.3,1-.46a23.3,23.3,0,0,0,4.66-3c.29-.23.56-.47.83-.72l.8-.76c.26-.26.51-.53.76-.8s.49-.55.72-.83a23.3,23.3,0,0,0,3-4.66c.16-.33.31-.67.46-1a18.75,18.75,0,0,0,.77-2.11,23,23,0,0,0,1-6.84V235h0a3,3,0,0,0,3-3h0V198A23,23,0,0,0,475,175Z"/><rect class="cls-3" x="155" y="128" width="290" height="347" rx="23"/><path class="cls-4" d="M422,128H407.25L222.75,475H422a23,23,0,0,0,23-23V151A23,23,0,0,0,422,128Z"/><circle class="cls-5" cx="300" cy="330" r="105"/><circle class="cls-6" cx="300" cy="330" r="85"/><path class="cls-3" d="M319.7,375l-6.29,4.63a28.55,28.55,0,0,1-34.18-.25h0a28.55,28.55,0,0,0-34.19-.24l-9.12,6.72A85,85,0,0,0,376.83,366.4,61.91,61.91,0,0,0,319.7,375Z"/><path class="cls-7" d="M300,245a85,85,0,0,0-39.91,160.05L339.9,254.94A84.62,84.62,0,0,0,300,245Z"/><circle class="cls-6" cx="405" cy="435" r="15"/><rect class="cls-8" x="183.11" y="315" width="46" height="30" rx="2.96"/><path class="cls-5" d="M175,125H425a23,23,0,0,1,23,23v34a3,3,0,0,1-3,3H155a3,3,0,0,1-3-3V148A23,23,0,0,1,175,125Z"/><path class="cls-9" d="M180,141h55.55a2.41,2.41,0,0,1,2.41,2.41h0v23.18a2.41,2.41,0,0,1-2.41,2.41H170.41a2.41,2.41,0,0,1-2.41-2.41h0V153A12,12,0,0,1,180,141Z"/><circle class="cls-10" cx="405" cy="155" r="20"/><circle class="cls-6" cx="405" cy="155" r="13"/><path class="cls-11" d="M411.1,143.52l-12.2,23a13,13,0,0,0,12.2-23Z"/><circle class="cls-10" cx="345" cy="155" r="20"/><circle class="cls-6" cx="345" cy="155" r="13"/><path class="cls-12" d="M351.1,143.52l-12.2,23a13,13,0,1,0,12.2-23Z"/><path class="cls-13" d="M186.07,315a3,3,0,0,0-3,3v24a3,3,0,0,0,3,3h12.06l16-30Z"/></g></svg>