<svg xmlns="http://www.w3.org/2000/svg" xmlns:xlink="http://www.w3.org/1999/xlink" viewBox="0 0 600 600"><defs><style>.cls-1{fill:none;}.cls-2{fill:url(#Degradado_sin_nombre_21);}.cls-3{fill:#004481;}.cls-4{fill:#2dcccd;}.cls-5{fill:#f8cd50;}.cls-6{fill:url(#Degradado_sin_nombre_114);}.cls-7{fill:url(#Degradado_sin_nombre_114-2);}.cls-8{fill:url(#Degradado_sin_nombre_79);}</style><linearGradient id="Degradado_sin_nombre_21" x1="278.41" y1="2863.46" x2="424.73" y2="2588.25" gradientTransform="matrix(1, 0, 0, -1, 0, 3070)" gradientUnits="userSpaceOnUse"><stop offset="0" stop-color="#1a2746" stop-opacity="0.5"/><stop offset="1" stop-color="#1a2746" stop-opacity="0"/></linearGradient><linearGradient id="Degradado_sin_nombre_114" x1="501.16" y1="2838.1" x2="312.47" y2="2838.1" gradientTransform="matrix(1, 0, 0, -1, 0, 3070)" gradientUnits="userSpaceOnUse"><stop offset="0" stop-color="#072146" stop-opacity="0.8"/><stop offset="1" stop-color="#072146" stop-opacity="0"/></linearGradient><linearGradient id="Degradado_sin_nombre_114-2" x1="501.16" y1="2720.38" x2="244.2" y2="2720.38" xlink:href="#Degradado_sin_nombre_114"/><linearGradient id="Degradado_sin_nombre_79" x1="140.63" y1="2819.87" x2="277.94" y2="2746.87" gradientTransform="matrix(1, 0, 0, -1, 0, 3070)" gradientUnits="userSpaceOnUse"><stop offset="0" stop-color="#fff" stop-opacity="0.4"/><stop offset="1" stop-color="#fff" stop-opacity="0.2"/></linearGradient></defs><title>11</title><g id="Cuadrados_Blancos" data-name="Cuadrados Blancos"><rect class="cls-1" width="600" height="600"/></g><g id="Capa_46" data-name="Capa 46"><path class="cls-2" d="M560.25,317.4h-9a3.21,3.21,0,0,0,3.21-3.21v-5a56,56,0,0,0-56-56H204.68a56,56,0,0,0-56,56h0v5a3.21,3.21,0,0,0,3.21,3.21h-9a26.75,26.75,0,0,0-26.76,26.75h0a26.75,26.75,0,0,0,26.76,26.75h9a3.21,3.21,0,0,0-3.21,3.21v5a56,56,0,0,0,56,56H498.45a56,56,0,0,0,56-56h0v-5a3.21,3.21,0,0,0-3.21-3.21h9A26.75,26.75,0,0,0,587,344.15h0a26.75,26.75,0,0,0-26.75-26.75Z"/><path class="cls-3" d="M498,264H98.55a3.21,3.21,0,0,1-3.21-3.21v-5a56,56,0,0,1,56-56H445.14a56,56,0,0,1,56,56h0v5A3.21,3.21,0,0,1,498,264Z"/><path class="cls-3" d="M98.55,317.51H498a3.21,3.21,0,0,1,3.21,3.21v5a56,56,0,0,1-56,56H151.36a56,56,0,0,1-56-56h0v-5A3.21,3.21,0,0,1,98.55,317.51Z"/><path class="cls-4" d="M89.57,264H506.93a26.75,26.75,0,0,1,26.76,26.75h0a26.75,26.75,0,0,1-26.76,26.75H89.57a26.75,26.75,0,0,1-26.75-26.75h0A26.75,26.75,0,0,1,89.57,264Z"/><path class="cls-5" d="M341.35,306.34a15.14,15.14,0,0,1-10.62-4.28l-15.26-14.92a4.49,4.49,0,0,0-6.27,0l-15,14.71a15.29,15.29,0,0,1-21.24,0l-15-14.71a4.52,4.52,0,0,0-6.28,0l-15,14.71a15.3,15.3,0,0,1-21.25,0l-15-14.71a4.49,4.49,0,0,0-6.27,0l-15,14.71a15.29,15.29,0,0,1-21.24,0l-15-14.71a4.5,4.5,0,0,0-6.28,0L129,294.63a5.36,5.36,0,1,1-7.5-7.65l7.63-7.49a15.26,15.26,0,0,1,21.25,0l15,14.71a4.54,4.54,0,0,0,6.28,0l15-14.71a15.28,15.28,0,0,1,21.26,0l15,14.71a4.54,4.54,0,0,0,6.28,0l15-14.71a15.25,15.25,0,0,1,21.24,0l15,14.71a4.51,4.51,0,0,0,6.27,0l15.09-14.69a15.27,15.27,0,0,1,21.24,0l15.25,15a4.52,4.52,0,0,0,6.28,0l15.25-15a15.28,15.28,0,0,1,21.25,0l15,14.71a4.51,4.51,0,0,0,6.27,0l15-14.71a15.28,15.28,0,0,1,21.25,0l15,14.71a4.52,4.52,0,0,0,6.28,0l7.41-7.25a5.35,5.35,0,0,1,7.49,7.65h0l-7.34,7.21a15.3,15.3,0,0,1-21.25,0l-15-14.71a4.5,4.5,0,0,0-6.28,0l-15,14.71a15.31,15.31,0,0,1-21.26,0l-15-14.71a4.5,4.5,0,0,0-6.28,0L352,302A15.1,15.1,0,0,1,341.35,306.34Z"/><path class="cls-6" d="M445.14,199.8H346.62L312.47,264H498a3.21,3.21,0,0,0,3.21-3.21v-5A56,56,0,0,0,445.14,199.8Z"/><path class="cls-7" d="M498,317.51H278.34L244.2,381.72H445.14a56,56,0,0,0,56-56h0v-5a3.21,3.21,0,0,0-3.21-3.21Z"/><path class="cls-8" d="M286.68,294.17a4.49,4.49,0,0,1-6.27,0l-15-14.66a15.27,15.27,0,0,0-21.24,0l-15,14.71a4.52,4.52,0,0,1-6.28,0l-15-14.71a15.26,15.26,0,0,0-21.25,0l-15,14.71a4.52,4.52,0,0,1-6.28,0l-15-14.71a15.27,15.27,0,0,0-21.24,0L121.52,287a5.36,5.36,0,0,0,7.49,7.66l7.63-7.5a4.5,4.5,0,0,1,6.28,0l15,14.71a15.3,15.3,0,0,0,21.25,0l15-14.71a4.51,4.51,0,0,1,6.27,0l15,14.71a15.29,15.29,0,0,0,21.24,0l15-14.71a4.52,4.52,0,0,1,6.28,0l15,14.71a15.25,15.25,0,0,0,14.45,3.8l13.44-25.28Z"/></g></svg>