<svg id="Contenido" xmlns="http://www.w3.org/2000/svg" xmlns:xlink="http://www.w3.org/1999/xlink" viewBox="0 0 600 600"><defs><style>.cls-1{fill:url(#Degradado_sin_nombre_47);}.cls-2{fill:#32649f;}.cls-3{fill:#2dcccd;}.cls-4{fill:#f8cd50;}.cls-5{fill:url(#Degradado_sin_nombre_67);}.cls-6{fill:url(#Degradado_sin_nombre_70);}.cls-7{fill:url(#Degradado_sin_nombre_97);}</style><linearGradient id="Degradado_sin_nombre_47" x1="281.45" y1="213.82" x2="418.18" y2="470.99" gradientUnits="userSpaceOnUse"><stop offset="0" stop-color="#1a2746" stop-opacity="0.5"/><stop offset="1" stop-color="#1a2746" stop-opacity="0"/></linearGradient><linearGradient id="Degradado_sin_nombre_67" x1="489.61" y1="237.51" x2="313.29" y2="237.51" gradientUnits="userSpaceOnUse"><stop offset="0" stop-color="#004481" stop-opacity="0.8"/><stop offset="1" stop-color="#004481" stop-opacity="0.1"/></linearGradient><linearGradient id="Degradado_sin_nombre_70" x1="489.61" y1="347.51" x2="249.49" y2="347.51" gradientUnits="userSpaceOnUse"><stop offset="0" stop-color="#004481" stop-opacity="0.8"/><stop offset="1" stop-color="#004481" stop-opacity="0.1"/></linearGradient><linearGradient id="Degradado_sin_nombre_97" x1="152.71" y1="254.54" x2="281.11" y2="322.81" gradientUnits="userSpaceOnUse"><stop offset="0" stop-color="#fff" stop-opacity="0.4"/><stop offset="1" stop-color="#fff" stop-opacity="0.2"/></linearGradient></defs><title>values-day</title><path class="cls-1" d="M544.82,317.4h-8.39a3,3,0,0,0,3-3v-4.65a52.35,52.35,0,0,0-52.36-52.35H212.56a52.35,52.35,0,0,0-52.36,52.35v4.65a3,3,0,0,0,3,3h-8.38a25,25,0,0,0-25,25h0a25,25,0,0,0,25,25h8.38a3,3,0,0,0-3,3v4.65a52.35,52.35,0,0,0,52.36,52.35H487.07a52.35,52.35,0,0,0,52.36-52.35V370.4a3,3,0,0,0-3-3h8.39a25,25,0,0,0,25-25h0A25,25,0,0,0,544.82,317.4Z"/><path class="cls-2" d="M486.61,267.51H113.39a3,3,0,0,1-3-3v-4.65a52.35,52.35,0,0,1,52.35-52.35H437.26a52.35,52.35,0,0,1,52.35,52.35v4.65A3,3,0,0,1,486.61,267.51Z"/><path class="cls-2" d="M113.39,317.51H486.61a3,3,0,0,1,3,3v4.65a52.35,52.35,0,0,1-52.35,52.35H162.74a52.35,52.35,0,0,1-52.35-52.35v-4.65A3,3,0,0,1,113.39,317.51Z"/><rect class="cls-3" x="80" y="267.51" width="440" height="50" rx="25"/><path class="cls-4" d="M340.27,307.07a14.15,14.15,0,0,1-9.92-4l-14.26-13.94a4.2,4.2,0,0,0-5.86,0l-14.05,13.74a14.28,14.28,0,0,1-19.85,0l-14-13.74a4.22,4.22,0,0,0-5.87,0l-14,13.74a14.28,14.28,0,0,1-19.85,0l-14.05-13.74a4.2,4.2,0,0,0-5.86,0l-14.05,13.74a14.28,14.28,0,0,1-19.85,0l-14-13.74a4.21,4.21,0,0,0-5.87,0l-7.13,7a5,5,0,1,1-7-7.15l7.13-7a14.26,14.26,0,0,1,19.85,0l14,13.74a4.23,4.23,0,0,0,5.87,0l14-13.74a14.27,14.27,0,0,1,19.86,0l14,13.74a4.23,4.23,0,0,0,5.87,0l14-13.74a14.26,14.26,0,0,1,19.85,0l14.05,13.74a4.21,4.21,0,0,0,5.86,0L303.24,282a14.26,14.26,0,0,1,19.85,0l14.25,14a4.23,4.23,0,0,0,5.87,0l14.25-14a14.26,14.26,0,0,1,19.85,0l14.05,13.74a4.21,4.21,0,0,0,5.86,0l14-13.74a14.26,14.26,0,0,1,19.85,0l14,13.74a4.23,4.23,0,0,0,5.87,0l6.92-6.77a5,5,0,1,1,7,7.15L458,302.85a14.28,14.28,0,0,1-19.85,0l-14-13.74a4.21,4.21,0,0,0-5.87,0l-14,13.74a14.29,14.29,0,0,1-19.86,0l-14-13.74a4.21,4.21,0,0,0-5.87,0L350.2,303.05A14.15,14.15,0,0,1,340.27,307.07Z"/><path class="cls-5" d="M437.26,207.51H345.2l-31.91,60H486.61a3,3,0,0,0,3-3v-4.65A52.35,52.35,0,0,0,437.26,207.51Z"/><path class="cls-6" d="M486.61,317.51H281.39l-31.9,60H437.26a52.35,52.35,0,0,0,52.35-52.35v-4.65A3,3,0,0,0,486.61,317.51Z"/><path class="cls-7" d="M289.19,295.7a4.21,4.21,0,0,1-5.86,0L269.28,282a14.26,14.26,0,0,0-19.85,0l-14,13.74a4.23,4.23,0,0,1-5.87,0l-14-13.74a14.27,14.27,0,0,0-19.86,0l-14,13.74a4.23,4.23,0,0,1-5.87,0l-14-13.74a14.26,14.26,0,0,0-19.85,0l-7.13,7a5,5,0,1,0,7,7.15l7.13-7a4.21,4.21,0,0,1,5.87,0l14,13.74a14.28,14.28,0,0,0,19.85,0l14.05-13.74a4.2,4.2,0,0,1,5.86,0l14.05,13.74a14.28,14.28,0,0,0,19.85,0l14-13.74a4.22,4.22,0,0,1,5.87,0l14,13.74a14.27,14.27,0,0,0,13.51,3.55l12.56-23.62Z"/></svg>