<?xml version="1.0" encoding="utf-8"?>
<!-- Generator: Adobe Illustrator 23.0.1, SVG Export Plug-In . SVG Version: 6.00 Build 0)  -->
<svg version="1.1" id="Contenido" xmlns="http://www.w3.org/2000/svg" xmlns:xlink="http://www.w3.org/1999/xlink" x="0px" y="0px"
	 viewBox="0 0 600 600" style="enable-background:new 0 0 600 600;" xml:space="preserve">
<style type="text/css">
	.st0{fill:url(#SVGID_1_);}
	.st1{fill:url(#SVGID_2_);}
	.st2{fill:url(#SVGID_3_);}
	.st3{fill:url(#SVGID_4_);}
	.st4{fill:url(#SVGID_5_);}
	.st5{fill:url(#SVGID_6_);}
	.st6{display:none;}
	.st7{display:inline;fill:url(#SVGID_7_);}
	.st8{display:inline;fill:url(#SVGID_8_);}
	.st9{display:inline;fill:url(#SVGID_9_);}
	.st10{fill:#49A5E6;}
	.st11{fill:#1464A5;}
	.st12{fill:#043263;}
	.st13{fill:#F8CD50;}
	.st14{fill:url(#SVGID_10_);}
	.st15{fill:url(#SVGID_11_);}
	.st16{fill:url(#SVGID_12_);}
	.st17{fill:url(#SVGID_13_);}
	.st18{fill:url(#SVGID_14_);}
	.st19{fill:#2DCCCD;}
	.st20{fill:#028484;}
	.st21{fill:url(#SVGID_15_);}
	.st22{fill:#D4EDFC;}
	.st23{fill:url(#SVGID_16_);}
	.st24{fill:url(#SVGID_17_);}
	.st25{fill:url(#SVGID_18_);}
	.st26{fill:url(#SVGID_19_);}
	.st27{fill:url(#SVGID_20_);}
	.st28{fill:url(#SVGID_21_);}
	.st29{fill:url(#SVGID_22_);}
	.st30{fill:url(#SVGID_23_);}
	.st31{fill:url(#SVGID_24_);}
	.st32{fill:url(#SVGID_25_);}
	.st33{fill:url(#SVGID_26_);}
	.st34{fill:#EAF9FA;}
</style>
<linearGradient id="SVGID_1_" gradientUnits="userSpaceOnUse" x1="181.185" y1="33.3857" x2="437.576" y2="515.587">
	<stop  offset="0" style="stop-color:#192647;stop-opacity:0.5"/>
	<stop  offset="1" style="stop-color:#192647;stop-opacity:0"/>
</linearGradient>
<path class="st0" d="M481.8,201.7c-0.2-0.7-0.4-1.5-0.7-2.2c-0.1-0.4-0.3-0.7-0.4-1c-0.3-0.7-0.6-1.4-1-2c-3-5.5-8.2-9.7-14.5-11.3
	c-1.8-0.5-3.8-0.7-5.7-0.7h0h-60.9h-25.3c-1.3-1.1-2.7-2.2-4-3.3c-9.7-20-30.2-33.7-54-33.7c-23.7,0-44.2,13.8-54,33.8
	c-20.8,15.8-34.5,40.4-35.5,68.2c-0.1,1.7,1.3,3.1,3,3.1l23.5,0c1.6,0,2.9-1.3,3-2.9c0.3-6.9,1.8-13.6,4.3-19.7
	c8.9,22,30.4,37.4,55.6,37.4c25,0,46.4-15.3,55.4-37h0.3c2.4,6,3.9,12.5,4.2,19.3c1.6,34.4-25.9,62.8-59.9,62.8h0.5
	c-49.7,0-90,40.3-90,90v0v107.5c0,12.7,10.3,23,23,23h133c12.7,0,23-10.3,23-23V252.6c0-7.6-1-15.1-2.8-22.1h57.4h0
	c2,0,3.9-0.3,5.7-0.7c6.2-1.6,11.5-5.8,14.5-11.3c0.4-0.7,0.7-1.3,1-2c0.1-0.3,0.3-0.7,0.4-1c0.3-0.7,0.5-1.4,0.7-2.2
	c0.5-1.8,0.7-3.8,0.7-5.7v0C482.5,205.5,482.3,203.6,481.8,201.7z"/>
<g>
	<circle class="st12" cx="286.2" cy="165.8" r="60"/>
	<circle class="st10" cx="286.2" cy="165.8" r="40"/>
	<path class="st19" d="M286.2,121.4L286.2,121.4c-48.4,0-87.8,38.4-89.4,86.4c-0.1,1.7,1.3,3.1,3,3.1l23.5,0c1.6,0,2.9-1.3,3-2.9
		c1.5-32.7,29.3-58.6,62.8-57.1c30.7,1.4,55.7,26.4,57.1,57.1c1.6,34.4-25.9,62.8-59.9,62.8h0.5c-49.7,0-90,40.3-90,90v0v107.5
		c0,12.7,10.3,23,23,23h133c12.7,0,23-10.3,23-23V210.9C375.7,161.5,335.6,121.4,286.2,121.4z"/>
	<path class="st11" d="M430.4,188.8h-144c-12.7,0-23-10.3-23-23v0c0-12.7,10.3-23,23-23h144c12.7,0,23,10.3,23,23v0
		C453.4,178.5,443.1,188.8,430.4,188.8z"/>
	<circle class="st10" cx="286.2" cy="165.8" r="12"/>
	<linearGradient id="SVGID_2_" gradientUnits="userSpaceOnUse" x1="453.356" y1="165.7755" x2="345.0317" y2="165.7755">
		<stop  offset="6.598947e-03" style="stop-color:#043263;stop-opacity:0.4"/>
		<stop  offset="1" style="stop-color:#043263;stop-opacity:0.1"/>
	</linearGradient>
	<path class="st1" d="M430.4,142.8h-60.9l-24.5,46h85.3c12.7,0,23-10.3,23-23v0C453.4,153.1,443.1,142.8,430.4,142.8z"/>
	<path class="st34" d="M286.8,433c-16.1,0-31.2-8.7-39.3-22.7c-0.8-1.4-0.7-3.2,0.4-4.4s2.8-1.7,4.3-1.1c4.6,1.8,9.5,2.7,14.5,2.7
		c22.1,0,40-17.9,40-40c0-5-0.9-9.9-2.7-14.5c-0.6-1.5-0.2-3.2,1.1-4.3c1.2-1.1,3-1.2,4.4-0.4c14,8.1,22.7,23.1,22.7,39.3
		C332.2,412.7,311.9,433,286.8,433z"/>
	<path class="st34" d="M282.4,352.8c-1.3,0-2.6-0.5-3.5-1.5c-0.2-0.2-0.4-0.5-0.6-0.8s-0.3-0.6-0.5-0.9c-0.1-0.3-0.2-0.6-0.3-0.9
		c-0.1-0.3-0.1-0.7-0.1-1c0-0.3,0-0.7,0.1-1c0.1-0.3,0.2-0.6,0.3-0.9c0.1-0.3,0.3-0.6,0.5-0.9c0.2-0.3,0.4-0.5,0.6-0.8
		c0.9-0.9,2.2-1.5,3.5-1.5c1.3,0,2.6,0.5,3.5,1.5c0.9,0.9,1.5,2.2,1.5,3.5c0,1.3-0.5,2.6-1.5,3.5C285,352.3,283.7,352.8,282.4,352.8
		z"/>
	<path class="st34" d="M334.4,438.8c-1.3,0-2.6-0.5-3.5-1.5c-0.2-0.2-0.4-0.5-0.6-0.8s-0.3-0.6-0.5-0.9c-0.1-0.3-0.2-0.6-0.3-0.9
		c-0.1-0.3-0.1-0.7-0.1-1c0-0.3,0-0.7,0.1-1c0.1-0.3,0.2-0.6,0.3-0.9c0.1-0.3,0.3-0.6,0.5-0.9c0.2-0.3,0.4-0.5,0.6-0.8
		c1.2-1.2,2.9-1.7,4.5-1.4c0.3,0.1,0.6,0.2,0.9,0.3c0.3,0.1,0.6,0.3,0.9,0.5c0.3,0.2,0.5,0.4,0.8,0.6c0.9,0.9,1.5,2.2,1.5,3.5
		c0,1.3-0.5,2.6-1.5,3.5c-0.2,0.2-0.5,0.4-0.8,0.6c-0.3,0.2-0.6,0.3-0.9,0.5c-0.3,0.1-0.6,0.2-0.9,0.3
		C335,438.8,334.7,438.8,334.4,438.8z"/>
	<path class="st34" d="M253.4,380.3c-0.2,0-0.3,0-0.5-0.1c-0.2,0-0.3-0.1-0.5-0.1c-0.2-0.1-0.3-0.1-0.4-0.2
		c-0.1-0.1-0.3-0.2-0.4-0.3c-0.5-0.5-0.7-1.1-0.7-1.8c0-0.7,0.3-1.3,0.7-1.8c0.1-0.1,0.2-0.2,0.4-0.3c0.1-0.1,0.3-0.2,0.4-0.2
		c0.1-0.1,0.3-0.1,0.5-0.1c0.8-0.2,1.7,0.1,2.3,0.7c0.5,0.5,0.7,1.1,0.7,1.8c0,0.7-0.3,1.3-0.7,1.8C254.7,380,254,380.3,253.4,380.3
		z"/>
	<path class="st34" d="M252.4,336.3c-0.7,0-1.3-0.3-1.8-0.7c-0.5-0.5-0.7-1.1-0.7-1.8c0-0.2,0-0.3,0-0.5c0-0.2,0.1-0.3,0.1-0.5
		s0.1-0.3,0.2-0.4c0.1-0.1,0.2-0.3,0.3-0.4c0.6-0.6,1.4-0.9,2.3-0.7c0.2,0,0.3,0.1,0.5,0.1c0.1,0.1,0.3,0.1,0.4,0.2
		c0.1,0.1,0.3,0.2,0.4,0.3c0.1,0.1,0.2,0.2,0.3,0.4c0.1,0.1,0.2,0.3,0.2,0.4c0.1,0.1,0.1,0.3,0.1,0.5c0,0.2,0.1,0.3,0.1,0.5
		c0,0.7-0.3,1.3-0.7,1.8c-0.1,0.1-0.2,0.2-0.4,0.3c-0.1,0.1-0.3,0.2-0.4,0.2c-0.2,0.1-0.3,0.1-0.5,0.1
		C252.7,336.3,252.5,336.3,252.4,336.3z"/>
</g>
</svg>
