<svg xmlns="http://www.w3.org/2000/svg" xmlns:xlink="http://www.w3.org/1999/xlink" viewBox="0 0 600 600"><defs><style>.cls-1{fill:none;}.cls-2{fill:url(#Degradado_sin_nombre_74);}.cls-3{fill:#072146;}.cls-4{fill:#49a5e6;}.cls-5{fill:#2dcccd;}.cls-6{fill:#043263;}.cls-7{fill:url(#Degradado_sin_nombre_24);}.cls-8{fill:#eaf9fa;}</style><linearGradient id="Degradado_sin_nombre_74" x1="181.13" y1="-4883.41" x2="437.52" y2="-5365.62" gradientTransform="matrix(1, 0, 0, -1, 0, -4848)" gradientUnits="userSpaceOnUse"><stop offset="0" stop-color="#192647" stop-opacity="0.5"/><stop offset="1" stop-color="#192647" stop-opacity="0"/></linearGradient><linearGradient id="Degradado_sin_nombre_24" x1="453.3" y1="-5015.25" x2="345" y2="-5015.25" gradientTransform="matrix(1, 0, 0, -1, 0, -4848)" gradientUnits="userSpaceOnUse"><stop offset="0.01" stop-color="#072146" stop-opacity="0.8"/><stop offset="1" stop-color="#072146" stop-opacity="0.1"/></linearGradient></defs><title>8</title><g id="Cuadrados_Blancos" data-name="Cuadrados Blancos"><rect class="cls-1" width="600" height="600"/></g><g id="Capa_9" data-name="Capa 9"><path class="cls-2" d="M481.8,203.7a18.66,18.66,0,0,0-.7-2.2,10.37,10.37,0,0,0-.4-1,12.44,12.44,0,0,0-1-2,23,23,0,0,0-14.5-11.3,21.72,21.72,0,0,0-5.7-.7H373.3c-1.3-1.1-2.7-2.2-4-3.3a60.08,60.08,0,0,0-108,.1,89.6,89.6,0,0,0-35.5,68.2,3,3,0,0,0,3,3.1h23.5a3.06,3.06,0,0,0,3-2.9,58.84,58.84,0,0,1,4.3-19.7,60,60,0,0,0,111,.4h.3a58.93,58.93,0,0,1,4.2,19.3,60,60,0,0,1-59.9,62.8h.5a90,90,0,0,0-90,90h0V512a23,23,0,0,0,23,23h133a23,23,0,0,0,23-23V254.6a89.21,89.21,0,0,0-2.8-22.1h57.4a26.16,26.16,0,0,0,5.7-.7,23.28,23.28,0,0,0,14.5-11.3,18.65,18.65,0,0,0,1-2c.1-.3.3-.7.4-1a14.16,14.16,0,0,0,.7-2.2,21.72,21.72,0,0,0,.7-5.7h0A16.49,16.49,0,0,0,481.8,203.7Z"/><circle class="cls-3" cx="286.2" cy="167.25" r="60"/><circle class="cls-4" cx="286.2" cy="167.25" r="40"/><path class="cls-5" d="M286.2,122.85h0a89.43,89.43,0,0,0-89.4,86.4,3,3,0,0,0,3,3.1h23.5a3.06,3.06,0,0,0,3-2.9,60,60,0,1,1,60,62.8h.5a90,90,0,0,0-90,90h0v107.5a23,23,0,0,0,23,23h133a23,23,0,0,0,23-23V212.35A89.69,89.69,0,0,0,286.2,122.85Z"/><path class="cls-6" d="M430.4,190.25h-144a23,23,0,0,1-23-23h0a23,23,0,0,1,23-23h144a23,23,0,0,1,23,23h0A23,23,0,0,1,430.4,190.25Z"/><circle class="cls-4" cx="286.2" cy="167.25" r="12"/><path class="cls-7" d="M430.4,144.25H369.5l-24.5,46h85.3a23,23,0,0,0,23-23h0A22.85,22.85,0,0,0,430.4,144.25Z"/><path class="cls-8" d="M286.8,434.45a45.6,45.6,0,0,1-39.3-22.7,3.76,3.76,0,0,1,.4-4.4,3.91,3.91,0,0,1,4.3-1.1,40,40,0,0,0,51.8-51.8,3.84,3.84,0,0,1,5.5-4.7,45.39,45.39,0,0,1-22.7,84.7Z"/><path class="cls-8" d="M282.4,354.25a4.69,4.69,0,0,1-3.5-1.5,5.55,5.55,0,0,1-.6-.8c-.2-.3-.3-.6-.5-.9l-.3-.9a5,5,0,0,1,0-2l.3-.9a4.05,4.05,0,0,1,.5-.9c.2-.3.4-.5.6-.8a5.09,5.09,0,0,1,3.5-1.5,4.69,4.69,0,0,1,3.5,1.5,5.09,5.09,0,0,1,1.5,3.5,4.69,4.69,0,0,1-1.5,3.5A4.26,4.26,0,0,1,282.4,354.25Z"/><path class="cls-8" d="M334.4,440.25a4.69,4.69,0,0,1-3.5-1.5,5.55,5.55,0,0,1-.6-.8c-.2-.3-.3-.6-.5-.9l-.3-.9a5,5,0,0,1,0-2l.3-.9a4.05,4.05,0,0,1,.5-.9c.2-.3.4-.5.6-.8a5.06,5.06,0,0,1,4.5-1.4l.9.3a4.05,4.05,0,0,1,.9.5c.3.2.5.4.8.6a5.09,5.09,0,0,1,1.5,3.5,4.69,4.69,0,0,1-1.5,3.5,5.55,5.55,0,0,1-.8.6c-.3.2-.6.3-.9.5l-.9.3A1.43,1.43,0,0,1,334.4,440.25Z"/><path class="cls-8" d="M253.4,381.75a.9.9,0,0,1-.5-.1c-.2,0-.3-.1-.5-.1s-.3-.1-.4-.2-.3-.2-.4-.3a2.41,2.41,0,0,1-.7-1.8,2.87,2.87,0,0,1,.7-1.8,1.38,1.38,0,0,1,.4-.3.76.76,0,0,1,.4-.2.75.75,0,0,1,.5-.1,2.49,2.49,0,0,1,2.3.7,2.41,2.41,0,0,1,.7,1.8,2.87,2.87,0,0,1-.7,1.8A3.85,3.85,0,0,1,253.4,381.75Z"/><path class="cls-8" d="M252.4,337.75a2.87,2.87,0,0,1-1.8-.7,2.41,2.41,0,0,1-.7-1.8v-.5c0-.2.1-.3.1-.5a.52.52,0,0,1,.2-.4c.1-.1.2-.3.3-.4a2.42,2.42,0,0,1,2.3-.7c.2,0,.3.1.5.1s.3.1.4.2.3.2.4.3a1.38,1.38,0,0,1,.3.4.76.76,0,0,1,.2.4.75.75,0,0,1,.1.5c0,.2.1.3.1.5a2.87,2.87,0,0,1-.7,1.8,1.38,1.38,0,0,1-.4.3.76.76,0,0,1-.4.2.9.9,0,0,1-.5.1A.4.4,0,0,1,252.4,337.75Z"/></g></svg>