<?xml version="1.0" encoding="utf-8"?>
<!-- Generator: Adobe Illustrator 23.0.1, SVG Export Plug-In . SVG Version: 6.00 Build 0)  -->
<svg version="1.1" id="Contenido" xmlns="http://www.w3.org/2000/svg" xmlns:xlink="http://www.w3.org/1999/xlink" x="0px" y="0px"
	 viewBox="0 0 600 600" style="enable-background:new 0 0 600 600;" xml:space="preserve">
<style type="text/css">
	.st0{fill:url(#SVGID_1_);}
	.st1{fill:#1464A5;}
	.st2{fill:url(#SVGID_2_);}
	.st3{fill:#49A5E6;}
	.st4{fill:#2DCCCD;}
	.st5{fill:url(#SVGID_3_);}
</style>
<title>_</title>
<linearGradient id="SVGID_1_" gradientUnits="userSpaceOnUse" x1="290.9487" y1="466.7332" x2="479.3419" y2="112.4149" gradientTransform="matrix(1 0 0 -1 0 602)">
	<stop  offset="0" style="stop-color:#192647"/>
	<stop  offset="0" style="stop-color:#192647;stop-opacity:0.5"/>
	<stop  offset="1" style="stop-color:#192647;stop-opacity:0"/>
</linearGradient>
<path class="st0" d="M459.2,172.6h20.5c2,0,3.6,1.6,3.6,3.6v8.4h8.4c2,0,3.6,1.6,3.6,3.6v26.5h15.9c3.3,0,6,2.7,6,6v69.8
	c0,2.5-1.5,4.7-3.8,5.6l-156.8,63.2v18.4h14.5c2,0,3.6,1.6,3.6,3.6V543c0,2-1.6,3.6-3.6,3.6h-41c-2,0-3.6-1.6-3.6-3.6V381.4
	c0-2,1.6-3.6,3.6-3.6h14.5v-22.5c0-2.5,1.5-4.7,3.8-5.6l156.9-63.2v-59.7h-9.9v26.5c0,2-1.6,3.6-3.6,3.6l0,0h-8.4v8.4
	c0,1.2-0.7,2.4-1.7,3c-0.6,0.4-1.2,0.6-1.9,0.6H221.6c-2,0-3.6-1.6-3.6-3.6V257h-8.4c-2,0-3.6-1.6-3.6-3.6v-65.1
	c0-2,1.6-3.6,3.6-3.6h8.4v-8.4c0-2,1.6-3.6,3.6-3.6H459.2L459.2,172.6z"/>
<g>
	<path class="st1" d="M290.4,371.2c-3.3,0-6-2.7-6-6v-70.5c0-2.5,1.5-4.7,3.8-5.6L445,225.9v-59.7h-37.4c-3.3,0-6-2.7-6-6s2.7-6,6-6
		H451c3.3,0,6,2.7,6,6v69.8c0,2.5-1.5,4.7-3.8,5.6l-156.9,63.2v66.5C296.4,368.5,293.7,371.2,290.4,371.2z"/>
</g>
<path class="st1" d="M161.3,111.9h258.1c2,0,3.6,1.6,3.6,3.6v89.3c0,2-1.6,3.6-3.6,3.6H161.3c-2,0-3.6-1.6-3.6-3.6v-89.3
	C157.7,113.5,159.3,111.9,161.3,111.9z"/>
<linearGradient id="SVGID_2_" gradientUnits="userSpaceOnUse" x1="423.04" y1="441.87" x2="265.49" y2="441.87" gradientTransform="matrix(1 0 0 -1 0 602)">
	<stop  offset="0" style="stop-color:#043263;stop-opacity:0.5"/>
	<stop  offset="1" style="stop-color:#043263;stop-opacity:0.1"/>
</linearGradient>
<path class="st2" d="M419.4,111.9H315.3l-49.8,96.5h153.9c2,0,3.6-1.6,3.6-3.6v-89.2C423,113.5,421.4,111.9,419.4,111.9z"/>
<path class="st3" d="M149.3,123.9h8.4l0,0v72.4l0,0h-8.4c-2,0-3.6-1.6-3.6-3.6v-65.1C145.6,125.6,147.3,123.9,149.3,123.9z"/>
<path class="st3" d="M431.5,196.3H423l0,0V124l0,0h8.4c2,0,3.6,1.6,3.6,3.6v65.1C435.1,194.7,433.5,196.3,431.5,196.3z"/>
<path class="st4" d="M269.9,317.1h41c2,0,3.6,1.6,3.6,3.6v161.6c0,2-1.6,3.6-3.6,3.6h-41c-2,0-3.6-1.6-3.6-3.6V320.7
	C266.2,318.7,267.9,317.1,269.9,317.1z"/>
<linearGradient id="SVGID_3_" gradientUnits="userSpaceOnUse" x1="314.49" y1="181.58" x2="266.25" y2="181.58" gradientTransform="matrix(1 0 0 -1 0 602)">
	<stop  offset="0" style="stop-color:#028484;stop-opacity:0.3"/>
	<stop  offset="1" style="stop-color:#028484;stop-opacity:0"/>
</linearGradient>
<path class="st5" d="M266.2,447.8v34.5c0,2,1.6,3.6,3.6,3.6h41c2,0,3.6-1.6,3.6-3.6V354.9L266.2,447.8z"/>
</svg>
