<svg xmlns="http://www.w3.org/2000/svg" xmlns:xlink="http://www.w3.org/1999/xlink" viewBox="0 0 600 600"><defs><style>.cls-1{fill:none;}.cls-2{fill:url(#Degradado_sin_nombre_472);}.cls-3{fill:#004481;}.cls-4{fill:url(#Degradado_sin_nombre_114);}.cls-5{fill:#49a5e6;}.cls-6{fill:#2dcccd;}.cls-7{fill:url(#Degradado_sin_nombre_73);}</style><linearGradient id="Degradado_sin_nombre_472" x1="290.94" y1="133.35" x2="479.28" y2="487.56" gradientTransform="translate(0 2)" gradientUnits="userSpaceOnUse"><stop offset="0" stop-color="#192647" stop-opacity="0.5"/><stop offset="1" stop-color="#192647" stop-opacity="0"/></linearGradient><linearGradient id="Degradado_sin_nombre_114" x1="423" y1="158.15" x2="265.5" y2="158.15" gradientTransform="translate(0 2)" gradientUnits="userSpaceOnUse"><stop offset="0" stop-color="#072146" stop-opacity="0.8"/><stop offset="1" stop-color="#072146" stop-opacity="0"/></linearGradient><linearGradient id="Degradado_sin_nombre_73" x1="314.49" y1="418.4" x2="266.29" y2="418.4" gradientTransform="translate(0 2)" gradientUnits="userSpaceOnUse"><stop offset="0" stop-color="#028484" stop-opacity="0.3"/><stop offset="1" stop-color="#028484" stop-opacity="0"/></linearGradient></defs><title>11</title><g id="Cuadrados_Blancos" data-name="Cuadrados Blancos"><rect class="cls-1" width="600" height="600"/></g><g id="Capa_47" data-name="Capa 47"><path class="cls-2" d="M459.2,172.6h20.5a3.59,3.59,0,0,1,3.6,3.6v8.4h8.4a3.59,3.59,0,0,1,3.6,3.6v26.5h15.9a6,6,0,0,1,6,6v69.8a6,6,0,0,1-3.8,5.6L356.6,359.3v18.4h14.5a3.59,3.59,0,0,1,3.6,3.6V543a3.59,3.59,0,0,1-3.6,3.6h-41a3.59,3.59,0,0,1-3.6-3.6V381.4a3.59,3.59,0,0,1,3.6-3.6h14.5V355.3a6,6,0,0,1,3.8-5.6l156.9-63.2V226.8h-9.9v26.5a3.59,3.59,0,0,1-3.6,3.6h-8.4v8.4a3.62,3.62,0,0,1-1.7,3,3.29,3.29,0,0,1-1.9.6H221.6a3.59,3.59,0,0,1-3.6-3.6V257h-8.4a3.59,3.59,0,0,1-3.6-3.6V188.3a3.59,3.59,0,0,1,3.6-3.6H218v-8.4a3.59,3.59,0,0,1,3.6-3.6H459.2Z"/><path class="cls-3" d="M290.4,371.2a6,6,0,0,1-6-6V294.7a6,6,0,0,1,3.8-5.6L445,225.9V166.2H407.6a6,6,0,0,1,0-12H451a6,6,0,0,1,6,6V230a6,6,0,0,1-3.8,5.6L296.3,298.8v66.5A5.85,5.85,0,0,1,290.4,371.2Z"/><path class="cls-3" d="M161.3,111.9H419.4a3.59,3.59,0,0,1,3.6,3.6v89.3a3.59,3.59,0,0,1-3.6,3.6H161.3a3.59,3.59,0,0,1-3.6-3.6V115.5A3.59,3.59,0,0,1,161.3,111.9Z"/><path class="cls-4" d="M419.4,111.9H315.3l-49.8,96.5H419.4a3.59,3.59,0,0,0,3.6-3.6V115.6A3.61,3.61,0,0,0,419.4,111.9Z"/><path class="cls-5" d="M149.3,123.9h8.4v72.4h-8.4a3.59,3.59,0,0,1-3.6-3.6V127.6A3.61,3.61,0,0,1,149.3,123.9Z"/><path class="cls-5" d="M431.5,196.3H423V124h8.4a3.59,3.59,0,0,1,3.6,3.6v65.1A3.44,3.44,0,0,1,431.5,196.3Z"/><path class="cls-6" d="M269.9,317.1h41a3.59,3.59,0,0,1,3.6,3.6V482.3a3.59,3.59,0,0,1-3.6,3.6h-41a3.59,3.59,0,0,1-3.6-3.6V320.7A3.52,3.52,0,0,1,269.9,317.1Z"/><path class="cls-7" d="M266.2,447.8v34.5a3.59,3.59,0,0,0,3.6,3.6h41a3.59,3.59,0,0,0,3.6-3.6V354.9Z"/></g></svg>