<svg id="Capa_1" data-name="Capa 1" xmlns="http://www.w3.org/2000/svg" xmlns:xlink="http://www.w3.org/1999/xlink" viewBox="0 0 600 600"><defs><style>.cls-1{fill:none;}.cls-2{fill:url(#Degradado_sin_nombre);}.cls-3{fill:#1464a5;}.cls-4{fill:#49a5e6;}.cls-5{opacity:0.5;isolation:isolate;fill:url(#Degradado_sin_nombre_2);}.cls-6{fill:#08467f;}.cls-7{fill:#2dcccd;}</style><linearGradient id="Degradado_sin_nombre" x1="247.53" y1="4931.15" x2="459.13" y2="5329.1" gradientTransform="translate(0 -4779.17)" gradientUnits="userSpaceOnUse"><stop offset="0" stop-color="#192647" stop-opacity="0.5"/><stop offset="1" stop-color="#192647" stop-opacity="0"/></linearGradient><linearGradient id="Degradado_sin_nombre_2" x1="216.01" y1="530.79" x2="370.27" y2="376.53" gradientTransform="matrix(1, 0, 0, -1, 0, 746.55)" gradientUnits="userSpaceOnUse"><stop offset="0" stop-color="#fff" stop-opacity="0.5"/><stop offset="1" stop-color="#ecf7f8" stop-opacity="0.1"/></linearGradient></defs><g id="Capa_37" data-name="Capa 37"><rect class="cls-1" x="0.05" width="600" height="600"/><g id="Capa_16" data-name="Capa 16"><path class="cls-2" d="M260.89,147.85h184.9A22.13,22.13,0,0,1,467.89,170V532a22.12,22.12,0,0,1-22.1,22.1H260.89a22.12,22.12,0,0,1-22.1-22.1V170a22.14,22.14,0,0,1,22.06-22.2Z"/><path class="cls-3" d="M207.55,96.85h184.9A22.13,22.13,0,0,1,414.55,119V481a22.12,22.12,0,0,1-22.1,22.1H207.55a22.12,22.12,0,0,1-22.1-22.1V119a22.13,22.13,0,0,1,22.06-22.2h0Z"/><rect class="cls-4" x="185.45" y="147.85" width="229.2" height="304.3"/><polygon class="cls-5" points="185.75 148.05 185.75 451.95 302.55 452.15 414.55 245.15 414.55 147.85 185.75 148.05"/><circle class="cls-6" cx="299.88" cy="300.02" r="61.08"/><g id="layer1"><g id="g11533"><path id="path4250" class="cls-7" d="M286.72,320v6.44c0,1.83-.91,2.81-2.55,2.81s-2.58-1-2.58-2.89V320h-2.28v6.43c0,3.17,1.76,5,4.83,5s4.86-1.85,4.86-5.07V320Zm8.39,0-4.95,11.24h2.33l.95-2.17.07-.17h5.15l1,2.34h2.39l-4.91-11.17,0-.07Zm13.57,0-2.56,7.74L303.64,320h-2.43l3.92,11.24H307l2.56-7.38,2.55,7.38H314L318,320h-2.37l-2.49,7.73L310.54,320ZM331,320v11.23h2.25V320Zm-64.57,0v11.25h2.29v-4.57h5.15v4.57h2.28V320h-2.28v4.54h-5.15V320Zm53.36,0v11.23h8.49v-2.05H322V326.4h4.15v-2H322v-2.3h6V320Zm-23.71,2.84,1.63,3.77h0l.11.25h-3.45l.11-.25h0Z"/><path id="path4252" class="cls-7" d="M294.85,262.52c-.91.08-3.35.64-3.35.64h0a9.64,9.64,0,0,0-6.82,6.43,9.79,9.79,0,0,0-.43,2.51v1.11a13.73,13.73,0,0,0,.46,3c1.84,8.17,10.89,21.58,12.84,24.4.14.14.25.09.25.09a.25.25,0,0,0,.19-.26h0c3-30-3.14-37.9-3.14-37.9Zm9.9,0s-6.17,8-3.17,37.92h0a.24.24,0,0,0,.46.12h0c2-2.89,11-16.24,12.83-24.37,0,0,1-3.94,0-6.6a9.67,9.67,0,0,0-6.88-6.43s-1.59-.4-3.28-.64Zm-28.45,9s-5.26,5-5.52,10.27h0v.8a1.09,1.09,0,0,1,0,.18,10,10,0,0,0,3.44,6.78c5.16,5,17.67,11.39,20.58,12.84a.26.26,0,0,0,.28-.05.2.2,0,0,0,.06-.1v-.13s0,0,0,0h0a154.94,154.94,0,0,0-18.84-30.57Zm47,0A155,155,0,0,0,304.48,302h0a.29.29,0,0,0,.06.33l.11.05h.11l.06,0h0c3-1.48,15.4-7.79,20.54-12.81a10,10,0,0,0,3.42-6.81c.38-5.83-5.49-11.22-5.49-11.22Zm9.77,17.26s-17.7,9.5-26.85,15.67h0a.28.28,0,0,0-.11.31s.08.15.21.15h0c3.28,0,15.68,0,16,0a12.64,12.64,0,0,0,3.59-.83,12.19,12.19,0,0,0,6.7-6.41,12.4,12.4,0,0,0,1.06-5v-.12a11.55,11.55,0,0,0-.6-3.7Zm-66.54,0a12.33,12.33,0,0,0,7.13,15.23,12.75,12.75,0,0,0,4,.88c.32.05,12.39,0,15.62,0a.28.28,0,0,0,.22-.14l0,0v-.12a.39.39,0,0,0-.1-.14h0c-9.15-6.18-26.87-15.65-26.87-15.65Zm26.36,17.63-20.82.73c2.26,4,6.06,7.15,10,6.19,2.74-.68,8.93-5,11-6.46h0c.16-.14.1-.25.1-.25a.28.28,0,0,0-.27-.19Zm13.79,0h0s-.18,0-.23.16a.28.28,0,0,0,.08.28h0c2,1.43,8,5.66,10.95,6.48a4.58,4.58,0,0,0,1.18.18h.45c2-.07,5.35-1.07,8.43-6.38Z"/></g></g></g></g></svg>