<svg id="Contenido" xmlns="http://www.w3.org/2000/svg" xmlns:xlink="http://www.w3.org/1999/xlink" viewBox="0 0 600 600"><defs><style>.cls-1{fill:url(#Degradado_sin_nombre_39);}.cls-2{fill:#f8cd50;}.cls-3{fill:url(#Degradado_sin_nombre_5);}.cls-4{fill:#043263;}.cls-5{fill:#d4edfc;}.cls-6{fill:#eaf9fa;}.cls-7{fill:none;}</style><linearGradient id="Degradado_sin_nombre_39" x1="269.29" y1="199.9" x2="430.82" y2="503.69" gradientUnits="userSpaceOnUse"><stop offset="0" stop-color="#192647" stop-opacity="0.5"/><stop offset="1" stop-color="#192647" stop-opacity="0"/></linearGradient><linearGradient id="Degradado_sin_nombre_5" x1="148.23" y1="219.21" x2="301.25" y2="300.58" gradientUnits="userSpaceOnUse"><stop offset="0" stop-color="#fff" stop-opacity="0.6"/><stop offset="1" stop-color="#fff" stop-opacity="0.2"/></linearGradient></defs><path class="cls-1" d="M522.05,351.69A172,172,0,1,1,350,179.8a172,172,0,0,1,172.1,171.89"/><path class="cls-2" d="M472.05,300c0,95.09-77.11,172-171.86,172S128.05,394.82,128.05,300s77.12-172,171.87-172h0c95,0,172.13,76.91,172.13,172"/><path class="cls-3" d="M299.92,128c-94.75,0-171.87,77.18-171.87,172,0,66.1,37.6,123.62,92.47,152.41L381.07,148.27A171.47,171.47,0,0,0,299.92,128Z"/><path class="cls-4" d="M300.05,292.58c-18.59,0-35.91-2.55-50.42-6.94a10.05,10.05,0,0,0-13,9.57h0c0,25.25,28.4,45.73,63.43,45.73s63.44-20.48,63.44-45.73h0a10.05,10.05,0,0,0-13-9.57C336,290,318.65,292.58,300.05,292.58Z"/><path class="cls-5" d="M236.62,295.21h0a33.41,33.41,0,0,0,.94,7.82c19.93,4.45,40.87,5.52,62.49,5.52s42.57-1.07,62.5-5.52a34,34,0,0,0,.94-7.82,10.05,10.05,0,0,0-13-9.57c-14.51,4.39-31.83,6.94-50.43,6.94s-35.91-2.55-50.42-6.94A10.05,10.05,0,0,0,236.62,295.21Z"/><path class="cls-5" d="M300.05,318c-19.81,0-39.18-.95-58-4.26,9.86,16,32.1,27.21,58,27.21s48.13-11.19,58-27.21C339.24,317,319.86,318,300.05,318Z"/><path class="cls-4" d="M242.89,248.69a43.31,43.31,0,0,1,22.48,6,3,3,0,0,0,4.51-3.25,27.94,27.94,0,0,0-54,0,3,3,0,0,0,4.51,3.25A43.31,43.31,0,0,1,242.89,248.69Z"/><path class="cls-4" d="M354,248.69a43.31,43.31,0,0,1,22.48,6,3,3,0,0,0,4.52-3.25,27.95,27.95,0,0,0-54,0,3,3,0,0,0,4.51,3.25A43.31,43.31,0,0,1,354,248.69Z"/><path class="cls-6" d="M192.86,395.06A119.81,119.81,0,0,1,147.79,374c-13-10-20-16.29-24.32-20.63-2.27-2.27-5.79-3-8.46-3a13.18,13.18,0,0,0-13.17,13.17c0,8.35,8.92,20,26.31,31.65,12.45,8.34,23.92,14.72,29.43,17.67a1,1,0,0,1-.5,1.88c-5.93-.17-18.33-1.53-35.51-8.7C94,394.53,88.65,389.91,82.25,389.91c-7.79,0-13.18,6.39-13.18,14,0,6.93,3.86,11.35,17.25,18s37.13,17.11,52.43,20.24l7.89,1.61a1,1,0,0,1-.16,2A148,148,0,0,1,115.11,443c-22.43-4.35-32.1-7.42-37.67-7.42a13.18,13.18,0,0,0-13.17,13.18c0,6.38,3.55,16.45,33.28,21.84,22.65,4.1,44.09,6.22,53,7a1,1,0,0,1,.18,2c-4,1.13-11.17,2.27-22.17,1.22-19.37-1.85-23.52-1.46-26.12.12s-5.87,4.46-5.87,9.08c0,9.18,9.57,17.65,61.12,17.65,30.21,0,50.77-4.43,64.51-15.34C244,475,242,448.6,242,437.8c0-24.86-17.22-34.59-17.22-56,0-14.79-.17-20-1-21.73s-9.21-6.5-19.19-1.82a20.47,20.47,0,0,0-12,18.79C192.56,386.45,192.86,395.06,192.86,395.06Z"/><path class="cls-6" d="M403.19,395.06A119.73,119.73,0,0,0,448.25,374c13-10,20-16.29,24.33-20.63,2.26-2.27,5.79-3,8.45-3a13.18,13.18,0,0,1,13.18,13.17c0,8.35-8.93,20-26.31,31.65-12.46,8.34-23.93,14.72-29.44,17.67a1,1,0,0,0,.5,1.88c5.93-.17,18.33-1.53,35.51-8.7,27.6-11.53,32.92-16.15,39.33-16.15,7.78,0,13.17,6.39,13.17,14,0,6.93-3.86,11.35-17.25,18S472.59,439,457.29,442.15l-7.89,1.61a1,1,0,0,0,.17,2A147.92,147.92,0,0,0,480.93,443c22.43-4.35,32.11-7.42,37.67-7.42a13.19,13.19,0,0,1,13.18,13.18c0,6.38-3.56,16.45-33.29,21.84-22.65,4.1-44.09,6.22-53,7a1,1,0,0,0-.19,2c4,1.13,11.18,2.27,22.17,1.22,19.37-1.85,23.53-1.46,26.12.12s5.88,4.46,5.88,9.08c0,9.18-9.58,17.65-61.12,17.65-30.22,0-50.77-4.43-64.52-15.34C352.05,475,354,448.6,354,437.8c0-24.86,17.21-34.59,17.21-56,0-14.79.17-20,1-21.73s9.22-6.5,19.19-1.82a20.47,20.47,0,0,1,12,18.79C403.48,386.45,403.19,395.06,403.19,395.06Z"/><rect class="cls-7" width="600" height="600"/></svg>