<svg xmlns="http://www.w3.org/2000/svg" xmlns:xlink="http://www.w3.org/1999/xlink" viewBox="0 0 600 600"><defs><style>.cls-1{fill:none;}.cls-2{fill:url(#Degradado_sin_nombre_24);}.cls-3{fill:#004481;}.cls-4{fill:url(#Degradado_sin_nombre_114);}.cls-5{fill:#f8cd50;}.cls-6{fill:#2dcccd;}.cls-7{fill:url(#Degradado_sin_nombre_65);}.cls-8{fill:#f1873e;}.cls-9{fill:#eb5e62;}.cls-10{fill:#f7b27f;}.cls-11{fill:#8177b6;}.cls-12{fill:#d490bf;}.cls-13{fill:#e5b5d5;}.cls-14{fill:#49a5e6;}.cls-15{fill:url(#Degradado_sin_nombre_81);}</style><linearGradient id="Degradado_sin_nombre_24" x1="263.09" y1="2907.52" x2="444.24" y2="2566.84" gradientTransform="matrix(1, 0, 0, -1, 0, 3070)" gradientUnits="userSpaceOnUse"><stop offset="0" stop-color="#192647" stop-opacity="0.5"/><stop offset="1" stop-color="#192647" stop-opacity="0"/></linearGradient><linearGradient id="Degradado_sin_nombre_114" x1="405.03" y1="2829.76" x2="224.31" y2="2829.76" gradientTransform="matrix(1, 0, 0, -1, 0, 3070)" gradientUnits="userSpaceOnUse"><stop offset="0" stop-color="#072146" stop-opacity="0.8"/><stop offset="1" stop-color="#072146" stop-opacity="0"/></linearGradient><linearGradient id="Degradado_sin_nombre_65" x1="266.65" y1="2640.54" x2="295.52" y2="2625.18" gradientTransform="matrix(1, 0, 0, -1, 0, 3070)" gradientUnits="userSpaceOnUse"><stop offset="0" stop-color="#fff" stop-opacity="0.5"/><stop offset="1" stop-color="#fff" stop-opacity="0.14"/></linearGradient><linearGradient id="Degradado_sin_nombre_81" x1="400.02" y1="2680.01" x2="258.27" y2="2680.01" gradientTransform="matrix(1, 0, 0, -1, 0, 3070)" gradientUnits="userSpaceOnUse"><stop offset="0" stop-color="#028484" stop-opacity="0.8"/><stop offset="1" stop-color="#028484" stop-opacity="0.1"/></linearGradient></defs><title>11</title><g id="Cuadrados_Blancos" data-name="Cuadrados Blancos"><rect class="cls-1" width="600" height="600"/></g><g id="Capa_48" data-name="Capa 48"><path class="cls-2" d="M346,132.34h0a105,105,0,0,0-105,105v172a3,3,0,0,0,3,3h2v17a23,23,0,0,0,23,23h54v77a23,23,0,0,0,46,0v-77h54a23,23,0,0,0,23-23v-17h2a3,3,0,0,0,3-3v-172A105,105,0,0,0,346,132.34Z"/><path class="cls-3" d="M402,370H198a3,3,0,0,1-3-3V195A105,105,0,0,1,300,90h0A105,105,0,0,1,405,195h0V367A3,3,0,0,1,402,370Z"/><path class="cls-4" d="M362.31,110.49,224.31,370H402a3,3,0,0,0,3-3V195A104.78,104.78,0,0,0,362.31,110.49Z"/><path class="cls-5" d="M277,410h46v77a23,23,0,0,1-23,23h0a23,23,0,0,1-23-23V410Z"/><path class="cls-6" d="M200,370H400v17a23,23,0,0,1-23,23H223a23,23,0,0,1-23-23V370Z"/><polygon class="cls-7" points="277 410 277 479.63 314.02 410 277 410"/><path class="cls-8" d="M257.16,173l-12.73-12.73a4,4,0,0,1,0-5.66h0a4,4,0,0,1,5.66,0l12.73,12.73a4,4,0,0,1,0,5.66h0A4,4,0,0,1,257.16,173Z"/><path class="cls-5" d="M331.13,263.73,318.4,251a4,4,0,0,1,0-5.66h0a4,4,0,0,1,5.66,0l12.72,12.73a4,4,0,0,1,0,5.65h0A4,4,0,0,1,331.13,263.73Z"/><path class="cls-9" d="M300.06,191.36l2.13,17.87a4,4,0,0,1-3.49,4.45h0a4,4,0,0,1-4.45-3.5l-2.14-17.87a4,4,0,0,1,3.5-4.45h0A4,4,0,0,1,300.06,191.36Z"/><path class="cls-10" d="M273.93,329.53l15.59-9A4,4,0,0,1,295,322h0a4,4,0,0,1-1.46,5.47l-15.59,9a4,4,0,0,1-5.46-1.47h0A4,4,0,0,1,273.93,329.53Z"/><path class="cls-8" d="M264.84,276.65l13.38-12a4,4,0,0,1,5.65.29h0a4,4,0,0,1-.3,5.65L270.2,282.6a4,4,0,0,1-5.65-.3h0A4,4,0,0,1,264.84,276.65Z"/><path class="cls-11" d="M360.58,219.61l-14.79-10.27a4,4,0,0,1-1-5.57h0a4,4,0,0,1,5.56-1L365.14,213a4,4,0,0,1,1,5.57h0A4,4,0,0,1,360.58,219.61Z"/><path class="cls-12" d="M248.74,221.64l-10.26,14.79a4,4,0,0,1-5.57,1h0a4,4,0,0,1-1-5.56l10.26-14.79a4,4,0,0,1,5.57-1h0A4,4,0,0,1,248.74,221.64Z"/><path class="cls-13" d="M341.59,323.8l12.73,12.73a4,4,0,0,1,0,5.66h0a4,4,0,0,1-5.66,0l-12.73-12.73a4,4,0,0,1,0-5.66h0A4,4,0,0,1,341.59,323.8Z"/><path class="cls-14" d="M222.8,302.36l16,8.15a4,4,0,0,1,1.76,5.38h0a4,4,0,0,1-5.38,1.76l-16-8.15a4,4,0,0,1-1.76-5.38h0A4,4,0,0,1,222.8,302.36Z"/><path class="cls-6" d="M343.07,157.9h18a4,4,0,0,1,4,4h0a4,4,0,0,1-4,4h-18a4,4,0,0,1-4-4h0A4,4,0,0,1,343.07,157.9Z"/><path class="cls-6" d="M356.68,284l13.37-12.05a4,4,0,0,1,5.65.3h0a4,4,0,0,1-.29,5.65l-13.38,12a4,4,0,0,1-5.65-.29h0A4,4,0,0,1,356.68,284Z"/><rect class="cls-5" x="299.14" y="119.28" width="26" height="8" rx="4" transform="translate(4.25 256.83) rotate(-45)"/><path class="cls-15" d="M279.54,370l-21.27,40H377a23,23,0,0,0,23-23V370Z"/></g></svg>