<svg id="Contenido" xmlns="http://www.w3.org/2000/svg" xmlns:xlink="http://www.w3.org/1999/xlink" viewBox="0 0 600 600"><defs><style>.cls-1{fill:url(#Degradado_sin_nombre_27);}.cls-2{fill:#1464a5;}.cls-3{fill:url(#Degradado_sin_nombre_18);}.cls-4{fill:#f8cd50;}.cls-5{fill:#2dcccd;}.cls-6{fill:url(#Degradado_sin_nombre_12);}.cls-7{fill:#f1873e;}.cls-8{fill:#eb5e62;}.cls-9{fill:#f7b27f;}.cls-10{fill:#8177b6;}.cls-11{fill:#d490bf;}.cls-12{fill:#e5b5d5;}.cls-13{fill:#49a5e6;}.cls-14{fill:url(#Degradado_sin_nombre_20);}</style><linearGradient id="Degradado_sin_nombre_27" x1="265.07" y1="164.48" x2="446.22" y2="505.16" gradientUnits="userSpaceOnUse"><stop offset="0" stop-color="#192647" stop-opacity="0.5"/><stop offset="1" stop-color="#192647" stop-opacity="0"/></linearGradient><linearGradient id="Degradado_sin_nombre_18" x1="407.98" y1="241.59" x2="227.3" y2="241.59" gradientUnits="userSpaceOnUse"><stop offset="0" stop-color="#043263" stop-opacity="0.6"/><stop offset="1" stop-color="#043263" stop-opacity="0.1"/></linearGradient><linearGradient id="Degradado_sin_nombre_12" x1="269.63" y1="430.81" x2="298.49" y2="446.16" gradientUnits="userSpaceOnUse"><stop offset="0" stop-color="#fff" stop-opacity="0.5"/><stop offset="1" stop-color="#fff" stop-opacity="0.14"/></linearGradient><linearGradient id="Degradado_sin_nombre_20" x1="402.98" y1="391.34" x2="261.25" y2="391.34" gradientUnits="userSpaceOnUse"><stop offset="0" stop-color="#028484" stop-opacity="0.8"/><stop offset="1" stop-color="#028484" stop-opacity="0.1"/></linearGradient></defs><title>values-day</title><path class="cls-1" d="M348,134.34h0a105,105,0,0,0-105,105v172a3,3,0,0,0,3,3h2v17a23,23,0,0,0,23,23h54v77a23,23,0,0,0,46,0v-77h54a23,23,0,0,0,23-23v-17h2a3,3,0,0,0,3-3v-172A105,105,0,0,0,348,134.34Z"/><path class="cls-2" d="M201,91.34H405a3,3,0,0,1,3,3v172a105,105,0,0,1-105,105h0a105,105,0,0,1-105-105v-172a3,3,0,0,1,3-3Z" transform="translate(605.95 462.69) rotate(180)"/><path class="cls-3" d="M365.29,111.83l-138,259.51H405a3,3,0,0,0,3-3v-172A104.84,104.84,0,0,0,365.29,111.83Z"/><path class="cls-4" d="M280,411.34h46a0,0,0,0,1,0,0v77a23,23,0,0,1-23,23h0a23,23,0,0,1-23-23v-77A0,0,0,0,1,280,411.34Z"/><path class="cls-5" d="M203,371.34H403a0,0,0,0,1,0,0v17a23,23,0,0,1-23,23H226a23,23,0,0,1-23-23v-17A0,0,0,0,1,203,371.34Z"/><polygon class="cls-6" points="279.98 411.34 279.98 480.98 317 411.34 279.98 411.34"/><rect class="cls-7" x="243.6" y="161.2" width="26" height="8" rx="4" transform="translate(321.23 463.45) rotate(-135)"/><rect class="cls-4" x="317.57" y="251.88" width="26" height="8" rx="4" transform="translate(383.38 670.57) rotate(-135)"/><rect class="cls-8" x="287.1" y="198.1" width="26" height="8" rx="4" transform="translate(465.16 -119.86) rotate(83.18)"/><rect class="cls-9" x="273.7" y="325.84" width="26" height="8" rx="4" transform="translate(-126.51 187.54) rotate(-30)"/><rect class="cls-7" x="264.19" y="270.97" width="26" height="8" rx="4" transform="translate(-112.8 256.08) rotate(-42)"/><rect class="cls-10" x="345.46" y="208.52" width="26" height="8" rx="4" transform="translate(531.7 591.53) rotate(-145.23)"/><rect class="cls-11" x="230.29" y="224.08" width="26" height="8" rx="4" transform="translate(569.4 158.32) rotate(124.77)"/><rect class="cls-12" x="335.1" y="330.34" width="26" height="8" rx="4" transform="translate(338.37 -148.22) rotate(45)"/><rect class="cls-13" x="219.02" y="307.34" width="26" height="8" rx="4" transform="translate(166.07 -71.3) rotate(26.92)"/><rect class="cls-5" x="342.05" y="159.25" width="26" height="8" rx="4"/><rect class="cls-5" x="356.02" y="278.31" width="26" height="8" rx="4" transform="translate(-94.12 319.41) rotate(-42)"/><rect class="cls-4" x="302.12" y="120.63" width="26" height="8" rx="4" transform="translate(626.07 -10.07) rotate(135)"/><path class="cls-14" d="M282.52,371.34l-21.27,40H380a23,23,0,0,0,23-23v-17Z"/></svg>