<?xml version="1.0" encoding="utf-8"?>
<!-- Generator: Adobe Illustrator 25.3.1, SVG Export Plug-In . SVG Version: 6.00 Build 0)  -->
<svg version="1.1" id="Capa_1" xmlns="http://www.w3.org/2000/svg" xmlns:xlink="http://www.w3.org/1999/xlink" x="0px" y="0px"
	 viewBox="0 0 600 600" style="enable-background:new 0 0 600 600;" xml:space="preserve">
<style type="text/css">
	.st0{fill:url(#SVGID_1_);}
	.st1{fill:#004481;}
	.st2{fill:url(#SVGID_2_);}
	.st3{fill:#2DCCCD;}
	.st4{fill:#EAF9FA;}
	.st5{fill:#FFFFFF;}
	.st6{fill:#1973B8;}
	.st7{fill:#FFCC28;}
	.st8{fill:none;}
</style>
<g id="Capa_1_1_">
	
		<linearGradient id="SVGID_1_" gradientUnits="userSpaceOnUse" x1="257.3942" y1="2096.9797" x2="429.1581" y2="2420.0059" gradientTransform="matrix(1 0 0 1 0 -1907.25)">
		<stop  offset="0" style="stop-color:#192647"/>
		<stop  offset="0" style="stop-color:#192647;stop-opacity:0.5"/>
		<stop  offset="1" style="stop-color:#192647;stop-opacity:0"/>
	</linearGradient>
	<path class="st0" d="M509.9,235.4H176.6c-11.3,0-20.4,9.1-20.4,20.4c0,0,0,0.1,0,0.1v190.7c-0.1,11.3,9,20.4,20.3,20.5
		c0,0,0.1,0,0.1,0h333.3c11.3,0,20.5-9.2,20.5-20.5v0l0,0V255.9C530.4,244.6,521.2,235.4,509.9,235.4L509.9,235.4z"/>
	<path class="st1" d="M464.7,191.2H131.4c-11.3,0-20.5,9.2-20.5,20.5l0,0v190.7c0,11.3,9.2,20.5,20.5,20.5l0,0h333.3
		c11.3,0,20.5-9.2,20.5-20.5l0,0l0,0V211.7C485.2,200.4,476,191.2,464.7,191.2L464.7,191.2z"/>
	
		<linearGradient id="SVGID_2_" gradientUnits="userSpaceOnUse" x1="485.2" y1="2214.3" x2="245.7" y2="2214.3" gradientTransform="matrix(1 0 0 1 0 -1907.25)">
		<stop  offset="0" style="stop-color:#043263;stop-opacity:0.8"/>
		<stop  offset="1" style="stop-color:#043263;stop-opacity:0"/>
	</linearGradient>
	<path class="st2" d="M464.7,191.2h-93.2L245.7,422.9h219c11.3,0,20.5-9.2,20.5-20.5l0,0l0,0V211.7
		C485.2,200.4,476,191.2,464.7,191.2L464.7,191.2z"/>
	<path class="st3" d="M154.8,238.3h117.1c1.9,0,3.4,1.5,3.4,3.4v126c0,1.9-1.5,3.4-3.4,3.4H154.8c-1.9,0-3.4-1.5-3.4-3.4v-126
		C151.4,239.8,152.9,238.3,154.8,238.3z"/>
	<circle class="st4" cx="213.2" cy="286.8" r="27.4"/>
	<path class="st4" d="M178.9,320.8h68.8c6.5,0.1,11.8,5.3,11.9,11.9l0,0v38.5H167v-38.5C167.1,326.1,172.4,320.8,178.9,320.8z"/>
	<path class="st5" d="M405.6,286H304.7c-3.9-0.6-6.6-4.3-6-8.2c0.5-3.1,2.9-5.6,6-6h100.9c3.9-0.6,7.6,2.1,8.2,6
		c0.6,3.9-2.1,7.6-6,8.2C407.1,286.1,406.3,286.1,405.6,286z"/>
	<path class="st5" d="M445.9,322.3H304.7c-3.9-0.6-6.6-4.3-6-8.2c0.5-3.1,2.9-5.6,6-6h141.1c3.9-0.6,7.6,2.1,8.2,6
		c0.6,3.9-2.1,7.6-6,8.2C447.3,322.4,446.6,322.4,445.9,322.3z"/>
	<path class="st6" d="M300.8,345.9h151.5c1.5,0,2.7,1.2,2.7,2.7V367c0,1.5-1.2,2.7-2.7,2.7H300.8c-1.5,0-2.7-1.2-2.7-2.7v-18.4
		C298,347.1,299.3,345.9,300.8,345.9z"/>
	<path id="Path-Copy-9" class="st7" d="M69,196.9c-3.7-0.1-6.7-3-6.8-6.7l0,0v-63c-0.1-3.7,2.9-6.7,6.6-6.8c0.1,0,0.1,0,0.2,0h63.1
		c3.7,0.5,6.4,3.8,5.9,7.6c-0.4,3.1-2.8,5.5-5.9,5.9H75.8v56.3c-0.1,3.7-3.1,6.7-6.8,6.8V196.9z"/>
	<path id="Path-Copy-9-2" class="st7" d="M138.8,472.9c0.1,3.6-2.8,6.7-6.4,6.8c-0.1,0-0.2,0-0.3,0H69c-3.7,0-6.7-3-6.7-6.7l0,0l0,0
		v-63c-0.1-3.7,2.9-6.7,6.6-6.8c0,0,0.1,0,0.1,0c3.8,0,6.8,3,6.8,6.8l0,0v56.3h56.3C135.8,466.3,138.8,469.3,138.8,472.9
		L138.8,472.9L138.8,472.9z"/>
	<path id="Path-Copy-9-3" class="st7" d="M461.2,127.1c-0.1-3.6,2.8-6.7,6.4-6.8c0.1,0,0.2,0,0.3,0H531c3.7,0,6.7,3,6.7,6.7v0l0,0
		v63c0.1,3.7-2.9,6.7-6.6,6.8c0,0-0.1,0-0.1,0c-3.8,0-6.8-3-6.8-6.8l0,0v-56.2h-56.3C464.2,133.8,461.2,130.8,461.2,127.1
		L461.2,127.1L461.2,127.1z"/>
	<path id="Path-Copy-9-4" class="st7" d="M531,403.1c3.7,0.1,6.7,3,6.8,6.7l0,0v63c0.1,3.7-2.9,6.7-6.6,6.8c-0.1,0-0.1,0-0.2,0
		h-63.1c-3.7-0.5-6.4-3.8-5.9-7.6c0.4-3.1,2.8-5.5,5.9-5.9h56.3v-56.2C524.3,406.2,527.3,403.2,531,403.1z"/>
</g>
<g id="Capa_2_1_">
	<rect class="st8" width="600" height="600"/>
</g>
</svg>
