<svg xmlns="http://www.w3.org/2000/svg" xmlns:xlink="http://www.w3.org/1999/xlink" viewBox="0 0 600 600"><defs><style>.cls-1{fill:url(#Degradado_sin_nombre_6);}.cls-2{fill:#1464a5;}.cls-3{fill:url(#Degradado_sin_nombre_2);}.cls-4{fill:#f8cd50;}.cls-5{fill:#1973b8;}.cls-6{fill:#fff;}.cls-7{fill:#ffcc28;}.cls-8{fill:none;}</style><linearGradient id="Degradado_sin_nombre_6" x1="257.4" y1="11236.56" x2="429.15" y2="11559.57" gradientTransform="translate(0 -11046.8)" gradientUnits="userSpaceOnUse"><stop offset="0" stop-color="#192647"/><stop offset="0" stop-color="#192647" stop-opacity="0.5"/><stop offset="1" stop-color="#192647" stop-opacity="0"/></linearGradient><linearGradient id="Degradado_sin_nombre_2" x1="485.2" y1="11352.81" x2="245.68" y2="11352.81" gradientTransform="translate(0 -11046.8)" gradientUnits="userSpaceOnUse"><stop offset="0" stop-color="#043263" stop-opacity="0.8"/><stop offset="1" stop-color="#043263" stop-opacity="0"/></linearGradient></defs><g id="Capa_1" data-name="Capa 1"><path class="cls-1" d="M509.9,235.4H176.6a20.4,20.4,0,0,0-20.4,20.5V446.6a20.4,20.4,0,0,0,20.4,20.5H509.9a20.5,20.5,0,0,0,20.5-20.5h0V255.9A20.5,20.5,0,0,0,509.9,235.4Z"/><path class="cls-2" d="M464.7,190.2H131.4a20.5,20.5,0,0,0-20.5,20.5V401.4a20.5,20.5,0,0,0,20.5,20.5H464.7a20.5,20.5,0,0,0,20.5-20.5h0V210.7A20.5,20.5,0,0,0,464.7,190.2Z"/><path class="cls-3" d="M464.7,190.2H371.5L245.7,421.9h219a20.5,20.5,0,0,0,20.5-20.5h0V210.7A20.5,20.5,0,0,0,464.7,190.2Z"/><rect class="cls-4" x="151" y="234.7" width="57" height="61.06" rx="1.5"/><rect class="cls-5" x="151" y="313.4" width="296.4" height="61.41" rx="4.6"/><path class="cls-6" d="M297.3,245.4H234.2a4.5,4.5,0,1,1,0-8.9h63.1a4.5,4.5,0,0,1,0,8.9Z"/><path class="cls-6" d="M350.8,270.9H234.2a4.5,4.5,0,1,1,0-8.9H350.8a4.5,4.5,0,0,1,0,8.9Z"/><path class="cls-6" d="M440.8,296.3H234.2a4.5,4.5,0,1,1,0-8.9H440.8a4.5,4.5,0,0,1,0,8.9Z"/><path id="Path-Copy-9" class="cls-7" d="M69,196.9a6.9,6.9,0,0,1-6.8-6.7h0v-63a6.7,6.7,0,0,1,6.8-6.8h63.1a6.8,6.8,0,0,1,0,13.5H75.8v56.3a6.9,6.9,0,0,1-6.8,6.8Z"/><path id="Path-Copy-9-2" data-name="Path-Copy-9" class="cls-7" d="M138.8,472.9a6.6,6.6,0,0,1-6.7,6.8H69a6.7,6.7,0,0,1-6.7-6.7h0v-63a6.7,6.7,0,0,1,6.7-6.8,6.8,6.8,0,0,1,6.8,6.8h0v56.3h56.3a6.7,6.7,0,0,1,6.7,6.7Z"/><path id="Path-Copy-9-3" data-name="Path-Copy-9" class="cls-7" d="M461.2,127.1a6.6,6.6,0,0,1,6.7-6.8H531a6.7,6.7,0,0,1,6.7,6.7h0v63a6.7,6.7,0,0,1-6.7,6.8,6.8,6.8,0,0,1-6.8-6.8h0V133.8H467.9a6.7,6.7,0,0,1-6.7-6.7Z"/><path id="Path-Copy-9-4" data-name="Path-Copy-9" class="cls-7" d="M531,403.1a6.9,6.9,0,0,1,6.8,6.7h0v63a6.7,6.7,0,0,1-6.8,6.8H467.9a6.8,6.8,0,0,1,0-13.5h56.3V409.9a6.9,6.9,0,0,1,6.8-6.8Z"/></g><g id="Capa_2" data-name="Capa 2"><rect class="cls-8" width="600" height="600"/></g></svg>