<svg id="Contenido" xmlns="http://www.w3.org/2000/svg" xmlns:xlink="http://www.w3.org/1999/xlink" viewBox="0 0 600 600"><defs><style>.cls-1{fill:url(#Degradado_sin_nombre_23);}.cls-2{fill:url(#Degradado_sin_nombre_23-2);}.cls-3{fill:url(#Degradado_sin_nombre_23-3);}.cls-4{fill:url(#Degradado_sin_nombre_23-4);}.cls-5{fill:url(#Degradado_sin_nombre_23-5);}.cls-6{fill:url(#Degradado_sin_nombre_23-6);}.cls-7{fill:url(#Degradado_sin_nombre_23-7);}.cls-8{fill:url(#Degradado_sin_nombre_23-8);}.cls-9{fill:url(#Degradado_sin_nombre_23-9);}.cls-10{fill:url(#Degradado_sin_nombre_23-10);}.cls-11{fill:#2dcccd;}.cls-12{fill:url(#Degradado_sin_nombre_17);}.cls-13{fill:#004481;}.cls-14{fill:#f8cd50;}.cls-15{fill:url(#Degradado_sin_nombre_24);}</style><linearGradient id="Degradado_sin_nombre_23" x1="250.69" y1="168.51" x2="441.51" y2="527.39" gradientUnits="userSpaceOnUse"><stop offset="0" stop-color="#192647"/><stop offset="0" stop-color="#192647" stop-opacity="0.5"/><stop offset="1" stop-color="#192647" stop-opacity="0"/></linearGradient><linearGradient id="Degradado_sin_nombre_23-2" x1="159.81" y1="250.67" x2="327.73" y2="566.49" xlink:href="#Degradado_sin_nombre_23"/><linearGradient id="Degradado_sin_nombre_23-3" x1="391.75" y1="105.38" x2="559.67" y2="421.19" xlink:href="#Degradado_sin_nombre_23"/><linearGradient id="Degradado_sin_nombre_23-4" x1="325" y1="116" x2="519.61" y2="482.01" xlink:href="#Degradado_sin_nombre_23"/><linearGradient id="Degradado_sin_nombre_23-5" x1="148.41" y1="267.58" x2="317.11" y2="584.85" xlink:href="#Degradado_sin_nombre_23"/><linearGradient id="Degradado_sin_nombre_23-6" x1="402.42" y1="87.11" x2="571.12" y2="404.38" xlink:href="#Degradado_sin_nombre_23"/><linearGradient id="Degradado_sin_nombre_23-7" x1="262.5" y1="164.54" x2="448.37" y2="514.12" xlink:href="#Degradado_sin_nombre_23"/><linearGradient id="Degradado_sin_nombre_23-8" x1="367.99" y1="72.19" x2="574.52" y2="460.61" xlink:href="#Degradado_sin_nombre_23"/><linearGradient id="Degradado_sin_nombre_23-9" x1="200.89" y1="211.69" x2="378.57" y2="545.84" xlink:href="#Degradado_sin_nombre_23"/><linearGradient id="Degradado_sin_nombre_23-10" x1="341.57" y1="127.25" x2="519.24" y2="461.41" xlink:href="#Degradado_sin_nombre_23"/><linearGradient id="Degradado_sin_nombre_17" x1="337.2" y1="434.8" x2="271.85" y2="434.8" gradientUnits="userSpaceOnUse"><stop offset="0" stop-color="#028484" stop-opacity="0.3"/><stop offset="1" stop-color="#028484" stop-opacity="0.1"/></linearGradient><linearGradient id="Degradado_sin_nombre_24" x1="212.81" y1="216.96" x2="276.89" y2="251.04" gradientUnits="userSpaceOnUse"><stop offset="0" stop-color="#fff" stop-opacity="0.6"/><stop offset="1" stop-color="#fff" stop-opacity="0.15"/></linearGradient></defs><title>_</title><path class="cls-1" d="M366.87,228.36c-.67-.09-1.34-.18-2-.25l-2-.23c-1.16-.11-2.33-.19-3.5-.26l-1.22-.06c-1.39-.06-2.78-.11-4.19-.11a93.36,93.36,0,0,0-66.05,27.25q-1.59,1.57-3.09,3.23a92.45,92.45,0,0,0-24.27,62.54h0q0,2.28.12,4.53c0,.19,0,.37,0,.56.08,1.43.19,2.85.34,4.26,0,.24,0,.47.07.71.15,1.4.33,2.8.55,4.18l.09.6c.23,1.43.49,2.86.79,4.27,0,.07,0,.14.05.22a89.21,89.21,0,0,0,2.33,8.78c0,.09.05.18.08.26.46,1.41.94,2.81,1.46,4.19,0,.08.07.16.1.25.53,1.41,1.1,2.8,1.7,4.17h0a93.28,93.28,0,0,0,27.59,35.74c15.86,12.56,15.86,36.31,15.86,48.76v6.51h0V463.4h-.9a3.55,3.55,0,0,0-3.55,3.55v3.4a3.55,3.55,0,0,0,3.55,3.55h.9v11.83h-.9a3.55,3.55,0,0,0-3.55,3.55v3.4a3.55,3.55,0,0,0,3.55,3.55h.9v11.83h-.9a3.55,3.55,0,0,0-3.55,3.55V515a3.55,3.55,0,0,0,3.55,3.55H312a24.49,24.49,0,0,0,18.87,20.3h0l.09,0,.75.14c.61.12,1.22.21,1.84.28l.42,0c.73.07,1.46.11,2.21.11h35.58a24.45,24.45,0,0,0,24.18-20.9h1.18a3.55,3.55,0,0,0,3.55-3.55v-3.4a3.55,3.55,0,0,0-3.55-3.55h-.89V496.23h.89a3.55,3.55,0,0,0,3.55-3.55v-3.4a3.55,3.55,0,0,0-3.55-3.55h-.89V473.9h.89a3.55,3.55,0,0,0,3.55-3.55V467a3.55,3.55,0,0,0-3.55-3.55h-.89V448.47h0V442c0-12.45,2.22-36.79,15.86-48.76,20.61-18.08,35.29-43.25,35.29-72.73C447.35,273.47,412.33,234.63,366.87,228.36Z"/><path class="cls-2" d="M214.31,325.35a5.92,5.92,0,0,0-5.92-5.92H190.64a5.92,5.92,0,1,0,0,11.83h17.75A5.92,5.92,0,0,0,214.31,325.35Z"/><path class="cls-3" d="M517.58,319.43H499.83a5.92,5.92,0,1,0,0,11.83h17.75a5.92,5.92,0,1,0,0-11.83Z"/><path class="cls-4" d="M354.11,185.54a5.92,5.92,0,0,0,5.92-5.92V161.88a5.92,5.92,0,1,0-11.84,0v17.74A5.92,5.92,0,0,0,354.11,185.54Z"/><path class="cls-5" d="M225,393.08,209.58,402a5.91,5.91,0,1,0,5.92,10.24l15.37-8.87A5.92,5.92,0,1,0,225,393.08Z"/><path class="cls-6" d="M480.32,258.4a5.86,5.86,0,0,0,2.95-.79l15.37-8.88a5.91,5.91,0,0,0-5.92-10.24l-15.37,8.87a5.92,5.92,0,0,0,3,11Z"/><path class="cls-7" d="M276.13,202.11a5.91,5.91,0,1,0,10.24-5.92l-8.87-15.37a5.92,5.92,0,1,0-10.25,5.91Z"/><path class="cls-8" d="M424,204.27a5.9,5.9,0,0,0,8.08-2.16L441,186.73a5.92,5.92,0,0,0-10.25-5.91l-8.87,15.37A5.91,5.91,0,0,0,424,204.27Z"/><path class="cls-9" d="M230.87,247.36l-15.37-8.87a5.91,5.91,0,1,0-5.92,10.24L225,257.61a5.92,5.92,0,1,0,5.92-10.25Z"/><path class="cls-10" d="M498.64,402l-15.37-8.88a5.92,5.92,0,0,0-5.92,10.25l15.37,8.87A5.91,5.91,0,0,0,498.64,402Z"/><path class="cls-11" d="M312.71,480.3H277.18a24.49,24.49,0,0,1-24.49-24.49v-66.5H337.2v66.5A24.49,24.49,0,0,1,312.71,480.3Z"/><path class="cls-12" d="M271.85,479.7a24.39,24.39,0,0,0,5.3.6h35.59a24.47,24.47,0,0,0,24.46-24.47V389.31H316.46Z"/><rect class="cls-13" x="248.24" y="404.23" width="93.41" height="10.5" rx="3.55"/><rect class="cls-13" x="248.24" y="426.57" width="93.41" height="10.5" rx="3.55"/><rect class="cls-13" x="248.24" y="448.9" width="93.41" height="10.5" rx="3.55"/><path class="cls-14" d="M295,168.29c-51.59,0-93.41,41.64-93.41,93A92.53,92.53,0,0,0,236.82,334c15.87,12.55,15.87,36.3,15.87,48.75v6.52H337.2v-6.52c0-12.45,2.23-36.79,15.87-48.75,20.61-18.09,35.29-43.26,35.29-72.74C388.36,209.93,346.54,168.29,295,168.29Z"/><path class="cls-15" d="M295,168.29c-51.59,0-93.41,41.64-93.41,93a92.37,92.37,0,0,0,28.63,66.92l89-156.72A92.72,92.72,0,0,0,295,168.29Z"/><path class="cls-14" d="M149.4,272.1H131.65a5.92,5.92,0,1,1,0-11.84H149.4a5.92,5.92,0,0,1,0,11.84Z"/><path class="cls-14" d="M458.59,272.1H440.84a5.92,5.92,0,1,1,0-11.84h17.75a5.92,5.92,0,0,1,0,11.84Z"/><path class="cls-14" d="M295.12,126.38a5.92,5.92,0,0,1-5.92-5.92V102.71a5.92,5.92,0,1,1,11.83,0v17.75A5.91,5.91,0,0,1,295.12,126.38Z"/><path class="cls-14" d="M153.55,353.83a5.92,5.92,0,0,1-3-11L166,333.92a5.92,5.92,0,0,1,5.92,10.25L156.51,353A5.87,5.87,0,0,1,153.55,353.83Z"/><path class="cls-14" d="M421.32,199.24a5.92,5.92,0,0,1-3-11l15.37-8.88a5.92,5.92,0,0,1,5.92,10.25l-15.38,8.87A5.87,5.87,0,0,1,421.32,199.24Z"/><path class="cls-14" d="M222.26,145.9a5.92,5.92,0,0,1-5.13-3l-8.87-15.37a5.92,5.92,0,0,1,10.25-5.92L227.38,137a5.92,5.92,0,0,1-2.16,8.09A6,6,0,0,1,222.26,145.9Z"/><path class="cls-14" d="M368,145.9a5.92,5.92,0,0,1-5.12-8.88l8.88-15.37A5.92,5.92,0,0,1,382,127.57l-8.88,15.37A5.9,5.9,0,0,1,368,145.9Z"/><path class="cls-14" d="M168.91,199.24a5.87,5.87,0,0,1-2.95-.8l-15.37-8.87a5.92,5.92,0,1,1,5.92-10.25l15.37,8.88a5.92,5.92,0,0,1-3,11Z"/><path class="cls-14" d="M436.68,353.83a5.86,5.86,0,0,1-2.95-.79l-15.37-8.87a5.92,5.92,0,1,1,5.91-10.25l15.38,8.87a5.92,5.92,0,0,1-3,11Z"/></svg>