<?xml version="1.0" encoding="utf-8"?>
<!-- Generator: Adobe Illustrator 23.0.1, SVG Export Plug-In . SVG Version: 6.00 Build 0)  -->
<svg version="1.1" id="Capa_1" xmlns="http://www.w3.org/2000/svg" xmlns:xlink="http://www.w3.org/1999/xlink" x="0px" y="0px"
	 viewBox="0 0 600 600" style="enable-background:new 0 0 600 600;" xml:space="preserve">
<style type="text/css">
	.st0{fill:url(#SVGID_1_);}
	.st1{fill:#1464A5;}
	.st2{fill:#49A5E6;}
	.st3{opacity:0.5;fill-rule:evenodd;clip-rule:evenodd;fill:url(#SVGID_2_);enable-background:new    ;}
	.st4{fill:#EAF9FA;}
	.st5{fill:#004481;}
	.st6{fill:#2DCCCD;}
	.st7{fill:#FFFFFF;}
</style>
<title>Mesa de trabajo 1 copia 18</title>
<linearGradient id="SVGID_1_" gradientUnits="userSpaceOnUse" x1="243.2238" y1="955.222" x2="462.9915" y2="541.8862" gradientTransform="matrix(1 0 0 -1 0 1102)">
	<stop  offset="0" style="stop-color:#192647"/>
	<stop  offset="0" style="stop-color:#192647;stop-opacity:0.5"/>
	<stop  offset="1" style="stop-color:#192647;stop-opacity:0"/>
</linearGradient>
<path class="st0" d="M449,142.4H257.2c-12.7,0-23,10.3-23,23v376.1c0,12.7,10.3,23,23,23H449c12.7,0,23-10.3,23-23V165.4
	C472,152.7,461.8,142.4,449,142.4z"/>
<path class="st1" d="M207.2,89.4H399c12.7,0,23,10.3,23,23v376.1c0,12.7-10.3,23-23,23H207.2c-12.7,0-23-10.3-23-23V112.4
	C184.2,99.7,194.5,89.4,207.2,89.4z"/>
<rect x="184.2" y="142.2" class="st2" width="237.8" height="316.6"/>
<linearGradient id="SVGID_2_" gradientUnits="userSpaceOnUse" x1="196.92" y1="890.78" x2="324.48" y2="763.22" gradientTransform="matrix(1 0 0 -1 0 1102)">
	<stop  offset="0" style="stop-color:#FFFFFF;stop-opacity:0.5"/>
	<stop  offset="1" style="stop-color:#EDF8F9;stop-opacity:0.2"/>
	<stop  offset="1" style="stop-color:#FFFFFF;stop-opacity:0"/>
</linearGradient>
<polygon class="st3" points="184.6,142.6 184.6,458.8 216.4,458.8 388.2,142.6 "/>
<circle class="st4" cx="303" cy="237.2" r="27.2"/>
<path class="st4" d="M279.5,271h47c12.4,0,22.5,10.1,22.5,22.5V321l0,0h-92l0,0v-27.5C257,281.1,267.1,271,279.5,271L279.5,271z"/>
<path class="st5" d="M249.5,360.8h108c17.9,0,32.5,14.5,32.5,32.5l0,0c0,17.9-14.6,32.5-32.5,32.5h-108c-17.9,0-32.5-14.5-32.5-32.5
	l0,0C217,375.3,231.6,360.8,249.5,360.8z"/>
<circle class="st6" cx="249.5" cy="392.5" r="25.5"/>
<path class="st7" d="M260.8,400.9l-5.1-4.3c-0.3-0.2-0.6-0.2-0.9,0l-0.7,0.7l-0.1,0.1l-1.5,1.5c-1.9-0.7-3.7-1.9-5.2-3.3
	c-1.5-1.5-2.6-3.2-3.3-5.2l1.5-1.5l0.1-0.1l0.7-0.7c0.2-0.3,0.2-0.6,0-0.9l-4.2-5.1c-0.2-0.2-0.5-0.2-0.8,0l0,0l-1.9,1.9l-0.1,0.1
	l-0.2,0.2l0,0c-0.6,10.2,7.1,19,17.3,19.6c0.8,0,1.5,0,2.3,0l0,0l0,0l0.2-0.2l0.1-0.1l1.9-1.9C261.1,401.5,261.1,401.2,260.8,400.9
	C260.9,400.9,260.9,400.9,260.8,400.9"/>
</svg>
