<svg xmlns="http://www.w3.org/2000/svg" xmlns:xlink="http://www.w3.org/1999/xlink" viewBox="0 0 600 600"><defs><style>.cls-1{fill:none;}.cls-2{fill:url(#Degradado_sin_nombre_4);}.cls-3{fill:#1464a5;}.cls-4{fill:url(#Degradado_sin_nombre_111);}.cls-5{fill:#f8cd50;}.cls-6{fill:#1973b8;}.cls-7{fill:#fff;}</style><linearGradient id="Degradado_sin_nombre_4" x1="253.63" y1="-9514.76" x2="446.37" y2="-9877.24" gradientTransform="matrix(1, 0, 0, -1, 0, -9346)" gradientUnits="userSpaceOnUse"><stop offset="0" stop-color="#192647"/><stop offset="0" stop-color="#192647" stop-opacity="0.5"/><stop offset="1" stop-color="#192647" stop-opacity="0"/></linearGradient><linearGradient id="Degradado_sin_nombre_111" x1="510" y1="-9646" x2="241.2" y2="-9646" gradientTransform="matrix(1, 0, 0, -1, 0, -9346)" gradientUnits="userSpaceOnUse"><stop offset="0" stop-color="#043263" stop-opacity="0.8"/><stop offset="1" stop-color="#043263" stop-opacity="0"/></linearGradient></defs><title>11</title><g id="Cuadrados_Blancos" data-name="Cuadrados Blancos"><rect class="cls-1" width="600" height="600"/></g><g id="Capa_108" data-name="Capa 108"><path class="cls-2" d="M537,220H163a23,23,0,0,0-23,23V457a23,23,0,0,0,23,23H537a23,23,0,0,0,23-23h0V243A23,23,0,0,0,537,220Z"/><path class="cls-3" d="M487,170H113a23,23,0,0,0-23,23V407a23,23,0,0,0,23,23H487a23,23,0,0,0,23-23h0V193A23,23,0,0,0,487,170Z"/><path class="cls-4" d="M487,170H382.39L241.2,430H487a23,23,0,0,0,23-23h0V193A23,23,0,0,0,487,170Z"/><rect class="cls-5" x="135" y="220" width="63.92" height="68.52" rx="1.72"/><rect class="cls-6" x="135" y="308.29" width="332.64" height="68.92" rx="5.16"/><path class="cls-7" d="M299.12,232H228.31a5,5,0,0,1,0-10h70.81a5,5,0,0,1,0,10Z"/><path class="cls-7" d="M359.12,260.56H228.31a5,5,0,0,1,0-10H359.12a5,5,0,0,1,0,10Z"/><path class="cls-7" d="M460.12,289.1H228.31a5,5,0,0,1,0-10H460.12a5,5,0,0,1,0,10Z"/></g></svg>