<svg xmlns="http://www.w3.org/2000/svg" xmlns:xlink="http://www.w3.org/1999/xlink" viewBox="0 0 600 600"><defs><style>.cls-1{fill:none;}.cls-2{fill:url(#Degradado_sin_nombre_483);}.cls-3{fill:#004481;}.cls-4{fill:url(#Degradado_sin_nombre_114);}.cls-5{fill:#2dcccd;}.cls-6{fill:#eaf9fa;}.cls-7{fill:#fff;}.cls-8{fill:#f8cd50;}.cls-9{fill:#1973b8;}</style><linearGradient id="Degradado_sin_nombre_483" x1="253.63" y1="1661.24" x2="446.37" y2="1298.76" gradientTransform="matrix(1, 0, 0, -1, 0, 1830)" gradientUnits="userSpaceOnUse"><stop offset="0" stop-color="#192647" stop-opacity="0.5"/><stop offset="1" stop-color="#192647" stop-opacity="0"/></linearGradient><linearGradient id="Degradado_sin_nombre_114" x1="510" y1="1530" x2="241.2" y2="1530" gradientTransform="matrix(1, 0, 0, -1, 0, 1830)" gradientUnits="userSpaceOnUse"><stop offset="0" stop-color="#072146" stop-opacity="0.8"/><stop offset="1" stop-color="#072146" stop-opacity="0"/></linearGradient></defs><title>11</title><g id="Cuadrados_Blancos" data-name="Cuadrados Blancos"><rect class="cls-1" width="600" height="600"/></g><g id="Capa_50" data-name="Capa 50"><path class="cls-2" d="M537,220H163a23,23,0,0,0-23,23V457a23,23,0,0,0,23,23H537a23,23,0,0,0,23-23h0V243A23,23,0,0,0,537,220Z"/><path class="cls-3" d="M487,170H113a23,23,0,0,0-23,23V407a23,23,0,0,0,23,23H487a23,23,0,0,0,23-23h0V193A23,23,0,0,0,487,170Z"/><path class="cls-4" d="M487,170H382.39L241.2,430H487a23,23,0,0,0,23-23h0V193A23,23,0,0,0,487,170Z"/><rect class="cls-5" x="135.37" y="226.21" width="111.25" height="119.26" rx="3"/><circle class="cls-6" cx="190.99" cy="269.76" r="24.57"/><path class="cls-6" d="M160.11,300.31h61.76a10.7,10.7,0,0,1,10.7,10.7h0v34.47H149.42V311a10.7,10.7,0,0,1,10.7-10.7h0Z"/><path class="cls-7" d="M350.12,236.21H279.31a5,5,0,0,1,0-10h70.81a5,5,0,0,1,0,10Z"/><path class="cls-5" d="M243.18,373.79H139.37a5,5,0,0,1,0-10H243.18a5,5,0,0,1,0,10Z"/><path class="cls-7" d="M410.12,266.74H279.31a5,5,0,1,1,0-10H410.12a5,5,0,0,1,0,10Z"/><path class="cls-7" d="M410.12,297.28H279.31a5,5,0,1,1,0-10H410.12a5,5,0,0,1,0,10Z"/><path class="cls-8" d="M462.63,373.79H279.31a5,5,0,0,1,0-10H462.63a5,5,0,0,1,0,10Z"/><rect class="cls-9" x="274.31" y="318.09" width="193.33" height="26.69" rx="3"/></g></svg>