<svg xmlns="http://www.w3.org/2000/svg" xmlns:xlink="http://www.w3.org/1999/xlink" viewBox="0 0 600 600"><defs><style>.cls-1{fill:none;}.cls-2{fill:url(#Degradado_sin_nombre_54);}.cls-3{fill:#043263;}.cls-4{fill:#49a5e6;}.cls-5{opacity:0.5;isolation:isolate;fill:url(#Degradado_sin_nombre_5);}.cls-6{fill:#eaf9fa;}.cls-7{fill:#004481;}.cls-8{fill:#2dcccd;}.cls-9{fill:#fff;}</style><linearGradient id="Degradado_sin_nombre_54" x1="247.58" y1="-3356.09" x2="460.72" y2="-3756.96" gradientTransform="matrix(1, 0, 0, -1, 0, -3204)" gradientUnits="userSpaceOnUse"><stop offset="0" stop-color="#192647" stop-opacity="0.5"/><stop offset="1" stop-color="#192647" stop-opacity="0"/></linearGradient><linearGradient id="Degradado_sin_nombre_5" x1="215.96" y1="-3419.76" x2="370.22" y2="-3574.02" gradientTransform="matrix(1, 0, 0, -1, 0, -3204)" gradientUnits="userSpaceOnUse"><stop offset="0" stop-color="#fff" stop-opacity="0.5"/><stop offset="1" stop-color="#ecf7f8" stop-opacity="0.1"/></linearGradient></defs><title>5</title><g id="Cuadrados_blancos" data-name="Cuadrados blancos"><rect class="cls-1" width="600" height="600"/></g><g id="Capa_4" data-name="Capa 4"><path class="cls-2" d="M261.1,147.85H447.2a22.32,22.32,0,0,1,22.3,22.31V534.89a22.32,22.32,0,0,1-22.3,22.31H261.1a22.32,22.32,0,0,1-22.3-22.31V170.16A22.32,22.32,0,0,1,261.1,147.85Z"/><path class="cls-3" d="M207.5,96.85H392.4A22.13,22.13,0,0,1,414.5,119v362a22.12,22.12,0,0,1-22.1,22.1H207.5a22.12,22.12,0,0,1-22.1-22.1v-362a22.13,22.13,0,0,1,22.06-22.2Z"/><rect class="cls-4" x="185.4" y="147.85" width="229.2" height="304.3"/><polygon class="cls-5" points="185.7 148.05 185.7 451.95 302.5 452.15 414.5 245.15 414.5 147.85 185.7 148.05"/><circle class="cls-6" cx="299.52" cy="239.22" r="26.12"/><path class="cls-6" d="M277,271.67h45.12a21.64,21.64,0,0,1,21.61,21.61v26.4H255.35v-26.4A21.64,21.64,0,0,1,277,271.67Z"/><path class="cls-7" d="M248.15,357.9h103.7a31.21,31.21,0,0,1,31.21,31.21h0a31.27,31.27,0,0,1-31.21,31.2H248.15a31.2,31.2,0,0,1-31.21-31.2h0A31.21,31.21,0,0,1,248.15,357.9Z"/><circle class="cls-8" cx="248.15" cy="388.34" r="24.49"/><path class="cls-9" d="M259,396.4l-4.9-4.12a.69.69,0,0,0-.86,0l-.67.67-.1.09L251,394.48a15.26,15.26,0,0,1-5-3.16,13.12,13.12,0,0,1-3.17-5l1.44-1.44.09-.09.68-.68a.72.72,0,0,0,0-.86l-4-4.9a.57.57,0,0,0-.76,0h0l-1.83,1.83-.09.09-.2.19h0a17.74,17.74,0,0,0,16.61,18.82H257l.19-.19.1-.09,1.83-1.83c.19-.19.19-.48-.1-.77h0"/></g></svg>