<svg xmlns="http://www.w3.org/2000/svg" xmlns:xlink="http://www.w3.org/1999/xlink" viewBox="0 0 600 600"><defs><style>.cls-1{fill:none;}.cls-2{fill:url(#Degradado_sin_nombre_7);}.cls-3{fill:#123161;}.cls-4{fill:#02a5a5;}.cls-5{fill:#028484;}.cls-6{fill:#0e2045;}.cls-7{fill:#56e2de;}.cls-8{fill:#2dcccd;}.cls-9{fill:#1464a5;}.cls-10{fill:#043263;}.cls-11{fill:url(#Degradado_sin_nombre_399);}.cls-12{fill:#49a5e6;}.cls-13{fill:url(#Degradado_sin_nombre_35);}</style><linearGradient id="Degradado_sin_nombre_7" x1="262.89" y1="442.52" x2="489.07" y2="17.12" gradientTransform="matrix(1, 0, 0, -1, 0, 582)" gradientUnits="userSpaceOnUse"><stop offset="0" stop-color="#192647" stop-opacity="0.5"/><stop offset="1" stop-color="#192647" stop-opacity="0"/></linearGradient><linearGradient id="Degradado_sin_nombre_399" x1="401.76" y1="199.54" x2="268" y2="199.54" gradientTransform="matrix(1, 0, 0, -1, 0, 582)" gradientUnits="userSpaceOnUse"><stop offset="0" stop-color="#043263"/><stop offset="1" stop-color="#043263" stop-opacity="0"/></linearGradient><linearGradient id="Degradado_sin_nombre_35" x1="231.47" y1="140.94" x2="289.63" y2="82.79" gradientTransform="matrix(1, 0, 0, -1, 0, 582)" gradientUnits="userSpaceOnUse"><stop offset="0" stop-color="#fff" stop-opacity="0.5"/><stop offset="1" stop-color="#ebf4f5" stop-opacity="0.1"/></linearGradient></defs><title>13</title><g id="Cuadrados_Blancos" data-name="Cuadrados Blancos"><rect class="cls-1" width="600" height="600"/><rect class="cls-1" width="600" height="600"/></g><g id="Capa_81" data-name="Capa 81"><path class="cls-2" d="M529.89,277.75l-.1-.09c-9.19-51.12-83.55-112.86-174.79-115V149.74a5,5,0,0,0-10,0v12.87c-91.24,2.19-165.6,63.93-174.79,115.05l-.1.09h.08a3.1,3.1,0,0,1-.08.42l.44-.31c38.14,11.88,48.86,15.54,81.5,35.24,32.67-2.18,61.88.47,92.95,7.39v37.89c-2.49.12-5,.31-7.4.61a5,5,0,0,0-4.4,5v2.1a95.28,95.28,0,0,0-16.82,4.56,3.37,3.37,0,0,0-3.56-3.15,3.47,3.47,0,0,0-1.14.28,93.41,93.41,0,0,0-9.09,4.48,5.89,5.89,0,0,0-3,5.13v1.42a96.59,96.59,0,0,0-46.13,78.49h-.63a5.92,5.92,0,0,0-6.09,5l-1.18,7.7a3.48,3.48,0,0,0,2.94,4,2.45,2.45,0,0,0,.38,0l1.58.07-1.08,10a4.2,4.2,0,0,0,3.72,4.63l.28,0,2.48.09q53,1.74,106.11,1.51h5.58q6,0,12-.09l12-.15,11.11-.18q7.74-.13,15.5-.32l6.45-.16q10.31-.27,20.61-.59l2.48-.09a4.19,4.19,0,0,0,4-4.37,2.64,2.64,0,0,0,0-.28l-1.09-10h.47a3.49,3.49,0,0,0,3.36-3.62c0-.13,0-.25,0-.38l-1.18-7.71a5.92,5.92,0,0,0-6.09-5h-.63v-.33c0-1.14-.11-2.27-.2-3.4a1.77,1.77,0,0,0-.05-.51c-.08-1-.19-2.06-.31-3.08a1.94,1.94,0,0,0-.07-.63c-.13-1.11-.29-2.22-.47-3.32a3.86,3.86,0,0,0-.11-.68c-.17-1.05-.36-2.08-.56-3.11l-.06-.31c-.23-1.11-.47-2.2-.74-3.29-.05-.23-.11-.46-.16-.69-.28-1.1-.56-2.18-.87-3.26a1.33,1.33,0,0,0,0-.19c-.3-1-.62-2.07-1-3.09l-.2-.6c-.35-1-.71-2.1-1.1-3.14-.05-.15-.11-.3-.17-.46-.37-1-.75-1.94-1.15-2.9l-.15-.37q-.64-1.54-1.35-3.06l-.24-.52c-1-2.06-2-4.08-3.1-6.05l-.25-.46c-.56-1-1.13-2-1.73-2.94l-.06-.11c-.59-1-1.2-1.9-1.82-2.84a2.75,2.75,0,0,0-.19-.28c-.63-1-1.29-1.9-2-2.83-.07-.08-.13-.17-.19-.25-1.37-1.89-2.8-3.72-4.3-5.51-.07-.08-.15-.16-.22-.25-1.51-1.79-3.08-3.53-4.73-5.2l-.15-.15a97,97,0,0,0-8-7.3l-.08-.07c-1.88-1.52-3.81-3-5.79-4.34l-.08-.05c-1.46-1-3-2-4.47-2.92v-1.42a5.89,5.89,0,0,0-3-5.13,93.41,93.41,0,0,0-9.09-4.48,3.36,3.36,0,0,0-4.42,1.73,3.24,3.24,0,0,0-.28,1.14c-.58-.22-1.16-.42-1.74-.63h0a95.79,95.79,0,0,0-15.08-3.93V364a5,5,0,0,0-4.4-5c-2.44-.3-4.91-.49-7.4-.61V320.52c31.07-6.92,60.28-9.57,92.95-7.39,32.64-19.7,43.36-23.36,81.5-35.24l.44.31a.79.79,0,0,0-.08-.42Z"/><path class="cls-3" d="M300,132.79a5,5,0,0,1-5-5V102a5,5,0,0,1,10,0v25.8A5,5,0,0,1,300,132.79Z"/><path class="cls-4" d="M120.11,230c38.5,12,49.17,15.6,81.94,35.38l97.95-137C235.62,139.35,176.4,177.07,120.11,230Z"/><path class="cls-5" d="M202.05,265.38c34.42-2.3,65,.76,97.95,8.52V128.38C257,171.05,222.68,216.23,202.05,265.38Z"/><path class="cls-4" d="M479.89,230c-38.5,12-49.17,15.6-81.94,35.38L300,128.38C364.38,139.35,423.6,177.07,479.89,230Z"/><path class="cls-5" d="M398,265.38c-34.42-2.3-65,.76-97.95,8.52V128.38C341,171.15,374.62,216.46,398,265.38Z"/><rect class="cls-6" x="295" y="172.62" width="10" height="224.38"/><path class="cls-7" d="M300,114.79c-93.84,0-171,63.51-179.89,115.66,23.92-17.22,53.79-27.29,89.94-27.64h0Q226.68,150.1,300,114.79Z"/><path class="cls-7" d="M300,114.79c93.84,0,171,63.51,179.89,115.66C456,213.23,426.1,203.16,390,202.81h0Q373.32,150.1,300,114.79Z"/><path class="cls-8" d="M300,114.79q-73.32,35.31-89.95,88c36-10.32,58.77-12.45,89.95-7.12,31.18-5.33,53.93-3.2,89.95,7.12Q373.32,150.1,300,114.79Z"/><path class="cls-9" d="M401.74,436.32l-1.2-11-3.92-11.77a96.62,96.62,0,1,0-193.24,0l-2.81,11.77-1.19,11A4.2,4.2,0,0,0,203.1,441l.28,0,2.48.09q94.64,3.12,189.32,0l2.48-.09a4.19,4.19,0,0,0,4.1-4.29C401.76,436.56,401.75,436.44,401.74,436.32Z"/><path class="cls-10" d="M219.38,476.6H207.5a2.79,2.79,0,0,1-2.79-2.77,3,3,0,0,1,0-.52L206.68,463a6,6,0,0,1,5.9-4.91h6.8Z"/><path class="cls-10" d="M380.62,476.6H392.5a2.79,2.79,0,0,0,2.79-2.77,3,3,0,0,0-.05-.52L393.32,463a6,6,0,0,0-5.9-4.91h-6.8Z"/><path class="cls-11" d="M401.74,436.32l-1.2-11-3.92-11.77a96.65,96.65,0,0,0-64.74-91.23L268,442.41q63.62.72,127.21-1.35l2.48-.09a4.2,4.2,0,0,0,4.07-4.32C401.76,436.54,401.75,436.43,401.74,436.32Z"/><path class="cls-12" d="M316.8,316.27a5,5,0,0,0-4.4-5,103.91,103.91,0,0,0-24.8,0,5,5,0,0,0-4.4,5v52.31A16.81,16.81,0,0,0,300,385.39h0a16.81,16.81,0,0,0,16.8-16.81Z"/><path class="cls-12" d="M333.61,323.14v44.49a2.53,2.53,0,0,0,2.51,2.53,2.58,2.58,0,0,0,.73-.11l3.38-1a14.28,14.28,0,0,0,10.18-13.68v-25.7a5.89,5.89,0,0,0-3-5.13,93.41,93.41,0,0,0-9.09-4.48,3.36,3.36,0,0,0-4.43,1.73A3.43,3.43,0,0,0,333.61,323.14Z"/><path class="cls-12" d="M249.59,329.67v25.68A14.28,14.28,0,0,0,259.77,369l3.38,1a2.51,2.51,0,0,0,3.13-1.69,2.27,2.27,0,0,0,.11-.73V323.14a3.37,3.37,0,0,0-4.71-3.08,93.41,93.41,0,0,0-9.09,4.48A5.89,5.89,0,0,0,249.59,329.67Z"/><path class="cls-10" d="M401.12,426.29l-8.44.34q-92.64,3.71-185.36,0l-8.44-.34a3.49,3.49,0,0,1-3.36-3.62c0-.13,0-.25,0-.38l1.18-7.71a5.92,5.92,0,0,1,6.09-5l2.17.09q95,3.9,190,0l2.17-.09a5.92,5.92,0,0,1,6.09,5l1.18,7.71a3.48,3.48,0,0,1-2.94,4A2.45,2.45,0,0,1,401.12,426.29Z"/><path class="cls-12" d="M387.88,475.49l-2.69-14.7a12.17,12.17,0,0,0-12-10s-34.62.95-73.21.95-73.21-.95-73.21-.95a12.17,12.17,0,0,0-12,10l-2.69,14.7a31.92,31.92,0,0,0,25.66,37.14,31.51,31.51,0,0,0,5.74.52h26.79a13,13,0,0,0,12.19-8.47l4.14-11.13a14.43,14.43,0,0,1,11.4-9.38,14.11,14.11,0,0,1,15.23,9.06l4.26,11.45a13,13,0,0,0,12.19,8.47h26.79a31.87,31.87,0,0,0,19.42-6.59h0A31.92,31.92,0,0,0,387.88,475.49Z"/><path class="cls-13" d="M300,451.75c-38.59,0-73.21-.95-73.21-.95a12.17,12.17,0,0,0-12,10l-2.69,14.7a31.92,31.92,0,0,0,25.66,37.14,31.51,31.51,0,0,0,5.74.52h26.79a13,13,0,0,0,12.19-8.47l4.14-11.13A14.44,14.44,0,0,1,298,484.17h.17l17.26-32.45C310.42,451.73,305.25,451.75,300,451.75Z"/></g></svg>