<svg xmlns="http://www.w3.org/2000/svg" xmlns:xlink="http://www.w3.org/1999/xlink" viewBox="0 0 600 600"><defs><style>.cls-1{fill:none;}.cls-2{isolation:isolate;}.cls-3{fill:url(#Degradado_sin_nombre_42);}.cls-4{fill:#003267;}.cls-5{clip-path:url(#clip-path);}.cls-6{fill:#00a7ec;}.cls-7{fill:url(#Degradado_sin_nombre_8);}.cls-8{fill:#008785;mix-blend-mode:multiply;}.cls-9{fill:#00d0cf;}.cls-10{fill:url(#Degradado_sin_nombre_58);}.cls-11{fill:#e6fafa;}.cls-12{fill:#cdeefe;}.cls-13{fill:url(#Degradado_sin_nombre_16);}.cls-14{fill:#043263;}.cls-15{clip-path:url(#clip-path-3);}.cls-16{fill:#d4edfc;}</style><linearGradient id="Degradado_sin_nombre_42" x1="223.58" y1="153.21" x2="452.1" y2="582.98" gradientUnits="userSpaceOnUse"><stop offset="0" stop-color="#072146" stop-opacity="0.5"/><stop offset="1" stop-color="#072146" stop-opacity="0"/></linearGradient><clipPath id="clip-path"><circle class="cls-1" cx="279.74" cy="295.28" r="200"/></clipPath><linearGradient id="Degradado_sin_nombre_8" x1="-522.09" y1="466.29" x2="-753.31" y2="466.29" gradientTransform="matrix(1.03, 0, 0, 1.02, 928.63, -193.29)" gradientUnits="userSpaceOnUse"><stop offset="0" stop-color="#0064a9" stop-opacity="0.6"/><stop offset="1" stop-color="#0064a9" stop-opacity="0"/></linearGradient><linearGradient id="Degradado_sin_nombre_58" x1="501.86" y1="383.25" x2="255.99" y2="383.25" gradientUnits="userSpaceOnUse"><stop offset="0" stop-color="#008785" stop-opacity="0.6"/><stop offset="1" stop-color="#008785" stop-opacity="0"/></linearGradient><linearGradient id="Degradado_sin_nombre_16" x1="-6856.55" y1="-1407.83" x2="-6731.43" y2="-1407.83" gradientTransform="translate(-6329.76 -966.17) rotate(180)" gradientUnits="userSpaceOnUse"><stop offset="0" stop-color="#003267" stop-opacity="0.15"/><stop offset="1" stop-color="#003267" stop-opacity="0"/></linearGradient><clipPath id="clip-path-3"><circle class="cls-1" cx="899.11" cy="294.15" r="200"/></clipPath></defs><g class="cls-2"><g id="Capa_1" data-name="Capa 1"><path class="cls-3" d="M572.51,463.82c0-.35,0-.7,0-1.05-.06-1.11-.15-2.21-.25-3.31,0-.19,0-.39-.05-.58-.13-1.27-.3-2.52-.48-3.76l-.15-.95c-.17-1-.35-2-.55-3.05l-.15-.81q-.39-1.83-.84-3.63l-.21-.78c-.26-1-.54-2-.84-3l-.27-.88c-.37-1.18-.77-2.35-1.19-3.51-.05-.16-.12-.31-.18-.47-.37-1-.77-2-1.19-3l-.37-.88q-1.47-3.41-3.21-6.66l-.45-.82c-.51-.94-1.05-1.87-1.6-2.78l-.26-.45c-.63-1-1.29-2.06-2-3.07l-.49-.72c-.57-.83-1.16-1.66-1.76-2.47l-.45-.61c-.73-1-1.48-1.93-2.25-2.86-.15-.19-.31-.37-.46-.55-.65-.78-1.32-1.55-2-2.31l-.58-.65q-1.23-1.35-2.52-2.64l-.07-.07V320.82A17.81,17.81,0,0,0,529.87,303H525c-11-100-95.81-177.8-198.77-177.8A200.79,200.79,0,0,0,176.41,459.54l.36.4v47.81a17.8,17.8,0,0,0,17.8,17.81H308.24q8.56.74,17.32.75t17.32-.75H425a85.58,85.58,0,0,0,22.49,17.34h0c.92.49,1.85,1,2.79,1.42l.67.32c1.1.52,2.2,1,3.32,1.5l.07,0c1.13.48,2.29.93,3.45,1.36l.71.26c1.14.41,2.29.8,3.44,1.17l.61.18c1.1.34,2.2.65,3.31.94l.45.12c1.2.31,2.4.58,3.61.84l.78.15q1.83.38,3.69.66l.42.06c1.16.18,2.34.32,3.51.45l.68.07c1.24.13,2.49.22,3.75.29l.79,0c1.3.06,2.61.1,3.93.1a85.4,85.4,0,0,0,12.77-1c1.38-.21,2.76-.45,4.13-.72q3.51-.71,6.91-1.7a83.53,83.53,0,0,0,8.85-3.12c1.44-.59,2.86-1.23,4.25-1.9,2.39-1.15,4.72-2.41,7-3.78A84.25,84.25,0,0,0,542,533.06c1.9-1.59,3.74-3.25,5.5-5l.13-.13c1.48-1.48,2.89-3,4.26-4.62,1.11-1.29,2.19-2.6,3.23-4,.41-.54.82-1.1,1.22-1.65,1.09-1.5,2.12-3,3.11-4.59a84.45,84.45,0,0,0,6.43-12.25q.81-1.91,1.53-3.87c.95-2.6,1.78-5.27,2.48-8,.35-1.36.67-2.74,1-4.12a83.69,83.69,0,0,0,1.29-8.46,86.18,86.18,0,0,0,.44-8.7h0C572.61,466.4,572.57,465.11,572.51,463.82Z"/><circle class="cls-4" cx="280.37" cy="294.17" r="200"/><circle class="cls-1" cx="280.37" cy="295.17" r="200"/><g class="cls-5"><path class="cls-6" d="M372.47,428l-326.41.7a17.24,17.24,0,0,1-17.27-17.21l-.38-216a17.23,17.23,0,0,1,17.2-17.27L372,177.55a17.23,17.23,0,0,1,17.27,17.2l.38,216A17.23,17.23,0,0,1,372.47,428Z"/><path class="cls-7" d="M150.48,392.46,372.39,392a17.24,17.24,0,0,0,17.28-17.19l-.38-180.14a17.23,17.23,0,0,0-17.36-17.11l-106.21.22Z"/><rect class="cls-8" x="28.49" y="219.35" width="360.89" height="34.31" transform="matrix(1, 0, 0, 1, -0.5, 0.44)"/></g><rect class="cls-9" x="130.95" y="271.98" width="370.9" height="222.54" rx="17.8"/><path class="cls-10" d="M256,494.53H484.05a17.81,17.81,0,0,0,17.81-17.81V289.79A17.81,17.81,0,0,0,484.05,272H374.9Z"/><rect class="cls-8" x="130.95" y="315.01" width="370.9" height="35.61"/><rect class="cls-11" x="185.85" y="415.89" width="261.12" height="35.61" rx="4.45"/><circle class="cls-12" cx="441.65" cy="436.69" r="85.15"/><path class="cls-13" d="M441.65,521.83a85.16,85.16,0,0,0,40-160.34l-80,150.39A84.78,84.78,0,0,0,441.65,521.83Z"/><path class="cls-14" d="M484.45,405.34A26.19,26.19,0,0,0,465,396.85a24.47,24.47,0,0,0-15.3,5.29,31.31,31.31,0,0,0-6.19,6.47,31,31,0,0,0-6.19-6.47,24.45,24.45,0,0,0-15.3-5.29,26.21,26.21,0,0,0-19.48,8.49,30.49,30.49,0,0,0-7.72,20.81c0,8.25,3.07,15.8,9.66,23.76,5.89,7.12,14.37,14.35,24.18,22.72,3.35,2.86,7.14,6.1,11.09,9.56a5.73,5.73,0,0,0,7.53,0c3.94-3.46,7.74-6.7,11.09-9.56,9.81-8.37,18.28-15.6,24.18-22.72,6.59-8,9.65-15.51,9.65-23.76A30.49,30.49,0,0,0,484.45,405.34Z"/><path class="cls-3" d="M572.51,463.82c0-.35,0-.7,0-1.05-.06-1.11-.15-2.21-.25-3.31,0-.19,0-.39-.05-.58-.13-1.27-.3-2.52-.48-3.76l-.15-.95c-.17-1-.35-2-.55-3.05l-.15-.81q-.39-1.83-.84-3.63l-.21-.78c-.26-1-.54-2-.84-3l-.27-.88c-.37-1.18-.77-2.35-1.19-3.51-.05-.16-.12-.31-.18-.47-.37-1-.77-2-1.19-3l-.37-.88q-1.47-3.41-3.21-6.66l-.45-.82c-.51-.94-1.05-1.87-1.6-2.78l-.26-.45c-.63-1-1.29-2.06-2-3.07l-.49-.72c-.57-.83-1.16-1.66-1.76-2.47l-.45-.61c-.73-1-1.48-1.93-2.25-2.86-.15-.19-.31-.37-.46-.55-.65-.78-1.32-1.55-2-2.31l-.58-.65q-1.23-1.35-2.52-2.64l-.07-.07V320.82A17.81,17.81,0,0,0,529.87,303H525c-11-100-95.81-177.8-198.77-177.8A200.79,200.79,0,0,0,176.41,459.54l.36.4v47.81a17.8,17.8,0,0,0,17.8,17.81H308.24q8.56.74,17.32.75t17.32-.75H425a85.58,85.58,0,0,0,22.49,17.34h0c.92.49,1.85,1,2.79,1.42l.67.32c1.1.52,2.2,1,3.32,1.5l.07,0c1.13.48,2.29.93,3.45,1.36l.71.26c1.14.41,2.29.8,3.44,1.17l.61.18c1.1.34,2.2.65,3.31.94l.45.12c1.2.31,2.4.58,3.61.84l.78.15q1.83.38,3.69.66l.42.06c1.16.18,2.34.32,3.51.45l.68.07c1.24.13,2.49.22,3.75.29l.79,0c1.3.06,2.61.1,3.93.1a85.4,85.4,0,0,0,12.77-1c1.38-.21,2.76-.45,4.13-.72q3.51-.71,6.91-1.7a83.53,83.53,0,0,0,8.85-3.12c1.44-.59,2.86-1.23,4.25-1.9,2.39-1.15,4.72-2.41,7-3.78A84.25,84.25,0,0,0,542,533.06c1.9-1.59,3.74-3.25,5.5-5l.13-.13c1.48-1.48,2.89-3,4.26-4.62,1.11-1.29,2.19-2.6,3.23-4,.41-.54.82-1.1,1.22-1.65,1.09-1.5,2.12-3,3.11-4.59a84.45,84.45,0,0,0,6.43-12.25q.81-1.91,1.53-3.87c.95-2.6,1.78-5.27,2.48-8,.35-1.36.67-2.74,1-4.12a83.69,83.69,0,0,0,1.29-8.46,86.18,86.18,0,0,0,.44-8.7h0C572.61,466.4,572.57,465.11,572.51,463.82Z"/><circle class="cls-4" cx="280.37" cy="294.17" r="200"/><circle class="cls-1" cx="280.37" cy="295.17" r="200"/><g class="cls-5"><path class="cls-6" d="M372.47,428l-326.41.7a17.24,17.24,0,0,1-17.27-17.21l-.38-216a17.23,17.23,0,0,1,17.2-17.27L372,177.55a17.23,17.23,0,0,1,17.27,17.2l.38,216A17.23,17.23,0,0,1,372.47,428Z"/><path class="cls-7" d="M150.48,392.46,372.39,392a17.24,17.24,0,0,0,17.28-17.19l-.38-180.14a17.23,17.23,0,0,0-17.36-17.11l-106.21.22Z"/><rect class="cls-8" x="28.49" y="219.35" width="360.89" height="34.31" transform="matrix(1, 0, 0, 1, -0.5, 0.44)"/></g><rect class="cls-9" x="130.95" y="271.98" width="370.9" height="222.54" rx="17.8"/><path class="cls-10" d="M256,494.53H484.05a17.81,17.81,0,0,0,17.81-17.81V289.79A17.81,17.81,0,0,0,484.05,272H374.9Z"/><rect class="cls-8" x="130.95" y="315.01" width="370.9" height="35.61"/><rect class="cls-11" x="185.85" y="415.89" width="261.12" height="35.61" rx="4.45"/><circle class="cls-12" cx="441.65" cy="436.69" r="85.15"/><path class="cls-13" d="M441.65,521.83a85.16,85.16,0,0,0,40-160.34l-80,150.39A84.78,84.78,0,0,0,441.65,521.83Z"/><path class="cls-14" d="M484.45,405.34A26.19,26.19,0,0,0,465,396.85a24.47,24.47,0,0,0-15.3,5.29,31.31,31.31,0,0,0-6.19,6.47,31,31,0,0,0-6.19-6.47,24.45,24.45,0,0,0-15.3-5.29,26.21,26.21,0,0,0-19.48,8.49,30.49,30.49,0,0,0-7.72,20.81c0,8.25,3.07,15.8,9.66,23.76,5.89,7.12,14.37,14.35,24.18,22.72,3.35,2.86,7.14,6.1,11.09,9.56a5.73,5.73,0,0,0,7.53,0c3.94-3.46,7.74-6.7,11.09-9.56,9.81-8.37,18.28-15.6,24.18-22.72,6.59-8,9.65-15.51,9.65-23.76A30.49,30.49,0,0,0,484.45,405.34Z"/><g class="cls-15"><ellipse class="cls-16" cx="897.48" cy="639.7" rx="402.09" ry="271.94"/></g></g></g></svg>