<svg id="e5085604-d47e-422e-af15-59b0f7ae42c4" data-name="Contenido" xmlns="http://www.w3.org/2000/svg" xmlns:xlink="http://www.w3.org/1999/xlink" viewBox="0 0 600 600"><defs><style>.fdb3f1d5-75ef-44a3-99c4-06d85ad68e33{fill:url(#aaaa77cf-2505-4353-b0d7-3da5f5c41918);}.b26976f6-8988-4346-8db3-1ef3018ada33{fill:#2dcccd;}.b26f908a-f926-4af5-9dca-1360f5694be6{fill:url(#f99aefb8-6b37-40c0-9899-4a5de00ce5eb);}.bd68cd84-6a48-434b-983d-90f92cf7fc6b{fill:url(#ac4d40b9-b2e2-4cd3-bee9-01c3d6030829);}.b36fbf56-62b2-431b-b7cc-6a30f124f933{fill:#f8b283;}.fa15c4b9-7015-4500-9c06-245d2dc86fc3{fill:#ecdad4;}.f35b09d2-12a7-4cbf-bea6-e310cce0f795{fill:url(#a96fb88c-1ed1-4e44-9575-c7951b327430);}.e7ecbe9e-96d2-4892-9a3c-713d41f6731a{fill:url(#bd7c8795-1e25-4023-be21-917135ea8216);}.bdc6f143-e750-4270-b8a4-5b26042e8ab8{fill:url(#b10aef7f-095d-417e-a6ba-3c38d1398392);}.a6bb5b59-b6a4-4cfc-9114-7841d9ada5b5{fill:url(#b1a77918-ac74-4090-88f1-c0b32db71c5d);}.bf205274-59bd-4c5a-bded-2a3a305fa7e0{fill:url(#b31e95cf-41bd-49f0-9c0b-8af4bbb5deac);}.bcf74c98-bdc4-4c2d-98f8-6e217d201d38{fill:none;}</style><linearGradient id="aaaa77cf-2505-4353-b0d7-3da5f5c41918" x1="227.29" y1="23.16" x2="485.89" y2="-463.2" gradientTransform="matrix(1, 0, 0, -1, 0, 84)" gradientUnits="userSpaceOnUse"><stop offset="0" stop-color="#1c2645" stop-opacity="0.5"/><stop offset="1" stop-color="#1c2645" stop-opacity="0"/></linearGradient><linearGradient id="f99aefb8-6b37-40c0-9899-4a5de00ce5eb" x1="522.88" y1="-218.43" x2="224.6" y2="-218.43" gradientTransform="matrix(1, 0, 0, -1, 0, 84)" gradientUnits="userSpaceOnUse"><stop offset="0" stop-color="#028484" stop-opacity="0.4"/><stop offset="1" stop-color="#028484" stop-opacity="0.1"/></linearGradient><linearGradient id="ac4d40b9-b2e2-4cd3-bee9-01c3d6030829" x1="74.25" y1="391.41" x2="374.91" y2="391.41" gradientTransform="matrix(1, 0, 0, 1, 0, 0)" xlink:href="#f99aefb8-6b37-40c0-9899-4a5de00ce5eb"/><linearGradient id="a96fb88c-1ed1-4e44-9575-c7951b327430" x1="522.88" y1="-196.54" x2="224.6" y2="-196.54" xlink:href="#f99aefb8-6b37-40c0-9899-4a5de00ce5eb"/><linearGradient id="bd7c8795-1e25-4023-be21-917135ea8216" x1="522.88" y1="-176.77" x2="224.6" y2="-176.77" xlink:href="#f99aefb8-6b37-40c0-9899-4a5de00ce5eb"/><linearGradient id="b10aef7f-095d-417e-a6ba-3c38d1398392" x1="522.88" y1="-142.05" x2="224.6" y2="-142.05" xlink:href="#f99aefb8-6b37-40c0-9899-4a5de00ce5eb"/><linearGradient id="b1a77918-ac74-4090-88f1-c0b32db71c5d" x1="522.88" y1="-167.66" x2="224.6" y2="-167.66" xlink:href="#f99aefb8-6b37-40c0-9899-4a5de00ce5eb"/><linearGradient id="b31e95cf-41bd-49f0-9c0b-8af4bbb5deac" x1="528.43" y1="-140.71" x2="420.32" y2="-140.71" gradientTransform="matrix(1, 0, 0, -1, 0, 84)" gradientUnits="userSpaceOnUse"><stop offset="0" stop-color="#c8773d" stop-opacity="0.4"/><stop offset="1" stop-color="#c8773d" stop-opacity="0.1"/></linearGradient></defs><path class="fdb3f1d5-75ef-44a3-99c4-06d85ad68e33" d="M524.6,176.55A118.72,118.72,0,0,0,436.22,138c-25.5,0-48.86,8.07-69.43,24a141.76,141.76,0,0,0-28.07,29.34A142,142,0,0,0,310.65,162c-20.56-15.92-43.92-24-69.42-24a118.73,118.73,0,0,0-88.39,38.51c-22.6,24.55-35,58.14-35,94.44,0,37.41,13.92,71.66,43.86,107.78,26.75,32.31,65.2,65.11,109.71,103.08,15.2,13,32.43,27.68,50.32,43.34a25.93,25.93,0,0,0,34.16,0c17.89-15.67,35.13-30.37,50.33-43.36,44.52-38,83-70.76,109.7-103.07,29.9-36.12,43.86-70.38,43.86-107.78C559.66,234.64,547.2,201.1,524.6,176.55Z"/><path class="b26976f6-8988-4346-8db3-1ef3018ada33" d="M487.78,144a118.76,118.76,0,0,0-88.38-38.51c-25.5,0-48.86,8.07-69.43,24a142.52,142.52,0,0,0-28.07,29.34,142,142,0,0,0-28.06-29.34c-20.57-15.92-43.91-24-69.41-24A118.76,118.76,0,0,0,116.05,144c-22.62,24.55-35,58.09-35,94.43,0,37.42,13.94,71.66,43.86,107.79,26.74,32.31,65.19,65.1,109.71,103.09,15.19,13,32.42,27.67,50.31,43.34a25.93,25.93,0,0,0,34.16,0c17.89-15.67,35.14-30.38,50.33-43.35,44.44-38,82.9-70.77,109.64-103.09,29.89-36.12,43.86-70.38,43.86-107.78C522.84,202.13,510.41,168.59,487.78,144Z"/><path class="b26f908a-f926-4af5-9dca-1360f5694be6" d="M487.78,144a118.5,118.5,0,0,0-81.22-38.3l-182,335.15,9.91,8.46c15.19,13,32.42,27.67,50.31,43.34a25.93,25.93,0,0,0,34.16,0c17.89-15.66,35.14-30.38,50.33-43.35,44.51-38,83-70.77,109.71-103.09,29.89-36.12,43.86-70.38,43.86-107.78C522.84,202.13,510.41,168.59,487.78,144Z"/><path class="bd68cd84-6a48-434b-983d-90f92cf7fc6b" d="M216.89,420c6.35,3.41,14.64,7.87,24.26,10.82A404.38,404.38,0,0,0,284,441.33c13.28,2.49,37,5,47.53,6a6.23,6.23,0,0,0,1.88-12.24c-2.66-.53-6.29-1.24-11-2.09-9.18-1.71-21.09-5.21-25.5-6.55a.15.15,0,0,1-.1-.15.16.16,0,0,1,.16-.15c6,.84,25.47,3.51,40.15,5.26,8.76,1,15.19,1.78,19.44,2.28a7.14,7.14,0,0,0,7.64-5.91c0-.12,0-.24.07-.36a7.06,7.06,0,0,0-5.75-8.17c-3.93-.55-9.13-1.32-14.64-2.2-9.12-1.46-26.33-5.43-33.29-7.06a.16.16,0,0,1-.09-.14.14.14,0,0,1,.15-.16c3.78.53,10.88,1.53,20.33,2.94,9.87,1.51,25.94,3.46,35.12,4.57a8,8,0,0,0,8.59-6.62,2.38,2.38,0,0,0,.05-.26,7.92,7.92,0,0,0-6.28-9.28c-10.14-1.63-27.07-4.35-30.54-5L315,391.56a.15.15,0,0,1-.14-.15.14.14,0,0,1,.14-.14c3.61.33,10.5,1,19.14,2.23,7.79,1.09,17,2.32,23,3.13a7.51,7.51,0,0,0,2.69-14.7c-7.23-1.67-18.64-4.4-26.3-6.38-11.31-2.93-38-9.77-42.24-11.5s-4.84-3.11-2.25-3.33a79.26,79.26,0,0,0,15.75-3.39c6.59-2.16,10.47-5.32,14.28-8.9,2.7-2.55,3.68-9.78,1.93-12.1s-6.71.5-17.53,2.34-17.46,1.66-30.5,2.68c-11.22.92-20.26,7.95-33.66,14-10.26,4.61-20.83,4.73-25.23,4.53a419.84,419.84,0,0,1-51.9-15.5l8.64,45.05,3.28,7.25,16.1,14.4c5.77,1.71,11.32,3.22,16.49,4.54A93.05,93.05,0,0,1,216.89,420Z"/><path class="b36fbf56-62b2-431b-b7cc-6a30f124f933" d="M218.13,352.57s13.94,1.65,27.34-4.38,22.44-13.06,33.66-14c13-1,19.67-.83,30.5-2.68s15.77-4.67,17.53-2.34.77,9.55-1.93,12.1c-3.81,3.58-7.69,6.74-14.28,8.9a79.26,79.26,0,0,1-15.75,3.39c-2.59.22-2,1.59,2.25,3.33s30.93,8.57,42.24,11.5c7.66,2,19.07,4.71,26.3,6.38a7.29,7.29,0,0,1,5.25,8.65h0a7.31,7.31,0,0,1-7.94,6.05c-6.05-.81-15.24-2-23-3.13-8.64-1.2-15.53-1.9-19.14-2.23a.14.14,0,0,0-.14.14.15.15,0,0,0,.14.15l22.93,4.48c3.47.68,20.4,3.4,30.54,5a7.92,7.92,0,0,1,6.28,9.28,2.38,2.38,0,0,1-.05.26h0a8,8,0,0,1-8.59,6.62C363.06,409,347,407,337.12,405.52c-9.45-1.41-16.55-2.41-20.33-2.94a.14.14,0,0,0-.15.16.16.16,0,0,0,.09.14c7,1.63,24.17,5.6,33.29,7.06,5.51.88,10.71,1.65,14.64,2.2a7.06,7.06,0,0,1,5.75,8.17c0,.12,0,.24-.07.36h0a7.14,7.14,0,0,1-7.64,5.91c-4.25-.5-10.68-1.24-19.44-2.28-14.68-1.75-34.17-4.42-40.15-5.26a.16.16,0,0,0-.16.15.15.15,0,0,0,.1.15c4.41,1.34,16.32,4.84,25.5,6.55,4.68.85,8.31,1.56,11,2.09a6,6,0,0,1,4.53,7.2h0a6.06,6.06,0,0,1-6.41,5c-10.55-1-34.25-3.54-47.53-6a404.38,404.38,0,0,1-42.84-10.54c-9.62-2.95-17.91-7.41-24.26-10.82a92.5,92.5,0,0,0-16.69-6.5c-.39.06,8.31-54.34,8.31-54.34Z"/><path class="fa15c4b9-7015-4500-9c06-245d2dc86fc3" d="M312.23,330.31c.48,2.2,1.62,7.07,2.42,6.93a24.07,24.07,0,0,0,6.41-1.16,6.69,6.69,0,0,0,4.77-6,9.35,9.35,0,0,0-.26-2.52C323.25,327.34,319.1,328.94,312.23,330.31Z"/><path class="fa15c4b9-7015-4500-9c06-245d2dc86fc3" d="M361.66,386.74c.52.18,4.59,1,7.08,1.57a6.55,6.55,0,0,0,3.81-4.66,6.46,6.46,0,0,0-1.51-5.47c-2.41-.56-6.71-1.48-7.07-1.55-.58-.1-2.82,2-3.35,4.92C360,384.7,360.75,386.5,361.66,386.74Z"/><path class="fa15c4b9-7015-4500-9c06-245d2dc86fc3" d="M372.09,396.29c-.63-.06-2.82,2.33-3.06,5.52-.32,3.41.59,5.22,1.61,5.46.57.15,5.37.9,8.06,1.29a6.82,6.82,0,0,0,3.87-4.8h0a6.76,6.76,0,0,0-2-6.12C377.82,397.19,372.49,396.33,372.09,396.29Z"/><path class="fa15c4b9-7015-4500-9c06-245d2dc86fc3" d="M369.91,415.06c-2.47-.31-6.57-.86-6.93-.88-.59,0-2.55,2.22-2.72,5.17-.19,3.14.71,4.78,1.66,5,.54.11,4.33.61,6.86.9a6.26,6.26,0,0,0,3.27-4.27h0A6.26,6.26,0,0,0,369.91,415.06Z"/><path class="fa15c4b9-7015-4500-9c06-245d2dc86fc3" d="M345.34,435.36a5.18,5.18,0,0,0-1.58-4.74c-2-.37-5.4-1-5.69-1-.48-.06-2.21,1.68-2.52,4.08s.34,3.93,1.11,4.13c.46.12,3.9.73,6,1.08A5.12,5.12,0,0,0,345.34,435.36Z"/><path class="b36fbf56-62b2-431b-b7cc-6a30f124f933" d="M86.16,277.11S102,331,245.6,358.07l15.76,17.6-12.91,40.41S97.75,392.71,82.76,322.39C75.83,289.91,86.16,277.11,86.16,277.11Z"/><path class="f35b09d2-12a7-4cbf-bea6-e310cce0f795" d="M357.6,277.36a.15.15,0,0,0,0-.29c-3.81.32-11,.94-20.46,1.84-7,.67-17.11,1.43-25.7,2L309.78,284c3.88-.34,8.87-.81,14.16-1.37C333.17,281.66,350.56,278.62,357.6,277.36Z"/><path class="e7ecbe9e-96d2-4892-9a3c-713d41f6731a" d="M354.22,258.7a.15.15,0,1,0,0-.29c-3.62.13-10.53.47-19.22,1.21-4,.35-8.42.71-12.55,1.05l-1.33,2.45c4.69-.52,8.51-1,10-1.16Z"/><path class="bdc6f143-e750-4270-b8a4-5b26042e8ab8" d="M379.35,232.48c4.33-1.5,5-2.84,2.41-3.2a78.48,78.48,0,0,1-15.57-4.23c-6.41-2.49-10.12-5.86-13.73-9.63a11,11,0,0,1-2.25-5.89l-17.93,33,4.24-.85C348,239.4,375,234,379.35,232.48Z"/><path class="a6bb5b59-b6a4-4cfc-9114-7841d9ada5b5" d="M514.84,189.74c-8.25,18.92-63.41,42.31-63.41,42.31-6.88-.61-101.22-22.52-101.22-22.52a11,11,0,0,0,2.25,5.89c3.61,3.77,7.32,7.14,13.73,9.63a78.48,78.48,0,0,0,15.57,4.23c2.57.36,1.92,1.7-2.41,3.2s-31.35,6.92-42.83,9.24l-4.24.85-9.83,18.1c4.13-.34,8.51-.7,12.55-1.05,8.69-.74,15.6-1.08,19.22-1.21a.15.15,0,1,1,0,.29L331.09,262c-1.46.2-5.28.64-10,1.16L311.44,281c8.59-.61,18.68-1.37,25.7-2,9.51-.9,16.65-1.52,20.46-1.84a.15.15,0,0,1,0,.29c-7,1.26-24.43,4.3-33.66,5.28-5.29.56-10.28,1-14.16,1.37l-5.88,10.82a7.33,7.33,0,0,0,6.5,3.76l19.53-1.26c14.76-.95,34.36-2.59,40.38-3.06a.15.15,0,0,1,.14.15.14.14,0,0,1-.14.14c-4.48,1.11-16.53,4-25.83,5.18-4.73.61-8.39,1.12-11.07,1.51a6.22,6.22,0,0,0,1.22,12.32c10.6-.48,34.38-1.71,47.78-3.5a404.62,404.62,0,0,0,43.28-8.24c9.76-2.44,18.28-6.46,24.8-9.52a98.15,98.15,0,0,1,14.95-5.16l.23-.06a14.18,14.18,0,0,1,1.83-.39v-.07c11.71-2.83,34.61-7.2,52.87-21.38a142.12,142.12,0,0,0,2.51-26.78A149.47,149.47,0,0,0,514.84,189.74Z"/><path class="b36fbf56-62b2-431b-b7cc-6a30f124f933" d="M528.4,200.87c0-27.41-30-43.65-30-43.65,8.29,21.42-14.15,63.54-64.4,69.43l-1.32.17a55.51,55.51,0,0,1-19.77-5.56c-13.06-6.73-21.71-14.27-32.84-15.73-13-1.76-19.6-1.88-30.31-4.31s-15.5-5.5-17.34-3.26-1.28,9.49,1.29,12.24c3.61,3.77,7.32,7.14,13.73,9.63A79.17,79.17,0,0,0,363,224.06c2.57.36,1.92,1.7-2.41,3.2s-31.35,6.92-42.84,9.24c-7.75,1.58-19.27,3.68-26.59,5a7.52,7.52,0,0,0,1.91,14.82c6.12-.48,15.3-1.22,23.16-1.9,8.69-.74,15.61-1.08,19.23-1.21a.14.14,0,0,1,0,.28l-23.13,3.27c-3.49.49-20.5,2.31-30.76,3.41a7.94,7.94,0,0,0-6.77,9l0,.22h0a8,8,0,0,0,8.24,7.07c9.27-.62,25.37-1.75,35.31-2.7,9.51-.9,16.65-1.52,20.46-1.85a.15.15,0,0,1,0,.3c-7,1.25-24.43,4.29-33.66,5.27-5.55.59-10.78,1.08-14.74,1.43a7.31,7.31,0,0,0,1.19,14.53l19.54-1.26c14.75-.95,34.36-2.59,40.38-3.06a.15.15,0,0,1,.14.14.15.15,0,0,1-.14.15c-4.48,1.11-16.53,4-25.83,5.18-4.73.61-8.39,1.12-11.08,1.51a6.22,6.22,0,0,0,1.23,12.32c10.6-.48,34.38-1.72,47.78-3.5a405.09,405.09,0,0,0,43.28-8.24c9.76-2.44,18.28-6.46,24.79-9.52a98.65,98.65,0,0,1,15-5.16l.23-.06a12.68,12.68,0,0,1,1.83-.39v-.07C470,276.25,528.4,266.05,528.4,200.87Z"/><path class="fa15c4b9-7015-4500-9c06-245d2dc86fc3" d="M347.22,199.85c-.59,2.17-2,7-2.79,6.79a24.31,24.31,0,0,1-6.34-1.5,6.69,6.69,0,0,1-4.44-6.22,9.66,9.66,0,0,1,.39-2.51C336.33,196.34,340.4,198.14,347.22,199.85Z"/><path class="fa15c4b9-7015-4500-9c06-245d2dc86fc3" d="M294.83,253.61c-.53.14-4.64.77-7.14,1.19a6.52,6.52,0,0,1-3.55-4.86,6.41,6.41,0,0,1,1.79-5.38c2.44-.44,6.78-1.13,7.14-1.17.58-.07,2.7,2.12,3.06,5.1C296.55,251.65,295.76,253.35,294.83,253.61Z"/><path class="fa15c4b9-7015-4500-9c06-245d2dc86fc3" d="M283.9,262.58c.64,0,2.7,2.48,2.82,5.68.12,3.42-.88,5.18-1.91,5.37-.57.11-5.42.61-8.11.86a6.88,6.88,0,0,1-3.62-5h0a6.78,6.78,0,0,1,2.35-6C278.11,263.17,283.5,262.6,283.9,262.58Z"/><path class="fa15c4b9-7015-4500-9c06-245d2dc86fc3" d="M285.1,281.44c2.47-.17,6.59-.51,7-.51.59,0,2.42,2.36,2.44,5.31,0,3.15-1,4.74-1.93,4.89-.54.09-4.35.38-6.9.53a6.18,6.18,0,0,1-3.06-4.42h0A6.24,6.24,0,0,1,285.1,281.44Z"/><path class="fa15c4b9-7015-4500-9c06-245d2dc86fc3" d="M308.54,303a5.22,5.22,0,0,1,1.83-4.65c2-.26,5.45-.69,5.73-.71.49,0,2.13,1.8,2.3,4.2.19,2.56-.54,3.9-1.33,4.08-.46.09-3.92.51-6.06.76A5.22,5.22,0,0,1,308.54,303Z"/><path class="bf205274-59bd-4c5a-bded-2a3a305fa7e0" d="M498.39,157.26c6.64,17.14-6.43,47.53-37.68,62l-40.39,72.88c4.31-1.73,8.16-3.56,11.54-5.1a98.15,98.15,0,0,1,14.95-5.16l.23-.06a11.46,11.46,0,0,1,1.83-.39v-.07c21.15-5.1,79.56-15.3,79.56-80.43C528.4,173.5,498.39,157.26,498.39,157.26Z"/><rect class="bcf74c98-bdc4-4c2d-98f8-6e217d201d38" width="600" height="600"/></svg>