<svg id="Capa_1" data-name="Capa 1" xmlns="http://www.w3.org/2000/svg" xmlns:xlink="http://www.w3.org/1999/xlink" viewBox="0 0 600 600"><defs><style>.cls-1{fill:none;}.cls-2{fill:url(#Degradado_sin_nombre_53);}.cls-3{opacity:0.35;}.cls-4{fill:#f9e8bd;}.cls-5{fill:url(#Degradado_sin_nombre_10);}.cls-6{fill:#fef5dc;}.cls-7{opacity:0.6;}.cls-8{fill:#f9db91;}.cls-9{fill:url(#Degradado_sin_nombre_10-2);}.cls-10{fill:#004481;}.cls-11{fill:url(#Degradado_sin_nombre_87);}.cls-12{fill:#072146;}.cls-13{fill:#fff;}.cls-14{fill:#f8cd50;}.cls-15{fill:url(#Degradado_sin_nombre_10-3);}</style><linearGradient id="Degradado_sin_nombre_53" x1="263.7" y1="158" x2="448.01" y2="504.64" gradientUnits="userSpaceOnUse"><stop offset="0" stop-color="#192647" stop-opacity="0.5"/><stop offset="1" stop-color="#192647" stop-opacity="0"/></linearGradient><linearGradient id="Degradado_sin_nombre_10" x1="318.87" y1="489.75" x2="393.43" y2="529.38" gradientTransform="translate(0 -398)" gradientUnits="userSpaceOnUse"><stop offset="0" stop-color="#fade8e"/><stop offset="1" stop-color="#fade8e" stop-opacity="0.4"/></linearGradient><linearGradient id="Degradado_sin_nombre_10-2" x1="355.87" y1="517.75" x2="430.43" y2="557.38" xlink:href="#Degradado_sin_nombre_10"/><linearGradient id="Degradado_sin_nombre_87" x1="484" y1="298" x2="213.5" y2="298" gradientTransform="translate(0 2)" gradientUnits="userSpaceOnUse"><stop offset="0" stop-color="#072146" stop-opacity="0.8"/><stop offset="1" stop-color="#072146" stop-opacity="0"/></linearGradient><linearGradient id="Degradado_sin_nombre_10-3" x1="388.67" y1="548.01" x2="462.99" y2="587.52" xlink:href="#Degradado_sin_nombre_10"/></defs><title>Sin título-1</title><rect class="cls-1" width="600" height="600"/><path class="cls-2" d="M596,238a90,90,0,0,0-47.66-79.43l0,0a89.53,89.53,0,0,0-44-10.5l-1.06,0h-.15a90,90,0,0,0-86.3,77.45H142.5a23,23,0,0,0-23,23v200a23,23,0,0,0,23,23H504.6a22.9,22.9,0,0,0,22.9-22.9V325.41A90,90,0,0,0,596,238Z"/><g class="cls-3"><path class="cls-4" d="M483.5,131.5a90,90,0,1,1-90-90h0a90,90,0,0,1,90,90h0"/><path class="cls-5" d="M435.87,52a90,90,0,1,0-84.42,159h0Z"/><path class="cls-6" d="M404.13,149.22c0-5.95-2.36-8.31-13.53-13.39-16.12-7.33-20.93-12.91-20.93-24.22,0-11,9-19.11,18.23-21.47V76.49h.43l13.27,5.84V89.9A33.88,33.88,0,0,1,413.51,94l.61.36.5.25-.12.5-.13.74-1.73,10.43-.38,2-.25,1.4-1.11-.74-1.61-1.25a23.85,23.85,0,0,0-14.88-5.21c-7,0-10.66,3.1-10.66,8.31,0,5,2.47,7.2,13.39,12.3,16.24,7.32,21.32,13.27,21.32,25.32a23.55,23.55,0,0,1-17,22.35v15.77h-1.12l-12.6-7.09v-7.7c-4.59-.62-12.77-2.35-18-5.09l-.74-.38-.5-.23v-.58l.12-.86,1.48-10.68.25-1.85.13-1.25,1,.74,1.49,1a35.86,35.86,0,0,0,19.1,6.21c7.31,0,12-3.59,12-9.56"/></g><g class="cls-7"><path class="cls-8" d="M520.5,159.5a90,90,0,1,1-90-90h0a90,90,0,0,1,90,90h0"/><path class="cls-9" d="M472.87,80a90,90,0,1,0-84.42,159h0Z"/><path class="cls-6" d="M441.13,182.22c0-5.95-2.36-8.31-13.53-13.39-16.12-7.33-20.93-12.91-20.93-24.22,0-11,9-19.11,18.23-21.47V109.49h.43l13.27,5.84v7.57a33.88,33.88,0,0,1,11.91,4.1l.61.36.5.25-.12.5-.13.74-1.73,10.43-.38,2-.25,1.4-1.11-.74-1.61-1.25a23.85,23.85,0,0,0-14.88-5.21c-7,0-10.66,3.1-10.66,8.31,0,5,2.47,7.2,13.39,12.3,16.24,7.32,21.32,13.27,21.32,25.32a23.55,23.55,0,0,1-17,22.35v15.77h-1.12l-12.6-7.09v-7.7c-4.59-.62-12.77-2.35-18-5.09l-.74-.38-.5-.23v-.58l.12-.86,1.48-10.68.25-1.85.13-1.25,1,.74,1.49,1a35.86,35.86,0,0,0,19.1,6.21c7.31,0,12-3.59,12-9.56"/></g><path class="cls-10" d="M99,177H461a23,23,0,0,1,23,23V400a23,23,0,0,1-23,23H99a23,23,0,0,1-23-23V200A23,23,0,0,1,99,177Z"/><path class="cls-11" d="M461.1,423A22.9,22.9,0,0,0,484,400.1h0V199.9A22.9,22.9,0,0,0,461.1,177H344.3L213.5,423Z"/><rect class="cls-12" x="76" y="212" width="408" height="40"/><path class="cls-13" d="M139,329H421a3,3,0,0,1,3,3v30a3,3,0,0,1-3,3H139a3,3,0,0,1-3-3V332A3,3,0,0,1,139,329Z"/><path class="cls-14" d="M552.07,189.25A89.66,89.66,0,1,1,462.42,99.5h0A89.58,89.58,0,0,1,552.07,189v.21"/><path class="cls-15" d="M505.23,110.33a89.76,89.76,0,0,0-85.68,157.76h0a10.27,10.27,0,0,1,1.39.74Z"/><path class="cls-6" d="M473,206.87c0-6-2.36-8.32-13.53-13.4-16.12-7.32-20.93-12.91-20.93-24.21,0-11,9-19.12,18.23-21.48V134.13h.43L470.44,140v7.58a33.66,33.66,0,0,1,11.91,4.09l.61.36.5.25-.12.51-.13.74-1.73,10.42-.38,2-.25,1.4-1.11-.74-1.61-1.24a23.73,23.73,0,0,0-14.88-5.21c-7,0-10.66,3.1-10.66,8.31,0,5,2.47,7.19,13.39,12.29C482.22,188,487.3,194,487.3,206a23.55,23.55,0,0,1-17,22.35v15.78H469.2l-12.6-7.1v-7.7c-4.6-.61-12.77-2.35-18-5.09l-.74-.37-.5-.24v-.57l.12-.87L439,211.55l.25-1.86.13-1.24,1,.74,1.49,1a35.85,35.85,0,0,0,19.1,6.2c7.31,0,12-3.59,12-9.56"/></svg>