<svg xmlns="http://www.w3.org/2000/svg" xmlns:xlink="http://www.w3.org/1999/xlink" viewBox="0 0 600 600"><defs><style>.cls-1{fill:none;}.cls-2{fill:url(#Degradado_sin_nombre_53);}.cls-3{opacity:0.35;}.cls-4{fill:#f9e8bd;}.cls-5{fill:url(#Degradado_sin_nombre_10);}.cls-6{fill:#fef5dc;}.cls-12,.cls-7{opacity:0.6;}.cls-8{fill:#f9db91;}.cls-9{fill:url(#Degradado_sin_nombre_10-2);}.cls-10{fill:#1464a5;}.cls-11{fill:url(#Degradado_sin_nombre_16);}.cls-12{fill:#043263;isolation:isolate;}.cls-13{fill:#fff;}.cls-14{fill:#f8cd51;}.cls-15{fill:url(#Degradado_sin_nombre_10-3);}</style><linearGradient id="Degradado_sin_nombre_53" x1="263.7" y1="158" x2="448.01" y2="504.64" gradientUnits="userSpaceOnUse"><stop offset="0" stop-color="#192647" stop-opacity="0.5"/><stop offset="1" stop-color="#192647" stop-opacity="0"/></linearGradient><linearGradient id="Degradado_sin_nombre_10" x1="318.87" y1="489.75" x2="393.43" y2="529.38" gradientTransform="translate(0 -398)" gradientUnits="userSpaceOnUse"><stop offset="0" stop-color="#fade8e"/><stop offset="1" stop-color="#fade8e" stop-opacity="0.4"/></linearGradient><linearGradient id="Degradado_sin_nombre_10-2" x1="355.87" y1="517.75" x2="430.43" y2="557.38" xlink:href="#Degradado_sin_nombre_10"/><linearGradient id="Degradado_sin_nombre_16" x1="484" y1="298" x2="213.5" y2="298" gradientTransform="translate(0 2)" gradientUnits="userSpaceOnUse"><stop offset="0" stop-color="#043263"/><stop offset="1" stop-color="#043263" stop-opacity="0"/></linearGradient><linearGradient id="Degradado_sin_nombre_10-3" x1="387.87" y1="547.75" x2="462.43" y2="587.38" xlink:href="#Degradado_sin_nombre_10"/></defs><g id="Cuadrados_Blancos" data-name="Cuadrados Blancos"><rect class="cls-1" width="600" height="600"/></g><g id="Capa_7" data-name="Capa 7"><path class="cls-2" d="M596,238a90,90,0,0,0-47.66-79.43l0,0a89.53,89.53,0,0,0-44-10.5l-1.06,0h-.15a90,90,0,0,0-86.3,77.45H142.5a23,23,0,0,0-23,23v200a23,23,0,0,0,23,23H504.6a22.9,22.9,0,0,0,22.9-22.9V325.41A90,90,0,0,0,596,238Z"/><g class="cls-3"><path class="cls-4" d="M483.5,131.5a90,90,0,1,1-90-90h0a90,90,0,0,1,90,90h0"/><path class="cls-5" d="M435.87,52a90,90,0,1,0-84.42,159h0Z"/><path class="cls-6" d="M362,128.16H349.69v-9.24h13.39c3.66-20.87,16.72-30.27,31.69-30.27,15.77,0,24.22,8.13,28.36,18.32l-11.79,6.53c-2.87-8.6-8-12.74-16.72-12.74-9.24,0-15.77,5.89-18.16,18.16h20.7v9.24H375.5V131a46,46,0,0,0,.16,4.78h21.82v9.4H376.77c2.39,11.47,8.13,17.36,18.16,17.36,8.76,0,13.86-3.82,17.05-13.54l11.47,6.85c-4.62,10.83-14.34,18.48-28.68,18.48-15.61,0-27.87-9.24-31.69-29.31H349.69v-9.4h12.43A44.48,44.48,0,0,1,362,131v-2.86Z"/></g><g class="cls-7"><path class="cls-8" d="M520.5,159.5a90,90,0,1,1-90-90h0a90,90,0,0,1,90,90h0"/><path class="cls-9" d="M472.87,80a90,90,0,1,0-84.42,159h0Z"/><path class="cls-6" d="M399,156.16H386.69v-9.24h13.39c3.66-20.87,16.72-30.27,31.69-30.27,15.77,0,24.22,8.13,28.36,18.32l-11.79,6.53c-2.87-8.6-8-12.74-16.72-12.74-9.24,0-15.77,5.89-18.16,18.16h20.7v9.24H412.5V159a46,46,0,0,0,.16,4.78h21.82v9.4H413.77c2.39,11.47,8.13,17.36,18.16,17.36,8.76,0,13.86-3.82,17.05-13.54l11.47,6.85c-4.62,10.83-14.34,18.48-28.68,18.48-15.61,0-27.87-9.24-31.69-29.31H386.69v-9.4h12.43A44.48,44.48,0,0,1,399,159v-2.86Z"/></g><path class="cls-10" d="M99,177H461a23,23,0,0,1,23,23V400a23,23,0,0,1-23,23H99a23,23,0,0,1-23-23V200A23,23,0,0,1,99,177Z"/><path class="cls-11" d="M461.1,423A22.9,22.9,0,0,0,484,400.1h0V199.9A22.9,22.9,0,0,0,461.1,177H344.3L213.5,423Z"/><rect class="cls-12" x="76" y="212" width="408" height="40"/><path class="cls-13" d="M139,329H421a3,3,0,0,1,3,3v30a3,3,0,0,1-3,3H139a3,3,0,0,1-3-3V332A3,3,0,0,1,139,329Z"/><path class="cls-14" d="M552.5,189.5a90,90,0,1,1-90-90h0a90,90,0,0,1,90,90h0"/><path class="cls-15" d="M504.87,110a90,90,0,1,0-84.42,159h0Z"/><path class="cls-6" d="M431,186.16H418.69v-9.24h13.39c3.66-20.87,16.72-30.27,31.69-30.27,15.77,0,24.22,8.13,28.36,18.32l-11.79,6.53c-2.87-8.6-8-12.74-16.72-12.74-9.24,0-15.77,5.89-18.16,18.16h20.7v9.24H444.5V189a46,46,0,0,0,.16,4.78h21.82v9.4H445.77c2.39,11.47,8.13,17.36,18.16,17.36,8.76,0,13.86-3.82,17.05-13.54l11.47,6.85c-4.62,10.83-14.34,18.48-28.68,18.48-15.61,0-27.87-9.24-31.69-29.31H418.69v-9.4h12.43A44.48,44.48,0,0,1,431,189v-2.86Z"/></g></svg>