<svg id="Contenido" xmlns="http://www.w3.org/2000/svg" xmlns:xlink="http://www.w3.org/1999/xlink" viewBox="0 0 600 600"><defs><style>.cls-1{fill:url(#Degradado_sin_nombre_7);}.cls-2{fill:url(#Degradado_sin_nombre_7-2);}.cls-3{fill:#4ea5e2;}.cls-4{fill-rule:evenodd;opacity:0.5;isolation:isolate;fill:url(#Degradado_sin_nombre_9);}.cls-5{fill:#d4ecfa;}.cls-6{fill:#07467f;}.cls-7{fill:#1464a5;}.cls-8{fill:#f8cd50;}.cls-9{fill:url(#Degradado_sin_nombre_13);}.cls-10{fill:url(#Degradado_sin_nombre_41);}</style><linearGradient id="Degradado_sin_nombre_7" x1="265.23" y1="194.44" x2="470.1" y2="579.75" gradientUnits="userSpaceOnUse"><stop offset="0" stop-color="#192647"/><stop offset="0" stop-color="#192647" stop-opacity="0.5"/><stop offset="1" stop-color="#192647" stop-opacity="0"/></linearGradient><linearGradient id="Degradado_sin_nombre_7-2" x1="325.33" y1="173.55" x2="528.34" y2="555.37" xlink:href="#Degradado_sin_nombre_7"/><linearGradient id="Degradado_sin_nombre_9" x1="169.5" y1="11697.28" x2="332.58" y2="11610.57" gradientTransform="matrix(1, 0, 0, -1, 0, 11926.41)" gradientUnits="userSpaceOnUse"><stop offset="0" stop-color="#e9f8f9"/><stop offset="1" stop-color="#e9f8f9" stop-opacity="0.2"/><stop offset="1" stop-color="#e9f8f9" stop-opacity="0.5"/></linearGradient><linearGradient id="Degradado_sin_nombre_13" x1="546.12" y1="322.04" x2="425.04" y2="322.04" gradientUnits="userSpaceOnUse"><stop offset="0" stop-color="#c49735" stop-opacity="0.5"/><stop offset="1" stop-color="#c49735" stop-opacity="0"/></linearGradient><linearGradient id="Degradado_sin_nombre_41" x1="487.36" y1="442.61" x2="459.39" y2="442.61" gradientUnits="userSpaceOnUse"><stop offset="0" stop-color="#043263" stop-opacity="0.4"/><stop offset="1" stop-color="#043263" stop-opacity="0.1"/></linearGradient></defs><title>GLOMO</title><path class="cls-1" d="M576.16,354.72c0-1.23,0-2.46-.09-3.68,0-.29,0-.58,0-.86-.07-1.21-.16-2.4-.28-3.59l0-.31c-.12-1.11-.26-2.2-.42-3.29,0-.29-.08-.57-.13-.85-.18-1.15-.38-2.3-.62-3.44,0-.18-.08-.36-.11-.54-.21-1-.44-2-.69-3l-.21-.84c-.29-1.09-.6-2.18-.93-3.25-.07-.25-.15-.48-.23-.72-.29-.9-.59-1.8-.91-2.68l-.3-.84c-.38-1-.79-2.05-1.21-3.05-.12-.29-.24-.57-.37-.85-.35-.81-.71-1.62-1.09-2.41-.13-.28-.26-.57-.4-.85-.46-.95-1-1.89-1.45-2.83-.17-.32-.35-.63-.53-.95-.4-.72-.81-1.44-1.24-2.15-.17-.28-.33-.57-.5-.84-.54-.88-1.1-1.74-1.67-2.6-.22-.34-.46-.67-.69-1-.44-.65-.9-1.28-1.36-1.91l-.69-.94c-.58-.76-1.17-1.51-1.78-2.25-.28-.35-.57-.7-.86-1-.48-.58-1-1.14-1.48-1.71-.37-.41-.75-.83-1.13-1.23q-.78-.86-1.59-1.68l-1-1c-.53-.52-1.07-1-1.62-1.54s-.93-.85-1.41-1.27-1-.89-1.53-1.32l-1.17-1c-.61-.49-1.22-1-1.84-1.44s-1-.76-1.52-1.13-1-.74-1.54-1.09l-1.28-.88c-.78-.51-1.56-1-2.36-1.5a80.15,80.15,0,0,0-42-11.84h-.09V234.65a10.11,10.11,0,0,0-10.08-10.08H168.11a8.13,8.13,0,0,0-8.16,8.17v.56a10,10,0,0,0-.1,1.35V436.81a9.83,9.83,0,0,0,.1,1.34v.47a8,8,0,0,0,8.06,8.27H466.66l16.25,20.35h27.82l48.32-63.07h0A79.66,79.66,0,0,0,576.16,354.72Z"/><path class="cls-2" d="M476.19,484.5v22.18a3.58,3.58,0,0,0,3.58,3.58h34.06a3.56,3.56,0,0,0,3.14-1.91,3.48,3.48,0,0,0,.43-1.67V484.5H476.19Z"/><path class="cls-3" d="M139.88,172.8H455.57a10.11,10.11,0,0,1,10.08,10.08V385a10.12,10.12,0,0,1-10.08,10.09H139.88A10.12,10.12,0,0,1,129.8,385V182.88A10,10,0,0,1,139.88,172.8Z"/><path class="cls-4" d="M138,395.12H300.2L409.29,172.8H138.07A8.13,8.13,0,0,0,129.9,181h0V386.85A8,8,0,0,0,138,395.12Z"/><rect class="cls-5" x="159.85" y="281.59" width="125.53" height="29.54"/><rect class="cls-5" x="159.85" y="331.39" width="274.05" height="29.54"/><path class="cls-6" d="M268.23,207.58l-12.09,23a.79.79,0,0,1-1,.3l-.31-.3-12.09-23a.86.86,0,0,0-.61-.4h-5.85a.47.47,0,0,0-.5.5c0,.1,0,.2.1.2l19.06,35.59a.68.68,0,0,0,.9.31l.31-.31,19.05-35.59a.57.57,0,0,0-.2-.7c-.1,0-.2-.1-.3-.1h-5.85a1.08,1.08,0,0,0-.61.5"/><path class="cls-6" d="M275.09,238.33l12.1-23a.79.79,0,0,1,1-.3l.3.3,12.1,23a.84.84,0,0,0,.6.41h5.85a.49.49,0,0,0,.51-.51c0-.1,0-.2-.1-.2L288.4,202.44a.69.69,0,0,0-.91-.3l-.3.3-19,35.49a.56.56,0,0,0,.21.7c.1,0,.1.11.2.11h5.85a1,1,0,0,0,.6-.41"/><path class="cls-6" d="M184.75,238.63H173.86a.68.68,0,0,1-.7-.7h0v-9.78a.69.69,0,0,1,.7-.71h10.89c5.14,0,7.46,1.52,7.46,5.55s-2.22,5.64-7.46,5.64m-10.89-26.11h10.69c3.93,0,5.95,1.71,5.95,4.84s-2,4.84-5.95,4.84H173.86a.69.69,0,0,1-.7-.71h0v-8.26a.69.69,0,0,1,.7-.71h0m18.65,11.7a8.1,8.1,0,0,0,4.14-7.36c0-5.75-4.44-9.58-10.79-9.58H167.71a.69.69,0,0,0-.71.7h0v35.39a.69.69,0,0,0,.71.71h17.34c8.67,0,13.21-3.73,13.21-11s-5.75-8.87-5.75-8.87"/><path class="cls-6" d="M221.85,238.63H211a.69.69,0,0,1-.71-.7v-9.78a.69.69,0,0,1,.71-.71h10.88c5.15,0,7.47,1.52,7.47,5.55s-2.22,5.64-7.47,5.64M211,212.52h10.68c3.93,0,5.95,1.71,5.95,4.84s-2,4.84-5.95,4.84H211a.69.69,0,0,1-.71-.71v-8.26a.69.69,0,0,1,.71-.71h0m18.75,11.7a8.11,8.11,0,0,0,4.13-7.36c0-5.75-4.43-9.58-10.79-9.58H204.92a.69.69,0,0,0-.71.7h0v35.39a.69.69,0,0,0,.71.71h17.34c8.67,0,13.21-3.73,13.21-11s-5.75-8.87-5.75-8.87"/><path class="cls-7" d="M449.72,429.73h34.06a3.58,3.58,0,0,1,3.58,3.58v22.18a0,0,0,0,1,0,0H446.14a0,0,0,0,1,0,0V433.3A3.58,3.58,0,0,1,449.72,429.73Z" transform="translate(933.5 885.21) rotate(-180)"/><path class="cls-8" d="M546.12,299.94a80.37,80.37,0,1,0-143.6,49.45h0l50.38,63.08h27.82L529,349.39h0A79.62,79.62,0,0,0,546.12,299.94Z"/><path class="cls-9" d="M546.12,299.94a80.07,80.07,0,0,0-38.35-68.33L425,377.63l27.83,34.84h27.82L529,349.39h0A79.62,79.62,0,0,0,546.12,299.94Z"/><path class="cls-10" d="M473.24,429.73l-13.85,25.76h24.39a3.59,3.59,0,0,0,3.58-3.58V429.73Z"/></svg>