<svg xmlns="http://www.w3.org/2000/svg" xmlns:xlink="http://www.w3.org/1999/xlink" viewBox="0 0 600 600"><defs><style>.cls-1{fill:none;}.cls-2{fill:url(#Degradado_sin_nombre_169);}.cls-3{fill:url(#Degradado_sin_nombre_169-2);}.cls-4{fill:#49a5e6;}.cls-5{fill-rule:evenodd;opacity:0.5;isolation:isolate;fill:url(#Degradado_sin_nombre_506);}.cls-6{fill:#d4edfc;}.cls-7{fill:#004481;}.cls-8{fill:#043263;}.cls-9{fill:#f8cd50;}.cls-10{fill:url(#Degradado_sin_nombre_43);}.cls-11{fill:url(#Degradado_sin_nombre_42);}</style><linearGradient id="Degradado_sin_nombre_169" x1="326.23" y1="136.94" x2="518.13" y2="497.85" gradientUnits="userSpaceOnUse"><stop offset="0" stop-color="#192647" stop-opacity="0.5"/><stop offset="1" stop-color="#192647" stop-opacity="0"/></linearGradient><linearGradient id="Degradado_sin_nombre_169-2" x1="262.63" y1="152.54" x2="457.09" y2="518.26" xlink:href="#Degradado_sin_nombre_169"/><linearGradient id="Degradado_sin_nombre_506" x1="192.18" y1="-296.04" x2="333.23" y2="-154.99" gradientTransform="translate(0 502)" gradientUnits="userSpaceOnUse"><stop offset="0" stop-color="#eaf9fa" stop-opacity="0.5"/><stop offset="1" stop-color="#eaf9fa" stop-opacity="0"/></linearGradient><linearGradient id="Degradado_sin_nombre_43" x1="546.12" y1="-6936.04" x2="425" y2="-6936.04" gradientTransform="matrix(1, 0, 0, -1, 0, -6614)" gradientUnits="userSpaceOnUse"><stop offset="0" stop-color="#c49735" stop-opacity="0.5"/><stop offset="1" stop-color="#c49735" stop-opacity="0"/></linearGradient><linearGradient id="Degradado_sin_nombre_42" x1="487.36" y1="-7056.61" x2="459.39" y2="-7056.61" gradientTransform="matrix(1, 0, 0, -1, 0, -6614)" gradientUnits="userSpaceOnUse"><stop offset="0" stop-color="#043263" stop-opacity="0.4"/><stop offset="1" stop-color="#043263" stop-opacity="0.1"/></linearGradient></defs><title>13</title><g id="Cuadrados_Blancos" data-name="Cuadrados Blancos"><rect class="cls-1" width="600" height="600"/></g><g id="Capa_41" data-name="Capa 41"><path class="cls-2" d="M496.14,505.9a3.58,3.58,0,0,0,3.58,3.58h34.06a3.6,3.6,0,0,0,3.58-3.58V483.73H496.14Z"/><path class="cls-3" d="M596,350.63c0-.56,0-1.11-.08-1.67,0-.33-.05-.67-.07-1a80.35,80.35,0,0,0-80-74.55c-1,0-2.08,0-3.11.07V238.2a10,10,0,0,0-10-10H187.9a8.07,8.07,0,0,0-8.1,8.1v.55a10.1,10.1,0,0,0-.1,1.35V438.7a9.8,9.8,0,0,0,.1,1.33v.47a7.94,7.94,0,0,0,8,8.2H488.64l14.19,17.77h27.89L579,403.39a79.57,79.57,0,0,0,17.12-49.45C596.12,352.83,596.09,351.73,596,350.63Z"/><path class="cls-4" d="M139.7,174.2H452.8a10,10,0,0,1,10,10V384.7a10,10,0,0,1-10,10H139.7a10,10,0,0,1-10-10V184.2A10,10,0,0,1,139.7,174.2Z"/><path class="cls-5" d="M137.8,394.7H298.7L406.9,174.2h-269a8.07,8.07,0,0,0-8.1,8.1h0V386.5A7.94,7.94,0,0,0,137.8,394.7Z"/><rect class="cls-6" x="161.9" y="282.1" width="124.5" height="29.3"/><rect class="cls-6" x="159.5" y="331.5" width="271.8" height="29.3"/><path class="cls-7" d="M267,208.7l-12,22.8a.78.78,0,0,1-1,.3l-.3-.3-12-22.8a.82.82,0,0,0-.6-.4h-5.8a.47.47,0,0,0-.5.5c0,.1,0,.2.1.2l18.9,35.3a.69.69,0,0,0,.9.3l.3-.3L273.9,209a.57.57,0,0,0-.2-.7c-.1,0-.2-.1-.3-.1h-5.8a1,1,0,0,0-.6.5"/><path class="cls-7" d="M273.8,239.2l12-22.8a.78.78,0,0,1,1-.3l.3.3,12,22.8a.82.82,0,0,0,.6.4h5.8a.47.47,0,0,0,.5-.5c0-.1,0-.2-.1-.2L287,203.6a.69.69,0,0,0-.9-.3l-.3.3L267,238.8a.57.57,0,0,0,.2.7c.1,0,.1.1.2.1h5.8a.92.92,0,0,0,.6-.4"/><path class="cls-7" d="M184.2,239.5H173.4a.68.68,0,0,1-.7-.7h0v-9.7a.68.68,0,0,1,.7-.7h10.8c5.1,0,7.4,1.5,7.4,5.5s-2.2,5.6-7.4,5.6m-10.8-25.9H184c3.9,0,5.9,1.7,5.9,4.8s-2,4.8-5.9,4.8H173.4a.68.68,0,0,1-.7-.7h0v-8.2a.68.68,0,0,1,.7-.7h0m18.5,11.6a8,8,0,0,0,4.1-7.3c0-5.7-4.4-9.5-10.7-9.5h-18a.68.68,0,0,0-.7.7h0v35.1a.68.68,0,0,0,.7.7h17.2c8.6,0,13.1-3.7,13.1-10.9s-5.7-8.8-5.7-8.8"/><path class="cls-7" d="M221,239.5H210.2a.68.68,0,0,1-.7-.7v-9.7a.68.68,0,0,1,.7-.7H221c5.1,0,7.4,1.5,7.4,5.5s-2.2,5.6-7.4,5.6m-10.8-25.9h10.6c3.9,0,5.9,1.7,5.9,4.8s-2,4.8-5.9,4.8H210.2a.68.68,0,0,1-.7-.7v-8.2a.68.68,0,0,1,.7-.7h0m18.6,11.6a8,8,0,0,0,4.1-7.3c0-5.7-4.4-9.5-10.7-9.5h-18a.68.68,0,0,0-.7.7h0v35.1a.68.68,0,0,0,.7.7h17.2c8.6,0,13.1-3.7,13.1-10.9s-5.7-8.8-5.7-8.8"/><path class="cls-8" d="M483.78,455.48H449.72a3.58,3.58,0,0,1-3.58-3.58V429.72h41.22v22.19A3.59,3.59,0,0,1,483.78,455.48Z"/><path class="cls-9" d="M546.12,299.94a80.37,80.37,0,1,0-143.6,49.45h0l50.38,63.08h27.82L529,349.39h0A79.57,79.57,0,0,0,546.12,299.94Z"/><path class="cls-10" d="M546.12,299.94a80.06,80.06,0,0,0-38.35-68.33L425,377.63l27.83,34.84h27.82L529,349.39h0A79.57,79.57,0,0,0,546.12,299.94Z"/><path class="cls-11" d="M473.24,429.73l-13.85,25.76h24.39a3.6,3.6,0,0,0,3.58-3.58V429.73Z"/></g></svg>