<svg xmlns="http://www.w3.org/2000/svg" xmlns:xlink="http://www.w3.org/1999/xlink" viewBox="0 0 600 600"><defs><style>.cls-1{fill:none;}.cls-2{fill:url(#Degradado_sin_nombre_73);}.cls-3{fill:#2dcccd;}.cls-4{fill:#028484;}.cls-5{fill:#d4edfc;}.cls-6{fill:url(#Degradado_sin_nombre_18);}.cls-7{fill:url(#Degradado_sin_nombre_18-2);}.cls-8{fill:#004481;}.cls-9{fill:#4ea6e3;}.cls-10,.cls-11,.cls-12,.cls-13,.cls-14{opacity:0.5;isolation:isolate;}.cls-10{fill:url(#Degradado_sin_nombre_17);}.cls-11{fill:url(#Degradado_sin_nombre_17-2);}.cls-12{fill:url(#Degradado_sin_nombre_17-3);}.cls-13{fill:url(#Degradado_sin_nombre_17-4);}.cls-14{fill:url(#Degradado_sin_nombre_17-5);}.cls-15{fill:#043263;}</style><linearGradient id="Degradado_sin_nombre_73" x1="259.41" y1="-5057.68" x2="449.01" y2="-5414.25" gradientTransform="matrix(1, 0, 0, -1, 0, -4848)" gradientUnits="userSpaceOnUse"><stop offset="0" stop-color="#192647" stop-opacity="0.5"/><stop offset="1" stop-color="#192647" stop-opacity="0"/></linearGradient><linearGradient id="Degradado_sin_nombre_18" x1="196" y1="-5210.79" x2="54.96" y2="-5210.79" gradientTransform="matrix(1, 0, 0, -1, 0, -4848)" gradientUnits="userSpaceOnUse"><stop offset="0" stop-color="#043263" stop-opacity="0.2"/><stop offset="1" stop-color="#043263" stop-opacity="0"/></linearGradient><linearGradient id="Degradado_sin_nombre_18-2" x1="337" y1="-5210.79" x2="195.97" y2="-5210.79" xlink:href="#Degradado_sin_nombre_18"/><linearGradient id="Degradado_sin_nombre_17" x1="387.21" y1="-5046.46" x2="448.82" y2="-5108.08" gradientTransform="matrix(1, 0, 0, -1, 0, -4848)" gradientUnits="userSpaceOnUse"><stop offset="0" stop-color="#fff" stop-opacity="0.5"/><stop offset="1" stop-color="#e7f6f7" stop-opacity="0.2"/><stop offset="1" stop-color="#fff" stop-opacity="0"/></linearGradient><linearGradient id="Degradado_sin_nombre_17-2" x1="383.25" y1="-5088.61" x2="436.97" y2="-5142.32" xlink:href="#Degradado_sin_nombre_17"/><linearGradient id="Degradado_sin_nombre_17-3" x1="379.3" y1="-5130.79" x2="425.11" y2="-5176.59" xlink:href="#Degradado_sin_nombre_17"/><linearGradient id="Degradado_sin_nombre_17-4" x1="375.4" y1="-5172.91" x2="413.29" y2="-5210.79" xlink:href="#Degradado_sin_nombre_17"/><linearGradient id="Degradado_sin_nombre_17-5" x1="371.39" y1="-5215.05" x2="401.38" y2="-5245.04" xlink:href="#Degradado_sin_nombre_17"/></defs><title>8</title><g id="Cuadrados_Blancos" data-name="Cuadrados Blancos"><rect class="cls-1" width="600" height="600"/></g><g id="Capa_10" data-name="Capa 10"><path class="cls-2" d="M586.88,264.79v-8.87a3.79,3.79,0,0,0-3.78-3.79H392.87a3.79,3.79,0,0,0-3.78,3.79v8.87h6.78V394.07a3.23,3.23,0,0,0-.1-.82,3.57,3.57,0,0,0-1.31-2l-52.25-39.19h.12l-6.25-95.66a3.79,3.79,0,0,0-3.78-3.54H318.4a3.79,3.79,0,0,0-3.78,3.54L310,327.87l-49.48-37.11a3.53,3.53,0,0,0-5.64,2.82V394.07a3.75,3.75,0,0,0-.09-.82,3.51,3.51,0,0,0-1.32-2l-52.25-39.19h1.9l-6.25-95.66a3.78,3.78,0,0,0-3.77-3.54h-14a3.78,3.78,0,0,0-3.77,3.54l-4.76,72.74-51.17-38.38a3.53,3.53,0,0,0-5.65,2.82v186.7h-3.36a3.79,3.79,0,0,0-3.79,3.79h0v8.87H586.88v-8.87a3.79,3.79,0,0,0-3.78-3.79h-3.25V264.79Z"/><path class="cls-3" d="M273.7,189.8H259.34a3.54,3.54,0,0,0-3.53,3.31L249.55,289H283.5l-6.26-95.9A3.54,3.54,0,0,0,273.7,189.8Z"/><polygon class="cls-4" points="254.91 206.9 278.14 206.9 277.58 198.35 255.47 198.35 254.91 206.9"/><path class="cls-3" d="M134.45,189.8H120.09a3.54,3.54,0,0,0-3.53,3.31L110.29,289l34,2L138,193.11A3.54,3.54,0,0,0,134.45,189.8Z"/><path class="cls-5" d="M196,429.88H55V230.53a3.52,3.52,0,0,1,5.64-2.82l134,100.49A3.55,3.55,0,0,1,196,331Z"/><path class="cls-6" d="M194.6,328.2l-43.33-32.5L80.19,429.88H196V331A3.55,3.55,0,0,0,194.6,328.2Z"/><path class="cls-5" d="M337,429.88H196V230.53a3.52,3.52,0,0,1,5.64-2.82l134,100.49A3.5,3.5,0,0,1,337,331Z"/><path class="cls-7" d="M335.63,328.2l-43.32-32.5L221.23,429.88H337V331A3.49,3.49,0,0,0,335.63,328.2Z"/><rect class="cls-8" x="334.04" y="201.73" width="183.98" height="228.15"/><rect class="cls-9" x="359.3" y="223.59" width="133.46" height="15.82" rx="4.75"/><path class="cls-10" d="M478.4,223.59H364.05a4.75,4.75,0,0,0-4.75,4.74v6.33a4.75,4.75,0,0,0,4.75,4.74H469.51Z"/><rect class="cls-9" x="359.3" y="261.78" width="133.46" height="15.82" rx="4.75"/><path class="cls-11" d="M462.58,261.78H364.05a4.75,4.75,0,0,0-4.75,4.75v6.32a4.75,4.75,0,0,0,4.75,4.75h89.64Z"/><rect class="cls-9" x="359.3" y="299.97" width="133.46" height="15.82" rx="4.75"/><path class="cls-12" d="M446.76,300H364.05a4.75,4.75,0,0,0-4.75,4.75h0v6.33a4.75,4.75,0,0,0,4.75,4.74h73.83Z"/><rect class="cls-9" x="359.3" y="338.17" width="133.46" height="15.82" rx="3.78"/><path class="cls-13" d="M431,338.17H364.1a4.75,4.75,0,0,0-4.75,4.74v6.33A4.75,4.75,0,0,0,364.1,354h58Z"/><rect class="cls-9" x="359.3" y="376.36" width="133.46" height="15.82" rx="3.78"/><path class="cls-14" d="M415.13,376.36H364.05a4.75,4.75,0,0,0-4.75,4.75v6.32a4.75,4.75,0,0,0,4.75,4.75h42.19Z"/><path class="cls-15" d="M331,189.08H521.27a3.78,3.78,0,0,1,3.78,3.78h0v8.87H327.26v-8.87A3.78,3.78,0,0,1,331,189.08Z"/><polygon class="cls-4" points="115.66 206.9 138.88 206.9 138.32 198.35 116.21 198.35 115.66 206.9"/><path class="cls-3" d="M49.6,417.23H522.27a3.78,3.78,0,0,1,3.78,3.78h0v8.87H45.82V421A3.79,3.79,0,0,1,49.6,417.23Z"/></g></svg>