<svg id="Contenido" xmlns="http://www.w3.org/2000/svg" xmlns:xlink="http://www.w3.org/1999/xlink" viewBox="0 0 600 600"><defs><style>.cls-1,.cls-2{fill:none;}.cls-2{clip-rule:evenodd;}.cls-3{fill:url(#Degradado_sin_nombre_7);}.cls-4{clip-path:url(#clip-path);}.cls-5{clip-path:url(#clip-path-2);}.cls-6{clip-path:url(#clip-path-3);}.cls-7{clip-path:url(#clip-path-4);}.cls-8{clip-path:url(#clip-path-5);}.cls-9{clip-path:url(#clip-path-6);}.cls-10{clip-path:url(#clip-path-7);}.cls-11{clip-path:url(#clip-path-8);}.cls-12{clip-path:url(#clip-path-9);}.cls-13{clip-path:url(#clip-path-10);}.cls-14{clip-path:url(#clip-path-11);}.cls-15{clip-path:url(#clip-path-12);}.cls-16{clip-path:url(#clip-path-13);}.cls-17{clip-path:url(#clip-path-14);}.cls-18{clip-path:url(#clip-path-15);}.cls-19{clip-path:url(#clip-path-16);}.cls-20{clip-path:url(#clip-path-17);}.cls-21{clip-path:url(#clip-path-18);}.cls-22{clip-path:url(#clip-path-19);}.cls-23{clip-path:url(#clip-path-20);}.cls-24{clip-path:url(#clip-path-21);}.cls-25{clip-path:url(#clip-path-22);}.cls-26{clip-path:url(#clip-path-23);}.cls-27{clip-path:url(#clip-path-24);}.cls-28{clip-path:url(#clip-path-25);}.cls-29{clip-path:url(#clip-path-26);}.cls-30{fill:#2dcccd;}.cls-31{fill:#028484;}.cls-32{fill:#d4edfc;}.cls-33{fill:url(#Degradado_sin_nombre_32);}.cls-34{fill:url(#Degradado_sin_nombre_32-2);}.cls-35{fill:#1464a5;}.cls-36{fill:#4ea6e3;}.cls-37,.cls-38,.cls-39,.cls-40,.cls-41{opacity:0.5;}.cls-37{fill:url(#Degradado_sin_nombre_3);}.cls-38{fill:url(#Degradado_sin_nombre_3-2);}.cls-39{fill:url(#Degradado_sin_nombre_3-3);}.cls-40{fill:url(#Degradado_sin_nombre_3-4);}.cls-41{fill:url(#Degradado_sin_nombre_3-5);}.cls-42{fill:#043263;}</style><linearGradient id="Degradado_sin_nombre_7" x1="259.41" y1="209.67" x2="449.01" y2="566.25" gradientUnits="userSpaceOnUse"><stop offset="0" stop-color="#192647"/><stop offset="0" stop-color="#192647" stop-opacity="0.5"/><stop offset="1" stop-color="#192647" stop-opacity="0"/></linearGradient><clipPath id="clip-path"><rect class="cls-1" x="-2452" y="628.73" width="104" height="104"/></clipPath><clipPath id="clip-path-2"><path class="cls-2" d="M-2400.18,734.91h-.79a2.25,2.25,0,0,1-2.46-1.92V690.87A2.25,2.25,0,0,1-2401,689h.79a2.23,2.23,0,0,1,2.44,1.92V733a2.23,2.23,0,0,1-2.44,1.92"/></clipPath><clipPath id="clip-path-3"><path class="cls-2" d="M-2403.42,725.71s-10.43,3.1-18.69-1.43-11.25-15-11.25-15,10.42-3.11,18.69,1.43,11.25,15,11.25,15"/></clipPath><clipPath id="clip-path-4"><path class="cls-2" d="M-2370.95,696.15s0,14-8.61,22.51-22.6,8.38-22.6,8.38,0-14,8.61-22.51,22.6-8.38,22.6-8.38"/></clipPath><clipPath id="clip-path-5"><polygon class="cls-2" points="327.96 624.17 325.1 667.74 344.64 667.74 341.78 624.17 327.96 624.17"/></clipPath><clipPath id="clip-path-6"><polygon class="cls-2" points="327.31 633.97 326.99 639 342.75 639 342.42 633.97 327.31 633.97"/></clipPath><clipPath id="clip-path-7"><polygon class="cls-2" points="326.56 645.42 326.23 650.45 343.5 650.45 343.18 645.42 326.56 645.42"/></clipPath><clipPath id="clip-path-8"><polygon class="cls-2" points="325.81 656.87 325.48 661.9 344.26 661.9 343.93 656.87 325.81 656.87"/></clipPath><clipPath id="clip-path-9"><rect class="cls-1" x="248.74" y="671.1" width="103.41" height="55.79"/></clipPath><clipPath id="clip-path-10"><rect class="cls-1" x="320.57" y="674.44" width="22.71" height="9.74"/></clipPath><clipPath id="clip-path-11"><rect class="cls-1" x="319.51" y="683.72" width="24.67" height="1.9"/></clipPath><clipPath id="clip-path-12"><rect class="cls-1" x="248.73" y="713.23" width="103.41" height="13"/></clipPath><clipPath id="clip-path-13"><polygon class="cls-2" points="274.98 670.33 352.14 671.09 352.14 726.89 274.98 727.01 274.98 670.33"/></clipPath><clipPath id="clip-path-14"><rect class="cls-1" x="257.6" y="674.44" width="22.71" height="9.74"/></clipPath><clipPath id="clip-path-15"><rect class="cls-1" x="289.08" y="674.44" width="22.71" height="9.74"/></clipPath><clipPath id="clip-path-16"><path class="cls-2" d="M326.89,628.37a2.13,2.13,0,0,1,0-4.2h16a2.13,2.13,0,0,1,0,4.2Z"/></clipPath><clipPath id="clip-path-17"><rect class="cls-1" x="273.26" y="692.18" width="51.12" height="34.71"/></clipPath><clipPath id="clip-path-18"><rect class="cls-1" x="244.18" y="661.9" width="111.63" height="9.19"/></clipPath><clipPath id="clip-path-19"><polygon class="cls-2" points="274.59 645.96 248.73 661.9 274.59 661.9 274.59 645.96"/></clipPath><clipPath id="clip-path-20"><polygon class="cls-2" points="300.44 645.96 274.59 661.9 300.44 661.9 300.44 645.96"/></clipPath><clipPath id="clip-path-21"><polygon class="cls-2" points="326.29 645.96 300.44 661.9 326.29 661.9 326.29 645.96"/></clipPath><clipPath id="clip-path-22"><polygon class="cls-2" points="352.14 645.96 326.29 661.9 352.14 661.9 352.14 645.96"/></clipPath><clipPath id="clip-path-23"><rect class="cls-1" x="273.26" y="692.12" width="54.36" height="4.12"/></clipPath><clipPath id="clip-path-24"><rect class="cls-1" x="256.7" y="683.72" width="24.67" height="1.9"/></clipPath><clipPath id="clip-path-25"><rect class="cls-1" x="288.1" y="683.72" width="24.67" height="1.9"/></clipPath><clipPath id="clip-path-26"><rect class="cls-1" x="272.27" y="691.13" width="52.23" height="36.4"/></clipPath><linearGradient id="Degradado_sin_nombre_32" x1="196.01" y1="362.79" x2="54.97" y2="362.79" gradientUnits="userSpaceOnUse"><stop offset="0" stop-color="#043263" stop-opacity="0.2"/><stop offset="1" stop-color="#043263" stop-opacity="0"/></linearGradient><linearGradient id="Degradado_sin_nombre_32-2" x1="337.04" y1="362.79" x2="196.01" y2="362.79" xlink:href="#Degradado_sin_nombre_32"/><linearGradient id="Degradado_sin_nombre_3" x1="387.21" y1="198.46" x2="448.83" y2="260.09" gradientUnits="userSpaceOnUse"><stop offset="0" stop-color="#fff" stop-opacity="0.5"/><stop offset="1" stop-color="#e7f6f7" stop-opacity="0.2"/><stop offset="1" stop-color="#fff" stop-opacity="0"/></linearGradient><linearGradient id="Degradado_sin_nombre_3-2" x1="383.25" y1="240.61" x2="436.97" y2="294.33" xlink:href="#Degradado_sin_nombre_3"/><linearGradient id="Degradado_sin_nombre_3-3" x1="379.3" y1="282.76" x2="425.1" y2="328.56" xlink:href="#Degradado_sin_nombre_3"/><linearGradient id="Degradado_sin_nombre_3-4" x1="375.35" y1="324.91" x2="413.24" y2="362.8" xlink:href="#Degradado_sin_nombre_3"/><linearGradient id="Degradado_sin_nombre_3-5" x1="371.39" y1="367.05" x2="401.38" y2="397.04" xlink:href="#Degradado_sin_nombre_3"/></defs><title>servicios</title><path class="cls-3" d="M586.88,264.79v-8.87a3.79,3.79,0,0,0-3.78-3.79H392.87a3.79,3.79,0,0,0-3.78,3.79v8.87h6.78V394.07a3.23,3.23,0,0,0-.1-.82,3.55,3.55,0,0,0-1.31-2l-52.25-39.19h.12l-6.25-95.66a3.79,3.79,0,0,0-3.78-3.54H318.4a3.79,3.79,0,0,0-3.78,3.54L310,327.87l-49.48-37.11a3.53,3.53,0,0,0-5.64,2.82V394.07a3.75,3.75,0,0,0-.09-.82,3.52,3.52,0,0,0-1.32-2l-52.25-39.19h1.9l-6.25-95.66a3.78,3.78,0,0,0-3.77-3.54H179.14a3.78,3.78,0,0,0-3.77,3.54l-4.76,72.74-51.17-38.38a3.53,3.53,0,0,0-5.65,2.82v186.7h-3.36a3.79,3.79,0,0,0-3.79,3.79v8.87H586.88v-8.87a3.79,3.79,0,0,0-3.78-3.79h-3.25V264.79Z"/><path class="cls-30" d="M273.7,189.8H259.34a3.54,3.54,0,0,0-3.53,3.31L249.55,289H283.5l-6.26-95.9A3.54,3.54,0,0,0,273.7,189.8Z"/><polygon class="cls-31" points="254.91 206.9 278.14 206.9 277.58 198.35 255.47 198.35 254.91 206.9"/><path class="cls-30" d="M134.45,189.8H120.09a3.54,3.54,0,0,0-3.53,3.31L110.29,289h34L138,193.11A3.54,3.54,0,0,0,134.45,189.8Z"/><path class="cls-32" d="M196,429.88H55V230.53a3.52,3.52,0,0,1,5.64-2.82l134,100.49A3.54,3.54,0,0,1,196,331Z"/><path class="cls-33" d="M194.6,328.2l-43.33-32.5L80.19,429.88H196V331A3.54,3.54,0,0,0,194.6,328.2Z"/><path class="cls-32" d="M337,429.88H196V230.53a3.52,3.52,0,0,1,5.64-2.82l134,100.49A3.51,3.51,0,0,1,337,331Z"/><path class="cls-34" d="M335.63,328.2l-43.32-32.5L221.23,429.88H337V331A3.51,3.51,0,0,0,335.63,328.2Z"/><rect class="cls-35" x="334.04" y="201.73" width="183.98" height="228.15"/><rect class="cls-36" x="359.3" y="223.59" width="133.46" height="15.82" rx="4.75"/><path class="cls-37" d="M478.4,223.59H364.05a4.75,4.75,0,0,0-4.75,4.74v6.33a4.75,4.75,0,0,0,4.75,4.74H469.51Z"/><rect class="cls-36" x="359.3" y="261.78" width="133.46" height="15.82" rx="4.75"/><path class="cls-38" d="M462.58,261.78H364.05a4.75,4.75,0,0,0-4.75,4.75v6.32a4.75,4.75,0,0,0,4.75,4.75h89.64Z"/><rect class="cls-36" x="359.3" y="299.97" width="133.46" height="15.82" rx="4.75"/><path class="cls-39" d="M446.76,300H364.05a4.75,4.75,0,0,0-4.75,4.75v6.33a4.75,4.75,0,0,0,4.75,4.74h73.83Z"/><rect class="cls-36" x="359.3" y="338.17" width="133.46" height="15.82" rx="3.78"/><path class="cls-40" d="M431,338.17h-66.9a4.75,4.75,0,0,0-4.75,4.74v6.33a4.75,4.75,0,0,0,4.75,4.74h58Z"/><rect class="cls-36" x="359.3" y="376.36" width="133.46" height="15.82" rx="3.78"/><path class="cls-41" d="M415.13,376.36H364.05a4.75,4.75,0,0,0-4.75,4.75v6.32a4.75,4.75,0,0,0,4.75,4.75h42.19Z"/><path class="cls-42" d="M331,189.08H521.27a3.78,3.78,0,0,1,3.78,3.78v8.87a0,0,0,0,1,0,0H327.26a0,0,0,0,1,0,0v-8.87A3.78,3.78,0,0,1,331,189.08Z"/><polygon class="cls-31" points="115.66 206.9 138.88 206.9 138.32 198.35 116.21 198.35 115.66 206.9"/><path class="cls-30" d="M49.6,417.23H522.27a3.78,3.78,0,0,1,3.78,3.78v8.87a0,0,0,0,1,0,0H45.82a0,0,0,0,1,0,0V421A3.78,3.78,0,0,1,49.6,417.23Z"/></svg>