<svg xmlns="http://www.w3.org/2000/svg" xmlns:xlink="http://www.w3.org/1999/xlink" viewBox="0 0 600 600"><defs><style>.cls-1{fill:none;}.cls-2{fill:url(#Degradado_sin_nombre_48);}.cls-3{fill:#043263;}.cls-4{fill:#49a5e6;}.cls-5{opacity:0.5;isolation:isolate;fill:url(#Degradado_sin_nombre_16);}.cls-6{fill:#1464a5;}.cls-7{fill:url(#Degradado_sin_nombre_15);}.cls-8{fill:#004481;}.cls-9{fill:url(#Degradado_sin_nombre_14);}.cls-10{fill:url(#Degradado_sin_nombre_14-2);}.cls-11{fill:url(#Degradado_sin_nombre_14-3);}.cls-12{fill:url(#Degradado_sin_nombre_14-4);}.cls-13{fill:url(#Degradado_sin_nombre_14-5);}.cls-14{fill:#d4edfc;}.cls-15{fill:#da3951;}.cls-16{fill:#fff;}</style><linearGradient id="Degradado_sin_nombre_48" x1="247.58" y1="5139.91" x2="460.72" y2="4739.04" gradientTransform="matrix(1, 0, 0, -1, 0, 5292)" gradientUnits="userSpaceOnUse"><stop offset="0.01" stop-color="#192647" stop-opacity="0.5"/><stop offset="1" stop-color="#192647" stop-opacity="0"/></linearGradient><linearGradient id="Degradado_sin_nombre_16" x1="215.96" y1="5076.24" x2="370.22" y2="4921.98" gradientTransform="matrix(1, 0, 0, -1, 0, 5292)" gradientUnits="userSpaceOnUse"><stop offset="0" stop-color="#fff" stop-opacity="0.5"/><stop offset="1" stop-color="#ecf7f8" stop-opacity="0.1"/></linearGradient><linearGradient id="Degradado_sin_nombre_15" x1="360.99" y1="220.68" x2="287.86" y2="220.68" gradientTransform="translate(0 2)" gradientUnits="userSpaceOnUse"><stop offset="0.01" stop-color="#043263" stop-opacity="0.5"/><stop offset="1" stop-color="#043263" stop-opacity="0"/></linearGradient><linearGradient id="Degradado_sin_nombre_14" x1="257.18" y1="253.33" x2="247.62" y2="253.33" gradientTransform="translate(0 2)" gradientUnits="userSpaceOnUse"><stop offset="0.01" stop-color="#043263" stop-opacity="0.8"/><stop offset="1" stop-color="#043263" stop-opacity="0"/></linearGradient><linearGradient id="Degradado_sin_nombre_14-2" x1="280.57" y1="251.66" x2="271.7" y2="251.66" xlink:href="#Degradado_sin_nombre_14"/><linearGradient id="Degradado_sin_nombre_14-3" x1="304.11" y1="251.05" x2="295.84" y2="251.05" xlink:href="#Degradado_sin_nombre_14"/><linearGradient id="Degradado_sin_nombre_14-4" x1="328.23" y1="251.66" x2="319.36" y2="251.66" xlink:href="#Degradado_sin_nombre_14"/><linearGradient id="Degradado_sin_nombre_14-5" x1="352.32" y1="253.31" x2="342.75" y2="253.31" xlink:href="#Degradado_sin_nombre_14"/></defs><title>6</title><g id="Cuadrados_Blancos" data-name="Cuadrados Blancos"><rect class="cls-1" width="600" height="600"/></g><g id="Capa_9" data-name="Capa 9"><path class="cls-2" d="M261.1,147.85H447.2a22.32,22.32,0,0,1,22.3,22.31V534.89a22.32,22.32,0,0,1-22.3,22.31H261.1a22.32,22.32,0,0,1-22.3-22.31V170.16A22.32,22.32,0,0,1,261.1,147.85Z"/><path class="cls-3" d="M207.5,96.85H392.4A22.13,22.13,0,0,1,414.5,119v362a22.12,22.12,0,0,1-22.1,22.1H207.5a22.12,22.12,0,0,1-22.1-22.1v-362a22.13,22.13,0,0,1,22.06-22.2Z"/><rect class="cls-4" x="185.4" y="147.85" width="229.2" height="304.3"/><polygon class="cls-5" points="185.7 148.05 185.7 451.95 302.5 452.15 414.5 245.15 414.5 147.85 185.7 148.05"/><path class="cls-6" d="M360.67,251.57A50.1,50.1,0,0,0,361,246c0-30.13-26.82-54.55-59.89-54.55s-59.9,24.4-59.9,54.55a50.1,50.1,0,0,0,.32,5.61Z"/><path class="cls-7" d="M361,246c0-24.58-17.85-45.36-42.39-52.18l-30.74,57.79h72.81A50.1,50.1,0,0,0,361,246Z"/><path class="cls-8" d="M364.88,267.05a527.27,527.27,0,0,0-129.85,0,1.21,1.21,0,0,1-1.34-1L232,252.61a9.22,9.22,0,0,1,8-10.3h.16a551.13,551.13,0,0,1,119.62,0,9.22,9.22,0,0,1,8.17,10.16v.16l-1.71,13.42a1.19,1.19,0,0,1-1.33,1Z"/><path class="cls-9" d="M257.18,264.79c-2.67.22-5.33.46-8,.72l-1.55-15.95a4.07,4.07,0,0,1,3.73-4.38h0a4.07,4.07,0,0,1,4.5,3.57v.05Z"/><path class="cls-10" d="M280.57,263.39c-2.67.1-5.33.22-8,.36l-.83-16a4.06,4.06,0,0,1,3.94-4.18h0a4.06,4.06,0,0,1,4.31,3.79h0Z"/><path class="cls-11" d="M304,263.05h-8l-.12-16a4.07,4.07,0,0,1,4.12-4h0a4.06,4.06,0,0,1,4.13,4h0Z"/><path class="cls-12" d="M327.39,263.75c-2.67-.14-5.33-.26-8-.36l.59-16a4.06,4.06,0,0,1,4.3-3.81h0a4.06,4.06,0,0,1,4,4.12v0h0Z"/><path class="cls-13" d="M350.76,265.49c-2.67-.27-5.34-.5-8-.71l1.29-16a4.07,4.07,0,0,1,4.45-3.63h0a4.07,4.07,0,0,1,3.77,4.34h0Z"/><path class="cls-3" d="M353.14,273.48a354.35,354.35,0,0,0-106.35,0,1.26,1.26,0,0,0-.82,1.57l0,.1q2.2,6.3,4.33,12.61a26.3,26.3,0,0,0,4.2,8h0a25.06,25.06,0,0,0,7.65,6.54h0c8.74,4.73,18.74,2.76,25.86-5.1,1.17-1.3,2.36-2.6,3.55-3.89a20.85,20.85,0,0,1,4.51-3.7h0a7.23,7.23,0,0,1,7.65,0h0a20.85,20.85,0,0,1,4.51,3.7c1.19,1.29,2.38,2.59,3.55,3.89,7.12,7.86,17.12,9.83,25.86,5.1h0a25.06,25.06,0,0,0,7.65-6.54h0a26.87,26.87,0,0,0,4.2-8q2.13-6.31,4.33-12.61a1.23,1.23,0,0,0-.61-1.63Z"/><path class="cls-14" d="M269.28,292.67a10.33,10.33,0,0,0,12.48-5.4,1.21,1.21,0,0,0-.58-1.6l-.14-.06a58.16,58.16,0,0,1-17.2-5.52,1.18,1.18,0,0,0-1.5.75V281A10.32,10.32,0,0,0,269.28,292.67Z"/><path class="cls-14" d="M330.65,292.67a10.33,10.33,0,0,1-12.48-5.4,1.21,1.21,0,0,1,.58-1.6l.15-.06a58.18,58.18,0,0,0,17.19-5.56,1.21,1.21,0,0,1,1.52.77V281A10.32,10.32,0,0,1,330.65,292.67Z"/><path class="cls-15" d="M341.58,373.14A41.63,41.63,0,1,1,300,331.51h0A41.64,41.64,0,0,1,341.58,373.14Z"/><path class="cls-16" d="M305.24,373.14l12.52-12.46a3.74,3.74,0,1,0-5.29-5.29L300,367.85,287.5,355.33a3.74,3.74,0,0,0-5.29,5.29h0l12.46,12.52L282.15,385.6a3.69,3.69,0,0,0-.07,5.22l.07.07a3.74,3.74,0,0,0,5.28,0v0L300,378.43,312.42,391a3.74,3.74,0,0,0,5.33-5.26l0,0Z"/></g></svg>