<svg id="Contenido" xmlns="http://www.w3.org/2000/svg" xmlns:xlink="http://www.w3.org/1999/xlink" viewBox="0 0 600 600"><defs><style>.cls-1{fill:url(#Degradado_sin_nombre);}.cls-2{fill:#1464a5;}.cls-3{fill:#49a5e6;}.cls-4{fill-rule:evenodd;opacity:0.5;isolation:isolate;fill:url(#Degradado_sin_nombre_2);}.cls-5{fill:url(#Degradado_sin_nombre_4);}.cls-6{fill:#004481;}.cls-7{fill:url(#Degradado_sin_nombre_8);}.cls-8{fill:url(#Degradado_sin_nombre_8-2);}.cls-9{fill:url(#Degradado_sin_nombre_8-3);}.cls-10{fill:url(#Degradado_sin_nombre_8-4);}.cls-11{fill:url(#Degradado_sin_nombre_8-5);}.cls-12{fill:#043263;}.cls-13{fill:#d4edfc;}.cls-14{fill:#da3951;}.cls-15{fill:#fff;}</style><linearGradient id="Degradado_sin_nombre" x1="247.63" y1="628.31" x2="460.67" y2="1028.99" gradientTransform="translate(0 -478)" gradientUnits="userSpaceOnUse"><stop offset="0" stop-color="#192647"/><stop offset="0" stop-color="#192647" stop-opacity="0.5"/><stop offset="1" stop-color="#192647" stop-opacity="0"/></linearGradient><linearGradient id="Degradado_sin_nombre_2" x1="215.46" y1="692.71" x2="369.72" y2="846.97" gradientTransform="translate(0 -478)" gradientUnits="userSpaceOnUse"><stop offset="0" stop-color="#fff" stop-opacity="0.5"/><stop offset="1" stop-color="#ecf7f8" stop-opacity="0.1"/></linearGradient><linearGradient id="Degradado_sin_nombre_4" x1="360.49" y1="380.38" x2="287.36" y2="380.38" gradientTransform="matrix(1, 0, 0, -1, 0, 602)" gradientUnits="userSpaceOnUse"><stop offset="0.01" stop-color="#043263" stop-opacity="0.5"/><stop offset="1" stop-color="#043263" stop-opacity="0"/></linearGradient><linearGradient id="Degradado_sin_nombre_8" x1="256.68" y1="347.72" x2="247.11" y2="347.72" gradientTransform="matrix(1, 0, 0, -1, 0, 602)" gradientUnits="userSpaceOnUse"><stop offset="0.01" stop-color="#043263" stop-opacity="0.8"/><stop offset="1" stop-color="#043263" stop-opacity="0"/></linearGradient><linearGradient id="Degradado_sin_nombre_8-2" x1="280.07" y1="349.4" x2="271.2" y2="349.4" xlink:href="#Degradado_sin_nombre_8"/><linearGradient id="Degradado_sin_nombre_8-3" x1="303.61" y1="350.01" x2="295.34" y2="350.01" xlink:href="#Degradado_sin_nombre_8"/><linearGradient id="Degradado_sin_nombre_8-4" x1="327.73" y1="349.4" x2="318.86" y2="349.4" xlink:href="#Degradado_sin_nombre_8"/><linearGradient id="Degradado_sin_nombre_8-5" x1="351.82" y1="347.74" x2="342.25" y2="347.74" xlink:href="#Degradado_sin_nombre_8"/></defs><title>dispositivo-alterado</title><path class="cls-1" d="M261.1,146.1H447.2a22.32,22.32,0,0,1,22.3,22.3V532.9a22.32,22.32,0,0,1-22.3,22.3H261.1a22.32,22.32,0,0,1-22.3-22.3V168.4A22.32,22.32,0,0,1,261.1,146.1Z"/><path class="cls-2" d="M207,95.8H391.9A22.13,22.13,0,0,1,414,118V480a22.11,22.11,0,0,1-22.1,22.1H207A22.11,22.11,0,0,1,184.9,480V118A22.13,22.13,0,0,1,207,95.8Z"/><rect class="cls-3" x="184.9" y="146.8" width="229.2" height="304.3"/><polygon class="cls-4" points="185.2 147 185.2 450.9 302 451.1 414 244.1 414 146.8 185.2 147"/><path class="cls-2" d="M360.17,250.52a50,50,0,0,0,.32-5.61c0-30.13-26.82-54.55-59.89-54.55s-59.9,24.4-59.9,54.55a50,50,0,0,0,.32,5.61Z"/><path class="cls-5" d="M360.49,244.91c0-24.58-17.85-45.36-42.39-52.18l-30.74,57.79h72.81A50,50,0,0,0,360.49,244.91Z"/><path class="cls-6" d="M364.38,266a527.27,527.27,0,0,0-129.85,0,1.21,1.21,0,0,1-1.34-1l-1.7-13.44a9.22,9.22,0,0,1,8-10.3l.16,0a551.13,551.13,0,0,1,119.62,0,9.22,9.22,0,0,1,8.17,10.16.88.88,0,0,0,0,.16L365.73,265A1.2,1.2,0,0,1,364.4,266Z"/><path class="cls-7" d="M256.68,263.74q-4,.33-8,.72l-1.55-15.95a4.07,4.07,0,0,1,3.73-4.38h0a4.07,4.07,0,0,1,4.5,3.57v.05Z"/><path class="cls-8" d="M280.07,262.34q-4,.15-8,.36l-.83-16a4.06,4.06,0,0,1,3.94-4.18h0a4.06,4.06,0,0,1,4.31,3.8v0Z"/><path class="cls-9" d="M303.47,262q-4,0-8,0l-.12-16a4.07,4.07,0,0,1,4.12-4h0a4.06,4.06,0,0,1,4.13,4v0Z"/><path class="cls-10" d="M326.89,262.7q-4-.21-8-.36l.59-16a4.06,4.06,0,0,1,4.3-3.81h0a4.06,4.06,0,0,1,4,4.16v0Z"/><path class="cls-11" d="M350.26,264.44c-2.67-.27-5.34-.5-8-.71l1.29-16A4.08,4.08,0,0,1,348,244.1H348a4.07,4.07,0,0,1,3.77,4.34v0Z"/><path class="cls-12" d="M352.64,272.43a354.35,354.35,0,0,0-106.35,0,1.25,1.25,0,0,0-.78,1.67q2.2,6.3,4.33,12.61a26.33,26.33,0,0,0,4.2,8l0,0h0a25.06,25.06,0,0,0,7.65,6.54h0c8.74,4.73,18.74,2.76,25.86-5.1q1.76-1.95,3.55-3.89a20.85,20.85,0,0,1,4.51-3.7h0a7.23,7.23,0,0,1,7.65,0h0a20.85,20.85,0,0,1,4.51,3.7c1.19,1.29,2.38,2.59,3.55,3.89,7.12,7.86,17.12,9.83,25.86,5.1h0a25.06,25.06,0,0,0,7.65-6.54h0l0,0a26.78,26.78,0,0,0,4.2-8q2.13-6.31,4.33-12.61A1.23,1.23,0,0,0,352.64,272.43Z"/><path class="cls-13" d="M268.78,291.62a10.33,10.33,0,0,0,12.48-5.4,1.21,1.21,0,0,0-.58-1.6l-.14-.06a58.16,58.16,0,0,1-17.2-5.52,1.19,1.19,0,0,0-1.51.77.83.83,0,0,0,0,.15A10.32,10.32,0,0,0,268.78,291.62Z"/><path class="cls-13" d="M330.15,291.62a10.33,10.33,0,0,1-12.48-5.4,1.21,1.21,0,0,1,.58-1.6l.15-.06A58.1,58.1,0,0,0,335.59,279a1.21,1.21,0,0,1,1.52.77c0,.05,0,.1,0,.15A10.32,10.32,0,0,1,330.15,291.62Z"/><path class="cls-14" d="M341.08,372.09a41.63,41.63,0,1,1-41.63-41.63h0a41.64,41.64,0,0,1,41.63,41.63"/><path class="cls-15" d="M304.74,372.09l12.52-12.46a3.74,3.74,0,0,0-5.29-5.29L299.45,366.8,287,354.28a3.74,3.74,0,0,0-5.29,5.29l12.46,12.52-12.52,12.46a3.69,3.69,0,0,0,0,5.29,3.73,3.73,0,0,0,5.29,0l12.52-12.46,12.46,12.53a3.75,3.75,0,0,0,5.29,0,3.72,3.72,0,0,0,0-5.3Z"/></svg>