<svg xmlns="http://www.w3.org/2000/svg" xmlns:xlink="http://www.w3.org/1999/xlink" viewBox="0 0 600 600"><defs><style>.cls-1{fill:none;}.cls-2{fill:url(#Degradado_sin_nombre_33);}.cls-3{fill:#043263;}.cls-4{fill:url(#Degradado_sin_nombre_11);}.cls-5{fill:#2dcccd;}</style><linearGradient id="Degradado_sin_nombre_33" x1="236.04" y1="-1350.12" x2="451.94" y2="-1756.17" gradientTransform="matrix(1, 0, 0, -1, 0, -1214)" gradientUnits="userSpaceOnUse"><stop offset="0" stop-color="#192647" stop-opacity="0.5"/><stop offset="1" stop-color="#192647" stop-opacity="0"/></linearGradient><linearGradient id="Degradado_sin_nombre_11" x1="504.37" y1="311.05" x2="208.75" y2="311.05" gradientTransform="translate(0 2)" gradientUnits="userSpaceOnUse"><stop offset="0" stop-color="#072146" stop-opacity="0.8"/><stop offset="1" stop-color="#072146" stop-opacity="0"/></linearGradient></defs><title>10</title><g id="Cuadrados_Blancos" data-name="Cuadrados Blancos"><rect class="cls-1" width="600" height="600"/></g><g id="Capa_2" data-name="Capa 2"><circle class="cls-2" cx="348.76" cy="348.11" r="201.24"/><circle class="cls-3" cx="301.54" cy="300.89" r="201.24"/><path class="cls-4" d="M397.73,124l-189,355.51c98.68,51.23,220.25,12.63,271.36-86C530.64,296.18,493.93,176.38,397.73,124Z"/><polygon class="cls-5" points="281.6 376.55 281.6 254.63 317.48 254.63 317.48 411.37 316.3 411.37 281.6 376.55"/><path class="cls-5" d="M279.83,212.37a21.78,21.78,0,1,1,21.83,21.95,21.75,21.75,0,0,1-21.83-21.95h0"/></g></svg>