<svg id="Capa_1" data-name="Capa 1" xmlns="http://www.w3.org/2000/svg" xmlns:xlink="http://www.w3.org/1999/xlink" viewBox="0 0 600 600"><defs><style>.cls-1{fill:none;}.cls-2{fill:url(#Degradado_sin_nombre_6);}.cls-3{fill:#004481;}.cls-4{fill:#1464a5;}.cls-5{fill:url(#Degradado_sin_nombre_2);}.cls-6{fill:#0e457f;}.cls-7{fill:#e6cfc1;}.cls-8{fill:#d8bfb2;}.cls-9{clip-path:url(#clip-path);}.cls-10{fill:#d4edfc;}.cls-11{clip-path:url(#clip-path-2);}.cls-12{fill:#49a5e6;}.cls-13{fill:#1973b8;}</style><linearGradient id="Degradado_sin_nombre_6" x1="246.89" y1="6482.46" x2="449.48" y2="6863.48" gradientTransform="translate(0 -6278)" gradientUnits="userSpaceOnUse"><stop offset="0" stop-color="#072146"/><stop offset="0" stop-color="#072146" stop-opacity="0.5"/><stop offset="1" stop-color="#072146" stop-opacity="0"/></linearGradient><linearGradient id="Degradado_sin_nombre_2" x1="407.94" y1="6766.23" x2="188.56" y2="6582.15" gradientTransform="translate(0 -6278)" gradientUnits="userSpaceOnUse"><stop offset="0" stop-color="#004481"/><stop offset="1" stop-color="#004481" stop-opacity="0"/></linearGradient><clipPath id="clip-path"><path class="cls-1" d="M180.81,404.55c7.68,2.26,20.07,7.5,20.07,14.68L195.44,448,379,458.45c-2.62,2.15-8.26,13.14-11.81,13.89L171.84,498.45a21.9,21.9,0,0,1-26-16.83h0l4.37-81.35a48.62,48.62,0,0,1,7.44-.07A107.94,107.94,0,0,1,180.81,404.55Z"/></clipPath><clipPath id="clip-path-2"><path class="cls-1" d="M456.14,462.3l-.67-55c-11.48-9.39-35.79-2.09-58.59,2.15l-3.06,14.26-113.7,10.81a27.73,27.73,0,0,0-27.74,27.7v6.9a27.73,27.73,0,0,0,27.74,27.74H428.41a27.75,27.75,0,0,0,27.73-27.74Z"/></clipPath></defs><g id="Cuadrados_Blancos" data-name="Cuadrados Blancos"><rect class="cls-1" width="600" height="600"/></g><g id="Capa_25" data-name="Capa 25"><path class="cls-2" d="M533.72,425.62a91.48,91.48,0,0,0-4.94-13q-1-2.25-2.31-4.55c-1.25-2.29-2.65-4.59-4.2-6.87q-1.54-2.28-3.3-4.52a81.16,81.16,0,0,0-5.66-6.49,83,83,0,0,0-9.71-8.55c-1.13-.85-2.26-1.68-3.41-2.46-1.52-1-3.06-2-4.59-2.93-2.48-1.48-4.93-2.77-7.32-3.92h0l-.69-.3c-1.74-.83-3.46-1.58-5.12-2.27l-1.83-.81L476.49,367l-2.29-1c-.83-.4-1.92-.89-3.2-1.45l-1-.43c-2.39-1-5.29-2.23-8.37-3.49-8.78-3.58-18.9-7.55-22-8.88h-.43c-.78-.17-1.94-.4-3.37-.72a103.45,103.45,0,0,0,14.8-5.29s-7.07-10.16-2.65-36.66,9.72-59.64.44-96.74S418.79,143,368.88,147s-78.19,51.68-75.54,87.91a153.58,153.58,0,0,0,2.38,17.61c.91,23.83,5.25,31.24,6.24,52.18.76,16.05-7.29,38-7.29,38s14.74-16.56,17.67-29.15c.23-1,.47-2.11.71-3.28a20.34,20.34,0,0,1,.61,3.72c.44,10.16-9.8,34.45-9.8,34.45s4.18,1.41,11.74,3.18c-1.7.44-3.18.81-4.37,1.1l-.59.15a19,19,0,0,0-2.08.6h0a32.75,32.75,0,0,0-3.72,1.42c-9.76,4-18.36,7.92-25.06,11.16l-8.11,3.61c-1.71.67-3.47,1.44-5.27,2.33l-.68.3h0c-2.39,1.15-4.84,2.45-7.32,3.92a85.61,85.61,0,0,0-17.71,13.94A82.26,82.26,0,0,0,227.53,408a88.69,88.69,0,0,0-7.25,17.58c-.82,2.74-3.43,20.3-1.35,34.83-.52,2.63,2.35,6,7.55,9.43l-3.64,67.73a21.9,21.9,0,0,0,26,16.85h0l150.84-20.16,103,17.1a21.88,21.88,0,0,0,26-16.79v0h0l-1.53-64.41c5.44-3.52,8.48-7,7.94-9.69C537.15,445.92,534.54,428.36,533.72,425.62Z"/><path class="cls-3" d="M226.86,292.42s30.15,10.16,75.19,10.16,71.55-12.81,71.55-12.81-7.07-10.16-2.65-36.66,9.72-59.64.44-96.74S341.79,87,291.88,91s-78.19,51.68-75.54,87.91,19.88,68.91,20.32,79.07S226.86,292.42,226.86,292.42Z"/><path class="cls-4" d="M456.72,369.62A89,89,0,0,0,449.47,352a82.44,82.44,0,0,0-13.16-17.88,85.61,85.61,0,0,0-17.71-13.94c-2.48-1.48-4.93-2.77-7.32-3.92h0l-.69-.3c-1.74-.83-3.46-1.58-5.12-2.27L397.2,310c-6.68-3.23-29.57-12.13-34.6-14.25l-62.6.68-41.32-1.67c-5,2.11-17.62-1.8-30.84,4.09-9.76,4-18.36,7.92-25.06,11.16l-8.11,3.61c-1.71.67-3.46,1.44-5.27,2.33l-.68.3h0c-2.39,1.15-4.84,2.45-7.32,3.92a85.61,85.61,0,0,0-17.71,13.94A82.5,82.5,0,0,0,150.53,352a88.69,88.69,0,0,0-7.25,17.58c-.83,2.77-3.5,20.75-1.27,35.38,1.24,8.12,11.36-1.5,13.18,7.24l27.4,7-2.9,54.23,18.85,18,114-17.06,86.89,8.44,20.87-9.37-2.9-54.23,27.4-7c1.82-8.74,11.94.88,13.18-7.24C460.22,390.37,457.55,372.39,456.72,369.62Z"/><path class="cls-5" d="M449.47,352a82.44,82.44,0,0,0-13.16-17.88,85.61,85.61,0,0,0-17.71-13.94c-2.48-1.48-4.93-2.77-7.32-3.92h0l-.69-.3c-1.74-.83-3.46-1.58-5.12-2.27L397.2,310c-6.68-3.23-29.57-12.13-34.6-14.25l-20.7.23c-4.25,13.26-20.55,26.1-40.62,26.31-20.21-.26-35.53-13.89-39.32-27.4l-3.28-.13c-5,2.11-17.62-1.8-30.84,4.09-9.76,4-18.36,7.92-25.06,11.16l-8.11,3.61c-1.71.67-3.46,1.44-5.27,2.33l-.68.3h0c-2.39,1.15-4.84,2.45-7.32,3.92a85.61,85.61,0,0,0-17.71,13.94A82.5,82.5,0,0,0,150.53,352a88.69,88.69,0,0,0-7.25,17.58c-.83,2.77-3.5,20.75-1.27,35.38,1.24,8.12,11.36-1.5,13.18,7.24l27.4,7L182,430.63c13.33-4.24,23.77-8.72,23.77-8.72,0,5.93-13.54,24.25-25.48,40.78l-.58,10.8,14.86,14.18L303.9,469.43l100.33,11.28,16.08-7.22-.74-13.89c-10.24-14.6-22.67-31.54-22.67-37.69,0,0,8.88.52,20.71,1.15l-.2-3.8,27.4-7c1.82-8.74,11.94.88,13.18-7.24,2.23-14.63-.44-32.61-1.27-35.38A89.2,89.2,0,0,0,449.47,352Z"/><polyline class="cls-6" points="200.07 420.02 211.02 401.02 203.39 456.78 198.97 459.32 190.11 443.39"/><path class="cls-6" d="M142,404.18c-1.66,5.62,13,14.89,32.83,20.71s18,5.6,19.62,0c1-3.39,6.76-6,6.76-6-1.32-7.17-12.57-12-20.39-14.28C161,398.73,143.64,398.56,142,404.18Z"/><path class="cls-7" d="M180.81,404.55c7.68,2.26,20.07,7.5,20.07,14.68l-5.44,26.4L379,458.45c-2.62,2.15-8.26,13.14-11.81,13.89L171.84,498.45a21.9,21.9,0,0,1-26-16.83h0l4.37-81.35a48.62,48.62,0,0,1,7.44-.07A107.94,107.94,0,0,1,180.81,404.55Z"/><path class="cls-7" d="M363.27,296.05c-1.7,9.91-4.74,42.6-65.68,42.6-61.21,0-67.42-37.72-66-41.2,2-.92,25.81-5.12,33-13.93,3.45-4.29,8.19-22.58,8.81-25.38a141.7,141.7,0,0,0,2.52-18.46c.15-1.83.31-3.77.49-5.93.47-6,1-13.51,1.65-23a14.46,14.46,0,0,1,.63-3.58,9.75,9.75,0,0,1,.91-2c6.55-11,34-12.82,40.35-4.12,1.67,2.3,1.46,4.83,1.2,7.58V209a177.77,177.77,0,0,0-.76,18.89c0,1.32,0,2.63.05,3.91,0,2.18.18,4.26.31,6.23a119.85,119.85,0,0,0,1.83,15.33c2.23,11.29,3.77,25.27,10.91,30.79C345.54,293.48,362.16,295.54,363.27,296.05Z"/><path class="cls-8" d="M320.37,257c.48-1.15,1-2.33,1.47-3.57l.27-2.21A127.5,127.5,0,0,1,320.66,238c-.13-2-.26-4.05-.31-6.23v-.69l-43.66-1.64c-.12,1.52-.23,3-.34,4.34-.18,2.16-.34,4.1-.49,5.93a141.7,141.7,0,0,1-2.52,18.46c-.62,2.8-5.36,21.09-8.81,25.38-2,2.53-5.48,4.68-9.37,6.48-1.06,2,13.52.35,19.79-1.32,13.66-3.63,22.39-6,33-13.93C311.93,271.72,316.39,265.76,320.37,257Z"/><polyline class="cls-6" points="399.93 420.02 388.98 401.02 396.61 456.78 401.03 459.32 409.89 443.39"/><path class="cls-6" d="M458,404.18c1.66,5.62-13.05,14.89-32.83,20.71s-18,5.6-19.62,0c-1-3.39-6.76-6-6.76-6,1.32-7.17,12.57-12,20.39-14.28C439,398.73,456.36,398.56,458,404.18Z"/><path class="cls-8" d="M328.22,461l8.88-30.1.25-.83.26-.38,14.82-21.3a3,3,0,1,1,5.25,2.91h0l-.11.27-10.32,24.08.86-2L344.37,465a8.37,8.37,0,0,1-16.62-2,10.26,10.26,0,0,1,.27-1.34Z"/><path class="cls-8" d="M340.06,476.11c1.63,2.11,8.44,6.7,10.4,5.2,11.17-8.6,34.89-36.14,37.23-45.7,3.2-7.75-15.51-32.85-18.13-33-6.05-.35-30.51,52.54-30.51,52.54C320,473.67,335.66,470.38,340.06,476.11Z"/><g class="cls-9"><path class="cls-7" d="M342.81,480.4c-14.7-3.4-53.78-10-70.1-14.7l-122.62,1.13s-15.05.63-15.32,3.39c-1.13,11.31,1.68,29.88,20.9,33.28l169.05-20.84C327.41,482.3,339.42,481.53,342.81,480.4Z"/></g><path class="cls-7" d="M418.67,406.84c-7.68,2.26-19.55,5.21-19.55,12.39l5.56,23.31L209.93,448c2.62,2.16,16.82,14.22,20.37,15l195.37,32.44a21.88,21.88,0,0,0,26-16.79v0h0l3.8-71.37c-2.47-.21-12.74-2.47-15.22-2.31C432.4,405.53,426.21,404.58,418.67,406.84Z"/><path class="cls-8" d="M249.2,190s-5.94-10.12-11.14-8.94a5.78,5.78,0,0,0-3.37,2.82c-5.29,8.32,3.23,25.64,4.66,28.47.73,1.35,3.94,6.93,9.67,9a11.13,11.13,0,0,0,7,.54,7.92,7.92,0,0,0,2.36-1.09C264.62,214.94,249.2,190,249.2,190Z"/><path class="cls-7" d="M300,114.75a57.61,57.61,0,0,0-46.88,19.64c-9.64,14-11.91,25.85-12.46,33-.36,4.72,0,9.77.64,19.85.58,8.61,1,15.3,2.67,23.8a136.18,136.18,0,0,0,6.63,23c.4.94.87,2,1.4,3.06a80.82,80.82,0,0,0,6.47,10.9,67.85,67.85,0,0,0,12.78,14.33c4.9,4,11.8,9.6,22.39,10.85a39,39,0,0,0,23.14-4.75,54.94,54.94,0,0,0,17.06-15.91,68.75,68.75,0,0,0,10.93-22.68c1.84-7.88,5.34-15.61,6.58-25,1.53-11.54.34-23.18.46-32.76a89.4,89.4,0,0,0-5.7-21.07,87.62,87.62,0,0,0-7.18-14A51.27,51.27,0,0,0,300,114.75Z"/><path class="cls-3" d="M296.34,105.13c-65.94-.15-77.79,60.22-77.79,82.2,0,31.47,5.3,37.95,6.41,61.36.76,16.05-7.29,38-7.29,38s14.74-16.56,17.67-29.15c3.28-14.14,7.5-45.7,10.6-61.28s7.06-30.6,7.06-30.6,18.56,5.74,48.15,5.74c5.25,0,10-.21,14.31-.54l3.36-8.29,3.65,7.58c15.25-1.89,22.77-5.26,22.77-5.26l9.81,41.4,4.27-7.87L363.88,182S358,105.26,296.34,105.13Z"/></g><path class="cls-8" d="M294.65,451.79a8,8,0,0,1,1.28.41,8.24,8.24,0,1,1-6.23,15.26h0l-28.79-11.82,2.16.24-25.68-2.62h-.29a3,3,0,0,1,0-5.92l25.44-2.63.46,0,.83.18L294,451.57Z"/><path class="cls-8" d="M283.82,458.14s-57.25-4.2-59.86,1.16c-1.12,2.32,11.56,30.44,19.76,31.38,9.37,2.54,46.31-2.75,59-8.23,2.25-1-.34-11.07-1.39-13.48C298.57,462.49,308.85,450.59,283.82,458.14Z"/><path class="cls-10" d="M457.14,462.3l-1.67-55c-11.48-9.39-35.79-2.09-58.59,2.15l-3.06,14.26-113.7,10.81a27.73,27.73,0,0,0-27.74,27.7v6.9a27.73,27.73,0,0,0,27.74,27.74H428.41a27.75,27.75,0,0,0,27.73-27.74Z"/><g class="cls-11"><rect class="cls-12" x="293.3" y="431.16" width="5.07" height="67.26" transform="translate(-67 50.18) rotate(-8.71)"/><path class="cls-12" d="M273.45,497.17l-5.07-.11c.43-19.76.88-46.84.88-63.58h5.07C274.33,455.14,273.6,490.33,273.45,497.17Z"/><rect class="cls-12" x="261.03" y="466.28" width="43.75" height="4.8" transform="translate(-264.21 487.75) rotate(-60.88)"/><path class="cls-12" d="M342.65,523.22l-30.18-25.14,11-90.14,70.15-53.52,145.69,21L528,399.72l-1.87,0L383.19,403.7c2,5.36,4.16,10.61,5.16,12.18,7.08,3.23,80.95,27.17,129.9,42.79l3.24,1-23.28,51.17-96.15-76.25,27,77.3H375.65l-16.2-97.58a146.31,146.31,0,0,0-15.64-.93c.46,5,.65,17.63.1,51.89-.42,25.71-1.09,51.42-1.1,51.67Zm-23.78-27.67,18.05,15c.93-37.42,1.86-92,.78-97.71a3.35,3.35,0,0,1,.06-3.25c.92-1.61,2.07-3.61,24.64-1l2.27.26,16.11,97h39.73l-28.69-82.24c-6.88-2.48-7.29-2.92-7.7-3.36-2.21-2.36-6.38-13.71-8.06-18.48l-1.39-3.91,149.43-4.12,6.27-13.51L395.24,360.77l-66.1,50.44Zm83.86-68.11,93.18,73.89,17.25-37.93c-9-2.88-35.31-11.31-61.51-19.83C427.9,435.85,412.61,430.79,402.73,427.44Zm-64.7-14h0Z"/></g><path class="cls-13" d="M362.63,497.2,208.39,307.51c-.46-.67,8.35-3.94,15.38-7.51,3.72-1.89,12.57-3.63,12.57-3.63L398.06,497Z"/></svg>