<svg id="Capa_1" data-name="Capa 1" xmlns="http://www.w3.org/2000/svg" xmlns:xlink="http://www.w3.org/1999/xlink" viewBox="0 0 600 600"><defs><style>.cls-1,.cls-11,.cls-12,.cls-13,.cls-14{fill:none;}.cls-2{fill:url(#Degradado_sin_nombre_16);}.cls-3{fill:#e6cfc1;}.cls-4{fill:#d8bfb2;}.cls-5{fill:#004481;}.cls-6{fill:#1464a5;}.cls-7{fill:#1c3263;}.cls-8{fill:url(#Degradado_sin_nombre_14);}.cls-9{fill:#d4edfc;}.cls-10{clip-path:url(#clip-path);}.cls-11,.cls-12,.cls-13,.cls-14{stroke:#49a5e6;stroke-miterlimit:10;}.cls-11{stroke-width:5.07px;}.cls-12{stroke-width:4.8px;}.cls-13{stroke-width:6.05px;}.cls-14{stroke-width:5.22px;}.cls-15{fill:#1973b8;}</style><linearGradient id="Degradado_sin_nombre_16" x1="257.64" y1="1149.26" x2="460.97" y2="1531.65" gradientTransform="translate(0 -956)" gradientUnits="userSpaceOnUse"><stop offset="0" stop-color="#192647" stop-opacity="0.5"/><stop offset="1" stop-color="#192647" stop-opacity="0"/></linearGradient><linearGradient id="Degradado_sin_nombre_14" x1="415.54" y1="1450.16" x2="180.86" y2="1253.24" gradientTransform="translate(0 -956)" gradientUnits="userSpaceOnUse"><stop offset="0" stop-color="#27467e"/><stop offset="1" stop-color="#27467e" stop-opacity="0"/></linearGradient><clipPath id="clip-path"><path class="cls-1" d="M462.08,450.82l9-45.89c-11.48-9.39-45.46-11.24-68.26-7l-3.06,14.26L286.06,423a27.72,27.72,0,0,0-27.74,27.7v6.9a27.74,27.74,0,0,0,27.74,27.74H434.35a27.76,27.76,0,0,0,27.73-27.74Z"/></clipPath></defs><g id="Cuadrados_Blancos" data-name="Cuadrados Blancos"><rect class="cls-1" width="600" height="600"/></g><path class="cls-2" d="M532.3,375.42c-13-17.63-41-43-85.31-43.19-.2,0-14.44.92-14.44,1.12s-.07.65-.1,1l-4.93-30.18-.24-1.47c.33-.48.68-1,1-1.42a77.24,77.24,0,0,0,11.13-25.11c.36-1.75.81-3.51,1.29-5.27a11.68,11.68,0,0,0,2.41-1.73A39.45,39.45,0,0,0,454,252.42c2-7.26,3-20.25-2.18-22.6a5,5,0,0,0-2.94-.24c.3-2.28.58-4.54.79-6.71A28.47,28.47,0,0,0,456,210.93c1.53-6.25.55-12.16-3.29-22.74-5.81-16-8.71-24-14.33-30.08-9.07-9.83-20.62-11.85-43.66-16.14-21.59-4-32.39-6-40.78.34-9.22,7-11.5,19.67-12,27.59a1.26,1.26,0,0,0-.48.23,5.89,5.89,0,0,0-2.46-.92c-7.26-.8-15,14.71-18.1,25.55-2.08,7.25-4.61,16-1.29,25.22a47.28,47.28,0,0,0,4.44,8.11,2.22,2.22,0,0,0-.68.07,6,6,0,0,0-3.4,3c-5.36,8.83,3.27,27.2,4.71,30.2.74,1.42,4,7.34,9.79,9.5a16.18,16.18,0,0,0,2.66.76c1,3.31,2.2,6.87,3.63,10.63.44,1,1,2.15,1.52,3.34a92,92,0,0,0,6.95,11.86c1.19,1.72,2.65,3.79,4.4,6q-1.4,15.74-2.78,31.46c-.1-.79-.19-1.58-.21-2.36,0-.2-15.59-.36-15.79-.35-44.34.23-72.31,25.56-85.31,43.18-13.78,18.67-33.52,50.29-34.09,92.87a15.34,15.34,0,0,0,.31,3.24,5.5,5.5,0,0,0-.11.69c0,4.81,7.42,9.07,18.85,11.76v38.23c0,11.92,9.66,20.31,21.59,18.74l67.3-8.87h129v-7.51l66.28,14.15a23.58,23.58,0,0,0,28-18.12h0l9.92-46.4c3.67-1.66,6.36-3.54,7.77-5.58,1.26-.07,2-.18,2-.36C567.89,425.72,546.11,394.09,532.3,375.42Z"/><path class="cls-3" d="M347.81,306.71c-1.24,2.11-16.47,19.87-44.09,21.11C277.3,329,261.32,309.14,259.63,307l7.4-83.75,67.49,2.65,4.12,24.59Z"/><path class="cls-4" d="M331.64,251.54c-4.4,12-10.26,19.22-14.65,23.52-11.55,11.33-22.07,11.46-37.62,24.51a89.93,89.93,0,0,0-13.58,14c-1-.95-2.18-2.09-3.29-3.3-.88-1-2.11-2.32-2.83-3.22,2.47-27.92,4.91-54.62,7.38-82.54l67.49,2.65Q333.07,239.33,331.64,251.54Z"/><path class="cls-4" d="M245.71,184s-6-10.73-11.28-9.48a5.78,5.78,0,0,0-3.41,3c-5.36,8.83,3.27,27.19,4.72,30.2.74,1.42,4,7.34,9.79,9.49a10.69,10.69,0,0,0,7.07.57,7.71,7.71,0,0,0,2.4-1.15C261.32,210.45,245.71,184,245.71,184Z"/><path class="cls-4" d="M352,180.71c1.59-1.44,7.06-6.3,10.89-4.56,5.17,2.35,4.14,15.33,2.17,22.6a39.53,39.53,0,0,1-10.91,16.75,9.17,9.17,0,0,1-5,2.63,4,4,0,0,1-1.2,0C346.32,217.66,346.45,209.48,352,180.71Z"/><path class="cls-3" d="M301.91,96.88a58.64,58.64,0,0,0-29.74,6.59,61,61,0,0,0-19.1,15.7c-9.9,15.52-12.11,28.56-12.58,36.47-.3,5.18.12,10.71,1,21.77.73,9.45,1.29,16.79,3.14,26.09a154.91,154.91,0,0,0,7.26,25.07c.44,1,.94,2.15,1.51,3.34a91,91,0,0,0,7,11.85A73.33,73.33,0,0,0,274,259.3c5.19,4.29,12.51,10.36,23.63,11.56a39.39,39.39,0,0,0,24.18-5.57c8.82-5.59,13.85-12.16,17.65-17.73a76.71,76.71,0,0,0,11.12-25.07c1.82-8.67,5.36-17.21,6.53-27.59,1.43-12.7,0-25.46,0-36a102.66,102.66,0,0,0-6.38-23.08A99,99,0,0,0,343,120.63a54.94,54.94,0,0,0-18.14-17A51.83,51.83,0,0,0,301.91,96.88Z"/><path class="cls-5" d="M241.91,183.93s20.47-47.83,17-59-6.47-8.47-6.47-8.47a5.67,5.67,0,0,0-2.45-.92c-7.27-.8-15,14.71-18.11,25.55-2.08,7.24-4.6,16-1.28,25.22,2.39,6.61,15.23,23.35,11.27,17.62Z"/><path class="cls-5" d="M252.91,122.14s13.33,31.76,92.21,25.37c0,0,10.43,13.08,11.74,45.49,1.14-4.9,2.16-10.19,2.95-15.86q.57-4.08.94-7.94a28.47,28.47,0,0,0,6.36-11.94c1.53-6.25.55-12.17-3.29-22.74-5.81-16-8.72-24-14.33-30.08-9.08-9.83-20.62-11.85-43.66-16.14-21.6-4-32.39-6-40.78.34C252.75,97.94,252.76,117.26,252.91,122.14Z"/><path class="cls-6" d="M443.38,321.68c-13-17.62-41-42.95-85.31-43.18-.21,0-14.44.92-14.45,1.12-.32,15.15-18.5,32.27-41.7,32.51h0c-23.16-.3-39.9-18.15-40.22-33.27,0-.2-15.59-.36-15.8-.36-44.34.24-72.3,25.56-85.3,43.19-13.78,18.67-33.53,50.29-34.1,92.86-.42,31.64,79.89-2.82,79.89-2.82,0,11.77-53.38,72.38-41.61,70.83l139.76-23.31,127,14.28c11.77,1.55-34-50-34-61.8,0,0,79.82,4.68,79.89,2.82C479,372,457.15,340.35,443.38,321.68Z"/><path class="cls-7" d="M220.78,418.5c0,8.12-21.06,14.71-47,14.71s-47-6.59-47-14.71,21.06-14.68,47-14.68S220.78,410.37,220.78,418.5Z"/><polygon class="cls-7" points="228.13 378.93 227.1 426.76 218.53 424.28 228.13 378.93"/><polyline class="cls-7" points="399.12 388.85 393.31 369.72 395.35 428.37 401.95 430.87 399.12 410.15"/><path class="cls-7" d="M476.64,411.59c0,8.62-22.34,15.6-49.9,15.6s-49.91-7-49.91-15.6S399.18,396,426.74,396,476.64,403,476.64,411.59Z"/><path class="cls-8" d="M443.38,321.68c-13-17.62-41-42.95-85.31-43.18-.21,0-14.44.92-14.45,1.12-.32,15.15-18.5,32.27-41.7,32.51h0c-23.16-.3-39.9-18.15-40.22-33.27,0-.2-15.59-.36-15.8-.36-44.34.24-72.3,25.56-85.3,43.19-13.78,18.67-33.53,50.29-34.1,92.86-.42,31.64,79.89-2.82,79.89-2.82,0,11.77-53.38,72.38-41.61,70.83l139.76-23.31,127,14.28c11.77,1.55-34-50-34-61.8,0,0,79.82,4.68,79.89,2.82C479,372,457.15,340.35,443.38,321.68Z"/><path class="cls-4" d="M331.31,438.37l9.6-32.43.27-.9.28-.41,16-22.94a3.25,3.25,0,0,1,5.66,3.14l-.12.28-11.09,25.95.92-2.19-4,33.79a9,9,0,0,1-17.9-2.13,9.92,9.92,0,0,1,.29-1.44Z"/><path class="cls-4" d="M344.07,454.66c1.75,2.28,10,10.1,12.15,8.48,12-9.27,36.63-41.81,39.16-52.11,3.45-8.34-16.71-35.38-19.53-35.54-6.52-.38-32.87,56.6-32.87,56.6C322.49,452,339.33,448.5,344.07,454.66Z"/><path class="cls-3" d="M221.36,432.7V416.55c-2.84-7.46-23.11-13.25-47.74-13.25a130.46,130.46,0,0,0-28.07,2.84V468.5c0,11.93,9.67,20.32,21.6,18.75l260-34.26c10.52-1.38,19.26-10.07,21.18-20.29Z"/><path class="cls-3" d="M431.46,396.93a105.69,105.69,0,0,0-29.28,3.82l-2.44,11.4L211.32,435.64a23.41,23.41,0,0,0,10,4.85L429.81,485a23.6,23.6,0,0,0,28-18.14h0l13.25-62C462.37,400.08,447.91,396.93,431.46,396.93Z"/><path class="cls-4" d="M307.21,436.61a8.46,8.46,0,0,1,1.4.45,9,9,0,0,1-6.81,16.68h0l-31.49-12.92,2.36.26-28.08-2.87h-.31a3.25,3.25,0,0,1,0-6.47l27.82-2.87.5-.05.91.2,33,7.35Z"/><path class="cls-4" d="M295.37,443.55s-62.61-4.59-65.46,1.27c-1.23,2.54,12.64,33.29,21.61,34.31,10.24,2.78,50.64-3,64.56-9,2.46-1.09-.38-12.1-1.52-14.74C311.49,448.31,322.74,435.29,295.37,443.55Z"/><path class="cls-9" d="M463.08,450.82l8-45.89c-11.48-9.39-45.46-11.24-68.26-7l-3.06,14.26L286.06,423a27.72,27.72,0,0,0-27.74,27.7v6.9a27.74,27.74,0,0,0,27.74,27.74H434.35a27.76,27.76,0,0,0,27.73-27.74Z"/><g class="cls-10"><line class="cls-11" x1="306.87" y1="486.54" x2="296.68" y2="420.06"/><path class="cls-11" d="M277.74,422c0,18.21-.53,47.33-.88,63.63"/><line class="cls-12" x1="278.2" y1="476.31" x2="299.49" y2="438.09"/><path class="cls-13" d="M400.36,346.11l140.41,20.25L532,385.26l-147.15,4.05s5.4,15.26,7.42,17.42,131,43.34,131,43.34L503,494.62,401.71,414.29l29,83.13H384.16L368,400.11s-23.62-2.7-21.6,0-.67,105.31-.67,105.31l-24.12-20.09,10.62-87.24Z"/></g><line class="cls-14" x1="415" y1="450.65" x2="450.71" y2="453.12"/><line class="cls-14" x1="347.09" y1="472.37" x2="372.42" y2="426.89"/><path class="cls-15" d="M368.57,485.72l-142-205.56c-.46-.67,8.66-2.42,16.54-2.66l18.6.36L404,485.5Z"/></svg>