<svg xmlns="http://www.w3.org/2000/svg" xmlns:xlink="http://www.w3.org/1999/xlink" viewBox="0 0 600.02 600.03"><defs><style>.f1225c83-67e7-4614-99cb-d955146e2153{fill:url(#baf90232-2f1d-49da-be1f-014b16c155fb);}.b1a9d219-871a-4688-b1c5-ecabbad1ff8a{fill:#1464a5;}.b6c57cfa-9e34-4f1c-996f-b5fc3a274200{fill:url(#b3dd531e-d151-4410-92d8-581dcfc0e638);}.eda340f0-10a1-408b-8c1e-ec57c406f67d{fill:none;}.a57be973-fe2d-4eaf-84ba-2f559a8e292c{fill:#d4edfc;}</style><linearGradient id="baf90232-2f1d-49da-be1f-014b16c155fb" x1="266.47" y1="429.26" x2="451.92" y2="80.47" gradientTransform="matrix(1, 0, 0, -1, 0, 602)" gradientUnits="userSpaceOnUse"><stop offset="0" stop-color="#192647"/><stop offset="0" stop-color="#192647" stop-opacity="0.5"/><stop offset="1" stop-color="#192647" stop-opacity="0"/></linearGradient><linearGradient id="b3dd531e-d151-4410-92d8-581dcfc0e638" x1="460" y1="302" x2="208.71" y2="302" gradientTransform="matrix(1, 0, 0, -1, 0, 602)" gradientUnits="userSpaceOnUse"><stop offset="0" stop-color="#043263" stop-opacity="0.6"/><stop offset="1" stop-color="#043263" stop-opacity="0"/></linearGradient></defs><g id="abf7aeca-88cf-474d-8471-acc2c25e6f20" data-name="Contenido"><path class="f1225c83-67e7-4614-99cb-d955146e2153" d="M507.4,229.21a24,24,0,0,0-24-24h-272a24,24,0,0,0-24,24l0,191.53a24,24,0,0,0,24,24h243l47.66,47.61a3.13,3.13,0,0,0,5.34-2.22V472.6Z" transform="translate(-0.08 -0.09)"/><path class="b1a9d219-871a-4688-b1c5-ecabbad1ff8a" d="M436,156H164a24,24,0,0,0-24,24V371.5a24,24,0,0,0,24,24H407l47.66,47.61a3.13,3.13,0,0,0,5.34-2.22V180A24,24,0,0,0,436,156Z" transform="translate(-0.08 -0.09)"/><path class="b6c57cfa-9e34-4f1c-996f-b5fc3a274200" d="M436,156H377.14L208.71,395.47H407l47.66,47.61a3.13,3.13,0,0,0,5.34-2.22V180A24,24,0,0,0,436,156Z" transform="translate(-0.08 -0.09)"/></g><g id="b91aa642-7f65-42bd-814d-f1ade120011f" data-name="Capa 11"><rect class="eda340f0-10a1-408b-8c1e-ec57c406f67d" width="600.02" height="600.03"/></g><g id="bf7e37e2-7356-471c-b912-020770f89694" data-name="Capa 7"><path class="a57be973-fe2d-4eaf-84ba-2f559a8e292c" d="M300.42,240.13a34.8,34.8,0,1,0,.1,0h-.1m0,57.33A22.57,22.57,0,1,1,323,274.9h0a22.56,22.56,0,0,1-22.56,22.56s0,0,0,0" transform="translate(-0.08 -0.09)"/><path class="a57be973-fe2d-4eaf-84ba-2f559a8e292c" d="M344.77,238.71a8.13,8.13,0,1,1-8.13-8.13,8.12,8.12,0,0,1,8.13,8.13" transform="translate(-0.08 -0.09)"/><path class="a57be973-fe2d-4eaf-84ba-2f559a8e292c" d="M300.42,219.32c18.11,0,20.27.07,27.39.41a38.5,38.5,0,0,1,12.61,2.3,22.73,22.73,0,0,1,12.87,12.87c.95,2.37,2,6,2.31,12.61.34,7.18.4,9.28.4,27.37s-.06,20.26-.4,27.38a38.43,38.43,0,0,1-2.31,12.61,22.71,22.71,0,0,1-12.87,12.86c-2.37.95-6,2-12.61,2.31-7.12.34-9.28.4-27.39.4s-20.27-.06-27.39-.4a38.22,38.22,0,0,1-12.61-2.31,22.71,22.71,0,0,1-12.87-12.86c-1-2.38-2-6-2.3-12.61-.34-7.12-.41-9.29-.41-27.38s.07-20.26.41-27.37a38.5,38.5,0,0,1,2.3-12.61A22.74,22.74,0,0,1,260.39,222c2.37-.95,6-2,12.61-2.3,7.12-.34,9.29-.41,27.39-.41m0-12.19c-18.44,0-20.74.07-27.93.41A51.92,51.92,0,0,0,256,210.65a34.54,34.54,0,0,0-19.76,19.79,47.74,47.74,0,0,0-3.12,16.47c-.28,7.27-.48,9.56-.48,28s.07,20.74.41,27.92a51.69,51.69,0,0,0,3.12,16.46,34.54,34.54,0,0,0,19.79,19.79,47.91,47.91,0,0,0,16.48,3.12c7.26.27,9.56.41,27.93.41s20.75-.07,27.94-.41a51.94,51.94,0,0,0,16.48-3.12,34.54,34.54,0,0,0,19.79-19.79,47.73,47.73,0,0,0,3.12-16.46c.27-7.26.41-9.56.41-27.92s-.07-20.74-.41-27.92a51.82,51.82,0,0,0-3.12-16.47,34.57,34.57,0,0,0-19.79-19.79,48.2,48.2,0,0,0-16.48-3.12c-7.26-.27-9.42-.47-27.87-.47" transform="translate(-0.08 -0.09)"/></g></svg>