<svg id="Capa_1" data-name="Capa 1" xmlns="http://www.w3.org/2000/svg" xmlns:xlink="http://www.w3.org/1999/xlink" viewBox="0 0 600 600"><defs><style>.cls-1{fill:none;}.cls-2{fill:url(#Degradado_sin_nombre_41);}.cls-3{fill:url(#Degradado_sin_nombre_41-2);}.cls-4{fill:url(#Degradado_sin_nombre_41-3);}.cls-5{fill:url(#Degradado_sin_nombre_41-4);}.cls-6{fill:#043263;}.cls-7{fill:url(#Degradado_sin_nombre_44);}.cls-8{fill:#004481;}.cls-9{fill:#2dcccd;}.cls-10{fill:#ffdf8a;}.cls-11{fill:#ffce44;}.cls-12{fill:#c49735;}.cls-13{fill:url(#Degradado_sin_nombre_7);}.cls-14{fill:url(#Degradado_sin_nombre_7-2);}.cls-15{fill:url(#Degradado_sin_nombre_7-3);}</style><linearGradient id="Degradado_sin_nombre_41" x1="222.78" y1="176.12" x2="388.46" y2="487.71" gradientTransform="translate(0 2)" gradientUnits="userSpaceOnUse"><stop offset="0" stop-color="#192647" stop-opacity="0.5"/><stop offset="1" stop-color="#192647" stop-opacity="0"/></linearGradient><linearGradient id="Degradado_sin_nombre_41-2" x1="329.03" y1="91.3" x2="506.57" y2="425.2" xlink:href="#Degradado_sin_nombre_41"/><linearGradient id="Degradado_sin_nombre_41-3" x1="134.33" y1="208.35" x2="311.87" y2="542.24" xlink:href="#Degradado_sin_nombre_41"/><linearGradient id="Degradado_sin_nombre_41-4" x1="216.52" y1="158.95" x2="394.05" y2="492.84" xlink:href="#Degradado_sin_nombre_41"/><linearGradient id="Degradado_sin_nombre_44" x1="490.3" y1="348" x2="228.55" y2="348" gradientTransform="translate(0 2)" gradientUnits="userSpaceOnUse"><stop offset="0" stop-color="#192647"/><stop offset="0" stop-color="#043263" stop-opacity="0.7"/><stop offset="1" stop-color="#043263" stop-opacity="0"/></linearGradient><linearGradient id="Degradado_sin_nombre_7" x1="130.84" y1="269.25" x2="158.25" y2="296.65" gradientUnits="userSpaceOnUse"><stop offset="0" stop-color="#fff" stop-opacity="0.4"/><stop offset="1" stop-color="#fff" stop-opacity="0.1"/></linearGradient><linearGradient id="Degradado_sin_nombre_7-2" x1="214.24" y1="235.43" x2="259.91" y2="281.09" xlink:href="#Degradado_sin_nombre_7"/><linearGradient id="Degradado_sin_nombre_7-3" x1="337.76" y1="201.58" x2="401.71" y2="265.52" xlink:href="#Degradado_sin_nombre_7"/></defs><rect class="cls-1" width="600" height="600"/><path class="cls-2" d="M540.2,398.4a29.78,29.78,0,0,0-.6-6l-.3-1.5a26.82,26.82,0,0,0-2.7-6.8c-.2-.4-.5-.8-.7-1.3a32,32,0,0,0-6.6-7.6,19.52,19.52,0,0,0-2.3-1.7c-.4-.3-.8-.5-1.2-.8a30.43,30.43,0,0,0-15.5-4.3H169.6a30,30,0,0,0-30,30h0a30,30,0,0,0,30,30H510.3A30,30,0,0,0,540.2,398.4Z"/><path class="cls-3" d="M508.2,298.4a70.1,70.1,0,0,0-37.1-61.8h0c-.7-.4-1.4-.7-2-1l-1.3-.6-1.5-.7c-.6-.3-1.2-.5-1.8-.8l-1.6-.6-1.2-.4a22.5,22.5,0,0,0-2.4-.8l-1-.3-2-.6-.9-.2-2.7-.6-.9-.2a27.41,27.41,0,0,0-2.8-.5l-.6-.1-2.7-.3-.6-.1c-1-.1-2-.2-3-.2h-.7c-1.1-.1-2.1-.1-3.2-.1a70,70,0,0,0-70,70h0c0,1.1,0,2.1.1,3.2v.9a24.52,24.52,0,0,0,.2,2.7v.5c.1,1,.2,2,.4,3.1,0,.3.1.5.1.8.1.8.3,1.6.4,2.4,0,.2.1.5.1.7a24.6,24.6,0,0,0,.7,2.9c.1.2.1.5.2.8.2.8.4,1.5.6,2.2l.3.9c.3.9.6,1.8.9,2.8.1.2.2.5.3.7.3.7.5,1.4.8,2.1l.4,1a20,20,0,0,0,1,2.1c.1.3.3.6.4.9.4.7.7,1.4,1.1,2.1a8.79,8.79,0,0,0,.6,1c.3.5.6,1.1.9,1.6a8.79,8.79,0,0,1,.6,1c.5.8.9,1.5,1.4,2.2a7.63,7.63,0,0,0,.8,1.1c.3.4.6.9.9,1.3l.8,1.1c.5.7,1,1.3,1.5,2l.9,1.1.9,1a10.59,10.59,0,0,1,1,1.2l1,1c.6.6,1.2,1.3,1.9,1.9.3.3.6.5.9.8l1.2,1.1.8.7c.8.7,1.6,1.3,2.4,2l.8.6a17.1,17.1,0,0,1,1.4,1.1c.3.2.5.4.8.6,1,.7,2.1,1.4,3.1,2.1l.3.2c.5.3,1,.6,1.6,1l.8.5c.5.3,1.1.6,1.6.9h0a70,70,0,0,0,102.8-61.8Z"/><path class="cls-4" d="M172.5,340.8a7.72,7.72,0,0,0,.2,1.5v.4l.3,1.8a.37.37,0,0,0,.1.3,8.33,8.33,0,0,0,.4,1.5c0,.2.1.3.1.5.2.5.3,1.1.5,1.6v.1a8.65,8.65,0,0,0,.7,1.7l.2.4a9.14,9.14,0,0,0,.7,1.4c0,.1.1.2.2.3.3.5.6,1.1.9,1.6h0a13,13,0,0,0,1,1.5l.2.3a17.1,17.1,0,0,0,1.1,1.4h0a17.38,17.38,0,0,0,1.3,1.5l.1.1,1.2,1.2.2.1a21.72,21.72,0,0,0,2.9,2.4l.2.1a8.64,8.64,0,0,0,1.6,1h0a30,30,0,0,0,31-51.4c-.3-.2-.7-.4-1-.6h0a10.09,10.09,0,0,0-1.5-.7l-.3-.1-1.3-.5-.3-.1a7.84,7.84,0,0,0-1.4-.5l-.2-.1a10.93,10.93,0,0,0-1.7-.5h-.1a12.44,12.44,0,0,1-1.6-.4l-.5-.1c-.4-.1-.8-.1-1.2-.2l-.6-.1c-.4,0-.8-.1-1.2-.1h-2.4a30,30,0,0,0-30,30,12.1,12.1,0,0,0,.1,1.9C172.4,340.5,172.4,340.6,172.5,340.8Z"/><path class="cls-5" d="M250.2,321.3c0,.6.1,1.3.1,1.9v.4c.1.7.2,1.5.3,2.2l.1.6c.1.6.2,1.2.3,1.7a4.33,4.33,0,0,0,.1.5,16,16,0,0,0,.5,2.1,4.33,4.33,0,0,0,.1.5,9.83,9.83,0,0,0,.5,1.6c.1.2.1.4.2.6a15.87,15.87,0,0,0,.7,2l.2.5.6,1.5.3.7a10.09,10.09,0,0,0,.7,1.5l.3.7.8,1.5a5.94,5.94,0,0,1,.4.8l.7,1.2.4.7c.3.5.7,1,1,1.6l.5.8a5.5,5.5,0,0,0,.7.9l.6.8,1.1,1.4.7.8c.2.2.4.5.6.7a6,6,0,0,0,.8.8,4.62,4.62,0,0,1,.7.7,15.93,15.93,0,0,0,1.3,1.3l.6.6.9.8.6.5,1.7,1.4.5.4,1,.8.6.4c.7.5,1.5,1,2.2,1.5l.2.1,1.1.7.6.3,1.2.6h0a50,50,0,1,0,47-88.3h0c-.8-.4-1.6-.8-2.5-1.2l-.5-.2c-.7-.3-1.4-.6-2.2-.9l-.5-.2-2.4-.9-.3-.1c-.9-.3-1.9-.6-2.8-.8h-.1c-.9-.2-1.8-.4-2.6-.6l-.8-.1-2-.3-1-.1c-.7-.1-1.4-.1-2-.2l-.9-.1c-1,0-1.9-.1-2.9-.1a50,50,0,0,0-50,50,17.7,17.7,0,0,0,.1,2.3Z"/><path class="cls-6" d="M119.7,320H460.4a30,30,0,0,1,30,30h0a30,30,0,0,1-30,30H119.7a30,30,0,0,1-30-30h0A30,30,0,0,1,119.7,320Z"/><path class="cls-7" d="M460.3,320H307.2l-33,60H460.3a30,30,0,0,0,30-30h0a30,30,0,0,0-30-30Z"/><path class="cls-8" d="M120,330H460a20.06,20.06,0,0,1,20,20h0a20.06,20.06,0,0,1-20,20H120a20.06,20.06,0,0,1-20-20h0A20.06,20.06,0,0,1,120,330Z"/><circle class="cls-9" cx="120" cy="350" r="15"/><circle class="cls-9" cx="460" cy="350" r="15"/><path class="cls-10" d="M182.5,290a30,30,0,1,1-30-30h0a30,30,0,0,1,30,30h0"/><path class="cls-11" d="M152.52,313.6A23.6,23.6,0,1,1,176.1,290a23.64,23.64,0,0,1-23.58,23.6Z"/><path class="cls-12" d="M152.49,267.8A22.2,22.2,0,1,1,130.3,290a22.24,22.24,0,0,1,22.19-22.2h0m0-2.8h0a25,25,0,1,0,25,25h0a25,25,0,0,0-25-25Z"/><path class="cls-13" d="M152.48,260a30,30,0,0,0-14.06,56.47l28.16-53A29.87,29.87,0,0,0,152.48,260Z"/><path class="cls-10" d="M300.32,270a50,50,0,1,1-50-50h0a50,50,0,0,1,50,50v0"/><path class="cls-11" d="M250.37,309.34A39.33,39.33,0,1,1,289.66,270a39.38,39.38,0,0,1-39.29,39.34Z"/><path class="cls-12" d="M250.32,233a37,37,0,1,1-37,37,37,37,0,0,1,37-37h0m0-4.66h0A41.66,41.66,0,1,0,292,270v0a41.66,41.66,0,0,0-41.67-41.64Z"/><path class="cls-14" d="M250.3,220a50,50,0,0,0-23.42,94.1l46.92-88.25A49.89,49.89,0,0,0,250.3,220Z"/><path class="cls-10" d="M458.3,250a70,70,0,1,1-70.05-70h0a70,70,0,0,1,70.05,70v0"/><path class="cls-11" d="M388.34,305.07a55.07,55.07,0,1,1,55-55.08,55.15,55.15,0,0,1-55,55.08Z"/><path class="cls-12" d="M388.29,198.2A51.8,51.8,0,1,1,336.5,250a51.88,51.88,0,0,1,51.79-51.81h0m0-6.53h0A58.33,58.33,0,1,0,446.63,250v0a58.34,58.34,0,0,0-58.34-58.32Z"/><path class="cls-15" d="M388.25,180a70,70,0,0,0-32.79,131.77l65.7-123.58A69.62,69.62,0,0,0,388.25,180Z"/></svg>