<?xml version="1.0" encoding="utf-8"?>
<!-- Generator: Adobe Illustrator 23.0.1, SVG Export Plug-In . SVG Version: 6.00 Build 0)  -->
<svg version="1.1" id="Contenido" xmlns="http://www.w3.org/2000/svg" xmlns:xlink="http://www.w3.org/1999/xlink" x="0px" y="0px"
	 viewBox="0 0 600 600" style="enable-background:new 0 0 600 600;" xml:space="preserve">
<style type="text/css">
	.st0{fill:url(#SVGID_1_);}
	.st1{fill:url(#SVGID_2_);}
	.st2{fill:url(#SVGID_3_);}
	.st3{fill:url(#SVGID_4_);}
	.st4{fill:#1464A5;}
	.st5{fill:url(#SVGID_5_);}
	.st6{fill:#043263;}
	.st7{fill:#2DCCCD;}
	.st8{fill:#F8CD51;}
	.st9{fill:url(#SVGID_6_);}
	.st10{fill:#FEF5DC;}
	.st11{fill:url(#SVGID_7_);}
	.st12{fill:url(#SVGID_8_);}
</style>
<title>_</title>
<linearGradient id="SVGID_1_" gradientUnits="userSpaceOnUse" x1="222.7788" y1="423.8794" x2="388.4588" y2="112.2894" gradientTransform="matrix(1 0 0 -1 0 602)">
	<stop  offset="0" style="stop-color:#192647"/>
	<stop  offset="0" style="stop-color:#192647;stop-opacity:0.5"/>
	<stop  offset="1" style="stop-color:#192647;stop-opacity:0"/>
</linearGradient>
<path class="st0" d="M540.2,398.4c0-2-0.2-4.1-0.6-6c-0.1-0.5-0.2-1-0.3-1.5c-0.6-2.4-1.5-4.7-2.7-6.8c-0.2-0.4-0.5-0.8-0.7-1.3
	c-1.8-2.9-4-5.4-6.6-7.6c-0.7-0.6-1.5-1.2-2.3-1.7c-0.4-0.3-0.8-0.5-1.2-0.8c-4.7-2.8-10.1-4.3-15.5-4.3H169.6
	c-16.6,0-30,13.4-30,30l0,0l0,0c0,16.6,13.4,30,30,30l0,0h340.7C526.8,428.4,540.2,414.9,540.2,398.4z"/>
<linearGradient id="SVGID_2_" gradientUnits="userSpaceOnUse" x1="329.1039" y1="508.7414" x2="506.6439" y2="174.8414" gradientTransform="matrix(1 0 0 -1 0 602)">
	<stop  offset="0" style="stop-color:#192647"/>
	<stop  offset="0" style="stop-color:#192647;stop-opacity:0.5"/>
	<stop  offset="1" style="stop-color:#192647;stop-opacity:0"/>
</linearGradient>
<path class="st1" d="M508.2,298.4c0-25.9-14.3-49.6-37.1-61.8l0,0c-0.7-0.4-1.4-0.7-2-1l-1.3-0.6l-1.5-0.7c-0.6-0.3-1.2-0.5-1.8-0.8
	l-1.6-0.6l-1.2-0.4c-0.8-0.3-1.6-0.6-2.4-0.8l-1-0.3l-2-0.6l-0.9-0.2c-0.9-0.2-1.8-0.4-2.7-0.6l-0.9-0.2c-0.9-0.2-1.9-0.4-2.8-0.5
	l-0.6-0.1c-0.9-0.1-1.8-0.2-2.7-0.3l-0.6-0.1c-1-0.1-2-0.2-3-0.2h-0.7c-1.1-0.1-2.1-0.1-3.2-0.1c-38.7,0-70,31.3-70,70l0,0
	c0,1.1,0,2.1,0.1,3.2c0,0.3,0,0.6,0,0.9c0,0.9,0.1,1.8,0.2,2.7c0,0.2,0,0.3,0,0.5c0.1,1,0.2,2,0.4,3.1c0,0.3,0.1,0.5,0.1,0.8
	c0.1,0.8,0.3,1.6,0.4,2.4c0,0.2,0.1,0.5,0.1,0.7c0.2,1,0.4,2,0.7,2.9c0.1,0.2,0.1,0.5,0.2,0.8c0.2,0.8,0.4,1.5,0.6,2.2l0.3,0.9
	c0.3,0.9,0.6,1.8,0.9,2.8c0.1,0.2,0.2,0.5,0.3,0.7c0.3,0.7,0.5,1.4,0.8,2.1l0.4,1c0.3,0.7,0.6,1.4,1,2.1c0.1,0.3,0.3,0.6,0.4,0.9
	c0.4,0.7,0.7,1.4,1.1,2.1c0.2,0.4,0.4,0.7,0.6,1c0.3,0.5,0.6,1.1,0.9,1.6c0.2,0.3,0.4,0.6,0.6,1c0.5,0.8,0.9,1.5,1.4,2.2
	c0.2,0.4,0.5,0.7,0.8,1.1s0.6,0.9,0.9,1.3l0.8,1.1c0.5,0.7,1,1.3,1.5,2l0.9,1.1l0.9,1c0.4,0.4,0.7,0.8,1,1.2l1,1
	c0.6,0.6,1.2,1.3,1.9,1.9c0.3,0.3,0.6,0.5,0.9,0.8l1.2,1.1l0.8,0.7c0.8,0.7,1.6,1.3,2.4,2l0.8,0.6c0.5,0.4,1,0.7,1.4,1.1
	c0.3,0.2,0.5,0.4,0.8,0.6c1,0.7,2.1,1.4,3.1,2.1l0.3,0.2c0.5,0.3,1,0.6,1.6,1l0.8,0.5c0.5,0.3,1.1,0.6,1.6,0.9l0,0
	c34.2,18.1,76.5,5.1,94.6-29c5.4-10.1,8.2-21.4,8.2-32.8L508.2,298.4z"/>
<linearGradient id="SVGID_3_" gradientUnits="userSpaceOnUse" x1="134.147" y1="391.5486" x2="311.687" y2="57.6586" gradientTransform="matrix(1 0 0 -1 0 602)">
	<stop  offset="0" style="stop-color:#192647"/>
	<stop  offset="0" style="stop-color:#192647;stop-opacity:0.5"/>
	<stop  offset="1" style="stop-color:#192647;stop-opacity:0"/>
</linearGradient>
<path class="st2" d="M172.5,340.8c0,0.5,0.1,1,0.2,1.5c0,0.1,0,0.3,0,0.4c0.1,0.6,0.2,1.2,0.3,1.8c0,0.1,0,0.2,0.1,0.3
	c0.1,0.5,0.2,1,0.4,1.5c0,0.2,0.1,0.3,0.1,0.5c0.2,0.5,0.3,1.1,0.5,1.6c0,0,0,0.1,0,0.1c0.2,0.6,0.4,1.2,0.7,1.7l0.2,0.4
	c0.2,0.5,0.4,0.9,0.7,1.4c0,0.1,0.1,0.2,0.2,0.3c0.3,0.5,0.6,1.1,0.9,1.6l0,0c0.3,0.5,0.6,1,1,1.5l0.2,0.3c0.4,0.5,0.7,1,1.1,1.4
	l0,0c0.4,0.5,0.8,1,1.3,1.5l0.1,0.1c0.4,0.4,0.8,0.8,1.2,1.2l0.2,0.1c0.9,0.9,1.9,1.7,2.9,2.4l0.2,0.1c0.5,0.4,1,0.7,1.6,1l0,0
	c14.2,8.5,32.6,4,41.2-10.2c8.5-14.2,4-32.6-10.2-41.2c-0.3-0.2-0.7-0.4-1-0.6l0,0c-0.5-0.3-1-0.5-1.5-0.7l-0.3-0.1l-1.3-0.5
	l-0.3-0.1c-0.5-0.2-0.9-0.4-1.4-0.5l-0.2-0.1c-0.6-0.2-1.1-0.4-1.7-0.5h-0.1c-0.5-0.1-1-0.2-1.6-0.4l-0.5-0.1
	c-0.4-0.1-0.8-0.1-1.2-0.2l-0.6-0.1c-0.4,0-0.8-0.1-1.2-0.1H204c-0.6,0-1.2,0-1.7,0c-16.6,0-30,13.4-30,30c0,0.6,0,1.3,0.1,1.9
	C172.4,340.5,172.4,340.6,172.5,340.8z"/>
<linearGradient id="SVGID_4_" gradientUnits="userSpaceOnUse" x1="216.4424" y1="441.0106" x2="393.9724" y2="107.1206" gradientTransform="matrix(1 0 0 -1 0 602)">
	<stop  offset="0" style="stop-color:#192647"/>
	<stop  offset="0" style="stop-color:#192647;stop-opacity:0.5"/>
	<stop  offset="1" style="stop-color:#192647;stop-opacity:0"/>
</linearGradient>
<path class="st3" d="M250.2,321.3c0,0.6,0.1,1.3,0.1,1.9v0.4c0.1,0.7,0.2,1.5,0.3,2.2l0.1,0.6c0.1,0.6,0.2,1.2,0.3,1.7
	c0,0.2,0.1,0.4,0.1,0.5c0.1,0.7,0.3,1.4,0.5,2.1c0,0.2,0.1,0.4,0.1,0.5c0.1,0.5,0.3,1.1,0.5,1.6c0.1,0.2,0.1,0.4,0.2,0.6
	c0.2,0.7,0.4,1.3,0.7,2l0.2,0.5c0.2,0.5,0.4,1,0.6,1.5l0.3,0.7c0.2,0.5,0.4,1,0.7,1.5l0.3,0.7l0.8,1.5c0.1,0.2,0.3,0.5,0.4,0.8
	l0.7,1.2l0.4,0.7c0.3,0.5,0.7,1,1,1.6l0.5,0.8c0.2,0.3,0.4,0.6,0.7,0.9l0.6,0.8c0.4,0.5,0.7,0.9,1.1,1.4l0.7,0.8
	c0.2,0.2,0.4,0.5,0.6,0.7s0.5,0.6,0.8,0.8s0.5,0.5,0.7,0.7c0.4,0.5,0.9,0.9,1.3,1.3l0.6,0.6l0.9,0.8l0.6,0.5
	c0.6,0.5,1.1,0.9,1.7,1.4l0.5,0.4l1,0.8l0.6,0.4c0.7,0.5,1.5,1,2.2,1.5l0.2,0.1l1.1,0.7l0.6,0.3l1.2,0.6l0,0
	c24.4,13,54.7,3.7,67.7-20.6c13-24.4,3.7-54.7-20.7-67.7l0,0l0,0c-0.8-0.4-1.6-0.8-2.5-1.2l-0.5-0.2c-0.7-0.3-1.4-0.6-2.2-0.9
	l-0.5-0.2c-0.8-0.3-1.6-0.6-2.4-0.9l-0.3-0.1c-0.9-0.3-1.9-0.6-2.8-0.8h-0.1c-0.9-0.2-1.8-0.4-2.6-0.6l-0.8-0.1
	c-0.7-0.1-1.3-0.2-2-0.3l-1-0.1c-0.7-0.1-1.4-0.1-2-0.2l-0.9-0.1c-1,0-1.9-0.1-2.9-0.1c-27.6,0-50,22.4-50,50c0,0.8,0,1.5,0.1,2.3
	L250.2,321.3z"/>
<path class="st4" d="M119.7,320h340.7c16.6,0,30,13.4,30,30l0,0c0,16.6-13.4,30-30,30H119.7c-16.6,0-30-13.4-30-30l0,0
	C89.7,333.4,103.1,320,119.7,320z"/>
<linearGradient id="SVGID_5_" gradientUnits="userSpaceOnUse" x1="490.33" y1="252" x2="228.58" y2="252" gradientTransform="matrix(1 0 0 -1 0 602)">
	<stop  offset="0" style="stop-color:#192647"/>
	<stop  offset="0" style="stop-color:#043263;stop-opacity:0.7"/>
	<stop  offset="1" style="stop-color:#043263;stop-opacity:0"/>
</linearGradient>
<path class="st5" d="M460.3,320H307.2l-33,60h186.1c16.6,0,30-13.4,30-30l0,0C490.3,333.4,476.9,320,460.3,320L460.3,320z"/>
<path class="st6" d="M120,330h340c11,0,20,9,20,20l0,0c0,11-9,20-20,20H120c-11,0-20-9-20-20l0,0C100,339,109,330,120,330z"/>
<circle class="st7" cx="120" cy="350" r="15"/>
<circle class="st7" cx="460" cy="350" r="15"/>
<path class="st8" d="M458.9,250c0,38.8-31.4,70.4-70.3,70.4c-38.8,0-70.4-31.4-70.4-70.3c0-38.8,31.4-70.4,70.3-70.4l0,0
	C427.3,179.7,458.8,211.1,458.9,250C458.9,250,458.9,250,458.9,250"/>
<linearGradient id="SVGID_6_" gradientUnits="userSpaceOnUse" x1="330.1281" y1="-17.0003" x2="388.3681" y2="-47.9603" gradientTransform="matrix(1 0 0 -1 0 202)">
	<stop  offset="0" style="stop-color:#FADE8E"/>
	<stop  offset="1" style="stop-color:#FADE8E;stop-opacity:0.4"/>
</linearGradient>
<path class="st9" d="M421.5,188c-34.3-18.2-76.8-5.2-95,29s-5.2,76.8,29,95L421.5,188z"/>
<path class="st10" d="M363.9,247.4h-9.6v-7.2h10.4c2.9-16.2,13-23.7,24.8-23.7c12.4,0,18.9,6.4,22.2,14.3l-9.2,5.2
	c-2.3-6.8-6.2-10-13-10c-7.2,0-12.4,4.6-14.2,14.2h16.2v7.2h-17v2.3c0,1.3,0,2.6,0.1,3.8h17v7.3h-16.2c1.8,8.9,6.4,13.6,14.2,13.6
	c6.8,0,10.9-3,13.3-10.5l8.9,5.4c-3.6,8.4-11.2,14.4-22.4,14.4c-12.2,0-21.7-7.2-24.8-22.8h-10.5v-7.3h9.6c-0.1-1.2-0.1-2.4-0.1-3.6
	L363.9,247.4L363.9,247.4z"/>
<path class="st8" d="M299.8,270.4c0,27.6-22.3,50-49.9,50.1c-27.6,0-50-22.3-50.1-49.9c0-27.6,22.3-50,49.9-50.1c0,0,0.1,0,0.1,0
	l0,0C277.4,220.4,299.8,242.8,299.8,270.4"/>
<linearGradient id="SVGID_7_" gradientUnits="userSpaceOnUse" x1="208.3032" y1="-46.3558" x2="249.6832" y2="-68.3458" gradientTransform="matrix(1 0 0 -1 0 202)">
	<stop  offset="0" style="stop-color:#FADE8E"/>
	<stop  offset="1" style="stop-color:#FADE8E;stop-opacity:0.4"/>
</linearGradient>
<path class="st11" d="M273.2,226.3c-24.3-12.9-54.6-3.7-67.5,20.6c-12.9,24.3-3.7,54.6,20.6,67.5L273.2,226.3z"/>
<path class="st10" d="M232.4,268.5h-6.8v-5.1h7.4c2.1-11.5,9.2-16.8,17.6-16.8c8.8,0,13.5,4.5,15.8,10.2l-6.5,3.7
	c-1.6-4.8-4.4-7.1-9.2-7.1c-5.1,0-8.8,3.3-10.1,10.1H252v5.1h-12v1.6c0,0.9,0,1.8,0.1,2.7h12.1v5.2h-11.5c1.3,6.4,4.5,9.6,10.1,9.6
	c4.8,0,7.7-2.1,9.5-7.5l6.4,3.8c-2.6,6.4-9,10.5-15.9,10.2c-8.6,0-15.4-5.1-17.6-16.2h-7.5v-5.2h6.9c-0.1-0.8-0.1-1.7-0.1-2.5V268.5
	z"/>
<path class="st8" d="M182.6,290.2c0,16.6-13.5,30.1-30.1,30.1c-16.6,0-30.1-13.5-30.1-30.1c0-16.6,13.5-30.1,30.1-30.1l0,0
	C169.1,260,182.6,273.5,182.6,290.2C182.6,290.1,182.6,290.2,182.6,290.2"/>
<linearGradient id="SVGID_8_" gradientUnits="userSpaceOnUse" x1="127.5095" y1="-74.8909" x2="152.4695" y2="-88.1608" gradientTransform="matrix(1 0 0 -1 0 202)">
	<stop  offset="0" style="stop-color:#FADE8E"/>
	<stop  offset="1" style="stop-color:#FADE8E;stop-opacity:0.4"/>
</linearGradient>
<path class="st12" d="M166.6,263.6c-14.6-7.9-32.9-2.5-40.8,12.1c-7.9,14.6-2.5,32.9,12.1,40.8c0.1,0.1,0.3,0.1,0.4,0.2L166.6,263.6
	z"/>
<path class="st10" d="M141.9,289h-4.1v-3h4.5c1.2-7,5.6-10.1,10.6-10.1c5.3,0,8.1,2.7,9.5,6.1l-3.9,2.2c-1-2.9-2.7-4.3-5.6-4.3
	c-3.1,0-5.3,2-6.1,6.1h7v3.1h-7.3v1c0,0.5,0,1.1,0,1.6h7.3v3.1h-6.9c0.8,3.8,2.7,5.8,6.1,5.8c2.9,0,4.7-1.3,5.7-4.5l3.8,2.3
	c-1.6,3.9-5.4,6.3-9.6,6.2c-5.2,0-9.3-3.1-10.6-9.8h-4.5v-3.1h4.2c0-0.5,0-1,0-1.5L141.9,289L141.9,289z"/>
</svg>
