<?xml version="1.0" encoding="utf-8"?>
<!-- Generator: Adobe Illustrator 23.0.1, SVG Export Plug-In . SVG Version: 6.00 Build 0)  -->
<svg version="1.1" id="Contenido" xmlns="http://www.w3.org/2000/svg" xmlns:xlink="http://www.w3.org/1999/xlink" x="0px" y="0px"
	 viewBox="0 0 600 600" style="enable-background:new 0 0 600 600;" xml:space="preserve">
<style type="text/css">
	.st0{fill:url(#SVGID_1_);}
	.st1{fill:url(#SVGID_2_);}
	.st2{fill:url(#SVGID_3_);}
	.st3{fill:url(#SVGID_4_);}
	.st4{fill:#1464A5;}
	.st5{fill:url(#SVGID_5_);}
	.st6{fill:#043263;}
	.st7{fill:#F8CD50;}
	.st8{fill:url(#SVGID_6_);}
	.st9{fill:#FEF5DC;}
	.st10{fill:url(#SVGID_7_);}
	.st11{fill:url(#SVGID_8_);}
	.st12{fill:#2DCCCD;}
</style>
<title>_</title>
<linearGradient id="SVGID_1_" gradientUnits="userSpaceOnUse" x1="222.7788" y1="423.8794" x2="388.4588" y2="112.2894" gradientTransform="matrix(1 0 0 -1 0 602)">
	<stop  offset="0" style="stop-color:#192647"/>
	<stop  offset="0" style="stop-color:#192647;stop-opacity:0.5"/>
	<stop  offset="1" style="stop-color:#192647;stop-opacity:0"/>
</linearGradient>
<path class="st0" d="M540.2,398.4c0-2-0.2-4.1-0.6-6c-0.1-0.5-0.2-1-0.3-1.5c-0.6-2.4-1.5-4.7-2.7-6.8c-0.2-0.4-0.5-0.8-0.7-1.3
	c-1.8-2.9-4-5.4-6.6-7.6c-0.7-0.6-1.5-1.2-2.3-1.7c-0.4-0.3-0.8-0.5-1.2-0.8c-4.7-2.8-10.1-4.3-15.5-4.3H169.6
	c-16.6,0-30,13.4-30,30l0,0l0,0c0,16.6,13.4,30,30,30l0,0h340.7C526.8,428.4,540.2,414.9,540.2,398.4z"/>
<linearGradient id="SVGID_2_" gradientUnits="userSpaceOnUse" x1="329.1039" y1="508.7414" x2="506.6439" y2="174.8414" gradientTransform="matrix(1 0 0 -1 0 602)">
	<stop  offset="0" style="stop-color:#192647"/>
	<stop  offset="0" style="stop-color:#192647;stop-opacity:0.5"/>
	<stop  offset="1" style="stop-color:#192647;stop-opacity:0"/>
</linearGradient>
<path class="st1" d="M508.2,298.4c0-25.9-14.3-49.6-37.1-61.8l0,0c-0.7-0.4-1.4-0.7-2-1l-1.3-0.6l-1.5-0.7c-0.6-0.3-1.2-0.5-1.8-0.8
	l-1.6-0.6l-1.2-0.4c-0.8-0.3-1.6-0.6-2.4-0.8l-1-0.3l-2-0.6l-0.9-0.2c-0.9-0.2-1.8-0.4-2.7-0.6l-0.9-0.2c-0.9-0.2-1.9-0.4-2.8-0.5
	l-0.6-0.1c-0.9-0.1-1.8-0.2-2.7-0.3l-0.6-0.1c-1-0.1-2-0.2-3-0.2h-0.7c-1.1-0.1-2.1-0.1-3.2-0.1c-38.7,0-70,31.3-70,70l0,0
	c0,1.1,0,2.1,0.1,3.2c0,0.3,0,0.6,0,0.9c0,0.9,0.1,1.8,0.2,2.7c0,0.2,0,0.3,0,0.5c0.1,1,0.2,2,0.4,3.1c0,0.3,0.1,0.5,0.1,0.8
	c0.1,0.8,0.3,1.6,0.4,2.4c0,0.2,0.1,0.5,0.1,0.7c0.2,1,0.4,2,0.7,2.9c0.1,0.2,0.1,0.5,0.2,0.8c0.2,0.8,0.4,1.5,0.6,2.2l0.3,0.9
	c0.3,0.9,0.6,1.8,0.9,2.8c0.1,0.2,0.2,0.5,0.3,0.7c0.3,0.7,0.5,1.4,0.8,2.1l0.4,1c0.3,0.7,0.6,1.4,1,2.1c0.1,0.3,0.3,0.6,0.4,0.9
	c0.4,0.7,0.7,1.4,1.1,2.1c0.2,0.4,0.4,0.7,0.6,1c0.3,0.5,0.6,1.1,0.9,1.6c0.2,0.3,0.4,0.6,0.6,1c0.5,0.8,0.9,1.5,1.4,2.2
	c0.2,0.4,0.5,0.7,0.8,1.1s0.6,0.9,0.9,1.3l0.8,1.1c0.5,0.7,1,1.3,1.5,2l0.9,1.1l0.9,1c0.4,0.4,0.7,0.8,1,1.2l1,1
	c0.6,0.6,1.2,1.3,1.9,1.9c0.3,0.3,0.6,0.5,0.9,0.8l1.2,1.1l0.8,0.7c0.8,0.7,1.6,1.3,2.4,2l0.8,0.6c0.5,0.4,1,0.7,1.4,1.1
	c0.3,0.2,0.5,0.4,0.8,0.6c1,0.7,2.1,1.4,3.1,2.1l0.3,0.2c0.5,0.3,1,0.6,1.6,1l0.8,0.5c0.5,0.3,1.1,0.6,1.6,0.9l0,0
	c34.2,18.1,76.5,5.1,94.6-29c5.4-10.1,8.2-21.4,8.2-32.8L508.2,298.4z"/>
<linearGradient id="SVGID_3_" gradientUnits="userSpaceOnUse" x1="134.147" y1="391.5486" x2="311.687" y2="57.6586" gradientTransform="matrix(1 0 0 -1 0 602)">
	<stop  offset="0" style="stop-color:#192647"/>
	<stop  offset="0" style="stop-color:#192647;stop-opacity:0.5"/>
	<stop  offset="1" style="stop-color:#192647;stop-opacity:0"/>
</linearGradient>
<path class="st2" d="M172.5,340.8c0,0.5,0.1,1,0.2,1.5c0,0.1,0,0.3,0,0.4c0.1,0.6,0.2,1.2,0.3,1.8c0,0.1,0,0.2,0.1,0.3
	c0.1,0.5,0.2,1,0.4,1.5c0,0.2,0.1,0.3,0.1,0.5c0.2,0.5,0.3,1.1,0.5,1.6c0,0,0,0.1,0,0.1c0.2,0.6,0.4,1.2,0.7,1.7l0.2,0.4
	c0.2,0.5,0.4,0.9,0.7,1.4c0,0.1,0.1,0.2,0.2,0.3c0.3,0.5,0.6,1.1,0.9,1.6l0,0c0.3,0.5,0.6,1,1,1.5l0.2,0.3c0.4,0.5,0.7,1,1.1,1.4
	l0,0c0.4,0.5,0.8,1,1.3,1.5l0.1,0.1c0.4,0.4,0.8,0.8,1.2,1.2l0.2,0.1c0.9,0.9,1.9,1.7,2.9,2.4l0.2,0.1c0.5,0.4,1,0.7,1.6,1l0,0
	c14.2,8.5,32.6,4,41.2-10.2c8.5-14.2,4-32.6-10.2-41.2c-0.3-0.2-0.7-0.4-1-0.6l0,0c-0.5-0.3-1-0.5-1.5-0.7l-0.3-0.1l-1.3-0.5
	l-0.3-0.1c-0.5-0.2-0.9-0.4-1.4-0.5l-0.2-0.1c-0.6-0.2-1.1-0.4-1.7-0.5h-0.1c-0.5-0.1-1-0.2-1.6-0.4l-0.5-0.1
	c-0.4-0.1-0.8-0.1-1.2-0.2l-0.6-0.1c-0.4,0-0.8-0.1-1.2-0.1H204c-0.6,0-1.2,0-1.7,0c-16.6,0-30,13.4-30,30c0,0.6,0,1.3,0.1,1.9
	C172.4,340.5,172.4,340.6,172.5,340.8z"/>
<linearGradient id="SVGID_4_" gradientUnits="userSpaceOnUse" x1="216.4424" y1="441.0106" x2="393.9724" y2="107.1206" gradientTransform="matrix(1 0 0 -1 0 602)">
	<stop  offset="0" style="stop-color:#192647"/>
	<stop  offset="0" style="stop-color:#192647;stop-opacity:0.5"/>
	<stop  offset="1" style="stop-color:#192647;stop-opacity:0"/>
</linearGradient>
<path class="st3" d="M250.2,321.3c0,0.6,0.1,1.3,0.1,1.9v0.4c0.1,0.7,0.2,1.5,0.3,2.2l0.1,0.6c0.1,0.6,0.2,1.2,0.3,1.7
	c0,0.2,0.1,0.4,0.1,0.5c0.1,0.7,0.3,1.4,0.5,2.1c0,0.2,0.1,0.4,0.1,0.5c0.1,0.5,0.3,1.1,0.5,1.6c0.1,0.2,0.1,0.4,0.2,0.6
	c0.2,0.7,0.4,1.3,0.7,2l0.2,0.5c0.2,0.5,0.4,1,0.6,1.5l0.3,0.7c0.2,0.5,0.4,1,0.7,1.5l0.3,0.7l0.8,1.5c0.1,0.2,0.3,0.5,0.4,0.8
	l0.7,1.2l0.4,0.7c0.3,0.5,0.7,1,1,1.6l0.5,0.8c0.2,0.3,0.4,0.6,0.7,0.9l0.6,0.8c0.4,0.5,0.7,0.9,1.1,1.4l0.7,0.8
	c0.2,0.2,0.4,0.5,0.6,0.7s0.5,0.6,0.8,0.8s0.5,0.5,0.7,0.7c0.4,0.5,0.9,0.9,1.3,1.3l0.6,0.6l0.9,0.8l0.6,0.5
	c0.6,0.5,1.1,0.9,1.7,1.4l0.5,0.4l1,0.8l0.6,0.4c0.7,0.5,1.5,1,2.2,1.5l0.2,0.1l1.1,0.7l0.6,0.3l1.2,0.6l0,0
	c24.4,13,54.7,3.7,67.7-20.6c13-24.4,3.7-54.7-20.7-67.7l0,0l0,0c-0.8-0.4-1.6-0.8-2.5-1.2l-0.5-0.2c-0.7-0.3-1.4-0.6-2.2-0.9
	l-0.5-0.2c-0.8-0.3-1.6-0.6-2.4-0.9l-0.3-0.1c-0.9-0.3-1.9-0.6-2.8-0.8h-0.1c-0.9-0.2-1.8-0.4-2.6-0.6l-0.8-0.1
	c-0.7-0.1-1.3-0.2-2-0.3l-1-0.1c-0.7-0.1-1.4-0.1-2-0.2l-0.9-0.1c-1,0-1.9-0.1-2.9-0.1c-27.6,0-50,22.4-50,50c0,0.8,0,1.5,0.1,2.3
	L250.2,321.3z"/>
<path class="st4" d="M119.7,320h340.7c16.6,0,30,13.4,30,30l0,0c0,16.6-13.4,30-30,30H119.7c-16.6,0-30-13.4-30-30l0,0
	C89.7,333.4,103.1,320,119.7,320z"/>
<linearGradient id="SVGID_5_" gradientUnits="userSpaceOnUse" x1="490.33" y1="252" x2="228.58" y2="252" gradientTransform="matrix(1 0 0 -1 0 602)">
	<stop  offset="0" style="stop-color:#192647"/>
	<stop  offset="0" style="stop-color:#043263;stop-opacity:0.7"/>
	<stop  offset="1" style="stop-color:#043263;stop-opacity:0"/>
</linearGradient>
<path class="st5" d="M460.3,320H307.2l-33,60h186.1c16.6,0,30-13.4,30-30l0,0C490.3,333.4,476.9,320,460.3,320L460.3,320z"/>
<path class="st6" d="M120,330h340c11,0,20,9,20,20l0,0c0,11-9,20-20,20H120c-11,0-20-9-20-20l0,0C100,339,109,330,120,330z"/>
<path class="st7" d="M458.3,250c0,38.7-31.3,70-70,70s-70-31.3-70-70s31.3-70,70-70S458.3,211.3,458.3,250"/>
<linearGradient id="SVGID_6_" gradientUnits="userSpaceOnUse" x1="330.1934" y1="382.8599" x2="388.2034" y2="352.0099" gradientTransform="matrix(1 0 0 -1 0 602)">
	<stop  offset="0" style="stop-color:#FADE8E"/>
	<stop  offset="1" style="stop-color:#FADE8E;stop-opacity:0.4"/>
</linearGradient>
<path class="st8" d="M421.1,188.2c-34.1-18.2-76.5-5.2-94.7,28.9c-18.2,34.1-5.2,76.5,28.9,94.7l0,0L421.1,188.2z"/>
<path class="st9" d="M396.5,263.8c0-4.6-1.9-6.5-10.5-10.4c-12.6-5.7-16.4-10-16.4-18.9c0-8.6,7.1-14.9,14.2-16.8v-10.7h0.4
	l10.3,4.6v5.9c3.3,0.5,6.4,1.5,9.2,3.2l0.5,0.3l0.3,0.2l-0.1,0.4l-0.1,0.6l-1.3,8.2l-0.2,1.5l-0.2,1l-0.8-0.6l-1.2-0.9
	c-3.3-2.6-7.4-4-11.7-4.1c-5.4,0-8.4,2.4-8.4,6.5c0,3.8,1.9,5.6,10.5,9.5c12.6,5.8,16.7,10.3,16.7,19.7c0,8.7-6.1,15.2-13.2,17.5
	v12.3h-0.9l-9.9-5.5v-6c-3.6-0.4-10-1.8-14-3.9l-0.6-0.3l-0.4-0.2v-0.4l0.1-0.6l1.2-8.3l0.2-1.4l0.1-1l0.8,0.5l1.2,0.8
	c4.4,3,9.5,4.7,14.9,4.9C393,271.3,396.5,268.4,396.5,263.8"/>
<path class="st7" d="M182.5,290c0,16.6-13.4,30-30,30s-30-13.4-30-30s13.4-30,30-30S182.5,273.4,182.5,290L182.5,290"/>
<linearGradient id="SVGID_7_" gradientUnits="userSpaceOnUse" x1="127.5726" y1="325.2338" x2="152.4326" y2="312.0238" gradientTransform="matrix(1 0 0 -1 0 602)">
	<stop  offset="0" style="stop-color:#FADE8E"/>
	<stop  offset="1" style="stop-color:#FADE8E;stop-opacity:0.4"/>
</linearGradient>
<path class="st10" d="M166.6,263.5c-14.6-7.8-32.8-2.2-40.6,12.4c-7.8,14.6-2.2,32.8,12.4,40.6L166.6,263.5z"/>
<path class="st9" d="M156,295.9c0-2-0.8-2.8-4.5-4.5c-5.4-2.5-7-4.3-7-8.1s3-6.4,6.1-7.2v-4.6h0.2l4.4,2v2.5c1.4,0.2,2.8,0.7,4,1.4
	l0.2,0.1l0.1,0.1v0.2l-0.1,0.3l-0.6,3.5l-0.1,0.6l-0.1,0.4l-0.4-0.3l-0.5-0.4c-1.4-1.1-3.2-1.7-5-1.8c-2.3,0-3.6,1-3.6,2.8
	s0.8,2.4,4.5,4.1c5.4,2.5,7.1,4.4,7.1,8.5c0,3.5-2.3,6.5-5.7,7.5v5.3h-0.4l-4.3-2.4v-2.6c-2.1-0.2-4.1-0.8-6-1.7l-0.3-0.1l-0.2-0.1
	v-0.2v-0.3l0.5-3.6l0.1-0.6l0.1-0.4l0.4,0.2l0.5,0.4c1.9,1.3,4.1,2,6.4,2.1C154.5,299.1,156,297.9,156,295.9"/>
<path class="st7" d="M300.3,270c0,27.6-22.4,50-50,50s-50-22.4-50-50s22.4-50,50-50l0,0C277.9,220,300.3,242.4,300.3,270"/>
<linearGradient id="SVGID_8_" gradientUnits="userSpaceOnUse" x1="208.7588" y1="354.0435" x2="250.1888" y2="332.0136" gradientTransform="matrix(1 0 0 -1 0 602)">
	<stop  offset="0" style="stop-color:#FADE8E"/>
	<stop  offset="1" style="stop-color:#FADE8E;stop-opacity:0.4"/>
</linearGradient>
<path class="st11" d="M273.7,225.9c-24.4-13-54.7-3.7-67.6,20.7c-13,24.4-3.7,54.7,20.7,67.6L273.7,225.9z"/>
<path class="st9" d="M256.1,279.8c0-3.3-1.3-4.6-7.5-7.4c-9-4.1-11.7-7.2-11.7-13.5s5.1-10.6,10.2-12v-7.6h0.3l7.4,3.2v4.2
	c2.3,0.3,4.6,1.1,6.6,2.3l0.3,0.2l0.2,0.2l-0.1,0.3l-0.1,0.4l-0.9,5.8l-0.2,1.1l-0.1,0.7l-0.6-0.5l-0.9-0.7
	c-2.4-1.8-5.3-2.9-8.3-2.9c-3.9,0-6,1.7-6,4.7c0,2.7,1.4,4,7.5,6.8c9,4.1,11.9,7.4,11.9,14.1c-0.1,5.8-3.9,10.8-9.4,12.5v8.8h-0.6
	l-7-4v-4.3c-3.5-0.4-6.8-1.4-10-2.8l-0.4-0.2l-0.3-0.1v-0.3l0.1-0.5l0.9-6l0.2-1l0.1-0.7l0.6,0.4l0.9,0.6c3.1,2.2,6.8,3.4,10.6,3.5
	C253.6,285.2,256.1,283.1,256.1,279.8"/>
<circle class="st12" cx="120" cy="350" r="15"/>
<circle class="st12" cx="460" cy="350" r="15"/>
</svg>
