<svg id="Contenido" xmlns="http://www.w3.org/2000/svg" xmlns:xlink="http://www.w3.org/1999/xlink" viewBox="0 0 600 600"><defs><style>.cls-1{fill:url(#Degradado_sin_nombre_19);}.cls-2{fill:#c4e5e7;}.cls-3{fill:url(#linear-gradient);}.cls-4{fill:#02a5a5;}.cls-5{fill:#5ac4c4;}.cls-6{fill:#59a96e;}.cls-7{fill:#fff;}</style><linearGradient id="Degradado_sin_nombre_19" x1="296.41" y1="178.32" x2="462.35" y2="490.42" gradientUnits="userSpaceOnUse"><stop offset="0" stop-color="#192647" stop-opacity="0.5"/><stop offset="1" stop-color="#192647" stop-opacity="0"/></linearGradient><linearGradient id="linear-gradient" x1="-9737.34" y1="5047.99" x2="-9577.78" y2="5047.99" gradientTransform="translate(-4714.32 -9324.2) rotate(-90)" gradientUnits="userSpaceOnUse"><stop offset="0" stop-color="#028484"/><stop offset="1" stop-color="#028484" stop-opacity="0"/></linearGradient></defs><title>GLOMO</title><path class="cls-1" d="M454.8,107.39a65,65,0,0,0-64.94,61.81l-5.93,5.93h0l-11.76-11.75-11.76,11.75h0l-11.75-11.75L336.9,175.13h-.63l-11.75-11.75-11.76,11.75h-.25v154H265.33a20.14,20.14,0,0,0-20.14,20.16l.22,144.41h.19v31.1l-.09.09,11.76,11.75L269,524.87h0l11.76,11.75,11.76-11.75h0l11.76,11.75,11.75-11.75h0l11.76,11.75,11.75-11.75h0l11.76,11.75,11.75-11.75h.64l11.75,11.75,11.76-11.75h.25V467.62h50.18a16.78,16.78,0,0,0,16.78-16.78c0-.09,0-.18,0-.27V299.79h0V237.38h.38a65,65,0,1,0,.05-130Z"/><path class="cls-2" d="M287.08,125.13h-.64l-11.75-11.75-11.76,11.75h-.25V417.62H387.79a16.78,16.78,0,0,0,16.78-16.78c0-.09,0-.18,0-.27V125.22l.09-.09-11.76-11.75-11.75,11.75h0l-11.76-11.75-11.76,11.75h0l-11.76-11.75L334.1,125.13h0l-11.76-11.75-11.75,11.75h0l-11.76-11.75Z"/><path class="cls-3" d="M404.58,249.79H262.72V417.62h125.1a16.79,16.79,0,0,0,16.79-16.78c0-.09,0-.18,0-.27"/><path class="cls-4" d="M337.44,296v121.6h50.35A16.78,16.78,0,0,1,371,400.84V296a16.79,16.79,0,0,0-33.57,0Z"/><path class="cls-2" d="M354.22,279.11H215.5a20.14,20.14,0,0,0-20.14,20.16l.23,144.41h.19v31.1l-.1.09,11.76,11.75,11.76-11.75h0L231,486.62l11.75-11.75h0l11.76,11.75,11.75-11.75h0L278,486.62l11.76-11.75h0l11.75,11.75,11.76-11.75h.63l11.75,11.75,11.76-11.75h.25V309.38h-.2V295.9A16.79,16.79,0,0,1,354.22,279.11Z"/><path class="cls-5" d="M378,162.38H286.18a5,5,0,0,1,0-10H378a5,5,0,0,1,0,10Z"/><path class="cls-5" d="M378,184.8H286.18a5,5,0,0,1,0-10H378a5,5,0,0,1,0,10Z"/><path class="cls-5" d="M378.37,207.37H286.6a5,5,0,0,1,0-10h91.77a5,5,0,0,1,0,10Z"/><path class="cls-5" d="M378,229.93H286.18a5,5,0,0,1,0-10H378a5,5,0,0,1,0,10Z"/><path class="cls-5" d="M337.84,252.5H286.18a5,5,0,0,1,0-10h51.66a5,5,0,0,1,0,10Z"/><path class="cls-5" d="M312,327.38H220.18a5,5,0,1,1,0-10H312a5,5,0,0,1,0,10Z"/><path class="cls-5" d="M274.83,349.8H220.18a5,5,0,0,1,0-10h54.65a5,5,0,0,1,0,10Z"/><path class="cls-5" d="M274.83,394.93H220.18a5,5,0,0,1,0-10h54.65a5,5,0,0,1,0,10Z"/><path class="cls-5" d="M271.84,417.5H220.18a5,5,0,0,1,0-10h51.66a5,5,0,0,1,0,10Z"/><path class="cls-6" d="M470,122.41a65,65,0,1,1-65-65,65,65,0,0,1,65,65"/><path class="cls-7" d="M391.52,150.8a5,5,0,0,1-3.54-1.47l-20-20a5,5,0,1,1,7.08-7.06l16.47,16.5,43.34-43.26a5,5,0,1,1,7.06,7.07l-46.88,46.8A5,5,0,0,1,391.52,150.8Z"/></svg>