<svg xmlns="http://www.w3.org/2000/svg" xmlns:xlink="http://www.w3.org/1999/xlink" viewBox="0 0 600 600"><defs><style>.cls-1{fill:none;}.cls-2{fill:url(#Degradado_sin_nombre_43);}.cls-3{fill:#1464a5;}.cls-4{fill:#49a5e6;}.cls-5{opacity:0.5;isolation:isolate;fill:url(#Degradado_sin_nombre_42);}.cls-6{fill:#08467f;}.cls-7{fill:#2dcccd;}</style><linearGradient id="Degradado_sin_nombre_43" x1="247.53" y1="-3851.15" x2="459.13" y2="-4249.1" gradientTransform="matrix(1, 0, 0, -1, 0, -3699.17)" gradientUnits="userSpaceOnUse"><stop offset="0" stop-color="#192647" stop-opacity="0.5"/><stop offset="1" stop-color="#192647" stop-opacity="0"/></linearGradient><linearGradient id="Degradado_sin_nombre_42" x1="216.01" y1="71.21" x2="370.27" y2="225.47" gradientTransform="translate(0 144.55)" gradientUnits="userSpaceOnUse"><stop offset="0" stop-color="#fff" stop-opacity="0.5"/><stop offset="1" stop-color="#ecf7f8" stop-opacity="0.1"/></linearGradient></defs><g id="Capa_37" data-name="Capa 37"><rect class="cls-1" x="0.05" width="600" height="600"/><g id="Capa_16" data-name="Capa 16"><path class="cls-2" d="M260.89,147.85h184.9A22.13,22.13,0,0,1,467.89,170V532a22.12,22.12,0,0,1-22.1,22.1H260.89a22.12,22.12,0,0,1-22.1-22.1V170a22.14,22.14,0,0,1,22.06-22.2Z"/><path class="cls-3" d="M207.55,96.85h184.9A22.13,22.13,0,0,1,414.55,119V481a22.12,22.12,0,0,1-22.1,22.1H207.55a22.12,22.12,0,0,1-22.1-22.1V119a22.13,22.13,0,0,1,22.06-22.2h0Z"/><rect class="cls-4" x="185.45" y="147.85" width="229.2" height="304.3"/><polygon class="cls-5" points="185.75 148.05 185.75 451.95 302.55 452.15 414.55 245.15 414.55 147.85 185.75 148.05"/><circle class="cls-6" cx="299.88" cy="300.02" r="61.08"/><g id="App-Store"><path id="icon-apple-store" class="cls-7" d="M312.84,264a15,15,0,0,1-1.18,5.53,16.48,16.48,0,0,1-3.76,5.56,11.75,11.75,0,0,1-4.39,2.92,22,22,0,0,1-4.18.68,18.07,18.07,0,0,1,3.14-10.39c2-2.93,5.43-4.92,10.14-6a3.91,3.91,0,0,1,.2.9V264m-12.36,16.32a20.44,20.44,0,0,0,5.81-1.38,21.78,21.78,0,0,1,7-1.38,14.91,14.91,0,0,1,8.65,2.62,20.82,20.82,0,0,1,4.21,4.07,27.87,27.87,0,0,0-4.63,4.77,14.25,14.25,0,0,0-2.64,8.37,15.35,15.35,0,0,0,2.81,9,12.11,12.11,0,0,0,6.4,5.08,40.91,40.91,0,0,1-5,10.14c-3.51,5.28-7,8-10.42,8a18.83,18.83,0,0,1-5.68-1.29,18.43,18.43,0,0,0-6.09-1.29,15.26,15.26,0,0,0-5.79,1.37,15.11,15.11,0,0,1-5.36,1.38c-4.13,0-8.2-3.51-12.16-10.51s-6-13.7-6-20.36c0-6.18,1.52-11.23,4.55-15.11A14.07,14.07,0,0,1,287.73,278a25.67,25.67,0,0,1,7.16,1.23,29.47,29.47,0,0,0,5.59,1.13"/></g></g></g></svg>