<svg id="Contenido" xmlns="http://www.w3.org/2000/svg" xmlns:xlink="http://www.w3.org/1999/xlink" viewBox="0 0 600 600"><defs><style>.cls-1{fill:url(#Degradado_sin_nombre_4);}.cls-2{fill:#043263;}.cls-3{fill:#1464a5;}.cls-4{fill:url(#Degradado_sin_nombre_8);}.cls-5{fill:#2dcccd;}.cls-6{fill:#004481;}.cls-7{fill:#f8cd50;}.cls-8{fill:url(#Degradado_sin_nombre_3);}.cls-9{fill:url(#Degradado_sin_nombre_3-2);}.cls-10{fill:url(#Degradado_sin_nombre_3-3);}</style><linearGradient id="Degradado_sin_nombre_4" x1="185.11" y1="127.9" x2="414.24" y2="558.84" gradientUnits="userSpaceOnUse"><stop offset="0" stop-color="#192647" stop-opacity="0.5"/><stop offset="1" stop-color="#192647" stop-opacity="0"/></linearGradient><linearGradient id="Degradado_sin_nombre_8" x1="390.03" y1="395.97" x2="233.95" y2="395.97" gradientUnits="userSpaceOnUse"><stop offset="0" stop-color="#043263" stop-opacity="0.6"/><stop offset="1" stop-color="#043263" stop-opacity="0"/></linearGradient><linearGradient id="Degradado_sin_nombre_3" x1="124.02" y1="106.86" x2="287.75" y2="270.6" gradientUnits="userSpaceOnUse"><stop offset="0.01" stop-color="#fff" stop-opacity="0.5"/><stop offset="1" stop-color="#fff" stop-opacity="0.1"/></linearGradient><linearGradient id="Degradado_sin_nombre_3-2" x1="157.1" y1="80.22" x2="313.54" y2="236.66" xlink:href="#Degradado_sin_nombre_3"/><linearGradient id="Degradado_sin_nombre_3-3" x1="180.31" y1="53.14" x2="336.57" y2="209.41" xlink:href="#Degradado_sin_nombre_3"/></defs><title>vacantes</title><path class="cls-1" d="M462.9,390.36l-114-72.47a2,2,0,0,0-2.16,0l-114,72.47a15.42,15.42,0,0,0-4.74,21.29l3,4.72L257,420V526.77a2,2,0,0,0,2,2H436.75a2,2,0,0,0,2-2V420l25.88-3.59,3-4.72A15.42,15.42,0,0,0,462.9,390.36Z"/><path class="cls-2" d="M182.33,367.69l116.79,16.2,116.79-16.2-115.71-74a2,2,0,0,0-2.16,0Z"/><path class="cls-3" d="M208.21,351.13l89.84-57.46a2,2,0,0,1,2.14,0L390,351.13v127a2,2,0,0,1-2,2H210.23a2,2,0,0,1-2-2Z"/><path class="cls-4" d="M328.6,311.84,390,351.13v127a2,2,0,0,1-2,2H234"/><path class="cls-5" d="M278.72,393h40.81a2.74,2.74,0,0,1,2.74,2.74v84.41a0,0,0,0,1,0,0H276a0,0,0,0,1,0,0V395.69A2.74,2.74,0,0,1,278.72,393Z"/><path class="cls-6" d="M298,269.21l-114,72.47a15.42,15.42,0,0,0-4.74,21.3l3,4.71,115.71-74a2,2,0,0,1,2.16,0l115.71,74,3-4.71a15.43,15.43,0,0,0-4.75-21.3l-114-72.47A2,2,0,0,0,298,269.21Z"/><path class="cls-7" d="M245.39,252.79l-16.1-14.86a2.75,2.75,0,0,1-.08-4A99.33,99.33,0,0,1,300,204.16a98.23,98.23,0,0,1,68.68,27.69,2.75,2.75,0,0,1,0,4l-15.64,15.33a2.72,2.72,0,0,1-3.78,0A71.1,71.1,0,0,0,300,231.52a71.86,71.86,0,0,0-50.87,21.2A2.74,2.74,0,0,1,245.39,252.79Z"/><path class="cls-7" d="M197.17,204.84l-15.83-15.13a2.73,2.73,0,0,1-.07-3.89,167,167,0,0,1,235.51-2,2.73,2.73,0,0,1,0,3.89l-15.57,15.4a2.73,2.73,0,0,1-3.84,0A139.63,139.63,0,0,0,201,204.77,2.73,2.73,0,0,1,197.17,204.84Z"/><path class="cls-7" d="M149.1,156.88l-15.72-15.24a2.74,2.74,0,0,1,0-3.89,234.86,234.86,0,0,1,331.45-2,2.75,2.75,0,0,1,0,3.89L449.24,155.1a2.74,2.74,0,0,1-3.85,0A207.48,207.48,0,0,0,153,156.83,2.75,2.75,0,0,1,149.1,156.88Z"/><path class="cls-8" d="M229.29,237.93l10.06,9.28L257,214A98.82,98.82,0,0,0,229.21,234,2.75,2.75,0,0,0,229.29,237.93Z"/><path class="cls-9" d="M181.34,189.71l15.82,15.13a2.74,2.74,0,0,0,3.85-.07,138.16,138.16,0,0,1,82.29-40.21l15.06-28.33a165.42,165.42,0,0,0-117.09,49.59A2.73,2.73,0,0,0,181.34,189.71Z"/><path class="cls-10" d="M300,68.32a234.11,234.11,0,0,0-166.71,69.43,2.74,2.74,0,0,0,0,3.89l15.72,15.24a2.75,2.75,0,0,0,3.85,0A205.76,205.76,0,0,1,300,95.68q9.78,0,19.4.9l13.79-25.94A238.67,238.67,0,0,0,300,68.32Z"/></svg>