<svg xmlns="http://www.w3.org/2000/svg" xmlns:xlink="http://www.w3.org/1999/xlink" viewBox="0 0 600 600"><defs><style>.cls-1{fill:none;}.cls-2{fill:url(#Degradado_sin_nombre_4);}.cls-3{fill:#072146;}.cls-4{fill:#49a5e6;}.cls-5{fill:url(#Degradado_sin_nombre_5);}.cls-6{fill:#2dcccd;}.cls-7{fill:#043263;}.cls-8{fill:#f8cd50;}.cls-9{fill:url(#Degradado_sin_nombre_6);}.cls-10{fill:url(#Degradado_sin_nombre_6-2);}.cls-11{fill:url(#Degradado_sin_nombre_6-3);}</style><linearGradient id="Degradado_sin_nombre_4" x1="261.45" y1="265.77" x2="425.21" y2="573.75" gradientUnits="userSpaceOnUse"><stop offset="0" stop-color="#192647" stop-opacity="0.5"/><stop offset="1" stop-color="#192647" stop-opacity="0"/></linearGradient><linearGradient id="Degradado_sin_nombre_5" x1="390.94" y1="-2157.99" x2="234.94" y2="-2157.99" gradientTransform="matrix(1, 0, 0, -1, 0, -1762)" gradientUnits="userSpaceOnUse"><stop offset="0" stop-color="#043263" stop-opacity="0.4"/><stop offset="1" stop-color="#043263" stop-opacity="0"/></linearGradient><linearGradient id="Degradado_sin_nombre_6" x1="124.98" y1="-1868.85" x2="288.71" y2="-2032.59" gradientTransform="matrix(1, 0, 0, -1, 0, -1762)" gradientUnits="userSpaceOnUse"><stop offset="0.01" stop-color="#fff" stop-opacity="0.5"/><stop offset="1" stop-color="#fff" stop-opacity="0.1"/></linearGradient><linearGradient id="Degradado_sin_nombre_6-2" x1="158.04" y1="-1842.22" x2="314.48" y2="-1998.66" xlink:href="#Degradado_sin_nombre_6"/><linearGradient id="Degradado_sin_nombre_6-3" x1="181.22" y1="-1815.17" x2="337.48" y2="-1971.44" xlink:href="#Degradado_sin_nombre_6"/></defs><title>4</title><g id="Cuadrados_Blancos" data-name="Cuadrados Blancos"><rect class="cls-1" width="600" height="600"/></g><g id="Capa_3" data-name="Capa 3"><path class="cls-2" d="M465.9,390.36l-114-72.47a2,2,0,0,0-2.16,0l-114,72.47A15.42,15.42,0,0,0,231,411.65h0l3,4.72L260,420V526.77a2,2,0,0,0,2,2H439.75a2,2,0,0,0,2-2V420l25.88-3.59,3-4.72a15.42,15.42,0,0,0-4.68-21.3Z"/><path class="cls-3" d="M183.27,367.69l116.79,16.2,116.79-16.2-115.71-74a2,2,0,0,0-2.16,0Z"/><path class="cls-4" d="M209.15,351.13,299,293.67a2,2,0,0,1,2.14,0l89.81,57.46v127a2,2,0,0,1-2,2H211.17a2,2,0,0,1-2-2Z"/><path class="cls-5" d="M329.54,311.84l61.4,39.29v127a2,2,0,0,1-2,2h-154"/><path class="cls-6" d="M279.66,393h40.81a2.74,2.74,0,0,1,2.74,2.74v84.41H276.94V395.69A2.74,2.74,0,0,1,279.66,393Z"/><path class="cls-7" d="M298.94,269.21l-114,72.47A15.42,15.42,0,0,0,180.19,363v0l3,4.71,115.71-74a2,2,0,0,1,2.16,0l115.71,74,3-4.71a15.43,15.43,0,0,0-4.75-21.3h0L301,269.21A2,2,0,0,0,298.94,269.21Z"/><path class="cls-8" d="M246.33,252.79l-16.1-14.86a2.75,2.75,0,0,1-.19-3.88l.11-.12a99.34,99.34,0,0,1,70.79-29.77,98.22,98.22,0,0,1,68.68,27.69,2.74,2.74,0,0,1,.11,3.89l-.11.11L354,251.18a2.72,2.72,0,0,1-3.78,0,71.09,71.09,0,0,0-49.26-19.66,71.87,71.87,0,0,0-50.87,21.2A2.75,2.75,0,0,1,246.33,252.79Z"/><path class="cls-8" d="M198.11,204.84l-15.83-15.13a2.73,2.73,0,0,1-.1-3.86l0,0a167,167,0,0,1,235.51-2,2.72,2.72,0,0,1,0,3.86l0,0-15.57,15.4a2.73,2.73,0,0,1-3.84,0,139.64,139.64,0,0,0-196.37,1.66A2.72,2.72,0,0,1,198.11,204.84Z"/><path class="cls-8" d="M150,156.88l-15.72-15.24a2.73,2.73,0,0,1,0-3.87v0c91.09-91.81,239.26-92.71,331.45-2a2.74,2.74,0,0,1,0,3.89h0L450.18,155.1a2.75,2.75,0,0,1-3.85,0C365,75.24,234.37,76,153.94,156.83a2.75,2.75,0,0,1-3.89.06Z"/><path class="cls-9" d="M230.23,237.93l10.06,9.28L257.94,214a99,99,0,0,0-27.79,20,2.76,2.76,0,0,0,0,3.89Z"/><path class="cls-10" d="M182.28,189.71l15.82,15.13a2.75,2.75,0,0,0,3.85-.07,138.19,138.19,0,0,1,82.29-40.21l15.06-28.33a165.43,165.43,0,0,0-117.09,49.59,2.73,2.73,0,0,0,0,3.86Z"/><path class="cls-11" d="M300.94,68.32a234.12,234.12,0,0,0-166.71,69.43,2.73,2.73,0,0,0,0,3.87v0L150,156.88a2.75,2.75,0,0,0,3.85,0,205.77,205.77,0,0,1,147.14-61.2q9.78,0,19.4.9l13.79-25.94A239.17,239.17,0,0,0,300.94,68.32Z"/></g></svg>