<svg xmlns="http://www.w3.org/2000/svg" xmlns:xlink="http://www.w3.org/1999/xlink" viewBox="0 0 600 600"><defs><style>.cls-1{fill:none;}.cls-2{fill:url(#Degradado_sin_nombre_32);}.cls-3{fill:#1464a5;}.cls-4{fill:url(#Degradado_sin_nombre_8);}.cls-5{fill:#ffcc28;}.cls-6{fill:#fff;}.cls-7{fill:#00d0cf;}.cls-8{fill:#003267;}</style><linearGradient id="Degradado_sin_nombre_32" x1="181.84" y1="30.98" x2="457.02" y2="548.52" gradientUnits="userSpaceOnUse"><stop offset="0" stop-color="#192647" stop-opacity="0.5"/><stop offset="1" stop-color="#192647" stop-opacity="0"/></linearGradient><linearGradient id="Degradado_sin_nombre_8" x1="472.22" y1="3423.82" x2="219.39" y2="3423.82" gradientTransform="matrix(1, 0, 0, -1, 0, 3734)" gradientUnits="userSpaceOnUse"><stop offset="0" stop-color="#043263"/><stop offset="1" stop-color="#043263" stop-opacity="0"/></linearGradient></defs><title>15</title><g id="Cuadrados_Blancos" data-name="Cuadrados Blancos"><rect class="cls-1" width="600" height="600"/></g><g id="Capa_31" data-name="Capa 31"><circle class="cls-2" cx="352" cy="351" r="172"/><circle class="cls-3" cx="300" cy="300" r="172"/><path class="cls-4" d="M380.91,148.19,219.39,452A172,172,0,0,0,380.91,148.19Z"/><path class="cls-5" d="M211.29,262.74a5,5,0,0,1-5-5V211.29a5,5,0,0,1,5-5h46.45a5,5,0,0,1,0,10H216.29v41.45A5,5,0,0,1,211.29,262.74Z"/><path class="cls-5" d="M388.71,262.74a5,5,0,0,1-5-5V216.29H342.26a5,5,0,0,1,0-10h46.45a5,5,0,0,1,5,5v46.45a5,5,0,0,1-5,5Z"/><path class="cls-5" d="M388.71,393.71H342.26a5,5,0,0,1,0-10h41.45V342.26a5,5,0,0,1,10,0v46.45a5,5,0,0,1-5,5Z"/><path class="cls-5" d="M257.74,393.71H211.29a5,5,0,0,1-5-5V342.26a5,5,0,0,1,10,0v41.45h41.45a5,5,0,0,1,0,10Z"/><path class="cls-6" d="M300,246.5c-37.05,0-69.65,20.9-88.62,52.59a1.77,1.77,0,0,0,0,1.83c19,31.68,51.57,52.57,88.62,52.57s69.65-20.89,88.62-52.58a1.77,1.77,0,0,0,0-1.83C369.65,267.4,337.05,246.5,300,246.5Z"/><circle class="cls-7" cx="300" cy="299.99" r="44.58"/><path class="cls-7" d="M320.93,260.64l-41.86,78.73a44.58,44.58,0,1,0,41.86-78.73Z"/><circle class="cls-8" cx="300" cy="299.99" r="20.81"/></g></svg>