<svg xmlns="http://www.w3.org/2000/svg" xmlns:xlink="http://www.w3.org/1999/xlink" viewBox="0 0 600 600"><defs><style>.cls-1{fill:none;}.cls-2{fill:url(#Degradado_sin_nombre_370);}.cls-3{fill:#043263;}.cls-4{fill:#072146;}.cls-5{fill:#f4f4f4;}.cls-6{fill:#ccc;}.cls-7{fill:url(#Degradado_sin_nombre_31);}.cls-8{fill:#cb353a;}</style><linearGradient id="Degradado_sin_nombre_370" x1="243.21" y1="201.84" x2="429.39" y2="551.99" gradientUnits="userSpaceOnUse"><stop offset="0" stop-color="#192647" stop-opacity="0.5"/><stop offset="1" stop-color="#192647" stop-opacity="0"/></linearGradient><linearGradient id="Degradado_sin_nombre_31" x1="2834.38" y1="-10495.31" x2="2654.79" y2="-10590.8" gradientTransform="matrix(0.88, 0.47, 0.47, -0.88, 2920.86, -10281.04)" gradientUnits="userSpaceOnUse"><stop offset="0" stop-color="#043263" stop-opacity="0.1"/><stop offset="1" stop-color="#043263" stop-opacity="0"/></linearGradient></defs><title>11</title><g id="Cuadrados_Blancos" data-name="Cuadrados Blancos"><rect class="cls-1" width="600" height="600"/></g><g id="Capa_99" data-name="Capa 99"><path class="cls-2" d="M544.2,353.29l-37-19.7L528.77,293h0a23,23,0,0,0-9.51-31.1L335.61,164.2h0a23,23,0,0,0-31.1,9.51L215.92,340.22a23,23,0,0,0-1.76,24.62L148.47,488.37a3,3,0,0,0,1.24,4.06L170.9,503.7a3,3,0,0,0,4.06-1.24l85.47-160.75L383.14,407l-32.38,60.91a23,23,0,0,0,9.51,31.1l83,44.13a3,3,0,0,0,4.05-1.24l98.12-184.54A3,3,0,0,0,544.2,353.29Z"/><path class="cls-3" d="M196.92,285.23a23,23,0,0,0-22.06,40.37l.46.24Z"/><path class="cls-4" d="M192.45,265.93,218.94,280h0L126.46,454a3,3,0,0,1-4.06,1.24h0l-21.19-11.27a3,3,0,0,1-1.24-4.06h0l92.48-173.94Z"/><path class="cls-5" d="M392.4,249.86l103.3,54.93a3,3,0,0,1,1.24,4L398.82,493.38a3,3,0,0,1-4.05,1.24l-83-44.13a23,23,0,0,1-9.51-31.1L392.4,249.86Z"/><path class="cls-5" d="M390.08,414h0a23,23,0,0,0-9.51-31.1h0L196.92,285.23h0a23,23,0,0,0-31.11,9.5h0L256,125.21a23,23,0,0,1,31.1-9.51h0l183.65,97.65a23,23,0,0,1,9.51,31.1h0Z"/><circle class="cls-6" cx="369.77" cy="403.19" r="23"/><path class="cls-6" d="M359,423.49l-25.6-13.61h0a23,23,0,0,0-31.11,9.5h0l32.4-60.92,45.91,24.41Z"/><path class="cls-7" d="M470.71,213.35l-101-53.73L279.52,329.15l101.05,53.73a23,23,0,0,1,9.51,31.1l90.14-169.52a23,23,0,0,0-9.5-31.11Z"/><circle class="cls-8" cx="324.5" cy="244.5" r="57"/></g></svg>