<svg xmlns="http://www.w3.org/2000/svg" xmlns:xlink="http://www.w3.org/1999/xlink" viewBox="0 0 600 600"><defs><style>.cls-1{fill:none;}.cls-2{fill:url(#Degradado_sin_nombre_200);}.cls-3{fill:url(#Degradado_sin_nombre_212);}.cls-4{fill:#004481;}.cls-5{fill:#49a5e6;}.cls-6{fill:#1464a5;}.cls-7{fill:#043263;}.cls-8{fill:#f8cd50;}.cls-9{fill:url(#Degradado_sin_nombre_206);}.cls-10{fill:url(#Degradado_sin_nombre_206-2);}</style><linearGradient id="Degradado_sin_nombre_200" x1="329.65" y1="-14749.78" x2="350.42" y2="-14770.55" gradientTransform="matrix(1, 0, 0, -1, 0, -14660.25)" gradientUnits="userSpaceOnUse"><stop offset="0" stop-color="#fff" stop-opacity="0.5"/><stop offset="1" stop-color="#fff" stop-opacity="0"/></linearGradient><linearGradient id="Degradado_sin_nombre_212" x1="248.72" y1="-14815.68" x2="463.64" y2="-15219.87" gradientTransform="matrix(1, 0, 0, -1, 0, -14660.25)" gradientUnits="userSpaceOnUse"><stop offset="0" stop-color="#1c2645"/><stop offset="0" stop-color="#1c2645" stop-opacity="0.5"/><stop offset="1" stop-color="#1c2645" stop-opacity="0"/></linearGradient><linearGradient id="Degradado_sin_nombre_206" x1="253.6" y1="-15123.74" x2="187.47" y2="-15123.74" gradientTransform="matrix(1, 0, 0, -1, 0, -14660.25)" gradientUnits="userSpaceOnUse"><stop offset="0" stop-color="#043263" stop-opacity="0.5"/><stop offset="1" stop-color="#043263" stop-opacity="0"/></linearGradient><linearGradient id="Degradado_sin_nombre_206-2" x1="397.49" y1="-15154.49" x2="331.93" y2="-15154.49" xlink:href="#Degradado_sin_nombre_206"/></defs><g id="Cuadrados_Blancos" data-name="Cuadrados Blancos"><rect class="cls-1" width="600" height="600"/></g><g id="Capa_130" data-name="Capa 130"><path class="cls-2" d="M334.45,87.3a4,4,0,0,0-4.74,3.09h0l-3.8,17.89A4,4,0,0,0,329,113l15.44,3.28,12.85-24.15Z"/><path class="cls-3" d="M500.23,167.87,425.71,152l.3-1.41a4,4,0,0,0-3.07-4.75h0l-15.45-3.28h0l-22.82-4.85a3.72,3.72,0,0,0-.81-.09,4.05,4.05,0,0,0-3.94,3.17l-.3,1.41-74.52-15.84a3.4,3.4,0,0,0-3.88,2.11l-6.45,16.78a3.41,3.41,0,0,0,1.95,4.4,4.44,4.44,0,0,0,.52.15l1,.21L271.7,230.66h.36l-14,41.45q-15.44,49.08-26.14,99.48L210.38,473a3.38,3.38,0,0,0-3.23,2.68l-9.59,45.1a3.4,3.4,0,0,0,2.62,4l37.5,8h0L289,543.65a3.41,3.41,0,0,0,3.8-1.9,4.83,4.83,0,0,0,.22-.64l10.67-44.87a3.39,3.39,0,0,0-2-3.92l28.78-114.64a346.09,346.09,0,0,1,18.41-54L374,266.07a3.4,3.4,0,0,1,6.52,1.39L380,330.25a346.23,346.23,0,0,1-5.16,56.85L354.48,503.53A3.39,3.39,0,0,0,351,506.3l-8.5,45.33a3.41,3.41,0,0,0,2.64,4L434,574.48a3.54,3.54,0,0,0,1.35,0,3.42,3.42,0,0,0,2.15-1.4,3.26,3.26,0,0,0,.53-1.24l9.59-45.1a3.83,3.83,0,0,0,.08-.68,3.58,3.58,0,0,0-.25-1.3,3.47,3.47,0,0,0-1.21-1.52,2.77,2.77,0,0,0-.48-.26l21.55-101.36Q478,371.29,483.93,320.12L488,276.56l.35.15,8.57-84.44,1,.21a3.41,3.41,0,0,0,4-2.63,3.09,3.09,0,0,0,.07-.52l.93-18A3.4,3.4,0,0,0,500.23,167.87Z"/><path class="cls-4" d="M433.73,269.68l13.95-149.59L351.81,99.71,256,79.34,207.9,221.67q-15.42,49.1-26.14,99.48L149.64,472.08l89.51,19,41.13-163.85a346.45,346.45,0,0,1,18.41-54l25.08-57.57a3.4,3.4,0,0,1,6.52,1.38l-.51,62.8a347.33,347.33,0,0,1-5.16,56.85l-29.08,166.4,89.52,19L417.14,371.2Q427.84,320.86,433.73,269.68Z"/><path class="cls-5" d="M250.92,441.69,161,422.58a3.4,3.4,0,0,0-4,2.62l-9.59,45.1a3.4,3.4,0,0,0,2.63,4l88.85,18.89a3.41,3.41,0,0,0,4-2.54l10.68-44.87a3.4,3.4,0,0,0-2.58-4.07Z"/><path class="cls-5" d="M304.89,453.16l89.94,19.12a3.41,3.41,0,0,1,2.63,4l-9.59,45.1a3.4,3.4,0,0,1-4,2.62L295,505.15a3.4,3.4,0,0,1-2.63-3.95l8.5-45.33a3.41,3.41,0,0,1,4-2.72Z"/><path class="cls-6" d="M350,108.35l-19,89.23a3.15,3.15,0,0,0,2.43,3.73,3,3,0,0,0,.74.07c7.59-.26,23.73-2.92,27.47-20.49l14.81-69.66"/><path class="cls-6" d="M400,179s-3,29.73,38.12,47.3l9.08-89.4-41.08-8.74Z"/><path class="cls-6" d="M275.56,152.53s-9.37,28.37-54.06,27.7l28.07-85.36,41.08,8.73Z"/><path class="cls-7" d="M452.72,120.94a3.39,3.39,0,0,0-2.69-3.5L352.46,96.7,254.89,76A3.4,3.4,0,0,0,251,78.07l-6.45,16.77a3.4,3.4,0,0,0,1.94,4.4,4.91,4.91,0,0,0,.51.15l200.66,42.66a3.41,3.41,0,0,0,4-2.63,3.21,3.21,0,0,0,.07-.53Z"/><rect class="cls-8" x="337.7" y="80.67" width="26.3" height="47.12" rx="4" transform="translate(175.96 425.74) rotate(-78)"/><path class="cls-9" d="M250.92,441.69l-37.61-8-25.84,48.6,51.36,10.92a3.41,3.41,0,0,0,4-2.54l10.68-44.87a3.42,3.42,0,0,0-2.54-4.1Z"/><path class="cls-10" d="M394.83,472.28l-37.06-7.87L331.93,513l51.9,11a3.4,3.4,0,0,0,4-2.62l9.59-45.1A3.4,3.4,0,0,0,394.83,472.28Z"/><path class="cls-2" d="M334.45,87.3a4,4,0,0,0-4.74,3.09h0l-3.8,17.89A4,4,0,0,0,329,113l15.44,3.28,12.85-24.15Z"/></g></svg>