<svg id="Contenido" xmlns="http://www.w3.org/2000/svg" xmlns:xlink="http://www.w3.org/1999/xlink" viewBox="0 0 600 600"><defs><style>.cls-1{fill:url(#Degradado_sin_nombre_40);}.cls-2{fill:url(#Degradado_sin_nombre_41);}.cls-3{fill:#1464a5;}.cls-4{fill:url(#Degradado_sin_nombre_43);}.cls-5{fill:#043263;}.cls-6{fill:#2dcccd;}.cls-7{fill:url(#Degradado_sin_nombre_43-2);}.cls-8{fill:#49a5e6;}.cls-9{fill:#c49735;}.cls-10{fill:#fade8e;}.cls-11{fill:url(#Degradado_sin_nombre_5);}.cls-12{fill:#f8cd50;}.cls-13{fill:url(#Degradado_sin_nombre_5-2);}</style><linearGradient id="Degradado_sin_nombre_40" x1="283.7" y1="183.39" x2="483.23" y2="558.65" gradientUnits="userSpaceOnUse"><stop offset="0.01" stop-color="#043263" stop-opacity="0.5"/><stop offset="1" stop-color="#043263" stop-opacity="0"/></linearGradient><linearGradient id="Degradado_sin_nombre_41" x1="292.04" y1="228.81" x2="478.26" y2="579.04" gradientUnits="userSpaceOnUse"><stop offset="0" stop-color="#043263" stop-opacity="0.5"/><stop offset="1" stop-color="#043263" stop-opacity="0"/></linearGradient><linearGradient id="Degradado_sin_nombre_43" x1="309.49" y1="272.94" x2="196.49" y2="272.94" gradientUnits="userSpaceOnUse"><stop offset="0.01" stop-color="#043263" stop-opacity="0.5"/><stop offset="1" stop-color="#043263" stop-opacity="0.1"/></linearGradient><linearGradient id="Degradado_sin_nombre_43-2" x1="452.27" y1="272.73" x2="342.42" y2="272.73" xlink:href="#Degradado_sin_nombre_43"/><linearGradient id="Degradado_sin_nombre_5" x1="508.55" y1="363.17" x2="436.91" y2="434.81" gradientTransform="translate(807.15 863.11) rotate(180)" gradientUnits="userSpaceOnUse"><stop offset="0" stop-color="#fff" stop-opacity="0.6"/><stop offset="1" stop-color="#fff" stop-opacity="0.2"/></linearGradient><linearGradient id="Degradado_sin_nombre_5-2" x1="494.22" y1="395.65" x2="418.33" y2="471.54" xlink:href="#Degradado_sin_nombre_5"/></defs><title>momentum</title><path class="cls-1" d="M351.39,342.84a3.18,3.18,0,0,0,3.25,3.13l14.89-.31a3.2,3.2,0,0,0,3.13-3.19v-1.72l10.86-.22v46h-5.31a3.19,3.19,0,0,0-3.2,3.19v14.89a3.2,3.2,0,0,0,3.2,3.2h5.31v10.64H374a3.19,3.19,0,0,0-3.19,3.19v14.89A24.46,24.46,0,0,0,395.23,461H493.1a24.46,24.46,0,0,0,24.47-24.47V421.68a3.19,3.19,0,0,0-3.19-3.19h-9.57V407.85h5.32a3.19,3.19,0,0,0,3.19-3.2V389.76a3.19,3.19,0,0,0-3.19-3.19h-5.32V265.29h5.32a3.19,3.19,0,0,0,3.19-3.2V247.2a3.19,3.19,0,0,0-3.19-3.19h-5.32V233.37h9.57a3.19,3.19,0,0,0,3.19-3.19v-14.9a24.47,24.47,0,0,0-24.47-24.47H395.23a24.47,24.47,0,0,0-24.47,24.47v14.9a3.19,3.19,0,0,0,3.19,3.19h9.57V244h-5.31a3.19,3.19,0,0,0-3.2,3.19v14.89a3.2,3.2,0,0,0,3.2,3.2h5.31v46l-10.86-.23v-1.71a3.19,3.19,0,0,0-3.13-3.19l-14.89-.31a3.17,3.17,0,0,0-3.25,3.12l-82.33-1.71h0l-105.7-2.21a20.84,20.84,0,1,0,0,41.67L249,345h0Z"/><path class="cls-2" d="M559.91,509.5h-.29a32,32,0,0,1-27.43-14.89h17.08a2.09,2.09,0,0,0,2.09-2.09V486.1a12.77,12.77,0,0,0-12.77-12.77H351a12.52,12.52,0,0,0-3.79.58,12.72,12.72,0,0,0-4.33,2.34,12.69,12.69,0,0,0-4.64,9.85v6.42a2.09,2.09,0,0,0,2.09,2.09h17.08a32,32,0,0,1-27.43,14.89h-.29a2.09,2.09,0,0,0-2.09,2.09v17.1h0a1.87,1.87,0,0,0,0,.42,2.1,2.1,0,0,0,.32.75,2.07,2.07,0,0,0,1.73.92H559.91a2.09,2.09,0,0,0,2.09-2.09v-17.1A2.1,2.1,0,0,0,559.91,509.5Z"/><path class="cls-3" d="M110.82,251.9a20.84,20.84,0,1,0,0,41.67l198.67-4.14V256Z"/><polygon class="cls-4" points="309.49 256.04 216.52 254.1 196.49 291.78 309.49 289.43 309.49 256.04"/><polygon class="cls-5" points="350 258.53 309.49 257.69 309.49 287.78 350 286.94 350 258.53"/><path class="cls-6" d="M302.11,292.77l14.89-.31a3.19,3.19,0,0,0,3.13-3.19V256.19A3.2,3.2,0,0,0,317,253l-14.89-.31a3.2,3.2,0,0,0-3.26,3.19v33.7A3.19,3.19,0,0,0,302.11,292.77Z"/><rect class="cls-3" x="330.99" y="180.18" width="121.28" height="185.12"/><polygon class="cls-7" points="342.42 365.29 452.27 365.29 452.27 180.18 440.85 180.18 342.42 365.29"/><rect class="cls-8" x="322.48" y="190.81" width="138.3" height="21.28" rx="3.19"/><rect class="cls-8" x="322.48" y="333.37" width="138.3" height="21.28" rx="3.19" transform="translate(783.27 688.03) rotate(180)"/><path class="cls-6" d="M342.69,137.62h97.88A24.47,24.47,0,0,1,465,162.09V177a3.19,3.19,0,0,1-3.19,3.19H321.42a3.19,3.19,0,0,1-3.19-3.19V162.09A24.47,24.47,0,0,1,342.69,137.62Z"/><path class="cls-6" d="M342.69,365.29h97.88A24.47,24.47,0,0,1,465,389.76v14.89a3.19,3.19,0,0,1-3.19,3.19H321.42a3.19,3.19,0,0,1-3.19-3.19V389.76A24.47,24.47,0,0,1,342.69,365.29Z" transform="translate(783.27 773.14) rotate(180)"/><path class="cls-9" d="M479.65,441.42H304.84a32.07,32.07,0,0,1-27.43,14.89H507.08A32.07,32.07,0,0,1,479.65,441.42Z"/><rect class="cls-10" x="275.03" y="456.31" width="234.44" height="21.28" rx="2.09" transform="translate(784.49 933.9) rotate(180)"/><path class="cls-11" d="M277.12,477.59H386.94l11.31-21.28H277.12A2.09,2.09,0,0,0,275,458.4v17.1A2.09,2.09,0,0,0,277.12,477.59Z"/><path class="cls-12" d="M287.76,420.14h209a2.09,2.09,0,0,1,2.09,2.09v6.42a12.77,12.77,0,0,1-12.77,12.77H298.43a12.77,12.77,0,0,1-12.77-12.77v-6.42A2.09,2.09,0,0,1,287.76,420.14Z" transform="translate(784.49 861.55) rotate(180)"/><path class="cls-13" d="M287.76,441.42H406.09l11.31-21.28h-119a12.76,12.76,0,0,0-12.76,12.77v6.42A2.09,2.09,0,0,0,287.76,441.42Z"/></svg>