<svg xmlns="http://www.w3.org/2000/svg" xmlns:xlink="http://www.w3.org/1999/xlink" viewBox="0 0 600 600"><defs><style>.cls-1{fill:none;}.cls-2{fill:url(#Degradado_sin_nombre_482);}.cls-3{fill:url(#Degradado_sin_nombre_482-2);}.cls-4{fill:#004481;}.cls-5{fill:url(#Degradado_sin_nombre_114);}.cls-6{fill:#043263;}.cls-7{fill:#2dcccd;}.cls-8{fill:url(#Degradado_sin_nombre_114-2);}.cls-9{fill:#49a5e6;}.cls-10{fill:#c49735;}.cls-11{fill:#fade8e;}.cls-12{fill:url(#Degradado_sin_nombre_18);}.cls-13{fill:#f8cd50;}.cls-14{fill:url(#Degradado_sin_nombre_18-2);}</style><linearGradient id="Degradado_sin_nombre_482" x1="283.7" y1="1646.61" x2="483.23" y2="1271.35" gradientTransform="matrix(1, 0, 0, -1, 0, 1830)" gradientUnits="userSpaceOnUse"><stop offset="0" stop-color="#192647" stop-opacity="0.5"/><stop offset="1" stop-color="#192647" stop-opacity="0"/></linearGradient><linearGradient id="Degradado_sin_nombre_482-2" x1="292.04" y1="1601.19" x2="478.26" y2="1250.96" xlink:href="#Degradado_sin_nombre_482"/><linearGradient id="Degradado_sin_nombre_114" x1="309.49" y1="1557.06" x2="196.49" y2="1557.06" gradientTransform="matrix(1, 0, 0, -1, 0, 1830)" gradientUnits="userSpaceOnUse"><stop offset="0" stop-color="#072146" stop-opacity="0.8"/><stop offset="1" stop-color="#072146" stop-opacity="0"/></linearGradient><linearGradient id="Degradado_sin_nombre_114-2" x1="452.27" y1="1557.26" x2="342.42" y2="1557.26" xlink:href="#Degradado_sin_nombre_114"/><linearGradient id="Degradado_sin_nombre_18" x1="-4225.43" y1="236.84" x2="-4297.09" y2="165.19" gradientTransform="matrix(-1, 0, 0, 1, -3926.85, 263.11)" gradientUnits="userSpaceOnUse"><stop offset="0" stop-color="#fff" stop-opacity="0.6"/><stop offset="1" stop-color="#fff" stop-opacity="0.2"/></linearGradient><linearGradient id="Degradado_sin_nombre_18-2" x1="-4239.76" y1="204.36" x2="-4315.67" y2="128.45" xlink:href="#Degradado_sin_nombre_18"/></defs><title>11</title><g id="Cuadrados_Blancos" data-name="Cuadrados Blancos"><rect class="cls-1" width="600" height="600"/></g><g id="Capa_51" data-name="Capa 51"><path class="cls-2" d="M351.39,342.84a3.18,3.18,0,0,0,3.23,3.13h0l14.89-.31a3.19,3.19,0,0,0,3.13-3.19v-1.72l10.86-.22v46h-5.31a3.19,3.19,0,0,0-3.2,3.18h0v14.89a3.2,3.2,0,0,0,3.2,3.2h5.31v10.64H374a3.19,3.19,0,0,0-3.19,3.19h0v14.89A24.45,24.45,0,0,0,395.23,461H493.1a24.46,24.46,0,0,0,24.47-24.45V421.68a3.19,3.19,0,0,0-3.19-3.19h-9.57V407.85h5.32a3.19,3.19,0,0,0,3.19-3.19h0V389.76a3.19,3.19,0,0,0-3.19-3.19h-5.32V265.29h5.32a3.19,3.19,0,0,0,3.19-3.19h0V247.2a3.19,3.19,0,0,0-3.19-3.19h-5.32V233.37h9.57a3.19,3.19,0,0,0,3.19-3.19h0v-14.9a24.48,24.48,0,0,0-24.47-24.47H395.23a24.48,24.48,0,0,0-24.47,24.47h0v14.9a3.19,3.19,0,0,0,3.19,3.19h9.57V244h-5.31a3.19,3.19,0,0,0-3.2,3.18h0v14.89a3.2,3.2,0,0,0,3.2,3.2h5.31v46l-10.86-.23v-1.71a3.19,3.19,0,0,0-3.13-3.19l-14.89-.31a3.18,3.18,0,0,0-3.25,3.09v0l-82.33-1.71h0L163.36,305a20.84,20.84,0,1,0-.91,41.67c.3,0,.61,0,.91,0L249,345h0Z"/><path class="cls-3" d="M559.91,509.5h-.29a32,32,0,0,1-27.43-14.89h17.08a2.1,2.1,0,0,0,2.09-2.09h0V486.1a12.77,12.77,0,0,0-12.77-12.77H351a12.49,12.49,0,0,0-3.79.58,12.83,12.83,0,0,0-4.33,2.34,12.7,12.7,0,0,0-4.64,9.85v6.42a2.1,2.1,0,0,0,2.09,2.09h17.08A32,32,0,0,1,330,509.5h-.29a2.1,2.1,0,0,0-2.09,2.09v17.1h0a1.48,1.48,0,0,0,0,.42,2.27,2.27,0,0,0,.32.75,2.08,2.08,0,0,0,1.73.92H559.91a2.1,2.1,0,0,0,2.09-2.09h0v-17.1A2.11,2.11,0,0,0,559.91,509.5Z"/><path class="cls-4" d="M110.82,251.9a20.84,20.84,0,1,0-.91,41.67h.91l198.67-4.14V256Z"/><polygon class="cls-5" points="309.49 256.04 216.52 254.1 196.49 291.78 309.49 289.43 309.49 256.04"/><polygon class="cls-6" points="350 258.53 309.49 257.69 309.49 287.78 350 286.94 350 258.53"/><path class="cls-7" d="M302.11,292.77l14.89-.31a3.19,3.19,0,0,0,3.13-3.19V256.19A3.2,3.2,0,0,0,317,253l-14.89-.31a3.2,3.2,0,0,0-3.26,3.14v33.75a3.19,3.19,0,0,0,3.19,3.19Z"/><rect class="cls-4" x="330.99" y="180.18" width="121.28" height="185.12"/><polygon class="cls-8" points="342.42 365.29 452.27 365.29 452.27 180.18 440.85 180.18 342.42 365.29"/><rect class="cls-9" x="322.48" y="190.81" width="138.3" height="21.28" rx="3.19"/><rect class="cls-9" x="322.49" y="333.38" width="138.3" height="21.28" rx="3.19"/><path class="cls-7" d="M342.69,137.62h97.88A24.47,24.47,0,0,1,465,162.09V177a3.19,3.19,0,0,1-3.19,3.19H321.42a3.19,3.19,0,0,1-3.19-3.19h0V162.09A24.47,24.47,0,0,1,342.69,137.62Z"/><path class="cls-7" d="M440.58,407.85H342.7a24.47,24.47,0,0,1-24.43-24.47V368.49a3.19,3.19,0,0,1,3.19-3.19H461.85a3.19,3.19,0,0,1,3.19,3.19h0v14.89A24.47,24.47,0,0,1,440.58,407.85Z"/><path class="cls-10" d="M479.65,441.42H304.84a32.07,32.07,0,0,1-27.43,14.89H507.08A32.07,32.07,0,0,1,479.65,441.42Z"/><rect class="cls-11" x="275.02" y="456.31" width="234.44" height="21.28" rx="2.09"/><path class="cls-12" d="M277.12,477.59H386.94l11.31-21.28H277.12a2.1,2.1,0,0,0-2.12,2.06V475.5a2.1,2.1,0,0,0,2.09,2.09Z"/><path class="cls-13" d="M496.73,441.41h-209a2.1,2.1,0,0,1-2.09-2.09V432.9a12.77,12.77,0,0,1,12.77-12.77H486.06a12.77,12.77,0,0,1,12.77,12.77v6.42a2.1,2.1,0,0,1-2.09,2.09Z"/><path class="cls-14" d="M287.76,441.42H406.09l11.31-21.28h-119a12.76,12.76,0,0,0-12.76,12.76h0v6.42a2.1,2.1,0,0,0,2.09,2.09Z"/></g></svg>