<svg xmlns="http://www.w3.org/2000/svg" xmlns:xlink="http://www.w3.org/1999/xlink" viewBox="0 0 600 600"><defs><style>.cls-1{fill:none;}.cls-2{fill:url(#Degradado_sin_nombre_576);}.cls-3{fill:#043263;}.cls-4{fill:#2dcccd;}.cls-5{fill:url(#Degradado_sin_nombre_148);}.cls-6{fill:#49a5e6;}.cls-7{fill:#f8cd50;}.cls-8{fill:url(#Degradado_sin_nombre_122);}.cls-9{fill:url(#Degradado_sin_nombre_147);}</style><linearGradient id="Degradado_sin_nombre_576" x1="257.5" y1="182.42" x2="442.5" y2="530.35" gradientUnits="userSpaceOnUse"><stop offset="0" stop-color="#1c2645" stop-opacity="0.5"/><stop offset="1" stop-color="#1c2645" stop-opacity="0"/></linearGradient><linearGradient id="Degradado_sin_nombre_148" x1="515" y1="325" x2="247.34" y2="325" gradientUnits="userSpaceOnUse"><stop offset="0" stop-color="#072146" stop-opacity="0.8"/><stop offset="1" stop-color="#072146" stop-opacity="0.1"/></linearGradient><linearGradient id="Degradado_sin_nombre_122" x1="447.12" y1="269.64" x2="476.44" y2="298.97" gradientUnits="userSpaceOnUse"><stop offset="0" stop-color="#fff" stop-opacity="0.5"/><stop offset="1" stop-color="#fff" stop-opacity="0.2"/></linearGradient><linearGradient id="Degradado_sin_nombre_147" x1="515" y1="211.38" x2="232.68" y2="211.38" gradientUnits="userSpaceOnUse"><stop offset="0" stop-color="#028484" stop-opacity="0.8"/><stop offset="1" stop-color="#028484" stop-opacity="0.1"/></linearGradient></defs><title>11</title><g id="Cuadrados_Blancos" data-name="Cuadrados Blancos"><rect class="cls-1" width="600" height="600"/></g><g id="Capa_121" data-name="Capa 121"><path class="cls-2" d="M553,242.76H147a12,12,0,0,0-12,12V458a12,12,0,0,0,12,12H553a12,12,0,0,0,12-12V254.76A12,12,0,0,0,553,242.76Z"/><path class="cls-3" d="M85,230H515a0,0,0,0,1,0,0V408a12,12,0,0,1-12,12H97a12,12,0,0,1-12-12V230A0,0,0,0,1,85,230Z"/><path class="cls-4" d="M97,192.76H503a12,12,0,0,1,12,12V230a0,0,0,0,1,0,0H85a0,0,0,0,1,0,0V204.76a12,12,0,0,1,12-12Z"/><path class="cls-5" d="M352.66,230,247.34,420H503a12,12,0,0,0,12-12V230Z"/><rect class="cls-6" x="185" y="370" width="230" height="30" rx="3"/><rect class="cls-6" x="105" y="370" width="70" height="30" rx="3"/><rect class="cls-6" x="105" y="330" width="40" height="30" rx="3"/><rect class="cls-6" x="155" y="330" width="40" height="30" rx="3"/><rect class="cls-6" x="205" y="330" width="40" height="30" rx="3"/><rect class="cls-6" x="255" y="330" width="40" height="30" rx="3"/><rect class="cls-6" x="305" y="330" width="40" height="30" rx="3"/><rect class="cls-6" x="355" y="330" width="40" height="30" rx="3"/><rect class="cls-6" x="405" y="330" width="40" height="30" rx="3"/><rect class="cls-6" x="455" y="330" width="40" height="30" rx="3"/><rect class="cls-6" x="105" y="250" width="40" height="30" rx="3"/><rect class="cls-6" x="155" y="250" width="40" height="30" rx="3"/><rect class="cls-6" x="205" y="250" width="40" height="30" rx="3"/><rect class="cls-6" x="255" y="250" width="40" height="30" rx="3"/><rect class="cls-6" x="305" y="250" width="40" height="30" rx="3"/><rect class="cls-6" x="355" y="250" width="40" height="30" rx="3"/><rect class="cls-6" x="405" y="250" width="50" height="30" rx="3"/><rect class="cls-6" x="105" y="290" width="65" height="30" rx="3"/><rect class="cls-6" x="180" y="290" width="40" height="30" rx="3"/><rect class="cls-6" x="230" y="290" width="40" height="30" rx="3"/><rect class="cls-6" x="280" y="290" width="40" height="30" rx="3"/><rect class="cls-6" x="330" y="290" width="40" height="30" rx="3"/><rect class="cls-6" x="380" y="290" width="40" height="30" rx="3"/><path class="cls-7" d="M492,250H468a3,3,0,0,0-3,3v37H433a3,3,0,0,0-3,3v24a3,3,0,0,0,3,3h59a3,3,0,0,0,3-3V253A3,3,0,0,0,492,250Z"/><rect class="cls-6" x="425" y="370" width="70" height="30" rx="3"/><path class="cls-8" d="M492,250H468a3,3,0,0,0-3,3v37H433a3,3,0,0,0-3,3v24a3,3,0,0,0,3,3h22.41l38.44-69.34A2.94,2.94,0,0,0,492,250Z"/><path class="cls-9" d="M515,204.76a12,12,0,0,0-12-12H253.32L232.68,230H515Z"/></g></svg>