<svg id="Contenido" xmlns="http://www.w3.org/2000/svg" xmlns:xlink="http://www.w3.org/1999/xlink" viewBox="0 0 600 600"><defs><style>.cls-1{fill:url(#Degradado_sin_nombre_39);}.cls-2{fill:#f8cd50;}.cls-3{fill:url(#Degradado_sin_nombre_5);}.cls-4{fill:#043263;}.cls-5{fill:#eb5e62;}.cls-6{fill:url(#Degradado_sin_nombre_7);}.cls-7{fill:none;}</style><linearGradient id="Degradado_sin_nombre_39" x1="269.23" y1="198.1" x2="430.76" y2="501.9" gradientUnits="userSpaceOnUse"><stop offset="0" stop-color="#192647" stop-opacity="0.5"/><stop offset="1" stop-color="#192647" stop-opacity="0"/></linearGradient><linearGradient id="Degradado_sin_nombre_5" x1="148.17" y1="219.21" x2="301.2" y2="300.58" gradientUnits="userSpaceOnUse"><stop offset="0" stop-color="#fff" stop-opacity="0.6"/><stop offset="1" stop-color="#fff" stop-opacity="0.2"/></linearGradient><linearGradient id="Degradado_sin_nombre_7" x1="491.07" y1="337.12" x2="393.94" y2="337.12" gradientUnits="userSpaceOnUse"><stop offset="0.01" stop-color="#b94240"/><stop offset="1" stop-color="#b94240" stop-opacity="0"/></linearGradient></defs><path class="cls-1" d="M522,349.9A172,172,0,1,1,349.89,178,172,172,0,0,1,522,349.9"/><path class="cls-2" d="M472,300c0,95.09-77.12,172-171.87,172S128,394.82,128,300s77.12-172,171.87-172h0c95,0,172.13,76.91,172.13,172"/><path class="cls-3" d="M299.87,128C205.12,128,128,205.18,128,300c0,66.1,37.6,123.62,92.47,152.41L381,148.27A171.5,171.5,0,0,0,299.87,128Z"/><path class="cls-4" d="M346.78,228a43.31,43.31,0,0,1,22.48,6,3,3,0,0,0,4.51-3.25,27.95,27.95,0,0,0-54,0A3,3,0,0,0,324.3,234,43.31,43.31,0,0,1,346.78,228Z"/><circle class="cls-4" cx="254.51" cy="225.95" r="22"/><path class="cls-4" d="M308.91,300.2a19,19,0,0,0-17.54,4.91,1.88,1.88,0,0,0,2,3.09,15.47,15.47,0,0,1,9.81-.76,15.56,15.56,0,0,1,8.08,25.21,1.88,1.88,0,0,0,2.33,2.86,19,19,0,0,0-4.7-35.31Z"/><path class="cls-4" d="M308.91,367.53a19,19,0,0,1-17.54-4.91,1.88,1.88,0,0,1,2-3.09,15.47,15.47,0,0,0,9.81.76,15.56,15.56,0,0,0,8.08-25.21,1.88,1.88,0,0,1,2.33-2.86,19,19,0,0,1-4.7,35.31Z"/><path class="cls-5" d="M479.66,286.41a39,39,0,0,0-28.79-12.33,36.63,36.63,0,0,0-22.61,7.68,46.16,46.16,0,0,0-9.14,9.4,46.16,46.16,0,0,0-9.14-9.4,36.63,36.63,0,0,0-22.61-7.68,39,39,0,0,0-28.79,12.33c-7.36,7.86-11.41,18.6-11.41,30.24,0,12,4.53,22.94,14.27,34.51,8.71,10.34,21.23,20.84,35.73,33,4.95,4.15,10.56,8.86,16.39,13.88a8.56,8.56,0,0,0,11.12,0c5.83-5,11.44-9.73,16.4-13.88,14.49-12.16,27-22.66,35.72-33,9.74-11.57,14.27-22.53,14.27-34.51C491.07,305,487,294.27,479.66,286.41Z"/><path class="cls-6" d="M479.66,286.41a38.88,38.88,0,0,0-26.45-12.26l-59.27,107.3,3.23,2.71c4.95,4.15,10.56,8.86,16.39,13.88a8.56,8.56,0,0,0,11.12,0c5.83-5,11.44-9.73,16.4-13.88,14.49-12.16,27-22.66,35.72-33,9.74-11.57,14.27-22.53,14.27-34.51C491.07,305,487,294.27,479.66,286.41Z"/><rect class="cls-7" width="600" height="600"/></svg>