<svg id="Contenido" xmlns="http://www.w3.org/2000/svg" xmlns:xlink="http://www.w3.org/1999/xlink" viewBox="0 0 600 600"><defs><style>.cls-1{fill:url(#Degradado_sin_nombre_18);}.cls-2{fill:url(#Degradado_sin_nombre_18-2);}.cls-3{fill:url(#Degradado_sin_nombre_18-3);}.cls-4{fill:url(#Degradado_sin_nombre_18-4);}.cls-5{fill:url(#Degradado_sin_nombre_18-5);}.cls-6{fill:url(#Degradado_sin_nombre_18-6);}.cls-7{fill:#1464a5;}.cls-8{fill:url(#Degradado_sin_nombre_43);}.cls-9{fill:#f8cd50;}.cls-10{fill:url(#Degradado_sin_nombre_6);}.cls-11{fill:url(#Degradado_sin_nombre_6-2);}.cls-12{fill:url(#Degradado_sin_nombre_6-3);}.cls-13{fill:url(#Degradado_sin_nombre_6-4);}.cls-14{fill:url(#Degradado_sin_nombre_6-5);}.cls-15{fill:url(#Degradado_sin_nombre_6-6);}.cls-16{fill:url(#Degradado_sin_nombre_6-7);}.cls-17{fill:#2dcccd;}</style><linearGradient id="Degradado_sin_nombre_18" x1="251.68" y1="-119.64" x2="531.62" y2="406.84" gradientUnits="userSpaceOnUse"><stop offset="0.29" stop-color="#1c2645"/><stop offset="1" stop-color="#1c2645" stop-opacity="0"/></linearGradient><linearGradient id="Degradado_sin_nombre_18-2" x1="264.18" y1="-128.55" x2="544.12" y2="397.94" xlink:href="#Degradado_sin_nombre_18"/><linearGradient id="Degradado_sin_nombre_18-3" x1="242.27" y1="-113.54" x2="522.21" y2="412.94" xlink:href="#Degradado_sin_nombre_18"/><linearGradient id="Degradado_sin_nombre_18-4" x1="267.49" y1="-130.05" x2="547.42" y2="396.44" xlink:href="#Degradado_sin_nombre_18"/><linearGradient id="Degradado_sin_nombre_18-5" x1="239.37" y1="-110.13" x2="519.31" y2="416.36" xlink:href="#Degradado_sin_nombre_18"/><linearGradient id="Degradado_sin_nombre_18-6" x1="119.8" y1="-35.84" x2="396.23" y2="484.05" xlink:href="#Degradado_sin_nombre_18"/><linearGradient id="Degradado_sin_nombre_43" x1="450.6" y1="282.06" x2="199.73" y2="282.06" gradientUnits="userSpaceOnUse"><stop offset="0.01" stop-color="#043263" stop-opacity="0.5"/><stop offset="1" stop-color="#043263" stop-opacity="0.1"/></linearGradient><linearGradient id="Degradado_sin_nombre_6" x1="362.34" y1="201.59" x2="385.18" y2="224.44" gradientUnits="userSpaceOnUse"><stop offset="0" stop-color="#fff" stop-opacity="0.5"/><stop offset="1" stop-color="#fff" stop-opacity="0.1"/></linearGradient><linearGradient id="Degradado_sin_nombre_6-2" x1="372.79" y1="176.41" x2="378.6" y2="182.22" xlink:href="#Degradado_sin_nombre_6"/><linearGradient id="Degradado_sin_nombre_6-3" x1="336.15" y1="169.79" x2="350.29" y2="183.93" xlink:href="#Degradado_sin_nombre_6"/><linearGradient id="Degradado_sin_nombre_6-4" x1="384.46" y1="254.61" x2="398.09" y2="268.25" xlink:href="#Degradado_sin_nombre_6"/><linearGradient id="Degradado_sin_nombre_6-5" x1="420.28" y1="259.24" x2="427.78" y2="266.74" xlink:href="#Degradado_sin_nombre_6"/><linearGradient id="Degradado_sin_nombre_6-6" x1="423.05" y1="335.36" x2="427.99" y2="340.3" xlink:href="#Degradado_sin_nombre_6"/><linearGradient id="Degradado_sin_nombre_6-7" x1="408.88" y1="285.67" x2="429.76" y2="306.54" xlink:href="#Degradado_sin_nombre_6"/></defs><title>seguros_colombia</title><path class="cls-1" d="M479.18,266.1q-.56-.25-1.12-.48l-.23-.09q-.62-.24-1.25-.44l-.09,0q-.71-.22-1.43-.41h0c-.44-.11-.88-.21-1.32-.29l-.39-.07-1-.16-.47-.06-1-.1-.44,0c-.48,0-1,0-1.46,0a25,25,0,0,0-25,25c0,.54,0,1.07.06,1.6,0,.15,0,.29,0,.44q.05.63.13,1.24c0,.12,0,.24,0,.36q.11.77.27,1.53l.06.28q.14.63.31,1.25l.11.39c.13.45.28.91.44,1.35l0,.11c.18.49.37,1,.58,1.43l.14.3q.26.58.55,1.15l.14.27c.24.46.5.91.77,1.36l0,0c.26.43.54.84.83,1.25l.17.24c.28.39.57.78.88,1.15l0,.06q.5.62,1,1.2l.11.11q.49.52,1,1l.15.15a25.13,25.13,0,0,0,2.44,2l.15.11q.62.44,1.26.84l.06,0a25,25,0,1,0,23.65-43.94Z"/><path class="cls-2" d="M459.62,251.83q.05.31.13.61l0,.18a6.3,6.3,0,0,0,.26.72l.06.13q.13.29.29.56l.11.18a6.37,6.37,0,0,0,.4.57l0,.05a6.44,6.44,0,0,0,.52.56l.13.12q.23.21.48.4l.14.1a6.38,6.38,0,0,0,.66.41h0a6.35,6.35,0,1,0,6-11.22h0l-.06,0q-.28-.14-.57-.26l-.2-.07-.48-.15-.23-.06-.5-.09-.22,0a6.39,6.39,0,0,0-.73,0h0a6.32,6.32,0,0,0-6.3,7.16C459.59,251.68,459.61,251.76,459.62,251.83Z"/><path class="cls-3" d="M420.43,251.9c0,.13,0,.25,0,.38,0,.39.1.78.18,1.17,0,.07,0,.14,0,.22.09.44.21.87.33,1.3l.11.34q.17.51.37,1l.12.3q.26.6.56,1.17l.17.3q.25.44.53.87l.22.33c.24.35.49.69.76,1l.19.22q.33.39.69.76l.31.31q.4.39.82.75l.24.2c.29.24.6.46.91.68l.38.25q.41.27.83.5l.31.18,0,0h0a15.47,15.47,0,1,0,14.52-27.31h0c-.35-.19-.71-.35-1.07-.51l-.35-.15c-.39-.16-.78-.31-1.18-.43l-.23-.06q-.56-.17-1.14-.29l-.28-.06c-.43-.09-.87-.15-1.32-.2l-.29,0c-.47,0-.94-.07-1.41-.07h0a15.47,15.47,0,0,0-15.47,15.47h0C420.36,251,420.39,251.44,420.43,251.9Z"/><path class="cls-4" d="M506.61,336.24q.06.4.17.78c0,.08,0,.15.06.23a8.16,8.16,0,0,0,.34.93l.08.17a8.12,8.12,0,0,0,.38.73l.14.23a8.23,8.23,0,0,0,.52.73l.05.07a8.21,8.21,0,0,0,.68.73l.17.15q.3.27.62.51l.18.13a8.18,8.18,0,0,0,.85.53h0a8.21,8.21,0,1,0,7.71-14.51h0l-.07,0q-.36-.19-.73-.34l-.25-.09-.62-.2-.3-.08-.65-.12-.28,0a8.27,8.27,0,0,0-.95-.06h0a8.17,8.17,0,0,0-8.14,9.25C506.58,336.05,506.6,336.15,506.61,336.24Z"/><path class="cls-5" d="M517.66,404.18l-.17-.08a5.36,5.36,0,0,0-.87-.27l-.2,0a5.39,5.39,0,0,0-1-.1h0a5.36,5.36,0,0,0-5.31,6.38c0,.08,0,.17.05.25a5.4,5.4,0,0,0,.24.77l0,.14a5.37,5.37,0,0,0,.44.81l.14.2a5.39,5.39,0,0,0,.47.57l.15.16a5.4,5.4,0,0,0,.7.57l.19.12c.12.07.23.15.35.22v0a5.35,5.35,0,0,0,2.53.65A5.39,5.39,0,0,0,518,404.35v0Z"/><path class="cls-6" d="M529,434.15H523.6l-29.2-50.77h0v0c.24.39.49.77.76,1.15l.16.22c.26.36.53.71.8,1.06l0,.05q.46.57,1,1.1l.1.1q.45.48.92.93l.14.13a22.91,22.91,0,0,0,2.23,1.84l.14.1q.56.4,1.15.77l.05,0a22.84,22.84,0,1,0,21.61-40.14l-.19-.08-1-.43-.21-.08q-.56-.22-1.14-.4l-.09,0q-.64-.21-1.31-.37h0c-.4-.1-.8-.19-1.2-.27l-.36-.06-.93-.15-.43-.05-.93-.09-.4,0c-.44,0-.88,0-1.33,0h0A22.84,22.84,0,0,0,491,371.47c0,.49,0,1,.05,1.46,0,.13,0,.26,0,.4q0,.57.12,1.14c0,.11,0,.22,0,.32q.1.71.25,1.4l.06.25q.13.58.28,1.14l.1.36c.12.42.25.83.4,1.23l0,.1c.16.44.34.88.53,1.31l.13.28q.24.53.51,1l.13.25.07.14-22.7-39.48.18.28.21.32c.23.34.47.66.73,1l.19.22q.32.38.66.73l.3.3c.26.25.52.49.79.72l.23.19c.28.23.57.45.87.65l.37.25q.39.26.8.49l.3.17,0,0h0a14.92,14.92,0,1,0,14-26.34h0c-.34-.18-.68-.34-1-.49l-.33-.14c-.37-.15-.75-.3-1.14-.42l-.22-.06q-.54-.16-1.1-.28l-.27-.06c-.42-.08-.84-.15-1.27-.19l-.28,0c-.45,0-.9-.07-1.36-.07h0a14.92,14.92,0,0,0-14.92,14.92h0c0,.46,0,.9.07,1.35,0,.12,0,.24,0,.36,0,.38.1.75.17,1.12,0,.07,0,.14,0,.21.09.43.2.84.32,1.25l.11.33q.16.49.35,1l.12.29c.15.34.31.68.48,1L413.67,243h0l-8.74-15.2a45.85,45.85,0,0,0-39.75-23h0a45.85,45.85,0,0,0-39.75,23L206.75,434.15H197.5a18.8,18.8,0,0,0-18.75,18.75h0a18.8,18.8,0,0,0,18.75,18.75H529a18.8,18.8,0,0,0,18.75-18.75h0A18.8,18.8,0,0,0,529,434.15Z"/><path class="cls-7" d="M236.93,157.8,102.75,391.11H450.6L316.42,157.8a45.85,45.85,0,0,0-39.75-23h0A45.85,45.85,0,0,0,236.93,157.8Z"/><polygon class="cls-8" points="325.17 173 199.73 391.11 450.6 391.11 325.17 173"/><circle class="cls-9" cx="380.4" cy="218.89" r="25"/><path class="cls-10" d="M380.4,193.89A25,25,0,0,0,368.66,241l23.47-44.15A24.88,24.88,0,0,0,380.4,193.89Z"/><circle class="cls-9" cx="377.38" cy="180.81" r="6.35"/><path class="cls-11" d="M377.38,174.45a6.35,6.35,0,0,0-3,12l6-11.22A6.32,6.32,0,0,0,377.38,174.45Z"/><circle class="cls-9" cx="347.33" cy="180.49" r="15.47"/><path class="cls-12" d="M347.33,165a15.47,15.47,0,0,0-7.26,29.13l14.53-27.32A15.4,15.4,0,0,0,347.33,165Z"/><circle class="cls-9" cx="395.24" cy="264.93" r="14.92"/><path class="cls-13" d="M395.24,250a14.92,14.92,0,0,0-7,28.09l14-26.35A14.85,14.85,0,0,0,395.24,250Z"/><circle class="cls-9" cx="426.21" cy="264.92" r="8.22"/><path class="cls-14" d="M426.21,256.7a8.22,8.22,0,0,0-3.86,15.47l7.71-14.51A8.18,8.18,0,0,0,426.21,256.7Z"/><circle class="cls-9" cx="426.95" cy="339.1" r="5.41"/><path class="cls-15" d="M427,333.7a5.41,5.41,0,0,0-2.54,10.18l5.08-9.55A5.38,5.38,0,0,0,427,333.7Z"/><circle class="cls-9" cx="425.38" cy="301.47" r="22.84"/><path class="cls-16" d="M425.39,278.63a22.84,22.84,0,0,0-10.72,43l21.44-40.33A22.73,22.73,0,0,0,425.39,278.63Z"/><rect class="cls-17" x="90.26" y="364.15" width="368.98" height="37.5" rx="18.75" ry="18.75"/></svg>