<svg xmlns="http://www.w3.org/2000/svg" xmlns:xlink="http://www.w3.org/1999/xlink" viewBox="0 0 600 600"><defs><style>.cls-1{fill:none;}.cls-2{fill:url(#Degradado_sin_nombre_37);}.cls-3{fill:url(#Degradado_sin_nombre_37-2);}.cls-4{fill:url(#Degradado_sin_nombre_37-3);}.cls-5{fill:url(#Degradado_sin_nombre_37-4);}.cls-6{fill:#043263;}.cls-7{fill:url(#Degradado_sin_nombre_40);}.cls-8{fill:#f8cd50;}.cls-9{fill:url(#Degradado_sin_nombre_19);}.cls-10{fill:url(#Degradado_sin_nombre_19-2);}.cls-11{fill:url(#Degradado_sin_nombre_19-3);}.cls-12{fill:url(#Degradado_sin_nombre_19-4);}.cls-13{fill:url(#Degradado_sin_nombre_19-5);}.cls-14{fill:url(#Degradado_sin_nombre_19-6);}.cls-15{fill:url(#Degradado_sin_nombre_19-7);}.cls-16{fill:#2dcccd;}</style><linearGradient id="Degradado_sin_nombre_37" x1="411.35" y1="180.86" x2="540.99" y2="424.67" gradientUnits="userSpaceOnUse"><stop offset="0" stop-color="#1c2645" stop-opacity="0.5"/><stop offset="1" stop-color="#1c2645" stop-opacity="0"/></linearGradient><linearGradient id="Degradado_sin_nombre_37-2" x1="425.88" y1="175.68" x2="555.71" y2="419.87" xlink:href="#Degradado_sin_nombre_37"/><linearGradient id="Degradado_sin_nombre_37-3" x1="430.51" y1="176.54" x2="560.3" y2="420.64" xlink:href="#Degradado_sin_nombre_37"/><linearGradient id="Degradado_sin_nombre_37-4" x1="265.45" y1="238.03" x2="402.06" y2="494.97" xlink:href="#Degradado_sin_nombre_37"/><linearGradient id="Degradado_sin_nombre_40" x1="450.6" y1="1559.95" x2="199.73" y2="1559.95" gradientTransform="matrix(1, 0, 0, -1, 0, 1842)" gradientUnits="userSpaceOnUse"><stop offset="0.02" stop-color="#072146" stop-opacity="0.8"/><stop offset="1" stop-color="#072146" stop-opacity="0"/></linearGradient><linearGradient id="Degradado_sin_nombre_19" x1="362.31" y1="1640.38" x2="385.15" y2="1617.53" gradientTransform="matrix(1, 0, 0, -1, 0, 1842)" gradientUnits="userSpaceOnUse"><stop offset="0" stop-color="#fff" stop-opacity="0.5"/><stop offset="1" stop-color="#fff" stop-opacity="0.1"/></linearGradient><linearGradient id="Degradado_sin_nombre_19-2" x1="372.76" y1="1665.56" x2="378.57" y2="1659.75" xlink:href="#Degradado_sin_nombre_19"/><linearGradient id="Degradado_sin_nombre_19-3" x1="336.15" y1="1672.23" x2="350.29" y2="1658.09" xlink:href="#Degradado_sin_nombre_19"/><linearGradient id="Degradado_sin_nombre_19-4" x1="384.47" y1="1587.4" x2="398.1" y2="1573.76" xlink:href="#Degradado_sin_nombre_19"/><linearGradient id="Degradado_sin_nombre_19-5" x1="420.28" y1="1582.76" x2="427.78" y2="1575.26" xlink:href="#Degradado_sin_nombre_19"/><linearGradient id="Degradado_sin_nombre_19-6" x1="423.07" y1="1506.66" x2="428.01" y2="1501.72" xlink:href="#Degradado_sin_nombre_19"/><linearGradient id="Degradado_sin_nombre_19-7" x1="408.89" y1="1556.32" x2="429.76" y2="1535.47" xlink:href="#Degradado_sin_nombre_19"/></defs><title>19</title><g id="Cuadrados_Blancos" data-name="Cuadrados Blancos"><rect class="cls-1" width="600" height="600"/></g><g id="Capa_12" data-name="Capa 12"><path class="cls-2" d="M470.88,264H469a25,25,0,0,0-25,25,14.17,14.17,0,0,0,.06,1.6V291c0,.42.08.83.13,1.24v.36q.1.76.27,1.53l.06.28c.09.42.2.84.31,1.25l.11.39c.13.45.28.91.44,1.35v.11c.18.49.37,1,.58,1.43l.14.3c.17.39.36.77.55,1.15l.14.27c.24.46.5.91.77,1.36s.54.84.83,1.25l.17.24c.28.39.57.78.88,1.15v.06c.33.41.67.81,1,1.2l.11.11c.33.35.66.68,1,1l.15.15a25.93,25.93,0,0,0,2.44,2l.15.11q.62.44,1.26.84h.06a25,25,0,1,0,23.65-43.94l-.06-.13c-.37-.17-.75-.33-1.12-.48l-.23-.09c-.41-.16-.83-.31-1.25-.44h-.09c-.47-.15-.95-.28-1.43-.41s-.88-.21-1.32-.29l-.39-.07-1-.16-.47-.06Z"/><path class="cls-3" d="M459.62,251.83a6,6,0,0,0,.13.61v.18a6.18,6.18,0,0,0,.26.72l.06.13a5.93,5.93,0,0,0,.29.56l.11.18a5.81,5.81,0,0,0,.4.57v.05a6.89,6.89,0,0,0,.52.56l.13.12c.15.14.31.27.48.4l.14.1a5.59,5.59,0,0,0,.66.41,6.36,6.36,0,1,0,6-11.22h-.06l-.57-.26-.2-.07-.48-.15-.23-.06-.5-.09h-.95a6.32,6.32,0,0,0-6.36,6.28,6.4,6.4,0,0,0,.06.88C459.59,251.68,459.61,251.76,459.62,251.83Z"/><path class="cls-4" d="M506.61,336.24a6.33,6.33,0,0,0,.17.78.33.33,0,0,0,.06.23,7.36,7.36,0,0,0,.34.93l.08.17a7.24,7.24,0,0,0,.38.73l.14.23a7.44,7.44,0,0,0,.52.73l.05.07a7.83,7.83,0,0,0,.68.73l.17.15c.2.18.41.35.62.51l.18.13a9.29,9.29,0,0,0,.85.53,8.22,8.22,0,0,0,7.71-14.51h-.07a6.89,6.89,0,0,0-.73-.34l-.25-.09-.62-.2-.3-.08-.65-.12h-.28a7.57,7.57,0,0,0-.95-.06,8.17,8.17,0,0,0-8.21,8.13,8.42,8.42,0,0,0,.07,1.12A2.07,2.07,0,0,1,506.61,336.24Z"/><path class="cls-5" d="M529,434.15h-5.4l-12.48-21.7c.1.13.21.27.33.4l.15.16a5.45,5.45,0,0,0,.7.57l.19.12.35.22a5.44,5.44,0,1,0,5.16-9.57l-.34-.17-.17-.08a6.28,6.28,0,0,0-.87-.27h-.2a5.56,5.56,0,0,0-1-.1A5.36,5.36,0,0,0,510,409a5.46,5.46,0,0,0,.1,1.07.45.45,0,0,0,.05.25,5.28,5.28,0,0,0,.24.77v.07l-16-27.82c.24.39.49.77.76,1.15l.16.22c.26.36.53.71.8,1.06v.05a12.89,12.89,0,0,0,1,1.1l.1.1c.3.32.61.63.92.93l.14.13a23.18,23.18,0,0,0,2.23,1.84l.14.1c.37.27.76.52,1.15.77h.05A22.84,22.84,0,1,0,526,352.07a21,21,0,0,0-2.56-1.38l-.19-.08-1-.43-.21-.08c-.37-.15-.75-.28-1.14-.4h-.09c-.43-.14-.86-.26-1.31-.37l-1.2-.27L518,349l-.93-.15-.43-.05-.93-.09h-1.73A22.85,22.85,0,0,0,491,371.45v0a14,14,0,0,0,.05,1.46v.4a5.52,5.52,0,0,0,.12,1.14v.32c.07.47.15.94.25,1.4l.06.25c.09.39.18.77.28,1.14l.1.36c.12.42.25.83.4,1.23v.1c.16.44.34.88.53,1.31l.13.28c.16.35.33.69.51,1l.13.25.07.14-22.7-39.48.18.28.21.32c.23.34.47.66.73,1l.19.22c.21.25.43.5.66.73l.3.3c.26.25.52.49.79.72l.23.19c.28.23.57.45.87.65l.37.25c.26.17.53.34.8.49l.3.17a14.92,14.92,0,0,0,14.7-26l-.7-.37c-.34-.18-.68-.34-1-.49l-.33-.14c-.37-.15-.75-.3-1.14-.42l-.22-.06c-.36-.11-.73-.2-1.1-.28l-.27-.06c-.42-.08-.84-.15-1.27-.19H485c-.45,0-.9-.07-1.36-.07A14.92,14.92,0,0,0,468.67,335h0a8.66,8.66,0,0,0,.07,1.35v.36a6.06,6.06,0,0,0,.17,1.12V338c.09.43.2.84.32,1.25l.11.33c.11.33.22.66.35,1l.12.29c.15.34.31.68.48,1L422.83,259l.19.29a10.94,10.94,0,0,0,.76,1l.19.22c.22.26.45.51.69.76l.31.31c.27.26.54.51.82.75l.24.2c.29.24.6.46.91.68l.38.25c.27.18.55.35.83.5l.31.18a15.47,15.47,0,1,0,15.21-26.94c-.22-.13-.46-.25-.69-.37s-.71-.35-1.07-.51l-.35-.15c-.39-.16-.78-.31-1.18-.43l-.23-.06c-.37-.11-.75-.21-1.14-.29l-.28-.06c-.43-.09-.87-.15-1.32-.2h-.29c-.47,0-.94-.07-1.41-.07a15.47,15.47,0,0,0-15.47,15.47,8.46,8.46,0,0,1,.19,1.38v.38a5.92,5.92,0,0,0,.18,1.17v.22c.09.44.21.87.33,1.3l.11.34c.11.34.24.67.37,1l.12.3c.12.28.25.54.39.81L413.67,243l-8.74-15.2a45.85,45.85,0,0,0-79.5,0L206.75,434.15H197.5a18.75,18.75,0,0,0,0,37.5H529a18.75,18.75,0,0,0,0-37.5Z"/><path class="cls-6" d="M236.93,157.8,102.75,391.11H450.6L316.42,157.8a45.85,45.85,0,0,0-39.75-23h0A45.83,45.83,0,0,0,236.93,157.8Z"/><polygon class="cls-7" points="325.17 173 199.73 391.11 450.6 391.11 325.17 173"/><circle class="cls-8" cx="380.4" cy="218.89" r="25"/><path class="cls-9" d="M380.4,193.89A25,25,0,0,0,368.66,241l23.47-44.15A24.9,24.9,0,0,0,380.4,193.89Z"/><path class="cls-10" d="M377.38,174.45a6.35,6.35,0,0,0-3,12l6-11.22A6.3,6.3,0,0,0,377.38,174.45Z"/><circle class="cls-8" cx="347.33" cy="180.49" r="15.47"/><path class="cls-11" d="M347.33,165a15.47,15.47,0,0,0-7.26,29.13l14.53-27.32A15.48,15.48,0,0,0,347.33,165Z"/><circle class="cls-8" cx="395.24" cy="264.93" r="14.92"/><path class="cls-12" d="M395.24,250a14.92,14.92,0,0,0-7,28.09l14-26.35A14.85,14.85,0,0,0,395.24,250Z"/><circle class="cls-8" cx="426.21" cy="264.92" r="8.22"/><path class="cls-13" d="M426.21,256.7a8.22,8.22,0,0,0-3.86,15.47l7.71-14.51A8.23,8.23,0,0,0,426.21,256.7Z"/><circle class="cls-8" cx="426.95" cy="339.1" r="5.41"/><path class="cls-14" d="M427,333.7a5.41,5.41,0,0,0-2.54,10.18l5.08-9.55A5.34,5.34,0,0,0,427,333.7Z"/><circle class="cls-8" cx="425.38" cy="301.47" r="22.84"/><path class="cls-15" d="M425.39,278.63a22.84,22.84,0,0,0-10.72,43l21.44-40.33A22.65,22.65,0,0,0,425.39,278.63Z"/><path class="cls-16" d="M109,364.15H440.49a18.74,18.74,0,0,1,18.75,18.75h0a18.74,18.74,0,0,1-18.75,18.75H109A18.74,18.74,0,0,1,90.26,382.9h0A18.74,18.74,0,0,1,109,364.15Z"/></g></svg>