<svg xmlns="http://www.w3.org/2000/svg" xmlns:xlink="http://www.w3.org/1999/xlink" viewBox="0 0 600 600"><defs><style>.fec54ec1-4026-48ba-b7b0-10ce88b1e2e5{fill:none;}.b0c23956-b121-42eb-9585-2525c38a041b{fill:url(#b1098d19-3705-4df2-878c-1a6bfb041fb9);}.bc8f0a08-30ce-4b93-ae91-1cbf490e7355{fill:#ffcc28;}.b36f923b-3b8e-4839-a721-74b97f8e9542{fill:url(#fe9bb0a2-c3db-42fa-90a0-c5f4c90d987d);}.a90ae4eb-679f-42cf-bd4e-349ee141deef{fill:#003267;}.f565c7c6-3caf-446c-8c91-398488b7f257{fill:#cdeefe;}.b14763ca-f9b4-442d-9620-09ea1adff46b{fill:#ff9098;}.f95c4ef8-8a69-4500-a1f4-c9e9eeabefe4{fill:url(#aee1f0ff-3a28-4b4a-baf6-0033549c110f);}.a87f79c0-d0ad-4007-83a1-60af8480e908{fill:#00a7ec;}.ebffcca6-1fb8-4ce6-ac83-81da12f37b7c{fill:url(#e9e3ee15-e577-45cf-97c3-54dfcb524486);}.b01d72e5-fe91-43c1-bc05-4713f1fc644d{fill:url(#f0f73957-a92d-4326-a833-25c5289ef24b);}</style><linearGradient id="b1098d19-3705-4df2-878c-1a6bfb041fb9" x1="266.84" y1="174.1" x2="428.37" y2="477.9" gradientUnits="userSpaceOnUse"><stop offset="0" stop-color="#142649" stop-opacity="0.5"/><stop offset="1" stop-color="#142649" stop-opacity="0"/></linearGradient><linearGradient id="fe9bb0a2-c3db-42fa-90a0-c5f4c90d987d" x1="145.77" y1="195.21" x2="298.8" y2="276.58" gradientUnits="userSpaceOnUse"><stop offset="0" stop-color="#fff" stop-opacity="0.6"/><stop offset="1" stop-color="#fff" stop-opacity="0.2"/></linearGradient><linearGradient id="aee1f0ff-3a28-4b4a-baf6-0033549c110f" x1="348.43" y1="327.95" x2="302.68" y2="327.95" gradientUnits="userSpaceOnUse"><stop offset="0" stop-color="#d43a5d" stop-opacity="0.6"/><stop offset="1" stop-color="#d43a5d" stop-opacity="0.1"/></linearGradient><linearGradient id="e9e3ee15-e577-45cf-97c3-54dfcb524486" x1="212.01" y1="244.29" x2="133.09" y2="244.29" gradientUnits="userSpaceOnUse"><stop offset="0" stop-color="#003267" stop-opacity="0.4"/><stop offset="1" stop-color="#003267" stop-opacity="0"/></linearGradient><linearGradient id="f0f73957-a92d-4326-a833-25c5289ef24b" x1="482.71" y1="252.21" x2="425.38" y2="252.21" xlink:href="#e9e3ee15-e577-45cf-97c3-54dfcb524486"/></defs><g id="a20830ff-2217-4494-abe7-b345488815ff" data-name="cuadrados blancos"><rect class="fec54ec1-4026-48ba-b7b0-10ce88b1e2e5" width="600" height="600"/></g><g id="aa9117ca-85b3-49e4-a99a-832243444301" data-name="Capa 7"><path class="b0c23956-b121-42eb-9585-2525c38a041b" d="M519.6,325.9A172,172,0,1,1,347.5,154,172,172,0,0,1,519.6,325.9"/><path class="bc8f0a08-30ce-4b93-ae91-1cbf490e7355" d="M469.6,276c0,95.09-77.11,172-171.87,172S125.6,370.82,125.6,276s77.12-172,171.87-172h0c95,0,172.13,76.91,172.13,172"/><path class="b36f923b-3b8e-4839-a721-74b97f8e9542" d="M297.47,104c-94.75,0-171.87,77.18-171.87,172,0,66.1,37.6,123.62,92.47,152.41L378.62,124.27A171.47,171.47,0,0,0,297.47,104Z"/><path class="a90ae4eb-679f-42cf-bd4e-349ee141deef" d="M250.83,192.61a43.31,43.31,0,0,1,22.48,6,3,3,0,0,0,4.51-3.25,27.95,27.95,0,0,0-54,0,3,3,0,0,0,4.52,3.25A43.26,43.26,0,0,1,250.83,192.61Z"/><path class="a90ae4eb-679f-42cf-bd4e-349ee141deef" d="M344.38,192.61a43.31,43.31,0,0,1,22.48,6,3,3,0,0,0,4.51-3.25,27.94,27.94,0,0,0-54,0,3,3,0,0,0,4.51,3.25A43.31,43.31,0,0,1,344.38,192.61Z"/><path class="a90ae4eb-679f-42cf-bd4e-349ee141deef" d="M297.6,235.45c-34.52,0-66.51,4.93-92.75,13.33a22.94,22.94,0,0,0-14,31C207,316.8,248.67,343.2,297.6,343.2s90.65-26.4,106.73-63.46a22.94,22.94,0,0,0-14-31C364.11,240.38,332.12,235.45,297.6,235.45Z"/><path class="f565c7c6-3caf-446c-8c91-398488b7f257" d="M297.6,259.5c29.86,0,57.36-5.43,79.33-14.57-23.43-6-50.49-9.48-79.33-9.48s-55.89,3.45-79.32,9.48C240.25,254.07,267.75,259.5,297.6,259.5Z"/><path class="b14763ca-f9b4-442d-9620-09ea1adff46b" d="M297.6,343.2A129.3,129.3,0,0,0,348.43,333a66.56,66.56,0,0,0-101.66,0A129.3,129.3,0,0,0,297.6,343.2Z"/><path class="f95c4ef8-8a69-4500-a1f4-c9e9eeabefe4" d="M318.79,312.79,302.68,343.1A128.76,128.76,0,0,0,348.43,333,64.63,64.63,0,0,0,318.79,312.79Z"/><path class="a87f79c0-d0ad-4007-83a1-60af8480e908" d="M178.66,266.78h0l33-60a3,3,0,0,0-3.27-4.37L141.46,217h0a34.9,34.9,0,1,0,37.19,49.82Z"/><path class="ebffcca6-1fb8-4ce6-ac83-81da12f37b7c" d="M208.37,202.4l-34.66,7.54L133.09,283.2a34.88,34.88,0,0,0,45.57-16.42h0l33-60A3,3,0,0,0,208.37,202.4Z"/><path class="a87f79c0-d0ad-4007-83a1-60af8480e908" d="M416.54,266.78h0l-33-60a3,3,0,0,1,3.27-4.37L453.74,217h0a34.9,34.9,0,1,1-37.2,49.82Z"/><path class="b01d72e5-fe91-43c1-bc05-4713f1fc644d" d="M470.5,224.81a34.77,34.77,0,0,0-11.92-6.65l-33.2,59.9q.76.65,1.59,1.26a34.9,34.9,0,0,0,43.53-54.51Z"/></g></svg>