<svg xmlns="http://www.w3.org/2000/svg" xmlns:xlink="http://www.w3.org/1999/xlink" viewBox="0 0 600 600"><defs><style>.cls-1{fill:none;}.cls-2{fill:url(#Degradado_sin_nombre_141);}.cls-3{fill:#043263;}.cls-4{fill:url(#Degradado_sin_nombre_65);}.cls-5{fill:#f7b27f;}.cls-6{fill:#2dcccd;}.cls-7{fill:#02a5a5;}.cls-8{fill:#facba9;}</style><linearGradient id="Degradado_sin_nombre_141" x1="251.82" y1="-5684.75" x2="441.88" y2="-6042.21" gradientTransform="matrix(1, 0, 0, -1, 0, -5494)" gradientUnits="userSpaceOnUse"><stop offset="0" stop-color="#192647" stop-opacity="0.5"/><stop offset="1" stop-color="#192647" stop-opacity="0"/></linearGradient><linearGradient id="Degradado_sin_nombre_65" x1="333.95" y1="-5645.44" x2="260.52" y2="-5645.44" gradientTransform="matrix(1, 0, 0, -1, 0, -5494)" gradientUnits="userSpaceOnUse"><stop offset="0" stop-color="#072146" stop-opacity="0.8"/><stop offset="1" stop-color="#072146" stop-opacity="0.2"/></linearGradient></defs><title>1</title><g id="Cuadrados_Blancos" data-name="Cuadrados Blancos"><rect class="cls-1" width="600" height="600"/></g><g id="Capa_30" data-name="Capa 30"><path class="cls-2" d="M431.32,300.71a15.41,15.41,0,0,0-15.15,9.73c-.17.43-.33.41-.29-.06s.05-.81.05-1.22a17,17,0,0,0-33-5.82c-.12.33-.27.3-.25,0s0-.52,0-.78a16.81,16.81,0,0,0-33.12-4.05.3.3,0,0,1-.35.24.3.3,0,0,1-.24-.24c-.46-10.35-1.09-27.73-1.49-40.32,0-1.8-.11-3.72-.18-5.72a50,50,0,0,0,34.57-47.56c0-.77,0-1.53-.06-2.29V202a18.08,18.08,0,0,0-.15-1.95v-.34c-.07-.74-.17-1.48-.28-2.21a3.44,3.44,0,0,0-.09-.56c-.09-.6-.2-1.19-.31-1.78a2.84,2.84,0,0,0-.1-.49c-.15-.71-.31-1.41-.49-2.11a2.3,2.3,0,0,0-.13-.5c-.15-.56-.31-1.13-.48-1.68,0-.19-.11-.38-.17-.56-.21-.68-.44-1.36-.68-2-.05-.12-.1-.24-.14-.37-.21-.56-.43-1.11-.66-1.66-.08-.2-.16-.4-.25-.59-.27-.62-.54-1.24-.84-1.85,0-.08-.07-.15-.1-.22-.29-.6-.59-1.18-.9-1.76l-.32-.59c-.28-.49-.56-1-.85-1.47l-.23-.4c-.36-.58-.73-1.15-1.1-1.71l-.39-.57q-.43-.63-.9-1.26l-.37-.51c-.4-.53-.82-1.06-1.24-1.57-.14-.18-.28-.34-.43-.51-.32-.38-.64-.76-1-1.13l-.49-.54c-.45-.49-.9-1-1.36-1.43l-.44-.43c-.36-.35-.72-.7-1.09-1l-.58-.53-1.28-1.1-.57-.48c-.42-.34-.85-.67-1.28-1l-.66-.49c-.39-.29-.78-.57-1.19-.85-.18-.12-.35-.25-.54-.37-.53-.36-1.08-.71-1.63-1.05l-.7-.42q-.6-.36-1.2-.69l-.67-.37-.11-.06h0A50,50,0,0,0,304,246.59a47.69,47.69,0,0,0,4.52,2.41h0l.34.17c.67.35,1.34.69,2,1l.69.31c.64.28,1.28.55,1.93.81l.71.28c.72.27,1.45.53,2.19.77l.46.16.58.17c-.28,4.56-.56,8.77-.83,12.29-1.67,21.74-5.48,73-7.2,81.37s-3.93,9.88-5.08,5.19a153.83,153.83,0,0,0-10.65-27.9C288,312.3,281.3,306.19,274,300.35c-5.23-4.16-18-3.62-21.56.36a4.13,4.13,0,0,0-1,2.85c-.47.18-.93.36-1.33.53.3,4.33,4.32,11.45,8.76,23.64l1.16-.51c.57,1.57,1.16,3.22,1.74,5,6.47,19.28,8.08,31.54,13.85,55.19,5,20.28,19.85,34.6,34.34,57.29s15.83,48.85,15.83,48.85v2.6l-1.74.35A16,16,0,0,0,311.37,512l-.06,29.9a15.88,15.88,0,0,0,15.86,15.92,16.19,16.19,0,0,0,2.95-.27,241.85,241.85,0,0,1,86.35.19,15.9,15.9,0,0,0,18.6-12.62,16.2,16.2,0,0,0,.28-3l.07-29.9a16,16,0,0,0-12.59-15.59l-.34-.07c.4-4.41,2.73-20.52,6.2-31.64,4-12.76,9.22-29.46,11.45-48.08s4.62-45.93,5.29-79.06c.21-10.22.47-15.64.49-21.23C445.94,308.31,439.61,301.14,431.32,300.71Z"/><circle class="cls-3" cx="283.91" cy="148.48" r="50"/><path class="cls-4" d="M307.42,104.35l-47,88.31a50,50,0,1,0,47-88.31Z"/><path class="cls-5" d="M383.32,244.39a15.4,15.4,0,0,0-15.15,9.72c-.18.44-.33.42-.29-.06s0-.81,0-1.22a17,17,0,0,0-33-5.81c-.1.32-.26.3-.24-.06a6.53,6.53,0,0,0,0-.77,16.8,16.8,0,0,0-33.11-4.06.31.31,0,0,1-.35.24.29.29,0,0,1-.24-.24c-.46-10.35-1.09-27.74-1.49-40.33-.46-14.66-1.1-37-1.53-48.33a13.14,13.14,0,0,0-12.88-12.64h0a13.16,13.16,0,0,0-13.4,12.45c-.73,13.83-2,40.67-3.14,55.38-1.67,21.75-5.48,73-7.2,81.38s-3.93,9.88-5.08,5.19a153.1,153.1,0,0,0-10.65-27.9C240,256,233.29,249.86,226,244c-5.22-4.16-18.05-3.61-21.56.36s2.89,12.19,9.34,31.48,8.08,31.54,13.86,55.18c4.94,20.29,19.85,34.6,34.33,57.29s15.83,48.85,15.83,48.85v6.54s96.88-1.59,96.66-2.3,2.26-20,6.24-32.78,9.22-29.45,11.45-48.08,4.62-45.93,5.29-79.05c.21-10.22.48-15.65.49-21.23C397.93,252,391.6,244.82,383.32,244.39Z"/><path class="cls-6" d="M263.3,485.57a15.89,15.89,0,0,0,18.81,15.66,241.16,241.16,0,0,1,86.35.19,15.94,15.94,0,0,0,18.89-15.57l.07-29.9a16,16,0,0,0-12.59-15.59,239,239,0,0,0-98.8-.22,16,16,0,0,0-12.65,15.53Z"/><circle class="cls-7" cx="364.04" cy="471.12" r="10"/><path class="cls-8" d="M210.83,271.41c3.67-1.59,11.76-5.27,11.28-6.71-.62-1.87-.83-5.18-3.94-11.4s-8.7-7.25-11.81-6.83a16.23,16.23,0,0,0-4.29,1.3C202.38,252.09,206.39,259.21,210.83,271.41Z"/><path class="cls-8" d="M293.73,157.29c.13-1,.39-8.76.59-13.5a11.32,11.32,0,0,0-9.24-5.49,11.09,11.09,0,0,0-9,4.53c-.25,4.61-.56,12.83-.56,13.5,0,1.1,4.28,4.52,9.53,4.56C290.67,160.93,293.48,159.09,293.73,157.29Z"/></g></svg>