<svg xmlns="http://www.w3.org/2000/svg" xmlns:xlink="http://www.w3.org/1999/xlink" viewBox="0 0 600 600"><defs><style>.cls-1{fill:none;}.cls-2{fill:url(#Degradado_sin_nombre_480);}.cls-3{fill:#02a5a5;}.cls-4{fill:#eaf9fa;}.cls-5{fill:url(#Degradado_sin_nombre_54);}.cls-6{fill:#004481;}.cls-7{fill:#49a5e6;}.cls-8{opacity:0.5;isolation:isolate;fill:url(#Degradado_sin_nombre_84);}.cls-9{fill:#fff;}.cls-10{fill:#028484;}.cls-11{fill:#2dcccd;}</style><linearGradient id="Degradado_sin_nombre_480" x1="260.67" y1="1652.9" x2="455.7" y2="1286.12" gradientTransform="matrix(1, 0, 0, -1, 0, 1830)" gradientUnits="userSpaceOnUse"><stop offset="0" stop-color="#192647" stop-opacity="0.5"/><stop offset="1" stop-color="#192647" stop-opacity="0"/></linearGradient><linearGradient id="Degradado_sin_nombre_54" x1="377.22" y1="1448.49" x2="287.57" y2="1448.49" gradientTransform="matrix(1, 0, 0, -1, 0, 1830)" gradientUnits="userSpaceOnUse"><stop offset="0" stop-color="#028484" stop-opacity="0.4"/><stop offset="1" stop-color="#028484" stop-opacity="0"/></linearGradient><linearGradient id="Degradado_sin_nombre_84" x1="237.96" y1="1643.76" x2="339.97" y2="1541.74" gradientTransform="matrix(1, 0, 0, -1, 0, 1830)" gradientUnits="userSpaceOnUse"><stop offset="0" stop-color="#fff" stop-opacity="0.5"/><stop offset="1" stop-color="#ecf7f8" stop-opacity="0.1"/></linearGradient></defs><title>11</title><g id="Cuadrados_Blancos" data-name="Cuadrados Blancos"><rect class="cls-1" width="600" height="600"/></g><g id="Capa_52" data-name="Capa 52"><path class="cls-2" d="M510.93,376.61l-31.41-.67a27.26,27.26,0,0,0-5.41.45V343.6a27,27,0,0,0-27-27h-2.87V198.78h0v-21a16.1,16.1,0,0,0-16.1-16.1H293.7a16.1,16.1,0,0,0-16.1,16.1h0V316.62h-2.88a27,27,0,0,0-27,27h0V376a28,28,0,0,0-5-.48H210.65a3.5,3.5,0,0,0-3.51,3.49,3.65,3.65,0,0,0,.17,1.09c6.69,21,34.37,106.9,34.37,106.9a27,27,0,0,0,25.66,18.7h17.74l-13.76,37.5a3.51,3.51,0,0,0,3.31,4.73h17.49a3.52,3.52,0,0,0,3.31-2.31l10.33-28.19H416.08l10.34,28.19a3.51,3.51,0,0,0,3.3,2.31h17.5a3.53,3.53,0,0,0,3.3-4.73l-13.75-37.5h17.74A27,27,0,0,0,480.16,487l34.05-105.82a3.52,3.52,0,0,0-3.28-4.57Z"/><path class="cls-3" d="M388.46,258H216.06a27,27,0,0,0-27,27h0V402.47H415.45V284.94A27,27,0,0,0,388.46,258Z"/><path class="cls-4" d="M250.12,357.28H350.23a27,27,0,0,1,27,27h0v21.51H223.14V384.26A27,27,0,0,1,250.12,357.28Z"/><path class="cls-5" d="M377.22,384.26a27,27,0,0,0-27-27H313.36l-25.79,48.49h89.65Z"/><rect class="cls-6" x="218.94" y="103" width="166.65" height="295.48" rx="16.1"/><rect class="cls-7" x="218.94" y="140.11" width="166.65" height="221.26"/><polygon class="cls-8" points="219.19 140.25 219.19 361.24 276.48 361.24 385.59 159.76 385.59 140.12 219.19 140.25"/><path class="cls-9" d="M327.62,238.12l-9.89,18.82a.59.59,0,0,1-.81.19.58.58,0,0,1-.19-.19l-9.9-18.82a.57.57,0,0,0-.5-.31H301.5a.43.43,0,0,0-.43.43.46.46,0,0,0,.05.2L316.7,267.6a.57.57,0,0,0,1,0l15.58-29.16a.43.43,0,0,0-.18-.58.46.46,0,0,0-.2-.05h-4.79a.57.57,0,0,0-.5.31"/><path class="cls-9" d="M333.23,263.24l9.89-18.83a.59.59,0,0,1,.81-.19.58.58,0,0,1,.19.19L354,263.24a.57.57,0,0,0,.51.3h4.78a.43.43,0,0,0,.43-.43.46.46,0,0,0-.05-.2L344.1,233.75a.58.58,0,0,0-.79-.21.53.53,0,0,0-.21.21l-15.58,29.16a.43.43,0,0,0,.18.58.46.46,0,0,0,.2.05h4.79a.57.57,0,0,0,.51-.3"/><path class="cls-9" d="M259.26,263.54h-8.91a.58.58,0,0,1-.58-.56h0v-8a.58.58,0,0,1,.58-.58h8.91c4.25,0,6.15,1.21,6.15,4.57s-1.86,4.57-6.15,4.57m-8.91-21.38h8.79c3.24,0,4.89,1.39,4.89,3.94s-1.64,3.94-4.89,3.94h-8.79a.58.58,0,0,1-.57-.57h0v-6.73a.58.58,0,0,1,.57-.58m15.31,9.54a6.48,6.48,0,0,0,3.35-6c0-4.69-3.65-7.87-8.81-7.87H245.38a.58.58,0,0,0-.58.57v28.95a.58.58,0,0,0,.58.58h14.17c7.09,0,10.83-3.06,10.83-9s-4.72-7.18-4.72-7.18"/><path class="cls-9" d="M289.67,263.54h-8.92a.58.58,0,0,1-.57-.57h0v-8a.58.58,0,0,1,.57-.58h8.92c4.25,0,6.15,1.21,6.15,4.57s-1.86,4.57-6.15,4.57m-8.91-21.38h8.79c3.24,0,4.89,1.39,4.89,3.94S292.8,250,289.55,250h-8.79a.56.56,0,0,1-.57-.55V242.7a.58.58,0,0,1,.56-.58h0m15.3,9.54a6.47,6.47,0,0,0,3.36-6c0-4.69-3.66-7.87-8.81-7.87H275.78a.59.59,0,0,0-.57.57v28.95a.58.58,0,0,0,.57.58H290c7.1,0,10.84-3.06,10.84-9s-4.73-7.18-4.73-7.18"/><path class="cls-10" d="M391.86,484.57l-18.05-49.23H230.72l-18.06,49.23a3.52,3.52,0,0,0,2.1,4.52,3.71,3.71,0,0,0,1.24.21h17.49A3.52,3.52,0,0,0,236.8,487l10.34-28.19H357.42L367.76,487a3.51,3.51,0,0,0,3.3,2.31h17.5a3.53,3.53,0,0,0,3.52-3.52A3.61,3.61,0,0,0,391.86,484.57Z"/><path class="cls-11" d="M394.6,336,377,390.7a3.5,3.5,0,0,1-3.34,2.44H230.88a3.52,3.52,0,0,1-3.35-2.43L209.8,335.57a27,27,0,0,0-25.69-18.72H152a3.51,3.51,0,0,0-3.52,3.5,3.59,3.59,0,0,0,.17,1.08c6.73,21,34.37,106.94,34.37,106.94a27,27,0,0,0,25.66,18.7H395.85a27,27,0,0,0,25.65-18.7l34.05-105.82a3.52,3.52,0,0,0-3.28-4.6l-31.41-.67A27,27,0,0,0,394.6,336Z"/></g></svg>