<svg id="Contenido" xmlns="http://www.w3.org/2000/svg" xmlns:xlink="http://www.w3.org/1999/xlink" viewBox="0 0 600 600"><defs><style>.cls-1{fill:url(#Degradado_sin_nombre_7);}.cls-2{fill:#02a5a5;}.cls-3{fill:#eaf9fa;}.cls-4{fill:url(#Degradado_sin_nombre_10);}.cls-5{fill:#1464a5;}.cls-6{fill:#49a5e6;}.cls-7{fill-rule:evenodd;opacity:0.5;fill:url(#Degradado_sin_nombre_50);}.cls-8{fill:#fff;}.cls-9{fill:#028484;}.cls-10{fill:#2dcccd;}</style><linearGradient id="Degradado_sin_nombre_7" x1="260.67" y1="177.09" x2="455.72" y2="543.91" gradientUnits="userSpaceOnUse"><stop offset="0" stop-color="#192647"/><stop offset="0" stop-color="#192647" stop-opacity="0.5"/><stop offset="1" stop-color="#192647" stop-opacity="0"/></linearGradient><linearGradient id="Degradado_sin_nombre_10" x1="377.22" y1="381.53" x2="287.57" y2="381.53" gradientUnits="userSpaceOnUse"><stop offset="0" stop-color="#028484" stop-opacity="0.4"/><stop offset="1" stop-color="#028484" stop-opacity="0"/></linearGradient><linearGradient id="Degradado_sin_nombre_50" x1="237.96" y1="186.24" x2="339.97" y2="288.26" gradientUnits="userSpaceOnUse"><stop offset="0" stop-color="#fff" stop-opacity="0.5"/><stop offset="1" stop-color="#ecf7f8" stop-opacity="0.1"/></linearGradient></defs><title>GLOMO</title><path class="cls-1" d="M510.93,376.61l-31.41-.67a26.89,26.89,0,0,0-5.41.45V343.6a27,27,0,0,0-27-27h-2.87V198.78h0v-21a16.1,16.1,0,0,0-16.11-16.1H293.7a16.1,16.1,0,0,0-16.1,16.1V316.62h-2.88a27,27,0,0,0-27,27V376a27.27,27.27,0,0,0-5-.48H210.65a3.5,3.5,0,0,0-3.34,4.58C214,401.08,241.68,487,241.68,487a27,27,0,0,0,25.66,18.7h17.74l-13.76,37.5a3.52,3.52,0,0,0,3.31,4.73h17.49a3.52,3.52,0,0,0,3.31-2.31l10.33-28.19H416.08l10.34,28.19a3.52,3.52,0,0,0,3.3,2.31h17.5a3.52,3.52,0,0,0,3.3-4.73l-13.75-37.5h17.74A27,27,0,0,0,480.16,487l34.05-105.82A3.52,3.52,0,0,0,510.93,376.61Z"/><path class="cls-2" d="M388.46,258H216.06a27,27,0,0,0-27,27V402.47H415.45V284.94A27,27,0,0,0,388.46,258Z"/><path class="cls-3" d="M250.12,357.28H350.23a27,27,0,0,1,27,27v21.51a0,0,0,0,1,0,0H223.14a0,0,0,0,1,0,0V384.26A27,27,0,0,1,250.12,357.28Z"/><path class="cls-4" d="M377.22,384.26a27,27,0,0,0-27-27H313.36l-25.79,48.49h89.65Z"/><rect class="cls-5" x="218.94" y="103" width="166.65" height="295.48" rx="16.1"/><rect class="cls-6" x="218.94" y="140.11" width="166.65" height="221.26"/><polygon class="cls-7" points="219.19 140.25 219.19 361.24 276.48 361.24 385.59 159.76 385.59 140.12 219.19 140.25"/><path class="cls-8" d="M327.62,238.12l-9.89,18.82a.59.59,0,0,1-1,0l-9.9-18.82a.57.57,0,0,0-.5-.31H301.5a.43.43,0,0,0-.38.63L316.7,267.6a.57.57,0,0,0,1,0l15.58-29.16a.43.43,0,0,0-.38-.63h-4.79a.57.57,0,0,0-.5.31"/><path class="cls-8" d="M333.23,263.24l9.89-18.83a.59.59,0,0,1,1,0l9.89,18.83a.57.57,0,0,0,.51.3h4.78a.43.43,0,0,0,.38-.63l-15.58-29.16a.58.58,0,0,0-1,0l-15.58,29.16a.43.43,0,0,0,.38.63h4.79a.58.58,0,0,0,.51-.3"/><path class="cls-8" d="M259.26,263.54h-8.91a.57.57,0,0,1-.58-.57v-8a.58.58,0,0,1,.58-.58h8.91c4.25,0,6.15,1.21,6.15,4.57s-1.86,4.57-6.15,4.57m-8.91-21.38h8.79c3.24,0,4.89,1.39,4.89,3.94s-1.64,3.94-4.89,3.94h-8.79a.57.57,0,0,1-.57-.57v-6.73a.58.58,0,0,1,.57-.58m15.31,9.54a6.48,6.48,0,0,0,3.35-6c0-4.69-3.65-7.87-8.81-7.87H245.38a.58.58,0,0,0-.58.57v28.95a.58.58,0,0,0,.58.58h14.17c7.09,0,10.83-3.06,10.83-9s-4.72-7.18-4.72-7.18"/><path class="cls-8" d="M289.67,263.54h-8.92a.57.57,0,0,1-.57-.57v-8a.58.58,0,0,1,.57-.58h8.92c4.25,0,6.15,1.21,6.15,4.57s-1.86,4.57-6.15,4.57m-8.91-21.38h8.79c3.24,0,4.89,1.39,4.89,3.94S292.8,250,289.55,250h-8.79a.56.56,0,0,1-.57-.57v-6.73a.57.57,0,0,1,.57-.58m15.3,9.54a6.47,6.47,0,0,0,3.36-6c0-4.69-3.66-7.87-8.81-7.87H275.78a.58.58,0,0,0-.57.57v28.95a.58.58,0,0,0,.57.58H290c7.1,0,10.84-3.06,10.84-9s-4.73-7.18-4.73-7.18"/><path class="cls-9" d="M391.86,484.57l-18.05-49.23H230.72l-18.06,49.23A3.52,3.52,0,0,0,216,489.3h17.49a3.52,3.52,0,0,0,3.31-2.31l10.34-28.19H357.42L367.76,487a3.52,3.52,0,0,0,3.3,2.31h17.5A3.52,3.52,0,0,0,391.86,484.57Z"/><path class="cls-10" d="M394.6,336,377,390.7a3.5,3.5,0,0,1-3.34,2.44H230.88a3.52,3.52,0,0,1-3.35-2.43L209.8,335.57a27,27,0,0,0-25.69-18.72H152a3.51,3.51,0,0,0-3.35,4.58c6.73,21,34.37,106.94,34.37,106.94a27,27,0,0,0,25.66,18.7H395.85a27,27,0,0,0,25.65-18.7l34.05-105.82a3.52,3.52,0,0,0-3.28-4.6l-31.41-.67A27,27,0,0,0,394.6,336Z"/></svg>