<svg id="Contenido" xmlns="http://www.w3.org/2000/svg" xmlns:xlink="http://www.w3.org/1999/xlink" viewBox="0 0 600 600"><defs><style>.cls-1{fill:url(#Degradado_sin_nombre_42);}.cls-2{fill:#043263;}.cls-3{fill:#02a5a5;}.cls-4{fill:#028484;}.cls-5{fill:#072146;}.cls-6{fill:#56e2de;}.cls-7{fill:#2dcccd;}.cls-8{fill:#1464a5;}.cls-9{fill:url(#Degradado_sin_nombre_15);}</style><linearGradient id="Degradado_sin_nombre_42" x1="290.67" y1="170.95" x2="457.3" y2="497.99" gradientUnits="userSpaceOnUse"><stop offset="0" stop-color="#192647" stop-opacity="0.5"/><stop offset="1" stop-color="#192647" stop-opacity="0"/></linearGradient><linearGradient id="Degradado_sin_nombre_15" x1="408.37" y1="405.74" x2="262.08" y2="405.74" gradientUnits="userSpaceOnUse"><stop offset="0" stop-color="#043263" stop-opacity="0.8"/><stop offset="1" stop-color="#043263" stop-opacity="0"/></linearGradient></defs><title>seguro</title><path class="cls-1" d="M529.9,282.35c0-.14,0-.28-.08-.42l.08,0-.1-.1C520.61,230.69,446.25,169,355,166.75V153.89a5,5,0,0,0-10,0v12.86c-91.24,2.2-165.6,63.94-174.79,115.05l-.1.1.08,0c0,.14-.06.28-.08.42l.44-.31c38.14,11.88,48.86,15.54,81.5,35.24,32.67-2.18,61.88.46,92.95,7.38V378a67.45,67.45,0,0,0-8.77-8.19,54.47,54.47,0,0,0-34.05-11.77A58.24,58.24,0,0,0,258.83,377c-11.08,12-17.19,28.49-17.19,46.32,0,18.35,6.83,35.15,21.5,52.86,13.12,15.85,32,31.94,53.81,50.57l5.77,4.93,9.21,7.9c3.16,2.73,6.41,5.55,9.7,8.43q.44.38.9.72c.31.22.63.43,1,.63a13.25,13.25,0,0,0,1.46.73,12.35,12.35,0,0,0,1.67.61,12.78,12.78,0,0,0,11.07-2.12c.24-.19.48-.37.71-.57q3.28-2.88,6.51-5.67c6.43-5.57,12.58-10.82,18.18-15.59,21.83-18.63,40.69-34.72,53.81-50.57,14.66-17.71,21.49-34.51,21.49-52.87a74.65,74.65,0,0,0-1.6-15.43,67.29,67.29,0,0,0-2.08-7.68A63.81,63.81,0,0,0,441.19,377c-.68-.74-1.38-1.45-2.08-2.15l-.73-.68c-.47-.45-.95-.91-1.44-1.34-.3-.27-.61-.53-.92-.79s-.87-.75-1.32-1.1-.7-.55-1.05-.82-.84-.64-1.27-.95-.76-.54-1.15-.81l-1.23-.83c-.41-.27-.83-.53-1.25-.78l-1.21-.73c-.44-.26-.88-.51-1.33-.75l-1.17-.63-1.43-.71-1.14-.53-1.52-.68-1.08-.43c-.54-.22-1.09-.43-1.64-.63l-1-.34c-.59-.2-1.18-.41-1.78-.59l-.83-.24c-.66-.19-1.32-.38-2-.55l-.47-.11a60.3,60.3,0,0,0-14.35-1.73,54.45,54.45,0,0,0-34.05,11.77A66.81,66.81,0,0,0,355,378V324.66c31.07-6.92,60.28-9.56,92.95-7.38h0c32.64-19.7,43.36-23.36,81.5-35.24Z"/><path class="cls-2" d="M300,135.8a5,5,0,0,1-5-5V105a5,5,0,0,1,10,0v25.8A5,5,0,0,1,300,135.8Z"/><path class="cls-3" d="M120.11,233c38.5,12,49.17,15.6,81.94,35.38l97.95-137C235.62,142.36,176.4,180.08,120.11,233Z"/><path class="cls-4" d="M202.05,268.39c34.42-2.3,65,.75,97.95,8.52V131.38C257,174.05,222.68,219.23,202.05,268.39Z"/><path class="cls-3" d="M479.89,233c-38.5,12-49.17,15.6-81.94,35.38L300,131.38C364.38,142.36,423.6,180.08,479.89,233Z"/><path class="cls-4" d="M398,268.39c-34.42-2.3-65,.75-97.95,8.52V131.38C341,174.15,374.62,219.46,398,268.39Z"/><rect class="cls-5" x="295" y="175.63" width="10" height="224.38"/><path class="cls-6" d="M300,117.8c-93.84,0-171,63.51-179.89,115.66,23.92-17.22,53.79-27.3,89.94-27.64h0Q226.68,153.09,300,117.8Z"/><path class="cls-6" d="M300,117.8c93.84,0,171,63.51,179.89,115.66C456,216.24,426.1,206.16,390,205.82h0Q373.32,153.09,300,117.8Z"/><path class="cls-7" d="M390,205.82q-16.63-52.73-89.95-88h0q-73.32,35.3-89.95,88c36-10.32,58.77-12.46,89.95-7.12h0C331.18,193.36,353.93,195.5,390,205.82Z"/><path class="cls-8" d="M391.18,328.06a58.24,58.24,0,0,0-43.36-18.9,54.45,54.45,0,0,0-34.05,11.77A70,70,0,0,0,300,335.32a69.72,69.72,0,0,0-13.77-14.39,54.45,54.45,0,0,0-34.05-11.77,58.24,58.24,0,0,0-43.36,18.9c-11.08,12-17.19,28.49-17.19,46.32,0,18.35,6.83,35.15,21.5,52.86,13.12,15.85,32,31.94,53.81,50.57,7.45,6.36,15.91,13.58,24.68,21.26a12.72,12.72,0,0,0,16.76,0c8.77-7.68,17.23-14.9,24.69-21.26,21.83-18.63,40.69-34.72,53.81-50.57,14.66-17.71,21.49-34.51,21.49-52.87C408.37,356.55,402.26,340.1,391.18,328.06Z"/><path class="cls-9" d="M391.18,328.06a58.08,58.08,0,0,0-39.84-18.79L262.08,473.66l4.86,4.15c7.45,6.36,15.91,13.58,24.68,21.26a12.72,12.72,0,0,0,16.76,0c8.77-7.68,17.23-14.9,24.69-21.26,21.83-18.63,40.69-34.72,53.81-50.57,14.66-17.71,21.49-34.51,21.49-52.87C408.37,356.55,402.26,340.1,391.18,328.06Z"/></svg>