<?xml version="1.0" encoding="utf-8"?>
<!-- Generator: Adobe Illustrator 23.0.1, SVG Export Plug-In . SVG Version: 6.00 Build 0)  -->
<svg version="1.1" id="Capa_1" xmlns="http://www.w3.org/2000/svg" xmlns:xlink="http://www.w3.org/1999/xlink" x="0px" y="0px"
	 viewBox="0 0 600 600" style="enable-background:new 0 0 600 600;" xml:space="preserve">
<style type="text/css">
	.st0{fill:url(#Path_1_);}
	.st1{fill:#043263;}
	.st2{fill:#02A5A5;}
	.st3{fill:#028484;}
	.st4{fill:#072146;}
	.st5{fill:#56E2DE;}
	.st6{fill:#2DCCCD;}
	.st7{fill:#1464A5;}
	.st8{fill:url(#SVGID_1_);}
	.st9{fill:#DA3951;}
	.st10{fill:#FFFFFF;}
</style>
<title>Products and Services/Life-Insurance-negative</title>
<desc>Created with Sketch.</desc>
<g>
	<g id="Life-Insurance" transform="translate(112.000000, 65.000000)">
		
			<linearGradient id="Path_1_" gradientUnits="userSpaceOnUse" x1="-231.3018" y1="532.2321" x2="-230.8847" y2="531.5009" gradientTransform="matrix(390 0 0 -435.0017 90414 231595.8125)">
			<stop  offset="0" style="stop-color:#192647;stop-opacity:0.5"/>
			<stop  offset="1" style="stop-color:#192647;stop-opacity:0"/>
		</linearGradient>
		<path id="Path" class="st0" d="M248.5,53c3,0,5.5,2.4,5.5,5.4l0,13.6c31.3,0.7,60.8,7.8,86.8,19c5.7-21.9,25.6-38,49.3-38
			c28.2,0,51,22.8,51,51c0,17.8-9.1,33.5-23,42.6c13.9,16.4,23,33.8,25.8,50.1l0,0l0,0l0,0l0,0.2l0,0l-0.2-0.2l-6.9,2.2
			c-36.1,11.3-48.3,15.9-81.7,36l-0.3-0.4l0.1,0.2l0,0c-35.5-2.4-67.2,0.5-101,8l0,57.7c2.9-3.2,6-6.1,9.4-8.8
			c10.3-8.2,23.1-12.6,36.2-12.7l0.7,0c1.3,0,2.7,0,4,0.1l0.1-0.1c16.5,0.9,31.9,8.2,43,20.4c11.8,12.9,18.4,30.4,18.6,49.4l0,0.8
			c0,11.5-2.5,22.5-7.7,33.4c-3.7,7.9-8.9,15.7-15.5,23.8c-12.9,15.6-30.8,31.4-51.7,49.3l-13.5,11.5c-6.2,5.3-12.8,11-19.7,17
			c-2.5,2.2-5.7,3.4-8.9,3.4h-0.4c-3.3,0.1-6.7-1.1-9.3-3.4l-2.3-2c-7.2-6.3-14.1-12.2-20.5-17.7l-11.5-9.8
			c-20.5-17.5-38.1-33-50.8-48.3c-15.9-19.2-23.3-37.4-23.3-57.2c0-19.3,6.6-37.2,18.6-50.1c11.9-13,28.8-20.4,46.4-20.5l0.6,0
			c13.4-0.1,26.4,4.4,36.9,12.7c3.4,2.7,6.5,5.6,9.4,8.8l0-57.9c-33.4-7.4-64.8-10.2-100-7.8l0.1-0.1l0,0l-0.2,0.3l-2.1-1.3
			c-33.8-20.2-45.8-24.2-86.5-36.9L54,197l0-0.2l0,0l0,0l0,0l0,0c9.7-55.2,90.1-122,189-124.7l0-13.6C243,55.4,245.5,53,248.5,53z"
			/>
		<path class="st1" d="M194.5,39c-3,0-5.5-2.4-5.5-5.4V5.4c0-3,2.5-5.4,5.5-5.4s5.5,2.4,5.5,5.4v28.1C200,36.6,197.5,39,194.5,39z"
			/>
		<path class="st2" d="M0,143.8c41.7,13,53.3,16.9,88.8,38.2L195,34C125.2,45.9,61,86.6,0,143.8z"/>
		<path class="st3" d="M89,181.8c37.2-2.5,70.3,0.8,106,9.2V34C148.5,80,111.3,128.8,89,181.8z"/>
		<path class="st2" d="M390,143.8c-41.7,13-53.3,16.9-88.8,38.2L195,34C264.8,45.9,329,86.6,390,143.8z"/>
		<path class="st3" d="M301,181.8c-37.2-2.5-70.3,0.8-106,9.2V34C239.3,80.1,275.7,129,301,181.8z"/>
		<rect id="Rectangle" x="189" y="82" class="st4" width="11" height="243"/>
		<path class="st5" d="M195,19C93.3,19,9.6,87.6,0,144c25.9-18.6,58.3-29.5,97.5-29.9l0,0C109.5,76.1,142,44.4,195,19z"/>
		<path class="st5" d="M195,19c101.7,0,185.4,68.6,195,125c-25.9-18.6-58.3-29.5-97.4-29.9l0,0C280.5,76.1,248,44.4,195,19z"/>
		<path class="st6" d="M292,114c-12-37.9-44.5-69.6-97.5-95l0,0c-53,25.4-85.5,57.1-97.5,95c39-11.1,63.7-13.5,97.5-7.7l0,0
			C228.2,100.5,252.9,102.9,292,114z"/>
		<path class="st7" d="M293.4,246.5c-12.1-13.2-29.1-20.6-47-20.5c-13.4-0.1-26.4,4.4-36.9,12.7c-5.7,4.5-10.7,9.7-14.9,15.6
			c-4.2-5.9-9.2-11.1-14.9-15.6c-10.5-8.3-23.5-12.8-36.9-12.7c-17.9-0.1-34.9,7.3-47,20.5c-12,13-18.6,30.8-18.6,50.1
			c0,19.9,7.4,38.1,23.3,57.2c14.2,17.2,34.7,34.6,58.3,54.7c8.1,6.9,17.3,14.7,26.8,23c5.2,4.5,13,4.5,18.2,0
			c9.5-8.3,18.7-16.1,26.8-23c23.7-20.2,44.1-37.6,58.3-54.7c15.9-19.2,23.3-37.4,23.3-57.2C312,277.3,305.4,259.5,293.4,246.5z"/>
		
			<linearGradient id="SVGID_1_" gradientUnits="userSpaceOnUse" x1="-230.2405" y1="531.7852" x2="-231.2405" y2="531.7852" gradientTransform="matrix(158 0 0 -209 36690 111473.6016)">
			<stop  offset="0" style="stop-color:#043263;stop-opacity:0.8"/>
			<stop  offset="1" style="stop-color:#043263;stop-opacity:0"/>
		</linearGradient>
		<path class="st8" d="M293.4,246.4c-11.1-12.2-26.6-19.5-43-20.4L154,404.1l5.2,4.5c8,6.9,17.2,14.7,26.7,23
			c5.2,4.6,12.9,4.6,18.1,0c9.5-8.3,18.6-16.1,26.7-23c23.6-20.2,43.9-37.6,58.1-54.8c15.8-19.2,23.2-37.4,23.2-57.3
			C312,277.2,305.4,259.4,293.4,246.4z"/>
	</g>
	<g id="Group-3" transform="translate(397.000000, 65.000000)">
		<path class="st9" d="M102,51c0,28.2-22.9,51-51,51S0,79.2,0,51S22.9,0,51,0l0,0C79.2-0.1,102,22.8,102,51"/>
		<path class="st10" d="M70,63.9L57.2,51.1L70,38.3c1.7-1.7,1.7-4.4,0-6.1c-1.7-1.7-4.4-1.7-6.1,0L51.1,45.1L38.3,32.3
			c-1.7-1.7-4.4-1.7-6.1,0c-1.7,1.7-1.7,4.4,0,6.1l12.8,12.8L32.3,63.9c-1.1,1.1-1.5,2.7-1.1,4.1c0.4,1.5,1.6,2.6,3,3
			c1.5,0.4,3.1,0,4.1-1.1l12.8-12.8L63.9,70c1.7,1.6,4.3,1.6,6-0.1S71.6,65.6,70,63.9L70,63.9z"/>
	</g>
</g>
</svg>
