<svg id="Capa_1" data-name="Capa 1" xmlns="http://www.w3.org/2000/svg" xmlns:xlink="http://www.w3.org/1999/xlink" viewBox="0 0 600 600"><defs><style>.cls-1{fill:none;}.cls-2{fill:url(#Degradado_sin_nombre_41);}.cls-3{fill:url(#Degradado_sin_nombre_41-2);}.cls-4{fill:#f7b27f;}.cls-5{fill:#2dcccd;fill-rule:evenodd;}.cls-6{fill:#02a5a5;}.cls-7{fill:url(#Degradado_sin_nombre_45);}.cls-8{fill:#facba9;}.cls-9{fill:#ffdf8a;}.cls-10{fill:#ffce44;}.cls-11{fill:#c49735;}.cls-12{fill:url(#Degradado_sin_nombre_7);}</style><linearGradient id="Degradado_sin_nombre_41" x1="232.94" y1="-1513.17" x2="403.41" y2="-1833.77" gradientTransform="matrix(1, 0, 0, -1, 0, -1362.16)" gradientUnits="userSpaceOnUse"><stop offset="0" stop-color="#192647" stop-opacity="0.5"/><stop offset="1" stop-color="#192647" stop-opacity="0"/></linearGradient><linearGradient id="Degradado_sin_nombre_41-2" x1="299.89" y1="-1467.91" x2="473.35" y2="-1794.15" xlink:href="#Degradado_sin_nombre_41"/><linearGradient id="Degradado_sin_nombre_45" x1="422.34" y1="-1524.22" x2="290.48" y2="-1524.22" gradientTransform="matrix(1, 0.05, 0.05, -1, 35.47, -1211.89)" gradientUnits="userSpaceOnUse"><stop offset="0" stop-color="#d8722c"/><stop offset="1" stop-color="#d8722c" stop-opacity="0"/></linearGradient><linearGradient id="Degradado_sin_nombre_7" x1="291.6" y1="173.16" x2="346.38" y2="227.93" gradientUnits="userSpaceOnUse"><stop offset="0" stop-color="#fff" stop-opacity="0.4"/><stop offset="1" stop-color="#fff" stop-opacity="0.1"/></linearGradient></defs><rect class="cls-1" width="600" height="600"/><path class="cls-2" d="M552,334.1c-2.7-5.39-14.37-10.78-31.44-5.39s-57,22.91-78.59,32.34c-2.89,1.26-5.82,2.37-8.76,3.35-1-5.61-3.79-10.29-8.56-12.93l-.43.06a23.09,23.09,0,0,0-17-5.56l-32.53,2.59a129.91,129.91,0,0,1-20.5,0l-17.72-1.41c-17.27-9.15-34.76-18.33-44-21.15-19.31-5.84-41.32,3.14-55.69,9a99.29,99.29,0,0,1-12.67,4.16c-.31-1.61-.63-3.22-1-4.8A16,16,0,0,0,207.6,321.7l-29.9-.06a15.89,15.89,0,0,0-15.92,15.86,16.08,16.08,0,0,0,.27,2.94,236.07,236.07,0,0,1,3.8,43.19,236.85,236.85,0,0,1-4,43.17,15.9,15.9,0,0,0,12.62,18.6,16.2,16.2,0,0,0,2.95.28l29.9.06a16,16,0,0,0,15.59-12.58c.59-2.69,1.12-5.44,1.62-8.22,6.32-2.12,17-5.06,28-5.06,37.55,0,79.93,38.17,109.13,38.17,7.63,0,21.95-7.74,37.27-17.51,21.77-13.9,47.6-26.5,78.59-45.36s68.71-43.56,73.2-48S554.73,339.49,552,334.1Z"/><path class="cls-3" d="M327.91,267.36c0,.73.09,1.46.16,2.19v.4c.08.84.19,1.67.31,2.49a3.79,3.79,0,0,0,.11.66c.11.66.22,1.32.35,2l.12.6c.16.8.35,1.59.54,2.37.06.2.11.41.17.61.16.61.33,1.22.52,1.82.07.24.14.48.22.72.23.75.48,1.5.75,2.23l.21.54c.21.58.44,1.16.68,1.73l.33.8c.26.58.52,1.16.79,1.73.11.25.23.49.35.74.29.58.58,1.15.88,1.72l.47.85c.25.45.5.88.76,1.32.15.26.3.52.46.78.36.6.75,1.19,1.14,1.77l.6.89.75,1.06.66.89c.41.54.82,1.07,1.25,1.59.25.31.51.61.77.91s.48.57.73.84.56.63.85.94.5.54.76.8c.5.52,1,1,1.52,1.53l.69.65,1,.93.66.57c.63.55,1.27,1.07,1.93,1.59l.6.47c.39.3.77.58,1.17.87l.64.46c.83.58,1.67,1.14,2.53,1.68l.23.15c.42.26.85.51,1.28.76l.67.39,1.32.73h0a56.64,56.64,0,0,0,53.18-100h0c-.92-.49-1.86-.95-2.81-1.39l-.51-.23c-.82-.37-1.64-.72-2.47-1l-.6-.24c-.89-.34-1.8-.66-2.71-1l-.34-.11c-1.06-.34-2.13-.65-3.21-.92h-.11c-1-.25-2-.46-3-.66l-.9-.16c-.76-.14-1.53-.26-2.3-.36l-1.07-.14c-.76-.09-1.53-.16-2.3-.21l-1-.08c-1.09-.06-2.19-.1-3.3-.1a56.64,56.64,0,0,0-56.64,56.64h0c0,.87,0,1.73.07,2.59A2.3,2.3,0,0,1,327.91,267.36Z"/><path class="cls-4" d="M160.69,285.35s9.75,1.39,26.94-1.73c15.26-2.78,36.38-12.82,55.69-7s74.55,39.52,89.37,42.67,38.62,1.79,60.18-7.64,61.52-26.94,78.59-32.33,28.74,0,31.43,5.39,3.15,8.61-1.34,13.06-42.22,29.15-73.21,48-56.82,31.47-78.59,45.36c-15.31,9.78-29.64,17.52-37.27,17.52-29.19,0-71.58-38.18-109.13-38.18-17.06,0-33.68,7.19-33.68,7.19L151.26,294.6Z"/><path class="cls-5" d="M128.56,270.25a15.9,15.9,0,0,0-15.93,15.87,16.08,16.08,0,0,0,.27,2.94,236.07,236.07,0,0,1,3.8,43.19,234.9,234.9,0,0,1-4,43.16A15.9,15.9,0,0,0,125.32,394a16.2,16.2,0,0,0,3,.28l29.9.07a16,16,0,0,0,15.59-12.59A231.69,231.69,0,0,0,179,332.38,232.73,232.73,0,0,0,174,283a16,16,0,0,0-15.53-12.65Z"/><circle class="cls-6" cx="143.01" cy="372.98" r="10"/><path class="cls-7" d="M360.43,352.18l-31.76,4a125.35,125.35,0,0,1-32.15-.06L247,349.68l2.71-50.16L305.37,307a126.26,126.26,0,0,0,19.91,1.07l31.74-.8a22.55,22.55,0,0,1,23.12,22c0,.59,0,1.18,0,1.77h0A22.57,22.57,0,0,1,360.43,352.18Z"/><path class="cls-4" d="M364.13,342.52l-32.38,5.9a129.42,129.42,0,0,1-33,1.72l-51.2-3.9V294.6l57.56,4.57a129.91,129.91,0,0,0,20.5,0l32.53-2.58a23.19,23.19,0,0,1,24.93,21.29c.05.61.07,1.22.07,1.83h0A23.18,23.18,0,0,1,364.13,342.52Z"/><path class="cls-8" d="M354.2,305.31c-1.58.33-4.95,8.3-3.14,16.81,1.93,9.11,5.55,13.09,8.19,12.94,1.48-.09,13.67-1.91,20.45-3,4-4,5.3-9.48,4.64-15.41h0c-.71-6.32-3.58-11.64-8.8-14.53C368.8,303.1,355.18,305.1,354.2,305.31Z"/><path class="cls-9" d="M394.86,214.65a60,60,0,1,1-60-60h0a60,60,0,0,1,60,60v0"/><path class="cls-10" d="M334.93,261.81a47.18,47.18,0,1,1,47.14-47.19,47.24,47.24,0,0,1-47.14,47.19Z"/><path class="cls-11" d="M334.88,170.26a44.38,44.38,0,1,1-44.36,44.38,44.45,44.45,0,0,1,44.36-44.38h0m0-5.59h0a50,50,0,1,0,50,50v0a50,50,0,0,0-50-50Z"/><path class="cls-12" d="M334.85,154.67a59.94,59.94,0,0,0-28.09,112.88l56.29-105.86A59.81,59.81,0,0,0,334.85,154.67Z"/></svg>