<svg id="Contenido" xmlns="http://www.w3.org/2000/svg" xmlns:xlink="http://www.w3.org/1999/xlink" viewBox="0 0 600 600"><defs><style>.cls-1{fill:url(#Degradado_sin_nombre_11);}.cls-2{fill:#02a5a5;}.cls-3{fill:url(#Degradado_sin_nombre_4);}.cls-4{fill:#5ac4c4;}.cls-5{fill:#eaf9fa;}.cls-6{fill:#d72544;}.cls-7{fill:#fff;}.cls-8{fill:none;}</style><linearGradient id="Degradado_sin_nombre_11" x1="251.77" y1="207.86" x2="421.94" y2="527.89" gradientUnits="userSpaceOnUse"><stop offset="0" stop-color="#192647" stop-opacity="0.5"/><stop offset="1" stop-color="#192647" stop-opacity="0"/></linearGradient><linearGradient id="Degradado_sin_nombre_4" x1="470" y1="782.05" x2="269.7" y2="782.05" gradientTransform="translate(0 -480)" gradientUnits="userSpaceOnUse"><stop offset="0" stop-color="#028484" stop-opacity="0.8"/><stop offset="1" stop-color="#028484" stop-opacity="0"/></linearGradient></defs><title>error_account</title><path class="cls-1" d="M557.43,451.79,521,388.61V271a2.8,2.8,0,0,0-2.8-2.8H139a2.78,2.78,0,0,0-2.8,2.7V433.7a2.8,2.8,0,0,0,2.8,2.8H420.09l-8.76,15.19a3.48,3.48,0,0,0,1.3,4.8,3.37,3.37,0,0,0,1.7.5h140.1a3.54,3.54,0,0,0,3.5-3.5A3.37,3.37,0,0,0,557.43,451.79Z"/><path class="cls-2" d="M88,217.9H467.2a2.8,2.8,0,0,1,2.8,2.8V383.4a2.8,2.8,0,0,1-2.8,2.8H88a2.8,2.8,0,0,1-2.8-2.8V220.6A2.78,2.78,0,0,1,88,217.9Z"/><path class="cls-3" d="M466.1,217.9H357L269.7,386.2H466.1a3.84,3.84,0,0,0,3.9-3.9h0V221.8A3.9,3.9,0,0,0,466.1,217.9Z"/><path class="cls-4" d="M420.3,226.3h39a2.8,2.8,0,0,1,2.8,2.8V268a2.8,2.8,0,0,1-2.8,2.8H446.2a28.59,28.59,0,0,1-28.6-28.6V229A2.57,2.57,0,0,1,420.3,226.3Z"/><path class="cls-4" d="M462,336.4v39a2.8,2.8,0,0,1-2.8,2.8h-39a2.8,2.8,0,0,1-2.8-2.8V362.3A28.59,28.59,0,0,1,446,333.7h13.1A2.68,2.68,0,0,1,462,336.4Z"/><path class="cls-4" d="M134.7,378.1h-39a2.8,2.8,0,0,1-2.8-2.8v-39a2.8,2.8,0,0,1,2.8-2.8h13.1a28.59,28.59,0,0,1,28.6,28.6v13.1A2.74,2.74,0,0,1,134.7,378.1Z"/><path class="cls-4" d="M93,268V229a2.8,2.8,0,0,1,2.8-2.8h38.9a2.8,2.8,0,0,1,2.8,2.8v13.1a28.59,28.59,0,0,1-28.6,28.6H95.8A2.65,2.65,0,0,1,93,268Z"/><path class="cls-4" d="M331.6,302.4a53,53,0,1,1-53-53.2,53,53,0,0,1,53,53.2h0"/><path class="cls-5" d="M284.8,312.8c0-3.5-1.4-4.9-8-7.9-9.5-4.3-12.4-7.6-12.4-14.3s5.4-11.3,10.8-12.7v-8.1h.3l7.8,3.5v4.5a18.79,18.79,0,0,1,7,2.4l.4.2.3.2-.1.3-.1.5-1,6.2-.2,1.2-.1.8-.6-.5-.9-.7a14.09,14.09,0,0,0-8.8-3.1c-4.1,0-6.3,1.8-6.3,5,0,2.9,1.4,4.3,7.9,7.2,9.6,4.4,12.6,7.9,12.6,15a14.14,14.14,0,0,1-10,13.3v9.3h-.7l-7.5-4.2v-4.6a32.25,32.25,0,0,1-10.6-3l-.5-.2-.3-.2v-.3l.1-.5.9-6.3.2-1.1.1-.7.6.4.9.6a20.58,20.58,0,0,0,11.3,3.7c4.3-.1,6.9-2.3,6.9-5.9"/><path class="cls-6" d="M430.33,280.09l-70,121.3a3.48,3.48,0,0,0,1.3,4.8,3.37,3.37,0,0,0,1.7.5h140.1a3.54,3.54,0,0,0,3.5-3.5,3.37,3.37,0,0,0-.5-1.7l-70-121.4a3.48,3.48,0,0,0-4.8-1.3A4,4,0,0,0,430.33,280.09Z"/><path class="cls-7" d="M432.83,365.09a5.8,5.8,0,0,1-5.8-5.8v-33.9a5.8,5.8,0,0,1,11.6,0v33.9A5.8,5.8,0,0,1,432.83,365.09Z"/><path class="cls-7" d="M432.83,383.69a3.75,3.75,0,0,1-1.1-.1l-1.1-.3a3.13,3.13,0,0,1-1-.5c-.3-.2-.6-.5-.9-.7A5.83,5.83,0,0,1,427,378a3.75,3.75,0,0,1,.1-1.1c.1-.4.2-.7.3-1.1a3.13,3.13,0,0,1,.5-1c.2-.3.5-.6.7-.9a5.5,5.5,0,0,1,.9-.7,4.67,4.67,0,0,1,1-.5,4.51,4.51,0,0,1,1.1-.3,5.82,5.82,0,0,1,5.3,1.6,5.5,5.5,0,0,1,.7.9,4.67,4.67,0,0,1,.5,1,6.4,6.4,0,0,1,.4,2.2,5.83,5.83,0,0,1-1.7,4.1A6.16,6.16,0,0,1,432.83,383.69Z"/><rect class="cls-8" width="600" height="600"/></svg>