<svg id="Contenido" xmlns="http://www.w3.org/2000/svg" xmlns:xlink="http://www.w3.org/1999/xlink" viewBox="0 0 600 600"><defs><style>.cls-1{fill:url(#Degradado_sin_nombre_6);}.cls-2{fill:#02a5a5;}.cls-3{fill:url(#Degradado_sin_nombre_4);}.cls-4{fill:#5ac4c4;}.cls-5{fill:#d72544;}.cls-6{fill:#fff;}.cls-7{fill:#eaf9fa;}.cls-8{fill:none;}</style><linearGradient id="Degradado_sin_nombre_6" x1="251.77" y1="392.69" x2="421.94" y2="72.66" gradientTransform="matrix(1, 0, 0, -1, 0, 600.55)" gradientUnits="userSpaceOnUse"><stop offset="0" stop-color="#192647" stop-opacity="0.5"/><stop offset="1" stop-color="#192647" stop-opacity="0"/></linearGradient><linearGradient id="Degradado_sin_nombre_4" x1="470" y1="1007.62" x2="269.7" y2="1007.62" gradientTransform="matrix(1, 0, 0, -1, 0, 1309.67)" gradientUnits="userSpaceOnUse"><stop offset="0" stop-color="#028484" stop-opacity="0.8"/><stop offset="1" stop-color="#028484" stop-opacity="0"/></linearGradient></defs><title>error_account</title><path class="cls-1" d="M557.43,451.79,521,388.61V271a2.8,2.8,0,0,0-2.8-2.8H139a2.78,2.78,0,0,0-2.8,2.7V433.7a2.8,2.8,0,0,0,2.8,2.8H420.09l-8.76,15.19a3.48,3.48,0,0,0,1.24,4.76l.06,0a3.3,3.3,0,0,0,1.7.5h140.1a3.54,3.54,0,0,0,3.5-3.5A3.3,3.3,0,0,0,557.43,451.79Z"/><path class="cls-2" d="M88,217.9H467.2a2.8,2.8,0,0,1,2.8,2.8V383.4a2.8,2.8,0,0,1-2.8,2.8H88a2.8,2.8,0,0,1-2.8-2.8V220.6A2.78,2.78,0,0,1,88,217.9Z"/><path class="cls-3" d="M466.1,217.9H357L269.7,386.2H466.1a3.84,3.84,0,0,0,3.9-3.78v-.12h0V221.8a3.91,3.91,0,0,0-3.9-3.9Z"/><path class="cls-4" d="M420.3,226.3h39a2.8,2.8,0,0,1,2.8,2.8V268a2.8,2.8,0,0,1-2.8,2.8H446.2a28.59,28.59,0,0,1-28.6-28.58V229a2.57,2.57,0,0,1,2.43-2.7Z"/><path class="cls-4" d="M462,336.4v39a2.8,2.8,0,0,1-2.8,2.8h-39a2.8,2.8,0,0,1-2.8-2.8V362.3A28.59,28.59,0,0,1,446,333.7H459.1a2.68,2.68,0,0,1,2.89,2.45A2.09,2.09,0,0,1,462,336.4Z"/><path class="cls-4" d="M134.7,378.1h-39a2.8,2.8,0,0,1-2.8-2.8v-39a2.8,2.8,0,0,1,2.8-2.8h13.1a28.59,28.59,0,0,1,28.6,28.58V375.2a2.74,2.74,0,0,1-2.58,2.9Z"/><path class="cls-4" d="M93,268V229a2.8,2.8,0,0,1,2.8-2.8h38.9a2.8,2.8,0,0,1,2.8,2.8h0v13.1a28.59,28.59,0,0,1-28.58,28.6H95.8a2.66,2.66,0,0,1-2.8-2.5Z"/><path class="cls-5" d="M430.33,280.09l-70,121.3a3.48,3.48,0,0,0,1.24,4.76l.06,0a3.3,3.3,0,0,0,1.7.5h140.1a3.54,3.54,0,0,0,3.5-3.5,3.3,3.3,0,0,0-.5-1.7l-70-121.4a3.48,3.48,0,0,0-4.74-1.34l-.06,0A4,4,0,0,0,430.33,280.09Z"/><path class="cls-6" d="M432.83,365.09a5.8,5.8,0,0,1-5.8-5.8v-33.9a5.8,5.8,0,0,1,11.6,0v33.9a5.8,5.8,0,0,1-5.8,5.8Z"/><path class="cls-6" d="M432.83,383.69a3.7,3.7,0,0,1-1.1-.1l-1.1-.3a3.13,3.13,0,0,1-1-.5c-.3-.2-.6-.5-.9-.7A5.82,5.82,0,0,1,427,378a3.7,3.7,0,0,1,.1-1.1c.1-.4.2-.7.3-1.1a3.13,3.13,0,0,1,.5-1c.2-.3.5-.6.7-.9a5.57,5.57,0,0,1,.9-.7,4.68,4.68,0,0,1,1-.5,4.17,4.17,0,0,1,1.1-.3,5.84,5.84,0,0,1,5.3,1.6,5.57,5.57,0,0,1,.7.9,4.68,4.68,0,0,1,.5,1,6.34,6.34,0,0,1,.4,2.2,5.79,5.79,0,0,1-1.7,4.1A6.16,6.16,0,0,1,432.83,383.69Z"/><path class="cls-4" d="M333.1,302.4a53.65,53.65,0,1,1-53.6-53.8,53.65,53.65,0,0,1,53.6,53.8v0h0"/><path class="cls-7" d="M259.5,300.2h-8.1V294h8.8c2.4-13.7,11-20,20.9-20,10.4,0,16,5.3,18.8,12.1l-7.7,4.4c-1.9-5.7-5.2-8.5-11-8.5-6.1,0-10.4,3.9-12,12h13.7v6.1H268.5V302c0,1.1,0,2.1.1,3.2h14.3v6.2H269.3c1.6,7.5,5.3,11.5,12,11.5,5.7,0,9.2-2.6,11.3-8.9l7.5,4.5c-3.1,7.1-9.5,12.2-18.9,12.2-10.3,0-18.4-6.1-20.9-19.3h-8.9v-6.2h8.2c-.1-1-.1-2-.1-3v-2Z"/><rect class="cls-8" width="600" height="600"/></svg>