<svg xmlns="http://www.w3.org/2000/svg" xmlns:xlink="http://www.w3.org/1999/xlink" viewBox="0 0 600 600"><defs><style>.cls-1{fill:none;}.cls-2{fill:url(#Degradado_sin_nombre_71);}.cls-3{fill:#043263;}.cls-4{fill:url(#Degradado_sin_nombre_21);}.cls-5{clip-path:url(#clip-path);}.cls-6{fill:#46b19b;}.cls-7{fill:#2dcccd;}.cls-8{fill:url(#Degradado_sin_nombre_8);}.cls-9{fill:#f8cd50;}.cls-10{fill:url(#Degradado_sin_nombre_4);}</style><linearGradient id="Degradado_sin_nombre_71" x1="193.91" y1="-4944.37" x2="445.79" y2="-5418.09" gradientTransform="matrix(1, 0, 0, -1, 0, -4848)" gradientUnits="userSpaceOnUse"><stop offset="0" stop-color="#192647" stop-opacity="0.5"/><stop offset="1" stop-color="#192647" stop-opacity="0"/></linearGradient><linearGradient id="Degradado_sin_nombre_21" x1="453.17" y1="-5210.3" x2="192.8" y2="-5210.3" gradientTransform="matrix(1, -0.01, -0.01, -1, -19.91, -4857.78)" gradientUnits="userSpaceOnUse"><stop offset="0" stop-color="#072146"/><stop offset="1" stop-color="#072146" stop-opacity="0"/></linearGradient><clipPath id="clip-path"><path class="cls-1" d="M475,337.94A175,175,0,1,1,298.6,164.35h0A175,175,0,0,1,475,337.94"/></clipPath><linearGradient id="Degradado_sin_nombre_8" x1="474.99" y1="-5214.15" x2="300.99" y2="-5214.15" gradientTransform="matrix(1, 0, 0, -1, 0, -4848)" gradientUnits="userSpaceOnUse"><stop offset="0" stop-color="#028484"/><stop offset="1" stop-color="#028484" stop-opacity="0"/></linearGradient><linearGradient id="Degradado_sin_nombre_4" x1="229.04" y1="-4983.53" x2="315.05" y2="-5029.26" gradientTransform="matrix(1, 0, 0, -1, 0, -4848)" gradientUnits="userSpaceOnUse"><stop offset="0" stop-color="#fade8e"/><stop offset="1" stop-color="#fade8e" stop-opacity="0.4"/></linearGradient></defs><title>8</title><g id="Cuadrados_Blancos" data-name="Cuadrados Blancos"><rect class="cls-1" width="600" height="600"/></g><g id="Capa_12" data-name="Capa 12"><path class="cls-2" d="M523.78,386.39c0-1.85-.06-3.69-.14-5.52a11.86,11.86,0,0,0-.07-1.58c-.07-1.41-.15-2.8-.25-4.2,0-.48-.06-1-.1-1.44-.15-1.81-.31-3.61-.51-5.4a6,6,0,0,0-.11-.84c-.17-1.53-.37-3.06-.59-4.58-.07-.52-.15-1-.23-1.55-.22-1.44-.46-2.87-.71-4.29-.06-.37-.12-.73-.19-1.1q-.48-2.64-1-5.25c-.08-.38-.17-.75-.26-1.12-.31-1.41-.64-2.8-1-4.19l-.36-1.43c-.41-1.57-.83-3.13-1.28-4.69-.05-.15-.08-.3-.13-.45q-.75-2.58-1.58-5.12l-.39-1.17c-.46-1.36-.92-2.71-1.41-4.06l-.42-1.17q-1.86-5-4-9.91l-.48-1.08q-.93-2.06-1.9-4.1c-.13-.26-.26-.53-.38-.8q-1.2-2.44-2.46-4.86l-.15-.27c-.78-1.49-1.59-3-2.41-4.41l-.52-.91c-.83-1.45-1.69-2.9-2.56-4.33l-.15-.24c-1-1.58-2-3.13-3-4.68l-.29-.42q-1.37-2.06-2.79-4.08l-.46-.66q-3.18-4.46-6.62-8.71l-.34-.42c-1.07-1.33-2.17-2.63-3.28-3.9l-.3-.36q-3.65-4.19-7.53-8.14l-.35-.34q-5.9-5.94-12.33-11.31a3.47,3.47,0,0,1-.29-.25q-6.51-5.38-13.52-10.15l-.19-.13q-4.71-3.18-9.62-6.07l-.12-.07c-1.63-.95-3.27-1.87-4.94-2.78h0q-7-3.8-14.38-7a66.23,66.23,0,0,0,2.23-11.16l.07-.52a76.56,76.56,0,0,0,.41-8.15,72.89,72.89,0,0,0-3.48-21.78,73.87,73.87,0,0,0-26.48-36.74,72.83,72.83,0,0,0-44-14.23h-.19a72.81,72.81,0,0,0-43.81,14.93,74,74,0,0,0-25.88,37.17,73.06,73.06,0,0,0-3.13,21.83,76.71,76.71,0,0,0,.53,8.15l.08.5h0a68.15,68.15,0,0,0,2.56,11.47,175.07,175.07,0,0,0,7.69,322.13l.23.09q7.43,2.94,15.18,5.21l.72.2c1.51.44,3,.85,4.55,1.25l.59.15q5.12,1.3,10.34,2.3l1.05.19c1.36.25,2.72.49,4.1.71l1.31.2c1.46.22,2.92.43,4.39.61l.8.11c1.73.21,3.48.39,5.23.55l1.07.09c1.37.11,2.75.22,4.13.3l1.65.09c1.26.07,2.52.12,3.78.16H345c1.75,0,3.5.06,5.27,0A174.38,174.38,0,0,0,429.71,543q5.63-2.94,11-6.28c1.92-1.18,3.81-2.42,5.67-3.68,1.63-1.09,3.25-2.2,4.84-3.35,1.13-.83,2.26-1.66,3.38-2.51q3.34-2.55,6.57-5.25c3.21-2.7,6.34-5.51,9.35-8.44a174.45,174.45,0,0,0,53.24-127.11ZM384.7,207a37.67,37.67,0,0,1-1.07,9.28,176.3,176.3,0,0,0-73.33.78A37.85,37.85,0,1,1,384.7,207Z"/><path class="cls-3" d="M475,337.94A175,175,0,1,1,298.6,164.35h0A175,175,0,0,1,475,337.94"/><path class="cls-4" d="M383.25,185.4,215.86,492.82A175,175,0,1,0,383.25,185.4Z"/><g class="cls-5"><path class="cls-6" d="M408.41,446.89a7.45,7.45,0,0,0-3.57.65,7.84,7.84,0,0,0-3.29,4.84c-.44,2.11,0,4.29-.09,6.45-.22,4.15-2.5,7.86-4.21,11.65a1,1,0,0,0-.11.7.86.86,0,0,0,.4.4c2.18,1.27,5,.2,7.12-1.11a20.65,20.65,0,0,0,4.68-3.69c3.78-4.14,4.9-10,5.87-15.53a2.39,2.39,0,0,0,0-1.35,2.3,2.3,0,0,0-1-1c-1.81-1-3-2.2-5.06-2Z"/><path class="cls-7" d="M290.61,218.66c-3.64,4-2.83,10.28-4.56,15.43-.77,2.28-2.07,4.37-2.71,6.69s-.63,4.91-1.11,7.35a17.08,17.08,0,0,1-3.3,7.21c-.57.73-1.23,1.7-.74,2.49.37.61,1.21.68,1.93.66a23.61,23.61,0,0,0,13.57-4.79,10.42,10.42,0,0,0,3.2-3.56,13.29,13.29,0,0,0,1-5.54l.48-12.94a67.71,67.71,0,0,0-.31-12.65,2.44,2.44,0,0,0-.68-1.61,2.39,2.39,0,0,0-1.6-.44A7.75,7.75,0,0,0,290.61,218.66Z"/><path class="cls-7" d="M238.61,201.83a16,16,0,0,0-12.25,7.61,7.56,7.56,0,0,0-1.11,2.94c-.3,3,2.4,5.6,5.24,6.74a14.83,14.83,0,0,0,6.25,1,29.63,29.63,0,0,0,4-.57l12.87-2.4c1.38-.26,2.93-.64,3.6-1.88a3.21,3.21,0,0,0-.32-3.19,9.89,9.89,0,0,0-2.43-2.31c-4-3-7.57-7.13-12.53-8Z"/><path class="cls-1" d="M305.71,477.62a32.09,32.09,0,0,1-4.59-19.69c.34-3.66,1.33-7.32.85-11-.93-7-7.06-12.25-13.37-15.51s-13.32-5.37-18.85-9.84c-10.28-8.3-13.15-23.1-11.27-36.18,2.13-14.91,10-26.51,21.65-35.65l14.24-11.15a64.16,64.16,0,0,1,10.05-6.86c5.48-2.77,11.65-3.86,17.75-4.56a123,123,0,0,1,22.45-.65c16,1.1,31.67,6,47.74,6.6a45.25,45.25,0,0,0,14.43-1.39c10.62-3.1,18.66-11.74,25.17-20.68,2.52-3.46,4.91-8.3,2.32-11.71-2-2.71-6.06-2.77-9.42-2.24s-7,1.35-10-.36c-2.67-1.56-3.86-4.71-5.64-7.23s-5.3-4.59-7.82-2.82a6.76,6.76,0,0,0-2.23,4c-1.34,4.95-1.79,10.1-3.07,15.06s-3.6,9.91-7.73,12.93a15.22,15.22,0,0,1-16.12.94c-1.15-.65-2.31-1.65-2.32-3a4.45,4.45,0,0,1,1-2.32q2.79-4.14,5.54-8.3c3-4.47,6.1-9.75,4.53-14.88-1.7-5.55-8.12-8.14-13.89-8.77A42.45,42.45,0,0,0,352,283.48c-4.61,1.21-9,3.2-13.7,4.07-3.46.65-7.11.7-10.27,2.27-5.55,2.76-7.92,9.26-10.07,15.09s-5.21,12.57-11.27,13.91c-18.54,4.1-28.19-12.37-27.52-22.27.47-6.91,3.53-14.17,10.07-16.44,6.78-2.35,15.29.41,20.81-4.19,6.49-5.42,3.52-16.4,8-23.58,3.5-5.61,10.61-7.54,17-9.23,12.27-3.24,21.24-8.23,27.32-19.36,7-12.8-5.3-13.43-7.9-12.38a29.86,29.86,0,0,0-11,7.78c-2.52,2.85-4.47,6.18-7,9s-6,5.18-9.81,5.21c-5.58.06-10.2-5.13-11-10.65s1.36-11.09,4.34-15.8c9.15-14.45,25.21-22.83,40.87-29.68.85-.38,1.69-.72,2.54-1.08a175.18,175.18,0,0,0-173.64,27.32,33.28,33.28,0,0,1,3.39,4.29c6.82,10.37,6.05,24.07,2.48,36S186,266.7,182.76,278.68C180.26,288,179.35,298,174,306c-3,4.4-7.11,7.85-11.2,11.24L147.44,330c-3.68,3.06-7.41,6.15-11.68,8.31a104.1,104.1,0,0,1-10.68,4.18,178.05,178.05,0,0,0,2,23.75,21.34,21.34,0,0,0,2.9,2.56c4.89,3.37,11.38,2.57,17.29,3.15a34.85,34.85,0,0,1,15.91,5.74,13.51,13.51,0,0,1,4.41,4.36,15.93,15.93,0,0,1,1.55,5.89q1.44,11.19,2.17,22.45c.33,5.12.55,10.25,1.11,15.34a116.35,116.35,0,0,0,17.69,49.84,175.35,175.35,0,0,0,142,35.88,125.38,125.38,0,0,0-14-19.49C313.84,487.23,309,483,305.71,477.62Z"/><path class="cls-1" d="M436.82,400.15c-6.53-3.6-14.44-3.66-21.82-2.56-3.17.47-6.48,1.22-8.83,3.4-4.46,4.12-3.65,11.22-2.89,17.24.84,6.67,1.12,13.71-1.66,19.83-4.39,9.72-15.09,14.61-23,21.79a47.19,47.19,0,0,0-14.34,42.3,175.58,175.58,0,0,0,91.83-83.68,36,36,0,0,1-3.87-3.44C447.25,409.88,443.1,403.64,436.82,400.15Z"/><path class="cls-7" d="M363.33,176.15c-.85.36-1.69.7-2.54,1.08-15.66,6.85-31.72,15.23-40.87,29.68-3,4.71-5.17,10.28-4.34,15.8s5.45,10.71,11,10.65c3.81,0,7.24-2.4,9.81-5.21s4.52-6.14,7-9a29.86,29.86,0,0,1,11-7.78c2.6-1.05,14.88-.42,7.9,12.38-6.08,11.13-15.05,16.12-27.32,19.36-6.4,1.69-13.51,3.62-17,9.23-4.48,7.18-1.51,18.16-8,23.58-5.52,4.6-14,1.84-20.81,4.19-6.54,2.27-9.6,9.53-10.07,16.44-.67,9.9,9,26.37,27.52,22.27,6.06-1.34,9.12-8.09,11.27-13.91s4.52-12.33,10.07-15.09c3.16-1.57,6.81-1.62,10.27-2.27,4.69-.87,9.09-2.86,13.7-4.07a42.45,42.45,0,0,1,15.14-1.12c5.77.63,12.19,3.22,13.89,8.77,1.57,5.13-1.55,10.41-4.53,14.88l-5.54,8.3a4.45,4.45,0,0,0-1,2.32c0,1.31,1.17,2.31,2.32,3a15.22,15.22,0,0,0,16.12-.94c4.13-3,6.44-8,7.73-12.93s1.73-10.11,3.07-15.06a6.76,6.76,0,0,1,2.23-4c2.52-1.77,6,.3,7.82,2.82s3,5.67,5.64,7.23c2.93,1.71,6.61.9,10,.36s7.37-.47,9.42,2.24c2.59,3.41.2,8.25-2.32,11.71-6.51,8.94-14.55,17.58-25.17,20.68a45.24,45.24,0,0,1-14.38,1.41c-16.07-.62-31.7-5.5-47.74-6.6a123,123,0,0,0-22.45.65c-6.1.7-12.27,1.79-17.75,4.56a64.16,64.16,0,0,0-10.05,6.86l-14.24,11.15c-11.68,9.14-19.52,20.74-21.65,35.65-1.88,13.08,1,27.88,11.27,36.18,5.53,4.47,12.54,6.58,18.85,9.84S301,439.91,302,447c.48,3.64-.51,7.3-.85,11a32.09,32.09,0,0,0,4.59,19.69c3.31,5.37,8.13,9.61,12.37,14.3a125.38,125.38,0,0,1,14,19.49,174.09,174.09,0,0,0,32.2-9.28,47.21,47.21,0,0,1,14.33-42.28c7.89-7.18,18.59-12.07,23-21.79,2.78-6.12,2.5-13.16,1.66-19.83-.76-6-1.57-13.12,2.89-17.24,2.35-2.18,5.66-2.93,8.83-3.4,7.38-1.1,15.29-1,21.82,2.56,6.28,3.47,10.43,9.71,15.42,14.86a36,36,0,0,0,3.87,3.44A175.08,175.08,0,0,0,379,183.16Q371.37,179.27,363.33,176.15Z"/><path class="cls-7" d="M147.39,330l15.33-12.73c4.09-3.39,8.23-6.84,11.2-11.24,5.38-8,6.29-18,8.79-27.33,3.23-12,9.28-23,12.85-34.92s4.34-25.59-2.48-36a33.28,33.28,0,0,0-3.39-4.29A174.67,174.67,0,0,0,125,340.75v1.7a104.1,104.1,0,0,0,10.68-4.18C140,336.15,143.71,333,147.39,330Z"/><path class="cls-7" d="M171.28,410.35q-.72-11.25-2.17-22.45a15.93,15.93,0,0,0-1.55-5.89,13.51,13.51,0,0,0-4.41-4.36,34.85,34.85,0,0,0-15.91-5.74c-5.91-.58-12.4.22-17.29-3.15a21.34,21.34,0,0,1-2.9-2.56,174.79,174.79,0,0,0,63,109.33,116.35,116.35,0,0,1-17.69-49.84C171.83,420.6,171.61,415.47,171.28,410.35Z"/><path class="cls-1" d="M305.71,477.62a32.09,32.09,0,0,1-4.59-19.69c.22-2.31.69-4.61.88-6.92l66.61-120.93a171.27,171.27,0,0,0,23.75,3.07,45.25,45.25,0,0,0,14.43-1.39c10.62-3.1,18.66-11.74,25.17-20.68,2.52-3.46,4.91-8.3,2.32-11.71-2-2.71-6.06-2.77-9.42-2.24s-7,1.35-10-.36c-2.67-1.56-3.86-4.71-5.64-7.23s-5.3-4.59-7.82-2.82a6.76,6.76,0,0,0-2.23,4c-1.34,4.95-1.79,10.1-3.07,15.06s-3.6,9.91-7.73,12.93a15.26,15.26,0,0,1-14.45,1.74l54.84-99.53A174.93,174.93,0,1,0,332,511.44,125.38,125.38,0,0,0,318,492C313.84,487.24,309,483,305.71,477.62Z"/><path class="cls-1" d="M436.82,400.15c-6.53-3.61-14.44-3.66-21.82-2.56-3.17.47-6.48,1.22-8.83,3.4-4.46,4.12-3.65,11.22-2.89,17.24.84,6.67,1.12,13.71-1.66,19.83-4.39,9.72-15.09,14.61-23,21.79a47.19,47.19,0,0,0-14.34,42.3,175.58,175.58,0,0,0,91.83-83.68,36,36,0,0,1-3.87-3.44C447.25,409.88,443.1,403.64,436.82,400.15Z"/><path class="cls-8" d="M428.8,220.89,374,320.42a15.26,15.26,0,0,0,14.45-1.74c4.13-3,6.44-8,7.73-12.93s1.73-10.11,3.07-15.06a6.76,6.76,0,0,1,2.23-4c2.52-1.77,6,.3,7.82,2.82s3,5.67,5.64,7.23c2.93,1.71,6.61.9,10,.36s7.37-.47,9.42,2.24c2.59,3.41.2,8.25-2.32,11.71-6.51,8.94-14.55,17.58-25.17,20.68a45.23,45.23,0,0,1-14.47,1.42,171.27,171.27,0,0,1-23.75-3.07L302,451c-.19,2.31-.66,4.61-.88,6.92a32.09,32.09,0,0,0,4.59,19.69c3.31,5.37,8.13,9.62,12.37,14.3a125.38,125.38,0,0,1,14,19.49,173.26,173.26,0,0,0,32.2-9.26,47.21,47.21,0,0,1,14.33-42.28c7.89-7.18,18.59-12.07,23-21.79,2.78-6.12,2.5-13.16,1.66-19.83-.76-6-1.57-13.12,2.89-17.24,2.35-2.18,5.66-2.93,8.83-3.4,7.38-1.1,15.29-1,21.82,2.56,6.28,3.47,10.43,9.71,15.42,14.86a36,36,0,0,0,3.87,3.44,175,175,0,0,0-27.31-197.58Z"/></g><path class="cls-9" d="M369.81,137.15a73.5,73.5,0,0,0-114-36.92A73.17,73.17,0,0,0,226.28,159a79,79,0,0,0,.47,8.15l.07.51h0c.86,7.38,3.22,14.71,6.31,22.11,3.71,8.9,27.22,52.13,65.18,97.45l1.37,1.44,1.36-1.44c40.7-48.31,61.81-89.63,65.18-97.45a79.33,79.33,0,0,0,6.39-22.11v-.5a76.33,76.33,0,0,0,.47-8.15A73,73,0,0,0,369.81,137.15Zm-70.1,59.36a37.9,37.9,0,1,1,37.9-37.9v0a37.9,37.9,0,0,1-37.9,37.89Z"/><path class="cls-10" d="M299.71,196.54a37.9,37.9,0,1,1,34.9-52.74l18.53-35.05A73.39,73.39,0,0,0,226.3,159a79,79,0,0,0,.47,8.15l.07.51h0c.86,7.38,3.22,14.71,6.31,22.11C236,196.63,250.72,224,274.76,257l32.35-61.21A37.44,37.44,0,0,1,299.71,196.54Z"/></g></svg>