<svg id="Contenido" xmlns="http://www.w3.org/2000/svg" xmlns:xlink="http://www.w3.org/1999/xlink" viewBox="0 0 600 600"><defs><style>.cls-1{fill:url(#Degradado_sin_nombre_16);}.cls-2{fill:#d4edfc;}.cls-3{fill:url(#Degradado_sin_nombre_35);}.cls-4{fill:#1464a5;}.cls-5{fill:url(#Degradado_sin_nombre_37);}.cls-6{fill:#043263;}.cls-7{fill:#f8cd50;}.cls-8{fill:url(#Degradado_sin_nombre_5);}</style><linearGradient id="Degradado_sin_nombre_16" x1="258.32" y1="144.27" x2="458.71" y2="521.15" gradientUnits="userSpaceOnUse"><stop offset="0" stop-color="#1c2645"/><stop offset="0" stop-color="#1c2645" stop-opacity="0.5"/><stop offset="1" stop-color="#1c2645" stop-opacity="0"/></linearGradient><linearGradient id="Degradado_sin_nombre_35" x1="381" y1="303.97" x2="176.54" y2="303.97" gradientUnits="userSpaceOnUse"><stop offset="0.02" stop-color="#043263" stop-opacity="0.1"/><stop offset="1" stop-color="#043263" stop-opacity="0"/></linearGradient><linearGradient id="Degradado_sin_nombre_37" x1="341" y1="219.8" x2="245.48" y2="219.8" gradientUnits="userSpaceOnUse"><stop offset="0" stop-color="#043263" stop-opacity="0.6"/><stop offset="1" stop-color="#043263" stop-opacity="0"/></linearGradient><linearGradient id="Degradado_sin_nombre_5" x1="284.69" y1="171.96" x2="359.48" y2="246.75" gradientUnits="userSpaceOnUse"><stop offset="0" stop-color="#fff" stop-opacity="0.6"/><stop offset="1" stop-color="#fff" stop-opacity="0.2"/></linearGradient></defs><title>seguros_colombia</title><path class="cls-1" d="M536,241H431V177.84A22.84,22.84,0,0,0,408.16,155H243.84A22.84,22.84,0,0,0,221,177.84V522.16A22.84,22.84,0,0,0,243.84,545H408.16A22.84,22.84,0,0,0,431,522.16V291H536a25,25,0,0,0,25-25h0A25,25,0,0,0,536,241Z"/><rect class="cls-2" x="171" y="105" width="210" height="390" rx="22.84" ry="22.84"/><path class="cls-3" d="M176.54,487.06a22.78,22.78,0,0,0,17.3,7.94H358.16A22.84,22.84,0,0,0,381,472.16V127.84a22.74,22.74,0,0,0-5.54-14.9Z"/><circle class="cls-4" cx="276" cy="216" r="65"/><path class="cls-5" d="M306.52,158.61l-61,114.79a65,65,0,0,0,61-114.79Z"/><circle class="cls-6" cx="276" cy="216" r="35"/><rect class="cls-7" x="251" y="191" width="260" height="50" rx="25" ry="25"/><circle class="cls-6" cx="276" cy="378" r="27"/><rect class="cls-6" x="263" y="387" width="26" height="54" rx="13" ry="13"/><path class="cls-8" d="M276,191a25,25,0,0,0,0,50h89.23l26.59-50Z"/></svg>