<svg id="Contenido" xmlns="http://www.w3.org/2000/svg" xmlns:xlink="http://www.w3.org/1999/xlink" viewBox="0 0 600 600"><defs><style>.cls-1{fill:url(#Degradado_sin_nombre_74);}.cls-2{fill:url(#Degradado_sin_nombre_74-2);}.cls-3{fill:#1464a5;}.cls-4{fill:#2dcccd;}.cls-5{fill:#072146;}.cls-6{fill:url(#Degradado_sin_nombre_4);}.cls-7{fill:#5bbeff;}.cls-8{fill:url(#Degradado_sin_nombre_4-2);}.cls-9{fill:url(#Degradado_sin_nombre_26);}.cls-10{fill:url(#Degradado_sin_nombre_4-3);}.cls-11{fill:url(#Degradado_sin_nombre_4-4);}.cls-12{fill:url(#Degradado_sin_nombre_26-2);}</style><linearGradient id="Degradado_sin_nombre_74" x1="157.58" y1="153.62" x2="386.35" y2="583.87" gradientUnits="userSpaceOnUse"><stop offset="0" stop-color="#082146" stop-opacity="0.5"/><stop offset="1" stop-color="#082146" stop-opacity="0"/></linearGradient><linearGradient id="Degradado_sin_nombre_74-2" x1="307.61" y1="119.14" x2="536.38" y2="549.39" xlink:href="#Degradado_sin_nombre_74"/><linearGradient id="Degradado_sin_nombre_4" x1="135.22" y1="346.92" x2="290.63" y2="346.92" gradientUnits="userSpaceOnUse"><stop offset="0" stop-color="#043263" stop-opacity="0"/><stop offset="1" stop-color="#043263" stop-opacity="0.4"/></linearGradient><linearGradient id="Degradado_sin_nombre_4-2" x1="171.45" y1="313.83" x2="185.73" y2="313.83" xlink:href="#Degradado_sin_nombre_4"/><linearGradient id="Degradado_sin_nombre_26" x1="116.73" y1="279.15" x2="156.86" y2="319.27" gradientUnits="userSpaceOnUse"><stop offset="0" stop-color="#fff" stop-opacity="0.6"/><stop offset="0.85" stop-color="#fff" stop-opacity="0.2"/></linearGradient><linearGradient id="Degradado_sin_nombre_4-3" x1="303.58" y1="346.92" x2="459" y2="346.92" xlink:href="#Degradado_sin_nombre_4"/><linearGradient id="Degradado_sin_nombre_4-4" x1="339.82" y1="313.83" x2="354.09" y2="313.83" xlink:href="#Degradado_sin_nombre_4"/><linearGradient id="Degradado_sin_nombre_26-2" x1="285.1" y1="279.15" x2="325.22" y2="319.27" xlink:href="#Degradado_sin_nombre_26"/></defs><path class="cls-1" d="M331.24,141.47H191.36a7.77,7.77,0,0,0-7.77,7.77V311.45l-.61-.38a1.37,1.37,0,0,0-.67-.2,1.47,1.47,0,0,0-.91.36,1.3,1.3,0,0,0-.4.94v98.94a1.29,1.29,0,0,0,2,1.1l.61-.38V548.14a8,8,0,0,0,.16,1.56,7.78,7.78,0,0,0,7.61,6.21H331.24a7.83,7.83,0,0,0,7.16-4.75,7.74,7.74,0,0,0,.45-1.46,8,8,0,0,0,.16-1.56V149.24A7.77,7.77,0,0,0,331.24,141.47Z"/><path class="cls-2" d="M499.6,141.47H359.73a7.77,7.77,0,0,0-7.77,7.77V311.45l-.61-.38a1.4,1.4,0,0,0-.67-.2,1.42,1.42,0,0,0-.91.36,1.3,1.3,0,0,0-.4.94v98.94a1.29,1.29,0,0,0,2,1.1l.61-.38V548.14a7.31,7.31,0,0,0,.16,1.56,7.07,7.07,0,0,0,.45,1.46,7.79,7.79,0,0,0,7.16,4.75H499.6a7.89,7.89,0,0,0,1.39-.13,7.82,7.82,0,0,0,6.23-6.08,8,8,0,0,0,.15-1.56V149.24A7.77,7.77,0,0,0,499.6,141.47Z"/><rect class="cls-3" x="135.22" y="93.09" width="155.42" height="414.44" rx="7.77"/><path class="cls-4" d="M141.1,359.77l-6.49,4.06a1.29,1.29,0,0,1-2-1.1V263.79a1.29,1.29,0,0,1,2-1.09l6.49,4.05a26.08,26.08,0,0,1,12.25,22.1v48.82A26.05,26.05,0,0,1,141.1,359.77Z"/><rect class="cls-5" x="154.64" y="141.67" width="116.56" height="7.77" rx="3.89"/><rect class="cls-5" x="154.64" y="161.09" width="116.56" height="7.77" rx="3.89"/><rect class="cls-5" x="154.64" y="180.52" width="116.56" height="7.77" rx="3.89"/><path class="cls-6" d="M135.22,478.6v21.16a7.77,7.77,0,0,0,7.77,7.77H282.86a7.77,7.77,0,0,0,7.77-7.77V186.31Z"/><circle class="cls-7" cx="176.01" cy="313.26" r="9.71"/><path class="cls-8" d="M180.57,304.69l-9.12,17.15a9.71,9.71,0,1,0,9.12-17.15Z"/><path class="cls-9" d="M153.35,288.85a26.08,26.08,0,0,0-12.25-22.1l-6.49-4.05a1.29,1.29,0,0,0-2,1.09v69l20.72-39Z"/><rect class="cls-3" x="303.58" y="93.09" width="155.42" height="414.44" rx="7.77"/><path class="cls-4" d="M309.46,359.77,303,363.83a1.29,1.29,0,0,1-2-1.1V263.79a1.29,1.29,0,0,1,2-1.09l6.49,4.05a26.06,26.06,0,0,1,12.25,22.1v48.82A26,26,0,0,1,309.46,359.77Z"/><rect class="cls-5" x="323.01" y="141.67" width="116.56" height="7.77" rx="3.89"/><rect class="cls-5" x="323.01" y="122.24" width="116.56" height="7.77" rx="3.89"/><rect class="cls-5" x="323.01" y="161.09" width="116.56" height="7.77" rx="3.89"/><rect class="cls-5" x="323.01" y="180.52" width="116.56" height="7.77" rx="3.89"/><path class="cls-10" d="M303.58,478.6v21.16a7.77,7.77,0,0,0,7.77,7.77H451.23a7.77,7.77,0,0,0,7.77-7.77V186.31Z"/><circle class="cls-7" cx="344.38" cy="313.26" r="9.71"/><path class="cls-11" d="M348.94,304.69l-9.12,17.15a9.71,9.71,0,0,0,9.12-17.15Z"/><path class="cls-12" d="M321.71,288.85a26.07,26.07,0,0,0-12.24-22.1L303,262.7a1.29,1.29,0,0,0-2,1.09v69l20.72-39Z"/><rect class="cls-5" x="154.64" y="122.24" width="116.56" height="7.77" rx="3.89"/></svg>