<svg xmlns="http://www.w3.org/2000/svg" xmlns:xlink="http://www.w3.org/1999/xlink" viewBox="0 0 600 600"><defs><style>.fbb70cd4-923d-4238-bf91-d7c7d8d46b8f{fill:none;}.b273f8be-018a-4253-b042-8003f923861a{fill:url(#a432b138-271d-438c-8ac6-d76f42a2a939);}.fd8fd4aa-e722-4bc3-bd39-9a05b023a375{fill:#ffcc28;}.ef1468c0-3570-4aa4-a721-92498505eb2d{fill:url(#aacf69ce-f4e7-4cb3-a275-d1da68cf40e5);}.bc92d358-e64c-4c8c-9f6d-2a85b08e9147{fill:#003267;}.a4984b9d-4278-4d60-88ad-ac7517c433e4{fill:#cdeefe;}.e49d960a-faab-4bc6-abf4-c02a1fe7c3ab{fill:#ff9098;}.e1c3258d-5bfd-428d-9a9b-7bda78089625{fill:url(#a92bc8ba-7e60-468b-9723-e36ff9f122bd);}.aaf0643a-0d23-463f-8ad5-bd1199fade00{fill:#00a6eb;}.e732351a-f7e6-41b3-93bf-4a20713ff827{fill:url(#e5a1ffbd-6557-485f-80be-92e726fc3109);}.ba192521-2449-4556-a2d6-c0dbb76a7e62{fill:url(#b4ef6872-b06f-4b3d-b820-73cdf62fb083);}</style><linearGradient id="a432b138-271d-438c-8ac6-d76f42a2a939" x1="266.23" y1="175.1" x2="427.76" y2="478.9" gradientUnits="userSpaceOnUse"><stop offset="0" stop-color="#142649" stop-opacity="0.5"/><stop offset="1" stop-color="#142649" stop-opacity="0"/></linearGradient><linearGradient id="aacf69ce-f4e7-4cb3-a275-d1da68cf40e5" x1="145.17" y1="196.87" x2="298.2" y2="278.23" gradientUnits="userSpaceOnUse"><stop offset="0" stop-color="#fff" stop-opacity="0.6"/><stop offset="1" stop-color="#fff" stop-opacity="0.2"/></linearGradient><linearGradient id="a92bc8ba-7e60-468b-9723-e36ff9f122bd" x1="347.83" y1="359.6" x2="302.07" y2="359.6" gradientUnits="userSpaceOnUse"><stop offset="0" stop-color="#d43a5d" stop-opacity="0.6"/><stop offset="1" stop-color="#d43a5d" stop-opacity="0.1"/></linearGradient><linearGradient id="e5a1ffbd-6557-485f-80be-92e726fc3109" x1="437.75" y1="194.4" x2="357.94" y2="194.4" gradientUnits="userSpaceOnUse"><stop offset="0" stop-color="#0065a9" stop-opacity="0.8"/><stop offset="1" stop-color="#0065a9" stop-opacity="0"/></linearGradient><linearGradient id="b4ef6872-b06f-4b3d-b820-73cdf62fb083" x1="277.25" y1="194.4" x2="197.43" y2="194.4" gradientUnits="userSpaceOnUse"><stop offset="0" stop-color="#0065a9" stop-opacity="0.8"/><stop offset="1" stop-color="#0065a9" stop-opacity="0"/></linearGradient></defs><g id="bea17d5f-708a-456b-bc03-c43ea3e04af2" data-name="cuadrados blancos"><rect class="fbb70cd4-923d-4238-bf91-d7c7d8d46b8f" width="600" height="600"/></g><g id="b572bc60-b015-4815-9f54-4a0c34b3de65" data-name="Capa 9"><path class="b273f8be-018a-4253-b042-8003f923861a" d="M519,326.9A172,172,0,1,1,346.89,155,172,172,0,0,1,519,326.9"/><path class="fd8fd4aa-e722-4bc3-bd39-9a05b023a375" d="M469,277.65c0,95.09-77.12,172-171.87,172S125,372.48,125,277.65s77.12-172,171.87-172h0c95,0,172.13,76.92,172.13,172"/><path class="ef1468c0-3570-4aa4-a721-92498505eb2d" d="M296.87,105.65c-94.75,0-171.87,77.18-171.87,172,0,66.1,37.6,123.62,92.47,152.41L378,125.92A171.62,171.62,0,0,0,296.87,105.65Z"/><path class="bc92d358-e64c-4c8c-9f6d-2a85b08e9147" d="M297,267.1c-34.52,0-66.51,4.94-92.75,13.33a22.94,22.94,0,0,0-14,31c16.08,37.05,57.8,63.46,106.73,63.46s90.65-26.41,106.73-63.46a22.94,22.94,0,0,0-14-31C363.51,272,331.52,267.1,297,267.1Z"/><path class="a4984b9d-4278-4d60-88ad-ac7517c433e4" d="M297,291.16c29.85,0,57.35-5.44,79.32-14.58-23.42-6-50.48-9.48-79.32-9.48s-55.9,3.46-79.33,9.48C239.65,285.72,267.15,291.16,297,291.16Z"/><path class="e49d960a-faab-4bc6-abf4-c02a1fe7c3ab" d="M297,374.86a129.31,129.31,0,0,0,50.83-10.23,66.56,66.56,0,0,0-101.66,0A129.31,129.31,0,0,0,297,374.86Z"/><path class="e1c3258d-5bfd-428d-9a9b-7bda78089625" d="M318.19,344.45l-16.12,30.3a128.43,128.43,0,0,0,45.76-10.12A64.64,64.64,0,0,0,318.19,344.45Z"/><path class="aaf0643a-0d23-463f-8ad5-bd1199fade00" d="M428.37,152a31.77,31.77,0,0,0-23.65-10.31,29.71,29.71,0,0,0-18.58,6.42,38,38,0,0,0-7.51,7.85,38,38,0,0,0-7.52-7.85,29.7,29.7,0,0,0-18.57-6.42A31.77,31.77,0,0,0,328.88,152a37,37,0,0,0-9.38,25.27c0,10,3.73,19.18,11.73,28.84,7.16,8.65,17.45,17.43,29.36,27.59,4.07,3.47,8.68,7.41,13.47,11.6a6.93,6.93,0,0,0,9.14,0c4.78-4.19,9.4-8.13,13.47-11.6,11.91-10.16,22.2-18.94,29.35-27.59,8-9.66,11.73-18.83,11.73-28.84A37,37,0,0,0,428.37,152Z"/><path class="e732351a-f7e6-41b3-93bf-4a20713ff827" d="M428.37,152a31.67,31.67,0,0,0-21.74-10.25l-48.69,89.69,2.65,2.26c4.07,3.47,8.68,7.41,13.47,11.6a6.93,6.93,0,0,0,9.14,0c4.78-4.19,9.4-8.13,13.47-11.6,11.91-10.16,22.2-18.94,29.35-27.59,8-9.66,11.73-18.83,11.73-28.84A37,37,0,0,0,428.37,152Z"/><path class="aaf0643a-0d23-463f-8ad5-bd1199fade00" d="M267.87,152a31.8,31.8,0,0,0-23.66-10.31,29.75,29.75,0,0,0-18.58,6.42,38.25,38.25,0,0,0-7.51,7.85,38,38,0,0,0-7.51-7.85A29.71,29.71,0,0,0,192,141.71,31.77,31.77,0,0,0,168.38,152,37,37,0,0,0,159,177.29c0,10,3.72,19.18,11.72,28.84,7.16,8.65,17.45,17.43,29.36,27.59,4.07,3.47,8.68,7.41,13.47,11.6a6.93,6.93,0,0,0,9.14,0c4.79-4.19,9.4-8.13,13.47-11.6,11.91-10.16,22.2-18.94,29.36-27.59,8-9.66,11.73-18.83,11.73-28.84A37.06,37.06,0,0,0,267.87,152Z"/><path class="ba192521-2449-4556-a2d6-c0dbb76a7e62" d="M267.87,152a31.71,31.71,0,0,0-21.74-10.25l-48.7,89.69,2.65,2.26c4.07,3.47,8.68,7.41,13.47,11.6a6.93,6.93,0,0,0,9.14,0c4.79-4.19,9.4-8.13,13.47-11.6,11.91-10.16,22.2-18.94,29.36-27.59,8-9.66,11.73-18.83,11.73-28.84A37.06,37.06,0,0,0,267.87,152Z"/></g></svg>