<svg id="Contenido" xmlns="http://www.w3.org/2000/svg" xmlns:xlink="http://www.w3.org/1999/xlink" viewBox="0 0 600 600"><defs><style>.cls-1{fill:url(#Degradado_sin_nombre_4);}.cls-2{fill:url(#Degradado_sin_nombre_4-2);}.cls-3{fill:url(#Degradado_sin_nombre_4-3);}.cls-4{fill:#1464a5;}.cls-5{fill:#f2969a;}.cls-6{fill:url(#Degradado_sin_nombre_8);}.cls-7{fill:url(#Degradado_sin_nombre_8-2);}.cls-8{fill:url(#Degradado_sin_nombre_8-3);}.cls-9{fill:url(#Degradado_sin_nombre_46);}.cls-10{fill:url(#Degradado_sin_nombre_46-2);}.cls-11{fill:url(#Degradado_sin_nombre_46-3);}</style><linearGradient id="Degradado_sin_nombre_4" x1="294.07" y1="148.64" x2="464.14" y2="468.49" gradientUnits="userSpaceOnUse"><stop offset="0" stop-color="#192647" stop-opacity="0.5"/><stop offset="1" stop-color="#192647" stop-opacity="0"/></linearGradient><linearGradient id="Degradado_sin_nombre_4-2" x1="194.51" y1="190.02" x2="364.18" y2="509.12" xlink:href="#Degradado_sin_nombre_4"/><linearGradient id="Degradado_sin_nombre_4-3" x1="158.95" y1="200.8" x2="333.39" y2="528.89" xlink:href="#Degradado_sin_nombre_4"/><linearGradient id="Degradado_sin_nombre_8" x1="477.79" y1="334.05" x2="265.05" y2="334.05" gradientUnits="userSpaceOnUse"><stop offset="0" stop-color="#043263" stop-opacity="0.6"/><stop offset="1" stop-color="#043263" stop-opacity="0"/></linearGradient><linearGradient id="Degradado_sin_nombre_8-2" x1="477.79" y1="397.87" x2="265.05" y2="397.87" xlink:href="#Degradado_sin_nombre_8"/><linearGradient id="Degradado_sin_nombre_8-3" x1="477.79" y1="332.11" x2="265.05" y2="332.11" xlink:href="#Degradado_sin_nombre_8"/><linearGradient id="Degradado_sin_nombre_46" x1="293.6" y1="337.18" x2="172.41" y2="337.18" gradientUnits="userSpaceOnUse"><stop offset="0" stop-color="#c1475f" stop-opacity="0.6"/><stop offset="1" stop-color="#c1475f" stop-opacity="0"/></linearGradient><linearGradient id="Degradado_sin_nombre_46-2" x1="293.6" y1="205.66" x2="259.81" y2="205.66" xlink:href="#Degradado_sin_nombre_46"/><linearGradient id="Degradado_sin_nombre_46-3" x1="293.6" y1="431.36" x2="216.9" y2="431.36" xlink:href="#Degradado_sin_nombre_46"/></defs><title>vacantes</title><path class="cls-1" d="M506.37,374.86A59.25,59.25,0,0,0,489,332.81a34.58,34.58,0,0,0-16-44.65,38.65,38.65,0,0,0-29.56-51,47.93,47.93,0,0,0-95.78,2.71h0V462.34h0v4.93a41.15,41.15,0,0,0,80.06,7.32,35,35,0,0,0,6.53.62,34.6,34.6,0,0,0,33.15-44.51A59.48,59.48,0,0,0,506.37,374.86Z"/><path class="cls-2" d="M289.12,192a47.93,47.93,0,0,0-47.85,45.23,38.65,38.65,0,0,0-29.56,51,34.58,34.58,0,0,0-18.87,30.63c0,.13,0,.26,0,.39a34.45,34.45,0,0,0,1,8.05c0,.21.09.41.15.62l0,.12a34.66,34.66,0,0,0,1.7,4.84h0a34.42,34.42,0,0,0,31.56,20.75,4.28,4.28,0,1,1,0,8.55,43,43,0,0,1-37.6-22.22,59.48,59.48,0,0,0,27.64,90.82,34.59,34.59,0,0,0,32,44.48,4.23,4.23,0,0,1,1.19-.19,34.42,34.42,0,0,0,34.38-34.38,4.28,4.28,0,0,1,4.28-4.28h47.93V239.9A47.94,47.94,0,0,0,289.12,192Z"/><path class="cls-3" d="M260.36,482.41a41.18,41.18,0,0,0,76.7-15.12V444.9H293.19A43.06,43.06,0,0,1,260.36,482.41Z"/><path class="cls-4" d="M462.91,332.11a59.25,59.25,0,0,0-17.42-42.05,34.59,34.59,0,0,0-16-44.66,38.64,38.64,0,0,0-29.56-51,47.93,47.93,0,0,0-95.78,2.7h0v36.22h57.2a15.86,15.86,0,1,1,0,8.55h-57.2v31.51h32.53a4.28,4.28,0,1,1,0,8.55H304.16v31.5h73.92L392,321.17a15.76,15.76,0,1,1-4,7.54L375.88,322H304.16v31.5h51.13a4.28,4.28,0,1,1,0,8.55H304.16V393.6H335a15.85,15.85,0,1,1,0,8.55H304.16V419.6h0v4.92a41.15,41.15,0,0,0,80.06,7.32,34.18,34.18,0,0,0,6.53.63A34.61,34.61,0,0,0,423.9,388,59.48,59.48,0,0,0,462.91,332.11ZM359.17,280.73a4.29,4.29,0,1,1,1.25-3A4.34,4.34,0,0,1,359.17,280.73Zm19.17-2.19a4.35,4.35,0,0,1-.24.8,4.46,4.46,0,0,1-.93,1.39,4.29,4.29,0,0,1-6.05,0,4.22,4.22,0,0,1-.92-1.39,3.69,3.69,0,0,1-.24-.8,3.93,3.93,0,0,1-.09-.84,4,4,0,0,1,.09-.83,3.69,3.69,0,0,1,.24-.8,4.73,4.73,0,0,1,.39-.74,4.18,4.18,0,0,1,.53-.65,6.54,6.54,0,0,1,.65-.53,4.78,4.78,0,0,1,.74-.39,4.63,4.63,0,0,1,.8-.25,4.33,4.33,0,0,1,3.86,1.17,3.67,3.67,0,0,1,.53.65,4.06,4.06,0,0,1,.4.74,4.35,4.35,0,0,1,.24.8,4.4,4.4,0,0,1,0,1.67Zm0,80.11a4.35,4.35,0,0,1-.24.8,4.06,4.06,0,0,1-.4.74,3.67,3.67,0,0,1-.53.65,4.28,4.28,0,0,1-3,1.25,4,4,0,0,1-.84-.09,4.55,4.55,0,0,1-.8-.23,5.91,5.91,0,0,1-.74-.4,4.57,4.57,0,0,1-.65-.53,4.18,4.18,0,0,1-.53-.65,4.73,4.73,0,0,1-.39-.74,3.69,3.69,0,0,1-.24-.8,3.86,3.86,0,0,1-.09-.84A3.81,3.81,0,0,1,370,357a3.78,3.78,0,0,1,.24-.81,4.63,4.63,0,0,1,.39-.73,3.76,3.76,0,0,1,.53-.65,5.47,5.47,0,0,1,.65-.54,5.91,5.91,0,0,1,.74-.4,5.65,5.65,0,0,1,.8-.24,4.31,4.31,0,0,1,3.86,1.18,3.35,3.35,0,0,1,.53.65,4,4,0,0,1,.4.73,4.45,4.45,0,0,1,.24.81,3.8,3.8,0,0,1,.08.82A3.86,3.86,0,0,1,378.34,358.65Z"/><circle class="cls-4" cx="350.26" cy="397.87" r="7.3"/><path class="cls-4" d="M383.91,237.65a7.3,7.3,0,1,0-7.3,7.3A7.31,7.31,0,0,0,383.91,237.65Z"/><path class="cls-4" d="M410.74,332.11a7.3,7.3,0,1,0-7.3,7.3A7.31,7.31,0,0,0,410.74,332.11Z"/><path class="cls-5" d="M207,432.26a34.42,34.42,0,0,0,34.38-34.39,4.27,4.27,0,0,1,4.28-4.27H293.6V362.09H243.1a27.34,27.34,0,0,1-27.31-27.31,4.28,4.28,0,0,1,8.55,0,18.78,18.78,0,0,0,18.76,18.76h50.5V282H266a4.28,4.28,0,0,1,0-8.55H293.6V241.92h-30a35.2,35.2,0,0,0-34.83,35.48,4.23,4.23,0,0,1,0,.5,42.73,42.73,0,0,1,10.68,13.57,4.28,4.28,0,0,1-1.91,5.74,4.27,4.27,0,0,1-5.73-1.91A34.39,34.39,0,0,0,185.58,280a4.27,4.27,0,0,1-3.83-7.64A42.66,42.66,0,0,1,214.52,270a44,44,0,0,1,5.91,2.46,43.69,43.69,0,0,1,43.05-39.06H293.6V197.14a47.93,47.93,0,0,0-95.79-2.7,38.64,38.64,0,0,0-29.56,51A34.59,34.59,0,0,0,149.38,276c0,.13,0,.25,0,.38a34.53,34.53,0,0,0,1,8.06c.05.2.09.41.15.61l0,.13a35.11,35.11,0,0,0,1.7,4.84h0a34.44,34.44,0,0,0,31.56,20.75,4.28,4.28,0,1,1,0,8.55,43,43,0,0,1-37.6-22.22A59.47,59.47,0,0,0,173.85,388a34.59,34.59,0,0,0,32,44.48A4.23,4.23,0,0,1,207,432.26Z"/><path class="cls-5" d="M249.73,402.15a43,43,0,0,1-32.83,37.5,41.17,41.17,0,0,0,76.7-15.12V402.15Z"/><path class="cls-6" d="M462.91,332.11a59.25,59.25,0,0,0-17.42-42.05,34.59,34.59,0,0,0-16-44.66,38.62,38.62,0,0,0-6.89-37.86L366.28,313.48h11.8L392,321.17a15.76,15.76,0,1,1-4,7.54L375.88,322H361.73L345,353.54h10.31a4.28,4.28,0,1,1,0,8.55H340.43L323.68,393.6H335a15.85,15.85,0,1,1,0,8.55H319.14l-14.21,26.71a41.16,41.16,0,0,0,79.29,3,34.18,34.18,0,0,0,6.53.63A34.61,34.61,0,0,0,423.9,388,59.48,59.48,0,0,0,462.91,332.11Zm-84.57,26.54a4.35,4.35,0,0,1-.24.8,4.06,4.06,0,0,1-.4.74,3.67,3.67,0,0,1-.53.65,4.28,4.28,0,0,1-3,1.25,4,4,0,0,1-.84-.09,4.55,4.55,0,0,1-.8-.23,5.91,5.91,0,0,1-.74-.4,4.57,4.57,0,0,1-.65-.53,4.18,4.18,0,0,1-.53-.65,4.73,4.73,0,0,1-.39-.74,3.69,3.69,0,0,1-.24-.8,3.86,3.86,0,0,1-.09-.84A3.81,3.81,0,0,1,370,357a3.78,3.78,0,0,1,.24-.81,4.63,4.63,0,0,1,.39-.73,3.76,3.76,0,0,1,.53-.65,5.47,5.47,0,0,1,.65-.54,5.91,5.91,0,0,1,.74-.4,5.65,5.65,0,0,1,.8-.24,4.31,4.31,0,0,1,3.86,1.18,3.35,3.35,0,0,1,.53.65,4,4,0,0,1,.4.73,4.45,4.45,0,0,1,.24.81,3.8,3.8,0,0,1,.08.82A3.86,3.86,0,0,1,378.34,358.65Z"/><circle class="cls-7" cx="350.26" cy="397.87" r="7.3"/><path class="cls-8" d="M410.74,332.11a7.3,7.3,0,1,0-7.3,7.3A7.31,7.31,0,0,0,410.74,332.11Z"/><path class="cls-9" d="M254.73,243.13l-21.11,39.69a42.91,42.91,0,0,1,5.74,8.65,4.28,4.28,0,0,1-1.91,5.74,4.27,4.27,0,0,1-5.73-1.91,35.23,35.23,0,0,0-2.5-4.2L172.41,398a34.58,34.58,0,0,0,33.41,34.48,4.23,4.23,0,0,1,1.19-.18,34.42,34.42,0,0,0,34.38-34.39,4.27,4.27,0,0,1,4.28-4.27H293.6V362.09H243.1a27.34,27.34,0,0,1-27.31-27.31,4.28,4.28,0,0,1,8.55,0,18.78,18.78,0,0,0,18.76,18.76h50.5V282H266a4.28,4.28,0,0,1,0-8.55H293.6V241.92h-30A35.17,35.17,0,0,0,254.73,243.13Z"/><path class="cls-10" d="M289.49,177.75l-29.68,55.82c1.21-.11,2.44-.19,3.67-.2H293.6V197.14A47.72,47.72,0,0,0,289.49,177.75Z"/><path class="cls-11" d="M216.9,439.65a41.17,41.17,0,0,0,76.7-15.12V402.15H249.73A43,43,0,0,1,216.9,439.65Z"/></svg>