<svg id="Contenido" xmlns="http://www.w3.org/2000/svg" xmlns:xlink="http://www.w3.org/1999/xlink" viewBox="0 0 600 600"><defs><style>.cls-1{fill:url(#Degradado_sin_nombre_7);}.cls-2{fill:#1464a5;}.cls-3{fill:#2dcccd;}.cls-4{fill:url(#Degradado_sin_nombre_8);}</style><linearGradient id="Degradado_sin_nombre_7" x1="279.64" y1="184.51" x2="341.57" y2="503.14" gradientTransform="translate(-60.06 112.25) rotate(-17)" gradientUnits="userSpaceOnUse"><stop offset="0" stop-color="#192647"/><stop offset="0" stop-color="#192647" stop-opacity="0.5"/><stop offset="1" stop-color="#192647" stop-opacity="0"/></linearGradient><linearGradient id="Degradado_sin_nombre_8" x1="411.94" y1="347.34" x2="183.46" y2="347.34" gradientTransform="translate(33.65 34.13)" gradientUnits="userSpaceOnUse"><stop offset="0" stop-color="#043263" stop-opacity="0.6"/><stop offset="1" stop-color="#043263" stop-opacity="0.1"/></linearGradient></defs><title>_</title><path class="cls-1" d="M507,315.48l-62.65-33.3a2.53,2.53,0,0,0-3.42,1l-20.23,38h0L367.16,421.93h0c-.4.74-.81,1.47-1.24,2.19-.13.23-.27.45-.41.68-.3.49-.61,1-.92,1.45l-.51.75c-.31.45-.62.89-.94,1.33l-.52.71q-.54.72-1.11,1.41l-.41.52c-.52.61-1,1.22-1.58,1.81l-.45.48c-.4.43-.81.85-1.22,1.26l-.66.65-1.08,1-.73.65c-.37.32-.74.64-1.12.95l-.72.6c-.46.37-.93.73-1.4,1.08l-.82.6c-.5.36-1,.72-1.51,1.06l-.89.57c-.36.23-.72.46-1.09.68l-1,.59c-.34.19-.68.39-1,.57l-1.05.57-1,.5c-.37.18-.73.37-1.1.54l-.86.38c-.78.34-1.56.67-2.35,1l-.84.32-1.33.46-.83.28-1.37.42-.77.22c-.49.13-1,.27-1.48.39l-.43.1a55.15,55.15,0,0,1-5.43,1l-.54.07-1.65.17-.58,0c-.56,0-1.13.09-1.7.11h-.38a52.1,52.1,0,0,1-6-.1H316l-1.83-.18-.45-.05q-.88-.11-1.77-.24l-.43-.07c-.61-.1-1.23-.21-1.84-.33h0A53.18,53.18,0,0,1,273.2,372L326.73,271.3l20.22-38a2.52,2.52,0,0,0-1.05-3.42l-62.64-33.31a2.54,2.54,0,0,0-3.43,1l-20.22,38L206.08,336.29a129.25,129.25,0,0,0,89.13,187.46h0c.79.16,1.59.3,2.38.44l.31.06,2.37.39.13,0q5,.76,10,1.14l.24,0L313,526h.28c3.33.17,6.65.22,10,.13h.12l2.32-.08.4,0,2.28-.13.24,0q4.85-.32,9.64-1l.49-.07,2.11-.32.54-.09,2.15-.38.12,0q3.48-.65,6.92-1.49l.58-.14,1.92-.49.75-.2,1.89-.52.67-.2q3.14-.91,6.21-2l.66-.22,1.71-.63.92-.34,1.64-.63,1-.38,1.62-.66.87-.38c1.06-.45,2.12-.92,3.17-1.4.26-.12.53-.23.79-.36l1.47-.7,1.08-.53,1.41-.7,1.13-.58,1.36-.72c.4-.21.79-.43,1.18-.65l1.29-.71,1.84-1.06,1.55-.93,1.3-.79,1.18-.75L391,505l1.15-.76c.43-.28.86-.58,1.28-.87l1.08-.74c.52-.36,1-.73,1.54-1.1l1.09-.79,1.87-1.41.93-.73,1.35-1.07,1-.78,1.31-1.09.92-.78,1.43-1.25.74-.66c.7-.63,1.4-1.26,2.09-1.91l.6-.58,1.5-1.45.79-.78,1.3-1.32.79-.82,1.32-1.41.69-.75c.59-.65,1.18-1.3,1.76-2l.2-.22c.64-.74,1.27-1.48,1.89-2.23l.61-.75c.43-.52.85-1,1.27-1.57l.68-.87c.4-.51.8-1,1.19-1.55L424,474c.44-.59.88-1.2,1.31-1.8l.45-.62c.57-.82,1.14-1.64,1.7-2.47.13-.19.25-.39.38-.59.43-.64.85-1.29,1.27-1.94l.56-.89c.36-.57.71-1.15,1.06-1.73l.57-.94c.36-.6.71-1.21,1.06-1.82l.48-.84c.5-.88,1-1.77,1.46-2.68h0l53.53-100.68,20.22-38A2.54,2.54,0,0,0,507,315.48Z"/><path class="cls-2" d="M445.58,314.71,392.05,415.39C358.6,478.3,280.2,502.27,217.28,468.82S130.4,357,163.85,294.05l53.53-100.68,67.12,35.69L231,329.74a53.21,53.21,0,1,0,94,50L378.46,279Z"/><path class="cls-3" d="M238.84,153.07h43.08a2.53,2.53,0,0,1,2.53,2.53v70.95a2.53,2.53,0,0,1-2.53,2.53H238.84a0,0,0,0,1,0,0v-76a0,0,0,0,1,0,0Z" transform="translate(-29.9 332.39) rotate(-62)"/><path class="cls-3" d="M399.92,238.72H443a2.53,2.53,0,0,1,2.53,2.53V312.2a2.53,2.53,0,0,1-2.53,2.53H399.92a0,0,0,0,1,0,0v-76a0,0,0,0,1,0,0Z" transform="translate(-20.07 520.06) rotate(-62)"/><path class="cls-4" d="M378.46,279,324.93,379.7a53.26,53.26,0,0,1-72,22l-.17-.1-35.69,67.12.17.1c62.92,33.45,141.32,9.48,174.77-53.43l53.53-100.68Z"/><path class="cls-2" d="M463.68,240.44c-.35.66-.71,1.32-1.08,2a4.22,4.22,0,0,1-7.36-4.14,91.73,91.73,0,0,0,5.68-12.12,4.22,4.22,0,0,1,7.89,3A101.33,101.33,0,0,1,463.68,240.44Z"/><path class="cls-2" d="M474.91,184.1a4.22,4.22,0,0,1-7.93-1.59,110.87,110.87,0,0,0-19.18-51.89,4.22,4.22,0,0,1,6.94-4.81,119.29,119.29,0,0,1,20.65,55.91A4.18,4.18,0,0,1,474.91,184.1Z"/><path class="cls-2" d="M433.85,108.34a3.85,3.85,0,0,1-.39.6,4.21,4.21,0,0,1-5.92.76A103.49,103.49,0,0,0,391.91,92a102.09,102.09,0,0,0-117,50.58,4.23,4.23,0,0,1-7.46-4A110.55,110.55,0,0,1,394.14,83.8,112,112,0,0,1,432.7,103,4.22,4.22,0,0,1,433.85,108.34Z"/><path class="cls-2" d="M441.43,231a4.23,4.23,0,1,1-7.46-4A78,78,0,0,0,365.89,112.4,4.23,4.23,0,0,1,366,104,86.46,86.46,0,0,1,441.43,231Z"/><path class="cls-2" d="M337.82,116.23a4.16,4.16,0,0,1-1.92,1.83c-19.39,9.21-32.36,20.87-39.66,35.64a4.22,4.22,0,0,1-7.57-3.74c8.17-16.54,22.43-29.47,43.61-39.53a4.22,4.22,0,0,1,5.54,5.8Z"/></svg>