<svg xmlns="http://www.w3.org/2000/svg" xmlns:xlink="http://www.w3.org/1999/xlink" viewBox="0 0 600 600"><defs><style>.cls-1{fill:none;}.cls-2{fill:url(#Degradado_sin_nombre_481);}.cls-3{fill:#004481;}.cls-4{fill:#2dcccd;}.cls-5{fill:url(#Degradado_sin_nombre_114);}.cls-6{fill:#1464a5;}</style><linearGradient id="Degradado_sin_nombre_481" x1="263.27" y1="386.26" x2="325.22" y2="67.54" gradientTransform="matrix(0.96, -0.29, -0.29, -0.96, 110.47, 653.31)" gradientUnits="userSpaceOnUse"><stop offset="0" stop-color="#192647" stop-opacity="0.5"/><stop offset="1" stop-color="#192647" stop-opacity="0"/></linearGradient><linearGradient id="Degradado_sin_nombre_114" x1="399.89" y1="1482.67" x2="171.42" y2="1482.67" gradientTransform="matrix(1, 0, 0, -1, 33.65, 1864.13)" gradientUnits="userSpaceOnUse"><stop offset="0" stop-color="#072146" stop-opacity="0.8"/><stop offset="1" stop-color="#072146" stop-opacity="0"/></linearGradient></defs><title>11</title><g id="Cuadrados_Blancos" data-name="Cuadrados Blancos"><rect class="cls-1" width="600" height="600"/></g><g id="Capa_54" data-name="Capa 54"><path class="cls-2" d="M495,315.48l-62.65-33.3a2.53,2.53,0,0,0-3.42,1l-20.23,38h0L355.16,421.93h0c-.4.74-.81,1.47-1.24,2.19-.13.23-.27.45-.41.68-.3.49-.61,1-.92,1.45l-.51.75c-.31.45-.62.89-.94,1.33l-.52.71q-.54.72-1.11,1.41l-.41.52c-.52.61-1,1.22-1.58,1.81l-.45.48c-.4.43-.81.85-1.22,1.26l-.66.65-1.08,1-.73.65c-.37.32-.74.64-1.12.95l-.72.6c-.46.37-.93.73-1.4,1.08l-.82.6c-.5.36-1,.72-1.51,1.06l-.89.57c-.36.23-.72.46-1.09.68l-1,.59-1,.57-1.05.57-1,.5c-.37.18-.73.37-1.1.54l-.86.38-2.35,1-.84.32-1.33.46-.83.28-1.37.42-.77.22-1.48.39-.43.1a55.18,55.18,0,0,1-5.43,1l-.54.07-1.65.17h-.58c-.56,0-1.13.09-1.7.11h-.38a52.24,52.24,0,0,1-6-.1H304l-1.83-.18-.45,0-1.77-.24-.43-.07c-.61-.1-1.23-.21-1.84-.33h0A53.18,53.18,0,0,1,261.2,372l53.53-100.7,20.22-38a2.52,2.52,0,0,0-1-3.41h0l-62.64-33.31a2.54,2.54,0,0,0-3.43,1l-20.22,38L194.08,336.29a129.24,129.24,0,0,0,89.13,187.46h0c.79.16,1.59.3,2.38.44l.31.06,2.37.39h.13c3.33.51,6.67.89,10,1.14h.24L301,526h.28c3.33.17,6.65.22,10,.13h.12l2.32-.08h.4l2.28-.13h.24c3.23-.21,6.45-.55,9.64-1l.49-.07,2.11-.32.54-.09,2.15-.38h.12q3.48-.64,6.92-1.49l.58-.14,1.92-.49.75-.2,1.89-.52.67-.2c2.09-.61,4.16-1.27,6.21-2l.66-.22,1.71-.63.92-.34,1.64-.63,1-.38,1.62-.66.87-.38c1.06-.45,2.12-.92,3.17-1.4.26-.12.53-.23.79-.36l1.47-.7,1.08-.53,1.41-.7,1.13-.58,1.36-.72c.4-.21.79-.43,1.18-.65l1.29-.71,1.84-1.06,1.55-.93,1.3-.79,1.18-.75,1.2-.9,1.15-.76c.43-.28.86-.58,1.28-.87l1.08-.74c.52-.36,1-.73,1.54-1.1l1.09-.79,1.87-1.41.93-.73,1.35-1.07,1-.78,1.31-1.09.92-.78,1.43-1.25.74-.66c.7-.63,1.4-1.26,2.09-1.91l.6-.58,1.5-1.45.79-.78,1.3-1.32.79-.82,1.32-1.41.69-.75c.59-.65,1.18-1.3,1.76-2l.2-.22c.64-.74,1.27-1.48,1.89-2.23l.61-.75c.43-.52.85-1,1.27-1.57l.68-.87c.4-.51.8-1,1.19-1.55L412,474c.44-.59.88-1.2,1.31-1.8l.45-.62c.57-.82,1.14-1.64,1.7-2.47.13-.19.25-.39.38-.59.43-.64.85-1.29,1.27-1.94l.56-.89c.36-.57.71-1.15,1.06-1.73l.57-.94c.36-.6.71-1.21,1.06-1.82l.48-.84c.5-.88,1-1.77,1.46-2.68h0L475.83,357l20.22-38a2.53,2.53,0,0,0-.95-3.46Z"/><path class="cls-3" d="M433.58,314.71,380.05,415.39C346.6,478.3,268.2,502.27,205.28,468.82S118.4,357,151.85,294.05l53.53-100.68,67.12,35.69L219,329.74a53.24,53.24,0,1,0,94,50L366.46,279Z"/><path class="cls-4" d="M205.38,193.37l20.23-38a2.52,2.52,0,0,1,3.42-1l62.64,33.3a2.53,2.53,0,0,1,1.05,3.43l-20.23,38h0l-67.1-35.68h0Z"/><path class="cls-4" d="M366.46,279l20.22-38a2.52,2.52,0,0,1,3.42-1.05l62.65,33.31a2.54,2.54,0,0,1,1.05,3.42l-20.23,38h0L366.47,279h0Z"/><path class="cls-5" d="M366.46,279,312.93,379.7a53.26,53.26,0,0,1-72,22l-.17-.1-35.69,67.12.17.1c62.92,33.45,141.32,9.48,174.77-53.43l53.53-100.68Z"/><path class="cls-6" d="M451.68,240.44c-.35.66-.71,1.32-1.08,2a4.22,4.22,0,0,1-7.36-4.14,92.16,92.16,0,0,0,5.68-12.12,4.22,4.22,0,0,1,7.89,3A101.85,101.85,0,0,1,451.68,240.44Z"/><path class="cls-6" d="M462.91,184.1a4.22,4.22,0,0,1-7.93-1.59,110.87,110.87,0,0,0-19.18-51.89,4.22,4.22,0,0,1,6.94-4.81,119.32,119.32,0,0,1,20.65,55.91A4.2,4.2,0,0,1,462.91,184.1Z"/><path class="cls-6" d="M421.85,108.34a3.85,3.85,0,0,1-.39.6,4.21,4.21,0,0,1-5.9.77h0A103.46,103.46,0,0,0,379.91,92a102.08,102.08,0,0,0-117,50.58,4.23,4.23,0,0,1-7.46-4h0A110.55,110.55,0,0,1,382.14,83.8,112,112,0,0,1,420.7,103,4.21,4.21,0,0,1,421.85,108.34Z"/><path class="cls-6" d="M429.43,231a4.23,4.23,0,1,1-7.46-4h0a78,78,0,0,0-68.08-114.6A4.23,4.23,0,0,1,354,104a86.46,86.46,0,0,1,75.43,127Z"/><path class="cls-6" d="M325.82,116.23a4.15,4.15,0,0,1-1.92,1.83c-19.39,9.21-32.36,20.87-39.66,35.64a4.22,4.22,0,1,1-7.57-3.74c8.17-16.54,22.43-29.47,43.61-39.53a4.22,4.22,0,0,1,5.54,5.8Z"/></g></svg>