<svg id="Capa_1" data-name="Capa 1" xmlns="http://www.w3.org/2000/svg" xmlns:xlink="http://www.w3.org/1999/xlink" viewBox="0 0 600 600"><defs><style>.cls-1{fill:none;}.cls-2{fill:url(#Degradado_sin_nombre);}.cls-3{fill:#e6cfc1;}.cls-4{fill:#d8bfb2;}.cls-5,.cls-7{fill:#004481;}.cls-6,.cls-7{isolation:isolate;}.cls-7{font-size:34.67px;font-family:BentonSansBBVA-Book, Benton Sans BBVA;letter-spacing:-0.01em;}.cls-8{fill:#1464a5;}.cls-9{fill:url(#Degradado_sin_nombre_2);}.cls-10{fill:#002e65;}.cls-11{fill:url(#Degradado_sin_nombre_15);}</style><linearGradient id="Degradado_sin_nombre" x1="255.77" y1="396.9" x2="459.11" y2="14.49" gradientTransform="matrix(1, 0, 0, -1, 0, 604)" gradientUnits="userSpaceOnUse"><stop offset="0" stop-color="#072146" stop-opacity="0.5"/><stop offset="1" stop-color="#072146" stop-opacity="0"/></linearGradient><linearGradient id="Degradado_sin_nombre_2" x1="414.9" y1="99.66" x2="180.22" y2="296.58" gradientTransform="matrix(1, 0, 0, -1, 0, 604)" gradientUnits="userSpaceOnUse"><stop offset="0" stop-color="#004481"/><stop offset="1" stop-color="#004481" stop-opacity="0"/></linearGradient><linearGradient id="Degradado_sin_nombre_15" x1="310.55" y1="168.14" x2="230.43" y2="128.86" gradientTransform="matrix(1, 0, 0, -1, 0, 604)" gradientUnits="userSpaceOnUse"><stop offset="0" stop-color="#d8bfb2"/><stop offset="0.7" stop-color="#e1c9bc"/><stop offset="0.99" stop-color="#e6cfc1"/></linearGradient></defs><g id="Cuadrados_Blancos" data-name="Cuadrados Blancos"><rect class="cls-1" width="600" height="600"/></g><g id="Capa_13" data-name="Capa 13"><path class="cls-2" d="M530.46,389.25c-13-17.63-41-43-85.31-43.19-.2,0-14.44.92-14.44,1.12s-.07.65-.1,1L425.68,318l-.24-1.47c.33-.48.68-1,1-1.42A77.24,77.24,0,0,0,437.57,290c.36-1.75.81-3.51,1.29-5.27a12.16,12.16,0,0,0,2.37-1.72,39.53,39.53,0,0,0,10.91-16.75c2-7.26,3-20.25-2.18-22.6a4.93,4.93,0,0,0-2.94-.24c.3-2.28.58-4.54.79-6.71a28.47,28.47,0,0,0,6.36-11.94c1.53-6.25.55-12.16-3.29-22.74-5.81-16-8.71-24-14.33-30.08-9.07-9.83-20.62-11.85-43.66-16.14-21.59-4-32.39-6-40.78.34-9.22,7-11.5,19.67-12,27.59a1.26,1.26,0,0,0-.48.23,5.75,5.75,0,0,0-2.46-.92c-7.26-.8-15,14.71-18.1,25.55-2.08,7.25-4.61,16-1.29,25.22a47.28,47.28,0,0,0,4.44,8.11,5.05,5.05,0,0,0-.68.07,6,6,0,0,0-3.4,3c-5.36,8.83,3.27,27.2,4.71,30.2.74,1.42,4,7.34,9.79,9.5a17.55,17.55,0,0,0,2.66.76c1,3.31,2.2,6.87,3.63,10.63.44,1,1,2.15,1.52,3.34a92,92,0,0,0,6.95,11.86c1.19,1.72,2.65,3.79,4.4,6q-1.4,15.7-2.8,31.46c-.1-.79-.19-1.58-.21-2.36,0-.2-15.59-.36-15.79-.35-44.34.23-72.31,25.56-85.31,43.18-13.78,18.67-33.52,50.29-34.09,92.87a15.34,15.34,0,0,0,.31,3.24,5.5,5.5,0,0,0-.11.69c0,4.81,7.42,9.07,18.85,11.76V536c0,11.92,9.66,20.31,21.59,18.74l67.3-8.87H450.61v-7.51l66.28,14.15a23.59,23.59,0,0,0,28-18.14h0l9.92-46.4c3.67-1.66,6.36-3.54,7.77-5.58,1.26-.07,2-.18,2-.36C566.05,439.55,544.24,407.92,530.46,389.25Z"/><path class="cls-3" d="M347.17,316.89C345.93,319,330.7,336.76,303.08,338c-26.42,1.19-42.4-18.68-44.09-20.85l7.4-83.75,67.49,2.65L338,260.64Z"/><path class="cls-4" d="M331,261.72c-4.4,12-10.26,19.22-14.65,23.52-11.55,11.33-22.07,11.46-37.62,24.51a90.37,90.37,0,0,0-13.58,14c-1-.95-2.18-2.09-3.29-3.3-.88-1-2.11-2.32-2.83-3.22,2.47-27.92,4.91-54.62,7.38-82.54l67.49,2.65Q332.43,249.51,331,261.72Z"/><path class="cls-4" d="M245.07,194.15s-6-10.73-11.28-9.48c-1.88.44-2.95,2.24-3.41,3-5.36,8.83,3.27,27.19,4.72,30.2.74,1.42,4,7.34,9.79,9.49a10.69,10.69,0,0,0,7.07.57,7.71,7.71,0,0,0,2.4-1.15C260.68,220.63,245.07,194.15,245.07,194.15Z"/><path class="cls-4" d="M351.34,190.89c1.59-1.44,7.06-6.3,10.89-4.56,5.17,2.35,4.14,15.33,2.17,22.6a39.37,39.37,0,0,1-10.91,16.75,9.17,9.17,0,0,1-5.05,2.63,4,4,0,0,1-1.2,0C345.68,227.84,345.81,219.66,351.34,190.89Z"/><path class="cls-3" d="M301.23,107.06a58.64,58.64,0,0,0-29.74,6.59,61.14,61.14,0,0,0-19.1,15.7c-9.9,15.52-12.11,28.56-12.58,36.47-.3,5.18.12,10.71,1,21.77.73,9.45,1.29,16.79,3.14,26.09a154.91,154.91,0,0,0,7.26,25.07c.44,1,.94,2.15,1.51,3.34a91,91,0,0,0,7,11.85,73.1,73.1,0,0,0,13.61,15.54c5.19,4.29,12.51,10.36,23.63,11.56a39.32,39.32,0,0,0,24.18-5.57c8.82-5.59,13.85-12.16,17.65-17.73a76.71,76.71,0,0,0,11.12-25.07c1.82-8.67,5.36-17.21,6.53-27.59,1.43-12.7,0-25.46,0-36A102,102,0,0,0,350.1,146a99,99,0,0,0-7.73-15.19,54.94,54.94,0,0,0-18.14-17A52,52,0,0,0,301.23,107.06Z"/><path class="cls-5" d="M241.3,194.11s20.47-47.83,17-59-6.47-8.47-6.47-8.47a5.67,5.67,0,0,0-2.45-.92c-7.27-.8-15,14.71-18.11,25.55-2.08,7.24-4.6,16-1.28,25.22,2.39,6.61,15.23,23.35,11.27,17.62Z"/><path class="cls-5" d="M252.24,132.32s13.33,31.76,92.21,25.37c0,0,10.43,13.08,11.74,45.49,1.14-4.9,2.16-10.19,2.95-15.86q.57-4.08.94-7.94a28.47,28.47,0,0,0,6.36-11.94c1.53-6.25.55-12.17-3.29-22.74-5.81-16-8.72-24-14.33-30.08-9.08-9.83-20.62-11.85-43.66-16.14-21.6-4-32.39-6-40.78.34C252.11,108.12,252.12,127.44,252.24,132.32Z"/><g class="cls-6"><text class="cls-7" transform="translate(253.73 183.95) scale(0.95 1)"><tspan xml:space="preserve">  </tspan></text></g><path class="cls-8" d="M442.74,331.86c-13-17.62-41-42.95-85.31-43.18-.21,0-14.44.92-14.45,1.12-.32,15.15-18.5,32.27-41.7,32.51h0c-23.16-.3-39.9-18.15-40.22-33.27,0-.2-15.59-.36-15.8-.36-44.34.24-72.3,25.56-85.3,43.19-13.78,18.67-33.53,50.29-34.1,92.86-.42,31.64,79.89-2.82,79.89-2.82,0,11.77-53.38,72.38-41.61,70.83L303.9,469.43l127,14.28c11.77,1.55-34-50-34-61.8,0,0,79.82,4.68,79.89,2.82C478.32,382.17,456.51,350.53,442.74,331.86Z"/><path class="cls-9" d="M442.74,331.86c-13-17.62-41-42.95-85.31-43.18-.21,0-14.44.92-14.45,1.12-.32,15.15-18.5,32.27-41.7,32.51h0c-23.16-.3-39.9-18.15-40.22-33.27,0-.2-15.59-.36-15.8-.36-44.34.24-72.3,25.56-85.3,43.19-13.78,18.67-33.53,50.29-34.1,92.86-.42,31.64,79.89-2.82,79.89-2.82,0,11.77-53.38,72.38-41.61,70.83L303.9,469.43l127,14.28c11.77,1.55-34-50-34-61.8,0,0,79.82,4.68,79.89,2.82C478.32,382.17,456.51,350.53,442.74,331.86Z"/><path class="cls-10" d="M220.14,428.68c0,8.12-21.06,14.71-47,14.71s-47-6.59-47-14.71S147.2,414,173.14,414,220.14,420.55,220.14,428.68Z"/><polygon class="cls-10" points="227.49 389.11 226.46 436.94 217.89 434.46 227.49 389.11"/><polyline class="cls-10" points="398.48 399.03 392.67 379.9 394.71 438.55 401.31 441.05 398.48 420.33"/><path class="cls-10" d="M476,421.77c0,8.62-22.34,15.6-49.9,15.6s-49.91-7-49.91-15.6,22.35-15.61,49.91-15.61S476,413.15,476,421.77Z"/><path class="cls-4" d="M330.67,448.55l9.57-32.43.27-.9.28-.41,16-22.94a3.25,3.25,0,0,1,5.66,3.14l-.12.28-11.11,25.95.92-2.19-4,33.79a9,9,0,1,1-17.9-2.13,9.92,9.92,0,0,1,.29-1.44Z"/><path class="cls-4" d="M343.43,464.84c1.75,2.28,10,10.1,12.15,8.48,12-9.27,36.63-41.81,39.16-52.11,3.45-8.34-16.71-35.38-19.53-35.54-6.52-.38-32.87,56.6-32.87,56.6C321.85,462.21,338.69,458.68,343.43,464.84Z"/><path class="cls-3" d="M220.72,442.88V426.73c-2.84-7.46-23.11-13.25-47.74-13.25a130.46,130.46,0,0,0-28.07,2.84v62.36c0,11.93,9.67,20.32,21.6,18.75l260-34.26c10.52-1.38,19.26-10.07,21.18-20.29Z"/><path class="cls-11" d="M335.67,475.23c-13.47-3.11-49.28-9.18-64.24-13.47l-112.35,1s-13.79.58-14,3.11c-1,10.36-1,29,16.58,32.12L319.09,477.3C321.55,477,332.56,476.26,335.67,475.23Z"/><path class="cls-3" d="M430.82,407.11a106.06,106.06,0,0,0-29.28,3.82l-2.44,11.4L210.68,445.82a23.41,23.41,0,0,0,10,4.85L429.17,495.2a23.59,23.59,0,0,0,28-18.14h0l13.25-62C461.73,410.26,447.25,407.11,430.82,407.11Z"/></g></svg>