<svg id="Contenido" xmlns="http://www.w3.org/2000/svg" xmlns:xlink="http://www.w3.org/1999/xlink" viewBox="0 0 600 600"><defs><style>.cls-1{fill:url(#Degradado_sin_nombre_2);}.cls-2{fill:url(#Degradado_sin_nombre_2-2);}.cls-3{fill:#2dcccd;}.cls-4{fill:#1464a5;}.cls-5{fill:#f8cd50;}.cls-6{fill:url(#Degradado_sin_nombre_4);}.cls-7{fill:url(#Degradado_sin_nombre_6);}.cls-8{fill:url(#Degradado_sin_nombre_5);}.cls-9{fill:url(#Degradado_sin_nombre_27);}.cls-10{fill:url(#Degradado_sin_nombre_10);}.cls-11{fill:none;}</style><linearGradient id="Degradado_sin_nombre_2" x1="260.87" y1="190.49" x2="448.56" y2="543.49" gradientUnits="userSpaceOnUse"><stop offset="0" stop-color="#1a2746" stop-opacity="0.5"/><stop offset="1" stop-color="#1a2746" stop-opacity="0"/></linearGradient><linearGradient id="Degradado_sin_nombre_2-2" x1="212.24" y1="273.72" x2="366.41" y2="563.68" xlink:href="#Degradado_sin_nombre_2"/><linearGradient id="Degradado_sin_nombre_4" x1="299.58" y1="408.78" x2="191.16" y2="408.78" gradientUnits="userSpaceOnUse"><stop offset="0.03" stop-color="#028484" stop-opacity="0.4"/><stop offset="1" stop-color="#028484" stop-opacity="0.1"/></linearGradient><linearGradient id="Degradado_sin_nombre_6" x1="424.56" y1="101.64" x2="376.71" y2="101.64" gradientUnits="userSpaceOnUse"><stop offset="0.03" stop-color="#028484" stop-opacity="0.6"/><stop offset="1" stop-color="#028484" stop-opacity="0.1"/></linearGradient><linearGradient id="Degradado_sin_nombre_5" x1="428.28" y1="253.58" x2="255.62" y2="253.58" gradientUnits="userSpaceOnUse"><stop offset="0" stop-color="#043263" stop-opacity="0.3"/><stop offset="1" stop-color="#043263" stop-opacity="0"/></linearGradient><linearGradient id="Degradado_sin_nombre_27" x1="167.7" y1="451.75" x2="183.78" y2="467.82" gradientUnits="userSpaceOnUse"><stop offset="0" stop-color="#fff" stop-opacity="0.6"/><stop offset="1" stop-color="#fff" stop-opacity="0.1"/></linearGradient><linearGradient id="Degradado_sin_nombre_10" x1="230.5" y1="441.68" x2="286.79" y2="497.97" gradientUnits="userSpaceOnUse"><stop offset="0.01" stop-color="#fff" stop-opacity="0.3"/><stop offset="1" stop-color="#fff" stop-opacity="0.1"/></linearGradient></defs><title> </title><path class="cls-1" d="M253.31,503.26a6,6,0,0,0,6.93-.94C288,476.14,320.75,468,333.68,465.64a12.07,12.07,0,0,0,8.51-6.19l5.67-10.66.35.18a6,6,0,0,0,8.29-2.83L476,180.41a6,6,0,0,0-2.65-7.76l-3.44-1.83,1.83-4a12,12,0,0,0-5.3-15.55l-66.6-35.41a12,12,0,0,0-15.85,4.3l-2.33,3.78-3.43-1.83a6,6,0,0,0-7.92,2.14L216.88,371.91a6,6,0,0,0,2.29,8.45l.35.19-5.67,10.67a12,12,0,0,0-.37,10.5c5.3,12,16.82,43.72,10.65,81.39a6,6,0,0,0,3.1,6.28l.93.5-17.7,33.29a3,3,0,0,0,2.65,4.4h24.27A3,3,0,0,0,240,526l12.35-23.22Z"/><path class="cls-2" d="M433.53,514.29H257.72a3,3,0,0,0-2.65,1.59l-3.87,7.3a3,3,0,0,0,2.65,4.4h175.8A3,3,0,0,0,432.3,526l3.88-7.29A3,3,0,0,0,433.53,514.29Z"/><path class="cls-3" d="M235.41,364.36l-64.17-34.12-5.67,10.66a12,12,0,0,0-.37,10.51c5.3,12,16.82,43.72,10.65,81.39a6,6,0,0,0,3.1,6.28L192,446,205,453A6,6,0,0,0,212,452c27.78-26.17,60.5-34.35,73.43-36.68a12,12,0,0,0,8.51-6.18l5.67-10.66Z"/><path class="cls-4" d="M425.1,122.34,330,71.76a6,6,0,0,0-7.92,2.14L168.61,321.59a6,6,0,0,0,2.28,8.46l129,68.61a6,6,0,0,0,8.29-2.83L427.75,130.09A6,6,0,0,0,425.1,122.34Z"/><path class="cls-3" d="M421.66,120.51,333.41,73.59l2.33-3.78a12,12,0,0,1,15.85-4.3l66.6,35.41a12,12,0,0,1,5.3,15.54Z"/><path class="cls-5" d="M204.1,452.45l-24.22-12.87-17.7,33.28a3,3,0,0,0,2.65,4.41H189.1a3,3,0,0,0,2.65-1.59Z"/><path class="cls-6" d="M234.58,363.91l-43.42,81.66.83.45L205,453A6,6,0,0,0,212,452c27.78-26.17,60.5-34.35,73.43-36.68a12,12,0,0,0,8.51-6.18l5.67-10.66-64.17-34.12Z"/><path class="cls-7" d="M418.19,100.92,384.06,82.77,376.71,96.6l45,23.91,1.83-4.05A12,12,0,0,0,418.19,100.92Z"/><path class="cls-8" d="M425.1,122.34,397.76,107.8,255.62,375.11l44.31,23.55a6,6,0,0,0,8.29-2.83L427.75,130.09A6,6,0,0,0,425.1,122.34Z"/><path class="cls-9" d="M179.88,439.58l-17.7,33.28a3,3,0,0,0,2.65,4.41h9.5l16.85-31.69Z"/><path class="cls-5" d="M395.25,464H209.44a3,3,0,0,0-2.65,1.59l-3.87,7.29a3,3,0,0,0,2.65,4.41h185.8a3,3,0,0,0,2.65-1.59l3.88-7.29A3,3,0,0,0,395.25,464Z"/><path class="cls-10" d="M206.79,465.57l-3.87,7.29a3,3,0,0,0,2.65,4.41H307.49L314.56,464H209.44A3,3,0,0,0,206.79,465.57Z"/><rect class="cls-11" width="600" height="600"/></svg>