<svg id="Contenido" xmlns="http://www.w3.org/2000/svg" xmlns:xlink="http://www.w3.org/1999/xlink" viewBox="0 0 600 600"><defs><style>.cls-1{fill:url(#Degradado_sin_nombre_39);}.cls-2{fill:#f8cd50;}.cls-3{fill:url(#Degradado_sin_nombre_5);}.cls-4{fill:#043263;}.cls-5{fill:#eaf9fa;}.cls-6{fill:#d4edfc;}.cls-7{fill:none;}</style><linearGradient id="Degradado_sin_nombre_39" x1="269.29" y1="199.9" x2="430.82" y2="503.69" gradientUnits="userSpaceOnUse"><stop offset="0" stop-color="#192647" stop-opacity="0.5"/><stop offset="1" stop-color="#192647" stop-opacity="0"/></linearGradient><linearGradient id="Degradado_sin_nombre_5" x1="148.23" y1="219.21" x2="301.25" y2="300.58" gradientUnits="userSpaceOnUse"><stop offset="0" stop-color="#fff" stop-opacity="0.6"/><stop offset="1" stop-color="#fff" stop-opacity="0.2"/></linearGradient></defs><path class="cls-1" d="M522.05,351.69A172,172,0,1,1,350,179.8a172,172,0,0,1,172.1,171.89"/><path class="cls-2" d="M472.05,300c0,95.09-77.11,172-171.86,172S128.05,394.82,128.05,300s77.12-172,171.87-172h0c95,0,172.13,76.91,172.13,172"/><path class="cls-3" d="M299.92,128c-94.75,0-171.87,77.18-171.87,172,0,66.1,37.6,123.62,92.47,152.41L381.07,148.27A171.47,171.47,0,0,0,299.92,128Z"/><path class="cls-4" d="M242.89,248.69a43.31,43.31,0,0,1,22.48,6,3,3,0,0,0,4.51-3.25,27.94,27.94,0,0,0-54,0,3,3,0,0,0,4.51,3.25A43.31,43.31,0,0,1,242.89,248.69Z"/><path class="cls-4" d="M354,248.69a43.31,43.31,0,0,1,22.48,6,3,3,0,0,0,4.52-3.25,27.95,27.95,0,0,0-54,0,3,3,0,0,0,4.51,3.25A43.31,43.31,0,0,1,354,248.69Z"/><path class="cls-5" d="M391.59,412.37l-3.69.44a739.65,739.65,0,0,1-175.69,0l-3.69-.44a13.06,13.06,0,0,1-11.5-13V304.2a13,13,0,0,1,14.6-12.95l.59.07a739.65,739.65,0,0,0,175.69,0l.59-.07a13,13,0,0,1,14.6,12.95v95.21A13.06,13.06,0,0,1,391.59,412.37Z"/><path class="cls-6" d="M300.05,373.31a478.77,478.77,0,0,1-55.53-3C257.1,375,277.29,378,300.05,378s43-3,55.54-7.74A478.82,478.82,0,0,1,300.05,373.31Z"/><path class="cls-6" d="M300.05,354.81c-24.66,0-47.64-1.1-67-3,15.17,4.69,39.51,7.73,67,7.73s51.8-3,67-7.73C347.7,353.71,324.72,354.81,300.05,354.81Z"/><path class="cls-6" d="M300.05,336.32a478.77,478.77,0,0,1-55.53-3C257.1,338,277.29,341,300.05,341s43-3,55.54-7.74A478.82,478.82,0,0,1,300.05,336.32Z"/><path class="cls-6" d="M464.19,350.09a345.71,345.71,0,0,1-61.1,14V380.8c20.57-3.42,39.76-7.63,56.79-13.08a4.08,4.08,0,0,0,2.62-2.55q2.24-6.42,3.95-12.94A1.77,1.77,0,0,0,464.19,350.09Z"/><path class="cls-6" d="M471.76,284.47c-18.73,12-48.38,22.08-68.67,24.7V325.9c21.53-2.76,54.27-13.9,69.68-24.35a4.17,4.17,0,0,0,1.82-3.53c-.07-4.12-.32-8.49-.61-12.43A1.45,1.45,0,0,0,471.76,284.47Z"/><path class="cls-6" d="M135.92,350.09a345.51,345.51,0,0,0,61.1,14V380.8c-20.57-3.42-39.76-7.63-56.8-13.08a4.13,4.13,0,0,1-2.62-2.55q-2.22-6.42-3.94-12.94A1.77,1.77,0,0,1,135.92,350.09Z"/><path class="cls-6" d="M128.34,284.47c18.74,12,48.39,22.08,68.68,24.7V325.9c-21.53-2.76-54.27-13.9-69.68-24.35a4.17,4.17,0,0,1-1.82-3.53c.07-4.12.32-8.49.61-12.43A1.44,1.44,0,0,1,128.34,284.47Z"/><rect class="cls-7" width="600" height="600"/></svg>