<svg xmlns="http://www.w3.org/2000/svg" xmlns:xlink="http://www.w3.org/1999/xlink" viewBox="0 0 600 600"><defs><style>.cls-1{fill:none;}.cls-2{fill:url(#Degradado_sin_nombre_91);}.cls-3{fill:#043263;}.cls-4{fill:#f8cd50;}.cls-5{fill:url(#Degradado_sin_nombre_93);}.cls-6{fill:#c49735;}</style><linearGradient id="Degradado_sin_nombre_91" x1="272.93" y1="-3376.65" x2="410.15" y2="-3634.73" gradientTransform="matrix(1, 0, 0, -1, 0, -3164)" gradientUnits="userSpaceOnUse"><stop offset="0" stop-color="#192647" stop-opacity="0.5"/><stop offset="1" stop-color="#192647" stop-opacity="0"/></linearGradient><linearGradient id="Degradado_sin_nombre_93" x1="454.2" y1="-3500.27" x2="242.53" y2="-3500.27" gradientTransform="matrix(1, 0, 0, -1, 0, -3164)" gradientUnits="userSpaceOnUse"><stop offset="0" stop-color="#c49735"/><stop offset="1" stop-color="#c49735" stop-opacity="0"/></linearGradient></defs><title>16</title><g id="Cuadrados_Blancos" data-name="Cuadrados Blancos"><rect class="cls-1" width="600" height="600"/></g><g id="Capa_2" data-name="Capa 2"><path class="cls-2" d="M456.32,312.84a117.43,117.43,0,0,0-13.21-31.9L461,255c-5.3-8.4-6.49-11.27-13.79-18.6l-.34-.34c-7.33-7.31-10.2-8.49-18.6-13.8l-25.94,17.86a118,118,0,0,0-31.9-13.22l-5.72-31c-9.69-2.19-12.56-3.39-22.9-3.4h-.49c-10.34,0-13.21,1.21-22.9,3.4l-5.72,31a118,118,0,0,0-31.9,13.22l-25.94-17.86c-8.4,5.31-11.27,6.49-18.6,13.8l-.34.34c-7.31,7.33-8.49,10.2-13.79,18.6L240,280.94a117.59,117.59,0,0,0-13.22,31.9l-31,5.71c-2.19,9.69-3.38,12.56-3.4,22.91v.48c0,10.35,1.21,13.22,3.4,22.91l31,5.72A118,118,0,0,0,240,402.47L222.09,428.4c5.3,8.4,6.48,11.28,13.79,18.6l.34.35c7.33,7.3,10.2,8.48,18.6,13.79l25.94-17.85c1.7,1,3.46,1.93,5.21,2.87h0q2.8,1.48,5.7,2.83l1.41.64c1.66.75,3.33,1.47,5,2.14,1,.41,2.07.78,3.12,1.17,1.28.46,2.56.94,3.86,1.37,2.49.81,5,1.55,7.56,2.19l5.72,31c9.69,2.18,12.56,3.38,22.9,3.4h.49c10.34,0,13.21-1.22,22.9-3.4l5.72-31a117.43,117.43,0,0,0,31.9-13.21l25.94,17.85c8.4-5.31,11.27-6.49,18.6-13.79l.34-.35c7.3-7.32,8.49-10.2,13.79-18.6l-17.85-25.93a117.43,117.43,0,0,0,13.21-31.9l31-5.72c2.18-9.69,3.38-12.56,3.4-22.91v-.48c0-10.35-1.22-13.22-3.4-22.91Z"/><path class="cls-3" d="M423.44,210.39c-5.48-8.68-6.7-11.65-14.26-19.23l-.35-.35c-7.58-7.55-10.55-8.78-19.23-14.26L362.78,195a121.69,121.69,0,0,0-33-13.67l-5.91-32c-10-2.26-13-3.49-23.68-3.51h-.5C289,145.79,286,147,276,149.3l-5.91,32A121.9,121.9,0,0,0,237.16,195l-26.81-18.46c-8.69,5.48-11.66,6.71-19.23,14.26l-.36.35c-7.55,7.58-8.77,10.55-14.25,19.23l5.5,8H417.94Z"/><path class="cls-4" d="M418.65,270.18a121.93,121.93,0,0,0-13.66-33l13-18.82H182L195,237.18a121.93,121.93,0,0,0-13.66,33l-32,5.91c-2.26,10-3.5,13-3.52,23.68v.5c0,10.7,1.26,13.66,3.52,23.68l32,5.91a121.93,121.93,0,0,0,13.66,33l-18.46,26.81c5.49,8.69,6.71,11.66,14.26,19.23l.36.36c7.57,7.55,10.54,8.77,19.23,14.25L237.16,405a121.61,121.61,0,0,0,33,13.66l5.91,32c10,2.26,13,3.5,23.68,3.51h.5c10.69,0,13.66-1.25,23.68-3.51l5.91-32a121.35,121.35,0,0,0,33-13.66l26.82,18.45c8.68-5.48,11.65-6.7,19.24-14.25l.35-.36c7.54-7.57,8.76-10.54,14.26-19.23l-18.46-26.81a121.93,121.93,0,0,0,13.66-33l32-5.91c2.27-10,3.5-13,3.52-23.68v-.5c0-10.69-1.25-13.66-3.52-23.68Z"/><path class="cls-5" d="M418.65,270.18a121.93,121.93,0,0,0-13.66-33l13-18.82H343.4L242.53,408a121.53,121.53,0,0,0,27.6,10.7l5.91,32c10,2.26,13,3.5,23.68,3.51h.5c10.69,0,13.66-1.25,23.68-3.51l5.91-32a121.35,121.35,0,0,0,33-13.66l26.82,18.45c8.68-5.48,11.65-6.7,19.24-14.25l.35-.36c7.54-7.57,8.77-10.54,14.26-19.23L405,362.81a121.93,121.93,0,0,0,13.66-33l32-5.91c2.27-10,3.5-13,3.52-23.68v-.5c0-10.69-1.25-13.66-3.52-23.68Z"/><circle class="cls-6" cx="299.97" cy="300.02" r="53.64"/></g></svg>