<svg id="Contenido" xmlns="http://www.w3.org/2000/svg" xmlns:xlink="http://www.w3.org/1999/xlink" viewBox="0 0 600 600"><defs><style>.cls-1{fill:url(#Degradado_sin_nombre_10);}.cls-2{fill:#1464a5;}.cls-3{fill:#f8cd50;}.cls-4{fill:url(#Degradado_sin_nombre_9);}.cls-5{fill:url(#Degradado_sin_nombre_23);}.cls-6{fill:#c49735;}</style><linearGradient id="Degradado_sin_nombre_10" x1="278.56" y1="200.33" x2="420.43" y2="467.15" gradientUnits="userSpaceOnUse"><stop offset="0" stop-color="#192647"/><stop offset="0" stop-color="#192647" stop-opacity="0.5"/><stop offset="1" stop-color="#192647" stop-opacity="0"/></linearGradient><linearGradient id="Degradado_sin_nombre_9" x1="458.01" y1="324.34" x2="246.37" y2="324.34" gradientUnits="userSpaceOnUse"><stop offset="0" stop-color="#c49735" stop-opacity="0.3"/><stop offset="1" stop-color="#c49735" stop-opacity="0.1"/></linearGradient><linearGradient id="Degradado_sin_nombre_23" x1="427.28" y1="185.5" x2="347.23" y2="185.5" gradientUnits="userSpaceOnUse"><stop offset="0" stop-color="#043263" stop-opacity="0.3"/><stop offset="1" stop-color="#043263" stop-opacity="0.1"/></linearGradient></defs><title>self_driven</title><path class="cls-1" d="M195.29,334c0,10.7,1.26,13.66,3.52,23.68l32,5.91a121.48,121.48,0,0,0,13.66,33L226,423.37c5.49,8.69,6.71,11.66,14.26,19.23l.36.36c7.57,7.55,10.54,8.77,19.22,14.25l26.82-18.45c1.76,1.05,3.57,2,5.38,3h0c1.94,1,3.9,2,5.9,2.93l1.45.67c1.72.77,3.45,1.52,5.21,2.21,1.07.43,2.15.81,3.23,1.2,1.33.48,2.65,1,4,1.42,2.56.84,5.16,1.61,7.81,2.27l5.91,32c10,2.26,13,3.5,23.68,3.51h.5c10.69,0,13.66-1.25,23.67-3.51l5.92-32a121.55,121.55,0,0,0,33-13.66l26.82,18.45c8.68-5.48,11.65-6.7,19.23-14.25l.35-.36c7.55-7.57,8.77-10.54,14.26-19.23l-18.46-26.81a121.48,121.48,0,0,0,13.66-33l32-5.91c2.26-10,3.5-13,3.52-23.68v-.5c0-10.69-1.26-13.66-3.52-23.68l-32-5.91a121.55,121.55,0,0,0-13.66-33l13-18.82,5.5-8c-5.49-8.68-6.71-11.65-14.26-19.23l-.35-.35c-7.58-7.55-10.55-8.78-19.23-14.26l-26.82,18.46c-1.75-1.06-3.57-2-5.38-3h0a121.38,121.38,0,0,0-27.59-10.7l-5.92-32c-10-2.26-13-3.49-23.67-3.51h-.5c-10.7,0-13.67,1.25-23.68,3.51l-5.91,32a122.11,122.11,0,0,0-33,13.66l-26.82-18.45c-8.68,5.48-11.65,6.71-19.22,14.26l-.36.35c-7.55,7.58-8.77,10.55-14.26,19.23l5.51,8,12.95,18.82a121.41,121.41,0,0,0-13.66,33l-32,5.91c-2.26,10-3.5,13-3.52,23.68Z"/><path class="cls-2" d="M427.28,198.42c-5.49-8.68-6.71-11.65-14.26-19.23l-.35-.35c-7.58-7.55-10.55-8.78-19.23-14.26L366.62,183a121.89,121.89,0,0,0-33-13.67l-5.91-32c-10-2.26-13-3.49-23.68-3.51h-.5c-10.7,0-13.66,1.25-23.68,3.51l-5.91,32A121.82,121.82,0,0,0,241,183l-26.81-18.46c-8.69,5.48-11.66,6.71-19.23,14.26l-.36.35c-7.55,7.58-8.77,10.55-14.26,19.23l5.51,8H421.78Z"/><path class="cls-3" d="M422.48,258.21a121.55,121.55,0,0,0-13.66-33l13-18.82H185.84l12.95,18.82a121.55,121.55,0,0,0-13.66,33l-32,5.91c-2.26,10-3.5,13-3.52,23.68v.5c0,10.7,1.26,13.66,3.52,23.68l32,5.91a121.48,121.48,0,0,0,13.66,33l-18.46,26.81c5.49,8.69,6.71,11.66,14.26,19.23l.36.36c7.57,7.55,10.54,8.77,19.23,14.25L241,393.07a121.48,121.48,0,0,0,33,13.66l5.91,32c10,2.26,13,3.5,23.68,3.51h.5c10.69,0,13.66-1.25,23.68-3.51l5.91-32a121.55,121.55,0,0,0,33-13.66l26.82,18.45c8.68-5.48,11.65-6.7,19.23-14.25l.35-.36c7.55-7.57,8.77-10.54,14.26-19.23l-18.46-26.81a121.48,121.48,0,0,0,13.66-33l32-5.91c2.27-10,3.5-13,3.52-23.68v-.5c0-10.69-1.25-13.66-3.52-23.68Z"/><path class="cls-4" d="M422.48,258.21a121.55,121.55,0,0,0-13.66-33l13-18.82H347.23L246.37,396a121.46,121.46,0,0,0,27.6,10.7l5.91,32c10,2.26,13,3.5,23.68,3.51h.5c10.69,0,13.66-1.25,23.68-3.51l5.91-32a121.55,121.55,0,0,0,33-13.66l26.82,18.45c8.68-5.48,11.65-6.7,19.23-14.25l.35-.36c7.55-7.57,8.77-10.54,14.26-19.23l-18.46-26.81a121.48,121.48,0,0,0,13.66-33l32-5.91c2.27-10,3.5-13,3.52-23.68v-.5c0-10.69-1.25-13.66-3.52-23.68Z"/><path class="cls-5" d="M427.28,198.42c-5.49-8.68-6.71-11.65-14.26-19.23l-.35-.35c-7.58-7.55-10.55-8.78-19.23-14.26L366.62,183c-1.75-1.06-3.57-2-5.38-3l-14,26.35h74.55Z"/><circle class="cls-6" cx="303.81" cy="288.05" r="53.64"/></svg>