<svg xmlns="http://www.w3.org/2000/svg" xmlns:xlink="http://www.w3.org/1999/xlink" viewBox="0 0 600 600"><defs><style>.cls-1{fill:none;}.cls-2{fill:url(#Degradado_sin_nombre_185);}.cls-3{fill:#f2969a;}.cls-4{fill:#eaf9fa;}.cls-5{fill:#d44b50;}.cls-6{fill:url(#Degradado_sin_nombre_195);}.cls-7{fill:url(#Degradado_sin_nombre_195-2);}.cls-8{fill:url(#Degradado_sin_nombre_195-3);}</style><linearGradient id="Degradado_sin_nombre_185" x1="262.32" y1="-14847.09" x2="424.79" y2="-15152.65" gradientTransform="matrix(1, 0, 0, -1, 0, -14660.25)" gradientUnits="userSpaceOnUse"><stop offset="0" stop-color="#1c2645" stop-opacity="0.5"/><stop offset="1" stop-color="#1c2645" stop-opacity="0"/></linearGradient><linearGradient id="Degradado_sin_nombre_195" x1="475.06" y1="-14892.1" x2="311.54" y2="-14892.1" gradientTransform="matrix(1, 0, 0, -1, 0, -14660.25)" gradientUnits="userSpaceOnUse"><stop offset="0" stop-color="#043263" stop-opacity="0.1"/><stop offset="1" stop-color="#043263" stop-opacity="0"/></linearGradient><linearGradient id="Degradado_sin_nombre_195-2" x1="243.36" y1="-14905.6" x2="128.44" y2="-14905.6" xlink:href="#Degradado_sin_nombre_195"/><linearGradient id="Degradado_sin_nombre_195-3" x1="359.23" y1="-15077.8" x2="134.7" y2="-15077.8" xlink:href="#Degradado_sin_nombre_195"/></defs><g id="Cuadrados_Blancos" data-name="Cuadrados Blancos"><rect class="cls-1" width="600" height="600"/></g><g id="Capa_130" data-name="Capa 130"><path class="cls-2" d="M544.09,245.36a306.21,306.21,0,0,0-16.85-100.15,53,53,0,0,0-89.62-18.85l-.06.07c-43.32,48.73-97.87,79.47-168.26,79.47a171,171,0,1,0,47.45,335.25C447.08,505.87,544.09,386.86,544.09,245.36Z"/><path class="cls-3" d="M506.12,190.36A306.18,306.18,0,0,0,489.24,90.22a53,53,0,0,0-89.59-18.86l-.06.06c-43.36,48.78-97.87,79.52-168.26,79.52a171,171,0,1,0,47.45,335.22C409.1,450.88,506.12,331.87,506.12,190.36Z"/><circle class="cls-4" cx="237.57" cy="315.31" r="32.78" transform="translate(-111.73 499.3) rotate(-80.78)"/><path class="cls-5" d="M260.74,243.36a17.53,17.53,0,0,0,8.34,18.21,62.38,62.38,0,0,1,26.81,75.67,17.65,17.65,0,0,0,8.28,21.67q3,1.59,6.15,3.09C360.57,385.43,420,364,445.17,314.57a273.67,273.67,0,0,0,14.74-214.21l-.13-.4a21.94,21.94,0,0,0-37.11-7.81l-.17.2c-32.1,36-68.35,61.26-108.36,75.58a71.17,71.17,0,0,0-38,31.75A137.59,137.59,0,0,0,260.74,243.36Z"/><path class="cls-5" d="M269.64,368.72c-.12.08-.26.15-.38.22h.38Z"/><path class="cls-5" d="M310.24,395.42a141.77,141.77,0,0,1-36.53-18.9,17.81,17.81,0,0,0-16-2.26A62.3,62.3,0,0,1,181,341.55a18.26,18.26,0,0,0-19.75-10.42c-22.86,4.1-40.32,16.28-51.32,26.29a21.08,21.08,0,0,0-4.92,24.7,140,140,0,0,0,165.13,74.24l.48-.13a276.47,276.47,0,0,0,85.39-39.69,7.38,7.38,0,0,0-3.52-13.41C339.45,401.89,322.59,399.59,310.24,395.42Z"/><path class="cls-5" d="M181.43,288.36a62.48,62.48,0,0,1,35.45-31.77,19.21,19.21,0,0,0,12.7-15.07,175,175,0,0,1,12.8-43.75,11.23,11.23,0,0,0-5.72-14.8,11.39,11.39,0,0,0-4.6-1h-1.48c-77-.23-139.2,62.92-139.17,139.91v.1a4.92,4.92,0,0,0,7.9,3.93c16-12.21,38.47-24.26,66.73-26.8A19.07,19.07,0,0,0,181.43,288.36Z"/><path class="cls-6" d="M459.78,100a22.1,22.1,0,0,0-4.51-7.76L311.54,362.54c50,22.53,108.63,1,133.63-48a273.68,273.68,0,0,0,14.74-214.18Z"/><path class="cls-7" d="M232.06,182h-1.48a138,138,0,0,0-37.43,5L128.44,308.72A122,122,0,0,1,166,299.1a19.07,19.07,0,0,0,15.39-10.74,62.48,62.48,0,0,1,35.45-31.77,19.21,19.21,0,0,0,12.7-15.07,175,175,0,0,1,12.8-43.75A11.24,11.24,0,0,0,232.06,182Z"/><path class="cls-8" d="M352.53,403.09c-13.08-1.2-29.94-3.5-42.26-7.67a141.77,141.77,0,0,1-36.53-18.9,17.81,17.81,0,0,0-16-2.26,62.35,62.35,0,0,1-41.46-.4l-40.59,76.36a140,140,0,0,0,94.5,6.1l.48-.13a276.47,276.47,0,0,0,85.39-39.69,7.38,7.38,0,0,0-3.53-13.41Z"/></g></svg>