<svg xmlns="http://www.w3.org/2000/svg" xmlns:xlink="http://www.w3.org/1999/xlink" viewBox="0 0 600 600"><defs><style>.cls-1{fill:none;}.cls-2{fill:url(#Degradado_sin_nombre_92);}.cls-3{fill:#072146;}.cls-4{fill:#49a5e6;}.cls-5{fill:url(#Degradado_sin_nombre_70);}.cls-6{fill:#043263;}.cls-7{fill:#d4edfc;}.cls-8{fill:url(#Degradado_sin_nombre_7);}.cls-9{fill:#f8cd50;}.cls-10{fill:url(#Degradado_sin_nombre_10);}.cls-11{fill:#fef5dc;}</style><linearGradient id="Degradado_sin_nombre_92" x1="273.91" y1="163.62" x2="456.59" y2="507.2" gradientUnits="userSpaceOnUse"><stop offset="0" stop-color="#192647" stop-opacity="0.5"/><stop offset="1" stop-color="#192647" stop-opacity="0"/></linearGradient><linearGradient id="Degradado_sin_nombre_70" x1="462.22" y1="310.54" x2="213.42" y2="310.54" gradientTransform="translate(0 2)" gradientUnits="userSpaceOnUse"><stop offset="0" stop-color="#004481" stop-opacity="0.6"/><stop offset="1" stop-color="#004481" stop-opacity="0"/></linearGradient><linearGradient id="Degradado_sin_nombre_7" x1="343.21" y1="323.41" x2="261.3" y2="323.41" gradientTransform="translate(0 2)" gradientUnits="userSpaceOnUse"><stop offset="0" stop-color="#043263" stop-opacity="0.1"/><stop offset="1" stop-color="#043263" stop-opacity="0"/></linearGradient><linearGradient id="Degradado_sin_nombre_10" x1="370.34" y1="544.2" x2="444.65" y2="583.72" gradientTransform="translate(0 -398)" gradientUnits="userSpaceOnUse"><stop offset="0" stop-color="#fade8e"/><stop offset="1" stop-color="#fade8e" stop-opacity="0.4"/></linearGradient></defs><title>9</title><g id="Cuadrados_Blancos" data-name="Cuadrados Blancos"><rect class="cls-1" width="600" height="600"/></g><g id="Capa_8" data-name="Capa 8"><path class="cls-2" d="M494.2,137.6h0A89.7,89.7,0,0,0,404.6,224H391.82V207a23,23,0,0,0-23-23h-74.1a23,23,0,0,0-23,23v17h-59v-3h-41.1a23,23,0,0,0-23,23.05v41h3.05V423h-3.05v41a23,23,0,0,0,23,23.05h41.1v-3h235v3h41.1A23,23,0,0,0,511.77,464V423h0V315.38a89.75,89.75,0,0,0,72.12-88v-.21A89.58,89.58,0,0,0,494.2,137.6ZM285.72,224V206a9,9,0,0,1,9-9h74.1a9,9,0,0,1,9,9v18Z"/><path class="cls-3" d="M319.22,142.54h-74a23,23,0,0,0-23,23v17h14v-18a9,9,0,0,1,9-9h74.1a9,9,0,0,1,9,9v18h14v-17a23,23,0,0,0-23-23Z"/><path class="cls-4" d="M122.22,182.54h317a23,23,0,0,1,23,23h0v214a23,23,0,0,1-23,23h-314a23,23,0,0,1-23-23v-217A20,20,0,0,1,122.22,182.54Z"/><path class="cls-5" d="M439.22,182.54H354.61l-141.19,260h225.8a23,23,0,0,0,23-23v-214A23,23,0,0,0,439.22,182.54Z"/><path class="cls-6" d="M122.22,179.54h41v9.2a3,3,0,0,1-2.85,3,51.9,51.9,0,0,0-49,49,3,3,0,0,1-3,2.85h-9.2v-41a23,23,0,0,1,23-23.05h.1Z"/><path class="cls-4" d="M439.22,179.54h-41v9.2a3,3,0,0,0,2.85,3,51.9,51.9,0,0,1,49,49,3,3,0,0,0,3,2.85h9.2v-41a23,23,0,0,0-22.95-23.05h-.1Z"/><path class="cls-6" d="M122.22,445.54h41v-9.2a3,3,0,0,0-2.85-3,51.9,51.9,0,0,1-49-49,3,3,0,0,0-3-2.85h-9.2v41a23,23,0,0,0,23,23.05h.1Z"/><path class="cls-6" d="M439.22,445.54h-41v-9.2a3,3,0,0,1,2.85-3,51.9,51.9,0,0,0,49-49,3,3,0,0,1,3-2.85h9.2v41a23,23,0,0,1-22.95,23.05h-.1Z"/><path class="cls-7" d="M341.07,291.63H303.14V253.7a2.15,2.15,0,0,0-2.15-2.15H263.45a2.15,2.15,0,0,0-2.15,2.15v37.93H223.37a2.15,2.15,0,0,0-2.15,2.15v37.53a2.15,2.15,0,0,0,2.15,2.15H261.3v37.93a2.15,2.15,0,0,0,2.15,2.15H301a2.15,2.15,0,0,0,2.15-2.15V333.46h37.93a2.15,2.15,0,0,0,2.15-2.15V293.78A2.16,2.16,0,0,0,341.07,291.63Z"/><path class="cls-8" d="M341.07,291.63H303.14v-14.3l-41.84,77v17a2.15,2.15,0,0,0,2.15,2.15H301a2.15,2.15,0,0,0,2.15-2.15V333.46h37.93a2.15,2.15,0,0,0,2.15-2.15V293.78A2.16,2.16,0,0,0,341.07,291.63Z"/><path class="cls-9" d="M534.34,185.85A89.66,89.66,0,1,1,444.69,96.1h0a89.58,89.58,0,0,1,89.64,89.54v.21"/><path class="cls-10" d="M486.89,106.52a89.77,89.77,0,0,0-85.68,157.77h0a11,11,0,0,1,1.4.74Z"/><path class="cls-11" d="M455.24,203.47c0-5.95-2.36-8.31-13.53-13.4-16.12-7.32-20.93-12.91-20.93-24.21,0-11,9-19.11,18.23-21.48V130.73h.43l13.27,5.84v7.58a33.86,33.86,0,0,1,11.91,4.09l.61.36.5.26-.12.5-.13.74-1.73,10.42-.37,2-.26,1.4-1.11-.74-1.61-1.24a23.79,23.79,0,0,0-14.88-5.21c-7,0-10.66,3.1-10.66,8.31,0,5,2.47,7.19,13.39,12.29,16.24,7.33,21.32,13.28,21.32,25.32a23.55,23.55,0,0,1-17,22.35v15.78h-1.12l-12.6-7.1V226c-4.59-.61-12.77-2.35-18-5.08l-.74-.38-.5-.24v-.57l.12-.87,1.48-10.67.26-1.86.12-1.24,1,.74,1.5,1a35.78,35.78,0,0,0,19.09,6.2c7.31,0,12-3.59,12-9.55"/></g></svg>