<svg id="Capa_1" data-name="Capa 1" xmlns="http://www.w3.org/2000/svg" xmlns:xlink="http://www.w3.org/1999/xlink" viewBox="0 0 600 600"><defs><style>.cls-1{fill:url(#Degradado_sin_nombre_3);}.cls-2{fill:#1464a5;}.cls-3{fill:#d4edfc;}.cls-4{fill:url(#Degradado_sin_nombre_5);}.cls-5{fill:#49a5e6;}.cls-6{fill:#2dcccd;}.cls-7{fill:url(#Degradado_sin_nombre_4);}.cls-8{fill:#f8cd50;}.cls-9{fill:url(#Degradado_sin_nombre_6);}.cls-10{fill:#fef5dc;}</style><linearGradient id="Degradado_sin_nombre_3" x1="222.87" y1="61.76" x2="467.17" y2="521.23" gradientUnits="userSpaceOnUse"><stop offset="0" stop-color="#192647"/><stop offset="0" stop-color="#192647" stop-opacity="0.5"/><stop offset="1" stop-color="#192647" stop-opacity="0"/></linearGradient><linearGradient id="Degradado_sin_nombre_5" x1="488.39" y1="289.46" x2="239.59" y2="289.46" gradientTransform="matrix(1, 0, 0, -1, 0, 602)" gradientUnits="userSpaceOnUse"><stop offset="0" stop-color="#043263" stop-opacity="0.15"/><stop offset="1" stop-color="#043263" stop-opacity="0"/></linearGradient><linearGradient id="Degradado_sin_nombre_4" x1="369.38" y1="276.59" x2="287.47" y2="276.59" gradientTransform="matrix(1, 0, 0, -1, 0, 602)" gradientUnits="userSpaceOnUse"><stop offset="0.01" stop-color="#028484" stop-opacity="0.3"/><stop offset="1" stop-color="#028484" stop-opacity="0.1"/></linearGradient><linearGradient id="Degradado_sin_nombre_6" x1="417.49" y1="44.6" x2="470.75" y2="16.28" gradientTransform="matrix(1, 0, 0, -1, 0, 202)" gradientUnits="userSpaceOnUse"><stop offset="0" stop-color="#fade8e"/><stop offset="1" stop-color="#fade8e" stop-opacity="0.4"/></linearGradient></defs><title>DIY</title><path class="cls-1" d="M576,227.11a64.36,64.36,0,0,0-99.79-53.74l-.25.16c-.58.39-1.15.79-1.72,1.2l-1,.69-1,.75c-.54.42-1.07.83-1.59,1.26l-.3.25a63.81,63.81,0,0,0-11.6,12.67c-.2.28-.41.56-.61.85l-.51.8c-.43.66-.85,1.32-1.26,2-.08.14-.16.3-.25.44-.47.8-.93,1.6-1.37,2.42a.41.41,0,0,1-.05.09l-.18.37c-.42.8-.82,1.6-1.21,2.42-.12.25-.23.51-.34.76-.32.7-.63,1.4-.92,2.1-.17.41-.32.82-.48,1.22-.21.55-.42,1.09-.62,1.64s-.4,1.17-.6,1.76c-.12.37-.24.74-.35,1.11-.24.78-.46,1.57-.67,2.35l-.15.55a64.74,64.74,0,0,0-2,13.32H409.49v-17a23,23,0,0,0-23-23h-74.1a23,23,0,0,0-23,23v17h-59v-3h-41.1a23,23,0,0,0-22.95,23.05v41h3v137.9h-3v41a23,23,0,0,0,22.95,23.05h41.1v-3h235v3h41.1a23,23,0,0,0,23-23.05v-41h-.05V289A64.38,64.38,0,0,0,576,227.11ZM303.39,206.54a9,9,0,0,1,9-9h74.1a9,9,0,0,1,9,9v18h-92.1Z"/><path class="cls-2" d="M345.39,142.54h-74a23,23,0,0,0-23,23v17h14v-18a9,9,0,0,1,9-9h74.1a9,9,0,0,1,9,9v18h14v-17a23,23,0,0,0-23-23Z"/><path class="cls-3" d="M148.39,182.54h317a23,23,0,0,1,23,23h0v214a23,23,0,0,1-23,23h-314a23,23,0,0,1-23-23v-217A20,20,0,0,1,148.39,182.54Z"/><path class="cls-4" d="M465.39,182.54H380.78l-141.19,260h225.8a23,23,0,0,0,23-23v-214A23,23,0,0,0,465.39,182.54Z"/><path class="cls-5" d="M148.39,179.54h41v9.2a3,3,0,0,1-2.85,3,51.9,51.9,0,0,0-49,49,3,3,0,0,1-3,2.85h-9.2v-41a23,23,0,0,1,22.95-23.05Z"/><path class="cls-5" d="M465.39,179.54h-41v9.2a3,3,0,0,0,2.85,3,51.9,51.9,0,0,1,49,49,3,3,0,0,0,3,2.85h9.2v-41a23,23,0,0,0-22.95-23.05Z"/><path class="cls-5" d="M148.39,445.54h41v-9.2a3,3,0,0,0-2.85-3,51.9,51.9,0,0,1-49-49,3,3,0,0,0-3-2.85h-9.2v41a23,23,0,0,0,22.95,23.05Z"/><path class="cls-5" d="M465.39,445.54h-41v-9.2a3,3,0,0,1,2.85-3,51.9,51.9,0,0,0,49-49,3,3,0,0,1,3-2.85h9.2v41a23,23,0,0,1-22.95,23.05Z"/><path class="cls-6" d="M367.24,291.63H329.31V253.7a2.15,2.15,0,0,0-2.15-2.15H289.62a2.15,2.15,0,0,0-2.15,2.15v37.93H249.54a2.15,2.15,0,0,0-2.15,2.15v37.53a2.15,2.15,0,0,0,2.15,2.15h37.93v37.93a2.15,2.15,0,0,0,2.15,2.15h37.53a2.15,2.15,0,0,0,2.15-2.15V333.46h37.93a2.15,2.15,0,0,0,2.15-2.15V293.78A2.16,2.16,0,0,0,367.24,291.63Z"/><path class="cls-7" d="M367.24,291.63H329.31v-14.3l-41.84,77v17a2.15,2.15,0,0,0,2.15,2.15h37.53a2.15,2.15,0,0,0,2.15-2.15V333.46h37.93a2.15,2.15,0,0,0,2.15-2.15V293.78A2.16,2.16,0,0,0,367.24,291.63Z"/><path class="cls-8" d="M535,185.78a64.24,64.24,0,1,1-64.23-64.24h0A64.16,64.16,0,0,1,535,185.78"/><path class="cls-9" d="M501,129a64.26,64.26,0,0,0-61.39,112.92,8,8,0,0,1,1,.53Z"/><path class="cls-10" d="M478.32,198.39c0-4.26-1.69-5.95-9.69-9.59-11.55-5.24-15-9.24-15-17.33,0-7.9,6.48-13.68,13.06-15.37v-9.77H467l9.51,4.18v5.42a24.3,24.3,0,0,1,8.53,2.93l.44.26.36.18-.09.36-.09.53-1.24,7.46-.27,1.42-.18,1-.8-.53-1.15-.89a17.09,17.09,0,0,0-10.66-3.73c-5,0-7.64,2.22-7.64,5.95,0,3.56,1.77,5.15,9.59,8.8,11.64,5.24,15.28,9.5,15.28,18.12a16.87,16.87,0,0,1-12.17,16v11.29h-.8L466.59,220v-5.51c-3.29-.44-9.15-1.68-12.88-3.64l-.53-.27-.36-.17V210l.09-.62,1.06-7.64.18-1.33.09-.89.71.53,1.07.71a25.69,25.69,0,0,0,13.68,4.44c5.24,0,8.62-2.57,8.62-6.84"/></svg>