<svg id="Contenido" xmlns="http://www.w3.org/2000/svg" xmlns:xlink="http://www.w3.org/1999/xlink" viewBox="0 0 600 600"><defs><style>.cls-1{fill:url(#Degradado_sin_nombre_74);}.cls-2{fill:#004481;}.cls-3{fill:#1973b8;}.cls-4{fill:url(#Degradado_sin_nombre_47);}.cls-5{fill:#49a5e6;}.cls-6{fill:url(#Degradado_sin_nombre_51);}.cls-7{fill:url(#Degradado_sin_nombre_49);}.cls-8{fill:none;}</style><linearGradient id="Degradado_sin_nombre_74" x1="263.18" y1="203.54" x2="425.91" y2="509.6" gradientUnits="userSpaceOnUse"><stop offset="0" stop-color="#082146" stop-opacity="0.5"/><stop offset="1" stop-color="#082146" stop-opacity="0"/></linearGradient><linearGradient id="Degradado_sin_nombre_47" x1="308.08" y1="316.2" x2="450.57" y2="316.2" gradientUnits="userSpaceOnUse"><stop offset="0" stop-color="#043263" stop-opacity="0"/><stop offset="1" stop-color="#043263" stop-opacity="0.4"/></linearGradient><linearGradient id="Degradado_sin_nombre_51" x1="249.06" y1="327.55" x2="377.61" y2="327.55" gradientUnits="userSpaceOnUse"><stop offset="0" stop-color="#043263" stop-opacity="0"/><stop offset="1" stop-color="#043263" stop-opacity="0.3"/></linearGradient><linearGradient id="Degradado_sin_nombre_49" x1="398.82" y1="347.88" x2="526.06" y2="347.88" gradientUnits="userSpaceOnUse"><stop offset="0" stop-color="#043263" stop-opacity="0"/><stop offset="1" stop-color="#043263" stop-opacity="0.8"/></linearGradient></defs><path class="cls-1" d="M564.69,340.4a5.52,5.52,0,0,0-.45-1.66,5.62,5.62,0,0,0-1.34-1.83,5.83,5.83,0,0,0-.94-.69,5.62,5.62,0,0,0-1.69-.63l-1.31-.26-.38-.07-1.1-.21-.4-.07c-1-.2-2.13-.39-3.3-.6l-.38-.06-1.51-.26-.39-.06c-1.3-.22-2.68-.43-4.13-.65l-.23,0-2-.3-.32,0-4.88-.66h-.1l-2.46-.3-.29,0q-2.67-.32-5.54-.59h0c-.91-.1-1.85-.18-2.79-.27l-.34,0a303.61,303.61,0,0,0-39.37-.95c0-.89.07-1.79.09-2.68v-.17c.08-2.84.13-5.63.13-8.37v0c0-7.4-.27-14.46-.72-21,0-.82-.11-1.64-.17-2.44-.31-4-.68-7.87-1.08-11.47-.08-.72-.16-1.43-.25-2.13-.5-4.21-1-8.07-1.58-11.52-.36-2.3-.72-4.42-1.06-6.33q-.25-1.44-.51-2.73c-.24-1.28-.47-2.45-.68-3.49a5.12,5.12,0,0,0-.19-.67c0-.06-.05-.12-.07-.19s-.11-.29-.18-.44l-.1-.19a3.38,3.38,0,0,0-.24-.41,1.3,1.3,0,0,0-.1-.15,4.59,4.59,0,0,0-.33-.44l-.06-.07a5.52,5.52,0,0,0-5.93-1.61c-13,4.33-45.65,16.55-77.15,39.08-18-42.34-44.86-74.94-55.55-87a6.16,6.16,0,0,0-9.24,0c-10.69,12-37.57,44.62-55.55,87-31.5-22.53-64.14-34.75-77.15-39.08a5.54,5.54,0,0,0-7.2,4.17,311.2,311.2,0,0,0-5.82,72.38,309.37,309.37,0,0,0-71.26,5.45,5.53,5.53,0,0,0-4.17,7.18c7.07,21.53,35.39,96.7,96,132.14,40.55,23.71,74.72,28.81,96.63,28.82h66.24c16.07,0,38.75-2.76,65.7-13.59h0c1.17-.47,2.35-1,3.54-1.46l.3-.13c1.14-.48,2.28-1,3.43-1.49l.24-.1q3.71-1.65,7.5-3.51a3.18,3.18,0,0,0,.32-.16c1.08-.53,2.17-1.07,3.26-1.63l1-.52c.88-.45,1.76-.92,2.64-1.39l1.2-.64,2.63-1.44,1.12-.62c1.23-.69,2.47-1.4,3.71-2.13h0c2.52-1.47,5-3,7.39-4.62,1.46-1,2.91-2,4.33-3q6-4.32,11.6-9.12l.66-.57q3.42-3,6.67-6.09l.17-.17a223.88,223.88,0,0,0,32.1-39.43c.55-.85,1.09-1.69,1.62-2.53a306,306,0,0,0,22.5-43c.41-.93.8-1.86,1.18-2.77,1.05-2.53,2-4.93,2.89-7.18l.64-1.66q1.25-3.27,2.22-6c.82-2.3,1.5-4.31,2.05-6a4.44,4.44,0,0,0,.16-.6,5.29,5.29,0,0,0,.13-1.19C564.72,340.79,564.71,340.59,564.69,340.4Z"/><path class="cls-2" d="M521.6,273.09a5.53,5.53,0,0,1,4.17,7.18c-7.07,21.53-35.39,96.7-96,132.14C358.55,454,307,438.32,307,438.32l-30.35-52.21s11.75-52.71,82.95-94.34C420.25,256.33,499.43,268.65,521.6,273.09Z"/><path class="cls-2" d="M78.4,273.09a5.53,5.53,0,0,0-4.17,7.18c7.07,21.53,35.39,96.7,96,132.14C241.45,454,293,438.32,293,438.32l30.35-52.21s-11.75-52.71-82.95-94.34C179.75,256.33,100.57,268.65,78.4,273.09Z"/><path class="cls-3" d="M162.68,191.09a5.54,5.54,0,0,0-7.2,4.17c-4.56,22.22-17.32,101.61,17.71,162.52,41.14,71.52,93.7,83.45,93.7,83.45h52.3s16-82-25.15-153.49C259,226.83,184.13,198.23,162.68,191.09Z"/><path class="cls-3" d="M437.32,191.09a5.54,5.54,0,0,1,7.2,4.17c4.56,22.22,17.32,101.61-17.71,162.52-41.14,71.52-93.7,83.45-93.7,83.45h-52.3s-16-82,25.15-153.49C341,226.83,415.87,198.23,437.32,191.09Z"/><path class="cls-4" d="M441,191.17l-133,250.06h25s52.56-11.93,93.7-83.45c35-60.91,22.27-140.3,17.71-162.52A5.54,5.54,0,0,0,441,191.17Z"/><path class="cls-5" d="M304.62,143.21a6.16,6.16,0,0,0-9.24,0c-16.71,18.79-73,87.88-73,165.82,0,91.52,54.37,132.2,54.37,132.2h46.48s54.37-40.68,54.37-132.2C377.61,231.09,321.33,162,304.62,143.21Z"/><path class="cls-6" d="M249.06,408.61c13.76,22.18,27.7,32.62,27.7,32.62h46.48s54.37-40.68,54.37-132.2c0-34.7-11.15-67.63-25-95.17Z"/><path class="cls-7" d="M521.6,273.09a303.51,303.51,0,0,0-38-5L398.82,427.64a233.23,233.23,0,0,0,30.93-15.23c60.63-35.44,89-110.61,96-132.14A5.53,5.53,0,0,0,521.6,273.09Z"/><rect class="cls-8" width="600" height="600"/></svg>