<?xml version="1.0" encoding="utf-8"?>
<!-- Generator: Adobe Illustrator 23.0.1, SVG Export Plug-In . SVG Version: 6.00 Build 0)  -->
<svg version="1.1" id="Capa_1" xmlns="http://www.w3.org/2000/svg" xmlns:xlink="http://www.w3.org/1999/xlink" x="0px" y="0px"
	 viewBox="0 0 600 600" style="enable-background:new 0 0 600 600;" xml:space="preserve">
<style type="text/css">
	.st0{fill:url(#SVGID_1_);}
	.st1{fill:url(#SVGID_2_);}
	.st2{fill:url(#SVGID_3_);}
	.st3{fill:#004481;}
	.st4{fill:#2DCCCD;}
	.st5{fill:#1464A5;}
	.st6{clip-path:url(#SVGID_5_);}
	.st7{fill:none;}
	.st8{fill:url(#SVGID_6_);}
	.st9{fill-rule:evenodd;clip-rule:evenodd;fill:#EAF9FA;}
</style>
<title>Mesa de trabajo 1 copia 32</title>
<linearGradient id="SVGID_1_" gradientUnits="userSpaceOnUse" x1="144.3044" y1="547.5069" x2="338.0944" y2="986.6069" gradientTransform="matrix(1 0 0 1 0 -400)">
	<stop  offset="0" style="stop-color:#192647"/>
	<stop  offset="0" style="stop-color:#192647;stop-opacity:0.5"/>
	<stop  offset="1" style="stop-color:#192647;stop-opacity:0"/>
</linearGradient>
<path class="st0" d="M285.9,328.9l-15.1-17.5c1.8-3.7,3.3-7.5,4.5-11.4l23.3-4.2c2.6-13.8,2.3-28-1.1-41.6l-23.2-2.2
	c-1.3-3.7-2.9-7.2-4.7-10.6l13.9-18.9c-8.1-11.9-18.6-21.9-30.9-29.3L234.5,208c-3.4-1.6-6.9-2.9-10.5-4l-3.6-23.1
	c-7.1-1.4-14.4-2-21.7-1.8s-14.5,1.3-21.5,3.1l-1.5,23.1c-3.9,1.4-7.8,3.1-11.4,5.2l-19.4-13.3c-11.2,7.9-20.6,18.1-27.6,29.9
	l15,17.9c-1.8,3.8-3.3,7.8-4.4,11.8l-23,3.8c-2.4,13.9-1.8,28.2,1.7,41.9l23.3,1.9c1.3,3.5,2.9,6.9,4.7,10.2L121,333.8
	c8.1,11.7,18.6,21.4,30.9,28.7l18.3-14.8c3.2,1.5,6.5,2.7,9.9,3.7l3.4,23.1c14,2.7,28.5,2.3,42.4-1.2l2.9-23.5
	c3.4-1.3,6.7-2.8,9.9-4.5l18.3,14.2C268.6,351.3,278.5,340.9,285.9,328.9z"/>
<linearGradient id="SVGID_2_" gradientUnits="userSpaceOnUse" x1="287.1856" y1="484.4419" x2="480.9856" y2="923.5519" gradientTransform="matrix(1 0 0 1 0 -400)">
	<stop  offset="0" style="stop-color:#192647"/>
	<stop  offset="0" style="stop-color:#192647;stop-opacity:0.5"/>
	<stop  offset="1" style="stop-color:#192647;stop-opacity:0"/>
</linearGradient>
<path class="st1" d="M295.1,220.1l11.4,0.9c0.6,1.7,1.4,3.4,2.3,5l-6.6,9.4c4,5.7,9.1,10.5,15.1,14l9-7.3c1.6,0.7,3.2,1.3,4.8,1.8
	l1.7,11.3c6.9,1.3,13.9,1.1,20.7-0.6l1.4-11.5c1.7-0.6,3.3-1.4,4.9-2.2l9,6.9c5.7-3.9,10.5-8.9,14.1-14.8l-7.4-8.5
	c0.9-1.8,1.6-3.7,2.2-5.6l11.4-2c1.3-6.7,1.1-13.7-0.5-20.4l-11.4-1.1c-0.6-1.8-1.4-3.5-2.3-5.2l6.8-9.2
	c-3.9-5.8-9.1-10.7-15.1-14.4l-8.9,7.3c-1.7-0.8-3.4-1.5-5.1-2l-1.7-11.3c-3.5-0.7-7.1-1-10.6-0.9c-3.6,0.1-7.1,0.6-10.5,1.5
	l-0.7,11.3c-1.9,0.7-3.8,1.5-5.6,2.6l-9.5-6.5c-5.5,3.9-10.1,8.9-13.5,14.6l7.3,8.8c-0.9,1.9-1.6,3.8-2.2,5.8l-11.3,1.8
	C293.1,206.4,293.4,213.3,295.1,220.1L295.1,220.1z"/>
<linearGradient id="SVGID_3_" gradientUnits="userSpaceOnUse" x1="277.5305" y1="488.7107" x2="471.3205" y2="927.8107" gradientTransform="matrix(1 0 0 1 0 -400)">
	<stop  offset="0" style="stop-color:#192647"/>
	<stop  offset="0" style="stop-color:#192647;stop-opacity:0.3"/>
	<stop  offset="1" style="stop-color:#192647;stop-opacity:0"/>
</linearGradient>
<path class="st2" d="M560.4,432.2c4.6-20.8,4.8-42.3,0.4-63.1l-35-4.5c-1.8-5.6-4-11.1-6.6-16.3l21.9-28
	c-11.6-18.4-27.1-34.1-45.4-45.9L467.5,296c-5.1-2.6-10.3-4.8-15.7-6.6l-4.3-35.2c-10.8-2.4-21.7-3.6-32.8-3.6
	c-11,0-22,1.2-32.8,3.6l-3.3,34.9c-6,1.9-11.9,4.4-17.5,7.4l-28.8-21.1c-17.3,11.5-32.1,26.5-43.3,43.9l21.8,27.8
	c-2.9,5.7-5.3,11.6-7.3,17.7l-35,4.6c-4.4,21-4.1,42.7,0.6,63.6l35.1,4c1.8,5.4,4,10.6,6.6,15.6L289.3,481
	c11.7,18.1,27.2,33.4,45.4,44.9l28.4-21.6c4.8,2.3,9.7,4.3,14.8,6l4,35.1c21.1,4.7,43,4.8,64.2,0.2l5.5-35.5
	c5.2-1.8,10.3-3.9,15.2-6.4l27.1,22.3c18.1-11.4,33.6-26.6,45.3-44.5l-22-27.1c2.9-5.5,5.4-11.1,7.4-17L560.4,432.2z"/>
<path class="st3" d="M258.3,239.2c2.6-13.8,2.3-28-1.1-41.6l-23.2-2.2c-1.3-3.7-2.9-7.2-4.7-10.6l13.9-18.9
	c-8.1-11.9-18.6-21.9-30.9-29.4l-18.1,14.9c-3.4-1.6-6.9-2.9-10.5-4l-3.6-23.1c-7.1-1.4-14.4-1.9-21.7-1.7c-7.3,0.2-14.5,1.2-21.5,3
	l-1.5,23.1c-4,1.4-7.8,3.2-11.4,5.2l-19.4-13.3c-11.2,7.8-20.6,18-27.6,29.8l15,17.9c-1.8,3.8-3.3,7.8-4.4,11.8l-23,3.8
	c-1.2,6.7-1.7,13.4-1.5,20.2c0.2,7.4,1.3,14.7,3.2,21.8l23.3,1.9c1.3,3.5,2.9,6.9,4.7,10.2l-13.7,19c8.1,11.7,18.7,21.4,30.9,28.7
	l18.3-14.8c3.2,1.5,6.5,2.7,9.9,3.7l3.4,23.1c14,2.7,28.5,2.2,42.4-1.2l2.9-23.5c3.4-1.3,6.7-2.8,9.9-4.5l18.4,14.2
	c11.7-7.9,21.6-18.2,29-30.3L230.6,255c1.8-3.7,3.3-7.5,4.5-11.4L258.3,239.2z"/>
<path class="st4" d="M348.8,160.2c0.7-3.5,0.9-7,0.8-10.5c-0.1-3.3-0.6-6.6-1.3-9.9l-11.4-1.1c-0.6-1.8-1.4-3.5-2.3-5.2l6.8-9.3
	c-3.9-5.8-9.1-10.7-15.1-14.4l-8.9,7.3c-1.7-0.8-3.4-1.5-5.1-2l-1.7-11.3c-3.5-0.7-7.1-1-10.6-0.8c-3.6,0.1-7.1,0.6-10.5,1.5
	l-0.7,11.3c-1.9,0.7-3.8,1.5-5.6,2.6l-9.5-6.5c-5.5,3.9-10.1,8.9-13.6,14.7l7.3,8.8c-0.9,1.9-1.6,3.8-2.2,5.8l-11.3,1.8
	c-1.2,6.8-0.9,13.8,0.9,20.5l11.4,0.9c0.6,1.7,1.4,3.4,2.3,5l-6.6,9.4c4,5.7,9.1,10.5,15.1,14l9-7.3c1.6,0.7,3.2,1.3,4.8,1.8
	l1.7,11.3c3.5,0.7,7,0.9,10.6,0.8c3.4-0.1,6.8-0.6,10.2-1.4l1.4-11.5c1.7-0.6,3.3-1.4,4.9-2.2l9,6.9c5.7-3.9,10.6-8.9,14.2-14.8
	l-7.4-8.5c0.9-1.8,1.6-3.7,2.2-5.6L348.8,160.2z"/>
<path class="st5" d="M520.1,375.5c4.6-20.8,4.8-42.3,0.4-63.1l-35.1-4.5c-1.8-5.6-4-11.1-6.6-16.3l21.9-28
	c-11.6-18.4-27.1-34.1-45.4-45.9l-28.1,21.6c-5.1-2.6-10.3-4.8-15.7-6.6l-4.3-35.2c-10.8-2.4-21.7-3.6-32.8-3.6
	c-11,0-22,1.2-32.7,3.6l-3.4,34.9c-6,1.9-11.9,4.4-17.5,7.4L292,218.7c-17.3,11.5-32.1,26.4-43.3,43.9l21.8,27.8
	c-2.9,5.7-5.3,11.6-7.3,17.7l-35,4.6c-2.1,10-3.1,20.2-3.1,30.4c0,11.2,1.3,22.3,3.7,33.2l35.2,4c1.8,5.4,4,10.6,6.6,15.6
	l-21.5,28.4c11.7,18.1,27.2,33.4,45.4,44.9l28.4-21.6c4.8,2.3,9.7,4.3,14.8,6l4,35.1c21.1,4.7,43.1,4.8,64.2,0.3l5.5-35.5
	c5.2-1.8,10.3-3.9,15.2-6.4l27.1,22.3c18.1-11.4,33.6-26.6,45.4-44.5l-22-27.1c2.9-5.5,5.4-11.1,7.4-17L520.1,375.5z"/>
<g>
	<g>
		<defs>
			<path id="SVGID_4_" d="M520.1,375.5c4.6-20.8,4.8-42.3,0.4-63.1l-35.1-4.5c-1.8-5.6-4-11.1-6.6-16.3l21.9-28
				c-11.6-18.4-27.1-34.1-45.4-45.9l-28.1,21.6c-5.1-2.6-10.3-4.8-15.7-6.6l-4.3-35.2c-10.8-2.4-21.7-3.6-32.8-3.6
				c-11,0-22,1.2-32.7,3.6l-3.4,34.9c-6,1.9-11.9,4.4-17.5,7.4L292,218.7c-17.3,11.5-32.1,26.4-43.3,43.9l21.8,27.8
				c-2.9,5.7-5.3,11.6-7.3,17.7l-35,4.6c-2.1,10-3.1,20.2-3.1,30.4c0,11.2,1.3,22.3,3.7,33.2l35.2,4c1.8,5.4,4,10.6,6.6,15.6
				l-21.5,28.4c11.7,18.1,27.2,33.4,45.4,44.9l28.4-21.6c4.8,2.3,9.7,4.3,14.8,6l4,35.1c21.1,4.7,43.1,4.8,64.2,0.3l5.5-35.5
				c5.2-1.8,10.3-3.9,15.2-6.4l27.1,22.3c18.1-11.4,33.6-26.6,45.4-44.5l-22-27.1c2.9-5.5,5.4-11.1,7.4-17L520.1,375.5z"/>
		</defs>
		<clipPath id="SVGID_5_">
			<use xlink:href="#SVGID_4_"  style="overflow:visible;"/>
		</clipPath>
		<g class="st6">
			<path class="st7" d="M427.2,239.3c-5.1-2.6-10.3-4.8-15.7-6.6l-4.3-35.2c-10.8-2.4-21.7-3.6-32.8-3.6c-11,0-22,1.2-32.7,3.6
				l-3.4,34.9c-6,1.9-11.9,4.4-17.5,7.4L292,218.7c-17.3,11.5-32.1,26.4-43.3,43.9l21.8,27.8c-2.9,5.7-5.3,11.6-7.3,17.7l-35,4.6
				c-2.1,10-3.1,20.2-3.1,30.4c0,11.2,1.3,22.3,3.7,33.2l35.2,4c1.8,5.4,4,10.6,6.6,15.6l-21.5,28.4c11.7,18.1,27.2,33.4,45.4,44.9
				l21.6-16.4l115.2-216.7L427.2,239.3z"/>
			
				<linearGradient id="SVGID_6_" gradientUnits="userSpaceOnUse" x1="639.6" y1="754.9942" x2="287.56" y2="754.9942" gradientTransform="matrix(1 0 0 1 0 -400)">
				<stop  offset="0" style="stop-color:#043263"/>
				<stop  offset="1" style="stop-color:#043263;stop-opacity:0"/>
			</linearGradient>
			<path class="st8" d="M337.8,453.6l4,35.1c21.1,4.7,43,4.8,64.2,0.2l5.5-35.5c5.2-1.8,10.3-3.9,15.2-6.4l27.1,22.3
				c18.1-11.4,33.6-26.6,45.4-44.5l-22-27.1c2.9-5.5,5.4-11.1,7.4-17l35.5-5.2c4.6-20.8,4.8-42.3,0.4-63.1l-35.1-4.5
				c-1.8-5.6-4-11.1-6.6-16.3l21.9-28c-11.6-18.4-27.1-34.1-45.4-45.9l-24,18.5L316.1,452.8l6.9-5.2
				C327.8,449.9,332.7,452,337.8,453.6z"/>
		</g>
	</g>
</g>
<path class="st9" d="M362.3,363.3l32.3-20.2l-32.3-20.2V363.3z M326,343.1c0-26.8,21.7-48.4,48.4-48.4c26.8,0,48.4,21.7,48.4,48.4
	c0,26.8-21.7,48.4-48.4,48.4S326,369.9,326,343.1z"/>
</svg>
