<svg xmlns="http://www.w3.org/2000/svg" xmlns:xlink="http://www.w3.org/1999/xlink" viewBox="0 0 600 600"><defs><style>.cls-1{fill:none;}.cls-2{fill:url(#Degradado_sin_nombre_486);}.cls-3{fill:#f8cd50;}.cls-4{fill:url(#Degradado_sin_nombre_76);}.cls-5{fill:#1464a5;}.cls-6{fill:url(#Degradado_sin_nombre_39);}.cls-7{fill:#2dcccd;}.cls-8{fill:url(#Degradado_sin_nombre_9);}.cls-9{fill:#043263;}.cls-10{fill:#004481;}.cls-11{fill:url(#Degradado_sin_nombre_114);}</style><linearGradient id="Degradado_sin_nombre_486" x1="257.1" y1="440.93" x2="453.34" y2="71.88" gradientTransform="matrix(1, 0, 0, -1, 0, 590)" gradientUnits="userSpaceOnUse"><stop offset="0" stop-color="#1c2645" stop-opacity="0.5"/><stop offset="1" stop-color="#1c2645" stop-opacity="0"/></linearGradient><linearGradient id="Degradado_sin_nombre_76" x1="104.53" y1="438.92" x2="286.54" y2="256.91" gradientTransform="matrix(1, 0, 0, -1, 0, 590)" gradientUnits="userSpaceOnUse"><stop offset="0" stop-color="#fff" stop-opacity="0.7"/><stop offset="1" stop-color="#fff" stop-opacity="0"/><stop offset="1" stop-color="#eef7f8" stop-opacity="0.3"/></linearGradient><linearGradient id="Degradado_sin_nombre_39" x1="327.19" y1="378.49" x2="289.73" y2="378.49" gradientTransform="matrix(1, 0, 0, -1, 0, 590)" gradientUnits="userSpaceOnUse"><stop offset="0" stop-color="#043263"/><stop offset="1" stop-color="#043263" stop-opacity="0"/></linearGradient><linearGradient id="Degradado_sin_nombre_9" x1="282.76" y1="276.52" x2="304.52" y2="254.76" gradientTransform="matrix(1, 0, 0, -1, 0, 590)" gradientUnits="userSpaceOnUse"><stop offset="0" stop-color="#fff" stop-opacity="0.6"/><stop offset="1" stop-color="#fff" stop-opacity="0.1"/></linearGradient><linearGradient id="Degradado_sin_nombre_114" x1="484.33" y1="178.36" x2="292.17" y2="178.36" gradientTransform="matrix(1, 0, 0, -1, 0, 590)" gradientUnits="userSpaceOnUse"><stop offset="0" stop-color="#072146" stop-opacity="0.8"/><stop offset="1" stop-color="#072146" stop-opacity="0"/></linearGradient></defs><title>11</title><g id="Cuadrados_Blancos" data-name="Cuadrados Blancos"><rect class="cls-1" width="600" height="600"/></g><g id="Capa_55" data-name="Capa 55"><path class="cls-2" d="M547,208.23l-55.67,48.31a4.45,4.45,0,0,0-.51,6.27l.24.26a55.3,55.3,0,0,1,16.61,39.58c0,1.2-.05,2.39-.12,3.57A40.43,40.43,0,0,1,507,311a55.45,55.45,0,0,1-108.84,4.21,39.47,39.47,0,0,1-1.48-10.7v-1.83A55.37,55.37,0,0,1,419.24,258a4.39,4.39,0,0,0,.87-6.15,4.81,4.81,0,0,0-.42-.48L389,220.68h0l-36.5-36.5a4.32,4.32,0,0,0-1.46-1,4.38,4.38,0,0,0-4.78,1l-4.81,4.8L279,251.4a4.45,4.45,0,0,0,.46,6.63c.7.52,1.38,1.07,2.06,1.62a57.83,57.83,0,0,1,5.09,4.68A55.29,55.29,0,0,1,302,302.65v1.83a39.47,39.47,0,0,1-1.48,10.7,53.5,53.5,0,0,1-1.57,5.43A55.44,55.44,0,0,1,191.7,311a39.84,39.84,0,0,1-.5-4.75c0-.52-.06-1.05-.08-1.57s0-1.33,0-2A55.52,55.52,0,0,1,205.91,265c.59-.63,1.2-1.26,1.82-1.87a1.71,1.71,0,0,0,.21-.26,4.38,4.38,0,0,0,.82-4.32c-.08-.21-.16-.42-.26-.62a4.65,4.65,0,0,0-1-1.33l-55.67-48.31a4.28,4.28,0,0,0-2.61-1.09,4.44,4.44,0,0,0-4.7,4.16,4.82,4.82,0,0,0,.09,1.2l11.67,53.78,23.23,107.13a347.74,347.74,0,0,1,5.83,36,345.17,345.17,0,0,1,2,36.79h-.56a14,14,0,0,0-12.47,7.65l-8.89,17.44a3,3,0,0,0,1.31,4,2.94,2.94,0,0,0,1.36.33H186.7v9.44a3,3,0,0,0,3,3H509a3,3,0,0,0,3-3v-9.44h18.71a3,3,0,0,0,3-3,1.77,1.77,0,0,0,0-.23,3,3,0,0,0-.32-1.14l-3.57-7-5.32-10.44A14,14,0,0,0,512,446.2h-.61a345.28,345.28,0,0,1,7.85-72.79L554.16,212.5a4.41,4.41,0,0,0-7.16-4.27Z"/><path class="cls-3" d="M497.6,159l-55.67,48.31a4.46,4.46,0,0,0-.49,6.29l.22.24a55.3,55.3,0,0,1,16.61,39.58,35.29,35.29,0,0,1-.12,3.57,39.84,39.84,0,0,1-.5,4.75A55.45,55.45,0,0,1,348.81,266a39.47,39.47,0,0,1-1.48-10.7v-1.83a55.38,55.38,0,0,1,22.52-44.61,4.4,4.4,0,0,0,.88-6.16,4.81,4.81,0,0,0-.42-.48L303.08,135a4.4,4.4,0,0,0-6.22,0l0,0-67.23,67.22a4.4,4.4,0,0,0,0,6.22,4.81,4.81,0,0,0,.48.42,55.38,55.38,0,0,1,22.52,44.61v1.83a39.47,39.47,0,0,1-1.48,10.7,55.45,55.45,0,0,1-108.84-4.21,39.84,39.84,0,0,1-.5-4.75c-.07-1.18-.12-2.37-.12-3.57a55.3,55.3,0,0,1,16.61-39.58,4.47,4.47,0,0,0,0-6.31l-.24-.22L102.4,159a4.43,4.43,0,0,0-7.22,4.28l34.9,160.91a345.38,345.38,0,0,1,7.85,73.23h0a4.41,4.41,0,0,0,4.3,4.41L300,405.9l157.77-4.11a4.41,4.41,0,0,0,4.3-4.41h0a345.38,345.38,0,0,1,7.85-73.23l34.9-160.91A4.43,4.43,0,0,0,497.6,159Z"/><path class="cls-4" d="M303.12,134.91a4.4,4.4,0,0,0-6.22,0l0,0-67.23,67.22a4.4,4.4,0,0,0,0,6.22,4.81,4.81,0,0,0,.48.42,55.38,55.38,0,0,1,22.52,44.61v1.83a39.47,39.47,0,0,1-1.48,10.7,55.45,55.45,0,0,1-108.84-4.21,39.84,39.84,0,0,1-.5-4.75c-.07-1.18-.12-2.37-.12-3.57A55.3,55.3,0,0,1,158.3,213.8a4.47,4.47,0,0,0,0-6.31l-.24-.22L102.4,159a4.43,4.43,0,0,0-7.22,4.28l34.9,160.91a345.38,345.38,0,0,1,7.85,73.23,4.41,4.41,0,0,0,4.3,4.41l73.65,1.92,123.75-232.3Z"/><rect class="cls-5" x="279.32" y="186.74" width="41.36" height="41.36" rx="4.9" transform="translate(-58.8 272.89) rotate(-45)"/><path class="cls-6" d="M325.78,204l-15.62-15.62-20.43,38,6.8,6.8a4.92,4.92,0,0,0,6.94,0l22.31-22.32A4.88,4.88,0,0,0,325.78,204Z"/><circle class="cls-7" cx="300" cy="329.94" r="23.81"/><path class="cls-8" d="M300,306.13A23.82,23.82,0,0,0,288.82,351L311.18,309A23.6,23.6,0,0,0,300,306.13Z"/><rect class="cls-9" x="137.35" y="413.94" width="325.3" height="24.88" rx="3"/><path class="cls-10" d="M481.34,426.39H118.66a3,3,0,0,1-3-3A3.07,3.07,0,0,1,116,422l8.88-17.44a14,14,0,0,1,12.48-7.65h325.3a14,14,0,0,1,12.48,7.65L484,422a3,3,0,0,1-1.27,4.05A3.07,3.07,0,0,1,481.34,426.39Z"/><path class="cls-11" d="M484,422l-8.88-17.44a14,14,0,0,0-12.48-7.65H307.83l-15.66,29.46H481.34a3,3,0,0,0,3-3A2.94,2.94,0,0,0,484,422Z"/></g></svg>