<svg id="Contenido" xmlns="http://www.w3.org/2000/svg" xmlns:xlink="http://www.w3.org/1999/xlink" viewBox="0 0 600 600"><defs><style>.cls-1{fill:url(#Degradado_sin_nombre_16);}.cls-2{fill:#f8cd50;}.cls-3{fill:url(#Degradado_sin_nombre_75);}.cls-4{fill:#1464a5;}.cls-5{fill:url(#Degradado_sin_nombre_45);}.cls-6{fill:#2dcccd;}.cls-7{fill:url(#Degradado_sin_nombre_10);}.cls-8{fill:#043263;}.cls-9{fill:url(#Degradado_sin_nombre_28);}.cls-10{fill:none;}</style><linearGradient id="Degradado_sin_nombre_16" x1="257.08" y1="149.02" x2="453.33" y2="518.09" gradientUnits="userSpaceOnUse"><stop offset="0" stop-color="#1c2645"/><stop offset="0" stop-color="#1c2645" stop-opacity="0.5"/><stop offset="1" stop-color="#1c2645" stop-opacity="0"/></linearGradient><linearGradient id="Degradado_sin_nombre_75" x1="104.51" y1="151.04" x2="286.53" y2="333.06" gradientUnits="userSpaceOnUse"><stop offset="0" stop-color="#fff" stop-opacity="0.7"/><stop offset="1" stop-color="#fff" stop-opacity="0"/><stop offset="1" stop-color="#eef7f8" stop-opacity="0.3"/></linearGradient><linearGradient id="Degradado_sin_nombre_45" x1="327.22" y1="211.48" x2="289.73" y2="211.48" gradientUnits="userSpaceOnUse"><stop offset="0" stop-color="#043263"/><stop offset="1" stop-color="#043263" stop-opacity="0"/></linearGradient><linearGradient id="Degradado_sin_nombre_10" x1="282.8" y1="313.47" x2="304.56" y2="335.23" gradientUnits="userSpaceOnUse"><stop offset="0" stop-color="#fff" stop-opacity="0.6"/><stop offset="1" stop-color="#fff" stop-opacity="0.1"/></linearGradient><linearGradient id="Degradado_sin_nombre_28" x1="484.34" y1="411.66" x2="292.17" y2="411.66" gradientUnits="userSpaceOnUse"><stop offset="0" stop-color="#043263" stop-opacity="0.4"/><stop offset="1" stop-color="#043263" stop-opacity="0.1"/></linearGradient></defs><title>-</title><path class="cls-1" d="M547,208.23l-55.67,48.31a4.45,4.45,0,0,0-.27,6.53,55.29,55.29,0,0,1,16.61,39.58c0,1.2-.05,2.39-.12,3.57A39.19,39.19,0,0,1,507,311a55.45,55.45,0,0,1-108.84,4.21,39.39,39.39,0,0,1-1.48-10.7c0-.59,0-1.17,0-1.75v-.08A55.38,55.38,0,0,1,419.24,258a4.39,4.39,0,0,0,.45-6.63L389,220.68h0l-36.5-36.5a4.19,4.19,0,0,0-1.46-1,4.39,4.39,0,0,0-4.78,1l-4.81,4.8L279,251.4a4.32,4.32,0,0,0-.92,1.39,4.36,4.36,0,0,0,1.38,5.24c.7.52,1.38,1.07,2.06,1.62a57.83,57.83,0,0,1,5.09,4.68A55.29,55.29,0,0,1,302,302.65v.08c0,.58,0,1.16,0,1.75a39.39,39.39,0,0,1-1.48,10.7,54.61,54.61,0,0,1-1.57,5.43A55.44,55.44,0,0,1,191.7,311a39.19,39.19,0,0,1-.5-4.75c0-.52-.06-1.05-.08-1.57s0-1.33,0-2a55.52,55.52,0,0,1,14.79-37.71c.59-.63,1.2-1.26,1.82-1.87a2.65,2.65,0,0,0,.21-.26,4.38,4.38,0,0,0,.82-4.32c-.08-.21-.16-.42-.26-.62a4.57,4.57,0,0,0-1-1.33l-55.67-48.31a4.31,4.31,0,0,0-2.61-1.09,4.44,4.44,0,0,0-4.61,5.36l11.67,53.78,23.23,107.13a345.93,345.93,0,0,1,5.83,36,344.91,344.91,0,0,1,2,36.79h-.56a14,14,0,0,0-12.47,7.65l-8.89,17.44a3,3,0,0,0,2.67,4.36H186.7v9.44a3,3,0,0,0,3,3H509a3,3,0,0,0,3-3v-9.44h18.71a3,3,0,0,0,3-3.22,3.06,3.06,0,0,0-.32-1.14l-3.57-7-5.32-10.44A14,14,0,0,0,512,446.2h-.61a345.28,345.28,0,0,1,7.85-72.79L554.16,212.5A4.41,4.41,0,0,0,547,208.23Z"/><path class="cls-2" d="M497.6,159l-55.67,48.31a4.46,4.46,0,0,0-.27,6.53,55.29,55.29,0,0,1,16.61,39.58c0,1.2,0,2.39-.12,3.57a39,39,0,0,1-.5,4.75,55.45,55.45,0,0,1-108.84,4.21,39.39,39.39,0,0,1-1.48-10.7c0-.58,0-1.17,0-1.75v-.08a55.37,55.37,0,0,1,22.52-44.61,4.4,4.4,0,0,0,.46-6.64l-67.23-67.22a4.4,4.4,0,0,0-6.24,0l-67.23,67.22a4.4,4.4,0,0,0,.46,6.64,55.37,55.37,0,0,1,22.52,44.61v.08c0,.58,0,1.17,0,1.75a39.39,39.39,0,0,1-1.48,10.7,55.45,55.45,0,0,1-108.84-4.21,39,39,0,0,1-.5-4.75c-.07-1.18-.12-2.37-.12-3.57a55.29,55.29,0,0,1,16.61-39.58,4.46,4.46,0,0,0-.27-6.53L102.4,159a4.43,4.43,0,0,0-7.22,4.28l34.9,160.91a345.38,345.38,0,0,1,7.85,73.23h0a4.41,4.41,0,0,0,4.3,4.41L300,405.9l157.77-4.11a4.41,4.41,0,0,0,4.3-4.41h0a345.38,345.38,0,0,1,7.85-73.23l34.9-160.91A4.43,4.43,0,0,0,497.6,159Z"/><path class="cls-3" d="M303.12,134.91a4.4,4.4,0,0,0-6.24,0l-67.23,67.22a4.4,4.4,0,0,0,.46,6.64,55.37,55.37,0,0,1,22.52,44.61v.08c0,.58,0,1.17,0,1.75a39.39,39.39,0,0,1-1.48,10.7,55.45,55.45,0,0,1-108.84-4.21,39.19,39.19,0,0,1-.5-4.75c-.07-1.18-.12-2.37-.12-3.57a55.29,55.29,0,0,1,16.61-39.58,4.46,4.46,0,0,0-.27-6.53L102.4,159a4.43,4.43,0,0,0-7.22,4.28l34.9,160.91a345.38,345.38,0,0,1,7.85,73.23,4.41,4.41,0,0,0,4.3,4.41l73.65,1.92,123.75-232.3Z"/><rect class="cls-4" x="279.32" y="186.74" width="41.36" height="41.36" rx="4.9" transform="translate(234.54 -151.38) rotate(45)"/><path class="cls-5" d="M325.78,204l-15.62-15.62L289.73,226.4l6.8,6.8a4.92,4.92,0,0,0,6.94,0l22.31-22.32A4.89,4.89,0,0,0,325.78,204Z"/><circle class="cls-6" cx="300" cy="329.94" r="23.81"/><path class="cls-7" d="M300,306.13A23.82,23.82,0,0,0,288.82,351l22.36-42.05A23.66,23.66,0,0,0,300,306.13Z"/><rect class="cls-8" x="137.35" y="413.94" width="325.3" height="24.88" rx="3"/><path class="cls-4" d="M481.34,426.39H118.66A3,3,0,0,1,116,422l8.88-17.44a14,14,0,0,1,12.48-7.65h325.3a14,14,0,0,1,12.48,7.65L484,422A3,3,0,0,1,481.34,426.39Z"/><path class="cls-9" d="M484,422l-8.88-17.44a14,14,0,0,0-12.48-7.65H307.83l-15.66,29.46H481.34A3,3,0,0,0,484,422Z"/><rect class="cls-10" width="600" height="600"/></svg>