<svg id="Contenido" xmlns="http://www.w3.org/2000/svg" xmlns:xlink="http://www.w3.org/1999/xlink" viewBox="0 0 600 600"><defs><style>.cls-1{fill:url(#Degradado_sin_nombre_74);}.cls-2{fill:#f8cd51;}.cls-3,.cls-4{opacity:0.5;isolation:isolate;}.cls-3{fill:url(#Degradado_sin_nombre_11);}.cls-4{fill:url(#Degradado_sin_nombre_11-2);}.cls-5{fill:#072146;}.cls-6{fill:#5bbeff;}.cls-7{fill:#1973b8;}.cls-8{fill:#028484;}.cls-15,.cls-9{fill:none;}.cls-9{stroke:#2dcccd;stroke-miterlimit:10;stroke-width:21.05px;}.cls-10{fill:#02a5a5;}.cls-11{fill:url(#Degradado_sin_nombre_109);}.cls-12{fill:url(#Degradado_sin_nombre_109-2);}.cls-13{fill:url(#Degradado_sin_nombre_6);}.cls-14{fill:url(#Degradado_sin_nombre_8);}</style><linearGradient id="Degradado_sin_nombre_74" x1="241" y1="183.75" x2="440.56" y2="559.06" gradientUnits="userSpaceOnUse"><stop offset="0" stop-color="#082146" stop-opacity="0.5"/><stop offset="1" stop-color="#082146" stop-opacity="0"/></linearGradient><linearGradient id="Degradado_sin_nombre_11" x1="203.25" y1="260.58" x2="217.96" y2="288.26" gradientUnits="userSpaceOnUse"><stop offset="0" stop-color="#fff"/><stop offset="1" stop-color="#eef7f8" stop-opacity="0.2"/><stop offset="1" stop-color="#fff" stop-opacity="0"/></linearGradient><linearGradient id="Degradado_sin_nombre_11-2" x1="367.43" y1="260.58" x2="382.15" y2="288.26" xlink:href="#Degradado_sin_nombre_11"/><linearGradient id="Degradado_sin_nombre_109" x1="337.41" y1="138.94" x2="377.17" y2="138.94" gradientUnits="userSpaceOnUse"><stop offset="0" stop-color="#043263" stop-opacity="0"/><stop offset="1" stop-color="#043263" stop-opacity="0.6"/></linearGradient><linearGradient id="Degradado_sin_nombre_109-2" x1="234.4" y1="285.53" x2="377.18" y2="285.53" xlink:href="#Degradado_sin_nombre_109"/><linearGradient id="Degradado_sin_nombre_6" x1="268.8" y1="488.39" x2="392.96" y2="488.39" gradientUnits="userSpaceOnUse"><stop offset="0" stop-color="#043263" stop-opacity="0.1"/><stop offset="1" stop-color="#043263" stop-opacity="0.3"/></linearGradient><linearGradient id="Degradado_sin_nombre_8" x1="295.44" y1="467.34" x2="340.34" y2="467.34" gradientUnits="userSpaceOnUse"><stop offset="0" stop-color="#043263" stop-opacity="0.1"/><stop offset="1" stop-color="#043263" stop-opacity="0.6"/></linearGradient></defs><path class="cls-1" d="M466.64,294.74h0a17.89,17.89,0,0,0-17.9,17.89v2.11H417.17V299h11.58a1,1,0,0,0,1.05-1.05V279a1,1,0,0,0-1.05-1.05H417.17v-21h11.58a1,1,0,0,0,1.05-1.05V236.86a1.06,1.06,0,0,0-1.05-1.06H417.17V214.75h11.56a1.05,1.05,0,0,0,1.06-1.06,78.93,78.93,0,0,0-78.92-77.87h0a78.93,78.93,0,0,0-78.93,77.86,1.06,1.06,0,0,0,1.06,1.07h11.56V235.8H273a1.06,1.06,0,0,0-1.05,1.06V255.8a1,1,0,0,0,1.05,1.05h11.58v21H273a1,1,0,0,0-1.05,1.05V297.9A1,1,0,0,0,273,299h11.58v15.79H253v-2.11a17.89,17.89,0,0,0-17.89-17.89h0a17.89,17.89,0,0,0-17.9,17.89v40a1.06,1.06,0,0,0,1.06,1.05h6.31v10.59c0,65.51,51,119.42,115.77,124.74V514.7h-21a10.53,10.53,0,0,0-10.52,10.53H281.4a25.25,25.25,0,0,0-25.25,25.26v5.26a1,1,0,0,0,1.05,1H444.53a1.06,1.06,0,0,0,1.06-1v-5.26a25.26,25.26,0,0,0-25.26-25.26H393a10.53,10.53,0,0,0-10.52-10.53H361.39V489c64.73-5.32,115.77-59.23,115.77-124.74V353.68h6.31a1.05,1.05,0,0,0,1.06-1.05v-40A17.89,17.89,0,0,0,466.64,294.74Zm-10.53,69.53c0,57.42-47.21,104.13-105.24,104.13S245.62,421.69,245.62,364.27V353.68h6.32a1,1,0,0,0,1.05-1.05v-6.32h31.57V362.1H273a1.06,1.06,0,0,0-1.06,1.07A78.93,78.93,0,0,0,350.87,441h0a78.93,78.93,0,0,0,78.92-77.86,1.06,1.06,0,0,0-1.06-1.07H417.17V346.31h31.57v6.32a1.05,1.05,0,0,0,1.06,1.05h6.31Z"/><rect class="cls-2" x="200.37" y="262.12" width="31.57" height="31.57"/><polygon class="cls-3" points="200.37 262.12 200.37 293.69 207.76 293.69 224.55 262.12 200.37 262.12"/><rect class="cls-2" x="364.55" y="262.12" width="31.57" height="31.57"/><polygon class="cls-4" points="364.55 262.12 364.55 293.69 371.94 293.69 388.73 262.12 364.55 262.12"/><rect class="cls-5" x="231.94" y="143.71" width="132.61" height="184.18"/><path class="cls-6" d="M228.78,472.61H367.7A25.26,25.26,0,0,1,393,497.86v5.26a1.05,1.05,0,0,1-1.05,1.05H204.57a1.05,1.05,0,0,1-1.05-1.05v-5.26a25.26,25.26,0,0,1,25.26-25.26Z"/><path class="cls-7" d="M266.67,462.08h63.15a10.52,10.52,0,0,1,10.52,10.52v0a0,0,0,0,1,0,0h-84.2a0,0,0,0,1,0,0v0a10.52,10.52,0,0,1,10.52-10.52Z"/><rect class="cls-8" x="287.72" y="419.98" width="21.05" height="42.1"/><path class="cls-9" d="M182.47,262.12v49.53c0,63.32,51.84,114.65,115.77,114.65S414,375,414,311.65V262.12"/><path class="cls-10" d="M190,246h0a17,17,0,0,1,17,17v38a1,1,0,0,1-1,1H174a1,1,0,0,1-1-1V263a17,17,0,0,1,17-17Z"/><path class="cls-10" d="M414,242.12h0A17.89,17.89,0,0,1,431.9,260v40a1.05,1.05,0,0,1-1.05,1.05H397.17a1.05,1.05,0,0,1-1.05-1.05V260A17.89,17.89,0,0,1,414,242.12Z"/><path class="cls-7" d="M330.18,162.13h45.93a1.06,1.06,0,0,0,1.06-1.07A78.93,78.93,0,0,0,298.24,83.2h0a78.93,78.93,0,0,0-78.92,77.86,1.06,1.06,0,0,0,1.06,1.07h45.93A10.76,10.76,0,0,1,277.17,172a10.52,10.52,0,0,1-10.5,11.22H220.36a1,1,0,0,0-1.05,1v19a1,1,0,0,0,1.05,1h45.95a10.76,10.76,0,0,1,10.86,9.82,10.53,10.53,0,0,1-10.5,11.23H220.36a1,1,0,0,0-1.05,1.05v18.95a1,1,0,0,0,1.05,1.05h45.95a10.76,10.76,0,0,1,10.86,9.82,10.53,10.53,0,0,1-10.5,11.23H220.36a1,1,0,0,0-1.05,1.05v18.94a1.05,1.05,0,0,0,1.05,1.06h45.95a10.76,10.76,0,0,1,10.86,9.82,10.53,10.53,0,0,1-10.5,11.23H220.38a1.06,1.06,0,0,0-1.06,1.07,78.93,78.93,0,0,0,78.92,77.86h0a78.93,78.93,0,0,0,78.93-77.86,1.06,1.06,0,0,0-1.06-1.07H330.18a10.77,10.77,0,0,1-10.87-9.83,10.53,10.53,0,0,1,10.51-11.22h46.3a1.05,1.05,0,0,0,1.06-1.06V268.43a1.05,1.05,0,0,0-1.06-1.05H330.18a10.77,10.77,0,0,1-10.87-9.83,10.53,10.53,0,0,1,10.51-11.22h46.3a1.05,1.05,0,0,0,1.06-1.05V226.33a1.05,1.05,0,0,0-1.06-1.05H330.18a10.77,10.77,0,0,1-10.87-9.82,10.54,10.54,0,0,1,10.51-11.23h46.3a1.05,1.05,0,0,0,1.06-1v-19a1.05,1.05,0,0,0-1.06-1h-46.3A10.53,10.53,0,0,1,319.31,172,10.77,10.77,0,0,1,330.18,162.13Z"/><path class="cls-11" d="M376.11,162.13a1.06,1.06,0,0,0,1.06-1.07,78.48,78.48,0,0,0-15.09-45.32l-24.67,46.39h38.7Z"/><path class="cls-12" d="M329.82,204.23h46.3a1.05,1.05,0,0,0,1.06-1v-19a1.05,1.05,0,0,0-1.06-1h-46.3a10.62,10.62,0,0,1-3.31-.53l-56.58,106.4a10.47,10.47,0,0,1-3.26,20.43h-7.6L234.4,355.87a78.92,78.92,0,0,0,142.77-45.32,1.06,1.06,0,0,0-1.06-1.07H330.18a10.77,10.77,0,0,1-10.87-9.83,10.53,10.53,0,0,1,10.51-11.22h46.3a1.05,1.05,0,0,0,1.06-1.06V268.43a1.05,1.05,0,0,0-1.06-1.05H330.18a10.77,10.77,0,0,1-10.87-9.83,10.53,10.53,0,0,1,10.51-11.22h46.3a1.05,1.05,0,0,0,1.06-1.05V226.33a1.05,1.05,0,0,0-1.06-1.05H330.18a10.77,10.77,0,0,1-10.87-9.82A10.54,10.54,0,0,1,329.82,204.23Z"/><path class="cls-13" d="M367.7,472.61H285.59L268.8,504.18H391.91a1,1,0,0,0,1-1.05v-5.27A25.25,25.25,0,0,0,367.7,472.61Z"/><path class="cls-14" d="M329.82,462.08H301l-5.6,10.53h44.9A10.52,10.52,0,0,0,329.82,462.08Z"/><rect class="cls-15" width="600" height="600"/></svg>