<svg id="Contenido" xmlns="http://www.w3.org/2000/svg" xmlns:xlink="http://www.w3.org/1999/xlink" viewBox="0 0 600 600"><defs><style>.cls-1{fill:url(#Degradado_sin_nombre_74);}.cls-2{fill:#043263;}.cls-3{fill:#004481;}.cls-4{fill:#2dcccd;}.cls-5{fill:url(#Degradado_sin_nombre_7);}.cls-6{fill:url(#Degradado_sin_nombre_109);}.cls-7{fill:#d4edfc;}.cls-8{fill:#072146;}.cls-9{fill:#fade8e;}.cls-10{fill:#f8cd51;}.cls-11{fill:url(#Degradado_sin_nombre_2);}.cls-12{fill:none;}</style><linearGradient id="Degradado_sin_nombre_74" x1="252.67" y1="233.53" x2="405.44" y2="520.84" gradientUnits="userSpaceOnUse"><stop offset="0" stop-color="#082146" stop-opacity="0.5"/><stop offset="1" stop-color="#082146" stop-opacity="0"/></linearGradient><linearGradient id="Degradado_sin_nombre_7" x1="177.19" y1="360" x2="482.83" y2="360" gradientUnits="userSpaceOnUse"><stop offset="0" stop-color="#028484" stop-opacity="0.1"/><stop offset="1" stop-color="#028484" stop-opacity="0.7"/></linearGradient><linearGradient id="Degradado_sin_nombre_109" x1="252.83" y1="242.54" x2="342.83" y2="242.54" gradientUnits="userSpaceOnUse"><stop offset="0" stop-color="#043263" stop-opacity="0"/><stop offset="1" stop-color="#043263" stop-opacity="0.6"/></linearGradient><linearGradient id="Degradado_sin_nombre_2" x1="265.32" y1="-1474.88" x2="306.25" y2="-1515.81" gradientTransform="matrix(1, 0, 0, -1, 0, -1198)" gradientUnits="userSpaceOnUse"><stop offset="0.01" stop-color="#edf8f9" stop-opacity="0.5"/><stop offset="1" stop-color="#edf8f9" stop-opacity="0.1"/><stop offset="1" stop-color="#ebf6f7" stop-opacity="0.2"/></linearGradient></defs><path class="cls-1" d="M532.83,431.08v-30c0-.35,0-.69-.05-1a10,10,0,0,0-1.16-3.75,10,10,0,0,0-2.43-2.95c-.25-.2-.5-.39-.77-.57a9.93,9.93,0,0,0-3.58-1.51,10.23,10.23,0,0,0-2-.2,175.21,175.21,0,0,0-5.23-42.57h0c-1.3-5.23-2.85-10.36-4.61-15.39l-.12-.34q-2.65-7.51-6-14.71l0-.08c-.7-1.53-1.43-3-2.17-4.54l-.22-.43c-.76-1.52-1.53-3-2.33-4.52h0q-2.47-4.64-5.24-9.1l-.19-.31q-1.24-2-2.54-4c-.11-.18-.23-.36-.35-.53q-1.36-2.07-2.78-4.09l0-.06q-3-4.24-6.22-8.29l-.35-.44q-1.41-1.76-2.87-3.48c-.15-.19-.31-.37-.46-.55-1.08-1.26-2.16-2.51-3.27-3.74v-.86a18.17,18.17,0,0,0-5.26-12.72,174.86,174.86,0,0,0-79.74-46.42v-3.46a6,6,0,0,0-4.66-5.85c-1.35-.31-2.7-.6-4.06-.87l-1.85-.37-1.74-.32c-1.77-.33-3.56-.63-5.35-.9h0a181.18,181.18,0,0,0-67.68,2.46,6,6,0,0,0-4.66,5.85v3.46a174.86,174.86,0,0,0-79.74,46.42,18.13,18.13,0,0,0-5.26,12.72v.86q-1.67,1.85-3.27,3.74c-.16.18-.31.36-.46.55q-1.46,1.72-2.87,3.48l-.36.44q-3.23,4-6.21,8.29l0,.06q-1.43,2-2.79,4.09l-.35.53c-.86,1.31-1.71,2.63-2.53,4l-.2.31q-2.75,4.47-5.24,9.1h0q-1.2,2.24-2.33,4.52c-.08.14-.15.29-.22.43-.74,1.5-1.47,3-2.17,4.54l0,.08q-3.3,7.19-6,14.71l-.12.34q-2.65,7.54-4.62,15.39h0a175.7,175.7,0,0,0-5.22,42.57,10,10,0,0,0-10,10v30a5,5,0,0,0-5,5v12.57a3,3,0,0,0,2.38,2.93l2.21.47a900,900,0,0,0,370.82,0l2.21-.47a3,3,0,0,0,2.38-2.93V436.08A5,5,0,0,0,532.83,431.08Z"/><path class="cls-2" d="M167.83,332h260V222a18.17,18.17,0,0,0-5.26-12.72,175,175,0,0,0-249.48,0A18.13,18.13,0,0,0,167.83,222Z"/><path class="cls-2" d="M297.83,165a175,175,0,0,0-175,175h350A175,175,0,0,0,297.83,165Z"/><path class="cls-3" d="M342.83,334V159.39a6,6,0,0,0-4.66-5.85,181.49,181.49,0,0,0-80.68,0,6,6,0,0,0-4.66,5.85V334Z"/><path class="cls-4" d="M122.83,340h350a10,10,0,0,1,10,10v30a0,0,0,0,1,0,0h-370a0,0,0,0,1,0,0V350A10,10,0,0,1,122.83,340Z"/><path class="cls-5" d="M482.83,350a10,10,0,0,0-10-10H198.46l-21.27,40H482.83Z"/><path class="cls-2" d="M485.45,400.5l-2.21.47a900,900,0,0,1-370.82,0l-2.21-.47a3,3,0,0,1-2.38-2.93V385a5,5,0,0,1,5-5h370a5,5,0,0,1,5,5v12.57A3,3,0,0,1,485.45,400.5Z"/><path class="cls-6" d="M338.17,153.54c-4.28-1-8.61-1.79-13-2.46l-72.34,136V334h90V159.39A6,6,0,0,0,338.17,153.54Z"/><circle class="cls-7" cx="297.83" cy="308" r="60"/><path class="cls-8" d="M427.83,222.85V301l15.68-58A176.38,176.38,0,0,0,427.83,222.85Z"/><path class="cls-8" d="M167.83,222.85V301l-15.69-58A176.47,176.47,0,0,1,167.83,222.85Z"/><circle class="cls-9" cx="297.83" cy="308" r="45"/><circle class="cls-10" cx="297.83" cy="308" r="34.26"/><circle class="cls-9" cx="297.83" cy="308" r="10"/><path class="cls-11" d="M297.83,263a45,45,0,0,0-21.38,84.61L319,268.27A44.81,44.81,0,0,0,297.83,263Z"/><rect class="cls-12" width="600" height="600"/></svg>