<svg xmlns="http://www.w3.org/2000/svg" xmlns:xlink="http://www.w3.org/1999/xlink" viewBox="0 0 600 600"><defs><style>.cls-1{fill:none;}.cls-2{fill:url(#Degradado_sin_nombre_122);}.cls-3{fill:#043263;}.cls-4{fill:#f8cd50;}.cls-5{fill:url(#Degradado_sin_nombre_119);}.cls-6{fill:url(#Degradado_sin_nombre_121);}.cls-7{fill:#49a5e6;}</style><linearGradient id="Degradado_sin_nombre_122" x1="272.93" y1="-5856.65" x2="410.15" y2="-6114.73" gradientTransform="matrix(1, 0, 0, -1, 0, -5644)" gradientUnits="userSpaceOnUse"><stop offset="0" stop-color="#192647" stop-opacity="0.5"/><stop offset="1" stop-color="#192647" stop-opacity="0"/></linearGradient><linearGradient id="Degradado_sin_nombre_119" x1="452.14" y1="-5922.98" x2="257.55" y2="-5922.98" gradientTransform="matrix(1, 0, 0, -1, 0, -5644)" gradientUnits="userSpaceOnUse"><stop offset="0" stop-color="#072146"/><stop offset="1" stop-color="#072146" stop-opacity="0"/></linearGradient><linearGradient id="Degradado_sin_nombre_121" x1="421.85" y1="-6059.97" x2="243.36" y2="-6059.97" gradientTransform="matrix(1, 0, 0, -1, 0, -5644)" gradientUnits="userSpaceOnUse"><stop offset="0" stop-color="#c49735"/><stop offset="1" stop-color="#c49735" stop-opacity="0"/></linearGradient></defs><title>16</title><g id="Cuadrados_Blancos" data-name="Cuadrados Blancos"><rect class="cls-1" width="600" height="600"/></g><g id="Capa_4" data-name="Capa 4"><path class="cls-2" d="M456.32,312.84a117.43,117.43,0,0,0-13.21-31.9L461,255c-5.3-8.4-6.49-11.27-13.79-18.6l-.34-.34c-7.33-7.31-10.2-8.49-18.6-13.8l-25.94,17.86a118,118,0,0,0-31.9-13.22l-5.72-31c-9.69-2.19-12.56-3.39-22.9-3.4h-.49c-10.34,0-13.21,1.21-22.9,3.4l-5.72,31a118,118,0,0,0-31.9,13.22l-25.94-17.86c-8.4,5.31-11.27,6.49-18.6,13.8l-.34.34c-7.31,7.33-8.49,10.2-13.79,18.6L240,280.94a117.59,117.59,0,0,0-13.22,31.9l-31,5.71c-2.19,9.69-3.38,12.56-3.4,22.91v.48c0,10.35,1.21,13.22,3.4,22.91l31,5.72A118,118,0,0,0,240,402.47L222.09,428.4c5.3,8.4,6.48,11.28,13.79,18.6l.34.35c7.33,7.3,10.2,8.48,18.6,13.79l25.94-17.85c1.7,1,3.46,1.93,5.21,2.87h0q2.8,1.48,5.7,2.83l1.41.64c1.66.75,3.33,1.47,5,2.14,1,.41,2.07.78,3.12,1.17,1.28.46,2.56.94,3.86,1.37,2.49.81,5,1.55,7.56,2.19l5.72,31c9.69,2.18,12.56,3.38,22.9,3.4h.49c10.34,0,13.21-1.22,22.9-3.4l5.72-31a117.43,117.43,0,0,0,31.9-13.21l25.94,17.85c8.4-5.31,11.27-6.49,18.6-13.79l.34-.35c7.3-7.32,8.49-10.2,13.79-18.6l-17.85-25.93a117.43,117.43,0,0,0,13.21-31.9l31-5.72c2.18-9.69,3.38-12.56,3.4-22.91v-.48c0-10.35-1.22-13.22-3.4-22.91Z"/><path class="cls-3" d="M403.61,361.92a119.5,119.5,0,0,0,13.49-32.53l31.57-5.82c2.23-9.9,3.45-12.81,3.47-23.36v-.5c0-10.55-1.24-13.47-3.47-23.36l-31.57-5.83A119.5,119.5,0,0,0,403.61,238l18.21-26.46c-5.41-8.56-6.62-11.49-14.06-19l-.35-.35c-7.48-7.44-10.41-8.65-19-14.06L362,196.33a119.62,119.62,0,0,0-32.49-13.41l-5.83-31.58c-9.89-2.23-12.81-3.45-23.36-3.47h-.5c-10.55,0-13.47,1.24-23.36,3.47l-5.83,31.58a120.21,120.21,0,0,0-32.53,13.47l-26.46-18.2c-8.56,5.42-11.49,6.62-19,14.06l-.35.36c-7.44,7.47-8.65,10.41-14.06,19l18.21,26.46a119.16,119.16,0,0,0-13.48,32.53l-31.58,5.82c-2.23,9.9-3.45,12.81-3.47,23.36v.5c0,10.55,1.24,13.47,3.47,23.36l31.58,5.83a119.36,119.36,0,0,0,13.51,32.45l-12.3,17.87h231.8Z"/><path class="cls-4" d="M184.12,379.83l-5.86,8.59c5.41,8.56,6.62,11.49,14.06,19l.35.36c7.48,7.44,10.41,8.64,19,14.05l26.45-18.2a120,120,0,0,0,32.53,13.48l5.83,31.58c9.78,2.23,12.78,3.41,23.29,3.44h.5c10.55,0,13.47-1.24,23.35-3.47l5.83-31.58A119.79,119.79,0,0,0,362,403.6l26.46,18.21c8.56-5.42,11.49-6.62,19-14.06l.35-.36c7.44-7.48,8.65-10.41,14.06-19l-5.91-8.58Z"/><path class="cls-5" d="M403.61,361.92a119.5,119.5,0,0,0,13.49-32.53l31.57-5.82c2.23-9.9,3.45-12.81,3.47-23.36v-.5c0-10.55-1.24-13.47-3.47-23.36l-31.57-5.83A119.5,119.5,0,0,0,403.61,238l18.21-26.46c-5.41-8.56-6.62-11.49-14.06-19l-.35-.35c-7.48-7.44-10.41-8.65-19-14.06L362,196.33c-1.73-1-3.52-2-5.31-2.93L257.55,379.83H415.92Z"/><path class="cls-6" d="M257.55,379.83l-14.19,26.7a120.21,120.21,0,0,0,27.22,10.54l5.82,31.58c9.86,2.27,12.86,3.45,23.37,3.48h.5c10.55,0,13.47-1.24,23.35-3.47l5.83-31.58A119.79,119.79,0,0,0,362,403.6l26.46,18.21c8.56-5.42,11.49-6.62,19-14.06l.35-.36c7.44-7.48,8.65-10.41,14.06-19l-5.91-8.58Z"/><circle class="cls-7" cx="300.02" cy="300" r="52.91"/></g></svg>