<svg id="Contenido" xmlns="http://www.w3.org/2000/svg" xmlns:xlink="http://www.w3.org/1999/xlink" viewBox="0 0 600 600"><defs><style>.cls-1{fill:url(#Degradado_sin_nombre_10);}.cls-2{fill:#1464a5;}.cls-3{fill:#f8cd50;}.cls-4{fill:url(#Degradado_sin_nombre_23);}.cls-5{fill:url(#Degradado_sin_nombre_9);}.cls-6{fill:#49a5e6;}</style><linearGradient id="Degradado_sin_nombre_10" x1="277.85" y1="200.53" x2="417.82" y2="463.76" gradientUnits="userSpaceOnUse"><stop offset="0" stop-color="#192647"/><stop offset="0" stop-color="#192647" stop-opacity="0.5"/><stop offset="1" stop-color="#192647" stop-opacity="0"/></linearGradient><linearGradient id="Degradado_sin_nombre_23" x1="454.89" y1="266.08" x2="260.3" y2="266.08" gradientUnits="userSpaceOnUse"><stop offset="0" stop-color="#043263" stop-opacity="0.3"/><stop offset="1" stop-color="#043263" stop-opacity="0.1"/></linearGradient><linearGradient id="Degradado_sin_nombre_9" x1="424.57" y1="403.05" x2="246.1" y2="403.05" gradientUnits="userSpaceOnUse"><stop offset="0" stop-color="#c49735" stop-opacity="0.3"/><stop offset="1" stop-color="#c49735" stop-opacity="0.1"/></linearGradient></defs><title>self_driven</title><path class="cls-1" d="M195.71,332.39c0,10.55,1.23,13.48,3.46,23.36l31.58,5.83a120.23,120.23,0,0,0,13.48,32.54L231.93,412,226,420.57c5.41,8.57,6.62,11.5,14.07,19l.35.35c7.47,7.45,10.4,8.66,19,14.07l26.45-18.21c1.74,1,3.53,2,5.32,2.93h0q2.85,1.51,5.81,2.88l1.43.66c1.7.76,3.41,1.5,5.14,2.18,1.06.42,2.13.8,3.19,1.19,1.31.47,2.61,1,3.94,1.4,2.53.82,5.1,1.58,7.71,2.24l5.83,31.58c9.88,2.23,12.81,3.45,23.36,3.46h.49c10.55,0,13.48-1.23,23.36-3.46l5.83-31.58a120.23,120.23,0,0,0,32.54-13.48L436.26,454c8.57-5.41,11.5-6.62,19-14.07l.35-.35c7.45-7.47,8.66-10.4,14.07-19L463.74,412l-12.3-17.86a119.92,119.92,0,0,0,13.48-32.54l31.58-5.83c2.23-9.88,3.45-12.81,3.46-23.36v-.49c0-10.55-1.23-13.48-3.46-23.36l-31.58-5.83a119.92,119.92,0,0,0-13.48-32.54l18.21-26.45c-5.41-8.57-6.62-11.5-14.07-19l-.35-.35c-7.47-7.45-10.4-8.66-19-14.07l-26.45,18.21c-1.73-1-3.53-2-5.31-2.93h0a120.24,120.24,0,0,0-27.23-10.55l-5.83-31.58c-9.88-2.23-12.81-3.45-23.36-3.46h-.49c-10.55,0-13.48,1.23-23.36,3.46l-5.83,31.58a119.92,119.92,0,0,0-32.54,13.48l-26.45-18.21c-8.57,5.41-11.5,6.62-19,14.07l-.35.35c-7.45,7.47-8.66,10.4-14.07,19l18.21,26.45a120.23,120.23,0,0,0-13.48,32.54l-31.58,5.83c-2.23,9.88-3.45,12.81-3.46,23.36Z"/><path class="cls-2" d="M406.36,349a119.72,119.72,0,0,0,13.48-32.53l31.58-5.83c2.23-9.89,3.45-12.81,3.47-23.36v-.5c0-10.55-1.24-13.47-3.47-23.36l-31.58-5.83a119.72,119.72,0,0,0-13.48-32.53l18.21-26.46c-5.41-8.56-6.62-11.49-14.06-19l-.35-.35c-7.48-7.44-10.41-8.65-19-14.06l-26.46,18.21A119.72,119.72,0,0,0,332.2,170l-5.83-31.58c-9.89-2.23-12.81-3.45-23.36-3.47h-.5c-10.55,0-13.47,1.24-23.36,3.47L273.32,170a120,120,0,0,0-32.53,13.47l-26.46-18.2c-8.56,5.41-11.49,6.62-19,14.06l-.35.35c-7.44,7.48-8.65,10.41-14.06,19l18.21,26.46a119.72,119.72,0,0,0-13.48,32.53l-31.58,5.83c-2.23,9.89-3.45,12.81-3.47,23.36v.5c0,10.55,1.24,13.47,3.47,23.36l31.58,5.83A119.72,119.72,0,0,0,199.16,349l-12.3,17.87h231.8Z"/><path class="cls-3" d="M186.86,366.91,181,375.5c5.41,8.56,6.62,11.49,14.06,19l.35.35c7.48,7.44,10.41,8.65,19,14.06l26.46-18.21a119.72,119.72,0,0,0,32.53,13.48l5.83,31.58C289,438,292,439.18,302.51,439.2h.5c10.55,0,13.47-1.24,23.36-3.47l5.83-31.58a119.72,119.72,0,0,0,32.53-13.48l26.46,18.21c8.56-5.41,11.49-6.62,19-14.06l.35-.35c7.44-7.48,8.65-10.41,14.06-19l-5.91-8.59Z"/><path class="cls-4" d="M406.36,349a119.72,119.72,0,0,0,13.48-32.53l31.58-5.83c2.23-9.89,3.45-12.81,3.47-23.36v-.5c0-10.55-1.24-13.47-3.47-23.36l-31.58-5.83a119.72,119.72,0,0,0-13.48-32.53l18.21-26.46c-5.41-8.56-6.62-11.49-14.06-19l-.35-.35c-7.48-7.44-10.41-8.65-19-14.06l-26.46,18.21c-1.73-1-3.52-2-5.31-2.93L260.3,366.91H418.66Z"/><path class="cls-5" d="M260.3,366.91,246.1,393.6a120.17,120.17,0,0,0,27.22,10.55l5.83,31.58C289,438,292,439.18,302.51,439.2h.5c10.55,0,13.47-1.24,23.36-3.47l5.83-31.58a119.72,119.72,0,0,0,32.53-13.48l26.46,18.21c8.56-5.41,11.49-6.62,19-14.06l.35-.35c7.44-7.48,8.65-10.41,14.06-19l-5.91-8.59Z"/><circle class="cls-6" cx="302.76" cy="287.07" r="52.91"/></svg>