<svg id="Capa_1" data-name="Capa 1" xmlns="http://www.w3.org/2000/svg" xmlns:xlink="http://www.w3.org/1999/xlink" viewBox="0 0 600 600"><defs><style>.cls-1{fill:url(#Degradado_sin_nombre_4);}.cls-2{fill:#1464a5;}.cls-3{fill:#49a5e6;}.cls-4{fill-rule:evenodd;opacity:0.5;isolation:isolate;fill:url(#Degradado_sin_nombre_3);}.cls-5{fill:#fff;}.cls-6{fill:#ffcc28;}</style><linearGradient id="Degradado_sin_nombre_4" x1="255.08" y1="128.92" x2="464.12" y2="522.08" gradientTransform="translate(0 2)" gradientUnits="userSpaceOnUse"><stop offset="0" stop-color="#192647"/><stop offset="0" stop-color="#192647" stop-opacity="0.5"/><stop offset="1" stop-color="#192647" stop-opacity="0"/></linearGradient><linearGradient id="Degradado_sin_nombre_3" x1="222.46" y1="192.71" x2="376.72" y2="346.97" gradientTransform="translate(0 2)" gradientUnits="userSpaceOnUse"><stop offset="0" stop-color="#fff" stop-opacity="0.5"/><stop offset="1" stop-color="#ecf7f8" stop-opacity="0.1"/></linearGradient></defs><title>_</title><path class="cls-1" d="M268.3,126.8H450.9a21.89,21.89,0,0,1,21.9,21.9V506.3a21.89,21.89,0,0,1-21.9,21.9H268.3a21.89,21.89,0,0,1-21.9-21.9V148.7A21.89,21.89,0,0,1,268.3,126.8Z"/><path class="cls-2" d="M214,75.8H398.9A22.13,22.13,0,0,1,421,98V460a22.11,22.11,0,0,1-22.1,22.1H214A22.11,22.11,0,0,1,191.9,460V98A22.13,22.13,0,0,1,214,75.8Z"/><rect class="cls-3" x="191.9" y="126.8" width="229.2" height="304.3"/><polygon class="cls-4" points="192.2 127 192.2 430.9 309 431.1 421 224.1 421 126.8 192.2 127"/><path class="cls-5" d="M338.3,346.6l-12.4,23.6a.71.71,0,0,1-1,.3l-.3-.3-12.4-23.6a.82.82,0,0,0-.6-.4h-6a.47.47,0,0,0-.5.5.37.37,0,0,0,.1.3l19.6,36.6a.69.69,0,0,0,1,.3l.3-.3L345.7,347a.57.57,0,0,0-.2-.7.35.35,0,0,1-.2-.1h-6c-.6,0-.9.2-1,.4"/><path class="cls-5" d="M345.4,378.2l12.4-23.6a.71.71,0,0,1,1-.3l.3.3,12.4,23.6a.82.82,0,0,0,.6.4h6a.56.56,0,0,0,.5-.6c0-.1,0-.2-.1-.2l-19.6-36.6a.69.69,0,0,0-1-.3l-.3.3L338,377.8a.57.57,0,0,0,.2.7c.1,0,.2.1.3.1h6a1.1,1.1,0,0,0,.9-.4"/><path class="cls-5" d="M252.4,378.5H241.2a.68.68,0,0,1-.7-.7h0v-10a.68.68,0,0,1,.7-.7h11.2c5.3,0,7.7,1.5,7.7,5.8s-2.3,5.7-7.7,5.6m-11.2-26.8h11c4.1,0,6.1,1.7,6.1,5s-2.1,5-6.1,5h-11a.68.68,0,0,1-.7-.7h0v-8.5a.77.77,0,0,1,.7-.8h0m19.3,12a8.11,8.11,0,0,0,4.2-7.6c0-5.9-4.6-9.9-11.1-9.9H235a.68.68,0,0,0-.7.7v36.4a.68.68,0,0,0,.7.7h17.8c8.9,0,13.6-3.8,13.6-11.3a9.08,9.08,0,0,0-5.9-9"/><path class="cls-5" d="M290.6,378.5H279.4a.68.68,0,0,1-.7-.7h0v-10a.68.68,0,0,1,.7-.7h11.2c5.3,0,7.7,1.5,7.7,5.8s-2.3,5.7-7.7,5.6m-11.2-26.8h11c4.1,0,6.1,1.7,6.1,5s-2.1,5-6.1,5h-11a.68.68,0,0,1-.7-.7h0v-8.5a.77.77,0,0,1,.7-.8h0m19.3,12a8.11,8.11,0,0,0,4.2-7.6c0-5.9-4.6-9.9-11.1-9.9H273.2a.68.68,0,0,0-.7.7h0v36.4a.68.68,0,0,0,.7.7H291c8.9,0,13.6-3.8,13.6-11.3a9.08,9.08,0,0,0-5.9-9"/><circle class="cls-2" cx="306.45" cy="214.27" r="29.84"/><path class="cls-2" d="M280.67,251.37h51.57a24.71,24.71,0,0,1,24.71,24.71v21.85a2.07,2.07,0,0,1-2.07,2.07H258a2.07,2.07,0,0,1-2.07-2.07V276.08A24.71,24.71,0,0,1,280.67,251.37Z"/><path class="cls-6" d="M269.35,198.89a3.44,3.44,0,0,1-3.45-3.45V177.17a3.44,3.44,0,0,1,3.45-3.45h18.27a3.45,3.45,0,1,1,0,6.9H272.8v14.82A3.44,3.44,0,0,1,269.35,198.89Z"/><path class="cls-6" d="M343.55,198.89a3.44,3.44,0,0,1-3.45-3.45V180.62H325.28a3.45,3.45,0,1,1,0-6.9h18.27a3.44,3.44,0,0,1,3.45,3.45v18.27A3.44,3.44,0,0,1,343.55,198.89Z"/><path class="cls-6" d="M343.55,254.82H325.28a3.46,3.46,0,1,1,0-6.91H340.1V233.1a3.45,3.45,0,1,1,6.9,0v18.27A3.45,3.45,0,0,1,343.55,254.82Z"/><path class="cls-6" d="M287.62,254.82H269.35a3.45,3.45,0,0,1-3.45-3.45V233.1a3.45,3.45,0,1,1,6.9,0v14.81h14.82a3.46,3.46,0,1,1,0,6.91Z"/></svg>