<?xml version="1.0" encoding="utf-8"?>
<!-- Generator: Adobe Illustrator 23.0.1, SVG Export Plug-In . SVG Version: 6.00 Build 0)  -->
<svg version="1.1" id="Contenido" xmlns="http://www.w3.org/2000/svg" xmlns:xlink="http://www.w3.org/1999/xlink" x="0px" y="0px"
	 viewBox="0 0 600 600" style="enable-background:new 0 0 600 600;" xml:space="preserve">
<style type="text/css">
	.st0{fill:url(#SVGID_1_);}
	.st1{fill:#1464A5;}
	.st2{fill:#49A5E6;}
	.st3{opacity:0.5;fill-rule:evenodd;clip-rule:evenodd;fill:url(#SVGID_2_);enable-background:new    ;}
	.st4{fill:#FFFFFF;}
	.st5{fill:#D4EDFC;}
	.st6{fill:url(#SVGID_3_);}
	.st7{fill-rule:evenodd;clip-rule:evenodd;fill:#004481;}
</style>
<title>GLOMO</title>
<linearGradient id="SVGID_1_" gradientUnits="userSpaceOnUse" x1="243.3147" y1="450.9555" x2="452.1053" y2="58.2845" gradientTransform="matrix(1 0 0 -1 0 602)">
	<stop  offset="0" style="stop-color:#192647"/>
	<stop  offset="0" style="stop-color:#192647;stop-opacity:0.5"/>
	<stop  offset="1" style="stop-color:#192647;stop-opacity:0"/>
</linearGradient>
<path class="st0" d="M256.5,146.9h182.4c12.1,0,21.9,9.8,21.9,21.9V526c0,12.1-9.8,21.8-21.9,21.8H256.5c-12.1,0-21.9-9.8-21.9-21.8
	V168.8C234.7,156.7,244.4,146.9,256.5,146.9z"/>
<path class="st1" d="M208.8,96.8h182.4c12.1,0,21.9,9.8,21.9,21.8v357.2c0,12.1-9.8,21.9-21.9,21.9H208.8
	c-12.1,0-21.9-9.8-21.9-21.9V118.6C186.9,106.5,196.7,96.8,208.8,96.8z"/>
<rect x="186.9" y="147.1" class="st2" width="226.1" height="300.2"/>
<linearGradient id="SVGID_2_" gradientUnits="userSpaceOnUse" x1="212.7475" y1="392.3075" x2="351.1575" y2="253.8975" gradientTransform="matrix(1 0 0 -1 0 602)">
	<stop  offset="0" style="stop-color:#FFFFFF;stop-opacity:0.5"/>
	<stop  offset="1" style="stop-color:#ECF7F8;stop-opacity:0.1"/>
</linearGradient>
<polygon class="st3" points="187.3,147.3 187.3,447.1 265,447.1 413,173.8 413,147.1 "/>
<path class="st4" d="M337,278.6l-14.5,27.5c-0.2,0.4-0.7,0.6-1.2,0.3c-0.1-0.1-0.3-0.2-0.3-0.3l-14.5-27.5c-0.1-0.3-0.4-0.5-0.8-0.5
	h-7c-0.3,0-0.6,0.3-0.6,0.6c0,0.1,0,0.2,0.1,0.3l22.8,42.6c0.2,0.4,0.7,0.6,1.1,0.3c0.1-0.1,0.3-0.2,0.3-0.3l22.8-42.6
	c0.2-0.3,0.1-0.7-0.3-0.9c-0.1,0-0.2-0.1-0.3-0.1h-7C337.4,278.2,337.1,278.3,337,278.6"/>
<path class="st4" d="M345.2,315.3l14.5-27.5c0.2-0.4,0.8-0.6,1.2-0.3c0.1,0.1,0.3,0.2,0.3,0.3l14.5,27.5c0.1,0.3,0.4,0.4,0.7,0.5h7
	c0.3,0,0.6-0.3,0.6-0.6c0-0.1,0-0.2-0.1-0.3l-22.8-42.6c-0.2-0.4-0.7-0.6-1.1-0.3c-0.1,0.1-0.3,0.2-0.3,0.3l-22.8,42.6
	c-0.2,0.3-0.1,0.7,0.2,0.8c0.1,0.1,0.2,0.1,0.3,0.1h7C344.8,315.8,345.1,315.6,345.2,315.3"/>
<path class="st4" d="M237.1,315.8h-13c-0.5,0-0.8-0.4-0.8-0.8c0,0,0,0,0,0v-11.7c0-0.5,0.4-0.8,0.8-0.8c0,0,0,0,0,0h13
	c6.2,0,9,1.8,9,6.7S243.4,315.8,237.1,315.8 M224.1,284.5H237c4.7,0,7.1,2,7.1,5.8s-2.4,5.8-7.1,5.8h-12.9c-0.5,0-0.8-0.4-0.8-0.8
	v-9.9C223.2,284.9,223.6,284.5,224.1,284.5 M246.5,298.5c3-1.5,4.9-4.8,4.9-8.8c0-6.9-5.3-11.5-12.9-11.5h-21.7
	c-0.5,0-0.8,0.4-0.8,0.8v42.3c0,0.5,0.4,0.8,0.8,0.8h20.7c10.4,0,15.8-4.5,15.8-13.2C253.4,300.4,246.5,298.5,246.5,298.5"/>
<path class="st4" d="M281.5,315.8h-13c-0.5,0-0.8-0.4-0.8-0.8v-11.7c0-0.5,0.4-0.8,0.8-0.8h13c6.2,0,9,1.8,9,6.7
	S287.8,315.8,281.5,315.8 M268.5,284.5h12.9c4.7,0,7.1,2,7.1,5.8s-2.4,5.8-7.1,5.8h-12.9c-0.5,0-0.8-0.4-0.8-0.8v-9.9
	C267.7,284.9,268.1,284.5,268.5,284.5 M290.9,298.5c3-1.5,4.9-4.8,4.9-8.8c0-6.9-5.3-11.5-12.9-11.5h-21.7c-0.5,0-0.8,0.4-0.8,0.8
	v42.3c0,0.5,0.4,0.8,0.8,0.8H282c10.4,0,15.8-4.5,15.8-13.2C297.8,300.4,290.9,298.5,290.9,298.5"/>
<path class="st5" d="M294,67.7H148.8c-7.1,0-12.8,5.7-12.8,12.8v102.3c0,7.1,5.7,12.8,12.8,12.8h129.8L304,221
	c0.6,0.7,1.7,0.7,2.4,0c0.3-0.3,0.5-0.7,0.5-1.2v-9.4v-130C306.9,73.4,301.1,67.7,294,67.7C294.1,67.7,294.1,67.7,294,67.7z"/>
<linearGradient id="SVGID_3_" gradientUnits="userSpaceOnUse" x1="306.85" y1="457.4059" x2="172.62" y2="457.4059" gradientTransform="matrix(1 0 0 -1 0 602)">
	<stop  offset="0" style="stop-color:#49A5E6;stop-opacity:0.2"/>
	<stop  offset="1" style="stop-color:#49A5E6;stop-opacity:0"/>
</linearGradient>
<path class="st6" d="M294,67.7h-31.4l-90,127.9h106L304,221c0.7,0.7,1.7,0.7,2.4,0c0.3-0.3,0.5-0.7,0.5-1.2V80.5
	C306.9,73.4,301.1,67.7,294,67.7C294,67.7,294,67.7,294,67.7z"/>
<path class="st7" d="M220,145c7.8,0,14.2-6.3,14.2-14.2s-6.3-14.2-14.2-14.2c-7.8,0-14.2,6.3-14.2,14.2c0,0,0,0,0,0
	C205.8,138.6,212.2,145,220,145C220,145,220,145,220,145z M253.2,138.2l-8.1,1.2c-0.5,1.3-1,2.6-1.7,3.9l5,6.2
	c-2.7,4.1-6.2,7.6-10.4,10.2l-6.2-5.1c-1.1,0.6-2.3,1.1-3.5,1.5l-1.3,8.1c-4.8,1-9.8,1-14.7-0.1l-0.9-8c-1.2-0.4-2.3-0.8-3.4-1.4
	l-6.5,4.9c-4.2-2.6-7.7-6.1-10.4-10.3l4.9-6.5c-0.6-1.2-1.1-2.3-1.5-3.6l-8-0.9c-0.6-2.5-0.8-5-0.8-7.6c0-2.3,0.2-4.7,0.7-6.9l8-1.1
	c0.4-1.4,1-2.7,1.7-4l-5-6.3c2.6-4,5.9-7.4,9.9-10l6.6,4.8c1.3-0.7,2.6-1.2,4-1.7l0.8-8c2.4-0.5,5-0.8,7.5-0.8c2.5,0,5,0.3,7.5,0.8
	l1,8c1.2,0.4,2.4,0.9,3.6,1.5l6.4-4.9c4.2,2.7,7.7,6.3,10.4,10.5l-5,6.4c0.6,1.2,1.1,2.5,1.5,3.7l8,1c0.5,2.3,0.7,4.6,0.7,7
	C254.1,133.3,253.8,135.8,253.2,138.2L253.2,138.2z"/>
</svg>
