<svg id="Capa_1" data-name="Capa 1" xmlns="http://www.w3.org/2000/svg" xmlns:xlink="http://www.w3.org/1999/xlink" viewBox="0 0 600 600"><defs><style>.cls-1{fill:url(#Degradado_sin_nombre);}.cls-2{fill:#004481;}.cls-3{fill:url(#Degradado_sin_nombre_2);}.cls-4{fill:#043263;}.cls-5{fill:#2dcccd;}.cls-6{fill:url(#Degradado_sin_nombre_5);}.cls-7{fill:#d4edfc;}.cls-8{fill:#49a5e6;}.cls-9{fill:url(#Degradado_sin_nombre_15);}.cls-10{fill:url(#Degradado_sin_nombre_15-2);}.cls-11{fill:url(#Degradado_sin_nombre_15-3);}.cls-12{opacity:0.5;isolation:isolate;fill:url(#Degradado_sin_nombre_16);}.cls-13{fill:none;}</style><linearGradient id="Degradado_sin_nombre" x1="222.09" y1="524.17" x2="472.29" y2="53.61" gradientTransform="matrix(1, 0, 0, -1, 0, 600)" gradientUnits="userSpaceOnUse"><stop offset="0" stop-color="#192647" stop-opacity="0.5"/><stop offset="1" stop-color="#192647" stop-opacity="0"/></linearGradient><linearGradient id="Degradado_sin_nombre_2" x1="429.93" y1="-1415.04" x2="140.69" y2="-1415.04" gradientTransform="matrix(1, 0, 0, -1, 0, -1202.84)" gradientUnits="userSpaceOnUse"><stop offset="0" stop-color="#043263" stop-opacity="0.8"/><stop offset="1" stop-color="#043263" stop-opacity="0"/></linearGradient><linearGradient id="Degradado_sin_nombre_5" x1="159.26" y1="126.6" x2="140.7" y2="126.6" gradientTransform="translate(0 2)" gradientUnits="userSpaceOnUse"><stop offset="0.02" stop-color="#028484" stop-opacity="0.4"/><stop offset="1" stop-color="#028484" stop-opacity="0.1"/></linearGradient><linearGradient id="Degradado_sin_nombre_15" x1="201.41" y1="126.53" x2="182.86" y2="126.53" gradientTransform="translate(0 2)" gradientUnits="userSpaceOnUse"><stop offset="0" stop-color="#072146" stop-opacity="0.5"/><stop offset="1" stop-color="#072146" stop-opacity="0"/></linearGradient><linearGradient id="Degradado_sin_nombre_15-2" x1="243.57" y1="126.6" x2="225.01" y2="126.6" xlink:href="#Degradado_sin_nombre_15"/><linearGradient id="Degradado_sin_nombre_15-3" x1="285.7" y1="126.6" x2="267.15" y2="126.6" xlink:href="#Degradado_sin_nombre_15"/><linearGradient id="Degradado_sin_nombre_16" x1="282.6" y1="-131.46" x2="413.08" y2="-261.94" gradientTransform="matrix(1, 0, 0, -1, 0, 122)" gradientUnits="userSpaceOnUse"><stop offset="0" stop-color="#fff" stop-opacity="0.5"/><stop offset="1" stop-color="#ecf7f8" stop-opacity="0.1"/></linearGradient></defs><path class="cls-1" d="M500.72,227.68h-.08V203.36A18.65,18.65,0,0,0,482,184.68H361.49v-53.3a10.07,10.07,0,0,0-9.72-10H324.3l-.11.2H169.27a10.12,10.12,0,0,0-10.12,10.12V355.94a10.12,10.12,0,0,0,10.12,10.12h22l116.17.26V508.6a18.64,18.64,0,0,0,18.63,18.63H482a18.64,18.64,0,0,0,18.64-18.63V484.23h.08Z"/><rect class="cls-2" x="108.67" y="89.9" width="202.34" height="244.5" rx="10.12"/><path class="cls-3" d="M311,321.38V100.1a10.07,10.07,0,0,0-9.72-10.4H273.83l-133.14,245h157A13.29,13.29,0,0,0,311,321.45Z"/><circle class="cls-4" cx="188.77" cy="127.84" r="12.65"/><circle class="cls-4" cx="230.92" cy="127.84" r="12.65"/><circle class="cls-5" cx="146.61" cy="127.84" r="12.65"/><path class="cls-6" d="M152.52,116.72,140.72,139a12.58,12.58,0,1,0,11.8-22.23Z"/><path class="cls-7" d="M235.68,273.42l-5.9-3.22a.85.85,0,0,1-.34-1.13,90.77,90.77,0,0,0,0-84.84.85.85,0,0,1,.34-1.13l5.9-3.22a.85.85,0,0,1,1.14.33h0a99.23,99.23,0,0,1,0,92.84.86.86,0,0,1-1.14.36Z"/><path class="cls-7" d="M216.64,264.33l-5.9-3.31a.83.83,0,0,1-.32-1.13h0a69.64,69.64,0,0,0,0-66.48.85.85,0,0,1,.32-1.14l5.9-3.3a.85.85,0,0,1,1.15.31h0a78.1,78.1,0,0,1,0,74.7.84.84,0,0,1-1.14.34h0Z"/><path class="cls-7" d="M197.53,255.26l-5.8-3.45a.85.85,0,0,1-.3-1.14,48.43,48.43,0,0,0,0-48.06.84.84,0,0,1,.3-1.13l5.8-3.45a.84.84,0,0,1,1.16.27h0a56.93,56.93,0,0,1,0,56.62.84.84,0,0,1-1.14.33Z"/><path class="cls-7" d="M178.29,246.25l-5.58-3.78a.85.85,0,0,1-.23-1.16,27.42,27.42,0,0,0,0-29.36.84.84,0,0,1,.22-1.15l5.58-3.79a.86.86,0,0,1,1.18.21h0a35.83,35.83,0,0,1,0,38.78.84.84,0,0,1-1.16.26Z"/><circle class="cls-4" cx="273.09" cy="127.84" r="12.65"/><path class="cls-4" d="M275.64,153H431.53a18.65,18.65,0,0,1,18.63,18.67h0V476.94a18.64,18.64,0,0,1-18.63,18.63H275.64A18.64,18.64,0,0,1,257,476.94V171.73A18.65,18.65,0,0,1,275.57,153h.07Z"/><rect class="cls-8" x="257.01" y="196.02" width="193.24" height="256.56"/><path class="cls-9" d="M194.68,116.72,182.87,139a12.59,12.59,0,0,0,11.81-22.23Z"/><path class="cls-10" d="M236.83,116.72,225,139a12.58,12.58,0,0,0,11.8-22.23Z"/><path class="cls-11" d="M279,116.72,267.18,139A12.61,12.61,0,1,0,279,116.72Z"/><polygon class="cls-12" points="257.01 196.19 257.01 453.24 355.8 453.41 450.54 278.32 450.54 196.02 257.01 196.19"/><rect class="cls-13" width="600" height="600"/></svg>