<svg xmlns="http://www.w3.org/2000/svg" xmlns:xlink="http://www.w3.org/1999/xlink" viewBox="0 0 600 600"><defs><style>.cls-1{fill:none;}.cls-11,.cls-2{fill-rule:evenodd;}.cls-2{fill:url(#Degradado_sin_nombre_7);}.cls-3{fill:#123161;}.cls-4{fill:#02a5a5;}.cls-5{fill:#028484;}.cls-6{fill:#0e2045;}.cls-7{fill:#56e2de;}.cls-8{fill:#2dcccd;}.cls-9{fill:#043263;}.cls-10{fill:#49a5e6;}.cls-11{opacity:0.5;isolation:isolate;fill:url(#Degradado_sin_nombre_35);}</style><linearGradient id="Degradado_sin_nombre_7" x1="266.18" y1="146.94" x2="477.3" y2="544" gradientTransform="translate(0 2)" gradientUnits="userSpaceOnUse"><stop offset="0" stop-color="#192647" stop-opacity="0.5"/><stop offset="1" stop-color="#192647" stop-opacity="0"/></linearGradient><linearGradient id="Degradado_sin_nombre_35" x1="241.16" y1="336.2" x2="334.56" y2="429.61" gradientTransform="translate(0 2)" gradientUnits="userSpaceOnUse"><stop offset="0" stop-color="#fff" stop-opacity="0.5"/><stop offset="1" stop-color="#ebf4f5" stop-opacity="0.1"/></linearGradient></defs><title>13</title><g id="Cuadrados_Blancos" data-name="Cuadrados Blancos"><rect class="cls-1" width="600" height="600"/></g><g id="Capa_49" data-name="Capa 49"><path class="cls-2" d="M529.8,247.8h0c-9.2-51.2-83.6-112.9-174.8-115.1v-13a5,5,0,1,0-10,0v12.9c-91.2,2.2-165.6,63.9-174.8,115l-.1.1h.1c0,.1-.1.3-.1.4l.4-.3c38.1,11.9,48.9,15.5,81.5,35.2,32.7-2.2,61.9.5,92.9,7.4v19.7H288.6a14.72,14.72,0,0,0-14.7,14.7V564.5a14.72,14.72,0,0,0,14.7,14.7H411.2a14.72,14.72,0,0,0,14.7-14.7V325a14.72,14.72,0,0,0-14.7-14.7H355V290.5c31.1-6.9,60.3-9.6,93-7.4,32.6-19.7,43.4-23.4,81.5-35.2l.4.3C529.9,248.1,529.8,247.9,529.8,247.8Z"/><path class="cls-3" d="M300,102.8a5,5,0,0,1-5-5V72a5,5,0,0,1,10,0V97.8A5,5,0,0,1,300,102.8Z"/><path class="cls-4" d="M120.1,200c38.5,12,49.2,15.6,81.9,35.4l97.9-137C235.6,109.3,176.4,147.1,120.1,200Z"/><path class="cls-4" d="M479.9,200c-38.5,12-49.2,15.6-81.9,35.4l-98-137C364.4,109.3,423.6,147.1,479.9,200Z"/><path class="cls-5" d="M300,243.9V98.4c-43,42.7-77.3,87.8-98,137C236.5,233.1,267,236.1,300,243.9Z"/><path class="cls-5" d="M300,98.4V243.9c33-7.8,63.5-10.8,98-8.5C374.6,186.5,341,141.1,300,98.4Z"/><rect class="cls-6" x="295" y="142.6" width="10" height="224.4"/><path class="cls-7" d="M300,84.8c-93.8,0-171,63.5-179.9,115.7,23.9-17.2,53.8-27.3,89.9-27.6h0Q226.65,120.1,300,84.8Z"/><path class="cls-7" d="M300,84.8c93.8,0,171,63.5,179.9,115.7-23.9-17.2-53.8-27.3-89.9-27.6h0Q373.35,120.1,300,84.8Z"/><path class="cls-8" d="M300,84.8q-73.35,35.25-89.9,88c36-10.3,58.8-12.4,89.9-7.1,31.2-5.3,53.9-3.2,90,7.1Q373.35,120.15,300,84.8Z"/><path class="cls-9" d="M238.7,262.5H361.3A14.72,14.72,0,0,1,376,277.2V516.8a14.72,14.72,0,0,1-14.7,14.7H238.7A14.72,14.72,0,0,1,224,516.8V277.2A14.72,14.72,0,0,1,238.7,262.5Z"/><rect class="cls-10" x="224" y="296.1" width="152" height="201.9"/><polygon class="cls-11" points="224 296.1 224 498 276.9 498 376 314 376 296.1 224 296.1"/></g></svg>