<svg id="Contenido" xmlns="http://www.w3.org/2000/svg" xmlns:xlink="http://www.w3.org/1999/xlink" viewBox="0 0 600 600"><defs><style>.cls-1{fill:url(#Degradado_sin_nombre_7);}.cls-2{fill:#1464a5;}.cls-3{fill:#49a5e6;}.cls-4{fill-rule:evenodd;opacity:0.5;fill:url(#Degradado_sin_nombre_50);}.cls-5{fill:#fff;}.cls-6{fill:#07467f;}.cls-7{fill:#f7cb5b;}</style><linearGradient id="Degradado_sin_nombre_7" x1="241.47" y1="151" x2="453.09" y2="548.99" gradientUnits="userSpaceOnUse"><stop offset="0" stop-color="#192647"/><stop offset="0" stop-color="#192647" stop-opacity="0.5"/><stop offset="1" stop-color="#192647" stop-opacity="0"/></linearGradient><linearGradient id="Degradado_sin_nombre_50" x1="215.46" y1="214.7" x2="369.72" y2="368.96" gradientUnits="userSpaceOnUse"><stop offset="0" stop-color="#fff" stop-opacity="0.5"/><stop offset="1" stop-color="#ecf7f8" stop-opacity="0.1"/></linearGradient></defs><title>GLOMO</title><rect class="cls-1" x="232.7" y="146.83" width="229.16" height="406.33" rx="22.15"/><rect class="cls-2" x="184.87" y="95.79" width="229.16" height="406.33" rx="22.15"/><rect class="cls-3" x="184.87" y="146.82" width="229.16" height="304.26"/><polygon class="cls-4" points="185.22 147.01 185.22 450.9 301.95 451.08 414.03 244.13 414.03 146.83 185.22 147.01"/><path class="cls-5" d="M331.3,366.61l-12.42,23.64a.75.75,0,0,1-1.31,0l-12.43-23.65a.73.73,0,0,0-.64-.39h-6a.54.54,0,0,0-.47.8l19.57,36.63a.73.73,0,0,0,1.27,0L338.43,367a.55.55,0,0,0-.48-.8h-6a.71.71,0,0,0-.63.39"/><path class="cls-5" d="M338.35,398.16l12.42-23.64a.75.75,0,0,1,1.31,0l12.43,23.65a.71.71,0,0,0,.64.39h6a.55.55,0,0,0,.48-.8l-19.57-36.63a.73.73,0,0,0-1.27,0l-19.57,36.63a.54.54,0,0,0,.47.8h6a.73.73,0,0,0,.64-.39"/><path class="cls-5" d="M245.43,398.55h-11.2a.72.72,0,0,1-.72-.72v-10a.73.73,0,0,1,.72-.73h11.2c5.34,0,7.72,1.52,7.72,5.75s-2.33,5.74-7.72,5.74m-11.19-26.86h11c4.07,0,6.14,1.74,6.14,4.95s-2.06,4.95-6.14,4.95h-11a.72.72,0,0,1-.72-.72v-8.46a.72.72,0,0,1,.72-.72m19.22,12a8.13,8.13,0,0,0,4.22-7.56c0-5.89-4.59-9.89-11.07-9.89H228a.73.73,0,0,0-.73.72v36.37a.73.73,0,0,0,.73.72h17.8c8.91,0,13.61-3.84,13.61-11.34,0-7.33-5.94-9-5.94-9"/><path class="cls-5" d="M283.63,398.55h-11.2a.72.72,0,0,1-.72-.72v-10a.73.73,0,0,1,.72-.73h11.2c5.34,0,7.72,1.52,7.72,5.75s-2.33,5.74-7.72,5.74m-11.19-26.86h11c4.07,0,6.14,1.74,6.14,4.95s-2.06,4.95-6.14,4.95h-11a.72.72,0,0,1-.72-.72v-8.46a.72.72,0,0,1,.72-.72m19.22,12a8.15,8.15,0,0,0,4.21-7.56c0-5.89-4.59-9.89-11.07-9.89H266.18a.72.72,0,0,0-.72.72v36.37a.73.73,0,0,0,.72.72H284c8.91,0,13.61-3.84,13.61-11.34,0-7.33-5.94-9-5.94-9"/><circle class="cls-6" cx="299.45" cy="256.59" r="66.5"/><path class="cls-7" d="M328,269a5.07,5.07,0,0,1-5.07-5.08V246a23.47,23.47,0,0,0-23.47-23.47h0A23.46,23.46,0,0,0,276,246V264A5.08,5.08,0,0,1,270.9,269h0v4.41a2.88,2.88,0,0,0,2.89,2.88H325.1a2.88,2.88,0,0,0,2.89-2.88V269Z"/><path class="cls-7" d="M308.75,281.15a9.31,9.31,0,1,1-18.61,0Z"/><rect class="cls-7" x="296.62" y="216.95" width="5.66" height="16.61" rx="2.83"/></svg>