<?xml version="1.0" encoding="utf-8"?>
<!-- Generator: Adobe Illustrator 23.0.1, SVG Export Plug-In . SVG Version: 6.00 Build 0)  -->
<svg version="1.1" id="Capa_1" xmlns="http://www.w3.org/2000/svg" xmlns:xlink="http://www.w3.org/1999/xlink" x="0px" y="0px"
	 viewBox="0 0 600 600" style="enable-background:new 0 0 600 600;" xml:space="preserve">
<style type="text/css">
	.st0{fill:url(#SVGID_1_);}
	.st1{fill:url(#SVGID_2_);}
	.st2{fill:url(#SVGID_3_);}
	.st3{fill:#1464A5;}
	.st4{fill:#2DCCCD;}
	.st5{fill:#F8CD51;}
	.st6{fill:url(#SVGID_4_);}
	.st7{fill:#FEF5DC;}
</style>
<title>Mesa de trabajo 1 copia 31</title>
<g>
	<g>
		<g>
			
				<linearGradient id="SVGID_1_" gradientUnits="userSpaceOnUse" x1="-51.9736" y1="1204.4514" x2="326.1264" y2="493.3615" gradientTransform="matrix(1 0 0 -1 0 1102)">
				<stop  offset="0" style="stop-color:#192647"/>
				<stop  offset="0" style="stop-color:#192647;stop-opacity:0.5"/>
				<stop  offset="1" style="stop-color:#192647;stop-opacity:0"/>
			</linearGradient>
			<path class="st0" d="M167.7,234.6h66c1.7,0,3,1.3,3,3v270.3c0,1.7-1.3,3-3,3h-66c-1.7,0-3-1.3-3-3V237.6
				C164.7,235.9,166.1,234.6,167.7,234.6z"/>
			
				<linearGradient id="SVGID_2_" gradientUnits="userSpaceOnUse" x1="52.4164" y1="1252.1572" x2="429.8764" y2="542.2574" gradientTransform="matrix(1 0 0 -1 0 1102)">
				<stop  offset="0" style="stop-color:#192647"/>
				<stop  offset="0" style="stop-color:#192647;stop-opacity:0.5"/>
				<stop  offset="1" style="stop-color:#192647;stop-opacity:0"/>
			</linearGradient>
			<path class="st1" d="M285.7,190.4h66c1.7,0,3,1.3,3,3v314.5c0,1.7-1.3,3-3,3h-66c-1.7,0-3-1.3-3-3V193.4
				C282.7,191.7,284,190.4,285.7,190.4z"/>
			
				<linearGradient id="SVGID_3_" gradientUnits="userSpaceOnUse" x1="174.8964" y1="1309.361" x2="551.7164" y2="600.6709" gradientTransform="matrix(1 0 0 -1 0 1102)">
				<stop  offset="0" style="stop-color:#192647"/>
				<stop  offset="0" style="stop-color:#192647;stop-opacity:0.5"/>
				<stop  offset="1" style="stop-color:#192647;stop-opacity:0"/>
			</linearGradient>
			<path class="st2" d="M522.8,178.9L522.8,178.9c-0.7-0.4-1.4-0.7-2.1-1.1l-1.3-0.6l-1.5-0.7l-1.8-0.8c-0.5-0.2-1.1-0.4-1.7-0.7
				l-1.2-0.5c-0.8-0.3-1.6-0.6-2.5-0.8l-1.1-0.3c-0.7-0.2-1.4-0.4-2.1-0.6l-0.9-0.2c-0.9-0.2-1.9-0.4-2.8-0.6l-0.9-0.2
				c-1-0.2-2-0.4-2.9-0.5l-0.6-0.1c-0.9-0.1-1.8-0.2-2.8-0.4l-0.7-0.1c-1-0.1-2.1-0.2-3.1-0.2h-0.7c-1.1-0.1-2.2-0.1-3.3-0.1
				c-5.9,0-11.8,0.7-17.5,2.1v-39.1c0-1.7-1.3-3-3-3h-66.1c-1.7,0-3,1.3-3,3v374.4c0,1.7,1.3,3,3,3h66.1c1.7,0,3-1.3,3-3V313
				c38.8,9.6,78-14.1,87.6-52.9C566.8,228,552,194.6,522.8,178.9L522.8,178.9z"/>
		</g>
		<path class="st3" d="M116.7,184.6h66c1.7,0,3,1.3,3,3v270.3c0,1.7-1.3,3-3,3h-66c-1.7,0-3-1.3-3-3V187.6
			C113.7,185.9,115.1,184.6,116.7,184.6z"/>
		<path class="st4" d="M234.7,140.4h66c1.7,0,3,1.3,3,3v314.5c0,1.7-1.3,3-3,3h-66c-1.7,0-3-1.3-3-3V143.4
			C231.7,141.7,233,140.4,234.7,140.4z"/>
		<path class="st3" d="M351.3,80.5h66c1.7,0,3,1.3,3,3v374.4c0,1.7-1.3,3-3,3h-66c-1.7,0-3-1.3-3-3V83.5
			C348.3,81.8,349.6,80.5,351.3,80.5z"/>
		<g>
			<path class="st5" d="M510.1,192.8c0,40-32.4,72.3-72.4,72.3s-72.3-32.4-72.3-72.4s32.4-72.3,72.4-72.3l0,0
				C477.8,120.4,510.1,152.8,510.1,192.8"/>
			
				<linearGradient id="SVGID_4_" gradientUnits="userSpaceOnUse" x1="377.631" y1="941.1516" x2="437.5764" y2="909.2849" gradientTransform="matrix(1 0 0 -1 0 1102)">
				<stop  offset="0" style="stop-color:#FADE8E"/>
				<stop  offset="1" style="stop-color:#FADE8E;stop-opacity:0.4"/>
			</linearGradient>
			<path class="st6" d="M471.6,128.9c-35.3-18.8-79.1-5.4-97.8,29.9c-18.8,35.3-5.4,79.1,29.9,97.8L471.6,128.9z"/>
			<g>
				<path class="st7" d="M412.4,190.1h-9.9v-7.5h10.7c3-16.7,13.4-24.4,25.5-24.4c12.7,0,19.5,6.5,22.9,14.8l-9.4,5.3
					c-2.3-6.9-6.4-10.4-13.4-10.4c-7.4,0-12.7,4.8-14.7,14.7h16.7v7.5h-17.6v2.3c0,1.3,0,2.6,0.1,3.9h17.5v7.6h-16.6
					c1.9,9.2,6.5,14,14.7,14c6.9,0,11.2-3.2,13.8-10.8l9.2,5.5c-3.8,8.6-11.5,14.9-23,14.9c-12.5,0-22.4-7.4-25.5-23.5h-10.9v-7.6
					h10c-0.1-1.2-0.1-2.4-0.1-3.7L412.4,190.1L412.4,190.1z"/>
			</g>
		</g>
	</g>
</g>
</svg>
