<?xml version="1.0" encoding="utf-8"?>
<!-- Generator: Adobe Illustrator 23.0.1, SVG Export Plug-In . SVG Version: 6.00 Build 0)  -->
<svg version="1.1" id="Capa_1" xmlns="http://www.w3.org/2000/svg" xmlns:xlink="http://www.w3.org/1999/xlink" x="0px" y="0px"
	 viewBox="0 0 600 600" style="enable-background:new 0 0 600 600;" xml:space="preserve">
<style type="text/css">
	.st0{fill:url(#SVGID_1_);}
	.st1{fill:url(#SVGID_2_);}
	.st2{fill:url(#SVGID_3_);}
	.st3{fill:#1464A5;}
	.st4{fill:#2DCCCD;}
	.st5{fill:#F8CD50;}
	.st6{fill:url(#SVGID_4_);}
	.st7{fill:#FEF5DC;}
</style>
<title>Mesa de trabajo 1 copia 31</title>
<g>
	<g>
		<g>
			
				<linearGradient id="SVGID_1_" gradientUnits="userSpaceOnUse" x1="-51.9736" y1="297.5485" x2="326.1264" y2="1008.6385" gradientTransform="matrix(1 0 0 1 0 -400)">
				<stop  offset="0" style="stop-color:#192647"/>
				<stop  offset="0" style="stop-color:#192647;stop-opacity:0.5"/>
				<stop  offset="1" style="stop-color:#192647;stop-opacity:0"/>
			</linearGradient>
			<path class="st0" d="M167.7,234.6h66c1.7,0,3,1.3,3,3v270.3c0,1.7-1.3,3-3,3h-66c-1.7,0-3-1.3-3-3V237.6
				C164.7,235.9,166.1,234.6,167.7,234.6z"/>
			
				<linearGradient id="SVGID_2_" gradientUnits="userSpaceOnUse" x1="52.4164" y1="249.8427" x2="429.8764" y2="959.7426" gradientTransform="matrix(1 0 0 1 0 -400)">
				<stop  offset="0" style="stop-color:#192647"/>
				<stop  offset="0" style="stop-color:#192647;stop-opacity:0.5"/>
				<stop  offset="1" style="stop-color:#192647;stop-opacity:0"/>
			</linearGradient>
			<path class="st1" d="M285.7,190.4h66c1.7,0,3,1.3,3,3v314.5c0,1.7-1.3,3-3,3h-66c-1.7,0-3-1.3-3-3V193.4
				C282.7,191.7,284,190.4,285.7,190.4z"/>
			
				<linearGradient id="SVGID_3_" gradientUnits="userSpaceOnUse" x1="174.8964" y1="192.6391" x2="551.7164" y2="901.3291" gradientTransform="matrix(1 0 0 1 0 -400)">
				<stop  offset="0" style="stop-color:#192647"/>
				<stop  offset="0" style="stop-color:#192647;stop-opacity:0.5"/>
				<stop  offset="1" style="stop-color:#192647;stop-opacity:0"/>
			</linearGradient>
			<path class="st2" d="M522.8,178.9L522.8,178.9c-0.7-0.4-1.4-0.7-2.1-1.1l-1.3-0.6l-1.5-0.7l-1.8-0.8c-0.5-0.2-1.1-0.4-1.7-0.7
				l-1.2-0.5c-0.8-0.3-1.6-0.6-2.5-0.8l-1.1-0.3c-0.7-0.2-1.4-0.4-2.1-0.6l-0.9-0.2c-0.9-0.2-1.9-0.4-2.8-0.6l-0.9-0.2
				c-1-0.2-2-0.4-2.9-0.5l-0.6-0.1c-0.9-0.1-1.8-0.2-2.8-0.4l-0.7-0.1c-1-0.1-2.1-0.2-3.1-0.2h-0.7c-1.1-0.1-2.2-0.1-3.3-0.1
				c-5.9,0-11.8,0.7-17.5,2.1v-39.1c0-1.7-1.3-3-3-3h-66.1c-1.7,0-3,1.3-3,3v374.4c0,1.7,1.3,3,3,3h66.1c1.7,0,3-1.3,3-3V313
				c38.8,9.6,78-14.1,87.6-52.9C566.8,228,552,194.6,522.8,178.9L522.8,178.9z"/>
		</g>
		<path class="st3" d="M116.7,184.6h66c1.7,0,3,1.3,3,3v270.3c0,1.7-1.3,3-3,3h-66c-1.7,0-3-1.3-3-3V187.6
			C113.7,185.9,115.1,184.6,116.7,184.6z"/>
		<path class="st4" d="M234.7,140.4h66c1.7,0,3,1.3,3,3v314.5c0,1.7-1.3,3-3,3h-66c-1.7,0-3-1.3-3-3V143.4
			C231.7,141.7,233,140.4,234.7,140.4z"/>
		<path class="st3" d="M351.3,80.5h66c1.7,0,3,1.3,3,3v374.4c0,1.7-1.3,3-3,3h-66c-1.7,0-3-1.3-3-3V83.5
			C348.3,81.8,349.6,80.5,351.3,80.5z"/>
		<path class="st5" d="M510.1,192.8c0,40-32.4,72.3-72.3,72.3s-72.3-32.4-72.3-72.3s32.4-72.3,72.3-72.3l0,0
			C477.7,120.4,510.1,152.8,510.1,192.8"/>
		
			<linearGradient id="SVGID_4_" gradientUnits="userSpaceOnUse" x1="377.8374" y1="560.8561" x2="437.7774" y2="592.7361" gradientTransform="matrix(1 0 0 1 0 -400)">
			<stop  offset="0" style="stop-color:#FADE8E"/>
			<stop  offset="1" style="stop-color:#FADE8E;stop-opacity:0.4"/>
		</linearGradient>
		<path class="st6" d="M471.8,128.9c-35.1-19.1-79-6.1-98.1,29s-6.1,79,29,98.1c0.4,0.2,0.8,0.4,1.1,0.6L471.8,128.9z"/>
		<path class="st7" d="M446.3,207c0-4.8-1.9-6.7-10.9-10.8c-13-5.9-16.9-10.4-16.9-19.5c0-8.9,7.3-15.4,14.7-17.3v-11h0.4l10.7,4.7
			v6.1c3.4,0.5,6.6,1.6,9.6,3.3l0.5,0.3l0.4,0.2l-0.1,0.4l-0.1,0.6l-1.4,8.4l-0.3,1.6l-0.2,1.1l-0.9-0.6l-1.3-1
			c-3.4-2.7-7.6-4.2-12-4.2c-5.6,0-8.6,2.5-8.6,6.7c0,4,2,5.8,10.8,9.9c13.1,5.9,17.2,10.7,17.2,20.4c0,9-6.3,15.7-13.7,18V237h-0.9
			l-10.2-5.7v-6.2c-3.7-0.5-10.3-1.9-14.5-4.1l-0.6-0.3l-0.4-0.2v-0.4l0.1-0.7l1.2-8.6l0.2-1.5l0.1-1l0.8,0.6l1.2,0.8
			c4.5,3.1,9.9,4.8,15.4,5C442.5,214.7,446.3,211.8,446.3,207"/>
	</g>
</g>
</svg>
