<svg xmlns="http://www.w3.org/2000/svg" xmlns:xlink="http://www.w3.org/1999/xlink" viewBox="0 0 600 600"><defs><style>.cls-1{fill:none;}.cls-2{fill:url(#Degradado_sin_nombre_8);}.cls-3{fill:url(#Degradado_sin_nombre_8-2);}.cls-4{fill:url(#Degradado_sin_nombre_8-3);}.cls-5{fill:#1464a5;}.cls-6{fill:#2dcccd;}.cls-7{fill:#f8cd50;}.cls-8{fill:url(#Degradado_sin_nombre_6);}.cls-9{fill:#fef5dc;}</style><linearGradient id="Degradado_sin_nombre_8" x1="53.28" y1="43.2" x2="388.66" y2="673.94" gradientUnits="userSpaceOnUse"><stop offset="0" stop-color="#192647" stop-opacity="0.5"/><stop offset="1" stop-color="#192647" stop-opacity="0"/></linearGradient><linearGradient id="Degradado_sin_nombre_8-2" x1="124.92" y1="-28.68" x2="458.63" y2="598.95" xlink:href="#Degradado_sin_nombre_8"/><linearGradient id="Degradado_sin_nombre_8-3" x1="221.65" y1="-119.43" x2="556.78" y2="510.86" xlink:href="#Degradado_sin_nombre_8"/><linearGradient id="Degradado_sin_nombre_6" x1="378.44" y1="2665.14" x2="438.38" y2="2633.26" gradientTransform="matrix(1, 0, 0, -1, 0, 2826)" gradientUnits="userSpaceOnUse"><stop offset="0" stop-color="#fade8e"/><stop offset="1" stop-color="#fade8e" stop-opacity="0.4"/></linearGradient></defs><title>3</title><g id="Cuadrados_blancos" data-name="Cuadrados blancos"><rect class="cls-1" width="600" height="600"/></g><g id="Capa_3" data-name="Capa 3"><path class="cls-2" d="M233.7,130h-66c-1.6,0-3,1.79-3,4.14V506.76c0,2.35,1.3,4.14,3,4.14h66c1.7,0,3-1.79,3-4.14V134.14C236.7,131.79,235.4,130,233.7,130Z"/><path class="cls-3" d="M351.7,160.64h-66a3.09,3.09,0,0,0-3,3.28v343.7a3.09,3.09,0,0,0,3,3.28h66a3.09,3.09,0,0,0,3-3.28V163.92A3.09,3.09,0,0,0,351.7,160.64Z"/><path class="cls-4" d="M522.8,178.9c-.7-.4-1.4-.7-2.1-1.1l-1.3-.6-1.5-.7-1.8-.8c-.5-.2-1.1-.4-1.7-.7l-1.2-.5a18.29,18.29,0,0,0-2.5-.8l-1.1-.3-2.1-.6-.9-.2-2.8-.6-.9-.2c-1-.2-2-.4-2.9-.5l-.6-.1c-.9-.1-1.8-.2-2.8-.4l-.7-.1c-1-.1-2.1-.2-3.1-.2h-.7c-1.1-.1-2.2-.1-3.3-.1a73.51,73.51,0,0,0-17.5,2.1V133.4a3,3,0,0,0-3-3H402.2a3,3,0,0,0-3,3V507.8a3,3,0,0,0,3,3h66.1a3,3,0,0,0,3-3V313a72.39,72.39,0,0,0,51.5-134.1Z"/><path class="cls-5" d="M116.7,80h66c1.7,0,3,1.79,3,4.14V456.76c0,2.35-1.3,4.14-3,4.14h-66c-1.7,0-3-1.79-3-4.14V84.14C113.7,81.79,115.1,80,116.7,80Z"/><path class="cls-6" d="M234.7,106h66a3.12,3.12,0,0,1,3,3.32V457.68a3.12,3.12,0,0,1-3,3.32h-66a3.12,3.12,0,0,1-3-3.32V109.32A3.12,3.12,0,0,1,234.7,106Z"/><path class="cls-5" d="M351.3,80.5h66a3,3,0,0,1,3,3V457.9a3,3,0,0,1-3,3h-66a3,3,0,0,1-3-3V83.5A3,3,0,0,1,351.3,80.5Z"/><path class="cls-7" d="M510.1,192.8a72.3,72.3,0,1,1-72.3-72.3h0a72.21,72.21,0,0,1,72.3,72.3"/><path class="cls-8" d="M472.41,128.9A72.33,72.33,0,1,0,403.31,256a10.91,10.91,0,0,1,1.1.6Z"/><path class="cls-9" d="M446.35,207.1c0-4.8-1.9-6.7-10.9-10.8-13-5.9-16.9-10.4-16.9-19.5,0-8.9,7.3-15.4,14.7-17.3v-11h.4l10.7,4.7v6.1a27.39,27.39,0,0,1,9.6,3.3l.5.3.4.2-.1.4-.1.6-1.4,8.4-.3,1.6-.2,1.1-.9-.6-1.3-1a19.26,19.26,0,0,0-12-4.2c-5.6,0-8.6,2.5-8.6,6.7,0,4,2,5.8,10.8,9.9,13.1,5.9,17.2,10.7,17.2,20.4,0,9-6.3,15.7-13.7,18v12.7h-.9l-10.2-5.7v-6.2c-3.7-.5-10.3-1.9-14.5-4.1l-.6-.3-.4-.2v-.4l.1-.7,1.2-8.6.2-1.5.1-1,.8.6,1.2.8a29.07,29.07,0,0,0,15.4,5c5.9,0,9.7-2.9,9.7-7.7"/></g></svg>