<svg xmlns="http://www.w3.org/2000/svg" xmlns:xlink="http://www.w3.org/1999/xlink" viewBox="0 0 600 600"><defs><style>.cls-1{fill:none;}.cls-2{fill:url(#Degradado_sin_nombre_49);}.cls-3{fill:url(#Degradado_sin_nombre_49-2);}.cls-4{fill:url(#Degradado_sin_nombre_49-3);}.cls-5{fill:#043263;}.cls-6{fill:#2dcccd;}.cls-7{fill:#f8cd50;}.cls-8{fill:url(#Degradado_sin_nombre_6);}.cls-9{fill:#fef5dc;}</style><linearGradient id="Degradado_sin_nombre_49" x1="-2.08" y1="-60.93" x2="388.74" y2="674.1" gradientUnits="userSpaceOnUse"><stop offset="0" stop-color="#192647" stop-opacity="0.5"/><stop offset="1" stop-color="#192647" stop-opacity="0"/></linearGradient><linearGradient id="Degradado_sin_nombre_49-2" x1="65.02" y1="-126.65" x2="451.75" y2="600.67" xlink:href="#Degradado_sin_nombre_49"/><linearGradient id="Degradado_sin_nombre_49-3" x1="165.26" y1="-225.49" x2="555.78" y2="508.98" xlink:href="#Degradado_sin_nombre_49"/><linearGradient id="Degradado_sin_nombre_6" x1="378.44" y1="-4432.86" x2="438.38" y2="-4464.74" gradientTransform="matrix(1, 0, 0, -1, 0, -4272)" gradientUnits="userSpaceOnUse"><stop offset="0" stop-color="#fade8e"/><stop offset="1" stop-color="#fade8e" stop-opacity="0.4"/></linearGradient></defs><title>3</title><g id="Cuadrados_blancos" data-name="Cuadrados blancos"><rect class="cls-1" width="600" height="600"/></g><g id="Capa_4" data-name="Capa 4"><path class="cls-2" d="M233.7,130h-66c-1.6,0-3,1.79-3,4.14V506.76c0,2.35,1.3,4.14,3,4.14h66c1.7,0,3-1.79,3-4.14V134.14C236.7,131.79,235.4,130,233.7,130Z"/><rect class="cls-3" x="282.7" y="190" width="72" height="320.9" rx="3"/><path class="cls-4" d="M522.8,178.9c-.7-.4-1.4-.7-2.1-1.1l-1.3-.6-1.5-.7-1.8-.8c-.5-.2-1.1-.4-1.7-.7l-1.2-.5a18.29,18.29,0,0,0-2.5-.8l-1.1-.3-2.1-.6-.9-.2-2.8-.6-.9-.2c-1-.2-2-.4-2.9-.5l-.6-.1c-.9-.1-1.8-.2-2.8-.4l-.7-.1c-1-.1-2.1-.2-3.1-.2h-.7c-1.1-.1-2.2-.1-3.3-.1a73.51,73.51,0,0,0-17.5,2.1V133.4a3,3,0,0,0-3-3H402.2a3,3,0,0,0-3,3V507.8a3,3,0,0,0,3,3h66.1a3,3,0,0,0,3-3V313a72.39,72.39,0,0,0,51.5-134.1Z"/><path class="cls-5" d="M417.3,184.6h-66a3,3,0,0,0-3,3V457.9a3,3,0,0,0,3,3h66a3,3,0,0,0,3-3V187.6A3,3,0,0,0,417.3,184.6Z"/><path class="cls-6" d="M299.3,140.4h-66a3,3,0,0,0-3,3V457.9a3,3,0,0,0,3,3h66a3,3,0,0,0,3-3V143.4A3,3,0,0,0,299.3,140.4Z"/><path class="cls-5" d="M182.7,80.5h-66a3,3,0,0,0-3,3V457.9a3,3,0,0,0,3,3h66a3,3,0,0,0,3-3V83.5A3,3,0,0,0,182.7,80.5Z"/><path class="cls-7" d="M510.1,192.8a72.3,72.3,0,1,1-72.3-72.3h0a72.21,72.21,0,0,1,72.3,72.3"/><path class="cls-8" d="M472.41,128.9A72.33,72.33,0,1,0,403.31,256a10.91,10.91,0,0,1,1.1.6Z"/><path class="cls-9" d="M417.88,190h-10v-7.54h10.76c3-16.81,13.49-24.56,25.66-24.56,12.78,0,19.62,6.54,23,14.9l-9.46,5.33c-2.31-6.94-6.44-10.47-13.48-10.47-7.44,0-12.78,4.83-14.79,14.8h16.8V190H428.74v2.32c0,1.31,0,2.61.1,3.92h17.61v7.65h-16.7c1.91,9.26,6.54,14.09,14.79,14.09,6.94,0,11.27-3.22,13.89-10.87l9.25,5.53c-3.82,8.66-11.57,15-23.14,15-12.58,0-22.54-7.45-25.66-23.65h-11v-7.65H418c-.1-1.21-.1-2.41-.1-3.72V190Z"/></g></svg>