<svg xmlns="http://www.w3.org/2000/svg" xmlns:xlink="http://www.w3.org/1999/xlink" viewBox="0 0 600 600"><defs><style>.cls-1{fill:none;}.cls-2{fill:url(#Degradado_sin_nombre_47);}.cls-3{fill:url(#Degradado_sin_nombre_47-2);}.cls-4{fill:url(#Degradado_sin_nombre_47-3);}.cls-5{fill:#043263;}.cls-6{fill:#2dcccd;}.cls-7{fill:#f8cd50;}.cls-8{fill:url(#Degradado_sin_nombre_6);}.cls-9{fill:#fef5dc;}</style><linearGradient id="Degradado_sin_nombre_47" x1="53.28" y1="43.2" x2="388.66" y2="673.94" gradientUnits="userSpaceOnUse"><stop offset="0" stop-color="#192647" stop-opacity="0.5"/><stop offset="1" stop-color="#192647" stop-opacity="0"/></linearGradient><linearGradient id="Degradado_sin_nombre_47-2" x1="124.92" y1="-28.68" x2="458.63" y2="598.95" xlink:href="#Degradado_sin_nombre_47"/><linearGradient id="Degradado_sin_nombre_47-3" x1="221.65" y1="-119.43" x2="556.78" y2="510.86" xlink:href="#Degradado_sin_nombre_47"/><linearGradient id="Degradado_sin_nombre_6" x1="378.44" y1="-3128.86" x2="438.38" y2="-3160.74" gradientTransform="matrix(1, 0, 0, -1, 0, -2968)" gradientUnits="userSpaceOnUse"><stop offset="0" stop-color="#fade8e"/><stop offset="1" stop-color="#fade8e" stop-opacity="0.4"/></linearGradient></defs><title>3</title><g id="Cuadrados_blancos" data-name="Cuadrados blancos"><rect class="cls-1" width="600" height="600"/></g><g id="Capa_4" data-name="Capa 4"><path class="cls-2" d="M233.7,130h-66c-1.6,0-3,1.79-3,4.14V506.76c0,2.35,1.3,4.14,3,4.14h66c1.7,0,3-1.79,3-4.14V134.14C236.7,131.79,235.4,130,233.7,130Z"/><path class="cls-3" d="M351.7,160.64h-66a3.09,3.09,0,0,0-3,3.28v343.7a3.09,3.09,0,0,0,3,3.28h66a3.09,3.09,0,0,0,3-3.28V163.92A3.09,3.09,0,0,0,351.7,160.64Z"/><path class="cls-4" d="M522.8,178.9c-.7-.4-1.4-.7-2.1-1.1l-1.3-.6-1.5-.7-1.8-.8c-.5-.2-1.1-.4-1.7-.7l-1.2-.5a18.29,18.29,0,0,0-2.5-.8l-1.1-.3-2.1-.6-.9-.2-2.8-.6-.9-.2c-1-.2-2-.4-2.9-.5l-.6-.1c-.9-.1-1.8-.2-2.8-.4l-.7-.1c-1-.1-2.1-.2-3.1-.2h-.7c-1.1-.1-2.2-.1-3.3-.1a73.51,73.51,0,0,0-17.5,2.1V133.4a3,3,0,0,0-3-3H402.2a3,3,0,0,0-3,3V507.8a3,3,0,0,0,3,3h66.1a3,3,0,0,0,3-3V313a72.39,72.39,0,0,0,51.5-134.1Z"/><path class="cls-5" d="M116.7,81h66c1.7,0,3,1.79,3,4.12V456.78c0,2.33-1.3,4.12-3,4.12h-66c-1.7,0-3-1.79-3-4.12V85.12C113.7,82.79,115.1,81,116.7,81Z"/><path class="cls-6" d="M234.7,106h66a3.12,3.12,0,0,1,3,3.32V457.68a3.12,3.12,0,0,1-3,3.32h-66a3.12,3.12,0,0,1-3-3.32V109.32A3.12,3.12,0,0,1,234.7,106Z"/><path class="cls-5" d="M351.3,80.5h66a3,3,0,0,1,3,3V457.9a3,3,0,0,1-3,3h-66a3,3,0,0,1-3-3V83.5A3,3,0,0,1,351.3,80.5Z"/><path class="cls-7" d="M510.1,192.8a72.3,72.3,0,1,1-72.3-72.3h0a72.21,72.21,0,0,1,72.3,72.3"/><path class="cls-8" d="M472.41,128.9A72.33,72.33,0,1,0,403.31,256a10.91,10.91,0,0,1,1.1.6Z"/><path class="cls-9" d="M417.88,190h-10v-7.54h10.76c3-16.81,13.49-24.56,25.66-24.56,12.78,0,19.62,6.54,23,14.9l-9.46,5.33c-2.31-6.94-6.44-10.47-13.48-10.47-7.44,0-12.78,4.83-14.79,14.8h16.8V190H428.74v2.32c0,1.31,0,2.61.1,3.92h17.61v7.65h-16.7c1.91,9.26,6.54,14.09,14.79,14.09,6.94,0,11.27-3.22,13.89-10.87l9.25,5.53c-3.82,8.66-11.57,15-23.14,15-12.58,0-22.54-7.45-25.66-23.65h-11v-7.65H418c-.1-1.21-.1-2.41-.1-3.72V190Z"/></g></svg>