<svg id="Capa_1" data-name="Capa 1" xmlns="http://www.w3.org/2000/svg" xmlns:xlink="http://www.w3.org/1999/xlink" viewBox="0 0 600 600"><defs><style>.cls-1{fill:none;}.cls-2{fill:url(#Degradado_sin_nombre_19);}.cls-3{fill:url(#Degradado_sin_nombre_19-2);}.cls-4{fill:url(#Degradado_sin_nombre_19-3);}.cls-5{fill:#1464a5;}.cls-6{fill:#2dcccd;}.cls-7{fill:#ffdf8a;}.cls-8{fill:#ffce44;}.cls-9{fill:#c49735;}.cls-10{fill:url(#Degradado_sin_nombre_7);}</style><linearGradient id="Degradado_sin_nombre_19" x1="25.8" y1="43.81" x2="368.15" y2="687.67" gradientUnits="userSpaceOnUse"><stop offset="0" stop-color="#192647" stop-opacity="0.5"/><stop offset="1" stop-color="#192647" stop-opacity="0"/></linearGradient><linearGradient id="Degradado_sin_nombre_19-2" x1="109.32" y1="-43.14" x2="454.96" y2="606.92" xlink:href="#Degradado_sin_nombre_19"/><linearGradient id="Degradado_sin_nombre_19-3" x1="210.18" y1="-141.01" x2="559.22" y2="515.45" xlink:href="#Degradado_sin_nombre_19"/><linearGradient id="Degradado_sin_nombre_7" x1="385.73" y1="142.52" x2="452.19" y2="208.98" gradientUnits="userSpaceOnUse"><stop offset="0" stop-color="#fff" stop-opacity="0.4"/><stop offset="1" stop-color="#fff" stop-opacity="0.1"/></linearGradient></defs><rect class="cls-1" width="600" height="600"/><path class="cls-2" d="M233.7,234.6h-66a3,3,0,0,0-3,3V507.9a3,3,0,0,0,3,3h66a3,3,0,0,0,3-3V237.6A3,3,0,0,0,233.7,234.6Z"/><rect class="cls-3" x="282.7" y="190.4" width="72" height="320.5" rx="3"/><path class="cls-4" d="M522.8,178.9c-.7-.4-1.4-.7-2.1-1.1l-1.3-.6-1.5-.7-1.8-.8c-.5-.2-1.1-.4-1.7-.7l-1.2-.5a18.29,18.29,0,0,0-2.5-.8l-1.1-.3-2.1-.6-.9-.2-2.8-.6-.9-.2c-1-.2-2-.4-2.9-.5l-.6-.1c-.9-.1-1.8-.2-2.8-.4l-.7-.1c-1-.1-2.1-.2-3.1-.2h-.7c-1.1-.1-2.2-.1-3.3-.1a73.51,73.51,0,0,0-17.5,2.1V133.4a3,3,0,0,0-3-3H402.2a3,3,0,0,0-3,3V507.8a3,3,0,0,0,3,3h66.1a3,3,0,0,0,3-3V313a72.39,72.39,0,0,0,51.5-134.1Z"/><path class="cls-5" d="M116.7,184.6h66a3,3,0,0,1,3,3V457.9a3,3,0,0,1-3,3h-66a3,3,0,0,1-3-3V187.6A3,3,0,0,1,116.7,184.6Z"/><path class="cls-6" d="M234.7,140.4h66a3,3,0,0,1,3,3V457.9a3,3,0,0,1-3,3h-66a3,3,0,0,1-3-3V143.4A3,3,0,0,1,234.7,140.4Z"/><path class="cls-5" d="M351.3,80.5h66a3,3,0,0,1,3,3V457.9a3,3,0,0,1-3,3h-66a3,3,0,0,1-3-3V83.5A3,3,0,0,1,351.3,80.5Z"/><path class="cls-7" d="M511,192.86a72.76,72.76,0,1,1-72.82-72.77h0A72.78,72.78,0,0,1,511,192.83v0"/><path class="cls-8" d="M438.3,250.09a57.24,57.24,0,1,1,57.2-57.25,57.33,57.33,0,0,1-57.2,57.25Z"/><path class="cls-9" d="M438.24,139a53.84,53.84,0,1,1-53.82,53.85A53.92,53.92,0,0,1,438.24,139h0m0-6.79h0a60.63,60.63,0,1,0,60.68,60.64v0a60.65,60.65,0,0,0-60.65-60.62Z"/><path class="cls-10" d="M438.2,120.09a72.73,72.73,0,0,0-34.08,137l68.3-128.44A72.5,72.5,0,0,0,438.2,120.09Z"/></svg>