<?xml version="1.0" encoding="utf-8"?>
<!-- Generator: Adobe Illustrator 23.0.1, SVG Export Plug-In . SVG Version: 6.00 Build 0)  -->
<svg version="1.1" id="Capa_1" xmlns="http://www.w3.org/2000/svg" xmlns:xlink="http://www.w3.org/1999/xlink" x="0px" y="0px"
	 viewBox="0 0 600 600" style="enable-background:new 0 0 600 600;" xml:space="preserve">
<style type="text/css">
	.st0{fill:url(#Path_1_);}
	.st1{fill:url(#SVGID_1_);}
	.st2{fill:url(#SVGID_2_);}
	.st3{fill:#1464A5;}
	.st4{fill:#2DCCCD;}
	.st5{fill:#DA3951;}
	.st6{fill:#FFFFFF;}
</style>
<title>Charts Documents/Money-Graphic-Dollar-negative</title>
<desc>Created with Sketch.</desc>
<g>
	<g id="Money-Graphic-Dollar" transform="translate(102.000000, 110.000000)">
		<g id="Group" transform="translate(51.000000, 50.000000)">
			
				<linearGradient id="Path_1_" gradientUnits="userSpaceOnUse" x1="-271.0717" y1="438.5028" x2="-270.7151" y2="435.9292" gradientTransform="matrix(72 0 0 -276.3 19536.6992 120925.8438)">
				<stop  offset="0" style="stop-color:#192647"/>
				<stop  offset="0" style="stop-color:#192647;stop-opacity:0.5"/>
				<stop  offset="1" style="stop-color:#192647;stop-opacity:0"/>
			</linearGradient>
			<path id="Path" class="st0" d="M3.7,104.6h66c1.7,0,3,1.3,3,3v270.3c0,1.7-1.3,3-3,3h-66c-1.7,0-3-1.3-3-3V107.6
				C0.7,105.9,2.1,104.6,3.7,104.6z"/>
			
				<linearGradient id="SVGID_1_" gradientUnits="userSpaceOnUse" x1="-271.02" y1="438.3445" x2="-270.7554" y2="436.1295" gradientTransform="matrix(72 0 0 -320.5 19654.6992 140209.2344)">
				<stop  offset="0" style="stop-color:#192647"/>
				<stop  offset="0" style="stop-color:#192647;stop-opacity:0.5"/>
				<stop  offset="1" style="stop-color:#192647;stop-opacity:0"/>
			</linearGradient>
			<path class="st1" d="M121.7,60.4h66c1.7,0,3,1.3,3,3v314.5c0,1.7-1.3,3-3,3h-66c-1.7,0-3-1.3-3-3V63.4
				C118.7,61.7,120,60.4,121.7,60.4z"/>
			
				<linearGradient id="SVGID_2_" gradientUnits="userSpaceOnUse" x1="-272.1036" y1="438.1679" x2="-271.6823" y2="436.3049" gradientTransform="matrix(161.8079 0 0 -380.4 44288.7656 166342.0312)">
				<stop  offset="0" style="stop-color:#192647"/>
				<stop  offset="0" style="stop-color:#192647;stop-opacity:0.5"/>
				<stop  offset="1" style="stop-color:#192647;stop-opacity:0"/>
			</linearGradient>
			<path class="st2" d="M358.8,48.9L358.8,48.9c-0.7-0.4-1.4-0.7-2.1-1.1l-1.3-0.6l-1.5-0.7l-1.8-0.8c-0.5-0.2-1.1-0.4-1.7-0.7
				l-1.2-0.5c-0.8-0.3-1.6-0.6-2.5-0.8l-1.1-0.3c-0.7-0.2-1.4-0.4-2.1-0.6l-0.9-0.2c-0.9-0.2-1.9-0.4-2.8-0.6l-0.9-0.2
				c-1-0.2-2-0.4-2.9-0.5l-0.6-0.1c-0.9-0.1-1.8-0.2-2.8-0.4l-0.7-0.1c-1-0.1-2.1-0.2-3.1-0.2h-0.7c-1.1-0.1-2.2-0.1-3.3-0.1
				c-5.9,0-11.8,0.7-17.5,2.1V3.4c0-1.7-1.3-3-3-3h-66.1c-1.7,0-3,1.3-3,3v374.4c0,1.7,1.3,3,3,3h66.1c1.7,0,3-1.3,3-3V183
				c38.8,9.6,78-14.1,87.6-52.9C402.8,98,388,64.6,358.8,48.9L358.8,48.9z"/>
		</g>
		<path class="st3" d="M3.7,104.6h66c1.7,0,3,1.3,3,3v270.3c0,1.7-1.3,3-3,3h-66c-1.7,0-3-1.3-3-3V107.6
			C0.7,105.9,2.1,104.6,3.7,104.6z"/>
		<path class="st4" d="M121.7,60.4h66c1.7,0,3,1.3,3,3v314.5c0,1.7-1.3,3-3,3h-66c-1.7,0-3-1.3-3-3V63.4
			C118.7,61.7,120,60.4,121.7,60.4z"/>
		<path class="st3" d="M238.3,0.5h66c1.7,0,3,1.3,3,3v374.4c0,1.7-1.3,3-3,3h-66c-1.7,0-3-1.3-3-3V3.5
			C235.3,1.8,236.6,0.5,238.3,0.5z"/>
		<g id="Group-3" transform="translate(252.892866, 40.092866)">
			<path class="st5" d="M144.6,72.3c0,40-32.4,72.3-72.3,72.3S0,112.2,0,72.3S32.4,0,72.3,0l0,0C112.2-0.1,144.6,32.3,144.6,72.3"/>
			<path class="st6" d="M99.3,90.7L81.1,72.5l18.1-18.1c2.4-2.4,2.4-6.2,0-8.6s-6.2-2.4-8.6,0L72.5,63.9L54.4,45.8
				c-2.4-2.4-6.2-2.4-8.6,0s-2.4,6.2,0,8.6l18.2,18.1L45.8,90.7c-1.5,1.5-2.1,3.8-1.6,5.9c0.6,2.1,2.2,3.7,4.3,4.3
				c2.1,0.6,4.3,0,5.9-1.6l18.1-18.1l18.1,18.1c2.4,2.3,6.2,2.2,8.5-0.1C101.5,96.8,101.6,93.1,99.3,90.7L99.3,90.7z"/>
		</g>
	</g>
</g>
</svg>
