<svg xmlns="http://www.w3.org/2000/svg" xmlns:xlink="http://www.w3.org/1999/xlink" viewBox="0 0 600 600"><defs><style>.cls-1{fill:none;}.cls-2{fill:url(#Degradado_sin_nombre_35);}.cls-3{fill:url(#Degradado_sin_nombre_35-2);}.cls-4{fill:url(#Degradado_sin_nombre_35-3);}.cls-5{fill:#043263;}.cls-6{fill:#2dcccd;}.cls-7{fill:#da3951;}.cls-8{fill:#fff;}</style><linearGradient id="Degradado_sin_nombre_35" x1="-51.97" y1="-1519.55" x2="326.13" y2="-2230.64" gradientTransform="matrix(1, 0, 0, -1, 0, -1622)" gradientUnits="userSpaceOnUse"><stop offset="0" stop-color="#192647" stop-opacity="0.5"/><stop offset="1" stop-color="#192647" stop-opacity="0"/></linearGradient><linearGradient id="Degradado_sin_nombre_35-2" x1="52.42" y1="-1471.84" x2="429.88" y2="-2181.74" xlink:href="#Degradado_sin_nombre_35"/><linearGradient id="Degradado_sin_nombre_35-3" x1="174.9" y1="-1414.64" x2="551.72" y2="-2123.33" xlink:href="#Degradado_sin_nombre_35"/></defs><title>3</title><g id="Cuadrados_blancos" data-name="Cuadrados blancos"><rect class="cls-1" width="600" height="600"/></g><g id="Capa_5" data-name="Capa 5"><path class="cls-2" d="M167.7,234.6h66a3,3,0,0,1,3,3V507.9a3,3,0,0,1-3,3h-66a3,3,0,0,1-3-3V237.6A3,3,0,0,1,167.7,234.6Z"/><path class="cls-3" d="M285.7,190.4h66a3,3,0,0,1,3,3V507.9a3,3,0,0,1-3,3h-66a3,3,0,0,1-3-3V193.4A3,3,0,0,1,285.7,190.4Z"/><path class="cls-4" d="M522.8,178.9h0c-.7-.4-1.4-.7-2.1-1.1l-1.3-.6-1.5-.7-1.8-.8c-.5-.2-1.1-.4-1.7-.7l-1.2-.5a18.29,18.29,0,0,0-2.5-.8l-1.1-.3-2.1-.6-.9-.2-2.8-.6-.9-.2c-1-.2-2-.4-2.9-.5l-.6-.1c-.9-.1-1.8-.2-2.8-.4l-.7-.1c-1-.1-2.1-.2-3.1-.2h-.7c-1.1-.1-2.2-.1-3.3-.1a73.51,73.51,0,0,0-17.5,2.1V133.4a3,3,0,0,0-3-3H402.2a3,3,0,0,0-3,3V507.8a3,3,0,0,0,3,3h66.1a3,3,0,0,0,3-3V313a72.39,72.39,0,0,0,51.5-134.1Z"/><path class="cls-5" d="M116.7,184.6h66a3,3,0,0,1,3,3V457.9a3,3,0,0,1-3,3h-66a3,3,0,0,1-3-3V187.6A3,3,0,0,1,116.7,184.6Z"/><path class="cls-6" d="M234.7,140.4h66a3,3,0,0,1,3,3V457.9a3,3,0,0,1-3,3h-66a3,3,0,0,1-3-3V143.4A3,3,0,0,1,234.7,140.4Z"/><path class="cls-5" d="M351.3,80.5h66a3,3,0,0,1,3,3V457.9a3,3,0,0,1-3,3h-66a3,3,0,0,1-3-3V83.5A3,3,0,0,1,351.3,80.5Z"/><path class="cls-7" d="M510.1,192.8a72.3,72.3,0,1,1-72.3-72.3h0a72.21,72.21,0,0,1,72.3,72.3"/><path class="cls-7" d="M471.8,128.9A72.33,72.33,0,1,0,402.7,256a10.91,10.91,0,0,1,1.1.6Z"/><path class="cls-8" d="M464.91,211.46,446.6,193.15l18.21-18.21a6.12,6.12,0,0,0-8.65-8.66L438,184.49l-18.21-18.21a6.12,6.12,0,1,0-8.66,8.66l18.32,18.21-18.32,18.31a6.41,6.41,0,0,0-1.61,5.94,6.26,6.26,0,0,0,4.33,4.32,6,6,0,0,0,5.94-1.61L438,201.9l18.21,18.21a6.12,6.12,0,0,0,8.55-.1,6,6,0,0,0,.2-8.55Z"/></g></svg>