<svg xmlns="http://www.w3.org/2000/svg" xmlns:xlink="http://www.w3.org/1999/xlink" viewBox="0 0 600 600"><defs><style>.cls-1,.cls-7{fill:none;}.cls-2{fill:url(#Degradado_sin_nombre_138);}.cls-3{fill:#043263;}.cls-4{fill:url(#Degradado_sin_nombre_50);}.cls-5{fill:#072146;}.cls-6{fill:#2dcccd;}.cls-7{stroke:#2dcccd;stroke-miterlimit:10;stroke-width:10px;}.cls-8{fill:#eecc67;}.cls-9{fill:url(#Degradado_sin_nombre_13);}.cls-10{fill:url(#Degradado_sin_nombre_13-2);}.cls-11{fill:#d4edfc;}</style><linearGradient id="Degradado_sin_nombre_138" x1="243.4" y1="-4403.51" x2="456.89" y2="-4805.04" gradientTransform="matrix(1, 0, 0, -1, 0, -4254)" gradientUnits="userSpaceOnUse"><stop offset="0" stop-color="#192647" stop-opacity="0.5"/><stop offset="1" stop-color="#192647" stop-opacity="0"/></linearGradient><linearGradient id="Degradado_sin_nombre_50" x1="500" y1="-4554" x2="213.57" y2="-4554" gradientTransform="matrix(1, 0, 0, -1, 0, -4254)" gradientUnits="userSpaceOnUse"><stop offset="0.01" stop-color="#072146" stop-opacity="0.8"/><stop offset="1" stop-color="#072146" stop-opacity="0.2"/></linearGradient><linearGradient id="Degradado_sin_nombre_13" x1="151.46" y1="-4664.13" x2="170.15" y2="-4674.06" gradientTransform="matrix(1, 0, 0, -1, 0, -4254)" gradientUnits="userSpaceOnUse"><stop offset="0" stop-color="#fff" stop-opacity="0.6"/><stop offset="1" stop-color="#fff" stop-opacity="0.2"/></linearGradient><linearGradient id="Degradado_sin_nombre_13-2" x1="220.76" y1="-4666.94" x2="234.1" y2="-4674.04" xlink:href="#Degradado_sin_nombre_13"/></defs><title>1</title><g id="Cuadrados_Blancos" data-name="Cuadrados Blancos"><rect class="cls-1" width="600" height="600"/></g><g id="Capa_21" data-name="Capa 21"><path class="cls-2" d="M527,190H173a23,23,0,0,0-23,23V487a23,23,0,0,0,23,23h17v11a3,3,0,0,0,3,3h54a3,3,0,0,0,3-3V510H450v11a3,3,0,0,0,3,3h54a3,3,0,0,0,3-3V510h17a23,23,0,0,0,23-23V213A23,23,0,0,0,527,190Z"/><rect class="cls-3" x="100" y="140" width="400" height="320" rx="23"/><path class="cls-4" d="M477,140H383.71L213.57,460H477a23,23,0,0,0,23-23V163a23,23,0,0,0-23-23Z"/><rect class="cls-5" x="120" y="160" width="360" height="220" rx="9"/><path class="cls-6" d="M140,460h60v11a3,3,0,0,1-3,3H143a3,3,0,0,1-3-3V460Z"/><path class="cls-6" d="M400,460h60v11a3,3,0,0,1-3,3H403a3,3,0,0,1-3-3V460Z"/><path class="cls-7" d="M480,296.5H402a3,3,0,0,1-2.65-1.59l-44-82.75a3,3,0,0,0-4.06-1.24,3,3,0,0,0-1.24,1.24l-47.9,90.09a3,3,0,0,1-4.06,1.24,3,3,0,0,1-1.24-1.24l-10-18.79a3,3,0,0,0-4.06-1.24,3,3,0,0,0-1.24,1.24l-18.1,34.05a3,3,0,0,1-4.06,1.24,3,3,0,0,1-1.24-1.24l-31.93-60.05a3,3,0,0,0-4.06-1.24,3,3,0,0,0-1.24,1.24L201,294.91a3,3,0,0,1-2.65,1.59H120"/><path class="cls-8" d="M191,420a21,21,0,1,1-21-21h0a21,21,0,0,1,21,21h0"/><path class="cls-9" d="M170,399a21,21,0,0,0-9.69,39.6l19.6-37.12A21,21,0,0,0,170,399Z"/><path class="cls-8" d="M249,420a15,15,0,1,1-15-15h0a15,15,0,0,1,15,15"/><path class="cls-10" d="M234,405a15,15,0,0,0-6.92,28.29l14-26.52A14.84,14.84,0,0,0,234,405Z"/><path class="cls-11" d="M336,405H436a15,15,0,0,1,15,15h0a15,15,0,0,1-15,15H336a15,15,0,0,1-15-15h0A15,15,0,0,1,336,405Z"/></g></svg>