<svg id="Contenido" xmlns="http://www.w3.org/2000/svg" xmlns:xlink="http://www.w3.org/1999/xlink" viewBox="0 0 600 600"><defs><style>.cls-1{fill:url(#Degradado_sin_nombre_42);}.cls-2{fill:#1464a5;}.cls-3{fill:url(#Degradado_sin_nombre_43);}.cls-4{fill:#043263;}.cls-5{fill:#2dcccd;}.cls-6{fill:none;stroke:#2dcccd;stroke-miterlimit:10;stroke-width:10px;}.cls-7{fill:#eecc67;}.cls-8{fill:url(#Degradado_sin_nombre_5);}.cls-9{fill:url(#Degradado_sin_nombre_5-2);}.cls-10{fill:#d4edfc;}</style><linearGradient id="Degradado_sin_nombre_42" x1="243.4" y1="149.51" x2="456.89" y2="551.04" gradientUnits="userSpaceOnUse"><stop offset="0" stop-color="#192647" stop-opacity="0.5"/><stop offset="1" stop-color="#192647" stop-opacity="0"/></linearGradient><linearGradient id="Degradado_sin_nombre_43" x1="500" y1="300" x2="213.57" y2="300" gradientUnits="userSpaceOnUse"><stop offset="0.01" stop-color="#043263" stop-opacity="0.5"/><stop offset="1" stop-color="#043263" stop-opacity="0.1"/></linearGradient><linearGradient id="Degradado_sin_nombre_5" x1="151.46" y1="410.14" x2="170.15" y2="420.07" gradientUnits="userSpaceOnUse"><stop offset="0" stop-color="#fff" stop-opacity="0.6"/><stop offset="1" stop-color="#fff" stop-opacity="0.2"/></linearGradient><linearGradient id="Degradado_sin_nombre_5-2" x1="220.76" y1="412.95" x2="234.1" y2="420.05" xlink:href="#Degradado_sin_nombre_5"/></defs><title>otros</title><path class="cls-1" d="M527,190H173a23,23,0,0,0-23,23V487a23,23,0,0,0,23,23h17v11a3,3,0,0,0,3,3h54a3,3,0,0,0,3-3V510H450v11a3,3,0,0,0,3,3h54a3,3,0,0,0,3-3V510h17a23,23,0,0,0,23-23V213A23,23,0,0,0,527,190Z"/><rect class="cls-2" x="100" y="140" width="400" height="320" rx="23"/><path class="cls-3" d="M477,140H383.71L213.57,460H477a23,23,0,0,0,23-23V163A23,23,0,0,0,477,140Z"/><rect class="cls-4" x="120" y="160" width="360" height="220" rx="9"/><path class="cls-5" d="M140,460h60a0,0,0,0,1,0,0v11a3,3,0,0,1-3,3H143a3,3,0,0,1-3-3V460A0,0,0,0,1,140,460Z"/><path class="cls-5" d="M400,460h60a0,0,0,0,1,0,0v11a3,3,0,0,1-3,3H403a3,3,0,0,1-3-3V460A0,0,0,0,1,400,460Z"/><path class="cls-6" d="M480,296.5H402a3,3,0,0,1-2.65-1.59l-44-82.75a3,3,0,0,0-5.3,0l-47.9,90.09a3,3,0,0,1-5.3,0l-10-18.79a3,3,0,0,0-5.3,0l-18.1,34.05a3,3,0,0,1-5.3,0l-31.93-60.05a3,3,0,0,0-5.3,0L201,294.91a3,3,0,0,1-2.65,1.59H120"/><path class="cls-7" d="M191,420a21,21,0,1,1-21-21h0a21,21,0,0,1,21,21"/><path class="cls-8" d="M170,399a21,21,0,0,0-9.69,39.6l19.6-37.12A20.92,20.92,0,0,0,170,399Z"/><path class="cls-7" d="M249,420a15,15,0,1,1-15-15h0a15,15,0,0,1,15,15"/><path class="cls-9" d="M234,405a15,15,0,0,0-6.92,28.29l14-26.52A14.88,14.88,0,0,0,234,405Z"/><rect class="cls-10" x="321" y="405" width="130" height="30" rx="15"/></svg>