<svg id="Contenido" xmlns="http://www.w3.org/2000/svg" xmlns:xlink="http://www.w3.org/1999/xlink" viewBox="0 0 600 600"><defs><style>.cls-1{fill:url(#Degradado_sin_nombre_16);}.cls-2{fill:#043263;}.cls-3{fill:#2dcccd;}.cls-4{fill:#1464a5;}.cls-5{fill:url(#Degradado_sin_nombre_93);}.cls-6{fill:#d4edfc;}</style><linearGradient id="Degradado_sin_nombre_16" x1="284.18" y1="216.58" x2="431.53" y2="493.69" gradientUnits="userSpaceOnUse"><stop offset="0" stop-color="#1c2645"/><stop offset="0" stop-color="#1c2645" stop-opacity="0.5"/><stop offset="1" stop-color="#1c2645" stop-opacity="0"/></linearGradient><linearGradient id="Degradado_sin_nombre_93" x1="459.45" y1="319.19" x2="232.26" y2="319.19" gradientUnits="userSpaceOnUse"><stop offset="0" stop-color="#043263" stop-opacity="0.4"/><stop offset="1" stop-color="#043263" stop-opacity="0.1"/></linearGradient></defs><title>values-day</title><path class="cls-1" d="M560.37,354.33a73.79,73.79,0,0,0-73.79-73.79c-.37,0-.73,0-1.1,0a152.73,152.73,0,0,0-67.65-58.47,179.11,179.11,0,0,1-54.47-37.35l-6.71-6.7-6.7,6.7a179.51,179.51,0,0,1-54.56,37.39,152.69,152.69,0,0,0-67.57,58.41A73.78,73.78,0,0,0,220,427.64c24.26,49.55,74.74,84.25,133,85.63A152,152,0,0,0,493.4,427.79,73.79,73.79,0,0,0,560.37,354.33Z"/><circle class="cls-2" cx="179.03" cy="304.33" r="73.79"/><circle class="cls-3" cx="179.03" cy="304.33" r="52"/><circle class="cls-2" cx="437.35" cy="304.33" r="73.79"/><circle class="cls-3" cx="437.35" cy="304.33" r="52"/><path class="cls-4" d="M314.12,134.75l-6.7-6.7-6.7,6.7a179.68,179.68,0,0,1-54.57,37.39,152,152,0,0,0-90.72,143c2,80.57,67.72,146.23,148.29,148.14A152,152,0,0,0,368.6,172.1,179,179,0,0,1,314.12,134.75Z"/><path class="cls-5" d="M374.88,175.06,232.26,443.28a150.39,150.39,0,0,0,71.46,20,152,152,0,0,0,71.16-288.21Z"/><path class="cls-6" d="M399.08,232.79c-22.11-25.86-66.21-29.74-91.66,1.2-25.44-30.94-69.55-27.06-91.65-1.2a120.54,120.54,0,1,0,183.31,0Z"/><path class="cls-2" d="M299.07,322.21a8,8,0,1,0-2.2,11.1A8,8,0,0,0,299.07,322.21Z"/><path class="cls-2" d="M329.07,322.21a8,8,0,1,0-2.2,11.1A8,8,0,0,0,329.07,322.21Z"/><path class="cls-2" d="M261.41,281.5a43.31,43.31,0,0,1,22.48,6,3,3,0,0,0,4.51-3.26,27.94,27.94,0,0,0-54,0,3,3,0,0,0,4.51,3.26A43.31,43.31,0,0,1,261.41,281.5Z"/><path class="cls-2" d="M355,281.5a43.31,43.31,0,0,1,22.48,6,3,3,0,0,0,4.51-3.26,27.95,27.95,0,0,0-54,0,3,3,0,0,0,4.52,3.26A43.26,43.26,0,0,1,355,281.5Z"/></svg>