<svg xmlns="http://www.w3.org/2000/svg" xmlns:xlink="http://www.w3.org/1999/xlink" viewBox="0 0 600 600"><defs><style>.cls-1{fill:none;}.cls-2{fill:url(#Degradado_sin_nombre_184);}.cls-3{fill:#072146;}.cls-4{fill:#49a5e6;}.cls-5{fill:url(#Degradado_sin_nombre_64);}.cls-6{fill:#2dcccd;}.cls-7{fill:#043263;}.cls-8{fill:#028484;}.cls-9{fill:url(#Degradado_sin_nombre_46);}</style><linearGradient id="Degradado_sin_nombre_184" x1="164.85" y1="-8321.58" x2="430.05" y2="-8820.35" gradientTransform="matrix(1, 0, 0, -1, 0, -8254)" gradientUnits="userSpaceOnUse"><stop offset="0" stop-color="#192647" stop-opacity="0.5"/><stop offset="1" stop-color="#192647" stop-opacity="0"/></linearGradient><linearGradient id="Degradado_sin_nombre_64" x1="265.3" y1="-8486.8" x2="153" y2="-8486.8" gradientTransform="matrix(1, 0, 0, -1, 0, -8254)" gradientUnits="userSpaceOnUse"><stop offset="0" stop-color="#043263" stop-opacity="0.4"/><stop offset="1" stop-color="#043263" stop-opacity="0"/></linearGradient><linearGradient id="Degradado_sin_nombre_46" x1="495.93" y1="-8588.92" x2="334.1" y2="-8588.92" gradientTransform="matrix(1, 0, 0, -1, 0, -8254)" gradientUnits="userSpaceOnUse"><stop offset="0" stop-color="#028484" stop-opacity="0.8"/><stop offset="1" stop-color="#028484" stop-opacity="0"/></linearGradient></defs><title>13</title><g id="Cuadrados_Blancos" data-name="Cuadrados Blancos"><rect class="cls-1" width="600" height="600"/></g><g id="Capa_50" data-name="Capa 50"><path class="cls-2" d="M548.3,364.3c-.4-1.6-.8-3.2-1.3-4.7a102.19,102.19,0,0,0-25.5-42.9l-.1-.1c-1.2-1.2-2.4-2.3-3.6-3.4l-2-1.7c-.7-.6-1.2-1.1-1.8-1.6a30.13,30.13,0,0,0-2.8-2.2c-.4-.3-.7-.6-1.1-.9-1.1-.8-2.2-1.6-3.4-2.4l-.6-.4c-1.3-.8-2.5-1.6-3.8-2.4l-.2-.2c-1.4-.8-2.8-1.6-4.1-2.4h0c-2.8-1.5-5.7-2.9-8.6-4.1h0a101.25,101.25,0,0,0-131.7,51.5c.1-.2.1-.3.2-.5l-37.1.2V272.2l18.6-2.6,2-3.2a11.41,11.41,0,0,0-3.4-15.6h0l-81.8-52a1.53,1.53,0,0,0-1.6,0l-81.8,52a11.31,11.31,0,0,0-3.5,15.6l2.1,3.2,18.6,2.6V347l-42.8.3L113,381.5h.1l-6.9,6.8,36.5,35s10.7.6,26.2,0c2.4-.1,11.1-14.3,11.1-14.3l11.1,14.3h27.7l11.1-14.6,11.1,10,11.1-9.9c-.1-.3,11.1,14.6,11.1,14.6h27.7s10.9-14.7,11.1-14.7l11.1,14.7,39.7.3c4.9,13.4,14.7,25.8,25.5,36.5a105.38,105.38,0,0,0,11.4,9.8h0c.9.6,1.8,1.3,2.7,1.9.4.3.9.6,1.3.9.8.5,1.7,1.1,2.5,1.6a13,13,0,0,1,1.5,1c.8.5,1.7,1,2.5,1.4l1.6.9c.8.4,1.7.9,2.5,1.3l1.7.8c.8.4,1.7.8,2.5,1.2l1.8.8a27.73,27.73,0,0,0,2.6,1l1.8.7c.9.3,1.7.6,2.6.9l1.8.6a27.59,27.59,0,0,0,2.7.8l1.7.5c.9.2,1.9.5,2.8.7l1.2.2c2.1.5,4.3.9,6.4,1.2l1.2.2,2.7.3a12.31,12.31,0,0,0,2,.2c.8.1,1.7.1,2.5.2a15.48,15.48,0,0,0,2.1.1c.7,0,1.6.1,2.5.1h4.6a15.48,15.48,0,0,0,2.2-.1l2.4-.1,2.3-.2,2.3-.2,2.3-.3,2.3-.3,2.4-.4a17,17,0,0,0,2.2-.4l2.6-.6a19.45,19.45,0,0,0,2-.5l3.5-.9c.6-.2,1.2-.3,1.8-.5,1.2-.4,2.5-.8,3.7-1.2l1.7-.6c.9-.3,1.8-.7,2.7-1l1.8-.8c.9-.4,1.7-.7,2.5-1.1l1.9-.9,2.4-1.2c.6-.3,1.2-.6,1.9-1s1.6-.9,2.4-1.3l1.8-1.1c.8-.5,1.5-1,2.3-1.5a17.39,17.39,0,0,1,1.8-1.1c.8-.5,1.5-1.1,2.3-1.6.6-.4,1.1-.8,1.7-1.2.8-.6,1.6-1.2,2.3-1.8l1.5-1.2c.8-.7,1.7-1.4,2.5-2.1.4-.4.8-.7,1.2-1.1,1.2-1.1,2.4-2.2,3.6-3.4h0a101.25,101.25,0,0,0,22.3-33.6q1.8-4.65,3.3-9.3A102.94,102.94,0,0,0,548.3,364.3Zm-194.1-9.9c.2-.6.5-1.2.7-1.8a17.08,17.08,0,0,1-.7,1.8Zm1.9-4.9-.8,1.9a10.84,10.84,0,0,0,.8-1.9Zm138,56a25.45,25.45,0,0,1-5.3,4c-.5.3-1.1.6-1.7.9a17.55,17.55,0,0,1-3.2,1.2,24.9,24.9,0,0,1-9,.9,23.84,23.84,0,0,1-6.4-1.5l-.8-.3A24.28,24.28,0,0,1,454.5,379c.3-.6.6-1.3.9-1.9l1.2-2.1a22.4,22.4,0,0,1,3.1-3.8,23.56,23.56,0,0,1,14.7-6.9,23.13,23.13,0,0,1,12.9,2.4c.9.5,1.9,1,2.7,1.5s1.3.9,2,1.5a19.33,19.33,0,0,1,3.5,3.5,24,24,0,0,1,3.7,24.3,20.65,20.65,0,0,1-5.1,8Z"/><polygon class="cls-3" points="115.9 212.3 199.9 223.9 283.9 212.3 199.9 158.6 115.9 212.3"/><polygon class="cls-4" points="134.5 199.9 199.9 158.6 265.3 199.9 265.3 293.3 134.5 293.3 134.5 199.9"/><polygon class="cls-5" points="221 172.3 265.3 199.9 265.3 293.3 153 292.3 221 172.3"/><path class="cls-6" d="M190.6,230.5h18.6a7.28,7.28,0,0,1,7.3,7.3v55.5H183.2V237.8a7.43,7.43,0,0,1,7.4-7.3Z"/><path class="cls-7" d="M199.1,141.5l-81.8,52a11.31,11.31,0,0,0-3.5,15.6l2.1,3.2,84-53.4,84,53.4,2.1-3.2a11.33,11.33,0,0,0-3.5-15.6l-81.8-52A1.53,1.53,0,0,0,199.1,141.5Z"/><path class="cls-6" d="M113.5,366c2.4-.1,11.1-14.3,11.1-14.3L135.7,366h27.7l11.1-14.6,11.1,10,11.1-10c-.1-.3,11.1,14.6,11.1,14.6h27.7s10.9-14.7,11.1-14.7L257.7,366l39.7.3c4.9,13.4,14.7,25.8,25.5,36.5a101.85,101.85,0,1,0-23.6-105.9l-213.6-.5L51,330.9l36.5,35C87.3,366,98,366.6,113.5,366Zm291.1-52.2a24.25,24.25,0,1,1,.2,34.3l-.1-.1a24.26,24.26,0,0,1-.1-34.2Z"/><path class="cls-8" d="M293.6,324.1a102.23,102.23,0,0,1,9.1-35.6L92,290,57.8,324.1Z"/><path class="cls-9" d="M466.3,259.2A100.14,100.14,0,0,0,434,237.4L334.1,412.6A101.55,101.55,0,0,0,466.3,259.2ZM438.9,348a24.25,24.25,0,1,1-.2-34.3l.1.1A24.26,24.26,0,0,1,438.9,348Z"/></g></svg>