<svg xmlns="http://www.w3.org/2000/svg" xmlns:xlink="http://www.w3.org/1999/xlink" viewBox="0 0 600 600"><defs><style>.cls-1{fill:none;}.cls-2{fill:url(#Degradado_sin_nombre_164);}.cls-3{fill:#1464a5;}.cls-4{fill:url(#Degradado_sin_nombre_2);}.cls-5{fill:#49a5e6;}.cls-6{opacity:0.5;isolation:isolate;fill:url(#Degradado_sin_nombre_140);}.cls-7{fill:#2dcccd;}.cls-8{fill:#d4edfc;}</style><linearGradient id="Degradado_sin_nombre_164" x1="190.35" y1="98.86" x2="436.05" y2="560.94" gradientUnits="userSpaceOnUse"><stop offset="0" stop-color="#182548" stop-opacity="0.5"/><stop offset="1" stop-color="#182548" stop-opacity="0"/></linearGradient><linearGradient id="Degradado_sin_nombre_2" x1="476" y1="12701.05" x2="208.96" y2="12701.05" gradientTransform="matrix(1, 0, 0, -1, 0, 13010)" gradientUnits="userSpaceOnUse"><stop offset="0" stop-color="#043263" stop-opacity="0.8"/><stop offset="1" stop-color="#043263" stop-opacity="0"/></linearGradient><linearGradient id="Degradado_sin_nombre_140" x1="287.97" y1="12760" x2="373.17" y2="12674.8" gradientTransform="matrix(1, 0, 0, -1, 0, 13010)" gradientUnits="userSpaceOnUse"><stop offset="0" stop-color="#eaf9fa"/><stop offset="1" stop-color="#e9f8f9" stop-opacity="0.2"/><stop offset="1" stop-color="#eaf9fa" stop-opacity="0.5"/></linearGradient></defs><title>11</title><g id="Cuadrados_Blancos" data-name="Cuadrados Blancos"><rect class="cls-1" width="600" height="600"/><rect class="cls-1" width="600" height="600"/></g><g id="Capa_124" data-name="Capa 124"><path class="cls-2" d="M518.23,465.56A54.85,54.85,0,0,0,522.07,417l-4.17-10.44a3.88,3.88,0,0,0,1.55-3.09,4,4,0,0,0-.28-1.44L484,313.9a3.89,3.89,0,0,0-3.61-2.45h-.51l-1.36-3.39-.63-1.56-.45-1.12a157.57,157.57,0,0,0-69.47-77.94L407,227l-1.77-.95-.54-.29h0a157.37,157.37,0,0,0-76-18c-85.7,1.47-155,72.32-154.75,158a157.27,157.27,0,0,0,35.84,99.85,3.88,3.88,0,0,0-.45,5.86l15,15.11A19,19,0,0,0,238,492.19h8.21c.7.05,1.4.08,2.11.08H471.16c1,0,1.91,0,2.86-.08h10.06A31.19,31.19,0,0,0,505.17,484l13.5-12.38a3.86,3.86,0,0,0-.44-6.06Z"/><path class="cls-3" d="M428.48,258.06l-.63-1.56-.45-1.12h0a157.67,157.67,0,0,0-148.65-97.62c-85.7,1.47-155,72.32-154.75,158A157.28,157.28,0,0,0,179.12,435.3a29.46,29.46,0,0,0,19.16,7H421.16A54.78,54.78,0,0,0,472,367.11Z"/><path class="cls-4" d="M428.48,258.06l-.63-1.56-.45-1.12h0a158.14,158.14,0,0,0-72.68-79.67L209,442.19H421.19A54.78,54.78,0,0,0,472.07,367Z"/><path class="cls-5" d="M303.64,357.39H465.56a3.89,3.89,0,0,0,3.89-3.89,4,4,0,0,0-.28-1.44L434,263.9a3.89,3.89,0,0,0-3.61-2.45H288.87a29.81,29.81,0,0,0-27.63,41L276,338.78A29.82,29.82,0,0,0,303.64,357.39Z"/><path class="cls-6" d="M288.93,261.39a29.81,29.81,0,0,0-27.63,41L276,338.72a29.84,29.84,0,0,0,27.64,18.61H351l52.32-95.94Z"/><path class="cls-7" d="M188,442.19H434.08A31.19,31.19,0,0,0,455.17,434l13.5-12.38a3.89,3.89,0,0,0-2.64-6.75H162.14a3.89,3.89,0,0,0-2.75,6.63l15,15.11A19,19,0,0,0,188,442.19Z"/><circle class="cls-8" cx="291.6" cy="292.21" r="18.05"/></g></svg>