<svg xmlns="http://www.w3.org/2000/svg" xmlns:xlink="http://www.w3.org/1999/xlink" viewBox="0 0 600 600"><defs><style>.cls-1{fill:none;}.cls-2{fill:url(#Degradado_sin_nombre_7);}.cls-3{fill:#043263;}.cls-4{fill:#02a5a5;}.cls-5{fill:#028484;}.cls-6{fill:#072146;}.cls-7{fill:#56e2de;}.cls-8{fill:#2dcccd;}.cls-9{fill:url(#Degradado_sin_nombre_87);}.cls-10{fill:#49a5e6;}.cls-11{opacity:0.5;isolation:isolate;fill:url(#Degradado_sin_nombre_18);}.cls-12{fill:#d4edfc;}</style><linearGradient id="Degradado_sin_nombre_7" x1="272.71" y1="-8034.86" x2="463.87" y2="-8394.39" gradientTransform="matrix(1, 0, 0, -1, 0, -7854)" gradientUnits="userSpaceOnUse"><stop offset="0" stop-color="#192647" stop-opacity="0.5"/><stop offset="1" stop-color="#192647" stop-opacity="0"/></linearGradient><linearGradient id="Degradado_sin_nombre_87" x1="419.44" y1="-8263.27" x2="238.25" y2="-8263.27" gradientTransform="matrix(1, 0, 0, -1, 0, -7854)" gradientUnits="userSpaceOnUse"><stop offset="0" stop-color="#072146" stop-opacity="0.8"/><stop offset="1" stop-color="#072146" stop-opacity="0"/></linearGradient><linearGradient id="Degradado_sin_nombre_18" x1="291.86" y1="-8223.27" x2="349.67" y2="-8281.08" gradientTransform="matrix(1, 0, 0, -1, 0, -7854)" gradientUnits="userSpaceOnUse"><stop offset="0" stop-color="#eaf9fa"/><stop offset="1" stop-color="#e9f8f9" stop-opacity="0.2"/><stop offset="1" stop-color="#eaf9fa" stop-opacity="0.5"/></linearGradient></defs><title>13</title><g id="Cuadrados_Blancos" data-name="Cuadrados Blancos"><rect class="cls-1" width="600" height="600"/></g><g id="Capa_51" data-name="Capa 51"><path class="cls-2" d="M402.94,379.17l-.45-.34q-1.53-1.17-3.09-2.28c-.27-.2-.55-.38-.82-.57-.95-.67-1.92-1.32-2.89-2l-.88-.57c-1-.64-2-1.27-3.08-1.88l-.72-.43a106.55,106.55,0,0,0-36-12.89V325.93c31.07-6.92,60.28-9.57,92.95-7.39,32.64-19.7,43.36-23.36,81.5-35.23.15.1.3.2.44.31a.83.83,0,0,0-.08-.43h.08a.47.47,0,0,0-.1-.1C520.6,232,446.24,170.21,355,168V155.16a5,5,0,1,0-10,0V168c-91.24,2.19-165.6,63.93-174.79,115a.47.47,0,0,0-.1.1h.08a3.25,3.25,0,0,1-.08.43c.14-.11.29-.21.44-.31,38.14,11.87,48.86,15.53,81.5,35.23,32.67-2.18,61.88.47,92.95,7.39V357c-3.11-.21-6.24-.31-9.41-.25-58.15,1-105.19,49.07-105,107.23A106.56,106.56,0,0,0,255,531.7a2.65,2.65,0,0,0-.58,3.7,1.81,1.81,0,0,0,.25.3L264.87,546a12.87,12.87,0,0,0,9.13,3.79H441a21.18,21.18,0,0,0,14.31-5.56l9.16-8.4a2.65,2.65,0,0,0,.16-3.73,2.37,2.37,0,0,0-.48-.41,36.68,36.68,0,0,0,4.64-26A38.5,38.5,0,0,0,467.6,501c-.25-.76-.53-1.53-.84-2.29l-2.83-7.09a2.62,2.62,0,0,0,.88-3.08l-23.89-59.82a2.64,2.64,0,0,0-2.45-1.66h-.35l-.92-2.3c-.14-.36-.29-.71-.43-1.07l-.3-.75h0c-.55-1.34-1.14-2.67-1.75-4-.19-.43-.4-.85-.61-1.27-.43-.9-.86-1.8-1.32-2.68-.24-.48-.5-1-.75-1.44q-.66-1.24-1.35-2.46l-.81-1.41c-.49-.84-1-1.67-1.51-2.49-.26-.42-.51-.83-.78-1.24-.63-1-1.28-2-1.94-2.92l-.47-.69c-.85-1.21-1.73-2.4-2.62-3.58l-.39-.5c-.77-1-1.54-1.95-2.34-2.91-.26-.32-.54-.63-.8-1-.69-.8-1.38-1.6-2.09-2.38-.3-.34-.61-.67-.91-1-.72-.78-1.44-1.54-2.18-2.29L413,388c-.84-.84-1.69-1.65-2.55-2.46l-.6-.56Q406.51,381.93,402.94,379.17Z"/><path class="cls-3" d="M300,135.8a5,5,0,0,1-5-5V105a5,5,0,0,1,10,0v25.8A5,5,0,0,1,300,135.8Z"/><path class="cls-4" d="M120.11,233c38.5,12,49.17,15.6,81.94,35.38l97.95-137C235.62,142.36,176.4,180.08,120.11,233Z"/><path class="cls-5" d="M202.05,268.39c34.42-2.3,65,.75,97.95,8.52V131.38C257,174.05,222.68,219.23,202.05,268.39Z"/><path class="cls-4" d="M479.89,233c-38.5,12-49.17,15.6-81.94,35.38L300,131.38C364.38,142.36,423.6,180.08,479.89,233Z"/><path class="cls-5" d="M398,268.39c-34.42-2.3-65,.75-97.95,8.52V131.38C341,174.15,374.62,219.46,398,268.39Z"/><rect class="cls-6" x="295" y="175.63" width="10" height="224.38"/><path class="cls-7" d="M300,117.8c-93.84,0-171,63.51-179.89,115.66,23.93-17.22,53.79-27.3,89.94-27.64h0Q226.68,153.09,300,117.8Z"/><path class="cls-7" d="M300,117.8c93.84,0,171,63.51,179.89,115.66C456,216.24,426.1,206.16,390,205.82h0Q373.32,153.09,300,117.8Z"/><path class="cls-8" d="M300,117.8q-73.32,35.3-89.95,88c36-10.32,58.77-12.46,89.95-7.12,31.18-5.34,53.93-3.2,89.95,7.12Q373.32,153.09,300,117.8Z"/><path class="cls-3" d="M387.2,374.74l-.43-1.06-.3-.76h0A107,107,0,0,0,285.6,306.68c-58.15,1-105.19,49.07-105,107.23A106.69,106.69,0,0,0,218,495a20,20,0,0,0,13,4.73H382.23a37.19,37.19,0,0,0,34.53-51Z"/><path class="cls-9" d="M387.2,374.74l-.43-1.06-.3-.76h0a107.33,107.33,0,0,0-49.32-54.06l-98.9,180.82h144a37.19,37.19,0,0,0,34.53-51Z"/><path class="cls-10" d="M302.49,442.14H412.36A2.64,2.64,0,0,0,415,439.5a2.71,2.71,0,0,0-.19-1L390.92,378.7a2.64,2.64,0,0,0-2.45-1.66h-96a20.22,20.22,0,0,0-18.75,27.84l10,24.63A20.25,20.25,0,0,0,302.49,442.14Z"/><path class="cls-11" d="M292.51,377a20.22,20.22,0,0,0-18.75,27.84l10,24.63a20.24,20.24,0,0,0,18.75,12.63h32.14l35.5-65.1Z"/><path class="cls-8" d="M224,499.68H391a21.18,21.18,0,0,0,14.31-5.56l9.16-8.4a2.64,2.64,0,0,0-1.79-4.58H206.48a2.64,2.64,0,0,0-1.87,4.5l10.21,10.25A12.9,12.9,0,0,0,224,499.68Z"/><circle class="cls-12" cx="294.32" cy="397.91" r="12.25"/></g></svg>