<svg id="Capa_1" data-name="Capa 1" xmlns="http://www.w3.org/2000/svg" xmlns:xlink="http://www.w3.org/1999/xlink" viewBox="0 0 600 600"><defs><style>.cls-1{fill:url(#Degradado_sin_nombre_3);}.cls-2{fill:#2dcccd;}.cls-3{fill:none;}.cls-4{fill:#ffdf8a;}.cls-5{fill:#ffce44;}.cls-6{fill:#c49735;}.cls-7{fill:url(#Degradado_sin_nombre_7);}</style><linearGradient id="Degradado_sin_nombre_3" x1="250.04" y1="400.11" x2="409.97" y2="700.89" gradientTransform="translate(0 -241.89)" gradientUnits="userSpaceOnUse"><stop offset="0" stop-color="#1c2645"/><stop offset="0" stop-color="#1c2645" stop-opacity="0.5"/><stop offset="1" stop-color="#1c2645" stop-opacity="0"/></linearGradient><linearGradient id="Degradado_sin_nombre_7" x1="225.94" y1="229.1" x2="324.26" y2="327.42" gradientUnits="userSpaceOnUse"><stop offset="0" stop-color="#fff" stop-opacity="0.4"/><stop offset="1" stop-color="#fff" stop-opacity="0.1"/></linearGradient></defs><path class="cls-1" d="M570.3,307.6,518.8,256a12.31,12.31,0,0,0-17.4,17.4L532,304H449.5a107.63,107.63,0,0,0-200.6,73.6H175.3L205.9,347a12.31,12.31,0,0,0-17.1-17.7l-.3.3L137,381.2a12.31,12.31,0,0,0,0,17.4l51.5,51.5A12.31,12.31,0,0,0,206.2,433l-.3-.3-30.6-30.6h82.6a108.75,108.75,0,0,0,19.2,26.5l.4.4.6.6a107.28,107.28,0,0,0,25.3,18.6h0a107.57,107.57,0,0,0,158-95.1,105.83,105.83,0,0,0-2.8-24.5H532l-30.6,30.6a12.31,12.31,0,0,0,17.4,17.4l51.5-51.5A12.43,12.43,0,0,0,570.3,307.6Z"/><path class="cls-2" d="M451.4,326.4a12.31,12.31,0,0,1,0-17.4l42.9-42.9-42.9-42.9a12.31,12.31,0,0,1,17.4-17.4l51.5,51.5a12.31,12.31,0,0,1,0,17.4l-51.5,51.5A12.14,12.14,0,0,1,451.4,326.4Z"/><path class="cls-2" d="M367.7,253.9H486.5a10,10,0,0,1,10,10v4.5a10,10,0,0,1-10,10H367.7a10,10,0,0,1-10-10v-4.5A10,10,0,0,1,367.7,253.9Z"/><path class="cls-2" d="M155.9,279.5a12.31,12.31,0,0,1,0,17.4L113,339.8l42.9,42.9a12.3,12.3,0,0,1-17.4,17.4L87,348.4A12.31,12.31,0,0,1,87,331l51.5-51.5a12.31,12.31,0,0,1,17.4,0Z"/><path class="cls-2" d="M239.6,352H120.8a10,10,0,0,1-10-10v-4.5a10,10,0,0,1,10-10H239.6a10,10,0,0,1,10,10V342A10,10,0,0,1,239.6,352Z"/><rect class="cls-3" width="600" height="600"/><path class="cls-4" d="M411.28,303.57A107.62,107.62,0,0,1,303.73,411.19C244.44,411.19,196,362.88,196,303.56A107.73,107.73,0,0,1,303.57,195.92h0A107.66,107.66,0,0,1,411.28,303.53v0"/><path class="cls-5" d="M303.72,388.23a84.68,84.68,0,1,1,84.6-84.69,84.8,84.8,0,0,1-84.6,84.69Z"/><path class="cls-6" d="M303.63,223.91a79.44,79.44,0,1,1-.05,0h.05m0-10h-.05a89.7,89.7,0,1,0,89.76,89.71v0a89.71,89.71,0,0,0-89.71-89.67Z"/><path class="cls-7" d="M303.57,195.92a107.59,107.59,0,0,0-50.42,202.61l101-190A107.08,107.08,0,0,0,303.57,195.92Z"/></svg>