<svg xmlns="http://www.w3.org/2000/svg" xmlns:xlink="http://www.w3.org/1999/xlink" viewBox="0 0 600 600"><defs><style>.cls-1{fill:none;}.cls-2{fill:url(#Degradado_sin_nombre_49);}.cls-3{fill:#2dcccd;}.cls-4{fill:#f8cd51;}.cls-5{fill:url(#Degradado_sin_nombre_13);}.cls-6{fill:#fef5dc;}</style><linearGradient id="Degradado_sin_nombre_49" x1="246.06" y1="148.63" x2="414.08" y2="464.62" gradientUnits="userSpaceOnUse"><stop offset="0" stop-color="#1c2645" stop-opacity="0.5"/><stop offset="1" stop-color="#1c2645" stop-opacity="0"/></linearGradient><linearGradient id="Degradado_sin_nombre_13" x1="208.95" y1="-48.25" x2="302.21" y2="-97.82" gradientTransform="matrix(1, 0, 0, -1, 0, 202)" gradientUnits="userSpaceOnUse"><stop offset="0" stop-color="#fff" stop-opacity="0.6"/><stop offset="1" stop-color="#fff" stop-opacity="0.2"/></linearGradient></defs><g id="Cuadrados_Blancos" data-name="Cuadrados Blancos"><rect class="cls-1" width="600" height="600"/></g><g id="Capa_9" data-name="Capa 9"><path class="cls-2" d="M582.52,305.57l-54.11-54.21a12.93,12.93,0,0,0-18.28,18.28l32.15,32.14H455.61A113.07,113.07,0,0,0,244.87,379.1H167.55L199.69,347a12.93,12.93,0,0,0-18-18.6l-.32.32-54.1,54.21a12.94,12.94,0,0,0,0,18.28l54.1,54.1a12.93,12.93,0,0,0,18.6-18l-.32-.32-32.14-32.15h86.77a114.34,114.34,0,0,0,20.17,27.84l.42.42.63.63a112.35,112.35,0,0,0,26.58,19.54h0c55.05,29.31,123.44,8.3,152.75-46.75a113.15,113.15,0,0,0,13.24-53.15,111,111,0,0,0-2.94-25.74h77.11l-32.15,32.14a12.93,12.93,0,0,0,18.28,18.28L582.52,324A13.06,13.06,0,0,0,582.52,305.57Z"/><path class="cls-3" d="M457.61,324.62a12.92,12.92,0,0,1,0-18.28l45.07-45.07L457.61,216.2a12.93,12.93,0,0,1,18.28-18.28L530,252a12.94,12.94,0,0,1,0,18.28l-54.1,54.11A12.76,12.76,0,0,1,457.61,324.62Z"/><path class="cls-3" d="M369.67,248.45H494.48A10.54,10.54,0,0,1,505,259v4.73a10.54,10.54,0,0,1-10.51,10.5H369.67a10.54,10.54,0,0,1-10.5-10.5V259A10.54,10.54,0,0,1,369.67,248.45Z"/><path class="cls-3" d="M147.17,275.35a12.94,12.94,0,0,1,0,18.28L102.1,338.7l45.07,45.06A12.93,12.93,0,0,1,128.89,402L74.78,347.73a12.94,12.94,0,0,1,0-18.28l54.11-54.1a12.92,12.92,0,0,1,18.28,0Z"/><path class="cls-3" d="M235.1,351.51H110.29A10.53,10.53,0,0,1,99.79,341v-4.73a10.53,10.53,0,0,1,10.5-10.51H235.1a10.53,10.53,0,0,1,10.5,10.51V341A10.53,10.53,0,0,1,235.1,351.51Z"/><path class="cls-4" d="M415,300.13A112.55,112.55,0,0,1,302.52,412.68c-62,0-112.64-50.52-112.64-112.56A112.65,112.65,0,0,1,302.35,187.55h0A112.59,112.59,0,0,1,415,300.09v0"/><path class="cls-5" d="M355.16,200.52c-54.78-29.13-122.7-8.12-152.11,46.54s-8.26,123.09,46.51,152.22Z"/><path class="cls-6" d="M316.22,322.11c0-7.43-2.94-10.37-16.84-16.72-20.13-9.14-26.17-16.11-26.17-30.2,0-13.77,11.31-23.84,22.77-26.78v-17h.61l16.53,7.32v9.44a42.4,42.4,0,0,1,14.86,5.1l.78.47.61.31-.15.63-.15.92-2.18,13-.46,2.48-.31,1.7-1.39-.93-2-1.55a29.81,29.81,0,0,0-18.58-6.51c-8.68,0-13.33,3.88-13.33,10.39,0,6.18,3.1,9,16.73,15.32,20.28,9.14,26.64,16.57,26.64,31.59,0,13.94-9.76,24.31-21.22,27.87v19.63H311.6l-15.79-8.82v-9.6c-5.74-.77-15.95-2.95-22.45-6.35l-.93-.46-.62-.32v-.61l.16-1.13L273.82,328l.31-2.32.15-1.55,1.24.93,1.86,1.23A45,45,0,0,0,301.23,334c9.13,0,15-4.49,15-11.92"/></g></svg>