<?xml version="1.0" encoding="utf-8"?>
<!-- Generator: Adobe Illustrator 23.0.1, SVG Export Plug-In . SVG Version: 6.00 Build 0)  -->
<svg version="1.1" id="Contenido" xmlns="http://www.w3.org/2000/svg" xmlns:xlink="http://www.w3.org/1999/xlink" x="0px" y="0px"
	 viewBox="0 0 600 600" style="enable-background:new 0 0 600 600;" xml:space="preserve">
<style type="text/css">
	.st0{fill:url(#SVGID_1_);}
	.st1{fill:#2DCCCD;}
	.st2{fill:#EECC67;}
	.st3{fill:url(#SVGID_2_);}
	.st4{fill:#FBF3DC;}
</style>
<title>API_MARKET</title>
<linearGradient id="SVGID_1_" gradientUnits="userSpaceOnUse" x1="250.052" y1="441.7904" x2="409.982" y2="141.0104" gradientTransform="matrix(1 0 0 -1 0 600)">
	<stop  offset="0" style="stop-color:#1C2645"/>
	<stop  offset="0" style="stop-color:#1C2645;stop-opacity:0.5"/>
	<stop  offset="1" style="stop-color:#1C2645;stop-opacity:0"/>
</linearGradient>
<path class="st0" d="M570.3,307.6L518.8,256c-4.9-4.7-12.6-4.6-17.4,0.3c-4.6,4.8-4.6,12.3,0,17.1L532,304h-82.5
	c-27.1-52.9-91.9-73.9-144.8-46.8c-44.1,22.5-67.1,72.2-55.8,120.4h-73.6l30.6-30.6c4.9-4.7,5-12.5,0.3-17.4s-12.5-5-17.4-0.3
	c-0.1,0.1-0.2,0.2-0.3,0.3L137,381.2c-4.8,4.8-4.8,12.6,0,17.4l51.5,51.5c4.7,4.9,12.5,5,17.4,0.3s5-12.5,0.3-17.4
	c-0.1-0.1-0.2-0.2-0.3-0.3l-30.6-30.6h82.6c5,9.7,11.5,18.7,19.2,26.5l0.4,0.4l0.6,0.6c7.5,7.4,16,13.7,25.3,18.6l0,0
	c52.4,27.9,117.5,7.9,145.4-44.5c8.3-15.6,12.6-33,12.6-50.6c0-8.3-0.9-16.5-2.8-24.5H532l-30.6,30.6c-4.7,4.9-4.6,12.6,0.3,17.4
	c4.8,4.6,12.3,4.6,17.1,0l51.5-51.5C575.1,320.1,575.1,312.3,570.3,307.6z"/>
<path class="st1" d="M451.4,326.4c-4.8-4.8-4.8-12.6,0-17.4l42.9-42.9l-42.9-42.9c-4.7-4.9-4.6-12.6,0.3-17.4
	c4.8-4.6,12.3-4.6,17.1,0l51.5,51.5c4.8,4.8,4.8,12.6,0,17.4l-51.5,51.5C464,331.2,456.2,331.2,451.4,326.4z"/>
<path class="st1" d="M367.7,253.9h118.8c5.5,0,10,4.5,10,10v4.5c0,5.5-4.5,10-10,10H367.7c-5.5,0-10-4.5-10-10v-4.5
	C357.7,258.4,362.2,253.9,367.7,253.9z"/>
<path class="st1" d="M155.9,279.5c4.8,4.8,4.8,12.6,0,17.4l-42.9,42.9l42.9,42.9c4.8,4.8,4.8,12.6,0,17.4c-4.8,4.8-12.6,4.8-17.4,0
	L87,348.4c-4.8-4.8-4.8-12.6,0-17.4l51.5-51.5C143.3,274.7,151.1,274.7,155.9,279.5C155.9,279.5,155.9,279.5,155.9,279.5z"/>
<path class="st1" d="M239.6,352H120.8c-5.5,0-10-4.5-10-10v-4.5c0-5.5,4.5-10,10-10h118.8c5.5,0,10,4.5,10,10v4.5
	C249.6,347.5,245.1,352,239.6,352z"/>
<path class="st2" d="M411.3,303c0,59.4-48.2,107.6-107.5,107.6C244.5,410.6,196,362.3,196,303s48.3-107.6,107.5-107.6l0,0
	C363,195.3,411.3,243.5,411.3,303C411.3,303,411.3,303,411.3,303"/>
<linearGradient id="SVGID_2_" gradientUnits="userSpaceOnUse" x1="230.4957" y1="-33.4895" x2="322.8157" y2="-125.8096" gradientTransform="matrix(1 0 0 -1 0 200)">
	<stop  offset="1.000000e-02" style="stop-color:#FFFFFF;stop-opacity:0.4"/>
	<stop  offset="1" style="stop-color:#FFFFFF;stop-opacity:0.1"/>
</linearGradient>
<path class="st3" d="M352.7,207.2c-52.9-27.1-117.7-6.2-144.8,46.6c-26.6,51.8-7.1,115.3,43.8,143.4L352.7,207.2z"/>
<path class="st4" d="M266,299h-14.6v-11h16c4.5-24.9,19.9-36.3,37.9-36.3c18.9,0,29,9.7,33.9,21.9l-14,7.9
	c-3.5-10.4-9.5-15.3-19.9-15.3c-11,0-18.9,7.1-21.7,21.8h24.9v11h-26v3.5c0,2,0,4,0.2,5.8h26v11.2h-24.7
	c2.8,13.7,9.7,20.8,21.7,20.8c10.4,0,16.6-4.6,20.4-16.2l13.7,8.2c-5.6,12.9-17.1,22.1-34.3,22.1c-18.6,0-33.3-11-37.9-34.9h-16.2
	v-11.2h14.8c-0.2-1.8-0.2-3.6-0.2-5.4L266,299L266,299z"/>
</svg>
