<svg xmlns="http://www.w3.org/2000/svg" xmlns:xlink="http://www.w3.org/1999/xlink" viewBox="0 0 600 600"><defs><style>.cls-1{fill:none;}.cls-2{fill:url(#Degradado_sin_nombre_473);}.cls-3{fill:#2dcccd;}.cls-4{fill:url(#Degradado_sin_nombre_86);}.cls-5{fill:#043263;}.cls-6{fill:#f0cd66;}.cls-7{fill:#004481;}.cls-8{fill:#d4edfc;}.cls-9{fill:#bbe6e7;}.cls-10{fill:#02a5a5;}.cls-11{fill:url(#Degradado_sin_nombre_86-2);}</style><linearGradient id="Degradado_sin_nombre_473" x1="252.43" y1="461.48" x2="447.71" y2="94.22" gradientTransform="matrix(1, 0, 0, -1, 0, 590)" gradientUnits="userSpaceOnUse"><stop offset="0" stop-color="#192647" stop-opacity="0.5"/><stop offset="1" stop-color="#192647" stop-opacity="0"/></linearGradient><linearGradient id="Degradado_sin_nombre_86" x1="471.03" y1="272.37" x2="304.36" y2="272.37" gradientTransform="matrix(1, 0, 0, -1, 0, 590)" gradientUnits="userSpaceOnUse"><stop offset="0.01" stop-color="#028484" stop-opacity="0.6"/><stop offset="1" stop-color="#028484" stop-opacity="0"/></linearGradient><linearGradient id="Degradado_sin_nombre_86-2" x1="342.48" y1="391.38" x2="245.7" y2="391.38" xlink:href="#Degradado_sin_nombre_86"/></defs><title>11</title><g id="Cuadrados_Blancos" data-name="Cuadrados Blancos"><rect class="cls-1" width="600" height="600"/></g><g id="Capa_56" data-name="Capa 56"><path class="cls-2" d="M523.79,416.17,468,262.87h0l-1.82-5a3.36,3.36,0,0,0-4.3-2h0l-68.45,24.91a3.17,3.17,0,0,0,2-2.79,3.34,3.34,0,0,0-.19-1.25l-32.12-88.18-.64-1.78a3.19,3.19,0,0,0-4.08-1.89h0l-90,32.74a3.19,3.19,0,0,0-1.9,4.07l-9.88-27.09h0L241.1,187.3a4,4,0,0,0-5.28,1.87v0l-14.1-6.58a3.17,3.17,0,0,0-1.53-4.22h0l-31.33-14.61a3.17,3.17,0,0,0-4.23,1.52v0l-5.37,11.51a3.19,3.19,0,0,0,1.52,4.23h0l31.34,14.61a3.17,3.17,0,0,0,4.23-1.52h0l14.11,6.56-.24.51a4,4,0,0,0,1.88,5.28l0,0,7.65,3.57,38,104.37-13,4.56a3.17,3.17,0,0,0-1.89,4.06l3.62,10a3.18,3.18,0,0,0,4.07,1.9h0l12.93-4.71h0l45,123.59a46.6,46.6,0,1,0,71.71,33.46l89.74-32.67a3.17,3.17,0,0,0,1.9-4.07l-5.07-13.93a3.17,3.17,0,0,0-4.07-1.9h0l39.07-14.21a3.51,3.51,0,0,0,1.51-1.13A3.35,3.35,0,0,0,523.79,416.17Z"/><path class="cls-3" d="M247.43,261.67l161.48-58.78a3.38,3.38,0,0,1,4.31,2h0l57.62,158.31a3.37,3.37,0,0,1-2,4.31h0L310.51,425.14a3.36,3.36,0,0,1-4.31-2h0L247.43,261.67Z"/><path class="cls-4" d="M470.83,363.22,415,209.91,304.36,418.07l1.84,5.06a3.36,3.36,0,0,0,4.3,2l158.33-57.62A3.37,3.37,0,0,0,470.83,363.22Z"/><rect class="cls-5" x="156.22" y="107.34" width="12.71" height="52.96" transform="translate(-27.42 224.61) rotate(-65)"/><rect class="cls-6" x="138" y="106.33" width="19.07" height="40.94" rx="3.18" transform="translate(-29.73 206.92) rotate(-65)"/><path class="cls-7" d="M203.73,141.64l-15.59-7.29a4,4,0,0,0-5.28,1.87v0l-5.61,12a4,4,0,0,0,1.91,5.29h0l7.65,3.57L291.11,443.49,311,436.21,203.73,141.63Z"/><path class="cls-7" d="M297.38,429.91l132.38-48.18a3.17,3.17,0,0,1,4.07,1.9l5.07,13.93a3.19,3.19,0,0,1-1.89,4.08L304.63,449.82h0l-7.25-19.91Z"/><path class="cls-5" d="M257.21,455.81A46.61,46.61,0,1,1,317,483.66h0A46.61,46.61,0,0,1,257.21,455.81Z"/><circle class="cls-8" cx="301.02" cy="439.87" r="22.24"/><path class="cls-5" d="M217.63,282l12.93-4.72-5.79-15.89-12.94,4.72a3.17,3.17,0,0,0-1.9,4.07Z"/><polygon class="cls-9" points="351.19 223.89 308.33 239.49 316.82 262.76 316.8 262.81 324.12 266.23 327.52 258.92 327.52 258.92 327.52 258.92 327.52 258.92 334.84 262.32 338.25 255.01 338.25 255.01 338.25 255.01 338.25 255.01 345.57 258.42 348.97 251.11 348.97 251.11 348.98 251.11 348.97 251.11 356.29 254.51 359.7 247.2 359.7 247.2 359.7 247.2 351.19 223.89"/><path class="cls-10" d="M215.52,164.65l90-32.74a3.17,3.17,0,0,1,4.07,1.9l32.75,89.95a3.17,3.17,0,0,1-1.9,4.07l-92.95,33.83h0l-33.82-92.94A3.17,3.17,0,0,1,215.52,164.65Z"/><path class="cls-11" d="M342.29,223.76l-32.12-88.18L245.7,256.87l1.75,4.79,92.94-33.83A3.18,3.18,0,0,0,342.29,223.76Z"/><polygon class="cls-9" points="272.99 143.73 248.02 152.82 252.98 166.38 252.95 166.41 257.22 168.4 259.2 164.13 259.2 164.13 259.2 164.13 259.2 164.13 263.47 166.12 265.45 161.86 265.45 161.86 265.45 161.86 265.45 161.86 269.72 163.84 271.7 159.59 271.7 159.59 271.7 159.59 271.7 159.59 275.96 161.57 277.95 157.31 277.95 157.31 277.95 157.31 272.99 143.73"/></g></svg>