<svg id="Contenido" xmlns="http://www.w3.org/2000/svg" xmlns:xlink="http://www.w3.org/1999/xlink" viewBox="0 0 600 600"><defs><style>.cls-1{fill:url(#Degradado_sin_nombre_10);}.cls-2{fill:#2dcccd;}.cls-3{fill:url(#Degradado_sin_nombre_4);}.cls-4{fill:#043263;}.cls-5{fill:#f0cd66;}.cls-6{fill:#1464a5;}.cls-7{fill:#d4edfc;}.cls-8{fill:#bbe6e7;}.cls-9{fill:#02a5a5;}.cls-10{fill:url(#Degradado_sin_nombre_4-2);}</style><linearGradient id="Degradado_sin_nombre_10" x1="256.53" y1="139.54" x2="440.87" y2="486.23" gradientUnits="userSpaceOnUse"><stop offset="0.01" stop-color="#043263" stop-opacity="0.5"/><stop offset="1" stop-color="#043263" stop-opacity="0"/></linearGradient><linearGradient id="Degradado_sin_nombre_4" x1="462.88" y1="318.04" x2="305.51" y2="318.04" gradientUnits="userSpaceOnUse"><stop offset="0.01" stop-color="#028484" stop-opacity="0.6"/><stop offset="1" stop-color="#028484" stop-opacity="0"/></linearGradient><linearGradient id="Degradado_sin_nombre_4-2" x1="341.5" y1="205.68" x2="250.13" y2="205.68" xlink:href="#Degradado_sin_nombre_4"/></defs><title>_</title><path class="cls-1" d="M512.68,411.08,460,266.34h0l-1.72-4.73a3.17,3.17,0,0,0-4.07-1.9l-64.62,23.52a3,3,0,0,0,1.91-2.63,3,3,0,0,0-.18-1.18L361,196.17l-.61-1.68a3,3,0,0,0-3.85-1.79l-84.92,30.91a3,3,0,0,0-1.79,3.84l-9.33-25.57h0L245.79,195a3.74,3.74,0,0,0-5,1.79l-13.31-6.21a3,3,0,0,0-1.46-4l-29.58-13.79a3,3,0,0,0-4,1.45l-5.07,10.87a3,3,0,0,0,1.45,4l29.59,13.8a3,3,0,0,0,4-1.45l13.32,6.2-.22.48a3.74,3.74,0,0,0,1.81,5l7.22,3.37,35.86,98.54-12.27,4.3a3,3,0,0,0-1.79,3.84l3.42,9.4a3,3,0,0,0,3.85,1.79l12.21-4.45h0l42.47,116.68A44,44,0,1,0,396,478.2l84.72-30.84a3,3,0,0,0,1.8-3.84l-4.79-13.16a3,3,0,0,0-3.85-1.79l36.88-13.42a3.26,3.26,0,0,0,1.43-1.06A3.16,3.16,0,0,0,512.68,411.08Z"/><path class="cls-2" d="M275.06,231.93H437.3a3.17,3.17,0,0,1,3.17,3.17V394.16a3.17,3.17,0,0,1-3.17,3.17H278.23a3.17,3.17,0,0,1-3.17-3.17V231.93A0,0,0,0,1,275.06,231.93Z" transform="translate(-86.03 141.34) rotate(-20)"/><path class="cls-3" d="M462.68,361.08,410,216.34,305.51,412.87l1.74,4.78a3.17,3.17,0,0,0,4.06,1.9l149.48-54.4A3.18,3.18,0,0,0,462.68,361.08Z"/><rect class="cls-4" x="146.66" y="138.51" width="50" height="12" transform="translate(77.15 -59.01) rotate(25)"/><rect class="cls-5" x="138.13" y="128.88" width="38.65" height="18" rx="3" transform="translate(73.02 -53.63) rotate(25)"/><path class="cls-6" d="M210.51,151.89,195.79,145a3.74,3.74,0,0,0-5,1.81l-5.29,11.33a3.75,3.75,0,0,0,1.82,5l7.22,3.37L293,436.87,311.75,430,210.51,151.88Z"/><path class="cls-6" d="M298.25,400.19h133a3,3,0,0,1,3,3v14a3,3,0,0,1-3,3h-133a0,0,0,0,1,0,0v-20A0,0,0,0,1,298.25,400.19Z" transform="translate(-118.21 150) rotate(-20)"/><path class="cls-4" d="M261,448.5a44,44,0,1,1,56.39,26.3A44,44,0,0,1,261,448.5Z"/><circle class="cls-7" cx="302.36" cy="433.45" r="21"/><path class="cls-4" d="M223.63,284.39l12.21-4.45-5.47-15-12.22,4.45a3,3,0,0,0-1.79,3.84"/><polygon class="cls-8" points="349.73 229.54 309.26 244.27 317.28 266.24 317.26 266.29 324.17 269.51 327.38 262.61 327.38 262.61 327.38 262.61 327.38 262.61 334.29 265.82 337.51 258.92 337.51 258.92 337.51 258.92 337.51 258.92 344.42 262.14 347.63 255.24 347.63 255.24 347.64 255.24 347.63 255.24 354.54 258.45 357.76 251.55 357.76 251.55 357.76 251.55 349.73 229.54"/><path class="cls-9" d="M235.39,155.25h90.38a3,3,0,0,1,3,3v90.38a3,3,0,0,1-3,3H232.39a0,0,0,0,1,0,0V158.25a3,3,0,0,1,3-3Z" transform="translate(-52.66 108.23) rotate(-20)"/><path class="cls-10" d="M341.32,229.42,311,146.17,250.13,260.68l1.65,4.52,87.75-31.94A3,3,0,0,0,341.32,229.42Z"/><polygon class="cls-8" points="275.9 153.86 252.32 162.44 257 175.24 256.98 175.27 261.01 177.15 262.88 173.12 262.88 173.12 262.88 173.12 262.88 173.12 266.91 175 268.78 170.98 268.78 170.98 268.78 170.98 268.78 170.98 272.81 172.85 274.68 168.83 274.68 168.83 274.68 168.83 274.68 168.83 278.7 170.7 280.58 166.68 280.58 166.68 280.58 166.68 275.9 153.86"/></svg>