<svg id="Capa_1" data-name="Capa 1" xmlns="http://www.w3.org/2000/svg" xmlns:xlink="http://www.w3.org/1999/xlink" viewBox="0 0 600 600"><defs><style>.cls-1{fill:url(#Degradado_sin_nombre);}.cls-2{fill:#043263;}.cls-3{fill:url(#Degradado_sin_nombre_10);}.cls-4{fill:#49a5e6;}.cls-5{opacity:0.5;}.cls-6{fill:url(#Degradado_sin_nombre_4);}.cls-7{fill:#eaf9fa;}.cls-8{fill:#2dcccd;}.cls-9{fill:#eb5e62;}.cls-10{fill:#d8be75;}.cls-11{fill:url(#Degradado_sin_nombre_5);}.cls-12{fill:url(#Degradado_sin_nombre_6);}.cls-13{fill:url(#Degradado_sin_nombre_7);}.cls-14{fill:none;}</style><linearGradient id="Degradado_sin_nombre" x1="224.46" y1="116.03" x2="453.42" y2="546.64" gradientUnits="userSpaceOnUse"><stop offset="0" stop-color="#192647"/><stop offset="0" stop-color="#192647" stop-opacity="0.5"/><stop offset="1" stop-color="#192647" stop-opacity="0"/></linearGradient><linearGradient id="Degradado_sin_nombre_10" x1="453.28" y1="835.57" x2="294.65" y2="835.57" gradientTransform="translate(0 -480)" gradientUnits="userSpaceOnUse"><stop offset="0" stop-color="#072146" stop-opacity="0.6"/><stop offset="1" stop-color="#072146" stop-opacity="0"/></linearGradient><linearGradient id="Degradado_sin_nombre_4" x1="176.77" y1="627.4" x2="285.68" y2="685.3" gradientTransform="translate(0 -480)" gradientUnits="userSpaceOnUse"><stop offset="0" stop-color="#eaf9fa"/><stop offset="1" stop-color="#eaf9fa" stop-opacity="0.2"/><stop offset="1" stop-color="#eaf9fa" stop-opacity="0.5"/></linearGradient><linearGradient id="Degradado_sin_nombre_5" x1="-14964.82" y1="283.32" x2="-14996.76" y2="266.34" gradientTransform="translate(-14781.18 706) rotate(180)" gradientUnits="userSpaceOnUse"><stop offset="0" stop-color="#eaf9fa" stop-opacity="0.4"/><stop offset="1" stop-color="#eaf9fa" stop-opacity="0.1"/><stop offset="1" stop-color="#eaf9fa" stop-opacity="0.5"/></linearGradient><linearGradient id="Degradado_sin_nombre_6" x1="-15046.78" y1="283.32" x2="-15078.72" y2="266.34" gradientTransform="translate(-14781.18 706) rotate(180)" gradientUnits="userSpaceOnUse"><stop offset="0" stop-color="#eaf9fa" stop-opacity="0.7"/><stop offset="1" stop-color="#eaf9fa" stop-opacity="0.1"/><stop offset="1" stop-color="#eaf9fa" stop-opacity="0.5"/></linearGradient><linearGradient id="Degradado_sin_nombre_7" x1="-15127.42" y1="283.32" x2="-15159.36" y2="266.34" xlink:href="#Degradado_sin_nombre_5"/></defs><path class="cls-1" d="M493.71,155.43a30.41,30.41,0,0,0-30.4-30.4h-246a30.4,30.4,0,0,0-30.4,30.4V512.36a30.41,30.41,0,0,0,30.4,30.4H335l-.08.13H463.31a30.54,30.54,0,0,0,30.4-30.53Z"/><g id="Contenido"><path class="cls-2" d="M423,502.77H177a30.41,30.41,0,0,1-30.4-30.4h0V115.44A30.4,30.4,0,0,1,177,85H423a30.4,30.4,0,0,1,30.4,30.4h0V472.37a30.32,30.32,0,0,1-30.4,30.4Z"/><path class="cls-3" d="M294.65,502.9H423a30.26,30.26,0,0,0,30.27-30.27h0V208.24Z"/><path class="cls-4" d="M191.53,124.17h216.8a3.89,3.89,0,0,1,4,4V255a3.89,3.89,0,0,1-4,4H191.53a3.89,3.89,0,0,1-4-4V128.13A4,4,0,0,1,191.53,124.17Z"/><g class="cls-5"><path class="cls-6" d="M191.27,124.17a3.55,3.55,0,0,0-3.57,3.57h0V255.3a3.55,3.55,0,0,0,3.57,3.57H257L328.88,124H191.27Z"/></g><path class="cls-7" d="M191.53,280.16h52.88a3.89,3.89,0,0,1,4,4v41a3.9,3.9,0,0,1-4,4H191.53a3.9,3.9,0,0,1-4-4v-41A4,4,0,0,1,191.53,280.16Z"/><path class="cls-7" d="M273.5,280.16h52.87a3.89,3.89,0,0,1,4,4v41a3.9,3.9,0,0,1-4,4H273.5a3.9,3.9,0,0,1-4-4v-41A4,4,0,0,1,273.5,280.16Z"/><path class="cls-7" d="M354.13,280.16H407a3.89,3.89,0,0,1,4,4v41a3.9,3.9,0,0,1-4,4H354.13a3.9,3.9,0,0,1-4-4v-41A4,4,0,0,1,354.13,280.16Z"/><path class="cls-7" d="M191.53,346.25h52.88a3.9,3.9,0,0,1,4,4v41a3.89,3.89,0,0,1-4,4H191.53a3.89,3.89,0,0,1-4-4v-41A4,4,0,0,1,191.53,346.25Z"/><path class="cls-7" d="M273.5,346.25h52.87a3.9,3.9,0,0,1,4,4v41a3.89,3.89,0,0,1-4,4H273.5a3.89,3.89,0,0,1-4-4v-41A4,4,0,0,1,273.5,346.25Z"/><path class="cls-7" d="M354.13,346.25H407a3.9,3.9,0,0,1,4,4v41a3.89,3.89,0,0,1-4,4H354.13a3.89,3.89,0,0,1-4-4v-41A4,4,0,0,1,354.13,346.25Z"/><path class="cls-8" d="M354.13,412.35H407a3.9,3.9,0,0,1,4,4v41a3.9,3.9,0,0,1-4,4H354.13a3.89,3.89,0,0,1-4-4v-41A4,4,0,0,1,354.13,412.35Z"/><path class="cls-9" d="M191.53,412.35h52.88a3.9,3.9,0,0,1,4,4v41a3.9,3.9,0,0,1-4,4H191.53a3.89,3.89,0,0,1-4-4v-41A4,4,0,0,1,191.53,412.35Z"/><path class="cls-10" d="M273.5,412.35h52.87a3.9,3.9,0,0,1,4,4v41a3.9,3.9,0,0,1-4,4H273.5a3.9,3.9,0,0,1-4-4v-41A4,4,0,0,1,273.5,412.35Z"/><path class="cls-11" d="M191.53,461.26h12.56l25.78-48.91H191.53a3.9,3.9,0,0,0-4,4v41a4,4,0,0,0,4,4Z"/><path class="cls-12" d="M273.5,461.26h12.55l25.78-48.91H273.5a3.9,3.9,0,0,0-4,4v41a4,4,0,0,0,4,4Z"/><path class="cls-13" d="M354.13,461.26h12.56l25.78-48.91H354.13a3.9,3.9,0,0,0-4,4v41a4,4,0,0,0,4,4Z"/></g><rect class="cls-14" width="600" height="600"/></svg>