<svg id="Contenido" xmlns="http://www.w3.org/2000/svg" xmlns:xlink="http://www.w3.org/1999/xlink" viewBox="0 0 600 600"><defs><style>.cls-1{fill:url(#Degradado_sin_nombre_23);}.cls-2{fill:#49a5e6;}.cls-3{fill:#1464a5;}.cls-4{fill:#e87d8e;}.cls-5{fill:#f6e0e0;}.cls-6{fill:url(#Degradado_sin_nombre_22);}</style><linearGradient id="Degradado_sin_nombre_23" x1="256.43" y1="184.91" x2="426.54" y2="504.83" gradientUnits="userSpaceOnUse"><stop offset="0" stop-color="#192647"/><stop offset="0" stop-color="#192647" stop-opacity="0.5"/><stop offset="1" stop-color="#192647" stop-opacity="0"/></linearGradient><linearGradient id="Degradado_sin_nombre_22" x1="465" y1="270.55" x2="278.98" y2="270.55" gradientUnits="userSpaceOnUse"><stop offset="0" stop-color="#b14f60" stop-opacity="0.6"/><stop offset="0.16" stop-color="#b14f60" stop-opacity="0.55"/><stop offset="0.44" stop-color="#b14f60" stop-opacity="0.4"/><stop offset="0.79" stop-color="#b14f60" stop-opacity="0.16"/><stop offset="1" stop-color="#b14f60" stop-opacity="0"/></linearGradient></defs><title>values-day</title><path class="cls-1" d="M505,350.65a47.29,47.29,0,0,0-5-21.53,48.84,48.84,0,0,0-35.69-25.57,2,2,0,0,1-1-3.54c9.91-8.22,15.29-22.75,15.51-36.87.13-8.44-1.58-16.73-5.27-23.45-10.72-19.55-33.39-34.89-54.25-42.75-7.14-2.69-13.79-4.83-20-6.54l-.26-.07c-1.05-.29-2.09-.57-3.12-.83h0c-29.47-7.57-48.21-5-56.65-2.92a2,2,0,0,0-.37,3.73c6.16,3.05,15.49,9.39,10.9,18.4-7.42,14.52-29.69,20.84-45.76,23.55s-32.56,1.38-48.78,3.06-33.16,7.09-43.19,19.94c-8.78,11.24-9.53,29.23-.33,39.35a2,2,0,0,1-1.39,3.34c-18.1.47-34.25,18.09-35.27,36.74-.92,16.72,7.78,32.57,20.38,43.9a2,2,0,0,1,.57.88l34.11,109.27a7.06,7.06,0,0,0,6.75,5h21a2,2,0,0,0,2-2.38l-18-91.07h0L260,492.1a2,2,0,0,0,2,1.61H322a2,2,0,0,0,2-2.08l-3.21-81.47h0L324,491.79a2,2,0,0,0,2,1.92h60.08a2,2,0,0,0,2-1.76l9.68-81.84h0l-9.63,81.37a2,2,0,0,0,2,2.23H443a7.06,7.06,0,0,0,6.75-4.95l29.61-94.63a2,2,0,0,1,.87-1.1,53.41,53.41,0,0,0,16.51-15.33A48.13,48.13,0,0,0,505,350.65Z"/><path class="cls-2" d="M155.62,348.21l34.51,110.54a7.06,7.06,0,0,0,6.75,5h23.39L197.5,348.21Z"/><polygon class="cls-2" points="238.5 348.21 252.16 463.71 284.05 463.71 279.5 348.21 238.5 348.21"/><polygon class="cls-2" points="320.5 348.21 315.95 463.71 347.84 463.71 361.5 348.21 320.5 348.21"/><path class="cls-2" d="M402.51,348.21l-22.78,115.5H403a7.06,7.06,0,0,0,6.75-4.95l34.6-110.55Z"/><polygon class="cls-3" points="402.5 348.21 361.5 348.21 347.84 463.71 379.73 463.71 402.5 348.21"/><polygon class="cls-3" points="320.5 348.21 279.5 348.21 284.06 463.71 315.95 463.71 320.5 348.21"/><polygon class="cls-3" points="238.5 348.21 197.5 348.21 220.27 463.71 252.16 463.71 238.5 348.21"/><path class="cls-4" d="M309.79,178.72c-7.42,14.52-29.69,20.84-45.76,23.55s-32.56,1.38-48.78,3.06-33.16,7.09-43.19,19.94c-8.78,11.24-9.53,29.23-.33,39.35a2,2,0,0,1-1.39,3.34c-18.1.47-34.25,18.09-35.27,36.74-1.14,20.69,12.45,40.05,29.94,51.15s38.37,15.37,58.86,18.43a643,643,0,0,0,165.44,3.12c25.22-2.8,53.09-8.79,67.46-29.7a47.63,47.63,0,0,0-32.48-74.14,2,2,0,0,1-1-3.54c15.85-13.11,20.12-42.34,10.26-60.31-10.72-19.55-33.39-34.89-54.25-42.76-43.19-16.28-69.58-13-80.06-10.36a2,2,0,0,0-.37,3.73C305,163.36,314.39,169.71,309.79,178.72Z"/><rect class="cls-5" x="379.73" y="207.7" width="12.72" height="12.72" rx="6.36"/><rect class="cls-5" x="314.14" y="228.14" width="12.72" height="12.72" rx="6.36"/><rect class="cls-5" x="359.13" y="298.43" width="12.72" height="12.72" rx="6.36"/><rect class="cls-5" x="181.26" y="298.43" width="12.72" height="12.72" rx="6.36"/><rect class="cls-5" x="234.17" y="241.54" width="12.72" height="12.72" rx="6.36"/><rect class="cls-5" x="266.78" y="331.51" width="12.72" height="12.72" rx="6.36"/><rect class="cls-5" x="406.02" y="325.15" width="12.72" height="12.72" rx="6.36"/><path class="cls-6" d="M460,299.12a48.82,48.82,0,0,0-35.7-25.57,2,2,0,0,1-1-3.54c15.85-13.12,20.12-42.34,10.26-60.32-10.72-19.55-33.39-34.89-54.25-42.75a227.21,227.21,0,0,0-21.86-7.05,2,2,0,0,0-2.27,1l-113.27,213a2,2,0,0,0,1.53,2.94,642.79,642.79,0,0,0,145.87.53c25.22-2.8,53.09-8.79,67.46-29.71A48.64,48.64,0,0,0,460,299.12Z"/></svg>