<svg id="Contenido" xmlns="http://www.w3.org/2000/svg" xmlns:xlink="http://www.w3.org/1999/xlink" viewBox="0 0 600 600"><defs><style>.cls-1{fill:url(#Degradado_sin_nombre_74);}.cls-2{fill:#1464a5;}.cls-3{fill:#043263;}.cls-4{fill:url(#Degradado_sin_nombre_7);}.cls-5{fill:#072146;}.cls-6{fill:url(#Degradado_sin_nombre_13);}.cls-7{fill:url(#Degradado_sin_nombre_13-2);}.cls-8{fill:#2dcccd;}.cls-9{fill:#028484;}.cls-10{fill:url(#Degradado_sin_nombre_16);}.cls-11{fill:url(#Degradado_sin_nombre_16-2);}.cls-12{fill:url(#Degradado_sin_nombre_16-3);}.cls-13{fill:url(#Degradado_sin_nombre_16-4);}.cls-14{fill:none;}</style><linearGradient id="Degradado_sin_nombre_74" x1="238.72" y1="189.49" x2="448.27" y2="583.6" gradientUnits="userSpaceOnUse"><stop offset="0" stop-color="#082146" stop-opacity="0.5"/><stop offset="1" stop-color="#082146" stop-opacity="0"/></linearGradient><linearGradient id="Degradado_sin_nombre_7" x1="231.27" y1="336" x2="446.5" y2="336" gradientUnits="userSpaceOnUse"><stop offset="0" stop-color="#043263" stop-opacity="0"/><stop offset="1" stop-color="#043263" stop-opacity="0.3"/></linearGradient><linearGradient id="Degradado_sin_nombre_13" x1="265.65" y1="169.63" x2="495.73" y2="169.63" gradientUnits="userSpaceOnUse"><stop offset="0" stop-color="#043263" stop-opacity="0.1"/><stop offset="1" stop-color="#043263" stop-opacity="0.6"/></linearGradient><linearGradient id="Degradado_sin_nombre_13-2" x1="292.43" y1="470" x2="500" y2="470" xlink:href="#Degradado_sin_nombre_13"/><linearGradient id="Degradado_sin_nombre_16" x1="137.5" y1="377.21" x2="169.5" y2="377.21" gradientUnits="userSpaceOnUse"><stop offset="0" stop-color="#028484" stop-opacity="0"/><stop offset="1" stop-color="#028484" stop-opacity="0.3"/></linearGradient><linearGradient id="Degradado_sin_nombre_16-2" x1="207.5" y1="377.21" x2="239.5" y2="377.21" xlink:href="#Degradado_sin_nombre_16"/><linearGradient id="Degradado_sin_nombre_16-3" x1="360.5" y1="377.21" x2="392.5" y2="377.21" xlink:href="#Degradado_sin_nombre_16"/><linearGradient id="Degradado_sin_nombre_16-4" x1="430.5" y1="377.21" x2="462.5" y2="377.21" xlink:href="#Degradado_sin_nombre_16"/></defs><path class="cls-1" d="M544.11,497.85h-9v-26a6,6,0,0,0-6-6h-11v-12a4,4,0,0,0-4-4h-1.5V376.26h0V309.85h1.5a4,4,0,0,0,4-4v-12h11a6,6,0,0,0,6-6v-12h7.73a3,3,0,0,0,1.68-.51A3.16,3.16,0,0,0,545,275a3,3,0,0,0,.64-1,3.43,3.43,0,0,0,.17-.57,2.91,2.91,0,0,0,.06-.6h0V261.62a3,3,0,0,0-.77-2,3.64,3.64,0,0,0-.56-.48L353.44,132.06a6,6,0,0,0-6.65,0L155.72,259.12a3,3,0,0,0-1.33,2.5v11.23h0a2.91,2.91,0,0,0,.06.6,3.43,3.43,0,0,0,.17.57,3.05,3.05,0,0,0,1.09,1.32,3,3,0,0,0,1.68.51h7.72v12a6,6,0,0,0,6,6h11v12a4,4,0,0,0,4,4h1.5v140h-1.5a4,4,0,0,0-4,4v12h-11a6,6,0,0,0-6,6v26h-9a6,6,0,0,0-6,6v25a1,1,0,0,0,1,1h398a1,1,0,0,0,1-1v-25A6,6,0,0,0,544.11,497.85Z"/><path class="cls-2" d="M106,454H494a6,6,0,0,1,6,6v25a1,1,0,0,1-1,1H101a1,1,0,0,1-1-1V460A6,6,0,0,1,106,454Z"/><path class="cls-3" d="M121,422H479a6,6,0,0,1,6,6v26a0,0,0,0,1,0,0H115a0,0,0,0,1,0,0V428A6,6,0,0,1,121,422Z"/><path class="cls-3" d="M121,232H479a6,6,0,0,1,6,6v12a0,0,0,0,1,0,0H115a0,0,0,0,1,0,0V238A6,6,0,0,1,121,232Z" transform="translate(600 482) rotate(180)"/><rect class="cls-2" x="153.5" y="250" width="293" height="172"/><polygon class="cls-4" points="446.5 250 322.73 250 231.27 422 446.5 422 446.5 250"/><path class="cls-5" d="M300,298h0a35,35,0,0,1,35,35v89a0,0,0,0,1,0,0H265a0,0,0,0,1,0,0V333a35,35,0,0,1,35-35Z"/><path class="cls-3" d="M104.27,217.77V229a3,3,0,0,0,3,3H492.73a3,3,0,0,0,3-3V217.77a3,3,0,0,0-1.34-2.5L303.32,88.21a6,6,0,0,0-6.64,0L105.61,215.27A3,3,0,0,0,104.27,217.77Z"/><path class="cls-2" d="M300,114.82,440.12,208H159.88L300,114.82m0-27.61a6,6,0,0,0-3.32,1L105.61,215.27a3,3,0,0,0-1.34,2.5V229a3,3,0,0,0,3,3H492.73a3,3,0,0,0,3-3V217.77a3,3,0,0,0-1.34-2.5L303.32,88.21a6,6,0,0,0-3.32-1Z"/><path class="cls-6" d="M494.39,215.27,332,107.26l-11.32,21.3L440.12,208H278.41l-12.76,24H492.73a3,3,0,0,0,3-3V217.77A3,3,0,0,0,494.39,215.27Z"/><path class="cls-7" d="M494,454H309.44l-17,32H499a1,1,0,0,0,1-1V460A6,6,0,0,0,494,454Z"/><rect class="cls-8" x="137.5" y="250" width="32" height="172"/><path class="cls-9" d="M136,250h35a4,4,0,0,1,4,4v12a0,0,0,0,1,0,0H132a0,0,0,0,1,0,0V254A4,4,0,0,1,136,250Z" transform="translate(307 516) rotate(180)"/><polygon class="cls-10" points="137.5 392.59 137.5 422 169.5 422 169.5 332.41 137.5 392.59"/><path class="cls-9" d="M136,406h35a4,4,0,0,1,4,4v12a0,0,0,0,1,0,0H132a0,0,0,0,1,0,0V410A4,4,0,0,1,136,406Z"/><rect class="cls-8" x="207.5" y="250" width="32" height="172"/><path class="cls-9" d="M206,250h35a4,4,0,0,1,4,4v12a0,0,0,0,1,0,0H202a0,0,0,0,1,0,0V254A4,4,0,0,1,206,250Z" transform="translate(447 516) rotate(180)"/><polygon class="cls-11" points="207.5 392.59 207.5 422 239.5 422 239.5 332.41 207.5 392.59"/><path class="cls-9" d="M206,406h35a4,4,0,0,1,4,4v12a0,0,0,0,1,0,0H202a0,0,0,0,1,0,0V410A4,4,0,0,1,206,406Z"/><rect class="cls-8" x="360.5" y="250" width="32" height="172"/><path class="cls-9" d="M359,250h35a4,4,0,0,1,4,4v12a0,0,0,0,1,0,0H355a0,0,0,0,1,0,0V254A4,4,0,0,1,359,250Z" transform="translate(753 516) rotate(180)"/><polygon class="cls-12" points="360.5 392.59 360.5 422 392.5 422 392.5 332.41 360.5 392.59"/><path class="cls-9" d="M359,406h35a4,4,0,0,1,4,4v12a0,0,0,0,1,0,0H355a0,0,0,0,1,0,0V410A4,4,0,0,1,359,406Z"/><rect class="cls-8" x="430.5" y="250" width="32" height="172"/><path class="cls-9" d="M429,250h35a4,4,0,0,1,4,4v12a0,0,0,0,1,0,0H425a0,0,0,0,1,0,0V254A4,4,0,0,1,429,250Z" transform="translate(893 516) rotate(180)"/><polygon class="cls-13" points="430.5 392.59 430.5 422 462.5 422 462.5 332.41 430.5 392.59"/><path class="cls-9" d="M429,406h35a4,4,0,0,1,4,4v12a0,0,0,0,1,0,0H425a0,0,0,0,1,0,0V410A4,4,0,0,1,429,406Z"/><rect class="cls-14" width="600" height="600"/></svg>