<svg id="Contenido" xmlns="http://www.w3.org/2000/svg" xmlns:xlink="http://www.w3.org/1999/xlink" viewBox="0 0 600 600"><defs><style>.cls-1{fill:url(#Degradado_sin_nombre_16);}.cls-2{fill:#043263;}.cls-3{fill:#1464a5;}.cls-4{fill:#f8cd50;}.cls-5{fill:#2dcccd;}.cls-6{fill:url(#Degradado_sin_nombre_34);}.cls-7{fill:url(#Degradado_sin_nombre_34-2);}</style><linearGradient id="Degradado_sin_nombre_16" x1="216.23" y1="163.13" x2="413.56" y2="534.25" gradientUnits="userSpaceOnUse"><stop offset="0" stop-color="#1c2645"/><stop offset="0" stop-color="#1c2645" stop-opacity="0.5"/><stop offset="1" stop-color="#1c2645" stop-opacity="0"/></linearGradient><linearGradient id="Degradado_sin_nombre_34" x1="179.79" y1="363.48" x2="131.84" y2="363.48" gradientUnits="userSpaceOnUse"><stop offset="0" stop-color="#043263" stop-opacity="0.4"/><stop offset="0.99" stop-color="#043263" stop-opacity="0"/></linearGradient><linearGradient id="Degradado_sin_nombre_34-2" x1="483.66" y1="365.52" x2="435.7" y2="365.52" xlink:href="#Degradado_sin_nombre_34"/></defs><title>values-day</title><path class="cls-1" d="M518.74,374c0-.11,0-.23,0-.34,0-.27-.05-.54-.08-.81s0-.25,0-.38-.08-.53-.12-.8l-.06-.32c-.07-.35-.15-.7-.23-1.05v0c-.1-.38-.2-.75-.32-1.12a.88.88,0,0,1-.05-.15c-.1-.31-.21-.61-.33-.91l-.09-.23c-.11-.28-.23-.57-.36-.84a1.67,1.67,0,0,0-.08-.2A19.78,19.78,0,0,0,499,355.36h-7.69V332.82h0a147.93,147.93,0,0,0-31.39-91.26,15.25,15.25,0,0,0-3.2-15.58,155.92,155.92,0,0,0-114.09-49.46h0A155.92,155.92,0,0,0,228.54,226a15.25,15.25,0,0,0-3.2,15.58A147.93,147.93,0,0,0,194,332.82h0v22.54h-7.22A19.77,19.77,0,0,0,167,375.13v81a19.7,19.7,0,0,0,4.51,12.58c.41.48.83.95,1.28,1.4.22.22.45.44.69.65a19.65,19.65,0,0,0,13.29,5.14h28.19v.35a2.57,2.57,0,0,0,2.58,2.57h3.44a2.57,2.57,0,0,0,2.57-2.57v-5.16h1.72a10.32,10.32,0,0,0,10.32-10.32V370.49a10.32,10.32,0,0,0-10.32-10.32h-1.72V355a2.58,2.58,0,0,0-2.57-2.58H217.5a2.58,2.58,0,0,0-2.58,2.58v.35h-5.73V332.82A132.83,132.83,0,0,1,237,251.39l.08,0,.65.09.78.08.66,0,.51,0,.24,0c.27,0,.54,0,.8,0l.69-.05.81-.12.67-.12c.27-.06.53-.13.8-.21l.65-.18c.27-.08.53-.19.79-.29s.42-.15.62-.24.53-.25.79-.38l.57-.29c.27-.15.53-.32.8-.49l.51-.33c.28-.2.55-.42.83-.64l.4-.32a14.85,14.85,0,0,0,1.15-1.1,128.87,128.87,0,0,1,11.88-11.19,124.48,124.48,0,0,1,80-28.64h0a124.41,124.41,0,0,1,77.45,26.61,128,128,0,0,1,14.4,13.22,14.85,14.85,0,0,0,1.15,1.1l.4.32c.28.22.55.44.83.64l.51.33c.27.17.53.34.8.49l.57.29c.26.13.52.27.79.38s.41.16.62.24.53.21.8.29.43.12.64.18l.8.21.68.12c.26,0,.53.09.8.12l.69.05c.26,0,.53,0,.8,0l.24,0,.51,0,.66,0,.78-.08.65-.09.08,0a132.78,132.78,0,0,1,27.8,81.43h0v22.54h-5.27V355a2.58,2.58,0,0,0-2.58-2.58H464.8a2.59,2.59,0,0,0-2.58,2.58v5.16H460.5a10.32,10.32,0,0,0-10.31,10.32v90.26a10.32,10.32,0,0,0,10.31,10.32h1.72v5.16a2.58,2.58,0,0,0,2.58,2.57h3.44a2.57,2.57,0,0,0,2.58-2.57v-.35H499a19.65,19.65,0,0,0,13.29-5.14c.24-.21.46-.43.69-.65.45-.45.87-.92,1.27-1.4a19.65,19.65,0,0,0,4.52-12.58v-81C518.78,374.74,518.77,374.36,518.74,374Z"/><path class="cls-2" d="M307.51,128.81c-82,0-148.68,66.7-148.68,148.69h15.23c0-73.59,59.87-133.45,133.45-133.45h0V128.81Z"/><path class="cls-3" d="M307.51,121.2a155.87,155.87,0,0,0-114.09,49.46,15.24,15.24,0,1,0,22.24,20.84,124.61,124.61,0,0,1,91.85-39.83h0V121.2Z"/><path class="cls-2" d="M158.83,277.5h15.23c0-73.59,59.87-133.45,133.45-133.45V128.81C225.53,128.81,158.83,195.51,158.83,277.5Z"/><path class="cls-3" d="M307.51,121.2a155.87,155.87,0,0,0-114.09,49.46,15.24,15.24,0,1,0,22.24,20.84,124.61,124.61,0,0,1,91.85-39.83h0V121.2Z"/><rect class="cls-2" x="158.83" y="277.5" width="15.24" height="26.24"/><path class="cls-2" d="M307.51,128.81c82,0,148.69,66.7,148.69,148.69H441c0-73.59-59.86-133.45-133.45-133.45h0V128.81Z"/><path class="cls-3" d="M307.51,121.2A155.87,155.87,0,0,1,421.6,170.66a15.24,15.24,0,1,1-22.23,20.84,124.62,124.62,0,0,0-91.86-39.83h0V121.2Z"/><path class="cls-2" d="M456.2,277.5H441c0-73.59-59.86-133.45-133.45-133.45V128.81C389.5,128.81,456.2,195.51,456.2,277.5Z"/><path class="cls-3" d="M307.51,121.2A155.87,155.87,0,0,1,421.6,170.66a15.24,15.24,0,1,1-22.23,20.84,124.62,124.62,0,0,0-91.86-39.83h0V121.2Z"/><rect class="cls-2" x="440.96" y="277.5" width="15.24" height="26.24" transform="translate(897.16 581.24) rotate(-180)"/><path class="cls-3" d="M151.61,300h28.19a0,0,0,0,1,0,0V420.56a0,0,0,0,1,0,0H151.61a19.77,19.77,0,0,1-19.77-19.77v-81A19.77,19.77,0,0,1,151.61,300Z"/><path class="cls-4" d="M198.71,304.85h1.72a0,0,0,0,1,0,0v110.9a0,0,0,0,1,0,0h-1.72a10.32,10.32,0,0,1-10.32-10.32V315.17a10.32,10.32,0,0,1,10.32-10.32Z" transform="translate(388.82 720.6) rotate(-180)"/><rect class="cls-5" x="179.79" y="297.11" width="8.6" height="126.37" rx="2.58"/><path class="cls-3" d="M455.47,300h28.19a0,0,0,0,1,0,0V420.56a0,0,0,0,1,0,0H455.47a19.77,19.77,0,0,1-19.77-19.77v-81A19.77,19.77,0,0,1,455.47,300Z" transform="translate(919.35 720.6) rotate(-180)"/><path class="cls-4" d="M425.38,304.85h1.72a0,0,0,0,1,0,0v110.9a0,0,0,0,1,0,0h-1.72a10.32,10.32,0,0,1-10.32-10.32V315.17A10.32,10.32,0,0,1,425.38,304.85Z"/><rect class="cls-5" x="427.1" y="297.11" width="8.6" height="126.37" rx="2.58" transform="translate(862.8 720.6) rotate(-180)"/><path class="cls-6" d="M131.84,396.59v4.2a19.77,19.77,0,0,0,19.77,19.77h28.18V306.4Z"/><path class="cls-7" d="M435.7,396.29v24.27h28.18a19.78,19.78,0,0,0,19.78-19.77v-81a19.64,19.64,0,0,0-2.34-9.32Z"/></svg>