<svg xmlns="http://www.w3.org/2000/svg" xmlns:xlink="http://www.w3.org/1999/xlink" viewBox="0 0 600 600"><defs><style>.cls-1{fill:none;}.cls-2{fill:url(#Degradado_sin_nombre_490);}.cls-3{fill:#043263;}.cls-4{fill:#1464a5;}.cls-5{fill:#004481;}.cls-6{fill:#f8cd50;}.cls-7{fill:#2dcccd;}.cls-8{fill:url(#Degradado_sin_nombre_114);}.cls-9{fill:url(#Degradado_sin_nombre_114-2);}</style><linearGradient id="Degradado_sin_nombre_490" x1="216.23" y1="426.87" x2="413.56" y2="55.75" gradientTransform="matrix(1, 0, 0, -1, 0, 590)" gradientUnits="userSpaceOnUse"><stop offset="0" stop-color="#1c2645" stop-opacity="0.5"/><stop offset="1" stop-color="#1c2645" stop-opacity="0"/></linearGradient><linearGradient id="Degradado_sin_nombre_114" x1="179.79" y1="226.52" x2="131.84" y2="226.52" gradientTransform="matrix(1, 0, 0, -1, 0, 590)" gradientUnits="userSpaceOnUse"><stop offset="0" stop-color="#072146" stop-opacity="0.8"/><stop offset="1" stop-color="#072146" stop-opacity="0"/></linearGradient><linearGradient id="Degradado_sin_nombre_114-2" x1="483.66" y1="224.49" x2="435.7" y2="224.49" xlink:href="#Degradado_sin_nombre_114"/></defs><title>11</title><g id="Cuadrados_Blancos" data-name="Cuadrados Blancos"><rect class="cls-1" width="600" height="600"/></g><g id="Capa_58" data-name="Capa 58"><path class="cls-2" d="M518.74,374v-.34a7.4,7.4,0,0,0-.08-.81,1.49,1.49,0,0,1,0-.38c0-.13-.08-.53-.12-.8l-.06-.32c-.07-.35-.15-.7-.23-1.05h0c-.1-.38-.2-.75-.32-1.12a.88.88,0,0,1,0-.15c-.1-.31-.21-.61-.33-.91l-.09-.23c-.11-.28-.23-.57-.36-.84a1.19,1.19,0,0,0-.08-.2,19.79,19.79,0,0,0-18-11.49h-7.69V332.82h0a148,148,0,0,0-31.39-91.26,15.26,15.26,0,0,0-3.2-15.58,155.94,155.94,0,0,0-114.09-49.46h0A155.93,155.93,0,0,0,228.54,226a15.26,15.26,0,0,0-3.2,15.58A148,148,0,0,0,194,332.82h0v22.54h-7.22A19.77,19.77,0,0,0,167,375.12h0v81a19.71,19.71,0,0,0,4.51,12.58c.41.48.83,1,1.28,1.4.22.22.45.44.69.65a19.62,19.62,0,0,0,13.29,5.14H215v.35a2.57,2.57,0,0,0,2.57,2.57H221a2.57,2.57,0,0,0,2.57-2.57h0v-5.16h1.72a10.32,10.32,0,0,0,10.32-10.32V370.49a10.32,10.32,0,0,0-10.32-10.32h-1.72V355a2.58,2.58,0,0,0-2.57-2.58H217.5a2.59,2.59,0,0,0-2.58,2.58v.35h-5.73V332.82A132.84,132.84,0,0,1,237,251.39h.08l.65.09.78.08h2.21l.69-.05.81-.12.67-.12c.27-.06.53-.13.8-.21l.65-.18c.27-.08.53-.19.79-.29s.42-.15.62-.24l.79-.38.57-.29c.27-.15.53-.32.8-.49l.51-.33c.28-.2.55-.42.83-.64l.4-.32a14.94,14.94,0,0,0,1.15-1.1,129.51,129.51,0,0,1,11.88-11.19,124.51,124.51,0,0,1,80-28.64h0a124.41,124.41,0,0,1,77.45,26.61,127.79,127.79,0,0,1,14.4,13.22,14.94,14.94,0,0,0,1.15,1.1l.4.32c.28.22.55.44.83.64l.51.33c.27.17.53.34.8.49l.57.29c.26.13.52.27.79.38l.62.24c.21.08.53.21.8.29l.64.18.8.21.68.12a7.74,7.74,0,0,1,.8.12l.69.05h2.21l.78-.08.65-.09h.08a132.77,132.77,0,0,1,27.8,81.43h0v22.54h-5.27V355a2.59,2.59,0,0,0-2.58-2.58H464.8a2.6,2.6,0,0,0-2.58,2.58v5.16H460.5a10.32,10.32,0,0,0-10.31,10.32v90.26a10.32,10.32,0,0,0,10.31,10.32h1.72v5.16a2.58,2.58,0,0,0,2.58,2.57h3.44a2.57,2.57,0,0,0,2.58-2.56h0v-.35H499a19.62,19.62,0,0,0,13.29-5.14c.24-.21.46-.43.69-.65.45-.45.87-.92,1.27-1.4a19.66,19.66,0,0,0,4.52-12.58v-81A10.1,10.1,0,0,0,518.74,374Z"/><path class="cls-3" d="M307.51,128.81c-82,0-148.68,66.7-148.68,148.69h15.23c0-73.59,59.87-133.45,133.45-133.45h0Z"/><path class="cls-4" d="M307.51,121.2a155.89,155.89,0,0,0-114.09,49.46,15.24,15.24,0,0,0,22,21.08l.22-.24a124.6,124.6,0,0,1,91.85-39.83h0Z"/><path class="cls-3" d="M158.83,277.5h15.23c0-73.59,59.87-133.45,133.45-133.45V128.81C225.53,128.81,158.83,195.51,158.83,277.5Z"/><path class="cls-5" d="M307.51,121.2a155.89,155.89,0,0,0-114.09,49.46,15.24,15.24,0,0,0,22,21.08l.22-.24a124.6,124.6,0,0,1,91.85-39.83h0Z"/><rect class="cls-3" x="158.83" y="277.5" width="15.24" height="26.24"/><path class="cls-3" d="M307.51,128.81c82,0,148.69,66.7,148.69,148.69H441c0-73.59-59.86-133.45-133.45-133.45h0V128.81Z"/><path class="cls-4" d="M307.51,121.2A155.89,155.89,0,0,1,421.6,170.66,15.24,15.24,0,0,1,399.88,192c-.18-.17-.35-.36-.51-.54a124.64,124.64,0,0,0-91.86-39.83h0Z"/><path class="cls-3" d="M456.2,277.5H441c0-73.59-59.86-133.45-133.45-133.45V128.81C389.5,128.81,456.2,195.51,456.2,277.5Z"/><path class="cls-5" d="M307.51,121.2A155.89,155.89,0,0,1,421.6,170.66,15.24,15.24,0,0,1,399.88,192c-.18-.17-.35-.36-.51-.54a124.64,124.64,0,0,0-91.86-39.83h0Z"/><rect class="cls-3" x="440.96" y="277.5" width="15.24" height="26.24"/><path class="cls-5" d="M151.61,300H179.8V420.56H151.61a19.77,19.77,0,0,1-19.77-19.77v-81A19.77,19.77,0,0,1,151.59,300Z"/><path class="cls-6" d="M190.11,415.75h-1.72V304.85h1.72a10.32,10.32,0,0,1,10.32,10.32v90.26a10.32,10.32,0,0,1-10.32,10.32Z"/><rect class="cls-7" x="179.79" y="297.11" width="8.6" height="126.37" rx="2.58"/><path class="cls-5" d="M463.88,420.6H435.69V300h28.19a19.77,19.77,0,0,1,19.77,19.77v81A19.77,19.77,0,0,1,463.9,420.6Z"/><path class="cls-6" d="M425.38,304.85h1.72v110.9h-1.72a10.32,10.32,0,0,1-10.32-10.32h0V315.17a10.32,10.32,0,0,1,10.32-10.32Z"/><rect class="cls-7" x="427.1" y="297.12" width="8.6" height="126.37" rx="2.58"/><path class="cls-8" d="M131.84,396.59v4.2a19.77,19.77,0,0,0,19.77,19.77h28.18V306.4Z"/><path class="cls-9" d="M435.7,396.29v24.27h28.18a19.78,19.78,0,0,0,19.78-19.77v-81a19.67,19.67,0,0,0-2.34-9.32Z"/></g></svg>