<svg xmlns="http://www.w3.org/2000/svg" xmlns:xlink="http://www.w3.org/1999/xlink" viewBox="0 0 600 600"><defs><style>.cls-1,.cls-3,.cls-4{fill:none;}.cls-2{fill:url(#Degradado_sin_nombre_179);}.cls-3{stroke:#49a5e6;}.cls-3,.cls-4{stroke-linecap:round;stroke-linejoin:round;stroke-width:8.5px;}.cls-4{stroke:#1464a5;}.cls-5,.cls-9{fill:#49a5e6;}.cls-5{stroke:#d4edfc;stroke-miterlimit:10;stroke-width:31.18px;}.cls-6{fill:#2dcccd;}.cls-7{fill:#02a5a5;}.cls-8{fill:#6edcdc;}.cls-10,.cls-11,.cls-12,.cls-13,.cls-15,.cls-16,.cls-17,.cls-18,.cls-19{opacity:0.5;isolation:isolate;}.cls-10{fill:url(#Degradado_sin_nombre_173);}.cls-11{fill:url(#Degradado_sin_nombre_173-2);}.cls-12{fill:url(#Degradado_sin_nombre_173-3);}.cls-13{fill:url(#Degradado_sin_nombre_173-4);}.cls-14{fill:#f8cd50;}.cls-15{fill:url(#Degradado_sin_nombre_173-5);}.cls-16{fill:url(#Degradado_sin_nombre_173-6);}.cls-17{fill:url(#Degradado_sin_nombre_173-7);}.cls-18{fill:url(#Degradado_sin_nombre_173-8);}.cls-19{fill:url(#Degradado_sin_nombre_173-9);}</style><linearGradient id="Degradado_sin_nombre_179" x1="241.6" y1="1529.63" x2="441.27" y2="1905.16" gradientTransform="translate(0 -1384.25)" gradientUnits="userSpaceOnUse"><stop offset="0" stop-color="#043263" stop-opacity="0.5"/><stop offset="1" stop-color="#043263" stop-opacity="0"/></linearGradient><linearGradient id="Degradado_sin_nombre_173" x1="161.79" y1="1772.85" x2="191.95" y2="1803" gradientTransform="translate(0 -1384.25)" gradientUnits="userSpaceOnUse"><stop offset="0" stop-color="#fff" stop-opacity="0.5"/><stop offset="1" stop-color="#e2f7f7" stop-opacity="0"/></linearGradient><linearGradient id="Degradado_sin_nombre_173-2" x1="106.36" y1="1690.72" x2="125.83" y2="1710.2" xlink:href="#Degradado_sin_nombre_173"/><linearGradient id="Degradado_sin_nombre_173-3" x1="107.25" y1="1611.88" x2="116.39" y2="1621.02" xlink:href="#Degradado_sin_nombre_173"/><linearGradient id="Degradado_sin_nombre_173-4" x1="478.26" y1="1611.88" x2="487.4" y2="1621.02" xlink:href="#Degradado_sin_nombre_173"/><linearGradient id="Degradado_sin_nombre_173-5" x1="289.16" y1="1724.82" x2="302.87" y2="1738.54" xlink:href="#Degradado_sin_nombre_173"/><linearGradient id="Degradado_sin_nombre_173-6" x1="396.45" y1="1693.12" x2="405.59" y2="1702.27" xlink:href="#Degradado_sin_nombre_173"/><linearGradient id="Degradado_sin_nombre_173-7" x1="189.08" y1="1693.13" x2="198.22" y2="1702.27" xlink:href="#Degradado_sin_nombre_173"/><linearGradient id="Degradado_sin_nombre_173-8" x1="462.87" y1="1690.72" x2="482.34" y2="1710.2" xlink:href="#Degradado_sin_nombre_173"/><linearGradient id="Degradado_sin_nombre_173-9" x1="390.49" y1="1772.85" x2="420.65" y2="1803" xlink:href="#Degradado_sin_nombre_173"/></defs><g id="Cuadrados_Blancos" data-name="Cuadrados Blancos"><rect class="cls-1" width="600" height="600"/></g><g id="Capa_133" data-name="Capa 133"><path class="cls-2" d="M530.37,333.77a192.92,192.92,0,0,0,1.46-23.66c0-1.12,0-2.24-.06-3.35a25.59,25.59,0,0,0-6.29-50.4h-1.33a190.65,190.65,0,0,0-18.72-43.45,192.82,192.82,0,0,0-69.17-68.79h0l-.13-.07c-.1-.06-.21-.09-.31-.14l-.41-.19-.39-.1a3.2,3.2,0,0,0-.42-.1,2.67,2.67,0,0,0-.4,0,2.94,2.94,0,0,0-.42,0,2.54,2.54,0,0,0-.39,0,3.07,3.07,0,0,0-.42.07l-.36.12a2.74,2.74,0,0,0-.4.15,2.21,2.21,0,0,0-.34.18c-.12.08-.25.14-.37.23l-.3.26-.32.29a2.78,2.78,0,0,0-.26.34,3.11,3.11,0,0,0-.23.28v.13a1.87,1.87,0,0,0-.15.32c-.06.13-.13.26-.18.4s-.07.26-.1.4a2.73,2.73,0,0,0-.1.41,2.81,2.81,0,0,0,0,.41V148a1,1,0,0,0,.06.41c.06.14,0,.26.06.39a3,3,0,0,1,.13.39,1.09,1.09,0,0,0,.14.38c.06.12.13.24.2.36s.14.24.22.35.18.21.27.32l.28.3c.11.1.22.18.34.27l.28.22c38.81,24.38,57.68,61.24,57.68,112.66,0,34.9-15.88,66.64-41.67,90l-.34-.15-.31-.11c-.24-.09-.5-.17-.75-.24l-.37-.09c-.25-.06-.52-.11-.78-.15H445a8.89,8.89,0,0,0-1.15-.08,10,10,0,0,0-3.89.79,9.6,9.6,0,0,0-1.7.92,10.21,10.21,0,0,0-1.48,1.22,10,10,0,0,0-2.93,7.07h0a8.9,8.9,0,0,0,.09,1.26.83.83,0,0,0,.05.35c.05.12,0,.22.05.33a162,162,0,0,1-79.82,28.41,15,15,0,0,0-7.14-8.4h0l-1-.5-.34-.14a11.08,11.08,0,0,0-1.14-.42l-.22-.07c-.36-.1-.73-.2-1.11-.28l-.26-.06c-.42-.08-.85-.15-1.28-.19h-.28c-.45,0-.91-.07-1.37-.07h0a14.91,14.91,0,0,0-9.25,3.21,16,16,0,0,0-2.33,2.25,15,15,0,0,0-2.61,4.7c-30-2.47-57.46-12.7-79.67-28.36a10.34,10.34,0,0,0,.19-2,10,10,0,0,0-5.3-8.82h0l-.1-.05c-.28-.15-.58-.28-.88-.41l-.31-.11c-.25-.09-.5-.17-.76-.24l-.36-.09c-.26-.06-.52-.11-.79-.15l-.34-.05a8.92,8.92,0,0,0-1.16-.08,10,10,0,0,0-3.89.79l-.18.09c-25.8-23.39-41.68-55.13-41.68-90,0-52.17,18.32-88,57.67-112.66l.28-.22a2.88,2.88,0,0,0,.34-.27c.1-.1.2-.2.29-.31l.27-.31a3.35,3.35,0,0,0,.21-.36,4,4,0,0,0,.2-.35,2.46,2.46,0,0,0,.14-.38,3,3,0,0,0,.13-.39.75.75,0,0,1,.07-.39c.07-.13,0-.27,0-.41a1.34,1.34,0,0,0,0-.4v-.42a1.37,1.37,0,0,0-.09-.4,2.75,2.75,0,0,0-.11-.41,3.39,3.39,0,0,0-.18-.39.78.78,0,0,0-.14-.33l-.05-.06v-.06a1.51,1.51,0,0,0-.22-.28c-.08-.12-.17-.24-.26-.35l-.31-.28a2.69,2.69,0,0,0-.32-.27,2.39,2.39,0,0,0-.34-.21c-.12-.07-.24-.15-.37-.21l-.36-.13-.41-.14a.78.78,0,0,1-.37-.06l-.43-.06h-.82a2.34,2.34,0,0,0-.38.09,3,3,0,0,0-.43.11c-.13,0-.26.12-.39.18a1.87,1.87,0,0,0-.32.15,191.5,191.5,0,0,0-88,112.32h-1.35a25.59,25.59,0,0,0-6.27,50.4v3.35a193.08,193.08,0,0,0,1.46,23.67,36.88,36.88,0,0,0,12.13,71.72A36.48,36.48,0,0,0,172.81,404a191.05,191.05,0,0,0,15.77,23.75,48.57,48.57,0,1,0,74.25,62.64q1.38-1.65,2.63-3.42a189.71,189.71,0,0,0,28.81,9.58v25.15A18.69,18.69,0,0,0,301,536l27.26,22.48a18.6,18.6,0,0,0,23.67,0L379.23,536A18.64,18.64,0,0,0,386,521.57V496.4a190.94,190.94,0,0,0,28.82-9.58,48.56,48.56,0,0,0,80.34-54.57c-.33-.49-.67-1-1-1.43-.77-1.1-1.59-2.17-2.46-3.2a191.12,191.12,0,0,0,15.78-23.75,36.89,36.89,0,0,0,23.06-70.08Zm-44.9,87.77a48.56,48.56,0,0,0-75.13,57.86,182.22,182.22,0,0,1-24.5,8.24V473.85a18.59,18.59,0,0,0-6.76-14.34L351.82,437a18.58,18.58,0,0,0-23.66,0l-27.28,22.51a18.74,18.74,0,0,0-5.11,6.72,18.5,18.5,0,0,0-1.64,7.61v13.79a182.08,182.08,0,0,1-24.49-8.24,48.56,48.56,0,0,0-75.13-57.85,182.81,182.81,0,0,1-14-21.17A36.9,36.9,0,0,0,158,331.91a184.58,184.58,0,0,1-1.3-21.8v-2.67a25.59,25.59,0,0,0,7.45-49.18A181.1,181.1,0,0,1,195,197.88c-8.71,18.8-13,40.46-13,66.13,0,37.46,17,71.48,44.65,96.45a9.55,9.55,0,0,0-.39,2.71h0a8.9,8.9,0,0,0,.09,1.26.83.83,0,0,0,.05.35c.06.32.12.63.21.94a.43.43,0,0,0,.07.29,9,9,0,0,0,.41,1.13l.1.21a9.17,9.17,0,0,0,.46.88l.17.28c.2.31.41.61.63.89l.07.09a9.71,9.71,0,0,0,.82.88l.2.19c.25.22.5.42.76.62l.21.16c.32.23.66.44,1,.64h0a10,10,0,0,0,9.46,0,169.52,169.52,0,0,0,84.36,30c.05.23.11.45.18.67s.07.22.11.33c.1.33.22.66.35,1l.12.29c.17.38.35.76.55,1.13a2.54,2.54,0,0,0,.16.28c.16.29.33.57.51.85l.21.32c.23.33.47.66.73,1,.06.07.13.14.19.22.22.25.44.49.67.73l.3.3c.26.25.52.5.8.73l.22.19c.29.23.59.45.89.66l.37.24c.26.18.53.34.8.5l.3.17h0A15,15,0,0,0,354.52,402a170,170,0,0,0,84.38-30h.1a10,10,0,0,0,14.31-11.57c27.59-25,44.61-59,44.61-96.42,0-25.45-4.39-47.55-13.27-66.54a181.59,181.59,0,0,1,31.2,60.78,25.58,25.58,0,0,0,7.44,49.19v2.67a184.58,184.58,0,0,1-1.3,21.8,36.47,36.47,0,0,0-3.77-.19,36.88,36.88,0,0,0-18.74,68.65,182.81,182.81,0,0,1-14,21.17Z"/><path class="cls-3" d="M206,100.35c-43.3,27.17-59.67,66.65-59.67,116.26,0,74.19,68.8,134.33,153.67,134.33S453.66,290.8,453.66,216.61c0-49.65-17-89.43-59.66-116.26"/><path class="cls-4" d="M206,100.35a187.49,187.49,0,0,0-93.6,162.36c0,103.6,84,187.59,187.59,187.59s187.59-84,187.59-187.59A187.53,187.53,0,0,0,394,100.35"/><path class="cls-5" d="M330,425.22a3.17,3.17,0,0,0-.83-1.09L301.9,401.64a3,3,0,0,0-3.82,0l-27.26,22.49a3,3,0,0,0-.83,1.09,3.09,3.09,0,0,0-.26,1.23v47.7a3,3,0,0,0,1.09,2.31L298.08,499a3,3,0,0,0,3.82,0l27.26-22.5a3,3,0,0,0,1.09-2.31v-47.7A3.06,3.06,0,0,0,330,425.22Z"/><path class="cls-6" d="M300,401a3,3,0,0,0-1.91.69l-27.26,22.49a3,3,0,0,0-.83,1.09l30,25.08Z"/><path class="cls-6" d="M300,450.3l-30-25.08a3.09,3.09,0,0,0-.26,1.23v47.7a3,3,0,0,0,.26,1.22l30-25.07Z"/><path class="cls-7" d="M270,475.37a3,3,0,0,0,.83,1.09L298.08,499a3,3,0,0,0,1.91.68V450.3Z"/><path class="cls-6" d="M300,450.3v49.34a3,3,0,0,0,1.91-.68l27.26-22.5a3,3,0,0,0,.83-1.09Z"/><path class="cls-6" d="M300,450.3l30,25.07a3,3,0,0,0,.26-1.22v-47.7a3.09,3.09,0,0,0-.26-1.23Z"/><path class="cls-8" d="M329.16,424.13,301.9,401.64A3,3,0,0,0,300,401v49.3h0l30-25.08A3.19,3.19,0,0,0,329.16,424.13Z"/><circle class="cls-5" cx="185.64" cy="411.42" r="33"/><circle class="cls-9" cx="185.64" cy="411.42" r="33"/><path class="cls-10" d="M185.64,378.42a33,33,0,0,0-15.49,62.14l31-58.27A32.77,32.77,0,0,0,185.64,378.42Z"/><circle class="cls-5" cx="121.75" cy="321.21" r="21.3"/><circle class="cls-6" cx="121.75" cy="321.21" r="21.3"/><path class="cls-11" d="M121.75,299.91a21.3,21.3,0,0,0-10,40.11l20-37.62A21.26,21.26,0,0,0,121.75,299.91Z"/><circle class="cls-5" cx="114.48" cy="234.55" r="10"/><circle class="cls-9" cx="114.48" cy="234.55" r="10"/><path class="cls-12" d="M114.48,224.55a10,10,0,0,0-4.7,18.83l9.39-17.67A10.11,10.11,0,0,0,114.48,224.55Z"/><circle class="cls-5" cx="485.48" cy="234.55" r="10"/><circle class="cls-9" cx="485.48" cy="234.55" r="10"/><path class="cls-13" d="M485.48,224.55a10,10,0,0,0-4.69,18.83l9.39-17.67A9.88,9.88,0,0,0,485.48,224.55Z"/><circle class="cls-14" cx="299.99" cy="350.94" r="15"/><path class="cls-15" d="M300,335.94a15,15,0,0,0-7,28.25l14-26.48A15,15,0,0,0,300,335.94Z"/><circle class="cls-14" cx="403.69" cy="315.78" r="10"/><path class="cls-16" d="M403.69,305.78a10,10,0,0,0-4.7,18.83L408.38,307A10,10,0,0,0,403.69,305.78Z"/><circle class="cls-14" cx="196.33" cy="315.78" r="10"/><path class="cls-17" d="M196.33,305.78a10,10,0,0,0-4.7,18.83L201,307A10,10,0,0,0,196.33,305.78Z"/><circle class="cls-5" cx="478.26" cy="321.21" r="21.3"/><circle class="cls-6" cx="478.26" cy="321.21" r="21.3"/><path class="cls-18" d="M478.26,299.91a21.3,21.3,0,0,0-10,40.11l20-37.62A21.26,21.26,0,0,0,478.26,299.91Z"/><circle class="cls-5" cx="414.35" cy="411.42" r="33"/><circle class="cls-9" cx="414.35" cy="411.42" r="33"/><path class="cls-19" d="M414.35,378.42a33,33,0,0,0-15.5,62.14l31-58.27A32.74,32.74,0,0,0,414.35,378.42Z"/></g></svg>