<svg id="Capa_1" data-name="Capa 1" xmlns="http://www.w3.org/2000/svg" xmlns:xlink="http://www.w3.org/1999/xlink" viewBox="0 0 600 600"><defs><style>.cls-1{fill:url(#Degradado_sin_nombre_39);}.cls-2{fill:#ffcc28;}.cls-3{fill:url(#Degradado_sin_nombre_5);}.cls-4{fill:#003267;}</style><linearGradient id="Degradado_sin_nombre_39" x1="266.23" y1="174.1" x2="427.76" y2="477.9" gradientUnits="userSpaceOnUse"><stop offset="0" stop-color="#142649" stop-opacity="0.5"/><stop offset="1" stop-color="#142649" stop-opacity="0"/></linearGradient><linearGradient id="Degradado_sin_nombre_5" x1="145.62" y1="194.42" x2="298.64" y2="275.78" gradientUnits="userSpaceOnUse"><stop offset="0" stop-color="#fff" stop-opacity="0.6"/><stop offset="1" stop-color="#fff" stop-opacity="0.2"/></linearGradient></defs><title>emoticonos-feedback</title><path class="cls-1" d="M519,325.9A172,172,0,1,1,346.89,154,172,172,0,0,1,519,325.9"/><path class="cls-2" d="M469.44,275.2c0,95.09-77.11,172-171.86,172S125.44,370,125.44,275.2s77.12-172,171.87-172h0c95,0,172.13,76.92,172.13,172"/><path class="cls-3" d="M297.31,103.2c-94.75,0-171.87,77.18-171.87,172,0,66.1,37.6,123.62,92.47,152.41L378.46,123.47A171.59,171.59,0,0,0,297.31,103.2Z"/><circle class="cls-4" cx="251.31" cy="199.08" r="22"/><circle class="cls-4" cx="339.72" cy="199.08" r="22"/><path class="cls-4" d="M297.44,315.47a568.72,568.72,0,0,0,57.23-2.75c18.08-1.86,24.69-13.15,11.34-19.52-15.73-7.51-40.59-12.36-68.57-12.36s-52.83,4.85-68.56,12.36c-13.35,6.37-6.74,17.66,11.34,19.52A568.66,568.66,0,0,0,297.44,315.47Z"/></svg>