<svg id="Contenido" xmlns="http://www.w3.org/2000/svg" xmlns:xlink="http://www.w3.org/1999/xlink" viewBox="0 0 600 600"><defs><style>.cls-1{fill:url(#Degradado_sin_nombre_28);}.cls-2{fill:#2dcccd;}.cls-3{fill:#94e5e6;}.cls-4,.cls-7{fill-rule:evenodd;}.cls-4{fill:url(#Degradado_sin_nombre_12);}.cls-5{fill:#1464a5;}.cls-6{fill:#49a5e6;}.cls-7{fill:url(#Degradado_sin_nombre_6);}.cls-8{fill:#eaf9fa;}</style><linearGradient id="Degradado_sin_nombre_28" x1="257.53" y1="174.97" x2="443.67" y2="525.03" gradientUnits="userSpaceOnUse"><stop offset="0" stop-color="#192647" stop-opacity="0.5"/><stop offset="1" stop-color="#192647" stop-opacity="0"/></linearGradient><linearGradient id="Degradado_sin_nombre_12" x1="295.29" y1="249.57" x2="418.26" y2="314.96" gradientUnits="userSpaceOnUse"><stop offset="0" stop-color="#fff" stop-opacity="0.6"/><stop offset="1" stop-color="#ecf7f8" stop-opacity="0.2"/></linearGradient><linearGradient id="Degradado_sin_nombre_6" x1="149.54" y1="267.93" x2="272.51" y2="333.32" gradientUnits="userSpaceOnUse"><stop offset="0" stop-color="#fff" stop-opacity="0.4"/><stop offset="1" stop-color="#ecf7f8" stop-opacity="0.1"/></linearGradient></defs><title>GLOMO</title><path class="cls-1" d="M511.29,224.66h0V202.74a16.93,16.93,0,0,0-16.93-16.93H352.6a16.93,16.93,0,0,0-16.94,16.93v1.43H206.84a16.93,16.93,0,0,0-16.93,16.93V497.26a16.93,16.93,0,0,0,16.93,16.93H348.6a16.93,16.93,0,0,0,16.94-16.93v-1.43H494.36a16.93,16.93,0,0,0,16.93-16.93V299h0Z"/><rect class="cls-2" x="285.06" y="135.81" width="175.63" height="310.02" rx="16.93"/><rect class="cls-3" x="285.06" y="174.65" width="175.63" height="232.34"/><polygon class="cls-4" points="285.06 174.65 285.06 406.99 374.79 406.99 460.69 248.96 460.69 174.66 285.06 174.65"/><rect class="cls-5" x="139.31" y="154.17" width="175.63" height="310.02" rx="16.93"/><rect class="cls-6" x="139.31" y="193.01" width="175.63" height="232.34"/><polygon class="cls-7" points="139.31 193.01 139.31 425.35 229.04 425.35 314.94 267.32 314.94 193.02 139.31 193.01"/><path class="cls-8" d="M379,307.78H363.13c-.16-1.6-.27-3.07-.35-4.4s-.12-2.76-.12-4.28a17.69,17.69,0,0,1,1-6.14,18,18,0,0,1,2.7-4.93,21.14,21.14,0,0,1,4.05-4,44.87,44.87,0,0,1,5-3.23q2.46-1.41,4.28-2.67a15.2,15.2,0,0,0,3-2.64,9.63,9.63,0,0,0,1.76-3,11.87,11.87,0,0,0,.59-3.91,7.1,7.1,0,0,0-3-5.87c-2-1.52-4.76-2.29-8.36-2.29a21.74,21.74,0,0,0-6.17.91,29.78,29.78,0,0,0-10.77,5.81,27.48,27.48,0,0,0-4,4.08l-11-11.74a39.35,39.35,0,0,1,13.53-10.21,46.73,46.73,0,0,1,9.34-3.09A51.26,51.26,0,0,1,375.75,245a40.54,40.54,0,0,1,12.09,1.65,26,26,0,0,1,8.87,4.57,19.32,19.32,0,0,1,5.43,7,21,21,0,0,1,1.85,8.81,22.15,22.15,0,0,1-1.12,7.36,19.39,19.39,0,0,1-3,5.64,22.42,22.42,0,0,1-4.49,4.31,46.38,46.38,0,0,1-5.52,3.46,45.41,45.41,0,0,0-6.34,3.82,10.63,10.63,0,0,0-3.23,3.79,13.14,13.14,0,0,0-1.14,5C379,302.35,379,304.81,379,307.78Zm-8,28.83a13.53,13.53,0,0,1-4.9-.82,10.35,10.35,0,0,1-3.58-2.21,8.91,8.91,0,0,1-2.18-3.25,11.05,11.05,0,0,1,0-7.9,9.39,9.39,0,0,1,2.18-3.26A10,10,0,0,1,366,317a14,14,0,0,1,4.9-.79,14.73,14.73,0,0,1,5,.79,10.44,10.44,0,0,1,3.67,2.2,9.67,9.67,0,0,1,2.23,3.26,10.64,10.64,0,0,1,0,7.9,9.17,9.17,0,0,1-2.23,3.25,10.77,10.77,0,0,1-3.67,2.21A14.25,14.25,0,0,1,370.94,336.61Z"/></svg>