<svg id="Capa_1" data-name="Capa 1" xmlns="http://www.w3.org/2000/svg" xmlns:xlink="http://www.w3.org/1999/xlink" viewBox="0 0 600 600"><defs><style>.cls-1{fill:url(#Degradado_sin_nombre);}.cls-2{fill:#0065aa;}.cls-3{fill:url(#Degradado_sin_nombre_2);}.cls-4{fill:#00b161;}.cls-5{fill:#fff;}.cls-6{fill:#20b4ff;}.cls-7{fill:#2dcccd;}.cls-8{fill:none;}</style><linearGradient id="Degradado_sin_nombre" x1="276.6" y1="605.84" x2="438.13" y2="909.64" gradientTransform="translate(0 -424)" gradientUnits="userSpaceOnUse"><stop offset="0" stop-color="#142649" stop-opacity="0.5"/><stop offset="1" stop-color="#142649" stop-opacity="0"/></linearGradient><linearGradient id="Degradado_sin_nombre_2" x1="444.22" y1="736.18" x2="191.39" y2="736.18" gradientTransform="translate(0 -424)" gradientUnits="userSpaceOnUse"><stop offset="0" stop-color="#003267" stop-opacity="0.6"/><stop offset="1" stop-color="#003267" stop-opacity="0"/></linearGradient></defs><title>nuevo-cliente</title><path class="cls-1" d="M494.64,340.69c0-.43-.05-.88-.08-1.31-.13-1.8-.29-3.59-.47-5.36,0-.36-.09-.7-.12-1.06-.17-1.46-.35-2.92-.54-4.37l-.21-1.51q-.35-2.35-.75-4.68a3.44,3.44,0,0,0-.1-.63c-.31-1.76-.66-3.5-1-5.24-.09-.44-.19-.87-.29-1.31-.29-1.37-.61-2.74-.94-4.1-.11-.43-.21-.86-.32-1.28-.43-1.73-.88-3.44-1.37-5.14l-.12-.42c-.46-1.57-.93-3.13-1.42-4.66l-.42-1.28q-.71-2.16-1.47-4.29l-.26-.75c-.61-1.67-1.25-3.34-1.9-5l-.35-.86c-.57-1.39-1.15-2.77-1.74-4.13l-.46-1.06q-1.08-2.43-2.23-4.83A65,65,0,1,0,397.58,197,172,172,0,0,0,246.92,506.28H247q6.85,3.39,14,6.17h.08c1.5.58,3,1.13,4.53,1.67l.51.18c1.46.51,2.93,1,4.41,1.48l.35.11q4.85,1.54,9.8,2.8l.42.1c1.43.36,2.87.7,4.31,1l1.1.24c1.25.27,2.52.53,3.79.77l1.19.23q2.07.39,4.17.72l.72.12c1.65.26,3.32.49,5,.7l.69.08c1.39.17,2.79.32,4.19.46l1.55.14,3.43.26,1.72.11c1.16.07,2.32.12,3.48.16a13.39,13.39,0,0,1,1.55.06c1.66,0,3.33.08,5,.08a171.35,171.35,0,0,0,67-13.52,162.92,162.92,0,0,0,15-7.24q7.29-4,14.19-8.61,3.42-2.32,6.74-4.8c2.21-1.65,4.37-3.35,6.5-5.11q4.77-3.94,9.26-8.21c1-.95,2-1.91,2.95-2.89A172.38,172.38,0,0,0,483.06,415c1-2.61,2-5.25,2.89-7.9A171.77,171.77,0,0,0,495,352c0-1.84,0-3.67-.1-5.49a13.39,13.39,0,0,0-.06-1.55C494.81,343.53,494.73,342.11,494.64,340.69Z"/><circle class="cls-2" cx="272" cy="302" r="172"/><path class="cls-3" d="M352.91,150.19,191.39,454A172,172,0,0,0,352.91,150.19Z"/><path class="cls-4" d="M474,165a65,65,0,1,1-65-65,65,65,0,0,1,65,65h0"/><path class="cls-5" d="M395.57,193.41a5,5,0,0,1-3.54-1.47l-20-20a5,5,0,0,1,7.08-7.06l16.47,16.5,43.34-43.27a5,5,0,0,1,7.06,7.08L399.1,191.94A5,5,0,0,1,395.57,193.41Z"/><circle class="cls-6" cx="272" cy="253.07" r="54.38"/><path class="cls-6" d="M225,320.68h94a45,45,0,0,1,45,45v39.83a3.78,3.78,0,0,1-3.78,3.78H183.76a3.78,3.78,0,0,1-3.78-3.78V365.68a45,45,0,0,1,45-45Z"/><path class="cls-7" d="M474,165a65,65,0,1,1-65-65h0a65,65,0,0,1,65,65h0"/><path class="cls-5" d="M437.29,159.58H414.45V136.72a5.42,5.42,0,0,0-10.83,0v22.86h-22.9a5.42,5.42,0,0,0,0,10.84h22.9v22.86a5.42,5.42,0,0,0,5.42,5.41h0a5.41,5.41,0,0,0,5.41-5.41h0V170.42h22.87a5.42,5.42,0,1,0,0-10.84Z"/><rect class="cls-8" width="600" height="600"/></svg>