<svg xmlns="http://www.w3.org/2000/svg" xmlns:xlink="http://www.w3.org/1999/xlink" viewBox="0 0 600 600"><defs><style>.cls-1{fill:none;}.cls-2{fill:url(#Degradado_sin_nombre_78);}.cls-3{fill:#2dcccd;}.cls-4{fill:#94e5e6;}.cls-5{fill:url(#Degradado_sin_nombre_15);}.cls-6{fill:#043263;}.cls-7{fill:#49a5e6;}.cls-8{fill:url(#Degradado_sin_nombre_14);}.cls-9{fill:#eaf9fa;}</style><linearGradient id="Degradado_sin_nombre_78" x1="257.53" y1="-2900.97" x2="443.67" y2="-3251.03" gradientTransform="matrix(1, 0, 0, -1, 0, -2726)" gradientUnits="userSpaceOnUse"><stop offset="0" stop-color="#192647" stop-opacity="0.5"/><stop offset="1" stop-color="#192647" stop-opacity="0"/></linearGradient><linearGradient id="Degradado_sin_nombre_15" x1="295.29" y1="-2975.57" x2="418.26" y2="-3040.96" gradientTransform="matrix(1, 0, 0, -1, 0, -2726)" gradientUnits="userSpaceOnUse"><stop offset="0" stop-color="#fff" stop-opacity="0.6"/><stop offset="1" stop-color="#ecf7f8" stop-opacity="0.2"/></linearGradient><linearGradient id="Degradado_sin_nombre_14" x1="149.54" y1="-2993.93" x2="272.51" y2="-3059.32" gradientTransform="matrix(1, 0, 0, -1, 0, -2726)" gradientUnits="userSpaceOnUse"><stop offset="0" stop-color="#fff" stop-opacity="0.4"/><stop offset="1" stop-color="#ecf7f8" stop-opacity="0.1"/></linearGradient></defs><title>5</title><g id="Cuadrados_blancos" data-name="Cuadrados blancos"><rect class="cls-1" width="600" height="600"/></g><g id="Capa_11" data-name="Capa 11"><path class="cls-2" d="M511.29,224.66h0V202.74a16.93,16.93,0,0,0-16.93-16.93H352.6a16.93,16.93,0,0,0-16.94,16.92h0v1.43H206.84a16.93,16.93,0,0,0-16.93,16.93V497.26a16.93,16.93,0,0,0,16.93,16.93H348.6a16.93,16.93,0,0,0,16.94-16.92h0v-1.43H494.36a16.93,16.93,0,0,0,16.93-16.93V299h0Z"/><rect class="cls-3" x="285.06" y="135.81" width="175.63" height="310.02" rx="16.93"/><rect class="cls-4" x="285.06" y="174.65" width="175.63" height="232.34"/><polygon class="cls-5" points="285.06 174.65 285.06 406.99 374.79 406.99 460.69 248.96 460.69 174.66 285.06 174.65"/><rect class="cls-6" x="139.31" y="154.17" width="175.63" height="310.02" rx="16.93"/><rect class="cls-7" x="139.31" y="193.01" width="175.63" height="232.34"/><polygon class="cls-8" points="139.31 193.01 139.31 425.35 229.04 425.35 314.94 267.32 314.94 193.02 139.31 193.01"/><path class="cls-9" d="M379,307.78H363.13c-.16-1.6-.27-3.07-.35-4.4s-.12-2.76-.12-4.28a17.81,17.81,0,0,1,1-6.14,18.21,18.21,0,0,1,2.7-4.93,21,21,0,0,1,4.05-4,43.06,43.06,0,0,1,5-3.23q2.46-1.41,4.28-2.67a15.08,15.08,0,0,0,3-2.64,9.64,9.64,0,0,0,1.76-3,12,12,0,0,0,.59-3.91,7.12,7.12,0,0,0-3-5.87c-2-1.52-4.76-2.29-8.36-2.29a21.84,21.84,0,0,0-6.17.91,29.83,29.83,0,0,0-10.77,5.81,27.56,27.56,0,0,0-4,4.08l-11-11.74a39.24,39.24,0,0,1,13.53-10.21,46.71,46.71,0,0,1,9.34-3.09A51.48,51.48,0,0,1,375.75,245a40.52,40.52,0,0,1,12.09,1.65,26.1,26.1,0,0,1,8.87,4.57,19.27,19.27,0,0,1,5.43,7A20.89,20.89,0,0,1,404,267a22.15,22.15,0,0,1-1.12,7.36,19.5,19.5,0,0,1-3,5.64,22.37,22.37,0,0,1-4.49,4.31,46.4,46.4,0,0,1-5.52,3.46,46.37,46.37,0,0,0-6.34,3.82,10.64,10.64,0,0,0-3.23,3.79,13.27,13.27,0,0,0-1.14,5C379,302.35,379,304.81,379,307.78Zm-8,28.83a13.64,13.64,0,0,1-4.9-.82,10.38,10.38,0,0,1-3.58-2.21,9,9,0,0,1-2.18-3.25,11.09,11.09,0,0,1,0-7.9,9.35,9.35,0,0,1,2.18-3.26A10,10,0,0,1,366,317a14.06,14.06,0,0,1,4.9-.79,14.66,14.66,0,0,1,5,.79,10.43,10.43,0,0,1,3.67,2.2,9.62,9.62,0,0,1,2.23,3.26,10.68,10.68,0,0,1,0,7.9,9.21,9.21,0,0,1-2.23,3.25,10.6,10.6,0,0,1-3.67,2.21,14.4,14.4,0,0,1-5,.79Z"/></g></svg>