<svg xmlns="http://www.w3.org/2000/svg" xmlns:xlink="http://www.w3.org/1999/xlink" viewBox="0 0 600 600"><defs><style>.cls-1{fill:none;}.cls-2{fill:url(#Degradado_sin_nombre_53);}.cls-3{fill:#072146;}.cls-4{fill:#d4edfc;}.cls-5{fill:url(#Degradado_sin_nombre_10);}.cls-6{fill:#fff;}.cls-7{fill:#043263;}.cls-8{fill:#2dcccd;}.cls-9{fill:url(#Degradado_sin_nombre_9);}</style><linearGradient id="Degradado_sin_nombre_53" x1="241.3" y1="-1917.34" x2="458.87" y2="-2326.52" gradientTransform="matrix(1, 0, 0, -1, 0, -1762)" gradientUnits="userSpaceOnUse"><stop offset="0" stop-color="#192647" stop-opacity="0.5"/><stop offset="1" stop-color="#192647" stop-opacity="0"/></linearGradient><linearGradient id="Degradado_sin_nombre_10" x1="446.35" y1="-2054.3" x2="182.71" y2="-2054.3" gradientTransform="matrix(1, 0, 0, -1, 0, -1762)" gradientUnits="userSpaceOnUse"><stop offset="0" stop-color="#043263" stop-opacity="0.1"/><stop offset="1" stop-color="#043263" stop-opacity="0"/></linearGradient><linearGradient id="Degradado_sin_nombre_9" x1="414.21" y1="-1939.36" x2="325" y2="-1939.36" gradientTransform="matrix(1, 0, 0, -1, 0, -1762)" gradientUnits="userSpaceOnUse"><stop offset="0" stop-color="#028484" stop-opacity="0.8"/><stop offset="1" stop-color="#028484" stop-opacity="0"/></linearGradient></defs><title>4</title><g id="Cuadrados_Blancos" data-name="Cuadrados Blancos"><rect class="cls-1" width="600" height="600"/></g><g id="Capa_4" data-name="Capa 4"><path class="cls-2" d="M516.17,304.66l-14.74-10.27L501.15,174h0v-.32a1.31,1.31,0,0,0,0-.28,1.06,1.06,0,0,0-.1-.3,2,2,0,0,0-.08-.26,1.51,1.51,0,0,0-.15-.28,1.71,1.71,0,0,0-.13-.23l-.2-.24a1.56,1.56,0,0,0-.16-.2,3.11,3.11,0,0,0-.28-.23l-.17-.14-.3-.16-.21-.11a2,2,0,0,0-.41-.13h-.15a3.05,3.05,0,0,0-.6-.06H212.55a3.24,3.24,0,0,0-3.24,3.24h0V294.74l-14.23,9.92a23,23,0,0,0-9.86,18.87V515a23,23,0,0,0,23,23H503a23,23,0,0,0,23-23V323.53A23,23,0,0,0,516.17,304.66Z"/><path class="cls-3" d="M139.45,250.16,300,138.38,460.55,250.16A23,23,0,0,1,470.41,269V328.2H129.59V269A23,23,0,0,1,139.45,250.16Z"/><path class="cls-4" d="M442.52,116.5H156.92a3.23,3.23,0,0,0-3.23,3.23h0v348H442.3a4,4,0,0,0,4-4l-.57-241.4-.21-102.84A3,3,0,0,0,442.52,116.5Z"/><path class="cls-5" d="M373.31,116.5,182.71,468.11H442.35c2.19,0,4-2.24,4-4.43l-.83-344.18a3,3,0,0,0-3-3Z"/><path class="cls-6" d="M297.84,240.5H190.44a5,5,0,0,1,0-10h107.4a5,5,0,0,1,0,10Z"/><path class="cls-6" d="M297.84,260.5H190.44a5,5,0,0,1,0-10h107.4a5,5,0,0,1,0,10Z"/><path class="cls-6" d="M297.84,280.5H190.44a5,5,0,0,1,0-10h107.4a5,5,0,0,1,0,10Z"/><path class="cls-6" d="M409.33,315.5H190.44a5,5,0,0,1,0-10H409.33a5,5,0,0,1,0,10Z"/><path class="cls-6" d="M409.33,335.5H190.44a5,5,0,0,1,0-10H409.33a5,5,0,0,1,0,10Z"/><path class="cls-7" d="M297.84,360.56l-168.25-75.5V460.5a23,23,0,0,0,23,23H273a24.8,24.8,0,0,0,24.8-24.8h0Z"/><path class="cls-7" d="M302.16,360.56l168.25-75.5V460.5a23,23,0,0,1-23,23H327a24.8,24.8,0,0,1-24.8-24.8h0Z"/><path class="cls-3" d="M470.41,458.7,312.65,354.86a23,23,0,0,0-25.3,0L129.59,458.7v1.8a23,23,0,0,0,23,23H447.41a23,23,0,0,0,23-23Z"/><rect class="cls-6" x="330.91" y="230.36" width="83.34" height="50.38" rx="3"/><rect class="cls-8" x="185.75" y="149.22" width="228.5" height="56.33" rx="3"/><path class="cls-9" d="M411.25,149.22H355.57L325,205.5h86.21a3,3,0,0,0,3-3V152.22A3,3,0,0,0,411.25,149.22Z"/></g></svg>