<?xml version="1.0" encoding="utf-8"?>
<!-- Generator: Adobe Illustrator 23.0.1, SVG Export Plug-In . SVG Version: 6.00 Build 0)  -->
<svg version="1.1" id="Contenido" xmlns="http://www.w3.org/2000/svg" xmlns:xlink="http://www.w3.org/1999/xlink" x="0px" y="0px"
	 viewBox="0 0 600 600" style="enable-background:new 0 0 600 600;" xml:space="preserve">
<style type="text/css">
	.st0{fill:url(#SVGID_1_);}
	.st1{fill:#D4EDFC;}
	.st2{fill:url(#SVGID_2_);}
	.st3{fill:#1464A5;}
	.st4{fill:#C49735;}
	.st5{fill:#FFFFFF;}
	.st6{fill:#F8CD50;}
</style>
<title>GLOMO</title>
<linearGradient id="SVGID_1_" gradientUnits="userSpaceOnUse" x1="243.188" y1="456.2594" x2="463.3365" y2="42.2209" gradientTransform="matrix(1 0 0 -1 0 602)">
	<stop  offset="0" style="stop-color:#192647"/>
	<stop  offset="0" style="stop-color:#192647;stop-opacity:0.5"/>
	<stop  offset="1" style="stop-color:#192647;stop-opacity:0"/>
</linearGradient>
<path class="st0" d="M487.6,162c0-0.4-0.1-0.8-0.2-1.2c-0.1-0.2-0.2-0.3-0.3-0.5c-0.6-0.8-1.5-1.3-2.5-1.3H219c-1.7,0-3,1.3-3,3v376
	c0,1.7,1.3,3,3,3h210.6v19.8l15.9-14l15.9,14V541H485c1.7,0,3-1.3,3-3l0,0V264.5l0,0L487.6,162z"/>
<path class="st1" d="M434.6,109H169c-1.7,0-3,1.3-3,3v376c0,1.7,1.3,3,3,3h266c1.7,0,3-1.3,3-3V214.5L437.6,112
	C437.6,110.3,436.3,109,434.6,109z"/>
<linearGradient id="SVGID_2_" gradientUnits="userSpaceOnUse" x1="438" y1="302" x2="191.16" y2="302" gradientTransform="matrix(1 0 0 -1 0 602)">
	<stop  offset="0" style="stop-color:#043263;stop-opacity:0.1"/>
	<stop  offset="1" style="stop-color:#043263;stop-opacity:0"/>
</linearGradient>
<path class="st2" d="M437.6,112c0-1.7-1.3-3-3-3h-39.8L191.2,491H435c1.7,0,3-1.3,3-3V214.5L437.6,112z"/>
<g>
	<path class="st3" d="M265.5,245h-67c-2.8,0-5-2.2-5-5s2.2-5,5-5h67c2.8,0,5,2.2,5,5S268.3,245,265.5,245z"/>
</g>
<g>
	<path class="st3" d="M405.5,275h-207c-2.8,0-5-2.2-5-5s2.2-5,5-5h207c2.8,0,5,2.2,5,5S408.3,275,405.5,275z"/>
</g>
<g>
	<path class="st3" d="M405.5,305h-207c-2.8,0-5-2.2-5-5s2.2-5,5-5h207c2.8,0,5,2.2,5,5S408.3,305,405.5,305z"/>
</g>
<g>
	<path class="st3" d="M405.5,335h-207c-2.8,0-5-2.2-5-5s2.2-5,5-5h207c2.8,0,5,2.2,5,5S408.3,335,405.5,335z"/>
</g>
<g>
	<path class="st3" d="M325.5,365h-127c-2.8,0-5-2.2-5-5s2.2-5,5-5h127c2.8,0,5,2.2,5,5S328.3,365,325.5,365z"/>
</g>
<polygon class="st4" points="411.3,510.9 395.5,496.9 379.6,510.8 379.7,438.3 411.4,438.3 "/>
<circle class="st5" cx="395.5" cy="448.2" r="31.8"/>
<circle class="st6" cx="395.5" cy="448.2" r="21.2"/>
<path class="st3" d="M267.3,150.6l-8.7,16.6c-0.1,0.3-0.5,0.3-0.7,0.2c-0.1,0-0.2-0.1-0.2-0.2l-8.7-16.6c-0.1-0.2-0.3-0.3-0.4-0.3
	h-4.2c-0.2,0-0.4,0.2-0.4,0.4c0,0.1,0,0.1,0,0.2l13.7,25.7c0.1,0.2,0.4,0.3,0.7,0.2c0.1,0,0.2-0.1,0.2-0.2l13.7-25.7
	c0.1-0.2,0-0.4-0.2-0.5c0,0-0.1,0-0.2,0h-4.2C267.6,150.4,267.4,150.5,267.3,150.6"/>
<path class="st3" d="M272.3,172.8l8.7-16.6c0.1-0.3,0.5-0.3,0.7-0.2c0.1,0,0.2,0.1,0.2,0.2l8.7,16.6c0.1,0.2,0.3,0.3,0.5,0.3h4.2
	c0.2,0,0.4-0.2,0.4-0.4c0-0.1,0-0.1,0-0.2l-13.7-25.7c-0.1-0.2-0.4-0.3-0.7-0.2c-0.1,0-0.1,0.1-0.2,0.2l-13.7,25.7
	c-0.1,0.2,0,0.4,0.2,0.5c0.1,0,0.1,0,0.2,0h4.2C272,173,272.2,172.9,272.3,172.8"/>
<path class="st3" d="M207.2,173h-7.8c-0.3,0-0.5-0.2-0.5-0.5v-7c0-0.3,0.2-0.5,0.5-0.5h7.8c3.7,0,5.4,1.1,5.4,4S211,173,207.2,173
	 M199.4,154.2h7.7c2.9,0,4.3,1.2,4.3,3.5s-1.4,3.5-4.3,3.5h-7.7c-0.3,0-0.5-0.2-0.5-0.5v-5.9C198.9,154.4,199.1,154.2,199.4,154.2
	 M212.8,162.6c1.9-1.1,3.1-3.1,2.9-5.3c0-4.1-3.2-6.9-7.8-6.9h-13c-0.3,0-0.5,0.2-0.5,0.5v25.5c0,0.3,0.2,0.5,0.5,0.5h12.5
	c6.2,0,9.5-2.7,9.5-8C217.2,166.1,215.5,163.5,212.8,162.6"/>
<path class="st3" d="M234,173h-7.8c-0.3,0-0.5-0.2-0.5-0.5v-7c0-0.3,0.2-0.5,0.5-0.5h7.8c3.7,0,5.4,1.1,5.4,4S237.8,173,234,173
	 M226.2,154.2h7.7c2.9,0,4.3,1.2,4.3,3.5s-1.4,3.5-4.3,3.5h-7.7c-0.3,0-0.5-0.2-0.5-0.5v-5.9C225.7,154.4,225.9,154.2,226.2,154.2
	 M239.6,162.6c1.9-1.1,3.1-3.1,2.9-5.3c0-4.1-3.2-6.9-7.8-6.9h-13c-0.3,0-0.5,0.2-0.5,0.5v25.5c0,0.3,0.2,0.5,0.5,0.5h12.5
	c6.2,0,9.5-2.7,9.5-8C244,166.1,242.3,163.5,239.6,162.6"/>
</svg>
