<svg xmlns="http://www.w3.org/2000/svg" xmlns:xlink="http://www.w3.org/1999/xlink" viewBox="0 0 600 600"><defs><style>.cls-1{fill:none;}.cls-2{fill:url(#Degradado_sin_nombre_499);}.cls-3{fill:#004481;}.cls-4{fill:#072146;}.cls-5{fill:#043263;}.cls-6{fill:#1464a5;}.cls-7{fill:#d4edfc;}.cls-8{fill:url(#Degradado_sin_nombre_89);}.cls-9{opacity:0.5;}.cls-10{fill:#f8cd50;}.cls-11{opacity:0.59;isolation:isolate;fill:url(#Degradado_sin_nombre_18);}.cls-12{fill:url(#Degradado_sin_nombre_114);}.cls-13{fill:#2dcccd;}.cls-14{fill:url(#Degradado_sin_nombre_27);}</style><linearGradient id="Degradado_sin_nombre_499" x1="246.11" y1="-809.52" x2="427.49" y2="-1150.65" gradientTransform="matrix(1, 0, 0, -1, 0, -650)" gradientUnits="userSpaceOnUse"><stop offset="0" stop-color="#1c2645" stop-opacity="0.5"/><stop offset="1" stop-color="#1c2645" stop-opacity="0"/></linearGradient><linearGradient id="Degradado_sin_nombre_89" x1="223.35" y1="-869.89" x2="323.1" y2="-969.63" gradientTransform="matrix(1, 0, 0, -1, 0, -650)" gradientUnits="userSpaceOnUse"><stop offset="0" stop-color="#fff" stop-opacity="0.3"/><stop offset="1" stop-color="#fff" stop-opacity="0.1"/></linearGradient><linearGradient id="Degradado_sin_nombre_18" x1="272.92" y1="-982.24" x2="311.08" y2="-1020.41" gradientTransform="matrix(1, 0, 0, -1, 0, -650)" gradientUnits="userSpaceOnUse"><stop offset="0" stop-color="#fff" stop-opacity="0.6"/><stop offset="1" stop-color="#fff" stop-opacity="0.2"/></linearGradient><linearGradient id="Degradado_sin_nombre_114" x1="377.54" y1="-1082.35" x2="290.94" y2="-1082.35" gradientTransform="matrix(1, 0, 0, -1, 0, -650)" gradientUnits="userSpaceOnUse"><stop offset="0" stop-color="#072146" stop-opacity="0.8"/><stop offset="1" stop-color="#072146" stop-opacity="0"/></linearGradient><linearGradient id="Degradado_sin_nombre_27" x1="333.53" y1="-796.37" x2="295" y2="-796.37" gradientTransform="matrix(1, 0, 0, -1, 0, -650)" gradientUnits="userSpaceOnUse"><stop offset="0" stop-color="#043263" stop-opacity="0.3"/><stop offset="1" stop-color="#043263" stop-opacity="0.1"/></linearGradient></defs><title>11</title><g id="Cuadrados_Blancos" data-name="Cuadrados Blancos"><rect class="cls-1" width="600" height="600"/></g><g id="Capa_61" data-name="Capa 61"><path class="cls-2" d="M419.4,485.63v-8a32,32,0,0,0-19.53-29.48c-.48-.2-1-.39-1.46-.57a31.43,31.43,0,0,0-6.12-1.57,32,32,0,0,0-4.88-.37h-4v-16h3.68A33.64,33.64,0,0,0,420.71,396c0-.86,0-1.71-.1-2.56L409.79,252.76a33.62,33.62,0,0,0-20.31-28.34l-.29-.12-.94-.37-.4-.15-.9-.32-.46-.15-.88-.27-.51-.14-1.43-.35-.78-.17-.65-.12-.83-.14-.63-.09-.89-.11-.59-.06-1-.07H364.83V206.84h36.45a21.45,21.45,0,0,0,20.78-26.53,80.92,80.92,0,0,0-157.26,0,21.43,21.43,0,0,0,20.78,26.53H322v14.88H310.59a33.77,33.77,0,0,0-11,1.84,30.55,30.55,0,0,0-2.89,1.16c-.94.43-1.87.9-2.76,1.41a33.59,33.59,0,0,0-11.2,10.37q-.87,1.27-1.62,2.64a23.37,23.37,0,0,0-1.37,2.8,32.38,32.38,0,0,0-1.58,4.46,33,33,0,0,0-.94,4.73c-.07.54-.12,1.08-.16,1.63L266.24,393.45c0,.56-.07,1.12-.08,1.68v2.28a6.34,6.34,0,0,0,.06,1.07v.6a9.15,9.15,0,0,0,.13,1.16v.46c.08.53.16,1.05.26,1.57l.09.42c.08.39.16.77.25,1.15l.15.6c.08.31.17.63.26.94s.12.42.19.64l.29.89c.1.3.14.42.22.62s.24.65.37,1,.17.43.26.64q.26.61.54,1.2l.33.67.36.71.39.71.36.63c.14.24.29.48.44.72l.36.56c.12.19.32.5.49.74l.23.32c.4.56.81,1.11,1.24,1.65l.25.32c.22.26.44.52.67.77l.31.36c.23.26.47.51.71.76l.3.31.77.77.16.14a32.79,32.79,0,0,0,3,2.52l.09.07,1,.71.2.13,1,.68.12.08a32.74,32.74,0,0,0,4.87,2.47H287c.41.17.82.32,1.23.47l.16.06a33.57,33.57,0,0,0,11.27,1.95h3.68v16h-4a32,32,0,0,0-32,32v8a8,8,0,0,0-8,8v5.6a2.39,2.39,0,0,0,2.38,2.4H425a2.39,2.39,0,0,0,2.4-2.38v-5.62a8,8,0,0,0-8-8ZM285.58,192a6.36,6.36,0,0,1-5.09-2.46,6.62,6.62,0,0,1-1.22-5.68,66,66,0,0,1,128.32,0,6.62,6.62,0,0,1-1.22,5.68,6.36,6.36,0,0,1-5.09,2.46H375.42a24.61,24.61,0,0,0-24.61-24.6H336.05A24.61,24.61,0,0,0,311.44,192Z"/><path class="cls-3" d="M257.59,412.36h88a32,32,0,0,1,32,32v8h-152v-8A32,32,0,0,1,257.59,412.36Z"/><path class="cls-4" d="M225.6,452.34H377.54a8,8,0,0,1,8,8v5.6a2.39,2.39,0,0,1-2.4,2.4H220a2.39,2.39,0,0,1-2.4-2.4v-5.6A8,8,0,0,1,225.6,452.34Z"/><rect class="cls-5" x="280.17" y="173.56" width="42.8" height="14.88"/><path class="cls-6" d="M294.19,134.07H309a24.6,24.6,0,0,1,24.6,24.6h-64a24.6,24.6,0,0,1,24.6-24.6h0Z"/><path class="cls-7" d="M345.24,396.36H257.9a33.62,33.62,0,0,1-33.62-33.62c0-.86,0-1.72.1-2.57l10.83-140.69a33.61,33.61,0,0,1,33.52-31h65.69a33.61,33.61,0,0,1,33.51,31l10.83,140.69a33.62,33.62,0,0,1-30.95,36.09C347,396.33,346.1,396.36,345.24,396.36Z"/><path class="cls-8" d="M334.42,188.44H268.73a33.61,33.61,0,0,0-33.52,31L224.38,360.17a33.62,33.62,0,0,0,23.51,34.67L354.21,194.89A33.45,33.45,0,0,0,334.42,188.44Z"/><g class="cls-9"><path class="cls-10" d="M326.71,340.5h0a40.33,40.33,0,0,1-11.37-22.4.76.76,0,0,0-.87-.62.79.79,0,0,0-.34.14,37.28,37.28,0,0,0-7.25,8.1.75.75,0,0,1-1,.2.7.7,0,0,1-.31-.44,39.67,39.67,0,0,1-1.2-10,42.53,42.53,0,0,1,1.09-9.47.75.75,0,0,0-.55-.91.69.69,0,0,0-.45,0,40.51,40.51,0,0,0-25.05,37.44,23,23,0,0,0,.08,2.37.75.75,0,0,1-1.44.35,43.21,43.21,0,0,1-2.68-8.15.76.76,0,0,0-.92-.56.77.77,0,0,0-.42.27c-5.86,7.51-9.38,21-9.38,30.87a37,37,0,1,0,73.94,3c0-1,0-2,0-3C338.54,357.83,334.26,348.05,326.71,340.5Z"/><path class="cls-11" d="M315.34,318.1a.76.76,0,0,0-.87-.62.79.79,0,0,0-.34.14,37.28,37.28,0,0,0-7.25,8.1.75.75,0,0,1-1,.2.7.7,0,0,1-.31-.44,39.67,39.67,0,0,1-1.2-10,42.53,42.53,0,0,1,1.09-9.47.75.75,0,0,0-.55-.91.69.69,0,0,0-.45,0,40.51,40.51,0,0,0-25.05,37.44,23,23,0,0,0,.08,2.37.75.75,0,0,1-1.44.35,43.21,43.21,0,0,1-2.68-8.15.76.76,0,0,0-.92-.56.77.77,0,0,0-.42.27c-5.86,7.51-9.38,21-9.38,30.87a36.62,36.62,0,0,0,17.58,31.57l37.12-69A40.64,40.64,0,0,1,315.34,318.1Z"/></g><path class="cls-12" d="M377.54,444.35a32,32,0,0,0-32-32H312.2l-21.26,40h86.6Z"/><rect class="cls-4" x="261.59" y="396.36" width="79.97" height="15.99"/><path class="cls-13" d="M359.42,173.56H243.72a21.44,21.44,0,0,1-21.4-21.48,21.21,21.21,0,0,1,.62-5.08,80.92,80.92,0,0,1,157.26,0,21.42,21.42,0,0,1-20.78,26.53ZM301.57,100.1a65.8,65.8,0,0,0-64.16,50.43,6.62,6.62,0,0,0,1.22,5.68,6.36,6.36,0,0,0,5.09,2.46h115.7a6.36,6.36,0,0,0,5.09-2.46,6.62,6.62,0,0,0,1.22-5.68A65.8,65.8,0,0,0,301.57,100.1Z"/><path class="cls-14" d="M309,134.07h-.84L295,158.67h38.53A24.6,24.6,0,0,0,309,134.07Z"/></g></svg>