<svg id="Contenido" xmlns="http://www.w3.org/2000/svg" xmlns:xlink="http://www.w3.org/1999/xlink" viewBox="0 0 600 600"><defs><style>.cls-1{fill:url(#Degradado_sin_nombre);}.cls-2{fill:#1464a5;}.cls-3{fill:url(#Degradado_sin_nombre_6);}.cls-4{fill:#2dcccd;}.cls-5{fill:#043263;}.cls-6{fill:#004481;}.cls-7{fill:none;}</style><linearGradient id="Degradado_sin_nombre" x1="243.05" y1="453.2" x2="456.98" y2="50.83" gradientTransform="matrix(1, 0, 0, -1, 0, 602)" gradientUnits="userSpaceOnUse"><stop offset="0" stop-color="#1a2746" stop-opacity="0.5"/><stop offset="1" stop-color="#1a2746" stop-opacity="0"/></linearGradient><linearGradient id="Degradado_sin_nombre_6" x1="425.51" y1="302" x2="209.61" y2="302" gradientTransform="matrix(1, 0, 0, -1, 0, 602)" gradientUnits="userSpaceOnUse"><stop offset="0" stop-color="#043263" stop-opacity="0.4"/><stop offset="1" stop-color="#043263" stop-opacity="0"/></linearGradient></defs><title> </title><path class="cls-1" d="M477,180a1.92,1.92,0,0,0,1.79-1.35,4,4,0,0,1,2.4-2.42,2,2,0,0,0,1.37-1.83V166a6,6,0,0,0-6-6H458v-8a6,6,0,0,0-6-6H400a6,6,0,0,0-6,6v8H223.49a6,6,0,0,0-6,6v8.4a2,2,0,0,0,1.37,1.83,3.92,3.92,0,0,1,2.4,2.42,1.92,1.92,0,0,0,1.79,1.35h1.44v86H224a3,3,0,0,0-3,3v14a3,3,0,0,0,3,3h.49V414H224a3,3,0,0,0-3,3v14a3,3,0,0,0,3,3h.49v86h-1.44a1.92,1.92,0,0,0-1.79,1.35,4,4,0,0,1-2.4,2.42,2,2,0,0,0-1.37,1.83V534a6,6,0,0,0,6,6h253a6,6,0,0,0,6-6v-8.4a2,2,0,0,0-1.37-1.83,3.92,3.92,0,0,1-2.4-2.42A1.93,1.93,0,0,0,477,520h-1.44V434H476a3,3,0,0,0,3-3V417a3,3,0,0,0-3-3h-.49V286H476a3,3,0,0,0,3-3V269a3,3,0,0,0-3-3h-.49V180Z"/><rect class="cls-2" x="174.49" y="130" width="251.02" height="340"/><polygon class="cls-3" points="425.51 130 390.39 130 209.61 470 425.51 470 425.51 130"/><path class="cls-4" d="M350,96h52a6,6,0,0,1,6,6v8H344v-8A6,6,0,0,1,350,96Z"/><path class="cls-4" d="M304.42,252.05c-2.89-4.82-5.95-4.65-8.84,0-13.26,19.26-33.33,48.15-33.33,62.59a36.49,36.49,0,0,0,11.05,26.07,38.42,38.42,0,0,0,53.4,0,36.49,36.49,0,0,0,11.05-26.07C337.75,300,317.68,271.31,304.42,252.05Z"/><rect class="cls-5" x="168.77" y="470" width="262.45" height="20" rx="3.03"/><rect class="cls-5" x="168.77" y="110" width="262.45" height="20" rx="3.03"/><rect class="cls-6" x="168.77" y="206.02" width="262.45" height="20" rx="3.03"/><rect class="cls-6" x="168.77" y="363.98" width="262.45" height="20" rx="3.03"/><rect class="cls-7" width="600" height="600"/></svg>