<svg xmlns="http://www.w3.org/2000/svg" xmlns:xlink="http://www.w3.org/1999/xlink" viewBox="0 0 600 600"><defs><style>.cls-1{fill:url(#Degradado_sin_nombre_2);}.cls-2{fill:#f8cd50;}.cls-3{fill:url(#Degradado_sin_nombre_8);}.cls-4{fill:#49a5e6;}.cls-5{fill:#1464a5;}.cls-6{fill:#004481;}.cls-7{fill:#043263;}.cls-8{fill:#2dcccd;}.cls-9{fill:url(#Degradado_sin_nombre_8-2);}.cls-10{fill:url(#Degradado_sin_nombre_14);}.cls-11{fill:url(#Degradado_sin_nombre_18);}.cls-12{fill:url(#Degradado_sin_nombre_14-2);}</style><linearGradient id="Degradado_sin_nombre_2" x1="240.89" y1="203.73" x2="455.09" y2="606.58" gradientUnits="userSpaceOnUse"><stop offset="0" stop-color="#1a2746" stop-opacity="0.5"/><stop offset="1" stop-color="#1a2746" stop-opacity="0"/></linearGradient><linearGradient id="Degradado_sin_nombre_8" x1="463.14" y1="283.85" x2="507.2" y2="327.91" gradientUnits="userSpaceOnUse"><stop offset="0.01" stop-color="#fff" stop-opacity="0.6"/><stop offset="1" stop-color="#fff" stop-opacity="0.2"/></linearGradient><linearGradient id="Degradado_sin_nombre_8-2" x1="84.12" y1="225.18" x2="143.92" y2="284.99" xlink:href="#Degradado_sin_nombre_8"/><linearGradient id="Degradado_sin_nombre_14" x1="140.4" y1="432.06" x2="92.92" y2="432.06" gradientUnits="userSpaceOnUse"><stop offset="0.02" stop-color="#043263" stop-opacity="0.3"/><stop offset="1" stop-color="#043263" stop-opacity="0"/></linearGradient><linearGradient id="Degradado_sin_nombre_18" x1="502.98" y1="234.58" x2="441.02" y2="234.58" gradientUnits="userSpaceOnUse"><stop offset="0.02" stop-color="#043263" stop-opacity="0.2"/><stop offset="1" stop-color="#043263" stop-opacity="0"/></linearGradient><linearGradient id="Degradado_sin_nombre_14-2" x1="498.98" y1="463.47" x2="476.36" y2="463.47" xlink:href="#Degradado_sin_nombre_14"/></defs><title>petroleo_01</title><g id="Capa_3" data-name="Capa 3"><path class="cls-1" d="M179.83,247.84l-11.06,1.94V246a1,1,0,0,0-1-1h-3a6,6,0,0,0-6,6v.55l-5.5,1a26.67,26.67,0,0,0-21.63,30.89l1.44,8.18a5,5,0,0,0,5.79,4.05l19.9-3.5V429.05H138.88a3.08,3.08,0,0,0-3.08,3.09V436a3.08,3.08,0,0,0,3.08,3.09h.28v86h-1.68a17,17,0,0,0-17,17v2a1,1,0,0,0,1,1h449a1,1,0,0,0,1-1v-2a17,17,0,0,0-17-17H547V511.21h1.61a2.28,2.28,0,0,0,2.27-2.28v-5.45a2.27,2.27,0,0,0-2.27-2.27h-7.92V318.34c9.87-25.39,13.11-55.15,7.71-85.79-5.8-32.88-20.6-61.41-40.61-82.38a6,6,0,0,0-5.41-1.79l-32.79,5.78a6,6,0,0,0-4.87,7l6.25,35.45L369.7,214.39a40,40,0,0,0-68.36,12Zm8.54,277.23v-86h.28a3.08,3.08,0,0,0,3.08-3.09v-3.82a3.08,3.08,0,0,0-3.08-3.09H168.77V290.37l11.06-1.95,122.4-21.55-46.52,258.2Zm121.06-84.15,29-160.93h.43L383.1,525.07H294.25l15.18-84.15m112.21,84.15L373.82,259.64a39.94,39.94,0,0,0,2.72-5.85L477.88,236,500,361.5a6,6,0,0,0,10.06,3.31,121,121,0,0,0,20.58-25.89V501.21h-7.92a2.27,2.27,0,0,0-2.28,2.27v5.45a2.28,2.28,0,0,0,2.28,2.28h1.61v13.86Z"/></g><g id="Capa_2" data-name="Capa 2"><rect class="cls-2" x="482.67" y="194.31" width="10" height="291.47"/><polygon class="cls-3" points="492.67 264.31 482.67 264.31 482.67 352.44 492.67 333.63 492.67 264.31"/><path class="cls-4" d="M416.7,111.11,452,311.5a6,6,0,0,0,10,3.31c31.45-29.79,47.55-79.74,38.29-132.26-5.8-32.88-20.6-61.41-40.61-82.38a6,6,0,0,0-5.41-1.79l-32.79,5.78A6,6,0,0,0,416.7,111.11Z"/><rect class="cls-5" x="253.88" y="356.46" width="67.91" height="10" transform="translate(-171.29 309.4) rotate(-45)"/><polygon class="cls-6" points="323.96 336.45 323.96 326.45 256.04 326.45 256.04 336.45 269.99 336.45 265.45 340.99 304.87 380.4 256.04 380.4 256.04 390.4 323.96 390.4 323.96 380.4 319.01 380.4 275.06 336.45 323.96 336.45"/><path class="cls-5" d="M460.54,174.46l-4.86-27.57a6,6,0,0,0-6.95-4.87L105.29,202.51A26.67,26.67,0,0,0,83.66,233.4l1.44,8.18a5,5,0,0,0,5.79,4l364.79-64.22A6,6,0,0,0,460.54,174.46Z"/><polygon class="cls-7" points="246.27 475.07 298.72 184.31 260.11 184.31 207.73 475.07 246.27 475.07"/><polygon class="cls-7" points="373.67 475.07 321.28 184.31 282.67 184.31 335.13 475.07 373.67 475.07"/><circle class="cls-4" cx="291" cy="190" r="40"/><circle class="cls-5" cx="291" cy="190" r="20"/><path class="cls-8" d="M89.5,475.07h417a17,17,0,0,1,17,17v2a1,1,0,0,1-1,1H73.5a1,1,0,0,1-1-1v-2A17,17,0,0,1,89.5,475.07Z"/><path class="cls-2" d="M120.79,475.07h-10V201a6,6,0,0,1,6-6h3a1,1,0,0,1,1,1Z"/><path class="cls-9" d="M119.79,195h-3a6,6,0,0,0-6,6V318.12l10-18.8V196A1,1,0,0,0,119.79,195Z"/><rect class="cls-5" x="91.18" y="389.05" width="49.22" height="86.02"/><rect class="cls-7" x="87.82" y="379.05" width="55.94" height="10" rx="3.09"/><polygon class="cls-10" points="92.92 475.07 140.4 475.07 140.4 389.05 138.66 389.05 92.92 475.07"/><path class="cls-11" d="M492.26,152.69,441,249.05l11,62.45a6,6,0,0,0,10,3.3c31.45-29.78,47.55-79.73,38.29-132.25A169.39,169.39,0,0,0,492.26,152.69Z"/><rect class="cls-5" x="476.36" y="456.87" width="22.62" height="18.2"/><polygon class="cls-12" points="476.36 472.41 476.36 475.07 498.98 475.07 498.98 451.87 476.36 472.41"/><rect class="cls-7" x="472.47" y="446.87" width="30.39" height="10" rx="2.28"/></g></svg>