<svg id="Contenido" xmlns="http://www.w3.org/2000/svg" xmlns:xlink="http://www.w3.org/1999/xlink" viewBox="0 0 600 600"><defs><style>.cls-1{fill:url(#Degradado_sin_nombre);}.cls-2{fill:#f8cd50;}.cls-3{fill:url(#Degradado_sin_nombre_2);}.cls-4{fill:#043263;}.cls-5{fill:#004481;}.cls-6{fill:#2dcccd;}.cls-7{fill:url(#Degradado_sin_nombre_3);}.cls-8{fill:#072146;}.cls-9{fill:none;}</style><linearGradient id="Degradado_sin_nombre" x1="208.73" y1="388.21" x2="415.99" y2="-1.61" gradientTransform="matrix(1, 0, 0, -1, 0, 602)" gradientUnits="userSpaceOnUse"><stop offset="0" stop-color="#1a2746" stop-opacity="0.5"/><stop offset="1" stop-color="#1a2746" stop-opacity="0"/></linearGradient><linearGradient id="Degradado_sin_nombre_2" x1="256.1" y1="364.21" x2="335.9" y2="284.42" gradientTransform="matrix(1, 0, 0, -1, 0, 602)" gradientUnits="userSpaceOnUse"><stop offset="0.01" stop-color="#fff" stop-opacity="0.6"/><stop offset="1" stop-color="#fff" stop-opacity="0.2"/></linearGradient><linearGradient id="Degradado_sin_nombre_3" x1="353.24" y1="462.96" x2="287.71" y2="462.96" gradientTransform="matrix(1, 0, 0, -1, 0, 602)" gradientUnits="userSpaceOnUse"><stop offset="0" stop-color="#043263" stop-opacity="0.4"/><stop offset="1" stop-color="#043263" stop-opacity="0.1"/></linearGradient></defs><title> </title><path class="cls-1" d="M403.24,191.06V174.2a12,12,0,0,0-2.74-7.63,11.88,11.88,0,0,0-5.69-3.83,12,12,0,0,0-3.57-.54H308.76a12,12,0,0,0-12,12v16.86H296a1,1,0,0,0-1,1v6a1,1,0,0,0,1,1h.76v9.34h-4.7a6,6,0,0,0-5.78,4.38L276.7,247a6,6,0,0,0,4.16,7.4,6.19,6.19,0,0,0,1.61.22h9L217,520.73H182a17,17,0,0,0-17,17h0v2a1,1,0,0,0,1,1H534a1,1,0,0,0,1-1v-2a17,17,0,0,0-17-17H483L408.52,254.67h9a6,6,0,0,0,6-6,5.84,5.84,0,0,0-.22-1.61l-9.58-34.25a6,6,0,0,0-5.78-4.38h-4.7V191.06ZM306.19,375.67H342v38.48l-36.39-36.39Zm51.81,2v-2h35.8l.59,2.09L358,414.15Zm0-12V329.8l31.89,31.89,1.11,4Zm0-50V313.8l14.44-14.44,11.95,42.69Zm0-16v-35h4.72l6.62,23.65Zm-30.44-.3L342,313.8v1.86l-26.39,26.39ZM310.11,361.7,342,329.8v35.87H309ZM342,428.29v1.86l-70.92,70.92L302.52,388.8Zm16,0,39.48-39.49,31.44,112.27L358,430.15Zm-92.43,92.44h0L342,444.29v76.44Zm92.43,0V444.29l76.42,76.42h0Z"/><rect class="cls-2" x="292" y="202.81" width="16" height="271.65"/><polygon class="cls-3" points="308 201.89 292 201.89 292 361.48 308 327.91 308 201.89"/><rect class="cls-4" x="234.76" y="266.46" width="124.48" height="10" transform="translate(-104.96 289.52) rotate(-45)"/><rect class="cls-5" x="241.71" y="319.4" width="116.58" height="10"/><rect class="cls-5" x="297.99" y="209.22" width="10" height="124.48" transform="translate(-103.2 293.76) rotate(-45)"/><rect class="cls-4" x="177.85" y="386.95" width="226.3" height="10" transform="translate(-191.92 320.57) rotate(-45)"/><rect class="cls-5" x="304" y="278.8" width="10" height="226.3" transform="translate(-186.65 333.29) rotate(-45)"/><polygon class="cls-4" points="215.57 474.46 308.03 144.31 259.42 144.31 167.03 474.46 215.57 474.46"/><polygon class="cls-4" points="432.97 474.46 340.58 144.31 291.97 144.31 384.43 474.46 432.97 474.46"/><path class="cls-6" d="M132,474.46H468a17,17,0,0,1,17,17h0v2a1,1,0,0,1-1,1H116a1,1,0,0,1-1-1v-2a17,17,0,0,1,17-17Z"/><path class="cls-6" d="M357.94,162.15H242.06a6,6,0,0,0-5.78,4.38l-9.58,34.25a6,6,0,0,0,4.16,7.4,6.19,6.19,0,0,0,1.61.22H367.53a6,6,0,0,0,6-6,5.84,5.84,0,0,0-.22-1.61l-9.58-34.25A6,6,0,0,0,357.94,162.15Z"/><path class="cls-4" d="M258.76,115.94h82.49a12,12,0,0,1,12,12v34.21H246.76V127.94a12,12,0,0,1,12-12Z"/><path class="cls-7" d="M353.24,127.94a12,12,0,0,0-12-12H312.29l-24.58,46.21h65.53Z"/><rect class="cls-8" x="246.76" y="144.79" width="106.49" height="8.02"/><rect class="cls-9" width="600" height="600"/></svg>