<svg id="Contenido" xmlns="http://www.w3.org/2000/svg" xmlns:xlink="http://www.w3.org/1999/xlink" viewBox="0 0 600 600"><defs><style>.cls-1{fill:url(#Degradado_sin_nombre);}.cls-2{fill:#043263;}.cls-3{fill:#1464a5;}.cls-4{fill:#004481;}.cls-5{fill:url(#Degradado_sin_nombre_2);}.cls-6{fill:url(#Degradado_sin_nombre_3);}.cls-7{fill:#f8cd50;}.cls-8{fill:#c49735;}.cls-9{fill:#028484;}.cls-10{fill:#02a5a5;}.cls-11{fill:url(#Degradado_sin_nombre_4);}.cls-12{fill:url(#Degradado_sin_nombre_5);}.cls-13{fill:url(#Degradado_sin_nombre_6);}.cls-14{fill:url(#Degradado_sin_nombre_7);}.cls-15{fill:none;}</style><linearGradient id="Degradado_sin_nombre" x1="258.04" y1="419.52" x2="441.05" y2="75.32" gradientTransform="matrix(1, 0, 0, -1, 0, 602)" gradientUnits="userSpaceOnUse"><stop offset="0" stop-color="#192647" stop-opacity="0.5"/><stop offset="1" stop-color="#192647" stop-opacity="0"/></linearGradient><linearGradient id="Degradado_sin_nombre_2" x1="394.47" y1="174.28" x2="267.21" y2="174.28" gradientTransform="matrix(1, 0, 0, -1, 0, 602)" gradientUnits="userSpaceOnUse"><stop offset="0.01" stop-color="#043263" stop-opacity="0.3"/><stop offset="1" stop-color="#043263" stop-opacity="0.05"/></linearGradient><linearGradient id="Degradado_sin_nombre_3" x1="398.11" y1="346.41" x2="231" y2="346.41" xlink:href="#Degradado_sin_nombre_2"/><linearGradient id="Degradado_sin_nombre_4" x1="259.8" y1="474.12" x2="298.22" y2="435.72" gradientTransform="matrix(1, 0, 0, -1, 0, 602)" gradientUnits="userSpaceOnUse"><stop offset="0" stop-color="#fff" stop-opacity="0.4"/><stop offset="1" stop-color="#fff" stop-opacity="0.1"/></linearGradient><linearGradient id="Degradado_sin_nombre_5" x1="328.59" y1="541.23" x2="369.4" y2="500.42" xlink:href="#Degradado_sin_nombre_4"/><linearGradient id="Degradado_sin_nombre_6" x1="383.15" y1="341.93" x2="294.67" y2="341.93" gradientTransform="matrix(1, 0, 0, -1, 0, 602)" gradientUnits="userSpaceOnUse"><stop offset="0" stop-color="#028484" stop-opacity="0.5"/><stop offset="1" stop-color="#028484" stop-opacity="0.05"/></linearGradient><linearGradient id="Degradado_sin_nombre_7" x1="457.9" y1="371.47" x2="394.83" y2="371.47" gradientTransform="matrix(1, 0, 0, -1, 0, 602)" gradientUnits="userSpaceOnUse"><stop offset="0" stop-color="#043263" stop-opacity="0.2"/><stop offset="1" stop-color="#043263" stop-opacity="0"/></linearGradient></defs><path class="cls-1" d="M574.11,331.9a40.34,40.34,0,0,0-27.37-38.19,61.36,61.36,0,0,0-51.54-48.33c-.54-.74-1.09-1.47-1.65-2.17l-.14-.17c-.72-.91-1.46-1.79-2.22-2.65h0a56.18,56.18,0,0,0-5-5h0l-.18-.17a49.05,49.05,0,0,0-37.94-18.73l-8-16.84a8.57,8.57,0,0,1,2.42-10.41A180.21,180.21,0,0,1,504,157.88a5.83,5.83,0,0,0,4.15-6.94,5.67,5.67,0,0,0-6.91-4.05l-.17.05a204.39,204.39,0,0,0-26.69,9.88C458.56,140.14,441.7,131,426,126.25l-.41-.13c-.89-.26-1.77-.51-2.65-.74h-.08c-1.88-.5-3.73-.93-5.56-1.32l-.36-.07q-4.1-.84-8-1.32h-.3q-3.93-.48-7.65-.66h-.27c-1.66-.08-3.29-.12-4.88-.13h-2.51c-1.55,0-3.05.09-4.51.18h-.07l-2,.14h-.24c-1.4.11-2.75.25-4.05.4h-.12l-1.77.23h-.24c-1.23.17-2.41.35-3.53.54h-.19l-1.44.26h-.26q-1.56.28-3,.6h-.21l-1.14.26-.25.06c-.84.2-1.63.4-2.35.59l-.23.06-.82.22-.23.06c-.63.18-1.2.34-1.7.5l-.2.06-.52.16-.17.06-.57.18a.86.86,0,0,0-.68,1,.87.87,0,0,0,.28.48l.37.44.11.13.32.37.16.17.36.41c.05.06.11.12.16.19l.49.53.09.1.66.72.1.1.62.66.2.2.59.62.23.22.69.7.16.16c.61.61,1.27,1.24,2,1.9l.16.15.9.83.25.23.92.83.23.2,1.17,1h0c.85.73,1.73,1.47,2.67,2.23l.24.2,1.17.93.29.23,1.28,1,.19.15c1,.77,2.1,1.56,3.22,2.34l.16.12,1.49,1,.33.22,1.44,1,.32.21,1.75,1.11h0c1.24.77,2.53,1.54,3.86,2.29l.33.19,1.66.91.41.22c.58.31,1.16.62,1.75.92l.3.15q2.11,1.08,4.35,2.1l.27.12,1.93.85.5.21,1.82.75.51.2,2.12.81.2.07a103,103,0,0,0,50.26,5.22,181.82,181.82,0,0,0-33.05,23.89c-21.23-9.59-40.91-13.22-58.49-13.26h-1a125.72,125.72,0,0,0-155.92,62.17,63,63,0,0,0-76,61.61v.84A51.52,51.52,0,1,0,151.89,401a72.35,72.35,0,0,0,58.89,43,40.33,40.33,0,0,0,58.65,27.69l26.26,14.19a25.89,25.89,0,0,1,13.6,22.79v7.26s-1.26,16.49-11,28.44A2.8,2.8,0,0,0,301,548.9l7.5-1.47c2.66-.44,5.75-.81,9.13-1.12,4-.37,8.42-.66,13.09-.86h.11l2.25-.09h.16c3.87-.15,7.88-.23,11.94-.26H356c1.4,0,2.79,0,4.17.09h.22l1.53,0h2.55l1.27,0h1.31l1.33.06,1.24.06,1.39.07,1.14.06,1.55.09.94.06,2.39.16h.61l1.77.14.86.07,1.46.12.88.09,1.36.13.87.09,1.33.14.8.09,1.37.17.65.08,1.92.26,7.4,1.46a2.8,2.8,0,0,0,3.26-2.07,2.75,2.75,0,0,0-.56-2.45,41.52,41.52,0,0,1-4-5.86c-.23-.4-.45-.8-.66-1.21a50.33,50.33,0,0,1-2.24-4.83c-.16-.39-.32-.79-.47-1.18-.3-.79-.57-1.56-.82-2.32s-.49-1.51-.7-2.23c-.32-1.09-.59-2.13-.82-3.1a54.53,54.53,0,0,1-1.34-7.71V487.65c0-13.82,9.1-24.57,25.68-38a55.16,55.16,0,0,0,83.21-35.89A43.74,43.74,0,0,0,538.23,372,40.33,40.33,0,0,0,574.11,331.9Zm-163-128.11-.19-.18c.24-.15.49-.29.73-.45ZM434,213.17l2.19,4.63a48.74,48.74,0,0,0-10.2,3.61l-.46-.66-.12-.18c-.66-.93-1.33-1.84-2-2.75l-.48-.62c-.52-.68-1-1.36-1.57-2l-.68-.84c-.49-.6-1-1.19-1.47-1.78l-.27-.34c.25-.31.51-.61.77-.92a8.59,8.59,0,0,1,12.11-.92,8.39,8.39,0,0,1,2.14,2.77Z"/><circle class="cls-2" cx="283.61" cy="345.76" r="88.93"/><path class="cls-3" d="M394.45,377.51c-6.33-7.33-9.53-11.14-11.78-20.91l-42,30.88A8.56,8.56,0,0,1,327,381.25l22.39-87.64c-.82-2.59-9.19-5.93-19.29-8l-9.53,31L304.3,374.85a10.76,10.76,0,0,1-15.93,6.32h0a10.75,10.75,0,0,1-5.18-8.41l-2.42-32.12a148.58,148.58,0,0,0-2.94-20.25L274.72,306l-2.05-20.64c-9.26-1.08-16.87-1.7-19.32-1.7h-7.5c-.94,0-1.85-.08-2.77-.14l5.2,16.58a232.08,232.08,0,0,1,10.65,69.51v29.45a8.57,8.57,0,0,1-12.23,7.74l-73.37-34.63a41.61,41.61,0,0,1-13.68,17.29l85.68,46.27a25.9,25.9,0,0,1,13.6,22.8v7.26s-1.27,16.49-11,28.44a2.79,2.79,0,0,0,2.69,4.52l7.5-1.47c19.51-3.2,61.3-3.09,82.48,0l7.41,1.45a2.79,2.79,0,0,0,2.69-4.52c-9.76-11.95-11-28.43-11-28.43V437.59C339.65,417.09,359.66,403.34,394.45,377.51Z"/><circle class="cls-2" cx="199.97" cy="386.08" r="40.32"/><circle class="cls-4" cx="397.03" cy="215.61" r="49.17"/><circle class="cls-2" cx="436.32" cy="256.03" r="61.31"/><circle class="cls-2" cx="444.16" cy="320.15" r="43.75"/><circle class="cls-2" cx="387.23" cy="297.53" r="43.75"/><circle class="cls-4" cx="88.59" cy="301.19" r="51.52"/><circle class="cls-2" cx="483.41" cy="281.84" r="40.33"/><circle class="cls-2" cx="394.45" cy="352.71" r="55.18"/><circle class="cls-4" cx="167.69" cy="321.96" r="72.3"/><circle class="cls-4" cx="146.99" cy="249.04" r="62.96"/><circle class="cls-4" cx="272.54" cy="243.11" r="125.55"/><path class="cls-5" d="M340.65,387.48a8.55,8.55,0,0,1-11.95-1.84,8.37,8.37,0,0,1-1.31-2.64L267.21,496.21c21.41-2,55.07-1.54,73.36,1.13l7.41,1.45a2.79,2.79,0,0,0,2.69-4.52c-9.76-11.95-11-28.43-11-28.43V437.59c0-20.5,20-34.25,54.8-60.08-6.33-7.33-9.53-11.14-11.78-20.91Z"/><path class="cls-6" d="M347.58,142.45,231,361.63A125.57,125.57,0,0,0,347.58,142.45Z"/><path class="cls-7" d="M426,108.91C379.18,57.33,322.18,73.48,313.09,76.49a.87.87,0,0,0-.69,1,.88.88,0,0,0,.29.5c6.3,7.5,47.16,52.16,113,32.92C426.83,110.61,427,110,426,108.91Z"/><path class="cls-7" d="M376.77,139.12c-79.12-36.57-136.9,9.83-145.91,17.74a1.08,1.08,0,0,0-.3,1.48,1.05,1.05,0,0,0,.57.43c10.92,5.57,79.78,37.09,146.21-17.17C378.53,140.69,378.39,139.89,376.77,139.12Z"/><path class="cls-8" d="M457.77,100.89a5.67,5.67,0,0,0-6.92-4l-.17,0c-42.77,12.55-70.15,35.15-85.58,51.9-16.85,18.29-23.49,33.59-23.76,34.23a5.67,5.67,0,0,0,10.28,4.79c.05-.11.1-.22.14-.33s5.14-11.67,17.52-26.23a8.59,8.59,0,0,1,14.3,1.89l10.27,21.67a5.66,5.66,0,0,0,7.53,2.71l.3-.15a5.84,5.84,0,0,0,2.31-7.64l-14.27-30.1a8.58,8.58,0,0,1,2.42-10.4,180.77,180.77,0,0,1,61.48-31.39A5.84,5.84,0,0,0,457.77,100.89Z"/><ellipse class="cls-9" cx="416.13" cy="224.57" rx="39.59" ry="52.79" transform="translate(-54.2 175.76) rotate(-22.43)"/><ellipse class="cls-10" cx="327.78" cy="255.65" rx="72.05" ry="54.04" transform="translate(-1.53 509.32) rotate(-75.56)"/><path class="cls-11" d="M230.86,156.86a1.08,1.08,0,0,0-.3,1.48,1.05,1.05,0,0,0,.57.43,141,141,0,0,0,60.45,14.15l25.35-47.66C269.57,125.16,237.39,151.12,230.86,156.86Z"/><path class="cls-12" d="M313.09,76.49a.87.87,0,0,0-.69,1,.88.88,0,0,0,.29.5,112.59,112.59,0,0,0,48,32.3l17.66-33.23A108.38,108.38,0,0,0,313.09,76.49Z"/><path class="cls-13" d="M360.94,193.36,294.67,318a41.69,41.69,0,0,0,15.16,7.47c28.9,7.45,60.38-17.76,70.31-56.3C388.14,238.06,379.68,207.81,360.94,193.36Z"/><path class="cls-14" d="M452.72,209.5a65.85,65.85,0,0,0-16.89-24.15l-41,77.07c12.3,11.73,28,16.52,41.41,11C456.48,265.06,463.84,236.45,452.72,209.5Z"/><rect class="cls-15" width="600" height="600"/></svg>