<svg xmlns="http://www.w3.org/2000/svg" xmlns:xlink="http://www.w3.org/1999/xlink" viewBox="0 0 600 600"><defs><style>.cls-1{fill:none;}.cls-2{fill:url(#Degradado_sin_nombre_254);}.cls-3{fill:#1464a5;}.cls-4{fill:url(#Degradado_sin_nombre_5);}.cls-5{fill:#043263;opacity:0.6;isolation:isolate;}.cls-6{fill:#fff;}.cls-7{fill:#2dcccd;}.cls-8{fill:#eaf9fa;}.cls-9{fill:#bdbdbd;}.cls-10{fill:#f4f4f4;}</style><linearGradient id="Degradado_sin_nombre_254" x1="250.16" y1="186.95" x2="430.45" y2="526.03" gradientUnits="userSpaceOnUse"><stop offset="0" stop-color="#192647" stop-opacity="0.5"/><stop offset="1" stop-color="#192647" stop-opacity="0"/></linearGradient><linearGradient id="Degradado_sin_nombre_5" x1="480" y1="4056" x2="241.36" y2="4056" gradientTransform="matrix(1, 0, 0, -1, 0, 4356)" gradientUnits="userSpaceOnUse"><stop offset="0" stop-color="#043263"/><stop offset="1" stop-color="#043263" stop-opacity="0"/></linearGradient></defs><g id="Cuadrados_Blancos" data-name="Cuadrados Blancos"><rect class="cls-1" width="600" height="600"/></g><g id="Capa_52" data-name="Capa 52"><path class="cls-2" d="M511,415.25v-12.5a32.16,32.16,0,0,0,0-64.27v-85a23,23,0,0,0-23-23H174a23,23,0,0,0-23,23v171a23,23,0,0,0,23,23H426.85A32.16,32.16,0,0,0,459,479.55h50.82a32.16,32.16,0,0,0,1.17-64.3Z"/><rect class="cls-3" x="120" y="191.5" width="360" height="217" rx="23"/><path class="cls-4" d="M457,408.5a23,23,0,0,0,23-23v-171a23,23,0,0,0-23-23H356.77l-115.41,217Z"/><rect class="cls-5" x="120" y="222.37" width="360" height="35.28"/><path class="cls-6" d="M174.68,325.58H318.26c1,0,1.74,1.34,1.74,3v25.76c0,1.66-.78,3-1.74,3H174.68c-1,0-1.74-1.34-1.74-3V328.58C172.94,326.92,173.72,325.58,174.68,325.58Z"/><path class="cls-7" d="M478.75,363.78H427.93a32.17,32.17,0,0,1-32.17-32.16h0a32.17,32.17,0,0,1,32.17-32.17h50.82a32.17,32.17,0,0,1,32.17,32.17h0A32.17,32.17,0,0,1,478.75,363.78Z"/><circle class="cls-8" cx="478.75" cy="331.62" r="22.26"/><path class="cls-9" d="M428,376.22h50.82A32.17,32.17,0,0,1,511,408.38h0a32.18,32.18,0,0,1-32.17,32.17H428a32.18,32.18,0,0,1-32.17-32.17h0A32.17,32.17,0,0,1,428,376.22Z"/><circle class="cls-10" cx="428.01" cy="408.3" r="22.26"/></g></svg>