<svg xmlns="http://www.w3.org/2000/svg" xmlns:xlink="http://www.w3.org/1999/xlink" viewBox="0 0 600 600"><defs><style>.cls-1{fill:none;}.cls-2{fill:url(#Degradado_sin_nombre_176);}.cls-3{fill:url(#Degradado_sin_nombre_174);}.cls-4{fill:#004481;}.cls-5{fill:url(#Degradado_sin_nombre_87);}.cls-6{fill:#072146;}.cls-7{fill:#fff;}.cls-8{fill:#f7b27f;}.cls-9{fill:#2dcccd;fill-rule:evenodd;}.cls-10{fill:#02a5a5;}.cls-11{fill:url(#Degradado_sin_nombre_45);}.cls-12{fill:#facba9;}</style><linearGradient id="Degradado_sin_nombre_176" x1="327.25" y1="-7976.81" x2="496.45" y2="-8295.04" gradientTransform="matrix(1, 0, 0, -1, 0, -7854)" gradientUnits="userSpaceOnUse"><stop offset="0" stop-color="#192647" stop-opacity="0.5"/><stop offset="1" stop-color="#192647" stop-opacity="0"/></linearGradient><linearGradient id="Degradado_sin_nombre_174" x1="244.98" y1="-8070.92" x2="398.64" y2="-8359.91" xlink:href="#Degradado_sin_nombre_176"/><linearGradient id="Degradado_sin_nombre_87" x1="468.27" y1="-8077.33" x2="321.11" y2="-8077.33" gradientTransform="matrix(1, 0, 0, -1, 0, -7854)" gradientUnits="userSpaceOnUse"><stop offset="0" stop-color="#072146" stop-opacity="0.8"/><stop offset="1" stop-color="#072146" stop-opacity="0"/></linearGradient><linearGradient id="Degradado_sin_nombre_45" x1="816.39" y1="-8095.86" x2="674.59" y2="-8095.86" gradientTransform="matrix(1, 0.05, 0.05, -1, -32.78, -7774.38)" gradientUnits="userSpaceOnUse"><stop offset="0" stop-color="#d8722c"/><stop offset="1" stop-color="#d8722c" stop-opacity="0"/></linearGradient></defs><title>13</title><g id="Cuadrados_Blancos" data-name="Cuadrados Blancos"><rect class="cls-1" width="600" height="600"/></g><g id="Capa_53" data-name="Capa 53"><g id="Contenido"><path class="cls-2" d="M310.41,339.83H504.13a14,14,0,0,0,9.79-3.95l.2-.18.19-.21a14,14,0,0,0,4-9.75V220.93a14,14,0,0,0-4-9.75l-.19-.21c-.06-.06-.14-.12-.2-.19a14.13,14.13,0,0,0-9.79-3.95H310.41A14.16,14.16,0,0,0,296.27,221h0V325.69A14.14,14.14,0,0,0,310.41,339.83Z"/><path class="cls-3" d="M558.83,359.89c-2.9-5.79-15.46-11.58-33.8-5.79s-61.33,24.63-84.51,34.77c-3.1,1.36-6.25,2.55-9.42,3.6-1.06-6-4.07-11.06-9.2-13.91l-.46.07a24.82,24.82,0,0,0-18.25-6l-35,2.78a139.3,139.3,0,0,1-22,0l-19.05-1.52c-18.65-9.84-37.45-19.71-47.39-22.72-20.76-6.27-43.47,4.53-59.88,7.51a140.07,140.07,0,0,1-14.15,1.86c-.17-.85-.33-1.71-.51-2.55a17.17,17.17,0,0,0-16.71-13.61l-32.14-.07a17.09,17.09,0,0,0-17.13,17.05,17.8,17.8,0,0,0,.29,3.17A253.18,253.18,0,0,1,143.58,411a253.55,253.55,0,0,1-4.28,46.41,17.07,17.07,0,0,0,13.55,20,16.65,16.65,0,0,0,3.15.31l32.15.07A17.16,17.16,0,0,0,205,464.25c.48-2.16.92-4.34,1.34-6.56,6.73-2.28,18.49-5.57,30.46-5.57,40.38,0,85.95,41.05,117.34,41.05,8.21,0,23.61-8.33,40.08-18.84,23.4-14.93,51.18-28.49,84.5-48.77s73.88-46.83,78.71-51.62S561.72,365.69,558.83,359.89Z"/><rect class="cls-4" x="246.27" y="156.83" width="222" height="133" rx="14.14"/><path class="cls-5" d="M454.09,289.83a14.14,14.14,0,0,0,14.18-14.09V170.93a14.15,14.15,0,0,0-14.18-14.1H392.28l-71.17,133Z"/><rect class="cls-6" x="246.27" y="175.76" width="222" height="21.63"/><rect class="cls-7" x="278.92" y="239.01" width="156.71" height="19.46" rx="1.84"/><path class="cls-8" d="M140.88,310.58s10.49,1.49,29-1.87c16.41-3,39.12-13.78,59.88-7.51s80.15,42.49,96.09,45.87,41.53,1.94,64.7-8.2,66.16-29,84.5-34.77,30.91,0,33.81,5.79,3.38,9.26-1.45,14.05S462,355.28,428.67,375.56s-61.1,33.84-84.5,48.77c-16.47,10.51-31.87,18.84-40.08,18.84-31.39,0-77-41.05-117.34-41.05-18.35,0-36.21,7.73-36.21,7.73l-19.8-89.33Z"/><path class="cls-9" d="M106.33,294.34A17.09,17.09,0,0,0,89.5,314.56,253.75,253.75,0,0,1,93.58,361a253.55,253.55,0,0,1-4.28,46.41,17.07,17.07,0,0,0,13.55,20,16.65,16.65,0,0,0,3.15.31l32.15.07A17.16,17.16,0,0,0,155,414.25a249.49,249.49,0,0,0,5.66-53.1A249.84,249.84,0,0,0,155.18,308a17.16,17.16,0,0,0-16.7-13.61Z"/><circle class="cls-10" cx="121.88" cy="404.79" r="10.75"/><path class="cls-11" d="M355.65,382.43l-34.16,4.34a135.51,135.51,0,0,1-34.56-.07l-53.26-7,2.92-53.93,59.86,8A134.44,134.44,0,0,0,317.86,335l34.12-.86a24.26,24.26,0,0,1,24.87,23.64c0,.64,0,1.27,0,1.91h0A24.26,24.26,0,0,1,355.65,382.43Z"/><path class="cls-8" d="M359.63,372.05l-34.82,6.34a139.32,139.32,0,0,1-35.49,1.85l-55-4.19V320.52l61.9,4.92a139.3,139.3,0,0,0,22,0l35-2.78a24.93,24.93,0,0,1,26.83,22.87c.05.66.08,1.33.08,2h0A25,25,0,0,1,359.63,372.05Z"/><path class="cls-12" d="M349,332c-1.7.37-5.32,8.93-3.38,18.08,2.07,9.79,6,14.08,8.81,13.91,1.59-.09,14.7-2,22-3.26,4.32-4.28,5.71-10.2,5-16.58h0c-.76-6.79-3.84-12.51-9.45-15.62C364.65,329.66,350,331.8,349,332Z"/></g></g></svg>