<?xml version="1.0" encoding="utf-8"?>
<!-- Generator: Adobe Illustrator 23.0.1, SVG Export Plug-In . SVG Version: 6.00 Build 0)  -->
<svg version="1.1" id="Capa_1" xmlns="http://www.w3.org/2000/svg" xmlns:xlink="http://www.w3.org/1999/xlink" x="0px" y="0px"
	 viewBox="0 0 600 600" style="enable-background:new 0 0 600 600;" xml:space="preserve">
<style type="text/css">
	.st0{fill:url(#SVGID_1_);}
	.st1{fill:#1464A5;}
	.st2{fill:#49A5E6;}
	.st3{fill:#043263;}
	.st4{fill:#5AC4C4;}
	.st5{opacity:0.5;fill-rule:evenodd;clip-rule:evenodd;fill:url(#SVGID_2_);enable-background:new    ;}
	.st6{fill:#2DCCCD;}
	.st7{fill:url(#SVGID_3_);}
</style>
<title>Mesa de trabajo 1 copia 34</title>
<g>
	<g>
		
			<linearGradient id="SVGID_1_" gradientUnits="userSpaceOnUse" x1="195.933" y1="438.3271" x2="426.0886" y2="5.4654" gradientTransform="matrix(1 0 0 -1 0 600)">
			<stop  offset="0" style="stop-color:#192647"/>
			<stop  offset="0" style="stop-color:#192647;stop-opacity:0.5"/>
			<stop  offset="1" style="stop-color:#192647;stop-opacity:0"/>
		</linearGradient>
		<path class="st0" d="M582.7,498.5c-0.1-0.4-0.2-0.8-0.4-1.1c-0.1-0.2-0.2-0.3-0.4-0.5L564,479.1l-35.6-35.6l28-28
			c1.2-1.2,1.2-3.1,0-4.2c-0.1-0.1-0.2-0.1-0.2-0.2c-0.2-0.2-0.4-0.3-0.6-0.4l-30-13.6l-38.4-17.5V215c0-12.7-10.3-23-23-23H144.6
			c-12.7,0-23,10.3-23,23v211.2h-18.4c-1.3,0-2.4,1.1-2.4,2.4l0,0v8.7H91c-1.3,0-2.4,1.1-2.4,2.4l0,0v19.5c0,1.3,1.1,2.4,2.4,2.4
			c0,0,0,0,0,0h362l16.1,35.3c0.5,1.1,1.7,1.8,2.9,1.8c0.3,0,0.6-0.1,0.9-0.2c0.4-0.1,0.8-0.4,1-0.7l0,0l28-28l35.6,35.6l17.8,17.8
			c0.1,0.1,0.3,0.3,0.5,0.4c1,0.7,2.3,0.7,3.3,0c0.2-0.1,0.3-0.2,0.5-0.4l22.2-22.2c0.6-0.6,0.9-1.3,0.9-2.1
			C582.7,498.9,582.7,498.7,582.7,498.5z"/>
		<path class="st1" d="M94.6,142h319.6c12.7,0,23,10.3,23,23l0,0v224.1l0,0H71.6l0,0V165C71.6,152.3,81.9,142,94.6,142L94.6,142z"/>
		<path class="st2" d="M97.7,158.2h313.1c5.5,0,10,4.5,10,10v181.5c0,5.5-4.5,10-10,10H97.7c-5.5,0-10-4.5-10-10V168.2
			C87.7,162.7,92.1,158.2,97.7,158.2z"/>
		<path class="st1" d="M41,387.4h425.1c1.3,0,2.4,1.1,2.4,2.4v19.5c0,1.3-1.1,2.4-2.4,2.4H41c-1.3,0-2.4-1.1-2.4-2.4v-19.5
			C38.6,388.5,39.7,387.4,41,387.4z"/>
		<path class="st3" d="M457.8,387.4h-407v-8.7c0-1.3,1.1-2.4,2.4-2.4l0,0h402.1c1.3,0,2.4,1.1,2.4,2.4l0,0L457.8,387.4z"/>
		<path class="st4" d="M282,395.5h-52.8c-4.5,0-8.1-3.6-8.1-8.1c0,0,0,0,0,0h69C290.1,391.9,286.5,395.5,282,395.5
			C282,395.5,282,395.5,282,395.5z"/>
		
			<linearGradient id="SVGID_2_" gradientUnits="userSpaceOnUse" x1="129.3525" y1="394.1647" x2="285.9125" y2="310.9147" gradientTransform="matrix(1 0 0 -1 0 600)">
			<stop  offset="0" style="stop-color:#EAF9FA"/>
			<stop  offset="1" style="stop-color:#EAF9FA;stop-opacity:0.2"/>
			<stop  offset="1" style="stop-color:#EAF9FA;stop-opacity:0.5"/>
		</linearGradient>
		<path class="st5" d="M95.8,359.7h160.9l108.2-201.5h-269c-4.5,0-8.1,3.6-8.1,8.1c0,0,0,0,0,0v185.2
			C87.7,356.1,91.3,359.7,95.8,359.7z"/>
		<path class="st6" d="M505.6,360.6l-151.4-68.9c-1.5-0.7-3.3-0.1-4,1.4c-0.4,0.8-0.4,1.8,0,2.6L419,447.1c0.7,1.5,2.5,2.2,4,1.5
			c0.3-0.1,0.6-0.4,0.9-0.6l28-28l53.5,53.5c1.2,1.2,3.1,1.2,4.2,0l22.2-22.2c1.2-1.2,1.2-3.1,0-4.2l-53.4-53.5l28-28
			c1.2-1.1,1.2-3,0.1-4.2C506.2,360.9,505.9,360.7,505.6,360.6z"/>
		
			<linearGradient id="SVGID_3_" gradientUnits="userSpaceOnUse" x1="532.7431" y1="198.7163" x2="396.27" y2="198.7163" gradientTransform="matrix(1 0 0 -1 0 600)">
			<stop  offset="0" style="stop-color:#028484;stop-opacity:0.8"/>
			<stop  offset="1" style="stop-color:#028484;stop-opacity:0"/>
		</linearGradient>
		<path class="st7" d="M531.8,446.9l-53.4-53.5l28-28c1.2-1.2,1.2-3.1,0-4.2c-0.3-0.3-0.6-0.5-0.9-0.6l-71.1-32.3L396.3,397
			l22.8,50.1c0.7,1.5,2.5,2.2,4,1.5c0.3-0.2,0.6-0.4,0.9-0.6l28-28l53.5,53.5c1.2,1.2,3.1,1.2,4.2,0l22.2-22.2
			C533,450.1,533.1,448.2,531.8,446.9C531.9,447,531.9,446.9,531.8,446.9z"/>
	</g>
</g>
</svg>
