<svg xmlns="http://www.w3.org/2000/svg" xmlns:xlink="http://www.w3.org/1999/xlink" viewBox="0 0 600 600"><defs><style>.cls-1{fill:none;}.cls-2{fill:url(#Degradado_sin_nombre_170);}.cls-3{fill:url(#Degradado_sin_nombre_170-2);}.cls-4{fill:#004481;}.cls-5{fill:url(#Degradado_sin_nombre_87);}.cls-6{fill:#072146;}.cls-7{fill:#fff;}.cls-8{fill:#2dcccd;}.cls-9{fill:url(#Degradado_sin_nombre_46);}</style><linearGradient id="Degradado_sin_nombre_170" x1="584.53" y1="492.14" x2="584.56" y2="492.2" gradientUnits="userSpaceOnUse"><stop offset="0" stop-color="#192647" stop-opacity="0.5"/><stop offset="1" stop-color="#192647" stop-opacity="0"/></linearGradient><linearGradient id="Degradado_sin_nombre_170-2" x1="252.16" y1="187.45" x2="457.23" y2="573.14" xlink:href="#Degradado_sin_nombre_170"/><linearGradient id="Degradado_sin_nombre_87" x1="480" y1="-8154" x2="241.36" y2="-8154" gradientTransform="matrix(1, 0, 0, -1, 0, -7854)" gradientUnits="userSpaceOnUse"><stop offset="0" stop-color="#072146" stop-opacity="0.8"/><stop offset="1" stop-color="#072146" stop-opacity="0"/></linearGradient><linearGradient id="Degradado_sin_nombre_46" x1="552.35" y1="-8666.33" x2="431.56" y2="-8666.33" gradientTransform="matrix(1, 0, 0, -1, 0, -8254)" gradientUnits="userSpaceOnUse"><stop offset="0" stop-color="#028484" stop-opacity="0.8"/><stop offset="1" stop-color="#028484" stop-opacity="0"/></linearGradient></defs><title>13</title><g id="Cuadrados_Blancos" data-name="Cuadrados Blancos"><rect class="cls-1" width="600" height="600"/></g><g id="Capa_54" data-name="Capa 54"><path class="cls-2" d="M584.51,492.15c.09.09.09,0,0,0Z"/><path class="cls-3" d="M584.51,492.15l-47.18-47.27,24.7-24.7a2.52,2.52,0,0,0,.79-2,2.46,2.46,0,0,0-.79-1.87l-.09-.07a1.24,1.24,0,0,0-.62-.47l-48.32-22V254a23,23,0,0,0-23-23H176a23,23,0,0,0-23,23V425a23,23,0,0,0,23,23H464.51l20.14,44.33a2.74,2.74,0,0,0,2.55,1.57,2.61,2.61,0,0,0,1.08-.24l.8-.53,24.74-24.75,47.32,47.32a2.68,2.68,0,0,0,1.94.8,2.45,2.45,0,0,0,1.87-.8l19.65-19.65A2.78,2.78,0,0,0,584.51,492.15Z"/><rect class="cls-4" x="120" y="191.5" width="360" height="217" rx="23"/><path class="cls-5" d="M457,408.5a23,23,0,0,0,23-23v-171a23,23,0,0,0-23-23H356.77l-115.41,217Z"/><rect class="cls-6" x="120" y="222.37" width="360" height="35.28"/><rect class="cls-7" x="172.94" y="325.58" width="254.12" height="31.76" rx="3"/><path class="cls-8" d="M528.32,376.25l-134-61a2.65,2.65,0,0,0-3.54,1.24,2.58,2.58,0,0,0,0,2.3l60.9,134a2.69,2.69,0,0,0,3.54,1.33,3.82,3.82,0,0,0,.8-.53l24.79-24.79,47.36,47.36a2.56,2.56,0,0,0,3.72,0l19.65-19.65a2.56,2.56,0,0,0,0-3.72l-47.27-47.36L529,380.68a2.65,2.65,0,0,0,.09-3.72A1.5,1.5,0,0,0,528.32,376.25Z"/><path class="cls-9" d="M551.51,452.65l-47.27-47.36L529,380.5a2.56,2.56,0,0,0,0-3.71,2.1,2.1,0,0,0-.8-.54l-62.94-28.59-33.73,60.82,20.18,44.35a2.69,2.69,0,0,0,3.54,1.33l.8-.53,24.79-24.79,47.36,47.36a2.56,2.56,0,0,0,3.72,0l19.65-19.65a2.78,2.78,0,0,0-.09-3.9C551.6,452.74,551.6,452.65,551.51,452.65Z"/></g></svg>