<?xml version="1.0" encoding="utf-8"?>
<!-- Generator: Adobe Illustrator 23.0.1, SVG Export Plug-In . SVG Version: 6.00 Build 0)  -->
<svg version="1.1" id="Capa_1" xmlns="http://www.w3.org/2000/svg" xmlns:xlink="http://www.w3.org/1999/xlink" x="0px" y="0px"
	 viewBox="0 0 600 600" style="enable-background:new 0 0 600 600;" xml:space="preserve">
<style type="text/css">
	.st0{fill:url(#SVGID_1_);}
	.st1{fill:#1464A5;}
	.st2{fill:url(#SVGID_2_);}
	.st3{opacity:0.6;fill:#043263;enable-background:new    ;}
	.st4{fill:#FFFFFF;}
	.st5{fill:#2DCCCD;}
	.st6{fill:url(#SVGID_3_);}
</style>
<title>Mesa de trabajo 1 copia 36</title>
<g>
	<g>
		
			<linearGradient id="SVGID_1_" gradientUnits="userSpaceOnUse" x1="250.1441" y1="567.1538" x2="454.4182" y2="951.3237" gradientTransform="matrix(1 0 0 1 0 -400)">
			<stop  offset="0" style="stop-color:#192647"/>
			<stop  offset="0" style="stop-color:#192647;stop-opacity:0.5"/>
			<stop  offset="1" style="stop-color:#192647;stop-opacity:0"/>
		</linearGradient>
		<path class="st0" d="M580.7,471.5c-0.1-0.4-0.2-0.8-0.4-1.1c-0.1-0.2-0.2-0.3-0.4-0.5L562,452.1l-35.6-35.6l28-28
			c1.2-1.2,1.2-3.1,0-4.2c-0.1-0.1-0.2-0.1-0.2-0.2c-0.2-0.2-0.4-0.3-0.6-0.4l-30-13.6l-20.5-9.4V232.1c0-2.3-0.3-4.6-1-6.8
			c-0.2-0.7-0.5-1.4-0.8-2.1c-0.1-0.3-0.3-0.7-0.5-1c-0.8-1.7-1.8-3.2-3-4.7c-0.2-0.3-0.5-0.6-0.7-0.8c-0.5-0.5-1-1.1-1.6-1.6
			c-0.3-0.2-0.5-0.5-0.8-0.7c-1.4-1.2-3-2.2-4.7-3c-0.3-0.2-0.7-0.3-1-0.5c-0.7-0.3-1.4-0.5-2.1-0.8c-2.2-0.7-4.5-1-6.8-1H177
			c-12.7,0-23,10.3-23,23l0,0V397c0,12.7,10.3,23,23,23h267.3l3.5,7.6l19.3,42.4c0.5,1.1,1.7,1.8,2.9,1.8c0.3,0,0.6-0.1,0.9-0.2
			c0.4-0.1,0.8-0.4,1-0.7l0,0l28-28l35.6,35.6l17.8,17.8c0.1,0.1,0.3,0.3,0.5,0.4c1,0.7,2.3,0.7,3.3,0c0.2-0.1,0.3-0.2,0.5-0.4
			l22.2-22.2c0.6-0.6,0.9-1.3,0.9-2.1C580.7,471.9,580.7,471.7,580.7,471.5z"/>
		<path class="st1" d="M127,158.1h303c12.7,0,23,10.3,23,23V346c0,12.7-10.3,23-23,23H127c-12.7,0-23-10.3-23-23V181.1
			C104,168.4,114.3,158.1,127,158.1z"/>
		
			<linearGradient id="SVGID_2_" gradientUnits="userSpaceOnUse" x1="453" y1="663.55" x2="221.2" y2="663.55" gradientTransform="matrix(1 0 0 1 0 -400)">
			<stop  offset="0" style="stop-color:#043263"/>
			<stop  offset="1" style="stop-color:#043263;stop-opacity:0"/>
		</linearGradient>
		<path class="st2" d="M430,369c12.7,0,23-10.3,23-23V181.1c0-12.7-10.3-23-23-23h-96.7L221.2,369H430z"/>
		<rect x="104" y="189.2" class="st3" width="349" height="35"/>
		<path class="st4" d="M157.9,288H402c1.7,0,3,1.3,3,3v25.3c0,1.7-1.3,3-3,3H157.9c-1.7,0-3-1.3-3-3V291
			C154.9,289.3,156.3,288,157.9,288z"/>
		<path class="st5" d="M503.6,332.6l-151.4-68.9c-1.5-0.7-3.3-0.1-4,1.4c-0.4,0.8-0.4,1.8,0,2.6L417,419.1c0.7,1.5,2.5,2.2,4,1.5
			c0.3-0.1,0.6-0.4,0.9-0.6l28-28l53.5,53.5c1.2,1.2,3.1,1.2,4.2,0l22.2-22.2c1.2-1.2,1.2-3.1,0-4.2l-53.4-53.5l28-28
			c1.2-1.1,1.2-3,0.1-4.2C504.2,332.9,503.9,332.7,503.6,332.6z"/>
		
			<linearGradient id="SVGID_3_" gradientUnits="userSpaceOnUse" x1="530.75" y1="773.35" x2="394.3" y2="773.35" gradientTransform="matrix(1 0 0 1 0 -400)">
			<stop  offset="0" style="stop-color:#028484;stop-opacity:0.8"/>
			<stop  offset="1" style="stop-color:#028484;stop-opacity:0"/>
		</linearGradient>
		<path class="st6" d="M529.8,418.9l-53.4-53.5l28-28c1.2-1.2,1.2-3.1,0-4.2c-0.3-0.3-0.6-0.5-0.9-0.6l-71.1-32.3L394.3,369
			l22.8,50.1c0.7,1.5,2.5,2.2,4,1.5c0.3-0.2,0.6-0.4,0.9-0.6l28-28l53.5,53.5c1.2,1.2,3.1,1.2,4.2,0l22.2-22.2
			C531,422.1,531.1,420.2,529.8,418.9C529.9,419,529.9,418.9,529.8,418.9z"/>
	</g>
</g>
</svg>
