<svg xmlns="http://www.w3.org/2000/svg" xmlns:xlink="http://www.w3.org/1999/xlink" viewBox="0 0 600 600"><defs><style>.cls-1{fill:none;}.cls-2{fill:url(#Degradado_sin_nombre_194);}.cls-3{fill:#043263;}.cls-4{fill:#49a5e6;}.cls-5{fill:#072146;}.cls-6{fill:#5ac4c4;}.cls-7{fill-rule:evenodd;opacity:0.5;isolation:isolate;fill:url(#Degradado_sin_nombre_2);}.cls-8{fill:#2dcccd;}.cls-9{fill:url(#Degradado_sin_nombre_46);}</style><linearGradient id="Degradado_sin_nombre_194" x1="195.97" y1="161.63" x2="426.06" y2="594.36" gradientUnits="userSpaceOnUse"><stop offset="0" stop-color="#192647" stop-opacity="0.5"/><stop offset="1" stop-color="#192647" stop-opacity="0"/></linearGradient><linearGradient id="Degradado_sin_nombre_2" x1="152.72" y1="183" x2="286.79" y2="317.07" gradientUnits="userSpaceOnUse"><stop offset="0" stop-color="#eaf9fa"/><stop offset="1" stop-color="#eaf9fa" stop-opacity="0.2"/><stop offset="1" stop-color="#eaf9fa" stop-opacity="0.5"/></linearGradient><linearGradient id="Degradado_sin_nombre_46" x1="532.75" y1="401.35" x2="396.3" y2="401.35" gradientUnits="userSpaceOnUse"><stop offset="0" stop-color="#028484" stop-opacity="0.8"/><stop offset="1" stop-color="#028484" stop-opacity="0"/></linearGradient></defs><title>13</title><g id="Cuadrados_Blancos" data-name="Cuadrados Blancos"><rect class="cls-1" width="600" height="600"/></g><g id="Capa_55" data-name="Capa 55"><path class="cls-2" d="M582.7,498.5a3.58,3.58,0,0,0-.4-1.1,1.76,1.76,0,0,0-.4-.5L564,479.1l-35.6-35.6,28-28a2.9,2.9,0,0,0,0-4.2c-.1-.1-.2-.1-.2-.2a2.09,2.09,0,0,0-.6-.4l-30-13.6-38.4-17.5V215a23,23,0,0,0-23-23H144.6a23,23,0,0,0-23,23V426.2H103.2a2.43,2.43,0,0,0-2.4,2.4h0v8.7H91a2.43,2.43,0,0,0-2.4,2.4h0v19.5a2.43,2.43,0,0,0,2.4,2.4H453l16.1,35.3a3.22,3.22,0,0,0,2.9,1.8,2.92,2.92,0,0,0,.9-.2,1.83,1.83,0,0,0,1-.7h0l28-28,35.6,35.6,17.8,17.8a2.18,2.18,0,0,0,.5.4,2.86,2.86,0,0,0,3.3,0,1.76,1.76,0,0,0,.5-.4L581.8,501a2.88,2.88,0,0,0,.9-2.1Z"/><path class="cls-3" d="M94.6,142H414.2a23,23,0,0,1,23,23h0V389.1H71.6V165a23,23,0,0,1,23-23Z"/><path class="cls-4" d="M97.7,158.2H410.8a10,10,0,0,1,10,10V349.7a10,10,0,0,1-10,10H97.7a10,10,0,0,1-10-10V168.2A10,10,0,0,1,97.7,158.2Z"/><path class="cls-3" d="M41,387.4H466.1a2.43,2.43,0,0,1,2.4,2.4v19.5a2.43,2.43,0,0,1-2.4,2.4H41a2.43,2.43,0,0,1-2.4-2.4V389.8A2.43,2.43,0,0,1,41,387.4Z"/><path class="cls-5" d="M457.8,387.4H50.8v-8.7a2.43,2.43,0,0,1,2.4-2.4H455.3a2.43,2.43,0,0,1,2.4,2.4h0Z"/><path class="cls-6" d="M282,395.5H229.2a8.07,8.07,0,0,1-8.1-8.1h69a8.07,8.07,0,0,1-8.1,8.1Z"/><path class="cls-7" d="M95.8,359.7H256.7L364.9,158.2H95.9a8.07,8.07,0,0,0-8.1,8.1h0V351.5A7.94,7.94,0,0,0,95.8,359.7Z"/><path class="cls-8" d="M505.6,360.6,354.2,291.7a3,3,0,0,0-4,4L419,447.1a3,3,0,0,0,4,1.5,4.7,4.7,0,0,0,.9-.6l28-28,53.5,53.5a2.9,2.9,0,0,0,4.2,0l22.2-22.2a2.9,2.9,0,0,0,0-4.2l-53.4-53.5,28-28a3,3,0,0,0,.1-4.2A1.63,1.63,0,0,0,505.6,360.6Z"/><path class="cls-9" d="M531.8,446.9l-53.4-53.5,28-28a2.9,2.9,0,0,0,0-4.2,2.36,2.36,0,0,0-.9-.6l-71.1-32.3L396.3,397l22.8,50.1a3,3,0,0,0,4,1.5l.9-.6,28-28,53.5,53.5a2.9,2.9,0,0,0,4.2,0l22.2-22.2a3.14,3.14,0,0,0-.1-4.4C531.9,447,531.9,446.9,531.8,446.9Z"/></g></svg>