<svg id="Contenido" xmlns="http://www.w3.org/2000/svg" xmlns:xlink="http://www.w3.org/1999/xlink" viewBox="0 0 600 600"><defs><style>.cls-1{fill:url(#Degradado_sin_nombre_39);}.cls-2{fill:#f8cd50;}.cls-3{fill:url(#Degradado_sin_nombre_5);}.cls-4{fill:#043263;}.cls-5{fill:#eaf9fa;}.cls-6{fill:#49a5e6;}.cls-7{fill:none;}</style><linearGradient id="Degradado_sin_nombre_39" x1="269.07" y1="199.9" x2="430.6" y2="503.69" gradientUnits="userSpaceOnUse"><stop offset="0" stop-color="#192647" stop-opacity="0.5"/><stop offset="1" stop-color="#192647" stop-opacity="0"/></linearGradient><linearGradient id="Degradado_sin_nombre_5" x1="148.17" y1="219.21" x2="301.2" y2="300.58" gradientUnits="userSpaceOnUse"><stop offset="0" stop-color="#fff" stop-opacity="0.6"/><stop offset="1" stop-color="#fff" stop-opacity="0.2"/></linearGradient></defs><path class="cls-1" d="M521.84,351.69A172,172,0,1,1,349.73,179.8,172,172,0,0,1,521.84,351.69"/><path class="cls-2" d="M472,300c0,95.09-77.12,172-171.87,172S128,394.82,128,300s77.12-172,171.87-172h0c95,0,172.13,76.91,172.13,172"/><path class="cls-3" d="M299.87,128C205.12,128,128,205.18,128,300c0,66.1,37.6,123.62,92.47,152.41L381,148.27A171.5,171.5,0,0,0,299.87,128Z"/><circle class="cls-4" cx="253.87" cy="244.87" r="22"/><circle class="cls-4" cx="346.13" cy="244.87" r="22"/><path class="cls-5" d="M371.33,353.7c-5-9.63-14.6-8.05-17-7.23-3.6,1.39-8.74,3.71-14.08,6.19a14.69,14.69,0,0,0,5.21-18.52c-5.22-10-14.75-8.1-17.29-7.45-25.61,9.86-73.76,27-96.4,27-35,0-22.48-27-21.75-44,.34-7.93-5.53-13.73-12.47-13.73-24.14,0-44.57,67.47-39.35,101.93,9.53,62.83,68.21,67.43,90.81,67.43,15.07,0,30.14-4.65,38.5-7.74h0s1.24-.43,3.18-1.22c2.23-.89,3.5-1.48,3.5-1.48v0c4.69-2.1,16.19-5,26.18-8.69h0a151.72,151.72,0,0,0,16.48-7.29A12,12,0,0,0,342.3,423c-3.95-7.57-10.85-6.9-13.62-6.32,7.53-3.36,22.73-10.58,26.21-12.28A12.42,12.42,0,0,0,360.55,388c-4.48-8.6-12.65-7-14.83-6.4-1.7.65-3.71,1.47-5.88,2.37,6.61-3,21.06-9.89,25.16-11.89A13.92,13.92,0,0,0,371.33,353.7Z"/><path class="cls-6" d="M340.26,352.65l-60.54,26.81c26-5.44,41.17-13.89,53-21.15A77.08,77.08,0,0,0,340.26,352.65Z"/><path class="cls-6" d="M341,383.59c-22.49,8.82-40.48,15-61.78,22,28.12-4.08,41.61-11,51.53-15.35A55.34,55.34,0,0,0,341,383.59Z"/><path class="cls-6" d="M328.68,416.72a351.3,351.3,0,0,1-50.5,16.82c23.31-2.63,33.35-7,45.77-12.32A10.66,10.66,0,0,0,328.68,416.72Z"/><rect class="cls-7" width="600" height="600"/></svg>