<svg xmlns="http://www.w3.org/2000/svg" xmlns:xlink="http://www.w3.org/1999/xlink" viewBox="0 0 600 600"><defs><style>.cls-1{fill:none;}.cls-2{fill:url(#Degradado_sin_nombre_47);}.cls-3{fill:url(#Degradado_sin_nombre_47-2);}.cls-4{fill:url(#Degradado_sin_nombre_47-3);}.cls-5{fill:#043263;}.cls-6{fill:url(#Degradado_sin_nombre_87);}.cls-7{fill:url(#Degradado_sin_nombre_87-2);}.cls-8{fill:url(#Degradado_sin_nombre_87-3);}</style><linearGradient id="Degradado_sin_nombre_47" x1="247.75" y1="-9251.65" x2="403.32" y2="-9544.24" gradientTransform="matrix(1, 0, 0, -1, 0, -9094)" gradientUnits="userSpaceOnUse"><stop offset="0.01" stop-color="#043263" stop-opacity="0.5"/><stop offset="1" stop-color="#043263" stop-opacity="0"/></linearGradient><linearGradient id="Degradado_sin_nombre_47-2" x1="133.86" y1="-9300.8" x2="289.44" y2="-9593.4" xlink:href="#Degradado_sin_nombre_47"/><linearGradient id="Degradado_sin_nombre_47-3" x1="361.64" y1="-9202.49" x2="517.21" y2="-9495.09" xlink:href="#Degradado_sin_nombre_47"/><linearGradient id="Degradado_sin_nombre_87" x1="350.06" y1="-9396.96" x2="276.57" y2="-9396.96" gradientTransform="matrix(1, 0, 0, -1, 0, -9094)" gradientUnits="userSpaceOnUse"><stop offset="0" stop-color="#072146" stop-opacity="0.8"/><stop offset="1" stop-color="#072146" stop-opacity="0"/></linearGradient><linearGradient id="Degradado_sin_nombre_87-2" x1="210.05" y1="-9396.96" x2="136.62" y2="-9396.96" xlink:href="#Degradado_sin_nombre_87"/><linearGradient id="Degradado_sin_nombre_87-3" x1="490.06" y1="-9396.96" x2="416.57" y2="-9396.96" xlink:href="#Degradado_sin_nombre_87"/></defs><title>13</title><g id="Cuadrados_Blancos" data-name="Cuadrados Blancos"><rect class="cls-1" width="600" height="600"/></g><g id="Capa_57" data-name="Capa 57"><path class="cls-2" d="M399.91,347.1c0-.67-.09-1.33-.15-2v-.34c-.07-.74-.17-1.48-.28-2.21l-.09-.56c-.09-.6-.2-1.19-.32-1.78l-.09-.49c-.15-.71-.31-1.41-.49-2.11a2.3,2.3,0,0,0-.13-.5q-.23-.84-.48-1.68c-.06-.19-.11-.38-.17-.56-.22-.68-.44-1.36-.68-2l-.15-.37c-.21-.56-.42-1.11-.65-1.66-.08-.2-.17-.4-.25-.59-.27-.62-.55-1.24-.84-1.85,0-.08-.07-.15-.1-.22-.29-.59-.59-1.18-.9-1.76-.11-.19-.22-.39-.32-.59-.28-.49-.56-1-.85-1.46l-.24-.41c-.35-.58-.72-1.15-1.1-1.71l-.38-.57q-.44-.63-.9-1.26l-.37-.51c-.4-.53-.82-1.06-1.24-1.57l-.43-.51c-.32-.38-.64-.76-1-1.13l-.49-.54c-.45-.49-.9-1-1.36-1.43l-.45-.43a14.37,14.37,0,0,0-1.08-1l-.58-.54-1.28-1.1-.58-.48-1.27-1-.66-.49c-.39-.29-.79-.57-1.18-.84l-.55-.38a17.54,17.54,0,0,0-1.64-1l-.69-.42-1.2-.69-.67-.37-.11-.06h0a50,50,0,0,0-46.95,88.3h0l.33.16c.67.35,1.35.69,2,1l.69.31,1.92.81.72.28c.72.28,1.45.53,2.19.77l.45.16c.91.28,1.82.55,2.75.78l.42.1c.76.19,1.54.36,2.32.51l.88.16c.65.11,1.29.21,1.94.3l1,.13c.66.07,1.32.13,2,.18l.9.07c1,0,1.93.09,2.9.09a50,50,0,0,0,50-50c0-.77,0-1.53-.06-2.29Z"/><path class="cls-3" d="M259.91,347.1c0-.67-.09-1.33-.15-2v-.34c-.07-.74-.17-1.48-.28-2.21l-.09-.56c-.09-.6-.2-1.19-.32-1.78l-.09-.49c-.15-.71-.31-1.41-.49-2.11a2.3,2.3,0,0,0-.13-.5q-.23-.84-.48-1.68c-.06-.19-.11-.38-.17-.56-.22-.68-.44-1.36-.68-2l-.15-.37c-.21-.56-.42-1.11-.65-1.66-.08-.2-.17-.4-.25-.59-.27-.62-.55-1.24-.84-1.85,0-.08-.07-.15-.1-.22-.29-.59-.59-1.18-.9-1.76-.11-.19-.22-.39-.32-.59-.28-.49-.56-1-.85-1.46l-.24-.41c-.35-.58-.72-1.15-1.1-1.71l-.38-.57q-.44-.63-.9-1.26l-.37-.51c-.4-.53-.82-1.06-1.24-1.57l-.43-.51c-.32-.38-.64-.76-1-1.13l-.49-.54c-.45-.49-.9-1-1.36-1.43l-.45-.43a14.37,14.37,0,0,0-1.08-1l-.58-.54-1.28-1.1-.58-.48-1.27-1-.66-.49c-.39-.29-.79-.57-1.18-.84l-.55-.38a17.54,17.54,0,0,0-1.64-1l-.69-.42-1.2-.69-.67-.37-.11-.06h0a50,50,0,1,0-47,88.3h0l.33.16c.67.35,1.35.69,2,1l.69.31,1.92.81.72.28c.72.28,1.45.53,2.19.77l.45.16c.91.28,1.82.55,2.75.78l.42.1c.76.19,1.54.36,2.32.51l.88.16c.65.11,1.29.21,1.94.3l1,.13c.66.07,1.32.13,2,.18l.9.07c1,0,1.93.09,2.9.09a50,50,0,0,0,50-50c0-.77,0-1.53-.06-2.29Z"/><path class="cls-4" d="M539.94,347.71v-.61c0-.67-.09-1.33-.15-2v-.34c-.07-.74-.17-1.48-.28-2.21l-.09-.56c-.09-.6-.2-1.19-.32-1.78l-.09-.49c-.15-.71-.31-1.41-.49-2.11a2.3,2.3,0,0,0-.13-.5q-.23-.84-.48-1.68c-.06-.19-.11-.38-.17-.56-.22-.68-.44-1.36-.68-2l-.15-.37c-.21-.56-.42-1.11-.65-1.66-.08-.2-.17-.4-.25-.59-.27-.62-.55-1.24-.84-1.85,0-.08-.07-.15-.1-.22-.29-.59-.59-1.18-.9-1.76-.11-.19-.22-.39-.32-.59-.28-.49-.56-1-.85-1.46l-.24-.41c-.35-.58-.72-1.15-1.1-1.71l-.38-.57q-.43-.63-.9-1.26l-.37-.51c-.4-.53-.82-1.06-1.24-1.57l-.43-.51c-.32-.38-.64-.76-1-1.13l-.49-.54c-.45-.49-.9-1-1.36-1.43l-.45-.43a14.37,14.37,0,0,0-1.08-1l-.58-.54-1.28-1.1-.58-.48-1.27-1-.66-.49c-.39-.29-.79-.57-1.18-.84l-.55-.38a17.54,17.54,0,0,0-1.64-1l-.69-.42-1.2-.69-.67-.37-.11-.06h0a50,50,0,1,0-46.95,88.3h0l.33.16c.67.35,1.35.69,2,1l.69.31,1.92.81.72.28c.72.28,1.45.53,2.19.77l.45.16c.91.28,1.82.55,2.75.78l.42.1c.76.19,1.54.36,2.32.51l.88.16c.65.11,1.29.21,1.94.3l1,.13c.66.07,1.32.13,2,.18l.9.07c1,0,1.93.09,2.9.09a50,50,0,0,0,50-50C540,349.23,540,348.47,539.94,347.71Z"/><circle class="cls-5" cx="300" cy="300" r="50"/><path class="cls-6" d="M323.52,255.87l-46.95,88.31a50,50,0,0,0,46.95-88.31Z"/><circle class="cls-5" cx="160" cy="300" r="50"/><path class="cls-7" d="M183.52,255.87l-47,88.31a50,50,0,1,0,47-88.31Z"/><circle class="cls-5" cx="440" cy="300" r="50"/><path class="cls-8" d="M463.52,255.87l-46.95,88.31a50,50,0,1,0,46.95-88.31Z"/></g></svg>