<svg id="Contenido" xmlns="http://www.w3.org/2000/svg" xmlns:xlink="http://www.w3.org/1999/xlink" viewBox="0 0 600 600"><defs><style>.cls-1,.cls-2{fill:none;}.cls-2{clip-rule:evenodd;}.cls-3{fill:url(#Degradado_sin_nombre_10);}.cls-4{fill:url(#Degradado_sin_nombre_10-2);}.cls-5{fill:url(#Degradado_sin_nombre_10-3);}.cls-6{clip-path:url(#clip-path);}.cls-7{clip-path:url(#clip-path-2);}.cls-8{clip-path:url(#clip-path-3);}.cls-9{clip-path:url(#clip-path-4);}.cls-10{clip-path:url(#clip-path-5);}.cls-11{clip-path:url(#clip-path-6);}.cls-12{clip-path:url(#clip-path-7);}.cls-13{clip-path:url(#clip-path-8);}.cls-14{clip-path:url(#clip-path-9);}.cls-15{clip-path:url(#clip-path-10);}.cls-16{clip-path:url(#clip-path-11);}.cls-17{clip-path:url(#clip-path-12);}.cls-18{clip-path:url(#clip-path-13);}.cls-19{clip-path:url(#clip-path-14);}.cls-20{clip-path:url(#clip-path-15);}.cls-21{clip-path:url(#clip-path-16);}.cls-22{clip-path:url(#clip-path-17);}.cls-23{clip-path:url(#clip-path-18);}.cls-24{clip-path:url(#clip-path-19);}.cls-25{clip-path:url(#clip-path-20);}.cls-26{clip-path:url(#clip-path-21);}.cls-27{clip-path:url(#clip-path-22);}.cls-28{clip-path:url(#clip-path-23);}.cls-29{clip-path:url(#clip-path-24);}.cls-30{clip-path:url(#clip-path-25);}.cls-31{clip-path:url(#clip-path-26);}.cls-32{clip-path:url(#clip-path-27);}.cls-33{clip-path:url(#clip-path-28);}.cls-34{clip-path:url(#clip-path-29);}.cls-35{clip-path:url(#clip-path-30);}.cls-36{clip-path:url(#clip-path-31);}.cls-37{clip-path:url(#clip-path-32);}.cls-38{clip-path:url(#clip-path-33);}.cls-39{fill:#1464a5;}.cls-40{fill:url(#Degradado_sin_nombre_2);}.cls-41{fill:url(#Degradado_sin_nombre_2-2);}.cls-42{fill:url(#Degradado_sin_nombre_2-3);}</style><linearGradient id="Degradado_sin_nombre_10" x1="247.73" y1="157.66" x2="403.3" y2="450.25" gradientUnits="userSpaceOnUse"><stop offset="0.01" stop-color="#043263" stop-opacity="0.5"/><stop offset="1" stop-color="#043263" stop-opacity="0"/></linearGradient><linearGradient id="Degradado_sin_nombre_10-2" x1="133.86" y1="206.8" x2="289.44" y2="499.4" xlink:href="#Degradado_sin_nombre_10"/><linearGradient id="Degradado_sin_nombre_10-3" x1="361.6" y1="108.51" x2="517.17" y2="401.11" xlink:href="#Degradado_sin_nombre_10"/><clipPath id="clip-path"><rect class="cls-1" x="-2441.9" y="701.18" width="12.97" height="31.89"/></clipPath><clipPath id="clip-path-2"><rect class="cls-1" x="-2371.07" y="701.18" width="12.97" height="31.89"/></clipPath><clipPath id="clip-path-3"><rect class="cls-1" x="-2441.9" y="628.51" width="83.79" height="92.01"/></clipPath><clipPath id="clip-path-4"><rect class="cls-1" x="-2441.9" y="628.51" width="83.8" height="92"/></clipPath><clipPath id="clip-path-5"><path class="cls-2" d="M-2437.24,720.52h74.48V655.17a7.65,7.65,0,0,0-7.65-7.65h-59.18a7.65,7.65,0,0,0-7.65,7.65Z"/></clipPath><clipPath id="clip-path-6"><path class="cls-2" d="M-2429.59,647.52a7.65,7.65,0,0,0-7.65,7.65v65.34h74.48V655.17a7.65,7.65,0,0,0-7.65-7.65Z"/></clipPath><clipPath id="clip-path-7"><path class="cls-2" d="M-2371,689.07h-58V662.89a7.65,7.65,0,0,1,7.65-7.65h42.72a7.66,7.66,0,0,1,7.65,7.65Z"/></clipPath><clipPath id="clip-path-8"><path class="cls-2" d="M-2421.36,655.24a7.65,7.65,0,0,0-7.65,7.65v26.18h58V662.89a7.65,7.65,0,0,0-7.65-7.65Z"/></clipPath><clipPath id="clip-path-9"><path class="cls-2" d="M-2368.38,707.41h-63.24a5.64,5.64,0,0,1-5.62-5.63v-1.56a5.65,5.65,0,0,1,5.62-5.63h63.24a5.65,5.65,0,0,1,5.62,5.63v1.56a5.64,5.64,0,0,1-5.62,5.63"/></clipPath><clipPath id="clip-path-10"><path class="cls-2" d="M-2423.82,701a4.21,4.21,0,0,1-4.24,4.18,4.21,4.21,0,0,1-4.24-4.18,4.21,4.21,0,0,1,4.24-4.18,4.21,4.21,0,0,1,4.24,4.18"/></clipPath><clipPath id="clip-path-11"><path class="cls-2" d="M-2369.1,701a4.15,4.15,0,0,1-4.18,4.12,4.15,4.15,0,0,1-4.18-4.12,4.15,4.15,0,0,1,4.18-4.12,4.15,4.15,0,0,1,4.18,4.12"/></clipPath><clipPath id="clip-path-12"><path class="cls-2" d="M-2384.14,716.33h-33.61a2.07,2.07,0,0,1-2.07-2.07v0a2.07,2.07,0,0,1,2.07-2.07h33.61a2.07,2.07,0,0,1,2.07,2.07v0a2.07,2.07,0,0,1-2.07,2.07"/></clipPath><clipPath id="clip-path-13"><path class="cls-2" d="M-1554.7,708a4.12,4.12,0,0,0,4,4.23h101.1a4.12,4.12,0,0,0,4-4.23V638.76a4.12,4.12,0,0,0-4-4.23h-101.1a4.12,4.12,0,0,0-4,4.23Z"/></clipPath><clipPath id="clip-path-14"><path class="cls-2" d="M-1554.7,705.65a4.13,4.13,0,0,0,4,4.24h101.1a4.13,4.13,0,0,0,4-4.24V636.43a4.13,4.13,0,0,0-4-4.24h-101.1a4.13,4.13,0,0,0-4,4.24Z"/></clipPath><clipPath id="clip-path-15"><path class="cls-2" d="M-1452.3,695.65a3,3,0,0,1-2.91,3.12h-90.52a3,3,0,0,1-2.91-3.12V641.14a3,3,0,0,1,2.91-3.12h90.52a3,3,0,0,1,2.91,3.12Z"/></clipPath><clipPath id="clip-path-16"><polygon class="cls-2" points="-1531.63 698.97 -1467.81 632.79 -1445.86 632.79 -1445.86 698.56 -1531.63 698.97"/></clipPath><clipPath id="clip-path-17"><rect class="cls-1" x="-1565" y="710.59" width="130" height="7.71"/></clipPath><clipPath id="clip-path-18"><rect class="cls-1" x="-1561.7" y="707.07" width="122.74" height="3.51"/></clipPath><clipPath id="clip-path-19"><rect class="cls-1" x="-1510.23" y="710.59" width="21.12" height="2.8"/></clipPath><clipPath id="clip-path-20"><path class="cls-2" d="M-1442.44,726.2a3.14,3.14,0,0,1-3.09,3.18h-29.42a3.14,3.14,0,0,1-3.09-3.18V662.43a3.13,3.13,0,0,1,3.09-3.18h29.42a3.14,3.14,0,0,1,3.09,3.18Z"/></clipPath><clipPath id="clip-path-21"><rect class="cls-1" x="-1478.05" y="668.24" width="35.62" height="51.25"/></clipPath><clipPath id="clip-path-22"><rect class="cls-1" x="-1477.49" y="669.13" width="34.99" height="51.03"/></clipPath><clipPath id="clip-path-23"><path class="cls-2" d="M-1458,724.78a2.69,2.69,0,0,1-2.52,2.84,2.69,2.69,0,0,1-2.52-2.84,2.7,2.7,0,0,1,2.52-2.85,2.7,2.7,0,0,1,2.52,2.85"/></clipPath><clipPath id="clip-path-24"><path class="cls-2" d="M-1456.24,664.31a.84.84,0,0,1-.78.88h-7a.84.84,0,0,1-.78-.88.83.83,0,0,1,.78-.88h7a.83.83,0,0,1,.78.88"/></clipPath><clipPath id="clip-path-25"><rect class="cls-1" x="-648.72" y="630.06" width="99.18" height="100.17"/></clipPath><clipPath id="clip-path-26"><rect class="cls-1" x="-650.78" y="626.13" width="102.17" height="102.17"/></clipPath><clipPath id="clip-path-27"><path class="cls-2" d="M-640.39,646l-10.4-14.64,2.27-2.27,2.27-2.27,14.63,10.4c1.65,1.66,2,2.91.72,5.49L-586.69,687a2.75,2.75,0,0,1,0,3.86s0,0-.06.05,0,0-.05.06a2.76,2.76,0,0,1-3.87,0l-44.21-44.22c-2.58,1.31-3.83.95-5.49-.7"/></clipPath><clipPath id="clip-path-28"><path class="cls-2" d="M-550.58,714a6.1,6.1,0,0,1,0,8.61l-4.31,4.3a6.08,6.08,0,0,1-8.6,0l-39.46-39.45a6.1,6.1,0,0,1,0-8.61l4.31-4.3a6.07,6.07,0,0,1,8.6,0Z"/></clipPath><clipPath id="clip-path-29"><path class="cls-2" d="M-598.72,666.07a4.39,4.39,0,0,1,0,6.22l-6.7,6.7a4.39,4.39,0,0,1-6.21,0l-.24-.24a4.39,4.39,0,0,1,0-6.22l6.69-6.69a4.41,4.41,0,0,1,6.22,0Z"/></clipPath><clipPath id="clip-path-30"><path class="cls-2" d="M-559.38,720.31a2,2,0,0,1,0,2.88,2,2,0,0,1-2.87,0l-36.57-36.58a2,2,0,0,1,0-2.88,2,2,0,0,1,2.87,0Z"/></clipPath><clipPath id="clip-path-31"><path class="cls-2" d="M-554.35,715.29a2,2,0,0,1,0,2.88,2,2,0,0,1-2.87,0l-36.58-36.59a2,2,0,0,1,0-2.87,2,2,0,0,1,2.87,0Z"/></clipPath><clipPath id="clip-path-32"><rect class="cls-1" x="-651.39" y="626.24" width="5.12" height="5.13"/></clipPath><clipPath id="clip-path-33"><rect class="cls-1" x="-3327.73" y="691.13" width="52.23" height="36.4"/></clipPath><linearGradient id="Degradado_sin_nombre_2" x1="350" y1="302.93" x2="276.57" y2="302.93" gradientUnits="userSpaceOnUse"><stop offset="0" stop-color="#043263" stop-opacity="0.6"/><stop offset="1" stop-color="#043263" stop-opacity="0"/></linearGradient><linearGradient id="Degradado_sin_nombre_2-2" x1="210" y1="302.93" x2="136.57" y2="302.93" xlink:href="#Degradado_sin_nombre_2"/><linearGradient id="Degradado_sin_nombre_2-3" x1="490" y1="302.93" x2="416.57" y2="302.93" xlink:href="#Degradado_sin_nombre_2"/></defs><title>servicios</title><path class="cls-3" d="M399.91,347.1q-.06-1-.15-2l0-.34c-.07-.74-.17-1.48-.28-2.21l-.09-.56c-.09-.6-.2-1.19-.32-1.78l-.09-.49c-.15-.71-.31-1.41-.49-2.11,0-.17-.09-.33-.13-.5q-.22-.84-.48-1.68c-.06-.19-.11-.38-.17-.56-.22-.68-.44-1.36-.68-2l-.15-.37c-.21-.56-.42-1.11-.65-1.66-.08-.2-.17-.4-.25-.59-.27-.62-.55-1.24-.84-1.85,0-.08-.07-.15-.1-.22-.29-.59-.59-1.18-.9-1.76-.11-.19-.22-.39-.32-.59-.28-.49-.56-1-.85-1.46l-.24-.41c-.35-.58-.72-1.15-1.1-1.71l-.38-.57q-.44-.63-.9-1.26l-.37-.51c-.4-.53-.82-1.06-1.24-1.57l-.43-.51c-.32-.38-.64-.76-1-1.13l-.49-.54c-.45-.49-.9-1-1.36-1.43l-.45-.43c-.35-.35-.71-.7-1.08-1l-.58-.54-1.28-1.1-.58-.48-1.27-1-.66-.49c-.39-.29-.79-.57-1.18-.84l-.55-.38c-.54-.36-1.08-.71-1.64-1l-.69-.42-1.2-.69-.67-.37-.11-.06h0a50,50,0,1,0-46.95,88.3h0l.33.16c.67.35,1.35.69,2,1l.69.31,1.92.81.72.28c.72.28,1.45.53,2.19.77l.45.16c.91.28,1.82.55,2.75.78l.42.1c.76.19,1.54.36,2.32.51l.88.16c.65.11,1.29.21,1.94.3l1,.13c.66.07,1.32.13,2,.18l.9.07c1,0,1.93.09,2.9.09a50,50,0,0,0,50-50c0-.77,0-1.53-.06-2.29Z"/><path class="cls-4" d="M259.91,347.1q-.06-1-.15-2l0-.34c-.07-.74-.17-1.48-.28-2.21l-.09-.56c-.09-.6-.2-1.19-.32-1.78l-.09-.49c-.15-.71-.31-1.41-.49-2.11,0-.17-.09-.33-.13-.5q-.22-.84-.48-1.68c-.06-.19-.11-.38-.17-.56-.22-.68-.44-1.36-.68-2l-.15-.37c-.21-.56-.42-1.11-.65-1.66-.08-.2-.17-.4-.25-.59-.27-.62-.55-1.24-.84-1.85,0-.08-.07-.15-.1-.22-.29-.59-.59-1.18-.9-1.76-.11-.19-.22-.39-.32-.59-.28-.49-.56-1-.85-1.46l-.24-.41c-.35-.58-.72-1.15-1.1-1.71l-.38-.57q-.43-.63-.9-1.26l-.37-.51c-.4-.53-.82-1.06-1.24-1.57l-.43-.51c-.32-.38-.64-.76-1-1.13l-.49-.54c-.45-.49-.9-1-1.36-1.43l-.45-.43c-.35-.35-.71-.7-1.08-1l-.58-.54-1.28-1.1-.58-.48-1.27-1-.66-.49c-.39-.29-.79-.57-1.18-.84l-.55-.38c-.54-.36-1.08-.71-1.64-1l-.69-.42-1.2-.69-.67-.37-.11-.06h0a50,50,0,1,0-47,88.3h0l.33.16c.67.35,1.35.69,2,1l.69.31,1.92.81.72.28c.72.28,1.45.53,2.19.77l.45.16c.91.28,1.82.55,2.75.78l.42.1c.76.19,1.54.36,2.32.51l.88.16c.65.11,1.29.21,1.94.3l1,.13c.66.07,1.32.13,2,.18l.9.07c1,0,1.93.09,2.9.09a50,50,0,0,0,50-50c0-.77,0-1.53-.06-2.29Z"/><path class="cls-5" d="M539.94,347.71l0-.61q-.06-1-.15-2l0-.34c-.07-.74-.17-1.48-.28-2.21l-.09-.56c-.09-.6-.2-1.19-.32-1.78l-.09-.49c-.15-.71-.31-1.41-.49-2.11,0-.17-.09-.33-.13-.5q-.23-.84-.48-1.68c-.06-.19-.11-.38-.17-.56-.22-.68-.44-1.36-.68-2l-.15-.37c-.21-.56-.42-1.11-.65-1.66-.08-.2-.17-.4-.25-.59-.27-.62-.55-1.24-.84-1.85,0-.08-.07-.15-.1-.22-.29-.59-.59-1.18-.9-1.76-.11-.19-.22-.39-.32-.59-.28-.49-.56-1-.85-1.46l-.24-.41c-.35-.58-.72-1.15-1.1-1.71l-.38-.57q-.44-.63-.9-1.26l-.37-.51c-.4-.53-.82-1.06-1.24-1.57l-.43-.51c-.32-.38-.64-.76-1-1.13l-.49-.54c-.45-.49-.9-1-1.36-1.43l-.45-.43c-.35-.35-.71-.7-1.08-1l-.58-.54-1.28-1.1-.58-.48-1.27-1-.66-.49c-.39-.29-.79-.57-1.18-.84l-.55-.38c-.54-.36-1.08-.71-1.64-1l-.69-.42-1.2-.69-.67-.37-.11-.06h0a50,50,0,1,0-46.95,88.3h0l.33.16c.67.35,1.35.69,2,1l.69.31,1.92.81.72.28c.72.28,1.45.53,2.19.77l.45.16c.91.28,1.82.55,2.75.78l.42.1c.76.19,1.54.36,2.32.51l.88.16c.65.11,1.29.21,1.94.3l1,.13c.66.07,1.32.13,2,.18l.9.07c1,0,1.93.09,2.9.09a50,50,0,0,0,50-50C540,349.23,540,348.47,539.94,347.71Z"/><circle class="cls-39" cx="300" cy="300" r="50"/><path class="cls-40" d="M323.52,255.87l-46.95,88.31a50,50,0,0,0,46.95-88.31Z"/><circle class="cls-39" cx="160" cy="300" r="50"/><path class="cls-41" d="M183.52,255.87l-47,88.31a50,50,0,0,0,47-88.31Z"/><circle class="cls-39" cx="440" cy="300" r="50"/><path class="cls-42" d="M463.52,255.87l-46.95,88.31a50,50,0,0,0,46.95-88.31Z"/></svg>