<svg xmlns="http://www.w3.org/2000/svg" xmlns:xlink="http://www.w3.org/1999/xlink" viewBox="0 0 600 600"><defs><style>.cls-1{fill:none;}.cls-2{fill:url(#Degradado_sin_nombre_179);}.cls-3,.cls-5{fill:#004481;}.cls-4{fill:#043263;}.cls-11,.cls-14,.cls-5{opacity:0.5;isolation:isolate;}.cls-6{fill:#1973b8;}.cls-7{fill:#2dcccd;}.cls-8{fill:#d4edfc;}.cls-9{fill:#49a5e6;}.cls-10{fill:#f8cd50;}.cls-11{fill:url(#Degradado_sin_nombre_173);}.cls-12{fill:url(#Degradado_sin_nombre_69);}.cls-13{fill:url(#Degradado_sin_nombre_163);}.cls-14{fill:url(#Degradado_sin_nombre_173-2);}</style><linearGradient id="Degradado_sin_nombre_179" x1="184.02" y1="-14698.1" x2="465.59" y2="-15227.65" gradientTransform="matrix(1, 0, 0, -1, 0, -14660.25)" gradientUnits="userSpaceOnUse"><stop offset="0" stop-color="#043263" stop-opacity="0.5"/><stop offset="1" stop-color="#043263" stop-opacity="0"/></linearGradient><linearGradient id="Degradado_sin_nombre_173" x1="257.59" y1="-14801.18" x2="295.11" y2="-14838.7" gradientTransform="matrix(1, 0, 0, -1, 0, -14660.25)" gradientUnits="userSpaceOnUse"><stop offset="0" stop-color="#fff" stop-opacity="0.5"/><stop offset="1" stop-color="#e2f7f7" stop-opacity="0"/></linearGradient><linearGradient id="Degradado_sin_nombre_69" x1="438.57" y1="-14803.44" x2="453.19" y2="-14818.06" gradientTransform="matrix(1, 0, 0, -1, 0, -14660.25)" gradientUnits="userSpaceOnUse"><stop offset="0" stop-color="#fff" stop-opacity="0.5"/><stop offset="1" stop-color="#fff" stop-opacity="0"/></linearGradient><linearGradient id="Degradado_sin_nombre_163" x1="494.95" y1="-14907.56" x2="294.68" y2="-14907.56" gradientTransform="matrix(1, 0, 0, -1, 0, -14660.25)" gradientUnits="userSpaceOnUse"><stop offset="0" stop-color="#028484" stop-opacity="0.5"/><stop offset="1" stop-color="#028484" stop-opacity="0.1"/></linearGradient><linearGradient id="Degradado_sin_nombre_173-2" x1="161.83" y1="-14930.18" x2="283.73" y2="-15052.07" xlink:href="#Degradado_sin_nombre_173"/></defs><g id="Cuadrados_Blancos" data-name="Cuadrados Blancos"><rect class="cls-1" width="600" height="600"/></g><g id="Capa_133" data-name="Capa 133"><path class="cls-2" d="M568,170H132a12,12,0,0,0-12,12V518a12,12,0,0,0,12,12H568a12,12,0,0,0,12-12V182A12,12,0,0,0,568,170Z"/><rect class="cls-3" x="70" y="120" width="460" height="360" rx="12"/><path class="cls-4" d="M70,210H530V468a12,12,0,0,1-12,12H82a12,12,0,0,1-12-12V210Z"/><rect class="cls-5" x="145" y="285" width="310" height="120" rx="3"/><rect class="cls-6" x="145" y="285.16" width="310" height="120" rx="3"/><path class="cls-7" d="M491.05,266l-6-2a130,130,0,0,0-41.11-6.68H156.1A129.9,129.9,0,0,0,115,264l-6,2a3,3,0,0,1-3.83-1.83,3.21,3.21,0,0,1-.17-1v-31.7a3,3,0,0,1,3-3,3,3,0,0,1,1,.17l6,2a130,130,0,0,0,41.11,6.67H443.9a129.88,129.88,0,0,0,41.1-6.66l6-2a3,3,0,0,1,3.8,1.9,3,3,0,0,1,.15,1v31.67a3,3,0,0,1-3,3A3.09,3.09,0,0,1,491.05,266Z"/><circle class="cls-8" cx="145" cy="165" r="20"/><circle class="cls-8" cx="205.3" cy="165" r="20"/><circle class="cls-8" cx="390.19" cy="165" r="20"/><rect class="cls-9" x="250" y="145" width="100" height="40" rx="6"/><rect class="cls-4" x="435" y="170" width="40" height="15" rx="3"/><rect class="cls-10" x="435" y="145" width="40" height="15" rx="3"/><path class="cls-11" d="M256,145a6,6,0,0,0-6,6v28a6,6,0,0,0,6,6h32.56l21.26-40Z"/><path class="cls-12" d="M438,145a3,3,0,0,0-3,3v9a3,3,0,0,0,3,3h13l8-15Z"/><path class="cls-13" d="M491.05,228.6l-6,2a130,130,0,0,1-41.11,6.67H305.32l-10.64,20H443.9A130,130,0,0,1,485,264l6,2a3,3,0,0,0,3.8-1.9,3,3,0,0,0,.15-1v-31.7a3,3,0,0,0-3.9-2.85Z"/><path class="cls-14" d="M270.55,405H148a3,3,0,0,1-3-3V288a3,3,0,0,1,3-3s95.62.42,180.14,1.08Z"/></g></svg>