<svg id="Contenido" xmlns="http://www.w3.org/2000/svg" xmlns:xlink="http://www.w3.org/1999/xlink" viewBox="0 0 600 600"><defs><style>.cls-1{fill:url(#Degradado_sin_nombre_47);}.cls-2{fill:#2dcccd;}.cls-3{fill:#043263;}.cls-4{fill:#1464a5;}.cls-5{fill:url(#Degradado_sin_nombre_5);}.cls-6{fill:#49a5e6;}.cls-7{fill:#f8cd50;}.cls-8{fill:#d4edfc;}.cls-9{fill:url(#Degradado_sin_nombre_7);}</style><linearGradient id="Degradado_sin_nombre_47" x1="265.67" y1="168.31" x2="433.12" y2="483.24" gradientUnits="userSpaceOnUse"><stop offset="0" stop-color="#1a2746" stop-opacity="0.5"/><stop offset="1" stop-color="#1a2746" stop-opacity="0"/></linearGradient><linearGradient id="Degradado_sin_nombre_5" x1="471.98" y1="334.64" x2="226.53" y2="334.64" gradientUnits="userSpaceOnUse"><stop offset="0" stop-color="#043263" stop-opacity="0.4"/><stop offset="1" stop-color="#043263" stop-opacity="0.1"/></linearGradient><linearGradient id="Degradado_sin_nombre_7" x1="274.93" y1="365.32" x2="301.2" y2="379.29" gradientUnits="userSpaceOnUse"><stop offset="0" stop-color="#fff" stop-opacity="0.6"/><stop offset="1" stop-color="#fff" stop-opacity="0.2"/></linearGradient></defs><title>values-day</title><path class="cls-1" d="M503.59,256a114.64,114.64,0,0,0,16-25.74,5.67,5.67,0,0,0-6.81-7.72c-26.1,7.87-57.66,14-92.72,17.69a172.18,172.18,0,0,0-160.1,0c-35.06-3.72-66.62-9.82-92.72-17.69a5.66,5.66,0,0,0-6.8,7.72,114.24,114.24,0,0,0,16,25.74c4.89,13.29,11,33.3,12.83,53.66A171.22,171.22,0,0,0,168,392.45c0,22.15,16.69,43,36.09,60.27a231.09,231.09,0,0,0,62.42,40.13h0c1.29.55,2.58,1.09,3.85,1.61l0,0c30.79,12.51,55.56,14.19,65.21,14.3h1.16l1.7,0h.11l.55,0H340a108.7,108.7,0,0,0,16.2-.64l1.65-.18c24.64-2.74,71.37-13.62,118-55.18l1.73-1.56.55-.5,1.16-1.06L480,449c.35-.31.69-.63,1-1l.7-.67,1-.93.71-.68.94-.92.71-.7.93-.92c.23-.24.46-.48.7-.71l.91-.94.68-.7.92-1,.63-.67c.35-.37.69-.75,1-1.12l.49-.54c.5-.55,1-1.1,1.47-1.65l.45-.54,1-1.15.58-.71.82-1,.61-.77.75-.95.61-.8c.24-.31.48-.62.71-.94l.6-.81.67-.95c.2-.27.39-.54.58-.82s.44-.63.65-1l.56-.83.63-1,.51-.81.64-1,.46-.77.7-1.25c.15-.25.29-.51.43-.76.29-.54.58-1.08.86-1.62l.37-.76c.18-.37.37-.74.54-1.11s.26-.56.39-.84.31-.69.46-1,.25-.59.38-.88.28-.68.41-1,.24-.61.35-.91.25-.68.37-1,.22-.61.32-.92.23-.68.33-1,.2-.62.29-.94.2-.69.29-1,.17-.62.25-.93.18-.72.26-1.09.15-.6.21-.9.16-.79.23-1.18.12-.56.16-.84c.12-.66.22-1.32.31-2h0c.14-1.09.24-2.2.31-3.31,0-.07,0-.15,0-.22,0-.43.05-.86.07-1.29,0-.6,0-1.2,0-1.77,0-1.14,0-2.27,0-3.39,0-.92,0-1.83-.08-2.74l0-.92h0q-.24-5.76-.83-11.42c0-.2-.05-.4-.07-.6h0c-.18-1.61-.38-3.21-.61-4.8,0-.36-.09-.71-.14-1.06h0c-.24-1.59-.49-3.18-.76-4.76h0l-.06-.35c-.32-1.82-.68-3.63-1.05-5.43h0c-.1-.44-.2-.88-.29-1.32h0c-.3-1.38-.62-2.76-1-4.13h0c-.07-.3-.15-.6-.22-.91-.46-1.83-.94-3.66-1.46-5.48h0l-.06-.21a170.52,170.52,0,0,0-5.55-16.19h0l-.06-.16c-.66-1.64-1.35-3.27-2-4.88h0l-.12-.26q-2.31-5.28-5-10.38h0l-.21-.4c-.53-1-1.06-2-1.6-3C492.55,289.27,498.7,269.26,503.59,256Z"/><path class="cls-2" d="M129.93,200.08s21.5,45.45,19.73,85.57,33.25-30.15,33.25-30.15Z"/><path class="cls-2" d="M470.07,200.08s-21.5,45.45-19.73,85.57-33.25-30.15-33.25-30.15Z"/><path class="cls-3" d="M300,204.32c-67.09,0-128-8.3-172.77-21.81a5.67,5.67,0,0,0-6.81,7.72c23.76,53.42,95.17,92.21,179.58,92.21s155.82-38.79,179.58-92.21a5.67,5.67,0,0,0-6.81-7.72C428,196,367.09,204.32,300,204.32Z"/><path class="cls-4" d="M300,180.46a172,172,0,0,0-172,172c0,22.15,16.69,43,36.09,60.27,67.88,60.45,135.89,56,135.89,56s68,4.45,135.89-56c19.4-17.28,36.09-36.61,36.09-60.27A172,172,0,0,0,300,180.46Z"/><path class="cls-5" d="M471.83,345.4c-.06-1.44-.13-2.87-.23-4.29,0-.43-.05-.87-.08-1.3-.13-1.79-.29-3.58-.47-5.36l-.12-1.08c-.17-1.46-.35-2.92-.54-4.37l-.21-1.5c-.24-1.6-.49-3.2-.76-4.78l-.09-.53c-.31-1.76-.66-3.51-1-5.25-.1-.44-.2-.88-.29-1.32q-.45-2.08-1-4.14l-.3-1.23q-.64-2.6-1.38-5.16l-.15-.51c-.45-1.54-.92-3.07-1.4-4.59-.14-.42-.28-.84-.41-1.26-.49-1.48-1-3-1.52-4.42l-.21-.61q-.93-2.52-1.92-5l-.36-.88c-.57-1.4-1.15-2.79-1.75-4.16-.15-.33-.29-.66-.43-1q-2.19-4.91-4.66-9.65l-.46-.86c-.75-1.43-1.53-2.86-2.33-4.27l-.24-.43q-1.37-2.4-2.81-4.76l-.18-.28c-.89-1.45-1.8-2.87-2.73-4.28l-.42-.65c-2-3-4.13-6-6.33-8.91l-.31-.41q-1.59-2.07-3.24-4.1l-.17-.22q-3.53-4.32-7.32-8.4l-.29-.31q-3.83-4.11-7.92-8h0c-1.37-1.3-2.77-2.57-4.18-3.81l-.07-.06q-4.26-3.75-8.77-7.22l-.11-.08a170.94,170.94,0,0,0-14.07-9.75h0q-4.87-3-10-5.74L226.53,452.85C268.27,470.79,300,468.72,300,468.72s68,4.45,135.89-56c17.57-15.65,32.91-33,35.66-53.68a56.19,56.19,0,0,0,.43-6.59c0-1.84,0-3.68-.09-5.5Z"/><circle class="cls-6" cx="245.41" cy="344.1" r="44.59"/><path class="cls-6" d="M435.89,319.84A69.21,69.21,0,0,0,300,301.29a69.21,69.21,0,0,0-135.89,18.55V339A69.21,69.21,0,0,0,300,357.51,69.21,69.21,0,0,0,435.89,339Z"/><path class="cls-7" d="M314.18,357.75l7.1,2.69c2.65,1,4,4.94,2.76,8.21l-3.28,8.88a239.36,239.36,0,0,1-9.51,22.2l-7.62,15.54c-1.7,3.48-5.56,3.48-7.26,0l-7.62-15.54a239.36,239.36,0,0,1-9.51-22.2L276,368.65c-1.21-3.27.11-7.2,2.76-8.21l7.1-2.69A39.51,39.51,0,0,1,314.18,357.75Z"/><circle class="cls-8" cx="233.32" cy="326.27" r="52.72"/><circle class="cls-8" cx="366.68" cy="326.27" r="52.72"/><path class="cls-3" d="M366.68,324.91a33.86,33.86,0,0,1-17.59-4.71,2.34,2.34,0,0,0-3.53,2.54,21.86,21.86,0,0,0,42.24,0,2.34,2.34,0,0,0-3.53-2.54A33.91,33.91,0,0,1,366.68,324.91Z"/><path class="cls-3" d="M233.32,324.91a33.91,33.91,0,0,1-17.59-4.71,2.34,2.34,0,0,0-3.53,2.54,21.86,21.86,0,0,0,42.24,0,2.34,2.34,0,0,0-3.53-2.54A33.86,33.86,0,0,1,233.32,324.91Z"/><path class="cls-9" d="M285.82,357.75l-7.1,2.69c-2.65,1-4,4.94-2.76,8.21l3.28,8.88a239.36,239.36,0,0,0,9.51,22.2l.76,1.55,23.39-44A39.46,39.46,0,0,0,285.82,357.75Z"/></svg>