<svg xmlns="http://www.w3.org/2000/svg" xmlns:xlink="http://www.w3.org/1999/xlink" viewBox="0 0 600 600"><defs><style>.cls-1{fill:none;}.cls-2{fill:url(#Degradado_sin_nombre_572);}.cls-3{fill:#2dcccd;}.cls-4{fill:url(#Degradado_sin_nombre_38);}.cls-5{fill:#49a5e6;}.cls-15,.cls-6{opacity:0.5;}.cls-7{fill:url(#Degradado_sin_nombre_100);}.cls-8{fill:#eaf9fa;}.cls-9{fill:#f8cd50;}.cls-10{fill:url(#Degradado_sin_nombre_100-2);}.cls-11{fill:#043263;}.cls-12{fill:url(#Degradado_sin_nombre_148);}.cls-13{fill:#d4edfc;}.cls-14{fill:#1464a5;}.cls-15{isolation:isolate;fill:url(#Degradado_sin_nombre_51);}.cls-16{fill:url(#Degradado_sin_nombre_127);}.cls-17{fill:url(#Degradado_sin_nombre_119);}</style><linearGradient id="Degradado_sin_nombre_572" x1="225.42" y1="147.07" x2="436.42" y2="543.89" gradientUnits="userSpaceOnUse"><stop offset="0" stop-color="#192647" stop-opacity="0.5"/><stop offset="1" stop-color="#192647" stop-opacity="0"/></linearGradient><linearGradient id="Degradado_sin_nombre_38" x1="363.48" y1="-10917.22" x2="210" y2="-10917.22" gradientTransform="matrix(1, 0, 0, -1, 0, -10586)" gradientUnits="userSpaceOnUse"><stop offset="0" stop-color="#028484" stop-opacity="0.6"/><stop offset="1" stop-color="#028484" stop-opacity="0"/></linearGradient><linearGradient id="Degradado_sin_nombre_100" x1="190.39" y1="-10716.01" x2="252.96" y2="-10778.58" gradientTransform="matrix(1, 0, 0, -1, 0, -10586)" gradientUnits="userSpaceOnUse"><stop offset="0" stop-color="#eaf9fa"/><stop offset="1" stop-color="#eaf9fa" stop-opacity="0.2"/><stop offset="1" stop-color="#eaf9fa" stop-opacity="0.5"/></linearGradient><linearGradient id="Degradado_sin_nombre_100-2" x1="270.43" y1="-10932.81" x2="316.26" y2="-10957.18" xlink:href="#Degradado_sin_nombre_100"/><linearGradient id="Degradado_sin_nombre_148" x1="475.96" y1="-10988.26" x2="375.5" y2="-10988.26" gradientTransform="matrix(1, 0, 0, -1, 0, -10586)" gradientUnits="userSpaceOnUse"><stop offset="0" stop-color="#072146" stop-opacity="0.8"/><stop offset="1" stop-color="#072146" stop-opacity="0.1"/></linearGradient><linearGradient id="Degradado_sin_nombre_51" x1="358.45" y1="-10836.35" x2="398.41" y2="-10857.6" gradientTransform="matrix(1, 0, 0, -1, 0, -10586)" gradientUnits="userSpaceOnUse"><stop offset="0" stop-color="#fff"/><stop offset="1" stop-color="#fff" stop-opacity="0.2"/></linearGradient><linearGradient id="Degradado_sin_nombre_127" x1="481.5" y1="-10912.26" x2="395.06" y2="-10912.26" gradientTransform="matrix(1, 0, 0, -1, 0, -10586)" gradientUnits="userSpaceOnUse"><stop offset="0" stop-color="#043263" stop-opacity="0.8"/><stop offset="1" stop-color="#043263" stop-opacity="0.1"/></linearGradient><linearGradient id="Degradado_sin_nombre_119" x1="434" y1="-10963.95" x2="383.12" y2="-10963.95" gradientTransform="matrix(1, 0, 0, -1, 0, -10586)" gradientUnits="userSpaceOnUse"><stop offset="0.01" stop-color="#043263" stop-opacity="0.2"/><stop offset="1" stop-color="#043263" stop-opacity="0"/></linearGradient></defs><title>11</title><g id="Cuadrados_Blancos" data-name="Cuadrados Blancos"><rect class="cls-1" width="600" height="600"/></g><g id="Capa_112" data-name="Capa 112"><path class="cls-2" d="M425.72,389.71a11.06,11.06,0,0,0,11.06,11.06h77.44a11.06,11.06,0,0,0,11.06-11.06h6.51c1.66,0,3.31-.06,4.94-.17a23.42,23.42,0,0,0,21.77-23.41,3.31,3.31,0,0,0-3.3-3.32,3.35,3.35,0,0,0-1.32.27,58.94,58.94,0,0,1-22.62,4.51H499v-3.84a54.12,54.12,0,0,1,9.72-30.45,40.2,40.2,0,0,0-10.08-55.47l0-.06a40.13,40.13,0,0,0-25.18-7.26l-.22,0-.66,0-.75.07-.87.09-1.07.13-1,.15-1,.17-1,.21-.91.21c-.35.09-.7.17-1,.27l-.89.25-1,.31-.89.3-1,.35-.89.35-.93.39-.88.4-.89.43-.86.44-.87.47c-.28.15-.55.31-.82.47l-.88.53-.74.48c-.31.2-.61.4-.9.61s-.45.31-.67.47l-.93.69-.57.45c-.33.26-.65.53-1,.81l-.46.39-1,.93-.35.34c-.36.35-.72.7-1.07,1.07l-.24.25c-.38.4-.75.8-1.11,1.22l-.14.16c-.38.45-.76.91-1.13,1.37l-.05.07A39.89,39.89,0,0,0,436,303.43h0c-.11.65-.22,1.3-.3,2v0q-.12,1-.21,2h0c-.08,1.08-.14,2.17-.14,3.28a40.23,40.23,0,0,0,7.16,22.9A52.78,52.78,0,0,1,452,363.74v3.85H419.74a58.44,58.44,0,0,1-6.21-.34V173.78a23,23,0,0,0-23-23H224.19a23,23,0,0,0-23,23V504a23,23,0,0,0,23,23H260l0,0H392.48a21,21,0,0,0,21-21.05v-.55c0-.48,0-1,0-1.45V489.81a36.42,36.42,0,0,0,21,6.69h81.89A36.55,36.55,0,0,0,553,460V444.5A36.56,36.56,0,0,0,516.44,408H511v-7.1a.11.11,0,0,0-.11-.11H440V408h-5.44a36.42,36.42,0,0,0-21,6.69V389.41c.25,0,.49.07.74.09,1.63.11,3.28.16,4.94.17M530.82,460a14.4,14.4,0,0,1-14.38,14.38H434.56A14.4,14.4,0,0,1,420.18,460V444.5a14.4,14.4,0,0,1,14.38-14.38H440a25.45,25.45,0,0,0,25.44,25h20.1a25.45,25.45,0,0,0,24.91-20.23.31.31,0,0,0,0-.08c.07-.34.13-.68.18-1,0-.09,0-.17,0-.25,0-.26.06-.51.09-.77s.05-.34.07-.5,0-.38,0-.57L511,431c0-.16,0-.32,0-.48s0-.23,0-.34h5.46a14.4,14.4,0,0,1,14.37,14.34Z"/><rect class="cls-3" x="151.19" y="100.78" width="212.34" height="376.17" rx="23"/><path class="cls-4" d="M210,477H342.48a21,21,0,0,0,21-21.05V185.45Z"/><rect class="cls-5" x="172.24" y="146.18" width="170.24" height="40.27" rx="3"/><g class="cls-6"><path class="cls-7" d="M175,146.54a2.75,2.75,0,0,0-2.75,2.75v34.78a2.76,2.76,0,0,0,2.75,2.74h83.73l21.53-40.27Z"/></g><rect class="cls-8" x="172.24" y="231.66" width="46.68" height="40.27" rx="3"/><rect class="cls-8" x="234.02" y="231.66" width="46.68" height="40.27" rx="3"/><rect class="cls-8" x="295.8" y="231.66" width="46.68" height="40.27" rx="3"/><rect class="cls-8" x="172.24" y="284.75" width="46.68" height="40.27" rx="3"/><rect class="cls-8" x="234.02" y="284.75" width="46.68" height="40.27" rx="3"/><rect class="cls-8" x="295.8" y="284.75" width="46.68" height="40.27" rx="3"/><rect class="cls-8" x="172.24" y="337.83" width="46.68" height="40.27" rx="3"/><rect class="cls-8" x="234.02" y="337.83" width="46.68" height="40.27" rx="3"/><rect class="cls-8" x="172.24" y="390.92" width="46.68" height="40.27" rx="3"/><rect class="cls-8" x="234.02" y="390.92" width="46.68" height="40.27" rx="3"/><rect class="cls-9" x="295.8" y="337.83" width="46.68" height="93.36" rx="4.57"/><path class="cls-10" d="M300.37,337.83a4.59,4.59,0,0,0-4.57,4.57v59.51l36-64.08Z"/><path class="cls-11" d="M439.44,446.5H357.56A36.55,36.55,0,0,1,321.05,410V394.5A36.55,36.55,0,0,1,357.56,358h81.88A36.55,36.55,0,0,1,476,394.5V410A36.55,36.55,0,0,1,439.44,446.5Zm-81.88-66.38a14.4,14.4,0,0,0-14.38,14.38V410a14.4,14.4,0,0,0,14.38,14.38h81.88A14.4,14.4,0,0,0,453.82,410V394.5a14.4,14.4,0,0,0-14.38-14.38Z"/><path class="cls-12" d="M439.44,358h-11l-11.76,22.13h22.77a14.4,14.4,0,0,1,14.37,14.34V410a14.4,14.4,0,0,1-14.38,14.39H387.25L375.5,446.5h63.95A36.55,36.55,0,0,0,476,410V394.5A36.55,36.55,0,0,0,439.44,358Z"/><path class="cls-9" d="M438.72,260.68a40.22,40.22,0,1,0-73.28,22.91A52.78,52.78,0,0,1,375,313.74v6.2H422v-6.19a54.12,54.12,0,0,1,9.72-30.45A40,40,0,0,0,438.72,260.68Z"/><path class="cls-13" d="M363,350.78h70.89a.11.11,0,0,1,.11.11v28.78a25.44,25.44,0,0,1-25.45,25.45h-20.1A25.44,25.44,0,0,1,363,379.67h0V350.78Z"/><path class="cls-14" d="M476.88,313.08a58.94,58.94,0,0,1-22.62,4.51H342.74a58.94,58.94,0,0,1-22.62-4.51,3.31,3.31,0,0,0-4.34,1.76,3.38,3.38,0,0,0-.26,1.29,23.42,23.42,0,0,0,21.75,23.37c1.63.11,3.28.16,4.94.17H454.79c1.66,0,3.31-.06,4.94-.17a23.42,23.42,0,0,0,21.77-23.37,3.31,3.31,0,0,0-3.3-3.32A3.35,3.35,0,0,0,476.88,313.08Z"/><path class="cls-11" d="M348.71,339.71h99.57a11.06,11.06,0,0,1-11.06,11.06H359.78a11.06,11.06,0,0,1-11.06-11.06h0Z"/><path class="cls-15" d="M395.65,220.56a40.22,40.22,0,0,0-30.21,63A52.78,52.78,0,0,1,375,313.71v2l46.75-87.94A40.06,40.06,0,0,0,395.65,220.56Z"/><path class="cls-16" d="M476.88,313.08a58.94,58.94,0,0,1-22.62,4.51H406.83l-11.77,22.12h59.73c1.66,0,3.31-.06,4.94-.17a23.42,23.42,0,0,0,21.77-23.41,3.31,3.31,0,0,0-3.3-3.32A3.35,3.35,0,0,0,476.88,313.08Z"/><path class="cls-17" d="M433.89,350.78h-21l-29.77,53.77a25.8,25.8,0,0,0,5.33.56h20.1A25.44,25.44,0,0,0,434,379.68h0V350.89a.11.11,0,0,0-.11-.11Z"/></g></svg>