<svg xmlns="http://www.w3.org/2000/svg" xmlns:xlink="http://www.w3.org/1999/xlink" viewBox="0 0 600 600"><defs><style>.cls-1{fill:none;}.cls-12,.cls-2{opacity:0.5;isolation:isolate;}.cls-2{fill:url(#Degradado_sin_nombre_376);}.cls-3{fill:#d4edfc;}.cls-4{fill:#1464a5;}.cls-5{fill:url(#Degradado_sin_nombre_113);}.cls-6{fill:#2dcccd;}.cls-7{fill:#fff;}.cls-8{fill:#49a5e6;}.cls-9{fill:url(#Degradado_sin_nombre_127);}.cls-10{fill:#f8cd50;}.cls-11{fill:#043263;}.cls-12{fill:url(#Degradado_sin_nombre_51);}.cls-13{fill:url(#Degradado_sin_nombre_127-2);}.cls-14{fill:url(#Degradado_sin_nombre_119);}</style><linearGradient id="Degradado_sin_nombre_376" x1="191.47" y1="106.37" x2="459.57" y2="610.59" gradientUnits="userSpaceOnUse"><stop offset="0" stop-color="#192647" stop-opacity="0.5"/><stop offset="1" stop-color="#192647" stop-opacity="0"/></linearGradient><linearGradient id="Degradado_sin_nombre_113" x1="485.1" y1="294.2" x2="174.7" y2="294.2" gradientTransform="translate(0 2)" gradientUnits="userSpaceOnUse"><stop offset="0" stop-color="#192647"/><stop offset="0" stop-color="#043263" stop-opacity="0.2"/><stop offset="1" stop-color="#043263" stop-opacity="0"/></linearGradient><linearGradient id="Degradado_sin_nombre_127" x1="555.46" y1="-11053.76" x2="455" y2="-11053.76" gradientTransform="matrix(1, 0, 0, -1, 0, -10586)" gradientUnits="userSpaceOnUse"><stop offset="0" stop-color="#043263" stop-opacity="0.8"/><stop offset="1" stop-color="#043263" stop-opacity="0.1"/></linearGradient><linearGradient id="Degradado_sin_nombre_51" x1="437.95" y1="-10901.85" x2="477.91" y2="-10923.1" gradientTransform="matrix(1, 0, 0, -1, 0, -10586)" gradientUnits="userSpaceOnUse"><stop offset="0" stop-color="#fff"/><stop offset="1" stop-color="#fff" stop-opacity="0.2"/></linearGradient><linearGradient id="Degradado_sin_nombre_127-2" x1="561" y1="-10977.76" x2="474.56" y2="-10977.76" xlink:href="#Degradado_sin_nombre_127"/><linearGradient id="Degradado_sin_nombre_119" x1="513.5" y1="-11029.45" x2="462.62" y2="-11029.45" gradientTransform="matrix(1, 0, 0, -1, 0, -10586)" gradientUnits="userSpaceOnUse"><stop offset="0.01" stop-color="#043263" stop-opacity="0.2"/><stop offset="1" stop-color="#043263" stop-opacity="0"/></linearGradient></defs><title>11</title><g id="Cuadrados_Blancos" data-name="Cuadrados Blancos"><rect class="cls-1" width="600" height="600"/></g><g id="Capa_111" data-name="Capa 111"><path class="cls-2" d="M548.44,470H543v-7.1a.11.11,0,0,0-.11-.11h3.33a11.06,11.06,0,0,0,11.06-11.06h6.51c1.66,0,3.31-.06,4.94-.17a23.42,23.42,0,0,0,21.77-23.41,3.31,3.31,0,0,0-3.3-3.32,3.35,3.35,0,0,0-1.32.27,58.94,58.94,0,0,1-22.62,4.51H531v-3.84a54.12,54.12,0,0,1,9.72-30.45,40.2,40.2,0,0,0-10.08-55.47l0-.06a40.18,40.18,0,0,0-16.11-6.7V175.9a22.88,22.88,0,0,0-23-22.7h-20V128.7a12.5,12.5,0,0,0-25,0v24.5h-258V128.7a12.5,12.5,0,0,0-25,0v24.5h-21a22.88,22.88,0,0,0-23,22.7V509.2a23,23,0,0,0,23,23H431.52a36.56,36.56,0,0,0,35,26.3h81.89A36.55,36.55,0,0,0,585,522V506.5A36.56,36.56,0,0,0,548.44,470Zm-81.88,66.38a14.39,14.39,0,0,1-10.11-4.17H491.6a23,23,0,0,0,21.6-15.08h4.35a25.45,25.45,0,0,0,24.91-20.23.31.31,0,0,0,0-.08c.07-.34.13-.68.18-1,0-.09,0-.17.05-.25,0-.25.06-.52.09-.78s.05-.33.07-.49,0-.38,0-.57L543,493c0-.16,0-.32,0-.48s0-.23,0-.34h5.46a14.4,14.4,0,0,1,14.37,14.34V522a14.4,14.4,0,0,1-14.38,14.38Z"/><path class="cls-3" d="M485.1,180.7v282a23,23,0,0,1-23,23h-349a23,23,0,0,1-23-23v-282"/><path class="cls-4" d="M462.1,106.7h-349a22.88,22.88,0,0,0-23,22.7h0v51.3h395V129.4a22.88,22.88,0,0,0-23-22.7Z"/><path class="cls-5" d="M462.1,106.7H376.8l-202.1,379H462.1a22.92,22.92,0,0,0,23-22.9V129.6A23,23,0,0,0,462.1,106.7Z"/><path class="cls-6" d="M146.6,69.7h0a12.5,12.5,0,0,1,12.5,12.5v49a12.5,12.5,0,0,1-12.5,12.5h0a12.5,12.5,0,0,1-12.5-12.5v-49A12.5,12.5,0,0,1,146.6,69.7Z"/><path class="cls-6" d="M429.6,69.7h0a12.5,12.5,0,0,1,12.5,12.5v49a12.5,12.5,0,0,1-12.5,12.5h0a12.5,12.5,0,0,1-12.5-12.5v-49A12.5,12.5,0,0,1,429.6,69.7Z"/><path class="cls-7" d="M289.2,240.1a11.8,11.8,0,1,1-11.8-11.8,11.82,11.82,0,0,1,11.8,11.8Z"/><path class="cls-7" d="M339.9,240.1a11.8,11.8,0,1,1-11.8-11.8h0a11.82,11.82,0,0,1,11.8,11.8Z"/><path class="cls-8" d="M390.6,240.1a11.8,11.8,0,1,1-11.8-11.8,11.82,11.82,0,0,1,11.8,11.8Z"/><path class="cls-8" d="M441.2,240.1a11.8,11.8,0,1,1-11.8-11.8,11.82,11.82,0,0,1,11.8,11.8Z"/><path class="cls-7" d="M137.2,299a11.8,11.8,0,1,1-11.8-11.8A11.82,11.82,0,0,1,137.2,299Z"/><path class="cls-7" d="M187.9,299a11.8,11.8,0,1,1-11.8-11.8h0A11.82,11.82,0,0,1,187.9,299Z"/><path class="cls-7" d="M238.6,299a11.8,11.8,0,1,1-11.8-11.8A11.82,11.82,0,0,1,238.6,299Z"/><path class="cls-7" d="M289.2,299a11.8,11.8,0,1,1-11.8-11.8A11.82,11.82,0,0,1,289.2,299Z"/><path class="cls-7" d="M339.9,299a11.8,11.8,0,1,1-11.8-11.8h0A11.82,11.82,0,0,1,339.9,299Z"/><path class="cls-8" d="M390.6,299a11.8,11.8,0,1,1-11.8-11.8A11.82,11.82,0,0,1,390.6,299Z"/><path class="cls-8" d="M441.2,299a11.8,11.8,0,1,1-11.8-11.8A11.82,11.82,0,0,1,441.2,299Z"/><path class="cls-7" d="M137.2,358a11.8,11.8,0,1,1-11.8-11.8A11.82,11.82,0,0,1,137.2,358Z"/><path class="cls-7" d="M187.9,358a11.8,11.8,0,1,1-11.8-11.8h0A11.82,11.82,0,0,1,187.9,358Z"/><path class="cls-7" d="M238.6,358a11.8,11.8,0,1,1-11.8-11.8A11.82,11.82,0,0,1,238.6,358Z"/><path class="cls-7" d="M289.2,358a11.8,11.8,0,1,1-11.8-11.8A11.82,11.82,0,0,1,289.2,358Z"/><path class="cls-7" d="M339.9,358a11.8,11.8,0,1,1-11.8-11.8h0A11.82,11.82,0,0,1,339.9,358Z"/><path class="cls-8" d="M390.6,358a11.8,11.8,0,1,1-11.8-11.8A11.82,11.82,0,0,1,390.6,358Z"/><path class="cls-8" d="M441.2,358a11.8,11.8,0,1,1-11.8-11.8A11.82,11.82,0,0,1,441.2,358Z"/><path class="cls-7" d="M137.2,417a11.8,11.8,0,1,1-11.8-11.8A11.82,11.82,0,0,1,137.2,417Z"/><path class="cls-7" d="M187.9,417a11.8,11.8,0,1,1-11.8-11.8h0A11.82,11.82,0,0,1,187.9,417Z"/><path class="cls-7" d="M238.6,417a11.8,11.8,0,1,1-11.8-11.8A11.82,11.82,0,0,1,238.6,417Z"/><path class="cls-7" d="M289.2,417a11.8,11.8,0,1,1-11.8-11.8A11.82,11.82,0,0,1,289.2,417Z"/><path class="cls-7" d="M339.9,417a11.8,11.8,0,1,1-11.8-11.8h0A11.82,11.82,0,0,1,339.9,417Z"/><path class="cls-8" d="M390.6,417a11.8,11.8,0,1,1-11.8-11.8A11.82,11.82,0,0,1,390.6,417Z"/><path class="cls-4" d="M518.94,512H437.06a36.55,36.55,0,0,1-36.51-36.51V460a36.55,36.55,0,0,1,36.51-36.51h81.88A36.55,36.55,0,0,1,555.45,460v15.49A36.55,36.55,0,0,1,518.94,512Zm-81.88-66.38A14.4,14.4,0,0,0,422.68,460v15.49a14.4,14.4,0,0,0,14.38,14.38h81.88a14.4,14.4,0,0,0,14.38-14.38V460a14.4,14.4,0,0,0-14.38-14.38Z"/><path class="cls-9" d="M518.94,423.53h-11l-11.76,22.13H519A14.4,14.4,0,0,1,533.32,460v15.49a14.4,14.4,0,0,1-14.38,14.39H466.75L455,512h64a36.55,36.55,0,0,0,36.51-36.51V460A36.55,36.55,0,0,0,518.94,423.53Z"/><path class="cls-10" d="M518.22,326.18a40.22,40.22,0,1,0-73.28,22.91,52.78,52.78,0,0,1,9.52,30.15v6.2h47.08v-6.19a54.12,54.12,0,0,1,9.72-30.45A40,40,0,0,0,518.22,326.18Z"/><path class="cls-3" d="M442.5,416.28h70.89a.11.11,0,0,1,.11.11v28.78a25.44,25.44,0,0,1-25.45,25.45H468a25.44,25.44,0,0,1-25.45-25.45h0V416.28Z"/><path class="cls-4" d="M556.38,378.58a58.94,58.94,0,0,1-22.62,4.51H422.24a58.94,58.94,0,0,1-22.62-4.51,3.31,3.31,0,0,0-4.34,1.76,3.38,3.38,0,0,0-.26,1.29A23.42,23.42,0,0,0,416.77,405c1.63.11,3.28.16,4.94.17H534.29c1.66,0,3.31-.06,4.94-.17A23.42,23.42,0,0,0,561,381.63a3.31,3.31,0,0,0-3.3-3.32A3.35,3.35,0,0,0,556.38,378.58Z"/><path class="cls-11" d="M428.21,405.21h99.57a11.06,11.06,0,0,1-11.06,11.06H439.28a11.06,11.06,0,0,1-11.06-11.06h0Z"/><path class="cls-12" d="M475.15,286.06a40.22,40.22,0,0,0-30.21,63,52.78,52.78,0,0,1,9.52,30.15v2l46.75-87.94A40.06,40.06,0,0,0,475.15,286.06Z"/><path class="cls-13" d="M556.38,378.58a58.94,58.94,0,0,1-22.62,4.51H486.33l-11.77,22.12h59.73c1.66,0,3.31-.06,4.94-.17A23.42,23.42,0,0,0,561,381.63a3.31,3.31,0,0,0-3.3-3.32A3.35,3.35,0,0,0,556.38,378.58Z"/><path class="cls-14" d="M513.39,416.28h-21l-29.77,53.77a25.8,25.8,0,0,0,5.33.56h20.1a25.44,25.44,0,0,0,25.45-25.43h0V416.39a.11.11,0,0,0-.11-.11Z"/></g></svg>