<svg id="Contenido" xmlns="http://www.w3.org/2000/svg" xmlns:xlink="http://www.w3.org/1999/xlink" viewBox="0 0 600 600"><defs><style>.cls-1{fill:url(#Degradado_sin_nombre_23);}.cls-2{fill:#d4edfc;}.cls-3{fill:url(#Degradado_sin_nombre_110);}.cls-4{fill:#2dcccd;}.cls-5{fill:#1464a5;}.cls-6{fill:#f1873e;}.cls-7{fill:#f8cd50;}</style><linearGradient id="Degradado_sin_nombre_23" x1="246.14" y1="196.11" x2="399.18" y2="483.95" gradientUnits="userSpaceOnUse"><stop offset="0" stop-color="#192647"/><stop offset="0" stop-color="#192647" stop-opacity="0.5"/><stop offset="1" stop-color="#192647" stop-opacity="0"/></linearGradient><linearGradient id="Degradado_sin_nombre_110" x1="440.21" y1="334.09" x2="198.89" y2="334.09" gradientUnits="userSpaceOnUse"><stop offset="0" stop-color="#043263" stop-opacity="0.1"/><stop offset="1" stop-color="#043263" stop-opacity="0"/></linearGradient></defs><title>values-day</title><path class="cls-1" d="M421.05,320.27c-19.25.35-37.67-5.38-52.43-17.72-28.39-23.72-35.11-65.13-20.34-103.68,6.9-18-8.6-36.62-27.59-33.29a163,163,0,0,0-77.8,284.33C311.26,508.44,415,500.2,473.22,431.56c.65-.76,1.28-1.52,1.91-2.29C511.29,385.06,478.16,319.23,421.05,320.27ZM417.4,422.68A33.59,33.59,0,1,1,451,389.09,33.59,33.59,0,0,1,417.4,422.68Z"/><path class="cls-2" d="M371.05,274.27c-19.25.35-37.67-5.38-52.43-17.72-28.39-23.72-35.11-65.13-20.34-103.68,6.9-18-8.6-36.62-27.59-33.29a163,163,0,0,0-77.8,284.33C261.26,462.44,365,454.2,423.22,385.56c.65-.76,1.28-1.52,1.91-2.29C461.29,339.06,428.16,273.23,371.05,274.27ZM367.4,376.68A33.59,33.59,0,1,1,401,343.09,33.59,33.59,0,0,1,367.4,376.68Z"/><path class="cls-3" d="M371.05,274.27c-19.25.35-37.67-5.38-52.43-17.72a75.61,75.61,0,0,1-22.14-31.3L198.89,408.8c68.31,53.1,167.8,43.42,224.33-23.24.65-.76,1.28-1.52,1.91-2.29C461.29,339.06,428.16,273.23,371.05,274.27ZM367.4,376.68A33.59,33.59,0,1,1,401,343.09,33.59,33.59,0,0,1,367.4,376.68Z"/><circle class="cls-4" cx="208.78" cy="331.48" r="25"/><circle class="cls-5" cx="265.73" cy="378.23" r="25"/><circle class="cls-6" cx="196.21" cy="258.68" r="25"/><circle class="cls-7" cx="234.28" cy="195.76" r="25"/></svg>