<svg xmlns="http://www.w3.org/2000/svg" xmlns:xlink="http://www.w3.org/1999/xlink" viewBox="0 0 600 600"><defs><style>.cls-1{fill:none;}.cls-2{fill:url(#Degradado_sin_nombre_26);}.cls-3{fill:#e8d1c3;}.cls-4{fill:#043263;}.cls-5{fill:#004481;}.cls-6{fill:#f2dad4;}.cls-7{fill:#e5a683;}.cls-8{fill:#c49878;}.cls-9{fill:#1464a5;}.cls-10{fill:#d1b39f;}.cls-11{fill:#f7b27f;}.cls-12{fill:url(#Degradado_sin_nombre_27);}.cls-13{fill:#2dcccd;}.cls-14{fill:#02a5a5;}.cls-15{fill:#facba9;}</style><linearGradient id="Degradado_sin_nombre_26" x1="90.01" y1="-881.6" x2="461.44" y2="-1580.16" gradientTransform="matrix(1, 0, 0, -1, 0, -990)" gradientUnits="userSpaceOnUse"><stop offset="0" stop-color="#192647" stop-opacity="0.5"/><stop offset="1" stop-color="#192647" stop-opacity="0"/></linearGradient><linearGradient id="Degradado_sin_nombre_27" x1="389.18" y1="-1262.92" x2="255.07" y2="-1262.92" gradientTransform="matrix(1, 0, 0, -1, 0, -990)" gradientUnits="userSpaceOnUse"><stop offset="0" stop-color="#d8722c" stop-opacity="0.2"/><stop offset="1" stop-color="#d8722c" stop-opacity="0"/></linearGradient></defs><title>17</title><g id="Cuadrados_Blancos" data-name="Cuadrados Blancos"><rect class="cls-1" width="600" height="600"/></g><g id="Capa_2" data-name="Capa 2"><g id="Contenido"><path class="cls-2" d="M520.79,289.1a7,7,0,0,0-2.49-4.91v-.87a5.81,5.81,0,0,0-4.51-2.45,5.88,5.88,0,0,0-5,2.89v.75a7.08,7.08,0,0,0-2.15,4.92c-.07,3.3-.15,7.8-.2,13.59-.11,11.41-1.73,26.38-2.39,32a.17.17,0,0,1-.33,0c-.24-7.33-1-31.25-2-49.21-.55-10.7-1-18.56-1.24-23.75a8.34,8.34,0,0,0-2.68-5.7c0-.47-.05-.93-.08-1.36a7,7,0,0,0-5.45-3,7.08,7.08,0,0,0-6.25,3.81v1a8.35,8.35,0,0,0-2.27,6c.15,4.83.31,11.21.39,18,.14,11.24-1,32.68-1.44,41.36a.17.17,0,1,1-.34,0c-.14-4.64-.4-13.35-.67-25-.28-12.13-1.19-31.74-1.74-43a9.3,9.3,0,0,0-3-6.39v-1a7.35,7.35,0,0,0-12.73.09v1a9.25,9.25,0,0,0-3,7c.16,12.55.39,33.35.31,37.64L461,320.66a.17.17,0,1,1-.34,0c-.33-4.39-.89-12.79-1.23-23.39-.3-9.56-.71-20.82-1-28.24A8.51,8.51,0,0,0,456,263.4v-.64a7.39,7.39,0,0,0-6-3.58,7.21,7.21,0,0,0-5.88,3,5.68,5.68,0,0,1-.05.9,8.52,8.52,0,0,0-2.79,5.87c-.47,9-1.3,23.25-2,32.84-1.09,14.17-3.57,47.57-4.69,53s-2.56,6.43-3.31,3.38A100.76,100.76,0,0,0,424.36,340a43.51,43.51,0,0,0-2.54-4.39c0-.52.07-1,.11-1.57.82-12.62,1.43-26.51,1.62-41,.08-6.35,0-13.92-.29-22-.72-24-2.56-52.55-3.58-67.31a10.86,10.86,0,0,0-2.67-6.43q-.33-.37-.69-.72c-.14-.14-.3-.26-.45-.39V194.9a8.6,8.6,0,0,0-12-2.27,8.52,8.52,0,0,0-2.7,3v1.14a10.86,10.86,0,0,0-3.29,7.56c-.11,4.75-.22,11.14-.3,19.25v1.6c-.11,13.08-1.54,29.21-2.67,40.09-.05.5-.1,1-.15,1.46s-.09.86-.14,1.28c-.27,2.48-.51,4.59-.69,6.2a.25.25,0,0,1-.19.2h-.08a.25.25,0,0,1-.25-.25c-.31-9.41-1.22-36.6-2.33-61.37v-.06l-.09-2v-.36h0c-.18-4-.37-8-.56-11.71-.84-16.42-1.48-28.49-1.9-36.46a12.86,12.86,0,0,0-4.13-8.74c0-.72-.07-1.43-.11-2.09a10.69,10.69,0,0,0-8.36-4.62,10.9,10.9,0,0,0-9.61,5.85c0,.48.05,1,.07,1.52a12.73,12.73,0,0,0-3.47,9.15c.22,7.41.46,17.2.59,27.62.21,17.25-1.47,50.16-2.21,63.46a.26.26,0,0,1-.52,0c-.22-7.13-.62-20.49-1-38.33-.43-18.61-1.82-48.71-2.67-66a14.3,14.3,0,0,0-4.56-9.79v-1.6a11.29,11.29,0,0,0-19.54.13v1.47a14.3,14.3,0,0,0-4.58,10.67c.24,19.25.61,51.18.48,57.77L328,252.18a.27.27,0,0,1-.53,0c-.51-6.74-1.36-19.63-1.88-35.9-.46-14.67-1.1-32-1.53-43.34a13.18,13.18,0,0,0-3.71-8.65v-1a11.34,11.34,0,0,0-9.23-5.49,11.07,11.07,0,0,0-9,4.54c0,.43-.05.9-.08,1.38a13.15,13.15,0,0,0-4.27,9c-.73,13.84-2,35.67-3.14,50.39-1.67,21.74-5.48,73-7.2,81.37s-3.93,9.88-5.08,5.19a154.57,154.57,0,0,0-10.65-27.9c-5.7-11.26-12.35-17.37-19.7-23.21a12.72,12.72,0,0,0-4.65-2.14l-.14-.13c0-.47-.05-.93-.07-1.36a7,7,0,0,0-5.45-3,7.08,7.08,0,0,0-6.26,3.81v.63a10,10,0,0,0-5,2.56,3.69,3.69,0,0,0-.74,1.27c-.1-2.22-.2-4.31-.29-6.15a9.36,9.36,0,0,0-3-6.39v-1a7.35,7.35,0,0,0-12.73.09v1a9.34,9.34,0,0,0-3,7c.16,12.55.4,33.35.31,37.64l-.56,28.41a.17.17,0,0,1-.34,0c-.33-4.39-.89-12.79-1.22-23.39-.3-9.56-.72-20.82-1-28.24a8.6,8.6,0,0,0-2.42-5.64v-.64a7.35,7.35,0,0,0-6-3.58,7.21,7.21,0,0,0-5.88,3v.9a8.52,8.52,0,0,0-2.79,5.87c-.48,9-1.31,23.25-2,32.84-1.09,14.17-3.58,47.57-4.7,53s-2.56,6.43-3.31,3.38a100,100,0,0,0-7-18.3c-3.71-7.37-8-11.35-12.83-15.16-3.41-2.71-11.76-2.35-14,.24a2.75,2.75,0,0,0-.65,1.86c-.31.11-.61.23-.87.35.2,2.81,2.81,7.45,5.71,15.4l.75-.33c.38,1,.76,2.09,1.14,3.23,4.21,12.56,5.26,20.55,9,36,3.23,13.22,12.94,22.55,22.38,37.33s10.32,31.83,10.32,31.83v1.7l-1.14.23a10.4,10.4,0,0,0-8.25,10.12v19.49a10.36,10.36,0,0,0,10.34,10.38,10.24,10.24,0,0,0,1.92-.18,156.94,156.94,0,0,1,56.27.12A10.37,10.37,0,0,0,266,484.37a10.21,10.21,0,0,0,.18-1.91V463a10.42,10.42,0,0,0-8.2-10.16h-.22a126.88,126.88,0,0,1,4-20.62c2.6-8.31,6-19.2,7.46-31.33.69-5.72,1.44-13.15,2.07-21.65,5.2,7.21,11,14.83,16.66,23.76.5.78,1,1.57,1.45,2.37h0a98,98,0,0,1,7.76,16.53v.06c.22.62.44,1.24.65,1.85a1.46,1.46,0,0,0,.07.19c.2.59.39,1.16.57,1.74l.09.26c.18.56.35,1.11.52,1.66l.09.31c.16.53.32,1.06.47,1.58a1.1,1.1,0,0,0,.1.34c.14.51.28,1,.41,1.51a1.7,1.7,0,0,0,.1.37c.13.49.26,1,.38,1.44a1.4,1.4,0,0,0,.1.39L301,435a1.47,1.47,0,0,0,.1.4c.1.44.2.88.29,1.31l.09.4.27,1.24a.72.72,0,0,0,.08.4c.08.4.16.79.23,1.18a2.7,2.7,0,0,0,.08.39l.21,1.11a.74.74,0,0,0,.07.38l.18,1,.06.38c.05.32.11.64.15.95l.06.38a6.44,6.44,0,0,0,.13.88v.34l.12.81v.33c0,.11.06.49.09.72a1,1,0,0,1,0,.32c0,.1.05.43.07.63a1.63,1.63,0,0,1,0,.32,2,2,0,0,0,.05.51c.05.16,0,.21,0,.31v4.75l-1.74.35A16,16,0,0,0,289,470.28l-.06,29.9a15.88,15.88,0,0,0,15.86,15.92,16.19,16.19,0,0,0,3-.27,241.85,241.85,0,0,1,86.35.19,15.9,15.9,0,0,0,18.6-12.62,16.2,16.2,0,0,0,.28-2.95l.07-29.9A16,16,0,0,0,400.43,455l-.34-.07c.13-1.4.45-4,1-7.25.16-1.09.35-2.26.55-3.48a168,168,0,0,1,4.7-20.91q.75-2.4,1.55-5c.45-1.46.91-3,1.37-4.5l.42-1.45c2-6.75,4-14.22,5.66-22.21,4.5,9.21,11.94,17.38,19.22,28.79,9.44,14.79,10.32,31.83,10.32,31.83v1.7l-1.13.23a10.4,10.4,0,0,0-8.25,10.12l-.05,19.49a10.36,10.36,0,0,0,10.34,10.38,10.24,10.24,0,0,0,1.92-.18,156.94,156.94,0,0,1,56.27.12A10.34,10.34,0,0,0,516,484.36a9.74,9.74,0,0,0,.19-1.94V462.94a10.42,10.42,0,0,0-8.2-10.16h-.22a124.78,124.78,0,0,1,4-20.62c2.59-8.31,6-19.2,7.46-31.33a524.86,524.86,0,0,0,3.48-53.46C523.51,330.87,521.68,302,520.79,289.1Zm-287.18-8.42c.13,11.24-1,32.68-1.44,41.36a.17.17,0,1,1-.34,0c-.15-4.64-.41-13.35-.68-25-.17-7.66-.6-18.3-1-28,.93,2.33,2.11,5.06,3.44,8.29,0,1.1,0,2.19,0,3.3Z"/><path class="cls-3" d="M160.36,397.68s-.88-17-10.32-31.83-19.16-24.11-22.38-37.33c-3.76-15.41-4.81-23.4-9-36s-8.37-17.92-6.09-20.51,10.64-2.95,14-.24c4.78,3.81,9.12,7.79,12.83,15.16a100.28,100.28,0,0,1,6.94,18.19c.75,3,2.19,2.07,3.31-3.38s3.6-38.86,4.69-53c.74-9.59,1.57-23.82,2-32.84a8.56,8.56,0,0,1,8.72-8.11h0a8.58,8.58,0,0,1,8.4,8.24c.28,7.42.69,18.68,1,28.24.34,10.6.9,19,1.23,23.39a.17.17,0,0,0,.34,0l.56-28.41c.09-4.29-.15-25.09-.31-37.64a9.36,9.36,0,0,1,9.25-9.47h.29A9.35,9.35,0,0,1,195,201c.55,11.28,1.46,30.89,1.74,43,.27,11.62.53,20.33.68,25a.17.17,0,1,0,.34,0c.47-8.68,1.57-30.12,1.43-41.36-.08-6.79-.24-13.17-.38-18a8.35,8.35,0,0,1,8.09-8.6h.42a8.36,8.36,0,0,1,8.17,7.91c.28,5.19.7,13,1.24,23.75.92,18,1.72,41.88,2,49.21a.17.17,0,1,0,.34,0c.65-5.57,2.28-20.54,2.38-32,0-5.79.13-10.29.2-13.59a7.1,7.1,0,0,1,7.25-6.94h0a7.1,7.1,0,0,1,7,6.61c.89,12.86,2.73,41.76,2.52,58.2a527.76,527.76,0,0,1-3.49,53.46c-1.46,12.13-4.87,23-7.46,31.33a118.43,118.43,0,0,0-4.07,21.36c.14.46-63,1.49-63,1.49Z"/><path class="cls-4" d="M150.94,429.22a10.33,10.33,0,0,0,12.25,10.2,156.94,156.94,0,0,1,56.27.12,10.35,10.35,0,0,0,12.12-8.22,9.64,9.64,0,0,0,.19-1.93V409.91a10.42,10.42,0,0,0-8.2-10.16,155.88,155.88,0,0,0-64.38-.14A10.41,10.41,0,0,0,151,409.73Z"/><circle class="cls-5" cx="216.57" cy="419.8" r="6.51"/><path class="cls-6" d="M116.74,289.66c2.4-1,7.67-3.43,7.36-4.37a31,31,0,0,0-2.57-7.43,7.56,7.56,0,0,0-7.69-4.45,10.54,10.54,0,0,0-2.8.85C111.24,277.07,113.85,281.71,116.74,289.66Z"/><path class="cls-6" d="M170.76,218.56c.09-.66.25-5.71.38-8.8a7.35,7.35,0,0,0-6-3.58,7.21,7.21,0,0,0-5.88,3c-.16,3-.36,8.35-.36,8.79,0,.72,2.78,2.95,6.21,3C168.77,220.93,170.6,219.73,170.76,218.56Z"/><path class="cls-6" d="M179.49,204.06c0,.77,3.19,2.88,6.84,2.56,3.91-.35,5.78-1.82,5.86-3.09,0-.71,0-6.62-.14-9.92a7.72,7.72,0,0,0-6.18-3.63h0a7.68,7.68,0,0,0-6.55,3.72C179.38,197,179.45,203.58,179.49,204.06Z"/><path class="cls-6" d="M201.08,202.73c.13,3,.32,8.05.36,8.48.07.72,3,2.58,6.37,2.17,3.59-.43,5.27-1.86,5.31-3,0-.67-.16-5.32-.34-8.41a7,7,0,0,0-5.45-3h0A7.08,7.08,0,0,0,201.08,202.73Z"/><path class="cls-7" d="M228.86,227.87a5.87,5.87,0,0,0-5,2.89v7c0,.59,2.34,2.29,5.09,2.15,2.94-.15,4.36-1.23,4.45-2.2v-7.42A5.82,5.82,0,0,0,228.86,227.87Z"/><path class="cls-8" d="M410.92,397.68s-.88-17-10.32-31.83-19.15-24.11-22.38-37.33c-3.76-15.41-4.81-23.4-9-36s-8.36-17.92-6.08-20.51,10.64-2.95,14-.24C382,275.62,386.29,279.6,390,287a99.27,99.27,0,0,1,6.94,18.19c.75,3,2.19,2.07,3.31-3.38s3.61-38.86,4.7-53c.74-9.59,1.57-23.82,2-32.84a8.58,8.58,0,0,1,8.73-8.11h0A8.56,8.56,0,0,1,424.1,216c.28,7.42.7,18.68,1,28.24.33,10.6.89,19,1.23,23.39a.17.17,0,0,0,.34,0l.56-28.41c.08-4.29-.16-25.09-.31-37.64a9.35,9.35,0,0,1,9.23-9.47h.31a9.36,9.36,0,0,1,9.16,8.9c.55,11.28,1.46,30.89,1.74,43,.26,11.62.52,20.33.67,25a.17.17,0,1,0,.34,0c.48-8.68,1.57-30.12,1.44-41.36-.08-6.79-.24-13.17-.39-18a8.37,8.37,0,0,1,8.12-8.6h.39a8.36,8.36,0,0,1,8.18,7.91c.28,5.19.69,13,1.24,23.75.92,18,1.72,41.88,1.95,49.21a.17.17,0,0,0,.34,0c.65-5.57,2.28-20.54,2.38-32,.06-5.79.14-10.29.21-13.59a7.1,7.1,0,0,1,7.25-6.94h0a7.11,7.11,0,0,1,6.95,6.61c.88,12.86,2.72,41.76,2.51,58.2a522,522,0,0,1-3.49,53.46c-1.45,12.13-4.86,23-7.46,31.33a120.19,120.19,0,0,0-4.07,21.36c.15.46-63,1.49-63,1.49Z"/><path class="cls-5" d="M401.5,429.22a10.36,10.36,0,0,0,10.34,10.38,10.24,10.24,0,0,0,1.92-.18,156.94,156.94,0,0,1,56.27.12,10.34,10.34,0,0,0,12.11-8.21,9.74,9.74,0,0,0,.19-1.94l.05-19.48a10.4,10.4,0,0,0-8.21-10.16,155.88,155.88,0,0,0-64.38-.14,10.39,10.39,0,0,0-8.24,10.12Z"/><circle class="cls-9" cx="467.14" cy="419.8" r="6.51"/><path class="cls-9" d="M367.31,289.66c2.39-1,7.66-3.43,7.35-4.37a30.55,30.55,0,0,0-2.56-7.43,7.56,7.56,0,0,0-7.7-4.45,10.36,10.36,0,0,0-2.79.85C361.8,277.07,364.42,281.71,367.31,289.66Z"/><path class="cls-10" d="M421.32,218.56c.09-.66.26-5.71.39-8.8a7.39,7.39,0,0,0-6-3.58,7.24,7.24,0,0,0-5.88,3c-.16,3-.36,8.35-.36,8.79,0,.72,2.79,2.95,6.22,3C419.33,220.93,421.16,219.73,421.32,218.56Z"/><path class="cls-10" d="M430.05,204.06c.06.77,3.2,2.88,6.85,2.56,3.91-.35,5.77-1.82,5.85-3.09.05-.71,0-6.62-.13-9.92a7.72,7.72,0,0,0-6.18-3.63h0a7.68,7.68,0,0,0-6.55,3.72C429.94,197,430,203.58,430.05,204.06Z"/><path class="cls-10" d="M451.64,202.73c.14,3,.32,8.05.36,8.48.07.72,3,2.58,6.38,2.17,3.59-.43,5.27-1.86,5.31-3,0-.67-.16-5.32-.34-8.41a7,7,0,0,0-5.45-3h0A7.1,7.1,0,0,0,451.64,202.73Z"/><path class="cls-10" d="M479.43,227.87a5.85,5.85,0,0,0-5.05,2.89v7c0,.59,2.34,2.29,5.08,2.15,2.94-.15,4.37-1.23,4.45-2.2,0-.57.06-4.81,0-7.42A5.83,5.83,0,0,0,479.43,227.87Z"/><path class="cls-11" d="M269.45,398.72s-1.35-26.16-15.84-48.85-29.39-37-34.34-57.29c-5.77-23.65-7.38-35.91-13.84-55.19s-12.84-27.5-9.34-31.47,16.33-4.52,21.55-.36c7.35,5.84,14,11.95,19.69,23.26A152.89,152.89,0,0,1,248,256.72c1.16,4.69,3.36,3.18,5.08-5.19s5.54-59.63,7.21-81.37c1.13-14.72,2.41-36.55,3.14-50.39a13.15,13.15,0,0,1,13.39-12.45h0A13.15,13.15,0,0,1,289.68,120c.43,11.39,1.07,28.67,1.53,43.34.51,16.27,1.37,29.16,1.88,35.9a.26.26,0,0,0,.52,0l.86-43.59c.13-6.59-.23-38.52-.47-57.77a14.35,14.35,0,0,1,14.17-14.53h.47A14.34,14.34,0,0,1,322.7,96.94c.84,17.31,2.24,47.41,2.66,66,.41,17.84.81,31.2,1,38.33a.26.26,0,0,0,.52,0c.73-13.3,2.42-46.21,2.21-63.46-.13-10.42-.37-20.21-.6-27.62A12.82,12.82,0,0,1,340.93,97c.22,0,.45,0,.67,0h0a12.82,12.82,0,0,1,12.54,12.13c.43,8,1.06,20,1.9,36.46,1.41,27.56,2.64,64.26,3,75.51a.26.26,0,1,0,.52,0c1-8.55,3.5-31.52,3.66-49,.08-8.89.2-15.79.32-20.85a10.9,10.9,0,0,1,11.12-10.66h0a10.9,10.9,0,0,1,10.66,10.15c1.36,19.74,4.18,64.09,3.86,89.31a802.57,802.57,0,0,1-5.35,82c-2.23,18.62-7.46,35.32-11.45,48.08s-6.47,32.08-6.25,32.78-96.65,2.29-96.65,2.29Z"/><path class="cls-12" d="M374.66,140.6h0a10.9,10.9,0,0,0-11.12,10.66c-.12,5.06-.24,12-.32,20.85-.16,17.51-2.66,40.48-3.66,49a.26.26,0,1,1-.52,0c-.31-9.71-1.27-38.4-2.43-63.8L255.07,352.24c13.12,22.1,14.38,46.48,14.38,46.48v6.53s96.87-1.59,96.65-2.29,2.27-20,6.25-32.78,9.22-29.46,11.45-48.08a802.57,802.57,0,0,0,5.35-82c.32-25.22-2.5-69.57-3.86-89.31A10.9,10.9,0,0,0,374.66,140.6Z"/><path class="cls-13" d="M255,447.11A15.89,15.89,0,0,0,270.86,463a16.08,16.08,0,0,0,2.94-.27,241.91,241.91,0,0,1,86.36.19A15.91,15.91,0,0,0,379,447.38l.07-29.9a16,16,0,0,0-12.59-15.59,239.56,239.56,0,0,0-98.8-.22A16,16,0,0,0,255,417.21Z"/><circle class="cls-14" cx="355.72" cy="432.65" r="10"/><path class="cls-15" d="M202.52,232.94c3.68-1.58,11.77-5.26,11.28-6.71-.62-1.86-.82-5.18-3.93-11.39s-8.7-7.25-11.81-6.84a16.51,16.51,0,0,0-4.29,1.31C194.07,213.63,198.08,220.75,202.52,232.94Z"/><path class="cls-15" d="M285.41,123.83c.14-1,.4-8.77.59-13.51a11.31,11.31,0,0,0-9.22-5.49,11.11,11.11,0,0,0-9,4.54c-.24,4.61-.55,12.83-.55,13.49,0,1.11,4.27,4.53,9.53,4.57C282.36,127.47,285.17,125.62,285.41,123.83Z"/><path class="cls-15" d="M298.81,101.58c.08,1.18,4.9,4.42,10.51,3.92,6-.52,8.86-2.78,9-4.73.07-1.09-.06-10.17-.21-15.22a11.81,11.81,0,0,0-9.5-5.55h0a11.75,11.75,0,0,0-10.05,5.7C298.64,90.7,298.76,100.84,298.81,101.58Z"/><path class="cls-15" d="M331.94,99.54c.21,4.64.49,12.35.56,13,.11,1.1,4.63,4,9.78,3.33,5.51-.67,8.08-2.86,8.15-4.68,0-1-.25-8.16-.52-12.9a10.72,10.72,0,0,0-8.36-4.62h0A10.89,10.89,0,0,0,331.94,99.54Z"/><path class="cls-15" d="M374.59,138.11a9,9,0,0,0-7.75,4.45c0,3.78-.07,10.24,0,10.78,0,.91,3.59,3.52,7.81,3.3,4.51-.23,6.69-1.88,6.83-3.37.07-.88.08-7.38.06-11.4A9,9,0,0,0,374.59,138.11Z"/></g></g></svg>