<?xml version="1.0" encoding="utf-8"?>
<!-- Generator: Adobe Illustrator 23.0.1, SVG Export Plug-In . SVG Version: 6.00 Build 0)  -->
<svg version="1.1" id="Contenido" xmlns="http://www.w3.org/2000/svg" xmlns:xlink="http://www.w3.org/1999/xlink" x="0px" y="0px"
	 viewBox="0 0 600 600" style="enable-background:new 0 0 600 600;" xml:space="preserve">
<style type="text/css">
	.st0{fill:url(#SVGID_1_);}
	.st1{fill:#1464A5;}
	.st2{fill:#49A5E6;}
	.st3{fill-rule:evenodd;clip-rule:evenodd;fill:url(#SVGID_2_);}
	.st4{fill:#07467F;}
	.st5{fill:#39CBCB;}
	.st6{fill:#28AD68;}
	.st7{fill:#FFFFFF;}
	.st8{fill:#043263;}
</style>
<title>GLOMO</title>
<linearGradient id="SVGID_1_" gradientUnits="userSpaceOnUse" x1="276.0376" y1="406.6234" x2="462.8809" y2="55.2272" gradientTransform="matrix(1 0 0 -1 0 602)">
	<stop  offset="0" style="stop-color:#192647"/>
	<stop  offset="0" style="stop-color:#192647;stop-opacity:0.5"/>
	<stop  offset="1" style="stop-color:#192647;stop-opacity:0"/>
</linearGradient>
<path class="st0" d="M587.5,241.5c0-35.9-29.1-65-65-65s-65,29.1-65,65l0,0H195c-12.7,0-23,10.3-23,23l0,0v201h-16.5
	c-1.7,0-3,1.3-3,3v7H144c-1.7,0-3,1.3-3,3v18c0,1.7,1.3,3,3,3h407c1.7,0,3-1.3,3-3v-18c0-1.7-1.3-3-3-3h-8.5v-7c0-1.7-1.3-3-3-3H523
	v-159C558.7,306.2,587.5,277.2,587.5,241.5z"/>
<path class="st1" d="M146.8,191.5h305c12.7,0,23,10.3,23,23v201l0,0h-351l0,0v-201C123.8,201.8,134,191.5,146.8,191.5z"/>
<path class="st2" d="M148.8,206.5h301c5.5,0,10,4.5,10,10v174c0,5.5-4.5,10-10,10h-301c-5.5,0-10-4.5-10-10v-174
	C138.8,211,143.2,206.5,148.8,206.5z"/>
<linearGradient id="SVGID_2_" gradientUnits="userSpaceOnUse" x1="179.3789" y1="349.658" x2="329.2589" y2="269.968" gradientTransform="matrix(1 0 0 -1 0 602)">
	<stop  offset="1.000000e-02" style="stop-color:#EAF9FA;stop-opacity:0.5"/>
	<stop  offset="1" style="stop-color:#E9F8F9;stop-opacity:0.1"/>
</linearGradient>
<path class="st3" d="M148.8,400.5H301l103.9-194H148.8c-5.5,0-10,4.5-10,10v174C138.8,396,143.2,400.5,148.8,400.5z"/>
<circle class="st4" cx="299.2" cy="283.5" r="40"/>
<path class="st5" d="M312.7,277.4h-0.4v-6c0-7.1-5.7-12.8-12.8-12.8s-12.8,5.7-12.8,12.8c0,0,0,0,0,0v6h-0.1c-1.3,0-2.4,1.1-2.4,2.4
	v9.5c0,8.3,6.7,15.1,15,15.1c0,0,0,0,0,0l0,0c8.3,0,15-6.8,15-15.1c0,0,0,0,0,0V279C314.3,278.1,313.6,277.4,312.7,277.4z
	 M302.4,292.5c0.1,1.7-1.2,3.2-2.9,3.3c-1.7,0.1-3.2-1.2-3.3-2.9c0-0.1,0-0.2,0-0.4v-1.9c0-2,1.1-3.7,2.5-3.9
	c-1.3-0.3-2.1-1.6-1.8-2.9s1.6-2.1,2.9-1.8s2.1,1.6,1.8,2.9c-0.2,0.9-0.9,1.6-1.8,1.8c1.4,0.1,2.5,1.9,2.5,3.9L302.4,292.5z
	 M307.9,277.4h-16.8v-6c0-4.6,3.8-8.4,8.4-8.4s8.4,3.8,8.4,8.4c0,0,0,0,0,0V277.4z"/>
<path class="st6" d="M539.2,191.5c0,35.9-29.1,65-65,65s-65-29.1-65-65s29.1-65,65-65S539.2,155.6,539.2,191.5"/>
<g>
	<path class="st7" d="M460.8,219.9C460.8,219.9,460.8,219.9,460.8,219.9c-1.3,0-2.6-0.5-3.5-1.5l-20-20c-2-2-1.9-5.1,0-7.1
		c2-2,5.1-1.9,7.1,0l16.5,16.5l43.3-43.3c2-1.9,5.1-1.9,7.1,0c2,2,1.9,5.1,0,7.1l-46.9,46.8C463.4,219.4,462.1,219.9,460.8,219.9z"
		/>
</g>
<path class="st1" d="M95.8,425.5h407c1.7,0,3,1.3,3,3v18c0,1.7-1.3,3-3,3h-407c-1.7,0-3-1.3-3-3v-18
	C92.8,426.8,94.1,425.5,95.8,425.5z"/>
<path class="st8" d="M107.2,415.5h384c1.7,0,3,1.3,3,3v7l0,0h-390l0,0v-7C104.2,416.8,105.6,415.5,107.2,415.5z"/>
<path class="st7" d="M316.9,342.8l-6.9,13.1c-0.1,0.2-0.4,0.3-0.6,0.2c-0.1,0-0.1-0.1-0.2-0.2l-6.9-13.1c-0.1-0.1-0.2-0.2-0.4-0.2
	h-3.3c-0.2,0-0.3,0.1-0.3,0.3c0,0,0,0.1,0,0.1l10.8,20.3c0.1,0.2,0.4,0.3,0.5,0.2c0.1,0,0.1-0.1,0.2-0.2l10.8-20.3
	c0.1-0.1,0-0.3-0.1-0.4c0,0-0.1,0-0.2,0h-3.3C317.1,342.6,316.9,342.6,316.9,342.8"/>
<path class="st7" d="M320.8,360.2l6.9-13.1c0.1-0.2,0.4-0.3,0.6-0.2c0.1,0,0.1,0.1,0.2,0.2l6.9,13.1c0.1,0.1,0.2,0.2,0.4,0.2h3.4
	c0.2,0,0.3-0.1,0.3-0.3c0-0.1,0-0.1,0-0.2l-10.8-20.3c-0.1-0.2-0.4-0.3-0.5-0.2c-0.1,0-0.1,0.1-0.2,0.2L316.8,360
	c-0.1,0.1,0,0.3,0.1,0.4c0,0,0.1,0,0.1,0h3.3C320.6,360.4,320.7,360.4,320.8,360.2"/>
<path class="st7" d="M269.3,360.5h-6.2c-0.2,0-0.4-0.2-0.4-0.4v-5.6c0-0.2,0.2-0.4,0.4-0.4h6.2c3,0,4.3,0.8,4.3,3.2
	S272.3,360.5,269.3,360.5 M263.1,345.6h6.1c2.2,0,3.4,1,3.4,2.7s-1.1,2.8-3.4,2.8h-6.1c-0.2,0-0.4-0.2-0.4-0.4V346
	C262.7,345.8,262.9,345.6,263.1,345.6 M273.8,352.2c1.5-0.8,2.4-2.5,2.3-4.2c0-3.3-2.5-5.5-6.1-5.5h-10.3c-0.2,0-0.4,0.2-0.4,0.4
	v20.2c0,0.2,0.2,0.4,0.4,0.4h9.9c4.9,0,7.5-2.1,7.5-6.3C277.2,355,275.8,353,273.8,352.2"/>
<path class="st7" d="M290.5,360.5h-6.2c-0.2,0-0.4-0.2-0.4-0.4v-5.6c0-0.2,0.2-0.4,0.4-0.4h6.2c3,0,4.3,0.8,4.3,3.2
	S293.5,360.5,290.5,360.5 M284.3,345.6h6.1c2.2,0,3.4,1,3.4,2.7s-1.1,2.8-3.4,2.8h-6.1c-0.2,0-0.4-0.2-0.4-0.4V346
	C283.9,345.8,284,345.6,284.3,345.6 M294.9,352.2c1.5-0.8,2.4-2.5,2.3-4.2c0-3.3-2.5-5.5-6.1-5.5h-10.3c-0.2,0-0.4,0.2-0.4,0.4v20.1
	c0,0.2,0.2,0.4,0.4,0.4h9.9c4.9,0,7.5-2.1,7.5-6.3C298.3,355,297,353,294.9,352.2"/>
</svg>
