<svg xmlns="http://www.w3.org/2000/svg" xmlns:xlink="http://www.w3.org/1999/xlink" viewBox="0 0 600 600"><defs><style>.cls-1{fill:none;}.cls-2{fill:url(#Degradado_sin_nombre_498);}.cls-3{fill:#043263;}.cls-4{fill:#004481;}.cls-5{fill:#49a5e6;}.cls-6{fill:url(#Degradado_sin_nombre_114);}.cls-7{fill:#d4edfc;}.cls-8{fill:#2dcccd;}</style><linearGradient id="Degradado_sin_nombre_498" x1="253.81" y1="-842.62" x2="436.66" y2="-1186.51" gradientTransform="matrix(1, 0, 0, -1, 0, -650)" gradientUnits="userSpaceOnUse"><stop offset="0" stop-color="#192647" stop-opacity="0.5"/><stop offset="1" stop-color="#192647" stop-opacity="0"/></linearGradient><linearGradient id="Degradado_sin_nombre_114" x1="418" y1="-965.94" x2="212.39" y2="-965.94" gradientTransform="matrix(1, 0, 0, -1, 0, -650)" gradientUnits="userSpaceOnUse"><stop offset="0" stop-color="#072146" stop-opacity="0.8"/><stop offset="1" stop-color="#072146" stop-opacity="0"/></linearGradient></defs><title>11</title><g id="Cuadrados_Blancos" data-name="Cuadrados Blancos"><rect class="cls-1" width="600" height="600"/></g><g id="Capa_63" data-name="Capa 63"><path class="cls-2" d="M462,210.56a21,21,0,0,0-1.57-1.56c-.27-.25-.55-.49-.83-.73a23.3,23.3,0,0,0-4.66-3c-.33-.16-.67-.32-1-.46-.69-.29-1.39-.55-2.11-.78-.43-.13-.86-.24-1.3-.35a20.48,20.48,0,0,0-15.12-16.94c-1.78-10.61-11.26-17.29-22.7-15.27L235,202.83a3.58,3.58,0,0,0-1.09.4h0A3,3,0,0,0,232,206V526a3,3,0,0,0,3,3H445a23.3,23.3,0,0,0,6.84-1c.72-.23,1.42-.49,2.11-.78.35-.14.69-.3,1-.46a22.6,22.6,0,0,0,4.66-3l.83-.72a21,21,0,0,0,1.57-1.56A22.9,22.9,0,0,0,468,506V226A22.88,22.88,0,0,0,462,210.56Zm-12.74-7.13h0Zm-1.28-.21h0Zm-1.33-.13h0Z"/><path class="cls-3" d="M185,152.94H385.72V140.36c0-12.7-10.29-21.19-23-19L185,152.75a3.36,3.36,0,0,0-1.09.41A3,3,0,0,1,185,152.94Z"/><path class="cls-4" d="M185,152.94H395a23,23,0,0,1,23,23v280a23,23,0,0,1-23,23H185a3,3,0,0,1-3-3v-320A3,3,0,0,1,185,152.94Z"/><path class="cls-5" d="M185,152.94H395a23,23,0,0,1,5.54.68A20.71,20.71,0,0,0,377.8,136L185,152.9a3.58,3.58,0,0,0-.45.09A3.44,3.44,0,0,1,185,152.94Z"/><path class="cls-6" d="M395,152.94h-9.27l-173.34,326H395a23,23,0,0,0,23-23v-280A23,23,0,0,0,395,152.94Z"/><rect class="cls-7" x="217.21" y="408.94" width="166" height="20" rx="3"/><path class="cls-8" d="M300,242.94a65,65,0,1,0,65,65h0A65.08,65.08,0,0,0,300,242.94Zm54.76,60H335c-1.08-18-7.93-35-19-47.59A55.14,55.14,0,0,1,354.76,302.94Zm-59.55-44.79v44.79h-20c1.14-17.51,8.45-33.72,20-44.79Zm0,54.79v44.8c-11.55-11.08-18.86-27.28-20-44.8Zm10,44.57V312.94H325c-1.16,17.4-8.38,33.51-19.79,44.57Zm0-54.57V258.38c11.41,11.06,18.63,27.17,19.8,44.56Zm-21.06-47.66c-11,12.63-17.92,29.59-19,47.66H245.24a55.14,55.14,0,0,1,38.91-47.66Zm-38.91,57.66h19.91a80.32,80.32,0,0,0,19,47.67,55.14,55.14,0,0,1-38.91-47.67Zm70.85,47.6c11-12.63,17.87-29.55,19-47.6h19.72a55.12,55.12,0,0,1-38.72,47.6Z"/></g></svg>