<svg xmlns="http://www.w3.org/2000/svg" xmlns:xlink="http://www.w3.org/1999/xlink" viewBox="0 0 600 600"><defs><style>.cls-1{fill:none;}.cls-2{fill:url(#Degradado_sin_nombre_4);}.cls-3{fill:#f8cd50;}.cls-4{fill:#043263;}.cls-5{fill:url(#Degradado_sin_nombre_81);}.cls-6{fill:url(#Degradado_sin_nombre_3);}.cls-7{fill:#fff;}.cls-8{fill:#eaf9fa;}.cls-9{fill:#2dcccd;}</style><linearGradient id="Degradado_sin_nombre_4" x1="219.18" y1="-5736.8" x2="411.62" y2="-6098.72" gradientTransform="matrix(1, 0, 0, -1, 0, -5524)" gradientUnits="userSpaceOnUse"><stop offset="0" stop-color="#192647" stop-opacity="0.5"/><stop offset="1" stop-color="#192647" stop-opacity="0"/></linearGradient><linearGradient id="Degradado_sin_nombre_81" x1="428" y1="-5901" x2="224.6" y2="-5901" gradientTransform="matrix(1, 0, 0, -1, 0, -5524)" gradientUnits="userSpaceOnUse"><stop offset="0" stop-color="#072146"/><stop offset="1" stop-color="#072146" stop-opacity="0"/></linearGradient><linearGradient id="Degradado_sin_nombre_3" x1="210.19" y1="-5681.28" x2="299.05" y2="-5728.53" gradientTransform="matrix(1, 0, 0, -1, 0, -5524)" gradientUnits="userSpaceOnUse"><stop offset="0" stop-color="#fff" stop-opacity="0.4"/><stop offset="1" stop-color="#ecf7f8" stop-opacity="0.1"/></linearGradient></defs><title>15</title><g id="Cuadrados_Blancos" data-name="Cuadrados Blancos"><rect class="cls-1" width="600" height="600"/><rect class="cls-1" width="600" height="600"/></g><g id="Capa_15" data-name="Capa 15"><path class="cls-2" d="M543.19,416.23H478V334a22.93,22.93,0,0,0-6.67-16.19l-.08-.08-.26-.25A23,23,0,0,0,455,311V262a105.09,105.09,0,0,0-62.08-95.77l-.65-.29c-.62-.27-1.23-.54-1.86-.8l-.83-.34-1.71-.69-.92-.34-1.67-.62-.95-.33c-.56-.2-1.13-.39-1.69-.57l-.94-.31c-.59-.19-1.19-.37-1.78-.54l-.87-.26-2-.56-.64-.18c-.91-.23-1.82-.46-2.73-.67h-.06l-2.66-.58-.85-.16-1.89-.35-1-.17-1.74-.28-1.11-.15-1.7-.22-1.14-.13c-.57-.07-1.13-.12-1.69-.17l-1.16-.11-1.74-.12-1.11-.07c-.64,0-1.28-.06-1.93-.08h-3.82A105.1,105.1,0,0,0,245,262v49h-4a23,23,0,0,0-23,23v82.23H156.82a41.44,41.44,0,0,0-1.29,82.87h95a129.54,129.54,0,0,0,82.34,43h0c3.19.37,6.42.62,9.67.75h.71c1.53,0,3.07.09,4.62.09h.2a129.51,129.51,0,0,0,91.37-37.57l.47-.46.43-.44c1.74-1.76,3.44-3.57,5.08-5.43h97.74a41.44,41.44,0,0,0,0-82.87ZM419,262v49H281.05V262A69,69,0,0,1,350,193h0c1.24,0,2.46,0,3.68.1l.94.08c.91.06,1.82.12,2.72.22l.94.12c.9.11,1.8.22,2.7.37l.79.14c.94.16,1.88.34,2.81.54l.61.14c1,.22,2,.47,3,.73l.41.12c1,.29,2.08.61,3.1.95l.24.08c1.08.36,2.14.75,3.2,1.16h.09c1.1.43,2.18.89,3.24,1.37A69,69,0,0,1,419,262Z"/><path class="cls-3" d="M405,212a105,105,0,0,0-210,0v49h36.05V212a69,69,0,0,1,138,0v49h36Z"/><path class="cls-4" d="M191,261H405a23,23,0,0,1,23,23h0v79.1A129.9,129.9,0,0,1,298.1,493h-.21A129.9,129.9,0,0,1,168,363.1V284a23,23,0,0,1,23-23Z"/><path class="cls-5" d="M405,261H339.27L224.6,470.33A129.48,129.48,0,0,0,298,493h0c71.8,0,130-58.11,130-129.8V284a23,23,0,0,0-23-23Z"/><path class="cls-6" d="M300,107A105.1,105.1,0,0,0,195,212v49h36.05V212a68.91,68.91,0,0,1,97.39-62.76l16.95-31.87A104.45,104.45,0,0,0,300,107Z"/><path class="cls-7" d="M297.93,340.48a22.84,22.84,0,1,0-23-22.68v.06a22.85,22.85,0,0,0,23,22.62"/><path class="cls-7" d="M268.52,384.81v-8.38c0-19.24,11.51-36.67,25.58-36.67h7.66c14.07,0,25.58,17.43,25.58,36.67v8.38Z"/><path class="cls-8" d="M534.62,407.67a41.43,41.43,0,0,1-41.43,41.43H106.82a41.45,41.45,0,0,1-41.44-41.43h0a41.44,41.44,0,0,1,41.44-41.44H493.19a41.43,41.43,0,0,1,41.43,41.43Z"/><path class="cls-9" d="M181,406.57a24,24,0,1,1-24-24A24,24,0,0,1,181,406.57Z"/><path class="cls-9" d="M276.92,406.57a24,24,0,1,1-24-24A24,24,0,0,1,276.92,406.57Z"/><path class="cls-9" d="M372.87,406.57a24,24,0,1,1-24-24A24,24,0,0,1,372.87,406.57Z"/><path class="cls-9" d="M468.83,406.57a24,24,0,1,1-24-24A24,24,0,0,1,468.83,406.57Z"/></g></svg>