<svg xmlns="http://www.w3.org/2000/svg" xmlns:xlink="http://www.w3.org/1999/xlink" viewBox="0 0 600 600"><defs><style>.cls-1{fill:none;}.cls-2{fill:url(#Degradado_sin_nombre_76);}.cls-3{fill:#043263;}.cls-4{fill:#49a5e6;}.cls-5{opacity:0.5;isolation:isolate;fill:url(#Degradado_sin_nombre_89);}.cls-6{fill:#1d447d;}.cls-7{fill:#eaf9fa;}</style><linearGradient id="Degradado_sin_nombre_76" x1="247.58" y1="-6154.09" x2="460.72" y2="-6554.96" gradientTransform="matrix(1, 0, 0, -1, 0, -6002)" gradientUnits="userSpaceOnUse"><stop offset="0" stop-color="#192647" stop-opacity="0.5"/><stop offset="1" stop-color="#192647" stop-opacity="0"/></linearGradient><linearGradient id="Degradado_sin_nombre_89" x1="215.96" y1="-6217.76" x2="370.22" y2="-6372.02" gradientTransform="matrix(1, 0, 0, -1, 0, -6002)" gradientUnits="userSpaceOnUse"><stop offset="0" stop-color="#fff" stop-opacity="0.5"/><stop offset="1" stop-color="#ecf7f8" stop-opacity="0"/></linearGradient></defs><title>15</title><g id="Cuadrados_Blancos" data-name="Cuadrados Blancos"><rect class="cls-1" width="600" height="600"/><rect class="cls-1" width="600" height="600"/></g><g id="Capa_16" data-name="Capa 16"><path class="cls-2" d="M261.1,147.85H447.2a22.32,22.32,0,0,1,22.3,22.31V534.89a22.32,22.32,0,0,1-22.3,22.31H261.1a22.32,22.32,0,0,1-22.3-22.31V170.16A22.32,22.32,0,0,1,261.1,147.85Z"/><path class="cls-3" d="M207.5,96.85H392.4A22.13,22.13,0,0,1,414.5,119v362a22.12,22.12,0,0,1-22.1,22.1H207.5a22.12,22.12,0,0,1-22.1-22.1v-362a22.13,22.13,0,0,1,22.06-22.2Z"/><rect class="cls-4" x="185.4" y="147.85" width="229.2" height="304.3"/><polygon class="cls-5" points="185.7 148.05 185.7 451.95 302.5 452.15 414.5 245.15 414.5 147.85 185.7 148.05"/><path class="cls-6" d="M357.28,275H242.72a25,25,0,0,0-25,25h0a25,25,0,0,0,25,25H357.28a25,25,0,0,0,25-25h0A25,25,0,0,0,357.28,275Z"/><polygon class="cls-7" points="262.8 301.89 255.78 301.43 259.79 307.17 256.21 309.31 253.14 302.95 250.13 309.31 246.56 307.17 250.5 301.43 243.48 301.89 243.48 297.9 250.54 298.4 246.56 292.62 250.13 290.48 253.14 296.82 256.17 290.48 259.79 292.62 255.78 298.4 262.8 297.9 262.8 301.89"/><polygon class="cls-7" points="293.77 301.89 286.75 301.43 290.76 307.17 287.18 309.31 284.11 302.95 281.1 309.31 277.52 307.17 281.47 301.43 274.45 301.89 274.45 297.9 281.51 298.4 277.52 292.62 281.1 290.48 284.11 296.82 287.14 290.48 290.76 292.62 286.75 298.4 293.77 297.9 293.77 301.89"/><polygon class="cls-7" points="324.74 301.89 317.71 301.43 321.72 307.17 318.15 309.31 315.07 302.95 312.06 309.31 308.49 307.17 312.44 301.43 305.41 301.89 305.41 297.9 312.48 298.4 308.49 292.62 312.06 290.48 315.07 296.82 318.11 290.48 321.72 292.62 317.71 298.4 324.74 297.9 324.74 301.89"/><polygon class="cls-7" points="355.7 301.89 348.68 301.43 352.69 307.17 349.12 309.31 346.04 302.95 343.03 309.31 339.45 307.17 343.4 301.43 336.38 301.89 336.38 297.9 343.44 298.4 339.45 292.62 343.03 290.48 346.04 296.82 349.07 290.48 352.69 292.62 348.68 298.4 355.7 297.9 355.7 301.89"/></g></svg>