<svg id="Contenido" xmlns="http://www.w3.org/2000/svg" xmlns:xlink="http://www.w3.org/1999/xlink" viewBox="0 0 600 600"><defs><style>.cls-1{fill:url(#Degradado_sin_nombre_7);}.cls-2{fill:#043263;}.cls-3{fill:#1464a5;}.cls-4{fill:#49a5e6;}.cls-5{fill:url(#Degradado_sin_nombre_30);}.cls-6{fill:#d4edfc;}.cls-7{fill:#2dcccd;}</style><linearGradient id="Degradado_sin_nombre_7" x1="253.82" y1="192.63" x2="436.66" y2="536.51" gradientUnits="userSpaceOnUse"><stop offset="0" stop-color="#192647"/><stop offset="0" stop-color="#192647" stop-opacity="0.5"/><stop offset="1" stop-color="#192647" stop-opacity="0"/></linearGradient><linearGradient id="Degradado_sin_nombre_30" x1="418" y1="315.94" x2="212.39" y2="315.94" gradientUnits="userSpaceOnUse"><stop offset="0" stop-color="#043263" stop-opacity="0.4"/><stop offset="1" stop-color="#043263" stop-opacity="0.1"/></linearGradient></defs><title>GLOMO</title><path class="cls-1" d="M462,210.56a21,21,0,0,0-1.57-1.56c-.27-.25-.55-.49-.83-.73a23.09,23.09,0,0,0-4.66-3c-.33-.16-.67-.32-1-.46-.69-.29-1.39-.55-2.11-.78-.43-.13-.86-.24-1.3-.35a20.49,20.49,0,0,0-15.12-16.94c-1.78-10.61-11.26-17.29-22.7-15.27L235,202.83a3.48,3.48,0,0,0-1.09.4h0A3,3,0,0,0,232,206V526a3,3,0,0,0,3,3H445a23.07,23.07,0,0,0,6.84-1c.72-.23,1.42-.49,2.11-.78.35-.14.69-.3,1-.46a22.66,22.66,0,0,0,4.66-3l.83-.72c.55-.5,1.07-1,1.57-1.56A22.94,22.94,0,0,0,468,506V226A22.91,22.91,0,0,0,462,210.56Zm-227.48-7.49Zm214.74.36-.23,0Zm-1.28-.21-.33,0Zm-1.33-.13-.35,0Z"/><path class="cls-2" d="M185,152.94H385.72V140.36c0-12.7-10.29-21.19-23-19L185,152.75a3.27,3.27,0,0,0-1.09.41A2.83,2.83,0,0,1,185,152.94Z"/><path class="cls-3" d="M185,152.94H395a23,23,0,0,1,23,23v280a23,23,0,0,1-23,23H185a3,3,0,0,1-3-3v-320A3,3,0,0,1,185,152.94Z"/><path class="cls-4" d="M185,152.94H395a23,23,0,0,1,5.54.68C398.89,142.69,389.34,135,377.8,136L185,152.9a3.58,3.58,0,0,0-.45.09A3.44,3.44,0,0,1,185,152.94Z"/><path class="cls-5" d="M395,152.94h-9.27l-173.34,326H395a23,23,0,0,0,23-23v-280A23,23,0,0,0,395,152.94Z"/><rect class="cls-6" x="217.21" y="408.94" width="166" height="20" rx="3"/><path class="cls-7" d="M300,242.94a65,65,0,1,0,65,65A65.08,65.08,0,0,0,300,242.94Zm54.76,60H335c-1.08-18-7.93-35-19-47.59A55.12,55.12,0,0,1,354.76,302.94Zm-59.55-44.79v44.79h-20C276.35,285.43,283.66,269.22,295.21,258.15Zm0,54.79v44.8c-11.55-11.08-18.86-27.28-20-44.8Zm10,44.57V312.94H325C323.84,330.34,316.62,346.45,305.21,357.51Zm0-54.57V258.38c11.41,11.06,18.63,27.17,19.8,44.56Zm-21.06-47.66c-11,12.63-17.92,29.59-19,47.66H245.24A55.14,55.14,0,0,1,284.15,255.28Zm-38.91,57.66h19.91c1.08,18.08,8,35,19,47.67A55.14,55.14,0,0,1,245.24,312.94Zm70.85,47.6c11-12.63,17.87-29.55,19-47.6h19.72A55.13,55.13,0,0,1,316.09,360.54Z"/></svg>