<svg id="Contenido" xmlns="http://www.w3.org/2000/svg" xmlns:xlink="http://www.w3.org/1999/xlink" viewBox="0 0 600 600"><defs><style>.cls-1{fill:url(#Degradado_sin_nombre_44);}.cls-2{fill:#1464a5;}.cls-3{fill:#49a5e6;}.cls-4{fill-rule:evenodd;opacity:0.5;fill:url(#Degradado_sin_nombre_50);}.cls-5{fill:#1d447d;}.cls-6{fill:#eaf9fa;}</style><linearGradient id="Degradado_sin_nombre_44" x1="245.59" y1="153.47" x2="454.58" y2="546.53" gradientUnits="userSpaceOnUse"><stop offset="0" stop-color="#192647" stop-opacity="0.5"/><stop offset="1" stop-color="#192647" stop-opacity="0"/></linearGradient><linearGradient id="Degradado_sin_nombre_50" x1="212.54" y1="212.54" x2="350.91" y2="350.91" gradientUnits="userSpaceOnUse"><stop offset="0" stop-color="#fff" stop-opacity="0.5"/><stop offset="1" stop-color="#edf6f7" stop-opacity="0.1"/></linearGradient></defs><title>GLOMO</title><rect class="cls-1" x="236.92" y="149.35" width="226.32" height="401.3" rx="21.87"/><rect class="cls-2" x="187" y="100" width="226" height="400" rx="21.85"/><rect class="cls-3" x="187" y="150.24" width="226" height="299.53"/><polygon class="cls-4" points="187 150.24 187 449.76 264.93 449.76 413 176.84 413 150.24 187 150.24"/><path class="cls-5" d="M357.28,275H242.72a25,25,0,0,0-25,25h0a25,25,0,0,0,25,25H357.28a25,25,0,0,0,25-25h0A25,25,0,0,0,357.28,275Z"/><polygon class="cls-6" points="262.8 301.89 255.78 301.43 259.79 307.17 256.21 309.31 253.14 302.95 250.13 309.31 246.56 307.17 250.5 301.43 243.48 301.89 243.48 297.9 250.54 298.4 246.56 292.62 250.13 290.48 253.14 296.82 256.17 290.48 259.79 292.62 255.78 298.4 262.8 297.9 262.8 301.89"/><polygon class="cls-6" points="293.77 301.89 286.75 301.43 290.76 307.17 287.18 309.31 284.11 302.95 281.1 309.31 277.52 307.17 281.47 301.43 274.45 301.89 274.45 297.9 281.51 298.4 277.52 292.62 281.1 290.48 284.11 296.82 287.14 290.48 290.76 292.62 286.75 298.4 293.77 297.9 293.77 301.89"/><polygon class="cls-6" points="324.74 301.89 317.71 301.43 321.72 307.17 318.15 309.31 315.07 302.95 312.06 309.31 308.49 307.17 312.44 301.43 305.41 301.89 305.41 297.9 312.48 298.4 308.49 292.62 312.06 290.48 315.07 296.82 318.11 290.48 321.72 292.62 317.71 298.4 324.74 297.9 324.74 301.89"/><polygon class="cls-6" points="355.7 301.89 348.68 301.43 352.69 307.17 349.12 309.31 346.04 302.95 343.03 309.31 339.45 307.17 343.4 301.43 336.38 301.89 336.38 297.9 343.44 298.4 339.45 292.62 343.03 290.48 346.04 296.82 349.07 290.48 352.69 292.62 348.68 298.4 355.7 297.9 355.7 301.89"/></svg>