<svg xmlns="http://www.w3.org/2000/svg" xmlns:xlink="http://www.w3.org/1999/xlink" viewBox="0 0 600 600"><defs><style>.cls-1{fill:none;}.cls-2{fill:url(#Degradado_sin_nombre_50);}.cls-3{fill:#043263;}.cls-4{fill:#49a5e6;}.cls-5{fill:#072146;}.cls-6{fill:#5ac4c4;}.cls-11,.cls-7{opacity:0.5;isolation:isolate;}.cls-7{fill:url(#Degradado_sin_nombre_2);}.cls-8{fill:#07467f;}.cls-9{fill:#39cbcb;}.cls-10{fill:#fff;}.cls-11{fill:url(#Degradado_sin_nombre_5);}</style><linearGradient id="Degradado_sin_nombre_50" x1="236.86" y1="-3308.76" x2="432.85" y2="-3677.36" gradientTransform="matrix(1, 0, 0, -1, 0, -3126)" gradientUnits="userSpaceOnUse"><stop offset="0" stop-color="#192647" stop-opacity="0.5"/><stop offset="1" stop-color="#192647" stop-opacity="0"/></linearGradient><linearGradient id="Degradado_sin_nombre_2" x1="184.32" y1="233.43" x2="325.66" y2="308.57" gradientUnits="userSpaceOnUse"><stop offset="0" stop-color="#eaf9fa"/><stop offset="1" stop-color="#eaf9fa" stop-opacity="0.2"/><stop offset="1" stop-color="#eaf9fa" stop-opacity="0.5"/></linearGradient><linearGradient id="Degradado_sin_nombre_5" x1="389.59" y1="-3038.36" x2="468.1" y2="-3116.87" gradientTransform="matrix(1, 0, 0, -1, 0, -2726)" gradientUnits="userSpaceOnUse"><stop offset="0" stop-color="#fff" stop-opacity="0.5"/><stop offset="1" stop-color="#ecf7f8" stop-opacity="0.1"/></linearGradient></defs><title>5</title><g id="Cuadrados_blancos" data-name="Cuadrados blancos"><rect class="cls-1" width="600" height="600"/></g><g id="Capa_3" data-name="Capa 3"><path class="cls-2" d="M517.24,297.12H499.56V228.55a16.84,16.84,0,0,0-16.87-16.85h-296a16.89,16.89,0,0,0-16.87,16.85h0V418.67a16,16,0,0,0,.54,4.15H153.17A2.19,2.19,0,0,0,151,425h0v7.84h-8.85A2.19,2.19,0,0,0,140,435v17.57a2.19,2.19,0,0,0,2.16,2.16h277v30.64A18.7,18.7,0,0,0,437.86,504h79.38A18.78,18.78,0,0,0,536,485.35h0V315.77a18.78,18.78,0,0,0-18.76-18.65Z"/><path class="cls-3" d="M149.12,175.78h296.3a16.88,16.88,0,0,1,16.87,16.87h0V398.82h-330V192.65A16.87,16.87,0,0,1,149.12,175.78Z"/><path class="cls-4" d="M154,190.45h286a7.36,7.36,0,0,1,7.34,7.34V365a7.36,7.36,0,0,1-7.34,7.33H154A7.35,7.35,0,0,1,146.7,365V197.79A7.36,7.36,0,0,1,154,190.45Z"/><path class="cls-3" d="M104.6,397.28H488.4a2.16,2.16,0,0,1,2.2,2.2v17.6a2.17,2.17,0,0,1-2.2,2.2H104.6a2.16,2.16,0,0,1-2.2-2.2v-17.6A2.2,2.2,0,0,1,104.6,397.28Z"/><path class="cls-5" d="M480.84,397.28H113.4v-7.85a2.16,2.16,0,0,1,2.2-2.2h363a2.16,2.16,0,0,1,2.2,2.2Z"/><path class="cls-6" d="M322.13,404.61h-47.6a7.35,7.35,0,0,1-7.33-7.33h62.26A7.4,7.4,0,0,1,322.13,404.61Z"/><path class="cls-7" d="M154,372.34H299.25l97.62-181.89H154a7.36,7.36,0,0,0-7.33,7.34V365A7.35,7.35,0,0,0,154,372.34Z"/><path class="cls-3" d="M394.56,251.89h75.32a20.74,20.74,0,0,1,20.75,20.72V438.22A20.74,20.74,0,0,1,469.88,459H394.56a20.74,20.74,0,0,1-20.75-20.73V272.61A20.68,20.68,0,0,1,394.56,251.89Z"/><rect class="cls-4" x="373.81" y="277.75" width="116.82" height="155.25"/><circle class="cls-8" cx="299.86" cy="261.84" r="37.66"/><path class="cls-9" d="M312.57,256.1h-.38v-5.65a12,12,0,0,0-24.1,0h0v5.65H288a2.29,2.29,0,0,0-2.26,2.26v8.95a14.18,14.18,0,0,0,14.12,14.21h0A14.18,14.18,0,0,0,314,267.31h0v-9.7A1.36,1.36,0,0,0,312.57,256.1Zm-9.7,14.22a2.93,2.93,0,1,1-5.84.37v-2.16c0-1.88,1-3.48,2.36-3.67a2.27,2.27,0,1,1,2.73-1.7,2.24,2.24,0,0,1-1.7,1.7c1.32.09,2.36,1.79,2.36,3.67Zm5.18-14.22H292.23v-5.65a7.91,7.91,0,0,1,15.82,0h0Z"/><path class="cls-10" d="M316.52,317.68,310,330a.46.46,0,0,1-.57.19c-.09,0-.09-.1-.19-.19l-6.49-12.33a.49.49,0,0,0-.38-.19h-3.11a.25.25,0,0,0-.28.28v.09L309.18,337c.09.18.38.28.47.18s.09-.09.19-.18L320,317.86c.09-.09,0-.28-.1-.37h-3.29c.09,0-.1,0-.1.19"/><path class="cls-10" d="M320.2,334.06l6.49-12.34a.46.46,0,0,1,.57-.18c.09,0,.09.09.18.18l6.5,12.34a.52.52,0,0,0,.38.19h3.2c.19,0,.28-.1.28-.29v-.18l-10.17-19.12c-.09-.19-.37-.28-.47-.19s-.09.1-.19.19l-10.54,19.21c-.09.09,0,.28.09.38h3.2c.29,0,.38,0,.48-.19"/><path class="cls-10" d="M271.71,334.34h-5.84a.41.41,0,0,1-.38-.38v-5.27a.41.41,0,0,1,.38-.38h5.84c2.82,0,4.05.76,4.05,3s-1.23,3-4.05,3m-5.84-14h5.74c2.08,0,3.2.94,3.2,2.54s-1,2.64-3.2,2.64h-5.74a.41.41,0,0,1-.38-.38v-4.42a.41.41,0,0,1,.38-.38m10.07,6.22a4.26,4.26,0,0,0,2.17-4c0-3.11-2.35-5.18-5.74-5.18h-9.7a.41.41,0,0,0-.38.38v19a.4.4,0,0,0,.38.37H272c4.61,0,7.06-2,7.06-5.93a4.88,4.88,0,0,0-3.11-4.7"/><path class="cls-10" d="M291.67,334.34h-5.84a.41.41,0,0,1-.38-.38v-5.27a.41.41,0,0,1,.38-.38h5.84c2.82,0,4.05.76,4.05,3s-1.23,3-4.05,3m-5.84-14h5.74c2.07,0,3.2.94,3.2,2.54s-1,2.64-3.2,2.64h-5.74a.41.41,0,0,1-.38-.38v-4.42a.35.35,0,0,1,.38-.38m10,6.22a4.28,4.28,0,0,0,2.17-4c0-3.11-2.36-5.18-5.75-5.18h-9.69a.41.41,0,0,0-.38.38v18.92a.41.41,0,0,0,.38.38h9.32c4.61,0,7.06-2,7.06-5.93a4.74,4.74,0,0,0-3.11-4.61"/><polygon class="cls-11" points="374 278.1 374 432.5 433.67 432.6 490.96 327.45 490.96 278 374 278.1"/><path class="cls-10" d="M447.58,392.19l-5.94,11.31a.36.36,0,0,1-.49.14.32.32,0,0,1-.14-.14l-5.94-11.31a.35.35,0,0,0-.31-.18h-2.87a.26.26,0,0,0-.23.38L441,409.91a.35.35,0,0,0,.48.13.33.33,0,0,0,.13-.13L451,392.39a.25.25,0,0,0-.11-.35.27.27,0,0,0-.12,0h-2.88a.35.35,0,0,0-.3.18"/><path class="cls-10" d="M451,407.28,457,396a.36.36,0,0,1,.49-.13.33.33,0,0,1,.13.13l5.95,11.31a.32.32,0,0,0,.3.19h2.87a.26.26,0,0,0,.23-.38l-9.36-17.52a.34.34,0,0,0-.46-.15.31.31,0,0,0-.15.15l-9.36,17.52a.25.25,0,0,0,.11.35l.12,0h2.88a.32.32,0,0,0,.3-.19"/><path class="cls-10" d="M406.51,407.47h-5.36a.35.35,0,0,1-.34-.35v-4.8a.34.34,0,0,1,.34-.34h5.36c2.55,0,3.69.72,3.69,2.74s-1.11,2.75-3.69,2.75m-5.36-12.85h5.29c1.94,0,2.93.83,2.93,2.37s-1,2.37-2.93,2.37h-5.29a.35.35,0,0,1-.34-.35v-4a.35.35,0,0,1,.34-.35m9.2,5.73a3.89,3.89,0,0,0,2-3.62c0-2.81-2.19-4.72-5.29-4.72h-8.91a.34.34,0,0,0-.34.34v17.39a.35.35,0,0,0,.34.35h8.52c4.26,0,6.51-1.83,6.51-5.43a4.29,4.29,0,0,0-2.84-4.31"/><path class="cls-10" d="M424.78,407.47h-5.36a.35.35,0,0,1-.34-.35v-4.8a.34.34,0,0,1,.34-.34h5.36c2.55,0,3.69.72,3.69,2.74s-1.11,2.75-3.69,2.75m-5.35-12.85h5.28c1.94,0,2.94.83,2.94,2.37s-1,2.37-2.94,2.37h-5.28a.35.35,0,0,1-.35-.35h0v-4a.35.35,0,0,1,.35-.35h0m9.19,5.73a3.89,3.89,0,0,0,2-3.62c0-2.81-2.2-4.72-5.3-4.72h-8.91a.34.34,0,0,0-.34.34v17.39a.35.35,0,0,0,.34.35H425c4.26,0,6.51-1.83,6.51-5.43a4.29,4.29,0,0,0-2.84-4.31"/><circle class="cls-8" cx="432.14" cy="348.46" r="29.24" transform="translate(53.92 754.81) rotate(-85.93)"/><path class="cls-9" d="M442,344h-.28v-4.4A9.35,9.35,0,1,0,423,339c0,.2,0,.41,0,.61V344H423a1.77,1.77,0,0,0-1.76,1.78h0v6.94a11,11,0,0,0,10.93,11.07h.07a11,11,0,0,0,11-11v-7.64a1.14,1.14,0,0,0-1.15-1.15Zm-7.54,11a2.26,2.26,0,1,1-4.51.3,1.5,1.5,0,0,1,0-.3v-1.38c0-1.43.81-2.73,1.83-2.82a1.76,1.76,0,1,1,.83,0c1,.09,1.83,1.39,1.83,2.82Zm4-11H426.21v-4.4a6.14,6.14,0,0,1,12.27-.5,4.17,4.17,0,0,1,0,.5Z"/></g></svg>