<svg id="Contenido" xmlns="http://www.w3.org/2000/svg" xmlns:xlink="http://www.w3.org/1999/xlink" viewBox="0 0 600 600"><defs><style>.cls-1{fill:url(#Degradado_sin_nombre_28);}.cls-2{fill:#f8cd50;}.cls-3{fill:#1464a5;}.cls-4{fill:url(#Degradado_sin_nombre_35);}.cls-5{fill:url(#Degradado_sin_nombre_6);}.cls-6{fill:#fff;fill-rule:evenodd;}.cls-7{fill:#da3951;}.cls-8{fill:#f6e0e0;}</style><linearGradient id="Degradado_sin_nombre_28" x1="219.6" y1="212.42" x2="412.04" y2="574.34" gradientUnits="userSpaceOnUse"><stop offset="0" stop-color="#192647" stop-opacity="0.5"/><stop offset="1" stop-color="#192647" stop-opacity="0"/></linearGradient><linearGradient id="Degradado_sin_nombre_35" x1="428" y1="377" x2="224.6" y2="377" gradientUnits="userSpaceOnUse"><stop offset="0" stop-color="#043263" stop-opacity="0.5"/><stop offset="1" stop-color="#043263" stop-opacity="0"/></linearGradient><linearGradient id="Degradado_sin_nombre_6" x1="210.19" y1="157.26" x2="299.03" y2="204.5" gradientUnits="userSpaceOnUse"><stop offset="0" stop-color="#fff" stop-opacity="0.4"/><stop offset="1" stop-color="#ecf7f8" stop-opacity="0.1"/></linearGradient></defs><title>GLOMO</title><path class="cls-1" d="M543.19,416.23H478c0-1,0-2,0-3V334a22.94,22.94,0,0,0-6.67-16.19l-.08-.08-.26-.25A23,23,0,0,0,455,311L455,262a105.09,105.09,0,0,0-62.08-95.77l-.65-.29c-.62-.27-1.23-.54-1.86-.8l-.83-.34-1.71-.69-.92-.34-1.67-.62-.95-.33c-.56-.2-1.13-.39-1.69-.57l-.94-.31c-.59-.19-1.19-.37-1.78-.54l-.87-.26c-.68-.2-1.36-.38-2-.56l-.64-.18c-.91-.23-1.82-.46-2.73-.67h-.06l-2.66-.58-.85-.16-1.89-.35-1-.17-1.74-.28-1.11-.15-1.7-.22-1.14-.13c-.57-.07-1.13-.12-1.69-.17l-1.16-.11-1.74-.12-1.11-.07c-.64,0-1.28-.06-1.93-.08l-.94,0c-1,0-1.92,0-2.88,0h0A105.1,105.1,0,0,0,245,262V311h-4a23,23,0,0,0-23,23V413.1c0,1,0,2.09,0,3.13H156.82a41.44,41.44,0,1,0,0,82.87h93.74a129.53,129.53,0,0,0,82.34,43h0c3.19.37,6.42.62,9.67.75l.71,0c1.53.05,3.07.09,4.62.09h.2a129.5,129.5,0,0,0,91.37-37.57l.47-.46.43-.44c1.74-1.76,3.44-3.57,5.08-5.43h97.74a41.44,41.44,0,0,0,0-82.87ZM419,262V311H281.05V262A69,69,0,0,1,350,193h0c1.24,0,2.46,0,3.68.1l.94.08c.91.06,1.82.12,2.72.22l.94.12c.9.11,1.8.22,2.7.37l.79.14c.94.16,1.88.34,2.81.54l.61.14c1,.22,2,.47,3,.73l.41.12c1.05.29,2.08.61,3.1.95l.24.08c1.08.36,2.14.75,3.2,1.16l.09,0c1.1.43,2.18.89,3.24,1.37A69,69,0,0,1,419,262Z"/><path class="cls-2" d="M405,212a105,105,0,0,0-210,0V261h36.05V212A69,69,0,0,1,369,212V261H405Z"/><path class="cls-3" d="M191,261H405a23,23,0,0,1,23,23V363.1A129.9,129.9,0,0,1,298.1,493h-.21A129.9,129.9,0,0,1,168,363.1V284a23,23,0,0,1,23-23Z"/><path class="cls-4" d="M405,261H339.27L224.6,470.33A129.48,129.48,0,0,0,298,493h0c71.8,0,130-58.11,130-129.8V284A23,23,0,0,0,405,261Z"/><path class="cls-5" d="M300,107A105.1,105.1,0,0,0,195,212V261h36.05V212a68.91,68.91,0,0,1,97.39-62.76l16.95-31.87A104.47,104.47,0,0,0,300,107Z"/><path class="cls-6" d="M297.93,340.48a22.84,22.84,0,1,0-23-22.62,22.86,22.86,0,0,0,23,22.62"/><path class="cls-6" d="M268.52,384.81v-8.38c0-19.24,11.51-36.67,25.58-36.67h7.66c14.07,0,25.58,17.43,25.58,36.67v8.38"/><path class="cls-7" d="M534.62,407.67a41.43,41.43,0,0,1-41.43,41.43H106.82a41.44,41.44,0,0,1-41.44-41.43h0a41.44,41.44,0,0,1,41.44-41.44H493.19a41.43,41.43,0,0,1,41.43,41.44Z"/><path class="cls-8" d="M181,406.57a24,24,0,1,1-24-24A24,24,0,0,1,181,406.57Z"/><path class="cls-8" d="M276.92,406.57a24,24,0,1,1-24-24A24,24,0,0,1,276.92,406.57Z"/><path class="cls-8" d="M372.87,406.57a24,24,0,1,1-24-24A24,24,0,0,1,372.87,406.57Z"/><path class="cls-8" d="M468.83,406.57a24,24,0,1,1-24-24A24,24,0,0,1,468.83,406.57Z"/></svg>