<svg id="Contenido" xmlns="http://www.w3.org/2000/svg" xmlns:xlink="http://www.w3.org/1999/xlink" viewBox="0 0 600 600"><defs><style>.cls-1{fill:url(#Degradado_sin_nombre_49);}.cls-2{fill:#1464a5;}.cls-3{fill:#49a5e6;}.cls-4{fill-rule:evenodd;opacity:0.5;fill:url(#Degradado_sin_nombre_50);}.cls-5{fill:#d4edfc;}.cls-6{fill:url(#Degradado_sin_nombre_45);}.cls-7{fill:#1d447d;}.cls-8{fill:#eaf9fa;}</style><linearGradient id="Degradado_sin_nombre_49" x1="248.27" y1="144.96" x2="456.66" y2="536.89" gradientUnits="userSpaceOnUse"><stop offset="0" stop-color="#192647" stop-opacity="0.5"/><stop offset="1" stop-color="#192647" stop-opacity="0"/></linearGradient><linearGradient id="Degradado_sin_nombre_50" x1="213.76" y1="203.37" x2="352.13" y2="341.74" gradientUnits="userSpaceOnUse"><stop offset="0" stop-color="#fff" stop-opacity="0.5"/><stop offset="1" stop-color="#edf6f7" stop-opacity="0.1"/></linearGradient><linearGradient id="Degradado_sin_nombre_45" x1="377.06" y1="290.2" x2="176.26" y2="290.2" gradientUnits="userSpaceOnUse"><stop offset="0" stop-color="#49a5e6" stop-opacity="0.2"/><stop offset="1" stop-color="#49a5e6" stop-opacity="0"/></linearGradient></defs><title>GLOMO</title><path class="cls-1" d="M465.65,191.06h0V162.68a21.85,21.85,0,0,0-21.85-21.85H261.5a21.85,21.85,0,0,0-21.85,21.85v62.8H195.79a23,23,0,0,0-23,23V393.85a23,23,0,0,0,23,23h43.86V519a21.86,21.86,0,0,0,21.85,21.85H443.8A21.85,21.85,0,0,0,465.65,519V217.66h0Z"/><rect class="cls-2" x="188.22" y="90.83" width="226" height="400" rx="21.85"/><rect class="cls-3" x="188.22" y="141.06" width="226" height="299.53"/><polygon class="cls-4" points="188.22 141.06 188.22 440.59 266.15 440.59 414.22 167.66 414.22 141.06 188.22 141.06"/><path class="cls-5" d="M354,175.48H144.36a23,23,0,0,0-23,23V343.85a23,23,0,0,0,23,23H334.72L371.94,404a3,3,0,0,0,5.12-2.12l0-12.8V198.48A23,23,0,0,0,354,175.48Z"/><path class="cls-6" d="M354,175.48H278.86L176.26,366.85H334.72L371.94,404a3,3,0,0,0,5.12-2.13l0-203.43A23,23,0,0,0,354,175.48Z"/><path class="cls-7" d="M306.49,248H191.93a25,25,0,0,0-25,25h0a25,25,0,0,0,25,25H306.49a25,25,0,0,0,25-25h0A25,25,0,0,0,306.49,248Z"/><polygon class="cls-8" points="212.01 274.89 204.99 274.43 209 280.17 205.43 282.31 202.35 275.95 199.34 282.31 195.77 280.17 199.71 274.43 192.69 274.89 192.69 270.9 199.75 271.4 195.77 265.62 199.34 263.48 202.35 269.82 205.38 263.48 209 265.62 204.99 271.4 212.01 270.9 212.01 274.89"/><polygon class="cls-8" points="242.98 274.89 235.96 274.43 239.97 280.17 236.39 282.31 233.32 275.95 230.31 282.31 226.73 280.17 230.68 274.43 223.66 274.89 223.66 270.9 230.72 271.4 226.73 265.62 230.31 263.48 233.32 269.82 236.35 263.48 239.97 265.62 235.96 271.4 242.98 270.9 242.98 274.89"/><polygon class="cls-8" points="273.95 274.89 266.92 274.43 270.93 280.17 267.36 282.31 264.29 275.95 261.27 282.31 257.7 280.17 261.65 274.43 254.63 274.89 254.63 270.9 261.69 271.4 257.7 265.62 261.27 263.48 264.29 269.82 267.32 263.48 270.93 265.62 266.92 271.4 273.95 270.9 273.95 274.89"/><polygon class="cls-8" points="304.91 274.89 297.89 274.43 301.9 280.17 298.33 282.31 295.25 275.95 292.24 282.31 288.67 280.17 292.61 274.43 285.59 274.89 285.59 270.9 292.65 271.4 288.67 265.62 292.24 263.48 295.25 269.82 298.29 263.48 301.9 265.62 297.89 271.4 304.91 270.9 304.91 274.89"/></svg>