<svg id="Contenido" xmlns="http://www.w3.org/2000/svg" xmlns:xlink="http://www.w3.org/1999/xlink" viewBox="0 0 600 600"><defs><style>.cls-1{fill:url(#Degradado_sin_nombre_8);}.cls-2{fill:url(#Degradado_sin_nombre_8-2);}.cls-3{fill:url(#Degradado_sin_nombre_8-3);}.cls-4{fill:url(#Degradado_sin_nombre_8-4);}.cls-5{fill:url(#Degradado_sin_nombre_8-5);}.cls-6{fill:#32649f;}.cls-7{fill:url(#Degradado_sin_nombre_7);}.cls-8{fill:url(#Degradado_sin_nombre_7-2);}.cls-9{fill:url(#Degradado_sin_nombre_7-3);}</style><linearGradient id="Degradado_sin_nombre_8" x1="213.96" y1="-2.74" x2="474.15" y2="486.59" gradientUnits="userSpaceOnUse"><stop offset="0" stop-color="#192647"/><stop offset="0" stop-color="#192647" stop-opacity="0.5"/><stop offset="1" stop-color="#192647" stop-opacity="0"/></linearGradient><linearGradient id="Degradado_sin_nombre_8-2" x1="133.01" y1="57.94" x2="393.19" y2="547.27" xlink:href="#Degradado_sin_nombre_8"/><linearGradient id="Degradado_sin_nombre_8-3" x1="284.62" y1="-58.67" x2="544.8" y2="430.67" xlink:href="#Degradado_sin_nombre_8"/><linearGradient id="Degradado_sin_nombre_8-4" x1="176.36" y1="48.97" x2="417.79" y2="503.04" xlink:href="#Degradado_sin_nombre_8"/><linearGradient id="Degradado_sin_nombre_8-5" x1="303.94" y1="-77.35" x2="564.12" y2="411.98" xlink:href="#Degradado_sin_nombre_8"/><linearGradient id="Degradado_sin_nombre_7" x1="498.68" y1="3139.28" x2="192.56" y2="3139.28" gradientTransform="matrix(1, 0, 0, -1, 0, 3301)" gradientUnits="userSpaceOnUse"><stop offset="0" stop-color="#153260" stop-opacity="0.8"/><stop offset="1" stop-color="#153260" stop-opacity="0"/></linearGradient><linearGradient id="Degradado_sin_nombre_7-2" x1="498.68" y1="3065.97" x2="192.56" y2="3065.97" xlink:href="#Degradado_sin_nombre_7"/><linearGradient id="Degradado_sin_nombre_7-3" x1="498.68" y1="2968.22" x2="192.56" y2="2968.22" xlink:href="#Degradado_sin_nombre_7"/></defs><title>seguros_colombia</title><ellipse class="cls-1" cx="319.98" cy="196.64" rx="36.04" ry="51.07"/><ellipse class="cls-2" cx="248.74" cy="275.6" rx="36.04" ry="51.07"/><path class="cls-3" d="M401.7,240.33a29.34,29.34,0,0,0,4.58,3.33l.1.06.65.36a27,27,0,0,0,13.34,3.63h.07c19.84,0,36-22.86,36-51.07,0-.95,0-1.89-.06-2.82,0-.31,0-.61,0-.92,0-.62-.07-1.25-.11-1.87,0-.36-.06-.72-.1-1.08-.05-.56-.11-1.12-.17-1.68,0-.37-.09-.74-.14-1.11q-.11-.81-.23-1.61c-.06-.36-.12-.73-.18-1.09-.09-.54-.19-1.07-.3-1.61-.07-.34-.13-.68-.2-1-.12-.58-.26-1.15-.4-1.72-.07-.28-.13-.56-.2-.83q-.32-1.24-.67-2.45v0q-.37-1.25-.8-2.47l-.2-.55c-.22-.62-.44-1.23-.68-1.83l-.28-.68c-.23-.56-.46-1.11-.69-1.65l-.3-.67q-.38-.82-.77-1.62l-.29-.58q-.44-.87-.91-1.7l-.22-.4q-.58-1-1.19-2h0c-6.6-10.47-16.2-17.06-26.88-17.06-19.91,0-36,22.86-36,51.07C384.32,215.16,391.28,231.37,401.7,240.33Z"/><path class="cls-4" d="M480.6,370.46v0q-.46-1.43-.95-2.87l0-.1q-.48-1.41-1-2.82l-.06-.16q-.49-1.39-1-2.78l-.07-.2q-.51-1.38-1.05-2.75l-.08-.21q-.54-1.37-1.1-2.74l-.09-.21q-.56-1.37-1.15-2.74l-.08-.18q-.6-1.39-1.22-2.77l-.06-.12q-.64-1.41-1.3-2.82v0A143.75,143.75,0,0,0,450.22,314l0-.05q-1-1.15-2-2.28l-.2-.22q-1-1.07-2-2.12l-.31-.32c-.65-.67-1.32-1.33-2-2l-.4-.39c-.66-.63-1.32-1.25-2-1.87l-.47-.44c-.66-.6-1.33-1.19-2-1.77l-.53-.46q-1-.86-2-1.69l-.58-.47q-1-.82-2.08-1.61l-.62-.47q-1-.78-2.13-1.53l-.66-.46q-1.08-.74-2.18-1.46l-.69-.45q-1.11-.71-2.24-1.39l-.71-.43q-1.14-.68-2.31-1.32l-.73-.4q-1.18-.64-2.38-1.26l-.74-.37q-1.22-.61-2.46-1.19l-.74-.34q-1.26-.57-2.55-1.12l-.74-.31q-1.31-.54-2.65-1.05l-.72-.27q-1.36-.51-2.75-1l-.7-.23q-1.42-.47-2.88-.91l-.66-.19q-1.49-.43-3-.83l-.6-.15q-1.57-.4-3.17-.75l-.52-.11q-1.66-.36-3.35-.67l-.41-.07q-1.76-.31-3.56-.58l-.26,0q-1.89-.27-3.81-.49h0c-3.85-.42-7.83-.68-11.95-.74h-1.8c-95.52,1.3-117.24,104.33-120.65,145.83-2.59,31.48,18.78,47.11,41.1,44.66l.41-.05c.68-.08,1.36-.18,2-.29l1.27-.23,1.1-.24c.58-.13,1.16-.27,1.73-.42l.54-.16a42.07,42.07,0,0,0,4.45-1.51c12.64-5.05,29.68-9.56,43.75-12.84a110.94,110.94,0,0,1,50.3,0c14.07,3.28,31.16,7.77,43.75,12.84A44.94,44.94,0,0,0,443.3,467c24.55,6.8,50.8-8.65,47.95-43.35A243,243,0,0,0,480.6,370.46Z"/><ellipse class="cls-5" cx="491.61" cy="275.6" rx="36.04" ry="51.07"/><ellipse class="cls-6" cx="249.63" cy="156.07" rx="36.04" ry="51.07"/><ellipse class="cls-6" cx="178.39" cy="235.03" rx="36.04" ry="51.07"/><ellipse class="cls-6" cx="350.02" cy="156.07" rx="36.04" ry="51.07"/><ellipse class="cls-6" cx="421.26" cy="235.03" rx="36.04" ry="51.07"/><path class="cls-6" d="M420.9,383.06c-3.41-41.51-25.12-144.52-120.65-145.83h-1.8c-95.52,1.3-117.24,104.33-120.65,145.83-3,36.93,26.89,52.07,52.64,41.77,12.64-5.07,29.68-9.56,43.75-12.84a110.94,110.94,0,0,1,50.3,0c14.07,3.28,31.16,7.77,43.75,12.84C394,435.13,423.93,420,420.9,383.06Z"/><path class="cls-7" d="M386.07,156.07c0-16.09-5.25-30.42-13.45-39.77l-43.28,81.5a29.35,29.35,0,0,0,20.74,9.33C369.93,207.13,386.07,184.27,386.07,156.07Z"/><ellipse class="cls-8" cx="421.26" cy="235.03" rx="36.04" ry="51.07"/><path class="cls-9" d="M308.13,237.58,207.24,427.32a42.13,42.13,0,0,0,23.2-2.49c12.64-5.05,29.68-9.56,43.75-12.84a110.94,110.94,0,0,1,50.3,0c14.07,3.28,31.16,7.77,43.75,12.84,25.75,10.3,55.67-4.92,52.64-41.77C417.59,342.72,397,244.28,308.13,237.58Z"/></svg>