<svg xmlns="http://www.w3.org/2000/svg" xmlns:xlink="http://www.w3.org/1999/xlink" viewBox="0 0 600 600"><defs><style>.cls-1{fill:none;}.cls-2{fill:url(#Degradado_sin_nombre_101);}.cls-3{fill:url(#Degradado_sin_nombre_101-2);}.cls-4{fill:url(#Degradado_sin_nombre_101-3);}.cls-5{fill:url(#Degradado_sin_nombre_101-4);}.cls-6{fill:url(#Degradado_sin_nombre_101-5);}.cls-7{fill:#043263;}.cls-8{fill:url(#Degradado_sin_nombre_47);}.cls-9{fill:url(#Degradado_sin_nombre_38);}.cls-10{fill:url(#Degradado_sin_nombre_33);}</style><linearGradient id="Degradado_sin_nombre_101" x1="213.96" y1="-635.26" x2="474.15" y2="-1124.59" gradientTransform="matrix(1, 0, 0, -1, 0, -638)" gradientUnits="userSpaceOnUse"><stop offset="0" stop-color="#192647" stop-opacity="0.5"/><stop offset="1" stop-color="#192647" stop-opacity="0"/></linearGradient><linearGradient id="Degradado_sin_nombre_101-2" x1="133.01" y1="-695.94" x2="393.19" y2="-1185.27" xlink:href="#Degradado_sin_nombre_101"/><linearGradient id="Degradado_sin_nombre_101-3" x1="284.64" y1="-579.32" x2="544.82" y2="-1068.66" xlink:href="#Degradado_sin_nombre_101"/><linearGradient id="Degradado_sin_nombre_101-4" x1="176.46" y1="-686.92" x2="417.89" y2="-1140.99" xlink:href="#Degradado_sin_nombre_101"/><linearGradient id="Degradado_sin_nombre_101-5" x1="303.94" y1="-560.65" x2="564.12" y2="-1049.98" xlink:href="#Degradado_sin_nombre_101"/><linearGradient id="Degradado_sin_nombre_47" x1="498.68" y1="-2465.97" x2="192.56" y2="-2465.97" gradientTransform="translate(0 2701)" gradientUnits="userSpaceOnUse"><stop offset="0.02" stop-color="#072146" stop-opacity="0.7"/><stop offset="1" stop-color="#072146" stop-opacity="0"/></linearGradient><linearGradient id="Degradado_sin_nombre_38" x1="498.68" y1="-2539.28" x2="192.56" y2="-2539.28" gradientTransform="translate(0 2701)" gradientUnits="userSpaceOnUse"><stop offset="0.02" stop-color="#072146" stop-opacity="0.8"/><stop offset="1" stop-color="#072146" stop-opacity="0"/></linearGradient><linearGradient id="Degradado_sin_nombre_33" x1="498.68" y1="-2368.22" x2="192.56" y2="-2368.22" xlink:href="#Degradado_sin_nombre_38"/></defs><title>19</title><g id="Cuadrados_Blancos" data-name="Cuadrados Blancos"><rect class="cls-1" width="600" height="600"/></g><g id="Capa_16" data-name="Capa 16"><ellipse class="cls-2" cx="319.98" cy="196.64" rx="36.04" ry="51.07"/><ellipse class="cls-3" cx="248.74" cy="275.6" rx="36.04" ry="51.07"/><path class="cls-4" d="M401.7,240.33a29.26,29.26,0,0,0,4.58,3.33l.1.06.65.36a27,27,0,0,0,13.34,3.63h.07c19.84,0,36-22.86,36-51.07,0-.95,0-1.89-.06-2.82v-.92c0-.62-.07-1.25-.11-1.87a9.85,9.85,0,0,0-.1-1.08c-.05-.56-.11-1.12-.17-1.68a8.42,8.42,0,0,0-.14-1.11c-.07-.54-.15-1.08-.23-1.61l-.18-1.09c-.09-.54-.19-1.07-.3-1.61-.07-.34-.13-.68-.2-1-.12-.58-.26-1.15-.4-1.72-.07-.28-.13-.56-.2-.83-.21-.83-.44-1.64-.67-2.45h0c-.25-.83-.51-1.66-.8-2.47l-.2-.55c-.22-.62-.44-1.23-.68-1.83l-.28-.68-.69-1.65-.3-.67c-.25-.55-.51-1.09-.77-1.62l-.29-.58c-.29-.58-.6-1.15-.91-1.7l-.22-.4c-.39-.67-.78-1.33-1.19-2h0c-6.6-10.47-16.2-17.06-26.88-17.06-19.91,0-36,22.86-36,51.07C384.32,215.16,391.28,231.37,401.7,240.33Z"/><path class="cls-5" d="M480.6,370.46h0c-.31-.95-.62-1.91-1-2.87v-.1c-.32-.94-.65-1.88-1-2.82l-.06-.16c-.33-.93-.66-1.85-1-2.78l-.07-.2c-.34-.92-.69-1.84-1-2.75l-.08-.21c-.36-.91-.73-1.83-1.1-2.74l-.09-.21c-.37-.91-.76-1.83-1.15-2.74l-.08-.18c-.4-.93-.81-1.85-1.22-2.77l-.06-.12c-.43-.94-.86-1.88-1.3-2.82h0a143.91,143.91,0,0,0-21.17-33V314c-.67-.77-1.33-1.53-2-2.28l-.2-.22c-.67-.71-1.33-1.42-2-2.12l-.31-.32c-.65-.67-1.32-1.33-2-2l-.4-.39c-.66-.63-1.32-1.25-2-1.87l-.47-.44c-.66-.6-1.33-1.19-2-1.77l-.53-.46c-.67-.57-1.33-1.14-2-1.69l-.58-.47c-.67-.55-1.36-1.08-2.08-1.61l-.62-.47q-1-.78-2.13-1.53l-.66-.46-2.18-1.46-.69-.45c-.74-.47-1.49-.94-2.24-1.39l-.71-.43q-1.14-.67-2.31-1.32l-.73-.4c-.79-.43-1.58-.85-2.38-1.26l-.74-.37c-.81-.41-1.63-.8-2.46-1.19l-.74-.34c-.84-.38-1.69-.75-2.55-1.12l-.74-.31c-.87-.36-1.76-.71-2.65-1.05l-.72-.27-2.75-1-.7-.23c-.95-.31-1.91-.62-2.88-.91l-.66-.19c-1-.29-2-.56-3-.83l-.6-.15c-1.05-.27-2.1-.52-3.17-.75l-.52-.11c-1.11-.24-2.22-.46-3.35-.67l-.41-.07c-1.17-.21-2.36-.4-3.56-.58h-.26c-1.26-.18-2.53-.34-3.81-.49h0c-3.85-.42-7.83-.68-12-.74H369c-95.52,1.3-117.24,104.33-120.65,145.83-2.59,31.48,18.78,47.11,41.1,44.66l.41-.05c.68-.08,1.36-.18,2-.29l1.27-.23,1.1-.24c.58-.13,1.16-.27,1.73-.42l.54-.16a40.87,40.87,0,0,0,4.45-1.51c12.64-5.05,29.68-9.56,43.75-12.84a111,111,0,0,1,50.3,0c14.07,3.28,31.16,7.77,43.75,12.84A43.62,43.62,0,0,0,443.3,467c24.55,6.8,50.8-8.65,47.95-43.35A243.08,243.08,0,0,0,480.6,370.46Z"/><ellipse class="cls-6" cx="491.61" cy="275.6" rx="36.04" ry="51.07"/><ellipse class="cls-7" cx="249.63" cy="156.07" rx="36.04" ry="51.07"/><ellipse class="cls-7" cx="178.39" cy="235.03" rx="36.04" ry="51.07"/><ellipse class="cls-7" cx="350.02" cy="156.07" rx="36.04" ry="51.07"/><ellipse class="cls-8" cx="421.26" cy="235.03" rx="36.04" ry="51.07"/><ellipse class="cls-7" cx="421.26" cy="235.03" rx="36.04" ry="51.07"/><path class="cls-7" d="M420.9,383.06c-3.41-41.51-25.12-144.52-120.65-145.83h-1.8c-95.52,1.3-117.24,104.33-120.65,145.83-3,36.93,26.89,52.07,52.64,41.77,12.64-5.07,29.68-9.56,43.75-12.84a111,111,0,0,1,50.3,0c14.07,3.28,31.16,7.77,43.75,12.84C394,435.13,423.93,420,420.9,383.06Z"/><path class="cls-9" d="M386.07,156.07c0-16.09-5.25-30.42-13.45-39.77l-43.28,81.5a29.36,29.36,0,0,0,20.74,9.33C369.93,207.13,386.07,184.27,386.07,156.07Z"/><path class="cls-10" d="M308.13,237.58,207.24,427.32a42.11,42.11,0,0,0,23.2-2.49c12.64-5.05,29.68-9.56,43.75-12.84a111,111,0,0,1,50.3,0c14.07,3.28,31.16,7.77,43.75,12.84,25.75,10.3,55.67-4.92,52.64-41.77C417.59,342.72,397,244.28,308.13,237.58Z"/></g></svg>