<?xml version="1.0" encoding="utf-8"?>
<!-- Generator: Adobe Illustrator 23.0.1, SVG Export Plug-In . SVG Version: 6.00 Build 0)  -->
<svg version="1.1" id="Capa_1" xmlns="http://www.w3.org/2000/svg" xmlns:xlink="http://www.w3.org/1999/xlink" x="0px" y="0px"
	 viewBox="0 0 600 600" style="enable-background:new 0 0 600 600;" xml:space="preserve">
<style type="text/css">
	.st0{fill:url(#SVGID_1_);}
	.st1{fill:#D4EDFC;}
	.st2{fill:url(#SVGID_2_);}
	.st3{opacity:0.35;enable-background:new    ;}
	.st4{fill:#49A5E6;}
	.st5{fill:#1464A5;}
	.st6{opacity:0.35;}
</style>
<title>Mesa de trabajo 1 copia 33</title>
<g>
	<g>
		
			<linearGradient id="SVGID_1_" gradientUnits="userSpaceOnUse" x1="218.2957" y1="540.1932" x2="442.4756" y2="961.8132" gradientTransform="matrix(1 0 0 1 0 -400)">
			<stop  offset="0" style="stop-color:#192647"/>
			<stop  offset="0" style="stop-color:#192647;stop-opacity:0.5"/>
			<stop  offset="1" style="stop-color:#192647;stop-opacity:0"/>
		</linearGradient>
		<path class="st0" d="M399,147H206.3c-1.8,0-3.3,1.5-3.3,3.3V530c0,1.7,1.3,3,3,3h10.4l272.6,1h5c1.7,0,3-1.3,3-3V245L399,147z"/>
		<path class="st1" d="M447,185l-98-98H156.3c-1.8,0-3.3,1.5-3.3,3.3V470c0,1.7,1.3,3,3,3h288c1.7,0,3-1.3,3-3V185z"/>
		
			<linearGradient id="SVGID_2_" gradientUnits="userSpaceOnUse" x1="447" y1="689.5" x2="166.4" y2="689.5" gradientTransform="matrix(1 0 0 1 0 -400)">
			<stop  offset="0" style="stop-color:#043263;stop-opacity:0.1"/>
			<stop  offset="1" style="stop-color:#043263;stop-opacity:0"/>
		</linearGradient>
		<path class="st2" d="M366,105L166.4,473l272.6,1h5c1.7,0,3-1.3,3-3V186L366,105z"/>
		<g class="st3">
			<path class="st4" d="M291,138h-99c-2.8,0-5-2.2-5-5s2.2-5,5-5h99c2.8,0,5,2.2,5,5S293.8,138,291,138z"/>
		</g>
		<g class="st3">
			<path class="st4" d="M291,166h-99c-2.8,0-5-2.2-5-5s2.2-5,5-5h99c2.8,0,5,2.2,5,5S293.8,166,291,166z"/>
		</g>
		<g class="st3">
			<path class="st4" d="M398,426h-68c-2.8,0-5-2.2-5-5s2.2-5,5-5h68c2.8,0,5,2.2,5,5S400.8,426,398,426z"/>
		</g>
		<path class="st5" d="M352.7,185H447l-98-98v94.3C349,183.4,350.6,185,352.7,185z"/>
		<g class="st6">
			<g>
				<path class="st4" d="M300,270h-79c-2.8,0-5-2.2-5-5s2.2-5,5-5h79c2.8,0,5,2.2,5,5S302.8,270,300,270z"/>
			</g>
			<g>
				<path class="st4" d="M300,298h-79c-2.8,0-5-2.2-5-5s2.2-5,5-5h79c2.8,0,5,2.2,5,5S302.8,298,300,298z"/>
			</g>
			<g>
				<path class="st4" d="M300,326h-79c-2.8,0-5-2.2-5-5s2.2-5,5-5h79c2.8,0,5,2.2,5,5S302.8,326,300,326z"/>
			</g>
			<g>
				<path class="st4" d="M300,354h-79c-2.8,0-5-2.2-5-5s2.2-5,5-5h79c2.8,0,5,2.2,5,5S302.8,354,300,354z"/>
			</g>
			<path class="st4" d="M398,231H192c-2.8,0-5,2.2-5,5v140c0,2.8,2.2,5,5,5h206c2.8,0,5-2.2,5-5V236C403,233.2,400.8,231,398,231z
				 M197,241h127v130H197V241z M393,371h-59V241h59V371z"/>
		</g>
	</g>
</g>
</svg>
