<svg id="Contenido" xmlns="http://www.w3.org/2000/svg" xmlns:xlink="http://www.w3.org/1999/xlink" viewBox="0 0 600 600"><defs><style>.cls-1{fill:url(#Degradado_sin_nombre_16);}.cls-2{fill:#1464a5;}.cls-3{fill:url(#Degradado_sin_nombre_26);}.cls-4{fill:#d4edfc;}.cls-5{fill:#043263;}.cls-6{fill:#c49735;}.cls-7{fill:#f8cd50;}.cls-8{fill:url(#Degradado_sin_nombre_31);}</style><linearGradient id="Degradado_sin_nombre_16" x1="265.61" y1="188.17" x2="428.78" y2="495.06" gradientUnits="userSpaceOnUse"><stop offset="0" stop-color="#1c2645"/><stop offset="0" stop-color="#1c2645" stop-opacity="0.5"/><stop offset="1" stop-color="#1c2645" stop-opacity="0"/></linearGradient><linearGradient id="Degradado_sin_nombre_26" x1="432.69" y1="296.99" x2="225.49" y2="296.99" gradientUnits="userSpaceOnUse"><stop offset="0" stop-color="#043263" stop-opacity="0.4"/><stop offset="1" stop-color="#043263" stop-opacity="0.1"/></linearGradient><linearGradient id="Degradado_sin_nombre_31" x1="247.91" y1="322.93" x2="313.58" y2="322.93" gradientUnits="userSpaceOnUse"><stop offset="0" stop-color="#fff" stop-opacity="0.4"/><stop offset="1" stop-color="#fff" stop-opacity="0.2"/></linearGradient></defs><title>values-day</title><path class="cls-1" d="M478.67,397.12l-3.29-112.26A127.36,127.36,0,0,0,348,161.29h0A127.35,127.35,0,0,0,220.65,284.86l-3.3,112.26a93.8,93.8,0,0,0,22.75,64.1C255.48,485.31,282,508,302.77,510.83A334.44,334.44,0,0,0,348,513.59a323,323,0,0,0,45.24-2.76c20.73-2.89,47.27-25.52,62.65-49.58A93.84,93.84,0,0,0,478.67,397.12Z"/><path class="cls-2" d="M357.76,444.91l-4.61,1a251.24,251.24,0,0,1-102.33,0l-4.6-1a94,94,0,0,1-74.89-94.81l3.29-112.27A127.37,127.37,0,0,1,302,114.26h0A127.36,127.36,0,0,1,429.35,237.83l3.3,112.27A94,94,0,0,1,357.76,444.91Z"/><path class="cls-3" d="M432.65,350.1l-3.3-112.27a127,127,0,0,0-46.92-95L225.49,438a93.52,93.52,0,0,0,20.73,6.91l4.6,1a251.24,251.24,0,0,0,102.33,0l4.61-1A94,94,0,0,0,432.65,350.1Z"/><path class="cls-4" d="M421.87,371.05h0L406.25,249.2h0a57,57,0,0,0-102.05-26.14,2.75,2.75,0,0,1-4.38,0A57,57,0,0,0,197.74,249.2h0L182.1,371.05h0a56.66,56.66,0,0,0-.61,8.29c0,31.4,44.15,80.17,75.25,84.46A332.83,332.83,0,0,0,302,466.56a323,323,0,0,0,45.24-2.76c31.09-4.33,75.25-53.06,75.25-84.46A56.66,56.66,0,0,0,421.87,371.05Z"/><path class="cls-5" d="M249.73,257.19a39.85,39.85,0,0,1,20.69,5.54,2.76,2.76,0,0,0,4.15-3,25.72,25.72,0,0,0-49.69,0,2.76,2.76,0,0,0,4.16,3A39.85,39.85,0,0,1,249.73,257.19Z"/><path class="cls-5" d="M354.25,257.19a39.85,39.85,0,0,1,20.69,5.54,2.76,2.76,0,0,0,4.15-3,25.72,25.72,0,0,0-49.69,0,2.76,2.76,0,0,0,4.16,3A39.85,39.85,0,0,1,354.25,257.19Z"/><path class="cls-6" d="M287,284.26,250.51,300,302,298.75,353.47,300,317,284.26A38,38,0,0,0,287,284.26Z"/><path class="cls-7" d="M350,299.12l3.44.74a3.35,3.35,0,0,1,2.13,5.08h0a425.12,425.12,0,0,1-42.8,56.27l-10.75,12-10.75-12a425.12,425.12,0,0,1-42.8-56.27h0a3.35,3.35,0,0,1,2.13-5.08l3.44-.74A229.9,229.9,0,0,1,350,299.12Z"/><path class="cls-8" d="M254,299.12l-3.44.74a3.35,3.35,0,0,0-2.13,5.08A420.63,420.63,0,0,0,283,351.79l30.54-57.43A230,230,0,0,0,254,299.12Z"/></svg>