<svg id="Contenido" xmlns="http://www.w3.org/2000/svg" xmlns:xlink="http://www.w3.org/1999/xlink" viewBox="0 0 600 600"><defs><style>.cls-1{fill:url(#Degradado_sin_nombre_42);}.cls-2{fill:#49a5e6;}.cls-3{fill:#f8cd50;}.cls-4{fill:#2dcccd;}.cls-5{fill:url(#Degradado_sin_nombre_24);}.cls-6{fill:url(#Degradado_sin_nombre_3);}.cls-7{fill:url(#Degradado_sin_nombre_33);}.cls-8{fill:#043263;}</style><linearGradient id="Degradado_sin_nombre_42" x1="290.1" y1="191.83" x2="443.05" y2="492.01" gradientUnits="userSpaceOnUse"><stop offset="0" stop-color="#192647" stop-opacity="0.5"/><stop offset="1" stop-color="#192647" stop-opacity="0"/></linearGradient><linearGradient id="Degradado_sin_nombre_24" x1="359.22" y1="349.01" x2="274.05" y2="349.01" gradientUnits="userSpaceOnUse"><stop offset="0.01" stop-color="#043263" stop-opacity="0.4"/><stop offset="1" stop-color="#043263" stop-opacity="0"/></linearGradient><linearGradient id="Degradado_sin_nombre_3" x1="419.54" y1="252.94" x2="479.54" y2="312.94" gradientUnits="userSpaceOnUse"><stop offset="0" stop-color="#fff" stop-opacity="0.5"/><stop offset="1" stop-color="#ebf4f5" stop-opacity="0.1"/></linearGradient><linearGradient id="Degradado_sin_nombre_33" x1="206.5" y1="331.58" x2="108.41" y2="331.58" gradientUnits="userSpaceOnUse"><stop offset="0.01" stop-color="#028484" stop-opacity="0.6"/><stop offset="1" stop-color="#028484" stop-opacity="0"/></linearGradient></defs><title>banderines</title><path class="cls-1" d="M589.72,284.24a5,5,0,0,0-6.89-1.55c-44.77,28.31-134,45.9-232.83,45.9S161.94,311,117.17,282.69a5,5,0,0,0-5.34,8.45,187.46,187.46,0,0,0,29.32,14.75l25.32,138.69a3,3,0,0,0,5.36,1.24L254.9,332.93c12,1.48,24.32,2.68,37,3.59l55.4,128.36a3,3,0,0,0,5.5,0l55.4-128.36c12.63-.91,25-2.11,37-3.59l83.07,112.89a3,3,0,0,0,5.36-1.24l25.32-138.69a187.46,187.46,0,0,0,29.32-14.75A5,5,0,0,0,589.72,284.24Z"/><path class="cls-2" d="M302.75,415.33,359,285.08a3,3,0,0,0-2.75-4.19H243.78a3,3,0,0,0-2.75,4.19l56.22,130.25A3,3,0,0,0,302.75,415.33Z"/><path class="cls-3" d="M483.53,395,509,255.47a3,3,0,0,0-3.62-3.46L395.83,277.3a3,3,0,0,0-1.74,4.71l84.08,114.26A3,3,0,0,0,483.53,395Z"/><path class="cls-4" d="M116.47,395,91,255.47A3,3,0,0,1,94.61,252L204.17,277.3a3,3,0,0,1,1.74,4.71L121.83,396.27A3,3,0,0,1,116.47,395Z"/><path class="cls-5" d="M356.22,280.89H317l-42.91,80.7,23.2,53.74a3,3,0,0,0,5.5,0L359,285.08A3,3,0,0,0,356.22,280.89Z"/><path class="cls-6" d="M395.83,277.3a3,3,0,0,0-1.74,4.71l49.33,67.05,50.15-94.32Z"/><path class="cls-7" d="M204.17,277.3l-50.44-11.64-45.32,85.23L116.47,395a3,3,0,0,0,5.36,1.24L205.91,282A3,3,0,0,0,204.17,277.3Z"/><path class="cls-8" d="M300,289c-100.64,0-191.9-18.18-238.17-47.44a5,5,0,0,1,5.34-8.46C111.94,261.46,201.15,279,300,279s188.06-17.58,232.83-45.9a5,5,0,0,1,5.34,8.46C491.9,270.86,400.64,289,300,289Z"/></svg>