<svg id="Contenido" xmlns="http://www.w3.org/2000/svg" xmlns:xlink="http://www.w3.org/1999/xlink" viewBox="0 0 600 600"><defs><style>.cls-1{fill:url(#Degradado_sin_nombre);}.cls-2{fill:url(#Degradado_sin_nombre-2);}.cls-3{fill:#f7b27f;}.cls-4{fill:#2dcccd;fill-rule:evenodd;}.cls-5{fill:#02a5a5;}.cls-6{fill:url(#Degradado_sin_nombre_3);}.cls-7{fill:#facba9;}.cls-8{fill:#004481;}.cls-9{fill:url(#Degradado_sin_nombre_444);}.cls-10{fill:#072146;}.cls-11{fill:#fff;}.cls-12{fill:#f8cd51;}.cls-13{fill:url(#Degradado_sin_nombre_4);}.cls-14{fill:#fef5dc;}.cls-15{fill:none;}</style><linearGradient id="Degradado_sin_nombre" x1="172.92" y1="68.13" x2="406.22" y2="506.9" gradientUnits="userSpaceOnUse"><stop offset="0" stop-color="#192647"/><stop offset="0" stop-color="#192647" stop-opacity="0.5"/><stop offset="1" stop-color="#192647" stop-opacity="0"/></linearGradient><linearGradient id="Degradado_sin_nombre-2" x1="230.7" y1="45.52" x2="463.32" y2="483.01" xlink:href="#Degradado_sin_nombre"/><linearGradient id="Degradado_sin_nombre_3" x1="410.1" y1="362.71" x2="278.24" y2="362.71" gradientTransform="matrix(1, 0.05, 0.05, -1, -46.63, 705.65)" gradientUnits="userSpaceOnUse"><stop offset="0" stop-color="#d8722c"/><stop offset="1" stop-color="#d8722c" stop-opacity="0"/></linearGradient><linearGradient id="Degradado_sin_nombre_444" x1="408.84" y1="-5965.67" x2="260.64" y2="-5965.67" gradientTransform="translate(0 6156)" gradientUnits="userSpaceOnUse"><stop offset="0" stop-color="#072146"/><stop offset="1" stop-color="#072146" stop-opacity="0"/></linearGradient><linearGradient id="Degradado_sin_nombre_4" x1="347" y1="-11.06" x2="393.88" y2="-35.98" gradientTransform="matrix(1, 0, 0, -1, 0, 202)" gradientUnits="userSpaceOnUse"><stop offset="0" stop-color="#fade8e"/><stop offset="1" stop-color="#fade8e" stop-opacity="0.4"/></linearGradient></defs><path class="cls-1" d="M552,364.1c-2.7-5.39-14.37-10.78-31.44-5.39s-57,22.91-78.59,32.34c-2.89,1.26-5.82,2.37-8.76,3.35-1-5.61-3.79-10.29-8.56-12.93l-.43.06a23.09,23.09,0,0,0-17-5.56l-32.53,2.59a129.91,129.91,0,0,1-20.5,0l-17.72-1.41c-17.27-9.15-34.76-18.33-44-21.15-19.31-5.84-41.32,3.14-55.69,9a99.29,99.29,0,0,1-12.67,4.16c-.31-1.61-.63-3.22-1-4.8A16,16,0,0,0,207.6,351.7l-29.9-.06a15.89,15.89,0,0,0-15.92,15.86,16.08,16.08,0,0,0,.27,2.94,236.07,236.07,0,0,1,3.8,43.19,236.85,236.85,0,0,1-4,43.17,15.9,15.9,0,0,0,12.62,18.6,16.2,16.2,0,0,0,2.95.28l29.9.06a16,16,0,0,0,15.59-12.58c.59-2.69,1.12-5.44,1.62-8.22,6.32-2.12,17-5.06,28-5.06,37.55,0,79.93,38.17,109.13,38.17,7.63,0,21.95-7.74,37.27-17.51,21.77-13.9,47.6-26.5,78.59-45.36s68.71-43.56,73.2-48S554.73,369.49,552,364.1Z"/><path class="cls-2" d="M475.47,265v0a56.6,56.6,0,0,0-41.63-54.51V164.24A14.28,14.28,0,0,0,419.56,150h-195a14.28,14.28,0,0,0-14.28,14.29V270.43a14.28,14.28,0,0,0,14.28,14.29H365.8A56.61,56.61,0,0,0,475.47,265Z"/><path class="cls-3" d="M160.69,315.35s9.75,1.39,26.94-1.73c15.26-2.78,36.38-12.82,55.69-7s74.55,39.52,89.37,42.67,38.62,1.79,60.18-7.64,61.52-26.94,78.59-32.33,28.74,0,31.43,5.39,3.15,8.61-1.34,13.06-42.22,29.15-73.21,48-56.82,31.47-78.59,45.36c-15.31,9.78-29.64,17.52-37.27,17.52-29.19,0-71.58-38.18-109.13-38.18-17.06,0-33.68,7.19-33.68,7.19L151.26,324.6Z"/><path class="cls-4" d="M128.56,300.25a15.9,15.9,0,0,0-15.93,15.87,16.08,16.08,0,0,0,.27,2.94,236.07,236.07,0,0,1,3.8,43.19,234.9,234.9,0,0,1-4,43.16A15.9,15.9,0,0,0,125.32,424a16.2,16.2,0,0,0,3,.28l29.9.07a16,16,0,0,0,15.59-12.59A231.69,231.69,0,0,0,179,362.38,232.73,232.73,0,0,0,174,313a16,16,0,0,0-15.53-12.65Z"/><circle class="cls-5" cx="143.01" cy="402.98" r="10"/><path class="cls-6" d="M360.43,382.18l-31.76,4a125.35,125.35,0,0,1-32.15-.06L247,379.68l2.71-50.16L305.37,337a126.26,126.26,0,0,0,19.91,1.07l31.74-.8a22.55,22.55,0,0,1,23.12,22c0,.59,0,1.18,0,1.77h0A22.57,22.57,0,0,1,360.43,382.18Z"/><path class="cls-3" d="M364.13,372.52l-32.38,5.9a129.42,129.42,0,0,1-33,1.72l-51.2-3.9V324.6l57.56,4.57a129.91,129.91,0,0,0,20.5,0l32.53-2.58a23.19,23.19,0,0,1,24.93,21.29c.05.61.07,1.22.07,1.83h0A23.18,23.18,0,0,1,364.13,372.52Z"/><path class="cls-7" d="M354.2,335.31c-1.58.33-4.95,8.3-3.14,16.81,1.93,9.11,5.55,13.09,8.19,12.94,1.48-.09,13.67-1.91,20.45-3,4-4,5.3-9.48,4.64-15.41h0c-.71-6.32-3.58-11.64-8.8-14.53C368.8,333.1,355.18,335.1,354.2,335.31Z"/><g id="Capa_23" data-name="Capa 23"><rect class="cls-8" x="185.27" y="122.95" width="223.57" height="134.76" rx="14.28"/><path class="cls-9" d="M394.56,257.72a14.28,14.28,0,0,0,14.28-14.29V137.24A14.28,14.28,0,0,0,394.56,123H332.31L260.64,257.72Z"/><rect class="cls-10" x="185.27" y="142.12" width="223.57" height="21.91"/><rect class="cls-11" x="218.15" y="206.22" width="157.82" height="19.72" rx="1.86"/></g><path class="cls-12" d="M450.47,238a56.6,56.6,0,1,1-56.64-56.58h0a56.58,56.58,0,0,1,56.64,56.52v0"/><path class="cls-13" d="M420.55,188.11A56.55,56.55,0,0,0,367.45,288Z"/><path class="cls-14" d="M400.49,249.14c0-3.73-1.47-5.23-8.57-8.4-10.22-4.59-13.17-8.15-13.17-15.24s5.72-12.05,11.52-13.52v-8.7h.35l8.32,3.63v4.77a19,19,0,0,1,7.44,2.61l.44.25.26.18-.09.35-.09.52-1,6.58-.18,1.21-.08.87-.7-.51-1-.79a15.53,15.53,0,0,0-9.44-3.27c-4.35,0-6.76,2-6.76,5.29,0,3.11,1.56,4.5,8.49,7.7,10.22,4.68,13.51,8.32,13.51,15.94,0,7-4.94,12.19-10.74,14.12v10h-.69l-8-4.51v-4.85a37.68,37.68,0,0,1-11.32-3.2l-.52-.26-.34-.17v-.35l.08-.52.95-6.76.18-1.21.08-.77.69.42,1,.61a22.07,22.07,0,0,0,12,3.9c4.6.17,7.37-2.16,7.37-5.89"/><rect class="cls-15" width="600" height="600"/></svg>