<svg xmlns="http://www.w3.org/2000/svg" xmlns:xlink="http://www.w3.org/1999/xlink" viewBox="0 0 600 600"><defs><style>.cls-1{fill:none;}.cls-2{fill:url(#Degradado_sin_nombre_464);}.cls-3{fill:#f8cd50;}.cls-4{fill:url(#Degradado_sin_nombre_40);}.cls-5{fill:url(#Degradado_sin_nombre_40-2);}.cls-6{fill:#2dcccd;}.cls-7{fill:#004481;}.cls-8{fill:#49a5e6;}.cls-9{fill:#d4edfc;}.cls-10{fill:url(#Degradado_sin_nombre_47);}.cls-11{fill:url(#Degradado_sin_nombre_73);}.cls-12{fill:#028484;}.cls-13{fill:url(#Degradado_sin_nombre_114);}</style><linearGradient id="Degradado_sin_nombre_464" x1="222.09" y1="4167.79" x2="424.74" y2="3786.67" gradientTransform="matrix(1, 0, 0, -1, 0, 4310)" gradientUnits="userSpaceOnUse"><stop offset="0" stop-color="#192647" stop-opacity="0.5"/><stop offset="1" stop-color="#192647" stop-opacity="0"/></linearGradient><linearGradient id="Degradado_sin_nombre_40" x1="339.5" y1="4165.43" x2="464.61" y2="4040.32" gradientTransform="matrix(1, 0, 0, -1, 0, 4310)" gradientUnits="userSpaceOnUse"><stop offset="0" stop-color="#fff" stop-opacity="0.5"/><stop offset="1" stop-color="#edf8f9" stop-opacity="0.2"/><stop offset="1" stop-color="#fff" stop-opacity="0"/></linearGradient><linearGradient id="Degradado_sin_nombre_40-2" x1="241.54" y1="4089.5" x2="372.64" y2="3958.4" xlink:href="#Degradado_sin_nombre_40"/><linearGradient id="Degradado_sin_nombre_47" x1="168.42" y1="4191.85" x2="249.88" y2="4110.39" gradientTransform="matrix(1, 0, 0, -1, 0, 4310)" gradientUnits="userSpaceOnUse"><stop offset="0.01" stop-color="#fff" stop-opacity="0.5"/><stop offset="1" stop-color="#fff" stop-opacity="0.1"/></linearGradient><linearGradient id="Degradado_sin_nombre_73" x1="337.75" y1="3943.32" x2="189.9" y2="3943.32" gradientTransform="matrix(1, 0, 0, -1, 0, 4310)" gradientUnits="userSpaceOnUse"><stop offset="0" stop-color="#028484" stop-opacity="0.3"/><stop offset="1" stop-color="#028484" stop-opacity="0"/></linearGradient><linearGradient id="Degradado_sin_nombre_114" x1="432.59" y1="4099.42" x2="397.38" y2="4099.42" gradientTransform="matrix(1, 0, 0, -1, 0, 4310)" gradientUnits="userSpaceOnUse"><stop offset="0" stop-color="#072146" stop-opacity="0.8"/><stop offset="1" stop-color="#072146" stop-opacity="0"/></linearGradient></defs><title>11</title><g id="Cuadrados_Blancos" data-name="Cuadrados Blancos"><rect class="cls-1" width="600" height="600"/></g><g id="Capa_38" data-name="Capa 38"><path class="cls-2" d="M487.76,213.64h0a32.16,32.16,0,0,0-5.28.44v-1.17h0a37,37,0,0,0-1.62-10.81c-.22-.71-.46-1.42-.72-2.11a36.82,36.82,0,0,0-3.94-7.67l-.56-.81a37,37,0,0,0-26.2-15.35,3.4,3.4,0,0,0-3.86,2.87c0,.13,0,.26,0,.39v.25h0v10.64h0a3.55,3.55,0,0,0,.23,1.25,3.46,3.46,0,0,0,1.05,1.45,3.59,3.59,0,0,0,1.73.78A19.26,19.26,0,0,1,452.7,195,19.69,19.69,0,0,1,463,204.52a20,20,0,0,1,1.93,8.21v10.66a31.55,31.55,0,0,0-8.8,21.9v61h0a3.51,3.51,0,0,0,3.52,3.52h5.28V464.45a11.75,11.75,0,0,1-11.71,11.77l-.84,0a12,12,0,0,1-10.93-12.13V398.48a29.7,29.7,0,0,0-.61-6.1,29,29,0,0,0-1.76-5.68c-.18-.46-.39-.9-.61-1.34a30.41,30.41,0,0,0-14.16-14.17l-1.34-.61a30.12,30.12,0,0,0-11.79-2.37h-.73V364a3.53,3.53,0,0,0-3.53-3.52H396.47V331.29H397a3.52,3.52,0,0,0,3.52-3.53v-8h6.27a3.52,3.52,0,0,0,3.52-3.52V170.68a27,27,0,0,0-27-27H226.05a27,27,0,0,0-27,27V316.22a3.52,3.52,0,0,0,3.52,3.52h6.27v8a3.52,3.52,0,0,0,3.52,3.53H213V513.21h-1a12.91,12.91,0,0,0-12.91,12.91h0V531H410.31v-4.93a12.91,12.91,0,0,0-12.91-12.91h-1V393.55h10.42a3.53,3.53,0,0,0,3.52-3.52v-4.21h.79a11.15,11.15,0,0,1,1.29.07,12.67,12.67,0,0,1,11.3,11.3c0,.43.07.86.07,1.29v65.3c0,16.43,13.43,30.28,29.85,30a29.33,29.33,0,0,0,28.83-29.34V309.88h5.29a3.53,3.53,0,0,0,3.52-3.52h0v-89.2A3.53,3.53,0,0,0,487.76,213.64Z"/><path class="cls-3" d="M395,435.11c-16.44.28-29.85-13.59-29.85-30V339.8a12.66,12.66,0,0,0-12.66-12.67H334v-17.6h18.41a30.27,30.27,0,0,1,30.27,30.27h0v65.55a12,12,0,0,0,10.94,12.12,11.73,11.73,0,0,0,12.51-10.91c0-.28,0-.55,0-.83V154.25a19.4,19.4,0,0,0-16.35-19.13,3.53,3.53,0,0,1-3-3.52V121a3.52,3.52,0,0,1,3.5-3.54,3,3,0,0,1,.42,0,37,37,0,0,1,33.07,36.82V405.77A29.34,29.34,0,0,1,395,435.11Z"/><path class="cls-4" d="M390.73,117.49a3.51,3.51,0,0,0-3.89,3.1,3,3,0,0,0,0,.42v10.64a3.53,3.53,0,0,0,3,3.53,19.39,19.39,0,0,1,16.35,19.07v146.9L423.78,268V154.25A37,37,0,0,0,390.73,117.49Z"/><path class="cls-5" d="M352.41,309.53H334v17.6h18.41a12.67,12.67,0,0,1,12.67,12.67h0v38.62l17.6-33.11v-5.49a30.26,30.26,0,0,0-30.24-30.29Z"/><rect class="cls-6" x="154.39" y="261.05" width="183.36" height="211.26"/><path class="cls-7" d="M324.7,85H167.43a27,27,0,0,0-27,27h0V257.53a3.52,3.52,0,0,0,3.52,3.52H348.18a3.52,3.52,0,0,0,3.52-3.52V112a27,27,0,0,0-27-27Z"/><rect class="cls-8" x="169.77" y="114.34" width="152.58" height="117.37" rx="3.52"/><rect class="cls-9" x="187.38" y="131.95" width="117.37" height="28.17" rx="3.52"/><rect class="cls-9" x="187.38" y="185.94" width="117.37" height="28.17" rx="3.52"/><path class="cls-10" d="M173.77,114.34a4.22,4.22,0,0,0-4,4.4V227.31a4.22,4.22,0,0,0,4,4.4h44l56.58-117.37Z"/><path class="cls-7" d="M429.07,155h0a3.53,3.53,0,0,1,3.52,3.52v89.2a3.52,3.52,0,0,1-3.52,3.52H400.9a3.51,3.51,0,0,1-3.52-3.52v-61A31.69,31.69,0,0,1,429.07,155Z"/><path class="cls-7" d="M337.75,301.84h10.44a3.52,3.52,0,0,1,3.52,3.52v26a3.53,3.53,0,0,1-3.52,3.53H337.75v-33Z"/><polygon class="cls-11" points="337.75 261.05 302.24 261.05 189.9 472.32 337.75 472.32 337.75 261.05"/><path class="cls-12" d="M150.22,261.05H341.85v8a3.52,3.52,0,0,1-3.52,3.52H153.74a3.52,3.52,0,0,1-3.52-3.52v-8Z"/><path class="cls-13" d="M397.38,236.18v11.49a3.51,3.51,0,0,0,3.52,3.52h28.17a3.52,3.52,0,0,0,3.52-3.52V170Z"/><path class="cls-7" d="M153.34,454.48H338.79a12.91,12.91,0,0,1,12.91,12.91h0v4.93H140.43v-4.93A12.91,12.91,0,0,1,153.34,454.48Z"/></g></svg>