<svg id="Contenido" xmlns="http://www.w3.org/2000/svg" xmlns:xlink="http://www.w3.org/1999/xlink" viewBox="0 0 600 600"><defs><style>.cls-1{fill:url(#Degradado_sin_nombre_2);}.cls-2{fill:#f8cd50;}.cls-3{fill:url(#Degradado_sin_nombre_36);}.cls-4{fill:url(#Degradado_sin_nombre_36-2);}.cls-5{fill:#2dcccd;}.cls-6{fill:#1464a5;}.cls-7{fill:#49a5e6;}.cls-8{fill:#d4edfc;}.cls-9{fill:url(#Degradado_sin_nombre_7);}.cls-10{fill:url(#Degradado_sin_nombre_60);}.cls-11{fill:#028484;}.cls-12{fill:url(#Degradado_sin_nombre_4);}</style><linearGradient id="Degradado_sin_nombre_2" x1="236.01" y1="166.74" x2="408.67" y2="491.47" gradientUnits="userSpaceOnUse"><stop offset="0" stop-color="#192647"/><stop offset="0" stop-color="#192647" stop-opacity="0.5"/><stop offset="1" stop-color="#192647" stop-opacity="0"/></linearGradient><linearGradient id="Degradado_sin_nombre_36" x1="336" y1="168.75" x2="442.6" y2="275.35" gradientUnits="userSpaceOnUse"><stop offset="0" stop-color="#fff" stop-opacity="0.5"/><stop offset="1" stop-color="#edf8f9" stop-opacity="0.2"/><stop offset="1" stop-color="#fff" stop-opacity="0"/></linearGradient><linearGradient id="Degradado_sin_nombre_36-2" x1="252.55" y1="233.43" x2="364.25" y2="345.13" xlink:href="#Degradado_sin_nombre_36"/><linearGradient id="Degradado_sin_nombre_7" x1="181.91" y1="163.57" x2="254.11" y2="201.96" gradientUnits="userSpaceOnUse"><stop offset="0.01" stop-color="#fff" stop-opacity="0.5"/><stop offset="1" stop-color="#fff" stop-opacity="0.1"/></linearGradient><linearGradient id="Degradado_sin_nombre_60" x1="334.51" y1="358" x2="208.54" y2="358" gradientUnits="userSpaceOnUse"><stop offset="0" stop-color="#028484" stop-opacity="0.3"/><stop offset="1" stop-color="#028484" stop-opacity="0"/></linearGradient><linearGradient id="Degradado_sin_nombre_4" x1="415.31" y1="225" x2="385.31" y2="225" gradientUnits="userSpaceOnUse"><stop offset="0.01" stop-color="#043263" stop-opacity="0.3"/><stop offset="1" stop-color="#043263" stop-opacity="0"/></linearGradient></defs><title>surtidor</title><path class="cls-1" d="M462.32,227.6h0a27.17,27.17,0,0,0-4.5.38v-1h0a31.39,31.39,0,0,0-1.38-9.21q-.28-.91-.61-1.8a31.44,31.44,0,0,0-3.36-6.53l-.48-.69a31.51,31.51,0,0,0-22.32-13.08,2.9,2.9,0,0,0-3.32,2.78c0,.07,0,.14,0,.21h0v9.07h0a3,3,0,0,0,.19,1.06,3,3,0,0,0,.9,1.24,3.07,3.07,0,0,0,1.47.66,16.32,16.32,0,0,1,3.54,1,16.8,16.8,0,0,1,8.75,8.14,17,17,0,0,1,1.64,7s0,.09,0,.14v8.94a26.9,26.9,0,0,0-7.5,18.66v52h0a3,3,0,0,0,3,3h4.5V441.3a10,10,0,0,1-10.69,10,10.24,10.24,0,0,1-9.31-10.33V385.09a25.93,25.93,0,0,0-.52-5.2,25.63,25.63,0,0,0-1.5-4.84q-.24-.58-.52-1.14a25.9,25.9,0,0,0-12.07-12.07q-.56-.27-1.14-.52a25.63,25.63,0,0,0-4.84-1.5,25.9,25.9,0,0,0-5.2-.52h-.63v-3.55a3,3,0,0,0-3-3h-8.88V327.84H385a3,3,0,0,0,3-3V318h5.34a3,3,0,0,0,3-3V191a23,23,0,0,0-23-23h-134a23,23,0,0,0-23,23V315a3,3,0,0,0,3,3h5.34v6.84a3,3,0,0,0,3,3h.54v155h-.89a11,11,0,0,0-11,11V498h180v-4.2a11,11,0,0,0-11-11h-.88V380.89h8.88a3,3,0,0,0,3-3V374.3H397a11,11,0,0,1,1.1.06,10.8,10.8,0,0,1,9.63,9.63,11,11,0,0,1,.06,1.1v55.64c0,14,11.44,25.8,25.43,25.56a25,25,0,0,0,24.57-25V309.6h4.5a3,3,0,0,0,3-3h0v-76A3,3,0,0,0,462.32,227.6Z"/><path class="cls-2" d="M383.24,416.3c-14,.24-25.43-11.58-25.43-25.56V335.09A10.79,10.79,0,0,0,347,324.3H331.31v-15H347a25.79,25.79,0,0,1,25.79,25.79v55.85a10.24,10.24,0,0,0,9.32,10.33,10,10,0,0,0,10.68-10V177a16.53,16.53,0,0,0-13.93-16.3,3,3,0,0,1-2.57-3v-9.07a3,3,0,0,1,3.34-3A31.55,31.55,0,0,1,407.81,177V391.3A25,25,0,0,1,383.24,416.3Z"/><path class="cls-3" d="M379.65,145.68a3,3,0,0,0-3.34,3v9.07a3,3,0,0,0,2.57,3A16.53,16.53,0,0,1,392.81,177V302.16l15-28.21V177A31.55,31.55,0,0,0,379.65,145.68Z"/><path class="cls-4" d="M347,309.3H331.31v15H347a10.79,10.79,0,0,1,10.79,10.79V368l15-28.21v-4.68A25.79,25.79,0,0,0,347,309.3Z"/><rect class="cls-5" x="178.28" y="268" width="156.23" height="180"/><path class="cls-6" d="M323.39,118h-134a23,23,0,0,0-23,23V265a3,3,0,0,0,3,3h174a3,3,0,0,0,3-3V141A23,23,0,0,0,323.39,118Z"/><rect class="cls-7" x="191.39" y="143" width="130" height="100" rx="3" ry="3"/><rect class="cls-8" x="206.39" y="158" width="100" height="24" rx="3" ry="3"/><rect class="cls-8" x="206.39" y="204" width="100" height="24" rx="3" ry="3"/><path class="cls-9" d="M194.79,143a3.59,3.59,0,0,0-3.4,3.75v92.5a3.59,3.59,0,0,0,3.4,3.75h37.5l48.21-100Z"/><path class="cls-6" d="M412.31,177.6h0a3,3,0,0,1,3,3v76a3,3,0,0,1-3,3h-24a3,3,0,0,1-3-3v-52A27,27,0,0,1,412.31,177.6Z"/><path class="cls-6" d="M334.51,302.75h8.89a3,3,0,0,1,3,3v22.14a3,3,0,0,1-3,3h-8.89a0,0,0,0,1,0,0V302.75A0,0,0,0,1,334.51,302.75Z"/><path class="cls-6" d="M177.39,432.8h158a11,11,0,0,1,11,11V448a0,0,0,0,1,0,0h-180a0,0,0,0,1,0,0v-4.2A11,11,0,0,1,177.39,432.8Z"/><polygon class="cls-10" points="334.51 268 304.25 268 208.54 448 334.51 448 334.51 268"/><path class="cls-11" d="M174.73,268H338a0,0,0,0,1,0,0v6.84a3,3,0,0,1-3,3H177.73a3,3,0,0,1-3-3V268A0,0,0,0,1,174.73,268Z"/><path class="cls-12" d="M385.31,246.81v9.79a3,3,0,0,0,3,3h24a3,3,0,0,0,3-3V190.39Z"/></svg>