<svg id="Contenido" xmlns="http://www.w3.org/2000/svg" xmlns:xlink="http://www.w3.org/1999/xlink" viewBox="0 0 600 600"><defs><style>.cls-1{fill:url(#Degradado_sin_nombre_42);}.cls-2{fill:#043263;}.cls-3{fill:#02a5a5;}.cls-4{fill:#028484;}.cls-5{fill:#072146;}.cls-6{fill:#56e2de;}.cls-7{fill:#2dcccd;}.cls-8{fill:#1464a5;}.cls-9{fill:url(#Degradado_sin_nombre_15);}.cls-10{fill:#f8cd50;}.cls-11{fill:url(#Degradado_sin_nombre_2);}.cls-12{fill:#d4edfc;}</style><linearGradient id="Degradado_sin_nombre_42" x1="268.17" y1="187.41" x2="454.91" y2="553.91" gradientUnits="userSpaceOnUse"><stop offset="0" stop-color="#192647" stop-opacity="0.5"/><stop offset="1" stop-color="#192647" stop-opacity="0"/></linearGradient><linearGradient id="Degradado_sin_nombre_15" x1="436.23" y1="416.18" x2="276.28" y2="416.18" gradientUnits="userSpaceOnUse"><stop offset="0" stop-color="#043263" stop-opacity="0.8"/><stop offset="1" stop-color="#043263" stop-opacity="0"/></linearGradient><linearGradient id="Degradado_sin_nombre_2" x1="251.13" y1="325.41" x2="295.7" y2="369.98" gradientUnits="userSpaceOnUse"><stop offset="0" stop-color="#fff" stop-opacity="0.6"/><stop offset="1" stop-color="#fff" stop-opacity="0.2"/></linearGradient></defs><title>seguro</title><path class="cls-1" d="M456,318.2c32.64-19.7,43.36-23.36,81.5-35.24l.44.31c0-.14,0-.28-.08-.42l.08,0-.1-.1C528.6,231.61,454.24,169.87,363,167.67V154.81a5,5,0,1,0-10,0v12.86c-91.24,2.2-165.6,63.94-174.79,115.05l-.1.1.08,0c0,.14-.06.28-.08.42l.44-.31c38.14,11.88,48.86,15.54,81.5,35.24,32.67-2.18,61.88.46,92.95,7.38v48.63c-.22,0-.45-.06-.67-.07a10.68,10.68,0,0,0-1.26,0,9.47,9.47,0,0,0-6.27,3.24,9.45,9.45,0,0,0-15.58,5.27,133.67,133.67,0,0,0-18.55,4.4,9.47,9.47,0,0,0-13.12,5.13c-1.26.6-2.49,1.23-3.68,1.87a9.47,9.47,0,0,0-15.89,7,9.29,9.29,0,0,0,.16,1.68,9.55,9.55,0,0,0-3.8,5.47h-.07A13.9,13.9,0,0,0,261,418L227.77,523.77h-.12a8.23,8.23,0,0,0-8.23,8.23,2.79,2.79,0,0,0,2.79,2.78H491.79a2.79,2.79,0,0,0,2.79-2.78,8.23,8.23,0,0,0-8.23-8.23h-.12L453,418a13.91,13.91,0,0,0-13.27-9.74h-.32a9.47,9.47,0,0,0-8.53-7.13c-.23,0-.44,0-.66,0a9.46,9.46,0,0,0-14.87-7.79c-2-1-4.11-2-6.3-2.91a9.48,9.48,0,0,0-10.28-8.23,11.2,11.2,0,0,0-1.31.23,9.46,9.46,0,0,0-15.46.4c-3.1-.53-6.26-1-9.5-1.31a9.48,9.48,0,0,0-6.65-4.71,7.8,7.8,0,0,0-1-.13,9.76,9.76,0,0,0-1.88.08V325.58C394.07,318.66,423.28,316,456,318.2Z"/><path class="cls-2" d="M308,135.8a5,5,0,0,1-5-5V105a5,5,0,0,1,10,0v25.8A5,5,0,0,1,308,135.8Z"/><path class="cls-3" d="M128.11,233c38.5,12,49.17,15.6,81.94,35.38l97.95-137C243.62,142.36,184.4,180.08,128.11,233Z"/><path class="cls-4" d="M210.05,268.39c34.42-2.3,65,.75,97.95,8.52V131.38C265,174.05,230.68,219.23,210.05,268.39Z"/><path class="cls-3" d="M487.89,233c-38.5,12-49.17,15.6-81.94,35.38L308,131.38C372.38,142.36,431.6,180.08,487.89,233Z"/><path class="cls-4" d="M406,268.39c-34.42-2.3-65,.75-97.95,8.52V131.38C349,174.15,382.62,219.46,406,268.39Z"/><rect class="cls-5" x="303" y="175.63" width="10" height="224.38"/><path class="cls-6" d="M308,117.8c-93.84,0-171,63.51-179.89,115.66,23.92-17.22,53.79-27.3,89.94-27.64h0Q234.68,153.09,308,117.8Z"/><path class="cls-6" d="M308,117.8c93.84,0,171,63.51,179.89,115.66C464,216.24,434.1,206.16,398,205.82h0Q381.32,153.09,308,117.8Z"/><path class="cls-7" d="M398,205.82q-16.63-52.73-89.95-88h0q-73.32,35.3-89.95,88c36-10.32,58.77-12.46,89.95-7.12h0C339.18,193.36,361.93,195.5,398,205.82Z"/><path class="cls-2" d="M177.65,474h258.7a8.22,8.22,0,0,1,8.22,8.22v0a2.78,2.78,0,0,1-2.78,2.78H172.21a2.78,2.78,0,0,1-2.78-2.78v0a8.22,8.22,0,0,1,8.22-8.22Z"/><path class="cls-8" d="M436.23,474H177.77L211,368.14a13.9,13.9,0,0,1,13.27-9.74H389.73A13.9,13.9,0,0,1,403,368.14Z"/><path class="cls-9" d="M389.73,358.4h-52L276.28,474h160L403,368.14A13.9,13.9,0,0,0,389.73,358.4Z"/><path class="cls-10" d="M362.93,342.76a37.57,37.57,0,0,0-21.53,4.61A37.64,37.64,0,0,0,283,344.63a37.66,37.66,0,0,0-60.51,13.77H390.38A37.61,37.61,0,0,0,362.93,342.76Z"/><path class="cls-11" d="M308.15,332.14A37.58,37.58,0,0,0,283,344.63a37.66,37.66,0,0,0-60.51,13.77h84.82l13.36-25.13A37.55,37.55,0,0,0,308.15,332.14Z"/><ellipse class="cls-12" cx="296.26" cy="394.62" rx="7.71" ry="10.34"/><ellipse class="cls-12" cx="280.03" cy="409.66" rx="7.71" ry="10.34"/><ellipse class="cls-12" cx="317.74" cy="394.62" rx="7.71" ry="10.34"/><ellipse class="cls-12" cx="333.97" cy="409.66" rx="7.71" ry="10.34"/><path class="cls-12" d="M332.89,440.59c-.73-8.41-5.37-29.27-25.8-29.53v0h-.38v0c-20.43.26-25.07,21.12-25.8,29.53-.65,7.47,5.75,10.54,11.26,8.45a73.08,73.08,0,0,1,9.35-2.59,25,25,0,0,1,10.76,0,73.08,73.08,0,0,1,9.35,2.59C327.14,451.13,333.54,448.06,332.89,440.59Z"/></svg>