<svg xmlns="http://www.w3.org/2000/svg" xmlns:xlink="http://www.w3.org/1999/xlink" viewBox="0 0 600 600"><defs><style>.cls-1{fill:none;}.cls-2{fill:url(#Degradado_sin_nombre_43);}.cls-3{fill:#2dcccd;}.cls-4{fill:#043263;}.cls-5{fill:#072146;}.cls-6{fill:url(#Degradado_sin_nombre_20);}</style><linearGradient id="Degradado_sin_nombre_43" x1="240.12" y1="-1927.45" x2="447.08" y2="-2316.68" gradientTransform="matrix(1, 0, 0, -1, 0, -1762)" gradientUnits="userSpaceOnUse"><stop offset="0" stop-color="#192647" stop-opacity="0.5"/><stop offset="1" stop-color="#192647" stop-opacity="0"/></linearGradient><linearGradient id="Degradado_sin_nombre_20" x1="453.96" y1="-2156.74" x2="231.38" y2="-2156.74" gradientTransform="matrix(1, 0, 0, -1, 0, -1762)" gradientUnits="userSpaceOnUse"><stop offset="0" stop-color="#043263" stop-opacity="0.8"/><stop offset="1" stop-color="#043263" stop-opacity="0.2"/></linearGradient></defs><title>4</title><g id="Cuadrados_Blancos" data-name="Cuadrados Blancos"><rect class="cls-1" width="600" height="600"/></g><g id="Capa_10" data-name="Capa 10"><path class="cls-2" d="M500.86,433.06l-62.92-37.35a16.43,16.43,0,0,0-20.89,3.45l-3.79,4.43a2.42,2.42,0,0,0,.26,3.41,2.8,2.8,0,0,0,.35.25l.12.07L392.46,432.5a11.72,11.72,0,0,1-14.83,2.5l-2.76-1.63c-8.92-5.24-21.63-14.23-33.3-22.83a246.14,246.14,0,0,1-52.08-52.09c-8.6-11.67-17.6-24.38-22.84-33.3L265,322.37a11.72,11.72,0,0,1,2.48-14.83L292.68,286l.07.12a2.42,2.42,0,0,0,3.31.86,2.22,2.22,0,0,0,.35-.25l4.43-3.79a16.43,16.43,0,0,0,3.45-20.89l-37.35-62.92a14.05,14.05,0,0,0-15-6.58l-9.49,2a2.43,2.43,0,0,0-1.58,3.6l.23.39-9.78,2.07A30.9,30.9,0,0,0,213,212.24l-3,4.08a108.87,108.87,0,0,0-14.33,25.48,47.85,47.85,0,0,0-3.37,19h0a182.72,182.72,0,0,0,13.94,65.08h0a314.07,314.07,0,0,0,46.54,77.82l.78,1a290.36,290.36,0,0,0,41.77,41.77l1,.78a314.07,314.07,0,0,0,77.82,46.54h0a182.72,182.72,0,0,0,65.08,13.94h0a47.85,47.85,0,0,0,19-3.37A108.79,108.79,0,0,0,483.68,490l4.08-3.07a30.89,30.89,0,0,0,11.62-18.28l2.07-9.78.39.23a2.43,2.43,0,0,0,3.32-.85,2.4,2.4,0,0,0,.28-.73l2-9.49A14,14,0,0,0,500.86,433.06Z"/><path class="cls-3" d="M366.25,298.57a10,10,0,0,1-8.84-14.67,31.27,31.27,0,0,0-42.23-42.23A10,10,0,1,1,305.1,224.4a6.72,6.72,0,0,1,.75-.4,51.26,51.26,0,0,1,69.25,69.25A10,10,0,0,1,366.25,298.57Z"/><path class="cls-3" d="M396.67,314.6a10,10,0,0,1-8.84-14.67,65.65,65.65,0,0,0-88.68-88.68,10,10,0,0,1-9.87-17.4l.54-.28A85.63,85.63,0,0,1,405.51,309.25,10,10,0,0,1,396.67,314.6Z"/><path class="cls-3" d="M427.08,330.63A10,10,0,0,1,418.25,316,100.06,100.06,0,0,0,283.12,180.8a10,10,0,0,1-9.33-17.69A120.06,120.06,0,0,1,435.94,325.29,10,10,0,0,1,427.08,330.63Z"/><path class="cls-4" d="M163,162.24l-3,4.08a108.87,108.87,0,0,0-14.33,25.48h0a47.85,47.85,0,0,0-3.37,19h0a182.72,182.72,0,0,0,13.94,65.08h0a314.07,314.07,0,0,0,46.54,77.82l.78,1a290.36,290.36,0,0,0,41.77,41.77l1,.78a314.07,314.07,0,0,0,77.82,46.54h0a182.72,182.72,0,0,0,65.08,13.94h0a47.85,47.85,0,0,0,19-3.37h0A108.79,108.79,0,0,0,433.68,440l4.08-3.07a30.89,30.89,0,0,0,11.62-18.28l4.3-20.3a13.27,13.27,0,0,0-6.21-14.16L388.07,349a15.52,15.52,0,0,0-19.72,3.26L342.46,382.5a11.72,11.72,0,0,1-14.83,2.5l-2.76-1.63c-8.92-5.24-21.63-14.23-33.3-22.83a246.14,246.14,0,0,1-52.08-52.09c-8.6-11.67-17.6-24.38-22.84-33.3L215,272.37a11.72,11.72,0,0,1,2.48-14.83l30.28-25.89A15.52,15.52,0,0,0,251,211.93l-35.26-59.4a13.27,13.27,0,0,0-14.16-6.21l-20.3,4.3A30.89,30.89,0,0,0,163,162.24Z"/><path class="cls-5" d="M201.94,142.56a14.05,14.05,0,0,1,15,6.58l37.35,62.92A16.42,16.42,0,0,1,250.84,233l-4.43,3.79a2.42,2.42,0,0,1-3.41-.26,2.8,2.8,0,0,1-.25-.35l-51.88-88a2.43,2.43,0,0,1,.85-3.32,2.4,2.4,0,0,1,.73-.28Z"/><path class="cls-6" d="M447.47,384.22,388.07,349a15.52,15.52,0,0,0-19.72,3.26L342.46,382.5a11.72,11.72,0,0,1-14.83,2.5l-2.76-1.63c-8.92-5.24-21.63-14.23-33.3-22.83A247.61,247.61,0,0,1,259,331.73l-27.62,52.62q6.76,6.27,13.92,12.12l1,.78a314.07,314.07,0,0,0,77.82,46.54h0a182.72,182.72,0,0,0,65.08,13.94h0a47.85,47.85,0,0,0,19-3.37A109,109,0,0,0,433.68,440l4.08-3.07a30.89,30.89,0,0,0,11.62-18.28l4.3-20.3A13.28,13.28,0,0,0,447.47,384.22Z"/><path class="cls-5" d="M457.44,398.06a14.05,14.05,0,0,0-6.58-15l-62.92-37.35a16.43,16.43,0,0,0-20.89,3.45l-3.79,4.43a2.42,2.42,0,0,0,.26,3.41,2.8,2.8,0,0,0,.35.25l88,51.88a2.43,2.43,0,0,0,3.32-.85,2.4,2.4,0,0,0,.28-.73Z"/></g></svg>