<svg xmlns="http://www.w3.org/2000/svg" xmlns:xlink="http://www.w3.org/1999/xlink" viewBox="0 0 600 600"><defs><style>.cls-1{fill:none;}.cls-2{fill:url(#Degradado_sin_nombre_193);}.cls-3{fill:#1464a5;}.cls-4{fill:url(#Degradado_sin_nombre_22);}.cls-5{fill:#004481;}.cls-6{fill:#d4edfc;}.cls-7{fill:#49a5e6;}.cls-8{fill:#fff;}.cls-9{fill:#2dcccd;}.cls-10{fill:url(#Degradado_sin_nombre_21);}.cls-11{fill:url(#Degradado_sin_nombre_18);}.cls-12{fill:#f8cd50;}.cls-13{fill:url(#Degradado_sin_nombre_17);}.cls-14{fill:#043263;}</style><linearGradient id="Degradado_sin_nombre_193" x1="222.52" y1="148.3" x2="445.51" y2="567.68" gradientUnits="userSpaceOnUse"><stop offset="0" stop-color="#192647" stop-opacity="0.5"/><stop offset="1" stop-color="#192647" stop-opacity="0"/></linearGradient><linearGradient id="Degradado_sin_nombre_22" x1="497" y1="343.25" x2="226.4" y2="343.25" gradientUnits="userSpaceOnUse"><stop offset="0" stop-color="#043263" stop-opacity="0.3"/><stop offset="1" stop-color="#043263" stop-opacity="0"/></linearGradient><linearGradient id="Degradado_sin_nombre_21" x1="207" y1="318.37" x2="111" y2="318.37" gradientUnits="userSpaceOnUse"><stop offset="0" stop-color="#043263" stop-opacity="0.2"/><stop offset="1" stop-color="#043263" stop-opacity="0"/></linearGradient><linearGradient id="Degradado_sin_nombre_18" x1="271.48" y1="153.28" x2="377.83" y2="259.63" gradientUnits="userSpaceOnUse"><stop offset="0.01" stop-color="#fff" stop-opacity="0.4"/><stop offset="1" stop-color="#ebf6f7" stop-opacity="0"/><stop offset="1" stop-color="#fff" stop-opacity="0.2"/></linearGradient><linearGradient id="Degradado_sin_nombre_17" x1="336.85" y1="312.9" x2="353.52" y2="329.57" gradientUnits="userSpaceOnUse"><stop offset="0" stop-color="#eaf9fa" stop-opacity="0.7"/><stop offset="1" stop-color="#e8f7f8" stop-opacity="0.1"/><stop offset="1" stop-color="#eaf9fa" stop-opacity="0.5"/></linearGradient></defs><title>6</title><g id="Cuadrados_Blancos" data-name="Cuadrados Blancos"><rect class="cls-1" width="600" height="600"/><rect class="cls-1" width="600" height="600"/></g><g id="Capa_28" data-name="Capa 28"><path class="cls-2" d="M535,268H520V195.5a24,24,0,0,0-24-24H304a24,24,0,0,0-24,24V268H253.63q1-33.45,3.07-66.87L257,197a23.9,23.9,0,0,0-23.73-25.5H184.78A23.9,23.9,0,0,0,161.05,197l.25,4.13q2.07,33.42,3.07,66.87H151a12,12,0,0,0-12,12V506.5a12,12,0,0,0,12,12H535a12,12,0,0,0,12-12V280A12,12,0,0,0,535,268Z"/><rect class="cls-3" x="89" y="218" width="408" height="250.5" rx="12"/><path class="cls-4" d="M485,218H359.6L226.4,468.5H485a12,12,0,0,0,12-12V230A12,12,0,0,0,485,218Z"/><path class="cls-5" d="M230,145.5v157a24,24,0,0,0,24,24h55.75a12,12,0,0,1,11.49,8.57,30,30,0,0,0,57.52,0,12,12,0,0,1,11.49-8.57H446a24,24,0,0,0,24-24v-157a24,24,0,0,0-24-24H254A24,24,0,0,0,230,145.5Z"/><rect class="cls-6" x="260" y="153" width="180" height="142" rx="6"/><rect class="cls-7" x="265" y="158" width="170" height="132" rx="3"/><rect class="cls-6" x="245" y="365.5" width="18" height="16" rx="3"/><rect class="cls-6" x="271" y="365.5" width="18" height="16" rx="3"/><rect class="cls-6" x="245" y="389.5" width="18" height="16" rx="3"/><rect class="cls-6" x="271" y="389.5" width="18" height="16" rx="3"/><rect class="cls-6" x="245" y="413.5" width="18" height="16" rx="3"/><rect class="cls-6" x="271" y="413.5" width="18" height="16" rx="3"/><rect class="cls-6" x="297" y="365.5" width="18" height="16" rx="3"/><rect class="cls-6" x="297" y="389.5" width="18" height="16" rx="3"/><rect class="cls-6" x="297" y="413.5" width="18" height="16" rx="3"/><path class="cls-8" d="M377.26,212.4l-8.6,16.39a.52.52,0,0,1-.9,0l-8.61-16.39a.48.48,0,0,0-.44-.27h-4.16a.38.38,0,0,0-.33.55l13.55,25.39a.5.5,0,0,0,.88,0l13.55-25.39a.38.38,0,0,0-.33-.55H377.7a.5.5,0,0,0-.44.27"/><path class="cls-8" d="M382.15,234.27l8.6-16.39a.51.51,0,0,1,.9,0l8.61,16.39a.51.51,0,0,0,.44.26h4.16a.38.38,0,0,0,.33-.55L391.64,208.6a.49.49,0,0,0-.88,0L377.21,234a.38.38,0,0,0,.33.55h4.17a.51.51,0,0,0,.44-.26"/><path class="cls-8" d="M317.81,234.53h-7.75a.5.5,0,0,1-.5-.5v-7a.49.49,0,0,1,.5-.49h7.75c3.7,0,5.35,1,5.35,4s-1.62,4-5.35,4m-7.75-18.61h7.65c2.82,0,4.25,1.21,4.25,3.43s-1.43,3.43-4.25,3.43h-7.65a.5.5,0,0,1-.5-.5v-5.86a.5.5,0,0,1,.5-.5m13.31,8.3a5.63,5.63,0,0,0,2.92-5.24c0-4.08-3.18-6.85-7.66-6.85h-12.9a.5.5,0,0,0-.5.5v25.2a.5.5,0,0,0,.5.5h12.33c6.17,0,9.42-2.66,9.42-7.86a6.2,6.2,0,0,0-4.11-6.25"/><path class="cls-8" d="M344.26,234.53h-7.75a.5.5,0,0,1-.5-.5v-7a.49.49,0,0,1,.5-.49h7.75c3.69,0,5.34,1,5.34,4s-1.61,4-5.34,4m-7.75-18.61h7.65c2.81,0,4.25,1.21,4.25,3.43s-1.43,3.43-4.25,3.43h-7.65a.5.5,0,0,1-.5-.5v-5.86a.5.5,0,0,1,.5-.5m13.31,8.3a5.63,5.63,0,0,0,2.92-5.24c0-4.08-3.18-6.85-7.67-6.85H332.18a.5.5,0,0,0-.5.5v25.2a.5.5,0,0,0,.5.5h12.33c6.17,0,9.42-2.66,9.42-7.86a6.2,6.2,0,0,0-4.11-6.25"/><path class="cls-9" d="M134.78,441.5h48.44A23.9,23.9,0,0,0,207,416l-.25-4.13a2108.13,2108.13,0,0,1,0-260.74L207,147a23.9,23.9,0,0,0-23.73-25.5H134.78A23.9,23.9,0,0,0,111.05,147l.25,4.13a2108.13,2108.13,0,0,1,0,260.74l-.25,4.13A23.9,23.9,0,0,0,134.78,441.5Z"/><path class="cls-10" d="M206.7,411.87a2109.76,2109.76,0,0,1-2.26-216.63L113.63,366q-.91,22.94-2.33,45.84l-.25,4.13a23.9,23.9,0,0,0,23.73,25.5h48.44A23.9,23.9,0,0,0,207,416Z"/><path class="cls-11" d="M268,158a3,3,0,0,0-3,3V287a3,3,0,0,0,3,3h79.46l70.18-132Z"/><circle class="cls-12" cx="350" cy="325.5" r="18.21"/><path class="cls-13" d="M350,307.29a18.21,18.21,0,0,0-8.51,34.31l17.1-32.16A18.14,18.14,0,0,0,350,307.29Z"/><rect class="cls-14" x="385" y="365.5" width="70" height="8" rx="4"/><rect class="cls-14" x="385" y="421.5" width="70" height="8" rx="4"/><rect class="cls-14" x="385" y="407.5" width="70" height="8" rx="4"/><rect class="cls-14" x="385" y="393.5" width="70" height="8" rx="4"/><rect class="cls-14" x="385" y="379.5" width="70" height="8" rx="4"/></g></svg>