<svg id="Contenido" xmlns="http://www.w3.org/2000/svg" xmlns:xlink="http://www.w3.org/1999/xlink" viewBox="0 0 600 600"><defs><style>.cls-1{fill:url(#Degradado_sin_nombre_7);}.cls-2{fill:#2dcccd;}.cls-3{fill:url(#Degradado_sin_nombre_3);}.cls-4{fill:#e9f8f9;}.cls-5{fill:#39cbcb;}</style><linearGradient id="Degradado_sin_nombre_7" x1="258.28" y1="177.13" x2="443.7" y2="525.86" gradientUnits="userSpaceOnUse"><stop offset="0" stop-color="#192647"/><stop offset="0" stop-color="#192647" stop-opacity="0.5"/><stop offset="1" stop-color="#192647" stop-opacity="0"/></linearGradient><linearGradient id="Degradado_sin_nombre_3" x1="460" y1="300" x2="208.71" y2="300" gradientUnits="userSpaceOnUse"><stop offset="0" stop-color="#028484" stop-opacity="0.4"/><stop offset="1" stop-color="#028484" stop-opacity="0"/></linearGradient></defs><title>GLOMO</title><path class="cls-1" d="M515.06,288.27H507.4V229.21a24,24,0,0,0-24-24h-272a24,24,0,0,0-24,24v59.06H156.67a38.4,38.4,0,1,0,0,76.8h30.76v55.67a24,24,0,0,0,24,24h243l47.66,47.61a3.13,3.13,0,0,0,5.34-2.22l0-17.53V365.07h7.66a38.4,38.4,0,1,0,0-76.8Z"/><path class="cls-2" d="M436,156H164a24,24,0,0,0-24,24V371.5a24,24,0,0,0,24,24H407l47.66,47.61a3.13,3.13,0,0,0,5.34-2.22l0-17.52V180A24,24,0,0,0,436,156Z"/><path class="cls-3" d="M436,156H377.14L208.71,395.47H407l47.66,47.61a3.13,3.13,0,0,0,5.34-2.22l0-15.95V180A24,24,0,0,0,436,156Z"/><path class="cls-4" d="M517.59,277.43a38.42,38.42,0,0,1-38.4,38.4H120.81a38.42,38.42,0,0,1-38.4-38.4h0A38.36,38.36,0,0,1,120.81,239H479.19a38.35,38.35,0,0,1,38.4,38.39Z"/><path class="cls-5" d="M188.75,276.41a22.26,22.26,0,1,1-22.26-22.26A22.21,22.21,0,0,1,188.75,276.41Z"/><path class="cls-5" d="M277.79,276.41a22.26,22.26,0,1,1-22.26-22.26A22.21,22.21,0,0,1,277.79,276.41Z"/><path class="cls-5" d="M366.73,276.41a22.26,22.26,0,1,1-22.26-22.26A22.2,22.2,0,0,1,366.73,276.41Z"/><path class="cls-5" d="M455.77,276.41a22.26,22.26,0,1,1-22.26-22.26A22.2,22.2,0,0,1,455.77,276.41Z"/></svg>