<svg id="Contenido" xmlns="http://www.w3.org/2000/svg" xmlns:xlink="http://www.w3.org/1999/xlink" viewBox="0 0 600 600"><defs><style>.cls-1{fill:url(#Degradado_sin_nombre_47);}.cls-2{fill:#c49735;}.cls-3{fill:url(#Degradado_sin_nombre_60);}.cls-4{fill:#fade8e;}.cls-5{fill:#d44b50;}.cls-6{fill:url(#Degradado_sin_nombre_19);}.cls-7{fill:url(#Degradado_sin_nombre_19-2);}.cls-8{fill:url(#Degradado_sin_nombre_19-3);}.cls-9{fill:#1464a5;}</style><linearGradient id="Degradado_sin_nombre_47" x1="240.97" y1="257.98" x2="383.47" y2="525.99" gradientUnits="userSpaceOnUse"><stop offset="0" stop-color="#1a2746" stop-opacity="0.5"/><stop offset="1" stop-color="#1a2746" stop-opacity="0"/></linearGradient><linearGradient id="Degradado_sin_nombre_60" x1="453.31" y1="426.55" x2="298.84" y2="426.55" gradientUnits="userSpaceOnUse"><stop offset="0" stop-color="#634e16" stop-opacity="0.2"/><stop offset="1" stop-color="#634e16" stop-opacity="0.1"/></linearGradient><linearGradient id="Degradado_sin_nombre_19" x1="367.11" y1="261.89" x2="323.43" y2="261.89" gradientUnits="userSpaceOnUse"><stop offset="0" stop-color="#c1475f" stop-opacity="0.8"/><stop offset="1" stop-color="#c1475f" stop-opacity="0.2"/></linearGradient><linearGradient id="Degradado_sin_nombre_19-2" x1="261.44" y1="340.65" x2="216.74" y2="340.65" xlink:href="#Degradado_sin_nombre_19"/><linearGradient id="Degradado_sin_nombre_19-3" x1="387.93" y1="379.8" x2="350.41" y2="379.8" xlink:href="#Degradado_sin_nombre_19"/></defs><title>values-day</title><path class="cls-1" d="M494.88,457.17l-7.65-14.59A8.48,8.48,0,0,0,479.4,438a8.67,8.67,0,0,0-1.59.21l-.17.05a2,2,0,0,0-.14-.34l-66.45-126.8L355.86,205.83a7.88,7.88,0,0,0-2.12-2.56,7.49,7.49,0,0,0-1.81-1.05,8.52,8.52,0,0,0-1-.33,8.25,8.25,0,0,0-2-.26,7,7,0,0,0-1,.07,7.7,7.7,0,0,0-5.91,4.13L270.34,342.55c-.41-.08-.82-.16-1.23-.22a2.57,2.57,0,0,0-2.68,1.34l-30.39,58a2.56,2.56,0,0,0,.42,3c.29.31.59.6.89.89l-17,32.44a2,2,0,0,0-.14.34,8.5,8.5,0,0,0-9.59,4.29L203,457.17a8.53,8.53,0,0,0,3.83,11.61,321.52,321.52,0,0,0,134.58,32.8h0l3.63.07,3.92,0a324.49,324.49,0,0,0,42.31-2.75q4.62-.6,9.2-1.34,9.13-1.47,18.12-3.44,4.49-1,8.92-2.1,15.52-3.89,30.44-9.24c2.84-1,5.66-2.07,8.46-3.17q12.6-4.92,24.67-10.85a8.31,8.31,0,0,0,1.49-.93c.23-.18.45-.37.66-.56a8.36,8.36,0,0,0,1.1-1.28,9.1,9.1,0,0,0,.82-1.46,8.49,8.49,0,0,0-.24-7.38Z"/><path class="cls-2" d="M444.69,399.27a8.52,8.52,0,0,0-11-3.82,318.8,318.8,0,0,1-254.65,0,8.52,8.52,0,0,0-11,3.82l-7.65,14.6a8.52,8.52,0,0,0,3.83,11.6,323.43,323.43,0,0,0,284.25,0,8.52,8.52,0,0,0,3.83-11.6Z"/><path class="cls-3" d="M452.34,413.87l-7.65-14.6a8.52,8.52,0,0,0-11-3.82,316.61,316.61,0,0,1-115.45,26.3l-19.42,36.52c2.51.06,5,.1,7.54.1a321.55,321.55,0,0,0,142.13-32.9A8.52,8.52,0,0,0,452.34,413.87Z"/><path class="cls-4" d="M306.38,428.83a278.34,278.34,0,0,0,127.5-30.73,2.55,2.55,0,0,0,1.08-3.46L313.32,162.52a7.83,7.83,0,0,0-13.87,0L177.81,394.64a2.55,2.55,0,0,0,1.08,3.46A278.33,278.33,0,0,0,306.38,428.83Z"/><path class="cls-5" d="M349.55,232.6A29.72,29.72,0,1,0,367.06,266a2.52,2.52,0,0,0-.25-1.68l-16-30.57A2.54,2.54,0,0,0,349.55,232.6Z"/><path class="cls-6" d="M366.81,264.33,351,234.1l-27.53,51.78A29.71,29.71,0,0,0,367.06,266,2.52,2.52,0,0,0,366.81,264.33Z"/><path class="cls-5" d="M227.39,300,197,358a2.56,2.56,0,0,0,.42,3,37.13,37.13,0,1,0,32.65-62.29A2.57,2.57,0,0,0,227.39,300Z"/><path class="cls-7" d="M250.21,308.78l-33.47,63a37.08,37.08,0,0,0,44.69-35.62A37,37,0,0,0,250.21,308.78Z"/><circle class="cls-5" cx="362.4" cy="378.31" r="25.52"/><path class="cls-8" d="M374.38,355.76l-24,45.08a25.53,25.53,0,1,0,24-45.08Z"/><path class="cls-9" d="M307.58,353.53a39.76,39.76,0,0,1,27.5-13.4A2.37,2.37,0,0,0,336.6,336a30.77,30.77,0,0,0-5.39-3.85,32.68,32.68,0,0,0-40.6,6.87,32.33,32.33,0,0,0,3.09,45.36l.11.1a2.37,2.37,0,0,0,3.88-2A39.77,39.77,0,0,1,307.58,353.53Z"/><path class="cls-9" d="M273,269.58a28.88,28.88,0,0,1-18.21,12.74,1.72,1.72,0,0,0-.63,3.12,22.43,22.43,0,0,0,4.3,2.15,23.74,23.74,0,0,0,28.36-9.53,23.5,23.5,0,0,0-7.36-32.2l-.09-.06a1.73,1.73,0,0,0-2.56,1.89A28.83,28.83,0,0,1,273,269.58Z"/></svg>