<?xml version="1.0" encoding="utf-8"?>
<!-- Generator: Adobe Illustrator 23.0.1, SVG Export Plug-In . SVG Version: 6.00 Build 0)  -->
<svg version="1.1" id="Contenido" xmlns="http://www.w3.org/2000/svg" xmlns:xlink="http://www.w3.org/1999/xlink" x="0px" y="0px"
	 viewBox="0 0 600 600" style="enable-background:new 0 0 600 600;" xml:space="preserve">
<style type="text/css">
	.st0{fill:url(#SVGID_1_);}
	.st1{fill:#1464A5;}
	.st2{fill:url(#SVGID_2_);}
	.st3{fill:#004481;}
	.st4{fill:#D4EDFC;}
	.st5{fill:#49A5E6;}
	.st6{fill:#DA3951;}
	.st7{fill:#043263;}
	.st8{opacity:0.5;}
	.st9{fill:url(#SVGID_3_);}
	.st10{fill:#D8EBF9;}
	.st11{fill:url(#SVGID_4_);}
	.st12{fill:#69C8CA;}
	.st13{fill:url(#SVGID_5_);}
	.st14{opacity:0.35;fill:#043263;enable-background:new    ;}
	.st15{fill:#123161;}
	.st16{fill:#4AA2A4;}
	.st17{fill:#3A8183;}
	.st18{fill:#0E2045;}
	.st19{fill:#7FDEDD;}
	.st20{fill:#65C8CB;}
	.st21{fill:url(#SVGID_6_);}
	.st22{fill:#2DCCCD;}
</style>
<title>Plan Estar Seguro</title>
<linearGradient id="SVGID_1_" gradientUnits="userSpaceOnUse" x1="236.8302" y1="441.041" x2="441.2325" y2="56.618" gradientTransform="matrix(1 0 0 -1 0 600)">
	<stop  offset="0" style="stop-color:#1C2645"/>
	<stop  offset="0" style="stop-color:#1C2645;stop-opacity:0.5"/>
	<stop  offset="1" style="stop-color:#1C2645;stop-opacity:0"/>
</linearGradient>
<path class="st0" d="M536.4,422.7v-14.9c0-4.6-3.7-8.4-8.3-8.4c0,0,0,0,0,0h-14.9v1.1h-20.3v-6.2c0-4.6-3.7-8.4-8.4-8.4l0,0h-26.9
	c-4.6,0-8.4,3.7-8.4,8.4l0,0v6.2h-10.8h0h-7.6l-76.4-48.6v-66.7c31.1-6.9,60.3-9.6,93-7.4c32.6-19.7,43.4-23.4,81.5-35.2l0.4,0.3
	c0-0.1-0.1-0.3-0.1-0.4h0.1l-0.1-0.1c-9.2-51.1-83.5-112.9-174.8-115v-12.9c0-2.8-2.2-5-5-5s-5,2.2-5,5v12.9
	c-91.2,2.2-165.6,63.9-174.8,115.1l-0.1,0.1h0.1c0,0.1-0.1,0.3-0.1,0.4l0.4-0.3c38.1,11.9,48.8,15.5,81.5,35.2
	c32.7-2.2,61.9,0.5,92.9,7.4v65.2L260.3,404h-16.3c-5.4,0-10.4,2.3-13.9,6.4l-0.1,0.2l-0.2,0.3v0h-0.2l-15.1,19.4l-2.4,3.1l0,0
	l-31.3,2.5c-7,0.4-13.3,4.4-16.8,10.5h-1.1c-0.6,0-1.1,0.4-1.3,1l-1.8,5.2c-0.3,0.8,0.1,1.6,0.9,1.8c0.1,0,0.2,0.1,0.3,0.1l-1.8,5.9
	c-1.8,0.7-3.2,2.2-3.6,4.1l-2,8.5l0,0c-0.8,3.4,1.3,6.7,4.7,7.5c0.5,0.1,0.9,0.2,1.4,0.2h19.4c4.3,11.5,17.2,17.4,28.8,13
	c6-2.3,10.7-7,13-13h57.1v31.6h141v-17.1h14.9V495h79.5v1.1h14.9c4.6,0,8.3-3.7,8.3-8.4c0,0,0,0,0,0v-14.9l0,0L536.4,422.7
	L536.4,422.7z M454.3,394c0-1.8,1.5-3.3,3.3-3.3h26.9c1.8,0,3.3,1.5,3.3,3.3c0,0,0,0,0,0v6.5h-33.5V394z"/>
<path class="st1" d="M110.7,402.9l-6.8,22.5l151.3,3.7l59.1-27.6l-2.7-10.6c-0.8-3.1-3.4-5.5-6.5-5.9l-22.4-3.2l-21-19.7
	c-4.3-3.7-9.7-5.7-15.4-5.7h-53.8c-5.4,0-10.5,2.3-13.9,6.4l-18.2,23l-31.3,2.5C120.6,388.8,113.2,394.7,110.7,402.9z"/>
<path class="st1" d="M102.1,425.4c-0.8,3.4,1.3,6.7,4.7,7.5c0.5,0.1,0.9,0.2,1.4,0.2h166.7c0.3,0,0.6,0,0.9-0.1l30.7-6.8
	c4.6-1,7.8-5.1,7.9-9.8l0,0l-39.9,8.7L102.1,425.4z"/>
<path class="st1" d="M264.2,384.9c-3.4,0.6-6.9,0.9-10.4,0.9h-93.3l17.8-22.5c3.8-4.4,9.2-6.9,15-6.9h53.2c5.6,0,11.1,2,15.4,5.7
	l21,19.7L264.2,384.9z"/>
<linearGradient id="SVGID_2_" gradientUnits="userSpaceOnUse" x1="314.29" y1="209.255" x2="199.47" y2="209.255" gradientTransform="matrix(1 0 0 -1 0 600)">
	<stop  offset="0" style="stop-color:#043263"/>
	<stop  offset="1" style="stop-color:#043263;stop-opacity:0"/>
</linearGradient>
<path class="st2" d="M314.3,401.5l-2.7-10.6c-0.8-3.1-3.4-5.5-6.5-5.9l-22.4-3.2l-21-19.7c-4.3-3.7-9.7-5.7-15.4-5.7h-10.9
	l-36.1,68.7h56.6L314.3,401.5z"/>
<path class="st3" d="M102.1,425.4l174.2-0.3l38-8.6v-20.8c0-2.5-2-4.5-4.5-4.5c-0.1,0-0.1,0-0.2,0l-200.5,21.2
	c-2.5,0.2-4.5,2-5.1,4.5L102.1,425.4z"/>
<path class="st4" d="M109.7,406.9h4.6c4.3,0,8-3.2,8.6-7.5l0,0c0.1-0.5-0.3-0.9-0.7-1c-0.1,0-0.1,0-0.2,0l-10.5,0.4
	c-0.6,0-1.1,0.4-1.3,1l-1.8,5.2c-0.3,0.8,0.1,1.6,0.9,1.8C109.3,406.8,109.5,406.9,109.7,406.9z"/>
<path class="st5" d="M240.1,363.3h-61.8l-17.6,22.4c0,0,0,0.1,0,0.1c0,0,0,0,0,0l104.5-2.7c0.8,0,1.5-0.7,1.5-1.5
	c0-0.4-0.2-0.9-0.6-1.1l-14.7-13.2C248.1,364.7,244.2,363.3,240.1,363.3z"/>
<path class="st6" d="M315.2,399.6h-6.8c-2.1,0-3.9,1.6-4.1,3.7c-0.1,2.2,1.6,4.1,3.8,4.2c0.1,0,0.1,0,0.2,0h6.9
	c0.8,0,1.5-0.7,1.5-1.5v-5C316.7,400.2,316,399.6,315.2,399.6z"/>
<circle class="st4" cx="148.5" cy="425.2" r="18.6"/>
<path class="st7" d="M126.2,425.2c0-12.3,10-22.3,22.3-22.3s22.3,10,22.3,22.3c0,12.3-10,22.3-22.3,22.3h0
	C136.2,447.5,126.2,437.5,126.2,425.2z M134.3,425.2c0,7.8,6.4,14.2,14.2,14.2s14.2-6.4,14.2-14.2s-6.4-14.2-14.2-14.2
	C140.7,411,134.3,417.4,134.3,425.2z"/>
<circle class="st4" cx="274.7" cy="425.2" r="18.6"/>
<path class="st7" d="M252.3,425.2c0-12.3,10-22.3,22.3-22.3s22.3,10,22.3,22.3s-10,22.3-22.3,22.3h0
	C262.3,447.5,252.4,437.5,252.3,425.2z M260.5,425.2c0,7.8,6.4,14.2,14.2,14.2s14.2-6.4,14.2-14.2s-6.4-14.2-14.2-14.2
	C266.8,411,260.5,417.4,260.5,425.2z"/>
<polygon class="st7" points="218.6,363.3 226.5,363.3 234.4,383.9 219.6,384.3 "/>
<g class="st8">
	
		<linearGradient id="SVGID_3_" gradientUnits="userSpaceOnUse" x1="170.7017" y1="233.2467" x2="199.7483" y2="217.8033" gradientTransform="matrix(1 0 0 -1 0 600)">
		<stop  offset="0" style="stop-color:#EAF9FA"/>
		<stop  offset="1" style="stop-color:#EBF7F8;stop-opacity:0.2"/>
		<stop  offset="1" style="stop-color:#EAF9FA;stop-opacity:0.5"/>
	</linearGradient>
	<polygon class="st9" points="209.8,363.3 178.1,363.3 160.7,385.6 197.3,384.8 	"/>
</g>
<path class="st10" d="M433.1,338.4h-26.9c-4.6,0-8.4,3.7-8.4,8.3c0,0,0,0,0,0v6.2h5.1v-6.5c0-1.8,1.4-3.3,3.2-3.3c0,0,0,0,0,0h26.9
	c1.8,0,3.3,1.4,3.3,3.2c0,0,0,0,0,0v6.5h5.1v-6.2C441.5,342.2,437.8,338.5,433.1,338.4L433.1,338.4L433.1,338.4z"/>
<path class="st10" d="M361.6,353h115.1c4.6,0,8.4,3.7,8.4,8.3c0,0,0,0,0,0l0,0v77.7c0,4.6-3.7,8.4-8.4,8.4l0,0h-114
	c-4.6,0-8.4-3.7-8.4-8.4l0,0v-78.9C354.4,356.3,357.6,353,361.6,353z"/>
<linearGradient id="SVGID_4_" gradientUnits="userSpaceOnUse" x1="485.07" y1="-1800.52" x2="394.72" y2="-1800.52" gradientTransform="matrix(1 0 0 1 0 2200.72)">
	<stop  offset="0" style="stop-color:#153260;stop-opacity:0.15"/>
	<stop  offset="1" style="stop-color:#153260;stop-opacity:0"/>
</linearGradient>
<path class="st11" d="M476.7,353H446l-51.3,94.4h82c4.6,0,8.4-3.7,8.4-8.4l0,0v-77.7C485.1,356.7,481.3,353,476.7,353z"/>
<path class="st12" d="M361.6,351.9h14.9v3.4c0,0.6-0.4,1-1,1.1c-9.6,0.5-17.3,8.2-17.8,17.8c-0.1,0.6-0.5,1-1.1,1h-3.3v-14.9
	C353.2,355.6,357,351.9,361.6,351.9C361.6,351.9,361.6,351.9,361.6,351.9L361.6,351.9z"/>
<path class="st12" d="M476.7,351.9h-14.9v3.4c0,0.6,0.4,1,1,1.1c9.6,0.5,17.3,8.2,17.8,17.8c0.1,0.6,0.5,1,1.1,1h3.3v-14.9
	C485.1,355.6,481.4,351.9,476.7,351.9C476.7,351.9,476.7,351.9,476.7,351.9L476.7,351.9z"/>
<path class="st12" d="M476.7,448.5h-14.9v-3.3c0-0.6,0.4-1,1-1.1c9.6-0.5,17.3-8.2,17.8-17.8c0-0.6,0.5-1,1.1-1h3.3v14.9
	C485.1,444.8,481.4,448.5,476.7,448.5L476.7,448.5L476.7,448.5z"/>
<path class="st12" d="M441.1,392.6h-13.8v-13.8c0-0.4-0.3-0.8-0.8-0.8h-13.6c-0.4,0-0.8,0.3-0.8,0.8v13.8h-13.8
	c-0.4,0-0.8,0.3-0.8,0.8V407c0,0.4,0.3,0.8,0.8,0.8h13.8v13.8c0,0.4,0.3,0.8,0.8,0.8h13.6c0.4,0,0.8-0.3,0.8-0.8v-13.8h13.8
	c0.4,0,0.8-0.3,0.8-0.8v-13.6C441.9,392.9,441.5,392.6,441.1,392.6z"/>
<linearGradient id="SVGID_5_" gradientUnits="userSpaceOnUse" x1="441.86" y1="-1795.85" x2="412.11" y2="-1795.85" gradientTransform="matrix(1 0 0 1 0 2200.72)">
	<stop  offset="1.000000e-02" style="stop-color:#3D8182;stop-opacity:0.3"/>
	<stop  offset="1" style="stop-color:#3D8182;stop-opacity:0.1"/>
</linearGradient>
<path class="st13" d="M441.1,392.6h-13.8v-5.2l-15.2,28v6.2c0,0.4,0.3,0.8,0.8,0.8h13.6c0.4,0,0.8-0.3,0.8-0.8v-13.8h13.8
	c0.4,0,0.8-0.3,0.8-0.8v-13.6C441.9,392.9,441.5,392.6,441.1,392.6z"/>
<path class="st14" d="M278.5,447.6h103.8v-63.5l19.7-2.7l2.2-3.4c3.5-5.6,1.9-12.9-3.7-16.5l-13.5-8.6H278.4L278.5,447.6z"/>
<path class="st15" d="M298.1,97.7c-2.8,0-5-2.2-5-5V66.9c0-2.8,2.2-5,5-5s5,2.2,5,5v25.8C303.1,95.4,300.9,97.7,298.1,97.7
	L298.1,97.7z"/>
<path class="st16" d="M118.2,194.9c38.5,12,49.2,15.6,82,35.4l97.9-137C233.7,104.2,174.5,142,118.2,194.9z"/>
<path class="st17" d="M200.2,230.3c34.4-2.3,65,0.8,97.9,8.5V93.3C255.1,135.9,220.8,181.1,200.2,230.3z"/>
<path class="st16" d="M478,194.9c-38.5,12-49.2,15.6-81.9,35.4l-98-137C362.5,104.2,421.7,142,478,194.9z"/>
<path class="st17" d="M396,230.3c-34.4-2.3-65,0.8-98,8.5V93.3C339,136,372.7,181.3,396,230.3z"/>
<rect x="293.1" y="137.5" class="st18" width="10" height="224.4"/>
<path class="st19" d="M298.1,79.7c-93.8,0-171,63.5-179.9,115.7c23.9-17.2,53.8-27.3,90-27.6l0,0
	C219.3,132.6,249.2,103.2,298.1,79.7z"/>
<path class="st19" d="M298.1,79.7c93.9,0,171,63.5,179.9,115.7c-23.9-17.2-53.8-27.3-89.9-27.6l0,0C377,132.6,347,103.2,298.1,79.7z
	"/>
<path class="st20" d="M388,167.7c-11.1-35.1-41.1-64.5-89.9-88l0,0l0,0h0l0,0c-48.9,23.5-78.9,52.9-89.9,88
	c36-10.3,58.8-12.5,89.9-7.1l0,0h0l0,0l0,0C329.3,155.2,352,157.4,388,167.7z"/>
<path class="st14" d="M314.8,433.4l-103.8-0.7v-44.9l-19.7-2.8l-2.2-3.4c-3.5-5.6-1.9-12.9,3.7-16.5c0,0,0,0,0,0l13.5-8.6h108.7
	L314.8,433.4z"/>
<polygon class="st7" points="206.4,377.3 296.9,389.9 387.5,377.3 296.9,319.4 "/>
<polygon class="st1" points="226.4,364 296.9,319.4 367.4,364 367.4,464.7 226.4,464.7 "/>
<linearGradient id="SVGID_6_" gradientUnits="userSpaceOnUse" x1="367.42" y1="200.535" x2="246.4" y2="200.535" gradientTransform="matrix(1 0 0 -1 0 600)">
	<stop  offset="0" style="stop-color:#043263;stop-opacity:0.8"/>
	<stop  offset="1" style="stop-color:#043263;stop-opacity:0"/>
</linearGradient>
<polyline class="st21" points="319.7,334.2 367.4,364 367.4,464.7 246.4,463.6 "/>
<path class="st22" d="M286.9,396.9H307c4.4,0,7.9,3.5,7.9,7.9v0v59.8l0,0H279l0,0v-59.9C279,400.5,282.5,397,286.9,396.9z"/>
<path class="st3" d="M296.1,301l-88.2,56.1c-5.7,3.6-7.3,11.1-3.7,16.8c0,0,0,0,0,0l2.2,3.5l90.6-57.6l90.6,57.6l2.2-3.5
	c3.6-5.7,2-13.2-3.7-16.8c0,0,0,0,0,0L297.8,301C297.3,300.7,296.6,300.7,296.1,301z"/>
</svg>
