<svg id="Contenido" xmlns="http://www.w3.org/2000/svg" xmlns:xlink="http://www.w3.org/1999/xlink" viewBox="0 0 600 600"><defs><style>.cls-1{fill:url(#Degradado_sin_nombre);}.cls-2{fill:#0065aa;}.cls-3{fill:#5bbeff;}.cls-4{fill:#1c447d;}.cls-5{fill:#2dcccd;}.cls-6{fill:url(#Degradado_sin_nombre_2);}.cls-7{fill:url(#Degradado_sin_nombre_3);}.cls-8{fill:#e7d5a5;}.cls-9{fill:#b79e5d;}.cls-10{fill:#028484;}.cls-11{opacity:0.43;isolation:isolate;fill:url(#Degradado_sin_nombre_4);}.cls-12{fill:none;}</style><linearGradient id="Degradado_sin_nombre" x1="271.71" y1="-2888.18" x2="422.39" y2="-2604.8" gradientTransform="translate(0 3131.17)" gradientUnits="userSpaceOnUse"><stop offset="0" stop-color="#1a2746" stop-opacity="0.5"/><stop offset="1" stop-color="#1a2746" stop-opacity="0"/></linearGradient><linearGradient id="Degradado_sin_nombre_2" x1="33.29" y1="-1148.64" x2="-94.8" y2="-1080.52" gradientTransform="translate(-190.23 1369.45) rotate(28.11)" gradientUnits="userSpaceOnUse"><stop offset="0" stop-color="#043263" stop-opacity="0.5"/><stop offset="1" stop-color="#043263" stop-opacity="0"/></linearGradient><linearGradient id="Degradado_sin_nombre_3" x1="-17.53" y1="-1321.9" x2="-74.59" y2="-1321.9" gradientTransform="translate(-190.23 1369.45) rotate(28.11)" gradientUnits="userSpaceOnUse"><stop offset="0.02" stop-color="#028484" stop-opacity="0.2"/><stop offset="1" stop-color="#028484" stop-opacity="0"/></linearGradient><linearGradient id="Degradado_sin_nombre_4" x1="527.88" y1="-3217.17" x2="501.81" y2="-3217.17" gradientTransform="matrix(0.99, -0.17, 0.17, 0.99, 235.26, 3681.54)" gradientUnits="userSpaceOnUse"><stop offset="0" stop-color="#028484"/><stop offset="1" stop-color="#028484" stop-opacity="0"/></linearGradient></defs><path class="cls-1" d="M423.2,276.7a5.16,5.16,0,0,0,6.95-2.13l43.41-81.64a5.45,5.45,0,0,0,.35-.87,2.5,2.5,0,0,0,.07-.26,5,5,0,0,0,.13-.67,1,1,0,0,0,0-.24,4,4,0,0,0,0-.85v-.27a2.94,2.94,0,0,0-.12-.59,1.7,1.7,0,0,0-.1-.32,2.27,2.27,0,0,0-.23-.54,2.16,2.16,0,0,0-.17-.34,5.69,5.69,0,0,0-.33-.52h0a5.07,5.07,0,0,0-1.7-1.49l-43.85-23.31a5.13,5.13,0,0,0-6.93,2.1h0L377.26,246.4a5.08,5.08,0,0,0,.42,5.45h0a4.19,4.19,0,0,0,.57.62,1,1,0,0,0,.17.18,5.34,5.34,0,0,0,.92.63l3,1.62-6.82,12.84a2.62,2.62,0,0,0,1.06,3.48l5.25,2.81-15.28,28.73a5.14,5.14,0,0,1-6.94,2.13h0l-4.91-2.62h0l-10.2-5.42a20.55,20.55,0,0,0-27.65,8.57L277.94,378.6c-8.19,15.42-8.63,41.77-5.25,63.79v.13c.09.55.17,1.09.26,1.62v.21c.08.51.17,1,.26,1.55v.23l.28,1.5v.29c.09.48.18,1,.29,1.44h0a169.48,169.48,0,0,0-24.95-2.12,24.23,24.23,0,0,0,2.63-9.41V436h0v-.16a.26.26,0,0,0-.1-.19.6.6,0,0,0-.52-.25c-7.09-.38-12,1.38-15.27,4v-6.63a71.44,71.44,0,0,1,2.7-19.34,6.39,6.39,0,0,0-4.53-7.82h0l-.25-.06h-.18a6.4,6.4,0,0,0-7.54,4.5,84.88,84.88,0,0,0-3.16,22.8v16.2c-15.06,3.15-30.95,12.61-47.76,42.6-2,3.61,2.73,7.72,6.87,7.72h290.9c4.66,0-2-10.27-16.95-13.83-55.74-13.31-61.32-41.1-85.12-46.34l-.28.3a49.82,49.82,0,0,0,5.92-8.56l38.9-73.16c.32-.6.6-1.22.86-1.84l.24-.64c.14-.41.3-.81.42-1.22s.14-.54.21-.82.2-.72.26-1.09.11-.59.16-.88.1-.68.13-1a5.84,5.84,0,0,1,.08-.93,4.18,4.18,0,0,0,0-1v-1.89a8.27,8.27,0,0,0-.11-1,4.78,4.78,0,0,0-.13-.88c-.05-.29-.12-.67-.19-1a.48.48,0,0,0-.07-.31h0A20.49,20.49,0,0,0,406.63,330l-11.82-6.25L391.47,322a5.12,5.12,0,0,1-2.14-6.92v0h0l15.27-28.73,5.25,2.81a2.62,2.62,0,0,0,3.48-1.06l6.83-12.86Z"/><path class="cls-2" d="M305.11,259.08a20.56,20.56,0,0,0-27.8,8.49l-38.89,73.18c-15.14,28.45-3.82,94.2,9.26,101.1s73.88-20.43,89-48.88l38.9-73.17A20.55,20.55,0,0,0,367.1,292h0Z"/><path class="cls-3" d="M349.86,277.05l15.27-28.73-22.68-12.06L327.18,265a5.15,5.15,0,0,1-6.95,2.12l-4.92-2.62-13.06,24.56A23.53,23.53,0,0,0,312,320.88h0a23.54,23.54,0,0,0,31.84-9.73h0l13.06-24.56L352,284A5.15,5.15,0,0,1,349.86,277.05Z"/><path class="cls-4" d="M342.93,217.12l37.8,20.1h0l-6.84,12.85a2.63,2.63,0,0,1-3.55,1.09L337.12,233.5A2.62,2.62,0,0,1,336,230l6.83-12.86Z"/><rect class="cls-5" x="334.58" y="151.84" width="102.75" height="59.94" rx="5.13" transform="translate(44.23 437.24) rotate(-62)"/><path class="cls-6" d="M232.93,402.82c2.78,19.38,8.56,35.78,14.75,39.06,13.06,6.94,73.88-20.43,89-48.89l38.9-73.16a20.47,20.47,0,0,0,1.83-14.44Z"/><path class="cls-7" d="M433.71,149.6,338.2,214a5.15,5.15,0,0,0,1.7,1.48l43.91,23.32a5.13,5.13,0,0,0,6.94-2.12h0L434.16,155A5.15,5.15,0,0,0,433.71,149.6Z"/><path class="cls-8" d="M416.18,447.59c-55.73-13.31-61.32-41.1-85.13-46.34-8.31,9.72-18,16.88-28.95,23.52a78.08,78.08,0,0,1-30.3-3.22h0a179.65,179.65,0,0,0-68.28-12.16c-20.88.52-43.41.63-67.9,44.32-2,3.61,2.73,7.72,6.87,7.72H433.13c4.66,0-2-10.27-16.95-13.83"/><ellipse class="cls-9" cx="189.74" cy="425.92" rx="13.72" ry="6.83"/><path class="cls-10" d="M196.24,394.9A71.9,71.9,0,0,1,199,375.56a6.38,6.38,0,0,0-4.49-7.81l-.3-.07H194a6.39,6.39,0,0,0-7.54,4.5A85.69,85.69,0,0,0,183.3,395v30.46a3.05,3.05,0,0,0,2.08,2.9l.21.07a12.77,12.77,0,0,0,8.06.06l.48-.16a3,3,0,0,0,2.13-2.91Z"/><path class="cls-5" d="M211.53,397.52c-21.72-1.14-22.52,17.57-22.5,20.67a.46.46,0,0,0,.44.47c3.11.31,21.93,1.22,22.66-20.53,0-.38-.17-.58-.6-.61"/><path class="cls-11" d="M211.8,397.77l-22.46,20.55a.21.21,0,0,0,0,.28h.13c3.14.3,22.06,1.22,22.75-20.71a.22.22,0,0,0-.19-.25h0l-.12.07"/><rect class="cls-12" width="600" height="600"/></svg>