<svg id="Contenido" xmlns="http://www.w3.org/2000/svg" xmlns:xlink="http://www.w3.org/1999/xlink" viewBox="0 0 600 600"><defs><style>.cls-1{fill:url(#Degradado_sin_nombre);}.cls-2{fill:#112f61;}.cls-3{fill:#5bbeff;}.cls-4{fill:#2dcccd;}.cls-5{fill:url(#Degradado_sin_nombre_2);}.cls-6{fill:url(#Degradado_sin_nombre_3);}.cls-7{fill:#e7d5a5;}.cls-8{fill:#b79e5d;}.cls-9{fill:#028484;}.cls-10{opacity:0.43;isolation:isolate;fill:url(#Degradado_sin_nombre_4);}.cls-11{fill:none;}</style><linearGradient id="Degradado_sin_nombre" x1="271.71" y1="-1299.49" x2="422.39" y2="-1016.12" gradientTransform="translate(0 1556.04)" gradientUnits="userSpaceOnUse"><stop offset="0" stop-color="#1a2746" stop-opacity="0.5"/><stop offset="1" stop-color="#1a2746" stop-opacity="0"/></linearGradient><linearGradient id="Degradado_sin_nombre_2" x1="411.38" y1="350.01" x2="283.29" y2="418.12" gradientTransform="translate(179.5 -113.48) rotate(28.11)" gradientUnits="userSpaceOnUse"><stop offset="0" stop-color="#192647"/><stop offset="1" stop-color="#192647" stop-opacity="0"/></linearGradient><linearGradient id="Degradado_sin_nombre_3" x1="358.54" y1="175.83" x2="301.49" y2="175.83" gradientTransform="translate(179.5 -113.48) rotate(28.11)" gradientUnits="userSpaceOnUse"><stop offset="0.02" stop-color="#028484" stop-opacity="0.2"/><stop offset="1" stop-color="#028484" stop-opacity="0"/></linearGradient><linearGradient id="Degradado_sin_nombre_4" x1="393.32" y1="-1647.09" x2="367.24" y2="-1647.09" gradientTransform="matrix(0.99, -0.17, 0.17, 0.99, 102.97, 2117.61)" gradientUnits="userSpaceOnUse"><stop offset="0" stop-color="#028484"/><stop offset="1" stop-color="#028484" stop-opacity="0"/></linearGradient></defs><path class="cls-1" d="M423.2,290.26a5.16,5.16,0,0,0,6.95-2.13l43.41-81.65a5.35,5.35,0,0,0,.35-.86,2.68,2.68,0,0,0,.07-.27,5,5,0,0,0,.13-.67.89.89,0,0,0,0-.23,4.12,4.12,0,0,0,0-.86v-.26a2.94,2.94,0,0,0-.12-.59c0-.11-.06-.22-.1-.33l-.23-.54a3.59,3.59,0,0,0-.17-.34,4.45,4.45,0,0,0-.33-.51h0a5.21,5.21,0,0,0-1.7-1.5l-43.85-23.3a5.11,5.11,0,0,0-6.92,2.08v0h0L377.25,260a5.08,5.08,0,0,0,.42,5.45h0a4.76,4.76,0,0,0,.57.62l.17.18a6.25,6.25,0,0,0,.92.63l3,1.62-6.82,12.84a2.62,2.62,0,0,0,1.06,3.48l5.25,2.81-15.28,28.73a5.14,5.14,0,0,1-6.94,2.13h0l-4.91-2.62h0l-10.2-5.43A20.57,20.57,0,0,0,316.85,319l-38.91,73.16c-8.19,15.42-8.63,41.77-5.25,63.79v.13c.09.55.17,1.09.26,1.61v.21c.08.52.17,1,.26,1.55v.24l.28,1.5v.29c.09.48.18.95.29,1.44h0a170.86,170.86,0,0,0-24.95-2.13,24.13,24.13,0,0,0,2.63-9.4v-1.84h0v-.15a.23.23,0,0,0-.1-.19.59.59,0,0,0-.52-.25c-7.09-.38-12,1.38-15.27,4v-6.63a71.44,71.44,0,0,1,2.7-19.34,6.39,6.39,0,0,0-4.53-7.82h0l-.25-.06h-.18a6.39,6.39,0,0,0-7.54,4.5,84.88,84.88,0,0,0-3.16,22.8v16.2c-15.06,3.15-30.95,12.6-47.76,42.59-2,3.61,2.73,7.72,6.87,7.72h290.9c4.66,0-2-10.26-16.95-13.82-55.74-13.32-61.32-41.1-85.12-46.34l-.28.3a49.82,49.82,0,0,0,5.92-8.56l38.9-73.16c.32-.61.6-1.22.86-1.84l.24-.64c.14-.41.3-.82.42-1.22s.14-.54.21-.82.2-.72.26-1.09.11-.59.16-.88.1-.68.13-1a5.84,5.84,0,0,1,.08-.93,4.18,4.18,0,0,0,0-1V360a8.27,8.27,0,0,0-.11-1,4.78,4.78,0,0,0-.13-.88c-.05-.29-.12-.67-.19-1a.48.48,0,0,0-.07-.31h0a20.49,20.49,0,0,0-10.31-13.33l-11.82-6.25-3.34-1.79a5.13,5.13,0,0,1-2.13-6.93h0l15.27-28.73,5.25,2.81a2.64,2.64,0,0,0,3.48-1.07l6.83-12.85Z"/><path class="cls-2" d="M305.11,272.63a20.57,20.57,0,0,0-27.8,8.5l-38.89,73.18c-15.14,28.45-3.82,94.19,9.26,101.1s73.88-20.43,89-48.88l38.9-73.17a20.55,20.55,0,0,0-8.5-27.79Z"/><path class="cls-3" d="M349.86,290.61l15.27-28.73-22.68-12.07-15.27,28.73a5.16,5.16,0,0,1-6.95,2.13L315.31,278l-13.06,24.57a23.53,23.53,0,0,0,9.69,31.84l.06,0h0a23.54,23.54,0,0,0,31.84-9.73h0l13.06-24.56-4.9-2.62A5.15,5.15,0,0,1,349.86,290.61Z"/><path class="cls-2" d="M342.93,230.68l37.8,20.09h0l-6.84,12.86a2.63,2.63,0,0,1-3.55,1.09l-33.22-17.66a2.62,2.62,0,0,1-1.13-3.54v0l6.83-12.85Z"/><rect class="cls-4" x="334.58" y="165.4" width="102.75" height="59.94" rx="5.13" transform="translate(32.26 444.43) rotate(-62)"/><path class="cls-5" d="M232.93,416.37c2.78,19.38,8.56,35.78,14.75,39.07,13.06,6.94,73.88-20.43,89-48.89l38.9-73.16A20.49,20.49,0,0,0,377.43,319Z"/><path class="cls-6" d="M433.71,163.15,338.2,227.58a5.07,5.07,0,0,0,1.7,1.49l43.91,23.32a5.13,5.13,0,0,0,6.94-2.12h0l43.41-81.64A5.16,5.16,0,0,0,433.71,163.15Z"/><path class="cls-7" d="M416.18,461.15c-55.73-13.32-61.32-41.1-85.13-46.34-8.31,9.72-18,16.87-28.95,23.52a78.08,78.08,0,0,1-30.3-3.22h0A179.64,179.64,0,0,0,203.52,423c-20.88.51-43.41.63-67.9,44.32-2,3.61,2.73,7.72,6.87,7.72H433.13c4.66,0-2-10.27-16.95-13.83"/><ellipse class="cls-8" cx="189.74" cy="439.48" rx="13.72" ry="6.83"/><path class="cls-9" d="M196.24,408.46A71.91,71.91,0,0,1,199,389.11a6.37,6.37,0,0,0-4.49-7.8l-.3-.07H194a6.39,6.39,0,0,0-7.54,4.5,85.67,85.67,0,0,0-3.16,22.79V439a3.05,3.05,0,0,0,2.08,2.9l.21.06a12.7,12.7,0,0,0,8.06.07l.48-.16a3,3,0,0,0,2.13-2.91Z"/><path class="cls-4" d="M211.53,411.08c-21.72-1.14-22.52,17.57-22.5,20.67a.46.46,0,0,0,.44.47c3.11.3,21.93,1.22,22.66-20.53,0-.39-.17-.58-.6-.61"/><path class="cls-10" d="M211.8,411.33l-22.46,20.55a.21.21,0,0,0,0,.28h.13c3.14.3,22.06,1.22,22.75-20.71a.22.22,0,0,0-.19-.25h0l-.12.07"/><rect class="cls-11" width="600" height="600"/></svg>