<svg xmlns="http://www.w3.org/2000/svg" xmlns:xlink="http://www.w3.org/1999/xlink" viewBox="0 0 600 600"><defs><style>.cls-1{fill:none;}.cls-2{fill:url(#Degradado_sin_nombre_196);}.cls-16,.cls-3{fill:#043263;}.cls-4{fill:url(#Degradado_sin_nombre_5);}.cls-5{fill:#004481;}.cls-6{fill:#d4edfc;}.cls-7{fill:#49a5e6;}.cls-8{fill:#da3951;}.cls-9{fill:#0e2045;}.cls-10{opacity:0.5;}.cls-11{fill:url(#Degradado_sin_nombre_50);}.cls-12{fill:#072146;}.cls-13{fill:url(#Degradado_sin_nombre_70);}.cls-14{fill:#69c8ca;}.cls-15{fill:url(#Degradado_sin_nombre_39);}.cls-16{opacity:0.35;isolation:isolate;}.cls-17{fill:#123161;}.cls-18{fill:#02a5a5;}.cls-19{fill:#028484;}.cls-20{fill:#56e2de;}.cls-21{fill:#2dcccd;}.cls-22{fill:url(#Degradado_sin_nombre_64);}</style><linearGradient id="Degradado_sin_nombre_196" x1="236.92" y1="196.98" x2="441.34" y2="581.44" gradientUnits="userSpaceOnUse"><stop offset="0" stop-color="#1c2645" stop-opacity="0.5"/><stop offset="1" stop-color="#1c2645" stop-opacity="0"/></linearGradient><linearGradient id="Degradado_sin_nombre_5" x1="314.3" y1="428.75" x2="199.48" y2="428.75" gradientUnits="userSpaceOnUse"><stop offset="0" stop-color="#043263"/><stop offset="1" stop-color="#043263" stop-opacity="0"/></linearGradient><linearGradient id="Degradado_sin_nombre_50" x1="170.73" y1="404.73" x2="199.77" y2="420.17" gradientUnits="userSpaceOnUse"><stop offset="0" stop-color="#eaf9fa"/><stop offset="1" stop-color="#ebf7f8" stop-opacity="0.2"/><stop offset="1" stop-color="#eaf9fa" stop-opacity="0.5"/></linearGradient><linearGradient id="Degradado_sin_nombre_70" x1="485.1" y1="-7331.48" x2="394.7" y2="-7331.48" gradientTransform="matrix(1, 0, 0, -1, 0, -6893.28)" gradientUnits="userSpaceOnUse"><stop offset="0" stop-color="#004481" stop-opacity="0.6"/><stop offset="1" stop-color="#004481" stop-opacity="0"/></linearGradient><linearGradient id="Degradado_sin_nombre_39" x1="441.86" y1="-7336.18" x2="412.11" y2="-7336.18" gradientTransform="matrix(1, 0, 0, -1, 0, -6893.28)" gradientUnits="userSpaceOnUse"><stop offset="0" stop-color="#043263" stop-opacity="0.1"/><stop offset="1" stop-color="#043263" stop-opacity="0"/></linearGradient><linearGradient id="Degradado_sin_nombre_64" x1="367.4" y1="437.45" x2="246.4" y2="437.45" gradientUnits="userSpaceOnUse"><stop offset="0" stop-color="#043263" stop-opacity="0.4"/><stop offset="1" stop-color="#043263" stop-opacity="0"/></linearGradient></defs><title>13</title><g id="Cuadrados_Blancos" data-name="Cuadrados Blancos"><rect class="cls-1" width="600" height="600"/></g><g id="Capa_60" data-name="Capa 60"><path class="cls-2" d="M536.4,460.7V445.8a8.37,8.37,0,0,0-8.3-8.4H513.2v1.1H492.9v-6.2a8.39,8.39,0,0,0-8.4-8.4H457.6a8.39,8.39,0,0,0-8.4,8.4h0v6.2H430.8l-76.4-48.6V323.2c31.1-6.9,60.3-9.6,93-7.4,32.6-19.7,43.4-23.4,81.5-35.2l.4.3c0-.1-.1-.3-.1-.4h.1l-.1-.1c-9.2-51.1-83.5-112.9-174.8-115V152.5a5,5,0,0,0-10,0v12.9c-91.2,2.2-165.6,63.9-174.8,115.1l-.1.1h.1c0,.1-.1.3-.1.4l.4-.3c38.1,11.9,48.8,15.5,81.5,35.2,32.7-2.2,61.9.5,92.9,7.4v65.2l-84,53.5H244a18.12,18.12,0,0,0-13.9,6.4l-.1.2-.2.3h-.2l-15.1,19.4-2.4,3.1h0l-31.3,2.5A20.81,20.81,0,0,0,164,484.4h-1.1a1.38,1.38,0,0,0-1.3,1l-1.8,5.2a1.31,1.31,0,0,0,.9,1.8c.1,0,.2.1.3.1l-1.8,5.9a5.73,5.73,0,0,0-3.6,4.1l-2,8.5h0a6.21,6.21,0,0,0,4.7,7.5,6.75,6.75,0,0,0,1.4.2h19.4a22.34,22.34,0,0,0,41.8,0H278v31.6H419V533.2h14.9V533h79.5v1.1h14.9a8.3,8.3,0,0,0,8.3-8.4h0V510.8h0l-.2-50.1ZM454.3,432a3.33,3.33,0,0,1,3.3-3.3h26.9a3.33,3.33,0,0,1,3.3,3.3h0v6.5H454.3V432Z"/><path class="cls-3" d="M110.7,440.9l-6.8,22.5,151.3,3.7,59.1-27.6-2.7-10.6a7.91,7.91,0,0,0-6.5-5.9l-22.4-3.2-21-19.7a23.46,23.46,0,0,0-15.4-5.7H192.5a18,18,0,0,0-13.9,6.4l-18.2,23-31.3,2.5A20.67,20.67,0,0,0,110.7,440.9Z"/><path class="cls-3" d="M102.1,463.4a6.21,6.21,0,0,0,4.7,7.5,6.75,6.75,0,0,0,1.4.2H274.9a2.77,2.77,0,0,0,.9-.1l30.7-6.8a10.16,10.16,0,0,0,7.9-9.8h0l-39.9,8.7Z"/><path class="cls-3" d="M264.2,422.9a60,60,0,0,1-10.4.9H160.5l17.8-22.5a19.71,19.71,0,0,1,15-6.9h53.2a23.66,23.66,0,0,1,15.4,5.7l21,19.7Z"/><path class="cls-4" d="M314.3,439.5l-2.7-10.6a7.91,7.91,0,0,0-6.5-5.9l-22.4-3.2-21-19.7a23.46,23.46,0,0,0-15.4-5.7H235.4l-36.1,68.7h56.6Z"/><path class="cls-5" d="M102.1,463.4l174.2-.3,38-8.6V433.7a4.48,4.48,0,0,0-4.5-4.5h-.2L109.1,450.4a5.73,5.73,0,0,0-5.1,4.5Z"/><path class="cls-6" d="M109.7,444.9h4.6a8.71,8.71,0,0,0,8.6-7.5h0a.9.9,0,0,0-.7-1H122l-10.5.4a1.38,1.38,0,0,0-1.3,1l-1.8,5.2a1.31,1.31,0,0,0,.9,1.8A1,1,0,0,0,109.7,444.9Z"/><path class="cls-7" d="M240.1,401.3H178.3l-17.6,22.4v.1h0l104.5-2.7a1.54,1.54,0,0,0,1.5-1.5,1.25,1.25,0,0,0-.6-1.1l-14.7-13.2A18.13,18.13,0,0,0,240.1,401.3Z"/><path class="cls-8" d="M315.2,437.6h-6.8a4.12,4.12,0,0,0-4.1,3.7,4,4,0,0,0,3.8,4.2h7.1a1.54,1.54,0,0,0,1.5-1.5v-5A1.45,1.45,0,0,0,315.2,437.6Z"/><circle class="cls-6" cx="148.5" cy="463.2" r="18.6"/><path class="cls-9" d="M126.2,463.2a22.3,22.3,0,1,1,22.3,22.3h0A22.32,22.32,0,0,1,126.2,463.2Zm8.1,0A14.2,14.2,0,1,0,148.5,449,14.25,14.25,0,0,0,134.3,463.2Z"/><circle class="cls-6" cx="274.7" cy="463.2" r="18.6"/><path class="cls-3" d="M252.3,463.2a22.3,22.3,0,1,1,22.3,22.3h0A22.38,22.38,0,0,1,252.3,463.2Zm8.2,0A14.2,14.2,0,1,0,274.7,449,14.25,14.25,0,0,0,260.5,463.2Z"/><polygon class="cls-3" points="218.6 401.3 226.5 401.3 234.4 421.9 219.6 422.3 218.6 401.3"/><g class="cls-10"><polygon class="cls-11" points="209.8 401.3 178.1 401.3 160.7 423.6 197.3 422.8 209.8 401.3"/></g><path class="cls-12" d="M433.1,376.4H406.2a8.37,8.37,0,0,0-8.4,8.3h0v6.2h5.1v-6.5a3.24,3.24,0,0,1,3.2-3.3H433a3.24,3.24,0,0,1,3.3,3.2h0v6.5h5.1v-6.2a8.26,8.26,0,0,0-8.3-8.2Z"/><path class="cls-7" d="M361.6,391H476.7a8.37,8.37,0,0,1,8.4,8.3h0V477a8.39,8.39,0,0,1-8.4,8.4h-114a8.39,8.39,0,0,1-8.4-8.4h0V398.1A7.37,7.37,0,0,1,361.6,391Z"/><path class="cls-13" d="M476.7,391H446l-51.3,94.4h82a8.39,8.39,0,0,0,8.4-8.4h0V399.3A8.37,8.37,0,0,0,476.7,391Z"/><path class="cls-14" d="M361.6,389.9h14.9v3.4a1.09,1.09,0,0,1-1,1.1,18.83,18.83,0,0,0-17.8,17.8,1.09,1.09,0,0,1-1.1,1h-3.3V398.3a8.24,8.24,0,0,1,8.3-8.4Z"/><path class="cls-3" d="M476.7,389.9H461.8v3.4a1.09,1.09,0,0,0,1,1.1,18.83,18.83,0,0,1,17.8,17.8,1.09,1.09,0,0,0,1.1,1H485V398.3a8.18,8.18,0,0,0-8.3-8.4Z"/><path class="cls-3" d="M476.7,486.5H461.8v-3.3a1.09,1.09,0,0,1,1-1.1,18.83,18.83,0,0,0,17.8-17.8,1,1,0,0,1,1.1-1H485v14.9a8.16,8.16,0,0,1-8.3,8.3Z"/><path class="cls-6" d="M441.1,430.6H427.3V416.8a.79.79,0,0,0-.8-.8H412.9a.79.79,0,0,0-.8.8v13.8H398.3a.79.79,0,0,0-.8.8V445a.79.79,0,0,0,.8.8h13.8v13.8a.79.79,0,0,0,.8.8h13.6a.79.79,0,0,0,.8-.8V445.8h13.8a.79.79,0,0,0,.8-.8V431.4A.79.79,0,0,0,441.1,430.6Z"/><path class="cls-15" d="M441.1,430.6H427.3v-5.2l-15.2,28v6.2a.79.79,0,0,0,.8.8h13.6a.79.79,0,0,0,.8-.8V445.8h13.8a.79.79,0,0,0,.8-.8V431.4A.79.79,0,0,0,441.1,430.6Z"/><path class="cls-16" d="M278.5,485.6H382.3V422.1l19.7-2.7,2.2-3.4a12,12,0,0,0-3.7-16.5L387,390.9H278.4Z"/><path class="cls-17" d="M298.1,135.7a5,5,0,0,1-5-5V104.9a5,5,0,1,1,10,0v25.8a5,5,0,0,1-5,5Z"/><path class="cls-18" d="M118.2,232.9c38.5,12,49.2,15.6,82,35.4l97.9-137C233.7,142.2,174.5,180,118.2,232.9Z"/><path class="cls-19" d="M200.2,268.3c34.4-2.3,65,.8,97.9,8.5V131.3C255.1,173.9,220.8,219.1,200.2,268.3Z"/><path class="cls-18" d="M478,232.9c-38.5,12-49.2,15.6-81.9,35.4l-98-137C362.5,142.2,421.7,180,478,232.9Z"/><path class="cls-19" d="M396,268.3c-34.4-2.3-65,.8-98,8.5V131.3C339,174,372.7,219.3,396,268.3Z"/><rect class="cls-9" x="293.1" y="175.5" width="10" height="224.4"/><path class="cls-20" d="M298.1,117.7c-93.8,0-171,63.5-179.9,115.7,23.9-17.2,53.8-27.3,90-27.6h0Q224.85,153,298.1,117.7Z"/><path class="cls-20" d="M298.1,117.7c93.9,0,171,63.5,179.9,115.7-23.9-17.2-53.8-27.3-89.9-27.6h0Q371.45,153,298.1,117.7Z"/><path class="cls-21" d="M388,205.7q-16.65-52.65-89.9-88h0q-73.35,35.25-89.9,88c36-10.3,58.8-12.5,89.9-7.1h0C329.3,193.2,352,195.4,388,205.7Z"/><path class="cls-16" d="M314.8,471.4,211,470.7V425.8L191.3,423l-2.2-3.4a12,12,0,0,1,3.7-16.5h0l13.5-8.6H315Z"/><polygon class="cls-12" points="206.4 415.3 296.9 427.9 387.5 415.3 296.9 357.4 206.4 415.3"/><polygon class="cls-7" points="226.4 402 296.9 357.4 367.4 402 367.4 502.7 226.4 502.7 226.4 402"/><polygon class="cls-22" points="319.7 372.2 367.4 402 367.4 502.7 246.4 501.6 319.7 372.2"/><path class="cls-21" d="M286.9,434.9H307a7.85,7.85,0,0,1,7.9,7.9h0v59.8H279V442.7A8,8,0,0,1,286.9,434.9Z"/><path class="cls-3" d="M296.1,339l-88.2,56.1a12.13,12.13,0,0,0-3.7,16.8h0l2.2,3.5L297,357.8l90.6,57.6,2.2-3.5a12.13,12.13,0,0,0-3.7-16.8h0L297.8,339A1.72,1.72,0,0,0,296.1,339Z"/></g></svg>