<?xml version="1.0" encoding="utf-8"?>
<!-- Generator: Adobe Illustrator 23.0.1, SVG Export Plug-In . SVG Version: 6.00 Build 0)  -->
<svg version="1.1" id="Contenido" xmlns="http://www.w3.org/2000/svg" xmlns:xlink="http://www.w3.org/1999/xlink" x="0px" y="0px"
	 viewBox="0 0 600 600" style="enable-background:new 0 0 600 600;" xml:space="preserve">
<style type="text/css">
	.st0{fill:url(#SVGID_1_);}
	.st1{fill:#F8CD50;}
	.st2{fill:#2DCCCD;}
	.st3{fill:url(#SVGID_2_);}
	.st4{fill:#1464A5;}
	.st5{fill:url(#SVGID_3_);}
	.st6{fill:#49A5E6;}
	.st7{opacity:0.5;fill:url(#SVGID_4_);enable-background:new    ;}
</style>
<title>_</title>
<linearGradient id="SVGID_1_" gradientUnits="userSpaceOnUse" x1="213.6576" y1="512.2787" x2="443.6276" y2="79.7487" gradientTransform="matrix(1 0 0 -1 0 602)">
	<stop  offset="0" style="stop-color:#192647"/>
	<stop  offset="0" style="stop-color:#192647;stop-opacity:0.5"/>
	<stop  offset="1" style="stop-color:#192647;stop-opacity:0"/>
</linearGradient>
<path class="st0" d="M540,367v-36c0-9.7-6.1-18.3-15.2-21.6l-46.2-16.7v-12.9c0-9.9-8.1-18-18-18l0,0c-9.9,0-18,8-18,17.9L385,258.8
	v-48.6c0-22.2-14-42.1-35-49.5c-21,7.4-35,27.3-35,49.5v48.6l-57.6,20.9c0-9.9-8.1-18-18-18c-9.9,0-18,8.1-18,18v13l-46.2,16.7
	c-9.1,3.3-15.2,11.9-15.2,21.6v36l155-20.3v111.8l-41,22.3c-5.9,3.2-9.5,9.4-9.5,16.1v12c0,1.3,1.1,2.4,2.4,2.4c0,0,0,0,0,0h55.7
	c1,1.9,2,3.7,3.1,5.5l19.4,31v18.6c0,2.8,2.2,5,5,5s5-2.2,5-5v-18.6l19.4-31c1.1-1.8,2.2-3.7,3.1-5.5h55.7c1.3,0,2.4-1.1,2.4-2.4v0
	v-12c0-6.7-3.7-12.8-9.6-16l-41-22.3V346.6L540,367z"/>
<path class="st1" d="M189.4,210.7L189.4,210.7c9.9,0,18,8.1,18,18l0,0V289l0,0h-36l0,0v-60.3C171.4,218.8,179.5,210.7,189.4,210.7
	L189.4,210.7z"/>
<path class="st1" d="M410.6,210.7L410.6,210.7c9.9,0,18,8.1,18,18l0,0V289l0,0h-36l0,0v-60.3C392.6,218.8,400.7,210.7,410.6,210.7
	L410.6,210.7z"/>
<path class="st2" d="M287.6,395.1L224,429.8c-5.9,3.2-9.5,9.4-9.5,16.1v12c0,1.3,1.1,2.4,2.4,2.4c0,0,0,0,0,0h70.8V395.1z"/>
<path class="st2" d="M312.4,395.1l63.6,34.6c5.9,3.2,9.5,9.4,9.5,16.1v12c0,1.3-1.1,2.4-2.4,2.4c0,0,0,0,0,0h-70.8V395.1z"/>
<path class="st2" d="M270,206l-144.8,52.4c-9.1,3.3-15.2,11.9-15.2,21.6V316l160-21V206z"/>
<path class="st2" d="M330,206l144.8,52.4c9.1,3.3,15.2,11.9,15.2,21.6V316l-160-21V206z"/>
<linearGradient id="SVGID_2_" gradientUnits="userSpaceOnUse" x1="490" y1="324.71" x2="386.24" y2="324.71" gradientTransform="matrix(1 0 0 -1 0 602)">
	<stop  offset="0" style="stop-color:#192647"/>
	<stop  offset="0" style="stop-color:#028484;stop-opacity:0.3"/>
	<stop  offset="1" style="stop-color:#028484;stop-opacity:0"/>
</linearGradient>
<path class="st3" d="M490,280.1c0-9.7-6.1-18.3-15.2-21.6L420,238.6l-33.8,63.8L490,316V280.1z"/>
<path class="st4" d="M300,109.7c-21,7.4-35,27.3-35,49.5v269.4c0,13.1,3.7,26,10.6,37.1l22.6,36.1c0.6,1,1.9,1.3,2.9,0.7
	c0.3-0.2,0.5-0.4,0.7-0.7l22.6-36.1c7-11.1,10.6-24,10.6-37.1V159.2C335,137,321,117.1,300,109.7z"/>
<linearGradient id="SVGID_3_" gradientUnits="userSpaceOnUse" x1="335" y1="267.457" x2="265" y2="267.457" gradientTransform="matrix(1 0 0 -1 0 602)">
	<stop  offset="0" style="stop-color:#192647"/>
	<stop  offset="0" style="stop-color:#043263;stop-opacity:0.3"/>
	<stop  offset="1" style="stop-color:#043263;stop-opacity:0"/>
</linearGradient>
<path class="st5" d="M265,298.3v130.3c0,13.1,3.7,26,10.6,37.1l22.6,36.1c0.6,1,1.9,1.3,2.9,0.7c0.3-0.2,0.5-0.4,0.7-0.7l22.6-36.1
	c7-11.1,10.6-24,10.6-37.1V166.2L265,298.3z"/>
<path class="st6" d="M300,142.8c8.7,0,17.1,3.2,23.5,9.1c0.8,0.8,2.2,0.8,3-0.1c0.5-0.5,0.7-1.2,0.5-1.9
	c-3.1-14.7-13.2-26.9-27-32.7c-13.8,5.8-23.9,18-27,32.7c-0.2,1.1,0.5,2.2,1.6,2.5c0.7,0.1,1.4-0.1,1.9-0.5
	C282.9,146,291.3,142.7,300,142.8z"/>
<linearGradient id="SVGID_4_" gradientUnits="userSpaceOnUse" x1="280.8629" y1="470.7192" x2="296.0829" y2="462.6192" gradientTransform="matrix(1 0 0 -1 0 602)">
	<stop  offset="0" style="stop-color:#EAF9FA"/>
	<stop  offset="1" style="stop-color:#EAF9FA;stop-opacity:0.2"/>
	<stop  offset="1" style="stop-color:#EAF9FA;stop-opacity:0.5"/>
</linearGradient>
<path class="st7" d="M300,117.2c-13.8,5.8-23.9,18-27,32.7c-0.2,1.1,0.5,2.2,1.6,2.5c0.7,0.1,1.4-0.1,1.9-0.5
	c4.9-4.5,11-7.4,17.5-8.6l12.2-22.9C304.2,119.2,302.2,118.1,300,117.2z"/>
<path class="st2" d="M300,427.3L300,427.3c2.8,0,5,2.2,5,5v83c0,2.8-2.2,5-5,5l0,0c-2.8,0-5-2.2-5-5v-83
	C295,429.5,297.2,427.3,300,427.3z"/>
</svg>
