<svg id="Contenido" xmlns="http://www.w3.org/2000/svg" xmlns:xlink="http://www.w3.org/1999/xlink" viewBox="0 0 600 600"><defs><style>.cls-1{fill:url(#Degradado_sin_nombre_16);}.cls-2{fill:#1464a5;}.cls-3{fill:#2dcccd;}.cls-4{fill:#d4edfc;}.cls-5{fill:url(#Degradado_sin_nombre_37);}.cls-6{fill:#f8cd50;}.cls-7{fill:url(#Degradado_sin_nombre_5);}</style><linearGradient id="Degradado_sin_nombre_16" x1="286.52" y1="227.17" x2="414.56" y2="467.97" gradientUnits="userSpaceOnUse"><stop offset="0" stop-color="#1c2645"/><stop offset="0" stop-color="#1c2645" stop-opacity="0.5"/><stop offset="1" stop-color="#1c2645" stop-opacity="0"/></linearGradient><linearGradient id="Degradado_sin_nombre_37" x1="420" y1="303.77" x2="269.36" y2="303.77" gradientUnits="userSpaceOnUse"><stop offset="0" stop-color="#043263" stop-opacity="0.6"/><stop offset="1" stop-color="#043263" stop-opacity="0"/></linearGradient><linearGradient id="Degradado_sin_nombre_5" x1="235.07" y1="169.77" x2="285.58" y2="220.28" gradientUnits="userSpaceOnUse"><stop offset="0" stop-color="#fff" stop-opacity="0.6"/><stop offset="1" stop-color="#fff" stop-opacity="0.2"/></linearGradient></defs><title>seguros_colombia</title><path class="cls-1" d="M491.83,313v-3a3,3,0,0,0-3-3h-34a3,3,0,0,0-3,3H423.39a49.74,49.74,0,0,1-31.05-10.82,65.25,65.25,0,0,0-5.5-3.93V279a3,3,0,0,0-3-3h-22V264H404a54.64,54.64,0,0,1,13.48,1.48,17,17,0,1,0,.77-33.13A70.71,70.71,0,0,1,404,234h-42.2v-2a10,10,0,0,0-20,0v2H299.29a70.71,70.71,0,0,1-14.21-1.65,17,17,0,1,0,.77,33.13A54.64,54.64,0,0,1,299.34,264h42.5v12h-22a3,3,0,0,0-3,3v16.25a65.26,65.26,0,0,0-5.5,3.93A49.74,49.74,0,0,1,280.28,310H251.83a3,3,0,0,0-3-3h-34a3,3,0,0,0-3,3v3h-75v74h75v3a3,3,0,0,0,3,3h34a3,3,0,0,0,3-3h28.44a49.74,49.74,0,0,1,31.05,10.82,64.94,64.94,0,0,0,81,0A49.74,49.74,0,0,1,423.39,390h28.44a3,3,0,0,0,3,3h34a3,3,0,0,0,3-3v-3h75V313Z"/><rect class="cls-2" x="290" y="214" width="20" height="12"/><path class="cls-2" d="M300,172h0a10,10,0,0,1,10,10v2a0,0,0,0,1,0,0H290a0,0,0,0,1,0,0v-2a10,10,0,0,1,10-10Z"/><path class="cls-3" d="M268,226h64a3,3,0,0,1,3,3v21a0,0,0,0,1,0,0H265a0,0,0,0,1,0,0V229A3,3,0,0,1,268,226Z"/><rect class="cls-4" x="85" y="263" width="430" height="74"/><path class="cls-2" d="M420,260H371.56a49.74,49.74,0,0,1-31.05-10.82,64.94,64.94,0,0,0-81,0A49.74,49.74,0,0,1,228.44,260H180v80h48.44a49.74,49.74,0,0,1,31.05,10.82,64.94,64.94,0,0,0,81,0A49.74,49.74,0,0,1,371.56,340H420Z"/><path class="cls-5" d="M371.56,260a49.74,49.74,0,0,1-31.05-10.82,65.1,65.1,0,0,0-10.12-6.63l-61,114.77a64.93,64.93,0,0,0,71.14-6.49A49.74,49.74,0,0,1,371.56,340H420V260Z"/><rect class="cls-3" x="160" y="257" width="40" height="86" rx="3" ry="3"/><rect class="cls-3" x="400" y="257" width="40" height="86" rx="3" ry="3"/><path class="cls-6" d="M371.49,182.08a17.12,17.12,0,0,0-5.08.27A70.72,70.72,0,0,1,352.2,184H247.46a70.72,70.72,0,0,1-14.21-1.65,17,17,0,1,0,.77,33.13A54.64,54.64,0,0,1,247.5,214H352.16a54.64,54.64,0,0,1,13.48,1.48,17,17,0,1,0,5.85-33.4Z"/><path class="cls-7" d="M247.46,184a70.72,70.72,0,0,1-14.21-1.65,17,17,0,1,0,.77,33.13A54.64,54.64,0,0,1,247.5,214h44.35l16-30Z"/></svg>