<svg xmlns="http://www.w3.org/2000/svg" xmlns:xlink="http://www.w3.org/1999/xlink" viewBox="0 0 600 600"><defs><style>.cls-1{fill:none;}.cls-2{fill:url(#Degradado_sin_nombre_30);}.cls-3{fill:#072146;}.cls-4{fill:#2dcccd;}.cls-5{fill:#d4edfc;}.cls-6{fill:#043263;}.cls-7{fill:url(#Degradado_sin_nombre_40);}.cls-8{fill:#f8cd50;}.cls-9{fill:url(#Degradado_sin_nombre_42);}</style><linearGradient id="Degradado_sin_nombre_30" x1="286.52" y1="-1573.17" x2="414.56" y2="-1813.97" gradientTransform="matrix(1, 0, 0, -1, 0, -1346)" gradientUnits="userSpaceOnUse"><stop offset="0" stop-color="#1c2645" stop-opacity="0.5"/><stop offset="1" stop-color="#1c2645" stop-opacity="0"/></linearGradient><linearGradient id="Degradado_sin_nombre_40" x1="420" y1="-1649.78" x2="269.39" y2="-1649.78" gradientTransform="matrix(1, 0, 0, -1, 0, -1346)" gradientUnits="userSpaceOnUse"><stop offset="0" stop-color="#072146"/><stop offset="1" stop-color="#072146" stop-opacity="0.1"/></linearGradient><linearGradient id="Degradado_sin_nombre_42" x1="235.06" y1="-1515.74" x2="285.58" y2="-1566.27" gradientTransform="matrix(1, 0, 0, -1, 0, -1346)" gradientUnits="userSpaceOnUse"><stop offset="0" stop-color="#fff" stop-opacity="0.5"/><stop offset="1" stop-color="#fff" stop-opacity="0"/></linearGradient></defs><title>14</title><g id="Cuadrados_Blancos" data-name="Cuadrados Blancos"><rect class="cls-1" width="600" height="600"/></g><g id="Capa_5" data-name="Capa 5"><path class="cls-2" d="M491.83,313v-3a3,3,0,0,0-3-3h-34a3,3,0,0,0-3,3H423.39a49.72,49.72,0,0,1-31.05-10.82,64.59,64.59,0,0,0-5.5-3.93V279a3,3,0,0,0-3-3h-22V264H404a54.58,54.58,0,0,1,13.48,1.48,17,17,0,1,0,8.37-33,16.82,16.82,0,0,0-7.6-.18A71.17,71.17,0,0,1,404,234H361.8v-2a10,10,0,1,0-20,0v2H299.29a70.78,70.78,0,0,1-14.21-1.65,17,17,0,1,0,.77,33.13A54.71,54.71,0,0,1,299.34,264h42.5v12h-22a3,3,0,0,0-3,3v16.25a64.59,64.59,0,0,0-5.5,3.93A49.77,49.77,0,0,1,280.28,310H251.83a3,3,0,0,0-3-3h-34a3,3,0,0,0-3,3v3h-75v74h75v3a3,3,0,0,0,3,3h34a3,3,0,0,0,3-3h28.44a49.72,49.72,0,0,1,31.05,10.82,64.94,64.94,0,0,0,81,0A49.74,49.74,0,0,1,423.39,390h28.44a3,3,0,0,0,3,3h34a3,3,0,0,0,3-3v-3h75V313Z"/><rect class="cls-3" x="290" y="214" width="20" height="12"/><path class="cls-3" d="M300,172h0a10,10,0,0,1,10,10v2H290v-2A10,10,0,0,1,300,172Z"/><path class="cls-4" d="M268,226h64a3,3,0,0,1,3,3v21H265V229A3,3,0,0,1,268,226Z"/><rect class="cls-5" x="85" y="263" width="430" height="74"/><path class="cls-6" d="M420,260H371.56a49.72,49.72,0,0,1-31.05-10.82,64.94,64.94,0,0,0-81,0A49.74,49.74,0,0,1,228.44,260H180v80h48.44a49.72,49.72,0,0,1,31.05,10.82,64.94,64.94,0,0,0,81,0A49.74,49.74,0,0,1,371.56,340H420Z"/><path class="cls-7" d="M371.56,260a49.72,49.72,0,0,1-31.05-10.82,65.05,65.05,0,0,0-10.12-6.63l-61,114.77a64.92,64.92,0,0,0,71.14-6.49,49.76,49.76,0,0,1,31-10.83H420V260Z"/><rect class="cls-4" x="160" y="257" width="40" height="86" rx="3"/><rect class="cls-4" x="400" y="257" width="40" height="86" rx="3"/><path class="cls-8" d="M371.49,182.08a17.32,17.32,0,0,0-5.08.27A70.78,70.78,0,0,1,352.2,184H247.46a70.78,70.78,0,0,1-14.21-1.65,17,17,0,1,0,.77,33.13A54.58,54.58,0,0,1,247.5,214H352.16a54.58,54.58,0,0,1,13.48,1.48,17,17,0,1,0,5.85-33.4Z"/><path class="cls-9" d="M247.46,184a70.78,70.78,0,0,1-14.21-1.65,17,17,0,1,0,.77,33.13A54.58,54.58,0,0,1,247.5,214h44.35l16-30Z"/></g></svg>