<svg id="a7bfaccb-889f-4d08-8926-65f60333b7bf" data-name="Capa 1" xmlns="http://www.w3.org/2000/svg" xmlns:xlink="http://www.w3.org/1999/xlink" viewBox="0 0 600 600"><defs><style>.e92b3977-afc5-498a-bc4b-b4289cc2a91c{fill:none;}.f6b226a6-70f0-45f6-9d79-445a1d9e47ee{fill:url(#e408fab9-8a0f-442b-a939-233be4e8090a);}.a9a9dbc7-50af-4031-b119-c73a062778d0{fill:#043263;}.bfc8bdf6-2597-44eb-aa5f-f9e5647965c7{fill:#1464a5;}.a1401d40-3895-4668-9a04-6c60ff8a6bb0{fill:url(#e7db7c63-648b-4c8d-a57d-4d7feebc3e6e);}.e6615398-5e60-4b8a-8442-7d8365209378{fill:#fff;}</style><linearGradient id="e408fab9-8a0f-442b-a939-233be4e8090a" x1="269.23" y1="-1001.65" x2="430.77" y2="-1305.44" gradientTransform="matrix(1, 0, 0, -1, 0, -803.55)" gradientUnits="userSpaceOnUse"><stop offset="0" stop-color="#192647" stop-opacity="0.5"/><stop offset="1" stop-color="#192647" stop-opacity="0"/></linearGradient><linearGradient id="e7db7c63-648b-4c8d-a57d-4d7feebc3e6e" x1="-1920" y1="-208.44" x2="-2172.27" y2="-208.44" gradientTransform="matrix(1, 0, 0, -1, 2393.34, 102.02)" gradientUnits="userSpaceOnUse"><stop offset="0" stop-color="#043263" stop-opacity="0.6"/><stop offset="1" stop-color="#043263" stop-opacity="0"/></linearGradient></defs><rect class="e92b3977-afc5-498a-bc4b-b4289cc2a91c" width="600" height="600"/><circle class="f6b226a6-70f0-45f6-9d79-445a1d9e47ee" cx="350" cy="350" r="172"/><circle class="a9a9dbc7-50af-4031-b119-c73a062778d0" cx="300" cy="300" r="172"/><circle class="bfc8bdf6-2597-44eb-aa5f-f9e5647965c7" cx="300" cy="300" r="172"/><path class="a1401d40-3895-4668-9a04-6c60ff8a6bb0" d="M382.34,149.1,221.09,452.48c84.2,43.71,187.94,10.78,231.55-73.43C495.72,296.06,464.43,193.82,382.34,149.1Z"/><path class="e6615398-5e60-4b8a-8442-7d8365209378" d="M181.86,326.31V272.89h19.42c11.4,0,21.8,3,21.8,17.11,0,14.37-11.26,17.33-22,17.33h-7.58v19Zm11.69-28.08h8c7.29,0,10-2.81,10-7.94s-2.67-7.8-10-7.8h-8Z"/><path class="e6615398-5e60-4b8a-8442-7d8365209378" d="M227.7,315.92V287.84h11.62v24.68c0,3.47,1.3,5.35,4.55,5.35,3.1,0,5.78-1.66,8.37-3.9V287.84h11.63v38.47H253.11l-.87-6A16.62,16.62,0,0,1,239,327.11C232.39,327.11,227.7,323.86,227.7,315.92Z"/><path class="e6615398-5e60-4b8a-8442-7d8365209378" d="M271.23,326.31V287.84H282l.87,6.06A16.45,16.45,0,0,1,296.14,287c6.49,0,11.19,3.25,11.19,11.19v28.08H295.78v-24.4c0-3.46-1.3-5.27-4.55-5.27s-5.78,1.59-8.37,3.83v25.84Z"/><path class="e6615398-5e60-4b8a-8442-7d8365209378" d="M317.36,314.76V296.28h-6.42v-8.44h6.42V275.49l11.55-1.73v14.08h9.89v8.44h-9.89v17.18c0,4.12,1.95,4.91,5,4.91a13.54,13.54,0,0,0,4-.65l.79,8.45a63.09,63.09,0,0,1-8.23.65C321.41,326.82,317.36,324,317.36,314.76Z"/><path class="e6615398-5e60-4b8a-8442-7d8365209378" d="M341.48,307.11c0-15.09,10.32-20.07,19.7-20.07s19.64,5,19.64,20.07c0,14.94-10.32,20-19.64,20S341.48,322.05,341.48,307.11Zm27.72.07c0-6.42-2.24-11.62-8-11.62-5.55,0-8.08,4.69-8.08,11.62,0,6.43,2.16,11.77,8.08,11.77C366.67,319,369.2,314.18,369.2,307.18Z"/><path class="e6615398-5e60-4b8a-8442-7d8365209378" d="M383.42,321.62l3.9-6.79c3.75,2.6,9.17,4.84,13.86,4.84,3.61,0,6.13-1.23,6.13-3.75,0-2.67-2-3.68-7.29-4.62-7.29-1.3-15.08-3-15.08-12.06,0-7.72,6.35-12.2,14.94-12.2a30.11,30.11,0,0,1,16.6,4.55l-3.54,6.93a24.69,24.69,0,0,0-12.05-3.68c-3.32,0-5.2,1.3-5.2,3.39,0,2.31,2.1,3.25,6.86,4.12,7.58,1.3,15.59,3,15.59,11.76,0,9.31-8.08,13-17,13A30.67,30.67,0,0,1,383.42,321.62Z"/></svg>