<svg id="Capa_1" data-name="Capa 1" xmlns="http://www.w3.org/2000/svg" xmlns:xlink="http://www.w3.org/1999/xlink" viewBox="0 0 600 600"><defs><style>.cls-1{fill:url(#Degradado_sin_nombre_231);}.cls-2{fill:#043263;}.cls-3{fill:#1464a5;}.cls-4{fill:url(#Degradado_sin_nombre_6);}.cls-5,.cls-9{fill:#fff;}.cls-6{fill:url(#Degradado_sin_nombre_2);}.cls-7{fill:#2dcccd;}.cls-8{fill:url(#Degradado_sin_nombre_5);}.cls-9{font-size:43.05px;font-family:BentonSansBBVA-Bold, Benton Sans BBVA;font-weight:700;}.cls-10{letter-spacing:-0.02em;}.cls-11{letter-spacing:-0.02em;}.cls-12{letter-spacing:-0.01em;}</style><linearGradient id="Degradado_sin_nombre_231" x1="281.21" y1="196.85" x2="460.85" y2="534.7" gradientUnits="userSpaceOnUse"><stop offset="0" stop-color="#192647" stop-opacity="0.5"/><stop offset="1" stop-color="#192647" stop-opacity="0"/></linearGradient><linearGradient id="Degradado_sin_nombre_6" x1="-1921.16" y1="1198.46" x2="-2172.41" y2="1198.46" gradientTransform="matrix(1, 0, 0, -1, 2393.34, 1507.57)" gradientUnits="userSpaceOnUse"><stop offset="0" stop-color="#043263" stop-opacity="0.6"/><stop offset="1" stop-color="#043263" stop-opacity="0"/></linearGradient><linearGradient id="Degradado_sin_nombre_2" x1="537.33" y1="192.7" x2="372.23" y2="192.7" gradientTransform="matrix(1, 0, 0, -1, 0, 602)" gradientUnits="userSpaceOnUse"><stop offset="0" stop-color="#072146" stop-opacity="0.8"/><stop offset="1" stop-color="#072146" stop-opacity="0.1"/></linearGradient><linearGradient id="Degradado_sin_nombre_5" x1="513.29" y1="245.34" x2="489.83" y2="245.34" gradientTransform="matrix(1, 0, 0, -1, 0, 602)" gradientUnits="userSpaceOnUse"><stop offset="0.02" stop-color="#028484" stop-opacity="0.3"/><stop offset="0.99" stop-color="#028484" stop-opacity="0.1"/></linearGradient></defs><path class="cls-1" d="M568.5,348.72a15.27,15.27,0,0,0-10.12-8.28l-38.64-9.64a171.31,171.31,0,1,0-170.4,189c5.38,0,10.7-.26,16-.74l3,4.92a15.33,15.33,0,0,0,21,5.24h0l15.6-9.38h0L546,435.09a15.8,15.8,0,0,0,3.48-2.87,15.54,15.54,0,0,0,1.78-2.4,15.71,15.71,0,0,0,1.28-2.72c.17-.47.31-1,.44-1.45L569.54,359A15.23,15.23,0,0,0,568.5,348.72Zm-33.59,29.64a9.59,9.59,0,0,1-6.32,1.26h-.1a9.64,9.64,0,0,1-2.23-.64l-.54-.25a9.48,9.48,0,0,1-4-3.64,9.58,9.58,0,0,1,12.73-13.38v0a9.93,9.93,0,0,1,2.09,1.49l0,0a9.71,9.71,0,0,1,.76.81l.16.2a9.75,9.75,0,0,1,.59.84l.07.11A9.59,9.59,0,0,1,534.91,378.36Z"/><circle class="cls-2" cx="299.54" cy="298.69" r="171.3"/><circle class="cls-3" cx="299.54" cy="298.69" r="171.3"/><path class="cls-4" d="M381.55,148.4,220.94,450.55c83.87,43.54,187.19,10.74,230.62-73.13C494.47,294.76,463.3,192.94,381.55,148.4Z"/><path class="cls-5" d="M181.87,300.83v-53.2h19.34c11.36,0,21.72,3,21.72,17,0,14.31-11.22,17.26-21.86,17.26h-7.55v18.91Zm11.65-28h8c7.26,0,10-2.8,10-7.91,0-5-2.67-7.76-10-7.76h-8Z"/><path class="cls-5" d="M227.53,290.47v-28h11.58V287.1c0,3.45,1.29,5.32,4.53,5.32s5.75-1.66,8.34-3.89v-26h11.57v38.32H252.84l-.86-6a16.55,16.55,0,0,1-13.23,6.76C232.2,301.62,227.53,298.38,227.53,290.47Z"/><path class="cls-5" d="M270.89,300.83V262.51H281.6l.86,6a16.4,16.4,0,0,1,13.23-6.83c6.47,0,11.15,3.23,11.15,11.14v28H295.33v-24.3c0-3.45-1.29-5.25-4.53-5.25s-5.75,1.58-8.34,3.81v25.74Z"/><path class="cls-5" d="M316.83,289.32v-18.4h-6.4v-8.41h6.4v-12.3l11.51-1.72v14h9.85v8.41h-9.85V288c0,4.1,1.94,4.89,5,4.89a13.38,13.38,0,0,0,3.95-.65l.79,8.41a60.64,60.64,0,0,1-8.19.65C320.86,301.33,316.83,298.53,316.83,289.32Z"/><path class="cls-5" d="M340.85,281.7c0-15,10.28-20,19.62-20s19.56,5,19.56,20-10.28,19.92-19.56,19.92S340.85,296.59,340.85,281.7Zm27.61.08c0-6.4-2.23-11.58-8-11.58-5.53,0-8.05,4.67-8.05,11.58,0,6.39,2.16,11.71,8.05,11.71C365.94,293.49,368.46,288.75,368.46,281.78Z"/><path class="cls-5" d="M382.62,296.15l3.88-6.75c3.74,2.58,9.14,4.81,13.81,4.81,3.59,0,6.11-1.22,6.11-3.74s-2-3.66-7.26-4.6c-7.26-1.29-15-3-15-12,0-7.7,6.33-12.15,14.88-12.15a29.92,29.92,0,0,1,16.54,4.53l-3.52,6.9a24.64,24.64,0,0,0-12-3.67c-3.31,0-5.18,1.3-5.18,3.38,0,2.3,2.09,3.24,6.83,4.1,7.55,1.29,15.53,3,15.53,11.72,0,9.27-8.05,12.94-16.89,12.94A30.56,30.56,0,0,1,382.62,296.15Z"/><path class="cls-2" d="M525.71,326l-66.63-16.62a15.33,15.33,0,0,0-11.61,1.72L290.82,405.23a15.32,15.32,0,0,0-5.26,21l0,0,50,83.24a15.33,15.33,0,0,0,21,5.24h0l156.65-94.13a15.31,15.31,0,0,0,7-9.43l16.61-66.63A15.33,15.33,0,0,0,525.71,326Zm-23.47,37.92a9.58,9.58,0,1,1,3.27-13.16A9.59,9.59,0,0,1,502.24,363.92Z"/><path class="cls-6" d="M525.71,326l-51.3-12.79L372.23,505.4l141-84.76a15.31,15.31,0,0,0,7-9.43l16.61-66.63A15.33,15.33,0,0,0,525.71,326Zm-23.47,37.92a9.58,9.58,0,1,1,3.27-13.16A9.59,9.59,0,0,1,502.24,363.92Z"/><path class="cls-7" d="M511,347.47a16,16,0,1,0-5.5,21.91l0,0A16,16,0,0,0,511,347.47Zm-8.77,16.45a9.58,9.58,0,1,1,3.27-13.16A9.59,9.59,0,0,1,502.24,363.92Z"/><path class="cls-8" d="M511,347.47a15.88,15.88,0,0,0-6.19-5.84l-3,5.65a9.57,9.57,0,1,1-9,16.9l-3,5.65A16,16,0,0,0,511,347.5Z"/><text class="cls-9" transform="matrix(0.85, -0.53, 0.53, 0.85, 339.53, 468.37)"><tspan class="cls-10">P</tspan><tspan class="cls-11" x="28.24" y="0">r</tspan><tspan x="45.8" y="0">om</tspan><tspan class="cls-12" x="112.14" y="0">o</tspan><tspan x="137.93" y="0">s</tspan></text></svg>