<svg xmlns="http://www.w3.org/2000/svg" xmlns:xlink="http://www.w3.org/1999/xlink" viewBox="0 0 600 600"><defs><style>.cls-1{fill:url(#Degradado_sin_nombre_74);}.cls-2{fill:#f8cd51;}.cls-3{fill:url(#Degradado_sin_nombre_21);}.cls-4{fill:#fade8e;}.cls-5{fill:#1464a5;}.cls-6{fill:#2dcccd;}.cls-7{fill:url(#Degradado_sin_nombre_36);}.cls-8{fill:none;}</style><linearGradient id="Degradado_sin_nombre_74" x1="250.62" y1="168.87" x2="449.01" y2="541.99" gradientUnits="userSpaceOnUse"><stop offset="0" stop-color="#082146" stop-opacity="0.5"/><stop offset="1" stop-color="#082146" stop-opacity="0"/></linearGradient><linearGradient id="Degradado_sin_nombre_21" x1="176" y1="170.98" x2="333.65" y2="170.98" gradientUnits="userSpaceOnUse"><stop offset="0.01" stop-color="#fff" stop-opacity="0.5"/><stop offset="1" stop-color="#fff" stop-opacity="0"/><stop offset="1" stop-color="#e9f8f9" stop-opacity="0.2"/></linearGradient><linearGradient id="Degradado_sin_nombre_36" x1="218.49" y1="350" x2="424" y2="350" gradientUnits="userSpaceOnUse"><stop offset="0" stop-color="#043263" stop-opacity="0"/><stop offset="1" stop-color="#043263" stop-opacity="0.5"/></linearGradient></defs><g id="Contenido"><path class="cls-1" d="M454.76,228.46a38.35,38.35,0,0,0-57.39-46.69,33,33,0,0,0-17.24-16l-.28-.11c-.51-.2-1-.39-1.56-.57L378,165a33.24,33.24,0,0,0-3.75-1l-.42-.08c-.49-.09-1-.16-1.46-.23l-.6-.08c-.46,0-.92-.1-1.38-.13l-.58,0c-.65,0-1.29-.07-1.95-.07h0c-.59,0-1.17,0-1.76.05l-.56,0-1.17.1-.65.08-1.07.15-.66.12-1,.19-.66.15-1,.25-.62.18-1,.31-.59.2-1,.37-.54.22-1,.44-.48.22-1.07.52-.41.21c-.38.2-.76.42-1.14.63l-.29.18q-.64.38-1.26.78l-.14.09a32.86,32.86,0,0,0-6.36,5.52h0a56.87,56.87,0,0,0-6.33-7.27,1.8,1.8,0,0,0-.2-.19c-.68-.66-1.39-1.3-2.11-1.93l-.3-.26c-.74-.63-1.49-1.25-2.26-1.84l-.17-.14a58,58,0,0,0-5.3-3.59l-.22-.12c-.8-.48-1.61-.93-2.44-1.37l-.64-.32c-.7-.36-1.42-.71-2.15-1l-.74-.34c-.74-.33-1.49-.63-2.24-.93l-.66-.26a57.57,57.57,0,0,0-6-1.86l-.82-.19c-.74-.17-1.48-.34-2.23-.48l-1.08-.19c-.68-.12-1.37-.23-2.07-.32l-1.13-.15c-.73-.08-1.45-.14-2.19-.2l-1-.07c-1.06-.06-2.13-.1-3.21-.1h0a56.2,56.2,0,0,0-16.14,2.36l-1.48.47a56.21,56.21,0,0,0-18.17,10q-1.05.85-2,1.77-2,1.82-3.82,3.81c-.61.67-1.2,1.35-1.77,2.05a56.21,56.21,0,0,0-10,18.17c-.16.49-.32,1-.47,1.47a56.27,56.27,0,0,0-2.36,16.15c0,1,0,1.94.08,2.9,0,.17,0,.35,0,.52,0,.79.1,1.57.17,2.35,0,.12,0,.25,0,.38.09.82.19,1.63.32,2.44a.86.86,0,0,0,0,.17A55.86,55.86,0,0,0,246,229.47c-.67.28-1.31.59-1.95.91l-.41.21a33.21,33.21,0,0,0-3.67,2.23l-.37.27a31.76,31.76,0,0,0-3.28,2.72,3.61,3.61,0,0,0-.35.33c-.51.49-1,1-1.49,1.52h0c-.47.52-.92,1.06-1.36,1.61l-.3.38c-.44.56-.86,1.13-1.25,1.72h0c-.39.58-.76,1.18-1.11,1.79-.09.14-.18.29-.26.44-.35.62-.68,1.24-1,1.88v0c-.31.63-.58,1.28-.85,1.93-.06.16-.13.32-.19.49-.26.67-.5,1.34-.71,2v0c-.21.68-.39,1.37-.56,2.06l-.12.54c-.16.7-.3,1.42-.41,2.14v0c-.11.72-.19,1.45-.25,2.18,0,.18,0,.37,0,.56-.05.74-.09,1.48-.09,2.23h0a33.09,33.09,0,0,0,1,7.95,26.81,26.81,0,0,0-.91,5.48,27.58,27.58,0,0,0,.13,5l31.24,255.66a23.94,23.94,0,0,0,12.11,18c.2.11.39.23.59.33s.68.35,1,.51l.74.32c.33.14.65.28,1,.4.54.21,1.09.39,1.66.56l.71.18,1.24.29.75.14c.44.07.88.13,1.33.18l.66.08c.67,0,1.34.09,2,.09H418.74A24,24,0,0,0,437.39,546c.19-.23.36-.47.54-.7a24,24,0,0,0,4.64-11.48l16.57-135.64,14.66-120a26.42,26.42,0,0,0,.18-3.09c0-.63,0-1.26,0-1.9a27.25,27.25,0,0,0-.89-5.37,35.05,35.05,0,0,0-18.29-39.34Z"/><circle class="cls-2" cx="208.88" cy="208.58" r="32.88"/><circle class="cls-2" cx="317.87" cy="145.11" r="32.88"/><circle class="cls-2" cx="277.27" cy="198.2" r="44.93"/><circle class="cls-2" cx="388.93" cy="208.58" r="35.07"/><circle class="cls-2" cx="326.97" cy="212.6" r="38.36"/><circle class="cls-2" cx="369.68" cy="161.81" r="38.36"/><circle class="cls-2" cx="247.85" cy="156.33" r="56.27"/><path class="cls-3" d="M317.87,112.23a32.8,32.8,0,0,0-24.54,11A56.27,56.27,0,0,0,196,178.31a32.88,32.88,0,1,0,43,43.44,45,45,0,0,0,27.85,20.14l66.79-125.62A32.69,32.69,0,0,0,317.87,112.23Z"/><path class="cls-4" d="M371.62,134.79a27,27,0,0,0-17,4.51,2.87,2.87,0,0,0,2,5.22,27.7,27.7,0,0,1,5.48-.16,27.2,27.2,0,0,1,25.06,25,27.81,27.81,0,0,1-.16,5.49,2.87,2.87,0,0,0,5.22,2,27.09,27.09,0,0,0-20.57-42.09Z"/><path class="cls-4" d="M250.52,114.23a42,42,0,0,0-22.8,5,2.87,2.87,0,0,0,2,5.33,42.21,42.21,0,0,1,49.9,49.9,2.87,2.87,0,0,0,5.33,2,42.18,42.18,0,0,0-34.4-62.23Z"/><path class="cls-5" d="M282,503.75l-6.12-293.21a27.5,27.5,0,0,1,48.24,0h0L318,503.75Z"/><path class="cls-6" d="M246,503.75l-1.13-18L227.63,210.54h0a27.51,27.51,0,0,1,48.25,0h0l5.64,270a32.18,32.18,0,0,0,9.38,22.05l1.1,1.11Z"/><path class="cls-5" d="M231.25,503.75a24,24,0,0,1-23.83-21.09L176.19,227h0a27.51,27.51,0,0,1,51.44-16.45h0l16.79,268a38.34,38.34,0,0,0,9,22.37l2.43,2.89Z"/><path class="cls-6" d="M354,503.75l1.13-18,17.24-275.19h0a27.51,27.51,0,0,0-48.25,0h0l-5.64,270a32.18,32.18,0,0,1-9.38,22.05l-1.1,1.11Z"/><path class="cls-5" d="M368.75,503.75a24,24,0,0,0,23.83-21.09L423.81,227h0a27.51,27.51,0,0,0-51.44-16.45h0l-16.79,268a38.34,38.34,0,0,1-9,22.37l-2.43,2.89Z"/><path class="cls-7" d="M423.94,222a27.49,27.49,0,0,0-51-12.35L218.49,500.06a23.85,23.85,0,0,0,12.76,3.69h137.5a24,24,0,0,0,23.83-21.09L423.81,227A27.47,27.47,0,0,0,423.94,222Z"/></g><g id="Capa_2" data-name="Capa 2"><rect class="cls-8" width="600" height="600"/></g></svg>