<svg id="Capa_1" data-name="Capa 1" xmlns="http://www.w3.org/2000/svg" xmlns:xlink="http://www.w3.org/1999/xlink" viewBox="0 0 600 600"><defs><style>.cls-1,.cls-11{fill:none;}.cls-2{fill:url(#Degradado_sin_nombre_2);}.cls-3{fill:#1464a5;}.cls-4{fill:#043263;}.cls-5{fill:#004481;}.cls-6{fill:#fff;}.cls-7{fill:#2dcccd;}.cls-8{fill:#49a5e6;}.cls-10,.cls-9{opacity:0.5;isolation:isolate;}.cls-9{fill:url(#Degradado_sin_nombre_3);}.cls-10{fill:url(#Degradado_sin_nombre_3-2);}.cls-11{stroke:#eaf9fa;stroke-linecap:round;stroke-linejoin:round;stroke-width:4.03px;}.cls-12{clip-path:url(#clip-path);}.cls-13{opacity:0.45;}.cls-14{fill:#f8cd51;}.cls-15{fill:url(#Degradado_sin_nombre_5);}.cls-16{fill:#fef5dc;}.cls-17{fill:url(#Degradado_sin_nombre_5-2);}</style><linearGradient id="Degradado_sin_nombre_2" x1="262.57" y1="199.58" x2="432.73" y2="519.59" gradientTransform="translate(0 2)" gradientUnits="userSpaceOnUse"><stop offset="0" stop-color="#192647"/><stop offset="0" stop-color="#192647" stop-opacity="0.3"/><stop offset="1" stop-color="#192647" stop-opacity="0"/></linearGradient><linearGradient id="Degradado_sin_nombre_3" x1="158.34" y1="258.34" x2="232.08" y2="332.07" gradientTransform="translate(0 2)" gradientUnits="userSpaceOnUse"><stop offset="0" stop-color="#fff" stop-opacity="0.5"/><stop offset="1" stop-color="#e8f7f8" stop-opacity="0.2"/><stop offset="1" stop-color="#fff" stop-opacity="0"/></linearGradient><linearGradient id="Degradado_sin_nombre_3-2" x1="329.55" y1="270.41" x2="404.93" y2="345.79" xlink:href="#Degradado_sin_nombre_3"/><clipPath id="clip-path"><rect class="cls-1" x="209.92" y="257.4" width="181.23" height="140.97"/></clipPath><linearGradient id="Degradado_sin_nombre_5" x1="267.41" y1="275.47" x2="311.32" y2="298.81" gradientTransform="translate(0 26)" gradientUnits="userSpaceOnUse"><stop offset="0" stop-color="#fade8e"/><stop offset="1" stop-color="#fade8e" stop-opacity="0.4"/></linearGradient><linearGradient id="Degradado_sin_nombre_5-2" x1="316.35" y1="275.47" x2="360.27" y2="298.81" xlink:href="#Degradado_sin_nombre_5"/></defs><path class="cls-2" d="M527.06,278.53a3.06,3.06,0,0,0,3-3h0v-10a23.15,23.15,0,0,0-23.16-23.17H191.77a23.15,23.15,0,0,0-23.17,23.17v10a3.06,3.06,0,0,0,3,3h9V449.68h-4a8,8,0,0,0-8.07,8.08v12.07H530.07V457.76a8,8,0,0,0-8.07-8.08h-4V278.53Z"/><rect class="cls-3" x="129.36" y="227.22" width="337.25" height="171.15"/><path class="cls-4" d="M140.45,190.92H455.59a23.15,23.15,0,0,1,23.17,23.16v10a3.07,3.07,0,0,1-3,3H120.3a3.07,3.07,0,0,1-3-3v-10a23.15,23.15,0,0,1,23.17-23.16Z"/><path class="cls-5" d="M366.26,69.12H229.78a30.63,30.63,0,0,0-30.67,30.67v23.66a30.68,30.68,0,0,0,30.67,30.67H277a2.23,2.23,0,0,1,1.71.74l17.54,17.54a2.46,2.46,0,0,0,3.51,0l17.54-17.54a2.35,2.35,0,0,1,1.71-.74h47.23a30.64,30.64,0,0,0,30.68-30.67V99.79A30.69,30.69,0,0,0,366.26,69.12Z"/><path class="cls-6" d="M328.57,94.82l-11.25,21.37a.73.73,0,0,1-1,.24l-.25-.24L304.83,94.82a.54.54,0,0,0-.57-.33h-5.38a.47.47,0,0,0-.49.49.29.29,0,0,0,.08.24l17.7,33.21a.66.66,0,0,0,.9.32c.08-.08.25-.16.33-.32l17.7-33.21a.51.51,0,0,0-.16-.65.31.31,0,0,0-.25-.08h-5.46a.61.61,0,0,0-.66.33"/><path class="cls-6" d="M334.86,123.37,346.11,102a.74.74,0,0,1,1-.24l.25.24,11.25,21.38a.56.56,0,0,0,.58.32h5.38a.47.47,0,0,0,.49-.49A.29.29,0,0,0,365,123l-17.7-33.2a.74.74,0,0,0-.9-.33c-.08.08-.25.16-.33.33L328.33,123a.51.51,0,0,0,.16.65.31.31,0,0,0,.25.08h5.46c.41,0,.66-.08.66-.32"/><path class="cls-6" d="M250.75,123.69H240.63A.7.7,0,0,1,240,123V114a.7.7,0,0,1,.65-.66h10.12c4.81,0,7,1.39,7,5.14-.08,3.92-2.2,5.22-7,5.22M240.63,99.47h10c3.67,0,5.62,1.55,5.62,4.48s-1.87,4.49-5.62,4.49h-10a.7.7,0,0,1-.65-.65h0v-7.67c-.08-.41.16-.65.65-.65h0M258,110.23c2.36-1.14,3.83-3.67,3.83-6.85,0-5.38-4.16-9-10-9H234.92a.69.69,0,0,0-.65.65h0v33a.7.7,0,0,0,.65.65h16.15c8.08,0,12.32-3.51,12.32-10.28,0-6.61-5.38-8.16-5.38-8.16"/><path class="cls-6" d="M285.34,123.69H275.22a.69.69,0,0,1-.65-.65h0V114a.7.7,0,0,1,.65-.66h10.12c4.81,0,7,1.39,7,5.14-.08,3.92-2.12,5.22-7,5.22M275.22,99.47h10c3.67,0,5.62,1.55,5.62,4.48s-1.87,4.49-5.62,4.49h-10a.7.7,0,0,1-.65-.65h0v-7.67a.59.59,0,0,1,.65-.65h0m17.38,10.76c2.36-1.14,3.83-3.67,3.83-6.85,0-5.38-4.16-9-10-9H269.51a.69.69,0,0,0-.65.65h0v33a.7.7,0,0,0,.65.65h16.15c8.08,0,12.32-3.51,12.32-10.28,0-6.61-5.3-8.16-5.38-8.16"/><path class="cls-7" d="M125.36,398.37H470.68a8,8,0,0,1,8.08,8.08v12.07H117.28V406.45A8,8,0,0,1,125.36,398.37Z"/><path class="cls-8" d="M162.56,257.4h147a3.06,3.06,0,0,1,3,3V365.17a3.06,3.06,0,0,1-3,3h-147a3.07,3.07,0,0,1-3-3V260.42A3,3,0,0,1,162.56,257.4Z"/><path class="cls-9" d="M162.56,257.4a3,3,0,0,0-3,2.86h0v105a2.87,2.87,0,0,0,3,2.85h35.49l62.24-110.7Z"/><path class="cls-8" d="M345.87,257.4h86.55a3.06,3.06,0,0,1,3,3h0v138H342.85V260.42A3,3,0,0,1,345.87,257.4Z"/><path class="cls-10" d="M345.79,257.4a3.07,3.07,0,0,0-3,3v138h11.58l72.93-141Z"/><rect class="cls-3" x="387.15" y="257.4" width="4" height="140.97"/><line class="cls-11" x1="379.07" y1="335.88" x2="379.07" y2="319.81"/><line class="cls-11" x1="399.22" y1="335.88" x2="399.22" y2="319.81"/><g class="cls-12"><g class="cls-13"><path class="cls-14" d="M364.36,324.81a53,53,0,1,1-53-53h0a53,53,0,0,1,53,53h0"/><path class="cls-15" d="M336.28,278.08a53,53,0,1,0-49.76,93.54Z"/><path class="cls-16" d="M316.35,335.14c0-3.48-1.37-4.86-7.88-7.83-9.41-4.27-12.24-7.54-12.24-14.13s5.29-11.16,10.65-12.53v-8h.29l7.73,3.43v4.41a20,20,0,0,1,7,2.39l.36.23.29.14-.07.29-.07.43-1,6.09-.21,1.16-.15.8-.65-.44-.94-.72a14,14,0,0,0-8.7-3.05c-4.06,0-6.23,1.81-6.23,4.86,0,2.9,1.45,4.2,7.82,7.17,9.5,4.28,12.47,7.76,12.47,14.78a13.78,13.78,0,0,1-9.93,13.05v9.19h-.63l-7.4-4.13v-4.49a37,37,0,0,1-10.5-3l-.44-.21-.29-.15v-.29l.08-.52.86-6.23.15-1.09.07-.73.58.44.87.58a21,21,0,0,0,11.16,3.62c4.27,0,7-2.1,7-5.58"/></g><path class="cls-14" d="M413.3,324.81a53,53,0,1,1-53-53h0a53,53,0,0,1,53,53h0"/><path class="cls-17" d="M385.23,278.08a53,53,0,1,0-49.76,93.54Z"/><path class="cls-16" d="M367,335.14c0-3.48-1.37-4.86-7.88-7.83-9.42-4.27-12.24-7.54-12.24-14.13s5.29-11.16,10.65-12.53v-8h.29l7.73,3.43v4.41a20,20,0,0,1,7,2.39l.36.23.29.14-.07.29L373,304l-1,6.09-.22,1.16-.14.8-.65-.44-1-.72a13.92,13.92,0,0,0-8.69-3.05c-4.06,0-6.24,1.81-6.24,4.86,0,2.9,1.45,4.2,7.83,7.17,9.5,4.28,12.47,7.76,12.47,14.78a13.78,13.78,0,0,1-9.93,13.05v9.19h-.64l-7.39-4.13v-4.49a37,37,0,0,1-10.5-3l-.44-.21-.29-.15v-.29l.07-.52.87-6.23.15-1.09.07-.73.58.44.87.58A21,21,0,0,0,360,340.7c4.27,0,7-2.1,7-5.58"/></g></svg>