<svg xmlns="http://www.w3.org/2000/svg" xmlns:xlink="http://www.w3.org/1999/xlink" viewBox="0 0 600 600"><defs><style>.cls-1{fill:none;}.cls-2{fill:url(#Degradado_sin_nombre_106);}.cls-3{fill:url(#Degradado_sin_nombre_107);}.cls-4{fill:#043263;}.cls-5{fill:#f8cd50;}.cls-6{fill:url(#Degradado_sin_nombre_111);}.cls-7{fill:url(#Degradado_sin_nombre_109);}</style><linearGradient id="Degradado_sin_nombre_106" x1="434.7" y1="-4672.21" x2="524.75" y2="-4841.58" gradientTransform="matrix(1, 0, 0, -1, 0, -4404)" gradientUnits="userSpaceOnUse"><stop offset="0" stop-color="#192647" stop-opacity="0.5"/><stop offset="1" stop-color="#192647" stop-opacity="0"/></linearGradient><linearGradient id="Degradado_sin_nombre_107" x1="271.83" y1="-4615.1" x2="413.2" y2="-4880.98" xlink:href="#Degradado_sin_nombre_106"/><linearGradient id="Degradado_sin_nombre_111" x1="408.22" y1="-4642.13" x2="299.55" y2="-4642.13" gradientTransform="matrix(1, 0, 0, -1, 0, -4404)" gradientUnits="userSpaceOnUse"><stop offset="0" stop-color="#072146"/><stop offset="1" stop-color="#072146" stop-opacity="0"/></linearGradient><linearGradient id="Degradado_sin_nombre_109" x1="408.17" y1="-4780.47" x2="242.3" y2="-4780.47" xlink:href="#Degradado_sin_nombre_111"/></defs><title>16</title><g id="Cuadrados_Blancos" data-name="Cuadrados Blancos"><rect class="cls-1" width="600" height="600"/></g><g id="Capa_6" data-name="Capa 6"><path class="cls-2" d="M507.6,313.44A121.2,121.2,0,0,0,494,280.59l18.39-26.7c-5.46-8.64-6.68-11.61-14.21-19.15l-.17-.18L389.28,343.18,498,451.83l.17-.17c7.53-7.56,8.75-10.52,14.21-19.17L494,405.8a121.26,121.26,0,0,0,13.62-32.86L539.42,367c2.26-10,3.49-12.95,3.51-23.61v-.51c0-10.65-1.25-13.61-3.51-23.61Z"/><path class="cls-3" d="M286.87,450.8q2.88,1.54,5.87,2.92l1.45.66c1.71.77,3.44,1.52,5.19,2.2,1,.43,2.14.82,3.21,1.21,1.33.48,2.64,1,4,1.41,2.55.83,5.13,1.59,7.78,2.26l5.89,31.9c10,2.26,12.94,3.49,23.62,3.51h.49c10.67,0,13.62-1.25,23.61-3.51l5.89-31.9a121.69,121.69,0,0,0,32.86-13.61l26.69,18.38c8.65-5.46,11.62-6.68,19.17-14.2l.17-.18L344.08,343.18,452.75,234.51l-.17-.19c-7.55-7.51-10.52-8.73-19.17-14.2l-26.69,18.39c-1.75-1-3.57-2-5.36-2.95h0a121.3,121.3,0,0,0-27.54-10.62L368,193c-10-2.25-12.93-3.48-23.61-3.5h-.49c-10.67,0-13.62,1.25-23.62,3.5l-5.91,31.95a121.18,121.18,0,0,0-32.85,13.61l-26.7-18.39c-8.65,5.47-11.61,6.69-19.16,14.21l-.35.36c-7.53,7.54-8.75,10.51-14.21,19.15l18.39,26.7a122.29,122.29,0,0,0-13.62,32.85l-31.9,5.89c-2.25,10-3.49,12.94-3.51,23.61v.51c0,10.65,1.26,13.61,3.51,23.61l31.9,5.89a121.4,121.4,0,0,0,13.62,32.86l-18.39,26.69c5.46,8.65,6.68,11.61,14.21,19.17l.35.35c7.55,7.52,10.51,8.74,19.16,14.2l26.7-18.38c1.74,1,3.56,2,5.37,2.95Z"/><path class="cls-4" d="M408.22,191l-.17-.18c-7.56-7.52-10.52-8.74-19.17-14.21L362.19,195a121.4,121.4,0,0,0-32.86-13.62l-5.88-31.9c-10-2.26-12.95-3.49-23.61-3.5h-.51c-10.65,0-13.61,1.24-23.61,3.5l-5.89,31.9A121.37,121.37,0,0,0,237,195l-26.69-18.39c-8.65,5.47-11.61,6.69-19.16,14.21l-.35.35c-7.53,7.56-8.74,10.52-14.21,19.17L195,237a122.9,122.9,0,0,0-8.14,16.27l112.81,46.34Z"/><path class="cls-4" d="M186.74,253.3a120.45,120.45,0,0,0-5.47,16.61l-31.91,5.88c-2.25,10-3.48,12.95-3.5,23.61v.51c0,10.65,1.25,13.61,3.5,23.61l31.91,5.89a120.86,120.86,0,0,0,13.61,32.85L176.48,389c5.48,8.65,6.69,11.61,14.21,19.15l.36.36c7.55,7.53,10.51,8.74,19.16,14.21l26.69-18.4a120.82,120.82,0,0,0,32.86,13.62l5.89,31.91c10,2.24,12.93,3.48,23.61,3.5h.5c10.66,0,13.62-1.26,23.62-3.5l5.9-31.91a121.2,121.2,0,0,0,32.85-13.62l26.7,18.4c8.65-5.47,11.61-6.68,19.16-14.21l.18-.17L299.55,299.64Z"/><path class="cls-5" d="M467.81,389l-18.4-26.7A121.2,121.2,0,0,0,463,329.43l31.9-6c2.25-10,3.48-12.94,3.5-23.62v-.5c0-10.66-1.25-13.61-3.5-23.61L463,269.83A121.2,121.2,0,0,0,449.41,237l18.4-26.69c-5.46-8.66-6.69-11.61-14.21-19.17l-.18-.17L344.75,299.64,453.42,408.32l.18-.19C461.12,400.59,462.4,397.63,467.81,389Z"/><path class="cls-6" d="M408.22,191l-.17-.18c-7.56-7.52-10.52-8.74-19.17-14.21L362.19,195c-1.76-1-3.57-2.05-5.37-3L299.55,299.64h0Z"/><path class="cls-7" d="M299.55,299.64,242.3,407.26a121.13,121.13,0,0,0,27.51,10.64l5.89,31.91c10,2.24,12.94,3.48,23.61,3.5h.51c10.65,0,13.61-1.26,23.61-3.5l5.85-31.91a121.2,121.2,0,0,0,32.85-13.62l26.7,18.4c8.65-5.47,11.61-6.68,19.16-14.21l.18-.17Z"/></g></svg>