<svg id="Contenido" xmlns="http://www.w3.org/2000/svg" xmlns:xlink="http://www.w3.org/1999/xlink" viewBox="0 0 600 600"><defs><style>.cls-1{fill:url(#Degradado_sin_nombre_10);}.cls-2{fill:url(#Degradado_sin_nombre_10-2);}.cls-3{fill:#1464a5;}.cls-4{fill:#f8cd50;}.cls-5{fill:url(#Degradado_sin_nombre_23);}.cls-6{fill:url(#Degradado_sin_nombre_23-2);}</style><linearGradient id="Degradado_sin_nombre_10" x1="437.97" y1="258.09" x2="525.72" y2="423.14" gradientUnits="userSpaceOnUse"><stop offset="0" stop-color="#192647"/><stop offset="0" stop-color="#192647" stop-opacity="0.5"/><stop offset="1" stop-color="#192647" stop-opacity="0"/></linearGradient><linearGradient id="Degradado_sin_nombre_10-2" x1="279.31" y1="202.48" x2="417.04" y2="461.51" xlink:href="#Degradado_sin_nombre_10"/><linearGradient id="Degradado_sin_nombre_23" x1="411.23" y1="226.88" x2="305.38" y2="226.88" gradientUnits="userSpaceOnUse"><stop offset="0" stop-color="#043263" stop-opacity="0.3"/><stop offset="1" stop-color="#043263" stop-opacity="0.1"/></linearGradient><linearGradient id="Degradado_sin_nombre_23-2" x1="411.23" y1="361.66" x2="249.62" y2="361.66" xlink:href="#Degradado_sin_nombre_23"/></defs><title>self_driven</title><path class="cls-1" d="M509,302.2a117.87,117.87,0,0,0-13.26-32l17.91-26c-5.32-8.42-6.51-11.31-13.84-18.66l-.17-.17L393.76,331.17,499.61,437l.17-.17c7.33-7.36,8.52-10.24,13.84-18.67l-17.91-26a117.87,117.87,0,0,0,13.26-32L540,354.4c2.2-9.73,3.4-12.61,3.42-23v-.49c0-10.38-1.22-13.26-3.42-23Z"/><path class="cls-2" d="M294,436c1.87,1,3.78,1.94,5.72,2.84l1.41.64c1.67.75,3.35,1.48,5.06,2.15,1,.41,2.08.79,3.13,1.17,1.29.47,2.57.95,3.88,1.38,2.49.81,5,1.55,7.58,2.2l5.74,31.07c9.73,2.2,12.6,3.4,23,3.42H350c10.39,0,13.27-1.22,23-3.42l5.74-31.07a118.19,118.19,0,0,0,32-13.26l26,17.91c8.43-5.32,11.32-6.51,18.67-13.84l.17-.17L349.73,331.17,455.58,225.32l-.17-.18c-7.35-7.32-10.24-8.51-18.67-13.84l-26,17.92c-1.7-1-3.47-1.94-5.22-2.88h0A118.15,118.15,0,0,0,378.7,216L373,184.88c-9.72-2.19-12.6-3.39-23-3.41h-.48c-10.39,0-13.26,1.22-23,3.41L320.76,216a117.87,117.87,0,0,0-32,13.26l-26-17.92c-8.43,5.33-11.31,6.52-18.67,13.84l-.34.35c-7.33,7.35-8.52,10.24-13.84,18.66l17.91,26a119.29,119.29,0,0,0-13.26,32l-31.07,5.74c-2.2,9.72-3.4,12.6-3.42,23v.49c0,10.38,1.22,13.26,3.42,23l31.07,5.74a118.19,118.19,0,0,0,13.26,32l-17.91,26c5.32,8.43,6.51,11.31,13.84,18.67l.34.34c7.36,7.33,10.24,8.52,18.67,13.84l26-17.91c1.7,1,3.47,1.94,5.23,2.88Z"/><path class="cls-3" d="M411.23,181l-.17-.17c-7.36-7.33-10.24-8.52-18.67-13.84l-26,17.92a118,118,0,0,0-32-13.27l-5.73-31.07c-9.73-2.2-12.61-3.4-23-3.41h-.49c-10.38,0-13.26,1.21-23,3.41l-5.74,31.07a118.06,118.06,0,0,0-32,13.26l-26-17.91c-8.43,5.32-11.31,6.51-18.66,13.84l-.35.34c-7.33,7.36-8.51,10.24-13.84,18.67l17.92,26a118.29,118.29,0,0,0-7.93,15.84l109.88,45.14Z"/><path class="cls-3" d="M195.5,241.67a117.85,117.85,0,0,0-5.33,16.18l-31.08,5.73c-2.19,9.73-3.39,12.61-3.41,23v.49c0,10.38,1.22,13.26,3.41,23l31.08,5.74a117.74,117.74,0,0,0,13.26,32l-17.92,26c5.33,8.43,6.51,11.31,13.84,18.66l.35.35c7.35,7.33,10.23,8.51,18.66,13.84l26-17.92a117.74,117.74,0,0,0,32,13.26l5.74,31.08c9.72,2.19,12.6,3.39,23,3.41h.49c10.38,0,13.26-1.22,23-3.41L334.34,402a117.94,117.94,0,0,0,32-13.26l26,17.92c8.43-5.33,11.31-6.51,18.67-13.84l.17-.17L305.38,286.81Z"/><path class="cls-4" d="M469.27,373.83l-17.92-26a118.21,118.21,0,0,0,13.27-32L495.69,310c2.19-9.72,3.39-12.6,3.41-23v-.49c0-10.38-1.22-13.26-3.41-23l-31.07-5.73a118.27,118.27,0,0,0-13.27-32l17.92-26c-5.32-8.43-6.51-11.31-13.84-18.67l-.17-.17L349.41,286.81,455.26,392.67l.17-.18C462.76,385.14,464,382.26,469.27,373.83Z"/><path class="cls-5" d="M411.23,181l-.17-.17c-7.36-7.33-10.24-8.52-18.67-13.84l-26,17.92c-1.71-1-3.47-2-5.23-2.88L305.38,286.81h0Z"/><path class="cls-6" d="M305.38,286.81,249.62,391.64A118,118,0,0,0,276.41,402l5.74,31.08c9.72,2.19,12.6,3.39,23,3.41h.49c10.38,0,13.26-1.22,23-3.41L334.34,402a117.94,117.94,0,0,0,32-13.26l26,17.92c8.43-5.33,11.31-6.51,18.67-13.84l.17-.17L305.38,286.81Z"/></svg>