<svg id="Capa_1" data-name="Capa 1" xmlns="http://www.w3.org/2000/svg" xmlns:xlink="http://www.w3.org/1999/xlink" viewBox="0 0 600 600"><defs><style>.cls-1,.cls-11{fill:none;}.cls-2{fill:url(#Degradado_sin_nombre_2);}.cls-3{fill:#004481;}.cls-4{fill:#043263;}.cls-5{fill:#fff;}.cls-6{fill:#2dcccd;}.cls-7{fill:#49a5e6;}.cls-8,.cls-9{opacity:0.5;isolation:isolate;}.cls-8{fill:url(#Degradado_sin_nombre_3);}.cls-9{fill:url(#Degradado_sin_nombre_3-2);}.cls-10{fill:#1464a5;}.cls-11{stroke:#eaf9fa;stroke-linecap:round;stroke-linejoin:round;stroke-width:4.03px;}.cls-12{clip-path:url(#clip-path);}.cls-13{opacity:0.45;}.cls-14{fill:#f8cd51;}.cls-15{fill:url(#Degradado_sin_nombre_5);}.cls-16{fill:#fef5dc;}.cls-17{fill:url(#Degradado_sin_nombre_5-2);}</style><linearGradient id="Degradado_sin_nombre_2" x1="262.27" y1="199.58" x2="432.42" y2="519.59" gradientTransform="translate(0 2)" gradientUnits="userSpaceOnUse"><stop offset="0" stop-color="#192647"/><stop offset="0" stop-color="#192647" stop-opacity="0.3"/><stop offset="1" stop-color="#192647" stop-opacity="0"/></linearGradient><linearGradient id="Degradado_sin_nombre_3" x1="158.04" y1="258.34" x2="231.77" y2="332.07" gradientTransform="translate(0 2)" gradientUnits="userSpaceOnUse"><stop offset="0" stop-color="#fff" stop-opacity="0.5"/><stop offset="1" stop-color="#e8f7f8" stop-opacity="0.2"/><stop offset="1" stop-color="#fff" stop-opacity="0"/></linearGradient><linearGradient id="Degradado_sin_nombre_3-2" x1="329.25" y1="270.41" x2="404.63" y2="345.79" xlink:href="#Degradado_sin_nombre_3"/><clipPath id="clip-path"><rect class="cls-1" x="209.39" y="257.4" width="181.23" height="140.97"/></clipPath><linearGradient id="Degradado_sin_nombre_5" x1="266.88" y1="275.47" x2="310.79" y2="298.81" gradientTransform="translate(0 26)" gradientUnits="userSpaceOnUse"><stop offset="0" stop-color="#fade8e"/><stop offset="1" stop-color="#fade8e" stop-opacity="0.4"/></linearGradient><linearGradient id="Degradado_sin_nombre_5-2" x1="315.82" y1="275.47" x2="359.74" y2="298.81" xlink:href="#Degradado_sin_nombre_5"/></defs><rect class="cls-1" width="600" height="600"/><path class="cls-2" d="M526.75,278.53a3.07,3.07,0,0,0,3-3h0v-10a23.15,23.15,0,0,0-23.17-23.17H191.46a23.15,23.15,0,0,0-23.17,23.17v10a3.07,3.07,0,0,0,3,3h9.05V449.68h-4a8,8,0,0,0-8.08,8.08v12.07H529.77V457.76a8,8,0,0,0-8.08-8.08h-4V278.53Z"/><rect class="cls-3" x="129.05" y="227.22" width="337.25" height="171.15"/><path class="cls-4" d="M140.15,190.92H455.29a23.15,23.15,0,0,1,23.16,23.16v10a3.06,3.06,0,0,1-3,3H120a3.06,3.06,0,0,1-3-3v-10a23.15,23.15,0,0,1,23.17-23.16Z"/><path class="cls-3" d="M366,69.12H229.48A30.64,30.64,0,0,0,198.8,99.79v23.66a30.69,30.69,0,0,0,30.68,30.67h47.23a2.21,2.21,0,0,1,1.71.74L296,172.4a2.46,2.46,0,0,0,3.51,0L317,154.86a2.35,2.35,0,0,1,1.71-.74H366a30.63,30.63,0,0,0,30.67-30.67V99.79A30.69,30.69,0,0,0,366,69.12Z"/><path class="cls-5" d="M328.27,94.82,317,116.19a.72.72,0,0,1-1,.24l-.24-.24L304.53,94.82a.54.54,0,0,0-.57-.33h-5.39a.47.47,0,0,0-.49.49.27.27,0,0,0,.09.24l17.7,33.21a.66.66,0,0,0,.9.32c.08-.08.24-.16.32-.32l17.7-33.21a.49.49,0,0,0-.16-.65.29.29,0,0,0-.24-.08h-5.47a.58.58,0,0,0-.65.33"/><path class="cls-5" d="M334.55,123.37,345.81,102a.74.74,0,0,1,1-.24l.24.24,11.26,21.38a.55.55,0,0,0,.57.32h5.38a.47.47,0,0,0,.49-.49.29.29,0,0,0-.08-.24L347,89.76c-.16-.33-.49-.41-.9-.33-.08.08-.24.16-.32.33L328,123a.51.51,0,0,0,.17.65.29.29,0,0,0,.24.08h5.47c.4,0,.65-.08.65-.32"/><path class="cls-5" d="M250.44,123.69H240.33a.7.7,0,0,1-.66-.65V114a.71.71,0,0,1,.66-.66h10.11c4.81,0,7,1.39,7,5.14-.08,3.92-2.21,5.22-7,5.22M240.33,99.47h10C254,99.47,256,101,256,104s-1.88,4.49-5.63,4.49h-10a.71.71,0,0,1-.66-.65h0v-7.67c-.08-.41.17-.65.66-.65h0m17.37,10.76c2.37-1.14,3.84-3.67,3.84-6.85,0-5.38-4.16-9-10-9H234.62a.7.7,0,0,0-.66.65h0v33a.71.71,0,0,0,.66.65h16.15c8.07,0,12.32-3.51,12.32-10.28,0-6.61-5.39-8.16-5.39-8.16"/><path class="cls-5" d="M285,123.69H274.92a.7.7,0,0,1-.66-.65h0V114a.71.71,0,0,1,.66-.66H285c4.81,0,7,1.39,7,5.14-.08,3.92-2.12,5.22-7,5.22M274.92,99.47h10c3.67,0,5.63,1.55,5.63,4.48s-1.88,4.49-5.63,4.49h-10a.71.71,0,0,1-.66-.65h0v-7.67a.6.6,0,0,1,.66-.65h0m17.37,10.76c2.37-1.14,3.84-3.67,3.84-6.85,0-5.38-4.16-9-10-9H269.2a.7.7,0,0,0-.65.65h0v33a.71.71,0,0,0,.65.65h16.16c8.07,0,12.32-3.51,12.32-10.28,0-6.61-5.31-8.16-5.39-8.16"/><path class="cls-6" d="M125.05,398.37H470.38a8,8,0,0,1,8.07,8.08v12.07H117V406.45A8,8,0,0,1,125.05,398.37Z"/><path class="cls-7" d="M162.25,257.4h147a3.07,3.07,0,0,1,3,3V365.17a3.07,3.07,0,0,1-3,3h-147a3.06,3.06,0,0,1-3-3V260.42A3,3,0,0,1,162.25,257.4Z"/><path class="cls-8" d="M162.25,257.4a3,3,0,0,0-3,2.86h0v105a2.86,2.86,0,0,0,3,2.85h35.49L260,257.4Z"/><path class="cls-7" d="M345.56,257.4h86.56a3.07,3.07,0,0,1,3,3h0v138h-92.6V260.42A3,3,0,0,1,345.56,257.4Z"/><path class="cls-9" d="M345.48,257.4a3.07,3.07,0,0,0-3,3v138h11.59L427,257.4Z"/><rect class="cls-10" x="386.84" y="257.4" width="4" height="140.97"/><line class="cls-11" x1="378.77" y1="335.88" x2="378.77" y2="319.81"/><line class="cls-11" x1="398.92" y1="335.88" x2="398.92" y2="319.81"/><g class="cls-12"><g class="cls-13"><path class="cls-14" d="M363.83,324.81a53,53,0,1,1-53-53h0a53,53,0,0,1,53,53h0"/><path class="cls-15" d="M335.75,278.08A53,53,0,1,0,286,371.62Z"/><path class="cls-16" d="M315.82,335.14c0-3.48-1.37-4.86-7.88-7.83-9.42-4.27-12.24-7.54-12.24-14.13S301,302,306.35,300.65v-8h.29l7.73,3.43v4.41a20,20,0,0,1,7,2.39l.36.23.29.14-.07.29-.07.43-1,6.09-.22,1.16-.14.8-.65-.44-.94-.72a14,14,0,0,0-8.7-3.05c-4.06,0-6.23,1.81-6.23,4.86,0,2.9,1.45,4.2,7.82,7.17,9.5,4.28,12.47,7.76,12.47,14.78a13.78,13.78,0,0,1-9.93,13.05v9.19h-.63l-7.4-4.13v-4.49a37,37,0,0,1-10.5-3l-.44-.21-.29-.15v-.29l.08-.52.86-6.23.15-1.09.07-.73.58.44.87.58a21,21,0,0,0,11.16,3.62c4.27,0,7-2.1,7-5.58"/></g><path class="cls-14" d="M412.77,324.81a53,53,0,1,1-53-53h0a53,53,0,0,1,53,53h0"/><path class="cls-17" d="M384.7,278.08a53,53,0,1,0-49.76,93.54Z"/><path class="cls-16" d="M366.46,335.14c0-3.48-1.37-4.86-7.88-7.83-9.42-4.27-12.24-7.54-12.24-14.13S351.63,302,357,300.65v-8h.29L365,296.1v4.41a20,20,0,0,1,7,2.39l.36.23.29.14-.07.29-.07.43-1,6.09-.22,1.16-.14.8-.66-.44-.94-.72a13.92,13.92,0,0,0-8.69-3.05c-4.06,0-6.24,1.81-6.24,4.86,0,2.9,1.45,4.2,7.83,7.17,9.49,4.28,12.47,7.76,12.47,14.78a13.78,13.78,0,0,1-9.93,13.05v9.19h-.64l-7.39-4.13v-4.49a37,37,0,0,1-10.5-3l-.44-.21-.29-.15v-.29l.07-.52.87-6.23.15-1.09.07-.73.58.44.87.58a21,21,0,0,0,11.16,3.62c4.27,0,7-2.1,7-5.58"/></g></svg>