<svg id="Capa_1" data-name="Capa 1" xmlns="http://www.w3.org/2000/svg" xmlns:xlink="http://www.w3.org/1999/xlink" viewBox="0 0 600 600"><defs><style>.cls-1,.cls-11{fill:none;}.cls-2{fill:url(#Degradado_sin_nombre_2);}.cls-3{fill:#004481;}.cls-4{fill:#043263;}.cls-5{fill:#fff;}.cls-6{fill:#2dcccd;}.cls-7{fill:#49a5e6;}.cls-8,.cls-9{opacity:0.5;isolation:isolate;}.cls-8{fill:url(#Degradado_sin_nombre_3);}.cls-9{fill:url(#Degradado_sin_nombre_3-2);}.cls-10{fill:#1464a5;}.cls-11{stroke:#eaf9fa;stroke-linecap:round;stroke-linejoin:round;stroke-width:4.03px;}.cls-12{clip-path:url(#clip-path);}.cls-13{opacity:0.45;}.cls-14{fill:#f8cd51;}.cls-15{fill:url(#Degradado_sin_nombre_5);}.cls-16{fill:#fef5dc;}.cls-17{fill:url(#Degradado_sin_nombre_5-2);}</style><linearGradient id="Degradado_sin_nombre_2" x1="230.42" y1="198.79" x2="400.57" y2="518.81" gradientTransform="translate(0 2)" gradientUnits="userSpaceOnUse"><stop offset="0" stop-color="#192647"/><stop offset="0" stop-color="#192647" stop-opacity="0.3"/><stop offset="1" stop-color="#192647" stop-opacity="0"/></linearGradient><linearGradient id="Degradado_sin_nombre_3" x1="126.19" y1="257.55" x2="199.92" y2="331.29" gradientTransform="translate(0 2)" gradientUnits="userSpaceOnUse"><stop offset="0" stop-color="#fff" stop-opacity="0.5"/><stop offset="1" stop-color="#e8f7f8" stop-opacity="0.2"/><stop offset="1" stop-color="#fff" stop-opacity="0"/></linearGradient><linearGradient id="Degradado_sin_nombre_3-2" x1="297.4" y1="269.63" x2="372.77" y2="345" xlink:href="#Degradado_sin_nombre_3"/><clipPath id="clip-path"><rect class="cls-1" x="177.76" y="256.62" width="181.23" height="140.97"/></clipPath><linearGradient id="Degradado_sin_nombre_5" x1="235.25" y1="274.68" x2="279.16" y2="298.02" gradientTransform="translate(0 26)" gradientUnits="userSpaceOnUse"><stop offset="0" stop-color="#fade8e"/><stop offset="1" stop-color="#fade8e" stop-opacity="0.4"/></linearGradient><linearGradient id="Degradado_sin_nombre_5-2" x1="284.2" y1="274.68" x2="328.11" y2="298.02" xlink:href="#Degradado_sin_nombre_5"/></defs><rect class="cls-1" width="600" height="600"/><path class="cls-2" d="M494.9,277.74a3.06,3.06,0,0,0,3-3h0v-10a23.15,23.15,0,0,0-23.17-23.17H159.61a23.15,23.15,0,0,0-23.17,23.17v10a3.06,3.06,0,0,0,3,3h9V448.9h-4a8,8,0,0,0-8.08,8.07v12.08H497.92V457a8,8,0,0,0-8.08-8.07h-4V277.74Z"/><rect class="cls-3" x="97.2" y="226.43" width="337.25" height="171.15"/><path class="cls-4" d="M108.3,190.13H423.43A23.15,23.15,0,0,1,446.6,213.3v10a3.06,3.06,0,0,1-3,3H88.15a3.06,3.06,0,0,1-3-3v-10a23.15,23.15,0,0,1,23.17-23.17Z"/><path class="cls-3" d="M334.11,68.33H197.62A30.64,30.64,0,0,0,167,99v23.66a30.7,30.7,0,0,0,30.67,30.68h47.24a2.22,2.22,0,0,1,1.71.73l17.54,17.54a2.46,2.46,0,0,0,3.51,0l17.54-17.54a2.34,2.34,0,0,1,1.71-.73h47.24a30.64,30.64,0,0,0,30.67-30.68V99A30.69,30.69,0,0,0,334.11,68.33Z"/><path class="cls-5" d="M296.42,94,285.16,115.4a.73.73,0,0,1-1,.25l-.25-.25L272.68,94a.54.54,0,0,0-.57-.33h-5.39a.48.48,0,0,0-.49.49.32.32,0,0,0,.08.25L284,127.64a.65.65,0,0,0,.89.33c.09-.09.25-.17.33-.33l17.7-33.2a.53.53,0,0,0-.16-.66.3.3,0,0,0-.25-.08h-5.46a.6.6,0,0,0-.65.33"/><path class="cls-5" d="M302.7,122.58,314,101.21a.72.72,0,0,1,1-.25l.25.25,11.26,21.37a.54.54,0,0,0,.57.33h5.38a.47.47,0,0,0,.49-.49.31.31,0,0,0-.08-.25L315.1,89a.74.74,0,0,0-.9-.33c-.08.09-.24.17-.33.33l-17.7,33.2a.53.53,0,0,0,.16.66.32.32,0,0,0,.25.08h5.47c.4,0,.65-.08.65-.33"/><path class="cls-5" d="M218.59,122.91H208.47a.71.71,0,0,1-.65-.66v-9a.7.7,0,0,1,.65-.65h10.12c4.81,0,7,1.38,7,5.14-.09,3.91-2.21,5.22-7,5.22M208.47,98.68h10c3.67,0,5.63,1.55,5.63,4.49s-1.88,4.48-5.63,4.48h-10a.7.7,0,0,1-.65-.65h0V99.33c-.08-.41.16-.65.65-.65h0m17.38,10.77c2.37-1.15,3.83-3.67,3.83-6.86,0-5.38-4.16-9-10-9H202.76a.71.71,0,0,0-.65.65h0v33a.7.7,0,0,0,.65.65h16.16c8.07,0,12.31-3.5,12.31-10.28,0-6.6-5.38-8.15-5.38-8.15"/><path class="cls-5" d="M253.18,122.91H243.06a.71.71,0,0,1-.65-.66h0v-9a.7.7,0,0,1,.65-.65h10.12c4.81,0,7,1.38,7,5.14-.09,3.91-2.13,5.22-7,5.22M243.06,98.68h10c3.67,0,5.63,1.55,5.63,4.49s-1.88,4.48-5.63,4.48h-10a.7.7,0,0,1-.65-.65h0V99.33a.6.6,0,0,1,.65-.65h0m17.38,10.77c2.37-1.15,3.83-3.67,3.83-6.86,0-5.38-4.16-9-10-9H237.35a.71.71,0,0,0-.65.65h0v33a.7.7,0,0,0,.65.65h16.16c8.07,0,12.31-3.5,12.31-10.28,0-6.6-5.3-8.15-5.38-8.15"/><path class="cls-6" d="M93.2,397.58H438.53a8,8,0,0,1,8.07,8.08v12.07H85.13V405.66A8,8,0,0,1,93.2,397.58Z"/><path class="cls-7" d="M130.4,256.62h147a3.06,3.06,0,0,1,3,3V364.38a3.07,3.07,0,0,1-3,3h-147a3.07,3.07,0,0,1-3-3V259.63A3,3,0,0,1,130.4,256.62Z"/><path class="cls-8" d="M130.4,256.62a3,3,0,0,0-3,2.85h0v105a2.88,2.88,0,0,0,3,2.86h35.49l62.24-110.7Z"/><path class="cls-7" d="M313.71,256.62h86.56a3.05,3.05,0,0,1,3,3h0v138H310.69V259.63A3,3,0,0,1,313.71,256.62Z"/><path class="cls-9" d="M313.63,256.62a3.06,3.06,0,0,0-3,3v138H322.2l72.93-141Z"/><rect class="cls-10" x="354.99" y="256.62" width="4" height="140.97"/><line class="cls-11" x1="346.91" y1="335.09" x2="346.91" y2="319.02"/><line class="cls-11" x1="367.06" y1="335.09" x2="367.06" y2="319.02"/><g class="cls-12"><g class="cls-13"><path class="cls-14" d="M332.2,324a53,53,0,1,1-53-53h0a53,53,0,0,1,53,53h0"/><path class="cls-15" d="M304.13,277.29a53,53,0,1,0-49.77,93.55Z"/><path class="cls-16" d="M260.64,322.07h-7.22v-5.38h7.86c2.19-12.24,9.79-17.85,18.66-17.85,9.33,0,14.28,4.77,16.71,10.79l-6.89,3.89c-1.7-5.11-4.71-7.55-9.79-7.55-5.43,0-9.32,3.5-10.7,10.72h12.24v5.43H268.66v1.7c0,1,0,1.95.09,2.84h12.81v5.53H269.39c1.4,6.73,4.79,10.22,10.72,10.22,5.11,0,8.16-2.28,10.06-8l6.73,4.08c-2.76,6.27-8.43,10.79-16.88,10.79-9.13,0-16.39-5.41-18.65-17.13h-8v-5.53h7.34c-.08-.89-.08-1.78-.08-2.67v-1.92Z"/></g><path class="cls-14" d="M381.15,324a53,53,0,1,1-53-53h0a53,53,0,0,1,53,53h0"/><path class="cls-17" d="M353.07,277.29a53,53,0,0,0-49.76,93.55Z"/><path class="cls-16" d="M309.58,322.07h-7.21v-5.38h7.86c2.19-12.24,9.79-17.85,18.66-17.85,9.33,0,14.28,4.77,16.71,10.79l-6.89,3.89C337,308.41,334,306,328.92,306c-5.43,0-9.33,3.5-10.7,10.72h12.23v5.43H317.61v1.7c0,1,0,1.95.08,2.84h12.82v5.53H318.34c1.39,6.73,4.79,10.22,10.72,10.22,5.1,0,8.16-2.28,10.06-8l6.73,4.08c-2.76,6.27-8.43,10.79-16.88,10.79-9.13,0-16.39-5.41-18.65-17.13h-7.95v-5.53h7.34c-.08-.89-.08-1.78-.08-2.67v-1.92Z"/></g></svg>