<svg id="Capa_1" data-name="Capa 1" xmlns="http://www.w3.org/2000/svg" xmlns:xlink="http://www.w3.org/1999/xlink" viewBox="0 0 600 600"><defs><style>.cls-1,.cls-11{fill:none;}.cls-2{fill:url(#Degradado_sin_nombre_2);}.cls-3{fill:#1464a5;}.cls-4{fill:#043263;}.cls-5{fill:#004481;}.cls-6{fill:#fff;}.cls-7{fill:#2dcccd;}.cls-8{fill:#49a5e6;}.cls-10,.cls-9{opacity:0.5;isolation:isolate;}.cls-9{fill:url(#Degradado_sin_nombre_3);}.cls-10{fill:url(#Degradado_sin_nombre_3-2);}.cls-11{stroke:#eaf9fa;stroke-linecap:round;stroke-linejoin:round;stroke-width:4.03px;}.cls-12{clip-path:url(#clip-path);}.cls-13{opacity:0.45;}.cls-14{fill:#f8cd51;}.cls-15{fill:url(#Degradado_sin_nombre_5);}.cls-16{fill:#fef5dc;}.cls-17{fill:url(#Degradado_sin_nombre_5-2);}</style><linearGradient id="Degradado_sin_nombre_2" x1="262.57" y1="198.79" x2="432.73" y2="518.81" gradientTransform="translate(0 2)" gradientUnits="userSpaceOnUse"><stop offset="0" stop-color="#192647"/><stop offset="0" stop-color="#192647" stop-opacity="0.3"/><stop offset="1" stop-color="#192647" stop-opacity="0"/></linearGradient><linearGradient id="Degradado_sin_nombre_3" x1="158.34" y1="257.55" x2="232.08" y2="331.29" gradientTransform="translate(0 2)" gradientUnits="userSpaceOnUse"><stop offset="0" stop-color="#fff" stop-opacity="0.5"/><stop offset="1" stop-color="#e8f7f8" stop-opacity="0.2"/><stop offset="1" stop-color="#fff" stop-opacity="0"/></linearGradient><linearGradient id="Degradado_sin_nombre_3-2" x1="329.55" y1="269.63" x2="404.93" y2="345" xlink:href="#Degradado_sin_nombre_3"/><clipPath id="clip-path"><rect class="cls-1" x="209.92" y="256.62" width="181.23" height="140.97"/></clipPath><linearGradient id="Degradado_sin_nombre_5" x1="267.41" y1="274.68" x2="311.32" y2="298.02" gradientTransform="translate(0 26)" gradientUnits="userSpaceOnUse"><stop offset="0" stop-color="#fade8e"/><stop offset="1" stop-color="#fade8e" stop-opacity="0.4"/></linearGradient><linearGradient id="Degradado_sin_nombre_5-2" x1="316.35" y1="274.68" x2="360.27" y2="298.02" xlink:href="#Degradado_sin_nombre_5"/></defs><rect class="cls-1" width="600" height="600"/><path class="cls-2" d="M527.06,277.74a3.05,3.05,0,0,0,3-3h0v-10a23.15,23.15,0,0,0-23.16-23.17H191.77a23.15,23.15,0,0,0-23.17,23.17v10a3.05,3.05,0,0,0,3,3h9V448.9h-4A8,8,0,0,0,168.6,457v12.08H530.07V457A8,8,0,0,0,522,448.9h-4V277.74Z"/><rect class="cls-3" x="129.36" y="226.43" width="337.25" height="171.15"/><path class="cls-4" d="M140.45,190.13H455.59a23.15,23.15,0,0,1,23.17,23.17v10a3.07,3.07,0,0,1-3,3H120.3a3.07,3.07,0,0,1-3-3v-10a23.15,23.15,0,0,1,23.17-23.17Z"/><path class="cls-5" d="M366.26,68.33H229.78A30.64,30.64,0,0,0,199.11,99v23.66a30.69,30.69,0,0,0,30.67,30.68H277a2.22,2.22,0,0,1,1.71.73l17.54,17.54a2.46,2.46,0,0,0,3.51,0l17.54-17.54a2.34,2.34,0,0,1,1.71-.73h47.23a30.65,30.65,0,0,0,30.68-30.68V99A30.7,30.7,0,0,0,366.26,68.33Z"/><path class="cls-6" d="M328.57,94,317.32,115.4a.74.74,0,0,1-1,.25l-.25-.25L304.83,94a.54.54,0,0,0-.57-.33h-5.38a.47.47,0,0,0-.49.49.32.32,0,0,0,.08.25l17.7,33.2a.67.67,0,0,0,.9.33c.08-.09.25-.17.33-.33l17.7-33.2a.53.53,0,0,0-.16-.66.31.31,0,0,0-.25-.08h-5.46a.62.62,0,0,0-.66.33"/><path class="cls-6" d="M334.86,122.58l11.25-21.37a.74.74,0,0,1,1-.25l.25.25,11.25,21.37a.56.56,0,0,0,.58.33h5.38a.47.47,0,0,0,.49-.49.31.31,0,0,0-.08-.25L347.26,89a.74.74,0,0,0-.9-.33c-.08.09-.25.17-.33.33l-17.7,33.2a.53.53,0,0,0,.16.66.31.31,0,0,0,.25.08h5.46c.41,0,.66-.08.66-.33"/><path class="cls-6" d="M250.75,122.91H240.63a.71.71,0,0,1-.65-.66v-9a.69.69,0,0,1,.65-.65h10.12c4.81,0,7,1.38,7,5.14-.08,3.91-2.2,5.22-7,5.22M240.63,98.68h10c3.67,0,5.62,1.55,5.62,4.49s-1.87,4.48-5.62,4.48h-10A.69.69,0,0,1,240,107h0V99.33c-.08-.41.16-.65.65-.65h0M258,109.45c2.36-1.15,3.83-3.67,3.83-6.86,0-5.38-4.16-9-10-9H234.92a.7.7,0,0,0-.65.65h0v33a.69.69,0,0,0,.65.65h16.15c8.08,0,12.32-3.5,12.32-10.28,0-6.6-5.38-8.15-5.38-8.15"/><path class="cls-6" d="M285.34,122.91H275.22a.7.7,0,0,1-.65-.66h0v-9a.69.69,0,0,1,.65-.65h10.12c4.81,0,7,1.38,7,5.14-.08,3.91-2.12,5.22-7,5.22M275.22,98.68h10c3.67,0,5.62,1.55,5.62,4.49s-1.87,4.48-5.62,4.48h-10a.69.69,0,0,1-.65-.65h0V99.33a.59.59,0,0,1,.65-.65h0m17.38,10.77c2.36-1.15,3.83-3.67,3.83-6.86,0-5.38-4.16-9-10-9H269.51a.7.7,0,0,0-.65.65h0v33a.69.69,0,0,0,.65.65h16.15c8.08,0,12.32-3.5,12.32-10.28,0-6.6-5.3-8.15-5.38-8.15"/><path class="cls-7" d="M125.36,397.58H470.68a8,8,0,0,1,8.08,8.08v12.07H117.28V405.66A8,8,0,0,1,125.36,397.58Z"/><path class="cls-8" d="M162.56,256.62h147a3.05,3.05,0,0,1,3,3V364.38a3.06,3.06,0,0,1-3,3h-147a3.07,3.07,0,0,1-3-3V259.63A3,3,0,0,1,162.56,256.62Z"/><path class="cls-9" d="M162.56,256.62a3,3,0,0,0-3,2.85h0v105a2.88,2.88,0,0,0,3,2.86h35.49l62.24-110.7Z"/><path class="cls-8" d="M345.87,256.62h86.55a3.05,3.05,0,0,1,3,3h0v138H342.85V259.63A3,3,0,0,1,345.87,256.62Z"/><path class="cls-10" d="M345.79,256.62a3.06,3.06,0,0,0-3,3v138h11.58l72.93-141Z"/><rect class="cls-3" x="387.15" y="256.62" width="4" height="140.97"/><line class="cls-11" x1="379.07" y1="335.09" x2="379.07" y2="319.02"/><line class="cls-11" x1="399.22" y1="335.09" x2="399.22" y2="319.02"/><g class="cls-12"><g class="cls-13"><path class="cls-14" d="M364.36,324a53,53,0,1,1-53-53h0a53,53,0,0,1,53,53h0"/><path class="cls-15" d="M336.28,277.29a53,53,0,0,0-49.76,93.55Z"/><path class="cls-16" d="M292.79,322.07h-7.22v-5.38h7.87c2.19-12.24,9.79-17.85,18.66-17.85,9.33,0,14.28,4.77,16.71,10.79l-6.89,3.89c-1.71-5.11-4.71-7.55-9.79-7.55-5.43,0-9.33,3.5-10.7,10.72h12.23v5.43H300.82v1.7c0,1,0,1.95.08,2.84h12.82v5.53H301.55c1.39,6.73,4.79,10.22,10.72,10.22,5.1,0,8.16-2.28,10.06-8l6.73,4.08c-2.76,6.27-8.43,10.79-16.88,10.79-9.13,0-16.39-5.41-18.65-17.13h-8v-5.53h7.35c-.08-.89-.08-1.78-.08-2.67v-1.92Z"/></g><path class="cls-14" d="M413.3,324a53,53,0,1,1-53-53h0a53,53,0,0,1,53,53h0"/><path class="cls-17" d="M385.23,277.29a53,53,0,0,0-49.76,93.55Z"/><path class="cls-16" d="M341.74,322.07h-7.22v-5.38h7.87c2.18-12.24,9.79-17.85,18.65-17.85,9.34,0,14.29,4.77,16.72,10.79l-6.89,3.89c-1.71-5.11-4.71-7.55-9.79-7.55-5.44,0-9.33,3.5-10.71,10.72h12.24v5.43H349.77v1.7c0,1,0,1.95.08,2.84h12.82v5.53H350.5c1.39,6.73,4.78,10.22,10.71,10.22,5.11,0,8.16-2.28,10.06-8l6.73,4.08c-2.75,6.27-8.42,10.79-16.87,10.79-9.13,0-16.39-5.41-18.65-17.13h-8v-5.53h7.34c-.08-.89-.08-1.78-.08-2.67v-1.92Z"/></g></svg>