<svg id="Contenido" xmlns="http://www.w3.org/2000/svg" xmlns:xlink="http://www.w3.org/1999/xlink" viewBox="0 0 600 600"><defs><style>.cls-1{fill:url(#Degradado_sin_nombre_42);}.cls-2{fill:#043263;}.cls-3{fill:#02a5a5;}.cls-4{fill:#028484;}.cls-5{fill:#072146;}.cls-6{fill:#56e2de;}.cls-7{fill:#2dcccd;}.cls-8{fill:#1464a5;}.cls-9{fill:url(#Degradado_sin_nombre_15);}.cls-10{fill:#d4edfc;}</style><linearGradient id="Degradado_sin_nombre_42" x1="238.59" y1="91.28" x2="465.21" y2="517.48" gradientUnits="userSpaceOnUse"><stop offset="0" stop-color="#192647" stop-opacity="0.5"/><stop offset="1" stop-color="#192647" stop-opacity="0"/></linearGradient><linearGradient id="Degradado_sin_nombre_15" x1="412.83" y1="407.96" x2="280.11" y2="407.96" gradientUnits="userSpaceOnUse"><stop offset="0" stop-color="#043263" stop-opacity="0.8"/><stop offset="1" stop-color="#043263" stop-opacity="0"/></linearGradient></defs><title>seguros</title><path class="cls-1" d="M521.89,274.46c0-.14,0-.28-.08-.42l.08,0-.1-.1c-9.19-51.11-83.55-112.85-174.79-115V146a5,5,0,0,0-10,0v12.86c-91.24,2.2-165.6,63.94-174.79,115.05l-.1.1.08,0c0,.14-.06.28-.08.42l.44-.31c38.14,11.88,48.86,15.54,81.5,35.24,32.67-2.18,61.88.46,92.95,7.38v49.34a75.21,75.21,0,0,0-9.34-8.84A57,57,0,0,0,292.27,345a60.38,60.38,0,0,0-45.19,19.73c-11.47,12.59-17.91,29.66-17.91,48.26,0,19,7.14,36.52,22.39,55,13.71,16.51,33.29,33.3,56,52.6L322.3,533.2l4.93,4.24c.29.26.6.51.9.77l5.13,4.43a13.58,13.58,0,0,0,4.15,2.44,13.37,13.37,0,0,0,4.59.81c.39,0,.78,0,1.17,0a13.46,13.46,0,0,0,5.58-1.78,13.63,13.63,0,0,0,2-1.42c9.1-8,17.91-15.53,25.74-22.11,22.67-19.44,42.39-36.09,56-52.6q1.44-1.73,2.77-3.45a115.34,115.34,0,0,0,9.18-13.65,85,85,0,0,0,6.26-13.6c.8-2.28,1.49-4.56,2.06-6.86a72.7,72.7,0,0,0,2.12-17.56,78.57,78.57,0,0,0-2.71-20,67.43,67.43,0,0,0-15.34-28.1c-.67-.73-1.36-1.43-2.06-2.12l-.69-.66c-.48-.46-1-.91-1.46-1.35l-.84-.74-1.42-1.18-.89-.71c-.51-.4-1-.78-1.55-1.16l-.8-.59c-.77-.54-1.54-1.06-2.33-1.57l-.82-.5c-.55-.33-1.1-.67-1.66-1l-1.08-.6-.88-.49v0a61.63,61.63,0,0,0-28.7-7.09,56.16,56.16,0,0,0-35.39,12.31,76.76,76.76,0,0,0-9.2,8.63V316.77c31.07-6.92,60.28-9.56,92.95-7.38h0c32.64-19.7,43.36-23.36,81.5-35.24Z"/><path class="cls-2" d="M300,135.8a5,5,0,0,1-5-5V105a5,5,0,0,1,10,0v25.8A5,5,0,0,1,300,135.8Z"/><path class="cls-3" d="M120.11,233c38.5,12,49.17,15.6,81.94,35.38l97.95-137C235.62,142.36,176.4,180.08,120.11,233Z"/><path class="cls-4" d="M202.05,268.39c34.42-2.3,65,.75,97.95,8.52V131.38C257,174.05,222.68,219.23,202.05,268.39Z"/><path class="cls-3" d="M479.89,233c-38.5,12-49.17,15.6-81.94,35.38L300,131.38C364.38,142.36,423.6,180.08,479.89,233Z"/><path class="cls-4" d="M398,268.39c-34.42-2.3-65,.75-97.95,8.52V131.38C341,174.15,374.62,219.46,398,268.39Z"/><rect class="cls-5" x="295" y="175.63" width="10" height="224.38"/><path class="cls-6" d="M300,117.8c-93.84,0-171,63.51-179.89,115.66,23.92-17.22,53.79-27.3,89.94-27.64h0Q226.68,153.09,300,117.8Z"/><path class="cls-6" d="M300,117.8c93.84,0,171,63.51,179.89,115.66C456,216.24,426.1,206.16,390,205.82h0Q373.32,153.09,300,117.8Z"/><path class="cls-7" d="M300,117.8q-73.32,35.3-89.95,88c36-10.32,58.77-12.46,89.95-7.12,31.18-5.34,53.93-3.2,89.95,7.12Q373.32,153.09,300,117.8Z"/><path class="cls-8" d="M394.78,323.69A61.4,61.4,0,0,0,349.59,304a56.16,56.16,0,0,0-35.39,12.31,72.48,72.48,0,0,0-14.27,15,76.36,76.36,0,0,0-14.27-15A57,57,0,0,0,250.27,304a60.38,60.38,0,0,0-45.19,19.73c-11.47,12.59-17.91,29.66-17.91,48.26,0,19,7.14,36.52,22.39,55,13.71,16.51,33.29,33.3,56,52.6,7.69,6.58,16.5,14.13,25.74,22.11a13.38,13.38,0,0,0,17.48,0c9.1-8,17.91-15.53,25.74-22.11,22.67-19.44,42.39-36.09,56-52.6,15.25-18.46,22.39-35.95,22.39-55.12C412.69,353.35,406.39,336.28,394.78,323.69Z"/><path class="cls-9" d="M378.3,311,280.11,492l11.15,9.6a13.38,13.38,0,0,0,17.48,0c9.1-8,17.91-15.53,25.74-22.11,22.67-19.44,42.39-36.09,56-52.6,15.25-18.46,22.39-35.95,22.39-55.12-.14-18.46-6.44-35.53-18.05-48.12A61.17,61.17,0,0,0,378.3,311Z"/><path class="cls-10" d="M341.26,385.26a27.28,27.28,0,0,0-20.09-8.77A25,25,0,0,0,305.43,382a32.44,32.44,0,0,0-6.34,6.65,34.18,34.18,0,0,0-6.35-6.65A25.27,25.27,0,0,0,277,376.49a26.81,26.81,0,0,0-20.09,8.77,31.59,31.59,0,0,0-8,21.45c0,8.46,3.17,16.24,10,24.45,6.09,7.34,14.8,14.8,24.88,23.38,3.42,2.93,7.34,6.29,11.44,9.83a6,6,0,0,0,7.78,0c4-3.54,8-6.9,11.44-9.83,10.08-8.64,18.85-16,24.88-23.38,6.78-8.21,9.95-16,9.95-24.51A31.6,31.6,0,0,0,341.26,385.26Z"/><path class="cls-8" d="M346.56,419.71h-14.3l-12.65-23.8a3.59,3.59,0,0,0-4.85-1.49,3.51,3.51,0,0,0-1.49,1.49l-12.75,24-1.4-2.63a3.58,3.58,0,0,0-6.34,0l-3.83,7.2-8-15a3.6,3.6,0,0,0-4.86-1.49,3.63,3.63,0,0,0-1.49,1.49l-5.45,10.25H250.68a41.62,41.62,0,0,0,2.83,5.38h16.76a3.58,3.58,0,0,0,3.17-1.9l4.37-8.22,8,15a3.62,3.62,0,0,0,1.5,1.5,3.66,3.66,0,0,0,1.67.42,3.84,3.84,0,0,0,1.06-.16,3.58,3.58,0,0,0,2.12-1.75l3.83-7.2,1.4,2.63a3.59,3.59,0,0,0,6.34,0l12.75-24L328,423.2a3.59,3.59,0,0,0,3.17,1.89h12.54A39.31,39.31,0,0,0,346.56,419.71Z"/></svg>