<svg xmlns="http://www.w3.org/2000/svg" xmlns:xlink="http://www.w3.org/1999/xlink" viewBox="0 0 600 600"><defs><style>.cls-1{fill:none;}.cls-2{fill:url(#Degradado_sin_nombre_198);}.cls-3{fill:#2dcccd;}.cls-4{fill:#f8cd50;}.cls-5{fill:#d4edfc;}.cls-6{fill:url(#Degradado_sin_nombre_52);}.cls-7{fill:url(#Degradado_sin_nombre_52-2);}.cls-8{fill:url(#Degradado_sin_nombre_52-3);}.cls-9{fill:url(#Degradado_sin_nombre_52-4);}.cls-10{fill:#004481;}.cls-11{fill:url(#Degradado_sin_nombre_87);}.cls-12{fill:#49a5e6;}.cls-13{fill:url(#Degradado_sin_nombre_51);}</style><linearGradient id="Degradado_sin_nombre_198" x1="179.26" y1="-9125.45" x2="456.38" y2="-9646.65" gradientTransform="matrix(1, 0, 0, -1, 0, -9094)" gradientUnits="userSpaceOnUse"><stop offset="0" stop-color="#192647" stop-opacity="0.5"/><stop offset="1" stop-color="#192647" stop-opacity="0"/></linearGradient><linearGradient id="Degradado_sin_nombre_52" x1="616.15" y1="-9261.45" x2="635.7" y2="-9280.99" gradientTransform="matrix(1, 0.06, 0.06, -1, 280.54, -9029.02)" gradientUnits="userSpaceOnUse"><stop offset="0" stop-color="#fff" stop-opacity="0.6"/><stop offset="1" stop-color="#edf8f9" stop-opacity="0.2"/></linearGradient><linearGradient id="Degradado_sin_nombre_52-2" x1="1933.41" y1="-8390.45" x2="1952.96" y2="-8410" gradientTransform="matrix(0.91, 0.41, 0.41, -0.91, 1977.18, -8192.76)" xlink:href="#Degradado_sin_nombre_52"/><linearGradient id="Degradado_sin_nombre_52-3" x1="-1441.35" y1="-9569.02" x2="-1421.8" y2="-9588.58" gradientTransform="matrix(0.92, -0.38, -0.38, -0.92, -2024.12, -9126.16)" xlink:href="#Degradado_sin_nombre_52"/><linearGradient id="Degradado_sin_nombre_52-4" x1="1935.27" y1="-8421.23" x2="1954.82" y2="-8440.78" gradientTransform="matrix(0.92, 0.4, 0.4, -0.92, 1916.31, -8260.99)" xlink:href="#Degradado_sin_nombre_52"/><linearGradient id="Degradado_sin_nombre_87" x1="425.68" y1="-9484.5" x2="267" y2="-9484.5" gradientTransform="matrix(1, 0, 0, -1, 0, -9094)" gradientUnits="userSpaceOnUse"><stop offset="0" stop-color="#072146" stop-opacity="0.8"/><stop offset="1" stop-color="#072146" stop-opacity="0"/></linearGradient><linearGradient id="Degradado_sin_nombre_51" x1="209.92" y1="-9199.09" x2="270.58" y2="-9259.75" gradientTransform="matrix(1, 0, 0, -1, 0, -9094)" gradientUnits="userSpaceOnUse"><stop offset="0" stop-color="#fff" stop-opacity="0.5"/><stop offset="1" stop-color="#edf8f9" stop-opacity="0.2"/></linearGradient></defs><title>13</title><g id="Cuadrados_Blancos" data-name="Cuadrados Blancos"><rect class="cls-1" width="600" height="600"/></g><g id="Capa_62" data-name="Capa 62"><path class="cls-2" d="M478.56,369.86l.69-11.07,1.64-26.1h1.46a4.15,4.15,0,0,0,4.15-4.15V323a4.15,4.15,0,0,0-4.15-4.15h-11l.63-11.4a4.14,4.14,0,0,0-3.9-4.37h0l-24.45-1.36a4.15,4.15,0,0,0-2.35-2.75l-22.86-9.86a4.13,4.13,0,0,0-5.44,2.16h0l-4.36,10.11a4.13,4.13,0,0,0-4.83-1.26l-10.66,4.43c-1.77-5.95-3.28-11-4.41-14.82-3.9-13.1-13.84-23.8-25.47-37l-1-1.13-2-2.25-.54-.63-2-2.31-.37-.42-2.25-2.67-.49-.6c-.75-.9-1.5-1.81-2.26-2.75l-.47-.58c-.77-1-1.55-1.94-2.32-2.94-.12-.14-.23-.29-.34-.43-.79-1-1.59-2.07-2.38-3.13a.76.76,0,0,0-.11-.14c-.8-1.08-1.6-2.19-2.4-3.31l-.38-.52c-.77-1.1-1.54-2.21-2.31-3.35l-.41-.6c-.77-1.16-1.54-2.33-2.31-3.54l-.29-.46q-1.2-1.89-2.37-3.84v-.06c-.79-1.33-1.56-2.67-2.32-4l-.33-.57c-.73-1.33-1.45-2.67-2.16-4-.13-.24-.26-.48-.38-.73-.72-1.38-1.42-2.79-2.12-4.23-.09-.19-.19-.39-.28-.59-.73-1.51-1.45-3.06-2.14-4.63h0q-1-2.36-2-4.82l-.06-.16h0c-.26-.64-.51-1.3-.77-1.95q-.59-1.5-1.14-3c-.27-.71-.53-1.44-.8-2.17-.39-1.09-.78-2.19-1.16-3.31-.21-.62-.42-1.24-.63-1.88-.58-1.76-1.15-3.55-1.7-5.39h0a16.36,16.36,0,0,1-.66-4.72v-.05a14.19,14.19,0,0,1,.13-1.95v-.23c.08-.61.19-1.19.31-1.71a18.2,18.2,0,0,0-.37-9.35l-9.53-18.89a4.16,4.16,0,0,0-4.24-2.52,3.39,3.39,0,0,0-.77.15l-11.9,3.54-11.89,3.54a4.15,4.15,0,0,0-2.9,4.72l2.35,21a18.06,18.06,0,0,0,4.79,8,16.87,16.87,0,0,1,4.59,7.35c.56,1.87,1.07,3.71,1.56,5.54.14.54.27,1.07.41,1.6.35,1.34.68,2.67,1,4,.13.52.25,1.05.37,1.56.38,1.67.73,3.31,1,4.94.05.25.09.5.14.75.3,1.56.58,3.11.83,4.63.09.5.16,1,.24,1.47.19,1.23.37,2.46.54,3.67.06.49.13,1,.19,1.46.19,1.47.36,2.92.5,4.36l.09.81c.14,1.46.26,2.89.36,4.31l.09,1.39c.07,1.11.13,2.21.18,3.31l.06,1.41c.05,1.34.08,2.67.1,4h0v6.06c0,1,0,1.94-.07,2.9l-.06,1.43c0,1.12-.1,2.23-.16,3.33v.77c-.08,1.31-.17,2.6-.28,3.88v.58c-.11,1.25-.22,2.48-.34,3.7a6.87,6.87,0,0,1-.08.78c-.12,1.19-.25,2.36-.38,3.51l-.09.79c-.14,1.16-.28,2.31-.42,3.44a5.59,5.59,0,0,1-.08.59c-.13,1-.26,2-.4,3l-.12.89c-.13,1-.27,2-.41,2.93-.07.5-.14,1-.22,1.49-2.52,17.41-5,31.81-1.1,44.92a1.21,1.21,0,0,1,0,.18h-14a4.14,4.14,0,0,0-4.14,4.14h0v5.53a4.14,4.14,0,0,0,4.13,4.15h1.48l2.32,37.17L268.63,436.6a4.15,4.15,0,0,0,3.3,4.86,4,4,0,0,0,.78.07h13.22L291,522.89a31.8,31.8,0,0,0,31.34,29.8H437.25A31.69,31.69,0,0,0,459,544.08l.06-.06a31.69,31.69,0,0,0,6.87-9.4,32.5,32.5,0,0,0,1.42-3.58,34.34,34.34,0,0,0,1.62-8.15l5.09-81.41Z"/><path class="cls-3" d="M262.82,124a16.84,16.84,0,0,1-.18-8.66,18.3,18.3,0,0,0-.37-9.35L252.73,87.1a4.13,4.13,0,0,0-5-2.37l-11.89,3.53L224,91.8a4.16,4.16,0,0,0-2.9,4.73l2.35,21a18.3,18.3,0,0,0,4.79,8,16.77,16.77,0,0,1,4.59,7.35c19.72,66.27-5.7,103.66,3.37,134.15l42.34,142.26,48.6-14.46,48.6-14.46L333.34,238.19C324.27,207.71,282.54,190.3,262.82,124Z"/><path class="cls-4" d="M283.08,247.06l24.81-45.84c-15.42-17.5-33.83-39.39-45.07-77.19a16.84,16.84,0,0,1-.18-8.66,18.3,18.3,0,0,0-.37-9.35l-9.54-18.89a4.13,4.13,0,0,0-5-2.37l-11.89,3.53L224,91.83a4.16,4.16,0,0,0-2.9,4.73l2.35,21a18.3,18.3,0,0,0,4.79,8,16.77,16.77,0,0,1,4.59,7.35c11.25,37.8,7.81,66.19,4.47,89.27Z"/><rect class="cls-5" x="382.76" y="250.82" width="33.19" height="33.19" rx="4.15" transform="translate(110.27 651.37) rotate(-86.83)"/><path class="cls-6" d="M387.85,250.15a4.15,4.15,0,0,0-4.37,3.91l-1.37,24.86a4.15,4.15,0,0,0,3.91,4.37l4.18.23,19.46-32.16Z"/><rect class="cls-5" x="295.41" y="256.35" width="33.19" height="33.19" rx="4.15" transform="translate(-64.82 445.71) rotate(-65.81)"/><path class="cls-7" d="M307.48,252.7a4.15,4.15,0,0,0-5.48,2.09l-10.2,22.7a4.16,4.16,0,0,0,2.09,5.49l3.82,1.71,29.7-23Z"/><rect class="cls-5" x="326.71" y="252.05" width="33.19" height="33.19" rx="4.15" transform="translate(-76.88 152.56) rotate(-22.6)"/><path class="cls-8" d="M325.43,258.14a4.14,4.14,0,0,0-2.24,5.42h0l9.57,23a4.14,4.14,0,0,0,5.41,2.23h0l3.87-1.61,3.54-37.42Z"/><rect class="cls-5" x="351.29" y="241.14" width="33.19" height="33.19" rx="4.15" transform="translate(-14.47 493.47) rotate(-66.67)"/><path class="cls-9" d="M363.05,237.56a4.16,4.16,0,0,0-5.46,2.16h0l-9.85,22.85A4.15,4.15,0,0,0,349.9,268l3.85,1.65,29.35-23.48Z"/><path class="cls-10" d="M381.93,501.15H267.45a31.81,31.81,0,0,1-31.75-29.83l-12-191.44H425.6l-12,191.44A31.8,31.8,0,0,1,381.93,501.15Z"/><path class="cls-11" d="M267,501.13H381.93a31.81,31.81,0,0,0,31.75-29.83l12-191.44H385Z"/><rect class="cls-12" x="218.2" y="267.3" width="212.97" height="17" rx="4.15"/><path class="cls-13" d="M262.7,123.92a16.87,16.87,0,0,1-.18-8.64,18.19,18.19,0,0,0-.37-9.32l-9.51-18.84a4.13,4.13,0,0,0-5-2.37l-11.86,3.53-11.86,3.53A4.15,4.15,0,0,0,221,96.53l2.34,21a18.19,18.19,0,0,0,4.78,8,16.78,16.78,0,0,1,4.58,7.33A177.86,177.86,0,0,1,240,196.32l28.84-54.73C266.66,136.09,264.58,130.23,262.7,123.92Z"/></g></svg>