<svg id="Contenido" xmlns="http://www.w3.org/2000/svg" xmlns:xlink="http://www.w3.org/1999/xlink" viewBox="0 0 600 600"><defs><style>.cls-1{fill:url(#Degradado_sin_nombre_7);}.cls-2{fill:#2dcccd;}.cls-3{fill:#f8cd50;}.cls-4{fill:#d4edfc;}.cls-5{fill:url(#Degradado_sin_nombre_63);}.cls-6{fill:url(#Degradado_sin_nombre_63-2);}.cls-7{fill:url(#Degradado_sin_nombre_63-3);}.cls-8{fill:url(#Degradado_sin_nombre_63-4);}.cls-9{fill:#1464a5;}.cls-10{fill:url(#Degradado_sin_nombre_52);}.cls-11{fill:#49a5e6;}.cls-12{fill:url(#Degradado_sin_nombre_69);}</style><linearGradient id="Degradado_sin_nombre_7" x1="179.26" y1="31.45" x2="456.38" y2="552.65" gradientUnits="userSpaceOnUse"><stop offset="0" stop-color="#192647"/><stop offset="0" stop-color="#192647" stop-opacity="0.5"/><stop offset="1" stop-color="#192647" stop-opacity="0"/></linearGradient><linearGradient id="Degradado_sin_nombre_63" x1="350.96" y1="277.66" x2="370.51" y2="297.21" gradientTransform="translate(48.53 -44.32) rotate(3.17)" gradientUnits="userSpaceOnUse"><stop offset="0" stop-color="#fff" stop-opacity="0.6"/><stop offset="1" stop-color="#edf8f9" stop-opacity="0.2"/></linearGradient><linearGradient id="Degradado_sin_nombre_63-2" x1="110.5" y1="483.83" x2="130.05" y2="503.38" gradientTransform="translate(400.15 -233.43) rotate(24.19)" xlink:href="#Degradado_sin_nombre_63"/><linearGradient id="Degradado_sin_nombre_63-3" x1="564.1" y1="132.77" x2="583.65" y2="152.32" gradientTransform="translate(-249.27 356.12) rotate(-22.6)" xlink:href="#Degradado_sin_nombre_63"/><linearGradient id="Degradado_sin_nombre_63-4" x1="167.68" y1="459.76" x2="187.23" y2="479.31" gradientTransform="translate(386.38 -250.44) rotate(23.33)" xlink:href="#Degradado_sin_nombre_63"/><linearGradient id="Degradado_sin_nombre_52" x1="425.64" y1="390.51" x2="267.04" y2="390.51" gradientUnits="userSpaceOnUse"><stop offset="0" stop-color="#043263" stop-opacity="0.4"/><stop offset="1" stop-color="#043263" stop-opacity="0.1"/></linearGradient><linearGradient id="Degradado_sin_nombre_69" x1="209.95" y1="105.09" x2="270.6" y2="165.74" gradientUnits="userSpaceOnUse"><stop offset="0" stop-color="#fff" stop-opacity="0.5"/><stop offset="1" stop-color="#edf8f9" stop-opacity="0.2"/></linearGradient></defs><title>_</title><path class="cls-1" d="M478.56,369.86l.69-11.07,1.64-26.1h1.46a4.15,4.15,0,0,0,4.15-4.15V323a4.15,4.15,0,0,0-4.15-4.15h-11l.63-11.4a4.14,4.14,0,0,0-3.91-4.37l-24.45-1.36a4.15,4.15,0,0,0-2.35-2.75l-22.86-9.86a4.14,4.14,0,0,0-5.45,2.17l-4.36,10.11a4.13,4.13,0,0,0-4.83-1.26l-10.66,4.43c-1.77-5.95-3.28-11-4.41-14.82-3.9-13.1-13.84-23.8-25.47-37l-1-1.13-2-2.25-.54-.63c-.66-.76-1.33-1.53-2-2.31l-.37-.42q-1.12-1.32-2.25-2.67l-.49-.6c-.75-.9-1.5-1.81-2.26-2.75l-.47-.58c-.77-1-1.55-1.94-2.32-2.94-.12-.14-.23-.29-.34-.43-.79-1-1.59-2.07-2.38-3.13a1.34,1.34,0,0,0-.11-.14c-.8-1.08-1.6-2.19-2.4-3.31l-.38-.52c-.77-1.1-1.54-2.21-2.31-3.35l-.41-.6c-.77-1.16-1.54-2.33-2.31-3.54l-.29-.46q-1.2-1.89-2.37-3.84l0-.06q-1.18-2-2.32-4l-.33-.57q-1.1-2-2.16-4c-.13-.24-.26-.48-.38-.73-.72-1.38-1.42-2.79-2.12-4.23-.09-.19-.19-.39-.28-.59q-1.1-2.27-2.14-4.63v0q-1.05-2.36-2-4.82l-.06-.16h0c-.26-.64-.51-1.3-.77-1.95-.39-1-.77-2-1.14-3-.27-.71-.53-1.44-.8-2.17-.39-1.09-.78-2.19-1.16-3.31-.21-.62-.42-1.24-.63-1.88-.58-1.76-1.15-3.55-1.7-5.39v0a16.16,16.16,0,0,1-.66-4.72v-.05a15.2,15.2,0,0,1,.13-1.95l0-.23c.08-.61.19-1.19.31-1.71a18.2,18.2,0,0,0-.37-9.35l-9.53-18.89a4.15,4.15,0,0,0-4.24-2.52,3.39,3.39,0,0,0-.77.15l-11.9,3.54-11.89,3.54a4.15,4.15,0,0,0-2.9,4.72l2.35,21a18.14,18.14,0,0,0,4.79,8,16.89,16.89,0,0,1,4.59,7.35c.56,1.87,1.07,3.71,1.56,5.54.14.54.27,1.07.41,1.6.35,1.34.68,2.67,1,4,.13.52.25,1.05.37,1.56.38,1.67.73,3.31,1,4.94.05.25.09.5.14.75.3,1.56.58,3.11.83,4.63.09.5.16,1,.24,1.47.19,1.23.37,2.46.54,3.67.06.49.13,1,.19,1.46.19,1.47.36,2.92.5,4.36l.09.81c.14,1.46.26,2.89.36,4.31l.09,1.39c.07,1.11.13,2.21.18,3.31l.06,1.41c.05,1.34.08,2.67.1,4v0c0,.19,0,.37,0,.55,0,1.39,0,2.76,0,4.12l0,1.39c0,1,0,1.94-.07,2.9l-.06,1.43c0,1.12-.1,2.23-.16,3.33,0,.24,0,.48,0,.72v.05c-.08,1.31-.17,2.6-.28,3.88,0,.19,0,.39,0,.58-.11,1.25-.22,2.48-.34,3.7,0,.26-.05.52-.08.78-.12,1.19-.25,2.36-.38,3.51l-.09.79c-.14,1.16-.28,2.31-.42,3.44,0,.2-.06.4-.08.59-.13,1-.26,2-.4,3l-.12.89c-.13,1-.27,2-.41,2.93-.07.5-.14,1-.22,1.49-2.52,17.41-5,31.81-1.1,44.92a1.21,1.21,0,0,1,.05.18H277.67a4.14,4.14,0,0,0-4.14,4.15v5.53a4.14,4.14,0,0,0,4.14,4.15h1.47l2.32,37.17-12.83,66.69a4.15,4.15,0,0,0,4.08,4.93h13.22L291,522.89a31.8,31.8,0,0,0,31.34,29.8H437.25A31.72,31.72,0,0,0,459,544.08s0,0,.06-.06a31.7,31.7,0,0,0,6.87-9.4,32.92,32.92,0,0,0,1.42-3.58,34.64,34.64,0,0,0,1.62-8.15l5.09-81.41Z"/><path class="cls-2" d="M262.82,124a16.84,16.84,0,0,1-.18-8.66,18.31,18.31,0,0,0-.37-9.35l-9.54-18.89a4.13,4.13,0,0,0-5-2.37l-11.89,3.53-11.89,3.54a4.16,4.16,0,0,0-2.9,4.73l2.35,21a18.25,18.25,0,0,0,4.79,8,16.83,16.83,0,0,1,4.59,7.35c19.72,66.27-5.7,103.66,3.37,134.15l42.34,142.26,48.6-14.46,48.6-14.46L333.34,238.19C324.27,207.71,282.54,190.3,262.82,124Z"/><path class="cls-3" d="M283.08,247.06l24.81-45.84c-15.42-17.5-33.83-39.39-45.07-77.19a16.84,16.84,0,0,1-.18-8.66,18.31,18.31,0,0,0-.37-9.35l-9.54-18.89a4.13,4.13,0,0,0-5-2.37l-11.89,3.53-11.89,3.54a4.16,4.16,0,0,0-2.9,4.73l2.35,21a18.25,18.25,0,0,0,4.79,8,16.83,16.83,0,0,1,4.59,7.35c11.25,37.8,7.81,66.19,4.47,89.27Z"/><rect class="cls-4" x="382.77" y="250.81" width="33.19" height="33.19" rx="4.15" transform="translate(15.39 -21.67) rotate(3.17)"/><path class="cls-5" d="M387.85,250.15a4.15,4.15,0,0,0-4.37,3.91l-1.37,24.86a4.15,4.15,0,0,0,3.91,4.37l4.18.23,19.46-32.16Z"/><rect class="cls-4" x="295.44" y="256.34" width="33.19" height="33.19" rx="4.15" transform="translate(139.21 -103.88) rotate(24.19)"/><path class="cls-6" d="M307.48,252.7a4.15,4.15,0,0,0-5.48,2.09l-10.2,22.7a4.16,4.16,0,0,0,2.09,5.49l3.82,1.71,29.7-23Z"/><rect class="cls-4" x="326.7" y="252.08" width="33.19" height="33.19" rx="4.15" transform="translate(-76.88 152.53) rotate(-22.6)"/><path class="cls-7" d="M325.43,258.14a4.15,4.15,0,0,0-2.24,5.43l9.57,23a4.14,4.14,0,0,0,5.42,2.23l3.87-1.61,3.54-37.42Z"/><rect class="cls-4" x="351.31" y="241.13" width="33.19" height="33.19" rx="4.15" transform="translate(132.13 -124.62) rotate(23.33)"/><path class="cls-8" d="M363.05,237.56a4.15,4.15,0,0,0-5.46,2.17l-9.85,22.85A4.15,4.15,0,0,0,349.9,268l3.85,1.65,29.35-23.48Z"/><path class="cls-9" d="M381.93,501.15H267.45a31.81,31.81,0,0,1-31.75-29.83l-12-191.44h201.9l-12,191.44A31.81,31.81,0,0,1,381.93,501.15Z"/><path class="cls-10" d="M267,501.13l.41,0H381.93a31.81,31.81,0,0,0,31.75-29.83l12-191.44H385Z"/><rect class="cls-11" x="218.2" y="267.3" width="212.97" height="17" rx="4.15"/><path class="cls-12" d="M262.7,123.92a16.87,16.87,0,0,1-.18-8.64,18.19,18.19,0,0,0-.37-9.32l-9.51-18.84a4.13,4.13,0,0,0-5-2.37l-11.86,3.53-11.86,3.53A4.15,4.15,0,0,0,221,96.53l2.34,21a18.2,18.2,0,0,0,4.78,8,16.8,16.8,0,0,1,4.58,7.33,177.84,177.84,0,0,1,7.31,63.46l28.84-54.73C266.66,136.09,264.58,130.23,262.7,123.92Z"/></svg>