<?xml version="1.0" encoding="utf-8"?>
<!-- Generator: Adobe Illustrator 23.0.1, SVG Export Plug-In . SVG Version: 6.00 Build 0)  -->
<svg version="1.1" id="Capa_1" xmlns="http://www.w3.org/2000/svg" xmlns:xlink="http://www.w3.org/1999/xlink" x="0px" y="0px"
	 viewBox="0 0 600 600" style="enable-background:new 0 0 600 600;" xml:space="preserve">
<style type="text/css">
	.st0{fill:url(#SVGID_1_);}
	.st1{fill:#1464A5;}
	.st2{fill:#49A5E6;}
	.st3{opacity:0.5;fill-rule:evenodd;clip-rule:evenodd;fill:url(#SVGID_2_);enable-background:new    ;}
	.st4{fill:#004481;}
	.st5{fill:#2DCCCD;}
	.st6{fill:#EAF9FA;}
</style>
<title>Mesa de trabajo 1 copia 16</title>
<g>
	<g>
		<g>
			
				<linearGradient id="SVGID_1_" gradientUnits="userSpaceOnUse" x1="209.7856" y1="502.6488" x2="460.4044" y2="31.2911" gradientTransform="matrix(1 0 0 -1 0 600)">
				<stop  offset="0" style="stop-color:#192647"/>
				<stop  offset="0" style="stop-color:#192647;stop-opacity:0.5"/>
				<stop  offset="1" style="stop-color:#192647;stop-opacity:0"/>
			</linearGradient>
			<path class="st0" d="M203.1,104h264c12.7,0,23,10.3,23,23v412.1c0,12.7-10.3,23-23,23h-264c-12.7,0-23-10.3-23-23V127
				C180.1,114.3,190.4,104,203.1,104z"/>
		</g>
		<path class="st1" d="M152.3,55h264c12.7,0,23,10.3,23,23v412.1c0,12.7-10.3,23-23,23h-264c-12.7,0-23-10.3-23-23V78
			C129.3,65.3,139.6,55,152.3,55z"/>
		<path class="st2" d="M159,75h250c5.5,0,10,4.5,10,10v368c0,5.5-4.5,10-10,10H159c-5.5,0-10-4.5-10-10V85C149,79.5,153.5,75,159,75
			z"/>
		
			<linearGradient id="SVGID_2_" gradientUnits="userSpaceOnUse" x1="145.0369" y1="401.8642" x2="286.3069" y2="326.7542" gradientTransform="matrix(1 0 0 -1 0 600)">
			<stop  offset="0" style="stop-color:#EAF9FA"/>
			<stop  offset="1" style="stop-color:#EAF9FA;stop-opacity:0.2"/>
			<stop  offset="1" style="stop-color:#EAF9FA;stop-opacity:0.5"/>
		</linearGradient>
		<path class="st3" d="M159,463h18L400.1,75H159c-5.5,0-10,4.5-10,10v368C149,458.5,153.5,463,159,463z"/>
		<circle class="st4" cx="284.3" cy="229" r="64"/>
		<path class="st5" d="M304.7,221.1h-0.6V212c0-10.7-8.7-19.4-19.4-19.4s-19.4,8.7-19.4,19.4v9.1h-0.1c-2,0-3.7,1.6-3.7,3.6
			c0,0,0,0,0,0V239c0,12.6,10.2,22.8,22.8,22.8l0,0c12.6,0,22.8-10.2,22.8-22.8v-15.6C307.1,222.1,306,221,304.7,221.1z M289,243.8
			c0,2.6-2.1,4.7-4.7,4.7s-4.7-2.1-4.7-4.7v-2.9c0-2.9,1.7-5.6,3.8-5.8c-2-0.5-3.2-2.4-2.7-4.4c0.5-2,2.4-3.2,4.4-2.7
			c2,0.5,3.2,2.4,2.7,4.4c-0.3,1.3-1.4,2.4-2.7,2.7c2.1,0.2,3.8,2.9,3.8,5.8L289,243.8z M297.4,221.1h-25.5V212
			c0.2-7,6.1-12.6,13.1-12.4c6.8,0.2,12.2,5.6,12.4,12.4L297.4,221.1z"/>
		<path class="st6" d="M227.3,319h114c1.7,0,3,1.3,3,3v20c0,1.7-1.3,3-3,3h-114c-1.7,0-3-1.3-3-3v-20
			C224.3,320.3,225.6,319,227.3,319z"/>
		<path class="st6" d="M227.3,361h114c1.7,0,3,1.3,3,3v20c0,1.7-1.3,3-3,3h-114c-1.7,0-3-1.3-3-3v-20
			C224.3,362.3,225.6,361,227.3,361z"/>
	</g>
</g>
</svg>
