<svg xmlns="http://www.w3.org/2000/svg" xmlns:xlink="http://www.w3.org/1999/xlink" viewBox="0 0 600 600"><defs><style>.cls-1{fill:none;}.cls-2{fill:url(#Degradado_sin_nombre_77);}.cls-3{fill:#043263;}.cls-4{fill:#49a5e6;}.cls-5{opacity:0.5;isolation:isolate;fill:url(#Degradado_sin_nombre_2);}.cls-6{fill:#004481;}.cls-7{fill:#2dcccd;}.cls-8{fill:#eaf9fa;}</style><linearGradient id="Degradado_sin_nombre_77" x1="243.49" y1="131.7" x2="471.22" y2="560.01" gradientUnits="userSpaceOnUse"><stop offset="0" stop-color="#192647" stop-opacity="0.5"/><stop offset="1" stop-color="#192647" stop-opacity="0"/></linearGradient><linearGradient id="Degradado_sin_nombre_2" x1="176.46" y1="224.12" x2="304.84" y2="292.38" gradientUnits="userSpaceOnUse"><stop offset="0" stop-color="#eaf9fa"/><stop offset="1" stop-color="#eaf9fa" stop-opacity="0.2"/><stop offset="1" stop-color="#eaf9fa" stop-opacity="0.5"/></linearGradient></defs><title>5</title><g id="Cuadrados_blancos" data-name="Cuadrados blancos"><rect class="cls-1" width="600" height="600"/></g><g id="Capa_10" data-name="Capa 10"><path class="cls-2" d="M237.41,137.71h239.9a20.9,20.9,0,0,1,20.9,20.9V533.1a20.9,20.9,0,0,1-20.9,20.9H237.41a20.9,20.9,0,0,1-20.9-20.9V158.61A20.9,20.9,0,0,1,237.41,137.71Z"/><path class="cls-3" d="M182.79,94.05h239.9a20.9,20.9,0,0,1,20.9,20.9V489.44a20.9,20.9,0,0,1-20.9,20.9H182.79a20.9,20.9,0,0,1-20.9-20.9V115A20.9,20.9,0,0,1,182.79,94.05Z"/><path class="cls-4" d="M189.15,112.22H416.33a9.12,9.12,0,0,1,9.09,9.09V455.72a9.12,9.12,0,0,1-9.09,9.09H189.15a9.11,9.11,0,0,1-9.08-9.09V121.31A9.11,9.11,0,0,1,189.15,112.22Z"/><path class="cls-5" d="M189.15,464.81h16.36L408.25,112.22H189.15a9.11,9.11,0,0,0-9.08,9.09V455.72A9.11,9.11,0,0,0,189.15,464.81Z"/><circle class="cls-6" cx="302.74" cy="252.17" r="58.16"/><path class="cls-7" d="M321.28,245h-.54v-8.27a17.63,17.63,0,0,0-35.26,0V245h-.09a3.34,3.34,0,0,0-3.37,3.27h0v13A20.71,20.71,0,0,0,302.74,282h0a20.71,20.71,0,0,0,20.72-20.72V247.08A2.08,2.08,0,0,0,321.28,245ZM307,265.62a4.27,4.27,0,0,1-8.54,0V263c0-2.63,1.55-5.09,3.46-5.27a3.32,3.32,0,1,1,4-2.45,3.35,3.35,0,0,1-2.45,2.45c1.91.18,3.45,2.64,3.45,5.27ZM314.65,245H291.47v-8.27a11.59,11.59,0,0,1,23.18,0Z"/><path class="cls-8" d="M251,334H354.54a2.68,2.68,0,0,1,2.73,2.73v18.17a2.68,2.68,0,0,1-2.73,2.73H251a2.68,2.68,0,0,1-2.73-2.73V336.68A2.68,2.68,0,0,1,251,334Z"/><path class="cls-8" d="M251,372.12H354.54a2.68,2.68,0,0,1,2.73,2.73V393a2.69,2.69,0,0,1-2.73,2.73H251a2.68,2.68,0,0,1-2.73-2.73V374.85A2.68,2.68,0,0,1,251,372.12Z"/></g></svg>