<svg xmlns="http://www.w3.org/2000/svg" xmlns:xlink="http://www.w3.org/1999/xlink" viewBox="0 0 600 600"><defs><style>.cls-1{fill:none;}.cls-2{fill:url(#Degradado_sin_nombre_199);}.cls-3{fill:#f8cd50;}.cls-4{fill:#1464a5;}.cls-5{fill:#c49735;}.cls-6{fill:#2dcccd;}.cls-7{fill:url(#Degradado_sin_nombre_54);}.cls-8{fill:#043263;}.cls-9{fill:url(#Degradado_sin_nombre_87);}</style><linearGradient id="Degradado_sin_nombre_199" x1="161.51" y1="-9143.36" x2="405.76" y2="-9602.74" gradientTransform="matrix(1, 0, 0, -1, 0, -9094)" gradientUnits="userSpaceOnUse"><stop offset="0" stop-color="#192647" stop-opacity="0.5"/><stop offset="1" stop-color="#192647" stop-opacity="0"/></linearGradient><linearGradient id="Degradado_sin_nombre_54" x1="306.7" y1="-9282.03" x2="190.84" y2="-9282.03" gradientTransform="matrix(1, 0, 0, -1, 0, -9094)" gradientUnits="userSpaceOnUse"><stop offset="0" stop-color="#028484" stop-opacity="0.3"/><stop offset="1" stop-color="#028484" stop-opacity="0.1"/></linearGradient><linearGradient id="Degradado_sin_nombre_87" x1="503.32" y1="-9445.69" x2="340" y2="-9445.69" gradientTransform="matrix(1, 0, 0, -1, 0, -9094)" gradientUnits="userSpaceOnUse"><stop offset="0" stop-color="#072146" stop-opacity="0.8"/><stop offset="1" stop-color="#072146" stop-opacity="0"/></linearGradient></defs><title>13</title><g id="Cuadrados_Blancos" data-name="Cuadrados Blancos"><rect class="cls-1" width="600" height="600"/></g><g id="Capa_63" data-name="Capa 63"><path class="cls-2" d="M531.66,352.41,507,347.85a93.6,93.6,0,0,0-10.54-25.45l14.24-20.69c-4.23-6.7-5.17-9-11-14.84l-.27-.28c-5.85-5.82-8.14-6.77-14.84-11l-20.7,14.24c-1.35-.81-2.76-1.54-4.15-2.28h0a93.66,93.66,0,0,0-21.3-8.26l-4.56-24.7c-7.73-1.75-10-2.7-18.27-2.71h-.39c-8.25,0-10.54,1-18.27,2.71l-.37,2-69.25-55.27,10.39-5.75c-.93-5.33-.44-5.8-2.6-11l-.1-.25c-2.17-5.19-2.88-5.16-6-9.57l-15.64,4.58a62.84,62.84,0,0,0-17.09-17l4.5-15.68-1.37-1-.91-.68a24.63,24.63,0,0,0-7.33-4.27l-.24-.1c-5.21-2.13-5.69-1.62-11-2.53l-7.81,14.28a64.89,64.89,0,0,0-24.14.06l-8-14.28c-5.32.93-5.8.44-11,2.59l-.24.1c-5.19,2.18-5.17,2.89-9.58,6l4.59,15.64a64.62,64.62,0,0,0-9.3,7.69,63.38,63.38,0,0,0-7.72,9.41l-15.68-4.51c-3.1,4.43-3.79,4.41-5.94,9.61l-.1.25c-2.13,5.21-1.62,5.69-2.52,11l14.28,7.8a64.73,64.73,0,0,0,.05,24.15l-14.25,7.89c.93,5.32.44,5.8,2.6,11l.1.25c2.17,5.19,2.88,5.17,6,9.57l7-2-12.54,63.5A31.08,31.08,0,0,0,210,354.75a30.67,30.67,0,0,0,6.19.63H255a15.52,15.52,0,1,0-1.58,31,13.88,13.88,0,0,0,1.58,0H177.35a31,31,0,0,0,0,62.09H325.49a52.3,52.3,0,0,0,5.59,6.4l.27.28c5.85,5.82,8.14,6.77,14.84,11l20.7-14.24a92.34,92.34,0,0,0,8.71,4.55l1.11.51c1.33.59,2.66,1.17,4,1.71.83.32,1.66.62,2.5.93,1,.37,2,.75,3.08,1.09,2,.64,4,1.24,6,1.75l4.56,24.7c7.73,1.75,10,2.7,18.27,2.72h.39c8.25,0,10.54-1,18.27-2.72l4.56-24.7a93.6,93.6,0,0,0,25.45-10.54l20.7,14.24c6.7-4.23,9-5.18,14.84-11l.27-.28c5.83-5.84,6.77-8.14,11-14.84l-14.24-20.69A93.74,93.74,0,0,0,507,393.91l24.71-4.56c1.74-7.73,2.7-10,2.71-18.28v-.38C534.36,362.43,533.4,360.14,531.66,352.41ZM177.35,401.93H255a31,31,0,0,0,0-62.09H216.16A15.53,15.53,0,1,0,201,321.15h0l12.14-61.5c.52.56,1,1.14,1.53,1.69a65.73,65.73,0,0,0,9.41,7.72l-4.5,15.67c1,.68,1.69,1.23,2.34,1.72h0c.8.6,1.43,1.09,2.08,1.55l.11.07c.27.19.55.37.85.56l.28.16.7.39.41.21.84.41.43.2,1.57.68.24.1c5.21,2.13,5.69,1.61,11,2.52l7.8-14.3a64.68,64.68,0,0,0,24.14-.06l7.89,14.25c5.32-.93,5.8-.43,11-2.59l.24-.1c5.19-2.18,5.17-2.88,9.58-6l-4.59-15.64a65.77,65.77,0,0,0,9.3-7.68,64.62,64.62,0,0,0,7.72-9.42l15.68,4.51c3.1-4.42,3.79-4.41,5.94-9.61l.1-.25c2.13-5.2,1.62-5.69,2.52-11l-14.27-7.81a65,65,0,0,0,.95-8.69l68.91,55-1,5.42a93.6,93.6,0,0,0-25.45,10.54l-20.7-14.24c-6.7,4.23-9,5.18-14.84,11l-.27.28c-5.83,5.84-6.77,8.14-11,14.84l14.24,20.69a93.6,93.6,0,0,0-10.54,25.45l-24.71,4.56c-1.74,7.73-2.7,10-2.71,18.28v.38c0,8.26,1,10.55,2.71,18.28L323.78,394a93.6,93.6,0,0,0,10.54,25.45L325,433H177.35a15.52,15.52,0,0,0,1.58-31,13.88,13.88,0,0,0-1.58,0Z"/><path class="cls-3" d="M358.77,417.45H146.15a31.05,31.05,0,0,1,0-62.09h77.93a15.54,15.54,0,0,0,15.85-15.2,15.54,15.54,0,0,0-15.21-15.85H185.11a31.07,31.07,0,0,1-31-31,30.31,30.31,0,0,1,.64-6.29l22.8-115.49,15.22,3L169.92,290.08a15.32,15.32,0,0,0-.33,3.17,15.55,15.55,0,0,0,15.52,15.54h38.73c.4,0,.81,0,1.21,0a31.05,31.05,0,0,1-1.21,62.09H146.4a15.53,15.53,0,0,0,0,31.05H358.77Z"/><circle class="cls-4" cx="146.31" cy="386.4" r="15.52"/><circle class="cls-4" cx="185.12" cy="293.27" r="15.52"/><rect class="cls-3" x="333.04" y="105.23" width="15.52" height="221.02" transform="translate(-40.4 347.55) rotate(-51.41)"/><circle class="cls-5" cx="223.92" cy="339.84" r="15.52"/><path class="cls-6" d="M292.43,196.52a64.68,64.68,0,0,0-.06-24.14l14.25-7.89c-.93-5.32-.43-5.8-2.59-11l-.1-.24c-2.18-5.19-2.88-5.17-6-9.57l-15.64,4.58a64.62,64.62,0,0,0-7.69-9.3,63.38,63.38,0,0,0-9.41-7.72l4.51-15.67c-4.42-3.11-4.41-3.8-9.61-5.95l-.25-.1c-5.2-2.13-5.69-1.62-11-2.52L241,121.28a64.94,64.94,0,0,0-24.15,0L209,107.08c-5.33.94-5.81.44-11,2.6l-.25.1c-5.19,2.18-5.16,2.88-9.57,6l4.58,15.64a62.84,62.84,0,0,0-17,17.09L160.05,144c-3.11,4.42-3.79,4.41-5.94,9.61l-.1.24c-2.14,5.21-1.62,5.69-2.53,11l14.28,7.81a64.73,64.73,0,0,0,.06,24.15l-14.25,7.88c.93,5.32.43,5.8,2.59,11l.1.24c2.18,5.19,2.88,5.17,6,9.58L175.91,221A63,63,0,0,0,193,238l-4.51,15.68c4.42,3.1,4.41,3.79,9.61,5.94l.25.1c5.21,2.13,5.69,1.62,11,2.52l7.8-14.27a64.94,64.94,0,0,0,24.15-.06l7.89,14.25c5.32-.93,5.8-.44,11-2.59l.25-.11c5.19-2.17,5.17-2.88,9.57-6l-4.58-15.64a64.62,64.62,0,0,0,9.3-7.69,65.73,65.73,0,0,0,7.72-9.41l15.67,4.5c3.11-4.42,3.8-4.41,5.95-9.61l.1-.24c2.13-5.21,1.61-5.69,2.52-11Z"/><path class="cls-7" d="M292.43,196.52a64.68,64.68,0,0,0-.06-24.14l14.25-7.89c-.93-5.32-.43-5.8-2.59-11l-.1-.24c-2.18-5.19-2.88-5.17-6-9.57l-15.64,4.58a64.62,64.62,0,0,0-7.69-9.3,63.38,63.38,0,0,0-9.41-7.72l4.51-15.68c-1-.67-1.7-1.22-2.34-1.71L190.84,255.37a25,25,0,0,0,7.27,4.23l.25.1c5.21,2.13,5.69,1.62,11,2.52l7.8-14.27a64.94,64.94,0,0,0,24.15-.06l7.89,14.25c5.32-.93,5.8-.44,11-2.59l.25-.11c5.19-2.17,5.17-2.88,9.57-6l-4.58-15.64a64.62,64.62,0,0,0,9.3-7.69,65.73,65.73,0,0,0,7.72-9.41l15.67,4.5c3.11-4.42,3.8-4.41,5.95-9.61l.1-.24c2.13-5.21,1.61-5.69,2.52-11Z"/><circle class="cls-4" cx="229.1" cy="184.61" r="28.46"/><path class="cls-8" d="M500.61,321.37l-24.7-4.56a93.6,93.6,0,0,0-10.54-25.45l14.24-20.7c-4.23-6.7-5.18-9-11-14.84l-.28-.27c-5.84-5.83-8.14-6.77-14.84-11L432.8,258.79a93.6,93.6,0,0,0-25.45-10.54l-4.56-24.71c-7.73-1.74-10-2.69-18.28-2.71h-.38c-8.26,0-10.55,1-18.28,2.71l-4.56,24.71a93.6,93.6,0,0,0-25.45,10.54l-20.69-14.24c-6.7,4.23-9,5.17-14.84,11l-.28.27c-5.82,5.85-6.77,8.14-11,14.84l14.24,20.7a93.6,93.6,0,0,0-10.54,25.45L268,321.37c-1.75,7.73-2.7,10-2.72,18.27V340c0,8.25,1,10.54,2.72,18.27l24.7,4.56a93.6,93.6,0,0,0,10.54,25.45L289,409c4.23,6.7,5.18,9,11,14.84l.28.27c5.84,5.83,8.14,6.77,14.84,11l20.69-14.24a93.6,93.6,0,0,0,25.45,10.54l4.56,24.71c7.73,1.74,10,2.7,18.28,2.71h.38c8.26,0,10.55-1,18.28-2.71l4.56-24.71a93.6,93.6,0,0,0,25.45-10.54l20.69,14.24c6.7-4.23,9-5.17,14.84-11l.28-.27c5.82-5.85,6.77-8.14,11-14.84l-14.24-20.7a93.6,93.6,0,0,0,10.54-25.45l24.7-4.56c1.75-7.73,2.7-10,2.71-18.27v-.39C503.31,331.39,502.36,329.1,500.61,321.37Z"/><path class="cls-9" d="M475.91,316.81a93.6,93.6,0,0,0-10.54-25.45l14.24-20.7c-4.23-6.7-5.18-9-11-14.84l-.28-.27c-5.84-5.83-8.14-6.77-14.84-11L432.8,258.79c-1.36-.81-2.76-1.55-4.16-2.29L340,423.17a93.37,93.37,0,0,0,21.29,8.25l4.56,24.71c7.73,1.74,10,2.7,18.28,2.71h.38c8.26,0,10.55-1,18.28-2.71l4.56-24.71a93.6,93.6,0,0,0,25.45-10.54l20.69,14.24c6.7-4.23,9-5.17,14.84-11l.28-.27c5.82-5.85,6.77-8.14,11-14.84l-14.24-20.7a93.6,93.6,0,0,0,10.54-25.45l24.7-4.56c1.75-7.73,2.7-10,2.71-18.27v-.39c0-8.25-1-10.54-2.71-18.27Z"/><circle class="cls-6" cx="384.32" cy="339.84" r="41.39"/></g></svg>