<svg id="Contenido" xmlns="http://www.w3.org/2000/svg" xmlns:xlink="http://www.w3.org/1999/xlink" viewBox="0 0 600 600"><defs><style>.cls-1{fill:url(#Degradado_sin_nombre_7);}.cls-2{fill:url(#Degradado_sin_nombre_7-2);}.cls-3{fill:#1464a5;}.cls-4{fill:#043263;}.cls-5{fill:#2dcccd;}.cls-6{fill:#028484;}.cls-7{fill:url(#Degradado_sin_nombre_22);}.cls-8{fill:url(#Degradado_sin_nombre_38);}</style><linearGradient id="Degradado_sin_nombre_7" x1="177.21" y1="202.75" x2="384.86" y2="593.27" gradientUnits="userSpaceOnUse"><stop offset="0" stop-color="#192647"/><stop offset="0" stop-color="#192647" stop-opacity="0.5"/><stop offset="1" stop-color="#192647" stop-opacity="0"/></linearGradient><linearGradient id="Degradado_sin_nombre_7-2" x1="302.99" y1="113.96" x2="517.01" y2="516.48" xlink:href="#Degradado_sin_nombre_7"/><linearGradient id="Degradado_sin_nombre_22" x1="437.22" y1="397.44" x2="226.91" y2="397.44" gradientUnits="userSpaceOnUse"><stop offset="0" stop-color="#043263" stop-opacity="0.5"/><stop offset="1" stop-color="#043263" stop-opacity="0.1"/></linearGradient><linearGradient id="Degradado_sin_nombre_38" x1="470.41" y1="284.33" x2="321.28" y2="284.33" gradientUnits="userSpaceOnUse"><stop offset="0" stop-color="#028484" stop-opacity="0.5"/><stop offset="1" stop-color="#028484" stop-opacity="0.1"/></linearGradient></defs><title>EXPERIENCE</title><path class="cls-1" d="M204.32,231.22a2.88,2.88,0,0,0-4.92,2V512.52a2.88,2.88,0,0,0,2.88,2.88H481.55a2.88,2.88,0,0,0,2-4.92Zm44,235.24v-122l122,122Z"/><path class="cls-2" d="M294.34,281.84a2.87,2.87,0,0,0,4.07,0l7-7L440.75,410.18l-7,7a2.87,2.87,0,0,0,0,4.07l30.47,30.47a2.87,2.87,0,0,0,4.07,0l7-7A144.55,144.55,0,1,0,270.87,240.3l-7,7a2.89,2.89,0,0,0,0,4.07Zm78.74-34.94A95.59,95.59,0,0,1,465.75,366L349.58,249.8A96.23,96.23,0,0,1,373.08,246.9Z"/><path class="cls-3" d="M201.13,296.48l122,122h-122v-122M152.19,464.54a2.88,2.88,0,0,0,2.88,2.88H434.33a2.88,2.88,0,0,0,2-4.91L157.11,183.24a2.88,2.88,0,0,0-4.92,2Z"/><path class="cls-4" d="M152.19,285.09V275.5H163.7a2.88,2.88,0,0,1,2.88,2.88v3.84a2.87,2.87,0,0,1-2.88,2.87Z"/><path class="cls-4" d="M152.19,323.48v-9.6H173.3a2.88,2.88,0,0,1,2.88,2.88v3.84a2.88,2.88,0,0,1-2.88,2.88Z"/><path class="cls-4" d="M152.19,361.86v-9.59H163.7a2.88,2.88,0,0,1,2.88,2.88V359a2.88,2.88,0,0,1-2.88,2.88Z"/><path class="cls-4" d="M152.19,400.25v-9.6H173.3a2.88,2.88,0,0,1,2.88,2.88v3.84a2.88,2.88,0,0,1-2.88,2.88Z"/><path class="cls-4" d="M152.19,438.63V429H163.7a2.87,2.87,0,0,1,2.88,2.87v3.84a2.88,2.88,0,0,1-2.88,2.88Z"/><path class="cls-5" d="M428.08,192.32a144.54,144.54,0,0,0-204.42,0l-7,7a2.87,2.87,0,0,0,0,4.07l30.46,30.47a2.88,2.88,0,0,0,4.08,0l7-7L393.54,362.2l-7,7a2.89,2.89,0,0,0,0,4.07L417,403.74a2.87,2.87,0,0,0,4.07,0l7-7A144.55,144.55,0,0,0,428.08,192.32Zm-102.21,6.6A95.59,95.59,0,0,1,418.53,318L302.36,201.82A96.37,96.37,0,0,1,325.87,198.92Z"/><path class="cls-6" d="M453.41,226.45q-2.25-4.22-4.79-8.31L430.7,228.49a2.87,2.87,0,0,0-1.05,3.93l1.92,3.32a2.88,2.88,0,0,0,3.93,1.06Z"/><path class="cls-6" d="M451.22,259l1,3.71a2.88,2.88,0,0,0,3.53,2l10.93-2.93c-.72-3.11-1.54-6.21-2.47-9.27l-10.95,2.93A2.88,2.88,0,0,0,451.22,259Z"/><path class="cls-6" d="M416.62,201.06l2.72,2.71a2.87,2.87,0,0,0,4.07,0l8-8q-1.64-1.74-3.33-3.45c-1.14-1.14-2.29-2.24-3.46-3.33l-8,8A2.89,2.89,0,0,0,416.62,201.06Z"/><path class="cls-6" d="M384.65,188.83l3.33,1.92a2.88,2.88,0,0,0,3.93-1.05l10.34-17.92c-2.72-1.7-5.5-3.29-8.31-4.8L383.6,184.9A2.87,2.87,0,0,0,384.65,188.83Z"/><path class="cls-6" d="M290.22,169.18l3.71-1a2.89,2.89,0,0,0,2-3.53L293,153.75q-4.67,1.08-9.27,2.48l2.93,10.91A2.88,2.88,0,0,0,290.22,169.18Z"/><path class="cls-6" d="M470.33,289.79H449.7a2.87,2.87,0,0,0-2.88,2.87v3.84a2.88,2.88,0,0,0,2.88,2.88h20.62Q470.49,294.58,470.33,289.79Z"/><path class="cls-6" d="M464.17,336.62c.93-3.06,1.75-6.16,2.48-9.27l-10.91-2.92a2.88,2.88,0,0,0-3.53,2l-1,3.71a2.88,2.88,0,0,0,2,3.53Z"/><path class="cls-6" d="M453.37,362.69,435.5,352.37a2.88,2.88,0,0,0-3.93,1.05l-1.92,3.33a2.87,2.87,0,0,0,1.05,3.93L448.57,371Q451.12,366.91,453.37,362.69Z"/><path class="cls-6" d="M330.61,170.7V150.07c-1.58,0-3.16-.09-4.74-.09s-3.24,0-4.86.09V170.7a2.88,2.88,0,0,0,2.88,2.88h3.84A2.88,2.88,0,0,0,330.61,170.7Z"/><path class="cls-6" d="M268,184.9,257.71,167q-4.21,2.25-8.31,4.8l10.32,17.87a2.88,2.88,0,0,0,3.93,1.05l3.32-1.92A2.88,2.88,0,0,0,268,184.9Z"/><path class="cls-6" d="M357.69,168.19l3.71,1a2.88,2.88,0,0,0,3.53-2l2.93-10.94q-4.61-1.39-9.27-2.47l-2.93,10.93A2.89,2.89,0,0,0,357.69,168.19Z"/><path class="cls-7" d="M436.37,462.5l-135-135-24,45.19,45.83,45.83h-70.2l-26,48.94H434.33A2.88,2.88,0,0,0,436.37,462.5Z"/><path class="cls-4" d="M190.57,467.42H181V455.91a2.88,2.88,0,0,1,2.88-2.88h3.84a2.87,2.87,0,0,1,2.87,2.88Z"/><path class="cls-4" d="M229,467.42h-9.6V446.31a2.88,2.88,0,0,1,2.88-2.88h3.84a2.88,2.88,0,0,1,2.88,2.88Z"/><path class="cls-4" d="M267.34,467.42h-9.59V455.91a2.88,2.88,0,0,1,2.88-2.88h3.83a2.88,2.88,0,0,1,2.88,2.88Z"/><path class="cls-4" d="M305.73,467.42h-9.6V446.31a2.88,2.88,0,0,1,2.88-2.88h3.84a2.88,2.88,0,0,1,2.88,2.88Z"/><path class="cls-4" d="M344.11,467.42h-9.59V455.91a2.87,2.87,0,0,1,2.87-2.88h3.84a2.88,2.88,0,0,1,2.88,2.88Z"/><path class="cls-8" d="M428.08,192.32a144.46,144.46,0,0,0-39.88-28.24l-23,43.26A95.76,95.76,0,0,1,418.53,318L345.3,244.75l-24,45.19,72.26,72.26-7,7a2.89,2.89,0,0,0,0,4.07L417,403.74a2.87,2.87,0,0,0,4.07,0l7-7A144.55,144.55,0,0,0,428.08,192.32Z"/></svg>