<svg xmlns="http://www.w3.org/2000/svg" xmlns:xlink="http://www.w3.org/1999/xlink" viewBox="0 0 600 600"><defs><style>.cls-1{fill:none;}.cls-2{fill:url(#Degradado_sin_nombre_503);}.cls-3{fill:url(#Degradado_sin_nombre_503-2);}.cls-4{fill:#004481;}.cls-5{fill:#043263;}.cls-6{fill:#2dcccd;}.cls-7{fill:#028484;}.cls-8{fill:url(#Degradado_sin_nombre_114);}.cls-9{fill:url(#Degradado_sin_nombre_103);}</style><linearGradient id="Degradado_sin_nombre_503" x1="177.19" y1="-2069.76" x2="384.84" y2="-2460.28" gradientTransform="matrix(1, 0, 0, -1, 0, -1890)" gradientUnits="userSpaceOnUse"><stop offset="0" stop-color="#192647" stop-opacity="0.5"/><stop offset="1" stop-color="#192647" stop-opacity="0"/></linearGradient><linearGradient id="Degradado_sin_nombre_503-2" x1="303.4" y1="-1980.74" x2="517.42" y2="-2383.26" xlink:href="#Degradado_sin_nombre_503"/><linearGradient id="Degradado_sin_nombre_114" x1="437.26" y1="-2264.48" x2="227" y2="-2264.48" gradientTransform="matrix(1, 0, 0, -1, 0, -1890)" gradientUnits="userSpaceOnUse"><stop offset="0" stop-color="#072146" stop-opacity="0.8"/><stop offset="1" stop-color="#072146" stop-opacity="0"/></linearGradient><linearGradient id="Degradado_sin_nombre_103" x1="470.41" y1="-2151.33" x2="321.3" y2="-2151.33" gradientTransform="matrix(1, 0, 0, -1, 0, -1890)" gradientUnits="userSpaceOnUse"><stop offset="0" stop-color="#028484" stop-opacity="0.5"/><stop offset="1" stop-color="#028484" stop-opacity="0.1"/></linearGradient></defs><title>11</title><g id="Cuadrados_Blancos" data-name="Cuadrados Blancos"><rect class="cls-1" width="600" height="600"/></g><g id="Capa_68" data-name="Capa 68"><path class="cls-2" d="M204.32,208.22a2.88,2.88,0,0,0-4.92,2v279.3a2.88,2.88,0,0,0,2.88,2.88H481.55a2.88,2.88,0,0,0,2-4.92Zm44,235.24v-122l122,122Z"/><path class="cls-3" d="M294.34,258.84a2.87,2.87,0,0,0,4.06,0h0l7-7L440.75,387.18l-7,7a2.87,2.87,0,0,0,0,4.06h0l30.47,30.47a2.87,2.87,0,0,0,4.06,0h0l7-7a144.55,144.55,0,0,0-203-205.79c-.46.46-.92.91-1.37,1.37l-7,7a2.89,2.89,0,0,0,0,4.07Zm78.74-34.94A95.58,95.58,0,0,1,465.75,343L349.58,226.8A96.46,96.46,0,0,1,373.08,223.9Z"/><path class="cls-4" d="M201.13,273.48l122,122h-122v-122M152.19,441.54a2.88,2.88,0,0,0,2.88,2.88H434.33a2.88,2.88,0,0,0,2-4.91L157.11,160.24a2.88,2.88,0,0,0-4.92,2Z"/><path class="cls-5" d="M152.19,262.09V252.5H163.7a2.88,2.88,0,0,1,2.88,2.88h0v3.84a2.86,2.86,0,0,1-2.87,2.87H152.19Z"/><path class="cls-5" d="M152.19,300.48v-9.6H173.3a2.88,2.88,0,0,1,2.88,2.88h0v3.84a2.88,2.88,0,0,1-2.88,2.88H152.19Z"/><path class="cls-5" d="M152.19,338.86v-9.59H163.7a2.88,2.88,0,0,1,2.88,2.88h0V336a2.88,2.88,0,0,1-2.88,2.88h0Z"/><path class="cls-5" d="M152.19,377.25v-9.6H173.3a2.88,2.88,0,0,1,2.88,2.88h0v3.84a2.88,2.88,0,0,1-2.88,2.88H152.19Z"/><path class="cls-5" d="M152.19,415.63V406H163.7a2.86,2.86,0,0,1,2.88,2.86h0v3.84a2.88,2.88,0,0,1-2.88,2.88h0Z"/><path class="cls-6" d="M428.08,169.32a144.54,144.54,0,0,0-204.41,0h0l-7,7a2.87,2.87,0,0,0,0,4.06h0l30.46,30.47a2.88,2.88,0,0,0,4.07,0h0l7-7L393.54,339.2l-7,7a2.89,2.89,0,0,0,0,4.07L417,380.74a2.87,2.87,0,0,0,4.06,0h0l7-7A144.55,144.55,0,0,0,428.08,169.32Zm-102.21,6.6A95.59,95.59,0,0,1,418.53,295L302.36,178.82a96.54,96.54,0,0,1,23.51-2.9Z"/><path class="cls-7" d="M453.41,203.45q-2.25-4.22-4.79-8.31L430.7,205.49a2.88,2.88,0,0,0-1.06,3.92h0l1.92,3.32a2.88,2.88,0,0,0,3.93,1.06Z"/><path class="cls-7" d="M451.22,236l1,3.71a2.88,2.88,0,0,0,3.53,2l10.93-2.93c-.72-3.11-1.54-6.21-2.47-9.27l-10.95,2.93a2.88,2.88,0,0,0-2.05,3.52Z"/><path class="cls-7" d="M416.62,178.06l2.72,2.71a2.87,2.87,0,0,0,4.06,0h0l8-8q-1.64-1.74-3.33-3.45c-1.14-1.14-2.29-2.24-3.46-3.33l-8,8a2.83,2.83,0,0,0-.11,4S416.55,178.08,416.62,178.06Z"/><path class="cls-7" d="M384.65,165.83l3.33,1.92a2.89,2.89,0,0,0,3.93-1.05l10.34-17.92c-2.72-1.7-5.5-3.29-8.31-4.8L383.6,161.9a2.86,2.86,0,0,0,1,3.92Z"/><path class="cls-7" d="M290.22,146.18l3.71-1a2.89,2.89,0,0,0,2-3.53L293,130.75q-4.67,1.08-9.27,2.48l2.93,10.91a2.88,2.88,0,0,0,3.52,2.05Z"/><path class="cls-7" d="M470.33,266.79H449.7a2.86,2.86,0,0,0-2.88,2.86h0v3.84a2.88,2.88,0,0,0,2.88,2.88h20.62C470.43,273.18,470.44,270,470.33,266.79Z"/><path class="cls-7" d="M464.17,313.62c.93-3.06,1.75-6.16,2.48-9.27l-10.91-2.92a2.88,2.88,0,0,0-3.53,2l-1,3.71a2.88,2.88,0,0,0,2,3.53Z"/><path class="cls-7" d="M453.37,339.69,435.5,329.37a2.89,2.89,0,0,0-3.93,1.05l-1.92,3.33a2.86,2.86,0,0,0,1,3.92h0L448.57,348Q451.12,343.91,453.37,339.69Z"/><path class="cls-7" d="M330.61,147.7V127.07c-1.58,0-3.16-.09-4.74-.09s-3.24,0-4.86.09V147.7a2.88,2.88,0,0,0,2.88,2.88h3.84A2.88,2.88,0,0,0,330.61,147.7Z"/><path class="cls-7" d="M268,161.9,257.71,144q-4.21,2.25-8.31,4.8l10.32,17.87a2.89,2.89,0,0,0,3.93,1.05L267,165.8A2.88,2.88,0,0,0,268,161.9Z"/><path class="cls-7" d="M357.69,145.19l3.71,1a2.88,2.88,0,0,0,3.53-2l2.93-10.94q-4.61-1.4-9.27-2.47l-2.93,10.93A2.88,2.88,0,0,0,357.69,145.19Z"/><path class="cls-8" d="M436.37,439.5l-135-135-24,45.19,45.83,45.83H253l-26,48.94H434.33a2.88,2.88,0,0,0,2-5Z"/><path class="cls-5" d="M190.57,444.42H181V432.91a2.88,2.88,0,0,1,2.88-2.88h3.84a2.86,2.86,0,0,1,2.87,2.87h0Z"/><path class="cls-5" d="M229,444.42h-9.6V423.31a2.88,2.88,0,0,1,2.88-2.88h3.84a2.88,2.88,0,0,1,2.88,2.88h0Z"/><path class="cls-5" d="M267.34,444.42h-9.59V432.91a2.88,2.88,0,0,1,2.88-2.88h3.83a2.88,2.88,0,0,1,2.88,2.88h0Z"/><path class="cls-5" d="M305.73,444.42h-9.6V423.31a2.88,2.88,0,0,1,2.88-2.88h3.84a2.88,2.88,0,0,1,2.88,2.88h0Z"/><path class="cls-5" d="M344.11,444.42h-9.59V432.91a2.86,2.86,0,0,1,2.86-2.88h3.85a2.88,2.88,0,0,1,2.88,2.88h0Z"/><path class="cls-9" d="M428.08,169.32a144.41,144.41,0,0,0-39.88-28.24l-23,43.26A95.76,95.76,0,0,1,418.53,295L345.3,221.75l-24,45.19,72.26,72.26-7,7a2.89,2.89,0,0,0,0,4.07L417,380.74a2.87,2.87,0,0,0,4.06,0h0l7-7A144.55,144.55,0,0,0,428.08,169.32Z"/></g></svg>