<?xml version="1.0" encoding="utf-8"?>
<!-- Generator: Adobe Illustrator 25.2.3, SVG Export Plug-In . SVG Version: 6.00 Build 0)  -->
<svg version="1.1" id="Capa_1" xmlns="http://www.w3.org/2000/svg" xmlns:xlink="http://www.w3.org/1999/xlink" x="0px" y="0px"
	 viewBox="0 0 600 600" style="enable-background:new 0 0 600 600;" xml:space="preserve">
<style type="text/css">
	.st0{fill:url(#SVGID_1_);}
	.st1{fill:#043263;}
	.st2{fill:url(#SVGID_2_);}
	.st3{fill:#2DCCCD;}
	.st4{fill:url(#SVGID_3_);}
	.st5{enable-background:new    ;}
	.st6{fill:#FFFFFF;}
</style>
<linearGradient id="SVGID_1_" gradientUnits="userSpaceOnUse" x1="288.9112" y1="444.5507" x2="476.9212" y2="90.9407" gradientTransform="matrix(1 0 0 -1 0 602)">
	<stop  offset="0" style="stop-color:#192647;stop-opacity:0.5"/>
	<stop  offset="1" style="stop-color:#192647;stop-opacity:0"/>
</linearGradient>
<path class="st0" d="M548.9,193.1c-3.2-6.7-9.2-11.6-16.3-13.3L425.2,153c-6.4-1.6-13.1-0.6-18.7,2.8L154.2,307.4
	c-11.7,7-15.5,22.2-8.5,33.9v0l80.6,134.1c7,11.7,22.2,15.5,33.9,8.5c0,0,0,0,0,0l0,0l25.1-15.1l0,0l227.3-136.5
	c2.1-1.3,4-2.8,5.6-4.6c2.2-2.4,3.8-5.2,4.9-8.2c0.3-0.8,0.5-1.5,0.7-2.3l26.8-107.3C551.9,204.2,551.3,198.3,548.9,193.1z
	 M497.5,216.5L497.5,216.5c0.4,0.4,0.8,0.9,1.2,1.3l0.3,0.3c0.3,0.4,0.7,0.9,0.9,1.4l0.1,0.2c4.4,7.3,2,16.8-5.3,21.2
	c-3.1,1.8-6.6,2.6-10.2,2h-0.1c-1.2-0.2-2.4-0.5-3.6-1c-0.3-0.1-0.6-0.2-0.9-0.4c-7.7-3.7-10.9-13-7.1-20.6
	c3.7-7.7,13-10.9,20.6-7.1c0.2,0.1,0.4,0.2,0.7,0.3l0,0C495.3,214.7,496.4,215.5,497.5,216.5z"/>
<path class="st1" d="M479.9,156.5l-107.3-26.8c-6.4-1.6-13.1-0.6-18.7,2.8L101.6,284.2c-11.7,7-15.5,22.2-8.5,33.9l0,0l80.6,134.1
	c7,11.7,22.2,15.5,33.9,8.5c0,0,0,0,0,0l0,0L459.9,309c5.6-3.4,9.7-8.8,11.2-15.2l26.8-107.3C501.2,173.2,493.2,159.9,479.9,156.5z
	 M442.1,217.6c-7.3,4.4-16.8,2-21.2-5.3c-4.4-7.3-2-16.8,5.3-21.2c7.3-4.4,16.8-2,21.2,5.3C451.8,203.7,449.4,213.2,442.1,217.6
	C442.1,217.6,442.1,217.6,442.1,217.6L442.1,217.6z"/>
<linearGradient id="SVGID_2_" gradientUnits="userSpaceOnUse" x1="498.6525" y1="1608.77" x2="232.69" y2="1608.77" gradientTransform="matrix(1 0 0 1 0 -1318)">
	<stop  offset="0" style="stop-color:#072146;stop-opacity:0.8"/>
	<stop  offset="1" style="stop-color:#072146;stop-opacity:0.1"/>
</linearGradient>
<path class="st2" d="M479.9,156.5L397.3,136L232.7,445.5L459.9,309c5.6-3.4,9.7-8.8,11.2-15.2l26.8-107.3
	C501.2,173.2,493.2,159.9,479.9,156.5z M442.1,217.6c-7.3,4.4-16.8,2-21.2-5.3c-4.4-7.3-2-16.8,5.3-21.2c7.3-4.4,16.8-2,21.2,5.3
	C451.8,203.7,449.4,213.2,442.1,217.6C442.1,217.6,442.1,217.6,442.1,217.6L442.1,217.6z"/>
<path class="st3" d="M456.2,191.1c-7.3-12.2-23.1-16.2-35.3-8.9c-12.2,7.3-16.2,23.1-8.9,35.3c7.3,12.2,23.1,16.2,35.3,8.9
	c0,0,0,0,0,0h0.1C459.6,219.1,463.6,203.3,456.2,191.1z M442.1,217.6c-7.3,4.4-16.8,2-21.2-5.3c-4.4-7.3-2-16.8,5.3-21.2
	c7.3-4.4,16.8-2,21.2,5.3C451.8,203.7,449.4,213.2,442.1,217.6C442.1,217.6,442.1,217.6,442.1,217.6z"/>
<linearGradient id="SVGID_3_" gradientUnits="userSpaceOnUse" x1="459.93" y1="1523.9498" x2="422.1153" y2="1523.9498" gradientTransform="matrix(1 0 0 1 0 -1318)">
	<stop  offset="2.000000e-02" style="stop-color:#028484;stop-opacity:0.3"/>
	<stop  offset="0.99" style="stop-color:#028484;stop-opacity:0.1"/>
</linearGradient>
<path class="st4" d="M456.2,191.1c-2.4-4-5.9-7.3-10-9.4l-4.8,9.1c7.7,3.6,11,12.8,7.4,20.5c-3.6,7.7-12.8,11-20.5,7.4
	c-0.4-0.2-0.8-0.4-1.2-0.7l-4.8,9.1c12.5,6.7,28.1,1.9,34.8-10.6C461.2,208.5,461,198.9,456.2,191.1L456.2,191.1z"/>
<g class="st5">
	<path class="st6" d="M184.5,377.9l-26.2-44.1l16-9.5c9.4-5.6,19.5-8.2,26.4,3.5c7,11.9-0.8,19.8-9.6,25.1l-6.3,3.7l9.3,15.7
		L184.5,377.9z M180.4,349l6.6-3.9c6-3.6,6.9-7.2,4.4-11.5c-2.4-4.1-6-5.1-12.1-1.5l-6.6,3.9L180.4,349z"/>
</g>
<g class="st5">
	<path class="st6" d="M222.7,355.2l-18.9-31.8l8.9-5.3l3.9,4.9l0.1,0c0.2-3.6,1.1-8.7,6.7-12l0.2-0.1l6,8c-0.8,0.3-1.6,0.8-2.3,1.2
		c-4.7,2.8-6.3,6.3-6.7,9.8l11.7,19.7L222.7,355.2z"/>
</g>
<g class="st5">
	<path class="st6" d="M235.9,325.9c-7.4-12.5-1.3-21.6,6.4-26.2c7.7-4.6,18.7-5.5,26.1,7c7.3,12.3,1.3,21.6-6.4,26.1
		S243.2,338.3,235.9,325.9z M258.9,312.4c-3.1-5.3-7.5-8.5-12.3-5.7c-4.6,2.7-4.4,7.8-1,13.6c3.1,5.3,7.6,8.7,12.4,5.8
		C262.5,323.4,262.3,318.2,258.9,312.4z"/>
	<path class="st6" d="M283.4,319.2l-18.9-31.8l8.9-5.3l3.7,4.6c0.4-3.6,2.1-8.9,7.1-11.9c5.3-3.1,9.1-2.4,12.1,0.5
		c0.5-3.6,2.1-8.9,7.1-11.9c6.4-3.8,11.7-1.5,15.1,4.2l13.5,22.7l-9.6,5.7l-12-20.2c-1.7-2.9-3.2-4-6-2.3c-2.4,1.4-3.5,3.9-4.5,6.9
		l12.7,21.4l-9.6,5.7l-12-20.2c-1.7-2.9-3.2-4-6-2.3c-2.4,1.4-3.5,3.9-4.6,7l12.7,21.3L283.4,319.2z"/>
</g>
<g class="st5">
	<path class="st6" d="M327.8,271.5c-7.4-12.5-1.3-21.6,6.4-26.2c7.7-4.6,18.7-5.5,26.1,7c7.3,12.3,1.3,21.6-6.4,26.1
		C346.2,282.9,335.1,283.8,327.8,271.5z M350.7,257.9c-3.1-5.3-7.5-8.5-12.3-5.7c-4.6,2.7-4.4,7.8-1,13.6c3.1,5.3,7.6,8.7,12.4,5.8
		C354.4,268.9,354.2,263.7,350.7,257.9z"/>
</g>
<g class="st5">
	<path class="st6" d="M370.2,262.5l-0.1-7.5c4.4,0.3,9.9-0.5,13.8-2.8c3-1.8,4.5-4,3.2-6.1c-1.3-2.2-3.5-2.1-8.3-0.2
		c-6.7,2.5-13.9,4.9-18.4-2.6c-3.8-6.4-0.7-13.2,6.4-17.4c5.9-3.5,10.8-4.4,15.9-4.4l0.5,7.5c-4.4,0-8.8,1.1-11.8,2.9
		c-2.7,1.6-3.7,3.6-2.6,5.3c1.1,1.9,3.3,1.7,7.7,0c6.9-2.6,14.4-5.1,18.6,2.1c4.6,7.7-0.3,14.7-7.6,19
		C381.2,262.1,375.1,262.8,370.2,262.5z"/>
</g>
</svg>
