<svg id="Cuadrados_Blancos" data-name="Cuadrados Blancos" xmlns="http://www.w3.org/2000/svg" xmlns:xlink="http://www.w3.org/1999/xlink" viewBox="0 0 600 600"><defs><style>.cls-1{fill:none;}.cls-2{fill:url(#Degradado_sin_nombre_575);}.cls-3{fill:#043263;}.cls-4{fill:url(#Degradado_sin_nombre_148);}.cls-5{fill:#fff;}.cls-6{fill:#2dcccd;}.cls-7{fill:url(#Degradado_sin_nombre_150);}</style><linearGradient id="Degradado_sin_nombre_575" x1="262.87" y1="180.94" x2="439.5" y2="513.14" gradientUnits="userSpaceOnUse"><stop offset="0" stop-color="#1c2645" stop-opacity="0.5"/><stop offset="1" stop-color="#1c2645" stop-opacity="0"/></linearGradient><linearGradient id="Degradado_sin_nombre_148" x1="518.94" y1="304.51" x2="232.26" y2="304.51" gradientUnits="userSpaceOnUse"><stop offset="0" stop-color="#072146" stop-opacity="0.8"/><stop offset="1" stop-color="#072146" stop-opacity="0.1"/></linearGradient><linearGradient id="Degradado_sin_nombre_150" x1="477.2" y1="213.06" x2="436.45" y2="213.06" gradientUnits="userSpaceOnUse"><stop offset="0.02" stop-color="#028484" stop-opacity="0.3"/><stop offset="0.99" stop-color="#028484" stop-opacity="0.1"/></linearGradient></defs><title>11</title><rect class="cls-1" width="600" height="600"/><path class="cls-2" d="M529.94,213.42,414.26,184.57a26.67,26.67,0,0,0-20.16,3L122.1,351A26.63,26.63,0,0,0,113,387.55l86.85,144.53a26.61,26.61,0,0,0,36.53,9.11l272-163.43a26.65,26.65,0,0,0,12.12-16.38l28.84-115.69A26.61,26.61,0,0,0,529.94,213.42Zm-40.71,65.83a16.64,16.64,0,1,1,5.7-22.83A16.63,16.63,0,0,1,489.23,279.25Z"/><path class="cls-3" d="M498.75,159.86,383.06,131a26.59,26.59,0,0,0-20.15,3l-272,163.43A26.62,26.62,0,0,0,81.8,334l86.84,144.53a26.61,26.61,0,0,0,36.53,9.1l272-163.43a26.58,26.58,0,0,0,12.12-16.38l28.85-115.69A26.63,26.63,0,0,0,498.75,159.86ZM458,225.7a16.64,16.64,0,1,1,5.69-22.84A16.65,16.65,0,0,1,458,225.7Z"/><path class="cls-4" d="M498.75,159.86l-89.06-22.2L232.26,471.36,477.17,324.2a26.58,26.58,0,0,0,12.12-16.38l28.85-115.69A26.63,26.63,0,0,0,498.75,159.86ZM458,225.7a16.64,16.64,0,1,1,5.69-22.84A16.65,16.65,0,0,1,458,225.7Z"/><path class="cls-5" d="M316.93,259.61l2.52,44.5a1.35,1.35,0,0,1-1.22,1.33l-.71-.17-38.11-23.12a1.42,1.42,0,0,0-1.25-.06l-8.6,5.17a.82.82,0,0,0-.29,1.19c.09.14.18.29.32.2l59.48,35.51a1.19,1.19,0,0,0,1.61-.36l.17-.71-3.42-69.19a1,1,0,0,0-.92-.86c-.15.09-.39,0-.54.12l-8.6,5.17a1.8,1.8,0,0,0-.44,1.28"/><path class="cls-5" d="M354.19,298.78l-2.52-44.51a1.34,1.34,0,0,1,1.21-1.33l.71.18,38.11,23.11a1.42,1.42,0,0,0,1.25.06l8.6-5.17a.81.81,0,0,0,.3-1.18c-.09-.15-.18-.3-.33-.21L342,234.22a1.2,1.2,0,0,0-1.6.36l-.18.71,3.49,69a1,1,0,0,0,.92.86c.15-.09.23.06.38,0l8.6-5.17a1.57,1.57,0,0,0,.54-1.12"/><path class="cls-5" d="M221.59,379.06l-16,9.62a1.18,1.18,0,0,1-1.66-.42h0l-8.64-14.38a1.18,1.18,0,0,1,.41-1.66h0l16-9.62c7.56-4.55,12.31-4.37,15.87,1.56s1.73,10.26-6,14.9m-39.1-28.79,15.72-9.44c5.79-3.48,10.27-2.74,13,1.86s1.31,8.9-4.47,12.37l-15.72,9.45a1.18,1.18,0,0,1-1.66-.42h0l-7.31-12.16a1.18,1.18,0,0,1,.41-1.66h0m37.77.72a13.9,13.9,0,0,0-.42-14.48c-5.08-8.45-15-10.17-24.33-4.55l-26.69,16a1.17,1.17,0,0,0-.42,1.66h0l31.28,52a1.18,1.18,0,0,0,1.66.41l25.5-15.32c12.76-7.67,16.13-17.16,9.72-27.84s-16.3-8-16.3-8"/><path class="cls-5" d="M276.16,346.27l-16,9.62a1.18,1.18,0,0,1-1.66-.42l-8.64-14.38a1.18,1.18,0,0,1,.41-1.66l16-9.62c7.56-4.55,12.31-4.37,15.87,1.56s1.73,10.26-6,14.9m-39.1-28.79L252.78,308c5.79-3.48,10.27-2.74,13,1.86s1.31,8.9-4.47,12.37l-15.72,9.45a1.18,1.18,0,0,1-1.66-.42l-7.31-12.16a1.18,1.18,0,0,1,.41-1.66h0m37.92.63a13.9,13.9,0,0,0-.42-14.48c-5.08-8.45-15-10.16-24.33-4.55l-26.7,16a1.18,1.18,0,0,0-.41,1.66h0l31.27,52.05a1.19,1.19,0,0,0,1.67.41h0l25.5-15.32c12.75-7.67,16.13-17.16,9.72-27.84s-16.3-8-16.3-8"/><path class="cls-6" d="M473.23,197.15a27.73,27.73,0,1,0-9.48,38A27.72,27.72,0,0,0,473.23,197.15ZM458,225.7a16.64,16.64,0,1,1,5.69-22.84A16.65,16.65,0,0,1,458,225.7Z"/><path class="cls-7" d="M473.23,197.15A27.54,27.54,0,0,0,462.49,187l-5.22,9.81a16.48,16.48,0,0,1,6.46,6.1,16.63,16.63,0,0,1-22.07,23.25l-5.21,9.81a27.73,27.73,0,0,0,36.78-38.77Z"/></svg>