<svg id="Capa_1" data-name="Capa 1" xmlns="http://www.w3.org/2000/svg" xmlns:xlink="http://www.w3.org/1999/xlink" viewBox="0 0 600 600"><defs><style>.cls-1{fill:none;}.cls-2{fill:url(#Degradado_sin_nombre);}.cls-3{fill:#1464a5;}.cls-4{fill:url(#Degradado_sin_nombre_4);}.cls-5{fill:#043263;opacity:0.6;isolation:isolate;}.cls-6{fill:#fff;}</style><linearGradient id="Degradado_sin_nombre" x1="266.82" y1="854.01" x2="428.62" y2="1158.3" gradientTransform="translate(0 -648)" gradientUnits="userSpaceOnUse"><stop offset="0" stop-color="#192647" stop-opacity="0.5"/><stop offset="1" stop-color="#192647" stop-opacity="0"/></linearGradient><linearGradient id="Degradado_sin_nombre_4" x1="479.6" y1="2905.96" x2="241" y2="2905.96" gradientTransform="translate(0 -2607.77)" gradientUnits="userSpaceOnUse"><stop offset="0" stop-color="#043263"/><stop offset="1" stop-color="#043263" stop-opacity="0"/></linearGradient></defs><g id="Capa_2" data-name="Capa 2"><rect class="cls-1" width="600" height="600"/></g><g id="Capa_1-2" data-name="Capa 1"><path class="cls-2" d="M191.31,249.31H504.13a23.74,23.74,0,0,1,23.74,23.74V443.29A23.75,23.75,0,0,1,504.13,467H191.31a23.76,23.76,0,0,1-23.74-23.75V273.05A23.74,23.74,0,0,1,191.31,249.31Z"/><path class="cls-3" d="M142.6,189.69h314a23,23,0,0,1,23,23v171a23,23,0,0,1-23,23h-314a23,23,0,0,1-23-23v-171A23,23,0,0,1,142.6,189.69Z"/><path class="cls-4" d="M456.6,406.69a23,23,0,0,0,23-23h0v-171a23,23,0,0,0-23-23H356.4L241,406.69Z"/><rect class="cls-5" x="119.6" y="220.59" width="360" height="35.3"/><path class="cls-6" d="M443.3,377.29H358a5.55,5.55,0,0,1-5.5-5.5v-85.3A5.55,5.55,0,0,1,358,281h85.3a5.55,5.55,0,0,1,5.5,5.5v85.3A5.42,5.42,0,0,1,443.3,377.29Z"/><path class="cls-3" d="M379.7,344.59h5.2a.43.43,0,0,1,.4.4v5.2a.43.43,0,0,1-.4.4h-5.2a.43.43,0,0,1-.4-.4V345c-.1-.2.1-.4.4-.4Z"/><path class="cls-3" d="M416.6,344.59a.43.43,0,0,1-.4-.4h0v-11.4a.43.43,0,0,0-.4-.4H404.4a.43.43,0,0,0-.4.4v5.3a.43.43,0,0,0,.4.4h5.3a.43.43,0,0,1,.4.4v5.2a.43.43,0,0,1-.4.4h-5.3a.43.43,0,0,0-.4.4h0v11.4a.43.43,0,0,0,.4.4h5.3a.43.43,0,0,0,.4-.4V351a.43.43,0,0,1,.4-.4h11.4a.43.43,0,0,0,.4-.4h0V345a.43.43,0,0,0-.4-.4Z"/><path class="cls-3" d="M422.7,332.19h5.2a.43.43,0,0,1,.4.4V344a.43.43,0,0,1-.4.4h-5.2a.43.43,0,0,1-.4-.4v-11.4C422.3,332.39,422.5,332.29,422.7,332.19Z"/><path class="cls-3" d="M428.4,345v5.2a.43.43,0,0,1-.4.4h-5.3a.43.43,0,0,0-.4.4v11.4a.43.43,0,0,0,.4.4H428a.43.43,0,0,0,.4-.4v-5.2a.43.43,0,0,1,.4-.4H434a.43.43,0,0,0,.4-.4V345a.43.43,0,0,0-.4-.4h-5.2a.43.43,0,0,0-.4.4Z"/><path class="cls-3" d="M410.4,356.89h5.2a.43.43,0,0,1,.4.4v5.2a.43.43,0,0,1-.4.4h-5.2a.43.43,0,0,1-.4-.4v-5.2a.43.43,0,0,1,.4-.4Z"/><path class="cls-3" d="M366.8,332.69v29.8a.43.43,0,0,0,.4.4H397a.43.43,0,0,0,.4-.4v-29.8a.43.43,0,0,0-.4-.4H367.2C367,332.29,366.9,332.39,366.8,332.69Zm24.3,24.2H373.5a.43.43,0,0,1-.4-.4v-17.6a.43.43,0,0,1,.4-.4h17.6a.43.43,0,0,1,.4.4h0v17.6A.43.43,0,0,1,391.1,356.89Z"/><path class="cls-3" d="M416.6,307.59h5.2a.43.43,0,0,1,.4.4v5.2a.43.43,0,0,1-.4.4h-5.2a.43.43,0,0,1-.4-.4V308A.37.37,0,0,1,416.6,307.59Z"/><path class="cls-3" d="M403.8,295.79v29.8a.43.43,0,0,0,.4.4H434a.43.43,0,0,0,.4-.4h0v-29.8a.43.43,0,0,0-.4-.4H404.2C404,295.29,403.8,295.49,403.8,295.79ZM427.9,320H410.5a.43.43,0,0,1-.4-.4V302a.43.43,0,0,1,.4-.4h17.6a.43.43,0,0,1,.4.4v17.6c0,.2-.3.4-.6.4Z"/><path class="cls-3" d="M379.7,307.59h5.2a.43.43,0,0,1,.4.4v5.2a.43.43,0,0,1-.4.4h-5.2a.43.43,0,0,1-.4-.4V308C379.2,307.79,379.4,307.59,379.7,307.59Z"/><path class="cls-3" d="M366.8,295.79v29.8a.43.43,0,0,0,.4.4H397a.43.43,0,0,0,.4-.4h0v-29.8a.43.43,0,0,0-.4-.4H367.2C367.1,295.29,366.8,295.49,366.8,295.79ZM391.1,320H373.5a.43.43,0,0,1-.4-.4V302a.43.43,0,0,1,.4-.4h17.6a.43.43,0,0,1,.4.4v17.6A.43.43,0,0,1,391.1,320Z"/></g></svg>