<svg id="Capa_1" data-name="Capa 1" xmlns="http://www.w3.org/2000/svg" xmlns:xlink="http://www.w3.org/1999/xlink" viewBox="0 0 600 600"><defs><style>.cls-1{fill:none;}.cls-2{fill:url(#Degradado_sin_nombre);}.cls-3{fill:#004481;}.cls-4{fill:url(#Degradado_sin_nombre_2);}.cls-5{fill:#072146;}.cls-6{fill:#fff;}.cls-7{fill:#1464a5;}</style><linearGradient id="Degradado_sin_nombre" x1="266.82" y1="854.01" x2="428.62" y2="1158.3" gradientTransform="translate(0 -648)" gradientUnits="userSpaceOnUse"><stop offset="0" stop-color="#192647" stop-opacity="0.5"/><stop offset="1" stop-color="#192647" stop-opacity="0"/></linearGradient><linearGradient id="Degradado_sin_nombre_2" x1="479.6" y1="-1655.99" x2="240.96" y2="-1655.99" gradientTransform="matrix(1, 0, 0, -1, 0, -1357.77)" gradientUnits="userSpaceOnUse"><stop offset="0" stop-color="#072146" stop-opacity="0.8"/><stop offset="1" stop-color="#072146" stop-opacity="0"/></linearGradient></defs><g id="Capa_2" data-name="Capa 2"><rect class="cls-1" width="600" height="600"/></g><g id="Capa_1-2" data-name="Capa 1"><path class="cls-2" d="M191.31,249.31H504.13a23.74,23.74,0,0,1,23.74,23.74V443.29A23.75,23.75,0,0,1,504.13,467H191.31a23.76,23.76,0,0,1-23.74-23.75V273.05A23.74,23.74,0,0,1,191.31,249.31Z"/><rect class="cls-3" x="119.6" y="189.72" width="360" height="217" rx="23"/><path class="cls-4" d="M456.6,406.72a23,23,0,0,0,23-23h0v-171a23,23,0,0,0-23-23H356.37L241,406.72Z"/><rect class="cls-5" x="119.6" y="220.59" width="360" height="35.28"/><path class="cls-6" d="M443.3,377.32H358a5.55,5.55,0,0,1-5.5-5.5v-85.3A5.55,5.55,0,0,1,358,281h85.3a5.55,5.55,0,0,1,5.5,5.5v85.3A5.42,5.42,0,0,1,443.3,377.32Z"/><path class="cls-7" d="M379.7,344.62h5.2a.43.43,0,0,1,.4.4v5.2a.43.43,0,0,1-.4.4h-5.2a.43.43,0,0,1-.4-.4V345c-.1-.2.1-.4.4-.4Z"/><path class="cls-7" d="M416.6,344.62a.43.43,0,0,1-.4-.4h0v-11.4a.43.43,0,0,0-.4-.4H404.4a.43.43,0,0,0-.4.4v5.3a.43.43,0,0,0,.4.4h5.3a.43.43,0,0,1,.4.4v5.2a.43.43,0,0,1-.4.4h-5.3a.43.43,0,0,0-.4.4h0v11.4a.43.43,0,0,0,.4.4h5.3a.43.43,0,0,0,.4-.4V351a.43.43,0,0,1,.4-.4h11.4a.43.43,0,0,0,.4-.4h0V345a.43.43,0,0,0-.4-.4Z"/><path class="cls-7" d="M422.7,332.22h5.2a.43.43,0,0,1,.4.4V344a.43.43,0,0,1-.4.4h-5.2a.43.43,0,0,1-.4-.4v-11.4C422.3,332.42,422.5,332.32,422.7,332.22Z"/><path class="cls-7" d="M428.4,345v5.2a.43.43,0,0,1-.4.4h-5.3a.43.43,0,0,0-.4.4v11.4a.43.43,0,0,0,.4.4H428a.43.43,0,0,0,.4-.4v-5.2a.43.43,0,0,1,.4-.4H434a.43.43,0,0,0,.4-.4V345a.43.43,0,0,0-.4-.4h-5.2a.43.43,0,0,0-.4.4Z"/><path class="cls-7" d="M410.4,356.92h5.2a.43.43,0,0,1,.4.4v5.2a.43.43,0,0,1-.4.4h-5.2a.43.43,0,0,1-.4-.4v-5.2a.43.43,0,0,1,.4-.4Z"/><path class="cls-7" d="M366.8,332.72v29.8a.43.43,0,0,0,.4.4H397a.43.43,0,0,0,.4-.4v-29.8a.43.43,0,0,0-.4-.4H367.2C367,332.32,366.9,332.42,366.8,332.72Zm24.3,24.2H373.5a.43.43,0,0,1-.4-.4v-17.6a.43.43,0,0,1,.4-.4h17.6a.43.43,0,0,1,.4.4h0v17.6A.43.43,0,0,1,391.1,356.92Z"/><path class="cls-7" d="M416.6,307.62h5.2a.43.43,0,0,1,.4.4v5.2a.43.43,0,0,1-.4.4h-5.2a.43.43,0,0,1-.4-.4V308A.37.37,0,0,1,416.6,307.62Z"/><path class="cls-7" d="M403.8,295.82v29.8a.43.43,0,0,0,.4.4H434a.43.43,0,0,0,.4-.4h0v-29.8a.43.43,0,0,0-.4-.4H404.2C404,295.32,403.8,295.52,403.8,295.82ZM427.9,320H410.5a.43.43,0,0,1-.4-.4V302a.43.43,0,0,1,.4-.4h17.6a.43.43,0,0,1,.4.4v17.6c0,.2-.3.4-.6.4Z"/><path class="cls-7" d="M379.7,307.62h5.2a.43.43,0,0,1,.4.4v5.2a.43.43,0,0,1-.4.4h-5.2a.43.43,0,0,1-.4-.4V308C379.2,307.82,379.4,307.62,379.7,307.62Z"/><path class="cls-7" d="M366.8,295.82v29.8a.43.43,0,0,0,.4.4H397a.43.43,0,0,0,.4-.4h0v-29.8a.43.43,0,0,0-.4-.4H367.2C367.1,295.32,366.8,295.52,366.8,295.82ZM391.1,320H373.5a.43.43,0,0,1-.4-.4V302a.43.43,0,0,1,.4-.4h17.6a.43.43,0,0,1,.4.4v17.6A.43.43,0,0,1,391.1,320Z"/></g></svg>