<?xml version="1.0" encoding="utf-8"?>
<!-- Generator: Adobe Illustrator 23.0.1, SVG Export Plug-In . SVG Version: 6.00 Build 0)  -->
<svg version="1.1" id="Contenido" xmlns="http://www.w3.org/2000/svg" xmlns:xlink="http://www.w3.org/1999/xlink" x="0px" y="0px"
	 viewBox="0 0 600 600" style="enable-background:new 0 0 600 600;" xml:space="preserve">
<style type="text/css">
	.st0{fill:url(#SVGID_1_);}
	.st1{fill:#1464A5;}
	.st2{fill:#49A5E6;}
	.st3{opacity:0.5;fill-rule:evenodd;clip-rule:evenodd;fill:url(#SVGID_2_);enable-background:new    ;}
	.st4{fill:#FFFFFF;}
	.st5{fill:#07467F;}
	.st6{fill:#2DCCCD;}
</style>
<title>GLOMO</title>
<linearGradient id="SVGID_1_" gradientUnits="userSpaceOnUse" x1="247.6304" y1="449.7094" x2="460.6797" y2="49.0307" gradientTransform="matrix(1 0 0 -1 0 602)">
	<stop  offset="0" style="stop-color:#192647"/>
	<stop  offset="0" style="stop-color:#192647;stop-opacity:0.5"/>
	<stop  offset="1" style="stop-color:#192647;stop-opacity:0"/>
</linearGradient>
<path class="st0" d="M261.1,148.1h186.1c12.3,0,22.3,10,22.3,22.3v364.5c0,12.3-10,22.3-22.3,22.3H261.1c-12.3,0-22.3-10-22.3-22.3
	V170.4C238.8,158.1,248.8,148.1,261.1,148.1z"/>
<path class="st1" d="M207,95.8h184.9c12.2,0,22.1,9.9,22.1,22.2v362c0,12.2-9.9,22.1-22.1,22.1H207c-12.2,0-22.1-9.9-22.1-22.1v-362
	C184.9,105.7,194.8,95.8,207,95.8z"/>
<rect x="184.9" y="146.8" class="st2" width="229.2" height="304.3"/>
<linearGradient id="SVGID_2_" gradientUnits="userSpaceOnUse" x1="215.46" y1="387.3" x2="369.72" y2="233.04" gradientTransform="matrix(1 0 0 -1 0 602)">
	<stop  offset="0" style="stop-color:#FFFFFF;stop-opacity:0.5"/>
	<stop  offset="1" style="stop-color:#ECF7F8;stop-opacity:0.1"/>
</linearGradient>
<polygon class="st3" points="185.2,147 185.2,450.9 302,451.1 414,244.1 414,146.8 "/>
<path class="st4" d="M331.3,366.6l-12.4,23.6c-0.2,0.4-0.7,0.5-1,0.3c-0.1-0.1-0.2-0.2-0.3-0.3l-12.4-23.6c-0.1-0.2-0.4-0.4-0.6-0.4
	h-6c-0.3,0-0.5,0.2-0.5,0.5c0,0.1,0,0.2,0.1,0.3l19.6,36.6c0.2,0.4,0.6,0.5,1,0.3c0.1-0.1,0.2-0.2,0.3-0.3l19.6-36.6
	c0.1-0.3,0-0.6-0.2-0.7c-0.1,0-0.2-0.1-0.2-0.1h-6C331.7,366.2,331.4,366.4,331.3,366.6"/>
<path class="st4" d="M338.4,398.2l12.4-23.6c0.2-0.4,0.7-0.5,1-0.3c0.1,0.1,0.2,0.2,0.3,0.3l12.4,23.6c0.1,0.2,0.4,0.4,0.6,0.4h6
	c0.3,0,0.5-0.3,0.5-0.6c0-0.1,0-0.2-0.1-0.2l-19.6-36.6c-0.2-0.4-0.6-0.5-1-0.3c-0.1,0.1-0.2,0.2-0.3,0.3l-19.6,36.6
	c-0.1,0.3,0,0.6,0.2,0.7c0.1,0,0.2,0.1,0.3,0.1h6C338,398.6,338.2,398.4,338.4,398.2"/>
<path class="st4" d="M245.4,398.5h-11.2c-0.4,0-0.7-0.3-0.7-0.7l0,0v-10c0-0.4,0.3-0.7,0.7-0.7h11.2c5.3,0,7.7,1.5,7.7,5.8
	S250.8,398.6,245.4,398.5 M234.2,371.7h11c4.1,0,6.1,1.7,6.1,5s-2.1,5-6.1,5h-11c-0.4,0-0.7-0.3-0.7-0.7l0,0v-8.5
	C233.5,372.1,233.8,371.7,234.2,371.7L234.2,371.7 M253.5,383.7c2.7-1.5,4.4-4.4,4.2-7.6c0-5.9-4.6-9.9-11.1-9.9H228
	c-0.4,0-0.7,0.3-0.7,0.7v36.4c0,0.4,0.3,0.7,0.7,0.7h17.8c8.9,0,13.6-3.8,13.6-11.3C259.4,385.4,253.5,383.8,253.5,383.7"/>
<path class="st4" d="M283.6,398.5h-11.2c-0.4,0-0.7-0.3-0.7-0.7l0,0v-10c0-0.4,0.3-0.7,0.7-0.7h11.2c5.3,0,7.7,1.5,7.7,5.8
	S289,398.6,283.6,398.5 M272.4,371.7h11c4.1,0,6.1,1.7,6.1,5s-2.1,5-6.1,5h-11c-0.4,0-0.7-0.3-0.7-0.7l0,0v-8.5
	C271.7,372.1,272,371.7,272.4,371.7L272.4,371.7 M291.7,383.7c2.7-1.5,4.4-4.4,4.2-7.6c0-5.9-4.6-9.9-11.1-9.9h-18.6
	c-0.4,0-0.7,0.3-0.7,0.7l0,0v36.4c0,0.4,0.3,0.7,0.7,0.7H284c8.9,0,13.6-3.8,13.6-11.3C297.6,385.4,291.7,383.8,291.7,383.7"/>
<circle class="st5" cx="299.4" cy="258.8" r="66.9"/>
<path class="st6" d="M280.2,274.4h4.9c0.2,0,0.4,0.2,0.4,0.4v4.9c0,0.2-0.2,0.4-0.4,0.4h-4.9c-0.2,0-0.4-0.2-0.4-0.4v-4.9
	C279.8,274.5,280,274.4,280.2,274.4z"/>
<path class="st6" d="M315.1,274.4c-0.2,0-0.4-0.2-0.4-0.4l0,0v-10.8c0-0.2-0.2-0.4-0.4-0.4c0,0,0,0,0,0h-10.8
	c-0.2,0-0.4,0.2-0.4,0.4v5c0,0.2,0.2,0.4,0.4,0.4h5c0.2,0,0.4,0.2,0.4,0.4v4.9c0,0.2-0.2,0.4-0.4,0.4h-5c-0.2,0-0.4,0.2-0.4,0.4
	c0,0,0,0,0,0v10.8c0,0.2,0.2,0.4,0.4,0.4h5c0.2,0,0.4-0.2,0.4-0.4v-5c0-0.2,0.2-0.4,0.4-0.4h10.8c0.2,0,0.4-0.2,0.4-0.4l0,0v-4.9
	c0-0.2-0.2-0.4-0.4-0.4l0,0H315.1z"/>
<path class="st6" d="M320.9,262.7h4.9c0.2,0,0.4,0.2,0.4,0.4v10.8c0,0.2-0.2,0.4-0.4,0.4h-4.9c-0.2,0-0.4-0.2-0.4-0.4v-10.8
	C320.5,262.9,320.7,262.7,320.9,262.7z"/>
<path class="st6" d="M326.3,274.8v4.9c0,0.2-0.2,0.4-0.4,0.4h-5c-0.2,0-0.4,0.2-0.4,0.4v10.8c0,0.2,0.2,0.4,0.4,0.4h5
	c0.2,0,0.4-0.2,0.4-0.4v-4.9c0-0.2,0.2-0.4,0.4-0.4l0,0h4.9c0.2,0,0.4-0.2,0.4-0.4v-10.8c0-0.2-0.2-0.4-0.4-0.4l0,0h-4.9
	C326.5,274.4,326.3,274.5,326.3,274.8L326.3,274.8z"/>
<path class="st6" d="M309.3,286h4.9c0.2,0,0.4,0.2,0.4,0.4v4.9c0,0.2-0.2,0.4-0.4,0.4h-4.9c-0.2,0-0.4-0.2-0.4-0.4v-4.9
	C308.9,286.2,309,286,309.3,286z"/>
<path class="st6" d="M268.1,263.1v28.2c0,0.2,0.2,0.4,0.4,0.4l0,0h28.2c0.2,0,0.4-0.2,0.4-0.4v-28.2c0-0.2-0.2-0.4-0.4-0.4h-28.2
	C268.3,262.7,268.1,262.9,268.1,263.1z M291,286h-16.6c-0.2,0-0.4-0.2-0.4-0.4V269c0-0.2,0.2-0.4,0.4-0.4H291c0.2,0,0.4,0.2,0.4,0.4
	l0,0v16.6C291.4,285.8,291.2,286,291,286z"/>
<path class="st6" d="M315.1,239.4h4.9c0.2,0,0.4,0.2,0.4,0.4v4.9c0,0.2-0.2,0.4-0.4,0.4h-4.9c-0.2,0-0.4-0.2-0.4-0.4v-4.9
	C314.7,239.6,314.9,239.4,315.1,239.4z"/>
<path class="st6" d="M303,228.3v28.2c0,0.2,0.2,0.4,0.4,0.4c0,0,0,0,0,0h28.2c0.2,0,0.4-0.2,0.4-0.4l0,0v-28.2
	c0-0.2-0.2-0.4-0.4-0.4l0,0h-28.2C303.2,227.8,303,228,303,228.3C303,228.2,303,228.2,303,228.3z M325.8,251.1h-16.5
	c-0.2,0-0.4-0.2-0.4-0.4v-16.6c0-0.2,0.2-0.4,0.4-0.4h16.6c0.2,0,0.4,0.2,0.4,0.4v16.6C326.3,250.9,326.1,251.1,325.8,251.1
	L325.8,251.1z"/>
<path class="st6" d="M280.2,239.4h4.9c0.2,0,0.4,0.2,0.4,0.4v4.9c0,0.2-0.2,0.4-0.4,0.4h-4.9c-0.2,0-0.4-0.2-0.4-0.4v-4.9
	C279.8,239.6,280,239.4,280.2,239.4z"/>
<path class="st6" d="M268.1,228.3v28.2c0,0.2,0.2,0.4,0.4,0.4l0,0h28.2c0.2,0,0.4-0.2,0.4-0.4c0,0,0,0,0,0v-28.2
	c0-0.2-0.2-0.4-0.4-0.4c0,0,0,0,0,0h-28.2C268.3,227.8,268.1,228,268.1,228.3z M291,251.1h-16.6c-0.2,0-0.4-0.2-0.4-0.4v-16.6
	c0-0.2,0.2-0.4,0.4-0.4H291c0.2,0,0.4,0.2,0.4,0.4v16.6C291.4,250.9,291.2,251.1,291,251.1z"/>
</svg>
