<svg id="Contenido" xmlns="http://www.w3.org/2000/svg" xmlns:xlink="http://www.w3.org/1999/xlink" viewBox="0 0 600 600"><defs><style>.cls-1{fill:url(#Degradado_sin_nombre);}.cls-2{fill:#043263;}.cls-3{fill:url(#Degradado_sin_nombre_5);}.cls-4{fill:#f8cd51;}.cls-5{fill:url(#Degradado_sin_nombre_3);}.cls-6{fill:#fef5dc;}.cls-7{fill:none;}.cls-8{fill:#2dcccd;}</style><linearGradient id="Degradado_sin_nombre" x1="250.7" y1="-65.61" x2="445.15" y2="-431.31" gradientTransform="matrix(1, 0, 0, -1, 0, 124)" gradientUnits="userSpaceOnUse"><stop offset="0" stop-color="#192647" stop-opacity="0.5"/><stop offset="1" stop-color="#192647" stop-opacity="0"/></linearGradient><linearGradient id="Degradado_sin_nombre_5" x1="453.64" y1="1377.66" x2="200.81" y2="1377.66" gradientTransform="translate(0 -1076)" gradientUnits="userSpaceOnUse"><stop offset="0" stop-color="#072146" stop-opacity="0.8"/><stop offset="1" stop-color="#072146" stop-opacity="0"/></linearGradient><linearGradient id="Degradado_sin_nombre_3" x1="371.73" y1="960.86" x2="425.56" y2="989.47" gradientTransform="translate(0 -574)" gradientUnits="userSpaceOnUse"><stop offset="0" stop-color="#fade8e"/><stop offset="1" stop-color="#fade8e" stop-opacity="0.4"/></linearGradient></defs><path class="cls-1" d="M492.2,402.68a172,172,0,1,0-76.29,88.64,65,65,0,1,0,76.29-88.64Z"/><circle class="cls-2" cx="281.42" cy="291.48" r="172"/><path class="cls-3" d="M362.33,139.67,200.81,443.48A172,172,0,1,0,362.33,139.67Z"/><path class="cls-4" d="M490.57,415.48a65,65,0,1,1-65-65h0a65,65,0,0,1,65,65h0"/><path class="cls-5" d="M456.16,358.19a64.94,64.94,0,0,0-61,114.67Z"/><path class="cls-6" d="M402.85,413.08H394v-6.6h9.64c2.68-15,12-21.88,22.87-21.88,11.44,0,17.51,5.85,20.49,13.23l-8.45,4.77c-2.09-6.27-5.77-9.25-12-9.25-6.66,0-11.43,4.28-13.12,13.13h15v6.66H412.69v2.09c0,1.2,0,2.39.1,3.48H428.5v6.77H413.58c1.71,8.25,5.87,12.53,13.14,12.53,6.26,0,10-2.79,12.33-9.75l8.25,5c-3.38,7.68-10.33,13.22-20.69,13.22-11.19,0-20.09-6.63-22.86-21H394v-6.77h9c-.1-1.09-.1-2.19-.1-3.28v-2.35Z"/><rect class="cls-7" width="600" height="600"/><path class="cls-8" d="M230.49,259.65h19.1v-19.1h-19.1ZM205,367.87h70v-70H205Zm12.73-57.29h44.56v44.56H217.76Zm12.73,31.83h19.1v-19.1h-19.1Zm70-44.56H287.79v12.73h12.73Zm-12.73-82.76v70h70v-70Zm57.29,57.29H300.52V227.82h44.56Zm12.73,25.47H313.25v12.73h44.56ZM205,285.11h70v-70H205Zm12.73-57.29h44.56v44.56H217.76Zm114.59,12.73h-19.1v19.1h19.1Zm12.73,127.32h12.73V323.31H345.08Zm-31.83-25.46h19.1v-19.1h-19.1Zm-12.73-19.1H287.79v44.56h44.56V355.14H300.52Z"/></svg>