<?xml version="1.0" encoding="utf-8"?>
<!-- Generator: Adobe Illustrator 25.0.0, SVG Export Plug-In . SVG Version: 6.00 Build 0)  -->
<svg version="1.1" id="Contenido" xmlns="http://www.w3.org/2000/svg" xmlns:xlink="http://www.w3.org/1999/xlink" x="0px" y="0px"
	 viewBox="0 0 600 600" style="enable-background:new 0 0 600 600;" xml:space="preserve">
<style type="text/css">
	.st0{fill:url(#SVGID_1_);}
	.st1{fill:#043263;}
	.st2{fill:url(#SVGID_2_);}
	.st3{fill:#F8CD51;}
	.st4{fill:url(#SVGID_3_);}
	.st5{fill:none;}
	.st6{fill:#2DCCCD;}
	.st7{fill:#FEF5DC;}
</style>
<linearGradient id="SVGID_1_" gradientUnits="userSpaceOnUse" x1="250.704" y1="907.5037" x2="445.1524" y2="1273.2007" gradientTransform="matrix(1 0 0 1 0 -717.8902)">
	<stop  offset="0" style="stop-color:#192647;stop-opacity:0.5"/>
	<stop  offset="1" style="stop-color:#192647;stop-opacity:0"/>
</linearGradient>
<path class="st0" d="M492.2,402.7c33.8-88.8-10.8-188.1-99.5-221.9s-188.1,10.8-221.9,99.5s10.8,188.1,99.5,221.9
	c47.8,18.2,101.1,14.2,145.7-10.9c14.3,32.9,52.5,48.1,85.5,33.9c32.9-14.3,48.1-52.5,33.9-85.5
	C527.3,421.4,511.5,407.8,492.2,402.7z"/>
<circle class="st1" cx="281.4" cy="291.5" r="172"/>
<linearGradient id="SVGID_2_" gradientUnits="userSpaceOnUse" x1="453.6428" y1="-777.7687" x2="200.81" y2="-777.7687" gradientTransform="matrix(1 0 0 -1 0 -476.1098)">
	<stop  offset="0" style="stop-color:#072146;stop-opacity:0.8"/>
	<stop  offset="1" style="stop-color:#072146;stop-opacity:0"/>
</linearGradient>
<path class="st2" d="M362.3,139.7L200.8,443.5c83.9,44.6,188.1,12.7,232.7-71.1S446.2,184.3,362.3,139.7z"/>
<path class="st3" d="M490.6,415.5c0,35.9-29.1,65-65,65s-65-29.1-65-65s29.1-65,65-65l0,0C461.5,350.5,490.6,379.6,490.6,415.5
	L490.6,415.5L490.6,415.5"/>
<linearGradient id="SVGID_3_" gradientUnits="userSpaceOnUse" x1="371.7292" y1="-360.9713" x2="425.5592" y2="-389.5812" gradientTransform="matrix(1 0 0 -1 0 25.8902)">
	<stop  offset="0" style="stop-color:#FADE8E"/>
	<stop  offset="1" style="stop-color:#FADE8E;stop-opacity:0.4"/>
</linearGradient>
<path class="st4" d="M456.2,358.2c-31.7-16.8-71-4.8-87.8,26.8s-4.8,71,26.8,87.8L456.2,358.2z"/>
<rect y="0" class="st5" width="600" height="600"/>
<path class="st6" d="M230.5,259.6h19.1v-19.1h-19.1V259.6z M205,367.9h70v-70h-70V367.9z M217.7,310.6h44.6v44.6h-44.5L217.7,310.6z
	 M230.5,342.4h19.1v-19.1h-19.1V342.4z M300.5,297.8h-12.7v12.7h12.7L300.5,297.8z M287.7,215.1v70h70v-70H287.7z M345,272.4h-44.5
	v-44.6h44.6L345,272.4z M357.8,297.8h-44.5v12.7h44.6L357.8,297.8z M205,285.1h70v-70h-70V285.1z M217.7,227.8h44.6v44.6h-44.5
	L217.7,227.8z M332.3,240.5h-19.1v19.1h19.1V240.5z M345.1,367.9h12.7v-44.6h-12.7L345.1,367.9z M313.2,342.4h19.1v-19.1h-19.1
	V342.4z M300.5,323.3h-12.7v44.6h44.6v-12.7h-31.8L300.5,323.3z"/>
<path class="st7" d="M433.3,428.4c0-4.2-1.7-6-9.7-9.6c-11.6-5.3-15.1-9.3-15.1-17.4s6.5-13.8,13.1-15.5v-9.8h0.4l9.5,4.2v5.4
	c3,0.4,5.9,1.4,8.5,3l0.5,0.3l0.3,0.2l-0.1,0.4l-0.1,0.6l-1.2,7.5l-0.2,1.4l-0.1,0.9l-0.8-0.6l-1.1-0.9c-3.1-2.4-6.8-3.7-10.8-3.8
	c-5,0-7.7,2.3-7.7,6c0,3.5,1.8,5.2,9.7,8.8c11.7,5.3,15.4,9.5,15.4,18.3c-0.1,7.5-5.1,14-12.2,16.1v11.4h-0.8l-9.1-5.1v-5.6
	c-3.3-0.4-9.2-1.6-13-3.6l-0.6-0.3l-0.4-0.2v-0.4l0.1-0.6l1.1-7.7l0.2-1.3l0.1-0.9l0.7,0.5l1.1,0.7c4,2.8,8.8,4.4,13.7,4.6
	c5.2,0,8.4-2.7,8.4-7"/>
</svg>
