<svg id="Capa_1" data-name="Capa 1" xmlns="http://www.w3.org/2000/svg" xmlns:xlink="http://www.w3.org/1999/xlink" viewBox="0 0 600 600"><defs><style>.cls-1{fill:url(#Degradado_sin_nombre_8);}.cls-2{fill:#0a62a7;}.cls-3{fill:url(#Degradado_sin_nombre_7);}.cls-4{fill:#2dcccd;}.cls-5{fill:url(#Degradado_sin_nombre_157);}.cls-6{font-size:113.69px;fill:#fff;font-family:BentonSansBBVA-Medium, Benton Sans BBVA;}.cls-7{letter-spacing:-0.03em;}.cls-8{fill:none;}</style><linearGradient id="Degradado_sin_nombre_8" x1="225.37" y1="128.82" x2="453.76" y2="558.36" gradientUnits="userSpaceOnUse"><stop offset="0" stop-color="#182548" stop-opacity="0.5"/><stop offset="1" stop-color="#182548" stop-opacity="0"/></linearGradient><linearGradient id="Degradado_sin_nombre_7" x1="446.49" y1="295.5" x2="223.46" y2="295.5" gradientTransform="matrix(1, 0, 0, -1, 0, 602)" gradientUnits="userSpaceOnUse"><stop offset="0" stop-color="#003165" stop-opacity="0.8"/><stop offset="1" stop-color="#003165" stop-opacity="0.1"/></linearGradient><linearGradient id="Degradado_sin_nombre_157" x1="197.79" y1="354.42" x2="297.38" y2="301.47" gradientTransform="matrix(1, 0, 0, -1, 0, 602)" gradientUnits="userSpaceOnUse"><stop offset="0.01" stop-color="#eaf9fa" stop-opacity="0.5"/><stop offset="1" stop-color="#eaf9fa" stop-opacity="0.1"/><stop offset="1" stop-color="#e8f7f8" stop-opacity="0.2"/></linearGradient></defs><title>pedido</title><path class="cls-1" d="M492.39,409.18a1.21,1.21,0,0,1,.05-.18c.2-.71.4-1.43.57-2.15,0-.1.05-.21.08-.31.16-.68.31-1.36.44-2.05,0-.15.06-.3.08-.45.12-.64.23-1.29.32-1.93l.09-.6q.12-.9.21-1.8c0-.26,0-.51.07-.77,0-.55.08-1.1.11-1.65,0-.31,0-.62,0-.94,0-.49,0-1,0-1.48s0-.75,0-1.13,0-.87,0-1.31-.05-.87-.08-1.31l-.09-1.13c-.05-.5-.1-1-.16-1.5,0-.31-.08-.63-.13-.94-.07-.56-.16-1.12-.26-1.68,0-.26-.09-.52-.14-.77-.12-.62-.25-1.23-.39-1.85-.05-.2-.09-.4-.14-.6-.16-.67-.34-1.33-.52-2,0-.15-.09-.31-.14-.47-.21-.7-.43-1.39-.67-2.09l-.12-.36q-.37-1.08-.81-2.16a.87.87,0,0,0-.07-.17,2.44,2.44,0,0,0-.1-.24c-.1-.27-.2-.53-.31-.8a51.37,51.37,0,0,1-.08-40.36c.11-.27.21-.53.31-.79l.11-.26.06-.17c.29-.72.55-1.44.8-2.16l.12-.36c.24-.7.46-1.4.66-2.11.05-.15.09-.3.13-.44.19-.68.36-1.35.52-2,.05-.19.09-.38.13-.57q.21-.94.39-1.89c0-.24.09-.48.13-.72q.15-.87.27-1.74c0-.29.07-.58.1-.87.07-.53.12-1.05.17-1.58,0-.35.05-.69.08-1s.05-.94.07-1.41,0-.8,0-1.2,0-.83,0-1.24l0-1.36c0-.36,0-.71,0-1.07s-.07-1-.11-1.51c0-.3-.05-.61-.09-.91,0-.55-.12-1.1-.2-1.65,0-.25-.07-.5-.1-.75-.09-.59-.2-1.18-.31-1.77,0-.21-.07-.41-.11-.62-.13-.63-.27-1.25-.42-1.87l-.12-.49c-.16-.66-.34-1.31-.53-2l-.11-.38c-.2-.68-.42-1.36-.66-2l-.09-.27c-.25-.71-.51-1.41-.79-2.1,0-.06,0-.12-.07-.17-.29-.73-.6-1.44-.93-2.15l0-.08a51.22,51.22,0,0,0-27.64-26.24,51.5,51.5,0,0,1-28.62-28.49c-.14-.34-.28-.68-.43-1a51.48,51.48,0,0,0-67.62-27,51.44,51.44,0,0,1-40.4.09l-1-.41a51.49,51.49,0,0,0-66.92,28.71,51.56,51.56,0,0,1-28.48,28.63l-1,.42a51.49,51.49,0,0,0-27,67.62,51.48,51.48,0,0,1,.08,40.4l-.42,1a51.5,51.5,0,0,0,28.72,66.91,51.47,51.47,0,0,1,28.63,28.48c.14.34.28.68.43,1a51.14,51.14,0,0,0,14.06,19c.36.31.73.62,1.1.91l.64.5c.44.34.87.67,1.32,1l.42.3a51.48,51.48,0,0,0,50.09,5.33,51.48,51.48,0,0,1,40.4-.08,51.48,51.48,0,0,0,67.5-27.3l.42-1a51.5,51.5,0,0,1,28.48-28.63,51.36,51.36,0,0,0,29.35-30.95l0-.06C491.93,410.68,492.16,409.94,492.39,409.18Z"/><path class="cls-2" d="M276.84,155.64h0a51.44,51.44,0,0,0,40.4-.09h0a51.48,51.48,0,0,1,67.62,27c.15.34.29.68.43,1h0a51.5,51.5,0,0,0,28.62,28.49h0A51.48,51.48,0,0,1,442.64,279l-.42,1h0a51.48,51.48,0,0,0,.08,40.4h0a51.49,51.49,0,0,1-27,67.62c-.33.15-.67.29-1,.42h0A51.47,51.47,0,0,0,385.81,417h0a51.5,51.5,0,0,1-66.91,28.72l-1-.42h0a51.52,51.52,0,0,0-40.4.09h0a51.48,51.48,0,0,1-67.62-27c-.15-.34-.29-.68-.43-1h0a51.47,51.47,0,0,0-28.63-28.48h0A51.5,51.5,0,0,1,152.09,322l.42-1h0a51.48,51.48,0,0,0-.08-40.4h0a51.49,51.49,0,0,1,27-67.62l1-.42h0a51.56,51.56,0,0,0,28.48-28.63h0a51.49,51.49,0,0,1,66.92-28.71Z"/><path class="cls-3" d="M442.3,320.41h0a51.48,51.48,0,0,1-.08-40.4h0a51.5,51.5,0,0,0-27.3-67.51l-1-.41a51.51,51.51,0,0,1-28.62-28.48,51.47,51.47,0,0,0-14.74-20.24L223.46,437a51.5,51.5,0,0,0,54,8.42h0a51.48,51.48,0,0,1,40.4-.08h0a51.48,51.48,0,0,0,67.5-27.3l.42-1a51.5,51.5,0,0,1,28.48-28.63h0a51.47,51.47,0,0,0,28.41-67C442.58,321.07,442.44,320.74,442.3,320.41Z"/><circle class="cls-4" cx="297.35" cy="300.5" r="112.73"/><path class="cls-5" d="M297.35,187.77a112.76,112.76,0,0,0-53.57,212L350.31,201A112.2,112.2,0,0,0,297.35,187.77Z"/><text class="cls-6" transform="translate(219.54 339.61)">Q<tspan class="cls-7" x="86.86" y="0">F</tspan></text><rect class="cls-8" width="600" height="600"/></svg>