<svg id="Capa_1" data-name="Capa 1" xmlns="http://www.w3.org/2000/svg" xmlns:xlink="http://www.w3.org/1999/xlink" viewBox="0 0 600 600"><defs><style>.cls-1{fill:url(#Degradado_sin_nombre_16);}.cls-2{fill:#0065aa;}.cls-3{fill:#00a7ec;}.cls-4{fill-rule:evenodd;opacity:0.5;fill:url(#Degradado_sin_nombre_22);}.cls-5{fill:#e6fafa;}.cls-6{fill:#ffcc28;}</style><linearGradient id="Degradado_sin_nombre_16" x1="239.4" y1="144.59" x2="452.18" y2="544.76" gradientUnits="userSpaceOnUse"><stop offset="0" stop-color="#192647"/><stop offset="0" stop-color="#192647" stop-opacity="0.5"/><stop offset="1" stop-color="#192647" stop-opacity="0"/></linearGradient><linearGradient id="Degradado_sin_nombre_22" x1="211.43" y1="208.32" x2="365.53" y2="362.41" gradientUnits="userSpaceOnUse"><stop offset="0" stop-color="#fff" stop-opacity="0.5"/><stop offset="1" stop-color="#fff" stop-opacity="0.1"/></linearGradient></defs><title>_</title><rect class="cls-1" x="230.58" y="140.4" width="230.42" height="408.56" rx="22.27"/><rect class="cls-2" x="181" y="90" width="229.71" height="405.48" rx="22.97"/><rect class="cls-3" x="181" y="140.94" width="229.71" height="303.61"/><polygon class="cls-4" points="181 140.94 181 444.55 297.72 444.55 410.71 235.92 410.71 140.94 181 140.94"/><rect class="cls-5" x="267.25" y="313.17" width="8.17" height="8.17" rx="0.91"/><path class="cls-5" d="M317.31,313.17a1,1,0,0,1-1-1v-14.3a1,1,0,0,0-1-1H301a1,1,0,0,0-1,1V304a1,1,0,0,0,1,1h6.13a1,1,0,0,1,1,1v6.13a1,1,0,0,1-1,1H301a1,1,0,0,0-1,1v14.3a1,1,0,0,0,1,1h6.13a1,1,0,0,0,1-1v-6.12a1,1,0,0,1,1-1h14.3a1,1,0,0,0,1-1v-6.13a1,1,0,0,0-1-1Z"/><rect class="cls-5" x="324.45" y="296.83" width="8.17" height="16.34" rx="1.02"/><path class="cls-5" d="M332.63,314.19v6.13a1,1,0,0,1-1,1h-6.12a1,1,0,0,0-1,1v14.29a1,1,0,0,0,1,1h6.12a1,1,0,0,0,1-1v-6.12a1,1,0,0,1,1-1h6.12a1,1,0,0,0,1-1v-14.3a1,1,0,0,0-1-1h-6.12A1,1,0,0,0,332.63,314.19Z"/><rect class="cls-5" x="308.11" y="329.51" width="8.17" height="8.17" rx="1.02"/><path class="cls-5" d="M250.91,297.85v38.81a1,1,0,0,0,1,1h38.81a1,1,0,0,0,1-1V297.85a1,1,0,0,0-1-1H251.93A1,1,0,0,0,250.91,297.85Zm31.66,31.66H260.11a1,1,0,0,1-1-1V306a1,1,0,0,1,1-1h22.46a1,1,0,0,1,1,1v22.47A1,1,0,0,1,282.57,329.51Z"/><rect class="cls-5" x="316.28" y="264.14" width="8.17" height="8.17" rx="0.91"/><path class="cls-5" d="M299.94,248.82v38.81a1,1,0,0,0,1,1h38.81a1,1,0,0,0,1-1V248.82a1,1,0,0,0-1-1H301A1,1,0,0,0,299.94,248.82Zm31.66,31.67H309.13a1,1,0,0,1-1-1V257a1,1,0,0,1,1-1H331.6a1,1,0,0,1,1,1v22.47A1,1,0,0,1,331.6,280.49Z"/><rect class="cls-5" x="267.25" y="264.14" width="8.17" height="8.17" rx="0.91"/><path class="cls-5" d="M250.91,248.82v38.81a1,1,0,0,0,1,1h38.81a1,1,0,0,0,1-1V248.82a1,1,0,0,0-1-1H251.93A1,1,0,0,0,250.91,248.82Zm31.66,31.67H260.11a1,1,0,0,1-1-1V257a1,1,0,0,1,1-1h22.46a1,1,0,0,1,1,1v22.47A1,1,0,0,1,282.57,280.49Z"/><polygon class="cls-6" points="235.93 256.75 225.94 256.75 225.94 218.88 263.82 218.88 263.82 228.86 235.93 228.86 235.93 256.75"/><polygon class="cls-6" points="327.89 228.86 327.89 218.88 365.76 218.88 365.76 256.75 355.78 256.75 355.78 228.86 327.89 228.86"/><polygon class="cls-6" points="355.78 328.74 365.76 328.74 365.76 366.61 327.89 366.61 327.89 356.62 355.78 356.62 355.78 328.74"/><polygon class="cls-6" points="263.82 356.62 263.82 366.61 225.94 366.61 225.94 328.74 235.93 328.74 235.93 356.62 263.82 356.62"/></svg>