<svg xmlns="http://www.w3.org/2000/svg" xmlns:xlink="http://www.w3.org/1999/xlink" viewBox="0 0 600 600"><defs><style>.cls-1{fill:none;}.cls-2{fill:url(#Degradado_sin_nombre_80);}.cls-3{fill:#043263;}.cls-4{fill:#49a5e6;}.cls-5{opacity:0.5;isolation:isolate;fill:url(#Degradado_sin_nombre_16);}.cls-6{fill:#e6fafa;}.cls-7{fill:#ffcc28;}</style><linearGradient id="Degradado_sin_nombre_80" x1="247.58" y1="5139.91" x2="460.72" y2="4739.04" gradientTransform="matrix(1, 0, 0, -1, 0, 5292)" gradientUnits="userSpaceOnUse"><stop offset="0" stop-color="#192647" stop-opacity="0.5"/><stop offset="1" stop-color="#192647" stop-opacity="0"/></linearGradient><linearGradient id="Degradado_sin_nombre_16" x1="215.96" y1="5076.24" x2="370.22" y2="4921.98" gradientTransform="matrix(1, 0, 0, -1, 0, 5292)" gradientUnits="userSpaceOnUse"><stop offset="0" stop-color="#fff" stop-opacity="0.5"/><stop offset="1" stop-color="#ecf7f8" stop-opacity="0.1"/></linearGradient></defs><title>6</title><g id="Cuadrados_Blancos" data-name="Cuadrados Blancos"><rect class="cls-1" width="600" height="600"/></g><g id="Capa_12" data-name="Capa 12"><path class="cls-2" d="M261.1,147.85H447.2a22.32,22.32,0,0,1,22.3,22.31V534.89a22.32,22.32,0,0,1-22.3,22.31H261.1a22.32,22.32,0,0,1-22.3-22.31V170.16A22.32,22.32,0,0,1,261.1,147.85Z"/><path class="cls-3" d="M207.5,96.85H392.4A22.13,22.13,0,0,1,414.5,119v362a22.12,22.12,0,0,1-22.1,22.1H207.5a22.12,22.12,0,0,1-22.1-22.1v-362a22.13,22.13,0,0,1,22.06-22.2Z"/><rect class="cls-4" x="185.4" y="147.85" width="229.2" height="304.3"/><polygon class="cls-5" points="185.7 148.05 185.7 451.95 302.5 452.15 414.5 245.15 414.5 147.85 185.7 148.05"/><rect class="cls-6" x="271.4" y="320.17" width="8.17" height="8.17" rx="0.91"/><path class="cls-6" d="M321.46,320.17a1,1,0,0,1-1-1v-14.3a1,1,0,0,0-1-1H305.15a1,1,0,0,0-1,1V311a1,1,0,0,0,1,1h6.13a1,1,0,0,1,1,1v6.13a1,1,0,0,1-1,1h-6.13a1,1,0,0,0-1,1v14.3a1,1,0,0,0,1,1h6.13a1,1,0,0,0,1-1v-6.12a1,1,0,0,1,1-1h14.3a1,1,0,0,0,1-1v-6.13a1,1,0,0,0-1-1Z"/><rect class="cls-6" x="328.6" y="303.83" width="8.17" height="16.34" rx="1.02"/><path class="cls-6" d="M336.78,321.19v6.13a1,1,0,0,1-1,1h-6.12a1,1,0,0,0-1,1v14.29a1,1,0,0,0,1,1h6.12a1,1,0,0,0,1-1v-6.12a1,1,0,0,1,1-1h6.12a1,1,0,0,0,1-1v-14.3a1,1,0,0,0-1-1h-6.12A1,1,0,0,0,336.78,321.19Z"/><rect class="cls-6" x="312.26" y="336.51" width="8.17" height="8.17" rx="1.02"/><path class="cls-6" d="M255.06,304.85v38.81a1,1,0,0,0,1,1h38.81a1,1,0,0,0,1-1V304.85a1,1,0,0,0-1-1H256.08a1,1,0,0,0-1,1Zm31.66,31.66H264.26a1,1,0,0,1-1-1V313a1,1,0,0,1,1-1h22.46a1,1,0,0,1,1,1v22.47a1,1,0,0,1-1,1Z"/><rect class="cls-6" x="320.43" y="271.14" width="8.17" height="8.17" rx="0.91"/><path class="cls-6" d="M304.09,255.82v38.81a1,1,0,0,0,1,1H343.9a1,1,0,0,0,1-1V255.82a1,1,0,0,0-1-1H305.15a1,1,0,0,0-1.06.94Zm31.66,31.67H313.28a1,1,0,0,1-1-1V264a1,1,0,0,1,1-1h22.47a1,1,0,0,1,1,1v22.47a1,1,0,0,1-1,1Z"/><rect class="cls-6" x="271.4" y="271.14" width="8.17" height="8.17" rx="0.91"/><path class="cls-6" d="M255.06,255.82v38.81a1,1,0,0,0,1,1h38.81a1,1,0,0,0,1-1V255.82a1,1,0,0,0-1-1H256.08a1,1,0,0,0-1,1Zm31.66,31.67H264.26a1,1,0,0,1-1-1V264a1,1,0,0,1,1-1h22.46a1,1,0,0,1,1,1v22.47a1,1,0,0,1-1,1Z"/><polygon class="cls-7" points="240.08 263.75 230.09 263.75 230.09 225.88 267.97 225.88 267.97 235.86 240.08 235.86 240.08 263.75"/><polygon class="cls-7" points="332.04 235.86 332.04 225.88 369.91 225.88 369.91 263.75 359.93 263.75 359.93 235.86 332.04 235.86"/><polygon class="cls-7" points="359.93 335.74 369.91 335.74 369.91 373.61 332.04 373.61 332.04 363.62 359.93 363.62 359.93 335.74"/><polygon class="cls-7" points="267.97 363.62 267.97 373.61 230.09 373.61 230.09 335.74 240.08 335.74 240.08 363.62 267.97 363.62"/></g></svg>