<svg id="Contenido" xmlns="http://www.w3.org/2000/svg" xmlns:xlink="http://www.w3.org/1999/xlink" viewBox="0 0 600 600"><defs><style>.cls-1{fill:url(#Degradado_sin_nombre_23);}.cls-2{fill:#043263;}.cls-3{fill:#2dcccd;}.cls-4{fill:#1464a5;}.cls-5{fill:url(#Degradado_sin_nombre_93);}.cls-6{fill:#d4edfc;}.cls-7{fill:url(#Degradado_sin_nombre_15);}</style><linearGradient id="Degradado_sin_nombre_23" x1="213" y1="127.97" x2="428.53" y2="533.33" gradientUnits="userSpaceOnUse"><stop offset="0" stop-color="#192647"/><stop offset="0" stop-color="#192647" stop-opacity="0.5"/><stop offset="1" stop-color="#192647" stop-opacity="0"/></linearGradient><linearGradient id="Degradado_sin_nombre_93" x1="419.93" y1="372.8" x2="220.79" y2="372.8" gradientUnits="userSpaceOnUse"><stop offset="0" stop-color="#043263" stop-opacity="0.4"/><stop offset="1" stop-color="#043263" stop-opacity="0.1"/></linearGradient><linearGradient id="Degradado_sin_nombre_15" x1="385.06" y1="417.25" x2="301" y2="417.25" gradientUnits="userSpaceOnUse"><stop offset="0" stop-color="#043263" stop-opacity="0.2"/><stop offset="1" stop-color="#043263" stop-opacity="0"/></linearGradient></defs><title>values-day</title><path class="cls-1" d="M531,478c-19.1-9.1-39.79-15.93-63.32-20.74A106.59,106.59,0,0,0,469.44,425c-.3-3.07-.72-6.15-1.29-9.25l-15.79-65.58c-.27-1.5-.58-3-.91-4.45,0-.15-.06-.3-.1-.45-.32-1.38-.67-2.76-1-4.12l-.18-.68c-.37-1.31-.76-2.61-1.17-3.89-.09-.27-.17-.54-.26-.8-.41-1.26-.85-2.5-1.31-3.73-.1-.29-.21-.57-.32-.86q-.69-1.81-1.44-3.6c-.12-.29-.25-.57-.37-.85-.48-1.12-1-2.22-1.49-3.31l-.48-1c-.47-1-1-1.93-1.45-2.88l-.63-1.19c-.51-.94-1-1.87-1.57-2.79-.25-.43-.49-.86-.75-1.28-.54-.91-1.09-1.8-1.66-2.68-.31-.49-.62-1-.94-1.46-.54-.82-1.1-1.63-1.66-2.44-.37-.53-.75-1-1.13-1.58s-.83-1.12-1.26-1.68c-.57-.74-1.14-1.49-1.73-2.22l-.9-1.1c-.75-.91-1.51-1.81-2.29-2.69l-.71-.81c-.55-.61-1.1-1.23-1.67-1.83l5.8-98.86a36.26,36.26,0,0,0,4.19.25h0a35.77,35.77,0,0,0,35.77-35.77v-8.34a27.43,27.43,0,0,0-27.42-27.43H381.19a17.8,17.8,0,0,0-17.8,17.8V263.18a108.71,108.71,0,0,0-16.92-1.35h0a108.61,108.61,0,0,0-16.92,1.35V143.45a17.8,17.8,0,0,0-17.8-17.8H249.66a27.43,27.43,0,0,0-27.42,27.43v8.34A35.76,35.76,0,0,0,258,197.19h0a36.09,36.09,0,0,0,4.18-.25L268,295.8a107.41,107.41,0,0,0-27.43,54.36l-15.78,65.58a107.16,107.16,0,0,0,.52,41.52A272.23,272.23,0,0,0,162,478a2.7,2.7,0,1,0,2.33,4.88c18.74-8.93,39.09-15.63,62.25-20.35a107.16,107.16,0,0,0,7.35,19.71c-21,8.57-40.2,20.23-59.75,34a2.7,2.7,0,0,0,1.56,4.91,2.74,2.74,0,0,0,1.56-.49c19.36-13.69,38.32-25.22,59.15-33.64a108.56,108.56,0,0,0,34.36,37.45h0c2.1,1.41,4.27,2.75,6.48,4l.15.09c1.06.6,2.13,1.19,3.22,1.76l.12.07q3.35,1.75,6.82,3.27l.34.15c1.05.45,2.1.89,3.16,1.31l.37.15c2.31.9,4.66,1.73,7.05,2.47l.61.19q1.49.45,3,.87l.67.18q3.54.94,7.2,1.66l.88.16c.94.17,1.89.34,2.84.49l.93.14c2.42.36,4.88.64,7.36.84l1.06.07c.92.07,1.85.12,2.78.16l1.09,0c1.25,0,2.5.07,3.76.07h31.58A107.7,107.7,0,0,0,398,536.64c1.85-.66,3.69-1.36,5.49-2.11a103.6,103.6,0,0,0,10.51-5c.85-.46,1.69-.94,2.52-1.43a106.34,106.34,0,0,0,14.17-9.91q3.33-2.75,6.42-5.74,2.06-2,4-4.1c1.3-1.4,2.56-2.84,3.79-4.3s2.4-3,3.55-4.5c.57-.77,1.13-1.54,1.69-2.32,1.1-1.56,2.17-3.15,3.19-4.77.51-.81,1-1.62,1.5-2.44s1.11-1.93,1.65-2.9c20.84,8.42,39.8,19.95,59.16,33.64a2.71,2.71,0,0,0,3.12-4.42c-19.55-13.82-38.71-25.48-59.75-34a107.16,107.16,0,0,0,7.35-19.71c23.16,4.72,43.51,11.42,62.25,20.35a2.66,2.66,0,0,0,1.16.27A2.71,2.71,0,0,0,531,478Z"/><path class="cls-2" d="M261.75,85.65H208l11.92,203.08h59.62V103.45A17.8,17.8,0,0,0,261.75,85.65Z"/><path class="cls-3" d="M246.08,108.75h0a21.54,21.54,0,0,1,21.54,21.54V288.73H231.85l-7.3-157.44A21.54,21.54,0,0,1,246.08,108.75Z"/><path class="cls-4" d="M243.78,85.65H199.66a27.43,27.43,0,0,0-27.42,27.43v8.34A35.76,35.76,0,0,0,208,157.19h0a35.77,35.77,0,0,0,35.77-35.77V103.54a17.88,17.88,0,0,1,17.88-17.89Z"/><path class="cls-2" d="M331.19,85.65h53.74L373,288.73H313.39V103.45A17.8,17.8,0,0,1,331.19,85.65Z"/><path class="cls-3" d="M346.86,108.75h0a21.54,21.54,0,0,0-21.55,21.54V288.73h35.77l7.3-157.44A21.54,21.54,0,0,0,346.86,108.75Z"/><path class="cls-4" d="M349.16,85.65h44.12a27.43,27.43,0,0,1,27.42,27.43v8.34a35.77,35.77,0,0,1-35.77,35.77h0a35.77,35.77,0,0,1-35.77-35.77V103.54a17.89,17.89,0,0,0-17.88-17.89Z"/><path class="cls-4" d="M312.26,502.69H280.68c-67.18,0-117.94-60.86-105.89-126.95l15.78-65.58a107.64,107.64,0,0,1,105.9-88.33h0a107.63,107.63,0,0,1,105.89,88.33l15.79,65.58C430.2,441.83,379.44,502.69,312.26,502.69Z"/><path class="cls-5" d="M418.15,375.74l-15.79-65.58a107.43,107.43,0,0,0-41.94-67.25L220.79,484.52a106.93,106.93,0,0,0,59.89,18.17h31.58C379.44,502.69,430.2,441.83,418.15,375.74Z"/><path class="cls-6" d="M340.25,370.19a47,47,0,0,0-43.78,24.95,47,47,0,1,0-5.57,52.32,7.28,7.28,0,0,1,11.14,0,47,47,0,1,0,38.21-77.27Z"/><path class="cls-2" d="M332.16,376.73c0-4.86-16-8.8-35.69-8.8s-35.69,3.94-35.69,8.8c0,0,0,.07,0,.11a2.32,2.32,0,0,0,.66,1.81c10.6,9.79,25.5,22.63,32.23,28.4a4.29,4.29,0,0,0,2.79,1,4.25,4.25,0,0,0,2.78-1c6.74-5.77,21.64-18.61,32.23-28.4a2.33,2.33,0,0,0,.67-1.81S332.16,376.76,332.16,376.73Z"/><path class="cls-2" d="M113.15,443.15A2.71,2.71,0,0,1,112,438c39.83-19,86.55-28.09,151.49-29.55a2.7,2.7,0,1,1,.13,5.4c-64.15,1.45-110.19,10.4-149.29,29A2.69,2.69,0,0,1,113.15,443.15Z"/><path class="cls-2" d="M125.72,481.2a2.7,2.7,0,0,1-1.56-4.91c40.91-28.92,80.12-48.45,138.45-49.77a2.71,2.71,0,1,1,.13,5.41c-57,1.28-95.35,20.43-135.46,48.78A2.74,2.74,0,0,1,125.72,481.2Z"/><path class="cls-2" d="M479.79,443.15a2.66,2.66,0,0,1-1.16-.27c-39.1-18.63-85.14-27.58-149.29-29a2.7,2.7,0,0,1,.12-5.4C394.41,409.91,441.13,419,481,438a2.71,2.71,0,0,1-1.16,5.15Z"/><path class="cls-2" d="M467.22,481.2a2.72,2.72,0,0,1-1.56-.49c-40.11-28.35-78.49-47.5-135.46-48.78a2.71,2.71,0,0,1,.12-5.41c58.34,1.32,97.54,20.85,138.46,49.77a2.7,2.7,0,0,1-1.56,4.91Z"/><path class="cls-7" d="M385,415.34a47.22,47.22,0,0,0-43.52-45.06L301,446.46a8.17,8.17,0,0,1,1,1,47,47,0,0,0,83-32.12Z"/><path class="cls-2" d="M250.92,348.92a31.63,31.63,0,0,1,16.41,4.39,2.18,2.18,0,0,0,3.29-2.37,20.39,20.39,0,0,0-39.39,0,2.18,2.18,0,0,0,3.29,2.37A31.62,31.62,0,0,1,250.92,348.92Z"/><path class="cls-2" d="M342,348.92a31.63,31.63,0,0,1,16.41,4.39,2.18,2.18,0,0,0,3.29-2.37,20.39,20.39,0,0,0-39.39,0,2.18,2.18,0,0,0,3.29,2.37A31.62,31.62,0,0,1,342,348.92Z"/></svg>