<svg id="Contenido" xmlns="http://www.w3.org/2000/svg" xmlns:xlink="http://www.w3.org/1999/xlink" viewBox="0 0 600 600"><defs><style>.cls-1{fill:url(#Degradado_sin_nombre_16);}.cls-2{fill:#d4edfc;}.cls-3{fill:#043263;}.cls-4{fill:#2dcccd;}.cls-5{fill:#49a5e6;}.cls-6{fill:url(#Degradado_sin_nombre_35);}.cls-7{fill:#1464a5;}</style><linearGradient id="Degradado_sin_nombre_16" x1="258.99" y1="162.43" x2="422.28" y2="469.54" gradientUnits="userSpaceOnUse"><stop offset="0" stop-color="#1c2645"/><stop offset="0" stop-color="#1c2645" stop-opacity="0.5"/><stop offset="1" stop-color="#1c2645" stop-opacity="0"/></linearGradient><linearGradient id="Degradado_sin_nombre_35" x1="484.52" y1="269.96" x2="268.48" y2="269.96" gradientUnits="userSpaceOnUse"><stop offset="0.01" stop-color="#043263" stop-opacity="0.3"/><stop offset="1" stop-color="#043263" stop-opacity="0.1"/></linearGradient></defs><title>values-day</title><path class="cls-1" d="M537.87,348.22l-5.58-10.86a251.52,251.52,0,0,0-46.88-63.92,199.54,199.54,0,0,0,20.67-60,17.43,17.43,0,0,0-21.71-19.93,370.56,370.56,0,0,0-83.06,33.2,156.55,156.55,0,0,0-30.71-3.05H324.73a155.5,155.5,0,0,0-31,3.11,370.35,370.35,0,0,0-83.16-33.26,17.43,17.43,0,0,0-21.71,19.93,199.58,199.58,0,0,0,20.8,60.24A252.43,252.43,0,0,0,189,296.89v0a250.79,250.79,0,0,0-25.94,40.44l-5.59,10.86a49.24,49.24,0,0,0,13.87,61.6l8.07,6.17q9.18,7,19,13.13l.2.13c1.34.84,2.7,1.66,4.06,2.48h0q6.21,3.72,12.62,7.05l.09,0c1.42.74,2.85,1.46,4.28,2.18h0a246.73,246.73,0,0,0,35.95,14.41h0c5.33,1.66,10.72,3.16,16.16,4.46l12.06,2.88a275.28,275.28,0,0,0,127.64,0l12.06-2.88q8.19-2,16.19-4.47h0l.83-.27,3.05-1,2.43-.82,2.88-1q2.35-.84,4.7-1.72l2.58-1,2.78-1.1,2.54-1,3-1.28,2.22-1q2.43-1.1,4.83-2.22l1.9-.92c1.12-.54,2.23-1.08,3.34-1.64l2-1c1.17-.59,2.32-1.2,3.48-1.82l1.62-.86q2.46-1.35,4.91-2.74l1.22-.72q1.94-1.12,3.85-2.28l1.55-.95q1.92-1.19,3.83-2.41l1.13-.72q2.47-1.6,4.92-3.28l.6-.41c1-.7,2-1.41,3-2.12l.47-.36q3.27-2.33,6.48-4.77l8.06-6.17q1.86-1.43,3.55-3l.23-.18.82-.79-.09,0A49.24,49.24,0,0,0,537.87,348.22Z"/><path class="cls-2" d="M493,302.05l-5.58-10.87c-14.94-29.07-35.4-53-60.23-74.2h0A156,156,0,0,0,325.7,179.5H279.86A156,156,0,0,0,178.4,217h0c-24.83,21.25-45.29,45.13-60.22,74.2l-5.59,10.87c-10.88,21.18-5,48.12,13.87,62.6l8.07,6.17a245.81,245.81,0,0,0,92.37,43.9L239,417.59a275.28,275.28,0,0,0,127.64,0l12.06-2.87A245.93,245.93,0,0,0,471,370.82l8.06-6.17C498,350.17,503.85,323.23,493,302.05Z"/><path class="cls-3" d="M173.54,244.12C159.11,222.39,149,197.59,144,169.27a17.43,17.43,0,0,1,21.71-19.92q52.45,14.18,95.15,40.22Z"/><path class="cls-4" d="M192.19,245.39c-14.08-18.49-25.93-39.1-31.2-62.81a5.82,5.82,0,0,1,6.73-7c27.76,5.18,55.55,17.14,82.26,33.14Z"/><path class="cls-3" d="M431.61,244.12c14.43-21.73,24.49-46.53,29.57-74.85a17.43,17.43,0,0,0-21.71-19.92Q387,163.53,344.32,189.57Z"/><path class="cls-4" d="M413,245.39c14.09-18.49,25.94-39.1,31.21-62.81a5.83,5.83,0,0,0-6.74-7c-27.75,5.18-55.54,17.14-82.26,33.14Z"/><path class="cls-5" d="M461,252.81v-.1A251.94,251.94,0,0,0,426.79,217,156.09,156.09,0,0,0,325.32,179.5h-45.5A156.07,156.07,0,0,0,178.36,217a252.57,252.57,0,0,0-34.25,35.73s0,.07,0,.1c-8.64,11-16.41,21-23.49,33.83,0,22.84,45.67,3.23,67.49-3.5l31.12-9.59a36.55,36.55,0,0,1,47.41,35.06h0a79.51,79.51,0,0,0,.52,9c.72,13.66,1.82,9.57,5.89,37.28a4.49,4.49,0,0,0,6.15,3.5l.37-.16a60.05,60.05,0,0,1,45.69-.09l.69.28a4.49,4.49,0,0,0,6.13-3.51c4.07-27.73,5.17-23.63,5.88-37.3a77.26,77.26,0,0,0,.52-9h0a36.56,36.56,0,0,1,47.42-35.06L417,283.14c21.82,6.73,67.49,26.34,67.49,3.5C477.43,273.8,469.67,263.79,461,252.81Z"/><path class="cls-6" d="M461,252.81v-.1A251.46,251.46,0,0,0,426.78,217,156,156,0,0,0,348,181.16l-79.54,147.6c.86,4.06,2.22,10.11,4.58,26.14a4.49,4.49,0,0,0,6.15,3.5l.37-.16a60.05,60.05,0,0,1,45.69-.09l.69.28a4.49,4.49,0,0,0,6.13-3.51c4.07-27.73,5.17-23.63,5.88-37.3a77.26,77.26,0,0,0,.52-9h0a36.56,36.56,0,0,1,47.42-35.06L417,283.14c21.82,6.73,67.49,26.34,67.49,3.5C477.43,273.8,469.67,263.79,461,252.81Z"/><path class="cls-3" d="M327.8,370.26h0c2.93,1.1,4.37,5.4,3,8.94h0c-2.65,6.82-6.22,9.51-10.53,13.26a28.22,28.22,0,0,1-8.5,5.07h0a25.37,25.37,0,0,1-18,0h0a28.22,28.22,0,0,1-8.5-5.07c-4.3-3.75-7.87-6.44-10.53-13.26h0c-1.37-3.54.06-7.84,3-8.94h0A71.47,71.47,0,0,1,327.8,370.26Z"/><path class="cls-7" d="M267.21,294.55a37.22,37.22,0,0,0-47.88-4,167.23,167.23,0,0,0-21.31,18l-21.61,21.61c-5.37,5.37-10.45,12-15.26,17.86l-.73.87c-8.87,10.68-28.32,18.06-38.52,11.79l.82.79c4.07,3.28,18.79,14.47,18.79,14.47a245.48,245.48,0,0,0,69.23,34.31l42.48-45.51c6.58-6.59,12.61-15.71,18-23.31C281.75,326.63,280.05,307.4,267.21,294.55Z"/><path class="cls-7" d="M338.39,294.55a37.22,37.22,0,0,1,47.88-4,167.23,167.23,0,0,1,21.31,18l21.61,21.61c5.37,5.37,10.45,12,15.26,17.86l.73.87c8.87,10.68,28.32,18.06,38.52,11.79l-.82.79c-4.07,3.28-18.79,14.47-18.79,14.47a245.48,245.48,0,0,1-69.23,34.31l-42.48-45.51c-6.58-6.59-12.61-15.71-18-23.31C323.85,326.63,325.55,307.4,338.39,294.55Z"/><path class="cls-3" d="M363.89,315.71a38.94,38.94,0,0,1-20.19-5.4,2.69,2.69,0,0,0-4.05,2.92,25.09,25.09,0,0,0,48.48,0,2.7,2.7,0,0,0-4.06-2.92A38.93,38.93,0,0,1,363.89,315.71Z"/><path class="cls-3" d="M241.26,315.71a38.9,38.9,0,0,1-20.18-5.4,2.7,2.7,0,0,0-4.06,2.92,25.09,25.09,0,0,0,48.48,0,2.69,2.69,0,0,0-4.05-2.92A38.94,38.94,0,0,1,241.26,315.71Z"/></svg>