<svg id="Capa_1" data-name="Capa 1" xmlns="http://www.w3.org/2000/svg" xmlns:xlink="http://www.w3.org/1999/xlink" viewBox="0 0 600 600"><defs><style>.cls-1{fill:none;}.cls-2{clip-path:url(#clip-path);}.cls-3{fill:#d4edfc;}.cls-4{fill:url(#Degradado_sin_nombre_42);}.cls-5{fill:#003267;}.cls-6{clip-path:url(#clip-path-2);}.cls-7{fill:#004481;}.cls-8{fill:#043263;}.cls-9{fill:#00d0cf;}.cls-10{fill:url(#Degradado_sin_nombre_58);}.cls-11{fill:#ee8c39;}.cls-12{fill:#ffaf75;}.cls-13{fill:#0065aa;}.cls-14{fill:#ea6b02;opacity:0.48;}.cls-15{fill:#008785;}.cls-16{fill:#cdeefe;}.cls-17{fill:url(#Degradado_sin_nombre_16);}</style><clipPath id="clip-path"><circle class="cls-1" cx="-340.89" cy="294.15" r="200"/></clipPath><linearGradient id="Degradado_sin_nombre_42" x1="225.26" y1="137.45" x2="456.27" y2="571.92" gradientUnits="userSpaceOnUse"><stop offset="0" stop-color="#072146" stop-opacity="0.5"/><stop offset="1" stop-color="#072146" stop-opacity="0"/></linearGradient><clipPath id="clip-path-2"><circle class="cls-1" cx="278.19" cy="292.84" r="200"/></clipPath><linearGradient id="Degradado_sin_nombre_58" x1="471.1" y1="398.68" x2="268.37" y2="398.68" gradientUnits="userSpaceOnUse"><stop offset="0" stop-color="#008785" stop-opacity="0.6"/><stop offset="1" stop-color="#008785" stop-opacity="0"/></linearGradient><linearGradient id="Degradado_sin_nombre_16" x1="-9323.73" y1="-1405.54" x2="-9198.6" y2="-1405.54" gradientTransform="translate(-8809.76 -966.17) rotate(180)" gradientUnits="userSpaceOnUse"><stop offset="0" stop-color="#003267" stop-opacity="0.15"/><stop offset="1" stop-color="#003267" stop-opacity="0"/></linearGradient></defs><g class="cls-2"><ellipse class="cls-3" cx="-342.52" cy="639.7" rx="402.09" ry="271.94"/></g><path class="cls-4" d="M560.19,465.47c0-1.3,0-2.59-.09-3.88l-.06-1c-.06-1.11-.14-2.21-.25-3.3,0-.2,0-.4,0-.59-.13-1.27-.29-2.52-.48-3.76l-.15-1c-.16-1-.34-2-.54-3-.06-.27-.11-.54-.16-.81-.26-1.22-.53-2.43-.84-3.63l-.21-.78c-.26-1-.54-2-.84-2.95l-.27-.89c-.37-1.18-.76-2.35-1.18-3.51l-.19-.48c-.37-1-.77-2-1.19-3-.12-.29-.24-.59-.37-.88-.49-1.13-1-2.26-1.52-3.36h0c-.54-1.11-1.1-2.2-1.69-3.28-.14-.28-.3-.56-.45-.83-.51-.94-1-1.86-1.59-2.78l-.27-.45c-.63-1-1.29-2.06-2-3.07l-.49-.72c-.57-.83-1.16-1.66-1.76-2.47l-.45-.61c-.73-1-1.48-1.93-2.24-2.86-.16-.19-.32-.37-.47-.56-.65-.77-1.32-1.54-2-2.3-.2-.22-.39-.44-.59-.65-.82-.9-1.66-1.78-2.51-2.64L535,405c-.76-.76-1.55-1.5-2.34-2.23l-.69-.64c-.9-.8-1.81-1.6-2.74-2.37l0,0c-.94-.77-1.91-1.52-2.88-2.26l-.76-.56c-.84-.63-1.7-1.23-2.56-1.83l-.47-.32c-1-.67-2-1.33-3.06-2-.25-.16-.51-.31-.77-.46-.85-.51-1.72-1-2.59-1.49l-.72-.4c-.12-.07-.24-.14-.37-.2h0c-.54-.29-1.08-.56-1.62-.83a197.45,197.45,0,0,0,8.37-33.13A200.16,200.16,0,0,0,383,132.66l-1.19-.35a38.34,38.34,0,0,0-5.57-7.93c-10-10.83-22.72-13.06-48.12-17.79-23.79-4.42-35.69-6.64-44.94.37-8,6.1-11.28,16.08-12.57,24.31-84.32,23.5-146.19,100.85-146.19,192.67a201.46,201.46,0,0,0,2,28,198.53,198.53,0,0,0,20.52,64.22l1,1.94q2.35,4.4,4.91,8.65a200.16,200.16,0,0,0,19.87,27.53l.05.05v0a201.1,201.1,0,0,0,32.83,30.5l.62.45a202.49,202.49,0,0,0,18.23,11.93l.37.21,1,.57a1,1,0,0,1,.17.1,199.09,199.09,0,0,0,93.78,25.81c1.55,0,3.1.06,4.65.06a199.33,199.33,0,0,0,77.16-15.44,85.56,85.56,0,0,0,33.5,32.17h0c.92.49,1.85,1,2.79,1.42l.67.32c1.1.52,2.2,1,3.33,1.5l.06,0c1.14.48,2.29.93,3.45,1.36l.71.26q1.71.61,3.45,1.17l.6.18c1.1.34,2.2.65,3.32.94l.44.12c1.2.31,2.4.58,3.61.84l.78.16c1.22.24,2.45.46,3.69.65l.42.06c1.17.18,2.34.32,3.52.45l.67.07c1.24.13,2.5.22,3.76.29l.78,0c1.3.05,2.61.09,3.93.09a84.91,84.91,0,0,0,44.15-12.32c2.34-1.42,4.61-3,6.79-4.59a84.82,84.82,0,0,0,7.06-5.9c.75-.69,1.48-1.4,2.21-2.12a84.89,84.89,0,0,0,24.82-55.83q.12-2.17.12-4.38Z"/><circle class="cls-5" cx="278.19" cy="292.84" r="200"/><g class="cls-6"><path class="cls-7" d="M224.16,308.5c-.26-.36-.54-.72-.84-1.09-.06-.09-.13-.17-.2-.26-.3-.37-.6-.75-.93-1.13l0,0c-.32-.38-.66-.76-1-1.14l-.19-.21q-.54-.6-1.14-1.2h0c-.39-.4-.81-.81-1.23-1.21l-.14-.13c-.89-.83-1.84-1.66-2.84-2.47l-.06-.05c-7.29-5.85-17.8-10.86-32.05-10.93l-6,0H176l-2.38-14.54-.12-.71c.16-.23.33-.46.48-.69a37.29,37.29,0,0,0,5.37-12.09c.17-.85.39-1.7.62-2.55a5.24,5.24,0,0,0,1.14-.83,19,19,0,0,0,5.27-8.08c.95-3.5,1.44-9.77-1.05-10.9a2.36,2.36,0,0,0-1.42-.12c.15-1.1.28-2.19.38-3.24a13.67,13.67,0,0,0,3.07-5.76c.74-3,.26-5.87-1.59-11-2.8-7.72-4.2-11.58-6.91-14.51-4.38-4.74-9.95-5.72-21.07-7.79-10.42-1.94-15.63-2.91-19.68.16-4.45,3.38-5.55,9.49-5.8,13.32a.48.48,0,0,0-.23.11,2.77,2.77,0,0,0-1.19-.45c-3.5-.38-7.23,7.1-8.73,12.33-1,3.5-2.23,7.74-.62,12.17a20.77,20.77,0,0,0,2.12,3.94l0,0a1,1,0,0,0-.29,0,2.85,2.85,0,0,0-1.64,1.44c-2.59,4.26,1.58,13.12,2.27,14.57a9.78,9.78,0,0,0,4.73,4.58,8.27,8.27,0,0,0,1.28.37c.48,1.6,1.06,3.32,1.75,5.13.22.5.46,1,.73,1.61a45.24,45.24,0,0,0,3.36,5.72c.57.83,1.28,1.83,2.12,2.9-.45,5.06-.88,10.24-1.33,15.3-1.17.09-2.77.06-3.09.06-1.7,0-5.81-.13-5.9-.12-21.4.11-33.63,11-39.9,19.46-6.65,9-16.36,26.16-16.36,46.71a1.43,1.43,0,0,1,0-.29,1.43,1.43,0,0,0,0,.29c0,2.32,3.58,4.38,9.1,5.68v18.44a8.93,8.93,0,0,0,10.42,9.05l15.71-2.07V467h97.93V385.18l15.17,3a9.56,9.56,0,0,0,11.44-9.37V360.9c5.52-1.3,9.09-3.36,9.09-5.68C240.94,334.68,230.81,317.51,224.16,308.5Z"/><path class="cls-7" d="M475.8,337.71s0,0,0-.06a2.44,2.44,0,0,0,.1-.24l0-.09a1.6,1.6,0,0,0,.05-.21.19.19,0,0,1,0-.08,2.83,2.83,0,0,0,0-.29h0c0-2.05,0-4.14-.09-6.24-.05-1.2-.12-2.4-.22-3.6-.53-6.32-2-12.59-5.82-18.07l-.48-.66c-.05-.08-.11-.15-.16-.22l-.34-.45-.2-.25c-.11-.14-.22-.27-.32-.41l-.23-.27c-.11-.13-.21-.26-.32-.38l-.25-.29-.33-.37c-.08-.1-.17-.19-.26-.29s-.23-.24-.34-.37l-.28-.28c-.11-.13-.24-.25-.36-.37a3.7,3.7,0,0,0-.28-.28l-.39-.39-.28-.26-.46-.43-.24-.22-.72-.63a2.75,2.75,0,0,1-.26-.22l-.51-.41-.34-.28-.45-.36-.39-.29-.45-.34-.41-.3-.46-.33-.43-.31-.48-.32-.45-.3-.5-.33-.47-.3-.51-.32-.5-.3-.54-.33-.5-.3-.64-.36-.85-.47-.69-.37-.57-.3-.6-.31-.62-.31-.6-.3-.65-.31-.62-.3-.67-.31-.65-.29-.7-.31-.67-.29c-.23-.11-.47-.21-.72-.31l-.7-.29-.74-.31-.73-.29-.76-.31-.76-.29-.79-.3-1.2-.44c-1.83-.67-3.76-1.33-5.81-2a13.22,13.22,0,0,0-1.6-.35v0c-.25,0-.95-.15-2-.39,2.13-.81,6.59-2.58,6.59-2.58a33.1,33.1,0,0,1-1.76-9.94h0c.12-7.17,4.63-22.54,2.77-39.72C437.72,220.2,431,194,404.93,194a38.21,38.21,0,0,0-38.12,38.29,51.4,51.4,0,0,0,1,9.3c.22,7.82,3,19.84,3,26.22s-3.47,15.1-3.47,15.1c4.8-4.94,8.16-12.28,8.16-12.28a33.68,33.68,0,0,1-4,15.47l4.83,1.21-2.35.61c-20.27,6.51-29.41,13.48-34.64,20.92-5.86,8.35-6.12,18.54-6.12,27.91a2.83,2.83,0,0,0,0,.29.31.31,0,0,0,0,.08,1.6,1.6,0,0,0,.05.21l0,.09a2.34,2.34,0,0,0,.09.24l0,.06c.05.1.11.2.17.3l0,0a2.83,2.83,0,0,0,.2.28l.06.06.22.27.05,0a6.54,6.54,0,0,0,.72.64h0l.43.31,0,0a11.47,11.47,0,0,0,1.23.7l-1.54,30.4a8.14,8.14,0,0,0,9.51,8.23l75.64,19.4,41-11.05c5.26.69,11.4-11.34,11.4-16.58V340.38a10.81,10.81,0,0,0,1.28-.72l0,0a4.56,4.56,0,0,0,.42-.31h0a6.54,6.54,0,0,0,.72-.64l0,0,.23-.26,0-.07a1.79,1.79,0,0,0,.2-.28l0,0A2.38,2.38,0,0,0,475.8,337.71Z"/><path class="cls-8" d="M189,439.06c0,9-23.22,16.21-51.85,16.21S85.33,448,85.33,439.06s23.21-16.21,51.84-16.21S189,430.11,189,439.06Z"/><path class="cls-9" d="M433.29,332.37c-14.33-19.43-44-45.1-92.85-45.36-.23,0-11.65,0-13.67.05l-3.53,0c-1.16,16.43-20.83,34.5-45.85,34.76h0c-24.08-.31-41.84-17.82-44.08-33.79-2.69.21-6.33.14-7.06.14-3.89,0-13.27-.28-13.49-.28-48.87.26-71.07,29.47-85.4,48.9-15.18,20.57-34.63,57.72-43.08,102.24,1.66-8.79,23.21-16.21,51.84-16.21s42.72,7.26,42.72,16.21c0,6.19-2,11.57-18.31,14.3-16.41,24.08-43.52,57.53-34.29,56.31l155.66.49,138.36-10.45c13,1.71-37.45-55.14-37.45-68.11,0,0,87.08,9.52,87.15,7.46C471.61,392.16,448.47,352.94,433.29,332.37Z"/><path class="cls-10" d="M434.34,332.37a111.37,111.37,0,0,0-61.23-41.28L268.37,503.25l9.16,3,143.78-6.57c13,1.71-37.44-55.14-37.44-68.11,0,0,87.07,9.52,87.15,7.46C472.66,392.16,449.52,352.94,434.34,332.37Z"/><path class="cls-11" d="M174.36,527.91l5.53-88.85h0c0-8.95-14.08-16.21-42.72-16.21a138.74,138.74,0,0,0-31.07,3.26v68.06c0,13.14,10.66,22.39,23.8,20.66"/><path class="cls-12" d="M216.29,217.19a17,17,0,0,0,2.93.85c1.1,3.65,2.42,7.57,4,11.71.49,1.14,1,2.37,1.67,3.68a99.57,99.57,0,0,0,7.66,13.07c1.31,1.89,2.92,4.17,4.85,6.61-1,11.56-2,23.4-3,34.95,2.08,16.05,19.87,33.48,44.08,33.79h0c25-.26,44.7-18.33,45.86-34.76l-5.44-33.21-.27-1.61c.37-.53.75-1.06,1.1-1.58A85,85,0,0,0,332,223.05c.4-1.93.9-3.87,1.42-5.81a13,13,0,0,0,2.61-1.89,43.45,43.45,0,0,0,12-18.46c2.18-8,3.31-22.32-2.39-24.91a5.33,5.33,0,0,0-3.24-.26c-.07.46-.1.89-.16,1.35-.72,5.15-1.64,10-2.63,14.52h0c-.21,1-.4,2-.62,3-.08-1.93-.2-3.77-.33-5.58-.05-.68-.11-1.35-.17-2-.08-1-.18-2-.29-2.94q-.33-3.13-.75-6v0C333.88,150.34,326,140.42,326,140.42c-58,4.69-83.8-9.3-94.59-19.15-1.18,14.71-13.15,44.88-17.51,55.49-.23.56-.44,1.05-.63,1.5l-.06.15-.76,1.82a1.47,1.47,0,0,0-.06.14l-.08.19c-.57-.8-4.28-5.38-7.61-10.47a3.79,3.79,0,0,0-.67.06c-2.07.49-3.25,2.47-3.75,3.3-5.91,9.72,3.61,30,5.2,33.28C206.32,208.3,209.89,214.82,216.29,217.19Z"/><path class="cls-13" d="M346.62,126.11c-6.4-17.64-9.6-26.45-15.79-33.15-10-10.84-22.72-13.07-48.12-17.79-23.8-4.43-35.7-6.64-44.94.37C227.6,83.25,225.08,97.21,224.52,106a1.39,1.39,0,0,0-.54.25,6.15,6.15,0,0,0-2.7-1c-8-.88-16.52,16.21-20,28.16-2.29,8-5.07,17.67-1.41,27.79,2.64,7.28,11.52,18.14,12.42,19.42,0,0,17.65-41.26,19.1-59.29,10.79,9.85,36.61,23.84,94.59,19.15,0,0,11.49,14.42,12.94,50.13,1.25-5.39,2.37-11.23,3.25-17.48q.63-4.5,1-8.75a31.24,31.24,0,0,0,7-13.16C351.93,144.28,350.85,137.75,346.62,126.11Z"/><path class="cls-8" d="M367.33,439.06c0,9,23.21,16.21,51.84,16.21S471,448,471,439.06s-23.22-16.21-51.85-16.21S367.33,430.11,367.33,439.06Z"/><path class="cls-14" d="M249.35,311.72c1.3-1.2,2.68-2.44,4.21-3.72,17.14-14.39,28.73-14.53,41.47-27a63.8,63.8,0,0,0,11.29-15.19,62.81,62.81,0,0,1-6.08,4.42,43.34,43.34,0,0,1-26.65,6.14c-12.26-1.33-20.33-8-26-12.75a68.54,68.54,0,0,1-10.06-10.38c-1.05,11.63-2.09,23.2-3.13,34.83C235.54,296.43,241,305.2,249.35,311.72Z"/><path class="cls-15" d="M193.34,394c-13.45,45.05-13.9,80-16,97.36h0l2.53-52.31A105,105,0,0,1,193.34,394Z"/></g><circle class="cls-16" cx="428.82" cy="434.39" r="85.15"/><path class="cls-17" d="M428.82,519.54a85.16,85.16,0,0,0,40-160.34l-80,150.39A84.78,84.78,0,0,0,428.82,519.54Z"/><rect class="cls-8" x="420.31" y="386.5" width="17.03" height="95.79" rx="8.51"/><rect class="cls-8" x="420.31" y="386.5" width="17.03" height="95.79" rx="8.51" transform="translate(863.22 5.57) rotate(90)"/><path class="cls-12" d="M215.47,217.52a17.11,17.11,0,0,0,2.92.85c1.11,3.65,2.43,7.57,4,11.71.49,1.14,1,2.37,1.67,3.68a99.71,99.71,0,0,0,7.65,13.06c1.32,1.9,2.93,4.18,4.86,6.62-1,11.56-2,23.4-3,34.95,2.07,16.05,19.86,33.48,44.08,33.79h0c25-.26,44.7-18.33,45.86-34.76L318,254.2l-.27-1.62c.37-.52.75-1.06,1.1-1.57a85,85,0,0,0,12.26-27.63c.4-1.94.9-3.87,1.42-5.81a13.4,13.4,0,0,0,2.61-1.89,43.51,43.51,0,0,0,12-18.46c2.18-8,3.3-22.32-2.39-24.91a5.26,5.26,0,0,0-3.24-.26c-.07.46-.1.89-.16,1.35-.73,5.15-1.64,9.95-2.63,14.52h0c-.21,1-.4,2-.62,3-.08-1.93-.2-3.78-.33-5.58-.05-.68-.11-1.35-.17-2-.09-1-.18-2-.29-2.94q-.33-3.14-.75-6v0c-3.53-23.65-11.39-33.57-11.39-33.57-58,4.69-83.8-9.3-94.59-19.15-1.18,14.71-13.15,44.87-17.51,55.48l-.63,1.51-.06.15c-.36.86-.62,1.47-.76,1.82a1.47,1.47,0,0,0-.06.14l-.08.19c-.57-.8-4.28-5.38-7.61-10.48a5.08,5.08,0,0,0-.67.07c-2.07.49-3.25,2.47-3.75,3.29-5.91,9.73,3.61,30,5.2,33.28C205.49,208.62,209.07,215.15,215.47,217.52Z"/><path class="cls-13" d="M345.8,126.43C339.4,108.8,336.2,100,330,93.28c-10-10.83-22.72-13.06-48.12-17.78-23.8-4.43-35.7-6.64-44.94.37-10.17,7.71-12.69,21.67-13.25,30.4a1.48,1.48,0,0,0-.54.26,6,6,0,0,0-2.7-1c-8-.89-16.52,16.21-20,28.15-2.29,8-5.07,17.68-1.41,27.8,2.64,7.28,11.52,18.14,12.42,19.42,0,0,17.65-41.26,19.1-59.29,10.79,9.85,36.61,23.84,94.59,19.15,0,0,11.49,14.41,12.94,50.13,1.25-5.4,2.37-11.23,3.25-17.48q.63-4.5,1-8.75a31.24,31.24,0,0,0,7-13.16C351.11,144.61,350,138.08,345.8,126.43Z"/><path class="cls-14" d="M248.53,312.05c1.3-1.2,2.68-2.44,4.21-3.72,17.13-14.39,28.73-14.53,41.47-27a63.68,63.68,0,0,0,11.29-15.2,60.22,60.22,0,0,1-6.09,4.43c-12.25,7.77-25.4,6.27-26.64,6.14-12.26-1.33-20.33-8-26-12.75a68.11,68.11,0,0,1-10.06-10.39c-1,11.64-2.09,23.21-3.13,34.84C234.71,296.76,240.16,305.53,248.53,312.05Z"/></svg>