<svg xmlns="http://www.w3.org/2000/svg" xmlns:xlink="http://www.w3.org/1999/xlink" viewBox="0 0 600 600"><defs><style>.cls-1{fill:none;}.cls-2{fill:url(#Degradado_sin_nombre_102);}.cls-3{fill:#1464a5;}.cls-4{fill:url(#Degradado_sin_nombre_8);}.cls-5{fill:#2dcccd;}.cls-6{fill:#d4edfc;}.cls-7{fill:#c49735;}.cls-8{fill:#043263;}.cls-9{fill:url(#Degradado_sin_nombre_104);}.cls-10{fill:#f8cd50;}</style><linearGradient id="Degradado_sin_nombre_102" x1="272.93" y1="-4616.65" x2="410.15" y2="-4874.73" gradientTransform="matrix(1, 0, 0, -1, 0, -4404)" gradientUnits="userSpaceOnUse"><stop offset="0" stop-color="#192647" stop-opacity="0.5"/><stop offset="1" stop-color="#192647" stop-opacity="0"/></linearGradient><linearGradient id="Degradado_sin_nombre_8" x1="449.99" y1="-4718.94" x2="244.11" y2="-4718.94" gradientTransform="matrix(1, 0, 0, -1, 0, -4404)" gradientUnits="userSpaceOnUse"><stop offset="0" stop-color="#043263" stop-opacity="0.3"/><stop offset="1" stop-color="#043263" stop-opacity="0.1"/></linearGradient><linearGradient id="Degradado_sin_nombre_104" x1="449.99" y1="-4718.94" x2="244.11" y2="-4718.94" gradientTransform="matrix(1, 0, 0, -1, 0, -4404)" gradientUnits="userSpaceOnUse"><stop offset="0" stop-color="#072146"/><stop offset="1" stop-color="#072146" stop-opacity="0"/></linearGradient></defs><title>16</title><g id="Cuadrados_Blancos" data-name="Cuadrados Blancos"><rect class="cls-1" width="600" height="600"/></g><g id="Capa_7" data-name="Capa 7"><path class="cls-2" d="M456.32,312.84a117.43,117.43,0,0,0-13.21-31.9L461,255c-5.3-8.4-6.49-11.27-13.79-18.6l-.34-.34c-7.33-7.31-10.2-8.49-18.6-13.8l-25.94,17.86a118,118,0,0,0-31.9-13.22l-5.72-31c-9.69-2.19-12.56-3.39-22.9-3.4h-.49c-10.34,0-13.21,1.21-22.9,3.4l-5.72,31a118,118,0,0,0-31.9,13.22l-25.94-17.86c-8.4,5.31-11.27,6.49-18.6,13.8l-.34.34c-7.31,7.33-8.49,10.2-13.79,18.6L240,280.94a117.59,117.59,0,0,0-13.22,31.9l-31,5.71c-2.19,9.69-3.38,12.56-3.4,22.91v.48c0,10.35,1.21,13.22,3.4,22.91l31,5.72A118,118,0,0,0,240,402.47L222.09,428.4c5.3,8.4,6.48,11.28,13.79,18.6l.34.35c7.33,7.3,10.2,8.48,18.6,13.79l25.94-17.85c1.7,1,3.46,1.93,5.21,2.87h0q2.8,1.48,5.7,2.83l1.41.64c1.66.75,3.33,1.47,5,2.14,1,.41,2.07.78,3.12,1.17,1.28.46,2.56.94,3.86,1.37,2.49.81,5,1.55,7.56,2.19l5.72,31c9.69,2.18,12.56,3.38,22.9,3.4h.49c10.34,0,13.21-1.22,22.9-3.4l5.72-31a117.43,117.43,0,0,0,31.9-13.21l25.94,17.85c8.4-5.31,11.27-6.49,18.6-13.79l.34-.35c7.3-7.32,8.49-10.2,13.79-18.6l-17.85-25.93a117.43,117.43,0,0,0,13.21-31.9l31-5.72c2.18-9.69,3.38-12.56,3.4-22.91v-.48c0-10.35-1.22-13.22-3.4-22.91Z"/><path class="cls-3" d="M446.55,276.71,415.43,271a118,118,0,0,0-13.31-32l18-26.08c-5.34-8.45-6.53-11.34-13.87-18.7l-.35-.35c-7.37-7.34-10.26-8.53-18.7-13.87l-26.08,18A118.42,118.42,0,0,0,329,184.58l-5.75-31.14c-9.74-2.2-12.63-3.4-23-3.42h-.49c-10.4,0-13.29,1.22-23,3.42l-5.75,31.14A118.11,118.11,0,0,0,239,197.86l-26.18-18c-8.45,5.34-11.34,6.53-18.71,13.87l-.34.35c-7.34,7.36-8.53,10.25-13.87,18.7l17.95,26.08A118.42,118.42,0,0,0,184.54,271l-31.11,5.72c-2.2,9.74-3.4,12.63-3.42,23v.49c0,10.4,1.22,13.29,3.42,23L184.57,329A118.42,118.42,0,0,0,197.85,361L179.9,387.11c5.34,8.45,6.53,11.34,13.87,18.7l.34.35c7.37,7.34,10.26,8.53,18.71,13.87l26.08-17.95A118.11,118.11,0,0,0,271,415.36l5.75,31.14c9.74,2.2,12.63,3.4,23,3.42h.49c10.4,0,13.29-1.22,23-3.42L329,415.36a118.42,118.42,0,0,0,32.08-13.28L387.13,420c8.44-5.34,11.33-6.53,18.7-13.87l.35-.35c7.34-7.36,8.53-10.25,13.87-18.7l-18-26.08a118.31,118.31,0,0,0,13.38-32l31.14-5.75c2.2-9.74,3.4-12.63,3.42-23v-.49C450,289.34,448.75,286.45,446.55,276.71Z"/><path class="cls-4" d="M415.43,271a118,118,0,0,0-13.31-32l18-26.08c-5.34-8.45-6.53-11.34-13.87-18.7l-.35-.35c-7.37-7.34-10.26-8.53-18.7-13.87l-26.08,18c-1.71-1-3.48-1.94-5.24-2.88L244.11,405A118,118,0,0,0,271,415.42l5.75,31.14c9.74,2.2,12.63,3.4,23,3.42h.49c10.4,0,13.29-1.22,23-3.42l5.75-31.14A118.42,118.42,0,0,0,361,402.14l26.08,17.95c8.44-5.34,11.33-6.53,18.7-13.87l.35-.35c7.34-7.36,8.53-10.25,13.87-18.7l-18-26.08A117.87,117.87,0,0,0,415.43,329l31.14-5.75c2.2-9.74,3.4-12.63,3.42-23v-.49c0-10.4-1.22-13.29-3.42-23Z"/><circle class="cls-5" cx="299.97" cy="299.99" r="52.17"/><circle class="cls-6" cx="299.97" cy="215.6" r="8.33"/><circle class="cls-6" cx="299.97" cy="384.37" r="8.33"/><circle class="cls-6" cx="384.36" cy="299.99" r="8.33"/><circle class="cls-6" cx="215.59" cy="299.99" r="8.33"/><circle class="cls-6" cx="257.78" cy="226.9" r="8.33" transform="matrix(0.16, -0.99, 0.99, 0.16, -7.48, 445.01)"/><circle class="cls-6" cx="342.17" cy="373.07" r="8.33"/><circle class="cls-6" cx="373.06" cy="257.79" r="8.33"/><circle class="cls-6" cx="226.89" cy="342.18" r="8.33"/><circle class="cls-6" cx="226.89" cy="257.79" r="8.33"/><circle class="cls-6" cx="373.06" cy="342.18" r="8.33"/><circle class="cls-6" cx="342.17" cy="226.9" r="8.33"/><circle class="cls-6" cx="257.78" cy="373.07" r="8.33"/><polygon class="cls-7" points="308.31 299.98 291.64 299.98 291.64 231.88 308.31 241.72 308.31 299.98"/><path class="cls-8" d="M446.55,276.71,415.43,271a118,118,0,0,0-13.31-32l18-26.08c-5.34-8.45-6.53-11.34-13.87-18.7l-.35-.35c-7.37-7.34-10.26-8.53-18.7-13.87l-26.08,18A118.42,118.42,0,0,0,329,184.58l-5.75-31.14c-9.74-2.2-12.63-3.4-23-3.42h-.49c-10.4,0-13.29,1.22-23,3.42l-5.75,31.14A118.11,118.11,0,0,0,239,197.86l-26.18-18c-8.45,5.34-11.34,6.53-18.71,13.87l-.34.35c-7.34,7.36-8.53,10.25-13.87,18.7l17.95,26.08A118.42,118.42,0,0,0,184.54,271l-31.11,5.72c-2.2,9.74-3.4,12.63-3.42,23v.49c0,10.4,1.22,13.29,3.42,23L184.57,329A118.42,118.42,0,0,0,197.85,361L179.9,387.11c5.34,8.45,6.53,11.34,13.87,18.7l.34.35c7.37,7.34,10.26,8.53,18.71,13.87l26.08-17.95A118.11,118.11,0,0,0,271,415.36l5.75,31.14c9.74,2.2,12.63,3.4,23,3.42h.49c10.4,0,13.29-1.22,23-3.42L329,415.36a118.42,118.42,0,0,0,32.08-13.28L387.13,420c8.44-5.34,11.33-6.53,18.7-13.87l.35-.35c7.34-7.36,8.53-10.25,13.87-18.7l-18-26.08a118.31,118.31,0,0,0,13.38-32l31.14-5.75c2.2-9.74,3.4-12.63,3.42-23v-.49C450,289.34,448.75,286.45,446.55,276.71Z"/><path class="cls-9" d="M415.43,271a118,118,0,0,0-13.31-32l18-26.08c-5.34-8.45-6.53-11.34-13.87-18.7l-.35-.35c-7.37-7.34-10.26-8.53-18.7-13.87l-26.08,18c-1.71-1-3.48-1.94-5.24-2.88L244.11,405A118,118,0,0,0,271,415.42l5.75,31.14c9.74,2.2,12.63,3.4,23,3.42h.49c10.4,0,13.29-1.22,23-3.42l5.75-31.14A118.42,118.42,0,0,0,361,402.14l26.08,17.95c8.44-5.34,11.33-6.53,18.7-13.87l.35-.35c7.34-7.36,8.53-10.25,13.87-18.7l-18-26.08A117.87,117.87,0,0,0,415.43,329l31.14-5.75c2.2-9.74,3.4-12.63,3.42-23v-.49c0-10.4-1.22-13.29-3.42-23Z"/><circle class="cls-5" cx="299.97" cy="299.99" r="52.17"/><circle class="cls-6" cx="299.97" cy="215.6" r="8.33"/><circle class="cls-6" cx="299.97" cy="384.37" r="8.33"/><circle class="cls-6" cx="384.36" cy="299.99" r="8.33"/><circle class="cls-6" cx="215.59" cy="299.99" r="8.33"/><circle class="cls-6" cx="257.78" cy="226.9" r="8.33" transform="matrix(0.16, -0.99, 0.99, 0.16, -7.48, 445.01)"/><circle class="cls-6" cx="342.17" cy="373.07" r="8.33"/><circle class="cls-6" cx="373.06" cy="257.79" r="8.33"/><circle class="cls-6" cx="226.89" cy="342.18" r="8.33"/><circle class="cls-6" cx="226.89" cy="257.79" r="8.33"/><circle class="cls-6" cx="373.06" cy="342.18" r="8.33"/><circle class="cls-6" cx="342.17" cy="226.9" r="8.33"/><circle class="cls-6" cx="257.78" cy="373.07" r="8.33"/><polygon class="cls-7" points="308.31 299.98 291.64 299.98 291.64 231.88 308.31 241.72 308.31 299.98"/><path class="cls-10" d="M324.22,324.06a8.28,8.28,0,0,1-4.52-1.35L295.44,307a8.33,8.33,0,1,1,9.06-14l24.26,15.73a8.34,8.34,0,0,1-4.54,15.33Z"/></g></svg>