<svg id="Contenido" xmlns="http://www.w3.org/2000/svg" xmlns:xlink="http://www.w3.org/1999/xlink" viewBox="0 0 600 600"><defs><style>.cls-1{fill:url(#Degradado_sin_nombre_2);}.cls-2{fill:#d4edfc;}.cls-3{fill:#1464a5;}.cls-4{fill:url(#Degradado_sin_nombre_38);}.cls-5{fill:#f8cd50;}.cls-6{fill:#fbf3dc;}.cls-7{fill:url(#Degradado_sin_nombre_5);}</style><linearGradient id="Degradado_sin_nombre_2" x1="256.09" y1="173.41" x2="443.91" y2="526.66" gradientUnits="userSpaceOnUse"><stop offset="0" stop-color="#1c2645"/><stop offset="0" stop-color="#1c2645" stop-opacity="0.5"/><stop offset="1" stop-color="#1c2645" stop-opacity="0"/></linearGradient><linearGradient id="Degradado_sin_nombre_38" x1="470" y1="309.94" x2="220.18" y2="309.94" gradientUnits="userSpaceOnUse"><stop offset="0" stop-color="#043263" stop-opacity="0.4"/><stop offset="1" stop-color="#043263" stop-opacity="0.1"/></linearGradient><linearGradient id="Degradado_sin_nombre_5" x1="225.62" y1="344.77" x2="256.76" y2="361.33" gradientUnits="userSpaceOnUse"><stop offset="0" stop-color="#fff" stop-opacity="0.6"/><stop offset="1" stop-color="#fff" stop-opacity="0.2"/></linearGradient></defs><title>_</title><circle class="cls-1" cx="350" cy="350.03" r="200"/><circle class="cls-2" cx="300" cy="300" r="200"/><circle class="cls-3" cx="300" cy="300" r="170"/><path class="cls-4" d="M379.82,149.88,220.18,450.12A170,170,0,0,0,379.82,149.88Z"/><path class="cls-2" d="M300,191.47c-33,0-59.82,27.2-59.82,60.64v40.64a1,1,0,0,0,.27.68l15,16a1,1,0,0,0,1.46,0l15-16a1,1,0,0,0,.27-.68V252.11c0-15.77,12.46-28.6,27.78-28.6s27.78,12.83,27.78,28.6V393.94a1,1,0,0,0,1.72.69l13.57-14.1a1,1,0,0,1,1.44,0l13.59,14.08a1,1,0,0,0,1.72-.69V252.11C359.82,218.67,333,191.47,300,191.47Z"/><path class="cls-5" d="M291.51,361.22a35,35,0,1,1-35-35h0a35,35,0,0,1,35,35"/><path class="cls-6" d="M257.07,378.07c-6.56,0-11-4-12.43-11.36h-5.27V362.8h4.81c0-.55,0-1.1,0-1.64v-1.1h-4.77V356.2h5.22c1.36-7.38,6-11.79,12.43-11.79,5.47,0,9.22,2.43,11.16,7.21l0,.11-4.8,2.72-.05-.16c-1.12-3.38-3.08-4.89-6.35-4.89-3.62,0-6,2.35-6.91,6.8h8.06v3.86h-8.46v1c0,.59,0,1.19,0,1.75h8.48v3.91h-8c.94,4.36,3.2,6.48,6.91,6.48,3.38,0,5.32-1.54,6.51-5.16l.05-.16,4.69,2.83,0,.11A11.77,11.77,0,0,1,257.07,378.07Z"/><path class="cls-7" d="M256.48,326.22a35,35,0,0,0-16.15,66L273,330.34A35,35,0,0,0,256.48,326.22Z"/></svg>