<?xml version="1.0" encoding="utf-8"?>
<!-- Generator: Adobe Illustrator 25.2.3, SVG Export Plug-In . SVG Version: 6.00 Build 0)  -->
<svg version="1.1" id="Capa_1" xmlns="http://www.w3.org/2000/svg" xmlns:xlink="http://www.w3.org/1999/xlink" x="0px" y="0px"
	 viewBox="0 0 600 600" style="enable-background:new 0 0 600 600;" xml:space="preserve">
<style type="text/css">
	.st0{fill:none;}
	.st1{fill:url(#SVGID_1_);}
	.st2{fill:#D4EDFC;}
	.st3{fill:#1464A5;}
	.st4{fill:url(#SVGID_2_);}
	.st5{fill:#F8CD51;}
	.st6{fill:url(#SVGID_3_);}
	.st7{fill:#FEF5DC;}
</style>
<g id="Cuadrados_Blancos">
	<rect y="0" class="st0" width="600" height="600"/>
</g>
<g id="Capa_17">
	
		<linearGradient id="SVGID_1_" gradientUnits="userSpaceOnUse" x1="256.0916" y1="-4526.707" x2="443.9084" y2="-4173.4531" gradientTransform="matrix(1 0 0 1 0 4700.1099)">
		<stop  offset="0" style="stop-color:#1C2645;stop-opacity:0.5"/>
		<stop  offset="1" style="stop-color:#1C2645;stop-opacity:0"/>
	</linearGradient>
	<circle class="st1" cx="350" cy="350" r="200"/>
	<circle class="st2" cx="300" cy="300" r="200"/>
	<circle class="st3" cx="298.7" cy="299.4" r="170"/>
	
		<linearGradient id="SVGID_2_" gradientUnits="userSpaceOnUse" x1="470.0551" y1="-4390.1426" x2="220.18" y2="-4390.1426" gradientTransform="matrix(1 0 0 1 0 4700.1099)">
		<stop  offset="0" style="stop-color:#043263;stop-opacity:0.4"/>
		<stop  offset="1" style="stop-color:#043263;stop-opacity:0.1"/>
	</linearGradient>
	<path class="st4" d="M379.8,149.9L220.2,450.1c82.9,44.1,185.9,12.6,229.9-70.3S462.7,194,379.8,149.9L379.8,149.9z"/>
	<path class="st2" d="M300,191.5c-33,0-59.8,27.2-59.8,60.6v40.6c0,0.3,0.1,0.5,0.3,0.7l15,16c0.4,0.4,1,0.4,1.4,0l0,0l15-16
		c0.2-0.2,0.3-0.4,0.3-0.7v-40.6c0-15.8,12.5-28.6,27.8-28.6s27.8,12.8,27.8,28.6v141.8c0,0.6,0.4,1,1,1c0.3,0,0.5-0.1,0.7-0.3
		l13.5-14.1c0.4-0.4,1-0.4,1.4,0l0,0l13.6,14.1c0.4,0.4,1,0.4,1.4,0c0.2-0.2,0.3-0.4,0.3-0.7V252.1C359.8,218.7,333,191.5,300,191.5
		z"/>
	<path class="st5" d="M291.5,361.2c0,19.3-15.7,35-35,35s-35-15.7-35-35s15.7-35,35-35l0,0C275.8,326.2,291.5,341.9,291.5,361.2
		L291.5,361.2L291.5,361.2"/>
	
		<linearGradient id="SVGID_3_" gradientUnits="userSpaceOnUse" x1="226.1402" y1="-3954.9929" x2="255.1102" y2="-3939.593" gradientTransform="matrix(1 0 0 1 0 4300.1099)">
		<stop  offset="0" style="stop-color:#FFFFFF;stop-opacity:0.6"/>
		<stop  offset="1" style="stop-color:#FFFFFF;stop-opacity:0.2"/>
	</linearGradient>
	<path class="st6" d="M271.6,329.7c-17.4-8.3-38.3-0.9-46.7,16.5c-7.8,16.4-1.8,36,13.8,45.2L271.6,329.7z"/>
	<path class="st7" d="M260.8,368.1c0-2.3-0.9-3.2-5.2-5.2c-6.3-2.8-8.1-5-8.1-9.4s3.5-7.4,7.1-8.3v-5.3h0.2l5.1,2.3v2.9
		c1.6,0.2,3.2,0.8,4.6,1.6l0.2,0.1l0.2,0.1v0.2l0,0.3l-0.7,4l-0.1,0.8l-0.1,0.5l-0.4-0.3l-0.6-0.5c-1.6-1.3-3.7-2-5.8-2
		c-2.7,0-4.1,1.2-4.1,3.2s1,2.8,5.2,4.8c6.3,2.8,8.3,5.1,8.3,9.8c-0.1,4-2.7,7.5-6.6,8.7v6.1h-0.4l-4.9-2.7v-3c-2.4-0.3-4.8-1-7-2
		l-0.3-0.1l-0.2-0.1v-0.2l0.1-0.4l0.6-4.1l0.1-0.7l0.1-0.5l0.4,0.3l0.6,0.4c2.2,1.5,4.8,2.3,7.4,2.4
		C259,371.7,260.9,370.3,260.8,368.1"/>
</g>
</svg>
