<svg id="Contenido" xmlns="http://www.w3.org/2000/svg" xmlns:xlink="http://www.w3.org/1999/xlink" viewBox="0 0 600 600"><defs><style>.cls-1{fill:url(#Degradado_sin_nombre_42);}.cls-2{fill:#d4edfc;}.cls-3{fill:url(#Degradado_sin_nombre_30);}.cls-4{fill:#1464a5;}.cls-5{fill:url(#Degradado_sin_nombre_43);}.cls-6{fill:#da3951;}.cls-7{fill:url(#Degradado_sin_nombre_8);}.cls-8{fill:#f8cd50;}.cls-9{fill:url(#Degradado_sin_nombre_22);}.cls-10{fill:#2dcccd;}.cls-11{fill:url(#Degradado_sin_nombre_21);}.cls-12{fill:#49a5e6;}.cls-13{fill:#28ad68;}.cls-14{fill:#fff;}</style><linearGradient id="Degradado_sin_nombre_42" x1="244.77" y1="154.4" x2="435.23" y2="512.6" gradientUnits="userSpaceOnUse"><stop offset="0" stop-color="#192647" stop-opacity="0.5"/><stop offset="1" stop-color="#192647" stop-opacity="0"/></linearGradient><linearGradient id="Degradado_sin_nombre_30" x1="490" y1="293.5" x2="198.02" y2="293.5" gradientUnits="userSpaceOnUse"><stop offset="0" stop-color="#043263" stop-opacity="0.1"/><stop offset="1" stop-color="#043263" stop-opacity="0"/></linearGradient><linearGradient id="Degradado_sin_nombre_43" x1="490" y1="178.5" x2="320.16" y2="178.5" gradientUnits="userSpaceOnUse"><stop offset="0.01" stop-color="#043263" stop-opacity="0.5"/><stop offset="1" stop-color="#043263" stop-opacity="0.1"/></linearGradient><linearGradient id="Degradado_sin_nombre_8" x1="136" y1="178.91" x2="125.71" y2="178.91" gradientUnits="userSpaceOnUse"><stop offset="0" stop-color="#043263" stop-opacity="0.3"/><stop offset="1" stop-color="#043263" stop-opacity="0"/></linearGradient><linearGradient id="Degradado_sin_nombre_22" x1="151.06" y1="183.34" x2="144.66" y2="176.95" gradientTransform="translate(298 357) rotate(180)" gradientUnits="userSpaceOnUse"><stop offset="0" stop-color="#fff" stop-opacity="0.6"/><stop offset="0.85" stop-color="#fff" stop-opacity="0.2"/></linearGradient><linearGradient id="Degradado_sin_nombre_21" x1="182" y1="178.91" x2="171.71" y2="178.91" gradientUnits="userSpaceOnUse"><stop offset="0" stop-color="#028484" stop-opacity="0.6"/><stop offset="1" stop-color="#028484" stop-opacity="0"/></linearGradient></defs><title>momentum</title><rect class="cls-1" x="150" y="200" width="380" height="267" rx="12"/><rect class="cls-2" x="110" y="160" width="380" height="267" rx="12"/><path class="cls-3" d="M478,160H340L198,427H478a12,12,0,0,0,12-12V172A12,12,0,0,0,478,160Z"/><path class="cls-4" d="M122,160H478a12,12,0,0,1,12,12v25a0,0,0,0,1,0,0H110a0,0,0,0,1,0,0V172A12,12,0,0,1,122,160Z"/><path class="cls-5" d="M490,172a12,12,0,0,0-12-12H339.84l-19.68,37H490Z"/><circle class="cls-6" cx="129" cy="178.5" r="7"/><path class="cls-7" d="M132.29,172.32l-6.58,12.36a7,7,0,0,0,6.58-12.36Z"/><circle class="cls-8" cx="152" cy="178.5" r="7"/><path class="cls-9" d="M148.71,184.68l6.58-12.36a7,7,0,0,0-6.58,12.36Z"/><circle class="cls-10" cx="175" cy="178.5" r="7"/><path class="cls-11" d="M178.29,172.32l-6.58,12.36a7,7,0,0,0,6.58-12.36Z"/><rect class="cls-12" x="150" y="237" width="300" height="33.9" rx="3.19"/><rect class="cls-12" x="150" y="289.49" width="90" height="33.9" rx="3.19"/><rect class="cls-12" x="260" y="289.49" width="190" height="33.9" rx="3.19"/><rect class="cls-13" x="333.68" y="341.76" width="116.32" height="38.77" rx="3.88"/><path class="cls-14" d="M387.41,373a3.11,3.11,0,0,1-2.21-.91l-6.61-6.61a3.13,3.13,0,1,1,4.43-4.42l4.39,4.39,13.26-13.25a3.13,3.13,0,1,1,4.42,4.42l-15.46,15.47A3.13,3.13,0,0,1,387.41,373Z"/></svg>