<svg xmlns="http://www.w3.org/2000/svg" xmlns:xlink="http://www.w3.org/1999/xlink" viewBox="0 0 600 600"><defs><style>.cls-1{fill:none;}.cls-2{fill:url(#Degradado_sin_nombre_4);}.cls-3{fill:#d4edfc;}.cls-4{fill:url(#Degradado_sin_nombre_29);}.cls-5{fill:#043263;}.cls-6{fill:url(#Degradado_sin_nombre_6);}.cls-7{fill:#da3951;}.cls-8{fill:url(#Degradado_sin_nombre_27);}.cls-9{fill:#f8cd50;}.cls-10{fill:url(#Degradado_sin_nombre_26);}.cls-11{fill:#2dcccd;}.cls-12{fill:url(#Degradado_sin_nombre_25);}.cls-13{fill:#49a5e6;}.cls-14{fill:#28ad68;}.cls-15{fill:#fff;}</style><linearGradient id="Degradado_sin_nombre_4" x1="244.77" y1="-6918.4" x2="435.23" y2="-7276.6" gradientTransform="matrix(1, 0, 0, -1, 0, -6764)" gradientUnits="userSpaceOnUse"><stop offset="0" stop-color="#192647" stop-opacity="0.5"/><stop offset="1" stop-color="#192647" stop-opacity="0"/></linearGradient><linearGradient id="Degradado_sin_nombre_29" x1="490" y1="-7057.5" x2="198" y2="-7057.5" gradientTransform="matrix(1, 0, 0, -1, 0, -6764)" gradientUnits="userSpaceOnUse"><stop offset="0" stop-color="#043263" stop-opacity="0.1"/><stop offset="1" stop-color="#043263" stop-opacity="0"/></linearGradient><linearGradient id="Degradado_sin_nombre_6" x1="490" y1="-6942.5" x2="320.16" y2="-6942.5" gradientTransform="matrix(1, 0, 0, -1, 0, -6764)" gradientUnits="userSpaceOnUse"><stop offset="0" stop-color="#072146" stop-opacity="0.8"/><stop offset="1" stop-color="#072146" stop-opacity="0.1"/></linearGradient><linearGradient id="Degradado_sin_nombre_27" x1="136" y1="-6942.91" x2="125.71" y2="-6942.91" gradientTransform="matrix(1, 0, 0, -1, 0, -6764)" gradientUnits="userSpaceOnUse"><stop offset="0" stop-color="#043263" stop-opacity="0.3"/><stop offset="1" stop-color="#043263" stop-opacity="0"/></linearGradient><linearGradient id="Degradado_sin_nombre_26" x1="3253.06" y1="416.66" x2="3246.67" y2="423.05" gradientTransform="matrix(-1, 0, 0, 1, 3400, -243)" gradientUnits="userSpaceOnUse"><stop offset="0" stop-color="#fff" stop-opacity="0.6"/><stop offset="0.85" stop-color="#fff" stop-opacity="0.2"/></linearGradient><linearGradient id="Degradado_sin_nombre_25" x1="182" y1="-6942.91" x2="171.71" y2="-6942.91" gradientTransform="matrix(1, 0, 0, -1, 0, -6764)" gradientUnits="userSpaceOnUse"><stop offset="0" stop-color="#028484" stop-opacity="0.6"/><stop offset="1" stop-color="#028484" stop-opacity="0"/></linearGradient></defs><title>15</title><g id="Cuadrados_Blancos" data-name="Cuadrados Blancos"><rect class="cls-1" width="600" height="600"/><rect class="cls-1" width="600" height="600"/></g><g id="Capa_19" data-name="Capa 19"><rect class="cls-2" x="150" y="200" width="380" height="267" rx="12"/><rect class="cls-3" x="110" y="160" width="380" height="267" rx="12"/><path class="cls-4" d="M478,160H340L198,427H478a12,12,0,0,0,12-12V172A12,12,0,0,0,478,160Z"/><path class="cls-5" d="M122,160H478a12,12,0,0,1,12,12v25H110V172A12,12,0,0,1,122,160Z"/><path class="cls-6" d="M490,172a12,12,0,0,0-12-12H339.84l-19.68,37H490Z"/><circle class="cls-7" cx="129" cy="178.5" r="7"/><path class="cls-8" d="M132.29,172.32l-6.58,12.36a7,7,0,0,0,6.58-12.36Z"/><circle class="cls-9" cx="152" cy="178.5" r="7"/><path class="cls-10" d="M148.71,184.68l6.58-12.36a7,7,0,0,0-6.58,12.36Z"/><circle class="cls-11" cx="175" cy="178.5" r="7"/><path class="cls-12" d="M178.29,172.32l-6.58,12.36a7,7,0,1,0,6.58-12.36Z"/><rect class="cls-13" x="150" y="237" width="300" height="33.9" rx="3.19"/><rect class="cls-13" x="150" y="289.49" width="90" height="33.9" rx="3.19"/><rect class="cls-13" x="260" y="289.49" width="190" height="33.9" rx="3.19"/><rect class="cls-14" x="333.68" y="341.76" width="116.32" height="38.77" rx="3.88"/><path class="cls-15" d="M387.41,373a3.11,3.11,0,0,1-2.21-.91l-6.61-6.61a3.13,3.13,0,1,1,4.32-4.53l.11.11,4.39,4.39,13.26-13.25a3.13,3.13,0,0,1,4.66,4.18l-.24.24-15.46,15.47A3.13,3.13,0,0,1,387.41,373Z"/></g></svg>