<svg id="Contenido" xmlns="http://www.w3.org/2000/svg" xmlns:xlink="http://www.w3.org/1999/xlink" viewBox="0 0 600 600"><defs><style>.cls-1{fill:url(#Degradado_sin_nombre);}.cls-2{fill:url(#Degradado_sin_nombre_2);}.cls-3{fill:#f8cd51;}.cls-4{fill:url(#Degradado_sin_nombre_3);}.cls-5{fill:#fef5dc;}.cls-6{fill:#f7b27f;}.cls-7{fill:#043263;fill-rule:evenodd;}.cls-8{fill:#004481;}.cls-9{fill:url(#Degradado_sin_nombre_4);}.cls-10{fill:#facba9;}.cls-11{fill:#2dcccd;}</style><linearGradient id="Degradado_sin_nombre" x1="216.86" y1="439.56" x2="386.12" y2="121.23" gradientTransform="matrix(1, 0, 0, -1, 0, 602)" gradientUnits="userSpaceOnUse"><stop offset="0" stop-color="#192647" stop-opacity="0.5"/><stop offset="1" stop-color="#192647" stop-opacity="0"/></linearGradient><linearGradient id="Degradado_sin_nombre_2" x1="289.76" y1="472.2" x2="457.62" y2="156.5" xlink:href="#Degradado_sin_nombre"/><linearGradient id="Degradado_sin_nombre_3" x1="286.83" y1="618.87" x2="336.39" y2="569.32" gradientTransform="matrix(1, 0, 0, -1, 0, 824)" gradientUnits="userSpaceOnUse"><stop offset="0" stop-color="#fff" stop-opacity="0.5"/><stop offset="1" stop-color="#fff" stop-opacity="0"/></linearGradient><linearGradient id="Degradado_sin_nombre_4" x1="384.7" y1="864.81" x2="252.85" y2="864.81" gradientTransform="matrix(1, 0.05, -0.05, 1, 31.47, -523.14)" gradientUnits="userSpaceOnUse"><stop offset="0" stop-color="#d8722c"/><stop offset="1" stop-color="#d8722c" stop-opacity="0"/></linearGradient></defs><path class="cls-1" d="M544.22,362.14c-2.69-5.39-14.36-10.78-31.43-5.39s-57,22.9-78.59,32.33c-2.89,1.26-5.83,2.37-8.77,3.36-1-5.6-3.8-10.26-8.56-12.89l-.4.06a23.1,23.1,0,0,0-17-5.59l-32.53,2.58a129.91,129.91,0,0,1-20.5,0l-17.67-1.4c-17.36-9.17-34.86-18.36-44.12-21.15-19.31-5.82-40.43,4.22-55.69,7a129.64,129.64,0,0,1-13.17,1.73c-.15-.78-.29-1.57-.46-2.35a16,16,0,0,0-15.53-12.65l-29.91-.1A15.9,15.9,0,0,0,154,363.55a16.08,16.08,0,0,0,.27,2.94,235.19,235.19,0,0,1,3.8,43.19,234.9,234.9,0,0,1-4,43.16,15.9,15.9,0,0,0,12.62,18.6,16.2,16.2,0,0,0,2.95.28l29.9.07a16,16,0,0,0,15.59-12.59q.66-3,1.24-6.11c6.25-2.12,17.21-5.19,28.35-5.19,37.55,0,79.94,38.18,109.13,38.18,7.63,0,22-7.74,37.27-17.52,21.77-13.89,47.6-26.51,78.59-45.36s68.72-43.55,73.21-48S546.91,367.53,544.22,362.14Z"/><path class="cls-2" d="M302,238.54h17a77.07,77.07,0,1,0,56.44-24.62,5.81,5.81,0,0,0,0,11.61A65.46,65.46,0,1,1,310,291h0a66,66,0,0,1,17-44v13.59c-.89,1.36-1.73,2.75-2.51,4.2a57,57,0,0,0-6.12,36A57.8,57.8,0,0,0,433.3,292h0a56,56,0,0,0-.67-8.67A57.85,57.85,0,0,0,402.52,241v-.07a57.72,57.72,0,0,0-64,6.64v-14.8a5.82,5.82,0,0,0-5.81-5.8H302a5.81,5.81,0,0,0,0,11.61Z"/><path class="cls-3" d="M383.24,242a57.81,57.81,0,1,1-57.87-57.81h0a57.8,57.8,0,0,1,57.87,57.73V242h0"/><path class="cls-4" d="M352.56,190.89a57.91,57.91,0,0,0-78.15,23.89C259.29,242.85,270.18,278,298.3,293Z"/><path class="cls-5" d="M305.21,239.92h-7.9V234h8.58c2.43-13.38,10.71-19.48,20.35-19.48s15.62,5.17,18.24,11.76L337,230.52c-1.87-5.6-5.17-8.21-10.71-8.21s-10.2,3.8-11.69,11.7H328v5.91H314v1.87a24.81,24.81,0,0,0,.13,3.11h13.94v6H314.79c1.5,7.35,5.17,11.2,11.7,11.2,5.54,0,8.9-2.48,10.95-8.71l7.35,4.42c-3.05,7-9.28,11.89-18.42,11.89s-17.86-5.92-20.35-18.8h-8.65v-6h8a23.85,23.85,0,0,1-.12-2.93v-2.05Z"/><path class="cls-6" d="M152,312.78s9.75,1.39,26.94-1.73c15.26-2.78,36.38-12.82,55.69-7S309.2,343.57,324,346.72s38.62,1.79,60.18-7.64,61.52-26.94,78.59-32.33,28.74,0,31.43,5.39,3.15,8.61-1.34,13.06-42.22,29.15-73.21,48-56.82,31.47-78.59,45.36c-15.31,9.78-29.64,17.52-37.27,17.52-29.19,0-71.58-38.18-109.13-38.18-17.06,0-33.68,7.19-33.68,7.19L142.59,322Z"/><path class="cls-7" d="M119.89,297.68A15.9,15.9,0,0,0,104,313.55a16.08,16.08,0,0,0,.27,2.94,235.19,235.19,0,0,1,3.8,43.19,234.9,234.9,0,0,1-4,43.16,15.9,15.9,0,0,0,12.62,18.6,16.2,16.2,0,0,0,3,.28l29.9.07a16,16,0,0,0,15.59-12.59,231.69,231.69,0,0,0,5.24-49.39,232.73,232.73,0,0,0-5-49.38,16,16,0,0,0-15.53-12.65Z"/><circle class="cls-8" cx="134.34" cy="400.41" r="10"/><path class="cls-9" d="M351.76,379.61l-31.76,4a125.35,125.35,0,0,1-32.15-.06l-49.52-6.44L241,327l55.66,7.48a126.26,126.26,0,0,0,19.91,1.07l31.74-.8a22.56,22.56,0,0,1,23.13,22v1.79h0A22.57,22.57,0,0,1,351.76,379.61Z"/><path class="cls-6" d="M355.46,370l-32.38,5.9a129.42,129.42,0,0,1-33,1.72l-51.2-3.9V322l57.56,4.57a129.91,129.91,0,0,0,20.5,0L349.47,324a23.18,23.18,0,0,1,24.93,21.29h0c.05.61.07,1.22.07,1.83h0A23.18,23.18,0,0,1,355.46,370Z"/><path class="cls-10" d="M345.53,332.74c-1.58.33-4.95,8.3-3.14,16.81,1.93,9.11,5.55,13.09,8.19,12.94,1.48-.09,13.67-1.91,20.45-3,4-4,5.3-9.48,4.64-15.41h0c-.71-6.32-3.58-11.64-8.8-14.53C360.13,330.53,346.51,332.53,345.53,332.74Z"/><path class="cls-11" d="M380,186.5a76.72,76.72,0,0,0-54.54-22.58,5.81,5.81,0,0,0,0,11.61A65.49,65.49,0,1,1,277,197v16.45a5.81,5.81,0,0,0,11.61,0V182.73a5.82,5.82,0,0,0-5.81-5.8H252a5.81,5.81,0,0,0,0,11.61h17a77.13,77.13,0,1,0,111-2Z"/></svg>