<svg xmlns="http://www.w3.org/2000/svg" xmlns:xlink="http://www.w3.org/1999/xlink" viewBox="0 0 600 600"><defs><style>.cls-1{fill:none;}.cls-2{fill:url(#Degradado_sin_nombre_137);}.cls-3{fill:#043263;}.cls-4{fill:#49a5e6;}.cls-5{opacity:0.5;isolation:isolate;fill:url(#Degradado_sin_nombre_23);}.cls-6{fill:#eaf9fa;}.cls-7{fill:#028484;}.cls-8{fill:#2dcccd;}.cls-9{fill:#5ac4c4;}</style><linearGradient id="Degradado_sin_nombre_137" x1="284.46" y1="-4785.26" x2="498.1" y2="-5187.06" gradientTransform="matrix(1, 0, 0, -1, 0, -4654)" gradientUnits="userSpaceOnUse"><stop offset="0" stop-color="#192647" stop-opacity="0.5"/><stop offset="1" stop-color="#192647" stop-opacity="0"/></linearGradient><linearGradient id="Degradado_sin_nombre_23" x1="215.96" y1="-4947.76" x2="370.22" y2="-5102.02" gradientTransform="matrix(1, 0, 0, -1, 0, -4732)" gradientUnits="userSpaceOnUse"><stop offset="0" stop-color="#fff" stop-opacity="0.5"/><stop offset="1" stop-color="#ecf7f8" stop-opacity="0.1"/></linearGradient></defs><title>1</title><g id="Cuadrados_Blancos" data-name="Cuadrados Blancos"><rect class="cls-1" width="600" height="600"/></g><g id="Capa_20" data-name="Capa 20"><path class="cls-2" d="M575.43,183.52a11.52,11.52,0,0,0-.78-1.46,17,17,0,0,0-1.85-2.72,15.58,15.58,0,0,0-5.34-4.08l-1.17-.59a16.6,16.6,0,0,0-18.95,3.11,11.36,11.36,0,0,0-1.07,1.17,27.08,27.08,0,0,0-1.85,2.72l-3,5.54-1.27,2.34h0L469.86,319.32V169a22.36,22.36,0,0,0-22.36-22.36H261.05A22.37,22.37,0,0,0,238.69,169v365.6A22.37,22.37,0,0,0,261.05,557H447.5a22.36,22.36,0,0,0,22.36-22.36V393.78L571.35,204.61l3.5-6.61a15.68,15.68,0,0,0,1.94-8.06A16.25,16.25,0,0,0,575.43,183.52Z"/><path class="cls-3" d="M207.5,96.85H392.4A22.13,22.13,0,0,1,414.5,119v362a22.12,22.12,0,0,1-22.1,22.1H207.5a22.12,22.12,0,0,1-22.1-22.1v-362a22.13,22.13,0,0,1,22.06-22.2Z"/><rect class="cls-4" x="185.4" y="147.85" width="229.2" height="304.3"/><polygon class="cls-5" points="185.7 148.05 185.7 451.95 302.5 452.15 414.5 245.15 414.5 147.85 185.7 148.05"/><path class="cls-6" d="M353.21,402H242.87a22.85,22.85,0,0,1,0-45.69h73.88a13.13,13.13,0,1,0,0-26.25H285.16a4.86,4.86,0,1,1,0-9.72h31.59a22.85,22.85,0,1,1,0,45.69H242.87a13.13,13.13,0,0,0,0,26.25H353.21a4.86,4.86,0,1,1,0,9.72Z"/><path class="cls-7" d="M515.06,123.74h0a16.56,16.56,0,0,1,7.68,22.06l-.29.59-128,238.74-16-9.43Z"/><path class="cls-8" d="M515.06,123.74l-136.68,252L363.61,367,492,130.15a16.63,16.63,0,0,1,21.87-7Z"/><path class="cls-7" d="M365.75,395.83v-5.06l7.29,4.47-4.28,2.43a1.94,1.94,0,0,1-2.72-.77A2.18,2.18,0,0,1,365.75,395.83Z"/><path class="cls-9" d="M368.66,393.88l1.95-3.6,7.87-14.58,16,9.43-17.89,10.79a3.94,3.94,0,0,1-3.88.1Z"/><path class="cls-6" d="M363.61,367l-.1,21.29a3.78,3.78,0,0,0,1.65,3.21l3.41,2.33,9.81-18.17Z"/></g></svg>