<?xml version="1.0" encoding="utf-8"?>
<!-- Generator: Adobe Illustrator 23.0.1, SVG Export Plug-In . SVG Version: 6.00 Build 0)  -->
<svg version="1.1" id="Capa_1" xmlns="http://www.w3.org/2000/svg" xmlns:xlink="http://www.w3.org/1999/xlink" x="0px" y="0px"
	 viewBox="0 0 600 600" style="enable-background:new 0 0 600 600;" xml:space="preserve">
<style type="text/css">
	.st0{fill:url(#SVGID_1_);}
	.st1{fill:#1464A5;}
	.st2{fill:#49A5E6;}
	.st3{opacity:0.5;fill-rule:evenodd;clip-rule:evenodd;fill:url(#SVGID_2_);enable-background:new    ;}
	.st4{fill:#EAF9FA;}
	.st5{fill:#028484;}
	.st6{fill:#2DCCCD;}
	.st7{fill:#004481;}
	.st8{fill:#1973B8;}
	.st9{fill:#5AC4C4;}
</style>
<title>Mesa de trabajo 1 copia 15</title>
<linearGradient id="SVGID_1_" gradientUnits="userSpaceOnUse" x1="202.2803" y1="517.5428" x2="422.0558" y2="930.8743" gradientTransform="matrix(1 0 0 1 0 -400)">
	<stop  offset="0" style="stop-color:#192647"/>
	<stop  offset="0" style="stop-color:#192647;stop-opacity:0.5"/>
	<stop  offset="1" style="stop-color:#192647;stop-opacity:0"/>
</linearGradient>
<path class="st0" d="M501.6,171.3c-0.2-0.5-0.5-1-0.8-1.5c-0.5-1-1.2-1.9-1.9-2.8c-1.5-1.8-3.4-3.2-5.5-4.2l-1.2-0.6
	c-6.5-3.2-14.3-1.9-19.5,3.2c-0.4,0.4-0.8,0.8-1.1,1.2c-0.7,0.9-1.3,1.8-1.9,2.8l-3.1,5.7l-1.3,2.4l0,0L393,311V156.4
	c0-12.7-10.3-23-23-23H178.2c-12.7,0-23,10.3-23,23v376.1c0,12.7,10.3,23,23,23H370c12.7,0,23-10.3,23-23V387.6L497.4,193l3.6-6.8
	c1.4-2.6,2.1-5.4,2-8.3C503,175.6,502.5,173.4,501.6,171.3z"/>
<path class="st1" d="M124.2,80.4H316c12.7,0,23,10.3,23,23v376.1c0,12.7-10.3,23-23,23H124.2c-12.7,0-23-10.3-23-23V103.4
	C101.2,90.7,111.5,80.4,124.2,80.4z"/>
<rect x="101.2" y="133.2" class="st2" width="237.8" height="316.6"/>
<linearGradient id="SVGID_2_" gradientUnits="userSpaceOnUse" x1="113.92" y1="602.22" x2="241.48" y2="729.78" gradientTransform="matrix(1 0 0 1 0 -400)">
	<stop  offset="0" style="stop-color:#FFFFFF;stop-opacity:0.5"/>
	<stop  offset="1" style="stop-color:#EDF8F9;stop-opacity:0.2"/>
	<stop  offset="1" style="stop-color:#FFFFFF;stop-opacity:0"/>
</linearGradient>
<polygon class="st3" points="101.6,133.6 101.6,449.8 133.4,449.8 305.2,133.6 "/>
<g>
	<path class="st4" d="M273,396H159.5c-13,0-23.5-10.5-23.5-23.5s10.5-23.5,23.5-23.5h76c7.4,0,13.5-6.1,13.5-13.5
		s-6.1-13.5-13.5-13.5H203c-2.8,0-5-2.2-5-5s2.2-5,5-5h32.5c13,0,23.5,10.5,23.5,23.5S248.5,359,235.5,359h-76
		c-7.4,0-13.5,6.1-13.5,13.5s6.1,13.5,13.5,13.5H273c2.8,0,5,2.2,5,5S275.8,396,273,396z"/>
</g>
<path class="st5" d="M439.5,109.8L439.5,109.8c8.4,4.1,12,14.3,7.9,22.7c-0.1,0.2-0.2,0.4-0.3,0.6L315.4,378.7l-16.5-9.7
	L439.5,109.8z"/>
<path class="st6" d="M439.5,109.8L298.9,369l-15.2-9l132.1-243.6c4.3-8,14.3-11.2,22.5-7.2L439.5,109.8z"/>
<path class="st5" d="M285.9,389.7v-5.2l7.5,4.6l-4.4,2.5c-1,0.6-2.3,0.2-2.8-0.8C286,390.4,285.9,390.1,285.9,389.7z"/>
<path class="st7" d="M439.5,109.8l-10.3,19.1c5.5,3.2,10,7.8,13,13.4l4.9-9.1c4.5-8.3,1.4-18.6-6.9-23
	C439.9,110,439.7,109.9,439.5,109.8z"/>
<path class="st8" d="M429.1,128.9l10.3-19.1l-1.2-0.6c-8.2-4-18.1-0.9-22.5,7.2l-4.4,8.1C417.6,124.2,423.8,125.7,429.1,128.9z"/>
<path class="st9" d="M288.9,387.7l2-3.7l8.1-15l16.5,9.7l-18.4,11.1c-1.2,0.7-2.7,0.8-4,0.1L288.9,387.7z"/>
<path class="st4" d="M283.7,360l-0.1,21.9c0,1.3,0.6,2.6,1.7,3.3l3.5,2.4l10.1-18.7L283.7,360z"/>
</svg>
