<?xml version="1.0" encoding="utf-8"?>
<!-- Generator: Adobe Illustrator 23.0.1, SVG Export Plug-In . SVG Version: 6.00 Build 0)  -->
<svg version="1.1" id="Capa_1" xmlns="http://www.w3.org/2000/svg" xmlns:xlink="http://www.w3.org/1999/xlink" x="0px" y="0px"
	 viewBox="0 0 600 600" style="enable-background:new 0 0 600 600;" xml:space="preserve">
<style type="text/css">
	.st0{fill:url(#SVGID_1_);}
	.st1{fill:#043263;}
	.st2{fill:#1464A5;}
	.st3{fill:url(#SVGID_2_);}
	.st4{fill:#2DCCCD;}
	.st5{fill:url(#SVGID_3_);}
	.st6{fill:#FFFFFF;}
	.st7{fill:url(#SVGID_4_);}
</style>
<title>Mesa de trabajo 1 copia 17</title>
<linearGradient id="SVGID_1_" gradientUnits="userSpaceOnUse" x1="191.0465" y1="429.9236" x2="462.8365" y2="941.0737" gradientTransform="matrix(1 0 0 1 0 -400)">
	<stop  offset="0" style="stop-color:#192647"/>
	<stop  offset="0" style="stop-color:#192647;stop-opacity:0.5"/>
	<stop  offset="1" style="stop-color:#192647;stop-opacity:0"/>
</linearGradient>
<path class="st0" d="M529.4,426.8V410c32.5-66.9,24.1-146.4-21.6-205c2.5-7.1,0.9-15-4.2-20.4c-38.8-41.5-93-65-149.8-64.9
	c-7.2,0-14.3,0.4-21.5,1.1c-38.5,4-75.1,18.9-105.5,42.9c-8.1,6.4-15.7,13.4-22.8,21c-5.1,5.5-6.8,13.4-4.2,20.4
	c-15.7,20-27.2,43-34.1,67.5c-12.2,0.7-21.8,10.8-21.8,23v74.6c0,2.1,0.3,4.2,0.9,6.2l0,0c0.5,1.8,1.2,3.5,2.1,5.1l0,0
	c0.9,1.6,2,3.1,3.2,4.4l0.1,0.1c0.8,0.9,1.7,1.6,2.6,2.4l0.1,0.1c0.4,0.3,0.9,0.7,1.4,1l0.2,0.1c1,0.6,2,1.2,3,1.6l0.2,0.1
	c0.5,0.2,1,0.4,1.5,0.6l0.3,0.1c0.5,0.2,1.1,0.4,1.6,0.5l0,0c0.6,0.1,1.1,0.2,1.7,0.4l0.3,0.1c0.6,0.1,1.1,0.1,1.7,0.2h0.3
	c0.6,0,1.2,0.1,1.8,0.1h11.9v32.8c0,12,9.7,21.7,21.7,21.7l0,0h269.3l4.4,4.4c-22,20.9-49.2,35.8-78.7,43.1
	c-3.7-3.4-8.6-5.3-13.7-5.4h-64.6c-11.2,0-20.4,9.1-20.4,20.4l0,0c0,11.3,9.1,20.4,20.4,20.4h64.6c4.7,0,9.3-1.6,13-4.7
	c0.5-0.4,1-0.8,1.5-1.3c2.8-2.8,4.8-6.5,5.6-10.4c32.5-8.3,62.3-24.8,86.6-48l36.2,36.1c1.1,1.1,2.9,1.1,4,0c0.5-0.5,0.8-1.2,0.8-2
	v-21.3L529.4,426.8z M436.4,236H202.9c3.7-6.3,7.8-12.3,12.2-18.1h0.1c0.3,0,0.6,0.1,0.9,0.1s0.7,0.1,1,0.1s0.6,0,0.9,0s0.4,0,0.7,0
	h0.4l1-0.1c0.3,0,0.6,0,0.9-0.1s0.7-0.1,1.1-0.1l0.9-0.2c0.4-0.1,0.7-0.2,1-0.3s0.6-0.1,0.9-0.2s0.7-0.2,1-0.4l0.8-0.3
	c0.4-0.1,0.7-0.3,1-0.5s0.5-0.2,0.8-0.4s0.7-0.4,1-0.6s0.5-0.3,0.7-0.4s0.7-0.6,1.1-0.8l0.5-0.4c0.5-0.5,1-0.9,1.5-1.4
	c1-1.1,2-2.1,3-3.1c22.7-23.2,51.9-39.2,83.7-45.7c1.4-0.3,2.8-0.6,4.1-0.8c2.8-0.5,5.6-0.9,8.4-1.3c7.1-0.9,14.2-1.3,21.4-1.4
	c45.8-0.2,89.6,18.8,120.7,52.4c4.6,4.9,11.4,7.2,18.1,6c4.5,5.8,8.6,11.8,12.2,18.1L436.4,236z"/>
<g>
	<path class="st1" d="M293.8,463v-20c96.6,0,175.2-78.6,175.2-175.2S390.4,92.6,293.8,92.6s-175.2,78.6-175.2,175.2h-20
		c0-52.1,20.3-101.2,57.2-138s85.9-57.2,138-57.2c52.1,0,101.2,20.3,138,57.2c36.9,36.9,57.2,85.9,57.2,138
		c0,52.1-20.3,101.2-57.2,138C395,442.7,345.9,463,293.8,463z"/>
</g>
<path class="st1" d="M107,215.4h24.1c1.7,0,3,1.3,3,3V333c0,1.7-1.3,3-3,3H107c-12.7,0-23-10.3-23-23v-74.6
	C84,225.7,94.3,215.4,107,215.4L107,215.4z"/>
<path class="st2" d="M257.3,432.6h64.5c11.3,0,20.4,9.1,20.4,20.4l0,0c0,11.3-9.1,20.4-20.4,20.4h-64.5c-11.3,0-20.4-9.1-20.4-20.4
	l0,0C236.9,441.7,246,432.6,257.3,432.6z"/>
<linearGradient id="SVGID_2_" gradientUnits="userSpaceOnUse" x1="342.3" y1="853" x2="278.7" y2="853" gradientTransform="matrix(1 0 0 1 0 -400)">
	<stop  offset="0" style="stop-color:#043263;stop-opacity:0.8"/>
	<stop  offset="1" style="stop-color:#043263;stop-opacity:0"/>
</linearGradient>
<path class="st3" d="M321.9,432.6h-20.3l-22.9,40.8h43.2c11.3,0,20.4-9.1,20.4-20.4l0,0C342.2,441.7,333.1,432.6,321.9,432.6
	L321.9,432.6z"/>
<path class="st4" d="M447.7,179H140.6c-12,0-21.7,9.7-21.7,21.7l0,0v168.1c0,12,9.7,21.7,21.7,21.7l0,0h269.3l54.7,54.7
	c1.1,1.1,2.9,1.1,4,0c0.5-0.5,0.8-1.2,0.8-2v-21.3V200.7C469.4,188.7,459.7,179,447.7,179L447.7,179z"/>
<linearGradient id="SVGID_3_" gradientUnits="userSpaceOnUse" x1="469.4" y1="712.5125" x2="260.1" y2="712.5125" gradientTransform="matrix(1 0 0 1 0 -400)">
	<stop  offset="0" style="stop-color:#028484;stop-opacity:0.4"/>
	<stop  offset="1" style="stop-color:#028484;stop-opacity:0"/>
</linearGradient>
<path class="st5" d="M447.7,179h-71.4L260.1,390.5h149.8l54.7,54.7c1.1,1.1,2.9,1.1,4,0c0.5-0.5,0.8-1.2,0.8-2v-19.6V200.7
	C469.4,188.7,459.7,179,447.7,179L447.7,179z"/>
<g>
	<path class="st6" d="M398.8,292.7H189.5c-3.9,0-7.1-3.2-7.1-7.1s3.2-7.1,7.1-7.1h209.3c3.9,0,7.1,3.2,7.1,7.1
		S402.7,292.7,398.8,292.7z"/>
</g>
<g>
	<path class="st6" d="M398.8,257.6H189.5c-3.9,0-7.1-3.2-7.1-7.1s3.2-7.1,7.1-7.1h209.3c3.9,0,7.1,3.2,7.1,7.1
		S402.7,257.6,398.8,257.6z"/>
</g>
<g>
	<path class="st6" d="M303.1,327.8H189.5c-3.9,0-7.1-3.2-7.1-7.1s3.2-7.1,7.1-7.1h113.6c3.9,0,7.1,3.2,7.1,7.1
		S307,327.8,303.1,327.8z"/>
</g>
<g>
	<path class="st1" d="M118.6,267.8h-20c0-52.1,20.3-101.2,57.2-138s85.9-57.2,138-57.2v20C197.2,92.6,118.6,171.2,118.6,267.8z"/>
</g>
<path class="st2" d="M443.6,127.6c-3.1-3.3-6.2-6.5-9.6-9.6c-40-37.5-92.2-57.1-147-55.3c-54.8,1.8-105.6,24.8-143,64.8
	c-0.2,0.2-0.4,0.5-0.6,0.7c-0.2,0.3-0.5,0.6-0.7,0.8c0,0-0.1,0.1-0.1,0.1c-4.4,5.9-5.2,13.6-2.3,20.1c0,0,0,0.1,0.1,0.1
	c0.3,0.6,0.5,1.1,0.8,1.6c0.1,0.2,0.2,0.3,0.3,0.5c0.6,1,1.2,1.9,2,2.8c0.4,0.4,0.8,0.9,1.2,1.3c0.1,0.1,0.1,0.1,0.2,0.2l0,0
	c0,0,0,0,0,0c0,0,0,0,0,0c0.5,0.5,1,0.9,1.5,1.3c0.2,0.1,0.3,0.2,0.5,0.4c0.4,0.3,0.7,0.5,1.1,0.8c0.2,0.1,0.4,0.2,0.7,0.4
	c0.3,0.2,0.7,0.4,1,0.6c0.2,0.1,0.5,0.2,0.7,0.3c0.3,0.2,0.7,0.3,1,0.4c0.3,0.1,0.5,0.2,0.8,0.3c0.3,0.1,0.7,0.2,1,0.3
	c0.3,0.1,0.5,0.1,0.8,0.2c0.3,0.1,0.7,0.2,1,0.2c0.3,0,0.6,0.1,0.8,0.1c0.3,0,0.7,0.1,1,0.1c0.3,0,0.6,0,0.9,0c0.2,0,0.4,0,0.7,0
	c0.1,0,0.2,0,0.3,0c0.4,0,0.7,0,1.1-0.1c0.3,0,0.6,0,0.9-0.1c0.4,0,0.7-0.1,1.1-0.2c0.3,0,0.6-0.1,0.9-0.2c0.4-0.1,0.7-0.2,1-0.3
	c0.3-0.1,0.6-0.1,0.9-0.2c0.4-0.1,0.7-0.2,1-0.4c0.3-0.1,0.5-0.2,0.8-0.3c0.4-0.2,0.7-0.3,1-0.5c0.3-0.1,0.5-0.2,0.8-0.4
	c0.4-0.2,0.7-0.4,1-0.6c0.2-0.1,0.5-0.3,0.7-0.4c0.4-0.3,0.7-0.6,1.1-0.8c0.2-0.1,0.4-0.3,0.5-0.4c0.5-0.5,1-0.9,1.5-1.4
	c0,0,0,0,0,0c0,0,0,0,0,0c0,0,0,0,0,0c0,0,0,0,0,0c31.1-33.2,74.9-52.3,120.2-52.3c0.1,0,0.2,0,0.4,0c0.1,0,0.2,0,0.3,0
	c42,0,81.8,15.8,112.7,44.6c2.7,2.5,5.1,5,7.6,7.6c3.9,4.2,9.3,6.4,14.6,6.4c4.9,0,9.8-1.8,13.6-5.4
	C450.7,148.3,451.2,135.6,443.6,127.6z"/>
<path class="st2" d="M107,215.4h24.1c1.7,0,3,1.3,3,3V333c0,1.7-1.3,3-3,3H107c-12.7,0-23-10.3-23-23v-74.6
	C84,225.7,94.3,215.4,107,215.4L107,215.4z"/>
<linearGradient id="SVGID_4_" gradientUnits="userSpaceOnUse" x1="134.1" y1="682.8" x2="84.85" y2="682.8" gradientTransform="matrix(1 0 0 1 0 -400)">
	<stop  offset="0" style="stop-color:#043263;stop-opacity:0.8"/>
	<stop  offset="1" style="stop-color:#043263;stop-opacity:0"/>
</linearGradient>
<path class="st7" d="M84.9,319.3c2.8,9.9,11.8,16.7,22.1,16.8h24.1c1.7,0,3-1.3,3-3V229.5L84.9,319.3z"/>
</svg>
