<svg id="Capa_1" data-name="Capa 1" xmlns="http://www.w3.org/2000/svg" xmlns:xlink="http://www.w3.org/1999/xlink" viewBox="0 0 600 600"><defs><style>.cls-1{fill:url(#Degradado_sin_nombre);}.cls-2{fill:#1464a5;}.cls-3{fill:#49a5e6;}.cls-4{fill-rule:evenodd;opacity:0.5;isolation:isolate;fill:url(#Degradado_sin_nombre_4);}.cls-5{fill:#eaf9fa;}.cls-6{fill:#028484;}.cls-7{fill:#2dcccd;}.cls-8{fill:#004481;}.cls-9{fill:#1973b8;}.cls-10{fill:#5ac4c4;}</style><linearGradient id="Degradado_sin_nombre" x1="286.66" y1="145.14" x2="474.95" y2="499.26" gradientUnits="userSpaceOnUse"><stop offset="0" stop-color="#192647"/><stop offset="0" stop-color="#192647" stop-opacity="0.5"/><stop offset="1" stop-color="#192647" stop-opacity="0"/></linearGradient><linearGradient id="Degradado_sin_nombre_4" x1="129.21" y1="160.72" x2="256.3" y2="287.81" gradientUnits="userSpaceOnUse"><stop offset="0" stop-color="#eaf9fa"/><stop offset="1" stop-color="#eaf9fa" stop-opacity="0.2"/><stop offset="1" stop-color="#eaf9fa" stop-opacity="0.5"/></linearGradient></defs><path class="cls-1" d="M577.12,139.12l-1.11-.56a16.14,16.14,0,0,0-21.25,6.76l-4.13,7.6h.11l-44,81.12H177a23,23,0,0,0-23,23v191.8a23,23,0,0,0,23,23h376.1a23,23,0,0,0,23-23V257a23,23,0,0,0-23-23h-8l34.56-64.44v0l4.6-8.55A15.81,15.81,0,0,0,580.09,141l-.46-.35-.53-.36a16.64,16.64,0,0,0-2-1.17"/><path class="cls-2" d="M511.05,195.55v191.8a23,23,0,0,1-23,23H112a23,23,0,0,1-23-23V195.55a23,23,0,0,1,23-23h376.1A23,23,0,0,1,511.05,195.55Z"/><rect class="cls-3" x="141.7" y="172.55" width="316.6" height="237.8"/><polygon class="cls-3" points="378.19 172.55 250.56 410.35 141.7 410.35 141.7 172.55 378.19 172.55"/><polygon class="cls-4" points="378.19 172.55 250.56 410.35 141.7 410.35 141.7 172.55 378.19 172.55"/><path class="cls-5" d="M365.83,346.26H259.3a22.06,22.06,0,0,1-.94-44.11h72.28a12.68,12.68,0,0,0,0-25.35H300.13a4.69,4.69,0,0,1,0-9.38h30.51a22.06,22.06,0,0,1,0,44.11H259.3a12.67,12.67,0,0,0,0,25.34H365.83a4.7,4.7,0,1,1,.43,9.39Z"/><path class="cls-6" d="M522.11,77.63h0a16,16,0,0,1,7.42,21.31l-.29.56L405.63,330l-15.49-9.1Z"/><path class="cls-7" d="M522.11,77.63l-132,243.29-14.26-8.45,124-228.64A16,16,0,0,1,521,77.07Z"/><path class="cls-6" d="M377.94,340.35v-4.88l7,4.31-4.13,2.35a1.89,1.89,0,0,1-2.58-.65l-.05-.1A2.06,2.06,0,0,1,377.94,340.35Z"/><path class="cls-8" d="M522.11,77.63l-9.67,17.93a31.88,31.88,0,0,1,12.2,12.58l4.6-8.55A15.82,15.82,0,0,0,523,78.11l-.21-.11A5.32,5.32,0,0,0,522.11,77.63Z"/><path class="cls-9" d="M512.35,95.56,522,77.63l-1.13-.56a16,16,0,0,0-21.12,6.76l-4.13,7.6A29.59,29.59,0,0,1,512.35,95.56Z"/><path class="cls-10" d="M380.76,338.47l1.87-3.47,7.61-14.08,15.48,9.1-17.27,10.42a3.8,3.8,0,0,1-3.75.09Z"/><path class="cls-5" d="M375.88,312.47l-.1,20.56a3.66,3.66,0,0,0,1.6,3.09l3.28,2.26,9.48-17.56Z"/></svg>