<svg xmlns="http://www.w3.org/2000/svg" xmlns:xlink="http://www.w3.org/1999/xlink" viewBox="0 0 600 600"><defs><style>.cls-1{fill:none;}.cls-2{fill:url(#Degradado_sin_nombre_4);}.cls-3{fill:#072146;}.cls-4{fill:#043263;}.cls-5{fill:url(#Degradado_sin_nombre_87);}.cls-6{fill:#2dcccd;}.cls-7{fill:url(#Degradado_sin_nombre_55);}.cls-8{fill:#fff;}.cls-9{fill:url(#Degradado_sin_nombre_87-2);}</style><linearGradient id="Degradado_sin_nombre_4" x1="191.05" y1="-10763.92" x2="462.84" y2="-11275.07" gradientTransform="matrix(1, 0, 0, -1, 0, -10734)" gradientUnits="userSpaceOnUse"><stop offset="0" stop-color="#192647"/><stop offset="0" stop-color="#192647" stop-opacity="0.5"/><stop offset="1" stop-color="#192647" stop-opacity="0"/></linearGradient><linearGradient id="Degradado_sin_nombre_87" x1="342.3" y1="-11187" x2="278.7" y2="-11187" gradientTransform="matrix(1, 0, 0, -1, 0, -10734)" gradientUnits="userSpaceOnUse"><stop offset="0" stop-color="#072146" stop-opacity="0.8"/><stop offset="1" stop-color="#072146" stop-opacity="0"/></linearGradient><linearGradient id="Degradado_sin_nombre_55" x1="469.4" y1="-11046.51" x2="260.1" y2="-11046.51" gradientTransform="matrix(1, 0, 0, -1, 0, -10734)" gradientUnits="userSpaceOnUse"><stop offset="0" stop-color="#028484" stop-opacity="0.4"/><stop offset="1" stop-color="#028484" stop-opacity="0"/></linearGradient><linearGradient id="Degradado_sin_nombre_87-2" x1="134.1" y1="-11016.8" x2="84.85" y2="-11016.8" xlink:href="#Degradado_sin_nombre_87"/></defs><title>13</title><g id="Cuadrados_Blancos" data-name="Cuadrados Blancos"><rect class="cls-1" width="600" height="600"/></g><g id="Capa_64" data-name="Capa 64"><path class="cls-2" d="M529.4,426.8V410a194.86,194.86,0,0,0-21.6-205,20,20,0,0,0-4.2-20.4,204.5,204.5,0,0,0-149.8-64.9c-7.2,0-14.3.4-21.5,1.1A204.46,204.46,0,0,0,204,184.7a19.9,19.9,0,0,0-4.2,20.4,194.73,194.73,0,0,0-34.1,67.5,23.11,23.11,0,0,0-21.8,23v74.6a21.63,21.63,0,0,0,.9,6.2h0a22.82,22.82,0,0,0,2.1,5.1h0a23.62,23.62,0,0,0,3.2,4.4l.1.1a29.56,29.56,0,0,0,2.6,2.4l.1.1a17,17,0,0,0,1.4,1l.2.1a21.86,21.86,0,0,0,3,1.6l.2.1,1.5.6.3.1a9.83,9.83,0,0,0,1.6.5h0a10.46,10.46,0,0,1,1.7.4l.3.1c.6.1,1.1.1,1.7.2h.3c.6,0,1.2.1,1.8.1h11.9v32.8a21.68,21.68,0,0,0,21.7,21.7H469.8l4.4,4.4a175.71,175.71,0,0,1-78.7,43.1,20.84,20.84,0,0,0-13.7-5.4H317.2a20.42,20.42,0,0,0-20.4,20.4h0a20.36,20.36,0,0,0,20.4,20.4h64.6a20.18,20.18,0,0,0,13-4.7,17.38,17.38,0,0,0,1.5-1.3,20.8,20.8,0,0,0,5.6-10.4,195.33,195.33,0,0,0,86.6-48l36.2,36.1a2.84,2.84,0,0,0,4,0,2.79,2.79,0,0,0,.8-2V479.1ZM436.4,236H202.9a184.85,184.85,0,0,1,12.2-18.1h.1c.3,0,.6.1.9.1s.7.1,1,.1h2l1-.1a2.77,2.77,0,0,0,.9-.1,3.75,3.75,0,0,1,1.1-.1l.9-.2c.4-.1.7-.2,1-.3s.6-.1.9-.2a4.18,4.18,0,0,0,1-.4l.8-.3a3.13,3.13,0,0,0,1-.5c.3-.2.5-.2.8-.4s.7-.4,1-.6a5.74,5.74,0,0,1,.7-.4c.2-.1.7-.6,1.1-.8l.5-.4c.5-.5,1-.9,1.5-1.4,1-1.1,2-2.1,3-3.1A163,163,0,0,1,320,163.1c1.4-.3,2.8-.6,4.1-.8,2.8-.5,5.6-.9,8.4-1.3a190.64,190.64,0,0,1,21.4-1.4A163.5,163.5,0,0,1,474.6,212a20,20,0,0,0,18.1,6,155,155,0,0,1,12.2,18.1Z"/><path class="cls-3" d="M293.8,463V443C390.4,443,469,364.4,469,267.8S390.4,92.6,293.8,92.6,118.6,171.2,118.6,267.8h-20a195.2,195.2,0,0,1,390.4,0A195.29,195.29,0,0,1,293.8,463Z"/><path class="cls-4" d="M107,215.4h24.1a3,3,0,0,1,3,3V333a3,3,0,0,1-3,3H107a23,23,0,0,1-23-23V238.4a23,23,0,0,1,23-23Z"/><path class="cls-4" d="M257.3,432.6h64.5A20.36,20.36,0,0,1,342.2,453h0a20.36,20.36,0,0,1-20.4,20.4H257.3A20.36,20.36,0,0,1,236.9,453h0A20.36,20.36,0,0,1,257.3,432.6Z"/><path class="cls-5" d="M321.9,432.6H301.6l-22.9,40.8h43.2A20.36,20.36,0,0,0,342.3,453h0a20.49,20.49,0,0,0-20.4-20.4Z"/><path class="cls-6" d="M447.7,179H140.6a21.68,21.68,0,0,0-21.7,21.7h0V368.8a21.68,21.68,0,0,0,21.7,21.7H409.9l54.7,54.7a2.84,2.84,0,0,0,4,0,2.79,2.79,0,0,0,.8-2V200.7A21.68,21.68,0,0,0,447.7,179Z"/><path class="cls-7" d="M447.7,179H376.3L260.1,390.5H409.9l54.7,54.7a2.84,2.84,0,0,0,4,0,2.79,2.79,0,0,0,.8-2V200.7A21.68,21.68,0,0,0,447.7,179Z"/><path class="cls-8" d="M398.8,292.7H189.5a7.1,7.1,0,1,1,0-14.2H398.8a7.1,7.1,0,0,1,0,14.2Z"/><path class="cls-8" d="M398.8,257.6H189.5a7.1,7.1,0,1,1,0-14.2H398.8a7.1,7.1,0,0,1,0,14.2Z"/><path class="cls-8" d="M303.1,327.8H189.5a7.1,7.1,0,0,1,0-14.2H303.1a7.1,7.1,0,0,1,0,14.2Z"/><path class="cls-3" d="M118.6,267.8h-20A195.29,195.29,0,0,1,293.8,72.6v20C197.2,92.6,118.6,171.2,118.6,267.8Z"/><path class="cls-4" d="M443.6,127.6c-3.1-3.3-6.2-6.5-9.6-9.6a205.19,205.19,0,0,0-290,9.5c-.2.2-.4.5-.6.7a5.72,5.72,0,0,1-.7.8l-.1.1a20,20,0,0,0-2.3,20.1.1.1,0,0,0,.1.1c.3.6.5,1.1.8,1.6.1.2.2.3.3.5a17.91,17.91,0,0,0,2,2.8c.4.4.8.9,1.2,1.3l.2.2h0a17.38,17.38,0,0,0,1.5,1.3,1.76,1.76,0,0,1,.5.4l1.1.8a5.74,5.74,0,0,1,.7.4c.3.2.7.4,1,.6s.5.2.7.3a4.18,4.18,0,0,0,1,.4c.3.1.5.2.8.3s.7.2,1,.3.5.1.8.2a3.55,3.55,0,0,0,1,.2c.3,0,.6.1.8.1s.7.1,1,.1h1.9a4.1,4.1,0,0,0,1.1-.1,2.77,2.77,0,0,0,.9-.1,4.25,4.25,0,0,0,1.1-.2,2.92,2.92,0,0,0,.9-.2c.4-.1.7-.2,1-.3s.6-.1.9-.2a3,3,0,0,0,1-.4c.3-.1.5-.2.8-.3a9.29,9.29,0,0,0,1-.5,3,3,0,0,0,.8-.4,8.79,8.79,0,0,0,1-.6c.2-.1.5-.3.7-.4a7.63,7.63,0,0,1,1.1-.8,2.18,2.18,0,0,0,.5-.4c.5-.5,1-.9,1.5-1.4h0a165.4,165.4,0,0,1,120.2-52.3h.7a164.45,164.45,0,0,1,112.7,44.6c2.7,2.5,5.1,5,7.6,7.6a20,20,0,0,0,14.6,6.4,20.06,20.06,0,0,0,14.8-33.5Z"/><path class="cls-4" d="M107,215.4h24.1a3,3,0,0,1,3,3V333a3,3,0,0,1-3,3H107a23,23,0,0,1-23-23V238.4a23,23,0,0,1,23-23Z"/><path class="cls-9" d="M84.9,319.3A23.13,23.13,0,0,0,107,336.1h24.1a3,3,0,0,0,3-3V229.5Z"/></g></svg>