<svg id="Contenido" xmlns="http://www.w3.org/2000/svg" xmlns:xlink="http://www.w3.org/1999/xlink" viewBox="0 0 600 600"><defs><style>.cls-1{fill:url(#Degradado_sin_nombre);}.cls-2{fill:#49a5e6;}.cls-3{fill:#1973b8;}.cls-4{fill:url(#Degradado_sin_nombre_12);}.cls-5{fill:#f8cd50;}.cls-6{fill:#1464a5;}.cls-7{fill:url(#Degradado_sin_nombre_11);}.cls-8{fill:url(#Degradado_sin_nombre_11-2);}.cls-9{fill:#39cbcb;}.cls-10{fill:url(#Degradado_sin_nombre_2);}.cls-11{fill:url(#Degradado_sin_nombre_2-2);}.cls-12{fill:none;}</style><linearGradient id="Degradado_sin_nombre" x1="262.58" y1="424.13" x2="425.99" y2="116.82" gradientTransform="matrix(1, 0, 0, -1, 0, 602)" gradientUnits="userSpaceOnUse"><stop offset="0" stop-color="#192647" stop-opacity="0.5"/><stop offset="1" stop-color="#192647" stop-opacity="0"/></linearGradient><linearGradient id="Degradado_sin_nombre_12" x1="306.57" y1="342.79" x2="213.82" y2="342.79" gradientTransform="matrix(1, 0, 0, -1, 0, 602)" gradientUnits="userSpaceOnUse"><stop offset="0" stop-color="#043263" stop-opacity="0.5"/><stop offset="1" stop-color="#043263" stop-opacity="0"/></linearGradient><linearGradient id="Degradado_sin_nombre_11" x1="193.75" y1="460.07" x2="216.12" y2="437.7" gradientTransform="matrix(1, 0, 0, -1, 0, 602)" gradientUnits="userSpaceOnUse"><stop offset="0" stop-color="#fff" stop-opacity="0.5"/><stop offset="1" stop-color="#fff" stop-opacity="0"/></linearGradient><linearGradient id="Degradado_sin_nombre_11-2" x1="253.48" y1="460.08" x2="275.84" y2="437.71" xlink:href="#Degradado_sin_nombre_11"/><linearGradient id="Degradado_sin_nombre_2" x1="867.14" y1="647.81" x2="732" y2="647.81" gradientTransform="translate(-322.05 -402.31) rotate(4.57)" gradientUnits="userSpaceOnUse"><stop offset="0" stop-color="#028484" stop-opacity="0.5"/><stop offset="1" stop-color="#028484" stop-opacity="0"/></linearGradient><linearGradient id="Degradado_sin_nombre_2-2" x1="587.66" y1="754.84" x2="476.44" y2="754.84" xlink:href="#Degradado_sin_nombre_2"/></defs><title>sostenibilidad</title><path class="cls-1" d="M554.83,288.39q0-3.66-.12-7.48a1.55,1.55,0,0,0-.6-1.15c-.65-1-1.87-1.47-3.73-1.47-125.25,1.25-142.3,93.08-143.71,133.57a45.17,45.17,0,0,0-17.9-3.69H331.31a18.23,18.23,0,0,1-18.2-18.2V364.51h3.35a3,3,0,0,0,3-3h0v-7h32.85a13.9,13.9,0,0,0,9.86-4.07,14.18,14.18,0,0,0,2.39-3.22,12.52,12.52,0,0,0,1.06-2.5,13.86,13.86,0,0,0,.63-4.14V255a3,3,0,0,0,3-3h0v-7a10,10,0,0,0-9.95-9.95H339.31V185.37a9.93,9.93,0,0,0-17.77-6.14,9.17,9.17,0,0,0-.94,1.39,9.94,9.94,0,0,0-1.14,4.75v49.78H279.58V185.37a9.88,9.88,0,0,0-1.83-5.75A10.18,10.18,0,0,0,276,177.7a9,9,0,0,0-.77-.57,9.9,9.9,0,0,0-10.62-.3,9.76,9.76,0,0,0-1.91,1.46h0l-.07.06a9.93,9.93,0,0,0-2.85,7v40.61h0v9.19h-20a10,10,0,0,0-10,9.95h0v7a3,3,0,0,0,3,3h0v85.61a13.94,13.94,0,0,0,13.93,13.94h32.84v7a3,3,0,0,0,3,3h3.32v25.4a45.42,45.42,0,0,0,45.37,45.37h57.45a18.22,18.22,0,0,1,0,36.43H258.82c-8.87-83.88-84.29-84.2-100.32-83.3a3.29,3.29,0,0,0-3.07,2.78.81.81,0,0,0,0,.22.29.29,0,0,0,0,.13.11.11,0,0,1,0,.08c0,2.05,0,5.07.18,8.78a.74.74,0,0,1,0,.21,9.06,9.06,0,0,0,.07,1V403l.07.91v.48c0,.41.08.82.12,1.23v.23c2.75,27.08,16.79,77.24,82.29,83.44a13.57,13.57,0,0,0,13.12,9.69H388.77a45.37,45.37,0,0,0,39-68.55C468.49,427.17,555.23,406.51,554.83,288.39Z"/><path class="cls-2" d="M329.13,362.54H271.68a18.21,18.21,0,0,1-18.2-18.2V314a13.6,13.6,0,0,0-27.18,0v30.38a45.42,45.42,0,0,0,45.38,45.36h57.45a18.23,18.23,0,0,1,0,36.44H191.67a13.58,13.58,0,1,0,0,27.16H329.13a45.39,45.39,0,1,0,0-90.77Z"/><path class="cls-3" d="M173.16,295.05V209.44H306.54v85.61A13.94,13.94,0,0,1,292.6,309H187.1A13.94,13.94,0,0,1,173.16,295.05Z"/><path class="cls-4" d="M266.75,209.44,213.82,309h78.79a13.92,13.92,0,0,0,14-13.91V209.44Z"/><path class="cls-5" d="M200,189.48V139.72a10,10,0,0,1,10-9.95h0a10,10,0,0,1,9.95,9.95h0v49.76H200Z"/><path class="cls-5" d="M259.76,189.53V139.76a10,10,0,0,1,9.95-9.95h0a10,10,0,0,1,10,9.95h0v49.77h-19.9Z"/><path class="cls-6" d="M170.18,206.45v-7a10,10,0,0,1,9.95-10h119.5a10,10,0,0,1,10,10h0v7a3,3,0,0,1-3,3H173.17a3,3,0,0,1-3-3Z"/><path class="cls-6" d="M220,316v-7h39.81v7a3,3,0,0,1-3,3H222.94a3,3,0,0,1-3-3Z"/><path class="cls-2" d="M203,237.81h73.66a3,3,0,0,1,3,3h0a3,3,0,0,1-3,3H203a3,3,0,0,1-3-3h0A3,3,0,0,1,203,237.81Z"/><path class="cls-2" d="M203,250.08h73.66a3,3,0,0,1,3,3h0a3,3,0,0,1-3,3H203a3,3,0,0,1-3-3h0A3,3,0,0,1,203,250.08Z"/><path class="cls-2" d="M203,262.37h73.66a3,3,0,0,1,3,3h0a3,3,0,0,1-3,3H203a3,3,0,0,1-3-3h0A3,3,0,0,1,203,262.37Z"/><path class="cls-2" d="M203,274.64h73.66a3,3,0,0,1,3,3h0a3,3,0,0,1-3,3H203a3,3,0,0,1-3-3h0A3,3,0,0,1,203,274.64Z"/><path class="cls-7" d="M220,139.76a10,10,0,0,0-19.92,0v40.61L220,142.92Z"/><path class="cls-8" d="M279.68,139.76a10,10,0,0,0-19.92,0v40.61l19.92-37.45Z"/><path class="cls-9" d="M490.73,232.66c-147.48,1.47-144.93,128.5-143.5,149.49a3.32,3.32,0,0,0,3.19,3.07c21.13.72,148.93-1.08,144.67-148.75C495,233.94,493.73,232.66,490.73,232.66Z"/><path class="cls-10" d="M350.43,384.58c21.22.71,149.17-1.15,144.65-149.27a1.65,1.65,0,0,0-2.82-1.05L349.51,382.32a1.33,1.33,0,0,0,0,1.88A1.38,1.38,0,0,0,350.43,384.58Z"/><path class="cls-9" d="M200,442.36c-.33-100.11-84.17-100.48-101.17-99.54a3.32,3.32,0,0,0-3.12,3.23c-.37,17.1,2.82,101.66,102.8,98.12C199.78,444.07,200,443.43,200,442.36Z"/><path class="cls-11" d="M95.75,345.83c-.42,16.61,2.38,102.06,103,98.36a.69.69,0,0,0,.75-.61.7.7,0,0,0-.3-.62L97.86,345a1.24,1.24,0,0,0-1.74,0h0A1.22,1.22,0,0,0,95.75,345.83Z"/><rect class="cls-12" width="600" height="600"/></svg>