<svg xmlns="http://www.w3.org/2000/svg" xmlns:xlink="http://www.w3.org/1999/xlink" viewBox="0 0 600 600"><defs><style>.cls-1{fill:none;}.cls-2{fill:url(#Degradado_sin_nombre_47);}.cls-3{fill:#072146;}.cls-4{fill:#d4edfc;}.cls-5{fill:url(#Degradado_sin_nombre_10);}.cls-6{fill:#043263;}.cls-7{fill:#c49735;}.cls-8{fill:#fff;}.cls-9{fill:#f8cd50;}.cls-10{opacity:0.35;}.cls-11{fill:#49a5e6;}.cls-12{fill:#28ad68;}</style><linearGradient id="Degradado_sin_nombre_47" x1="241.3" y1="-1917.34" x2="458.87" y2="-2326.52" gradientTransform="matrix(1, 0, 0, -1, 0, -1762)" gradientUnits="userSpaceOnUse"><stop offset="0" stop-color="#192647" stop-opacity="0.5"/><stop offset="1" stop-color="#192647" stop-opacity="0"/></linearGradient><linearGradient id="Degradado_sin_nombre_10" x1="446.35" y1="-2054.3" x2="182.71" y2="-2054.3" gradientTransform="matrix(1, 0, 0, -1, 0, -1762)" gradientUnits="userSpaceOnUse"><stop offset="0" stop-color="#043263" stop-opacity="0.1"/><stop offset="1" stop-color="#043263" stop-opacity="0"/></linearGradient></defs><title>4</title><g id="Cuadrados_Blancos" data-name="Cuadrados Blancos"><rect class="cls-1" width="600" height="600"/></g><g id="Capa_7" data-name="Capa 7"><path class="cls-2" d="M516.17,304.66l-14.74-10.27L501.15,174h0v-.32a1.31,1.31,0,0,0,0-.28,1.06,1.06,0,0,0-.1-.3,2,2,0,0,0-.08-.26,1.51,1.51,0,0,0-.15-.28,1.71,1.71,0,0,0-.13-.23l-.2-.24a1.56,1.56,0,0,0-.16-.2,3.11,3.11,0,0,0-.28-.23l-.17-.14-.3-.16-.21-.11a2,2,0,0,0-.41-.13h-.15a3.05,3.05,0,0,0-.6-.06H212.55a3.24,3.24,0,0,0-3.24,3.24h0V294.74l-14.23,9.92a23,23,0,0,0-9.86,18.87V515a23,23,0,0,0,23,23H503a23,23,0,0,0,23-23V323.53A23,23,0,0,0,516.17,304.66Z"/><path class="cls-3" d="M139.45,250.16,300,138.38,460.55,250.16A23,23,0,0,1,470.41,269V328.2H129.59V269A23,23,0,0,1,139.45,250.16Z"/><path class="cls-4" d="M442.52,116.5H156.92a3.23,3.23,0,0,0-3.23,3.23h0v348H442.3a4,4,0,0,0,4-4l-.57-241.4-.21-102.84A3,3,0,0,0,442.52,116.5Z"/><path class="cls-5" d="M373.31,116.5,182.71,468.11H442.35c2.19,0,4-2.24,4-4.43l-.83-344.18a3,3,0,0,0-3-3Z"/><path class="cls-6" d="M297.84,360.56l-168.25-75.5V460.5a23,23,0,0,0,23,23H273a24.8,24.8,0,0,0,24.8-24.8h0Z"/><path class="cls-6" d="M302.16,360.56l168.25-75.5V460.5a23,23,0,0,1-23,23H327a24.8,24.8,0,0,1-24.8-24.8h0Z"/><path class="cls-3" d="M470.41,458.7,312.65,354.86a23,23,0,0,0-25.3,0L129.59,458.7v1.8a23,23,0,0,0,23,23H447.41a23,23,0,0,0,23-23Z"/><polygon class="cls-7" points="405 304.5 394 294.7 383 304.5 383 261 405 261.1 405 304.5"/><circle class="cls-8" cx="394" cy="267.9" r="22.1"/><circle class="cls-9" cx="394" cy="267.9" r="14.7"/><g class="cls-10"><path class="cls-11" d="M259.49,248.84h-67.4a5,5,0,0,1,0-10h67.4a5,5,0,0,1,0,10Z"/></g><g class="cls-10"><path class="cls-11" d="M328.39,276.94H192.09a5,5,0,1,1,0-10h136.3a5,5,0,0,1,0,10Z"/></g><g class="cls-10"><path class="cls-11" d="M328.39,304.94H192.09a5,5,0,1,1,0-10h136.3a5,5,0,0,1,0,10Z"/></g><path class="cls-12" d="M240.1,141A65.1,65.1,0,1,1,175,75.9h0A65.1,65.1,0,0,1,240.1,141"/><path class="cls-8" d="M161.6,170.2a5.83,5.83,0,0,1-4.1-1.7l-20.1-20a5.8,5.8,0,0,1,8.2-8.2l16,15.9,42.8-42.7a5.8,5.8,0,1,1,8.2,8.2l-46.9,46.8A5.83,5.83,0,0,1,161.6,170.2Z"/></g></svg>