<svg xmlns="http://www.w3.org/2000/svg" xmlns:xlink="http://www.w3.org/1999/xlink" viewBox="0 0 600 600"><defs><style>.cls-1{fill:none;}.cls-2{fill:url(#Degradado_sin_nombre_140);}.cls-3{fill:#043263;}.cls-4{fill:url(#Degradado_sin_nombre_59);}.cls-5{fill:#004481;}.cls-6{fill:#2dcccd;}</style><linearGradient id="Degradado_sin_nombre_140" x1="269.07" y1="-4427.53" x2="454.5" y2="-4776.29" gradientTransform="matrix(1, 0, 0, -1, 0, -4254)" gradientUnits="userSpaceOnUse"><stop offset="0" stop-color="#192647" stop-opacity="0.5"/><stop offset="1" stop-color="#192647" stop-opacity="0"/></linearGradient><linearGradient id="Degradado_sin_nombre_59" x1="460.01" y1="-4554" x2="208.67" y2="-4554" gradientTransform="matrix(1, 0, 0, -1, 0, -4254)" gradientUnits="userSpaceOnUse"><stop offset="0" stop-color="#072146" stop-opacity="0.8"/><stop offset="1" stop-color="#072146" stop-opacity="0.2"/></linearGradient></defs><title>1</title><g id="Cuadrados_Blancos" data-name="Cuadrados Blancos"><rect class="cls-1" width="600" height="600"/></g><g id="Capa_24" data-name="Capa 24"><path class="cls-2" d="M486,206H214a24,24,0,0,0-24,24V421.5a24,24,0,0,0,24,24H457l47.67,47.61a3.12,3.12,0,0,0,5.33-2.22V230A24,24,0,0,0,486,206Z"/><path class="cls-3" d="M436,156H164a24,24,0,0,0-24,24V371.5a24,24,0,0,0,24,24H407l47.68,47.58a3.14,3.14,0,0,0,4.43,0,3.17,3.17,0,0,0,.91-2.22V180a24,24,0,0,0-24-24Z"/><path class="cls-4" d="M436,156H377.13L208.67,395.47H407l47.7,47.61a3.14,3.14,0,0,0,4.43,0,3.17,3.17,0,0,0,.91-2.22V180a24,24,0,0,0-24-24Z"/><path class="cls-5" d="M247.33,295.51a27.08,27.08,0,1,1-27.1-27.08h0a27.1,27.1,0,0,1,27.1,27.08"/><path class="cls-6" d="M222,308.2h-4v-6.61h-5.82v-2.72H218V297h-5.86v-2.72h4.63l-6.35-11.45H215l5.19,10.33,5.45-10.33h4.45l-6.77,11.45h4.61V297H222v1.89h5.9v2.72H222Z"/><path class="cls-5" d="M314.37,282a40.62,40.62,0,1,1-40.64-40.62h0A40.62,40.62,0,0,1,314.37,282v0"/><path class="cls-6" d="M285.73,301.32H261v-3.84l.34-.17a10.64,10.64,0,0,0,6.12-9.36,23.45,23.45,0,0,0-.2-3.35h-5.92v-4.81h5.16a36.05,36.05,0,0,1-.51-5.5c0-6.87,4.73-11.67,11.5-11.67a12.28,12.28,0,0,1,6.5,1.51l.41.25-1.5,4.93-.67-.37a9.74,9.74,0,0,0-4.74-1.06c-4.89,0-5.61,4.05-5.61,6.46a27.7,27.7,0,0,0,.57,5.45h8.25v4.81H273a18.72,18.72,0,0,1-.3,5.88,12,12,0,0,1-3.07,5.46h16.07Z"/><path class="cls-5" d="M398.12,268.47a54.16,54.16,0,1,1-54.21-54.11h0a54.14,54.14,0,0,1,54.2,54.08v0"/><path class="cls-6" d="M350.3,279.16c0-3.56-1.4-5-8.2-8-9.78-4.39-12.6-7.79-12.6-14.58s5.47-11.52,11-12.93v-8.29h.33l7.95,3.48v4.56a18.36,18.36,0,0,1,7.13,2.49l.41.24.25.17-.08.33-.08.5-1,6.3-.16,1.16-.09.83-.66-.5-.91-.75a14.83,14.83,0,0,0-9-3.15c-4.15,0-6.47,1.91-6.47,5.06s1.49,4.31,8.12,7.37c9.78,4.48,12.93,8,12.93,15.25,0,6.72-4.72,11.69-10.27,13.51v9.53h-.67l-7.62-4.31v-4.64a36.37,36.37,0,0,1-10.86-3.07l-.49-.24-.34-.17V289l.09-.5.91-6.46.16-1.16.09-.75.66.42.91.58a21.12,21.12,0,0,0,11.52,3.72c4.39.17,7-2.07,7-5.63"/></g></svg>