<svg xmlns="http://www.w3.org/2000/svg" xmlns:xlink="http://www.w3.org/1999/xlink" viewBox="0 0 600 600"><defs><style>.cls-1{fill:url(#Degradado_sin_nombre);}.cls-2{fill:#043263;}.cls-3{fill:#d4edfc;}.cls-4{fill:url(#Degradado_sin_nombre_2);}.cls-5{fill:#49a5e6;}.cls-6{fill:#1464a5;}.cls-7{fill:#004481;}.cls-8{fill:#da3851;}.cls-9{fill:url(#Degradado_sin_nombre_3);}.cls-10{fill:none;}</style><linearGradient id="Degradado_sin_nombre" x1="234.72" y1="1505.85" x2="466.67" y2="1942.1" gradientTransform="translate(0 -1382.25)" gradientUnits="userSpaceOnUse"><stop offset="0" stop-color="#192647" stop-opacity="0.5"/><stop offset="1" stop-color="#192647" stop-opacity="0"/></linearGradient><linearGradient id="Degradado_sin_nombre_2" x1="429.18" y1="-1790.61" x2="148.58" y2="-1790.61" gradientTransform="matrix(1, 0, 0, -1, 0, -1501.06)" gradientUnits="userSpaceOnUse"><stop offset="0" stop-color="#043263" stop-opacity="0.1"/><stop offset="1" stop-color="#043263" stop-opacity="0"/></linearGradient><linearGradient id="Degradado_sin_nombre_3" x1="475.07" y1="-1202.04" x2="378.93" y2="-1202.04" gradientTransform="matrix(1, 0, 0, -1, 0, -1099.06)" gradientUnits="userSpaceOnUse"><stop offset="0" stop-color="#da3851" stop-opacity="0.8"/><stop offset="1" stop-color="#7d3851" stop-opacity="0"/></linearGradient></defs><g id="Capa_1" data-name="Capa 1"><path class="cls-1" d="M496.4,314.7l-17.8-12.4V253.8l-.28-71.28c9-7.84,16.76-15.11,22.68-22.35,9.65-11.63,14.11-22.67,14.11-34.74-.07-11.78-4-22.53-11.26-30.43A38.4,38.4,0,0,0,475.4,82.57,36.36,36.36,0,0,0,453,90.25a44.87,44.87,0,0,0-9,9.51,44.71,44.71,0,0,0-9.07-9.51,35.37,35.37,0,0,0-22.38-7.68A38,38,0,0,0,384,95c-7.31,7.9-11.26,18.73-11.26,30.43A47.12,47.12,0,0,0,378.6,148h-189a3.22,3.22,0,0,0-3.2,3.2V306.9l-11.1,7.7a23.05,23.05,0,0,0-9.9,18.9V525a23,23,0,0,0,23,23H483.2a23,23,0,0,0,23-23V333.5A22.77,22.77,0,0,0,496.4,314.7Z"/><path class="cls-2" d="M125.3,264.7,285.8,152.9,446.4,264.7a23.05,23.05,0,0,1,9.9,18.9v59.2H115.4V283.6A22.92,22.92,0,0,1,125.3,264.7Z"/><path class="cls-3" d="M425.2,98H139.6a3.22,3.22,0,0,0-3.2,3.2h0V481.1H428.6V203.8L428.2,101A3,3,0,0,0,425.2,98Z"/><path class="cls-4" d="M356.18,98,148.58,481l276.6.1a4,4,0,0,0,4-4l-1-376.1a3,3,0,0,0-3-3Z"/><path class="cls-5" d="M241.7,230.2H174.3a5,5,0,0,1,0-10h67.4a5,5,0,0,1,0,10Z"/><path class="cls-5" d="M390.6,258.3H174.3a5,5,0,0,1,0-10H390.6a5,5,0,0,1,0,10Z"/><path class="cls-5" d="M390.6,286.3H174.3a5,5,0,0,1,0-10H390.6a5,5,0,0,1,0,10Z"/><path class="cls-6" d="M283.7,375.1,115.5,299.6V475a23,23,0,0,0,23,23H258.9a24.8,24.8,0,0,0,24.8-24.8h0Z"/><path class="cls-6" d="M288,375.1l168.2-75.5V475a23,23,0,0,1-23,23H312.8A24.8,24.8,0,0,1,288,473.2Z"/><path class="cls-7" d="M456.2,473.2,298.5,369.4a22.83,22.83,0,0,0-25.3,0L115.4,473.2V475a23,23,0,0,0,23,23H433.2a23,23,0,0,0,23-23Z"/><path class="cls-8" d="M463.85,52A38.4,38.4,0,0,0,435.4,39.57,36.36,36.36,0,0,0,413,47.25a44.87,44.87,0,0,0-9,9.51,44.71,44.71,0,0,0-9.07-9.51,35.37,35.37,0,0,0-22.38-7.68A38,38,0,0,0,344,52c-7.31,7.9-11.26,18.73-11.26,30.43,0,12,4.46,23.11,14.12,34.74,8.63,10.39,21,21,35.32,33.21,4.9,4.17,10.39,8.92,16.24,14a8.25,8.25,0,0,0,11,0c5.78-5,11.34-9.8,16.24-14C440,138.16,452.44,127.63,461,117.17c9.65-11.63,14.11-22.67,14.11-34.74C475,70.65,471.09,59.9,463.85,52Z"/><path class="cls-9" d="M463.85,52a38.65,38.65,0,0,0-26.19-12.36L379.08,147.53l3.22,2.7c4.9,4.17,10.38,8.92,16.23,14a8.25,8.25,0,0,0,11,0c5.78-5,11.34-9.8,16.24-14C440.11,138,452.54,127.48,461.1,117c9.65-11.63,14.12-22.68,14.12-34.75C475,70.65,471.09,59.9,463.85,52Z"/></g><g id="Capa_2" data-name="Capa 2"><rect class="cls-10" width="600" height="600"/></g></svg>