<?xml version="1.0" encoding="utf-8"?>
<!-- Generator: Adobe Illustrator 23.0.1, SVG Export Plug-In . SVG Version: 6.00 Build 0)  -->
<svg version="1.1" id="Capa_1" xmlns="http://www.w3.org/2000/svg" xmlns:xlink="http://www.w3.org/1999/xlink" x="0px" y="0px"
	 viewBox="0 0 600 600" style="enable-background:new 0 0 600 600;" xml:space="preserve">
<style type="text/css">
	.st0{fill:url(#SVGID_1_);}
	.st1{fill:#043263;}
	.st2{fill:#D4EDFC;}
	.st3{fill:url(#SVGID_2_);}
	.st4{fill:#49A5E6;}
	.st5{fill:#1464A5;}
	.st6{fill:#004481;}
	.st7{fill:#C49735;}
	.st8{fill:#FFFFFF;}
	.st9{fill:#F8CD50;}
	.st10{fill:#D72544;}
</style>
<title>Mesa de trabajo 1 copia 5</title>
<g>
	<g>
		
			<linearGradient id="SVGID_1_" gradientUnits="userSpaceOnUse" x1="211.7024" y1="515.2965" x2="443.6604" y2="951.5451" gradientTransform="matrix(1 0 0 1 0 -400)">
			<stop  offset="0" style="stop-color:#192647"/>
			<stop  offset="0" style="stop-color:#192647;stop-opacity:0.5"/>
			<stop  offset="1" style="stop-color:#192647;stop-opacity:0"/>
		</linearGradient>
		<path class="st0" d="M495.4,294.7l-17.8-12.4v-48.5L477.2,131c0-1.7-1.3-3-3-3H188.6c-1.8,0-3.2,1.5-3.2,3.2l0,0v155.7l-11.1,7.7
			c-6.2,4.3-9.9,11.4-9.9,18.9V505c0,12.7,10.3,23,23,23h294.8c12.7,0,23-10.3,23-23V313.5C505.2,306,501.6,299,495.4,294.7z"/>
		<path class="st1" d="M124.3,244.7l160.5-111.8l160.6,111.8c6.2,4.3,9.9,11.4,9.9,18.9v59.2H114.4v-59.2
			C114.4,256,118.1,249,124.3,244.7z"/>
		<path class="st2" d="M424.2,78H138.6c-1.8,0-3.2,1.5-3.2,3.2l0,0v379.9h292.2V183.8L427.2,81C427.2,79.3,425.9,78,424.2,78z"/>
		
			<linearGradient id="SVGID_2_" gradientUnits="userSpaceOnUse" x1="428" y1="669.55" x2="147.4" y2="669.55" gradientTransform="matrix(1 0 0 1 0 -400)">
			<stop  offset="0" style="stop-color:#043263;stop-opacity:0.1"/>
			<stop  offset="1" style="stop-color:#043263;stop-opacity:0"/>
		</linearGradient>
		<path class="st3" d="M355,78L147.4,461l276.6,0.1c2.2,0,4-1.8,4-4L427,81c0-1.7-1.3-3-3-3H355z"/>
		<g>
			<path class="st4" d="M240.7,210.2h-67.4c-2.8,0-5-2.2-5-5s2.2-5,5-5h67.4c2.8,0,5,2.2,5,5S243.5,210.2,240.7,210.2z"/>
		</g>
		<g>
			<path class="st4" d="M309.6,238.3H173.3c-2.8,0-5-2.2-5-5s2.2-5,5-5h136.3c2.8,0,5,2.2,5,5S312.4,238.3,309.6,238.3z"/>
		</g>
		<g>
			<path class="st4" d="M309.6,266.3H173.3c-2.8,0-5-2.2-5-5s2.2-5,5-5h136.3c2.8,0,5,2.2,5,5S312.4,266.3,309.6,266.3z"/>
		</g>
		<path class="st5" d="M282.7,355.1l-168.2-75.5V455c0,12.7,10.3,23,23,23h120.4c13.7,0,24.8-11.1,24.8-24.8l0,0V355.1z"/>
		<path class="st5" d="M287,355.1l168.2-75.5V455c0,12.7-10.3,23-23,23H311.8c-13.7,0-24.8-11.1-24.8-24.8V355.1z"/>
		<path class="st6" d="M455.2,453.2L297.5,349.4c-7.7-5.1-17.6-5.1-25.3,0L114.4,453.2v1.8c0,12.7,10.3,23,23,23h294.8
			c12.7,0,23-10.3,23-23L455.2,453.2L455.2,453.2z"/>
		<polygon class="st7" points="387,289.4 376,279.6 365,289.4 365,245.9 387,246 		"/>
		<circle class="st8" cx="376" cy="252.8" r="22.1"/>
		<circle class="st9" cx="376" cy="252.8" r="14.7"/>
		<path class="st10" d="M148.9,39.4l-70,121.3c-1,1.7-0.4,3.8,1.3,4.8c0.5,0.3,1.1,0.5,1.7,0.5H222c1.9,0,3.5-1.6,3.5-3.5
			c0-0.6-0.2-1.2-0.5-1.7L155,39.4c-1-1.7-3.1-2.3-4.8-1.3C149.7,38.4,149.2,38.9,148.9,39.4z"/>
		<g>
			<path class="st8" d="M151.4,124.4c-3.2,0-5.8-2.6-5.8-5.8V84.7c0-3.2,2.6-5.8,5.8-5.8s5.8,2.6,5.8,5.8v33.9
				C157.2,121.8,154.6,124.4,151.4,124.4z"/>
		</g>
		<g>
			<path class="st8" d="M151.4,143c-0.4,0-0.8,0-1.1-0.1c-0.4-0.1-0.7-0.2-1.1-0.3c-0.4-0.1-0.7-0.3-1-0.5c-0.3-0.2-0.6-0.5-0.9-0.7
				c-1.1-1.1-1.7-2.6-1.7-4.1c0-0.4,0-0.8,0.1-1.1c0.1-0.4,0.2-0.7,0.3-1.1c0.1-0.4,0.3-0.7,0.5-1c0.2-0.3,0.5-0.6,0.7-0.9
				c0.3-0.3,0.6-0.5,0.9-0.7c0.3-0.2,0.7-0.4,1-0.5c0.4-0.1,0.7-0.3,1.1-0.3c1.9-0.4,3.9,0.2,5.3,1.6c0.3,0.3,0.5,0.6,0.7,0.9
				c0.2,0.3,0.4,0.7,0.5,1c0.1,0.4,0.3,0.7,0.3,1.1c0.1,0.4,0.1,0.8,0.1,1.1c0,1.5-0.6,3-1.7,4.1C154.4,142.4,152.9,143,151.4,143z"
				/>
		</g>
	</g>
</g>
</svg>
