<svg id="Contenido" xmlns="http://www.w3.org/2000/svg" xmlns:xlink="http://www.w3.org/1999/xlink" viewBox="0 0 600 600"><defs><style>.cls-1{fill:url(#Degradado_sin_nombre_7);}.cls-2{fill:#1973b8;}.cls-3{fill:url(#Degradado_sin_nombre_13);}.cls-4{fill:#043263;}.cls-5{fill:#2dcccd;}</style><linearGradient id="Degradado_sin_nombre_7" x1="270.1" y1="173.53" x2="455.52" y2="522.27" gradientUnits="userSpaceOnUse"><stop offset="0" stop-color="#192647"/><stop offset="0" stop-color="#192647" stop-opacity="0.5"/><stop offset="1" stop-color="#192647" stop-opacity="0"/></linearGradient><linearGradient id="Degradado_sin_nombre_13" x1="461.32" y1="300" x2="210.02" y2="300" gradientUnits="userSpaceOnUse"><stop offset="0" stop-color="#004481" stop-opacity="0.4"/><stop offset="1" stop-color="#004481" stop-opacity="0"/></linearGradient></defs><title>GLOMO</title><path class="cls-1" d="M487,206H215a24,24,0,0,0-24,24V421.5a24,24,0,0,0,24,24H458l47.67,47.61a3.12,3.12,0,0,0,5.33-2.22l0-17.52V230A24,24,0,0,0,487,206Z"/><path class="cls-2" d="M437.32,156h-272a24,24,0,0,0-24,24V371.5a24,24,0,0,0,24,24h243L456,443.08a3.13,3.13,0,0,0,5.34-2.22l0-17.52V180A24,24,0,0,0,437.32,156Z"/><path class="cls-3" d="M437.32,156H378.46L210,395.47h198.3L456,443.08a3.13,3.13,0,0,0,5.34-2.22l0-15.95V180A24,24,0,0,0,437.32,156Z"/><path class="cls-4" d="M248.66,295.51a27.08,27.08,0,1,1-27.1-27.08h0a27.09,27.09,0,0,1,27.1,27.08"/><path class="cls-5" d="M223.32,308.2h-4v-6.61H213.5v-2.72h5.86V297H213.5v-2.72h4.63l-6.35-11.45h4.51l5.19,10.33,5.45-10.33h4.45l-6.77,11.45h4.61V297h-5.9v1.89h5.9v2.72h-5.9Z"/><path class="cls-4" d="M315.7,282a40.62,40.62,0,1,1-40.64-40.62h0A40.62,40.62,0,0,1,315.7,282"/><path class="cls-5" d="M287.06,301.32H262.3v-3.84l.34-.17a10.65,10.65,0,0,0,6.12-9.36,23.27,23.27,0,0,0-.2-3.35h-5.92v-4.81h5.16a35.13,35.13,0,0,1-.51-5.5c0-6.87,4.73-11.67,11.5-11.67a12.19,12.19,0,0,1,6.5,1.51l.41.25-1.5,4.93-.67-.37a9.64,9.64,0,0,0-4.74-1.06c-4.89,0-5.61,4.05-5.61,6.46a27.65,27.65,0,0,0,.57,5.45H282v4.81h-7.66a18.66,18.66,0,0,1-.3,5.88,12.07,12.07,0,0,1-3.07,5.46h16.07Z"/><path class="cls-4" d="M399.45,268.47a54.16,54.16,0,1,1-54.2-54.11h0a54.14,54.14,0,0,1,54.2,54.11"/><path class="cls-5" d="M351.63,279.16c0-3.56-1.4-5-8.2-8-9.78-4.39-12.6-7.79-12.6-14.58s5.47-11.52,11-12.93v-8.29h.33l7.95,3.48v4.56a18.2,18.2,0,0,1,7.13,2.49l.41.24.25.17-.08.33-.08.5-1,6.3-.16,1.16-.09.83-.66-.5-.91-.75a14.76,14.76,0,0,0-9-3.15c-4.15,0-6.47,1.91-6.47,5.06,0,3,1.49,4.31,8.12,7.37,9.78,4.48,12.93,8,12.93,15.25,0,6.72-4.72,11.69-10.27,13.51v9.53h-.67l-7.62-4.31v-4.64a36.47,36.47,0,0,1-10.86-3.07l-.49-.24-.34-.17v-.33l.09-.5.91-6.46.16-1.16.09-.75.66.42.91.58a21.15,21.15,0,0,0,11.52,3.72c4.39.17,7-2.07,7-5.63"/></svg>