<?xml version="1.0" encoding="utf-8"?>
<!-- Generator: Adobe Illustrator 23.0.1, SVG Export Plug-In . SVG Version: 6.00 Build 0)  -->
<svg version="1.1" id="Capa_1" xmlns="http://www.w3.org/2000/svg" xmlns:xlink="http://www.w3.org/1999/xlink" x="0px" y="0px"
	 viewBox="0 0 600 600" style="enable-background:new 0 0 600 600;" xml:space="preserve">
<style type="text/css">
	.st0{fill:url(#SVGID_1_);}
	.st1{fill:#D4EDFC;}
	.st2{fill:url(#SVGID_2_);}
	.st3{fill:#49A5E6;}
	.st4{fill:#2DCCCD;}
	.st5{fill:#FFFFFF;}
</style>
<title>Mesa de trabajo 1 copia 7</title>
<g>
	<g>
		
			<linearGradient id="SVGID_1_" gradientUnits="userSpaceOnUse" x1="214.2957" y1="529.1932" x2="438.4756" y2="950.8132" gradientTransform="matrix(1 0 0 1 0 -400)">
			<stop  offset="0" style="stop-color:#192647"/>
			<stop  offset="0" style="stop-color:#192647;stop-opacity:0.5"/>
			<stop  offset="1" style="stop-color:#192647;stop-opacity:0"/>
		</linearGradient>
		<path class="st0" d="M395,136H202.3c-1.8,0-3.3,1.5-3.3,3.3V519c0,1.7,1.3,3,3,3h10.4l272.6,1h5c1.7,0,3-1.3,3-3V234L395,136z"/>
		<path class="st1" d="M443,174l-98-98H152.3c-1.8,0-3.3,1.5-3.3,3.3V459c0,1.7,1.3,3,3,3h288c1.7,0,3-1.3,3-3V174z"/>
		
			<linearGradient id="SVGID_2_" gradientUnits="userSpaceOnUse" x1="443" y1="678.5" x2="162.4" y2="678.5" gradientTransform="matrix(1 0 0 1 0 -400)">
			<stop  offset="0" style="stop-color:#043263;stop-opacity:0.1"/>
			<stop  offset="1" style="stop-color:#043263;stop-opacity:0"/>
		</linearGradient>
		<path class="st2" d="M362,94L162.4,462l272.6,1h5c1.7,0,3-1.3,3-3V175L362,94z"/>
		<g>
			<path class="st3" d="M256,210h-68c-2.8,0-5-2.2-5-5s2.2-5,5-5h68c2.8,0,5,2.2,5,5S258.8,210,256,210z"/>
		</g>
		<g>
			<path class="st3" d="M394,238H188c-2.8,0-5-2.2-5-5s2.2-5,5-5h206c2.8,0,5,2.2,5,5S396.8,238,394,238z"/>
		</g>
		<g>
			<path class="st3" d="M394,266H188c-2.8,0-5-2.2-5-5s2.2-5,5-5h206c2.8,0,5,2.2,5,5S396.8,266,394,266z"/>
		</g>
		<g>
			<path class="st3" d="M324,350H188c-2.8,0-5-2.2-5-5s2.2-5,5-5h136c2.8,0,5,2.2,5,5S326.8,350,324,350z"/>
		</g>
		<g>
			<path class="st3" d="M324,378H188c-2.8,0-5-2.2-5-5s2.2-5,5-5h136c2.8,0,5,2.2,5,5S326.8,378,324,378z"/>
		</g>
		<g>
			<path class="st3" d="M324,406H188c-2.8,0-5-2.2-5-5s2.2-5,5-5h136c2.8,0,5,2.2,5,5S326.8,406,324,406z"/>
		</g>
		<path class="st4" d="M236,101.5c0,35.6-28.9,64.5-64.5,64.5S107,137.1,107,101.5S135.9,37,171.5,37l0,0
			C207.1,37,236,65.9,236,101.5"/>
		<path class="st3" d="M348.7,174H443l-98-98v94.3C345,172.4,346.6,174,348.7,174z"/>
		<path class="st5" d="M204.9,122.3l-10.6-10.6c-2.2-2.1-5.7-2-7.8,0.2l-5.3,5.3l-1-0.6c-9.5-4.8-17.3-12.5-22.1-22.1
			c-0.2-0.3-0.4-0.7-0.6-1l3.5-3.6l1.8-1.8c2.2-2.1,2.2-5.6,0.1-7.8l-10.6-10.6c-2.2-2.1-5.7-2-7.8,0.2l-3,3l0.1,0.1
			c-1,1.3-1.9,2.8-2.5,4.3c-0.5,1.4-0.9,2.9-1.1,4.4c-1.4,11.5,3.9,22.1,18.2,36.4c19.8,19.8,35.8,18.3,36.5,18.2
			c1.5-0.2,3-0.6,4.4-1.1c1.5-0.6,3-1.4,4.3-2.4l0.1,0.1l3-3C206.9,127.9,207,124.5,204.9,122.3z"/>
	</g>
</g>
</svg>
