<?xml version="1.0" encoding="utf-8"?>
<!-- Generator: Adobe Illustrator 23.0.1, SVG Export Plug-In . SVG Version: 6.00 Build 0)  -->
<svg version="1.1" id="Capa_1" xmlns="http://www.w3.org/2000/svg" xmlns:xlink="http://www.w3.org/1999/xlink" x="0px" y="0px"
	 viewBox="0 0 600 600" style="enable-background:new 0 0 600 600;" xml:space="preserve">
<style type="text/css">
	.st0{fill:url(#SVGID_1_);}
	.st1{fill:#043263;}
	.st2{fill:#D4EDFC;}
	.st3{fill:url(#SVGID_2_);}
	.st4{fill:#49A5E6;}
	.st5{fill:#1464A5;}
	.st6{fill:#004481;}
	.st7{fill:#C49735;}
	.st8{fill:#FFFFFF;}
	.st9{fill:#F8CD50;}
	.st10{fill:#28AD68;}
</style>
<title>Mesa de trabajo 1 copia 6</title>
<g>
	<g>
		
			<linearGradient id="SVGID_1_" gradientUnits="userSpaceOnUse" x1="212.7024" y1="515.2965" x2="444.6604" y2="951.5451" gradientTransform="matrix(1 0 0 1 0 -400)">
			<stop  offset="0" style="stop-color:#192647"/>
			<stop  offset="0" style="stop-color:#192647;stop-opacity:0.5"/>
			<stop  offset="1" style="stop-color:#192647;stop-opacity:0"/>
		</linearGradient>
		<path class="st0" d="M496.4,294.7l-17.8-12.4v-48.5L478.2,131c0-1.7-1.3-3-3-3H189.6c-1.8,0-3.2,1.5-3.2,3.2l0,0v155.7l-11.1,7.7
			c-6.2,4.3-9.9,11.4-9.9,18.9V505c0,12.7,10.3,23,23,23h294.8c12.7,0,23-10.3,23-23V313.5C506.2,306,502.6,299,496.4,294.7z"/>
		<path class="st1" d="M125.3,244.7l160.5-111.8l160.6,111.8c6.2,4.3,9.9,11.4,9.9,18.9v59.2H115.4v-59.2
			C115.4,256,119.1,249,125.3,244.7z"/>
		<path class="st2" d="M425.2,78H139.6c-1.8,0-3.2,1.5-3.2,3.2l0,0v379.9h292.2V183.8L428.2,81C428.2,79.3,426.9,78,425.2,78z"/>
		
			<linearGradient id="SVGID_2_" gradientUnits="userSpaceOnUse" x1="429" y1="669.55" x2="148.4" y2="669.55" gradientTransform="matrix(1 0 0 1 0 -400)">
			<stop  offset="0" style="stop-color:#043263;stop-opacity:0.1"/>
			<stop  offset="1" style="stop-color:#043263;stop-opacity:0"/>
		</linearGradient>
		<path class="st3" d="M356,78L148.4,461l276.6,0.1c2.2,0,4-1.8,4-4L428,81c0-1.7-1.3-3-3-3H356z"/>
		<g>
			<path class="st4" d="M241.7,210.2h-67.4c-2.8,0-5-2.2-5-5s2.2-5,5-5h67.4c2.8,0,5,2.2,5,5S244.5,210.2,241.7,210.2z"/>
		</g>
		<g>
			<path class="st4" d="M310.6,238.3H174.3c-2.8,0-5-2.2-5-5s2.2-5,5-5h136.3c2.8,0,5,2.2,5,5S313.4,238.3,310.6,238.3z"/>
		</g>
		<g>
			<path class="st4" d="M310.6,266.3H174.3c-2.8,0-5-2.2-5-5s2.2-5,5-5h136.3c2.8,0,5,2.2,5,5S313.4,266.3,310.6,266.3z"/>
		</g>
		<path class="st5" d="M283.7,355.1l-168.2-75.5V455c0,12.7,10.3,23,23,23h120.4c13.7,0,24.8-11.1,24.8-24.8l0,0V355.1z"/>
		<path class="st5" d="M288,355.1l168.2-75.5V455c0,12.7-10.3,23-23,23H312.8c-13.7,0-24.8-11.1-24.8-24.8V355.1z"/>
		<path class="st6" d="M456.2,453.2L298.5,349.4c-7.7-5.1-17.6-5.1-25.3,0L115.4,453.2v1.8c0,12.7,10.3,23,23,23h294.8
			c12.7,0,23-10.3,23-23L456.2,453.2L456.2,453.2z"/>
		<polygon class="st7" points="388,289.4 377,279.6 366,289.4 366,245.9 388,246 		"/>
		<g>
			<circle class="st8" cx="377" cy="252.8" r="22.1"/>
		</g>
		<g>
			<circle class="st9" cx="377" cy="252.8" r="14.7"/>
		</g>
		<path class="st10" d="M223,102c0,35.9-29.2,65.1-65.1,65.1S92.8,137.9,92.8,102s29.2-65.1,65.1-65.1l0,0
			C193.9,36.9,223,66.1,223,102"/>
		<g>
			<path class="st8" d="M144.5,131.2c-1.5,0-3-0.6-4.1-1.7l-20.1-20c-2.3-2.3-2.3-5.9,0-8.2c2.3-2.3,5.9-2.3,8.2,0l16,15.9
				l42.8-42.7c2.3-2.3,5.9-2.3,8.2,0c2.3,2.3,2.3,5.9,0,8.2l-46.9,46.8C147.5,130.6,146,131.2,144.5,131.2z"/>
		</g>
	</g>
</g>
</svg>
