<?xml version="1.0" encoding="utf-8"?>
<!-- Generator: Adobe Illustrator 23.0.1, SVG Export Plug-In . SVG Version: 6.00 Build 0)  -->
<svg version="1.1" id="Capa_1" xmlns="http://www.w3.org/2000/svg" xmlns:xlink="http://www.w3.org/1999/xlink" x="0px" y="0px"
	 viewBox="0 0 600 600" style="enable-background:new 0 0 600 600;" xml:space="preserve">
<style type="text/css">
	.st0{fill:url(#SVGID_1_);}
	.st1{fill:#043263;}
	.st2{fill:#D4EDFC;}
	.st3{fill:url(#SVGID_2_);}
	.st4{fill:#49A5E6;}
	.st5{fill:#1464A5;}
	.st6{fill:#004481;}
	.st7{fill:#C49735;}
	.st8{fill:#FFFFFF;}
	.st9{fill:#F8CD50;}
</style>
<title>Mesa de trabajo 1 copia 4</title>
<g>
	<g>
		
			<linearGradient id="SVGID_1_" gradientUnits="userSpaceOnUse" x1="201.7024" y1="515.2965" x2="433.6604" y2="951.5451" gradientTransform="matrix(1 0 0 1 0 -400)">
			<stop  offset="0" style="stop-color:#192647"/>
			<stop  offset="0" style="stop-color:#192647;stop-opacity:0.5"/>
			<stop  offset="1" style="stop-color:#192647;stop-opacity:0"/>
		</linearGradient>
		<path class="st0" d="M485.4,294.7l-17.8-12.4v-48.5L467.2,131c0-1.7-1.3-3-3-3H178.6c-1.8,0-3.2,1.5-3.2,3.2l0,0v155.7l-11.1,7.7
			c-6.2,4.3-9.9,11.4-9.9,18.9V505c0,12.7,10.3,23,23,23h294.8c12.7,0,23-10.3,23-23V313.5C495.2,306,491.6,299,485.4,294.7z"/>
		<path class="st1" d="M114.3,244.7l160.5-111.8l160.6,111.8c6.2,4.3,9.9,11.4,9.9,18.9v59.2H104.4v-59.2
			C104.4,256,108.1,249,114.3,244.7z"/>
		<path class="st2" d="M414.2,78H128.6c-1.8,0-3.2,1.5-3.2,3.2v379.9h292.2V183.8L417.2,81C417.2,79.3,415.9,78,414.2,78z"/>
		
			<linearGradient id="SVGID_2_" gradientUnits="userSpaceOnUse" x1="418" y1="669.55" x2="137.4" y2="669.55" gradientTransform="matrix(1 0 0 1 0 -400)">
			<stop  offset="0" style="stop-color:#043263;stop-opacity:0.1"/>
			<stop  offset="1" style="stop-color:#043263;stop-opacity:0"/>
		</linearGradient>
		<path class="st3" d="M345,78L137.4,461l276.6,0.1c2.2,0,4-1.8,4-4L417,81c0-1.7-1.3-3-3-3H345z"/>
		<g>
			<path class="st4" d="M230.7,210.2h-67.4c-2.8,0-5-2.2-5-5s2.2-5,5-5h67.4c2.8,0,5,2.2,5,5S233.5,210.2,230.7,210.2z"/>
		</g>
		<g>
			<path class="st4" d="M299.6,238.3H163.3c-2.8,0-5-2.2-5-5s2.2-5,5-5h136.3c2.8,0,5,2.2,5,5S302.4,238.3,299.6,238.3z"/>
		</g>
		<g>
			<path class="st4" d="M299.6,266.3H163.3c-2.8,0-5-2.2-5-5s2.2-5,5-5h136.3c2.8,0,5,2.2,5,5S302.4,266.3,299.6,266.3z"/>
		</g>
		<path class="st5" d="M272.7,355.1l-168.2-75.5V455c0,12.7,10.3,23,23,23h120.4c13.7,0,24.8-11.1,24.8-24.8l0,0V355.1z"/>
		<path class="st5" d="M277,355.1l168.2-75.5V455c0,12.7-10.3,23-23,23H301.8c-13.7,0-24.8-11.1-24.8-24.8V355.1z"/>
		<path class="st6" d="M445.2,453.2L287.5,349.4c-7.7-5.1-17.6-5.1-25.3,0L104.4,453.2v1.8c0,12.7,10.3,23,23,23h294.8
			c12.7,0,23-10.3,23-23L445.2,453.2L445.2,453.2z"/>
		<polygon class="st7" points="377,289.4 366,279.6 355,289.4 355,245.9 377,246 		"/>
		<circle class="st8" cx="366" cy="252.8" r="22.1"/>
		<circle class="st9" cx="366" cy="252.8" r="14.7"/>
		<path class="st6" d="M245,136.8l-10.3,19.6c-0.2,0.3-0.5,0.4-0.8,0.3c-0.1-0.1-0.2-0.1-0.3-0.3l-10.3-19.6
			c-0.1-0.2-0.3-0.3-0.5-0.3h-5c-0.2,0-0.4,0.2-0.4,0.5c0,0.1,0,0.1,0.1,0.2l16.2,30.4c0.2,0.3,0.5,0.4,0.8,0.2
			c0.1-0.1,0.2-0.1,0.2-0.2l16.3-30.4c0.1-0.2,0-0.5-0.2-0.6c-0.1,0-0.1-0.1-0.2-0.1h-5C245.4,136.5,245.2,136.6,245,136.8"/>
		<path class="st6" d="M250.9,163l10.3-19.6c0.2-0.3,0.5-0.4,0.8-0.3c0.1,0.1,0.2,0.1,0.3,0.3l10.3,19.6c0.1,0.2,0.3,0.3,0.5,0.3h5
			c0.2,0,0.4-0.2,0.4-0.5c0-0.1,0-0.1-0.1-0.2l-16.2-30.4c-0.2-0.3-0.5-0.4-0.8-0.2c-0.1,0.1-0.2,0.1-0.2,0.2L245,162.7
			c-0.1,0.2,0,0.5,0.2,0.6c0.1,0,0.1,0.1,0.2,0.1h5C250.6,163.3,250.8,163.2,250.9,163"/>
		<path class="st6" d="M173.7,163.3h-9.3c-0.3,0-0.6-0.3-0.6-0.6l0,0v-8.3c0-0.3,0.3-0.6,0.6-0.6l0,0h9.3c4.4,0,6.4,1.3,6.4,4.8
			S178.2,163.3,173.7,163.3 M164.4,141h9.2c3.4,0,5.1,1.4,5.1,4.1s-1.7,4.1-5.1,4.1h-9.2c-0.3,0-0.6-0.3-0.6-0.6l0,0v-7
			C163.8,141.3,164.1,141,164.4,141L164.4,141 M180.4,151c2.3-1.2,3.6-3.7,3.5-6.3c0-4.9-3.8-8.2-9.2-8.2h-15.5
			c-0.3,0-0.6,0.3-0.6,0.6l0,0v30.2c0,0.3,0.3,0.6,0.6,0.6l0,0H174c7.4,0,11.3-3.2,11.3-9.4S180.4,151,180.4,151"/>
		<path class="st6" d="M205.4,163.3h-9.3c-0.3,0-0.6-0.3-0.6-0.6l0,0v-8.3c0-0.3,0.3-0.6,0.6-0.6l0,0h9.3c4.4,0,6.4,1.3,6.4,4.8
			S209.9,163.3,205.4,163.3 M196.1,141h9.2c3.4,0,5.1,1.4,5.1,4.1s-1.7,4.1-5.1,4.1h-9.2c-0.3,0-0.6-0.2-0.6-0.6l0,0v-7
			C195.6,141.3,195.8,141,196.1,141L196.1,141 M212.1,151c2.3-1.2,3.6-3.7,3.5-6.3c0-4.9-3.8-8.2-9.2-8.2H191
			c-0.3,0-0.6,0.3-0.6,0.6l0,0v30.2c0,0.3,0.3,0.6,0.6,0.6l0,0h14.8c7.4,0,11.3-3.2,11.3-9.4S212.2,151,212.1,151"/>
	</g>
</g>
</svg>
