<svg id="Capa_1" data-name="Capa 1" xmlns="http://www.w3.org/2000/svg" xmlns:xlink="http://www.w3.org/1999/xlink" viewBox="0 0 600 600"><defs><style>.cls-1{fill:url(#Degradado_sin_nombre_16);}.cls-2{fill:url(#Degradado_sin_nombre_16-2);}.cls-3{fill:url(#Degradado_sin_nombre_16-3);}.cls-4{fill:#043263;}.cls-5{fill:#0065aa;}.cls-6{fill:#5bbeff;}.cls-7{fill:#49a5e6;}.cls-8{fill:#004481;}.cls-9{fill:#2dcccd;}.cls-10{fill:#eaf9fa;}.cls-11{fill:url(#Degradado_sin_nombre_10);}.cls-12{fill:url(#Degradado_sin_nombre_10-2);}.cls-13{fill:url(#Degradado_sin_nombre_10-3);}.cls-14{fill:#1c447d;}.cls-15{fill:url(#Degradado_sin_nombre_8);}</style><linearGradient id="Degradado_sin_nombre_16" x1="246.08" y1="92.2" x2="444.31" y2="465.02" gradientUnits="userSpaceOnUse"><stop offset="0" stop-color="#1a2746" stop-opacity="0.5"/><stop offset="1" stop-color="#1a2746" stop-opacity="0"/></linearGradient><linearGradient id="Degradado_sin_nombre_16-2" x1="142.46" y1="74.13" x2="393.86" y2="546.95" xlink:href="#Degradado_sin_nombre_16"/><linearGradient id="Degradado_sin_nombre_16-3" x1="239.21" y1="123.39" x2="423.23" y2="469.48" xlink:href="#Degradado_sin_nombre_16"/><linearGradient id="Degradado_sin_nombre_10" x1="326.71" y1="3889.59" x2="250.42" y2="3889.59" gradientTransform="matrix(1, 0, 0, -1, 0, 4131.59)" gradientUnits="userSpaceOnUse"><stop offset="0" stop-color="#043263" stop-opacity="0.3"/><stop offset="1" stop-color="#043263" stop-opacity="0.1"/></linearGradient><linearGradient id="Degradado_sin_nombre_10-2" x1="326.79" y1="3763.21" x2="177.32" y2="3763.21" xlink:href="#Degradado_sin_nombre_10"/><linearGradient id="Degradado_sin_nombre_10-3" x1="326.77" y1="3831.96" x2="238.69" y2="3831.96" xlink:href="#Degradado_sin_nombre_10"/><linearGradient id="Degradado_sin_nombre_8" x1="78.54" y1="640.23" x2="137.48" y2="608.89" gradientTransform="matrix(1, 0, 0, -1, 0, 1000.42)" gradientUnits="userSpaceOnUse"><stop offset="0" stop-color="#fff" stop-opacity="0.5"/><stop offset="1" stop-color="#fff" stop-opacity="0.1"/></linearGradient></defs><path class="cls-1" d="M284.64,164.83h0Z"/><path class="cls-2" d="M374.53,336.06l-.07.06H194.83a2.22,2.22,0,0,0-2.22,2.22V345a2.22,2.22,0,0,0,2.22,2.22h179.7a2.24,2.24,0,0,0,2.24-2.25v-6.65A2.24,2.24,0,0,0,374.53,336.06Z"/><path class="cls-3" d="M566,227.25l2.56-3.49c5.25-7.11-5.75-24.07-24.55-37.83s-38.27-19.11-43.52-12L498,177.38l-2.91-2.13L493,178.06a4,4,0,0,0-.36,4.27l10.64,21,8.18,6,0,0-8.16-6-2.09,2.84a3.26,3.26,0,0,0,.62,4.57l.1.08,5.11,3.74L376.77,369.28v-8.77a2.24,2.24,0,0,0-2.24-2.25h0V347.21H194.84v11.05a2.25,2.25,0,0,0-2.25,2.25v29.27l-45.36-58.64a38.81,38.81,0,0,1-8.33-24,27.42,27.42,0,0,1,53.68-7.35v23a2.24,2.24,0,0,0,2.25,2.25h0v11H374.47v-11a2.26,2.26,0,0,0,2-1.39,2.17,2.17,0,0,0,.22-1V243h-81v0h86.07a3.66,3.66,0,0,0,3.66-3.67A18.51,18.51,0,0,0,367,220.76H295.74V175.88a11,11,0,1,0-22,0v44.85H202.23a18.53,18.53,0,0,0-18.52,18.51,3.7,3.7,0,0,0,3.68,3.67H273.7v0H192.57v35.68A39.26,39.26,0,0,0,127,307.18a50.64,50.64,0,0,0,10.85,31.25l47.93,61.95-.52.68a40.31,40.31,0,0,0-8-8.32,31.42,31.42,0,0,0-19.69-6.8,33.64,33.64,0,0,0-25.06,10.92,39.22,39.22,0,0,0-9.92,26.75v.11c0,10.61,3.94,20.32,12.43,30.56,6.84,8.27,16.39,16.65,27.47,26.12l0-.07,3.64,3.1c4.32,3.68,9.23,7.86,14.28,12.3a7.35,7.35,0,0,0,9.69,0c5.07-4.44,10-8.62,14.28-12.3,3.06-2.62,6-5.14,8.86-7.6H381.5a4,4,0,0,0,4-4.05v-5.21a4,4,0,0,0-4-4.05h-4.74v0h0V451.28L527,229.3l5.92,4.33a3.26,3.26,0,0,0,4.57-.61l.08-.1,2.08-2.83-11.53-8.45v0l11.53,8.46,23.26,3.83a4.1,4.1,0,0,0,4-1.63L569,229.4l-10.46-7.67Z"/><path class="cls-4" d="M167.79,396a5.83,5.83,0,0,1-4.68-2.3L87.89,296.43A50.64,50.64,0,0,1,77,265.18a39.27,39.27,0,0,1,78.52,0V279.1a5.92,5.92,0,0,1-11.83,0V265.18a27.43,27.43,0,0,0-54.84,0,38.81,38.81,0,0,0,8.33,24l75.24,97.27a5.9,5.9,0,0,1-1,8.28h0A5.8,5.8,0,0,1,167.79,396Z"/><path class="cls-5" d="M142.57,201v79.88a2.25,2.25,0,0,0,2.25,2.25H324.41a2.25,2.25,0,0,0,2.25-2.25V201Z"/><path class="cls-5" d="M142.57,420.52H326.76v-102a2.24,2.24,0,0,0-2.24-2.25H144.84a2.25,2.25,0,0,0-2.25,2.25Z"/><rect class="cls-5" x="142.61" y="294.12" width="184.06" height="11.08" rx="2.21"/><path class="cls-6" d="M152.26,178.76H317a18.51,18.51,0,0,1,18.51,18.51h0a3.66,3.66,0,0,1-3.66,3.67H137.39a3.7,3.7,0,0,1-3.68-3.67h0a18.53,18.53,0,0,1,18.52-18.51h0Z"/><rect class="cls-7" x="133.75" y="420.52" width="201.79" height="13.31" rx="4.05"/><rect class="cls-8" x="144.84" y="283.02" width="179.63" height="11.08"/><rect class="cls-8" x="144.84" y="305.21" width="179.63" height="11.08"/><path class="cls-9" d="M234.64,122.83h0a11.08,11.08,0,0,1,11.1,11v0h0v96.47a3.26,3.26,0,0,1-3.26,3.26H227a3.26,3.26,0,0,1-3.26-3.26V133.91a11.07,11.07,0,0,1,11.06-11.08h-.12Z"/><circle class="cls-10" cx="234.64" cy="221.33" r="5.54"/><polygon class="cls-6" points="326.69 409.43 478.1 185.65 478.1 147.59 326.69 327.38 326.69 409.43"/><path class="cls-11" d="M294.05,201l-43.63,82h74a2.25,2.25,0,0,0,2.25-2.25V201Z"/><path class="cls-12" d="M326.76,318.51a2.24,2.24,0,0,0-2.24-2.25H232.74L177.32,420.49H326.79Z"/><path class="cls-13" d="M324.46,294.12H244.59l-5.9,11.09h85.84a2.24,2.24,0,0,0,2.24-2.25V296.3a2.24,2.24,0,0,0-2.24-2.24Z"/><path class="cls-14" d="M482.9,191.63a3.26,3.26,0,0,0,4.57-.61h0l.08-.1,2.08-2.83-36.38-26.67-2.09,2.84a3.26,3.26,0,0,0,.62,4.57l.1.08"/><path class="cls-5" d="M445.08,133.25,443,136.06a4,4,0,0,0-.36,4.27l10.64,21,36.38,26.67,23.26,3.83a4.1,4.1,0,0,0,4-1.63L519,187.4Z"/><path class="cls-9" d="M494.05,143.93c-18.8-13.78-38.27-19.11-43.52-12l-2.56,3.5L516,185.25l2.56-3.49C523.85,174.65,512.85,157.69,494.05,143.93Z"/><path class="cls-9" d="M188,354.86A33.66,33.66,0,0,0,163,343.94a31.42,31.42,0,0,0-19.69,6.8,40.26,40.26,0,0,0-8,8.32,40.06,40.06,0,0,0-8-8.32,31.42,31.42,0,0,0-19.69-6.8,33.64,33.64,0,0,0-25.06,10.92,39.22,39.22,0,0,0-9.92,26.75c0,10.62,3.94,20.33,12.43,30.57,7.58,9.18,18.46,18.46,31.15,29.25,4.32,3.68,9.23,7.86,14.28,12.3a7.35,7.35,0,0,0,9.69,0c5.07-4.44,10-8.62,14.28-12.3,12.63-10.78,23.53-20.07,31.14-29.25,8.48-10.24,12.43-19.95,12.43-30.57A39.21,39.21,0,0,0,188,354.86Z"/><path class="cls-15" d="M143.25,350.83a40,40,0,0,0-8,8.31,40,40,0,0,0-8-8.31A31.47,31.47,0,0,0,107.63,344a33.62,33.62,0,0,0-25,11,39.18,39.18,0,0,0-9.92,26.74c0,10.61,3.94,20.32,12.43,30.56,6.84,8.27,16.39,16.65,27.47,26.12l48.76-94.32A31.38,31.38,0,0,0,143.25,350.83Z"/></svg>