<svg xmlns="http://www.w3.org/2000/svg" xmlns:xlink="http://www.w3.org/1999/xlink" viewBox="0 0 600 600"><defs><style>.cls-1{fill:none;}.cls-2{fill:url(#Degradado_sin_nombre_79);}.cls-3{fill:url(#Degradado_sin_nombre_79-2);}.cls-4{fill:url(#Degradado_sin_nombre_79-3);}.cls-5{fill:#49a5e6;}.cls-6{fill:#043263;}.cls-7{fill:url(#Degradado_sin_nombre_24);}.cls-8{fill:url(#Degradado_sin_nombre_5);}.cls-9{fill:#2dcccd;}.cls-10{fill:url(#Degradado_sin_nombre_11);}.cls-11{fill:url(#Degradado_sin_nombre_11-2);}.cls-12{fill:url(#Degradado_sin_nombre_11-3);}</style><linearGradient id="Degradado_sin_nombre_79" x1="247.01" y1="-6238.56" x2="465.18" y2="-6648.88" gradientTransform="matrix(1, 0, 0, -1, 0, -6088)" gradientUnits="userSpaceOnUse"><stop offset="0" stop-color="#192647" stop-opacity="0.5"/><stop offset="1" stop-color="#192647" stop-opacity="0"/></linearGradient><linearGradient id="Degradado_sin_nombre_79-2" x1="129.17" y1="-6328.26" x2="439.3" y2="-6911.51" xlink:href="#Degradado_sin_nombre_79"/><linearGradient id="Degradado_sin_nombre_79-3" x1="265.11" y1="-5939.25" x2="595.58" y2="-6560.78" xlink:href="#Degradado_sin_nombre_79"/><linearGradient id="Degradado_sin_nombre_24" x1="165.56" y1="-6310.48" x2="297.01" y2="-6384.97" gradientTransform="matrix(1, 0, 0, -1, 0, -6088)" gradientUnits="userSpaceOnUse"><stop offset="0.01" stop-color="#072146" stop-opacity="0.8"/><stop offset="1" stop-color="#072146" stop-opacity="0.1"/></linearGradient><linearGradient id="Degradado_sin_nombre_5" x1="3269.02" y1="308.96" x2="3344.62" y2="268.76" gradientTransform="matrix(-1, 0, 0, 1, 3646.86, 31.34)" gradientUnits="userSpaceOnUse"><stop offset="0" stop-color="#fff" stop-opacity="0.1"/><stop offset="1" stop-color="#fff" stop-opacity="0"/></linearGradient><linearGradient id="Degradado_sin_nombre_11" x1="97.13" y1="-6277.33" x2="140.12" y2="-6300.19" gradientTransform="matrix(1, 0, 0, -1, 0, -6088)" gradientUnits="userSpaceOnUse"><stop offset="0" stop-color="#fff" stop-opacity="0.5"/><stop offset="1" stop-color="#fff" stop-opacity="0.1"/></linearGradient><linearGradient id="Degradado_sin_nombre_11-2" x1="124.98" y1="-6251.93" x2="172.23" y2="-6277.06" xlink:href="#Degradado_sin_nombre_11"/><linearGradient id="Degradado_sin_nombre_11-3" x1="461.21" y1="-6287.16" x2="483.47" y2="-6298.99" xlink:href="#Degradado_sin_nombre_11"/></defs><title>8</title><g id="Cuadrados_Blancos" data-name="Cuadrados Blancos"><rect class="cls-1" width="600" height="600"/></g><g id="Capa_13" data-name="Capa 13"><circle class="cls-2" cx="353" cy="349.9" r="140"/><path class="cls-3" d="M200.5,213.7a1.85,1.85,0,0,0-.2-.7l-.3-.6a3.18,3.18,0,0,0-1.1-1.2,3.57,3.57,0,0,0-2.3-.8h0a3.81,3.81,0,0,0-3.8,4.1l3.8,51.1a3.76,3.76,0,0,1-3.6,4.1,3.91,3.91,0,0,1-4.1-3.7l-.5-21.6-.7-30.2a2.2,2.2,0,0,0-.1-.8,3.85,3.85,0,0,0-3.7-3h-.3a3.41,3.41,0,0,0-2.4.9,2.7,2.7,0,0,0-.7.8,3.77,3.77,0,0,0-.7,2.1L178.6,266a3.6,3.6,0,0,1-1.2,2.7,4,4,0,0,1-2.8,1,4.19,4.19,0,0,1-1.5-.4,4.7,4.7,0,0,1-1.2-.9,3.8,3.8,0,0,1-.9-2.8l1.9-25.1,2-26a3.83,3.83,0,0,0-1-2.9,3.63,3.63,0,0,0-2.8-1.2h0a4.22,4.22,0,0,0-2.5.9,3.92,3.92,0,0,0-.8,1,2.84,2.84,0,0,0-.4,1.3l-7.9,56.7a12.25,12.25,0,0,0-.2,1.9v.6c0,.4-.1.9-.1,1.3v4.5a11,11,0,0,0,.2,1.8c0,.2.1.4.1.6a5,5,0,0,0,.2,1.2c0,.3.1.5.1.8s.1.7.2,1,.1.6.2.9.1.7.2,1,.1.6.2.9.2.7.3,1c.1.5.3,1,.4,1.4s.2.6.3,1l.3.9c.1.3.2.5.3.8s.3.6.4.9.2.5.3.8.3.6.4.9a2.51,2.51,0,0,0,.4.7,46,46,0,0,0,3.7,6,1.38,1.38,0,0,1,.3.4,46,46,0,0,1,9.1,29.5L170.9,476a13,13,0,0,0,13,13.5h0a13,13,0,0,0,13-13.5L191,331.4a46.56,46.56,0,0,1,9.1-29.5,1.38,1.38,0,0,0,.3-.4,42.2,42.2,0,0,0,8-31.1Z"/><path class="cls-4" d="M542.5,213.5a3.14,3.14,0,0,0-2.7-3.1h-.4a3,3,0,0,0-2.1.9l-3,3a73.79,73.79,0,0,0-9.4,11.5,75.55,75.55,0,0,0-10.4,23.4,74.61,74.61,0,0,0-2.3,18.3v35.1h0c0,21.7.1,43.9.1,51.5a2.8,2.8,0,0,0,2.8,2.8h0a2.82,2.82,0,0,1,2.8,2.9L514,475.7a13.41,13.41,0,1,0,26.8,0l-3.9-115.9a2.76,2.76,0,0,1,2.8-2.9h.2a2.8,2.8,0,0,0,2.8-2.8V245.5h0v-32Z"/><circle class="cls-5" cx="302.24" cy="300" r="140"/><circle class="cls-6" cx="302.24" cy="300" r="121.1"/><path class="cls-7" d="M216.74,300a85.64,85.64,0,0,1,125.8-75.6l16.7-31.3a121.08,121.08,0,0,0-113.7,213.8l16.7-31.3A85.46,85.46,0,0,1,216.74,300Z"/><path class="cls-8" d="M302.24,385.7a85.62,85.62,0,0,0,40.2-161.2L262,375.7A86.39,86.39,0,0,0,302.24,385.7Z"/><path class="cls-9" d="M157.64,220.6l-7.9-56.7a3.87,3.87,0,0,0-3.8-3.3h0a3.81,3.81,0,0,0-3.8,4.1l3.8,51.1a3.76,3.76,0,0,1-3.6,4.1h0a3.91,3.91,0,0,1-4.1-3.7L137,164.4a3.86,3.86,0,0,0-3.8-3.8h-.3a3.8,3.8,0,0,0-3.8,3.8l-1.2,51.8a3.73,3.73,0,0,1-4.1,3.7h0a3.9,3.9,0,0,1-3.6-4.1l3.8-51.1a3.81,3.81,0,0,0-3.8-4.1h0a3.87,3.87,0,0,0-3.8,3.3l-7.9,56.7a42.65,42.65,0,0,0,8,31.1,1.38,1.38,0,0,1,.3.4,46,46,0,0,1,9.1,29.5L120,426.2a13,13,0,0,0,13,13.5h0a13,13,0,0,0,13-13.5l-5.9-144.6a46.56,46.56,0,0,1,9.1-29.5,1.38,1.38,0,0,0,.3-.4A42.38,42.38,0,0,0,157.64,220.6Z"/><path class="cls-10" d="M133.24,160.5h-.3a3.8,3.8,0,0,0-3.8,3.8l-1.2,51.8a3.73,3.73,0,0,1-4.1,3.7,3.9,3.9,0,0,1-3.6-4.1l3.8-51.1a3.81,3.81,0,0,0-3.8-4.1h0a3.87,3.87,0,0,0-3.8,3.3l-7.9,56.7a42.6,42.6,0,0,0,4.8,26l24.6-46.2-.8-36.2A3.93,3.93,0,0,0,133.24,160.5Z"/><path class="cls-11" d="M149.74,163.8a3.87,3.87,0,0,0-3.8-3.3h0a3.81,3.81,0,0,0-3.8,4.1l1.8,24.5,7.4-13.9Z"/><path class="cls-9" d="M491.74,163.6a3.13,3.13,0,0,0-5.3-2.2l-3,3a75.76,75.76,0,0,0-22.2,53.2c-.1,25.6.1,74.5.1,86.6a2.8,2.8,0,0,0,2.8,2.8h0a2.82,2.82,0,0,1,2.8,2.9l-3.8,115.8a13.39,13.39,0,0,0,13.4,13.9h0a13.45,13.45,0,0,0,13.4-13.9L486,309.8a2.76,2.76,0,0,1,2.8-2.9h.2a2.8,2.8,0,0,0,2.8-2.8V163.6Z"/><path class="cls-12" d="M491.74,163.6a3.13,3.13,0,0,0-5.3-2.2l-3,3a75.76,75.76,0,0,0-22.2,53.2v35.2l30.4-57.2v-32Z"/></g></svg>