<?xml version="1.0" encoding="utf-8"?>
<!-- Generator: Adobe Illustrator 23.0.1, SVG Export Plug-In . SVG Version: 6.00 Build 0)  -->
<svg version="1.1" id="Contenido" xmlns="http://www.w3.org/2000/svg" xmlns:xlink="http://www.w3.org/1999/xlink" x="0px" y="0px"
	 viewBox="0 0 600 600" style="enable-background:new 0 0 600 600;" xml:space="preserve">
<style type="text/css">
	.st0{fill:url(#SVGID_1_);}
	.st1{fill:url(#SVGID_2_);}
	.st2{fill:url(#SVGID_3_);}
	.st3{fill:url(#SVGID_4_);}
	.st4{fill:url(#SVGID_5_);}
	.st5{fill:url(#SVGID_6_);}
	.st6{display:none;}
	.st7{display:inline;fill:url(#SVGID_7_);}
	.st8{display:inline;fill:url(#SVGID_8_);}
	.st9{display:inline;fill:url(#SVGID_9_);}
	.st10{fill:#49A5E6;}
	.st11{fill:#1464A5;}
	.st12{fill:#043263;}
	.st13{fill:#F8CD50;}
	.st14{fill:url(#SVGID_10_);}
	.st15{fill:url(#SVGID_11_);}
	.st16{fill:url(#SVGID_12_);}
	.st17{fill:url(#SVGID_13_);}
	.st18{fill:url(#SVGID_14_);}
	.st19{fill:#2DCCCD;}
	.st20{fill:#028484;}
	.st21{fill:url(#SVGID_15_);}
	.st22{fill:#D4EDFC;}
	.st23{fill:url(#SVGID_16_);}
	.st24{fill:url(#SVGID_17_);}
	.st25{fill:url(#SVGID_18_);}
	.st26{fill:url(#SVGID_19_);}
	.st27{fill:url(#SVGID_20_);}
	.st28{fill:url(#SVGID_21_);}
	.st29{fill:url(#SVGID_22_);}
	.st30{fill:url(#SVGID_23_);}
	.st31{fill:url(#SVGID_24_);}
	.st32{fill:url(#SVGID_25_);}
	.st33{fill:url(#SVGID_26_);}
	.st34{fill:#EAF9FA;}
</style>
<g>
	<linearGradient id="SVGID_1_" gradientUnits="userSpaceOnUse" x1="244.0286" y1="125.5542" x2="462.1997" y2="535.8743">
		<stop  offset="0" style="stop-color:#192647;stop-opacity:0.5"/>
		<stop  offset="1" style="stop-color:#192647;stop-opacity:0"/>
	</linearGradient>
	<circle class="st0" cx="350" cy="324.9" r="140"/>
	<linearGradient id="SVGID_2_" gradientUnits="userSpaceOnUse" x1="126.1932" y1="215.2489" x2="436.3144" y2="798.502">
		<stop  offset="0" style="stop-color:#192647;stop-opacity:0.5"/>
		<stop  offset="1" style="stop-color:#192647;stop-opacity:0"/>
	</linearGradient>
	<path class="st1" d="M197.5,188.7c0-0.2-0.1-0.5-0.2-0.7s-0.2-0.4-0.3-0.6c-0.3-0.5-0.6-0.9-1.1-1.2c-0.6-0.5-1.4-0.8-2.3-0.8h0
		c-2.2,0-4,1.9-3.8,4.1l3.8,51.1c0.2,2.1-1.4,4-3.6,4.1c-2.2,0.1-4-1.6-4.1-3.7l-0.5-21.6l-0.7-30.2c0-0.3,0-0.5-0.1-0.8
		c-0.4-1.7-1.9-3-3.7-3h-0.3c-0.9,0-1.8,0.3-2.4,0.9c-0.3,0.2-0.5,0.5-0.7,0.8c-0.4,0.6-0.7,1.3-0.7,2.1l-1.2,51.8
		c0,1.1-0.5,2.1-1.2,2.7s-1.8,1.1-2.8,1c-0.5,0-1-0.2-1.5-0.4c-0.4-0.2-0.8-0.5-1.2-0.9c-0.6-0.7-1-1.7-0.9-2.8l1.9-25.1l2-26
		c0.1-1.1-0.3-2.1-1-2.9c-0.7-0.8-1.7-1.2-2.8-1.2h0c-1,0-1.8,0.4-2.5,0.9c-0.3,0.3-0.6,0.6-0.8,1c-0.2,0.4-0.4,0.8-0.4,1.3
		l-7.9,56.7c-0.1,0.6-0.2,1.3-0.2,1.9c0,0.2,0,0.4,0,0.6c0,0.4-0.1,0.9-0.1,1.3c0,0.2,0,0.5,0,0.7c0,0.4,0,0.8,0,1.2
		c0,0.2,0,0.5,0,0.7c0,0.4,0,0.9,0,1.3c0,0.2,0,0.4,0,0.6c0,0.6,0.1,1.2,0.2,1.8c0,0.2,0.1,0.4,0.1,0.6c0,0.4,0.1,0.8,0.2,1.2
		c0,0.3,0.1,0.5,0.1,0.8c0.1,0.3,0.1,0.7,0.2,1c0.1,0.3,0.1,0.6,0.2,0.9c0.1,0.3,0.1,0.7,0.2,1c0.1,0.3,0.1,0.6,0.2,0.9
		c0.1,0.3,0.2,0.7,0.3,1c0.1,0.5,0.3,1,0.4,1.4c0.1,0.3,0.2,0.6,0.3,1c0.1,0.3,0.2,0.6,0.3,0.9c0.1,0.3,0.2,0.5,0.3,0.8
		c0.1,0.3,0.3,0.6,0.4,0.9c0.1,0.3,0.2,0.5,0.3,0.8c0.1,0.3,0.3,0.6,0.4,0.9c0.1,0.2,0.2,0.5,0.4,0.7c1.1,2.1,2.3,4.1,3.7,6
		c0.1,0.1,0.2,0.2,0.3,0.4c6.3,8.5,9.6,18.9,9.1,29.5L167.9,451c-0.3,7.4,5.6,13.5,13,13.5c0,0,0,0,0,0c0,0,0,0,0,0
		c7.4,0,13.3-6.1,13-13.5l-5.9-144.6c-0.4-10.6,2.8-21,9.1-29.5c0.1-0.1,0.2-0.2,0.3-0.4c6.7-8.9,9.5-20.1,8-31.1L197.5,188.7z"/>
	<linearGradient id="SVGID_3_" gradientUnits="userSpaceOnUse" x1="262.0687" y1="-173.7333" x2="592.5425" y2="447.7974">
		<stop  offset="0" style="stop-color:#192647;stop-opacity:0.5"/>
		<stop  offset="1" style="stop-color:#192647;stop-opacity:0"/>
	</linearGradient>
	<path class="st2" d="M539.5,188.5c0-1.7-1.3-2.9-2.7-3.1c-0.1,0-0.3,0-0.4,0c-0.7,0-1.5,0.3-2.1,0.9l-3,3
		c-3.5,3.5-6.7,7.4-9.4,11.5c-4.8,7.2-8.3,15.1-10.4,23.4c-1.5,5.9-2.3,12.1-2.3,18.3c0,0.7,0,1.5,0,2.3c0,0.1,0,0.3,0,0.4
		c0,0.6,0,1.2,0,1.9c0,0.2,0,0.5,0,0.7c0,1.6,0,3.2,0,4.9c0,0.3,0,0.6,0,0.9c0,0.6,0,1.3,0,1.9c0,0.2,0,0.5,0,0.7c0,1.8,0,3.6,0,5.4
		c0,0.3,0,0.7,0,1c0,0.7,0,1.4,0,2.1c0,0.2,0,0.4,0,0.5c0,1.9,0,3.8,0,5.8c0,0.3,0,0.6,0,0.9c0,0.7,0,1.5,0,2.2c0,0.3,0,0.5,0,0.8
		c0,0.9,0,1.8,0,2.7v0c0,21.7,0.1,43.9,0.1,51.5c0,1.5,1.2,2.8,2.8,2.8l0,0c1.6,0,2.8,1.3,2.8,2.9l-3.9,115.9
		c-0.3,7.6,5.8,13.9,13.4,13.9s13.6-6.3,13.4-13.9l-3.9-115.9c-0.1-1.6,1.2-2.9,2.8-2.9h0.2c1.5,0,2.8-1.2,2.8-2.8V220.5l0,0V188.5z
		"/>
</g>
<g>
	<circle class="st10" cx="300" cy="275.3" r="140"/>
	<circle class="st11" cx="300" cy="275.3" r="121.1"/>
	<g>
		<linearGradient id="SVGID_4_" gradientUnits="userSpaceOnUse" x1="163.2762" y1="197.8494" x2="294.7277" y2="272.3386">
			<stop  offset="6.598947e-03" style="stop-color:#043263;stop-opacity:0.4"/>
			<stop  offset="0.9998" style="stop-color:#043263;stop-opacity:0.1"/>
		</linearGradient>
		<path class="st3" d="M214.5,275.3c0-47.3,38.3-85.6,85.6-85.6c14.5,0,28.2,3.6,40.2,10l16.7-31.3c-16.9-9-36.3-14.2-56.8-14.2
			c-66.9,0-121.1,54.2-121.1,121.1c0,46.3,26,86.5,64.2,106.9l16.7-31.3C232.9,336.5,214.5,308.1,214.5,275.3z"/>
	</g>
	
		<linearGradient id="SVGID_5_" gradientUnits="userSpaceOnUse" x1="169.2384" y1="315.7951" x2="244.8316" y2="355.9887" gradientTransform="matrix(-1 0 0 -1 544.8633 631.3428)">
		<stop  offset="0" style="stop-color:#FFFFFF;stop-opacity:0.1"/>
		<stop  offset="1" style="stop-color:#FFFFFF;stop-opacity:0"/>
	</linearGradient>
	<path class="st4" d="M300,361c47.3,0,85.6-38.3,85.6-85.6c0-32.7-18.4-61.2-45.4-75.6l-80.4,151.2C271.8,357.3,285.5,361,300,361z"
		/>
</g>
<g>
	<path class="st19" d="M155.4,195.9l-7.9-56.7c-0.3-1.9-1.9-3.3-3.8-3.3h0c-2.2,0-4,1.9-3.8,4.1l3.8,51.1c0.2,2.1-1.4,4-3.6,4.1h0
		c-2.2,0.1-4-1.6-4.1-3.7l-1.2-51.8c0-2.1-1.8-3.8-3.8-3.8h-0.3c-2.1,0-3.8,1.7-3.8,3.8l-1.2,51.8c0,2.2-1.9,3.9-4.1,3.7h0
		c-2.1-0.1-3.7-2-3.6-4.1l3.8-51.1c0.2-2.2-1.6-4.1-3.8-4.1h0c-1.9,0-3.5,1.4-3.8,3.3l-7.9,56.7c-1.5,11,1.4,22.2,8,31.1
		c0.1,0.1,0.2,0.2,0.3,0.4c6.3,8.5,9.6,18.9,9.1,29.5l-5.9,144.6c-0.3,7.4,5.6,13.5,13,13.5c0,0,0,0,0,0c0,0,0,0,0,0
		c7.4,0,13.3-6.1,13-13.5l-5.9-144.6c-0.4-10.6,2.8-21,9.1-29.5c0.1-0.1,0.2-0.2,0.3-0.4C154,218,156.9,206.9,155.4,195.9z"/>
	<g>
		<linearGradient id="SVGID_6_" gradientUnits="userSpaceOnUse" x1="94.8687" y1="164.6721" x2="137.8575" y2="187.5297">
			<stop  offset="0" style="stop-color:#FFFFFF;stop-opacity:0.5"/>
			<stop  offset="1" style="stop-color:#FFFFFF;stop-opacity:0.1"/>
		</linearGradient>
		<path class="st5" d="M131,135.8h-0.3c-2.1,0-3.8,1.7-3.8,3.8l-1.2,51.8c0,2.2-1.9,3.9-4.1,3.7c-2.1-0.1-3.7-2-3.6-4.1l3.8-51.1
			c0.2-2.2-1.6-4.1-3.8-4.1h0c-1.9,0-3.5,1.4-3.8,3.3l-7.9,56.7c-1.2,9,0.5,18.1,4.8,26l24.6-46.2l-0.8-36.2
			C134.8,137.5,133.1,135.8,131,135.8z"/>
		<linearGradient id="SVGID_7_" gradientUnits="userSpaceOnUse" x1="122.7403" y1="139.2322" x2="169.9867" y2="164.3535">
			<stop  offset="0" style="stop-color:#FFFFFF;stop-opacity:0.5"/>
			<stop  offset="1" style="stop-color:#FFFFFF;stop-opacity:0.1"/>
		</linearGradient>
		<path style="fill:url(#SVGID_7_);" d="M147.5,139.1c-0.3-1.9-1.9-3.3-3.8-3.3h0c-2.2,0-4,1.9-3.8,4.1l1.8,24.5l7.4-13.9
			L147.5,139.1z"/>
	</g>
</g>
<g>
	<path class="st19" d="M489.5,138.9c0-2.7-3.3-4.1-5.3-2.2l-3,3c-14.1,14.1-22.1,33.2-22.2,53.2c-0.1,25.6,0.1,74.5,0.1,86.6
		c0,1.5,1.2,2.8,2.8,2.8l0,0c1.6,0,2.8,1.3,2.8,2.9L460.9,401c-0.3,7.6,5.8,13.9,13.4,13.9l0,0c7.6,0,13.6-6.3,13.4-13.9l-3.9-115.9
		c-0.1-1.6,1.2-2.9,2.8-2.9h0.2c1.5,0,2.8-1.2,2.8-2.8V138.9z"/>
	<linearGradient id="SVGID_8_" gradientUnits="userSpaceOnUse" x1="459.0056" y1="174.4226" x2="481.2723" y2="186.2619">
		<stop  offset="0" style="stop-color:#FFFFFF;stop-opacity:0.5"/>
		<stop  offset="1" style="stop-color:#FFFFFF;stop-opacity:0.1"/>
	</linearGradient>
	<path style="fill:url(#SVGID_8_);" d="M489.5,138.9c0-2.7-3.3-4.1-5.3-2.2l-3,3c-14.1,14.1-22.1,33.2-22.2,53.2
		c0,9.5,0,22.3,0,35.2l30.4-57.2V138.9z"/>
</g>
</svg>
