<svg xmlns="http://www.w3.org/2000/svg" xmlns:xlink="http://www.w3.org/1999/xlink" viewBox="0 0 600 600"><defs><style>.cls-1{fill:none;}.cls-2{fill:url(#Degradado_sin_nombre_106);}.cls-3{fill:#072146;}.cls-4{fill:#f8cd50;}.cls-5{fill:url(#Degradado_sin_nombre_13);}.cls-6{fill:#fef5dc;}.cls-7{fill:#043263;}.cls-8{fill:#28ad68;}.cls-9{fill:#fff;}</style><linearGradient id="Degradado_sin_nombre_106" x1="269.63" y1="-5303.53" x2="445.44" y2="-5634.17" gradientTransform="matrix(1, 0, 0, -1, 0, -5064)" gradientUnits="userSpaceOnUse"><stop offset="0" stop-color="#192647" stop-opacity="0.5"/><stop offset="1" stop-color="#192647" stop-opacity="0"/></linearGradient><linearGradient id="Degradado_sin_nombre_13" x1="252.3" y1="-5367.43" x2="301.2" y2="-5393.43" gradientTransform="matrix(1, 0, 0, -1, 0, -5064)" gradientUnits="userSpaceOnUse"><stop offset="0" stop-color="#fff" stop-opacity="0.6"/><stop offset="1" stop-color="#fff" stop-opacity="0.2"/></linearGradient></defs><title>9</title><g id="Cuadrados_Blancos" data-name="Cuadrados Blancos"><rect class="cls-1" width="600" height="600"/></g><g id="Capa_12" data-name="Capa 12"><path class="cls-2" d="M515.12,304l-19.53-13.6A54.91,54.91,0,0,0,474.43,208l-.54-.25c-.77-.35-1.56-.67-2.35-1l-.64-.25c-.83-.32-1.68-.62-2.53-.9l-.43-.13c-1-.34-2.07-.64-3.11-.9h-.07c-1-.23-1.95-.45-2.95-.65l-.87-.15c-.74-.14-1.49-.25-2.24-.36l-1-.12c-.75-.09-1.5-.16-2.24-.22l-1-.06c-1-.06-2.14-.11-3.21-.11a54.76,54.76,0,0,0-40.62,18c-.59.65-1.16,1.32-1.72,2a56.5,56.5,0,0,0-3.46,4.68l-37.58-26.17a23,23,0,0,0-26.26,0L194.34,303.94a23,23,0,0,0-9.84,18.85V514.06a23,23,0,0,0,23,23H502a23,23,0,0,0,23-22.95V322.8A23,23,0,0,0,515.12,304Z"/><path class="cls-3" d="M139.45,250.16,300,138.38,460.55,250.16A23,23,0,0,1,470.41,269V459H129.59V269A23,23,0,0,1,139.45,250.16Z"/><path class="cls-4" d="M355.74,329.25a55,55,0,1,1-55-55h0a55,55,0,0,1,55,55"/><path class="cls-5" d="M300.76,274.31a54.91,54.91,0,0,0-25.35,103.6l51.27-97.12A54.88,54.88,0,0,0,300.76,274.31Z"/><path class="cls-6" d="M306.88,339.55c0-3.44-1.36-4.79-7.91-7.81-9.37-4.26-12.17-7.49-12.17-14s5.3-11.13,10.61-12.49v-7.9h.31l7.7,3.43v4.37a19.08,19.08,0,0,1,7,2.39l.31.21.31.1-.1.32-.1.41-1,6-.21,1.14-.11.83-.62-.41-.94-.73a13.81,13.81,0,0,0-8.63-3c-4.06,0-6.24,1.77-6.24,4.79s1.45,4.16,7.8,7.18c9.47,4.26,12.48,7.7,12.48,14.67a13.8,13.8,0,0,1-9.88,13v9.16h-.62l-7.39-4.06v-4.47a35.21,35.21,0,0,1-10.51-2.92l-.42-.2-.31-.11v-.31l.11-.52.83-6.24.1-1,.11-.73.62.41.83.63a22.52,22.52,0,0,0,11.14,3.64c4.26-.21,7.07-2.29,7-5.72"/><path class="cls-7" d="M297.84,360.56l-168.25-75.5V460.5a23,23,0,0,0,23,23H273a24.8,24.8,0,0,0,24.8-24.8h0Z"/><path class="cls-7" d="M302.16,360.56l168.25-75.5V460.5a23,23,0,0,1-23,23H327a24.8,24.8,0,0,1-24.8-24.8h0Z"/><path class="cls-3" d="M470.41,458.7,312.65,354.86a23,23,0,0,0-25.3,0L129.59,458.7v1.8a23,23,0,0,0,23,23H447.41a23,23,0,0,0,23-23Z"/><path class="cls-8" d="M453.06,203.91a55.53,55.53,0,1,1-55.53-55.53h0a55.56,55.56,0,0,1,55.53,55.53"/><path class="cls-9" d="M386.43,229.06a4.77,4.77,0,0,1-3.46-1.47l-17.29-17.08a5,5,0,0,1,7-7l13.73,13.62,36.67-36.56a5,5,0,0,1,7,7l-40.13,40A5.4,5.4,0,0,1,386.43,229.06Z"/></g></svg>