<svg id="Contenido" xmlns="http://www.w3.org/2000/svg" xmlns:xlink="http://www.w3.org/1999/xlink" viewBox="0 0 600 600"><defs><style>.cls-1{fill:url(#Degradado_sin_nombre_7);}.cls-2{fill:#d4edfc;}.cls-3{fill:#1973b8;}.cls-4{fill:#f8cd50;}.cls-5{fill:#fbf3dc;}.cls-6{fill:url(#Degradado_sin_nombre_5);}.cls-7{fill:url(#Degradado_sin_nombre_5-2);}.cls-8{fill:#1464a5;}</style><linearGradient id="Degradado_sin_nombre_7" x1="279.8" y1="225.21" x2="449.3" y2="543.98" gradientUnits="userSpaceOnUse"><stop offset="0" stop-color="#192647"/><stop offset="0" stop-color="#192647" stop-opacity="0.5"/><stop offset="1" stop-color="#192647" stop-opacity="0"/></linearGradient><linearGradient id="Degradado_sin_nombre_5" x1="266.95" y1="290.69" x2="314.07" y2="315.75" gradientUnits="userSpaceOnUse"><stop offset="0" stop-color="#fff" stop-opacity="0.6"/><stop offset="1" stop-color="#fff" stop-opacity="0.2"/></linearGradient><linearGradient id="Degradado_sin_nombre_5-2" x1="360.04" y1="169.85" x2="407.16" y2="194.91" xlink:href="#Degradado_sin_nombre_5"/></defs><title>financial_health</title><path class="cls-1" d="M516.47,287.32l-18.83-13.11a52.94,52.94,0,0,0-20.4-79.36l-.52-.24c-.74-.34-1.5-.65-2.26-1l-.62-.24c-.8-.31-1.62-.6-2.44-.87l-.41-.13c-1-.32-2-.61-3-.86l-.07,0c-.93-.23-1.88-.44-2.84-.63l-.84-.15c-.72-.13-1.44-.24-2.16-.34l-1-.12c-.72-.09-1.44-.15-2.16-.21L458,190c-1-.06-2.06-.1-3.1-.1a52.78,52.78,0,0,0-39.16,17.38c-.57.63-1.12,1.27-1.66,1.92a54.61,54.61,0,0,0-3.33,4.51l-36.24-25.23a22.13,22.13,0,0,0-25.31,0l-142,98.83a22.14,22.14,0,0,0-9.49,18.18V489.9a22.15,22.15,0,0,0,22.15,22.15H503.82A22.15,22.15,0,0,0,526,489.9V305.5A22.15,22.15,0,0,0,516.47,287.32Z"/><path class="cls-2" d="M159.09,239.17l142-98.83a22.13,22.13,0,0,1,25.31,0l142,98.83a22.14,22.14,0,0,1,9.49,18.18V362.48H149.59V257.35A22.15,22.15,0,0,1,159.09,239.17Z"/><path class="cls-3" d="M159.09,239.17l142-98.83a22.13,22.13,0,0,1,25.31,0l142,98.83a22.14,22.14,0,0,1,9.49,18.18V362.48H149.59V257.35A22.15,22.15,0,0,1,159.09,239.17Z"/><path class="cls-4" d="M366.67,315.57a53,53,0,1,1-53-53h0a53,53,0,0,1,53,53"/><path class="cls-5" d="M314.55,341.08c-9.94,0-16.61-6.1-18.81-17.19h-8V318H295c-.06-.82-.06-1.66-.06-2.47v-1.66h-7.21V308h7.89c2.06-11.18,9.08-17.85,18.81-17.85,8.27,0,13.95,3.67,16.89,10.92l.07.16-7.26,4.11-.08-.24c-1.71-5.12-4.67-7.4-9.62-7.4-5.48,0-9.09,3.56-10.45,10.3h12.2v5.84H303.41v1.5c0,.89,0,1.8.07,2.63H316.3v5.93H304.19c1.41,6.6,4.83,9.81,10.45,9.81,5.11,0,8.05-2.34,9.85-7.81l.08-.24,7.1,4.28-.07.16C328.56,337.08,322.34,341.08,314.55,341.08Z"/><path class="cls-6" d="M313.66,262.6a52.94,52.94,0,0,0-24.44,99.89l49.43-93.64A52.86,52.86,0,0,0,313.66,262.6Z"/><path class="cls-4" d="M459.76,194.73a53,53,0,1,1-53-53h0a53,53,0,0,1,53,53"/><path class="cls-5" d="M407.64,220.24c-9.94,0-16.61-6.1-18.81-17.19h-8v-5.93h7.28c-.06-.83-.06-1.66-.06-2.47V193h-7.22v-5.85h7.9c2.05-11.17,9.07-17.84,18.81-17.84,8.27,0,13.95,3.67,16.89,10.91l.06.17-7.26,4.1-.08-.23c-1.7-5.12-4.67-7.4-9.61-7.4-5.49,0-9.1,3.56-10.45,10.29H409.3V193H396.5v1.5c0,.88,0,1.8.06,2.63h12.82v5.93H397.27c1.42,6.6,4.84,9.81,10.45,9.81,5.11,0,8.06-2.34,9.86-7.81l.08-.24,7.1,4.28-.07.16A17.84,17.84,0,0,1,407.64,220.24Z"/><path class="cls-7" d="M406.75,141.76a52.94,52.94,0,0,0-24.45,99.89L431.74,148A52.89,52.89,0,0,0,406.75,141.76Z"/><path class="cls-8" d="M311.63,345.49l-162-72.71v169a22.15,22.15,0,0,0,22.15,22.15h116A23.9,23.9,0,0,0,311.63,440Z"/><path class="cls-8" d="M315.78,345.49l162-72.71v169a22.15,22.15,0,0,1-22.15,22.15h-116A23.9,23.9,0,0,1,315.78,440Z"/><path class="cls-3" d="M477.81,440,325.88,340a22.17,22.17,0,0,0-24.36,0L149.59,440v1.74a22.15,22.15,0,0,0,22.15,22.15H455.66a22.15,22.15,0,0,0,22.15-22.15Z"/></svg>