<?xml version="1.0" encoding="utf-8"?>
<!-- Generator: Adobe Illustrator 23.0.1, SVG Export Plug-In . SVG Version: 6.00 Build 0)  -->
<svg version="1.1" id="Capa_1" xmlns="http://www.w3.org/2000/svg" xmlns:xlink="http://www.w3.org/1999/xlink" x="0px" y="0px"
	 viewBox="0 0 600 600" style="enable-background:new 0 0 600 600;" xml:space="preserve">
<style type="text/css">
	.st0{fill:url(#Path_1_);}
	.st1{fill:#D4EDFC;}
	.st2{fill:#1973B8;}
	.st3{fill:#F8CD50;}
	.st4{fill:#FEF5DC;}
	.st5{fill:url(#SVGID_1_);}
	.st6{fill:url(#SVGID_2_);}
	.st7{fill:#1464A5;}
</style>
<title>Money/Retirement-Dollar</title>
<desc>Created with Sketch.</desc>
<g>
	<g id="Retirement" transform="translate(150.000000, 112.000000)">
		
			<linearGradient id="Path_1_" gradientUnits="userSpaceOnUse" x1="-269.3845" y1="485.1557" x2="-268.8682" y2="484.1869" gradientTransform="matrix(328.29 0 0 -327.5455 88567.0156 159000.3281)">
			<stop  offset="0" style="stop-color:#192647"/>
			<stop  offset="0" style="stop-color:#192647;stop-opacity:0.5"/>
			<stop  offset="1" style="stop-color:#192647;stop-opacity:0"/>
		</linearGradient>
		<path id="Path" class="st0" d="M367.5,151.3l-18.8-13.1c9.4-12.8,12.6-29.1,8.6-44.5s-14.6-28.2-29-34.8l-0.5-0.2
			c-0.7-0.3-1.5-0.7-2.3-1l-0.6-0.2c-0.8-0.3-1.6-0.6-2.4-0.9l-0.4-0.1c-1-0.3-2-0.6-3-0.9h-0.1c-0.9-0.2-1.9-0.4-2.8-0.6l-0.8-0.2
			c-0.7-0.1-1.4-0.2-2.2-0.3l-1-0.1c-0.7-0.1-1.4-0.2-2.2-0.2L309,54c-1-0.1-2.1-0.1-3.1-0.1c-14.9,0-29.2,6.3-39.2,17.4
			c-0.6,0.6-1.1,1.3-1.7,1.9c-1.2,1.4-2.3,3-3.3,4.5l-36.2-25.2c-7.6-5.3-17.7-5.3-25.3,0l-142,98.8c-5.9,4.1-9.5,10.9-9.5,18.2
			v184.4c0,12.2,9.9,22.2,22.2,22.2h284c5.9,0,11.5-2.3,15.7-6.5c4.2-4.2,6.5-9.8,6.5-15.7V169.5C377,162.2,373.4,155.5,367.5,151.3
			z"/>
		<path class="st1" d="M10.1,103.2l142-98.8c7.6-5.3,17.7-5.3,25.3,0l142,98.8c5.9,4.1,9.5,10.9,9.5,18.2v105.1H0.6V121.4
			C0.6,114.1,4.1,107.3,10.1,103.2z"/>
		<path class="st2" d="M10.1,103.2l142-98.8c7.6-5.3,17.7-5.3,25.3,0l142,98.8c5.9,4.1,9.5,10.9,9.5,18.2v105.1H0.6V121.4
			C0.6,114.1,4.1,107.3,10.1,103.2z"/>
		<path class="st3" d="M218,180c0,29.3-23.7,53-53,53s-53-23.7-53-53s23.7-53,53-53l0,0C194.3,127,218,150.7,218,180"/>
		<path class="st4" d="M170.9,189.6c0-3.3-1.3-4.6-7.6-7.5c-9-4.1-11.7-7.2-11.7-13.5c0-6.2,5.1-10.7,10.2-12V149h0.3l7.4,3.3v4.2
			c2.3,0.3,4.6,1.1,6.7,2.3l0.3,0.2l0.3,0.1l-0.1,0.3l-0.1,0.4l-1,5.8l-0.2,1.1l-0.1,0.8l-0.6-0.4l-0.9-0.7
			c-2.4-1.9-5.3-2.9-8.3-2.9c-3.9,0-6,1.7-6,4.6c0,2.8,1.4,4,7.5,6.9c9.1,4.1,12,7.4,12,14.1c0,6.2-4.4,10.9-9.5,12.5v8.8h-0.6
			l-7.1-3.9v-4.3c-2.6-0.3-7.2-1.3-10.1-2.8l-0.4-0.2l-0.3-0.1v-0.3l0.1-0.5l0.8-6l0.1-1l0.1-0.7l0.6,0.4l0.8,0.6
			c3.2,2.1,6.9,3.3,10.7,3.5C168.3,194.9,171,192.9,170.9,189.6"/>
		
			<linearGradient id="SVGID_1_" gradientUnits="userSpaceOnUse" x1="-268.1974" y1="485.041" x2="-267.8295" y2="484.7901" gradientTransform="matrix(77.9141 0 0 -99.8901 21028.5391 48602.8125)">
			<stop  offset="0" style="stop-color:#FFFFFF;stop-opacity:0.6"/>
			<stop  offset="1" style="stop-color:#FFFFFF;stop-opacity:0.2"/>
		</linearGradient>
		<path class="st5" d="M164.7,126.6c-24.4,0-45.6,16.7-51.4,40.4c-5.8,23.7,5.3,48.3,27,59.5l49.4-93.6
			C182,128.7,173.4,126.6,164.7,126.6L164.7,126.6z"/>
		<path class="st3" d="M311,59c0,29.3-23.7,53-53,53s-53-23.7-53-53s23.7-53,53-53l0,0C287.3,6,311,29.7,311,59"/>
		<path class="st4" d="M263.9,68.6c0-3.3-1.3-4.6-7.6-7.5c-9-4.1-11.7-7.2-11.7-13.5c0-6.2,5.1-10.7,10.2-12V28h0.3l7.4,3.3v4.2
			c2.3,0.3,4.6,1.1,6.7,2.3l0.3,0.2l0.3,0.1l-0.1,0.3l-0.1,0.4l-1,5.8l-0.2,1.1l-0.1,0.8l-0.6-0.4l-0.9-0.7
			c-2.4-1.9-5.3-2.9-8.3-2.9c-3.9,0-6,1.7-6,4.6c0,2.8,1.4,4,7.5,6.9c9.1,4.1,12,7.4,12,14.1c0,6.2-4.4,10.9-9.5,12.5v8.8h-0.6
			l-7.1-3.9v-4.3c-2.6-0.3-7.2-1.3-10.1-2.8l-0.4-0.2l-0.3-0.1v-0.3l0.1-0.5l0.8-6l0.1-1l0.1-0.7l0.6,0.4l0.8,0.6
			c3.2,2.1,6.9,3.3,10.7,3.5C261.3,73.9,264,71.9,263.9,68.6"/>
		
			<linearGradient id="SVGID_2_" gradientUnits="userSpaceOnUse" x1="-268.1976" y1="485.041" x2="-267.8296" y2="484.7901" gradientTransform="matrix(77.9241 0 0 -99.8901 21124.3164 48481.9844)">
			<stop  offset="0" style="stop-color:#FFFFFF;stop-opacity:0.6"/>
			<stop  offset="1" style="stop-color:#FFFFFF;stop-opacity:0.2"/>
		</linearGradient>
		<path class="st6" d="M257.8,5.8c-24.4,0-45.6,16.7-51.4,40.4s5.3,48.3,27,59.5L282.7,12C275.1,7.9,266.5,5.7,257.8,5.8z"/>
		<path class="st7" d="M162.6,209.5l-162-72.7v169c0,12.2,9.9,22.1,22.2,22.1h116c13.2,0,23.9-10.7,23.9-23.9V209.5z"/>
		<path class="st7" d="M166.8,209.5l162-72.7v169c0,12.2-9.9,22.1-22.1,22.1h-116c-13.2,0-23.9-10.7-23.9-23.9V209.5z"/>
		<path class="st2" d="M328.8,304L176.9,204c-7.4-4.9-17-4.9-24.4,0L0.6,304v1.7c0,5.9,2.3,11.5,6.5,15.7s9.8,6.5,15.7,6.5h283.9
			c12.2,0,22.1-9.9,22.1-22.2V304z"/>
	</g>
</g>
</svg>
