<svg xmlns="http://www.w3.org/2000/svg" xmlns:xlink="http://www.w3.org/1999/xlink" viewBox="0 0 600 600"><defs><style>.cls-1{fill:none;}.cls-2{fill:url(#Degradado_sin_nombre_100);}.cls-3{fill:#072146;}.cls-4{fill:#f8cd50;}.cls-5{fill:#fbf3dc;}.cls-6{fill:url(#Degradado_sin_nombre_13);}.cls-7{fill:url(#Degradado_sin_nombre_13-2);}.cls-8{fill:#043263;}</style><linearGradient id="Degradado_sin_nombre_100" x1="269.63" y1="-5303.53" x2="445.44" y2="-5634.17" gradientTransform="matrix(1, 0, 0, -1, 0, -5064)" gradientUnits="userSpaceOnUse"><stop offset="0" stop-color="#192647" stop-opacity="0.5"/><stop offset="1" stop-color="#192647" stop-opacity="0"/></linearGradient><linearGradient id="Degradado_sin_nombre_13" x1="252.3" y1="-5367.43" x2="301.2" y2="-5393.43" gradientTransform="matrix(1, 0, 0, -1, 0, -5064)" gradientUnits="userSpaceOnUse"><stop offset="0" stop-color="#fff" stop-opacity="0.6"/><stop offset="1" stop-color="#fff" stop-opacity="0.2"/></linearGradient><linearGradient id="Degradado_sin_nombre_13-2" x1="348.84" y1="-5242.09" x2="397.74" y2="-5268.09" xlink:href="#Degradado_sin_nombre_13"/></defs><title>9</title><g id="Cuadrados_Blancos" data-name="Cuadrados Blancos"><rect class="cls-1" width="600" height="600"/></g><g id="Capa_10" data-name="Capa 10"><path class="cls-2" d="M515.12,304l-19.53-13.6A54.91,54.91,0,0,0,474.43,208l-.54-.25c-.77-.35-1.56-.67-2.35-1l-.64-.25c-.83-.32-1.68-.62-2.53-.9l-.43-.13c-1-.34-2.07-.64-3.11-.9h-.07c-1-.23-1.95-.45-2.95-.65l-.87-.15c-.74-.14-1.49-.25-2.24-.36l-1-.12c-.75-.09-1.5-.16-2.24-.22l-1-.06c-1-.06-2.14-.11-3.21-.11a54.76,54.76,0,0,0-40.62,18c-.59.65-1.16,1.32-1.72,2a56.5,56.5,0,0,0-3.46,4.68l-37.58-26.17a23,23,0,0,0-26.26,0L194.34,303.94a23,23,0,0,0-9.84,18.85V514.06a23,23,0,0,0,23,23H502a23,23,0,0,0,23-22.95V322.8A23,23,0,0,0,515.12,304Z"/><path class="cls-3" d="M139.45,250.16,300,138.38,460.55,250.16A23,23,0,0,1,470.41,269V459H129.59V269A23,23,0,0,1,139.45,250.16Z"/><path class="cls-4" d="M355.74,329.25a55,55,0,1,1-55-55h0a55,55,0,0,1,55,55"/><path class="cls-5" d="M301.69,355.71c-10.31,0-17.23-6.33-19.51-17.83h-8.3v-6.11h7.53c-.06-.85-.06-1.72-.06-2.56v-1.72h-7.48V321.4h8.18c2.14-11.6,9.42-18.52,19.51-18.52,8.58,0,14.47,3.81,17.52,11.33l.07.17-7.53,4.26-.08-.25c-1.77-5.31-4.84-7.68-10-7.68-5.68,0-9.43,3.7-10.84,10.69h12.66v6.05H290.13V329c0,.92,0,1.87.07,2.73h13.3v6.15H290.94c1.46,6.84,5,10.17,10.84,10.17,5.3,0,8.35-2.42,10.22-8.1l.08-.25,7.36,4.44-.07.17C316.22,351.56,309.77,355.71,301.69,355.71Z"/><path class="cls-6" d="M300.76,274.31a54.91,54.91,0,0,0-25.35,103.6l51.27-97.12A54.88,54.88,0,0,0,300.76,274.31Z"/><path class="cls-4" d="M452.3,203.91a55,55,0,1,1-55-55h0a55,55,0,0,1,55,55h0"/><path class="cls-5" d="M398.24,230.37c-10.31,0-17.23-6.32-19.51-17.83h-8.3v-6.15H378c-.06-.86-.06-1.72-.06-2.56v-1.71h-7.49v-6.07h8.19c2.13-11.58,9.41-18.5,19.51-18.5,8.58,0,14.47,3.81,17.52,11.31l.06.18-7.53,4.25-.08-.24c-1.76-5.31-4.84-7.67-10-7.67-5.69,0-9.43,3.69-10.83,10.67H400v6.07H386.68v1.56c0,.91,0,1.86.07,2.72H400v6.15H387.48c1.47,6.85,5,10.18,10.84,10.18,5.3,0,8.36-2.43,10.23-8.1l.08-.25,7.36,4.44-.07.16A18.48,18.48,0,0,1,398.24,230.37Z"/><path class="cls-7" d="M397.31,149A54.91,54.91,0,0,0,372,252.58l51.27-97.13A54.85,54.85,0,0,0,397.31,149Z"/><path class="cls-8" d="M297.84,360.56l-168.25-75.5V460.5a23,23,0,0,0,23,23H273a24.8,24.8,0,0,0,24.8-24.8h0Z"/><path class="cls-8" d="M302.16,360.56l168.25-75.5V460.5a23,23,0,0,1-23,23H327a24.8,24.8,0,0,1-24.8-24.8h0Z"/><path class="cls-3" d="M470.41,458.7,312.65,354.86a23,23,0,0,0-25.3,0L129.59,458.7v1.8a23,23,0,0,0,23,23H447.41a23,23,0,0,0,23-23Z"/></g></svg>