<?xml version="1.0" encoding="utf-8"?>
<!-- Generator: Adobe Illustrator 23.0.1, SVG Export Plug-In . SVG Version: 6.00 Build 0)  -->
<svg version="1.1" id="Capa_1" xmlns="http://www.w3.org/2000/svg" xmlns:xlink="http://www.w3.org/1999/xlink" x="0px" y="0px"
	 viewBox="0 0 600 600" style="enable-background:new 0 0 600 600;" xml:space="preserve">
<style type="text/css">
	.st0{fill:url(#SVGID_1_);}
	.st1{fill:#2DCCCD;}
	.st2{opacity:0.5;fill:url(#SVGID_2_);enable-background:new    ;}
	.st3{fill-rule:evenodd;clip-rule:evenodd;fill:#FFFFFF;}
	.st4{fill:#1464A5;}
</style>
<title>Mesa de trabajo 1 copia 23</title>
<linearGradient id="SVGID_1_" gradientUnits="userSpaceOnUse" x1="267.9047" y1="563.3648" x2="438.5811" y2="884.3566" gradientTransform="matrix(1 0 0 1 0 -400)">
	<stop  offset="0" style="stop-color:#192647"/>
	<stop  offset="0" style="stop-color:#192647;stop-opacity:0.5"/>
	<stop  offset="1" style="stop-color:#192647;stop-opacity:0"/>
</linearGradient>
<path class="st0" d="M360.4,172c-6.9,0-12.5,5.6-12.5,12.5s5.6,12.5,12.5,12.5c77.7,0,141,63.2,141,141s-63.3,141-141,141
	s-141-63.2-141-141c-0.1-35.1,13-68.9,36.6-94.8v29.9c-12.1,19.5-18.6,42-18.5,65c0,1.3,0,2.6,0.1,3.9c0,0.4,0,0.7,0,1.1
	c0,1,0.1,2,0.2,3.1c0,0.3,0,0.6,0.1,0.9c0.1,1.3,0.2,2.6,0.3,3.9c0,0.2,0.1,0.5,0.1,0.7c0.1,1.1,0.2,2.1,0.4,3.2l0.1,1
	c0.2,1.2,0.4,2.4,0.6,3.5c0,0.1,0,0.2,0,0.3c0.2,1.3,0.5,2.6,0.8,3.8l0.2,0.8c0.2,1,0.5,2.1,0.7,3.1l0.2,0.7c0.3,1.3,0.7,2.6,1,3.8
	v0.1c0.4,1.2,0.7,2.4,1.1,3.6l0.2,0.7c0.4,1.2,0.8,2.4,1.2,3.6l0,0c0.5,1.3,0.9,2.5,1.4,3.8l0.1,0.3c0.5,1.2,1,2.3,1.5,3.5l0.1,0.3
	c1.1,2.5,2.3,4.9,3.5,7.3l0.1,0.1c31.6,60.3,106.1,83.5,166.4,51.9s83.5-106.1,51.9-166.4c-16.8-32-46.8-55.1-82.1-63l-0.3-0.1
	c-1.1-0.2-2.1-0.4-3.2-0.7l-0.5-0.1c-1.1-0.2-2.2-0.4-3.3-0.6h-0.3c-1.2-0.2-2.5-0.4-3.7-0.5l0,0c-1.1-0.1-2.3-0.3-3.5-0.4l-1-0.1
	c-0.9-0.1-1.7-0.1-2.6-0.2l-1.2-0.1c-0.9-0.1-1.7-0.1-2.5-0.1h-1.1c-1.2,0-2.4-0.1-3.6-0.1c-29.2-0.1-57.5,10.3-79.7,29.2v-31.6
	c0-6.9-5.6-12.5-12.5-12.5h-66.2c-6.9,0-12.5,5.6-12.5,12.5s5.6,12.5,12.5,12.5h36.6c-28.6,30.6-44.5,71.1-44.4,113
	c0,91.5,74.5,166,166,166s166-74.5,166-166S451.9,172,360.4,172z"/>
<path class="st1" d="M432,287.5c0,67.7-54.8,122.5-122.5,122.5S187,355.2,187,287.5S241.8,165,309.5,165l0,0
	C377.2,165,432,219.9,432,287.5"/>
<linearGradient id="SVGID_2_" gradientUnits="userSpaceOnUse" x1="243.6358" y1="584.9965" x2="333.3758" y2="753.7765" gradientTransform="matrix(1 0 0 1 0 -400)">
	<stop  offset="0" style="stop-color:#EAF9FA"/>
	<stop  offset="1" style="stop-color:#EAF9FA;stop-opacity:0.2"/>
	<stop  offset="1" style="stop-color:#EAF9FA;stop-opacity:0.5"/>
</linearGradient>
<path class="st2" d="M368.3,180c-59.4-32.4-133.8-10.6-166.3,48.8S191.5,362.6,250.8,395c0.8,0.5,1.7,0.9,2.5,1.3"/>
<path class="st3" d="M380,319.9l-39.9,34.2v-22.8h-68.4l22.8-22.8h45.6v-22.8L380,319.9z M243.2,262.9l39.9-34.2v22.8h68.4
	l-22.8,22.8h-45.6v22.8L243.2,262.9z"/>
<path class="st4" d="M426.9,170.1c-31.4-31.3-73-48.6-117.4-48.6c-6.9,0-12.5,5.6-12.5,12.5s5.6,12.5,12.5,12.5
	c37.7,0,73.1,14.6,99.7,41.2c26.6,26.6,41.3,62,41.4,99.7c0,37.7-14.6,73.1-41.2,99.7c-26.6,26.7-62,41.3-99.7,41.3
	c-37.7,0-73.1-14.6-99.7-41.2c-26.6-26.6-41.3-62-41.4-99.7c0-34.9,13.2-69,36.5-94.8v35.4c0,6.9,5.6,12.5,12.5,12.5
	c6.9,0,12.5-5.6,12.5-12.5V162c0-6.9-5.6-12.5-12.5-12.5h-66.2c-6.9,0-12.5,5.6-12.5,12.5c0,6.9,5.6,12.5,12.5,12.5H188
	c-28.7,30.8-44.4,70.7-44.4,113.1c0.1,44.3,17.3,86,48.7,117.3c31.4,31.3,73,48.6,117.4,48.6c44.3,0,86-17.3,117.4-48.7
	c31.4-31.4,48.6-73.1,48.5-117.4C475.5,243,458.3,201.4,426.9,170.1z"/>
</svg>
