<svg xmlns="http://www.w3.org/2000/svg" xmlns:xlink="http://www.w3.org/1999/xlink" viewBox="0 0 600 600"><defs><style>.cls-1{fill:none;}.cls-2{fill:url(#Degradado_sin_nombre_84);}.cls-3{fill:#2dcccd;}.cls-4{opacity:0.5;isolation:isolate;fill:url(#Degradado_sin_nombre_83);}.cls-5{fill:#fff;}.cls-6{fill:#043263;}</style><linearGradient id="Degradado_sin_nombre_84" x1="238.66" y1="-559.02" x2="444.6" y2="-946.33" gradientTransform="matrix(1, 0, 0, -1, 0, -418)" gradientUnits="userSpaceOnUse"><stop offset="0" stop-color="#192647" stop-opacity="0.5"/><stop offset="1" stop-color="#192647" stop-opacity="0"/></linearGradient><linearGradient id="Degradado_sin_nombre_83" x1="194.98" y1="-617.13" x2="330.52" y2="-752.67" gradientTransform="matrix(1, 0, 0, -1, 0, -418)" gradientUnits="userSpaceOnUse"><stop offset="0" stop-color="#eaf9fa" stop-opacity="0.5"/><stop offset="1" stop-color="#eaf9fa" stop-opacity="0"/></linearGradient></defs><title>18</title><g id="Cuadrados_Blancos" data-name="Cuadrados Blancos"><rect class="cls-1" width="600" height="600"/></g><g id="Capa_11" data-name="Capa 11"><path class="cls-2" d="M350.27,151.44a15.08,15.08,0,1,0,0,30.16c93.75,0,170.13,76.26,170.13,170.14S444,521.87,350.27,521.87,180.13,445.61,180.13,351.74A169.12,169.12,0,0,1,224.3,237.35v36.08A147.63,147.63,0,0,0,202,351.86c0,1.57,0,3.14.12,4.7v1.33c0,1.21.12,2.41.24,3.74a3.14,3.14,0,0,0,.13,1.09l.36,4.7c0,.25.12.61.12.85.12,1.33.24,2.53.48,3.86l.12,1.21c.24,1.44.48,2.89.73,4.22v.36c.24,1.57.6,3.14,1,4.59l.24,1c.24,1.21.61,2.54.85,3.74l.24.85c.36,1.57.84,3.13,1.2,4.58v.12c.49,1.45.85,2.9,1.33,4.35l.24.84c.49,1.45,1,2.9,1.45,4.35h0c.6,1.56,1.09,3,1.69,4.58l.12.36c.6,1.45,1.21,2.78,1.81,4.23l.12.36c1.33,3,2.78,5.91,4.23,8.81l.12.12c38.12,72.76,128,100.75,200.78,62.62a148.73,148.73,0,0,0-36.44-276.8l-.36-.12c-1.33-.24-2.54-.48-3.87-.84l-.6-.12-4-.73H374c-1.45-.24-3-.48-4.47-.6h0c-1.32-.12-2.77-.36-4.22-.48l-1.21-.13c-1.08-.12-2.05-.12-3.13-.24l-1.45-.12a26.44,26.44,0,0,0-3-.12h-1.33c-1.44,0-2.89-.12-4.34-.12a147.74,147.74,0,0,0-96.17,35.23V200.07A15.09,15.09,0,0,0,239.62,185H159.74a15.09,15.09,0,0,0,0,30.17H203.9A199.18,199.18,0,0,0,150.33,351.5c0,110.4,89.89,200.3,200.3,200.3s200.3-89.9,200.3-200.3S460.67,151.44,350.27,151.44Z"/><path class="cls-3" d="M448.66,300.8A147.81,147.81,0,1,1,300.85,153h0A147.82,147.82,0,0,1,448.66,300.8"/><path class="cls-4" d="M371.8,171.09A147.94,147.94,0,0,0,171.14,230C131.92,301.65,158.47,391.42,230,430.52c1,.6,2,1.08,3,1.56Z"/><path class="cls-5" d="M385.92,339.9l-48.15,41.26V353.65H255.24l27.51-27.51h55V298.63ZM220.85,271.12,269,229.85v27.52h82.54L324,284.88H269v27.51Z"/><path class="cls-6" d="M442.51,159.15A199.27,199.27,0,0,0,300.85,100.5a15.09,15.09,0,0,0,0,30.17,170,170,0,1,1-170,170.13,171.54,171.54,0,0,1,44-114.38v42.71a15.08,15.08,0,1,0,30.16,0V149.37A15.08,15.08,0,0,0,190,134.29H110.08a15.09,15.09,0,0,0,0,30.17h44.17a200.31,200.31,0,0,0,288.5,277.88,200.27,200.27,0,0,0-.24-283.19Z"/></g></svg>