<svg xmlns="http://www.w3.org/2000/svg" xmlns:xlink="http://www.w3.org/1999/xlink" viewBox="0 0 600 600"><defs><style>.cls-1{fill:none;}.cls-2{fill:url(#Degradado_sin_nombre_120);}.cls-3{fill:#d4edfc;}.cls-4{fill:#043263;}.cls-5{fill:url(#Degradado_sin_nombre_38);}.cls-6{fill:#f8cd50;}.cls-7{fill:#fbf3dc;}.cls-8{fill:url(#Degradado_sin_nombre_13);}</style><linearGradient id="Degradado_sin_nombre_120" x1="256.09" y1="-3187.4" x2="443.91" y2="-3540.66" gradientTransform="matrix(1, 0, 0, -1, 0, -3014)" gradientUnits="userSpaceOnUse"><stop offset="0" stop-color="#1c2645" stop-opacity="0.5"/><stop offset="1" stop-color="#1c2645" stop-opacity="0"/></linearGradient><linearGradient id="Degradado_sin_nombre_38" x1="470.06" y1="-3323.97" x2="220.18" y2="-3323.97" gradientTransform="matrix(1, 0, 0, -1, 0, -3014)" gradientUnits="userSpaceOnUse"><stop offset="0" stop-color="#072146" stop-opacity="0.8"/><stop offset="1" stop-color="#072146" stop-opacity="0.2"/></linearGradient><linearGradient id="Degradado_sin_nombre_13" x1="269.12" y1="-3382.54" x2="300.25" y2="-3399.1" gradientTransform="matrix(1, 0, 0, -1, 0, -3014)" gradientUnits="userSpaceOnUse"><stop offset="0" stop-color="#fff" stop-opacity="0.6"/><stop offset="1" stop-color="#fff" stop-opacity="0.2"/></linearGradient></defs><title>1</title><g id="Cuadrados_Blancos" data-name="Cuadrados Blancos"><rect class="cls-1" width="600" height="600"/></g><g id="Capa_18" data-name="Capa 18"><circle class="cls-2" cx="350" cy="350.03" r="200"/><circle class="cls-3" cx="300" cy="300" r="200"/><circle class="cls-4" cx="300" cy="300" r="170"/><path class="cls-5" d="M379.82,149.88,220.18,450.12A170,170,0,0,0,379.82,149.88Z"/><path class="cls-6" d="M335,385a35,35,0,1,1-35-35h0a35,35,0,0,1,35,35h0"/><path class="cls-7" d="M300.56,401.86c-6.57,0-11-4-12.43-11.37h-5.27v-3.91h4.81v-2.73H282.9V380h5.22c1.36-7.39,6-11.79,12.43-11.79,5.46,0,9.22,2.42,11.16,7.21v.11l-4.8,2.71-.05-.16c-1.13-3.38-3.08-4.89-6.35-4.89-3.63,0-6,2.35-6.91,6.81h8.06v3.86H293.2v2.74h8.47v3.91h-8c.94,4.37,3.2,6.49,6.91,6.49,3.37,0,5.32-1.54,6.51-5.16l.05-.16,4.69,2.83v.1A11.78,11.78,0,0,1,300.56,401.86Z"/><path class="cls-8" d="M300,350a35,35,0,0,0-16.15,66l32.66-61.88A35,35,0,0,0,300,350Z"/><path class="cls-3" d="M340.46,249.65a1,1,0,0,0-.47-.12H316V181.37a1,1,0,0,0-1-1H285a1,1,0,0,0-1,1v68.16H260a1,1,0,0,0-.89,1.47l40,74.32a1,1,0,0,0,1.35.41,1,1,0,0,0,.41-.41l40-74.32A1,1,0,0,0,340.46,249.65Z"/></g></svg>