<?xml version="1.0" encoding="utf-8"?>
<!-- Generator: Adobe Illustrator 25.2.3, SVG Export Plug-In . SVG Version: 6.00 Build 0)  -->
<svg version="1.1" id="Capa_1" xmlns="http://www.w3.org/2000/svg" xmlns:xlink="http://www.w3.org/1999/xlink" x="0px" y="0px"
	 viewBox="0 0 600 600" style="enable-background:new 0 0 600 600;" xml:space="preserve">
<style type="text/css">
	.st0{fill:none;}
	.st1{fill:url(#SVGID_1_);}
	.st2{fill:#D4EDFC;}
	.st3{fill:#1464A5;}
	.st4{fill:url(#SVGID_2_);}
	.st5{fill:#F8CD51;}
	.st6{fill:url(#SVGID_3_);}
	.st7{fill:#FEF5DC;}
</style>
<g id="Cuadrados_Blancos">
	<rect y="0" class="st0" width="600" height="600"/>
</g>
<g id="Capa_18">
	
		<linearGradient id="SVGID_1_" gradientUnits="userSpaceOnUse" x1="256.0916" y1="-4526.707" x2="443.9084" y2="-4173.4531" gradientTransform="matrix(1 0 0 1 0 4700.1099)">
		<stop  offset="0" style="stop-color:#1C2645;stop-opacity:0.5"/>
		<stop  offset="1" style="stop-color:#1C2645;stop-opacity:0"/>
	</linearGradient>
	<circle class="st1" cx="350" cy="350" r="200"/>
	<circle class="st2" cx="300" cy="300" r="200"/>
	<circle class="st3" cx="300" cy="300" r="170"/>
	
		<linearGradient id="SVGID_2_" gradientUnits="userSpaceOnUse" x1="470.0551" y1="-4390.1426" x2="220.18" y2="-4390.1426" gradientTransform="matrix(1 0 0 1 0 4700.1099)">
		<stop  offset="0" style="stop-color:#043263;stop-opacity:0.4"/>
		<stop  offset="1" style="stop-color:#043263;stop-opacity:0.1"/>
	</linearGradient>
	<path class="st4" d="M379.8,149.9L220.2,450.1c82.9,44.1,185.9,12.6,229.9-70.3S462.7,194,379.8,149.9L379.8,149.9z"/>
	<path class="st2" d="M340.5,249.6c-0.1-0.1-0.3-0.1-0.5-0.1h-24v-68.2c0-0.6-0.4-1-1-1h-30c-0.6,0-1,0.4-1,1v68.2h-24
		c-0.6,0-1,0.4-1,1c0,0.2,0,0.3,0.1,0.5l40,74.3c0.3,0.5,0.9,0.7,1.4,0.4c0.2-0.1,0.3-0.2,0.4-0.4l40-74.3
		C341.1,250.5,340.9,249.9,340.5,249.6z"/>
	<path class="st5" d="M335,385.1c0,19.3-15.7,35-35,35s-35-15.7-35-35s15.7-35,35-35l0,0l0,0C319.3,350.1,335,365.7,335,385.1
		L335,385.1"/>
	
		<linearGradient id="SVGID_3_" gradientUnits="userSpaceOnUse" x1="269.5553" y1="-3931.2585" x2="298.5253" y2="-3915.8582" gradientTransform="matrix(1 0 0 1 0 4300.1099)">
		<stop  offset="0" style="stop-color:#FFFFFF;stop-opacity:0.6"/>
		<stop  offset="1" style="stop-color:#FFFFFF;stop-opacity:0.2"/>
	</linearGradient>
	<path class="st6" d="M315,353.4c-17.5-8.3-38.3-0.8-46.6,16.7c-7.7,16.3-1.8,35.9,13.8,45.1L315,353.4z"/>
	<path class="st7" d="M304.3,391.9c0-2.3-0.9-3.2-5.2-5.2c-6.3-2.8-8.1-5-8.1-9.4s3.5-7.4,7.1-8.3v-5.3h0.2l5.1,2.3v2.9
		c1.6,0.2,3.2,0.8,4.7,1.6l0.2,0.1l0.2,0.1l0,0.2v0.3l-0.7,4l-0.1,0.8l-0.1,0.5l-0.4-0.3l-0.6-0.5c-1.6-1.3-3.7-2-5.8-2
		c-2.7,0-4.1,1.2-4.1,3.2s1,2.8,5.2,4.8c6.3,2.8,8.3,5.1,8.3,9.8c-0.1,4-2.7,7.5-6.6,8.7v6.1H303l-4.9-2.7v-3c-2.4-0.3-4.8-1-7-2
		l-0.3-0.1l-0.2-0.1v-0.2l0-0.4l0.6-4.1l0.1-0.7v-0.5l0.4,0.3l0.6,0.4c2.2,1.5,4.8,2.3,7.4,2.4C302.5,395.5,304.3,394.1,304.3,391.9
		"/>
</g>
</svg>
