<svg id="Contenido" xmlns="http://www.w3.org/2000/svg" xmlns:xlink="http://www.w3.org/1999/xlink" viewBox="0 0 600 600"><defs><style>.cls-1{fill:url(#Degradado_sin_nombre_2);}.cls-2{fill:#d4edfc;}.cls-3{fill:#1464a5;}.cls-4{fill:url(#Degradado_sin_nombre_38);}.cls-5{fill:#f8cd50;}.cls-6{fill:#fbf3dc;}.cls-7{fill:url(#Degradado_sin_nombre_5);}</style><linearGradient id="Degradado_sin_nombre_2" x1="256.09" y1="173.41" x2="443.91" y2="526.66" gradientUnits="userSpaceOnUse"><stop offset="0" stop-color="#1c2645"/><stop offset="0" stop-color="#1c2645" stop-opacity="0.5"/><stop offset="1" stop-color="#1c2645" stop-opacity="0"/></linearGradient><linearGradient id="Degradado_sin_nombre_38" x1="470" y1="309.94" x2="220.18" y2="309.94" gradientUnits="userSpaceOnUse"><stop offset="0" stop-color="#043263" stop-opacity="0.4"/><stop offset="1" stop-color="#043263" stop-opacity="0.1"/></linearGradient><linearGradient id="Degradado_sin_nombre_5" x1="269.11" y1="368.56" x2="300.24" y2="385.12" gradientUnits="userSpaceOnUse"><stop offset="0" stop-color="#fff" stop-opacity="0.6"/><stop offset="1" stop-color="#fff" stop-opacity="0.2"/></linearGradient></defs><title>_</title><circle class="cls-1" cx="350" cy="350.03" r="200"/><circle class="cls-2" cx="300" cy="300" r="200"/><circle class="cls-3" cx="300" cy="300" r="170"/><path class="cls-4" d="M379.82,149.88,220.18,450.12A170,170,0,0,0,379.82,149.88Z"/><path class="cls-5" d="M335,385a35,35,0,1,1-35-35h0a35,35,0,0,1,35,35"/><path class="cls-6" d="M300.56,401.86c-6.57,0-11-4-12.43-11.37h-5.27v-3.91h4.81c0-.55,0-1.1,0-1.63v-1.1h-4.77V380h5.22c1.36-7.39,6-11.79,12.43-11.79,5.46,0,9.22,2.42,11.16,7.21l0,.11-4.8,2.71-.05-.16c-1.13-3.38-3.08-4.89-6.35-4.89-3.63,0-6,2.35-6.91,6.81h8.06v3.86H293.2v1c0,.58,0,1.19,0,1.74h8.47v3.91h-8c.94,4.37,3.2,6.49,6.91,6.49,3.37,0,5.32-1.54,6.51-5.16l.05-.16,4.69,2.83,0,.1A11.78,11.78,0,0,1,300.56,401.86Z"/><path class="cls-7" d="M300,350a35,35,0,0,0-16.15,66l32.66-61.88A34.92,34.92,0,0,0,300,350Z"/><path class="cls-2" d="M284,181.37V287.72h32V181.37a1,1,0,0,0-1-1H285A1,1,0,0,0,284,181.37Z"/><path class="cls-2" d="M259.11,251l40,74.32a1,1,0,0,0,1.76,0l40-74.32a1,1,0,0,0-.88-1.47H260A1,1,0,0,0,259.11,251Z"/></svg>