<svg id="Capa_1" data-name="Capa 1" xmlns="http://www.w3.org/2000/svg" xmlns:xlink="http://www.w3.org/1999/xlink" viewBox="0 0 600 600"><defs><style>.cls-1{fill:url(#Degradado_sin_nombre);}.cls-2{fill:#f8cd51;}.cls-3{fill:url(#Degradado_sin_nombre_4);}.cls-4{fill:#fef5dc;}.cls-5{fill:#2dcccd;}.cls-6{fill:#28ad68;}.cls-7{fill:#fff;}.cls-8{fill:none;}</style><linearGradient id="Degradado_sin_nombre" x1="267.9" y1="1304.53" x2="438.58" y2="983.54" gradientTransform="matrix(1, 0, 0, -1, 0, 1467.89)" gradientUnits="userSpaceOnUse"><stop offset="0" stop-color="#192647"/><stop offset="0" stop-color="#192647" stop-opacity="0.5"/><stop offset="1" stop-color="#192647" stop-opacity="0"/></linearGradient><linearGradient id="Degradado_sin_nombre_4" x1="227.96" y1="1880.49" x2="332.98" y2="1775.49" gradientTransform="matrix(1, 0, 0, -1, 0, 2089.89)" gradientUnits="userSpaceOnUse"><stop offset="0" stop-color="#fff" stop-opacity="0.5"/><stop offset="1" stop-color="#fff" stop-opacity="0"/></linearGradient></defs><path class="cls-1" d="M360.4,172a12.5,12.5,0,0,0,0,25c77.7,0,141,63.2,141,141s-63.3,141-141,141-141-63.2-141-141A140.16,140.16,0,0,1,256,243.2v29.9a122.33,122.33,0,0,0-18.5,65c0,1.3,0,2.6.1,3.9v1.1c0,1,.1,2,.2,3.1a2.77,2.77,0,0,0,.1.9l.3,3.9c0,.2.1.5.1.7.1,1.1.2,2.1.4,3.2l.1,1c.2,1.2.4,2.4.6,3.5v.3c.2,1.3.5,2.6.8,3.8l.2.8c.2,1,.5,2.1.7,3.1l.2.7c.3,1.3.7,2.6,1,3.8v.1c.4,1.2.7,2.4,1.1,3.6l.2.7,1.2,3.6h0c.5,1.3.9,2.5,1.4,3.8l.1.3c.5,1.2,1,2.3,1.5,3.5l.1.3c1.1,2.5,2.3,4.9,3.5,7.3l.1.1A123.25,123.25,0,1,0,387.7,217.7l-.3-.1c-1.1-.2-2.1-.4-3.2-.7l-.5-.1-3.3-.6h-.3c-1.2-.2-2.5-.4-3.7-.5h0c-1.1-.1-2.3-.3-3.5-.4l-1-.1c-.9-.1-1.7-.1-2.6-.2l-1.2-.1a21.75,21.75,0,0,0-2.5-.1h-1.1c-1.2,0-2.4-.1-3.6-.1a122.4,122.4,0,0,0-79.7,29.2V212.3a12.5,12.5,0,0,0-12.5-12.5H202.5a12.5,12.5,0,0,0,0,25h36.6a165.08,165.08,0,0,0-44.4,113c0,91.5,74.5,166,166,166s166-74.5,166-166S451.9,172,360.4,172Z"/><path class="cls-2" d="M432.27,287.53A122.51,122.51,0,1,1,309.63,165h0A122.48,122.48,0,0,1,432.27,287.36v.17h0"/><path class="cls-3" d="M367.25,179.22a122.73,122.73,0,0,0-165.61,50.63c-32,59.49-9,134,50.63,165.76Z"/><path class="cls-4" d="M266.91,283.13H250.17V270.58h18.18c5.15-28.35,22.7-41.28,43.13-41.28s33.1,11,38.65,24.92l-15.85,9c-4-11.87-11-17.4-22.7-17.4S290,253.86,286.81,270.6h28.4v12.53H285.54v4a51.81,51.81,0,0,0,.27,6.59h29.54v12.71H287.21c3.18,15.58,11,23.74,24.8,23.74,11.74,0,18.86-5.26,23.2-18.46L350.79,321c-6.47,14.83-19.67,25.19-39,25.19s-37.85-12.54-43.12-39.84H250.3V293.68h16.95a49.53,49.53,0,0,1-.25-6.21v-4.34Z"/><path class="cls-5" d="M426.9,170.1a165.14,165.14,0,0,0-117.4-48.6,12.5,12.5,0,0,0,0,25,140.93,140.93,0,1,1-140.9,141,142.21,142.21,0,0,1,36.5-94.8v35.4a12.5,12.5,0,0,0,25,0V162a12.5,12.5,0,0,0-12.5-12.5H151.4a12.5,12.5,0,1,0,0,25H188a166,166,0,1,0,238.9-4.4Z"/><path class="cls-6" d="M490.2,396.3A61.2,61.2,0,1,1,429,335.11a61.2,61.2,0,0,1,61.2,61.19"/><path class="cls-7" d="M416.38,423h0a4.42,4.42,0,0,1-3.29-1.41L394.26,402.8a4.73,4.73,0,0,1,6.68-6.69l15.54,15.54,40.76-40.77a4.84,4.84,0,0,1,6.69,0,4.75,4.75,0,0,1,0,6.69l-44.16,44.06A4.77,4.77,0,0,1,416.38,423Z"/><rect class="cls-8" width="600" height="600"/></svg>