<svg id="Capa_1" data-name="Capa 1" xmlns="http://www.w3.org/2000/svg" xmlns:xlink="http://www.w3.org/1999/xlink" viewBox="0 0 600 600"><defs><style>.cls-1{fill:url(#Degradado_sin_nombre);}.cls-2{fill:#f8cd50;}.cls-3{fill:url(#Degradado_sin_nombre_4);}.cls-4{fill:#fef5dc;}.cls-5{fill:#1464a5;}.cls-6{fill:#28ad68;}.cls-7{fill:#fff;}.cls-8{fill:none;}</style><linearGradient id="Degradado_sin_nombre" x1="267.9" y1="38.64" x2="438.58" y2="-282.36" gradientTransform="matrix(1, 0, 0, -1, 0, 202)" gradientUnits="userSpaceOnUse"><stop offset="0" stop-color="#192647"/><stop offset="0" stop-color="#192647" stop-opacity="0.5"/><stop offset="1" stop-color="#192647" stop-opacity="0"/></linearGradient><linearGradient id="Degradado_sin_nombre_4" x1="229.92" y1="811.25" x2="334.39" y2="915.69" gradientTransform="translate(0 -600)" gradientUnits="userSpaceOnUse"><stop offset="0" stop-color="#fff" stop-opacity="0.5"/><stop offset="1" stop-color="#fff" stop-opacity="0"/></linearGradient></defs><path class="cls-1" d="M360.4,172a12.5,12.5,0,0,0,0,25c77.7,0,141,63.2,141,141s-63.3,141-141,141-141-63.2-141-141A140.16,140.16,0,0,1,256,243.2v29.9a122.33,122.33,0,0,0-18.5,65c0,1.3,0,2.6.1,3.9v1.1c0,1,.1,2,.2,3.1a2.77,2.77,0,0,0,.1.9l.3,3.9c0,.2.1.5.1.7.1,1.1.2,2.1.4,3.2l.1,1c.2,1.2.4,2.4.6,3.5v.3c.2,1.3.5,2.6.8,3.8l.2.8c.2,1,.5,2.1.7,3.1l.2.7c.3,1.3.7,2.6,1,3.8v.1c.4,1.2.7,2.4,1.1,3.6l.2.7,1.2,3.6h0c.5,1.3.9,2.5,1.4,3.8l.1.3c.5,1.2,1,2.3,1.5,3.5l.1.3c1.1,2.5,2.3,4.9,3.5,7.3l.1.1A123.25,123.25,0,1,0,387.7,217.7l-.3-.1c-1.1-.2-2.1-.4-3.2-.7l-.5-.1-3.3-.6h-.3c-1.2-.2-2.5-.4-3.7-.5h0c-1.1-.1-2.3-.3-3.5-.4l-1-.1c-.9-.1-1.7-.1-2.6-.2l-1.2-.1a21.75,21.75,0,0,0-2.5-.1h-1.1c-1.2,0-2.4-.1-3.6-.1a122.4,122.4,0,0,0-79.7,29.2V212.3a12.5,12.5,0,0,0-12.5-12.5H202.5a12.5,12.5,0,0,0,0,25h36.6a165.08,165.08,0,0,0-44.4,113c0,91.5,74.5,166,166,166s166-74.5,166-166S451.9,172,360.4,172Z"/><path class="cls-2" d="M432,287.72a122.4,122.4,0,1,1,0-.15h0"/><path class="cls-3" d="M368.82,180.37A122.38,122.38,0,1,0,250,394.35h0q2,1.08,3.94,2.12Z"/><path class="cls-4" d="M324,311.75c0-8.05-3.24-11.29-18.45-18.18-22-10-28.56-17.56-28.56-33s12.37-26,24.89-29.3V212.79h.66l18.07,7.94V231a43.55,43.55,0,0,1,16.17,5.61l.87.6.57.36-.15.74-.19,1.1-2.29,14.28-.44,2.67-.19,1.78L333.5,257l-2.11-1.63A34.18,34.18,0,0,0,311,248.23c-9.43,0-14.6,4.24-14.6,11.4,0,6.69,3.32,9.81,18.3,16.65,22.08,10.07,29.13,18.07,29.13,34.58a32.35,32.35,0,0,1-23.13,30.53V363H319.2l-17.28-9.64V342.77c-6.25-.79-17.44-3.14-24.54-6.91l-1.1-.53-.7-.38v-.72l.15-1.15,2.12-14.57.36-2.52.25-1.7,1.42.95,2.12,1.4a48.26,48.26,0,0,0,25.91,8.63c9.94,0,15.95-5,15.95-13.25"/><path class="cls-5" d="M426.9,170.1a165.14,165.14,0,0,0-117.4-48.6,12.5,12.5,0,0,0,0,25,140.93,140.93,0,1,1-140.9,141,142.21,142.21,0,0,1,36.5-94.8v35.4a12.5,12.5,0,0,0,25,0V162a12.5,12.5,0,0,0-12.5-12.5H151.4a12.5,12.5,0,1,0,0,25H188a166,166,0,1,0,238.9-4.4Z"/><path class="cls-6" d="M490.2,396.3A61.2,61.2,0,1,1,429,335.11a61.2,61.2,0,0,1,61.2,61.19"/><path class="cls-7" d="M416.38,423h0a4.42,4.42,0,0,1-3.29-1.41L394.26,402.8a4.73,4.73,0,0,1,6.68-6.69l15.54,15.54,40.76-40.77a4.84,4.84,0,0,1,6.69,0,4.75,4.75,0,0,1,0,6.69l-44.16,44.06A4.77,4.77,0,0,1,416.38,423Z"/><rect class="cls-8" width="600" height="600"/></svg>