<svg id="Contenido" xmlns="http://www.w3.org/2000/svg" xmlns:xlink="http://www.w3.org/1999/xlink" viewBox="0 0 600 600"><defs><style>.cls-1{fill:url(#Degradado_sin_nombre_42);}.cls-2{fill:#49a5e6;}.cls-3{fill:url(#Degradado_sin_nombre_17);}.cls-4{fill:#1464a5;}.cls-5{fill:#043263;}.cls-6{fill:#2dcccd;}</style><linearGradient id="Degradado_sin_nombre_42" x1="202.53" y1="172.05" x2="390.59" y2="525.73" gradientUnits="userSpaceOnUse"><stop offset="0" stop-color="#192647" stop-opacity="0.5"/><stop offset="1" stop-color="#192647" stop-opacity="0"/></linearGradient><linearGradient id="Degradado_sin_nombre_17" x1="426.42" y1="320.35" x2="302.91" y2="320.35" gradientUnits="userSpaceOnUse"><stop offset="0" stop-color="#043263" stop-opacity="0.3"/><stop offset="1" stop-color="#043263" stop-opacity="0.1"/></linearGradient></defs><title>mecedora</title><path class="cls-1" d="M547.49,424.15a10,10,0,0,0-13.75-1.06c-21.56,17.33-49.21,31.24-80.63,41.05a360.45,360.45,0,0,1-12.63-52.31h9.59a3,3,0,0,0,3-3v-17h10.47a3.08,3.08,0,0,0,.61-.06,2.81,2.81,0,0,0,.56-.18,3,3,0,0,0,1-.64,3.16,3.16,0,0,0,.37-.45,3,3,0,0,0,.51-1.67V373.88A22.88,22.88,0,0,0,462.61,361c-.2-.31-.42-.61-.64-.91a22.91,22.91,0,0,0-6.5-5.9,22.61,22.61,0,0,0-3-1.53l-1-.41a22.52,22.52,0,0,0-2.16-.67,22.92,22.92,0,0,0-4.56-.69c-.4,0-.79,0-1.19,0h-9q-.3-9-.31-18.06,0-5,.11-9.9h29.55a5.08,5.08,0,0,1,2,9.76,3.08,3.08,0,0,0-2,2.81c0,11.12,14.44,15.8,20.71,6.62a25.06,25.06,0,0,0-20.71-39.19H310.65A800.89,800.89,0,0,0,295,204.72,40.12,40.12,0,0,0,239.78,177l-.79.35c-2.4-5.95-4.94-11.64-7.62-17a3,3,0,0,0-4.06-1.31l-12.43,6.43a3,3,0,0,0-1.32,4c20.24,40.7,31.81,100,31.81,163.35,0,48.05-6.52,93.34-18.85,131.13-31.18-9.8-58.6-23.65-80-40.86A10,10,0,1,0,134,438.68c48.53,38.93,124.58,61.93,206.14,61.93s157.61-23,206.14-61.93A10,10,0,0,0,547.49,424.15ZM340.12,480.61a391.56,391.56,0,0,1-94.34-11.24,383.61,383.61,0,0,0,13.55-57.54H420.24a384.09,384.09,0,0,0,13.59,57.69A391.78,391.78,0,0,1,340.12,480.61Z"/><path class="cls-2" d="M216.95,299.88H403.42a23,23,0,0,1,23,23v15a3,3,0,0,1-3,3H216.95a0,0,0,0,1,0,0v-41A0,0,0,0,1,216.95,299.88Z"/><path class="cls-3" d="M403.42,299.88H324.68l-21.77,40.95H423.42a3,3,0,0,0,3-3V322.88A23,23,0,0,0,403.42,299.88Z"/><path class="cls-2" d="M254.89,153.72A40.11,40.11,0,0,0,199.66,126l-4.47,2c14.21,43.11,24.47,105.54,27.89,172.72.73,14.45,1.13,28.77,1.21,42.82l51-2.59c-.1-13.9-.51-28-1.23-42.27C271.4,246.75,264.75,196.87,254.89,153.72Z"/><path class="cls-4" d="M258.67,342.82l-9.92-1.29a448.73,448.73,0,0,0,3.48-70.09l10-.26A460.08,460.08,0,0,1,258.67,342.82Z"/><rect class="cls-4" x="295.12" y="270.92" width="10" height="69.9"/><path class="cls-4" d="M350.09,341.59l-9.93,1.2a460.1,460.1,0,0,1-3-71.63c3.34.12,6.67.23,10,.36A448.69,448.69,0,0,0,350.09,341.59Z"/><path class="cls-5" d="M410,360.83H205.45a3,3,0,0,1-3-3v-14a3,3,0,0,1,3-3H413v17A3,3,0,0,1,410,360.83Z"/><path class="cls-4" d="M374.07,281.82c0,50.81,7,98.86,20.36,139l19-6.31c-12.65-38.09-19.34-84-19.34-132.65q0-11.74.53-23.28h-20Q374.08,270.08,374.07,281.82Z"/><rect class="cls-5" x="212.05" y="251.92" width="211.68" height="20"/><path class="cls-5" d="M423.73,284.49h0a3.08,3.08,0,0,1,2-2.81,5.08,5.08,0,0,0-2-9.76v-20a25.06,25.06,0,0,1,20.71,39.19C438.17,300.29,423.73,295.61,423.73,284.49Z"/><path class="cls-4" d="M204.89,420.78l-19-6.31c12.66-38.09,19.34-84,19.34-132.65,0-63.35-11.57-122.65-31.81-163.35a3,3,0,0,1,1.32-4l12.43-6.43a3,3,0,0,1,4.06,1.31c21.63,43.41,34,106,34,172.45C225.25,332.63,218.21,380.68,204.89,420.78Z"/><path class="cls-6" d="M300,449.61c-81.56,0-157.61-23-206.14-61.93a10,10,0,0,1-1.23-14.53h0a10,10,0,0,1,13.75-1.06c45,36.16,116.45,57.52,193.62,57.52s148.62-21.36,193.62-57.52a10,10,0,0,1,13.75,1.06h0a10,10,0,0,1-1.23,14.53C457.61,426.61,381.56,449.61,300,449.61Z"/></svg>