<svg xmlns="http://www.w3.org/2000/svg" xmlns:xlink="http://www.w3.org/1999/xlink" viewBox="0 0 600 600"><defs><style>.cls-1{fill:none;}.cls-2{fill:url(#Degradado_sin_nombre_506);}.cls-3{fill:#2dcccd;}.cls-4{fill:#f8cd50;}.cls-5{fill:#004481;}.cls-6{fill:url(#Degradado_sin_nombre_114);}.cls-7{fill:#d4edfc;}.cls-8{fill:#49a5e6;}.cls-9{opacity:0.5;isolation:isolate;fill:url(#Degradado_sin_nombre_105);}.cls-10{fill:#043263;}</style><linearGradient id="Degradado_sin_nombre_506" x1="312.69" y1="-2116.96" x2="442.74" y2="-2361.54" gradientTransform="matrix(1, 0, 0, -1, 0, -1890)" gradientUnits="userSpaceOnUse"><stop offset="0" stop-color="#192647" stop-opacity="0.5"/><stop offset="1" stop-color="#192647" stop-opacity="0"/></linearGradient><linearGradient id="Degradado_sin_nombre_114" x1="480.24" y1="-2165.47" x2="249.75" y2="-2165.47" gradientTransform="matrix(1, 0, 0, -1, -19.84, -1898.63)" gradientUnits="userSpaceOnUse"><stop offset="0" stop-color="#072146" stop-opacity="0.8"/><stop offset="1" stop-color="#072146" stop-opacity="0"/></linearGradient><linearGradient id="Degradado_sin_nombre_105" x1="227.08" y1="-2035.12" x2="326.1" y2="-2134.15" gradientTransform="matrix(1, 0, 0, -1, 50.56, -1883.16)" gradientUnits="userSpaceOnUse"><stop offset="0" stop-color="#fff" stop-opacity="0.5"/><stop offset="1" stop-color="#edf8f9" stop-opacity="0.2"/><stop offset="1" stop-color="#fff" stop-opacity="0"/></linearGradient></defs><title>11</title><g id="Cuadrados_Blancos" data-name="Cuadrados Blancos"><rect class="cls-1" width="600" height="600"/></g><g id="Capa_69" data-name="Capa 69"><path class="cls-2" d="M512.76,259.53A268.3,268.3,0,0,0,527.31,161l-.09-2.48a4.37,4.37,0,0,0-4.16-4.13,267.69,267.69,0,0,0-99.78,16.47l-.17.06A248.81,248.81,0,0,0,296.85,274l-15.12,24.59-31.32-1.1A80,80,0,0,0,191,320.9l-46.55,46.55a7.31,7.31,0,0,0,6.83,12.29l64-14.87A21.33,21.33,0,0,1,228.43,366l9.41,4-12.31,20a3.28,3.28,0,0,0,.47,4l6.1,6.09h0l-6.43,6.42a3,3,0,0,0,0,4.24l3.1,3.1a85,85,0,0,0-15.91,19L196.4,459.64a20.36,20.36,0,0,0,27.25,28.44l23.9-13.3a85,85,0,0,0,23.16-18.95l3.18,3.18a3,3,0,0,0,4.24,0h0l6.42-6.42.19.19,2.64,2.65a3.29,3.29,0,0,0,1.86.92,2.26,2.26,0,0,0,.52,0,3.28,3.28,0,0,0,1.53-.42L312.66,444l4.53,10.69a21.34,21.34,0,0,1,1.14,13.15l-14.87,64a7.31,7.31,0,0,0,12.29,6.82l46.55-46.55a80,80,0,0,0,23.4-59.44l-1-28.8,13.51-7.53a248.19,248.19,0,0,0,88.61-83.53c.76-1.2,1.52-2.4,2.26-3.61A254.48,254.48,0,0,0,504,281.16c3-6.72,6-13.55,8.43-20.57C512.51,260.29,512.65,259.81,512.76,259.53Z"/><path class="cls-3" d="M331.56,328l1.94,54.82a80,80,0,0,1-23.39,59.44l-46.55,46.55A7.31,7.31,0,0,1,251.27,482l14.87-64A21.3,21.3,0,0,0,265,404.77l-13.4-31.64Z"/><path class="cls-4" d="M234.51,377.9a88,88,0,0,0-30.62-30.36,85.3,85.3,0,0,0-43.22,35.33l-16.46,26.77a20.36,20.36,0,0,0,2.95,25.05h0a20.35,20.35,0,0,0,24.3,3.39l23.89-13.3A85.2,85.2,0,0,0,234.51,377.9Z"/><path class="cls-3" d="M253,249.45l-54.82-1.94a80,80,0,0,0-59.44,23.39L92.23,317.45a7.31,7.31,0,0,0,6.82,12.29l64-14.87A21.31,21.31,0,0,1,176.24,316l31.64,13.4Z"/><path class="cls-3" d="M475.12,111l-.09-2.48a4.37,4.37,0,0,0-4.16-4.13,267.46,267.46,0,0,0-99.78,16.48,259.51,259.51,0,0,1,89.48,88.69A268.46,268.46,0,0,0,475.12,111Z"/><path class="cls-5" d="M460.4,209.48a256.9,256.9,0,0,0-89.46-88.69A249.11,249.11,0,0,0,244.66,224L173.34,340a3.28,3.28,0,0,0,.47,4l61.39,61.39a3.29,3.29,0,0,0,3.91.54L346,346.46A249,249,0,0,0,460.4,209.48Z"/><path class="cls-6" d="M381.27,127.3,229.91,400.14l5.29,5.29a3.29,3.29,0,0,0,3.91.54L346,346.46a249,249,0,0,0,114.4-137A256.42,256.42,0,0,0,381.27,127.3Z"/><circle class="cls-7" cx="353.93" cy="227.08" r="46.77"/><circle class="cls-8" cx="353.93" cy="227.08" r="38.82"/><path class="cls-9" d="M353.93,188.27a38.82,38.82,0,0,0-18.68,72.85l37.07-68.22A38.58,38.58,0,0,0,353.93,188.27Z"/><path class="cls-10" d="M179.9,350.14l52.49,52.48h0L226,409a3,3,0,0,1-4.24,0L173.48,360.8a3,3,0,0,1,0-4.24l6.42-6.42Z"/></g></svg>