<svg xmlns="http://www.w3.org/2000/svg" xmlns:xlink="http://www.w3.org/1999/xlink" viewBox="0 0 600 600"><defs><style>.cls-1{fill:none;}.cls-2{fill:url(#Degradado_sin_nombre_507);}.cls-3{fill:#49a5e6;}.cls-4{fill:url(#Degradado_sin_nombre_107);}.cls-5{fill:#004481;}.cls-6{fill:#043263;}.cls-7{fill:#2dcccd;}</style><linearGradient id="Degradado_sin_nombre_507" x1="202.5" y1="-2062.05" x2="390.56" y2="-2415.75" gradientTransform="matrix(1, 0, 0, -1, 0, -1890)" gradientUnits="userSpaceOnUse"><stop offset="0" stop-color="#192647" stop-opacity="0.5"/><stop offset="1" stop-color="#192647" stop-opacity="0"/></linearGradient><linearGradient id="Degradado_sin_nombre_107" x1="426.42" y1="-2210.36" x2="302.91" y2="-2210.36" gradientTransform="matrix(1, 0, 0, -1, 0, -1890)" gradientUnits="userSpaceOnUse"><stop offset="0" stop-color="#043263" stop-opacity="0.3"/><stop offset="1" stop-color="#043263" stop-opacity="0.1"/></linearGradient></defs><title>11</title><g id="Cuadrados_Blancos" data-name="Cuadrados Blancos"><rect class="cls-1" width="600" height="600"/></g><g id="Capa_70" data-name="Capa 70"><path class="cls-2" d="M547.49,424.15a10,10,0,0,0-13.75-1.06c-21.56,17.33-49.21,31.24-80.63,41.05a360,360,0,0,1-12.63-52.31h9.59a3,3,0,0,0,3-3v-17h10.47a3.15,3.15,0,0,0,.61-.06,2.81,2.81,0,0,0,.56-.18,3,3,0,0,0,1-.64,3.16,3.16,0,0,0,.37-.45,3,3,0,0,0,.51-1.67V373.88a22.86,22.86,0,0,0-4-12.88c-.2-.31-.42-.61-.64-.91a22.89,22.89,0,0,0-6.5-5.9,22.27,22.27,0,0,0-3-1.53l-1-.41c-.71-.26-1.43-.48-2.16-.67a23.37,23.37,0,0,0-4.56-.69H434.56q-.3-9-.31-18.06,0-5,.11-9.9h29.55a5.08,5.08,0,0,1,2,9.76,3.07,3.07,0,0,0-2,2.81c0,11.12,14.44,15.8,20.71,6.62a25.06,25.06,0,0,0-20.71-39.19H310.65A800.64,800.64,0,0,0,295,204.72a40.12,40.12,0,0,0-48.11-30.08,39.53,39.53,0,0,0-7.11,2.36l-.79.35c-2.4-5.95-4.94-11.64-7.62-17a3,3,0,0,0-4-1.33l0,0-12.43,6.43a3,3,0,0,0-1.32,4c20.24,40.7,31.81,100,31.81,163.35,0,48.05-6.52,93.34-18.85,131.13-31.18-9.8-58.6-23.65-80-40.86a10,10,0,1,0-12.87,15.31l.35.28c48.53,38.93,124.58,61.93,206.14,61.93s157.61-23,206.14-61.93a10,10,0,0,0,1.62-14.05ZM340.12,480.61a391.44,391.44,0,0,1-94.34-11.24,383.53,383.53,0,0,0,13.55-57.54H420.24a384.31,384.31,0,0,0,13.59,57.69A391.86,391.86,0,0,1,340.12,480.61Z"/><path class="cls-3" d="M217,299.88H403.42a23,23,0,0,1,23,23h0v15a3,3,0,0,1-3,3H217v-41Z"/><path class="cls-4" d="M403.42,299.88H324.68l-21.77,40.95H423.42a3,3,0,0,0,3-3V322.88a23,23,0,0,0-23-23Z"/><path class="cls-3" d="M254.89,153.72A40.1,40.1,0,0,0,199.66,126l-4.47,2c14.21,43.11,24.47,105.54,27.89,172.72.73,14.45,1.13,28.77,1.21,42.82l51-2.59q-.15-20.85-1.23-42.27C271.4,246.75,264.75,196.87,254.89,153.72Z"/><path class="cls-5" d="M258.67,342.82l-9.92-1.29a448.66,448.66,0,0,0,3.48-70.09l10-.26A459.89,459.89,0,0,1,258.67,342.82Z"/><rect class="cls-5" x="295.12" y="270.92" width="10" height="69.9"/><path class="cls-5" d="M350.09,341.59l-9.93,1.2a460.83,460.83,0,0,1-3-71.63c3.34.12,6.67.23,10,.36A449.42,449.42,0,0,0,350.09,341.59Z"/><path class="cls-6" d="M410,360.83H205.45a3,3,0,0,1-3-3v-14a3,3,0,0,1,3-3H413v17A3,3,0,0,1,410,360.83Z"/><path class="cls-5" d="M374.07,281.82c0,50.81,7,98.86,20.36,139l19-6.31c-12.65-38.09-19.34-84-19.34-132.65q0-11.75.53-23.28h-20Q374.08,270.09,374.07,281.82Z"/><rect class="cls-6" x="212.05" y="251.92" width="211.68" height="20"/><path class="cls-6" d="M423.73,284.49h0a3.07,3.07,0,0,1,2-2.81,5.08,5.08,0,0,0-2-9.76v-20a25.06,25.06,0,0,1,20.71,39.19C438.17,300.29,423.73,295.61,423.73,284.49Z"/><path class="cls-5" d="M204.89,420.78l-19-6.31c12.66-38.09,19.34-84,19.34-132.65,0-63.35-11.57-122.65-31.81-163.35a3,3,0,0,1,1.32-4L187.17,108a3,3,0,0,1,4,1.28l0,0c21.63,43.41,34,106,34,172.45C225.25,332.63,218.21,380.68,204.89,420.78Z"/><path class="cls-7" d="M300,449.61c-81.56,0-157.61-23-206.14-61.93a10,10,0,0,1-1.64-14.05l.41-.48h0a10,10,0,0,1,13.75-1.06c45,36.16,116.45,57.52,193.62,57.52s148.62-21.36,193.62-57.52a10,10,0,0,1,13.75,1.06h0a10,10,0,0,1-.75,14.12c-.15.14-.31.28-.48.41C457.61,426.61,381.56,449.61,300,449.61Z"/></g></svg>