<svg id="Contenido" xmlns="http://www.w3.org/2000/svg" xmlns:xlink="http://www.w3.org/1999/xlink" viewBox="0 0 600 600"><defs><style>.cls-1{fill:url(#Degradado_sin_nombre_16);}.cls-2{fill:#2dcccd;}.cls-3{fill:#1464a5;}.cls-4{fill:#49a5e6;}.cls-5{fill-rule:evenodd;opacity:0.5;fill:url(#Degradado_sin_nombre_22);}.cls-6{fill:#da3951;}.cls-7{fill:#fff;}</style><linearGradient id="Degradado_sin_nombre_16" x1="243.59" y1="151.2" x2="456.64" y2="551.88" gradientUnits="userSpaceOnUse"><stop offset="0" stop-color="#192647"/><stop offset="0" stop-color="#192647" stop-opacity="0.5"/><stop offset="1" stop-color="#192647" stop-opacity="0"/></linearGradient><linearGradient id="Degradado_sin_nombre_22" x1="215.47" y1="215.47" x2="369.76" y2="369.76" gradientUnits="userSpaceOnUse"><stop offset="0" stop-color="#fff" stop-opacity="0.5"/><stop offset="1" stop-color="#fff" stop-opacity="0.1"/></linearGradient></defs><title>dispositivo_rooteado</title><rect class="cls-1" x="234.76" y="147" width="230.71" height="409.08" rx="22.3" ry="22.3"/><path class="cls-2" d="M371.58,211.31H486a18.53,18.53,0,1,0,0-10H371.58a5,5,0,0,0,0,10Zm132.26-13.53a8.53,8.53,0,1,1-8.53,8.53A8.54,8.54,0,0,1,503.84,197.78Z"/><path class="cls-2" d="M478.91,351.84a5,5,0,0,0,0-10H347.71a5,5,0,0,0,0,10Z"/><path class="cls-2" d="M473,375.16a18.55,18.55,0,0,0-17.83,13.53H350.71a5,5,0,0,0,0,10H455.2A18.53,18.53,0,1,0,473,375.16Zm0,27.07a8.53,8.53,0,1,1,8.53-8.53A8.54,8.54,0,0,1,473,402.22Z"/><path class="cls-2" d="M535.22,298.25A18.47,18.47,0,0,0,521.85,304l-16.29-9H412a5,5,0,0,0,0,10h91l14.14,7.8a18.53,18.53,0,1,0,18.09-14.55Zm0,27.07a8.53,8.53,0,1,1,8.53-8.53A8.54,8.54,0,0,1,535.22,325.31Z"/><path class="cls-2" d="M374.54,248.16a5,5,0,1,0,0,10h82.62a5,5,0,0,0,0-10Z"/><path class="cls-2" d="M505.12,250.38a4.93,4.93,0,0,0-1.38-1.38,5.06,5.06,0,0,0-1.8-.75,5,5,0,0,0-2,0,5,5,0,0,0-1.8.75,4.93,4.93,0,0,0-.76.62,5,5,0,0,0-.62.76,5.08,5.08,0,0,0-.74,1.8,4.91,4.91,0,0,0,0,2,5,5,0,0,0,.28.94,5.08,5.08,0,0,0,.46.86,5,5,0,0,0,2.25,1.84,5.13,5.13,0,0,0,.94.29,4.91,4.91,0,0,0,1,.1,5,5,0,0,0,4.9-6,5.07,5.07,0,0,0-.75-1.8Z"/><path class="cls-2" d="M503.74,342.69a5.07,5.07,0,0,0-1.8-.74,5,5,0,0,0-2,0,5,5,0,0,0-2.56,1.37,5,5,0,0,0-.62.76,5.06,5.06,0,0,0-.74,1.8,4.91,4.91,0,0,0,0,2,5.07,5.07,0,0,0,.74,1.8,5,5,0,0,0,.62.76,4.94,4.94,0,0,0,.76.62,5.09,5.09,0,0,0,.86.46,5.17,5.17,0,0,0,.94.29,5,5,0,0,0,1,.1,5,5,0,0,0,3.54-1.46,4.93,4.93,0,0,0,.62-.76,5.06,5.06,0,0,0,.75-1.8,5,5,0,0,0-2.13-5.14Z"/><path class="cls-2" d="M484.07,250.38a5.08,5.08,0,0,0-.62-.76,5,5,0,0,0-.76-.62,5,5,0,0,0-1.8-.75,5,5,0,0,0-2,0,5.06,5.06,0,0,0-.94.29,5.12,5.12,0,0,0-.86.46,4.94,4.94,0,0,0-1.38,1.38,5,5,0,0,0-.46.86,5.09,5.09,0,0,0-.29.94,5,5,0,0,0-.1,1,5,5,0,0,0,9.16,2.78,4.94,4.94,0,0,0,.46-.86,5,5,0,0,0,.29-.94,4.91,4.91,0,0,0,0-2,5.05,5.05,0,0,0-.29-.94A5,5,0,0,0,484.07,250.38Z"/><path class="cls-2" d="M232.16,388.69H117.73a18.53,18.53,0,1,0,0,10H232.16a5,5,0,1,0,0-10ZM99.9,402.22a8.53,8.53,0,1,1,8.53-8.53A8.54,8.54,0,0,1,99.9,402.22Z"/><path class="cls-2" d="M256,248.16H124.83a5,5,0,1,0,0,10H256a5,5,0,0,0,0-10Z"/><path class="cls-2" d="M130.72,224.84a18.55,18.55,0,0,0,17.83-13.53H253a5,5,0,0,0,0-10H148.55a18.53,18.53,0,1,0-17.83,23.53Zm0-27.07a8.53,8.53,0,1,1-8.53,8.53A8.54,8.54,0,0,1,130.72,197.78Z"/><path class="cls-2" d="M81.89,296l16.29,9h93.56a5,5,0,0,0,0-10h-91l-14.14-7.8A18.6,18.6,0,1,0,81.89,296Zm-13.37-4.26a8.53,8.53,0,1,1,8.53-8.53A8.54,8.54,0,0,1,68.52,291.75Z"/><path class="cls-2" d="M141.58,346.84a5,5,0,0,0,5,5h82.62a5,5,0,1,0,0-10H146.58A5,5,0,0,0,141.58,346.84Z"/><path class="cls-2" d="M106.94,344.07a4.94,4.94,0,0,0-1.38-1.38,5.06,5.06,0,0,0-1.8-.74,5,5,0,0,0-2,0,5,5,0,0,0-.93.28,5.07,5.07,0,0,0-.86.46,5,5,0,0,0-2.13,5.14,5.14,5.14,0,0,0,.29.94,5.08,5.08,0,0,0,.46.86,5,5,0,0,0,7.69.76,4.93,4.93,0,0,0,.62-.76,5,5,0,0,0,.46-.86,5.12,5.12,0,0,0,.29-.94,5,5,0,0,0,0-2,5.14,5.14,0,0,0-.29-.94A5,5,0,0,0,106.94,344.07Z"/><path class="cls-2" d="M102.78,258.16a5,5,0,0,0,4.16-2.22,5,5,0,0,0,.46-.86,5.11,5.11,0,0,0,.29-.94,5,5,0,0,0,0-2,5.13,5.13,0,0,0-.29-.94,5,5,0,0,0-.46-.86,4.92,4.92,0,0,0-1.38-1.38,5,5,0,0,0-5.55,0,4.9,4.9,0,0,0-.76.62,5,5,0,0,0-.62.76,5.06,5.06,0,0,0-.46.86,5.13,5.13,0,0,0-.29.94,5,5,0,0,0-.1,1,5,5,0,0,0,5,5Z"/><path class="cls-2" d="M125.75,342.23a5,5,0,0,0-.94-.28,5,5,0,0,0-2,0,5,5,0,0,0-.94.28,5.12,5.12,0,0,0-.86.46,5,5,0,0,0-.76.62,4.94,4.94,0,0,0-.62.76,5.07,5.07,0,0,0-.74,1.8,4.94,4.94,0,0,0,0,2,5.08,5.08,0,0,0,.74,1.8,4.94,4.94,0,0,0,1.38,1.38,5.1,5.1,0,0,0,1.8.75,5,5,0,0,0,1,.1,5,5,0,0,0,3.54-1.46,5,5,0,0,0,.62-.76,5.06,5.06,0,0,0,.75-1.8,5,5,0,0,0-1.37-4.51,5,5,0,0,0-1.62-1.08Z"/><rect class="cls-3" x="185" y="97" width="230" height="406" rx="23" ry="23"/><rect class="cls-4" x="185" y="148" width="230" height="304"/><polygon class="cls-5" points="185 148 185 452 301.87 452 415 243.1 415 148 185 148"/><path class="cls-6" d="M235,348.05h130.4a7.18,7.18,0,0,0,6.23-10.74l-65.2-114.23a7.18,7.18,0,0,0-12.47,0L228.76,337.32A7.18,7.18,0,0,0,235,348.05Z"/><path class="cls-7" d="M300.19,311.32a5.66,5.66,0,0,1-5.66-5.66v-47.3a5.66,5.66,0,0,1,11.32,0v47.3A5.66,5.66,0,0,1,300.19,311.32Z"/><circle class="cls-7" cx="300.19" cy="326.75" r="6.6"/></svg>