<svg xmlns="http://www.w3.org/2000/svg" xmlns:xlink="http://www.w3.org/1999/xlink" viewBox="0 0 600 600"><defs><style>.cls-1{fill:none;}.cls-2{fill:url(#Degradado_sin_nombre_79);}.cls-3{fill:#2dcccd;}.cls-4{fill:#043263;}.cls-5{fill:#49a5e6;}.cls-6{opacity:0.5;isolation:isolate;fill:url(#Degradado_sin_nombre_16);}.cls-7{fill:#da3951;}.cls-8{fill:#fff;}</style><linearGradient id="Degradado_sin_nombre_79" x1="247.58" y1="5139.91" x2="460.72" y2="4739.04" gradientTransform="matrix(1, 0, 0, -1, 0, 5292)" gradientUnits="userSpaceOnUse"><stop offset="0" stop-color="#192647" stop-opacity="0.5"/><stop offset="1" stop-color="#192647" stop-opacity="0"/></linearGradient><linearGradient id="Degradado_sin_nombre_16" x1="215.96" y1="5076.24" x2="370.22" y2="4921.98" gradientTransform="matrix(1, 0, 0, -1, 0, 5292)" gradientUnits="userSpaceOnUse"><stop offset="0" stop-color="#fff" stop-opacity="0.5"/><stop offset="1" stop-color="#ecf7f8" stop-opacity="0.1"/></linearGradient></defs><title>6</title><g id="Cuadrados_Blancos" data-name="Cuadrados Blancos"><rect class="cls-1" width="600" height="600"/></g><g id="Capa_13" data-name="Capa 13"><path class="cls-2" d="M261.1,147.85H447.2a22.32,22.32,0,0,1,22.3,22.31V534.89a22.32,22.32,0,0,1-22.3,22.31H261.1a22.32,22.32,0,0,1-22.3-22.31V170.16A22.32,22.32,0,0,1,261.1,147.85Z"/><path class="cls-3" d="M369.77,211.31H484.19a18.52,18.52,0,1,0,0-10H369.77a5,5,0,0,0,0,10ZM502,197.78a8.53,8.53,0,1,1-8.53,8.53h0a8.54,8.54,0,0,1,8.53-8.53Z"/><path class="cls-3" d="M477.1,351.84a5,5,0,0,0,0-10H345.9a5,5,0,0,0,0,10Z"/><path class="cls-3" d="M471.19,375.16a18.55,18.55,0,0,0-17.83,13.53H348.9a5,5,0,0,0,0,10H453.39a18.53,18.53,0,1,0,17.8-23.53Zm0,27.07a8.53,8.53,0,1,1,8.53-8.53h0a8.54,8.54,0,0,1-8.53,8.52Z"/><path class="cls-3" d="M533.41,298.25A18.48,18.48,0,0,0,520,304l-16.29-9H410.19a5,5,0,0,0,0,10h91l14.14,7.8a18.55,18.55,0,1,0,18.09-14.55Zm0,27.07a8.53,8.53,0,1,1,8.53-8.53,8.53,8.53,0,0,1-8.53,8.53Z"/><path class="cls-3" d="M372.73,248.16a5,5,0,1,0,0,10h82.62a5,5,0,0,0,0-10Z"/><path class="cls-3" d="M503.31,250.38a4.78,4.78,0,0,0-1.38-1.38,5,5,0,0,0-1.8-.75,5.18,5.18,0,0,0-2,0,5,5,0,0,0-3.18,2.13,5.09,5.09,0,0,0-.74,3.8,5.08,5.08,0,0,0,.28.94,5.46,5.46,0,0,0,.46.86,5.06,5.06,0,0,0,2.25,1.84,5.36,5.36,0,0,0,.94.29,4.85,4.85,0,0,0,1,.1,5,5,0,0,0,5-5,4.78,4.78,0,0,0-.1-1,5,5,0,0,0-.75-1.8Z"/><path class="cls-3" d="M501.93,342.69a5.08,5.08,0,0,0-1.8-.74,5.18,5.18,0,0,0-2,0,5,5,0,0,0-3.18,2.13,5.09,5.09,0,0,0,0,5.6,4.86,4.86,0,0,0,1.38,1.38,5.46,5.46,0,0,0,.86.46,5.36,5.36,0,0,0,.94.29,4.85,4.85,0,0,0,1,.1,5,5,0,0,0,2.78-9.16Z"/><path class="cls-3" d="M482.26,250.38a5,5,0,0,0-.62-.76,4.57,4.57,0,0,0-.76-.62,4.85,4.85,0,0,0-1.8-.75,5.18,5.18,0,0,0-2,0,5.36,5.36,0,0,0-.94.29,5.46,5.46,0,0,0-.86.46,5,5,0,0,0-1.38,1.38,5.46,5.46,0,0,0-.46.86,6,6,0,0,0-.29.94,5.56,5.56,0,0,0-.1,1,5,5,0,0,0,9.16,2.78,4.74,4.74,0,0,0,.46-.86,4.45,4.45,0,0,0,.29-.94,4.81,4.81,0,0,0,0-2,4.45,4.45,0,0,0-.29-.94A4.66,4.66,0,0,0,482.26,250.38Z"/><path class="cls-3" d="M230.35,388.69H115.92a18.53,18.53,0,1,0,0,10H230.35a5,5,0,0,0,0-10ZM98.09,402.22a8.53,8.53,0,1,1,8.53-8.53h0A8.54,8.54,0,0,1,98.09,402.22Z"/><path class="cls-3" d="M254.19,248.16H123a5,5,0,1,0,0,10H254.19a5,5,0,0,0,0-10Z"/><path class="cls-3" d="M128.91,224.84a18.54,18.54,0,0,0,17.83-13.53H251.19a5,5,0,0,0,0-10H146.74a18.53,18.53,0,1,0-17.83,23.53Zm0-27.07a8.53,8.53,0,1,1-8.53,8.53h0a8.55,8.55,0,0,1,8.53-8.52Z"/><path class="cls-3" d="M80.08,296l16.29,9h93.56a5,5,0,0,0,0-10h-91l-14.14-7.8a18.6,18.6,0,1,0-4.71,8.8Zm-13.37-4.26a8.53,8.53,0,1,1,8.53-8.53h0a8.54,8.54,0,0,1-8.53,8.54Z"/><path class="cls-3" d="M139.77,346.84a5,5,0,0,0,5,5h82.62a5,5,0,1,0,0-10H144.77A5,5,0,0,0,139.77,346.84Z"/><path class="cls-3" d="M105.13,344.07a4.78,4.78,0,0,0-1.38-1.38A5.08,5.08,0,0,0,102,342a5.18,5.18,0,0,0-2,0,5,5,0,0,0-.93.28,5.46,5.46,0,0,0-.86.46A5,5,0,0,0,96,347.83a6,6,0,0,0,.29.94,5.46,5.46,0,0,0,.46.86,5,5,0,0,0,6.94,1.38,4.94,4.94,0,0,0,.75-.62,5,5,0,0,0,.62-.76,4.74,4.74,0,0,0,.46-.86,4.45,4.45,0,0,0,.29-.94,4.81,4.81,0,0,0,0-2,4.45,4.45,0,0,0-.29-.94A4.23,4.23,0,0,0,105.13,344.07Z"/><path class="cls-3" d="M101,258.16a5,5,0,0,0,4.16-2.22,4.74,4.74,0,0,0,.46-.86,4.45,4.45,0,0,0,.29-.94,4.81,4.81,0,0,0,0-2,4.45,4.45,0,0,0-.29-.94,5,5,0,0,0-1.84-2.24,5,5,0,0,0-6.93,1.38,5.46,5.46,0,0,0-.46.86,6,6,0,0,0-.29.94,5.56,5.56,0,0,0-.1,1,5,5,0,0,0,5,5Z"/><path class="cls-3" d="M123.94,342.23A5.08,5.08,0,0,0,123,342a5.18,5.18,0,0,0-2,0,5.32,5.32,0,0,0-.94.28,5.46,5.46,0,0,0-.86.46,4.86,4.86,0,0,0-1.38,1.38,5.09,5.09,0,0,0,0,5.6,5,5,0,0,0,1.38,1.38,5.18,5.18,0,0,0,1.8.75,4.85,4.85,0,0,0,1,.1,5,5,0,0,0,1.92-9.61Z"/><path class="cls-4" d="M207.5,96.85H392.4A22.13,22.13,0,0,1,414.5,119v362a22.12,22.12,0,0,1-22.1,22.1H207.5a22.12,22.12,0,0,1-22.1-22.1v-362a22.13,22.13,0,0,1,22.06-22.2Z"/><rect class="cls-5" x="185.4" y="147.85" width="229.2" height="304.3"/><polygon class="cls-6" points="185.7 148.05 185.7 451.95 302.5 452.15 414.5 245.15 414.5 147.85 185.7 148.05"/><path class="cls-7" d="M233.19,348.05h130.4a7.17,7.17,0,0,0,6.23-10.74l-65.2-114.23a7.19,7.19,0,0,0-12.47,0L227,337.32a7.18,7.18,0,0,0,6.24,10.73Z"/><path class="cls-8" d="M298.38,311.32a5.66,5.66,0,0,1-5.66-5.66h0v-47.3a5.66,5.66,0,0,1,11.32,0v47.3a5.65,5.65,0,0,1-5.66,5.66Z"/><circle class="cls-8" cx="298.38" cy="326.75" r="6.6"/></g></svg>