<svg xmlns="http://www.w3.org/2000/svg" xmlns:xlink="http://www.w3.org/1999/xlink" viewBox="0 0 600 600"><defs><style>.cls-1{fill:none;}.cls-2{fill:url(#Degradado_sin_nombre_115);}.cls-3{fill:#043263;}.cls-4{fill:url(#Degradado_sin_nombre_117);}.cls-5{fill:#2dcccd;}</style><linearGradient id="Degradado_sin_nombre_115" x1="267.21" y1="-5848.97" x2="413.65" y2="-6124.39" gradientTransform="matrix(1, 0, 0, -1, 0, -5644)" gradientUnits="userSpaceOnUse"><stop offset="0" stop-color="#192647" stop-opacity="0.5"/><stop offset="1" stop-color="#192647" stop-opacity="0"/></linearGradient><linearGradient id="Degradado_sin_nombre_117" x1="459.71" y1="-5960.74" x2="231.15" y2="-5960.74" gradientTransform="matrix(1, 0, 0, -1, 0, -5644)" gradientUnits="userSpaceOnUse"><stop offset="0" stop-color="#072146"/><stop offset="1" stop-color="#072146" stop-opacity="0"/></linearGradient></defs><title>16</title><g id="Cuadrados_Blancos" data-name="Cuadrados Blancos"><rect class="cls-1" width="600" height="600"/></g><g id="Capa_8" data-name="Capa 8"><path class="cls-2" d="M200.91,308.19a10.88,10.88,0,0,1-8.5,8.21l-1.14.21a10.74,10.74,0,0,0-8.49,8.14,66.1,66.1,0,0,0-2,17.66v.52a66,66,0,0,0,2,17.65,10.74,10.74,0,0,0,8.49,8.14l1.14.21a10.88,10.88,0,0,1,8.5,8.21A143.1,143.1,0,0,0,217.39,417a10.87,10.87,0,0,1-.2,11.81l-.65.94a10.73,10.73,0,0,0-.25,11.75,65.81,65.81,0,0,0,11.05,13.93l.36.37a65.59,65.59,0,0,0,13.93,11,10.69,10.69,0,0,0,11.75-.25l1-.65a10.87,10.87,0,0,1,11.81-.2c1.8,1.09,3.68,2.06,5.53,3.07l-.05.09c1,.57,2.11,1.15,3.7,1.94l.64.31c1.5.73,3.4,1.63,6,2.86,1,.44,1.93.83,2.9,1.25l.6.25a134.7,134.7,0,0,0,20.42,6.7h0a10.85,10.85,0,0,1,8.22,8.5l.12.67.09.48a10.71,10.71,0,0,0,8.12,8.47h.09c1.37.32,2.64.6,3.89.85l1,.18.95.17h.26l1.71.25.55.06c.5.06,1,.12,1.53.16h.18c2.13.18,4.53.28,7.53.29h.52a79,79,0,0,0,9.1-.46l.69-.07c.55-.07,1.08-.16,1.61-.24h.35l.95-.17,1-.18c1.25-.25,2.52-.53,3.89-.85h.09a10.73,10.73,0,0,0,8.12-8.47l.1-.59.11-.56a10.85,10.85,0,0,1,8.22-8.5c3.36-.83,6.67-1.79,9.93-2.85l.57-.16c3.16-1,6.26-2.22,9.32-3.46.27-.12.56-.2.84-.32a142.83,142.83,0,0,0,19.16-9.7,10.87,10.87,0,0,1,11.81.2l.95.66a10.72,10.72,0,0,0,11.74.25L441,465.7c1-.65,2-1.3,2.94-2l.33-.22c.36-.26.71-.53,1.07-.81l.52-.38c.87-.67,1.77-1.42,2.7-2.24.48-.41,1-.86,1.48-1.33,1-.89,2-1.85,3.12-3l.37-.37c2-2,3.51-3.65,4.83-5.19.46-.54.89-1.07,1.3-1.59l.42-.52c.14-.17.26-.35.39-.52l.8-1.07.13-.2c.71-1,1.38-2,2.06-3.07l.4-.63.72-1.14h0a10.7,10.7,0,0,0-.25-11.73v-.05l-.62-.9a10.85,10.85,0,0,1-.21-11.81c1.23-2,2.34-4.15,3.47-6.25a144.2,144.2,0,0,0,7.87-17.31c.72-1.92,1.49-3.81,2.14-5.77.21-.64.36-1.31.56-2,.88-2.82,1.74-5.65,2.45-8.54a10.88,10.88,0,0,1,8.5-8.21l1.15-.22a10.71,10.71,0,0,0,8.47-8.11h0c.33-1.39.61-2.66.86-3.92v-.05c.22-1.1.4-2.19.56-3.33a3.6,3.6,0,0,1,.08-.56c.23-1.85.39-3.87.47-6.28,0-1.09.06-2.23.06-3.51v-.52c0-1.32,0-2.5-.07-3.61-.08-2.36-.23-4.36-.46-6.19l-.09-.61c-.16-1.12-.34-2.19-.55-3.28h0c-.25-1.27-.53-2.54-.86-3.93h0a10.71,10.71,0,0,0-8.47-8.11h0l-1.14-.21a10.88,10.88,0,0,1-8.5-8.21c-.83-3.37-1.79-6.67-2.85-9.94-.06-.18-.1-.38-.16-.56-.63-1.91-1.39-3.75-2.09-5.62a142.39,142.39,0,0,0-10.78-22.61c-.21-.36-.39-.74-.61-1.09a10.87,10.87,0,0,1,.21-11.82l.62-.91h0a10.7,10.7,0,0,0,.25-11.73c-.69-1.11-1.33-2.13-2-3.11-.24-.38-.5-.75-.75-1.11-.56-.81-1.13-1.61-1.76-2.42l-.42-.52c-.41-.52-.84-1-1.3-1.59-.75-.87-1.57-1.79-2.5-2.78-.72-.76-1.47-1.55-2.33-2.41l-.37-.37c-1-1-1.93-1.88-2.81-2.7s-2-1.79-2.85-2.53l-.42-.34-1.22-1-.52-.38c-.36-.27-.71-.55-1.07-.8l-.33-.23c-.95-.67-1.91-1.32-2.94-2l-.63-.4-1.13-.71h0a10.72,10.72,0,0,0-11.73.25h0l-.83.57a11.73,11.73,0,0,1-1.7.85,11.53,11.53,0,0,1-1.12.54,9,9,0,0,1-1.26.24,10.06,10.06,0,0,1-1.88.29h0a11.31,11.31,0,0,1-5.92-1.64l-.22-.12c-2.88-1.73-3.34-2-5.27-3v.08A143.18,143.18,0,0,0,375,203.16a10.85,10.85,0,0,1-8.22-8.5l-.21-1.13a10.73,10.73,0,0,0-8.13-8.49,66.1,66.1,0,0,0-17.66-2h-.52a66.1,66.1,0,0,0-17.66,2,10.72,10.72,0,0,0-8.13,8.49l-.21,1.13a10.85,10.85,0,0,1-8.22,8.5,142.76,142.76,0,0,0-39.82,16.49,10.87,10.87,0,0,1-11.81-.2l-1-.65a10.71,10.71,0,0,0-11.75-.25,65.84,65.84,0,0,0-13.93,11l-.36.37a65.81,65.81,0,0,0-11.05,13.93,10.73,10.73,0,0,0,.25,11.75l.65.94a10.89,10.89,0,0,1,.2,11.82A142.92,142.92,0,0,0,200.91,308.19Z"/><path class="cls-3" d="M449.13,273.91,448,273.7a10.88,10.88,0,0,1-8.5-8.21A142.57,142.57,0,0,0,423,225.7a10.89,10.89,0,0,1,.2-11.81l.65-.94a10.71,10.71,0,0,0,.26-11.75,65.5,65.5,0,0,0-11.05-13.93l-.37-.37a65.27,65.27,0,0,0-13.93-11,10.69,10.69,0,0,0-11.75.25l-.94.65a10.89,10.89,0,0,1-11.81.2,142.63,142.63,0,0,0-39.82-16.49,10.85,10.85,0,0,1-8.22-8.5l-.21-1.13a10.73,10.73,0,0,0-8.14-8.49,65.58,65.58,0,0,0-17.65-2h-.52a65.74,65.74,0,0,0-17.66,2,10.76,10.76,0,0,0-8.12,8.41l-.2,1.13a10.87,10.87,0,0,1-8.22,8.5,142.88,142.88,0,0,0-39.82,16.49,10.89,10.89,0,0,1-11.81-.2l-1-.65a10.69,10.69,0,0,0-11.75-.25,66.09,66.09,0,0,0-13.93,11l-.37.37a66.23,66.23,0,0,0-11,13.93,10.75,10.75,0,0,0,.25,11.75l.65.94a10.85,10.85,0,0,1,.2,11.89,143,143,0,0,0-16.48,39.83,10.85,10.85,0,0,1-8.52,8.17l-1.14.21a10.75,10.75,0,0,0-8.49,8.14,66.39,66.39,0,0,0-2,17.65v.52a66.51,66.51,0,0,0,2,17.66,10.77,10.77,0,0,0,8.49,8.14l1.14.21a10.83,10.83,0,0,1,8.5,8.21,142.78,142.78,0,0,0,16.5,39.82,10.87,10.87,0,0,1-.2,11.82l-.65.94a10.75,10.75,0,0,0-.25,11.75,66.74,66.74,0,0,0,11,13.93l.37.37a66.74,66.74,0,0,0,13.93,11,10.73,10.73,0,0,0,11.75-.25l.94-.65a10.87,10.87,0,0,1,11.82-.2,142.88,142.88,0,0,0,39.82,16.49,10.85,10.85,0,0,1,8.22,8.5l.2,1.13a10.78,10.78,0,0,0,8.15,8.49,66.05,66.05,0,0,0,17.66,2h.52a66.36,66.36,0,0,0,17.64-2,10.78,10.78,0,0,0,8.15-8.49l.21-1.13a10.82,10.82,0,0,1,8.2-8.5A143.48,143.48,0,0,0,374.25,423a10.85,10.85,0,0,1,11.81.2l.94.65a10.73,10.73,0,0,0,11.75.25,66.74,66.74,0,0,0,13.93-11l.37-.37a66,66,0,0,0,11-13.93,10.71,10.71,0,0,0-.26-11.75l-.65-.94a10.91,10.91,0,0,1-.2-11.82,142.88,142.88,0,0,0,16.49-39.82,10.85,10.85,0,0,1,8.5-8.21l1.13-.21a10.74,10.74,0,0,0,8.49-8.14,65.7,65.7,0,0,0,2-17.66v-.52a65.58,65.58,0,0,0-2-17.65A10.7,10.7,0,0,0,449.13,273.91Z"/><path class="cls-4" d="M449.15,273.92,448,273.7a10.88,10.88,0,0,1-8.48-8.2A142.51,142.51,0,0,0,423,225.7a10.87,10.87,0,0,1,.2-11.8l.66-1a10.68,10.68,0,0,0,.25-11.73,65.31,65.31,0,0,0-11.05-13.94l-.37-.37a65.39,65.39,0,0,0-13.94-11,10.68,10.68,0,0,0-11.73.25l-.84.58a10.75,10.75,0,0,1-11.62.47l-.51-.31c-2.89-1.73-3.35-2-5.28-3L231.15,426.16c2,1.16,4.38,2.32,10.37,5.11a131.56,131.56,0,0,0,24,8.23,10.8,10.8,0,0,1,8.2,8.48l.22,1.16a10.76,10.76,0,0,0,8.12,8.48,67,67,0,0,0,17.67,2h.52a67,67,0,0,0,17.67-2,10.75,10.75,0,0,0,8.12-8.48l.21-1.16a10.83,10.83,0,0,1,8.2-8.48A143.48,143.48,0,0,0,374.29,423a10.85,10.85,0,0,1,11.81.2l1,.66a10.74,10.74,0,0,0,11.73.25,65.94,65.94,0,0,0,13.94-11.05l.37-.37a65.81,65.81,0,0,0,11.05-13.94,10.68,10.68,0,0,0-.25-11.73l-.66-1a10.87,10.87,0,0,1-.2-11.8,143,143,0,0,0,16.49-39.84,10.85,10.85,0,0,1,8.48-8.2l1.17-.22a10.72,10.72,0,0,0,8.47-8.11,65.89,65.89,0,0,0,2-17.68v-.48a65.72,65.72,0,0,0-2-17.67A10.7,10.7,0,0,0,449.15,273.92Z"/><circle class="cls-5" cx="299.97" cy="299.96" r="55.54"/></g></svg>