<svg id="Contenido" xmlns="http://www.w3.org/2000/svg" xmlns:xlink="http://www.w3.org/1999/xlink" viewBox="0 0 600 600"><defs><style>.cls-1{fill:url(#Degradado_sin_nombre_10);}.cls-2{fill:#1464a5;}.cls-3{fill:url(#Degradado_sin_nombre_23);}.cls-4{fill:#2dcccd;}</style><linearGradient id="Degradado_sin_nombre_10" x1="272.19" y1="193.9" x2="418.69" y2="469.43" gradientUnits="userSpaceOnUse"><stop offset="0" stop-color="#192647"/><stop offset="0" stop-color="#192647" stop-opacity="0.5"/><stop offset="1" stop-color="#192647" stop-opacity="0"/></linearGradient><linearGradient id="Degradado_sin_nombre_23" x1="463.73" y1="307.01" x2="235.22" y2="307.01" gradientUnits="userSpaceOnUse"><stop offset="0" stop-color="#043263" stop-opacity="0.3"/><stop offset="1" stop-color="#043263" stop-opacity="0.1"/></linearGradient></defs><title>self_driven</title><path class="cls-1" d="M205.91,297.19a10.87,10.87,0,0,1-8.5,8.21l-1.14.21a10.75,10.75,0,0,0-8.49,8.14,66.08,66.08,0,0,0-2,17.66v.52a66,66,0,0,0,2,17.65,10.75,10.75,0,0,0,8.49,8.14l1.14.21a10.87,10.87,0,0,1,8.5,8.21A142.94,142.94,0,0,0,222.39,406a10.87,10.87,0,0,1-.2,11.81l-.65.94a10.73,10.73,0,0,0-.25,11.75,65.76,65.76,0,0,0,11.05,13.93l.36.37a65.67,65.67,0,0,0,13.93,11,10.71,10.71,0,0,0,11.75-.25l.95-.65a10.87,10.87,0,0,1,11.81-.2c1.8,1.09,3.68,2.06,5.53,3.07l-.05.09c1,.57,2.11,1.15,3.7,1.94l.64.31c1.5.73,3.4,1.63,6,2.86.95.44,1.93.83,2.9,1.25l.6.25a134.4,134.4,0,0,0,20.42,6.7l0,0a10.86,10.86,0,0,1,8.22,8.5l.12.67.09.48a10.72,10.72,0,0,0,8.12,8.47h0l.09,0c1.37.32,2.64.6,3.89.85l1,.18.95.17.26,0,1.71.25.55.06c.5.06,1,.12,1.53.16l.18,0c2.13.18,4.53.28,7.53.29h.52a80.1,80.1,0,0,0,9.1-.46l.69-.07c.55-.07,1.08-.16,1.61-.24l.35,0,.95-.17,1-.18c1.25-.25,2.52-.53,3.89-.85l.09,0h0a10.73,10.73,0,0,0,8.12-8.47l.1-.59.11-.56a10.84,10.84,0,0,1,8.22-8.5c3.36-.83,6.67-1.79,9.93-2.85l.57-.16c3.16-1,6.26-2.22,9.32-3.46.27-.12.56-.2.84-.32a142.79,142.79,0,0,0,19.16-9.7,10.87,10.87,0,0,1,11.81.2l.95.66a10.72,10.72,0,0,0,11.74.25L446,454.7c1-.65,2-1.3,2.94-2l.33-.22c.36-.26.71-.53,1.07-.81l.52-.38c.87-.67,1.77-1.42,2.7-2.24.48-.41,1-.86,1.48-1.33,1-.89,2-1.85,3.12-3l.37-.37c2-2,3.51-3.65,4.83-5.19.46-.54.89-1.07,1.3-1.59l.42-.52c.14-.17.26-.35.39-.52l.8-1.07.13-.2c.71-1,1.38-2,2.06-3.07l.4-.63.72-1.14h0a10.7,10.7,0,0,0-.25-11.73l0-.05-.62-.9a10.85,10.85,0,0,1-.21-11.81c1.23-2,2.34-4.15,3.47-6.25a144.63,144.63,0,0,0,7.87-17.31c.72-1.92,1.49-3.81,2.14-5.77.21-.64.36-1.31.56-2,.88-2.82,1.74-5.65,2.45-8.54a10.86,10.86,0,0,1,8.5-8.21l1.15-.22a10.71,10.71,0,0,0,8.47-8.11v0h0c.33-1.39.61-2.66.86-3.92v-.05c.22-1.1.4-2.19.56-3.33,0-.19.05-.37.08-.56.23-1.85.39-3.87.47-6.28,0-1.09.06-2.23.06-3.51v-.52c0-1.32,0-2.5-.07-3.61-.08-2.36-.23-4.36-.46-6.19l-.09-.61c-.16-1.12-.34-2.19-.55-3.28v0c-.25-1.27-.53-2.54-.86-3.93h0v0a10.71,10.71,0,0,0-8.47-8.11h0l-1.14-.21a10.86,10.86,0,0,1-8.5-8.21c-.83-3.37-1.79-6.67-2.85-9.94-.06-.18-.1-.38-.16-.56-.63-1.91-1.39-3.75-2.09-5.62a142.59,142.59,0,0,0-10.78-22.61c-.21-.36-.39-.74-.61-1.09a10.87,10.87,0,0,1,.21-11.82l.62-.91,0,0a10.7,10.7,0,0,0,.25-11.73c-.69-1.11-1.33-2.13-2-3.11-.24-.38-.5-.75-.75-1.11-.56-.81-1.13-1.61-1.76-2.42l-.42-.52c-.41-.52-.84-1.05-1.3-1.59-.75-.87-1.57-1.79-2.5-2.78-.72-.76-1.47-1.55-2.33-2.41l-.37-.37c-1-1-1.93-1.88-2.81-2.7s-2-1.79-2.85-2.53l-.42-.34c-.41-.33-.82-.67-1.22-1l-.52-.38c-.36-.27-.71-.55-1.07-.8l-.33-.23c-.95-.67-1.91-1.32-2.94-2l-.63-.4-1.13-.71h0a10.72,10.72,0,0,0-11.73.25h0l-.83.57a11.73,11.73,0,0,1-1.7.85,9.6,9.6,0,0,1-1.12.54,10.77,10.77,0,0,1-1.26.24,9.94,9.94,0,0,1-1.88.29h0a11.26,11.26,0,0,1-5.92-1.64l-.22-.12c-2.88-1.73-3.34-2-5.27-3l0,.08a143.1,143.1,0,0,0-34.29-13.42,10.84,10.84,0,0,1-8.22-8.5l-.21-1.13a10.74,10.74,0,0,0-8.13-8.49,66.14,66.14,0,0,0-17.66-2h-.52a66,66,0,0,0-17.66,2,10.71,10.71,0,0,0-8.13,8.49l-.21,1.13a10.86,10.86,0,0,1-8.22,8.5,142.9,142.9,0,0,0-39.82,16.49,10.87,10.87,0,0,1-11.81-.2l-.95-.65a10.71,10.71,0,0,0-11.75-.25,66,66,0,0,0-13.93,11l-.36.37a65.76,65.76,0,0,0-11.05,13.93,10.73,10.73,0,0,0,.25,11.75l.65.94a10.89,10.89,0,0,1,.2,11.82A142.76,142.76,0,0,0,205.91,297.19Z"/><path class="cls-2" d="M453.2,264.21l-1.13-.21a10.85,10.85,0,0,1-8.5-8.21A143,143,0,0,0,427.08,216a10.87,10.87,0,0,1,.2-11.81l.65-.94a10.73,10.73,0,0,0,.26-11.75,66.08,66.08,0,0,0-11.05-13.93l-.37-.37a65.67,65.67,0,0,0-13.93-11,10.71,10.71,0,0,0-11.75.25l-.94.65a10.87,10.87,0,0,1-11.81.2,143,143,0,0,0-39.82-16.49,10.84,10.84,0,0,1-8.22-8.5l-.21-1.13a10.74,10.74,0,0,0-8.14-8.49,66,66,0,0,0-17.65-2h-.52a66,66,0,0,0-17.66,2A10.74,10.74,0,0,0,278,141.1l-.2,1.13a10.87,10.87,0,0,1-8.22,8.5,142.78,142.78,0,0,0-39.82,16.49,10.87,10.87,0,0,1-11.81-.2l-1-.65a10.71,10.71,0,0,0-11.75-.25,65.67,65.67,0,0,0-13.93,11l-.37.37a66,66,0,0,0-11,13.93,10.73,10.73,0,0,0,.25,11.75l.65.94A10.87,10.87,0,0,1,181,216a142.64,142.64,0,0,0-16.48,39.83A10.87,10.87,0,0,1,156,264l-1.14.21a10.74,10.74,0,0,0-8.49,8.14,66,66,0,0,0-2,17.65v.52a66.08,66.08,0,0,0,2,17.66,10.74,10.74,0,0,0,8.49,8.14l1.14.21a10.87,10.87,0,0,1,8.5,8.21A142.46,142.46,0,0,0,181,364.56a10.89,10.89,0,0,1-.2,11.82l-.65.94a10.73,10.73,0,0,0-.25,11.75,66,66,0,0,0,11,13.93l.37.37a66,66,0,0,0,13.93,11,10.71,10.71,0,0,0,11.75-.25l.94-.65a10.89,10.89,0,0,1,11.82-.2,142.78,142.78,0,0,0,39.82,16.49,10.87,10.87,0,0,1,8.22,8.5l.2,1.13a10.74,10.74,0,0,0,8.14,8.49,66,66,0,0,0,17.66,2h.52a66,66,0,0,0,17.65-2,10.74,10.74,0,0,0,8.14-8.49l.21-1.13a10.85,10.85,0,0,1,8.21-8.5,143,143,0,0,0,39.83-16.49,10.87,10.87,0,0,1,11.81.2l.94.65a10.71,10.71,0,0,0,11.75.25,66,66,0,0,0,13.93-11l.37-.37a66.08,66.08,0,0,0,11.05-13.93,10.73,10.73,0,0,0-.26-11.75l-.65-.94a10.89,10.89,0,0,1-.2-11.82,142.78,142.78,0,0,0,16.49-39.82,10.85,10.85,0,0,1,8.5-8.21l1.13-.21a10.74,10.74,0,0,0,8.49-8.14,66,66,0,0,0,2-17.66V290a66,66,0,0,0-2-17.65A10.74,10.74,0,0,0,453.2,264.21Z"/><path class="cls-3" d="M453.22,264.22l-1.17-.22a10.84,10.84,0,0,1-8.48-8.2A143,143,0,0,0,427.08,216a10.85,10.85,0,0,1,.2-11.8l.66-1a10.7,10.7,0,0,0,.25-11.73,66.11,66.11,0,0,0-11.05-13.94l-.37-.37a65.86,65.86,0,0,0-13.94-11,10.7,10.7,0,0,0-11.73.25l-.84.58a10.74,10.74,0,0,1-11.62.47l-.51-.31c-2.89-1.73-3.35-2-5.28-3L235.22,416.46c2,1.16,4.38,2.32,10.37,5.11a130.47,130.47,0,0,0,24,8.23,10.82,10.82,0,0,1,8.2,8.48l.22,1.16a10.72,10.72,0,0,0,8.12,8.48,66.52,66.52,0,0,0,17.67,2h.52a66.58,66.58,0,0,0,17.67-2,10.75,10.75,0,0,0,8.12-8.48l.21-1.16a10.82,10.82,0,0,1,8.2-8.48,143,143,0,0,0,39.84-16.49,10.87,10.87,0,0,1,11.81.2l1,.66a10.72,10.72,0,0,0,11.73.25,65.86,65.86,0,0,0,13.94-11.05l.37-.37a66.11,66.11,0,0,0,11.05-13.94,10.7,10.7,0,0,0-.25-11.73l-.66-1a10.85,10.85,0,0,1-.2-11.8,143,143,0,0,0,16.49-39.84,10.84,10.84,0,0,1,8.48-8.2l1.17-.22a10.72,10.72,0,0,0,8.47-8.11,66.19,66.19,0,0,0,2-17.68V290a66.16,66.16,0,0,0-2-17.67A10.72,10.72,0,0,0,453.22,264.22Z"/><circle class="cls-4" cx="304.04" cy="290.26" r="55.54"/></svg>