<svg id="Contenido" xmlns="http://www.w3.org/2000/svg" xmlns:xlink="http://www.w3.org/1999/xlink" viewBox="0 0 600 600"><defs><style>.cls-1{fill:none;}.cls-2{fill:url(#Degradado_sin_nombre_42);}.cls-3{fill:#1973b8;}.cls-4{fill:#49a5e6;}.cls-5{fill:url(#Degradado_sin_nombre_5);}.cls-6{fill:#d4edfc;}.cls-7{fill:#2dcccd;}.cls-8{fill:#1464a5;}.cls-9{fill:#07467f;}</style><linearGradient id="Degradado_sin_nombre_42" x1="218.28" y1="144.64" x2="452.69" y2="585.51" gradientUnits="userSpaceOnUse"><stop offset="0" stop-color="#192647" stop-opacity="0.5"/><stop offset="1" stop-color="#192647" stop-opacity="0"/></linearGradient><linearGradient id="Degradado_sin_nombre_5" x1="482" y1="382.94" x2="313.76" y2="382.94" gradientUnits="userSpaceOnUse"><stop offset="0.02" stop-color="#043263" stop-opacity="0.3"/><stop offset="1" stop-color="#043263" stop-opacity="0.1"/></linearGradient></defs><rect class="cls-1" width="600" height="600"/><path class="cls-2" d="M511,518.73c0-6.05-2.16-12.56-8.29-19h0c-7.14-7.48-12.7-16.37-18.82-24a2,2,0,0,0-2.85-.21l-1.34-1.6-2.34-2.83-1.54-1.89c-.81-1-1.6-2-2.38-3L472,464.51q-1.32-1.67-2.61-3.33l-1-1.34q-3.63-4.71-7.05-9.38c-.29-.4-.57-.8-.87-1.19L458,445.82l-1.08-1.53-2.18-3.1-1.13-1.64-2-3-.06-.1c-3.05-9.89-6.19-21.68-9.32-34.51l3.5-.67a6.33,6.33,0,1,0-2.37-12.44l-4.06.77c-1.7-7.31-3.39-14.85-5-22.47l2.57-.52a6.33,6.33,0,0,0-2.5-12.42l-2.71.54c-1.6-7.62-3.16-15.24-4.65-22.74l3.17-.62a6.34,6.34,0,0,0-2.44-12.44l-3.18.63c-1.51-7.77-2.94-15.31-4.28-22.45l5-.94a6.34,6.34,0,1,0-2.36-12.45l-4.91.93c-4-22-6.75-38.46-7.38-43.07-2-14.28-.12-30-18-23.61-12.79,4.56-28.34,18.87-36.16,26.65a84.92,84.92,0,0,1-60.25-74.11,13.22,13.22,0,0,0-19.38-10.44,238.87,238.87,0,0,0-33.67,21.57l-.28-.3a2.61,2.61,0,0,0-3.43-.29c-28.33,21.21-44.5,43.64-44.5,43.64h0l-45.1,17.15c-19.33,8.13-18.33,25.86-4.44,40.43L370.78,518.77c8.07,8.47,46.79,36.88,63,45.38s35,16.07,45.71,5.89c14-13.35,21.81-22.38,26.1-28a4.77,4.77,0,0,0-.25-6.09C508.32,531.19,510.92,525.23,511,518.73Z"/><path class="cls-3" d="M322.4,177.4s23.29-25.43,41.15-31.8,16,9.33,18,23.61,24.09,142.29,42.12,198.51S361,302,361,302Z"/><path class="cls-4" d="M473.72,427.36C382,331.13,363.06,239.52,359.44,198.3a26.57,26.57,0,0,0-22.21-23.74,84.92,84.92,0,0,1-70.09-76.42A13.21,13.21,0,0,0,247.76,87.7c-48.54,25.43-80.11,66.09-80.11,66.09l-4,27.78,35.2,75.58L295,385.94l128.13,100.8,44.26-12.6S495.52,450.23,473.72,427.36Z"/><path class="cls-5" d="M473.72,427.36c-51-53.45-79.44-105.48-95.32-148.23L313.76,400.69l109.37,86.05,44.26-12.6S495.52,450.23,473.72,427.36Z"/><path class="cls-6" d="M220.2,167.47a35.75,35.75,0,0,0,1.21-50.54l-7.59-8a2.61,2.61,0,0,0-3.43-.29c-28.33,21.21-44.5,43.64-44.5,43.64l-1.81,24.21,22.2,23.29Z"/><path class="cls-7" d="M309.29,230.72a6.33,6.33,0,0,0,7.21,8.18l79.69-15.1a6.34,6.34,0,1,0-2.36-12.45l-79.69,15.1A6.36,6.36,0,0,0,309.29,230.72Z"/><path class="cls-7" d="M330.69,263.2a6.34,6.34,0,0,0,7.24,8.18L401.1,259a6.34,6.34,0,0,0-2.43-12.44L335.5,259A6.33,6.33,0,0,0,330.69,263.2Z"/><path class="cls-7" d="M358.33,294.54a6.27,6.27,0,0,0-.19,3.2,6.34,6.34,0,0,0,7.46,5l42.19-8.47a6.33,6.33,0,1,0-2.49-12.42l-42.19,8.46A6.32,6.32,0,0,0,358.33,294.54Z"/><path class="cls-6" d="M473.72,427.36c-7.14-7.49-12.7-16.38-18.82-24a2,2,0,0,0-3-.05c-5.75,6.59-15.34,17-18.73,17.12-5.22.12-42.84-15.43-61.15-39.21s-38.45-54.05-43.18-63.6S270.14,300.84,271.72,302s34.87,83.89,61.1,108.36c16.08,15,62.62,49.91,96.27,74.71l38.3-10.91S495.52,450.23,473.72,427.36Z"/><path class="cls-7" d="M384.13,325.55a6.35,6.35,0,0,0,7.22,8.19l25.35-4.84a6.33,6.33,0,1,0-2.37-12.44L389,321.29A6.35,6.35,0,0,0,384.13,325.55Z"/><path class="cls-8" d="M120.79,169.47l45.1-17.15s65,53.2,87.66,100.76S306.91,362,339.23,395.18s102.45,76.31,102.45,76.31a76.36,76.36,0,0,1,30.64-9.61,4.85,4.85,0,0,1,4.3,7.73c-4.29,5.66-12.1,14.7-26.1,28.05-10.67,10.18-29.53,2.61-45.72-5.89s-54.9-36.91-63-45.38L116.35,209.9C102.46,195.33,101.46,177.6,120.79,169.47Z"/><path class="cls-9" d="M192.32,227.58,132.63,165l-11.84,4.5c-19.33,8.13-18.33,25.86-4.44,40.43l70.18,73.6,4.56-4.35A36.48,36.48,0,0,0,192.32,227.58Z"/></svg>