<svg id="Capa_1" data-name="Capa 1" xmlns="http://www.w3.org/2000/svg" xmlns:xlink="http://www.w3.org/1999/xlink" viewBox="0 0 600 600"><defs><style>.cls-1{fill:#2dcccd;}.cls-2{fill:none;}.cls-3{fill:url(#Degradado_sin_nombre_4);}.cls-4{fill:#1464a5;}.cls-5{fill:#49a5e6;}.cls-6{opacity:0.5;fill:url(#Degradado_sin_nombre_16);}.cls-11,.cls-6{isolation:isolate;}.cls-7{fill:#08467f;}.cls-8{clip-path:url(#clip-path);}.cls-9{fill:#1973b8;}.cls-10{fill:url(#Degradado_sin_nombre_9);}.cls-11{fill:#043263;opacity:0.6;}.cls-12{fill:#fff;}</style><linearGradient id="Degradado_sin_nombre_4" x1="171.97" y1="118.33" x2="396.81" y2="541.2" gradientUnits="userSpaceOnUse"><stop offset="0" stop-color="#192647"/><stop offset="0" stop-color="#192647" stop-opacity="0.5"/><stop offset="1" stop-color="#192647" stop-opacity="0"/></linearGradient><linearGradient id="Degradado_sin_nombre_16" x1="147.95" y1="-5999.49" x2="302.21" y2="-6153.75" gradientTransform="matrix(1, 0, 0, -1, 0, -5803)" gradientUnits="userSpaceOnUse"><stop offset="0" stop-color="#fff" stop-opacity="0.5"/><stop offset="1" stop-color="#ecf7f8" stop-opacity="0.1"/></linearGradient><clipPath id="clip-path"><path class="cls-1" d="M203.41,204.71a11.81,11.81,0,0,1,0,14.6l6.05,2.52a14.85,14.85,0,0,0,0-19.9Zm12.86-5.55,7.29-3a27.69,27.69,0,0,1,.45,31.07l-.45.66-7.26-3a19.94,19.94,0,0,0,.45-25.16l-.45-.53,7.29-3Zm13.85-6,7-3a40.53,40.53,0,0,1,.5,42.77l-.5.82-7-3a33,33,0,0,0,.48-36.8l-.48-.72,7-3Zm20.57,25.57A45.81,45.81,0,0,0,244,187.31l7.06-3a53.43,53.43,0,0,1,0,55.42l-7.06-3a45.83,45.83,0,0,0,6.73-18"/></clipPath><linearGradient id="Degradado_sin_nombre_9" x1="465.61" y1="-5695.56" x2="291.74" y2="-5695.56" gradientTransform="matrix(1, 0, 0, -1, 0, -5325)" gradientUnits="userSpaceOnUse"><stop offset="0" stop-color="#043263" stop-opacity="0.5"/><stop offset="1" stop-color="#043263" stop-opacity="0"/></linearGradient></defs><title>safeTap_</title><rect class="cls-2" width="600" height="600"/><path class="cls-3" d="M493.88,329.49H388.72V167.13h-.11V138.28a22.12,22.12,0,0,0-22.1-22.15H181.57a22.11,22.11,0,0,0-22,22.2v362a22.09,22.09,0,0,0,22.09,22.09H366.52a22.09,22.09,0,0,0,22.09-22.09V487.64H493.88a14.74,14.74,0,0,0,14.73-14.74V344.22A14.72,14.72,0,0,0,493.88,329.49Z"/><path class="cls-4" d="M139.49,77.58h184.9a22.12,22.12,0,0,1,22.1,22.15V461.78a22.12,22.12,0,0,1-22.1,22.1H139.49a22.11,22.11,0,0,1-22.1-22.1v-362a22.11,22.11,0,0,1,22.06-22.2Z"/><rect class="cls-5" x="117.39" y="128.58" width="229.2" height="304.3"/><polygon class="cls-6" points="117.69 128.78 117.69 432.68 234.49 432.88 346.49 225.88 346.49 128.57 117.69 128.78"/><circle class="cls-7" cx="231.09" cy="212.02" r="57.53"/><path class="cls-1" d="M203.41,204.71a11.81,11.81,0,0,1,0,14.6l6.05,2.52a14.85,14.85,0,0,0,0-19.9Zm12.86-5.55,7.29-3a27.69,27.69,0,0,1,.45,31.07l-.45.66-7.26-3a19.94,19.94,0,0,0,.45-25.16l-.45-.53,7.29-3Zm13.85-6,7-3a40.53,40.53,0,0,1,.5,42.77l-.5.82-7-3a33,33,0,0,0,.48-36.8l-.48-.72,7-3Zm20.57,25.57A45.81,45.81,0,0,0,244,187.31l7.06-3a53.43,53.43,0,0,1,0,55.42l-7.06-3a45.83,45.83,0,0,0,6.73-18"/><g class="cls-8"><rect class="cls-1" x="190.83" y="171.74" width="80.54" height="80.59"/></g><rect class="cls-9" x="203.32" y="291.49" width="262.29" height="158.15" rx="14.79"/><path class="cls-10" d="M450.88,449.64a14.74,14.74,0,0,0,14.73-14.74V306.22a14.72,14.72,0,0,0-14.73-14.73H375.83L291.74,449.64Z"/><rect class="cls-11" x="203.32" y="313.99" width="262.29" height="25.72"/><path class="cls-12" d="M243.65,387.94h181a2.4,2.4,0,0,1,2.19,2.56v21.94a2.4,2.4,0,0,1-2.19,2.56h-181a2.4,2.4,0,0,1-2.19-2.56V390.5A2.4,2.4,0,0,1,243.65,387.94Z"/></svg>