<svg id="Capa_1" data-name="Capa 1" xmlns="http://www.w3.org/2000/svg" xmlns:xlink="http://www.w3.org/1999/xlink" viewBox="0 0 600 600"><defs><style>.cls-1{fill:none;}.cls-2{fill:url(#Degradado_sin_nombre);}.cls-3{fill:#043263;}.cls-4{fill:#49a5e6;}.cls-5{opacity:0.5;isolation:isolate;fill:url(#Degradado_sin_nombre_2);}.cls-6{fill:#08467f;}.cls-7{fill:#2dcccd;}.cls-8{fill:#004481;}.cls-9{fill:url(#Degradado_sin_nombre_6);}.cls-10{fill:#072146;}.cls-11{fill:#fff;}</style><linearGradient id="Degradado_sin_nombre" x1="172" y1="481.66" x2="396.83" y2="58.81" gradientTransform="matrix(1, 0, 0, -1, 0, 600)" gradientUnits="userSpaceOnUse"><stop offset="0" stop-color="#192647"/><stop offset="0" stop-color="#192647" stop-opacity="0.5"/><stop offset="1" stop-color="#192647" stop-opacity="0"/></linearGradient><linearGradient id="Degradado_sin_nombre_2" x1="147.95" y1="6575.49" x2="302.21" y2="6729.75" gradientTransform="translate(0 -6379)" gradientUnits="userSpaceOnUse"><stop offset="0" stop-color="#fff" stop-opacity="0.5"/><stop offset="1" stop-color="#ecf7f8" stop-opacity="0.1"/></linearGradient><linearGradient id="Degradado_sin_nombre_6" x1="465.61" y1="6271.57" x2="291.74" y2="6271.57" gradientTransform="translate(0 -5901)" gradientUnits="userSpaceOnUse"><stop offset="0" stop-color="#072146"/><stop offset="1" stop-color="#072146" stop-opacity="0"/></linearGradient></defs><title>safe-tap-dark</title><rect class="cls-1" width="600" height="600"/><path class="cls-2" d="M493.88,329.49H388.72V167.13h-.11V138.28a22.12,22.12,0,0,0-22.09-22.15H181.57a22.11,22.11,0,0,0-22,22.2v362a22.09,22.09,0,0,0,22.09,22.09H366.52a22.09,22.09,0,0,0,22.09-22.09V487.64H493.88a14.74,14.74,0,0,0,14.73-14.74V344.22a14.72,14.72,0,0,0-14.71-14.73Z"/><path class="cls-3" d="M139.49,77.58h184.9a22.12,22.12,0,0,1,22.1,22.14h0v362a22.12,22.12,0,0,1-22.1,22.1H139.49a22.12,22.12,0,0,1-22.1-22.1v-362a22.11,22.11,0,0,1,22-22.2h.08Z"/><rect class="cls-4" x="117.39" y="128.58" width="229.2" height="304.3"/><polygon class="cls-5" points="117.69 128.78 117.69 432.68 234.49 432.88 346.49 225.88 346.49 128.57 117.69 128.78"/><circle class="cls-6" cx="231.09" cy="212.02" r="57.53"/><path class="cls-7" d="M216.73,199.59a19.94,19.94,0,0,1-.45,25.16l7.26,3,.45-.66a27.69,27.69,0,0,0-.42-31l-7.29,3Z"/><path class="cls-7" d="M216.25,199l7.32-3,0,0Z"/><path class="cls-7" d="M209.44,221.69a14.85,14.85,0,0,0,0-19.9l-6.05,2.78a11.81,11.81,0,0,1,0,14.6Z"/><path class="cls-7" d="M237.1,233.61l.5-.82a40.53,40.53,0,0,0-.5-42.77l-7,3,7-2.93-7,3,.48.72a33,33,0,0,1-.48,36.8Z"/><path class="cls-7" d="M244,187.17a45.78,45.78,0,0,1,6.69,31.42h0a45.75,45.75,0,0,1-6.73,18l7.06,3a53.43,53.43,0,0,0,0-55.42Z"/><polygon class="cls-7" points="223.57 196.06 223.57 196.06 223.57 196.06 223.57 196.06"/><rect class="cls-8" x="203.32" y="291.49" width="262.29" height="158.15" rx="14.79"/><path class="cls-9" d="M450.88,449.64a14.74,14.74,0,0,0,14.73-14.74V306.22a14.72,14.72,0,0,0-14.71-14.73H375.83L291.74,449.64Z"/><rect class="cls-10" x="203.32" y="313.99" width="262.29" height="25.72"/><path class="cls-11" d="M243.65,387.94h181a2.4,2.4,0,0,1,2.19,2.56v21.94a2.4,2.4,0,0,1-2.19,2.56h-181a2.4,2.4,0,0,1-2.19-2.56V390.5A2.4,2.4,0,0,1,243.65,387.94Z"/></svg>