<svg xmlns="http://www.w3.org/2000/svg" xmlns:xlink="http://www.w3.org/1999/xlink" viewBox="0 0 600 600"><defs><style>.cls-1{fill:none;}.cls-2{fill:url(#Degradado_sin_nombre_54);}.cls-3{fill:#cdeefe;}.cls-4{fill:url(#Degradado_sin_nombre_8);}.cls-5{opacity:0.35;}.cls-6{fill:#49a5e6;}.cls-7{fill:#2dcccd;}.cls-8{fill:#fff;}</style><linearGradient id="Degradado_sin_nombre_54" x1="201.58" y1="6652.14" x2="458.6" y2="6168.73" gradientTransform="matrix(1, 0, 0, -1, 0, 6782)" gradientUnits="userSpaceOnUse"><stop offset="0" stop-color="#192647" stop-opacity="0.5"/><stop offset="1" stop-color="#192647" stop-opacity="0"/></linearGradient><linearGradient id="Degradado_sin_nombre_8" x1="445.75" y1="715.6" x2="165" y2="715.6" gradientTransform="translate(0 -398)" gradientUnits="userSpaceOnUse"><stop offset="0" stop-color="#043263" stop-opacity="0.1"/><stop offset="1" stop-color="#043263" stop-opacity="0"/></linearGradient></defs><g id="Cuadrados_Blancos" data-name="Cuadrados Blancos"><rect class="cls-1" width="600" height="600"/></g><g id="Capa_11" data-name="Capa 11"><path class="cls-2" d="M500.61,469.68V269.9l-51.13-50.69h0L402.78,173H207a3,3,0,0,0-3,3h0v380a3,3,0,0,0,3,3H412.36a65.38,65.38,0,0,0,89.42,21.53,64.2,64.2,0,0,0,21.71-88.66,64.88,64.88,0,0,0-22.88-22.23Z"/><path class="cls-3" d="M445.72,213.05,347.7,115H154.9a3.32,3.32,0,0,0-3.3,3.3V498.18a3,3,0,0,0,2.91,3H442.73a3,3,0,0,0,3-2.89.21.21,0,0,0,0-.11Z"/><path class="cls-4" d="M364.7,133,165,501.18l272.73,1h5a3,3,0,0,0,3-2.89.21.21,0,0,0,0-.11V214.05Z"/><g class="cls-5"><path class="cls-6" d="M289.66,166H190.61a5,5,0,0,1,0-10h99.05a5,5,0,0,1,.49,10Z"/></g><g class="cls-5"><path class="cls-6" d="M289.66,194.05H190.61a5,5,0,0,1,0-10h99.05a5,5,0,0,1,.49,10Z"/></g><g class="cls-5"><path class="cls-6" d="M258.38,454.16h-68a5,5,0,1,1,0-10h68a5,5,0,0,1,0,10Z"/></g><path class="cls-6" d="M351.39,213.05h94.33L347.7,115v94.34a3.63,3.63,0,0,0,3.54,3.71Z"/><g class="cls-5"><path class="cls-6" d="M298.67,298.09H219.62a5,5,0,0,1,0-10h79.05a5,5,0,0,1,0,10Z"/><path class="cls-6" d="M298.67,326.1H219.62a5,5,0,0,1,0-10h79.05a5,5,0,0,1,0,10Z"/><path class="cls-6" d="M298.67,354.11H219.62a5,5,0,0,1,0-10h79.05a5,5,0,0,1,0,10Z"/><path class="cls-6" d="M298.67,382.13H219.62a5,5,0,0,1,0-10h79.05a5,5,0,0,1,0,10Z"/><path class="cls-6" d="M396.72,259.07H190.61a5,5,0,0,0-5,4.91V404.13a4.94,4.94,0,0,0,4.89,5H396.72a5,5,0,0,0,5-4.9V264.07a5,5,0,0,0-4.91-5Zm-201.12,10H322.68V399.14h-127ZM391.71,399.14h-59V269.07h59Z"/></g><path class="cls-7" d="M489.35,471a66,66,0,1,1-66-66h0a66,66,0,0,1,66,66"/><circle class="cls-7" cx="423.63" cy="470.69" r="66.31"/><path class="cls-8" d="M395.4,445.85v49.69a3.1,3.1,0,0,0,3.11,3.1,3.07,3.07,0,0,0,2.2-.91l24.81-24.84a3.12,3.12,0,0,0,0-4.4h0l-24.81-24.8a3.12,3.12,0,0,0-5.31,2.16Z"/><path class="cls-8" d="M426.47,445.85v49.69a3.1,3.1,0,0,0,3.1,3.1,3.07,3.07,0,0,0,2.2-.91l24.85-24.84a3.12,3.12,0,0,0,0-4.4h0l-24.85-24.8a3.11,3.11,0,0,0-5.3,2.16Z"/></g></svg>