<svg id="Contenido" xmlns="http://www.w3.org/2000/svg" xmlns:xlink="http://www.w3.org/1999/xlink" viewBox="0 0 600 600"><defs><style>.cls-1{fill:url(#Degradado_sin_nombre_7);}.cls-2{fill:#1b65a3;}.cls-3{fill:#07467f;}.cls-4{fill:#2dcccd;}.cls-5{fill:#e8f4f5;}.cls-6{fill:#da3951;}.cls-7{fill:#1464a5;}.cls-8{fill:url(#Degradado_sin_nombre_28);}</style><linearGradient id="Degradado_sin_nombre_7" x1="207.46" y1="189.69" x2="390.26" y2="533.5" gradientUnits="userSpaceOnUse"><stop offset="0" stop-color="#192647"/><stop offset="0" stop-color="#192647" stop-opacity="0.5"/><stop offset="1" stop-color="#192647" stop-opacity="0"/></linearGradient><linearGradient id="Degradado_sin_nombre_28" x1="479.2" y1="339.53" x2="243.18" y2="339.53" gradientUnits="userSpaceOnUse"><stop offset="0" stop-color="#043263" stop-opacity="0.6"/><stop offset="1" stop-color="#043263" stop-opacity="0"/></linearGradient></defs><title>0</title><path class="cls-1" d="M529,458.85a.64.64,0,0,0,0-.07,3.14,3.14,0,0,0,.16-1.22,2.89,2.89,0,0,0-1-2L369,318.24h0L242,208.68a2.93,2.93,0,0,0-1.78-.71h-27a3.07,3.07,0,0,0-3.07,3.07v1.46l-4.41-3.81a2.91,2.91,0,0,0-1.94-.72H173.87A3.06,3.06,0,0,0,170.8,211V457.74a3.07,3.07,0,0,0,3.07,3.07h16.76c-2.18,18.51-10.16,34.41,27.07,30.69,42.07-4.21,62.36-6.24,96.4-10.32a75.79,75.79,0,0,0,94.42-20.37H526.19a3,3,0,0,0,2.64-1.56l0-.08A1.87,1.87,0,0,0,529,458.85ZM203.16,208l.1,0Zm-.52.16.06,0Zm-1.75,2.15Z"/><path class="cls-2" d="M150.83,160.93V407.84a3,3,0,0,0,3,3H440a3,3,0,0,0,2-5.27L155.74,158.68A3,3,0,0,0,150.83,160.93Z"/><path class="cls-3" d="M123.87,158h27a0,0,0,0,1,0,0V410.81a0,0,0,0,1,0,0h-27a3.07,3.07,0,0,1-3.07-3.07V161a3.07,3.07,0,0,1,3.07-3.07Z"/><path class="cls-4" d="M214.64,203.19S167.7,167.08,151.45,196s6.14,51.43-4.69,94.76-31.42,69.53-11.56,94.8-21.66,61.39,32.5,56,72.21-7.22,130-14.44S402.4,376.51,402.4,376.51Z"/><path class="cls-5" d="M154.54,232.84c0,36.07,0,111.87,0,171.63A23.56,23.56,0,0,0,180,428l168.6-17.14-126.15-201-48,2.19A20.86,20.86,0,0,0,154.54,232.84Z"/><circle class="cls-6" cx="298.99" cy="363.87" r="75.83"/><path class="cls-3" d="M163.22,158h27a0,0,0,0,1,0,0V410.81a0,0,0,0,1,0,0h-27a3.07,3.07,0,0,1-3.07-3.07V161a3.07,3.07,0,0,1,3.07-3.07Z"/><path class="cls-7" d="M187.05,160.93V407.84a3,3,0,0,0,3,3H476.19a3,3,0,0,0,2-5.27L192,158.68A3,3,0,0,0,187.05,160.93Z"/><path class="cls-3" d="M150.83,158h3a0,0,0,0,1,0,0v0a3,3,0,0,1-3,3h0a0,0,0,0,1,0,0v-3A0,0,0,0,1,150.83,158Z"/><path class="cls-8" d="M478.15,405.54,319,268.25l-75.8,142.56h233A3,3,0,0,0,478.15,405.54Z"/></svg>