<svg xmlns="http://www.w3.org/2000/svg" xmlns:xlink="http://www.w3.org/1999/xlink" viewBox="0 0 600 600"><defs><style>.cls-1{fill:none;}.cls-2{fill:url(#Degradado_sin_nombre_508);}.cls-3{fill:#1b65a3;}.cls-4{fill:#043263;}.cls-5{fill:#2dcccd;}.cls-6{fill:#e8f4f5;}.cls-7{fill:#da3951;}.cls-8{fill:#004481;}.cls-9{fill:#07467f;}.cls-10{fill:url(#Degradado_sin_nombre_108);}</style><linearGradient id="Degradado_sin_nombre_508" x1="207.45" y1="-2079.7" x2="390.24" y2="-2423.49" gradientTransform="matrix(1, 0, 0, -1, 0, -1890)" gradientUnits="userSpaceOnUse"><stop offset="0" stop-color="#192647" stop-opacity="0.5"/><stop offset="1" stop-color="#192647" stop-opacity="0"/></linearGradient><linearGradient id="Degradado_sin_nombre_108" x1="479.19" y1="-2229.53" x2="243.2" y2="-2229.53" gradientTransform="matrix(1, 0, 0, -1, 0, -1890)" gradientUnits="userSpaceOnUse"><stop offset="0" stop-color="#043263" stop-opacity="0.6"/><stop offset="1" stop-color="#043263" stop-opacity="0"/></linearGradient></defs><title>11</title><g id="Cuadrados_Blancos" data-name="Cuadrados Blancos"><rect class="cls-1" width="600" height="600"/></g><g id="Capa_71" data-name="Capa 71"><path class="cls-2" d="M529,458.85v-.07a3.16,3.16,0,0,0,.16-1.22,2.89,2.89,0,0,0-1-2L369,318.24h0L242,208.68a2.92,2.92,0,0,0-1.78-.71h-27a3.06,3.06,0,0,0-3.07,3.07h0v1.46l-4.41-3.81a2.9,2.9,0,0,0-1.94-.72H173.87a3.06,3.06,0,0,0-3.07,3V457.74a3.06,3.06,0,0,0,3.07,3.07h16.76c-2.18,18.51-10.16,34.41,27.07,30.69,42.07-4.21,62.36-6.24,96.4-10.32a75.8,75.8,0,0,0,94.42-20.37H526.19a3,3,0,0,0,2.64-1.56v-.08A2,2,0,0,0,529,458.85ZM203.16,208h0Zm-.52.16h0Z"/><path class="cls-3" d="M150.83,160.93V407.84a3,3,0,0,0,3,3H440a3,3,0,0,0,2-5.27L155.74,158.68a3,3,0,0,0-4.91,2.25Z"/><path class="cls-4" d="M123.87,158h27V410.81h-27a3.06,3.06,0,0,1-3.07-3.07h0V161a3.06,3.06,0,0,1,3.07-3.07h0Z"/><path class="cls-5" d="M214.64,203.19S167.7,167.08,151.45,196s6.14,51.43-4.69,94.76-31.42,69.53-11.56,94.8-21.66,61.39,32.5,56,72.21-7.22,130-14.44,104.7-50.61,104.7-50.61Z"/><path class="cls-6" d="M154.54,232.84V404.47a23.56,23.56,0,0,0,23.51,23.61c.65,0,1.3,0,1.95-.08l168.6-17.14-126.15-201-48,2.19A20.87,20.87,0,0,0,154.54,232.84Z"/><circle class="cls-7" cx="298.99" cy="363.87" r="75.83"/><path class="cls-4" d="M163.22,158h27V410.81h-27a3.06,3.06,0,0,1-3.07-3.07h0V161a3.06,3.06,0,0,1,3.07-3.07h0Z"/><path class="cls-8" d="M187.05,160.93V407.84a3,3,0,0,0,3,3H476.19a3,3,0,0,0,2-5.27L192,158.68a3,3,0,0,0-4.95,2.25Z"/><path class="cls-9" d="M150.83,158h3a3,3,0,0,1-3,3h0v-3Z"/><path class="cls-10" d="M478.15,405.54,319,268.25,243.2,410.81h233a3,3,0,0,0,1.95-5.27Z"/></g></svg>