<svg xmlns="http://www.w3.org/2000/svg" xmlns:xlink="http://www.w3.org/1999/xlink" viewBox="0 0 600 600"><defs><style>.cls-1{fill:none;}.cls-2{fill:url(#Degradado_sin_nombre_509);}.cls-3{fill:#004481;}.cls-4{fill:url(#Degradado_sin_nombre_114);}.cls-5{fill:url(#Degradado_sin_nombre_110);}.cls-6{fill:#d4edfc;}.cls-7{fill:url(#Degradado_sin_nombre_109);}.cls-8{fill:url(#Degradado_sin_nombre_109-2);}</style><linearGradient id="Degradado_sin_nombre_509" x1="250.72" y1="-2078.65" x2="417.66" y2="-2392.64" gradientTransform="matrix(1, 0, 0, -1, 0, -1890)" gradientUnits="userSpaceOnUse"><stop offset="0" stop-color="#1c2645" stop-opacity="0.5"/><stop offset="1" stop-color="#1c2645" stop-opacity="0"/></linearGradient><linearGradient id="Degradado_sin_nombre_114" x1="482.42" y1="-2121.79" x2="215.27" y2="-2121.79" gradientTransform="matrix(1, 0, 0, -1, 0, -1890)" gradientUnits="userSpaceOnUse"><stop offset="0" stop-color="#072146" stop-opacity="0.8"/><stop offset="1" stop-color="#072146" stop-opacity="0"/></linearGradient><linearGradient id="Degradado_sin_nombre_110" x1="457.88" y1="-2110.96" x2="373.55" y2="-2110.96" gradientTransform="matrix(1, 0, 0, -1, 0, -1890)" gradientUnits="userSpaceOnUse"><stop offset="0.5" stop-color="#043263" stop-opacity="0"/><stop offset="1" stop-color="#043263" stop-opacity="0.8"/></linearGradient><linearGradient id="Degradado_sin_nombre_109" x1="435.09" y1="-2114.07" x2="478.85" y2="-2157.82" gradientTransform="matrix(1, 0, 0, -1, 0, -1890)" gradientUnits="userSpaceOnUse"><stop offset="0" stop-color="#fff" stop-opacity="0.6"/><stop offset="1" stop-color="#fff" stop-opacity="0.1"/></linearGradient><linearGradient id="Degradado_sin_nombre_109-2" x1="120.2" y1="-2211.65" x2="231.97" y2="-2323.42" xlink:href="#Degradado_sin_nombre_109"/></defs><title>11</title><g id="Cuadrados_Blancos" data-name="Cuadrados Blancos"><rect class="cls-1" width="600" height="600"/></g><g id="Capa_72" data-name="Capa 72"><path class="cls-2" d="M519.69,260a48.6,48.6,0,0,0-5.91.38c-35.91-62.95-94.93-104-161.66-104C244.3,156.35,156.6,263.56,154,397.05l-.9-.05-2.2-.13a11,11,0,0,0-11.63,10.33c0,.22,0,.45,0,.67v57a11,11,0,0,0,10.35,11l3.5.21a2611.35,2611.35,0,0,0,309.27,0l3.5-.21a11,11,0,0,0,10.35-11v-57a11,11,0,0,0-11-11l-.67,0-2.2.13h-.57c-.9-45.61-11.72-88.15-29.88-124.39,18.26,2.76,29,5.29,44.11,15.64A47.87,47.87,0,1,0,519.69,260Z"/><path class="cls-3" d="M457.88,264.22a15.26,15.26,0,0,1,2.46-2,12.53,12.53,0,0,1,3.14-2.32c1.53-.77,3-1.57,4.57-2.36,4.58-2.72,9.21-5.35,14.05-7.61l.29-.12c-31.3-85-100.24-144.12-180.27-144.12-109.46,0-198.2,110.51-198.2,246.82H411.86c0-47.92-11-92.66-29.95-130.53C410.53,226.28,420.78,230,457.88,264.22Z"/><path class="cls-4" d="M343.62,111.1,215.27,352.49H411.86c0-47.92-11-92.66-29.95-130.53,28.62,4.32,38.87,8,76,42.26a15.26,15.26,0,0,1,2.46-2,12.53,12.53,0,0,1,3.14-2.32c1.53-.77,3-1.57,4.57-2.36,4.58-2.72,9.21-5.35,14.05-7.61l.29-.12C456.66,179.87,405.48,127.52,343.62,111.1Z"/><path class="cls-5" d="M457.88,264.22c-37.1-34.21-47.35-37.94-76-42.26,0,0-21.55-27.18,4.67-41.9,12.14-6.82,32.26,3.32,32.26,3.32"/><path class="cls-6" d="M415.86,425.15l-3.5.21a2611.35,2611.35,0,0,1-309.27,0l-3.5-.21a11,11,0,0,1-10.35-11v-57a11,11,0,0,1,11-11l.67,0,2.2.13a2611.35,2611.35,0,0,0,309.27,0l2.2-.13a11,11,0,0,1,11.63,10.33c0,.22,0,.45,0,.67v57A11,11,0,0,1,415.86,425.15Z"/><circle class="cls-6" cx="469.69" cy="257.18" r="47.86"/><path class="cls-7" d="M469.69,209.32a47.86,47.86,0,0,0-22.47,90.13l44.94-84.53A47.6,47.6,0,0,0,469.69,209.32Z"/><path class="cls-8" d="M103.09,346.32l-2.2-.13a11,11,0,0,0-11.63,10.33c0,.22,0,.45,0,.67v57a11,11,0,0,0,10.35,11l3.5.21q66.15,3.93,132.42,4.48l42-79Q190.29,351.5,103.09,346.32Z"/></g></svg>