<svg id="Contenido" xmlns="http://www.w3.org/2000/svg" xmlns:xlink="http://www.w3.org/1999/xlink" viewBox="0 0 600 600"><defs><style>.cls-1{fill:url(#Degradado_sin_nombre_16);}.cls-2{fill:#d44b50;}.cls-3{fill:url(#Degradado_sin_nombre_141);}.cls-4{fill:url(#Degradado_sin_nombre_169);}.cls-5{fill:#d4edfc;}.cls-6{fill:url(#Degradado_sin_nombre_10);}.cls-7{fill:url(#Degradado_sin_nombre_10-2);}.cls-8{fill:none;}</style><linearGradient id="Degradado_sin_nombre_16" x1="250.72" y1="188.64" x2="417.65" y2="502.6" gradientUnits="userSpaceOnUse"><stop offset="0" stop-color="#1c2645"/><stop offset="0" stop-color="#1c2645" stop-opacity="0.5"/><stop offset="1" stop-color="#1c2645" stop-opacity="0"/></linearGradient><linearGradient id="Degradado_sin_nombre_141" x1="482.39" y1="231.8" x2="215.27" y2="231.8" gradientUnits="userSpaceOnUse"><stop offset="0" stop-color="#820000" stop-opacity="0.5"/><stop offset="1" stop-color="#820000" stop-opacity="0"/></linearGradient><linearGradient id="Degradado_sin_nombre_169" x1="457.88" y1="220.96" x2="373.58" y2="220.96" gradientUnits="userSpaceOnUse"><stop offset="0.49" stop-color="#820000" stop-opacity="0"/><stop offset="0.99" stop-color="#820000" stop-opacity="0.8"/></linearGradient><linearGradient id="Degradado_sin_nombre_10" x1="435.11" y1="224.08" x2="478.85" y2="267.82" gradientUnits="userSpaceOnUse"><stop offset="0" stop-color="#fff" stop-opacity="0.6"/><stop offset="1" stop-color="#fff" stop-opacity="0.1"/></linearGradient><linearGradient id="Degradado_sin_nombre_10-2" x1="120.22" y1="321.62" x2="231.98" y2="433.37" xlink:href="#Degradado_sin_nombre_10"/></defs><title>-</title><path class="cls-1" d="M519.69,260a48.08,48.08,0,0,0-5.91.38c-35.91-62.95-94.93-104-161.66-104C244.3,156.35,156.6,263.56,154,397.05l-.9-.05-2.2-.13a11,11,0,0,0-11.65,11v57a11,11,0,0,0,10.35,11l3.5.21a2611.35,2611.35,0,0,0,309.27,0l3.5-.21a11,11,0,0,0,10.35-11v-57a11,11,0,0,0-11.65-11l-2.2.13-.57,0c-.9-45.61-11.72-88.15-29.88-124.39,18.26,2.76,29,5.29,44.11,15.64A47.86,47.86,0,1,0,519.69,260Z"/><path class="cls-2" d="M457.88,264.22a15,15,0,0,1,2.46-2,12.54,12.54,0,0,1,3.14-2.32c1.53-.77,3-1.57,4.57-2.36,4.58-2.72,9.21-5.35,14.05-7.61l.29-.12c-31.3-85-100.24-144.12-180.27-144.12-109.46,0-198.2,110.51-198.2,246.82H411.86c0-47.92-11-92.66-29.95-130.53C410.53,226.28,420.78,230,457.88,264.22Z"/><path class="cls-3" d="M343.62,111.1,215.27,352.49H411.86c0-47.92-11-92.66-29.95-130.53,28.62,4.32,38.87,8,76,42.26a15,15,0,0,1,2.46-2,12.54,12.54,0,0,1,3.14-2.32c1.53-.77,3-1.57,4.57-2.36,4.58-2.72,9.21-5.35,14.05-7.61l.29-.12C456.66,179.87,405.48,127.52,343.62,111.1Z"/><path class="cls-4" d="M457.88,264.22c-37.1-34.21-47.35-37.94-76-42.26,0,0-21.55-27.18,4.67-41.9,12.14-6.82,32.26,3.32,32.26,3.32"/><path class="cls-5" d="M415.86,425.15l-3.5.21a2611.35,2611.35,0,0,1-309.27,0l-3.5-.21a11,11,0,0,1-10.35-11v-57a11,11,0,0,1,11.65-11l2.2.13a2611.35,2611.35,0,0,0,309.27,0l2.2-.13a11,11,0,0,1,11.65,11v57A11,11,0,0,1,415.86,425.15Z"/><circle class="cls-5" cx="469.69" cy="257.18" r="47.86"/><path class="cls-6" d="M469.69,209.32a47.86,47.86,0,0,0-22.47,90.13l44.94-84.53A47.65,47.65,0,0,0,469.69,209.32Z"/><path class="cls-7" d="M103.09,346.32l-2.2-.13a11,11,0,0,0-11.65,11v57a11,11,0,0,0,10.35,11l3.5.21q66.15,3.93,132.42,4.48l42-79Q190.28,351.5,103.09,346.32Z"/><rect class="cls-8" width="600" height="600"/></svg>