<?xml version="1.0" encoding="utf-8"?>
<!-- Generator: Adobe Illustrator 23.0.1, SVG Export Plug-In . SVG Version: 6.00 Build 0)  -->
<svg version="1.1" id="Capa_1" xmlns="http://www.w3.org/2000/svg" xmlns:xlink="http://www.w3.org/1999/xlink" x="0px" y="0px"
	 viewBox="0 0 600 600" style="enable-background:new 0 0 600 600;" xml:space="preserve">
<style type="text/css">
	.st0{fill:url(#Path_1_);}
	.st1{fill:#2DCCCD;}
	.st2{fill:#1464A5;}
	.st3{fill:#DA3951;}
	.st4{fill:#FFFFFF;}
	.st5{fill:url(#SVGID_1_);}
	.st6{fill:#043263;}
	.st7{fill:#49A5E6;}
</style>
<title>Products and Services/Saving-Dollar-negative</title>
<desc>Created with Sketch.</desc>
<g>
	<g id="Saving" transform="translate(139.000000, 99.000000)">
		
			<linearGradient id="Path_1_" gradientUnits="userSpaceOnUse" x1="-258.2695" y1="498.2375" x2="-257.8783" y2="497.3116" gradientTransform="matrix(320.0008 0 0 -402.7005 82810.2031 200708.4375)">
			<stop  offset="0" style="stop-color:#192647"/>
			<stop  offset="0" style="stop-color:#192647;stop-opacity:0.5"/>
			<stop  offset="1" style="stop-color:#192647;stop-opacity:0"/>
		</linearGradient>
		<path id="Path" class="st0" d="M369.9,266.5c0-0.5,0-1,0-1.4c0-1.3-0.1-2.5-0.2-3.8c0-0.5,0-0.9-0.1-1.3c-0.1-1.6-0.3-3.3-0.4-4.9
			c0-0.2,0-0.5-0.1-0.7c-0.1-1.4-0.3-2.8-0.5-4.3c-0.1-0.5-0.1-1-0.2-1.4c-0.2-1.3-0.4-2.6-0.6-3.9l-0.2-1.1
			c-0.3-1.6-0.6-3.2-0.9-4.8c-0.1-0.3-0.1-0.6-0.2-0.9c-0.3-1.3-0.6-2.6-0.9-3.9c-0.1-0.4-0.2-0.9-0.3-1.3c-0.3-1.4-0.7-2.8-1.1-4.1
			c-0.1-0.2-0.1-0.4-0.2-0.6c-0.4-1.6-0.9-3.1-1.4-4.7c-0.1-0.3-0.2-0.6-0.3-1c-0.4-1.3-0.8-2.5-1.3-3.8l-0.4-1.1
			c-1.1-3.1-2.3-6.1-3.6-9.1l-0.4-0.9c-0.5-1.3-1.1-2.5-1.7-3.8l-0.4-0.8c-1.4-2.9-2.8-5.7-4.4-8.5c12.3-7.8,19.8-21.4,19.8-36
			v-44.3c0-1.7-1.3-3-3-3h-44.3c-14.7,0-28.3,7.5-36.1,19.9c-5.2-2.8-10.5-5.4-16-7.6c0.9-4.2,1.3-8.4,1.4-12.7
			c0-33.1-26.8-60-59.9-60.1c-33.1-0.1-60,26.8-60.1,59.9c0,3.8,0.4,7.6,1.1,11.4c-6.7,2.6-13.3,5.6-19.6,9
			C125.6,118.5,112,111,97.3,111H53c-1.7,0-3,1.3-3,3v44.3c0,14.6,7.5,28.2,19.8,36c-35.2,64.1-22.5,143.9,30.9,193.9l9,62.4
			c0.2,1.5,1.5,2.6,3,2.6H177c1.7,0,3-1.3,3-3v-21.5c19.8,3.7,40.2,3.7,60,0v21.6c0,1.7,1.3,3,3,3h64.4c1.5,0,2.8-1.1,3-2.6l9-62.4
			c32.3-30.2,50.7-72.5,50.6-116.8C370,269.8,370,268.2,369.9,266.5z"/>
		<path class="st1" d="M3,61.5h44.3c23.6,0,42.7,19.1,42.7,42.7v45.5c0,1-0.8,1.8-1.8,1.8H42.7C19.1,151.5,0,132.4,0,108.8V64.5
			C0,62.8,1.3,61.5,3,61.5z"/>
		<path class="st1" d="M277.3,151.5h-45.5c-1,0-1.8-0.8-1.8-1.8v-45.5c0-23.6,19.1-42.7,42.7-42.7H317c1.7,0,3,1.3,3,3l0,0v44.3
			C320,132.4,300.9,151.5,277.3,151.5z"/>
		<path class="st2" d="M320,221.9c0-88.4-71.6-160-160-160S0,133.5,0,221.9c0,44.3,18.3,86.6,50.7,116.8l9,62.4
			c0.2,1.5,1.5,2.6,3,2.6H127c1.7,0,3-1.3,3-3v-21.6c19.8,3.8,40.2,3.8,60,0v21.6c0,1.7,1.3,3,3,3h64.4c1.5,0,2.8-1.1,3-2.6l9-62.4
			C301.7,308.5,320.1,266.2,320,221.9z"/>
		<path class="st3" d="M202.1,105.7c24.7-22.2,26.7-60.1,4.6-84.8s-60.1-26.7-84.8-4.6s-26.7,60.1-4.6,84.8c1.1,1.3,2.3,2.5,3.6,3.6
			C147.4,96.7,175.8,97,202.1,105.7z"/>
		<path class="st4" d="M167.7,61l15.9-15.8c1.9-1.9,1.9-4.9,0-6.7c-1.9-1.9-4.9-1.9-6.7,0L161,54.3l-15.8-15.9
			c-1.9-1.9-4.9-1.9-6.7,0c-1.9,1.9-1.9,4.9,0,6.7L154.3,61l-15.9,15.8c-0.9,0.9-1.4,2.1-1.4,3.4s0.5,2.5,1.4,3.4
			c0.9,0.9,2.1,1.4,3.4,1.4c1.3,0,2.5-0.5,3.4-1.4L161,67.7l15.8,15.9c1.9,1.8,4.9,1.8,6.7,0c0.9-0.9,1.4-2.1,1.4-3.4
			s-0.5-2.5-1.4-3.4L167.7,61z"/>
		
			<linearGradient id="SVGID_1_" gradientUnits="userSpaceOnUse" x1="-257.5169" y1="497.7818" x2="-258.5169" y2="497.7818" gradientTransform="matrix(248.3766 0 0 -321.6 64281.2461 160329.5312)">
			<stop  offset="0" style="stop-color:#043263;stop-opacity:0.6"/>
			<stop  offset="1" style="stop-color:#043263;stop-opacity:0"/>
		</linearGradient>
		<path class="st5" d="M237.7,82.1l-166,321.6H127c1.7,0,3-1.3,3-3l0,0v-21.6c19.8,3.8,40.2,3.8,60,0v21.6c0,1.7,1.3,3,3,3h64.4
			c1.5,0,2.8-1.1,3-2.6l9-62.4c64.5-60.4,67.9-161.6,7.5-226.1C265.5,100.4,252.3,90.1,237.7,82.1L237.7,82.1z"/>
		<path class="st6" d="M222.9,124.8c-0.8,0-1.7-0.2-2.4-0.6c-37.6-21.3-83.6-21.3-121.2,0c-2.3,1.3-5.2,0.5-6.5-1.7
			c-1.3-2.2-0.5-5.2,1.7-6.5c40.5-23,90.2-23,130.7,0c2.3,1.3,3.1,4.2,1.7,6.5C226.1,123.9,224.6,124.8,222.9,124.8z"/>
		<path class="st7" d="M128,216.6h64c12.7,0,23,10.3,23,23l0,0c0,12.7-10.3,23-23,23h-64c-12.7,0-23-10.3-23-23l0,0
			C105,226.9,115.3,216.6,128,216.6z"/>
		<circle id="Oval" class="st2" cx="180" cy="239.6" r="6"/>
		<circle class="st2" cx="140" cy="239.6" r="6"/>
	</g>
</g>
</svg>
