<?xml version="1.0" encoding="utf-8"?>
<!-- Generator: Adobe Illustrator 23.0.1, SVG Export Plug-In . SVG Version: 6.00 Build 0)  -->
<svg version="1.1" id="Contenido" xmlns="http://www.w3.org/2000/svg" xmlns:xlink="http://www.w3.org/1999/xlink" x="0px" y="0px"
	 viewBox="0 0 600 600" style="enable-background:new 0 0 600 600;" xml:space="preserve">
<style type="text/css">
	.st0{fill:url(#SVGID_1_);}
	.st1{fill:#2DCCCD;}
	.st2{fill:#1464A5;}
	.st3{fill:#F6CB5C;}
	.st4{fill:url(#SVGID_2_);}
	.st5{fill:#FDF4DC;}
	.st6{fill:url(#SVGID_3_);}
	.st7{fill:#043263;}
	.st8{fill:#49A5E6;}
</style>
<title>GLOMO</title>
<linearGradient id="SVGID_1_" gradientUnits="userSpaceOnUse" x1="267.5564" y1="428.9603" x2="465.8063" y2="56.1028" gradientTransform="matrix(1 0 0 -1 0 602)">
	<stop  offset="0" style="stop-color:#192647"/>
	<stop  offset="0" style="stop-color:#192647;stop-opacity:0.5"/>
	<stop  offset="1" style="stop-color:#192647;stop-opacity:0"/>
</linearGradient>
<path class="st0" d="M509.9,368.5c0-0.5,0-1,0-1.4c0-1.3-0.1-2.5-0.2-3.8c0-0.5,0-0.9-0.1-1.3c-0.1-1.6-0.3-3.3-0.4-4.9
	c0-0.2,0-0.5-0.1-0.7c-0.1-1.4-0.3-2.8-0.5-4.3c-0.1-0.5-0.1-1-0.2-1.4c-0.2-1.3-0.4-2.6-0.6-3.9l-0.2-1.1c-0.3-1.6-0.6-3.2-0.9-4.8
	c-0.1-0.3-0.1-0.6-0.2-0.9c-0.3-1.3-0.6-2.6-0.9-3.9c-0.1-0.4-0.2-0.9-0.3-1.3c-0.3-1.4-0.7-2.8-1.1-4.1c-0.1-0.2-0.1-0.4-0.2-0.6
	c-0.4-1.6-0.9-3.1-1.4-4.7c-0.1-0.3-0.2-0.6-0.3-1c-0.4-1.3-0.8-2.5-1.3-3.8l-0.4-1.1c-1.1-3.1-2.3-6.1-3.6-9.1l-0.4-0.9
	c-0.5-1.3-1.1-2.5-1.7-3.8l-0.4-0.8c-1.4-2.9-2.8-5.7-4.4-8.5c12.3-7.8,19.8-21.4,19.8-36v-44.3c0-1.7-1.3-3-3-3h-44.3
	c-14.7,0-28.3,7.5-36.1,19.9c-5.2-2.8-10.5-5.4-16-7.6c0.9-4.2,1.3-8.4,1.4-12.7c0-33.1-26.8-60-59.9-60.1s-60,26.8-60.1,59.9
	c0,3.8,0.4,7.6,1.1,11.4c-6.7,2.6-13.3,5.6-19.6,9c-7.8-12.4-21.4-19.9-36.1-19.9H193c-1.7,0-3,1.3-3,3v44.3
	c0,14.6,7.5,28.2,19.8,36c-35.2,64.1-22.5,143.9,30.9,193.9l9,62.4c0.2,1.5,1.5,2.6,3,2.6H317c1.7,0,3-1.3,3-3v-21.5
	c19.8,3.7,40.2,3.7,60,0v21.6c0,1.7,1.3,3,3,3h64.4c1.5,0,2.8-1.1,3-2.6l9-62.4c32.3-30.2,50.7-72.5,50.6-116.8
	C510,371.8,510,370.2,509.9,368.5z"/>
<path class="st1" d="M143,163.5h44.3c23.6,0,42.7,19.1,42.7,42.7v45.5c0,1-0.8,1.8-1.8,1.8h-45.5c-23.6,0-42.7-19.1-42.7-42.7v-44.3
	C140,164.8,141.3,163.5,143,163.5z"/>
<path class="st1" d="M417.3,253.5h-45.5c-1,0-1.8-0.8-1.8-1.8v-45.5c0-23.6,19.1-42.7,42.7-42.7H457c1.7,0,3,1.3,3,3l0,0v44.3
	C460,234.4,440.9,253.5,417.3,253.5z"/>
<path class="st2" d="M460,323.9c0-88.4-71.6-160-160-160s-160,71.6-160,160c0,44.3,18.3,86.6,50.7,116.8l9,62.4
	c0.2,1.5,1.5,2.6,3,2.6H267c1.7,0,3-1.3,3-3v-21.6c19.8,3.8,40.2,3.8,60,0v21.6c0,1.7,1.3,3,3,3h64.4c1.5,0,2.8-1.1,3-2.6l9-62.4
	C441.7,410.5,460.1,368.2,460,323.9z"/>
<path class="st3" d="M342.1,207.7c24.7-22.2,26.7-60.1,4.6-84.8s-60.1-26.7-84.8-4.6s-26.7,60.1-4.6,84.8c1.1,1.3,2.3,2.5,3.6,3.6
	C287.4,198.7,315.8,199,342.1,207.7z"/>
<linearGradient id="SVGID_2_" gradientUnits="userSpaceOnUse" x1="252.504" y1="66.5792" x2="302.3127" y2="40.0968" gradientTransform="matrix(1 0 0 -1 0 202)">
	<stop  offset="0" style="stop-color:#FFFFFF;stop-opacity:0.6"/>
	<stop  offset="1" style="stop-color:#FFFFFF;stop-opacity:0.2"/>
</linearGradient>
<path class="st4" d="M330.1,109.8c-29.4-15.5-65.7-4.2-81.2,25.2c-12.5,23.8-7.7,53.1,11.8,71.6c6.7-2.1,13.5-3.6,20.5-4.5
	L330.1,109.8z"/>
<path class="st5" d="M281,160.9h-8.2v-6.1h8.9c2.5-13.9,11.1-20.2,21.1-20.2c10.6,0,16.2,5.4,18.9,12.2l-7.8,4.4
	c-1.9-5.8-5.3-8.5-11.1-8.5c-6.1,0-10.6,4-12.1,12.1h13.9v6.1H290v1.9c0,1.1,0,2.2,0.1,3.2h14.5v6.2h-13.8
	c1.6,7.6,5.4,11.6,12.1,11.6c5.8,0,9.3-2.6,11.4-9l7.6,4.6c-3.1,7.2-9.5,12.3-19.1,12.3c-10.4,0-18.5-6.1-21.1-19.5h-9v-6.2h8.3
	c-0.1-1-0.1-2-0.1-3L281,160.9L281,160.9z"/>
<linearGradient id="SVGID_3_" gradientUnits="userSpaceOnUse" x1="460.0741" y1="257.1449" x2="211.74" y2="257.1449" gradientTransform="matrix(1 0 0 -1 0 602)">
	<stop  offset="0" style="stop-color:#043263;stop-opacity:0.6"/>
	<stop  offset="1" style="stop-color:#043263;stop-opacity:0"/>
</linearGradient>
<path class="st6" d="M377.7,184.1l-166,321.6H267c1.7,0,3-1.3,3-3l0,0v-21.6c19.8,3.8,40.2,3.8,60,0v21.6c0,1.7,1.3,3,3,3h64.4
	c1.5,0,2.8-1.1,3-2.6l9-62.4c64.5-60.4,67.9-161.6,7.5-226.1C405.5,202.4,392.3,192.1,377.7,184.1L377.7,184.1z"/>
<path class="st7" d="M362.9,226.8c-0.8,0-1.7-0.2-2.4-0.6c-37.6-21.3-83.6-21.3-121.2,0c-2.3,1.3-5.2,0.5-6.5-1.7s-0.5-5.2,1.7-6.5
	c40.5-23,90.2-23,130.7,0c2.3,1.3,3.1,4.2,1.7,6.5C366.1,225.9,364.6,226.8,362.9,226.8z"/>
<path class="st8" d="M268,318.6h64c12.7,0,23,10.3,23,23l0,0c0,12.7-10.3,23-23,23h-64c-12.7,0-23-10.3-23-23l0,0
	C245,328.9,255.3,318.6,268,318.6z"/>
<circle class="st2" cx="320" cy="341.6" r="6"/>
<circle class="st2" cx="280" cy="341.6" r="6"/>
</svg>
