<svg id="Capa_1" data-name="Capa 1" xmlns="http://www.w3.org/2000/svg" xmlns:xlink="http://www.w3.org/1999/xlink" viewBox="0 0 600 600"><defs><style>.cls-1{fill:none;}.cls-2{fill:url(#Degradado_sin_nombre_41);}.cls-3{fill:#2dcccd;}.cls-4{fill:#004481;}.cls-5{fill:url(#Degradado_sin_nombre_87);}.cls-6{fill:#043263;}.cls-7{fill:#49a5e6;}.cls-8{fill:#1464a5;}.cls-9{fill:#ffdf8a;}.cls-10{fill:#ffce44;}.cls-11{fill:#c49735;}.cls-12{fill:url(#Degradado_sin_nombre_7);}.cls-13{fill:url(#Degradado_sin_nombre_7-2);}.cls-14{fill:url(#Degradado_sin_nombre_7-3);}.cls-15{fill:url(#Degradado_sin_nombre_7-4);}.cls-16{fill:url(#Degradado_sin_nombre_7-5);}.cls-17{fill:url(#Degradado_sin_nombre_7-6);}.cls-18{fill:url(#Degradado_sin_nombre_7-7);}.cls-19{fill:url(#Degradado_sin_nombre_7-8);}.cls-20{fill:url(#Degradado_sin_nombre_7-9);}.cls-21{fill:url(#Degradado_sin_nombre_7-10);}.cls-22{fill:url(#Degradado_sin_nombre_7-11);}.cls-23{fill:url(#Degradado_sin_nombre_7-12);}.cls-24{fill:url(#Degradado_sin_nombre_7-13);}.cls-25{fill:url(#Degradado_sin_nombre_7-14);}.cls-26{fill:url(#Degradado_sin_nombre_7-15);}.cls-27{fill:url(#Degradado_sin_nombre_7-16);}.cls-28{fill:url(#Degradado_sin_nombre_7-17);}.cls-29{fill:url(#Degradado_sin_nombre_7-18);}.cls-30{fill:url(#Degradado_sin_nombre_7-19);}.cls-31{fill:url(#Degradado_sin_nombre_7-20);}.cls-32{fill:url(#Degradado_sin_nombre_7-21);}.cls-33{fill:url(#Degradado_sin_nombre_7-22);}.cls-34{fill:url(#Degradado_sin_nombre_7-23);}.cls-35{fill:url(#Degradado_sin_nombre_7-24);}.cls-36{fill:url(#Degradado_sin_nombre_7-25);}.cls-37{fill:url(#Degradado_sin_nombre_7-26);}.cls-38{fill:url(#Degradado_sin_nombre_7-27);}.cls-39{fill:url(#Degradado_sin_nombre_7-28);}.cls-40{fill:url(#Degradado_sin_nombre_7-29);}.cls-41{fill:url(#Degradado_sin_nombre_7-30);}.cls-42{fill:url(#Degradado_sin_nombre_7-31);}.cls-43{fill:url(#Degradado_sin_nombre_7-32);}</style><linearGradient id="Degradado_sin_nombre_41" x1="-3965.77" y1="-1564.43" x2="-3965.18" y2="-1563.55" gradientTransform="translate(1269313.15 630162.86) scale(320 402.7)" gradientUnits="userSpaceOnUse"><stop offset="0" stop-color="#192647" stop-opacity="0.5"/><stop offset="1" stop-color="#192647" stop-opacity="0"/></linearGradient><linearGradient id="Degradado_sin_nombre_87" x1="-3961.54" y1="-1562.93" x2="-3962.54" y2="-1562.93" gradientTransform="translate(984413.83 502978.99) scale(248.38 321.6)" gradientUnits="userSpaceOnUse"><stop offset="0" stop-color="#072146" stop-opacity="0.8"/><stop offset="1" stop-color="#072146" stop-opacity="0"/></linearGradient><linearGradient id="Degradado_sin_nombre_7" x1="224.97" y1="151.39" x2="280.24" y2="206.67" gradientUnits="userSpaceOnUse"><stop offset="0" stop-color="#fff" stop-opacity="0.4"/><stop offset="1" stop-color="#fff" stop-opacity="0.1"/></linearGradient><linearGradient id="Degradado_sin_nombre_7-2" x1="223.66" y1="152.7" x2="278.93" y2="207.98" xlink:href="#Degradado_sin_nombre_7"/><linearGradient id="Degradado_sin_nombre_7-3" x1="222.49" y1="153.87" x2="277.76" y2="209.14" xlink:href="#Degradado_sin_nombre_7"/><linearGradient id="Degradado_sin_nombre_7-4" x1="226.28" y1="150.08" x2="281.55" y2="205.35" xlink:href="#Degradado_sin_nombre_7"/><linearGradient id="Degradado_sin_nombre_7-5" x1="227.84" y1="148.52" x2="283.11" y2="203.79" xlink:href="#Degradado_sin_nombre_7"/><linearGradient id="Degradado_sin_nombre_7-6" x1="282.27" y1="94.09" x2="337.54" y2="149.36" xlink:href="#Degradado_sin_nombre_7"/><linearGradient id="Degradado_sin_nombre_7-7" x1="216.04" y1="160.32" x2="271.31" y2="215.59" xlink:href="#Degradado_sin_nombre_7"/><linearGradient id="Degradado_sin_nombre_7-8" x1="216.34" y1="160.02" x2="271.61" y2="215.29" xlink:href="#Degradado_sin_nombre_7"/><linearGradient id="Degradado_sin_nombre_7-9" x1="221.41" y1="154.95" x2="276.69" y2="210.22" xlink:href="#Degradado_sin_nombre_7"/><linearGradient id="Degradado_sin_nombre_7-10" x1="216.05" y1="160.31" x2="271.32" y2="215.58" xlink:href="#Degradado_sin_nombre_7"/><linearGradient id="Degradado_sin_nombre_7-11" x1="216.15" y1="160.21" x2="271.42" y2="215.48" xlink:href="#Degradado_sin_nombre_7"/><linearGradient id="Degradado_sin_nombre_7-12" x1="217.04" y1="159.32" x2="272.31" y2="214.59" xlink:href="#Degradado_sin_nombre_7"/><linearGradient id="Degradado_sin_nombre_7-13" x1="217.51" y1="158.85" x2="272.78" y2="214.12" xlink:href="#Degradado_sin_nombre_7"/><linearGradient id="Degradado_sin_nombre_7-14" x1="216.63" y1="159.73" x2="271.91" y2="215" xlink:href="#Degradado_sin_nombre_7"/><linearGradient id="Degradado_sin_nombre_7-15" x1="289.68" y1="86.68" x2="344.95" y2="141.95" xlink:href="#Degradado_sin_nombre_7"/><linearGradient id="Degradado_sin_nombre_7-16" x1="220.41" y1="155.95" x2="275.68" y2="211.22" xlink:href="#Degradado_sin_nombre_7"/><linearGradient id="Degradado_sin_nombre_7-17" x1="218.12" y1="158.24" x2="273.39" y2="213.51" xlink:href="#Degradado_sin_nombre_7"/><linearGradient id="Degradado_sin_nombre_7-18" x1="219.56" y1="156.8" x2="274.84" y2="212.07" xlink:href="#Degradado_sin_nombre_7"/><linearGradient id="Degradado_sin_nombre_7-19" x1="218.75" y1="157.61" x2="274.02" y2="212.88" xlink:href="#Degradado_sin_nombre_7"/><linearGradient id="Degradado_sin_nombre_7-20" x1="292.62" y1="83.74" x2="347.89" y2="139.02" xlink:href="#Degradado_sin_nombre_7"/><linearGradient id="Degradado_sin_nombre_7-21" x1="296.12" y1="80.24" x2="351.39" y2="135.51" xlink:href="#Degradado_sin_nombre_7"/><linearGradient id="Degradado_sin_nombre_7-22" x1="297.1" y1="79.26" x2="352.37" y2="134.53" xlink:href="#Degradado_sin_nombre_7"/><linearGradient id="Degradado_sin_nombre_7-23" x1="295.09" y1="81.27" x2="350.36" y2="136.54" xlink:href="#Degradado_sin_nombre_7"/><linearGradient id="Degradado_sin_nombre_7-24" x1="299.46" y1="76.9" x2="354.73" y2="132.17" xlink:href="#Degradado_sin_nombre_7"/><linearGradient id="Degradado_sin_nombre_7-25" x1="293.83" y1="82.53" x2="349.1" y2="137.8" xlink:href="#Degradado_sin_nombre_7"/><linearGradient id="Degradado_sin_nombre_7-26" x1="298.01" y1="78.35" x2="353.28" y2="133.62" xlink:href="#Degradado_sin_nombre_7"/><linearGradient id="Degradado_sin_nombre_7-27" x1="298.77" y1="77.59" x2="354.04" y2="132.87" xlink:href="#Degradado_sin_nombre_7"/><linearGradient id="Degradado_sin_nombre_7-28" x1="291.25" y1="85.11" x2="346.52" y2="140.38" xlink:href="#Degradado_sin_nombre_7"/><linearGradient id="Degradado_sin_nombre_7-29" x1="257.86" y1="118.5" x2="313.13" y2="173.77" xlink:href="#Degradado_sin_nombre_7"/><linearGradient id="Degradado_sin_nombre_7-30" x1="258.09" y1="118.27" x2="313.36" y2="173.54" xlink:href="#Degradado_sin_nombre_7"/><linearGradient id="Degradado_sin_nombre_7-31" x1="258.01" y1="118.35" x2="313.28" y2="173.62" xlink:href="#Degradado_sin_nombre_7"/><linearGradient id="Degradado_sin_nombre_7-32" x1="258.04" y1="118.32" x2="313.31" y2="173.59" xlink:href="#Degradado_sin_nombre_7"/></defs><rect class="cls-1" width="600" height="600"/><path id="Path" class="cls-2" d="M508.9,365.5v-1.4c0-1.3-.1-2.5-.2-3.8a5.28,5.28,0,0,0-.1-1.3c-.1-1.6-.3-3.3-.4-4.9a1.7,1.7,0,0,0-.1-.7c-.1-1.4-.3-2.8-.5-4.3-.1-.5-.1-1-.2-1.4l-.6-3.9-.2-1.1-.9-4.8c-.1-.3-.1-.6-.2-.9l-.9-3.9c-.1-.4-.2-.9-.3-1.3-.3-1.4-.7-2.8-1.1-4.1-.1-.2-.1-.4-.2-.6-.4-1.6-.9-3.1-1.4-4.7-.1-.3-.2-.6-.3-1-.4-1.3-.8-2.5-1.3-3.8l-.4-1.1c-1.1-3.1-2.3-6.1-3.6-9.1l-.4-.9c-.5-1.3-1.1-2.5-1.7-3.8l-.4-.8c-1.4-2.9-2.8-5.7-4.4-8.5a42.67,42.67,0,0,0,19.8-36V213.1a3,3,0,0,0-3-3H461.6A42.58,42.58,0,0,0,425.5,230a156.07,156.07,0,0,0-16-7.6,67.65,67.65,0,0,0,1.4-12.7,60,60,0,1,0-120-.2,62.88,62.88,0,0,0,1.1,11.4,173.62,173.62,0,0,0-19.6,9A42.58,42.58,0,0,0,236.3,210H192a3,3,0,0,0-3,3v44.3a42.67,42.67,0,0,0,19.8,36,160.06,160.06,0,0,0,30.9,193.9l9,62.4a3,3,0,0,0,3,2.6H316a3,3,0,0,0,3-3V527.7a163.55,163.55,0,0,0,60,0v21.6a3,3,0,0,0,3,3h64.4a3,3,0,0,0,3-2.6l9-62.4A159.47,159.47,0,0,0,509,370.5C509,368.8,509,367.2,508.9,365.5Z"/><path class="cls-3" d="M142,160.5h44.3A42.68,42.68,0,0,1,229,203.2v45.5a1.79,1.79,0,0,1-1.8,1.8H181.7A42.68,42.68,0,0,1,139,207.8V163.5A3,3,0,0,1,142,160.5Z"/><path class="cls-3" d="M416.3,250.5H370.8a1.79,1.79,0,0,1-1.8-1.8V203.2a42.68,42.68,0,0,1,42.7-42.7H456a3,3,0,0,1,3,3h0v44.3A42.68,42.68,0,0,1,416.3,250.5Z"/><path class="cls-4" d="M459,320.9A160,160,0,1,0,189.7,437.7l9,62.4a3,3,0,0,0,3,2.6H266a3,3,0,0,0,3-3V478.1a159.32,159.32,0,0,0,60,0v21.6a3,3,0,0,0,3,3h64.4a3,3,0,0,0,3-2.6l9-62.4A159.47,159.47,0,0,0,459,320.9Z"/><path class="cls-5" d="M376.7,181.1l-166,321.6H266a3,3,0,0,0,3-3h0V478.1a159.32,159.32,0,0,0,60,0v21.6a3,3,0,0,0,3,3h64.4a3,3,0,0,0,3-2.6l9-62.4c64.5-60.4,67.9-161.6,7.5-226.1a156.73,156.73,0,0,0-39.2-30.5Z"/><path class="cls-6" d="M361.9,223.8a5,5,0,0,1-2.4-.6,122.93,122.93,0,0,0-121.2,0,4.75,4.75,0,0,1-4.8-8.2,132.41,132.41,0,0,1,130.7,0,4.64,4.64,0,0,1,1.7,6.5A4.58,4.58,0,0,1,361.9,223.8Z"/><path class="cls-7" d="M267,315.6h64a23,23,0,0,1,23,23h0a23,23,0,0,1-23,23H267a23,23,0,0,1-23-23h0A23,23,0,0,1,267,315.6Z"/><circle id="Oval" class="cls-8" cx="319" cy="338.6" r="6"/><circle class="cls-8" cx="279" cy="338.6" r="6"/><path class="cls-9" d="M254.85,121.9c1.24-1.49,2.54-2.93,3.91-4.3C257.39,119,256.09,120.41,254.85,121.9Z"/><path class="cls-9" d="M241.36,166.63l0-.42Z"/><path class="cls-9" d="M304.28,99.92l.57,0Z"/><path class="cls-9" d="M245.8,136.83a60.56,60.56,0,0,1,4-7.82A60.56,60.56,0,0,0,245.8,136.83Z"/><path class="cls-9" d="M241.15,163.87c0-.25,0-.5,0-.74C241.12,163.37,241.13,163.62,241.15,163.87Z"/><path class="cls-9" d="M307.51,100.15l.51,0Z"/><path class="cls-9" d="M322,103.41l.73.27Z"/><path class="cls-9" d="M327.3,105.61c.25.12.51.23.76.36C327.81,105.84,327.55,105.73,327.3,105.61Z"/><path class="cls-9" d="M324.73,104.46l.66.29Z"/><path class="cls-9" d="M319.07,102.44l.65.2Z"/><path class="cls-9" d="M313.37,101l.66.14Z"/><path class="cls-9" d="M310.43,100.51l.39,0Z"/><path class="cls-9" d="M316.49,101.72l.49.13Z"/><path class="cls-9" d="M241.81,170c0-.23-.07-.46-.11-.69C241.74,169.52,241.78,169.75,241.81,170Z"/><path class="cls-9" d="M251.7,194.57c-.16-.22-.31-.45-.47-.68C251.39,194.12,251.54,194.35,251.7,194.57Z"/><path class="cls-9" d="M253.24,196.72l-.45-.62Z"/><path class="cls-9" d="M249.9,191.81l-.29-.48Z"/><path class="cls-9" d="M242.31,172.72c0-.2-.07-.4-.11-.6C242.24,172.32,242.27,172.52,242.31,172.72Z"/><path class="cls-9" d="M255.27,199.24c-.18-.2-.36-.41-.53-.62C254.91,198.83,255.09,199,255.27,199.24Z"/><path class="cls-9" d="M248.58,189.55l-.39-.71Z"/><path class="cls-9" d="M259.23,203.51l-.54-.52Z"/><path class="cls-9" d="M243.86,178.59c-.08-.23-.14-.46-.21-.69C243.72,178.13,243.78,178.36,243.86,178.59Z"/><path class="cls-9" d="M243.07,175.87c-.06-.2-.11-.4-.16-.6C243,175.47,243,175.67,243.07,175.87Z"/><path class="cls-9" d="M246,184.21l-.3-.71Z"/><path class="cls-9" d="M247.11,186.72c-.05-.09-.09-.19-.14-.28C247,186.53,247.06,186.63,247.11,186.72Z"/><path class="cls-9" d="M244.86,181.48c-.06-.15-.12-.3-.17-.45C244.74,181.18,244.8,181.33,244.86,181.48Z"/><path class="cls-9" d="M257,201.26l-.6-.66Z"/><path class="cls-9" d="M245.8,136.83A60.23,60.23,0,0,0,241,160.36h0A60.23,60.23,0,0,1,245.8,136.83Z"/><path class="cls-9" d="M352,160.34v0a50.36,50.36,0,0,1-21.44,41.25q5.94,1.45,11.76,3.48a60.32,60.32,0,0,0,19.76-44.72v0A60.51,60.51,0,0,0,330,106.93l-4.74,8.91A50.42,50.42,0,0,1,352,160.34Z"/><path class="cls-10" d="M346.32,160.36a44.84,44.84,0,0,0-23.77-39.52L281,199a132.67,132.67,0,0,1,41.52.93A44.82,44.82,0,0,0,346.32,160.36Z"/><path class="cls-11" d="M349.14,160.35a47.6,47.6,0,0,1-22.43,40.38c1.28.27,2.55.57,3.82.88A50.36,50.36,0,0,0,352,160.36v0a50.42,50.42,0,0,0-26.76-44.5l-1.33,2.51A47.66,47.66,0,0,1,349.14,160.35Z"/><path class="cls-11" d="M346.32,160.36a44.82,44.82,0,0,1-23.79,39.54c1.4.25,2.79.53,4.18.83a47.55,47.55,0,0,0-2.83-82.38l-1.33,2.49A44.84,44.84,0,0,1,346.32,160.36Z"/><path class="cls-12" d="M241.7,169.29c-.13-.88-.24-1.77-.34-2.66C241.46,167.52,241.57,168.41,241.7,169.29Z"/><path class="cls-13" d="M242.2,172.12c-.14-.71-.27-1.42-.39-2.14C241.93,170.7,242.06,171.41,242.2,172.12Z"/><path class="cls-14" d="M242.91,175.27q-.33-1.26-.6-2.55Q242.58,174,242.91,175.27Z"/><path class="cls-15" d="M241.33,166.21c-.08-.77-.14-1.56-.18-2.34C241.19,164.65,241.25,165.44,241.33,166.21Z"/><path class="cls-16" d="M241.11,163.13c-.05-.92-.07-1.84-.07-2.76C241,161.29,241.06,162.21,241.11,163.13Z"/><path class="cls-17" d="M286.39,101.77c1.93-.49,3.9-.9,5.9-1.21C290.29,100.87,288.32,101.28,286.39,101.77Z"/><path class="cls-18" d="M259.23,203.51l.24.24h0Z"/><path class="cls-19" d="M254.74,198.62c-.51-.62-1-1.26-1.5-1.9C253.73,197.36,254.23,198,254.74,198.62Z"/><path class="cls-20" d="M243.65,177.9c-.21-.67-.4-1.35-.58-2C243.25,176.55,243.44,177.23,243.65,177.9Z"/><path class="cls-21" d="M258.69,203c-.56-.56-1.11-1.14-1.65-1.73C257.58,201.85,258.13,202.43,258.69,203Z"/><path class="cls-22" d="M256.44,200.6c-.39-.45-.79-.9-1.17-1.36C255.65,199.7,256.05,200.15,256.44,200.6Z"/><path class="cls-23" d="M251.23,193.89c-.45-.68-.9-1.37-1.33-2.08C250.33,192.52,250.78,193.21,251.23,193.89Z"/><path class="cls-24" d="M249.61,191.33c-.35-.59-.69-1.18-1-1.78C248.92,190.15,249.26,190.74,249.61,191.33Z"/><path class="cls-25" d="M252.79,196.1c-.37-.51-.73-1-1.09-1.53C252.06,195.09,252.42,195.59,252.79,196.1Z"/><path class="cls-26" d="M301.5,99.85c.93,0,1.86,0,2.78.07C303.36,99.88,302.43,99.85,301.5,99.85Z"/><path class="cls-27" d="M244.69,181c-.3-.81-.57-1.62-.83-2.44C244.12,179.41,244.39,180.22,244.69,181Z"/><path class="cls-28" d="M248.19,188.84c-.37-.7-.74-1.41-1.08-2.12C247.45,187.43,247.82,188.14,248.19,188.84Z"/><path class="cls-29" d="M245.66,183.5c-.28-.67-.55-1.34-.8-2C245.11,182.16,245.38,182.83,245.66,183.5Z"/><path class="cls-30" d="M247,186.44c-.35-.73-.69-1.48-1-2.23C246.28,185,246.62,185.71,247,186.44Z"/><path class="cls-31" d="M308,100.2c.81.09,1.61.19,2.41.31C309.63,100.39,308.83,100.29,308,100.2Z"/><path class="cls-32" d="M317,101.85c.7.18,1.4.38,2.09.59C318.38,102.23,317.68,102,317,101.85Z"/><path class="cls-33" d="M319.72,102.64c.77.24,1.53.5,2.28.77C321.25,103.14,320.49,102.88,319.72,102.64Z"/><path class="cls-34" d="M314,101.15q1.25.25,2.46.57Q315.27,101.41,314,101.15Z"/><path class="cls-35" d="M330,106.93q-.93-.5-1.89-1c.64.31,1.26.63,1.89,1Z"/><path class="cls-36" d="M310.82,100.56c.86.13,1.7.29,2.55.45C312.52,100.85,311.68,100.69,310.82,100.56Z"/><path class="cls-37" d="M322.73,103.68c.67.25,1.34.51,2,.78C324.07,104.19,323.4,103.93,322.73,103.68Z"/><path class="cls-38" d="M325.39,104.75c.65.27,1.28.56,1.91.86C326.67,105.31,326,105,325.39,104.75Z"/><path class="cls-39" d="M304.85,100c.89,0,1.78.11,2.66.2C306.63,100.06,305.74,100,304.85,100Z"/><path class="cls-9" d="M271.32,200.66a50.39,50.39,0,0,1,30.19-90.73h0a50.12,50.12,0,0,1,23.68,5.91l4.74-8.91c-.63-.33-1.25-.65-1.89-1-.25-.13-.51-.24-.76-.36-.63-.3-1.26-.59-1.91-.86l-.66-.29c-.66-.27-1.33-.53-2-.78l-.73-.27c-.75-.27-1.51-.53-2.28-.77l-.65-.2c-.69-.21-1.39-.41-2.09-.59l-.49-.13q-1.22-.31-2.46-.57l-.66-.14c-.85-.16-1.69-.32-2.55-.45l-.39,0c-.8-.12-1.6-.22-2.41-.31l-.51,0c-.88-.09-1.77-.16-2.66-.2l-.57,0c-.92,0-1.85-.07-2.78-.07a60.78,60.78,0,0,0-9.21.71c-2,.31-4,.72-5.9,1.21a60.57,60.57,0,0,0-27.63,15.83c-1.37,1.37-2.67,2.81-3.91,4.3a62.57,62.57,0,0,0-5,7.11A60.32,60.32,0,0,0,241,160.36h0c0,.92,0,1.84.07,2.76,0,.24,0,.49,0,.74,0,.78.1,1.57.18,2.34l0,.42c.1.89.21,1.78.34,2.66,0,.23.08.46.11.69.12.72.25,1.43.39,2.14,0,.2.07.4.11.6q.27,1.29.6,2.55c.05.2.1.4.16.6.18.68.37,1.36.58,2,.07.23.13.46.21.69.26.82.53,1.63.83,2.44.05.15.11.3.17.45.25.68.52,1.35.8,2l.3.71c.32.75.66,1.5,1,2.23.05.09.09.19.14.28.34.71.71,1.42,1.08,2.12l.39.71c.34.6.68,1.19,1,1.78l.29.48c.43.71.88,1.4,1.33,2.08.16.23.31.46.47.68.36.52.72,1,1.09,1.53l.45.62c.49.64,1,1.28,1.5,1.9.17.21.35.42.53.62.38.46.78.91,1.17,1.36l.6.66c.54.59,1.09,1.17,1.65,1.73l.54.52.25.24Q265.33,201.92,271.32,200.66Z"/><path class="cls-40" d="M271.32,200.66a50.39,50.39,0,0,1,30.19-90.73h0a50.12,50.12,0,0,1,23.68,5.91l4.74-8.91c-.63-.33-1.25-.65-1.89-1-.25-.13-.51-.24-.76-.36-.63-.3-1.26-.59-1.91-.86l-.66-.29c-.66-.27-1.33-.53-2-.78l-.73-.27c-.75-.27-1.51-.53-2.28-.77l-.65-.2c-.69-.21-1.39-.41-2.09-.59l-.49-.13q-1.22-.31-2.46-.57l-.66-.14c-.85-.16-1.69-.32-2.55-.45l-.39,0c-.8-.12-1.6-.22-2.41-.31l-.51,0c-.88-.09-1.77-.16-2.66-.2l-.57,0c-.92,0-1.85-.07-2.78-.07a60.78,60.78,0,0,0-9.21.71c-2,.31-4,.72-5.9,1.21a60.57,60.57,0,0,0-27.63,15.83c-1.37,1.37-2.67,2.81-3.91,4.3a62.57,62.57,0,0,0-5,7.11A60.32,60.32,0,0,0,241,160.36h0c0,.92,0,1.84.07,2.76,0,.24,0,.49,0,.74,0,.78.1,1.57.18,2.34l0,.42c.1.89.21,1.78.34,2.66,0,.23.08.46.11.69.12.72.25,1.43.39,2.14,0,.2.07.4.11.6q.27,1.29.6,2.55c.05.2.1.4.16.6.18.68.37,1.36.58,2,.07.23.13.46.21.69.26.82.53,1.63.83,2.44.05.15.11.3.17.45.25.68.52,1.35.8,2l.3.71c.32.75.66,1.5,1,2.23.05.09.09.19.14.28.34.71.71,1.42,1.08,2.12l.39.71c.34.6.68,1.19,1,1.78l.29.48c.43.71.88,1.4,1.33,2.08.16.23.31.46.47.68.36.52.72,1,1.09,1.53l.45.62c.49.64,1,1.28,1.5,1.9.17.21.35.42.53.62.38.46.78.91,1.17,1.36l.6.66c.54.59,1.09,1.17,1.65,1.73l.54.52.25.24Q265.33,201.92,271.32,200.66Z"/><path class="cls-10" d="M322.55,120.84a44.46,44.46,0,0,0-21-5.26h0a44.75,44.75,0,0,0-22.16,83.63L281,199Z"/><path class="cls-41" d="M322.55,120.84a44.46,44.46,0,0,0-21-5.26h0a44.75,44.75,0,0,0-22.16,83.63L281,199Z"/><path class="cls-11" d="M253.94,160.36a47.57,47.57,0,0,1,69.94-42l1.33-2.51a50.12,50.12,0,0,0-23.68-5.91h0a50.39,50.39,0,0,0-30.19,90.73c1.26-.27,2.52-.52,3.79-.75A47.6,47.6,0,0,1,253.94,160.36Z"/><path class="cls-42" d="M253.94,160.36a47.57,47.57,0,0,1,69.94-42l1.33-2.51a50.12,50.12,0,0,0-23.68-5.91h0a50.39,50.39,0,0,0-30.19,90.73c1.26-.27,2.52-.52,3.79-.75A47.6,47.6,0,0,1,253.94,160.36Z"/><path class="cls-11" d="M256.77,160.36a44.89,44.89,0,0,1,44.74-44.78h0a44.46,44.46,0,0,1,21,5.26l1.33-2.49a47.57,47.57,0,0,0-48.77,81.56c1.41-.26,2.82-.49,4.24-.7A44.78,44.78,0,0,1,256.77,160.36Z"/><path class="cls-43" d="M256.77,160.36a44.89,44.89,0,0,1,44.74-44.78h0a44.46,44.46,0,0,1,21,5.26l1.33-2.49a47.57,47.57,0,0,0-48.77,81.56c1.41-.26,2.82-.49,4.24-.7A44.78,44.78,0,0,1,256.77,160.36Z"/></svg>