<svg xmlns="http://www.w3.org/2000/svg" xmlns:xlink="http://www.w3.org/1999/xlink" viewBox="0 0 600 600"><defs><style>.cls-1{fill:none;}.cls-2{fill:url(#Degradado_sin_nombre_202);}.cls-3{fill:#2dcccd;}.cls-4{fill:#004481;}.cls-5{fill:#da3951;}.cls-6{fill:#fff;}.cls-7{fill:url(#Degradado_sin_nombre_87);}.cls-8{fill:#072146;}.cls-9{fill:#49a5e6;}.cls-10{fill:#1464a5;}</style><linearGradient id="Degradado_sin_nombre_202" x1="-875.45" y1="-5351.66" x2="-874.87" y2="-5350.78" gradientTransform="translate(280410.69 2155283.77) scale(320 402.7)" gradientUnits="userSpaceOnUse"><stop offset="0" stop-color="#192647" stop-opacity="0.5"/><stop offset="1" stop-color="#192647" stop-opacity="0"/></linearGradient><linearGradient id="Degradado_sin_nombre_87" x1="-874.02" y1="-5347.78" x2="-875.02" y2="-5347.78" gradientTransform="translate(217546.36 1720188.76) scale(248.38 321.6)" gradientUnits="userSpaceOnUse"><stop offset="0" stop-color="#072146" stop-opacity="0.8"/><stop offset="1" stop-color="#072146" stop-opacity="0"/></linearGradient></defs><title>13</title><g id="Cuadrados_Blancos" data-name="Cuadrados Blancos"><rect class="cls-1" width="600" height="600"/></g><g id="Capa_68" data-name="Capa 68"><path id="Path" class="cls-2" d="M508.9,365.5v-1.4c0-1.3-.1-2.5-.2-3.8a5.28,5.28,0,0,0-.1-1.3c-.1-1.6-.3-3.3-.4-4.9a1.7,1.7,0,0,0-.1-.7c-.1-1.4-.3-2.8-.5-4.3-.1-.5-.1-1-.2-1.4l-.6-3.9-.2-1.1-.9-4.8c-.1-.3-.1-.6-.2-.9l-.9-3.9c-.1-.4-.2-.9-.3-1.3-.3-1.4-.7-2.8-1.1-4.1-.1-.2-.1-.4-.2-.6-.4-1.6-.9-3.1-1.4-4.7-.1-.3-.2-.6-.3-1-.4-1.3-.8-2.5-1.3-3.8l-.4-1.1c-1.1-3.1-2.3-6.1-3.6-9.1l-.4-.9c-.5-1.3-1.1-2.5-1.7-3.8l-.4-.8c-1.4-2.9-2.8-5.7-4.4-8.5a42.67,42.67,0,0,0,19.8-36V213.1a3,3,0,0,0-3-3H461.6A42.58,42.58,0,0,0,425.5,230a156.07,156.07,0,0,0-16-7.6,67.65,67.65,0,0,0,1.4-12.7,60,60,0,1,0-120-.2,62.88,62.88,0,0,0,1.1,11.4,173.62,173.62,0,0,0-19.6,9A42.58,42.58,0,0,0,236.3,210H192a3,3,0,0,0-3,3v44.3a42.67,42.67,0,0,0,19.8,36,160.06,160.06,0,0,0,30.9,193.9l9,62.4a3,3,0,0,0,3,2.6H316a3,3,0,0,0,3-3V527.7a163.55,163.55,0,0,0,60,0v21.6a3,3,0,0,0,3,3h64.4a3,3,0,0,0,3-2.6l9-62.4A159.47,159.47,0,0,0,509,370.5C509,368.8,509,367.2,508.9,365.5Z"/><path class="cls-3" d="M142,160.5h44.3A42.68,42.68,0,0,1,229,203.2v45.5a1.79,1.79,0,0,1-1.8,1.8H181.7A42.68,42.68,0,0,1,139,207.8V163.5A3,3,0,0,1,142,160.5Z"/><path class="cls-3" d="M416.3,250.5H370.8a1.79,1.79,0,0,1-1.8-1.8V203.2a42.68,42.68,0,0,1,42.7-42.7H456a3,3,0,0,1,3,3h0v44.3A42.68,42.68,0,0,1,416.3,250.5Z"/><path class="cls-4" d="M459,320.9A160,160,0,1,0,189.7,437.7l9,62.4a3,3,0,0,0,3,2.6H266a3,3,0,0,0,3-3V478.1a159.32,159.32,0,0,0,60,0v21.6a3,3,0,0,0,3,3h64.4a3,3,0,0,0,3-2.6l9-62.4A159.47,159.47,0,0,0,459,320.9Z"/><path class="cls-5" d="M341.1,204.7a60.05,60.05,0,1,0-84.8-4.6,30.6,30.6,0,0,0,3.6,3.6A134.75,134.75,0,0,1,341.1,204.7Z"/><path class="cls-6" d="M323.35,175.86,308.29,160.8l15.06-15.06a5.07,5.07,0,0,0-7.17-7.18l-15.06,15.18-15.06-15.06a5.08,5.08,0,0,0-7.18,7.18l15.06,15.06L279,175.86a5,5,0,0,0-1.29,4.82,5.07,5.07,0,0,0,3.53,3.53,4.83,4.83,0,0,0,4.82-1.29l15.06-15.06L316.18,183a5.08,5.08,0,0,0,7.17-7.18Z"/><path class="cls-7" d="M376.7,181.1l-166,321.6H266a3,3,0,0,0,3-3h0V478.1a159.32,159.32,0,0,0,60,0v21.6a3,3,0,0,0,3,3h64.4a3,3,0,0,0,3-2.6l9-62.4c64.5-60.4,67.9-161.6,7.5-226.1a156.73,156.73,0,0,0-39.2-30.5Z"/><path class="cls-8" d="M361.9,223.8a5,5,0,0,1-2.4-.6,122.93,122.93,0,0,0-121.2,0,4.75,4.75,0,0,1-4.8-8.2,132.41,132.41,0,0,1,130.7,0,4.64,4.64,0,0,1,1.7,6.5A4.58,4.58,0,0,1,361.9,223.8Z"/><path class="cls-9" d="M267,315.6h64a23,23,0,0,1,23,23h0a23,23,0,0,1-23,23H267a23,23,0,0,1-23-23h0A23,23,0,0,1,267,315.6Z"/><circle id="Oval" class="cls-10" cx="319" cy="338.6" r="6"/><circle class="cls-10" cx="279" cy="338.6" r="6"/></g></svg>