<svg xmlns="http://www.w3.org/2000/svg" xmlns:xlink="http://www.w3.org/1999/xlink" viewBox="0 0 600 600"><defs><style>.cls-1{fill:none;}.cls-2{fill:url(#Degradado_sin_nombre_86);}.cls-3{fill:#52a5df;}.cls-4{fill:#043263;}.cls-5{clip-path:url(#clip-path);}.cls-11,.cls-6{opacity:0.5;isolation:isolate;}.cls-6{fill:url(#Degradado_sin_nombre_92);}.cls-7{fill:#fff;}.cls-8{fill:#20669f;}.cls-9{fill:#0b3460;}.cls-10{fill:#39cbcb;}.cls-11{fill:url(#Degradado_sin_nombre_89);}</style><linearGradient id="Degradado_sin_nombre_86" x1="280.33" y1="-192.11" x2="453.74" y2="-518.24" gradientTransform="matrix(1, 0, 0, -1, 0, -18)" gradientUnits="userSpaceOnUse"><stop offset="0" stop-color="#192647" stop-opacity="0.5"/><stop offset="1" stop-color="#192647" stop-opacity="0"/></linearGradient><clipPath id="clip-path"><path class="cls-1" d="M449.65,301.83A159.75,159.75,0,1,1,289.89,142.09,159.75,159.75,0,0,1,449.65,301.83"/></clipPath><linearGradient id="Degradado_sin_nombre_92" x1="159.36" y1="1973.2" x2="346.34" y2="2160.18" gradientTransform="translate(0 -1798)" gradientUnits="userSpaceOnUse"><stop offset="0" stop-color="#fff" stop-opacity="0.5"/><stop offset="1" stop-color="#ebf6f7" stop-opacity="0"/></linearGradient><linearGradient id="Degradado_sin_nombre_89" x1="365.85" y1="-155.62" x2="433.75" y2="-223.51" gradientTransform="matrix(1, 0, 0, -1, 0, -18)" gradientUnits="userSpaceOnUse"><stop offset="0" stop-color="#eaf9fa" stop-opacity="0.5"/><stop offset="1" stop-color="#e9f8f9" stop-opacity="0"/></linearGradient></defs><title>18</title><g id="Cuadrados_Blancos" data-name="Cuadrados Blancos"><rect class="cls-1" width="600" height="600"/></g><g id="Capa_12" data-name="Capa 12"><path class="cls-2" d="M545.37,237.34a74.09,74.09,0,0,0-124.84-54A183.69,183.69,0,0,0,342,165.77c-101.84,0-184.69,82.86-184.69,184.71S240.13,535.19,342,535.19s184.72-82.86,184.72-184.71a184.1,184.1,0,0,0-8.6-55.71A73.93,73.93,0,0,0,545.37,237.34Z"/><circle class="cls-3" cx="289.91" cy="301.83" r="159"/><path class="cls-4" d="M289.91,118.24c-101.23,0-183.59,82.36-183.59,183.59s82.36,183.6,183.59,183.6S473.5,403.07,473.5,301.83,391.14,118.24,289.91,118.24Zm0,342.59c-87.68,0-159-71.33-159-159s71.33-159,159-159,159,71.33,159,159S377.56,460.83,289.91,460.83Z"/><g class="cls-5"><path class="cls-1" d="M369.41,163.23,209.75,440A159.76,159.76,0,0,0,369.41,163.23Z"/><path class="cls-6" d="M289.91,142.09A159.74,159.74,0,0,0,209.75,440L369.41,163.23A159,159,0,0,0,289.91,142.09Z"/></g><circle class="cls-7" cx="289.91" cy="172.49" r="7.54"/><circle class="cls-7" cx="289.91" cy="431.16" r="7.54"/><circle class="cls-7" cx="419.24" cy="301.83" r="7.54"/><circle class="cls-7" cx="162.83" cy="301.83" r="7.54"/><circle class="cls-7" cx="225.24" cy="189.79" r="7.54"/><circle class="cls-7" cx="354.58" cy="413.87" r="7.54"/><circle class="cls-7" cx="401.94" cy="237.16" r="7.54"/><circle class="cls-7" cx="177.87" cy="366.5" r="7.54"/><circle class="cls-7" cx="177.87" cy="237.16" r="7.54"/><circle class="cls-7" cx="401.94" cy="366.5" r="7.54"/><circle class="cls-7" cx="354.58" cy="189.79" r="7.54"/><circle class="cls-7" cx="225.24" cy="413.87" r="7.54"/><polygon class="cls-8" points="303.19 319.69 276.47 318.71 275.81 194.95 303.19 212.49 303.19 319.69"/><path class="cls-9" d="M348.27,327.73a13.71,13.71,0,0,1-11,25.08l-52.71-23.2a13.7,13.7,0,0,1,11-25.07Z"/><path class="cls-10" d="M493.68,189a74.12,74.12,0,1,1-74.12-74.12h0a74.11,74.11,0,0,1,74.11,74.11h0"/><path class="cls-7" d="M462.21,208.54l-24.15,20.7v-13.8H396.68l13.79-13.79h27.59V187.89Zm-82.78-34.49,24.13-20.69v13.8H445L431.17,181H403.56v13.8Z"/><path class="cls-11" d="M454.44,123.54a74.12,74.12,0,1,0-70.63,130.33l1,.55Z"/></g></svg>