<svg id="Contenido" xmlns="http://www.w3.org/2000/svg" xmlns:xlink="http://www.w3.org/1999/xlink" viewBox="0 0 600 600"><defs><style>.cls-1{fill:url(#Degradado_sin_nombre_5);}.cls-2{fill:#49a5e6;}.cls-3{fill:url(#Degradado_sin_nombre_18);}.cls-4{fill:#043263;}.cls-5{fill:#2dcccd;}.cls-6{fill:#028484;}.cls-7{fill:url(#Degradado_sin_nombre_21);}.cls-8{fill:#004481;}.cls-9{fill:#f8cd51;}.cls-10{fill:url(#Degradado_sin_nombre_6);}.cls-11{fill:url(#Degradado_sin_nombre_13);}.cls-12{fill:none;}</style><linearGradient id="Degradado_sin_nombre_5" x1="274.18" y1="221.24" x2="426.19" y2="519.56" gradientUnits="userSpaceOnUse"><stop offset="0" stop-color="#072146" stop-opacity="0.49"/><stop offset="1" stop-color="#072146" stop-opacity="0"/></linearGradient><linearGradient id="Degradado_sin_nombre_18" x1="434.44" y1="242.97" x2="386.23" y2="242.97" gradientUnits="userSpaceOnUse"><stop offset="0" stop-color="#192647"/><stop offset="0" stop-color="#072146" stop-opacity="0.8"/><stop offset="1" stop-color="#072146" stop-opacity="0"/></linearGradient><linearGradient id="Degradado_sin_nombre_21" x1="366.54" y1="368.98" x2="264.63" y2="368.98" gradientUnits="userSpaceOnUse"><stop offset="0" stop-color="#192647"/><stop offset="0" stop-color="#072146" stop-opacity="0.4"/><stop offset="1" stop-color="#072146" stop-opacity="0.05"/></linearGradient><linearGradient id="Degradado_sin_nombre_6" x1="399.77" y1="84.89" x2="412.77" y2="97.88" gradientUnits="userSpaceOnUse"><stop offset="0" stop-color="#fff" stop-opacity="0.6"/><stop offset="1" stop-color="#fff" stop-opacity="0.1"/></linearGradient><linearGradient id="Degradado_sin_nombre_13" x1="456.1" y1="352.71" x2="419.74" y2="352.71" gradientUnits="userSpaceOnUse"><stop offset="0" stop-color="#192647"/><stop offset="0" stop-color="#072146" stop-opacity="0.3"/><stop offset="1" stop-color="#072146" stop-opacity="0"/></linearGradient></defs><path class="cls-1" d="M542.31,417.26a52.65,52.65,0,0,0-48.9-31l-16.92-67.86-.79.2a3,3,0,0,0,2.19-3.64l-5.37-21.54a3,3,0,0,0-3.64-2.18l.8-.2-.74-3a3,3,0,0,0-3.64-2.19l-1.12.28-31.9-127.95,17.24-3.67a14,14,0,1,0-3-13.31l-25.12,5.34h0a7,7,0,0,0-5.43,8.57l33.58,134.67-1.13.28a3,3,0,0,0-2.18,3.63l.74,3,.81-.2a3,3,0,0,0-2.19,3.63l5.37,21.54a3,3,0,0,0,3.64,2.19l-.79.19,6.09,24.41-51.58,63.7H241.66a44.76,44.76,0,0,1-8.13-7.8,54.94,54.94,0,0,0-93.29,12.88,3,3,0,0,0,1.72,4L152.22,425a40.95,40.95,0,0,0,75.52,31.44h159.7A29,29,0,0,0,408,447.91a9.44,9.44,0,0,0,1.33-1.35l57.33-70.79,4,16.09a52.63,52.63,0,0,0-27.05,61.34,3,3,0,0,0,3.92,2l8-2.93a40.95,40.95,0,1,0,76.94-28l8-2.93A3,3,0,0,0,542.31,417.26Z"/><polygon class="cls-2" points="413.42 101 377.62 108.61 371.36 95.98 410.58 87.64 413.42 101"/><rect class="cls-2" x="183.46" y="361.6" width="183.07" height="14.77"/><path class="cls-2" d="M434.44,316.83l-14.68,3.66L365.93,104.56a7,7,0,0,1,6.81-8.72h6.6Z"/><polygon class="cls-3" points="434.44 316.83 396.7 165.46 386.23 186 419.76 320.49 434.44 316.83"/><rect class="cls-4" x="397.83" y="242.89" width="27.78" height="28.2" rx="3" transform="translate(-49.94 107.24) rotate(-14)"/><path class="cls-5" d="M398.86,237.31H416.3a3,3,0,0,1,3,3v3.08a0,0,0,0,1,0,0H395.86a0,0,0,0,1,0,0v-3.08A3,3,0,0,1,398.86,237.31Z" transform="translate(-46.04 105.74) rotate(-14)"/><path class="cls-6" d="M441.22,335.77a52.66,52.66,0,0,0-47.58,66.87,3,3,0,0,0,3.92,2l93-33.89a3,3,0,0,0,1.73-4A52.66,52.66,0,0,0,441.22,335.77Z"/><path class="cls-6" d="M220.24,371a47.08,47.08,0,0,1-36.71-17.14,54.93,54.93,0,0,0-93.29,12.87,3,3,0,0,0,1.72,4c16.36,6,96.65,35.67,96.8,35.22h59.61V371Z"/><circle class="cls-5" cx="140.74" cy="388.33" r="40.95"/><circle class="cls-5" cx="444.31" cy="388.33" r="40.95"/><circle class="cls-4" cx="444.31" cy="388.33" r="17.55"/><polygon class="cls-7" points="366.54 361.6 272.16 361.6 264.63 376.36 366.54 376.36 366.54 361.6"/><path class="cls-8" d="M140.74,370.78H360.54a6,6,0,0,1,6,6v0a29.1,29.1,0,0,1-29.1,29.1H140.74a17.55,17.55,0,0,1-17.55-17.55v0a17.55,17.55,0,0,1,17.55-17.55Z"/><path class="cls-8" d="M331.85,338.34H442.72a0,0,0,0,1,0,0v22.47a0,0,0,0,1,0,0H331.85a9.6,9.6,0,0,1-9.6-9.6v-3.26a9.6,9.6,0,0,1,9.6-9.6Z" transform="translate(-129.89 426.83) rotate(-51)"/><path class="cls-2" d="M419.48,268.7h23.4a0,0,0,0,1,0,0V389.64a11.7,11.7,0,0,1-11.7,11.7h0a11.7,11.7,0,0,1-11.7-11.7V268.7a0,0,0,0,1,0,0Z" transform="translate(-68.24 114.26) rotate(-14)"/><circle class="cls-9" cx="409.94" cy="94.57" r="14.04"/><path class="cls-10" d="M409.94,80.53a14,14,0,0,0-6.37,26.54l12.74-25A14,14,0,0,0,409.94,80.53Z"/><path class="cls-11" d="M435.93,305.7l-16.19,31.78L433,390.85a11.7,11.7,0,1,0,22.71-5.67Z"/><rect class="cls-12" width="600" height="600"/></svg>