<?xml version="1.0" encoding="utf-8"?>
<!-- Generator: Adobe Illustrator 23.0.3, SVG Export Plug-In . SVG Version: 6.00 Build 0)  -->
<svg version="1.1" id="Contenido" xmlns="http://www.w3.org/2000/svg" xmlns:xlink="http://www.w3.org/1999/xlink" x="0px" y="0px"
	 viewBox="0 0 600 600" style="enable-background:new 0 0 600 600;" xml:space="preserve">
<style type="text/css">
	.st0{fill:url(#SVGID_1_);}
	.st1{fill:#004481;}
	.st2{fill:#49A5E6;}
	.st3{fill:#1464A5;}
	.st4{opacity:0.5;fill:url(#SVGID_2_);enable-background:new    ;}
	.st5{fill:#2DCCCD;}
	.st6{fill:#BAE6E8;}
	.st7{fill:none;}
	.st8{fill:url(#SVGID_3_);}
	.st9{fill:#02A5A5;}
	.st10{fill:#5AC4C4;}
</style>
<linearGradient id="SVGID_1_" gradientUnits="userSpaceOnUse" x1="240.5902" y1="199.3896" x2="384.9438" y2="470.8792">
	<stop  offset="0" style="stop-color:#192647"/>
	<stop  offset="0" style="stop-color:#192647;stop-opacity:0.5"/>
	<stop  offset="1" style="stop-color:#192647;stop-opacity:0"/>
</linearGradient>
<path class="st0" d="M450.4,212.1l0-60.2l0.1-0.1l-9.4-9.3l-9.3,9.3l-9.4-9.3l-9.3,9.3l-9.4-9.3l-9.3,9.3l-9.3-9.3l-9.3,9.3
	l-9.3-9.3l-9.4,9.3h-0.5l-9.3-9.3l-9.3,9.3H338V166c-62,7.3-110.1,60-110.1,124c0,39.2,18.1,74.2,46.3,97.1l-74.8,129.6
	c-1.4-0.8-3.3-0.3-4.1,1.1l-9.9,17.2c-0.9,1.4-0.4,3.3,1.1,4.2l32.1,18.5c1.4,0.8,3.3,0.3,4.1-1.1l9.9-17.2c0.8-1.4,0.3-3.2-1-4
	L306.4,406c14.4,5.8,30,8.9,46.5,8.9c69-0.1,124.9-56,124.9-124.9C477.7,260.5,467.5,233.4,450.4,212.1z M288,363.3
	c0.2,0.1,0.3,0.3,0.5,0.4c0.2,0.2,0.4,0.4,0.6,0.5C288.7,363.9,288.4,363.6,288,363.3z"/>
<title>_</title>
<g>
	<path class="st1" d="M139.9,484.8l91.3-158.1l0,0l32.3,18.6l0,0l-91.3,158.1c-0.8,1.4-2.7,1.9-4.1,1.1L141,488.9
		C139.5,488.1,139.1,486.2,139.9,484.8z"/>
	<path class="st2" d="M402.2,239.2c0,54.1-43.8,97.9-97.9,97.9s-97.9-43.8-97.9-97.9s43.8-97.9,97.9-97.9l0,0
		C358.3,141.3,402.2,185.1,402.2,239.2L402.2,239.2"/>
	<path class="st3" d="M304.2,364.2c-69,0-124.9-55.9-124.9-124.9s55.9-124.9,124.9-124.9s124.9,55.9,124.9,124.9
		C429.1,308.2,373.2,364.1,304.2,364.2z M304.2,141.3c-54.1,0-97.9,43.8-97.9,97.9s43.8,97.9,97.9,97.9s97.9-43.8,97.9-97.9l0,0
		C402.1,185.1,358.3,141.3,304.2,141.3z"/>
	
		<linearGradient id="SVGID_2_" gradientUnits="userSpaceOnUse" x1="224.2402" y1="583.6398" x2="338.8202" y2="698.2198" gradientTransform="matrix(1 0 0 1 0 -422)">
		<stop  offset="0" style="stop-color:#FFFFFF;stop-opacity:0.5"/>
		<stop  offset="1" style="stop-color:#E8F7F8;stop-opacity:0.2"/>
		<stop  offset="1" style="stop-color:#FFFFFF;stop-opacity:0"/>
	</linearGradient>
	<path class="st4" d="M353,154.3c-46.8-27-106.7-11-133.7,35.9s-11,106.7,35.9,133.7L353,154.3z"/>
	<path class="st5" d="M136.8,484.3l9.9-17.2c0.8-1.4,2.7-1.9,4.1-1.1l32.1,18.6c1.4,0.8,1.9,2.7,1.1,4.1l-9.9,17.2
		c-0.8,1.4-2.7,1.9-4.1,1.1l-32.1-18.5C136.4,487.6,135.9,485.7,136.8,484.3z"/>
	<path class="st6" d="M392.5,91.8l-9.3,9.3l-9.4-9.3l-9.3,9.3l-9.4-9.3l-9.3,9.3l-9.3-9.3l-9.3,9.3l-9.3-9.3l-9.4,9.3h-0.5l-9.3-9.3
		l-9.3,9.3h-0.3v42.1c4.1-0.6,8.3-1,12.6-1.1v43h83.4c3.2,4.7,5.9,9.6,8.3,14.8l8.1,31.5l0.1-130.2l0.1-0.1L392.5,91.8z"/>
	<g>
		<path class="st7" d="M402.1,239.2c0-2.9-0.1-5.7-0.4-8.5v17C402,244.9,402.1,242.1,402.1,239.2z"/>
		<path class="st7" d="M236,238.4c0-8.8,7.2-15.9,15.9-15.9h37.3v-80c-47,7.2-83,47.7-83,96.8c0,27.6,11.4,52.5,29.8,70.3L236,238.4
			z"/>
		<path class="st6" d="M289.4,222.4v-23.2h15.1c-0.3-0.6-0.5-1.2-0.5-1.8c0-2.2,1.8-4,4-4h40.9c2.2,0,4,1.8,4,4
			c0,0.7-0.2,1.3-0.5,1.8h41.3c-2.7-6.1-6.1-11.8-9.9-17.2c-0.7,0.9-1.8,1.4-3,1.4H308c-2.2,0-4-1.8-4-4c0-2.2,1.8-4,4-4h70.6
			c-3-3.5-6.3-6.8-9.8-9.9h-60.5c-2.2,0-4-1.8-4-4c0-2.2,1.8-4,4-4h50.1c-6-4-12.4-7.3-19.3-9.9H308c-2.2,0-4-1.8-4-4
			c0-0.9,0.3-1.8,0.9-2.4c-0.2,0-0.4,0-0.6,0c-5.1,0-10.1,0.4-14.9,1.1L289.4,222.4L289.4,222.4z"/>
		<path class="st6" d="M401.8,247.7v-17c0-0.2,0-0.4-0.1-0.6l0,18.1C401.7,248,401.7,247.9,401.8,247.7z"/>
		<path class="st6" d="M348.8,201.3H308c-1.5,0-2.8-0.9-3.5-2.1h-15.1v23.2h72.4c-7.3,0-13.2,6-13.5,13.2v10.7h0.1v80.3
			c0,0,0.1,0,0.1-0.1v-90.7c0-7.4,6-13.3,13.2-13.2c7.4-0.1,13.3,5.9,13.3,13.2v71c14.8-15.5,24.5-35.9,26.6-58.6l0-18.1
			c-1-10.9-3.8-21.4-8.1-31h-41.3C351.7,200.4,350.4,201.3,348.8,201.3z"/>
		
			<linearGradient id="SVGID_3_" gradientUnits="userSpaceOnUse" x1="14.2523" y1="-62.8741" x2="140.6288" y2="-62.8741" gradientTransform="matrix(6.123234e-17 -1 -1 -6.123234e-17 282.68 342.7999)">
			<stop  offset="0" style="stop-color:#028484"/>
			<stop  offset="1" style="stop-color:#028484;stop-opacity:0"/>
		</linearGradient>
		<path class="st8" d="M348.8,201.3H308c-1.5,0-2.8-0.9-3.5-2.1h-15.1v23.2h72.4c-7.3,0-13.2,6-13.5,13.2v10.7h0.1v80.3
			c0,0,0.1,0,0.1-0.1v-90.7c0-7.4,6-13.3,13.2-13.2c7.4-0.1,13.3,5.9,13.3,13.2v71c14.8-15.5,24.5-35.9,26.6-58.6l0-18.1
			c0-11.1,0-20.8,0-31h-49.4C351.7,200.4,350.4,201.3,348.8,201.3z"/>
		<path class="st9" d="M361.8,222.6c-7.3-0.1-13.2,5.9-13.2,13.2v90.7c10-5.1,18.9-11.8,26.6-19.8v-71
			C375.1,228.4,369.2,222.5,361.8,222.6z"/>
		<path class="st6" d="M348.3,246.4v-10.7c0.3-7.3,6.2-13.2,13.5-13.2h-72.4h-0.1H252c-8.8,0-15.9,7.2-15.9,15.9l0.1,71.2
			c5.8,5.6,12.3,10.5,19.3,14.6c0.1,0,0.2,0,0.2,0h41c2.2,0,4,1.8,4,4c0,2.2-1.8,4-4,4h-23.7c9.8,3.3,20.3,5.1,31.3,5.1
			c15.9,0,30.9-3.8,44.2-10.5v-80.3H348.3z M255.7,252.7h72.7c2.2,0,4,1.8,4,4c0,2.2-1.8,4-4,4h-72.7c-2.2,0-4-1.8-4-4
			C251.7,254.4,253.5,252.7,255.7,252.7z M255.7,270.5H299c2.2,0,4,1.8,4,4c0,2.2-1.8,4-4,4h-43.3c-2.2,0-4-1.8-4-4
			C251.7,272.2,253.5,270.5,255.7,270.5z M299,314.1h-43.3c-2.2,0-4-1.8-4-4c0-2.2,1.8-4,4-4H299c2.2,0,4,1.8,4,4
			C302.9,312.3,301.1,314.1,299,314.1z"/>
		<path class="st10" d="M308,201.3h40.9c1.5,0,2.8-0.9,3.5-2.1c0.3-0.6,0.5-1.2,0.5-1.8c0-2.2-1.8-4-4-4H308c-2.2,0-4,1.8-4,4
			c0,0.7,0.2,1.3,0.5,1.8C305.1,200.4,306.4,201.3,308,201.3z"/>
		<path class="st10" d="M255.7,260.6h72.7c2.2,0,4-1.8,4-4c0-2.2-1.8-4-4-4h-72.7c-2.2,0-4,1.8-4,4
			C251.7,258.8,253.5,260.6,255.7,260.6z"/>
		<path class="st10" d="M255.7,278.4H299c2.2,0,4-1.8,4-4c0-2.2-1.8-4-4-4h-43.3c-2.2,0-4,1.8-4,4
			C251.7,276.6,253.5,278.4,255.7,278.4z"/>
		<path class="st10" d="M302.9,310.1c0-2.2-1.8-4-4-4h-43.3c-2.2,0-4,1.8-4,4c0,2.2,1.8,4,4,4H299
			C301.1,314.1,302.9,312.3,302.9,310.1z"/>
		<path class="st10" d="M296.6,332c2.2,0,4-1.8,4-4c0-2.2-1.8-4-4-4h-41c-0.1,0-0.2,0-0.2,0c5.5,3.2,11.4,5.8,17.5,7.9H296.6z"/>
	</g>
	<path class="st10" d="M308,122.8h72.7c2.2,0,4,1.8,4,4s-1.8,4-4,4H308c-2.2,0-4-1.8-4-4S305.8,122.8,308,122.8z"/>
	<path class="st10" d="M308,140.2h72.7c2.2,0,4,1.8,4,4s-1.8,4-4,4H308c-2.2,0-4-1.8-4-4S305.8,140.2,308,140.2z"/>
	<path class="st10" d="M308,157.9h72.7c2.2,0,4,1.8,4,4s-1.8,4-4,4H308c-2.2,0-4-1.8-4-4S305.8,157.9,308,157.9z"/>
	<path class="st10" d="M308,175.8h72.7c2.2,0,4,1.8,4,4s-1.8,4-4,4H308c-2.2,0-4-1.8-4-4S305.8,175.8,308,175.8z"/>
</g>
</svg>
