<svg xmlns="http://www.w3.org/2000/svg" xmlns:xlink="http://www.w3.org/1999/xlink" viewBox="0 0 600 600"><defs><style>.cls-1{fill:none;}.cls-2{fill:url(#Degradado_sin_nombre_107);}.cls-3{fill:#004481;}.cls-4{fill:#2dcccd;}.cls-5{fill:#043263;}.cls-6{fill:#49a5e6;}.cls-7{opacity:0.5;isolation:isolate;fill:url(#Degradado_sin_nombre_2);}</style><linearGradient id="Degradado_sin_nombre_107" x1="214.68" y1="133.27" x2="403.18" y2="487.79" gradientUnits="userSpaceOnUse"><stop offset="0" stop-color="#192647" stop-opacity="0.5"/><stop offset="1" stop-color="#192647" stop-opacity="0"/></linearGradient><linearGradient id="Degradado_sin_nombre_2" x1="231.15" y1="-1058.83" x2="366.78" y2="-1194.46" gradientTransform="matrix(1, 0, 0, -1, 0, -934)" gradientUnits="userSpaceOnUse"><stop offset="0" stop-color="#fff" stop-opacity="0.5"/><stop offset="1" stop-color="#e8f7f8" stop-opacity="0.2"/><stop offset="1" stop-color="#fff" stop-opacity="0"/></linearGradient></defs><title>1</title><g id="Cuadrados_Blancos" data-name="Cuadrados Blancos"><rect class="cls-1" width="600" height="600"/></g><g id="Capa_1" data-name="Capa 1"><path class="cls-2" d="M377.69,118.2c-80.7,0-146.4,65.7-146.4,146.4A146.18,146.18,0,0,0,285,377.83L197,530.56l-.28-.16a3,3,0,0,0-4.2,1.1l-12.2,21.2a3.18,3.18,0,0,0,1.1,4.2l38.8,22.3a3,3,0,0,0,4.2-1.1l12.2-21.2a3,3,0,0,0-.77-4L323.69,400.7l.05-.09a145.32,145.32,0,0,0,53.95,10.29c80.7,0,146.4-65.7,146.4-146.4S458.39,118.2,377.69,118.2Z"/><circle class="cls-1" cx="325.69" cy="216.6" r="115.8" transform="translate(-57.77 293.74) rotate(-45)"/><path class="cls-3" d="M271.39,352a147.25,147.25,0,0,1-37.6-22.2l-.5-.4L131.69,505.6a3.64,3.64,0,0,0-.4,2.7,3.36,3.36,0,0,0,1.6,2.1l32.7,18.9a4.14,4.14,0,0,0,1.9.5,2.77,2.77,0,0,0,.9-.1,3.59,3.59,0,0,0,2.1-1.7l101.2-175.3.3-.5Z"/><path class="cls-4" d="M128.29,504.7l12.2-21.2a3,3,0,0,1,4.2-1.1l38.8,22.3a3,3,0,0,1,1.1,4.2l-12.2,21.2a3,3,0,0,1-4.2,1.1l-38.8-22.3A3.18,3.18,0,0,1,128.29,504.7Z"/><path class="cls-5" d="M325.69,70.2c-80.7,0-146.4,65.7-146.4,146.4a146.33,146.33,0,0,0,146.4,146.3c80.7,0,146.4-65.7,146.4-146.4S406.39,70.2,325.69,70.2Zm0,262.2a115.93,115.93,0,0,1-115.8-115.8c0-63.8,52-115.8,115.8-115.8a115.8,115.8,0,1,1,0,231.6Z"/><circle class="cls-6" cx="325.69" cy="216.6" r="115.8" transform="translate(-57.77 293.74) rotate(-45)"/><path class="cls-7" d="M325.82,100.8a115.88,115.88,0,0,0-58.05,216.12l115.7-200.73A115.84,115.84,0,0,0,325.82,100.8Z"/></g></svg>