<svg xmlns="http://www.w3.org/2000/svg" xmlns:xlink="http://www.w3.org/1999/xlink" viewBox="0 0 600 600"><defs><style>.cls-1{fill:none;}.cls-2{fill:url(#Degradado_sin_nombre_114);}.cls-3{fill:#004481;}.cls-4{fill:#2dcccd;}.cls-5{fill:#49a5e6;}.cls-6{fill:#043263;}.cls-7{fill:#02a5a5;}.cls-8{fill:#bae6e8;}.cls-9{fill:url(#Degradado_sin_nombre_4);}.cls-10{fill:#5ac4c4;}</style><linearGradient id="Degradado_sin_nombre_114" x1="245.9" y1="157.4" x2="415.68" y2="476.72" gradientUnits="userSpaceOnUse"><stop offset="0" stop-color="#192647" stop-opacity="0.5"/><stop offset="1" stop-color="#192647" stop-opacity="0"/></linearGradient><linearGradient id="Degradado_sin_nombre_4" x1="-855.6" y1="433.39" x2="-706.43" y2="433.39" gradientTransform="translate(-59.32 -533.2) rotate(-90)" gradientUnits="userSpaceOnUse"><stop offset="0" stop-color="#028484"/><stop offset="1" stop-color="#028484" stop-opacity="0"/></linearGradient></defs><title>1</title><g id="Cuadrados_Blancos" data-name="Cuadrados Blancos"><rect class="cls-1" width="600" height="600"/></g><g id="Capa_4" data-name="Capa 4"><path class="cls-2" d="M492.74,173l.05-71.2.12-.12-10.86-11-11,11L460,90.71l-11,11-11.1-11-11,11-11-11-11,11-11-11-11.1,11h-.59l-11-11-11,11H360v17.15c-72.15,9-128.2,70.73-128.2,145.27a146.18,146.18,0,0,0,53.75,113.23L197.47,530.06l-.28-.16A3,3,0,0,0,193,531l-12.2,21.2a3.18,3.18,0,0,0,1.1,4.2l38.8,22.3a3,3,0,0,0,4.2-1.1l12.2-21.2a3,3,0,0,0-.77-4L324.19,400.2l.05-.09a145.32,145.32,0,0,0,53.95,10.29c80.7,0,146.4-65.7,146.4-146.4A145.52,145.52,0,0,0,492.74,173Z"/><circle class="cls-1" cx="325.69" cy="216.6" r="115.8" transform="translate(-57.77 293.74) rotate(-45)"/><path class="cls-3" d="M271.39,352a147.25,147.25,0,0,1-37.6-22.2l-.5-.4L131.69,505.6a3.64,3.64,0,0,0-.4,2.7,3.36,3.36,0,0,0,1.6,2.1l32.7,18.9a4.14,4.14,0,0,0,1.9.5,2.77,2.77,0,0,0,.9-.1,3.59,3.59,0,0,0,2.1-1.7l101.2-175.3.3-.5Z"/><path class="cls-4" d="M128.29,504.7l12.2-21.2a3,3,0,0,1,4.2-1.1l38.8,22.3a3,3,0,0,1,1.1,4.2l-12.2,21.2a3,3,0,0,1-4.2,1.1l-38.8-22.3A3.18,3.18,0,0,1,128.29,504.7Z"/><circle class="cls-5" cx="325.69" cy="216.6" r="115.8" transform="translate(-57.77 293.74) rotate(-45)"/><path class="cls-6" d="M325.69,70.2c-80.7,0-146.4,65.7-146.4,146.4a146.33,146.33,0,0,0,146.4,146.3c80.7,0,146.4-65.7,146.4-146.4S406.39,70.2,325.69,70.2Zm0,262.2a115.93,115.93,0,0,1-115.8-115.8c0-63.8,52-115.8,115.8-115.8a115.8,115.8,0,1,1,0,231.6Z"/><path class="cls-7" d="M393.31,197.34a15.48,15.48,0,0,0-15.58,15.58V320a117.73,117.73,0,0,0,31.4-23.38V212.8A15.59,15.59,0,0,0,393.31,197.34Z"/><path class="cls-8" d="M307.85,197.22H263.7A18.82,18.82,0,0,0,244.93,216l.12,84.05a120.63,120.63,0,0,0,22.78,17.23h48.63a4.72,4.72,0,1,1,0,9.44h-28a116.18,116.18,0,0,0,89.12-6.37V212.92A15.6,15.6,0,0,1,382.05,202l.18-.19c.14-.14.29-.26.43-.39s.45-.43.69-.62a13,13,0,0,1,1-.78l.13-.1a15.23,15.23,0,0,1,8.66-2.57,15.51,15.51,0,0,1,15.7,15.58v83.81a115.27,115.27,0,0,0,31.4-69.17V206.19c0-.34-.08-.68-.11-1L440.29,54l.12-.12-10.86-11-11,11-11.09-11-11,11-11.1-11-11,11-11-11-11,11-11-11-11.1,11h-.59l-11-11-11,11h-.36v49.69l.36,0V197.1m74.43-27.5H382a4.2,4.2,0,0,1-4,2.6H329.8a4.79,4.79,0,0,1-4.72-4.61,4.74,4.74,0,0,1,4.72-4.72h48.28a4.74,4.74,0,0,1,4.72,4.72A4.13,4.13,0,0,1,382.28,169.6Zm-63.1,135.75H268.07a4.72,4.72,0,1,1,0-9.44h51.11a4.73,4.73,0,0,1,4.72,4.72A4.9,4.9,0,0,1,319.18,305.35Zm0-42H268.07a4.74,4.74,0,0,1-4.72-4.73,4.66,4.66,0,0,1,4.72-4.72h51.11a4.73,4.73,0,0,1,0,9.45Zm34.7-21H268.07a4.73,4.73,0,0,1-4.72-4.72,4.66,4.66,0,0,1,4.72-4.72h85.81a4.72,4.72,0,1,1,0,9.44Z"/><path class="cls-9" d="M378,172.2H329.8a4.89,4.89,0,0,1-4.13-2.48H307.85V197.1h85.46a16.2,16.2,0,0,0-15.94,15.59v12.63h.12V320.1s.12,0,.12-.11V212.92a15.64,15.64,0,0,1,31.28,0v83.81a115.27,115.27,0,0,0,31.4-69.17v-58H382A4.2,4.2,0,0,1,378,172.2Z"/><path class="cls-10" d="M329.8,172.2h48.28a4.87,4.87,0,0,0,4.13-2.48,4.6,4.6,0,0,0-4.13-6.85H329.8a4.74,4.74,0,0,0-4.72,4.72,4.12,4.12,0,0,0,.59,2.13A4.6,4.6,0,0,0,329.8,172.2Z"/><path class="cls-10" d="M268.07,242.2h85.81a4.73,4.73,0,1,0,0-9.45H268.07a4.73,4.73,0,0,0,0,9.45Z"/><path class="cls-10" d="M268.07,263.21h51.11a4.73,4.73,0,0,0,0-9.45H268.07a4.73,4.73,0,0,0,0,9.45Z"/><path class="cls-10" d="M323.78,300.63a4.73,4.73,0,0,0-4.72-4.72H268a4.72,4.72,0,1,0,0,9.44h51.23A4.71,4.71,0,0,0,323.78,300.63Z"/><path class="cls-10" d="M316.35,326.48a4.72,4.72,0,1,0,0-9.44H267.71a117.26,117.26,0,0,0,20.66,9.32h28Z"/><path class="cls-10" d="M329.8,79.53h85.82a4.73,4.73,0,0,1,0,9.45H329.8a4.73,4.73,0,0,1,0-9.45Z"/><path class="cls-10" d="M329.8,100.07h85.82a4.73,4.73,0,0,1,0,9.45H329.8a4.73,4.73,0,0,1,0-9.45Z"/><path class="cls-10" d="M329.8,121h85.82a4.72,4.72,0,0,1,0,9.44H329.8a4.72,4.72,0,0,1,0-9.44Z"/><path class="cls-10" d="M329.8,142.1h85.82a4.72,4.72,0,0,1,0,9.44H329.8a4.72,4.72,0,0,1,0-9.44Z"/></g></svg>