<svg xmlns="http://www.w3.org/2000/svg" xmlns:xlink="http://www.w3.org/1999/xlink" viewBox="0 0 600 600"><defs><style>.cls-1{fill:none;}.cls-2{fill:url(#Degradado_sin_nombre_110);}.cls-3{fill:#004481;}.cls-4{fill:#2dcccd;}.cls-5{fill:#043263;}.cls-6{opacity:0.5;isolation:isolate;fill:url(#Degradado_sin_nombre_2);}</style><linearGradient id="Degradado_sin_nombre_110" x1="214.68" y1="133.27" x2="403.18" y2="487.79" gradientUnits="userSpaceOnUse"><stop offset="0" stop-color="#192647" stop-opacity="0.5"/><stop offset="1" stop-color="#192647" stop-opacity="0"/></linearGradient><linearGradient id="Degradado_sin_nombre_2" x1="241.82" y1="135.53" x2="345.81" y2="239.52" gradientUnits="userSpaceOnUse"><stop offset="0" stop-color="#fff" stop-opacity="0.5"/><stop offset="1" stop-color="#e8f7f8" stop-opacity="0.2"/><stop offset="1" stop-color="#fff" stop-opacity="0"/></linearGradient></defs><title>1</title><g id="Cuadrados_Blancos" data-name="Cuadrados Blancos"><rect class="cls-1" width="600" height="600"/></g><g id="Capa_1" data-name="Capa 1"><path class="cls-2" d="M377.69,118.2c-80.7,0-146.4,65.7-146.4,146.4A146.18,146.18,0,0,0,285,377.83L197,530.56l-.28-.16a3,3,0,0,0-4.2,1.1l-12.2,21.2a3.18,3.18,0,0,0,1.1,4.2l38.8,22.3a3,3,0,0,0,4.2-1.1l12.2-21.2a3,3,0,0,0-.77-4L323.69,400.7l.05-.09a145.32,145.32,0,0,0,53.95,10.29c80.7,0,146.4-65.7,146.4-146.4S458.39,118.2,377.69,118.2Z"/><circle class="cls-1" cx="325.69" cy="216.6" r="115.8" transform="translate(-57.77 293.74) rotate(-45)"/><path class="cls-3" d="M271.39,352a147.25,147.25,0,0,1-37.6-22.2l-.5-.4L131.69,505.6a3.64,3.64,0,0,0-.4,2.7,3.36,3.36,0,0,0,1.6,2.1l32.7,18.9a4.14,4.14,0,0,0,1.9.5,2.77,2.77,0,0,0,.9-.1,3.59,3.59,0,0,0,2.1-1.7l101.2-175.3.3-.5Z"/><path class="cls-4" d="M128.29,504.7l12.2-21.2a3,3,0,0,1,4.2-1.1l38.8,22.3a3,3,0,0,1,1.1,4.2l-12.2,21.2a3,3,0,0,1-4.2,1.1l-38.8-22.3A3.18,3.18,0,0,1,128.29,504.7Z"/><path class="cls-5" d="M325.69,70.2c-80.7,0-146.4,65.7-146.4,146.4a146.33,146.33,0,0,0,146.4,146.3c80.7,0,146.4-65.7,146.4-146.4S406.39,70.2,325.69,70.2Zm0,262.2a115.93,115.93,0,0,1-115.8-115.8c0-63.8,52-115.8,115.8-115.8a115.8,115.8,0,1,1,0,231.6Z"/><circle class="cls-3" cx="325.69" cy="216.6" r="116.6" transform="translate(-57.77 293.74) rotate(-45)"/><path class="cls-4" d="M215.94,176.11h.4c.09-.22.17-.43.25-.65Z"/><polygon class="cls-4" points="261.55 172.94 261.55 157.4 258.94 154.94 255.22 158.68 255.22 172.94 258.24 175.96 261.55 172.94"/><polygon class="cls-4" points="261.55 148.99 261.55 134.71 258.54 131.69 255.22 134.71 255.22 150.25 257.83 152.7 261.55 148.99"/><polygon class="cls-4" points="336.8 221.11 336.8 235.38 339.81 238.4 343.14 235.38 343.14 219.84 340.51 217.39 336.8 221.11"/><polygon class="cls-4" points="336.8 197.16 336.8 212.69 339.43 215.15 343.14 211.43 343.14 197.16 340.13 194.14 336.8 197.16"/><polygon class="cls-4" points="415.53 221.11 415.53 235.38 418.55 238.4 421.88 235.38 421.88 219.84 419.25 217.39 415.53 221.11"/><polygon class="cls-4" points="415.53 197.16 415.53 212.69 418.15 215.15 421.88 211.43 421.88 197.16 418.86 194.14 415.53 197.16"/><path class="cls-4" d="M217.75,256.58l-1.25,1.09c1.25,3.33,2.67,6.6,4.22,9.8V259.6Z"/><path class="cls-4" d="M237.11,279.84l-3.76,3.75v4.24q3,3.9,6.35,7.51v-13Z"/><polygon class="cls-4" points="233.39 259.6 233.39 275.13 236.01 277.6 239.73 273.86 239.73 259.6 236.72 256.58 233.39 259.6"/><polygon class="cls-4" points="252.36 283.56 252.36 297.82 255.38 300.83 258.71 297.82 258.71 282.29 256.08 279.84 252.36 283.56"/><polygon class="cls-4" points="252.36 259.6 252.36 275.13 254.98 277.6 258.71 273.86 258.71 259.6 255.69 256.58 252.36 259.6"/><polygon class="cls-4" points="362.12 235.38 362.12 219.84 359.49 217.39 355.77 221.11 355.77 235.38 358.78 238.4 362.12 235.38"/><polygon class="cls-4" points="362.12 211.43 362.12 197.16 359.1 194.14 355.77 197.16 355.77 212.69 358.38 215.15 362.12 211.43"/><polygon class="cls-4" points="362.12 172.94 362.12 157.4 359.49 154.94 355.77 158.68 355.77 172.94 358.78 175.96 362.12 172.94"/><polygon class="cls-4" points="362.12 148.99 362.12 134.71 359.1 131.69 355.77 134.71 355.77 150.25 358.38 152.7 362.12 148.99"/><polygon class="cls-4" points="381.09 172.94 381.09 157.4 378.46 154.94 374.74 158.68 374.74 172.94 377.75 175.96 381.09 172.94"/><polygon class="cls-4" points="381.09 148.99 381.09 134.71 378.07 131.69 374.74 134.71 374.74 150.25 377.37 152.7 381.09 148.99"/><path class="cls-4" d="M240,152l2.61-2.51V134.94c-2.2,2.24-4.32,4.58-6.33,7v6.4Z"/><path class="cls-4" d="M234.64,169.77H222.29l-5.66,5.69c-.08.22-.17.43-.25.65H241Z"/><polygon class="cls-4" points="236.25 159.52 236.25 168.07 242.58 174.42 242.58 158.24 239.97 155.78 236.25 159.52"/><path class="cls-4" d="M220.77,165.78q-1,2.1-2,4.24l2-2Z"/><polygon class="cls-4" points="234.72 200.49 241.07 194.14 216.01 194.14 222.36 200.49 234.72 200.49"/><polygon class="cls-4" points="220.77 210.74 220.77 202.19 214.42 195.84 214.42 212.01 217.04 214.46 220.77 210.74"/><polygon class="cls-4" points="236.25 210.74 239.97 214.46 242.58 212.01 242.58 195.84 236.25 202.19 236.25 210.74"/><polygon class="cls-4" points="222.29 232.2 215.94 238.55 240.99 238.55 234.65 232.2 222.29 232.2"/><polygon class="cls-4" points="236.25 221.95 236.25 230.51 242.58 236.85 242.58 220.68 239.97 218.23 236.25 221.95"/><polygon class="cls-4" points="220.77 221.95 217.04 218.23 214.42 220.68 214.42 236.85 220.77 230.51 220.77 221.95"/><polygon class="cls-4" points="291.63 262.93 297.98 256.58 272.92 256.58 279.27 262.93 291.63 262.93"/><polygon class="cls-4" points="277.67 273.19 277.67 264.62 271.33 258.29 271.33 274.45 273.95 276.91 277.67 273.19"/><polygon class="cls-4" points="293.16 273.19 296.88 276.91 299.49 274.45 299.49 258.29 293.16 264.62 293.16 273.19"/><polygon class="cls-4" points="279.2 294.65 272.85 301 297.9 301 291.56 294.65 279.2 294.65"/><polygon class="cls-4" points="293.16 284.39 293.16 292.95 299.49 299.3 299.49 283.13 296.88 280.68 293.16 284.39"/><polygon class="cls-4" points="277.67 284.39 273.95 280.68 271.33 283.13 271.33 299.3 277.67 292.95 277.67 284.39"/><polygon class="cls-4" points="332.3 262.93 338.64 256.58 313.59 256.58 319.93 262.93 332.3 262.93"/><polygon class="cls-4" points="318.34 273.19 318.34 264.62 311.99 258.29 311.99 274.45 314.62 276.91 318.34 273.19"/><polygon class="cls-4" points="333.82 273.19 337.54 276.91 340.17 274.45 340.17 258.29 333.82 264.62 333.82 273.19"/><polygon class="cls-4" points="319.86 294.65 313.52 301 338.56 301 332.23 294.65 319.86 294.65"/><polygon class="cls-4" points="333.82 284.39 333.82 292.95 340.17 299.3 340.17 283.13 337.54 280.68 333.82 284.39"/><polygon class="cls-4" points="318.34 284.39 314.62 280.68 311.99 283.13 311.99 299.3 318.34 292.95 318.34 284.39"/><polygon class="cls-4" points="373.1 262.93 379.43 256.58 354.39 256.58 360.73 262.93 373.1 262.93"/><polygon class="cls-4" points="359.13 273.19 359.13 264.62 352.79 258.29 352.79 274.45 355.42 276.91 359.13 273.19"/><polygon class="cls-4" points="374.61 273.19 378.33 276.91 380.96 274.45 380.96 258.29 374.61 264.62 374.61 273.19"/><polygon class="cls-4" points="360.65 294.65 354.31 301 379.36 301 373.02 294.65 360.65 294.65"/><polygon class="cls-4" points="374.61 284.39 374.61 292.95 380.96 299.3 380.96 283.13 378.33 280.68 374.61 284.39"/><polygon class="cls-4" points="359.13 284.39 355.42 280.68 352.79 283.13 352.79 299.3 359.13 292.95 359.13 284.39"/><polygon class="cls-4" points="395.17 256.58 401.52 262.93 413.88 262.93 420.23 256.58 395.17 256.58"/><polygon class="cls-4" points="393.58 274.45 396.2 276.91 399.93 273.19 399.93 264.62 393.58 258.29 393.58 274.45"/><polygon class="cls-4" points="415.41 273.19 419.13 276.91 421.74 274.45 421.74 258.29 415.41 264.62 415.41 273.19"/><path class="cls-4" d="M395.1,301h11q3.19-3.06,6.16-6.35H401.45Z"/><path class="cls-4" d="M419.13,280.68l-3.76,3.75V291q3.22-3.9,6.14-8.07Z"/><polygon class="cls-4" points="393.58 283.13 393.58 299.3 399.93 292.95 399.93 284.39 396.2 280.68 393.58 283.13"/><polygon class="cls-4" points="263.16 200.49 275.51 200.49 281.86 194.14 256.81 194.14 263.16 200.49"/><polygon class="cls-4" points="261.55 210.74 261.55 202.19 255.22 195.84 255.22 212.01 257.83 214.46 261.55 210.74"/><polygon class="cls-4" points="283.38 195.84 277.03 202.19 277.03 210.74 280.76 214.46 283.38 212.01 283.38 195.84"/><polygon class="cls-4" points="281.79 238.55 275.44 232.2 263.08 232.2 256.73 238.55 281.79 238.55"/><polygon class="cls-4" points="277.03 221.95 277.03 230.51 283.38 236.85 283.38 220.68 280.76 218.23 277.03 221.95"/><polygon class="cls-4" points="261.55 221.95 257.83 218.23 255.22 220.68 255.22 236.85 261.55 230.51 261.55 221.95"/><polygon class="cls-4" points="297.6 194.14 303.94 200.49 316.31 200.49 322.66 194.14 297.6 194.14"/><polygon class="cls-4" points="302.35 202.19 296 195.84 296 212.01 298.63 214.46 302.35 210.74 302.35 202.19"/><polygon class="cls-4" points="317.83 210.74 321.56 214.46 324.18 212.01 324.18 195.84 317.83 202.19 317.83 210.74"/><polygon class="cls-4" points="316.24 232.2 303.86 232.2 297.53 238.55 322.58 238.55 316.24 232.2"/><polygon class="cls-4" points="324.18 220.68 321.56 218.23 317.83 221.95 317.83 230.51 324.18 236.85 324.18 220.68"/><polygon class="cls-4" points="296 220.68 296 236.85 302.35 230.51 302.35 221.95 298.63 218.23 296 220.68"/><polygon class="cls-4" points="401.38 194.14 376.34 194.14 382.68 200.49 395.05 200.49 401.38 194.14"/><polygon class="cls-4" points="381.09 210.74 381.09 202.19 374.74 195.84 374.74 212.01 377.37 214.46 381.09 210.74"/><polygon class="cls-4" points="402.91 195.84 396.56 202.19 396.56 210.74 400.28 214.46 402.91 212.01 402.91 195.84"/><polygon class="cls-4" points="401.31 238.55 394.97 232.2 382.6 232.2 376.26 238.55 401.31 238.55"/><polygon class="cls-4" points="402.91 220.68 400.28 218.23 396.56 221.95 396.56 230.51 402.91 236.85 402.91 220.68"/><polygon class="cls-4" points="381.09 221.95 377.37 218.23 374.74 220.68 374.74 236.85 381.09 230.51 381.09 221.95"/><polygon class="cls-4" points="294.49 138.04 300.83 131.69 275.78 131.69 282.13 138.04 294.49 138.04"/><polygon class="cls-4" points="280.52 148.3 280.52 139.74 274.19 133.4 274.19 149.57 276.81 152.03 280.52 148.3"/><polygon class="cls-4" points="296 148.3 299.73 152.03 302.35 149.57 302.35 133.4 296 139.74 296 148.3"/><polygon class="cls-4" points="282.05 169.77 275.7 176.11 300.76 176.11 294.41 169.77 282.05 169.77"/><polygon class="cls-4" points="296 159.52 296 168.07 302.35 174.42 302.35 158.24 299.73 155.78 296 159.52"/><polygon class="cls-4" points="280.52 159.52 276.81 155.78 274.19 158.24 274.19 174.42 280.52 168.07 280.52 159.52"/><polygon class="cls-4" points="335.28 138.04 341.62 131.69 316.57 131.69 322.91 138.04 335.28 138.04"/><polygon class="cls-4" points="321.32 148.3 321.32 139.74 314.97 133.4 314.97 149.57 317.6 152.03 321.32 148.3"/><polygon class="cls-4" points="336.8 148.3 340.51 152.03 343.14 149.57 343.14 133.4 336.8 139.74 336.8 148.3"/><polygon class="cls-4" points="335.21 169.77 322.83 169.77 316.5 176.11 341.54 176.11 335.21 169.77"/><polygon class="cls-4" points="336.8 159.52 336.8 168.07 343.14 174.42 343.14 158.24 340.51 155.78 336.8 159.52"/><polygon class="cls-4" points="321.32 159.52 317.6 155.78 314.97 158.24 314.97 174.42 321.32 168.07 321.32 159.52"/><path class="cls-4" d="M401.65,138h10.1q-3-3.28-6.26-6.35H395.3Z"/><polygon class="cls-4" points="400.06 148.3 400.06 139.74 393.71 133.4 393.71 149.57 396.32 152.03 400.06 148.3"/><path class="cls-4" d="M419.25,152l2.11-2q-2.78-4-5.83-7.67v5.91Z"/><polygon class="cls-4" points="420.28 176.11 413.94 169.77 401.57 169.77 395.22 176.11 420.28 176.11"/><polygon class="cls-4" points="421.88 158.24 419.25 155.78 415.53 159.52 415.53 168.07 421.88 174.42 421.88 158.24"/><polygon class="cls-4" points="400.06 159.52 396.32 155.78 393.71 158.24 393.71 174.42 400.06 168.07 400.06 159.52"/><path class="cls-6" d="M384.09,115.66A116.62,116.62,0,1,0,267.6,317.73Z"/></g></svg>