<svg id="Capa_1" data-name="Capa 1" xmlns="http://www.w3.org/2000/svg" xmlns:xlink="http://www.w3.org/1999/xlink" viewBox="0 0 600 600"><defs><style>.cls-1{fill:url(#Degradado_sin_nombre_3);}.cls-2{fill:#004481;}.cls-3{fill:#49a5e6;}.cls-4{fill:#1464a5;}.cls-5{opacity:0.5;fill:url(#Degradado_sin_nombre_7);}.cls-22,.cls-5{isolation:isolate;}.cls-6{fill:#2dcccd;}.cls-7{fill:url(#Degradado_sin_nombre_3-2);}.cls-8{fill:url(#Degradado_sin_nombre_3-3);}.cls-9{fill:url(#Degradado_sin_nombre_3-4);}.cls-10{fill:url(#Degradado_sin_nombre_3-5);}.cls-11{fill:url(#Degradado_sin_nombre_3-6);}.cls-12{fill:#cdeefe;}.cls-13{fill:url(#Degradado_sin_nombre_2);}.cls-14{fill:url(#Degradado_sin_nombre_2-2);}.cls-15{fill:url(#Degradado_sin_nombre_2-3);}.cls-16{fill:url(#Degradado_sin_nombre_2-4);}.cls-17{fill:url(#Degradado_sin_nombre_2-5);}.cls-18{fill:url(#Degradado_sin_nombre_2-6);}.cls-19{fill:url(#Degradado_sin_nombre_2-7);}.cls-20{fill:url(#Degradado_sin_nombre_2-8);}.cls-21{fill:url(#Degradado_sin_nombre_2-11);}.cls-22{fill:#4aa3e3;opacity:0.35;}.cls-23{fill:url(#Degradado_sin_nombre_3-7);}.cls-24{fill:url(#Degradado_sin_nombre_2-12);}.cls-25{fill:url(#Degradado_sin_nombre_3-8);}.cls-26{fill:url(#Degradado_sin_nombre_2-13);}.cls-27{fill:url(#Degradado_sin_nombre_2-14);}.cls-28{fill:url(#Degradado_sin_nombre_2-15);}.cls-29{fill:url(#Degradado_sin_nombre_3-9);}.cls-30{fill:url(#Degradado_sin_nombre_2-16);}.cls-31{fill:url(#Degradado_sin_nombre_3-10);}.cls-32{fill:url(#Degradado_sin_nombre_2-19);}.cls-33{fill:url(#Degradado_sin_nombre_2-22);}</style><linearGradient id="Degradado_sin_nombre_3" x1="228.46" y1="194.6" x2="377.72" y2="475.31" gradientUnits="userSpaceOnUse"><stop offset="0" stop-color="#192647"/><stop offset="0" stop-color="#192647" stop-opacity="0.5"/><stop offset="1" stop-color="#192647" stop-opacity="0"/></linearGradient><linearGradient id="Degradado_sin_nombre_7" x1="224.24" y1="18.36" x2="338.82" y2="-96.22" gradientTransform="matrix(1, 0, 0, -1, 0, 180)" gradientUnits="userSpaceOnUse"><stop offset="0" stop-color="#fff" stop-opacity="0.5"/><stop offset="1" stop-color="#e8f7f8" stop-opacity="0.2"/><stop offset="1" stop-color="#fff" stop-opacity="0"/></linearGradient><linearGradient id="Degradado_sin_nombre_3-2" x1="246.36" y1="152" x2="383.43" y2="409.78" xlink:href="#Degradado_sin_nombre_3"/><linearGradient id="Degradado_sin_nombre_3-3" x1="285.73" y1="131.06" x2="422.79" y2="388.85" xlink:href="#Degradado_sin_nombre_3"/><linearGradient id="Degradado_sin_nombre_3-4" x1="299.7" y1="100.92" x2="463.36" y2="408.73" xlink:href="#Degradado_sin_nombre_3"/><linearGradient id="Degradado_sin_nombre_3-5" x1="269.98" y1="139.44" x2="407.05" y2="397.22" xlink:href="#Degradado_sin_nombre_3"/><linearGradient id="Degradado_sin_nombre_3-6" x1="212.9" y1="169.79" x2="349.96" y2="427.58" xlink:href="#Degradado_sin_nombre_3"/><linearGradient id="Degradado_sin_nombre_2" x1="402.21" y1="444.56" x2="276.56" y2="444.56" gradientTransform="matrix(1, 0, 0, -1, 0, 602)" gradientUnits="userSpaceOnUse"><stop offset="0" stop-color="#003267" stop-opacity="0.1"/><stop offset="1" stop-color="#003267" stop-opacity="0"/></linearGradient><linearGradient id="Degradado_sin_nombre_2-2" x1="402.21" y1="353.96" x2="276.56" y2="353.96" xlink:href="#Degradado_sin_nombre_2"/><linearGradient id="Degradado_sin_nombre_2-3" x1="402.21" y1="297.54" x2="276.56" y2="297.54" xlink:href="#Degradado_sin_nombre_2"/><linearGradient id="Degradado_sin_nombre_2-4" x1="402.21" y1="377.2" x2="276.56" y2="377.2" xlink:href="#Degradado_sin_nombre_2"/><linearGradient id="Degradado_sin_nombre_2-5" x1="402.21" y1="275.72" x2="276.56" y2="275.72" xlink:href="#Degradado_sin_nombre_2"/><linearGradient id="Degradado_sin_nombre_2-6" x1="402.21" y1="325.75" x2="276.56" y2="325.75" xlink:href="#Degradado_sin_nombre_2"/><linearGradient id="Degradado_sin_nombre_2-7" x1="402.21" y1="275.72" x2="276.56" y2="275.72" xlink:href="#Degradado_sin_nombre_2"/><linearGradient id="Degradado_sin_nombre_2-8" x1="402.21" y1="284.4" x2="276.56" y2="284.4" xlink:href="#Degradado_sin_nombre_2"/><linearGradient id="Degradado_sin_nombre_2-11" x1="402.21" y1="366.59" x2="276.56" y2="366.59" xlink:href="#Degradado_sin_nombre_2"/><linearGradient id="Degradado_sin_nombre_3-7" x1="293.6" y1="126.88" x2="430.67" y2="384.66" xlink:href="#Degradado_sin_nombre_3"/><linearGradient id="Degradado_sin_nombre_2-12" x1="402.21" y1="382.17" x2="276.56" y2="382.17" xlink:href="#Degradado_sin_nombre_2"/><linearGradient id="Degradado_sin_nombre_3-8" x1="277.85" y1="135.25" x2="414.92" y2="393.04" xlink:href="#Degradado_sin_nombre_3"/><linearGradient id="Degradado_sin_nombre_2-13" x1="402.21" y1="363.36" x2="276.56" y2="363.36" xlink:href="#Degradado_sin_nombre_2"/><linearGradient id="Degradado_sin_nombre_2-14" x1="402.21" y1="363.35" x2="276.56" y2="363.35" xlink:href="#Degradado_sin_nombre_2"/><linearGradient id="Degradado_sin_nombre_2-15" x1="402.21" y1="363.36" x2="276.56" y2="363.36" xlink:href="#Degradado_sin_nombre_2"/><linearGradient id="Degradado_sin_nombre_3-9" x1="262.11" y1="143.62" x2="399.18" y2="401.41" xlink:href="#Degradado_sin_nombre_3"/><linearGradient id="Degradado_sin_nombre_2-16" x1="402.21" y1="344.56" x2="276.56" y2="344.56" xlink:href="#Degradado_sin_nombre_2"/><linearGradient id="Degradado_sin_nombre_3-10" x1="230.61" y1="160.37" x2="367.68" y2="418.16" xlink:href="#Degradado_sin_nombre_3"/><linearGradient id="Degradado_sin_nombre_2-19" x1="402.21" y1="306.94" x2="276.56" y2="306.94" xlink:href="#Degradado_sin_nombre_2"/><linearGradient id="Degradado_sin_nombre_2-22" x1="402.21" y1="288.14" x2="276.56" y2="288.14" xlink:href="#Degradado_sin_nombre_2"/></defs><title>UFE_Empresas</title><path class="cls-1" d="M426.58,184.42m1.41-2.63-24.64-24.62V157H299.6a1.61,1.61,0,0,0-1.6,1.61v19.7a124.93,124.93,0,0,0-19.39,207.09L203.77,515a3.07,3.07,0,0,0-4.07,1.12l-9.9,17.2a3,3,0,0,0,1.1,4.2L223,556a3.06,3.06,0,0,0,4.1-1.1l9.9-17.2a3.06,3.06,0,0,0-1-4l74.73-129.41a124.52,124.52,0,0,0,46.46,8.93c69-.1,124.9-56,124.9-124.9A124.42,124.42,0,0,0,455,210.61V209h0Z"/><path class="cls-2" d="M139.9,484.8l91.3-158.1h0l32.3,18.6h0L172.2,503.4a3.06,3.06,0,0,1-4.1,1.1L141,488.9A3,3,0,0,1,139.9,484.8Z"/><path class="cls-3" d="M402.2,239.2a97.9,97.9,0,1,1-97.9-97.9h0a97.92,97.92,0,0,1,97.9,97.9h0"/><path class="cls-4" d="M304.2,364.2A124.9,124.9,0,1,1,429.1,239.3C429.1,308.2,373.2,364.1,304.2,364.2Zm0-222.9a97.9,97.9,0,1,0,97.9,97.9h0A97.86,97.86,0,0,0,304.2,141.3Z"/><path class="cls-5" d="M353,154.3a97.89,97.89,0,1,0-97.8,169.6Z"/><path class="cls-6" d="M136.8,484.3l9.9-17.2a3.06,3.06,0,0,1,4.1-1.1l32.1,18.6a3.06,3.06,0,0,1,1.1,4.1l-9.9,17.2A3.06,3.06,0,0,1,170,507l-32.1-18.5A3,3,0,0,1,136.8,484.3Z"/><polygon class="cls-7" points="320.98 260.49 320.97 260.49 303.88 292.01 303.88 292.01 320.98 260.49"/><polygon class="cls-8" points="334.48 235.59 334.48 235.59 341.38 222.88 341.37 222.88 334.48 235.59"/><polygon class="cls-9" points="344.68 216.78 344.69 216.78 360.4 183.82 360.38 183.82 344.68 216.78"/><polygon class="cls-10" points="331.17 241.69 331.17 241.69 324.28 254.39 324.29 254.39 331.17 241.69"/><polygon class="cls-11" points="300.57 298.11 300.57 298.11 280.93 334.31 280.93 334.31 300.57 298.11"/><polygon class="cls-12" points="375.1 156.68 350.35 131.99 375.09 156.71 375.1 156.68"/><path class="cls-12" d="M271.72,216.84a2.51,2.51,0,0,1,.55-.06h72.41L373,160l-20.69-.18h0a1.93,1.93,0,0,1-1.92-1.93V108H246.6a1.61,1.61,0,0,0-1.6,1.61v207.6a97.47,97.47,0,0,0,26.72,14.39,94.83,94.83,0,0,0,9.21,2.73l19.64-36.2h-28.3a2.51,2.51,0,0,1-.55-.06,3,3,0,0,1,0-6,3.31,3.31,0,0,1,.55-.05h31.61L321,260.49h-48.7a3.31,3.31,0,0,1-.55-.05,3,3,0,0,1,0-6,3.31,3.31,0,0,1,.55-.05h52l6.89-12.7h-58.9a3.31,3.31,0,0,1-.55-.05,3,3,0,0,1,0-6,2.51,2.51,0,0,1,.55-.06h62.21l6.89-12.71h-69.1a3.31,3.31,0,0,1-.55,0,3,3,0,0,1,0-6Zm.55-60.5h58a3,3,0,0,1,2.79,1.83,2.93,2.93,0,0,1,.26,1.22,3,3,0,0,1-3,3.05h-58a3.31,3.31,0,0,1-.55-.05,3,3,0,0,1,.55-6Zm-3.18,22a3.06,3.06,0,0,1,2.63-3.14l.29,0h58.22a3.05,3.05,0,1,1,.26,6.1H272.27a3.32,3.32,0,0,1-.55,0A3.06,3.06,0,0,1,269.09,178.35Z"/><polygon class="cls-12" points="376.56 158.17 375.1 156.71 375.1 156.72 376.55 158.17 376.56 158.17"/><polygon class="cls-13" points="376.56 158.17 375.1 156.71 375.1 156.72 376.55 158.17 376.56 158.17"/><polygon class="cls-12" points="365.2 254.39 365.21 254.39 372.09 241.69 372.08 241.69 365.2 254.39"/><polygon class="cls-14" points="365.2 254.39 365.21 254.39 372.09 241.69 372.08 241.69 365.2 254.39"/><polygon class="cls-12" points="334.6 310.81 334.6 310.81 341.49 298.11 341.49 298.11 334.6 310.81"/><polygon class="cls-15" points="334.6 310.81 334.6 310.81 341.49 298.11 341.49 298.11 334.6 310.81"/><polygon class="cls-12" points="387.12 214 387.1 214 375.39 235.6 375.4 235.6 387.12 214"/><polygon class="cls-16" points="387.12 214 387.1 214 375.39 235.6 375.4 235.6 387.12 214"/><polygon class="cls-12" points="331.29 316.91 321.13 335.64 321.13 335.64 331.29 316.91 331.29 316.91"/><polygon class="cls-17" points="331.29 316.91 321.13 335.64 321.13 335.64 331.29 316.91 331.29 316.91"/><polygon class="cls-12" points="344.8 292.01 344.8 292.01 361.9 260.49 361.89 260.49 344.8 292.01"/><polygon class="cls-18" points="344.8 292.01 344.8 292.01 361.9 260.49 361.89 260.49 344.8 292.01"/><path class="cls-12" d="M321.13,335.64a97.36,97.36,0,0,0,42.63-18.73H331.29Z"/><path class="cls-19" d="M321.13,335.64a97.36,97.36,0,0,0,42.63-18.73H331.29Z"/><path class="cls-12" d="M317.35,316.91a3.05,3.05,0,0,1,0-6.1H334.6l6.89-12.7H300.57l-19.64,36.2a98.63,98.63,0,0,0,40.2,1.33l10.16-18.73Z"/><path class="cls-20" d="M317.35,316.91a3.05,3.05,0,0,1,0-6.1H334.6l6.89-12.7H300.57l-19.64,36.2a98.63,98.63,0,0,0,40.2,1.33l10.16-18.73Z"/><polygon class="cls-12" points="303.88 292.01 344.8 292.01 361.89 260.49 320.98 260.49 303.88 292.01"/><polygon class="cls-18" points="303.88 292.01 344.8 292.01 361.89 260.49 320.98 260.49 303.88 292.01"/><polygon class="cls-12" points="365.2 254.39 372.08 241.69 331.17 241.69 324.29 254.39 365.2 254.39"/><polygon class="cls-14" points="365.2 254.39 372.08 241.69 331.17 241.69 324.29 254.39 365.2 254.39"/><path class="cls-12" d="M373,160l-28.31,56.78h30.62a3,3,0,1,1,0,6.1H341.38l-6.9,12.71h40.91L387.1,214h0L375.4,235.6a3,3,0,0,1-.09,6.09h-3.22l-6.88,12.7h10.1a3.05,3.05,0,0,1,0,6.1H361.9L344.8,292h30.51a3.05,3.05,0,0,1,0,6.1H341.49l-6.89,12.7H371A97.63,97.63,0,0,0,402.1,239.2c0-4.57,0-9.77.11-15.36L402,160Z"/><path class="cls-21" d="M373,160l-28.31,56.78h30.62a3,3,0,1,1,0,6.1H341.38l-6.9,12.71h40.91L387.1,214h0L375.4,235.6a3,3,0,0,1-.09,6.09h-3.22l-6.88,12.7h10.1a3.05,3.05,0,0,1,0,6.1H361.9L344.8,292h30.51a3.05,3.05,0,0,1,0,6.1H341.49l-6.89,12.7H371A97.63,97.63,0,0,0,402.1,239.2c0-4.57,0-9.77.11-15.36L402,160Z"/><path class="cls-12" d="M273.32,158.17H333a3,3,0,0,0-2.79-1.83h-58a3.05,3.05,0,0,0-.55,6v-2.62A1.6,1.6,0,0,1,273.32,158.17Z"/><path class="cls-22" d="M273.32,158.17H333a3,3,0,0,0-2.79-1.83h-58a3.05,3.05,0,0,0-.55,6v-2.62A1.6,1.6,0,0,1,273.32,158.17Z"/><path class="cls-12" d="M330.23,162.44a3,3,0,0,0,3-3.05,2.93,2.93,0,0,0-.26-1.22h-59.7a1.6,1.6,0,0,0-1.6,1.6v2.62a3.31,3.31,0,0,0,.55.05Z"/><path class="cls-22" d="M330.23,162.44a3,3,0,0,0,3-3.05,2.93,2.93,0,0,0-.26-1.22h-59.7a1.6,1.6,0,0,0-1.6,1.6v2.62a3.31,3.31,0,0,0,.55.05Z"/><path class="cls-12" d="M269.09,178.35a3.06,3.06,0,0,0,2.63,2.89v-6A3.06,3.06,0,0,0,269.09,178.35Z"/><path class="cls-22" d="M269.09,178.35a3.06,3.06,0,0,0,2.63,2.89v-6A3.06,3.06,0,0,0,269.09,178.35Z"/><path class="cls-12" d="M330.23,181.27h.26a3.05,3.05,0,1,0-.26-6.1H272l-.29,0v6a3.32,3.32,0,0,0,.55,0Z"/><path class="cls-22" d="M330.23,181.27h.26a3.05,3.05,0,1,0-.26-6.1H272l-.29,0v6a3.32,3.32,0,0,0,.55,0Z"/><polygon class="cls-23" points="341.37 222.88 341.38 222.88 344.69 216.78 344.68 216.78 341.37 222.88"/><polygon class="cls-22" points="341.37 222.88 341.38 222.88 344.69 216.78 344.68 216.78 341.37 222.88"/><path class="cls-12" d="M269.22,219.83a3.05,3.05,0,0,0,2.5,3v-6A3,3,0,0,0,269.22,219.83Z"/><path class="cls-22" d="M269.22,219.83a3.05,3.05,0,0,0,2.5,3v-6A3,3,0,0,0,269.22,219.83Z"/><path class="cls-12" d="M341.37,222.88l3.31-6.1H272.27a2.51,2.51,0,0,0-.55.06v6a3.31,3.31,0,0,0,.55,0Z"/><path class="cls-22" d="M341.37,222.88l3.31-6.1H272.27a2.51,2.51,0,0,0-.55.06v6a3.31,3.31,0,0,0,.55,0Z"/><path class="cls-12" d="M375.31,222.88h0a3.05,3.05,0,1,0,0-6.1H344.69l-3.31,6.1Z"/><path class="cls-24" d="M375.31,222.88h0a3.05,3.05,0,1,0,0-6.1H344.69l-3.31,6.1Z"/><path class="cls-22" d="M375.31,222.88h0a3.05,3.05,0,1,0,0-6.1H344.69l-3.31,6.1Z"/><polygon class="cls-25" points="331.17 241.69 331.17 241.69 334.48 235.59 334.48 235.59 331.17 241.69"/><polygon class="cls-22" points="331.17 241.69 331.17 241.69 334.48 235.59 334.48 235.59 331.17 241.69"/><path class="cls-12" d="M269.22,238.64a3.05,3.05,0,0,0,2.5,3v-6A3,3,0,0,0,269.22,238.64Z"/><path class="cls-22" d="M269.22,238.64a3.05,3.05,0,0,0,2.5,3v-6A3,3,0,0,0,269.22,238.64Z"/><path class="cls-12" d="M331.17,241.69l3.31-6.1H272.27a2.51,2.51,0,0,0-.55.06v6a3.31,3.31,0,0,0,.55.05Z"/><path class="cls-22" d="M331.17,241.69l3.31-6.1H272.27a2.51,2.51,0,0,0-.55.06v6a3.31,3.31,0,0,0,.55.05Z"/><polygon class="cls-12" points="372.09 241.69 375.4 235.6 375.39 235.6 372.08 241.69 372.09 241.69"/><polygon class="cls-26" points="372.09 241.69 375.4 235.6 375.39 235.6 372.08 241.69 372.09 241.69"/><polygon class="cls-22" points="372.09 241.69 375.4 235.6 375.39 235.6 372.08 241.69 372.09 241.69"/><path class="cls-12" d="M375.31,241.69a3,3,0,0,0,.09-6.09l-3.31,6.09Z"/><path class="cls-27" d="M375.31,241.69a3,3,0,0,0,.09-6.09l-3.31,6.09Z"/><path class="cls-22" d="M375.31,241.69a3,3,0,0,0,.09-6.09l-3.31,6.09Z"/><path class="cls-12" d="M372.08,241.69l3.31-6.09H334.48l-3.31,6.1Z"/><path class="cls-28" d="M372.08,241.69l3.31-6.09H334.48l-3.31,6.1Z"/><path class="cls-22" d="M372.08,241.69l3.31-6.09H334.48l-3.31,6.1Z"/><polygon class="cls-29" points="324.29 254.39 324.28 254.39 320.97 260.49 320.98 260.49 324.29 254.39"/><polygon class="cls-22" points="324.29 254.39 324.28 254.39 320.97 260.49 320.98 260.49 324.29 254.39"/><path class="cls-12" d="M269.22,257.44a3.05,3.05,0,0,0,2.5,3v-6A3.05,3.05,0,0,0,269.22,257.44Z"/><path class="cls-22" d="M269.22,257.44a3.05,3.05,0,0,0,2.5,3v-6A3.05,3.05,0,0,0,269.22,257.44Z"/><path class="cls-12" d="M321,260.49l3.31-6.1h-52a3.31,3.31,0,0,0-.55.05v6a3.31,3.31,0,0,0,.55.05Z"/><path class="cls-22" d="M321,260.49l3.31-6.1h-52a3.31,3.31,0,0,0-.55.05v6a3.31,3.31,0,0,0,.55.05Z"/><polygon class="cls-12" points="361.89 260.49 361.9 260.49 365.21 254.39 365.2 254.39 361.89 260.49"/><polygon class="cls-30" points="361.89 260.49 361.9 260.49 365.21 254.39 365.2 254.39 361.89 260.49"/><polygon class="cls-22" points="361.89 260.49 361.9 260.49 365.21 254.39 365.2 254.39 361.89 260.49"/><polygon class="cls-12" points="320.98 260.49 361.89 260.49 365.2 254.39 324.29 254.39 320.98 260.49"/><polygon class="cls-30" points="320.98 260.49 361.89 260.49 365.2 254.39 324.29 254.39 320.98 260.49"/><polygon class="cls-22" points="320.98 260.49 361.89 260.49 365.2 254.39 324.29 254.39 320.98 260.49"/><path class="cls-12" d="M375.31,260.49a3.05,3.05,0,0,0,0-6.1h-10.1l-3.31,6.1Z"/><path class="cls-30" d="M375.31,260.49a3.05,3.05,0,0,0,0-6.1h-10.1l-3.31,6.1Z"/><path class="cls-22" d="M375.31,260.49a3.05,3.05,0,0,0,0-6.1h-10.1l-3.31,6.1Z"/><polygon class="cls-31" points="303.88 292.01 300.57 298.11 300.57 298.11 303.88 292.01 303.88 292.01"/><polygon class="cls-22" points="303.88 292.01 300.57 298.11 300.57 298.11 303.88 292.01 303.88 292.01"/><path class="cls-12" d="M269.22,295.06a3,3,0,0,0,2.5,3v-6A3.05,3.05,0,0,0,269.22,295.06Z"/><path class="cls-22" d="M269.22,295.06a3,3,0,0,0,2.5,3v-6A3.05,3.05,0,0,0,269.22,295.06Z"/><path class="cls-12" d="M300.57,298.11l3.31-6.1H272.27a3.31,3.31,0,0,0-.55.05v6a2.51,2.51,0,0,0,.55.06Z"/><path class="cls-22" d="M300.57,298.11l3.31-6.1H272.27a3.31,3.31,0,0,0-.55.05v6a2.51,2.51,0,0,0,.55.06Z"/><polygon class="cls-12" points="341.49 298.11 341.49 298.11 344.8 292.01 344.8 292.01 341.49 298.11"/><polygon class="cls-32" points="341.49 298.11 341.49 298.11 344.8 292.01 344.8 292.01 341.49 298.11"/><polygon class="cls-22" points="341.49 298.11 341.49 298.11 344.8 292.01 344.8 292.01 341.49 298.11"/><path class="cls-12" d="M375.31,298.11a3.05,3.05,0,0,0,0-6.1H344.8l-3.31,6.1Z"/><path class="cls-32" d="M375.31,298.11a3.05,3.05,0,0,0,0-6.1H344.8l-3.31,6.1Z"/><path class="cls-22" d="M375.31,298.11a3.05,3.05,0,0,0,0-6.1H344.8l-3.31,6.1Z"/><polygon class="cls-12" points="344.8 292.01 303.88 292.01 300.57 298.11 341.49 298.11 344.8 292.01"/><polygon class="cls-32" points="344.8 292.01 303.88 292.01 300.57 298.11 341.49 298.11 344.8 292.01"/><polygon class="cls-22" points="344.8 292.01 303.88 292.01 300.57 298.11 341.49 298.11 344.8 292.01"/><polygon class="cls-12" points="331.29 316.91 331.29 316.91 334.6 310.81 334.6 310.81 331.29 316.91"/><polygon class="cls-33" points="331.29 316.91 331.29 316.91 334.6 310.81 334.6 310.81 331.29 316.91"/><polygon class="cls-22" points="331.29 316.91 331.29 316.91 334.6 310.81 334.6 310.81 331.29 316.91"/><path class="cls-12" d="M314.3,313.86a3,3,0,0,0,3.05,3.05h13.94l3.31-6.1H317.35A3.06,3.06,0,0,0,314.3,313.86Z"/><path class="cls-33" d="M314.3,313.86a3,3,0,0,0,3.05,3.05h13.94l3.31-6.1H317.35A3.06,3.06,0,0,0,314.3,313.86Z"/><path class="cls-22" d="M314.3,313.86a3,3,0,0,0,3.05,3.05h13.94l3.31-6.1H317.35A3.06,3.06,0,0,0,314.3,313.86Z"/><path class="cls-12" d="M363.76,316.91q3.75-2.87,7.21-6.1H334.6l-3.31,6.1Z"/><path class="cls-33" d="M363.76,316.91q3.75-2.87,7.21-6.1H334.6l-3.31,6.1Z"/><path class="cls-22" d="M363.76,316.91q3.75-2.87,7.21-6.1H334.6l-3.31,6.1Z"/><polygon class="cls-3" points="374.31 158.17 375.1 156.72 375.09 156.71 374.3 158.17 374.31 158.17"/><path class="cls-3" d="M375,132.79,350.17,108v50.08a1.92,1.92,0,0,0,1.92,1.94h8.15l14-25.74Z"/><polygon class="cls-3" points="376.46 134.26 375 132.8 374.21 134.26 360.25 160 402.21 160 376.46 134.26"/></svg>