<svg xmlns="http://www.w3.org/2000/svg" xmlns:xlink="http://www.w3.org/1999/xlink" viewBox="0 0 600 600"><defs><style>.cls-1{fill:none;}.cls-2{fill:url(#Degradado_sin_nombre_33);}.cls-3{fill:#004481;}.cls-4{fill:#2dcccd;}.cls-5{fill:#043263;}.cls-6{clip-path:url(#clip-path);}.cls-7{fill:#49a5e6;}.cls-8{opacity:0.5;isolation:isolate;fill:url(#Degradado_sin_nombre_7);}.cls-9{fill:#f8cd50;}</style><linearGradient id="Degradado_sin_nombre_33" x1="234.43" y1="133.99" x2="417.72" y2="478.71" gradientUnits="userSpaceOnUse"><stop offset="0" stop-color="#192647" stop-opacity="0.5"/><stop offset="1" stop-color="#192647" stop-opacity="0"/></linearGradient><clipPath id="clip-path"><path class="cls-1" d="M440.89,216.6a115.2,115.2,0,1,1-115.2-115.2h0a115.23,115.23,0,0,1,115.2,115.2h0"/></clipPath><linearGradient id="Degradado_sin_nombre_7" x1="230.95" y1="122.92" x2="366.84" y2="258.8" gradientTransform="translate(0 2)" gradientUnits="userSpaceOnUse"><stop offset="0" stop-color="#fff" stop-opacity="0.5"/><stop offset="1" stop-color="#e8f7f8" stop-opacity="0.2"/><stop offset="1" stop-color="#fff" stop-opacity="0"/></linearGradient></defs><title>3</title><g id="Cuadrados_blancos" data-name="Cuadrados blancos"><rect class="cls-1" width="600" height="600"/></g><g id="Capa_6" data-name="Capa 6"><path class="cls-2" d="M493.88,175.6V98.4a3.38,3.38,0,0,0-2.73-1.31H456.88a3.49,3.49,0,0,0-3.56,3.56v38.63a145.53,145.53,0,0,0-75.63-21.08c-80.7,0-146.4,65.7-146.4,146.4A146.18,146.18,0,0,0,285,377.83L197,530.56l-.28-.16a3,3,0,0,0-4.2,1.1l-12.2,21.2a3.18,3.18,0,0,0,1.1,4.2l38.8,22.3a3,3,0,0,0,4.2-1.1l12.2-21.2a3,3,0,0,0-.77-4L323.69,400.7l.05-.09a145.32,145.32,0,0,0,53.95,10.29c80.7,0,146.4-65.7,146.4-146.4A145.46,145.46,0,0,0,493.88,175.6Z"/><circle class="cls-1" cx="325.69" cy="216.6" r="115.8" transform="translate(-57.77 293.74) rotate(-45)"/><path class="cls-3" d="M271.39,352a147.25,147.25,0,0,1-37.6-22.2l-.5-.4L131.69,505.6a3.64,3.64,0,0,0-.4,2.7,3.36,3.36,0,0,0,1.6,2.1l32.7,18.9a4.14,4.14,0,0,0,1.9.5,2.77,2.77,0,0,0,.9-.1,3.59,3.59,0,0,0,2.1-1.7l101.2-175.3.3-.5Z"/><path class="cls-4" d="M128.29,504.7l12.2-21.2a3,3,0,0,1,4.2-1.1l38.8,22.3a3,3,0,0,1,1.1,4.2l-12.2,21.2a3,3,0,0,1-4.2,1.1l-38.8-22.3A3.18,3.18,0,0,1,128.29,504.7Z"/><path class="cls-5" d="M325.69,70.2c-80.7,0-146.4,65.7-146.4,146.4a146.33,146.33,0,0,0,146.4,146.3c80.7,0,146.4-65.7,146.4-146.4S406.39,70.2,325.69,70.2Zm0,262.2a115.93,115.93,0,0,1-115.8-115.8c0-63.8,52-115.8,115.8-115.8a115.8,115.8,0,1,1,0,231.6Z"/><g class="cls-6"><path class="cls-1" d="M383,116.7,267.89,316.2A115.16,115.16,0,1,0,383,116.7Z"/></g><path class="cls-7" d="M442,216.9A116.1,116.1,0,1,1,325.9,100.8h0A116.13,116.13,0,0,1,442,216.9h0"/><path class="cls-8" d="M383.65,116.21a116.09,116.09,0,0,0-116,201.14Z"/><path class="cls-9" d="M439.15,49.09H404.88a3.49,3.49,0,0,0-3.56,3.56V305.13a115.82,115.82,0,0,0,40.56-88.23V50.4A3.38,3.38,0,0,0,439.15,49.09Z"/><path class="cls-9" d="M384,140.76H349.74a3.49,3.49,0,0,0-3.56,3.56v186.9a115.27,115.27,0,0,0,41.39-16V144.32A3.57,3.57,0,0,0,384,140.76Z"/><path class="cls-9" d="M328.74,219H294.47a3.51,3.51,0,0,0-3.56,3.56h0V327.66A115.64,115.64,0,0,0,325.78,333c2.25,0,4.39-.12,6.52-.24V222.47a3.47,3.47,0,0,0-3.56-3.44Z"/></g></svg>