<svg id="Contenido" xmlns="http://www.w3.org/2000/svg" xmlns:xlink="http://www.w3.org/1999/xlink" viewBox="0 0 600 600"><defs><style>.cls-1{fill:url(#Degradado_sin_nombre_6);}.cls-2{fill:#004481;stroke:#004481;stroke-miterlimit:10;stroke-width:0.82px;}.cls-3{fill:#2dcccd;}.cls-4{fill:#043263;}.cls-5{fill:#1464a5;}.cls-6{opacity:0.5;isolation:isolate;fill:url(#Degradado_sin_nombre_5);}.cls-7{fill:none;}</style><linearGradient id="Degradado_sin_nombre_6" x1="260.38" y1="1271.11" x2="389.74" y2="1027.82" gradientTransform="matrix(1, 0, 0, -1, 0, 1477.54)" gradientUnits="userSpaceOnUse"><stop offset="0" stop-color="#192647"/><stop offset="0" stop-color="#192647" stop-opacity="0.3"/><stop offset="1" stop-color="#192647" stop-opacity="0"/></linearGradient><linearGradient id="Degradado_sin_nombre_5" x1="253.98" y1="1319.05" x2="362.92" y2="1210.11" gradientTransform="matrix(1, 0, 0, -1, 0, 1477.54)" gradientUnits="userSpaceOnUse"><stop offset="0" stop-color="#fff" stop-opacity="0.5"/><stop offset="1" stop-color="#e8f7f8" stop-opacity="0.2"/><stop offset="1" stop-color="#fff" stop-opacity="0"/></linearGradient></defs><title>vacantes</title><path class="cls-1" d="M373.52,161A110.62,110.62,0,0,0,303,356.77L228.87,485.1l-.26-.16a2.43,2.43,0,0,0-3.32.82.59.59,0,0,1,0,.08l-9.8,17a2.46,2.46,0,0,0,.9,3.36l2.42,1.39h0L245,522.7h0l2.41,1.38a2.45,2.45,0,0,0,3.35-.9l9.79-16.95a2.46,2.46,0,0,0-.9-3.36l-.27-.16,74-128.06A110.62,110.62,0,1,0,373.56,161Z"/><path class="cls-2" d="M174.42,464.85,261,315h0l30.51,17.61h0l-86.54,149.9a2.48,2.48,0,0,1-3.37.9l-26.25-15.16A2.48,2.48,0,0,1,174.42,464.85Z"/><rect class="cls-3" x="181.97" y="444.68" width="24.58" height="40.91" rx="2.47" transform="translate(-305.82 401.79) rotate(-60.11)"/><circle class="cls-4" cx="330.09" cy="232.24" r="93.12" transform="translate(-72.79 208.22) rotate(-31.72)"/><path class="cls-5" d="M330.09,349.94A117.71,117.71,0,1,1,447.8,232.24,117.83,117.83,0,0,1,330.09,349.94Zm0-210.82a93.12,93.12,0,1,0,93.12,93.12A93.22,93.22,0,0,0,330.09,139.12Z"/><path class="cls-6" d="M330,139.2a93.08,93.08,0,0,0-46.69,173.58l93-161.24A92.57,92.57,0,0,0,330,139.2Z"/><path class="cls-3" d="M263.73,165.77l-5.06,5.07v1.72c1.61-1.92,3.3-3.79,5.06-5.58Z"/><path class="cls-3" d="M242.45,199.88h.32c.07-.17.14-.34.2-.52Z"/><path class="cls-7" d="M404.72,283.39l1.93,1.8a92.92,92.92,0,0,0-.15-106.11l-1.68,1.57-3-3V173q-1.47-1.77-3-3.47h-8.07l-5.07-5.07h8.14A93,93,0,0,0,263.73,167v11.71l-2.09,2-3-3v-5.11a93.3,93.3,0,0,0-12.36,19.07v1.83L244.75,195q-.94,2.14-1.78,4.34l4.55-4.54h9.87l5.07,5.06H242.77a93.22,93.22,0,0,0,.17,65.14l1-.87,2.41,2.41v6.28a92.68,92.68,0,0,0,10.08,16.23v-3.38l3-3,2.1,2v10.41a93,93,0,0,0,132.84,4.53h-8.77l5.07-5.07h8.62c.87-.95,1.71-1.92,2.53-2.91v-5.28Zm-142.2-69.11-5.07,5.07h-9.87l-5.07-5.07Zm-21.28,1.36,5.07,5.07v6.83l-3,3-2.09-2Zm0,19.84,2.09-2,3,3v6.84l-5.07,5.06ZM261.46,278l-3,3L256.39,279V266.56l2.66-2.41,2.41,2.41Zm-19-28.2,5.07-5.07h9.87l5.07,5.07Zm21.28-1.36-5.06-5.06v-6.84l3-3,2.09,2Zm0-19.84-2.09,2-3-3v-6.83l5.06-5.07Zm0-30-5.06-5.07v-6.84l3-3,2.09,2Zm143.08,79.89-2.09,2-3-3v-6.84l5.06-5.06Zm.11-31.2-2.66,2.41-2.41-2.41v-11.4l3-3,2.1,2Zm0-19.13-3,3-2.09-2V216.69l2.66-2.41,2.41,2.41Zm-5.07-41.47,3-3,2.1,2v12.92l-5.07-5.07Zm-1.27,8.2,5.06,5.06h-20l5.07-5.06Zm-15.15,49.86,5.06,5.07h-20l5.06-5.07Zm-14.88-30.4h20l-5.06,5.07h-9.88Zm16.15,29.05v-6.84l3-3,2.1,2v12.91Zm3-12.82-3-3v-6.83l5.07-5.07v12.91Zm-5.25-64.74,5.07,5.07v6.83l-3,3-2.09-2Zm0,19.84,2.09-2,3,3v6.84l-5.07,5.07Zm-15.15-18.79,2.66-2.41,2.41,2.41v11.4l-3,3-2.1-2Zm0,19.14,3-3,2.1,2v12.41l-2.66,2.41-2.41-2.41Zm0,29.68,5.07,5.07v6.83l-3,3-2.1-2Zm0,19.84,2.1-2,3,3v6.84l-5.07,5.06Zm-15.15-68.66,2.66-2.41,2.41,2.41v11.4l-3,3-2.1-2Zm0,19.14,3-3,2.1,2v12.41l-2.66,2.41-2.41-2.41Zm0,30.73,2.66-2.41,2.41,2.41v11.4l-3,3-2.1-2Zm0,19.13,3-3,2.1,2v12.41l-2.66,2.41-2.41-2.41ZM373,264.15,368,269.22h-9.88L353,264.15Zm-21.28,1.36,5.07,5.06v6.84l-3,3-2.1-2Zm-8.92-101.1-5.06,5.07h-9.88l-5.06-5.07Zm-20.21,54.94h-9.88l-5.06-5.07h20Zm1.21,17.14,3-3,2.1,2v12.91l-5.07-5.06Zm-15.33-6-2.1-2V215.64l5.07,5.07v6.83Zm3,6v6.84l-5.07,5.06V235.48l2.1-2Zm0-38-5.07-5.07v-6.84l3-3,2.09,2Zm-1.27,1.35h-20l5.07-5.06h9.87Zm-16,30.63-3-3v-6.83l5.07-5.07v12.91Zm2.09,5v12.91l-5.07-5.06v-6.84l3-3Zm-1.21-21.2L290,219.35h-9.87l-5.07-5.07ZM290,244.68l5.07,5.07H275l5.07-5.07Zm-3.28,20.83,5.06,5.06v6.84l-3,3-2.09-2Zm1.27-1.36h20l-5.07,5.07H293Zm19.65-14.4,5.06-5.07h9.88l5.06,5.07Zm11.55,15.76,5.07,5.06v6.84l-3,3-2.1-2Zm1.28-1.36h20l-5.07,5.07H325.5Zm8.45-35.6-2.1,2-3-3v-6.83l5.07-5.07Zm-6.13-28.67,5.06-5.06h9.88l5.06,5.06Zm-1.22-34.11,5.07,5.07v6.83l-3,3-2.1-2Zm0,19.84,2.1-2,3,3v6.84l-5.07,5.07Zm-10.08-6.92-2.09,2-3-3v-6.83l5.07-5.07Zm-1.21-14.28-5.07,5.07h-9.87l-5.07-5.07ZM289,165.77l5.06,5.07v6.83l-3,3-2.09-2Zm0,19.84,2.09-2,3,3v6.84L289,198.53Zm-15.15-18.79,2.65-2.41,2.41,2.41v11.4l-3,3-2.09-2Zm0,19.14,3-3,2.09,2v12.41l-2.65,2.41-2.41-2.41Zm0,29.68,5.06,5.07v6.83l-3,3-2.09-2Zm0,19.84,2.09-2,3,3v6.84l-5.06,5.06Zm2.79,61.6L274,299.49l-2.41-2.41V285.69l3-3,2.1,2Zm0-19.13-3,3L271.54,279V266.56l2.66-2.41,2.41,2.41Zm10.08,7.4,2.09-2,3,3v6.83l-5.06,5.07Zm1.21,14.27,5.07-5.07h9.87l5.07,5.07Zm21.28-1.36-5.06-5.07v-6.83l3-3,2.09,2Zm0-19.84-2.09,2-3-3v-6.84l5.06-5.06Zm10,6.93,2.1-2,3,3v6.83l-5.07,5.07Zm1.22,14.27,5.06-5.07h9.88l5.07,5.07Zm21.28-1.36-5.07-5.07v-6.83l3-3,2.09,2Zm0-19.84-2.09,2-3-3v-6.84l5.07-5.06Zm2.38-31.2-2.66,2.41L339,247.22v-11.4l3-3,2.1,2Zm0-19.13-3,3-2.1-2V216.69l2.66-2.41,2.41,2.41Zm0-29.56L339,193.46v-6.84l3-3,2.1,2Zm0-19.84-2.1,2-3-3v-6.83l5.07-5.07Zm7.7,106.66,2.1-2,3,3v6.83l-5.07,5.07ZM353,299.62l5.06-5.07h9.88l5.06,5.07Zm21.28-1.36-5.07-5.07v-6.83l3-3,2.1,2Zm0-19.84-2.1,2-3-3v-6.84l5.07-5.06Zm15.15,14.77-5.07,5.07V285.35l2.09-2,3,3Zm0-15.78-3,3-2.09-2V265.51l5.07,5.06Zm1.27-8.19-5.07-5.07h20l-5.07,5.07Z"/><polygon class="cls-3" points="278.88 197.35 278.88 184.94 276.79 182.98 273.82 185.96 273.82 197.35 276.23 199.76 278.88 197.35"/><polygon class="cls-3" points="278.88 178.22 278.88 166.82 276.47 164.41 273.82 166.82 273.82 179.23 275.91 181.19 278.88 178.22"/><polygon class="cls-3" points="338.97 235.82 338.97 247.22 341.38 249.63 344.04 247.22 344.04 234.81 341.94 232.85 338.97 235.82"/><polygon class="cls-3" points="338.97 216.69 338.97 229.1 341.07 231.06 344.04 228.09 344.04 216.69 341.63 214.28 338.97 216.69"/><polygon class="cls-3" points="401.85 235.82 401.85 247.22 404.26 249.63 406.92 247.22 406.92 234.81 404.82 232.85 401.85 235.82"/><polygon class="cls-3" points="401.85 216.69 401.85 229.1 403.94 231.06 406.92 228.09 406.92 216.69 404.51 214.28 401.85 216.69"/><path class="cls-3" d="M243.9,264.15l-1,.87c1,2.66,2.13,5.27,3.37,7.82v-6.28Z"/><path class="cls-3" d="M259.36,282.72l-3,3v3.38q2.4,3.12,5.07,6V284.68Z"/><polygon class="cls-3" points="256.39 266.56 256.39 278.96 258.48 280.93 261.45 277.95 261.45 266.56 259.05 264.15 256.39 266.56"/><polygon class="cls-3" points="271.54 285.69 271.54 297.08 273.95 299.49 276.61 297.08 276.61 284.68 274.51 282.72 271.54 285.69"/><polygon class="cls-3" points="271.54 266.56 271.54 278.96 273.63 280.93 276.61 277.95 276.61 266.56 274.2 264.15 271.54 266.56"/><polygon class="cls-3" points="359.19 247.22 359.19 234.81 357.09 232.85 354.12 235.82 354.12 247.22 356.53 249.63 359.19 247.22"/><polygon class="cls-3" points="359.19 228.09 359.19 216.69 356.78 214.28 354.12 216.69 354.12 229.1 356.21 231.06 359.19 228.09"/><polygon class="cls-3" points="359.19 197.35 359.19 184.94 357.09 182.98 354.12 185.96 354.12 197.35 356.53 199.76 359.19 197.35"/><polygon class="cls-3" points="359.19 178.22 359.19 166.82 356.78 164.41 354.12 166.82 354.12 179.23 356.21 181.19 359.19 178.22"/><polygon class="cls-3" points="374.34 197.35 374.34 184.94 372.24 182.98 369.27 185.96 369.27 197.35 371.68 199.76 374.34 197.35"/><polygon class="cls-3" points="374.34 178.22 374.34 166.82 371.93 164.41 369.27 166.82 369.27 179.23 371.37 181.19 374.34 178.22"/><path class="cls-3" d="M261.64,180.65l2.09-2V167c-1.76,1.79-3.45,3.66-5.06,5.58v5.11Z"/><path class="cls-3" d="M257.39,194.82h-9.87L243,199.36c-.06.18-.13.35-.2.52h19.69Z"/><polygon class="cls-3" points="258.67 186.63 258.67 193.46 263.73 198.53 263.73 185.61 261.64 183.65 258.67 186.63"/><path class="cls-3" d="M246.31,191.63q-.83,1.68-1.56,3.39l1.56-1.56Z"/><polygon class="cls-3" points="257.45 219.35 262.52 214.28 242.51 214.28 247.58 219.35 257.45 219.35"/><polygon class="cls-3" points="246.31 227.54 246.31 220.71 241.24 215.64 241.24 228.55 243.33 230.51 246.31 227.54"/><polygon class="cls-3" points="258.67 227.54 261.64 230.51 263.73 228.55 263.73 215.64 258.67 220.71 258.67 227.54"/><polygon class="cls-3" points="247.52 244.68 242.45 249.75 262.46 249.75 257.39 244.68 247.52 244.68"/><polygon class="cls-3" points="258.67 236.49 258.67 243.33 263.73 248.39 263.73 235.48 261.64 233.52 258.67 236.49"/><polygon class="cls-3" points="246.31 236.49 243.33 233.52 241.24 235.48 241.24 248.39 246.31 243.33 246.31 236.49"/><polygon class="cls-3" points="302.9 269.22 307.97 264.15 287.96 264.15 293.03 269.22 302.9 269.22"/><polygon class="cls-3" points="291.75 277.41 291.75 270.57 286.69 265.51 286.69 278.42 288.78 280.38 291.75 277.41"/><polygon class="cls-3" points="304.12 277.41 307.09 280.38 309.18 278.42 309.18 265.51 304.12 270.57 304.12 277.41"/><polygon class="cls-3" points="292.97 294.55 287.9 299.62 307.91 299.62 302.84 294.55 292.97 294.55"/><polygon class="cls-3" points="304.12 286.36 304.12 293.19 309.18 298.26 309.18 285.35 307.09 283.39 304.12 286.36"/><polygon class="cls-3" points="291.75 286.36 288.78 283.39 286.69 285.35 286.69 298.26 291.75 293.19 291.75 286.36"/><polygon class="cls-3" points="335.38 269.22 340.44 264.15 320.44 264.15 325.5 269.22 335.38 269.22"/><polygon class="cls-3" points="324.23 277.41 324.23 270.57 319.16 265.51 319.16 278.42 321.26 280.38 324.23 277.41"/><polygon class="cls-3" points="336.59 277.41 339.56 280.38 341.66 278.42 341.66 265.51 336.59 270.57 336.59 277.41"/><polygon class="cls-3" points="325.44 294.55 320.38 299.62 340.38 299.62 335.32 294.55 325.44 294.55"/><polygon class="cls-3" points="336.59 286.36 336.59 293.19 341.66 298.26 341.66 285.35 339.56 283.39 336.59 286.36"/><polygon class="cls-3" points="324.23 286.36 321.26 283.39 319.16 285.35 319.16 298.26 324.23 293.19 324.23 286.36"/><polygon class="cls-3" points="367.96 269.22 373.02 264.15 353.02 264.15 358.08 269.22 367.96 269.22"/><polygon class="cls-3" points="356.81 277.41 356.81 270.57 351.74 265.51 351.74 278.42 353.84 280.38 356.81 277.41"/><polygon class="cls-3" points="369.17 277.41 372.14 280.38 374.24 278.42 374.24 265.51 369.17 270.57 369.17 277.41"/><polygon class="cls-3" points="358.02 294.55 352.96 299.62 372.96 299.62 367.9 294.55 358.02 294.55"/><polygon class="cls-3" points="369.17 286.36 369.17 293.19 374.24 298.26 374.24 285.35 372.14 283.39 369.17 286.36"/><polygon class="cls-3" points="356.81 286.36 353.84 283.39 351.74 285.35 351.74 298.26 356.81 293.19 356.81 286.36"/><polygon class="cls-3" points="385.59 264.15 390.66 269.22 400.53 269.22 405.6 264.15 385.59 264.15"/><polygon class="cls-3" points="384.32 278.42 386.41 280.38 389.39 277.41 389.39 270.57 384.32 265.51 384.32 278.42"/><polygon class="cls-3" points="401.75 277.41 404.72 280.38 406.81 278.42 406.81 265.51 401.75 270.57 401.75 277.41"/><path class="cls-3" d="M385.53,299.62h8.77c1.7-1.63,3.35-3.32,4.92-5.07H390.6Z"/><path class="cls-3" d="M404.72,283.39l-3,3v5.28q2.58-3.12,4.9-6.45Z"/><polygon class="cls-3" points="384.32 285.35 384.32 298.26 389.39 293.19 389.39 286.36 386.41 283.39 384.32 285.35"/><polygon class="cls-3" points="280.16 219.35 290.03 219.35 295.1 214.28 275.09 214.28 280.16 219.35"/><polygon class="cls-3" points="278.88 227.54 278.88 220.71 273.82 215.64 273.82 228.55 275.91 230.51 278.88 227.54"/><polygon class="cls-3" points="296.31 215.64 291.24 220.71 291.24 227.54 294.22 230.51 296.31 228.55 296.31 215.64"/><polygon class="cls-3" points="295.04 249.75 289.97 244.68 280.1 244.68 275.03 249.75 295.04 249.75"/><polygon class="cls-3" points="291.24 236.49 291.24 243.33 296.31 248.39 296.31 235.48 294.22 233.52 291.24 236.49"/><polygon class="cls-3" points="278.88 236.49 275.91 233.52 273.82 235.48 273.82 248.39 278.88 243.33 278.88 236.49"/><polygon class="cls-3" points="307.67 214.28 312.73 219.35 322.61 219.35 327.68 214.28 307.67 214.28"/><polygon class="cls-3" points="311.46 220.71 306.39 215.64 306.39 228.55 308.49 230.51 311.46 227.54 311.46 220.71"/><polygon class="cls-3" points="323.82 227.54 326.8 230.51 328.89 228.55 328.89 215.64 323.82 220.71 323.82 227.54"/><polygon class="cls-3" points="322.55 244.68 312.67 244.68 307.61 249.75 327.62 249.75 322.55 244.68"/><polygon class="cls-3" points="328.89 235.48 326.8 233.52 323.82 236.49 323.82 243.33 328.89 248.39 328.89 235.48"/><polygon class="cls-3" points="306.39 235.48 306.39 248.39 311.46 243.33 311.46 236.49 308.49 233.52 306.39 235.48"/><polygon class="cls-3" points="390.55 214.28 370.55 214.28 375.61 219.35 385.49 219.35 390.55 214.28"/><polygon class="cls-3" points="374.34 227.54 374.34 220.71 369.27 215.64 369.27 228.55 371.37 230.51 374.34 227.54"/><polygon class="cls-3" points="391.77 215.64 386.7 220.71 386.7 227.54 389.67 230.51 391.77 228.55 391.77 215.64"/><polygon class="cls-3" points="390.49 249.75 385.43 244.68 375.55 244.68 370.49 249.75 390.49 249.75"/><polygon class="cls-3" points="391.77 235.48 389.67 233.52 386.7 236.49 386.7 243.33 391.77 248.39 391.77 235.48"/><polygon class="cls-3" points="374.34 236.49 371.37 233.52 369.27 235.48 369.27 248.39 374.34 243.33 374.34 236.49"/><polygon class="cls-3" points="305.18 169.48 310.25 164.41 290.24 164.41 295.31 169.48 305.18 169.48"/><polygon class="cls-3" points="294.03 177.67 294.03 170.84 288.97 165.77 288.97 178.69 291.06 180.65 294.03 177.67"/><polygon class="cls-3" points="306.39 177.67 309.37 180.65 311.46 178.69 311.46 165.77 306.39 170.84 306.39 177.67"/><polygon class="cls-3" points="295.25 194.82 290.18 199.88 310.19 199.88 305.12 194.82 295.25 194.82"/><polygon class="cls-3" points="306.39 186.63 306.39 193.46 311.46 198.53 311.46 185.61 309.37 183.65 306.39 186.63"/><polygon class="cls-3" points="294.03 186.63 291.06 183.65 288.97 185.61 288.97 198.53 294.03 193.46 294.03 186.63"/><polygon class="cls-3" points="337.76 169.48 342.82 164.41 322.82 164.41 327.88 169.48 337.76 169.48"/><polygon class="cls-3" points="326.61 177.67 326.61 170.84 321.54 165.77 321.54 178.69 323.64 180.65 326.61 177.67"/><polygon class="cls-3" points="338.97 177.67 341.94 180.65 344.04 178.69 344.04 165.77 338.97 170.84 338.97 177.67"/><polygon class="cls-3" points="337.7 194.82 327.82 194.82 322.76 199.88 342.76 199.88 337.7 194.82"/><polygon class="cls-3" points="338.97 186.63 338.97 193.46 344.04 198.53 344.04 185.61 341.94 183.65 338.97 186.63"/><polygon class="cls-3" points="326.61 186.63 323.64 183.65 321.54 185.61 321.54 198.53 326.61 193.46 326.61 186.63"/><path class="cls-3" d="M390.76,169.48h8.07q-2.4-2.62-5-5.07h-8.14Z"/><polygon class="cls-3" points="389.49 177.67 389.49 170.84 384.42 165.77 384.42 178.69 386.51 180.65 389.49 177.67"/><path class="cls-3" d="M404.82,180.65l1.68-1.57q-2.21-3.17-4.65-6.13v4.72Z"/><polygon class="cls-3" points="405.64 199.88 400.58 194.82 390.7 194.82 385.63 199.88 405.64 199.88"/><polygon class="cls-3" points="406.92 185.61 404.82 183.65 401.85 186.63 401.85 193.46 406.92 198.53 406.92 185.61"/><polygon class="cls-3" points="389.49 186.63 386.51 183.65 384.42 185.61 384.42 198.53 389.49 193.46 389.49 186.63"/></svg>