<?xml version="1.0" encoding="utf-8"?>
<!-- Generator: Adobe Illustrator 23.0.1, SVG Export Plug-In . SVG Version: 6.00 Build 0)  -->
<svg version="1.1" id="Contenido" xmlns="http://www.w3.org/2000/svg" xmlns:xlink="http://www.w3.org/1999/xlink" x="0px" y="0px"
	 viewBox="0 0 600 600" style="enable-background:new 0 0 600 600;" xml:space="preserve">
<style type="text/css">
	.st0{fill:url(#SVGID_1_);}
	.st1{fill:#004481;}
	.st2{fill:#49A5E6;}
	.st3{fill:#1464A5;}
	.st4{opacity:0.5;fill:url(#SVGID_2_);enable-background:new    ;}
	.st5{fill:#F8CD50;}
	.st6{fill:#2DCCCD;}
</style>
<title>_</title>
<linearGradient id="SVGID_1_" gradientUnits="userSpaceOnUse" x1="245.2583" y1="396.7926" x2="385.9821" y2="132.1367" gradientTransform="matrix(1 0 0 -1 0 602)">
	<stop  offset="0" style="stop-color:#192647"/>
	<stop  offset="0" style="stop-color:#192647;stop-opacity:0.5"/>
	<stop  offset="1" style="stop-color:#192647;stop-opacity:0"/>
</linearGradient>
<path class="st0" d="M451.2,211.7v-62.9c-0.6-0.7-1.4-1.1-2.3-1.1H420c-1.7,0-3,1.3-3,3v31.1c-59.3-35.2-135.9-15.5-171.1,43.8
	c-31.6,53.3-19.3,121.7,28.8,160.7L199.9,516c-1.4-0.8-3.2-0.3-4,1.1l-9.9,17.2c-0.8,1.4-0.3,3.3,1.1,4.1c0,0,0,0,0,0l32.1,18.5
	c1.4,0.8,3.3,0.3,4.1-1.1c0,0,0,0,0,0l10-17.2c0.8-1.4,0.4-3.2-1-4.1l74.7-129.4c64,25.7,136.7-5.3,162.5-69.3
	C486.1,294.3,479.2,246.8,451.2,211.7L451.2,211.7z"/>
<path class="st1" d="M139.9,484.8l91.3-158.1l0,0l32.3,18.6l0,0l-91.3,158.1c-0.8,1.4-2.7,1.9-4.1,1.1L141,488.9
	C139.5,488.1,139.1,486.2,139.9,484.8z"/>
<path class="st2" d="M402.2,239.2c0,54.1-43.8,97.9-97.9,97.9s-97.9-43.8-97.9-97.9s43.8-97.9,97.9-97.9l0,0
	C358.3,141.3,402.2,185.1,402.2,239.2C402.2,239.2,402.2,239.2,402.2,239.2"/>
<path class="st3" d="M304.2,364.2c-69,0-124.9-55.9-124.9-124.9s55.9-124.9,124.9-124.9s124.9,55.9,124.9,124.9
	C429.1,308.2,373.2,364.1,304.2,364.2z M304.2,141.3c-54.1,0-97.9,43.8-97.9,97.9s43.8,97.9,97.9,97.9s97.9-43.8,97.9-97.9l0,0
	C402.1,185.1,358.3,141.3,304.2,141.3z"/>
<linearGradient id="SVGID_2_" gradientUnits="userSpaceOnUse" x1="224.2303" y1="440.3503" x2="338.8103" y2="325.7703" gradientTransform="matrix(1 0 0 -1 0 602)">
	<stop  offset="0" style="stop-color:#FFFFFF;stop-opacity:0.5"/>
	<stop  offset="1" style="stop-color:#E8F7F8;stop-opacity:0.2"/>
	<stop  offset="1" style="stop-color:#FFFFFF;stop-opacity:0"/>
</linearGradient>
<path class="st4" d="M353,154.3c-46.8-27-106.7-11-133.7,35.9s-11,106.7,35.9,133.7L353,154.3z"/>
<path class="st5" d="M399.8,97.7h-28.9c-1.7,0-3,1.3-3,3v212.9c21.7-18.6,34.3-45.8,34.2-74.4V98.8
	C401.6,98.1,400.7,97.7,399.8,97.7z"/>
<path class="st5" d="M353.3,175h-28.9c-1.7,0-3,1.3-3,3v157.6c12.4-2.2,24.3-6.8,34.9-13.5V178C356.3,176.3,354.9,175,353.3,175z"/>
<path class="st5" d="M306.7,241h-28.9c-1.7,0-3,1.3-3,3l0,0v88.6c9.5,3,19.4,4.5,29.4,4.5c1.9,0,3.7-0.1,5.5-0.2v-93
	C309.7,242.3,308.4,241,306.7,241L306.7,241z"/>
<path class="st6" d="M136.8,484.3l9.9-17.2c0.8-1.4,2.7-1.9,4.1-1.1l32.1,18.6c1.4,0.8,1.9,2.7,1.1,4.1l-9.9,17.2
	c-0.8,1.4-2.7,1.9-4.1,1.1l-32.1-18.5C136.4,487.6,135.9,485.7,136.8,484.3z"/>
</svg>
