<?xml version="1.0" encoding="utf-8"?>
<!-- Generator: Adobe Illustrator 23.0.1, SVG Export Plug-In . SVG Version: 6.00 Build 0)  -->
<svg version="1.1" id="Capa_1" xmlns="http://www.w3.org/2000/svg" xmlns:xlink="http://www.w3.org/1999/xlink" x="0px" y="0px"
	 viewBox="0 0 600 600" style="enable-background:new 0 0 600 600;" xml:space="preserve">
<style type="text/css">
	.st0{fill:url(#SVGID_1_);}
	.st1{fill:none;}
	.st2{fill:#004481;}
	.st3{fill:#2DCCCD;}
	.st4{fill:#1464A5;}
	.st5{fill:#49A5E6;}
	.st6{clip-path:url(#SVGID_3_);}
	.st7{opacity:0.5;fill:url(#SVGID_4_);enable-background:new    ;}
</style>
<title>Mesa de trabajo 1 copia 44</title>
<g>
	<g>
		
			<linearGradient id="SVGID_1_" gradientUnits="userSpaceOnUse" x1="221.9873" y1="584.4418" x2="382.8185" y2="886.9323" gradientTransform="matrix(1 0 0 1 0 -400)">
			<stop  offset="0" style="stop-color:#192647"/>
			<stop  offset="0" style="stop-color:#192647;stop-opacity:0.5"/>
			<stop  offset="1" style="stop-color:#192647;stop-opacity:0"/>
		</linearGradient>
		<path class="st0" d="M362.7,127.9c-76,0-137.6,61.6-137.6,137.6c0,41,18.3,79.8,49.8,105.9L182.7,531l-0.3-0.2
			c-1.4-0.9-3.3-0.4-4.1,1c0,0,0,0.1-0.1,0.1L166,553c-0.8,1.5-0.3,3.3,1.1,4.2l3,1.7l0,0l32.6,18.9l0,0l3,1.7
			c1.5,0.8,3.3,0.3,4.2-1.1l12.2-21.1c0.8-1.5,0.3-3.3-1.1-4.2l-0.3-0.2l92-159.3c70.8,27.6,150.6-7.4,178.2-78.3
			c27.6-70.8-7.4-150.6-78.3-178.2C396.8,131.1,379.8,127.9,362.7,127.9L362.7,127.9z"/>
		
			<ellipse transform="matrix(0.7071 -0.7071 0.7071 0.7071 -62.7431 281.7246)" class="st1" cx="308.7" cy="216.6" rx="115.8" ry="115.8"/>
		<path class="st2" d="M254.4,352c-13.5-5.5-26.2-12.9-37.6-22.2l-0.5-0.4L114.7,505.6c-0.5,0.8-0.6,1.8-0.4,2.7
			c0.2,0.9,0.8,1.6,1.6,2.1l32.7,18.9c0.6,0.3,1.2,0.5,1.9,0.5c0.3,0,0.6,0,0.9-0.1c0.9-0.3,1.7-0.9,2.1-1.7l101.2-175.3l0.3-0.5
			L254.4,352z"/>
		<path class="st3" d="M111.3,504.7l12.2-21.2c0.8-1.5,2.7-2,4.2-1.1l38.8,22.3c1.5,0.8,2,2.7,1.1,4.2l-12.2,21.2
			c-0.8,1.5-2.7,2-4.2,1.1l-38.8-22.3C111,508,110.5,506.2,111.3,504.7z"/>
		<path class="st4" d="M308.7,70.2c-80.7,0-146.4,65.7-146.4,146.4c0,45.8,21.2,86.8,54.2,113.6c11.3,9.2,24,16.7,37.7,22.2
			c16.9,6.8,35.2,10.5,54.5,10.5c80.7,0,146.4-65.7,146.4-146.4S389.4,70.2,308.7,70.2z M308.7,332.4c-63.9,0-115.8-52-115.8-115.8
			s52-115.8,115.8-115.8c63.9,0,115.8,52,115.8,115.8S372.6,332.4,308.7,332.4z"/>
		
			<ellipse transform="matrix(0.7071 -0.7071 0.7071 0.7071 -62.7431 281.7246)" class="st5" cx="308.7" cy="216.6" rx="115.8" ry="115.8"/>
		<g>
			<g>
				<defs>
					<path id="SVGID_2_" d="M423.9,216.6c0,63.6-51.6,115.2-115.2,115.2s-115.2-51.6-115.2-115.2s51.6-115.2,115.2-115.2l0,0
						C372.3,101.4,423.9,153,423.9,216.6L423.9,216.6"/>
				</defs>
				<clipPath id="SVGID_3_">
					<use xlink:href="#SVGID_2_"  style="overflow:visible;"/>
				</clipPath>
				<g class="st6">
					<path class="st1" d="M366,116.7L250.9,316.2C306,348,376.5,329.1,408.2,274S421.1,148.5,366,116.7z"/>
					
						<linearGradient id="SVGID_4_" gradientUnits="userSpaceOnUse" x1="214.6083" y1="525.2817" x2="349.4083" y2="660.0917" gradientTransform="matrix(1 0 0 1 0 -400)">
						<stop  offset="0" style="stop-color:#FFFFFF;stop-opacity:0.5"/>
						<stop  offset="1" style="stop-color:#E8F7F8;stop-opacity:0.2"/>
						<stop  offset="1" style="stop-color:#FFFFFF;stop-opacity:0"/>
					</linearGradient>
					<path class="st7" d="M308.7,101.4c-63.6,0-115.2,51.6-115.1,115.2c0,41,21.9,79,57.4,99.6l115-199.5
						C348.6,106.7,328.8,101.4,308.7,101.4z"/>
				</g>
			</g>
		</g>
	</g>
</g>
</svg>
