<svg id="Contenido" xmlns="http://www.w3.org/2000/svg" xmlns:xlink="http://www.w3.org/1999/xlink" viewBox="0 0 600 600"><defs><style>.cls-1{fill:url(#Degradado_sin_nombre_10);}.cls-2,.cls-7{fill:none;stroke-miterlimit:10;}.cls-2{stroke:#f8cd50;stroke-width:22.42px;}.cls-3{fill:#1464a5;}.cls-4{fill:url(#Degradado_sin_nombre_23);}.cls-5{fill:#2dcccd;}.cls-6{fill:#043263;}.cls-7{stroke:#043263;stroke-linecap:round;stroke-width:16.82px;}</style><linearGradient id="Degradado_sin_nombre_10" x1="198.64" y1="29.84" x2="433.75" y2="472.03" gradientUnits="userSpaceOnUse"><stop offset="0" stop-color="#192647"/><stop offset="0" stop-color="#192647" stop-opacity="0.5"/><stop offset="1" stop-color="#192647" stop-opacity="0"/></linearGradient><linearGradient id="Degradado_sin_nombre_23" x1="454.73" y1="301.45" x2="246.98" y2="301.45" gradientUnits="userSpaceOnUse"><stop offset="0" stop-color="#043263" stop-opacity="0.3"/><stop offset="1" stop-color="#043263" stop-opacity="0.1"/></linearGradient></defs><title>self_driven</title><path class="cls-1" d="M500.84,296.52l-31.42-5.81A119.43,119.43,0,0,0,456,258.34L474.12,232c-5.38-8.52-6.58-11.44-14-18.88l-.35-.34c-7.44-7.41-10.35-8.61-18.87-14l-20.72,14.26V158c0-37.39-30.17-67.8-67.27-67.8s-67.27,30.41-67.27,67.8v55.1L264.94,198.8c-8.53,5.39-11.44,6.59-18.88,14l-.35.34c-7.41,7.44-8.61,10.36-14,18.88l18.12,26.32a119.12,119.12,0,0,0-13.41,32.37L205,296.52c-2.22,9.83-3.43,12.74-3.45,23.24v.49c0,10.5,1.23,13.41,3.45,23.24l31.43,5.81a119.12,119.12,0,0,0,13.41,32.37L231.72,408c5.38,8.52,6.58,11.44,14,18.87l.35.35c7.44,7.41,10.35,8.61,18.88,14l26.32-18.12c1.72,1,3.51,2,5.28,2.91h0c1.9,1,3.83,2,5.79,2.87.47.23.95.44,1.43.66,1.68.76,3.38,1.49,5.11,2.17,1.05.42,2.12.8,3.18,1.19,1.3.47,2.59,1,3.91,1.38,2.52.82,5.07,1.58,7.67,2.23l5.8,31.42c9.84,2.22,12.75,3.43,23.25,3.45h.49c10.5,0,13.41-1.23,23.24-3.45l5.8-31.42a119.3,119.3,0,0,0,32.37-13.41l26.33,18.12c8.52-5.39,11.43-6.59,18.87-14l.35-.35c7.41-7.43,8.61-10.35,14-18.87L456,381.67a119.43,119.43,0,0,0,13.41-32.37l31.42-5.81c2.22-9.83,3.43-12.74,3.45-23.24v-.49C504.27,309.26,503.06,306.35,500.84,296.52ZM352.92,112.57c24.73,0,44.85,20.36,44.85,45.38V208.6a119.93,119.93,0,0,0-15.56-5.09l-5.8-31.42c-9.83-2.22-12.74-3.44-23.24-3.45h-.49c-10.5,0-13.41,1.23-23.25,3.45l-5.8,31.42a118.46,118.46,0,0,0-15.56,5.1V158C308.07,132.93,328.19,112.57,352.92,112.57Z"/><path class="cls-2" d="M247.3,191.06V124.31c0-31.25,25.1-56.59,56.06-56.59s56.06,25.34,56.06,56.59v66.75"/><path class="cls-3" d="M451.28,262.88l-31.43-5.8a119.28,119.28,0,0,0-13.4-32.37l18.11-26.33c-5.38-8.52-6.58-11.44-14-18.87l-.35-.35c-7.44-7.41-10.35-8.61-18.88-14L365,183.28a119.3,119.3,0,0,0-32.37-13.41l-5.8-31.42C317,136.23,314.1,135,303.6,135h-.49c-10.5,0-13.41,1.23-23.24,3.45l-5.8,31.42a119.3,119.3,0,0,0-32.37,13.41l-26.33-18.12c-8.52,5.39-11.43,6.59-18.87,14l-.35.35c-7.41,7.43-8.61,10.35-14,18.87l18.11,26.33a119.17,119.17,0,0,0-13.41,32.37l-31.42,5.8c-2.22,9.83-3.43,12.74-3.45,23.24v.49c0,10.5,1.23,13.41,3.45,23.25l31.42,5.8A119.3,119.3,0,0,0,200.27,348l-18.11,26.32c5.38,8.52,6.58,11.44,14,18.88l.35.34c7.44,7.42,10.35,8.62,18.87,14l26.33-18.12a119,119,0,0,0,32.37,13.41l5.8,31.43c9.83,2.21,12.74,3.43,23.24,3.45h.49c10.5,0,13.41-1.24,23.25-3.45l5.8-31.43A119,119,0,0,0,365,389.45l26.32,18.12c8.53-5.38,11.44-6.58,18.88-14l.35-.34c7.41-7.44,8.61-10.36,14-18.88L406.45,348a119.28,119.28,0,0,0,13.4-32.37l31.43-5.8c2.22-9.84,3.43-12.75,3.45-23.25v-.49C454.71,275.62,453.5,272.71,451.28,262.88Z"/><path class="cls-4" d="M419.85,257.08a119.28,119.28,0,0,0-13.4-32.37l18.11-26.33c-5.38-8.52-6.58-11.44-14-18.87l-.35-.35c-7.44-7.41-10.35-8.61-18.88-14L365,183.28c-1.72-1-3.51-2-5.28-2.91L247,392.37a119.18,119.18,0,0,0,27.09,10.49l5.8,31.43c9.83,2.21,12.74,3.43,23.24,3.45h.49c10.5,0,13.41-1.24,23.25-3.45l5.8-31.43A119,119,0,0,0,365,389.45l26.32,18.12c8.53-5.38,11.44-6.58,18.88-14l.35-.34c7.41-7.44,8.61-10.36,14-18.88L406.45,348a119.28,119.28,0,0,0,13.4-32.37l31.43-5.8c2.22-9.84,3.43-12.75,3.45-23.25v-.49c0-10.5-1.23-13.41-3.45-23.24Z"/><circle class="cls-5" cx="303.36" cy="286.37" r="52.65"/><circle class="cls-6" cx="303.36" cy="275.15" r="19.62"/><line class="cls-7" x1="303.36" y1="283.56" x2="303.36" y2="311.6"/></svg>