<svg id="Contenido" xmlns="http://www.w3.org/2000/svg" xmlns:xlink="http://www.w3.org/1999/xlink" viewBox="0 0 600 600"><defs><style>.cls-1{fill:url(#Degradado_sin_nombre_47);}.cls-2{fill:#f8cd50;}.cls-3{fill:#1464a5;}.cls-4{fill:url(#Degradado_sin_nombre_35);}.cls-5{fill:url(#Degradado_sin_nombre_8);}.cls-6{fill:#2dcccd;}</style><linearGradient id="Degradado_sin_nombre_47" x1="259.57" y1="192.24" x2="432.07" y2="516.66" gradientUnits="userSpaceOnUse"><stop offset="0" stop-color="#192647" stop-opacity="0.5"/><stop offset="1" stop-color="#192647" stop-opacity="0"/></linearGradient><linearGradient id="Degradado_sin_nombre_35" x1="430" y1="377" x2="226.6" y2="377" gradientUnits="userSpaceOnUse"><stop offset="0" stop-color="#043263" stop-opacity="0.5"/><stop offset="1" stop-color="#043263" stop-opacity="0"/></linearGradient><linearGradient id="Degradado_sin_nombre_8" x1="212.19" y1="157.26" x2="301.03" y2="204.5" gradientUnits="userSpaceOnUse"><stop offset="0" stop-color="#fff" stop-opacity="0.4"/><stop offset="1" stop-color="#ecf7f8" stop-opacity="0.1"/></linearGradient></defs><title>GLOMO</title><path class="cls-1" d="M473.33,317.82l-.08-.08-.24-.23A22.94,22.94,0,0,0,457,311L457,262a105.12,105.12,0,0,0-62.08-95.78l-.65-.28c-.61-.27-1.23-.54-1.86-.8l-.83-.34-1.72-.69-.91-.34c-.55-.21-1.11-.42-1.68-.62l-.94-.33c-.56-.2-1.13-.39-1.7-.57l-.93-.31c-.59-.19-1.19-.37-1.79-.54l-.86-.26c-.68-.2-1.36-.38-2-.56l-.64-.18c-.91-.23-1.82-.46-2.74-.67h0l-2.67-.58-.84-.16-1.9-.35-1-.17-1.74-.28-1.11-.15-1.7-.22-1.14-.13-1.7-.17-1.15-.11-1.74-.12-1.11-.07c-.64,0-1.28-.06-1.93-.08l-.94,0c-1,0-1.92,0-2.88,0h0A105.09,105.09,0,0,0,247,262V311h-4a23,23,0,0,0-23,23V413.1a129.91,129.91,0,0,0,114.9,129h0q4.78.55,9.67.75l.71,0c1.53.05,3.07.09,4.62.09h.2a129.49,129.49,0,0,0,91.34-37.54c.16-.17.33-.33.5-.49l.39-.4A129.26,129.26,0,0,0,480,413.2V334A22.94,22.94,0,0,0,473.33,317.82ZM421,311H283.05V262A69,69,0,0,1,352,193h0c1.23,0,2.46,0,3.68.1l.94.08c.91.06,1.82.12,2.72.22l.94.12c.9.11,1.8.22,2.7.37l.79.14c.94.16,1.88.34,2.81.54l.61.14c1,.22,2,.47,3,.73l.41.12c1,.29,2.08.61,3.1.95l.24.08c1.08.36,2.14.75,3.2,1.16l.09,0c1.09.43,2.18.89,3.25,1.37A69,69,0,0,1,421,262Z"/><path class="cls-2" d="M407,212a105,105,0,0,0-210,0V261h36.05V212A69,69,0,0,1,371,212V261H407Z"/><path class="cls-3" d="M193,261H407a23,23,0,0,1,23,23V363.1A129.9,129.9,0,0,1,300.1,493h-.21A129.9,129.9,0,0,1,170,363.1V284a23,23,0,0,1,23-23Z"/><path class="cls-4" d="M407,261H341.27L226.6,470.33A129.46,129.46,0,0,0,300,493h0c71.8,0,130-58.11,130-129.8V284A23,23,0,0,0,407,261Z"/><path class="cls-5" d="M302,107A105.09,105.09,0,0,0,197,212V261h36.05V212a68.91,68.91,0,0,1,97.39-62.76l16.95-31.87A104.47,104.47,0,0,0,302,107Z"/><path class="cls-6" d="M300.91,422.29a53,53,0,0,1-37.44-90.4,6.5,6.5,0,0,1,9.19,9.2,40,40,0,0,0,28.25,68.2,40.92,40.92,0,0,0,7.1-.62,6.5,6.5,0,1,1,2.3,12.79A53.6,53.6,0,0,1,300.91,422.29Z"/><path class="cls-6" d="M273.56,360.62a6.5,6.5,0,0,1-6.5-6.5V338.58H251.51a6.5,6.5,0,1,1,0-13h22.05a6.5,6.5,0,0,1,6.5,6.5v22A6.5,6.5,0,0,1,273.56,360.62Z"/><path class="cls-6" d="M333.93,408.62a6.5,6.5,0,0,1-4.59-11.09A40,40,0,0,0,294,330a6.5,6.5,0,0,1-2.3-12.8,53.65,53.65,0,0,1,9.39-.83,53,53,0,0,1,37.45,90.4A6.47,6.47,0,0,1,333.93,408.62Z"/><path class="cls-6" d="M350.49,413H328.44a6.5,6.5,0,0,1-6.5-6.5V384.49a6.5,6.5,0,0,1,13,0V400h15.55a6.5,6.5,0,0,1,0,13Z"/></svg>