<svg xmlns="http://www.w3.org/2000/svg" xmlns:xlink="http://www.w3.org/1999/xlink" viewBox="0 0 600 600"><defs><style>.cls-1{fill:none;}.cls-2{fill:url(#Degradado_sin_nombre_123);}.cls-3{fill:#f8cd50;}.cls-4{fill:url(#Degradado_sin_nombre_44);}.cls-5{fill:#043263;}.cls-6{fill:url(#Degradado_sin_nombre_59);}.cls-7{fill:#2dcccd;}.cls-8{fill:#072146;}</style><linearGradient id="Degradado_sin_nombre_123" x1="186.64" y1="-5695.84" x2="421.75" y2="-6138.03" gradientTransform="matrix(1, 0, 0, -1, 0, -5644)" gradientUnits="userSpaceOnUse"><stop offset="0" stop-color="#192647" stop-opacity="0.5"/><stop offset="1" stop-color="#192647" stop-opacity="0"/></linearGradient><linearGradient id="Degradado_sin_nombre_44" x1="241.15" y1="100" x2="298.7" y2="157.55" gradientUnits="userSpaceOnUse"><stop offset="0" stop-color="#fff" stop-opacity="0.5"/><stop offset="1" stop-color="#e8f6f7" stop-opacity="0"/></linearGradient><linearGradient id="Degradado_sin_nombre_59" x1="449.2" y1="-5958.89" x2="244.47" y2="-5958.89" gradientTransform="matrix(1, 0, 0, -1, 0, -5644)" gradientUnits="userSpaceOnUse"><stop offset="0" stop-color="#072146" stop-opacity="0.8"/><stop offset="1" stop-color="#072146" stop-opacity="0.2"/></linearGradient></defs><title>16</title><g id="Cuadrados_Blancos" data-name="Cuadrados Blancos"><rect class="cls-1" width="600" height="600"/></g><g id="Capa_9" data-name="Capa 9"><path class="cls-2" d="M488.84,318.52l-31.42-5.81A119.52,119.52,0,0,0,444,280.34L462.12,254c-5.38-8.52-6.58-11.44-14-18.88l-.35-.34c-7.44-7.41-10.35-8.61-18.87-14L408.18,235V180c0-37.39-30.17-67.8-67.27-67.8s-67.27,30.41-67.27,67.8v55.1l-20.7-14.3c-8.53,5.39-11.44,6.59-18.88,14l-.35.34c-7.41,7.44-8.61,10.36-14,18.88l18.12,26.32a119.18,119.18,0,0,0-13.41,32.37L193,318.52c-2.22,9.83-3.43,12.74-3.45,23.24v.49c0,10.5,1.23,13.41,3.45,23.24l31.43,5.81a119.18,119.18,0,0,0,13.41,32.37L219.72,430c5.38,8.52,6.58,11.44,14,18.87l.35.35c7.44,7.41,10.35,8.61,18.88,14l26.32-18.12c1.72,1,3.51,2,5.28,2.91h0c1.9,1,3.83,2,5.79,2.87.47.23,1,.44,1.43.66,1.68.76,3.38,1.49,5.11,2.17,1.05.42,2.12.8,3.18,1.19,1.3.47,2.59,1,3.91,1.38,2.52.82,5.07,1.58,7.67,2.23l5.8,31.42c9.84,2.22,12.75,3.43,23.25,3.45h.49c10.5,0,13.41-1.23,23.24-3.45l5.8-31.42a119.18,119.18,0,0,0,32.37-13.41l26.33,18.12c8.52-5.39,11.43-6.59,18.87-14l.35-.35c7.41-7.43,8.61-10.35,14-18.87L444,403.67a119.18,119.18,0,0,0,13.41-32.37l31.42-5.81c2.22-9.83,3.43-12.74,3.45-23.24v-.49C492.27,331.26,491.06,328.35,488.84,318.52ZM340.92,134.57c24.73,0,44.85,20.36,44.85,45.38V230.6a119.35,119.35,0,0,0-15.56-5.09l-5.8-31.42c-9.83-2.22-12.74-3.44-23.24-3.45h-.49c-10.5,0-13.41,1.23-23.25,3.45l-5.8,31.42a117.91,117.91,0,0,0-15.56,5.1V180C296.07,154.93,316.19,134.57,340.92,134.57Z"/><path class="cls-3" d="M366.63,204.06H344.21V137.31c0-25-20.12-45.38-44.85-45.38s-44.85,20.36-44.85,45.38v66.75H232.09V137.31c0-37.39,30.18-67.8,67.27-67.8s67.27,30.41,67.27,67.8Z"/><path class="cls-4" d="M317.44,95.8a44,44,0,0,0-18.16-3.9c-24.7,0-44.8,20.33-44.8,45.32v64.55H232.09V137.22c0-37.33,30.14-67.71,67.19-67.71A66.27,66.27,0,0,1,328,76Z"/><path class="cls-5" d="M445.79,276.84l-31-5.72a117.72,117.72,0,0,0-13.22-31.9l17.85-25.94c-5.3-8.4-6.48-11.27-13.79-18.6l-.34-.34c-7.33-7.31-10.2-8.49-18.6-13.79L360.75,198.4a117.78,117.78,0,0,0-31.9-13.22l-5.72-31c-9.69-2.19-12.55-3.38-22.9-3.4h-.49c-10.34,0-13.2,1.21-22.89,3.4l-5.73,31a117.84,117.84,0,0,0-31.89,13.22l-25.94-17.85c-8.4,5.3-11.28,6.48-18.61,13.79l-.33.34c-7.31,7.33-8.5,10.2-13.79,18.6l17.85,25.94a116.81,116.81,0,0,0-13.21,31.9l-31,5.72c-2.18,9.69-3.38,12.56-3.4,22.9v.49c0,10.34,1.22,13.21,3.4,22.9l31,5.72a116.81,116.81,0,0,0,13.21,31.9l-17.85,25.94c5.3,8.4,6.49,11.27,13.79,18.6l.33.34c7.33,7.3,10.2,8.49,18.61,13.79l25.94-17.85a117.5,117.5,0,0,0,31.89,13.21l5.73,31c9.69,2.19,12.55,3.38,22.89,3.4h.49c10.35,0,13.21-1.21,22.9-3.4l5.72-31a117.43,117.43,0,0,0,31.9-13.21l25.95,17.85c8.4-5.3,11.27-6.49,18.6-13.79l.34-.34c7.31-7.33,8.49-10.2,13.79-18.6l-17.85-25.94a117.72,117.72,0,0,0,13.22-31.9l31-5.72c2.19-9.69,3.38-12.56,3.4-22.9v-.49C449.17,289.4,448,286.53,445.79,276.84Z"/><path class="cls-6" d="M414.83,271.12a117.72,117.72,0,0,0-13.22-31.9l17.85-25.94c-5.29-8.4-6.48-11.27-13.79-18.6l-.34-.34c-7.32-7.31-10.2-8.49-18.6-13.79L360.79,198.4c-1.7-1-3.46-1.94-5.21-2.87l-111.11,209a118,118,0,0,0,26.69,10.34l5.72,31c9.69,2.19,12.56,3.38,22.9,3.4h.49c10.35,0,13.21-1.21,22.9-3.4l5.72-31a117.43,117.43,0,0,0,31.9-13.21l25.91,17.81c8.4-5.3,11.27-6.49,18.6-13.79l.34-.34c7.31-7.33,8.49-10.2,13.79-18.6l-17.85-25.94a117.72,117.72,0,0,0,13.22-31.9l31-5.72c2.19-9.69,3.38-12.56,3.4-22.9v-.49c0-10.34-1.21-13.21-3.4-22.9Z"/><circle class="cls-7" cx="300" cy="300" r="52.65"/><circle class="cls-8" cx="300" cy="288.78" r="19.62"/><path class="cls-8" d="M300,333.64a8.41,8.41,0,0,1-8.41-8.41v-28a8.41,8.41,0,0,1,16.82,0v28A8.41,8.41,0,0,1,300,333.64Z"/></g></svg>