<svg id="ead0fd75-38c6-4e8e-a688-74e34e7a0ea5" data-name="Capa 1" xmlns="http://www.w3.org/2000/svg" xmlns:xlink="http://www.w3.org/1999/xlink" viewBox="0 0 600 600"><defs><style>.e9462e1b-50cc-4514-ac5a-39d46312c752{fill:url(#b69bbbf9-fdd1-4f0a-9125-88d71490a213);}.a4238bdd-c0a2-4897-92b3-328d0ee7c286{fill:#0065aa;}.ac65f623-3473-4356-b6a0-06a17427afc8{fill:#004486;}.ffc0f007-4694-458d-912c-dc75f6763363{fill:url(#eb4ac989-482e-4a77-811a-18c65d187beb);}.a29b42e8-56fa-4e1b-aee6-b7f819c6a0fc{fill:none;}.a401cbd9-d811-4a7b-8fd0-9240dec8f7df{fill:#ed003e;}.a5b74371-60cf-4c7f-8ab8-44c9e0113fb3{fill:#fff;}</style><linearGradient id="b69bbbf9-fdd1-4f0a-9125-88d71490a213" x1="293.65" y1="427.25" x2="465.81" y2="103.44" gradientTransform="matrix(1, 0, 0, -1, 0, 602)" gradientUnits="userSpaceOnUse"><stop offset="0" stop-color="#192647"/><stop offset="0" stop-color="#192647" stop-opacity="0.5"/><stop offset="1" stop-color="#192647" stop-opacity="0"/></linearGradient><linearGradient id="eb4ac989-482e-4a77-811a-18c65d187beb" x1="458.23" y1="280.67" x2="215.8" y2="280.67" gradientTransform="matrix(1, 0, 0, -1, 0, 602)" gradientUnits="userSpaceOnUse"><stop offset="0.01" stop-color="#003267" stop-opacity="0.6"/><stop offset="1" stop-color="#003267" stop-opacity="0"/></linearGradient></defs><path class="e9462e1b-50cc-4514-ac5a-39d46312c752" d="M514.21,216.43a14.11,14.11,0,0,0-2.31-.64q-5.58-1-11-2.36a236.81,236.81,0,0,1-26.46-8.09c-1.71-.63-3.41-1.29-5.09-2-40.41-15.92-73.79-40.79-95.65-60a13.66,13.66,0,0,0-2-1.46,13.42,13.42,0,0,0-6.79-1.87h-.05A13.29,13.29,0,0,0,358,142a13.66,13.66,0,0,0-2,1.46,374.71,374.71,0,0,1-40.87,31.19q-4,2.65-8.26,5.26-6.33,3.92-13.07,7.65a283.12,283.12,0,0,1-33.45,15.85q-5.06,2-10.25,3.79c-3.46,1.19-7,2.32-10.52,3.36a221.08,221.08,0,0,1-21.81,5.25,13.68,13.68,0,0,0-7.16,3.77c-.27.27-.53.55-.78.85a13.38,13.38,0,0,0-3.13,8.6h0V335c0,1.72,0,3.44.06,5.15v1c0,1.45.08,2.9.15,4.34v.67c.08,1.58.17,3.16.28,4.74v.25a224.38,224.38,0,0,0,4.62,32.42c0,.1,0,.19.07.29.26,1.2.53,2.4.82,3.6a1.63,1.63,0,0,0,.07.3Q215,397,218,406c.07.22.14.44.22.67l1,3c.12.34.23.67.36,1,.33.94.67,1.87,1,2.8l.42,1.11c.35.92.7,1.84,1.06,2.75.13.35.28.69.41,1q1.83,4.55,3.86,9l.5,1.11c.35.76.71,1.51,1.07,2.26.25.54.5,1.07.76,1.61.34.7.69,1.4,1,2.1s.58,1.17.88,1.75.68,1.33,1,2,.65,1.23,1,1.85.67,1.26,1,1.88.75,1.34,1.12,2,.63,1.14,1,1.7c.54,1,1.1,1.91,1.66,2.86l1,1.64c.55.92,1.11,1.83,1.68,2.74l.9,1.41q.71,1.13,1.44,2.25l1,1.48c.48.72,1,1.44,1.45,2.15l1,1.47,1.53,2.18,1,1.38c.57.79,1.15,1.57,1.73,2.36l.85,1.14c.87,1.16,1.75,2.32,2.65,3.46Q260,480.39,267.23,488a216.86,216.86,0,0,0,31.32,27.12c1.12.8,2.25,1.58,3.39,2.36,1.86,1.27,3.75,2.5,5.65,3.71l2.61,1.63q6.33,3.9,12.91,7.35c1.22.64,2.44,1.26,3.66,1.87,2.46,1.22,4.93,2.4,7.43,3.52s5,2.2,7.54,3.23q9.52,3.84,19.38,6.72a13.17,13.17,0,0,0,7.31,0,208.4,208.4,0,0,0,41.63-17.28c2.4-1.31,4.78-2.68,7.14-4.09A215.81,215.81,0,0,0,462.37,488q7.19-7.56,13.68-15.84c.9-1.14,1.78-2.3,2.65-3.46l.85-1.14c.58-.79,1.16-1.57,1.73-2.36l1-1.38c.52-.72,1-1.45,1.54-2.18l1-1.47c.49-.71,1-1.43,1.45-2.15l1-1.48c.49-.75,1-1.5,1.44-2.25l.9-1.41c.57-.91,1.13-1.84,1.69-2.76.32-.53.64-1.06.95-1.59.57-1,1.14-1.92,1.69-2.89.33-.56.64-1.13,1-1.7l1.12-2c.34-.62.68-1.25,1-1.88s.66-1.23,1-1.85.69-1.33,1-2l.88-1.75c.35-.7.69-1.4,1-2.1l.77-1.61c.36-.75.72-1.5,1.07-2.26l.51-1.13q2-4.46,3.84-9l.42-1c.36-.91.71-1.83,1.06-2.75l.42-1.11c.35-.93.69-1.86,1-2.8l.36-1c.35-1,.69-2,1-3l.23-.68q3-9,5.18-18.21c0-.11.06-.21.08-.32.28-1.19.56-2.38.82-3.58a.48.48,0,0,1,.07-.3,224.38,224.38,0,0,0,4.62-32.42v-.25c.11-1.58.2-3.16.28-4.74v-.67c.06-1.44.11-2.89.15-4.34v-1c0-1.71.06-3.43.06-5.15V229h0A13.45,13.45,0,0,0,514.21,216.43Z"/><path class="a4238bdd-c0a2-4897-92b3-328d0ee7c286" d="M153,168a13.49,13.49,0,0,0-11.07,13.22v106c0,50.48,16.23,97.89,46.93,137.1a213.18,213.18,0,0,0,107.57,73.34,13,13,0,0,0,7.31,0,213.33,213.33,0,0,0,107.57-73.34c30.69-39.21,46.92-86.62,46.92-137.1v-106A13.49,13.49,0,0,0,447.11,168C387.65,156.93,338,121.22,308.87,95.67a13.4,13.4,0,0,0-17.68,0C262,121.22,212.41,156.93,153,168Z"/><path class="ac65f623-3473-4356-b6a0-06a17427afc8" d="M300,92.34a13.38,13.38,0,0,0-8.84,3.33C262,121.22,212.41,156.93,153,168a13.49,13.49,0,0,0-11.07,13.22v106q0,10.72,1,21.24H300Z"/><path class="a4238bdd-c0a2-4897-92b3-328d0ee7c286" d="M142.87,308.51a219.21,219.21,0,0,0,45.94,115.86,213.18,213.18,0,0,0,107.57,73.34,12.89,12.89,0,0,0,3.65.53V308.51Z"/><path class="a4238bdd-c0a2-4897-92b3-328d0ee7c286" d="M458.18,287.27v-106A13.49,13.49,0,0,0,447.11,168C387.65,156.93,338,121.22,308.87,95.67A13.35,13.35,0,0,0,300,92.34V308.51H457.19Q458.17,298,458.18,287.27Z"/><path class="ac65f623-3473-4356-b6a0-06a17427afc8" d="M300,308.51V498.24a13,13,0,0,0,3.66-.53,213.33,213.33,0,0,0,107.57-73.34,219.2,219.2,0,0,0,45.93-115.86Z"/><path class="ffc0f007-4694-458d-912c-dc75f6763363" d="M447.16,168c-24.32-4.54-47-13.19-67.3-23.59L215.8,453a211.21,211.21,0,0,0,80.63,44.73,13,13,0,0,0,7.31,0,213.33,213.33,0,0,0,107.57-73.34c30.69-39.21,46.92-86.62,46.92-137.1v-106A13.51,13.51,0,0,0,447.16,168Z"/><g id="b5eaa098-cda6-465d-ac96-f064676dbfa1" data-name="Cuadrados Blancos"><rect class="a29b42e8-56fa-4e1b-aee6-b7f819c6a0fc" width="600" height="600"/><rect class="a29b42e8-56fa-4e1b-aee6-b7f819c6a0fc" width="600" height="600"/></g><path class="a401cbd9-d811-4a7b-8fd0-9240dec8f7df" d="M296.59,215.37l-80.25,140a4,4,0,0,0,3.49,6h160.5a4,4,0,0,0,3.49-6L303.57,215.37a4,4,0,0,0-5.42-1.56A3.9,3.9,0,0,0,296.59,215.37Z"/><path class="a5b74371-60cf-4c7f-8ab8-44c9e0113fb3" d="M299.5,315.84a5.74,5.74,0,0,1-5.72-5.76h0V271a5.74,5.74,0,0,1,11.46-.48v39.51a5.75,5.75,0,0,1-5.74,5.77Z"/><path class="a5b74371-60cf-4c7f-8ab8-44c9e0113fb3" d="M299.51,337.38a5.75,5.75,0,0,1-4.06-1.69,5.88,5.88,0,0,1-.7-.88,5.31,5.31,0,0,1-.53-1,5.18,5.18,0,0,1-.33-1.08,6.09,6.09,0,0,1-.1-1.13,5.72,5.72,0,0,1,5.7-5.76h0a5.71,5.71,0,0,1,4.05,1.69,5.77,5.77,0,0,1-4.05,9.85Z"/></svg>