<svg xmlns="http://www.w3.org/2000/svg" xmlns:xlink="http://www.w3.org/1999/xlink" viewBox="0 0 600 600"><defs><style>.cls-1{fill:none;}.cls-2{fill:url(#Degradado_sin_nombre_96);}.cls-3{fill:#02a5a5;}.cls-4{fill:url(#Degradado_sin_nombre_9);}.cls-5{fill:#5ac4c4;}.cls-6{fill:#eaf9fa;}.cls-7{fill:#043263;}.cls-8{fill:#49a5e6;}.cls-9{opacity:0.5;isolation:isolate;fill:url(#Degradado_sin_nombre_20);}</style><linearGradient id="Degradado_sin_nombre_96" x1="182.61" y1="-381.48" x2="368.41" y2="-32.04" gradientTransform="translate(0 502)" gradientUnits="userSpaceOnUse"><stop offset="0" stop-color="#192647" stop-opacity="0.5"/><stop offset="1" stop-color="#192647" stop-opacity="0"/></linearGradient><linearGradient id="Degradado_sin_nombre_9" x1="496" y1="-202" x2="279" y2="-202" gradientTransform="translate(0 502)" gradientUnits="userSpaceOnUse"><stop offset="0" stop-color="#028484" stop-opacity="0.8"/><stop offset="1" stop-color="#028484" stop-opacity="0"/></linearGradient><linearGradient id="Degradado_sin_nombre_20" x1="81.93" y1="-291.47" x2="209.49" y2="-163.92" gradientTransform="translate(0 502)" gradientUnits="userSpaceOnUse"><stop offset="0" stop-color="#fff" stop-opacity="0.5"/><stop offset="1" stop-color="#edf8f9" stop-opacity="0.2"/><stop offset="1" stop-color="#fff" stop-opacity="0"/></linearGradient></defs><title>9</title><g id="Cuadrados_Blancos" data-name="Cuadrados Blancos"><rect class="cls-1" width="600" height="600"/></g><g id="Capa_14" data-name="Capa 14"><path class="cls-2" d="M546,261.9H357V165a23,23,0,0,0-23-23H142.2a23,23,0,0,0-23,23h0V541a23,23,0,0,0,23,23H334a23,23,0,0,0,23-23V444.1H546a3,3,0,0,0,3-3V264.9A3,3,0,0,0,546,261.9Z"/><path class="cls-3" d="M82.2,208.9H493a3,3,0,0,1,3,3V388.2a3,3,0,0,1-3,3H82.2a3,3,0,0,1-3-3V211.9A3,3,0,0,1,82.2,208.9Z"/><path class="cls-4" d="M491.8,208.9H373.6L279,391.1H491.8a4.23,4.23,0,0,0,4.2-4.2h0V213.1A4.23,4.23,0,0,0,491.8,208.9Z"/><path class="cls-5" d="M442.1,218h42.2a3,3,0,0,1,3,3v42.2a3,3,0,0,1-3,3H470.1a31,31,0,0,1-31-31V221A3,3,0,0,1,442.1,218Z"/><path class="cls-5" d="M487.3,337.2v42.2a3,3,0,0,1-3,3H442.1a3,3,0,0,1-3-3V365.2a31,31,0,0,1,31-31h14.2A3,3,0,0,1,487.3,337.2Z"/><path class="cls-5" d="M132.8,382.4H90.6a3,3,0,0,1-3-3V337.2a3,3,0,0,1,3-3h14.2a31,31,0,0,1,31,31h0v14.2A3,3,0,0,1,132.8,382.4Z"/><path class="cls-5" d="M87.6,263.2V221a3,3,0,0,1,3-3h42.2a3,3,0,0,1,3,3v14.2a31,31,0,0,1-31,31H90.6A3.08,3.08,0,0,1,87.6,263.2Z"/><path class="cls-5" d="M391.6,300.4a57.4,57.4,0,1,1-57.4-57.6,57.4,57.4,0,0,1,57.4,57.6h0"/><path class="cls-6" d="M310.7,298H302v-6.6h9.4c2.6-14.7,11.8-21.4,22.4-21.4,11.1,0,17.2,5.7,20.1,13l-8.2,4.7c-2.1-6.1-5.6-9.1-11.8-9.1-6.5,0-11.1,4.2-12.9,12.9h14.7v6.6H320.3v2.1c0,1.2,0,2.3.1,3.4h15.3v6.6H321.2c1.7,8.1,5.7,12.3,12.9,12.3,6.1,0,9.8-2.8,12.1-9.5l8.1,4.8c-3.3,7.6-10.1,13-20.2,13-11,0-19.7-6.5-22.4-20.6H302v-6.6h8.8c-.1-1-.1-2.1-.1-3.2V298Z"/><path class="cls-7" d="M92.2,89H284a23,23,0,0,1,23,23V488a23,23,0,0,1-23,23H92.2a23,23,0,0,1-23-23V112A23,23,0,0,1,92.2,89Z"/><rect class="cls-8" x="69.2" y="141.7" width="237.8" height="316.6"/><polygon class="cls-9" points="69.6 141.9 69.6 458.1 101.4 458.1 273.2 141.9 69.6 141.9"/></g></svg>