<svg xmlns="http://www.w3.org/2000/svg" xmlns:xlink="http://www.w3.org/1999/xlink" viewBox="0 0 600 600"><defs><style>.cls-1{fill:none;}.cls-2{fill:url(#Degradado_sin_nombre_118);}.cls-3{fill:#043263;}.cls-4,.cls-5{fill:#072146;}.cls-5{opacity:0.5;isolation:isolate;}</style><linearGradient id="Degradado_sin_nombre_118" x1="296.25" y1="-2408.75" x2="445.96" y2="-2690.3" gradientTransform="matrix(1, 0, 0, -1, 0, -2174)" gradientUnits="userSpaceOnUse"><stop offset="0" stop-color="#192647" stop-opacity="0.5"/><stop offset="1" stop-color="#192647" stop-opacity="0"/></linearGradient></defs><title>1</title><g id="Cuadrados_Blancos" data-name="Cuadrados Blancos"><rect class="cls-1" width="600" height="600"/></g><g id="Capa_12" data-name="Capa 12"><path class="cls-2" d="M495.65,150.25l-332.15,299a2.87,2.87,0,0,0,.29,4,3.89,3.89,0,0,0,.86.48L274.53,493l28.1,25.79,16.88-9.68,119.28,42.67a2.81,2.81,0,0,0,3.64-1.73,2.61,2.61,0,0,0,.19-.86l58.11-397.16a3,3,0,0,0-2.78-3A3.31,3.31,0,0,0,495.65,150.25Z"/><path class="cls-3" d="M437.73,68.55,106.83,365.9a2.86,2.86,0,0,0-.19,4,2.18,2.18,0,0,0,1.15.77L217,409.81l28.1,25.8L262,425.92l119.57,42.86a2.74,2.74,0,0,0,3.65-1.72c.09-.2.09-.39.19-.58L442.53,71.05a2.77,2.77,0,0,0-2.4-3.26A3.17,3.17,0,0,0,437.73,68.55Z"/><path class="cls-4" d="M410.21,126.76,245.1,435.7,262,426S410.31,126.85,410.21,126.76Z"/><path class="cls-5" d="M410.21,126.76,245.1,435.7,217,409.91S410.12,126.66,410.21,126.76Z"/></g></svg>