<?xml version="1.0" encoding="utf-8"?>
<!-- Generator: Adobe Illustrator 23.0.1, SVG Export Plug-In . SVG Version: 6.00 Build 0)  -->
<svg version="1.1" id="Capa_1" xmlns="http://www.w3.org/2000/svg" xmlns:xlink="http://www.w3.org/1999/xlink" x="0px" y="0px"
	 viewBox="0 0 600 600" style="enable-background:new 0 0 600 600;" xml:space="preserve">
<style type="text/css">
	.st0{fill-rule:evenodd;clip-rule:evenodd;fill:url(#SVGID_1_);}
	.st1{fill-rule:evenodd;clip-rule:evenodd;fill:#2DCCCD;}
	.st2{fill-rule:evenodd;clip-rule:evenodd;fill:#02A5A5;}
	.st3{opacity:0.25;fill-rule:evenodd;clip-rule:evenodd;fill:#028484;enable-background:new    ;}
</style>
<title>Mesa de trabajo 1 copia 39</title>
<g>
	<g>
		
			<linearGradient id="SVGID_1_" gradientUnits="userSpaceOnUse" x1="279.9486" y1="622.5294" x2="436.0786" y2="916.1594" gradientTransform="matrix(1 0 0 1 0 -400)">
			<stop  offset="0" style="stop-color:#192647"/>
			<stop  offset="0" style="stop-color:#192647;stop-opacity:0.5"/>
			<stop  offset="1" style="stop-color:#192647;stop-opacity:0"/>
		</linearGradient>
		<path class="st0" d="M487.9,134.4L141.5,446.2c-1.1,1.3-0.9,3.1,0.3,4.2c0.3,0.2,0.6,0.4,0.9,0.5l114.6,41l29.3,26.9l17.6-10.1
			l124.4,44.5c1.6,0.6,3.3-0.3,3.8-1.8c0.1-0.3,0.2-0.6,0.2-0.9l60.6-414.2c0-1.7-1.3-3-2.9-3.1
			C489.3,133.3,488.5,133.7,487.9,134.4z"/>
		<path class="st1" d="M427.5,49.2L82.4,359.3c-1.2,1.1-1.3,3-0.2,4.2c0.3,0.4,0.8,0.7,1.2,0.8l113.9,40.8l29.3,26.9l17.6-10.1
			l124.7,44.7c1.6,0.6,3.3-0.2,3.8-1.8c0.1-0.2,0.1-0.4,0.2-0.6l59.6-412.4c0.3-1.6-0.8-3.2-2.5-3.4
			C429.1,48.3,428.2,48.6,427.5,49.2z"/>
		<path class="st2" d="M398.8,109.9L226.6,432.1l17.6-10.1C244.2,422,398.9,110,398.8,109.9z"/>
		<path class="st3" d="M398.8,109.9L226.6,432.1l-29.3-26.9C197.3,405.2,398.7,109.8,398.8,109.9z"/>
	</g>
</g>
</svg>
