<?xml version="1.0" encoding="utf-8"?>
<!-- Generator: Adobe Illustrator 23.0.1, SVG Export Plug-In . SVG Version: 6.00 Build 0)  -->
<svg version="1.1" id="Capa_1" xmlns="http://www.w3.org/2000/svg" xmlns:xlink="http://www.w3.org/1999/xlink" x="0px" y="0px"
	 viewBox="0 0 600 600" style="enable-background:new 0 0 600 600;" xml:space="preserve">
<style type="text/css">
	.st0{fill-rule:evenodd;clip-rule:evenodd;fill:url(#SVGID_1_);}
	.st1{fill:#02A5A5;}
	.st2{fill:url(#SVGID_2_);}
	.st3{fill:#5AC4C4;}
	.st4{fill:#EAF9FA;}
	.st5{fill:#1464A5;}
	.st6{fill:#49A5E6;}
	.st7{opacity:0.5;fill-rule:evenodd;clip-rule:evenodd;fill:url(#SVGID_3_);enable-background:new    ;}
</style>
<title>Mesa de trabajo 1 copia 14</title>
<linearGradient id="SVGID_1_" gradientUnits="userSpaceOnUse" x1="182.6091" y1="981.4849" x2="368.4091" y2="632.0449" gradientTransform="matrix(1 0 0 -1 0 1102)">
	<stop  offset="0" style="stop-color:#192647"/>
	<stop  offset="0" style="stop-color:#192647;stop-opacity:0.5"/>
	<stop  offset="1" style="stop-color:#192647;stop-opacity:0"/>
</linearGradient>
<path class="st0" d="M546,261.9H357V165c0-12.7-10.3-23-23-23l0,0H142.2c-12.7,0-23,10.3-23,23l0,0v376c0,12.7,10.3,23,23,23H334
	c12.7,0,23-10.3,23-23v-96.9h189c1.7,0,3-1.3,3-3V264.9C549,263.2,547.7,261.9,546,261.9z"/>
<path class="st1" d="M82.2,208.9H493c1.7,0,3,1.3,3,3v176.3c0,1.7-1.3,3-3,3H82.2c-1.7,0-3-1.3-3-3V211.9
	C79.2,210.2,80.6,208.9,82.2,208.9z"/>
<linearGradient id="SVGID_2_" gradientUnits="userSpaceOnUse" x1="496" y1="802" x2="279" y2="802" gradientTransform="matrix(1 0 0 -1 0 1102)">
	<stop  offset="0" style="stop-color:#028484;stop-opacity:0.8"/>
	<stop  offset="1" style="stop-color:#028484;stop-opacity:0"/>
</linearGradient>
<path class="st2" d="M491.8,208.9H373.6L279,391.1h212.8c2.3,0,4.2-1.9,4.2-4.2l0,0V213.1C496,210.8,494.1,208.9,491.8,208.9z"/>
<path class="st3" d="M442.1,218h42.2c1.7,0,3,1.3,3,3v42.2c0,1.7-1.3,3-3,3h-14.2c-17.1,0-31-13.9-31-31V221
	C439.1,219.3,440.5,218,442.1,218z"/>
<path class="st3" d="M487.3,337.2v42.2c0,1.7-1.3,3-3,3h-42.2c-1.7,0-3-1.3-3-3v-14.2c0-17.1,13.9-31,31-31l0,0h14.2
	C486,334.2,487.3,335.6,487.3,337.2z"/>
<path class="st3" d="M132.8,382.4H90.6c-1.7,0-3-1.3-3-3v-42.2c0-1.7,1.3-3,3-3h14.2c17.1,0,31,13.9,31,31l0,0v14.2
	C135.8,381.1,134.5,382.4,132.8,382.4z"/>
<path class="st3" d="M87.6,263.2V221c0-1.7,1.3-3,3-3h42.2c1.7,0,3,1.3,3,3v14.2c0,17.1-13.9,31-31,31H90.6
	C89,266.2,87.6,264.8,87.6,263.2z"/>
<path class="st3" d="M391.6,300.4c-0.1,31.7-25.9,57.3-57.6,57.2c-31.7-0.1-57.3-25.9-57.2-57.6c0.1-31.6,25.8-57.2,57.4-57.2
	C365.9,242.9,391.7,268.7,391.6,300.4L391.6,300.4"/>
<g>
	<path class="st4" d="M310.7,298H302v-6.6h9.4c2.6-14.7,11.8-21.4,22.4-21.4c11.1,0,17.2,5.7,20.1,13l-8.2,4.7
		c-2.1-6.1-5.6-9.1-11.8-9.1c-6.5,0-11.1,4.2-12.9,12.9h14.7v6.6h-15.4v2.1c0,1.2,0,2.3,0.1,3.4h15.3v6.6h-14.5
		c1.7,8.1,5.7,12.3,12.9,12.3c6.1,0,9.8-2.8,12.1-9.5l8.1,4.8c-3.3,7.6-10.1,13-20.2,13c-11,0-19.7-6.5-22.4-20.6H302v-6.6h8.8
		c-0.1-1-0.1-2.1-0.1-3.2L310.7,298L310.7,298z"/>
</g>
<path class="st5" d="M92.2,89H284c12.7,0,23,10.3,23,23v376c0,12.7-10.3,23-23,23H92.2c-12.7,0-23-10.3-23-23V112
	C69.2,99.3,79.5,89,92.2,89z"/>
<rect x="69.2" y="141.7" class="st6" width="237.8" height="316.6"/>
<linearGradient id="SVGID_3_" gradientUnits="userSpaceOnUse" x1="81.9265" y1="891.4665" x2="209.4865" y2="763.9165" gradientTransform="matrix(1 0 0 -1 0 1102)">
	<stop  offset="0" style="stop-color:#FFFFFF;stop-opacity:0.5"/>
	<stop  offset="1" style="stop-color:#EDF8F9;stop-opacity:0.2"/>
	<stop  offset="1" style="stop-color:#FFFFFF;stop-opacity:0"/>
</linearGradient>
<polygon class="st7" points="69.6,141.9 69.6,458.1 101.4,458.1 273.2,141.9 "/>
</svg>
