<svg xmlns="http://www.w3.org/2000/svg" xmlns:xlink="http://www.w3.org/1999/xlink" viewBox="0 0 600 600"><defs><style>.cls-1{fill:none;}.cls-2{fill:url(#Degradado_sin_nombre_185);}.cls-3{fill:#072146;}.cls-4{fill:#004481;}.cls-5{fill:#043263;}.cls-6{fill:#2dcccd;}.cls-6,.cls-7,.cls-8{fill-rule:evenodd;}.cls-7{fill:#02a5a5;}.cls-8{fill:#028484;opacity:0.25;isolation:isolate;}</style><linearGradient id="Degradado_sin_nombre_185" x1="270.23" y1="-14895.19" x2="449.85" y2="-15233.01" gradientTransform="matrix(1, 0, 0, -1, 0, -14660.25)" gradientUnits="userSpaceOnUse"><stop offset="0" stop-color="#1c2645" stop-opacity="0.5"/><stop offset="1" stop-color="#1c2645" stop-opacity="0"/></linearGradient></defs><g id="Cuadrados_Blancos" data-name="Cuadrados Blancos"><rect class="cls-1" width="600" height="600"/></g><g id="Capa_133" data-name="Capa 133"><path class="cls-2" d="M510.39,311.16l-66.06-46,18.76-129.85a1.57,1.57,0,0,0-1.25-1.83l-.11,0a1.78,1.78,0,0,0-1.36.44l-89.31,80.25-7.51-5.23a24,24,0,0,0-27.42,0L189.29,311.16A23,23,0,0,0,179.43,330V521.5a23,23,0,0,0,23,23H497.25a23,23,0,0,0,23-23h0V330A23,23,0,0,0,510.39,311.16Z"/><path class="cls-3" d="M139.45,264.28,286.29,162a24,24,0,0,1,27.42,0L460.55,264.28a23,23,0,0,1,9.86,18.87V392.32H129.59V283.15A23,23,0,0,1,139.45,264.28Z"/><path class="cls-4" d="M297.84,374.68l-168.25-75.5V474.62a23,23,0,0,0,23,23H273a24.8,24.8,0,0,0,24.8-24.8h0Z"/><path class="cls-4" d="M302.16,374.68l168.25-75.5V474.62a23,23,0,0,1-23,23H327a24.8,24.8,0,0,1-24.8-24.8h0Z"/><path class="cls-5" d="M470.41,472.82,312.65,369a23,23,0,0,0-25.3,0L129.59,472.82v1.8a23,23,0,0,0,23,23H447.41a23,23,0,0,0,23-23Z"/><path class="cls-6" d="M407.81,102.85,221.15,270.58a1.61,1.61,0,0,0-.11,2.27,1.25,1.25,0,0,0,.65.43l61.61,22.07,15.84,14.55,9.52-5.46,67.45,24.17a1.55,1.55,0,0,0,2-.84s0-.1.05-.16.07-.21.11-.32l32.23-223.07a1.56,1.56,0,0,0-1.26-1.82l-.09,0A1.76,1.76,0,0,0,407.81,102.85Z"/><path class="cls-7" d="M392.28,135.68,299.14,310l9.52-5.46S392.34,135.73,392.28,135.68Z"/><path class="cls-8" d="M392.28,135.68,299.14,310,283.3,295.4S392.23,135.62,392.28,135.68Z"/></g></svg>