<svg xmlns="http://www.w3.org/2000/svg" xmlns:xlink="http://www.w3.org/1999/xlink" viewBox="0 0 600 600"><defs><style>.cls-1{fill:none;}.cls-2{fill:url(#Degradado_sin_nombre);}.cls-3{fill:#043263;}.cls-4{fill:#49a5e6;}.cls-5{opacity:0.5;isolation:isolate;fill:url(#Degradado_sin_nombre_2);}.cls-6{fill:#f9ce42;}.cls-7{fill:url(#Degradado_sin_nombre_3);}.cls-8{fill:#004283;}.cls-9{fill:#1bccce;}</style><linearGradient id="Degradado_sin_nombre" x1="241.1" y1="482.39" x2="467.57" y2="56.1" gradientTransform="matrix(1, 0, 0, -1, 0, 602)" gradientUnits="userSpaceOnUse"><stop offset="0" stop-color="#192647"/><stop offset="0" stop-color="#192647" stop-opacity="0.5"/><stop offset="1" stop-color="#192647" stop-opacity="0"/></linearGradient><linearGradient id="Degradado_sin_nombre_2" x1="215.96" y1="1171.76" x2="370.22" y2="1326.02" gradientTransform="translate(0 -956)" gradientUnits="userSpaceOnUse"><stop offset="0" stop-color="#fff" stop-opacity="0.5"/><stop offset="1" stop-color="#ecf7f8" stop-opacity="0.1"/></linearGradient><linearGradient id="Degradado_sin_nombre_3" x1="368.66" y1="353.66" x2="438.31" y2="284.01" gradientTransform="matrix(1, 0, 0, -1, 0, 602)" gradientUnits="userSpaceOnUse"><stop offset="0" stop-color="#fff" stop-opacity="0.6"/><stop offset="1" stop-color="#fff" stop-opacity="0.1"/></linearGradient></defs><title>peticion_Send Bizum</title><g id="Capa_2" data-name="Capa 2"><rect class="cls-1" width="600" height="600"/></g><g id="Capa_1" data-name="Capa 1"><path class="cls-2" d="M580.66,341.76,497.24,275a3,3,0,0,0-4.87,2.34V316.1H469.63v-146a22.13,22.13,0,0,0-22.1-22.1H262.59a22.13,22.13,0,0,0-22.06,22.2h0v362a22.12,22.12,0,0,0,22.1,22.1h184.9a22.12,22.12,0,0,0,22.1-22.1v-146h22.74V425a3,3,0,0,0,4.87,2.34l83.42-66.72a12,12,0,0,0,0-18.81Z"/><path class="cls-3" d="M207.5,96.85H392.4A22.13,22.13,0,0,1,414.5,119V481a22.12,22.12,0,0,1-22.1,22.1H207.5A22.12,22.12,0,0,1,185.4,481V119a22.13,22.13,0,0,1,22.06-22.2h0Z"/><rect class="cls-4" x="185.4" y="147.85" width="229.2" height="304.3"/><polygon class="cls-5" points="185.7 148.05 185.7 451.95 302.5 452.15 414.5 245.15 414.5 147.85 185.7 148.05"/><path class="cls-6" d="M525.53,290.63,442.12,223.9a3,3,0,0,0-4.88,2.35V265h-84a3,3,0,0,0-3,3v64a3,3,0,0,0,3,3h84v38.75a3,3,0,0,0,4.88,2.35l83.41-66.73a12,12,0,0,0,1.87-16.87A11.81,11.81,0,0,0,525.53,290.63Z"/><path class="cls-7" d="M442.12,223.9a3,3,0,0,0-4.88,2.35V265h-84a3,3,0,0,0-3,3v64a3,3,0,0,0,3,3H421.3L469,245.37Z"/><circle class="cls-8" cx="300" cy="300" r="65"/><path class="cls-9" d="M283.51,314.85l25.91-35.57a5.56,5.56,0,0,1,7.75-1.22h0a5.55,5.55,0,0,1,1.22,7.76l-25.9,35.57a5.56,5.56,0,0,1-7.76,1.22h0A5.56,5.56,0,0,1,283.51,314.85Z"/><path class="cls-9" d="M285.32,282.45l6.46-8.88a5.53,5.53,0,0,1,7.73-1.22h0a5.52,5.52,0,0,1,1.23,7.73L294.29,289a5.55,5.55,0,0,1-7.74,1.22h0A5.54,5.54,0,0,1,285.32,282.45Z"/><circle class="cls-9" cx="279.84" cy="271.72" r="5.54"/><path class="cls-9" d="M299.25,319.83,305.7,311a5.55,5.55,0,0,1,7.74-1.23h0a5.54,5.54,0,0,1,1.23,7.74l-6.46,8.89a5.54,5.54,0,0,1-7.74,1.22h0A5.54,5.54,0,0,1,299.25,319.83Z"/><circle class="cls-9" cx="320.16" cy="328.28" r="5.54"/></g></svg>