<svg xmlns="http://www.w3.org/2000/svg" xmlns:xlink="http://www.w3.org/1999/xlink" viewBox="0 0 600 600"><defs><style>.cls-1{fill:none;}.cls-2{fill:url(#Degradado_sin_nombre_11);}.cls-3{fill:#043263;}.cls-4{fill:#49a5e6;}.cls-5{fill:#072146;}.cls-6{fill:#5ac4c4;}.cls-7{opacity:0.5;isolation:isolate;fill:url(#Degradado_sin_nombre_10);}.cls-8{fill:#e87d8e;}.cls-9{fill:#e7e7e7;}.cls-10{fill:#cbb594;}.cls-11{fill:#a3a2a1;}.cls-12{fill:#efdbb8;}.cls-13{fill:#424242;}.cls-14{fill:#d0d0d0;}.cls-15{fill:#babab9;}.cls-16{fill:#2dcccd;}.cls-17{fill:url(#Degradado_sin_nombre_12);}.cls-18{fill:#028484;}</style><linearGradient id="Degradado_sin_nombre_11" x1="230.89" y1="171.87" x2="404.43" y2="498.26" gradientUnits="userSpaceOnUse"><stop offset="0" stop-color="#192647"/><stop offset="0" stop-color="#192647" stop-opacity="0.5"/><stop offset="1" stop-color="#192647" stop-opacity="0"/></linearGradient><linearGradient id="Degradado_sin_nombre_10" x1="205.41" y1="212.87" x2="326.45" y2="333.91" gradientUnits="userSpaceOnUse"><stop offset="0" stop-color="#eaf9fa"/><stop offset="1" stop-color="#eaf9fa" stop-opacity="0.2"/><stop offset="1" stop-color="#eaf9fa" stop-opacity="0.5"/></linearGradient><linearGradient id="Degradado_sin_nombre_12" x1="436.09" y1="-7175.53" x2="370.35" y2="-7175.53" gradientTransform="matrix(1, 0, 0, -1, -130.28, -7014.07)" gradientUnits="userSpaceOnUse"><stop offset="0.01" stop-color="#028484" stop-opacity="0.6"/><stop offset="1" stop-color="#028484" stop-opacity="0.1"/></linearGradient></defs><title>16</title><g id="Cuadrados_Blancos" data-name="Cuadrados Blancos"><rect class="cls-1" width="600" height="600"/></g><g id="Capa_10" data-name="Capa 10"><path class="cls-2" d="M518.25,433.21v-7.84a2.16,2.16,0,0,0-2.2-2.2H499.1a15.4,15.4,0,0,0,.59-4.11V228.59a16.87,16.87,0,0,0-16.87-16.87H186.52a16.88,16.88,0,0,0-16.87,16.87V419.06a15.4,15.4,0,0,0,.59,4.11H153.08a2.16,2.16,0,0,0-2.2,2.2v7.84H142a2.17,2.17,0,0,0-2.2,2.2V453a2.17,2.17,0,0,0,2.2,2.2H525.8A2.16,2.16,0,0,0,528,453V435.41a2.16,2.16,0,0,0-2.2-2.2Z"/><path class="cls-3" d="M149.12,175.78h296.3a16.88,16.88,0,0,1,16.87,16.87h0V398.82h-330V192.65A16.87,16.87,0,0,1,149.12,175.78Z"/><path class="cls-4" d="M154,190.45h286a7.36,7.36,0,0,1,7.34,7.34V365a7.36,7.36,0,0,1-7.34,7.33H154A7.35,7.35,0,0,1,146.7,365V197.79A7.36,7.36,0,0,1,154,190.45Z"/><path class="cls-3" d="M104.6,397.28H488.4a2.16,2.16,0,0,1,2.2,2.2v17.6a2.17,2.17,0,0,1-2.2,2.2H104.6a2.16,2.16,0,0,1-2.2-2.2v-17.6A2.2,2.2,0,0,1,104.6,397.28Z"/><path class="cls-5" d="M480.84,397.28H113.4v-7.85a2.16,2.16,0,0,1,2.2-2.2h363a2.16,2.16,0,0,1,2.2,2.2Z"/><path class="cls-6" d="M322.13,404.61h-47.6a7.35,7.35,0,0,1-7.33-7.33h62.26A7.4,7.4,0,0,1,322.13,404.61Z"/><path class="cls-7" d="M154,372.34H299.25l97.62-181.89H154a7.36,7.36,0,0,0-7.33,7.34V365A7.35,7.35,0,0,0,154,372.34Z"/><rect class="cls-3" x="174.02" y="179.41" width="229.87" height="14.13" transform="translate(-47.23 258.94) rotate(-45)"/><path class="cls-8" d="M372.41,93l2-2a14.14,14.14,0,0,1,20,0h0l-12,12h0l-10-10Z"/><polygon class="cls-9" points="365.24 100.21 375.23 110.21 382.4 103.04 372.41 93.04 365.24 100.21"/><polygon class="cls-10" points="202.69 262.76 198.55 276.64 195.65 287.15 196.98 288.45 212.68 272.75 202.69 262.76"/><path class="cls-10" d="M205.87,262.09l-3.18.67,10,10,.68-3.18a2.11,2.11,0,0,0-1.6-2.49,2.22,2.22,0,0,0-.89,0l-3.17.66.66-3.16a2.09,2.09,0,0,0-1.6-2.49A1.91,1.91,0,0,0,205.87,262.09Z"/><rect class="cls-5" x="184.02" y="189.42" width="229.87" height="14.13" transform="translate(-51.37 268.94) rotate(-45)"/><path class="cls-8" d="M382.41,103l11.94-12h0a14.12,14.12,0,0,1,0,20h0l-2,2h0l-10-10Z"/><polygon class="cls-11" points="385.22 120.2 375.23 110.21 382.4 103.04 392.4 113.02 385.22 120.2"/><polygon class="cls-12" points="222.67 282.75 208.79 286.88 198.29 289.79 196.98 288.45 212.68 272.75 222.67 282.75"/><path class="cls-13" d="M200.49,284.48l-3.25-3.23-1.37,4.95a2.71,2.71,0,0,0,3.33,3.33l5-1.37Z"/><path class="cls-12" d="M223.39,279.56l-.67,3.19-10-10,3.18-.67a2.09,2.09,0,0,1,2.49,1.6,2.22,2.22,0,0,1,0,.89l-.66,3.16,3.17-.66a2.09,2.09,0,0,1,2.52,1.54A2,2,0,0,1,223.39,279.56Z"/><path class="cls-14" d="M393.42,290.72l5.05-5.07a2.14,2.14,0,0,0,0-3h0l-8.11,8.11h0a2.14,2.14,0,0,0,3,0Z"/><path class="cls-15" d="M307.34,206.66l61.23,61.24a5.21,5.21,0,0,0,.08,7.35,5.56,5.56,0,0,0,.66.54l21,14.92,8.12-8.12L383.4,261.71a5.19,5.19,0,0,0-7.23-1.3,5.07,5.07,0,0,0-.66.55l-61.24-61.25Z"/><rect class="cls-16" x="286.82" y="188.51" width="35.81" height="17.19" rx="7.25" transform="translate(-50.12 273.21) rotate(-45)"/><path class="cls-16" d="M224.79,91.87l77.6,77.6a9,9,0,0,1,0,12.75l-12.57,12.57a9,9,0,0,1-12.75,0l-77.6-77.6a14.44,14.44,0,0,1,0-20.41l4.92-4.91A14.41,14.41,0,0,1,224.79,91.87Z"/><path class="cls-17" d="M303.7,170.78l-46-46.07-17.59,33.06,38.33,38.34a7.16,7.16,0,0,0,10.12,0h0l15.19-15.2a7.15,7.15,0,0,0,0-10.12Z"/><rect class="cls-18" x="250.5" y="81.21" width="7.16" height="110.27" rx="3.02" transform="translate(-21.99 219.6) rotate(-45)"/><rect class="cls-18" x="240.37" y="91.34" width="7.16" height="110.27" rx="3.02" transform="translate(-32.12 215.4) rotate(-45)"/><rect class="cls-18" x="286.99" y="187.98" width="20.77" height="3.58" transform="translate(-47.09 265.86) rotate(-45)"/></g></svg>