<svg id="Contenido" xmlns="http://www.w3.org/2000/svg" xmlns:xlink="http://www.w3.org/1999/xlink" viewBox="0 0 600 600"><defs><style>.cls-1{fill:url(#Degradado_sin_nombre_7);}.cls-2{fill:#1464a5;}.cls-3{fill:#49a5e6;}.cls-4{fill:#043263;}.cls-5{fill:#5ac4c4;}.cls-6{fill-rule:evenodd;opacity:0.5;fill:url(#Degradado_sin_nombre_31);}.cls-7{fill:#e87d8e;}.cls-8{fill:#e7e7e7;}.cls-9{fill:#cbb594;}.cls-10{fill:#a3a2a1;}.cls-11{fill:#efdbb8;}.cls-12{fill:#424242;}.cls-13{fill:#d0d0d0;}.cls-14{fill:#babab9;}.cls-15{fill:#2dcccd;}.cls-16{fill:url(#Degradado_sin_nombre_49);}.cls-17{fill:#028484;}</style><linearGradient id="Degradado_sin_nombre_7" x1="216.99" y1="186.51" x2="437.25" y2="600.76" gradientUnits="userSpaceOnUse"><stop offset="0" stop-color="#192647"/><stop offset="0" stop-color="#192647" stop-opacity="0.5"/><stop offset="1" stop-color="#192647" stop-opacity="0"/></linearGradient><linearGradient id="Degradado_sin_nombre_31" x1="175.83" y1="278.43" x2="331.88" y2="361.41" gradientUnits="userSpaceOnUse"><stop offset="0" stop-color="#eaf9fa"/><stop offset="1" stop-color="#e4f8f8" stop-opacity="0.2"/><stop offset="1" stop-color="#eaf9fa" stop-opacity="0.5"/></linearGradient><linearGradient id="Degradado_sin_nombre_49" x1="439.67" y1="328.64" x2="366.78" y2="328.64" gradientTransform="translate(-130.28 -130.07)" gradientUnits="userSpaceOnUse"><stop offset="0.01" stop-color="#028484" stop-opacity="0.6"/><stop offset="1" stop-color="#028484" stop-opacity="0.1"/></linearGradient></defs><title>0</title><path class="cls-1" d="M562.07,510.06H553v-8.59a2.42,2.42,0,0,0-2.43-2.41H532.5V286.51a22.45,22.45,0,0,0-22.45-22.45H386.22l61.24-61.24h0l8-8h0l2.17-2.17a15.67,15.67,0,0,0,0-22.16h0a15.67,15.67,0,0,0-22.16,0l-2.17,2.17h0l-8,8h0L352.06,253.9l-82.51-82.5a16,16,0,0,0-22.63,0l-5.45,5.44a16,16,0,0,0,0,22.63l64.59,64.59H190a22.45,22.45,0,0,0-22.45,22.45V499.06H149.43a2.42,2.42,0,0,0-2.43,2.41v8.59h-9.07a2.42,2.42,0,0,0-2.43,2.41v19.19a2.41,2.41,0,0,0,2.43,2.4H562.07a2.41,2.41,0,0,0,2.43-2.4V512.47A2.42,2.42,0,0,0,562.07,510.06Z"/><path class="cls-2" d="M139.95,214.06h320.1a22.45,22.45,0,0,1,22.45,22.45V449.06a0,0,0,0,1,0,0h-365a0,0,0,0,1,0,0V236.51A22.45,22.45,0,0,1,139.95,214.06Z"/><rect class="cls-3" x="133.5" y="231.06" width="333" height="201" rx="10"/><path class="cls-2" d="M512.07,484.06H87.93a2.41,2.41,0,0,1-2.43-2.4V462.47a2.42,2.42,0,0,1,2.43-2.41H512.07a2.42,2.42,0,0,1,2.43,2.41v19.19A2.41,2.41,0,0,1,512.07,484.06Z"/><path class="cls-4" d="M503,460.06H97v-8.59a2.42,2.42,0,0,1,2.43-2.41H500.57a2.42,2.42,0,0,1,2.43,2.41Z"/><path class="cls-5" d="M326,468.06H274a8,8,0,0,1-8-8h68A8,8,0,0,1,326,468.06Z"/><path class="cls-6" d="M143.49,432.06h158.9l108.11-201h-267a10,10,0,0,0-10,10v181A10,10,0,0,0,143.49,432.06Z"/><rect class="cls-2" x="163.25" y="218.49" width="254.92" height="15.67" transform="translate(-74.89 271.85) rotate(-45)"/><path class="cls-7" d="M386.05,113.78h3.07a15.67,15.67,0,0,1,15.67,15.67v0a0,0,0,0,1,0,0H386.05a0,0,0,0,1,0,0V113.78A0,0,0,0,1,386.05,113.78Z" transform="translate(29.82 315.23) rotate(-45)"/><polygon class="cls-8" points="375.3 130.66 386.38 141.74 394.33 133.79 383.26 122.7 375.3 130.66"/><polygon class="cls-9" points="195.04 310.92 190.45 326.31 187.23 337.96 188.71 339.41 206.12 322 195.04 310.92"/><path class="cls-9" d="M198.57,310.17l-3.53.75L206.12,322l.75-3.53a2.32,2.32,0,0,0-2.76-2.76l-3.51.73.73-3.51A2.32,2.32,0,0,0,198.57,310.17Z"/><rect class="cls-4" x="174.33" y="229.58" width="254.92" height="15.67" transform="translate(-79.48 282.94) rotate(-45)"/><path class="cls-7" d="M397.14,124.86h18.74a0,0,0,0,1,0,0v0a15.67,15.67,0,0,1-15.67,15.67h-3.07a0,0,0,0,1,0,0V124.86A0,0,0,0,1,397.14,124.86Z" transform="translate(25.23 326.31) rotate(-45)"/><polygon class="cls-10" points="397.46 152.82 386.38 141.74 394.33 133.79 405.42 144.86 397.46 152.82"/><polygon class="cls-11" points="217.2 333.08 201.81 337.67 190.16 340.89 188.71 339.41 206.12 322 217.2 333.08"/><path class="cls-12" d="M192.6,335,189,331.42l-1.52,5.49a3,3,0,0,0,3.69,3.69l5.49-1.52Z"/><path class="cls-11" d="M218,329.55l-.75,3.53L206.12,322l3.53-.75a2.32,2.32,0,0,1,2.76,2.76l-.73,3.51,3.51-.73A2.32,2.32,0,0,1,218,329.55Z"/><path class="cls-13" d="M406.55,341.92l5.61-5.62a2.38,2.38,0,0,0,0-3.36h0l-9,9h0A2.38,2.38,0,0,0,406.55,341.92Z"/><path class="cls-14" d="M311.1,248.7,379,316.62a5.76,5.76,0,0,0,.82,8.75l23.33,16.54,9-9-16.71-23.16a5.76,5.76,0,0,0-8.75-.83L318.78,241Z"/><rect class="cls-15" x="298.67" y="218.27" width="19.06" height="39.71" rx="8.04" transform="translate(357.75 624.42) rotate(-135)"/><path class="cls-15" d="M188.57,156.49H310.27a10,10,0,0,1,10,10v19.71a10,10,0,0,1-10,10H188.57a16,16,0,0,1-16-16v-7.71a16,16,0,0,1,16-16Z" transform="translate(196.87 -122.59) rotate(45)"/><path class="cls-16" d="M307.06,208.91,256,157.83l-19.5,36.66L279,237a7.94,7.94,0,0,0,11.23,0l16.84-16.85A7.94,7.94,0,0,0,307.06,208.91Z"/><rect class="cls-17" x="190.89" y="166.76" width="122.29" height="7.94" rx="3.35" transform="translate(194.54 -128.21) rotate(45)"/><rect class="cls-17" x="179.66" y="177.99" width="122.29" height="7.94" rx="3.35" transform="translate(199.19 -116.98) rotate(45)"/><rect class="cls-17" x="298.07" y="218.46" width="3.97" height="23.03" transform="translate(349.6 604.76) rotate(-135)"/></svg>