<svg xmlns="http://www.w3.org/2000/svg" xmlns:xlink="http://www.w3.org/1999/xlink" viewBox="0 0 600 600"><defs><style>.cls-1{fill:none;}.cls-2{fill:url(#Degradado_sin_nombre_4);}.cls-3{fill:url(#Degradado_sin_nombre_4-2);}.cls-4{fill:url(#Degradado_sin_nombre_7);}.cls-5{fill:#004481;}.cls-6{fill:#2dcccd;}.cls-7{fill:#043263;}.cls-8{clip-path:url(#clip-path);}.cls-9{fill:url(#Degradado_sin_nombre_65);}</style><linearGradient id="Degradado_sin_nombre_4" x1="134.76" y1="-7435.22" x2="361.75" y2="-7862.13" gradientTransform="matrix(1, 0, 0, -1, 0, -7284)" gradientUnits="userSpaceOnUse"><stop offset="0" stop-color="#192647"/><stop offset="0" stop-color="#192647" stop-opacity="0.5"/><stop offset="1" stop-color="#192647" stop-opacity="0"/></linearGradient><linearGradient id="Degradado_sin_nombre_4-2" x1="278.05" y1="-7372.03" x2="504.9" y2="-7798.67" xlink:href="#Degradado_sin_nombre_4"/><linearGradient id="Degradado_sin_nombre_7" x1="253.64" y1="-7380.8" x2="480.97" y2="-7808.35" gradientTransform="matrix(1, 0, 0, -1, 0, -7284)" gradientUnits="userSpaceOnUse"><stop offset="0" stop-color="#192647"/><stop offset="0" stop-color="#192647" stop-opacity="0.3"/><stop offset="1" stop-color="#192647" stop-opacity="0"/></linearGradient><clipPath id="clip-path"><path class="cls-1" d="M520.1,375.5a149.16,149.16,0,0,0,.4-63.1l-35.1-4.5a115.78,115.78,0,0,0-6.6-16.3l21.9-28a149.49,149.49,0,0,0-45.4-45.9l-28.1,21.6a113.41,113.41,0,0,0-15.7-6.6l-4.3-35.2a150.77,150.77,0,0,0-65.5,0l-3.4,34.9a103.16,103.16,0,0,0-17.5,7.4L292,218.7a149.73,149.73,0,0,0-43.3,43.9l21.8,27.8a124.3,124.3,0,0,0-7.3,17.7l-35,4.6a148,148,0,0,0-3.1,30.4,154.26,154.26,0,0,0,3.7,33.2l35.2,4a107.31,107.31,0,0,0,6.6,15.6l-21.5,28.4a148.45,148.45,0,0,0,45.4,44.9l28.4-21.6a127.25,127.25,0,0,0,14.8,6l4,35.1a151.06,151.06,0,0,0,64.2.3l5.5-35.5a119.2,119.2,0,0,0,15.2-6.4l27.1,22.3a150.52,150.52,0,0,0,45.4-44.5l-22-27.1a116.53,116.53,0,0,0,7.4-17Z"/></clipPath><linearGradient id="Degradado_sin_nombre_65" x1="639.6" y1="-7638.99" x2="287.56" y2="-7638.99" gradientTransform="matrix(1, 0, 0, -1, 0, -7284)" gradientUnits="userSpaceOnUse"><stop offset="0" stop-color="#072146" stop-opacity="0.8"/><stop offset="1" stop-color="#072146" stop-opacity="0.2"/></linearGradient></defs><title>16</title><g id="Cuadrados_Blancos" data-name="Cuadrados Blancos"><rect class="cls-1" width="600" height="600"/></g><g id="Capa_11" data-name="Capa 11"><path class="cls-2" d="M285.9,328.9l-15.1-17.5a79.4,79.4,0,0,0,4.5-11.4l23.3-4.2a97.28,97.28,0,0,0-1.1-41.6L274.3,252a77.55,77.55,0,0,0-4.7-10.6l13.9-18.9a99.35,99.35,0,0,0-30.9-29.3L234.5,208a78.26,78.26,0,0,0-10.5-4l-3.6-23.1a98.4,98.4,0,0,0-21.7-1.8,97,97,0,0,0-21.5,3.1l-1.5,23.1a68.88,68.88,0,0,0-11.4,5.2l-19.4-13.3a97.37,97.37,0,0,0-27.6,29.9l15,17.9a73,73,0,0,0-4.4,11.8l-23,3.8a100.4,100.4,0,0,0,1.7,41.9l23.3,1.9a78.28,78.28,0,0,0,4.7,10.2L121,333.8a98.61,98.61,0,0,0,30.9,28.7l18.3-14.8a69.26,69.26,0,0,0,9.9,3.7l3.4,23.1a97.89,97.89,0,0,0,42.4-1.2l2.9-23.5a88.29,88.29,0,0,0,9.9-4.5L257,359.5A105.35,105.35,0,0,0,285.9,328.9Z"/><path class="cls-3" d="M295.1,220.1l11.4.9a32.18,32.18,0,0,0,2.3,5l-6.6,9.4a48.1,48.1,0,0,0,15.1,14l9-7.3a46.81,46.81,0,0,0,4.8,1.8l1.7,11.3a48.19,48.19,0,0,0,20.7-.6l1.4-11.5a43.09,43.09,0,0,0,4.9-2.2l9,6.9A48.57,48.57,0,0,0,382.9,233l-7.4-8.5a38.27,38.27,0,0,0,2.2-5.6l11.4-2a48.42,48.42,0,0,0-.5-20.4l-11.4-1.1a34.29,34.29,0,0,0-2.3-5.2l6.8-9.2a49.44,49.44,0,0,0-15.1-14.4l-8.9,7.3a35.86,35.86,0,0,0-5.1-2l-1.7-11.3a47.47,47.47,0,0,0-10.6-.9,45.87,45.87,0,0,0-10.5,1.5l-.7,11.3a31.45,31.45,0,0,0-5.6,2.6l-9.5-6.5a48.2,48.2,0,0,0-13.5,14.6l7.3,8.8a40.65,40.65,0,0,0-2.2,5.8l-11.3,1.8a49,49,0,0,0,.8,20.5Z"/><path class="cls-4" d="M560.4,432.2a149.16,149.16,0,0,0,.4-63.1l-35-4.5a115.78,115.78,0,0,0-6.6-16.3l21.9-28a149.49,149.49,0,0,0-45.4-45.9L467.5,296a113.41,113.41,0,0,0-15.7-6.6l-4.3-35.2a151.22,151.22,0,0,0-65.6,0l-3.3,34.9a103.16,103.16,0,0,0-17.5,7.4l-28.8-21.1A150.94,150.94,0,0,0,289,319.3l21.8,27.8a124.3,124.3,0,0,0-7.3,17.7l-35,4.6a149.88,149.88,0,0,0,.6,63.6l35.1,4a107.31,107.31,0,0,0,6.6,15.6L289.3,481a148.45,148.45,0,0,0,45.4,44.9l28.4-21.6a127.25,127.25,0,0,0,14.8,6l4,35.1a149.47,149.47,0,0,0,64.2.2l5.5-35.5a119.2,119.2,0,0,0,15.2-6.4L493.9,526a149.06,149.06,0,0,0,45.3-44.5l-22-27.1a116.53,116.53,0,0,0,7.4-17Z"/><path class="cls-5" d="M258.3,239.2a97.28,97.28,0,0,0-1.1-41.6L234,195.4a77.55,77.55,0,0,0-4.7-10.6l13.9-18.9a100.83,100.83,0,0,0-30.9-29.4l-18.1,14.9a78.26,78.26,0,0,0-10.5-4l-3.6-23.1a98.35,98.35,0,0,0-21.7-1.7,96.91,96.91,0,0,0-21.5,3l-1.5,23.1a73.64,73.64,0,0,0-11.4,5.2l-19.4-13.3A95.91,95.91,0,0,0,77,170.4l15,17.9a73,73,0,0,0-4.4,11.8l-23,3.8a97.7,97.7,0,0,0-1.5,20.2,94.11,94.11,0,0,0,3.2,21.8l23.3,1.9A78.28,78.28,0,0,0,94.3,258L80.6,277a99.7,99.7,0,0,0,30.9,28.7l18.3-14.8a69.26,69.26,0,0,0,9.9,3.7l3.4,23.1a99.45,99.45,0,0,0,42.4-1.2l2.9-23.5a88.29,88.29,0,0,0,9.9-4.5l18.4,14.2a98.68,98.68,0,0,0,29-30.3L230.6,255a79.4,79.4,0,0,0,4.5-11.4Z"/><path class="cls-6" d="M348.8,160.2a46.49,46.49,0,0,0,.8-10.5,56,56,0,0,0-1.3-9.9l-11.4-1.1a34.29,34.29,0,0,0-2.3-5.2l6.8-9.3a49.44,49.44,0,0,0-15.1-14.4l-8.9,7.3a35.86,35.86,0,0,0-5.1-2l-1.7-11.3A42.14,42.14,0,0,0,300,103a45.87,45.87,0,0,0-10.5,1.5l-.7,11.3a31.45,31.45,0,0,0-5.6,2.6l-9.5-6.5a49,49,0,0,0-13.6,14.7l7.3,8.8a40.65,40.65,0,0,0-2.2,5.8L253.9,143a47.32,47.32,0,0,0,.9,20.5l11.4.9a32.18,32.18,0,0,0,2.3,5l-6.6,9.4a48.1,48.1,0,0,0,15.1,14l9-7.3a46.81,46.81,0,0,0,4.8,1.8l1.7,11.3a46.93,46.93,0,0,0,10.6.8,51.08,51.08,0,0,0,10.2-1.4l1.4-11.5a43.09,43.09,0,0,0,4.9-2.2l9,6.9a48.9,48.9,0,0,0,14.2-14.8l-7.4-8.5a38.27,38.27,0,0,0,2.2-5.6Z"/><path class="cls-7" d="M520.1,375.5a149.16,149.16,0,0,0,.4-63.1l-35.1-4.5a115.78,115.78,0,0,0-6.6-16.3l21.9-28a149.49,149.49,0,0,0-45.4-45.9l-28.1,21.6a113.41,113.41,0,0,0-15.7-6.6l-4.3-35.2a150.77,150.77,0,0,0-65.5,0l-3.4,34.9a103.16,103.16,0,0,0-17.5,7.4L292,218.7a149.73,149.73,0,0,0-43.3,43.9l21.8,27.8a124.3,124.3,0,0,0-7.3,17.7l-35,4.6a148,148,0,0,0-3.1,30.4,154.26,154.26,0,0,0,3.7,33.2l35.2,4a107.31,107.31,0,0,0,6.6,15.6l-21.5,28.4a148.45,148.45,0,0,0,45.4,44.9l28.4-21.6a127.25,127.25,0,0,0,14.8,6l4,35.1a151.06,151.06,0,0,0,64.2.3l5.5-35.5a119.2,119.2,0,0,0,15.2-6.4l27.1,22.3a150.52,150.52,0,0,0,45.4-44.5l-22-27.1a116.53,116.53,0,0,0,7.4-17Z"/><g class="cls-8"><path class="cls-1" d="M427.2,239.3a113.41,113.41,0,0,0-15.7-6.6l-4.3-35.2a150.77,150.77,0,0,0-65.5,0l-3.4,34.9a103.16,103.16,0,0,0-17.5,7.4L292,218.7a149.73,149.73,0,0,0-43.3,43.9l21.8,27.8a124.3,124.3,0,0,0-7.3,17.7l-35,4.6a148,148,0,0,0-3.1,30.4,154.26,154.26,0,0,0,3.7,33.2l35.2,4a107.31,107.31,0,0,0,6.6,15.6l-21.5,28.4a148.45,148.45,0,0,0,45.4,44.9l21.6-16.4L431.3,236.1Z"/><path class="cls-9" d="M337.8,453.6l4,35.1a149.47,149.47,0,0,0,64.2.2l5.5-35.5a119.2,119.2,0,0,0,15.2-6.4l27.1,22.3a150.52,150.52,0,0,0,45.4-44.5l-22-27.1a116.53,116.53,0,0,0,7.4-17l35.5-5.2a149.16,149.16,0,0,0,.4-63.1l-35.1-4.5a115.78,115.78,0,0,0-6.6-16.3l21.9-28a149.49,149.49,0,0,0-45.4-45.9l-24,18.5L316.1,452.8l6.9-5.2A111.79,111.79,0,0,0,337.8,453.6Z"/></g></g></svg>