<svg xmlns="http://www.w3.org/2000/svg" xmlns:xlink="http://www.w3.org/1999/xlink" viewBox="0 0 600 600"><defs><style>.cls-1{fill:none;}.cls-2{fill:url(#Degradado_sin_nombre_98);}.cls-3{fill:url(#Degradado_sin_nombre_98-2);}.cls-4{fill:url(#Degradado_sin_nombre_98-3);}.cls-5{fill:#e09973;}.cls-6{fill:#f7b27f;}.cls-7{fill:url(#Degradado_sin_nombre_21);}.cls-8{fill:#fade8e;}.cls-9{fill:url(#Degradado_sin_nombre_21-2);}.cls-10{fill:#d4edfc;}.cls-11{fill:#043263;}.cls-12{fill:#072146;}.cls-13{fill:#02a5a5;}.cls-14{fill:#5ac4c4;}.cls-15{fill:#facba9;}.cls-16{fill:url(#Degradado_sin_nombre_25);}.cls-17{fill:url(#Degradado_sin_nombre_24);}.cls-18{fill:url(#Degradado_sin_nombre_23);}.cls-19{fill:url(#Degradado_sin_nombre_22);}.cls-20{fill:url(#Degradado_sin_nombre_21-3);}</style><linearGradient id="Degradado_sin_nombre_98" x1="46.64" y1="-6384.77" x2="339.15" y2="-6934.89" gradientTransform="matrix(1, 0, 0, -1, 0, -6304)" gradientUnits="userSpaceOnUse"><stop offset="0" stop-color="#1c2645" stop-opacity="0.5"/><stop offset="1" stop-color="#1c2645" stop-opacity="0"/></linearGradient><linearGradient id="Degradado_sin_nombre_98-2" x1="293.6" y1="-6251.31" x2="587.24" y2="-6803.57" xlink:href="#Degradado_sin_nombre_98"/><linearGradient id="Degradado_sin_nombre_98-3" x1="225.96" y1="-6289.67" x2="518.22" y2="-6839.32" xlink:href="#Degradado_sin_nombre_98"/><linearGradient id="Degradado_sin_nombre_21" x1="-11015.93" y1="-3963.09" x2="-11009.14" y2="-3990.01" gradientTransform="matrix(0.62, -0.79, -0.79, -0.62, 4065.36, -10910.73)" gradientUnits="userSpaceOnUse"><stop offset="0" stop-color="#a68667"/><stop offset="1" stop-color="#a68667" stop-opacity="0"/></linearGradient><linearGradient id="Degradado_sin_nombre_21-2" x1="-6574.88" y1="-5378.16" x2="-6568.2" y2="-5404.61" gradientTransform="translate(-7467.86 -3363.62) rotate(166.3)" xlink:href="#Degradado_sin_nombre_21"/><linearGradient id="Degradado_sin_nombre_25" x1="342.11" y1="-6526.35" x2="362" y2="-6531.17" gradientTransform="matrix(1, -0.03, -0.03, -1, -102.94, -6361)" gradientUnits="userSpaceOnUse"><stop offset="0" stop-color="#c49735" stop-opacity="0.5"/><stop offset="0.74" stop-color="#c49735" stop-opacity="0"/></linearGradient><linearGradient id="Degradado_sin_nombre_24" x1="353.46" y1="-6539.52" x2="372.98" y2="-6545.65" gradientTransform="matrix(1, -0.03, -0.03, -1, -102.94, -6361)" gradientUnits="userSpaceOnUse"><stop offset="0" stop-color="#c49735" stop-opacity="0.5"/><stop offset="0.67" stop-color="#c49735" stop-opacity="0"/></linearGradient><linearGradient id="Degradado_sin_nombre_23" x1="363.9" y1="-6552.49" x2="383.83" y2="-6557.14" gradientTransform="matrix(1, -0.03, -0.03, -1, -102.94, -6361)" gradientUnits="userSpaceOnUse"><stop offset="0" stop-color="#c49735" stop-opacity="0.5"/><stop offset="0.69" stop-color="#c49735" stop-opacity="0"/></linearGradient><linearGradient id="Degradado_sin_nombre_22" x1="376.03" y1="-6564.3" x2="396.03" y2="-6568.6" gradientTransform="matrix(1, -0.03, -0.03, -1, -102.94, -6361)" gradientUnits="userSpaceOnUse"><stop offset="0" stop-color="#c49735" stop-opacity="0.5"/><stop offset="0.75" stop-color="#c49735" stop-opacity="0"/></linearGradient><linearGradient id="Degradado_sin_nombre_21-3" x1="-7425.05" y1="-5369.07" x2="-7418.25" y2="-5396" gradientTransform="matrix(0.94, 0.33, 0.33, -0.94, 9225.12, -2224.69)" xlink:href="#Degradado_sin_nombre_21"/></defs><title>9</title><g id="Cuadrados_Blancos" data-name="Cuadrados Blancos"><rect class="cls-1" width="600" height="600"/></g><g id="Capa_15" data-name="Capa 15"><path class="cls-2" d="M320,317.2c.1-.1.1-.1.2-.1h0l.9-.9a.1.1,0,0,1,.1-.1,6.57,6.57,0,0,0,1.2-1.7c.1-.2.2-.3.2-.5a14.17,14.17,0,0,0,.8-1.8h0c0-.1.1-.2.1-.4h0c.1-.3.2-.7.3-1h0v-.2a5.85,5.85,0,0,0,.2-1.3h0v-.8h0v-1.1h0v-.8h0a5.85,5.85,0,0,0-.2-1.3h0c0-.1,0-.1-.1-.2h0c-.1-.2-.1-.5-.2-.7s-.2-.7-.3-1c-.1-.1-.1-.3-.2-.4h0c-.1-.2-.1-.3-.2-.5h0l-.3-.6h0a13.06,13.06,0,0,0-18.3-5,1.92,1.92,0,0,1-2.9-1.7V281.4H224.9a2.9,2.9,0,0,0-2.9,2.9v21c-3.2-.1-6.3-.1-9.5,0-8.1.5-17.8,2.4-29.4,10.2s-25.4,41.7-33.1,45.6c-.9.5-2.4,1.2-3.5,1.8-.4-.6-.9-1.3-1.3-1.9a4.71,4.71,0,0,0-5.7-1.6l-10.4,4.1a7.72,7.72,0,0,0-8.7-2.2L69,381.7A10.45,10.45,0,0,0,64,397a161.37,161.37,0,0,1,13,25.6,161.08,161.08,0,0,1,8.2,27.5,10.55,10.55,0,0,0,14.2,7.8l51.4-20.4a7.82,7.82,0,0,0,4.9-7.3l10.5-4.2a4.72,4.72,0,0,0,3-5.1l-.6-3.9c1.6-.8,4.7-2.3,7.8-3.9,4.4-2.2,18.9.2,32.5-5,8.5-3.2,15.6-10.1,19.7-14.8l.2-.2c1.5-1.5,5.2-3.7,9.9-5.9h62.9V373.7a2,2,0,0,0-2.9-1.7,13,13,0,0,1-19.4-7.9h.7a12.42,12.42,0,0,0,13.1-12.8,9.34,9.34,0,0,0-.6-3.4,14.33,14.33,0,0,1,4.1.9,12.44,12.44,0,0,1,2,1,1.89,1.89,0,0,0,2.9-1.7h0v-2.3a12.42,12.42,0,0,0,0-24v-.9a2.14,2.14,0,0,1,3.2-1.8,13.22,13.22,0,0,0,6.3,1.8h.2a7.57,7.57,0,0,0,1.5-.1,18.43,18.43,0,0,0,2.5-.5h0c.1,0,.2-.1.3-.1.3-.1.5-.2.8-.3h0c.2-.1.4-.1.5-.2h0A39.19,39.19,0,0,0,320,317.2Z"/><path class="cls-3" d="M333.5,285.4a2,2,0,0,0,3.2,1.2,12.91,12.91,0,0,1,18.6,2.7,2.18,2.18,0,0,0,.4.5c.1.1.2.3.3.4s.3.5.4.7.1.2.2.4a10.37,10.37,0,0,1,.4,1c0,.1.1.1.1.2.1.4.3.8.4,1.2h0c.1.3.1.6.2.9s.1.4.1.6h0v.6c0,.3.1.5.1.8v1.5c0,.3-.1.7-.1,1,0,.1-.1.3-.1.4-.1.3-.1.5-.2.8s-.1.3-.1.5-.1.2-.1.3-.1.2-.1.3c-.2.4-.3.8-.5,1.2h0a10.91,10.91,0,0,1-.6,1.1l-.1.1a3.51,3.51,0,0,0-.5.8l-.1.1v.1c-.2.2-.4.5-.6.7h0l-.1.1c-.7.7-1.4,1.3-2.1,1.9-.1.1-.3.2-.4.3s-.3.2-.5.3-.2.1-.4.2-.2.1-.3.1-.3.1-.4.2c-.3.1-.5.2-.8.3-.1,0-.2.1-.3.1-.4.1-.8.3-1.2.4h-.2a5,5,0,0,1-1.2.2h-2.2a2.77,2.77,0,0,1-.9-.1c-.2,0-.4-.1-.6-.1a1.88,1.88,0,0,1-.8-.2,1.42,1.42,0,0,1-.6-.2c-.3-.1-.5-.2-.8-.3s-.4-.1-.6-.2a.35.35,0,0,0-.2-.1,2,2,0,0,0-2.9,1.4v.6h0l1.8,13.8,45.5-5.8a12.77,12.77,0,0,0,7.1,10.9,12.61,12.61,0,0,0,17.3-6.8c.3-.9.7-1.8,1.1-2.7a12.84,12.84,0,0,0-.4,5.2,13,13,0,1,0,23.1-9.7,2.19,2.19,0,0,0-.3-.5,5.36,5.36,0,0,0,.5-1.1c.2-.4.3-.9.5-1.3a.9.9,0,0,1,.5-.1h.1a9.31,9.31,0,0,0,13.1,5.7,9.11,9.11,0,0,0,5.1-8l14-1.8-2.1-16.6c7-6.2,13.9-11.9,17.2-13.2a.35.35,0,0,0,.2-.1c6-1.8,15.4-5.5,22-12.1,10.5-10.5,14.3-24.9,18.2-28.1,2.7-2.2,5.5-4.4,6.9-5.6,1.1.8,2.3,1.5,3.4,2.2a4.85,4.85,0,0,0,6-.7l37-34.1a9.39,9.39,0,0,0-1.1-14.4,140.54,140.54,0,0,1-19.3-16.7,136.83,136.83,0,0,1-16-19.9,9.32,9.32,0,0,0-14.3-1.6l-37,34.1a5,5,0,0,0-.9,6c.4.7.8,1.3,1.2,2-1,.8-2.3,1.9-3.1,2.5-6.8,5.5-44.1,4.1-56.1,11.6s-17.9,15.7-21.7,23a255.91,255.91,0,0,0-14.3,37.3l-59.9,7.7Z"/><path class="cls-4" d="M581,450.5l-44-24.2a5,5,0,0,0-6,1.1l-1.5,1.8c-1.1-.7-2.5-1.6-3.4-2.2-7.4-4.7-17.9-40.5-28.8-49.5s-20.6-12-28.7-13.3c-19-2.5-38.9-2-51.3-1.2a1.55,1.55,0,0,0-1.1-.8L349,341.5l-4,13a1.92,1.92,0,0,1-3.3.7,7.52,7.52,0,0,0-1.6-1.5h0a13.75,13.75,0,0,0-5.6-2.6,13,13,0,0,0-6.3,25.2,13.91,13.91,0,0,0,7,.2,1.9,1.9,0,0,1,2.3,2.4l-4,13,49,15a12.6,12.6,0,0,0,11.8,9.9c.8,0,1.7.1,2.6.1a9.27,9.27,0,0,0-2,14.7,9.07,9.07,0,0,0,10.1,2l4.1-1.7,4.3,2.3a1.17,1.17,0,0,0,1.6-.5v-.1c10.9,5.9,25.1,13.9,28.2,17.8l.2.2c3.7,5.1,10.1,12.8,18.4,17,13.2,6.6,28.1,5.7,32.4,8.4,3,1.9,5.9,3.8,7.5,4.7-.4,1.3-.7,2.6-1,3.9a4.91,4.91,0,0,0,2.5,5.5l44,24.2a9.4,9.4,0,0,0,13.3-5.6,136.8,136.8,0,0,1,9.7-23.6A134.38,134.38,0,0,1,584,464.6,9.32,9.32,0,0,0,581,450.5ZM412.6,374.8h-.1v-.1Z"/><path class="cls-5" d="M403.14,227.3c.1.2-11.4,25.9-18.3,41.2a12.6,12.6,0,0,0,6,16.5h0a12.61,12.61,0,0,0,17.3-6.8c5.4-14.2,14.1-35.4,18.6-39.2,6.8-5.8,16.2-12.3,18.1-18S403.14,227.3,403.14,227.3Z"/><path class="cls-6" d="M379.14,236.2c.1.2-11.4,25.9-18.3,41.2a12.6,12.6,0,0,0,6,16.5h0a12.61,12.61,0,0,0,17.3-6.8c5.4-14.2,14.1-35.4,18.6-39.2,6.8-5.8,16.2-12.3,18.1-18S379.14,236.2,379.14,236.2Z"/><path class="cls-6" d="M397.94,209.7l36.8,16.3-9.4,17.1,2.1,30.4a9.43,9.43,0,0,1-5.1,9h0a9.25,9.25,0,0,1-13.3-6.8Z"/><path class="cls-6" d="M464.44,152.7l-4.8,3.9c-6.8,5.5-44.1,4.1-56.1,11.6s-17.9,15.7-21.7,23c-13.5,27.7-20.4,60.4-20.4,60.4L425,231.9l25.9,12.4s17.5-3.2,27.9-13.6,14.3-24.9,18.2-28.1l7.8-6.4Z"/><circle class="cls-7" cx="424.44" cy="216.5" r="14.4"/><path class="cls-8" d="M499.44,111.9a9.32,9.32,0,0,1,14.3,1.6,136.83,136.83,0,0,0,16,19.9A146.7,146.7,0,0,0,549,150.1a9.39,9.39,0,0,1,1.1,14.4l-37,34.1a5,5,0,0,1-6,.7,134.3,134.3,0,0,1-25.6-20.9,137.67,137.67,0,0,1-20-26.3,4.87,4.87,0,0,1,.9-6Z"/><path class="cls-5" d="M212.14,303.3c.2.1,27.8.2,44.2.3a12.47,12.47,0,0,1,12.4,12.1h0a12.47,12.47,0,0,1-13.1,12.8c-14.9-.8-37.4-1.6-42.6.8-7.9,3.7-17.6,9.5-23.5,9C183.74,337.6,212.14,303.3,212.14,303.3Z"/><path class="cls-6" d="M229.74,285.4c.2.1,27.8.2,44.2.3a12.47,12.47,0,0,1,12.4,12.1h0a12.47,12.47,0,0,1-13.1,12.8c-14.9-.8-37.4-1.6-42.6.8-7.9,3.7-17.6,9.5-23.5,9C201.34,319.7,229.74,285.4,229.74,285.4Z"/><path class="cls-6" d="M196.64,295l3.1,29.7,42,22.5a9.11,9.11,0,0,0,10.1-1h0a9.14,9.14,0,0,0-.7-14.7Z"/><path class="cls-6" d="M120.44,328s3.7-1.8,5.4-2.7c7.7-3.9,21.5-37.8,33.1-45.6s21.3-9.7,29.4-10.2c30.3-.9,62.3,6.1,62.3,6.1l-43.3,49,.6,28.1s-9.9,14.4-23.5,19.5-28,2.8-32.5,5-8.9,4.5-8.9,4.5Z"/><circle class="cls-9" cx="193.74" cy="318.1" r="14.2"/><path class="cls-10" d="M96,331.3a9.25,9.25,0,0,0-4.4,13.5,134,134,0,0,1,11.3,22.4,138.83,138.83,0,0,1,7.1,24.1,9.19,9.19,0,0,0,12.4,6.8l19.3-7.7a4.72,4.72,0,0,0,3-5.1,136.91,136.91,0,0,0-8.3-31.4,133.67,133.67,0,0,0-15.5-28.6,4.71,4.71,0,0,0-5.7-1.6Z"/><path class="cls-11" d="M44.74,346a10.45,10.45,0,0,0-5,15.3,161.37,161.37,0,0,1,13,25.6,161.08,161.08,0,0,1,8.2,27.5,10.55,10.55,0,0,0,14.2,7.8l51.4-20.4a7.86,7.86,0,0,0,4.8-8.4,149.38,149.38,0,0,0-9.3-34,152.05,152.05,0,0,0-16.6-31.1,7.7,7.7,0,0,0-9.2-2.7Z"/><circle class="cls-12" cx="110.04" cy="388.1" r="5.8"/><path class="cls-13" d="M267.44,338.2a12.94,12.94,0,0,1-12.9-14.5A13.17,13.17,0,0,1,266,312.2a13,13,0,0,1,8.1,1.8,2,2,0,0,0,3-1.6V284.9a2,2,0,0,1,3-1.6A13,13,0,1,0,280,261a1.92,1.92,0,0,1-2.9-1.7V245.6h-76.4a2.9,2.9,0,0,0-2.9,2.9v100a2.9,2.9,0,0,0,2.9,2.9h76.4V337.9a2,2,0,0,0-2.9-1.7A12.32,12.32,0,0,1,267.44,338.2Z"/><path class="cls-14" d="M215.64,318.5h-11.4a1.54,1.54,0,0,0-1.5,1.5v25a1.54,1.54,0,0,0,1.5,1.5h25a1.54,1.54,0,0,0,1.5-1.5V333.6A15.15,15.15,0,0,0,215.64,318.5Z"/><path class="cls-14" d="M230.64,264V252.6a1.54,1.54,0,0,0-1.5-1.5h-25a1.54,1.54,0,0,0-1.5,1.5v25a1.54,1.54,0,0,0,1.5,1.5h11.4A15.09,15.09,0,0,0,230.64,264Z"/><path class="cls-14" d="M277.14,298.8V285.2a2.11,2.11,0,0,1,3.2-1.8l.1.1c.2.1.3.2.5.3s.5.3.8.4a1.42,1.42,0,0,0,.6.2c.3.1.5.2.8.3s.4.1.6.2.6.1.9.2.4.1.6.1.6.1,1,.1h.5a5.7,5.7,0,0,0,1.3-.1h.2a5,5,0,0,0,1.2-.2c.1,0,.2-.1.3-.1.3-.1.6-.1.9-.2s.3-.1.5-.2a4.88,4.88,0,0,1,.7-.3c.2-.1.4-.1.5-.2s.3-.1.4-.2a18.19,18.19,0,0,0,2.3-1.5l.1-.1c.2-.2.5-.4.7-.6l.2-.2a4.35,4.35,0,0,0,.6-.7c0-.1.1-.1.1-.2a6.57,6.57,0,0,0,1.2-1.7,9.25,9.25,0,0,0,.5-1c.1-.1.1-.3.2-.5s.2-.5.3-.8c0-.1.1-.2.1-.4s.2-.7.3-1c0-.1,0-.1.1-.2a5.85,5.85,0,0,0,.2-1.3v-2.8a5.85,5.85,0,0,0-.2-1.3c0-.1,0-.1-.1-.2-.1-.3-.2-.7-.3-1,0-.1-.1-.2-.1-.4s-.2-.5-.3-.8-.1-.3-.2-.5l-.3-.6c-.1-.1-.1-.2-.2-.3a33.3,33.3,0,0,0-29.1,33.1A32.16,32.16,0,0,0,272,313a12.44,12.44,0,0,1,2,1,1.89,1.89,0,0,0,2.9-1.7V298.8Z"/><path class="cls-6" d="M204.34,357.4c-6.8,6.8-31.7,4-31.7,4s3.3-19-2.2-28.4c26.5-2.3,54.6-9.2,54.6-9.2,9.6-2.4,15-1.1,19.6.4a16.38,16.38,0,0,1,4.6,2.6,4.56,4.56,0,0,1,1.7,2.9,7.62,7.62,0,0,1-.8,5.1,8.43,8.43,0,0,1-2.8,2.4C247.44,337.3,210.14,351.6,204.34,357.4Z"/><path class="cls-13" d="M384.84,289.6a13,13,0,1,0,23.1-9.7,2,2,0,0,1,1.2-3.2l32.3-4.1L435,222.8a2.93,2.93,0,0,0-3.3-2.5l-124.2,15.8,1.7,13.6a2,2,0,0,0,3.2,1.2,13,13,0,1,1,9.7,23.1,13.77,13.77,0,0,1-7-1,1.92,1.92,0,0,0-2.7,2l1.8,13.8,69.6-8.9a1.92,1.92,0,0,1,2,2.7A13.62,13.62,0,0,0,384.84,289.6Z"/><path class="cls-14" d="M421.24,255.1l11.3-1.5a1.46,1.46,0,0,0,1.3-1.6l-3.2-24.8a1.46,1.46,0,0,0-1.6-1.3l-24.8,3.2a1.46,1.46,0,0,0-1.3,1.6l1.5,11.3A14.94,14.94,0,0,0,421.24,255.1Z"/><path class="cls-14" d="M334.94,252.6a25.75,25.75,0,0,0-4,.8c.1.1.1.2.2.3s.3.4.4.6.2.3.3.4.3.5.4.7.1.2.2.4a10.37,10.37,0,0,1,.4,1c0,.1.1.1.1.2.1.4.3.8.4,1.2h0a2.2,2.2,0,0,1,.1.8c0,.2.1.4.1.6v.6c0,.3.1.5.1.8h0v1.5c0,.3-.1.7-.1,1,0,.1-.1.3-.1.4-.1.3-.1.5-.2.8s-.1.3-.1.5-.1.4-.2.6a10.08,10.08,0,0,1-1.2,2.3l-.1.1a3.51,3.51,0,0,0-.5.8c0,.1-.1.1-.1.2-.2.2-.4.5-.6.7l-.1.1c-.7.7-1.4,1.3-2.1,1.9-.1.1-.3.2-.4.3s-.3.2-.5.3l-.6.3c-.1.1-.3.1-.4.2-.3.1-.5.2-.8.3-.1,0-.2.1-.3.1-.4.1-.8.3-1.2.4h-.2a5,5,0,0,1-1.2.2h-2.2a2.77,2.77,0,0,1-.9-.1c-.2,0-.4-.1-.6-.1a1.88,1.88,0,0,1-.8-.2,1.42,1.42,0,0,1-.6-.2c-.3-.1-.5-.2-.8-.3s-.4-.1-.6-.2a.35.35,0,0,0-.2-.1,2,2,0,0,0-2.9,1.9l1.8,13.8,57.9-7.4h0C369.84,263.1,353.14,250.2,334.94,252.6Z"/><path class="cls-15" d="M236.64,342.5a1.07,1.07,0,0,1-1.5-.6c-1.1-2.7-2.6-6.9-1.8-7.3a32.24,32.24,0,0,1,7.1-3.6,7.63,7.63,0,0,1,8.7,2.2,5.85,5.85,0,0,1,1,1.7,1.13,1.13,0,0,1-.4,1.5C247.44,338,242.94,339.5,236.64,342.5Z"/><path class="cls-6" d="M456.54,242.8c9.2-3.5,17-27.7,17-27.7s-19-4.9-25.4-13.9c-13.3,23.7-31.4,46.8-31.4,46.8-6.3,7.9-7.3,13.5-7.8,18.3a20.51,20.51,0,0,0,.5,5.4,4.75,4.75,0,0,0,2,2.8,7.35,7.35,0,0,0,5,1.4,7.52,7.52,0,0,0,3.4-1.6S448.74,245.7,456.54,242.8Z"/><path class="cls-15" d="M430.74,265.6a1.15,1.15,0,0,0,0-1.7c-2.1-2.1-5.5-5.1-6.1-4.5a33.85,33.85,0,0,0-6.1,5.3,7.72,7.72,0,0,0-1.3,9.1,9.55,9.55,0,0,0,1.2,1.6,1.13,1.13,0,0,0,1.6.2C422.34,274,425.54,270.4,430.74,265.6Z"/><path class="cls-16" d="M474.94,142.9l-12.1,11.2a96.22,96.22,0,0,0,5.4,8.2l13.3-12.3Z"/><path class="cls-17" d="M486.34,156.3,473,168.6c2,2.5,4.1,4.9,6.3,7.4l13.5-12.5Z"/><path class="cls-18" d="M497.74,168.4l-13.5,12.5c2.4,2.3,4.7,4.5,7.2,6.6l12.9-11.9Z"/><path class="cls-19" d="M510.34,180.4l-12.9,12c2.7,2.1,5.4,3.9,8.1,5.7l11.4-10.5Z"/><path class="cls-5" d="M416.74,360.2c-.2.1-28.1-2.6-44.8-4.3a12.67,12.67,0,0,0-13.8,11h0a12.72,12.72,0,0,0,12,14.3c15.1.7,38,2.2,43,5.2,7.6,4.6,16.8,11.5,22.8,11.5S416.74,360.2,416.74,360.2Z"/><path class="cls-6" d="M400.74,340.3c-.2.1-28.1-2.6-44.8-4.3a12.67,12.67,0,0,0-13.8,11h0a12.72,12.72,0,0,0,12,14.3c15.1.7,38,2.2,43,5.2,7.6,4.6,16.8,11.5,22.8,11.5S400.74,340.3,400.74,340.3Z"/><path class="cls-6" d="M431.84,349.7,428,389.8l-19.1-3.5L380.74,398a9.39,9.39,0,0,1-10.1-2h0a9.34,9.34,0,0,1,2.2-14.8Z"/><path class="cls-6" d="M507,394.6s-3.5-2.2-5.2-3.3c-7.4-4.7-17.9-40.5-28.8-49.5s-20.6-12-28.7-13.3c-30.6-4-63.7-.2-63.7-.2l38.8,54-3.5,28.4s8.6,15.6,21.8,22.2,28.1,5.7,32.4,8.4,8.5,5.4,8.5,5.4Z"/><circle class="cls-20" cx="433.84" cy="377" r="14.4"/><path class="cls-10" d="M556.84,414.9a9.32,9.32,0,0,1,3,14.1A141.69,141.69,0,0,0,546,450.5a136.8,136.8,0,0,0-9.7,23.6,9.4,9.4,0,0,1-13.3,5.6l-44-24.2a4.79,4.79,0,0,1-2.5-5.5,139.81,139.81,0,0,1,30.3-58.3,5,5,0,0,1,6-1.1Z"/><path class="cls-13" d="M413.94,336.3a12.66,12.66,0,0,1-.7,8.3,13,13,0,0,1-24.4-8.9,12.6,12.6,0,0,1,3.8-5.9,2,2,0,0,0-.7-3.3l-67.1-20.6-4,13a1.92,1.92,0,0,1-3.3.7,13.32,13.32,0,0,0-7.2-4.1,13,13,0,0,0-6.3,25.2,13.91,13.91,0,0,0,7,.2,1.9,1.9,0,0,1,2.3,2.4l-4,13L429.24,393a2.85,2.85,0,0,0,3.6-1.9l14.6-47.6-31.2-9.5A1.82,1.82,0,0,0,413.94,336.3Z"/><path class="cls-14" d="M405.84,366.8l-3.3,10.9a1.43,1.43,0,0,0,1,1.8l23.9,7.3a1.43,1.43,0,0,0,1.8-1l7.3-23.8a1.43,1.43,0,0,0-1-1.8l-10.9-3.3A15,15,0,0,0,405.84,366.8Z"/><path class="cls-14" d="M317.54,319.6a12.88,12.88,0,0,0-1.7-1.6,33.22,33.22,0,0,0,64.7,4.9l-55.8-17.1-4,13A1.85,1.85,0,0,1,317.54,319.6Z"/><path class="cls-6" d="M417.54,413.4c5.8,8,31.2,9.1,31.2,9.1s-.3-19.6,6.7-28.2c-26.3-6.6-53.4-17.9-53.4-17.9-9.3-3.9-14.9-3.5-19.7-2.7a17.65,17.65,0,0,0-5.1,1.9,5.1,5.1,0,0,0-2.2,2.6,7.73,7.73,0,0,0,0,5.2,10.25,10.25,0,0,0,2.4,2.9S412.64,406.7,417.54,413.4Z"/><path class="cls-15" d="M388.74,394.6a1.06,1.06,0,0,0,1.6-.4c1.4-2.6,3.5-6.6,2.8-7.1a30.45,30.45,0,0,0-6.7-4.5,7.72,7.72,0,0,0-9.1,1.1,6.1,6.1,0,0,0-1.2,1.6,1.36,1.36,0,0,0,.2,1.6C378.34,388.7,382.74,390.7,388.74,394.6Z"/></g></svg>