<svg xmlns="http://www.w3.org/2000/svg" xmlns:xlink="http://www.w3.org/1999/xlink" viewBox="0 0 600 600"><defs><style>.cls-1{fill:none;}.cls-2{fill:url(#Degradado_sin_nombre_14);}.cls-3{fill:#2dcccd;}.cls-4{fill:#1464a5;}.cls-5{fill:#f8cd50;}.cls-6{fill:#49a5e6;}.cls-7{fill:url(#Degradado_sin_nombre_2);}</style><linearGradient id="Degradado_sin_nombre_14" x1="280.97" y1="935.24" x2="418.43" y2="1193.76" gradientTransform="translate(0 -732)" gradientUnits="userSpaceOnUse"><stop offset="0" stop-color="#192647" stop-opacity="0.5"/><stop offset="1" stop-color="#192647" stop-opacity="0"/></linearGradient><linearGradient id="Degradado_sin_nombre_2" x1="455.7" y1="1034.85" x2="250.4" y2="1034.85" gradientTransform="translate(0 -732)" gradientUnits="userSpaceOnUse"><stop offset="0" stop-color="#043263" stop-opacity="0.3"/><stop offset="1" stop-color="#043263" stop-opacity="0"/></linearGradient></defs><g id="Cuadrados_Blancos" data-name="Cuadrados Blancos"><rect class="cls-1" width="600" height="600"/></g><g id="Capa_15" data-name="Capa 15"><path class="cls-2" d="M495.8,309.3l-31-5.7a120.81,120.81,0,0,0-13.2-32l17.9-26c-5.3-8.4-6.5-11.3-13.8-18.6l-.4-.3c-7.3-7.3-10.2-8.5-18.6-13.8l-26,17.9a115,115,0,0,0-32-13.2l-5.7-31c-9.7-2.2-12.6-3.4-23-3.4h-.5c-10.4,0-13.3,1.3-23,3.4l-5.7,31a120.81,120.81,0,0,0-32,13.2l-26-17.9c-8.4,5.3-11.3,6.5-18.6,13.8l-.4.3c-7.3,7.3-8.5,10.2-13.8,18.6l17.9,26a115,115,0,0,0-13.2,32l-31.1,5.7c-2.2,9.7-3.4,12.6-3.4,22.9v.5c0,10.4,1.3,13.2,3.4,23l31,5.7a119.45,119.45,0,0,0,13.2,32l-17.9,26c5.3,8.4,6.5,11.3,13.8,18.6l.4.3c7.3,7.3,10.2,8.5,18.6,13.8l26-17.9a115,115,0,0,0,32,13.2l5.7,31c9.7,2.2,12.6,3.4,23,3.4h.5c10.4,0,13.3-1.3,23-3.4l5.7-31a120.81,120.81,0,0,0,32-13.2l26,17.9c8.4-5.3,11.3-6.5,18.6-13.8l.3-.3c7.3-7.3,8.5-10.2,13.8-18.6l-17.9-26a115,115,0,0,0,13.2-32l31-5.7c2.2-9.7,3.4-12.6,3.4-22.9v-.5C499.1,321.9,498,319,495.8,309.3Z"/><path class="cls-3" d="M303.7,358.3a2.27,2.27,0,0,0-1.6.6,20.1,20.1,0,1,1-27.3-29.5,20.93,20.93,0,0,1,11.8-5.3h0a20.32,20.32,0,0,1,15.4,5.2,2.38,2.38,0,0,0,3.4-.1,2.93,2.93,0,0,0,.7-1.6l.1-39.7H266.5a2.46,2.46,0,0,1-2.4-2.5,2,2,0,0,1,.7-1.6,20.1,20.1,0,1,0-29.5.1,2.39,2.39,0,0,1-.2,3.4,2.27,2.27,0,0,1-1.6.6H156.7v.2c0,10.4,1.3,13.2,3.4,23l31,5.7a119.45,119.45,0,0,0,13.2,32l-17.9,26c5.3,8.4,6.5,11.3,13.8,18.6l.4.3c7.3,7.3,10.2,8.5,18.6,13.8l26-17.9a116.29,116.29,0,0,0,32,13.2l5.7,31.1c9.7,2.2,12.6,3.4,23,3.4h.3V360.5A2.58,2.58,0,0,0,303.7,358.3Z"/><path class="cls-4" d="M235.7,285.5a2.27,2.27,0,0,0-.6-1.6,20.1,20.1,0,0,1,29.5-27.3,20.93,20.93,0,0,1,5.3,11.8h0a20.32,20.32,0,0,1-5.2,15.4,2.38,2.38,0,0,0,.1,3.4,2.93,2.93,0,0,0,1.6.7l39.7.1V248.3a2.46,2.46,0,0,1,2.5-2.4,2,2,0,0,1,1.6.7,20.1,20.1,0,1,0-.1-29.6,2.39,2.39,0,0,1-3.4-.2,2.27,2.27,0,0,1-.6-1.6V138.4h-.2c-10.4,0-13.3,1.3-23,3.4l-5.7,31a119.45,119.45,0,0,0-32,13.2l-26-17.9c-8.4,5.3-11.3,6.5-18.6,13.8l-.3.4c-7.3,7.3-8.5,10.2-13.8,18.6l17.9,26a116.29,116.29,0,0,0-13.2,32l-31.1,5.7c-2.2,9.7-3.4,12.6-3.4,23v.3h76.8A2.33,2.33,0,0,0,235.7,285.5Z"/><path class="cls-5" d="M308.5,217.5a2.27,2.27,0,0,0,1.6-.6,20.1,20.1,0,0,1,27.3,29.5,20.93,20.93,0,0,1-11.8,5.3h0a20.32,20.32,0,0,1-15.4-5.2,2.38,2.38,0,0,0-3.4.1,2.93,2.93,0,0,0-.7,1.6l-.1,39.7h39.7a2.46,2.46,0,0,1,2.4,2.5,2,2,0,0,1-.7,1.6,20.1,20.1,0,1,0,29.6-.1,2.39,2.39,0,0,1,.2-3.4,2.27,2.27,0,0,1,1.6-.6h76.8v-.2c0-10.4-1.3-13.2-3.4-23l-31-5.7a116.55,116.55,0,0,0-13.3-32l17.9-26c-5.3-8.4-6.5-11.3-13.8-18.6l-.4-.3c-7.3-7.3-10.2-8.5-18.6-13.8L367,186a116.29,116.29,0,0,0-32-13.2l-5.7-31.1c-9.7-2.2-12.6-3.4-23-3.4H306v76.8A2.59,2.59,0,0,0,308.5,217.5Z"/><path class="cls-6" d="M376.5,290.3a2.27,2.27,0,0,0,.6,1.6,20.1,20.1,0,0,1-29.5,27.3,20.93,20.93,0,0,1-5.3-11.8h0a20.32,20.32,0,0,1,5.2-15.4,2.38,2.38,0,0,0-.1-3.4,2.93,2.93,0,0,0-1.6-.7l-39.7-.1v39.7a2.46,2.46,0,0,1-2.5,2.4,2,2,0,0,1-1.6-.7,20.1,20.1,0,1,0,.1,29.6,2.39,2.39,0,0,1,3.4.2,2.27,2.27,0,0,1,.6,1.6v76.8h.2c10.4,0,13.3-1.3,23-3.4l5.7-31a116.55,116.55,0,0,0,32-13.3l26,17.9c8.4-5.3,11.3-6.5,18.6-13.8l.3-.4c7.3-7.3,8.5-10.2,13.8-18.6l-17.9-26a116.29,116.29,0,0,0,13.2-32l31.1-5.7c2.2-9.7,3.4-12.6,3.4-23v-.3H378.7A2.58,2.58,0,0,0,376.5,290.3Z"/><path class="cls-7" d="M455.7,287.9v-.2c0-10.4-1.3-13.2-3.4-23l-31-5.7a119.45,119.45,0,0,0-13.2-32L426,201c-5.3-8.4-6.5-11.3-13.8-18.6l-.4-.3c-7.3-7.3-10.2-8.5-18.6-13.8L367,186c-1.7-1-3.5-2-5.2-2.9l-20.5,38.6a20,20,0,0,1-7.6,27.4,19.18,19.18,0,0,1-8.1,2.5h-.2l-19.3,36.2L250.4,392.6a117.84,117.84,0,0,0,26.8,10.3l5.7,31.1c9.7,2.2,12.6,3.4,23,3.4h.5c10.4,0,13.3-1.3,23-3.4l5.7-31a119.45,119.45,0,0,0,32-13.2l26,17.9c8.4-5.3,11.3-6.5,18.6-13.8l.3-.4c7.3-7.3,8.5-10.2,13.8-18.6l-17.9-26a116.29,116.29,0,0,0,13.2-32l31.1-5.7c2.2-9.7,3.4-12.6,3.4-23v-.3Z"/></g></svg>