<svg id="Contenido" xmlns="http://www.w3.org/2000/svg" xmlns:xlink="http://www.w3.org/1999/xlink" viewBox="0 0 600 600"><defs><style>.cls-1,.cls-3,.cls-6,.cls-9{fill-rule:evenodd;}.cls-1{fill:url(#Degradado_sin_nombre_7);}.cls-2{fill:#f1873e;}.cls-3,.cls-4{fill:#f7b27f;}.cls-5{fill:url(#linear-gradient);}.cls-6{fill:#2dcccd;}.cls-7{fill:#02a5a5;}.cls-8{fill:#4ea5e2;}.cls-9{opacity:0.5;isolation:isolate;fill:url(#Degradado_sin_nombre_9);}.cls-10{fill:#d4ecfa;}.cls-11{fill:#07467f;}</style><linearGradient id="Degradado_sin_nombre_7" x1="273.86" y1="224.41" x2="420.59" y2="500.37" gradientUnits="userSpaceOnUse"><stop offset="0" stop-color="#192647"/><stop offset="0" stop-color="#192647" stop-opacity="0.5"/><stop offset="1" stop-color="#192647" stop-opacity="0"/></linearGradient><linearGradient id="linear-gradient" x1="-2052.36" y1="-1340.4" x2="-2040.45" y2="-1293.23" gradientTransform="matrix(-0.99, -0.14, -0.14, 0.99, -1962.15, 1304.29)" gradientUnits="userSpaceOnUse"><stop offset="0" stop-color="#ad8565"/><stop offset="1" stop-color="#ad8565" stop-opacity="0"/></linearGradient><linearGradient id="Degradado_sin_nombre_9" x1="293.7" y1="14653.46" x2="412.47" y2="14590.31" gradientTransform="matrix(1, 0, 0, -1, 0, 14903.6)" gradientUnits="userSpaceOnUse"><stop offset="0" stop-color="#e9f8f9"/><stop offset="1" stop-color="#e9f8f9" stop-opacity="0.2"/><stop offset="1" stop-color="#e9f8f9" stop-opacity="0.5"/></linearGradient></defs><title>GLOMO</title><path class="cls-1" d="M561.33,278.92l-.19-.16c-.07-.05-.12-.11-.19-.15a2.52,2.52,0,0,0-1.43-.44H369.29a400.41,400.41,0,0,0-41.39-18.1c-13.74-4.52-31.14-7.78-55.4-2.64s-69.66,52.2-85,53.5l-7.23.61A16.43,16.43,0,0,0,165,301l-30.86-.09A16.4,16.4,0,0,0,118,320.31a243.45,243.45,0,0,1,3.89,44.58,243.43,243.43,0,0,1-4.14,44.56A16.41,16.41,0,0,0,133.8,429l30.87.08a16.46,16.46,0,0,0,16.1-13c0-.13,0-.26.08-.38l15.43-1.31c8.81-.75,31.18,12.79,57.07,13.3,16.23.32,32.48-6.34,42.34-11.35l.51-.19c3.54-1.53,11.13-2.58,20.38-3.29v10.76a2.57,2.57,0,0,0,2.56,2.57h27.64l6.3,7.52a16.27,16.27,0,0,0,28.48-7.52h178a2.56,2.56,0,0,0,2.57-2.57V280.74A2.56,2.56,0,0,0,561.33,278.92Z"/><path class="cls-2" d="M299.47,263.86c.18.33,45.8,18.79,73.06,29.79A22.15,22.15,0,0,1,385,321.85h0a22.16,22.16,0,0,1-30.17,12.41c-24.06-11.26-60.78-27.52-71-26.92-15.55.91-35.4,4.13-44.78-.72S299.47,263.86,299.47,263.86Z"/><path class="cls-3" d="M258.82,263.17l-14.48,51.18L299,379.56a16.3,16.3,0,0,0,17.36,5.07h0a16.31,16.31,0,0,0,8.58-24.75Z"/><path class="cls-4" d="M122.67,257.72l10.73-.91c15.32-1.3,60.72-48.36,85-53.5s41.66-1.88,55.4,2.64c50.74,18.55,99.06,51.49,99.06,51.49L268.68,309.78l-17.62,47s-25.93,17.24-51.83,16.73-48.26-14-57.07-13.3l-17.62,1.49Z"/><circle class="cls-5" cx="250.64" cy="289.83" r="25.28"/><path class="cls-6" d="M80,246.78a16.4,16.4,0,0,0-16.17,19.41,242.58,242.58,0,0,1,3.89,44.58,243.43,243.43,0,0,1-4.14,44.56,16.41,16.41,0,0,0,16.07,19.5l30.86.09a16.48,16.48,0,0,0,16.1-13,239.93,239.93,0,0,0,5.46-51,239.62,239.62,0,0,0-5.18-51,16.47,16.47,0,0,0-16-13.07Z"/><circle class="cls-7" cx="94.9" cy="350.77" r="10.32"/><path class="cls-8" d="M272.14,209.12H502a7.36,7.36,0,0,1,7.34,7.34V363.68A7.36,7.36,0,0,1,502,371H272.14a7.36,7.36,0,0,1-7.34-7.34V216.46A7.31,7.31,0,0,1,272.14,209.12Z"/><path class="cls-9" d="M270.74,371H388.88l79.45-161.9H270.82a5.92,5.92,0,0,0-5.95,5.94h0V365A5.84,5.84,0,0,0,270.74,371Z"/><rect class="cls-10" x="288.44" y="288.34" width="91.41" height="21.51"/><rect class="cls-10" x="286.68" y="324.61" width="199.57" height="21.51"/><path class="cls-11" d="M365.61,234.45l-8.81,16.74a.57.57,0,0,1-.74.22l-.22-.22L347,234.45a.59.59,0,0,0-.44-.3h-4.26a.34.34,0,0,0-.36.37c0,.07,0,.15.07.15l13.88,25.92a.51.51,0,0,0,.66.22l.22-.22,13.87-25.92a.43.43,0,0,0-.14-.52c-.08,0-.15-.07-.22-.07h-4.26a.72.72,0,0,0-.44.37"/><path class="cls-11" d="M370.6,256.84l8.81-16.74a.57.57,0,0,1,.74-.22l.22.22,8.81,16.74a.59.59,0,0,0,.44.3h4.26a.34.34,0,0,0,.36-.37c0-.07,0-.15-.07-.15L380.29,230.7a.51.51,0,0,0-.66-.22l-.22.22-13.8,25.85a.42.42,0,0,0,.15.51c.07,0,.07.08.14.08h4.26c.22-.08.37-.15.44-.3"/><path class="cls-11" d="M304.81,257.06h-7.93a.5.5,0,0,1-.51-.51h0v-7.12a.5.5,0,0,1,.51-.52h7.93c3.75,0,5.44,1.1,5.44,4s-1.62,4.11-5.44,4.11m-7.93-19h7.79c2.86,0,4.33,1.24,4.33,3.52s-1.47,3.52-4.33,3.52h-7.79a.5.5,0,0,1-.51-.51h0v-6a.5.5,0,0,1,.51-.51h0m13.59,8.51a5.9,5.9,0,0,0,3-5.36c0-4.18-3.23-7-7.86-7H292.4a.5.5,0,0,0-.51.51h0v25.77a.5.5,0,0,0,.51.52H305c6.32,0,9.62-2.72,9.62-8s-4.18-6.46-4.18-6.46"/><path class="cls-11" d="M331.83,257.06H323.9a.5.5,0,0,1-.51-.51v-7.12a.5.5,0,0,1,.51-.52h7.93c3.75,0,5.44,1.1,5.44,4s-1.62,4.11-5.44,4.11m-7.93-19h7.79c2.86,0,4.33,1.24,4.33,3.52s-1.47,3.52-4.33,3.52H323.9a.5.5,0,0,1-.51-.51v-6a.5.5,0,0,1,.51-.51h0m13.66,8.51a5.9,5.9,0,0,0,3-5.36c0-4.18-3.23-7-7.86-7H319.5a.5.5,0,0,0-.52.51h0v25.77a.5.5,0,0,0,.52.52h12.63c6.31,0,9.62-2.72,9.62-8s-4.19-6.46-4.19-6.46"/><path class="cls-3" d="M242.08,362c-15.82,6.8,2.12-22.1,2.12-22.1s-39.2-21.5-42-40.69c45.48,13.75,96.47,21,96.47,21,17.55,2.43,25.58,8.15,32.12,13.67a32.53,32.53,0,0,1,5.91,7.45,7.88,7.88,0,0,1,.88,5.9,15.44,15.44,0,0,1-5.46,7.89,12.39,12.39,0,0,1-5.42,2.17S255.46,356.24,242.08,362Z"/></svg>