<svg id="Contenido" xmlns="http://www.w3.org/2000/svg" xmlns:xlink="http://www.w3.org/1999/xlink" viewBox="0 0 600 600"><defs><style>.cls-1{fill:url(#Degradado_sin_nombre_74);}.cls-2{fill:#028484;}.cls-3{fill:#1973b8;}.cls-4{fill:#043263;}.cls-5{fill:#49a5e6;}.cls-6{fill:#2dcccd;}.cls-7{fill:#f8cd51;}.cls-8{fill:url(#Degradado_sin_nombre_26);}.cls-9{fill:url(#Degradado_sin_nombre_26-2);}.cls-10{fill:url(#Degradado_sin_nombre_6);}.cls-11{fill:url(#Degradado_sin_nombre_32);}.cls-12{fill:none;}</style><linearGradient id="Degradado_sin_nombre_74" x1="220.34" y1="122.11" x2="396.62" y2="453.66" gradientUnits="userSpaceOnUse"><stop offset="0" stop-color="#082146" stop-opacity="0.5"/><stop offset="1" stop-color="#082146" stop-opacity="0"/></linearGradient><linearGradient id="Degradado_sin_nombre_26" x1="366.71" y1="129.21" x2="382.39" y2="144.89" gradientTransform="matrix(-0.8, 0.6, 0.6, 0.8, 400.76, -122.56)" gradientUnits="userSpaceOnUse"><stop offset="0" stop-color="#fff" stop-opacity="0.6"/><stop offset="0.85" stop-color="#fff" stop-opacity="0.2"/></linearGradient><linearGradient id="Degradado_sin_nombre_26-2" x1="344.06" y1="148.72" x2="359.74" y2="164.4" xlink:href="#Degradado_sin_nombre_26"/><linearGradient id="Degradado_sin_nombre_6" x1="380.26" y1="199.8" x2="468.32" y2="199.8" gradientUnits="userSpaceOnUse"><stop offset="0" stop-color="#043263" stop-opacity="0"/><stop offset="1" stop-color="#043263" stop-opacity="0.6"/></linearGradient><linearGradient id="Degradado_sin_nombre_32" x1="356.31" y1="337.51" x2="413.36" y2="230.23" gradientUnits="userSpaceOnUse"><stop offset="0" stop-color="#028484" stop-opacity="0"/><stop offset="1" stop-color="#028484" stop-opacity="0.2"/></linearGradient></defs><path class="cls-1" d="M185.43,463.42,182,466l-.15.1L179.3,468a6.49,6.49,0,0,0-1.33,9.07l.36.48,11.45,15.38h0l8.11,10.91a6.48,6.48,0,0,0,9.07,1.32l84.33-62.77a6.48,6.48,0,0,0,1.33-9.07l-8.11-10.9h0c22.55-16.79,44.3-27.41,67.33-38.65l6.11-3h0l10.83,14.55,6,8.05c3.62-2.69,6.62-2.39,9.79-2.07s6.58.66,10.54-2.28,4.59-6.25,5.21-9.45,1.17-6.08,4.79-8.77a10.69,10.69,0,0,1,5.11-2.18L412,381l8,10.75.34.46,2,2.65a11.61,11.61,0,0,1,3.24-1.74,14.9,14.9,0,0,1,6.55-.33,21,21,0,0,0,4.9.1,11.82,11.82,0,0,0,5.64-2.39,12.5,12.5,0,0,0,2.77-2.77l.07-.08.2-.31a2.68,2.68,0,0,0,.18-.28l.06-.1a12.69,12.69,0,0,0,1.38-3.37c.22-.84.39-1.69.55-2.53.48-2.49.94-4.86,2.93-7.09a13,13,0,0,1,1.86-1.69,10.83,10.83,0,0,1,4.89-2.13,19.13,19.13,0,0,1,4.9.06l1.55.14a13.05,13.05,0,0,0,5.59-.58A12.68,12.68,0,0,0,473,368a15.55,15.55,0,0,0,1.34-1.12c2.78-2.65,3.33-5.53,3.87-8.32.47-2.42.92-4.73,2.77-6.9a12.06,12.06,0,0,1,2-1.88l-.71-.94-1.61-2.17L478,343l-5.28-7.1L457.87,316h0c10.12-8.87,19.67-17.95,28.35-26.65,19.09-19.13,34-36.46,41.77-45.8a11.7,11.7,0,0,0,1.65-12.33,11.53,11.53,0,0,0-1.27-2.16l-9.66-13a2.16,2.16,0,0,0-3.42-.06c-.43.55-.94,1.2-1.53,1.93a52.49,52.49,0,0,0-47.94-19.78l-.48.06c-19.54,2.53-44.66,9.1-66.46,25.33-2.1,1.56-4.26,3.07-6.45,4.53l-.79-1.06a8.29,8.29,0,0,0-10.75-2.25c-1.25.71-2.53,1.39-3.8,2.09a297.18,297.18,0,0,1-54.8,23,4.76,4.76,0,0,0-2.4,7.37l.9,1.2A285.34,285.34,0,0,1,290.6,265L287.68,261a16.71,16.71,0,0,0-12.27-6.7l-11.79-.81a5.41,5.41,0,0,0-4.6-4.91,5.56,5.56,0,0,0-2,.09,6.41,6.41,0,0,0-.81.27,5.24,5.24,0,0,0-.48.23,5.16,5.16,0,0,0-.68.42l-.4.33a5.12,5.12,0,0,0-.7.77,5.36,5.36,0,0,0-.94,2.07l-19.16-1.32a5.4,5.4,0,0,0-4.61-5h0a5.4,5.4,0,0,0-5.11,2.1,5.11,5.11,0,0,0-.54.9,4.73,4.73,0,0,0-.25.62,6.48,6.48,0,0,0-.17.63l-13.89-.95a11.82,11.82,0,0,0-12.63,11.73c-.19,38.77-16.7,58.78-45.66,80.34l-42.16,31.39a6.48,6.48,0,0,0-1.33,9.07l24.39,32.76-.49.15a2.92,2.92,0,0,0-1.43,4.51l25.19,33.84c4.68,6.28,20.61,17.06,26.88,12.38l3.47-2.58h0"/><path class="cls-2" d="M327,353.81l60.66-45.15-56.78-76.27a8.3,8.3,0,0,0-10.75-2.26,294.94,294.94,0,0,1-58.6,25.14,4.74,4.74,0,0,0-2.4,7.36Z"/><path class="cls-2" d="M349.66,352.57c3.95-2.95,4.59-6.25,5.21-9.45s1.17-6.08,4.79-8.78,6.62-2.39,9.78-2.07S376,332.94,380,330s4.6-6.25,5.21-9.44,1.17-6.08,4.79-8.78l-10.32-13.86c-4,2.94-4.59,6.24-5.2,9.44s-1.18,6.08-4.8,8.78-6.61,2.39-9.78,2.07-6.58-.67-10.54,2.28-4.6,6.25-5.21,9.44S343,336,339.34,338.7s-6.62,2.4-9.79,2.08-6.58-.67-10.54,2.28l10.32,13.86c3.62-2.69,6.62-2.39,9.79-2.07S345.7,355.51,349.66,352.57Z"/><path class="cls-3" d="M469.08,172.5s-9,14.73-22.75,33.15c-9.8,13.1-22,28.07-35.19,40.94-3.08,3-6.21,5.91-9.37,8.64q-3.5,3-7,5.74c-8.48,6.52-18.07,13.24-27.88,19.75-9.2,6.12-18.58,12-27.4,17.45-15.65,9.59-29.52,17.56-37.46,22-4.43,2.5-7,3.91-7,3.91l-66.45,37.72-11,6.27-.73.41-3.17-6.34-31.24-62.39L203,237.33l5.27-15.94,1.08-3.28,7.32.08,28.47.33A289.22,289.22,0,0,0,275.35,212c20.69-5.5,48.49-15,71.64-30.39,2.19-1.46,4.35-3,6.45-4.53,21.8-16.23,46.92-22.8,66.46-25.33l.48-.06a52.49,52.49,0,0,1,47.94,19.78C468.58,171.83,468.83,172.17,469.08,172.5Z"/><path class="cls-4" d="M139.41,392H244.53a6.48,6.48,0,0,1,6.48,6.48V431.2a0,0,0,0,1,0,0H132.92a0,0,0,0,1,0,0V398.44A6.48,6.48,0,0,1,139.41,392Z" transform="translate(591.72 627.09) rotate(143.34)"/><path class="cls-4" d="M485.22,190.5a11.78,11.78,0,0,1-2.67,6.6c-7.74,9.34-22.68,26.67-41.77,45.8-8.68,8.7-18.23,17.78-28.35,26.65-8.55,7.5-17.51,14.85-26.71,21.7q-3.6,2.69-7.15,5.18c-9.39,6.64-18.47,12.38-27.34,17.54-13.33,7.76-26.15,14.19-38.72,20.35l-6.11,3c-23,11.24-44.78,21.86-67.33,38.65l-94.73,70.51-11.45-15.38-.36-.48a6.49,6.49,0,0,1,1.33-9.07l2.56-1.91.15-.1L140,417l18.54-13.8,14-10.45,7.37-5.48,33.68-25.07,9.78-7.28c23.79-17.71,46.21-28.66,69.95-40.25l3.32-1.62c12.63-6.17,25.5-12.55,38.82-20.21,8.91-5.14,18-10.84,27.41-17.45q3.56-2.5,7.15-5.18c9-6.69,17.85-14.08,26.38-21.73l.18-.17c33.84-30.41,62.34-65,71.72-76.78.59-.73,1.1-1.38,1.53-1.93a2.16,2.16,0,0,1,3.42.06l9.66,13a11.53,11.53,0,0,1,1.27,2.16A11.71,11.71,0,0,1,485.22,190.5Z"/><path class="cls-5" d="M63.35,326.82l42.16-31.39c29-21.56,45.47-41.57,45.66-80.34a11.82,11.82,0,0,1,12.63-11.73L230,207.9a16.73,16.73,0,0,1,12.27,6.7L254,230.42a6.5,6.5,0,0,1,0,7.72C243.91,251.9,211.9,301,230.51,349.6L176,390.16,162,400.6,140,417c-6.28,4.67-22.21-6.1-26.88-12.38L62,335.89A6.48,6.48,0,0,1,63.35,326.82Z"/><path class="cls-6" d="M276.85,203.48a295.19,295.19,0,0,0,58.6-25.14,8.29,8.29,0,0,1,10.75,2.25l81,108.85,8,10.75,2.31,3.11c-3.62,2.7-4.19,5.65-4.79,8.78s-1.25,6.49-5.21,9.44-7.3,2.61-10.54,2.28-6.16-.62-9.78,2.07-4.19,5.65-4.8,8.78-1.25,6.5-5.21,9.44-7.3,2.61-10.53,2.29-6.17-.63-9.79,2.07l-2.32-3.11-8-10.75L274.45,210.83A4.73,4.73,0,0,1,276.85,203.48Z"/><path class="cls-3" d="M179.93,387.25l-7.37,5.49-14,10.44-22,16.35c-6.28,4.67-22.2-6.1-26.88-12.38L84.49,373.31a2.92,2.92,0,0,1,1.43-4.51A98.37,98.37,0,0,1,179.93,387.25Z"/><rect class="cls-7" x="160.26" y="214.96" width="41.05" height="10.8" rx="5.4" transform="translate(425.03 73.44) rotate(98.34)"/><path class="cls-8" d="M177.63,204.62a5.4,5.4,0,0,1,6.13-4.56h0a5.4,5.4,0,0,1,4.56,6.12l-2.43,16.6L175.68,218Z"/><rect class="cls-7" x="190.08" y="217.09" width="41.05" height="10.8" rx="5.4" transform="translate(461.27 46.37) rotate(98.34)"/><path class="cls-9" d="M207.45,206.74a5.41,5.41,0,0,1,6.13-4.56h0a5.41,5.41,0,0,1,4.56,6.13l-2.43,16.6-10.21-4.84Z"/><path class="cls-6" d="M363.36,203.64,324.08,277.5l-49.63-66.67a4.74,4.74,0,0,1,2.4-7.36,295.5,295.5,0,0,0,58.6-25.13,8.28,8.28,0,0,1,10.75,2.25Z"/><path class="cls-10" d="M468.32,171.51c-9.38,11.76-37.88,46.37-71.72,76.78l-16.34-21.95,39.64-74.55.48-.06A52.49,52.49,0,0,1,468.32,171.51Z"/><path class="cls-11" d="M437.55,303.3c-3.63,2.69-4.2,5.65-4.8,8.78s-1.25,6.49-5.21,9.44-7.3,2.6-10.53,2.28-6.17-.63-9.79,2.07-4.19,5.65-4.79,8.78-1.25,6.49-5.21,9.44-7.31,2.61-10.54,2.28-6.16-.62-9.79,2.08l-2.31-3.11-8-10.76L324.08,277.5l39.28-73.86,63.87,85.79,8,10.76Z"/><rect class="cls-12" width="600" height="600"/></svg>