<svg xmlns="http://www.w3.org/2000/svg" xmlns:xlink="http://www.w3.org/1999/xlink" viewBox="0 0 600 600"><defs><style>.cls-1{fill:none;}.cls-2{fill:url(#Degradado_sin_nombre_512);}.cls-3{fill:#043263;}.cls-4{fill:#004481;}.cls-5{fill:url(#Degradado_sin_nombre_114);}.cls-6{fill:#49a5e6;}.cls-7{fill:#2dcccd;}</style><linearGradient id="Degradado_sin_nombre_512" x1="294.93" y1="-3353.04" x2="448.52" y2="-3641.89" gradientTransform="matrix(1, 0, 0, -1, 0, -3130)" gradientUnits="userSpaceOnUse"><stop offset="0" stop-color="#192647" stop-opacity="0.5"/><stop offset="1" stop-color="#192647" stop-opacity="0"/></linearGradient><linearGradient id="Degradado_sin_nombre_114" x1="476" y1="-3498.08" x2="252.89" y2="-3498.08" gradientTransform="matrix(1, 0, 0, -1, 0, -3130)" gradientUnits="userSpaceOnUse"><stop offset="0" stop-color="#072146" stop-opacity="0.8"/><stop offset="1" stop-color="#072146" stop-opacity="0"/></linearGradient></defs><title>11</title><g id="Cuadrados_Blancos" data-name="Cuadrados Blancos"><rect class="cls-1" width="600" height="600"/></g><g id="Capa_76" data-name="Capa 76"><path class="cls-2" d="M538.85,295.66H370V216.5a20,20,0,0,0-20-20h0a20,20,0,0,0-20,20v79.16H161.15a11.1,11.1,0,0,0-10.57,14.61l6.81,20.34a3,3,0,0,0,2.84,2H174l14.45,43.47H186.6a3,3,0,0,0-3,3,3.09,3.09,0,0,0,.15.95l4.65,14a3,3,0,0,0,2.85,2.05h3.84l14.33,43.11h-1.84a3,3,0,0,0-3,3,3.09,3.09,0,0,0,.15.95l4.65,14a3,3,0,0,0,2.85,2.05h3.84l12.38,37.25a10.23,10.23,0,0,0,9.7,7H461.86a10.2,10.2,0,0,0,7.68-3.49l.13-.16a10.13,10.13,0,0,0,1.88-3.36l9.94-29.91,2.44-7.34h3.84a3,3,0,0,0,2.85-2.05l4.65-14a3,3,0,0,0-1.9-3.8,3,3,0,0,0-.95-.15h-1.84l14.33-43.11h3.84A3,3,0,0,0,511.6,394l4.65-14a3,3,0,0,0-1.9-3.8,3,3,0,0,0-1-.15h-1.84L526,332.66h13.77a3,3,0,0,0,2.84-2l6.81-20.34a11.11,11.11,0,0,0-10.57-14.66Z"/><path class="cls-3" d="M499.42,260.27a11.12,11.12,0,0,0-10.57-14.61H111.15a11.1,11.1,0,0,0-10.57,14.61l6.81,20.34a3,3,0,0,0,2.84,2H489.77a3,3,0,0,0,2.84-2Z"/><path class="cls-4" d="M124,282.66l54.44,163.83a10.23,10.23,0,0,0,9.7,7H411.86a10.23,10.23,0,0,0,9.7-7L476,282.66Z"/><path class="cls-5" d="M343.73,282.66,252.89,453.5h159a10.23,10.23,0,0,0,9.7-7L476,282.66Z"/><path class="cls-6" d="M437.77,409.24H162.23a3,3,0,0,1-2.85-2.05l-4.65-14a3,3,0,0,1,1.9-3.8,3,3,0,0,1,1-.15H442.42a3,3,0,0,1,3,3,3.09,3.09,0,0,1-.15.95l-4.65,14A3,3,0,0,1,437.77,409.24Z"/><path class="cls-6" d="M458.74,346.13H141.26a3,3,0,0,1-2.85-2.05l-4.65-14a3,3,0,0,1,1.9-3.8,3,3,0,0,1,1-.15H463.4a3,3,0,0,1,3,3,3.09,3.09,0,0,1-.15.95l-4.65,14A3,3,0,0,1,458.74,346.13Z"/><path class="cls-7" d="M300,146.5h0a20,20,0,0,1,20,20v287H280v-287A20,20,0,0,1,300,146.5Z"/></g></svg>