<svg id="Contenido" xmlns="http://www.w3.org/2000/svg" xmlns:xlink="http://www.w3.org/1999/xlink" viewBox="0 0 600 600"><defs><style>.cls-1{fill:url(#Degradado_sin_nombre);}.cls-2{fill:#2dcccd;}.cls-3{fill:#49a5e6;}.cls-4{fill:url(#Degradado_sin_nombre_2);}.cls-5{fill:url(#Degradado_sin_nombre_3);}.cls-6{fill:url(#Degradado_sin_nombre_4);}.cls-7{fill:url(#Degradado_sin_nombre_5);}.cls-8{fill:#043263;}.cls-9{fill:#1464a5;}.cls-10{fill:#d4edfc;}.cls-11{fill:url(#Degradado_sin_nombre_6);}.cls-12{fill:url(#Degradado_sin_nombre_7);}.cls-13{fill:#48ae64;}.cls-14{fill:#fff;}.cls-15{fill:none;}</style><linearGradient id="Degradado_sin_nombre" x1="254.62" y1="122.62" x2="443.5" y2="477.84" gradientUnits="userSpaceOnUse"><stop offset="0" stop-color="#192647" stop-opacity="0.5"/><stop offset="1" stop-color="#192647" stop-opacity="0"/></linearGradient><linearGradient id="Degradado_sin_nombre_2" x1="431.68" y1="311.66" x2="258.53" y2="311.66" gradientTransform="matrix(1, 0, 0, -1, 0, 602)" gradientUnits="userSpaceOnUse"><stop offset="0" stop-color="#043263" stop-opacity="0.3"/><stop offset="1" stop-color="#043263" stop-opacity="0"/></linearGradient><linearGradient id="Degradado_sin_nombre_3" x1="404.61" y1="352.21" x2="162.15" y2="352.21" gradientTransform="matrix(1, 0, 0, -1, 0, 602)" gradientUnits="userSpaceOnUse"><stop offset="0" stop-color="#043263" stop-opacity="0.2"/><stop offset="1" stop-color="#043263" stop-opacity="0.1"/></linearGradient><linearGradient id="Degradado_sin_nombre_4" x1="394.37" y1="311.65" x2="171.44" y2="311.65" xlink:href="#Degradado_sin_nombre_3"/><linearGradient id="Degradado_sin_nombre_5" x1="384.07" y1="271.08" x2="180.26" y2="271.08" xlink:href="#Degradado_sin_nombre_3"/><linearGradient id="Degradado_sin_nombre_6" x1="213.71" y1="184.12" x2="185.14" y2="184.12" gradientTransform="matrix(1, 0, 0, -1, 0, 602)" gradientUnits="userSpaceOnUse"><stop offset="0.01" stop-color="#043263" stop-opacity="0.2"/><stop offset="1" stop-color="#043263" stop-opacity="0"/></linearGradient><linearGradient id="Degradado_sin_nombre_7" x1="359.26" y1="184.14" x2="330.68" y2="184.14" xlink:href="#Degradado_sin_nombre_6"/></defs><path class="cls-1" d="M474.09,170.26a65.12,65.12,0,0,0-63.69,78.6H208.26l-8.34-31.79a3,3,0,0,0-1.73-2l-16.42-7a3,3,0,0,0-3.89,1.49l-.41.87L163.78,204l0-.07a3,3,0,0,0-1.45-4l-30.61-14.27a3,3,0,0,0-4,1.45l-5.3,11.35a3,3,0,0,0,1.46,4l30.61,14.28a3,3,0,0,0,4-1.46l0-.08,13.69,6.38-.58,1.24a3,3,0,0,0,1.44,4h0l8.21,3.83,53.49,202.07a35,35,0,1,0,44,34h75.57a35,35,0,0,0,70,0h18.4a3,3,0,0,0,2.92-2.3l3.54-14.56a3,3,0,0,0-2.21-3.62,2.82,2.82,0,0,0-.71-.09H417.91a35,35,0,0,0-56.92,0H272.35a35.2,35.2,0,0,0-15.49-12.14l-6-22.91H417.42A36,36,0,0,0,452.3,384l21.11-83.53.68,0a65.1,65.1,0,1,0,0-130.2Zm-55.6,99v0H213.61v0Z"/><path class="cls-2" d="M440.29,199H154.88v20.37h278a7.83,7.83,0,0,0,7.61-5.93l2.71-10.7a3,3,0,0,0-2.16-3.65A3.2,3.2,0,0,0,440.29,199Z"/><path class="cls-3" d="M367.8,361.3H198L160.86,219.39H431.68l-29,114.72A36,36,0,0,1,367.8,361.3Z"/><path class="cls-4" d="M334,219.39,258.53,361.3H367.8a36,36,0,0,0,34.88-27.19l29-114.72Z"/><path class="cls-5" d="M398,260H162.15V239.59H401.6a3,3,0,0,1,3,3,2.64,2.64,0,0,1-.1.74l-3.64,14.36A3,3,0,0,1,398,260Z"/><path class="cls-6" d="M387.68,300.53H171.44V280.16H391.36a3,3,0,0,1,3,3,2.64,2.64,0,0,1-.1.74l-3.65,14.37A3,3,0,0,1,387.68,300.53Z"/><path class="cls-7" d="M366.09,341.1H180.26V320.73h200.8a3,3,0,0,1,3,3,2.78,2.78,0,0,1-.1.76l-.88,3.42A17.54,17.54,0,0,1,366.09,341.1Z"/><rect class="cls-8" x="101.98" y="132.46" width="12.35" height="51.47" transform="translate(-80.92 189.36) rotate(-65)"/><rect class="cls-2" x="84.26" y="131.49" width="18.53" height="39.78" rx="3" transform="translate(-83.19 172.17) rotate(-65)"/><path class="cls-9" d="M210.43,396.35,150.3,167.21a3,3,0,0,0-1.73-2l-16.42-7a3,3,0,0,0-3.89,1.49L122.05,173a3,3,0,0,0,1.44,4h0l8.21,3.83,62.5,236.09h199a3,3,0,0,0,2.92-2.3l3.54-14.56a3,3,0,0,0-2.2-3.62,2.84,2.84,0,0,0-.72-.09Z"/><circle class="cls-8" cx="194.27" cy="416.71" r="35"/><circle class="cls-10" cx="194.27" cy="416.71" r="19.44"/><path class="cls-11" d="M203.39,399.55l-18.25,34.33a19.44,19.44,0,1,0,18.44-34.23Z"/><circle class="cls-8" cx="339.83" cy="416.71" r="35"/><circle class="cls-10" cx="339.83" cy="416.71" r="19.44"/><path class="cls-12" d="M349,399.55l-18.28,34.33a19.44,19.44,0,1,0,18.26-34.33h0Z"/><path class="cls-13" d="M489.57,185.49a65.1,65.1,0,1,1-65.1-65.1h0a65.1,65.1,0,0,1,65.1,65.1h0"/><path class="cls-14" d="M411.07,214.69A5.81,5.81,0,0,1,407,213l-20.1-20a5.8,5.8,0,0,1,8.2-8.2l16,15.9,42.8-42.7a5.8,5.8,0,1,1,8.4,8l-.2.2L415.17,213A5.77,5.77,0,0,1,411.07,214.69Z"/><rect class="cls-15" width="600" height="600"/></svg>