<svg id="Contenido" xmlns="http://www.w3.org/2000/svg" xmlns:xlink="http://www.w3.org/1999/xlink" viewBox="0 0 600 600"><defs><style>.cls-1{fill:url(#Degradado_sin_nombre_2);}.cls-2{fill:#2dcccd;}.cls-3{fill:#49a5e6;}.cls-4{fill:url(#Degradado_sin_nombre_12);}.cls-5{fill:url(#Degradado_sin_nombre_15);}.cls-6{fill:url(#Degradado_sin_nombre_15-2);}.cls-7{fill:url(#Degradado_sin_nombre_15-3);}.cls-8{fill:#043263;}.cls-9{fill:#1464a5;}.cls-10{fill:#d4edfc;}.cls-11{fill:url(#Degradado_sin_nombre_7);}.cls-12{fill:url(#Degradado_sin_nombre_7-2);}</style><linearGradient id="Degradado_sin_nombre_2" x1="262.75" y1="133.07" x2="452.97" y2="490.82" gradientUnits="userSpaceOnUse"><stop offset="0" stop-color="#192647" stop-opacity="0.5"/><stop offset="1" stop-color="#192647" stop-opacity="0"/></linearGradient><linearGradient id="Degradado_sin_nombre_12" x1="464.98" y1="290.34" x2="291.85" y2="290.34" gradientUnits="userSpaceOnUse"><stop offset="0" stop-color="#043263" stop-opacity="0.3"/><stop offset="1" stop-color="#043263" stop-opacity="0"/></linearGradient><linearGradient id="Degradado_sin_nombre_15" x1="437.92" y1="249.77" x2="195.47" y2="249.77" gradientUnits="userSpaceOnUse"><stop offset="0" stop-color="#043263" stop-opacity="0.2"/><stop offset="1" stop-color="#043263" stop-opacity="0.1"/></linearGradient><linearGradient id="Degradado_sin_nombre_15-2" x1="427.68" y1="290.34" x2="204.76" y2="290.34" xlink:href="#Degradado_sin_nombre_15"/><linearGradient id="Degradado_sin_nombre_15-3" x1="417.39" y1="330.91" x2="213.58" y2="330.91" xlink:href="#Degradado_sin_nombre_15"/><linearGradient id="Degradado_sin_nombre_7" x1="247.03" y1="417.85" x2="218.46" y2="417.85" gradientUnits="userSpaceOnUse"><stop offset="0.01" stop-color="#043263" stop-opacity="0.2"/><stop offset="1" stop-color="#043263" stop-opacity="0"/></linearGradient><linearGradient id="Degradado_sin_nombre_7-2" x1="392.59" y1="417.85" x2="364.02" y2="417.85" xlink:href="#Degradado_sin_nombre_7"/></defs><title>carrito</title><path class="cls-1" d="M524.21,249H242.57l-8.35-31.81a3,3,0,0,0-1.73-2l-16.41-7a3,3,0,0,0-3.9,1.49l-.39.85-13.7-6.39,0-.08a3,3,0,0,0-1.45-4l-30.62-14.28a3,3,0,0,0-4,1.45l-5.3,11.36a3,3,0,0,0,1.45,4l30.62,14.28a3,3,0,0,0,4-1.45l0-.08,13.7,6.39L206,223a3,3,0,0,0,1.45,4l8.21,3.83,53.5,202a35,35,0,1,0,44,34h75.58a35,35,0,0,0,70,0h18.4a3,3,0,0,0,2.92-2.3l3.54-14.58a3,3,0,0,0-2.91-3.71H452.21a35,35,0,0,0-56.91,0H306.64a35.09,35.09,0,0,0-15.47-12.14l-6-22.91H451.73a36,36,0,0,0,34.9-27.19l29-114.72h1.22a7.84,7.84,0,0,0,7.61-5.93l2.71-10.7A3,3,0,0,0,524.21,249Z"/><path class="cls-2" d="M473.61,199H188.2v20.37h278a7.85,7.85,0,0,0,7.61-5.93l2.71-10.7A3,3,0,0,0,473.61,199Z"/><path class="cls-3" d="M401.12,361.3H231.27L194.18,219.39H465L436,334.11A36,36,0,0,1,401.12,361.3Z"/><path class="cls-4" d="M367.31,219.39,291.85,361.3H401.12A36,36,0,0,0,436,334.11l29-114.72Z"/><path class="cls-5" d="M431.29,260H195.47V239.59H434.92a3,3,0,0,1,2.91,3.74l-3.64,14.36A3,3,0,0,1,431.29,260Z"/><path class="cls-6" d="M421,300.53H204.76V280.16H424.68a3,3,0,0,1,2.91,3.74l-3.65,14.37A3,3,0,0,1,421,300.53Z"/><path class="cls-7" d="M399.41,341.1H213.58V320.73h200.8a3,3,0,0,1,2.91,3.75l-.88,3.42A17.55,17.55,0,0,1,399.41,341.1Z"/><rect class="cls-8" x="115.74" y="152.02" width="51.47" height="12.35" transform="translate(80.11 -44.97) rotate(25)"/><rect class="cls-2" x="106.95" y="142.11" width="39.78" height="18.53" rx="3" transform="translate(75.86 -39.42) rotate(25)"/><path class="cls-9" d="M243.75,396.35,183.62,167.21a3,3,0,0,0-1.73-2l-16.42-7a3,3,0,0,0-3.89,1.49L155.37,173a3,3,0,0,0,1.46,4l8.21,3.83,62.5,236.09h199a3,3,0,0,0,2.92-2.3L433,400.06a3,3,0,0,0-2.92-3.71Z"/><circle class="cls-8" cx="227.59" cy="416.71" r="35"/><circle class="cls-10" cx="227.59" cy="416.71" r="19.44"/><path class="cls-11" d="M236.71,399.55l-18.25,34.33a19.44,19.44,0,1,0,18.25-34.33Z"/><circle class="cls-8" cx="373.15" cy="416.71" r="35"/><circle class="cls-10" cx="373.15" cy="416.71" r="19.44"/><path class="cls-12" d="M382.28,399.55,364,433.88a19.44,19.44,0,0,0,18.26-34.33Z"/></svg>