<svg id="Contenido" xmlns="http://www.w3.org/2000/svg" xmlns:xlink="http://www.w3.org/1999/xlink" viewBox="0 0 600 600"><defs><style>.cls-1{fill:url(#Degradado_sin_nombre_16);}.cls-2{fill:#2dcccd;}.cls-3{fill:#1464a5;}.cls-4{fill:#043263;}.cls-5{fill:url(#Degradado_sin_nombre_4);}.cls-6{fill:#028484;}.cls-7{fill:url(#Degradado_sin_nombre_71);}</style><linearGradient id="Degradado_sin_nombre_16" x1="246.42" y1="210.31" x2="420.55" y2="537.81" gradientUnits="userSpaceOnUse"><stop offset="0" stop-color="#192647"/><stop offset="0" stop-color="#192647" stop-opacity="0.5"/><stop offset="1" stop-color="#192647" stop-opacity="0"/></linearGradient><linearGradient id="Degradado_sin_nombre_4" x1="465.68" y1="367.95" x2="338.84" y2="367.95" gradientUnits="userSpaceOnUse"><stop offset="0" stop-color="#028484" stop-opacity="0.4"/><stop offset="1" stop-color="#028484" stop-opacity="0.1"/></linearGradient><linearGradient id="Degradado_sin_nombre_71" x1="382.32" y1="329" x2="194.51" y2="329" gradientUnits="userSpaceOnUse"><stop offset="0" stop-color="#043263" stop-opacity="0.4"/><stop offset="1" stop-color="#043263" stop-opacity="0.1"/></linearGradient></defs><title>bolsas_compra</title><path class="cls-1" d="M514.64,338.14a2,2,0,0,0-1.87-1.24H473.93V311.24l-13.51-13.51h-29V262a3,3,0,0,0-3-3h-57.5V221l-20-20h-87l-20,20v38h-57.5a3,3,0,0,0-3,3V467.73a3,3,0,0,0,.91,2.16l29.21,28.27a3,3,0,0,0,2.09.84H493a2,2,0,0,0,1.41-.57L513.54,480l.64-.62h0a2,2,0,0,0,.62-1.46V338.93A2,2,0,0,0,514.64,338.14ZM263.93,221h87v38h-87Zm196.5,90.24V336.9h-29V311.24Z"/><path class="cls-2" d="M443.93,449h-124a2,2,0,0,1-1.41-.57L298.8,429.34a2,2,0,0,1-.62-1.46V288.93a2,2,0,0,1,2-2H463.66a2,2,0,0,1,2,2V427.88a2,2,0,0,1-.62,1.46l-19.73,19.09A2,2,0,0,1,443.93,449Z"/><rect class="cls-3" x="339.04" y="261.24" width="13.51" height="25.67"/><path class="cls-4" d="M424.82,261.24h0l-13.51-13.51H352.55L339,261.24h85.78Z"/><rect class="cls-3" x="411.31" y="261.24" width="13.51" height="25.67"/><path class="cls-5" d="M463.66,286.9H425L338.84,449H443.93a2,2,0,0,0,1.41-.57l19.73-19.09a2,2,0,0,0,.62-1.46V288.93A2,2,0,0,0,463.66,286.9Z"/><path class="cls-3" d="M350.1,449H166.53a3,3,0,0,1-2.09-.84l-29.21-28.27a3,3,0,0,1-.91-2.16V212a3,3,0,0,1,3-3h242a3,3,0,0,1,3,3V417.73a3,3,0,0,1-.91,2.16l-29.21,28.27A3,3,0,0,1,350.1,449Z"/><rect class="cls-2" x="194.82" y="171" width="20" height="38"/><path class="cls-6" d="M321.82,171h0l-20-20h-87l-20,20h127Z"/><rect class="cls-2" x="301.82" y="171" width="20" height="38"/><path class="cls-7" d="M379.32,209H322.12L194.51,449H350.1a3,3,0,0,0,2.09-.84l29.21-28.27a3,3,0,0,0,.91-2.16V212A3,3,0,0,0,379.32,209Z"/></svg>