<svg xmlns="http://www.w3.org/2000/svg" xmlns:xlink="http://www.w3.org/1999/xlink" viewBox="0 0 600 600"><defs><style>.cls-1{fill:none;}.cls-2{fill:url(#Degradado_sin_nombre_515);}.cls-3{fill:#004481;}.cls-4{fill:#2dcccd;}.cls-5{fill:#028484;}.cls-6{fill:url(#Degradado_sin_nombre_114);}</style><linearGradient id="Degradado_sin_nombre_515" x1="272.49" y1="-3353.08" x2="426" y2="-3641.79" gradientTransform="matrix(1, 0, 0, -1, 0, -3130)" gradientUnits="userSpaceOnUse"><stop offset="0" stop-color="#1c2645" stop-opacity="0.5"/><stop offset="1" stop-color="#1c2645" stop-opacity="0"/></linearGradient><linearGradient id="Degradado_sin_nombre_114" x1="424" y1="-3450" x2="236.19" y2="-3450" gradientTransform="matrix(1, 0, 0, -1, 0, -3130)" gradientUnits="userSpaceOnUse"><stop offset="0" stop-color="#072146" stop-opacity="0.8"/><stop offset="1" stop-color="#072146" stop-opacity="0"/></linearGradient></defs><g id="Cuadrados_Blancos" data-name="Cuadrados Blancos"><rect class="cls-1" width="600" height="600"/></g><g id="Capa_74" data-name="Capa 74"><path class="cls-2" d="M471,263H413.5V225h0l-20-20h-87l-20,20h0v38H229a3,3,0,0,0-3,3V471.73a3,3,0,0,0,.91,2.15l29.22,28.28a3,3,0,0,0,2.08.84H441.79a3,3,0,0,0,2.08-.84l29.22-28.28a3,3,0,0,0,.91-2.15V266A3,3,0,0,0,471,263Zm-164.5,0V225h87v38Z"/><path class="cls-3" d="M391.79,440H208.21a3,3,0,0,1-2.08-.84l-29.22-28.28a3,3,0,0,1-.91-2.15V203a3,3,0,0,1,3-3H421a3,3,0,0,1,3,3V408.73a3,3,0,0,1-.91,2.15l-29.22,28.28A3,3,0,0,1,391.79,440Z"/><rect class="cls-4" x="236.5" y="162" width="20" height="38"/><path class="cls-5" d="M363.5,162h0l-20-20h-87l-20,20Z"/><rect class="cls-4" x="343.5" y="162" width="20" height="38"/><path class="cls-6" d="M421,200H363.81L236.19,440h155.6a3,3,0,0,0,2.08-.84l29.22-28.28a3,3,0,0,0,.91-2.15V203A3,3,0,0,0,421,200Z"/></g></svg>