<svg xmlns="http://www.w3.org/2000/svg" xmlns:xlink="http://www.w3.org/1999/xlink" viewBox="0 0 600 600"><defs><style>.cls-1{fill:none;}.cls-2{fill:url(#Degradado_sin_nombre_93);}.cls-3{fill:#2dcccd;}.cls-4{fill:#49a5e6;}.cls-5{fill:url(#Degradado_sin_nombre_121);}.cls-6{fill:url(#Degradado_sin_nombre_120);}.cls-7{fill:url(#Degradado_sin_nombre_120-2);}.cls-8{fill:url(#Degradado_sin_nombre_120-3);}.cls-9{fill:#043263;}.cls-10{fill:#004481;}.cls-11{fill:#d4edfc;}.cls-12{fill:url(#Degradado_sin_nombre_119);}.cls-13{fill:url(#Degradado_sin_nombre_119-2);}</style><linearGradient id="Degradado_sin_nombre_93" x1="262.73" y1="-3262.99" x2="453.04" y2="-3620.9" gradientTransform="matrix(1, 0, 0, -1, 0, -3130)" gradientUnits="userSpaceOnUse"><stop offset="0" stop-color="#192647" stop-opacity="0.5"/><stop offset="1" stop-color="#192647" stop-opacity="0"/></linearGradient><linearGradient id="Degradado_sin_nombre_121" x1="465" y1="-3420.34" x2="291.85" y2="-3420.34" gradientTransform="matrix(1, 0, 0, -1, 0, -3130)" gradientUnits="userSpaceOnUse"><stop offset="0" stop-color="#043263" stop-opacity="0.3"/><stop offset="1" stop-color="#043263" stop-opacity="0"/></linearGradient><linearGradient id="Degradado_sin_nombre_120" x1="437.92" y1="-3379.79" x2="195.47" y2="-3379.79" gradientTransform="matrix(1, 0, 0, -1, 0, -3130)" gradientUnits="userSpaceOnUse"><stop offset="0" stop-color="#043263" stop-opacity="0.2"/><stop offset="1" stop-color="#043263" stop-opacity="0.1"/></linearGradient><linearGradient id="Degradado_sin_nombre_120-2" x1="427.68" y1="-3420.35" x2="204.76" y2="-3420.35" xlink:href="#Degradado_sin_nombre_120"/><linearGradient id="Degradado_sin_nombre_120-3" x1="417.39" y1="-3460.92" x2="213.58" y2="-3460.92" xlink:href="#Degradado_sin_nombre_120"/><linearGradient id="Degradado_sin_nombre_119" x1="247.03" y1="-3547.88" x2="218.46" y2="-3547.88" gradientTransform="matrix(1, 0, 0, -1, 0, -3130)" gradientUnits="userSpaceOnUse"><stop offset="0.01" stop-color="#043263" stop-opacity="0.2"/><stop offset="1" stop-color="#043263" stop-opacity="0"/></linearGradient><linearGradient id="Degradado_sin_nombre_119-2" x1="392.58" y1="-3547.86" x2="364" y2="-3547.86" xlink:href="#Degradado_sin_nombre_119"/></defs><title>11</title><g id="Cuadrados_Blancos" data-name="Cuadrados Blancos"><rect class="cls-1" width="600" height="600"/></g><g id="Capa_77" data-name="Capa 77"><path class="cls-2" d="M524.21,249H242.57l-8.35-31.81a3,3,0,0,0-1.73-2l-16.41-7a3,3,0,0,0-3.9,1.49l-.39.85-13.7-6.39v-.08a3,3,0,0,0-1.43-4h0L166,185.78a3,3,0,0,0-4,1.43v0l-5.3,11.36a3,3,0,0,0,1.43,4h0l30.62,14.28a3,3,0,0,0,4-1.43v-.1l13.7,6.39L206,223a3,3,0,0,0,1.43,4h0l8.21,3.83,53.5,202a35,35,0,1,0,44,34h75.58a35,35,0,0,0,70,0h18.4a3,3,0,0,0,2.92-2.3L483.6,450a3,3,0,0,0-2.2-3.62,2.88,2.88,0,0,0-.71-.09H452.21a35,35,0,0,0-56.91,0H306.64a35,35,0,0,0-15.47-12.14l-6-22.91H451.73A36,36,0,0,0,486.63,384l29-114.72h1.22a7.84,7.84,0,0,0,7.61-5.93l2.71-10.7a3,3,0,0,0-2.28-3.58A3.08,3.08,0,0,0,524.21,249Z"/><path class="cls-3" d="M473.61,199H188.2v20.37h278a7.84,7.84,0,0,0,7.61-5.93l2.71-10.7a3,3,0,0,0-2.17-3.65A3.06,3.06,0,0,0,473.61,199Z"/><path class="cls-4" d="M401.12,361.3H231.27L194.18,219.39H465L436,334.11A36,36,0,0,1,401.12,361.3Z"/><path class="cls-5" d="M367.31,219.39,291.85,361.3H401.12A36,36,0,0,0,436,334.11l29-114.72Z"/><path class="cls-6" d="M431.29,260H195.47V239.59H434.92a3,3,0,0,1,3,3,3.06,3.06,0,0,1-.09.74l-3.64,14.36A3,3,0,0,1,431.29,260Z"/><path class="cls-7" d="M421,300.53H204.76V280.16H424.68a3,3,0,0,1,3,3,3.06,3.06,0,0,1-.09.74l-3.65,14.37A3,3,0,0,1,421,300.53Z"/><path class="cls-8" d="M399.41,341.1H213.58V320.73h200.8a3,3,0,0,1,3,3,3.23,3.23,0,0,1-.1.76l-.88,3.42A17.54,17.54,0,0,1,399.41,341.1Z"/><rect class="cls-9" x="135.3" y="132.46" width="12.35" height="51.47" transform="translate(-61.69 219.56) rotate(-65)"/><rect class="cls-3" x="117.58" y="131.49" width="18.53" height="39.78" rx="3" transform="translate(-63.96 202.36) rotate(-65)"/><path class="cls-10" d="M243.75,396.35,183.62,167.21a3,3,0,0,0-1.73-2l-16.42-7a3,3,0,0,0-3.89,1.49L155.37,173a3,3,0,0,0,1.44,4h0l8.21,3.83,62.5,236.09h199a3,3,0,0,0,2.92-2.3L433,400.06a3,3,0,0,0-2.2-3.62,3,3,0,0,0-.72-.09Z"/><circle class="cls-9" cx="227.59" cy="416.71" r="35"/><circle class="cls-11" cx="227.59" cy="416.71" r="19.44"/><path class="cls-12" d="M236.71,399.55l-18.25,34.33a19.44,19.44,0,0,0,18.43-34.23Z"/><circle class="cls-9" cx="373.15" cy="416.71" r="35"/><circle class="cls-11" cx="373.15" cy="416.71" r="19.44"/><path class="cls-13" d="M382.28,399.55,364,433.88a19.44,19.44,0,1,0,18.26-34.33h0Z"/></g></svg>