<svg id="Contenido" xmlns="http://www.w3.org/2000/svg" xmlns:xlink="http://www.w3.org/1999/xlink" viewBox="0 0 600 600"><defs><style>.cls-1{fill:url(#Degradado_sin_nombre_16);}.cls-2{fill:#043263;}.cls-3{fill:#1464a5;}.cls-4{fill:url(#Degradado_sin_nombre_6);}.cls-5{fill:#49a5e6;}.cls-6{fill:#2dcccd;}</style><linearGradient id="Degradado_sin_nombre_16" x1="294.92" y1="223.04" x2="448.53" y2="511.94" gradientUnits="userSpaceOnUse"><stop offset="0" stop-color="#192647"/><stop offset="0" stop-color="#192647" stop-opacity="0.5"/><stop offset="1" stop-color="#192647" stop-opacity="0"/></linearGradient><linearGradient id="Degradado_sin_nombre_6" x1="476" y1="368.08" x2="252.89" y2="368.08" gradientUnits="userSpaceOnUse"><stop offset="0.01" stop-color="#043263" stop-opacity="0.5"/><stop offset="1" stop-color="#043263" stop-opacity="0.1"/></linearGradient></defs><title>cesta</title><path class="cls-1" d="M538.85,295.66H370V216.5a20,20,0,0,0-20-20h0a20,20,0,0,0-20,20v79.16H161.15a11.11,11.11,0,0,0-10.57,14.61l6.81,20.34a3,3,0,0,0,2.84,2H174l14.45,43.47H186.6a3,3,0,0,0-2.85,3.95l4.65,14a3,3,0,0,0,2.85,2.05h3.84l14.33,43.11h-1.84a3,3,0,0,0-2.85,3.95l4.65,14a3,3,0,0,0,2.85,2.05h3.84l12.38,37.25a10.22,10.22,0,0,0,9.7,7H461.86a10.2,10.2,0,0,0,7.68-3.49l.13-.16a10.12,10.12,0,0,0,1.88-3.36l9.94-29.91,2.44-7.34h3.84a3,3,0,0,0,2.85-2.05l4.65-14a3,3,0,0,0-2.85-3.95h-1.84l14.33-43.11h3.84a3,3,0,0,0,2.85-2.05l4.65-14a3,3,0,0,0-2.85-3.95h-1.84L526,332.66h13.77a3,3,0,0,0,2.84-2l6.81-20.34A11.11,11.11,0,0,0,538.85,295.66Z"/><path class="cls-2" d="M499.42,260.27a11.11,11.11,0,0,0-10.57-14.61H111.15a11.11,11.11,0,0,0-10.57,14.61l6.81,20.34a3,3,0,0,0,2.84,2H489.77a3,3,0,0,0,2.84-2Z"/><path class="cls-3" d="M124,282.66l54.44,163.83a10.22,10.22,0,0,0,9.7,7H411.86a10.22,10.22,0,0,0,9.7-7L476,282.66Z"/><path class="cls-4" d="M343.73,282.66,252.89,453.5h159a10.22,10.22,0,0,0,9.7-7L476,282.66Z"/><path class="cls-5" d="M437.77,409.24H162.23a3,3,0,0,1-2.85-2.05l-4.65-14a3,3,0,0,1,2.85-3.95H442.42a3,3,0,0,1,2.85,3.95l-4.65,14A3,3,0,0,1,437.77,409.24Z"/><path class="cls-5" d="M458.74,346.13H141.26a3,3,0,0,1-2.85-2.05l-4.65-14a3,3,0,0,1,2.85-3.95H463.4a3,3,0,0,1,2.85,3.95l-4.65,14A3,3,0,0,1,458.74,346.13Z"/><path class="cls-6" d="M300,146.5h0a20,20,0,0,1,20,20v287a0,0,0,0,1,0,0H280a0,0,0,0,1,0,0v-287A20,20,0,0,1,300,146.5Z"/></svg>