<svg id="Contenido" xmlns="http://www.w3.org/2000/svg" xmlns:xlink="http://www.w3.org/1999/xlink" viewBox="0 0 600 600"><defs><style>.cls-1{fill:url(#Degradado_sin_nombre_16);}.cls-2{fill:#1464a5;}.cls-3{fill:#2dcccd;}.cls-4{fill:#028484;}.cls-5{fill:url(#Degradado_sin_nombre_71);}</style><linearGradient id="Degradado_sin_nombre_16" x1="272.49" y1="214.08" x2="426" y2="502.79" gradientUnits="userSpaceOnUse"><stop offset="0" stop-color="#1c2645"/><stop offset="0" stop-color="#1c2645" stop-opacity="0.5"/><stop offset="1" stop-color="#1c2645" stop-opacity="0"/></linearGradient><linearGradient id="Degradado_sin_nombre_71" x1="424" y1="320" x2="236.19" y2="320" gradientUnits="userSpaceOnUse"><stop offset="0" stop-color="#043263" stop-opacity="0.4"/><stop offset="1" stop-color="#043263" stop-opacity="0.1"/></linearGradient></defs><title>values-day</title><path class="cls-1" d="M471,254H413.5V216h0l-20-20h-87l-20,20h0v38H229a3,3,0,0,0-3,3V462.73a3,3,0,0,0,.91,2.15l29.22,28.28a3,3,0,0,0,2.08.84H441.79a3,3,0,0,0,2.08-.84l29.22-28.28a3,3,0,0,0,.91-2.15V257A3,3,0,0,0,471,254Zm-164.5,0V216h87v38Z"/><path class="cls-2" d="M391.79,440H208.21a3,3,0,0,1-2.08-.84l-29.22-28.28a3,3,0,0,1-.91-2.15V203a3,3,0,0,1,3-3H421a3,3,0,0,1,3,3V408.73a3,3,0,0,1-.91,2.15l-29.22,28.28A3,3,0,0,1,391.79,440Z"/><rect class="cls-3" x="236.5" y="162" width="20" height="38"/><path class="cls-4" d="M363.5,162h0l-20-20h-87l-20,20h127Z"/><rect class="cls-3" x="343.5" y="162" width="20" height="38"/><path class="cls-5" d="M421,200H363.81L236.19,440h155.6a3,3,0,0,0,2.08-.84l29.22-28.28a3,3,0,0,0,.91-2.15V203A3,3,0,0,0,421,200Z"/></svg>