<svg xmlns="http://www.w3.org/2000/svg" xmlns:xlink="http://www.w3.org/1999/xlink" viewBox="0 0 600 600"><defs><style>.cls-1{fill:none;}.cls-2{fill:url(#Degradado_sin_nombre_179);}.cls-3{fill:#2dcccd;}.cls-4{fill:#1464a5;}.cls-5{fill:#004481;}.cls-6{fill:#043263;}.cls-7{fill:#f8cd50;}.cls-8{fill:#d4edfc;}.cls-9{fill:url(#Degradado_sin_nombre_193);}.cls-10{fill:url(#Degradado_sin_nombre_193-2);}.cls-11{fill:url(#Degradado_sin_nombre_193-3);}.cls-12{fill:url(#Degradado_sin_nombre_193-4);}.cls-13{fill:url(#Degradado_sin_nombre_193-5);}.cls-14{fill:url(#Degradado_sin_nombre_193-6);}.cls-15{fill:url(#Degradado_sin_nombre_193-7);}.cls-16{fill:url(#Degradado_sin_nombre_193-8);}.cls-17{fill:url(#Degradado_sin_nombre_173);}.cls-18{fill:url(#Degradado_sin_nombre_179-2);}.cls-19{fill:url(#Degradado_sin_nombre_189);}.cls-20{fill:url(#Degradado_sin_nombre_186);}</style><linearGradient id="Degradado_sin_nombre_179" x1="197.8" y1="-14826.57" x2="372.1" y2="-15154.38" gradientTransform="matrix(1, 0, 0, -1, 0, -14660.25)" gradientUnits="userSpaceOnUse"><stop offset="0" stop-color="#043263" stop-opacity="0.5"/><stop offset="1" stop-color="#043263" stop-opacity="0"/></linearGradient><linearGradient id="Degradado_sin_nombre_193" x1="387.77" y1="-15165.82" x2="394.45" y2="-15169.37" gradientTransform="matrix(1, 0, 0, -1, 0, -14660.25)" gradientUnits="userSpaceOnUse"><stop offset="0" stop-color="#fff" stop-opacity="0.7"/><stop offset="1" stop-color="#e2f7f7" stop-opacity="0.2"/><stop offset="1" stop-color="#fff" stop-opacity="0.3"/></linearGradient><linearGradient id="Degradado_sin_nombre_193-2" x1="329.66" y1="-15053.73" x2="336.34" y2="-15057.28" xlink:href="#Degradado_sin_nombre_193"/><linearGradient id="Degradado_sin_nombre_193-3" x1="367.03" y1="-15021.04" x2="373.7" y2="-15024.59" xlink:href="#Degradado_sin_nombre_193"/><linearGradient id="Degradado_sin_nombre_193-4" x1="405.4" y1="-15115.71" x2="412.08" y2="-15119.26" xlink:href="#Degradado_sin_nombre_193"/><linearGradient id="Degradado_sin_nombre_193-5" x1="413.49" y1="-15058.97" x2="420.17" y2="-15062.52" xlink:href="#Degradado_sin_nombre_193"/><linearGradient id="Degradado_sin_nombre_193-6" x1="367.86" y1="-15073.99" x2="374.54" y2="-15077.54" xlink:href="#Degradado_sin_nombre_193"/><linearGradient id="Degradado_sin_nombre_193-7" x1="327.22" y1="-15106.8" x2="333.9" y2="-15110.35" xlink:href="#Degradado_sin_nombre_193"/><linearGradient id="Degradado_sin_nombre_193-8" x1="359.35" y1="-15132.6" x2="366.04" y2="-15136.15" xlink:href="#Degradado_sin_nombre_193"/><linearGradient id="Degradado_sin_nombre_173" x1="179.56" y1="-15066.56" x2="210.92" y2="-15097.92" gradientTransform="matrix(1, 0, 0, -1, 0, -14660.25)" gradientUnits="userSpaceOnUse"><stop offset="0" stop-color="#fff" stop-opacity="0.5"/><stop offset="1" stop-color="#e2f7f7" stop-opacity="0"/></linearGradient><linearGradient id="Degradado_sin_nombre_179-2" x1="174.96" y1="-15106.42" x2="136" y2="-15106.42" xlink:href="#Degradado_sin_nombre_179"/><linearGradient id="Degradado_sin_nombre_189" x1="471.36" y1="-14947.42" x2="350.48" y2="-14947.42" gradientTransform="matrix(1, 0, 0, -1, 0, -14660.25)" gradientUnits="userSpaceOnUse"><stop offset="0" stop-color="#043263" stop-opacity="0.4"/><stop offset="1" stop-color="#043263" stop-opacity="0"/></linearGradient><linearGradient id="Degradado_sin_nombre_186" x1="398.7" y1="-14885.1" x2="371.42" y2="-14885.1" gradientTransform="matrix(1, 0, 0, -1, 0, -14660.25)" gradientUnits="userSpaceOnUse"><stop offset="0" stop-color="#043263" stop-opacity="0.4"/><stop offset="1" stop-color="#043263" stop-opacity="0.1"/></linearGradient></defs><g id="Cuadrados_Blancos" data-name="Cuadrados Blancos"><rect class="cls-1" width="600" height="600"/></g><g id="Capa_133" data-name="Capa 133"><path class="cls-2" d="M519.84,342.71A58.07,58.07,0,0,0,510.5,323c-.49-.66-1-1.31-1.5-2h0a84.47,84.47,0,0,0-41.13-28h-.13v-8.48a6,6,0,0,0-6-6H449v-5.47a3.08,3.08,0,0,0-.23-1.16,3,3,0,0,0-2.77-1.84h-3.59V251.37C442.43,179.79,384,121.6,312.3,122c-71.38.41-128.6,59.4-128.6,130.78V466H182a3,3,0,0,0-3,3v53.42a3,3,0,0,0,3,3h1.74v45.66a6,6,0,0,0,6,6h24.85a6,6,0,0,0,6-6V525.41h1.73a3.05,3.05,0,0,0,.6-.06,2.7,2.7,0,0,0,.57-.18,3,3,0,0,0,1-.64,3.91,3.91,0,0,0,.37-.44,3,3,0,0,0,.51-1.68V502.9h15.45v39.46a9.77,9.77,0,0,0,19.54,0v-1.23a28.17,28.17,0,0,0-3.45-13.5h0a28.17,28.17,0,0,1-3.45-13.5v-5.38a7.71,7.71,0,0,0,6.73-7.65V490.33a7.71,7.71,0,0,0-6.73-7.65v-5.41a28.11,28.11,0,0,1,3.46-13.51,28.11,28.11,0,0,0,3.46-13.51V449a9.79,9.79,0,0,0-9.77-9.77h0a9.76,9.76,0,0,0-9.77,9.77v39.5H225.28V469a3,3,0,0,0-1.83-2.76,2.7,2.7,0,0,0-.57-.18,3.05,3.05,0,0,0-.6-.06h-1.73V251.37a92.6,92.6,0,0,1,92.71-92.51H314c50.93.49,91.6,42.76,91.6,93.69v17.59H402a3,3,0,0,0-3,3v5.47H386.26a6,6,0,0,0-6,6v8.48h-.13a84.47,84.47,0,0,0-41.13,28h0a57.91,57.91,0,0,0-12.68,36.17v20.93a2.18,2.18,0,0,0,2.17,2.18h1.44l3.21,12.82a2.17,2.17,0,0,0,2.11,1.65h177.5a2.17,2.17,0,0,0,2.11-1.65l3.21-12.82h1.44a2.19,2.19,0,0,0,2.13-1.74,1.62,1.62,0,0,0,0-.44v-21A57.76,57.76,0,0,0,519.84,342.71Z"/><path class="cls-3" d="M164.22,527.53H139.37a6,6,0,0,1-6-6V203.26c0-71.39,57.23-130.38,128.61-130.79A129.51,129.51,0,0,1,392.1,201.37v28.31H355.25V203c0-50.93-40.67-93.19-91.6-93.69a92.64,92.64,0,0,0-93.43,91.83V521.52a6,6,0,0,1-6,6Z"/><path class="cls-4" d="M467.74,330.8H279.61l3.21,12.83a2.17,2.17,0,0,0,2.1,1.64H462.43a2.16,2.16,0,0,0,2.11-1.64Z"/><path class="cls-5" d="M469.19,330.8h-191a2.17,2.17,0,0,1-2.17-2.17h0V307.69a57.9,57.9,0,0,1,12.69-36.16h0a84.47,84.47,0,0,1,41.13-28h87.73a84.61,84.61,0,0,1,41.14,28h0a57.89,57.89,0,0,1,12.68,36.16v20.94a2.17,2.17,0,0,1-2.17,2.17Z"/><path class="cls-6" d="M335.94,229.08h75.48a6,6,0,0,1,6,6v8.47H329.94v-8.47A6,6,0,0,1,335.94,229.08Z"/><path class="cls-5" d="M351.65,220.61h44a3,3,0,0,1,3,3v5.47h-50v-5.47A3,3,0,0,1,351.65,220.61Z"/><rect class="cls-5" x="128.64" y="416.46" width="46.32" height="59.41" rx="3"/><rect class="cls-6" x="174.96" y="438.97" width="15.45" height="14.39"/><path class="cls-6" d="M203,433.07h0a7.72,7.72,0,0,1,7.72,7.72h0v10.74a7.72,7.72,0,0,1-7.72,7.72h0V433.07Z"/><path class="cls-7" d="M210,400.71v-1.2a9.76,9.76,0,0,0-9.77-9.77h0a9.76,9.76,0,0,0-9.77,9.77v93.31a9.76,9.76,0,0,0,9.77,9.77h0a9.76,9.76,0,0,0,9.78-9.76h0v-1.23a28.17,28.17,0,0,0-3.45-13.5h0A28.21,28.21,0,0,1,203,464.57V427.73a28.11,28.11,0,0,1,3.46-13.51h0A28,28,0,0,0,210,400.71Z"/><path class="cls-8" d="M400.6,507.82l-5.19-10.18a1.92,1.92,0,0,0-3.41,0l-5.43,10.2a8.11,8.11,0,1,0,14,0Z"/><path class="cls-9" d="M395.41,497.64a1.92,1.92,0,0,0-3.41,0l-5.43,10.2a8.1,8.1,0,0,0,2.75,10.93l8.6-16.17Z"/><path class="cls-8" d="M342.49,395.73l-5.18-10.18a1.93,1.93,0,0,0-2.6-.82,2,2,0,0,0-.82.82l-5.42,10.21a8.11,8.11,0,1,0,14,0Z"/><path class="cls-10" d="M337.31,385.55a1.93,1.93,0,0,0-2.6-.82,2,2,0,0,0-.82.82l-5.42,10.21a8.07,8.07,0,0,0,2.75,10.93l8.6-16.18Z"/><path class="cls-8" d="M379.86,363l-5.19-10.18a1.92,1.92,0,0,0-3.41,0L365.84,363a8.1,8.1,0,1,0,14,0Z"/><path class="cls-11" d="M374.67,352.85a1.92,1.92,0,0,0-3.41,0L365.84,363a8.07,8.07,0,0,0,2.75,11l8.59-16.17Z"/><path class="cls-8" d="M418.22,457.72,413,447.54a1.92,1.92,0,0,0-3.41,0l-5.42,10.2a8.1,8.1,0,1,0,14,0Z"/><path class="cls-12" d="M413,447.54a1.92,1.92,0,0,0-3.41,0l-5.42,10.2A8.07,8.07,0,0,0,407,468.65l8.6-16.17Z"/><path class="cls-8" d="M426.32,401l-5.18-10.18a1.93,1.93,0,0,0-2.6-.82,2,2,0,0,0-.82.82L412.3,401a8,8,0,0,0-1,5.21A8.11,8.11,0,0,0,427.42,405,8,8,0,0,0,426.32,401Z"/><path class="cls-13" d="M421.14,390.79a1.93,1.93,0,0,0-2.6-.82,2,2,0,0,0-.82.82L412.3,401a8.06,8.06,0,0,0,2.75,10.92l8.6-16.17Z"/><path class="cls-8" d="M380.69,416l-5.19-10.18a1.92,1.92,0,0,0-3.41,0L366.67,416a8.1,8.1,0,1,0,14,0Z"/><path class="cls-14" d="M375.5,405.82a1.92,1.92,0,0,0-3.41,0L366.67,416a8.1,8.1,0,0,0,2.75,10.93l8.6-16.18Z"/><path class="cls-8" d="M340.05,448.8l-5.18-10.18a1.93,1.93,0,0,0-2.6-.82,2,2,0,0,0-.82.82L326,448.8a8.11,8.11,0,1,0,14,0Z"/><path class="cls-15" d="M334.87,438.62a1.93,1.93,0,0,0-2.6-.82,2,2,0,0,0-.82.82L326,448.8a8.07,8.07,0,0,0,2.75,10.93l8.6-16.18Z"/><path class="cls-8" d="M372.18,474.59,367,464.41a1.93,1.93,0,0,0-2.6-.82,2,2,0,0,0-.82.82l-5.42,10.21a8.1,8.1,0,1,0,14,0Z"/><path class="cls-16" d="M367,464.41a1.93,1.93,0,0,0-2.6-.82,2,2,0,0,0-.82.82l-5.42,10.21a8.07,8.07,0,0,0,2.75,10.93l8.6-16.17Z"/><path class="cls-17" d="M203,427.73a28.11,28.11,0,0,1,3.46-13.51A28,28,0,0,0,210,400.71v-1.2a9.78,9.78,0,0,0-19.55,0v58.67L203,434.44Z"/><path class="cls-18" d="M172,416.46h-4.37L136,475.87h36a3,3,0,0,0,3-3h0V419.46A3,3,0,0,0,172,416.46Z"/><path class="cls-19" d="M458.68,271.53h0a84.61,84.61,0,0,0-41.14-28H396.87L350.48,330.8H469.19a2.17,2.17,0,0,0,2.17-2.17h0V307.69A57.89,57.89,0,0,0,458.68,271.53Z"/><path class="cls-20" d="M398.7,223.61a3,3,0,0,0-3-3H375.93l-4.51,8.47H398.7Z"/></g></svg>