<svg id="Contenido" xmlns="http://www.w3.org/2000/svg" xmlns:xlink="http://www.w3.org/1999/xlink" viewBox="0 0 600 600"><defs><style>.cls-1{fill:url(#Degradado_sin_nombre_27);}.cls-2{fill:#f8cd50;}.cls-3{fill:#f2969a;}.cls-4{fill:url(#Degradado_sin_nombre_95);}.cls-5{fill:#eb5e62;}.cls-6{fill:#d44b50;}.cls-7{fill:url(#Degradado_sin_nombre_79);}.cls-8{fill:#043263;}</style><linearGradient id="Degradado_sin_nombre_27" x1="297.28" y1="208.53" x2="445.17" y2="486.66" gradientUnits="userSpaceOnUse"><stop offset="0" stop-color="#192647" stop-opacity="0.5"/><stop offset="1" stop-color="#192647" stop-opacity="0"/></linearGradient><linearGradient id="Degradado_sin_nombre_95" x1="409.26" y1="316.6" x2="149.08" y2="316.6" gradientUnits="userSpaceOnUse"><stop offset="0.01" stop-color="#d44b50" stop-opacity="0.4"/><stop offset="1" stop-color="#d44b50" stop-opacity="0"/></linearGradient><linearGradient id="Degradado_sin_nombre_79" x1="288.82" y1="118.6" x2="390.83" y2="172.84" gradientUnits="userSpaceOnUse"><stop offset="0" stop-color="#fff" stop-opacity="0.5"/><stop offset="1" stop-color="#fff" stop-opacity="0.2"/></linearGradient></defs><title>values-day</title><path class="cls-1" d="M492.43,192.19H329.28a5,5,0,0,0-1.95,9.6,4.89,4.89,0,0,0,1.95.4H492.43a16.26,16.26,0,0,1,16.23,17.06c-.43,8.73-8,15.43-16.7,15.43H464.69a10.9,10.9,0,0,0-10.57-8.35H328a3,3,0,0,0-3,3v1.75h-2.2c-1.55,0-3.1,0-4.64.08l-1.11.05c-1.51.06-3,.14-4.51.25h-.06c-1.6.12-3.18.27-4.76.45l-.7.08c-1.55.18-3.09.37-4.62.6h0a137,137,0,0,0-94.69,61.17l-1-.75a3,3,0,0,0-4.42.82l-.88,1.45a141.55,141.55,0,0,0,32,182.52l1,.8a3,3,0,0,0,3.87-.08l1.58-1.39c.53.41,1.05.82,1.59,1.21a121.88,121.88,0,0,0,59.26,23c2.35.26,4.72.45,7.09.57s4.74.18,7.12.17c1.19,0,2.38,0,3.57-.07a127,127,0,0,0,14.26-1.29c1.18-.17,2.37-.36,3.55-.57a126.88,126.88,0,0,0,14.09-3.34l19-5.65a22.75,22.75,0,0,0,21.9,16.61h13.82a1,1,0,0,0,1-1v-2a22.49,22.49,0,0,0-22.49-22.48h18a22.49,22.49,0,0,0,22.49-22.49v-2a1,1,0,0,0-1-1H391.31a22.76,22.76,0,0,0-21.9,16.59l-.83-.29c-4.37-1.55-8.77-3-13.19-4.41s-8.87-2.71-13.33-4c-8.93-2.52-17.92-4.81-26.94-7a64.87,64.87,0,0,1-17.55-7.05c-.77-.45-1.53-.92-2.28-1.4a67.2,67.2,0,0,1-10.42-8.3c-.63-.61-1.25-1.24-1.85-1.88l1.09-1a3,3,0,0,0,.34-4.16l-.92-1.12a60.59,60.59,0,0,1-13.71-38.34,59.92,59.92,0,0,1,12.41-36.69l.9-1.18a3,3,0,0,0-.53-4.18l-1.09-.85A64.83,64.83,0,0,1,325,329.81v1.52a3,3,0,0,0,3,3H358.3c53.06,0,97.12-38.75,105.78-89.65h27.79c14.29,0,26.37-11.18,26.8-25.45A26.27,26.27,0,0,0,492.43,192.19Z"/><path class="cls-2" d="M441.87,194.68H343.28v-10H442c8.74,0,16.27-6.7,16.7-15.43a16.26,16.26,0,0,0-16.23-17.06H279.28a5,5,0,0,1-5-5h0a5,5,0,0,1,5-5H442.43a26.27,26.27,0,0,1,26.24,27C468.24,183.5,456.16,194.68,441.87,194.68Z"/><path class="cls-3" d="M318.58,423.14a528.66,528.66,0,0,0-53.46-15.35,65,65,0,0,1-49.8-63.21h0a65,65,0,0,1,65-65h31a98.52,98.52,0,0,0,97.88-87.36,10,10,0,0,0-9.94-11.14H272.82a137,137,0,0,0-137,137h0A136.79,136.79,0,0,0,191.5,428.34c31.23,23.08,71.72,29.6,108.94,18.51l19.38-5.77v-17.5Z"/><path class="cls-4" d="M399.26,181.08H272.82a138.69,138.69,0,0,0-20.41,1.51L149.08,376.93a137.39,137.39,0,0,0,42.42,51.41c31.23,23.08,71.72,29.6,108.94,18.51l19.38-5.77v-17.5l-1.24-.44a528.66,528.66,0,0,0-53.46-15.35,65,65,0,0,1,15.2-128.21h31a98.52,98.52,0,0,0,97.88-87.36A10,10,0,0,0,399.26,181.08Z"/><path class="cls-5" d="M308.3,284.33c55.17,0,100.62-41.89,106.65-95.79a11,11,0,0,0-10.83-12.21H278a3,3,0,0,0-3,3v102a3,3,0,0,0,3,3Z"/><path class="cls-5" d="M233.53,382.92a60.59,60.59,0,0,1-13.71-38.34,59.92,59.92,0,0,1,12.41-36.69l.9-1.18a3,3,0,0,0-.53-4.18L156.76,243a3,3,0,0,0-4.42.82l-.87,1.45a141.53,141.53,0,0,0,32,182.52l1,.8a3,3,0,0,0,3.87-.08l45.78-40.32a3,3,0,0,0,.34-4.16Z"/><path class="cls-5" d="M341.31,406.84h31.82a1,1,0,0,1,1,1v2a22.49,22.49,0,0,1-22.49,22.49H318.56a0,0,0,0,1,0,0v-2.74A22.75,22.75,0,0,1,341.31,406.84Z"/><path class="cls-6" d="M318.56,432.33h15.08a22.49,22.49,0,0,1,22.49,22.49v2a1,1,0,0,1-1,1H341.31a22.75,22.75,0,0,1-22.75-22.75v-2.74a0,0,0,0,1,0,0Z"/><path class="cls-7" d="M279.28,142.19a5,5,0,0,0,0,10H401.81l5.32-10Z"/><circle class="cls-8" cx="361.48" cy="208.94" r="10"/></svg>