<svg xmlns="http://www.w3.org/2000/svg" xmlns:xlink="http://www.w3.org/1999/xlink" viewBox="0 0 600 600"><defs><style>.cls-1{fill:none;}.cls-2{fill:url(#Degradado_sin_nombre_518);}.cls-3{fill:#2dcccd;}.cls-4{fill:#49a5e6;}.cls-5{fill:url(#Degradado_sin_nombre_56);}.cls-6{fill:#043263;}.cls-7{fill:#004481;}.cls-8{fill:url(#Degradado_sin_nombre_114);}.cls-9{fill:url(#Degradado_sin_nombre_117);}.cls-10{fill:#072146;}</style><linearGradient id="Degradado_sin_nombre_518" x1="291.26" y1="-4510.95" x2="487.15" y2="-4879.36" gradientTransform="matrix(1, 0, 0, -1, 0, -4370)" gradientUnits="userSpaceOnUse"><stop offset="0" stop-color="#192647" stop-opacity="0.5"/><stop offset="1" stop-color="#192647" stop-opacity="0"/></linearGradient><linearGradient id="Degradado_sin_nombre_56" x1="313" y1="-4624.33" x2="237.91" y2="-4624.33" gradientTransform="matrix(1, 0, 0, -1, 0, -4370)" gradientUnits="userSpaceOnUse"><stop offset="0" stop-color="#043263" stop-opacity="0.4"/><stop offset="1" stop-color="#043263" stop-opacity="0.1"/></linearGradient><linearGradient id="Degradado_sin_nombre_114" x1="313" y1="-4532.53" x2="209.52" y2="-4532.53" gradientTransform="matrix(1, 0, 0, -1, 0, -4370)" gradientUnits="userSpaceOnUse"><stop offset="0" stop-color="#072146" stop-opacity="0.8"/><stop offset="1" stop-color="#072146" stop-opacity="0"/></linearGradient><linearGradient id="Degradado_sin_nombre_117" x1="492.12" y1="-4582.53" x2="382.59" y2="-4582.53" gradientTransform="matrix(1, 0, 0, -1, 0, -4370)" gradientUnits="userSpaceOnUse"><stop offset="0" stop-color="#028484" stop-opacity="0.4"/><stop offset="1" stop-color="#028484" stop-opacity="0.1"/></linearGradient></defs><title>11</title><g id="Cuadrados_Blancos" data-name="Cuadrados Blancos"><rect class="cls-1" width="600" height="600"/></g><g id="Capa_79" data-name="Capa 79"><path class="cls-2" d="M542.11,262.53a4,4,0,0,0,0-.49,2.92,2.92,0,0,0-.61-1.38L525,240.12l-1.17-1.46h0a3,3,0,0,0-2.34-1.13H378.57V170a15,15,0,0,0-15-15h0a15,15,0,0,0-15,15h0v17.53H204.4a3,3,0,0,0-2.34,1.13l-17.6,22a3,3,0,0,0,0,3.75l17.6,22a3,3,0,0,0,2.34,1.12H348.57v48.66H248.3a3,3,0,0,0-2.34,1.13l-12.12,15.14a3,3,0,0,0,0,3.74L246,321.34a3,3,0,0,0,2.34,1.13H348.57V505h-3.14a3,3,0,0,0-2.69,1.66L323.57,545v7a3,3,0,0,0,3,3h74a3,3,0,0,0,3-3v-7L384.4,506.66a3,3,0,0,0-2.68-1.66h-3.15V287.53H521.51a3.08,3.08,0,0,0,2.35-1.07h0L525,285l16.43-20.53A3.06,3.06,0,0,0,542.11,262.53Z"/><path class="cls-3" d="M471.51,237.53H316a3,3,0,0,1-3-3v-44a3,3,0,0,1,3-3H471.51a3,3,0,0,1,2.35,1.13l17.6,22a3,3,0,0,1,0,3.75l-17.6,22A3,3,0,0,1,471.51,237.53Z"/><path class="cls-4" d="M198.3,272.47H310a3,3,0,0,0,3-3V239.19a3,3,0,0,0-3-3H198.3a3,3,0,0,0-2.34,1.13l-12.12,15.14a3,3,0,0,0,0,3.74L196,271.34A3,3,0,0,0,198.3,272.47Z"/><path class="cls-5" d="M310,236.19H257.2l-19.29,36.28H310a3,3,0,0,0,3-3V239.19A3,3,0,0,0,310,236.19Z"/><path class="cls-6" d="M313.57,105h0a15,15,0,0,1,15,15h0V455h-30V120a15,15,0,0,1,15-15Z"/><path class="cls-7" d="M154.4,187.53H310a3,3,0,0,0,3-3v-44a3,3,0,0,0-3-3H154.4a3,3,0,0,0-2.34,1.13l-17.6,22a3,3,0,0,0,0,3.75l17.6,22A3,3,0,0,0,154.4,187.53Z"/><path class="cls-8" d="M310,137.53H236.1l-26.58,50H310a3,3,0,0,0,3-3v-44A3,3,0,0,0,310,137.53Z"/><path class="cls-9" d="M491.46,210.66l-17.6-22a3,3,0,0,0-2.35-1.13H409.17l-26.58,50h88.92a3,3,0,0,0,2.35-1.12l17.6-22A3,3,0,0,0,491.46,210.66Z"/><path class="cls-10" d="M353.57,495h-80l19.17-38.34a3,3,0,0,1,2.69-1.66h36.29a3,3,0,0,1,2.68,1.66Z"/></g></svg>