<svg id="Contenido" xmlns="http://www.w3.org/2000/svg" xmlns:xlink="http://www.w3.org/1999/xlink" viewBox="0 0 600 600"><defs><style>.cls-1{fill:url(#Degradado_sin_nombre_16);}.cls-2{fill:#1464a5;}.cls-3{fill:url(#Degradado_sin_nombre_26);}.cls-4{fill:#49a5e6;}.cls-5{fill:url(#Degradado_sin_nombre_35);}.cls-6{fill:#043263;}.cls-7{fill:#d4edfc;}</style><linearGradient id="Degradado_sin_nombre_16" x1="261.19" y1="194.03" x2="422.91" y2="498.17" gradientUnits="userSpaceOnUse"><stop offset="0" stop-color="#1c2645"/><stop offset="0" stop-color="#1c2645" stop-opacity="0.5"/><stop offset="1" stop-color="#1c2645" stop-opacity="0"/></linearGradient><linearGradient id="Degradado_sin_nombre_26" x1="465.96" y1="290.18" x2="186.28" y2="290.18" gradientUnits="userSpaceOnUse"><stop offset="0" stop-color="#043263" stop-opacity="0.4"/><stop offset="1" stop-color="#043263" stop-opacity="0.1"/></linearGradient><linearGradient id="Degradado_sin_nombre_35" x1="443.96" y1="299.57" x2="240.61" y2="299.57" gradientUnits="userSpaceOnUse"><stop offset="0.01" stop-color="#043263" stop-opacity="0.3"/><stop offset="1" stop-color="#043263" stop-opacity="0.1"/></linearGradient></defs><title>values-day</title><path class="cls-1" d="M509.82,308.14h0C506.35,231.36,436.13,170.07,350,170.07S193.65,231.36,190.19,308.13h0l-6.09,111.69a31.42,31.42,0,0,0,8.45,23.3c34.85,37,92.38,61.12,157.46,61.12s122.61-24.15,157.46-61.12a31.42,31.42,0,0,0,8.45-23.3Z"/><path class="cls-2" d="M459.82,258.14h0C456.35,181.36,386.13,120.07,300,120.07S143.65,181.36,140.19,258.13h0l-6.09,111.69a31.42,31.42,0,0,0,8.45,23.3c34.85,37,92.38,61.12,157.46,61.12s122.61-24.15,157.46-61.12a31.42,31.42,0,0,0,8.45-23.3Z"/><path class="cls-3" d="M465.91,369.83l-6.09-111.69h0C457,195.6,409.89,143.35,346,126.11L186.28,426.45c31.87,17.47,71.18,27.8,113.72,27.8,65.08,0,122.61-24.15,157.46-61.12A31.42,31.42,0,0,0,465.91,369.83Z"/><path class="cls-4" d="M444,371l-5.67-103.84a125.14,125.14,0,0,0-1.12-16.09,111.65,111.65,0,0,0-16.74-46.55c-.13-.2-.27-.38-.4-.56-17.24-26.84-45-44.27-76.43-44.27a84.32,84.32,0,0,0-36.68,8.42,16,16,0,0,1-13.82,0,84.32,84.32,0,0,0-36.68-8.42C225,159.71,197.22,177.14,180,204c-.13.18-.27.36-.4.56a111.65,111.65,0,0,0-16.74,46.55,125.14,125.14,0,0,0-1.12,16.09L156.05,371a9.53,9.53,0,0,0,2.49,7c32,33.94,84.88,54.21,141.46,54.21S409.46,412,441.46,378A9.53,9.53,0,0,0,444,371Z"/><path class="cls-5" d="M444,371l-5.67-103.84a125.14,125.14,0,0,0-1.12-16.09,111.65,111.65,0,0,0-16.74-46.55c-.13-.2-.27-.38-.4-.56-10.65-16.59-25.35-29.57-42.43-37.08l-137,257.62A229.54,229.54,0,0,0,300,432.25c56.58,0,109.46-20.27,141.46-54.21A9.53,9.53,0,0,0,444,371Z"/><path class="cls-6" d="M433.19,301.24c0-8.52-11.95-10.76-15.05-2.83C401.43,341.18,354.85,372,300,372s-101.43-30.77-118.14-73.54c-3.1-7.93-15-5.69-15.05,2.83,0,.13,0,.27,0,.4,0,59.87,59.64,108.41,133.2,108.41s133.19-48.54,133.19-108.41Z"/><path class="cls-7" d="M245.57,223.38a45.85,45.85,0,0,0-19.21,4.2,6.38,6.38,0,0,0-.6.27l-.36.17-1.12.58c-1,.51-1.93,1-2.87,1.62-10.4,6.19-37.51,25.34-83.95,77.8l-3.37,61.81a31.42,31.42,0,0,0,8.45,23.3c1.2,1.28,2.44,2.53,3.69,3.78,12.19-16.18,48.19-57.17,117.11-84.85h0a46.12,46.12,0,0,0-17.77-88.68Z"/><path class="cls-7" d="M354.43,223.38a45.85,45.85,0,0,1,19.21,4.2,6.38,6.38,0,0,1,.6.27l.36.17,1.12.58c1,.51,1.93,1,2.87,1.62,10.4,6.19,37.51,25.34,84,77.8l3.37,61.81a31.42,31.42,0,0,1-8.45,23.3c-1.2,1.28-2.44,2.53-3.69,3.78-12.19-16.18-48.19-57.17-117.11-84.85h0a46.12,46.12,0,0,1,17.77-88.68Z"/><path class="cls-6" d="M240.91,267.94A43.49,43.49,0,0,1,262,258.1a3,3,0,0,0,1.37-5.39A27.94,27.94,0,0,0,222,287.41a3,3,0,0,0,5.55-.41A43.4,43.4,0,0,1,240.91,267.94Z"/><path class="cls-6" d="M359.09,267.94A43.4,43.4,0,0,1,372.44,287a3,3,0,0,0,5.55.41,27.94,27.94,0,0,0-41.36-34.7A3,3,0,0,0,338,258.1,43.49,43.49,0,0,1,359.09,267.94Z"/><path class="cls-6" d="M331.77,322.47h0a6.16,6.16,0,0,1,3.8,8.71h0a61.79,61.79,0,0,1-17.72,21.24h0a29.49,29.49,0,0,1-35.7,0h0a61.79,61.79,0,0,1-17.72-21.24h0a6.16,6.16,0,0,1,3.8-8.71h0A115.14,115.14,0,0,1,331.77,322.47Z"/></svg>