<svg id="Capa_1" data-name="Capa 1" xmlns="http://www.w3.org/2000/svg" xmlns:xlink="http://www.w3.org/1999/xlink" viewBox="0 0 600 600"><defs><style>.cls-1{fill:url(#Degradado_sin_nombre_15);}.cls-2{fill:#004481;}.cls-3{fill:#1464a5;}.cls-4{fill:#043263;}.cls-5{fill:#4ea6e3;}.cls-6,.cls-7{opacity:0.5;isolation:isolate;}.cls-6{fill:url(#Degradado_sin_nombre_3);}.cls-7{fill:url(#Degradado_sin_nombre_3-2);}.cls-8{fill:#eaf9fa;}.cls-9{fill:#e87d8e;}.cls-10{fill:#c1475f;}.cls-11{fill:#2dcccd;}.cls-12{fill:url(#Degradado_sin_nombre_8);}</style><linearGradient id="Degradado_sin_nombre_15" x1="238.03" y1="172.02" x2="413.76" y2="502.52" gradientUnits="userSpaceOnUse"><stop offset="0" stop-color="#192647"/><stop offset="0" stop-color="#192647" stop-opacity="0.5"/><stop offset="1" stop-color="#192647" stop-opacity="0"/></linearGradient><linearGradient id="Degradado_sin_nombre_3" x1="135.55" y1="3859.93" x2="208.93" y2="3786.53" gradientTransform="matrix(1, 0, 0, -1, 0, 4098.19)" gradientUnits="userSpaceOnUse"><stop offset="0" stop-color="#fff" stop-opacity="0.5"/><stop offset="1" stop-color="#e7f6f7" stop-opacity="0.2"/><stop offset="1" stop-color="#fff" stop-opacity="0"/></linearGradient><linearGradient id="Degradado_sin_nombre_3-2" x1="306.23" y1="3848.22" x2="380.99" y2="3773.46" xlink:href="#Degradado_sin_nombre_3"/><linearGradient id="Degradado_sin_nombre_8" x1="380.52" y1="3778.67" x2="439.45" y2="3747.34" gradientTransform="matrix(1, 0, 0, -1, 0, 4099.83)" gradientUnits="userSpaceOnUse"><stop offset="0" stop-color="#fff" stop-opacity="0.5"/><stop offset="1" stop-color="#fff" stop-opacity="0.1"/></linearGradient></defs><path class="cls-1" d="M540,365.82a33.66,33.66,0,0,0-25.06-10.92,31.43,31.43,0,0,0-19.7,6.8,40.72,40.72,0,0,0-3.47,3.09V265.64a12.62,12.62,0,0,0,1.51.09,14,14,0,0,0,14-14v-18a10.07,10.07,0,0,0-10.07-10.07h-4.89a22.27,22.27,0,0,0-21.85-18H179.39a22.25,22.25,0,0,0-21.85,18h-4.95a10.07,10.07,0,0,0-10,10.1v18a14,14,0,0,0,14.06,14,12.79,12.79,0,0,0,1.52-.09V424.49h-5a8,8,0,0,0-8,8v12h313.8c1.82,1.58,3.7,3.19,5.62,4.83l0-.07,3.64,3.1c4.32,3.68,9.23,7.86,14.29,12.3a7.35,7.35,0,0,0,9.69,0c5.06-4.44,9.95-8.62,14.27-12.3,12.63-10.77,23.53-20.07,31.15-29.24,8.48-10.25,12.42-20,12.42-30.58A39.21,39.21,0,0,0,540,365.82ZM311,243.15h0v-1.53h0Zm28-1.53h0v1.53h0Zm-56.09,1.53h0v-1.53h0Zm84.15-1.53h0v1.53h0Zm56.11,1.53h0v-1.53h0Zm-28.05,0h0v-1.53h0Z"/><path class="cls-2" d="M129.4,155.59H420.48a22.25,22.25,0,0,1,22.25,22.25h0v10.87a2.91,2.91,0,0,1-2.91,2.91H110a2.91,2.91,0,0,1-2.91-2.91h0V177.84a22.26,22.26,0,0,1,22.26-22.25h0Z"/><rect class="cls-3" x="108.14" y="193.15" width="333.63" height="181.34"/><path class="cls-4" d="M103.13,374.49H446.74a8,8,0,0,1,8,8h0v12H95.11v-12a8,8,0,0,1,8-8Z"/><rect class="cls-5" x="136.75" y="235.3" width="152.29" height="110.2" rx="3.01"/><path class="cls-6" d="M139.75,235.35a2.94,2.94,0,0,0-3,2.87h0V342.64a2.94,2.94,0,0,0,3,2.87h35.33L237,235.35Z"/><path class="cls-5" d="M322.09,235.35h86.18a3,3,0,0,1,3,3V374.49H319.09V238.3A3,3,0,0,1,322.09,235.35Z"/><path class="cls-7" d="M322.08,235.35a3,3,0,0,0-3,3h0V374.49h12.13l72-139.14Z"/><rect class="cls-3" x="363.17" y="235.3" width="4" height="139.19"/><path class="cls-8" d="M355.17,315.46a2,2,0,0,1-2-2V297.42a2,2,0,0,1,4,0v16a2,2,0,0,1-2,2Z"/><path class="cls-8" d="M375.18,315.46a2,2,0,0,1-2-2h0v-16a2,2,0,0,1,4,0h0v16a2,2,0,0,1-2,2Z"/><path class="cls-9" d="M102.67,173.61h18v28.08a14,14,0,0,1-14,14h0a14,14,0,0,1-14.06-14v-18a10.07,10.07,0,0,1,10-10.1Z"/><path class="cls-10" d="M120.65,173.61h28.08v28.08a14,14,0,0,1-14,14h0a14,14,0,0,1-14-14V173.59h0Z"/><path class="cls-9" d="M148.73,173.61h28.08v28.08a14,14,0,0,1-14,14h0a14,14,0,0,1-14.05-14V173.59h0Z"/><path class="cls-10" d="M176.81,173.61h28.08v28.08a14,14,0,0,1-14,14h0a14,14,0,0,1-14.06-14V173.61Z"/><path class="cls-9" d="M204.82,173.61H232.9v28.08a14,14,0,0,1-14,14h0a14,14,0,0,1-14-14V173.61h0Z"/><path class="cls-10" d="M232.87,173.61H261v28.08a14,14,0,0,1-14,14h0a14,14,0,0,1-14-14V173.61h0Z"/><path class="cls-9" d="M260.92,173.61H289v28.08a14,14,0,0,1-14,14h0a14,14,0,0,1-14-14h0V173.61Z"/><path class="cls-10" d="M289,173.61h28.08v28.08a14,14,0,0,1-14,14h0a14,14,0,0,1-14-14h0V173.61Z"/><path class="cls-9" d="M317,173.61h28.08v28.08a14,14,0,0,1-14,14h0a14,14,0,0,1-14-14h0V173.61h0Z"/><path class="cls-10" d="M345.08,173.61h28.08v28.08a14,14,0,0,1-14,14h0a14,14,0,0,1-14-14h0V173.61h0Z"/><path class="cls-9" d="M373.14,173.61h28.08v28.08a14,14,0,0,1-14,14h0a14,14,0,0,1-14-14h0V173.61h0Z"/><path class="cls-9" d="M429.23,173.61h18a10.07,10.07,0,0,1,10.07,10.07v18a14,14,0,0,1-14,14h0a14,14,0,0,1-14-14h0V173.62h0Z"/><path class="cls-10" d="M401.18,173.61h28.08v28.08a14,14,0,0,1-14,14h0a14,14,0,0,1-14-14h0V173.61h0Z"/><path class="cls-11" d="M490,315.82a33.66,33.66,0,0,0-25.06-10.92,31.43,31.43,0,0,0-19.7,6.8,40.26,40.26,0,0,0-8,8.32,40,40,0,0,0-8-8.32,31.4,31.4,0,0,0-19.69-6.8,33.66,33.66,0,0,0-25.06,10.92,39.22,39.22,0,0,0-9.92,26.75c0,10.62,3.95,20.33,12.44,30.58,7.58,9.17,18.45,18.45,31.14,29.24,4.32,3.68,9.23,7.86,14.29,12.3a7.35,7.35,0,0,0,9.69,0c5.06-4.44,9.95-8.62,14.27-12.3,12.63-10.77,23.53-20.07,31.15-29.24,8.48-10.25,12.42-20,12.42-30.58A39.21,39.21,0,0,0,490,315.82Z"/><path class="cls-12" d="M445.22,311.79a40,40,0,0,0-8,8.31,39.75,39.75,0,0,0-8-8.31A31.46,31.46,0,0,0,409.61,305a33.63,33.63,0,0,0-25.06,11,39.18,39.18,0,0,0-9.92,26.74c0,10.61,3.94,20.32,12.43,30.56,6.84,8.27,16.39,16.65,27.47,26.12L463.29,305A31.43,31.43,0,0,0,445.22,311.79Z"/></svg>