<svg id="b9f69e35-1c8c-4d3d-b256-bd6f86baeb3f" data-name="Capa 1" xmlns="http://www.w3.org/2000/svg" xmlns:xlink="http://www.w3.org/1999/xlink" viewBox="0 0 600 600"><defs><style>.f3fce8a6-99b9-41e0-92b5-c12b9c1c81eb{fill:none;}.bdfe22e4-6141-4756-9943-3cc5d38a0836{fill:url(#b9ebdecb-bc05-414b-8efc-11705d805004);}.af98cfe6-8934-4043-93df-aec33004e2ef{fill:#1464a5;}.bd270f52-1cab-426d-9105-10313aea0918{fill:url(#a7df1bf2-4dcc-43e8-8bbc-5ea0d417b6eb);}.a04d8364-a9d3-413d-b5f9-e6bb463a600c{fill:#2dcccd;fill-rule:evenodd;}.fb292963-278c-4b87-94d1-8bec7777f06e{fill:#f8cd50;}.f841d8da-3b87-4662-9cc8-25db8b22de18{fill:url(#a50a6081-1fe5-453a-86ed-e5f024fdbb93);}.ba81c876-d8d0-40c1-8a0a-c9000234e571{fill:#fff;}</style><linearGradient id="b9ebdecb-bc05-414b-8efc-11705d805004" x1="316.83" y1="436.88" x2="478.44" y2="132.93" gradientTransform="matrix(1, 0, 0, -1, 0, 602)" gradientUnits="userSpaceOnUse"><stop offset="0" stop-color="#192647" stop-opacity="0.5"/><stop offset="1" stop-color="#192647" stop-opacity="0"/></linearGradient><linearGradient id="a7df1bf2-4dcc-43e8-8bbc-5ea0d417b6eb" x1="472.11" y1="1701.57" x2="219.28" y2="1701.57" gradientTransform="translate(0 -1398)" gradientUnits="userSpaceOnUse"><stop offset="0" stop-color="#043263"/><stop offset="1" stop-color="#043263" stop-opacity="0"/></linearGradient><linearGradient id="a50a6081-1fe5-453a-86ed-e5f024fdbb93" x1="543.99" y1="1926.5" x2="429.59" y2="1926.5" gradientTransform="translate(-35 -1798)" gradientUnits="userSpaceOnUse"><stop offset="0" stop-color="#c49735" stop-opacity="0.4"/><stop offset="1" stop-color="#c49735" stop-opacity="0"/></linearGradient></defs><g id="b1576bbd-48dc-4046-bcf2-0541f4dd682a" data-name="cuadrados blancos"><rect class="f3fce8a6-99b9-41e0-92b5-c12b9c1c81eb" width="600" height="600"/></g><g id="a26e30a5-20ed-4427-942e-84ef1d5951ea" data-name="Capa 1"><path class="bdfe22e4-6141-4756-9943-3cc5d38a0836" d="M540.48,123.11c-.7-.07-1.4-.11-2.1-.11H426.7a13.4,13.4,0,0,0-13.4,13.4v46.06a172,172,0,0,0-144,311.9h0A172.06,172.06,0,0,0,482,232h63.59A13.4,13.4,0,0,0,559,218.61v-75.1A20.54,20.54,0,0,0,540.48,123.11Z"/><circle class="af98cfe6-8934-4043-93df-aec33004e2ef" cx="299.89" cy="293.39" r="172"/><path class="bd270f52-1cab-426d-9105-10313aea0918" d="M380.8,141.58,219.28,445.39A172,172,0,1,0,380.8,141.58Z"/><path class="a04d8364-a9d3-413d-b5f9-e6bb463a600c" d="M311.4,239.2A11.4,11.4,0,1,1,300,227.8h0a11.39,11.39,0,0,1,11.4,11.38v0"/><path class="a04d8364-a9d3-413d-b5f9-e6bb463a600c" d="M311.4,360.8A11.4,11.4,0,1,1,300,349.4h0a11.39,11.39,0,0,1,11.4,11.38v0"/><path class="a04d8364-a9d3-413d-b5f9-e6bb463a600c" d="M376,239.2A15.2,15.2,0,1,1,360.8,224,15.21,15.21,0,0,1,376,239.2v0"/><path class="a04d8364-a9d3-413d-b5f9-e6bb463a600c" d="M376,360.8a15.2,15.2,0,1,1-15.2-15.2A15.21,15.21,0,0,1,376,360.8h0"/><path class="a04d8364-a9d3-413d-b5f9-e6bb463a600c" d="M254.4,239.2A15.2,15.2,0,1,1,239.2,224h0a15.21,15.21,0,0,1,15.2,15.2"/><path class="a04d8364-a9d3-413d-b5f9-e6bb463a600c" d="M307.6,300a7.6,7.6,0,1,1-7.6-7.6,7.6,7.6,0,0,1,7.6,7.6h0"/><path class="a04d8364-a9d3-413d-b5f9-e6bb463a600c" d="M372.2,300a11.4,11.4,0,1,1-11.4-11.4h0A11.39,11.39,0,0,1,372.2,300v0"/><path class="a04d8364-a9d3-413d-b5f9-e6bb463a600c" d="M251.8,300.6a12,12,0,1,1-12-12,12,12,0,0,1,12,12"/><path class="a04d8364-a9d3-413d-b5f9-e6bb463a600c" d="M254.4,360.8a15.2,15.2,0,1,1-15.2-15.2,15.21,15.21,0,0,1,15.2,15.2"/><path class="fb292963-278c-4b87-94d1-8bec7777f06e" d="M376.7,74H488.38a20.55,20.55,0,0,1,20.56,20.54v75A13.4,13.4,0,0,1,495.58,183H387.42l-21.15,21.09a1.75,1.75,0,0,1-3-1.22V87.4A13.4,13.4,0,0,1,376.67,74Z"/><path class="f841d8da-3b87-4662-9cc8-25db8b22de18" d="M488.38,74H471.25L394.59,183h101A13.4,13.4,0,0,0,509,169.61h0V94.51A20.55,20.55,0,0,0,488.42,74Z"/><path class="ba81c876-d8d0-40c1-8a0a-c9000234e571" d="M480.34,130.86H391.91a2.92,2.92,0,1,1-.34-5.83,1.93,1.93,0,0,1,.34,0h88.43a2.92,2.92,0,0,1,0,5.83Z"/><path class="ba81c876-d8d0-40c1-8a0a-c9000234e571" d="M480.34,113.38H391.91a2.92,2.92,0,1,1-.34-5.83h88.77a2.92,2.92,0,0,1,0,5.83Z"/><path class="ba81c876-d8d0-40c1-8a0a-c9000234e571" d="M437.93,148.22h-46a2.92,2.92,0,1,1-.34-5.83h46.34a2.92,2.92,0,0,1,0,5.83Z"/></g></svg>