<svg id="Contenido" xmlns="http://www.w3.org/2000/svg" xmlns:xlink="http://www.w3.org/1999/xlink" viewBox="0 0 600 600"><defs><style>.cls-1{fill:url(#Degradado_sin_nombre_7);}.cls-2{fill:#004481;}.cls-3{fill:url(#Degradado_sin_nombre_4);}.cls-4{fill:url(#Degradado_sin_nombre_8);}.cls-5{fill:#f8cd50;}.cls-6{fill:#2dcccd;}.cls-7{fill:url(#Degradado_sin_nombre_30);}.cls-8{fill:url(#Degradado_sin_nombre_30-2);}.cls-9{fill:#1464a5;}.cls-10{fill:#49a5e6;}.cls-11{opacity:0.5;fill:url(#Degradado_sin_nombre_50);}.cls-12{fill:#d4edfc;}</style><linearGradient id="Degradado_sin_nombre_7" x1="241.27" y1="146.5" x2="458.38" y2="554.82" gradientUnits="userSpaceOnUse"><stop offset="0" stop-color="#192647"/><stop offset="0" stop-color="#192647" stop-opacity="0.5"/><stop offset="1" stop-color="#192647" stop-opacity="0"/></linearGradient><linearGradient id="Degradado_sin_nombre_4" x1="373.03" y1="481.14" x2="271.36" y2="481.14" gradientUnits="userSpaceOnUse"><stop offset="0" stop-color="#072146" stop-opacity="0.4"/><stop offset="1" stop-color="#072146" stop-opacity="0.1"/></linearGradient><linearGradient id="Degradado_sin_nombre_8" x1="373.03" y1="120.41" x2="271.36" y2="120.41" gradientUnits="userSpaceOnUse"><stop offset="0" stop-color="#072146" stop-opacity="0.4"/><stop offset="1" stop-color="#072146" stop-opacity="0.1"/></linearGradient><linearGradient id="Degradado_sin_nombre_30" x1="378.88" y1="227.64" x2="417.65" y2="266.41" gradientUnits="userSpaceOnUse"><stop offset="0" stop-color="#fff" stop-opacity="0.5"/><stop offset="1" stop-color="#fff" stop-opacity="0.2"/></linearGradient><linearGradient id="Degradado_sin_nombre_30-2" x1="367.31" y1="319.9" x2="426.6" y2="379.19" xlink:href="#Degradado_sin_nombre_30"/><linearGradient id="Degradado_sin_nombre_50" x1="203.91" y1="208" x2="325.45" y2="329.55" gradientUnits="userSpaceOnUse"><stop offset="0" stop-color="#fff" stop-opacity="0.5"/><stop offset="1" stop-color="#ecf7f8" stop-opacity="0.1"/></linearGradient></defs><title>reloj</title><path class="cls-1" d="M495.07,301.88a72,72,0,0,0-6.68-19.55,71.28,71.28,0,0,0-4.49-7.62c-.1-.16-.21-.32-.32-.48a70.54,70.54,0,0,0-4.31-5.68l-.49-.58c-.75-.87-1.51-1.72-2.28-2.53a3.07,3.07,0,0,0-2.15-.95l-.48,0a3.1,3.1,0,0,0-.92.3l-6.4,3.26A143.4,143.4,0,0,0,449,247.82l-11.13-43.15a10,10,0,0,0-5.89-6.76l-9.16-3.75-2.92-43.45-.84-12.53a23.24,23.24,0,0,0-2.17-8.55c-.31-.65-.65-1.29-1-1.91a23.13,23.13,0,0,0-11.18-9.61c-.67-.27-1.35-.51-2.05-.72a22.92,22.92,0,0,0-6.61-1H303.58a23.07,23.07,0,0,0-23,21.75l-3.76,56-9.16,3.75a10,10,0,0,0-5.89,6.76l-11.52,44.66a142.49,142.49,0,0,0,0,202.66l11.52,44.66a10,10,0,0,0,5.89,6.76l9.16,3.75,3.76,56a23.07,23.07,0,0,0,23,21.75h92.49a23.06,23.06,0,0,0,23-21.75l.74-11,3-44.94,9.16-3.75a10,10,0,0,0,5.89-6.76L449,453.5a143.16,143.16,0,0,0,16.71-19.16l2.42,1.23a4,4,0,0,0,.63.23l.14,0a3.7,3.7,0,0,0,.66.07h0a3,3,0,0,0,2.12-.93,72.82,72.82,0,0,0,18.57-36.45,3,3,0,0,0-.07-1.4h0a2.55,2.55,0,0,0-.22-.54l0-.07a2.65,2.65,0,0,0-.26-.39.58.58,0,0,0-.1-.12,2.76,2.76,0,0,0-.29-.3l-.13-.1a2.55,2.55,0,0,0-.47-.31h0L486.19,394a143.13,143.13,0,0,0,.41-85.37l6.88-3.5A3,3,0,0,0,495.07,301.88Z"/><path class="cls-2" d="M373,144.27v27a3,3,0,0,1-3,3H230a3,3,0,0,1-3-3v-27l3.76-56a23.06,23.06,0,0,1,23-21.75h92.5a23.06,23.06,0,0,1,23,21.75Z"/><path class="cls-2" d="M227,457.27v-27a3,3,0,0,1,3-3H370a3,3,0,0,1,3,3v27l-3.76,56a23.06,23.06,0,0,1-23,21.75h-92.5a23.06,23.06,0,0,1-23-21.75Z"/><path class="cls-3" d="M370,427.27H328.64L271.36,535h74.89a23.06,23.06,0,0,0,23-21.75l3.76-56v-27A3,3,0,0,0,370,427.27Z"/><path class="cls-4" d="M369.27,88.29a23.06,23.06,0,0,0-23-21.75H328.64L271.36,174.27H370a3,3,0,0,0,3-3v-27Z"/><path class="cls-5" d="M365.87,269.48A71.52,71.52,0,0,0,379.36,288l64.29-32.76a3,3,0,0,0,1.59-3.23,72.71,72.71,0,0,0-18.57-36.45,3,3,0,0,0-3.55-.62l-64.29,32.76A71.16,71.16,0,0,0,365.87,269.48Z"/><path class="cls-6" d="M199.53,202.8l12.38-48a10,10,0,0,1,5.9-6.75l9.16-3.76v23.16a6.11,6.11,0,0,0,6.11,6.11h8.69Z"/><path class="cls-6" d="M400.47,202.8l-12.38-48a10,10,0,0,0-5.9-6.75L373,144.27v23.16a6.11,6.11,0,0,1-6.11,6.11h-8.69Z"/><path class="cls-6" d="M400.47,398.75l-12.38,48a10,10,0,0,1-5.9,6.75L373,457.27V434.12a6.11,6.11,0,0,0-6.11-6.11h-8.69Z"/><path class="cls-6" d="M199.53,398.75l12.38,48a10,10,0,0,0,5.9,6.75l9.16,3.75V434.12a6.11,6.11,0,0,1,6.11-6.11h8.69Z"/><path class="cls-5" d="M361.1,331.14a71.46,71.46,0,0,0-7.05,21.79l64.3,32.76a3,3,0,0,0,3.55-.62,72.93,72.93,0,0,0,18.57-36.45,3,3,0,0,0-1.59-3.23l-64.29-32.76A71.06,71.06,0,0,0,361.1,331.14Z"/><path class="cls-7" d="M426.67,215.55a3,3,0,0,0-3.55-.62l-64.29,32.76A72.48,72.48,0,0,0,379.36,288l34.06-17.35L436.1,228A71,71,0,0,0,426.67,215.55Z"/><path class="cls-8" d="M438.88,345.39l-64.29-32.76a72.58,72.58,0,0,0-20.54,40.3l64.3,32.75a2.88,2.88,0,0,0,1.42.33l20.63-38.78A3,3,0,0,0,438.88,345.39Z"/><circle class="cls-9" cx="300.58" cy="300.77" r="142.5"/><circle class="cls-10" cx="300" cy="300" r="133"/><path class="cls-11" d="M300,167a133,133,0,0,0-62.45,250.45l124.9-234.9A132.43,132.43,0,0,0,300,167Z"/><circle class="cls-12" cx="300.58" cy="398.35" r="20"/><circle class="cls-12" cx="353.3" cy="383.05" r="16"/><circle class="cls-12" cx="385.3" cy="349.32" r="12"/><circle class="cls-12" cx="385.3" cy="252.23" r="5"/><circle class="cls-12" cx="216.2" cy="252.23" r="5"/><circle class="cls-12" cx="398.15" cy="300.77" r="8"/><circle class="cls-12" cx="203.01" cy="300.77" r="8"/><circle class="cls-12" cx="216.2" cy="349.32" r="12"/><circle class="cls-12" cx="249.36" cy="383.05" r="16"/></svg>