<svg id="ae6894ca-937a-46ec-8df9-9b29081ef1f1" data-name="Capa 1" xmlns="http://www.w3.org/2000/svg" xmlns:xlink="http://www.w3.org/1999/xlink" viewBox="0 0 600 600"><defs><style>.bb64c4b9-8350-4518-a094-9798894c2cf1{fill:none;}.fd206bb1-3d30-453c-9b1e-fb963f7a5c2a{fill:url(#a8b31da4-cd37-41db-95e0-8c998b85f044);}.b6c48c6e-ef33-4d40-8d9f-3e831575dc27{fill:#043263;}.b094b242-d1b4-472b-9ec8-b67d51a97a66{fill:url(#bcba8a62-9c59-45fa-87c3-715875a75863);}.a80ae26e-6b3e-4256-bf4d-ceb2273ece7f{fill:#2dcccd;fill-rule:evenodd;}.a2071b58-966c-4731-9945-b1989112f934{fill:#f8cd50;}.aee7b2f5-c4d7-41a3-af91-9f59dd33b448{fill:url(#feb6204f-c7c2-438e-84f0-cd7b38f8f745);}.a54bc397-520a-4130-a38a-941486dad2b7{fill:#fff;}</style><linearGradient id="a8b31da4-cd37-41db-95e0-8c998b85f044" x1="316.83" y1="436.88" x2="478.44" y2="132.93" gradientTransform="matrix(1, 0, 0, -1, 0, 602)" gradientUnits="userSpaceOnUse"><stop offset="0" stop-color="#192647" stop-opacity="0.5"/><stop offset="1" stop-color="#192647" stop-opacity="0"/></linearGradient><linearGradient id="bcba8a62-9c59-45fa-87c3-715875a75863" x1="472.11" y1="1701.57" x2="219.28" y2="1701.57" gradientTransform="translate(0 -1398)" gradientUnits="userSpaceOnUse"><stop offset="0" stop-color="#072146"/><stop offset="1" stop-color="#072146" stop-opacity="0"/></linearGradient><linearGradient id="feb6204f-c7c2-438e-84f0-cd7b38f8f745" x1="543.99" y1="1926.5" x2="429.59" y2="1926.5" gradientTransform="translate(-35 -1798)" gradientUnits="userSpaceOnUse"><stop offset="0" stop-color="#c49735" stop-opacity="0.4"/><stop offset="1" stop-color="#c49735" stop-opacity="0"/></linearGradient></defs><g id="f03e97c4-4f1d-4726-b3cb-bd054fc70cc9" data-name="cuadrados blancos"><rect class="bb64c4b9-8350-4518-a094-9798894c2cf1" width="600" height="600"/></g><g id="b96b1e0d-f1bb-4766-b456-e5c065dd7ed1" data-name="Capa 1"><path class="fd206bb1-3d30-453c-9b1e-fb963f7a5c2a" d="M540.48,123.11c-.7-.07-1.4-.11-2.1-.11H426.7a13.4,13.4,0,0,0-13.4,13.4v46.06a172,172,0,0,0-144,311.9h0A172.06,172.06,0,0,0,482,232h63.59A13.4,13.4,0,0,0,559,218.61v-75.1A20.54,20.54,0,0,0,540.48,123.11Z"/><circle class="b6c48c6e-ef33-4d40-8d9f-3e831575dc27" cx="299.89" cy="293.39" r="172"/><path class="b094b242-d1b4-472b-9ec8-b67d51a97a66" d="M380.8,141.58,219.28,445.39A172,172,0,1,0,380.8,141.58Z"/><path class="a80ae26e-6b3e-4256-bf4d-ceb2273ece7f" d="M311.4,239.2A11.4,11.4,0,1,1,300,227.8h0a11.39,11.39,0,0,1,11.4,11.38v0"/><path class="a80ae26e-6b3e-4256-bf4d-ceb2273ece7f" d="M311.4,360.8A11.4,11.4,0,1,1,300,349.4h0a11.39,11.39,0,0,1,11.4,11.38v0"/><path class="a80ae26e-6b3e-4256-bf4d-ceb2273ece7f" d="M376,239.2A15.2,15.2,0,1,1,360.8,224,15.21,15.21,0,0,1,376,239.2v0"/><path class="a80ae26e-6b3e-4256-bf4d-ceb2273ece7f" d="M376,360.8a15.2,15.2,0,1,1-15.2-15.2A15.21,15.21,0,0,1,376,360.8h0"/><path class="a80ae26e-6b3e-4256-bf4d-ceb2273ece7f" d="M254.4,239.2A15.2,15.2,0,1,1,239.2,224h0a15.21,15.21,0,0,1,15.2,15.2"/><path class="a80ae26e-6b3e-4256-bf4d-ceb2273ece7f" d="M307.6,300a7.6,7.6,0,1,1-7.6-7.6,7.6,7.6,0,0,1,7.6,7.6h0"/><path class="a80ae26e-6b3e-4256-bf4d-ceb2273ece7f" d="M372.2,300a11.4,11.4,0,1,1-11.4-11.4h0A11.39,11.39,0,0,1,372.2,300v0"/><path class="a80ae26e-6b3e-4256-bf4d-ceb2273ece7f" d="M251.8,300.6a12,12,0,1,1-12-12,12,12,0,0,1,12,12"/><path class="a80ae26e-6b3e-4256-bf4d-ceb2273ece7f" d="M254.4,360.8a15.2,15.2,0,1,1-15.2-15.2,15.21,15.21,0,0,1,15.2,15.2"/><path class="a2071b58-966c-4731-9945-b1989112f934" d="M376.7,74H488.38a20.55,20.55,0,0,1,20.56,20.54v75A13.4,13.4,0,0,1,495.58,183H387.42l-21.15,21.09a1.75,1.75,0,0,1-3-1.22V87.4A13.4,13.4,0,0,1,376.67,74Z"/><path class="aee7b2f5-c4d7-41a3-af91-9f59dd33b448" d="M488.38,74H471.25L394.59,183h101A13.4,13.4,0,0,0,509,169.61h0V94.51A20.55,20.55,0,0,0,488.42,74Z"/><path class="a54bc397-520a-4130-a38a-941486dad2b7" d="M480.34,130.86H391.91a2.92,2.92,0,1,1-.34-5.83,1.93,1.93,0,0,1,.34,0h88.43a2.92,2.92,0,0,1,0,5.83Z"/><path class="a54bc397-520a-4130-a38a-941486dad2b7" d="M480.34,113.38H391.91a2.92,2.92,0,1,1-.34-5.83h88.77a2.92,2.92,0,0,1,0,5.83Z"/><path class="a54bc397-520a-4130-a38a-941486dad2b7" d="M437.93,148.22h-46a2.92,2.92,0,1,1-.34-5.83h46.34a2.92,2.92,0,0,1,0,5.83Z"/></g></svg>