<svg xmlns="http://www.w3.org/2000/svg" xmlns:xlink="http://www.w3.org/1999/xlink" viewBox="0 0 600 600"><defs><style>.cls-1{fill:none;}.cls-2{fill:url(#Degradado_sin_nombre_95);}.cls-3{fill:#043263;}.cls-4{fill:#49a5e6;}.cls-5{opacity:0.5;isolation:isolate;fill:url(#Degradado_sin_nombre_24);}.cls-6{fill:#5ac4c4;}.cls-7{fill:#bbe6e7;}.cls-8{fill:#028484;}.cls-9{fill:#f6cb5c;}.cls-10{fill:url(#Degradado_sin_nombre_10);}.cls-11{fill:#fdf4dc;}</style><linearGradient id="Degradado_sin_nombre_95" x1="220.02" y1="118.16" x2="433.21" y2="519.11" gradientUnits="userSpaceOnUse"><stop offset="0" stop-color="#192647" stop-opacity="0.5"/><stop offset="1" stop-color="#192647" stop-opacity="0"/></linearGradient><linearGradient id="Degradado_sin_nombre_24" x1="166.46" y1="-1926.26" x2="320.72" y2="-2080.52" gradientTransform="matrix(1, 0, 0, -1, 0, -1736)" gradientUnits="userSpaceOnUse"><stop offset="0" stop-color="#fff" stop-opacity="0.5"/><stop offset="1" stop-color="#ecf7f8" stop-opacity="0.1"/></linearGradient><linearGradient id="Degradado_sin_nombre_10" x1="207.22" y1="-1509.5" x2="251.7" y2="-1533.16" gradientTransform="matrix(1, 0, 0, -1, 0, -1258)" gradientUnits="userSpaceOnUse"><stop offset="0" stop-color="#fff" stop-opacity="0.6"/><stop offset="1" stop-color="#fff" stop-opacity="0.2"/></linearGradient></defs><title>18</title><g id="Cuadrados_Blancos" data-name="Cuadrados Blancos"><rect class="cls-1" width="600" height="600"/></g><g id="Capa_13" data-name="Capa 13"><path class="cls-2" d="M584.76,375.1a3,3,0,0,0,0-4.24L579,365.1a3,3,0,0,1,0-4.24l5.76-5.76a3,3,0,0,0,0-4.24l-7-7a3,3,0,0,0-2.12-.88H500.49V295a16,16,0,0,0-16-16H419.1V176.35H419V147.51a22.13,22.13,0,0,0-22.1-22.16H212a22.13,22.13,0,0,0-22.06,22.2v362a22.12,22.12,0,0,0,22.1,22.1H396.9a22.12,22.12,0,0,0,22.1-22.1v-28.9h.1V379h21.26v48h0a16,16,0,0,0,16,16H575.64a3,3,0,0,0,2.12-.88l7-7a3,3,0,0,0,0-4.24L579,425.1a3,3,0,0,1,0-4.24l5.76-5.76a3,3,0,0,0,0-4.24L579,405.1a3,3,0,0,1,0-4.24l5.76-5.76a3,3,0,0,0,0-4.24L579,385.1a3,3,0,0,1,0-4.24Z"/><path class="cls-3" d="M158,71.35H342.9A22.13,22.13,0,0,1,365,93.51v362a22.12,22.12,0,0,1-22.1,22.1H158a22.12,22.12,0,0,1-22.1-22.1v-362A22.13,22.13,0,0,1,158,71.35Z"/><rect class="cls-4" x="135.9" y="122.35" width="229.2" height="304.3"/><polygon class="cls-5" points="136.2 122.55 136.2 426.45 253 426.65 365 219.65 365 122.35 136.2 122.55"/><path class="cls-6" d="M530.76,316.86,525,311.1a3,3,0,0,1,0-4.24l5.76-5.76a3,3,0,0,0,0-4.24l-7-7a3,3,0,0,0-2.12-.88H386.36v84a16,16,0,0,0,16,16H521.64a3,3,0,0,0,2.12-.88l7-7a3,3,0,0,0,0-4.24L525,371.1a3,3,0,0,1,0-4.24l5.76-5.76a3,3,0,0,0,0-4.24L525,351.1a3,3,0,0,1,0-4.24l5.76-5.76a3,3,0,0,0,0-4.24L525,331.1a3,3,0,0,1,0-4.24l5.76-5.76A3,3,0,0,0,530.76,316.86Z"/><path class="cls-7" d="M446.49,341h0a16,16,0,0,0-16-16H250V225H430.49a16,16,0,0,1,16,16Z"/><path class="cls-8" d="M386.36,373h0a16,16,0,0,1,16-16h28V325h-44Z"/><circle class="cls-8" cx="430.49" cy="340.98" r="16"/><path class="cls-9" d="M301.36,275a50,50,0,1,1-50-50h0a50,50,0,0,1,50,50"/><path class="cls-10" d="M251.33,225a50,50,0,0,0-23.08,94.29l46.66-88.39A49.85,49.85,0,0,0,251.33,225Z"/><path class="cls-11" d="M257.16,284.89c0-3.3-1.3-4.6-7.58-7.43-9-4.06-11.65-7.2-11.65-13.49s5.06-10.64,10.19-12v-7.66h.31l7.35,3.22v4.21a17,17,0,0,1,6.59,2.3l.38.23.23.16-.07.3-.08.46-.92,5.82-.15,1.08-.08.76-.61-.46-.85-.69a13.6,13.6,0,0,0-8.35-2.91c-3.83,0-6,1.76-6,4.67s1.38,4,7.51,6.82c9,4.14,12,7.36,12,14.1,0,6.2-4.37,10.8-9.5,12.49v8.81h-.61l-7.05-4v-4.29a33.55,33.55,0,0,1-10-2.83l-.46-.23-.3-.16v-.3l.07-.46.85-6,.15-1.07.07-.69.62.38.84.54A19.61,19.61,0,0,0,250.71,290c4.06.15,6.51-1.92,6.51-5.21"/><path class="cls-8" d="M501,372.14a3,3,0,0,1-3-3V310.43a3,3,0,0,1,6,0v58.71a3,3,0,0,1-3,3Z"/><path class="cls-8" d="M483.92,371.82a3,3,0,0,1-3-3v-58.7a3,3,0,0,1,6,0v58.7A3,3,0,0,1,483.92,371.82Z"/><path class="cls-8" d="M466.85,352.14a3,3,0,0,1-3-3v-39a3,3,0,0,1,6,0v39A3,3,0,0,1,466.85,352.14Z"/><path class="cls-6" d="M406.36,308a3,3,0,0,1-3-3V245a3,3,0,0,1,6,0v60A3,3,0,0,1,406.36,308Z"/><path class="cls-6" d="M386.36,288a3,3,0,0,1-3-3V245a3,3,0,0,1,6,0v40A3,3,0,0,1,386.36,288Z"/><path class="cls-6" d="M346.36,288a3,3,0,0,1-3-3V245a3,3,0,0,1,6,0v40A3,3,0,0,1,346.36,288Z"/><path class="cls-6" d="M366.36,288a3,3,0,0,1-3-3V245a3,3,0,0,1,6,0v40A3,3,0,0,1,366.36,288Z"/><path class="cls-6" d="M326.36,288a3,3,0,0,1-3-3V245a3,3,0,0,1,6,0v40A3,3,0,0,1,326.36,288Z"/></g></svg>