<svg id="Contenido" xmlns="http://www.w3.org/2000/svg" xmlns:xlink="http://www.w3.org/1999/xlink" viewBox="0 0 600 600"><defs><style>.cls-1{fill:url(#Degradado_sin_nombre_16);}.cls-2{fill:#028484;}.cls-3{fill:#d4edfc;}.cls-4{fill:url(#Degradado_sin_nombre_218);}.cls-5{fill:url(#Degradado_sin_nombre_218-2);}.cls-6{fill:#1464a5;}.cls-7{fill:url(#Degradado_sin_nombre_238);}.cls-8{fill:url(#Degradado_sin_nombre_238-2);}.cls-9{fill:#02a5a5;}.cls-10{fill:#d8722c;}.cls-11{fill:url(#Degradado_sin_nombre_248);}.cls-12{fill:url(#Degradado_sin_nombre_232);}.cls-13{fill:#2dcccd;}.cls-14{fill:none;}</style><linearGradient id="Degradado_sin_nombre_16" x1="254.5" y1="199.4" x2="427.17" y2="524.15" gradientUnits="userSpaceOnUse"><stop offset="0" stop-color="#1c2645"/><stop offset="0" stop-color="#1c2645" stop-opacity="0.5"/><stop offset="1" stop-color="#1c2645" stop-opacity="0"/></linearGradient><linearGradient id="Degradado_sin_nombre_218" x1="372.53" y1="183.52" x2="263.93" y2="183.52" gradientUnits="userSpaceOnUse"><stop offset="0" stop-color="#043263" stop-opacity="0.1"/><stop offset="1" stop-color="#043263" stop-opacity="0"/></linearGradient><linearGradient id="Degradado_sin_nombre_218-2" x1="420.04" y1="381.61" x2="241.62" y2="381.61" xlink:href="#Degradado_sin_nombre_218"/><linearGradient id="Degradado_sin_nombre_238" x1="313.83" y1="376.36" x2="290.56" y2="376.36" gradientUnits="userSpaceOnUse"><stop offset="0" stop-color="#043263" stop-opacity="0.5"/><stop offset="1" stop-color="#043263" stop-opacity="0.1"/></linearGradient><linearGradient id="Degradado_sin_nombre_238-2" x1="309.16" y1="433.96" x2="293.65" y2="433.96" xlink:href="#Degradado_sin_nombre_238"/><linearGradient id="Degradado_sin_nombre_248" x1="361.97" y1="250.78" x2="286.83" y2="250.78" gradientUnits="userSpaceOnUse"><stop offset="0" stop-color="#028484" stop-opacity="0.4"/><stop offset="1" stop-color="#028484" stop-opacity="0.1"/></linearGradient><linearGradient id="Degradado_sin_nombre_232" x1="203.9" y1="165.14" x2="226.58" y2="187.82" gradientUnits="userSpaceOnUse"><stop offset="0.01" stop-color="#fff" stop-opacity="0.2"/><stop offset="1" stop-color="#fff" stop-opacity="0.05"/></linearGradient></defs><title>-</title><path class="cls-1" d="M472,423.42c0-.37,0-.73,0-1.1,0-1-.09-2-.16-3l-.06-.92q-.14-1.9-.33-3.78l-.09-.76c-.11-1-.24-2.06-.38-3.08-.05-.36-.09-.71-.15-1.07-.16-1.11-.33-2.23-.53-3.33l-.06-.42c-.22-1.24-.47-2.47-.73-3.7-.06-.31-.13-.62-.2-.92-.21-1-.43-1.95-.67-2.91-.07-.3-.14-.6-.22-.89-.3-1.22-.62-2.43-1-3.63,0-.12-.07-.23-.1-.34-.31-1.09-.65-2.18-1-3.26-.1-.3-.2-.6-.29-.89-.34-1-.69-2.06-1.06-3.08l-.16-.48c-.44-1.18-.89-2.36-1.35-3.52-.08-.21-.17-.42-.26-.63-.39-1-.8-1.95-1.22-2.92l-.32-.72c-1-2.3-2.12-4.57-3.28-6.79-.1-.21-.21-.41-.32-.62-.53-1-1.06-2-1.62-2.95l-.2-.38c-.64-1.12-1.3-2.23-2-3.34a1.63,1.63,0,0,0-.11-.17c-.62-1-1.27-2-1.92-3l-.32-.48q-2.13-3.21-4.45-6.27l-.23-.3c-.73-1-1.48-1.91-2.24-2.85l-.17-.21q-2.47-3-5.13-5.9l-.23-.25c-1.8-1.92-3.65-3.79-5.57-5.59h0c-1-.9-1.93-1.78-2.91-2.65l-.12-.1c-2-1.76-4-3.44-6.14-5.07l-.1-.07q-4.75-3.66-9.87-6.85l-.09-.05q-3.42-2.13-7-4h0l-1-.54,2.92-.7,1.25-.32a4.22,4.22,0,0,0,3.2-4.09V282.12a1.06,1.06,0,0,0-.74-1h0q-2.58-1.12-5.55-2.15a73.57,73.57,0,0,0,16.85-47c0-1.13,0-2.26-.09-3.38,0-.3,0-.61,0-.91-.06-1-.13-1.91-.22-2.86,0-.18,0-.35,0-.52-.11-1.09-.25-2.18-.41-3.25,0-.29-.09-.57-.14-.86-.13-.87-.29-1.73-.46-2.58,0-.26-.09-.51-.15-.77-.21-1-.45-2.07-.71-3.1l-.21-.79c-.22-.8-.44-1.6-.68-2.39-.1-.31-.19-.61-.28-.92-.31-1-.64-2-1-2.92-.09-.23-.18-.46-.26-.69q-.44-1.15-.9-2.28c-.14-.34-.29-.68-.43-1-.34-.79-.7-1.58-1.07-2.36q-.2-.44-.42-.87c-.37-.77-.76-1.52-1.16-2.27l-.58-1.08c-.34-.6-.69-1.2-1-1.79-.18-.31-.36-.63-.55-.94-.49-.79-1-1.58-1.51-2.35-.25-.38-.5-.74-.76-1.11s-.68-1-1-1.45l-.81-1.11c-.54-.71-1.09-1.41-1.66-2.1-.31-.38-.63-.76-.95-1.13s-.67-.79-1-1.18-.69-.78-1.05-1.17-.79-.83-1.19-1.25q-.86-.89-1.74-1.74c-.33-.32-.66-.64-1-.95l-1.26-1.15-1-.86c-.75-.64-1.51-1.26-2.28-1.87l-1-.76-1.44-1.07-1-.68q-1.33-.94-2.73-1.83c-.27-.18-.54-.36-.82-.53l-1.59-1-1-.57A73.89,73.89,0,0,0,277.2,224l-30.58,4.37a3.68,3.68,0,0,0,0,7.29L277.2,240a73.49,73.49,0,0,0,16.41,39c-2,.69-3.86,1.41-5.59,2.17h0a1,1,0,0,0-.71,1v32.31a4.22,4.22,0,0,0,3.2,4.09l1.26.32c1,.24,2,.45,2.94.68a121.45,121.45,0,0,0,2.09,216.61l.12.06c3.23,1.59,6.53,3,9.9,4.35l0,0c1.06.41,2.13.8,3.21,1.18l.4.14c1,.36,2,.7,3,1l.33.1c2.27.73,4.58,1.39,6.91,2l.25.06c1,.26,2.05.5,3.08.73l.79.17,2.66.55.87.16c1,.18,1.91.34,2.88.5l.58.09c1.17.19,2.34.35,3.52.5l.44,0c1,.12,2,.23,3,.33l1.09.1,2.43.19,1.21.07,2.46.12,1.1,0c1.17,0,2.35.05,3.54.05A121.41,121.41,0,0,0,472.07,427.3C472.07,426,472,424.7,472,423.42Z"/><path class="cls-2" d="M298.63,218.26c-25.84,0-48.69,4-62.65,10.08v27.93c14,6.1,36.81,10.09,62.65,10.09s48.63-4,62.6-10.07v-28C347.26,222.23,324.44,218.26,298.63,218.26Z"/><circle class="cls-3" cx="298.63" cy="374.51" r="121.41"/><circle class="cls-3" cx="298.63" cy="179.2" r="73.9"/><path class="cls-4" d="M333.32,113.94,263.93,244.45a73.91,73.91,0,0,0,69.39-130.51Z"/><path class="cls-5" d="M355.63,267.3l-114,214.42a121.42,121.42,0,0,0,114-214.42Z"/><circle class="cls-6" cx="297.99" cy="375.43" r="15.84"/><path class="cls-7" d="M305.43,361.45l-14.87,28a15.84,15.84,0,0,0,14.87-28Z"/><circle class="cls-6" cx="298.61" cy="433.34" r="10.56"/><path class="cls-8" d="M303.56,424l-9.91,18.64A10.56,10.56,0,0,0,303.56,424Z"/><path class="cls-9" d="M358.77,265.74l-1.25.31a242.76,242.76,0,0,1-117.79,0l-1.25-.31a4.23,4.23,0,0,1-3.2-4.1v-32.3a1.06,1.06,0,0,1,1.31-1l3.14.79a242.76,242.76,0,0,0,117.79,0l3.14-.79a1.06,1.06,0,0,1,1.31,1v32.3A4.23,4.23,0,0,1,358.77,265.74Z"/><path class="cls-10" d="M256.78,191.72l-62.19-8.88a3.68,3.68,0,0,1,0-7.29l62.19-8.88a12.65,12.65,0,0,1,14.44,12.53h0A12.65,12.65,0,0,1,256.78,191.72Z"/><path class="cls-11" d="M360.66,228.31l-3.14.79a243.09,243.09,0,0,1-51.15,7.12L286.83,273a242.7,242.7,0,0,0,70.69-6.93l1.25-.31a4.23,4.23,0,0,0,3.2-4.1v-32.3A1.06,1.06,0,0,0,360.66,228.31Z"/><path class="cls-12" d="M194.59,175.55a3.68,3.68,0,0,0,0,7.29l32.34,4.62,9.51-17.89Z"/><path class="cls-13" d="M313.66,316.43h0a1.66,1.66,0,0,1,1.26,1.62v8.42a1.06,1.06,0,0,0,.8,1l5.94,1.48a1,1,0,0,0,1.31-1v-7.07a1.68,1.68,0,0,1,2.08-1.62h0a1.68,1.68,0,0,1,1.26,1.62v8.43a1.06,1.06,0,0,0,.8,1l5.94,1.48a1.05,1.05,0,0,0,1.31-1v-7.07a1.68,1.68,0,0,1,2.08-1.62h0a1.69,1.69,0,0,1,1.27,1.62v8.43a1.06,1.06,0,0,0,.8,1l.65.16a5.31,5.31,0,0,0,6.6-5.15V230.77a1.67,1.67,0,0,0-2-1.64,243.75,243.75,0,0,1-38.61,4.14,1.67,1.67,0,0,0-1.63,1.67v84.45a6.48,6.48,0,0,0,4.91,6.29l1.83.46a1.06,1.06,0,0,0,1.31-1v-7.06A1.67,1.67,0,0,1,313.66,316.43Z"/><rect class="cls-14" width="600" height="600"/></svg>