<svg id="Contenido" xmlns="http://www.w3.org/2000/svg" xmlns:xlink="http://www.w3.org/1999/xlink" viewBox="0 0 600 600"><defs><style>.cls-1{fill:url(#Degradado_sin_nombre_16);}.cls-2{fill:#d4edfc;}.cls-3{fill:#49a5e6;}.cls-16,.cls-3{opacity:0.5;}.cls-4{opacity:0.74;fill:url(#Degradado_sin_nombre_289);}.cls-5{fill:#eaf9fa;}.cls-6{fill:url(#Degradado_sin_nombre_258);}.cls-7{fill:#1464a5;}.cls-8{fill:url(#Degradado_sin_nombre_309);}.cls-9{fill:#2dcccd;}.cls-10{fill:#c49735;}.cls-11{fill:url(#Degradado_sin_nombre_212);}.cls-12{fill:url(#Degradado_sin_nombre_212-2);}.cls-13{fill:#02a5a5;}.cls-14{fill:url(#Degradado_sin_nombre_214);}.cls-15{fill:url(#Degradado_sin_nombre_214-2);}.cls-16{fill:url(#Degradado_sin_nombre_299);}.cls-17{fill:#f8cd50;}.cls-18{fill:none;}</style><linearGradient id="Degradado_sin_nombre_16" x1="267.77" y1="190.76" x2="443.63" y2="521.5" gradientUnits="userSpaceOnUse"><stop offset="0" stop-color="#1c2645"/><stop offset="0" stop-color="#1c2645" stop-opacity="0.5"/><stop offset="1" stop-color="#1c2645" stop-opacity="0"/></linearGradient><linearGradient id="Degradado_sin_nombre_289" x1="203.21" y1="347.08" x2="414.64" y2="169.67" gradientUnits="userSpaceOnUse"><stop offset="0.09" stop-color="#fff"/><stop offset="0.55" stop-color="#e7f6f7" stop-opacity="0"/></linearGradient><linearGradient id="Degradado_sin_nombre_258" x1="446.29" y1="351.18" x2="298.07" y2="351.18" gradientUnits="userSpaceOnUse"><stop offset="0" stop-color="#1464a5" stop-opacity="0.2"/><stop offset="1" stop-color="#043263" stop-opacity="0"/></linearGradient><linearGradient id="Degradado_sin_nombre_309" x1="423.79" y1="409.45" x2="301.4" y2="409.45" gradientUnits="userSpaceOnUse"><stop offset="0" stop-color="#043263" stop-opacity="0.8"/><stop offset="1" stop-color="#043263" stop-opacity="0.1"/></linearGradient><linearGradient id="Degradado_sin_nombre_212" x1="331.26" y1="250.36" x2="309.14" y2="288.68" gradientUnits="userSpaceOnUse"><stop offset="0" stop-color="#028484" stop-opacity="0.4"/><stop offset="0.49" stop-color="#028484" stop-opacity="0"/></linearGradient><linearGradient id="Degradado_sin_nombre_212-2" x1="321.18" y1="192.37" x2="308.53" y2="214.28" xlink:href="#Degradado_sin_nombre_212"/><linearGradient id="Degradado_sin_nombre_214" x1="396.3" y1="277.33" x2="388.47" y2="290.9" gradientUnits="userSpaceOnUse"><stop offset="0" stop-color="#028484" stop-opacity="0.8"/><stop offset="0.49" stop-color="#028484" stop-opacity="0"/></linearGradient><linearGradient id="Degradado_sin_nombre_214-2" x1="392.73" y1="256.8" x2="388.25" y2="264.55" xlink:href="#Degradado_sin_nombre_214"/><linearGradient id="Degradado_sin_nombre_299" x1="209.22" y1="162.92" x2="335.34" y2="289.03" gradientUnits="userSpaceOnUse"><stop offset="0" stop-color="#fff"/><stop offset="0.32" stop-color="#fff" stop-opacity="0.5"/><stop offset="1" stop-color="#fff" stop-opacity="0.1"/></linearGradient></defs><title>-</title><path class="cls-1" d="M473.65,493.24h.14l-18.24-63.57a7.69,7.69,0,0,0-.81-1.85,7.92,7.92,0,0,0-1.24-1.52,7.45,7.45,0,0,0-6.05-2l-.86.1a146,146,0,1,0-192.92-15.58c.44.46.9.92,1.35,1.38l.85.87a145.52,145.52,0,0,0,15.27,13.32l-.74-.09a7.45,7.45,0,0,0-8.1,5.34l-18.24,63.57h.14a4,4,0,0,0-3.92,3.22l-1.12,5.59a1,1,0,0,0,1,1.19H477.7a1,1,0,0,0,1-1.19l-1.12-5.59A4,4,0,0,0,473.65,493.24Z"/><circle class="cls-2" cx="308.92" cy="258.38" r="146"/><circle class="cls-3" cx="308.92" cy="258.38" r="138"/><circle class="cls-4" cx="308.92" cy="258.38" r="138"/><path class="cls-5" d="M446.29,303.8A415.31,415.31,0,0,0,376.37,298c-75.46,0-142.24,19.5-183.08,49.43a144.8,144.8,0,0,0,253-43.61Z"/><path class="cls-6" d="M376.37,298q-11.25,0-22.23.57L298.07,404c3.41.24,6.85.38,10.32.38A144.85,144.85,0,0,0,446.29,303.8,415.31,415.31,0,0,0,376.37,298Z"/><path class="cls-7" d="M423.79,443.94H194.06l18.24-63.58a7.45,7.45,0,0,1,8.1-5.34l14.48,1.84a590.91,590.91,0,0,0,148.09,0L397.45,375a7.46,7.46,0,0,1,8.1,5.34Z"/><path class="cls-8" d="M423.79,443.94l-18.24-63.58a7.46,7.46,0,0,0-8.1-5.34L383,376.86q-24,3-48.06,4.06l-33.51,63H423.79Z"/><path class="cls-9" d="M427.7,453.94H190.14a1,1,0,0,1-1-1.19l1.12-5.59a4,4,0,0,1,3.92-3.22l80-7a399,399,0,0,1,69.47,0l80,7a4,4,0,0,1,3.92,3.22l1.12,5.59A1,1,0,0,1,427.7,453.94Z"/><path class="cls-10" d="M313.72,337.63q-4.5.11-9,3.81V242.63h9Z"/><path class="cls-9" d="M334.06,252,337,252a7.62,7.62,0,0,0,7.14-10.63L323.67,193.8h2.4a3.81,3.81,0,0,0,3.46-5.41l-17.15-37a3.81,3.81,0,0,0-6.91,0l-17.15,37a3.81,3.81,0,0,0,3.46,5.41h2.4l-20.44,47.59A7.62,7.62,0,0,0,280.87,252l2.92-.05-19.21,51.58a15.25,15.25,0,0,0,14.3,20.57H339a15.25,15.25,0,0,0,14.3-20.57Z"/><polygon class="cls-11" points="334.06 251.97 291.42 251.97 309.72 289.02 347.85 289.02 334.06 251.97"/><polygon class="cls-12" points="323.67 193.8 295.7 193.8 309.75 214.98 332.77 214.98 323.67 193.8"/><path class="cls-10" d="M390.09,310.09a8,8,0,0,0-3.18-.51v-35h3.18Z"/><path class="cls-13" d="M397.29,277.9l1,0a2.7,2.7,0,0,0,2.53-3.76l-7.24-16.85h.85a1.36,1.36,0,0,0,1.23-1.92l-6.08-13.1a1.35,1.35,0,0,0-2.45,0l-6.07,13.1a1.36,1.36,0,0,0,1.23,1.92h.85l-7.24,16.85a2.7,2.7,0,0,0,2.53,3.76l1,0-6.8,18.27a5.39,5.39,0,0,0,5.06,7.28H399a5.39,5.39,0,0,0,5.06-7.28Z"/><polygon class="cls-14" points="397.29 277.9 382.19 277.9 388.67 291.02 402.18 291.02 397.29 277.9"/><polygon class="cls-15" points="393.61 257.31 383.71 257.31 388.68 264.8 396.83 264.8 393.61 257.31"/><path class="cls-16" d="M308.92,120.38a138,138,0,0,0-64.79,259.86L373.72,136.51A137.42,137.42,0,0,0,308.92,120.38Z"/><circle class="cls-5" cx="257.47" cy="161.05" r="3.33"/><circle class="cls-5" cx="221.89" cy="193.8" r="3.33"/><circle class="cls-5" cx="382.19" cy="185" r="3.33"/><circle class="cls-5" cx="252.48" cy="235.51" r="3.33"/><circle class="cls-5" cx="209.92" cy="260.96" r="3.33"/><circle class="cls-5" cx="420.46" cy="239.31" r="3.33"/><circle class="cls-5" cx="342.93" cy="157.73" r="2"/><circle class="cls-5" cx="314.24" cy="131.46" r="2"/><circle class="cls-5" cx="255.81" cy="193.8" r="2"/><circle class="cls-5" cx="199.21" cy="234.18" r="2"/><circle class="cls-5" cx="241.17" cy="278.46" r="2"/><circle class="cls-5" cx="365.87" cy="214.98" r="2"/><circle class="cls-5" cx="423.79" cy="271.9" r="2"/><circle class="cls-5" cx="410.11" cy="202.39" r="1"/><circle class="cls-5" cx="363.87" cy="249.31" r="1"/><circle class="cls-5" cx="344.93" cy="195.8" r="1"/><circle class="cls-5" cx="232.2" cy="219.91" r="1"/><circle class="cls-5" cx="197.21" cy="294.96" r="1"/><circle class="cls-5" cx="228.87" cy="303.58" r="1"/><rect class="cls-17" x="269.23" y="407.09" width="80" height="10" rx="1"/><rect class="cls-18" width="600" height="600"/></svg>