<svg id="Capa_1" data-name="Capa 1" xmlns="http://www.w3.org/2000/svg" xmlns:xlink="http://www.w3.org/1999/xlink" viewBox="0 0 600 600"><defs><style>.cls-1{fill:url(#Degradado_sin_nombre_15);}.cls-2{fill:#043263;}.cls-3{fill:#1464a5;}.cls-4{fill:url(#Degradado_sin_nombre_13);}.cls-5{fill:#004481;}.cls-6{fill:#2dcccd;}.cls-7{fill:url(#Degradado_sin_nombre_8);}</style><linearGradient id="Degradado_sin_nombre_15" x1="263.24" y1="177.77" x2="418.42" y2="469.62" gradientUnits="userSpaceOnUse"><stop offset="0" stop-color="#192647"/><stop offset="0" stop-color="#192647" stop-opacity="0.5"/><stop offset="1" stop-color="#192647" stop-opacity="0"/></linearGradient><linearGradient id="Degradado_sin_nombre_13" x1="408.1" y1="3789.74" x2="211.3" y2="3789.74" gradientTransform="matrix(1, 0, 0, -1, 0, 4099.83)" gradientUnits="userSpaceOnUse"><stop offset="0" stop-color="#043263" stop-opacity="0.6"/><stop offset="1" stop-color="#043263" stop-opacity="0"/></linearGradient><linearGradient id="Degradado_sin_nombre_8" x1="328.14" y1="3764.24" x2="387.08" y2="3732.9" gradientTransform="matrix(1, 0, 0, -1, 0, 4099.83)" gradientUnits="userSpaceOnUse"><stop offset="0" stop-color="#fff" stop-opacity="0.5"/><stop offset="1" stop-color="#fff" stop-opacity="0.1"/></linearGradient></defs><path class="cls-1" d="M488.62,364.26a33.63,33.63,0,0,0-25.07-10.93,31.38,31.38,0,0,0-4.45.3V313l32.64-4.52L459.1,287.56h0L381.62,238h0l-35.8-22.9a2.37,2.37,0,0,0-.61-.27,2.23,2.23,0,0,1,.67.3l146,93.29,3.77-5.94a19.45,19.45,0,0,0-6-26.86L345.82,184.22a2.49,2.49,0,0,0-2.72,0L199.38,275.63a19.47,19.47,0,0,0-6,26.86l3.78,5.94h0L229.82,313V447.63a2.54,2.54,0,0,0,2.53,2.54h82.92v0h58.37v0h42.44l.76.66c4.32,3.68,9.23,7.85,14.28,12.29a7.35,7.35,0,0,0,9.69,0c5.07-4.44,10-8.61,14.27-12.29l.77-.66h.71a2.5,2.5,0,0,0,1-.2,2.56,2.56,0,0,0,1.11-.92,2.51,2.51,0,0,0,.44-1.42v-.23c10.92-9.35,20.34-17.64,27.13-25.82,8.48-10.24,12.43-20,12.43-30.57A39.24,39.24,0,0,0,488.62,364.26Z"/><path class="cls-2" d="M146.18,274.43l147.28,20.42,147.28-20.42-145.92-93.3a2.57,2.57,0,0,0-2.72,0Z"/><path class="cls-3" d="M178.82,253.55l113.29-72.44a2.53,2.53,0,0,1,2.7,0L408.1,253.55V413.63a2.54,2.54,0,0,1-2.54,2.54H181.35a2.54,2.54,0,0,1-2.53-2.54Z"/><path class="cls-4" d="M330.62,204l77.48,49.54V413.63a2.54,2.54,0,0,1-2.54,2.54H211.3"/><path class="cls-2" d="M267.57,306.29h51.78a3.29,3.29,0,0,1,3.29,3.29V416.19H264.27V309.58A3.29,3.29,0,0,1,267.57,306.29Z"/><path class="cls-5" d="M292.1,150.22,148.38,241.63a19.47,19.47,0,0,0-6,26.86l3.78,5.94,146-93.29a2.53,2.53,0,0,1,2.72,0l146,93.29,3.77-5.94a19.45,19.45,0,0,0-6-26.86L294.82,150.22A2.49,2.49,0,0,0,292.1,150.22Z"/><path class="cls-6" d="M437.62,330.26a33.63,33.63,0,0,0-25.07-10.93,31.47,31.47,0,0,0-19.69,6.81,39.77,39.77,0,0,0-8,8.32,39.81,39.81,0,0,0-8-8.32,31.5,31.5,0,0,0-19.7-6.81,33.64,33.64,0,0,0-25.05,10.93A39.19,39.19,0,0,0,322.26,357c0,10.61,3.94,20.33,12.43,30.57,7.58,9.17,18.46,18.46,31.15,29.25,4.32,3.68,9.23,7.85,14.28,12.29a7.35,7.35,0,0,0,9.69,0c5.07-4.44,10-8.61,14.27-12.29,12.64-10.78,23.54-20.08,31.15-29.25,8.48-10.24,12.43-20,12.43-30.57A39.24,39.24,0,0,0,437.62,330.26Z"/><path class="cls-7" d="M392.84,326.22a39.71,39.71,0,0,0-7.95,8.32,39.81,39.81,0,0,0-8-8.32,31.4,31.4,0,0,0-19.69-6.8,33.68,33.68,0,0,0-25.06,10.95,39.24,39.24,0,0,0-9.91,26.75c0,10.61,3.94,20.32,12.43,30.56,6.84,8.26,16.38,16.65,27.47,26.12l48.75-94.32A31.49,31.49,0,0,0,392.84,326.22Z"/></svg>