<svg id="Capa_1" data-name="Capa 1" xmlns="http://www.w3.org/2000/svg" xmlns:xlink="http://www.w3.org/1999/xlink" viewBox="0 0 600 600"><defs><style>.cls-1{fill:url(#Degradado_sin_nombre_20);}.cls-2{fill:#07467f;}.cls-3{fill:url(#Degradado_sin_nombre_19);}.cls-4{fill:#083361;}.cls-5{fill:#1b65a2;}.cls-6{fill:#d4ecfa;}.cls-7{fill:#f6cb5b;}.cls-8{fill:#f8dc92;}.cls-9{fill:#39cbcb;}.cls-10{fill:#2dcccd;}.cls-11{fill:url(#Degradado_sin_nombre_8);}</style><linearGradient id="Degradado_sin_nombre_20" x1="307.88" y1="228.47" x2="439.14" y2="475.34" gradientUnits="userSpaceOnUse"><stop offset="0" stop-color="#192647" stop-opacity="0.5"/><stop offset="1" stop-color="#192647" stop-opacity="0"/></linearGradient><linearGradient id="Degradado_sin_nombre_19" x1="421.16" y1="3143.42" x2="304.05" y2="3143.42" gradientTransform="matrix(1, 0, 0, -1, 0, 3491.8)" gradientUnits="userSpaceOnUse"><stop offset="0" stop-color="#1a2746"/><stop offset="1" stop-color="#083361" stop-opacity="0.2"/></linearGradient><linearGradient id="Degradado_sin_nombre_8" x1="415.02" y1="2402.63" x2="473.96" y2="2371.3" gradientTransform="matrix(1, 0, 0, -1, 0, 2640.22)" gradientUnits="userSpaceOnUse"><stop offset="0" stop-color="#fff" stop-opacity="0.5"/><stop offset="1" stop-color="#fff" stop-opacity="0.1"/></linearGradient></defs><path class="cls-1" d="M559.5,262.26a33.63,33.63,0,0,0-25.07-10.93,31.49,31.49,0,0,0-19.69,6.81,39.77,39.77,0,0,0-8,8.32,39.81,39.81,0,0,0-8-8.32,31.49,31.49,0,0,0-19.69-6.81,33.7,33.7,0,0,0-25.06,10.93A39.19,39.19,0,0,0,444.14,289v.11a41,41,0,0,0,.49,6.28L337.16,271.63a35.35,35.35,0,0,0-16.49.31L133.89,320.45a5.45,5.45,0,0,0-3.9,4,5.52,5.52,0,0,0-.14,1.61h0v7.28a8.83,8.83,0,0,0,6.81,8.61l63.68,15v25.94c0,11.33,7.62,21.51,19.21,25.82q59.16,22,119.52,19.49l0,0c2.31-.11,4.63-.24,6.94-.4q15-1,30-3.42c1.39-.22,2.79-.47,4.18-.71l1.46-.25a327,327,0,0,0,54.89-14.87,29.76,29.76,0,0,0,17.89-16.84v21.79A10.83,10.83,0,0,0,451,429l-8.67,35.79c-1.37,6.06,4.75,6.74,8,6.74h17.23c7.21,0,10.71-1,9.77-5.65l-8.58-36.77a10.81,10.81,0,0,0-3.51-15.69v-61.5l20-5.19,2.44,2.08c4.32,3.68,9.23,7.85,14.29,12.29a7.33,7.33,0,0,0,9.69,0c5.06-4.44,9.95-8.61,14.27-12.29,12.63-10.78,23.53-20.08,31.15-29.25,8.47-10.24,12.42-20,12.42-30.57A39.21,39.21,0,0,0,559.5,262.26Z"/><path class="cls-2" d="M401.55,378.58q-110.44,39.74-217,.15c-11.59-4.31-19.21-14.49-19.21-25.82V298.49H421.16V352.7C421.16,364.1,413.32,374.34,401.55,378.58Z"/><path class="cls-3" d="M421.16,352.7V298.49H359.37l-55.32,99.77a326.37,326.37,0,0,0,97.49-19.65C413.32,374.34,421.16,364.1,421.16,352.7Z"/><path class="cls-4" d="M499.07,290.58l.29,7.92a6.77,6.77,0,0,1-5.05,6.81L300.68,355.6a28,28,0,0,1-13.55.15L101.66,311.93a8.83,8.83,0,0,1-6.81-8.61V296"/><path class="cls-5" d="M286.26,345.26,99,301a5.43,5.43,0,0,1-.12-10.53l186.78-48.51a35.35,35.35,0,0,1,16.49-.31L494.9,284.26a5.42,5.42,0,0,1,.18,10.54L301.56,345.05A31.93,31.93,0,0,1,286.26,345.26Z"/><path class="cls-6" d="M424.83,400.78h0a5.41,5.41,0,0,1-5.4-5.41V322.74L291.76,287.81a5.41,5.41,0,1,1,2.54-10.52l.32.09h0l131.65,36a5.38,5.38,0,0,1,4,5.22v76.75a5.42,5.42,0,0,1-5.37,5.44h-.07Z"/><path class="cls-7" d="M432.26,392.61l10.1,43.29c.94,4.65-2.56,5.65-9.77,5.65H415.36c-3.25,0-9.37-.68-8-6.74l10.23-42.2a7.25,7.25,0,0,1,7.28-5.15h0A7.32,7.32,0,0,1,432.26,392.61Z"/><path class="cls-8" d="M428.55,392.61l4.28,37.22c.7,6.07,1.52,11.72-5.52,11.72h-4.73c-8.45,0-6.22-5.65-5.52-11.72l4.28-37.22c.35-3,1.84-5.14,3.58-5.15h0C426.68,387.44,428.16,389.6,428.55,392.61Z"/><circle class="cls-7" cx="424.95" cy="392.87" r="10.83"/><ellipse class="cls-9" cx="297.35" cy="283.68" rx="15.35" ry="10.81"/><path class="cls-10" d="M524.5,232.26a33.63,33.63,0,0,0-25.07-10.93,31.49,31.49,0,0,0-19.69,6.81,39.77,39.77,0,0,0-8,8.32,39.81,39.81,0,0,0-8-8.32,31.49,31.49,0,0,0-19.69-6.81,33.7,33.7,0,0,0-25.06,10.93A39.19,39.19,0,0,0,409.14,259c0,10.61,3.94,20.33,12.44,30.57,7.57,9.17,18.45,18.46,31.14,29.25,4.32,3.68,9.23,7.85,14.29,12.29a7.33,7.33,0,0,0,9.69,0c5.06-4.44,9.95-8.61,14.27-12.29,12.63-10.78,23.53-20.08,31.15-29.25,8.47-10.24,12.42-20,12.42-30.57A39.21,39.21,0,0,0,524.5,232.26Z"/><path class="cls-11" d="M479.73,228.22a40.26,40.26,0,0,0-8,8.32,40.31,40.31,0,0,0-8-8.32,31.51,31.51,0,0,0-19.68-6.8,33.65,33.65,0,0,0-25.06,11,39.2,39.2,0,0,0-9.92,26.75c0,10.61,3.94,20.32,12.43,30.56C428.41,298,438,306.33,449,315.8l48.76-94.32A31.46,31.46,0,0,0,479.73,228.22Z"/></svg>