<svg id="Contenido" xmlns="http://www.w3.org/2000/svg" xmlns:xlink="http://www.w3.org/1999/xlink" viewBox="0 0 600 600"><defs><style>.cls-1{fill:url(#Degradado_sin_nombre_16);}.cls-2{fill:#1464a5;}.cls-3{fill:#2dcccd;}.cls-4{fill:url(#Degradado_sin_nombre_172);}.cls-5{fill:#d4edfc;}.cls-6{fill:url(#Degradado_sin_nombre_10);}.cls-7{fill:#49a5e6;}.cls-8{fill:none;}</style><linearGradient id="Degradado_sin_nombre_16" x1="253.26" y1="147.52" x2="433.31" y2="486.15" gradientUnits="userSpaceOnUse"><stop offset="0" stop-color="#1c2645"/><stop offset="0" stop-color="#1c2645" stop-opacity="0.5"/><stop offset="1" stop-color="#1c2645" stop-opacity="0"/></linearGradient><linearGradient id="Degradado_sin_nombre_172" x1="421.23" y1="323.64" x2="202.54" y2="323.64" gradientUnits="userSpaceOnUse"><stop offset="0.01" stop-color="#043263" stop-opacity="0.5"/><stop offset="1" stop-color="#043263" stop-opacity="0"/></linearGradient><linearGradient id="Degradado_sin_nombre_10" x1="244.87" y1="69.42" x2="322.09" y2="146.64" gradientUnits="userSpaceOnUse"><stop offset="0" stop-color="#fff" stop-opacity="0.6"/><stop offset="1" stop-color="#fff" stop-opacity="0.1"/></linearGradient></defs><title>-</title><path class="cls-1" d="M471.66,129l-.81-.08q-33-3.31-66.19-4.16h0q-6.86-.18-13.71-.25h-1.73c-3.79,0-7.57,0-11.36,0l-3.26,0c-3.43,0-6.86.07-10.3.14-1,0-2.07,0-3.1.06q-6.49.13-13,.37h-.09q-6.6.26-13.21.59l-3.28.19q-4.84.27-9.69.58l-4.23.29c-3.07.22-6.14.46-9.21.7l-3.91.32q-6.44.56-12.87,1.19l-.81.08a17.47,17.47,0,0,0-7.67,2.64,17.62,17.62,0,0,0-8.2,14.89h0v51.26h0a15.16,15.16,0,0,0,15,15.17,14,14,0,0,0,1.58-.07V323.53a27.94,27.94,0,0,1-8.18,19.76l-60.76,60.76A87.11,87.11,0,0,0,199,447.86a.69.69,0,0,1,0,.13c-.25,1.17-.46,2.34-.66,3.52,0,.14,0,.29-.08.44-.17,1.11-.33,2.22-.47,3.34,0,.21-.05.43-.07.64-.13,1.07-.23,2.14-.31,3.22l-.06.77c-.07,1.05-.13,2.09-.16,3.14,0,.28,0,.57,0,.85,0,1,0,2.06,0,3.1,0,.29,0,.58,0,.87,0,1,.06,2.06.11,3.09l.06.8c.07,1.06.15,2.11.26,3.17,0,.16,0,.32.05.49a88.59,88.59,0,0,0,1.83,10.7c0,.13.05.26.08.39.2.82.43,1.65.66,2.47.13.49.25,1,.39,1.48.22.73.45,1.45.68,2.18s.37,1.16.56,1.73.49,1.35.74,2,.45,1.24.69,1.85.52,1.28.79,1.91.54,1.27.83,1.9.56,1.22.85,1.83.63,1.28.95,1.92.61,1.17.92,1.75.71,1.29,1.08,1.93.65,1.12,1,1.68.8,1.3,1.22,1.94.67,1.06,1,1.59.9,1.31,1.36,2,.71,1,1.07,1.49c.5.68,1,1.34,1.56,2,.35.45.7.9,1.06,1.34.6.74,1.23,1.45,1.86,2.17.32.36.62.73.95,1.09q1.44,1.61,3,3.15h0c1,1,2,2,3,2.88l1,.89c.71.62,1.42,1.24,2.14,1.83l1.2,1c.68.54,1.37,1.08,2.07,1.6l1.25.92c.73.53,1.46,1,2.2,1.53.39.27.77.54,1.17.8.94.61,1.89,1.2,2.84,1.78.2.11.39.24.58.35,1.14.67,2.29,1.31,3.46,1.93l1.22.62c.78.4,1.55.78,2.34,1.15.49.24,1,.46,1.48.68l2.15.94,1.57.64c.72.28,1.43.55,2.15.81.53.19,1,.39,1.58.57l2.08.67.41.13,1.26.4,1.36.37.56.15,1.66.44c.57.14,1.15.26,1.72.39s1.37.32,2.06.45,1.28.25,1.92.36l1.87.32,2,.29,1.79.21c.7.08,1.39.16,2.09.22s1.1.08,1.66.12c1.21.08,2.43.14,3.64.17l1.32,0h2.21l1.29,0,1,0,1.31-.06,1.13-.08,1.33-.09.68,0,1.77-.19.83-.09,1.1-.14,1.89-.27.29,0c.55-.08,1.09-.18,1.64-.28s1.14-.19,1.71-.31c1.1-.22,2.19-.46,3.29-.72.52-.12,1-.26,1.55-.39l2-.55.14,0c.51-.15,1-.29,1.51-.45l1.68-.53.33-.11.35-.12,1.21-.4c.49-.17,1-.36,1.46-.55l.28-.1c.54-.2,1.08-.4,1.61-.62l1.24-.51.29-.12.08,0c.66-.28,1.32-.57,2-.87l1.27-.58c.91-.43,1.81-.88,2.71-1.34l.73-.37c1.11-.59,2.21-1.2,3.29-1.84l1-.61c.8-.49,1.6-1,2.39-1.5l1-.68c1-.65,1.95-1.33,2.9-2l.32-.23c1.06-.78,2.09-1.59,3.12-2.41l.89-.74c.77-.64,1.52-1.28,2.27-2l.89-.79c1-.91,2-1.83,2.93-2.79h0l50.15-50.15,50.15-50.15c1-1,1.92-2,2.84-3a83.13,83.13,0,0,0,21.5-55.78V212.9a15.17,15.17,0,0,0,16.31-15.12V146.52A17.62,17.62,0,0,0,471.66,129Z"/><path class="cls-2" d="M241.67,143.72V273.54a28,28,0,0,1-8.19,19.76l-60.75,60.76a87.57,87.57,0,0,0,0,123.86h0a87.59,87.59,0,0,0,123.86,0l100.3-100.3a83.15,83.15,0,0,0,24.34-58.77V143.72Z"/><path class="cls-3" d="M165.5,362.27a87.59,87.59,0,0,0,7.23,115.65h0a87.6,87.6,0,0,0,105.74,13.91A153.09,153.09,0,0,0,165.5,362.27Z"/><path class="cls-4" d="M202.54,497.48a87.62,87.62,0,0,0,94-19.56l100.3-100.3a83.15,83.15,0,0,0,24.34-58.77V143.72H390.64Z"/><path class="cls-5" d="M421.67,79l-.82-.08a899.24,899.24,0,0,0-179.1,0l-.82.08a17.62,17.62,0,0,0-15.86,17.53v51.26a15.17,15.17,0,0,0,16.68,15.1h0a899.24,899.24,0,0,1,179.1,0h0a15.17,15.17,0,0,0,16.68-15.1V96.53A17.61,17.61,0,0,0,421.67,79Z"/><path class="cls-6" d="M241.75,78.92l-.82.08a17.62,17.62,0,0,0-15.86,17.53v51.26a15.17,15.17,0,0,0,16.68,15.1h0q34.08-3.4,68.3-4.21l44.62-83.92A898.5,898.5,0,0,0,241.75,78.92Z"/><path class="cls-5" d="M420,184.24l-28.38,28.38-28.39-28.38a2.49,2.49,0,0,0-3.53,0l-28.39,28.38L303,184.24a2.56,2.56,0,0,0-3.53,0l-28.38,28.38-28.39-28.38a2.49,2.49,0,0,0-1-.6v6.68l27.61,27.61a2.58,2.58,0,0,0,3.53,0l28.38-28.39,28.39,28.39a2.5,2.5,0,0,0,3.53,0l28.39-28.39,28.38,28.39a2.58,2.58,0,0,0,3.53,0l27.82-27.82V183.6A2.43,2.43,0,0,0,420,184.24Z"/><path class="cls-7" d="M393.41,184.24a2.56,2.56,0,0,0-3.53,0L361.5,212.62l-28.39-28.38a2.49,2.49,0,0,0-3.53,0l-28.39,28.38-28.38-28.38a2.56,2.56,0,0,0-3.53,0l-27.61,27.61v6.67a2.47,2.47,0,0,0,1-.59l28.39-28.39,28.38,28.39a2.58,2.58,0,0,0,3.53,0l28.38-28.39,28.39,28.39a2.5,2.5,0,0,0,3.53,0l28.39-28.39L420,217.93a2.41,2.41,0,0,0,1.2.63v-6.5Z"/><path class="cls-3" d="M363.61,359.27a87.82,87.82,0,0,0,10.28,41.35l23-23a83.15,83.15,0,0,0,24.34-58.77V276.5A88.27,88.27,0,0,0,363.61,359.27Z"/><path class="cls-5" d="M297.37,273a3,3,0,0,1-2.6-1.5l-15-26a3,3,0,1,1,5.2-3l15,26a3,3,0,0,1-2.6,4.5Z"/><path class="cls-5" d="M282.37,273a3,3,0,0,1-2.6-4.5l15-26a3,3,0,0,1,5.2,3l-15,26A3,3,0,0,1,282.37,273Z"/><path class="cls-5" d="M304.87,260h-30a3,3,0,0,1,0-6h30a3,3,0,0,1,0,6Z"/><path class="cls-5" d="M347.17,317.16a3,3,0,0,1-2.6-1.5l-15-26a3,3,0,0,1,5.2-3l15,26a3,3,0,0,1-2.6,4.5Z"/><path class="cls-5" d="M332.17,317.16a3,3,0,0,1-2.6-4.5l15-26a3,3,0,1,1,5.2,3l-15,26A3,3,0,0,1,332.17,317.16Z"/><path class="cls-5" d="M354.67,304.17h-30a3,3,0,0,1,0-6h30a3,3,0,0,1,0,6Z"/><path class="cls-5" d="M263.47,354.55a3,3,0,0,1-2.6-1.5l-15-26a3,3,0,0,1,5.2-3l15,26a3,3,0,0,1-2.6,4.5Z"/><path class="cls-5" d="M248.47,354.55a3,3,0,0,1-2.6-4.5l15-26a3,3,0,0,1,5.2,3l-15,26A3,3,0,0,1,248.47,354.55Z"/><path class="cls-5" d="M271,341.56H241a3,3,0,1,1,0-6h30a3,3,0,0,1,0,6Z"/><path class="cls-5" d="M315.68,413.17a3,3,0,0,1-2.6-1.5l-15-26a3,3,0,1,1,5.19-3l15,26a3,3,0,0,1-1.09,4.1A3,3,0,0,1,315.68,413.17Z"/><path class="cls-5" d="M300.67,413.17a3,3,0,0,1-2.59-4.5l15-26a3,3,0,1,1,5.19,3l-15,26A3,3,0,0,1,300.67,413.17Z"/><path class="cls-5" d="M323.18,400.18h-30a3,3,0,0,1,0-6h30a3,3,0,0,1,0,6Z"/><rect class="cls-8" width="600" height="600"/></svg>