<svg id="Contenido" xmlns="http://www.w3.org/2000/svg" xmlns:xlink="http://www.w3.org/1999/xlink" viewBox="0 0 600 600"><defs><style>.cls-1{fill:url(#Degradado_sin_nombre_7);}.cls-2{fill:#c49735;}.cls-3{fill:#f8cd50;}.cls-4{fill:url(#Degradado_sin_nombre_48);}.cls-5{fill:#043263;}.cls-6{fill:#49a5e6;}.cls-7{fill:url(#Degradado_sin_nombre_28);}.cls-8{fill:url(#Degradado_sin_nombre_28-2);}.cls-9{fill:url(#Degradado_sin_nombre_28-3);}.cls-10{fill:#2dcccd;}.cls-11{fill:#1973b8;}.cls-12{fill:#1464a5;}</style><linearGradient id="Degradado_sin_nombre_7" x1="198.21" y1="36.01" x2="471.89" y2="550.74" gradientUnits="userSpaceOnUse"><stop offset="0" stop-color="#192647"/><stop offset="0" stop-color="#192647" stop-opacity="0.5"/><stop offset="1" stop-color="#192647" stop-opacity="0"/></linearGradient><linearGradient id="Degradado_sin_nombre_48" x1="363.34" y1="128.53" x2="416.33" y2="156.71" gradientUnits="userSpaceOnUse"><stop offset="0" stop-color="#fff" stop-opacity="0.6"/><stop offset="1" stop-color="#fff" stop-opacity="0.2"/></linearGradient><linearGradient id="Degradado_sin_nombre_28" x1="231.87" y1="328.26" x2="155.46" y2="328.26" gradientUnits="userSpaceOnUse"><stop offset="0" stop-color="#043263" stop-opacity="0.4"/><stop offset="1" stop-color="#043263" stop-opacity="0"/></linearGradient><linearGradient id="Degradado_sin_nombre_28-2" x1="363.2" y1="328.26" x2="286.79" y2="328.26" xlink:href="#Degradado_sin_nombre_28"/><linearGradient id="Degradado_sin_nombre_28-3" x1="494.33" y1="328.26" x2="417.92" y2="328.26" xlink:href="#Degradado_sin_nombre_28"/></defs><title>_</title><path class="cls-1" d="M558.32,316.07l-26.78-.57a23.46,23.46,0,0,0-4.61.38V279.44a23,23,0,0,0-23-23H466.28V222.91h53.18a3,3,0,0,0,3-3.45l-9.09-60a3,3,0,0,0-3-2.55H413.53a3,3,0,0,0-2.91,2.29,2.44,2.44,0,0,0-.06.26l-9.09,60a3,3,0,0,0,3,3.45h53.17v33.53H177a23,23,0,0,0-23,23v36.1a22.83,22.83,0,0,0-4.24-.4H122.37a3,3,0,0,0-2.85,3.9c3.69,11.5,14.73,45.85,22.16,68.94v2.95h.95l6.19,19.26a23,23,0,0,0,21.87,15.94h15.12l-11.73,32a3,3,0,0,0,2.82,4h14.91a3,3,0,0,0,2.82-2l8.81-24h274l8.81,24a3,3,0,0,0,2.82,2H504a3,3,0,0,0,2.82-4l-11.72-32h15.11a23,23,0,0,0,21.87-15.94l29-90.2A3,3,0,0,0,558.32,316.07Z"/><rect class="cls-2" x="416.47" y="174.38" width="8.66" height="98.67"/><path class="cls-3" d="M478.32,180.91h-115a3,3,0,0,1-3-3.45l9.09-60a3,3,0,0,1,3-2.55h96.85a3,3,0,0,1,3,2.55l9.09,60A3,3,0,0,1,478.32,180.91Z"/><path class="cls-4" d="M372.38,114.91a3,3,0,0,0-3,2.55l-9.09,60a3,3,0,0,0,3,3.45h40.18l33.56-66Z"/><path class="cls-5" d="M462.79,214.44h-327a23,23,0,0,0-23,23V337.62h373V237.44A23,23,0,0,0,462.79,214.44Z"/><path class="cls-6" d="M100.54,307.6H208.87a23,23,0,0,1,23,23v18.33a0,0,0,0,1,0,0H100.54a0,0,0,0,1,0,0V307.6A0,0,0,0,1,100.54,307.6Z"/><path class="cls-6" d="M363.2,307.6H494.54a0,0,0,0,1,0,0v18.33a23,23,0,0,1-23,23H363.2a0,0,0,0,1,0,0V307.6A0,0,0,0,1,363.2,307.6Z" transform="translate(857.74 656.53) rotate(-180)"/><path class="cls-6" d="M254.87,307.6H340.2a23,23,0,0,1,23,23v18.33a0,0,0,0,1,0,0H231.87a0,0,0,0,1,0,0V330.6a23,23,0,0,1,23-23Z"/><path class="cls-7" d="M231.87,330.6a23,23,0,0,0-23-23H177.44l-22,41.33h76.41Z"/><path class="cls-8" d="M363.2,330.6a23,23,0,0,0-23-23H308.78l-22,41.33H363.2Z"/><polygon class="cls-9" points="494.33 348.93 494.33 307.6 439.91 307.6 417.92 348.93 494.33 348.93"/><path class="cls-10" d="M465.69,416.1l-15.39-42h-302l-15.39,42a3,3,0,0,0,2.82,4h14.91a3,3,0,0,0,2.82-2l8.81-24h274l8.81,24a3,3,0,0,0,2.82,2h14.91A3,3,0,0,0,465.69,416.1Z"/><rect class="cls-11" x="158.14" y="254.06" width="16.13" height="16.13" rx="8.07"/><rect class="cls-11" x="289.47" y="254.06" width="16.13" height="16.13" rx="8.07"/><rect class="cls-11" x="420.81" y="254.06" width="16.13" height="16.13" rx="8.07"/><path class="cls-12" d="M468,289.45l-15,46.64a3,3,0,0,1-2.85,2.08H148.47a3,3,0,0,1-2.85-2.08l-15.12-47a23,23,0,0,0-21.9-15.95H81.23a3,3,0,0,0-2.85,3.9c5.74,17.89,29.3,91.15,29.3,91.15a23,23,0,0,0,21.87,15.94H469.08A23,23,0,0,0,491,368.19L520,278a3,3,0,0,0-2.79-3.92l-26.78-.57A23,23,0,0,0,468,289.45Z"/></svg>