<svg xmlns="http://www.w3.org/2000/svg" xmlns:xlink="http://www.w3.org/1999/xlink" viewBox="0 0 600 600"><defs><style>.cls-1{fill:none;}.cls-2{fill:url(#Degradado_sin_nombre_494);}.cls-3{fill:#c49735;}.cls-4{fill:#f8cd50;}.cls-5{fill:url(#Degradado_sin_nombre_18);}.cls-6{fill:#043263;}.cls-7{fill:#49a5e6;}.cls-8{fill:url(#Degradado_sin_nombre_30);}.cls-9{fill:url(#Degradado_sin_nombre_30-2);}.cls-10{fill:url(#Degradado_sin_nombre_30-3);}.cls-11{fill:#2dcccd;}.cls-12{fill:#1973b8;}.cls-13{fill:#004481;}</style><linearGradient id="Degradado_sin_nombre_494" x1="198.23" y1="549" x2="471.91" y2="34.27" gradientTransform="matrix(1, 0, 0, -1, 0, 590)" gradientUnits="userSpaceOnUse"><stop offset="0" stop-color="#192647" stop-opacity="0.5"/><stop offset="1" stop-color="#192647" stop-opacity="0"/></linearGradient><linearGradient id="Degradado_sin_nombre_18" x1="363.31" y1="456.48" x2="416.33" y2="428.28" gradientTransform="matrix(1, 0, 0, -1, 0, 590)" gradientUnits="userSpaceOnUse"><stop offset="0" stop-color="#fff" stop-opacity="0.6"/><stop offset="1" stop-color="#fff" stop-opacity="0.2"/></linearGradient><linearGradient id="Degradado_sin_nombre_30" x1="231.87" y1="256.74" x2="155.44" y2="256.74" gradientTransform="matrix(1, 0, 0, -1, 0, 590)" gradientUnits="userSpaceOnUse"><stop offset="0" stop-color="#043263" stop-opacity="0.4"/><stop offset="1" stop-color="#043263" stop-opacity="0"/></linearGradient><linearGradient id="Degradado_sin_nombre_30-2" x1="363.2" y1="256.74" x2="286.78" y2="256.74" xlink:href="#Degradado_sin_nombre_30"/><linearGradient id="Degradado_sin_nombre_30-3" x1="494.33" y1="256.74" x2="417.92" y2="256.74" xlink:href="#Degradado_sin_nombre_30"/></defs><title>11</title><g id="Cuadrados_Blancos" data-name="Cuadrados Blancos"><rect class="cls-1" width="600" height="600"/></g><g id="Capa_59" data-name="Capa 59"><path class="cls-2" d="M558.32,321.07l-26.78-.57a23,23,0,0,0-4.61.38V284.44a23,23,0,0,0-23-23H466.28V227.91h53.18a3,3,0,0,0,3-3,2.58,2.58,0,0,0,0-.48l-9.09-60a3,3,0,0,0-3-2.55H413.53a3,3,0,0,0-2.91,2.29l-.06.26-9.09,60a3,3,0,0,0,2.52,3.42,3.87,3.87,0,0,0,.48,0h53.17v33.53H177a23,23,0,0,0-23,23v36.1a22.39,22.39,0,0,0-4.24-.4H122.37a3,3,0,0,0-2.85,3.9c3.69,11.5,14.73,45.85,22.16,68.94v2.95h.95l6.19,19.26a23,23,0,0,0,21.87,15.94h15.12l-11.73,32a3,3,0,0,0,2.82,4h14.91a3,3,0,0,0,2.82-2l8.81-24h274l8.81,24a3,3,0,0,0,2.82,2H504a3,3,0,0,0,3-3,3,3,0,0,0-.17-1l-11.72-32h15.11a23,23,0,0,0,21.87-15.94l29-90.2a3,3,0,0,0-1.93-3.78A3.35,3.35,0,0,0,558.32,321.07Z"/><rect class="cls-3" x="416.47" y="179.38" width="8.66" height="98.67"/><path class="cls-4" d="M478.32,185.91h-115a3,3,0,0,1-3-3,2.58,2.58,0,0,1,0-.48l9.09-60a3,3,0,0,1,3-2.55h96.85a3,3,0,0,1,3,2.55l9.09,60a3,3,0,0,1-2.52,3.42A4.36,4.36,0,0,1,478.32,185.91Z"/><path class="cls-5" d="M372.38,119.91a3,3,0,0,0-3,2.55l-9.09,60a3,3,0,0,0,2.52,3.42,3.87,3.87,0,0,0,.48,0h40.18l33.56-66Z"/><path class="cls-6" d="M462.79,219.44h-327a23,23,0,0,0-23,23V342.62h373V242.44A23,23,0,0,0,462.79,219.44Z"/><path class="cls-7" d="M100.54,312.6H208.87a23,23,0,0,1,23,23v18.33H100.54V312.6Z"/><path class="cls-7" d="M494.54,353.93H363.2V335.6a23,23,0,0,1,23-23H494.54v41.33Z"/><path class="cls-7" d="M254.87,312.6H340.2a23,23,0,0,1,23,23v18.33H231.87V335.6A23,23,0,0,1,254.87,312.6Z"/><path class="cls-8" d="M231.87,335.6a23,23,0,0,0-23-23H177.44l-22,41.33h76.41Z"/><path class="cls-9" d="M363.2,335.6a23,23,0,0,0-23-23H308.78l-22,41.33H363.2Z"/><polygon class="cls-10" points="494.33 353.93 494.33 312.6 439.91 312.6 417.92 353.93 494.33 353.93"/><path class="cls-11" d="M465.69,421.1l-15.39-42h-302l-15.39,42a3,3,0,0,0,2.82,4h14.91a3,3,0,0,0,2.82-2l8.81-24h274l8.81,24a3,3,0,0,0,2.82,2h14.91a3,3,0,0,0,3.05-3A2.89,2.89,0,0,0,465.69,421.1Z"/><path class="cls-12" d="M166.21,259.06h0a8.06,8.06,0,0,1,8.06,8.06h0a8.06,8.06,0,0,1-8.06,8.07h0a8.07,8.07,0,0,1-8.07-8.07h0A8.06,8.06,0,0,1,166.21,259.06Z"/><path class="cls-12" d="M297.54,259.06h0a8.06,8.06,0,0,1,8.06,8.06h0a8.06,8.06,0,0,1-8.06,8.07h0a8.07,8.07,0,0,1-8.07-8.07h0A8.06,8.06,0,0,1,297.54,259.06Z"/><path class="cls-12" d="M428.88,259.06h0a8.06,8.06,0,0,1,8.06,8.06h0a8.06,8.06,0,0,1-8.06,8.07h0a8.07,8.07,0,0,1-8.07-8.07h0A8.06,8.06,0,0,1,428.88,259.06Z"/><path class="cls-13" d="M468,294.45l-15,46.64a3,3,0,0,1-2.85,2.08H148.47a3,3,0,0,1-2.85-2.08l-15.12-47a23,23,0,0,0-21.9-15.95H81.23a3,3,0,0,0-2.85,3.9c5.74,17.89,29.3,91.15,29.3,91.15a23,23,0,0,0,21.87,15.94H469.08A23,23,0,0,0,491,373.19L520,283a3,3,0,0,0-1.93-3.78,3.16,3.16,0,0,0-.86-.14l-26.78-.57A23,23,0,0,0,468,294.45Z"/></g></svg>