<svg id="Contenido" xmlns="http://www.w3.org/2000/svg" xmlns:xlink="http://www.w3.org/1999/xlink" viewBox="0 0 600 600"><defs><style>.cls-1{fill:url(#Degradado_sin_nombre_7);}.cls-2{fill:#1464a5;}.cls-3{fill:#043263;}.cls-4{fill:#49a5e6;}.cls-5{fill:url(#Degradado_sin_nombre_44);}.cls-6{fill:#d4edfc;}.cls-7{fill:url(#Degradado_sin_nombre_34);}.cls-8{fill:#2dcccd;}.cls-9{fill:url(#Degradado_sin_nombre_34-2);}.cls-10{fill:url(#Degradado_sin_nombre_34-3);}.cls-11{fill:#f6cb5c;}.cls-12{fill:url(#Degradado_sin_nombre_14);}.cls-13{fill:url(#Degradado_sin_nombre_38);}</style><linearGradient id="Degradado_sin_nombre_7" x1="311.25" y1="203.27" x2="450.8" y2="465.74" gradientUnits="userSpaceOnUse"><stop offset="0" stop-color="#192647"/><stop offset="0" stop-color="#192647" stop-opacity="0.5"/><stop offset="1" stop-color="#192647" stop-opacity="0"/></linearGradient><linearGradient id="Degradado_sin_nombre_44" x1="470" y1="300" x2="255.8" y2="300" gradientUnits="userSpaceOnUse"><stop offset="0" stop-color="#043263" stop-opacity="0.4"/><stop offset="1" stop-color="#043263" stop-opacity="0.1"/></linearGradient><linearGradient id="Degradado_sin_nombre_34" x1="247.81" y1="274.75" x2="298.96" y2="301.95" gradientUnits="userSpaceOnUse"><stop offset="0" stop-color="#fff" stop-opacity="0.6"/><stop offset="1" stop-color="#fff" stop-opacity="0.2"/></linearGradient><linearGradient id="Degradado_sin_nombre_34-2" x1="147.81" y1="274.75" x2="198.96" y2="301.95" xlink:href="#Degradado_sin_nombre_34"/><linearGradient id="Degradado_sin_nombre_34-3" x1="347.81" y1="274.75" x2="398.96" y2="301.95" xlink:href="#Degradado_sin_nombre_34"/><linearGradient id="Degradado_sin_nombre_14" x1="478.43" y1="563.59" x2="495" y2="572.4" gradientTransform="translate(0 -400)" gradientUnits="userSpaceOnUse"><stop offset="0" stop-color="#fff" stop-opacity="0.6"/><stop offset="1" stop-color="#fff" stop-opacity="0.2"/></linearGradient><linearGradient id="Degradado_sin_nombre_38" x1="510" y1="316.09" x2="480" y2="316.09" gradientUnits="userSpaceOnUse"><stop offset="0.01" stop-color="#043263" stop-opacity="0.2"/><stop offset="1" stop-color="#043263" stop-opacity="0"/></linearGradient></defs><title>GLOMO</title><path class="cls-1" d="M556.17,289.32h-7V241.07a20,20,0,0,0,4.4-37h0l-.24-.11c-.52-.27-1.05-.53-1.6-.75l-.09,0q-.89-.36-1.8-.63l-.12,0c-.53-.16-1.07-.28-1.61-.39l-.18,0a19.72,19.72,0,0,0-3.79-.38,20,20,0,0,0-20,20,19.76,19.76,0,0,0,3.6,11.37l.13.18c.25.36.51.71.79,1.06s.7.83,1.07,1.22l.26.28c.19.19.4.37.6.55a19.84,19.84,0,0,0,3.46,2.58l.62.37.12.06h0a19.71,19.71,0,0,0,4.35,1.68v48.26h-7a3,3,0,0,0-3,3v17h-10v-22a22.71,22.71,0,0,0-.73-5.75c-.19-.73-.41-1.45-.67-2.16-.13-.35-.27-.7-.41-1a24.54,24.54,0,0,0-1.52-3,23.08,23.08,0,0,0-3.41-4.33,23.42,23.42,0,0,0-2.5-2.17c-.3-.22-.6-.44-.9-.64a21.81,21.81,0,0,0-1.9-1.15,21,21,0,0,0-3.06-1.38,22.3,22.3,0,0,0-3.27-.93,22.87,22.87,0,0,0-4.63-.47h-294a23,23,0,0,0-23,23v124a23,23,0,0,0,23,23h294a22.87,22.87,0,0,0,4.63-.47,23.07,23.07,0,0,0,6.33-2.31c.65-.35,1.28-.74,1.9-1.15l.9-.64a23.42,23.42,0,0,0,2.5-2.17,23.08,23.08,0,0,0,3.41-4.33,24.54,24.54,0,0,0,1.52-3c.14-.34.28-.69.41-1,.26-.71.48-1.43.67-2.16a22.77,22.77,0,0,0,.73-5.75v-22h10v17a3,3,0,0,0,3,3h24a3,3,0,0,0,1.67-.51,2.24,2.24,0,0,0,.34-.27,3,3,0,0,0,.75-1.05,3.06,3.06,0,0,0,.24-1.17v-114A3,3,0,0,0,556.17,289.32Z"/><rect class="cls-2" x="130" y="215" width="340" height="170" rx="23"/><rect class="cls-3" x="470" y="260" width="10" height="80"/><rect class="cls-4" x="480" y="240" width="30" height="120" rx="3"/><path class="cls-5" d="M470,238V362a23,23,0,0,1-23,23H255.8l90.39-170H447A23,23,0,0,1,470,238Z"/><rect class="cls-6" x="261" y="248" width="78" height="104" rx="3"/><path class="cls-7" d="M263.6,248a2.59,2.59,0,0,0-2.6,2.6v98.8a2.59,2.59,0,0,0,2.6,2.6h8.75l55.3-104Z"/><path class="cls-8" d="M300,306.75l-6.76,14.05-8-4.73,8.85-12.67-15.75,1v-8.82l15.85,1.1-8.95-12.76,8-4.73,6.76,14,6.8-14,8.11,4.73-9,12.76,15.75-1.1v8.82l-15.75-1,9,12.67-8,4.73Z"/><rect class="cls-6" x="161" y="248" width="78" height="104" rx="3"/><path class="cls-9" d="M163.6,248a2.59,2.59,0,0,0-2.6,2.6v98.8a2.59,2.59,0,0,0,2.6,2.6h8.75l55.3-104Z"/><polygon class="cls-8" points="221.67 248 178.33 248 178.33 255.63 194.08 254.62 185.23 267.29 193.24 272.02 200 257.97 206.9 272.02 214.91 267.29 205.92 254.62 221.67 255.63 221.67 248"/><rect class="cls-6" x="361" y="248" width="78" height="104" rx="3"/><path class="cls-10" d="M363.6,248a2.59,2.59,0,0,0-2.6,2.6v98.8a2.59,2.59,0,0,0,2.6,2.6h8.75l55.3-104Z"/><polygon class="cls-8" points="378.33 352 421.67 352 421.67 344.37 405.92 345.38 414.77 332.71 406.76 327.98 400 342.03 393.1 327.98 385.09 332.71 394.08 345.38 378.33 344.37 378.33 352"/><rect class="cls-3" x="490" y="187.72" width="10" height="80" rx="3"/><path class="cls-11" d="M515,172.4a20,20,0,1,1-20-20h0a20,20,0,0,1,20,20"/><path class="cls-12" d="M504.41,154.76a20,20,0,0,0-18.76,35.32Z"/><path class="cls-13" d="M480,328.6V357a3,3,0,0,0,3,3h24a3,3,0,0,0,3-3V272.17Z"/></svg>