<svg xmlns="http://www.w3.org/2000/svg" xmlns:xlink="http://www.w3.org/1999/xlink" viewBox="0 0 600 600"><defs><style>.cls-1{fill:url(#Degradado_sin_nombre_17);}.cls-2{fill:#043263;}.cls-3{fill:#49a5e6;}.cls-4{fill:url(#Degradado_sin_nombre_14);}.cls-5{fill:#d8ebf9;}.cls-6{fill:url(#Degradado_sin_nombre_3);}.cls-7{fill:#2dcccd;}.cls-8{fill:url(#Degradado_sin_nombre_3-2);}.cls-9{fill:url(#Degradado_sin_nombre_3-3);}.cls-10{fill:#f8cd50;}.cls-11{fill:url(#Degradado_sin_nombre_3-4);}.cls-12{fill:url(#Degradado_sin_nombre_15);}.cls-13{fill:#eaf9fa;}.cls-14{fill:none;}</style><linearGradient id="Degradado_sin_nombre_17" x1="266.3" y1="-1111.73" x2="430.94" y2="-1421.37" gradientTransform="matrix(1, 0, 0, -1, 0, -886.93)" gradientUnits="userSpaceOnUse"><stop offset="0" stop-color="#1c2645"/><stop offset="0" stop-color="#1c2645" stop-opacity="0.5"/><stop offset="1" stop-color="#1c2645" stop-opacity="0"/></linearGradient><linearGradient id="Degradado_sin_nombre_14" x1="423.12" y1="2598.99" x2="208.92" y2="2598.99" gradientTransform="translate(0 -2278)" gradientUnits="userSpaceOnUse"><stop offset="0" stop-color="#072146" stop-opacity="0.8"/><stop offset="1" stop-color="#072146" stop-opacity="0.1"/></linearGradient><linearGradient id="Degradado_sin_nombre_3" x1="200.93" y1="2573.73" x2="252.09" y2="2600.95" gradientTransform="translate(0 -2278)" gradientUnits="userSpaceOnUse"><stop offset="0" stop-color="#fff" stop-opacity="0.6"/><stop offset="1" stop-color="#fff" stop-opacity="0.2"/></linearGradient><linearGradient id="Degradado_sin_nombre_3-2" x1="100.93" y1="2573.73" x2="152.09" y2="2600.95" xlink:href="#Degradado_sin_nombre_3"/><linearGradient id="Degradado_sin_nombre_3-3" x1="300.93" y1="2573.73" x2="352.09" y2="2600.95" xlink:href="#Degradado_sin_nombre_3"/><linearGradient id="Degradado_sin_nombre_3-4" x1="431.19" y1="2862.39" x2="447.76" y2="2871.2" gradientTransform="translate(0 -2678)" xlink:href="#Degradado_sin_nombre_3"/><linearGradient id="Degradado_sin_nombre_15" x1="463.12" y1="2615.08" x2="433.12" y2="2615.08" gradientTransform="translate(0 -2278)" gradientUnits="userSpaceOnUse"><stop offset="0.01" stop-color="#153260" stop-opacity="0.2"/><stop offset="1" stop-color="#153260" stop-opacity="0"/></linearGradient></defs><g id="Contenido"><path class="cls-1" d="M530.7,401.8H514.2v-88a3,3,0,0,0-3-3h-7V262.5a20,20,0,0,0,14.3-24.4,19.6,19.6,0,0,0-10.3-12.7h0l-.3-.2-1.3-.6-.7-.2-1.2-.4-.8-.2-1-.3h-6.8l-1.2.2h-.4l-1.5.4h-.1l-1.7.7h-.1l-1.6.8h-.3l-1.3.9-.6.4-1,.7-.6.6-.8.7-.5.6-.8.9-.4.5a10.5,10.5,0,0,1-.8,1.1l-.3.5c-.2.4-.5.8-.7,1.3h-.1v.3l-.6,1.4-.2.5a6.5,6.5,0,0,0-.4,1.3,1.9,1.9,0,0,0-.2.7l-.3,1.1a3.8,3.8,0,0,0-.1,1c-.1.4-.1.7-.2,1v3.1c.1.4,0,.6.1.9a1.3,1.3,0,0,1,.1.6,19.1,19.1,0,0,0,1.2,4.7.1.1,0,0,1,.1.1,13.4,13.4,0,0,0,.6,1.2l.2.6a4.1,4.1,0,0,1,.5.9,3.5,3.5,0,0,1,.5.8l.5.6.7.9.4.5.9,1,.4.4,1,.9.7.5.8.7,1,.6.6.3h0a21.1,21.1,0,0,0,4.7,1.9v48.2h-7a3.1,3.1,0,0,0-3,3v17h-10v-22a23,23,0,0,0-23-23h-294a23,23,0,0,0-23,23v124a22.9,22.9,0,0,0,23,23H438.4a37.6,37.6,0,0,0,33.4,20.7h59A37.4,37.4,0,0,0,568,439.2h0A37.4,37.4,0,0,0,530.7,401.8Z"/><rect class="cls-2" x="83.1" y="236" width="340" height="170" rx="23"/><rect class="cls-2" x="423.1" y="281" width="10" height="80"/><rect class="cls-3" x="433.1" y="261" width="30" height="120" rx="3"/><path class="cls-4" d="M423.1,259V383a23,23,0,0,1-23,23H208.9l90.4-170H400.1A23,23,0,0,1,423.1,259Z"/><rect class="cls-5" x="214.1" y="269" width="78" height="104" rx="3"/><path class="cls-6" d="M216.7,269a2.6,2.6,0,0,0-2.6,2.6h0v98.8a2.6,2.6,0,0,0,2.6,2.6h8.8l55.3-104Z"/><path class="cls-7" d="M253.1,327.7l-6.7,14-8-4.7,8.8-12.7-15.7,1v-8.8l15.8,1.1-8.9-12.7,8-4.8,6.7,14,6.8-14,8.1,4.8-9,12.7,15.8-1.1v8.8l-15.8-1,9,12.7-8,4.7Z"/><rect class="cls-5" x="114.1" y="269" width="78" height="104" rx="3"/><path class="cls-8" d="M116.7,269a2.6,2.6,0,0,0-2.6,2.6h0v98.8a2.6,2.6,0,0,0,2.6,2.6h8.8l55.3-104Z"/><polygon class="cls-7" points="174.8 269 131.4 269 131.4 276.6 147.2 275.6 138.3 288.3 146.4 293 153.1 279 160 293 168 288.3 159 275.6 174.8 276.6 174.8 269"/><rect class="cls-5" x="314.1" y="269" width="78" height="104" rx="3"/><path class="cls-9" d="M316.7,269a2.6,2.6,0,0,0-2.6,2.6h0v98.8a2.6,2.6,0,0,0,2.6,2.6h8.8l55.3-104Z"/><polygon class="cls-7" points="331.4 373 374.8 373 374.8 365.4 359 366.4 367.9 353.7 359.9 349 353.1 363 346.2 349 338.2 353.7 347.2 366.4 331.4 365.4 331.4 373"/><rect class="cls-2" x="443.1" y="208.7" width="10" height="80" rx="3"/><path class="cls-10" d="M468.1,193.4a20,20,0,1,1-20-20h0a19.9,19.9,0,0,1,20,20"/><path class="cls-11" d="M457.2,175.6a20,20,0,0,0-18.8,35.3Z"/><path class="cls-12" d="M433.1,349.6V378a3,3,0,0,0,3,3h24a2.9,2.9,0,0,0,3-3V293.2Z"/><path class="cls-7" d="M479.6,426.6h-59a37.3,37.3,0,0,1-37.3-37.3h0A37.3,37.3,0,0,1,420.6,352h59a37.3,37.3,0,0,1,37.3,37.3h0A37.3,37.3,0,0,1,479.6,426.6Z"/><circle class="cls-13" cx="479.6" cy="389.3" r="25.8"/></g><g id="Capa_2" data-name="Capa 2"><rect class="cls-14" y="0.1" width="600" height="600"/></g></svg>