<?xml version="1.0" encoding="UTF-8"?>
<svg width="600px" height="600px" viewBox="0 0 600 600" version="1.1" xmlns="http://www.w3.org/2000/svg" xmlns:xlink="http://www.w3.org/1999/xlink">
    <!-- Generator: Sketch 52.6 (67491) - http://www.bohemiancoding.com/sketch -->
    <title>Security/Softoken-Fingerprint@1x</title>
    <desc>Created with Sketch.</desc>
    <defs>
        <linearGradient x1="20.9379879%" y1="8.5957054%" x2="66.5163734%" y2="94.2538034%" id="linearGradient-1">
            <stop stop-color="#192647" stop-opacity="0.45074847" offset="0%"></stop>
            <stop stop-color="#192647" stop-opacity="0" offset="100%"></stop>
        </linearGradient>
        <linearGradient x1="100%" y1="49.999961%" x2="0%" y2="49.999961%" id="linearGradient-2">
            <stop stop-color="#043263" stop-opacity="0.5" offset="0%"></stop>
            <stop stop-color="#043263" stop-opacity="0" offset="100%"></stop>
        </linearGradient>
        <linearGradient x1="10.1004056%" y1="32.6363639%" x2="69.1734823%" y2="63.3116885%" id="linearGradient-3">
            <stop stop-color="#FFFFFF" stop-opacity="0.4" offset="0%"></stop>
            <stop stop-color="#ECF7F8" stop-opacity="0.1" offset="100%"></stop>
        </linearGradient>
    </defs>
    <g id="Security/Softoken-Fingerprint" stroke="none" stroke-width="1" fill="none" fill-rule="evenodd">
        <g id="Softoken-fingerprint" transform="translate(170.000000, 105.000000)" fill-rule="nonzero">
            <path d="M287,169.863519 L287,206 C292.981285,205.999826 298.726107,208.33579 303.01,212.51 L303.25,212.74 L303.33,212.82 C307.604092,217.120016 310.002138,222.937163 310,229 L310,308.2 C310.026241,342.423338 296.479327,375.260309 272.33,399.51 L271.94,399.91 C271.77,400.07 271.6,400.23 271.44,400.4 C247.147582,424.487691 214.310182,437.983597 180.1,437.94 L179.9,437.94 C178.35,437.94 176.81,437.9 175.28,437.85 L174.57,437.85 C171.31,437.716667 168.086667,437.466667 164.9,437.1 C99.4163349,429.482906 50.0202723,374.025186 50,308.1 L50,229 C50,216.297451 60.2974508,206 73,206 L77,206 L77,157 C77.1268524,99.0385241 124.158388,52.1233149 182.12,52.14 C183.08,52.14 184,52.14 185,52.14 L185.94,52.14 C186.59,52.16 187.23,52.22 187.87,52.22 L188.98,52.29 L190.72,52.41 L191.87,52.52 L193.57,52.69 L194.71,52.82 L196.41,53.04 L197.52,53.19 L199.26,53.47 L200.26,53.64 L202.16,53.99 L203,54.15 L205.67,54.73 C206.59,54.94 207.5,55.17 208.41,55.4 L209.05,55.58 C209.69,55.76 210.37,55.94 211.05,56.14 L211.91,56.4 C212.51,56.57 213.11,56.75 213.7,56.94 L214.63,57.25 C215.2,57.43 215.77,57.62 216.33,57.82 L217.27,58.15 C217.84,58.35 218.4,58.56 218.95,58.77 L219.86,59.11 L221.58,59.8 L222.41,60.14 C223.04,60.4 223.66,60.67 224.27,60.94 L224.92,61.22 C241.20658,68.5290327 254.989993,79.6669444 265.400915,93.2925002 L294.936366,41.7788075 C295.56483,40.6788477 296.734528,40 298.001366,40 C299.268204,40 300.437902,40.6788477 301.066366,41.7788075 L371.536366,164.688808 C372.12382,165.782804 372.093264,167.105002 371.455899,168.170692 C370.818534,169.236382 369.66811,169.888813 368.426366,169.888808 L287.016366,169.888808 C287.01091,169.880377 287.005455,169.871947 287,169.863519 Z M251.000007,206 L251,157 C251.012508,129.901764 235.162235,105.304894 210.48,94.12 C209.41,93.64 208.32,93.18 207.23,92.75 L207.14,92.75 C206.08,92.34 205.02,91.95 203.94,91.59 L203.7,91.51 C202.68,91.17 201.6,90.85 200.6,90.56 L200.19,90.44 C199.19,90.18 198.19,89.93 197.19,89.71 L196.58,89.57 C195.65,89.37 194.71,89.19 193.77,89.03 L192.98,88.89 C192.08,88.74 191.18,88.63 190.28,88.52 L189.34,88.4 C188.44,88.3 187.53,88.24 186.62,88.18 L185.68,88.1 C184.46,88 183.23,88 182,88 C143.91188,88.0276001 113.04999,118.91187 113.05,157 L113.05,206 L251.000007,206 Z" id="Combined-Shape" fill="url(#linearGradient-1)"></path>
            <path d="M237,107 C237,49.0101013 189.989899,2 132,2 C74.0101013,2 27,49.0101013 27,107 L27,156 L63.05,156 L63.05,107 C64.0562594,69.6292803 94.6407352,39.8572493 132.025,39.8572493 C169.409265,39.8572493 199.993741,69.6292803 201,107 L201,156 L237,156 L237,107 Z" id="Path" fill="#F8CD50"></path>
            <path d="M23,156 L237,156 C249.702549,156 260,166.297451 260,179 L260,258.1 C260,329.841789 201.841789,388 130.1,388 L129.89,388 C58.1521163,387.994477 -2.12569176e-07,329.837884 0,258.1 L0,179 C-2.84217094e-14,166.297451 10.2974508,156 23,156 Z" id="Path" fill="#1464A5"></path>
            <path d="M237,156 L171.27,156 L56.6,365.33 C78.2094351,380.139036 103.803181,388.043808 130,388 C201.8,388 260,329.89 260,258.2 L260,179 C260,166.297451 249.702549,156 237,156 Z" id="Path" fill="url(#linearGradient-2)"></path>
            <path d="M132,2 C74.0306687,2.04962422 27.0496242,49.0306687 27,107 L27,156 L63.05,156 L63.05,107 C63.0463709,83.575658 74.9423389,61.7535601 94.6323875,49.0649119 C114.322436,36.3762637 139.109835,34.5588901 160.44,44.24 L177.39,12.37 C163.232718,5.54289664 147.717442,1.99820811 132,2 Z" id="Path" fill="url(#linearGradient-3)"></path>
            <path d="M91.52,298.65 C89.3588645,298.635826 87.4047853,297.361766 86.52,295.39 C80.98,283.1 78.4,272.63 78.4,262.45 C78.3988015,250.260474 82.7944594,238.479543 90.78,229.27 C92.8116546,227.102504 96.1928469,226.92751 98.4374054,228.87369 C100.681964,230.81987 100.987785,234.191747 99.13,236.51 C92.8876888,243.709821 89.4539537,252.920895 89.46,262.45 C89.46,271.01 91.72,280.04 96.6,290.85 C97.3673009,292.554348 97.2217395,294.530957 96.2130469,296.104517 C95.2043544,297.678078 93.4690496,298.63562 91.6,298.65 L91.52,298.65 Z" id="Path" fill="#2DCCCD"></path>
            <path d="M174.11,268 C171.059766,268.000005 168.585516,265.530229 168.58,262.48 C168.5745,240.616371 150.863612,222.887584 129,222.86 C122.919228,222.841231 116.917549,224.238084 111.47,226.94 C109.701535,227.815301 107.600439,227.680647 105.958174,226.586762 C104.315909,225.492877 103.381974,223.605948 103.508174,221.636762 C103.634374,219.667577 104.801535,217.915301 106.57,217.04 C113.539557,213.579828 121.218799,211.78926 129,211.81 C156.95237,211.843073 179.602448,234.497624 179.63,262.45 C179.637985,263.919186 179.059942,265.330939 178.023874,266.372637 C176.987807,267.414336 175.579208,268.000022 174.11,268 Z" id="Path" fill="#2DCCCD"></path>
            <path d="M109.92,308.37 L109.77,308.37 C108.304967,308.335979 106.913836,307.71976 105.904228,306.657607 C104.894619,305.595454 104.349711,304.174874 104.39,302.71 C104.760689,294.378654 103.822628,286.04071 101.61,278 C100.14508,272.937113 99.3681087,267.700121 99.3,262.43 C99.3118641,252.817128 103.963233,243.801144 111.79,238.22 C114.275281,236.449927 117.724927,237.029719 119.495,239.515 C121.265073,242.000281 120.685281,245.449927 118.2,247.22 C113.285496,250.727935 110.365972,256.391961 110.36,262.43 C110.446174,266.800144 111.118853,271.138922 112.36,275.33 C114.790681,284.342493 115.829345,293.673604 115.44,303 C115.353526,305.987596 112.908844,308.365846 109.92,308.37 Z" id="Path" fill="#2DCCCD"></path>
            <path d="M152,306.94 L151.46,306.94 C150.001028,306.808081 148.654327,306.101631 147.716506,304.976245 C146.778684,303.850859 146.326663,302.398843 146.46,300.94 C147.75,287.48 147.67,273.94 147.63,265.94 C147.63,264.66 147.63,263.52 147.63,262.55 C147.71889,252.977498 140.52009,244.90428 131,243.9 C127.969823,243.57402 125.774577,240.857862 126.091469,237.826722 C126.40836,234.795581 129.117923,232.592199 132.15,232.9 C147.2908,234.447089 158.792855,247.220424 158.75,262.44 C158.75,263.39 158.75,264.51 158.75,265.77 C158.949781,277.836164 158.5426,289.904741 157.53,301.93 C157.265449,304.781701 154.863893,306.957433 152,306.94 Z" id="Path" fill="#2DCCCD"></path>
            <path d="M132.33,322.12 C129.275865,322.12 126.8,319.644135 126.8,316.59 L126.8,301.59 C126.925958,298.629987 129.362309,296.295106 132.325,296.295106 C135.287691,296.295106 137.724042,298.629987 137.85,301.59 L137.85,316.59 C137.850005,319.640234 135.380229,322.114484 132.33,322.12 Z" id="Path" fill="#2DCCCD"></path>
            <path d="M132,289.28 C129.088811,289.275646 126.679514,287.015017 126.49,284.11 C126.117257,277.283181 125.173967,270.499519 123.67,263.83 C123.02905,260.923705 124.803169,258.031391 127.684322,257.285523 C130.565476,256.539654 133.520193,258.207774 134.37,261.06 C136.063595,268.398268 137.117544,275.869597 137.52,283.39 C137.615944,284.854105 137.126106,286.296323 136.158326,287.399143 C135.190545,288.501962 133.824165,289.17497 132.36,289.27 L132,289.28 Z" id="Path" fill="#2DCCCD"></path>
            <g id="Alert" transform="translate(179.989943, 0.462583)">
                <path d="M70.9400573,1.77741667 L0.470057269,124.687417 C-0.159118549,125.781295 -0.156513192,127.127837 0.476890878,128.219273 C1.11029495,129.310709 2.27814617,129.981012 3.54005727,129.977417 L144.480057,129.977417 C145.741968,129.981012 146.90982,129.310709 147.543224,128.219273 C148.176628,127.127837 148.179233,125.781295 147.550057,124.687417 L77.0800573,1.77741667 C76.4488243,0.677959315 75.2778355,7.10542736e-14 74.0100573,7.10542736e-14 C72.7422791,7.10542736e-14 71.5712902,0.677959315 70.9400573,1.77741667 Z" id="Path" fill="#D72544"></path>
                <path d="M73.5000573,90.0074167 C70.7266632,89.9799617 68.4944292,87.720941 68.5000573,84.9474167 L68.5000573,50.6674167 C68.5000573,47.8894244 70.752065,45.6374167 73.5300573,45.6374167 C76.3080496,45.6374167 78.5600573,47.8894244 78.5600573,50.6674167 L78.5600573,84.9474167 C78.5763196,86.2943317 78.0484377,87.5908328 77.0959556,88.543315 C76.1434734,89.4957971 74.8469723,90.023679 73.5000573,90.0074167 Z" id="Path" fill="#FFFFFF"></path>
                <path d="M73.5100573,108.927417 C72.1729266,108.921647 70.8926645,108.385807 69.9500573,107.437417 C69.7134068,107.203762 69.502224,106.945649 69.3200573,106.667417 C69.1375027,106.393835 68.9833695,106.102322 68.8600573,105.797417 C68.7347277,105.490219 68.6376595,105.172237 68.5700573,104.847417 C68.5099056,104.517487 68.4797823,104.182785 68.4800573,103.847417 C68.4822195,102.510547 69.0102465,101.228196 69.9500573,100.277417 C70.8892764,99.3277688 72.1694063,98.7933767 73.5050573,98.7933767 C74.8407083,98.7933767 76.1208381,99.3277688 77.0600573,100.277417 C78.5020844,101.723368 78.9358547,103.893321 78.1605189,105.782519 C77.385183,107.671718 75.552105,108.911346 73.5100573,108.927417 Z" id="Path" fill="#FFFFFF"></path>
            </g>
        </g>
    </g>
</svg>