<?xml version="1.0" encoding="UTF-8"?>
<svg width="600px" height="600px" viewBox="0 0 600 600" version="1.1" xmlns="http://www.w3.org/2000/svg" xmlns:xlink="http://www.w3.org/1999/xlink">
    <!-- Generator: Sketch 52.6 (67491) - http://www.bohemiancoding.com/sketch -->
    <title>Security/Softoken-Fingerprint Copy@2x</title>
    <desc>Created with Sketch.</desc>
    <defs>
        <linearGradient x1="18.7341409%" y1="8.20197571%" x2="71.8945455%" y2="92.0659935%" id="linearGradient-1">
            <stop stop-color="#192647" stop-opacity="0.5" offset="0%"></stop>
            <stop stop-color="#192647" stop-opacity="0" offset="100%"></stop>
        </linearGradient>
        <linearGradient x1="100%" y1="49.999961%" x2="0%" y2="49.999961%" id="linearGradient-2">
            <stop stop-color="#043263" stop-opacity="0.5" offset="0%"></stop>
            <stop stop-color="#043263" stop-opacity="0" offset="100%"></stop>
        </linearGradient>
        <linearGradient x1="10.1004056%" y1="32.6363639%" x2="69.1734823%" y2="63.3116885%" id="linearGradient-3">
            <stop stop-color="#FFFFFF" stop-opacity="0.4" offset="0%"></stop>
            <stop stop-color="#ECF7F8" stop-opacity="0.1" offset="100%"></stop>
        </linearGradient>
    </defs>
    <g id="Security/Softoken-Fingerprint-Copy" stroke="none" stroke-width="1" fill="none" fill-rule="evenodd">
        <g id="Softoken-fingerprint" transform="translate(170.000000, 107.000000)" fill-rule="nonzero">
            <path d="M287,174.052131 L287,204 C292.981285,203.999826 298.726107,206.33579 303.01,210.51 L303.25,210.74 L303.33,210.82 C307.604092,215.120016 310.002138,220.937163 310,227 L310,306.2 C310.026241,340.423338 296.479327,373.260309 272.33,397.51 L271.94,397.91 C271.77,398.07 271.6,398.23 271.44,398.4 C247.147582,422.487691 214.310182,435.983597 180.1,435.94 L179.9,435.94 C178.35,435.94 176.81,435.9 175.28,435.85 L174.57,435.85 C171.31,435.716667 168.086667,435.466667 164.9,435.1 C99.4163349,427.482906 50.0202723,372.025186 50,306.1 L50,227 C50,214.297451 60.2974508,204 73,204 L77,204 L77,155 C77.1268524,97.0385241 124.158388,50.1233149 182.12,50.14 C183.08,50.14 184,50.14 185,50.14 L185.94,50.14 C186.59,50.16 187.23,50.22 187.87,50.22 L188.98,50.29 L190.72,50.41 L191.87,50.52 L193.57,50.69 L194.71,50.82 L196.41,51.04 L197.52,51.19 L199.26,51.47 L200.26,51.64 L202.16,51.99 L203,52.15 L205.67,52.73 C206.59,52.94 207.5,53.17 208.41,53.4 L209.05,53.58 C209.69,53.76 210.37,53.94 211.05,54.14 L211.91,54.4 C212.51,54.57 213.11,54.75 213.7,54.94 L214.63,55.25 C215.2,55.43 215.77,55.62 216.33,55.82 L217.27,56.15 C217.84,56.35 218.4,56.56 218.95,56.77 L219.86,57.11 L221.58,57.8 L222.41,58.14 C223.04,58.4 223.66,58.67 224.27,58.94 L224.92,59.22 C236.759841,64.5334412 247.276797,71.8703841 256.136883,80.7155374 C267.369822,63.4309728 286.849987,52 309,52 C343.793939,52 372,80.2060608 372,115 C372,149.793939 343.793939,178 309,178 C301.261514,178 293.848902,176.604765 287,174.052131 Z M251.000007,204 L251,155 C251.012508,127.901764 235.162235,103.304894 210.48,92.12 C209.41,91.64 208.32,91.18 207.23,90.75 L207.14,90.75 C206.08,90.34 205.02,89.95 203.94,89.59 L203.7,89.51 C202.68,89.17 201.6,88.85 200.6,88.56 L200.19,88.44 C199.19,88.18 198.19,87.93 197.19,87.71 L196.58,87.57 C195.65,87.37 194.71,87.19 193.77,87.03 L192.98,86.89 C192.08,86.74 191.18,86.63 190.28,86.52 L189.34,86.4 C188.44,86.3 187.53,86.24 186.62,86.18 L185.68,86.1 C184.46,86 183.23,86 182,86 C143.91188,86.0276001 113.04999,116.91187 113.05,155 L113.05,204 L251.000007,204 Z" id="Combined-Shape" fill="url(#linearGradient-1)"></path>
            <path d="M237,105 C237,47.0101013 189.989899,4.26325641e-14 132,4.26325641e-14 C74.0101013,4.26325641e-14 27,47.0101013 27,105 L27,154 L63.05,154 L63.05,105 C64.0562594,67.6292803 94.6407352,37.8572493 132.025,37.8572493 C169.409265,37.8572493 199.993741,67.6292803 201,105 L201,154 L237,154 L237,105 Z" id="Path" fill="#F8CD50"></path>
            <path d="M23,154 L237,154 C249.702549,154 260,164.297451 260,177 L260,256.1 C260,327.841789 201.841789,386 130.1,386 L129.89,386 C58.1521163,385.994477 -2.12569176e-07,327.837884 0,256.1 L0,177 C-2.84217094e-14,164.297451 10.2974508,154 23,154 Z" id="Path" fill="#1464A5"></path>
            <path d="M237,154 L171.27,154 L56.6,363.33 C78.2094351,378.139036 103.803181,386.043808 130,386 C201.8,386 260,327.89 260,256.2 L260,177 C260,164.297451 249.702549,154 237,154 Z" id="Path" fill="url(#linearGradient-2)"></path>
            <path d="M132,0 C74.0306687,0.049624223 27.0496242,47.0306687 27,105 L27,154 L63.05,154 L63.05,105 C63.0463709,81.575658 74.9423389,59.7535601 94.6323875,47.0649119 C114.322436,34.3762637 139.109835,32.5588901 160.44,42.24 L177.39,10.37 C163.232718,3.54289664 147.717442,-0.0017918918 132,0 Z" id="Path" fill="url(#linearGradient-3)"></path>
            <path d="M91.52,296.65 C89.3588645,296.635826 87.4047853,295.361766 86.52,293.39 C80.98,281.1 78.4,270.63 78.4,260.45 C78.3988015,248.260474 82.7944594,236.479543 90.78,227.27 C92.8116546,225.102504 96.1928469,224.92751 98.4374054,226.87369 C100.681964,228.81987 100.987785,232.191747 99.13,234.51 C92.8876888,241.709821 89.4539537,250.920895 89.46,260.45 C89.46,269.01 91.72,278.04 96.6,288.85 C97.3673009,290.554348 97.2217395,292.530957 96.2130469,294.104517 C95.2043544,295.678078 93.4690496,296.63562 91.6,296.65 L91.52,296.65 Z" id="Path" fill="#2DCCCD"></path>
            <path d="M174.11,266 C171.059766,266.000005 168.585516,263.530229 168.58,260.48 C168.5745,238.616371 150.863612,220.887584 129,220.86 C122.919228,220.841231 116.917549,222.238084 111.47,224.94 C109.701535,225.815301 107.600439,225.680647 105.958174,224.586762 C104.315909,223.492877 103.381974,221.605948 103.508174,219.636762 C103.634374,217.667577 104.801535,215.915301 106.57,215.04 C113.539557,211.579828 121.218799,209.78926 129,209.81 C156.95237,209.843073 179.602448,232.497624 179.63,260.45 C179.637985,261.919186 179.059942,263.330939 178.023874,264.372637 C176.987807,265.414336 175.579208,266.000022 174.11,266 Z" id="Path" fill="#2DCCCD"></path>
            <path d="M109.92,306.37 L109.77,306.37 C108.304967,306.335979 106.913836,305.71976 105.904228,304.657607 C104.894619,303.595454 104.349711,302.174874 104.39,300.71 C104.760689,292.378654 103.822628,284.04071 101.61,276 C100.14508,270.937113 99.3681087,265.700121 99.3,260.43 C99.3118641,250.817128 103.963233,241.801144 111.79,236.22 C114.275281,234.449927 117.724927,235.029719 119.495,237.515 C121.265073,240.000281 120.685281,243.449927 118.2,245.22 C113.285496,248.727935 110.365972,254.391961 110.36,260.43 C110.446174,264.800144 111.118853,269.138922 112.36,273.33 C114.790681,282.342493 115.829345,291.673604 115.44,301 C115.353526,303.987596 112.908844,306.365846 109.92,306.37 Z" id="Path" fill="#2DCCCD"></path>
            <path d="M152,304.94 L151.46,304.94 C150.001028,304.808081 148.654327,304.101631 147.716506,302.976245 C146.778684,301.850859 146.326663,300.398843 146.46,298.94 C147.75,285.48 147.67,271.94 147.63,263.94 C147.63,262.66 147.63,261.52 147.63,260.55 C147.71889,250.977498 140.52009,242.90428 131,241.9 C127.969823,241.57402 125.774577,238.857862 126.091469,235.826722 C126.40836,232.795581 129.117923,230.592199 132.15,230.9 C147.2908,232.447089 158.792855,245.220424 158.75,260.44 C158.75,261.39 158.75,262.51 158.75,263.77 C158.949781,275.836164 158.5426,287.904741 157.53,299.93 C157.265449,302.781701 154.863893,304.957433 152,304.94 Z" id="Path" fill="#2DCCCD"></path>
            <path d="M132.33,320.12 C129.275865,320.12 126.8,317.644135 126.8,314.59 L126.8,299.59 C126.925958,296.629987 129.362309,294.295106 132.325,294.295106 C135.287691,294.295106 137.724042,296.629987 137.85,299.59 L137.85,314.59 C137.850005,317.640234 135.380229,320.114484 132.33,320.12 Z" id="Path" fill="#2DCCCD"></path>
            <path d="M132,287.28 C129.088811,287.275646 126.679514,285.015017 126.49,282.11 C126.117257,275.283181 125.173967,268.499519 123.67,261.83 C123.02905,258.923705 124.803169,256.031391 127.684322,255.285523 C130.565476,254.539654 133.520193,256.207774 134.37,259.06 C136.063595,266.398268 137.117544,273.869597 137.52,281.39 C137.615944,282.854105 137.126106,284.296323 136.158326,285.399143 C135.190545,286.501962 133.824165,287.17497 132.36,287.27 L132,287.28 Z" id="Path" fill="#2DCCCD"></path>
        </g>
        <path d="M493.413146,173.992925 C493.413146,210.992095 463.423581,240.985849 426.429577,240.985849 C389.435574,240.985849 359.446009,210.992095 359.446009,173.992925 C359.446009,136.993754 389.435574,107 426.429577,107 C463.423581,107 493.413146,136.993754 493.413146,173.992925" id="Path" fill="#00B161" fill-rule="nonzero"></path>
        <path d="M412.589742,203.273986 C411.220778,203.273696 409.908202,202.728567 408.941714,201.758915 L388.331385,181.145708 C386.381364,179.12093 386.413745,175.906666 388.404161,173.921595 C390.394577,171.936525 393.608471,171.913232 395.627441,173.869245 L412.600047,190.875142 L457.262629,146.278467 C459.287124,144.328174 462.500939,144.360559 464.485732,146.351253 C466.470526,148.341947 466.493815,151.55629 464.538075,153.575542 L416.227465,201.758915 C415.263499,202.726042 413.955133,203.270962 412.589742,203.273986 Z" id="Path" fill="#FFFFFF" fill-rule="nonzero"></path>
    </g>
</svg>