<svg xmlns="http://www.w3.org/2000/svg" xmlns:xlink="http://www.w3.org/1999/xlink" viewBox="0 0 600 600"><defs><style>.cls-1{fill:none;}.cls-2{fill:url(#Degradado_sin_nombre_36);}.cls-3{fill:#043263;}.cls-4{fill:#49a5e6;}.cls-5{fill:url(#Degradado_sin_nombre_6);}.cls-6{fill:#d8ebf9;}.cls-7{fill:url(#Degradado_sin_nombre_34);}.cls-8{fill:#2dcccd;}.cls-9{fill:url(#Degradado_sin_nombre_34-2);}.cls-10{fill:url(#Degradado_sin_nombre_34-3);}.cls-11{fill:#f8cd50;}.cls-12{fill:url(#Degradado_sin_nombre_34-4);}.cls-13{fill:url(#Degradado_sin_nombre_33);}.cls-14{fill:#bdbdbd;}.cls-15{fill:#f4f4f4;}</style><linearGradient id="Degradado_sin_nombre_36" x1="266.3" y1="-6988.8" x2="430.94" y2="-7298.44" gradientTransform="matrix(1, 0, 0, -1, 0, -6764)" gradientUnits="userSpaceOnUse"><stop offset="0" stop-color="#1c2645"/><stop offset="0" stop-color="#1c2645" stop-opacity="0.5"/><stop offset="1" stop-color="#1c2645" stop-opacity="0"/></linearGradient><linearGradient id="Degradado_sin_nombre_6" x1="423.12" y1="2598.99" x2="208.92" y2="2598.99" gradientTransform="translate(0 -2278)" gradientUnits="userSpaceOnUse"><stop offset="0" stop-color="#072146" stop-opacity="0.8"/><stop offset="1" stop-color="#072146" stop-opacity="0.1"/></linearGradient><linearGradient id="Degradado_sin_nombre_34" x1="200.93" y1="2573.73" x2="252.09" y2="2600.95" gradientTransform="translate(0 -2278)" gradientUnits="userSpaceOnUse"><stop offset="0" stop-color="#fff" stop-opacity="0.6"/><stop offset="1" stop-color="#fff" stop-opacity="0.2"/></linearGradient><linearGradient id="Degradado_sin_nombre_34-2" x1="100.93" y1="2573.73" x2="152.09" y2="2600.95" xlink:href="#Degradado_sin_nombre_34"/><linearGradient id="Degradado_sin_nombre_34-3" x1="300.93" y1="2573.73" x2="352.09" y2="2600.95" xlink:href="#Degradado_sin_nombre_34"/><linearGradient id="Degradado_sin_nombre_34-4" x1="431.19" y1="2862.39" x2="447.76" y2="2871.2" gradientTransform="translate(0 -2678)" xlink:href="#Degradado_sin_nombre_34"/><linearGradient id="Degradado_sin_nombre_33" x1="463.12" y1="2615.08" x2="433.12" y2="2615.08" gradientTransform="translate(0 -2278)" gradientUnits="userSpaceOnUse"><stop offset="0.01" stop-color="#153260" stop-opacity="0.2"/><stop offset="1" stop-color="#153260" stop-opacity="0"/></linearGradient></defs><g id="Cuadrados_Blancos" data-name="Cuadrados Blancos"><rect class="cls-1" width="600" height="600"/><rect class="cls-1" width="600" height="600"/></g><g id="Capa_25" data-name="Capa 25"><path class="cls-2" d="M530.72,401.81H514.25v-88a3,3,0,0,0-3-3h-7V262.52a20,20,0,0,0,4-37.16h0c-.13-.06-.26-.1-.38-.17-.42-.2-.85-.4-1.29-.57l-.63-.23c-.4-.14-.8-.28-1.22-.4-.26-.08-.52-.14-.79-.2s-.72-.18-1.08-.25-.65-.1-1-.14-.64-.09-1-.12-.73,0-1.1-.05h-.9a6.57,6.57,0,0,0-1,.05c-.32.05-.68,0-1,.08l-.72.11c-.43.06-.85.13-1.27.22l-.37.09c-.52.13-1,.26-1.53.43h-.1c-.58.19-1.15.41-1.7.65h-.05c-.56.25-1.12.52-1.65.82l-.26.16c-.46.26-.91.53-1.35.83l-.52.39-1,.76a8.3,8.3,0,0,0-.63.57c-.21.19-.54.48-.79.74s-.37.4-.55.61-.52.56-.77.86l-.4.54c-.27.36-.53.72-.78,1.1l-.27.43c-.26.44-.52.88-.76,1.33l-.06.12c-.06.1-.09.21-.14.31-.22.45-.43.9-.61,1.36l-.2.53c-.15.42-.3.85-.42,1.28-.07.24-.13.48-.19.72s-.18.75-.25,1.13-.1.63-.15,1-.09.63-.12,1,0,.78-.06,1.16v.8a7.71,7.71,0,0,0,.06,1.18c.06.39,0,.55.06.82a6.75,6.75,0,0,1,.1.69,19.54,19.54,0,0,0,1.23,4.63.51.51,0,0,0,.07.17c.16.41.36.8.55,1.19l.27.57c.16.3.34.58.51.87s.32.54.5.81.29.41.44.62.46.64.71.94.27.31.41.47c.29.33.57.66.88,1l.45.42a11,11,0,0,0,1,.87c.38.28.42.33.64.49s.57.45.88.66.65.41,1,.61.38.25.58.36h0a20.18,20.18,0,0,0,4.71,1.86v48.26h-7a3,3,0,0,0-3,3v17h-10v-22a23,23,0,0,0-23-23h-294a23,23,0,0,0-23,23v124a23,23,0,0,0,23,23h281.2a37.4,37.4,0,0,0,33.32,20.61h59a37.4,37.4,0,0,0,37.29-37.29h0A37.41,37.41,0,0,0,530.72,401.81Z"/><rect class="cls-3" x="83.12" y="235.99" width="340" height="170" rx="23"/><rect class="cls-3" x="423.12" y="280.99" width="10" height="80"/><rect class="cls-4" x="433.12" y="260.99" width="30" height="120" rx="3"/><path class="cls-5" d="M423.12,259V383a23,23,0,0,1-23,23H208.92l90.39-170H400.12A23,23,0,0,1,423.12,259Z"/><rect class="cls-6" x="214.12" y="268.99" width="78" height="104" rx="3"/><path class="cls-7" d="M216.72,269a2.59,2.59,0,0,0-2.6,2.56v98.84a2.58,2.58,0,0,0,2.58,2.6h8.77l55.3-104Z"/><path class="cls-8" d="M253.12,327.74l-6.76,14-8-4.73,8.85-12.67-15.75,1v-8.82l15.85,1.1-8.95-12.76,8-4.73,6.76,14,6.8-14,8.11,4.73-9,12.76,15.75-1.1v8.82l-15.75-1L268,337l-8,4.73Z"/><rect class="cls-6" x="114.12" y="268.99" width="78" height="104" rx="3"/><path class="cls-9" d="M116.72,269a2.59,2.59,0,0,0-2.6,2.56v98.84a2.58,2.58,0,0,0,2.58,2.6h8.77l55.3-104Z"/><polygon class="cls-8" points="174.79 268.99 131.45 268.99 131.45 276.62 147.2 275.61 138.35 288.27 146.36 293.01 153.12 278.95 160.02 293.01 168.03 288.27 159.04 275.61 174.79 276.62 174.79 268.99"/><rect class="cls-6" x="314.12" y="268.99" width="78" height="104" rx="3"/><path class="cls-10" d="M316.72,269a2.59,2.59,0,0,0-2.6,2.56v98.84a2.58,2.58,0,0,0,2.58,2.6h8.77l55.3-104Z"/><polygon class="cls-8" points="331.45 372.99 374.79 372.99 374.79 365.36 359.04 366.37 367.89 353.7 359.88 348.96 353.12 363.01 346.22 348.96 338.21 353.7 347.2 366.37 331.45 365.36 331.45 372.99"/><rect class="cls-3" x="443.12" y="208.71" width="10" height="80" rx="3"/><path class="cls-11" d="M468.12,193.39a20,20,0,1,1-20-20h0a20,20,0,0,1,20,20"/><path class="cls-12" d="M457.17,175.55a20,20,0,0,0-18.76,35.32Z"/><path class="cls-13" d="M433.12,349.59V378a3,3,0,0,0,3,3h24a3,3,0,0,0,3-3V293.16Z"/><path class="cls-14" d="M420.64,352h58.95a37.3,37.3,0,0,1,37.29,37.29h0a37.29,37.29,0,0,1-37.29,37.29H420.64a37.29,37.29,0,0,1-37.29-37.29h0A37.3,37.3,0,0,1,420.64,352Z"/><circle class="cls-15" cx="420.64" cy="389.33" r="25.82"/></g></svg>