<svg xmlns="http://www.w3.org/2000/svg" xmlns:xlink="http://www.w3.org/1999/xlink" viewBox="0 0 600 600"><defs><style>.cls-1{fill:none;}.cls-2{fill:url(#Degradado_sin_nombre_4);}.cls-3{fill:#f8cd50;}.cls-4{fill:#043263;}.cls-5{fill:url(#Degradado_sin_nombre_73);}.cls-6{fill:url(#Degradado_sin_nombre_56);}.cls-7{fill:#2dcccd;}</style><linearGradient id="Degradado_sin_nombre_4" x1="259.62" y1="-3236.35" x2="432.04" y2="-3560.62" gradientTransform="matrix(1, 0, 0, -1, 0, -3044)" gradientUnits="userSpaceOnUse"><stop offset="0" stop-color="#192647" stop-opacity="0.5"/><stop offset="1" stop-color="#192647" stop-opacity="0"/></linearGradient><linearGradient id="Degradado_sin_nombre_73" x1="430" y1="-3421" x2="226.6" y2="-3421" gradientTransform="matrix(1, 0, 0, -1, 0, -3044)" gradientUnits="userSpaceOnUse"><stop offset="0" stop-color="#072146"/><stop offset="1" stop-color="#072146" stop-opacity="0"/></linearGradient><linearGradient id="Degradado_sin_nombre_56" x1="224.29" y1="-3185.28" x2="288.53" y2="-3249.52" gradientTransform="matrix(1, 0, 0, -1, 0, -3044)" gradientUnits="userSpaceOnUse"><stop offset="0" stop-color="#fff" stop-opacity="0.5"/><stop offset="1" stop-color="#ecf7f8" stop-opacity="0"/></linearGradient></defs><title>15</title><g id="Cuadrados_Blancos" data-name="Cuadrados Blancos"><rect class="cls-1" width="600" height="600"/><rect class="cls-1" width="600" height="600"/></g><g id="Capa_1" data-name="Capa 1"><path class="cls-2" d="M473.33,317.82l-.08-.08-.24-.23A23,23,0,0,0,457,311V262a105.12,105.12,0,0,0-62.08-95.78l-.65-.28c-.61-.27-1.23-.54-1.86-.8l-.83-.34-1.72-.69-.91-.34c-.55-.21-1.11-.42-1.68-.62l-.94-.33c-.56-.2-1.13-.39-1.7-.57l-.93-.31c-.59-.19-1.19-.37-1.79-.54l-.86-.26-2-.56-.64-.18c-.91-.23-1.82-.46-2.74-.67h0l-2.67-.58-.84-.16-1.9-.35-1-.17-1.74-.28-1.11-.15-1.7-.22-1.14-.13-1.7-.17-1.15-.11-1.74-.12-1.11-.07c-.64,0-1.28-.06-1.93-.08h-3.82A105.09,105.09,0,0,0,247,262v49h-4a23,23,0,0,0-23,23v79.1a129.91,129.91,0,0,0,114.9,129h0q4.78.55,9.67.75h.71c1.53,0,3.07.09,4.62.09h.2a129.49,129.49,0,0,0,91.34-37.54c.16-.17.33-.33.5-.49l.39-.4A129.25,129.25,0,0,0,480,413.2V334A23,23,0,0,0,473.33,317.82ZM421,311H283.05V262A69,69,0,0,1,352,193h0c1.23,0,2.46,0,3.68.1l.94.08c.91.06,1.82.12,2.72.22l.94.12c.9.11,1.8.22,2.7.37l.79.14c.94.16,1.88.34,2.81.54l.61.14c1,.22,2,.47,3,.73l.41.12c1,.29,2.08.61,3.1.95l.24.08c1.08.36,2.14.75,3.2,1.16h.09c1.09.43,2.18.89,3.25,1.37A69,69,0,0,1,421,262Z"/><path class="cls-3" d="M407,212a105,105,0,0,0-210,0v49h36.05V212a69,69,0,0,1,138,0v49h36Z"/><path class="cls-4" d="M193,261H407a23,23,0,0,1,23,23h0v79.1A129.9,129.9,0,0,1,300.1,493h-.21A129.9,129.9,0,0,1,170,363.1V284a23,23,0,0,1,23-23Z"/><path class="cls-5" d="M407,261H341.27L226.6,470.33A129.48,129.48,0,0,0,300,493h0c71.8,0,130-58.11,130-129.8V284a23,23,0,0,0-23-23Z"/><path class="cls-6" d="M302,107A105.09,105.09,0,0,0,197,212v49h36.05V212a68.91,68.91,0,0,1,97.39-62.76l16.95-31.87A104.45,104.45,0,0,0,302,107Z"/><path class="cls-7" d="M261.52,403.65a5.51,5.51,0,0,1-5-3.26c-5.54-12.29-8.12-22.76-8.12-32.94a50.62,50.62,0,0,1,12.38-33.18,5.53,5.53,0,0,1,8.35,7.24,39.55,39.55,0,0,0-9.67,25.94c0,8.56,2.26,17.59,7.14,28.4a5.53,5.53,0,0,1-5,7.8Z"/><path class="cls-7" d="M344.11,373a5.53,5.53,0,0,1-5.53-5.52A39.64,39.64,0,0,0,299,327.86a39.2,39.2,0,0,0-17.53,4.08,5.52,5.52,0,1,1-4.9-9.9h0A50.16,50.16,0,0,1,299,316.81a50.69,50.69,0,0,1,50.63,50.64,5.52,5.52,0,0,1-5.49,5.55Z"/><path class="cls-7" d="M279.92,413.37h-.15a5.51,5.51,0,0,1-5.38-5.64v0A79.87,79.87,0,0,0,271.61,383a59,59,0,0,1-2.31-15.57,29.77,29.77,0,0,1,12.49-24.21,5.52,5.52,0,0,1,6.41,9,18.73,18.73,0,0,0-7.84,15.21,49,49,0,0,0,2,12.9A91.57,91.57,0,0,1,285.44,408,5.53,5.53,0,0,1,279.92,413.37Z"/><path class="cls-7" d="M322,411.94h-.54a5.51,5.51,0,0,1-5-6h0c1.29-13.46,1.21-27,1.17-35v-3.39A18.58,18.58,0,0,0,301,348.9a5.53,5.53,0,0,1,1.15-11,29.61,29.61,0,0,1,26.6,29.54v3.33a360.65,360.65,0,0,1-1.22,36.16A5.52,5.52,0,0,1,322,411.94Z"/><path class="cls-7" d="M302.33,427.12a5.54,5.54,0,0,1-5.53-5.53v-15a5.53,5.53,0,0,1,11.05,0v15A5.53,5.53,0,0,1,302.33,427.12Z"/><path class="cls-7" d="M302,394.28a5.52,5.52,0,0,1-5.51-5.17,122.66,122.66,0,0,0-2.82-20.28,5.53,5.53,0,0,1,10.7-2.77,130.39,130.39,0,0,1,3.15,22.33,5.53,5.53,0,0,1-5.16,5.88H302Z"/></g></svg>