<svg xmlns="http://www.w3.org/2000/svg" xmlns:xlink="http://www.w3.org/1999/xlink" viewBox="0 0 600 600"><defs><style>.cls-1{fill:none;}.cls-2{fill:url(#Degradado_sin_nombre_67);}.cls-3{fill:#f8cd50;}.cls-4{fill:#043263;}.cls-5{fill:url(#Degradado_sin_nombre_69);}.cls-6{fill:url(#Degradado_sin_nombre_3);}.cls-7{fill:#2dcccd;}.cls-8{fill:#d72544;}.cls-9{fill:#fff;}</style><linearGradient id="Degradado_sin_nombre_67" x1="310.24" y1="-1226.67" x2="310.77" y2="-1227.47" gradientTransform="matrix(321.96, 0, 0, -397.94, -99597.43, -487959.79)" gradientUnits="userSpaceOnUse"><stop offset="0" stop-color="#192647" stop-opacity="0.5"/><stop offset="1" stop-color="#192647" stop-opacity="0"/></linearGradient><linearGradient id="Degradado_sin_nombre_69" x1="310.47" y1="-1230.35" x2="309.47" y2="-1230.35" gradientTransform="matrix(203.4, 0, 0, -232, -62719.8, -285065.19)" gradientUnits="userSpaceOnUse"><stop offset="0" stop-color="#072146"/><stop offset="1" stop-color="#072146" stop-opacity="0"/></linearGradient><linearGradient id="Degradado_sin_nombre_3" x1="309.03" y1="-1234.16" x2="309.62" y2="-1234.46" gradientTransform="matrix(150.39, 0, 0, -154, -46263.29, -189903)" gradientUnits="userSpaceOnUse"><stop offset="0" stop-color="#fff" stop-opacity="0.4"/><stop offset="1" stop-color="#ecf7f8" stop-opacity="0.1"/></linearGradient></defs><title>15</title><g id="Cuadrados_Blancos" data-name="Cuadrados Blancos"><rect class="cls-1" width="600" height="600"/><rect class="cls-1" width="600" height="600"/></g><g id="Capa_3" data-name="Capa 3"><path id="Combined-Shape" class="cls-2" d="M457,274.86V311a23,23,0,0,1,16,6.51l.24.23.08.08A23,23,0,0,1,480,334v79.2a129.25,129.25,0,0,1-37.67,91.31l-.39.4c-.17.16-.34.32-.5.49a129.49,129.49,0,0,1-91.34,37.54h-.2c-1.55,0-3.09,0-4.62-.09h-.71q-4.89-.2-9.67-.75A129.91,129.91,0,0,1,220,413.1V334a23,23,0,0,1,23-23h4V262A105.09,105.09,0,0,1,352.12,157.14h3.82c.65,0,1.29.08,1.93.08l1.11.07,1.74.12,1.15.11,1.7.17,1.14.13,1.7.22,1.11.15,1.74.28,1,.17,1.9.35.84.16,2.67.58c.92.21,1.83.44,2.74.67l.64.18,2,.56.86.26c.6.17,1.2.35,1.79.54l.93.31c.57.18,1.14.37,1.7.57l.94.33c.57.2,1.13.41,1.68.62l.91.34,1.72.69.83.34c.63.26,1.25.53,1.86.8l.65.28a105,105,0,0,1,40.48,32.07l29.54-51.51a3.53,3.53,0,0,1,6.13,0l70.47,122.91a3.56,3.56,0,0,1-.08,3.48,3.53,3.53,0,0,1-3,1.72H457ZM421,311V262a69,69,0,0,0-40.52-62.88c-1.07-.48-2.16-.94-3.25-1.37h-.09c-1.06-.41-2.12-.8-3.2-1.16l-.24-.08c-1-.34-2.1-.66-3.1-.95l-.41-.12c-1-.26-2-.51-3-.73l-.61-.14c-.93-.2-1.87-.38-2.81-.54l-.79-.14c-.9-.15-1.8-.26-2.7-.37l-.94-.12c-.9-.1-1.81-.16-2.72-.22l-.94-.08c-1.22-.1-2.45-.1-3.68-.1a69,69,0,0,0-68.95,69v49Z"/><path id="Path" class="cls-3" d="M407,212a105,105,0,0,0-210,0v49h36.05V212a69,69,0,0,1,138,0v49h36Z"/><path id="Path-2" data-name="Path" class="cls-4" d="M193,261H407a23,23,0,0,1,23,23v79.1A129.9,129.9,0,0,1,300.1,493h-.21A129.9,129.9,0,0,1,170,363.1V284A23,23,0,0,1,193,261Z"/><path id="Path-3" data-name="Path" class="cls-5" d="M407,261H341.27L226.6,470.33A129.48,129.48,0,0,0,300,493c71.8,0,130-58.11,130-129.8V284A23,23,0,0,0,407,261Z"/><path id="Path-4" data-name="Path" class="cls-6" d="M302,107A105.09,105.09,0,0,0,197,212v49h36.05V212a68.9,68.9,0,0,1,97.39-62.76l16.95-31.87A104.45,104.45,0,0,0,302,107Z"/><path id="Path-5" data-name="Path" class="cls-7" d="M261.52,403.65a5.51,5.51,0,0,1-5-3.26c-5.54-12.29-8.12-22.76-8.12-32.94a50.62,50.62,0,0,1,12.38-33.18,5.53,5.53,0,0,1,8.35,7.24,39.55,39.55,0,0,0-9.67,25.94c0,8.56,2.26,17.59,7.14,28.4a5.54,5.54,0,0,1-5,7.8Z"/><path id="Path-6" data-name="Path" class="cls-7" d="M344.11,373a5.53,5.53,0,0,1-5.53-5.52A39.64,39.64,0,0,0,299,327.86a39.2,39.2,0,0,0-17.53,4.08,5.52,5.52,0,0,1-4.9-9.9A50.16,50.16,0,0,1,299,316.81a50.69,50.69,0,0,1,50.63,50.64,5.53,5.53,0,0,1-5.52,5.55Z"/><path id="Path-7" data-name="Path" class="cls-7" d="M279.92,413.37h-.15a5.5,5.5,0,0,1-5.38-5.66A79.87,79.87,0,0,0,271.61,383a59,59,0,0,1-2.31-15.57,29.77,29.77,0,0,1,12.49-24.21,5.52,5.52,0,1,1,6.41,9,18.73,18.73,0,0,0-7.84,15.21,49,49,0,0,0,2,12.9A91.57,91.57,0,0,1,285.44,408,5.53,5.53,0,0,1,279.92,413.37Z"/><path id="Path-8" data-name="Path" class="cls-7" d="M322,411.94h-.54a5.52,5.52,0,0,1-5-6c1.29-13.46,1.21-27,1.17-35v-3.39A18.58,18.58,0,0,0,301,348.9a5.53,5.53,0,0,1,1.15-11,29.61,29.61,0,0,1,26.6,29.54v3.33a360.65,360.65,0,0,1-1.22,36.16A5.52,5.52,0,0,1,322,411.94Z"/><path id="Path-9" data-name="Path" class="cls-7" d="M302.33,427.12a5.54,5.54,0,0,1-5.53-5.53v-15a5.53,5.53,0,0,1,11.05,0v15A5.53,5.53,0,0,1,302.33,427.12Z"/><path id="Path-10" data-name="Path" class="cls-7" d="M302,394.28a5.52,5.52,0,0,1-5.51-5.17,122.66,122.66,0,0,0-2.82-20.28,5.53,5.53,0,0,1,10.7-2.77,130.39,130.39,0,0,1,3.15,22.33,5.51,5.51,0,0,1-1.36,4,5.58,5.58,0,0,1-3.8,1.87Z"/><g id="Alert"><path id="Path-11" data-name="Path" class="cls-8" d="M420.93,107.24,350.46,230.15a3.53,3.53,0,0,0,3.07,5.29H494.47a3.53,3.53,0,0,0,3.07-5.29L427.07,107.24a3.54,3.54,0,0,0-6.14,0Z"/><path id="Path-12" data-name="Path" class="cls-9" d="M423.49,195.47a5.05,5.05,0,0,1-5-5.06V156.13a5,5,0,0,1,10.06,0v34.28a5,5,0,0,1-5.06,5.06Z"/><path id="Path-13" data-name="Path" class="cls-9" d="M423.5,214.39a5.05,5.05,0,0,1-3.56-1.49,4.24,4.24,0,0,1-.63-.77,4.83,4.83,0,0,1-.46-.87,5.46,5.46,0,0,1-.29-.95,5.55,5.55,0,0,1-.09-1,5.07,5.07,0,0,1,1.47-3.57,5,5,0,0,1,7.11,0,5.07,5.07,0,0,1-3.55,8.65Z"/></g></g></svg>