<svg xmlns="http://www.w3.org/2000/svg" xmlns:xlink="http://www.w3.org/1999/xlink" viewBox="0 0 600 600"><defs><style>.cls-1{fill:none;}.cls-2{fill:url(#Degradado_sin_nombre_11);}.cls-3{fill:#043263;}.cls-4{fill:#49a5e6;}.cls-5{fill:url(#Degradado_sin_nombre_6);}.cls-6{fill:#d8ebf9;}.cls-7{fill:url(#Degradado_sin_nombre_34);}.cls-8{fill:#2dcccd;}.cls-9{fill:url(#Degradado_sin_nombre_34-2);}.cls-10{fill:url(#Degradado_sin_nombre_34-3);}.cls-11{fill:#f8cd50;}.cls-12{fill:url(#Degradado_sin_nombre_34-4);}.cls-13{fill:url(#Degradado_sin_nombre_33);}</style><linearGradient id="Degradado_sin_nombre_11" x1="264.25" y1="-4509.37" x2="403.81" y2="-4771.86" gradientTransform="matrix(1, 0, 0, -1, 0, -4284)" gradientUnits="userSpaceOnUse"><stop offset="0" stop-color="#192647"/><stop offset="0" stop-color="#192647" stop-opacity="0.5"/><stop offset="1" stop-color="#192647" stop-opacity="0"/></linearGradient><linearGradient id="Degradado_sin_nombre_6" x1="423.12" y1="2118.73" x2="208.92" y2="2118.73" gradientTransform="translate(0 -1798)" gradientUnits="userSpaceOnUse"><stop offset="0" stop-color="#072146" stop-opacity="0.8"/><stop offset="1" stop-color="#072146" stop-opacity="0.1"/></linearGradient><linearGradient id="Degradado_sin_nombre_34" x1="200.93" y1="2093.47" x2="252.09" y2="2120.69" gradientTransform="translate(0 -1798)" gradientUnits="userSpaceOnUse"><stop offset="0" stop-color="#fff" stop-opacity="0.6"/><stop offset="1" stop-color="#fff" stop-opacity="0.2"/></linearGradient><linearGradient id="Degradado_sin_nombre_34-2" x1="100.93" y1="2093.47" x2="152.09" y2="2120.69" xlink:href="#Degradado_sin_nombre_34"/><linearGradient id="Degradado_sin_nombre_34-3" x1="300.93" y1="2093.47" x2="352.09" y2="2120.69" xlink:href="#Degradado_sin_nombre_34"/><linearGradient id="Degradado_sin_nombre_34-4" x1="431.19" y1="2382.13" x2="447.76" y2="2390.94" gradientTransform="translate(0 -2198)" xlink:href="#Degradado_sin_nombre_34"/><linearGradient id="Degradado_sin_nombre_33" x1="463.12" y1="2134.81" x2="433.12" y2="2134.81" gradientTransform="translate(0 -1798)" gradientUnits="userSpaceOnUse"><stop offset="0.01" stop-color="#153260" stop-opacity="0.2"/><stop offset="1" stop-color="#153260" stop-opacity="0"/></linearGradient></defs><title>15</title><g id="Cuadrados_Blancos" data-name="Cuadrados Blancos"><rect class="cls-1" width="600" height="600"/><rect class="cls-1" width="600" height="600"/></g><g id="Capa_12" data-name="Capa 12"><path class="cls-2" d="M509.17,311.32h-7V263.07a20,20,0,0,0,4.4-37h0l-.24-.11c-.52-.27-1.05-.53-1.6-.75h-.09q-.88-.36-1.8-.63h-.12c-.53-.16-1.07-.28-1.61-.39h-.18a19.33,19.33,0,0,0-3.79-.38,20,20,0,0,0-20,20,19.78,19.78,0,0,0,3.6,11.37l.13.18c.25.36.51.71.79,1.06s.7.83,1.07,1.22l.26.28c.19.19.4.37.6.55a20.22,20.22,0,0,0,3.46,2.58l.62.37.12.06h0a20,20,0,0,0,4.35,1.68v48.26h-7a3,3,0,0,0-3,3v17h-10v-22a22.78,22.78,0,0,0-.73-5.75c-.19-.73-.41-1.45-.67-2.16-.13-.35-.27-.7-.41-1a25.57,25.57,0,0,0-1.52-3,23,23,0,0,0-3.41-4.33,23.42,23.42,0,0,0-2.5-2.17c-.3-.22-.6-.44-.9-.64a20.41,20.41,0,0,0-1.9-1.15,21,21,0,0,0-3.06-1.38,22.92,22.92,0,0,0-7.9-1.4h-294a23,23,0,0,0-23,23v124a23,23,0,0,0,23,23h294a23,23,0,0,0,11-2.78c.65-.35,1.28-.74,1.9-1.15l.9-.64a23.42,23.42,0,0,0,2.5-2.17,23,23,0,0,0,3.41-4.33,25.57,25.57,0,0,0,1.52-3l.41-1c.26-.71.48-1.43.67-2.16a22.78,22.78,0,0,0,.73-5.75v-22h10v17a3,3,0,0,0,3,3h24a3,3,0,0,0,1.67-.51,2.24,2.24,0,0,0,.34-.27,3,3,0,0,0,.75-1.05,3,3,0,0,0,.24-1.17v-114a3,3,0,0,0-2.86-3.14Z"/><rect class="cls-3" x="83.12" y="235.73" width="340" height="170" rx="23"/><rect class="cls-3" x="423.12" y="280.73" width="10" height="80"/><rect class="cls-4" x="433.12" y="260.73" width="30" height="120" rx="3"/><path class="cls-5" d="M423.12,258.73v124a23,23,0,0,1-23,23H208.92l90.39-170H400.12A23,23,0,0,1,423.12,258.73Z"/><rect class="cls-6" x="214.12" y="268.73" width="78" height="104" rx="3"/><path class="cls-7" d="M216.72,268.73a2.59,2.59,0,0,0-2.6,2.56v98.84a2.59,2.59,0,0,0,2.58,2.6h8.77l55.3-104Z"/><path class="cls-8" d="M253.12,327.48l-6.76,14-8-4.73,8.85-12.67-15.75,1v-8.82l15.85,1.1-8.95-12.76,8-4.73,6.76,14,6.8-14L268,304.6l-9,12.76,15.75-1.1v8.82l-15.75-1,9,12.67-8,4.73Z"/><rect class="cls-6" x="114.12" y="268.73" width="78" height="104" rx="3"/><path class="cls-9" d="M116.72,268.73a2.59,2.59,0,0,0-2.6,2.56v98.84a2.59,2.59,0,0,0,2.58,2.6h8.77l55.3-104Z"/><polygon class="cls-8" points="174.79 268.73 131.45 268.73 131.45 276.36 147.2 275.35 138.35 288.01 146.36 292.75 153.12 278.69 160.02 292.75 168.03 288.01 159.04 275.35 174.79 276.36 174.79 268.73"/><rect class="cls-6" x="314.12" y="268.73" width="78" height="104" rx="3"/><path class="cls-10" d="M316.72,268.73a2.59,2.59,0,0,0-2.6,2.56v98.84a2.59,2.59,0,0,0,2.58,2.6h8.77l55.3-104Z"/><polygon class="cls-8" points="331.45 372.73 374.79 372.73 374.79 365.1 359.04 366.11 367.89 353.44 359.88 348.7 353.12 362.75 346.22 348.7 338.21 353.44 347.2 366.11 331.45 365.1 331.45 372.73"/><rect class="cls-3" x="443.12" y="208.45" width="10" height="80" rx="3"/><path class="cls-11" d="M468.12,193.13a20,20,0,1,1-20-20h0a20,20,0,0,1,20,20"/><path class="cls-12" d="M457.17,175.29a20,20,0,0,0-18.76,35.32Z"/><path class="cls-13" d="M433.12,349.33v28.4a3,3,0,0,0,3,3h24a3,3,0,0,0,3-3V292.9Z"/></g></svg>