<svg id="e03eed19-b466-47ec-8c62-1351330ca6f1" data-name="Capa 1" xmlns="http://www.w3.org/2000/svg" xmlns:xlink="http://www.w3.org/1999/xlink" viewBox="0 0 600 600"><defs><style>.a3d04027-cf78-4ccf-979b-2690f890f083,.a944fce7-ed86-4eca-a07d-7095bbeeddf8,.ac166461-24de-4200-a3f1-bde3ef47cc15,.ad80b4e1-0e31-487d-90bc-198e642452b8,.afb81d8b-4594-4f71-80dd-0284587c4bc5,.bd8d37e0-063f-410b-9e10-7a27ab340676,.bfb9187d-8f7f-4cdc-ad84-21ce442f5a1a{opacity:0.8;}.bd8d37e0-063f-410b-9e10-7a27ab340676{fill:url(#f305feac-56a9-45a5-bf5b-7f2ca64794bb);}.b781c6a5-213d-4340-b11f-dda8dbd1b865{fill:#1973b8;}.ff6d2f97-5acd-4d81-a40f-56833b6fbbad{fill:url(#f14aab26-a56e-4f3d-a324-87da9effab12);}.ad0daff2-3dcc-46cc-b7a5-e47c7a9f58ec{fill:#1464a5;}.b920e53f-eae5-4b64-a5ae-2b65852927f0{fill:#004481;}.f9e38ad5-5bab-4984-8d3b-32b8b93a059d{fill:#043263;}.ac166461-24de-4200-a3f1-bde3ef47cc15{fill:url(#b67ec1a3-9aa7-4597-8a9f-4569ef18c970);}.a3d04027-cf78-4ccf-979b-2690f890f083{fill:url(#a86b0af9-446d-4aa3-b072-70f44b36947b);}.bfb9187d-8f7f-4cdc-ad84-21ce442f5a1a{fill:url(#b6ae2140-b0b7-45f7-bbc8-12d6d065ec99);}.ad80b4e1-0e31-487d-90bc-198e642452b8{fill:url(#efb735ae-5574-46b6-97f9-b035004d9d31);}.a944fce7-ed86-4eca-a07d-7095bbeeddf8{fill:url(#aeb85d3e-10d5-44ad-88ee-c51b4ca86fa6);}.afb81d8b-4594-4f71-80dd-0284587c4bc5{fill:url(#aff449cc-d924-44cb-86ff-6fbd82b90660);}.f11217fc-f083-4dd0-9457-9c33d8b812bd{fill:#f6da8a;}.bf80da7d-771c-45a3-a174-e846d01fa07c{fill:#f4c950;}.b0ab4e51-6091-4582-8050-743762985683{fill:url(#f000b905-202f-433e-bd21-21b393e69ead);}.b1bb1467-67b7-444c-85d3-5baa0337c286{fill:none;}</style><linearGradient id="f305feac-56a9-45a5-bf5b-7f2ca64794bb" x1="262.08" y1="177.69" x2="454.17" y2="538.96" gradientUnits="userSpaceOnUse"><stop offset="0" stop-color="#072146" stop-opacity="0.5"/><stop offset="1" stop-color="#072146" stop-opacity="0"/></linearGradient><linearGradient id="f14aab26-a56e-4f3d-a324-87da9effab12" x1="320.54" y1="460.39" x2="269.52" y2="460.39" gradientUnits="userSpaceOnUse"><stop offset="0" stop-color="#043263" stop-opacity="0.5"/><stop offset="1" stop-color="#043263" stop-opacity="0"/></linearGradient><linearGradient id="b67ec1a3-9aa7-4597-8a9f-4569ef18c970" x1="2504.33" y1="-246.73" x2="2571.99" y2="-246.73" gradientTransform="translate(2727.81 10.16) rotate(180)" gradientUnits="userSpaceOnUse"><stop offset="0" stop-color="#004481" stop-opacity="0.5"/><stop offset="1" stop-color="#004481" stop-opacity="0"/></linearGradient><linearGradient id="a86b0af9-446d-4aa3-b072-70f44b36947b" x1="2614.99" y1="-246.73" x2="2673.99" y2="-246.73" gradientTransform="translate(3025.48 10.16) rotate(180)" xlink:href="#b67ec1a3-9aa7-4597-8a9f-4569ef18c970"/><linearGradient id="b6ae2140-b0b7-45f7-bbc8-12d6d065ec99" x1="2604.3" y1="-341.36" x2="2668.96" y2="-341.36" gradientTransform="translate(3025.48 10.16) rotate(180)" xlink:href="#b67ec1a3-9aa7-4597-8a9f-4569ef18c970"/><linearGradient id="efb735ae-5574-46b6-97f9-b035004d9d31" x1="2549.66" y1="-186.32" x2="2600.27" y2="-186.32" gradientTransform="translate(2869.25 165.33) rotate(180)" xlink:href="#b67ec1a3-9aa7-4597-8a9f-4569ef18c970"/><linearGradient id="aeb85d3e-10d5-44ad-88ee-c51b4ca86fa6" x1="2553.66" y1="-91.56" x2="2604.27" y2="-91.56" gradientTransform="translate(2869.25 165.33) rotate(180)" xlink:href="#b67ec1a3-9aa7-4597-8a9f-4569ef18c970"/><linearGradient id="aff449cc-d924-44cb-86ff-6fbd82b90660" x1="2508.27" y1="-341.62" x2="2581.67" y2="-341.62" xlink:href="#b67ec1a3-9aa7-4597-8a9f-4569ef18c970"/><linearGradient id="f000b905-202f-433e-bd21-21b393e69ead" x1="348.56" y1="496.22" x2="418.43" y2="459.07" gradientTransform="matrix(1, 0, 0, -1, 0, 601)" gradientUnits="userSpaceOnUse"><stop offset="0" stop-color="#fff" stop-opacity="0.6"/><stop offset="1" stop-color="#fff" stop-opacity="0.2"/></linearGradient></defs><path class="bd8d37e0-063f-410b-9e10-7a27ab340676" d="M498.46,262.24a79,79,0,0,0,50.83-74.1v0a79.13,79.13,0,0,0-41.15-69.63h0c-.91-.5-1.83-1-2.75-1.42l-.53-.25c-1-.49-2-1-3-1.39l-.13-.06c-1-.44-2.05-.84-3.08-1.24l-.79-.29q-1.53-.56-3.06-1l-.63-.19c-.93-.29-1.86-.55-2.79-.8l-.68-.19c-1.07-.27-2.15-.52-3.23-.75l-.7-.14q-3.51-.72-7.08-1.09l-.42-.05c-1.2-.12-2.41-.21-3.62-.28l-.43,0c-1.24,0-2.49-.09-3.74-.09a76.08,76.08,0,0,0-30.22,6.22,77.38,77.38,0,0,0-13.2,7.29q-3.11,2.13-6,4.55a77.86,77.86,0,0,0-8.1,7.84,79.36,79.36,0,0,0-20.22,53.06v0q0,1.69.09,3.39c0,.48.05,1,.08,1.44,0,.64.08,1.27.14,1.9.1,1.16.22,2.31.37,3.46,0,.27.06.53.1.8.11.8.24,1.6.37,2.4,0,.14.05.27.07.4a79.36,79.36,0,0,0,4.22,15.1l.08.21c.86,2.18,1.8,4.31,2.84,6.38l.64,1.28c.17.31.32.63.49.94H173.74a9.19,9.19,0,0,0-9.05,8L132.4,479.73a9.21,9.21,0,0,0,9,10.49H284.82v46H252.57v27.91H406.86V536.2H374.6v-46H518a9.21,9.21,0,0,0,9-10.49Z"/><rect class="b781c6a5-213d-4340-b11f-dda8dbd1b865" x="230.76" y="443.52" width="89.78" height="58.21"/><polygon class="ff6d2f97-5acd-4d81-a40f-56833b6fbbad" points="320.54 489.5 269.52 489.5 299.16 431.29 320.54 431.29 320.54 489.5"/><rect class="ad0daff2-3dcc-46cc-b7a5-e47c7a9f58ec" x="198.5" y="489.5" width="154.3" height="27.91"/><path class="ad0daff2-3dcc-46cc-b7a5-e47c7a9f58ec" d="M440.67,187.2a9.16,9.16,0,0,0-9.05-8H119.68a9.18,9.18,0,0,0-9.05,8L78.33,433a9.22,9.22,0,0,0,9,10.49H463.92A9.22,9.22,0,0,0,473,433Z"/><path class="b920e53f-eae5-4b64-a5ae-2b65852927f0" d="M106.94,416.18a3.81,3.81,0,0,0,3.74,4.34h330a3.81,3.81,0,0,0,3.73-4.34L415.79,203.25a3.77,3.77,0,0,0-3.73-3.31H139.24a3.78,3.78,0,0,0-3.73,3.31"/><polygon class="f9e38ad5-5bab-4984-8d3b-32b8b93a059d" points="220.63 296.87 137.25 296.87 144.74 216.91 223.49 216.91 220.63 296.87"/><polygon class="ac166461-24de-4200-a3f1-bde3ef47cc15" points="204.05 216.91 223.49 216.91 220.63 296.87 155.82 296.87 204.05 216.91"/><polygon class="f9e38ad5-5bab-4984-8d3b-32b8b93a059d" points="327.12 296.87 410.5 296.87 403.01 216.91 324.25 216.91 327.12 296.87"/><polygon class="f9e38ad5-5bab-4984-8d3b-32b8b93a059d" points="315.59 296.87 233.08 296.87 235.07 216.91 313.82 216.91 315.59 296.87"/><polygon class="f9e38ad5-5bab-4984-8d3b-32b8b93a059d" points="216.46 394.62 126.56 394.62 134.64 308.41 219.55 308.41 216.46 394.62"/><polygon class="f9e38ad5-5bab-4984-8d3b-32b8b93a059d" points="331.28 394.62 421.18 394.62 413.11 308.41 328.19 308.41 331.28 394.62"/><polygon class="f9e38ad5-5bab-4984-8d3b-32b8b93a059d" points="318.85 394.62 229.89 394.62 232.04 308.41 316.95 308.41 318.85 394.62"/><polygon class="a3d04027-cf78-4ccf-979b-2690f890f083" points="383.81 216.91 403.09 216.91 410.5 296.87 351.49 296.87 383.81 216.91"/><polygon class="bfb9187d-8f7f-4cdc-ad84-21ce442f5a1a" points="391.37 308.41 413.11 308.41 421.18 394.62 356.52 394.62 391.37 308.41"/><polygon class="ad80b4e1-0e31-487d-90bc-198e642452b8" points="308.98 308.41 316.93 308.41 319.59 394.88 268.98 394.88 308.98 308.41"/><polygon class="a944fce7-ed86-4eca-a07d-7095bbeeddf8" points="306.4 216.91 313.76 216.91 315.59 296.87 264.98 296.87 306.4 216.91"/><polygon class="afb81d8b-4594-4f71-80dd-0284587c4bc5" points="198.46 308.41 219.55 308.41 216.45 395.14 146.15 395.14 198.46 308.41"/><path class="f11217fc-f083-4dd0-9457-9c33d8b812bd" d="M316.72,169.12a106.85,106.85,0,0,1-3.47-33,2.81,2.81,0,0,1,2.93-2.69h.08l4.92.37a2.81,2.81,0,0,1,2.56,3,96.28,96.28,0,0,0,3.09,29.42,2.83,2.83,0,0,1-1.88,3.44l-4.73,1.5a2.78,2.78,0,0,1-3.47-1.9Z"/><path class="f11217fc-f083-4dd0-9457-9c33d8b812bd" d="M511.16,146.12c2.45-50.31-34.39-94-83.71-99.39a2.83,2.83,0,0,1-2.5-3l.37-5a2.81,2.81,0,0,1,3-2.61h.07c55,5.89,96,54.63,93.22,110.68a2.81,2.81,0,0,1-2.93,2.68h-.08l-4.9-.42A2.81,2.81,0,0,1,511.16,146.12Z"/><path class="f11217fc-f083-4dd0-9457-9c33d8b812bd" d="M341.08,81.43l-3.9-3.06a2.86,2.86,0,0,1-.5-4l.05-.07A104.16,104.16,0,0,1,394.93,38a2.79,2.79,0,0,1,3.33,2.16s0,.05,0,.08l.93,4.91a2.83,2.83,0,0,1-2.13,3.3A93.62,93.62,0,0,0,344.93,81,2.75,2.75,0,0,1,341.08,81.43Z"/><path class="f11217fc-f083-4dd0-9457-9c33d8b812bd" d="M467.61,231.05l-2.44-4.35a2.85,2.85,0,0,1,1-3.84A94.38,94.38,0,0,0,500.91,185a2.77,2.77,0,0,1,3.68-1.26l4.45,2.16a2.85,2.85,0,0,1,1.32,3.77.3.3,0,0,1,0,.08,104.94,104.94,0,0,1-38.85,42.37,2.76,2.76,0,0,1-3.83-1Z"/><path class="bf80da7d-771c-45a3-a174-e846d01fa07c" d="M495.22,141.44c0,43.59-34.78,78.94-77.71,79s-77.84-35.43-77.84-79,34.87-79,77.72-79h0c43,0,77.81,35.31,77.83,78.93v0"/><path class="b0ab4e51-6091-4582-8050-743762985683" d="M417.39,62.48c-42.85,0-77.72,35.42-77.72,79a79.26,79.26,0,0,0,41.82,70l72.6-139.64A76.51,76.51,0,0,0,417.39,62.48Z"/><rect class="b1bb1467-67b7-444c-85d3-5baa0337c286" width="600" height="600"/></svg>