<svg id="b6d5bf6d-e1a2-4023-b6d4-7b9165449e4d" data-name="Capa 1" xmlns="http://www.w3.org/2000/svg" xmlns:xlink="http://www.w3.org/1999/xlink" viewBox="0 0 600 600"><defs><style>.a1aacd4a-2a4a-4db6-afc7-010854efea60,.a7bc3dc5-f573-488e-b3f9-6f1ae0408aa6,.bc75d797-4d36-4659-a621-1049c1531382,.bd56f763-f45f-44a0-a7cc-f4029f79e73e,.e2120bc2-1c75-41a3-b96f-56ad84874db2,.ec8fe632-b61d-49f6-98f1-2557dc22c54c,.ee921f54-61a9-4975-bf39-4f76009b3a09{opacity:0.8;}.bd56f763-f45f-44a0-a7cc-f4029f79e73e{fill:url(#aa9977bb-9bad-45ea-ac0d-2e03d23bc5de);}.f6ca30d5-6db5-4cff-84f9-5e6ebe7ac3f8{fill:#004481;}.b0e64fda-aca8-493b-a66e-52366d2c7f58{fill:url(#f562d6e3-f494-4b48-8b11-07c3a9f82941);}.bb2453f1-f409-4818-923e-41b553c8f85d{fill:#043263;}.f0588f65-0b7a-4192-a6e1-4117f9009624{fill:#072146;}.e2120bc2-1c75-41a3-b96f-56ad84874db2{fill:url(#f2bab711-6a0d-4439-b488-8769fce0b064);}.ec8fe632-b61d-49f6-98f1-2557dc22c54c{fill:url(#af8d2467-649e-46de-b3d9-f44b13a89d5d);}.a1aacd4a-2a4a-4db6-afc7-010854efea60{fill:url(#b34d2318-e63f-459c-b1cd-10cfaff07925);}.ee921f54-61a9-4975-bf39-4f76009b3a09{fill:url(#e3f6d662-5a3e-46c3-bc95-3463109070bd);}.a7bc3dc5-f573-488e-b3f9-6f1ae0408aa6{fill:url(#afd66593-0817-426f-ae0f-b10c90b9f311);}.bc75d797-4d36-4659-a621-1049c1531382{fill:url(#a3a84777-4579-47c8-aa47-7f63e149777c);}.aa045da1-54b2-4390-81a4-7ecea227b7ec{fill:#f6da8a;}.f91047b5-10be-4a75-879d-6eed1e3b6bcc{fill:#f4c950;}.b17bd45e-b3e9-4186-8266-263b0b7d1641{fill:url(#b9b22064-e06b-400b-bf3c-1c21da2dfe05);}.bbe0d83b-c489-4278-9349-14787f5ef895{fill:none;}</style><linearGradient id="aa9977bb-9bad-45ea-ac0d-2e03d23bc5de" x1="262.08" y1="177.69" x2="454.17" y2="538.96" gradientUnits="userSpaceOnUse"><stop offset="0" stop-color="#072146" stop-opacity="0.5"/><stop offset="1" stop-color="#072146" stop-opacity="0"/></linearGradient><linearGradient id="f562d6e3-f494-4b48-8b11-07c3a9f82941" x1="320.54" y1="460.39" x2="269.52" y2="460.39" xlink:href="#aa9977bb-9bad-45ea-ac0d-2e03d23bc5de"/><linearGradient id="f2bab711-6a0d-4439-b488-8769fce0b064" x1="1190" y1="-246.73" x2="1257.67" y2="-246.73" gradientTransform="translate(1413.49 10.16) rotate(180)" gradientUnits="userSpaceOnUse"><stop offset="0" stop-color="#004481" stop-opacity="0.5"/><stop offset="1" stop-color="#004481" stop-opacity="0"/></linearGradient><linearGradient id="af8d2467-649e-46de-b3d9-f44b13a89d5d" x1="1300.66" y1="-246.73" x2="1359.67" y2="-246.73" gradientTransform="translate(1711.16 10.16) rotate(180)" xlink:href="#f2bab711-6a0d-4439-b488-8769fce0b064"/><linearGradient id="b34d2318-e63f-459c-b1cd-10cfaff07925" x1="1289.98" y1="-341.36" x2="1354.64" y2="-341.36" gradientTransform="translate(1711.16 10.16) rotate(180)" xlink:href="#f2bab711-6a0d-4439-b488-8769fce0b064"/><linearGradient id="e3f6d662-5a3e-46c3-bc95-3463109070bd" x1="1235.34" y1="-186.32" x2="1285.95" y2="-186.32" gradientTransform="translate(1554.93 165.33) rotate(180)" xlink:href="#f2bab711-6a0d-4439-b488-8769fce0b064"/><linearGradient id="afd66593-0817-426f-ae0f-b10c90b9f311" x1="1239.34" y1="-91.56" x2="1289.95" y2="-91.56" gradientTransform="translate(1554.93 165.33) rotate(180)" xlink:href="#f2bab711-6a0d-4439-b488-8769fce0b064"/><linearGradient id="a3a84777-4579-47c8-aa47-7f63e149777c" x1="1193.95" y1="-341.62" x2="1267.35" y2="-341.62" xlink:href="#f2bab711-6a0d-4439-b488-8769fce0b064"/><linearGradient id="b9b22064-e06b-400b-bf3c-1c21da2dfe05" x1="348.56" y1="496.22" x2="418.43" y2="459.07" gradientTransform="matrix(1, 0, 0, -1, 0, 601)" gradientUnits="userSpaceOnUse"><stop offset="0" stop-color="#fff" stop-opacity="0.6"/><stop offset="1" stop-color="#fff" stop-opacity="0.2"/></linearGradient></defs><path class="bd56f763-f45f-44a0-a7cc-f4029f79e73e" d="M498.46,262.24a79,79,0,0,0,50.83-74.1v0a79.13,79.13,0,0,0-41.15-69.63h0c-.91-.5-1.83-1-2.75-1.42l-.53-.25c-1-.49-2-1-3-1.39l-.13-.06c-1-.44-2.05-.84-3.08-1.24l-.79-.29q-1.53-.56-3.06-1l-.63-.19c-.93-.29-1.86-.55-2.79-.8l-.68-.19c-1.07-.27-2.15-.52-3.23-.75l-.7-.14q-3.51-.72-7.08-1.09l-.42-.05c-1.2-.12-2.41-.21-3.62-.28l-.43,0c-1.24,0-2.49-.09-3.74-.09a76.08,76.08,0,0,0-30.22,6.22,77.38,77.38,0,0,0-13.2,7.29q-3.11,2.13-6,4.55a77.86,77.86,0,0,0-8.1,7.84,79.36,79.36,0,0,0-20.22,53.06v0q0,1.69.09,3.39c0,.48.05,1,.08,1.44,0,.64.08,1.27.14,1.9.1,1.16.22,2.31.37,3.46,0,.27.06.53.1.8.11.8.24,1.6.37,2.4,0,.14.05.27.07.4a79.36,79.36,0,0,0,4.22,15.1l.08.21c.86,2.18,1.8,4.31,2.84,6.38l.64,1.28c.17.31.32.63.49.94H173.74a9.19,9.19,0,0,0-9.05,8L132.4,479.73a9.21,9.21,0,0,0,9,10.49H284.82v46H252.57v27.91H406.86V536.2H374.6v-46H518a9.21,9.21,0,0,0,9-10.49Z"/><rect class="f6ca30d5-6db5-4cff-84f9-5e6ebe7ac3f8" x="230.76" y="443.52" width="89.78" height="58.21"/><polygon class="b0e64fda-aca8-493b-a66e-52366d2c7f58" points="320.54 489.5 269.52 489.5 299.16 431.29 320.54 431.29 320.54 489.5"/><rect class="bb2453f1-f409-4818-923e-41b553c8f85d" x="198.5" y="489.5" width="154.3" height="27.91"/><path class="bb2453f1-f409-4818-923e-41b553c8f85d" d="M440.67,187.2a9.16,9.16,0,0,0-9.05-8H119.68a9.18,9.18,0,0,0-9.05,8L78.33,433a9.22,9.22,0,0,0,9,10.49H463.92A9.22,9.22,0,0,0,473,433Z"/><path class="f0588f65-0b7a-4192-a6e1-4117f9009624" d="M106.94,416.18a3.81,3.81,0,0,0,3.74,4.34h330a3.81,3.81,0,0,0,3.73-4.34L415.79,203.25a3.77,3.77,0,0,0-3.73-3.31H139.24a3.78,3.78,0,0,0-3.73,3.31"/><polygon class="bb2453f1-f409-4818-923e-41b553c8f85d" points="220.63 296.87 137.25 296.87 144.74 216.91 223.49 216.91 220.63 296.87"/><polygon class="e2120bc2-1c75-41a3-b96f-56ad84874db2" points="204.05 216.91 223.49 216.91 220.63 296.87 155.82 296.87 204.05 216.91"/><polygon class="bb2453f1-f409-4818-923e-41b553c8f85d" points="327.12 296.87 410.5 296.87 403.01 216.91 324.25 216.91 327.12 296.87"/><polygon class="bb2453f1-f409-4818-923e-41b553c8f85d" points="315.59 296.87 233.08 296.87 235.07 216.91 313.82 216.91 315.59 296.87"/><polygon class="bb2453f1-f409-4818-923e-41b553c8f85d" points="216.46 394.62 126.56 394.62 134.64 308.41 219.55 308.41 216.46 394.62"/><polygon class="bb2453f1-f409-4818-923e-41b553c8f85d" points="331.28 394.62 421.18 394.62 413.11 308.41 328.19 308.41 331.28 394.62"/><polygon class="bb2453f1-f409-4818-923e-41b553c8f85d" points="318.85 394.62 229.89 394.62 232.04 308.41 316.95 308.41 318.85 394.62"/><polygon class="ec8fe632-b61d-49f6-98f1-2557dc22c54c" points="383.81 216.91 403.09 216.91 410.5 296.87 351.49 296.87 383.81 216.91"/><polygon class="a1aacd4a-2a4a-4db6-afc7-010854efea60" points="391.37 308.41 413.11 308.41 421.18 394.62 356.52 394.62 391.37 308.41"/><polygon class="ee921f54-61a9-4975-bf39-4f76009b3a09" points="308.98 308.41 316.93 308.41 319.59 394.88 268.98 394.88 308.98 308.41"/><polygon class="a7bc3dc5-f573-488e-b3f9-6f1ae0408aa6" points="306.4 216.91 313.76 216.91 315.59 296.87 264.98 296.87 306.4 216.91"/><polygon class="bc75d797-4d36-4659-a621-1049c1531382" points="198.46 308.41 219.55 308.41 216.45 395.14 146.15 395.14 198.46 308.41"/><path class="aa045da1-54b2-4390-81a4-7ecea227b7ec" d="M316.72,169.12a106.85,106.85,0,0,1-3.47-33,2.81,2.81,0,0,1,2.93-2.69h.08l4.92.37a2.81,2.81,0,0,1,2.56,3,96.28,96.28,0,0,0,3.09,29.42,2.83,2.83,0,0,1-1.88,3.44l-4.73,1.5a2.78,2.78,0,0,1-3.47-1.9Z"/><path class="aa045da1-54b2-4390-81a4-7ecea227b7ec" d="M511.16,146.12c2.45-50.31-34.39-94-83.71-99.39a2.83,2.83,0,0,1-2.5-3l.37-5a2.81,2.81,0,0,1,3-2.61h.07c55,5.89,96,54.63,93.22,110.68a2.81,2.81,0,0,1-2.93,2.68h-.08l-4.9-.42A2.81,2.81,0,0,1,511.16,146.12Z"/><path class="aa045da1-54b2-4390-81a4-7ecea227b7ec" d="M341.08,81.43l-3.9-3.06a2.86,2.86,0,0,1-.5-4l.05-.07A104.16,104.16,0,0,1,394.93,38a2.79,2.79,0,0,1,3.33,2.16s0,.05,0,.08l.93,4.91a2.83,2.83,0,0,1-2.13,3.3A93.62,93.62,0,0,0,344.93,81,2.75,2.75,0,0,1,341.08,81.43Z"/><path class="aa045da1-54b2-4390-81a4-7ecea227b7ec" d="M467.61,231.05l-2.44-4.35a2.85,2.85,0,0,1,1-3.84A94.38,94.38,0,0,0,500.91,185a2.77,2.77,0,0,1,3.68-1.26l4.45,2.16a2.85,2.85,0,0,1,1.32,3.77.3.3,0,0,1,0,.08,104.94,104.94,0,0,1-38.85,42.37,2.76,2.76,0,0,1-3.83-1Z"/><path class="f91047b5-10be-4a75-879d-6eed1e3b6bcc" d="M495.22,141.44c0,43.59-34.78,78.94-77.71,79s-77.84-35.43-77.84-79,34.87-79,77.72-79h0c43,0,77.81,35.31,77.83,78.93v0"/><path class="b17bd45e-b3e9-4186-8266-263b0b7d1641" d="M417.39,62.48c-42.85,0-77.72,35.42-77.72,79a79.26,79.26,0,0,0,41.82,70l72.6-139.64A76.51,76.51,0,0,0,417.39,62.48Z"/><rect class="bbe0d83b-c489-4278-9349-14787f5ef895" width="600" height="600"/></svg>