<svg id="Contenido" xmlns="http://www.w3.org/2000/svg" xmlns:xlink="http://www.w3.org/1999/xlink" viewBox="0 0 600 600"><defs><style>.cls-1{fill:url(#Degradado_sin_nombre_74);}.cls-2{fill:#043263;}.cls-3{fill:#f8cd51;}.cls-4{fill:url(#Degradado_sin_nombre_26);}.cls-5{fill:none;}.cls-6{fill:url(#Degradado_sin_nombre_2);}.cls-7{fill:#49a5e6;}.cls-8{fill:#2dcccd;}.cls-9{fill:#028484;}.cls-10{fill:#004481;}.cls-11{fill:#1464a5;}.cls-12{fill:url(#Degradado_sin_nombre_13);}.cls-13{fill:#d4edfc;}.cls-14{fill:url(#Degradado_sin_nombre_7);}.cls-15{fill:url(#Degradado_sin_nombre_6);}.cls-16{fill:url(#Degradado_sin_nombre_6-2);}</style><linearGradient id="Degradado_sin_nombre_74" x1="230.27" y1="216.98" x2="429.58" y2="591.82" gradientUnits="userSpaceOnUse"><stop offset="0" stop-color="#082146" stop-opacity="0.5"/><stop offset="1" stop-color="#082146" stop-opacity="0"/></linearGradient><linearGradient id="Degradado_sin_nombre_26" x1="205.38" y1="112.89" x2="234.3" y2="141.81" gradientUnits="userSpaceOnUse"><stop offset="0" stop-color="#fff" stop-opacity="0.6"/><stop offset="0.85" stop-color="#fff" stop-opacity="0.2"/></linearGradient><linearGradient id="Degradado_sin_nombre_2" x1="191.42" y1="-2108.35" x2="237.63" y2="-2062.15" gradientTransform="translate(0 2200.72)" gradientUnits="userSpaceOnUse"><stop offset="0" stop-color="#fff" stop-opacity="0.6"/><stop offset="1" stop-color="#fff" stop-opacity="0.2"/></linearGradient><linearGradient id="Degradado_sin_nombre_13" x1="181.01" y1="273.04" x2="311.48" y2="273.04" gradientUnits="userSpaceOnUse"><stop offset="0" stop-color="#043263" stop-opacity="0"/><stop offset="1" stop-color="#043263" stop-opacity="0.2"/></linearGradient><linearGradient id="Degradado_sin_nombre_7" x1="285.34" y1="404.53" x2="519.94" y2="404.53" gradientUnits="userSpaceOnUse"><stop offset="0" stop-color="#028484" stop-opacity="0.1"/><stop offset="1" stop-color="#028484" stop-opacity="0.6"/></linearGradient><linearGradient id="Degradado_sin_nombre_6" x1="396.97" y1="267.16" x2="494.41" y2="267.16" gradientUnits="userSpaceOnUse"><stop offset="0" stop-color="#043263" stop-opacity="0"/><stop offset="1" stop-color="#043263" stop-opacity="0.6"/></linearGradient><linearGradient id="Degradado_sin_nombre_6-2" x1="370.22" y1="197.87" x2="448.82" y2="197.87" xlink:href="#Degradado_sin_nombre_6"/></defs><path class="cls-1" d="M568.56,468.26H495.05A42.53,42.53,0,0,0,535.9,414h0a42.49,42.49,0,0,0-33.69-30.25h12.92c23.37,0,40.24-22,33.82-44.17h0a35.1,35.1,0,0,0-33.82-25.12h-45.3a35.35,35.35,0,0,0,4.27-.26,34.66,34.66,0,0,0,29.28-43.91h0a34.61,34.61,0,0,0-14.82-19.71A34.62,34.62,0,0,0,481,247a37.37,37.37,0,0,0-11.21-1.84H419.3a34.86,34.86,0,0,0-33.55,25.13h0c-6.36,22.13,10.37,44.17,33.55,44.17h8.19a35.09,35.09,0,0,0-33.82,25.12h0c-5.8,20,7.4,39.88,27.22,43.56H367.4V257.83a12.15,12.15,0,0,0,6.31-15.21,12.44,12.44,0,0,0-15.25-7.35L286,256.65v-8.87c13.06-1.79,3.27-55.13,2.94-55.41-.05,0-2.1-2-2.13-2-.23-.25-31.35,3.3-31.35,30.76,0,.57,0,1.13.05,1.7,0,.15,0,.31,0,.47,0,.43.07.86.13,1.29,0,.14,0,.28.05.41.08.55.17,1.09.28,1.63a2,2,0,0,1,.05.24c.1.46.21.92.34,1.37l.12.44c.13.43.26.86.41,1.29l.09.27c.18.52.38,1,.59,1.52l.14.29c.18.41.37.81.56,1.21l.19.35c.24.47.5.94.77,1.39h0c.28.48.58.94.89,1.39l.19.27c.26.37.53.73.81,1.09l.19.24a25.48,25.48,0,0,0,2.21,2.43l.22.21c.35.34.72.67,1.09,1a.69.69,0,0,0,.13.11q.64.56,1.32,1.05l.09.06c.41.31.83.6,1.26.88l.25.16a26.77,26.77,0,0,0,10.77,3.93v11l-77.11,22.74A15.08,15.08,0,0,0,190.77,296v67.54a12.72,12.72,0,0,0,6.44,11.09v93.63H133.36a7.3,7.3,0,0,0-7.3,7.3v21.88a7.29,7.29,0,0,0,7.3,7.29h29.17v24.32a7.29,7.29,0,0,0,7.3,7.29h48.48a7.28,7.28,0,0,0,6.8-4.67l10.36-26.94h231l10.35,26.94a7.31,7.31,0,0,0,6.81,4.67h48.48a7.29,7.29,0,0,0,7.3-7.29V504.73h29.17a7.29,7.29,0,0,0,7.3-7.29V475.56A7.3,7.3,0,0,0,568.56,468.26Z"/><rect class="cls-2" x="222.76" y="156.63" width="7.29" height="24.31"/><path id="_Trazado_de_recorte_compuesto_2" data-name=" Trazado de recorte compuesto 2" class="cls-3" d="M244.64,119.13h0c-4.55-4.62-15-8.91-16-14.88a5.41,5.41,0,0,0-.17-1.14c-.06-.76-.1-1.55-.1-2.36a30.87,30.87,0,0,1,.81-7,.56.56,0,0,0-.41-.67.62.62,0,0,0-.33,0c-4.45,1.86-28.93,17.66-28.93,46a26.87,26.87,0,1,0,53.73.16v-.16A28.82,28.82,0,0,0,244.64,119.13Zm-33.28-6.63c0-.23.06-.34.07-.26h0Z"/><path class="cls-4" d="M228.65,104.25a5.41,5.41,0,0,0-.17-1.14c-.06-.76-.1-1.55-.1-2.36a30.87,30.87,0,0,1,.81-7,.56.56,0,0,0-.41-.67.62.62,0,0,0-.33,0c-4.45,1.86-28.93,17.66-28.93,46a26.86,26.86,0,0,0,13.87,23.6l25.53-48C234.35,111.57,229.34,108.29,228.65,104.25Zm-17.29,8.25c0-.23.06-.34.07-.26Z"/><path class="cls-5" d="M211.36,112.5c0-.23.06-.34.07-.26h0Z"/><path class="cls-6" d="M211.38,112.5l.08-.26C211.45,112.16,211.42,112.27,211.38,112.5Z"/><path class="cls-7" d="M146.58,202.53l149.11-42.6a12.39,12.39,0,0,1,15.79,11.91V386.39H141.29V209.54A7.29,7.29,0,0,1,146.58,202.53Z"/><rect class="cls-8" x="70.14" y="386.29" width="449.79" height="36.47" rx="7.29"/><path class="cls-9" d="M162.39,454.37H113.91a7.3,7.3,0,0,1-7.3-7.3V422.76h72.94L169.2,449.69A7.3,7.3,0,0,1,162.39,454.37Z"/><path class="cls-9" d="M427.69,454.37h48.48a7.3,7.3,0,0,0,7.3-7.3V422.76H410.53l10.35,26.93A7.3,7.3,0,0,0,427.69,454.37Z"/><path class="cls-2" d="M439.13,386.29H309a42.54,42.54,0,0,1-40.85-54.24h0A42.49,42.49,0,0,1,309,301.2H439.13A42.49,42.49,0,0,1,480,332.05h0A42.53,42.53,0,0,1,439.13,386.29Z"/><path class="cls-10" d="M459.21,301.8H371.57c-23.37,0-40.24-22-33.82-44.16h0a35.1,35.1,0,0,1,33.82-25.13h87.64A35.11,35.11,0,0,1,493,257.64h0C499.45,279.77,482.58,301.8,459.21,301.8Z"/><path class="cls-11" d="M413.91,232.51H363.38c-23.18,0-39.91-22-33.55-44.16h0a34.85,34.85,0,0,1,33.55-25.13h50.53a34.85,34.85,0,0,1,33.55,25.13h0C453.82,210.48,437.09,232.51,413.91,232.51Z"/><path class="cls-12" d="M301.55,159.69,181,386.39H311.48V171.84A12.38,12.38,0,0,0,301.55,159.69Z"/><path class="cls-13" d="M317.79,160.65a12.43,12.43,0,0,0-15.25-7.35L145.65,199.58A15.07,15.07,0,0,0,134.85,214v67.54a12.43,12.43,0,0,0,11.35,12.54,12.15,12.15,0,0,0,13-12.13V229.77a11.81,11.81,0,0,1,8.47-11.32h0a11.8,11.8,0,0,1,15.14,11.32v9.33a12.44,12.44,0,0,0,11.35,12.55,12.16,12.16,0,0,0,13-12.13V216.74A13.28,13.28,0,0,1,216.62,204l93.2-27.5A12.16,12.16,0,0,0,317.79,160.65Z"/><path class="cls-14" d="M512.64,386.29H304.74l-19.4,36.47h227.3a7.3,7.3,0,0,0,7.3-7.29V393.58A7.3,7.3,0,0,0,512.64,386.29Z"/><path class="cls-15" d="M493,257.64h0a35.11,35.11,0,0,0-33.82-25.13h-25.4L397,301.8h62.24C482.58,301.8,499.45,279.77,493,257.64Z"/><path class="cls-16" d="M447.46,188.35h0a34.85,34.85,0,0,0-33.55-25.13h-6.84l-36.85,69.29h43.69C437.09,232.51,453.82,210.48,447.46,188.35Z"/><rect class="cls-5" width="600" height="600"/></svg>