<svg id="a94c7bed-57e1-4365-8564-96a06c96cda2" data-name="Capa 1" xmlns="http://www.w3.org/2000/svg" xmlns:xlink="http://www.w3.org/1999/xlink" viewBox="0 0 600 600"><defs><style>.b0a5c731-7e63-450e-9dac-b30d07eda60e{fill:none;}.fba51c96-4cc9-4bb1-ac4b-018d0715148d{fill:url(#b14db99e-9371-4988-822d-08d4d8a863f2);}.b3086ce5-a85f-4fed-82e6-28017a869b02{clip-path:url(#ed88a2aa-3b9e-44e2-8150-b6efa552c51b);}.eec297ad-536b-4fad-baac-cd2853502c0a{fill:#fade8e;}.a54cf55d-63a2-454f-80ed-8353f1cd67bc{fill:#f8cd51;}.b277fcc9-d9f7-47ff-ac5a-55f496fd5e41{fill:#043263;}.bb0e07b2-32ee-4b26-9cd3-4dac6fb9fce6{clip-path:url(#b4a328eb-3cc5-490f-87c5-608b8536b76a);}.bfc4a3a7-7794-4591-8e0c-6831bf88ac46{fill:#072146;}.f207d9a1-a304-4375-b5b6-7b4c850b5b14{fill:url(#f02c0ceb-cd8d-4a73-a309-eeaadb94b23c);}.ab831f5a-ce8e-4b07-afd9-cd5c763c929b{fill:#da3851;}.aff79ba7-a1b0-4b4f-a51d-3defa01ac726{fill:#2dcccd;}</style><linearGradient id="b14db99e-9371-4988-822d-08d4d8a863f2" x1="286.67" y1="254.61" x2="423.89" y2="512.68" gradientUnits="userSpaceOnUse"><stop offset="0" stop-color="#1a2746" stop-opacity="0.5"/><stop offset="1" stop-color="#1a2746" stop-opacity="0"/></linearGradient><clipPath id="ed88a2aa-3b9e-44e2-8150-b6efa552c51b"><rect class="b0a5c731-7e63-450e-9dac-b30d07eda60e" x="78.92" y="167.78" width="459.01" height="207.68"/></clipPath><clipPath id="b4a328eb-3cc5-490f-87c5-608b8536b76a"><path class="b0a5c731-7e63-450e-9dac-b30d07eda60e" d="M454.26,416.47H150.9c-16.08,0-30.45-8.91-35.95-22.3L94.24,343.72H510.92l-20.71,50.45C484.71,407.56,470.34,416.47,454.26,416.47Z"/></clipPath><linearGradient id="f02c0ceb-cd8d-4a73-a309-eeaadb94b23c" x1="543.33" y1="366.2" x2="276.01" y2="366.2" gradientUnits="userSpaceOnUse"><stop offset="0" stop-color="#072146" stop-opacity="0.2"/><stop offset="1" stop-color="#072146" stop-opacity="0.1"/></linearGradient></defs><path class="fba51c96-4cc9-4bb1-ac4b-018d0715148d" d="M216.61,294A92.41,92.41,0,0,0,152.08,364H119.86a8.4,8.4,0,0,0-8.4,8.41v11a8.41,8.41,0,0,0,8.4,8.41h24l20.71,50.45c5.5,13.39,19.86,22.3,35.95,22.3H503.89c16.08,0,30.45-8.91,35.94-22.3l20.72-50.45h24a8.42,8.42,0,0,0,8.41-8.41v-11a8.41,8.41,0,0,0-8.41-8.41H549.21a129,129,0,0,0-38.94-78.57A21.16,21.16,0,0,0,476,261.75a129,129,0,0,0-154.24,34.1,21.15,21.15,0,0,0-35.48,5.73,91.54,91.54,0,0,0-44-11.19,93.49,93.49,0,0,0-11.78.75"/><g class="b3086ce5-a85f-4fed-82e6-28017a869b02"><circle class="eec297ad-536b-4fad-baac-cd2853502c0a" cx="371.26" cy="330.49" r="124.34"/><path class="a54cf55d-63a2-454f-80ed-8353f1cd67bc" d="M371.26,460.31a129.83,129.83,0,1,1,91.79-38A129,129,0,0,1,371.26,460.31Zm0-248.69A118.87,118.87,0,1,0,490.12,330.49,119,119,0,0,0,371.26,211.62Z"/><circle class="eec297ad-536b-4fad-baac-cd2853502c0a" cx="371.26" cy="330.49" r="87.91"/><path class="a54cf55d-63a2-454f-80ed-8353f1cd67bc" d="M371.26,423.87a93.39,93.39,0,1,1,93.38-93.38A93.49,93.49,0,0,1,371.26,423.87Zm0-175.82a82.44,82.44,0,1,0,82.43,82.44A82.53,82.53,0,0,0,371.26,248.05Z"/><circle class="eec297ad-536b-4fad-baac-cd2853502c0a" cx="371.26" cy="330.49" r="51.48"/><path class="a54cf55d-63a2-454f-80ed-8353f1cd67bc" d="M371.26,387.44a56.95,56.95,0,1,1,56.95-56.95A57,57,0,0,1,371.26,387.44Zm0-103a46,46,0,1,0,46,46A46.06,46.06,0,0,0,371.26,284.48Z"/><circle class="eec297ad-536b-4fad-baac-cd2853502c0a" cx="192.68" cy="334.46" r="87.3"/><path class="a54cf55d-63a2-454f-80ed-8353f1cd67bc" d="M192.68,427.24a92.78,92.78,0,1,1,92.78-92.78A92.88,92.88,0,0,1,192.68,427.24Zm0-174.61a81.83,81.83,0,1,0,81.83,81.83A81.92,81.92,0,0,0,192.68,252.63Z"/><circle class="eec297ad-536b-4fad-baac-cd2853502c0a" cx="192.68" cy="334.46" r="61.72"/><path class="a54cf55d-63a2-454f-80ed-8353f1cd67bc" d="M192.68,401.66a67.2,67.2,0,1,1,67.2-67.2A67.28,67.28,0,0,1,192.68,401.66Zm0-123.45a56.25,56.25,0,1,0,56.25,56.25A56.31,56.31,0,0,0,192.68,278.21Z"/><circle class="eec297ad-536b-4fad-baac-cd2853502c0a" cx="192.68" cy="334.46" r="36.15"/><path class="a54cf55d-63a2-454f-80ed-8353f1cd67bc" d="M192.68,376.08a41.62,41.62,0,1,1,41.62-41.62A41.67,41.67,0,0,1,192.68,376.08Zm0-72.29a30.67,30.67,0,1,0,30.67,30.67A30.71,30.71,0,0,0,192.68,303.79Z"/></g><rect class="b277fcc9-d9f7-47ff-ac5a-55f496fd5e41" x="61.83" y="315.94" width="481.5" height="27.78" rx="9.58"/><path class="b277fcc9-d9f7-47ff-ac5a-55f496fd5e41" d="M454.26,416.47H150.9c-16.08,0-30.45-8.91-35.95-22.3L94.24,343.72H510.92l-20.71,50.45C484.71,407.56,470.34,416.47,454.26,416.47Z"/><g class="bb0e07b2-32ee-4b26-9cd3-4dac6fb9fce6"><rect class="bfc4a3a7-7794-4591-8e0c-6831bf88ac46" x="94.61" y="343.72" width="416.68" height="21.16"/></g><path class="f207d9a1-a304-4375-b5b6-7b4c850b5b14" d="M533.75,315.94H376.55L276,416.47H454.26c16.08,0,30.45-8.91,35.95-22.3l20.71-50.45h22.83a9.58,9.58,0,0,0,9.58-9.58v-8.62A9.58,9.58,0,0,0,533.75,315.94Z"/><circle class="ab831f5a-ce8e-4b07-afd9-cd5c763c929b" cx="441.36" cy="228.63" r="21.16"/><circle class="ab831f5a-ce8e-4b07-afd9-cd5c763c929b" cx="141.09" cy="292.13" r="21.16"/><circle class="ab831f5a-ce8e-4b07-afd9-cd5c763c929b" cx="256.17" cy="261.7" r="21.16"/><circle class="ab831f5a-ce8e-4b07-afd9-cd5c763c929b" cx="363.32" cy="278.9" r="21.16"/><rect class="aff79ba7-a1b0-4b4f-a51d-3defa01ac726" x="195.32" y="281.55" width="22.49" height="22.49"/><rect class="aff79ba7-a1b0-4b4f-a51d-3defa01ac726" x="441.36" y="281.55" width="22.49" height="22.49"/><rect class="aff79ba7-a1b0-4b4f-a51d-3defa01ac726" x="313.05" y="219.37" width="22.49" height="22.49"/><rect class="b0a5c731-7e63-450e-9dac-b30d07eda60e" width="600" height="600"/></svg>