<svg id="b3be3e36-ae65-4ddb-9da2-89fa8023a3e7" data-name="Capa 1" xmlns="http://www.w3.org/2000/svg" xmlns:xlink="http://www.w3.org/1999/xlink" viewBox="0 0 600 600"><defs><style>.ad2d9f0f-94c1-4a5b-abee-683c29d5bcb2{fill:none;}.f8a88dd6-aa27-4c2f-bfba-9271e2de5514{fill:url(#ae89ef79-4452-451f-a59d-4587e6a890dc);}.f66a3c53-8ab1-4750-b680-cb88fe397d2c{clip-path:url(#a3bc73be-aa20-4e5b-b039-5245aebe7c21);}.ad511349-87d2-4b01-bdf7-dd67a981239a{fill:#fade8e;}.f7e76f3f-a5a4-44f1-920a-bd302d74ed83{fill:#f8cd51;}.bc61a440-4b13-405b-ba2a-4052a95db270{fill:#1464a5;}.a0711161-c70f-41c3-95eb-3a70f33b1dbf{clip-path:url(#bc265feb-efa7-4e2f-ba11-63456420f85c);}.a85a0eef-475b-48ea-aed6-8ddb084bec10{fill:#004481;}.bfe3dc82-f369-41e6-a0b0-ac1b5eb7803f{fill:url(#a3d6bb5a-a9da-4de1-80b4-258391ef1336);}.e9b45d11-fb7f-4ae9-a1c3-d0dad0eab04c{fill:#da3851;}.a2e054f4-f45c-42ab-bd3c-2738a69cff84{fill:#2dcccd;}</style><linearGradient id="ae89ef79-4452-451f-a59d-4587e6a890dc" x1="286.67" y1="254.61" x2="423.89" y2="512.68" gradientUnits="userSpaceOnUse"><stop offset="0" stop-color="#1a2746" stop-opacity="0.5"/><stop offset="1" stop-color="#1a2746" stop-opacity="0"/></linearGradient><clipPath id="a3bc73be-aa20-4e5b-b039-5245aebe7c21"><rect class="ad2d9f0f-94c1-4a5b-abee-683c29d5bcb2" x="78.92" y="167.78" width="459.01" height="207.68"/></clipPath><clipPath id="bc265feb-efa7-4e2f-ba11-63456420f85c"><path class="ad2d9f0f-94c1-4a5b-abee-683c29d5bcb2" d="M454.26,416.47H150.9c-16.08,0-30.45-8.91-35.95-22.3L94.24,343.72H510.92l-20.71,50.45C484.71,407.56,470.34,416.47,454.26,416.47Z"/></clipPath><linearGradient id="a3d6bb5a-a9da-4de1-80b4-258391ef1336" x1="543.33" y1="366.2" x2="276.01" y2="366.2" gradientUnits="userSpaceOnUse"><stop offset="0" stop-color="#043263" stop-opacity="0.2"/><stop offset="1" stop-color="#043263" stop-opacity="0.1"/></linearGradient></defs><path class="f8a88dd6-aa27-4c2f-bfba-9271e2de5514" d="M216.61,294A92.41,92.41,0,0,0,152.08,364H119.86a8.4,8.4,0,0,0-8.4,8.41v11a8.41,8.41,0,0,0,8.4,8.41h24l20.71,50.45c5.5,13.39,19.86,22.3,35.95,22.3H503.89c16.08,0,30.45-8.91,35.94-22.3l20.72-50.45h24a8.42,8.42,0,0,0,8.41-8.41v-11a8.41,8.41,0,0,0-8.41-8.41H549.21a129,129,0,0,0-38.94-78.57A21.16,21.16,0,0,0,476,261.75a129,129,0,0,0-154.24,34.1,21.15,21.15,0,0,0-35.48,5.73,91.54,91.54,0,0,0-44-11.19,93.49,93.49,0,0,0-11.78.75"/><g class="f66a3c53-8ab1-4750-b680-cb88fe397d2c"><circle class="ad511349-87d2-4b01-bdf7-dd67a981239a" cx="371.26" cy="330.49" r="124.34"/><path class="f7e76f3f-a5a4-44f1-920a-bd302d74ed83" d="M371.26,460.31a129.83,129.83,0,1,1,91.79-38A129,129,0,0,1,371.26,460.31Zm0-248.69A118.87,118.87,0,1,0,490.12,330.49,119,119,0,0,0,371.26,211.62Z"/><circle class="ad511349-87d2-4b01-bdf7-dd67a981239a" cx="371.26" cy="330.49" r="87.91"/><path class="f7e76f3f-a5a4-44f1-920a-bd302d74ed83" d="M371.26,423.87a93.39,93.39,0,1,1,93.38-93.38A93.49,93.49,0,0,1,371.26,423.87Zm0-175.82a82.44,82.44,0,1,0,82.43,82.44A82.53,82.53,0,0,0,371.26,248.05Z"/><circle class="ad511349-87d2-4b01-bdf7-dd67a981239a" cx="371.26" cy="330.49" r="51.48"/><path class="f7e76f3f-a5a4-44f1-920a-bd302d74ed83" d="M371.26,387.44a56.95,56.95,0,1,1,56.95-56.95A57,57,0,0,1,371.26,387.44Zm0-103a46,46,0,1,0,46,46A46.06,46.06,0,0,0,371.26,284.48Z"/><circle class="ad511349-87d2-4b01-bdf7-dd67a981239a" cx="192.68" cy="334.46" r="87.3"/><path class="f7e76f3f-a5a4-44f1-920a-bd302d74ed83" d="M192.68,427.24a92.78,92.78,0,1,1,92.78-92.78A92.88,92.88,0,0,1,192.68,427.24Zm0-174.61a81.83,81.83,0,1,0,81.83,81.83A81.92,81.92,0,0,0,192.68,252.63Z"/><circle class="ad511349-87d2-4b01-bdf7-dd67a981239a" cx="192.68" cy="334.46" r="61.72"/><path class="f7e76f3f-a5a4-44f1-920a-bd302d74ed83" d="M192.68,401.66a67.2,67.2,0,1,1,67.2-67.2A67.28,67.28,0,0,1,192.68,401.66Zm0-123.45a56.25,56.25,0,1,0,56.25,56.25A56.31,56.31,0,0,0,192.68,278.21Z"/><circle class="ad511349-87d2-4b01-bdf7-dd67a981239a" cx="192.68" cy="334.46" r="36.15"/><path class="f7e76f3f-a5a4-44f1-920a-bd302d74ed83" d="M192.68,376.08a41.62,41.62,0,1,1,41.62-41.62A41.67,41.67,0,0,1,192.68,376.08Zm0-72.29a30.67,30.67,0,1,0,30.67,30.67A30.71,30.71,0,0,0,192.68,303.79Z"/></g><rect class="bc61a440-4b13-405b-ba2a-4052a95db270" x="61.83" y="315.94" width="481.5" height="27.78" rx="9.58"/><path class="bc61a440-4b13-405b-ba2a-4052a95db270" d="M454.26,416.47H150.9c-16.08,0-30.45-8.91-35.95-22.3L94.24,343.72H510.92l-20.71,50.45C484.71,407.56,470.34,416.47,454.26,416.47Z"/><g class="a0711161-c70f-41c3-95eb-3a70f33b1dbf"><rect class="a85a0eef-475b-48ea-aed6-8ddb084bec10" x="94.61" y="343.72" width="416.68" height="21.16"/></g><path class="bfe3dc82-f369-41e6-a0b0-ac1b5eb7803f" d="M533.75,315.94H376.55L276,416.47H454.26c16.08,0,30.45-8.91,35.95-22.3l20.71-50.45h22.83a9.58,9.58,0,0,0,9.58-9.58v-8.62A9.58,9.58,0,0,0,533.75,315.94Z"/><circle class="e9b45d11-fb7f-4ae9-a1c3-d0dad0eab04c" cx="441.36" cy="228.63" r="21.16"/><circle class="e9b45d11-fb7f-4ae9-a1c3-d0dad0eab04c" cx="141.09" cy="292.13" r="21.16"/><circle class="e9b45d11-fb7f-4ae9-a1c3-d0dad0eab04c" cx="256.17" cy="261.7" r="21.16"/><circle class="e9b45d11-fb7f-4ae9-a1c3-d0dad0eab04c" cx="363.32" cy="278.9" r="21.16"/><rect class="a2e054f4-f45c-42ab-bd3c-2738a69cff84" x="195.32" y="281.55" width="22.49" height="22.49"/><rect class="a2e054f4-f45c-42ab-bd3c-2738a69cff84" x="441.36" y="281.55" width="22.49" height="22.49"/><rect class="a2e054f4-f45c-42ab-bd3c-2738a69cff84" x="313.05" y="219.37" width="22.49" height="22.49"/><rect class="ad2d9f0f-94c1-4a5b-abee-683c29d5bcb2" width="600" height="600"/></svg>