<svg xmlns="http://www.w3.org/2000/svg" xmlns:xlink="http://www.w3.org/1999/xlink" viewBox="0 0 600 600"><defs><style>.cls-1{fill:none;}.cls-2{fill:url(#Degradado_sin_nombre_24);}.cls-3{fill:#1464a5;}.cls-4{fill:#fddc6c;}.cls-5{fill:#49a5e6;}.cls-6{opacity:0.5;isolation:isolate;fill:url(#Degradado_sin_nombre_32);}.cls-7{fill:#004481;}</style><linearGradient id="Degradado_sin_nombre_24" x1="257.65" y1="255.82" x2="418.41" y2="558.17" gradientUnits="userSpaceOnUse"><stop offset="0" stop-color="#192647" stop-opacity="0.5"/><stop offset="1" stop-color="#192647" stop-opacity="0"/></linearGradient><linearGradient id="Degradado_sin_nombre_32" x1="193.38" y1="275.67" x2="317.33" y2="399.61" gradientUnits="userSpaceOnUse"><stop offset="0" stop-color="#fff" stop-opacity="0.5"/><stop offset="1" stop-color="#ebf6f7" stop-opacity="0.2"/><stop offset="1" stop-color="#fff" stop-opacity="0"/></linearGradient></defs><title>11</title><g id="Cuadrados_Blancos" data-name="Cuadrados Blancos"><rect class="cls-1" width="600" height="600"/></g><g id="Capa_106" data-name="Capa 106"><path class="cls-2" d="M355,235c-128.68,0-233,104.32-233,233H588C588,339.32,483.68,235,355,235Z"/><path class="cls-3" d="M300,180C171.32,180,67,284.32,67,413H533C533,284.32,428.68,180,300,180Z"/><path class="cls-4" d="M300,212.7C189.38,212.7,99.7,302.38,99.7,413H500.3C500.3,302.38,410.62,212.7,300,212.7Z"/><path class="cls-5" d="M300,240.5A172.5,172.5,0,0,0,127.5,413h345A172.5,172.5,0,0,0,300,240.5Z"/><path class="cls-6" d="M382.28,261.35A172.56,172.56,0,0,0,127.5,413H303.94Z"/><path class="cls-7" d="M330.09,382.23c-.14-16.57-30.88-88.16-30.88-88.16-2-.07-29.45,71.73-29.3,88.3a30.29,30.29,0,0,0,30.36,30A29.83,29.83,0,0,0,330.09,382.23Zm-30,12.09a11,11,0,0,1-11-10.83,10.78,10.78,0,0,1,10.79-10.88,11,11,0,0,1,11,10.83A10.79,10.79,0,0,1,300.1,394.32Z"/></g></svg>