<svg xmlns="http://www.w3.org/2000/svg" xmlns:xlink="http://www.w3.org/1999/xlink" viewBox="0 0 600 600"><defs><style>.cls-1{fill:none;}.cls-2{fill:url(#Degradado_sin_nombre_35);}.cls-3{fill:#043263;}.cls-4{fill:url(#Degradado_sin_nombre_26);}.cls-5{fill:url(#Degradado_sin_nombre_26-2);}.cls-6{fill:#f8cd50;}.cls-7{fill:#2dcccd;}.cls-8{fill:url(#Degradado_sin_nombre_25);}.cls-9{fill:url(#Degradado_sin_nombre_25-2);}.cls-10{fill:#49a5e6;}.cls-11{opacity:0.5;isolation:isolate;fill:url(#Degradado_sin_nombre_16);}.cls-12{fill:#f8cd51;}.cls-13{fill:#fff;fill-rule:evenodd;}</style><linearGradient id="Degradado_sin_nombre_35" x1="250.46" y1="2782.99" x2="439.07" y2="2428.27" gradientTransform="matrix(1, 0, 0, -1, 0, 2954)" gradientUnits="userSpaceOnUse"><stop offset="0" stop-color="#192647" stop-opacity="0.5"/><stop offset="1" stop-color="#192647" stop-opacity="0"/></linearGradient><linearGradient id="Degradado_sin_nombre_26" x1="361.96" y1="2492.27" x2="273.66" y2="2492.27" gradientTransform="matrix(1, 0, 0, -1, 0, 2954)" gradientUnits="userSpaceOnUse"><stop offset="0" stop-color="#072146" stop-opacity="0.4"/><stop offset="1" stop-color="#072146" stop-opacity="0.1"/></linearGradient><linearGradient id="Degradado_sin_nombre_26-2" x1="361.95" y1="2805.64" x2="273.66" y2="2805.64" xlink:href="#Degradado_sin_nombre_26"/><linearGradient id="Degradado_sin_nombre_25" x1="367.06" y1="2712.49" x2="400.74" y2="2678.8" gradientTransform="matrix(1, 0, 0, -1, 0, 2954)" gradientUnits="userSpaceOnUse"><stop offset="0" stop-color="#fff" stop-opacity="0.5"/><stop offset="1" stop-color="#fff" stop-opacity="0.2"/></linearGradient><linearGradient id="Degradado_sin_nombre_25-2" x1="357.01" y1="2632.33" x2="408.51" y2="2580.84" xlink:href="#Degradado_sin_nombre_25"/><linearGradient id="Degradado_sin_nombre_16" x1="215.03" y1="2729.56" x2="320.64" y2="2623.94" gradientTransform="matrix(1, 0, 0, -1, 0, 2954)" gradientUnits="userSpaceOnUse"><stop offset="0" stop-color="#fff" stop-opacity="0.5"/><stop offset="1" stop-color="#ecf7f8" stop-opacity="0.1"/></linearGradient></defs><g id="Cuadrados_Blancos" data-name="Cuadrados Blancos"><rect class="cls-1" width="600" height="600"/><rect class="cls-1" width="600" height="600"/></g><g id="Capa_24" data-name="Capa 24"><path class="cls-2" d="M471,306a63,63,0,0,0-9.7-23.6L461,282a59.84,59.84,0,0,0-3.74-4.94l-.43-.5c-.65-.76-1.31-1.49-2-2.2a2.65,2.65,0,0,0-1.87-.82h-.41a2.5,2.5,0,0,0-.8.26l-5.56,2.83a125.05,125.05,0,0,0-15.25-17.57l-9.67-37.49a8.68,8.68,0,0,0-5.12-5.87l-7.95-3.26-2.54-37.74-.73-10.89a20.41,20.41,0,0,0-1.88-7.43c-.27-.56-.57-1.12-.87-1.66a20.07,20.07,0,0,0-9.71-8.34c-.59-.24-1.18-.45-1.79-.63a19.92,19.92,0,0,0-5.74-.87H304.6a20,20,0,0,0-20,18.9l-3.26,48.64-8,3.26a8.71,8.71,0,0,0-5.12,5.87l-10,38.8a123.79,123.79,0,0,0-1,175.05l1,1,10,38.8a8.71,8.71,0,0,0,5.12,5.87l8,3.26L284.62,533a20,20,0,0,0,20,18.89H385a20,20,0,0,0,20-18.89l.64-9.56,2.61-39,8-3.26a8.67,8.67,0,0,0,5.11-5.87l9.68-37.52a125.56,125.56,0,0,0,14.52-16.64l2.1,1.07a5.14,5.14,0,0,0,.55.2h.12l.57.06h0a2.65,2.65,0,0,0,1.84-.81,63.21,63.21,0,0,0,16.13-31.67,2.48,2.48,0,0,0-.06-1.21h0a1.93,1.93,0,0,0-.19-.47v-.06a2.46,2.46,0,0,0-.22-.34l-.09-.11a3.07,3.07,0,0,0-.25-.26l-.11-.08a2.07,2.07,0,0,0-.41-.27h0l-2.19-1.1a124.32,124.32,0,0,0,.35-74.16l6-3A2.61,2.61,0,0,0,471,306Z"/><path class="cls-3" d="M362,169.09v23.46a2.6,2.6,0,0,1-2.6,2.6H237.73a2.6,2.6,0,0,1-2.61-2.6V169.09l3.27-48.65a20,20,0,0,1,20-18.89h80.35a20,20,0,0,1,20,18.89Z"/><path class="cls-3" d="M235.12,441V417.54a2.6,2.6,0,0,1,2.61-2.6H359.35a2.6,2.6,0,0,1,2.6,2.6V441l-3.27,48.64a20,20,0,0,1-20,18.9H258.35a20,20,0,0,1-20-18.9Z"/><path class="cls-4" d="M359.35,414.94H323.42l-49.76,93.58h65a20,20,0,0,0,20-18.89L362,441V417.52A2.6,2.6,0,0,0,359.35,414.94Z"/><path class="cls-5" d="M358.71,120.46a20,20,0,0,0-20-18.89H323.42l-49.76,93.58h85.69a2.6,2.6,0,0,0,2.6-2.6V169.09Z"/><path class="cls-6" d="M355.76,277.86A61.89,61.89,0,0,0,367.48,294l55.85-28.46a2.61,2.61,0,0,0,1.38-2.8A63.15,63.15,0,0,0,408.57,231a2.62,2.62,0,0,0-3.08-.54l-55.85,28.46A61.79,61.79,0,0,0,355.76,277.86Z"/><path class="cls-7" d="M211.26,219.94,222,178.24a8.7,8.7,0,0,1,5.13-5.87l8-3.26v20.12a5.31,5.31,0,0,0,5.31,5.31H248Z"/><path class="cls-7" d="M385.81,219.94l-10.75-41.7a8.7,8.7,0,0,0-5.13-5.87l-8-3.28v20.12a5.31,5.31,0,0,1-5.31,5.31h-7.55Z"/><path class="cls-7" d="M385.81,390.16l-10.75,41.7a8.68,8.68,0,0,1-5.13,5.86L362,441V420.89a5.31,5.31,0,0,0-5.31-5.31h-7.55Z"/><path class="cls-7" d="M211.26,390.16,222,431.86a8.68,8.68,0,0,0,5.13,5.86l8,3.26V420.89a5.31,5.31,0,0,1,5.31-5.31H248Z"/><path class="cls-6" d="M351.61,331.43a62.21,62.21,0,0,0-6.12,18.93l55.86,28.45a2.6,2.6,0,0,0,3.08-.53,63.29,63.29,0,0,0,16.13-31.67,2.59,2.59,0,0,0-1.38-2.8l-55.85-28.46A61.67,61.67,0,0,0,351.61,331.43Z"/><path class="cls-8" d="M408.57,231a2.62,2.62,0,0,0-3.08-.54l-55.85,28.46a63,63,0,0,0,17.84,35l29.58-15.07,19.71-37A62.12,62.12,0,0,0,408.57,231Z"/><path class="cls-9" d="M419.18,343.81l-55.85-28.46a63.07,63.07,0,0,0-17.84,35l55.86,28.45a2.5,2.5,0,0,0,1.23.28L420.5,345.4A2.58,2.58,0,0,0,419.18,343.81Z"/><circle class="cls-3" cx="299.04" cy="305.04" r="123.79"/><circle class="cls-10" cx="298.54" cy="304.37" r="115.54"/><path class="cls-11" d="M298.54,188.84A115.54,115.54,0,0,0,244.28,406.4L352.79,202.34A115.09,115.09,0,0,0,298.54,188.84Z"/><path class="cls-12" d="M363.54,304.37a65,65,0,1,1-65-65h0a65,65,0,0,1,65,65"/><path class="cls-13" d="M314.65,299.35a16.73,16.73,0,1,0,16.73,16.73,16.73,16.73,0,0,0-16.73-16.73m9.06,15.36c0,5.54-9.06,11.07-9.06,11.07s-9.06-5.53-9.06-11.07c0-.23,0-.45,0-.7a4.69,4.69,0,0,1,4.53-4.84,4.64,4.64,0,0,1,4.48,4.15h.1a4.63,4.63,0,0,1,4.48-4.15,4.7,4.7,0,0,1,4.53,4.84v.7M299,268.52a7,7,0,1,1-6.92,7A6.94,6.94,0,0,1,299,268.52Zm-6.47,14.31.13.1.33.25c.53.4,1.4,1,1.71,1.2a9.55,9.55,0,0,0,3.27,1.08,12.09,12.09,0,0,0,4.19-.21c.29-.07,2-.67,2-.67l3.57,10.81a21.83,21.83,0,0,0-6.75,3.69l-.86-1.67-.74,3.09a21.88,21.88,0,0,0-6.05,10.84l-6.05-6.74,3.05-12.68s-4,2.11-4.11,2.28l-6.11,8.23L274.34,298l8.39-10.2ZM286,308.3l1.07,1.14,5,5.37.45.48-.27.6-2.93,6.61-.07.15-.12.13L282.3,330l-.29.3h-10l1.42-1.63,8.51-9.82,3.45-9.08Z"/></g></svg>