<svg xmlns="http://www.w3.org/2000/svg" xmlns:xlink="http://www.w3.org/1999/xlink" viewBox="0 0 600 600"><defs><style>.cls-1{fill:none;}.cls-2{fill:url(#Degradado_sin_nombre_542);}.cls-3{fill:#043263;}.cls-4{fill:url(#Degradado_sin_nombre_114);}</style><linearGradient id="Degradado_sin_nombre_542" x1="267.33" y1="-4538.95" x2="455.05" y2="-4891.99" gradientTransform="matrix(1, 0, 0, -1, 0, -4370)" gradientUnits="userSpaceOnUse"><stop offset="0" stop-color="#192647" stop-opacity="0.5"/><stop offset="1" stop-color="#192647" stop-opacity="0"/></linearGradient><linearGradient id="Degradado_sin_nombre_114" x1="498.89" y1="-4693.56" x2="212" y2="-4693.56" gradientTransform="matrix(1, 0, 0, -1, 0, -4370)" gradientUnits="userSpaceOnUse"><stop offset="0" stop-color="#072146" stop-opacity="0.8"/><stop offset="1" stop-color="#072146" stop-opacity="0"/></linearGradient></defs><title>11</title><g id="Cuadrados_Blancos" data-name="Cuadrados Blancos"><rect class="cls-1" width="600" height="600"/></g><g id="Capa_84" data-name="Capa 84"><path class="cls-2" d="M350.59,128.15,411.69,252,548.3,271.8a3,3,0,0,1,1.67,5.11l-98.86,96.36,23.34,136.07A3,3,0,0,1,472,512.8a3,3,0,0,1-1.9-.3L347.9,448.26,225.71,512.5a3,3,0,0,1-4.05-1.26,3.05,3.05,0,0,1-.3-1.9L244.7,373.27l-98.86-96.36a3,3,0,0,1,1.66-5.11L284.12,252l61.09-123.8a3,3,0,0,1,5.38,0Z"/><path class="cls-3" d="M298.59,78.15,359.69,202,496.3,221.8a3,3,0,0,1,1.67,5.11l-98.86,96.36,23.34,136.07A3,3,0,0,1,420,462.8a3,3,0,0,1-1.9-.3L295.9,398.26,173.71,462.5a3,3,0,0,1-4.05-1.26,3.05,3.05,0,0,1-.3-1.9L192.7,323.27,93.84,226.91a3,3,0,0,1,1.66-5.11L232.12,202,293.21,78.2a3,3,0,0,1,5.38,0Z"/><path class="cls-4" d="M496.3,221.8,359.69,202l-8.75-17.73L212,442.37l83.89-44.11L418.1,462.5a3,3,0,0,0,4-1.26,3.05,3.05,0,0,0,.3-1.9L399.11,323.27,498,226.91a3,3,0,0,0,0-4.24A2.93,2.93,0,0,0,496.3,221.8Z"/></g></svg>