<svg id="Contenido" xmlns="http://www.w3.org/2000/svg" xmlns:xlink="http://www.w3.org/1999/xlink" viewBox="0 0 600 600"><defs><style>.cls-1{fill:url(#Degradado_sin_nombre_4);}.cls-2{fill:#2dcccd;}.cls-3{fill:#1464a5;}.cls-4{fill:url(#Degradado_sin_nombre_2);}.cls-5{fill:#d4edfc;}.cls-6{fill:none;}</style><linearGradient id="Degradado_sin_nombre_4" x1="197.97" y1="43.27" x2="469.28" y2="553.54" gradientUnits="userSpaceOnUse"><stop offset="0" stop-color="#192647"/><stop offset="0" stop-color="#192647" stop-opacity="0.5"/><stop offset="1" stop-color="#192647" stop-opacity="0"/></linearGradient><linearGradient id="Degradado_sin_nombre_2" x1="497.8" y1="234.19" x2="242.6" y2="234.19" gradientUnits="userSpaceOnUse"><stop offset="0" stop-color="#043263" stop-opacity="0.6"/><stop offset="1" stop-color="#043263" stop-opacity="0"/></linearGradient></defs><path class="cls-1" d="M533.38,172.9H157.7a9.35,9.35,0,0,0-9.35,9.35V376.63A9.35,9.35,0,0,0,157.7,386H173l.16,121.59a3,3,0,0,0,3,3l24,0a3,3,0,0,0,3-3L203,386H486.83L487,507.57a3,3,0,0,0,3,3l24,0a3,3,0,0,0,3-3L516.83,386h16.55a9.35,9.35,0,0,0,9.35-9.35V182.25A9.35,9.35,0,0,0,533.38,172.9Z"/><path class="cls-2" d="M127.94,265.32l30,0h0l.26,197a3,3,0,0,1-3,3h0l-24,0a3,3,0,0,1-3-3h0l-.26-197Z"/><path class="cls-2" d="M441.8,265.32l30,0h0l.26,197a3,3,0,0,1-3,3h0l-24,0a3,3,0,0,1-3-3h0l-.26-197Z"/><rect class="cls-2" x="103.42" y="127.65" width="394.38" height="213.08" rx="9.35"/><rect class="cls-3" x="103.42" y="127.65" width="394.38" height="213.08" rx="9.35"/><path class="cls-4" d="M497.8,137V331.38a9.35,9.35,0,0,1-9.35,9.35H242.6L357.94,127.65H488.45A9.35,9.35,0,0,1,497.8,137Z"/><path class="cls-5" d="M192.36,266.42a35.71,35.71,0,0,1-8-.86,37.25,37.25,0,0,1-7-2.34,38,38,0,0,1-6-3.4,41.31,41.31,0,0,1-5-4l6.83-8.76a29.64,29.64,0,0,0,3.81,3.32,32.88,32.88,0,0,0,4.68,2.89,28.93,28.93,0,0,0,5.13,2A18.39,18.39,0,0,0,192,256a20.27,20.27,0,0,0,4.34-.43,11.32,11.32,0,0,0,3.4-1.28,6.46,6.46,0,0,0,2.22-2.12,5.49,5.49,0,0,0,.81-3,5.66,5.66,0,0,0-3.11-5.14,39.72,39.72,0,0,0-9-3.46c-2.65-.73-5.27-1.51-7.88-2.34a29.16,29.16,0,0,1-7-3.18,15.72,15.72,0,0,1-5-5,14.22,14.22,0,0,1-1.91-7.7,17.06,17.06,0,0,1,1.59-7.45,16,16,0,0,1,4.42-5.59,20.07,20.07,0,0,1,6.8-3.5,29.51,29.51,0,0,1,8.68-1.22,31.24,31.24,0,0,1,6.66.71,38.27,38.27,0,0,1,6.15,1.88,39.75,39.75,0,0,1,5.5,2.75,44.16,44.16,0,0,1,4.71,3.27l-6,9.35a36.08,36.08,0,0,0-3.61-2.7,34.19,34.19,0,0,0-4.19-2.33,26.45,26.45,0,0,0-4.45-1.63,16.88,16.88,0,0,0-4.4-.61c-2.89,0-5.11.55-6.66,1.67a5.06,5.06,0,0,0-2.34,4.3,5.46,5.46,0,0,0,.82,3,7.46,7.46,0,0,0,2.38,2.24,17.85,17.85,0,0,0,3.83,1.73q2.28.77,5.19,1.59,3.89,1.06,7.78,2.36a28.89,28.89,0,0,1,6.93,3.32,16.46,16.46,0,0,1,4.95,5.09,14.24,14.24,0,0,1,1.91,7.66,17.32,17.32,0,0,1-1.42,6.87,15.84,15.84,0,0,1-4.26,5.78,21.52,21.52,0,0,1-7.23,4A32,32,0,0,1,192.36,266.42Z"/><path class="cls-5" d="M252.7,265.28H239.62v-48.6H221.9v-11h47.61l2,11H252.7Z"/><path class="cls-5" d="M281.69,265.28H269.63l21.05-59.79h12.5l20.74,58.81-12.61,2L306.56,252H286.28Zm14.81-43.06-7,20.27h14l-6.83-20.27Z"/><path class="cls-5" d="M347.8,265.28H335V205.72h22.35a42.58,42.58,0,0,1,9.82,1A20.5,20.5,0,0,1,374.5,210a14.51,14.51,0,0,1,4.62,5.72,20.16,20.16,0,0,1,1.61,8.43q0,7-3.22,11.12a18,18,0,0,1-9.16,5.89l13.52,23.14-12.73,2-13.75-23.41H347.8Zm0-48.83v16.26h9c3.75,0,6.54-.62,8.39-1.86s2.77-3.36,2.77-6.35-.92-5-2.77-6.23-4.64-1.82-8.39-1.82Z"/><path class="cls-5" d="M419.77,265.28H406.69v-48.6H389v-11h47.62l2,11H419.77Z"/><rect class="cls-6" width="600" height="600"/></svg>