<svg id="Contenido" xmlns="http://www.w3.org/2000/svg" xmlns:xlink="http://www.w3.org/1999/xlink" viewBox="0 0 600 600"><defs><style>.cls-1{opacity:0.25;fill:url(#Degradado_sin_nombre_22);}.cls-2{fill:#2dcccd;}.cls-3{fill:url(#Degradado_sin_nombre_6);}.cls-4{fill:#02a5a5;}.cls-5{fill:none;stroke:#043263;stroke-linecap:round;stroke-linejoin:round;stroke-width:7px;}.cls-6{fill:#1464a5;}.cls-7{fill:#f8cd50;}.cls-8{fill:#c49735;opacity:0.65;}.cls-9{fill:url(#Degradado_sin_nombre_10);}</style><linearGradient id="Degradado_sin_nombre_22" x1="278.33" y1="208.66" x2="440.73" y2="514.09" gradientUnits="userSpaceOnUse"><stop offset="0" stop-color="#192647"/><stop offset="1" stop-color="#192647" stop-opacity="0"/></linearGradient><linearGradient id="Degradado_sin_nombre_6" x1="470.98" y1="386.31" x2="275.37" y2="384.73" gradientTransform="translate(-41.01 -51) rotate(-0.46)" gradientUnits="userSpaceOnUse"><stop offset="0" stop-color="#192647"/><stop offset="0" stop-color="#028484" stop-opacity="0.3"/><stop offset="1" stop-color="#028484" stop-opacity="0.1"/></linearGradient><linearGradient id="Degradado_sin_nombre_10" x1="388.13" y1="178.22" x2="325.26" y2="178.22" gradientUnits="userSpaceOnUse"><stop offset="0" stop-color="#192647"/><stop offset="0" stop-color="#043263" stop-opacity="0.3"/><stop offset="1" stop-color="#043263" stop-opacity="0.1"/></linearGradient></defs><title>_</title><path class="cls-1" d="M505.19,373.26h0c-.76-.68-1.53-1.37-2.32-2.05h0l0,0c-1.23-1.08-2.5-2.16-3.78-3.25l-.5-.42c-1.23-1-2.49-2.09-3.77-3.13l-.7-.57c-1.28-1-2.57-2.08-3.89-3.12l-.61-.48c-1.39-1.09-2.79-2.18-4.22-3.27L481.51,354a132.19,132.19,0,0,0-67.81-96.65l-.07.14c-.84-.45-1.68-.9-2.53-1.33l-.64-.33c-1.2-.61-2.4-1.2-3.62-1.77l-.56-.25-.52-.24c1.15-.52,2.28-1,3.4-1.43.52-.2,1-.38,1.56-.56.72-.24,1.42-.46,2.13-.65q1.44-.39,2.88-.63c.51-.08,1-.15,1.52-.21,6-.63,12.05.93,19.25,6a2.72,2.72,0,0,0,1.4.86H438a.6.6,0,0,0,.24-.05.74.74,0,0,0,.28-.69V199.49a6.93,6.93,0,0,0-2-4l0,0c-.44-.32-.88-.62-1.32-.91l-.48-.31-.86-.54-.57-.34c-.25-.14-.49-.29-.74-.42l-.61-.34-.67-.34c-.22-.12-.43-.22-.65-.32l-.6-.29-.68-.3-.54-.22-.72-.28-.45-.16-.79-.27-.31-.09a23.09,23.09,0,0,0-6.44-1H418.9c-7.42.26-14.54,4.06-23.27,8.78-16.11,8.72-26.1,12.06-40.88-.55-1.31-1.34-1.73-1.76-3.66-1.76a3.5,3.5,0,0,0-3.5,3.5v42.43a131.47,131.47,0,0,0-65.22,19.07l.16-.1-4.76-1.1c-2.15-.5-4.28-1-6.39-1.41-.91-.2-1.81-.38-2.71-.56-1.12-.23-2.24-.46-3.35-.67l-3.47-.66-2.24-.4c-1.32-.23-2.65-.47-4-.68h0c-1.86-.3-3.72-.6-5.53-.86-57.4-8.21-77.56,7.47-84.37,22.08-12.34,26.46,13.48,57.47,37.32,78.82,4.9,4.39,10.18,8.8,15.79,13.2q-.13,3.18-.11,6.39h0c0,1.15,0,2.29.07,3.42,0,.33,0,.65.05,1,0,.82.06,1.63.11,2.45,0,.31.05.62.07.93,0,.83.11,1.65.18,2.47,0,.28.05.56.08.84.08.85.15,1.7.25,2.54l.09.75c.1.88.21,1.75.32,2.61,0,.21.07.42.1.62.13.91.26,1.82.41,2.72,0,.17.05.34.08.5.16.94.32,1.88.5,2.82,0,.12.05.25.08.38.18,1,.38,1.94.59,2.9a2.61,2.61,0,0,0,.06.27c.21,1,.44,2,.68,3a1,1,0,0,1,0,.17c.25,1,.52,2,.79,3.06l0,.09c.28,1,.57,2.07.88,3.1v0a132.3,132.3,0,0,0,50.36,70.15h0q2,1.44,4.11,2.8l.1.06q4.11,2.69,8.43,5.07l.28.15q4.25,2.32,8.69,4.35l.35.16c1.47.66,3,1.31,4.45,1.92l.19.07q2.2.9,4.44,1.71l.27.1q2.24.81,4.51,1.54l.58.19c3,.95,6.07,1.79,9.16,2.53l.8.19c1.53.35,3.06.69,4.6,1l.33.05c1.45.28,2.91.53,4.37.76l.85.14c1.52.22,3.05.43,4.58.6l.85.09c1.4.15,2.81.29,4.23.39l.67.06c1.55.11,3.1.18,4.66.24l1.06,0c1.58,0,3.17.07,4.77.06h0A131.64,131.64,0,0,0,440.22,471q9.22,1.88,17.92,3.12a205.34,205.34,0,0,0,29,2.27c35.64,0,49.89-12.53,55.4-24.34C554.85,425.62,529,394.62,505.19,373.26Zm-22.95,14.29,0,.14Zm.66-10.31c0,.31,0,.63,0,.95C482.89,377.87,482.9,377.55,482.9,377.24ZM274.37,266l.2-.14Zm-79.62,23.89c1.65-3.55,11-8.78,34.58-7.56,1.7.09,3.47.21,5.31.37l.82.07,1.46.13,2.19.23.93.11,2.06.24.87.12,2.9.39c2.28.32,4.63.71,7,1.11a132.44,132.44,0,0,0-21.56,32.3c-.65,1.38-1.27,2.78-1.88,4.18q-1.4,3.25-2.62,6.59c-.51,1.39-1,2.78-1.47,4.18-.21.65-.41,1.3-.61,1.95-.56-.48-1.11-1-1.65-1.46C196.1,308.7,192.75,294.21,194.75,289.92ZM513.51,438.56c-2,4.29-15.24,11-51.07,5.91,1.49-2.33,2.9-4.72,4.23-7.15a131.08,131.08,0,0,0,15-44.82q1.86,1.59,3.55,3.11c.77.69,1.51,1.37,2.24,2l.77.72c.45.42.9.83,1.33,1.25s.63.59.94.89l1,1,1,1,.63.63c1.5,1.49,2.9,2.95,4.21,4.36h0l1.41,1.54C513.28,425.21,515.11,435.14,513.51,438.56Z"/><path class="cls-2" d="M168.85,324.81A132.1,132.1,0,1,1,302,455.85a132.11,132.11,0,0,1-133.16-131"/><path class="cls-3" d="M363.8,207.35,237.44,439.43A132.13,132.13,0,1,0,363.8,207.35Z"/><path class="cls-4" d="M433.05,322.69q0-5.07-.46-10L428,317.91a37.65,37.65,0,0,1-19,11.21,9.36,9.36,0,0,0-3.71,1.93c-3.12,2.73-4.51,6.9-5.77,10.85q-4.74,15-9.49,30a6.56,6.56,0,0,1-1.33,2.43c-3.92,4.38-10-1.42-15.57-1.6-6.21-.21-10.06,6.65-11.68,12.65s-3.17,13-8.76,15.74a13.72,13.72,0,0,1-6.89,1.08c-9.16-.59-19.22-5.12-23.2-13.39-7.89-16.39-31.22-24.39-34.38-12.37-1.61,6.13,4.73,11.71,7.35,17.48s4.42,12.44,2.25,18.4-7.86,9.91-13.95,11.28-12.47.4-18.47-1.33c-7.62-2.21-15.32-5.69-23.16-4.46-7.65,1.2-14,6.89-17.56,13.82A132.11,132.11,0,0,0,433.05,322.69Z"/><path class="cls-4" d="M168.85,324.81a131.54,131.54,0,0,0,11.1,52,12.94,12.94,0,0,1,4.13-2.2c5.85-1.79,12.67.06,17.94-3,6.27-3.67,7.19-12.26,6.84-19.52a143.6,143.6,0,0,0-4.15-28c-1.66-6.64-3.82-13.44-2.72-20.19s6.82-13.38,13.63-12.7c3.72.37,6.87,2.74,10,4.83,6.44,4.35,13.85,7.9,21.62,7.63s15.76-5.29,17.34-12.9c.89-4.29-.25-9,1.47-13,2.07-4.84,7.78-7.23,13-7.17s10.28,2.06,15.29,3.67c12.47,4,28.61,4.75,36.18-5.95,9.23-13-.65-34.48,11-45.44,4.63-4.36,11.32-5.48,17.34-7.52a32.62,32.62,0,0,0,9.59-5.15A132.12,132.12,0,0,0,168.85,324.81Z"/><path class="cls-4" d="M393.56,229.54c-7.83,1.25-14.94,4.61-19.35,11.11-5.5,8.09-5.18,18.68-8.15,28a40.89,40.89,0,0,1-22.73,24.9c-10.3,4.34-22.21,4.33-32,9.72-4.91,2.7-9.48,7.86-8.16,13.31,1.1,4.59,5.91,7.26,10.46,8.51,9.15,2.52,19,1.59,28.09,4.37,7.13,2.19,14.12,6.68,21.45,5.26,9.4-1.82,14.1-12.11,18-20.86,5-11.23,12-22.82,23.5-27.05,6.89-2.53,15.28-2.43,21.22-6.1A132.19,132.19,0,0,0,393.56,229.54Z"/><line class="cls-5" x1="301.18" y1="253.1" x2="301.18" y2="149.26"/><path class="cls-6" d="M304.41,208.59c14.78,12.62,24.77,9.27,40.88.55,15.13-8.19,25.41-13.62,40.87-2.62,1.09,1.06,2,1.19,2,.1V149.87a7,7,0,0,0-2-4.05c-15.46-11-25.74-5.56-40.87,2.63-16.11,8.71-26.1,12.06-40.88-.55Z"/><path class="cls-7" d="M455.29,323.26h0c-6-5.36-12.65-10.85-19.81-16.31l-3.91-3a132.41,132.41,0,0,1,.15,38.52c1.24,1.07,2.42,2.1,3.55,3.12,27,24.17,30.34,38.67,28.34,42.95s-15.26,11-51.12,5.91c-36.26-5.2-81.23-19.71-126.61-40.88s-85.42-46.28-112.7-70.72c-27-24.17-30.33-38.66-28.34-43s15.26-11,51.12-5.9c2.28.32,4.64.71,7,1.11a132.52,132.52,0,0,1,29.64-24.47l-4.77-1.1c-9.64-2.23-18.94-4-27.64-5.24-57.41-8.21-77.57,7.47-84.38,22.08-12.34,26.46,13.49,57.47,37.33,78.82,29.41,26.35,72,53.19,120,75.56s95.94,37.79,135,43.38a205.34,205.34,0,0,0,29,2.27c35.63,0,49.89-12.53,55.4-24.34C505,375.62,479.13,344.62,455.29,323.26Z"/><path class="cls-8" d="M179.43,232.36c4.88.25,10.37.78,16.53,1.66,2.28.32,4.64.71,7,1.11a132.52,132.52,0,0,1,29.64-24.47l-4.77-1.1c-7.63-1.76-15-3.22-22.11-4.38A152.9,152.9,0,0,0,179.43,232.36Z"/><path class="cls-8" d="M431.57,304a132.41,132.41,0,0,1,.15,38.52c1.24,1.07,2.42,2.1,3.55,3.12a177.8,177.8,0,0,1,13.6,13.45A152.84,152.84,0,0,0,453,322.52c0-.44,0-.87,0-1.31-5.38-4.71-11.25-9.49-17.49-14.26Z"/><path class="cls-9" d="M367.49,139.72l-42.23,77.07c6.07-.57,12.35-3.5,20-7.65,15.13-8.19,25.41-13.62,40.87-2.62,1.09,1.06,2,1.19,2,.1V149.87a7,7,0,0,0-2-4.05C379.19,140.86,373.27,139.25,367.49,139.72Z"/></svg>