<svg id="Cuadrados_Blancos" data-name="Cuadrados Blancos" xmlns="http://www.w3.org/2000/svg" xmlns:xlink="http://www.w3.org/1999/xlink" viewBox="0 0 600 600"><defs><style>.cls-1{fill:none;}.cls-2{fill:url(#Degradado_sin_nombre_581);}.cls-3{fill:#028484;}.cls-4{fill:#2dcccd;}.cls-5{fill:#043263;}.cls-6{fill:url(#Degradado_sin_nombre_156);}.cls-7{fill:#072146;}.cls-8{fill:#49a5e6;}.cls-9{fill:url(#Degradado_sin_nombre_155);}.cls-10{fill:#02a5a5;}.cls-11{fill:#f8cd50;}.cls-12{fill:url(#Degradado_sin_nombre_144);}.cls-13{fill:url(#Degradado_sin_nombre_144-2);}.cls-14{fill:url(#Degradado_sin_nombre_154);}</style><linearGradient id="Degradado_sin_nombre_581" x1="222.93" y1="170.34" x2="439.48" y2="577.6" gradientUnits="userSpaceOnUse"><stop offset="0" stop-color="#1c2645" stop-opacity="0.5"/><stop offset="1" stop-color="#1c2645" stop-opacity="0"/></linearGradient><linearGradient id="Degradado_sin_nombre_156" x1="450" y1="325.63" x2="200.91" y2="325.63" gradientUnits="userSpaceOnUse"><stop offset="0" stop-color="#043263" stop-opacity="0.4"/><stop offset="1" stop-color="#043263" stop-opacity="0"/></linearGradient><linearGradient id="Degradado_sin_nombre_155" x1="415" y1="400" x2="282.78" y2="400" gradientUnits="userSpaceOnUse"><stop offset="0" stop-color="#028484" stop-opacity="0.3"/><stop offset="1" stop-color="#028484" stop-opacity="0"/></linearGradient><linearGradient id="Degradado_sin_nombre_144" x1="197.63" y1="389.37" x2="208.99" y2="400.74" gradientUnits="userSpaceOnUse"><stop offset="0" stop-color="#fff" stop-opacity="0.5"/><stop offset="1" stop-color="#fff" stop-opacity="0.1"/></linearGradient><linearGradient id="Degradado_sin_nombre_144-2" x1="181.63" y1="268.37" x2="192.99" y2="279.74" xlink:href="#Degradado_sin_nombre_144"/><linearGradient id="Degradado_sin_nombre_154" x1="338" y1="85" x2="294.9" y2="85" gradientUnits="userSpaceOnUse"><stop offset="0" stop-color="#028484" stop-opacity="0.4"/><stop offset="1" stop-color="#028484" stop-opacity="0.1"/></linearGradient></defs><title>11</title><rect class="cls-1" width="600" height="600"/><path class="cls-2" d="M500,380V315A150.07,150.07,0,0,0,388,169.86V135a20,20,0,0,0-20-20H332a20,20,0,0,0-20,20v34.86A150.07,150.07,0,0,0,200,315v65a20,20,0,0,0-20,20v17a3,3,0,0,0,3,3h1v88a12,12,0,0,0,12,12h4v11a24,24,0,0,0,24,24H476a24,24,0,0,0,24-24V520h4a12,12,0,0,0,12-12V420h1a3,3,0,0,0,3-3V400A20,20,0,0,0,500,380ZM332,135h36v31.08A150.65,150.65,0,0,0,350,165h0a150.65,150.65,0,0,0-18,1.08Z"/><rect class="cls-3" x="262" y="85" width="20" height="50"/><rect class="cls-3" x="318" y="85" width="20" height="50"/><path class="cls-4" d="M318,65H282a20,20,0,0,0-20,20v20a20,20,0,0,1,20-20h36a20,20,0,0,1,20,20V85A20,20,0,0,0,318,65Z"/><path class="cls-5" d="M300,115h0A150,150,0,0,1,450,265V481a24,24,0,0,1-24,24H174a24,24,0,0,1-24-24V265A150,150,0,0,1,300,115Z"/><path class="cls-6" d="M391.66,146.26,200.91,505H426a24,24,0,0,0,24-24V265A149.78,149.78,0,0,0,391.66,146.26Z"/><path class="cls-7" d="M134,360h16a0,0,0,0,1,0,0V470a0,0,0,0,1,0,0h-4a12,12,0,0,1-12-12V360A0,0,0,0,1,134,360Z"/><path class="cls-8" d="M150,330h0a0,0,0,0,1,0,0v40a0,0,0,0,1,0,0H133a3,3,0,0,1-3-3V350A20,20,0,0,1,150,330Z"/><path class="cls-7" d="M462,360h4a0,0,0,0,1,0,0V470a0,0,0,0,1,0,0H450a0,0,0,0,1,0,0V372A12,12,0,0,1,462,360Z" transform="translate(916 830) rotate(-180)"/><path class="cls-8" d="M453,330h17a0,0,0,0,1,0,0v40a0,0,0,0,1,0,0h0a20,20,0,0,1-20-20V333A3,3,0,0,1,453,330Z" transform="translate(920 700) rotate(-180)"/><path class="cls-4" d="M221,330H379a36,36,0,0,1,36,36v92a12,12,0,0,1-12,12H197a12,12,0,0,1-12-12V366A36,36,0,0,1,221,330Z"/><path class="cls-9" d="M379,330H357.22L282.78,470H403a12,12,0,0,0,12-12V366A36,36,0,0,0,379,330Z"/><path class="cls-10" d="M195,330H405a20,20,0,0,1,20,20v30a6,6,0,0,1-6,6H181a6,6,0,0,1-6-6V350a20,20,0,0,1,20-20Z"/><path class="cls-7" d="M410,270a5,5,0,0,1-5-5,105,105,0,0,0-210,0,5,5,0,0,1-10,0,115,115,0,0,1,230,0A5,5,0,0,1,410,270Z"/><path class="cls-11" d="M206,412h0a6.47,6.47,0,0,1-6.46-7L201,386h10l1.46,19A6.47,6.47,0,0,1,206,412Z"/><path class="cls-12" d="M211,386H201l-1.46,19a6.41,6.41,0,0,0,1.08,4.1l10.62-20Z"/><path class="cls-11" d="M190,291h0a6.47,6.47,0,0,1-6.46-7L185,265h10l1.46,19A6.47,6.47,0,0,1,190,291Z"/><path class="cls-13" d="M195,265H185l-1.46,19a6.41,6.41,0,0,0,1.08,4.1l10.62-20Z"/><path class="cls-14" d="M318,65H305.53L294.9,85H318a20,20,0,0,1,20,20V85A20,20,0,0,0,318,65Z"/></svg>