<svg id="Contenido" xmlns="http://www.w3.org/2000/svg" xmlns:xlink="http://www.w3.org/1999/xlink" viewBox="0 0 600 600"><defs><style>.cls-1{fill:url(#Degradado_sin_nombre_42);}.cls-2{fill:#043263;}.cls-3{fill:#02a5a5;}.cls-4{fill:#028484;}.cls-5{fill:#072146;}.cls-6{fill:#56e2de;}.cls-7{fill:#2dcccd;}.cls-8{fill:#07467f;}.cls-9{fill:url(#Degradado_sin_nombre_12);}.cls-10{fill:#083361;}.cls-11{fill:#1b65a2;}.cls-12{fill:#d4ecfa;}.cls-13{fill:#f6cb5b;}.cls-14{fill:#f8dc92;}.cls-15{fill:#39cbcb;}</style><linearGradient id="Degradado_sin_nombre_42" x1="248.8" y1="123.63" x2="444.66" y2="491.99" gradientUnits="userSpaceOnUse"><stop offset="0" stop-color="#192647" stop-opacity="0.5"/><stop offset="1" stop-color="#192647" stop-opacity="0"/></linearGradient><linearGradient id="Degradado_sin_nombre_12" x1="383.66" y1="404.74" x2="306.58" y2="404.74" gradientUnits="userSpaceOnUse"><stop offset="0" stop-color="#1a2746"/><stop offset="0" stop-color="#083361" stop-opacity="0.7"/><stop offset="1" stop-color="#083361" stop-opacity="0.2"/></linearGradient></defs><title>seguros</title><path class="cls-1" d="M438,308.39c32.64-19.7,43.36-23.36,81.5-35.24l.44.31c0-.14,0-.28-.08-.42l.08,0-.1-.1c-9.19-51.11-83.55-112.85-174.79-115V145a5,5,0,0,0-10,0v12.86c-91.24,2.2-165.6,63.94-174.79,115.05l-.1.1.08,0c0,.14-.06.28-.08.42l.44-.31c38.14,11.88,48.86,15.54,81.5,35.24,32.67-2.18,61.88.46,92.95,7.38v58.77l-.5.12-123,31.95a3.5,3.5,0,0,0-2.65,3.68h0v4.79a5.81,5.81,0,0,0,4.48,5.67l41.91,9.9v17.13c0,7.42,5,14.12,12.65,17a200.07,200.07,0,0,0,82.35,12.65l.54,0,3.39-.24.76-.06c1.1-.09,2.2-.19,3.29-.3l.85-.09c1.09-.11,2.17-.23,3.26-.36l.83-.1c1.11-.14,2.21-.28,3.32-.44l.56-.08q5.55-.81,11.13-1.91l.46-.09,2.71-.58,1.59-.34,2.4-.55,1.93-.46,2.23-.56,2.11-.55,2.11-.57,2.26-.64,2-.58c.82-.24,1.63-.49,2.45-.75l1.82-.56,2.8-.92,1.49-.49c1.41-.48,2.82-1,4.23-1.48l.07,0a22.47,22.47,0,0,0,2.78-1.22c.44-.24.87-.48,1.28-.74A19.55,19.55,0,0,0,417.2,461c.37-.31.72-.63,1.06-1a18.11,18.11,0,0,0,4.29-6.5v14.43a7.11,7.11,0,0,0-2.21,10.19l-5.71,23.55c-.93,4,3.1,4.44,5.24,4.44h11.36c4.75,0,7-.66,6.43-3.72L432,478.16a7.11,7.11,0,0,0-2.33-10.32l0-40.49,42.17-11a4.45,4.45,0,0,0,3.33-4.48l-.19-5.22h0a3.53,3.53,0,0,0-2.72-4.18L345.36,374.46l-.36-.07V315.77C376.07,308.85,405.28,306.21,438,308.39Z"/><path class="cls-2" d="M300,135.8a5,5,0,0,1-5-5V105a5,5,0,0,1,10,0v25.8A5,5,0,0,1,300,135.8Z"/><path class="cls-3" d="M120.11,233c38.5,12,49.17,15.6,81.94,35.38l97.95-137C235.62,142.36,176.4,180.08,120.11,233Z"/><path class="cls-4" d="M202.05,268.39c34.42-2.3,65,.75,97.95,8.52V131.38C257,174.05,222.68,219.23,202.05,268.39Z"/><path class="cls-3" d="M479.89,233c-38.5,12-49.17,15.6-81.94,35.38L300,131.38C364.38,142.36,423.6,180.08,479.89,233Z"/><path class="cls-4" d="M398,268.39c-34.42-2.3-65,.75-97.95,8.52V131.38C341,174.15,374.62,219.46,398,268.39Z"/><rect class="cls-5" x="295" y="175.63" width="10" height="224.38"/><path class="cls-6" d="M300,117.8c-93.84,0-171,63.51-179.89,115.66,23.92-17.22,53.79-27.3,89.94-27.64h0Q226.68,153.09,300,117.8Z"/><path class="cls-6" d="M300,117.8c93.84,0,171,63.51,179.89,115.66C456,216.24,426.1,206.16,390,205.82h0Q373.32,153.09,300,117.8Z"/><path class="cls-7" d="M300,117.8q-73.32,35.3-89.95,88c36-10.32,58.77-12.46,89.95-7.12,31.18-5.34,53.93-3.2,89.95,7.12Q373.32,153.09,300,117.8Z"/><path class="cls-8" d="M370.78,424.64q-72.73,26.17-142.93.1c-7.63-2.84-12.65-9.54-12.65-17V371.9H383.66v35.7C383.66,415.11,378.53,421.85,370.78,424.64Z"/><path class="cls-9" d="M383.66,407.6V371.9H343l-36.43,65.68a215,215,0,0,0,64.2-12.94C378.53,421.85,383.66,415.11,383.66,407.6Z"/><path class="cls-10" d="M435,366.69l.19,5.22a4.45,4.45,0,0,1-3.33,4.48L304.35,409.51a18.44,18.44,0,0,1-8.92.1L173.29,380.75a5.81,5.81,0,0,1-4.48-5.67v-4.79"/><path class="cls-11" d="M294.86,402.68,171.55,373.54a3.57,3.57,0,0,1-.08-6.93l123-31.95a23.31,23.31,0,0,1,10.86-.2l126.92,28.05a3.57,3.57,0,0,1,.12,6.94L304.93,402.56A20.92,20.92,0,0,1,294.86,402.68Z"/><path class="cls-12" d="M386.11,439.26h0a3.56,3.56,0,0,1-3.56-3.56l0-47.83-84.07-23a3.56,3.56,0,1,1,1.88-6.87l86.7,23.7a3.56,3.56,0,0,1,2.62,3.44l0,50.54A3.56,3.56,0,0,1,386.11,439.26Z"/><path class="cls-13" d="M391,433.88l6.65,28.51c.62,3.06-1.68,3.72-6.43,3.72H379.87c-2.14,0-6.17-.45-5.24-4.44l6.74-27.79a4.77,4.77,0,0,1,4.79-3.39h0A4.81,4.81,0,0,1,391,433.88Z"/><path class="cls-14" d="M388.56,433.88l2.82,24.51c.46,4,1,7.72-3.64,7.72h-3.11c-5.57,0-4.1-3.72-3.64-7.72l2.82-24.51c.23-2,1.21-3.38,2.36-3.39h0C387.33,430.48,388.33,431.9,388.56,433.88Z"/><circle class="cls-13" cx="386.19" cy="434.05" r="7.13"/><ellipse class="cls-15" cx="302.16" cy="362.15" rx="10.11" ry="7.12"/></svg>