<svg id="Contenido" xmlns="http://www.w3.org/2000/svg" xmlns:xlink="http://www.w3.org/1999/xlink" viewBox="0 0 600 600"><defs><style>.cls-1{fill:url(#Degradado_sin_nombre_7);}.cls-2{fill:#fade8e;}.cls-3{fill:#f8cd50;}.cls-4{fill:url(#Degradado_sin_nombre_10);}</style><linearGradient id="Degradado_sin_nombre_7" x1="170.22" y1="25.2" x2="406.43" y2="469.44" gradientUnits="userSpaceOnUse"><stop offset="0" stop-color="#192647"/><stop offset="0" stop-color="#192647" stop-opacity="0.5"/><stop offset="1" stop-color="#192647" stop-opacity="0"/></linearGradient><linearGradient id="Degradado_sin_nombre_10" x1="176.94" y1="234.52" x2="300.97" y2="300.47" gradientUnits="userSpaceOnUse"><stop offset="0" stop-color="#fff" stop-opacity="0.6"/><stop offset="1" stop-color="#fff" stop-opacity="0.2"/></linearGradient></defs><title>sol</title><path class="cls-1" d="M484.41,354a139.39,139.39,0,0,1-139.3,139.41c-76.8,0-139.52-62.55-139.52-139.41s62.5-139.41,139.3-139.41h0A139.44,139.44,0,0,1,484.41,354"/><path class="cls-2" d="M131.75,381.71a186,186,0,0,1-17-56.11,5,5,0,0,1,4.42-5.66l8.78-1a5,5,0,0,1,5.49,4.27,167.34,167.34,0,0,0,15.14,50,5,5,0,0,1-2.19,6.6L138.56,384A5,5,0,0,1,131.75,381.71Z"/><path class="cls-2" d="M299.75,487a187.08,187.08,0,0,1-142-65.66,5,5,0,0,1,.66-7.15l6.87-5.55a5,5,0,0,1,6.93.64,168.16,168.16,0,0,0,141.45,58.32A5,5,0,0,1,319,472l1,8.78a5,5,0,0,1-4.56,5.54Q307.55,487,299.75,487Z"/><path class="cls-2" d="M466.55,276.75C454.29,188.68,375,125.15,286.39,132.38A5,5,0,0,1,281,128l-1-8.79a5,5,0,0,1,4.55-5.53c98.76-8.18,187.11,62.62,200.64,160.77a5,5,0,0,1-4.42,5.64L472,281A5,5,0,0,1,466.55,276.75Z"/><path class="cls-2" d="M145.73,221.47l-7.87-4a5,5,0,0,1-2.12-6.86,187,187,0,0,1,90.51-82.49,5,5,0,0,1,6.62,2.76l3.26,8.21a5,5,0,0,1-2.67,6.43,168.17,168.17,0,0,0-81.08,73.91A5,5,0,0,1,145.73,221.47Z"/><path class="cls-2" d="M417.86,438.63l-5.73-6.72a5,5,0,0,1,.47-7,167.64,167.64,0,0,0,48.71-77.38,5,5,0,0,1,6.07-3.42l8.54,2.26a5,5,0,0,1,3.53,6.25A186.42,186.42,0,0,1,425,439.11,5,5,0,0,1,417.86,438.63Z"/><path class="cls-3" d="M439.41,300a139.39,139.39,0,0,1-139.3,139.41c-76.8,0-139.52-62.55-139.52-139.41s62.5-139.41,139.3-139.41h0A139.44,139.44,0,0,1,439.41,300"/><path class="cls-4" d="M299.89,160.59c-76.8,0-139.3,62.55-139.3,139.41a139.61,139.61,0,0,0,74.95,123.53L365.67,177A139,139,0,0,0,299.89,160.59Z"/></svg>