<svg xmlns="http://www.w3.org/2000/svg" xmlns:xlink="http://www.w3.org/1999/xlink" viewBox="0 0 600 600"><defs><style>.bb82d9e7-b9dd-4c72-af98-3836ef7c4d6d{fill:none;}.ba39417c-fb14-4a1f-8d09-f838ad95fd97{fill:url(#be3da285-3bcb-4d9c-8190-1df3a72140f8);}.aa2eaf07-05be-4273-a70d-5d7bb723f138{fill:#ffcc28;}.ba8cfcfa-bdf0-446a-a8f3-75fa9f6a3c2f{fill:url(#fec6e6d7-d138-493d-b4f3-2b4a327c434b);}.af3bc301-b2a7-4491-b9fd-8e3bd8d0e380{fill:#003267;}.bd988ff8-300a-431d-b244-b1474ceddb93{fill:url(#ab747bdf-14ec-4a63-a2bd-d8dc7eb1e5f2);}.e0990420-872a-45c4-8b8c-3afe4f858aa8{fill:url(#a09403fd-56eb-4c3f-85a1-3d52aa0a9c58);}</style><linearGradient id="be3da285-3bcb-4d9c-8190-1df3a72140f8" x1="267.23" y1="176.1" x2="428.76" y2="479.9" gradientUnits="userSpaceOnUse"><stop offset="0" stop-color="#142649" stop-opacity="0.5"/><stop offset="1" stop-color="#142649" stop-opacity="0"/></linearGradient><linearGradient id="fec6e6d7-d138-493d-b4f3-2b4a327c434b" x1="146.17" y1="195.42" x2="299.2" y2="276.78" gradientUnits="userSpaceOnUse"><stop offset="0" stop-color="#fff" stop-opacity="0.6"/><stop offset="1" stop-color="#fff" stop-opacity="0.2"/></linearGradient><linearGradient id="ab747bdf-14ec-4a63-a2bd-d8dc7eb1e5f2" x1="181.42" y1="209.74" x2="230.57" y2="258.89" gradientUnits="userSpaceOnUse"><stop offset="0" stop-color="#fff" stop-opacity="0.3"/><stop offset="1" stop-color="#fff" stop-opacity="0"/></linearGradient><linearGradient id="a09403fd-56eb-4c3f-85a1-3d52aa0a9c58" x1="330.13" y1="207.56" x2="377.6" y2="255.03" xlink:href="#ab747bdf-14ec-4a63-a2bd-d8dc7eb1e5f2"/></defs><g id="e49ad49e-6f7c-47b6-a836-5ded036259bb" data-name="cuadrados blancos"><rect class="bb82d9e7-b9dd-4c72-af98-3836ef7c4d6d" width="600" height="600"/></g><g id="a06d70ca-917c-4bde-8faa-a25c08447abd" data-name="Capa 11"><path class="ba39417c-fb14-4a1f-8d09-f838ad95fd97" d="M520,327.9A172,172,0,1,1,347.89,156,172,172,0,0,1,520,327.9"/><path class="aa2eaf07-05be-4273-a70d-5d7bb723f138" d="M470,276.2c0,95.09-77.12,172-171.87,172S126,371,126,276.2s77.12-172,171.87-172h0c95,0,172.13,76.92,172.13,172"/><path class="ba8cfcfa-bdf0-446a-a8f3-75fa9f6a3c2f" d="M297.87,104.2c-94.75,0-171.87,77.18-171.87,172,0,66.1,37.6,123.62,92.47,152.41L379,124.47A171.62,171.62,0,0,0,297.87,104.2Z"/><path class="af3bc301-b2a7-4491-b9fd-8e3bd8d0e380" d="M293.37,327.61a133.88,133.88,0,0,1-38.19-5.25,7.61,7.61,0,0,0-9.85,7.24h0c0,19.13,21.51,34.63,48,34.63s48-15.5,48-34.63h0a7.61,7.61,0,0,0-9.85-7.24A133.88,133.88,0,0,1,293.37,327.61Z"/><path class="af3bc301-b2a7-4491-b9fd-8e3bd8d0e380" d="M387.65,197.66c-32.84,0-77.88,14.87-89.65,14.87s-56.81-14.87-89.65-14.87-52.83,5.11-52.83,5.11v21.75s4.67,2,4.67,8.87c0,39.07,18,62.81,66.57,62.81,65,0,48.39-65.25,71.24-65.25s6.2,65.25,71.24,65.25c48.6,0,66.57-23.74,66.57-62.81,0-6.88,4.67-8.87,4.67-8.87V202.77S420.5,197.66,387.65,197.66Z"/><path class="bd988ff8-300a-431d-b244-b1474ceddb93" d="M208.45,207.66c-5.82,0-12.67.35-18.72.77A20,20,0,0,0,171.3,225.3a80.8,80.8,0,0,0-1,8.09c0,17.88,4,30.65,12.22,39.07,5.42,5.55,13.09,9.43,22.88,11.62L245.33,212C232.77,209.58,219.68,207.66,208.45,207.66Z"/><path class="e0990420-872a-45c4-8b8c-3afe4f858aa8" d="M387.65,207.66c-19.41,0-44.36,5.74-62.58,9.92l-4.05.93a8.5,8.5,0,0,0-5.21,12.91l.1.17c2.93,4.68,4.86,10.45,6.92,16.57,4.78,14.24,9.7,28.85,26.63,35l41.83-75.46C390.05,207.68,388.83,207.66,387.65,207.66Z"/></g></svg>