<svg id="bae4a15d-d1cc-48f6-82e6-61021702e9b2" data-name="Contenido" xmlns="http://www.w3.org/2000/svg" xmlns:xlink="http://www.w3.org/1999/xlink" viewBox="0 0 600 600"><defs><style>.a2702c33-904a-437d-a602-00fcaa66af18{fill:url(#fc404a1f-3153-4d3f-a88b-8920b43e42bc);}.a5edb9a2-63e8-4a7e-a839-5739422d828e{fill:url(#a12d99f9-fb8b-4fad-96be-4bb99bb53879);}.bde826b9-8b51-4830-bc4b-ce14cad178a0{fill:url(#ec498b17-42ff-479d-8701-eff6bb62ef84);}.b66fd69a-1cc5-469a-8169-68b8a797b099{fill:url(#e5930675-fb2b-4f6a-8ebb-315f32d018be);}.bd4867f2-776c-46e6-abd2-5409f6cdb791{fill:url(#f4012d1f-98d5-4d4f-9632-6b841a8a6fd7);}.ac560eb4-8cb2-48a3-bed4-b219f7745b97{fill:url(#f71a604f-dae7-4206-ad26-dd723796456e);}.fbc7b06e-5baa-432a-925d-697630df937c{fill:url(#b17aa1b6-a9ae-40c6-92be-d4437459f767);}.e2ceab1b-a74c-4724-8e4e-3f3d5bddfcb2{fill:url(#eebdd622-0ce5-4f65-b614-955aacdbba69);}.e3074923-5765-45bd-a78e-325ce8570462{fill:#f8cd51;}.fe5e6d72-ebb1-4cbc-9102-86ccc8f25473{fill:#fade8e;}.a24f0f72-d00d-40cd-b8d3-b7c9de97ab4c{fill:url(#ae71d955-9e6b-4f98-b6f5-abb9dfeaa13a);}.b28802b1-f7a9-4fdb-9118-0f4a6e0644ec{fill:#1464a5;}.e39bf044-f03f-4ccc-a363-c79706bae158{fill:none;}</style><linearGradient id="fc404a1f-3153-4d3f-a88b-8920b43e42bc" x1="70.94" y1="99.32" x2="321.7" y2="570.93" gradientUnits="userSpaceOnUse"><stop offset="0" stop-color="#1c2645"/><stop offset="0" stop-color="#1c2645" stop-opacity="0.5"/><stop offset="1" stop-color="#1c2645" stop-opacity="0"/></linearGradient><linearGradient id="a12d99f9-fb8b-4fad-96be-4bb99bb53879" x1="195.21" y1="14.59" x2="464.37" y2="520.83" xlink:href="#fc404a1f-3153-4d3f-a88b-8920b43e42bc"/><linearGradient id="ec498b17-42ff-479d-8701-eff6bb62ef84" x1="63.8" y1="62.38" x2="328.47" y2="560.17" xlink:href="#fc404a1f-3153-4d3f-a88b-8920b43e42bc"/><linearGradient id="e5930675-fb2b-4f6a-8ebb-315f32d018be" x1="201.95" y1="77.28" x2="429.01" y2="504.33" xlink:href="#fc404a1f-3153-4d3f-a88b-8920b43e42bc"/><linearGradient id="f4012d1f-98d5-4d4f-9632-6b841a8a6fd7" x1="60.81" y1="112.94" x2="291.99" y2="547.72" xlink:href="#fc404a1f-3153-4d3f-a88b-8920b43e42bc"/><linearGradient id="f71a604f-dae7-4206-ad26-dd723796456e" x1="134.66" y1="25.53" x2="393.25" y2="511.86" xlink:href="#fc404a1f-3153-4d3f-a88b-8920b43e42bc"/><linearGradient id="b17aa1b6-a9ae-40c6-92be-d4437459f767" x1="272.5" y1="76.21" x2="487.53" y2="480.62" xlink:href="#fc404a1f-3153-4d3f-a88b-8920b43e42bc"/><linearGradient id="eebdd622-0ce5-4f65-b614-955aacdbba69" x1="221.28" y1="126.84" x2="435.53" y2="529.79" xlink:href="#fc404a1f-3153-4d3f-a88b-8920b43e42bc"/><linearGradient id="ae71d955-9e6b-4f98-b6f5-abb9dfeaa13a" x1="142.78" y1="333.03" x2="392.65" y2="200.16" gradientTransform="translate(0 2)" gradientUnits="userSpaceOnUse"><stop offset="0" stop-color="#fff" stop-opacity="0.6"/><stop offset="1" stop-color="#fff" stop-opacity="0.2"/></linearGradient></defs><path class="a2702c33-904a-437d-a602-00fcaa66af18" d="M277,419.19a11.23,11.23,0,1,0,.95-22.44H192.29a11.23,11.23,0,0,0,0,22.44Z"/><path class="a5edb9a2-63e8-4a7e-a839-5739422d828e" d="M489.19,396.75H319.49a11.23,11.23,0,0,0,0,22.44H489.35a11.08,11.08,0,0,0,10.74-11.7A11.33,11.33,0,0,0,489.19,396.75Z"/><path class="bde826b9-8b51-4830-bc4b-ce14cad178a0" d="M351.88,450.47a11.27,11.27,0,0,0-11.22-11.22H199.24a11.23,11.23,0,0,0,0,22.44H340.66A11.37,11.37,0,0,0,351.88,450.47Z"/><path class="b66fd69a-1cc5-469a-8169-68b8a797b099" d="M382.85,461.53H418.4a11.22,11.22,0,0,0,0-22.43H383a11.23,11.23,0,0,0-.95,22.43Z"/><path class="bd4867f2-776c-46e6-abd2-5409f6cdb791" d="M284.09,481.6h-42.5a11.23,11.23,0,0,0,0,22.44h42.5a11.07,11.07,0,0,0,10.75-11.69A11.32,11.32,0,0,0,284.09,481.6Z"/><path class="ac560eb4-8cb2-48a3-bed4-b219f7745b97" d="M439.73,481.6H326.6a11.23,11.23,0,0,0,0,22.44H439.73a11.07,11.07,0,0,0,10.75-11.69A11.32,11.32,0,0,0,439.73,481.6Z"/><path class="fbc7b06e-5baa-432a-925d-697630df937c" d="M482.08,439.25H460.91a11.23,11.23,0,0,0,0,22.44h21.17a11.23,11.23,0,0,0,0-22.44Z"/><path class="e2ceab1b-a74c-4724-8e4e-3f3d5bddfcb2" d="M505,354.32a164,164,0,0,0-86.6-140.91l0-.11A164.2,164.2,0,0,0,177,354.31a11.23,11.23,0,0,0,.9,22.37H503.73A11.21,11.21,0,0,0,505,354.32Z"/><path class="e3074923-5765-45bd-a78e-325ce8570462" d="M474,341.62V337h0c0-90.54-73.47-164-164-164A164,164,0,0,0,146,337a42.31,42.31,0,0,0,.16,4.58Z"/><path class="fe5e6d72-ebb1-4cbc-9102-86ccc8f25473" d="M486.48,247.45c-47.57-93.39-159.59-133.68-255.66-91.81a6,6,0,0,1-7.75-2.84l-4.42-9.48a6,6,0,0,1,2.68-7.9h.32c106.82-46.77,232.12-1.74,284.74,102.23a5.87,5.87,0,0,1-2.69,7.9h-.16l-9.32,4.58A6,6,0,0,1,486.48,247.45Z"/><path class="fe5e6d72-ebb1-4cbc-9102-86ccc8f25473" d="M108.36,308.6l-10.27-1.43A6.1,6.1,0,0,1,93,300.54h0v-.16A219.85,219.85,0,0,1,162.24,174a5.84,5.84,0,0,1,8.37.47l.16.16,6.8,7.9a5.94,5.94,0,0,1-.48,8.22,197.61,197.61,0,0,0-61.94,113.14A6.13,6.13,0,0,1,108.36,308.6Z"/><path class="a24f0f72-d00d-40cd-b8d3-b7c9de97ab4c" d="M308.56,341.62,387.4,192.3c-79.95-42.66-179.34-12.32-222,67.63A164.07,164.07,0,0,0,146.12,337a42.31,42.31,0,0,0,.16,4.58Z"/><path class="b28802b1-f7a9-4fdb-9118-0f4a6e0644ec" d="M246,398.19a11.23,11.23,0,1,0,1-22.44H161.29a11.23,11.23,0,0,0,0,22.44Z"/><path class="b28802b1-f7a9-4fdb-9118-0f4a6e0644ec" d="M458.19,375.75H288.49a11.23,11.23,0,0,0,0,22.44H458.35a11.08,11.08,0,0,0,10.74-11.7A11.33,11.33,0,0,0,458.19,375.75Z"/><path class="b28802b1-f7a9-4fdb-9118-0f4a6e0644ec" d="M320.88,429.47a11.27,11.27,0,0,0-11.22-11.22H168.24a11.23,11.23,0,0,0,0,22.44H309.66A11.37,11.37,0,0,0,320.88,429.47Z"/><path class="b28802b1-f7a9-4fdb-9118-0f4a6e0644ec" d="M387.4,440.53a11.22,11.22,0,0,0,0-22.43H352a11.23,11.23,0,0,0-.95,22.43H387.4Z"/><path class="b28802b1-f7a9-4fdb-9118-0f4a6e0644ec" d="M253.09,460.6h-42.5a11.23,11.23,0,0,0,0,22.44h42.5a11.07,11.07,0,0,0,10.75-11.69A11.32,11.32,0,0,0,253.09,460.6Z"/><path class="b28802b1-f7a9-4fdb-9118-0f4a6e0644ec" d="M408.73,460.6H295.6a11.23,11.23,0,0,0,0,22.44H408.73a11.07,11.07,0,0,0,10.75-11.69,11.32,11.32,0,0,0-10.75-10.75Z"/><path class="b28802b1-f7a9-4fdb-9118-0f4a6e0644ec" d="M451.08,418.25H429.91a11.23,11.23,0,0,0,0,22.44h21.17a11.23,11.23,0,0,0,0-22.44Z"/><path class="b28802b1-f7a9-4fdb-9118-0f4a6e0644ec" d="M484,344.46a11.26,11.26,0,0,0-11.22-11.21H146.91a11.23,11.23,0,0,0,0,22.43H472.73A11.26,11.26,0,0,0,484,344.46Z"/><rect class="e39bf044-f03f-4ccc-a363-c79706bae158" width="600" height="600"/></svg>