<svg xmlns="http://www.w3.org/2000/svg" xmlns:xlink="http://www.w3.org/1999/xlink" viewBox="0 0 600 600"><defs><style>.b112ca65-b148-4a27-b2d4-af0de1b5ec3f{fill:none;}.a8fcf85f-2905-4884-9986-5c7473f02791{fill:url(#a6cd9aa9-66fd-4343-9656-a9c9c3c97aa9);}.efdae098-7245-4a13-92c0-795d57ba5d6e{fill:#ffcc28;}.f83532bc-0a4f-4270-9fdf-53f50ce23a18{fill:url(#ff1d0769-3d07-4726-83fa-4cf024150308);}.f67f672b-7f24-4d6b-9a41-bbcfe3f0fc1c{fill:#003267;}.f6db5ce0-6463-45e7-83e4-97171068ff72{fill:#cdeefe;}.b29a3a64-5cb1-4554-8125-2e80b00f1c46{fill:#ff9098;}.a7b309bb-2f69-425e-949b-97b269abfb24{fill:url(#b6562279-481e-490c-b906-bd0b5ff76476);}</style><linearGradient id="a6cd9aa9-66fd-4343-9656-a9c9c3c97aa9" x1="267.07" y1="176.1" x2="428.6" y2="479.9" gradientUnits="userSpaceOnUse"><stop offset="0" stop-color="#142649" stop-opacity="0.5"/><stop offset="1" stop-color="#142649" stop-opacity="0"/></linearGradient><linearGradient id="ff1d0769-3d07-4726-83fa-4cf024150308" x1="146.01" y1="195.42" x2="299.04" y2="276.78" gradientUnits="userSpaceOnUse"><stop offset="0" stop-color="#fff" stop-opacity="0.6"/><stop offset="1" stop-color="#fff" stop-opacity="0.2"/></linearGradient><linearGradient id="b6562279-481e-490c-b906-bd0b5ff76476" x1="332.49" y1="410.71" x2="309.26" y2="410.71" gradientUnits="userSpaceOnUse"><stop offset="0" stop-color="#d43a5d" stop-opacity="0.6"/><stop offset="0.83" stop-color="#d43a5d" stop-opacity="0.1"/></linearGradient></defs><g id="f1f33212-650b-4671-a170-d47696270f3f" data-name="cuadrados blancos"><rect class="b112ca65-b148-4a27-b2d4-af0de1b5ec3f" width="600" height="600"/></g><g id="b02cf26e-57b7-41fc-8728-42ec26969a13" data-name="Capa 10"><path class="a8fcf85f-2905-4884-9986-5c7473f02791" d="M519.84,327.9A172,172,0,1,1,347.73,156,172,172,0,0,1,519.84,327.9"/><path class="efdae098-7245-4a13-92c0-795d57ba5d6e" d="M469.84,276.2c0,95.09-77.12,172-171.87,172S125.84,371,125.84,276.2s77.12-172,171.87-172h0c95,0,172.13,76.92,172.13,172"/><path class="f83532bc-0a4f-4270-9fdf-53f50ce23a18" d="M297.71,104.2c-94.75,0-171.87,77.18-171.87,172,0,66.1,37.6,123.62,92.47,152.41L378.86,124.47A171.59,171.59,0,0,0,297.71,104.2Z"/><path class="f67f672b-7f24-4d6b-9a41-bbcfe3f0fc1c" d="M297.84,273.65a54.55,54.55,0,0,0-54.55,54.55v38a54.55,54.55,0,0,0,109.1,0v-38A54.55,54.55,0,0,0,297.84,273.65Z"/><path class="f6db5ce0-6463-45e7-83e4-97171068ff72" d="M255.34,294a236.53,236.53,0,0,0,84.77-.3,54.42,54.42,0,0,0-41.88-20.07h-.6A54.39,54.39,0,0,0,255.34,294Z"/><path class="b29a3a64-5cb1-4554-8125-2e80b00f1c46" d="M262.86,408.05a54.55,54.55,0,0,0,69.64.28,67.23,67.23,0,0,0-69.64-.28Z"/><path class="a7b309bb-2f69-425e-949b-97b269abfb24" d="M332.49,408.33a65.49,65.49,0,0,0-13.84-6.45l-9.39,17.67A54.45,54.45,0,0,0,332.49,408.33Z"/><path class="f67f672b-7f24-4d6b-9a41-bbcfe3f0fc1c" d="M229.34,175.6A26,26,0,0,1,242.83,172a1.8,1.8,0,0,0,1.37-3,16.77,16.77,0,0,0-28,16.2,1.8,1.8,0,0,0,3.32.33A25.93,25.93,0,0,1,229.34,175.6Z"/><path class="f67f672b-7f24-4d6b-9a41-bbcfe3f0fc1c" d="M366,175.6a25.93,25.93,0,0,1,9.87,9.86,1.8,1.8,0,0,0,3.32-.33,16.76,16.76,0,0,0-28-16.2,1.8,1.8,0,0,0,1.36,3A25.93,25.93,0,0,1,366,175.6Z"/><circle class="f67f672b-7f24-4d6b-9a41-bbcfe3f0fc1c" cx="251.71" cy="221.08" r="27"/><circle class="f67f672b-7f24-4d6b-9a41-bbcfe3f0fc1c" cx="343.98" cy="221.08" r="27"/></g></svg>