<svg id="Contenido" xmlns="http://www.w3.org/2000/svg" xmlns:xlink="http://www.w3.org/1999/xlink" viewBox="0 0 600 600"><defs><style>.cls-1{fill:url(#Degradado_sin_nombre_47);}.cls-2{fill:#d4edfc;}.cls-3{fill:#f7b27f;}.cls-4{fill:#d44b50;}.cls-5{fill:#eaf9fa;}.cls-6{fill:#1464a5;}.cls-7{fill:url(#Degradado_sin_nombre_92);}.cls-8{fill:url(#Degradado_sin_nombre_76);}</style><linearGradient id="Degradado_sin_nombre_47" x1="276.32" y1="261.61" x2="389.93" y2="475.27" gradientUnits="userSpaceOnUse"><stop offset="0" stop-color="#1a2746" stop-opacity="0.5"/><stop offset="1" stop-color="#1a2746" stop-opacity="0"/></linearGradient><linearGradient id="Degradado_sin_nombre_92" x1="327.49" y1="305.25" x2="250.72" y2="305.25" gradientUnits="userSpaceOnUse"><stop offset="0" stop-color="#043263" stop-opacity="0.4"/><stop offset="1" stop-color="#043263" stop-opacity="0.1"/></linearGradient><linearGradient id="Degradado_sin_nombre_76" x1="465.85" y1="284.42" x2="357.9" y2="284.42" gradientUnits="userSpaceOnUse"><stop offset="0" stop-color="#d8722c" stop-opacity="0.6"/><stop offset="1" stop-color="#d8722c" stop-opacity="0.2"/></linearGradient></defs><title>values-day</title><path class="cls-1" d="M515.84,390.8a130.23,130.23,0,0,0-37.48-82,128.85,128.85,0,0,0-43.14-28.66,133.63,133.63,0,0,0-50.61-9.86H361.83v-.14a3,3,0,0,0-2.88-3q-19.84-.76-39.68,0a3,3,0,0,0-2.89,3v.14H293.61A133.72,133.72,0,0,0,243,280.12a128.81,128.81,0,0,0-43.13,28.66,130.23,130.23,0,0,0-37.48,82v0a3.39,3.39,0,0,0,3.39,3.65h16.41v0a3,3,0,0,0,3,3.19h6.88c0,1-.05,1.94-.05,2.92v9.64a23,23,0,0,0,23,23H463.2a23,23,0,0,0,23-23v-9.64c0-1,0-1.95-.05-2.92H493a3,3,0,0,0,3-3.19v0h16.32a3.46,3.46,0,0,0,3.49-3.65Zm-333.52,1.54v-.06a.28.28,0,0,0,0-.09A.76.76,0,0,1,182.32,392.34Zm313.56-.15s0,.06,0,.09v.06S495.88,392.24,495.88,392.19Z"/><path class="cls-2" d="M242.37,250.26h93.48A100.35,100.35,0,0,1,436.2,350.62v9.65a23,23,0,0,1-23,23H165a23,23,0,0,1-23-23v-9.65A100.35,100.35,0,0,1,242.37,250.26Z"/><path class="cls-3" d="M465.84,340.8a130.23,130.23,0,0,0-37.48-82,128.85,128.85,0,0,0-43.14-28.66,133.63,133.63,0,0,0-50.61-9.86h-91A133.72,133.72,0,0,0,193,230.12a128.81,128.81,0,0,0-43.13,28.66,130.23,130.23,0,0,0-37.48,82v0a3.39,3.39,0,0,0,3.39,3.65h16.88a5.24,5.24,0,0,1-.33-2.21,109.52,109.52,0,0,1,31.55-69.23c21-21.23,49.88-32.79,79.74-32.79h91c29.86,0,58.74,11.56,79.73,32.79a109.52,109.52,0,0,1,31.55,69.23,5.08,5.08,0,0,1-.33,2.21h16.79a3.46,3.46,0,0,0,3.49-3.65Z"/><path class="cls-2" d="M242.37,250.26h93.48A100.35,100.35,0,0,1,436.2,350.62v9.65a23,23,0,0,1-23,23H165a23,23,0,0,1-23-23v-9.65A100.35,100.35,0,0,1,242.37,250.26Z"/><path class="cls-4" d="M242.37,250.26h93.48a100.34,100.34,0,0,1,100.3,97.45H443a3,3,0,0,0,3-3.19,109.5,109.5,0,0,0-31.87-71.65c-21-21.13-49.78-32.61-79.55-32.61h-91c-29.78,0-58.58,11.48-79.56,32.61a109.5,109.5,0,0,0-31.87,71.65,3,3,0,0,0,3,3.19h6.88A100.36,100.36,0,0,1,242.37,250.26Z"/><rect class="cls-5" x="386.71" y="321.25" width="18" height="8" rx="4" transform="translate(577.81 -153.51) rotate(71.41)"/><rect class="cls-5" x="188.22" y="291.1" width="18" height="8" rx="4" transform="translate(266.43 -53.02) rotate(45)"/><path class="cls-6" d="M324.56,217.16q-35.44-.85-70.91,0a3,3,0,0,0-2.93,3V383.26h76.77V220.17A3,3,0,0,0,324.56,217.16Z"/><rect class="cls-5" x="352.2" y="291.1" width="18" height="8" rx="4" transform="translate(785.48 101.35) rotate(116.21)"/><rect class="cls-5" x="358.53" y="352.29" width="18" height="8" rx="4"/><rect class="cls-5" x="213.58" y="318.51" width="18" height="8" rx="4" transform="translate(-45.66 36.85) rotate(-8.59)"/><rect class="cls-5" x="173.71" y="345.77" width="18" height="8" rx="4" transform="translate(576.98 366.42) rotate(120)"/><polygon class="cls-7" points="250.72 372.19 250.72 383.26 327.49 383.26 327.49 227.24 250.72 372.19"/><path class="cls-8" d="M465.84,340.8a130.23,130.23,0,0,0-37.48-82,128.85,128.85,0,0,0-43.14-28.66,133.42,133.42,0,0,0-17.59-5.77l-9.73,18.3a110.69,110.69,0,0,1,56.44,30.4,109.52,109.52,0,0,1,31.55,69.23,5.08,5.08,0,0,1-.33,2.21h16.79a3.46,3.46,0,0,0,3.49-3.65Z"/></svg>