<svg xmlns="http://www.w3.org/2000/svg" xmlns:xlink="http://www.w3.org/1999/xlink" viewBox="0 0 600 600"><defs><style>.cls-1{fill:none;}.cls-2{fill:#eaf9fa;}.cls-3{fill:url(#Degradado_sin_nombre_99);}.cls-4{fill:#d4edfc;}.cls-5{fill:#f7b27f;}.cls-6{fill:#d44b50;}.cls-7{fill:#004481;}.cls-8{fill:url(#Degradado_sin_nombre_114);}.cls-9{fill:url(#Degradado_sin_nombre_136);}</style><linearGradient id="Degradado_sin_nombre_99" x1="276.33" y1="-5871.6" x2="389.92" y2="-6085.2" gradientTransform="matrix(1, 0, 0, -1, 0, -5610)" gradientUnits="userSpaceOnUse"><stop offset="0" stop-color="#1a2746" stop-opacity="0.5"/><stop offset="1" stop-color="#1a2746" stop-opacity="0"/></linearGradient><linearGradient id="Degradado_sin_nombre_114" x1="327.49" y1="-5915.25" x2="250.72" y2="-5915.25" gradientTransform="matrix(1, 0, 0, -1, 0, -5610)" gradientUnits="userSpaceOnUse"><stop offset="0" stop-color="#072146" stop-opacity="0.8"/><stop offset="1" stop-color="#072146" stop-opacity="0"/></linearGradient><linearGradient id="Degradado_sin_nombre_136" x1="465.85" y1="-5894.44" x2="357.9" y2="-5894.44" gradientTransform="matrix(1, 0, 0, -1, 0, -5610)" gradientUnits="userSpaceOnUse"><stop offset="0" stop-color="#d8722c" stop-opacity="0.6"/><stop offset="1" stop-color="#d8722c" stop-opacity="0.2"/></linearGradient></defs><title>11</title><g id="Cuadrados_Blancos" data-name="Cuadrados Blancos"><rect class="cls-1" width="600" height="600"/></g><g id="Capa_85" data-name="Capa 85"><path class="cls-2" d="M196.51,288.74l7.07,7.07a4,4,0,0,1,0,5.66h0a4,4,0,0,1-5.65,0l-7.08-7.07a4,4,0,0,1,0-5.66h0A4,4,0,0,1,196.51,288.74Z"/><path class="cls-2" d="M188.68,347.44l-5,8.66a4,4,0,0,1-5.46,1.46h0a4,4,0,0,1-1.47-5.46l5-8.66a4,4,0,0,1,5.47-1.47h0A4,4,0,0,1,188.68,347.44Z"/></g><g id="Capa_86" data-name="Capa 86"><path class="cls-3" d="M515.84,390.8a130.23,130.23,0,0,0-37.48-82,128.84,128.84,0,0,0-43.14-28.66,133.65,133.65,0,0,0-50.61-9.86H361.83v-.14a3,3,0,0,0-2.88-3q-19.84-.76-39.68,0a3,3,0,0,0-2.89,3v.14H293.61A133.82,133.82,0,0,0,243,280.12a129.79,129.79,0,0,0-80.61,110.66h0a3.39,3.39,0,0,0,3.12,3.64h16.68a3,3,0,0,0,2.8,3.18h7.08c0,1,0,1.94,0,2.92v9.64a23,23,0,0,0,23,23H463.2a23,23,0,0,0,23-23v-9.64c0-1,0-2-.05-2.92H493a3,3,0,0,0,3-3c0-.07,0-.13,0-.2h16.32a3.46,3.46,0,0,0,3.5-3.42c0-.08,0-.15,0-.23Zm-333.52,1.54v0Zm313.56-.15v0Z"/><path class="cls-4" d="M242.37,250.26h93.48A100.35,100.35,0,0,1,436.2,350.61h0v9.65a23,23,0,0,1-23,23H165a23,23,0,0,1-23-23v-9.65A100.35,100.35,0,0,1,242.34,250.26Z"/><path class="cls-5" d="M465.84,340.8a130.23,130.23,0,0,0-37.48-82,128.84,128.84,0,0,0-43.14-28.66,133.65,133.65,0,0,0-50.61-9.86h-91A133.82,133.82,0,0,0,193,230.12a129.79,129.79,0,0,0-80.61,110.66h0a3.39,3.39,0,0,0,3.12,3.64h17.15a5.2,5.2,0,0,1-.33-2.21A109.55,109.55,0,0,1,163.88,273c21-21.23,49.88-32.79,79.74-32.79h91c29.86,0,58.74,11.56,79.73,32.79a109.55,109.55,0,0,1,31.55,69.23,5,5,0,0,1-.33,2.21h16.79a3.46,3.46,0,0,0,3.5-3.42c0-.08,0-.15,0-.23Z"/><path class="cls-4" d="M242.37,250.26h93.48A100.35,100.35,0,0,1,436.2,350.61h0v9.65a23,23,0,0,1-23,23H165a23,23,0,0,1-23-23v-9.65A100.35,100.35,0,0,1,242.34,250.26Z"/><path class="cls-6" d="M242.37,250.26h93.48a100.34,100.34,0,0,1,100.3,97.45H443a3,3,0,0,0,3-3c0-.07,0-.13,0-.2a109.5,109.5,0,0,0-31.87-71.65,112,112,0,0,0-79.55-32.61h-91c-29.78,0-58.58,11.48-79.56,32.61a109.5,109.5,0,0,0-31.87,71.65,3,3,0,0,0,2.8,3.18H142A100.36,100.36,0,0,1,242.37,250.26Z"/><path class="cls-2" d="M397.88,319.23l3.19,9.48a4,4,0,0,1-2.52,5.06h0a4,4,0,0,1-5.07-2.51l-3.19-9.48a4,4,0,0,1,2.52-5.07h0A4,4,0,0,1,397.88,319.23Z"/><path class="cls-7" d="M324.56,217.16q-35.44-.85-70.91,0a3,3,0,0,0-2.93,3v163.1h76.77V220.17A3,3,0,0,0,324.56,217.16Z"/><path class="cls-2" d="M367,292.36l-4.42,9a4,4,0,0,1-5.35,1.82h0a4,4,0,0,1-1.82-5.35l4.41-9a4,4,0,0,1,5.36-1.82h0A4,4,0,0,1,367,292.36Z"/><path class="cls-2" d="M362.53,352.29h10a4,4,0,0,1,4,4h0a4,4,0,0,1-4,4h-10a4,4,0,0,1-4-4h0A4,4,0,0,1,362.53,352.29Z"/><path class="cls-2" d="M217.05,319.29l9.89-1.49a4,4,0,0,1,4.55,3.35h0a4,4,0,0,1-3.35,4.56l-9.89,1.49a4,4,0,0,1-4.55-3.36h0A4,4,0,0,1,217.05,319.29Z"/><polygon class="cls-8" points="250.72 372.19 250.72 383.26 327.49 383.26 327.49 227.24 250.72 372.19"/><path class="cls-9" d="M465.84,340.8a130.23,130.23,0,0,0-37.48-82,128.84,128.84,0,0,0-43.14-28.66,132.48,132.48,0,0,0-17.59-5.77l-9.73,18.3a109.95,109.95,0,0,1,88,99.63,5,5,0,0,1-.33,2.21h16.79a3.46,3.46,0,0,0,3.5-3.42c0-.08,0-.15,0-.23Z"/></g></svg>