<svg id="Capa_1" data-name="Capa 1" xmlns="http://www.w3.org/2000/svg" xmlns:xlink="http://www.w3.org/1999/xlink" viewBox="0 0 600 600"><defs><style>.cls-1{fill:url(#Degradado_sin_nombre_6);}.cls-2{fill:#2dcccd;}.cls-3{fill:#1464a5;}.cls-4{fill:#004481;}.cls-5{fill:#39cbcb;}.cls-6{fill:url(#Degradado_sin_nombre_5);}.cls-7{fill:url(#Degradado_sin_nombre_5-2);}</style><linearGradient id="Degradado_sin_nombre_6" x1="250.35" y1="92.61" x2="433.35" y2="436.79" gradientUnits="userSpaceOnUse"><stop offset="0" stop-color="#192647"/><stop offset="0" stop-color="#192647" stop-opacity="0.5"/><stop offset="1" stop-color="#192647" stop-opacity="0"/></linearGradient><linearGradient id="Degradado_sin_nombre_5" x1="906.37" y1="232.82" x2="816.4" y2="232.82" gradientTransform="translate(-343.09 -159.1) rotate(4.57)" gradientUnits="userSpaceOnUse"><stop offset="0" stop-color="#028484" stop-opacity="0.5"/><stop offset="1" stop-color="#028484" stop-opacity="0"/></linearGradient><linearGradient id="Degradado_sin_nombre_5-2" x1="815.1" y1="256.23" x2="739.38" y2="256.23" xlink:href="#Degradado_sin_nombre_5"/></defs><path class="cls-1" d="M567.52,173.7c5.62-12.87,8.86-29.1,8.23-49.59a3.09,3.09,0,0,0-.19-.89s0,0,0-.08a2.69,2.69,0,0,0-.17-.34l-.09-.12a2.57,2.57,0,0,0-.21-.24l-.09-.07-.12-.11h0a3.37,3.37,0,0,0-2-.49c-85.14.85-94.73,64.94-95.16,90.5l-.12.17c-5-59.16-57.45-59.37-68.48-58.75a2.25,2.25,0,0,0-2.08,1.81.73.73,0,0,0-.08.25c-.27,10.92,1.5,65.6,63.43,67L398.74,325.28a37.9,37.9,0,0,0-42.82,4.24l-57.36-45.69a37.9,37.9,0,1,0-63.2,4.33l-67.89,82.6a38,38,0,1,0,12.36,10.16l67.68-82.34a37.9,37.9,0,0,0,40.41-2.76l58.24,46.38a37.91,37.91,0,1,0,64.69-6.32L490,222.56C510.15,221.26,550.21,213.53,567.52,173.7Z"/><rect class="cls-2" x="88.52" y="296.88" width="177.58" height="16" transform="translate(-170.81 248.3) rotate(-50.59)"/><rect class="cls-2" x="314.64" y="249.49" width="180.53" height="16" transform="translate(-38.08 441.92) rotate(-55.06)"/><rect class="cls-2" x="285.45" y="207.49" width="16" height="152.79" transform="translate(-111.43 336.55) rotate(-51.46)"/><circle class="cls-3" cx="120.15" cy="374.48" r="37.9"/><circle class="cls-4" cx="120.15" cy="374.48" r="20.34"/><circle class="cls-3" cx="235.54" cy="235.23" r="37.9"/><circle class="cls-4" cx="235.54" cy="235.23" r="20.34"/><circle class="cls-3" cx="350.4" cy="328.45" r="37.9"/><circle class="cls-4" cx="350.4" cy="328.45" r="20.34"/><path class="cls-5" d="M542.86,91.78c-97.61,1-95.92,85.07-95,98.94a2.21,2.21,0,0,0,2.12,2c14,.47,98.56-.72,95.74-98.45C545.69,92.62,544.84,91.78,542.86,91.78Z"/><path class="cls-6" d="M449.51,192.6c14,.47,99.24-.46,96.24-98.49a2.27,2.27,0,0,0-.91-1.85,1.92,1.92,0,0,0-1,.58l-95,98.26a.88.88,0,0,0,0,1.24h0A1,1,0,0,0,449.51,192.6Z"/><path class="cls-5" d="M448,191.45c-.22-68.15-57.3-68.4-68.86-67.75a2.26,2.26,0,0,0-2.13,2.22c-.25,11.64,1.92,69.2,70,66.79C447.79,192.63,447.91,192.2,448,191.45Z"/><path class="cls-7" d="M376.94,125.76c-.28,11.31,1.62,69.47,70.13,67a.47.47,0,0,0,.51-.41.52.52,0,0,0-.18-.43l-69-66.67a.86.86,0,0,0-1.18,0h0A.8.8,0,0,0,376.94,125.76Z"/></svg>