<svg id="Contenido" xmlns="http://www.w3.org/2000/svg" xmlns:xlink="http://www.w3.org/1999/xlink" viewBox="0 0 600 600"><defs><style>.cls-1{fill:url(#Degradado_sin_nombre);}.cls-2{fill:#39cbcb;}.cls-3{fill:url(#Degradado_sin_nombre_2);}.cls-4{fill:url(#Degradado_sin_nombre_3);}.cls-5{fill:#043263;}.cls-6{fill:#1464a5;}.cls-7{fill:url(#Degradado_sin_nombre_4);}.cls-8{fill:url(#Degradado_sin_nombre_5);}.cls-9{fill:#1973b8;}.cls-10{fill:#004481;}.cls-11{fill:none;}</style><linearGradient id="Degradado_sin_nombre" x1="299.65" y1="412.71" x2="459.73" y2="111.66" gradientTransform="matrix(1, 0, 0, -1, 0, 602)" gradientUnits="userSpaceOnUse"><stop offset="0" stop-color="#192647" stop-opacity="0.5"/><stop offset="1" stop-color="#192647" stop-opacity="0"/></linearGradient><linearGradient id="Degradado_sin_nombre_2" x1="862.88" y1="553.94" x2="736.38" y2="553.94" gradientTransform="translate(-324.43 -441.75) rotate(4.57)" gradientUnits="userSpaceOnUse"><stop offset="0" stop-color="#028484" stop-opacity="0.5"/><stop offset="1" stop-color="#028484" stop-opacity="0"/></linearGradient><linearGradient id="Degradado_sin_nombre_3" x1="363.34" y1="679.18" x2="257.83" y2="679.18" gradientTransform="translate(590.52 -529.08) rotate(45)" xlink:href="#Degradado_sin_nombre_2"/><linearGradient id="Degradado_sin_nombre_4" x1="420" y1="304.57" x2="208.4" y2="304.57" gradientTransform="matrix(1, 0, 0, -1, 0, 628)" gradientUnits="userSpaceOnUse"><stop offset="0" stop-color="#192647"/><stop offset="0" stop-color="#043263" stop-opacity="0.3"/><stop offset="1" stop-color="#043263" stop-opacity="0"/></linearGradient><linearGradient id="Degradado_sin_nombre_5" x1="7584" y1="309.46" x2="7655.17" y2="264.43" gradientTransform="translate(8012.84 628) rotate(180)" gradientUnits="userSpaceOnUse"><stop offset="0" stop-color="#043263"/><stop offset="1" stop-color="#043263" stop-opacity="0"/></linearGradient></defs><title>sostenibilidad</title><path class="cls-1" d="M548.39,158.87c0-2.3,0-4.63-.1-7a1.51,1.51,0,0,0-.59-1.12c-.63-.9-1.76-1.35-3.48-1.35-92.79.92-122.13,54.94-131,96.23h-1.4c17.29-51.94-24.49-87.46-34.94-95.36a3.13,3.13,0,0,0-3.93.14.65.65,0,0,0-.16.13l-.09.1-.06.05c-1.28,1.45-3.13,3.64-5.24,6.46a1,1,0,0,1-.13.16l-.58.79-.32.43-.42.59-.5.69-.27.38-.66,1-.13.18c-11.69,17-27.22,49.23-10.59,84.3H203.43A19.63,19.63,0,0,0,183.8,265.3h0V471.84a19.63,19.63,0,0,0,19.63,19.63H452.7a19.65,19.65,0,0,0,19.64-19.63V409.18h9.47a8.53,8.53,0,0,0,8-8.52v-49.1A8.57,8.57,0,0,0,481.3,343h-9V282.51C509.17,268.77,548.65,236,548.39,158.87Z"/><path class="cls-2" d="M491.93,104.28c-138.07,1.37-135.68,120.28-134.34,139.93a3.09,3.09,0,0,0,3,2.88c19.78.66,139.41-1,135.42-139.25C496,105.46,494.73,104.28,491.93,104.28Z"/><path class="cls-3" d="M360.59,246.48c19.85.67,139.63-1,135.4-139.74a1.51,1.51,0,0,0-1.56-1.43,1.46,1.46,0,0,0-1,.46L359.73,244.36a1.27,1.27,0,0,0,0,1.77A1.25,1.25,0,0,0,360.59,246.48Z"/><path class="cls-2" d="M336.77,239.24c61.16-72.67.7-124.36-12.19-134.09a3.12,3.12,0,0,0-4.23.42c-10.76,12.15-60.3,75.31,14.24,134.06C335.54,240.31,336.06,240,336.77,239.24Z"/><path class="cls-4" d="M320.49,105.41c-10.49,11.77-60.87,75.33,14.23,134.36a.65.65,0,0,0,.91,0h0a.62.62,0,0,0,.18-.63L322.57,106a1.18,1.18,0,0,0-1.28-1.07,1.19,1.19,0,0,0-.8.42Z"/><rect class="cls-5" x="377.27" y="331.54" width="52.24" height="32.52"/><path class="cls-6" d="M400.4,446.36H151.13a19.63,19.63,0,0,1-19.63-19.63h0V220.14a19.65,19.65,0,0,1,19.63-19.64H400.4A19.64,19.64,0,0,1,420,220.14V426.73A19.63,19.63,0,0,1,400.4,446.36Z"/><path class="cls-7" d="M400.4,200.5h-57l-135,245.86h192A19.63,19.63,0,0,0,420,426.73V220.14A19.64,19.64,0,0,0,400.4,200.5Z"/><path class="cls-8" d="M377.27,363.81l44.3.26V314.73h-44.3a24.5,24.5,0,0,0-24.5,24.5h0a24.48,24.48,0,0,0,24.36,24.58Z"/><path class="cls-9" d="M377.27,347h60.27V306.44a8.56,8.56,0,0,0-8.54-8.53H377.27a24.5,24.5,0,0,0-24.5,24.5h0A24.52,24.52,0,0,0,377.22,347Z"/><circle class="cls-5" cx="429" cy="355.53" r="8.54"/><circle class="cls-10" cx="377.27" cy="322.49" r="15.37"/><path class="cls-9" d="M437.54,355.53h0V347H429A8.57,8.57,0,0,1,437.54,355.53Z"/><rect class="cls-11" width="600" height="600"/><rect class="cls-11" width="600" height="600"/></svg>