<svg id="Contenido" xmlns="http://www.w3.org/2000/svg" xmlns:xlink="http://www.w3.org/1999/xlink" viewBox="0 0 600 600"><defs><style>.cls-1{fill:url(#Degradado_sin_nombre);}.cls-2{fill:#39cbcb;}.cls-3{fill:url(#Degradado_sin_nombre_2);}.cls-4{fill:#f8cd50;}.cls-5{fill:url(#Degradado_sin_nombre_10);}.cls-6{fill:url(#Degradado_sin_nombre_10-2);}.cls-7{fill:#2dcccd;}.cls-8{fill:#1464a5;}.cls-9{fill:#49a5e6;}.cls-10{fill:#d4edfc;}.cls-11{fill:url(#Degradado_sin_nombre_9);}.cls-12{fill:url(#Degradado_sin_nombre_8);}.cls-13{fill:#028484;}.cls-14{fill:url(#Degradado_sin_nombre_7);}.cls-15{fill:url(#Degradado_sin_nombre_2-2);}.cls-16{fill:none;}</style><linearGradient id="Degradado_sin_nombre" x1="262.91" y1="445.44" x2="435.59" y2="120.68" gradientTransform="matrix(1, 0, 0, -1, 0, 602)" gradientUnits="userSpaceOnUse"><stop offset="0" stop-color="#192647" stop-opacity="0.5"/><stop offset="1" stop-color="#192647" stop-opacity="0"/></linearGradient><linearGradient id="Degradado_sin_nombre_2" x1="801.65" y1="413.3" x2="732.87" y2="413.3" gradientTransform="translate(-326.82 -332.4) rotate(4.57)" gradientUnits="userSpaceOnUse"><stop offset="0" stop-color="#028484" stop-opacity="0.5"/><stop offset="1" stop-color="#028484" stop-opacity="0"/></linearGradient><linearGradient id="Degradado_sin_nombre_10" x1="301.98" y1="170.66" x2="408.58" y2="277.26" gradientTransform="translate(0 4.05)" gradientUnits="userSpaceOnUse"><stop offset="0" stop-color="#fff" stop-opacity="0.5"/><stop offset="1" stop-color="#edf8f9" stop-opacity="0.2"/><stop offset="1" stop-color="#fff" stop-opacity="0"/></linearGradient><linearGradient id="Degradado_sin_nombre_10-2" x1="218.52" y1="235.36" x2="330.22" y2="347.06" xlink:href="#Degradado_sin_nombre_10"/><linearGradient id="Degradado_sin_nombre_9" x1="147.88" y1="165.49" x2="220.11" y2="203.91" gradientTransform="translate(0 4.05)" gradientUnits="userSpaceOnUse"><stop offset="0.01" stop-color="#fff" stop-opacity="0.5"/><stop offset="1" stop-color="#fff" stop-opacity="0.1"/></linearGradient><linearGradient id="Degradado_sin_nombre_8" x1="300.5" y1="359.91" x2="174.53" y2="359.91" gradientTransform="translate(0 4.05)" gradientUnits="userSpaceOnUse"><stop offset="0" stop-color="#028484" stop-opacity="0.3"/><stop offset="1" stop-color="#028484" stop-opacity="0"/></linearGradient><linearGradient id="Degradado_sin_nombre_7" x1="381.3" y1="226.9" x2="351.3" y2="226.9" gradientTransform="translate(0 4.05)" gradientUnits="userSpaceOnUse"><stop offset="0.01" stop-color="#043263" stop-opacity="0.3"/><stop offset="1" stop-color="#043263" stop-opacity="0"/></linearGradient><linearGradient id="Degradado_sin_nombre_2-2" x1="729.5" y1="405.68" x2="617.55" y2="405.68" xlink:href="#Degradado_sin_nombre_2"/></defs><title>gasolina-verde</title><path class="cls-1" d="M512.24,163.59q0-1.87-.06-3.81a.8.8,0,0,0-.3-.59,2.12,2.12,0,0,0-1.9-.75c-56.67.56-69.82,37.54-72.55,60.23a31.24,31.24,0,0,0-2.75-3c-8-86.35-84.92-86.66-101.17-85.75a3.32,3.32,0,0,0-3.09,2.81v.44c-.05,2.06,0,5.1.18,8.83v.21c0,.34,0,.7.07,1.06v.54l.06.78a3.86,3.86,0,0,0,.07.89c.07.3,0,.33.05.5,0,.4.07.81.11,1.23v.23a114.56,114.56,0,0,0,7.8,31.88H225.85a23,23,0,0,0-23,23h0v124a3,3,0,0,0,3,3h5.34v6.84a3,3,0,0,0,3,3h.55v155h-.89a11,11,0,0,0-11,11v4.2h180v-4.2a11,11,0,0,0-11-11H371v-102h8.89a3,3,0,0,0,3-3v-3.59h.6a10.79,10.79,0,0,1,10.79,10.79h0v32.91h0V452c0,14,11.43,25.8,25.43,25.56a25,25,0,0,0,24.57-25V320.88h4.5a3,3,0,0,0,3-3v-76a3,3,0,0,0-3-3,27.15,27.15,0,0,0-4.5.38v-1q0-1.12-.09-2.22C463,235.29,512.46,227.23,512.24,163.59Zm-83,289.66a10,10,0,0,1-10.65,9.3h0a10.24,10.24,0,0,1-9.32-10.33V396.37h0v-1.32a2.32,2.32,0,0,0-.05-.6c0-.2,0-.47,0-.71s-.05-.39-.08-.59-.05-.47-.08-.7-.08-.4-.11-.61l-.12-.66a2.69,2.69,0,0,0-.14-.61c-.05-.2-.09-.43-.15-.64l-.17-.59c-.06-.2-.11-.42-.18-.63l-.19-.58-.21-.62c-.07-.2-.15-.39-.23-.59s-.15-.39-.23-.58l-.27-.6c-.09-.18-.16-.36-.25-.54l-.29-.58c-.09-.19-.18-.36-.28-.53l-.33-.58c-.11-.19-.19-.34-.29-.5l-.36-.57c-.12-.19-.2-.32-.31-.48l-.39-.55c-.13-.18-.21-.31-.33-.46l-.43-.56-.33-.42-.45-.51-.36-.42c-.15-.17-.31-.32-.46-.48l-.4-.42-.46-.44c-.14-.14-.28-.28-.43-.41l-.49-.43c-.15-.13-.29-.26-.45-.38l-.51-.41-.46-.36-.51-.37-.5-.35-.55-.35-.5-.32c-.18-.12-.38-.22-.57-.33l-.51-.29c-.19-.11-.39-.21-.59-.31l-.52-.26c-.19-.1-.4-.18-.6-.27l-.54-.25-.58-.23-.59-.23-.6-.2-.6-.21-.62-.17-.6-.18-.64-.14-.61-.14L388,371l-.61-.11-.65-.08-.64-.09h-.66l-.65-.05h-1.94V367a3,3,0,0,0-3-3H371V339.12h.49a3,3,0,0,0,3-3v-6.84h5.39a3,3,0,0,0,3-3V224c12.08,5,26.92,8,45.15,8l.12.28a16.43,16.43,0,0,1,1.13,6v9a26.85,26.85,0,0,0-7.48,18.64v52a3,3,0,0,0,3,3h4.48V452.55c0,.23,0,.45,0,.7Z"/><path class="cls-2" d="M439.5,103.12c-75.07.75-73.77,65.4-73.05,76.09a1.7,1.7,0,0,0,1.63,1.56c10.76.36,75.81-.55,73.64-75.71C441.7,103.77,441,103.12,439.5,103.12Z"/><path class="cls-3" d="M368.09,180.44c10.79.36,75.92-.56,73.62-76a.82.82,0,0,0-.85-.78.81.81,0,0,0-.55.25l-72.69,75.36a.68.68,0,0,0,0,1l0,0A.64.64,0,0,0,368.09,180.44Z"/><path class="cls-4" d="M349.23,422.26c-14,.24-25.43-11.58-25.43-25.56V341.05A10.79,10.79,0,0,0,313,330.26H297.3v-15H313a25.79,25.79,0,0,1,25.79,25.79h0V396.9a10.24,10.24,0,0,0,9.32,10.33,10,10,0,0,0,10.65-9.3V183a16.55,16.55,0,0,0-13.93-16.3,3,3,0,0,1-2.57-3v-9.07a3,3,0,0,1,3-3h.36A31.55,31.55,0,0,1,373.8,183V397.3A25,25,0,0,1,349.23,422.26Z"/><path class="cls-5" d="M345.64,151.64a3,3,0,0,0-3.32,2.64,2.16,2.16,0,0,0,0,.36v9.07a3,3,0,0,0,2.57,3A16.53,16.53,0,0,1,358.8,183V308.12l15-28.21V183A31.57,31.57,0,0,0,345.64,151.64Z"/><path class="cls-6" d="M313,315.26H297.3v15H313a10.79,10.79,0,0,1,10.79,10.79h0V374l15-28.21v-4.68a25.79,25.79,0,0,0-25.73-25.85Z"/><rect class="cls-7" x="144.27" y="273.96" width="156.23" height="180"/><path class="cls-8" d="M289.38,124h-134a23,23,0,0,0-23,23h0V271a3,3,0,0,0,3,3h174a3,3,0,0,0,3-3V147A23,23,0,0,0,289.38,124Z"/><rect class="cls-9" x="157.38" y="148.96" width="130" height="100" rx="3"/><rect class="cls-10" x="172.38" y="163.96" width="100" height="24" rx="3"/><rect class="cls-10" x="172.38" y="209.96" width="100" height="24" rx="3"/><path class="cls-11" d="M160.78,149a3.58,3.58,0,0,0-3.4,3.75v92.5a3.58,3.58,0,0,0,3.4,3.75h37.5l48.21-100Z"/><path class="cls-8" d="M378.3,183.56h0a3,3,0,0,1,3,3v76a3,3,0,0,1-3,3h-24a3,3,0,0,1-3-3v-52A27,27,0,0,1,378.3,183.56Z"/><path class="cls-8" d="M300.5,308.71h8.89a3,3,0,0,1,3,3v22.14a3,3,0,0,1-3,3H300.5Z"/><polygon class="cls-12" points="300.5 273.96 270.24 273.96 174.53 453.96 300.5 453.96 300.5 273.96"/><path class="cls-13" d="M140.72,274H304v6.84a3,3,0,0,1-3,3H143.72a3,3,0,0,1-3-3Z"/><path class="cls-14" d="M351.3,252.77v9.79a3,3,0,0,0,3,3h24a3,3,0,0,0,3-3V196.35Z"/><path class="cls-2" d="M364.88,174.76C364.55,74,280.14,73.61,263,74.56a3.33,3.33,0,0,0-3.15,3.25c-.37,17.21,2.85,102.33,103.49,98.76C364.62,176.47,364.81,175.84,364.88,174.76Z"/><path class="cls-15" d="M259.9,77.58c-.42,16.72,2.39,102.75,103.69,99a.7.7,0,0,0,.75-.63.69.69,0,0,0-.29-.62L262,76.69a1.26,1.26,0,0,0-1.76,0A1.27,1.27,0,0,0,259.9,77.58Z"/><rect class="cls-16" width="600" height="600"/><path class="cls-8" d="M143.38,438.76h158a11,11,0,0,1,11,11h0V454h-180v-4.2a11,11,0,0,1,11-11Z"/></svg>