<svg id="b0047852-f5f4-4f8c-8450-b7aab1be4377" data-name="Contenido" xmlns="http://www.w3.org/2000/svg" xmlns:xlink="http://www.w3.org/1999/xlink" viewBox="0 0 600 600"><defs><style>.b1df3b0c-ea65-4aef-a963-394b4034c36f{fill:url(#a2145bd6-7efd-4830-a550-c4d62961c73e);}.e7165dab-90ab-4efa-aea9-ca9acdaaf96a{fill:#f7b27f;}.a99c1a61-1afc-4731-b583-893f3b69e406{fill:url(#bbc2cc18-5d66-4e1b-bef0-ab6c1bf018e1);}.a3386860-06ca-4749-88b0-2917d46feabd{fill:url(#a9094a74-743b-4042-a957-25f55b3994cc);}.a7680ad1-d792-4821-b209-d15ba2cf3931{fill:#2dcccd;stroke:#2dcccd;stroke-miterlimit:10;stroke-width:0.97px;}.f4baefd6-8bd8-4cbc-8861-ec087f3ed8df{fill:#028484;}.b7ca2b62-c33c-477a-a3ff-eb2bfdf0b71a{fill:url(#b98758d0-c9fe-4b59-879a-13039afcda4b);}.fa97acf8-49ad-400e-a9de-cf8124f19a1d{fill:url(#f5bdf9ad-2d4e-4666-9be7-e455c2fe5f91);}.a8131073-f5c7-47ba-99b5-ee9fd9a2f4b0{fill:#ecdad4;}.e78856c4-3566-4dfa-ab9c-9ea5eb32546d{fill:none;}</style><linearGradient id="a2145bd6-7efd-4830-a550-c4d62961c73e" x1="259.22" y1="134.8" x2="450.1" y2="493.79" gradientUnits="userSpaceOnUse"><stop offset="0" stop-color="#1c2645"/><stop offset="0" stop-color="#1c2645" stop-opacity="0.5"/><stop offset="1" stop-color="#1c2645" stop-opacity="0"/></linearGradient><radialGradient id="bbc2cc18-5d66-4e1b-bef0-ab6c1bf018e1" cx="287.53" cy="374.59" r="127.29" gradientUnits="userSpaceOnUse"><stop offset="0.59" stop-color="#d8722c" stop-opacity="0.4"/><stop offset="1" stop-color="#d8722c" stop-opacity="0"/></radialGradient><radialGradient id="a9094a74-743b-4042-a957-25f55b3994cc" cx="-1730.5" cy="-2284.35" r="126.92" gradientTransform="translate(-1707.63 2128.77) rotate(83.32)" xlink:href="#bbc2cc18-5d66-4e1b-bef0-ab6c1bf018e1"/><linearGradient id="b98758d0-c9fe-4b59-879a-13039afcda4b" x1="-3710.77" y1="-2663.83" x2="-4032.64" y2="-2663.83" gradientTransform="translate(-3561.8 3096.61) rotate(108.91)" gradientUnits="userSpaceOnUse"><stop offset="0" stop-color="#028484" stop-opacity="0.4"/><stop offset="1" stop-color="#028484" stop-opacity="0.1"/></linearGradient><linearGradient id="f5bdf9ad-2d4e-4666-9be7-e455c2fe5f91" x1="273.49" y1="246.34" x2="414.69" y2="246.34" gradientUnits="userSpaceOnUse"><stop offset="0" stop-color="#028484" stop-opacity="0.4"/><stop offset="1" stop-color="#028484" stop-opacity="0"/></linearGradient></defs><path class="b1df3b0c-ea65-4aef-a963-394b4034c36f" d="M480,159.32l-14.77-4.7c-28.76-6.14-67.36,1.41-101.31,20.85l-.15.07-.33.2c-3.9,2.26-7.75,4.66-11.51,7.23q-2.55,1.71-5,3.51c-36.76-27-83-38.65-116.52-32.2l-.08-.28-16.43,5.32h0l-1.69.55.06.17c-55,24.42-101.7,108-76.94,184.49,38.28,118.26,185.38,191.11,209.31,202.29a8.65,8.65,0,0,0,4.59,0c23.94-11.18,171-84,209.31-202.29C583.56,267.26,535.68,182.8,480,159.32Z"/><path class="e7165dab-90ab-4efa-aea9-ca9acdaaf96a" d="M306.29,498.15a3.91,3.91,0,0,1-5.09-1.64c-12.84-23.09-89.37-168.31-51.1-286.57C275,133.08,366.87,94.12,422.26,106l14.78,4.7c55.69,23.47,103.57,107.94,78.56,185.21C477.33,414.13,330.22,487,306.29,498.15Z"/><path class="a99c1a61-1afc-4731-b583-893f3b69e406" d="M307,498.52s114.88-130.66,98.57-266.45c0,0-24.17-38.65-51.75-22.61"/><path class="a3386860-06ca-4749-88b0-2917d46feabd" d="M475.94,199.35A97,97,0,0,0,478,188.73c-20.4,22.62-59.51,32.36-99.76,22.05-35.76-9.16-63.13-31.76-73.71-57.48a3.39,3.39,0,0,0-6.42.39l0,.1c-12.84,50.15,16.56,101,65.67,113.58S463.09,249.49,475.94,199.35Z"/><path class="a7680ad1-d792-4821-b209-d15ba2cf3931" d="M303.06,497.72a4,4,0,0,0,5.11-1.8c12.4-23.73,86.08-172.9,44.16-291.71C325.08,127,230.94,90,175.13,103.43l-14.84,5.15C104.48,133.85,58.22,220.7,85.61,298.33,127.53,417.13,278.51,487,303.06,497.72Z"/><path class="f4baefd6-8bd8-4cbc-8861-ec087f3ed8df" d="M275.33,379.64a3.51,3.51,0,0,1-3.71-3.09c-.81-6.71-1.89-13.52-3.07-20.23-1.37-7.84-3-15.65-4.72-23.42q-5.25-23.29-12.44-46.06t-16.27-44.72c-1.55-3.64-3-7.32-4.65-10.92l-4.91-10.8c-3.46-7.1-6.86-14.23-10.64-21.15L212.15,194c-.92-1.74-1.94-3.42-2.91-5.14-2-3.4-3.87-6.85-5.91-10.21l-6.22-10c-1-1.68-2.12-3.3-3.22-4.93l-3.28-4.88L187.32,154c-1.12-1.6-2.3-3.16-3.45-4.75-2.33-3.14-4.58-6.34-7-9.44-4.88-6.1-9.64-12.3-14.87-18.08-5-6-10.51-11.49-15.84-17.14-2.73-2.76-5.6-5.37-8.39-8.07l-4.2-4c-1.43-1.3-2.93-2.54-4.38-3.81l-8.79-7.58L111.28,74l-7.92-5.67a13.53,13.53,0,0,1-3.24-18.75h0a13.55,13.55,0,0,1,19.57-2.83L128,53.34l9.44,8.2,9,8.66c1.49,1.46,3,2.87,4.48,4.35l4.27,4.54c2.83,3,5.73,6,8.48,9.11,5.37,6.33,10.89,12.51,15.84,19.14,5.2,6.43,9.88,13.24,14.67,20,2.33,3.4,4.52,6.89,6.78,10.33,1.12,1.73,2.26,3.44,3.35,5.18l3.16,5.3,3.16,5.29c1.06,1.76,2.12,3.52,3.08,5.33l5.91,10.8c1.93,3.61,3.71,7.3,5.57,10.95.9,1.83,1.86,3.64,2.72,5.5l2.58,5.57c3.52,7.38,6.63,14.93,9.8,22.45l4.44,11.39c1.48,3.8,2.78,7.66,4.18,11.49q8.08,23,14.14,46.65t10.1,47.57c1.35,8,2.53,16,3.49,24,.83,6.92,1.55,13.79,2,20.8a3.5,3.5,0,0,1-3.27,3.71Z"/><path class="b7ca2b62-c33c-477a-a3ff-eb2bfdf0b71a" d="M275.06,375.39C272.69,375.77,240.2,222,238,222.58l-77.66-113.5C104.48,134.35,58.22,221.2,85.61,298.83c41.92,118.8,192.9,188.7,217.45,199.39a3.79,3.79,0,0,0,1.8.31Z"/><path class="fa97acf8-49ad-400e-a9de-cf8124f19a1d" d="M220.22,289.74s8.41,4.79,29.8,2.58,58.56-35,69.45-40.51,41.95-15.28,41.95-15.28a290.62,290.62,0,0,0-8.23-31.92l-26.52-4.84L292.3,219Z"/><path class="e7165dab-90ab-4efa-aea9-ca9acdaaf96a" d="M387.1,195.7c2.19-4.63,3.06-9.79,3.7-14.84,1.19-9.45,1.45-19,2.57-28.41-21.21-12.54-43.67-23.63-68.23-26.68a9.09,9.09,0,0,0-4.33,1.11c-11.38,6.83-21.31,13.15-29.34,22.22C260.56,184,249,203.73,220.79,230.65s-46.34,35.15-44,45,23.64,22.25,36.22,19.87c17.67-3.34,34.42-7.75,54.18-21.85s36.58-31.11,43-37.79c11.63-12.11,45.62-43.65,73-33.05C384.59,200.5,386,198.15,387.1,195.7Z"/><path class="a8131073-f5c7-47ba-99b5-ee9fd9a2f4b0" d="M211.89,235.59c4.82,6,15.24,19.44,13.13,21.46-2.72,2.61-6,8-16.85,15.8s-21.24,4.52-26.14,1a31.2,31.2,0,0,1-6.1-6C180.3,260.79,193.46,252.3,211.89,235.59Z"/><rect class="e78856c4-3566-4dfa-ab9c-9ea5eb32546d" width="600" height="600"/></svg>