<svg id="Capa_1" data-name="Capa 1" xmlns="http://www.w3.org/2000/svg" xmlns:xlink="http://www.w3.org/1999/xlink" viewBox="0 0 600 600"><defs><style>.cls-1{fill:url(#Degradado_sin_nombre);}.cls-2{fill:none;}.cls-3{fill:#1464a5;}.cls-4{fill:url(#Degradado_sin_nombre_2);}.cls-5{fill:#043263;opacity:0.6;isolation:isolate;}.cls-6{fill:#fff;}.cls-7{fill:#39cbcb;}.cls-8{fill:url(#Degradado_sin_nombre_5);}.cls-9{fill:url(#Degradado_sin_nombre_5-2);}</style><linearGradient id="Degradado_sin_nombre" x1="286.39" y1="212.7" x2="413.65" y2="452.05" gradientUnits="userSpaceOnUse"><stop offset="0" stop-color="#192647" stop-opacity="0.5"/><stop offset="1" stop-color="#192647" stop-opacity="0"/></linearGradient><linearGradient id="Degradado_sin_nombre_2" x1="480" y1="-6696" x2="241.36" y2="-6696" gradientTransform="translate(0 6996)" gradientUnits="userSpaceOnUse"><stop offset="0" stop-color="#043263"/><stop offset="1" stop-color="#043263" stop-opacity="0"/></linearGradient><linearGradient id="Degradado_sin_nombre_5" x1="929.82" y1="622.06" x2="795.62" y2="622.06" gradientTransform="translate(-343.09 -357.32) rotate(4.57)" gradientUnits="userSpaceOnUse"><stop offset="0" stop-color="#028484" stop-opacity="0.5"/><stop offset="1" stop-color="#028484" stop-opacity="0"/></linearGradient><linearGradient id="Degradado_sin_nombre_5-2" x1="793.68" y1="656.98" x2="680.74" y2="656.98" xlink:href="#Degradado_sin_nombre_5"/></defs><path class="cls-1" d="M564.33,374.35c8.38-19.21,13.2-43.41,12.27-74a3.35,3.35,0,0,0-1.36-2.76h0a5.09,5.09,0,0,0-2.92-.72c-21,.21-39,3-54.29,7.72V253.5a23,23,0,0,0-23-23H181a23,23,0,0,0-23,23v171a23,23,0,0,0,23,23H418.61q4.35.12,8.95,0h6.22c2.07.07,5.19.11,9.11,0H495a23,23,0,0,0,22.84-20.36A112,112,0,0,0,564.33,374.35Z"/><g id="Cuadrados_Blancos" data-name="Cuadrados Blancos"><rect class="cls-2" width="600" height="600"/></g><rect class="cls-3" x="120" y="191.5" width="360" height="217" rx="23"/><path class="cls-4" d="M457,408.5a23,23,0,0,0,23-23v-171a23,23,0,0,0-23-23H356.77l-115.41,217Z"/><rect class="cls-5" x="120" y="222.37" width="360" height="35.28"/><rect class="cls-6" x="172.94" y="325.58" width="254.12" height="31.76" rx="3"/><path class="cls-7" d="M534.29,257.91C388.7,259.36,391.22,384.8,392.62,405.48a3.3,3.3,0,0,0,3.16,3c20.86.7,147-1.08,142.8-146.85C538.51,259.16,537.24,257.91,534.29,257.91Z"/><path class="cls-8" d="M395.05,408.29c20.94.7,148-.69,143.55-146.9a3.35,3.35,0,0,0-1.36-2.76,2.71,2.71,0,0,0-1.44.86L394.15,406.05a1.31,1.31,0,0,0,0,1.85h0A1.33,1.33,0,0,0,395.05,408.29Z"/><path class="cls-7" d="M392.74,406.57c-.34-101.64-85.46-102-102.71-101.06a3.38,3.38,0,0,0-3.18,3.32c-.37,17.36,2.87,103.21,104.38,99.62C392.48,408.33,392.67,407.69,392.74,406.57Z"/><path class="cls-9" d="M286.81,308.59c-.42,16.86,2.41,103.62,104.6,99.87a.71.71,0,0,0,.76-.62.77.77,0,0,0-.26-.63L289,307.75a1.32,1.32,0,0,0-1.76,0h0A1.22,1.22,0,0,0,286.81,308.59Z"/></svg>