<svg id="a0ec1f2c-04e3-4936-87be-04bcad8b74e1" data-name="Blue" xmlns="http://www.w3.org/2000/svg" viewBox="0 0 260 260"><path d="M122.5,114H114v16h8.5c7.5,0,10.3-2.8,10.3-8.1C132.7,116.8,130,114,122.5,114Z"/><path d="M160,10H46.4A6.17,6.17,0,0,0,40,16h0V243.5a6.6,6.6,0,0,0,6.4,6.5H213.6a6.6,6.6,0,0,0,6.4-6.5V69.8ZM92,143c0,10.2-5.2,17.2-18.3,17.2-7.3,0-11.9-2.5-15.2-5.4l5.2-8.8c2.6,2.4,5.9,4.6,9.5,4.6,4.3,0,6.8-2.7,6.8-9.4V104H92Zm30-3h-8v19H102V104h20.2c11.7,0,22.3,3.5,22.3,17.9C144.5,136.6,133,140,122,140Zm76,19H188v-6h-.1c-2.2,4-7.6,7.1-14.5,7.1-16.4,0-23.8-12.1-23.8-28.6,0-17.2,9.5-28.2,24.7-28.2,8.3,0,17.2,3.4,22,13.1L186.1,121c-2.1-4.6-5.8-7.7-11.2-7.7-4.9,0-13.2,2.6-13.2,18s7.4,19.3,13.2,19.3c6,0,10.1-3.7,11.2-9.7h-8.7l-1.8-9H198Z"/></svg>