<svg id="ed3e1bbb-ffb2-43eb-88a6-692629cb57cd" data-name="Blue" xmlns="http://www.w3.org/2000/svg" viewBox="0 0 260 260"><defs><style>.ef47ec8a-4bb6-4360-9d13-b57bee7ca04b{fill-rule:evenodd;}</style></defs><path class="ef47ec8a-4bb6-4360-9d13-b57bee7ca04b" d="M230.32,20H137.7a14.18,14.18,0,0,0-8.41,3.52L50,102.8l82.83,82.8H103.57L35.4,117.46,22.79,130.07a9.91,9.91,0,0,0,0,13.79l93.4,93.35a9.91,9.91,0,0,0,13.79,0l106.5-106.45a13.36,13.36,0,0,0,3.52-8.41V29.68A9.64,9.64,0,0,0,230.32,20Zm-48.8,77.91A19.46,19.46,0,1,1,201,78.46h0A19.45,19.45,0,0,1,181.52,97.91Z"/></svg>