<svg id="e5400bb4-a928-4555-ad57-4a86e6043e45" data-name="Blue" xmlns="http://www.w3.org/2000/svg" viewBox="0 0 260 260"><defs><style>.a00e5f22-6582-4498-8bcd-828819a27f82{fill-rule:evenodd;}</style></defs><path class="a00e5f22-6582-4498-8bcd-828819a27f82" d="M195,130a65,65,0,1,0,65,65A65,65,0,0,0,195,130Zm-10.2,30.8a7.06,7.06,0,0,1,9.9-1.6,7.18,7.18,0,0,1,1.6,10L188,180.8a7.06,7.06,0,0,1-9.9,1.6,7.18,7.18,0,0,1-1.6-10ZM165.1,164a7.16,7.16,0,1,1,10-1.6A7.18,7.18,0,0,1,165.1,164Zm9.3,59.9a7.18,7.18,0,0,1-1.6-10L206,167.6a7.06,7.06,0,0,1,9.9-1.6,7.18,7.18,0,0,1,1.6,10l-33.2,46.3A6.89,6.89,0,0,1,174.4,223.9Zm21.3,6.9a7.18,7.18,0,0,1-1.6-10l8.3-11.6a7.06,7.06,0,0,1,9.9-1.6,7.18,7.18,0,0,1,1.6,10l-8.3,11.6A7.06,7.06,0,0,1,195.7,230.8Zm30.8,4.9a7.16,7.16,0,1,1-1.6-10A7.18,7.18,0,0,1,226.5,235.7Z"/><path d="M151.3,70.9a54.73,54.73,0,0,1-1.2,11.5,38.66,38.66,0,0,0,4.8.3,36.35,36.35,0,1,0-28.8-58.5A55.81,55.81,0,0,1,151.3,70.9Z"/><path d="M154.7,95.5a62.51,62.51,0,0,1-8.7-.7,59.17,59.17,0,0,1-9.5,14.1,88.58,88.58,0,0,1,20,10.5,85.27,85.27,0,0,1,58.2-6.9,67.73,67.73,0,0,0-36.3-22.3A57.1,57.1,0,0,1,154.7,95.5Z"/><circle cx="95.4" cy="70.89" r="40.9"/><path d="M110,194.9a84.63,84.63,0,0,1,32.4-66.6,74.59,74.59,0,0,0-20.7-8.2,60.84,60.84,0,0,1-26.6,6.2,60,60,0,0,1-26.8-6.2C34.9,128,10,157.4,10,192.4V210H111.4A84,84,0,0,1,110,194.9Z"/></svg>