<svg id="e977abf7-bbb2-4130-ba31-3a005f51ca6d" data-name="Blue" xmlns="http://www.w3.org/2000/svg" viewBox="0 0 260 260"><defs><style>.ab66c179-6bc4-469b-beda-a520cc57124d{fill-rule:evenodd;}</style></defs><path class="ab66c179-6bc4-469b-beda-a520cc57124d" d="M188,77c0-9.5-3-14-11.7-14H84.6C75.4,63,72,66.9,72,77v55.5c20,10.2,36.7,8.4,45.9,8.1,3.8-.2,6.5.7,8,2.2.3.2.6.5.9.7a51.73,51.73,0,0,0,5.1,4.2c.3-4.5,2.9-7.5,9.7-7.1,9.3.3,26.4,2.2,46.4-8.6Zm-77.3,56.6c-9.6,0-17.3-7.3-17.3-16.3s7.8-16.3,17.3-16.3,17.3,7.3,17.3,16.3-7.8,16.2-17.3,16.3Zm40.9,0c-9.6,0-17.3-7.3-17.3-16.3s7.8-16.3,17.3-16.3,17.3,7.3,17.3,16.3-7.8,16.2-17.3,16.3Z"/><path class="ab66c179-6bc4-469b-beda-a520cc57124d" d="M130,10A120,120,0,1,0,250,130,120,120,0,0,0,130,10Zm71.4,121.6c-5.3,6.4-15.3,14.5-30.6,20.8,16.3,55.3-39.7,64.1-38.8,35.8,0,.5,0-15.2-.1-26.9-1.2-.3-2.5-.6-3.9-1,0,11.8-.1,28.4-.1,27.9.9,28.4-55,19.6-38.8-35.8-15.4-6.3-25.4-14.4-30.6-20.8-2.7-4-.3-8.2,4.1-5.1.6.4,1.3.8,1.3,1.2V70.5A14.79,14.79,0,0,1,78.1,56H181.7c7.3,0,13.2,6.5,13.2,14.5v57.2c0-.4,1.2-.8,1.8-1.2C201.2,123.4,204.2,127.6,201.4,131.6Z"/></svg>