<svg id="b14521e7-2a93-468f-b984-c26c18672828" data-name="Blue" xmlns="http://www.w3.org/2000/svg" viewBox="0 0 260 260"><polygon points="10 10 10 10.3 10 32.33 10 240.28 30 240.28 30 30.32 240 30.32 240 10 10 10"/><path d="M140.2,157.38a12.09,12.09,0,0,0-12.1,12.12v68.78a12.05,12.05,0,0,0,24.1,0V169.5A12.07,12.07,0,0,0,140.2,157.38Z"/><ellipse cx="140" cy="70.07" rx="20" ry="20.02"/><rect x="60" y="59.66" width="39.8" height="20.12"/><rect x="179.8" y="59.66" width="39.8" height="20.12"/><path d="M177.8,100.51H165.6a39.18,39.18,0,0,1-50.9,0H102.5a12,12,0,0,0-12,12V230.17h20.2V169.6a29.5,29.5,0,1,1,59,0v60.57h20.1V112.53a12,12,0,0,0-12-12Z"/></svg>