<svg id="bd2538ba-9899-4d99-93d9-7921d2cbe3de" data-name="Blue" xmlns="http://www.w3.org/2000/svg" viewBox="0 0 260 260"><path d="M58.52,179.23a2.69,2.69,0,0,1-.7-1.73c0-.67-.4-6.14-.8-12.18l-.8-11.14.9-19.67c.9-20.06,1-20.73,2.6-20.73a2,2,0,0,1,1.2.57c.6.48.8,3,1.8,19.87l1.1,19.39-1.1,12.67c-.7,7-1.3,12.95-1.6,13.24a1.78,1.78,0,0,1-2.6-.29Z"/><path d="M68,179c-.5-.67-.8-4.41-1.5-13.44-.7-10.75-.8-13.82-.5-21.88.2-5.09.6-15.26.8-22.55s.6-13.63.7-14.4c.4-2.3,3.2-2.69,3.7-.48.1.48.7,11.32,1.2,24.09l1,23.32-1,12c-.4,4.13-.7,8.35-1,12.48,0,.67-1.2,1.72-2.1,1.72A4.31,4.31,0,0,1,68,179Z"/><path d="M77.82,179.14c-.7-.68-.8-1.64-1-6.34-.2-3.07-.5-7.68-.7-10.17-.6-6.34-.5-14.69.2-34.36.4-9.31.7-18.81.7-21.12.1-4.8.5-6.24,1.8-6.52,1.6-.39,2.8.67,2.8,2.59,0,.86.5,12.57.9,25.91l.9,24.19-.9,12.19c-.5,6.62-.9,12.28-.9,12.57,0,.67-1.2,1.73-2.2,1.73a3.92,3.92,0,0,1-1.6-.67Z"/><path d="M87.53,179.14c-.5-.58-.7-1.64-.9-3.36-1.4-20.45-1.4-22-.7-43.29.8-29.46,1-32.25,1.8-33a3.26,3.26,0,0,1,3.5,0c.4.38.7,5.56,1.1,17.27,1.1,32.63,1.2,37.82.5,48.57-.8,12.09-.9,13.24-1.8,13.91a2.69,2.69,0,0,1-3.5-.09Z"/><path d="M97.33,179.14a3.28,3.28,0,0,1-.8-2.12c0-.67-.3-6-.7-12-.7-10-.7-12.77,0-36.95.7-28,.7-27.55,2.9-28,1.9-.38,3.1,1.15,3.1,3.94,0,1.24.2,7.77.4,14.49s.5,16.79.7,22.55.3,10.56.4,10.85-.2,6-.7,12.57c-.3,4.32-.6,8.64-.8,13A3.14,3.14,0,0,1,99,179.9a3.11,3.11,0,0,1-1.8-.86l.1.1Z"/><path d="M107.33,179.14c-.8-.77-.9-1.83-1.8-16.22-.5-8.35-.4-17.18.5-45.69.5-15.26.5-15.55,3-15.55a3.38,3.38,0,0,1,2.2.77c.8.77.8,1.44,1.2,14.59.1,4.13.5,14.2.7,22.27.41,13.24.41,16-.4,26.87-.7,11.71-.8,12.09-1.8,12.86a3,3,0,0,1-3.7,0h.1v.1Z"/><path d="M117.24,179.14c-.6-.58-.8-1.54-1-3.36-.7-6.91-1.1-24.09-.9-34.27.1-6.33.4-15.93.5-21.59.5-22.75.7-26.3,1.5-27.16a3.14,3.14,0,0,1,4,0c1,1,1.1,3.84,2.1,47.7.3,13.24-.7,36.37-1.6,38a2.92,2.92,0,0,1-4.6.68Z"/><path d="M127.44,179.14a3,3,0,0,1-1.3-2.12c-.1-.76-.5-6.52-.8-13.05-.5-9.21-.6-14.78-.3-26.1.2-7.87.5-21,.7-29.09.3-18.52.5-20.34,1.6-21.4a3.22,3.22,0,0,1,4.3.19c.9.87,1,1.25,1.1,5.86,0,2.69.1,5.37.2,5.95s.2,8.16.4,17,.4,16.12.5,16.22c.5.67.1,26.77-.5,34.84-.3,3.26-.5,6.62-.7,9.88,0,1-1.9,2.69-3.1,2.69a6.67,6.67,0,0,1-2.1-.86Z"/><path d="M136.54,178.94l-1-1V85l1.1-.77c1.3-.95,6.31-2.49,11.21-3.55a63.87,63.87,0,0,1,19.6.2c22.11,4.41,37.82,20.63,41.42,42.8l.3,1.44,3.7-1a21.82,21.82,0,0,1,8.2-.77c5.7.29,6,.29,9.7,1.64,16.51,6,24,24.28,16,39.35-3.7,7-8.9,11.42-16.91,14.2l-3,1.06-44.61.09-44.62.1-1.1-.87Z"/><path d="M48.71,178.56c-.2-.48-.7-6.33-1.3-13.15-.9-11.9-.9-12.38-.3-20,.4-4.22.8-9.41.9-11.52.3-3.74.9-5.57,2-5.57,1.3,0,1.7,1.44,2.8,12.87l1.1,11.7-1.1,12.39c-.6,6.81-1.2,12.76-1.4,13.34s-.7.86-1.4.86a1.14,1.14,0,0,1-1.3-1Z"/><path d="M39.31,178.75c-.1-.19-.7-5.95-1.3-12.76l-1.1-12.38L38,140.75c.6-7.11,1.3-13.15,1.5-13.44a1.25,1.25,0,0,1,2,0c.3.29,1,6.24,1.7,13.34l1.2,12.76-1.2,12.39c-.7,6.81-1.3,12.57-1.4,12.86-.2.48-2.2.67-2.5.09Z"/><path d="M30,177.79c-.2-.29-.8-5.76-1.4-12.19l-1.1-11.8,1-11.14c.6-6.14,1.1-12,1.2-12.86.3-1.82,1.1-2.49,2-1.72.3.28,1,5.56,1.8,12.67l1.3,12.18-1.2,11.81c-.7,6.43-1.4,12.09-1.6,12.67-.5,1-1.4,1.15-2,.38Z"/><path d="M20.6,174c-.1-.38-.7-5.28-1.3-10.84l-1.1-10.18,1.2-10.36c1.1-9.89,1.3-10.37,2.2-10.56s.9-.67,2.6,11.9l1.21,9.31L24.2,163c-.7,5.38-1.4,10.18-1.6,10.66-.5,1.05-1.5,1.15-1.8.19h-.2Z"/><path d="M11.9,166.37c-.4-2.21-.8-4.51-1.1-6.72l-.8-6.14.9-6.43a50,50,0,0,1,1.3-7c.9-1,1.6.68,2.5,7l1,6.43-1,6.43c-.6,3.55-1.3,6.62-1.6,6.82-.8.57-1,.48-1.2-.39Z"/></svg>