<svg id="bdf16b5b-897a-453f-adf7-5da656d387a0" data-name="Blue" xmlns="http://www.w3.org/2000/svg" viewBox="0 0 260 260"><defs><style>.fd8175ca-b3e9-4c84-9997-b318a1a68120{fill-rule:evenodd;}</style></defs><path class="fd8175ca-b3e9-4c84-9997-b318a1a68120" d="M132.83,21.6,60.34,80H20.07A10.06,10.06,0,0,0,10,90v80a10.06,10.06,0,0,0,10.07,10H60.34l72.49,58.31c4.43,3.3,8,1.6,8-4.1V25.7C140.88,20.1,137.16,18.4,132.83,21.6Z"/><path d="M182.67,87.4l-21.45,21.2a29.85,29.85,0,0,1,.1,42.4l-.1.1,21.45,21.21a59.68,59.68,0,0,0,0-84.91Z"/><path d="M225.45,44.89,204,66.09a89.76,89.76,0,0,1,0,127.52h0l21.44,21.2C271.87,168.11,271.16,92.4,225.45,44.89Z"/></svg>