<svg id="b6f834a3-3ead-46e5-a584-ed23612f9ce4" data-name="Blue" xmlns="http://www.w3.org/2000/svg" viewBox="0 0 260 260"><path d="M61.43,10H198.57C205.43,10,210,14.36,210,20.91V239.09c0,6.55-4.57,10.91-11.43,10.91H61.43C54.57,250,50,245.64,50,239.09V20.91C50,14.36,54.57,10,61.43,10ZM72.86,31.82V206.36H187.14V31.82ZM130,239.09c6.86,0,11.43-4.36,11.43-10.91s-4.57-10.91-11.43-10.91-11.43,4.37-11.43,10.91S123.14,239.09,130,239.09Zm13.71-135.27-13.71,12H103.71v6.54h40l-13.71,12H107.14c5.72,9.82,17.15,15.28,28.57,15.28a37.9,37.9,0,0,0,24-8.73l9.15,8.73a49.84,49.84,0,0,1-33.15,13.09c-26.28,0-46.85-19.64-46.85-43.64v-3.27h0c3.43-22.91,22.85-40.37,48-40.37,12.57,0,25.14,4.37,33.14,13.1l-9.14,8.72c-5.72-5.45-14.86-8.72-24-8.72a34,34,0,0,0-28.57,15.27Z"/></svg>