<svg id="b01b6746-c590-4097-b18d-6a8d9aee8fc0" data-name="Blue" xmlns="http://www.w3.org/2000/svg" viewBox="0 0 260 260"><path d="M130.39,58c15.85,0,31.69-8,31.69-8l15.84-40s-31.68,6.43-47.53,6.43S82.86,10,82.86,10L98.7,50S114.55,58,130.39,58Z"/><path d="M173.44,60l-.19.38-4.87,2.5c-1.91,1-19.38,9.5-38.08,9.5s-36.08-8.54-38.09-9.5l-3.91-2C67.78,75.57,25.78,108.5,25,154.29,23.68,230.8,92.4,250,131.44,250c36.94,0,103.46-19.2,103.56-95.71C235.1,107.63,193.39,74.42,173.44,60ZM92.88,182.42H82.1V141.81H67.4v-9.12h39.42l1.62,9.12H92.88Zm45.82.76-3.92-11.9H118l-3.81,11.14h-9.93l17.47-49.92h10.21l17.18,49.15Zm46.38,0L174.2,164.94,164,182.42H152.53l15.75-26.31-13.93-22.65,11.36-1.64,9.16,15.84,8.4-15h11.26L180.6,156.21l15.46,25.44Z"/><polygon points="126.38 146.42 120.66 163.41 132.21 163.41 126.57 146.42 126.38 146.42"/></svg>