<svg id="b100c11b-a50b-46eb-97bd-bdb1d5b0ecf5" data-name="Blue" xmlns="http://www.w3.org/2000/svg" viewBox="0 0 260 260"><path d="M130.05,5A100,100,0,0,0,30,105v3c2,88.29,91.65,144.68,91.65,144.68,4.6,3.1,12,3.1,16.5.1,0,0,89.85-56.49,91.85-144.78v-3A99.9,99.9,0,0,0,130.05,5Zm50,174a6,6,0,0,1-6,6h-24V155H110v30H86a6,6,0,0,1-6-6V55L180.07,45Z"/><rect x="120.04" y="114.98" width="20.01" height="20"/><rect x="120.04" y="84.59" width="20.01" height="20.4"/><polygon points="170.07 84.59 150.06 84.99 150.06 104.98 170.07 104.98 170.07 84.59"/><rect x="150.06" y="114.98" width="20.01" height="20"/><rect x="90.03" y="84.59" width="20.01" height="20.4"/><rect x="90.03" y="114.98" width="20.01" height="20"/></svg>