<svg id="bbae2268-9dd7-4e4f-bebb-872d8d10ccd0" data-name="Blue" xmlns="http://www.w3.org/2000/svg" viewBox="0 0 260 260"><path d="M130,10A120,120,0,1,0,250,130,120,120,0,0,0,130,10Zm28.3,187.2c-13.2,0-23-5.4-31-11.7-7.3,7.3-17.2,11.7-29.5,11.7-11.5,0-23.8-6.5-23.8-21.1,0-14.9,10.5-23.5,25.1-23.5,7.9,0,14.4,3.1,20.7,6.9a56.22,56.22,0,0,0,.2-5.9c0-8.8-2.9-16.5-6.5-23.5H87.2V114.4h17.2c-4.6-8-8.2-16.3-8.2-26.2,0-21.6,15.5-37.9,40.4-37.9,30.3,0,39.8,18.6,42.9,36.9l-21.3,4C156.7,79.1,151.7,70,137.1,70c-11.9,0-18,7.7-18,18,0,9.4,4.8,17.4,9.8,26.4h33.5v15.7H136.3s4,13.2,4,21.6a50.79,50.79,0,0,1-3.8,19.9c5.7,3.6,11.5,6.5,18,6.5,12.5,0,15.9-5.6,16.5-21.1h21C192,178.4,184.1,197.2,158.3,197.2Z"/><path d="M99.3,166.9c-5.9,0-9.6,3.6-9.6,8.8,0,5,3.8,8.6,9.4,8.6a17.65,17.65,0,0,0,15.9-9.2C109.6,170.5,104.6,166.9,99.3,166.9Z"/></svg>