<svg id="a8c6082b-60ad-43d2-8177-a2d9528a9176" data-name="Blue" xmlns="http://www.w3.org/2000/svg" viewBox="0 0 260 260"><defs><style>.b2ce9b4a-2bd9-46c2-bad1-2a473dae5b1c{fill-rule:evenodd;}</style></defs><g id="f8000341-bd41-4ff6-a0ee-a2ce31b9a67f" data-name="Print"><path id="b4ae626d-1340-4a89-9f99-21df6f08afa1" data-name="Combined-Shape" class="b2ce9b4a-2bd9-46c2-bad1-2a473dae5b1c" d="M210,70h30V180a10,10,0,0,1-10,10H210v40a10,10,0,0,1-10,10H60a10,10,0,0,1-10-10V190H30a10,10,0,0,1-10-10V70H50V30A10,10,0,0,1,60,20H200a10,10,0,0,1,10,10ZM70,40V70H190V40ZM170,90v20h30l20-20ZM70,160v60H190V160Zm20,20h70l-20,20H90Z"/></g></svg>