<svg id="a8d343e6-5b9e-4a3f-a158-f6c9980045cc" data-name="Blue" xmlns="http://www.w3.org/2000/svg" viewBox="0 0 260 260"><defs><style>.b2c03776-d49f-4103-bbac-0330bd0cfa27{fill-rule:evenodd;}</style></defs><path class="b2c03776-d49f-4103-bbac-0330bd0cfa27" d="M130.05,5A100,100,0,0,0,30,105v3c2,88.29,91.65,144.68,91.65,144.68,4.6,3.1,12,3.1,16.5.1,0,0,89.85-56.49,91.85-144.78v-3A99.9,99.9,0,0,0,130.05,5Zm49.52,135.28-14.1,14.1-35.42-35.3-35.42,35.4-14.1-14.1L115.94,105,80.53,69.59l14.1-14.1,35.42,35.3,35.42-35.4,14.1,14.1-35.41,35.39Z"/></svg>