<svg id="a0b8c60e-5997-41ac-929d-e9fab52f06ea" data-name="Blue" xmlns="http://www.w3.org/2000/svg" viewBox="0 0 260 260"><defs><style>.be37af32-f683-4650-8d25-15a8f1f84409{fill-rule:evenodd;}</style></defs><path class="be37af32-f683-4650-8d25-15a8f1f84409" d="M130,10A120,120,0,1,0,250,130,120,120,0,0,0,130,10Zm9.8,153.8c-9.1-.7-13-5.2-20.1-9.6-3.9,20.6-8.8,40.4-23,50.8-4.4-31.2,6.5-54.6,11.5-79.5-8.7-14.5,1-43.6,19.1-36.5,22.3,8.8-19.3,53.8,8.6,59.4,29.2,5.9,41.1-50.6,23-69-26.1-26.5-76.1-.6-70,37.4,1.5,9.3,11.1,12.1,3.8,24.9C76,138,71,124.8,71.7,107.2c1-28.8,25.9-49,50.8-51.8C154,51.9,183.6,67,187.7,96.6c4.6,33.6-14.3,69.8-47.9,67.2Z"/></svg>