<svg id="a63183db-0ce2-4290-b039-273db5b541d8" data-name="Blue" xmlns="http://www.w3.org/2000/svg" viewBox="0 0 260 260"><ellipse cx="129.66" cy="130.45" rx="30.02" ry="30.04"/><path d="M130.06,10A120.17,120.17,0,0,0,45.12,215.06l14.11-14.12A100.07,100.07,0,0,1,200.7,59.36c39,39.15,39.12,102.53,0,141.58h0l14.11,14.12A120.1,120.1,0,0,0,130.06,10Z"/><path d="M130.06,50.05A80.09,80.09,0,0,0,73.43,186.72L87.94,172.2a59.52,59.52,0,1,1,84.14.1l-.3.3,14.51,14.52A80.1,80.1,0,0,0,130.06,50.05Z"/><rect x="120.26" y="170.4" width="19.71" height="79.6"/></svg>