<svg id="fd1e7043-dd88-4b35-a268-2f3bda0ba11a" data-name="Blue" xmlns="http://www.w3.org/2000/svg" viewBox="0 0 260 260"><defs><style>.a99625c8-4614-4e05-9c1f-3e88b70debbc{fill-rule:evenodd;}</style></defs><path class="a99625c8-4614-4e05-9c1f-3e88b70debbc" d="M250,139a27.35,27.35,0,0,0-19.95-26.21c0-.19-.09-.37-.09-.55l-.09-.36C221.65,67.44,184.25,34,138.63,30.13a28,28,0,0,0-8.31.45c-7.76,1.64-9.51,5.92-9.6,12.92V54.34c0,4.36,1.2,11.65,9.51,11.83,3.51.09,6.18-.55,7.39-1.73s1.66-13.11,1.57-16.29l18.46,9.1c.28,10.56-3.69,16.74-7,20.11-5,4.92-12,7.28-20.87,7-16.16-.45-27.43-12.74-27.43-30v-11a41.62,41.62,0,0,1,1.29-10.1,100.93,100.93,0,0,0-73.6,79v.09c0,.18-.09.37-.09.55A27.26,27.26,0,0,0,11.1,146.72a27.71,27.71,0,0,0,24.29,19.56C50.53,204.33,87.56,229.54,129,230a102,102,0,0,0,95.67-63.71A27.63,27.63,0,0,0,250,139Zm-175.46-9.1A18.47,18.47,0,1,1,93,148.08,18.4,18.4,0,0,1,74.54,129.88Zm99.27,43.87c-6.92,16.74-24.37,27.85-43.95,27.85s-37-11.2-43.87-27.85a5.46,5.46,0,0,1,3.14-7.1,5,5,0,0,1,2-.37h77.47a5.52,5.52,0,0,1,5.54,5.46,4.83,4.83,0,0,1-.37,2Zm-6.92-25.67a18.21,18.21,0,1,1,18.47-18.2A18.39,18.39,0,0,1,166.89,148.08Z"/></svg>